<svg height="512" viewBox="0 0 58 58" width="512" xmlns="http://www.w3.org/2000/svg"><g id="016---Biohazard" fill="none"><circle id="Oval" cx="29" cy="29" fill="#464f5d" r="29"/><circle id="Oval" cx="29" cy="29" fill="#f29c1f" r="25"/><g fill="#464f5d"><path id="Shape" d="m33.02 8.01-.02-.01s0 .01.02.01z"/><path id="Shape" d="m38.24 23.77-.09-.16c4.5-11.39-4.67-15.41-5.13-15.6 2.008374 1.18721452 3.4065228 3.1835803 3.8356644 5.4768055.4291415 2.2932252-.1524986 4.6600778-1.5956644 6.4931945-.0256439-.0375763-.0599394-.0684423-.1-.09-3.7194356-2.5220854-8.6005644-2.5220854-12.32 0-.0400606.0215577-.0743561.0524237-.1.09-1.4434931-1.8329996-2.025336-4.1999561-1.5961742-6.4932899.4291619-2.2933338 1.8275374-4.28972313 3.8361742-5.4767101-.46.19-9.63 4.21-5.13 15.6l-.09.16c-12.12 1.8-11.01 11.75-10.95 12.24.0495249-.7299877.17009511-1.453409.36-2.16 1.0809883-3.890397 4.8984845-6.3595312 8.89-5.75-.0478967.2974868-.0679834.5987879-.06.9-.0114401 4.2102718 2.3908065 8.0546438 6.18 9.89.0381114.0208798.0783383.037641.12.05-1.4689952 3.7573571-5.5150213 5.8233215-9.42 4.81h-.01c-.7015797-.1953849-1.3842951-.4530765-2.04-.77.4.3 8.46 6.23 16.08-3.36h.18c7.62 9.59 15.68 3.66 16.08 3.36-4.948 2.474-9.888.094-11.47-4.04.0416617-.012359.0818886-.0291202.12-.05 3.7891935-1.8353562 6.1914401-5.6797282 6.18-9.89.0079834-.3012121-.0121033-.6025132-.06-.9 3.9915155-.6095312 7.8090117 1.859603 8.89 5.75.1897313.7066287.3102987 1.4300329.36 2.16.06-.49 1.17-10.44-10.95-12.24zm-4.44-2.38c-2.8393867 2.148453-6.7606133 2.148453-9.6 0 2.9412147-1.8200142 6.6587853-1.8200142 9.6 0zm-4.8 10.61c-1.6568542 0-3-1.3431458-3-3s1.3431458-3 3-3 3 1.3431458 3 3-1.3431458 3-3 3zm-9-3c0-.12 0-.24.01-.35 3.2754968 1.3880907 5.2342123 4.779117 4.8 8.31-2.9655943-1.5452138-4.8211847-4.6160038-4.81-7.96zm13.19 7.96c-.4345603-3.5309538 1.524268-6.9221753 4.8-8.31.01.11.01.23.01.35.0111847 3.3439962-1.8444057 6.4147862-4.81 7.96z"/><path id="Shape" d="m49.19 36.04v-.03l-.01.01z"/><path id="Shape" d="m8.82 36.02-.01-.01v.03z"/></g></g></svg>