<svg height="512" viewBox="0 0 60 54" width="512" xmlns="http://www.w3.org/2000/svg"><g id="039---Corrosive" fill="none" transform="translate(-1 -1)"><path id="Shape" d="m27.15 4.252-24.543 42.962c-.80501772 1.3890835-.8127723 3.100947-.02037219 4.4972667s2.26601976 2.2675153 3.87137219 2.2887333h49.084c1.6053524-.021218 3.0789721-.8924136 3.8713722-2.2887333s.7846455-3.1081832-.0203722-4.4972667l-24.543-42.962c-.7822602-1.39106185-2.2540727-2.25196213-3.85-2.25196213s-3.0677398.86090028-3.85 2.25196213z" fill="#f0c419"/><g fill="#464f5d"><path id="Shape" d="m60.26 46.72-24.54-42.96c-.9589765-1.70547628-2.7633996-2.76097946-4.72-2.76097946s-3.7610235 1.05550318-4.72 2.76097946l-24.54 42.96c-.98278783 1.6983152-.98958172 3.7908241-.01784256 5.4954851.97173916 1.7046611 2.77576145 2.7649173 4.73784256 2.7845149h49.08c1.9620811-.0195976 3.7661034-1.0798538 4.7378426-2.7845149.9717391-1.704661.9649452-3.7971699-.0178426-5.4954851zm-4.72 6.28h-49.08c-1.24896271-.0208951-2.39318394-.7025106-3.00627126-1.7908434-.61308731-1.0883329-.60308817-2.4201519.02627126-3.4991566l24.54-42.96c.6025444-1.0805505 1.7428059-1.75027078 2.98-1.75027078s2.3774556.66972028 2.98 1.75027078l24.54 42.96c.6293594 1.0790047.6393586 2.4108237.0262713 3.4991566-.6130874 1.0883328-1.7573086 1.7699483-3.0062713 1.7908434z"/><path id="Shape" d="m39.88 19.18-.91-2.62c-.16961-.5055637-.5353124-.9217353-1.014875-1.1549344-.4795627-.2331991-1.0327331-.2638519-1.535125-.0850656-10.849 3.808-7.613 2.649-14.54 5.08-1.6708386.6870154-2.5126585 2.560747-1.9166873 4.2661825.5959712 1.7054354 2.4216119 2.6470123 4.1566873 2.1438175l2.39-.84c-.0082685-.0326539-.0116387-.0663553-.01-.1 0-2.861 2.987-4.579 5.11-2.35.1736614.1754908.364634.3329595.57.47 5.689-1.99 3.049-1.09 6.48-2.27.502024-.1703749.9143039-.5357091 1.1438373-1.01359.2295333-.4778808.2569851-1.0280538.0761627-1.52641zm-3.51 1.23-5.08-1.18 5.79-2.02.92 2.63z"/><path id="Shape" d="m40.94 26.27c-.0843941-.1653462-.2543613-.2694204-.44-.2694204s-.3556059.1040742-.44.2694204c-.73 1.13-2.49 4.05-2.49 5.39-.1046346 1.7284859 1.202607 3.2186521 2.93 3.34 1.720168-.1358364 3.0193286-1.6167908 2.93-3.34 0-.93-.93-2.95-2.49-5.39zm5.8 8.23c-.6455784.020508-1.2876677-.1024453-1.88-.36-.7810384 1.7136375-2.4770687 2.8261712-4.36 2.86-2.8320106-.1218017-5.0343458-2.5072925-4.93-5.34.1004406-1.1390553.434014-2.2452937.98-3.25-2.71-1.16-5.29-2.37-6.39-3.51-.33-.35-.65-.47-.93-.35-.4715631.2683423-.7533843.7779368-.73 1.32 0 .9 1.15 2.17 3.42 3.75.6424147.4458499 1.2298299.966132 1.75 1.55.4035994.4551554.5564515 1.080226.4084405 1.6702698s-.5777957 1.0689615-1.1484405 1.2797302c-.3492253.117271-.7069447.2075367-1.07.27-.857.165.58.11-15.43.11-.8284271 0-1.5.6715729-1.5 1.5s.6715729 1.5 1.5 1.5h12.57c.2761424 0 .5.2238576.5.5s-.2238576.5-.5.5h-15.1c-.8284271 0-1.5.6715729-1.5 1.5s.6715729 1.5 1.5 1.5h15.1c.2761424 0 .5.2238576.5.5s-.2238576.5-.5.5c-17.042 0-11.331.03-12.53.03-.7835488.0498308-1.3935595.6998683-1.3935595 1.485s.6100107 1.4351692 1.3935595 1.485h13.53c.2761424 0 .5.2238576.5.5s-.2238576.5-.5.5c-7.053 0-7.094-.163-7.67.5-.3890456.4343809-.4910864 1.0548672-.2616382 1.5909611.2294482.536094.7487967.8906257 1.3316382.9090389h15.16c1.8552829-.0622351 3.6234337-.8022257 4.97-2.08.3048756-.2983692.6325336-.572532.98-.82.18-.13.15-.1 2.23-.1.2078718-.0022635.4059714-.0885902.5491515-.2393061.14318-.1507158.2192411-.3529793.2108485-.5606939v-10.4c.0083926-.2077146-.0676685-.4099781-.2108485-.5606939-.1431801-.1507159-.3412797-.2370426-.5491515-.2393061z"/></g></g></svg>