<svg height="512" viewBox="0 0 60 54" width="512" xmlns="http://www.w3.org/2000/svg"><g id="047---Crocodiles" fill="none" transform="translate(-1 -1)"><path id="Shape" d="m27.15 4.252-24.543 42.962c-.80501772 1.3890835-.8127723 3.100947-.02037219 4.4972667s2.26601976 2.2675153 3.87137219 2.2887333h49.084c1.6053524-.021218 3.0789721-.8924136 3.8713722-2.2887333s.7846455-3.1081832-.0203722-4.4972667l-24.543-42.962c-.7822602-1.39106185-2.2540727-2.25196213-3.85-2.25196213s-3.0677398.86090028-3.85 2.25196213z" fill="#f29c1f"/><path id="Shape" d="m60.26 46.72-24.54-42.96c-.9589765-1.70547628-2.7633996-2.76097946-4.72-2.76097946s-3.7610235 1.05550318-4.72 2.76097946l-24.54 42.96c-.98278783 1.6983152-.98958172 3.7908241-.01784256 5.4954851.97173916 1.7046611 2.77576145 2.7649173 4.73784256 2.7845149h49.08c1.9620811-.0195976 3.7661034-1.0798538 4.7378426-2.7845149.9717391-1.704661.9649452-3.7971699-.0178426-5.4954851zm-4.72 6.28h-49.08c-1.24896271-.0208951-2.39318394-.7025106-3.00627126-1.7908434-.61308731-1.0883329-.60308817-2.4201519.02627126-3.4991566l24.54-42.96c.6025444-1.0805505 1.7428059-1.75027078 2.98-1.75027078s2.3774556.66972028 2.98 1.75027078l24.54 42.96c.6293594 1.0790047.6393586 2.4108237.0262713 3.4991566-.6130874 1.0883328-1.7573086 1.7699483-3.0062713 1.7908434z" fill="#464f5d"/><path id="Shape" d="m55 45c-.9965353.0318377-1.9195518.5322683-2.49 1.35-.42.49-.59.65-.97.65s-.55-.16-.97-.65c-.5704482-.8177317-1.4934647-1.3181623-2.49-1.35-.195621-.003227-.3907638.0203247-.58.07.706-1.757-.089-3.19-2.377-3.406.007-.239.061.426-.127-1.692-.0483249-.5511802-.5343198-.9588249-1.0855-.9105s-.9588249.5343198-.9105 1.0855l.138 1.564c-.51.05-1.0636667.1213333-1.661.214l-.114-1.387c-.0452874-.5506279-.5283721-.9602873-1.079-.9149999-.5506279.0452873-.9602873.528372-.915 1.0789999.031.374.128 1.482.129 1.493-.652.066-1.359.116-2.1.153l-.03-1.518c-.0108913-.5444587-.4554324-.9801089-1-.98h-.019c-.2652321.0049915-.5176123.1151662-.7015957.3062764-.1839834.1911101-.2844916.4474933-.2794043.7127236.041 2.114.031 1.388.031 1.543-.7173333.0173333-1.445.0243333-2.183.021 0-.338-.006-1.013-.008-1.35-.0025008-.3572656-.1954107-.6860584-.5060622-.8625254s-.6918493-.1737987-1 .007c-.3081506.1807986-.4964387.5122598-.4939378.8695254v1.324c-5.266-.067-10.208-.421-10.208-.421 2.446-1.092 5.193-2.476 7.911-3.962l.665 1.321c.1607695.3192168.4796268.5284158.8364614.5487937.3568347.0203779.6974349-.1511611.8935001-.45.1960651-.2988389.217808-.6795769.0570385-.9987937l-.679-1.351c-.007-.014-.021-.022-.028-.035.57-.32 1.134-.641 1.692-.963l.806 1.461c.1727379.3129647.499319.5100013.8567233.5168883.3574043.0068869.6913336-.1774223.876-.4835.1846664-.3060778.1920146-.6874236.0192767-1.0003883l-.81-1.469c-.007-.013-.02-.02-.027-.032.5746667-.3406667 1.135-.6786667 1.681-1.014.269.435.823 1.3 1.1 1.727.1873268.3118594.5292384.4973842.8928043.4844449s.6914235-.2223012.8561062-.5466886c.1646828-.3243874.1402073-.7126193-.0639105-1.0137563l-1.088-1.7c.4926667-.3133333.9656667-.6196667 1.419-.919.164.243-.357-.5 1.1 1.574.329363.4138992.9240861.4997139 1.3570235.1958098.4329374-.303904.5543239-.8923979.2769765-1.3428098l-1.085-1.553c.4086667-.2873333.7876667-.5613333 1.137-.822.148.19-.339-.424 1.225 1.54.2200731.2870527.5780038.4328892.9360232.3813765.3580194-.0515128.6603153-.2923444.7905328-.6297979.1302176-.3374535.0680569-.7189227-.162556-.9975786-.309-.389-1.236-1.542-1.242-1.55.3145528-.2606263.5850239-.5702669.801-.917 1-2-3-3-4-2s-9 8-13 7-7-1-9 2c-.8239205 1.3717532-2.3202383 2.1962549-3.92 2.16-.7266937-.0074847-1.3957266.3947086-1.73 1.04l-3.92 7.19c-.4305449-.261801-.92615467-.3969673-1.43-.39-.55228475 0-1 .4477153-1 1s.44771525 1 1 1c.38 0 .55.16.97.65.57044823.8177317 1.49346469 1.3181623 2.49 1.35 1.86 0 2.406-1.525 3.08-1.91.2895993-.134566.6290408-.1040544.89.08.57.455 1.22 1.83 2.95 1.83 2.532 0 2.747-3.012 4.07-1.74.758.729 1.31 1.74 2.85 1.74 2.127 0 2.478-2 3.46-2 .853 0 1.076 1.29 2.45 1.82.3056329.1752357.6626467.2388619 1.01.18.2037606-.0014248.4023752-.0641452.57-.18 1.368-.528 1.6-1.82 2.45-1.82.395 0 .616.225.97.65.5482145.8422505 1.4850497 1.3502776 2.49 1.3502776s1.9417855-.5080271 2.49-1.3502776c.42-.49.59-.65.97-.65.1479026-.006651.2943456.0317031.42.11.612.391 1.188 1.89 3.04 1.89.9965353-.0318377 1.9195518-.5322683 2.49-1.35.42-.49.59-.65.97-.65s.55.16.97.65c.5482145.8422505 1.4850497 1.3502776 2.49 1.3502776s1.9417855-.5080271 2.49-1.3502776c.42-.49.59-.65.97-.65.5522847 0 1-.4477153 1-1s-.4477153-1-1-1z" fill="#464f5d"/><circle id="Oval" cx="22" cy="36" fill="#f29c1f" r="1"/></g></svg>