<svg height="512" viewBox="0 0 58 58" width="512" xmlns="http://www.w3.org/2000/svg"><g id="002---No-Touching" fill="none" fill-rule="evenodd"><g fill-rule="nonzero"><circle id="Oval" cx="29" cy="29" fill="#e64c3c" r="29"/><circle id="Oval" cx="29" cy="29" fill="#fff" r="25"/><path id="Shape" d="m11.28 25.06c-.4989549-.0256586-.9752535.2104066-1.257.623-.085.216.169.5.329.646 1.78 1.664 4.878 6.837 6.46 10.35 1.1212269 2.4203606 2.7747096 4.5561804 4.837 6.248 1.473 1.328 1.32 2.813 1.351 4.073.157497.4720628.5279372.842503 1 1 17.746 0 11.623-.024 12.95-.024.0806667-.9898916.0973681-1.9839573.05-2.976-.0002261-.4611774.3149616-.862701.763-.972.1124246-.0965196.2189498-.1997054.319-.309 1.25-4.482 1.788-6.424 1.823-6.51.5474772-1.3490829.9156177-2.7641547 1.095-4.209v-11.25c-.0029537-.6057886-.3688326-1.1507544-.928409-1.3828378-.5595765-.2320835-1.2037563-.1060378-1.634591.3198378-.2790861.2835429-.4359651.6651501-.437 1.063v7.25c0 .5522847-.4477153 1-1 1s-1-.4477153-1-1v-15.328c-.0013319-.5912589-.3922655-1.1108747-.96-1.276-.4256442-.1742277-.9078942-.1421241-1.306688.0869868s-.669432.629549-.733312 1.0850132v14.432c0 .5522847-.4477153 1-1 1s-1-.4477153-1-1v-17.58c-.0243692-.56994087-.3674403-1.07764925-.8871452-1.31287962-.5197048-.23523038-1.1275624-.15793422-1.5718548.19987962-.3333619.23503101-.5343929.61516908-.541 1.023v13.43c0 .5522847-.4477153 1-1 1s-1-.4477153-1-1v-10.31c.0082538-.6088509-.3796241-1.1526087-.958-1.343-.4382485-.1722967-.9319707-.1287904-1.3333345.117492-.4013637.2462825-.6637764.6667512-.7086655 1.135508 0 17.286.052 16.532-.158 18.214-.0980191.5854525-.4573719 1.0943792-.9762819 1.3826408-.5189099.2882617-1.1408666.3244661-1.6897181.0983592-.7244232-.3491578-1.3605953-.8574802-1.861-1.487-.4948864-.4985368-.9518255-1.0333594-1.367-1.6-1.74-2.483-4.717-4.908-5.668-4.908z" fill="#464f5d"/></g><path id="Shape" d="m43.86 49.1-34.96-34.96 1.5-2.61 2.627-1.74 35.193 35.19-1.874 2.743z" fill="#e64c3c"/></g></svg>