<svg height="512" viewBox="0 0 60 54" width="512" xmlns="http://www.w3.org/2000/svg"><g id="036---Fire-Hazard" fill="none" fill-rule="evenodd" transform="translate(-1 -1)"><path id="Shape" d="m27.15 4.252-24.543 42.962c-.80501772 1.3890835-.8127723 3.100947-.02037219 4.4972667s2.26601976 2.2675153 3.87137219 2.2887333h49.084c1.6053524-.021218 3.0789721-.8924136 3.8713722-2.2887333s.7846455-3.1081832-.0203722-4.4972667l-24.543-42.962c-.7822602-1.39106185-2.2540727-2.25196213-3.85-2.25196213s-3.0677398.86090028-3.85 2.25196213z" fill="#f0c419" fill-rule="nonzero"/><g fill="#464f5d"><path id="Shape" d="m60.26 46.72-24.54-42.96c-.9589765-1.70547628-2.7633996-2.76097946-4.72-2.76097946s-3.7610235 1.05550318-4.72 2.76097946l-24.54 42.96c-.98278783 1.6983152-.98958172 3.7908241-.01784256 5.4954851.97173916 1.7046611 2.77576145 2.7649173 4.73784256 2.7845149h49.08c1.9620811-.0195976 3.7661034-1.0798538 4.7378426-2.7845149.9717391-1.704661.9649452-3.7971699-.0178426-5.4954851zm-4.72 6.28h-49.08c-1.24896271-.0208951-2.39318394-.7025106-3.00627126-1.7908434-.61308731-1.0883329-.60308817-2.4201519.02627126-3.4991566l24.54-42.96c.6025444-1.0805505 1.7428059-1.75027078 2.98-1.75027078s2.3774556.66972028 2.98 1.75027078l24.54 42.96c.6293594 1.0790047.6393586 2.4108237.0262713 3.4991566-.6130874 1.0883328-1.7573086 1.7699483-3.0062713 1.7908434z" fill-rule="nonzero"/><path id="Shape" d="m40.28 32.975-.049.025c-1.2055034 1.4263538-3.1880292 1.9220859-4.923 1.231.9956986-1.3629388 1.4857542-3.0300469 1.386-4.715-.0790739-1.7768766-.5452699-3.515044-1.366-5.093l-.02-.038c-2.1997844-2.710314-4.674686-5.1852156-7.385-7.385 3.631 10.905-7.385 14.2-7.385 21.821.051388 4.7412479 3.3494755 8.8277657 7.973 9.879-1.1386707-.804378-1.8167063-2.1108732-1.819-3.505 0-3.222 4.537-4.615 3.043-9.23 2.786 2.461 5.573 6.008 5.573 9.23-.0022937 1.3941268-.6803293 2.700622-1.819 3.505 4.622445-1.0509727 7.9202325-5.135878 7.973-9.876-.0342395-2.00541-.434825-3.9876641-1.182-5.849z"/></g></g></svg>