<svg height="512" viewBox="0 0 60 54" width="512" xmlns="http://www.w3.org/2000/svg"><g id="045---Heavy-Lifting" fill="none" transform="translate(-1 -1)"><path id="Shape" d="m27.15 4.252-24.543 42.962c-.80501772 1.3890835-.8127723 3.100947-.02037219 4.4972667s2.26601976 2.2675153 3.87137219 2.2887333h49.084c1.6053524-.021218 3.0789721-.8924136 3.8713722-2.2887333s.7846455-3.1081832-.0203722-4.4972667l-24.543-42.962c-.7822602-1.39106185-2.2540727-2.25196213-3.85-2.25196213s-3.0677398.86090028-3.85 2.25196213z" fill="#f0c419"/><g fill="#464f5d"><path id="Shape" d="m60.26 46.72-24.54-42.96c-.9589765-1.70547628-2.7633996-2.76097946-4.72-2.76097946s-3.7610235 1.05550318-4.72 2.76097946l-24.54 42.96c-.98278783 1.6983152-.98958172 3.7908241-.01784256 5.4954851.97173916 1.7046611 2.77576145 2.7649173 4.73784256 2.7845149h49.08c1.9620811-.0195976 3.7661034-1.0798538 4.7378426-2.7845149.9717391-1.704661.9649452-3.7971699-.0178426-5.4954851zm-4.72 6.28h-49.08c-1.24896271-.0208951-2.39318394-.7025106-3.00627126-1.7908434-.61308731-1.0883329-.60308817-2.4201519.02627126-3.4991566l24.54-42.96c.6025444-1.0805505 1.7428059-1.75027078 2.98-1.75027078s2.3774556.66972028 2.98 1.75027078l24.54 42.96c.6293594 1.0790047.6393586 2.4108237.0262713 3.4991566-.6130874 1.0883328-1.7573086 1.7699483-3.0062713 1.7908434z"/><path id="Shape" d="m36.71 30.29-3.19-3.19c.0221665-.0097563.0424686-.023291.06-.04.9006626-.7612685 1.4201424-1.8807109 1.42-3.06 0-.5522847-.4477153-1-1-1s-1 .4477153-1 1c.0004819.5897351-.2593344 1.1496209-.71 1.53-.0826153.0656506-.1694704.1257811-.26.18-.63003-.3781749-1.4163105-.3820104-2.05-.01-.6196285-.3595118-.9960023-1.0263636-.9835455-1.7426269.0124567-.7162632.4117908-1.3696245 1.0435455-1.7073731 1.2097989-.6314488 1.9659899-1.885337 1.96-3.25-.0060184-.0851137-.0228194-.1691188-.05-.25.6436806-.3474351 1.0463482-1.0185477 1.05-1.75v-6c0-1.1045695-.8954305-2-2-2s-2 .8954305-2 2v6c-.0005633.7406108.4122424 1.4196184 1.07 1.76-.0443001.1044868-.0680661.2165264-.07.33-.0291352.6021231-.386256 1.1397243-.93 1.4-1.1644939.6440474-1.932449 1.8250386-2.0487681 3.1506754s.4342302 2.6223213 1.4687681 3.4593246l-3.2 3.19c-.1849909.190164-.2889572.4447023-.29.71v18h12v-18c-.0010428-.2652977-.1050091-.519836-.29-.71zm-9.3.71 3.05-3.05c.3569242.0665516.7230758.0665516 1.08 0l3.05 3.05z"/><path id="Shape" d="m21 31v18h2v-18z"/><path id="Shape" d="m16 33v14c.0439516 1.1420207 1.0006667 2.0348953 2.143 2h.857v-18h-.857c-1.1423333-.0348953-2.0990484.8579793-2.143 2z"/><path id="Shape" d="m43.857 31h-.857v18h.857c1.1423333.0348953 2.0990484-.8579793 2.143-2v-14c-.0439516-1.1420207-1.0006667-2.0348953-2.143-2z"/><path id="Shape" d="m39 31v18h2v-18z"/></g></g></svg>