<svg height="512" viewBox="0 0 58 58" width="512" xmlns="http://www.w3.org/2000/svg"><g id="014---No-Entry" fill="none" fill-rule="evenodd"><circle id="Oval" cx="29" cy="29" fill="#e64c3c" fill-rule="nonzero" r="29"/><path id="Shape" d="m54 29c0 13.8071187-11.1928813 25-25 25s-25-11.1928813-25-25 11.1928813-25 25-25c6.6304122 0 12.9892601 2.63392101 17.6776695 7.3223305 4.6884095 4.6884094 7.3223305 11.0472573 7.3223305 17.6776695z" fill="#fff" fill-rule="nonzero"/><path id="Shape" d="m43.86 49.1-34.96-34.96 1.5-2.61 2.627-1.74 35.193 35.19-1.874 2.743z" fill="#e64c3c"/><g fill="#464f5d" fill-rule="nonzero"><path id="Shape" d="m43.99 19.45c-.4784004-.2263202-1.0273702-.2522287-1.524959-.0719702-.4975888.1802586-.9025922.5517575-1.125041 1.0319702l-2.83 6.06c1.306-9.579 1.24-9.04 1.24-9.22-.0062254-1.0474336-.8195473-1.9126316-1.8645974-1.983527-1.0450501-.0708953-1.9677712.6765309-2.1154026 1.713527l-.77 5.67v-7.65c0-1.1045695-.8954305-2-2-2s-2 .8954305-2 2v9.75l-1.31-7.25c-.0904206-.7359747-.5806102-1.3615188-1.2736157-1.6252951-.6930056-.2637763-1.4750724-.1224869-2.0319742.3670997-.5569018.4895865-.797225 1.2471062-.6244101 1.9681954l.94 5.25 13.99 13.99c.8884958-3.090926 1.4054744-6.2767226 1.54-9.49l2.73-5.86c.225112-.4797174.2492798-1.0294804.0671318-1.5271011-.1821479-.4976207-.5555199-.9018691-1.0371318-1.1228989z"/><path id="Shape" d="m22.05 27.95c-1.1236277 1.1213868-1.1762869 2.924966-.12 4.11 1.138 1.3 1.205 1.4 1.642 1.922-1.447.005-3.222.071-4.783.217.8040789-1.6960582 1.0326515-3.6082028.651-5.446v-.026c0-.014-.011-.025-.013-.038-.968-4.672-5.485-6.392-8.565-4.083-1.41935679.8696366-2.26011348 2.4365013-2.2 4.1-1.25972671.5437692-1.98605507 1.8767236-1.76006439 3.230062.22599068 1.3533383 1.34600761 2.377976 2.71406439 2.482938v.313c-1.51256691.5530148-2.98593902 1.2078469-4.41 1.96.2.65.44 1.28.69 1.89 1.5926447-.8382215 3.25157811-1.5439372 4.96-2.11.4461224-.1102928.7596448-.5104464.76-.97v-2c0-.5522847-.4477153-1-1-1-2.6 0-1.733-2-1-2 .0384795-.0050612.07656821-.0127458.114-.023.412321-.1041417.7423293-.4126277.874-.817.007-.045 0-.1.009-.143v-.021c.142-1.273-.251-2.018 1.444-3.29 1.673-1.255 4.053-.572 5.075 1.821l-4.482.6c-.3568452.0445023-.6623165.27718-.8000234.6093783-.137707.3321983-.0864413.712755.1342639.9966708.2207052.2839157.5768588.4274643.9327595.3759509l4.669-.627c.0728737.8156195-.0189449 1.6375662-.27 2.417-.4497342-.7362071-1.2434894-1.1926352-2.106-1.211-2.8 0-3.672 4.332-1.5 6.025-.354.266-.594.418-.61.428-.3132279.1806127-.5045637.516242-.5004101.8777878.0041537.3615459.2031497.6926908.5204443.8660598.3172946.1733689.7034632.1619565 1.0099658-.0298476.9386873-.6116049 1.8043164-1.3286008 2.58-2.137.01-.01.01-.02.02-.02l.01-.01c.2695131-.2322534.5018726-.5044074.689-.807 2.5479977-.3150151 5.1150037-.4503493 7.682-.405.7063078.9573492 1.3378416 1.9676696 1.889 3.022h-3.02c-1.153563-.000867-2.2515391.4954634-3.013 1.362l-4.82 5.52c-.3639556.4161466-.3216465 1.0485443.0945 1.4125.4161466.3639556 1.0485443.3216465 1.4125-.0945l4.818-5.519c.3814323-.4331797.9308214-.6812792 1.508-.681 4.771 0 4.266.022 4.538-.052 2.274 2.052 6.043 2.967 8.732 1.542l-14.87-14.87zm-6.84 5.24c.563 0 .972 1.337.52 2.09-.053.053 0 .028-.329.392l-.011.008c-.431.287-.9-.483-.9-1.22 0-.72.38-1.27.72-1.27z"/></g></g></svg>