<svg height="512" viewBox="0 0 58 58" width="512" xmlns="http://www.w3.org/2000/svg"><g id="015---No-Swimming" fill="none" fill-rule="evenodd"><circle id="Oval" cx="29" cy="29" fill="#e64c3c" fill-rule="nonzero" r="29"/><circle id="Oval" cx="29" cy="29" fill="#fff" fill-rule="nonzero" r="25"/><g fill="#464f5d"><path id="Shape" d="m28.94 34.18c-.5090366.5306507-1.2147083.8273947-1.95.82-2.12 0-2.12-2-4.25-2s-2.12 2-4.24 2c-2.2 0-2.285-2.267-4.5-1.99v-.01l8.9-4.86z"/><circle id="Oval" cx="41" cy="27" fill-rule="nonzero" r="4"/><path id="Shape" d="m37.21 33.97-4.95-12c-.1134601-.2735663-.0998228-.5833528.0372375-.8458907.1370602-.262538.3834428-.4508178.6727625-.5141093l5.1-1.11c1.069808-.2061105 1.9437863-.976009 2.2831769-2.0112795.3393905-1.0352704.0908401-2.1731652-.649312-2.9726311-.740152-.7994659-1.8555517-1.1348245-2.9138649-.8760894-5.831 1.264-7.238 1.575-7.44 1.62-1.4636636.3231413-2.7057533 1.2846542-3.3853639 2.620641-.6796107 1.3359867-.7253397 2.9060832-.1246361 4.279359l.31.75z" fill-rule="nonzero"/><path id="Shape" d="m26.99 41c-1.0708405-.008748-2.0880019-.4701033-2.8-1.27-.3367113-.458201-.8713853-.7288086-1.44-.7288086s-1.1032887.2706076-1.44.7288086c-.7102823.8088415-1.7345588 1.2725268-2.811 1.2725268s-2.1007177-.4636853-2.811-1.2725268c-.3364982-.4581886-.8710215-.7288171-1.4395-.7288171s-1.1030018.2706285-1.4395.7288171c-.7143229.8019038-1.7350989 1.2634152-2.809 1.27-.55228475 0-1-.4477153-1-1s.44771525-1 1-1c.563421-.0127046 1.0907355-.2800391 1.434-.727.7104454-.8082009 1.7344325-1.2714426 2.8105-1.2714426s2.1000546.4632417 2.8105 1.2714426c.3364982.4581886.8710215.7288171 1.4395.7288171s1.1030018-.2706285 1.4395-.7288171c.7102823-.8088415 1.7345588-1.2725268 2.811-1.2725268s2.1007177.4636853 2.811 1.2725268c.3367113.458201.8713853.7288086 1.44.7288086s1.1032887-.2706076 1.44-.7288086c.7123892-.8020389 1.7312957-1.2646167 2.804-1.273.7268963.0383837 1.4451715.1756466 2.135.408.5368208.1297869.8667869.6701792.737 1.207s-.6701792.8667869-1.207.737c-.5375864-.1883283-1.0971896-.3066348-1.665-.352-.5633848.0128488-1.0906406.2801535-1.434.727-.7164028.8034733-1.7395459 1.2659951-2.816 1.273z" fill-rule="nonzero"/></g><path id="Shape" d="m43.86 49.1-34.96-34.96 1.5-2.61 2.627-1.74 35.193 35.19-1.874 2.743z" fill="#e64c3c"/></g></svg>