<svg height="512" viewBox="0 0 60 54" width="512" xmlns="http://www.w3.org/2000/svg"><g id="034---Snow-Warning" fill="none" transform="translate(-1 -1)"><path id="Shape" d="m27.15 4.252-24.543 42.962c-.80501772 1.3890835-.8127723 3.100947-.02037219 4.4972667s2.26601976 2.2675153 3.87137219 2.2887333h49.084c1.6053524-.021218 3.0789721-.8924136 3.8713722-2.2887333s.7846455-3.1081832-.0203722-4.4972667l-24.543-42.962c-.7822602-1.39106185-2.2540727-2.25196213-3.85-2.25196213s-3.0677398.86090028-3.85 2.25196213z" fill="#f0c419"/><g fill="#464f5d"><path id="Shape" d="m60.26 46.72-24.54-42.96c-.9589765-1.70547628-2.7633996-2.76097946-4.72-2.76097946s-3.7610235 1.05550318-4.72 2.76097946l-24.54 42.96c-.98278783 1.6983152-.98958172 3.7908241-.01784256 5.4954851.97173916 1.7046611 2.77576145 2.7649173 4.73784256 2.7845149h49.08c1.9620811-.0195976 3.7661034-1.0798538 4.7378426-2.7845149.9717391-1.704661.9649452-3.7971699-.0178426-5.4954851zm-4.72 6.28h-49.08c-1.24896271-.0208951-2.39318394-.7025106-3.00627126-1.7908434-.61308731-1.0883329-.60308817-2.4201519.02627126-3.4991566l24.54-42.96c.6025444-1.0805505 1.7428059-1.75027078 2.98-1.75027078s2.3774556.66972028 2.98 1.75027078l24.54 42.96c.6293594 1.0790047.6393586 2.4108237.0262713 3.4991566-.6130874 1.0883328-1.7573086 1.7699483-3.0062713 1.7908434z"/><path id="Shape" d="m46 33h-1.586l1.293-1.293c.3789722-.3923789.3735524-1.0160848-.0121814-1.4018186s-1.0094397-.3911536-1.4018186-.0121814l-2.707 2.707h-8.172l5.778-5.778h3.829c.5522847 0 1-.4477153 1-1s-.4477153-1-1-1h-1.829l1.121-1.122c.2701457-.2486399.3823146-.6253227.2921953-.9812426s-.3680328-.6338334-.7239527-.7239527-.7326027.0220496-.9812426.2921953l-1.121 1.121v-1.829c0-.5522847-.4477153-1-1-1s-1 .4477153-1 1v3.829l-5.779 5.778v-8.172l2.707-2.707c.3789722-.3923789.3735524-1.0160848-.0121814-1.4018186s-1.0094397-.3911536-1.4018186-.0121814l-1.293 1.293v-1.586c0-.5522847-.4477153-1-1-1s-1 .4477153-1 1v1.586l-1.293-1.293c-.3923789-.3789722-1.0160848-.3735524-1.4018186.0121814s-.3911536 1.0094397-.0121814 1.4018186l2.707 2.707v8.172l-5.778-5.778v-3.829c0-.5522847-.4477153-1-1-1s-1 .4477153-1 1v1.829l-1.122-1.121c-.2486399-.2701457-.6253227-.3823146-.9812426-.2921953s-.6338334.3680328-.7239527.7239527.0220496.7326027.2921953.9812426l1.121 1.121h-1.829c-.5522847 0-1 .4477153-1 1s.4477153 1 1 1h3.829l5.778 5.779h-8.172l-2.707-2.707c-.3923789-.3789722-1.0160848-.3735524-1.4018186.0121814s-.3911536 1.0094397-.0121814 1.4018186l1.293 1.293h-1.586c-.5522847 0-1 .4477153-1 1s.4477153 1 1 1h1.586l-1.293 1.293c-.2599566.2510745-.3642126.6228779-.2726972.9725073.0915155.3496295.3645604.6226744.7141899.7141899.3496294.0915154.7214328-.0127406.9725073-.2726972l2.707-2.707h8.172l-5.778 5.778h-3.829c-.5522847 0-1 .4477153-1 1s.4477153 1 1 1h1.829l-1.121 1.122c-.2701457.2486399-.3823146.6253227-.2921953.9812426s.3680328.6338334.7239527.7239527.7326027-.0220496.9812426-.2921953l1.121-1.121v1.829c0 .5522847.4477153 1 1 1s1-.4477153 1-1v-3.829l5.779-5.778v8.172l-2.707 2.707c-.3789722.3923789-.3735524 1.0160848.0121814 1.4018186s1.0094397.3911536 1.4018186.0121814l1.293-1.293v1.586c0 .5522847.4477153 1 1 1s1-.4477153 1-1v-1.586l1.293 1.293c.3923789.3789722 1.0160848.3735524 1.4018186-.0121814s.3911536-1.0094397.0121814-1.4018186l-2.707-2.707v-8.172l5.778 5.778v3.829c0 .5522847.4477153 1 1 1s1-.4477153 1-1v-1.829c1.171 1.171 1.306 1.414 1.828 1.414.4043959-.0000863.7689341-.2437275.923678-.6173454.1547439-.373618.0692299-.8036603-.216678-1.0896546l-1.121-1.121h1.829c.5522847 0 1-.4477153 1-1s-.4477153-1-1-1h-3.829l-5.778-5.778h8.172l2.707 2.707c.3923789.3789722 1.0160848.3735524 1.4018186-.0121814s.3911536-1.0094397.0121814-1.4018186l-1.293-1.293h1.586c.5522847 0 1-.4477153 1-1s-.4477153-1-1-1z"/></g></g></svg>