<?xml version="1.0" encoding="iso-8859-1"?>
<!-- Generator: Adobe Illustrator 19.0.0, SVG Export Plug-In . SVG Version: 6.00 Build 0)  -->
<svg version="1.1" id="Layer_1" xmlns="http://www.w3.org/2000/svg" xmlns:xlink="http://www.w3.org/1999/xlink" x="0px" y="0px"
	 viewBox="0 0 512 512" style="enable-background:new 0 0 512 512;" xml:space="preserve">
<g>
	<path style="fill:#C3C7CB;" d="M441.379,512h-70.621V97.103c0-15.007-11.476-26.483-26.483-26.483H229.517V0h114.759
		c53.848,0,97.103,43.255,97.103,97.103V512z"/>
	<path style="fill:#C3C7CB;" d="M326.621,512H256V203.034c0-9.71-7.945-17.655-17.655-17.655h-88.276v-70.621h97.103
		c44.138,0,79.448,35.31,79.448,79.448V512z"/>
	<path style="fill:#C3C7CB;" d="M211.862,512h-70.621V308.966c0-5.297-3.531-8.828-8.828-8.828H70.621v-70.621h70.621
		c38.841,0,70.621,31.779,70.621,70.621V512z"/>
</g>
<g>
	<path style="fill:#E0E0E0;" d="M414.897,512h-17.655V97.103c0-29.131-23.834-52.966-52.966-52.966H229.517V26.483h114.759
		c38.841,0,70.621,31.779,70.621,70.621V512z"/>
	<path style="fill:#E0E0E0;" d="M300.138,512h-17.655V194.207c0-19.421-15.89-35.31-35.31-35.31h-97.103v-17.655h97.103
		c29.131,0,52.966,23.834,52.966,52.966V512z"/>
	<path style="fill:#E0E0E0;" d="M185.379,512h-17.655V300.138c0-15.007-11.476-26.483-26.483-26.483H70.621V256h70.621
		c24.717,0,44.138,19.421,44.138,44.138V512z"/>
</g>
<g>
</g>
<g>
</g>
<g>
</g>
<g>
</g>
<g>
</g>
<g>
</g>
<g>
</g>
<g>
</g>
<g>
</g>
<g>
</g>
<g>
</g>
<g>
</g>
<g>
</g>
<g>
</g>
<g>
</g>
</svg>
