<?xml version="1.0" encoding="iso-8859-1"?>
<!-- Generator: Adobe Illustrator 19.0.0, SVG Export Plug-In . SVG Version: 6.00 Build 0)  -->
<svg version="1.1" id="Layer_1" xmlns="http://www.w3.org/2000/svg" xmlns:xlink="http://www.w3.org/1999/xlink" x="0px" y="0px"
	 viewBox="0 0 512 512" style="enable-background:new 0 0 512 512;" xml:space="preserve">
<path style="fill:#ECBA16;" d="M353.103,512H158.897c-9.71,0-17.655-7.945-17.655-17.655V70.621c0-9.71,7.945-17.655,17.655-17.655
	h194.207c9.71,0,17.655,7.945,17.655,17.655v423.724C370.759,504.055,362.814,512,353.103,512"/>
<g>
	<path style="fill:#C7CBC7;" d="M308.966,158.897c0-29.131-23.835-52.966-52.966-52.966s-52.966,23.834-52.966,52.966
		s23.834,52.966,52.966,52.966C285.131,211.862,308.966,188.028,308.966,158.897"/>
	<path style="fill:#C7CBC7;" d="M308.966,406.069c0-29.131-23.835-52.966-52.966-52.966s-52.966,23.834-52.966,52.966
		c0,29.131,23.834,52.966,52.966,52.966C285.131,459.034,308.966,435.2,308.966,406.069"/>
	<path style="fill:#C7CBC7;" d="M308.966,52.966H203.034v-35.31C203.034,7.945,210.979,0,220.69,0h70.621
		c9.71,0,17.655,7.945,17.655,17.655V52.966z"/>
</g>
<g>
	<path style="fill:#FFFFFF;" d="M256,194.207c-5.297,0-8.828-3.531-8.828-8.828v-52.966c0-5.297,3.531-8.828,8.828-8.828
		c5.297,0,8.828,3.531,8.828,8.828v52.966C264.828,190.676,261.297,194.207,256,194.207"/>
	<path style="fill:#FFFFFF;" d="M282.483,167.724h-52.966c-5.297,0-8.828-3.531-8.828-8.828s3.531-8.828,8.828-8.828h52.966
		c5.297,0,8.828,3.531,8.828,8.828S287.779,167.724,282.483,167.724"/>
	<path style="fill:#FFFFFF;" d="M282.483,414.897h-52.966c-5.297,0-8.828-3.531-8.828-8.828s3.531-8.828,8.828-8.828h52.966
		c5.297,0,8.828,3.531,8.828,8.828S287.779,414.897,282.483,414.897"/>
</g>
<g>
</g>
<g>
</g>
<g>
</g>
<g>
</g>
<g>
</g>
<g>
</g>
<g>
</g>
<g>
</g>
<g>
</g>
<g>
</g>
<g>
</g>
<g>
</g>
<g>
</g>
<g>
</g>
<g>
</g>
</svg>
