<?xml version="1.0" encoding="iso-8859-1"?>
<!-- Generator: Adobe Illustrator 19.0.0, SVG Export Plug-In . SVG Version: 6.00 Build 0)  -->
<svg version="1.1" id="Layer_1" xmlns="http://www.w3.org/2000/svg" xmlns:xlink="http://www.w3.org/1999/xlink" x="0px" y="0px"
	 viewBox="0 0 512 512" style="enable-background:new 0 0 512 512;" xml:space="preserve">
<g>
	<path style="fill:#CBD4D8;" d="M169.22,104.136c-5.207,0-8.678-3.471-8.678-8.678V78.102c0-5.207,3.471-8.678,8.678-8.678
		s8.678,3.471,8.678,8.678v17.356C177.898,100.664,174.427,104.136,169.22,104.136"/>
	<path style="fill:#CBD4D8;" d="M342.78,104.136c-5.207,0-8.678-3.471-8.678-8.678V78.102c0-5.207,3.471-8.678,8.678-8.678
		s8.678,3.471,8.678,8.678v17.356C351.458,100.664,347.986,104.136,342.78,104.136"/>
	<path style="fill:#CBD4D8;" d="M169.22,199.593c-5.207,0-8.678-3.471-8.678-8.678v-17.356c0-5.207,3.471-8.678,8.678-8.678
		s8.678,3.471,8.678,8.678v17.356C177.898,196.122,174.427,199.593,169.22,199.593"/>
	<path style="fill:#CBD4D8;" d="M108.475,199.593c-5.207,0-8.678-3.471-8.678-8.678v-17.356c0-5.207,3.471-8.678,8.678-8.678
		s8.678,3.471,8.678,8.678v17.356C117.153,196.122,113.681,199.593,108.475,199.593"/>
	<path style="fill:#CBD4D8;" d="M403.525,199.593c-5.207,0-8.678-3.471-8.678-8.678v-17.356c0-5.207,3.471-8.678,8.678-8.678
		s8.678,3.471,8.678,8.678v17.356C412.203,196.122,408.732,199.593,403.525,199.593"/>
	<path style="fill:#CBD4D8;" d="M342.78,199.593c-5.207,0-8.678-3.471-8.678-8.678v-17.356c0-5.207,3.471-8.678,8.678-8.678
		s8.678,3.471,8.678,8.678v17.356C351.458,196.122,347.986,199.593,342.78,199.593"/>
</g>
<g>
	<path style="fill:#556080;" d="M134.508,78.102h242.983V43.39H134.508V78.102z"/>
	<path style="fill:#556080;" d="M82.441,173.559h347.119v-34.712H82.441V173.559z"/>
</g>
<g>
	<path style="fill:#9E5A23;" d="M229.966,503.322h52.068V173.559h-52.068V503.322z"/>
	<path style="fill:#9E5A23;" d="M229.966,138.847h52.068V78.102h-52.068V138.847z"/>
	<path style="fill:#9E5A23;" d="M282.034,43.39V20.827C282.034,9.546,272.488,0,261.207,0h-10.414
		c-11.281,0-20.827,9.546-20.827,20.827V43.39H282.034z"/>
</g>
<g>
	<path style="fill:#6D350F;" d="M308.068,512H203.932c-5.207,0-8.678-3.471-8.678-8.678c0-5.207,3.471-8.678,8.678-8.678h104.136
		c5.207,0,8.678,3.471,8.678,8.678C316.746,508.529,313.275,512,308.068,512"/>
	<path style="fill:#6D350F;" d="M247.322,451.254c5.207,0,8.678-3.471,8.678-8.678c0-5.207-3.471-8.678-8.678-8.678h-17.356v17.356
		H247.322z"/>
	<path style="fill:#6D350F;" d="M247.322,477.288c5.207,0,8.678-3.471,8.678-8.678s-3.471-8.678-8.678-8.678h-17.356v17.356H247.322
		z"/>
</g>
<g>
</g>
<g>
</g>
<g>
</g>
<g>
</g>
<g>
</g>
<g>
</g>
<g>
</g>
<g>
</g>
<g>
</g>
<g>
</g>
<g>
</g>
<g>
</g>
<g>
</g>
<g>
</g>
<g>
</g>
</svg>
