<?xml version="1.0" encoding="iso-8859-1"?>
<!-- Generator: Adobe Illustrator 19.0.0, SVG Export Plug-In . SVG Version: 6.00 Build 0)  -->
<svg version="1.1" id="Layer_1" xmlns="http://www.w3.org/2000/svg" xmlns:xlink="http://www.w3.org/1999/xlink" x="0px" y="0px"
	 viewBox="0 0 512 512" style="enable-background:new 0 0 512 512;" xml:space="preserve">
<path style="fill:#7A6857;" d="M0,467.862h512V44.138H0V467.862z"/>
<g>
	<path style="fill:#7FABDA;" d="M476.69,167.724H282.483V79.448c69.738,0,135.062,17.655,194.207,48.552V167.724z"/>
	<path style="fill:#7FABDA;" d="M229.517,79.448v88.276H35.31V128C94.455,97.103,159.779,79.448,229.517,79.448"/>
</g>
<path style="fill:#BFA380;" d="M35.31,256H476.69v-52.966H35.31V256z"/>
<path style="fill:#997C5C;" d="M35.31,308.966H476.69V256H35.31V308.966z"/>
<path style="fill:#BFA380;" d="M35.31,361.931H476.69v-52.966H35.31V361.931z"/>
<path style="fill:#997C5C;" d="M35.31,414.897H476.69v-52.966H35.31V414.897z"/>
<path style="fill:#BFA380;" d="M35.31,467.862H476.69v-52.966H35.31V467.862z"/>
<g>
</g>
<g>
</g>
<g>
</g>
<g>
</g>
<g>
</g>
<g>
</g>
<g>
</g>
<g>
</g>
<g>
</g>
<g>
</g>
<g>
</g>
<g>
</g>
<g>
</g>
<g>
</g>
<g>
</g>
</svg>
