<?xml version="1.0" encoding="iso-8859-1"?>
<!-- Generator: Adobe Illustrator 19.0.0, SVG Export Plug-In . SVG Version: 6.00 Build 0)  -->
<svg version="1.1" id="Layer_1" xmlns="http://www.w3.org/2000/svg" xmlns:xlink="http://www.w3.org/1999/xlink" x="0px" y="0px"
	 viewBox="0 0 512 512" style="enable-background:new 0 0 512 512;" xml:space="preserve">
<g>
	<path style="fill:#565656;" d="M256,34.712c-5.207,0-8.678-3.471-8.678-8.678V8.678C247.322,3.471,250.793,0,256,0
		s8.678,3.471,8.678,8.678v17.356C264.678,31.241,261.207,34.712,256,34.712"/>
	<path style="fill:#565656;" d="M256,260.339c-5.207,0-8.678-3.471-8.678-8.678V95.458c0-5.207,3.471-8.678,8.678-8.678
		s8.678,3.471,8.678,8.678v156.203C264.678,256.868,261.207,260.339,256,260.339"/>
</g>
<path style="fill:#C17C3E;" d="M238.644,251.661v24.298c0,13.017-2.603,25.166-8.678,36.447
	c-6.075,11.281-8.678,24.298-8.678,36.447v128.434C221.288,496.38,236.908,512,256,512s34.712-15.62,34.712-34.712V348.854
	c0-13.017-2.603-25.166-8.678-36.447c-6.075-11.281-8.678-24.298-8.678-36.447v-24.298H238.644z"/>
<path style="fill:#E15649;" d="M384.434,87.647L384.434,87.647c-85.912,9.546-171.824,9.546-256.868,0l0,0
	c-6.075,0-10.414-5.207-10.414-11.281V45.125c0-6.075,4.339-11.281,10.414-11.281l0,0c84.176-9.546,170.956-9.546,256.868,0l0,0
	c6.075,0,10.414,5.207,10.414,11.281v31.241C394.847,82.441,390.508,87.647,384.434,87.647"/>
<g>
	<path style="fill:#BC342E;" d="M169.22,29.505c-13.885,0.868-27.769,2.603-41.654,4.339l0,0c-6.075,0-10.414,5.207-10.414,11.281
		v31.241c0,6.075,4.339,11.281,10.414,11.281l0,0c13.885,1.736,27.77,2.603,41.654,3.471V29.505z"/>
	<path style="fill:#BC342E;" d="M384.434,33.844L384.434,33.844c-13.885-1.736-27.77-2.603-41.654-3.471v62.481
		c13.885-0.868,27.77-2.603,41.654-3.471l0,0c6.075-0.868,10.414-6.075,10.414-11.281V45.125
		C394.847,39.051,390.508,33.844,384.434,33.844"/>
</g>
<g>
	<path style="fill:#9E5A23;" d="M247.322,442.576c5.207,0,8.678-3.471,8.678-8.678c0-5.207-3.471-8.678-8.678-8.678h-26.034v17.356
		H247.322z"/>
	<path style="fill:#9E5A23;" d="M256,468.61c0-5.207-3.471-8.678-8.678-8.678h-26.034v17.356h26.034
		C252.529,477.288,256,473.817,256,468.61"/>
</g>
<g>
</g>
<g>
</g>
<g>
</g>
<g>
</g>
<g>
</g>
<g>
</g>
<g>
</g>
<g>
</g>
<g>
</g>
<g>
</g>
<g>
</g>
<g>
</g>
<g>
</g>
<g>
</g>
<g>
</g>
</svg>
