<?xml version="1.0" encoding="iso-8859-1"?>
<!-- Generator: Adobe Illustrator 19.0.0, SVG Export Plug-In . SVG Version: 6.00 Build 0)  -->
<svg version="1.1" id="Layer_1" xmlns="http://www.w3.org/2000/svg" xmlns:xlink="http://www.w3.org/1999/xlink" x="0px" y="0px"
	 viewBox="0 0 512 512" style="enable-background:new 0 0 512 512;" xml:space="preserve">
<path style="fill:#7F7C79;" d="M232.607,247.172h70.621V141.241h-70.621V247.172z"/>
<g>
	<path style="fill:#565656;" d="M232.607,141.241c0-29.131-21.186-52.966-50.317-52.966c-58.262,0-72.386,19.421-105.931,52.966
		c27.366-71.503,59.145-112.993,112.11-132.414C211.421,0,222.897,0,248.497,0H294.4c11.476,0,22.069,3.531,31.779,10.593
		c13.241,9.71,12.359,15.89,30.014,15.89c4.414,0,8.828-3.531,8.828-8.828s3.531-8.828,8.828-8.828h44.138
		c9.71,0,17.655,7.945,17.655,17.655v88.276c0,9.71-7.945,17.655-17.655,17.655h-44.138c-4.414,0-8.828-3.531-8.828-8.828
		c0-5.297-4.414-8.828-8.828-8.828c-17.655,0-16.772,6.179-30.897,15.89c-8.828,7.062-11.476,10.593-22.069,10.593H232.607"/>
	<path style="fill:#565656;" d="M232.607,247.172v238.345c0,15.007,11.476,26.483,26.483,26.483h17.655
		c15.007,0,26.483-11.476,26.483-26.483V247.172H232.607z"/>
</g>
<g>
	<path style="fill:#7F7C79;" d="M259.09,423.724h-26.483v17.655h26.483c5.297,0,8.828-3.531,8.828-8.828
		S263.503,423.724,259.09,423.724"/>
	<path style="fill:#7F7C79;" d="M259.09,459.034h-26.483v17.655h26.483c5.297,0,8.828-3.531,8.828-8.828
		S263.503,459.034,259.09,459.034"/>
</g>
<g>
</g>
<g>
</g>
<g>
</g>
<g>
</g>
<g>
</g>
<g>
</g>
<g>
</g>
<g>
</g>
<g>
</g>
<g>
</g>
<g>
</g>
<g>
</g>
<g>
</g>
<g>
</g>
<g>
</g>
</svg>
