<?xml version="1.0" encoding="iso-8859-1"?>
<!-- Generator: Adobe Illustrator 19.0.0, SVG Export Plug-In . SVG Version: 6.00 Build 0)  -->
<svg version="1.1" id="Layer_1" xmlns="http://www.w3.org/2000/svg" xmlns:xlink="http://www.w3.org/1999/xlink" x="0px" y="0px"
	 viewBox="0 0 512 512" style="enable-background:new 0 0 512 512;" xml:space="preserve">
<path style="fill:#F4BA48;" d="M494.345,335.448H17.655C7.945,335.448,0,327.503,0,317.793V194.207
	c0-9.71,7.945-17.655,17.655-17.655h476.69c9.71,0,17.655,7.945,17.655,17.655v123.586C512,327.503,504.055,335.448,494.345,335.448
	"/>
<g>
	<path style="fill:#75B93F;" d="M291.31,220.69H220.69c-9.71,0-17.655-7.945-17.655-17.655v-26.483h105.931v26.483
		C308.966,212.745,301.021,220.69,291.31,220.69"/>
	<path style="fill:#75B93F;" d="M123.586,300.138c22.069,0,38.841-15.007,43.255-35.31h-86.51
		C84.745,285.131,101.517,300.138,123.586,300.138z"/>
	<path style="fill:#75B93F;" d="M123.586,211.862c-22.069,0-38.841,15.007-43.255,35.31h86.51
		C162.428,226.869,145.655,211.862,123.586,211.862z"/>
</g>
<path style="fill:#528723;" d="M166.841,247.172h-86.51c-0.883,2.648-0.883,6.179-0.883,8.828s0,6.179,0.883,8.828h86.51
	c0.883-2.648,0.883-6.179,0.883-8.828S167.724,249.821,166.841,247.172z"/>
<path style="fill:#798389;" d="M44.138,176.552H17.655C7.945,176.552,0,184.497,0,194.207v123.586
	c0,9.71,7.945,17.655,17.655,17.655h26.483V176.552z"/>
<g>
	<path style="fill:#75B93F;" d="M388.414,300.138c22.069,0,38.841-15.007,43.255-35.31h-86.51
		C349.572,285.131,366.345,300.138,388.414,300.138z"/>
	<path style="fill:#75B93F;" d="M388.414,211.862c-22.069,0-38.841,15.007-43.255,35.31h86.51
		C427.255,226.869,410.483,211.862,388.414,211.862z"/>
</g>
<path style="fill:#528723;" d="M431.669,247.172h-86.51c-0.883,2.648-0.883,6.179-0.883,8.828s0,6.179,0.883,8.828h86.51
	c0.883-2.648,0.883-6.179,0.883-8.828S432.552,249.821,431.669,247.172z"/>
<path style="fill:#798389;" d="M467.862,176.552h26.483c9.71,0,17.655,7.945,17.655,17.655v123.586
	c0,9.71-7.945,17.655-17.655,17.655h-26.483V176.552z"/>
<g>
</g>
<g>
</g>
<g>
</g>
<g>
</g>
<g>
</g>
<g>
</g>
<g>
</g>
<g>
</g>
<g>
</g>
<g>
</g>
<g>
</g>
<g>
</g>
<g>
</g>
<g>
</g>
<g>
</g>
</svg>
