<?xml version="1.0" encoding="iso-8859-1"?>
<!-- Generator: Adobe Illustrator 19.0.0, SVG Export Plug-In . SVG Version: 6.00 Build 0)  -->
<svg version="1.1" id="Layer_1" xmlns="http://www.w3.org/2000/svg" xmlns:xlink="http://www.w3.org/1999/xlink" x="0px" y="0px"
	 viewBox="0 0 512 512" style="enable-background:new 0 0 512 512;" xml:space="preserve">
<path style="fill:#C3C7CB;" d="M238.345,300.138c-5.297,0-8.828-3.531-8.828-8.828v-61.793c0-19.421,15.89-35.31,35.31-35.31
	c73.269-6.179,185.379-15.89,192.441-17.655c15.89-3.531,28.248-18.538,28.248-35.31v-35.31c0-19.421-15.89-35.31-35.31-35.31
	c-5.297,0-8.828-3.531-8.828-8.828s3.531-8.828,8.828-8.828c29.131,0,52.966,23.834,52.966,52.966v35.31
	c0,25.6-17.655,47.669-42.372,52.966c-7.945,1.766-164.193,15.007-195.09,17.655c-10.593,0-18.538,7.945-18.538,17.655v61.793
	C247.172,296.607,243.641,300.138,238.345,300.138"/>
<path style="fill:#C17C3E;" d="M300.138,291.31H176.552l8.828,44.138h17.655V476.69c0,19.421,15.89,35.31,35.31,35.31
	s35.31-15.89,35.31-35.31V335.448h17.655L300.138,291.31z"/>
<path style="fill:#E0E0E0;" d="M432.552,123.586H52.966c-9.71,0-17.655-7.945-17.655-17.655V17.655C35.31,7.945,43.255,0,52.966,0
	h379.586c9.71,0,17.655,7.945,17.655,17.655v88.276C450.207,115.641,442.262,123.586,432.552,123.586"/>
<path style="fill:#C3C7CB;" d="M35.31,70.621H17.655c-5.297,0-8.828-3.531-8.828-8.828s3.531-8.828,8.828-8.828H35.31
	c5.297,0,8.828,3.531,8.828,8.828S40.607,70.621,35.31,70.621"/>
<g>
	<path style="fill:#9E5A23;" d="M203.034,441.379h26.483v-17.655h-26.483V441.379z"/>
	<path style="fill:#9E5A23;" d="M203.034,476.69h26.483v-17.655h-26.483V476.69z"/>
</g>
<g>
	<path style="fill:#C3C7CB;" d="M450.207,26.483h-70.621c-5.297,0-8.828,3.531-8.828,8.828s3.531,8.828,8.828,8.828h70.621V26.483z"
		/>
	<path style="fill:#C3C7CB;" d="M450.207,79.448H291.31c-5.297,0-8.828,3.531-8.828,8.828s3.531,8.828,8.828,8.828h158.897V79.448z"
		/>
	<path style="fill:#C3C7CB;" d="M220.69,26.483H35.31v17.655H220.69c5.297,0,8.828-3.531,8.828-8.828S225.986,26.483,220.69,26.483"
		/>
	<path style="fill:#C3C7CB;" d="M132.414,79.448H35.31v17.655h97.103c5.297,0,8.828-3.531,8.828-8.828S137.71,79.448,132.414,79.448
		"/>
</g>
<g>
</g>
<g>
</g>
<g>
</g>
<g>
</g>
<g>
</g>
<g>
</g>
<g>
</g>
<g>
</g>
<g>
</g>
<g>
</g>
<g>
</g>
<g>
</g>
<g>
</g>
<g>
</g>
<g>
</g>
</svg>
