<?xml version="1.0" encoding="iso-8859-1"?>
<!-- Generator: Adobe Illustrator 19.0.0, SVG Export Plug-In . SVG Version: 6.00 Build 0)  -->
<svg version="1.1" id="Layer_1" xmlns="http://www.w3.org/2000/svg" xmlns:xlink="http://www.w3.org/1999/xlink" x="0px" y="0px"
	 viewBox="0 0 512 512" style="enable-background:new 0 0 512 512;" xml:space="preserve">
<path style="fill:#C7CBC7;" d="M238.345,235.206h35.31v-52.966h-35.31V235.206z"/>
<path style="fill:#B72F29;" d="M229.517,182.241h52.966v-35.31h-52.966V182.241z"/>
<g>
	<path style="fill:#E15649;" d="M397.241,182.241H282.483v-35.31l90.924-28.248c12.359-3.531,23.834,5.297,23.834,17.655V182.241z"
		/>
	<path style="fill:#E15649;" d="M114.759,182.241h114.759v-35.31l-90.924-28.248c-12.359-3.531-23.834,5.297-23.834,17.655V182.241z
		"/>
</g>
<g>
	<path style="fill:#C7CBC7;" d="M176.552,252.861H17.655C7.945,252.861,0,260.806,0,270.516v88.276
		c0,9.71,7.945,17.655,17.655,17.655h158.897V252.861z"/>
	<path style="fill:#C7CBC7;" d="M335.448,252.861v123.586h158.897c9.71,0,17.655-7.945,17.655-17.655v-88.276
		c0-9.71-7.945-17.655-17.655-17.655H335.448z"/>
</g>
<g>
	<path style="fill:#949493;" d="M176.552,296.999h-70.621c-5.297,0-8.828-3.531-8.828-8.828c0-5.297,3.531-8.828,8.828-8.828h70.621
		c5.297,0,8.828,3.531,8.828,8.828C185.379,293.468,181.848,296.999,176.552,296.999"/>
	<path style="fill:#949493;" d="M79.448,288.172c0-5.297-3.531-8.828-8.828-8.828s-8.828,3.531-8.828,8.828
		c0,5.297,3.531,8.828,8.828,8.828S79.448,293.468,79.448,288.172"/>
	<path style="fill:#949493;" d="M423.724,296.999h-88.276c-5.297,0-8.828-3.531-8.828-8.828c0-5.297,3.531-8.828,8.828-8.828h88.276
		c5.297,0,8.828,3.531,8.828,8.828C432.552,293.468,429.021,296.999,423.724,296.999"/>
	<path style="fill:#949493;" d="M467.862,288.172c0-5.297-3.531-8.828-8.828-8.828s-8.828,3.531-8.828,8.828
		c0,5.297,3.531,8.828,8.828,8.828S467.862,293.468,467.862,288.172"/>
	<path style="fill:#949493;" d="M317.793,394.103H194.207c-9.71,0-17.655-7.945-17.655-17.655V252.861
		c0-9.71,7.945-17.655,17.655-17.655h123.586c9.71,0,17.655,7.945,17.655,17.655v123.586
		C335.448,386.158,327.503,394.103,317.793,394.103"/>
	<path style="fill:#949493;" d="M494.345,279.344c-5.297,0-8.828,3.531-8.828,8.828c0,5.297,3.531,8.828,8.828,8.828H512v-17.655
		H494.345z"/>
	<path style="fill:#949493;" d="M35.31,296.999c5.297,0,8.828-3.531,8.828-8.828c0-5.297-3.531-8.828-8.828-8.828H0v17.655H35.31z"
		/>
</g>
<g>
</g>
<g>
</g>
<g>
</g>
<g>
</g>
<g>
</g>
<g>
</g>
<g>
</g>
<g>
</g>
<g>
</g>
<g>
</g>
<g>
</g>
<g>
</g>
<g>
</g>
<g>
</g>
<g>
</g>
</svg>
