<?xml version="1.0" encoding="iso-8859-1"?>
<!-- Generator: Adobe Illustrator 19.0.0, SVG Export Plug-In . SVG Version: 6.00 Build 0)  -->
<svg version="1.1" id="Layer_1" xmlns="http://www.w3.org/2000/svg" xmlns:xlink="http://www.w3.org/1999/xlink" x="0px" y="0px"
	 viewBox="0 0 512 512" style="enable-background:new 0 0 512 512;" xml:space="preserve">
<path style="fill:#E8EDEE;" d="M317.793,278.069V136.828H194.207v141.241H52.966v123.586h406.069V278.069H317.793z"/>
<g>
	<path style="fill:#C7CBC7;" d="M44.138,428.138H8.828c-5.297,0-8.828-3.531-8.828-8.828V260.414c0-5.297,3.531-8.828,8.828-8.828
		h35.31c5.297,0,8.828,3.531,8.828,8.828V419.31C52.966,424.607,49.434,428.138,44.138,428.138"/>
	<path style="fill:#C7CBC7;" d="M503.172,428.138h-35.31c-5.297,0-8.828-3.531-8.828-8.828V260.414c0-5.297,3.531-8.828,8.828-8.828
		h35.31c5.297,0,8.828,3.531,8.828,8.828V419.31C512,424.607,508.469,428.138,503.172,428.138"/>
	<path style="fill:#C7CBC7;" d="M273.655,180.966c-5.297,0-8.828-3.531-8.828-8.828v-35.31c0-5.297,3.531-8.828,8.828-8.828
		c5.297,0,8.828,3.531,8.828,8.828v35.31C282.483,177.434,278.952,180.966,273.655,180.966"/>
	<path style="fill:#C7CBC7;" d="M273.655,322.207c-5.297,0-8.828-3.531-8.828-8.828v-70.621c0-5.297,3.531-8.828,8.828-8.828
		c5.297,0,8.828,3.531,8.828,8.828v70.621C282.483,318.676,278.952,322.207,273.655,322.207"/>
	<path style="fill:#C7CBC7;" d="M273.655,216.276c5.297,0,8.828-3.531,8.828-8.828s-3.531-8.828-8.828-8.828
		c-5.297,0-8.828,3.531-8.828,8.828S268.359,216.276,273.655,216.276"/>
	<path style="fill:#C7CBC7;" d="M361.931,322.207h-88.276c-5.297,0-8.828-3.531-8.828-8.828c0-5.297,3.531-8.828,8.828-8.828h88.276
		c5.297,0,8.828,3.531,8.828,8.828C370.759,318.676,367.228,322.207,361.931,322.207"/>
	<path style="fill:#C7CBC7;" d="M459.034,322.207h-44.138c-5.297,0-8.828-3.531-8.828-8.828c0-5.297,3.531-8.828,8.828-8.828h44.138
		c5.297,0,8.828,3.531,8.828,8.828C467.862,318.676,464.331,322.207,459.034,322.207"/>
	<path style="fill:#C7CBC7;" d="M167.724,128V92.69c0-5.297,3.531-8.828,8.828-8.828h158.897c5.297,0,8.828,3.531,8.828,8.828V128
		c0,5.297-3.531,8.828-8.828,8.828H176.552C171.255,136.828,167.724,133.297,167.724,128"/>
</g>
<g>
</g>
<g>
</g>
<g>
</g>
<g>
</g>
<g>
</g>
<g>
</g>
<g>
</g>
<g>
</g>
<g>
</g>
<g>
</g>
<g>
</g>
<g>
</g>
<g>
</g>
<g>
</g>
<g>
</g>
</svg>
