<?xml version="1.0" encoding="iso-8859-1"?>
<!-- Generator: Adobe Illustrator 19.0.0, SVG Export Plug-In . SVG Version: 6.00 Build 0)  -->
<svg version="1.1" id="Layer_1" xmlns="http://www.w3.org/2000/svg" xmlns:xlink="http://www.w3.org/1999/xlink" x="0px" y="0px"
	 viewBox="0 0 511.779 511.779" style="enable-background:new 0 0 511.779 511.779;" xml:space="preserve">
<path style="fill:#E15649;" d="M202.648,273.214l-17.655,218.924c0,5.297,1.766,9.71,5.297,13.241l1.766,1.766
	c5.297,5.297,15.007,5.297,20.303,0l11.476-11.476c3.531-2.648,5.297-6.179,5.297-10.593l17.655-211.862H202.648z"/>
<path style="fill:#A3AAAF;" d="M246.786,273.214h-35.31V176.11l52.966,44.138L246.786,273.214z"/>
<path style="fill:#E15649;" d="M326.234,273.214l17.655,218.924c0,5.297-1.766,9.71-5.297,13.241l-1.766,1.766
	c-6.179,6.179-15.007,6.179-21.186,0l-11.476-11.476c-2.648-2.648-4.414-6.179-4.414-10.593l-17.655-211.862H326.234z"/>
<path style="fill:#E0E0E0;" d="M220.303,79.007c0,0-13.241-22.069,8.828-44.138l15.89-15.89c5.297-5.297,3.531-14.124-2.648-17.655
	c-2.648-1.766-6.179-1.766-8.828,0c-15.007,6.179-59.145,29.131-65.324,82.097c-0.883,8.828,0,16.772,2.648,24.717
	c5.297,15.89,17.655,45.021,40.607,67.09l52.966,44.138l17.655,52.966h35.31v-73.269c0-15.007-6.179-29.131-16.772-39.724
	L220.303,79.007z"/>
<path style="fill:#A3AAAF;" d="M255.614,114.317l50.317-58.262c1.766-2.648,4.414-3.531,7.062-3.531
	c6.179,0,11.476,6.179,9.71,12.359l-22.952,93.572L255.614,114.317z"/>
<g>
</g>
<g>
</g>
<g>
</g>
<g>
</g>
<g>
</g>
<g>
</g>
<g>
</g>
<g>
</g>
<g>
</g>
<g>
</g>
<g>
</g>
<g>
</g>
<g>
</g>
<g>
</g>
<g>
</g>
</svg>
