<?xml version="1.0" encoding="iso-8859-1"?>
<!-- Generator: Adobe Illustrator 19.0.0, SVG Export Plug-In . SVG Version: 6.00 Build 0)  -->
<svg version="1.1" id="Layer_1" xmlns="http://www.w3.org/2000/svg" xmlns:xlink="http://www.w3.org/1999/xlink" x="0px" y="0px"
	 viewBox="0 0 512 512" style="enable-background:new 0 0 512 512;" xml:space="preserve">
<path style="fill:#E15649;" d="M176.552,79.448c0,16.772,0,31.779,8.828,52.966h141.241c8.828-21.186,8.828-36.193,8.828-52.966
	c0-6.179-0.883-12.359-1.766-17.655H178.317C177.434,67.09,176.552,73.269,176.552,79.448"/>
<path style="fill:#E0E0E0;" d="M333.683,61.793C325.738,26.483,293.959,0,256,0s-69.738,26.483-77.683,61.793H333.683z"/>
<g>
	<path style="fill:#BC342E;" d="M238.345,97.103c0-9.71-7.945-17.655-17.655-17.655c-9.71,0-17.655,7.945-17.655,17.655
		s7.945,17.655,17.655,17.655C230.4,114.759,238.345,106.814,238.345,97.103"/>
	<path style="fill:#BC342E;" d="M308.966,97.103c0-9.71-7.945-17.655-17.655-17.655c-9.71,0-17.655,7.945-17.655,17.655
		s7.945,17.655,17.655,17.655C301.021,114.759,308.966,106.814,308.966,97.103"/>
</g>
<g>
	<path style="fill:#A3AAAF;" d="M238.345,203.034c0-19.421-15.89-35.31-35.31-35.31s-35.31,15.89-35.31,35.31
		s15.89,35.31,35.31,35.31S238.345,222.455,238.345,203.034"/>
	<path style="fill:#A3AAAF;" d="M344.276,203.034c0-19.421-15.89-35.31-35.31-35.31s-35.31,15.89-35.31,35.31
		s15.89,35.31,35.31,35.31S344.276,222.455,344.276,203.034"/>
</g>
<g>
	<path style="fill:#E0E0E0;" d="M203.034,167.724c7.062,0,13.241,1.766,19.421,6.179l7.062-41.49h-44.138v39.724
		C191.559,169.49,196.855,167.724,203.034,167.724"/>
	<path style="fill:#E0E0E0;" d="M308.966,167.724c6.179,0,12.359,1.766,17.655,5.297v-40.607h-44.138l7.062,41.49
		C294.841,169.49,301.903,167.724,308.966,167.724"/>
</g>
<path style="fill:#A3AAAF;" d="M278.952,220.69c-2.648-5.297-5.297-11.476-5.297-17.655s1.766-12.359,5.297-17.655h-45.903
	c2.648,5.297,5.297,11.476,5.297,17.655s-1.766,12.359-5.297,17.655H278.952z"/>
<g>
	<path style="fill:#E15649;" d="M158.897,512c-16.772-2.648-24.717-15.89-26.483-35.31c-0.883-8.828,0.883-17.655,2.648-26.483
		l32.662-123.586l44.138,8.828l-15.89,159.779c-0.883,9.71-8.828,16.772-18.538,16.772H158.897z"/>
	<path style="fill:#E15649;" d="M353.103,512c16.772-2.648,24.717-15.89,26.483-35.31c0.883-8.828-0.883-17.655-2.648-26.483
		l-32.662-123.586l-44.138,8.828l15.89,159.779c0.883,9.71,8.828,16.772,18.538,16.772H353.103z"/>
</g>
<g>
	<path style="fill:#E0E0E0;" d="M220.69,264.828v-30.897c-5.297,3.531-11.476,4.414-17.655,4.414
		c-8.828,0-16.772-3.531-22.952-8.828l-2.648-2.648l-9.71,99.752l44.138,8.828l8.828-35.31L256,282.483L220.69,264.828z"/>
	<path style="fill:#E0E0E0;" d="M331.917,229.517c-6.179,5.297-14.124,8.828-22.952,8.828c-6.179,0-12.359-1.766-17.655-4.414
		v30.897L256,282.483l35.31,17.655l8.828,35.31l44.138-8.828l-9.71-99.752L331.917,229.517z"/>
</g>
<path style="fill:#A3AAAF;" d="M264.828,61.793V0.883C262.179,0,258.648,0,256,0s-6.179,0-8.828,0.883v60.91l0,0H264.828
	L264.828,61.793"/>
<g>
</g>
<g>
</g>
<g>
</g>
<g>
</g>
<g>
</g>
<g>
</g>
<g>
</g>
<g>
</g>
<g>
</g>
<g>
</g>
<g>
</g>
<g>
</g>
<g>
</g>
<g>
</g>
<g>
</g>
</svg>
