<?xml version="1.0" encoding="iso-8859-1"?>
<!-- Generator: Adobe Illustrator 19.0.0, SVG Export Plug-In . SVG Version: 6.00 Build 0)  -->
<svg version="1.1" id="Layer_1" xmlns="http://www.w3.org/2000/svg" xmlns:xlink="http://www.w3.org/1999/xlink" x="0px" y="0px"
	 viewBox="0 0 512 512" style="enable-background:new 0 0 512 512;" xml:space="preserve">
<path style="fill:#E8EDEE;" d="M317.793,105.931V52.966H194.207v229.517H52.966v123.586h141.241v52.966h123.586V229.517h141.241
	V105.931H317.793z"/>
<g>
	<path style="fill:#C7CBC7;" d="M167.724,44.138V8.828c0-5.297,3.531-8.828,8.828-8.828h158.897c5.297,0,8.828,3.531,8.828,8.828
		v35.31c0,5.297-3.531,8.828-8.828,8.828H176.552C171.255,52.966,167.724,49.434,167.724,44.138"/>
	<path style="fill:#C7CBC7;" d="M167.724,503.172v-35.31c0-5.297,3.531-8.828,8.828-8.828h158.897c5.297,0,8.828,3.531,8.828,8.828
		v35.31c0,5.297-3.531,8.828-8.828,8.828H176.552C171.255,512,167.724,508.469,167.724,503.172"/>
	<path style="fill:#C7CBC7;" d="M459.034,203.034h-35.31c-5.297,0-8.828-3.531-8.828-8.828s3.531-8.828,8.828-8.828h35.31
		c5.297,0,8.828,3.531,8.828,8.828S464.331,203.034,459.034,203.034"/>
	<path style="fill:#C7CBC7;" d="M282.483,238.345c-5.297,0-8.828-3.531-8.828-8.828v-35.31c0-5.297,3.531-8.828,8.828-8.828
		c5.297,0,8.828,3.531,8.828,8.828v35.31C291.31,234.814,287.779,238.345,282.483,238.345"/>
	<path style="fill:#C7CBC7;" d="M379.586,194.207c0,5.297,3.531,8.828,8.828,8.828s8.828-3.531,8.828-8.828
		s-3.531-8.828-8.828-8.828S379.586,188.91,379.586,194.207"/>
	<path style="fill:#C7CBC7;" d="M282.483,370.759c-5.297,0-8.828-3.531-8.828-8.828v-88.276c0-5.297,3.531-8.828,8.828-8.828
		c5.297,0,8.828,3.531,8.828,8.828v88.276C291.31,367.228,287.779,370.759,282.483,370.759"/>
	<path style="fill:#C7CBC7;" d="M282.483,467.862c-5.297,0-8.828-3.531-8.828-8.828v-44.138c0-5.297,3.531-8.828,8.828-8.828
		c5.297,0,8.828,3.531,8.828,8.828v44.138C291.31,464.331,287.779,467.862,282.483,467.862"/>
	<path style="fill:#C7CBC7;" d="M44.138,432.552H8.828c-5.297,0-8.828-3.531-8.828-8.828V264.828C0,259.531,3.531,256,8.828,256
		h35.31c5.297,0,8.828,3.531,8.828,8.828v158.897C52.966,429.021,49.434,432.552,44.138,432.552"/>
	<path style="fill:#C7CBC7;" d="M467.862,79.448h35.31c5.297,0,8.828,3.531,8.828,8.828v158.897c0,5.297-3.531,8.828-8.828,8.828
		h-35.31c-5.297,0-8.828-3.531-8.828-8.828V88.276C459.034,82.979,462.566,79.448,467.862,79.448"/>
	<path style="fill:#C7CBC7;" d="M353.103,203.034h-70.621c-5.297,0-8.828-3.531-8.828-8.828s3.531-8.828,8.828-8.828h70.621
		c5.297,0,8.828,3.531,8.828,8.828S358.4,203.034,353.103,203.034"/>
</g>
<g>
</g>
<g>
</g>
<g>
</g>
<g>
</g>
<g>
</g>
<g>
</g>
<g>
</g>
<g>
</g>
<g>
</g>
<g>
</g>
<g>
</g>
<g>
</g>
<g>
</g>
<g>
</g>
<g>
</g>
</svg>
