<?xml version="1.0" encoding="iso-8859-1"?>
<!-- Generator: Adobe Illustrator 19.0.0, SVG Export Plug-In . SVG Version: 6.00 Build 0)  -->
<svg version="1.1" id="Layer_1" xmlns="http://www.w3.org/2000/svg" xmlns:xlink="http://www.w3.org/1999/xlink" x="0px" y="0px"
	 viewBox="0 0 512 512" style="enable-background:new 0 0 512 512;" xml:space="preserve">
<g>
	<path style="fill:#A3AAAF;" d="M125.831,512c-5.207,0-8.678-3.471-8.678-8.678V468.61c0-5.207,3.471-8.678,8.678-8.678
		c5.207,0,8.678,3.471,8.678,8.678v34.712C134.508,508.529,131.037,512,125.831,512"/>
	<path style="fill:#A3AAAF;" d="M151.864,512c-5.207,0-8.678-3.471-8.678-8.678V468.61c0-5.207,3.471-8.678,8.678-8.678
		c5.207,0,8.678,3.471,8.678,8.678v34.712C160.542,508.529,157.071,512,151.864,512"/>
	<path style="fill:#A3AAAF;" d="M177.898,512c-5.207,0-8.678-3.471-8.678-8.678V468.61c0-5.207,3.471-8.678,8.678-8.678
		c5.207,0,8.678,3.471,8.678,8.678v34.712C186.576,508.529,183.105,512,177.898,512"/>
	<path style="fill:#A3AAAF;" d="M203.932,512c-5.207,0-8.678-3.471-8.678-8.678V468.61c0-5.207,3.471-8.678,8.678-8.678
		s8.678,3.471,8.678,8.678v34.712C212.61,508.529,209.139,512,203.932,512"/>
	<path style="fill:#A3AAAF;" d="M229.966,512c-5.207,0-8.678-3.471-8.678-8.678V468.61c0-5.207,3.471-8.678,8.678-8.678
		c5.207,0,8.678,3.471,8.678,8.678v34.712C238.644,508.529,235.173,512,229.966,512"/>
	<path style="fill:#A3AAAF;" d="M256,512c-5.207,0-8.678-3.471-8.678-8.678V468.61c0-5.207,3.471-8.678,8.678-8.678
		s8.678,3.471,8.678,8.678v34.712C264.678,508.529,261.207,512,256,512"/>
	<path style="fill:#A3AAAF;" d="M282.034,512c-5.207,0-8.678-3.471-8.678-8.678V468.61c0-5.207,3.471-8.678,8.678-8.678
		s8.678,3.471,8.678,8.678v34.712C290.712,508.529,287.241,512,282.034,512"/>
	<path style="fill:#A3AAAF;" d="M308.068,512c-5.207,0-8.678-3.471-8.678-8.678V468.61c0-5.207,3.471-8.678,8.678-8.678
		c5.207,0,8.678,3.471,8.678,8.678v34.712C316.746,508.529,313.275,512,308.068,512"/>
	<path style="fill:#A3AAAF;" d="M334.102,512c-5.207,0-8.678-3.471-8.678-8.678V468.61c0-5.207,3.471-8.678,8.678-8.678
		s8.678,3.471,8.678,8.678v34.712C342.78,508.529,339.308,512,334.102,512"/>
	<path style="fill:#A3AAAF;" d="M360.136,512c-5.207,0-8.678-3.471-8.678-8.678V468.61c0-5.207,3.471-8.678,8.678-8.678
		s8.678,3.471,8.678,8.678v34.712C368.814,508.529,365.342,512,360.136,512"/>
	<path style="fill:#A3AAAF;" d="M386.169,512c-5.207,0-8.678-3.471-8.678-8.678V468.61c0-5.207,3.471-8.678,8.678-8.678
		s8.678,3.471,8.678,8.678v34.712C394.847,508.529,391.376,512,386.169,512"/>
</g>
<g>
	<path style="fill:#E0E0E0;" d="M238.644,399.186h34.712V0h-34.712V399.186z"/>
	<path style="fill:#E0E0E0;" d="M117.153,477.288h277.695V425.22H117.153V477.288z"/>
</g>
<g>
	<path style="fill:#A3AAAF;" d="M238.644,130.169h34.712V34.712h-34.712V130.169z"/>
	<path style="fill:#A3AAAF;" d="M221.288,433.898h69.424v-34.712h-69.424V433.898z"/>
</g>
<g>
</g>
<g>
</g>
<g>
</g>
<g>
</g>
<g>
</g>
<g>
</g>
<g>
</g>
<g>
</g>
<g>
</g>
<g>
</g>
<g>
</g>
<g>
</g>
<g>
</g>
<g>
</g>
<g>
</g>
</svg>
