<?xml version="1.0" encoding="iso-8859-1"?>
<!-- Generator: Adobe Illustrator 19.0.0, SVG Export Plug-In . SVG Version: 6.00 Build 0)  -->
<svg version="1.1" id="Layer_1" xmlns="http://www.w3.org/2000/svg" xmlns:xlink="http://www.w3.org/1999/xlink" x="0px" y="0px"
	 viewBox="0 0 512.413 512.413" style="enable-background:new 0 0 512.413 512.413;" xml:space="preserve">
<path style="fill:#E8EDEE;" d="M388.542,165.368c0,54.503-44.594,99.097-99.097,99.097s-99.097-44.594-99.097-99.097
	s44.594-99.097,99.097-99.097S388.542,110.865,388.542,165.368"/>
<path style="fill:#E15649;" d="M289.445,264.465c20.645,0,40.465-6.606,56.155-17.342c-11.561-19.819-32.206-32.206-56.155-32.206
	s-44.594,12.387-56.155,32.206C248.981,257.858,268.8,264.465,289.445,264.465"/>
<g>
	<path style="fill:#556080;" d="M231.639,165.368c0,4.955-3.303,8.258-8.258,8.258c-4.955,0-8.258-3.303-8.258-8.258
		c0-4.955,3.303-8.258,8.258-8.258C228.335,157.11,231.639,160.413,231.639,165.368"/>
	<path style="fill:#556080;" d="M363.768,165.368c0,4.955-3.303,8.258-8.258,8.258c-4.955,0-8.258-3.303-8.258-8.258
		c0-4.955,3.303-8.258,8.258-8.258C360.464,157.11,363.768,160.413,363.768,165.368"/>
	<path style="fill:#556080;" d="M248.155,124.077c0,4.955-3.303,8.258-8.258,8.258c-4.955,0-8.258-3.303-8.258-8.258
		c0-4.955,3.303-8.258,8.258-8.258C244.852,115.819,248.155,119.123,248.155,124.077"/>
	<path style="fill:#556080;" d="M297.703,99.303c0,4.955-3.303,8.258-8.258,8.258c-4.955,0-8.258-3.303-8.258-8.258
		c0-4.955,3.303-8.258,8.258-8.258C294.4,91.045,297.703,94.348,297.703,99.303"/>
	<path style="fill:#556080;" d="M347.252,124.077c0,4.955-3.303,8.258-8.258,8.258c-4.955,0-8.258-3.303-8.258-8.258
		c0-4.955,3.303-8.258,8.258-8.258C343.948,115.819,347.252,119.123,347.252,124.077"/>
	<path style="fill:#556080;" d="M289.445,190.142c-2.477,0-4.955-0.826-6.606-3.303l-27.252-33.032
		c-3.303-3.303-2.477-9.084,0.826-11.561c3.303-3.303,9.084-2.477,11.561,0.826l28.077,33.032c3.303,3.303,2.477,9.084-0.826,11.561
		C293.574,189.316,291.097,190.142,289.445,190.142"/>
</g>
<path style="fill:#E8EDEE;" d="M382.761,446.142H196.129c-12.387,0-22.297-9.91-22.297-22.297V336.31
	c0-12.387,9.91-22.297,22.297-22.297h187.458c12.387,0,21.471,9.91,21.471,22.297v88.361
	C405.058,436.232,395.148,446.142,382.761,446.142"/>
<path style="fill:#FFFFFF;" d="M206.865,390.813v-22.297c0-12.387,9.91-22.297,21.471-22.297h121.394
	c12.387,0,22.297,9.91,22.297,22.297v22.297c0,12.387-9.91,21.471-22.297,21.471H228.335
	C216.774,413.11,206.865,403.2,206.865,390.813"/>
<g>
	<path style="fill:#C7CBC7;" d="M405.058,413.11h107.355v-66.065H405.058V413.11z"/>
	<path style="fill:#C7CBC7;" d="M99.51,274.374V66.271H33.445v208.103c0,77.626,62.761,138.735,140.387,138.735v-64.413
		C132.542,348.697,99.51,315.665,99.51,274.374"/>
	<path style="fill:#C7CBC7;" d="M289.445,264.465c-11.561,0-22.297-2.477-33.032-5.781v55.329h66.065v-55.329
		C311.742,261.987,301.006,264.465,289.445,264.465"/>
</g>
<g>
	<path style="fill:#556080;" d="M239.897,388.335h-33.032c-4.955,0-8.258-3.303-8.258-8.258c0-4.955,3.303-8.258,8.258-8.258h33.032
		c4.955,0,8.258,3.303,8.258,8.258C248.155,385.032,244.852,388.335,239.897,388.335"/>
	<path style="fill:#556080;" d="M372.026,388.335h-33.032c-4.955,0-8.258-3.303-8.258-8.258c0-4.955,3.303-8.258,8.258-8.258h33.032
		c4.955,0,8.258,3.303,8.258,8.258C380.284,385.032,376.981,388.335,372.026,388.335"/>
</g>
<g>
	<path style="fill:#7FABDA;" d="M74.735,74.529H58.219c-4.955,0-8.258,3.303-8.258,8.258v16.516H33.445
		c-4.955,0-8.258,3.303-8.258,8.258c0,4.955,3.303,8.258,8.258,8.258h24.774c4.955,0,8.258-3.303,8.258-8.258V91.045h8.258
		c4.955,0,8.258-3.303,8.258-8.258C82.994,77.832,79.69,74.529,74.735,74.529"/>
	<path style="fill:#7FABDA;" d="M57.394,227.303L57.394,227.303c-13.213,13.213-35.51,13.213-48.723,0l0,0
		c-11.561-14.039-11.561-33.858,0-52.852l24.774-33.858l23.948,34.684C73.91,200.052,64.826,219.871,57.394,227.303"/>
</g>
<g>
</g>
<g>
</g>
<g>
</g>
<g>
</g>
<g>
</g>
<g>
</g>
<g>
</g>
<g>
</g>
<g>
</g>
<g>
</g>
<g>
</g>
<g>
</g>
<g>
</g>
<g>
</g>
<g>
</g>
</svg>
