<?xml version="1.0" encoding="iso-8859-1"?>
<!-- Generator: Adobe Illustrator 19.0.0, SVG Export Plug-In . SVG Version: 6.00 Build 0)  -->
<svg version="1.1" id="Layer_1" xmlns="http://www.w3.org/2000/svg" xmlns:xlink="http://www.w3.org/1999/xlink" x="0px" y="0px"
	 viewBox="0 0 512 512" style="enable-background:new 0 0 512 512;" xml:space="preserve">
<g transform="translate(-1 -1)">
	<path style="fill:#E0E0E0;" d="M194.324,106.931l-87.393,87.393L424.724,513L513,424.724L194.324,106.931z"/>
	<g>
		<path style="fill:#A3AAAF;" d="M131.648,227.869c-2.648,0-4.414-0.883-6.179-2.648c-3.531-3.531-3.531-8.828,0-12.359
			l18.538-18.538c3.531-3.531,8.828-3.531,12.359,0c3.531,3.531,3.531,8.828,0,12.359l-18.538,18.538
			C136.062,227.869,134.297,227.869,131.648,227.869"/>
		<path style="fill:#A3AAAF;" d="M157.248,253.469c-2.648,0-4.414-0.883-6.179-2.648c-3.531-3.531-3.531-8.828,0-12.359
			l30.897-30.897c3.531-3.531,8.828-3.531,12.359,0c3.531,3.531,3.531,8.828,0,12.359l-30.897,30.897
			C161.662,252.586,159.014,253.469,157.248,253.469"/>
		<path style="fill:#A3AAAF;" d="M181.966,278.186c-2.648,0-4.414-0.883-6.179-2.648c-3.531-3.531-3.531-8.828,0-12.359
			l18.538-18.538c3.531-3.531,8.828-3.531,12.359,0c3.531,3.531,3.531,8.828,0,12.359l-18.538,18.538
			C186.379,277.303,184.614,278.186,181.966,278.186"/>
		<path style="fill:#A3AAAF;" d="M106.931,194.324L106.931,194.324L1,362.931l56.497,56.497l137.71-137.71L106.931,194.324z"/>
		<path style="fill:#A3AAAF;" d="M194.324,106.931L194.324,106.931l87.393,87.393l137.71-136.828L362.931,1L194.324,106.931z"/>
		<path style="fill:#A3AAAF;" d="M393.828,444.145l-18.538,18.538l0,0l12.359,12.359l0,0l18.538-18.538
			c3.531-3.531,3.531-8.828,0-12.359C403.538,440.614,397.359,440.614,393.828,444.145"/>
		<path style="fill:#A3AAAF;" d="M381.469,407.069l-30.897,30.897l0,0l12.359,12.359l0,0l30.897-30.897
			c3.531-3.531,3.531-8.828,0-12.359C390.297,403.538,385,403.538,381.469,407.069"/>
		<path style="fill:#A3AAAF;" d="M344.393,393.828l-18.538,18.538l0,0l12.359,12.359l0,0l18.538-18.538
			c3.531-3.531,3.531-8.828,0-12.359C353.221,391.179,347.924,391.179,344.393,393.828"/>
		<path style="fill:#A3AAAF;" d="M332.034,356.752l-30.897,30.897l0,0l12.359,12.359l0,0l30.897-30.897
			c3.531-3.531,3.531-8.828,0-12.359C340.862,353.221,335.566,353.221,332.034,356.752"/>
		<path style="fill:#A3AAAF;" d="M294.076,344.393l-18.538,18.538l0,0l12.359,12.359l0,0l18.538-18.538
			c3.531-3.531,3.531-8.828,0-12.359C302.903,340.862,297.607,340.862,294.076,344.393"/>
		<path style="fill:#A3AAAF;" d="M281.717,306.434l-30.897,30.897l0,0l12.359,12.359l0,0l30.897-30.897
			c3.531-3.531,3.531-8.828,0-12.359C290.545,302.903,285.248,303.786,281.717,306.434"/>
		<path style="fill:#A3AAAF;" d="M244.641,294.076l-18.538,18.538l0,0l12.359,12.359l0,0L257,306.435
			c3.531-3.531,3.531-8.828,0-12.359S248.172,290.545,244.641,294.076"/>
		<path style="fill:#A3AAAF;" d="M232.283,257l-30.897,30.897l0,0l11.476,13.241l0,0l30.897-30.897
			c3.531-3.531,3.531-8.828,0-12.359C241.11,253.469,234.931,253.469,232.283,257"/>
	</g>
</g>
<g>
</g>
<g>
</g>
<g>
</g>
<g>
</g>
<g>
</g>
<g>
</g>
<g>
</g>
<g>
</g>
<g>
</g>
<g>
</g>
<g>
</g>
<g>
</g>
<g>
</g>
<g>
</g>
<g>
</g>
</svg>
