<?xml version="1.0" encoding="iso-8859-1"?>
<!-- Generator: Adobe Illustrator 19.0.0, SVG Export Plug-In . SVG Version: 6.00 Build 0)  -->
<svg version="1.1" id="Layer_1" xmlns="http://www.w3.org/2000/svg" xmlns:xlink="http://www.w3.org/1999/xlink" x="0px" y="0px"
	 viewBox="0 0 512 512" style="enable-background:new 0 0 512 512;" xml:space="preserve">
<g transform="translate(0 -1)">
	<path style="fill:#E0E0E0;" d="M167.724,204.034c-63.559,0-114.759,51.2-114.759,114.759H26.483
		c0,77.683,63.559,141.241,141.241,141.241s141.241-63.559,141.241-141.241h-26.483
		C282.483,255.234,231.283,204.034,167.724,204.034"/>
	<path style="fill:#A3AAAF;" d="M203.034,318.793c0-19.421-15.89-35.31-35.31-35.31s-35.31,15.89-35.31,35.31
		c0,19.421,15.89,35.31,35.31,35.31S203.034,338.214,203.034,318.793"/>
	<g>
		<path style="fill:#517F2C;" d="M282.483,318.793c0-63.559-51.2-114.759-114.759-114.759s-114.759,51.2-114.759,114.759H0
			c0-92.69,75.034-167.724,167.724-167.724s167.724,75.034,167.724,167.724H282.483z"/>
		<path style="fill:#517F2C;" d="M312.497,53.966c-7.062,1.766-10.593,2.648-17.655,3.531l-3.531,5.297
			c-10.593,15.89-5.297,37.076,10.593,47.669l136.828,88.276c15.89,10.593,37.076,5.297,47.669-10.593
			c5.297-7.945,2.648-17.655-4.414-22.069L312.497,53.966z"/>
	</g>
	<path style="fill:#75B93F;" d="M482.869,191.676c-10.593,13.241-30.014,15.89-44.138,6.179l-135.945-88.276
		c-16.772-9.71-21.186-30.897-11.476-46.786l-1.766-0.883c-8.828-6.179-20.303-5.297-33.545-2.648
		c-35.31,8.828-65.324,32.662-82.979,65.324l0,0l-14.124,26.483c2.648,0,5.297,0,8.828,0c7.945,0,15.89,0.883,23.834,1.766l0,0
		l22.069-25.6c10.593-13.241,24.717-23.834,39.724-30.014c4.414,16.772,14.124,31.779,30.014,42.372l135.945,88.276
		c11.476,7.062,23.835,11.476,37.959,11.476c6.179,0,11.476-0.883,17.655-2.648c1.766,4.414,2.648,8.828,2.648,13.241v25.6
		c0,43.255-35.31,77.683-77.683,77.683h-95.338c-3.531,12.359-7.945,24.717-14.124,35.31h108.579
		C460.8,389.414,512,338.214,512,276.421v-25.6C512,227.869,501.407,205.8,482.869,191.676"/>
</g>
<g>
</g>
<g>
</g>
<g>
</g>
<g>
</g>
<g>
</g>
<g>
</g>
<g>
</g>
<g>
</g>
<g>
</g>
<g>
</g>
<g>
</g>
<g>
</g>
<g>
</g>
<g>
</g>
<g>
</g>
</svg>
