<?xml version="1.0" encoding="iso-8859-1"?>
<!-- Generator: Adobe Illustrator 19.0.0, SVG Export Plug-In . SVG Version: 6.00 Build 0)  -->
<svg version="1.1" id="Layer_1" xmlns="http://www.w3.org/2000/svg" xmlns:xlink="http://www.w3.org/1999/xlink" x="0px" y="0px"
	 viewBox="0 0 498.761 498.761" style="enable-background:new 0 0 498.761 498.761;" xml:space="preserve">
<g>
	<path style="fill:#75B93F;" d="M297.432,335.489L162.924,200.981L339.954,23.95c31.241-31.241,81.573-31.241,112.814,0
		l22.563,22.563c31.241,31.241,31.241,80.705,0,111.946L297.432,335.489z"/>
	<path style="fill:#75B93F;" d="M236.687,397.103L101.31,261.727l25.166-24.298l134.508,134.508L236.687,397.103z"/>
</g>
<path style="fill:#517F2C;" d="M260.985,371.937c-0.868-9.546-0.868-23.431,6.075-30.373c6.942-6.942,20.827-6.942,30.373-6.075
	L162.924,200.981c0.868,9.546,0.868,23.431-6.075,30.373c-6.942,6.942-20.827,6.942-30.373,6.075L260.985,371.937z"/>
<path style="fill:#C3C7CB;" d="M3.249,495.164L3.249,495.164c-3.471-3.471-4.339-9.546-1.736-13.885l2.603-3.471
	c7.81-13.017,17.356-25.166,27.769-35.58l8.678-8.678l24.298,24.298l-6.942,6.942c-12.149,12.149-25.166,22.563-39.051,30.373
	l-1.736,0.868C12.795,499.503,6.721,498.635,3.249,495.164"/>
<path style="fill:#E0E0E0;" d="M64.863,457.849L40.565,433.55l116.285-116.285l24.298,24.298L64.863,457.849z"/>
<g>
	<path style="fill:#517F2C;" d="M254.91,252.181c-2.603,0-4.339-0.868-6.075-2.603c-3.471-3.471-3.471-8.678,0-12.149
		L431.073,55.191c3.471-3.471,8.678-3.471,12.149,0c3.471,3.471,3.471,8.678,0,12.149L260.985,249.577
		C259.249,251.313,257.514,252.181,254.91,252.181"/>
	<path style="fill:#517F2C;" d="M228.876,217.469c-2.603,0-4.339-0.868-6.075-2.603c-3.471-3.471-3.471-8.678,0-12.149
		L387.683,37.835c3.471-3.471,8.678-3.471,12.149,0c3.471,3.471,3.471,8.678,0,12.149L234.951,214.866
		C233.215,216.601,231.48,217.469,228.876,217.469"/>
	<path style="fill:#517F2C;" d="M289.622,278.215c-2.603,0-4.339-0.868-6.075-2.603c-3.471-3.471-3.471-8.678,0-12.149
		L448.429,98.581c3.471-3.471,8.678-3.471,12.149,0c3.471,3.471,3.471,8.678,0,12.149L295.697,275.611
		C293.961,277.347,292.226,278.215,289.622,278.215"/>
</g>
<g>
</g>
<g>
</g>
<g>
</g>
<g>
</g>
<g>
</g>
<g>
</g>
<g>
</g>
<g>
</g>
<g>
</g>
<g>
</g>
<g>
</g>
<g>
</g>
<g>
</g>
<g>
</g>
<g>
</g>
</svg>
