<?xml version="1.0" encoding="iso-8859-1"?>
<!-- Generator: Adobe Illustrator 19.0.0, SVG Export Plug-In . SVG Version: 6.00 Build 0)  -->
<svg version="1.1" id="Layer_1" xmlns="http://www.w3.org/2000/svg" xmlns:xlink="http://www.w3.org/1999/xlink" x="0px" y="0px"
	 viewBox="0 0 512 512" style="enable-background:new 0 0 512 512;" xml:space="preserve">
<g>
	<path style="fill:#A3AAAF;" d="M353.103,450.207V344.276v-26.483H158.897v26.483v105.931L255.117,512H256L353.103,450.207z"/>
	<path style="fill:#A3AAAF;" d="M229.517,317.793h52.966v-44.138h-52.966V317.793z"/>
</g>
<path style="fill:#E0E0E0;" d="M158.897,317.793v88.276l96.221,61.793H256l97.103-61.793v-88.276H158.897z"/>
<path style="fill:#A3AAAF;" d="M263.945,379.586h-15.89c-15.007,0-27.366-12.359-27.366-27.366v-7.945
	c0-5.297,3.531-8.828,8.828-8.828s8.828,3.531,8.828,8.828v7.945c0,5.297,4.414,9.71,9.71,9.71h15.89c5.297,0,9.71-4.414,9.71-9.71
	v-7.945c0-5.297,3.531-8.828,8.828-8.828c5.297,0,8.828,3.531,8.828,8.828v7.945C291.31,367.228,278.952,379.586,263.945,379.586"/>
<path style="fill:#E0E0E0;" d="M264.828,105.931h-17.655c-2.648,0-6.179,0-8.828-0.883v168.607h35.31V105.048
	C271.007,105.931,267.476,105.931,264.828,105.931"/>
<path style="fill:#A3AAAF;" d="M264.828,114.759h-17.655c-34.428,0-61.793-27.366-61.793-61.793V8.828h35.31
	c5.297,0,8.828,3.531,8.828,8.828s-3.531,8.828-8.828,8.828h-17.655v26.483c0,24.717,19.421,44.138,44.138,44.138h17.655
	c24.717,0,44.138-19.421,44.138-44.138V26.483H291.31c-5.297,0-8.828-3.531-8.828-8.828s3.531-8.828,8.828-8.828h35.31v44.138
	C326.621,87.393,299.255,114.759,264.828,114.759"/>
<path style="fill:#C17C3E;" d="M220.69,35.31h70.621V0H220.69V35.31z"/>
<g>
</g>
<g>
</g>
<g>
</g>
<g>
</g>
<g>
</g>
<g>
</g>
<g>
</g>
<g>
</g>
<g>
</g>
<g>
</g>
<g>
</g>
<g>
</g>
<g>
</g>
<g>
</g>
<g>
</g>
</svg>
