<?xml version="1.0" encoding="iso-8859-1"?>
<!-- Generator: Adobe Illustrator 19.0.0, SVG Export Plug-In . SVG Version: 6.00 Build 0)  -->
<svg version="1.1" id="Layer_1" xmlns="http://www.w3.org/2000/svg" xmlns:xlink="http://www.w3.org/1999/xlink" x="0px" y="0px"
	 viewBox="0 0 512 512" style="enable-background:new 0 0 512 512;" xml:space="preserve">
<path style="fill:#E8EDEE;" d="M397.241,512H114.759c-24.717,0-44.138-19.421-44.138-44.138V44.138
	C70.621,19.421,90.041,0,114.759,0h282.483c24.717,0,44.138,19.421,44.138,44.138v423.724C441.379,492.579,421.959,512,397.241,512"
	/>
<path style="fill:#CBD4D8;" d="M105.931,454.621V57.379c0-12.359,9.71-22.069,22.069-22.069h256c12.359,0,22.069,9.71,22.069,22.069
	v397.241c0,12.359-9.71,22.069-22.069,22.069H128C115.641,476.69,105.931,466.979,105.931,454.621"/>
<g>
	<path style="fill:#E8EDEE;" d="M176.552,229.517h158.897V70.621H176.552V229.517z"/>
	<path style="fill:#E8EDEE;" d="M176.552,441.379h158.897V282.483H176.552V441.379z"/>
</g>
<g>
	<path style="fill:#38454F;" d="M220.69,141.241c-5.297,0-8.828-3.531-8.828-8.828v-26.483c0-5.297,3.531-8.828,8.828-8.828
		s8.828,3.531,8.828,8.828v26.483C229.517,137.71,225.986,141.241,220.69,141.241"/>
	<path style="fill:#38454F;" d="M291.31,141.241c-5.297,0-8.828-3.531-8.828-8.828v-26.483c0-5.297,3.531-8.828,8.828-8.828
		c5.297,0,8.828,3.531,8.828,8.828v26.483C300.138,137.71,296.607,141.241,291.31,141.241"/>
	<path style="fill:#38454F;" d="M256,203.034c-5.297,0-8.828-3.531-8.828-8.828v-17.655c0-5.297,3.531-8.828,8.828-8.828
		c5.297,0,8.828,3.531,8.828,8.828v17.655C264.828,199.503,261.297,203.034,256,203.034"/>
	<path style="fill:#38454F;" d="M220.69,353.103c-5.297,0-8.828-3.531-8.828-8.828v-26.483c0-5.297,3.531-8.828,8.828-8.828
		s8.828,3.531,8.828,8.828v26.483C229.517,349.572,225.986,353.103,220.69,353.103"/>
	<path style="fill:#38454F;" d="M291.31,353.103c-5.297,0-8.828-3.531-8.828-8.828v-26.483c0-5.297,3.531-8.828,8.828-8.828
		c5.297,0,8.828,3.531,8.828,8.828v26.483C300.138,349.572,296.607,353.103,291.31,353.103"/>
	<path style="fill:#38454F;" d="M256,414.897c-5.297,0-8.828-3.531-8.828-8.828v-17.655c0-5.297,3.531-8.828,8.828-8.828
		c5.297,0,8.828,3.531,8.828,8.828v17.655C264.828,411.366,261.297,414.897,256,414.897"/>
</g>
<g>
</g>
<g>
</g>
<g>
</g>
<g>
</g>
<g>
</g>
<g>
</g>
<g>
</g>
<g>
</g>
<g>
</g>
<g>
</g>
<g>
</g>
<g>
</g>
<g>
</g>
<g>
</g>
<g>
</g>
</svg>
