<?xml version="1.0" encoding="iso-8859-1"?>
<!-- Generator: Adobe Illustrator 19.0.0, SVG Export Plug-In . SVG Version: 6.00 Build 0)  -->
<svg version="1.1" id="Layer_1" xmlns="http://www.w3.org/2000/svg" xmlns:xlink="http://www.w3.org/1999/xlink" x="0px" y="0px"
	 viewBox="0 0 511.747 511.747" style="enable-background:new 0 0 511.747 511.747;" xml:space="preserve">
<g>
	<path style="fill:#A3AAAF;" d="M410.229,370.505H286.643c-5.297,0-8.828-3.531-8.828-8.828c0-5.297,3.531-8.828,8.828-8.828
		h123.586c5.297,0,8.828,3.531,8.828,8.828C419.057,366.974,415.526,370.505,410.229,370.505"/>
	<path style="fill:#A3AAAF;" d="M180.712,511.747L180.712,511.747c-9.71,0-17.655-7.945-17.655-18.538v-96.221h44.138l-7.945,97.986
		C198.367,504.685,190.423,511.747,180.712,511.747"/>
	<path style="fill:#A3AAAF;" d="M242.505,458.781c-5.297,0-8.828-3.531-8.828-8.828v-52.966c0-5.297,3.531-8.828,8.828-8.828
		s8.828,3.531,8.828,8.828v52.966C251.333,455.25,247.802,458.781,242.505,458.781"/>
</g>
<g>
	<path style="fill:#E0E0E0;" d="M253.981,396.988h-90.924v-52.966h24.717c18.538,0,37.959-3.531,54.731-9.71
		c21.186-7.945,44.138,7.945,44.138,30.897C286.643,382.864,272.519,396.988,253.981,396.988"/>
	<path style="fill:#E0E0E0;" d="M243.388,271.636l-85.628,22.952L94.202,56.243c-6.179-24.717,7.062-48.552,30.897-54.731
		s47.669,7.062,53.848,30.897L243.388,271.636z"/>
</g>
<g>
	<path style="fill:#A3AAAF;" d="M236.326,336.078l-18.538-58.262l-34.428,8.828l18.538,55.614
		C213.374,342.257,224.85,339.609,236.326,336.078"/>
	<path style="fill:#A3AAAF;" d="M173.65,216.905c-0.883-5.297-6.179-7.945-10.593-6.179l-25.6,7.062l4.414,16.772l0,0l25.6-7.062
		C171.885,226.616,175.416,221.319,173.65,216.905"/>
	<path style="fill:#A3AAAF;" d="M191.305,248.685c-0.883-4.414-6.179-7.945-10.593-6.179l-34.428,8.828l4.414,16.772l34.428-8.828
		C189.54,258.395,193.071,253.098,191.305,248.685"/>
</g>
<g>
</g>
<g>
</g>
<g>
</g>
<g>
</g>
<g>
</g>
<g>
</g>
<g>
</g>
<g>
</g>
<g>
</g>
<g>
</g>
<g>
</g>
<g>
</g>
<g>
</g>
<g>
</g>
<g>
</g>
</svg>
