<?xml version="1.0" encoding="iso-8859-1"?>
<!-- Generator: Adobe Illustrator 19.0.0, SVG Export Plug-In . SVG Version: 6.00 Build 0)  -->
<svg version="1.1" id="Layer_1" xmlns="http://www.w3.org/2000/svg" xmlns:xlink="http://www.w3.org/1999/xlink" x="0px" y="0px"
	 viewBox="0 0 512 512" style="enable-background:new 0 0 512 512;" xml:space="preserve">
<path style="fill:#C17C3E;" d="M264.828,512c19.421,0,35.31-15.89,35.31-35.31V361.931c0-5.297-0.883-11.476-3.531-16.772
	c-8.828-28.248-7.062-52.966,2.648-71.503l0,0l7.062-18.538c5.297-12.359-4.414-25.6-17.655-25.6H220.69
	c-13.241,0-22.952,13.241-17.655,26.483l7.062,17.655l0,0c10.593,18.538,11.476,41.49,2.648,71.503l0,0
	c0,5.297-0.883,10.593-0.883,16.772V476.69c0,19.421,15.89,35.31,35.31,35.31H264.828z"/>
<path style="fill:#E0E0E0;" d="M256,0c-59.145,0-108.579,28.248-140.359,72.386c-3.531,4.414,0.883,10.593,6.179,8.828
	c6.179-0.883,12.359-1.766,19.421-1.766c44.138,0,79.448,35.31,79.448,97.103v52.966h70.621v-52.966
	c0-61.793,35.31-97.103,79.448-97.103c7.062,0,13.241,0.883,19.421,1.766c5.297,1.766,9.71-4.414,6.179-8.828
	C364.579,28.248,315.145,0,256,0"/>
<g>
	<path style="fill:#9E5A23;" d="M238.345,406.069h-26.483v17.655h26.483c5.297,0,8.828-3.531,8.828-8.828
		S243.641,406.069,238.345,406.069"/>
	<path style="fill:#9E5A23;" d="M238.345,441.379h-26.483v17.655h26.483c5.297,0,8.828-3.531,8.828-8.828
		C247.172,444.91,243.641,441.379,238.345,441.379"/>
</g>
<g>
</g>
<g>
</g>
<g>
</g>
<g>
</g>
<g>
</g>
<g>
</g>
<g>
</g>
<g>
</g>
<g>
</g>
<g>
</g>
<g>
</g>
<g>
</g>
<g>
</g>
<g>
</g>
<g>
</g>
</svg>
