<?xml version="1.0" encoding="iso-8859-1"?>
<!-- Generator: Adobe Illustrator 19.0.0, SVG Export Plug-In . SVG Version: 6.00 Build 0)  -->
<svg version="1.1" id="Layer_1" xmlns="http://www.w3.org/2000/svg" xmlns:xlink="http://www.w3.org/1999/xlink" x="0px" y="0px"
	 viewBox="0 0 512 512" style="enable-background:new 0 0 512 512;" xml:space="preserve">
<path style="fill:#556080;" d="M91.429,365.714h329.143V73.143H91.429V365.714z"/>
<path style="fill:#A52525;" d="M411.429,292.571h54.857v-73.143h-54.857V292.571z"/>
<path style="fill:#394563;" d="M91.429,365.714h329.143v-36.571H91.429V365.714z"/>
<path style="fill:#594266;" d="M374.857,219.429h45.714v-36.571h-45.714c-10.057,0-18.286,8.229-18.286,18.286
	S364.8,219.429,374.857,219.429"/>
<g>
	<path style="fill:#8B669D;" d="M384,73.143h36.571v109.714H384c-30.171,0-54.857-79.543-54.857-109.714H384z"/>
	<path style="fill:#8B669D;" d="M420.571,329.143V219.429h-27.429c-21.943,9.143-36.571,49.371-36.571,109.714H420.571z"/>
</g>
<path style="fill:#594266;" d="M137.143,219.429H91.429v-36.571h45.714c10.057,0,18.286,8.229,18.286,18.286
	S147.2,219.429,137.143,219.429"/>
<g>
	<path style="fill:#8B669D;" d="M128,73.143H91.429v109.714H128c30.171,0,54.857-79.543,54.857-109.714H128z"/>
	<path style="fill:#8B669D;" d="M91.429,329.143V219.429h27.429c21.943,9.143,36.571,49.371,36.571,109.714H91.429z"/>
</g>
<path style="fill:#E15649;" d="M0,512h128v-73.143H0V512z"/>
<g>
	<path style="fill:#BC342E;" d="M128,512h128v-73.143H128V512z"/>
	<path style="fill:#BC342E;" d="M256,512h128v-73.143H256V512z"/>
</g>
<path style="fill:#E15649;" d="M384,512h128v-73.143H384V512z"/>
<g>
	<path style="fill:#BC342E;" d="M0,438.857h64v-73.143H0V438.857z"/>
	<path style="fill:#BC342E;" d="M448,438.857h64v-73.143h-64V438.857z"/>
</g>
<path style="fill:#A52525;" d="M64,438.857h128v-73.143H64V438.857z"/>
<path style="fill:#E15649;" d="M192,438.857h128v-73.143H192V438.857z"/>
<path style="fill:#A52525;" d="M320,438.857h128v-73.143H320V438.857z"/>
<g>
	<path style="fill:#E15649;" d="M0,365.714h91.429v-73.143H0V365.714z"/>
	<path style="fill:#E15649;" d="M420.571,365.714H512v-73.143h-91.429V365.714z"/>
</g>
<g>
	<path style="fill:#BC342E;" d="M0,292.571h54.857v-73.143H0V292.571z"/>
	<path style="fill:#BC342E;" d="M457.143,292.571H512v-73.143h-54.857V292.571z"/>
</g>
<path style="fill:#A52525;" d="M54.857,292.571h36.571v-73.143H54.857V292.571z"/>
<g>
	<path style="fill:#E15649;" d="M0,219.429h91.429v-73.143H0V219.429z"/>
	<path style="fill:#E15649;" d="M420.571,219.429H512v-73.143h-91.429V219.429z"/>
</g>
<g>
	<path style="fill:#BC342E;" d="M0,146.286h54.857V73.143H0V146.286z"/>
	<path style="fill:#BC342E;" d="M457.143,146.286H512V73.143h-54.857V146.286z"/>
</g>
<g>
	<path style="fill:#A52525;" d="M54.857,146.286h36.571V73.143H54.857V146.286z"/>
	<path style="fill:#A52525;" d="M420.571,146.286h36.571V73.143h-36.571V146.286z"/>
</g>
<path style="fill:#E15649;" d="M0,73.143h128V0H0V73.143z"/>
<path style="fill:#BC342E;" d="M128,73.143h128V0H128V73.143z"/>
<path style="fill:#A52525;" d="M256,73.143h128V0H256V73.143z"/>
<path style="fill:#E15649;" d="M384,73.143h128V0H384V73.143z"/>
<path style="fill:#6C4126;" d="M100.571,356.571h310.857V82.286H100.571V356.571z M420.571,374.857H91.429
	c-5.486,0-9.143-3.657-9.143-9.143V73.143c0-5.486,3.657-9.143,9.143-9.143h329.143c5.486,0,9.143,3.657,9.143,9.143v292.571
	C429.714,371.2,426.057,374.857,420.571,374.857L420.571,374.857z"/>
<g>
</g>
<g>
</g>
<g>
</g>
<g>
</g>
<g>
</g>
<g>
</g>
<g>
</g>
<g>
</g>
<g>
</g>
<g>
</g>
<g>
</g>
<g>
</g>
<g>
</g>
<g>
</g>
<g>
</g>
</svg>
