<?xml version="1.0" encoding="iso-8859-1"?>
<!-- Generator: Adobe Illustrator 19.0.0, SVG Export Plug-In . SVG Version: 6.00 Build 0)  -->
<svg version="1.1" id="Layer_1" xmlns="http://www.w3.org/2000/svg" xmlns:xlink="http://www.w3.org/1999/xlink" x="0px" y="0px"
	 viewBox="0 0 512.883 512.883" style="enable-background:new 0 0 512.883 512.883;" xml:space="preserve">
<path style="fill:#C3C7CB;" d="M256.441,201.269c-22.952,0-44.138-7.062-61.793-19.421c11.476,26.483,17.655,54.731,17.655,83.862
	v203.034c0,24.717,19.421,44.138,44.138,44.138c24.717,0,44.138-19.421,44.138-44.138V264.828c0-29.131,6.179-57.379,17.655-83.862
	C300.579,193.324,279.393,201.269,256.441,201.269"/>
<g>
	<path style="fill:#E0E0E0;" d="M309.407,0v82.097c0,3.531-2.648,7.945-6.179,8.828c-30.014,8.828-62.676,8.828-93.572,0
		c-3.531-1.766-6.179-5.297-6.179-8.828V0c-31.779,18.538-52.966,55.614-52.966,95.338c0,58.262,47.669,105.931,105.931,105.931
		S362.372,153.6,362.372,95.338C362.372,55.614,341.186,18.538,309.407,0"/>
	<path style="fill:#E0E0E0;" d="M247.614,414.897h-35.31v17.655h35.31c5.297,0,8.828-3.531,8.828-8.828
		C256.441,418.428,252.91,414.897,247.614,414.897"/>
	<path style="fill:#E0E0E0;" d="M256.441,459.034c0-5.297-3.531-8.828-8.828-8.828h-35.31v17.655h35.31
		C252.91,467.862,256.441,464.331,256.441,459.034"/>
</g>
<g>
</g>
<g>
</g>
<g>
</g>
<g>
</g>
<g>
</g>
<g>
</g>
<g>
</g>
<g>
</g>
<g>
</g>
<g>
</g>
<g>
</g>
<g>
</g>
<g>
</g>
<g>
</g>
<g>
</g>
</svg>
