<?xml version="1.0" encoding="iso-8859-1"?>
<!-- Generator: Adobe Illustrator 19.0.0, SVG Export Plug-In . SVG Version: 6.00 Build 0)  -->
<svg version="1.1" id="Layer_1" xmlns="http://www.w3.org/2000/svg" xmlns:xlink="http://www.w3.org/1999/xlink" x="0px" y="0px"
	 viewBox="0 0 511.117 511.117" style="enable-background:new 0 0 511.117 511.117;" xml:space="preserve">
<g>
	<path style="fill:#E0E0E0;" d="M308.587,458.152c0-29.131-23.834-52.966-52.966-52.966s-52.966,23.834-52.966,52.966
		c0,29.131,23.834,52.966,52.966,52.966S308.587,487.283,308.587,458.152"/>
	<path style="fill:#E0E0E0;" d="M294.463,13.241l-14.124,52.966l-5.297,1.766c-15.007,5.297-31.779,0.883-42.372-11.476
		l-3.531-4.414L243.263,0c-31.779,7.062-54.731,37.076-48.552,71.503c4.414,24.717,23.834,45.021,48.552,50.317
		c39.724,7.062,74.152-22.952,74.152-60.91C317.415,41.49,308.587,23.834,294.463,13.241"/>
</g>
<g>
	<path style="fill:#C3C7CB;" d="M273.277,484.634c-2.648,0-4.414-0.883-6.179-2.648l-35.31-35.31c-3.531-3.531-3.531-8.828,0-12.359
		s8.828-3.531,12.359,0l35.31,35.31c3.531,3.531,3.531,8.828,0,12.359C277.691,483.752,275.925,484.634,273.277,484.634"/>
	<path style="fill:#C3C7CB;" d="M237.966,484.634c-2.648,0-4.414-0.883-6.179-2.648c-3.531-3.531-3.531-8.828,0-12.359l35.31-35.31
		c3.531-3.531,8.828-3.531,12.359,0c3.531,3.531,3.531,8.828,0,12.359l-35.31,35.31C242.38,483.752,240.615,484.634,237.966,484.634
		"/>
	<path style="fill:#C3C7CB;" d="M229.139,281.6c0,41.49-4.414,104.165-15.89,145.655c8.828-13.241,24.717-22.069,42.372-22.069
		s33.545,8.828,42.372,22.069c-11.476-41.49-15.89-104.165-15.89-145.655v-52.966c0-42.372,4.414-82.979,17.655-123.586h-0.883
		c-14.124,13.241-33.545,20.303-55.614,16.772c-11.476-2.648-22.069-7.945-30.897-16.772h-0.883
		c13.241,40.607,17.655,81.214,17.655,123.586V281.6z"/>
</g>
<g>
	<path style="fill:#E0E0E0;" d="M246.794,316.91h-18.538c0,5.297-0.883,11.476-0.883,17.655c0,0,0,0,0.883,0h18.538
		c5.297,0,8.828-3.531,8.828-8.828C255.622,320.441,252.091,316.91,246.794,316.91"/>
	<path style="fill:#E0E0E0;" d="M246.794,352.221h-21.186c-0.883,6.179-0.883,11.476-1.766,17.655h0.883h22.069
		c5.297,0,8.828-3.531,8.828-8.828S252.091,352.221,246.794,352.221"/>
</g>
<g>
</g>
<g>
</g>
<g>
</g>
<g>
</g>
<g>
</g>
<g>
</g>
<g>
</g>
<g>
</g>
<g>
</g>
<g>
</g>
<g>
</g>
<g>
</g>
<g>
</g>
<g>
</g>
<g>
</g>
</svg>
