<?xml version="1.0" encoding="iso-8859-1"?>
<!-- Generator: Adobe Illustrator 19.0.0, SVG Export Plug-In . SVG Version: 6.00 Build 0)  -->
<svg version="1.1" id="Layer_1" xmlns="http://www.w3.org/2000/svg" xmlns:xlink="http://www.w3.org/1999/xlink" x="0px" y="0px"
	 viewBox="0 0 503.322 503.322" style="enable-background:new 0 0 503.322 503.322;" xml:space="preserve">
<path style="fill:#546080;" d="M295.051,34.712V17.356C295.051,7.81,287.241,0,277.695,0h-52.068
	c-9.546,0-17.356,7.81-17.356,17.356v17.356h-34.712c-5.207,0-8.678,3.471-8.678,8.678v60.746c0,5.207,3.471,8.678,8.678,8.678
	h156.203c5.207,0,8.678-3.471,8.678-8.678V43.39c0-5.207-3.471-8.678-8.678-8.678H295.051z"/>
<path style="fill:#EFEADD;" d="M338.441,60.746v43.39c0,5.207-3.471,8.678-8.678,8.678H173.559c-5.207,0-8.678-4.339-8.678-8.678
	v-43.39h-52.068c-19.092,0-34.712,15.62-34.712,34.712V468.61c0,19.092,15.62,34.712,34.712,34.712h277.695
	c19.092,0,34.712-15.62,34.712-34.712V95.458c0-19.092-15.62-34.712-34.712-34.712H338.441z"/>
<path style="fill:#8697CB;" d="M251.661,381.831c-43.39,0-78.102-33.844-78.102-77.234v-44.258c0-5.207,3.471-8.678,8.678-8.678
	s8.678,3.471,8.678,8.678v44.258c0,33.844,26.902,59.878,60.746,59.878s60.746-26.902,60.746-61.614v-42.522
	c0-5.207,3.471-8.678,8.678-8.678s8.678,3.471,8.678,8.678v43.39C329.763,347.119,295.051,381.831,251.661,381.831"/>
<path style="fill:#57B1E3;" d="M251.661,338.441L251.661,338.441c-19.959,0-34.712-14.753-34.712-33.844v-86.78
	c0-19.959,14.753-35.58,34.712-35.58s34.712,15.62,34.712,35.58v85.912C286.373,322.82,271.62,338.441,251.661,338.441"/>
<g>
	<path style="fill:#8697CB;" d="M251.661,425.22c-5.207,0-8.678-3.471-8.678-8.678v-43.39c0-5.207,3.471-8.678,8.678-8.678
		c5.207,0,8.678,3.471,8.678,8.678v43.39C260.339,421.749,256.868,425.22,251.661,425.22"/>
	<path style="fill:#8697CB;" d="M277.695,425.22h-52.068c-5.207,0-8.678-3.471-8.678-8.678c0-5.207,3.471-8.678,8.678-8.678h52.068
		c5.207,0,8.678,3.471,8.678,8.678C286.373,421.749,282.902,425.22,277.695,425.22"/>
</g>
<g>
</g>
<g>
</g>
<g>
</g>
<g>
</g>
<g>
</g>
<g>
</g>
<g>
</g>
<g>
</g>
<g>
</g>
<g>
</g>
<g>
</g>
<g>
</g>
<g>
</g>
<g>
</g>
<g>
</g>
</svg>
