<?xml version="1.0" encoding="iso-8859-1"?>
<!-- Generator: Adobe Illustrator 19.0.0, SVG Export Plug-In . SVG Version: 6.00 Build 0)  -->
<svg version="1.1" id="Layer_1" xmlns="http://www.w3.org/2000/svg" xmlns:xlink="http://www.w3.org/1999/xlink" x="0px" y="0px"
	 viewBox="0 0 503.322 503.322" style="enable-background:new 0 0 503.322 503.322;" xml:space="preserve">
<path style="fill:#D4D0BA;" d="M190.915,52.068h-43.39c-5.207,0-8.678-3.471-8.678-8.678V0L190.915,52.068z"/>
<path style="fill:#EFEADD;" d="M190.915,52.068h-43.39c-5.207,0-8.678-3.471-8.678-8.678V0H17.356c-5.207,0-8.678,4.339-8.678,8.678
	v234.305c0,5.207,3.471,8.678,8.678,8.678h164.881c5.207,0,8.678-3.471,8.678-8.678V52.068z"/>
<path style="fill:#D4D0BA;" d="M494.644,303.729h-43.39c-5.207,0-8.678-3.471-8.678-8.678v-43.39L494.644,303.729z"/>
<path style="fill:#EFEADD;" d="M494.644,303.729h-43.39c-5.207,0-8.678-3.471-8.678-8.678v-43.39H321.085
	c-5.207,0-8.678,3.471-8.678,8.678v234.305c0,5.207,3.471,8.678,8.678,8.678h164.881c5.207,0,8.678-3.471,8.678-8.678V303.729z"/>
<path style="fill:#F38774;" d="M269.017,451.254H52.068c-5.207,0-8.678-3.471-8.678-8.678V295.051c0-5.207,3.471-8.678,8.678-8.678
	s8.678,3.471,8.678,8.678v138.847h208.271c5.207,0,8.678,3.471,8.678,8.678C277.695,447.783,274.224,451.254,269.017,451.254"/>
<path style="fill:#26B999;" d="M407.864,216.949c-5.207,0-8.678-3.471-8.678-8.678V95.458H234.305c-5.207,0-8.678-3.471-8.678-8.678
	c0-5.207,3.471-8.678,8.678-8.678h173.559c5.207,0,8.678,3.471,8.678,8.678v121.492
	C416.542,213.478,413.071,216.949,407.864,216.949"/>
<g>
</g>
<g>
</g>
<g>
</g>
<g>
</g>
<g>
</g>
<g>
</g>
<g>
</g>
<g>
</g>
<g>
</g>
<g>
</g>
<g>
</g>
<g>
</g>
<g>
</g>
<g>
</g>
<g>
</g>
</svg>
