<?xml version="1.0" encoding="iso-8859-1"?>
<!-- Generator: Adobe Illustrator 19.0.0, SVG Export Plug-In . SVG Version: 6.00 Build 0)  -->
<svg version="1.1" id="Layer_1" xmlns="http://www.w3.org/2000/svg" xmlns:xlink="http://www.w3.org/1999/xlink" x="0px" y="0px"
	 viewBox="0 0 503.322 503.322" style="enable-background:new 0 0 503.322 503.322;" xml:space="preserve">
<path style="fill:#D4D0BA;" d="M433.898,104.136h-86.78c-9.546,0-17.356-7.81-17.356-17.356V0L433.898,104.136z"/>
<path style="fill:#EFEADD;" d="M433.898,104.136h-86.78c-9.546,0-17.356-7.81-17.356-17.356V0H86.78
	c-9.546,0-17.356,7.81-17.356,17.356v468.61c0,9.546,7.81,17.356,17.356,17.356h329.763c9.546,0,17.356-7.81,17.356-17.356V104.136z
	"/>
<path style="fill:#71C385;" d="M144.922,208.271l11.281-32.976l11.281,32.976H144.922z M198.725,249.058l-34.712-104.136
	c-0.868-3.471-4.339-6.075-7.81-6.075c-3.471,0-6.942,2.603-7.81,6.075l-34.712,104.136c-1.736,4.339,0.868,9.546,5.207,11.281
	s9.546-0.868,11.281-5.207l9.546-29.505h33.844l9.546,28.637c0.868,3.471,4.339,6.075,7.81,6.075c0.868,0,1.736,0,2.603-0.868
	C197.858,258.603,200.461,253.397,198.725,249.058L198.725,249.058z"/>
<g>
	<path style="fill:#D4D0BA;" d="M381.831,156.203H225.627c-5.207,0-8.678-3.471-8.678-8.678s3.471-8.678,8.678-8.678h156.203
		c5.207,0,8.678,3.471,8.678,8.678S387.037,156.203,381.831,156.203"/>
	<path style="fill:#D4D0BA;" d="M381.831,208.271H225.627c-5.207,0-8.678-3.471-8.678-8.678c0-5.207,3.471-8.678,8.678-8.678
		h156.203c5.207,0,8.678,3.471,8.678,8.678C390.508,204.8,387.037,208.271,381.831,208.271"/>
	<path style="fill:#D4D0BA;" d="M381.831,260.339H225.627c-5.207,0-8.678-3.471-8.678-8.678c0-5.207,3.471-8.678,8.678-8.678
		h156.203c5.207,0,8.678,3.471,8.678,8.678C390.508,256.868,387.037,260.339,381.831,260.339"/>
	<path style="fill:#D4D0BA;" d="M381.831,312.407H121.492c-5.207,0-8.678-3.471-8.678-8.678c0-5.207,3.471-8.678,8.678-8.678
		h260.339c5.207,0,8.678,3.471,8.678,8.678C390.508,308.936,387.037,312.407,381.831,312.407"/>
	<path style="fill:#D4D0BA;" d="M381.831,364.475H121.492c-5.207,0-8.678-3.471-8.678-8.678c0-5.207,3.471-8.678,8.678-8.678
		h260.339c5.207,0,8.678,3.471,8.678,8.678C390.508,361.003,387.037,364.475,381.831,364.475"/>
	<path style="fill:#D4D0BA;" d="M381.831,416.542H121.492c-5.207,0-8.678-3.471-8.678-8.678s3.471-8.678,8.678-8.678h260.339
		c5.207,0,8.678,3.471,8.678,8.678S387.037,416.542,381.831,416.542"/>
</g>
<g>
</g>
<g>
</g>
<g>
</g>
<g>
</g>
<g>
</g>
<g>
</g>
<g>
</g>
<g>
</g>
<g>
</g>
<g>
</g>
<g>
</g>
<g>
</g>
<g>
</g>
<g>
</g>
<g>
</g>
</svg>
