<svg id="Capa_1" enable-background="new 0 0 512 512" height="512" viewBox="0 0 512 512" width="512" xmlns="http://www.w3.org/2000/svg"><g><path d="m97.723 395.54h-84.847c-7.111 0-12.876-5.765-12.876-12.876v-14.73c0-7.111 5.765-12.876 12.876-12.876h84.847c7.111 0 12.876 5.765 12.876 12.876v14.73c0 7.111-5.765 12.876-12.876 12.876z" fill="#eab14d"/><path d="m97.723 355.058h-38.841v40.482h38.841c7.111 0 12.876-5.765 12.876-12.876v-14.73c0-7.111-5.765-12.876-12.876-12.876z" fill="#e49542"/><path d="m114.193 314.576h-84.847c-7.111 0-12.876-5.765-12.876-12.876v-14.73c0-7.111 5.765-12.876 12.876-12.876h84.847c7.111 0 12.876 5.765 12.876 12.876v14.73c0 7.112-5.765 12.876-12.876 12.876z" fill="#eab14d"/><path d="m114.193 274.095h-55.311v40.482h55.311c7.111 0 12.876-5.765 12.876-12.876v-14.73c0-7.112-5.765-12.876-12.876-12.876z" fill="#e49542"/><path d="m97.723 355.058h-84.847c-7.111 0-12.876-5.765-12.876-12.876v-14.73c0-7.111 5.765-12.876 12.876-12.876h84.847c7.111 0 12.876 5.765 12.876 12.876v14.73c0 7.111-5.765 12.876-12.876 12.876z" fill="#f6e266"/><path d="m97.723 314.576h-38.841v40.482h38.841c7.111 0 12.876-5.765 12.876-12.876v-14.73c0-7.111-5.765-12.876-12.876-12.876z" fill="#ecbe6b"/><path d="m482.654 395.54h-99.27c-7.111 0-12.876-5.765-12.876-12.876v-14.73c0-7.111 5.765-12.876 12.876-12.876h99.27c7.111 0 12.876 5.765 12.876 12.876v14.73c0 7.111-5.765 12.876-12.876 12.876z" fill="#eab14d"/><path d="m482.654 355.058h-20.584c7.111 0 12.876 5.765 12.876 12.876v14.73c0 7.111-5.765 12.876-12.876 12.876h20.583c7.111 0 12.876-5.765 12.876-12.876v-14.73c.001-7.111-5.764-12.876-12.875-12.876z" fill="#e49542"/><path d="m499.124 314.576h-99.27c-7.111 0-12.876-5.765-12.876-12.876v-14.73c0-7.111 5.765-12.876 12.876-12.876h99.27c7.111 0 12.876 5.765 12.876 12.876v14.73c0 7.112-5.765 12.876-12.876 12.876z" fill="#eab14d"/><path d="m499.124 274.095h-20.583c7.111 0 12.876 5.765 12.876 12.876v14.73c0 7.111-5.765 12.876-12.876 12.876h20.583c7.111 0 12.876-5.765 12.876-12.876v-14.73c0-7.112-5.765-12.876-12.876-12.876z" fill="#e49542"/><path d="m468.242 233.613h-99.27c-7.111 0-12.876-5.765-12.876-12.876v-14.73c0-7.111 5.765-12.876 12.876-12.876h99.27c7.111 0 12.876 5.765 12.876 12.876v14.73c0 7.111-5.765 12.876-12.876 12.876z" fill="#eab14d"/><path d="m468.242 193.131h-20.583c7.111 0 12.876 5.765 12.876 12.876v14.73c0 7.111-5.765 12.876-12.876 12.876h20.583c7.111 0 12.876-5.765 12.876-12.876v-14.73c0-7.111-5.765-12.876-12.876-12.876z" fill="#e49542"/><path d="m482.654 355.058h-99.27c-7.111 0-12.876-5.765-12.876-12.876v-14.73c0-7.111 5.765-12.876 12.876-12.876h99.27c7.111 0 12.876 5.765 12.876 12.876v14.73c0 7.111-5.765 12.876-12.876 12.876z" fill="#f6e266"/><path d="m482.654 314.576h-20.584c7.111 0 12.876 5.765 12.876 12.876v14.73c0 7.111-5.765 12.876-12.876 12.876h20.583c7.111 0 12.876-5.765 12.876-12.876v-14.73c.001-7.111-5.764-12.876-12.875-12.876z" fill="#ecbe6b"/><path d="m482.654 274.095h-99.27c-7.111 0-12.876-5.765-12.876-12.876v-14.73c0-7.111 5.765-12.876 12.876-12.876h99.27c7.111 0 12.876 5.765 12.876 12.876v14.73c0 7.111-5.765 12.876-12.876 12.876z" fill="#f6e266"/><path d="m482.654 233.613h-20.584c7.111 0 12.876 5.765 12.876 12.876v14.73c0 7.111-5.765 12.876-12.876 12.876h20.583c7.111 0 12.876-5.765 12.876-12.876v-14.73c.001-7.111-5.764-12.876-12.875-12.876z" fill="#ecbe6b"/><path d="m78.981 219.979 170.586-139.39c3.743-3.059 9.123-3.059 12.866 0l170.586 139.39-177.019 76.902z" fill="#ecf4ff"/><path d="m262.433 80.589c-3.743-3.059-9.123-3.059-12.866 0l-8.135 6.647 162.45 132.742-162.45 70.572 14.568 6.33 177.019-76.901z" fill="#ddeafb"/><path d="m379.543 296.777c-5.46 7.841-14.41 12.515-23.964 12.515h-199.157c-9.554 0-18.505-4.674-23.964-12.515l-53.476-76.798h354.038z" fill="#ddeafb"/><circle cx="325.227" cy="237.696" fill="#f6e266" r="49.529"/><path d="m374.756 237.696c0-27.354-22.175-49.529-49.529-49.529-3.473 0-6.862.361-10.133 1.041 22.493 4.677 39.396 24.607 39.396 48.488s-16.902 43.811-39.396 48.488c3.271.68 6.66 1.041 10.133 1.041 27.354 0 49.529-22.175 49.529-49.529z" fill="#ecbe6b"/><circle cx="256" cy="237.696" fill="#f6e266" r="49.529"/><path d="m305.529 237.696c0-27.354-22.175-49.529-49.529-49.529-3.473 0-6.862.361-10.133 1.041 22.493 4.677 39.396 24.607 39.396 48.488s-16.902 43.811-39.396 48.488c3.271.68 6.66 1.041 10.133 1.041 27.354 0 49.529-22.175 49.529-49.529z" fill="#ecbe6b"/><circle cx="186.773" cy="237.696" fill="#f6e266" r="49.529"/><path d="m236.302 237.696c0-27.354-22.175-49.529-49.529-49.529-3.473 0-6.862.361-10.133 1.041 22.493 4.677 39.396 24.607 39.396 48.488s-16.902 43.811-39.396 48.488c3.271.68 6.66 1.041 10.133 1.041 27.354 0 49.529-22.175 49.529-49.529z" fill="#ecbe6b"/><path d="m378.719 261.981c-5.115 3.957-11.4 6.104-17.867 6.104h-209.704c-6.467 0-12.751-2.147-17.867-6.104l-54.3-42.001v201.635c0 6.678 5.413 12.091 12.091 12.091h329.856c6.678 0 12.091-5.413 12.091-12.091v-201.636z" fill="#ecf4ff"/><g><path d="m413.321 235.215v186.398c0 6.678-5.413 12.091-12.091 12.091h19.698c6.678 0 12.091-5.413 12.091-12.091v-201.634z" fill="#ddeafb"/></g><g><path d="m310.312 406.8h-108.623c-4.268 0-7.726-3.459-7.726-7.726s3.459-7.726 7.726-7.726h108.623c4.268 0 7.726 3.459 7.726 7.726s-3.459 7.726-7.726 7.726z" fill="#ddeafb"/></g></g></svg>