<svg id="Capa_1" enable-background="new 0 0 512 512" height="512" viewBox="0 0 512 512" width="512" xmlns="http://www.w3.org/2000/svg"><g><path d="m471.964 358.238h-431.927v-15.336c0-6.97 5.651-12.621 12.621-12.621h406.686c6.97 0 12.621 5.651 12.621 12.621v15.336z" fill="#aa7a63"/><path d="m459.343 330.281h-30.245c6.97 0 12.621 5.651 12.621 12.621v15.336h30.245v-15.336c0-6.97-5.65-12.621-12.621-12.621z" fill="#986b54"/><g><path d="m504.5 365.738h-497c-4.143 0-7.5-3.357-7.5-7.5s3.357-7.5 7.5-7.5h497c4.143 0 7.5 3.357 7.5 7.5s-3.357 7.5-7.5 7.5z" fill="#365e7d"/></g><path d="m197.608 330.282h-117.851l23.461-51.294c2.103-4.598 6.694-7.546 11.75-7.546h47.428c5.056 0 9.647 2.949 11.75 7.546z" fill="#f6e266"/><path d="m174.146 278.988c-2.103-4.597-6.694-7.546-11.75-7.546h-25.811c5.056 0 9.647 2.949 11.75 7.546l23.461 51.293h25.811z" fill="#ecbe6b"/><path d="m314.925 330.282h-117.85l23.461-51.294c2.103-4.598 6.694-7.546 11.75-7.546h47.428c5.056 0 9.647 2.949 11.75 7.546z" fill="#f6e266"/><path d="m291.464 278.988c-2.103-4.597-6.694-7.546-11.75-7.546h-25.811c5.056 0 9.647 2.949 11.75 7.546l23.461 51.293h25.811z" fill="#ecbe6b"/><path d="m432.243 330.282h-117.85l23.461-51.294c2.103-4.598 6.694-7.546 11.75-7.546h47.428c5.056 0 9.647 2.949 11.75 7.546z" fill="#f6e266"/><path d="m408.782 278.988c-2.103-4.597-6.694-7.546-11.75-7.546h-25.811c5.056 0 9.647 2.949 11.75 7.546l23.461 51.293h25.811z" fill="#ecbe6b"/><path d="m314.925 212.602h-117.85l23.461-51.294c2.103-4.598 6.694-7.546 11.75-7.546h47.428c5.056 0 9.647 2.949 11.75 7.546z" fill="#f6e266"/><path d="m291.464 161.309c-2.103-4.597-6.694-7.546-11.75-7.546h-25.811c5.056 0 9.647 2.949 11.75 7.546l23.461 51.293h25.811z" fill="#ecbe6b"/><path d="m256.267 271.442h-117.85l23.461-51.294c2.103-4.598 6.694-7.546 11.75-7.546h47.428c5.056 0 9.647 2.949 11.75 7.546z" fill="#eab14d"/><path d="m232.805 220.148c-2.103-4.597-6.694-7.546-11.75-7.546h-25.811c5.056 0 9.647 2.949 11.75 7.546l23.461 51.293h25.811z" fill="#e49542"/><path d="m373.584 271.442h-117.85l23.461-51.294c2.103-4.598 6.694-7.546 11.75-7.546h47.428c5.056 0 9.647 2.949 11.75 7.546z" fill="#eab14d"/><path d="m350.123 220.148c-2.103-4.597-6.694-7.546-11.75-7.546h-25.811c5.056 0 9.647 2.949 11.75 7.546l23.461 51.293h25.811z" fill="#e49542"/><g><g><path d="m429.099 227.782c-4.143 0-7.5-3.357-7.5-7.5v-7.813c0-4.143 3.357-7.5 7.5-7.5s7.5 3.357 7.5 7.5v7.813c0 4.142-3.358 7.5-7.5 7.5z" fill="#e4f6ff"/></g><g><path d="m429.099 268.693c-4.143 0-7.5-3.357-7.5-7.5v-7.813c0-4.143 3.357-7.5 7.5-7.5s7.5 3.357 7.5 7.5v7.813c0 4.142-3.358 7.5-7.5 7.5z" fill="#e4f6ff"/></g><g><path d="m453.461 244.331h-7.813c-4.143 0-7.5-3.357-7.5-7.5s3.357-7.5 7.5-7.5h7.813c4.143 0 7.5 3.357 7.5 7.5s-3.357 7.5-7.5 7.5z" fill="#e4f6ff"/></g><g><path d="m412.549 244.331h-7.813c-4.143 0-7.5-3.357-7.5-7.5s3.357-7.5 7.5-7.5h7.813c4.143 0 7.5 3.357 7.5 7.5s-3.358 7.5-7.5 7.5z" fill="#e4f6ff"/></g></g><g><g><path d="m104.12 169.076c-4.143 0-7.5-3.357-7.5-7.5v-7.813c0-4.143 3.357-7.5 7.5-7.5s7.5 3.357 7.5 7.5v7.813c0 4.142-3.357 7.5-7.5 7.5z" fill="#e4f6ff"/></g><g><path d="m104.12 209.988c-4.143 0-7.5-3.357-7.5-7.5v-7.813c0-4.143 3.357-7.5 7.5-7.5s7.5 3.357 7.5 7.5v7.813c0 4.142-3.357 7.5-7.5 7.5z" fill="#e4f6ff"/></g><g><path d="m128.482 185.625h-7.813c-4.143 0-7.5-3.357-7.5-7.5s3.357-7.5 7.5-7.5h7.813c4.143 0 7.5 3.357 7.5 7.5s-3.357 7.5-7.5 7.5z" fill="#e4f6ff"/></g><g><path d="m87.571 185.625h-7.813c-4.143 0-7.5-3.357-7.5-7.5s3.357-7.5 7.5-7.5h7.813c4.143 0 7.5 3.357 7.5 7.5s-3.357 7.5-7.5 7.5z" fill="#e4f6ff"/></g></g></g></svg>