<svg id="Capa_1" enable-background="new 0 0 512 512" height="512" viewBox="0 0 512 512" width="512" xmlns="http://www.w3.org/2000/svg"><g><path d="m243.654 213.715.187-.476-107.49-41.514c3.031-7.846 32.117-78.918 124.075-170.995.97-.971 2.554-.974 3.522-.001l79.539 79.899c-75.893 75.551-99.603 132.52-99.833 133.087z" fill="#78c2a4"/><path d="m296.28 33.207c-67.894 75.898-90.685 131.623-93.348 138.518l52.075 20.112c13.566-23.389 40.662-63.608 88.479-111.21z" fill="#66b394"/><path d="m351.153 213.715.187-.476-107.49-41.514c3.031-7.846 32.117-78.918 124.075-170.995.97-.971 2.554-.974 3.522-.001l77.795 78.146c.964.969.955 2.537-.01 3.505-74.505 74.678-97.851 130.773-98.079 131.335z" fill="#78c2a4"/><path d="m449.242 78.875-17.972-18.053c-59.741 60.135-92.615 111.151-108.957 141.207l29.027 11.211-.187.476c.228-.562 23.574-56.657 98.079-131.335.965-.969.974-2.537.01-3.506z" fill="#66b394"/><circle cx="165.117" cy="119.431" fill="#f6e266" r="69.576"/><path d="m165.117 49.855c-4.879 0-9.639.507-14.234 1.463 31.598 6.57 55.342 34.567 55.342 68.113 0 33.547-23.744 61.543-55.342 68.113 4.595.955 9.355 1.463 14.234 1.463 38.426 0 69.576-31.15 69.576-69.576s-31.15-69.576-69.576-69.576z" fill="#ecbe6b"/><path d="m261.211 510.798 178.858-87.147c7.143-3.481 11.676-10.731 11.676-18.677v-239.135c0-11.488-9.313-20.8-20.8-20.8h-349.889c-11.488 0-20.8 9.313-20.8 20.8v239.136c0 7.946 4.532 15.196 11.676 18.677l178.858 87.147c3.288 1.602 7.132 1.602 10.421-.001z" fill="#90d8f9"/><path d="m419.467 145.038v245.807c0 7.946-4.532 15.196-11.676 18.677l-178.858 87.146c-1.497.729-3.11 1.11-4.732 1.175l26.588 12.954c3.289 1.603 7.133 1.603 10.421 0l178.858-87.146c7.143-3.481 11.676-10.731 11.676-18.677v-239.135c0-11.488-9.313-20.8-20.8-20.8h-11.477z" fill="#75cef9"/><g><g><g><path d="m382.608 393.423c-4.276 0-7.742-3.466-7.742-7.742v-16.113c0-4.276 3.466-7.742 7.742-7.742s7.742 3.466 7.742 7.742v16.113c0 4.276-3.465 7.742-7.742 7.742z" fill="#75cef9"/></g><g><path d="m382.608 348.254c-4.276 0-7.742-3.466-7.742-7.742v-26.061c0-4.276 3.466-7.742 7.742-7.742s7.742 3.466 7.742 7.742v26.061c0 4.276-3.465 7.742-7.742 7.742zm0-52.121c-4.276 0-7.742-3.466-7.742-7.742v-26.061c0-4.276 3.466-7.742 7.742-7.742s7.742 3.466 7.742 7.742v26.061c0 4.276-3.465 7.742-7.742 7.742z" fill="#75cef9"/></g><g><path d="m382.608 232.03c-4.276 0-7.742-3.466-7.742-7.742v-16.112c0-4.276 3.466-7.742 7.742-7.742s7.742 3.466 7.742 7.742v16.112c0 4.277-3.465 7.742-7.742 7.742z" fill="#75cef9"/></g></g><g><g><path d="m129.392 232.03c-4.276 0-7.742-3.466-7.742-7.742v-16.112c0-4.276 3.466-7.742 7.742-7.742s7.742 3.466 7.742 7.742v16.112c0 4.277-3.466 7.742-7.742 7.742z" fill="#75cef9"/></g><g><path d="m129.392 339.268c-4.276 0-7.742-3.466-7.742-7.742v-26.061c0-4.276 3.466-7.742 7.742-7.742s7.742 3.466 7.742 7.742v26.061c0 4.276-3.466 7.742-7.742 7.742zm0-52.121c-4.276 0-7.742-3.466-7.742-7.742v-26.061c0-4.276 3.466-7.742 7.742-7.742s7.742 3.466 7.742 7.742v26.061c0 4.276-3.466 7.742-7.742 7.742z" fill="#75cef9"/></g><g><path d="m129.392 393.423c-4.276 0-7.742-3.466-7.742-7.742v-16.113c0-4.276 3.466-7.742 7.742-7.742s7.742 3.466 7.742 7.742v16.113c0 4.276-3.466 7.742-7.742 7.742z" fill="#75cef9"/></g></g></g><g><path d="m312.949 306.485c-1.188 0-2.392-.274-3.521-.852-35.948-18.398-70.903-18.399-106.855 0-3.803 1.946-8.472.443-10.419-3.365-1.948-3.806-.442-8.471 3.365-10.419 40.132-20.538 80.829-20.538 120.964 0 3.806 1.949 5.313 6.613 3.365 10.419-1.371 2.676-4.086 4.216-6.899 4.217z" fill="#75cef9"/></g></g></svg>