<svg id="Capa_1" enable-background="new 0 0 512 512" height="512" viewBox="0 0 512 512" width="512" xmlns="http://www.w3.org/2000/svg"><g><path d="m375.893 135.361h-284.921v-56.423c0-15.459 12.532-27.991 27.991-27.991h228.938c15.459 0 27.991 12.532 27.991 27.991v56.423z" fill="#ecf4ff"/><path d="m409.066 503.201c0 4.859-3.939 8.799-8.799 8.799h-333.669c-4.859 0-8.799-3.939-8.799-8.799v-144.62c0-64.395 52.203-116.598 116.598-116.598h118.071c64.395 0 116.598 52.203 116.598 116.598z" fill="#aa7a63"/><path d="m292.468 241.983h-33.006c64.395 0 116.598 52.203 116.598 116.598v153.419h24.207c4.859 0 8.799-3.939 8.799-8.799v-144.62c0-64.395-52.203-116.598-116.598-116.598z" fill="#986b54"/><path d="m442.151 512h-79.844c-6.655 0-12.049-5.395-12.049-12.049v-10.11c0-6.655 5.395-12.049 12.049-12.049h79.844c6.655 0 12.049 5.395 12.049 12.049v10.11c.001 6.654-5.394 12.049-12.049 12.049z" fill="#eab14d"/><path d="m441.365 477.791h-22.111c7.089 0 12.836 5.064 12.836 11.311v11.587c0 6.247-5.747 11.311-12.836 11.311h22.111c7.089 0 12.836-5.064 12.836-11.311v-11.587c0-6.247-5.747-11.311-12.836-11.311z" fill="#e49542"/><path d="m442.151 477.791h-79.844c-6.655 0-12.049-5.395-12.049-12.049v-10.11c0-6.655 5.395-12.049 12.049-12.049h79.844c6.655 0 12.049 5.395 12.049 12.049v10.11c.001 6.654-5.394 12.049-12.049 12.049z" fill="#f6e266"/><path d="m441.365 443.581h-22.111c7.089 0 12.836 5.064 12.836 11.311v11.587c0 6.247-5.747 11.311-12.836 11.311h22.111c7.089 0 12.836-5.064 12.836-11.311v-11.587c0-6.246-5.747-11.311-12.836-11.311z" fill="#ecbe6b"/><path d="m442.151 443.581h-79.844c-6.655 0-12.049-5.395-12.049-12.049v-10.11c0-6.655 5.395-12.049 12.049-12.049h79.844c6.655 0 12.049 5.395 12.049 12.049v10.11c.001 6.655-5.394 12.049-12.049 12.049z" fill="#eab14d"/><path d="m441.365 409.372h-22.111c7.089 0 12.836 5.064 12.836 11.311v11.587c0 6.247-5.747 11.311-12.836 11.311h22.111c7.089 0 12.836-5.064 12.836-11.311v-11.587c0-6.247-5.747-11.311-12.836-11.311z" fill="#e49542"/><path d="m418.17 409.372h-79.844c-6.655 0-12.049-5.395-12.049-12.049v-10.11c0-6.655 5.395-12.049 12.049-12.049h79.844c6.655 0 12.049 5.395 12.049 12.049v10.11c0 6.654-5.394 12.049-12.049 12.049z" fill="#f6e266"/><path d="m417.383 375.163h-22.111c7.089 0 12.836 5.064 12.836 11.311v11.587c0 6.247-5.747 11.311-12.836 11.311h22.111c7.089 0 12.836-5.064 12.836-11.311v-11.587c0-6.247-5.747-11.311-12.836-11.311z" fill="#ecbe6b"/><circle cx="345.694" cy="464.165" fill="#f6e266" r="47.835"/><path d="m345.694 416.33c-3.909 0-7.704.48-11.341 1.364 20.942 5.094 36.494 23.961 36.494 46.471s-15.552 41.377-36.494 46.471c3.637.885 7.432 1.364 11.341 1.364 26.419 0 47.835-21.416 47.835-47.835s-21.416-47.835-47.835-47.835z" fill="#ecbe6b"/><path d="m233.433 334.922c-23.538 0-42.618-19.081-42.618-42.618v-42.618h85.237v42.618c-.001 23.537-19.082 42.618-42.619 42.618z" fill="#e2a770"/><path d="m119.911 70.56v98.259c0 62.696 50.825 113.521 113.521 113.521 62.696 0 113.521-50.825 113.521-113.521v-98.259c0-38.969-31.591-70.56-70.56-70.56h-85.924c-38.967 0-70.558 31.591-70.558 70.56z" fill="#f1d0a5"/><path d="m276.394 0h-26.508c38.969 0 70.56 31.59 70.56 70.56v98.259c0 58.212-43.818 106.182-100.269 112.747 4.349.506 8.77.774 13.254.774 62.696 0 113.522-50.825 113.522-113.521v-98.259c.001-38.969-31.59-70.56-70.559-70.56z" fill="#f1b986"/><g><g><path d="m181.365 162.091c-4.268 0-7.726-3.459-7.726-7.726v-7.215c0-4.268 3.459-7.726 7.726-7.726s7.726 3.459 7.726 7.726v7.215c0 4.267-3.459 7.726-7.726 7.726z" fill="#2b4d66"/></g><g><path d="m285.5 162.091c-4.268 0-7.726-3.459-7.726-7.726v-7.215c0-4.268 3.459-7.726 7.726-7.726s7.726 3.459 7.726 7.726v7.215c0 4.267-3.459 7.726-7.726 7.726z" fill="#2b4d66"/></g></g><path d="m119.911 158.226h-18.202c-12.628 0-22.865-10.237-22.865-22.865 0-12.628 10.237-22.865 22.865-22.865h18.202z" fill="#e2a770"/><path d="m346.954 158.226h18.202c12.628 0 22.865-10.237 22.865-22.865 0-12.628-10.237-22.865-22.865-22.865h-18.202z" fill="#e2a770"/><path d="m233.433 299.774c-35.317 0-63.948-28.63-63.948-63.947v-20.784c0-15.861 12.858-28.719 28.719-28.719h70.457c15.861 0 28.719 12.858 28.719 28.719v20.784c0 35.316-28.63 63.947-63.947 63.947z" fill="#ecf4ff"/><path d="m268.661 186.323h-19.815c15.861 0 28.719 12.858 28.719 28.719v20.784c0 31.947-23.428 58.419-54.04 63.18 3.229.502 6.537.767 9.907.767 35.317 0 63.947-28.63 63.947-63.947v-20.784c.001-15.861-12.857-28.719-28.718-28.719z" fill="#ddeafb"/><g><path d="m233.432 228.196c-8.034 0-16.069-2.417-23.881-7.254-3.629-2.245-4.749-7.008-2.503-10.636 2.247-3.63 7.01-4.747 10.636-2.503 10.744 6.65 20.753 6.65 31.497 0 3.628-2.242 8.389-1.127 10.636 2.503 2.246 3.628 1.126 8.39-2.503 10.636-7.811 4.836-15.847 7.254-23.882 7.254z" fill="#dd636e"/></g><g><path d="m277.708 47.081h-88.551c-4.268 0-7.726-3.459-7.726-7.726s3.459-7.726 7.726-7.726h88.551c4.268 0 7.726 3.459 7.726 7.726s-3.459 7.726-7.726 7.726z" fill="#f1b986"/></g><g><path d="m257.104 73.241h-47.344c-4.268 0-7.726-3.459-7.726-7.726s3.459-7.726 7.726-7.726h47.344c4.268 0 7.726 3.459 7.726 7.726s-3.458 7.726-7.726 7.726z" fill="#f1b986"/></g></g></svg>