<svg id="Capa_1" enable-background="new 0 0 512 512" height="512" viewBox="0 0 512 512" width="512" xmlns="http://www.w3.org/2000/svg"><g><path d="m485.945 181.82 18.599 11.331c4.631 2.821 7.457 7.852 7.457 13.274v99.149c0 5.423-2.826 10.453-7.457 13.274l-18.599 11.331c-2.224 1.355-4.072 3.247-5.374 5.502l-43.278 74.96c-1.302 2.255-2.017 4.802-2.078 7.405l-.514 21.773c-.128 5.421-3.072 10.383-7.768 13.095l-85.865 49.574c-4.696 2.711-10.466 2.779-15.224.18l-19.113-10.441c-2.285-1.249-4.848-1.903-7.452-1.903h-86.557c-2.604 0-5.167.654-7.452 1.903l-19.113 10.441c-4.759 2.6-10.528 2.532-15.224-.18l-85.865-49.574c-4.696-2.711-7.64-7.674-7.768-13.095l-.514-21.773c-.061-2.604-.776-5.15-2.078-7.405l-43.278-74.96c-1.302-2.255-3.15-4.147-5.374-5.502l-18.599-11.33c-4.631-2.822-7.457-7.852-7.457-13.275v-99.149c0-5.423 2.826-10.453 7.457-13.274l18.599-11.331c2.224-1.355 4.072-3.247 5.374-5.502l43.278-74.96c1.302-2.255 2.017-4.802 2.078-7.405l.514-21.774c.128-5.421 3.072-10.383 7.768-13.095l85.865-49.574c4.696-2.711 10.466-2.779 15.224-.18l19.113 10.441c2.285 1.249 4.848 1.903 7.452 1.903h86.557c2.604 0 5.167-.654 7.452-1.903l19.113-10.441c4.759-2.6 10.528-2.532 15.224.18l85.865 49.574c4.696 2.711 7.64 7.674 7.768 13.095l.514 21.773c.061 2.604.776 5.15 2.078 7.405l43.278 74.96c1.302 2.256 3.15 4.148 5.374 5.503z" fill="#eab14d"/><g><path d="m504.543 193.151-18.599-11.331c-2.224-1.355-4.072-3.247-5.374-5.503l-43.278-74.96c-1.302-2.256-2.017-4.802-2.078-7.405l-.514-21.773c-.128-5.421-3.072-10.384-7.768-13.095l-85.865-49.574c-4.696-2.711-10.466-2.779-15.224-.18l-9.659 5.277 77.037 44.477c4.696 2.711 7.64 7.674 7.768 13.095l.514 21.773c.061 2.603.776 5.15 2.078 7.405l43.278 74.96c1.302 2.256 3.15 4.147 5.374 5.503l18.599 11.331c4.631 2.821 7.457 7.852 7.457 13.274v99.149c0 5.422-2.826 10.453-7.457 13.274l-18.599 11.331c-2.224 1.355-4.072 3.247-5.374 5.503l-43.278 74.96c-1.302 2.255-2.017 4.802-2.078 7.405l-.514 21.773c-.128 5.421-3.072 10.384-7.768 13.095l-77.037 44.477 9.659 5.277c4.759 2.6 10.528 2.531 15.224-.18l85.865-49.574c4.696-2.711 7.64-7.674 7.768-13.095l.514-21.773c.061-2.603.776-5.15 2.078-7.405l43.278-74.96c1.302-2.256 3.15-4.147 5.374-5.503l18.599-11.331c4.631-2.821 7.457-7.852 7.457-13.274v-99.149c0-5.422-2.826-10.452-7.457-13.274z" fill="#e49542"/></g><circle cx="256" cy="256" fill="#f6e266" r="148.258"/><path d="m256 107.742c-4.501 0-8.952.212-13.351.605 75.624 6.751 134.908 70.273 134.908 147.653s-59.284 140.902-134.907 147.653c4.399.393 8.85.605 13.351.605 81.881 0 148.258-66.377 148.258-148.258s-66.378-148.258-148.259-148.258z" fill="#ecbe6b"/><g><g><path d="m253.524 325.606c-13.572 0-21.889-1.248-35.465-10.129-3.571-2.336-4.572-7.125-2.236-10.695 2.337-3.571 7.123-4.571 10.695-2.236 10.877 7.116 15.887 7.701 28.641 7.602 15.605-.104 24.66-11.74 26.47-22.509.732-4.353 1.791-19.024-15.317-25.071-18.944-6.697-29.807-11.888-37.497-17.921-8.397-6.587-12.212-18.123-9.954-30.105 2.484-13.18 11.622-23.656 23.848-27.339 24.404-7.348 48.419 4.473 49.43 4.98 3.814 1.913 5.355 6.556 3.441 10.37-1.91 3.809-6.547 5.346-10.356 3.449-.39-.192-19.734-9.522-38.057-4.002-7.986 2.405-12.014 9.534-13.12 15.404-1.186 6.291.464 12.07 4.306 15.083 7.782 6.105 21.105 11.266 33.111 15.51 18.636 6.588 28.608 23.153 25.405 42.202-2.847 16.936-17.081 35.237-41.607 35.4-.589.005-1.169.007-1.738.007z" fill="#eab14d"/></g><g><path d="m255.21 343.798c-4.268 0-7.726-3.459-7.726-7.726v-160.144c0-4.268 3.459-7.726 7.726-7.726s7.726 3.459 7.726 7.726v160.144c0 4.268-3.458 7.726-7.726 7.726z" fill="#eab14d"/></g></g><g><g><path d="m358.411 263.726h-16.48c-4.268 0-7.726-3.459-7.726-7.726 0-4.268 3.459-7.726 7.726-7.726h16.48c4.268 0 7.726 3.459 7.726 7.726s-3.458 7.726-7.726 7.726z" fill="#eab14d"/></g><g><path d="m170.069 263.726h-16.481c-4.268 0-7.726-3.459-7.726-7.726 0-4.268 3.459-7.726 7.726-7.726h16.481c4.268 0 7.726 3.459 7.726 7.726s-3.458 7.726-7.726 7.726z" fill="#eab14d"/></g></g></g></svg>