<?xml version="1.0" encoding="UTF-8"?>
<svg xmlns="http://www.w3.org/2000/svg" xmlns:xlink="http://www.w3.org/1999/xlink" width="512" height="512" viewBox="0 0 58 58" version="1.1"><!-- Generator: Sketch 51.3 (57544) - http://www.bohemiancoding.com/sketch --><title>017 - Swab Test</title><desc>Created with Sketch.</desc><defs/><g id="Page-1" stroke="none" stroke-width="1" fill="none" fill-rule="evenodd"><g id="017---Swab-Test" transform="translate(0.000000, -1.000000)" fill-rule="nonzero"><path d="M39,17.12 L46.74,9.38 L49.62,12.26 L39,22.88 L19,37.12 L0.6,55.52 C-0.187643183,56.3165894 -0.184020152,57.5997623 0.608108768,58.3918912 C1.40023769,59.1840202 2.6834106,59.1876432 3.48,58.4 L19,42.88 L39,17.12 Z" id="Shape" fill="#955BA5"/><path d="M39,36 L39,49 C38.9980131,54.5220243 34.5220243,58.9980131 29,59 C28.5042122,59.0006139 28.0092127,58.9604788 27.52,58.88 C27.51,58.89 27.5,58.89 27.48,58.88 C22.6031547,58.129406 19.0024699,53.9342684 19,49 L19,36 L39,36 Z" id="Shape" fill="#67B9CC"/><path d="M36,36 L36,49 C35.9975301,53.9342684 32.3968453,58.129406 27.52,58.88 C27.51,58.89 27.5,58.89 27.48,58.88 C22.6031547,58.129406 19.0024699,53.9342684 19,49 L19,36 L36,36 Z" id="Shape" fill="#90BAE1"/><rect id="Rectangle-path" fill="#9FC9D3" x="19" y="9" width="20" height="29"/><rect id="Rectangle-path" fill="#B0D3F0" x="19" y="9" width="17" height="29"/><path d="M41,2 L41,7 C40.9967598,8.10322458 40.1032246,8.9967598 39,9 L19,9 C17.8967754,8.9967598 17.0032402,8.10322458 17,7 L17,2 C17.0015928,1.44837635 17.4483764,1.00159279 18,1 L40,1 C40.5516236,1.00159279 40.9984072,1.44837635 41,2 Z" id="Shape" fill="#BDC3C7"/><path d="M38,2 L38,7 C37.9967598,8.10322458 37.1032246,8.9967598 36,9 L19,9 C17.8967754,8.9967598 17.0032402,8.10322458 17,7 L17,2 C17.0015928,1.44837635 17.4483764,1.00159279 18,1 L37,1 C37.5516236,1.00159279 37.9984072,1.44837635 38,2 Z" id="Shape" fill="#E6E7E8"/><path d="M26,54 L24,54 C23.4477153,54 23,53.5522847 23,53 C23,52.4477153 23.4477153,52 24,52 L25,52 L25,14 L24,14 C23.4477153,14 23,13.5522847 23,13 C23,12.4477153 23.4477153,12 24,12 L26,12 C26.5522847,12 27,12.4477153 27,13 L27,53 C27,53.5522847 26.5522847,54 26,54 Z" id="Shape" fill="#4482C3"/><path d="M26,19 L24,19 C23.4477153,19 23,18.5522847 23,18 C23,17.4477153 23.4477153,17 24,17 L26,17 C26.5522847,17 27,17.4477153 27,18 C27,18.5522847 26.5522847,19 26,19 Z" id="Shape" fill="#4482C3"/><path d="M26,24 L24,24 C23.4477153,24 23,23.5522847 23,23 C23,22.4477153 23.4477153,22 24,22 L26,22 C26.5522847,22 27,22.4477153 27,23 C27,23.5522847 26.5522847,24 26,24 Z" id="Shape" fill="#4482C3"/><path d="M26,29 L24,29 C23.4477153,29 23,28.5522847 23,28 C23,27.4477153 23.4477153,27 24,27 L26,27 C26.5522847,27 27,27.4477153 27,28 C27,28.5522847 26.5522847,29 26,29 Z" id="Shape" fill="#4482C3"/><path d="M26,34 L24,34 C23.4477153,34 23,33.5522847 23,33 C23,32.4477153 23.4477153,32 24,32 L26,32 C26.5522847,32 27,32.4477153 27,33 C27,33.5522847 26.5522847,34 26,34 Z" id="Shape" fill="#4482C3"/><path d="M26,39 L24,39 C23.4477153,39 23,38.5522847 23,38 C23,37.4477153 23.4477153,37 24,37 L26,37 C26.5522847,37 27,37.4477153 27,38 C27,38.5522847 26.5522847,39 26,39 Z" id="Shape" fill="#4482C3"/><path d="M26,44 L24,44 C23.4477153,44 23,43.5522847 23,43 C23,42.4477153 23.4477153,42 24,42 L26,42 C26.5522847,42 27,42.4477153 27,43 C27,43.5522847 26.5522847,44 26,44 Z" id="Shape" fill="#4482C3"/><path d="M26,49 L24,49 C23.4477153,49 23,48.5522847 23,48 C23,47.4477153 23.4477153,47 24,47 L26,47 C26.5522847,47 27,47.4477153 27,48 C27,48.5522847 26.5522847,49 26,49 Z" id="Shape" fill="#4482C3"/><path d="M56.07,8.39 L49.62,12.26 L46.74,9.38 L50.61,2.93 C51.2400017,1.88076311 52.3178107,1.17982537 53.5323859,1.029468 C54.7469611,0.879110621 55.9631585,1.29606363 56.83,2.16 L56.84,2.17 C57.7035207,3.03703663 58.1201908,4.25310875 57.9698525,5.46752997 C57.8195141,6.68195119 57.1188814,7.75970768 56.07,8.39 Z" id="Shape" fill="#BDC3C7"/><path d="M54.07,8.39 L48.87,11.51 L46.74,9.38 L50.61,2.93 C51.1400695,2.0358541 52.0032005,1.38850586 53.01,1.13 C53.6985177,1.30275729 54.3274277,1.65867887 54.83,2.16 L54.84,2.17 C55.7035207,3.03703663 56.1201908,4.25310875 55.9698525,5.46752997 C55.8195141,6.68195119 55.1188814,7.75970768 54.07,8.39 Z" id="Shape" fill="#E6E7E8"/></g></g></svg>
