<?xml version="1.0" encoding="UTF-8"?>
<svg xmlns="http://www.w3.org/2000/svg" xmlns:xlink="http://www.w3.org/1999/xlink" width="512" height="512" viewBox="0 0 48 60" version="1.1"><!-- Generator: Sketch 51.3 (57544) - http://www.bohemiancoding.com/sketch --><title>005 - Family Records</title><desc>Created with Sketch.</desc><defs/><g id="Page-1" stroke="none" stroke-width="1" fill="none" fill-rule="evenodd"><g id="005---Family-Records" fill-rule="nonzero"><path d="M48,2 L48,47 C47.9984072,47.5516236 47.5516236,47.9984072 47,48 C46.9984072,47.4483764 46.5516236,47.0015928 46,47 L7,47 C5.40800656,46.9952085 3.88062284,47.6292169 2.76,48.76 C2.47415927,49.0419491 2.21937001,49.3537307 2,49.69 L2,53 C2.00099343,55.7610122 4.23898785,57.9990066 7,58 C7.55228475,58 8,58.4477153 8,59 C8,59.5522847 7.55228475,60 7,60 C3.1357659,59.9957563 0.00424365932,56.8642341 -3.55271368e-15,53 L-3.55271368e-15,7 C0.00424365932,3.1357659 3.1357659,0.00424365932 7,0 L46,0 C47.1032246,0.00324019568 47.9967598,0.896775421 48,2 Z" id="Shape" fill="#E64C3C"/><path d="M31.85,31.92 L31.86,31.92 C32.0098004,31.9893991 32.1676924,32.0397902 32.33,32.07 C33.2782454,32.3272974 34.1678709,32.7653191 34.95,33.36 C35.68,33.86 36.42,34.35 37.16,34.83 C37.7546556,35.1099612 38.2908012,35.5001938 38.74,35.98 C35.1350817,40.4210314 29.7199821,43.0000002 24,43.0000002 C18.2800179,43.0000002 12.8649183,40.4210314 9.26,35.98 C9.70919881,35.5001938 10.2453444,35.1099612 10.84,34.83 C11.58,34.35 12.32,33.86 13.05,33.36 C13.8321291,32.7653191 14.7217546,32.3272974 15.67,32.07 C15.8323076,32.0397902 15.9901996,31.9893991 16.14,31.92 L31.85,31.92 Z" id="Shape" fill="#285680"/><path d="M43,24 C43.0057917,28.3654118 41.5006079,32.5982996 38.74,35.98 C38.2908012,35.5001938 37.7546556,35.1099612 37.16,34.83 C36.42,34.35 35.68,33.86 34.95,33.36 C34.1678709,32.7653191 33.2782454,32.3272974 32.33,32.07 C32.1676924,32.0397902 32.0098004,31.9893991 31.86,31.92 C30.9173059,31.4968808 30.065073,30.8959038 29.35,30.15 C27.39,32.12 27.29,34 25.13,34 L22.87,34 C20.71,34 20.61,32.12 18.65,30.15 C17.934927,30.8959038 17.0826941,31.4968808 16.14,31.92 C15.9901996,31.9893991 15.8323076,32.0397902 15.67,32.07 C14.7217546,32.3272974 13.8321291,32.7653191 13.05,33.36 C12.32,33.86 11.58,34.35 10.84,34.83 C10.2453444,35.1099612 9.70919881,35.5001938 9.26,35.98 C3.98888376,29.494774 3.57490958,20.3265071 8.24011377,13.3926271 C12.905318,6.45874703 21.5539249,3.387902 29.5472282,5.827149 C37.5405314,8.26639601 43.0010426,15.6427982 43,24 Z" id="Shape" fill="#C03A2B"/><path d="M47,48 L47,58 C46.9984072,58.5516236 46.5516236,58.9984072 46,59 L7,59 C3.68738851,58.9973531 1.00264691,56.3126115 1,53 C1.00495634,49.6883467 3.68834666,47.0049563 7,47 L46,47 C46.5516236,47.0015928 46.9984072,47.4483764 47,48 Z" id="Shape" fill="#F9EAB0"/><path d="M8,52 C7.86932274,51.99842 7.74022231,51.971241 7.62,51.92 C7.49893648,51.869126 7.38735982,51.7981227 7.29,51.71 C6.90331308,51.3156421 6.90331308,50.6843579 7.29,50.29 C7.38725117,50.2017349 7.49885344,50.1307152 7.62,50.08 C7.8635588,49.9804768 8.1364412,49.9804768 8.38,50.08 C8.50112478,50.1307569 8.61272031,50.2017722 8.71,50.29 C9.09668692,50.6843579 9.09668692,51.3156421 8.71,51.71 C8.61261214,51.7980859 8.50104205,51.869085 8.38,51.92 C8.25977769,51.971241 8.13067726,51.99842 8,52 Z" id="Shape" fill="#B19046"/><path d="M15,52 L12,52 C11.4477153,52 11,51.5522847 11,51 C11,50.4477153 11.4477153,50 12,50 L15,50 C15.5522847,50 16,50.4477153 16,51 C16,51.5522847 15.5522847,52 15,52 Z" id="Shape" fill="#B19046"/><path d="M43,52 L19,52 C18.4477153,52 18,51.5522847 18,51 C18,50.4477153 18.4477153,50 19,50 L43,50 C43.5522847,50 44,50.4477153 44,51 C44,51.5522847 43.5522847,52 43,52 Z" id="Shape" fill="#B19046"/><path d="M8,56 C7.86932274,55.99842 7.74022231,55.971241 7.62,55.92 C7.36904387,55.8286455 7.17135451,55.6309561 7.08,55.38 C6.97396018,55.1377632 6.97396018,54.8622368 7.08,54.62 C7.17175734,54.3693008 7.36930076,54.1717573 7.62,54.08 C7.8635588,53.9804768 8.1364412,53.9804768 8.38,54.08 C8.63095613,54.1713545 8.82864549,54.3690439 8.92,54.62 C9.02671616,54.8620948 9.02671616,55.1379052 8.92,55.38 C8.8290762,55.6312303 8.63123026,55.8290762 8.38,55.92 C8.25977769,55.971241 8.13067726,55.99842 8,56 Z" id="Shape" fill="#B19046"/><path d="M15,56 L12,56 C11.4477153,56 11,55.5522847 11,55 C11,54.4477153 11.4477153,54 12,54 L15,54 C15.5522847,54 16,54.4477153 16,55 C16,55.5522847 15.5522847,56 15,56 Z" id="Shape" fill="#B19046"/><path d="M43,56 L19,56 C18.4477153,56 18,55.5522847 18,55 C18,54.4477153 18.4477153,54 19,54 L43,54 C43.5522847,54 44,54.4477153 44,55 C44,55.5522847 43.5522847,56 43,56 Z" id="Shape" fill="#B19046"/><path d="M29.35,30.15 C30.0637017,30.8930211 30.9120793,31.4936724 31.85,31.92 C32.1776701,33.6503639 31.7246187,35.4371188 30.6120411,36.802292 C29.4994635,38.1674652 27.8408887,38.9717525 26.08,39 L21.92,39 C20.1591113,38.9717525 18.5005365,38.1674652 17.3879589,36.802292 C16.2753813,35.4371188 15.8223299,33.6503639 16.15,31.92 C17.0879207,31.4936724 17.9362983,30.8930211 18.65,30.15 L29.35,30.15 Z" id="Shape" fill="#CBB292"/><path d="M31.99,18 L32.77,18 C34.1019186,18.1139479 35.0953112,19.2766182 35,20.61 C35.0131529,21.4425657 34.6492816,22.2364668 34.01,22.77 L31.42,25.6 L16.58,25.6 L13.99,22.77 C13.3507184,22.2364668 12.9868471,21.4425657 13,20.61 C12.9046888,19.2766182 13.8980814,18.1139479 15.23,18 L31.99,18 Z" id="Shape" fill="#CBB292"/><path d="M31.37,23.88 C31.37,25.96 31.94,27.75 29.67,29.83 C29.56,29.94 29.45,30.04 29.35,30.15 C27.39,32.12 27.29,34 25.13,34 L22.87,34 C20.71,34 20.61,32.12 18.65,30.15 C18.55,30.04 18.44,29.94 18.33,29.83 C16.06,27.75 16.63,25.96 16.63,23.88 C16.63,21.8 15.77,21.2 16.06,15.25 C16.34,9.3 23.43,9 23.43,9 L24.57,9 C24.57,9 31.66,9.3 31.94,15.25 C32.23,21.2 31.37,21.8 31.37,23.88 Z" id="Shape" fill="#FDD7AD"/><path d="M47,48 C46.4483764,47.9984072 46.0015928,47.5516236 46,47 C46.5516236,47.0015928 46.9984072,47.4483764 47,48 Z" id="Shape" fill="#E64C3C"/><path d="M47,60 L7,60 C3.13400675,60 8.8817842e-16,56.8659932 0,53 C-8.8817842e-16,49.1340068 3.13400675,46 7,46 L47,46 C47.5522847,46 48,46.4477153 48,47 C48,47.5522847 47.5522847,48 47,48 L7,48 C4.23857625,48 2,50.2385763 2,53 C2,55.7614237 4.23857625,58 7,58 L47,58 C47.5522847,58 48,58.4477153 48,59 C48,59.5522847 47.5522847,60 47,60 Z" id="Shape" fill="#E64C3C"/></g></g></svg>
