<?xml version="1.0" encoding="UTF-8"?>
<svg xmlns="http://www.w3.org/2000/svg" xmlns:xlink="http://www.w3.org/1999/xlink" width="512" height="512" viewBox="0 0 59 60" version="1.1"><!-- Generator: Sketch 51.3 (57544) - http://www.bohemiancoding.com/sketch --><title>009 - Family Records</title><desc>Created with Sketch.</desc><defs/><g id="Page-1" stroke="none" stroke-width="1" fill="none" fill-rule="evenodd"><g id="009---Family-Records"><path d="M46.59,58.8 C46.5650402,58.8266868 46.5342339,58.8472244 46.5,58.86 C46.4087078,58.9190371 46.3068233,58.9597909 46.2,58.98 C46.1339906,58.9921117 46.0671006,58.9988007 46,59 L7,59 C3.68736568,58.9974081 1.00259185,56.3126343 1,53 C1.00495634,49.6883467 3.68834666,47.0049563 7,47 L32.92,47 C33.3778165,48.3896038 33.974147,49.7296724 34.7,51 C34.8,51.17 34.91,51.35 35.02,51.52 C35.8386221,52.8277262 36.8538682,54.0014992 38.03,55 C40.4730683,57.0402481 43.4380956,58.3564985 46.59,58.8 Z" id="Shape" fill="#F9EAB0" fill-rule="nonzero"/><path d="M10,60.0000005 L7,60 C3.1357659,59.9957563 0.00424365932,56.8642341 8.8817842e-16,53 L8.8817842e-16,7 C0.00424365932,3.1357659 3.1357659,0.00424365932 7,0 L10,0 C6.1357659,0.00424365932 3.00424366,3.1357659 3,7 L3,48.54 C2.92,48.61 2.84,48.68 2.76,48.76 C2.47415927,49.0419491 2.21937001,49.3537307 2,49.69 L2,53 C2.00218494,54.7909392 2.95876231,56.4449415 4.51,57.34 C5.83611813,59.020577 7.85922261,60.0008062 10,60.0000005 Z" id="Shape" fill="#67B9CC" fill-rule="nonzero"/><path d="M47.59,58.8 C47.5933559,59.1333272 47.4277613,59.4456988 47.15,59.63 C47.0872454,59.6790737 47.0203244,59.7225723 46.95,59.76 C46.9143856,59.7788908 46.8776505,59.7955886 46.84,59.81 C46.684313,59.8929716 46.5149333,59.9471731 46.34,59.97 C46.2274192,59.9872142 46.1138556,59.9972345 46,60 L10,60 C7.85922261,60.0008062 5.83611813,59.020577 4.51,57.34 C5.26767582,57.7747573 6.12645501,58.0023855 7,58 L45.99,58 C46.1625495,57.869138 46.3734432,57.7988401 46.59,57.8 C46.8057831,57.8035267 47.0152575,57.8733515 47.19,58 C47.4419177,58.188761 47.5901418,58.4852092 47.59,58.8 Z" id="Shape" fill="#4482C3" fill-rule="nonzero"/><path d="M48,2 L48,39.78 C48,40.3322847 47.5522847,40.78 47,40.78 C46.4477153,40.78 46,40.3322847 46,39.78 L46,36.86 C42.25,33.66 37.21,31.96 34.06,31.15 C32.28,30.69 31.1,30.52 31.1,30.52 C31.1,30.52 30.37,39.46 32.92,47 L7,47 C5.52130876,46.9967345 4.09473123,47.5459668 3,48.54 L3,7 C3.00424366,3.1357659 6.1357659,0.00424365932 10,0 L46,0 C47.1032246,0.00324019568 47.9967598,0.896775421 48,2 Z" id="Shape" fill="#4482C3" fill-rule="nonzero"/><path d="M46,60 L7,60 C3.13585715,59.9955364 0.00446362219,56.8641428 0,53 C0.00424365932,49.1357659 3.1357659,46.0042437 7,46 L32.92,46 C33.4722847,46 33.92,46.4477153 33.92,47 C33.92,47.5522847 33.4722847,48 32.92,48 L7,48 C4.24040283,48.0044048 2.00440479,50.2404028 2,53 C2.00325114,55.760076 4.23992404,57.9967489 7,58 L45.9893,58 L45.99,58 C46.2811354,57.7806966 46.668361,57.7366894 47.0012827,57.8850704 C47.3342045,58.0334514 47.5603592,58.3508381 47.5919111,58.7139611 C47.623463,59.0770841 47.4554398,59.4287209 47.1531,59.6323 C47.0884605,59.6806528 47.0191097,59.7223638 46.9461,59.7568 C46.9051,59.7803 46.8661,59.8018 46.8387,59.814 C46.6821763,59.8935545 46.5135065,59.9465109 46.3396,59.9707 C46.2273966,59.9897753 46.1138125,59.9995751 46,60 Z M45.8838,58.0913 L45.8828,58.0928 L45.8838,58.0913 Z M45.8984,58.0613 L45.8965,58.0623 L45.8984,58.0613 Z M45.9531,58.0208 L45.9365,58.0286 L45.9531,58.0208 Z M46.1931,57.9085 L46.1911,57.909 L46.1931,57.9085 Z" id="Shape" fill="#4482C3" fill-rule="nonzero"/><path d="M34.7,52 L19,52 C18.4477153,52 18,51.5522847 18,51 C18,50.4477153 18.4477153,50 19,50 L34.7,50 C35.2522847,50 35.7,50.4477153 35.7,51 C35.7,51.5522847 35.2522847,52 34.7,52 Z" id="Shape" fill="#B19046" fill-rule="nonzero"/><path d="M38.03,56 L19,56 C18.4477153,56 18,55.5522847 18,55 C18,54.4477153 18.4477153,54 19,54 L38.03,54 C38.5822847,54 39.03,54.4477153 39.03,55 C39.03,55.5522847 38.5822847,56 38.03,56 Z" id="Shape" fill="#B19046" fill-rule="nonzero"/><path d="M49.75,41.6 C49.5414816,41.143545 49.300879,40.7024402 49.03,40.28 C48.4488447,39.3734528 47.7679291,38.5348868 47,37.78 C41.21,32.01 31.1,30.52 31.1,30.52 C31.1,30.52 30.37,39.46 32.92,47 C33.3777717,48.3896211 33.9741042,49.7296941 34.7,51 C34.8,51.17 34.91,51.35 35.02,51.52 C35.8386837,52.8276807 36.8539222,54.0014447 38.03,55 C40.4730598,57.0402618 43.4380911,58.356514 46.59,58.8 L46.6,58.8 C47.3115741,58.9131978 48.0297559,58.9800054 48.75,59 L48.76,59" id="Shape" fill="#4FBA6F" fill-rule="nonzero"/><path d="M8,52 C7.54609658,52.0000026 7.14883716,51.6949991 7.03160469,51.2564961 C6.91437222,50.8179931 7.10642718,50.3554382 7.49977516,50.1289306 C7.89312313,49.902423 8.38958693,49.9684976 8.71,50.29 C8.89406469,50.480769 8.99787229,50.7349187 9,51 C9.00270108,51.2660353 8.89821183,51.5219616 8.71008674,51.7100867 C8.52196165,51.8982118 8.26603534,52.0027011 8,52 Z" id="Shape" fill="#B19046" fill-rule="nonzero"/><path d="M15,52 L12,52 C11.4477153,52 11,51.5522847 11,51 C11,50.4477153 11.4477153,50 12,50 L15,50 C15.5522847,50 16,50.4477153 16,51 C16,51.5522847 15.5522847,52 15,52 Z" id="Shape" fill="#B19046" fill-rule="nonzero"/><path d="M8,56 C7.54609658,56.0000026 7.14883716,55.6949991 7.03160469,55.2564961 C6.91437222,54.8179931 7.10642718,54.3554382 7.49977516,54.1289306 C7.89312313,53.902423 8.38958693,53.9684976 8.71,54.29 C8.89406469,54.480769 8.99787229,54.7349187 9,55 C9.00270108,55.2660353 8.89821183,55.5219616 8.71008674,55.7100867 C8.52196165,55.8982118 8.26603534,56.0027011 8,56 Z" id="Shape" fill="#B19046" fill-rule="nonzero"/><path d="M15,56 L12,56 C11.4477153,56 11,55.5522847 11,55 C11,54.4477153 11.4477153,54 12,54 L15,54 C15.5522847,54 16,54.4477153 16,55 C16,55.5522847 15.5522847,56 15,56 Z" id="Shape" fill="#B19046" fill-rule="nonzero"/><path d="M24,29 C23.4477153,29 23,28.5522847 23,28 L23,27 C22.9995038,26.4479209 22.5520791,26.0004962 22,26 L19,26 C17.3438997,25.9981813 16.0018187,24.6561003 16,23 L16,21 C16,20.4477153 16.4477153,20 17,20 C17.5522847,20 18,20.4477153 18,21 L18,23 C18.0004962,23.5520791 18.4479209,23.9995038 19,24 L22,24 C23.6561003,24.0018187 24.9981813,25.3438997 25,27 L25,28 C25,28.5522847 24.5522847,29 24,29 Z" id="Shape" fill="#285680" fill-rule="nonzero"/><path d="M24,29 C23.4477153,29 23,28.5522847 23,28 L23,27 C23.0018187,25.3438997 24.3438997,24.0018187 26,24 L29,24 C29.5520791,23.9995038 29.9995038,23.5520791 30,23 L30,21 C30,20.4477153 30.4477153,20 31,20 C31.5522847,20 32,20.4477153 32,21 L32,23 C31.9981813,24.6561003 30.6561003,25.9981813 29,26 L26,26 C25.4479209,26.0004962 25.0004962,26.4479209 25,27 L25,28 C25,28.5522847 24.5522847,29 24,29 Z" id="Shape" fill="#285680" fill-rule="nonzero"/><path d="M8,6 L7,6 C6.44771525,6 6,5.55228475 6,5 C6,4.44771525 6.44771525,4 7,4 L8,4 C8.55228475,4 9,4.44771525 9,5 C9,5.55228475 8.55228475,6 8,6 Z" id="Shape" fill="#67B9CC" fill-rule="nonzero"/><path d="M24,6 L13,6 C12.4477153,6 12,5.55228475 12,5 C12,4.44771525 12.4477153,4 13,4 L24,4 C24.5522847,4 25,4.44771525 25,5 C25,5.55228475 24.5522847,6 24,6 Z" id="Shape" fill="#67B9CC" fill-rule="nonzero"/><path d="M46.91,50.83 C46.4458719,50.8331651 46.0413101,50.5147703 45.9353,50.0629 C43.9607,44.5814 38.5418,41.2909 38.4871,41.2582 C38.1738049,41.0782209 37.9819606,40.7432373 37.9852685,40.3819405 C37.9885764,40.0206437 38.1865219,39.6892288 38.5030598,39.5150162 C38.8195978,39.3408036 39.2054948,39.3508898 39.5125,39.5414 C39.7635,39.6914 45.6687,43.2782 47.8533,49.4877 C47.9608496,49.7948307 47.9136543,50.1349798 47.726549,50.4012274 C47.5394437,50.6674751 47.2354043,50.8271272 46.91,50.83 Z" id="Shape" fill="#4C8056" fill-rule="nonzero"/><path d="M58.6,50.19 C57.09,55.41 51.34,58.02 49.4,58.77 C49.03,58.91 48.79,58.99 48.76,59 L48.75,59 C48.0544251,58.2180663 47.4659326,57.3470975 47,56.41 C45.7680257,54.0899995 45.3826136,51.4133298 45.91,48.84 L45.91,48.82 C45.97,48.56 46.03,48.3 46.11,48.03 C46.3403739,47.2489889 46.63816,46.4894671 47,45.76 C47,45.76 47.01,45.76 47,45.75 C47.7601007,44.2698443 48.6860489,42.880922 49.76,41.61 C51.4338093,39.5888739 53.3214697,37.7548593 55.39,36.14 C55.39,36.14 60.43,43.88 58.6,50.19 Z" id="Shape" fill="#24AE5F" fill-rule="nonzero"/><path d="M49.1992,60 C48.7967838,59.9999492 48.4336036,59.7586882 48.2775642,59.3877563 C48.1215248,59.0168243 48.2030306,58.5884979 48.4844,58.3008 C48.541,58.2408 51.1006,55.4199 52.4092,46.2573 C52.4597888,45.9036071 52.6952277,45.6037701 53.0268292,45.4707349 C53.3584307,45.3376996 53.7358165,45.3916772 54.0168292,45.6123349 C54.2978419,45.8329925 54.4397888,46.1868071 54.3892,46.5405 C52.958,56.5562 50.03,59.583 49.9063,59.707 C49.718964,59.8948448 49.464493,60.0002896 49.1992,60 Z" id="Shape" fill="#4C8056" fill-rule="nonzero"/><path d="M25.66,32.12 C26.4615268,32.397255 26.9993947,33.1518755 27,34 L27,36 C27,36.5522847 26.5522847,37 26,37 L22,37 C21.4477153,37 21,36.5522847 21,36 L21,34 C21.0006053,33.1518755 21.5384732,32.397255 22.34,32.12 L25.66,32.12 Z" id="Shape" fill="#C03A2B"/><path d="M18.66,16.12 C19.4615268,16.397255 19.9993947,17.1518755 20,18 L20,20 C20,20.5522847 19.5522847,21 19,21 L15,21 C14.4477153,21 14,20.5522847 14,20 L14,18 C14.0006053,17.1518755 14.5384732,16.397255 15.34,16.12 L18.66,16.12 Z" id="Shape" fill="#C03A2B"/><path d="M32.66,16.12 C33.4615268,16.397255 33.9993947,17.1518755 34,18 L34,20 C34,20.5522847 33.5522847,21 33,21 L29,21 C28.4477153,21 28,20.5522847 28,20 L28,18 C28.0006053,17.1518755 28.5384732,16.397255 29.34,16.12 L32.66,16.12 Z" id="Shape" fill="#C03A2B"/><rect id="Rectangle-path" fill="#FDD7AD" fill-rule="nonzero" x="22" y="28" width="4" height="5" rx="2"/><rect id="Rectangle-path" fill="#FDD7AD" fill-rule="nonzero" x="15" y="12" width="4" height="5" rx="2"/><rect id="Rectangle-path" fill="#FDD7AD" fill-rule="nonzero" x="29" y="12" width="4" height="5" rx="2"/></g></g></svg>
