<?xml version="1.0" encoding="UTF-8"?>
<svg xmlns="http://www.w3.org/2000/svg" xmlns:xlink="http://www.w3.org/1999/xlink" width="512" height="512" viewBox="0 0 58 60" version="1.1"><!-- Generator: Sketch 51.3 (57544) - http://www.bohemiancoding.com/sketch --><title>008 - Family Tree</title><desc>Created with Sketch.</desc><defs/><g id="Page-1" stroke="none" stroke-width="1" fill="none" fill-rule="evenodd"><g id="008---Family-Tree" fill-rule="nonzero"><circle id="Oval" fill="#285680" cx="19" cy="9" r="8"/><circle id="Oval" fill="#285680" cx="29" cy="30" r="8"/><circle id="Oval" fill="#285680" cx="9" cy="30" r="8"/><circle id="Oval" fill="#285680" cx="40" cy="51" r="8"/><circle id="Oval" fill="#285680" cx="49" cy="30" r="8"/><circle id="Oval" fill="#285680" cx="39" cy="9" r="8"/><path d="M24.81,14.5 C24.2999162,12.5349374 22.8334961,10.9594759 20.91,10.31 L17.09,10.31 C15.1665039,10.9594759 13.7000838,12.5349374 13.19,14.5 L19,16.5 L24.81,14.5 Z" id="Shape" fill="#C03A2B"/><circle id="Oval" fill="#FDD7AD" cx="19" cy="8" r="3"/><path d="M34.81,35.5 C34.2999162,33.5349374 32.8334961,31.9594759 30.91,31.31 L27.09,31.31 C25.1665039,31.9594759 23.7000838,33.5349374 23.19,35.5 L29,37.5 L34.81,35.5 Z" id="Shape" fill="#E4C05C"/><circle id="Oval" fill="#FDD7AD" cx="29" cy="29" r="3"/><path d="M14.81,35.5 C14.2999162,33.5349374 12.8334961,31.9594759 10.91,31.31 L7.09,31.31 C5.16650386,31.9594759 3.70008384,33.5349374 3.19,35.5 L9,37.5 L14.81,35.5 Z" id="Shape" fill="#D75E72"/><circle id="Oval" fill="#FDD7AD" cx="9" cy="29" r="3"/><path d="M45.81,56.5 C45.2999162,54.5349374 43.8334961,52.9594759 41.91,52.31 L38.09,52.31 C36.1665039,52.9594759 34.7000838,54.5349374 34.19,56.5 L40,58.5 L45.81,56.5 Z" id="Shape" fill="#65DDB9"/><circle id="Oval" fill="#FDD7AD" cx="40" cy="50" r="3"/><path d="M54.81,35.5 C54.2999162,33.5349374 52.8334961,31.9594759 50.91,31.31 L47.09,31.31 C45.1665039,31.9594759 43.7000838,33.5349374 43.19,35.5 L49.25,37.5 L54.81,35.5 Z" id="Shape" fill="#527F72"/><circle id="Oval" fill="#FDD7AD" cx="49" cy="29" r="3"/><path d="M44.81,14.5 C44.2999162,12.5349374 42.8334961,10.9594759 40.91,10.31 L37.09,10.31 C35.1665039,10.9594759 33.7000838,12.5349374 33.19,14.5 L39.2083,16.5 L44.81,14.5 Z" id="Shape" fill="#F18D46"/><circle id="Oval" fill="#FDD7AD" cx="39" cy="8" r="3"/><path d="M29,23 C28.4477153,23 28,22.5522847 28,22 L28,21 C27.9995038,20.4479209 27.5520791,20.0004962 27,20 L21,20 C19.3438997,19.9981813 18.0018187,18.6561003 18,17 C18,16.4477153 18.4477153,16 19,16 C19.5522847,16 20,16.4477153 20,17 C20.0004962,17.5520791 20.4479209,17.9995038 21,18 L27,18 C28.6561003,18.0018187 29.9981813,19.3438997 30,21 L30,22 C30,22.2652165 29.8946432,22.5195704 29.7071068,22.7071068 C29.5195704,22.8946432 29.2652165,23 29,23 Z" id="Shape" fill="#285680"/><path d="M9,23 C8.44771525,23 8,22.5522847 8,22 L8,21 C8.00181871,19.3438997 9.34389967,18.0018187 11,18 L17,18 C17.5520791,17.9995038 17.9995038,17.5520791 18,17 C18,16.4477153 18.4477153,16 19,16 C19.5522847,16 20,16.4477153 20,17 C19.9981813,18.6561003 18.6561003,19.9981813 17,20 L11,20 C10.4479209,20.0004962 10.0004962,20.4479209 10,21 L10,22 C10,22.5522847 9.55228475,23 9,23 Z" id="Shape" fill="#285680"/><path d="M29,23 C28.4477153,23 28,22.5522847 28,22 L28,21 C28.0018187,19.3438997 29.3438997,18.0018187 31,18 L37,18 C37.5520791,17.9995038 37.9995038,17.5520791 38,17 C38,16.4477153 38.4477153,16 39,16 C39.5522847,16 40,16.4477153 40,17 C39.9981813,18.6561003 38.6561003,19.9981813 37,20 L31,20 C30.4479209,20.0004962 30.0004962,20.4479209 30,21 L30,22 C30,22.5522847 29.5522847,23 29,23 Z" id="Shape" fill="#285680"/><path d="M40,44 C39.4477153,44 39,43.5522847 39,43 L39,42 C38.9995038,41.4479209 38.5520791,41.0004962 38,41 L31,41 C29.3438997,40.9981813 28.0018187,39.6561003 28,38 C28,37.4477153 28.4477153,37 29,37 C29.5522847,37 30,37.4477153 30,38 C30.0004962,38.5520791 30.4479209,38.9995038 31,39 L38,39 C39.6561003,39.0018187 40.9981813,40.3438997 41,42 L41,43 C41,43.5522847 40.5522847,44 40,44 Z" id="Shape" fill="#285680"/><path d="M40,44 C39.4477153,44 39,43.5522847 39,43 L39,42 C39.0018187,40.3438997 40.3438997,39.0018187 42,39 L49,39 C49.5520791,38.9995038 49.9995038,38.5520791 50,38 C50,37.4477153 50.4477153,37 51,37 C51.5522847,37 52,37.4477153 52,38 C51.9981813,39.6561003 50.6561003,40.9981813 49,41 L42,41 C41.4479209,41.0004962 41.0004962,41.4479209 41,42 L41,43 C41,43.2652165 40.8946432,43.5195704 40.7071068,43.7071068 C40.5195704,43.8946432 40.2652165,44 40,44 Z" id="Shape" fill="#285680"/><path d="M41,31 L37,31 C36.4477153,31 36,30.5522847 36,30 C36,29.4477153 36.4477153,29 37,29 L41,29 C41.5522847,29 42,29.4477153 42,30 C42,30.5522847 41.5522847,31 41,31 Z" id="Shape" fill="#285680"/><path d="M19,18 C14.0294373,18 10,13.9705627 10,9 C10,4.02943725 14.0294373,9.13077564e-16 19,0 C23.9705627,-9.13077564e-16 28,4.02943725 28,9 C27.9944889,13.9682782 23.9682782,17.9944889 19,18 Z M19,2 C15.1340068,2 12,5.13400675 12,9 C12,12.8659932 15.1340068,16 19,16 C22.8659932,16 26,12.8659932 26,9 C25.9955364,5.13585715 22.8641428,2.00446362 19,2 Z" id="Shape" fill="#4482C3"/><path d="M29,39 C24.0294373,39 20,34.9705627 20,30 C20,25.0294373 24.0294373,21 29,21 C33.9705627,21 38,25.0294373 38,30 C37.9944889,34.9682782 33.9682782,38.9944889 29,39 Z M29,23 C25.1340068,23 22,26.1340068 22,30 C22,33.8659932 25.1340068,37 29,37 C32.8659932,37 36,33.8659932 36,30 C35.9955364,26.1358572 32.8641428,23.0044636 29,23 Z" id="Shape" fill="#4482C3"/><path d="M9,39 C4.02943725,39 6.66133815e-16,34.9705627 0,30 C-6.66133815e-16,25.0294373 4.02943725,21 9,21 C13.9705627,21 18,25.0294373 18,30 C17.9944889,34.9682782 13.9682782,38.9944889 9,39 Z M9,23 C5.13400675,23 2,26.1340068 2,30 C2,33.8659932 5.13400675,37 9,37 C12.8659932,37 16,33.8659932 16,30 C15.9955364,26.1358572 12.8641428,23.0044636 9,23 Z" id="Shape" fill="#4482C3"/><path d="M40,60 C35.0294373,60 31,55.9705627 31,51 C31,46.0294373 35.0294373,42 40,42 C44.9705627,42 49,46.0294373 49,51 C48.9944889,55.9682782 44.9682782,59.9944889 40,60 Z M40,44 C36.1340068,44 33,47.1340068 33,51 C33,54.8659932 36.1340068,58 40,58 C43.8659932,58 47,54.8659932 47,51 C46.9955364,47.1358572 43.8641428,44.0044636 40,44 Z" id="Shape" fill="#4482C3"/><path d="M49,39 C44.0294373,39 40,34.9705627 40,30 C40,25.0294373 44.0294373,21 49,21 C53.9705627,21 58,25.0294373 58,30 C57.9944889,34.9682782 53.9682782,38.9944889 49,39 Z M49,23 C45.1340068,23 42,26.1340068 42,30 C42,33.8659932 45.1340068,37 49,37 C52.8659932,37 56,33.8659932 56,30 C55.9955364,26.1358572 52.8641428,23.0044636 49,23 Z" id="Shape" fill="#4482C3"/><path d="M39,18 C34.0294373,18 30,13.9705627 30,9 C30,4.02943725 34.0294373,9.13077564e-16 39,0 C43.9705627,-9.13077564e-16 48,4.02943725 48,9 C47.9944889,13.9682782 43.9682782,17.9944889 39,18 Z M39,2 C35.1340068,2 32,5.13400675 32,9 C32,12.8659932 35.1340068,16 39,16 C42.8659932,16 46,12.8659932 46,9 C45.9955364,5.13585715 42.8641428,2.00446362 39,2 Z" id="Shape" fill="#4482C3"/></g></g></svg>
