<?xml version="1.0" encoding="UTF-8"?>
<svg xmlns="http://www.w3.org/2000/svg" xmlns:xlink="http://www.w3.org/1999/xlink" width="512" height="512" viewBox="0 0 41 59" version="1.1"><!-- Generator: Sketch 51.3 (57544) - http://www.bohemiancoding.com/sketch --><title>015 - Greek Foot Type</title><desc>Created with Sketch.</desc><defs/><g id="Page-1" stroke="none" stroke-width="1" fill="none" fill-rule="evenodd"><g id="015---Greek-Foot-Type" fill-rule="nonzero"><path d="M40.6276,36.0333 C40.3635,33.4533 39.8657,30.8892 39.7676,28.2962 C39.651,25.2262 40.0957,22.1634 40.2018,19.0926 C40.4077752,17.4032415 40.0512155,15.6930905 39.1873,14.2268 C38.5580727,13.3765251 37.5725946,12.8630778 36.5152,12.8346 C35.2101,12.8319 34.6721,13.8346 34.2815,14.9386 C34.1010155,15.2821055 33.9921501,15.658678 33.9615,16.0455 C33.7808,13.8408 34.5656,11.3905 33.347,9.5444 C32.5026314,8.26500114 30.9148609,7.69687529 29.4505068,8.15018178 C27.9861527,8.60348828 26.9970566,9.96931076 27.0232,11.502 C26.6547,9.1995 27.6432,6.6067 26.4049,4.6312 C25.5870614,3.32728296 24.0086557,2.71705588 22.5263925,3.13173102 C21.0441293,3.54640616 20.0115066,4.88708955 19.989,6.4261 C20.1525,4.5036 20.2229,2.3096 18.8576,0.9461 C17.5829698,-0.244008403 15.62028,-0.2946255 14.286,0.8282 C13.202949,2.02553654 12.6983217,3.63698225 12.905,5.2382 C13.119008,6.81672588 13.1472674,8.41489494 12.9892,10 C12.929364,7.24237893 11.0469894,4.85926249 8.3782,4.1624 C6.76516076,3.81362108 5.07963019,4.13195059 3.7049,5.045 C3.01230673,5.49176105 2.41951077,6.07682874 1.9637,6.7635 C1.72663571,7.06590808 1.54110911,7.40537006 1.4146,7.7682 C1.27859237,8.29270449 1.17598643,8.82530681 1.1074,9.3628 C0.906699844,11.8937835 0.908104293,14.4367397 1.1116,16.9675 C1.2716,23.0675 0.217,29.2426 1.3599,35.2375 C2.1279,39.2651 3.8655,43.0612 4.5988,47.0952 C5.11588472,50.7051541 5.22754561,54.3616207 4.9317,57.9964 L37.994,58.0042 C38.1368,51.4749 40.8771,45.1819 40.7908,38.6516 C40.7792,37.7758 40.7167,36.9037 40.6276,36.0333 Z" id="Shape" fill="#FDD7AD"/><path d="M8.0005,19 L6.0005,19 C5.44821525,19 5.0005,18.5522847 5.0005,18 C5.0005,17.4477153 5.44821525,17 6.0005,17 L8.0005,17 C8.55278475,17 9.0005,17.4477153 9.0005,18 C9.0005,18.5522847 8.55278475,19 8.0005,19 Z" id="Shape" fill="#F09372"/><path d="M7,31 C6.44771525,31 6,30.5522847 6,30 L6,27 C6,26.4477153 6.44771525,26 7,26 C7.55228475,26 8,26.4477153 8,27 L8,30 C8,30.5522847 7.55228475,31 7,31 Z" id="Shape" fill="#F09372"/><path d="M5,4 L9,4 C10.1045695,4 11,4.8954305 11,6 L11,11 C11,13.209139 9.209139,15 7,15 C4.790861,15 3,13.209139 3,11 L3,6 C3,4.8954305 3.8954305,4 5,4 Z" id="Shape" fill="#ECF0F1"/><path d="M15,1 L18,1 C18.5522847,1 19,1.44771525 19,2 L19,4.5 C19,5.88071187 17.8807119,7 16.5,7 C15.1192881,7 14,5.88071187 14,4.5 L14,2 C14,1.44771525 14.4477153,1 15,1 Z" id="Shape" fill="#ECF0F1"/><path d="M22,4 L25,4 C25.5522847,4 26,4.44771525 26,5 L26,7.5 C26,8.88071187 24.8807119,10 23.5,10 C22.1192881,10 21,8.88071187 21,7.5 L21,5 C21,4.44771525 21.4477153,4 22,4 Z" id="Shape" fill="#ECF0F1"/><path d="M29,9 L32,9 C32.5522847,9 33,9.44771525 33,10 L33,12.5 C33,13.8807119 31.8807119,15 30.5,15 C29.1192881,15 28,13.8807119 28,12.5 L28,10 C28,9.44771525 28.4477153,9 29,9 Z" id="Shape" fill="#ECF0F1"/><path d="M36,14 L38,14 C38.5522847,14 39,14.4477153 39,15 L39,16 C39,17.1045695 38.1045695,18 37,18 C35.8954305,18 35,17.1045695 35,16 L35,15 C35,14.4477153 35.4477153,14 36,14 Z" id="Shape" fill="#ECF0F1"/><path d="M13,22 C12.4477153,22 12,21.5522847 12,21 L12,12 C12,11.4477153 12.4477153,11 13,11 C13.5522847,11 14,11.4477153 14,12 L14,21 C14,21.5522847 13.5522847,22 13,22 Z" id="Shape" fill="#F09372"/><path d="M20,16 C19.4477153,16 19,15.5522847 19,15 L19,10 C19,9.44771525 19.4477153,9 20,9 C20.5522847,9 21,9.44771525 21,10 L21,15 C21,15.5522847 20.5522847,16 20,16 Z" id="Shape" fill="#F09372"/><path d="M27,21 C26.4477153,21 26,20.5522847 26,20 L26,15 C26,14.4477153 26.4477153,14 27,14 C27.5522847,14 28,14.4477153 28,15 L28,20 C28,20.5522847 27.5522847,21 27,21 Z" id="Shape" fill="#F09372"/><path d="M34,23 C33.4477153,23 33,22.5522847 33,22 L33,19 C33,18.4477153 33.4477153,18 34,18 C34.5522847,18 35,18.4477153 35,19 L35,22 C35,22.5522847 34.5522847,23 34,23 Z" id="Shape" fill="#F09372"/></g></g></svg>
