<svg id="Capa_1" enable-background="new 0 0 512 512" height="512" viewBox="0 0 512 512" width="512" xmlns="http://www.w3.org/2000/svg"><path d="m9.822 203.396h292.042v292.042h-292.042z" fill="#4c60de"/><path d="m160.095 203.396h141.769v292.042h-141.769z" fill="#25509f"/><path d="m16.102 96.757h292.572v111.493h-292.572z" fill="#f2f2fc"/><path d="m206.593 399.742h95.271v95.696h-95.271z" fill="#ea0016"/><path d="m160.095 96.757h148.579v111.493h-148.579z" fill="#e2d9fb"/><path d="m0 87.413v424.587h317.577v-424.587zm126.01 299.223v-66.05h66.05v66.05zm66.049 29.658v66.05h-66.05v-66.05zm0-191.415v66.051h-66.05v-66.051zm-95.706 66.051h-66.696v-66.051h66.695v66.051zm0 29.657v66.05h-66.696v-66.05zm125.363 0h66.204v66.05h-66.204zm0-29.657v-66.051h66.204v66.051zm66.204-173.86v78.152h-258.263v-78.152zm-258.263 299.224h66.695v66.05h-66.695zm192.059 66.049v-66.05h66.204v66.05z" fill="#00d7df"/><path d="m160.095 87.413v29.657h127.825v78.152h-127.825v29.657h31.964v66.051h-31.964v29.657h31.964v66.05h-31.964v29.657h31.964v66.05h-31.964v29.656h157.482v-424.587zm127.825 394.93h-66.204v-66.05h66.204zm0-95.707h-66.204v-66.05h66.204zm0-95.706h-66.204v-66.051h66.204z" fill="#00b2cc"/><path d="m402.95 512-54.866-106.781v-350.352c-.001-30.254 24.612-54.867 54.866-54.867s54.866 24.613 54.866 54.866v350.353z" fill="#4c60de"/><path d="m402.95 0v512l54.866-106.781v-350.353c0-30.253-24.613-54.866-54.866-54.866z" fill="#25509f"/><path d="m402.95 512-54.866-106.781h109.733z" fill="#25509f"/><path d="m457.816 405.219h-54.866v106.781z" fill="#19408e"/><path d="m457.816 103.727v-48.861c0-30.253-24.613-54.866-54.866-54.866s-54.866 24.613-54.866 54.866v48.861z" fill="#fa502e"/><path d="m457.816 54.866c0-30.253-24.613-54.866-54.866-54.866v103.727h54.867v-48.861z" fill="#ea0016"/><path d="m348.083 110.727h109.733v55.264h-109.733z" fill="#25509f"/><path d="m402.95 110.727h54.867v55.264h-54.867z" fill="#19408e"/><path d="m512 261.682h-29.657v-128.284h-134.26v-29.657h163.917z" fill="#ffda2d"/><path d="m402.95 103.741v29.657h79.393v128.284h29.657v-157.941z" fill="#fdbf00"/></svg>