<svg id="Capa_1" enable-background="new 0 0 512 512" height="512" viewBox="0 0 512 512" width="512" xmlns="http://www.w3.org/2000/svg"><path d="m309.975 490.359-39.878-79.746h-90.624l-39.878 79.746z" fill="#25509f"/><path d="m270.097 410.613h-45.44v79.746h85.318z" fill="#19408e"/><path d="m112.011 482.094h225.292v29.906h-225.292z" fill="#4c60de"/><path d="m224.657 482.094h112.646v29.906h-112.646z" fill="#25509f"/><path d="m.212 87.681h448.889v303.311h-448.889z" fill="#f2f2fc"/><path d="m.212 87.681h146.475v303.311h-146.475z" fill="#ffda2d"/><path d="m224.657 87.681h224.444v303.311h-224.444z" fill="#e2d9fb"/><path d="m.212 349.733h448.889v82.52h-448.889z" fill="#4c60de"/><path d="m224.657 349.733h224.444v82.52h-224.444z" fill="#25509f"/><path d="m224.657 405.946c7.822 0 15.315-6.878 14.953-14.953-.363-8.102-6.57-14.953-14.953-14.953-7.822 0-15.315 6.878-14.953 14.953.363 8.101 6.57 14.953 14.953 14.953z" fill="#25509f"/><path d="m239.61 390.993c-.363-8.102-6.57-14.953-14.953-14.953v29.906c7.821 0 15.315-6.878 14.953-14.953z" fill="#19408e"/><path d="m511.788 274.92h-271.464v-274.92h271.464z" fill="#00d7df"/><path d="m511.788 62.259h-271.464v-62.259h271.464z" fill="#4c60de"/><g fill="#fa502e"><path d="m34.045 150.97h77.949v29.906h-77.949z"/><path d="m34.045 206.798h77.949v29.906h-77.949z"/><path d="m34.045 264.62h77.949v29.906h-77.949z"/></g><path d="m375.212 0h136.576v274.92h-136.576z" fill="#00b2cc"/><path d="m375.212 0h136.576v62.259h-136.576z" fill="#25509f"/><path d="m432.882 203.396-21.147-21.147 14.123-14.122-14.123-14.124 21.147-21.146 35.27 35.27z" fill="#e2d9fb"/><path d="m320.227 203.396-35.271-35.269 35.271-35.27 21.146 21.146-14.122 14.124 14.122 14.122z" fill="#f2f2fc"/><path d="m317.685 151.039h120.386v29.906h-120.386z" fill="#f2f2fc" transform="matrix(.358 -.934 .934 .358 87.666 459.457)"/><path d="m375.212 214.738 38.167-99.604-27.926-10.701-10.241 26.727z" fill="#e2d9fb"/></svg>