<svg id="Capa_1" enable-background="new 0 0 512 512" height="512" viewBox="0 0 512 512" width="512" xmlns="http://www.w3.org/2000/svg"><path d="m49.593 512c-13.247 0-25.701-5.158-35.068-14.525-9.366-9.367-14.525-21.821-14.525-35.068s5.159-25.701 14.526-35.067l126.995-126.995 69.639 70.63-126.5 126.5c-9.366 9.366-21.82 14.525-35.067 14.525z" fill="#fa502e"/><path d="m307.998 408.005c-54.491 0-105.721-21.22-144.251-59.751-38.531-38.531-59.751-89.761-59.751-144.251s21.22-105.72 59.751-144.251c38.53-38.532 89.76-59.752 144.251-59.752s105.721 21.22 144.251 59.751c38.531 38.531 59.751 89.761 59.751 144.252s-21.22 105.72-59.751 144.251-89.76 59.751-144.251 59.751z" fill="#00d7df"/><path d="m14.574 497.52c9.361 9.338 21.794 14.48 35.019 14.48 13.247 0 25.701-5.158 35.067-14.525l126.5-126.5-34.773-35.268z" fill="#ea0016"/><path d="m163.794 348.3c38.525 38.502 89.735 59.705 144.204 59.705 54.491 0 105.72-21.22 144.251-59.751s59.751-89.761 59.751-144.251c0-54.469-21.203-105.678-59.705-144.204z" fill="#00b2cc"/><path d="m319.518 178.961c0-4.697-3.821-8.518-8.518-8.518h-5.063c-4.697 0-8.518 3.821-8.518 8.518s3.821 8.518 8.518 8.518h5.063c4.104 0 8.057.652 11.769 1.846l10.364-10.364z" fill="none"/><path d="m305.937 234.505h5.063c4.697 0 8.518-3.821 8.518-8.518s-3.821-8.518-8.518-8.518h-5.063c-3.455 0-6.802-.464-9.989-1.322l-9.84 9.84h11.311c-.001 4.696 3.821 8.518 8.518 8.518z" fill="none"/><path d="m49.593 512c-13.247 0-25.701-5.158-35.068-14.525-9.366-9.367-14.525-21.821-14.525-35.068s5.159-25.701 14.526-35.067l27.808-27.808 69.639 70.63-27.313 27.312c-9.366 9.367-21.82 14.526-35.067 14.526z" fill="#ea0016"/><path d="m14.574 497.52c9.361 9.338 21.794 14.48 35.019 14.48 13.247 0 25.701-5.158 35.067-14.525l27.313-27.313-34.773-35.268z" fill="#b81b20"/><path d="m307.998 347.177c-36.681 0-73.362-13.962-101.287-41.887-55.85-55.85-55.85-146.724 0-202.574 55.849-55.851 146.724-55.851 202.574 0 55.85 55.85 55.85 146.724 0 202.574-27.925 27.925-64.606 41.887-101.287 41.887z" fill="#f2f2fc"/><path d="m206.758 305.336c27.919 27.894 64.579 41.841 101.24 41.841 36.681 0 73.362-13.962 101.287-41.887 55.834-55.834 55.849-146.673.046-202.526z" fill="#e2d9fb"/><path d="m311 187.479h-5.063c-4.697 0-8.518-3.821-8.518-8.518s3.821-8.518 8.518-8.518h5.063c4.697 0 8.518 3.821 8.518 8.518h29.989c0-16.871-10.911-31.233-26.044-36.426v-24.33h-29.989v24.33c-15.133 5.192-26.045 19.554-26.045 36.426 0 21.233 17.274 38.507 38.507 38.507h5.064c4.697 0 8.518 3.821 8.518 8.518s-3.821 8.518-8.518 8.518h-5.063c-4.697 0-8.518-3.821-8.518-8.518h-29.989c0 16.872 10.912 31.234 26.045 36.426v24.33h29.989v-24.33c15.133-5.193 26.044-19.554 26.044-36.426-.001-21.233-17.275-38.507-38.508-38.507z" fill="#fdbf00"/><g fill="#ebb100"><path d="m305.937 217.468h5.063c4.697 0 8.518 3.821 8.518 8.518s-3.821 8.518-8.518 8.518h-5.063c-4.697 0-8.518-3.821-8.518-8.518h-11.311l-15.438 15.438c4.312 9.805 12.594 17.485 22.804 20.988v24.33h29.989v-24.33c15.133-5.193 26.044-19.554 26.044-36.426 0-17.129-11.245-31.676-26.739-36.661l-26.821 26.821c3.188.858 6.535 1.322 9.99 1.322z"/><path d="m349.507 178.961c0-4.865-.912-9.52-2.566-13.808l-13.808 13.808z"/></g></svg>