<svg id="Capa_1" enable-background="new 0 0 512 512" height="512" viewBox="0 0 512 512" width="512" xmlns="http://www.w3.org/2000/svg"><path d="m185.6 512-.152-168.565 140.792-.269.321 168.496-70.561-27.881z" fill="#4c60de"/><path d="m326.24 343.166-70.24.134v140.481l70.561 27.881z" fill="#25509f"/><path d="m314.136 360.357-58.136-12.465-58.907 12.279-39.91-44.578-54.597-24.472-6.067-59.512-29.931-51.828 30.101-51.742 6.315-59.526 54.781-24.104 40.079-44.409 58.136 12.464 58.907-12.279 39.91 44.578 54.597 24.472 6.067 59.511 29.931 51.828-30.101 51.742-6.315 59.526-54.781 24.104z" fill="#fa502e"/><path d="m415.481 128.747-6.067-59.512-54.597-24.472-39.91-44.578-58.907 12.279v335.428l58.136 12.464 40.078-44.409 54.782-24.104 6.315-59.526 30.101-51.743z" fill="#ea0016"/><path d="m256 297.984c-64.958 0-117.806-52.847-117.806-117.806s52.848-117.806 117.806-117.806 117.806 52.847 117.806 117.806-52.848 117.806-117.806 117.806z" fill="#fdbf00"/><path d="m256 62.372v235.612c64.958 0 117.806-52.847 117.806-117.806s-52.848-117.806-117.806-117.806z" fill="#fd982c"/><path d="m293.429 232.67-37.429-15.665-37.429 15.665 3.333-40.437-26.465-30.756 39.488-9.326 21.073-34.676 21.073 34.676 39.488 9.326-26.465 30.756z" fill="#ffda2d"/><path d="m316.561 161.477-39.489-9.326-21.072-34.676v99.53l37.429 15.665-3.333-40.437z" fill="#fdbf00"/></svg>