<svg id="Capa_1" enable-background="new 0 0 512 512" height="512" viewBox="0 0 512 512" width="512" xmlns="http://www.w3.org/2000/svg"><path d="m478.665 512h-445.33v-41.766c0-58.15 22.645-112.819 63.764-153.938 41.118-41.119 95.787-63.763 153.937-63.763h9.929c58.15 0 112.819 22.645 153.937 63.763 41.119 41.118 63.764 95.787 63.764 153.938v41.766z" fill="#4c60de"/><path d="m260.965 252.533h-9.929c-35.022 0-68.776 8.226-99.073 23.743l67.787 235.724h70.392l69.776-235.786c-30.266-15.478-63.978-23.681-98.953-23.681z" fill="#f2f2fc"/><path d="m331.846 371.074-33.648-49.758h-86.082l-33.154 48.849 40.788 141.835h70.393z" fill="#00b2cc"/><path d="m298.198 321.316h-86.082v-74.318l86.082.589z" fill="#00d7df"/><path d="m478.665 470.234c0-58.15-22.645-112.819-63.764-153.938-41.118-41.119-95.787-63.763-153.937-63.763h-4.964v259.467h222.665z" fill="#25509f"/><path d="m359.918 276.214c-30.266-15.477-63.978-23.681-98.954-23.681h-4.964v259.467h34.143z" fill="#e2d9fb"/><path d="m331.846 371.074-33.648-49.758h-42.198v190.684h34.143z" fill="#0f9dce"/><path d="m298.198 247.587-42.198-.289v74.018h42.198z" fill="#00b2cc"/><path d="m258.065 280.831c-77.425 0-140.415-62.99-140.415-140.416 0-77.425 62.99-140.415 140.415-140.415s140.415 62.99 140.415 140.415c0 77.426-62.99 140.416-140.415 140.416z" fill="#ffcebf"/><path d="m258.065 0c-.69 0-1.377.016-2.065.026v280.779c.688.01 1.375.026 2.065.026 77.425 0 140.415-62.99 140.415-140.416 0-77.425-62.99-140.415-140.415-140.415z" fill="#f6b2b2"/><path d="m255.817 215.194-56.823-57.232c-7.597-7.597-11.801-17.745-11.801-28.54s4.204-20.944 11.837-28.576c7.633-7.633 17.781-11.837 28.576-11.837 10.719 0 20.801 4.145 28.416 11.677 7.614-7.532 17.695-11.677 28.414-11.677 10.795 0 20.943 4.204 28.576 11.837s11.837 17.781 11.837 28.576-4.204 20.943-11.837 28.576z" fill="#fa502e"/><path d="m255.817 215.194.205-114.509c7.614-7.532 17.695-11.677 28.414-11.677 10.795 0 20.943 4.204 28.576 11.837s11.837 17.781 11.837 28.576-4.204 20.943-11.837 28.576z" fill="#ea0016"/></svg>