<svg id="Capa_1" enable-background="new 0 0 512 512" height="512" viewBox="0 0 512 512" width="512" xmlns="http://www.w3.org/2000/svg"><path d="m512 154.564c0-20.477-16.659-37.136-37.136-37.136v30.055c3.904 0 7.08 3.176 7.08 7.08 0 3.905-3.176 7.081-7.08 7.081-2.303 0-4.4-1.076-5.754-2.951l-.008.006c-13.828-18.156-30.771-34.14-50.273-46.919l-121.272-29.153-97.131.188c-17.497-24.42-45.974-39.269-76.279-39.269-13.458 0-29.108 4.679-30.848 5.212l-15.311 4.694 24.384 64.578c-23.718 17.022-43.351 39.052-57.517 64.563h-44.855v185.546h41.851c15.701 30.608 38.909 56.332 67.809 75.147v62.843h117.42v-31.073h79.104v31.073h117.42v-64.741c24.963-16.917 45.897-39.48 60.857-65.681 16.886-29.574 25.812-63.306 25.812-97.549 0-30.96-7.796-61.492-21.943-88.995 13.838-5.405 23.67-18.871 23.67-34.599z" fill="#ffdfcf"/><path d="m512 154.564c0-20.477-16.659-37.136-37.136-37.136v30.055c3.904 0 7.08 3.176 7.08 7.08 0 3.905-3.176 7.081-7.08 7.081-2.303 0-4.4-1.076-5.754-2.951l-.008.006c-13.828-18.156-30.771-34.14-50.273-46.919l-121.272-29.153-32.557.064v392.365h41.185v31.073h117.42v-64.741c24.963-16.917 45.897-39.48 60.857-65.681 16.886-29.574 25.812-63.306 25.812-97.549 0-30.96-7.796-61.492-21.943-88.995 13.837-5.405 23.669-18.871 23.669-34.599z" fill="#ffcebf"/><path d="m358.328 157.411c-41.779 0-75.77-33.99-75.77-75.77 0-41.779 33.99-75.77 75.77-75.77s75.77 33.99 75.77 75.77-33.99 75.77-75.77 75.77z" fill="#fdbf00"/><path d="m134.996 211.923c7.861 0 15.391-6.912 15.028-15.028-.365-8.142-6.603-15.028-15.028-15.028-7.861 0-15.391 6.912-15.028 15.028.365 8.143 6.603 15.028 15.028 15.028z" fill="#ffcebf"/><path d="m390.992 196.093c-20.273-20.273-47.058-31.438-75.423-31.438h-39.498v-30.055h39.498c36.393 0 70.726 14.291 96.676 40.241z" fill="#f6b2b2"/></svg>