<svg id="Capa_1" enable-background="new 0 0 512 512" height="512" viewBox="0 0 512 512" width="512" xmlns="http://www.w3.org/2000/svg"><path d="m372.662 490.359-39.878-79.746h-90.625l-39.877 79.746z" fill="#25509f"/><path d="m332.784 410.613h-45.441v79.746h85.319z" fill="#19408e"/><path d="m174.697 482.094h225.292v29.906h-225.292z" fill="#4c60de"/><path d="m287.343 482.094h112.646v29.906h-112.646z" fill="#25509f"/><path d="m62.899 87.681h448.889v303.311h-448.889z" fill="#f2f2fc"/><path d="m287.343 87.681h224.444v303.311h-224.444z" fill="#e2d9fb"/><path d="m62.899 349.733h448.889v82.52h-448.889z" fill="#4c60de"/><path d="m287.343 349.733h224.444v82.52h-224.444z" fill="#25509f"/><path d="m287.343 405.946c7.822 0 15.315-6.878 14.953-14.953-.363-8.102-6.57-14.953-14.953-14.953-7.822 0-15.315 6.878-14.953 14.953.363 8.101 6.571 14.953 14.953 14.953z" fill="#25509f"/><path d="m302.296 390.993c-.363-8.102-6.57-14.953-14.953-14.953v29.906c7.822 0 15.315-6.878 14.953-14.953z" fill="#19408e"/><path d="m198.522 327.858h-198.31v-327.858h198.31z" fill="#f2f2fc"/><path d="m198.522 327.858h-98.164v-327.858h98.164z" fill="#e2d9fb"/><path d="m198.522 327.858h-198.31v-80.283h198.31z" fill="#4c60de"/><path d="m198.522 327.858h-98.164v-80.283h98.164z" fill="#25509f"/><path d="m100.358 300.567c7.822 0 15.315-6.878 14.953-14.953-.363-8.102-6.57-14.953-14.953-14.953-7.822 0-15.315 6.878-14.953 14.953.363 8.101 6.571 14.953 14.953 14.953z" fill="#25509f"/><path d="m100.358 300.567c7.822 0 15.315-6.878 14.953-14.953-.363-8.102-6.57-14.953-14.953-14.953z" fill="#19408e"/></svg>