<svg id="Capa_1" enable-background="new 0 0 512 512" height="512" viewBox="0 0 512 512" width="512" xmlns="http://www.w3.org/2000/svg"><path d="m512 480.412h-512v-448.824h512z" fill="#f2f2fc"/><path d="m256 31.588h256v448.823h-256z" fill="#e2d9fb"/><path d="m512 126.466h-512v-94.878h512z" fill="#4c60de"/><path d="m54 96.238c7.846 0 15.363-6.899 15-15-.364-8.127-6.591-15-15-15-7.846 0-15.363 6.899-15 15 .364 8.127 6.59 15 15 15z" fill="#fa502e"/><path d="m104.003 96.238c7.846 0 15.363-6.899 15-15-.364-8.127-6.591-15-15-15-7.846 0-15.363 6.899-15 15 .364 8.127 6.591 15 15 15z" fill="#ffda2d"/><path d="m154.006 96.238c7.846 0 15.363-6.899 15-15-.364-8.127-6.591-15-15-15-7.846 0-15.363 6.899-15 15 .364 8.127 6.591 15 15 15z" fill="#00d7df"/><path d="m256 31.588h256v94.878h-256z" fill="#25509f"/><path d="m80.206 346.24-35.381-35.381 35.381-35.38 21.213 21.212-14.168 14.168 14.168 14.168z" fill="#fa502e"/><path d="m146.682 273.867v73.985l75.3-36.993z" fill="none"/><path d="m365.318 347.852v-73.985l-75.3 36.992z" fill="none"/><path d="m433.38 346.24-21.213-21.213 14.168-14.168-14.168-14.168 21.213-21.212 35.381 35.38z" fill="#ea0016"/><path d="m125.597 250.5h257.698v120.48h-257.698z" fill="#4c60de"/><path d="m256 250.5h127.295v120.48h-127.295z" fill="#25509f"/><path d="m116.682 234.785v152.148h278.637v-152.148zm105.3 76.074-75.3 36.993v-73.986zm-25.749-46.074h119.534l-59.767 29.362zm59.767 62.787 59.767 29.362h-119.534zm34.018-16.713 75.3-36.993v73.986z" fill="#00d7df"/><path d="m395.318 234.785h-139.318v30h59.767l-59.767 29.362v33.425l59.767 29.362h-59.767v30h139.318zm-30 113.067-75.3-36.993 75.3-36.993z" fill="#00b2cc"/></svg>