<svg id="Capa_1" enable-background="new 0 0 512 512" height="512" viewBox="0 0 512 512" width="512" xmlns="http://www.w3.org/2000/svg"><path d="m478.665 512h-445.33v-41.766c0-58.15 22.645-112.819 63.764-153.938 41.118-41.119 95.787-63.763 153.937-63.763h9.929c58.15 0 112.819 22.645 153.937 63.763 41.119 41.118 63.764 95.787 63.764 153.938v41.766z" fill="#4c60de"/><path d="m260.965 252.533h-9.929c-35.022 0-68.776 8.226-99.073 23.743l67.787 235.724h70.392l69.776-235.786c-30.266-15.478-63.978-23.681-98.953-23.681z" fill="#f2f2fc"/><path d="m331.846 371.074-33.648-49.758h-86.082l-33.154 48.849 40.788 141.835h70.393z" fill="#00b2cc"/><path d="m298.198 321.316h-86.082v-74.318l86.082.589z" fill="#00d7df"/><path d="m478.665 470.234c0-58.15-22.645-112.819-63.764-153.938-41.118-41.119-95.787-63.763-153.937-63.763h-4.964v259.467h222.665z" fill="#25509f"/><path d="m359.918 276.214c-30.266-15.477-63.978-23.681-98.954-23.681h-4.964v259.467h34.143z" fill="#e2d9fb"/><path d="m331.846 371.074-33.648-49.758h-42.198v190.684h34.143z" fill="#0f9dce"/><path d="m298.198 247.587-42.198-.289v74.018h42.198z" fill="#00b2cc"/><path d="m258.065 280.831c-77.425 0-140.415-62.99-140.415-140.416 0-77.425 62.99-140.415 140.415-140.415s140.415 62.99 140.415 140.415c0 77.426-62.99 140.416-140.415 140.416z" fill="#ffcebf"/><path d="m258.065 0c-.69 0-1.377.016-2.065.026v280.779c.688.01 1.375.026 2.065.026 77.425 0 140.415-62.99 140.415-140.416 0-77.425-62.99-140.415-140.415-140.415z" fill="#f6b2b2"/><circle cx="256" cy="142.413" fill="#00d7df" r="74.669"/><path d="m256 67.743v149.339c41.239 0 74.669-33.431 74.669-74.669s-33.43-74.67-74.669-74.67z" fill="#00b2cc"/><g fill="none"><path d="m202.01 157.531c3.481 12.429 11.137 23.124 21.36 30.476-2.793-9.177-4.689-19.433-5.593-30.476z"/><path d="m202.011 127.294h15.768c.904-11.042 2.8-21.298 5.593-30.475-10.224 7.352-17.88 18.047-21.361 30.475z"/><path d="m288.761 188.005c10.222-7.352 17.877-18.046 21.358-30.474h-15.766c-.903 11.041-2.799 21.297-5.592 30.474z"/><path d="m310.119 127.294c-3.481-12.428-11.136-23.122-21.358-30.474 2.793 9.176 4.688 19.432 5.592 30.474z"/></g><path d="m256.065 56.037c-47.627 0-86.375 38.748-86.375 86.375 0 47.628 38.748 86.376 86.375 86.376s86.375-38.748 86.375-86.376c0-47.627-38.748-86.375-86.375-86.375zm54.054 71.257h-15.766c-.904-11.042-2.799-21.297-5.592-30.474 10.222 7.353 17.877 18.046 21.358 30.474zm-61.944 0c1.272-12.302 4.059-23.35 7.891-31.605 3.832 8.255 6.618 19.303 7.89 31.605zm15.781 30.237c-1.272 12.302-4.058 23.35-7.89 31.605-3.832-8.255-6.618-19.304-7.891-31.605zm-40.585-60.712c-2.793 9.177-4.689 19.433-5.593 30.475h-15.768c3.482-12.428 11.138-23.123 21.361-30.475zm-21.361 60.712h15.768c.904 11.042 2.8 21.299 5.593 30.476-10.224-7.353-17.879-18.047-21.361-30.476zm86.751 30.474c2.793-9.177 4.689-19.433 5.592-30.474h15.766c-3.481 12.428-11.136 23.122-21.358 30.474z" fill="#4c60de"/><path d="m256.065 56.037c-.022 0-.043.002-.065.002v39.798c.022-.048.043-.099.066-.147 3.832 8.255 6.618 19.303 7.89 31.605h-7.956v30.236h7.956c-1.272 12.302-4.058 23.35-7.89 31.605-.022-.048-.044-.099-.066-.147v39.798c.022 0 .043.002.065.002 47.628 0 86.375-38.748 86.375-86.376s-38.748-86.376-86.375-86.376zm54.054 71.257h-15.766c-.904-11.042-2.799-21.297-5.592-30.474 10.222 7.353 17.877 18.046 21.358 30.474zm-21.358 60.711c2.793-9.177 4.689-19.433 5.592-30.474h15.766c-3.481 12.428-11.136 23.122-21.358 30.474z" fill="#25509f"/></svg>