<?xml version="1.0" encoding="iso-8859-1"?>
<!-- Generator: Adobe Illustrator 19.0.0, SVG Export Plug-In . SVG Version: 6.00 Build 0)  -->
<svg version="1.1" id="Layer_1" xmlns="http://www.w3.org/2000/svg" xmlns:xlink="http://www.w3.org/1999/xlink" x="0px" y="0px"
	 viewBox="0 0 512 512" style="enable-background:new 0 0 512 512;" xml:space="preserve">
<path style="fill:#D1D4D1;" d="M212.48,418.133h94.72c4.267-29.013,29.013-51.2,58.88-51.2c5.973,0,11.093,0.853,17.067,2.56
	l35.84-64c-16.213-10.24-26.453-29.013-26.453-49.493c0-20.48,10.24-39.253,26.453-49.493l-34.987-64
	c-5.12,1.707-11.093,2.56-17.067,2.56c-29.867,0-54.613-22.187-58.88-51.2H212.48c-4.267,29.013-29.013,51.2-58.88,51.2
	c-5.973,0-12.8-0.853-18.773-2.56L87.04,203.093c19.627,10.24,32.427,30.72,32.427,52.907s-12.8,42.667-32.427,52.907l47.787,60.587
	c5.973-1.707,11.947-2.56,18.773-2.56C183.467,366.933,208.213,389.12,212.48,418.133 M315.733,435.2H204.8
	c-5.12,0-8.533-3.413-8.533-8.533c0-23.893-18.773-42.667-42.667-42.667c-5.973,0-11.947,1.707-17.92,4.267
	c-3.413,1.707-7.68,0.853-10.24-2.56l-58.88-75.093c-1.707-2.56-2.56-5.12-1.707-7.68c0.853-2.56,3.413-5.12,5.973-5.973
	c17.92-5.12,30.72-22.187,30.72-40.96c0-18.773-12.8-35.84-30.72-40.96c-2.56-0.853-5.12-2.56-5.973-5.973
	c-0.853-2.56,0-5.973,1.707-7.68l58.88-75.093c2.56-3.413,6.827-4.267,10.24-2.56c5.973,2.56,11.947,4.267,17.92,4.267
	c23.893,0,42.667-18.773,42.667-42.667c0-5.12,3.413-8.533,8.533-8.533h110.933c5.12,0,8.533,3.413,8.533,8.533
	c0,23.893,18.773,42.667,42.667,42.667c5.973,0,11.947-0.853,17.067-3.413c4.267-1.707,8.533,0,11.093,3.413l43.52,77.653
	c0.853,1.707,1.707,4.267,0.853,6.827c-0.853,2.56-2.56,4.267-4.267,5.12c-16.213,6.827-25.6,22.187-25.6,38.4
	c0,16.213,9.387,31.573,24.747,38.4c2.56,0.853,3.413,2.56,4.267,5.12c0.853,2.56,0.853,5.12-0.853,6.827L395.093,384
	c-2.56,4.267-6.827,5.12-11.093,3.413c-5.12-2.56-11.093-3.413-17.067-3.413c-23.893,0-42.667,18.773-42.667,42.667
	C324.267,431.787,320.853,435.2,315.733,435.2"/>
<path style="fill:#71C285;" d="M157.867,34.133c-30.72,0-55.467,24.747-55.467,55.467s24.747,55.467,55.467,55.467
	s55.467-24.747,55.467-55.467S188.587,34.133,157.867,34.133"/>
<path style="fill:#599967;" d="M140.8,98.133c-5.12,0-8.533-3.413-8.533-8.533c0-14.507,11.093-25.6,25.6-25.6
	c5.12,0,8.533,3.413,8.533,8.533c0,5.12-3.413,8.533-8.533,8.533c-5.12,0-8.533,3.413-8.533,8.533S145.92,98.133,140.8,98.133"/>
<path style="fill:#CC66A1;" d="M366.933,25.6c-33.28,0-59.733,26.453-59.733,59.733s26.453,59.733,59.733,59.733
	s59.733-26.453,59.733-59.733S400.213,25.6,366.933,25.6"/>
<path style="fill:#AD508A;" d="M349.867,93.867c-5.12,0-8.533-3.413-8.533-8.533c0-14.507,11.093-25.6,25.6-25.6
	c5.12,0,8.533,3.413,8.533,8.533s-3.413,8.533-8.533,8.533s-8.533,3.413-8.533,8.533C358.4,90.453,354.987,93.867,349.867,93.867"/>
<path style="fill:#7D6599;" d="M153.6,366.933c-33.28,0-59.733,26.453-59.733,59.733S120.32,486.4,153.6,486.4
	s59.733-26.453,59.733-59.733S186.88,366.933,153.6,366.933"/>
<path style="fill:#63527C;" d="M136.533,435.2c-5.12,0-8.533-3.413-8.533-8.533c0-14.507,11.093-25.6,25.6-25.6
	c5.12,0,8.533,3.413,8.533,8.533c0,5.12-3.413,8.533-8.533,8.533c-5.12,0-8.533,3.413-8.533,8.533S141.653,435.2,136.533,435.2"/>
<path style="fill:#3EEC93;" d="M366.933,366.933c-33.28,0-59.733,26.453-59.733,59.733s26.453,59.733,59.733,59.733
	s59.733-26.453,59.733-59.733S400.213,366.933,366.933,366.933"/>
<path style="fill:#3ACC7C;" d="M349.867,435.2c-5.12,0-8.533-3.413-8.533-8.533c0-14.507,11.093-25.6,25.6-25.6
	c5.12,0,8.533,3.413,8.533,8.533c0,5.12-3.413,8.533-8.533,8.533s-8.533,3.413-8.533,8.533S354.987,435.2,349.867,435.2"/>
<path style="fill:#3B97D3;" d="M59.733,196.267C26.453,196.267,0,222.72,0,256s26.453,59.733,59.733,59.733
	S119.467,289.28,119.467,256S93.013,196.267,59.733,196.267"/>
<path style="fill:#2D769E;" d="M42.667,264.533c-5.12,0-8.533-3.413-8.533-8.533c0-14.507,11.093-25.6,25.6-25.6
	c5.12,0,8.533,3.413,8.533,8.533c0,5.12-3.413,8.533-8.533,8.533S51.2,250.88,51.2,256C51.2,261.12,47.787,264.533,42.667,264.533"
	/>
<path style="fill:#D25627;" d="M341.333,256c0,46.933-38.4,85.333-85.333,85.333s-85.333-38.4-85.333-85.333
	s38.4-85.333,85.333-85.333S341.333,209.067,341.333,256"/>
<path style="fill:#A54123;" d="M204.8,264.533c-5.12,0-8.533-3.413-8.533-8.533c0-33.28,26.453-59.733,59.733-59.733
	c5.12,0,8.533,3.413,8.533,8.533c0,5.12-3.413,8.533-8.533,8.533c-23.893,0-42.667,18.773-42.667,42.667
	C213.333,261.12,209.92,264.533,204.8,264.533"/>
<path style="fill:#F29C1F;" d="M452.267,196.267c-33.28,0-59.733,26.453-59.733,59.733s26.453,59.733,59.733,59.733
	S512,289.28,512,256S485.547,196.267,452.267,196.267"/>
<path style="fill:#DB8B28;" d="M435.2,264.533c-5.12,0-8.533-3.413-8.533-8.533c0-14.507,11.093-25.6,25.6-25.6
	c5.12,0,8.533,3.413,8.533,8.533c0,5.12-3.413,8.533-8.533,8.533s-8.533,3.413-8.533,8.533
	C443.733,261.12,440.32,264.533,435.2,264.533"/>
<g>
</g>
<g>
</g>
<g>
</g>
<g>
</g>
<g>
</g>
<g>
</g>
<g>
</g>
<g>
</g>
<g>
</g>
<g>
</g>
<g>
</g>
<g>
</g>
<g>
</g>
<g>
</g>
<g>
</g>
</svg>
