<?xml version="1.0" encoding="iso-8859-1"?>
<!-- Generator: Adobe Illustrator 19.0.0, SVG Export Plug-In . SVG Version: 6.00 Build 0)  -->
<svg version="1.1" id="Layer_1" xmlns="http://www.w3.org/2000/svg" xmlns:xlink="http://www.w3.org/1999/xlink" x="0px" y="0px"
	 viewBox="0 0 511.493 511.493" style="enable-background:new 0 0 511.493 511.493;" xml:space="preserve">
<g transform="translate(-1)">
	<g>
		<path style="fill:#D1D4D1;" d="M39.821,427.022c-0.868,0-0.868,0-1.736,0c-4.339-0.868-7.81-5.207-6.942-10.414l24.298-137.112
			c0.868-4.339,5.207-7.81,10.414-6.942c4.339,0.868,7.81,5.207,6.942,10.414L48.499,420.079
			C47.631,423.55,44.16,427.022,39.821,427.022"/>
		<path style="fill:#D1D4D1;" d="M419.048,326.357c-0.868,0-0.868,0-1.736,0l-137.112-24.298c-4.339-0.868-7.81-5.207-6.942-10.414
			c0.868-4.339,5.207-7.81,10.414-6.942l137.112,24.298c4.339,0.868,7.81,5.207,6.942,10.414
			C426.858,323.754,423.387,326.357,419.048,326.357"/>
		<path style="fill:#D1D4D1;" d="M449.421,305.53c-0.868,0-0.868,0-1.736,0c-4.339-0.868-7.81-5.207-6.942-10.414l24.298-137.112
			c0.868-4.339,5.207-7.81,10.414-6.942c4.339,0.868,7.81,5.207,6.942,10.414l-24.298,137.112
			C457.231,302.927,453.76,305.53,449.421,305.53"/>
		<path style="fill:#D1D4D1;" d="M103.17,253.462l121.492,21.695c5.207-11.281,16.488-19.092,28.637-19.959l21.695-121.492
			c-11.281-5.207-19.092-16.488-19.959-28.637L133.543,83.374c-5.207,11.281-16.488,19.092-28.637,19.959L83.211,224.825
			c5.207,2.603,10.414,6.942,13.885,11.281C100.567,241.313,103.17,247.388,103.17,253.462 M231.604,293.381
			c-0.868,0-0.868,0-1.736,0L92.757,269.083c-2.603,0-4.339-1.736-5.207-3.471c-1.736-1.736-1.736-4.339-1.736-6.075
			c0.868-4.339,0-9.546-2.603-13.017c-2.603-3.471-6.942-6.075-11.281-6.942c-2.603,0-4.339-1.736-5.207-3.471
			c-1.736-1.736-1.736-4.339-1.736-6.075L89.285,92.92c0-2.603,1.736-4.339,3.471-5.207c1.736-1.736,4.339-1.736,6.075-1.736
			c9.546,1.736,18.224-4.339,19.959-13.885c0.868-4.339,5.207-7.81,10.414-6.942l137.112,24.298
			c4.339,0.868,7.81,5.207,6.942,10.414c-1.736,7.81,4.339,16.488,13.885,18.224c2.603,0,4.339,1.736,5.207,3.471
			c0.868,1.736,1.736,4.339,1.736,6.075l-24.298,137.112c-0.868,4.339-5.207,7.81-10.414,6.942
			c-9.546-1.736-18.224,4.339-19.959,13.885c0,2.603-1.736,4.339-3.471,5.207C235.075,292.513,233.34,293.381,231.604,293.381"/>
	</g>
	<g>
		<path style="fill:#CC66A1;" d="M108.377,33.91c-9.546-1.736-18.224,0-26.034,6.075c-7.81,5.207-13.017,13.017-14.753,21.695
			c-2.603,19.092,9.546,37.315,28.637,40.786c1.736,0,4.339,0.868,6.075,0.868c16.488,0,31.241-12.149,33.844-28.637l0,0
			c1.736-9.546,0-18.224-6.075-26.034C124.865,40.852,117.055,35.645,108.377,33.91"/>
		<path style="fill:#CC66A1;" d="M295.821,66.886c-9.546-1.736-18.224,0-26.034,6.075c-7.81,5.207-13.017,13.017-13.885,22.563
			c-3.471,19.092,9.546,37.315,27.769,39.919c1.736,0,4.339,0.868,6.075,0.868c16.488,0,31.241-12.149,33.844-28.637l0,0
			C327.929,88.581,314.912,70.357,295.821,66.886"/>
		<path style="fill:#CC66A1;" d="M484.133,100.73c-9.546-1.736-18.224,0-26.034,6.075c-7.81,5.207-13.017,13.017-13.885,22.563
			c-3.471,19.092,9.546,37.315,27.77,39.919c1.736,0,4.339,0.868,6.075,0.868c16.488,0,31.241-12.149,33.844-28.637l0,0
			C515.373,121.557,503.224,103.333,484.133,100.73"/>
		<path style="fill:#CC66A1;" d="M451.157,288.174c-19.092-3.471-37.315,9.546-39.919,27.77
			c-3.471,19.092,9.546,37.315,27.77,39.919c1.736,0,4.339,0.868,6.075,0.868c16.488,0,31.241-12.149,33.844-28.637
			c1.736-9.546,0-18.224-6.075-26.034C467.645,295.116,459.835,289.91,451.157,288.174"/>
		<path style="fill:#CC66A1;" d="M262.845,255.198c-19.092-3.471-37.315,9.546-39.919,27.77
			c-3.471,19.092,9.546,37.315,27.77,39.919c1.736,0,4.339,0.868,6.075,0.868c6.942,0,13.885-1.736,19.959-6.075
			c7.81-5.207,13.017-13.017,13.885-22.563l0,0c1.736-9.546,0-18.224-6.075-26.034C280.201,262.14,272.39,256.933,262.845,255.198"
			/>
		<path style="fill:#CC66A1;" d="M74.533,221.354c-9.546-1.736-18.224,0-26.034,6.075c-7.81,5.207-13.017,13.017-13.885,22.563
			c-3.471,19.092,9.546,36.447,27.769,39.919c1.736,0,4.339,0.868,6.075,0.868c6.942,0,13.885-1.736,19.959-6.075
			c7.81-5.207,13.017-13.017,13.885-22.563c1.736-9.546,0-18.224-6.075-26.034C91.889,228.296,84.079,223.089,74.533,221.354"/>
		<path style="fill:#CC66A1;" d="M41.557,409.666c-9.546-1.736-18.224,0-26.034,6.075c-7.81,5.207-13.017,13.017-13.885,21.695
			c-1.736,9.546,0,18.224,6.075,26.034c5.207,7.81,13.017,13.017,22.563,13.885c1.736,0,4.339,0.868,6.075,0.868
			c6.942,0,13.885-1.736,19.959-6.075c7.81-5.207,13.017-13.017,13.885-22.563c1.736-9.546,0-18.224-6.075-26.034
			C58.912,416.608,51.102,411.401,41.557,409.666"/>
	</g>
</g>
<g>
</g>
<g>
</g>
<g>
</g>
<g>
</g>
<g>
</g>
<g>
</g>
<g>
</g>
<g>
</g>
<g>
</g>
<g>
</g>
<g>
</g>
<g>
</g>
<g>
</g>
<g>
</g>
<g>
</g>
</svg>
