<?xml version="1.0" encoding="iso-8859-1"?>
<!-- Generator: Adobe Illustrator 19.0.0, SVG Export Plug-In . SVG Version: 6.00 Build 0)  -->
<svg version="1.1" id="Layer_1" xmlns="http://www.w3.org/2000/svg" xmlns:xlink="http://www.w3.org/1999/xlink" x="0px" y="0px"
	 viewBox="0 0 503.389 503.389" style="enable-background:new 0 0 503.389 503.389;" xml:space="preserve">
<g>
	<path style="fill:#E4F4F9;" d="M313.395,403.559h137.112c21.695-19.092,35.58-46.861,35.58-78.102
		c0-30.373-13.017-58.142-34.712-77.234V47.762H312.527v200.461c-21.695,19.092-34.712,46.861-34.712,77.234
		C277.815,356.698,291.7,384.467,313.395,403.559"/>
	<path style="fill:#E4F4F9;" d="M53.056,403.559h137.112c21.695-19.092,35.58-46.861,35.58-78.102
		c0-30.373-13.017-58.142-34.712-77.234V47.762H52.188v200.461c-21.695,19.092-34.712,46.861-34.712,77.234
		C17.476,356.698,31.361,384.467,53.056,403.559"/>
</g>
<g>
	<path style="fill:#90BAE1;" d="M399.307,108.508h-52.068c-5.207,0-8.678-3.471-8.678-8.678c0-5.207,3.471-8.678,8.678-8.678h52.068
		c5.207,0,8.678,3.471,8.678,8.678C407.985,105.037,404.513,108.508,399.307,108.508z"/>
	<path style="fill:#90BAE1;" d="M373.273,143.22h-26.034c-5.207,0-8.678-3.471-8.678-8.678s3.471-8.678,8.678-8.678h26.034
		c5.207,0,8.678,3.471,8.678,8.678S378.479,143.22,373.273,143.22z"/>
	<path style="fill:#90BAE1;" d="M399.307,177.932h-52.068c-5.207,0-8.678-3.471-8.678-8.678s3.471-8.678,8.678-8.678h52.068
		c5.207,0,8.678,3.471,8.678,8.678S404.513,177.932,399.307,177.932z"/>
	<path style="fill:#90BAE1;" d="M373.273,212.644h-26.034c-5.207,0-8.678-3.471-8.678-8.678c0-5.207,3.471-8.678,8.678-8.678h26.034
		c5.207,0,8.678,3.471,8.678,8.678C381.951,209.173,378.479,212.644,373.273,212.644z"/>
</g>
<path style="fill:#B0D3F0;" d="M451.374,47.762H312.527c-9.546,0-17.356-7.81-17.356-17.356s7.81-17.356,17.356-17.356h138.847
	c9.546,0,17.356,7.81,17.356,17.356S460.92,47.762,451.374,47.762"/>
<g>
	<path style="fill:#90BAE1;" d="M138.968,108.508H86.9c-5.207,0-8.678-3.471-8.678-8.678c0-5.207,3.471-8.678,8.678-8.678h52.068
		c5.207,0,8.678,3.471,8.678,8.678C147.646,105.037,144.174,108.508,138.968,108.508z"/>
	<path style="fill:#90BAE1;" d="M112.934,143.22H86.9c-5.207,0-8.678-3.471-8.678-8.678s3.471-8.678,8.678-8.678h26.034
		c5.207,0,8.678,3.471,8.678,8.678S118.141,143.22,112.934,143.22z"/>
	<path style="fill:#90BAE1;" d="M138.968,177.932H86.9c-5.207,0-8.678-3.471-8.678-8.678s3.471-8.678,8.678-8.678h52.068
		c5.207,0,8.678,3.471,8.678,8.678S144.174,177.932,138.968,177.932z"/>
	<path style="fill:#90BAE1;" d="M112.934,212.644H86.9c-5.207,0-8.678-3.471-8.678-8.678c0-5.207,3.471-8.678,8.678-8.678h26.034
		c5.207,0,8.678,3.471,8.678,8.678C121.612,209.173,118.141,212.644,112.934,212.644z"/>
</g>
<path style="fill:#B0D3F0;" d="M191.035,47.762H52.188c-9.546,0-17.356-7.81-17.356-17.356s7.81-17.356,17.356-17.356h138.847
	c9.546,0,17.356,7.81,17.356,17.356S200.581,47.762,191.035,47.762"/>
<path style="fill:#D0DBDD;" d="M454.846,490.339H49.585c-39.919,0-63.349-45.125-40.786-78.102l6.075-8.678h472.081l6.942,10.414
	C517.327,446.081,494.764,490.339,454.846,490.339"/>
<g>
	<path style="fill:#E1E7E8;" d="M43.51,446.949h416.542"/>
	<path style="fill:#E1E7E8;" d="M460.052,455.627H43.51c-5.207,0-8.678-3.471-8.678-8.678s3.471-8.678,8.678-8.678h416.542
		c5.207,0,8.678,3.471,8.678,8.678S465.259,455.627,460.052,455.627"/>
</g>
<g>
</g>
<g>
</g>
<g>
</g>
<g>
</g>
<g>
</g>
<g>
</g>
<g>
</g>
<g>
</g>
<g>
</g>
<g>
</g>
<g>
</g>
<g>
</g>
<g>
</g>
<g>
</g>
<g>
</g>
</svg>
