<?xml version="1.0" encoding="iso-8859-1"?>
<!-- Generator: Adobe Illustrator 19.0.0, SVG Export Plug-In . SVG Version: 6.00 Build 0)  -->
<svg version="1.1" id="Layer_1" xmlns="http://www.w3.org/2000/svg" xmlns:xlink="http://www.w3.org/1999/xlink" x="0px" y="0px"
	 viewBox="0 0 512.138 512.138" style="enable-background:new 0 0 512.138 512.138;" xml:space="preserve">
<path style="fill:#71C285;" d="M386.465,307.2c0,92.16-75.404,167.564-167.564,167.564S51.338,399.36,51.338,307.2
	s75.404-167.564,167.564-167.564S386.465,215.04,386.465,307.2L386.465,307.2z M479.556,0H358.538c-5.585,0-9.309,3.724-9.309,9.309
	v18.618c0,5.585,3.724,9.309,9.309,9.309h76.335L334.334,137.775c-38.167-26.065-84.713-39.098-134.982-34.444
	c-96.815,9.309-175.011,86.575-184.32,183.389C2,416.116,109.985,524.102,239.381,511.069
	c95.884-9.309,173.149-87.505,182.458-183.389c6.516-65.164-17.687-124.742-59.578-165.702l98.676-98.676v76.335
	c0,5.585,3.724,9.309,9.309,9.309h18.618c5.585,0,9.309-3.724,9.309-9.309V18.618V9.309c0-5.585-3.724-9.309-9.309-9.309H479.556z"
	/>
<g>
</g>
<g>
</g>
<g>
</g>
<g>
</g>
<g>
</g>
<g>
</g>
<g>
</g>
<g>
</g>
<g>
</g>
<g>
</g>
<g>
</g>
<g>
</g>
<g>
</g>
<g>
</g>
<g>
</g>
</svg>
