<?xml version="1.0" encoding="iso-8859-1"?>
<!-- Generator: Adobe Illustrator 19.0.0, SVG Export Plug-In . SVG Version: 6.00 Build 0)  -->
<svg version="1.1" id="Layer_1" xmlns="http://www.w3.org/2000/svg" xmlns:xlink="http://www.w3.org/1999/xlink" x="0px" y="0px"
	 viewBox="0 0 512 512" style="enable-background:new 0 0 512 512;" xml:space="preserve">
<path style="fill:#CCB375;" d="M326.621,17.655V8.828c0-5.297-3.531-8.828-8.828-8.828H194.207c-5.297,0-8.828,3.531-8.828,8.828
	v8.828H79.448c-9.71,0-17.655,7.945-17.655,17.655v459.034c0,9.71,7.945,17.655,17.655,17.655h353.103
	c9.71,0,17.655-7.945,17.655-17.655V35.31c0-9.71-7.945-17.655-17.655-17.655H326.621z"/>
<path style="fill:#ECF0F1;" d="M326.621,52.966v8.828c0,5.297-3.531,8.828-8.828,8.828H194.207c-5.297,0-8.828-3.531-8.828-8.828
	v-8.828h-79.448c-5.297,0-8.828,3.531-8.828,8.828v406.069c0,5.297,3.531,8.828,8.828,8.828h300.138
	c5.297,0,8.828-3.531,8.828-8.828V61.793c0-5.297-3.531-8.828-8.828-8.828H326.621z"/>
<g>
	<path style="fill:#8697CB;" d="M327.503,195.09c-0.883,0-1.766,0-2.648-0.883l-134.179-44.138
		c-4.414-1.766-7.062-6.179-5.297-11.476c1.766-4.414,6.179-7.062,11.476-5.297l134.179,45.021
		c4.414,1.766,7.062,6.179,5.297,11.476C334.566,193.324,331.917,195.09,327.503,195.09z"/>
	<path style="fill:#8697CB;" d="M248.938,308.966c-1.766,0-4.414-0.883-6.179-2.648c-3.531-3.531-3.531-8.828,0-12.359
		l84.745-88.276c3.531-3.531,8.828-3.531,12.359,0c3.531,3.531,3.531,8.828,0,12.359l-84.745,88.276
		C253.352,308.083,251.586,308.966,248.938,308.966z"/>
	<path style="fill:#8697CB;" d="M221.572,301.903c-3.531,0-7.062-2.648-7.945-6.179l-45.021-134.179
		c-1.766-4.414,0.883-9.71,5.297-11.476c4.414-1.766,9.71,0.883,11.476,5.297l44.138,135.062c1.766,4.414-0.883,9.71-5.297,11.476
		C223.338,301.903,222.455,301.903,221.572,301.903z"/>
</g>
<path style="fill:#AF9762;" d="M317.793,70.621H194.207c-5.297,0-8.828-3.531-8.828-8.828V8.828c0-5.297,3.531-8.828,8.828-8.828
	h123.586c5.297,0,8.828,3.531,8.828,8.828v52.966C326.621,67.09,323.09,70.621,317.793,70.621"/>
<g>
	<path style="fill:#8697CB;" d="M379.586,406.069H291.31c-5.297,0-8.828-3.531-8.828-8.828c0-5.297,3.531-8.828,8.828-8.828h88.276
		c5.297,0,8.828,3.531,8.828,8.828C388.414,402.538,384.883,406.069,379.586,406.069z"/>
	<path style="fill:#8697CB;" d="M379.586,441.379h-70.621c-5.297,0-8.828-3.531-8.828-8.828s3.531-8.828,8.828-8.828h70.621
		c5.297,0,8.828,3.531,8.828,8.828S384.883,441.379,379.586,441.379z"/>
</g>
<path style="fill:#F29C1F;" d="M203.034,141.241c0-15.007-11.476-26.483-26.483-26.483s-26.483,11.476-26.483,26.483
	s11.476,26.483,26.483,26.483S203.034,156.248,203.034,141.241"/>
<path style="fill:#71C285;" d="M379.586,194.207c0-15.007-11.476-26.483-26.483-26.483s-26.483,11.476-26.483,26.483
	c0,15.007,11.476,26.483,26.483,26.483S379.586,209.214,379.586,194.207"/>
<path style="fill:#3B97D3;" d="M256,308.966c0-15.007-11.476-26.483-26.483-26.483c-15.007,0-26.483,11.476-26.483,26.483
	s11.476,26.483,26.483,26.483C244.524,335.448,256,323.972,256,308.966"/>
<g>
</g>
<g>
</g>
<g>
</g>
<g>
</g>
<g>
</g>
<g>
</g>
<g>
</g>
<g>
</g>
<g>
</g>
<g>
</g>
<g>
</g>
<g>
</g>
<g>
</g>
<g>
</g>
<g>
</g>
</svg>
