<?xml version="1.0" encoding="utf-8"?>
<!-- Generator: Adobe Illustrator 22.1.0, SVG Export Plug-In . SVG Version: 6.00 Build 0)  -->
<svg xmlns="http://www.w3.org/2000/svg" xmlns:xlink="http://www.w3.org/1999/xlink" version="1.1" id="Layer_1" x="0px" y="0px" viewBox="0 0 512 512" style="enable-background:new 0 0 512 512;" xml:space="preserve" width="512" height="512">
<style type="text/css">
	.st0{fill:#BF6C0D;}
	.st1{fill:#A56021;}
	.st2{fill:#8C4C17;}
	.st3{fill:#FFA730;}
	.st4{fill:#E58D23;}
	.st5{fill:#FFC34C;}
	.st6{fill:#FFDF74;}
	.st7{fill:#FFB74B;}
	.st8{fill:#FFD551;}
	.st9{fill:#F9BB32;}
	.st10{fill:#DB9C2E;}
	.st11{fill:#FCE575;}
	.st12{fill:#FFF4C1;}
	.st13{fill:#EACF32;}
	.st14{fill:#CCC033;}
	.st15{fill:#99AF17;}
	.st16{fill:#FF624B;}
	.st17{fill:#FF4B34;}
</style>
<g>
	<g>
		<g>
			<path class="st0" d="M465.2,243.249h-86.057V211.75H465.2c5.523,0,10,4.477,10,10v11.498     C475.2,238.771,470.723,243.249,465.2,243.249z"/>
		</g>
	</g>
	<g>
		<g>
			<path class="st1" d="M379.143,211.75v31.499h45.098l9.318-29.476c0.213-0.674,0.371-1.35,0.487-2.022H379.143z"/>
		</g>
	</g>
	<g>
		<g>
			<polygon class="st0" points="399.257,194.251 55.269,194.251 122.784,84.251 328.284,84.251 399.143,191.559    "/>
		</g>
	</g>
	<g>
		<g>
			<g>
				<path class="st1" d="M277.208,197.716l-55.992,16.866c-5.288,1.593-10.866-1.403-12.459-6.691l-10.871-36.089      c-1.593-5.288,1.403-10.866,6.691-12.459l55.992-16.866c5.288-1.593,10.866,1.403,12.459,6.691l10.871,36.089      C285.491,190.545,282.496,196.123,277.208,197.716z"/>
			</g>
		</g>
		<g>
			<g>
				<path class="st2" d="M243.227,197.508l-10.871-36.089c-1.593-5.288,1.403-10.866,6.691-12.459l-34.47,10.383      c-5.288,1.593-8.284,7.171-6.691,12.459l10.871,36.089c1.593,5.288,7.171,8.284,12.459,6.691l34.47-10.383      C250.398,205.792,244.82,202.796,243.227,197.508z"/>
			</g>
		</g>
	</g>
	<g>
		<g>
			<g>
				<path class="st1" d="M169.963,105.406l-41.349,41.349c-3.905,3.905-10.237,3.905-14.142,0L87.82,120.103      c-3.905-3.905-3.905-10.237,0-14.142l41.349-41.349c3.905-3.905,10.237-3.905,14.142,0l26.652,26.652      C173.869,95.169,173.869,101.5,169.963,105.406z"/>
			</g>
		</g>
		<g>
			<g>
				<path class="st2" d="M139.928,121.299l-26.652-26.652c-3.905-3.905-3.905-10.237,0-14.142L87.82,105.961      c-3.905,3.905-3.905,10.237,0,14.142l26.652,26.652c3.905,3.905,10.237,3.905,14.142,0l25.456-25.456      C150.165,125.204,143.833,125.204,139.928,121.299z"/>
			</g>
		</g>
	</g>
	<g>
		<g>
			<g>
				<path class="st1" d="M132.892,192.96H74.415c-5.523,0-10-4.477-10-10v-37.691c0-5.523,4.477-10,10-10h58.477      c5.523,0,10,4.477,10,10v37.691C142.892,188.483,138.415,192.96,132.892,192.96z"/>
			</g>
		</g>
		<g>
			<g>
				<path class="st2" d="M100.415,182.96v-37.691c0-5.523,4.477-10,10-10h-36c-5.523,0-10,4.477-10,10v37.691      c0,5.523,4.477,10,10,10h36C104.892,192.96,100.415,188.483,100.415,182.96z"/>
			</g>
		</g>
	</g>
	<g>
		<g>
			<g>
				<path class="st1" d="M206.892,154.801h-58.477c-5.523,0-10-4.477-10-10V107.11c0-5.523,4.477-10,10-10h58.477      c5.523,0,10,4.477,10,10v37.691C216.892,150.324,212.415,154.801,206.892,154.801z"/>
			</g>
		</g>
		<g>
			<g>
				<path class="st2" d="M174.415,144.801V107.11c0-5.523,4.477-10,10-10h-36c-5.523,0-10,4.477-10,10v37.691      c0,5.523,4.477,10,10,10h36C178.892,154.801,174.415,150.324,174.415,144.801z"/>
			</g>
		</g>
	</g>
	<g>
		<g>
			<g>
				<path class="st1" d="M212.605,195.016l-54.612,20.905c-5.158,1.974-10.94-0.606-12.914-5.764l-13.475-35.2      c-1.974-5.158,0.606-10.94,5.764-12.914l54.612-20.905c5.158-1.974,10.94,0.606,12.914,5.764l13.475,35.2      C220.344,187.26,217.763,193.041,212.605,195.016z"/>
			</g>
		</g>
		<g>
			<g>
				<path class="st2" d="M178.7,197.287l-13.474-35.2c-1.974-5.158,0.606-10.94,5.764-12.914l-33.621,12.87      c-5.158,1.974-7.739,7.756-5.764,12.914l13.474,35.2c1.974,5.158,7.756,7.739,12.914,5.764l33.621-12.87      C186.456,205.026,180.674,202.445,178.7,197.287z"/>
			</g>
		</g>
	</g>
	<g>
		<g>
			<g>
				<path class="st1" d="M262.725,93.014l-41.349,41.349c-3.905,3.905-10.237,3.905-14.142,0l-26.652-26.652      c-3.905-3.905-3.905-10.237,0-14.142l41.349-41.349c3.905-3.905,10.237-3.905,14.142,0l26.652,26.652      C266.631,82.777,266.631,89.109,262.725,93.014z"/>
			</g>
		</g>
		<g>
			<g>
				<path class="st2" d="M232.69,108.907l-26.652-26.651c-3.905-3.905-3.905-10.237,0-14.142l-25.456,25.456      c-3.905,3.905-3.905,10.237,0,14.142l26.652,26.652c3.905,3.905,10.237,3.905,14.142,0l25.456-25.456      C242.927,112.813,236.595,112.813,232.69,108.907z"/>
			</g>
		</g>
	</g>
	<g>
		<g>
			<g>
				<path class="st1" d="M399.218,201.383h-58.477c-5.523,0-10-4.477-10-10v-37.691c0-5.523,4.477-10,10-10h58.477      c5.523,0,10,4.477,10,10v37.691C409.218,196.906,404.741,201.383,399.218,201.383z"/>
			</g>
		</g>
		<g>
			<g>
				<path class="st2" d="M366.742,191.383v-37.691c0-5.523,4.477-10,10-10h-36c-5.523,0-10,4.477-10,10v37.691      c0,5.523,4.477,10,10,10h36C371.219,201.383,366.742,196.906,366.742,191.383z"/>
			</g>
		</g>
	</g>
	<g>
		<g>
			<g>
				<path class="st1" d="M270.13,151.207h-58.477c-5.523,0-10-4.477-10-10v-37.691c0-5.523,4.477-10,10-10h58.477      c5.523,0,10,4.477,10,10v37.691C280.13,146.73,275.653,151.207,270.13,151.207z"/>
			</g>
		</g>
		<g>
			<g>
				<path class="st2" d="M237.653,141.207v-37.691c0-5.523,4.477-10,10-10h-36c-5.523,0-10,4.477-10,10v37.691      c0,5.523,4.477,10,10,10h36C242.131,151.207,237.653,146.73,237.653,141.207z"/>
			</g>
		</g>
	</g>
	<g>
		<g>
			<g>
				<path class="st1" d="M322.743,133.325h-58.477c-5.523,0-10-4.477-10-10V85.634c0-5.523,4.477-10,10-10h58.477      c5.523,0,10,4.477,10,10v37.691C332.743,128.848,328.266,133.325,322.743,133.325z"/>
			</g>
		</g>
		<g>
			<g>
				<path class="st2" d="M290.266,123.325V85.634c0-5.523,4.477-10,10-10h-36c-5.523,0-10,4.477-10,10v37.691      c0,5.523,4.477,10,10,10h36C294.744,133.325,290.266,128.848,290.266,123.325z"/>
			</g>
		</g>
	</g>
	<g>
		<g>
			<g>
				<path class="st1" d="M359.272,151.755l-54.612,20.905c-5.158,1.974-10.94-0.606-12.914-5.764l-13.475-35.2      c-1.974-5.158,0.606-10.94,5.764-12.914l54.612-20.905c5.158-1.974,10.94,0.606,12.914,5.764l13.474,35.2      C367.01,143.999,364.43,149.781,359.272,151.755z"/>
			</g>
		</g>
		<g>
			<g>
				<path class="st2" d="M325.366,154.027l-13.474-35.2c-1.974-5.158,0.606-10.94,5.764-12.914l-33.621,12.87      c-5.158,1.974-7.739,7.756-5.764,12.914l13.474,35.2c1.974,5.158,7.756,7.739,12.914,5.764l33.621-12.87      C333.122,161.765,327.341,159.185,325.366,154.027z"/>
			</g>
		</g>
	</g>
	<g>
		<g>
			<g>
				<path class="st1" d="M328.496,199.365l-54.612,20.905c-5.158,1.974-10.94-0.606-12.914-5.764l-13.475-35.2      c-1.974-5.158,0.606-10.94,5.764-12.914l54.612-20.905c5.158-1.974,10.94,0.606,12.914,5.764l13.475,35.2      C336.235,191.609,333.654,197.391,328.496,199.365z"/>
			</g>
		</g>
		<g>
			<g>
				<path class="st2" d="M294.591,201.637l-13.474-35.2c-1.974-5.158,0.606-10.94,5.764-12.914l-33.621,12.87      c-5.158,1.974-7.739,7.756-5.764,12.914l13.474,35.2c1.974,5.158,7.756,7.739,12.914,5.764l33.621-12.87      C302.347,209.375,296.565,206.795,294.591,201.637z"/>
			</g>
		</g>
	</g>
	<g>
		<g>
			<path class="st3" d="M399.257,194.252H51.81c-10.14,0-17.359,9.852-14.302,19.521l10.055,31.808     c1.972,6.238,7.76,10.479,14.302,10.479h5.034L98.531,406.16c1.462,6.939,7.585,11.907,14.678,11.907h224.651     c7.092,0,13.215-4.967,14.678-11.907l31.631-150.101h5.034c6.543,0,12.33-4.241,14.302-10.479l10.055-31.808     C416.616,204.104,409.397,194.252,399.257,194.252z"/>
		</g>
	</g>
	<g>
		<g>
			<path class="st4" d="M153.208,402.067c-7.092,0-13.215-4.967-14.678-11.907l-31.631-150.101h-5.034     c-6.543,0-12.331-4.241-14.302-10.479l-10.055-31.808c-0.372-1.177-0.589-2.356-0.67-3.521H51.81     c-10.14,0-17.359,9.852-14.302,19.521l10.055,31.808c1.972,6.238,7.76,10.479,14.302,10.479h5.034L98.531,406.16     c1.462,6.939,7.585,11.907,14.678,11.907h224.651c7.092,0,13.215-4.967,14.678-11.907l0.863-4.093H153.208z"/>
		</g>
	</g>
	<g>
		<g>
			<circle class="st5" cx="155.534" cy="418.067" r="44.642"/>
		</g>
	</g>
	<g>
		<g>
			<path class="st6" d="M155.533,442.709c-13.587,0-24.642-11.054-24.642-24.642c0-13.587,11.054-24.642,24.642-24.642     c13.588,0,24.642,11.054,24.642,24.642C180.175,431.655,169.121,442.709,155.533,442.709z"/>
		</g>
	</g>
	<g>
		<g>
			<circle class="st5" cx="295.534" cy="418.067" r="44.642"/>
		</g>
	</g>
	<g>
		<g>
			<path class="st6" d="M295.533,442.709c-13.587,0-24.642-11.054-24.642-24.642c0-13.587,11.054-24.642,24.642-24.642     c13.588,0,24.642,11.054,24.642,24.642C320.175,431.655,309.121,442.709,295.533,442.709z"/>
		</g>
	</g>
	<g>
		<g>
			<path class="st7" d="M177.534,452.709c-24.655,0-44.642-19.986-44.642-44.642c0-13.695,6.173-25.943,15.881-34.132     c-21.447,3.258-37.881,21.776-37.881,44.132c0,24.655,19.987,44.642,44.642,44.642c10.96,0,20.991-3.956,28.761-10.509     C182.089,452.534,179.832,452.709,177.534,452.709z"/>
		</g>
	</g>
	<g>
		<g>
			<path class="st7" d="M317.534,452.709c-24.655,0-44.642-19.986-44.642-44.642c0-13.695,6.173-25.943,15.881-34.132     c-21.447,3.258-37.881,21.776-37.881,44.132c0,24.655,19.987,44.642,44.642,44.642c10.96,0,20.991-3.956,28.761-10.509     C322.089,452.534,319.832,452.709,317.534,452.709z"/>
		</g>
	</g>
	<g>
		<g>
			<path class="st8" d="M132.899,408.336c-1.289,2.987-2.007,6.276-2.007,9.731c0,10.959,7.192,20.266,17.103,23.458     C138.8,433.401,132.977,421.552,132.899,408.336z"/>
		</g>
	</g>
	<g>
		<g>
			<path class="st8" d="M272.899,408.336c-1.289,2.987-2.007,6.276-2.007,9.731c0,10.959,7.192,20.266,17.103,23.458     C278.8,433.401,272.977,421.552,272.899,408.336z"/>
		</g>
	</g>
	<g>
		<g>
			<path class="st7" d="M359.326,283.109c-0.391,0-0.788-0.039-1.187-0.118c-3.249-0.652-5.354-3.814-4.703-7.063l3.899-19.435     c0.651-3.249,3.813-5.353,7.063-4.703c3.249,0.652,5.354,3.814,4.703,7.063l-3.899,19.435     C364.63,281.138,362.125,283.109,359.326,283.109z"/>
		</g>
	</g>
	<g>
		<g>
			<path class="st7" d="M339.286,374.394c-0.407,0-0.82-0.042-1.234-0.128c-3.244-0.678-5.323-3.857-4.645-7.101l14.895-71.233     c0.679-3.243,3.857-5.322,7.101-4.645c3.244,0.678,5.323,3.857,4.645,7.101l-14.895,71.233     C344.562,372.45,342.067,374.394,339.286,374.394z"/>
		</g>
	</g>
	<g>
		<g>
			<path class="st7" d="M391.275,217.75H290.878c-3.313,0-6-2.686-6-6s2.687-6,6-6h100.397c3.313,0,6,2.686,6,6     S394.589,217.75,391.275,217.75z"/>
		</g>
	</g>
	<g>
		<g>
			<circle class="st0" cx="338.28" cy="128.269" r="15"/>
		</g>
	</g>
	<g>
		<g>
			<circle class="st4" cx="154.07" cy="323.607" r="15"/>
		</g>
	</g>
	<g>
		<g>
			<circle class="st4" cx="197.458" cy="356.721" r="15"/>
		</g>
	</g>
</g>
</svg>
