<?xml version="1.0" encoding="utf-8"?>
<!-- Generator: Adobe Illustrator 22.1.0, SVG Export Plug-In . SVG Version: 6.00 Build 0)  -->
<svg xmlns="http://www.w3.org/2000/svg" xmlns:xlink="http://www.w3.org/1999/xlink" version="1.1" id="Layer_1" x="0px" y="0px" viewBox="0 0 512 512" style="enable-background:new 0 0 512 512;" xml:space="preserve" width="512" height="512">
<style type="text/css">
	.st0{fill:#FFA730;}
	.st1{fill:#E58D23;}
	.st2{fill:#BF6C0D;}
	.st3{fill:#A56021;}
	.st4{fill:#FFD551;}
	.st5{fill:#FFF4C1;}
	.st6{fill:#FFC34C;}
	.st7{fill:#FFEA63;}
	.st8{fill:#FCE575;}
	.st9{fill:#FFB74B;}
	.st10{fill:#8C4C17;}
	.st11{fill:#F9BB32;}
	.st12{fill:#FF4B34;}
	.st13{fill:#FF9079;}
	.st14{fill:#FFDF74;}
	.st15{fill:#FF624B;}
	.st16{fill:#CCC033;}
	.st17{fill:#EACF32;}
	.st18{fill:#FFEACF;}
	.st19{fill:#99AF17;}
	.st20{fill:#FFD59A;}
	.st21{fill:#FCDA4F;}
	.st22{fill:#FCF9DE;}
	.st23{fill:#DB9C2E;}
</style>
<g>
	<g>
		<g>
			<path class="st8" d="M231.672,120.913l-73.306-73.306l0.063-0.605l-64.223-6.675c-6.528-0.679-12.37,4.064-13.049,10.592v0     c-0.679,6.528,4.064,12.37,10.592,13.049l55.091,5.726l68.027,68.027L231.672,120.913z"/>
		</g>
	</g>
	<g>
		<g>
			<path class="st4" d="M101.647,54.067c-6.528-0.679-11.271-6.521-10.592-13.049c0.021-0.205,0.062-0.402,0.094-0.603     c-5.204,0.808-9.423,5.018-9.993,10.503c-0.679,6.528,4.064,12.37,10.592,13.049l55.091,5.726l68.027,68.027l9.899-9.899     l-68.027-68.027L101.647,54.067z"/>
		</g>
	</g>
	<g>
		<g>
			<path class="st10" d="M457.161,486.739c-8.284,0-15-6.716-15-15V370.002l-80.305-81.348c-5.82-5.896-5.759-15.393,0.137-21.213     c5.896-5.82,15.392-5.758,21.213,0.137l84.63,85.729c2.771,2.808,4.325,6.593,4.325,10.538v107.893     C472.161,480.023,465.445,486.739,457.161,486.739z"/>
		</g>
	</g>
	<g>
		<g>
			<path class="st13" d="M449.675,327.641l-27.619,27.619c-3.905,3.905-10.237,3.905-14.142,0l-23.339-23.339l41.761-41.761     l23.339,23.339C453.58,317.404,453.58,323.736,449.675,327.641z"/>
		</g>
	</g>
	<g>
		<g>
			<path class="st15" d="M428.42,334.754l-23.339-23.339l-20.506,20.506l23.339,23.339c3.905,3.905,10.237,3.905,14.142,0     l20.506-20.506C438.656,338.66,432.325,338.66,428.42,334.754z"/>
		</g>
	</g>
	<g>
		<g>
			<path class="st13" d="M231.199,178.546l-38.766-38.766c-3.124-3.124-3.124-8.19,0-11.314l29.593-29.593     c3.124-3.124,8.19-3.124,11.314,0l38.766,38.766L231.199,178.546z"/>
		</g>
	</g>
	<g>
		<g>
			<path class="st15" d="M214.149,106.75l-21.455,21.455c-3.269,3.269-3.269,8.568,0,11.837l38.504,38.504l21.455-21.455     l-38.504-38.504C210.881,115.318,210.881,110.019,214.149,106.75z"/>
		</g>
	</g>
	<g>
		<g>
			<path class="st0" d="M356.443,363.193c-2.303,0-4.606-0.878-6.364-2.636l-44.756-44.756c-2.598-2.598-6.197-4.021-9.867-3.956     l-25.133,0.573c-4.975,0.094-9.089-3.823-9.203-8.792c-0.113-4.969,3.823-9.089,8.792-9.203l25.133-0.573     c8.574-0.191,16.948,3.166,23.004,9.223l44.756,44.756c3.515,3.515,3.515,9.213,0,12.728     C361.05,362.314,358.747,363.193,356.443,363.193z"/>
		</g>
	</g>
	<g>
		<g>
			<path class="st15" d="M246.213,199.948l-46.137,46.137l126.793,126.793c4.989,4.989,12.779,5.831,18.718,2.022l46.048-29.53     l41.761-41.761c7.029-7.029,7.029-18.427,0-25.456L300.702,145.459L246.213,199.948z M362.561,337.526     c2.71,2.71,2.222,7.232-1.004,9.301l-18.987,12.176c-2.97,1.904-6.864,1.484-9.359-1.011L221.305,246.086l24.908-24.908     L362.561,337.526z"/>
		</g>
	</g>
	<g>
		<g>
			<polygon class="st12" points="221.305,246.086 246.213,221.178 282.646,257.611 347.75,192.507 347.75,192.507 300.702,145.459      246.213,199.948 200.076,246.086 247.124,293.134 257.738,282.519    "/>
		</g>
	</g>
	<g>
		<g>
			<path class="st15" d="M326.44,116.72l-40.953-10.182l-11.853,11.853l-92.665,92.665c-4.397,4.397-4.397,11.525,0,15.922     l52.012,52.012l100.626-100.626l11.853-11.853l10.084-10.084c4.397-4.397,4.397-11.525,0-15.922l-16.867-16.867     C335.303,120.263,331.072,117.872,326.44,116.72z"/>
		</g>
	</g>
	<g>
		<g>
			<g>
				<path class="st12" d="M363.388,338.561c1.726,2.714,1.013,6.442-1.831,8.266l-18.987,12.176      c-2.97,1.904-6.864,1.484-9.359-1.011l-89.615-89.615l24.741-24.741l-32.906-32.906l-19.106-19.106      c-4.397-4.397-4.397-11.525,0-15.922l-35.355,35.355c-4.397,4.397-4.397,11.525,0,15.922l19.106,19.106l32.906,32.906      l93.887,93.887c4.989,4.989,12.779,5.831,18.718,2.022l46.048-29.53l35.355-35.355l-46.048,29.53      C375.446,343.07,368.368,342.604,363.388,338.561z"/>
			</g>
		</g>
	</g>
	<g>
		<g>
			<path class="st4" d="M83.95,217.103c0,0-0.063-22.914,21.365-42.332c1.086-0.984,2.74-0.984,3.826,0     c21.428,19.418,21.365,42.332,21.365,42.332l-0.069,0.005c0.041,0.565,0.069,1.134,0.069,1.709     c0,12.856-10.422,23.278-23.278,23.278c-12.856,0-23.278-10.422-23.278-23.278c0-0.576,0.028-1.144,0.069-1.709L83.95,217.103z"/>
		</g>
	</g>
	<g>
		<g>
			<path class="st6" d="M101.619,218.818c0-0.575,0.028-1.144,0.069-1.709l-0.069-0.005c0,0-0.044-17.66,14.443-35.111     c-2.015-2.427-4.306-4.85-6.922-7.221c-1.086-0.984-2.74-0.984-3.826,0C83.886,194.19,83.95,217.103,83.95,217.103l0.069,0.005     c-0.041,0.565-0.069,1.134-0.069,1.709c0,12.856,10.422,23.278,23.278,23.278c3.128,0,6.11-0.621,8.835-1.74     C107.589,236.875,101.619,228.546,101.619,218.818z"/>
		</g>
	</g>
	<g>
		<g>
			<path class="st4" d="M54.839,129.683c0,0-0.058-21.093,19.667-38.968c1-0.906,2.522-0.906,3.522,0     c19.725,17.875,19.667,38.968,19.667,38.968l-0.064,0.005c0.038,0.52,0.064,1.044,0.064,1.573     c0,11.834-9.594,21.428-21.428,21.428c-11.834,0-21.428-9.594-21.428-21.428c0-0.53,0.026-1.053,0.064-1.573L54.839,129.683z"/>
		</g>
	</g>
	<g>
		<g>
			<path class="st6" d="M71.104,131.261c0-0.53,0.026-1.053,0.064-1.573l-0.064-0.005c0,0-0.041-16.257,13.295-32.321     c-1.855-2.234-3.964-4.465-6.372-6.647c-1-0.906-2.522-0.906-3.522,0c-19.726,17.875-19.667,38.968-19.667,38.968l0.064,0.005     c-0.038,0.52-0.064,1.044-0.064,1.573c0,11.834,9.594,21.428,21.428,21.428c2.88,0,5.624-0.572,8.133-1.602     C76.599,147.883,71.104,140.216,71.104,131.261z"/>
		</g>
	</g>
	<g>
		<g>
			<circle class="st12" cx="246.672" cy="193.064" r="15"/>
		</g>
	</g>
	<g>
		<g>
			<circle class="st12" cx="373.843" cy="313.517" r="15"/>
		</g>
	</g>
	<g>
		<g>
			<path class="st14" d="M84.402,143.719c-1.703,0-3.395-0.721-4.582-2.122c-2.142-2.529-1.828-6.315,0.701-8.457     c4.815-4.078,1.189-12.488,1.152-12.573c-1.329-3.02,0.021-6.563,3.033-7.911c3.011-1.348,6.539-0.029,7.904,2.975     c2.805,6.166,5.048,18.721-4.333,26.667C87.15,143.252,85.772,143.719,84.402,143.719z"/>
		</g>
	</g>
	<g>
		<g>
			<path class="st14" d="M116.065,235.098c-1.703,0-3.395-0.721-4.582-2.123c-2.142-2.529-1.828-6.315,0.701-8.456     c4.825-4.086,1.204-12.457,1.166-12.541c-1.372-3.016-0.039-6.574,2.977-7.946c3.016-1.373,6.574-0.04,7.946,2.977     c2.805,6.166,5.048,18.721-4.334,26.667C118.812,234.631,117.435,235.098,116.065,235.098z"/>
		</g>
	</g>
	<g>
		<g>
			<path class="st13" d="M361.854,236.611c-1.536,0-3.071-0.586-4.243-1.757l-5.411-5.411c-2.343-2.343-2.343-6.142,0-8.485     c2.343-2.343,6.143-2.343,8.485,0l5.411,5.411c2.343,2.343,2.343,6.142,0,8.485C364.926,236.025,363.39,236.611,361.854,236.611z     "/>
		</g>
	</g>
	<g>
		<g>
			<path class="st13" d="M415.991,290.748c-1.536,0-3.071-0.586-4.243-1.757L373.6,250.843c-2.343-2.343-2.343-6.142,0-8.485     c2.343-2.343,6.142-2.343,8.485,0l38.148,38.148c2.343,2.343,2.343,6.142,0,8.485     C419.063,290.162,417.527,290.748,415.991,290.748z"/>
		</g>
	</g>
	<g>
		<g>
			<path class="st13" d="M339.522,156.459c-1.661,0-3.314-0.686-4.5-2.029l-14.359-16.262l-22.004-4.332     c-3.251-0.64-5.368-3.795-4.728-7.046c0.64-3.251,3.791-5.365,7.046-4.728l23.998,4.725c1.293,0.255,2.466,0.928,3.338,1.916     l15.704,17.785c2.193,2.484,1.958,6.275-0.526,8.469C342.351,155.964,340.933,156.459,339.522,156.459z"/>
		</g>
	</g>
</g>
</svg>
