<?xml version="1.0" encoding="utf-8"?>
<!-- Generator: Adobe Illustrator 22.1.0, SVG Export Plug-In . SVG Version: 6.00 Build 0)  -->
<svg xmlns="http://www.w3.org/2000/svg" xmlns:xlink="http://www.w3.org/1999/xlink" version="1.1" id="Layer_1" x="0px" y="0px" viewBox="0 0 512 512" style="enable-background:new 0 0 512 512;" xml:space="preserve" width="512" height="512">
<style type="text/css">
	.st0{fill:#FFA730;}
	.st1{fill:#E58D23;}
	.st2{fill:#BF6C0D;}
	.st3{fill:#A56021;}
	.st4{fill:#FFD551;}
	.st5{fill:#FFF4C1;}
	.st6{fill:#FFC34C;}
	.st7{fill:#FFEA63;}
	.st8{fill:#FCE575;}
	.st9{fill:#FFB74B;}
	.st10{fill:#8C4C17;}
	.st11{fill:#F9BB32;}
	.st12{fill:#FF4B34;}
	.st13{fill:#FF9079;}
	.st14{fill:#FFDF74;}
	.st15{fill:#FF624B;}
	.st16{fill:#CCC033;}
	.st17{fill:#EACF32;}
	.st18{fill:#FFEACF;}
	.st19{fill:#99AF17;}
	.st20{fill:#FFD59A;}
	.st21{fill:#FCDA4F;}
	.st22{fill:#FCF9DE;}
	.st23{fill:#DB9C2E;}
</style>
<g>
	<g>
		<g>
			<rect x="73.656" y="110.082" class="st0" width="369.772" height="286.336"/>
		</g>
	</g>
	<g>
		<g>
			<rect x="73.656" y="131.769" class="st1" width="63.978" height="286.336"/>
		</g>
	</g>
	<g>
		<g>
			<path class="st3" d="M204.456,230.478h-70.75c-4.418,0-8-3.582-8-8v-30.77c0-4.418,3.582-8,8-8h70.75c4.418,0,8,3.582,8,8v30.77     C212.456,226.896,208.874,230.478,204.456,230.478z"/>
		</g>
	</g>
	<g>
		<g>
			<path class="st3" d="M383.378,230.478h-70.75c-4.418,0-8-3.582-8-8v-30.77c0-4.418,3.582-8,8-8h70.75c4.418,0,8,3.582,8,8v30.77     C391.378,226.896,387.797,230.478,383.378,230.478z"/>
		</g>
	</g>
	<g>
		<g>
			<path class="st21" d="M380.535,395.333h-65.063V226.219c0-4.418,3.582-8,8-8h49.063c4.418,0,8,3.582,8,8V395.333z"/>
		</g>
	</g>
	<g>
		<g>
			<path class="st10" d="M137.634,183.708h-3.253c-4.791,0-8.675,3.884-8.675,8.675v29.42c0,4.791,3.884,8.675,8.675,8.675h3.253     V183.708z"/>
		</g>
	</g>
	<g>
		<g>
			<path class="st21" d="M201.974,395.333h-65.063V226.219c0-4.418,3.582-8,8-8h49.063c4.418,0,8,3.582,8,8V395.333z"/>
		</g>
	</g>
	<g>
		<g>
			<path class="st5" d="M149.563,347.142c-2.209,0-4-1.791-4-4V227.225c0-2.209,1.791-4,4-4s4,1.791,4,4v115.917     C153.563,345.351,151.771,347.142,149.563,347.142z"/>
		</g>
	</g>
	<g>
		<g>
			<path class="st5" d="M171.25,368.83c-2.209,0-4-1.791-4-4V248.912c0-2.209,1.791-4,4-4s4,1.791,4,4V364.83     C175.25,367.039,173.459,368.83,171.25,368.83z"/>
		</g>
	</g>
	<g>
		<g>
			<path class="st5" d="M328.484,347.142c-2.209,0-4-1.791-4-4V227.225c0-2.209,1.791-4,4-4s4,1.791,4,4v115.917     C332.484,345.351,330.693,347.142,328.484,347.142z"/>
		</g>
	</g>
	<g>
		<g>
			<path class="st5" d="M350.172,368.83c-2.209,0-4-1.791-4-4V248.912c0-2.209,1.791-4,4-4s4,1.791,4,4V364.83     C354.172,367.039,352.381,368.83,350.172,368.83z"/>
		</g>
	</g>
	<g>
		<g>
			<path class="st5" d="M191.854,335.214c-2.209,0-4-1.791-4-4v-64.475c0-2.209,1.791-4,4-4s4,1.791,4,4v64.475     C195.854,333.423,194.063,335.214,191.854,335.214z"/>
		</g>
	</g>
	<g>
		<g>
			<path class="st5" d="M368.606,335.214c-2.209,0-4-1.791-4-4v-64.475c0-2.209,1.791-4,4-4s4,1.791,4,4v64.475     C372.606,333.423,370.815,335.214,368.606,335.214z"/>
		</g>
	</g>
	<g>
		<g>
			<rect x="73.656" y="119.841" class="st1" width="369.772" height="52.111"/>
		</g>
	</g>
	<g>
		<g>
			<rect x="73.656" y="99.238" class="st2" width="369.772" height="52.111"/>
		</g>
	</g>
	<g>
		<g>
			<rect x="73.656" y="99.238" class="st3" width="65.063" height="52.111"/>
		</g>
	</g>
	<g>
		<g>
			<path class="st11" d="M92.633,396.418H54.679V70.895c0-5.523,4.477-10,10-10h17.953c5.523,0,10,4.477,10,10V396.418z"/>
		</g>
	</g>
	<g>
		<g>
			<path class="st23" d="M82.331,60.922c-0.181-0.009-0.359-0.027-0.542-0.027H65.523c-5.989,0-10.844,4.855-10.844,10.844v324.679     h17.35V71.738C72.029,65.933,76.596,61.206,82.331,60.922z"/>
		</g>
	</g>
	<g>
		<g>
			<path class="st11" d="M461.321,396.418h-37.953V70.895c0-5.523,4.477-10,10-10h17.953c5.523,0,10,4.477,10,10V396.418z"/>
		</g>
	</g>
	<g>
		<g>
			<path class="st23" d="M451.019,60.922c-0.181-0.009-0.359-0.027-0.542-0.027h-16.266c-5.989,0-10.844,4.855-10.844,10.844     v324.679h17.35V71.738C440.717,65.933,445.284,61.206,451.019,60.922z"/>
		</g>
	</g>
	<g>
		<g>
			<path class="st17" d="M452.842,386.15c-9.518,0-18.067-5.811-23.95-15.04c-1.931-3.03-6.416-3.03-8.348,0     c-5.883,9.23-14.432,15.04-23.95,15.04c-9.747,0-18.475-6.094-24.367-15.713c-1.919-3.134-6.533-3.134-8.452,0     c-5.892,9.619-14.62,15.713-24.367,15.713c-9.518,0-18.067-5.811-23.95-15.04c-1.931-3.03-6.416-3.03-8.348,0     c-5.883,9.23-14.432,15.04-23.95,15.04c-9.518,0-18.067-5.811-23.95-15.04c-1.931-3.03-6.416-3.03-8.348,0     c-5.883,9.23-14.432,15.04-23.95,15.04c-9.518,0-18.067-5.811-23.95-15.04c-1.931-3.03-6.416-3.03-8.348,0     c-5.883,9.23-14.432,15.04-23.95,15.04s-18.067-5.811-23.95-15.04c-1.931-3.03-6.416-3.03-8.348,0     c-5.883,9.23-14.432,15.04-23.95,15.04c-9.518,0-18.067-5.811-23.95-15.04c-1.931-3.03-6.416-3.03-8.348,0     c-5.883,9.23-14.432,15.04-23.95,15.04c-13.717,0-25.419-12.066-30.031-29.045h-1.115v62.798c0,0.664,0.538,1.202,1.202,1.202     h455.552c0.664,0,1.202-0.538,1.202-1.202v-61.596c0-0.664-0.538-1.202-1.202-1.202l0,0c-0.535,0-0.999,0.358-1.148,0.873     C477.857,374.496,466.322,386.15,452.842,386.15z"/>
		</g>
	</g>
	<g>
		<g>
			<path class="st16" d="M452.842,416.15c-9.518,0-18.067-5.811-23.95-15.04c-1.931-3.03-6.416-3.03-8.348,0     c-5.883,9.23-14.432,15.04-23.95,15.04c-9.747,0-18.475-6.094-24.367-15.713c-1.919-3.134-6.533-3.134-8.452,0     c-5.892,9.619-14.62,15.713-24.367,15.713c-9.518,0-18.067-5.811-23.95-15.04c-1.931-3.03-6.416-3.03-8.348,0     c-5.883,9.23-14.432,15.04-23.95,15.04c-9.518,0-18.067-5.811-23.95-15.04c-1.931-3.03-6.416-3.03-8.348,0     c-5.883,9.23-14.432,15.04-23.95,15.04c-9.518,0-18.067-5.811-23.95-15.04c-1.931-3.03-6.416-3.03-8.348,0     c-5.883,9.23-14.432,15.04-23.95,15.04s-18.067-5.811-23.95-15.04c-1.931-3.03-6.416-3.03-8.348,0     c-5.883,9.23-14.432,15.04-23.95,15.04c-9.518,0-18.067-5.811-23.95-15.04c-1.931-3.03-6.416-3.03-8.348,0     c-5.883,9.23-14.432,15.04-23.95,15.04c-13.717,0-25.419-12.066-30.031-29.045h-1.115v62.798c0,0.664,0.538,1.202,1.202,1.202     h455.552c0.664,0,1.202-0.538,1.202-1.202v-61.596c0-0.664-0.538-1.202-1.202-1.202l0,0c-0.535,0-0.999,0.358-1.148,0.873     C477.857,404.496,466.322,416.15,452.842,416.15z"/>
		</g>
	</g>
	<g>
		<g>
			<path class="st6" d="M408.729,280.34c-3.313,0-6-2.686-6-6v-10.246c0-3.314,2.687-6,6-6s6,2.686,6,6v10.246     C414.729,277.653,412.042,280.34,408.729,280.34z"/>
		</g>
	</g>
	<g>
		<g>
			<path class="st6" d="M408.729,370.83c-3.313,0-6-2.686-6-6v-65.853c0-3.314,2.687-6,6-6s6,2.686,6,6v65.853     C414.729,368.143,412.042,370.83,408.729,370.83z"/>
		</g>
	</g>
	<g>
		<g>
			<circle class="st3" cx="164.886" cy="125.161" r="15.324"/>
		</g>
	</g>
</g>
</svg>
