<?xml version="1.0" encoding="utf-8"?>
<!-- Generator: Adobe Illustrator 22.1.0, SVG Export Plug-In . SVG Version: 6.00 Build 0)  -->
<svg xmlns="http://www.w3.org/2000/svg" xmlns:xlink="http://www.w3.org/1999/xlink" version="1.1" id="Layer_1" x="0px" y="0px" viewBox="0 0 512 512" style="enable-background:new 0 0 512 512;" xml:space="preserve" width="512" height="512">
<style type="text/css">
	.st0{fill:#FFA730;}
	.st1{fill:#E58D23;}
	.st2{fill:#BF6C0D;}
	.st3{fill:#A56021;}
	.st4{fill:#FFD551;}
	.st5{fill:#FFF4C1;}
	.st6{fill:#FFC34C;}
	.st7{fill:#FFEA63;}
	.st8{fill:#FCE575;}
	.st9{fill:#FFB74B;}
	.st10{fill:#8C4C17;}
	.st11{fill:#F9BB32;}
	.st12{fill:#FF4B34;}
	.st13{fill:#FF9079;}
	.st14{fill:#FFDF74;}
	.st15{fill:#FF624B;}
	.st16{fill:#CCC033;}
	.st17{fill:#EACF32;}
	.st18{fill:#FFEACF;}
	.st19{fill:#99AF17;}
	.st20{fill:#FFD59A;}
	.st21{fill:#FCDA4F;}
	.st22{fill:#FCF9DE;}
	.st23{fill:#DB9C2E;}
</style>
<g>
	<g>
		<g>
			<path class="st10" d="M405.012,37.504H288.455c-4.94,0-9.686,1.875-13.233,5.226l-87.401,82.604h243.591V63.236     C431.413,49.025,419.593,37.504,405.012,37.504z M405.682,94.457c0,2.837-2.309,5.146-5.146,5.146h-140.5     c-0.171,0-0.694,0-0.954-0.643c-0.26-0.643,0.115-1.007,0.238-1.126l31.787-30.824c2.51-2.435,5.819-3.775,9.315-3.775h91.88     c7.378,0,13.38,6.003,13.38,13.38V94.457z"/>
		</g>
	</g>
	<g>
		<g>
			<path class="st2" d="M396.413,484.496H154.305c-24.853,0-45-20.147-45-45V160.335c0-24.853,20.147-45,45-45h287.108v324.161     C441.413,464.348,421.266,484.496,396.413,484.496z"/>
		</g>
	</g>
	<g>
		<g>
			<path class="st0" d="M174.498,391.622V200.145c0-13.807,11.193-25,25-25h151.723c13.807,0,25,11.193,25,25v191.478     c0,13.807-11.193,25-25,25H199.498C185.691,416.622,174.498,405.429,174.498,391.622z"/>
		</g>
	</g>
	<g>
		<g>
			<path class="st2" d="M415.012,27.504H298.455c-4.94,0-9.686,1.875-13.233,5.226l-87.401,82.604h243.591V53.236     C441.413,39.025,429.593,27.504,415.012,27.504z M415.682,84.457c0,2.837-2.309,5.146-5.146,5.146h-140.5     c-0.171,0-0.694,0-0.954-0.643c-0.26-0.643,0.115-1.007,0.238-1.126l31.787-30.824c2.51-2.435,5.819-3.775,9.315-3.775h91.88     c7.378,0,13.38,6.003,13.38,13.38V84.457z"/>
		</g>
	</g>
	<g>
		<g>
			<path class="st0" d="M402.568,155.214c-4.882-4.881-12.796-4.881-17.678,0L275.359,264.745L165.829,155.214     c-4.881-4.883-12.796-4.881-17.678,0c-4.881,4.882-4.881,12.796,0,17.678l118.37,118.37c2.441,2.44,5.64,3.661,8.839,3.661     s6.398-1.221,8.839-3.661l118.37-118.37C407.449,168.01,407.449,160.096,402.568,155.214z"/>
		</g>
	</g>
	<g>
		<g>
			<path class="st0" d="M402.568,425.909l-118.37-118.37c-4.882-4.881-12.796-4.881-17.678,0l-118.37,118.37     c-4.881,4.882-4.881,12.796,0,17.678c2.441,2.44,5.64,3.661,8.839,3.661s6.398-1.221,8.839-3.661l109.531-109.531L384.89,443.587     c2.441,2.441,5.64,3.661,8.839,3.661c3.199,0,6.398-1.221,8.839-3.661C407.449,438.705,407.449,430.791,402.568,425.909z"/>
		</g>
	</g>
	<g>
		<g>
			<path class="st3" d="M189.305,439.496V160.334c0-24.853,20.147-45,45-45h-80c-24.853,0-45,20.147-45,45v279.161     c0,24.853,20.147,45,45,45h80C209.453,484.496,189.305,464.349,189.305,439.496z"/>
		</g>
	</g>
	<g>
		<g>
			<path class="st1" d="M189.305,414.449V177.318c-8.725,3.902-14.807,12.651-14.807,22.827v191.478     C174.498,401.798,180.581,410.547,189.305,414.449z"/>
		</g>
	</g>
	<g>
		<g>
			<path class="st1" d="M148.151,425.909c-4.881,4.882-4.881,12.796,0,17.678c2.441,2.44,5.64,3.661,8.839,3.661     s6.398-1.221,8.839-3.661l23.477-23.477v-35.355L148.151,425.909z"/>
		</g>
	</g>
	<g>
		<g>
			<path class="st1" d="M165.829,155.214c-4.881-4.883-12.796-4.881-17.678,0c-4.881,4.882-4.881,12.796,0,17.678l41.155,41.155     v-35.355L165.829,155.214z"/>
		</g>
	</g>
	<g>
		<g>
			<g>
				<path class="st3" d="M301.107,57.011c0.712-0.691,1.495-1.283,2.322-1.792l23.794-22.488c3.547-3.352,8.293-5.226,13.233-5.226      h-42c-4.94,0-9.686,1.875-13.233,5.226l-87.401,82.604h42l44.906-42.441L301.107,57.011z"/>
			</g>
		</g>
	</g>
	<g>
		<g>
			<path class="st11" d="M159.513,121.118l-44.911,60.567c-2.632,3.549-7.642,4.293-11.191,1.661l-29.589-21.94     c-3.549-2.632-4.293-7.642-1.661-11.191l44.911-60.567c2.632-3.549,7.642-4.293,11.191-1.661l29.589,21.94     C161.401,112.558,162.145,117.569,159.513,121.118z"/>
		</g>
	</g>
	<g>
		<g>
			<path class="st23" d="M97.822,160.405c-3.549-2.632-4.293-7.642-1.661-11.191l40.683-54.865l-8.581-6.363     c-3.549-2.631-8.559-1.888-11.191,1.661l-44.911,60.566c-2.632,3.549-1.888,8.56,1.661,11.191l29.589,21.94     c3.549,2.631,8.559,1.888,11.191-1.661l4.228-5.702L97.822,160.405z"/>
		</g>
	</g>
	<g>
		<g>
			<path class="st1" d="M204.498,376.622V215.145c0-5.523,4.477-10,10-10h121.723c5.523,0,10,4.477,10,10v161.478     c0,5.523-4.477,10-10,10H214.498C208.975,386.622,204.498,382.145,204.498,376.622z"/>
		</g>
	</g>
	<g>
		<g>
			<path class="st4" d="M232.087,306.641c0,0-0.12-43.21,40.29-79.829c2.048-1.856,5.166-1.856,7.214,0     c40.409,36.619,40.289,79.829,40.289,79.829l-0.13,0.01c0.078,1.066,0.13,2.138,0.13,3.223c0,24.244-19.653,43.897-43.897,43.897     c-24.244,0-43.897-19.653-43.897-43.897c0-1.085,0.053-2.158,0.13-3.223L232.087,306.641z"/>
		</g>
	</g>
	<g>
		<g>
			<path class="st6" d="M262.087,309.874c0-1.085,0.053-2.158,0.13-3.223l-0.13-0.01c0,0-0.09-34.642,28.897-68.176     c-3.387-3.918-7.165-7.822-11.393-11.653c-2.048-1.855-5.166-1.855-7.214,0c-40.409,36.619-40.29,79.829-40.29,79.829l0.13,0.01     c-0.077,1.065-0.13,2.138-0.13,3.223c0,24.244,19.653,43.897,43.897,43.897c5.269,0,10.32-0.93,15-2.632     C274.127,345.009,262.087,328.849,262.087,309.874z"/>
		</g>
	</g>
	<g>
		<g>
			<circle class="st3" cx="226.2" cy="447.874" r="15"/>
		</g>
	</g>
	<g>
		<g>
			<circle class="st3" cx="226.2" cy="145.239" r="15"/>
		</g>
	</g>
	<g>
		<g>
			<path class="st8" d="M290.988,343.927c-2.23,0-4.371-1.249-5.407-3.391c-1.442-2.983-0.192-6.571,2.792-8.013     c20.377-9.848,15.629-30.315,15.417-31.182c-0.788-3.219,1.183-6.467,4.401-7.255c3.217-0.788,6.466,1.182,7.255,4.401     c2.595,10.602,1.369,33.618-21.851,44.84C292.753,343.734,291.864,343.927,290.988,343.927z"/>
		</g>
	</g>
	<g>
		<g>
			<path class="st1" d="M418,240.281c-3.313,0-6-2.687-6-6V212.27c0-3.313,2.687-6,6-6s6,2.687,6,6v22.011     C424,237.594,421.313,240.281,418,240.281z"/>
		</g>
	</g>
	<g>
		<g>
			<path class="st1" d="M418,402c-3.313,0-6-2.687-6-6V258.463c0-3.313,2.687-6,6-6s6,2.687,6,6V396     C424,399.313,421.313,402,418,402z"/>
		</g>
	</g>
</g>
</svg>
