<?xml version="1.0" encoding="utf-8"?>
<!-- Generator: Adobe Illustrator 22.1.0, SVG Export Plug-In . SVG Version: 6.00 Build 0)  -->
<svg xmlns="http://www.w3.org/2000/svg" xmlns:xlink="http://www.w3.org/1999/xlink" version="1.1" id="Layer_1" x="0px" y="0px" viewBox="0 0 512 512" style="enable-background:new 0 0 512 512;" xml:space="preserve" width="512" height="512">
<style type="text/css">
	.st0{fill:#FFA730;}
	.st1{fill:#E58D23;}
	.st2{fill:#BF6C0D;}
	.st3{fill:#A56021;}
	.st4{fill:#FFD551;}
	.st5{fill:#FFF4C1;}
	.st6{fill:#FFC34C;}
	.st7{fill:#FFEA63;}
	.st8{fill:#FCE575;}
	.st9{fill:#FFB74B;}
	.st10{fill:#8C4C17;}
	.st11{fill:#F9BB32;}
	.st12{fill:#FF4B34;}
	.st13{fill:#FF9079;}
	.st14{fill:#FFDF74;}
	.st15{fill:#FF624B;}
	.st16{fill:#CCC033;}
	.st17{fill:#EACF32;}
	.st18{fill:#FFEACF;}
	.st19{fill:#99AF17;}
	.st20{fill:#FFD59A;}
	.st21{fill:#FCDA4F;}
	.st22{fill:#FCF9DE;}
	.st23{fill:#DB9C2E;}
</style>
<g>
	<g>
		<g>
			<path class="st4" d="M142.674,436.546h-61.48v-54.379c0-8.284,6.716-15,15-15h31.48c8.284,0,15,6.716,15,15V436.546z"/>
		</g>
	</g>
	<g>
		<g>
			<path class="st4" d="M240.003,436.546h-61.48v-54.379c0-8.284,6.716-15,15-15h31.48c8.284,0,15,6.716,15,15V436.546z"/>
		</g>
	</g>
	<g>
		<g>
			<path class="st4" d="M338.296,436.546h-61.48v-54.379c0-8.284,6.716-15,15-15h31.48c8.284,0,15,6.716,15,15V436.546z"/>
		</g>
	</g>
	<g>
		<g>
			<path class="st4" d="M430.806,436.546h-61.48v-54.379c0-8.284,6.716-15,15-15h31.48c8.284,0,15,6.716,15,15V436.546z"/>
		</g>
	</g>
	<g>
		<g>
			<path class="st6" d="M123.194,367.167h-27c-8.284,0-15,6.716-15,15v54.379h27v-54.379     C108.194,373.882,114.91,367.167,123.194,367.167z"/>
		</g>
	</g>
	<g>
		<g>
			<path class="st6" d="M220.523,367.167h-27c-8.284,0-15,6.716-15,15v54.379h27v-54.379     C205.523,373.882,212.239,367.167,220.523,367.167z"/>
		</g>
	</g>
	<g>
		<g>
			<path class="st6" d="M318.815,367.167h-27c-8.284,0-15,6.716-15,15v54.379h27v-54.379     C303.815,373.882,310.531,367.167,318.815,367.167z"/>
		</g>
	</g>
	<g>
		<g>
			<path class="st6" d="M411.326,367.167h-27c-8.284,0-15,6.716-15,15v54.379h27v-54.379     C396.326,373.882,403.042,367.167,411.326,367.167z"/>
		</g>
	</g>
	<g>
		<g>
			<path class="st8" d="M127.915,235.057c0,0-0.352-103.365,118.545-190.963c6.026-4.439,15.201-4.439,21.227,0     c118.896,87.598,118.544,190.963,118.544,190.963l-0.384,0.023c0.228,2.549,0.384,5.114,0.384,7.71     c0,57.994-57.826,105.008-129.158,105.008c-71.332,0-129.158-47.013-129.158-105.008c0-2.596,0.156-5.161,0.384-7.71     L127.915,235.057z"/>
		</g>
	</g>
	<g>
		<g>
			<path class="st17" d="M257.073,349.959c-47.389,0-85.942-30.842-85.942-68.752c0-1.233,0.076-2.742,0.232-4.612l1.669-19.9     c4.879-27.527,22.25-84.9,84.038-139.925c61.81,55.041,79.17,112.429,84.045,139.948l1.667,19.877     c0.154,1.854,0.23,3.362,0.23,4.612C343.013,319.117,304.46,349.959,257.073,349.959z"/>
		</g>
	</g>
	<g>
		<g>
			<path class="st16" d="M257.073,345.637c-23.97,0-42.582-13.622-42.725-25.399c0.015-0.334,0.046-0.715,0.082-1.152l1.49-17.768     c3.543-18.512,13.463-49.65,41.151-83.539c27.692,33.894,37.614,65.044,41.157,83.559l1.49,17.764     c0.036,0.44,0.07,0.848,0.08,1.204C299.796,331.911,281.134,345.637,257.073,345.637z"/>
		</g>
	</g>
	<g>
		<g>
			<path class="st4" d="M202.544,242.791c0-2.596,0.157-5.161,0.384-7.711l-0.384-0.023c0,0-0.22-87.187,91.843-169.275     c-8.176-7.29-17.003-14.544-26.701-21.689c-6.026-4.439-15.202-4.439-21.227,0c-118.897,87.598-118.545,190.963-118.545,190.963     l0.384,0.023c-0.228,2.549-0.384,5.114-0.384,7.711c0,57.994,57.826,105.008,129.158,105.008c12.978,0,25.498-1.573,37.314-4.468     C241.253,330.311,202.544,290.234,202.544,242.791z"/>
		</g>
	</g>
	<g>
		<g>
			<path class="st16" d="M294.078,343.248c-52.974-13.098-91.534-53.107-91.534-100.458c0-2.596,0.157-5.161,0.384-7.711     l-0.384-0.023c0,0-0.102-41.163,29.697-93.55c-41.855,46.78-55.059,91.777-59.208,115.187l-1.669,19.9     c-0.157,1.87-0.233,3.379-0.233,4.612c0,27.678,20.562,51.571,50.097,62.462c11.385,2.67,23.402,4.129,35.844,4.129     c12.509,0,24.576-1.493,36.014-4.191C293.416,343.486,293.751,343.373,294.078,343.248z"/>
		</g>
	</g>
	<g>
		<g>
			<path class="st19" d="M282.702,339.932c-27.756-9.263-50.669-26.14-64.786-47.449c-0.815,3.18-1.482,6.154-1.995,8.835     l-1.491,17.768c-0.036,0.436-0.067,0.817-0.082,1.152c0.143,11.778,18.756,25.399,42.725,25.399     C266.801,345.637,275.615,343.372,282.702,339.932z"/>
		</g>
	</g>
	<g>
		<g>
			<path class="st11" d="M415.806,471.236H96.194c-8.284,0-15-6.716-15-15V413.32h349.612v42.915     C430.806,464.52,424.09,471.236,415.806,471.236z"/>
		</g>
	</g>
	<g>
		<g>
			<path class="st23" d="M123.194,455.236c-8.284,0-15-6.716-15-15V413.32h-27v42.916c0,8.284,6.716,15,15,15h319.612     c8.284,0,15-6.716,15-15v-1H123.194z"/>
		</g>
	</g>
	<g>
		<g>
			<circle class="st23" cx="129.462" cy="434.546" r="15"/>
		</g>
	</g>
	<g>
		<g>
			<path class="st4" d="M414.274,437.479h-75.883c-3.313,0-6-2.687-6-6s2.687-6,6-6h75.883c3.313,0,6,2.687,6,6     S417.587,437.479,414.274,437.479z"/>
		</g>
	</g>
</g>
</svg>
