<?xml version="1.0" encoding="utf-8"?>
<!-- Generator: Adobe Illustrator 22.1.0, SVG Export Plug-In . SVG Version: 6.00 Build 0)  -->
<svg xmlns="http://www.w3.org/2000/svg" xmlns:xlink="http://www.w3.org/1999/xlink" version="1.1" id="Layer_1" x="0px" y="0px" viewBox="0 0 512 512" style="enable-background:new 0 0 512 512;" xml:space="preserve" width="512" height="512">
<style type="text/css">
	.st0{fill:#FFA730;}
	.st1{fill:#E58D23;}
	.st2{fill:#BF6C0D;}
	.st3{fill:#A56021;}
	.st4{fill:#FFD551;}
	.st5{fill:#FFF4C1;}
	.st6{fill:#FFC34C;}
	.st7{fill:#FFEA63;}
	.st8{fill:#FCE575;}
	.st9{fill:#FFB74B;}
	.st10{fill:#8C4C17;}
	.st11{fill:#F9BB32;}
	.st12{fill:#FF4B34;}
	.st13{fill:#FF9079;}
	.st14{fill:#FFDF74;}
	.st15{fill:#FF624B;}
	.st16{fill:#CCC033;}
	.st17{fill:#EACF32;}
	.st18{fill:#FFEACF;}
	.st19{fill:#99AF17;}
	.st20{fill:#FFD59A;}
	.st21{fill:#FCDA4F;}
	.st22{fill:#FCF9DE;}
	.st23{fill:#DB9C2E;}
</style>
<g>
	<g>
		<g>
			<rect x="139.728" y="342.993" class="st3" width="40.552" height="95.53"/>
		</g>
	</g>
	<g>
		<g>
			<rect x="356.811" y="342.993" class="st3" width="40.552" height="95.53"/>
		</g>
	</g>
	<g>
		<g>
			<rect x="248.281" y="342.993" class="st3" width="40.552" height="95.53"/>
		</g>
	</g>
	<g>
		<g>
			<polygon class="st10" points="160.728,370.992 180.28,370.992 180.28,342.992 139.728,342.992 139.728,438.522 160.728,438.522         "/>
		</g>
	</g>
	<g>
		<g>
			<polygon class="st10" points="377.811,370.992 397.363,370.992 397.363,342.992 356.811,342.992 356.811,438.522      377.811,438.522    "/>
		</g>
	</g>
	<g>
		<g>
			<polygon class="st10" points="269.281,370.992 288.833,370.992 288.833,342.992 248.281,342.992 248.281,438.522      269.281,438.522    "/>
		</g>
	</g>
	<g>
		<g>
			<g>
				<path class="st6" d="M403.514,240.49H278.217c-1.596,0-2.989-1.079-3.389-2.625c-0.399-1.545,0.297-3.165,1.693-3.938      l58.114-32.178l-39.124-22.305c-1.379-0.786-2.057-2.403-1.649-3.937c0.406-1.535,1.795-2.603,3.383-2.603h90.391      c1.596,0,2.989,1.079,3.389,2.625c0.399,1.545-0.297,3.165-1.693,3.938l-40.406,22.373l56.322,32.111      c1.379,0.786,2.057,2.403,1.649,3.937C406.49,239.422,405.102,240.49,403.514,240.49z M291.763,233.49h98.545l-48.553-27.681      L291.763,233.49z M310.451,179.904l31.354,17.876l32.284-17.876H310.451z"/>
			</g>
		</g>
		<g>
			<g>
				<path class="st6" d="M297.245,179.904c-0.656,0-1.313-0.184-1.892-0.555c-1.26-0.809-1.865-2.33-1.506-3.784l14.196-57.467      c0.017-0.067,0.034-0.133,0.055-0.199c0-0.001,0-0.001,0-0.002c0.001-0.002,0.001-0.003,0.002-0.005      c0.019-0.061,0.039-0.121,0.061-0.181c0.001-0.001,0.001-0.002,0.002-0.004c0,0,0-0.001,0-0.002      c0.211-0.572,0.562-1.064,1.005-1.445l26.416-22.882l-14.604-12.935c-1.089-0.964-1.468-2.501-0.952-3.861      c0.516-1.36,1.818-2.259,3.272-2.259h35.588c1.461,0,2.769,0.908,3.279,2.277c0.511,1.369,0.117,2.912-0.987,3.868      l-14.972,12.968l25.798,22.848c0.444,0.39,0.793,0.894,0.996,1.479c0.015,0.04,0.027,0.08,0.04,0.12l17.935,57.478      c0.453,1.451-0.083,3.029-1.326,3.904c-1.242,0.876-2.909,0.847-4.123-0.068l-44.169-33.328l-41.938,33.276      C298.786,179.649,298.017,179.904,297.245,179.904z M313.573,124.905l-10.471,42.384l32.483-25.774L313.573,124.905z       M347.023,141.375l34.027,25.676l-13.175-42.222L347.023,141.375z M321.896,122.416l19.354,14.604l18.404-14.604H321.896z       M320.834,115.416h39.633L340.87,98.06L320.834,115.416z M332.53,81.323l8.392,7.432l8.579-7.432H332.53z"/>
			</g>
		</g>
	</g>
	<g>
		<g>
			<polygon class="st1" points="398.088,247.281 412.305,243.232 359.557,44.163 345.341,48.212    "/>
		</g>
	</g>
	<g>
		<g>
			<polygon class="st1" points="285.362,247.281 271.146,243.232 323.894,44.163 338.11,48.212    "/>
		</g>
	</g>
	<g>
		<g>
			<rect x="312.389" y="112.041" class="st1" width="57.589" height="10.1"/>
		</g>
	</g>
	<g>
		<g>
			<rect x="298.197" y="170.867" class="st1" width="85.972" height="10.1"/>
		</g>
	</g>
	<g>
		<g>
			<rect x="319.064" y="61.936" class="st1" width="44.253" height="13.716"/>
		</g>
	</g>
	<g>
		<g>
			<polygon class="st2" points="280.44,243.232 332.536,46.625 323.894,44.163 271.146,243.232 285.362,247.281 286.014,244.82         "/>
		</g>
	</g>
	<g>
		<g>
			<path class="st0" d="M367.874,60.518h-52.297V32.47c0-5.523,4.477-10,10-10h32.297c5.523,0,10,4.477,10,10V60.518z"/>
		</g>
	</g>
	<g>
		<g>
			<path class="st1" d="M342.343,22.47h-16.766c-5.523,0-10,4.477-10,10v28.048h21.413V27.824     C336.989,24.867,339.386,22.47,342.343,22.47z"/>
		</g>
	</g>
	<g>
		<g>
			<path class="st4" d="M375.52,70.287h-67.59c-4.418,0-8-3.582-8-8v-7.29c0-4.418,3.582-8,8-8h67.59c4.418,0,8,3.582,8,8v7.29     C383.52,66.705,379.938,70.287,375.52,70.287z"/>
		</g>
	</g>
	<g>
		<g>
			<path class="st6" d="M321.343,66.004V51.28c0-2.365,1.917-4.283,4.283-4.283h-17.695c-4.418,0-8,3.582-8,8v7.29     c0,4.418,3.582,8,8,8h17.695C323.26,70.287,321.343,68.37,321.343,66.004z"/>
		</g>
	</g>
	<g>
		<g>
			<path class="st0" d="M398.308,220.239c-1.759,0-3.37-1.168-3.856-2.945l-8.871-32.423c-0.583-2.131,0.672-4.331,2.803-4.914     c2.141-0.583,4.331,0.672,4.914,2.802l8.871,32.423c0.583,2.131-0.672,4.331-2.803,4.914     C399.012,220.193,398.656,220.239,398.308,220.239z"/>
		</g>
	</g>
	<g>
		<g>
			<path class="st8" d="M375.807,60.199h-34.941c-2.209,0-4-1.791-4-4s1.791-4,4-4h34.941c2.209,0,4,1.791,4,4     S378.016,60.199,375.807,60.199z"/>
		</g>
	</g>
	<g>
		<g>
			<path class="st1" d="M434.521,316.941H102.593c-4.418,0-8-3.582-8-8v-39.51c0-4.418,3.582-8,8-8h339.928v47.51     C442.521,313.359,438.939,316.941,434.521,316.941z"/>
		</g>
	</g>
	<g>
		<g>
			<path class="st2" d="M415.637,358.574H121.476c-4.418,0-8-3.582-8-8v-33.632h310.161v33.632     C423.637,354.992,420.055,358.574,415.637,358.574z"/>
		</g>
	</g>
	<g>
		<g>
			<path class="st6" d="M442.521,261.431H248.732v-28.904h185.789c4.418,0,8,3.582,8,8V261.431z"/>
		</g>
	</g>
	<g>
		<g>
			<path class="st2" d="M144.593,308.941v-39.51c0-4.418,3.582-8,8-8h-50c-4.418,0-8,3.582-8,8v39.51c0,4.418,3.582,8,8,8h50     C148.175,316.941,144.593,313.36,144.593,308.941z"/>
		</g>
	</g>
	<g>
		<g>
			<path class="st3" d="M153.476,328.941h270.161v-12H113.476v33.632c0,4.418,3.582,8,8,8h32V328.941z"/>
		</g>
	</g>
	<g>
		<g>
			<path class="st11" d="M278.732,244.528h163.789v-4c0-4.418-3.582-8-8-8H248.732v28.904h30V244.528z"/>
		</g>
	</g>
	<g>
		<g>
			<path class="st13" d="M164.635,235.529c-0.445,0-0.897-0.075-1.342-0.233c-2.081-0.741-3.167-3.028-2.427-5.11l25.357-71.241     l-57.423,11.528c-1.354,0.272-2.754-0.175-3.7-1.181c-0.947-1.007-1.308-2.43-0.953-3.766l13.861-52.295l-42.68,3.025     c-2.224,0.157-4.118-1.504-4.273-3.707c-0.156-2.204,1.504-4.116,3.707-4.273l48.264-3.421c1.29-0.09,2.542,0.445,3.365,1.44     c0.823,0.995,1.115,2.326,0.784,3.575l-13.649,51.494l58.047-11.653c1.409-0.283,2.868,0.214,3.812,1.304     c0.943,1.089,1.228,2.602,0.744,3.959l-27.726,77.895C167.82,234.507,166.279,235.529,164.635,235.529z"/>
		</g>
	</g>
	<g>
		<g>
			<g>
				<path class="st15" d="M164.635,239.028c-0.394,0-0.789-0.031-1.183-0.094c-2.22-0.354-4.163-1.686-5.295-3.626L79.698,100.844      c-1.606-2.752-1.298-6.218,0.769-8.644l17.697-20.771c2.657-3.116,7.324-3.528,10.483-0.92L230.76,171.302      c1.689,1.395,2.686,3.459,2.725,5.65s-0.882,4.29-2.521,5.744l-61.351,54.441C168.23,238.364,166.456,239.028,164.635,239.028z       M95.335,97.879l71.166,121.966l47.952-42.552l-109.66-90.515L95.335,97.879z"/>
			</g>
		</g>
	</g>
	<g>
		<g>
			<g>
				<path class="st12" d="M179.612,226.138c-1.382,1.227-3.156,1.89-4.978,1.89c-0.394,0-0.789-0.031-1.183-0.094      c-2.22-0.354-4.163-1.686-5.295-3.626L89.698,89.844c-1.606-2.752-1.298-6.218,0.769-8.644l9.755-11.449      c-0.76,0.424-1.461,0.979-2.058,1.679L80.467,92.2c-2.066,2.426-2.375,5.892-0.769,8.644l78.459,134.464      c1.132,1.941,3.075,3.272,5.295,3.626c0.394,0.063,0.789,0.094,1.183,0.094c1.821,0,3.596-0.664,4.978-1.89l61.351-54.441      c1.261-1.119,2.091-2.62,2.393-4.249L179.612,226.138z"/>
			</g>
		</g>
	</g>
	<g>
		<g>
			<path class="st15" d="M250.732,261.431H122.861V178.21c0-2.761,2.239-5,5-5h117.871c2.761,0,5,2.239,5,5V261.431z"/>
		</g>
	</g>
	<g>
		<g>
			<path class="st12" d="M152.861,191.21c0-2.761,2.239-5,5-5h92.871v-8c0-2.761-2.239-5-5-5H127.861c-2.761,0-5,2.239-5,5v83.221     h30V191.21z"/>
		</g>
	</g>
	<g>
		<g>
			<path class="st10" d="M80.158,480.092c-3.313,0-6-2.686-6-6V91.364c0-3.314,2.687-6,6-6s6,2.686,6,6v382.729     C86.158,477.406,83.472,480.092,80.158,480.092z"/>
		</g>
	</g>
	<g>
		<g>
			<circle class="st6" cx="95.046" cy="85.921" r="32.888"/>
		</g>
	</g>
	<g>
		<g>
			<path class="st7" d="M95.046,108.809c-12.62,0-22.888-10.268-22.888-22.888c0-12.62,10.268-22.888,22.888-22.888     s22.888,10.268,22.888,22.888C117.934,98.542,107.666,108.809,95.046,108.809z"/>
		</g>
	</g>
	<g>
		<g>
			<path class="st17" d="M452.842,424.575c-9.518,0-18.067-5.811-23.95-15.04c-1.931-3.03-6.416-3.03-8.348,0     c-5.883,9.23-14.432,15.04-23.95,15.04c-9.747,0-18.475-6.094-24.367-15.713c-1.919-3.134-6.533-3.134-8.452,0     c-5.892,9.619-14.62,15.713-24.367,15.713c-9.518,0-18.067-5.811-23.95-15.04c-1.931-3.03-6.416-3.03-8.348,0     c-5.883,9.229-14.432,15.04-23.95,15.04c-9.518,0-18.067-5.811-23.95-15.04c-1.931-3.03-6.416-3.03-8.348,0     c-5.883,9.23-14.432,15.04-23.95,15.04c-9.518,0-18.067-5.811-23.95-15.04c-1.931-3.03-6.416-3.03-8.348,0     c-5.883,9.23-14.432,15.04-23.95,15.04s-18.067-5.811-23.95-15.04c-1.931-3.03-6.416-3.03-8.348,0     c-5.883,9.229-14.432,15.04-23.95,15.04c-9.518,0-18.067-5.811-23.95-15.04c-1.931-3.03-6.416-3.03-8.348,0     c-5.883,9.23-14.432,15.04-23.95,15.04c-13.717,0-25.419-12.066-30.031-29.045h-1.115v62.798c0,0.664,0.538,1.202,1.202,1.202     h455.552c0.664,0,1.202-0.538,1.202-1.202v-61.596c0-0.664-0.538-1.202-1.202-1.202l0,0c-0.535,0-0.999,0.358-1.148,0.872     C477.857,412.92,466.322,424.575,452.842,424.575z"/>
		</g>
	</g>
	<g>
		<g>
			<path class="st16" d="M452.842,454.575c-9.518,0-18.067-5.811-23.95-15.04c-1.931-3.03-6.416-3.03-8.348,0     c-5.883,9.23-14.432,15.04-23.95,15.04c-9.747,0-18.475-6.094-24.367-15.713c-1.919-3.134-6.533-3.134-8.452,0     c-5.892,9.619-14.62,15.713-24.367,15.713c-9.518,0-18.067-5.811-23.95-15.04c-1.931-3.03-6.416-3.03-8.348,0     c-5.883,9.229-14.432,15.04-23.95,15.04c-9.518,0-18.067-5.811-23.95-15.04c-1.931-3.03-6.416-3.03-8.348,0     c-5.883,9.23-14.432,15.04-23.95,15.04c-9.518,0-18.067-5.811-23.95-15.04c-1.931-3.03-6.416-3.03-8.348,0     c-5.883,9.23-14.432,15.04-23.95,15.04s-18.067-5.811-23.95-15.04c-1.931-3.03-6.416-3.03-8.348,0     c-5.883,9.229-14.432,15.04-23.95,15.04c-9.518,0-18.067-5.811-23.95-15.04c-1.931-3.03-6.416-3.03-8.348,0     c-5.883,9.23-14.432,15.04-23.95,15.04c-13.717,0-25.419-12.066-30.031-29.045h-1.115v62.798c0,0.664,0.538,1.202,1.202,1.202     h455.552c0.664,0,1.202-0.538,1.202-1.202v-61.596c0-0.664-0.538-1.202-1.202-1.202l0,0c-0.535,0-0.999,0.358-1.148,0.872     C477.857,442.92,466.322,454.575,452.842,454.575z"/>
		</g>
	</g>
	<g>
		<g>
			<path class="st13" d="M233.355,255.936c-3.313,0-6-2.686-6-6v-36.698c0-3.314,2.687-6,6-6s6,2.686,6,6v36.698     C239.355,253.25,236.669,255.936,233.355,255.936z"/>
		</g>
	</g>
	<g>
		<g>
			<path class="st7" d="M95.046,108.809c-12.62,0-22.888-10.268-22.888-22.888c0-12.62,10.268-22.888,22.888-22.888     s22.888,10.268,22.888,22.888C117.934,98.542,107.666,108.809,95.046,108.809z"/>
		</g>
	</g>
	<g>
		<g>
			<path class="st0" d="M82.158,85.921c0-14.676,9.615-27.102,22.888-31.335c-3.154-1.006-6.512-1.553-10-1.553     c-18.163,0-32.888,14.724-32.888,32.888c0,18.163,14.725,32.888,32.888,32.888c3.488,0,6.846-0.547,10-1.553     C91.773,113.024,82.158,100.597,82.158,85.921z"/>
		</g>
	</g>
	<g>
		<g>
			<path class="st7" d="M95.046,108.809c-12.62,0-22.888-10.268-22.888-22.888c0-12.62,10.268-22.888,22.888-22.888     s22.888,10.268,22.888,22.888C117.934,98.542,107.666,108.809,95.046,108.809z"/>
		</g>
	</g>
	<g>
		<g>
			<path class="st4" d="M91.142,108.469c-5.558-5.888-8.984-13.811-8.984-22.548s3.426-16.66,8.984-22.548     c-10.766,1.859-18.983,11.259-18.983,22.548C72.158,97.21,80.376,106.61,91.142,108.469z"/>
		</g>
	</g>
	<g>
		<g>
			<path class="st0" d="M426.66,308.53c-3.313,0-6-2.686-6-6v-28.028c0-3.314,2.687-6,6-6s6,2.686,6,6v28.028     C432.66,305.843,429.974,308.53,426.66,308.53z"/>
		</g>
	</g>
	<g>
		<g>
			<circle class="st12" cx="175.652" cy="210.196" r="15"/>
		</g>
	</g>
	<g>
		<g>
			<circle class="st2" cx="208.527" cy="283.502" r="15"/>
		</g>
	</g>
</g>
</svg>
