<?xml version="1.0" encoding="utf-8"?>
<!-- Generator: Adobe Illustrator 22.1.0, SVG Export Plug-In . SVG Version: 6.00 Build 0)  -->
<svg xmlns="http://www.w3.org/2000/svg" xmlns:xlink="http://www.w3.org/1999/xlink" version="1.1" id="Layer_1" x="0px" y="0px" viewBox="0 0 512 512" style="enable-background:new 0 0 512 512;" xml:space="preserve" width="512" height="512">
<style type="text/css">
	.st0{fill:#FFA730;}
	.st1{fill:#E58D23;}
	.st2{fill:#BF6C0D;}
	.st3{fill:#A56021;}
	.st4{fill:#FFD551;}
	.st5{fill:#FFF4C1;}
	.st6{fill:#FFC34C;}
	.st7{fill:#FFEA63;}
	.st8{fill:#FCE575;}
	.st9{fill:#FFB74B;}
	.st10{fill:#8C4C17;}
	.st11{fill:#F9BB32;}
	.st12{fill:#FF4B34;}
	.st13{fill:#FF9079;}
	.st14{fill:#FFDF74;}
	.st15{fill:#FF624B;}
	.st16{fill:#CCC033;}
	.st17{fill:#EACF32;}
	.st18{fill:#FFEACF;}
	.st19{fill:#99AF17;}
	.st20{fill:#FFD59A;}
	.st21{fill:#FCDA4F;}
	.st22{fill:#FCF9DE;}
	.st23{fill:#DB9C2E;}
</style>
<g>
	<g>
		<g>
			<path class="st23" d="M143.701,437.194h224.597c-50.753-18.831-41.337-112.988-41.337-112.988H185.038h141.924H185.038     C185.038,324.206,194.454,418.362,143.701,437.194h224.597H143.701z"/>
		</g>
	</g>
	<g>
		<g>
			<path class="st4" d="M394.201,459.24H117.799c-4.418,0-8-3.582-8-8v-6.046c0-4.418,3.582-8,8-8h276.401c4.418,0,8,3.582,8,8     v6.046C402.201,455.658,398.619,459.24,394.201,459.24z"/>
		</g>
	</g>
	<g>
		<g>
			<path class="st2" d="M225.038,379.206h104.518c-5.292-27.984-2.594-55-2.594-55H185.038c0,0,9.416,94.156-41.337,112.988h78.146     C227.93,408.178,225.038,379.206,225.038,379.206z"/>
		</g>
	</g>
	<g>
		<g>
			<path class="st6" d="M169.799,451.24v-6.046c0-4.418,3.582-8,8-8h-60c-4.418,0-8,3.582-8,8v6.046c0,4.418,3.582,8,8,8h60     C173.381,459.24,169.799,455.658,169.799,451.24z"/>
		</g>
	</g>
	<g>
		<g>
			<path class="st11" d="M451.129,52.76H60.871c-8.284,0-15,6.716-15,15v241.289v13.779v19.093c0,13.807,11.193,25,25,25h370.259     c13.807,0,25-11.193,25-25v-19.093v-13.779V67.76C466.129,59.476,459.414,52.76,451.129,52.76z"/>
		</g>
	</g>
	<g>
		<g>
			<path class="st23" d="M105.871,341.921v-19.093v-13.779V67.76c0-8.284,6.716-15,15-15h-60c-8.284,0-15,6.716-15,15v241.289     v13.779v19.093c0,13.807,11.193,25,25,25h60C117.063,366.921,105.871,355.728,105.871,341.921z"/>
		</g>
	</g>
	<g>
		<g>
			<path class="st5" d="M60.87,307.828V77.76c0-5.523,4.477-10,10-10h370.26c5.523,0,10,4.477,10,10v230.068H60.87z"/>
		</g>
	</g>
	<g>
		<g>
			<path class="st8" d="M70.87,67.76c-5.523,0-10,4.477-10,10v230.068h45V67.76H70.87z"/>
		</g>
	</g>
	<g>
		<g>
			<circle class="st4" cx="256" cy="337.985" r="18.602"/>
		</g>
	</g>
	<g>
		<g>
			<circle class="st11" cx="365.333" cy="173.451" r="66.333"/>
		</g>
	</g>
	<g>
		<g>
			<path class="st4" d="M299,173.451c0,36.635,29.698,66.333,66.333,66.333v-66.333H299z"/>
		</g>
	</g>
	<g>
		<g>
			<path class="st7" d="M365.333,107.118c-36.635,0-66.333,29.698-66.333,66.333h66.333V107.118z"/>
		</g>
	</g>
	<g>
		<g>
			<path class="st1" d="M323.631,121.879l41.703,51.573v-66.333C349.53,107.118,335.026,112.653,323.631,121.879z"/>
		</g>
	</g>
	<g>
		<g>
			<g>
				<path class="st1" d="M268,97.118H92.333c-3.313,0-6-2.686-6-6s2.687-6,6-6H268c3.313,0,6,2.686,6,6S271.313,97.118,268,97.118z"/>
			</g>
		</g>
	</g>
	<g>
		<g>
			<g>
				<path class="st1" d="M180.167,122.118H92.333c-3.313,0-6-2.686-6-6s2.687-6,6-6h87.834c3.313,0,6,2.686,6,6      S183.48,122.118,180.167,122.118z"/>
			</g>
		</g>
	</g>
	<g>
		<g>
			<path class="st8" d="M70.87,67.76c-5.523,0-10,4.477-10,10v230.068h45V67.76H70.87z"/>
		</g>
	</g>
	<g>
		<g>
			<path class="st2" d="M105.871,110.118H92.333c-3.313,0-6,2.686-6,6s2.687,6,6,6h13.538V110.118z"/>
		</g>
	</g>
	<g>
		<g>
			<path class="st2" d="M105.871,85.118H92.333c-3.313,0-6,2.686-6,6s2.687,6,6,6h13.538V85.118z"/>
		</g>
	</g>
	<g>
		<g>
			<path class="st6" d="M119.667,284.451H92.333v-144c0-2.209,1.791-4,4-4h19.333c2.209,0,4,1.791,4,4V284.451z"/>
		</g>
	</g>
	<g>
		<g>
			<path class="st11" d="M146.667,284.451h-27.333v-92.657c0-2.209,1.791-4,4-4h19.333c2.209,0,4,1.791,4,4V284.451z"/>
		</g>
	</g>
	<g>
		<g>
			<path class="st6" d="M173.667,284.451h-27.333v-64c0-2.209,1.791-4,4-4h19.333c2.209,0,4,1.791,4,4V284.451z"/>
		</g>
	</g>
	<g>
		<g>
			<path class="st11" d="M200.667,284.451h-27.333v-92.657c0-2.209,1.791-4,4-4h19.333c2.209,0,4,1.791,4,4V284.451z"/>
		</g>
	</g>
	<g>
		<g>
			<path class="st6" d="M227.667,284.451h-27.333V169.118c0-2.209,1.791-4,4-4h19.333c2.209,0,4,1.791,4,4V284.451z"/>
		</g>
	</g>
	<g>
		<g>
			<path class="st11" d="M254.667,284.451h-27.333v-64c0-2.209,1.791-4,4-4h19.333c2.209,0,4,1.791,4,4V284.451z"/>
		</g>
	</g>
	<g>
		<g>
			<path class="st6" d="M281.667,284.451h-27.333V247.89c0-2.209,1.791-4,4-4h19.333c2.209,0,4,1.791,4,4V284.451z"/>
		</g>
	</g>
	<g>
		<g>
			<path class="st23" d="M105.871,136.451h-9.537c-2.209,0-4,1.791-4,4v144h13.537V136.451z"/>
		</g>
	</g>
	<g>
		<g>
			<circle class="st23" cx="130.871" cy="331.747" r="15"/>
		</g>
	</g>
	<g>
		<g>
			<path class="st22" d="M418.667,132.342c-3.313,0-6-2.687-6-6v-19.224c0-3.313,2.687-6,6-6s6,2.687,6,6v19.224     C424.667,129.655,421.98,132.342,418.667,132.342z"/>
		</g>
	</g>
	<g>
		<g>
			<path class="st22" d="M418.667,284.654c-3.313,0-6-2.687-6-6v-128.14c0-3.313,2.687-6,6-6s6,2.687,6,6v128.14     C424.667,281.968,421.98,284.654,418.667,284.654z"/>
		</g>
	</g>
	<g>
		<g>
			<path class="st11" d="M332.166,430.392c-1.501,0-3.004-0.56-4.169-1.686c-14.134-13.661-20.866-33.348-21.146-34.179     c-1.057-3.141,0.633-6.543,3.773-7.6c3.135-1.057,6.539,0.631,7.598,3.768c0.077,0.226,6.143,17.811,18.114,29.382     c2.383,2.303,2.447,6.102,0.145,8.484C335.304,429.779,333.736,430.392,332.166,430.392z"/>
		</g>
	</g>
	<g>
		<g>
			<path class="st11" d="M332.166,430.392c-1.501,0-3.004-0.56-4.169-1.686c-14.134-13.661-20.866-33.348-21.146-34.179     c-1.057-3.141,0.633-6.543,3.773-7.6c3.135-1.057,6.539,0.631,7.598,3.768c0.077,0.226,6.143,17.811,18.114,29.382     c2.383,2.303,2.447,6.102,0.145,8.484C335.304,429.779,333.736,430.392,332.166,430.392z"/>
		</g>
	</g>
</g>
</svg>
