<?xml version="1.0" encoding="utf-8"?>
<!-- Generator: Adobe Illustrator 22.1.0, SVG Export Plug-In . SVG Version: 6.00 Build 0)  -->
<svg xmlns="http://www.w3.org/2000/svg" xmlns:xlink="http://www.w3.org/1999/xlink" version="1.1" id="Layer_1" x="0px" y="0px" viewBox="0 0 512 512" style="enable-background:new 0 0 512 512;" xml:space="preserve" width="512" height="512">
<style type="text/css">
	.st0{fill:#FFA730;}
	.st1{fill:#E58D23;}
	.st2{fill:#BF6C0D;}
	.st3{fill:#A56021;}
	.st4{fill:#FFD551;}
	.st5{fill:#FFF4C1;}
	.st6{fill:#FFC34C;}
	.st7{fill:#FFEA63;}
	.st8{fill:#FCE575;}
	.st9{fill:#FFB74B;}
	.st10{fill:#8C4C17;}
	.st11{fill:#F9BB32;}
	.st12{fill:#FF4B34;}
	.st13{fill:#FF9079;}
	.st14{fill:#FFDF74;}
	.st15{fill:#FF624B;}
	.st16{fill:#CCC033;}
	.st17{fill:#EACF32;}
	.st18{fill:#FFEACF;}
	.st19{fill:#99AF17;}
	.st20{fill:#FFD59A;}
	.st21{fill:#FCDA4F;}
	.st22{fill:#FCF9DE;}
	.st23{fill:#DB9C2E;}
</style>
<g>
	<g>
		<g>
			<path class="st1" d="M299.357,454.859h-69.068V55.141c0-4.418,3.582-8,8-8h53.068c4.418,0,8,3.582,8,8V454.859z"/>
		</g>
	</g>
	<g>
		<g>
			<path class="st2" d="M273.288,47.142h-35c-4.418,0-8,3.581-8,8v399.717h35V55.142C265.288,50.723,268.87,47.142,273.288,47.142z"/>
		</g>
	</g>
	<g>
		<g>
			<path class="st10" d="M32.107,464.859c-5.523,0-10-4.477-10-10V346.584c0-16.833,13.385-30.528,29.836-30.528h427.949     c5.522,0,10,4.477,10,10s-4.478,10-10,10H51.944c-5.424,0-9.836,4.723-9.836,10.528v108.274     C42.107,460.381,37.63,464.859,32.107,464.859z"/>
		</g>
	</g>
	<g>
		<g>
			<path class="st10" d="M264.822,336.056c-5.522,0-10-4.477-10-10v-70.739c0-16.833,13.695-30.528,30.528-30.528h85.345     c5.522,0,10,4.477,10,10s-4.478,10-10,10h-85.345c-5.806,0-10.528,4.723-10.528,10.528v70.739     C274.822,331.579,270.345,336.056,264.822,336.056z"/>
		</g>
	</g>
	<g>
		<g>
			<path class="st11" d="M423.312,261.522v-47.473c0-5.522-4.477-10-10-10h-85.233c-5.523,0-10,4.478-10,10v47.473l-27.011,174.506     h159.254L423.312,261.522z"/>
		</g>
	</g>
	<g>
		<g>
			<path class="st1" d="M440.322,454.859H301.068c-5.523,0-10-4.477-10-10v-8.831h159.254v8.831     C450.322,450.382,445.845,454.859,440.322,454.859z"/>
		</g>
	</g>
	<g>
		<g>
			<path class="st4" d="M213.561,234.788v-55.42c0-5.522-4.477-10-10-10h-99.784c-5.523,0-10,4.478-10,10v55.42L63.031,436.027     h181.275L213.561,234.788z"/>
		</g>
	</g>
	<g>
		<g>
			<path class="st6" d="M234.307,454.859H73.031c-5.523,0-10-4.477-10-10v-8.831h181.275v8.831     C244.307,450.382,239.829,454.859,234.307,454.859z"/>
		</g>
	</g>
	<g>
		<g>
			<path class="st6" d="M133.777,179.368c0-5.522,4.477-10,10-10h-40c-5.523,0-10,4.478-10,10v55.42L63.031,436.027h40     l30.745-201.239V179.368z"/>
		</g>
	</g>
	<g>
		<g>
			<path class="st11" d="M103.031,444.859v-8.831h-40v8.831c0,5.523,4.477,10,10,10h40     C107.509,454.859,103.031,450.382,103.031,444.859z"/>
		</g>
	</g>
	<g>
		<g>
			<path class="st23" d="M358.079,214.049c0-5.522,4.477-10,10-10h-40c-5.523,0-10,4.478-10,10v47.473l-27.011,174.506h40     l27.011-174.506V214.049z"/>
		</g>
	</g>
	<g>
		<g>
			<path class="st2" d="M331.068,444.859v-8.831h-40v8.831c0,5.523,4.477,10,10,10h40     C335.545,454.859,331.068,450.382,331.068,444.859z"/>
		</g>
	</g>
	<g>
		<g>
			<circle class="st6" cx="136.231" cy="371.203" r="15"/>
		</g>
	</g>
	<g>
		<g>
			<circle class="st6" cx="168.669" cy="401.162" r="15"/>
		</g>
	</g>
	<g>
		<g>
			<circle class="st23" cx="363" cy="409.801" r="15"/>
		</g>
	</g>
	<g>
		<g>
			<path class="st7" d="M210.993,330.001c-2.888,0-5.433-2.09-5.914-5.033l-14-85.638c-0.052-0.32-0.079-0.644-0.079-0.968V213.8     c0-3.313,2.686-6,6-6s6,2.687,6,6v24.074l13.921,85.157c0.535,3.271-1.683,6.355-4.953,6.89     C211.64,329.975,211.314,330.001,210.993,330.001z"/>
		</g>
	</g>
	<g>
		<g>
			<path class="st4" d="M420.993,353.001c-2.888,0-5.434-2.09-5.915-5.033l-14-85.638c-0.052-0.32-0.078-0.644-0.078-0.968V236.8     c0-3.313,2.687-6,6-6s6,2.687,6,6v24.074l13.922,85.157c0.534,3.271-1.684,6.355-4.954,6.89     C421.641,352.975,421.314,353.001,420.993,353.001z"/>
		</g>
	</g>
	<g>
		<g>
			<path class="st0" d="M286,188c-3.313,0-6-2.687-6-6v-80.6c0-3.313,2.687-6,6-6s6,2.687,6,6V182C292,185.314,289.313,188,286,188z     "/>
		</g>
	</g>
</g>
</svg>
