<?xml version="1.0" encoding="utf-8"?>
<!-- Generator: Adobe Illustrator 22.1.0, SVG Export Plug-In . SVG Version: 6.00 Build 0)  -->
<svg xmlns="http://www.w3.org/2000/svg" xmlns:xlink="http://www.w3.org/1999/xlink" version="1.1" id="Layer_1" x="0px" y="0px" viewBox="0 0 512 512" style="enable-background:new 0 0 512 512;" xml:space="preserve" width="512" height="512">
<style type="text/css">
	.st0{fill:#FFA730;}
	.st1{fill:#E58D23;}
	.st2{fill:#BF6C0D;}
	.st3{fill:#A56021;}
	.st4{fill:#FFD551;}
	.st5{fill:#FFF4C1;}
	.st6{fill:#FFC34C;}
	.st7{fill:#FFEA63;}
	.st8{fill:#FCE575;}
	.st9{fill:#FFB74B;}
	.st10{fill:#8C4C17;}
	.st11{fill:#F9BB32;}
	.st12{fill:#FF4B34;}
	.st13{fill:#FF9079;}
	.st14{fill:#FFDF74;}
	.st15{fill:#FF624B;}
	.st16{fill:#CCC033;}
	.st17{fill:#EACF32;}
	.st18{fill:#FFEACF;}
	.st19{fill:#99AF17;}
	.st20{fill:#FFD59A;}
	.st21{fill:#FCDA4F;}
	.st22{fill:#FCF9DE;}
	.st23{fill:#DB9C2E;}
</style>
<g>
	<g>
		<g>
			<path class="st15" d="M411.333,450.165h-39.311c-2.761,0-5-2.239-5-5v-48.978h49.311v48.978     C416.333,447.926,414.095,450.165,411.333,450.165z"/>
		</g>
	</g>
	<g>
		<g>
			<path class="st15" d="M141.333,450.165h-39.311c-2.761,0-5-2.239-5-5v-48.978h49.311v48.978     C146.333,447.926,144.095,450.165,141.333,450.165z"/>
		</g>
	</g>
	<g>
		<g>
			<path class="st12" d="M387.022,418.187h29.311v-22h-49.311v48.979c0,2.761,2.239,5,5,5h15V418.187z"/>
		</g>
	</g>
	<g>
		<g>
			<path class="st12" d="M117.022,418.187h29.311v-22H97.022v48.979c0,2.761,2.239,5,5,5h15V418.187z"/>
		</g>
	</g>
	<g>
		<g>
			<path class="st3" d="M429.344,463.309h-75.333c-2.209,0-4-1.791-4-4v-17.333c0-2.209,1.791-4,4-4h75.333c2.209,0,4,1.791,4,4     v17.333C433.344,461.518,431.554,463.309,429.344,463.309z"/>
		</g>
	</g>
	<g>
		<g>
			<path class="st15" d="M415.625,208.131v-0.023h-0.92h-0.236H97.532h-0.236h-0.273v0.007     c-44.056,0.148-79.727,35.902-79.727,79.993v36.512c0,44.091,35.67,79.845,79.727,79.993v0.007h0.273h0.236h316.936h0.236h0.92     v-0.023c43.757-0.496,79.08-36.103,79.08-79.977v-36.512C494.704,244.233,459.381,208.626,415.625,208.131z"/>
		</g>
	</g>
	<g>
		<g>
			<path class="st3" d="M159.344,462.831H84.011c-2.209,0-4-1.791-4-4v-17.333c0-2.209,1.791-4,4-4h75.333c2.209,0,4,1.791,4,4     v17.333C163.344,461.041,161.554,462.831,159.344,462.831z"/>
		</g>
	</g>
	<g>
		<g>
			<path class="st10" d="M380.011,453.976c0-2.209,1.791-4,4-4h49.333v-8c0-2.209-1.791-4-4-4h-75.333c-2.209,0-4,1.791-4,4v17.334     c0,2.209,1.791,4,4,4h26V453.976z"/>
		</g>
	</g>
	<g>
		<g>
			<path class="st10" d="M110.011,453.498c0-2.209,1.791-4,4-4h49.333v-8c0-2.209-1.791-4-4-4H84.011c-2.209,0-4,1.791-4,4v17.333     c0,2.21,1.791,4,4,4h26V453.498z"/>
		</g>
	</g>
	<g>
		<g>
			<path class="st12" d="M67.296,354.619v-36.512c0-44.091,35.67-79.845,79.727-79.993v-0.007h0.273h0.236h316.936h0.236h0.92v0.023     c4.216,0.048,8.351,0.429,12.386,1.104c-14.457-18.69-36.993-30.816-62.386-31.104v-0.023h-0.92h-0.236H97.532h-0.236h-0.273     v0.007c-44.056,0.148-79.727,35.902-79.727,79.993v36.512c0,39.645,28.845,72.532,66.689,78.873     C73.532,389.975,67.296,373.03,67.296,354.619z"/>
		</g>
	</g>
	<g>
		<g>
			<circle class="st9" cx="309.059" cy="108.976" r="60.286"/>
		</g>
	</g>
	<g>
		<g>
			<path class="st0" d="M284.773,108.976c0-27.025,17.783-49.895,42.286-57.551c-5.685-1.776-11.73-2.735-18-2.735     c-33.295,0-60.286,26.991-60.286,60.286c0,33.294,26.991,60.285,60.286,60.285c6.27,0,12.315-0.958,18-2.735     C302.557,158.871,284.773,136.001,284.773,108.976z"/>
		</g>
	</g>
	<g>
		<g>
			<circle class="st3" cx="176.018" cy="135.899" r="34.362"/>
		</g>
	</g>
	<g>
		<g>
			<path class="st10" d="M163.656,135.899c0-15.129,9.782-27.965,23.362-32.553c-3.455-1.167-7.151-1.809-11-1.809     c-18.978,0-34.362,15.385-34.362,34.362c0,18.978,15.385,34.362,34.362,34.362c3.849,0,7.545-0.642,11-1.809     C173.437,163.864,163.656,151.028,163.656,135.899z"/>
		</g>
	</g>
	<g>
		<g>
			<path class="st3" d="M186.667,241.976L186.667,241.976c-6.075,0-11-4.925-11-11v-20.333h22v20.333     C197.667,237.051,192.742,241.976,186.667,241.976z"/>
		</g>
	</g>
	<g>
		<g>
			<path class="st3" d="M325.667,241.976L325.667,241.976c-6.075,0-11-4.925-11-11v-20.333h22v20.333     C336.667,237.051,331.742,241.976,325.667,241.976z"/>
		</g>
	</g>
	<g>
		<g>
			<path class="st10" d="M185.667,230.976v-20.333h-10v20.333c0,6.075,4.925,11,11,11h0c1.802,0,3.499-0.442,5-1.21     C188.108,238.944,185.667,235.249,185.667,230.976z"/>
		</g>
	</g>
	<g>
		<g>
			<path class="st10" d="M324.667,230.976v-20.333h-10v20.333c0,6.075,4.925,11,11,11h0c1.802,0,3.499-0.442,5-1.21     C327.108,238.944,324.667,235.249,324.667,230.976z"/>
		</g>
	</g>
	<g>
		<g>
			
				<rect x="166.982" y="94.848" transform="matrix(0.9382 -0.3461 0.3461 0.9382 -20.6156 88.28)" class="st4" width="139.808" height="14.036"/>
		</g>
	</g>
	<g>
		<g>
			<path class="st1" d="M363.667,220.976H148.333c-5.523,0-10-4.477-10-10v-31.333c0-5.523,4.477-10,10-10h215.333     c5.523,0,10,4.477,10,10v31.333C373.667,216.499,369.19,220.976,363.667,220.976z"/>
		</g>
	</g>
	<g>
		<g>
			<path class="st2" d="M168.333,195.643c0-5.523,4.477-10,10-10h195.333v-6c0-5.523-4.477-10-10-10H148.333     c-5.523,0-10,4.477-10,10v31.333c0,5.522,4.477,10,10,10h20V195.643z"/>
		</g>
	</g>
	<g>
		<g>
			<path class="st14" d="M176.018,154.32c-10.157,0-18.421-8.263-18.421-18.421c0-10.157,8.264-18.422,18.421-18.422     c10.157,0,18.421,8.264,18.421,18.422C194.439,146.057,186.176,154.32,176.018,154.32z"/>
		</g>
	</g>
	<g>
		<g>
			<path class="st14" d="M309.059,148.353c-21.713,0-39.378-17.665-39.378-39.378s17.665-39.377,39.378-39.377     c21.713,0,39.377,17.664,39.377,39.377S330.772,148.353,309.059,148.353z"/>
		</g>
	</g>
	<g>
		<g>
			<path class="st4" d="M168.597,135.899c0-8.242,5.442-15.237,12.921-17.582c-1.738-0.545-3.585-0.84-5.5-0.84     c-10.157,0-18.421,8.265-18.421,18.422s8.264,18.421,18.421,18.421c1.915,0,3.762-0.295,5.5-0.84     C174.039,151.136,168.597,144.142,168.597,135.899z"/>
		</g>
	</g>
	<g>
		<g>
			<path class="st4" d="M290.682,108.976c0-18.077,12.248-33.336,28.878-37.944c-3.345-0.927-6.864-1.433-10.5-1.433     c-21.713,0-39.378,17.664-39.378,39.376s17.665,39.377,39.378,39.377c3.636,0,7.155-0.506,10.5-1.433     C302.929,142.313,290.682,127.052,290.682,108.976z"/>
		</g>
	</g>
	<g>
		<g>
			<circle class="st12" cx="132" cy="281.321" r="15"/>
		</g>
	</g>
	<g>
		<g>
			<circle class="st12" cx="97.022" cy="320.8" r="15"/>
		</g>
	</g>
	<g>
		<g>
			<path class="st13" d="M416.327,392.643c-3.103,0-5.731-2.39-5.976-5.535c-0.257-3.304,2.213-6.19,5.517-6.447     c53.771-4.182,56.073-57.758,56.145-60.037c0.104-3.307,2.86-5.938,6.174-5.815c3.308,0.097,5.912,2.848,5.821,6.156     c-0.019,0.679-0.552,16.814-8.967,33.685c-7.917,15.873-24.448,35.347-58.242,37.975     C416.641,392.637,416.483,392.643,416.327,392.643z"/>
		</g>
	</g>
	<g>
		<g>
			<path class="st0" d="M359,216.643c-3.313,0-6-2.687-6-6v-15.333c0-3.313,2.687-6,6-6s6,2.687,6,6v15.333     C365,213.956,362.313,216.643,359,216.643z"/>
		</g>
	</g>
</g>
</svg>
