<?xml version="1.0" encoding="utf-8"?>
<!-- Generator: Adobe Illustrator 22.1.0, SVG Export Plug-In . SVG Version: 6.00 Build 0)  -->
<svg xmlns="http://www.w3.org/2000/svg" xmlns:xlink="http://www.w3.org/1999/xlink" version="1.1" id="Layer_1" x="0px" y="0px" viewBox="0 0 512 512" style="enable-background:new 0 0 512 512;" xml:space="preserve" width="512" height="512">
<style type="text/css">
	.st0{fill:#FFA730;}
	.st1{fill:#E58D23;}
	.st2{fill:#BF6C0D;}
	.st3{fill:#A56021;}
	.st4{fill:#FFD551;}
	.st5{fill:#FFF4C1;}
	.st6{fill:#FFC34C;}
	.st7{fill:#FFEA63;}
	.st8{fill:#FCE575;}
	.st9{fill:#FFB74B;}
	.st10{fill:#8C4C17;}
	.st11{fill:#F9BB32;}
	.st12{fill:#FF4B34;}
	.st13{fill:#FF9079;}
	.st14{fill:#FFDF74;}
	.st15{fill:#FF624B;}
	.st16{fill:#CCC033;}
	.st17{fill:#EACF32;}
	.st18{fill:#FFEACF;}
	.st19{fill:#99AF17;}
	.st20{fill:#FFD59A;}
	.st21{fill:#FCDA4F;}
	.st22{fill:#FCF9DE;}
	.st23{fill:#DB9C2E;}
</style>
<g>
	<g>
		<path class="st0" d="M154.563,370.002h-9.761c-2.209,0-4-1.791-4-4v-23.603h17.761v23.603    C158.563,368.211,156.772,370.002,154.563,370.002z"/>
	</g>
	<g>
		<path class="st0" d="M367.501,370.705h-9.761c-2.209,0-4-1.791-4-4v-23.603h17.761v23.603    C371.501,368.914,369.71,370.705,367.501,370.705z"/>
	</g>
	<g>
		<path class="st1" d="M148.802,366.002v-23.603h-8v23.603c0,2.209,1.791,4,4,4h8C150.593,370.002,148.802,368.211,148.802,366.002z    "/>
	</g>
	<g>
		<path class="st1" d="M361.74,366.705v-23.603h-8v23.603c0,2.209,1.791,4,4,4h8C363.531,370.705,361.74,368.914,361.74,366.705z"/>
	</g>
	<g>
		<g>
			<path class="st0" d="M166.527,169.944h-9.761c-2.209,0-4-1.791-4-4v-23.603h17.761v23.603     C170.527,168.154,168.736,169.944,166.527,169.944z"/>
		</g>
		<g>
			<path class="st0" d="M355.234,169.944h-9.761c-2.209,0-4-1.791-4-4v-23.603h17.761v23.603     C359.234,168.154,357.443,169.944,355.234,169.944z"/>
		</g>
	</g>
	<g>
		<path class="st1" d="M160.766,165.944v-23.603h-8v23.603c0,2.209,1.791,4,4,4h8C162.557,169.944,160.766,168.154,160.766,165.944z    "/>
	</g>
	<g>
		<path class="st1" d="M349.473,165.944v-23.603h-8v23.603c0,2.209,1.791,4,4,4h8C351.264,169.944,349.473,168.154,349.473,165.944z    "/>
	</g>
	<g>
		<path class="st6" d="M311.502,347.044H200.498c-1.646,0-3.125-1.009-3.725-2.542c-0.601-1.533-0.2-3.278,1.009-4.395    l53.219-49.196l-46.311-44.135c-1.189-1.133-1.564-2.878-0.946-4.4c0.618-1.522,2.125-2.524,3.746-2.495l99.249,0.991    c1.639,0.016,3.103,1.031,3.692,2.561c0.59,1.529,0.187,3.264-1.018,4.376L262.69,291l51.571,49.149    c1.184,1.128,1.562,2.864,0.954,4.382C314.608,346.048,313.138,347.044,311.502,347.044z M210.717,339.044h90.79l-44.703-42.603    L210.717,339.044z M217.552,247.981l39.336,37.488l39.7-36.699L217.552,247.981z"/>
	</g>
	<g>
		<path class="st6" d="M311.502,147.236H200.498c-1.646,0-3.125-1.009-3.725-2.542c-0.601-1.533-0.2-3.278,1.009-4.395    l53.219-49.196l-46.311-44.135c-1.189-1.133-1.564-2.878-0.946-4.4c0.618-1.522,2.125-2.52,3.746-2.495l99.249,0.991    c1.639,0.016,3.103,1.031,3.692,2.561c0.59,1.529,0.187,3.264-1.018,4.376L262.69,91.191l51.571,49.149    c1.184,1.128,1.562,2.864,0.954,4.382C314.608,146.24,313.138,147.236,311.502,147.236z M210.717,139.236h90.79l-44.703-42.603    L210.717,139.236z M217.552,48.173l39.336,37.488l39.701-36.699L217.552,48.173z"/>
	</g>
	<g>
		<path class="st6" d="M311.502,247.88H200.498c-1.646,0-3.125-1.009-3.725-2.542c-0.601-1.533-0.2-3.278,1.009-4.395l53.219-49.196    l-46.311-44.135c-1.189-1.133-1.564-2.878-0.946-4.4c0.618-1.522,2.125-2.53,3.746-2.495l99.249,0.991    c1.639,0.016,3.103,1.031,3.692,2.561c0.59,1.529,0.187,3.264-1.018,4.376l-46.724,43.192l51.571,49.149    c1.184,1.128,1.562,2.864,0.954,4.382C314.608,246.884,313.138,247.88,311.502,247.88z M210.717,239.88h90.79l-44.703-42.603    L210.717,239.88z M217.552,148.817l39.336,37.488l39.701-36.699L217.552,148.817z"/>
	</g>
	<g>
		<path class="st10" d="M365.143,147.236H146.858c-1.397,0-2.693-0.729-3.418-1.923c-0.725-1.194-0.775-2.679-0.132-3.919    l52.217-100.642c0.688-1.326,2.057-2.158,3.551-2.158h113.85c1.493,0,2.862,0.832,3.551,2.158l52.218,100.642    c0.644,1.24,0.593,2.726-0.133,3.92S366.539,147.236,365.143,147.236z M153.439,139.236h205.121l-48.066-92.642H201.506    L153.439,139.236z"/>
	</g>
	<g>
		<path class="st10" d="M365.143,347.236H146.858c-1.397,0-2.693-0.729-3.418-1.923c-0.725-1.194-0.775-2.679-0.132-3.919    l52.217-100.642c0.688-1.326,2.057-2.158,3.551-2.158h113.85c1.493,0,2.862,0.832,3.551,2.158l52.218,100.642    c0.644,1.24,0.593,2.726-0.133,3.92S366.539,347.236,365.143,347.236z M153.439,339.236h205.121l-48.066-92.642H201.506    L153.439,339.236z"/>
	</g>
	<g>
		<polygon class="st3" points="195.443,460.634 175.453,457.17 205.552,37.412 225.543,40.876   "/>
	</g>
	<g>
		<polygon class="st3" points="316.557,460.634 336.547,457.17 306.448,37.412 286.457,40.876   "/>
	</g>
	<g>
		<path class="st1" d="M320.75,48.438V36.75c0-2.209-1.791-4-4-4h-121.5c-2.209,0-4,1.791-4,4v11.688c0,2.209,1.791,4,4,4h121.5    C318.959,52.438,320.75,50.647,320.75,48.438z"/>
	</g>
	<g>
		<path class="st1" d="M371.186,149.08v-11.688c0-2.209-1.791-4-4-4H144.814c-2.209,0-4,1.791-4,4v11.688c0,2.209,1.791,4,4,4    h222.372C369.395,153.08,371.186,151.289,371.186,149.08z"/>
	</g>
	<g>
		<path class="st1" d="M335.025,248.438V236.75c0-2.209-1.791-4-4-4h-150.05c-2.209,0-4,1.791-4,4v11.688c0,2.209,1.791,4,4,4    h150.05C333.234,252.438,335.025,250.647,335.025,248.438z"/>
	</g>
	<g>
		<path class="st1" d="M386.25,349.08v-11.688c0-2.209-1.791-4-4-4h-252.5c-2.209,0-4,1.791-4,4v11.688c0,2.209,1.791,4,4,4h252.5    C384.459,353.08,386.25,351.289,386.25,349.08z"/>
	</g>
	<g>
		<path class="st11" d="M470.681,479.25H41.319c-4.418,0-8-3.582-8-8v-36.784c0-4.418,3.582-8,8-8h429.362c4.418,0,8,3.582,8,8    v36.784C478.681,475.668,475.099,479.25,470.681,479.25z"/>
	</g>
	<g>
		<path class="st23" d="M73.319,455.754c0-5.626,3.582-10.187,8-10.187h397.362v-8.914c0-5.626-3.582-10.187-8-10.187H41.319    c-4.418,0-8,4.561-8,10.187v32.41c0,5.626,3.582,10.187,8,10.187h32V455.754z"/>
	</g>
	<g>
		<path class="st2" d="M326.494,420.723c-2.278,0-4.232-1.725-4.471-4.041l-4-38.973c-0.254-2.472,1.545-4.682,4.018-4.936    c2.448-0.25,4.681,1.544,4.936,4.017l4,38.973c0.254,2.472-1.545,4.682-4.018,4.936    C326.804,420.716,326.648,420.723,326.494,420.723z"/>
	</g>
	<g>
		<path class="st0" d="M373.501,347.819H274c-2.209,0-4-1.791-4-4s1.791-4,4-4h99.501c2.209,0,4,1.791,4,4    S375.71,347.819,373.501,347.819z"/>
	</g>
	<g>
		<path class="st0" d="M323.501,246.819H242c-2.209,0-4-1.791-4-4s1.791-4,4-4h81.501c2.209,0,4,1.791,4,4    S325.71,246.819,323.501,246.819z"/>
	</g>
	<g>
		<path class="st0" d="M363.501,146.819h-69.598c-2.209,0-4-1.791-4-4s1.791-4,4-4h69.598c2.209,0,4,1.791,4,4    S365.71,146.819,363.501,146.819z"/>
	</g>
	<g>
		<path class="st0" d="M312.501,46.819H251c-2.209,0-4-1.791-4-4s1.791-4,4-4h61.501c2.209,0,4,1.791,4,4    S314.71,46.819,312.501,46.819z"/>
	</g>
	<g>
		<path class="st2" d="M221.25,48.438V36.75c0-2.209,1.791-4,4-4h-30c-2.209,0-4,1.791-4,4v11.688c0,2.209,1.791,4,4,4h30    C223.041,52.438,221.25,50.647,221.25,48.438z"/>
	</g>
	<g>
		<path class="st2" d="M170.814,149.08v-11.688c0-2.209,1.791-4,4-4h-30c-2.209,0-4,1.791-4,4v11.688c0,2.209,1.791,4,4,4h30    C172.605,153.08,170.814,151.289,170.814,149.08z"/>
	</g>
	<g>
		<path class="st2" d="M206.975,248.438V236.75c0-2.209,1.791-4,4-4h-30c-2.209,0-4,1.791-4,4v11.688c0,2.209,1.791,4,4,4h30    C208.766,252.438,206.975,250.646,206.975,248.438z"/>
	</g>
	<g>
		<path class="st2" d="M155.75,349.08v-11.688c0-2.209,1.791-4,4-4h-30c-2.209,0-4,1.791-4,4v11.688c0,2.209,1.791,4,4,4h30    C157.541,353.08,155.75,351.289,155.75,349.08z"/>
	</g>
	<g>
		<circle class="st23" cx="96.822" cy="461.457" r="10.822"/>
	</g>
</g>
</svg>
