<svg id="Layer_1" height="512" viewBox="0 0 150 150" width="512" xmlns="http://www.w3.org/2000/svg" data-name="Layer 1"><circle cx="75" cy="75" fill="#efc84a" r="64"/><rect fill="#2f4859" height="77.8" rx="5.71" width="59.64" x="45.18" y="36.1"/><path d="m52.76 42.78h44.47v17.16h-44.47z" fill="#27a2db"/><g fill="#3a556a"><rect height="5.99" rx="1.24" width="8.73" x="52.76" y="71.62"/><rect height="5.99" rx="1.24" width="8.73" x="64.68" y="71.62"/><rect height="5.99" rx="1.24" width="8.73" x="76.59" y="71.62"/><rect height="5.99" rx="1.24" width="8.73" x="88.5" y="71.62"/><rect height="5.99" rx="1.24" width="8.73" x="52.76" y="81.35"/><rect height="5.99" rx="1.24" width="8.73" x="64.68" y="81.35"/><rect height="5.99" rx="1.24" width="8.73" x="76.59" y="81.35"/><rect height="5.99" rx="1.24" width="8.73" x="88.5" y="81.35"/><rect height="5.99" rx="1.24" width="8.73" x="52.76" y="91.07"/><rect height="5.99" rx="1.24" width="8.73" x="64.68" y="91.07"/><rect height="5.99" rx="1.24" width="8.73" x="76.59" y="91.07"/><rect height="5.99" rx="1.24" width="8.73" x="88.5" y="91.07"/></g><rect fill="#44c4a1" height="5.99" rx="1.24" width="8.73" x="52.76" y="100.79"/><rect fill="#3a556a" height="5.99" rx="1.24" width="8.73" x="64.68" y="100.79"/><rect fill="#3a556a" height="5.99" rx="1.24" width="8.73" x="76.59" y="100.79"/><rect fill="#e56353" height="5.99" rx="1.24" width="8.73" x="88.5" y="100.79"/><rect fill="#3a556a" height="3.43" rx=".89" width="8.73" x="52.76" y="64.92"/><rect fill="#3a556a" height="3.43" rx=".89" width="8.73" x="64.68" y="64.92"/><rect fill="#3a556a" height="3.43" rx=".89" width="8.73" x="76.59" y="64.92"/><rect fill="#3a556a" height="3.43" rx=".89" width="8.73" x="88.5" y="64.92"/></svg>