<svg id="Layer_1" height="512" viewBox="0 0 150 150" width="512" xmlns="http://www.w3.org/2000/svg" data-name="Layer 1"><circle cx="75" cy="75" fill="#45b39c" r="64"/><path d="m31.51 51.67a12.24 12.24 0 0 1 12.25-12.24h43a12.24 12.24 0 0 0 -12 12.24z" fill="#e1e6e9"/><path d="m86.74 39.43h-43a10.45 10.45 0 0 1 10.16 10.48v50.56a10.1 10.1 0 0 0 10.1 10.1h37.44v-58.8a12.33 12.33 0 0 0 -12.34-12.34z" fill="#ebf0f3"/><path d="m118.49 98.33a12.24 12.24 0 0 1 -12.25 12.24h-43a12.24 12.24 0 0 0 12-12.24z" fill="#e1e6e9"/><path d="m60.86 52.69h8.55v8.55h-8.55z" fill="#e56353"/><path d="m60.86 68.29h8.55v8.55h-8.55z" fill="#27a2db"/><path d="m60.86 83.89h8.55v8.55h-8.55z" fill="#44c4a1"/><g fill="#e1e6e9"><path d="m72.41 54.78h24.18v1.26h-24.18z"/><path d="m72.41 57.9h24.18v1.26h-24.18z"/><path d="m72.41 70.38h24.18v1.26h-24.18z"/><path d="m72.41 73.5h24.18v1.26h-24.18z"/><path d="m72.41 85.98h24.18v1.26h-24.18z"/><path d="m72.41 89.1h24.18v1.26h-24.18z"/></g><path d="m64.94 59.39-2.21-2.21.71-.7 1.5 1.5 2.82-2.82.7.71z" fill="#ebf0f3"/><path d="m64.94 74.68-2.21-2.21.71-.7 1.5 1.5 2.82-2.82.7.71z" fill="#ebf0f3"/><path d="m64.94 89.97-2.21-2.2.71-.71 1.5 1.5 2.82-2.81.7.7z" fill="#ebf0f3"/></svg>