<?xml version="1.0"?>
<svg xmlns="http://www.w3.org/2000/svg" xmlns:xlink="http://www.w3.org/1999/xlink" id="Layer_1" data-name="Layer 1" viewBox="0 0 150 150" width="512" height="512"><defs><clipPath id="clip-path"><path d="M104.32,47.83a.86.86,0,0,0-.86.85v6.85a.86.86,0,0,0,.86.85.85.85,0,0,0,.85-.85V48.68a.85.85,0,0,0-.85-.85" fill="none"/></clipPath></defs><path d="M139,75A64,64,0,1,1,75,11a64,64,0,0,1,64,64" fill="#334d5c"/><path d="M105,46.44H63.75a2.14,2.14,0,0,0-2.14,2.14v7.05a2.14,2.14,0,0,0,2.14,2.14H105a2.14,2.14,0,0,0,2.14-2.14V48.58A2.14,2.14,0,0,0,105,46.44" fill="#fcd462"/><path d="M107.11,48.58v7.05A2.14,2.14,0,0,1,105,57.77H63.74a2.11,2.11,0,0,1-1.6-.74,1.92,1.92,0,0,0,.75.14h41.23A2.13,2.13,0,0,0,106.26,55V48a2.09,2.09,0,0,0-.53-1.4,2.13,2.13,0,0,1,1.38,2" fill="#f7be56"/><g clip-path="url(#clip-path)"><rect x="103.46" y="47.83" width="1.71" height="8.56" fill="#f9c95c"/></g><path d="M100.33,47.83a.85.85,0,0,0-.86.85v6.85a.86.86,0,0,0,1.71,0V48.68a.85.85,0,0,0-.85-.85" fill="#f9c95c"/><path d="M96.34,47.83a.85.85,0,0,0-.86.85v6.85a.86.86,0,0,0,1.71,0V48.68a.85.85,0,0,0-.85-.85" fill="#f9c95c"/><path d="M92.34,47.83a.85.85,0,0,0-.85.85v6.85a.86.86,0,0,0,1.71,0V48.68a.85.85,0,0,0-.86-.85" fill="#f9c95c"/><path d="M88.35,47.83a.85.85,0,0,0-.85.85v6.85a.86.86,0,0,0,1.71,0V48.68a.85.85,0,0,0-.86-.85" fill="#f9c95c"/><path d="M84.36,47.83a.86.86,0,0,0-.86.85v6.85a.86.86,0,0,0,1.72,0V48.68a.86.86,0,0,0-.86-.85" fill="#f9c95c"/><path d="M80.37,47.83a.86.86,0,0,0-.86.85v6.85a.86.86,0,0,0,.86.85.85.85,0,0,0,.85-.85V48.68a.85.85,0,0,0-.85-.85" fill="#f9c95c"/><path d="M76.38,47.83a.85.85,0,0,0-.86.85v6.85a.86.86,0,0,0,1.71,0V48.68a.85.85,0,0,0-.85-.85" fill="#f9c95c"/><path d="M72.39,47.83a.85.85,0,0,0-.86.85v6.85a.86.86,0,0,0,1.71,0V48.68a.85.85,0,0,0-.85-.85" fill="#f9c95c"/><path d="M68.39,47.83a.85.85,0,0,0-.85.85v6.85a.86.86,0,0,0,1.71,0V48.68a.85.85,0,0,0-.86-.85" fill="#f9c95c"/><path d="M64.4,47.83a.85.85,0,0,0-.85.85v6.85a.86.86,0,0,0,1.71,0V48.68a.85.85,0,0,0-.86-.85" fill="#f9c95c"/><path d="M105,57.77H63.75a2.13,2.13,0,0,0-2.14,2.13V67a2.14,2.14,0,0,0,2.14,2.14H105A2.14,2.14,0,0,0,107.11,67V59.9A2.13,2.13,0,0,0,105,57.77" fill="#fcd462"/><path d="M107.11,59.9V67A2.14,2.14,0,0,1,105,69.09H63.74a2.11,2.11,0,0,1-1.6-.74,1.92,1.92,0,0,0,.75.14h41.23a2.13,2.13,0,0,0,2.14-2.13v-7a2.11,2.11,0,0,0-.53-1.4,2.13,2.13,0,0,1,1.38,2" fill="#f7be56"/><path d="M104.32,59.15a.86.86,0,0,0-.86.85v6.85a.86.86,0,1,0,1.71,0V60a.85.85,0,0,0-.85-.85" fill="#f9c95c"/><path d="M100.33,59.15a.85.85,0,0,0-.86.85v6.85a.86.86,0,1,0,1.71,0V60a.85.85,0,0,0-.85-.85" fill="#f9c95c"/><path d="M96.34,59.15a.85.85,0,0,0-.86.85v6.85a.86.86,0,1,0,1.71,0V60a.85.85,0,0,0-.85-.85" fill="#f9c95c"/><path d="M92.34,59.15a.85.85,0,0,0-.85.85v6.85a.86.86,0,1,0,1.71,0V60a.85.85,0,0,0-.86-.85" fill="#f9c95c"/><path d="M88.35,59.15a.85.85,0,0,0-.85.85v6.85a.86.86,0,1,0,1.71,0V60a.85.85,0,0,0-.86-.85" fill="#f9c95c"/><path d="M84.36,59.15a.86.86,0,0,0-.86.85v6.85a.86.86,0,1,0,1.72,0V60a.86.86,0,0,0-.86-.85" fill="#f9c95c"/><path d="M80.37,59.15a.86.86,0,0,0-.86.85v6.85a.86.86,0,1,0,1.71,0V60a.85.85,0,0,0-.85-.85" fill="#f9c95c"/><path d="M76.38,59.15a.85.85,0,0,0-.86.85v6.85a.86.86,0,1,0,1.71,0V60a.85.85,0,0,0-.85-.85" fill="#f9c95c"/><path d="M72.39,59.15a.85.85,0,0,0-.86.85v6.85a.86.86,0,1,0,1.71,0V60a.85.85,0,0,0-.85-.85" fill="#f9c95c"/><path d="M68.39,59.15a.85.85,0,0,0-.85.85v6.85a.86.86,0,1,0,1.71,0V60a.85.85,0,0,0-.86-.85" fill="#f9c95c"/><path d="M64.4,59.15a.85.85,0,0,0-.85.85v6.85a.86.86,0,1,0,1.71,0V60a.85.85,0,0,0-.86-.85" fill="#f9c95c"/><path d="M105,69.09H63.75a2.14,2.14,0,0,0-2.14,2.14v7a2.14,2.14,0,0,0,2.14,2.14H105a2.14,2.14,0,0,0,2.14-2.14v-7A2.14,2.14,0,0,0,105,69.09" fill="#fcd462"/><path d="M107.11,71.22v7A2.13,2.13,0,0,1,105,80.41H63.74a2.11,2.11,0,0,1-1.6-.74,1.93,1.93,0,0,0,.75.15h41.23a2.14,2.14,0,0,0,2.14-2.14v-7a2.07,2.07,0,0,0-.53-1.4,2.12,2.12,0,0,1,1.38,2" fill="#f7be56"/><path d="M104.32,70.47a.86.86,0,0,0-.86.86v6.84a.86.86,0,1,0,1.71,0V71.33a.85.85,0,0,0-.85-.86" fill="#f9c95c"/><path d="M100.33,70.47a.85.85,0,0,0-.86.86v6.84a.86.86,0,1,0,1.71,0V71.33a.85.85,0,0,0-.85-.86" fill="#f9c95c"/><path d="M96.34,70.47a.85.85,0,0,0-.86.86v6.84a.86.86,0,1,0,1.71,0V71.33a.85.85,0,0,0-.85-.86" fill="#f9c95c"/><path d="M92.34,70.47a.85.85,0,0,0-.85.86v6.84a.86.86,0,1,0,1.71,0V71.33a.85.85,0,0,0-.86-.86" fill="#f9c95c"/><path d="M88.35,70.47a.85.85,0,0,0-.85.86v6.84a.86.86,0,1,0,1.71,0V71.33a.85.85,0,0,0-.86-.86" fill="#f9c95c"/><path d="M84.36,70.47a.86.86,0,0,0-.86.86v6.84a.86.86,0,0,0,1.72,0V71.33a.86.86,0,0,0-.86-.86" fill="#f9c95c"/><path d="M80.37,70.47a.86.86,0,0,0-.86.86v6.84a.86.86,0,1,0,1.71,0V71.33a.85.85,0,0,0-.85-.86" fill="#f9c95c"/><path d="M76.38,70.47a.85.85,0,0,0-.86.86v6.84a.86.86,0,1,0,1.71,0V71.33a.85.85,0,0,0-.85-.86" fill="#f9c95c"/><path d="M72.39,70.47a.85.85,0,0,0-.86.86v6.84a.86.86,0,1,0,1.71,0V71.33a.85.85,0,0,0-.85-.86" fill="#f9c95c"/><path d="M68.39,70.47a.85.85,0,0,0-.85.86v6.84a.86.86,0,1,0,1.71,0V71.33a.85.85,0,0,0-.86-.86" fill="#f9c95c"/><path d="M64.4,70.47a.85.85,0,0,0-.85.86v6.84a.86.86,0,1,0,1.71,0V71.33a.85.85,0,0,0-.86-.86" fill="#f9c95c"/><path d="M105,80.41H63.75a2.14,2.14,0,0,0-2.14,2.14v7a2.13,2.13,0,0,0,2.14,2.13H105a2.13,2.13,0,0,0,2.14-2.13v-7A2.14,2.14,0,0,0,105,80.41" fill="#fcd462"/><path d="M107.11,82.55v7A2.13,2.13,0,0,1,105,91.73H63.74a2.08,2.08,0,0,1-1.6-.74,1.93,1.93,0,0,0,.75.15h41.23A2.14,2.14,0,0,0,106.26,89V82a2.09,2.09,0,0,0-.53-1.4A2.12,2.12,0,0,1,107.11,82.55Z" fill="#f7be56"/><path d="M104.32,81.79a.87.87,0,0,0-.86.86v6.84a.86.86,0,1,0,1.71,0V82.65a.86.86,0,0,0-.85-.86" fill="#f9c95c"/><path d="M100.33,81.79a.86.86,0,0,0-.86.86v6.84a.86.86,0,1,0,1.71,0V82.65a.86.86,0,0,0-.85-.86" fill="#f9c95c"/><path d="M96.34,81.79a.86.86,0,0,0-.86.86v6.84a.86.86,0,1,0,1.71,0V82.65a.86.86,0,0,0-.85-.86" fill="#f9c95c"/><path d="M92.34,81.79a.86.86,0,0,0-.85.86v6.84a.86.86,0,1,0,1.71,0V82.65a.86.86,0,0,0-.86-.86" fill="#f9c95c"/><path d="M88.35,81.79a.86.86,0,0,0-.85.86v6.84a.86.86,0,1,0,1.71,0V82.65a.86.86,0,0,0-.86-.86" fill="#f9c95c"/><path d="M84.36,81.79a.87.87,0,0,0-.86.86v6.84a.86.86,0,0,0,1.72,0V82.65a.87.87,0,0,0-.86-.86" fill="#f9c95c"/><path d="M80.37,81.79a.87.87,0,0,0-.86.86v6.84a.86.86,0,1,0,1.71,0V82.65a.86.86,0,0,0-.85-.86" fill="#f9c95c"/><path d="M76.38,81.79a.86.86,0,0,0-.86.86v6.84a.86.86,0,1,0,1.71,0V82.65a.86.86,0,0,0-.85-.86" fill="#f9c95c"/><path d="M72.39,81.79a.86.86,0,0,0-.86.86v6.84a.86.86,0,1,0,1.71,0V82.65a.86.86,0,0,0-.85-.86" fill="#f9c95c"/><path d="M68.39,81.79a.86.86,0,0,0-.85.86v6.84a.86.86,0,1,0,1.71,0V82.65a.86.86,0,0,0-.86-.86" fill="#f9c95c"/><path d="M64.4,81.79a.86.86,0,0,0-.85.86v6.84a.86.86,0,1,0,1.71,0V82.65a.86.86,0,0,0-.86-.86" fill="#f9c95c"/><path d="M105,91.73H63.75a2.14,2.14,0,0,0-2.14,2.14v7a2.13,2.13,0,0,0,2.14,2.13H105a2.13,2.13,0,0,0,2.14-2.13v-7A2.14,2.14,0,0,0,105,91.73" fill="#fcd462"/><path d="M107.11,93.87v7a2.14,2.14,0,0,1-2.13,2.14H63.74a2.11,2.11,0,0,1-1.6-.74,1.92,1.92,0,0,0,.75.14h41.23a2.13,2.13,0,0,0,2.14-2.13v-7a2.09,2.09,0,0,0-.53-1.4,2.12,2.12,0,0,1,1.38,2" fill="#f7be56"/><path d="M104.32,93.12a.86.86,0,0,0-.86.85v6.85a.86.86,0,0,0,.86.85.85.85,0,0,0,.85-.85V94a.85.85,0,0,0-.85-.85" fill="#f9c95c"/><path d="M100.33,93.12a.85.85,0,0,0-.86.85v6.85a.86.86,0,0,0,1.71,0V94a.85.85,0,0,0-.85-.85" fill="#f9c95c"/><path d="M96.34,93.12a.85.85,0,0,0-.86.85v6.85a.86.86,0,0,0,1.71,0V94a.85.85,0,0,0-.85-.85" fill="#f9c95c"/><path d="M92.34,93.12a.85.85,0,0,0-.85.85v6.85a.86.86,0,0,0,1.71,0V94a.85.85,0,0,0-.86-.85" fill="#f9c95c"/><path d="M88.35,93.12a.85.85,0,0,0-.85.85v6.85a.86.86,0,0,0,1.71,0V94a.85.85,0,0,0-.86-.85" fill="#f9c95c"/><path d="M84.36,93.12a.86.86,0,0,0-.86.85v6.85a.86.86,0,0,0,1.72,0V94a.86.86,0,0,0-.86-.85" fill="#f9c95c"/><path d="M80.37,93.12a.86.86,0,0,0-.86.85v6.85a.86.86,0,0,0,.86.85.85.85,0,0,0,.85-.85V94a.85.85,0,0,0-.85-.85" fill="#f9c95c"/><path d="M76.38,93.12a.85.85,0,0,0-.86.85v6.85a.86.86,0,0,0,1.71,0V94a.85.85,0,0,0-.85-.85" fill="#f9c95c"/><path d="M72.39,93.12a.85.85,0,0,0-.86.85v6.85a.86.86,0,0,0,1.71,0V94a.85.85,0,0,0-.85-.85" fill="#f9c95c"/><path d="M68.39,93.12a.85.85,0,0,0-.85.85v6.85a.86.86,0,0,0,1.71,0V94a.85.85,0,0,0-.86-.85" fill="#f9c95c"/><path d="M64.4,93.12a.85.85,0,0,0-.85.85v6.85a.86.86,0,0,0,1.71,0V94a.85.85,0,0,0-.86-.85" fill="#f9c95c"/><circle cx="63.55" cy="82.9" r="20.66" fill="#f7be56"/><path d="M63.55,66.25A16.65,16.65,0,1,0,80.19,82.9,16.64,16.64,0,0,0,63.55,66.25Z" fill="#fcd462"/><path d="M70,84.43a5.41,5.41,0,0,0-2.33-1.84,19.87,19.87,0,0,0-3.25-1V75.89a4.17,4.17,0,0,1,2.25.82A3.69,3.69,0,0,1,67.9,79.3l2.29-.17a5.48,5.48,0,0,0-.89-2.85A5.07,5.07,0,0,0,67,74.38a8.5,8.5,0,0,0-2.55-.56V70.94H62.69v2.85a8.36,8.36,0,0,0-2.6.56,4.77,4.77,0,0,0-2.26,1.8,4.58,4.58,0,0,0-.78,2.56A4.15,4.15,0,0,0,57.68,81a5.1,5.1,0,0,0,1.93,1.68,15.47,15.47,0,0,0,3.08,1v6.49a6.13,6.13,0,0,1-1.51-.43,4,4,0,0,1-1.82-1.4,5,5,0,0,1-.75-2.22l-2.25.19a6.07,6.07,0,0,0,1,3.25A5.79,5.79,0,0,0,60,91.69a9.46,9.46,0,0,0,2.74.6v2.56H64.4V92.37a8.16,8.16,0,0,0,3.14-.68,5.41,5.41,0,0,0,2.37-2A4.89,4.89,0,0,0,70.73,87,4.49,4.49,0,0,0,70,84.43Zm-9.93-4.28a2.08,2.08,0,0,1-.7-1.6,2.39,2.39,0,0,1,1-1.92,4.3,4.3,0,0,1,2.35-.75V81.2A7.44,7.44,0,0,1,60.05,80.15Zm7.87,8.59a3.34,3.34,0,0,1-1.56,1.11,5.94,5.94,0,0,1-2,.37V84.09a19.47,19.47,0,0,1,1.91.55,3.7,3.7,0,0,1,1.63,1.07,2.33,2.33,0,0,1,.49,1.48A2.59,2.59,0,0,1,67.92,88.74Z" fill="#f7be56"/><path d="M79.31,70c-3-3-3.79-1.51-3.79,6.93,0-8.44-.8-9.91-3.79-6.93,3-3,1.52-3.79-6.93-3.79,8.45,0,9.92-.8,6.93-3.79,3,3,3.79,1.52,3.79-6.93,0,8.45.81,9.92,3.79,6.93-3,3-1.51,3.79,6.94,3.79C77.8,66.25,76.33,67.06,79.31,70Z" fill="#fff"/></svg>
