<svg id="Layer_1" height="512" viewBox="0 0 150 150" width="512" xmlns="http://www.w3.org/2000/svg" data-name="Layer 1"><circle cx="75" cy="75" fill="#45b39c" r="64"/><path d="m90.59 59.45c-2.13-2.13 8.07-13.25 10.7-15.88 5.48-5.48 9.13-7.38 10.84-5.66s-.18 5.36-5.66 10.84c-2.63 2.64-13.75 12.83-15.88 10.7zm20.72-20.71c-.86-.86-3.72.18-9.19 5.66-6.3 6.3-10.89 13-10.68 14.21 1.21.2 7.9-4.39 14.21-10.69 5.47-5.47 6.51-8.33 5.66-9.18z" fill="#3a556a"/><path d="m101.08 76.07.18-19.76a3.26 3.26 0 0 0 -1-2.31l-4.26-4.36a3.23 3.23 0 0 0 -2.3-.94l-19.77.17a3.25 3.25 0 0 0 -2.24.94l-33.5 33.45a3.23 3.23 0 0 0 0 4.55l24 24a3.21 3.21 0 0 0 4.55 0l33.44-33.44a3.17 3.17 0 0 0 .9-2.3zm-12-15.22a3.36 3.36 0 1 1 4.75 0 3.35 3.35 0 0 1 -4.73 0z" fill="#fcd462"/><path d="m94.74 55.22a4.61 4.61 0 1 0 0 6.53 4.61 4.61 0 0 0 0-6.53zm-5.64 5.63a3.36 3.36 0 1 1 4.75 0 3.35 3.35 0 0 1 -4.75 0z" fill="#f7be56"/><path d="m64.7 107.29-22-22 28.11-28.1 22 22zm-20.93-22 20.93 20.9 27-27-20.93-20.93z" fill="#f7be56"/><g fill="#3a556a"><path d="m64.07 71.17a5.88 5.88 0 0 1 3.23-1.76 3.48 3.48 0 0 1 3.16 1.12 3.91 3.91 0 0 1 1.22 3 5.46 5.46 0 0 1 -1.86 3.55 5.4 5.4 0 0 1 -3.53 1.92 3.85 3.85 0 0 1 -3.05-1.17 3.75 3.75 0 0 1 -1.14-3 5.74 5.74 0 0 1 1.97-3.66zm5.28.56a1.78 1.78 0 0 0 -1.58-.5 4.91 4.91 0 0 0 -2.41 1.58 4.37 4.37 0 0 0 -1.43 2.27 1.79 1.79 0 0 0 .5 1.57 1.76 1.76 0 0 0 1.59.51 4.78 4.78 0 0 0 2.4-1.56 4.45 4.45 0 0 0 1.44-2.29 1.8 1.8 0 0 0 -.51-1.58zm-13.26 13.27 21.91-6.93 1.36 1.37-21.89 7zm9.64 2.21a5.82 5.82 0 0 1 3.27-1.75 3.52 3.52 0 0 1 3.18 1.12 4 4 0 0 1 1.21 3.06 6.62 6.62 0 0 1 -5.39 5.36 3.89 3.89 0 0 1 -3-1.18 3.75 3.75 0 0 1 -1.14-3 5.72 5.72 0 0 1 1.87-3.6zm5.29.57a1.76 1.76 0 0 0 -1.59-.51 4.81 4.81 0 0 0 -2.43 1.58 4.31 4.31 0 0 0 -1.43 2.27 1.8 1.8 0 0 0 .49 1.58 1.83 1.83 0 0 0 1.6.52 4.88 4.88 0 0 0 2.4-1.57 4.33 4.33 0 0 0 1.44-2.28 1.78 1.78 0 0 0 -.5-1.58z"/><path d="m112.13 37.91-.83.82c.85.85-.19 3.71-5.66 9.18-6.31 6.3-13 10.89-14.21 10.69v-.06l-.87.87c2.13 2.13 13.25-8.06 15.88-10.7 5.56-5.44 7.41-9.08 5.69-10.8z"/></g></svg>