<svg id="Layer_1" height="512" viewBox="0 0 150 150" width="512" xmlns="http://www.w3.org/2000/svg" data-name="Layer 1"><circle cx="75" cy="75" fill="#334d5c" r="64"/><path d="m91.17 66.59h3.28v23.22h-3.28z" fill="#e1e6e9"/><path d="m100.98 83.75h-16.34l-8.17 14.15 8.17 14.14h16.34l8.17-14.14z" fill="#d5d6db"/><path d="m97.74 89.35h-9.86l-4.94 8.55 4.94 8.54h9.86l4.94-8.54z" fill="#ebf0f3"/><g fill="#e1e6e9"><path d="m100.98 83.75-3.24 5.6 4.94 8.55h6.47z"/><path d="m100.98 112.04-3.24-5.6h-9.86l-3.24 5.6z"/><path d="m84.64 83.75 3.24 5.6-4.94 8.55h-6.47z"/></g><circle cx="92.81" cy="70.85" fill="#ebf0f3" r="6.21"/><path d="m99 70.84a6.2 6.2 0 0 1 -12.08 2 6.14 6.14 0 0 0 3.55 1.16 6.21 6.21 0 0 0 6.21-6.21 6.32 6.32 0 0 0 -.33-2 6.15 6.15 0 0 1 2.65 5.05z" fill="#e1e6e9"/><path d="m92.81 67.75a.69.69 0 0 1 -.69-.7v-12.67a3.83 3.83 0 0 1 2.59-3.62 5.85 5.85 0 0 0 4-5.64 6 6 0 0 0 -5.78-5.78 5.44 5.44 0 0 0 -2.68.61 5.65 5.65 0 0 0 -2.68 6.7c.89 3.14.14 5.45-2.12 6.49a.69.69 0 1 1 -.58-1.26c2-.92 1.85-3.15 1.37-4.85a7 7 0 0 1 3.39-8.32 7.26 7.26 0 0 1 10.47 6.39 7.24 7.24 0 0 1 -4.9 7 2.45 2.45 0 0 0 -1.66 2.31v12.64a.69.69 0 0 1 -.73.7z" fill="#ebf0f3"/><path d="m97.74 84.49c0 4 .47 4.85 1.89 3.44-1.42 1.41-.56 1.88 3.43 1.88-4 0-4.85.47-3.43 1.89-1.42-1.42-1.89-.56-1.89 3.43 0-4-.47-4.85-1.88-3.43 1.41-1.42.55-1.89-3.44-1.89 4 0 4.85-.47 3.44-1.88 1.41 1.41 1.88.55 1.88-3.44z" fill="#fff"/><path d="m55.55 66.59h3.28v23.22h-3.28z" fill="#e1e6e9"/><path d="m65.36 83.75h-16.34l-8.17 14.15 8.17 14.14h16.34l8.17-14.14z" fill="#d5d6db"/><path d="m62.12 89.35h-9.86l-4.94 8.55 4.94 8.54h9.86l4.94-8.54z" fill="#ebf0f3"/><path d="m65.36 83.75-3.24 5.6 4.94 8.55h6.47z" fill="#e1e6e9"/><path d="m65.36 112.04-3.24-5.6h-9.86l-3.24 5.6z" fill="#e1e6e9"/><path d="m49.02 83.75 3.24 5.6-4.94 8.55h-6.47z" fill="#e1e6e9"/><circle cx="57.19" cy="70.85" fill="#ebf0f3" r="6.21"/><path d="m63.4 70.84a6.2 6.2 0 0 1 -12.08 2 6.14 6.14 0 0 0 3.53 1.16 6.21 6.21 0 0 0 6.21-6.21 6.32 6.32 0 0 0 -.33-2 6.15 6.15 0 0 1 2.67 5.05z" fill="#e1e6e9"/><path d="m57.19 67.75a.69.69 0 0 1 -.69-.7v-12.67a3.83 3.83 0 0 1 2.59-3.62 5.85 5.85 0 0 0 4-5.64 6 6 0 0 0 -5.78-5.78 5.48 5.48 0 0 0 -2.69.61 5.65 5.65 0 0 0 -2.67 6.7c.89 3.14.14 5.45-2.12 6.49a.69.69 0 1 1 -.58-1.26c2-.92 1.85-3.15 1.36-4.85a7 7 0 0 1 3.39-8.32 7.26 7.26 0 0 1 10.44 6.39 7.25 7.25 0 0 1 -4.9 7 2.45 2.45 0 0 0 -1.66 2.31v12.64a.69.69 0 0 1 -.69.7z" fill="#ebf0f3"/><path d="m62.12 84.49c0 4 .47 4.85 1.88 3.44-1.41 1.41-.55 1.88 3.44 1.88-4 0-4.85.47-3.44 1.89-1.41-1.42-1.88-.56-1.88 3.43 0-4-.47-4.85-1.88-3.43 1.41-1.42.55-1.89-3.44-1.89 4 0 4.85-.47 3.44-1.88 1.41 1.41 1.88.55 1.88-3.44z" fill="#fff"/></svg>