<svg id="Layer_1" height="512" viewBox="0 0 150 150" width="512" xmlns="http://www.w3.org/2000/svg" data-name="Layer 1"><circle cx="75" cy="75" fill="#ea8953" r="64"/><path d="m95.31 48.34h12.16v6.1h-12.16z" fill="#d5d6db" transform="matrix(.707 -.707 .707 .707 -6.65 86.74)"/><path d="m45.56 45.31h6.1v12.16h-6.1z" fill="#d5d6db" transform="matrix(.707 -.707 .707 .707 -22.1 49.43)"/><path d="m72.36 36.43h5.28v8.86h-5.28z" fill="#2f4859"/><circle cx="75" cy="80.27" fill="#3a556a" r="37.85"/><path d="m75 48.89a31.38 31.38 0 1 0 31.38 31.38 31.38 31.38 0 0 0 -31.38-31.38z" fill="#d5d6db"/><path d="m75 51.39a28.88 28.88 0 1 0 28.88 28.88 28.88 28.88 0 0 0 -28.88-28.88z" fill="#ebf0f3"/><g fill="#3a556a"><path d="m74.44 51.39h1.12v4.97h-1.12z"/><path d="m74.44 104.18h1.12v4.97h-1.12z"/><path d="m98.91 79.71h4.97v1.12h-4.97z"/><path d="m46.12 79.71h4.97v1.12h-4.97z"/><path d="m91.18 61.04h4.97v1.12h-4.97z" transform="matrix(.707 -.707 .707 .707 -16.13 84.27)"/><path d="m53.85 98.37h4.97v1.12h-4.97z" transform="matrix(.707 -.707 .707 .707 -53.46 68.85)"/><path d="m93.1 96.45h1.12v4.97h-1.12z" transform="matrix(.707 -.707 .707 .707 -42.52 95.16)"/><path d="m55.78 59.12h1.12v4.97h-1.12z" transform="matrix(.707 -.707 .707 .707 -27.06 57.85)"/></g><path d="m90.1 64.82-21.31 17.5a.73.73 0 0 0 -.05 1.07l3.14 3.14a.73.73 0 0 0 1.07 0l17.5-21.31a.25.25 0 0 0 -.35-.4z" fill="#64798a"/><path d="m75 76.79a3.48 3.48 0 1 0 3.48 3.48 3.48 3.48 0 0 0 -3.48-3.48z" fill="#3a556a"/><path d="m75 78.16a2.11 2.11 0 1 0 2.1 2.11 2.11 2.11 0 0 0 -2.1-2.11z" fill="#e1e6e9"/><path d="m66.55 31.88h16.96v7h-16.96z" fill="#3a556a"/></svg>