<svg id="Layer_1" height="512" viewBox="0 0 150 150" width="512" xmlns="http://www.w3.org/2000/svg" data-name="Layer 1"><circle cx="75" cy="75" fill="#334d5c" r="64"/><path d="m102.8 94.47-20 7.4-11.25-4.26h8.68a5.53 5.53 0 0 0 5.51-5l-18.74-2.45a7.25 7.25 0 0 0 -4.15.67l-9.39 4.59-1.92 11.58 27.9 3.45a7.67 7.67 0 0 0 4.58-.87l23.41-12.58a3.51 3.51 0 0 0 -4.63-2.53z" fill="#fcd462"/><path d="m42.57 93.35h12.97v14.86h-12.97z" fill="#27a2db"/><path d="m92.6 86.64c-3.64-7-1.08-11.42-1.87-17.16a18.9 18.9 0 0 0 -4-9.26c-.44-.54-1.33-1.44-2.27-2.37a6.51 6.51 0 0 1 -1.94-5.09 10.92 10.92 0 0 1 1.63-4.95c.85-1.35 2-2.49 2.86-3.83a5.75 5.75 0 0 0 1.07-4.52l-4.85 3.1a3.93 3.93 0 0 1 -1.91.77 5.32 5.32 0 0 1 -2.4-.95c-4.31-2.22-10 .49-14.26-1.72 2.8 4 5.67 8.17 7.1 12.76l-.05 1.07a8.5 8.5 0 0 1 -.79 1.6 48.13 48.13 0 0 1 -3.43 4.13 18.9 18.9 0 0 0 -4 9.26c-.78 5.74 1.78 10.18-1.87 17.16a.43.43 0 0 0 .49.61 28.59 28.59 0 0 1 10.37-.41 26.79 26.79 0 0 0 9.26 0 30.78 30.78 0 0 1 10.38.41.42.42 0 0 0 .48-.61z" fill="#fcd462"/><path d="m83.18 53.52h-12.47a.73.73 0 0 0 0 1.46h12.47a.73.73 0 0 0 0-1.46z" fill="#dc8744"/><path d="m83.18 55.22h-12.47a.74.74 0 0 0 0 1.47h12.47a.74.74 0 0 0 0-1.47z" fill="#dc8744"/><path d="m81.44 72.27a3.36 3.36 0 0 0 -1.44-1.14 12.58 12.58 0 0 0 -2-.6v-3.53a2.54 2.54 0 0 1 1.39.51 2.32 2.32 0 0 1 .78 1.6l1.42-.1a3.45 3.45 0 0 0 -.59-1.79 3.25 3.25 0 0 0 -1.44-1.22 5.54 5.54 0 0 0 -1.56-.3v-1.78h-1.08v1.76a4.92 4.92 0 0 0 -1.61.35 2.94 2.94 0 0 0 -1.41 1.11 2.85 2.85 0 0 0 -.48 1.59 2.48 2.48 0 0 0 .4 1.39 3 3 0 0 0 1.19 1 9.81 9.81 0 0 0 1.91.64v4a3.63 3.63 0 0 1 -.94-.26 2.56 2.56 0 0 1 -1.13-.87 3.08 3.08 0 0 1 -.46-1.37l-1.39.17a3.75 3.75 0 0 0 .61 2 3.57 3.57 0 0 0 1.61 1.33 5.91 5.91 0 0 0 1.7.38v1.58h1.08v-1.53a5.05 5.05 0 0 0 1.94-.41 3.45 3.45 0 0 0 1.47-1.23 3.07 3.07 0 0 0 .51-1.69 2.77 2.77 0 0 0 -.48-1.59zm-6.15-2.65a1.28 1.28 0 0 1 -.44-1 1.48 1.48 0 0 1 .61-1.19 2.77 2.77 0 0 1 1.46-.43v3.3a4.42 4.42 0 0 1 -1.63-.68zm4.87 5.32a2 2 0 0 1 -1 .69 3.77 3.77 0 0 1 -1.21.23v-3.8a10.72 10.72 0 0 1 1.18.35 2.12 2.12 0 0 1 1 .66 1.45 1.45 0 0 1 .3.92 1.59 1.59 0 0 1 -.27.95z" fill="#f7be56"/></svg>