<svg id="Layer_1" height="512" viewBox="0 0 150 150" width="512" xmlns="http://www.w3.org/2000/svg" data-name="Layer 1"><circle cx="75" cy="75" fill="#45b39c" r="64"/><path d="m116.46 65-16-7.83a14.6 14.6 0 0 1 -7.58-9.17l-3.69-12.85h-28.38l-3.68 12.85a14.65 14.65 0 0 1 -7.63 9.11l-15.96 7.89a6.76 6.76 0 0 0 -3.13 9l16.52 34.79a10.7 10.7 0 0 0 9.67 6.11h36.8a10.7 10.7 0 0 0 9.67-6.11l16.52-34.79a6.76 6.76 0 0 0 -3.13-9z" fill="#3a556a"/><path d="m51.82 57.25a3.38 3.38 0 0 0 1.11 2.13 3.4 3.4 0 0 0 .07 2.34 2.94 2.94 0 0 0 1.42 1.72 3 3 0 0 0 .45 2.16 2.74 2.74 0 0 0 1.67 1.32 2.81 2.81 0 0 0 .79 2 2.73 2.73 0 0 0 1.85 1 2.94 2.94 0 0 0 3.07 2.32 2.61 2.61 0 0 0 1.37 1.5 2.68 2.68 0 0 0 2 .24 2.64 2.64 0 0 0 1.59 1.25 2.72 2.72 0 0 0 2-.09 3 3 0 0 0 3.78.58 3 3 0 0 0 3.84 0 3 3 0 0 0 3.78-.58 2.72 2.72 0 0 0 2 .09 2.64 2.64 0 0 0 1.59-1.25 2.71 2.71 0 0 0 2-.24 2.63 2.63 0 0 0 1.36-1.5 2.94 2.94 0 0 0 3.07-2.32 2.73 2.73 0 0 0 1.85-1 2.81 2.81 0 0 0 .79-2 2.74 2.74 0 0 0 1.67-1.32 3 3 0 0 0 .45-2.16 2.94 2.94 0 0 0 1.61-1.72 3.4 3.4 0 0 0 .08-2.34 3.38 3.38 0 0 0 1.11-2.13c.28-1.62-.3-3.08-1.11-3.11s-1.52 1.17-1.76 2.55a4 4 0 0 0 .16 2.21 3.7 3.7 0 0 0 -1.2 1.71 3.53 3.53 0 0 0 -.19 2.06 3.17 3.17 0 0 0 -1.46 1.33 3.08 3.08 0 0 0 -.52 1.89 3.27 3.27 0 0 0 -2.45 2.69 3 3 0 0 0 -1.77.64 2.83 2.83 0 0 0 -1.08 1.51 2.91 2.91 0 0 0 -1.84.32 2.73 2.73 0 0 0 -1.31 1.29 2.92 2.92 0 0 0 -1.87 0 2.71 2.71 0 0 0 -1.51 1.06 2.81 2.81 0 0 0 -1.84-.28 2.76 2.76 0 0 0 -1.66.82 3.11 3.11 0 0 0 -3.56 0 2.76 2.76 0 0 0 -1.66-.82 2.81 2.81 0 0 0 -1.84.28 2.71 2.71 0 0 0 -1.51-1.06 2.92 2.92 0 0 0 -1.87 0 2.73 2.73 0 0 0 -1.34-1.28 2.91 2.91 0 0 0 -1.84-.32 2.83 2.83 0 0 0 -1.08-1.51 3 3 0 0 0 -1.77-.64 3.27 3.27 0 0 0 -2.45-2.69 3.08 3.08 0 0 0 -.49-1.9 3.17 3.17 0 0 0 -1.45-1.34 3.53 3.53 0 0 0 -.19-2.06 3.7 3.7 0 0 0 -1.2-1.71 4 4 0 0 0 .16-2.21c-.24-1.38-1-2.58-1.76-2.55s-1.39 1.5-1.11 3.12zm44-.46c.16-.91.64-1.66 1.16-1.61s.85 1 .68 2-.78 1.67-1.28 1.53-.71-1-.55-1.92zm-1.07 4c.3-.8.89-1.37 1.39-1.21s.68 1 .35 1.92-1 1.37-1.49 1.13-.54-1.02-.24-1.82zm-1.69 3.48c.42-.68 1.1-1.08 1.56-.84s.5 1.1 0 1.86-1.22 1.07-1.64.76-.32-1.05.09-1.76zm-2.2 2.95c.52-.57 1.24-.82 1.66-.5s.31 1.15-.26 1.78-1.38.79-1.73.41-.19-1.1.34-1.67zm-2.65 2.41c.6-.46 1.36-.56 1.71-.17s.12 1.16-.55 1.66-1.47.52-1.76.09 0-1.1.61-1.56zm-3 1.87c.67-.34 1.43-.3 1.71.14s-.06 1.14-.81 1.52-1.54.26-1.75-.21.19-1.08.86-1.43zm-3.21 1.36c.72-.22 1.46-.07 1.66.41s-.25 1.12-1.05 1.37-1.56 0-1.69-.49.32-1.06 1.08-1.29zm-3.44.81c.75-.12 1.45.16 1.58.66s-.44 1.06-1.27 1.18-1.54-.23-1.58-.74.49-.99 1.23-1.1zm-3.56.26c.76 0 1.4.38 1.44.9s-.6 1-1.44 1-1.48-.46-1.44-1 .68-.89 1.44-.9zm-3.52-.26c.74.11 1.32.58 1.27 1.1s-.76.87-1.58.74-1.39-.68-1.27-1.18.83-.78 1.58-.66zm-3.48-.81c.72.23 1.21.78 1.08 1.29s-.9.74-1.69.49-1.26-.89-1.05-1.37.98-.63 1.66-.41zm-3.26-1.34c.67.35 1.06 1 .85 1.45s-1 .59-1.75.21-1.09-1.09-.81-1.52 1.08-.48 1.75-.14zm-3-1.87c.61.46.89 1.14.6 1.58s-1.09.42-1.76-.09-.9-1.28-.55-1.66 1.15-.29 1.75.17zm-2.65-2.41c.53.57.69 1.31.33 1.69s-1.15.22-1.73-.41-.67-1.46-.26-1.78 1.18-.07 1.7.5zm-2.2-2.95c.41.69.46 1.46 0 1.78s-1.18 0-1.64-.76-.42-1.62 0-1.86 1.26.16 1.68.84zm-1.69-3.48c.3.8.21 1.61-.25 1.84s-1.16-.24-1.49-1.13-.14-1.77.35-1.92 1.13.4 1.43 1.21zm-1.07-4c.16.92-.06 1.74-.56 1.89s-1.1-.52-1.28-1.53.17-1.92.68-2 1.03.71 1.2 1.62z" fill="#e1e6e9"/><path d="m74.53 75.8h.94v5.74h-.94z" fill="#e1e6e9"/><ellipse cx="75" cy="86.14" fill="#ebf0f3" rx="5.56" ry="7.46"/><ellipse cx="75" cy="86.14" fill="#e56353" rx="4.06" ry="6.02"/><path d="m79.07 86.14c0 3.32-1.82 6-4.07 6-1.42 0-2.68-1.09-3.4-2.75a3.41 3.41 0 0 0 2.7 1.53c2.25 0 4.07-2.69 4.07-6a8 8 0 0 0 -.68-3.3 7.54 7.54 0 0 1 1.38 4.52z" fill="#d15241"/></svg>