<svg id="Layer_1" height="512" viewBox="0 0 150 150" width="512" xmlns="http://www.w3.org/2000/svg" data-name="Layer 1"><circle cx="75" cy="75" fill="#ea8953" r="64"/><rect fill="#3a556a" height="49.65" rx="2.83" width="75.56" x="37.22" y="36.57"/><path d="m45.46 41.22h59.09v40.34h-59.09z" fill="#27a2db"/><path d="m40.41 56.46h1.76v9.87h-1.76z" fill="#2f4859"/><path d="m108.73 59.76a1.7 1.7 0 1 0 1.7 1.7 1.7 1.7 0 0 0 -1.7-1.7z" fill="#2f4859"/><path d="m74.6 44.72a9.29 9.29 0 1 0 9.28 9.28 9.29 9.29 0 0 0 -9.28-9.28z" fill="#ebf0f3"/><path d="m79.72 47.87-.22-.06-2.22 1.33-.08.13v1.54l-2.75.35h-.08l-5.43.69-.14.15v4.26l.14.16 1 .06h.08.07l4.27.27 2.84.18.56.8a.46.46 0 0 1 0 .49.47.47 0 0 1 -.42.26h-6.24l-.16.16.16.15h6.36a.79.79 0 0 0 .64-1.25l-.58-.81v-7.4l2.14-1.28zm-4 5.94h-1.13v-1l1.14-.08zm.32-1.12 1.15-.08v1.2h-1.14zm-3.23 1.44v1.08l-1.13-.07v-1zm-1.13-.32v-.81l1.13-.07v.9zm1.45.32h1.13v1.16l-1.13-.07zm0-.32v-.93l1.13-.07v1zm1.45-1.34v-1l1.14-.14v1.07zm-.32 0-1.13.08v-.92l1.13-.15zm-1.45.1-1.13.07v-.83l1.13-.14zm-1.45.09-1.14.08v-.74l1.14-.14zm0 .32v.81h-1.13v-.73zm-1.46.81h-.8v-.66h.8zm-.8.32h.8v.89l-.8-.05zm1.12 0h1.14v1l-1.14-.07zm1.14 1.31v.83l-1.14-.07v-.83zm.32 0 1.13.06v.84l-1.13-.07zm1.45.08 1.13.07v.84l-1.13-.07zm1.45.09 1.14.07v.85l-1.14-.08zm0-.32v-1.14h1.14v1.25zm1.46-1.18h1.16v1.34l-1.15-.07zm1.15-1.84-1.15.08v-1.05l1.15-.15zm-7.29-.24v.73h-.8v-.67zm-.8 3.25.8.05v.83h-.8zm6.94 1.27v-.85l1.15.07v.85z" fill="#3a556a"/><path d="m74.34 57.74a1 1 0 1 0 1 1 1 1 0 0 0 -1-1z" fill="#3a556a"/><path d="m74.34 58.21a.52.52 0 1 0 .51.52.52.52 0 0 0 -.51-.52z" fill="#2f4859"/><circle cx="70.77" cy="58.73" fill="#3a556a" r=".99"/><path d="m70.77 58.21a.52.52 0 1 0 .52.52.51.51 0 0 0 -.52-.52z" fill="#2f4859"/><path d="m79.79 47.77a.26.26 0 0 0 -.36-.08l-1.53 1v.15l.16.26h.15l1.53-1a.27.27 0 0 0 .05-.33z" fill="#3a556a"/><path d="m84.42 67.82h-18.84a3.54 3.54 0 1 0 0 7.07h18.84a3.54 3.54 0 1 0 0-7.07z" fill="#ebf0f3"/><g fill="#3a556a"><path d="m69.36 73.37v-4.09h1.53a2 2 0 0 1 .76.12 1 1 0 0 1 .44.39 1 1 0 0 1 .16.53 1 1 0 0 1 -.14.5 1 1 0 0 1 -.43.37 1.14 1.14 0 0 1 .57.37 1 1 0 0 1 .2.62 1.25 1.25 0 0 1 -.12.54 1.18 1.18 0 0 1 -.3.38 1.33 1.33 0 0 1 -.45.2 3 3 0 0 1 -.66.07zm.54-2.37h.89a2 2 0 0 0 .51 0 .58.58 0 0 0 .31-.2.61.61 0 0 0 .11-.36.69.69 0 0 0 -.1-.36.54.54 0 0 0 -.28-.21 2.22 2.22 0 0 0 -.62-.06h-.82zm0 1.88h1.39a.87.87 0 0 0 .31-.12.64.64 0 0 0 .21-.22.78.78 0 0 0 .08-.35.7.7 0 0 0 -.12-.4.6.6 0 0 0 -.33-.23 1.78 1.78 0 0 0 -.59-.07h-.95z"/><path d="m75.87 69.28h.55v2.36a2.87 2.87 0 0 1 -.14 1 1.21 1.21 0 0 1 -.51.59 1.78 1.78 0 0 1 -1 .23 2 2 0 0 1 -.94-.2 1.07 1.07 0 0 1 -.52-.57 2.65 2.65 0 0 1 -.16-1v-2.41h.54v2.36a2.19 2.19 0 0 0 .1.78.76.76 0 0 0 .34.39 1.2 1.2 0 0 0 .59.14 1.13 1.13 0 0 0 .85-.27 1.56 1.56 0 0 0 .25-1z"/><path d="m78.47 73.37v-1.74l-1.58-2.35h.66l.81 1.23c.14.23.28.46.41.69q.18-.32.45-.72l.79-1.2h.63l-1.64 2.35v1.74z"/></g><path d="m89.06 84.1a1.9 1.9 0 0 0 -1.73 1.9v.14h-.39v-.83a1.89 1.89 0 0 0 -1.73-1.92 1.82 1.82 0 0 0 -1.92 1.82v.93h-.38v-.83a1.89 1.89 0 0 0 -1.72-1.92 1.82 1.82 0 0 0 -1.92 1.82v.93h-.47v-11.33a1.89 1.89 0 0 0 -1.73-1.92 1.82 1.82 0 0 0 -1.92 1.82v15.53l-2.15.45a1 1 0 0 0 -.8.87l-.5 3.62a4.74 4.74 0 0 0 .44 2.75l4.33 8.83h13.11l1.13-5 .29-15.84a1.83 1.83 0 0 0 -1.94-1.82z" fill="#efc84a"/><path d="m74.72 104.81h16.26v8.63h-16.26z" fill="#3a556a"/></svg>