<svg id="Layer_1" height="512" viewBox="0 0 150 150" width="512" xmlns="http://www.w3.org/2000/svg" data-name="Layer 1"><circle cx="75" cy="75" fill="#45b39c" r="64"/><rect fill="#fcd462" height="45.68" rx="4.92" width="77.39" x="30.06" y="46.6"/><path d="m30.06 56.66h77.39v10.13h-77.39z" fill="#3a556a"/><path d="m38.47 70.33h60.57v3.37h-60.57z" fill="#f7be56"/><g fill="#fff"><path d="m38.72 83.4h10.36v2.94h-10.36z"/><path d="m55.29 83.4h10.36v2.94h-10.36z"/><path d="m71.86 83.4h10.36v2.94h-10.36z"/><path d="m88.44 83.4h10.36v2.94h-10.36z"/></g><path d="m119.72 78.26a.36.36 0 0 0 -.48-.3c-6.79 2.2-10.88-.13-11.81-.76a.35.35 0 0 0 -.41 0c-.93.63-5 3-11.81.76a.36.36 0 0 0 -.48.3c-.35 3.09-1.83 21.45 12.4 25.12h.19c14.23-3.67 12.76-22.03 12.4-25.12z" fill="#e56353"/><path d="m118.05 80.19a18.56 18.56 0 0 1 -4.3.52 13.74 13.74 0 0 1 -6.52-1.51 13.82 13.82 0 0 1 -6.53 1.51 18.56 18.56 0 0 1 -4.3-.52c-.29 5.17.09 18.27 10.83 21.33 5.46-1.56 8.92-5.81 10.28-12.65a35.42 35.42 0 0 0 .54-8.68z" fill="#ce412d"/><path d="m107.23 90.4h-9c1.2 4.36 3.75 8.57 9 10.16z" fill="#e56353"/><path d="m107.23 90.4v-10.17a15 15 0 0 1 -6.53 1.4 19.38 19.38 0 0 1 -3.43-.32 32.05 32.05 0 0 0 1 9.09h9z" fill="#d15241"/><path d="m117.18 81.31a19.3 19.3 0 0 1 -3.43.32 14.91 14.91 0 0 1 -6.52-1.4v10.17h9c.14-.55.28-1.12.4-1.71a33.59 33.59 0 0 0 .55-7.38z" fill="#e56353"/><path d="m107.23 99.11v1.45c4.5-1.37 7.51-4.79 9-10.16h-9z" fill="#d15241"/></svg>