<svg id="Layer_1" height="512" viewBox="0 0 150 150" width="512" xmlns="http://www.w3.org/2000/svg" data-name="Layer 1"><path d="m139 75a64 64 0 1 1 -64-64 64 64 0 0 1 64 64" fill="#e05b49"/><path d="m87.82 84.51-3.31 3.31-5.68-5.69 3.3-3.3z" fill="#e1e6e9"/><path d="m46 46a25.48 25.48 0 1 0 36 0 25.49 25.49 0 0 0 -36 0" fill="#3a556a"/><path d="m49.1 49.1a21.07 21.07 0 1 0 29.8 0 21.07 21.07 0 0 0 -29.8 0" fill="#65cbef"/><path d="m52.66 58.65a5.82 5.82 0 1 0 4.11 1.71 5.79 5.79 0 0 0 -4.11-1.71" fill="#8cd8f3"/><path d="m63.58 61a3.47 3.47 0 0 0 -2.46 5.92 3.47 3.47 0 1 0 4.88-4.92 3.49 3.49 0 0 0 -2.45-1" fill="#8cd8f3"/><path d="m87.27 82.23-5 5a1.54 1.54 0 0 0 0 2.19l21.53 21.58a1.54 1.54 0 0 0 2.19 0l5-5a1.54 1.54 0 0 0 0-2.19l-21.53-21.58a1.54 1.54 0 0 0 -2.19 0" fill="#3a556a"/><g fill="#64798a"><path d="m89.11 84.56-1.15 1.15 10.86 10.85 1.15-1.14z"/><path d="m101.35 96.8-1.15 1.15 2.34 2.34 1.15-1.15z"/></g></svg>