<svg id="Layer_1" height="512" viewBox="0 0 150 150" width="512" xmlns="http://www.w3.org/2000/svg" data-name="Layer 1"><circle cx="75" cy="75" fill="#e05b49" r="64"/><path d="m70.51 45.48v-11.19h-8.08v11.19h-4.42l8.46 9.78 8.46-9.78z" fill="#fcd462"/><path d="m112.1 40.9a1.5 1.5 0 0 0 -1.85-1l-15.25 4.33a1.51 1.51 0 0 0 -1.06 1.15l-2.24 10.76-51.6 3.36a2.37 2.37 0 0 0 -2.26 2.32v32.18a2.38 2.38 0 0 0 2.42 2.33l51.74.1h.29l5.23 4.94a3.06 3.06 0 0 1 -2.59 4.63h-38.25v3h38.25a6.06 6.06 0 0 0 5-9.47l-5.5-5.25v-35.82a2.1 2.1 0 0 0 -.06-.51v-.08l2.24-11 14.42-4.11a1.5 1.5 0 0 0 1.07-1.86zm-71.26 30.18 5.16-.25v5.41l-5.15.17zm50.6 3.72-6.63.2v-6l6.63-.32zm-27 3.86v5.71l-6.08.1v-5.62zm-6.08-2.81v-5.62l6.08-.29v5.72zm9.08 2.71 5.82-.18v5.86l-5.82.09zm0-3v-5.76l5.82-.28v5.86zm8.82-6.19 5.57-.26v6l-5.57.18zm15.2-3.73-6.65.36v-6.4l6.63-.43zm-9.63.46-5.57.27v-6.21l5.57-.37zm-8.57.41-5.82.28v-6.06l5.82-.38zm-8.82.43-6.08.29v-5.91l6.08-.4zm-9.08.44-6.35.3v-5.75l6.35-.42zm0 3v5.62l-6.35.2v-5.52zm-14.5 9 5.14-.14v5.42l-5.15.08zm8.14-.23 6.35-.2v5.56l-6.35.1zm6.35 8.36v5.87h-6.35v-5.77zm3 0 6.08-.09v6h-6.09zm9.08-.14 5.82-.09v6.17h-5.83zm8.82-.14 5.57-.08v6.31h-5.58zm0-3v-5.95l5.57-.17v6zm8.56-6.23 6.63-.21v6.21l-6.63.1zm-38.81-15.88v5.71l-5.15.24v-5.61zm-5.16 25.62 5.16-.08v5.71h-5.16zm44 5.68v-6.36l6.63-.1v6.47z" fill="#ebf0f3"/><circle cx="75.09" cy="108.46" fill="#3a556a" r="7.24"/><path d="m79.71 108.46a4.62 4.62 0 1 1 -4.62-4.61 4.62 4.62 0 0 1 4.62 4.61z" fill="#e1e6e9"/><circle cx="55.36" cy="108.46" fill="#3a556a" r="7.24"/><path d="m60 108.46a4.62 4.62 0 1 1 -4.62-4.61 4.62 4.62 0 0 1 4.62 4.61z" fill="#e1e6e9"/></svg>