<svg id="Layer_1" height="512" viewBox="0 0 150 150" width="512" xmlns="http://www.w3.org/2000/svg" data-name="Layer 1"><circle cx="75" cy="75" fill="#e05b49" r="64"/><path d="m68.23 38.28h13.5v5.42l-12.13.16-1.37-2.52z" fill="#d5d6db"/><path d="m58.02 46.84 5.59-4.67 1.38-.21h19.99l1.39.19 6.8 4.69-18.19 29.01z" fill="#d5d6db"/><path d="m105.44 51.39a7 7 0 0 0 -4.75-5.22l-4.19-1.33-4.56 2.73-3.67 12.72 9.92 11.09 8.37 35.47 10.3-2.27z" fill="#e1e6e9"/><path d="m44.56 51.39a7 7 0 0 1 4.75-5.22l4.19-1.33 4.56 2.73 3.67 12.72-9.92 11.09-8.37 35.47-10.3-2.27z" fill="#e1e6e9"/><path d="m71.59 76.89h6.79l-1.8-24.84 3.79-5.29-5.39-3.06-5.38 3.06 3.78 5.29z" fill="#2f4859"/><path d="m81.73 38.28-6.75 5.42 5.71 6.29 4.29-8.03z" fill="#ebf0f3"/><path d="m68.23 38.28 6.75 5.42-6.34 6.15-3.65-7.89z" fill="#ebf0f3"/><path d="m76.22 70.39a1.7 1.7 0 0 0 -.36-1c-.3-.36-.59-.73-.88-1.1-7.82-10.1-10.58-21.79-11.37-26.12-.29 0-.62.09-1 .16l-.37.07a50.46 50.46 0 0 0 -8.78 2.45c5.43 14-1.71 26.54-1.71 26.54 1.59 5.33.85 35.29.85 35.29 7.43.55 21 5 21 5v-21.51h2.56z" fill="#3a556a"/><path d="m97.38 106.68c-7.89.52-21.94 4.52-23.55 5h-.17v-21.5h.09v-19.86-.2-.09-.18l.09-.2.14-.21c.29-.38.6-.74.86-1.12 7.84-10.08 10.59-21.79 11.4-26.12l1.65.31a54.23 54.23 0 0 1 8.48 2.38c-5.45 14 1.69 26.54 1.69 26.54-1.45 5.29-.68 35.25-.68 35.25z" fill="#3a556a"/><g fill="#2f4859"><path d="m76.3 71.86-1.79.18 1.79.19 1.78-.19z"/><path d="m76.3 78.79-1.79.18 1.79.19 1.78-.19z"/><circle cx="76.21" cy="78.94" r=".94"/></g><path d="m76.21 78.21a.73.73 0 1 0 .73.73.73.73 0 0 0 -.73-.73z" fill="#21333d"/><path d="m76.3 85.72-1.79.18 1.79.19 1.78-.19z" fill="#2f4859"/><circle cx="76.21" cy="85.87" fill="#2f4859" r=".94"/><path d="m76.21 85.14a.73.73 0 1 0 .73.73.73.73 0 0 0 -.73-.73z" fill="#21333d"/><path d="m76.3 92.65-1.79.18 1.79.18 1.78-.18z" fill="#2f4859"/><circle cx="76.21" cy="92.79" fill="#2f4859" r=".94"/><path d="m76.21 92.06a.73.73 0 1 0 .73.73.73.73 0 0 0 -.73-.73z" fill="#21333d"/><path d="m76.3 99.57-1.79.19 1.79.18 1.78-.18z" fill="#2f4859"/><circle cx="76.21" cy="99.72" fill="#2f4859" r=".94"/><path d="m76.21 99a.73.73 0 1 0 .73.73.73.73 0 0 0 -.73-.73z" fill="#21333d"/><path d="m76.3 106.5-1.79.19 1.79.18 1.78-.18z" fill="#2f4859"/><path d="m76.21 105.71a.94.94 0 1 0 .94.94.94.94 0 0 0 -.94-.94z" fill="#2f4859"/><path d="m76.21 105.92a.73.73 0 1 0 .73.73.73.73 0 0 0 -.73-.73z" fill="#21333d"/><path d="m81.37 72.01h10.67v1.65h-10.67z" fill="#3a556a"/><path d="m81.27 71.91v1.84h10.88v-1.84zm10.67 1.64h-10.46v-1.44h10.46z" fill="#2f4859"/><circle cx="76.21" cy="72.01" fill="#2f4859" r=".94"/><path d="m76.21 71.28a.73.73 0 1 0 .73.73.73.73 0 0 0 -.73-.73z" fill="#21333d"/><path d="m74.11 69.39-.11.21-.11.23v.18.09.22.07 1 2.1 4.22 8.41 25.53h-.17v-25.51-8.41-4.22-2.1-1.06-.23l.07-.29.09-.2z" fill="#2f4859"/></svg>