<svg id="Layer_1" height="512" viewBox="0 0 150 150" width="512" xmlns="http://www.w3.org/2000/svg" data-name="Layer 1"><circle cx="75" cy="75" fill="#45b39c" r="64"/><path d="m109 38.46a1 1 0 0 0 -1.37-.34l-14 8.32a1 1 0 0 0 -.49.86v9.7l-17.28 2.14h-.11a1.1 1.1 0 0 0 -.4.08l-34.14 4.31a1 1 0 0 0 -.87 1v26.76a1 1 0 0 0 .93 1l6.59.41a.91.91 0 0 0 .49.15 1 1 0 0 0 .42-.09l26.85 1.7h.13.07l17.79 1.14 3.56 5a3 3 0 0 1 -2.42 4.7h-39.95a1 1 0 0 0 0 2h40a5 5 0 0 0 4-7.87l-3.66-5.11v-46.45l13.46-8a1 1 0 0 0 .4-1.41zm-25.11 37.34h-7.14v-6.43l7.14-.47zm2-7 7.25-.48v7.48h-7.25zm-20.27 9v6.76l-7.13-.43v-6.33zm-7.13-2v-5.21l7.13-.48v5.69zm9.13 2h7.13v7.31l-7.13-.43zm0-2v-5.8l7.13-.47v6.27zm9.13-8.43v-6.37l7.14-.9v6.75zm-2 .13-7.13.5v-5.8l7.13-.9zm-9.13.61-7.13.48v-5.23l7.13-.91zm-9.13.61-7.14.48v-4.69l7.14-.9zm0 2v5.08h-7.14v-4.6zm-9.14 5.08h-5v-4.13l5-.34zm-5 2h5v5.66l-5-.3zm7 0h7.14v6.2l-7.14-.43zm7.14 8.2v5.24l-7.14-.46v-5.2zm2 .12 7.13.43v5.26l-7.13-.45zm9.13.55 7.13.43v5.3l-7.13-.4zm9.13.55 7.14.43v5.35l-7.14-.45zm0-2v-7.42h7.14v7.85zm9.14-7.43h7.25v8.41l-7.25-.44zm7.25-11.53-7.25.49v-6.86l7.25-.89zm-45.79-1.5v4.56l-5 .33v-4.25zm-5 20.39 5 .3v5.21l-5-.32zm43.55 8v-5.37l7.25.43v5.36z" fill="#ebf0f3"/><path d="m75.14 100.46a6.23 6.23 0 1 0 6.22 6.23 6.22 6.22 0 0 0 -6.22-6.23z" fill="#3a556a"/><path d="m75.14 103.45a3.24 3.24 0 1 0 3.24 3.24 3.24 3.24 0 0 0 -3.24-3.24z" fill="#e1e6e9"/><circle cx="52.75" cy="106.69" fill="#3a556a" r="6.22"/><circle cx="52.75" cy="106.69" fill="#e1e6e9" r="3.24"/><path d="m109.41 37.88a1.65 1.65 0 0 0 -2.29-.54l-9.58 6a.68.68 0 0 0 -.22.94l1 1.67a.68.68 0 0 0 .94.22l9.58-6a1.66 1.66 0 0 0 .57-2.29z" fill="#3a556a"/></svg>