<?xml version="1.0" encoding="iso-8859-1"?>
<!-- Generator: Adobe Illustrator 19.0.0, SVG Export Plug-In . SVG Version: 6.00 Build 0)  -->
<svg version="1.1" id="Layer_1" xmlns="http://www.w3.org/2000/svg" xmlns:xlink="http://www.w3.org/1999/xlink" x="0px" y="0px"
	 viewBox="0 0 512 512" style="enable-background:new 0 0 512 512;" xml:space="preserve">
<path style="fill:#BDC3C7;" d="M467.774,467.862H44.226C19.8,467.862,0,448.062,0,423.636v-26.395h512v26.395
	C512,448.062,492.2,467.862,467.774,467.862"/>
<g>
	<path style="fill:#ECF1F1;" d="M141.241,441.379H52.966c-4.873,0-8.828-3.946-8.828-8.828c0-4.882,3.955-8.828,8.828-8.828h88.276
		c4.873,0,8.828,3.946,8.828,8.828C150.069,437.433,146.114,441.379,141.241,441.379"/>
	<path style="fill:#ECF1F1;" d="M459.034,441.379h-88.276c-4.873,0-8.828-3.946-8.828-8.828c0-4.882,3.955-8.828,8.828-8.828h88.276
		c4.873,0,8.828,3.946,8.828,8.828C467.862,437.433,463.907,441.379,459.034,441.379"/>
	<path style="fill:#ECF1F1;" d="M264.828,441.379h-17.655c-4.873,0-8.828-3.946-8.828-8.828c0-4.882,3.955-8.828,8.828-8.828h17.655
		c4.873,0,8.828,3.946,8.828,8.828C273.655,437.433,269.7,441.379,264.828,441.379"/>
	<path style="fill:#ECF1F1;" d="M494.345,397.241H17.655V70.621c0-14.627,11.855-26.483,26.483-26.483h423.724
		c14.627,0,26.483,11.855,26.483,26.483V397.241z"/>
</g>
<polygon style="fill:#485762;" points="52.966,361.931 459.034,361.931 459.034,79.448 52.966,79.448 "/>
<polygon style="fill:#F0C419;" points="97.103,238.345 220.69,238.345 220.69,114.759 97.103,114.759 "/>
<path style="fill:#4FBA6F;" d="M220.69,282.483h-35.31c-4.873,0-8.828-3.946-8.828-8.828s3.955-8.828,8.828-8.828h35.31
	c4.873,0,8.828,3.946,8.828,8.828S225.562,282.483,220.69,282.483"/>
<path style="fill:#E64C3C;" d="M150.069,282.483H97.103c-4.873,0-8.828-3.946-8.828-8.828s3.955-8.828,8.828-8.828h52.966
	c4.873,0,8.828,3.946,8.828,8.828S154.942,282.483,150.069,282.483"/>
<path style="fill:#4FBA6F;" d="M132.414,317.793h-35.31c-4.873,0-8.828-3.946-8.828-8.828c0-4.882,3.955-8.828,8.828-8.828h35.31
	c4.873,0,8.828,3.946,8.828,8.828C141.241,313.847,137.287,317.793,132.414,317.793"/>
<path style="fill:#E64C3C;" d="M220.69,317.793h-52.966c-4.873,0-8.828-3.946-8.828-8.828c0-4.882,3.955-8.828,8.828-8.828h52.966
	c4.873,0,8.828,3.946,8.828,8.828C229.517,313.847,225.562,317.793,220.69,317.793"/>
<path style="fill:#F38774;" d="M382.482,248.143C370.75,253.184,357.835,256,344.276,256c-13.568,0-26.474-2.816-38.215-7.857
	c-24.576,13.506-41.234,39.627-41.234,69.65v44.138h158.897v-44.138C423.724,287.77,407.058,261.65,382.482,248.143"/>
<path style="fill:#FDC693;" d="M397.241,176.552c0,29.255-23.711,52.966-52.966,52.966c-29.255,0-52.966-23.711-52.966-52.966
	s23.711-52.966,52.966-52.966C373.53,123.586,397.241,147.297,397.241,176.552"/>
<g>
</g>
<g>
</g>
<g>
</g>
<g>
</g>
<g>
</g>
<g>
</g>
<g>
</g>
<g>
</g>
<g>
</g>
<g>
</g>
<g>
</g>
<g>
</g>
<g>
</g>
<g>
</g>
<g>
</g>
</svg>
