<?xml version="1.0" encoding="iso-8859-1"?>
<!-- Generator: Adobe Illustrator 19.0.0, SVG Export Plug-In . SVG Version: 6.00 Build 0)  -->
<svg version="1.1" id="Layer_1" xmlns="http://www.w3.org/2000/svg" xmlns:xlink="http://www.w3.org/1999/xlink" x="0px" y="0px"
	 viewBox="0 0 512 512" style="enable-background:new 0 0 512 512;" xml:space="preserve">
<path style="fill:#ECF1F1;" d="M494.345,397.241H17.655V70.621c0-14.627,11.855-26.483,26.483-26.483h423.724
	c14.627,0,26.483,11.855,26.483,26.483V397.241z"/>
<path style="fill:#BDC3C7;" d="M467.774,467.862H44.226C19.8,467.862,0,448.062,0,423.636v-26.395h512v26.395
	C512,448.062,492.2,467.862,467.774,467.862"/>
<polygon style="fill:#485762;" points="52.966,361.931 459.034,361.931 459.034,79.448 52.966,79.448 "/>
<g>
	<path style="fill:#ECF1F1;" d="M141.241,441.379H52.966c-4.873,0-8.828-3.946-8.828-8.828c0-4.882,3.955-8.828,8.828-8.828h88.276
		c4.873,0,8.828,3.946,8.828,8.828C150.069,437.433,146.114,441.379,141.241,441.379"/>
	<path style="fill:#ECF1F1;" d="M459.034,441.379h-88.276c-4.873,0-8.828-3.946-8.828-8.828c0-4.882,3.955-8.828,8.828-8.828h88.276
		c4.873,0,8.828,3.946,8.828,8.828C467.862,437.433,463.907,441.379,459.034,441.379"/>
	<path style="fill:#ECF1F1;" d="M264.828,441.379h-17.655c-4.873,0-8.828-3.946-8.828-8.828c0-4.882,3.955-8.828,8.828-8.828h17.655
		c4.873,0,8.828,3.946,8.828,8.828C273.655,437.433,269.7,441.379,264.828,441.379"/>
</g>
<path style="fill:#26B999;" d="M361.931,220.69c0,58.5-47.431,105.931-105.931,105.931S150.069,279.19,150.069,220.69
	S197.5,114.759,256,114.759S361.931,162.189,361.931,220.69"/>
<g>
	<path style="fill:#FFFFFF;" d="M238.345,247.172c0,4.873-3.955,8.828-8.828,8.828s-8.828-3.955-8.828-8.828
		c0-4.873,3.955-8.828,8.828-8.828S238.345,242.3,238.345,247.172"/>
	<path style="fill:#FFFFFF;" d="M308.966,264.828c-4.873,0-8.828-3.946-8.828-8.828c0-43.811-35.646-79.448-79.448-79.448
		c-4.873,0-8.828-3.946-8.828-8.828s3.955-8.828,8.828-8.828c53.539,0,97.103,43.564,97.103,97.103
		C317.793,260.882,313.838,264.828,308.966,264.828"/>
	<path style="fill:#FFFFFF;" d="M273.655,264.828c-4.873,0-8.828-3.946-8.828-8.828c0-24.338-19.8-44.138-44.138-44.138
		c-4.873,0-8.828-3.946-8.828-8.828s3.955-8.828,8.828-8.828c34.074,0,61.793,27.727,61.793,61.793
		C282.483,260.882,278.528,264.828,273.655,264.828"/>
</g>
<g>
</g>
<g>
</g>
<g>
</g>
<g>
</g>
<g>
</g>
<g>
</g>
<g>
</g>
<g>
</g>
<g>
</g>
<g>
</g>
<g>
</g>
<g>
</g>
<g>
</g>
<g>
</g>
<g>
</g>
</svg>
