<?xml version="1.0" encoding="iso-8859-1"?>
<!-- Generator: Adobe Illustrator 19.0.0, SVG Export Plug-In . SVG Version: 6.00 Build 0)  -->
<svg version="1.1" id="Layer_1" xmlns="http://www.w3.org/2000/svg" xmlns:xlink="http://www.w3.org/1999/xlink" x="0px" y="0px"
	 viewBox="0 0 512 512" style="enable-background:new 0 0 512 512;" xml:space="preserve">
<path style="fill:#BDC3C7;" d="M467.774,467.862H44.226C19.8,467.862,0,448.062,0,423.636v-26.395h512v26.395
	C512,448.062,492.2,467.862,467.774,467.862"/>
<g>
	<path style="fill:#ECF1F1;" d="M141.241,441.379H52.966c-4.873,0-8.828-3.946-8.828-8.828c0-4.882,3.955-8.828,8.828-8.828h88.276
		c4.873,0,8.828,3.946,8.828,8.828C150.069,437.433,146.114,441.379,141.241,441.379"/>
	<path style="fill:#ECF1F1;" d="M459.034,441.379h-88.276c-4.873,0-8.828-3.946-8.828-8.828c0-4.882,3.955-8.828,8.828-8.828h88.276
		c4.873,0,8.828,3.946,8.828,8.828C467.862,437.433,463.907,441.379,459.034,441.379"/>
	<path style="fill:#ECF1F1;" d="M264.828,441.379h-17.655c-4.873,0-8.828-3.946-8.828-8.828c0-4.882,3.955-8.828,8.828-8.828h17.655
		c4.873,0,8.828,3.946,8.828,8.828C273.655,437.433,269.7,441.379,264.828,441.379"/>
	<path style="fill:#ECF1F1;" d="M494.345,397.241H17.655V70.621c0-14.627,11.855-26.483,26.483-26.483h423.724
		c14.627,0,26.483,11.855,26.483,26.483V397.241z"/>
</g>
<polygon style="fill:#485762;" points="52.966,361.931 459.034,361.931 459.034,79.448 52.966,79.448 "/>
<path style="fill:#8697CB;" d="M361.931,220.69c0,58.5-47.431,105.931-105.931,105.931S150.069,279.19,150.069,220.69
	S197.5,114.759,256,114.759S361.931,162.189,361.931,220.69"/>
<g>
	<path style="fill:#556080;" d="M256,335.448c-63.276,0-114.759-51.482-114.759-114.759S192.724,105.931,256,105.931
		s114.759,51.482,114.759,114.759S319.276,335.448,256,335.448z M256,123.586c-53.539,0-97.103,43.564-97.103,97.103
		s43.564,97.103,97.103,97.103s97.103-43.564,97.103-97.103S309.539,123.586,256,123.586z"/>
	<path style="fill:#556080;" d="M264.828,335.448c-4.873,0-8.828-3.946-8.828-8.828c0-4.882,3.955-8.828,8.828-8.828
		c16.675,0,35.31-41.525,35.31-97.103s-18.635-97.103-35.31-97.103c-4.873,0-8.828-3.955-8.828-8.828s3.955-8.828,8.828-8.828
		c30.199,0,52.966,49.337,52.966,114.759S295.027,335.448,264.828,335.448z"/>
	<path style="fill:#556080;" d="M361.931,229.517H150.069c-4.873,0-8.828-3.955-8.828-8.828c0-4.873,3.955-8.828,8.828-8.828
		h211.862c4.882,0,8.828,3.955,8.828,8.828C370.759,225.562,366.813,229.517,361.931,229.517z"/>
	<path style="fill:#556080;" d="M256,335.448c-4.873,0-8.828-3.946-8.828-8.828V114.759c0-4.873,3.955-8.828,8.828-8.828
		s8.828,3.955,8.828,8.828v211.862C264.828,331.502,260.873,335.448,256,335.448z"/>
	<path style="fill:#556080;" d="M247.172,335.448c-30.19,0-52.966-49.337-52.966-114.759s22.775-114.759,52.966-114.759
		c4.873,0,8.828,3.955,8.828,8.828s-3.955,8.828-8.828,8.828c-16.666,0-35.31,41.525-35.31,97.103s18.644,97.103,35.31,97.103
		c4.873,0,8.828,3.946,8.828,8.828C256,331.502,252.045,335.448,247.172,335.448z"/>
</g>
<g>
</g>
<g>
</g>
<g>
</g>
<g>
</g>
<g>
</g>
<g>
</g>
<g>
</g>
<g>
</g>
<g>
</g>
<g>
</g>
<g>
</g>
<g>
</g>
<g>
</g>
<g>
</g>
<g>
</g>
</svg>
