<?xml version="1.0" encoding="iso-8859-1"?>
<!-- Generator: Adobe Illustrator 19.0.0, SVG Export Plug-In . SVG Version: 6.00 Build 0)  -->
<svg version="1.1" id="Layer_1" xmlns="http://www.w3.org/2000/svg" xmlns:xlink="http://www.w3.org/1999/xlink" x="0px" y="0px"
	 viewBox="0 0 512.002 512.002" style="enable-background:new 0 0 512.002 512.002;" xml:space="preserve">
<path style="fill:#D8DCDC;" d="M372.899,15.514c-20.685-20.685-54.225-20.685-74.91,0c-12.351,12.351-17.216,29.266-14.823,45.299
	l44.434,44.434c16.033,2.393,32.948-2.472,45.299-14.823C393.584,69.739,393.584,36.199,372.899,15.514"/>
<polygon style="fill:#8697CB;" points="131.678,283.9 106.711,258.933 231.564,121.588 269.014,159.048 "/>
<polygon style="fill:#F0C419;" points="287.748,177.773 212.839,102.863 269.023,46.678 343.933,121.588 "/>
<path style="fill:#97989A;" d="M450.228,512.002H61.774c0-29.258,23.713-52.971,52.971-52.971h282.512
	C426.515,459.031,450.228,482.745,450.228,512.002"/>
<polygon style="fill:#5E70A0;" points="238.344,186.928 185.373,235.088 155.312,205.468 203.33,152.647 "/>
<polygon style="fill:#D8DCDC;" points="185.373,235.088 185.373,459.031 238.344,459.031 238.344,186.928 "/>
<path style="fill:#97989A;" d="M303.931,10.464c9.703,12.916,21.956,26.989,34.996,40.028c12.766,12.757,26.468,24.305,39.11,33.857
	c15.309-20.729,13.631-50.058-5.138-68.836C354.086-3.3,324.669-4.942,303.931,10.464"/>
<g>
</g>
<g>
</g>
<g>
</g>
<g>
</g>
<g>
</g>
<g>
</g>
<g>
</g>
<g>
</g>
<g>
</g>
<g>
</g>
<g>
</g>
<g>
</g>
<g>
</g>
<g>
</g>
<g>
</g>
</svg>
