<?xml version="1.0" encoding="iso-8859-1"?>
<!-- Generator: Adobe Illustrator 19.0.0, SVG Export Plug-In . SVG Version: 6.00 Build 0)  -->
<svg version="1.1" id="Layer_1" xmlns="http://www.w3.org/2000/svg" xmlns:xlink="http://www.w3.org/1999/xlink" x="0px" y="0px"
	 viewBox="0 0 511.998 511.998" style="enable-background:new 0 0 511.998 511.998;" xml:space="preserve">
<path style="fill:#D8DCDC;" d="M22.077,511.998c-3.249,0-6.365-1.792-7.91-4.899c-2.172-4.361-0.397-9.657,3.964-11.838
	l19.588-9.746c2.278-1.024,48.049-22.148,39.459-60.804c-3.425-15.378-1.218-28.663,6.541-39.486
	c14.248-19.88,42.143-23.111,43.326-23.243c4.829-0.512,9.207,2.975,9.728,7.83c0.53,4.829-2.966,9.181-7.795,9.719
	c-0.212,0.026-21.372,2.586-30.958,16.049c-4.74,6.638-5.914,14.919-3.61,25.309c9.384,42.222-28.054,71.177-49.161,80.596
	l-19.244,9.596C24.743,511.706,23.392,511.998,22.077,511.998"/>
<polygon style="fill:#8697CB;" points="371.958,264.119 234.636,126.797 322.02,39.404 459.342,176.735 "/>
<g>
	<path style="fill:#5E70A0;" d="M119.171,379.584L119.171,379.584c-10.443-10.443-10.734-27.286-0.653-38.091l159.806-170.999
		l49.938,49.938L157.254,380.237C146.457,390.318,129.614,390.027,119.171,379.584"/>
	<path style="fill:#5E70A0;" d="M357.728,75.121l65.907,65.907c19.544,1.245,39.503-5.535,54.44-20.471
		c27.577-27.577,27.577-72.289,0-99.866c-27.586-27.586-72.298-27.586-99.875,0C363.263,35.617,356.483,55.576,357.728,75.121"/>
</g>
<path style="fill:#F38774;" d="M390.681,195.458c-24.135,24.135-63.258,24.135-87.384,0c-24.135-24.135-24.135-63.258,0-87.393
	c24.126-24.126,63.25-24.126,87.384,0C414.816,132.2,414.816,171.324,390.681,195.458"/>
<path style="fill:#BF594C;" d="M365.717,170.494c-24.135,24.135-52.074,35.31-62.42,24.964
	c-10.346-10.337,0.839-38.285,24.964-62.42c24.135-24.126,52.083-35.31,62.42-24.964
	C401.027,118.411,389.852,146.359,365.717,170.494"/>
<g>
</g>
<g>
</g>
<g>
</g>
<g>
</g>
<g>
</g>
<g>
</g>
<g>
</g>
<g>
</g>
<g>
</g>
<g>
</g>
<g>
</g>
<g>
</g>
<g>
</g>
<g>
</g>
<g>
</g>
</svg>
