<?xml version="1.0" encoding="iso-8859-1"?>
<!-- Generator: Adobe Illustrator 19.0.0, SVG Export Plug-In . SVG Version: 6.00 Build 0)  -->
<svg version="1.1" id="Layer_1" xmlns="http://www.w3.org/2000/svg" xmlns:xlink="http://www.w3.org/1999/xlink" x="0px" y="0px"
	 viewBox="0 0 512 512" style="enable-background:new 0 0 512 512;" xml:space="preserve">
<polygon style="fill:#B66E30;" points="17.655,512 494.345,512 494.345,264.828 17.655,264.828 "/>
<polygon style="fill:#673104;" points="0,264.828 512,264.828 512,229.517 0,229.517 "/>
<path style="fill:#8697CB;" d="M344.276,388.414c0,48.755-39.521,88.276-88.276,88.276s-88.276-39.521-88.276-88.276
	s39.521-88.276,88.276-88.276S344.276,339.659,344.276,388.414"/>
<path style="fill:#556080;" d="M256,485.517c-53.539,0-97.103-43.564-97.103-97.103S202.461,291.31,256,291.31
	s97.103,43.564,97.103,97.103S309.539,485.517,256,485.517z M256,308.966c-43.802,0-79.448,35.637-79.448,79.448
	s35.646,79.448,79.448,79.448c43.811,0,79.448-35.637,79.448-79.448S299.811,308.966,256,308.966z"/>
<path style="fill:#8697CB;" d="M304.146,388.414c0,48.755-25.988,88.276-48.154,88.276c-22.157,0-48.146-39.521-48.146-88.276
	s25.997-88.276,48.154-88.276S304.146,339.659,304.146,388.414"/>
<path style="fill:#556080;" d="M256,485.517c-29.82,0-56.973-46.283-56.973-97.103S226.18,291.31,256,291.31
	s56.982,46.283,56.982,97.103S285.82,485.517,256,485.517z M256,308.966c-15.466,0-39.318,34.11-39.318,79.448
	s23.852,79.448,39.318,79.448s39.327-34.11,39.327-79.448S271.466,308.966,256,308.966z"/>
<g transform="translate(19 44)">
	<path style="fill:#8697CB;" d="M148.724,344.414h176.552"/>
	<path style="fill:#556080;" d="M325.276,353.241H148.724c-4.873,0-8.828-3.946-8.828-8.828s3.955-8.828,8.828-8.828h176.552
		c4.882,0,8.828,3.946,8.828,8.828S330.158,353.241,325.276,353.241z"/>
</g>
<g transform="translate(29 34)">
	<path style="fill:#8697CB;" d="M227,266.138V442.69"/>
	<path style="fill:#556080;" d="M227,451.517c-4.873,0-8.828-3.946-8.828-8.828V266.138c0-4.882,3.955-8.828,8.828-8.828
		c4.882,0,8.828,3.946,8.828,8.828V442.69C235.828,447.571,231.882,451.517,227,451.517z"/>
</g>
<path style="fill:#FDC693;" d="M300.138,44.138c0,24.373-19.765,44.138-44.138,44.138s-44.138-19.765-44.138-44.138S231.627,0,256,0
	S300.138,19.765,300.138,44.138"/>
<path style="fill:#8697CB;" d="M297.066,101.517c-11.582,8.298-25.732,13.241-41.066,13.241s-29.484-4.943-41.057-13.241
	c-17.876,12.818-29.564,33.713-29.564,57.379v70.621h141.241v-70.621C326.621,135.23,314.942,114.335,297.066,101.517"/>
<polygon style="fill:#F0C419;" points="282.483,141.241 256,185.379 229.517,141.241 247.172,114.759 264.828,114.759 "/>
<g>
</g>
<g>
</g>
<g>
</g>
<g>
</g>
<g>
</g>
<g>
</g>
<g>
</g>
<g>
</g>
<g>
</g>
<g>
</g>
<g>
</g>
<g>
</g>
<g>
</g>
<g>
</g>
<g>
</g>
</svg>
