<?xml version="1.0" encoding="iso-8859-1"?>
<!-- Generator: Adobe Illustrator 19.0.0, SVG Export Plug-In . SVG Version: 6.00 Build 0)  -->
<svg version="1.1" id="Layer_1" xmlns="http://www.w3.org/2000/svg" xmlns:xlink="http://www.w3.org/1999/xlink" x="0px" y="0px"
	 viewBox="0 0 512 512" style="enable-background:new 0 0 512 512;" xml:space="preserve">
<g>
	<path style="fill:#97989A;" d="M97.103,238.345c-4.882,0-8.828-3.955-8.828-8.828V123.586c0-4.873,3.946-8.828,8.828-8.828
		s8.828,3.955,8.828,8.828v105.931C105.931,234.39,101.985,238.345,97.103,238.345"/>
	<path style="fill:#97989A;" d="M61.793,167.724c-2.26,0-4.52-0.865-6.241-2.586c-3.452-3.452-3.452-9.031,0-12.482l58.138-58.138
		c3.452-3.452,9.031-3.452,12.482,0c3.452,3.452,3.452,9.031,0,12.482l-58.138,58.138C66.313,166.859,64.053,167.724,61.793,167.724
		"/>
</g>
<path style="fill:#4F4F50;" d="M124.972,105.807l-10.09-10.09c-4.114-4.114-4.114-10.77,0-14.874l10.09-10.099
	c4.105-4.105,10.77-4.105,14.874,0l10.09,10.099c4.114,4.105,4.114,10.761,0,14.874l-10.09,10.09
	C135.742,109.912,129.077,109.912,124.972,105.807"/>
<g>
	<path style="fill:#97989A;" d="M414.897,238.345c-4.882,0-8.828-3.955-8.828-8.828V123.586c0-4.873,3.946-8.828,8.828-8.828
		c4.882,0,8.828,3.955,8.828,8.828v105.931C423.724,234.39,419.778,238.345,414.897,238.345"/>
	<path style="fill:#97989A;" d="M450.207,167.724c-2.26,0-4.52-0.865-6.241-2.586l-58.138-58.138c-3.452-3.452-3.452-9.031,0-12.482
		c3.452-3.452,9.031-3.452,12.482,0l58.138,58.138c3.452,3.452,3.452,9.031,0,12.482
		C454.727,166.859,452.467,167.724,450.207,167.724"/>
</g>
<path style="fill:#4F4F50;" d="M387.028,105.807l10.09-10.09c4.114-4.114,4.114-10.77,0-14.874l-10.09-10.099
	c-4.105-4.105-10.77-4.105-14.875,0l-10.09,10.099c-4.114,4.105-4.114,10.761,0,14.874l10.09,10.09
	C376.258,109.912,382.923,109.912,387.028,105.807"/>
<polygon style="fill:#B66E30;" points="17.655,512 494.345,512 494.345,264.828 17.655,264.828 "/>
<polygon style="fill:#673104;" points="0,264.828 512,264.828 512,229.517 0,229.517 "/>
<path style="fill:#8697CB;" d="M344.276,388.414c0,48.755-39.521,88.276-88.276,88.276s-88.276-39.521-88.276-88.276
	s39.521-88.276,88.276-88.276S344.276,339.659,344.276,388.414"/>
<path style="fill:#556080;" d="M256,485.517c-53.539,0-97.103-43.564-97.103-97.103S202.461,291.31,256,291.31
	s97.103,43.564,97.103,97.103S309.539,485.517,256,485.517z M256,308.966c-43.802,0-79.448,35.637-79.448,79.448
	s35.646,79.448,79.448,79.448c43.811,0,79.448-35.637,79.448-79.448S299.811,308.966,256,308.966z"/>
<path style="fill:#8697CB;" d="M304.146,388.414c0,48.755-25.988,88.276-48.154,88.276c-22.157,0-48.146-39.521-48.146-88.276
	s25.997-88.276,48.154-88.276S304.146,339.659,304.146,388.414"/>
<path style="fill:#556080;" d="M256,485.517c-29.82,0-56.973-46.283-56.973-97.103S226.18,291.31,256,291.31
	s56.982,46.283,56.982,97.103S285.82,485.517,256,485.517z M256,308.966c-15.466,0-39.318,34.11-39.318,79.448
	s23.852,79.448,39.318,79.448s39.327-34.11,39.327-79.448S271.466,308.966,256,308.966z"/>
<g transform="translate(19 44)">
	<path style="fill:#8697CB;" d="M148.724,344.414h176.552"/>
	<path style="fill:#556080;" d="M325.276,353.241H148.724c-4.873,0-8.828-3.946-8.828-8.828s3.955-8.828,8.828-8.828h176.552
		c4.882,0,8.828,3.946,8.828,8.828S330.158,353.241,325.276,353.241z"/>
</g>
<g transform="translate(29 34)">
	<path style="fill:#8697CB;" d="M227,266.138V442.69"/>
	<path style="fill:#556080;" d="M227,451.517c-4.873,0-8.828-3.946-8.828-8.828V266.138c0-4.882,3.955-8.828,8.828-8.828
		c4.882,0,8.828,3.946,8.828,8.828V442.69C235.828,447.571,231.882,451.517,227,451.517z"/>
</g>
<path style="fill:#FDC693;" d="M300.138,44.138c0,24.373-19.765,44.138-44.138,44.138s-44.138-19.765-44.138-44.138S231.627,0,256,0
	S300.138,19.765,300.138,44.138"/>
<path style="fill:#8697CB;" d="M297.066,101.517c-11.582,8.298-25.732,13.241-41.066,13.241s-29.484-4.943-41.057-13.241
	c-17.876,12.818-29.564,33.713-29.564,57.379v70.621h141.241v-70.621C326.621,135.23,314.942,114.335,297.066,101.517"/>
<polygon style="fill:#F0C419;" points="282.483,141.241 256,185.379 229.517,141.241 247.172,114.759 264.828,114.759 "/>
<g>
</g>
<g>
</g>
<g>
</g>
<g>
</g>
<g>
</g>
<g>
</g>
<g>
</g>
<g>
</g>
<g>
</g>
<g>
</g>
<g>
</g>
<g>
</g>
<g>
</g>
<g>
</g>
<g>
</g>
</svg>
