<?xml version="1.0" encoding="iso-8859-1"?>
<!-- Generator: Adobe Illustrator 19.0.0, SVG Export Plug-In . SVG Version: 6.00 Build 0)  -->
<svg version="1.1" id="Layer_1" xmlns="http://www.w3.org/2000/svg" xmlns:xlink="http://www.w3.org/1999/xlink" x="0px" y="0px"
	 viewBox="0 0 512 512" style="enable-background:new 0 0 512 512;" xml:space="preserve">
<path style="fill:#ECF1F1;" d="M370.759,97.103c0-24.373,19.765-44.138,44.138-44.138H17.655C7.901,52.966,0,60.866,0,70.621
	v423.724C0,504.099,7.901,512,17.655,512h335.448c9.754,0,17.655-7.901,17.655-17.655V97.103z"/>
<g>
	<path style="fill:#CDCFCF;" d="M485.517,432.552c14.627,0,26.483-11.855,26.483-26.483V88.276V17.655
		C512,7.901,504.099,0,494.345,0H105.931c-9.754,0-17.655,7.901-17.655,17.655v35.31h326.621l0,0
		c24.373,0,44.138,19.756,44.138,44.138l0,0l0,0v308.966C459.034,420.696,470.89,432.552,485.517,432.552"/>
	<path style="fill:#CDCFCF;" d="M414.897,494.345c-4.882,0-8.828-3.955-8.828-8.828V97.103c0-4.873,3.946-8.828,8.828-8.828
		c4.882,0,8.828,3.955,8.828,8.828v388.414C423.724,490.39,419.778,494.345,414.897,494.345"/>
	<path style="fill:#CDCFCF;" d="M326.621,105.931H44.138c-4.882,0-8.828-3.955-8.828-8.828s3.946-8.828,8.828-8.828h282.483
		c4.882,0,8.828,3.955,8.828,8.828S331.502,105.931,326.621,105.931"/>
	<polygon style="fill:#CDCFCF;" points="61.793,256 308.966,256 308.966,141.241 61.793,141.241 	"/>
	<path style="fill:#CDCFCF;" d="M167.724,308.966H44.138c-4.882,0-8.828-3.955-8.828-8.828c0-4.873,3.946-8.828,8.828-8.828h123.586
		c4.882,0,8.828,3.955,8.828,8.828C176.552,305.011,172.606,308.966,167.724,308.966"/>
	<path style="fill:#CDCFCF;" d="M326.621,308.966H220.69c-4.882,0-8.828-3.955-8.828-8.828c0-4.873,3.946-8.828,8.828-8.828h105.931
		c4.882,0,8.828,3.955,8.828,8.828C335.448,305.011,331.502,308.966,326.621,308.966"/>
	<path style="fill:#CDCFCF;" d="M167.724,353.103H44.138c-4.882,0-8.828-3.955-8.828-8.828c0-4.873,3.946-8.828,8.828-8.828h123.586
		c4.882,0,8.828,3.955,8.828,8.828C176.552,349.149,172.606,353.103,167.724,353.103"/>
	<path style="fill:#CDCFCF;" d="M326.621,353.103H220.69c-4.882,0-8.828-3.955-8.828-8.828c0-4.873,3.946-8.828,8.828-8.828h105.931
		c4.882,0,8.828,3.955,8.828,8.828C335.448,349.149,331.502,353.103,326.621,353.103"/>
	<path style="fill:#CDCFCF;" d="M167.724,397.241H44.138c-4.882,0-8.828-3.955-8.828-8.828s3.946-8.828,8.828-8.828h123.586
		c4.882,0,8.828,3.955,8.828,8.828S172.606,397.241,167.724,397.241"/>
	<path style="fill:#CDCFCF;" d="M326.621,397.241H220.69c-4.882,0-8.828-3.955-8.828-8.828s3.946-8.828,8.828-8.828h105.931
		c4.882,0,8.828,3.955,8.828,8.828S331.502,397.241,326.621,397.241"/>
	<path style="fill:#CDCFCF;" d="M167.724,441.379H44.138c-4.882,0-8.828-3.955-8.828-8.828s3.946-8.828,8.828-8.828h123.586
		c4.882,0,8.828,3.955,8.828,8.828S172.606,441.379,167.724,441.379"/>
	<path style="fill:#CDCFCF;" d="M326.621,441.379H220.69c-4.882,0-8.828-3.955-8.828-8.828s3.946-8.828,8.828-8.828h105.931
		c4.882,0,8.828,3.955,8.828,8.828S331.502,441.379,326.621,441.379"/>
	<path style="fill:#CDCFCF;" d="M132.414,485.517H44.138c-4.882,0-8.828-3.955-8.828-8.828c0-4.873,3.946-8.828,8.828-8.828h88.276
		c4.882,0,8.828,3.955,8.828,8.828C141.241,481.562,137.295,485.517,132.414,485.517"/>
	<path style="fill:#CDCFCF;" d="M273.655,485.517H220.69c-4.882,0-8.828-3.955-8.828-8.828c0-4.873,3.946-8.828,8.828-8.828h52.966
		c4.882,0,8.828,3.955,8.828,8.828C282.483,481.562,278.537,485.517,273.655,485.517"/>
</g>
<g>
</g>
<g>
</g>
<g>
</g>
<g>
</g>
<g>
</g>
<g>
</g>
<g>
</g>
<g>
</g>
<g>
</g>
<g>
</g>
<g>
</g>
<g>
</g>
<g>
</g>
<g>
</g>
<g>
</g>
</svg>
