<?xml version="1.0" encoding="iso-8859-1"?>
<!-- Generator: Adobe Illustrator 19.0.0, SVG Export Plug-In . SVG Version: 6.00 Build 0)  -->
<svg version="1.1" id="Layer_1" xmlns="http://www.w3.org/2000/svg" xmlns:xlink="http://www.w3.org/1999/xlink" x="0px" y="0px"
	 viewBox="0 0 512 512" style="enable-background:new 0 0 512 512;" xml:space="preserve">
<path style="fill:#485762;" d="M353.103,114.759c0-14.627-11.855-26.483-26.483-26.483H185.379
	c-14.627,0-26.483,11.855-26.483,26.483s-11.855,26.483-26.483,26.483H26.483C11.855,141.241,0,153.097,0,167.724v229.517
	c0,14.627,11.855,26.483,26.483,26.483h459.034c14.627,0,26.483-11.855,26.483-26.483V167.724c0-14.627-11.855-26.483-26.483-26.483
	H379.586C364.959,141.241,353.103,129.386,353.103,114.759L353.103,114.759z"/>
<path style="fill:#667D8C;" d="M308.93,158.897h-35.24c-4.89,0-8.863-3.972-8.863-8.863v-17.585c0-4.89,3.972-8.863,8.863-8.863
	h35.24c4.899,0,8.863,3.972,8.863,8.863v17.585C317.793,154.924,313.829,158.897,308.93,158.897"/>
<path style="fill:#BDC3C7;" d="M476.69,141.241h-70.621v-17.655c0-9.754,7.901-17.655,17.655-17.655h35.31
	c9.754,0,17.655,7.901,17.655,17.655V141.241z"/>
<g>
	<path style="fill:#667D8C;" d="M0,167.724v26.483h17.655c29.255,0,52.966-23.711,52.966-52.966H26.483
		C11.855,141.241,0,153.097,0,167.724"/>
	<path style="fill:#667D8C;" d="M512,167.724v26.483h-26.483c-29.255,0-44.138-23.711-44.138-52.966l0,0h44.138
		C500.145,141.241,512,153.097,512,167.724"/>
	<path style="fill:#667D8C;" d="M0,397.241v-26.483h17.655c29.255,0,52.966,23.711,52.966,52.966H26.483
		C11.855,423.724,0,411.869,0,397.241"/>
	<path style="fill:#667D8C;" d="M512,397.241v-26.483h-26.483c-29.255,0-44.138,23.711-44.138,52.966l0,0h44.138
		C500.145,423.724,512,411.869,512,397.241"/>
</g>
<path style="fill:#63659C;" d="M282.483,370.759H123.586c-19.5,0-35.31-15.81-35.31-35.31V229.517c0-19.5,15.81-35.31,35.31-35.31
	h158.897c19.5,0,35.31,15.81,35.31,35.31v105.931C317.793,354.948,301.983,370.759,282.483,370.759"/>
<path style="fill:#3F4173;" d="M203.034,229.517c-35.31,0-35.31,26.483-35.31,26.483v35.31c0,17.841,17.655,26.483,17.655,26.483
	v17.655c-43.591,0-44.138,35.31-44.138,35.31h123.586c0,0-0.547-35.31-44.138-35.31v-17.655c0,0,17.655-8.457,17.655-26.483V256
	C238.345,256,238.345,229.517,203.034,229.517"/>
<path style="fill:#E64C3C;" d="M379.586,326.621c0,4.873-3.955,8.828-8.828,8.828c-4.873,0-8.828-3.955-8.828-8.828
	c0-4.873,3.955-8.828,8.828-8.828C375.631,317.793,379.586,321.748,379.586,326.621"/>
<path style="fill:#F0C419;" d="M467.862,326.621c0,4.873-3.955,8.828-8.828,8.828s-8.828-3.955-8.828-8.828
	c0-4.873,3.955-8.828,8.828-8.828S467.862,321.748,467.862,326.621"/>
<path style="fill:#667D8C;" d="M441.379,282.483h-52.966c-14.627,0-26.483-11.855-26.483-26.483l0,0
	c0-14.627,11.855-26.483,26.483-26.483h52.966c14.627,0,26.483,11.855,26.483,26.483l0,0
	C467.862,270.627,456.007,282.483,441.379,282.483"/>
<g>
</g>
<g>
</g>
<g>
</g>
<g>
</g>
<g>
</g>
<g>
</g>
<g>
</g>
<g>
</g>
<g>
</g>
<g>
</g>
<g>
</g>
<g>
</g>
<g>
</g>
<g>
</g>
<g>
</g>
</svg>
