<?xml version="1.0" encoding="iso-8859-1"?>
<!-- Generator: Adobe Illustrator 19.0.0, SVG Export Plug-In . SVG Version: 6.00 Build 0)  -->
<svg version="1.1" id="Layer_1" xmlns="http://www.w3.org/2000/svg" xmlns:xlink="http://www.w3.org/1999/xlink" x="0px" y="0px"
	 viewBox="0 0 512 512" style="enable-background:new 0 0 512 512;" xml:space="preserve">
<g>
	<path style="fill:#BDC3C7;" d="M158.897,150.069c-4.873,0-8.828-3.946-8.828-8.828v-17.655c0-4.882,3.955-8.828,8.828-8.828
		c4.873,0,8.828,3.946,8.828,8.828v17.655C167.724,146.123,163.769,150.069,158.897,150.069"/>
	<path style="fill:#BDC3C7;" d="M194.207,150.069c-4.873,0-8.828-3.946-8.828-8.828v-17.655c0-4.882,3.955-8.828,8.828-8.828
		s8.828,3.946,8.828,8.828v17.655C203.034,146.123,199.08,150.069,194.207,150.069"/>
</g>
<path style="fill:#485762;" d="M485.517,423.724H26.483C11.855,423.724,0,411.869,0,397.241V167.724
	c0-14.627,11.855-26.483,26.483-26.483h459.034c14.627,0,26.483,11.855,26.483,26.483v229.517
	C512,411.869,500.145,423.724,485.517,423.724"/>
<g>
	<polygon style="fill:#344148;" points="52.966,141.241 123.586,141.241 123.586,105.931 52.966,105.931 	"/>
	<polygon style="fill:#344148;" points="476.69,141.241 282.483,141.241 317.793,88.276 441.379,88.276 	"/>
</g>
<g>
	<path style="fill:#667D8C;" d="M88.276,423.724H26.483C11.855,423.724,0,411.869,0,397.241V167.724
		c0-14.627,11.855-26.483,26.483-26.483h61.793V423.724z"/>
	<path style="fill:#667D8C;" d="M423.724,423.724h61.793c14.627,0,26.483-11.855,26.483-26.483V167.724
		c0-14.627-11.855-26.483-26.483-26.483h-61.793V423.724z"/>
</g>
<path style="fill:#485762;" d="M467.862,370.759c-4.873,0-8.828-3.946-8.828-8.828V203.034c0-4.882,3.955-8.828,8.828-8.828
	s8.828,3.946,8.828,8.828v158.897C476.69,366.813,472.735,370.759,467.862,370.759"/>
<path style="fill:#344148;" d="M361.931,282.483c0,58.5-47.431,105.931-105.931,105.931s-105.931-47.431-105.931-105.931
	S197.5,176.552,256,176.552S361.931,223.982,361.931,282.483"/>
<path style="fill:#63659C;" d="M256,353.103c-38.938,0-70.621-31.682-70.621-70.621s31.682-70.621,70.621-70.621
	s70.621,31.682,70.621,70.621S294.938,353.103,256,353.103"/>
<path style="fill:#8697CB;" d="M220.69,291.31c-4.873,0-8.828-3.946-8.828-8.828c0-24.338,19.8-44.138,44.138-44.138
	c4.873,0,8.828,3.946,8.828,8.828S260.873,256,256,256c-14.601,0-26.483,11.882-26.483,26.483
	C229.517,287.364,225.562,291.31,220.69,291.31"/>
<g>
</g>
<g>
</g>
<g>
</g>
<g>
</g>
<g>
</g>
<g>
</g>
<g>
</g>
<g>
</g>
<g>
</g>
<g>
</g>
<g>
</g>
<g>
</g>
<g>
</g>
<g>
</g>
<g>
</g>
</svg>
