<?xml version="1.0" encoding="iso-8859-1"?>
<!-- Generator: Adobe Illustrator 19.0.0, SVG Export Plug-In . SVG Version: 6.00 Build 0)  -->
<svg version="1.1" id="Layer_1" xmlns="http://www.w3.org/2000/svg" xmlns:xlink="http://www.w3.org/1999/xlink" x="0px" y="0px"
	 viewBox="0 0 512 512" style="enable-background:new 0 0 512 512;" xml:space="preserve">
<path style="fill:#BDC3C7;" d="M185.379,158.897c-4.873,0-8.828-3.946-8.828-8.828v-17.655c0-4.882,3.955-8.828,8.828-8.828
	c4.873,0,8.828,3.946,8.828,8.828v17.655C194.207,154.951,190.252,158.897,185.379,158.897"/>
<path style="fill:#F8D799;" d="M485.517,414.897H26.483C11.855,414.897,0,403.041,0,388.414V176.552
	c0-14.627,11.855-26.483,26.483-26.483h459.034c14.627,0,26.483,11.855,26.483,26.483v211.862
	C512,403.041,500.145,414.897,485.517,414.897"/>
<path style="fill:#344148;" d="M353.103,282.483c0,53.628-43.476,97.103-97.103,97.103s-97.103-43.476-97.103-97.103
	s43.476-97.103,97.103-97.103S353.103,228.855,353.103,282.483"/>
<g>
	<path style="fill:#617186;" d="M485.517,150.069H26.483C11.855,150.069,0,161.924,0,176.552v26.483h200.271
		c15.784-11.087,34.975-17.655,55.729-17.655s39.945,6.568,55.729,17.655H512v-26.483C512,161.924,500.145,150.069,485.517,150.069"
		/>
	<path style="fill:#617186;" d="M311.729,361.931c-15.784,11.087-34.975,17.655-55.729,17.655s-39.936-6.568-55.72-17.655H0v26.483
		c0,14.627,11.864,26.483,26.483,26.483h459.034c14.627,0,26.483-11.855,26.483-26.483v-26.483H311.729z"/>
</g>
<path style="fill:#63659C;" d="M317.793,282.483c0,34.127-27.666,61.793-61.793,61.793s-61.793-27.666-61.793-61.793
	S221.873,220.69,256,220.69S317.793,248.355,317.793,282.483"/>
<g>
	<polygon style="fill:#344148;" points="141.241,150.069 52.966,150.069 70.621,114.759 123.586,114.759 	"/>
	<path style="fill:#344148;" d="M459.034,150.069H300.138v-8.828c0-24.373,19.765-44.138,44.138-44.138h70.621
		c24.373,0,44.138,19.765,44.138,44.138V150.069z"/>
</g>
<polygon style="fill:#BDC3C7;" points="105.931,203.034 158.897,203.034 158.897,150.069 105.931,150.069 "/>
<path style="fill:#8697CB;" d="M264.828,300.138h-17.655c-4.873,0-8.828-3.955-8.828-8.828v-17.655c0-4.873,3.955-8.828,8.828-8.828
	h17.655c4.873,0,8.828,3.955,8.828,8.828v17.655C273.655,296.183,269.7,300.138,264.828,300.138"/>
<g>
	<path style="fill:#617186;" d="M414.897,238.345c0,4.873-3.955,8.828-8.828,8.828s-8.828-3.955-8.828-8.828
		c0-4.873,3.955-8.828,8.828-8.828S414.897,233.472,414.897,238.345"/>
	<path style="fill:#617186;" d="M450.207,238.345c0,4.873-3.955,8.828-8.828,8.828s-8.828-3.955-8.828-8.828
		c0-4.873,3.955-8.828,8.828-8.828S450.207,233.472,450.207,238.345"/>
	<path style="fill:#617186;" d="M485.517,238.345c0,4.873-3.955,8.828-8.828,8.828c-4.873,0-8.828-3.955-8.828-8.828
		c0-4.873,3.955-8.828,8.828-8.828C481.562,229.517,485.517,233.472,485.517,238.345"/>
</g>
<g>
</g>
<g>
</g>
<g>
</g>
<g>
</g>
<g>
</g>
<g>
</g>
<g>
</g>
<g>
</g>
<g>
</g>
<g>
</g>
<g>
</g>
<g>
</g>
<g>
</g>
<g>
</g>
<g>
</g>
</svg>
