<?xml version="1.0" encoding="iso-8859-1"?>
<!-- Generator: Adobe Illustrator 19.0.0, SVG Export Plug-In . SVG Version: 6.00 Build 0)  -->
<svg version="1.1" id="Layer_1" xmlns="http://www.w3.org/2000/svg" xmlns:xlink="http://www.w3.org/1999/xlink" x="0px" y="0px"
	 viewBox="0 0 512.003 512.003" style="enable-background:new 0 0 512.003 512.003;" xml:space="preserve">
<g>
	<path style="fill:#97989A;" d="M256.001,141.244c-2.366,0-4.723-0.945-6.462-2.816c-3.319-3.566-3.116-9.145,0.45-12.473
		L382.766,2.369c3.558-3.31,9.154-3.125,12.473,0.45c3.319,3.566,3.116,9.145-0.45,12.473L262.013,138.879
		C260.318,140.459,258.155,141.244,256.001,141.244"/>
	<path style="fill:#97989A;" d="M256.001,141.244c-2.163,0-4.326-0.786-6.02-2.375L117.567,15.284
		c-3.566-3.328-3.761-8.916-0.433-12.473c3.328-3.575,8.925-3.761,12.473-0.433l132.414,123.586
		c3.566,3.328,3.761,8.916,0.433,12.473C260.715,140.309,258.358,141.244,256.001,141.244"/>
</g>
<path style="fill:#485762;" d="M464.474,476.693H47.529c-26.253,0-47.528-21.274-47.528-47.528V232.91
	c0-26.253,21.274-47.528,47.528-47.528h416.945c26.244,0,47.528,21.274,47.528,47.528v196.255
	C512.001,455.418,490.718,476.693,464.474,476.693"/>
<g>
	<path style="fill:#2D3347;" d="M123.588,512.003H70.622c-4.873,0-8.828-3.955-8.828-8.828v-26.483h70.621v26.483
		C132.415,508.048,128.461,512.003,123.588,512.003"/>
	<path style="fill:#2D3347;" d="M441.363,512.003h-52.921c-4.89,0-8.854-3.964-8.854-8.845v-26.465h70.621v26.465
		C450.208,508.039,446.254,512.003,441.363,512.003"/>
	<path style="fill:#2D3347;" d="M52.967,361.934c0,4.873-3.955,8.828-8.828,8.828s-8.828-3.955-8.828-8.828
		c0-4.873,3.955-8.828,8.828-8.828S52.967,357.061,52.967,361.934"/>
	<path style="fill:#2D3347;" d="M88.277,361.934c0,4.873-3.955,8.828-8.828,8.828c-4.873,0-8.828-3.955-8.828-8.828
		c0-4.873,3.955-8.828,8.828-8.828C84.323,353.106,88.277,357.061,88.277,361.934"/>
	<path style="fill:#2D3347;" d="M123.588,361.934c0,4.873-3.955,8.828-8.828,8.828s-8.828-3.955-8.828-8.828
		c0-4.873,3.955-8.828,8.828-8.828S123.588,357.061,123.588,361.934"/>
	<path style="fill:#2D3347;" d="M123.588,397.244c0,4.873-3.955,8.828-8.828,8.828s-8.828-3.955-8.828-8.828
		s3.955-8.828,8.828-8.828S123.588,392.372,123.588,397.244"/>
	<path style="fill:#2D3347;" d="M88.277,397.244c0,4.873-3.955,8.828-8.828,8.828c-4.873,0-8.828-3.955-8.828-8.828
		s3.955-8.828,8.828-8.828C84.323,388.417,88.277,392.372,88.277,397.244"/>
	<path style="fill:#2D3347;" d="M52.967,397.244c0,4.873-3.955,8.828-8.828,8.828s-8.828-3.955-8.828-8.828s3.955-8.828,8.828-8.828
		S52.967,392.372,52.967,397.244"/>
	<path style="fill:#2D3347;" d="M52.967,432.555c0,4.873-3.955,8.828-8.828,8.828s-8.828-3.955-8.828-8.828
		c0-4.873,3.955-8.828,8.828-8.828S52.967,427.682,52.967,432.555"/>
	<path style="fill:#2D3347;" d="M88.277,432.555c0,4.873-3.955,8.828-8.828,8.828c-4.873,0-8.828-3.955-8.828-8.828
		c0-4.873,3.955-8.828,8.828-8.828C84.323,423.727,88.277,427.682,88.277,432.555"/>
	<path style="fill:#2D3347;" d="M123.588,432.555c0,4.873-3.955,8.828-8.828,8.828s-8.828-3.955-8.828-8.828
		c0-4.873,3.955-8.828,8.828-8.828S123.588,427.682,123.588,432.555"/>
	<path style="fill:#2D3347;" d="M406.07,361.934c0,4.873-3.955,8.828-8.828,8.828c-4.873,0-8.828-3.955-8.828-8.828
		c0-4.873,3.955-8.828,8.828-8.828C402.116,353.106,406.07,357.061,406.07,361.934"/>
	<path style="fill:#2D3347;" d="M441.381,361.934c0,4.873-3.955,8.828-8.828,8.828c-4.873,0-8.828-3.955-8.828-8.828
		c0-4.873,3.955-8.828,8.828-8.828C437.426,353.106,441.381,357.061,441.381,361.934"/>
	<path style="fill:#2D3347;" d="M476.691,361.934c0,4.873-3.955,8.828-8.828,8.828s-8.828-3.955-8.828-8.828
		c0-4.873,3.955-8.828,8.828-8.828S476.691,357.061,476.691,361.934"/>
	<path style="fill:#2D3347;" d="M476.691,397.244c0,4.873-3.955,8.828-8.828,8.828s-8.828-3.955-8.828-8.828
		s3.955-8.828,8.828-8.828S476.691,392.372,476.691,397.244"/>
	<path style="fill:#2D3347;" d="M441.381,397.244c0,4.873-3.955,8.828-8.828,8.828c-4.873,0-8.828-3.955-8.828-8.828
		s3.955-8.828,8.828-8.828C437.426,388.417,441.381,392.372,441.381,397.244"/>
	<path style="fill:#2D3347;" d="M406.07,397.244c0,4.873-3.955,8.828-8.828,8.828c-4.873,0-8.828-3.955-8.828-8.828
		s3.955-8.828,8.828-8.828C402.116,388.417,406.07,392.372,406.07,397.244"/>
	<path style="fill:#2D3347;" d="M406.07,432.555c0,4.873-3.955,8.828-8.828,8.828c-4.873,0-8.828-3.955-8.828-8.828
		c0-4.873,3.955-8.828,8.828-8.828C402.116,423.727,406.07,427.682,406.07,432.555"/>
	<path style="fill:#2D3347;" d="M441.381,432.555c0,4.873-3.955,8.828-8.828,8.828c-4.873,0-8.828-3.955-8.828-8.828
		c0-4.873,3.955-8.828,8.828-8.828C437.426,423.727,441.381,427.682,441.381,432.555"/>
	<path style="fill:#2D3347;" d="M476.691,432.555c0,4.873-3.955,8.828-8.828,8.828s-8.828-3.955-8.828-8.828
		c0-4.873,3.955-8.828,8.828-8.828S476.691,427.682,476.691,432.555"/>
</g>
<polygon style="fill:#A2CD14;" points="141.243,317.796 370.76,317.796 370.76,229.52 141.243,229.52 "/>
<path style="fill:#CDCFCF;" d="M291.312,397.244c0,19.5-15.81,35.31-35.31,35.31s-35.31-15.81-35.31-35.31s15.81-35.31,35.31-35.31
	S291.312,377.744,291.312,397.244"/>
<path style="fill:#2D3347;" d="M352.204,185.382c-16.746-36.44-53.477-61.793-96.203-61.793c-42.734,0-79.466,25.353-96.212,61.793
	H352.204z"/>
<g>
	<path style="fill:#BAD861;" d="M203.036,264.831c4.873,0,8.828-3.955,8.828-8.828V229.52h-17.655v26.483
		C194.208,260.876,198.163,264.831,203.036,264.831"/>
	<path style="fill:#BAD861;" d="M308.967,264.831c4.873,0,8.828-3.955,8.828-8.828V229.52h-17.655v26.483
		C300.139,260.876,304.094,264.831,308.967,264.831"/>
	<path style="fill:#BAD861;" d="M326.622,282.486c-4.873,0-8.828,3.955-8.828,8.828v26.483h17.655v-26.483
		C335.45,286.441,331.495,282.486,326.622,282.486"/>
	<path style="fill:#BAD861;" d="M291.312,282.486c-4.873,0-8.828,3.955-8.828,8.828v26.483h17.655v-26.483
		C300.139,286.441,296.185,282.486,291.312,282.486"/>
	<path style="fill:#BAD861;" d="M256.001,282.486c-4.873,0-8.828,3.955-8.828,8.828v26.483h17.655v-26.483
		C264.829,286.441,260.874,282.486,256.001,282.486"/>
	<path style="fill:#BAD861;" d="M220.691,282.486c-4.873,0-8.828,3.955-8.828,8.828v26.483h17.655v-26.483
		C229.519,286.441,225.564,282.486,220.691,282.486"/>
	<path style="fill:#BAD861;" d="M185.381,282.486c-4.873,0-8.828,3.955-8.828,8.828v26.483h17.655v-26.483
		C194.208,286.441,190.254,282.486,185.381,282.486"/>
</g>
<path style="fill:#ECF1F1;" d="M226.049,415.747c3.151,5.094,7.556,9.242,12.782,12.173l47.492-48.499
	c-3.037-5.164-7.318-9.437-12.473-12.482L226.049,415.747z"/>
<g>
</g>
<g>
</g>
<g>
</g>
<g>
</g>
<g>
</g>
<g>
</g>
<g>
</g>
<g>
</g>
<g>
</g>
<g>
</g>
<g>
</g>
<g>
</g>
<g>
</g>
<g>
</g>
<g>
</g>
</svg>
