<?xml version="1.0" encoding="iso-8859-1"?>
<!-- Generator: Adobe Illustrator 19.0.0, SVG Export Plug-In . SVG Version: 6.00 Build 0)  -->
<svg version="1.1" id="Layer_1" xmlns="http://www.w3.org/2000/svg" xmlns:xlink="http://www.w3.org/1999/xlink" x="0px" y="0px"
	 viewBox="0 0 512.002 512.002" style="enable-background:new 0 0 512.002 512.002;" xml:space="preserve">
<path style="fill:#617186;" d="M79.449,211.864c-2.26,0-4.52-0.865-6.241-2.586c-3.452-3.452-3.452-9.031,0-12.482L267.415,2.589
	c3.452-3.452,9.031-3.452,12.482,0c3.452,3.452,3.452,9.031,0,12.482L85.69,209.278C83.969,210.999,81.709,211.864,79.449,211.864"
	/>
<path style="fill:#F8D799;" d="M464.473,476.692H47.529c-26.253,0-47.528-21.275-47.528-47.528V241.737
	c0-26.253,21.274-47.528,47.528-47.528h416.945c26.244,0,47.528,21.274,47.528,47.528v187.427
	C512.001,455.417,490.718,476.692,464.473,476.692"/>
<g>
	<path style="fill:#617186;" d="M123.587,512.002H70.622c-4.873,0-8.828-3.955-8.828-8.828v-26.483h70.621v26.483
		C132.415,508.047,128.46,512.002,123.587,512.002"/>
	<path style="fill:#617186;" d="M441.363,512.002h-52.921c-4.891,0-8.854-3.964-8.854-8.845v-26.465h70.621v26.465
		C450.208,508.039,446.253,512.002,441.363,512.002"/>
	<path style="fill:#617186;" d="M432.553,194.209h-35.31v-26.483c0-9.754,7.901-17.655,17.655-17.655s17.655,7.901,17.655,17.655
		V194.209z"/>
	<path style="fill:#617186;" d="M132.415,388.416c0,24.373-19.765,44.138-44.138,44.138s-44.138-19.765-44.138-44.138
		s19.765-44.138,44.138-44.138S132.415,364.043,132.415,388.416"/>
</g>
<path style="fill:#FFFFFF;" d="M97.105,388.416c0,4.873-3.955,8.828-8.828,8.828c-4.873,0-8.828-3.955-8.828-8.828
	s3.955-8.828,8.828-8.828C93.15,379.588,97.105,383.543,97.105,388.416"/>
<path style="fill:#617186;" d="M467.863,388.416c0,24.373-19.765,44.138-44.138,44.138c-24.373,0-44.138-19.765-44.138-44.138
	s19.765-44.138,44.138-44.138C448.098,344.278,467.863,364.043,467.863,388.416"/>
<g>
	<path style="fill:#FFFFFF;" d="M432.553,388.416c0,4.873-3.955,8.828-8.828,8.828c-4.873,0-8.828-3.955-8.828-8.828
		s3.955-8.828,8.828-8.828C428.598,379.588,432.553,383.543,432.553,388.416"/>
	<path style="fill:#FFFFFF;" d="M441.266,308.968H70.728c-9.807,0-17.761-7.954-17.761-17.77v-35.081
		c0-9.816,7.954-17.77,17.761-17.77h370.538c9.807,0,17.77,7.954,17.77,17.77v35.081
		C459.036,301.014,451.073,308.968,441.266,308.968"/>
</g>
<g>
	<path style="fill:#617186;" d="M326.622,370.761H185.38c-4.873,0-8.828-3.955-8.828-8.828s3.955-8.828,8.828-8.828h141.241
		c4.873,0,8.828,3.955,8.828,8.828S331.495,370.761,326.622,370.761"/>
	<path style="fill:#617186;" d="M211.863,388.416c-4.873,0-8.828-3.955-8.828-8.828v-35.31c0-4.873,3.955-8.828,8.828-8.828
		c4.873,0,8.828,3.955,8.828,8.828v35.31C220.691,384.461,216.736,388.416,211.863,388.416"/>
	<path style="fill:#617186;" d="M326.622,432.554H185.38c-4.873,0-8.828-3.955-8.828-8.828c0-4.873,3.955-8.828,8.828-8.828h141.241
		c4.873,0,8.828,3.955,8.828,8.828C335.449,428.599,331.495,432.554,326.622,432.554"/>
	<path style="fill:#617186;" d="M300.139,450.209c-4.873,0-8.828-3.955-8.828-8.828v-35.31c0-4.873,3.955-8.828,8.828-8.828
		c4.873,0,8.828,3.955,8.828,8.828v35.31C308.967,446.254,305.012,450.209,300.139,450.209"/>
	<path style="fill:#617186;" d="M370.76,264.83c-4.873,0-8.828,3.955-8.828,8.828v35.31h17.655v-35.31
		C379.587,268.785,375.633,264.83,370.76,264.83"/>
	<path style="fill:#617186;" d="M317.794,282.485c-4.873,0-8.828,3.955-8.828,8.828v17.655h17.655v-17.655
		C326.622,286.44,322.667,282.485,317.794,282.485"/>
	<path style="fill:#617186;" d="M264.829,264.83c-4.873,0-8.828,3.955-8.828,8.828v35.31h17.655v-35.31
		C273.656,268.785,269.702,264.83,264.829,264.83"/>
	<path style="fill:#617186;" d="M211.863,282.485c-4.873,0-8.828,3.955-8.828,8.828v17.655h17.655v-17.655
		C220.691,286.44,216.736,282.485,211.863,282.485"/>
	<path style="fill:#617186;" d="M158.898,264.83c-4.873,0-8.828,3.955-8.828,8.828v35.31h17.655v-35.31
		C167.725,268.785,163.77,264.83,158.898,264.83"/>
	<path style="fill:#617186;" d="M105.932,282.485c-4.873,0-8.828,3.955-8.828,8.828v17.655h17.655v-17.655
		C114.76,286.44,110.805,282.485,105.932,282.485"/>
</g>
<g>
</g>
<g>
</g>
<g>
</g>
<g>
</g>
<g>
</g>
<g>
</g>
<g>
</g>
<g>
</g>
<g>
</g>
<g>
</g>
<g>
</g>
<g>
</g>
<g>
</g>
<g>
</g>
<g>
</g>
</svg>
