<?xml version="1.0" encoding="iso-8859-1"?>
<!-- Generator: Adobe Illustrator 19.0.0, SVG Export Plug-In . SVG Version: 6.00 Build 0)  -->
<svg version="1.1" id="Layer_1" xmlns="http://www.w3.org/2000/svg" xmlns:xlink="http://www.w3.org/1999/xlink" x="0px" y="0px"
	 viewBox="0 0 512.002 512.002" style="enable-background:new 0 0 512.002 512.002;" xml:space="preserve">
<path style="fill:#97989A;" d="M97.105,176.554c-2.26,0-4.52-0.865-6.241-2.586c-3.452-3.452-3.452-9.031,0-12.482L249.76,2.589
	c3.452-3.452,9.031-3.452,12.482,0c3.452,3.452,3.452,9.031,0,12.482L103.346,173.967
	C101.624,175.689,99.364,176.554,97.105,176.554"/>
<path style="fill:#D8DCDC;" d="M429.163,476.692H47.529c-26.253,0-47.528-21.275-47.528-47.528V241.737
	c0-26.253,21.274-47.528,47.528-47.528h381.634c26.244,0,47.528,21.274,47.528,47.528v187.427
	C476.691,455.417,455.407,476.692,429.163,476.692"/>
<g>
	<path style="fill:#4F4F50;" d="M123.587,512.002h-35.31c-4.873,0-8.828-3.955-8.828-8.828v-26.483h52.966v26.483
		C132.415,508.047,128.46,512.002,123.587,512.002"/>
	<path style="fill:#4F4F50;" d="M388.415,512.002h-35.293c-4.882,0-8.845-3.964-8.845-8.845v-26.465h52.983v26.465
		C397.26,508.039,393.305,512.002,388.415,512.002"/>
	<path style="fill:#4F4F50;" d="M498.045,317.795h-21.354V264.83h21.354c7.706,0,13.956,6.25,13.956,13.956v25.053
		C512.001,311.545,505.751,317.795,498.045,317.795"/>
	<path style="fill:#4F4F50;" d="M498.045,406.071h-21.354v-52.966h21.354c7.706,0,13.956,6.25,13.956,13.956v25.053
		C512.001,399.821,505.751,406.071,498.045,406.071"/>
</g>
<path style="fill:#97989A;" d="M404.649,423.726h-50.132c-10.531,0-19.068-8.536-19.068-19.076V266.251
	c0-10.54,8.536-19.076,19.068-19.076h50.132c10.531,0,19.076,8.536,19.076,19.076V404.65
	C423.725,415.19,415.18,423.726,404.649,423.726"/>
<g>
	<polygon style="fill:#4F4F50;" points="335.449,291.313 423.725,291.313 423.725,273.657 335.449,273.657 	"/>
	<polygon style="fill:#4F4F50;" points="335.449,326.623 423.725,326.623 423.725,308.968 335.449,308.968 	"/>
	<polygon style="fill:#4F4F50;" points="335.449,361.933 423.725,361.933 423.725,344.278 335.449,344.278 	"/>
	<polygon style="fill:#4F4F50;" points="335.449,397.244 423.725,397.244 423.725,379.588 335.449,379.588 	"/>
</g>
<polygon style="fill:#F9D25D;" points="52.967,300.14 105.932,300.14 105.932,247.175 52.967,247.175 "/>
<polygon style="fill:#FE6E67;" points="52.967,353.106 105.932,353.106 105.932,300.14 52.967,300.14 "/>
<polygon style="fill:#57CCBD;" points="52.967,406.071 105.932,406.071 105.932,353.106 52.967,353.106 "/>
<path style="fill:#4F4F50;" d="M97.105,158.899c-19.5,0-35.31,15.81-35.31,35.31h70.621
	C132.415,174.709,116.605,158.899,97.105,158.899"/>
<g>
	<path style="fill:#97989A;" d="M211.863,291.313c-4.873,0-8.828-3.955-8.828-8.828v-44.138c0-4.873,3.955-8.828,8.828-8.828
		c4.873,0,8.828,3.955,8.828,8.828v44.138C220.691,287.358,216.736,291.313,211.863,291.313"/>
	<path style="fill:#97989A;" d="M211.863,432.554c-4.873,0-8.828-3.955-8.828-8.828V317.795c0-4.873,3.955-8.828,8.828-8.828
		c4.873,0,8.828,3.955,8.828,8.828v105.931C220.691,428.599,216.736,432.554,211.863,432.554"/>
</g>
<polygon style="fill:#4F4F50;" points="185.38,317.795 238.346,317.795 238.346,282.485 185.38,282.485 "/>
<g>
</g>
<g>
</g>
<g>
</g>
<g>
</g>
<g>
</g>
<g>
</g>
<g>
</g>
<g>
</g>
<g>
</g>
<g>
</g>
<g>
</g>
<g>
</g>
<g>
</g>
<g>
</g>
<g>
</g>
</svg>
