<?xml version="1.0" encoding="iso-8859-1"?>
<!-- Generator: Adobe Illustrator 19.0.0, SVG Export Plug-In . SVG Version: 6.00 Build 0)  -->
<svg version="1.1" id="Layer_1" xmlns="http://www.w3.org/2000/svg" xmlns:xlink="http://www.w3.org/1999/xlink" x="0px" y="0px"
	 viewBox="0 0 512 512" style="enable-background:new 0 0 512 512;" xml:space="preserve">
<g>
	<path style="fill:#B5C3E8;" d="M256,132.308c-4.882,0-8.828-3.955-8.828-8.828v-17.655c0-4.873,3.946-8.828,8.828-8.828
		s8.828,3.955,8.828,8.828v17.655C264.828,128.353,260.882,132.308,256,132.308"/>
	<path style="fill:#B5C3E8;" d="M291.31,132.308c-4.882,0-8.828-3.955-8.828-8.828v-17.655c0-4.873,3.946-8.828,8.828-8.828
		c4.882,0,8.828,3.955,8.828,8.828v17.655C300.138,128.353,296.192,132.308,291.31,132.308"/>
</g>
<path style="fill:#8697CB;" d="M476.69,423.724H35.31c-19.5,0-35.31-15.81-35.31-35.31V158.897c0-19.5,15.81-35.31,35.31-35.31
	H476.69c19.5,0,35.31,15.81,35.31,35.31v229.517C512,407.914,496.19,423.724,476.69,423.724"/>
<path style="fill:#B5C3E8;" d="M406.069,423.724H35.31c-19.5,0-35.31-15.81-35.31-35.31V194.207h370.759
	c19.5,0,35.31,15.81,35.31,35.31V423.724z"/>
<path style="fill:#F0C419;" d="M114.759,123.586H44.138v-17.655c0-9.754,7.901-17.655,17.655-17.655h35.31
	c9.754,0,17.655,7.901,17.655,17.655V123.586z"/>
<path style="fill:#4FBA6F;" d="M220.69,123.586h-70.621v-17.655c0-9.754,7.901-17.655,17.655-17.655h35.31
	c9.754,0,17.655,7.901,17.655,17.655V123.586z"/>
<path style="fill:#8697CB;" d="M326.621,379.586H79.448c-19.5,0-35.31-15.81-35.31-35.31v-70.621c0-19.5,15.81-35.31,35.31-35.31
	h247.172c19.5,0,35.31,15.81,35.31,35.31v70.621C361.931,363.776,346.121,379.586,326.621,379.586"/>
<path style="fill:#FFFFFF;" d="M229.517,317.793h-52.966c-4.882,0-8.828-3.955-8.828-8.828s3.946-8.828,8.828-8.828h52.966
	c4.882,0,8.828,3.955,8.828,8.828S234.399,317.793,229.517,317.793"/>
<g>
	<path style="fill:#B5C3E8;" d="M467.862,361.931h-17.655c-4.873,0-8.828-3.955-8.828-8.828v-17.655
		c0-4.873,3.955-8.828,8.828-8.828h17.655c4.873,0,8.828,3.955,8.828,8.828v17.655C476.69,357.976,472.735,361.931,467.862,361.931"
		/>
	<path style="fill:#B5C3E8;" d="M467.862,291.31h-17.655c-4.873,0-8.828-3.955-8.828-8.828v-17.655c0-4.873,3.955-8.828,8.828-8.828
		h17.655c4.873,0,8.828,3.955,8.828,8.828v17.655C476.69,287.356,472.735,291.31,467.862,291.31"/>
	<path style="fill:#B5C3E8;" d="M467.862,220.69h-17.655c-4.873,0-8.828-3.955-8.828-8.828v-17.655c0-4.873,3.955-8.828,8.828-8.828
		h17.655c4.873,0,8.828,3.955,8.828,8.828v17.655C476.69,216.735,472.735,220.69,467.862,220.69"/>
</g>
<g>
	<path style="fill:#FFFFFF;" d="M300.138,326.621h-17.655c-4.873,0-8.828-3.955-8.828-8.828v-17.655
		c0-4.873,3.955-8.828,8.828-8.828h17.655c4.873,0,8.828,3.955,8.828,8.828v17.655C308.966,322.666,305.011,326.621,300.138,326.621
		"/>
	<path style="fill:#FFFFFF;" d="M123.586,326.621h-17.655c-4.873,0-8.828-3.955-8.828-8.828v-17.655
		c0-4.873,3.955-8.828,8.828-8.828h17.655c4.873,0,8.828,3.955,8.828,8.828v17.655C132.414,322.666,128.459,326.621,123.586,326.621
		"/>
</g>
<g>
</g>
<g>
</g>
<g>
</g>
<g>
</g>
<g>
</g>
<g>
</g>
<g>
</g>
<g>
</g>
<g>
</g>
<g>
</g>
<g>
</g>
<g>
</g>
<g>
</g>
<g>
</g>
<g>
</g>
</svg>
