<?xml version="1.0" encoding="iso-8859-1"?>
<!-- Generator: Adobe Illustrator 19.0.0, SVG Export Plug-In . SVG Version: 6.00 Build 0)  -->
<svg version="1.1" id="Layer_1" xmlns="http://www.w3.org/2000/svg" xmlns:xlink="http://www.w3.org/1999/xlink" x="0px" y="0px"
	 viewBox="0 0 512 512" style="enable-background:new 0 0 512 512;" xml:space="preserve">
<path style="fill:#485762;" d="M507.661,347.119H4.339V34.712C4.339,15.542,19.881,0,39.051,0h433.898
	c19.17,0,34.712,15.542,34.712,34.712V347.119z"/>
<path style="fill:#4FBA6F;" d="M342.78,95.458h-95.458c-4.79,0-8.678-3.879-8.678-8.678s3.888-8.678,8.678-8.678h95.458
	c4.79,0,8.678,3.879,8.678,8.678S347.57,95.458,342.78,95.458"/>
<path style="fill:#8697CB;" d="M464.271,95.458h-86.78c-4.79,0-8.678-3.879-8.678-8.678s3.888-8.678,8.678-8.678h86.78
	c4.799,0,8.678,3.879,8.678,8.678S469.07,95.458,464.271,95.458"/>
<path style="fill:#E64C3C;" d="M394.847,138.847H247.322c-4.79,0-8.678-3.879-8.678-8.678s3.888-8.678,8.678-8.678h147.525
	c4.79,0,8.678,3.879,8.678,8.678S399.638,138.847,394.847,138.847"/>
<path style="fill:#F0C419;" d="M464.271,138.847h-34.712c-4.799,0-8.678-3.879-8.678-8.678s3.879-8.678,8.678-8.678h34.712
	c4.799,0,8.678,3.879,8.678,8.678S469.07,138.847,464.271,138.847"/>
<path style="fill:#E64C3C;" d="M394.847,52.068H247.322c-4.79,0-8.678-3.879-8.678-8.678s3.888-8.678,8.678-8.678h147.525
	c4.79,0,8.678,3.879,8.678,8.678S399.638,52.068,394.847,52.068"/>
<path style="fill:#F0C419;" d="M464.271,52.068h-34.712c-4.799,0-8.678-3.879-8.678-8.678s3.879-8.678,8.678-8.678h34.712
	c4.799,0,8.678,3.879,8.678,8.678S469.07,52.068,464.271,52.068"/>
<path style="fill:#4FBA6F;" d="M342.78,269.017h-95.458c-4.79,0-8.678-3.879-8.678-8.678s3.888-8.678,8.678-8.678h95.458
	c4.79,0,8.678,3.879,8.678,8.678S347.57,269.017,342.78,269.017"/>
<path style="fill:#8697CB;" d="M464.271,269.017h-86.78c-4.79,0-8.678-3.879-8.678-8.678s3.888-8.678,8.678-8.678h86.78
	c4.799,0,8.678,3.879,8.678,8.678S469.07,269.017,464.271,269.017"/>
<path style="fill:#F0C419;" d="M342.78,182.237h-95.458c-4.79,0-8.678-3.879-8.678-8.678c0-4.799,3.888-8.678,8.678-8.678h95.458
	c4.79,0,8.678,3.879,8.678,8.678C351.458,178.358,347.57,182.237,342.78,182.237"/>
<g>
	<path style="fill:#8697CB;" d="M464.271,182.237h-86.78c-4.79,0-8.678-3.879-8.678-8.678c0-4.799,3.888-8.678,8.678-8.678h86.78
		c4.799,0,8.678,3.879,8.678,8.678C472.949,178.358,469.07,182.237,464.271,182.237"/>
	<path style="fill:#8697CB;" d="M299.39,225.627H256c-4.79,0-8.678-3.879-8.678-8.678c0-4.799,3.888-8.678,8.678-8.678h43.39
		c4.79,0,8.678,3.879,8.678,8.678C308.068,221.748,304.18,225.627,299.39,225.627"/>
</g>
<path style="fill:#F0C419;" d="M464.271,225.627H334.102c-4.79,0-8.678-3.879-8.678-8.678c0-4.799,3.888-8.678,8.678-8.678h130.169
	c4.799,0,8.678,3.879,8.678,8.678C472.949,221.748,469.07,225.627,464.271,225.627"/>
<polygon style="fill:#8697CB;" points="47.729,173.559 203.932,173.559 203.932,43.39 47.729,43.39 "/>
<path style="fill:#4FBA6F;" d="M151.864,225.627H47.729c-4.79,0-8.678-3.879-8.678-8.678c0-4.799,3.888-8.678,8.678-8.678h104.136
	c4.79,0,8.678,3.879,8.678,8.678C160.542,221.748,156.655,225.627,151.864,225.627"/>
<path style="fill:#E64C3C;" d="M221.288,225.627h-34.712c-4.79,0-8.678-3.879-8.678-8.678c0-4.799,3.888-8.678,8.678-8.678h34.712
	c4.79,0,8.678,3.879,8.678,8.678C229.966,221.748,226.078,225.627,221.288,225.627"/>
<path style="fill:#F0C419;" d="M394.847,312.407H256c-4.79,0-8.678-3.879-8.678-8.678s3.888-8.678,8.678-8.678h138.847
	c4.79,0,8.678,3.879,8.678,8.678S399.638,312.407,394.847,312.407"/>
<path style="fill:#4FBA6F;" d="M464.271,312.407h-34.712c-4.799,0-8.678-3.879-8.678-8.678s3.879-8.678,8.678-8.678h34.712
	c4.799,0,8.678,3.879,8.678,8.678S469.07,312.407,464.271,312.407"/>
<path style="fill:#E64C3C;" d="M151.864,312.407H47.729c-4.79,0-8.678-3.879-8.678-8.678s3.888-8.678,8.678-8.678h104.136
	c4.79,0,8.678,3.879,8.678,8.678S156.655,312.407,151.864,312.407"/>
<path style="fill:#8697CB;" d="M221.288,312.407h-34.712c-4.79,0-8.678-3.879-8.678-8.678s3.888-8.678,8.678-8.678h34.712
	c4.79,0,8.678,3.879,8.678,8.678S226.078,312.407,221.288,312.407"/>
<path style="fill:#E64C3C;" d="M73.763,269.017H47.729c-4.79,0-8.678-3.879-8.678-8.678s3.888-8.678,8.678-8.678h26.034
	c4.79,0,8.678,3.879,8.678,8.678S78.553,269.017,73.763,269.017"/>
<path style="fill:#F0C419;" d="M212.61,269.017H108.475c-4.79,0-8.678-3.879-8.678-8.678s3.888-8.678,8.678-8.678H212.61
	c4.79,0,8.678,3.879,8.678,8.678S217.4,269.017,212.61,269.017"/>
<polygon style="fill:#BDC3C7;" points="334.102,503.322 177.898,503.322 203.932,416.542 308.068,416.542 "/>
<g>
	<path style="fill:#ECF1F1;" d="M351.458,512H160.542c-4.79,0-8.678-3.879-8.678-8.678c0-4.799,3.888-8.678,8.678-8.678h190.915
		c4.79,0,8.678,3.879,8.678,8.678C360.136,508.121,356.248,512,351.458,512"/>
	<path style="fill:#ECF1F1;" d="M472.949,416.542H39.051c-19.17,0-34.712-15.542-34.712-34.712v-34.712h503.322v34.712
		C507.661,401,492.119,416.542,472.949,416.542"/>
</g>
<g>
</g>
<g>
</g>
<g>
</g>
<g>
</g>
<g>
</g>
<g>
</g>
<g>
</g>
<g>
</g>
<g>
</g>
<g>
</g>
<g>
</g>
<g>
</g>
<g>
</g>
<g>
</g>
<g>
</g>
</svg>
