<?xml version="1.0" encoding="iso-8859-1"?>
<!-- Generator: Adobe Illustrator 19.0.0, SVG Export Plug-In . SVG Version: 6.00 Build 0)  -->
<svg version="1.1" id="Layer_1" xmlns="http://www.w3.org/2000/svg" xmlns:xlink="http://www.w3.org/1999/xlink" x="0px" y="0px"
	 viewBox="0 0 512 512" style="enable-background:new 0 0 512 512;" xml:space="preserve">
<path style="fill:#ECF1F1;" d="M494.345,388.414H17.655C7.901,388.414,0,380.513,0,370.759V17.655C0,7.901,7.901,0,17.655,0h476.69
	C504.099,0,512,7.901,512,17.655v353.103C512,380.513,504.099,388.414,494.345,388.414"/>
<path style="fill:#B2BCBD;" d="M194.79,476.69l22.705-52.966h77.012l22.705,52.966H194.79z M317.793,388.414H194.207L141.241,512
	h229.517L317.793,388.414z"/>
<path style="fill:#485762;" d="M459.034,353.103H52.966c-9.754,0-17.655-7.901-17.655-17.655V52.966
	c0-9.754,7.901-17.655,17.655-17.655h406.069c9.754,0,17.655,7.901,17.655,17.655v282.483
	C476.69,345.203,468.789,353.103,459.034,353.103"/>
<path style="fill:#8697CB;" d="M317.793,194.207c0,68.255-55.331,123.586-123.586,123.586S70.621,262.462,70.621,194.207
	S125.952,70.621,194.207,70.621S317.793,125.952,317.793,194.207"/>
<g>
	<path style="fill:#556080;" d="M194.207,326.621c-73.013,0-132.414-59.401-132.414-132.414S121.194,61.793,194.207,61.793
		s132.414,59.401,132.414,132.414S267.22,326.621,194.207,326.621z M194.207,79.448c-63.276,0-114.759,51.482-114.759,114.759
		s51.482,114.759,114.759,114.759s114.759-51.482,114.759-114.759S257.483,79.448,194.207,79.448z"/>
	<path style="fill:#556080;" d="M195.09,326.621c-37.42,0-71.503-63.108-71.503-132.414S157.67,61.793,195.09,61.793
		s71.503,63.108,71.503,132.414S232.51,326.621,195.09,326.621z M195.09,79.448c-21.177,0-53.848,49.284-53.848,114.759
		s32.671,114.759,53.848,114.759s53.848-49.284,53.848-114.759S216.276,79.448,195.09,79.448z"/>
	<path style="fill:#556080;" d="M317.793,203.034H70.621c-4.873,0-8.828-3.955-8.828-8.828s3.955-8.828,8.828-8.828h247.172
		c4.882,0,8.828,3.955,8.828,8.828S322.675,203.034,317.793,203.034z"/>
</g>
<g>
	<path style="fill:#26B999;" d="M406.069,114.759c-2.26,0-4.52-0.865-6.241-2.586l-17.655-17.655c-3.452-3.452-3.452-9.031,0-12.482
		c3.452-3.452,9.031-3.452,12.482,0L412.31,99.69c3.452,3.452,3.452,9.031,0,12.482
		C410.589,113.894,408.329,114.759,406.069,114.759"/>
	<path style="fill:#26B999;" d="M406.069,114.759c-2.26,0-4.52-0.865-6.241-2.586c-3.452-3.452-3.452-9.031,0-12.482l35.31-35.31
		c3.452-3.452,9.031-3.452,12.482,0c3.452,3.452,3.452,9.031,0,12.482l-35.31,35.31
		C410.589,113.894,408.329,114.759,406.069,114.759"/>
	<path style="fill:#26B999;" d="M406.069,211.862c-2.26,0-4.52-0.865-6.241-2.586l-17.655-17.655c-3.452-3.452-3.452-9.031,0-12.482
		c3.452-3.452,9.031-3.452,12.482,0l17.655,17.655c3.452,3.452,3.452,9.031,0,12.482
		C410.589,210.997,408.329,211.862,406.069,211.862"/>
	<path style="fill:#26B999;" d="M406.069,211.862c-2.26,0-4.52-0.865-6.241-2.586c-3.452-3.452-3.452-9.031,0-12.482l35.31-35.31
		c3.452-3.452,9.031-3.452,12.482,0c3.452,3.452,3.452,9.031,0,12.482l-35.31,35.31
		C410.589,210.997,408.329,211.862,406.069,211.862"/>
	<path style="fill:#26B999;" d="M406.069,317.793c-2.26,0-4.52-0.865-6.241-2.586l-17.655-17.655c-3.452-3.452-3.452-9.031,0-12.482
		c3.452-3.452,9.031-3.452,12.482,0l17.655,17.655c3.452,3.452,3.452,9.031,0,12.482
		C410.589,316.928,408.329,317.793,406.069,317.793"/>
	<path style="fill:#26B999;" d="M406.069,317.793c-2.26,0-4.52-0.865-6.241-2.586c-3.452-3.452-3.452-9.031,0-12.482l35.31-35.31
		c3.452-3.452,9.031-3.452,12.482,0c3.452,3.452,3.452,9.031,0,12.482l-35.31,35.31
		C410.589,316.928,408.329,317.793,406.069,317.793"/>
</g>
<path style="fill:#556080;" d="M194.207,326.621c-4.873,0-8.828-3.946-8.828-8.828V70.621c0-4.873,3.955-8.828,8.828-8.828
	s8.828,3.955,8.828,8.828v247.172C203.034,322.675,199.08,326.621,194.207,326.621z"/>
<g>
</g>
<g>
</g>
<g>
</g>
<g>
</g>
<g>
</g>
<g>
</g>
<g>
</g>
<g>
</g>
<g>
</g>
<g>
</g>
<g>
</g>
<g>
</g>
<g>
</g>
<g>
</g>
<g>
</g>
</svg>
