<?xml version="1.0" encoding="iso-8859-1"?>
<!-- Generator: Adobe Illustrator 19.0.0, SVG Export Plug-In . SVG Version: 6.00 Build 0)  -->
<svg version="1.1" id="Layer_1" xmlns="http://www.w3.org/2000/svg" xmlns:xlink="http://www.w3.org/1999/xlink" x="0px" y="0px"
	 viewBox="0 0 512 512" style="enable-background:new 0 0 512 512;" xml:space="preserve">
<path d="M99.797,295.051c-4.79,0-8.678-3.879-8.678-8.678V182.237c0-4.79,3.888-8.678,8.678-8.678s8.678,3.888,8.678,8.678v104.136
	C108.475,291.172,104.587,295.051,99.797,295.051z"/>
<path d="M65.085,225.627c-2.222,0-4.443-0.85-6.135-2.543c-3.393-3.393-3.393-8.878,0-12.271l57.153-57.153
	c3.393-3.393,8.878-3.393,12.271,0c3.393,3.393,3.393,8.878,0,12.271L71.22,223.084C69.528,224.777,67.306,225.627,65.085,225.627z"
	/>
<path d="M134.508,176.458c-5.085,0-9.858-1.979-13.451-5.571l-9.919-9.919c-3.593-3.584-5.58-8.357-5.58-13.451
	c0-5.085,1.987-9.858,5.58-13.451l9.919-9.91c7.168-7.185,19.716-7.194,26.902,0l9.91,9.919c3.593,3.584,5.58,8.357,5.58,13.442
	c0,5.085-1.987,9.867-5.58,13.46l-9.919,9.91C144.367,174.479,139.585,176.458,134.508,176.458z M134.508,135.94
	c-0.312,0-0.772,0.087-1.172,0.486l-9.928,9.928c-0.408,0.408-0.495,0.868-0.495,1.172c0,0.312,0.087,0.772,0.486,1.172l9.928,9.928
	c0.651,0.642,1.692,0.642,2.352,0l9.919-9.919c0.408-0.408,0.495-0.868,0.495-1.18c0-0.312-0.087-0.764-0.486-1.163l-9.928-9.928
	C135.272,136.027,134.821,135.94,134.508,135.94z"/>
<path d="M394.847,295.051c-4.799,0-8.678-3.879-8.678-8.678V182.237c0-4.79,3.879-8.678,8.678-8.678
	c4.799,0,8.678,3.888,8.678,8.678v104.136C403.525,291.172,399.646,295.051,394.847,295.051z"/>
<path d="M429.559,225.627c-2.222,0-4.443-0.85-6.135-2.543l-57.153-57.153c-3.393-3.393-3.393-8.878,0-12.271
	c3.393-3.393,8.878-3.393,12.271,0l57.153,57.153c3.393,3.393,3.393,8.878,0,12.271
	C434.002,224.777,431.781,225.627,429.559,225.627z"/>
<path d="M360.136,176.449c-4.868,0-9.737-1.848-13.442-5.554l-9.928-9.928c-3.593-3.584-5.58-8.357-5.58-13.451
	c0-5.085,1.987-9.858,5.589-13.451l9.91-9.91c3.593-3.593,8.374-5.58,13.451-5.58c0.009,0,0.009,0,0.017,0
	c5.077,0,9.849,1.987,13.442,5.58l9.91,9.919c3.593,3.575,5.589,8.357,5.589,13.442c0,5.085-1.987,9.876-5.597,13.46l-9.91,9.91l0,0
	C369.881,174.601,365.013,176.449,360.136,176.449z M360.136,135.94c-0.312,0-0.772,0.087-1.18,0.495l-9.919,9.919
	c-0.408,0.408-0.495,0.868-0.495,1.172c0,0.312,0.087,0.772,0.486,1.172l9.928,9.928c0.642,0.642,1.71,0.642,2.352,0l9.919-9.919
	c0.417-0.408,0.503-0.868,0.503-1.18c0-0.312-0.087-0.764-0.495-1.163l-9.928-9.936C360.908,136.027,360.448,135.949,360.136,135.94
	L360.136,135.94z"/>
<path style="fill:#485762;" d="M507.661,347.119H4.339V34.712C4.339,15.542,19.881,0,39.051,0h433.898
	c19.17,0,34.712,15.542,34.712,34.712V347.119z"/>
<path style="fill:#ECF1F1;" d="M472.949,416.542H39.051c-19.17,0-34.712-15.542-34.712-34.712v-34.712h503.322v34.712
	C507.661,401,492.119,416.542,472.949,416.542"/>
<polygon style="fill:#BDC3C7;" points="334.102,503.322 177.898,503.322 203.932,416.542 308.068,416.542 "/>
<path style="fill:#ECF1F1;" d="M351.458,512H160.542c-4.799,0-8.678-3.879-8.678-8.678c0-4.799,3.879-8.678,8.678-8.678h190.915
	c4.799,0,8.678,3.879,8.678,8.678C360.136,508.121,356.257,512,351.458,512"/>
<path style="fill:#FDC693;" d="M308.068,95.458c0,33.549-27.197,60.746-60.746,60.746s-60.746-27.197-60.746-60.746
	s27.197-60.746,60.746-60.746S308.068,61.909,308.068,95.458"/>
<path style="fill:#8697CB;" d="M284.88,174.514c-11.533,4.955-24.229,7.723-37.558,7.723c-13.338,0-26.025-2.768-37.567-7.723
	c-24.159,13.277-40.535,38.955-40.535,68.469v43.39h156.203v-43.39C325.424,213.469,309.04,187.791,284.88,174.514"/>
<polygon style="fill:#F0C419;" points="273.356,208.271 247.322,260.339 221.288,208.271 247.322,182.237 "/>
<polygon style="fill:#B66E30;" points="47.729,347.119 464.271,347.119 464.271,286.373 47.729,286.373 "/>
<path style="fill:#E64C3C;" d="M125.831,60.746H56.407c-4.799,0-8.678-3.879-8.678-8.678s3.879-8.678,8.678-8.678h69.424
	c4.799,0,8.678,3.879,8.678,8.678S130.629,60.746,125.831,60.746"/>
<path style="fill:#F0C419;" d="M91.119,95.458H56.407c-4.799,0-8.678-3.879-8.678-8.678s3.879-8.678,8.678-8.678h34.712
	c4.799,0,8.678,3.879,8.678,8.678S95.918,95.458,91.119,95.458"/>
<g>
</g>
<g>
</g>
<g>
</g>
<g>
</g>
<g>
</g>
<g>
</g>
<g>
</g>
<g>
</g>
<g>
</g>
<g>
</g>
<g>
</g>
<g>
</g>
<g>
</g>
<g>
</g>
<g>
</g>
</svg>
