<?xml version="1.0" encoding="iso-8859-1"?>
<!-- Generator: Adobe Illustrator 19.0.0, SVG Export Plug-In . SVG Version: 6.00 Build 0)  -->
<svg version="1.1" id="Layer_1" xmlns="http://www.w3.org/2000/svg" xmlns:xlink="http://www.w3.org/1999/xlink" x="0px" y="0px"
	 viewBox="0 0 512 512" style="enable-background:new 0 0 512 512;" xml:space="preserve">
<g transform="translate(1 1)">
	<path style="fill:#8697CB;" d="M297.667,395.8c0-56.55,45.85-102.4,102.4-102.4c28.919,0,54.98,12.032,73.6,31.309
		c7.586-23.305,11.733-48.145,11.733-73.975C485.4,118.774,378.426,11.8,246.467,11.8S7.533,118.774,7.533,250.733
		s106.974,238.933,238.933,238.933c30.643,0,59.904-5.828,86.827-16.341C311.508,454.552,297.667,426.819,297.667,395.8"/>
	<g>
		<path style="fill:#556080;" d="M246.467,498.2C110.01,498.2-1,387.181-1,250.733C-1,114.277,110.01,3.267,246.467,3.267
			c136.448,0,247.467,111.01,247.467,247.467c0,26.069-4.087,51.84-12.151,76.621l-4.395,13.491l-9.865-10.206
			c-17.869-18.517-41.83-28.706-67.456-28.706c-51.755,0-93.867,42.112-93.867,93.867c0,27.264,11.913,53.163,32.666,71.057
			l10.735,9.259l-13.201,5.154C307.642,492.508,277.383,498.2,246.467,498.2z M246.467,20.333c-127.044,0-230.4,103.356-230.4,230.4
			s103.356,230.4,230.4,230.4c24.311,0,48.179-3.78,71.134-11.247c-18.236-20.267-28.467-46.583-28.467-74.086
			c0-61.167,49.766-110.933,110.933-110.933c25.532,0,49.664,8.55,69.265,24.337c5.001-19.072,7.535-38.69,7.535-58.47
			C476.867,123.689,373.511,20.333,246.467,20.333z"/>
		<path style="fill:#556080;" d="M246.467,498.2c-4.71,0-8.533-3.814-8.533-8.533V11.8c0-4.71,3.823-8.533,8.533-8.533
			S255,7.09,255,11.8v477.867C255,494.386,251.177,498.2,246.467,498.2z"/>
		<path style="fill:#556080;" d="M246.467,498.2c-1.271,0-2.534-0.043-3.806-0.085l-4.762-0.119l-2.261-1.835
			c-74.462-60.322-117.171-149.777-117.171-245.427S161.176,65.628,235.638,5.306l2.261-1.835l4.796-0.128
			c1.254-0.034,2.509-0.077,3.772-0.077c4.71,0,8.533,3.823,8.533,8.533s-3.823,8.533-8.533,8.533c-0.768,0-1.527,0.017-2.295,0.043
			c-69.077,57.037-108.638,140.826-108.638,230.357c0,89.523,39.552,173.321,108.638,230.357c0.759,0.026,1.527,0.043,2.295,0.043
			c4.71,0,8.533,3.814,8.533,8.533C255,494.386,251.177,498.2,246.467,498.2z"/>
		<path style="fill:#556080;" d="M246.467,148.333c-63.889,0-125.466-19.021-178.065-55.014c-3.891-2.662-4.881-7.97-2.219-11.861
			c2.662-3.883,7.97-4.881,11.861-2.219c49.749,34.039,107.989,52.028,168.422,52.028s118.673-17.988,168.422-52.028
			c3.908-2.654,9.207-1.655,11.861,2.219c2.662,3.891,1.664,9.199-2.227,11.861C371.932,129.313,310.356,148.333,246.467,148.333z"
			/>
		<path style="fill:#556080;" d="M485.4,259.267H7.533c-4.71,0-8.533-3.823-8.533-8.533c0-4.71,3.823-8.533,8.533-8.533H485.4
			c4.719,0,8.533,3.823,8.533,8.533C493.933,255.444,490.119,259.267,485.4,259.267z"/>
		<path style="fill:#556080;" d="M73.231,415.188c-2.722,0-5.393-1.297-7.049-3.721c-2.662-3.883-1.664-9.199,2.219-11.861
			c52.599-35.985,114.176-55.006,178.065-55.006c4.71,0,8.533,3.814,8.533,8.533c0,4.719-3.823,8.533-8.533,8.533
			c-60.442,0-118.673,17.988-168.422,52.036C76.568,414.71,74.895,415.188,73.231,415.188z"/>
		<path style="fill:#556080;" d="M365.933,259.267c-4.719,0-8.533-3.823-8.533-8.533c0-89.532-39.561-173.321-108.638-230.357
			c-0.768-0.026-1.527-0.043-2.295-0.043c-4.71,0-8.533-3.823-8.533-8.533s3.823-8.533,8.533-8.533c1.263,0,2.517,0.043,3.772,0.085
			l4.787,0.128l2.27,1.835c74.462,60.314,117.171,149.769,117.171,245.419C374.467,255.444,370.652,259.267,365.933,259.267z"/>
	</g>
	<path style="fill:#26B999;" d="M511,395.8c0,61.269-49.664,110.933-110.933,110.933S289.133,457.069,289.133,395.8
		s49.664-110.933,110.933-110.933S511,334.531,511,395.8"/>
	<g>
		<path style="fill:#FFFFFF;" d="M365.933,438.467c0,4.71-3.823,8.533-8.533,8.533s-8.533-3.823-8.533-8.533
			c0-4.71,3.823-8.533,8.533-8.533S365.933,433.756,365.933,438.467"/>
		<path style="fill:#FFFFFF;" d="M399.546,446.172c-4.719,0-8.533-3.814-8.533-8.533c0-18.825-15.309-34.133-34.133-34.133
			c-4.719,0-8.533-3.814-8.533-8.533c0-4.719,3.814-8.533,8.533-8.533c28.237,0,51.2,22.963,51.2,51.2
			C408.079,442.358,404.274,446.172,399.546,446.172"/>
		<path style="fill:#FFFFFF;" d="M428.688,434.106c-4.719,0-8.533-3.814-8.533-8.533c0-28.237-22.963-51.2-51.2-51.2
			c-4.719,0-8.533-3.814-8.533-8.533c0-4.719,3.814-8.533,8.533-8.533c37.641,0,68.267,30.626,68.267,68.267
			C437.221,430.292,433.406,434.106,428.688,434.106"/>
		<path style="fill:#FFFFFF;" d="M460.321,428.073c-4.719,0-8.533-3.814-8.533-8.533c0-42.351-34.449-76.8-76.8-76.8
			c-4.719,0-8.533-3.814-8.533-8.533c0-4.719,3.814-8.533,8.533-8.533c51.755,0,93.867,42.112,93.867,93.867
			C468.854,424.259,465.031,428.073,460.321,428.073"/>
	</g>
</g>
<g>
</g>
<g>
</g>
<g>
</g>
<g>
</g>
<g>
</g>
<g>
</g>
<g>
</g>
<g>
</g>
<g>
</g>
<g>
</g>
<g>
</g>
<g>
</g>
<g>
</g>
<g>
</g>
<g>
</g>
</svg>
