<svg height="512" viewBox="0 0 55 58" width="512" xmlns="http://www.w3.org/2000/svg"><g id="015---Searching-for-Cash" fill="none"><path id="Shape" d="m35.16 37.41c-4.374-4.035-19.16-2.61-19.16 1.59v15c0 2.21 4.48 4 10 4s10-1.79 10-4v-15c-.035847-.6268272-.3424122-1.2071113-.84-1.59z" fill="#f3d55b"/><path id="Shape" d="m10 0c-5.52 0-10 1.79-10 4v40c0 3.428 9.642 5.1 16 3.2v-8.2c0-1.676 2.407-2.7 4-3.2v-2.6c-5.3260756-5.7570926-5.3260756-14.6429074 0-20.4v-8.8c0-2.21-4.48-4-10-4z" fill="#f29c1f"/><path id="Shape" d="m49.38 37.14 4.25 4.24c.7591894.7591894 1.0556866 1.865732.777804 2.902804s-1.087928 1.8471174-2.125 2.125-2.1436146-.0186146-2.902804-.777804l-4.24-4.25z" fill="#464f5d"/><path id="Shape" d="m49.38 41.38c-.5601348.5662452-1.3235173.8848772-2.12.8848772s-1.5598652-.318632-2.12-.8848772l-5.87-5.86 4.25-4.25 5.86 5.87c.5662452.5601348.8848772 1.3235173.8848772 2.12s-.318632 1.5598652-.8848772 2.12z" fill="#285680"/><path id="Shape" d="m31 31c-.5522847 0-1-.4477153-1-1v-1c0-.5522847.4477153-1 1-1s1 .4477153 1 1v1c0 .5522847-.4477153 1-1 1z" fill="#000"/><path id="Shape" d="m36 39c0 2.21-4.48 4-10 4s-10-1.79-10-4 4.155-3.4 6.38-3.72c3.846-.618 10.184-.265 12.78 2.13.4975878.3828887.804153.9631728.84 1.59z" fill="#f9eab0"/><path id="Shape" d="m36 44v5c0 2.21-4.48 4-10 4s-10-1.79-10-4v-5c0 2.21 4.48 4 10 4s10-1.79 10-4z" fill="#f0c419"/><ellipse id="Oval" cx="10" cy="4" fill="#f3d55b" rx="10" ry="4"/><path id="Shape" d="m20 4v5c0 2.21-4.48 4-10 4s-10-1.79-10-4v-5c0 2.21 4.48 4 10 4s10-1.79 10-4z" fill="#f0c419"/><path id="Shape" d="m17.38 16.7c-.8014619 1.725244-1.259963 3.5898154-1.35 5.49-6.35 1.928-16.03.21-16.03-3.19v-5c0 3.587 11.164 5.417 17.38 2.7z" fill="#f0c419"/><path id="Shape" d="m20 25c-.5522847 0-1-.4477153-1-1v-1c0-.5522847.4477153-1 1-1s1 .4477153 1 1v1c0 .5522847-.4477153 1-1 1z" fill="#000"/><path id="Shape" d="m18.41 31.16c-5.46 3.405-18.41 1.749-18.41-2.16v-5c0 3.5 10.214 5.216 16.55 3.02.3966512 1.4698617 1.024489 2.8673072 1.86 4.14z" fill="#f0c419"/><path id="Shape" d="m20 34v1.8c-1.593.5-4 1.523-4 3.2v3.2c-6.415 1.921-16 .177-16-3.2v-5c0 3.735 11.974 5.494 17.9 2.45.1-.104 2.1-.934 2.1-2.45z" fill="#f0c419"/><path id="Shape" d="m41.61 12.39c-4.013862-3.98814876-9.9303925-5.37823945-15.3002892-3.59480772-5.3698966 1.78343172-9.2792714 6.43686852-10.1097366 12.03389862-.8304652 5.5970302 1.5593139 11.1851105 6.1800258 14.4509091 3.846-.618 10.184-.265 12.78 2.13 5.0937055-1.4793624 9.0291632-5.5361239 10.3532579-10.6723796 1.3240947-5.1362556-.1596032-10.5900417-3.9032579-14.3476204zm-2.83 18.39c-4.2963 4.2942836-11.260176 4.293194-15.5551319-.002434-4.2949558-4.2956279-4.2949558-11.2595041 0-15.555132 4.2949559-4.295628 11.2588319-4.2967176 15.5551319-.002434 4.293234 4.2982416 4.293234 11.2617584 0 15.56z" fill="#4482c3"/><path id="Shape" d="m39.26 15.74c-.9220856-1.0567001-2.0391055-1.9258706-3.29-2.56-5.5 1.67-12.54 5.69-14.47 15.38 2.1170559 3.5998902 6.0900885 5.6904354 10.2559928 5.3965367 4.1659044-.2938986 7.8060752-2.9215444 9.3967431-6.7830093s.8574477-8.2906584-1.8927359-11.4335274z" fill="#2fa8cc"/><path id="Shape" d="m35.97 13.18c-5.5 1.67-12.54 5.69-14.47 15.38-2.4583001-4.2131533-1.8516259-9.5415706 1.4908654-13.094267 3.3424914-3.5526964 8.6240581-4.482824 12.9791346-2.285733z" fill="#67b9cc"/><path id="Shape" d="m30.99 35c-5.4274191-.0097069-10.1726654-3.6611114-11.5725239-8.9049047s.8942066-10.7743794 5.5946776-13.4877804c4.700471-2.71340095 10.6370279-1.934036 14.4778463 1.9006851 3.4386935 3.4332346 4.4674944 8.6013504 2.6057322 13.0897304-1.8617621 4.48838-6.2465514 7.4109602-11.1057322 7.4022696zm.01-22c-4.5236147.0044676-8.4808881 3.0451383-9.6502389 7.4150042-1.1693509 4.369866.7404678 8.9805366 4.6572993 11.2436187 3.9168315 2.2630822 8.8651214 1.6149161 12.0669396-1.5806229 2.8459251-2.8664001 3.6922522-7.161422 2.1464869-10.8931976-1.5457654-3.7317755-5.1812629-6.1703489-9.2204869-6.1848024z" fill="#b0d3f0"/><path id="Shape" d="m32 22.078v-3.951c1.15.283 2 1.022 2 1.873 0 .5522847.4477153 1 1 1 1.926 0 1.181-4.268-3-4.922 0-.5522847-.4477153-1-1-1s-1 .4477153-1 1c-2.309.362-4 1.954-4 3.922s1.691 3.56 4 3.922v3.948c-1.182-.283-2-1.038-2-1.87 0-.5522847-.4477153-1-1-1-1.86 0-1.2 4.045 2.687 4.854.36.083.313 0 .313.146.0215391.5522847.4867153.9825391 1.039.961s.9825391-.4867153.961-1.039c2.309-.362 4-1.954 4-3.922s-1.691-3.56-4-3.922zm-2-3.959v3.762c-2.655-.648-2.657-3.113 0-3.762zm2 9.762v-3.762c2.655.648 2.657 3.113 0 3.762z" fill="#f5efca"/></g></svg>