<svg height="512" viewBox="0 0 56 59" width="512" xmlns="http://www.w3.org/2000/svg"><g id="011---Umbrella-Funding" fill="none"><path id="Shape" d="m28 36.11c-.5522847 0-1-.4477153-1-1v-12.11c0-.5522847.4477153-1 1-1s1 .4477153 1 1v12.11c0 .5522847-.4477153 1-1 1z" fill="#7f8c8d"/><path id="Shape" d="m14 35.075h38.99c.5261279-.0191525 1.0382019.1721267 1.4229292.5315183.3847274.3593916.6103933.8572695.6270708 1.3834817v18c.0260238 1.109107-.8415216 2.0344888-1.95 2.08h-39.09z" fill="#4fba6f"/><path id="Shape" d="m51.04 50.01c-.7939192.0023555-1.5540547.3215221-2.1116752.8866527-.5576206.5651306-.86659 1.3294676-.8583248 2.1233473h-24.14c.0082652-.7938797-.3007042-1.5582167-.8583248-2.1233473-.5576205-.5651306-1.317756-.8842972-2.1116752-.8866527v-8c1.635194-.008923 2.9699666-1.3105473 3.02-2.945h24.03c.0593481 1.6342541 1.394719 2.9321641 3.03 2.945z" fill="#7ed09e"/><path id="Shape" d="m51.04 50.01c-.7939192.0023555-1.5540547.3215221-2.1116752.8866527-.5576206.5651306-.86659 1.3294676-.8583248 2.1233473h-25.08c.0082652-.7938797-.3007042-1.5582167-.8583248-2.1233473-.5576205-.5651306-1.317756-.8842972-2.1116752-.8866527v-8c1.6437908.0080855 2.9913227-1.3016444 3.03-2.945h24.97c.0500334 1.6344527 1.384806 2.936077 3.02 2.945z" fill="#7ed09e"/><ellipse id="Oval" cx="35.04" cy="46.079" fill="#4c8056" rx="6" ry="7" transform="matrix(1 -.004 .004 1 -.202 .154)"/><g fill="#4fba6f"><path id="Shape" d="m32.03 44.092c-.0034553-.7956517.3093062-1.5600874.869479-2.1251362.5601728-.5650487 1.3218692-.8844234 2.117521-.8878638 2.97-.014 3.934 3.982 2.018 3.991-.5504721-.0043518-.9956482-.4495279-1-1-.00203-.4045454-.2476041-.7680153-.6221692-.9208619-.3745651-.1528465-.8043233-.0649554-1.0888053.2226747-.2844819.2876302-.3676381.7183296-.2106787 1.09119.1569595.3728603.52311.6144194.9276532.6119972.550338-.0000069.9972483.4446689 1 .995.007 1.917-3.998.992-4.011-1.978z"/><path id="Shape" d="m35.047 51.079c-2.961 0-3.921-3.987-2-3.992.5522847 0 1 .4477153 1 1 .0000051.4049162.2441918.7698648.6184804.9243482.3742886.1544835.8047959.0680073 1.0903964-.2190283.2856004-.2870357.3699176-.717971.21356-1.0914806-.1563577-.3735095-.5225257-.6158639-.9274368-.6138393-.3572656.0012504-.6880597-.188193-.8677754-.4969689s-.1810499-.6899737-.0035-1 .5070098-.5017807.8642754-.5030311c.7932401.005566 1.5535986.3176641 2.122.871.8563246.856565 1.1135736 2.1440364.6521581 3.2638985-.4614156 1.1198621-1.5509713 1.8524109-2.7621581 1.8571015z"/><path id="Shape" d="m35.026 43.079c-.5543153.000576-1.005512-.4457116-1.011-1v-3c-.0016077-.3572656.1875057-.6882503.4961029-.8682754s.6897951-.1817405 1-.0045.5022894.5065098.5038971.8637754v3c.004997.5515207-.4374898 1.0029557-.989 1.009z"/><path id="Shape" d="m35.072 54.079c-.5539836.000567-1.0046036-.4460336-1.009-1v-3c-.0015957-.2637989.1017384-.5174126.2872414-.7049788.1855029-.1875662.4379581-.293699.7017586-.2950212.5530555-.0022361 1.0044139.4419792 1.011.995v3c.002776.550737-.4402783 1.0000503-.991 1.005z"/></g><path id="Shape" d="m44.79 8.99c-.66-.43-1.33-.85-2.03-1.23.6971103.37526952 1.3746547.78580132 2.03 1.23z" fill="#f0c419"/><path id="Shape" d="m11.21 8.99c.6553453-.44419868 1.3328897-.85473048 2.03-1.23-.7.38-1.37.8-2.03 1.23z" fill="#f0c419"/><path id="Shape" d="m28 5c-.5522847 0-1-.44771525-1-1v-3c0-.55228475.4477153-1 1-1s1 .44771525 1 1v3c0 .55228475-.4477153 1-1 1z" fill="#95a5a5"/><path id="Shape" d="m15.78 48.08c-.5560488.0011793-1.0101693-.4440368-1.02-1-.0021307-.2641318.1011673-.5182065.2870018-.7059182.1858346-.1877117.4388583-.2935579.7029982-.2940818.5552055-.0011419 1.0078761.444839 1.015 1 .0032029.2635876-.0990619.5175253-.2840464.7053268s-.4373477.2938922-.7009536.2946732z" fill="#000"/><path id="Shape" d="m23 51c0 2.21-4.03 4-9 4-4.71 0-8.58-1.61-8.96-3.66 5.873 1.696 13.96-.082 13.96-3.34v-.33c.03.01.07.02.1.03 2.35.72 3.9 1.93 3.9 3.3z" fill="#f9eab0"/><path id="Shape" d="m23 51v4c0 2.21-4.03 4-9 4s-9-1.79-9-4v-3.67c.01400007-.0004162.02784286.0030445.04.01.38 2.05 4.25 3.66 8.96 3.66 4.97 0 9-1.79 9-4z" fill="#f0c419"/><path id="Shape" d="m23 38c0 3.942-11.416 5.443-16.36 2.3-.90243033-.4376465-1.52032915-1.3042119-1.64-2.3 0-2.21 4.03-4 9-4s9 1.79 9 4z" fill="#f9eab0"/><path id="Shape" d="m19 45.33v2.67c0 3.269-8.067 5.042-13.96 3.34-.1-.05-4.04-1.071-4.04-3.34v-4c0 1.94 3.12 3.56 7.25 3.92 3.044.272 8.087-.2 10.08-2.41.23-.06.46-.12.67-.18z" fill="#f3d55b"/><path id="Shape" d="m18.33 45.51c-.7178732.717524-1.5949933 1.2554453-2.56 1.57-2.4138772.8318979-4.9820589 1.1187693-7.52.84-7.77-.677-9.975-5.241-3.25-7.25v1.33c0 2.21 4.03 4 9 4 1.4575418.0067957 2.9108356-.1576648 4.33-.49z" fill="#f9eab0"/><path id="Shape" d="m23 38v4c0 1.39-1.59 2.61-4 3.33-6.115 1.748-14-.149-14-3.33v-4c.11967085.9957881.73756967 1.8623535 1.64 2.3 5.074 3.226 16.36 1.544 16.36-2.3z" fill="#f3d55b"/><path id="Shape" d="m55.75 25.72c-1.431-10.02-9.626-17.681-19.013-20.477-14.729-4.387-31.157 3.03-35.618 16.763-.53904792 1.2534492-.83724348 2.5971951-.879 3.961.165 1.389 1.565 1.124 2.215.331 1.51755025-1.6587738 3.7274154-2.5064136 5.965-2.288 4.053.2 3.927 2.607 5.9 2.954 2.258.4 2.682-2.266 5.247-2.829 2.072-.455 4.4-.119 5.675 1.482.7347265.939169 1.8925958 1.4457604 3.081 1.348 1.1128332-.1820444 2.0999159-.8184864 2.725-1.757 1.444-1.614 5.109-1.608 6.805-.481 1.074.715 1.7 2.071 3.083 2.253 1.186.155 1.9-.563 2.669-1.333 2.522-2.532 7.7-2.078 9.939.651.361.442.732.828 1.361.674.561323-.1385052.9265317-.6796192.845-1.252z" fill="#f0c419"/><path id="Shape" d="m27.4 4.01979954c-4.229.00020046-7.633 4.23320046-9.447 7.57120046-2.5104263 4.7154774-3.8458904 9.9671138-3.893 15.309-1.411-.407-1.612-1.938-3.974-2.629-2.35991191-.6550814-4.88975599-.1977875-6.871 1.242-.544.451-.945 1.357-1.679 1.469-2.121.323-.977-3.027-.715-3.984 3.152-11.488 15.041-19.023 26.579-18.97820046z" fill="#f3d55b"/><path id="Shape" d="m41.94 26.9c-1.489.438-2.374-.632-3.334-1.552-.9094339-.8759827-2.1263556-1.3600223-3.389-1.348-1.3356082-.1113179-2.6723873.200399-3.821.891-.49.374-.744.945-1.231 1.329-.62415.4753482-1.3808649.74448-2.165.77v-22.99c4.53 0 7.934 3.774 9.968 7.444 2.5657437 4.7505538 3.9294394 10.0570194 3.972 15.456z" fill="#f3d55b"/></g></svg>