<svg height="512" viewBox="0 0 60 58" width="512" xmlns="http://www.w3.org/2000/svg"><g id="001---Financial-Growth" fill="none"><circle id="Oval" cx="50" cy="10" fill="#f3d55b" r="9"/><path id="Shape" d="m50 1v9h-9c0-4.97056275 4.0294373-9 9-9z" fill="#2fa8cc"/><path id="Shape" d="m50 10v9c-4.9705627 0-9-4.0294373-9-9z" fill="#ff5364"/><path id="Shape" d="m15.02 2.54c-4.56 1.59-10.93 4.88-13.18 11.24-.55512348-1.182707-.84196537-2.4734955-.84-3.78.00365914-3.3233598 1.83846718-6.37423193 4.77235001-7.9353422 2.93388284-1.56111027 6.48929319-1.37835718 9.24764999.4753422z" fill="#67b9cc"/><path id="Shape" d="m19 10c-.0119417 3.6360111-2.2084444 6.9084165-5.56897 8.2967924-3.3605255 1.3883758-7.22622951.6205256-9.80103-1.9467924-.7445296-.7435885-1.35066221-1.613846-1.79-2.57 2.25-6.36 8.62-9.65 13.18-11.24 2.4863702 1.66856133 3.9786507 4.46565003 3.98 7.46z" fill="#2fa8cc"/><path id="Shape" d="m24 50-4.25 1-5.43-1-7.23-7.23c-1.632-1.612-1.736-2.325-5.89-11.46-.488772-1.1045695.0104305-2.396228 1.115-2.885s2.396228.0104305 2.885 1.115c.146.341 2.6 6.23 2.7 6.13l.37-.19v-.01c1.31278161-1.3159782 3.4132442-1.4114538 4.84-.22 6 5.056 6.518 2.992 8.92 5.96 2.231 2.802 1.97 5.664 1.97 8.79z" fill="#fdd7ad"/><path id="Shape" d="m15.8 42.77c-.3943361.3867403-1.0256639.3867403-1.42 0-4.4-4.4-5.441-5.226-6.48-7.1l.37-.19v-.01c.37360954-.3775932.8285034-.6648946 1.33-.84.849 1.539 1.416 1.936 6.2 6.72.3899779.3930079.3899779 1.0269921 0 1.42z" fill="#f9c795"/><rect id="Rectangle-path" fill="#b49aca" height="8" rx="1" width="13" x="13" y="50"/><path id="Shape" d="m23 55h-1c-.5522847 0-1-.4477153-1-1s.4477153-1 1-1h1c.5522847 0 1 .4477153 1 1s-.4477153 1-1 1z" fill="#894b9d"/><path id="Shape" d="m59 30.4c0 .665.11.228-4.12 9.53-.931 2.055-1.321 2.191-9.2 10.07l-5.68 1-4-1c0-3.13-.291-5.951 1.97-8.79 2.363-2.92 2.963-.938 8.92-5.96 1.4267558-1.1914538 3.5272184-1.0959782 4.84.22v.01l.37.19c.01.01.01.01 0 .01h.01c.04-.07.07-.13.11-.2v-.01c.208-.368.129-.219 2.58-5.93.3400069-.808503 1.1329186-1.333166 2.01-1.33 1.2072285.005475 2.184525.9827715 2.19 2.19z" fill="#fdd7ad"/><path id="Shape" d="m52.1 35.67c.01.01.01.01 0 .01-1.021 1.842-2.038 2.648-6.48 7.09-.190164.1849909-.4447023.2889572-.71.29-.4062651.0023626-.77358-.2413038-.929371-.6165185-.1557909-.3752147-.0690889-.807391.219371-1.0934815 4.856-4.856 5.356-5.188 6.2-6.72.5014966.1751054.9563905.4624068 1.33.84v.01z" fill="#f9c795"/><rect id="Rectangle-path" fill="#b49aca" height="8" rx="1" width="13" x="34" y="50"/><path id="Shape" d="m38 55h-1c-.5522847 0-1-.4477153-1-1s.4477153-1 1-1h1c.5522847 0 1 .4477153 1 1s-.4477153 1-1 1z" fill="#894b9d"/><path id="Shape" d="m50 20c-5.5228475 0-10-4.4771525-10-10s4.4771525-10 10-10 10 4.4771525 10 10c-.0060624 5.5203344-4.4796656 9.9939376-10 10zm0-18c-4.418278 0-8 3.581722-8 8s3.581722 8 8 8 8-3.581722 8-8c-.0049599-4.41622192-3.5837781-7.99504012-8-8z" fill="#2980ba"/><path id="Shape" d="m14 11h-4c-.55228475 0-1-.4477153-1-1v-4c0-.55228475.44771525-1 1-1 .5522847 0 1 .44771525 1 1v3h3c.5522847 0 1 .44771525 1 1 0 .5522847-.4477153 1-1 1z" fill="#3f5c6c"/><path id="Shape" d="m30 47c-.5522847 0-1-.4477153-1-1v-26c0-.5522847.4477153-1 1-1s1 .4477153 1 1v26c0 .5522847-.4477153 1-1 1z" fill="#4c8056"/><path id="Shape" d="m29.614 38.912c-5.182 2.03-11.62-4-10.059-9.427.0898811-.3047642.3282358-.5431189.633-.633 5.432-1.563 11.454 4.885 9.426 10.06z" fill="#4fba6f"/><path id="Shape" d="m29.614 39.912c-.2651948-.0000566-.5195073-.1054506-.707-.293l-5.657-5.657c-.2525868-.2527654-.3511379-.6210837-.25853-.966213s.3623054-.6146362.7075-.707c.3451947-.0923639.7134432.0064476.96603.259213l5.656 5.657c.2859079.2859943.3714219.7160366.216678 1.0896546-.1547439.3736179-.5192821.6172591-.923678.6173454z" fill="#4c8056"/><path id="Shape" d="m30.386 38.912c5.182 2.03 11.62-4 10.059-9.427-.0898811-.3047642-.3282358-.5431189-.633-.633-5.432-1.563-11.454 4.885-9.426 10.06z" fill="#24ae5f"/><path id="Shape" d="m30.386 39.912c-.4043959-.0000863-.7689341-.2437275-.923678-.6173454-.1547439-.373618-.0692299-.8036603.216678-1.0896546l5.656-5.657c.2525868-.2527654.6208353-.3515768.96603-.259213.3451946.0923639.6148921.3618707.7075.707s-.0059432.7134476-.25853.966213l-5.657 5.657c-.1874927.1875494-.4418052.2929434-.707.293z" fill="#4c8056"/><path id="Shape" d="m30 26h-18c-1.6568542 0-3-1.3431458-3-3v-3c0-.5522847.44771525-1 1-1 .5522847 0 1 .4477153 1 1v3c0 .5522847.4477153 1 1 1h18c.5522847 0 1 .4477153 1 1s-.4477153 1-1 1z" fill="#4c8056"/><path id="Shape" d="m48 26h-18c-.5522847 0-1-.4477153-1-1s.4477153-1 1-1h18c.5522847 0 1-.4477153 1-1v-3c0-.5522847.4477153-1 1-1s1 .4477153 1 1v3c0 1.6568542-1.3431458 3-3 3z" fill="#4c8056"/><g fill="#3f5c6c"><path id="Shape" d="m10 4c-.55228475 0-1-.44771525-1-1v-2c0-.55228475.44771525-1 1-1 .5522847 0 1 .44771525 1 1v2c0 .55228475-.4477153 1-1 1z"/><path id="Shape" d="m10 20c-.55228475 0-1-.4477153-1-1v-2c0-.5522847.44771525-1 1-1 .5522847 0 1 .4477153 1 1v2c0 .5522847-.4477153 1-1 1z"/><path id="Shape" d="m19 11h-2c-.5522847 0-1-.4477153-1-1 0-.55228475.4477153-1 1-1h2c.5522847 0 1 .44771525 1 1 0 .5522847-.4477153 1-1 1z"/><path id="Shape" d="m3 11h-2c-.55228475 0-1-.4477153-1-1 0-.55228475.44771525-1 1-1h2c.55228475 0 1 .44771525 1 1 0 .5522847-.44771525 1-1 1z"/><path id="Shape" d="m6.5 4.938c-.35761373.00034843-.68819322-.19029718-.867-.5l-1-1.732c-.18148438-.30957042-.18318331-.69264947-.00445186-1.00381742s.51048847-.50271357.86933356-.50192468c.35884509.00078888.68975672.19379132.8671183.5057421l1 1.732c.17854148.30924248.17863929.6902222.00025662.99955632-.17838268.30933411-.50817422.50007763-.86525662.50044368z"/><path id="Shape" d="m14.5 18.794c-.3576137.0003484-.6881932-.1902972-.867-.5l-1-1.732c-.1814844-.3095704-.1831833-.6926495-.0044519-1.0038174.1787315-.311168.5104885-.5027136.8693336-.5019247s.6897567.1937913.8671183.5057421l1 1.732c.1785415.3092425.1786393.6902222.0002566.9995563s-.5081742.5000777-.8652566.5004437z"/><path id="Shape" d="m3.937 7.5c-.35 0-.349-.047-2.231-1.134-.31195078-.17736158-.50495322-.50827321-.5057421-.8671183-.00078889-.35884509.19075673-.69060211.50192468-.86933356s.694247-.17703252 1.00381742.00445186l1.732 1c.39210271.22640669.58315894.68801836.46575222 1.12530566-.11740672.43728731-.51397817.74112755-.96675222.74069434z"/><path id="Shape" d="m17.793 15.5c-.349 0-.349-.047-2.231-1.134-.4742136-.2780058-.6351286-.886647-.3602745-1.3626943.274854-.4760473.8824145-.640996 1.3602745-.3693057l1.732 1c.3921027.2264067.5831589.6880184.4657522 1.1253057s-.5139782.7411275-.9667522.7406943z"/><path id="Shape" d="m13.5 4.938c-.3570824-.00036605-.6868739-.19110957-.8652566-.50044368-.1783827-.30933412-.1782849-.69031384.0002566-.99955632l1-1.732c.1773616-.31195078.5082732-.50495322.8671183-.5057421.3588451-.00078889.6906021.19075673.8693336.50192468.1787314.31116795.1770325.694247-.0044519 1.00381742l-1 1.732c-.1788068.30970282-.5093863.50034843-.867.5z"/><path id="Shape" d="m5.5 18.794c-.3570824-.000366-.68687394-.1911096-.86525662-.5004437-.17838267-.3093341-.17828486-.6903138.00025662-.9995563l1-1.732c.27800577-.4742136.88664704-.6351286 1.3626943-.3602745.47604727.274854.64099599.8824145.3693057 1.3602745l-1 1.732c-.17880678.3097028-.50938627.5003484-.867.5z"/><path id="Shape" d="m16.063 7.5c-.4525881-.00001991-.8487411-.30401157-.9658809-.74117767-.1171399-.43716609.0739396-.89850839.4658809-1.12482233l1.732-1c.3095704-.18148438.6926495-.18318331 1.0038174-.00445186.311168.17873145.5027136.51048847.5019247.86933356s-.1937913.68975672-.5057421.8671183c-1.855 1.07-1.865 1.134-2.232 1.134z"/><path id="Shape" d="m2.207 15.5c-.45258806-.0000199-.84874105-.3040116-.96588095-.7411777s.07393969-.8985084.46588095-1.1248223l1.732-1c.30957042-.1814844.69264947-.1831833 1.00381742-.0044519.31116795.1787315.50271357.5104885.50192468.8693336-.00078888.3588451-.19379132.6897567-.5057421.8671183-1.855 1.07-1.866 1.134-2.232 1.134z"/></g><path id="Shape" d="m10 20c-5.5228475 0-10-4.4771525-10-10s4.4771525-10 10-10 10 4.4771525 10 10c-.0060624 5.5203344-4.4796656 9.9939376-10 10zm0-18c-4.418278 0-8 3.581722-8 8s3.581722 8 8 8 8-3.581722 8-8c-.0049599-4.41622192-3.5837781-7.99504012-8-8z" fill="#2980ba"/><circle id="Oval" cx="30" cy="10" fill="#f3d55b" r="9"/><path id="Shape" d="m30 20c-5.5228475 0-10-4.4771525-10-10s4.4771525-10 10-10 10 4.4771525 10 10c-.0060624 5.5203344-4.4796656 9.9939376-10 10zm0-18c-4.418278 0-8 3.581722-8 8s3.581722 8 8 8 8-3.581722 8-8c-.0049599-4.41622192-3.5837781-7.99504012-8-8z" fill="#f0c419"/><path id="Shape" d="m30 16c-4.274 0-5.4-4.5-3.333-4.5.5522847 0 1 .4477153 1 1 0 .8 1.09 1.5 2.333 1.5s2.333-.7 2.333-1.5-1.09-1.5-2.333-1.5c-2.39 0-4.333-1.57-4.333-3.5s1.943-3.5 4.333-3.5c4.274 0 5.4 4.5 3.333 4.5-.5522847 0-1-.44771525-1-1 0-.8-1.09-1.5-2.333-1.5s-2.333.7-2.333 1.5 1.09 1.5 2.333 1.5c2.39 0 4.333 1.57 4.333 3.5s-1.943 3.5-4.333 3.5z" fill="#f29c1f"/><path id="Shape" d="m30 16.833c-.5522847 0-1-.4477153-1-1v-11.666c0-.55228475.4477153-1 1-1s1 .44771525 1 1v11.666c0 .5522847-.4477153 1-1 1z" fill="#f29c1f"/></g></svg>