<svg height="512" viewBox="0 0 60 59" width="512" xmlns="http://www.w3.org/2000/svg"><g id="046---Money-Growth" fill="none"><path id="Shape" d="m56.78 1.09c-10.54.57-53.83 4.83-55.72 36.4-.091-.342-.06 1.787-.06-33.49 0-1.65685425 1.34314575-3 3-3 55.731 0 52.244-.05 52.78.09z" fill="#14a085"/><path id="Shape" d="m59.08 4c0 5.556.036 5-.08 5v28c-.0032948 1.1032019-.8967981 1.9967052-2 2-57.763 0-54.188.086-54.78-.16-.57513945-.2457048-1.00367182-.7444278-1.16-1.35 1.89-31.57 45.18-35.83 55.72-36.4 1.3463098.32305213 2.2966806 1.5254778 2.3 2.91z" fill="#33907c"/><path id="Shape" d="m6 6h-1c-.55228475 0-1-.44771525-1-1s.44771525-1 1-1h1c.55228475 0 1 .44771525 1 1s-.44771525 1-1 1z" fill="#e64c3c"/><path id="Shape" d="m11 6h-1c-.55228475 0-1-.44771525-1-1s.44771525-1 1-1h1c.5522847 0 1 .44771525 1 1s-.4477153 1-1 1z" fill="#f3d55b"/><path id="Shape" d="m16 6h-1c-.5522847 0-1-.44771525-1-1s.4477153-1 1-1h1c.5522847 0 1 .44771525 1 1s-.4477153 1-1 1z" fill="#4fba6f"/><path id="Shape" d="m11.26 21.04c-.4178244.0005973-.791977-.2586406-.9381965-.6500451-.1462194-.3914044-.0336795-.8324591.2821965-1.1059549l10.481-9.084c.4186318-.36312722 1.0523728-.31813184 1.4155.1005.3631272.4186318.3181318 1.0523728-.1005 1.4155-11.421 9.891-10.609 9.324-11.14 9.324z" fill="#f29c1f"/><path id="Shape" d="m40.681 14.66c-.4637737.0004331-.8669864-.3180616-.9739657-.7693284-.1069792-.4512667.1103516-.9168702.5249657-1.1246716l8.641-4.321c.4940187-.24852811 1.0959718-.04951868 1.3445.44450002.2485281.49401869.0495187 1.09597183-.4445 1.34449998-9.44 4.718-8.756 4.426-9.092 4.426z" fill="#f29c1f"/><path id="Shape" d="m35.18 14.99c-.249 0 .425.214-9.156-3.2-.5199761-.1866723-.7901722-.7595239-.6035-1.2795.1866723-.51997607.7595239-.79017223 1.2795-.6035l8.82 3.141c.4591533.1635707.7334894.6343478.649432 1.1144639s-.5020179.8296878-.989432.8275361z" fill="#f29c1f"/><path id="Shape" d="m53.12 58.12c-1.1712702 1.1698135-3.0687298 1.1698135-4.24 0l-4.74-4.74c1.17 1.17 2.07.17 3.24-1s2.17-2.07 1-3.24l4.74 4.74c1.1698135 1.1712702 1.1698135 3.0687298 0 4.24z" fill="#464f5d"/><path id="Shape" d="m48.38 53.38c-1.1712702 1.1698135-3.0687298 1.1698135-4.24 0l-5.87-5.87c.83-.55 1.11-1.69 1.83-2.41s1.86-1 2.41-1.83l5.87 5.87c1.1698135 1.1712702 1.1698135 3.0687298 0 4.24z" fill="#285680"/><path id="Shape" d="m42.51 43.27c-3.497127 5.291306-9.9442931 7.8111821-16.10263 6.2937162s-10.6966587-6.7442585-11.335045-13.0545897c-.6383862-6.3103311 2.7611567-12.3401598 8.4907975-15.060276s12.5508606-1.5425397 17.0368775 2.9411495c5.0357171 5.0429632 5.8336777 12.9306574 1.91 18.88z" fill="#2980ba"/><path id="Shape" d="m36.46 26.11c-5.18 2.39-12.82 6.86-16.43 13.54-2.1224317-4.5432985-.9012627-9.9470876 2.9685755-13.13623 3.8698383-3.1891424 9.4074011-3.3552394 13.4614245-.40377z" fill="#67b9cc"/><path id="Shape" d="m37.77 42.77c-2.5380951 2.5314315-6.1498331 3.6684714-9.6803465 3.0475469-3.5305133-.6209246-6.5375707-2.9220368-8.0596535-6.1675469 3.61-6.68 11.25-11.15 16.43-13.54 2.5994965 1.8904079 4.2413354 4.823889 4.4932941 8.0281894.2519588 3.2043003-.9112092 6.3583432-3.1832941 8.6318106z" fill="#2fa8cc"/><path id="Shape" d="m29.994 41.994c-4.867 0-6.151-5-4-5 .5522847 0 1 .4477153 1 1 0 1.084 1.374 2 3 2s3-.916 3-2-1.374-2-3-2c-2.757 0-5-1.794-5-4s2.243-4 5-4c4.868 0 6.151 5 4 5-.5522847 0-1-.4477153-1-1 0-1.084-1.374-2-3-2s-3 .916-3 2 1.374 2 3 2c2.757 0 5 1.794 5 4s-2.243 4-5 4z" fill="#f5efca"/><path id="Shape" d="m29.994 42.994c-.5522847 0-1-.4477153-1-1v-14c0-.5522847.4477153-1 1-1s1 .4477153 1 1v14c0 .5522847-.4477153 1-1 1z" fill="#f5efca"/><path id="Shape" d="m29.994 46.988c-5.4331799.0029685-10.1904727-3.644922-11.5973008-8.892806-1.406828-5.2478841.8878602-10.7862364 5.5939775-13.501363 4.7061173-2.7151265 10.6493276-1.929511 14.4883233 1.915169 3.4182712 3.4356932 4.4363305 8.5893483 2.5812221 13.0667514s-6.2197351 7.4008668-11.0662221 7.4122486zm0-21.989c-4.5275795-.002323-8.4918458 3.037625-9.6641215 7.4108105s.7399522 8.988386 4.6616453 11.2509742c3.921693 2.2625883 8.8742875 1.6079902 12.0734762-1.5957847 2.8474803-2.8633499 3.6951571-7.1574539 2.1493553-10.8880588-1.5458018-3.730605-5.1821859-6.1667075-9.2203553-6.1769412z" fill="#b0d3f0"/><g fill="#f0c419"><circle id="Oval" cx="9" cy="22" r="3"/><circle id="Oval" cx="24" cy="9" r="3"/><circle id="Oval" cx="38" cy="15" r="3"/><circle id="Oval" cx="52" cy="8" r="3"/></g></g></svg>