<svg height="512" viewBox="0 0 54 58" width="512" xmlns="http://www.w3.org/2000/svg"><g id="027---Calculating-Investment" fill="none"><path id="Shape" d="m26 50h-14l-12-12v-37c0-.55228475.44771525-1 1-1h34c.5522847 0 1 .44771525 1 1v15z" fill="#81ccb8"/><rect id="Rectangle-path" fill="#2980ba" height="42" rx="3" width="28" x="26" y="16"/><rect id="Rectangle-path" fill="#3b97d3" height="42" rx="3" width="24" x="28" y="16"/><path id="Shape" d="m0 38h11c.5522847 0 1 .4477153 1 1v11z" fill="#26b99a"/><rect id="Rectangle-path" fill="#65ddb9" height="10" rx="1" width="20" x="30" y="20"/><rect id="Rectangle-path" fill="#f0c419" height="4" rx="1" width="4" x="30" y="34"/><rect id="Rectangle-path" fill="#f0c419" height="4" rx="1" width="4" x="30" y="42"/><rect id="Rectangle-path" fill="#f0c419" height="4" rx="1" width="4" x="30" y="50"/><rect id="Rectangle-path" fill="#f0c419" height="4" rx="1" width="4" x="38" y="34"/><rect id="Rectangle-path" fill="#f0c419" height="4" rx="1" width="4" x="38" y="42"/><rect id="Rectangle-path" fill="#f0c419" height="4" rx="1" width="4" x="38" y="50"/><rect id="Rectangle-path" fill="#f0c419" height="4" rx="1" width="4" x="46" y="34"/><rect id="Rectangle-path" fill="#f0c419" height="4" rx="1" width="4" x="46" y="42"/><rect id="Rectangle-path" fill="#f0c419" height="4" rx="1" width="4" x="46" y="50"/><path id="Shape" d="m8 18c-4.867 0-6.151-5-4-5 .55228475 0 1 .4477153 1 1 0 1.084 1.374 2 3 2s3-.916 3-2-1.374-2-3-2c-2.757 0-5-1.794-5-4s2.243-4 5-4c4.867 0 6.151 5 4 5-.5522847 0-1-.44771525-1-1 0-1.084-1.374-2-3-2s-3 .916-3 2 1.374 2 3 2c2.757 0 5 1.794 5 4s-2.243 4-5 4z" fill="#33907c"/><path id="Shape" d="m8 19c-.55228475 0-1-.4477153-1-1v-14c0-.55228475.44771525-1 1-1s1 .44771525 1 1v14c0 .5522847-.44771525 1-1 1z" fill="#33907c"/><g fill="#fff"><path id="Shape" d="m32 5h-16c-.5522847 0-1-.44771525-1-1s.4477153-1 1-1h16c.5522847 0 1 .44771525 1 1s-.4477153 1-1 1z"/><path id="Shape" d="m32 9h-16c-.5522847 0-1-.44771525-1-1s.4477153-1 1-1h16c.5522847 0 1 .44771525 1 1s-.4477153 1-1 1z"/><path id="Shape" d="m32 13h-16c-.5522847 0-1-.4477153-1-1s.4477153-1 1-1h16c.5522847 0 1 .4477153 1 1s-.4477153 1-1 1z"/><path id="Shape" d="m22 23h-18c-.55228475 0-1-.4477153-1-1s.44771525-1 1-1h18c.5522847 0 1 .4477153 1 1s-.4477153 1-1 1z"/><path id="Shape" d="m22 27h-18c-.55228475 0-1-.4477153-1-1s.44771525-1 1-1h18c.5522847 0 1 .4477153 1 1s-.4477153 1-1 1z"/><path id="Shape" d="m22 31h-18c-.55228475 0-1-.4477153-1-1s.44771525-1 1-1h18c.5522847 0 1 .4477153 1 1s-.4477153 1-1 1z"/><path id="Shape" d="m22 35h-18c-.55228475 0-1-.4477153-1-1s.44771525-1 1-1h18c.5522847 0 1 .4477153 1 1s-.4477153 1-1 1z"/><path id="Shape" d="m22 39h-6c-.5522847 0-1-.4477153-1-1s.4477153-1 1-1h6c.5522847 0 1 .4477153 1 1s-.4477153 1-1 1z"/><path id="Shape" d="m30 28c-.4043959-.0000863-.7689341-.2437275-.923678-.6173454-.1547439-.373618-.0692299-.8036603.216678-1.0896546l7-7c.3923789-.3789722 1.0160848-.3735524 1.4018186.0121814s.3911536 1.0094397.0121814 1.4018186l-7 7c-.1874927.1875494-.4418052.2929434-.707.293z"/><path id="Shape" d="m33 31c-.4043959-.0000863-.7689341-.2437275-.923678-.6173454-.1547439-.373618-.0692299-.8036603.216678-1.0896546l10-10c.3923789-.3789722 1.0160848-.3735524 1.4018186.0121814s.3911536 1.0094397.0121814 1.4018186l-10 10c-.1874927.1875494-.4418052.2929434-.707.293z"/></g><path id="Shape" d="m49 31h-18c-1.1045695 0-2-.8954305-2-2v-8c0-1.1045695.8954305-2 2-2h18c1.1045695 0 2 .8954305 2 2v8c0 1.1045695-.8954305 2-2 2zm-18-10v8h18v-8z" fill="#26b99a"/></g></svg>