<svg height="512" viewBox="0 0 58 58" width="512" xmlns="http://www.w3.org/2000/svg"><g id="049---Securing-Investment" fill="none"><path id="Shape" d="m57.51 5.76-12-5.62c-.3090648-.18324549-.6926808-.18659574-1.004899-.00877613-.3122181.17781961-.5050383.50947127-.505101.86877613v30l-15 8-15-8v-30c-.0000627-.35930486-.1928829-.69095652-.505101-.86877613-.3122182-.17781961-.6958342-.17446936-1.004899.00877613l-12 5.62c-.30520006.17858518-.49197595.50639593-.49.86v31.5c-.00262207.3695914.20208488.7094822.53.88 15.748 9.2 12.151 7.167 17.47 10v7c.0032948 1.1032019.8967981 1.9967052 2 2h18c1.1032019-.0032948 1.9967052-.8967981 2-2v-7c5.288-2.816 1.791-.839 17.47-10 .3279151-.1705178.5326221-.5104086.53-.88v-31.5c.0019759-.35360407-.1847999-.68141482-.49-.86z" fill="#7f8c8d"/><circle id="Oval" cx="29" cy="17" fill="#f3d55b" r="15"/><path id="Shape" d="m29 26c-5.684 0-7.309-6-5-6 .5522847 0 1 .4477153 1 1 0 1.654 1.794 3 4 3s4-1.346 4-3-1.794-3-4-3c-3.309 0-6-2.243-6-5s2.691-5 6-5c5.684 0 7.309 6 5 6-.5522847 0-1-.4477153-1-1 0-1.654-1.794-3-4-3s-4 1.346-4 3 1.794 3 4 3c3.309 0 6 2.243 6 5s-2.691 5-6 5z" fill="#e57e25"/><path id="Shape" d="m29 28c-.5522847 0-1-.4477153-1-1v-20c0-.55228475.4477153-1 1-1s1 .44771525 1 1v20c0 .5522847-.4477153 1-1 1z" fill="#e57e25"/><path id="Shape" d="m19.022 22.688c-.3909048.0000366-.7459927-.2277041-.909-.583-1.654561-3.6091951-1.4558668-7.7966836.533-11.233.2838909-.4635985.8861308-.6154926 1.3559307-.3419864s.6350554.8722177.3720693 1.3479864c-1.6605242 2.8739466-1.8259971 6.3742204-.444 9.392.1424288.3095429.1174402.6703058-.066305.957256-.1837453.2869502-.5009565.4605917-.841695.460744z" fill="#f29c1f"/><path id="Shape" d="m38.978 22.688c-.3407385-.0001523-.6579497-.1737938-.841695-.460744-.1837452-.2869502-.2087338-.6477131-.066305-.957256 1.3819971-3.0177796 1.2165242-6.5180534-.444-9.392-.1893443-.3092023-.1964921-.696671-.0186807-1.0126464.1778114-.3159753.5127242-.5109535.875292-.5095739s.6959871.1989009.8713887.5162203c1.9888668 3.4363164 2.187561 7.6238049.533 11.233-.1630073.3552959-.5180952.5830366-.909.583z" fill="#f29c1f"/><path id="Shape" d="m29 39v19h-9c-1.1032019-.0032948-1.9967052-.8967981-2-2v-7c-5.288-2.816-1.791-.839-17.47-10-.32791512-.1705178-.53262207-.5104086-.53-.88v-31.5c-.00197595-.35360407.18479994-.68141482.49-.86l12-5.62c.3090648-.18324549.6926808-.18659574 1.004899-.00877613.3122181.17781961.5050383.50947127.505101.86877613v30z" fill="#95a5a5"/><path id="Shape" d="m4 11c-.55228475 0-1-.4477153-1-1v-2c0-.55228475.44771525-1 1-1s1 .44771525 1 1v2c0 .5522847-.44771525 1-1 1z" fill="#ecf0f1"/><path id="Shape" d="m4 37c-.55228475 0-1-.4477153-1-1v-22c0-.5522847.44771525-1 1-1s1 .4477153 1 1v22c0 .5522847-.44771525 1-1 1z" fill="#ecf0f1"/><path id="Shape" d="m29 33c-8.836556 0-16-7.163444-16-16s7.163444-16 16-16 16 7.163444 16 16c-.0104696 8.8322157-7.1677843 15.9895304-16 16zm0-30c-7.7319865 0-14 6.2680135-14 14s6.2680135 14 14 14 14-6.2680135 14-14c-.0082673-7.72855947-6.2714405-13.99173268-14-14z" fill="#f0c419"/></g></svg>