<svg height="512" viewBox="0 0 52 59" width="512" xmlns="http://www.w3.org/2000/svg"><g id="042---Piggy-Bank" fill="none" transform="translate(0 -1)"><path id="Shape" d="m16 53v4c0 1.6568542-1.3431458 3-3 3h-4.21c-1.57191106.0019203-2.87764673-1.2121082-2.99-2.78l-.31-4.22 5.51-2z" fill="#cbb292"/><path id="Shape" d="m46.51 53-.31 4.22c-.1123533 1.5678918-1.4180889 2.7819203-2.99 2.78h-4.21c-1.6568542 0-3-1.3431458-3-3v-4l5-2z" fill="#cbb292"/><path id="Shape" d="m12 57v3h-2v-3c0-.5522847.4477153-1 1-1s1 .4477153 1 1z" fill="#7f6e5d"/><path id="Shape" d="m42 57v3h-2v-3c0-.5522847.4477153-1 1-1s1 .4477153 1 1z" fill="#7f6e5d"/><path id="Shape" d="m18.54 16.04c-2.1594048-3.1996164-2.0379529-7.41997078.3018808-10.49010961 2.3398337-3.07013884 6.3769229-4.30628283 10.0345859-3.07255853 3.657663 1.23372429 6.1212675 4.66254261 6.1235333 8.52266814.0117247 1.7976014-.5255492 3.5559523-1.54 5.04z" fill="#f3d55b"/><path id="Shape" d="m33.46 17.035c-.3718898.0013385-.713804-.203807-.8876342-.5325727-.1738301-.3287657-.1508592-.7268391.0596342-1.0334273 2.2502172-3.3356007 1.6728578-7.82347334-1.3483565-10.48091076-3.0212142-2.65743742-7.5460728-2.65743742-10.567287 0-3.0212143 2.65743742-3.5985737 7.14531006-1.3483565 10.48091076.1861354.3054621.1951695.6870227.0236993 1.0009517-.1714703.313929-.4973944.5125331-.8550001.521-.3576056.008467-.6925638-.1744896-.8786992-.4799517-2.7643263-4.1815504-2.0056523-9.76364823 1.7744309-13.0557349 3.7800831-3.29208666 9.4134809-3.27686492 13.1757182.0356015s4.4907342 8.8985827 1.7038509 13.0651334c-.1813076.297038-.5040004.478458-.852.479z" fill="#f0c419"/><g fill="#f29c1f"><path id="Shape" d="m28.3 16.1c-.4071132.0007742-.774056-.2453331-.9278263-.62229-.1537702-.3769568-.063668-.8095044.2278263-1.09371 1.016-.992-.024-2.384-1.6-2.384-2.0671312.1264835-3.8509663-1.4343722-4-3.5.1490337-2.06562781 1.9328688-3.62648352 4-3.5 3.948 0 5.026 4.5 3 4.5-.5522847 0-1-.44771525-1-1 0-.813-.916-1.5-2-1.5s-2 .687-2 1.5.916 1.5 2 1.5c3.526 0 5.226 3.643 3 5.815-.1870666.1829133-.4383684.285229-.7.285z"/><path id="Shape" d="m23.7 16.1c-.2616316.000229-.5129334-.1020867-.7-.285-.6341066-.6036888-.9951463-1.4394957-1-2.315 0-.5522847.4477153-1 1-1s1 .4477153 1 1c.0079555.3367138.1523198.6557589.4.884.2914943.2842056.3815965.7167532.2278263 1.09371-.1537703.3769569-.5207131.6230642-.9278263.62229z"/><path id="Shape" d="m26 16c-.5522847 0-1-.4477153-1-1v-10c0-.55228475.4477153-1 1-1s1 .44771525 1 1v10c0 .5522847-.4477153 1-1 1z"/></g><path id="Shape" d="m37.87 17.77c.059-3.813 5.07-7.82 8.25-9.94 1.43-.95 3.78-2.9 5.32-1.08 1 1.18.4 2.65.18 3.96-.3280948 1.4266258-.341744 2.9075693-.04 4.34.9 3.45-1.33 9.15-5.34 10.6z" fill="#f9c795"/><path id="Shape" d="m5.76 25.65c-4.01-1.45-6.24-7.15-5.34-10.6.30174402-1.4324307.28809477-2.9133742-.04-4.34-.22-1.31-.82-2.78.18-3.96 1.54-1.82 3.89.13 5.32 1.08 3.18 2.12 8.191 6.127 8.25 9.94z" fill="#f9c795"/><path id="Shape" d="m8.036 21.89c-.83764635.0152469-1.64055058-.3343814-2.2-.958-1.13928912-1.3478151-1.69552796-3.0935272-1.546-4.852.26082712-1.005147.37931574-2.0419224.352-3.08-.00827002-.3101252.1278654-.6065253.36850567-.802327s.5585289-.2688272.86049433-.197673c1.10229658.3323741 2.05357965 1.0399108 2.689 2 .391.449 3.43 4.21 3.44 5h28c.01-.79 3.048-4.552 3.43-4.99.6371359-.9648169 1.5920894-1.67599 2.699-2.01.3019654-.0711542.6198541.0018713.8604943.197673.2406403.1958017.3767757.4922018.3685057.802327-.0277919 1.0308469.0907209 2.0604274.352 3.058.1521738 1.7644-.4036818 3.5168741-1.545 4.871-.558947.6244306-1.3620894.9745277-2.2.959z" fill="#f09372"/><path id="Shape" d="m8.66 32c-.022.13-.1-1.267 1.34 21h-4.51l-1.48-20.83c0-8.157 8.336-16.7 20.98-17.15-10.39.45-16.05 7.84-16.33 16.98z" fill="#f9c795"/><path id="Shape" d="m47.99 32.17-1.48 20.83h-4.51c1.441-22.242 1.364-20.859 1.34-21-.28-9.14-5.94-16.53-16.33-16.98 12.621.451 20.98 8.972 20.98 17.15z" fill="#f9c795"/><path id="Shape" d="m46 32.17-1.35 20.83h-8.65v-4.19c.0009264-.1627807-.0788841-.3154385-.2130829-.407575-.1341987-.0921364-.3053377-.1117723-.4569171-.052425-2.6291282.9749824-5.3976281 1.5219299-8.2 1.62-.7528025.0399937-1.5071975.0399937-2.26 0-2.8019862-.1013999-5.5699622-.648244-8.2-1.62-.1515794-.0593473-.3227184-.0397114-.4569171.052425-.1341988.0921365-.2140093.2447943-.2130829.407575v4.19h-8.65l-1.35-20.83c0-8.4 7.831-16.667 18.99-17.15 12.49-.377 21.01 8.366 21.01 17.15z" fill="#fdd7ad"/><ellipse id="Oval" cx="18" cy="28" fill="#fff" rx="4" ry="6"/><ellipse id="Oval" cx="34" cy="28" fill="#fff" rx="4" ry="6"/><ellipse id="Oval" cx="26" cy="41" fill="#f09372" rx="8" ry="5"/><path id="Shape" d="m24 43c-.5522847 0-1-.4477153-1-1v-2c0-.5522847.4477153-1 1-1s1 .4477153 1 1v2c0 .5522847-.4477153 1-1 1z" fill="#5f5346"/><path id="Shape" d="m28 43c-.5522847 0-1-.4477153-1-1v-2c0-.5522847.4477153-1 1-1s1 .4477153 1 1v2c0 .5522847-.4477153 1-1 1z" fill="#5f5346"/><circle id="Oval" cx="19" cy="28" fill="#464f5d" r="1"/><circle id="Oval" cx="33" cy="28" fill="#464f5d" r="1"/></g></svg>