<svg height="512" viewBox="0 0 59 59" width="512" xmlns="http://www.w3.org/2000/svg"><g id="022---Targeting-Cash" fill="none"><path id="Shape" d="m41 17c-.5522847 0-1-.4477153-1-1v-5c0-1.1045695-.8954305-2-2-2h-4c-1.1045695 0-2 .8954305-2 2v5c0 .5522847-.4477153 1-1 1s-1-.4477153-1-1v-5c0-2.209139 1.790861-4 4-4h4c2.209139 0 4 1.790861 4 4v5c0 .5522847-.4477153 1-1 1z" fill="#bdc3c7"/><path id="Shape" d="m36 13c-5.4116802-.0054781-10.650796 1.9038413-14.79 5.39l-2.82 2.82c-6.9355465 8.2598575-7.1999636 20.2296832-.6359301 28.7877505 6.5640334 8.5580673 18.1932604 11.4054739 27.9686014 6.8480889 9.7753411-4.557385 15.0709049-15.2953386 12.7359725-25.8250652-2.3349323-10.5297265-11.6731421-18.0226887-22.4586438-18.0207742z" fill="#bdc3c7"/><path id="Shape" d="m36 59c-8.9391693-.0015866-17.0676987-5.1825068-20.8434825-13.2851117-3.7757839-8.102605-2.5147923-17.6590072 3.2334825-24.5048883l2.82-2.82c4.139204-3.4861587 9.3783198-5.3954781 14.79-5.3900118z" fill="#ecf0f1"/><path id="Shape" d="m56 36c-.0110246 11.0411252-8.9588748 19.9889754-20 20v-40c11.0411252.0110246 19.9889754 8.9588748 20 20z" fill="#393f4a"/><path id="Shape" d="m52 36c-.0115689 8.8317596-7.1682404 15.9884311-16 16v-32c8.8317596.0115689 15.9884311 7.1682404 16 16z" fill="#2980ba"/><path id="Shape" d="m48 36c-.0055141 6.6251317-5.3748683 11.9944859-12 12v-24c6.6251317.0055141 11.9944859 5.3748683 12 12z" fill="#c03a2b"/><path id="Shape" d="m45 36c0 4.9705627-4.0294373 9-9 9v-18c4.9705627 0 9 4.0294373 9 9z" fill="#f0c419"/><path id="Shape" d="m50.2 38.6-3-4c-.3313708-.4418278-.2418278-1.0686292.2-1.4s1.0686292-.2418278 1.4.2l2.2 2.933 2.2-2.933c.3313708-.4418278.9581722-.5313708 1.4-.2s.5313708.9581722.2 1.4l-3 4c-.1888544.2518058-.4852427.4-.8.4s-.6111456-.1481942-.8-.4z" fill="#fff"/><path id="Shape" d="m23.288 26.291c-3.6754725 4.8395874-4.2961469 11.3421638-1.6025838 16.789679s8.2375449 8.901933 14.3145838 8.919321v4c-16.59 0-25.874-19.089-15.89-32.13l3.76-3.76c3.479101-2.6708457 7.7439396-4.1158982 12.13-4.110018v4.000018c-3.510016-.0025091-6.9227805 1.1532401-9.709 3.288z" fill="#464f5d"/><path id="Shape" d="m26.46 28.72c-2.7545734 3.6309222-3.2180793 8.5076385-1.1968477 12.5924755 2.0212316 4.0848369 6.1793147 6.6747296 10.7368477 6.6875245v4c-6.0770389-.017388-11.6210207-3.4718058-14.3145838-8.919321s-2.0728887-11.9500916 1.6025838-16.789679l3-3c2.7866509-2.1364583 6.2006082-3.293309 9.712-3.2910034v4.0000034c-2.6311519-.0028269-5.1898576.8617907-7.28 2.46z" fill="#3b97d3"/><path id="Shape" d="m28.43 31.14c-1.7722511 2.7697081-1.8941412 6.2851439-.3179826 9.1709508s4.5998033 4.683227 7.8879826 4.6890492v3c-4.5578789-.0120345-8.7165772-2.6018283-10.7379613-6.6869735s-1.5574264-8.9622905 1.1979613-12.5930265l2.26-2.26c2.0901424-1.5982093 4.6488481-2.4628269 7.28-2.4600069v3.0000069c-1.7244534-.0051198-3.4131219.4917518-4.86 1.43z" fill="#e64c3c"/><path id="Shape" d="m36 26.9999608v18.0000392c-3.2881793-.0058222-6.311824-1.8032423-7.8879826-4.6890492s-1.4542685-6.4012427.3179826-9.1709508l2.71-2.71c1.4468781-.9382482 3.1355466-1.4351198 4.86-1.4300392z" fill="#f3d55b"/><g fill="#fff"><path id="Shape" d="m36 42c-4.274 0-5.4-4.5-3.333-4.5.5522847 0 1 .4477153 1 1 0 .8 1.09 1.5 2.333 1.5s2.333-.7 2.333-1.5-1.09-1.5-2.333-1.5c-2.39 0-4.333-1.57-4.333-3.5s1.943-3.5 4.333-3.5c4.274 0 5.4 4.5 3.333 4.5-.5522847 0-1-.4477153-1-1 0-.8-1.09-1.5-2.333-1.5s-2.333.7-2.333 1.5 1.09 1.5 2.333 1.5c2.39 0 4.333 1.57 4.333 3.5s-1.943 3.5-4.333 3.5z"/><path id="Shape" d="m36 42.833c-.5522847 0-1-.4477153-1-1v-11.666c0-.5522847.4477153-1 1-1s1 .4477153 1 1v11.666c0 .5522847-.4477153 1-1 1z"/><path id="Shape" d="m36 52c-6.0773853-.0166271-11.6219828-3.4709461-14.3156984-8.9187699-2.6937157-5.4478237-2.072589-11.9508294 1.6036984-16.7902301.342402-.4152934.9520894-.4850686 1.3794651-.1578717s.5191007.9339702.2075349 1.3728717c-4.4727076 5.8577613-3.6380276 14.1800835 1.9088915 19.0329352s13.9063508 4.5742127 19.1178036-.6372401 5.4900918-13.5708845.6372401-19.1178036-13.1751739-6.3815991-19.0329352-1.9088915c-.4389015.3115658-1.0456748.2198408-1.3728717-.2075349s-.2574217-1.0370631.1578717-1.3794651c5.5458403-4.2388783 13.1996151-4.3932731 18.9118906-.3814975 5.7122755 4.0117755 8.164527 11.2637111 6.0593252 17.9189767-2.1052017 6.6552655-8.2819275 11.1776725-15.2622158 11.1745208z"/><path id="Shape" d="m24 39c-.3147573 0-.6111456-.1481942-.8-.4l-2.2-2.933-2.2 2.933c-.3313708.4418278-.9581722.5313708-1.4.2s-.5313708-.9581722-.2-1.4l3-4c.1967934-.2391708.4902738-.3777478.8-.3777478s.6032066.138577.8.3777478l3 4c.2272632.3030176.2638192.7084296.0944272 1.0472136s-.5156551.5527864-.8944272.5527864z"/></g><path id="Shape" d="m16.31 13.49 14.51 14.51c.7787215.7787215.7787215 2.0412785 0 2.82s-2.0412785.7787215-2.82 0l-14.51-14.51z" fill="#805333"/><path id="Shape" d="m16.72 9.07-6.72-7.67c-.28847832-.36081135-.75127415-.53482877-1.20601187-.45347661s-.8284966.40502846-.97398813.84347661l-.47 4.77c-.12621412.37181884-.41818116.66378588-.79.79l-4.77-.35c-.43844815.14549153-.76212445.51925041-.84347661.97398813s.09266526.91753355.45347661 1.20601187l7.67 7.54c.29048001.2375563.6719029.332912 1.04.26l4.9-.98c.5021429-.0950972.8949028-.4878571.99-.99l.98-4.9c.072912-.3680971-.0224437-.74951999-.26-1.04z" fill="#cbb292"/><path id="Shape" d="m15.66 15.66c-.4.38-.28.266-5.55 1.32-.3680971.072912-.74951999-.0224437-1.04-.26l-7.67-7.54c-.36081135-.28847832-.53482877-.75127415-.45347661-1.20601187s.40502846-.8284966.84347661-.97398813l4.77.35c.18255888-.06454231.34950461-.16675399.49-.3z" fill="#a59078"/></g></svg>