<svg height="512" viewBox="0 0 38 58" width="512" xmlns="http://www.w3.org/2000/svg"><g id="004---Time-is-Money" fill="none"><path id="Shape" d="m27.29 27.25c5.3459895-2.740669 8.7088217-8.2424324 8.71-14.25v-6c0-.55228475-.4477153-1-1-1h-32c-.55228475 0-1 .44771525-1 1v6c.00963007 6.0051851 3.3699851 11.5028957 8.71 14.25.6500917.3416876 1.0572017 1.0155822 1.0572017 1.75s-.40711 1.4083124-1.0572017 1.75c-5.3459895 2.740669-8.70882168 8.2424324-8.71 14.25v6c0 .5522847.44771525 1 1 1h32c.5522847 0 1-.4477153 1-1v-6c-.0011783-6.0075676-3.3640105-11.509331-8.71-14.25-.6500917-.3416876-1.0572017-1.0155822-1.0572017-1.75s.40711-1.4083124 1.0572017-1.75z" fill="#2980ba"/><path id="Shape" d="m33.05 6c-6.31.82-22.68 4.1-27.87 16.56-2.06886722-2.7573951-3.18498469-6.1127671-3.18-9.56v-6c0-.55228475.44771525-1 1-1z" fill="#3b97d3"/><path id="Shape" d="m32 12v1c.0092243 4.5084645-2.5145407 8.6400186-6.53 10.69-1.507.773-2.47 1.192-2.47 2.92.060462.572778-.1211551 1.1447665-.5009651 1.5777499s-.9232616.6875732-1.4990349.7022501c-1.1034291-.0027483-1.9972517-.8965709-2-2v2c.0377197.8240644-.4331395 1.587129-1.1866026 1.9229836-.7534631.3358545-1.6357358.1759454-2.2233974-.4029836-.3798589-.3704612-.5928231-.8794095-.59-1.41 0-3.285.345-3.87-2.44-5.29-.01-.01-.02-.01-.03-.02-4.01545932-2.0499814-6.53922432-6.1815355-6.53-10.69v-1c.0032948-1.1032019.89679813-1.9967052 2-2h22c1.1032019.0032948 1.9967052.8967981 2 2z" fill="#f0c419"/><path id="Shape" d="m21 24v4.89c-1.1034291-.0027483-1.9972517-.8965709-2-2v-2.89c0-.5522847.4477153-1 1-1s1 .4477153 1 1z" fill="#f29c1f"/><path id="Shape" d="m12 15h-2c-.55228475 0-1-.4477153-1-1s.44771525-1 1-1h2c.5522847 0 1 .4477153 1 1s-.4477153 1-1 1z" fill="#f3d55b"/><path id="Shape" d="m28 15h-12c-.5522847 0-1-.4477153-1-1s.4477153-1 1-1h12c.5522847 0 1 .4477153 1 1s-.4477153 1-1 1z" fill="#f3d55b"/><circle id="Oval" cx="19" cy="42" fill="#f29c1f" r="9"/><path id="Shape" d="m19 52c-5.5228475 0-10-4.4771525-10-10s4.4771525-10 10-10 10 4.4771525 10 10c-.0060624 5.5203344-4.4796656 9.9939376-10 10zm0-18c-4.418278 0-8 3.581722-8 8s3.581722 8 8 8 8-3.581722 8-8c-.0049599-4.4162219-3.5837781-7.9950401-8-8z" fill="#f0c419"/><path id="Shape" d="m18.064 47.705c-3.586 0-6.245-4.65-3.9-7 .3904653-.3910176 1.0239824-.3914653 1.415-.001s.3914653 1.0239824.001 1.415c-.566.565-.291 1.832.588 2.711s2.147 1.155 2.711.588.29-1.831-.589-2.71c-1.689-1.689-1.954-4.174-.59-5.539s3.85-1.1 5.54.589c3.021 3.022.635 7-.825 5.54-.187777-.1875683-.2932867-.4420908-.2932867-.7075s.1055097-.5199317.2932867-.7075c.566-.565.291-1.832-.588-2.711s-2.147-1.154-2.711-.588-.29 1.831.589 2.71c2.569 2.566 1.581 6.406-1.641 6.411z" fill="#f9eab0"/><path id="Shape" d="m14.875 47.125c-.4043959-.0000863-.7689341-.2437275-.923678-.6173454-.1547439-.373618-.0692299-.8036603.216678-1.0896546l8.25-8.25c.3923789-.3789722 1.0160848-.3735524 1.4018186.0121814s.3911536 1.0094397.0121814 1.4018186l-8.25 8.25c-.1874927.1875494-.4418052.2929434-.707.293z" fill="#f9eab0"/><rect id="Rectangle-path" fill="#805333" height="6" rx="2" width="38" y=".5"/><rect id="Rectangle-path" fill="#805333" height="6" rx="2" width="38" y="51.5"/><g fill="#a56a43"><rect id="Rectangle-path" height="6" rx="2" width="33.934" x="2.033" y=".5"/><rect id="Rectangle-path" height="6" rx="2" width="33.934" x="2.033" y="51.5"/></g></g></svg>