<svg height="512" viewBox="0 0 53 58" width="512" xmlns="http://www.w3.org/2000/svg"><g id="048---Wallet" fill="none"><path id="Shape" d="m51 36h-3v-17c0-1.6568542-1.3431458-3-3-3h-2v-10c-.0032948-1.10320187-.8967981-1.9967052-2-2h-7c-.0032948-1.10320187-.8967981-1.9967052-2-2h-7c-.0032948-1.10320187-.8967981-1.9967052-2-2h-16c-1.10320187.0032948-1.9967052.89679813-2 2v14c-2.76142375 0-5 2.2385763-5 5v32c0 2.7614237 2.23857625 5 5 5h40c1.6568542 0 3-1.3431458 3-3v-7h3c1.1032019-.0032948 1.9967052-.8967981 2-2v-8c-.0032948-1.1032019-.8967981-1.9967052-2-2z" fill="#71c285"/><path id="Shape" d="m35.76 37.76c-1.7086666 1.717653-2.2177645 4.2938451-1.2908946 6.5323235.92687 2.2384784 3.1081225 3.7006973 5.5308946 3.7076765h8v7c0 1.6568542-1.3431458 3-3 3h-40c-2.76142375 0-5-2.2385763-5-5v-32c0 2.7614237 2.23857625 5 5 5h40c1.6568542 0 3 1.3431458 3 3v7h-8c-1.5919979-.0048139-3.1193899.6291979-4.24 1.76z" fill="#a56a43"/><path id="Shape" d="m5 16v10c-2.76142375 0-5-2.2385763-5-5s2.23857625-5 5-5z" fill="#805333"/><path id="Shape" d="m48 19v10c0-1.6568542-1.3431458-3-3-3h-2v-10h2c1.6568542 0 3 1.3431458 3 3z" fill="#805333"/><path id="Shape" d="m53 38v8c-.0032948 1.1032019-.8967981 1.9967052-2 2h-11c-3.3137085 0-6-2.6862915-6-6s2.6862915-6 6-6h11c1.1032019.0032948 1.9967052.8967981 2 2z" fill="#cf976a"/><circle id="Oval" cx="40" cy="42" fill="#ecf0f1" r="2"/><path id="Shape" d="m43 9.9v16.1c0-4.67-3.95-8.5-9-8.95v-13.05h3.1c-.3314589 1.64438109.1822025 3.34551839 1.368342 4.53165796 1.1861396 1.18613957 2.8872769 1.69980094 4.531658 1.36834204z" fill="#24ae5f"/><path id="Shape" d="m43 6v3.9c-1.6442862.3309259-3.3450883-.18291292-4.5310877-1.3689123-1.1859994-1.18599937-1.6998382-2.88680151-1.3689123-4.5310877h3.9c1.1032019.0032948 1.9967052.89679813 2 2z" fill="#7ed09e"/><g fill="#4c8056"><path id="Shape" d="m25 26h-20c0-7.81 10.272-11.817 16.61-6.74h.01c2.1004423 1.6096261 3.3462867 4.0939431 3.38 6.74z"/><path id="Shape" d="m34 26h-9v-8.95c5.05.45 9 4.28 9 8.95z"/><path id="Shape" d="m43 26h-9v-8.95c5.05.45 9 4.28 9 8.95z"/></g><path id="Shape" d="m6 31h-2c-.55228475 0-1-.4477153-1-1s.44771525-1 1-1h2c.55228475 0 1 .4477153 1 1s-.44771525 1-1 1z" fill="#fac176"/><path id="Shape" d="m32 31h-22c-.55228475 0-1-.4477153-1-1s.44771525-1 1-1h22c.5522847 0 1 .4477153 1 1s-.4477153 1-1 1z" fill="#fac176"/><path id="Shape" d="m5 5.9v-3.9c.0032948-1.10320187.89679813-1.9967052 2-2h3.9c.3309259 1.64428619-.1829129 3.34508833-1.3689123 4.5310877-1.18599937 1.18599938-2.88680151 1.69983825-4.5310877 1.3689123z" fill="#7ed09e"/><path id="Shape" d="m25 2v3.9c-1.6442862.33092595-3.3450883-.18291292-4.5310877-1.3689123-1.1859994-1.18599937-1.6998382-2.88680151-1.3689123-4.5310877h3.9c1.1032019.0032948 1.9967052.89679813 2 2z" fill="#7ed09e"/><path id="Shape" d="m34 7.9v18.1c0-4.67-3.95-8.5-9-8.95v-15.05h3.1c-.3314589 1.64438109.1822025 3.34551839 1.368342 4.53165796 1.1861396 1.18613957 2.8872769 1.69980095 4.531658 1.36834204z" fill="#4fba6f"/><path id="Shape" d="m34 4v3.9c-1.6442862.33092595-3.3450883-.18291292-4.5310877-1.3689123-1.1859994-1.18599937-1.6998382-2.88680151-1.3689123-4.5310877h3.9c1.1032019.0032948 1.9967052.89679813 2 2z" fill="#7ed09e"/></g></svg>