<?xml version="1.0" encoding="iso-8859-1"?>
<!-- Generator: Adobe Illustrator 19.0.0, SVG Export Plug-In . SVG Version: 6.00 Build 0)  -->
<svg version="1.1" id="Layer_1" xmlns="http://www.w3.org/2000/svg" xmlns:xlink="http://www.w3.org/1999/xlink" x="0px" y="0px"
	 viewBox="0 0 503.322 503.322" style="enable-background:new 0 0 503.322 503.322;" xml:space="preserve">
<path style="fill:#546080;" d="M295.051,34.712V17.356C295.051,7.81,287.241,0,277.695,0h-52.068
	c-9.546,0-17.356,7.81-17.356,17.356v17.356h-34.712c-5.207,0-8.678,3.471-8.678,8.678v60.746c0,5.207,3.471,8.678,8.678,8.678
	h156.203c5.207,0,8.678-3.471,8.678-8.678V43.39c0-5.207-3.471-8.678-8.678-8.678H295.051z"/>
<path style="fill:#EFEADD;" d="M338.441,60.746v43.39c0,5.207-3.471,8.678-8.678,8.678H173.559c-5.207,0-8.678-4.339-8.678-8.678
	v-43.39h-52.068c-19.092,0-34.712,15.62-34.712,34.712V468.61c0,19.092,15.62,34.712,34.712,34.712h277.695
	c19.092,0,34.712-15.62,34.712-34.712V95.458c0-19.092-15.62-34.712-34.712-34.712H338.441z"/>
<g>
	<path style="fill:#F09372;" d="M260.339,355.797c-5.207,0-8.678-3.471-8.678-8.678V182.237c0-5.207,3.471-8.678,8.678-8.678
		s8.678,3.471,8.678,8.678v164.881C269.017,352.325,265.546,355.797,260.339,355.797"/>
	<path style="fill:#F09372;" d="M234.305,416.542L234.305,416.542c-19.092,0-34.712-15.62-34.712-34.712s15.62-34.712,34.712-34.712
		h34.712v34.712C269.017,400.922,253.397,416.542,234.305,416.542"/>
	<path style="fill:#F09372;" d="M303.729,312.407c-0.868,0-1.736,0-2.603-0.868c-4.339-1.736-6.942-6.075-5.207-11.281l5.207-16.488
		c6.075-19.092,1.736-39.919-11.281-54.671l-36.447-41.654c-3.471-3.471-2.603-8.678,0.868-12.149
		c3.471-3.471,8.678-2.603,12.149,0.868l36.447,41.654c17.356,19.092,22.563,46.861,14.753,71.159l-5.207,16.488
		C310.671,309.803,307.2,312.407,303.729,312.407"/>
</g>
<g>
</g>
<g>
</g>
<g>
</g>
<g>
</g>
<g>
</g>
<g>
</g>
<g>
</g>
<g>
</g>
<g>
</g>
<g>
</g>
<g>
</g>
<g>
</g>
<g>
</g>
<g>
</g>
<g>
</g>
</svg>
