<?xml version="1.0" encoding="iso-8859-1"?>
<!-- Generator: Adobe Illustrator 19.0.0, SVG Export Plug-In . SVG Version: 6.00 Build 0)  -->
<svg version="1.1" id="Layer_1" xmlns="http://www.w3.org/2000/svg" xmlns:xlink="http://www.w3.org/1999/xlink" x="0px" y="0px"
	 viewBox="0 0 503.322 503.322" style="enable-background:new 0 0 503.322 503.322;" xml:space="preserve">
<path style="fill:#D4D0BA;" d="M433.898,104.136h-86.78c-9.546,0-17.356-7.81-17.356-17.356V0L433.898,104.136z"/>
<path style="fill:#EFEADD;" d="M433.898,104.136h-86.78c-9.546,0-17.356-7.81-17.356-17.356V0H86.78
	c-9.546,0-17.356,7.81-17.356,17.356v468.61c0,9.546,7.81,17.356,17.356,17.356h329.763c9.546,0,17.356-7.81,17.356-17.356V104.136z
	"/>
<polygon style="fill:#FFFFFF;" points="121.492,295.051 208.271,295.051 208.271,225.627 121.492,225.627 "/>
<polygon style="fill:#F38774;" points="208.271,295.051 295.051,295.051 295.051,225.627 208.271,225.627 "/>
<polygon style="fill:#FFFFFF;" points="295.051,295.051 381.831,295.051 381.831,225.627 295.051,225.627 "/>
<polygon style="fill:#F38774;" points="121.492,225.627 208.271,225.627 208.271,156.203 121.492,156.203 "/>
<polygon style="fill:#FFFFFF;" points="208.271,225.627 295.051,225.627 295.051,156.203 208.271,156.203 "/>
<g>
	<polygon style="fill:#F38774;" points="295.051,225.627 381.831,225.627 381.831,156.203 295.051,156.203 	"/>
	<polygon style="fill:#F38774;" points="121.492,364.475 208.271,364.475 208.271,295.051 121.492,295.051 	"/>
</g>
<polygon style="fill:#FFFFFF;" points="208.271,364.475 295.051,364.475 295.051,295.051 208.271,295.051 "/>
<polygon style="fill:#F38774;" points="295.051,364.475 381.831,364.475 381.831,295.051 295.051,295.051 "/>
<polygon style="fill:#FFFFFF;" points="121.492,433.898 208.271,433.898 208.271,364.475 121.492,364.475 "/>
<polygon style="fill:#F38774;" points="208.271,433.898 295.051,433.898 295.051,364.475 208.271,364.475 "/>
<g>
	<polygon style="fill:#FFFFFF;" points="295.051,433.898 381.831,433.898 381.831,364.475 295.051,364.475 	"/>
	<path style="fill:#FFFFFF;" d="M177.898,190.915c0-6.942-6.075-13.017-13.017-13.017c-6.942,0-13.017,6.075-13.017,13.017
		s6.075,13.017,13.017,13.017C171.824,203.932,177.898,198.725,177.898,190.915"/>
	<path style="fill:#FFFFFF;" d="M264.678,260.339c0-6.942-6.075-13.017-13.017-13.017c-6.942,0-13.017,6.075-13.017,13.017
		c0,6.942,6.075,13.017,13.017,13.017C258.603,273.356,264.678,267.281,264.678,260.339"/>
	<path style="fill:#FFFFFF;" d="M264.678,400.054c0-6.942-6.075-13.017-13.017-13.017c-6.942,0-13.017,6.075-13.017,13.017
		c0,6.942,6.075,13.017,13.017,13.017C259.471,413.071,264.678,406.997,264.678,400.054"/>
	<path style="fill:#FFFFFF;" d="M351.458,190.915c0-6.942-6.075-13.017-13.017-13.017c-6.942,0-13.017,6.075-13.017,13.017
		s6.075,13.017,13.017,13.017C346.251,203.932,351.458,198.725,351.458,190.915"/>
	<path style="fill:#FFFFFF;" d="M177.898,329.763c0-6.942-6.075-13.017-13.017-13.017c-6.942,0-13.017,6.075-13.017,13.017
		c0,6.942,6.075,13.017,13.017,13.017C171.824,342.78,177.898,337.573,177.898,329.763"/>
	<path style="fill:#FFFFFF;" d="M352.325,329.763c0-6.942-6.075-13.017-13.017-13.017c-6.942,0-13.017,6.075-13.017,13.017
		c0,6.942,6.075,13.017,13.017,13.017S352.325,337.573,352.325,329.763"/>
</g>
<g>
</g>
<g>
</g>
<g>
</g>
<g>
</g>
<g>
</g>
<g>
</g>
<g>
</g>
<g>
</g>
<g>
</g>
<g>
</g>
<g>
</g>
<g>
</g>
<g>
</g>
<g>
</g>
<g>
</g>
</svg>
