<?xml version="1.0" encoding="iso-8859-1"?>
<!-- Generator: Adobe Illustrator 19.0.0, SVG Export Plug-In . SVG Version: 6.00 Build 0)  -->
<svg version="1.1" id="Layer_1" xmlns="http://www.w3.org/2000/svg" xmlns:xlink="http://www.w3.org/1999/xlink" x="0px" y="0px"
	 viewBox="0 0 503.322 503.322" style="enable-background:new 0 0 503.322 503.322;" xml:space="preserve">
<path style="fill:#D4D0BA;" d="M190.915,52.068h-43.39c-5.207,0-8.678-3.471-8.678-8.678V0L190.915,52.068z"/>
<path style="fill:#EFEADD;" d="M190.915,52.068h-43.39c-5.207,0-8.678-3.471-8.678-8.678V0H17.356c-5.207,0-8.678,4.339-8.678,8.678
	v234.305c0,5.207,3.471,8.678,8.678,8.678h164.881c5.207,0,8.678-3.471,8.678-8.678V52.068z"/>
<path style="fill:#D4D0BA;" d="M494.644,303.729h-43.39c-5.207,0-8.678-3.471-8.678-8.678v-43.39L494.644,303.729z"/>
<path style="fill:#EFEADD;" d="M494.644,303.729h-43.39c-5.207,0-8.678-3.471-8.678-8.678v-43.39H321.085
	c-5.207,0-8.678,3.471-8.678,8.678v234.305c0,5.207,3.471,8.678,8.678,8.678h164.881c5.207,0,8.678-3.471,8.678-8.678V303.729z"/>
<g>
	<path style="fill:#F38774;" d="M190.915,451.254H17.356c-5.207,0-8.678-3.471-8.678-8.678c0-5.207,3.471-8.678,8.678-8.678h173.559
		c5.207,0,8.678,3.471,8.678,8.678C199.593,447.783,196.122,451.254,190.915,451.254"/>
	<path style="fill:#F38774;" d="M190.915,451.254c-2.603,0-4.339-0.868-6.075-2.603l-34.712-34.712
		c-3.471-3.471-3.471-8.678,0-12.149c3.471-3.471,8.678-3.471,12.149,0l34.712,34.712c3.471,3.471,3.471,8.678,0,12.149
		C195.254,450.386,193.519,451.254,190.915,451.254"/>
	<path style="fill:#F38774;" d="M156.203,485.966c-2.603,0-4.339-0.868-6.075-2.603c-3.471-3.471-3.471-8.678,0-12.149
		l34.712-34.712c3.471-3.471,8.678-3.471,12.149,0c3.471,3.471,3.471,8.678,0,12.149l-34.712,34.712
		C160.542,485.098,158.807,485.966,156.203,485.966"/>
</g>
<g>
	<path style="fill:#26B999;" d="M485.966,95.458H312.407c-5.207,0-8.678-3.471-8.678-8.678c0-5.207,3.471-8.678,8.678-8.678h173.559
		c5.207,0,8.678,3.471,8.678,8.678C494.644,91.986,491.173,95.458,485.966,95.458"/>
	<path style="fill:#26B999;" d="M347.119,130.169c-2.603,0-4.339-0.868-6.075-2.603l-34.712-34.712
		c-3.471-3.471-3.471-8.678,0-12.149c3.471-3.471,8.678-3.471,12.149,0l34.712,34.712c3.471,3.471,3.471,8.678,0,12.149
		C351.458,129.302,349.722,130.169,347.119,130.169"/>
	<path style="fill:#26B999;" d="M312.407,95.458c-2.603,0-4.339-0.868-6.075-2.603c-3.471-3.471-3.471-8.678,0-12.149l34.712-34.712
		c3.471-3.471,8.678-3.471,12.149,0c3.471,3.471,3.471,8.678,0,12.149l-34.712,34.712C316.746,94.59,315.01,95.458,312.407,95.458"
		/>
</g>
<g>
</g>
<g>
</g>
<g>
</g>
<g>
</g>
<g>
</g>
<g>
</g>
<g>
</g>
<g>
</g>
<g>
</g>
<g>
</g>
<g>
</g>
<g>
</g>
<g>
</g>
<g>
</g>
<g>
</g>
</svg>
