<?xml version="1.0" encoding="iso-8859-1"?>
<!-- Generator: Adobe Illustrator 19.0.0, SVG Export Plug-In . SVG Version: 6.00 Build 0)  -->
<svg version="1.1" id="Layer_1" xmlns="http://www.w3.org/2000/svg" xmlns:xlink="http://www.w3.org/1999/xlink" x="0px" y="0px"
	 viewBox="0 0 503.322 503.322" style="enable-background:new 0 0 503.322 503.322;" xml:space="preserve">
<path style="fill:#D4D0BA;" d="M433.898,104.136h-86.78c-9.546,0-17.356-7.81-17.356-17.356V0L433.898,104.136z"/>
<path style="fill:#EFEADD;" d="M433.898,104.136h-86.78c-9.546,0-17.356-7.81-17.356-17.356V0H86.78
	c-9.546,0-17.356,7.81-17.356,17.356v468.61c0,9.546,7.81,17.356,17.356,17.356h329.763c9.546,0,17.356-7.81,17.356-17.356V104.136z
	"/>
<g>
	<path style="fill:#90BAE1;" d="M225.627,407.864h-52.068c-5.207,0-8.678-3.471-8.678-8.678c0-5.207,3.471-8.678,8.678-8.678h52.068
		c5.207,0,8.678,3.471,8.678,8.678C234.305,404.393,230.834,407.864,225.627,407.864z"/>
	<path style="fill:#90BAE1;" d="M329.763,407.864h-52.068c-5.207,0-8.678-3.471-8.678-8.678c0-5.207,3.471-8.678,8.678-8.678h52.068
		c5.207,0,8.678,3.471,8.678,8.678C338.441,404.393,334.969,407.864,329.763,407.864z"/>
	<path style="fill:#90BAE1;" d="M225.627,303.729h-52.068c-5.207,0-8.678-3.471-8.678-8.678c0-5.207,3.471-8.678,8.678-8.678h52.068
		c5.207,0,8.678,3.471,8.678,8.678C234.305,300.258,230.834,303.729,225.627,303.729z"/>
	<path style="fill:#90BAE1;" d="M329.763,303.729h-52.068c-5.207,0-8.678-3.471-8.678-8.678c0-5.207,3.471-8.678,8.678-8.678h52.068
		c5.207,0,8.678,3.471,8.678,8.678C338.441,300.258,334.969,303.729,329.763,303.729z"/>
	<path style="fill:#90BAE1;" d="M225.627,199.593h-52.068c-5.207,0-8.678-3.471-8.678-8.678s3.471-8.678,8.678-8.678h52.068
		c5.207,0,8.678,3.471,8.678,8.678S230.834,199.593,225.627,199.593z"/>
	<path style="fill:#90BAE1;" d="M329.763,199.593h-52.068c-5.207,0-8.678-3.471-8.678-8.678s3.471-8.678,8.678-8.678h52.068
		c5.207,0,8.678,3.471,8.678,8.678S334.969,199.593,329.763,199.593z"/>
	<path style="fill:#90BAE1;" d="M355.797,381.831c-5.207,0-8.678-3.471-8.678-8.678v-52.068c0-5.207,3.471-8.678,8.678-8.678
		c5.207,0,8.678,3.471,8.678,8.678v52.068C364.475,378.359,361.003,381.831,355.797,381.831z"/>
	<path style="fill:#90BAE1;" d="M147.525,277.695c-5.207,0-8.678-3.471-8.678-8.678v-52.068c0-5.207,3.471-8.678,8.678-8.678
		s8.678,3.471,8.678,8.678v52.068C156.203,274.224,152.732,277.695,147.525,277.695z"/>
</g>
<g>
	<path style="fill:#26B999;" d="M173.559,190.915c0-14.753-11.281-26.034-26.034-26.034c-14.753,0-26.034,11.281-26.034,26.034
		s11.281,26.034,26.034,26.034C162.278,216.949,173.559,205.668,173.559,190.915"/>
	<path style="fill:#26B999;" d="M277.695,190.915c0-14.753-11.281-26.034-26.034-26.034c-14.753,0-26.034,11.281-26.034,26.034
		s11.281,26.034,26.034,26.034C266.414,216.949,277.695,205.668,277.695,190.915"/>
	<path style="fill:#26B999;" d="M381.831,190.915c0-14.753-11.281-26.034-26.034-26.034c-14.753,0-26.034,11.281-26.034,26.034
		s11.281,26.034,26.034,26.034C370.549,216.949,381.831,205.668,381.831,190.915"/>
	<path style="fill:#26B999;" d="M173.559,295.051c0-14.753-11.281-26.034-26.034-26.034c-14.753,0-26.034,11.281-26.034,26.034
		c0,14.753,11.281,26.034,26.034,26.034C162.278,321.085,173.559,309.803,173.559,295.051"/>
	<path style="fill:#26B999;" d="M277.695,295.051c0-14.753-11.281-26.034-26.034-26.034c-14.753,0-26.034,11.281-26.034,26.034
		c0,14.753,11.281,26.034,26.034,26.034C266.414,321.085,277.695,309.803,277.695,295.051"/>
	<path style="fill:#26B999;" d="M381.831,295.051c0-14.753-11.281-26.034-26.034-26.034c-14.753,0-26.034,11.281-26.034,26.034
		c0,14.753,11.281,26.034,26.034,26.034C370.549,321.085,381.831,309.803,381.831,295.051"/>
	<path style="fill:#26B999;" d="M173.559,399.186c0-14.753-11.281-26.034-26.034-26.034c-14.753,0-26.034,11.281-26.034,26.034
		c0,14.753,11.281,26.034,26.034,26.034C162.278,425.22,173.559,413.939,173.559,399.186"/>
	<path style="fill:#26B999;" d="M277.695,399.186c0-14.753-11.281-26.034-26.034-26.034c-14.753,0-26.034,11.281-26.034,26.034
		c0,14.753,11.281,26.034,26.034,26.034C266.414,425.22,277.695,413.939,277.695,399.186"/>
	<path style="fill:#26B999;" d="M381.831,399.186c0-14.753-11.281-26.034-26.034-26.034c-14.753,0-26.034,11.281-26.034,26.034
		c0,14.753,11.281,26.034,26.034,26.034C370.549,425.22,381.831,413.939,381.831,399.186"/>
</g>
<g>
</g>
<g>
</g>
<g>
</g>
<g>
</g>
<g>
</g>
<g>
</g>
<g>
</g>
<g>
</g>
<g>
</g>
<g>
</g>
<g>
</g>
<g>
</g>
<g>
</g>
<g>
</g>
<g>
</g>
</svg>
