<svg id="Capa_1" enable-background="new 0 0 512 512" height="512" viewBox="0 0 512 512" width="512" xmlns="http://www.w3.org/2000/svg"><circle cx="256" cy="256" fill="#fe6a16" r="256"/><path d="m512 256c0-4.257-.104-8.489-.31-12.694l-162.475-162.476-203.063 349.17 80.315 80.315c9.69 1.113 19.545 1.685 29.533 1.685 141.385 0 256-114.615 256-256z" fill="#f24500"/><path d="m382.662 358.465h-56.126c-29.697 0-53.857-24.16-53.857-53.857v-76.894c0-29.697 24.16-53.857 53.857-53.857h56.126c29.697 0 53.857 24.16 53.857 53.857v76.894c.001 29.697-24.16 53.857-53.857 53.857zm-56.126-154.609c-13.155 0-23.857 10.702-23.857 23.857v76.894c0 13.155 10.702 23.857 23.857 23.857h56.126c13.155 0 23.857-10.702 23.857-23.857v-76.894c0-13.155-10.702-23.857-23.857-23.857z" fill="#ffa300"/><path d="m146.152 142.589h218.057v287.411h-218.057z" fill="#ffd400"/><path d="m255.839 142.589h108.37v287.411h-108.37z" fill="#fdba12"/><path d="m364.209 146.844h-218.057v-32.943c0-24.302 19.7-44.002 44.002-44.002h130.053c24.302 0 44.002 19.7 44.002 44.002z" fill="#fff"/><g fill="#e9edf5"><path d="m364.209 113.902c0-24.302-19.7-44.002-44.002-44.002h-64.368v76.945h108.37z"/><path d="m330.99 242.162c-10.066 0-18.225-8.16-18.225-18.225v-80.66c0-10.066 8.16-18.225 18.225-18.225 10.066 0 18.225 8.16 18.225 18.225v80.66c0 10.065-8.16 18.225-18.225 18.225z"/><path d="m277.71 207.548c-10.066 0-18.225-8.16-18.225-18.225v-80.66c0-10.066 8.16-18.225 18.225-18.225 10.066 0 18.225 8.16 18.225 18.225v80.66c0 10.065-8.16 18.225-18.225 18.225z"/></g><circle cx="192.106" cy="371.541" fill="#ffec8d" r="22.691"/><circle cx="302.486" cy="353.849" fill="#ffee6e" r="22.691"/><circle cx="224.989" cy="294.813" fill="#ffec8d" r="14.807"/><circle cx="192.106" cy="202.702" fill="#ffec8d" r="14.807"/><circle cx="287.679" cy="256.969" fill="#ffee6e" r="14.807"/></svg>