<svg id="Capa_1" enable-background="new 0 0 512 512" height="512" viewBox="0 0 512 512" width="512" xmlns="http://www.w3.org/2000/svg"><circle cx="256" cy="256" fill="#a7e340" r="256"/><path d="m512 256c0-.557-.002-1.115-.005-1.671l-156.536-156.536-2.381 77.619-77.619-77.619-7.865 72.135-72.135-72.135-55.287 267.159-48.672 25.048 117.739 117.739c15.161 2.798 30.79 4.261 46.761 4.261 141.385 0 256-114.615 256-256z" fill="#86c42b"/><circle cx="256" cy="116.5" fill="#fe6a16" r="27"/><path d="m256 89.5c-.054 0-.107.004-.161.004v53.992c.054 0 .107.004.161.004 14.912 0 27-12.088 27-27s-12.088-27-27-27z" fill="#f24500"/><circle cx="336" cy="116.5" fill="#f24500" r="27"/><circle cx="176" cy="116.5" fill="#fe6a16" r="27"/><path d="m128.25 135h255.5v226.755h-255.5z" fill="#fff"/><path d="m255.839 135h127.911v226.755h-127.911z" fill="#e9edf5"/><path d="m163.75 191h220v51.254h-220z" fill="#b46e5a"/><path d="m255.839 191h127.911v51.254h-127.911z" fill="#915041"/><path d="m163.75 276h220v51.254h-220z" fill="#b46e5a"/><path d="m255.839 276h127.911v51.254h-127.911z" fill="#915041"/><path d="m91.5 346h329v44h-329z" fill="#fe6a16"/><path d="m255.839 346h164.661v44h-164.661z" fill="#f24500"/></svg>