<svg id="Capa_1" enable-background="new 0 0 512 512" height="512" viewBox="0 0 512 512" width="512" xmlns="http://www.w3.org/2000/svg"><circle cx="256" cy="256" fill="#b46e5a" r="256"/><path d="m512 256c0-.402-.001-.803-.003-1.204l-87.304-87.304-16.722 11.168-136.971-136.971-46.75 46.75 49.228 49.228 4.129 159.925-130.1-130.1-70.943 226.184 108.316 108.315c22.579 6.517 46.442 10.009 71.12 10.009 141.385 0 256-114.615 256-256z" fill="#915041"/><path d="m287.75 58.439h-16.75v-16.75h-30v16.75h-16.75v30h16.75v39.25h30v-39.25h16.75z" fill="#f2f6fc"/><path d="m271 58.439v-16.75h-15.161v86h15.161v-39.25h16.75v-30z" fill="#dce1eb"/><path d="m337.686 198.725h-163.372v-7.265c0-45.114 36.572-81.686 81.686-81.686 45.114 0 81.686 36.572 81.686 81.686z" fill="#a7e340"/><path d="m337.686 191.46c0-45.114-36.572-81.686-81.686-81.686-.054 0-.107.004-.161.004v88.947h81.847z" fill="#86c42b"/><path d="m158.25 198.725h-81.686v-3.633c0-22.557 18.286-40.843 40.843-40.843 22.557 0 40.843 18.286 40.843 40.843z" fill="#a7e340"/><path d="m435.436 198.725h-81.686v-3.633c0-22.557 18.286-40.843 40.843-40.843 22.557 0 40.843 18.286 40.843 40.843z" fill="#86c42b"/><path d="m76.564 255.741h358.872v137.935h-358.872z" fill="#fff"/><path d="m255.839 255.741h179.597v137.935h-179.597z" fill="#e9edf5"/><path d="m174.314 198.348h163.372v195.327h-163.372z" fill="#dce1eb"/><path d="m255.839 198.349h81.847v195.327h-81.847z" fill="#bec3d2"/><path d="m76.564 198.348h81.686v195.327h-81.686z" fill="#dce1eb"/><path d="m353.75 198.348h81.686v195.327h-81.686z" fill="#bec3d2"/><path d="m300.5 393.676h-89v-79.867c0-24.577 19.923-44.5 44.5-44.5 24.577 0 44.5 19.923 44.5 44.5z" fill="#f2f6fc"/><path d="m300.5 313.808c0-24.577-19.923-44.5-44.5-44.5-.054 0-.107.004-.161.004v124.363h44.661z" fill="#dce1eb"/><path d="m97.407 296.012h40v97.664h-40z" fill="#f2f6fc"/><path d="m374.593 296.012h40v97.664h-40z" fill="#dce1eb"/><path d="m97.407 225.286h40v48.832h-40z" fill="#f2f6fc"/><path d="m374.593 225.286h40v48.832h-40z" fill="#dce1eb"/><path d="m164.5 185.651h183v32.59h-183z" fill="#f2f6fc"/><path d="m255.839 185.651h91.661v32.59h-91.661z" fill="#dce1eb"/><path d="m353.75 185.651h81.686v32.59h-81.686z" fill="#dce1eb"/><path d="m76.564 185.651h81.686v32.59h-81.686z" fill="#f2f6fc"/></svg>