<svg id="Capa_1" enable-background="new 0 0 512 512" height="512" viewBox="0 0 512 512" width="512" xmlns="http://www.w3.org/2000/svg"><circle cx="256" cy="256" fill="#a7e340" r="256"/><path d="m505.576 313.242-223.576-223.575-15.508 111.991-111.991-111.991-83.501 306 102.877 102.877c25.778 8.725 53.398 13.456 82.123 13.456 121.707 0 223.576-84.931 249.576-198.758z" fill="#86c42b"/><path d="m164.501 263.667h-72l10-174h52z" fill="#fe6a16"/><path d="m292 263.667h-72l10-174h52z" fill="#fe6a16"/><path d="m282 89.667h-26.161v174h36.161z" fill="#f24500"/><path d="m71 174.715 123.333 81.285v-85.89l123.334 85.89v-85.89l123.333 85.89v139.667h-370z" fill="#414952"/><path d="m441 256-123.333-85.89v85.89l-61.828-43.057v182.724h185.161z" fill="#23272b"/><path d="m212.56 282.888h86.88v41.333h-86.88z" fill="#7e8596"/><path d="m255.839 282.888h43.601v41.333h-43.601z" fill="#636978"/><path d="m95.56 282.888h86.88v41.333h-86.88z" fill="#7e8596"/><path d="m329.56 282.888h86.88v41.333h-86.88z" fill="#636978"/></svg>