<svg id="Capa_1" enable-background="new 0 0 512 512" height="512" viewBox="0 0 512 512" width="512" xmlns="http://www.w3.org/2000/svg"><circle cx="256" cy="256" fill="#fe6a16" r="256"/><path d="m269.628 511.643c127.819-6.704 230.802-107.165 241.462-233.898l-251.746-251.745 2.186 150.832-55.96 20.926 47.225 47.225-26.819 11.017 32.027 32.027-26.019 185.973z" fill="#f24500"/><path d="m268.077 147.529h-24.154l8.733-121.529h6.688z" fill="#f2f6fc"/><path d="m259.344 26h-3.505v121.529h12.238z" fill="#dce1eb"/><path d="m240.572 97.667h30.856v49.863h-30.856z" fill="#555a66"/><path d="m255.839 97.667h15.589v49.863h-15.589z" fill="#333940"/><path d="m280.016 474h-48.032l8.733-259.076h30.566z" fill="#555a66"/><path d="m271.283 214.924h-15.444v259.076h24.177z" fill="#333940"/><path d="m278.578 259.459h-45.157c-5.387 0-9.755-4.367-9.755-9.755v-7.998c0-5.387 4.367-9.755 9.755-9.755h45.157c5.388 0 9.755 4.367 9.755 9.755v7.998c0 5.388-4.367 9.755-9.755 9.755z" fill="#414952"/><path d="m278.578 231.952h-22.739v27.508h22.739c5.387 0 9.755-4.367 9.755-9.755v-7.998c0-5.388-4.367-9.755-9.755-9.755z" fill="#23272b"/><circle cx="256" cy="182.271" fill="#dce1eb" r="44.139"/><path d="m256 138.133c-.054 0-.107.004-.161.004v88.269c.054 0 .107.004.161.004 24.377 0 44.139-19.761 44.139-44.139s-19.762-44.138-44.139-44.138z" fill="#bec3d2"/><path d="m205.57 166.785h100.86v30.973h-100.86z" fill="#cdd2e1"/><path d="m255.839 166.785h50.591v30.973h-50.591z" fill="#afb4c8"/></svg>