<svg id="Capa_1" enable-background="new 0 0 512 512" height="512" viewBox="0 0 512 512" width="512" xmlns="http://www.w3.org/2000/svg"><circle cx="256" cy="256" fill="#a7e340" r="256"/><path d="m512 256c0-38.337-8.427-74.707-23.53-107.356l-132.616 3.139-53.087-53.087 6.504 54.19-115.351 2.73-56.92-56.92v58.268l-60 1.42 115.146 115.146-95.667 147.47 77.618 77.618c25.716 8.678 53.26 13.382 81.903 13.382 141.385 0 256-114.615 256-256z" fill="#86c42b"/><path d="m475.989 125h-398.989v33.383h415.73c-4.78-11.579-10.385-22.731-16.741-33.383z" fill="#b46e5a"/><path d="m475.989 125h-220.15v33.383h236.891c-4.78-11.579-10.385-22.731-16.741-33.383z" fill="#915041"/><path d="m194.044 244.374c0-57.784-22.01-109.739-57.045-145.678-35.033 35.939-57.044 87.894-57.044 145.678 0 49.952 16.449 95.547 43.539 130.207-10.831 13.864-19.957 29.48-27.015 46.42h81.041c-7.058-16.94-16.184-32.555-27.015-46.419 27.091-34.66 43.539-80.256 43.539-130.208z" fill="#707789"/><path d="m150.505 374.581c27.091-34.659 43.539-80.255 43.539-130.208 0-57.784-22.01-109.739-57.045-145.678l-.499 322.305h41.02c-7.058-16.94-16.184-32.555-27.015-46.419z" fill="#555a66"/><circle cx="123.742" cy="158.383" fill="#414952" r="11.383"/><path d="m359.811 244.374c0-57.784-22.01-109.739-57.045-145.678-35.033 35.939-57.044 87.894-57.044 145.678 0 49.952 16.449 95.547 43.539 130.207-10.831 13.864-19.957 29.48-27.015 46.42h81.041c-7.058-16.94-16.184-32.555-27.015-46.419 27.091-34.66 43.539-80.256 43.539-130.208z" fill="#707789"/><path d="m316.272 374.581c27.091-34.659 43.539-80.255 43.539-130.208 0-57.784-22.01-109.739-57.045-145.678l-.766 322.305h41.287c-7.058-16.94-16.184-32.555-27.015-46.419z" fill="#555a66"/><circle cx="288.847" cy="158.383" fill="#414952" r="11.383"/><path d="m405 349h-30c0-16.881 4.021-26.096 7.252-33.5 2.757-6.317 4.748-10.882 4.748-21.502 0-10.621-1.991-15.185-4.748-21.502-3.231-7.404-7.252-16.62-7.252-33.5 0-16.879 4.021-26.093 7.252-33.497 2.757-6.317 4.748-10.881 4.748-21.499h30c0 16.879-4.021 26.093-7.252 33.497-2.757 6.316-4.748 10.88-4.748 21.498 0 10.62 1.991 15.185 4.748 21.502 3.231 7.404 7.252 16.62 7.252 33.5s-4.021 26.096-7.252 33.5c-2.757 6.318-4.748 10.882-4.748 21.503z" fill="#e9edf5"/><path d="m228.884 349h-30c0-16.881 4.021-26.096 7.252-33.5 2.757-6.317 4.748-10.882 4.748-21.502 0-10.621-1.991-15.185-4.748-21.502-3.231-7.404-7.252-16.62-7.252-33.5 0-16.879 4.021-26.093 7.252-33.497 2.757-6.316 4.748-10.88 4.748-21.498h30c0 16.879-4.021 26.093-7.252 33.497-2.757 6.316-4.748 10.88-4.748 21.498 0 10.62 1.991 15.185 4.748 21.502 3.231 7.404 7.252 16.62 7.252 33.5s-4.021 26.096-7.252 33.5c-2.757 6.317-4.748 10.881-4.748 21.502z" fill="#fff"/><path d="m461 349h-30c0-16.881 4.021-26.096 7.252-33.5 2.757-6.317 4.748-10.882 4.748-21.502 0-10.621-1.991-15.185-4.748-21.502-3.231-7.404-7.252-16.62-7.252-33.5 0-16.879 4.021-26.093 7.252-33.497 2.757-6.317 4.748-10.881 4.748-21.499h30c0 16.879-4.021 26.093-7.252 33.497-2.757 6.316-4.748 10.88-4.748 21.498 0 10.62 1.991 15.185 4.748 21.502 3.231 7.404 7.252 16.62 7.252 33.5s-4.021 26.096-7.252 33.5c-2.757 6.318-4.748 10.882-4.748 21.503z" fill="#e9edf5"/></svg>