<svg id="Capa_1" enable-background="new 0 0 512 512" height="512" viewBox="0 0 512 512" width="512" xmlns="http://www.w3.org/2000/svg"><circle cx="256" cy="256" fill="#fe6a16" r="256"/><path d="m511.992 257.95-88.594-88.594-12.795 19.77-96.011-96.011-11.878 63.665-63.665-63.665-58.038 118.434-92.41 6.692 126.039 126.038-80.045 77.319 88.278 88.278c10.844 1.401 21.901 2.124 33.127 2.124 140.734 0 254.944-113.563 255.992-254.05z" fill="#f24500"/><path d="m239.049 421.598h-104.455l62.814-328.483h41.641z" fill="#414952"/><path d="m272.951 421.598h104.455l-62.814-328.483h-41.641z" fill="#23272b"/><path d="m423.398 169.356h-334.796v48.885h27.185v24.992h44.508v-24.992h191.41v24.992h44.508v-24.992h27.185z" fill="#f2f6fc"/><path d="m255.839 169.356v48.885h95.866v24.992h44.508v-24.992h27.185v-48.885z" fill="#dce1eb"/></svg>