<svg id="Capa_1" enable-background="new 0 0 512 512" height="512" viewBox="0 0 512 512" width="512" xmlns="http://www.w3.org/2000/svg"><circle cx="256" cy="256" fill="#b46e5a" r="256"/><path d="m512 256c0-11.05-.7-21.936-2.058-32.617l-109.263-109.263-4.747 6.715-41.878-41.878-275.097 275.096 37.318 37.318-4.954 6.509 112.062 112.062c10.681 1.358 21.567 2.058 32.617 2.058 141.385 0 256-114.615 256-256z" fill="#915041"/><path d="m114.12 400.679-2.799-2.799c-15.216-15.216-15.216-39.887 0-55.103l231.455-231.455c15.216-15.216 39.887-15.216 55.103 0l2.799 2.799c15.216 15.216 15.216 39.887 0 55.103l-231.454 231.455c-15.217 15.216-39.887 15.216-55.104 0z" fill="#fe6a16"/><path d="m111.321 342.776c-15.216 15.216-15.216 39.887 0 55.104l2.799 2.799c15.216 15.216 39.887 15.216 55.103 0l116.145-116.145-57.612-58.194z" fill="#fa5d0f"/><path d="m79.158 354.254-.201-.201c-20.907-20.907-20.907-54.805 0-75.712l199.384-199.384c20.907-20.907 54.805-20.907 75.712 0l.201.201c6.517 6.517 6.517 17.083 0 23.6l-251.496 251.496c-6.517 6.517-17.083 6.517-23.6 0z" fill="#ffe85f"/><path d="m432.842 157.746.201.201c20.907 20.907 20.907 54.805 0 75.712l-199.384 199.384c-20.907 20.907-54.805 20.907-75.712 0l-.201-.201c-6.517-6.517-6.517-17.083 0-23.6l251.496-251.496c6.517-6.517 17.083-6.517 23.6 0z" fill="#ffe85f"/><path d="m179.601 177.698-100.644 100.643c-20.907 20.907-20.907 54.805 0 75.712l.201.201c6.517 6.517 17.083 6.517 23.6 0l126.449-126.449z" fill="#ffbc00"/><path d="m157.746 409.242c-6.517 6.517-6.517 17.083 0 23.6l.201.201c20.907 20.907 54.805 20.907 75.712 0l99.866-99.866-49.606-50.108z" fill="#ffbc00"/><path d="m122.357 390.501c-3.839 0-7.677-1.464-10.606-4.394-5.858-5.858-5.858-15.355 0-21.213 12.697-12.697 24.975-14.198 33.94-15.295 7.082-.866 10.982-1.343 16.37-6.73 5.387-5.387 5.864-9.288 6.73-16.369 1.097-8.965 2.598-21.244 15.295-33.941 12.696-12.696 24.974-14.197 33.939-15.293 7.08-.865 10.98-1.343 16.366-6.728 5.386-5.386 5.863-9.286 6.729-16.367 1.096-8.965 2.597-21.243 15.293-33.939s24.974-14.197 33.938-15.292c7.08-.865 10.98-1.342 16.366-6.728 5.385-5.385 5.862-9.285 6.727-16.365 1.096-8.965 2.597-21.243 15.293-33.939 12.695-12.695 24.972-14.195 33.937-15.29 7.079-.865 10.979-1.341 16.362-6.725 5.857-5.858 15.355-5.858 21.213 0s5.858 15.355 0 21.213c-12.695 12.695-24.972 14.195-33.937 15.29-7.079.865-10.979 1.341-16.362 6.725-5.385 5.385-5.862 9.285-6.727 16.365-1.096 8.965-2.597 21.243-15.293 33.938s-24.974 14.197-33.938 15.293c-7.08.865-10.98 1.342-16.366 6.728s-5.862 9.286-6.729 16.367c-1.096 8.965-2.597 21.243-15.293 33.939s-24.974 14.197-33.939 15.293c-7.081.865-10.98 1.342-16.366 6.728-5.387 5.387-5.864 9.288-6.73 16.369-1.097 8.965-2.598 21.244-15.295 33.941s-24.975 14.199-33.94 15.295c-7.082.866-10.982 1.344-16.37 6.73-2.929 2.929-6.769 4.394-10.607 4.394z" fill="#ffd400"/><path d="m241.12 254.171c-.866 7.081-1.343 10.981-6.729 16.367-5.386 5.385-9.286 5.863-16.366 6.728-8.965 1.096-21.243 2.597-33.939 15.293-12.697 12.697-14.199 24.975-15.295 33.941-.866 7.082-1.343 10.982-6.73 16.369s-9.288 5.864-16.37 6.73c-8.965 1.097-21.244 2.599-33.94 15.295-5.858 5.858-5.858 15.355 0 21.213 2.929 2.929 6.767 4.394 10.606 4.394 3.838 0 7.678-1.465 10.606-4.393 5.387-5.387 9.288-5.864 16.37-6.73 8.965-1.096 21.244-2.598 33.94-15.295 12.697-12.697 14.199-24.975 15.295-33.941.866-7.082 1.343-10.982 6.73-16.369 5.386-5.385 9.286-5.862 16.366-6.728 8.965-1.096 21.243-2.597 33.939-15.293 8.309-8.309 11.823-16.439 13.567-23.579l-25.86-26.123c-1.25 4.445-1.754 8.547-2.19 12.121z" fill="#fcaf03"/></svg>