<svg id="Capa_1" enable-background="new 0 0 512 512" height="512" viewBox="0 0 512 512" width="512" xmlns="http://www.w3.org/2000/svg"><circle cx="256" cy="256" fill="#a7e340" r="256"/><path d="m512 256c0-7.881-.356-15.679-1.053-23.379l-138.106-138.105-260.235 316.484 96.763 96.763c15.121 2.783 30.706 4.237 46.631 4.237 141.385 0 256-114.615 256-256z" fill="#86c42b"/><path d="m228.585 156.404c0 31.329-16.981 60.196-44.363 75.417l-27.253 15.149c-27.382 15.221-44.363 44.088-44.363 75.417v88.613h286.787v-254.596c0-47.167-38.237-85.404-85.404-85.404-47.167 0-85.404 38.237-85.404 85.404z" fill="#414952"/><path d="m399.394 156.404c0-47.167-38.237-85.404-85.404-85.404-22.471 0-42.902 8.691-58.15 22.879v317.121h143.554z" fill="#23272b"/><path d="m122.793 350.114h266.414v48.785h-266.414z" fill="#fff"/><path d="m255.839 350.114h133.368v48.785h-133.368z" fill="#e9edf5"/><path d="m247.437 350.114h17.127v48.785h-17.127z" fill="#e9edf5"/><g fill="#cdd2e1"><path d="m255.839 350.114h8.724v48.785h-8.724z"/><path d="m284.545 350.114h17.127v48.785h-17.127z"/><path d="m321.653 350.114h17.127v48.785h-17.127z"/><path d="m358.761 350.114h17.127v48.785h-17.127z"/></g><path d="m173.221 350.114h17.127v48.785h-17.127z" fill="#e9edf5"/><path d="m136.113 350.114h17.127v48.785h-17.127z" fill="#e9edf5"/><path d="m210.329 350.114h17.127v48.785h-17.127z" fill="#e9edf5"/><path d="m144.935 350.114h16.608v29.064h-16.608z" fill="#7e8596"/><path d="m293.368 350.114h16.608v29.064h-16.608z" fill="#636978"/><path d="m255.839 350.114h16.608v29.064h-16.608z" fill="#636978"/><path d="m330.476 350.114h16.608v29.064h-16.608z" fill="#636978"/><path d="m182.043 350.114h16.608v29.064h-16.608z" fill="#7e8596"/></svg>