<svg id="Capa_1" enable-background="new 0 0 512 512" height="512" viewBox="0 0 512 512" width="512" xmlns="http://www.w3.org/2000/svg"><circle cx="256" cy="256" fill="#a7e340" r="256"/><path d="m512 256c0-11.641-.777-23.1-2.282-34.328l-143.718-143.718-236.175 340.529 91.14 91.14c11.454 1.567 23.15 2.377 35.035 2.377 141.385 0 256-114.615 256-256z" fill="#86c42b"/><path d="m146 77.954h220v44h-220z" fill="#fa5d0f"/><path d="m255.839 77.954h110.161v44h-110.161z" fill="#d13400"/><path d="m355.52 432.046h-199.04c-18.214 0-32.98-14.765-32.98-32.98v-244.133c0-18.214 14.765-32.98 32.98-32.98h199.04c18.214 0 32.98 14.765 32.98 32.98v244.134c0 18.214-14.765 32.979-32.98 32.979z" fill="#fff"/><path d="m355.521 121.954h-99.681v310.093h99.681c18.214 0 32.979-14.766 32.979-32.98v-244.134c0-18.214-14.766-32.979-32.979-32.979z" fill="#e9edf5"/><path d="m123.5 219h265v128h-265z" fill="#b46e5a"/><path d="m255.839 219h132.661v128h-132.661z" fill="#915041"/><g fill="#fff"><path d="m129.825 284.612 5.143-.608c.579 4.066 2.475 6.098 5.687 6.098 1.591 0 2.843-.416 3.754-1.247.912-.832 1.367-1.862 1.367-3.092 0-.723-.159-1.337-.477-1.844-.319-.506-.804-.922-1.454-1.247-.651-.325-2.229-.871-4.731-1.636-2.243-.678-3.885-1.415-4.927-2.21-1.041-.795-1.87-1.839-2.484-3.133-.615-1.294-.923-2.685-.923-4.174 0-1.735.395-3.296 1.184-4.684.788-1.388 1.877-2.436 3.266-3.144s3.104-1.063 5.144-1.063c3.067 0 5.461.832 7.184 2.496 1.722 1.664 2.633 4.044 2.734 7.14l-5.273.282c-.232-1.707-.731-2.901-1.498-3.581s-1.859-1.02-3.276-1.02c-1.419 0-2.511.296-3.277.887-.768.591-1.15 1.327-1.15 2.207 0 .865.348 1.594 1.044 2.185s2.296 1.242 4.798 1.951c2.647.767 4.56 1.574 5.738 2.42 1.179.846 2.078 1.938 2.7 3.276s.933 2.961.933 4.871c0 2.763-.85 5.084-2.55 6.965s-4.358 2.821-7.976 2.821c-6.398 0-9.957-3.639-10.68-10.916z"/><path d="m179.002 294.985h-5.71l-2.285-7.205h-10.443l-2.156 7.205h-5.6l10.159-31.815h5.578zm-9.69-12.587-3.602-11.806-3.535 11.806z"/><path d="m181.715 263.17h5.252v17.231c0 2.677.064 4.42.195 5.23.232 1.404.786 2.489 1.664 3.255.877.767 2.033 1.15 3.469 1.15 1.218 0 2.211-.271 2.979-.814.768-.542 1.294-1.295 1.576-2.257.283-.962.425-3.028.425-6.196v-17.6h5.251v16.711c0 4.268-.228 7.354-.684 9.256-.455 1.903-1.482 3.443-3.081 4.623s-3.708 1.769-6.326 1.769c-2.721 0-4.844-.488-6.37-1.465s-2.633-2.351-3.32-4.123c-.688-1.772-1.03-5.038-1.03-9.799z"/><path d="m208.082 294.985v-31.815h19.358v5.382h-14.106v7.053h13.108v5.36h-13.108v8.637h14.584v5.382h-19.836z"/><path d="m232.389 294.985v-31.815h11.09c2.836 0 4.861.286 6.077.857 1.215.572 2.213 1.563 2.994 2.973s1.173 3.1 1.173 5.068c0 2.489-.598 4.492-1.791 6.011s-2.89 2.474-5.089 2.865c1.128.811 2.062 1.697 2.8 2.658.737.962 1.743 2.688 3.017 5.176l3.168 6.207h-6.283l-3.813-6.923c-1.372-2.503-2.304-4.069-2.795-4.698-.492-.629-1.013-1.063-1.563-1.302-.551-.239-1.433-.358-2.648-.358h-1.085v13.282h-5.252zm5.252-18.36h3.906c2.388 0 3.907-.105 4.558-.315s1.18-.633 1.585-1.27c.404-.636.607-1.483.607-2.539 0-1.012-.203-1.826-.607-2.441-.405-.615-.955-1.038-1.649-1.27-.492-.159-1.918-.239-4.275-.239h-4.124v8.074z"/></g><path d="m258.735 294.985v-31.815h5.252v14.163l10.665-14.163h7.098l-9.837 12.4 10.358 19.415h-6.816l-7.198-14.951-4.27 5.337v9.614z" fill="#e9edf5"/><path d="m284.994 294.985v-31.815h11.09c2.836 0 4.861.286 6.077.857 1.215.572 2.213 1.563 2.994 2.973s1.173 3.1 1.173 5.068c0 2.489-.598 4.492-1.791 6.011s-2.89 2.474-5.089 2.865c1.128.811 2.062 1.697 2.8 2.658.737.962 1.743 2.688 3.017 5.176l3.168 6.207h-6.283l-3.813-6.923c-1.372-2.503-2.304-4.069-2.795-4.698-.492-.629-1.013-1.063-1.563-1.302-.551-.239-1.433-.358-2.648-.358h-1.085v13.282h-5.252zm5.252-18.36h3.906c2.388 0 3.907-.105 4.558-.315s1.18-.633 1.585-1.27c.404-.636.607-1.483.607-2.539 0-1.012-.203-1.826-.607-2.441-.405-.615-.955-1.038-1.649-1.27-.492-.159-1.918-.239-4.275-.239h-4.124v8.074z" fill="#e9edf5"/><path d="m334.822 294.985h-5.71l-2.285-7.205h-10.443l-2.156 7.205h-5.6l10.159-31.815h5.578zm-9.69-12.587-3.602-11.806-3.535 11.806z" fill="#e9edf5"/><path d="m337.535 263.17h5.252v17.231c0 2.677.064 4.42.195 5.23.232 1.404.786 2.489 1.664 3.255.877.767 2.033 1.15 3.469 1.15 1.218 0 2.211-.271 2.979-.814.768-.542 1.294-1.295 1.576-2.257.283-.962.425-3.028.425-6.196v-17.6h5.251v16.711c0 4.268-.228 7.354-.684 9.256-.455 1.903-1.482 3.443-3.081 4.623s-3.708 1.769-6.326 1.769c-2.721 0-4.844-.488-6.37-1.465s-2.633-2.351-3.32-4.123c-.688-1.772-1.03-5.038-1.03-9.799z" fill="#e9edf5"/><path d="m369.763 294.985v-26.433h-7.748v-5.382h20.726v5.382h-7.726v26.433z" fill="#e9edf5"/></svg>