<svg id="Capa_1" enable-background="new 0 0 512 512" height="512" viewBox="0 0 512 512" width="512" xmlns="http://www.w3.org/2000/svg"><circle cx="256" cy="256" fill="#a7e340" r="256"/><path d="m144.301 390.915 120.922 120.922c137.113-4.856 246.777-117.54 246.777-255.837 0-17.453-1.747-34.497-5.074-50.968l-113.417-113.417z" fill="#86c42b"/><path d="m352.9 402.833-96.9 62.09-96.9-62.09c-25.304-16.214-40.609-44.197-40.609-74.25v-236.968h275.018v236.968c0 30.053-15.305 58.036-40.609 74.25z" fill="#fff"/><path d="m256 91.615v373.308l96.9-62.09c25.304-16.214 40.609-44.197 40.609-74.25v-236.968z" fill="#e9edf5"/><path d="m249.845 191.765s-42.571-3.734-58.255-35.102-23.153-2.241-15.684 12.697c7.469 14.937 35.849 56.761 73.939 53.027 38.09-3.735 0-30.622 0-30.622z" fill="#915041"/><path d="m265.491 149.194s-13.817.373-19.792 4.108c-5.975 3.734-13.443-10.617-13.443-10.617s-7.418.535-3.149 8.003c4.269 7.469 25.555 16.431 36.384 15.311 10.83-1.121 0-16.805 0-16.805z" fill="#f24500"/><path d="m265.491 149.194s-4.51.123-9.491.924v15.044c3.524.774 6.825 1.111 9.491.835 10.829-1.119 0-16.803 0-16.803z" fill="#d13400"/><path d="m256.449 287.363s-36.524 1.494-46.892 29.128c-10.367 27.634-1.405 53.027-10.367 50.786s-29.127-16.902-29.127.138 41.824 28.243 49.293 21.521 5.228-49.293 49.293-56.014c44.064-6.722-12.2-45.559-12.2-45.559z" fill="#915041"/><path d="m256.449 287.363s-.16.007-.449.026v48.847c3.73-1.458 7.921-2.593 12.648-3.314 44.065-6.722-12.199-45.559-12.199-45.559z" fill="#61362b"/><path d="m295.365 120.813s11.95-6.722 14.19 4.481c2.241 11.203-3.734 7.146-3.734 17.39s1.996 28.915-3.109 47.587 8.338 101.573 18.047 117.257-11.203 5.975-7.842 22.406 16.057 38.09 13.817 44.812c-2.241 6.722-31.267 27.634-39.906 24.646-8.64-2.987-13.019-18.671 0-22.406 13.019-3.734 13.121-5.228 0-11.95s-48.223-67.964-51.957-100.079c0 0-34.355 6.722-50.786.747s-33.609-32.115-26.14-37.343 8.215-10.456 27.634 8.962 38.09-12.697 49.293-33.609 31.368-27.634 35.102-31.368-25.393-1.494-25.393-1.494v-6.722s23.899.747 19.418-8.962-13.484-8.215-22.426-16.431c-8.942-8.215-8.236-10.456 0-11.95s17.945-6.987 28.401-7.975 25.391 2.001 25.391 2.001z" fill="#b46e5a"/><path d="m312.917 329.934c-3.361-16.431 17.551-6.722 7.842-22.405-9.709-15.685-23.153-98.585-18.047-117.257s3.109-37.343 3.109-47.587 5.975-6.187 3.734-17.39-14.19-4.481-14.19-4.481-14.937-2.987-25.393-2c-4.843.458-9.522 1.883-13.972 3.428v24.917c3.266 1.701 6.056 3.804 7.997 8.01 2.236 4.845-2.595 7.086-7.997 8.116v6.973c7.693-.224 16.083-.022 13.972 2.089-1.796 1.796-7.398 4.29-13.972 8.716v140.964c11.216 21.243 23.998 39.511 30.827 43.009 13.121 6.722 13.019 8.215 0 11.95s-8.64 19.418 0 22.406c8.64 2.987 37.666-17.924 39.906-24.646 2.241-6.723-10.456-28.381-13.816-44.812z" fill="#915041"/></svg>