<svg id="Layer_2" enable-background="new 0 0 64 64" height="512" viewBox="0 0 64 64" width="512" xmlns="http://www.w3.org/2000/svg"><path d="m60 41h-46c-1.105 0-2-.895-2-2v-28c0-1.105.895-2 2-2h46c1.105 0 2 .895 2 2v28c0 1.105-.895 2-2 2z" fill="#ffe352"/><path d="m12 15h50v5h-50z" fill="#6e83b7"/><path d="m14 23h46v6h-46z" fill="#edeff1"/><path d="m50 55h-46c-1.105 0-2-.895-2-2v-28c0-1.105.895-2 2-2h46c1.105 0 2 .895 2 2v28c0 1.105-.895 2-2 2z" fill="#80d6fb"/><g fill="#6e83b7"><path d="m2 29h50v5h-50z"/><path d="m4 48h6v2h-6z"/><path d="m12 48h6v2h-6z"/><path d="m20 48h6v2h-6z"/><path d="m28 48h6v2h-6z"/></g><circle cx="47" cy="49" fill="#ffb0aa" r="3"/><circle cx="42" cy="49" fill="#ffe352" r="3"/><path d="m4 37h46v6h-46z" fill="#edeff1"/></svg>