<svg id="Layer_2" enable-background="new 0 0 64 64" height="512" viewBox="0 0 64 64" width="512" xmlns="http://www.w3.org/2000/svg"><path d="m2 16h56v36h-56z" fill="#edeff1"/><circle cx="57" cy="16" fill="#ffb0aa" r="5"/><g fill="#d3d3d3"><path d="m58 26v2l-28 14-28-14v-2l28 14z"/><path d="m26 38 2 1-26 13v-2z"/><path d="m58 50v2l-26-13 2-1z"/></g><circle cx="30" cy="27" fill="#ffe352" r="8"/><path d="m31 26h-2c-.552 0-1-.449-1-1s.448-1 1-1h2c.552 0 1 .449 1 1h2c0-1.654-1.346-3-3-3v-1h-2v1c-1.654 0-3 1.346-3 3s1.346 3 3 3h2c.552 0 1 .449 1 1s-.448 1-1 1h-2c-.552 0-1-.449-1-1h-2c0 1.654 1.346 3 3 3v1h2v-1c1.654 0 3-1.346 3-3s-1.346-3-3-3z" fill="#6e83b7"/></svg>