<svg id="Layer_2" enable-background="new 0 0 64 64" height="512" viewBox="0 0 64 64" width="512" xmlns="http://www.w3.org/2000/svg"><path d="m54 56h-44v-54h35l9 9z" fill="#edeff1"/><circle cx="32" cy="14" fill="#ffe352" r="8"/><g fill="#6e83b7"><path d="m33 13h-2c-.552 0-1-.449-1-1s.448-1 1-1h2c.552 0 1 .449 1 1h2c0-1.654-1.346-3-3-3v-1h-2v1c-1.654 0-3 1.346-3 3s1.346 3 3 3h2c.552 0 1 .449 1 1s-.448 1-1 1h-2c-.552 0-1-.449-1-1h-2c0 1.654 1.346 3 3 3v1h2v-1c1.654 0 3-1.346 3-3s-1.346-3-3-3z"/><path d="m15 25h8v2h-8z"/><path d="m15 30h8v2h-8z"/><path d="m15 35h8v2h-8z"/></g><path d="m28 25h21v2h-21z" fill="#d3d3d3"/><path d="m28 30h21v2h-21z" fill="#d3d3d3"/><path d="m28 35h21v2h-21z" fill="#d3d3d3"/><path d="m54 11h-9v-9z" fill="#d3d3d3"/><circle cx="44" cy="52" fill="#98ca69" r="10"/><circle cx="44" cy="52" fill="#edeff1" r="8"/><path d="m43 55.914-3.707-3.707 1.414-1.414 2.293 2.293 5.043-5.043 1.414 1.414z" fill="#98ca69"/></svg>