<svg id="Layer_2" enable-background="new 0 0 64 64" height="512" viewBox="0 0 64 64" width="512" xmlns="http://www.w3.org/2000/svg"><path d="m7 2h50v26h-50z" fill="#98ca69"/><circle cx="32" cy="15" fill="#75aa40" r="8"/><path d="m48.791 5.5c.673 2.254 2.455 4.036 4.709 4.709v9.582c-2.254.673-4.036 2.455-4.709 4.709h-33.582c-.673-2.254-2.455-4.036-4.709-4.709v-9.582c2.254-.673 4.036-2.455 4.709-4.709zm1.709-2h-37c0 2.761-2.239 5-5 5v13c2.761 0 5 2.239 5 5h37c0-2.761 2.239-5 5-5v-13c-2.761 0-5-2.239-5-5z" fill="#75aa40"/><path d="m33 14h-2c-.552 0-1-.449-1-1s.448-1 1-1h2c.552 0 1 .449 1 1h2c0-1.654-1.346-3-3-3v-1h-2v1c-1.654 0-3 1.346-3 3s1.346 3 3 3h2c.552 0 1 .449 1 1s-.448 1-1 1h-2c-.552 0-1-.449-1-1h-2c0 1.654 1.346 3 3 3v1h2v-1c1.654 0 3-1.346 3-3s-1.346-3-3-3z" fill="#98ca69"/><path d="m2 30h60v10h-60z" fill="#edeff1"/><path d="m21 58h15v4l12-10-12-10v4h-15z" fill="#80d6fb"/><path d="m52 30h10v10h-10z" fill="#6e83b7"/><path d="m59 34-2-3-2 3z" fill="#edeff1"/><path d="m55 36 2 3 2-3z" fill="#edeff1"/><path d="m5 31h2v8h-2z" fill="#d3d3d3"/></svg>