<svg id="Layer_2" enable-background="new 0 0 64 64" height="512" viewBox="0 0 64 64" width="512" xmlns="http://www.w3.org/2000/svg"><path d="m43 62h-22c-2.209 0-4-1.791-4-4v-52c0-2.209 1.791-4 4-4h22c2.209 0 4 1.791 4 4v52c0 2.209-1.791 4-4 4z" fill="#6e83b7"/><path d="m47 19h-21c-1.105 0-2 .895-2 2v24c0 1.105.895 2 2 2h21z" fill="#466089"/><path d="m19 52v-46c0-1.105.895-2 2-2h22c1.105 0 2 .895 2 2v46z" fill="#80d6fb"/><path d="m45 19h-19c-1.105 0-2 .895-2 2v24c0 1.105.895 2 2 2h19z" fill="#46bee8"/><circle cx="32" cy="57" fill="#466089" r="3"/><path d="m54 46h-28c-1.105 0-2-.895-2-2v-24c0-1.105.895-2 2-2h28c1.105 0 2 .895 2 2v24c0 1.105-.895 2-2 2z" fill="#ffe352"/><path d="m56 25h-5c-3.86 0-7 3.14-7 7s3.14 7 7 7h5z" fill="#ffb236"/><path d="m58 38h-7c-3.314 0-6-2.686-6-6 0-3.314 2.686-6 6-6h7z" fill="#ffe352"/><circle cx="51" cy="32" fill="#6e83b7" r="3"/><path d="m26 15h28v3h-28z" fill="#98ca69"/><path d="m26 17h28v1h-28z" fill="#75aa40"/></svg>