<svg id="Layer_2" enable-background="new 0 0 64 64" height="512" viewBox="0 0 64 64" width="512" xmlns="http://www.w3.org/2000/svg"><path d="m50 41h-46c-1.105 0-2-.895-2-2v-28c0-1.105.895-2 2-2h46c1.105 0 2 .895 2 2v28c0 1.105-.895 2-2 2z" fill="#6e83b7"/><path d="m4 25h46v6h-46z" fill="#edeff1"/><path d="m14 22h-8c-.552 0-1-.448-1-1v-6c0-.552.448-1 1-1h8c.552 0 1 .448 1 1v6c0 .552-.448 1-1 1z" fill="#ffe352"/><path d="m8.5 17.5h-3.5v-1h2.5v-2.5h1z" fill="#ffb236"/><path d="m15 17.5h-3.5v-3.5h1v2.5h2.5z" fill="#ffb236"/><path d="m12.5 22h-1v-3.5h3.5v1h-2.5z" fill="#ffb236"/><path d="m8.5 22h-1v-2.5h-2.5v-1h3.5z" fill="#ffb236"/><g fill="#6e83b7"><path d="m8 27h6v2h-6z"/><path d="m16 27h6v2h-6z"/><path d="m24 27h6v2h-6z"/><path d="m32 27h6v2h-6z"/><path d="m40 27h6v2h-6z"/></g><path d="m2 33h50v4h-50z" fill="#466089"/><circle cx="50" cy="43" fill="#80d6fb" r="12"/><circle cx="50" cy="43" fill="#edeff1" r="9"/><path d="m56 42h-5v-5h-2v5h-5v2h5v5h2v-5h5z" fill="#80d6fb"/></svg>