<svg id="Layer_2" enable-background="new 0 0 64 64" height="512" viewBox="0 0 64 64" width="512" xmlns="http://www.w3.org/2000/svg"><path d="m2 21h60v40h-60z" fill="#edeff1"/><path d="m4 23h56v36h-56z" fill="#80d6fb"/><path d="m18 35 7 3h6l2 5 5 5 6-2 6 1h4l3-3h3v-21h-34l-2 8h-3z" fill="#ffb0aa"/><path d="m26 23-2 8h-3l-3 4h-2l-2 3h-2l-1 2-2 2-2 7v2l-3 2v-30z" fill="#ffe352"/><path d="m16 29c0 2.209-4 6-4 6s-4-3.791-4-6 1.791-4 4-4 4 1.791 4 4z" fill="#ffb0aa"/><circle cx="12" cy="29" fill="#edeff1" r="2"/><path d="m35 59v-6l3-5 6-2 6 1h4l3-3h3v15z" fill="#98ca69"/><path d="m56 46c0 2.209-4 6-4 6s-4-3.791-4-6 1.791-4 4-4 4 1.791 4 4z" fill="#ffe352"/><circle cx="52" cy="46" fill="#edeff1" r="2"/><path d="m20 51-2 1-1 4-2 1-1 2h6l1-4v-3z" fill="#98ca69"/><path d="m27 50 2 1-2 3h-2l-1 1-1-1 2-3z" fill="#98ca69"/><g fill="#6e83b7"><path d="m13 24h-2v-12c0-1.654 1.346-3 3-3h.556v2h-.556c-.552 0-1 .448-1 1z"/><path d="m13.855 12.393 4.145-2.393-4.145-2.393z"/><path d="m53 37.556h-2v-25.556c0-.552-.448-1-1-1h-4v-2h4c1.654 0 3 1.346 3 3z"/><path d="m49.607 36.855 2.393 4.145 2.393-4.145z"/></g><path d="m19 3h26v14h-26z" fill="#98ca69"/><circle cx="32" cy="10" fill="#75aa40" r="4"/><path d="m32.52 9.5h-1.04c-.298 0-.54-.242-.54-.54s.242-.54.54-.54h1.039c.298 0 .54.242.54.54h1c0-.85-.69-1.54-1.54-1.54h-.019v-.54h-1v.54h-.02c-.85 0-1.54.69-1.54 1.54s.69 1.54 1.54 1.54h1.039c.298 0 .54.242.54.54s-.242.54-.54.54h-1.039c-.298 0-.54-.242-.54-.54h-1c0 .85.69 1.54 1.54 1.54h.02v.54h1v-.54h.02c.85 0 1.54-.69 1.54-1.54s-.691-1.54-1.54-1.54z" fill="#98ca69"/><path d="m41.171 5c.302.851.978 1.527 1.829 1.829v6.343c-.851.302-1.527.977-1.829 1.829h-18.342c-.302-.851-.977-1.527-1.829-1.829v-6.343c.851-.302 1.527-.978 1.829-1.829zm.829-1h-20c0 1.1-.9 2-2 2v8c1.1 0 2 .9 2 2h20c0-1.1.9-2 2-2v-8c-1.1 0-2-.9-2-2z" fill="#75aa40"/></svg>