<svg id="Layer_2" enable-background="new 0 0 64 64" height="512" viewBox="0 0 64 64" width="512" xmlns="http://www.w3.org/2000/svg"><path d="m43 62h-22c-2.209 0-4-1.791-4-4v-52c0-2.209 1.791-4 4-4h22c2.209 0 4 1.791 4 4v52c0 2.209-1.791 4-4 4z" fill="#6e83b7"/><path d="m19 52v-46c0-1.105.895-2 2-2h22c1.105 0 2 .895 2 2v46z" fill="#80d6fb"/><circle cx="32" cy="57" fill="#466089" r="3"/><path d="m38.6 39h-13.2c-2.43 0-4.4-1.97-4.4-4.4v-13.2c0-2.43 1.97-4.4 4.4-4.4h13.2c2.43 0 4.4 1.97 4.4 4.4v13.2c0 2.43-1.97 4.4-4.4 4.4z" fill="#46bee8"/><path d="m38.6 37h-13.2c-2.43 0-4.4-1.97-4.4-4.4v-13.2c0-2.43 1.97-4.4 4.4-4.4h13.2c2.43 0 4.4 1.97 4.4 4.4v13.2c0 2.43-1.97 4.4-4.4 4.4z" fill="#edeff1"/><path d="m25 22h14v8h-14z" fill="#98ca69"/><circle cx="32" cy="26" fill="#75aa40" r="2"/><path d="m37.5 29.5h-11v-.5c0-.276-.224-.5-.5-.5h-.5v-5h.5c.276 0 .5-.224.5-.5v-.5h11v.5c0 .276.224.5.5.5h.5v5h-.5c-.276 0-.5.224-.5.5zm-10.085-1h9.171c.151-.426.489-.764.915-.915v-3.171c-.426-.151-.764-.489-.915-.915h-9.171c-.151.426-.489.764-.915.915v3.171c.426.151.764.489.915.915z" fill="#75aa40"/><g fill="#6e83b7"><path d="m38 21h-12.414l4.707-4.707 1.414 1.414-1.293 1.293h7.586z"/><path d="m33.707 35.707-1.414-1.414 1.293-1.293h-7.586v-2h12.414z"/></g></svg>