<?xml version="1.0" encoding="UTF-8"?>
<svg xmlns="http://www.w3.org/2000/svg" xmlns:xlink="http://www.w3.org/1999/xlink" width="512" height="512" viewBox="0 0 58 58" version="1.1"><!-- Generator: Sketch 51.3 (57544) - http://www.bohemiancoding.com/sketch --><title>097 - Autism</title><desc>Created with Sketch.</desc><defs/><g id="Page-1" stroke="none" stroke-width="1" fill="none" fill-rule="evenodd"><g id="097---Autism" fill-rule="nonzero"><path d="M39.213,21.22 C37.943,20.57 36.672,22.5 36.672,22.5 L36.593,22.49 C36.7559709,19.4955491 36.7559709,16.4944509 36.593,13.5 C36,0.64 21.193,0 21.193,0 L18.813,0 C18.813,0 4,0.64 3.412,13.5 C3.24902908,16.4944509 3.24902908,19.4955491 3.412,22.49 L3.333,22.5 C3.333,22.5 2.063,20.57 0.792,21.22 C-0.467,21.85 0.153,27.64 0.153,27.64 C0.153,27.64 0.783,32.1 4.533,34.04 C4.373,37.76 4.093,41.14 8.153,45 C8.63507511,45.4551694 9.09239821,45.9358594 9.523,46.44 L9.523,55.96 C9.52298624,57.060676 10.4123377,57.9544966 11.513,57.96 L28.492,57.96 C29.5926623,57.9544966 30.4820138,57.060676 30.482,55.96 L30.482,46.44 C30.9126018,45.9358594 31.3699249,45.4551694 31.852,45 C35.912,41.14 35.633,37.76 35.472,34.04 C39.222,32.1 39.852,27.64 39.852,27.64 C39.852,27.64 40.472,21.85 39.213,21.22 Z" id="Shape" fill="#F29C1F"/><path d="M4.593,32.14 C4.593,32.79 4.573,33.42 4.533,34.04 C0.783,32.1 0.153,27.64 0.153,27.64 C0.153,27.64 -0.467,21.85 0.792,21.22 C2.063,20.57 3.333,22.5 3.333,22.5 L3.412,22.49 C3.732,27.45 4.593,29.02 4.593,32.14 Z" id="Shape" fill="#F29C1F"/><path d="M36.593,22.49 C36.273,27.45 35.412,29.02 35.412,32.14 C35.412,32.79 35.433,33.42 35.472,34.04 C35.633,37.76 35.912,41.14 31.852,45 C31.3699249,45.4551694 30.9126018,45.9358594 30.482,46.44 C27.063,50.41 26.6,54 22.373,54 L17.633,54 C13.403,54 12.943,50.41 9.523,46.44 C9.09239821,45.9358594 8.63507511,45.4551694 8.153,45 C4.093,41.14 4.373,37.76 4.533,34.04 C4.573,33.42 4.593,32.79 4.593,32.14 C4.593,29.02 3.732,27.45 3.412,22.49 C3.24902908,19.4955491 3.24902908,16.4944509 3.412,13.5 C4,0.64 18.813,0 18.813,0 L21.193,0 C21.193,0 36.003,0.64 36.593,13.5 C36.7559709,16.4944509 36.7559709,19.4955491 36.593,22.49 Z" id="Shape" fill="#F0C419"/><path d="M30.485,46.44 L30.485,55.96 C30.4850138,57.060676 29.5956623,57.9544966 28.495,57.96 L11.515,57.96 C10.4143377,57.9544966 9.52498624,57.060676 9.525,55.96 L9.525,46.44 C12.945,50.41 13.405,54 17.635,54 L22.375,54 C26.605,54 27.065,50.41 30.485,46.44 Z" id="Shape" fill="#F29C1F"/><path d="M50,23 L50,36 C50,37.1045695 49.1045695,38 48,38 L35,38 L35,32.5 C33.9686129,33.2735403 32.5181311,33.1359168 31.6506276,32.1822074 C30.7831241,31.228498 30.7831241,29.771502 31.6506276,28.8177926 C32.5181311,27.8640832 33.9686129,27.7264597 35,28.5 L35,23 L40.5,23 C39.7264597,21.9686129 39.8640832,20.5181311 40.8177926,19.6506276 C41.771502,18.7831241 43.228498,18.7831241 44.1822074,19.6506276 C45.1359168,20.5181311 45.2735403,21.9686129 44.5,23 L50,23 Z" id="Shape" fill="#955BA5"/><path d="M31,30.5 C31,31.4469301 31.5350059,32.3125879 32.381966,32.736068 C33.2289261,33.159548 34.2424559,33.0681581 35,32.5 L35,38 L22,38 C20.8954305,38 20,37.1045695 20,36 L20,23 L25.5,23 C24.7264597,21.9686129 24.8640832,20.5181311 25.8177926,19.6506276 C26.771502,18.7831241 28.228498,18.7831241 29.1822074,19.6506276 C30.1359168,20.5181311 30.2735403,21.9686129 29.5,23 L35,23 L35,28.5 C34.2424559,27.9318419 33.2289261,27.840452 32.381966,28.263932 C31.5350059,28.6874121 31,29.5530699 31,30.5 Z" id="Shape" fill="#B49ACA"/><path d="M38.936,16.074 C38.742753,16.8958707 38.1477383,17.5646828 37.3539445,17.8522717 C36.5601507,18.1398606 35.6748268,18.0073704 35,17.5 L35,23 L29.5,23 C30.2735403,21.9686129 30.1359168,20.5181311 29.1822074,19.6506276 C28.228498,18.7831241 26.771502,18.7831241 25.8177926,19.6506276 C24.8640832,20.5181311 24.7264597,21.9686129 25.5,23 L20,23 L20,10 C20,8.8954305 20.8954305,8 22,8 L35,8 L35,13.5 C35.8416465,12.8665321 36.9900688,12.8285972 37.8716847,13.4051418 C38.7533007,13.9816864 39.1789335,15.0489958 38.936,16.074 Z" id="Shape" fill="#955BA5"/><path d="M58,2 L58,15 L52.5,15 C53.2735403,13.9686129 53.1359168,12.5181311 52.1822074,11.6506276 C51.228498,10.7831241 49.771502,10.7831241 48.8177926,11.6506276 C47.8640832,12.5181311 47.7264597,13.9686129 48.5,15 L44,15 C43.4477153,15 43,14.5522847 43,14 L43,9.5 C44.0313871,10.2735403 45.4818689,10.1359168 46.3493724,9.18220743 C47.2168759,8.22849804 47.2168759,6.77150196 46.3493724,5.81779257 C45.4818689,4.86408318 44.0313871,4.72645969 43,5.5 L43,0 L56,0 C57.1045695,0 58,0.8954305 58,2 Z" id="Shape" fill="#B49ACA"/></g></g></svg>
