<?xml version="1.0" encoding="UTF-8"?>
<svg xmlns="http://www.w3.org/2000/svg" xmlns:xlink="http://www.w3.org/1999/xlink" width="512" height="512" viewBox="0 0 40 58" version="1.1"><!-- Generator: Sketch 51.3 (57544) - http://www.bohemiancoding.com/sketch --><title>057 - Calm</title><desc>Created with Sketch.</desc><defs/><g id="Page-1" stroke="none" stroke-width="1" fill="none" fill-rule="evenodd"><g id="057---Calm" transform="translate(-1.000000, 0.000000)" fill-rule="nonzero"><path d="M40.208,21.26 C38.937,20.61 37.667,22.54 37.667,22.54 L37.588,22.53 C37.7509709,19.5355491 37.7509709,16.5344509 37.588,13.54 C37,0.68 22.187,0.04 22.187,0.04 L19.807,0.04 C19.807,0.04 4.997,0.68 4.407,13.54 C4.24402908,16.5344509 4.24402908,19.5355491 4.407,22.53 L4.328,22.54 C4.328,22.54 3.057,20.61 1.787,21.26 C0.528,21.89 1.148,27.68 1.148,27.68 C1.148,27.68 1.778,32.14 5.528,34.08 C5.367,37.8 5.088,41.18 9.148,45.04 C9.63007511,45.4951694 10.0873982,45.9758594 10.518,46.48 L10.518,56 C10.5179862,57.100676 11.4073377,57.9944966 12.508,58 L29.487,58 C30.5876623,57.9944966 31.4770138,57.100676 31.477,56 L31.477,46.48 C31.9076018,45.9758594 32.3649249,45.4951694 32.847,45.04 C36.907,41.18 36.628,37.8 36.467,34.08 C40.217,32.14 40.847,27.68 40.847,27.68 C40.847,27.68 41.467,21.89 40.208,21.26 Z" id="Shape" fill="#B0D3F0"/><path d="M37.588,22.53 C37.268,27.49 36.407,29.06 36.407,32.18 C36.407,32.83 36.427,33.46 36.467,34.08 C36.627,37.8 36.907,41.18 32.847,45.04 C32.3649249,45.4951694 31.9076018,45.9758594 31.477,46.48 C28.057,50.45 27.597,54.04 23.367,54.04 L18.627,54.04 C14.398,54.04 13.937,50.45 10.518,46.48 C10.0873982,45.9758594 9.63007511,45.4951694 9.148,45.04 C5.088,41.18 5.367,37.8 5.528,34.08 C5.567,33.46 5.588,32.83 5.588,32.18 C5.588,29.06 4.727,27.49 4.407,22.53 C4.24402908,19.5355491 4.24402908,16.5344509 4.407,13.54 C4.997,0.68 19.807,0.04 19.807,0.04 L22.187,0.04 C22.187,0.04 36.997,0.68 37.587,13.54 C37.750304,16.5344328 37.7506378,19.535531 37.588,22.53 Z" id="Shape" fill="#B0D3F0"/><path d="M5.588,32.18 C5.588,32.83 5.567,33.46 5.528,34.08 C1.778,32.14 1.148,27.68 1.148,27.68 C1.148,27.68 0.528,21.89 1.787,21.26 C3.057,20.61 4.328,22.54 4.328,22.54 L4.407,22.53 C4.727,27.49 5.588,29.06 5.588,32.18 Z" id="Shape" fill="#90BAE1"/><path d="M40.847,27.68 C40.847,27.68 40.217,32.14 36.467,34.08 C36.427,33.46 36.407,32.83 36.407,32.18 C36.407,29.06 37.268,27.49 37.588,22.53 L37.667,22.54 C37.667,22.54 38.937,20.61 40.208,21.26 C41.467,21.89 40.847,27.68 40.847,27.68 Z" id="Shape" fill="#90BAE1"/><path d="M31.477,46.48 L31.477,56 C31.4770138,57.100676 30.5876623,57.9944966 29.487,58 L12.508,58 C11.4073377,57.9944966 10.5179862,57.100676 10.518,56 L10.518,46.48 C13.937,50.45 14.398,54.04 18.627,54.04 L23.367,54.04 C27.6,54.04 28.057,50.45 31.477,46.48 Z" id="Shape" fill="#90BAE1"/><path d="M25.565,11.612 L22.238,25.94 L21.927,27.276 L21.677,26.56 L21.039,24.681 L16.582,11.672 C16.72,11.224 16.876,10.793 17.048,10.372 C18.0014996,8.03229264 19.3550401,5.87644099 21.048,4.001 C22.7526131,5.85640004 24.1207568,7.994738 25.091,10.32 C25.263,10.733 25.427,11.164 25.565,11.612 Z" id="Shape" fill="#DF4D60"/><path d="M21.039,21.75 L21.039,24.681 L16.582,11.672 C16.72,11.224 16.876,10.793 17.048,10.372 C17.7780658,11.0511876 18.4209831,11.8183888 18.962,12.656 C20.2503583,14.7917453 20.9657575,17.2238272 21.039,19.717 C21.0740258,20.3942141 21.0740258,21.0727859 21.039,21.75 Z" id="Shape" fill="#A73A48"/><path d="M25.565,11.612 L22.238,25.94 L21.677,26.56 L21.039,27.276 L21.039,21.75 C21.0049514,21.0724275 21.0049514,20.3935725 21.039,19.716 C21.1097299,17.2235329 21.8223657,14.7914783 23.108,12.655 C23.6652612,11.7939017 24.3318173,11.0086898 25.091,10.319 C25.263,10.733 25.427,11.164 25.565,11.612 Z" id="Shape" fill="#A73A48"/><path d="M21.039,23.474 L21.039,29 L19.367,27.129 L8.393,14.853 C8.293,14.276 8.238,13.707 8.203,13.164 C8.08248818,11.3456238 8.20422094,9.51929608 8.565,7.733 C11.5005978,8.42347413 14.2415658,9.77019649 16.582,11.672 C17.5019478,12.4546119 18.3036137,13.3664226 18.962,14.379 C20.2503583,16.5147453 20.9657575,18.9468272 21.039,21.44 C21.0740603,22.1175467 21.0740603,22.7964533 21.039,23.474 Z" id="Shape" fill="#FF5364"/><path d="M33.876,13.164 C33.841,13.707 33.781,14.276 33.686,14.853 L33.677,14.853 L22.729,27.112 L21.039,29 L21.039,23.474 C21.0049514,22.7964275 21.0049514,22.1175725 21.039,21.44 C21.1097299,18.9475329 21.8223657,16.5154783 23.108,14.379 C23.7850806,13.339796 24.6131653,12.4072319 25.565,11.612 C27.891672,9.74208994 30.6073957,8.41668829 33.513,7.733 C33.8744317,9.51920881 33.9965036,11.3455794 33.876,13.164 Z" id="Shape" fill="#FF5364"/><path d="M21.091,27.267 C21.0733857,27.2680548 21.0559442,27.2710735 21.039,27.276 C21.031,27.276 21.048,29 21.039,29 C20.832,28.991 20.212,27.241 19.367,27.129 L8.393,14.853 C8.293,14.276 8.238,13.707 8.203,13.164 C10.9347325,13.4462 13.5343752,14.4816949 15.712,16.155 C19.798,19.509 20.824,25.233 21.039,26.836 C21.082,27.112 21.091,27.267 21.091,27.267 Z" id="Shape" fill="#DF4D60"/><path d="M33.876,13.164 C33.841,13.707 33.781,14.276 33.686,14.853 L33.677,14.853 L22.729,27.112 C21.919,27.224 21.272,28.991 21.039,29 L21.031,27.267 L20.988,27.267 C20.988,27.267 20.996,27.112 21.039,26.836 C21.123968,26.1923307 21.2421254,25.5534797 21.393,24.922 L21.401,24.879 C22.0713346,21.6862381 23.6719321,18.7634079 26.001,16.479 L26.001,16.47 C26.122,16.358 26.243,16.255 26.372,16.151 C28.4963275,14.5208899 31.0223511,13.4963126 33.682,13.186 L33.876,13.164 Z" id="Shape" fill="#DF4D60"/><path d="M21.091,28.931 C21.0677703,28.9318492 21.0446703,28.9348622 21.022,28.94 C20.255,29.009 13.643,29.509 9.151,25.819 C4.367,21.888 3.763,14.707 3.763,14.707 C4.41955297,14.6477191 5.07905926,14.6276835 5.738,14.647 C8.212,14.681 12.496,15.181 15.712,17.819 C20.5,21.75 21.091,28.931 21.091,28.931 Z" id="Shape" fill="#FF5364"/><path d="M21.091,28.931 C21.0677703,28.9318492 21.0446703,28.9348622 21.022,28.94 C20.229,28.914 13.634,28.586 9.622,24.379 C6.751,21.353 5.949,17.095 5.734,14.647 C8.208,14.681 12.492,15.181 15.708,17.819 C20.5,21.75 21.091,28.931 21.091,28.931 Z" id="Shape" fill="#FB7B76"/><path d="M38.307,14.707 C38.307,14.707 37.712,21.888 32.927,25.819 C28.41,29.519 21.781,29.009 21.057,28.931 L20.988,28.931 C20.988,28.931 20.996,28.776 21.039,28.5 C21.1238798,27.8563167 21.242038,27.2174612 21.393,26.586 L21.401,26.543 C22.0713346,23.3502381 23.6719321,20.4274079 26.001,18.143 L26.001,18.134 C26.122,18.022 26.243,17.918 26.372,17.815 C28.496519,16.1850549 31.0224017,15.1601892 33.682,14.849 C34.5417733,14.7255258 35.4085141,14.656721 36.277,14.643 C36.9543373,14.6193479 37.6324977,14.6407284 38.307,14.707 Z" id="Shape" fill="#FF5364"/><path d="M36.272,14.647 C36.057,17.112 35.255,21.319 32.427,24.328 C28.444,28.552 21.85,28.905 21.057,28.928 L20.988,28.928 C20.988,28.928 20.996,28.773 21.039,28.497 C21.1238798,27.8533167 21.242038,27.2144612 21.393,26.583 L21.401,26.54 C22.0713346,23.3472381 23.6719321,20.4244079 26.001,18.14 L26.001,18.131 C26.122,18.019 26.243,17.915 26.372,17.812 C28.496519,16.1820549 31.0224017,15.1571892 33.682,14.846 C34.540269,14.7250788 35.4053323,14.6586126 36.272,14.647 Z" id="Shape" fill="#FB7B76"/></g></g></svg>
