<?xml version="1.0" encoding="UTF-8"?>
<svg xmlns="http://www.w3.org/2000/svg" xmlns:xlink="http://www.w3.org/1999/xlink" width="512" height="512" viewBox="0 0 58 59" version="1.1"><!-- Generator: Sketch 51.3 (57544) - http://www.bohemiancoding.com/sketch --><title>042 - Goal</title><desc>Created with Sketch.</desc><defs/><g id="Page-1" stroke="none" stroke-width="1" fill="none" fill-rule="evenodd"><g id="042---Goal" fill-rule="nonzero"><path d="M17.851,51.3 C21.281,52.851 22.783,59 22.783,59 L47.883,58.931 C47.4121814,57.9546289 46.877696,57.01026 46.283,56.104 C45.8079274,55.1351664 45.409054,54.1307944 45.09,53.1 C44.5026366,51.1113602 44.0959865,49.0737587 43.875,47.012 C43.5021266,43.8441928 43.9794793,40.6342289 45.258,37.712 C46.385,35.142 48.342,33.106 49.835,30.753 C51.3118424,28.4546935 52.1069104,25.7848183 52.128,23.053 C52.1837766,20.2855688 51.8440127,17.524356 51.119,14.853 C50.1713082,11.6167572 48.1935564,8.77810583 45.486,6.768 C40.534,2.88 35.474,0.706 29.069,1.032 C25.8639061,1.25519593 22.6794183,1.71241457 19.541,2.4 C16.123,3.088 12.504,4.366 10.051,6.956 C8.37766038,8.74409793 7.08486958,10.8533882 6.251,13.156 C5.86015176,14.3014161 5.54218297,15.470419 5.299,16.656 C4.88921474,17.9456944 4.39515102,19.2070768 3.82,20.432 C3.65097873,20.8051029 3.57743674,21.214395 3.606,21.623 C3.8,23.007 5.874,23.6 5.89,25.029 C5.86871908,25.3444419 5.77163847,25.6500914 5.607,25.92 C4.39034374,28.4911042 2.89684314,30.921815 1.153,33.169 C0.742,33.674 -0.095,34.669 0.009,35.383 C0.083,35.89 0.691,36.311 1.066,36.59 C1.866,37.184 3.495,37.59 3.698,38.662 C3.80398936,39.2078042 3.73831308,39.7730394 3.51,40.28 C2.956,41.447 2.343,42.069 2.778,42.435 C3.213,42.801 4.378,43.68 4.378,43.68 C4.378,43.68 3.272,45.094 3.884,45.528 C4.645,46.068 5.612,46.317 5.871,47.328 C5.94680483,48.1291298 5.86666115,48.9373584 5.635,49.708 C5.5563755,50.461975 5.65499664,51.2238918 5.923,51.933 C6.28395493,53.3512509 7.70070311,54.2311447 9.132,53.926 C12.0837266,53.209144 14.9943455,52.3325199 17.851,51.3" id="Shape" fill="#F3D55B"/><path d="M9.227,17.467 C8.96351193,17.4090801 8.73460382,17.2471569 8.59224806,17.0179942 C8.4498923,16.7888316 8.40616709,16.5118728 8.471,16.25 C8.62815969,15.5552533 8.82515171,14.8701218 9.061,14.198 C9.7565457,12.2734195 10.8341474,10.509391 12.229,9.012 C13.853,7.3 16.516,6.06 20.145,5.338 C20.6867913,5.23030449 21.2133045,5.58220868 21.321,6.12400001 C21.4286955,6.66579133 21.0767913,7.19230446 20.535,7.3 C17.321,7.939 15.015,8.978 13.682,10.386 C12.4735494,11.6858491 11.5402067,13.2164768 10.938,14.886 C10.7285574,15.4871971 10.5536061,16.0998605 10.414,16.721 C10.2880679,17.2518234 9.7599176,17.5837527 9.227,17.467 Z" id="Shape" fill="#F5EFCA"/><circle id="Oval" fill="#F5EFCA" cx="8" cy="21" r="1"/><path d="M49,12 L49,26 L31,26 L31,10 L47,10 C48.1032019,10.0032948 48.9967052,10.8967981 49,12 Z" id="Shape" fill="#E64C3C"/><path d="M58,17 L58,31 C58,31.5522847 57.5522847,32 57,32 L40,32 L49,26 L49,16 L57,16 C57.5522847,16 58,16.4477153 58,17 Z" id="Shape" fill="#C03A2B"/><polygon id="Shape" fill="#802F34" points="49 26 40 32 40 26"/><path d="M40,15 L31,15 C30.4477153,15 30,14.5522847 30,14 C30,13.4477153 30.4477153,13 31,13 L40,13 C40.5522847,13 41,13.4477153 41,14 C41,14.5522847 40.5522847,15 40,15 Z" id="Shape" fill="#C03A2B"/><path d="M37,19 L31,19 C30.4477153,19 30,18.5522847 30,18 C30,17.4477153 30.4477153,17 31,17 L37,17 C37.5522847,17 38,17.4477153 38,18 C38,18.5522847 37.5522847,19 37,19 Z" id="Shape" fill="#C03A2B"/><path d="M34,23 L31,23 C30.4477153,23 30,22.5522847 30,22 C30,21.4477153 30.4477153,21 31,21 L34,21 C34.5522847,21 35,21.4477153 35,22 C35,22.5522847 34.5522847,23 34,23 Z" id="Shape" fill="#C03A2B"/><rect id="Rectangle-path" fill="#95A5A5" x="27" y="6.23" width="4" height="31.77"/><path d="M37,41 L37,43 L21,43 L21,41 C21,38.790861 22.790861,37 25,37 L33,37 C35.209139,37 37,38.790861 37,41 Z" id="Shape" fill="#95A5A5"/><path d="M37,41 L21,41 C21,38.790861 22.790861,37 25,37 L33,37 C35.209139,37 37,38.790861 37,41 Z" id="Shape" fill="#BDC3C7"/><circle id="Oval" fill="#BDC3C7" cx="29" cy="4" r="4"/><circle id="Oval" fill="#E6E7E8" cx="28" cy="3" r="2"/></g></g></svg>
