<?xml version="1.0" encoding="UTF-8"?>
<svg xmlns="http://www.w3.org/2000/svg" xmlns:xlink="http://www.w3.org/1999/xlink" width="512" height="512" viewBox="0 0 58 58" version="1.1"><!-- Generator: Sketch 51.3 (57544) - http://www.bohemiancoding.com/sketch --><title>002 - Love</title><desc>Created with Sketch.</desc><defs/><g id="Page-1" stroke="none" stroke-width="1" fill="none" fill-rule="evenodd"><g id="002---Love"><path d="M18.72,50.3 C22.149,51.851 23.652,58 23.652,58 L48.746,57.931 C48.2755957,56.9544122 47.7410951,56.0100165 47.146,55.104 C46.6725523,54.1351747 46.2756732,53.1307732 45.959,52.1 C45.3713088,50.1113891 44.9643241,48.073788 44.743,46.012 C44.3709743,42.844112 44.8486519,39.634284 46.127,36.712 C47.254,34.142 49.211,32.106 50.703,29.753 C52.1821574,27.4555352 52.9787015,24.7853611 53,22.053 C53.056116,19.285616 52.7166887,16.5244021 51.992,13.853 C51.0439103,10.6166836 49.0658224,7.77805373 46.358,5.768 C41.4,1.88 36.342,-0.294 29.938,0.032 C26.7328989,0.255128449 23.5484062,0.712347803 20.41,1.4 C16.992,2.088 13.373,3.366 10.92,5.956 C9.24666038,7.74409793 7.95386958,9.85338818 7.12,12.156 C6.72915176,13.3014161 6.41118297,14.470419 6.168,15.656 C5.75858569,16.9487526 5.26451756,18.2131528 4.689,19.441 C4.5196763,19.814028 4.44579184,20.2233135 4.474,20.632 C4.666,22.016 6.742,22.611 6.759,24.038 C6.73675722,24.3532587 6.63974717,24.6586861 6.476,24.929 C5.25897289,27.4999033 3.76549632,29.930575 2.022,32.178 C1.61,32.683 0.774,33.678 0.878,34.392 C0.952,34.899 1.56,35.32 1.935,35.599 C2.735,36.193 4.364,36.599 4.567,37.671 C4.67208167,38.2169291 4.60607672,38.7819874 4.378,39.289 C3.825,40.456 3.212,41.078 3.647,41.444 C4.082,41.81 5.247,42.689 5.247,42.689 C5.247,42.689 4.14,44.103 4.753,44.537 C5.513,45.077 6.481,45.326 6.739,46.337 C6.81580147,47.1381317 6.73563877,47.9465522 6.503,48.717 C6.42489413,49.4709685 6.52349984,50.2327661 6.791,50.942 C7.15504357,52.3575719 8.57041671,53.2344064 10,52.93 C12.9521039,52.2117262 15.8630511,51.3337685 18.72,50.3" id="Shape" fill="#7ED09E" fill-rule="nonzero"/><path d="M10.1,16.467 C9.83669632,16.4088525 9.60803419,16.2468349 9.46588349,16.0176992 C9.32373279,15.7885636 9.28014226,15.5117316 9.345,15.25 C9.50215969,14.5552533 9.69915171,13.8701218 9.935,13.198 C10.6292536,11.2734768 11.70587,9.50939072 13.1,8.012 C14.722,6.3 17.385,5.06 21.014,4.338 C21.5503166,4.24344704 22.0636884,4.59542981 22.1688144,5.12977454 C22.2739403,5.66411927 21.9321645,6.18434211 21.4,6.3 C18.186,6.939 15.881,7.978 14.548,9.386 C13.3395494,10.6858491 12.4062067,12.2164768 11.804,13.886 C11.5945574,14.4871971 11.4196061,15.0998605 11.28,15.721 C11.1540333,16.2485033 10.6305486,16.5794521 10.1,16.467 Z" id="Shape" fill="#ECF0F1" fill-rule="nonzero"/><circle id="Oval" fill="#ECF0F1" fill-rule="nonzero" cx="8.869" cy="20" r="1"/><path d="M37.58,27.88 C38.74,28.65 39.89,29.36 41,30 C46.37,26.89 52.81,22.23 55.32,17.57 C58.89,11.36 58.89,5.15 55.32,2.04 C53.0912285,0.289415078 50.1977681,-0.375791876 47.4282568,0.225687179 C44.6587455,0.827166234 42.3018636,2.6326361 41,5.15 C39.6981364,2.6326361 37.3412545,0.827166234 34.5717432,0.225687179 C31.8022319,-0.375791876 28.9087715,0.289415078 26.68,2.04 C23.37,4.92 23.13,10.47 25.96,16.21 L37.58,27.88 Z" id="Shape" fill="#C03A2B"/><path d="M37.922,25.092 C38.966,25.785 40,26.424 41,27 C45.833,24.2 51.629,20.007 53.888,15.813 C57.101,10.224 57.101,4.635 53.888,1.836 C51.8821181,0.260437512 49.2779914,-0.338270932 46.785419,0.203062871 C44.2928467,0.744396674 42.171651,2.36934484 41,4.635 C39.8285342,2.36918347 37.7074221,0.744017161 35.2148329,0.202486298 C32.7222437,-0.339044564 30.1180138,0.259511118 28.112,1.835 C25.133,4.427 24.917,9.422 27.464,14.588 L37.922,25.092 Z" id="Shape" fill="#E64C3C"/><path d="M39.57,25.37 C38.23,27.86 34.8,30.34 31.93,32 C29.07,30.34 25.63,27.86 24.3,25.37 C22.39,22.06 22.39,18.75 24.3,17.09 C25.2885374,16.2726192 26.564211,15.8870343 27.84,16.02 C29.5736044,16.1901174 31.1079294,17.2142512 31.93,18.75 C32.7520706,17.2142512 34.2863956,16.1901174 36.02,16.02 C37.2988833,15.8867915 38.5777434,16.2722507 39.57,17.09 C41.48,18.75 41.48,22.06 39.57,25.37 Z" id="Shape" fill="#FF5364"/><path d="M38.14,23.62 C37.05,25.63 34.26,27.65 31.93,29 C29.61,27.65 26.82,25.63 25.73,23.62 C24.18,20.92 24.18,18.23 25.73,16.88 C26.3304841,16.3870612 27.0660202,16.0872692 27.84,16.02 C29.5736044,16.1901174 31.1079294,17.2142512 31.93,18.75 C32.7520706,17.2142512 34.2863956,16.1901174 36.02,16.02 C36.7991649,16.0781197 37.5405472,16.3788691 38.14,16.88 C39.69,18.23 39.69,20.92 38.14,23.62 Z" id="Shape" fill="#FB7B76"/></g></g></svg>
