<?xml version="1.0" encoding="UTF-8"?>
<svg xmlns="http://www.w3.org/2000/svg" xmlns:xlink="http://www.w3.org/1999/xlink" width="512" height="512" viewBox="0 0 58 58" version="1.1"><!-- Generator: Sketch 51.3 (57544) - http://www.bohemiancoding.com/sketch --><title>039 - Inspiration</title><desc>Created with Sketch.</desc><defs/><g id="Page-1" stroke="none" stroke-width="1" fill="none" fill-rule="evenodd"><g id="039---Inspiration" fill-rule="nonzero"><path d="M17.851,50.3 C21.281,51.851 22.783,58 22.783,58 L47.883,57.931 C47.4121814,56.9546289 46.877696,56.01026 46.283,55.104 C45.810511,54.1362498 45.4139826,53.133227 45.097,52.104 C44.5096366,50.1153602 44.1029865,48.0777587 43.882,46.016 C43.5094179,42.8481972 43.9867593,39.6383095 45.265,36.716 C46.392,34.147 48.349,32.116 49.842,29.758 C51.3188424,27.4596935 52.1139104,24.7898183 52.135,22.058 C52.1906124,19.2905772 51.8508514,16.5293876 51.126,13.858 C50.1780466,10.6221548 48.200326,7.78389935 45.493,5.774 C40.534,1.881 35.474,-0.293 29.069,0.033 C25.8638786,0.255375513 22.6793554,0.71226503 19.541,1.4 C16.123,2.088 12.504,3.366 10.051,5.956 C8.37766038,7.74409793 7.08486958,9.85338818 6.251,12.156 C5.86015176,13.3014161 5.54218297,14.470419 5.299,15.656 C4.88925592,16.9460342 4.39519171,18.2077519 3.82,19.433 C3.65089796,19.8060777 3.57735228,20.2153904 3.606,20.624 C3.8,22.008 5.874,22.6 5.89,24.029 C5.86887774,24.3447852 5.77179136,24.650796 5.607,24.921 C4.39034374,27.4921042 2.89684314,29.922815 1.153,32.17 C0.742,32.67 -0.095,33.67 0.009,34.384 C0.083,34.891 0.691,35.312 1.066,35.591 C1.866,36.185 3.495,36.591 3.698,37.663 C3.80398936,38.2088042 3.73831308,38.7740394 3.51,39.281 C2.956,40.447 2.343,41.07 2.778,41.436 C3.213,41.802 4.378,42.681 4.378,42.681 C4.378,42.681 3.272,44.094 3.884,44.529 C4.645,45.069 5.612,45.318 5.871,46.329 C5.94680483,47.1301298 5.86666115,47.9383584 5.635,48.709 C5.5563755,49.462975 5.65499664,50.2248918 5.923,50.934 C6.28395493,52.3522509 7.70070311,53.2321447 9.132,52.927 C12.083746,52.2098159 14.9943653,51.332858 17.851,50.3" id="Shape" fill="#B0D3F0"/><path d="M23,37 C22.6212279,37 22.2749648,36.7859976 22.1055728,36.4472136 C21.9361808,36.1084296 21.9727368,35.7030176 22.2,35.4 C22.2,35.4 22.419,35.107 22.823,34.592 C23.0437901,34.3102961 23.3980959,34.1677811 23.7524537,34.218139 C24.1068115,34.2684969 24.407386,34.5040771 24.5409537,34.836139 C24.6745214,35.1682008 24.6207901,35.5462961 24.4,35.828 C24.017,36.315 23.809,36.594 23.8,36.6 C23.6111456,36.8518058 23.3147573,37 23,37 Z" id="Shape" fill="#2FA8CC"/><path d="M26.467,32.726 C26.076647,32.7260257 25.7219609,32.4989103 25.5586529,32.1443599 C25.3953448,31.7898095 25.4532705,31.3726426 25.707,31.076 C26.081,30.638 26.479,30.176 26.899,29.701 C27.2646125,29.2867864 27.8967864,29.2473875 28.311,29.613 C28.7252136,29.9786125 28.7646125,30.6107864 28.399,31.025 C27.985,31.493 27.599,31.945 27.227,32.375 C27.0371852,32.5975101 26.7594728,32.7257693 26.467,32.726 Z M30.7,28.044 C30.299364,28.0440411 29.9373748,27.8049654 29.780135,27.4364755 C29.6228952,27.0679855 29.7007599,26.6412181 29.978,26.352 C30.394,25.92 30.8193333,25.4866667 31.254,25.052 C31.5035645,24.7858656 31.8782617,24.6767674 32.2316845,24.7673337 C32.5851073,24.8579 32.8611582,25.1337557 32.9519745,25.4871143 C33.0427909,25.840473 32.9339578,26.2152473 32.668,26.465 C32.2433333,26.891 31.828,27.3156667 31.422,27.739 C31.2328614,27.9346751 30.9721424,28.0448126 30.7,28.044 Z" id="Shape" fill="#2FA8CC"/><path d="M9.227,16.468 C8.96351193,16.4100801 8.73460382,16.2481569 8.59224806,16.0189942 C8.4498923,15.7898316 8.40616709,15.5128728 8.471,15.251 C8.62815969,14.5562533 8.82515171,13.8711218 9.061,13.199 C9.7565457,11.2744195 10.8341474,9.51039105 12.229,8.013 C13.853,6.297 16.516,5.061 20.145,4.339 C20.4954775,4.2693332 20.856499,4.39193597 21.0920709,4.66062503 C21.3276429,4.9293141 21.4019765,5.30326919 21.2870709,5.64162505 C21.1721654,5.97998091 20.8854776,6.23133322 20.535,6.301 C17.321,6.94 15.015,7.978 13.682,9.387 C12.4735494,10.6868491 11.5402067,12.2174768 10.938,13.887 C10.7285574,14.4881971 10.5536061,15.1008605 10.414,15.722 C10.2880679,16.2528234 9.7599176,16.5847527 9.227,16.468 Z" id="Shape" fill="#ECF0F1"/><circle id="Oval" fill="#ECF0F1" cx="8" cy="20.001" r="1"/><path d="M30,19 C30,20.6568542 28.6568542,22 27,22 L21,22 C19.7874334,21.9989335 18.694737,21.2680198 18.2308521,20.1476941 C17.7669672,19.0273683 18.0231188,17.7379473 18.88,16.88 C18.9418382,16.8148429 19.0087116,16.7546568 19.08,16.7 C19.0281698,16.4702341 19.0013471,16.2355354 19,16 C19,14.3431458 20.3431458,13 22,13 C22.3807804,13.0005092 22.7578106,13.0752359 23.11,13.22 C23.4336215,11.9823167 24.5065019,11.0860206 25.7820165,10.987768 C27.057531,10.8895154 28.2550229,11.6109254 28.7643787,12.7844447 C29.2737346,13.957964 28.9828787,15.3253783 28.04,16.19 C29.2193357,16.6211791 30.0027342,17.7443167 30,19 Z" id="Shape" fill="#ECF0F1"/><path d="M30,19 C30,20.6568542 28.6568542,22 27,22 L21,22 C19.3431458,22 18,20.6568542 18,19 C17.9978744,18.6584234 18.0588994,18.3193958 18.18,18 C18.59463,19.201836 19.7286659,20.0061167 21,20 L27,20 C27.7955351,20.0000702 28.5583676,19.6834227 29.12,19.12 C29.4384299,18.8032092 29.678175,18.4161921 29.82,17.99 C29.9419816,18.3126278 30.0030155,18.6550955 30,19 Z" id="Shape" fill="#E6E7E8"/><path d="M48.37,26.48 C47.5931452,26.9812717 47.091664,27.8135297 47.011487,28.734588 C46.9313099,29.6556463 47.2814438,30.5620365 47.96,31.19 C46.7806643,31.6211791 45.9972658,32.7443167 46,34 C45.9994631,34.3340486 46.0569857,34.6656491 46.17,34.98 C46.3153093,35.4097994 46.5583469,35.8000287 46.88,36.12 C47.4416324,36.6834227 48.2044649,37.0000702 49,37 L55,37 C56.2125666,36.9989335 57.305263,36.2680198 57.7691479,35.1476941 C58.2330328,34.0273683 57.9768812,32.7379473 57.12,31.88 C57.0581618,31.8148429 56.9912884,31.7546568 56.92,31.7 C56.9718302,31.4702341 56.9986529,31.2355354 57,31 C57,29.3431458 55.6568542,28 54,28 C53.6192196,28.0005092 53.2421894,28.0752359 52.89,28.22 C52.8874959,28.2049626 52.8805275,28.1910257 52.87,28.18 L48.37,26.48 Z" id="Shape" fill="#ECF0F1"/><path d="M58,34 C58,35.6568542 56.6568542,37 55,37 L49,37 C48.2044649,37.0000702 47.4416324,36.6834227 46.88,36.12 C46.5583469,35.8000287 46.3153093,35.4097994 46.17,34.98 C46.0569857,34.6656491 45.9994631,34.3340486 46,34 C45.9969845,33.6550955 46.0580184,33.3126278 46.18,32.99 C46.3179754,33.4179837 46.5582516,33.805858 46.88,34.12 C47.4416324,34.6834227 48.2044649,35.0000702 49,35 L55,35 C56.2713341,35.0061167 57.40537,34.201836 57.82,33 C57.9411006,33.3193958 58.0021256,33.6584234 58,34 Z" id="Shape" fill="#E6E7E8"/><polygon id="Shape" fill="#F9EAB0" points="58 0 43.86 21.21 35.37 22.63 36.79 14.14"/><polygon id="Shape" fill="#F5EFCA" points="58 0 36.79 14.14 26.89 5.66"/><polygon id="Shape" fill="#F5EFCA" points="58 0 52.34 31.11 43.86 21.21"/><path d="M35.373,23.627 C34.9686041,23.6269137 34.6040659,23.3832725 34.449322,23.0096546 C34.2945781,22.6360366 34.3800921,22.2059943 34.666,21.92 L41.736,14.849 C42.1283789,14.4700278 42.7520848,14.4754476 43.1378186,14.8611814 C43.5235524,15.2469152 43.5289722,15.8706211 43.15,16.263 L36.08,23.334 C35.8929469,23.5222061 35.6383486,23.6277185 35.373,23.627 Z" id="Shape" fill="#FAC176"/></g></g></svg>
