<?xml version="1.0" encoding="UTF-8"?>
<svg xmlns="http://www.w3.org/2000/svg" xmlns:xlink="http://www.w3.org/1999/xlink" width="512" height="512" viewBox="0 0 59 58" version="1.1"><!-- Generator: Sketch 51.3 (57544) - http://www.bohemiancoding.com/sketch --><title>040 - Law</title><desc>Created with Sketch.</desc><defs/><g id="Page-1" stroke="none" stroke-width="1" fill="none" fill-rule="evenodd"><g id="040---Law" fill-rule="nonzero"><path d="M17.851,50.3 C21.281,51.851 22.783,58 22.783,58 L47.883,57.931 C47.4121814,56.9546289 46.877696,56.01026 46.283,55.104 C45.810511,54.1362498 45.4139826,53.133227 45.097,52.104 C44.5096366,50.1153602 44.1029865,48.0777587 43.882,46.016 C43.5094179,42.8481972 43.9867593,39.6383095 45.265,36.716 C46.392,34.147 48.349,32.116 49.842,29.758 C51.3188424,27.4596935 52.1139104,24.7898183 52.135,22.058 C52.1906124,19.2905772 51.8508514,16.5293876 51.126,13.858 C50.1780466,10.6221548 48.200326,7.78389935 45.493,5.774 C40.534,1.881 35.474,-0.293 29.069,0.033 C25.8638786,0.255375513 22.6793554,0.71226503 19.541,1.4 C16.123,2.088 12.504,3.366 10.051,5.956 C8.37766038,7.74409793 7.08486958,9.85338818 6.251,12.156 C5.86015176,13.3014161 5.54218297,14.470419 5.299,15.656 C4.88925592,16.9460342 4.39519171,18.2077519 3.82,19.433 C3.65089796,19.8060777 3.57735228,20.2153904 3.606,20.624 C3.8,22.008 5.874,22.6 5.89,24.029 C5.86887774,24.3447852 5.77179136,24.650796 5.607,24.921 C4.39034374,27.4921042 2.89684314,29.922815 1.153,32.17 C0.742,32.67 -0.095,33.67 0.009,34.384 C0.083,34.891 0.691,35.312 1.066,35.591 C1.866,36.185 3.495,36.591 3.698,37.663 C3.80398936,38.2088042 3.73831308,38.7740394 3.51,39.281 C2.956,40.447 2.343,41.07 2.778,41.436 C3.213,41.802 4.378,42.681 4.378,42.681 C4.378,42.681 3.272,44.094 3.884,44.529 C4.645,45.069 5.612,45.318 5.871,46.329 C5.94680483,47.1301298 5.86666115,47.9383584 5.635,48.709 C5.5563755,49.462975 5.65499664,50.2248918 5.923,50.934 C6.28395493,52.3522509 7.70070311,53.2321447 9.132,52.927 C12.083746,52.2098159 14.9943653,51.332858 17.851,50.3" id="Shape" fill="#955BA5"/><rect id="Rectangle-path" fill="#F0C419" x="39" y="9.23" width="4" height="20.77"/><rect id="Rectangle-path" fill="#F29C1F" x="39" y="27" width="4" height="3"/><path d="M9.227,16.468 C8.96351193,16.4100801 8.73460382,16.2481569 8.59224806,16.0189942 C8.4498923,15.7898316 8.40616709,15.5128728 8.471,15.251 C8.62815969,14.5562533 8.82515171,13.8711218 9.061,13.199 C9.7565457,11.2744195 10.8341474,9.51039105 12.229,8.013 C13.853,6.297 16.516,5.061 20.145,4.339 C20.4954775,4.2693332 20.856499,4.39193597 21.0920709,4.66062503 C21.3276429,4.9293141 21.4019765,5.30326919 21.2870709,5.64162505 C21.1721654,5.97998091 20.8854776,6.23133322 20.535,6.301 C17.321,6.94 15.015,7.978 13.682,9.387 C12.4735494,10.6868491 11.5402067,12.2174768 10.938,13.887 C10.7285574,14.4881971 10.5536061,15.1008605 10.414,15.722 C10.2880679,16.2528234 9.7599176,16.5847527 9.227,16.468 Z" id="Shape" fill="#B49ACA"/><circle id="Oval" fill="#B49ACA" cx="8" cy="20.001" r="1"/><path d="M46.971,35 L35.029,35 C34.7570664,35.0001964 34.4967797,34.8896394 34.3081116,34.6938019 C34.1194435,34.4979645 34.0186664,34.2337373 34.029,33.962 C34.0346753,33.6402587 34.0583791,33.3190884 34.1,33 C34.5752686,30.6716687 36.6236569,28.999515 39,29 L43,29 C45.3763431,28.999515 47.4247314,30.6716687 47.9,33 C47.9412864,33.3191072 47.9646564,33.6402774 47.97,33.962 C47.9803269,34.2335638 47.8796849,34.497635 47.6912351,34.6934416 C47.5027854,34.8892482 47.2427601,34.9999245 46.971,35 Z" id="Shape" fill="#E4C05C"/><path d="M47.9,33 L34.1,33 C34.5752686,30.6716687 36.6236569,28.999515 39,29 L43,29 C45.3763431,28.999515 47.4247314,30.6716687 47.9,33 Z" id="Shape" fill="#F3D55B"/><path d="M34,19 C33.6366064,19.0003783 33.3016092,18.8035913 33.125,18.486 L29,11.059 L24.874,18.486 C24.6055896,18.9686969 23.9966969,19.1424104 23.514,18.874 C23.0313032,18.6055896 22.8575896,17.9966969 23.126,17.514 L28.126,8.514 C28.3175031,8.21706446 28.6466671,8.03767012 29,8.03767012 C29.3533329,8.03767012 29.6824969,8.21706446 29.874,8.514 L34.874,17.514 C35.0462384,17.823731 35.0416752,18.2014894 34.8620052,18.5069694 C34.6823353,18.8124495 34.3544,19.0000146 34,19 Z" id="Shape" fill="#B19046"/><path d="M29,10 C28.480671,9.99858566 28.0488555,9.59987089 28.0061156,9.08230163 C27.9633758,8.56473237 28.3239378,8.10058461 28.836,8.014 L37.876,6.504 C38.4208289,6.41287303 38.936373,6.7806711 39.0275,7.3255 C39.118627,7.8703289 38.7508289,8.38587301 38.206,8.477 L29.166,9.986 C29.1111914,9.99558077 29.055639,10.0002659 29,10 Z" id="Shape" fill="#B19046"/><path d="M43.959,7.51 C43.4383052,7.50910895 43.0054309,7.10880305 42.9638976,6.58976663 C42.9223642,6.0707302 43.2860728,5.60668163 43.8,5.523 L52.84,4.014 C53.1964798,3.94548948 53.5620917,4.07553989 53.7952298,4.35378107 C54.0283678,4.63202226 54.0924151,5.01475342 53.9625654,5.353738 C53.8327156,5.69272259 53.5293631,5.93471938 53.17,5.986 L44.125,7.5 C44.070021,7.50774636 44.0145113,7.51109032 43.959,7.51 Z" id="Shape" fill="#B19046"/><path d="M58,15 C57.6366064,15.0003783 57.3016092,14.8035913 57.125,14.486 L53,7.059 L48.874,14.486 C48.6055896,14.9686969 47.9966969,15.1424104 47.514,14.874 C47.0313032,14.6055896 46.8575896,13.9966969 47.126,13.514 L52.126,4.514 C52.3175031,4.21706446 52.6466671,4.03767012 53,4.03767012 C53.3533329,4.03767012 53.6824969,4.21706446 53.874,4.514 L58.874,13.514 C59.0462384,13.823731 59.0416752,14.2014894 58.8620052,14.5069694 C58.6823353,14.8124495 58.3544,15.0000146 58,15 Z" id="Shape" fill="#B19046"/><circle id="Oval" fill="#F3D55B" cx="41" cy="7" r="4"/><path d="M34,17 L24,17 C23.4477153,17 23,17.4477153 23,18 L23,20 C23,22.7614237 25.2385763,25 28,25 L30,25 C32.7614237,25 35,22.7614237 35,20 L35,18 C35,17.4477153 34.5522847,17 34,17 Z" id="Shape" fill="#AB9045"/><path d="M34,17 L24,17 C23.4477153,17 23,17.4477153 23,18 C23,20.7614237 25.2385763,23 28,23 L30,23 C32.7614237,23 35,20.7614237 35,18 C35,17.7347835 34.8946432,17.4804296 34.7071068,17.2928932 C34.5195704,17.1053568 34.2652165,17 34,17 Z" id="Shape" fill="#E4C05C"/><path d="M58,13 L48,13 C47.4477153,13 47,13.4477153 47,14 L47,16 C47,18.7614237 49.2385763,21 52,21 L54,21 C56.7614237,21 59,18.7614237 59,16 L59,14 C59,13.4477153 58.5522847,13 58,13 Z" id="Shape" fill="#AB9045"/><path d="M58,13 L48,13 C47.4477153,13 47,13.4477153 47,14 C47,16.7614237 49.2385763,19 52,19 L54,19 C56.7614237,19 59,16.7614237 59,14 C59,13.4477153 58.5522847,13 58,13 Z" id="Shape" fill="#E4C05C"/><circle id="Oval" fill="#F9EAB0" cx="40" cy="6" r="2"/></g></g></svg>
