<?xml version="1.0" encoding="UTF-8"?>
<svg xmlns="http://www.w3.org/2000/svg" xmlns:xlink="http://www.w3.org/1999/xlink" width="512" height="512" viewBox="0 0 40 58" version="1.1"><!-- Generator: Sketch 51.3 (57544) - http://www.bohemiancoding.com/sketch --><title>059 - Law</title><desc>Created with Sketch.</desc><defs/><g id="Page-1" stroke="none" stroke-width="1" fill="none" fill-rule="evenodd"><g id="059---Law" transform="translate(-1.000000, 0.000000)" fill-rule="nonzero"><path d="M40.208,21.26 C38.938,20.61 37.667,22.54 37.667,22.54 L37.588,22.53 C37.7509709,19.5355491 37.7509709,16.5344509 37.588,13.54 C37,0.68 22.188,0.04 22.188,0.04 L19.807,0.04 C19.807,0.04 4.997,0.68 4.407,13.54 C4.24402908,16.5344509 4.24402908,19.5355491 4.407,22.53 L4.328,22.54 C4.328,22.54 3.057,20.61 1.787,21.26 C0.528,21.89 1.148,27.68 1.148,27.68 C1.148,27.68 1.778,32.14 5.528,34.08 C5.367,37.8 5.088,41.18 9.148,45.04 C9.63007511,45.4951694 10.0873982,45.9758594 10.518,46.48 L10.518,56 C10.5179862,57.100676 11.4073377,57.9944966 12.508,58 L29.487,58 C30.5876623,57.9944966 31.4770138,57.100676 31.477,56 L31.477,46.48 C31.9076018,45.9758594 32.3649249,45.4951694 32.847,45.04 C36.907,41.18 36.628,37.8 36.467,34.08 C40.217,32.14 40.847,27.68 40.847,27.68 C40.847,27.68 41.467,21.89 40.208,21.26 Z" id="Shape" fill="#35495E"/><path d="M37.588,22.53 C37.268,27.49 36.407,29.06 36.407,32.18 C36.407,32.83 36.427,33.46 36.467,34.08 C36.627,37.8 36.907,41.18 32.847,45.04 C32.3649249,45.4951694 31.9076018,45.9758594 31.477,46.48 C28.057,50.45 27.597,54.04 23.367,54.04 L18.627,54.04 C14.398,54.04 13.937,50.45 10.518,46.48 C10.0873982,45.9758594 9.63007511,45.4951694 9.148,45.04 C5.088,41.18 5.367,37.8 5.528,34.08 C5.567,33.46 5.588,32.83 5.588,32.18 C5.588,29.06 4.727,27.49 4.407,22.53 C4.24402908,19.5355491 4.24402908,16.5344509 4.407,13.54 C4.997,0.68 19.807,0.04 19.807,0.04 L22.187,0.04 C22.187,0.04 36.997,0.68 37.587,13.54 C37.750304,16.5344328 37.7506378,19.535531 37.588,22.53 Z" id="Shape" fill="#955BA5"/><path d="M5.588,32.18 C5.588,32.83 5.567,33.46 5.528,34.08 C1.778,32.14 1.148,27.68 1.148,27.68 C1.148,27.68 0.528,21.89 1.787,21.26 C3.057,20.61 4.328,22.54 4.328,22.54 L4.407,22.53 C4.727,27.49 5.588,29.06 5.588,32.18 Z" id="Shape" fill="#894B9D"/><path d="M40.847,27.68 C40.847,27.68 40.217,32.14 36.467,34.08 C36.427,33.46 36.407,32.83 36.407,32.18 C36.407,29.06 37.268,27.49 37.588,22.53 L37.667,22.54 C37.667,22.54 38.937,20.61 40.208,21.26 C41.467,21.89 40.847,27.68 40.847,27.68 Z" id="Shape" fill="#894B9D"/><path d="M31.477,46.48 L31.477,56 C31.4770138,57.100676 30.5876623,57.9944966 29.487,58 L12.508,58 C11.4073377,57.9944966 10.5179862,57.100676 10.518,56 L10.518,46.48 C13.937,50.45 14.398,54.04 18.627,54.04 L23.367,54.04 C27.6,54.04 28.057,50.45 31.477,46.48 Z" id="Shape" fill="#894B9D"/><rect id="Rectangle-path" fill="#F0C419" x="19" y="10.23" width="4" height="19.77"/><path d="M28,35 C28,35.5522847 27.5522847,36 27,36 L15,36 C14.4477153,36 14,35.5522847 14,35 C13.9998236,34.5262021 14.0671672,34.0547966 14.2,33.6 C14.437027,32.7936445 14.8698896,32.0584652 15.46,31.46 C16.4008677,30.5249046 17.6734875,30.0000388 19,30 L23,30 C25.7614237,30 28,32.2385763 28,35 Z" id="Shape" fill="#F0C419"/><path d="M27.8,33.6 C27.6111456,33.8518058 27.3147573,34 27,34 L15,34 C14.6852427,34 14.3888544,33.8518058 14.2,33.6 C14.437027,32.7936445 14.8698896,32.0584652 15.46,31.46 C16.4008677,30.5249046 17.6734875,30.0000388 19,30 L23,30 C25.2222222,30 27.1777778,31.4666667 27.8,33.6 Z" id="Shape" fill="#F3D55B"/><rect id="Rectangle-path" fill="#F29C1F" x="19" y="28" width="4" height="2"/><path d="M14,20 C13.6363956,20.0001766 13.3013481,19.8029773 13.125,19.485 L9,12.06 L4.874,19.485 C4.70681146,19.8088027 4.37671534,20.0160217 4.01243034,20.0258532 C3.64814535,20.0356848 3.30735279,19.8465722 3.12294237,19.5322586 C2.93853195,19.2179451 2.93970343,18.8281993 3.126,18.515 L8.126,9.515 C8.31750308,9.21806446 8.64666709,9.03867012 9,9.03867012 C9.35333291,9.03867012 9.68249692,9.21806446 9.874,9.515 L14.874,18.515 C15.1415913,18.9977274 14.9674866,19.6059748 14.485,19.874 C14.3368985,19.9571077 14.1698254,20.0005123 14,20 Z" id="Shape" fill="#B19046"/><path d="M9,11 C8.48067098,10.9985857 8.04885547,10.5998709 8.00611561,10.0823016 C7.96337575,9.56473237 8.32393776,9.10058461 8.836,9.014 L17.876,7.504 C18.2284425,7.44505118 18.5855616,7.57860606 18.8128341,7.85435581 C19.0401065,8.13010556 19.1030041,8.50615723 18.9778341,8.84085581 C18.852664,9.17555438 18.5584425,9.41805118 18.206,9.477 L9.166,10.986 C9.1111914,10.9955808 9.05563904,11.0002659 9,11 Z" id="Shape" fill="#B19046"/><path d="M23.959,8.51 C23.4383052,8.50910895 23.0054309,8.10880305 22.9638976,7.58976663 C22.9223642,7.0707302 23.2860728,6.60668163 23.8,6.523 L32.84,5.014 C33.3774655,4.9373044 33.877947,5.30345923 33.9675532,5.83892366 C34.0571593,6.37438809 33.7031533,6.88353526 33.17,6.986 L24.125,8.5 C24.0700719,8.50824154 24.0145203,8.51158802 23.959,8.51 Z" id="Shape" fill="#B19046"/><path d="M38,16 C37.6363956,16.0001766 37.3013481,15.8029773 37.125,15.485 L33,8.06 L28.874,15.485 C28.597631,15.9496279 28.0020358,16.1104896 27.5293303,15.8481759 C27.0566248,15.5858622 26.8779775,14.995358 27.126,14.515 L32.126,5.515 C32.3175031,5.21806446 32.6466671,5.03867012 33,5.03867012 C33.3533329,5.03867012 33.6824969,5.21806446 33.874,5.515 L38.874,14.515 C39.1415913,14.9977274 38.9674866,15.6059748 38.485,15.874 C38.3368985,15.9571077 38.1698254,16.0005123 38,16 Z" id="Shape" fill="#B19046"/><circle id="Oval" fill="#F3D55B" cx="21" cy="8" r="4"/><path d="M14,18 L4,18 C3.44771525,18 3,18.4477153 3,19 L3,21 C3,23.7614237 5.23857625,26 8,26 L10,26 C11.3260824,26 12.597852,25.4732158 13.5355339,24.5355339 C14.4732158,23.597852 15,22.3260824 15,21 L15,19 C15,18.4477153 14.5522847,18 14,18 Z" id="Shape" fill="#B19046"/><path d="M14,18 L4,18 C3.44771525,18 3,18.4477153 3,19 C3,21.7614237 5.23857625,24 8,24 L10,24 C11.3260824,24 12.597852,23.4732158 13.5355339,22.5355339 C14.4732158,21.597852 15,20.3260824 15,19 C15,18.4477153 14.5522847,18 14,18 Z" id="Shape" fill="#E4C05C"/><path d="M38,14 L28,14 C27.4477153,14 27,14.4477153 27,15 L27,17 C27,19.7614237 29.2385763,22 32,22 L34,22 C36.7614237,22 39,19.7614237 39,17 L39,15 C39,14.4477153 38.5522847,14 38,14 Z" id="Shape" fill="#B19046"/><path d="M38,14 L28,14 C27.4477153,14 27,14.4477153 27,15 C27,17.7614237 29.2385763,20 32,20 L34,20 C36.7614237,20 39,17.7614237 39,15 C39,14.4477153 38.5522847,14 38,14 Z" id="Shape" fill="#E4C05C"/><circle id="Oval" fill="#F9EAB0" cx="20" cy="7" r="2"/></g></g></svg>
