<?xml version="1.0" encoding="UTF-8"?>
<svg xmlns="http://www.w3.org/2000/svg" xmlns:xlink="http://www.w3.org/1999/xlink" width="512" height="512" viewBox="0 0 58 58" version="1.1"><!-- Generator: Sketch 51.3 (57544) - http://www.bohemiancoding.com/sketch --><title>071 - Mental Health</title><desc>Created with Sketch.</desc><defs/><g id="Page-1" stroke="none" stroke-width="1" fill="none" fill-rule="evenodd"><g id="071---Mental-Health" fill-rule="nonzero"><path d="M39.213,21.22 C37.943,20.57 36.672,22.5 36.672,22.5 L36.593,22.49 C36.7559709,19.4955491 36.7559709,16.4944509 36.593,13.5 C36,0.64 21.193,0 21.193,0 L18.813,0 C18.813,0 4,0.64 3.412,13.5 C3.24902908,16.4944509 3.24902908,19.4955491 3.412,22.49 L3.333,22.5 C3.333,22.5 2.063,20.57 0.792,21.22 C-0.467,21.85 0.153,27.64 0.153,27.64 C0.153,27.64 0.783,32.1 4.533,34.04 C4.373,37.76 4.093,41.14 8.153,45 C8.63533088,45.4549126 9.09266744,45.9356167 9.523,46.44 L9.523,55.96 C9.52298624,57.060676 10.4123377,57.9544966 11.513,57.96 L28.493,57.96 C29.5932713,57.9539484 30.4820166,57.060288 30.482,55.96 L30.482,46.44 C30.9126018,45.9358594 31.3699249,45.4551694 31.852,45 C35.912,41.14 35.633,37.76 35.472,34.04 C39.222,32.1 39.852,27.64 39.852,27.64 C39.852,27.64 40.472,21.85 39.213,21.22 Z" id="Shape" fill="#F29C1F"/><path d="M4.593,32.14 C4.593,32.79 4.573,33.42 4.533,34.04 C0.783,32.1 0.153,27.64 0.153,27.64 C0.153,27.64 -0.467,21.85 0.792,21.22 C2.063,20.57 3.333,22.5 3.333,22.5 L3.412,22.49 C3.732,27.45 4.593,29.02 4.593,32.14 Z" id="Shape" fill="#F29C1F"/><path d="M36.593,22.49 C36.273,27.45 35.412,29.02 35.412,32.14 C35.412,32.79 35.433,33.42 35.472,34.04 C35.633,37.76 35.912,41.14 31.852,45 C31.3699249,45.4551694 30.9126018,45.9358594 30.482,46.44 C27.063,50.41 26.6,54 22.373,54 L17.633,54 C13.403,54 12.943,50.41 9.523,46.44 C9.09239821,45.9358594 8.63507511,45.4551694 8.153,45 C4.093,41.14 4.373,37.76 4.533,34.04 C4.573,33.42 4.593,32.79 4.593,32.14 C4.593,29.02 3.732,27.45 3.412,22.49 C3.24902908,19.4955491 3.24902908,16.4944509 3.412,13.5 C4,0.64 18.813,0 18.813,0 L21.193,0 C21.193,0 36.003,0.64 36.593,13.5 C36.7559709,16.4944509 36.7559709,19.4955491 36.593,22.49 Z" id="Shape" fill="#F0C419"/><path d="M39.852,27.64 C39.852,27.64 39.222,32.1 35.472,34.04 C35.433,33.42 35.412,32.79 35.412,32.14 C35.412,29.02 36.273,27.45 36.593,22.49 L36.672,22.5 C36.672,22.5 37.943,20.57 39.213,21.22 C40.472,21.85 39.852,27.64 39.852,27.64 Z" id="Shape" fill="#F29C1F"/><path d="M30.482,46.44 L30.482,55.96 C30.4820138,57.060676 29.5926623,57.9544966 28.492,57.96 L11.513,57.96 C10.4123377,57.9544966 9.52298624,57.060676 9.523,55.96 L9.523,46.44 C12.943,50.41 13.403,54 17.633,54 L22.373,54 C26.6,54 27.063,50.41 30.482,46.44 Z" id="Shape" fill="#F29C1F"/><path d="M44.48,12.822 L43.28,17.502 C42.8833192,18.1798855 42.4028751,18.8051349 41.85,19.363 L37.61,23.6 L24.88,10.873 L29.12,6.632 C32.6379221,3.12306189 38.3320779,3.12306189 41.85,6.632 C42.3599565,7.14071017 42.8034805,7.71191525 43.17,8.332 C43.966367,9.69940878 44.4161073,11.2408849 44.48,12.822 Z" id="Shape" fill="#E6E7E8"/><path d="M44.48,12.822 L43.28,17.502 C42.8833192,18.1798855 42.4028751,18.8051349 41.85,19.363 L37.61,23.6 L26.18,12.173 L30.24,8.113 C33.7570117,4.60186071 39.4529883,4.60186071 42.97,8.113 C43.04,8.183 43.11,8.262 43.17,8.332 C43.966367,9.69940878 44.4161073,11.2408849 44.48,12.822 Z" id="Shape" fill="#ECF0F1"/><path d="M37.61,23.6 L33.36,27.84 C30.1314229,31.0747462 24.9894317,31.3716478 21.41,28.53 C21.1413431,28.3137418 20.8843172,28.0834199 20.64,27.84 C18.9499931,26.1551424 18.000123,23.8668923 18.000123,21.4805 C18.000123,19.0941077 18.9499931,16.8058576 20.64,15.121 L24.88,10.871 L37.61,23.6 Z" id="Shape" fill="#C03A2B"/><path d="M37.61,23.6 L33.36,27.84 C30.1314229,31.0747462 24.9894317,31.3716478 21.41,28.53 C18.4140681,24.9594778 18.6486452,19.6901814 21.95,16.4 L26.18,12.171 L37.61,23.6 Z" id="Shape" fill="#E64C3C"/><path d="M58,15.482 C58,16.5865695 57.1045695,17.482 56,17.482 L51,17.482 C49.8954305,17.482 49,18.3774305 49,19.482 L49,24.482 C49,25.5865695 48.1045695,26.482 47,26.482 C45.8954305,26.482 45,25.5865695 45,24.482 L45,19.482 C45,18.3774305 44.1045695,17.482 43,17.482 L38,17.482 C36.8954305,17.482 36,16.5865695 36,15.482 C36,14.3774305 36.8954305,13.482 38,13.482 L43,13.482 C44.1045695,13.482 45,12.5865695 45,11.482 L45,6.482 C45,5.3774305 45.8954305,4.482 47,4.482 C48.1045695,4.482 49,5.3774305 49,6.482 L49,11.482 C49,12.5865695 49.8954305,13.482 51,13.482 L56,13.482 C57.1045695,13.482 58,14.3774305 58,15.482 Z" id="Shape" fill="#4FBA6F"/></g></g></svg>
