<?xml version="1.0" encoding="UTF-8"?>
<svg xmlns="http://www.w3.org/2000/svg" xmlns:xlink="http://www.w3.org/1999/xlink" width="512" height="512" viewBox="0 0 58 58" version="1.1"><!-- Generator: Sketch 51.3 (57544) - http://www.bohemiancoding.com/sketch --><title>038 - Mind Map</title><desc>Created with Sketch.</desc><defs/><g id="Page-1" stroke="none" stroke-width="1" fill="none" fill-rule="evenodd"><g id="038---Mind-Map" fill-rule="nonzero"><path d="M17.851,50.3 C21.281,51.851 22.783,58 22.783,58 L47.883,57.931 C47.4121814,56.9546289 46.877696,56.01026 46.283,55.104 C45.810511,54.1362498 45.4139826,53.133227 45.097,52.104 C44.5096366,50.1153602 44.1029865,48.0777587 43.882,46.016 C43.5094179,42.8481972 43.9867593,39.6383095 45.265,36.716 C46.392,34.147 48.349,32.116 49.842,29.758 C51.3188424,27.4596935 52.1139104,24.7898183 52.135,22.058 C52.1906124,19.2905772 51.8508514,16.5293876 51.126,13.858 C50.1780466,10.6221548 48.200326,7.78389935 45.493,5.774 C40.534,1.881 35.474,-0.293 29.069,0.033 C25.8638786,0.255375513 22.6793554,0.71226503 19.541,1.4 C16.123,2.088 12.504,3.366 10.051,5.956 C8.37766038,7.74409793 7.08486958,9.85338818 6.251,12.156 C5.86015176,13.3014161 5.54218297,14.470419 5.299,15.656 C4.88925592,16.9460342 4.39519171,18.2077519 3.82,19.433 C3.65089796,19.8060777 3.57735228,20.2153904 3.606,20.624 C3.8,22.008 5.874,22.6 5.89,24.029 C5.86887774,24.3447852 5.77179136,24.650796 5.607,24.921 C4.39034374,27.4921042 2.89684314,29.922815 1.153,32.17 C0.742,32.67 -0.095,33.67 0.009,34.384 C0.083,34.891 0.691,35.312 1.066,35.591 C1.866,36.185 3.495,36.591 3.698,37.663 C3.80398936,38.2088042 3.73831308,38.7740394 3.51,39.281 C2.956,40.447 2.343,41.07 2.778,41.436 C3.213,41.802 4.378,42.681 4.378,42.681 C4.378,42.681 3.272,44.094 3.884,44.529 C4.645,45.069 5.612,45.318 5.871,46.329 C5.94680483,47.1301298 5.86666115,47.9383584 5.635,48.709 C5.5563755,49.462975 5.65499664,50.2248918 5.923,50.934 C6.28395493,52.3522509 7.70070311,53.2321447 9.132,52.927 C12.083746,52.2098159 14.9943653,51.332858 17.851,50.3" id="Shape" fill="#F3D55B"/><path d="M9.227,16.468 C8.96351193,16.4100801 8.73460382,16.2481569 8.59224806,16.0189942 C8.4498923,15.7898316 8.40616709,15.5128728 8.471,15.251 C8.62815969,14.5562533 8.82515171,13.8711218 9.061,13.199 C9.7565457,11.2744195 10.8341474,9.51039105 12.229,8.013 C13.853,6.297 16.516,5.061 20.145,4.339 C20.4954775,4.2693332 20.856499,4.39193597 21.0920709,4.66062503 C21.3276429,4.9293141 21.4019765,5.30326919 21.2870709,5.64162505 C21.1721654,5.97998091 20.8854776,6.23133322 20.535,6.301 C17.321,6.94 15.015,7.978 13.682,9.387 C12.4735494,10.6868491 11.5402067,12.2174768 10.938,13.887 C10.7285574,14.4881971 10.5536061,15.1008605 10.414,15.722 C10.2880679,16.2528234 9.7599176,16.5847527 9.227,16.468 Z" id="Shape" fill="#F5EFCA"/><circle id="Oval" fill="#F5EFCA" cx="8" cy="20.001" r="1"/><path d="M33.03,12.57 C32.6217844,12.5694967 32.254856,12.3209195 32.103,11.942 L30.553,8.083 C30.4091801,7.74951203 30.4574725,7.36426472 30.6791572,7.07659429 C30.9008419,6.78892386 31.261066,6.64405747 31.6201931,6.69815074 C31.9793202,6.75224401 32.280889,6.99679246 32.408,7.337 L33.958,11.197 C34.0818959,11.505189 34.0446779,11.8547836 33.8586744,12.1299806 C33.6726709,12.4051775 33.3621606,12.570056 33.03,12.57 Z" id="Shape" fill="#3D324C"/><path d="M42.251,15 C41.8260033,15.0006249 41.4470392,14.7325525 41.3061098,14.3316018 C41.1651805,13.930651 41.2930767,13.4844234 41.625,13.219 L46.475,9.339 C46.9063344,8.99382206 47.535822,9.06366566 47.881,9.49500003 C48.2261779,9.92633441 48.1563344,10.555822 47.725,10.901 L42.875,14.781 C42.6978557,14.9226545 42.4778173,14.9998795 42.251,15 Z" id="Shape" fill="#3D324C"/><path d="M51.09,34.26 C50.8340525,34.2600781 50.5878179,34.1620137 50.402,33.986 L41.133,25.217 C40.8734465,24.9713799 40.764646,24.6059475 40.8475825,24.2583575 C40.9305191,23.9107676 41.1925926,23.6338274 41.5350825,23.5318575 C41.8775725,23.4298877 42.2484465,23.5183799 42.508,23.764 L51.777,32.533 C52.0748732,32.8143354 52.1709898,33.2489153 52.0195426,33.6296276 C51.8680954,34.0103398 51.4997292,34.2601486 51.09,34.26 Z" id="Shape" fill="#3D324C"/><path d="M32.651,35.07 C32.5779875,35.0703128 32.5051795,35.0622603 32.434,35.046 C31.8951016,34.9265185 31.5549324,34.39299 31.674,33.854 L33.283,26.594 C33.3601694,26.2451302 33.6175967,25.9639305 33.9583115,25.8563262 C34.2990263,25.7487219 34.671266,25.8310606 34.9348115,26.0723262 C35.198357,26.3135918 35.3131694,26.6771302 35.236,27.026 L33.627,34.286 C33.5257158,34.743839 33.1199083,35.0698155 32.651,35.07 Z" id="Shape" fill="#3D324C"/><path d="M22.571,25.971 C22.0983905,25.9716086 21.6898817,25.6412681 21.591582,25.178994 C21.4932824,24.71672 21.7320341,24.2487437 22.164,24.057 L28.284,21.336 C28.7887883,21.1114962 29.3799962,21.3387117 29.6045,21.8435 C29.8290038,22.3482883 29.6017883,22.9394962 29.097,23.164 L22.977,25.884 C22.8493096,25.9412865 22.710952,25.9709346 22.571,25.971 Z" id="Shape" fill="#3D324C"/><circle id="Oval" fill="#FF5364" cx="36" cy="19" r="8"/><circle id="Oval" fill="#2FA8CC" cx="51" cy="7" r="5"/><circle id="Oval" fill="#FB7B76" cx="54" cy="36" r="4"/><circle id="Oval" fill="#2FA8CC" cx="32" cy="37" r="3"/><circle id="Oval" fill="#FB7B76" cx="18" cy="27" r="5"/><circle id="Oval" fill="#2FA8CC" cx="30" cy="4" r="4"/><circle id="Oval" fill="#FB7B76" cx="35" cy="18" r="6"/><circle id="Oval" fill="#FDB0AD" cx="17" cy="26" r="3"/><circle id="Oval" fill="#FDB0AD" cx="53" cy="35" r="2"/><circle id="Oval" fill="#67B9CC" cx="29" cy="3" r="2"/><circle id="Oval" fill="#67B9CC" cx="50" cy="6" r="3"/><circle id="Oval" fill="#67B9CC" cx="32" cy="36" r="2"/></g></g></svg>
