<?xml version="1.0" encoding="UTF-8"?>
<svg xmlns="http://www.w3.org/2000/svg" xmlns:xlink="http://www.w3.org/1999/xlink" width="512" height="512" viewBox="0 0 58 58" version="1.1"><!-- Generator: Sketch 51.3 (57544) - http://www.bohemiancoding.com/sketch --><title>077 - Relax</title><desc>Created with Sketch.</desc><defs/><g id="Page-1" stroke="none" stroke-width="1" fill="none" fill-rule="evenodd"><g id="077---Relax" transform="translate(0.000000, -1.000000)" fill-rule="nonzero"><path d="M39.213,22.22 C37.943,21.57 36.672,23.5 36.672,23.5 L36.593,23.49 C36.7559709,20.4955491 36.7559709,17.4944509 36.593,14.5 C36,1.64 21.193,1 21.193,1 L18.813,1 C18.813,1 4,1.64 3.412,14.5 C3.24902908,17.4944509 3.24902908,20.4955491 3.412,23.49 L3.333,23.5 C3.333,23.5 2.063,21.57 0.792,22.22 C-0.467,22.85 0.153,28.64 0.153,28.64 C0.153,28.64 0.783,33.1 4.533,35.04 C4.373,38.76 4.093,42.14 8.153,46 C8.63533088,46.4549126 9.09266744,46.9356167 9.523,47.44 L9.523,56.96 C9.52298624,58.060676 10.4123377,58.9544966 11.513,58.96 L28.493,58.96 C29.5932713,58.9539484 30.4820166,58.060288 30.482,56.96 L30.482,47.44 C30.9126018,46.9358594 31.3699249,46.4551694 31.852,46 C35.912,42.14 35.633,38.76 35.472,35.04 C39.222,33.1 39.852,28.64 39.852,28.64 C39.852,28.64 40.472,22.85 39.213,22.22 Z" id="Shape" fill="#F3D55B"/><path d="M4.593,33.14 C4.593,33.79 4.573,34.42 4.533,35.04 C0.783,33.1 0.153,28.64 0.153,28.64 C0.153,28.64 -0.467,22.85 0.792,22.22 C2.063,21.57 3.333,23.5 3.333,23.5 L3.412,23.49 C3.732,28.45 4.593,30.02 4.593,33.14 Z" id="Shape" fill="#F0C419"/><path d="M36.593,23.49 C36.273,28.45 35.412,30.02 35.412,33.14 C35.412,33.79 35.433,34.42 35.472,35.04 C35.633,38.76 35.912,42.14 31.852,46 C31.3699249,46.4551694 30.9126018,46.9358594 30.482,47.44 C27.063,51.41 26.6,55 22.373,55 L17.633,55 C13.403,55 12.943,51.41 9.523,47.44 C9.09239821,46.9358594 8.63507511,46.4551694 8.153,46 C4.093,42.14 4.373,38.76 4.533,35.04 C4.573,34.42 4.593,33.79 4.593,33.14 C4.593,30.02 3.732,28.45 3.412,23.49 C3.24902908,20.4955491 3.24902908,17.4944509 3.412,14.5 C4,1.64 18.813,1 18.813,1 L21.193,1 C21.193,1 36.003,1.64 36.593,14.5 C36.7559709,17.4944509 36.7559709,20.4955491 36.593,23.49 Z" id="Shape" fill="#F3D55B"/><path d="M39.852,28.64 C39.852,28.64 39.222,33.1 35.472,35.04 C35.433,34.42 35.412,33.79 35.412,33.14 C35.412,30.02 36.273,28.45 36.593,23.49 L36.672,23.5 C36.672,23.5 37.943,21.57 39.213,22.22 C40.472,22.85 39.852,28.64 39.852,28.64 Z" id="Shape" fill="#285680"/><path d="M30.482,47.44 L30.482,56.96 C30.4820138,58.060676 29.5926623,58.9544966 28.492,58.96 L11.513,58.96 C10.4123377,58.9544966 9.52298624,58.060676 9.523,56.96 L9.523,47.44 C12.943,51.41 13.403,55 17.633,55 L22.373,55 C26.6,55 27.063,51.41 30.482,47.44 Z" id="Shape" fill="#F0C419"/><path d="M41.82,11.78 C41.7393849,12.2531084 41.6291684,12.7206934 41.49,13.18 C41.43,13.4 41.36,13.62 41.28,13.83 C41.23,14 41.16,14.16 41.1,14.32 L40.95,14.68 C40.82,15 40.68,15.29 40.54,15.57 C40.5154819,15.552744 40.4885156,15.5392609 40.46,15.53 C39.6869899,15.1804972 38.8483494,14.9998145 38,15 C37.2998212,14.9972903 36.6050529,15.1226875 35.95,15.37 C35.91,15.24 35.86,15.1 35.81,14.96 C35.76,14.82 35.71,14.67 35.65,14.53 C35.4686193,14.0688119 35.2616305,13.6181105 35.03,13.18 C34.95,13.02 34.86,12.87 34.77,12.71 C34.6854762,12.5514748 34.5919915,12.3978927 34.49,12.25 C34.39,12.09 34.29,11.94 34.18,11.78 L34.18,11.77 C33.67,8.88 34.11,5.25 37.21,1.38 C37.4009813,1.1383905 37.6920243,0.997458966 38,0.997458966 C38.3079757,0.997458966 38.5990187,1.1383905 38.79,1.38 C41.89,5.25 42.33,8.89 41.82,11.78 Z" id="Shape" fill="#FF5364"/><path d="M35.81,14.96 C35.86,15.1 35.91,15.24 35.95,15.37 L35.86,15.4 C34.4092991,15.9568286 33.2303219,17.0533848 32.57,18.46 C31.3762794,17.8497674 30.0992721,17.4184826 28.78,17.18 C26.38,15.5 24.11,12.61 23.57,7.68 C23.5342379,7.37604663 23.6396327,7.07245274 23.8560427,6.85604274 C24.0724527,6.63963274 24.3760466,6.53423791 24.68,6.57 C29.6,7.11 32.49,9.38 34.18,11.77 L34.18,11.78 C34.29,11.94 34.39,12.09 34.49,12.25 C34.59,12.41 34.68,12.56 34.77,12.71 C34.86,12.86 34.95,13.02 35.03,13.18 C35.2616305,13.6181105 35.4686193,14.0688119 35.65,14.53 C35.71,14.67 35.76,14.82 35.81,14.96 Z" id="Shape" fill="#FB7B76"/><path d="M32,21 C31.9972903,21.7001788 32.1226875,22.3949471 32.37,23.05 C32.24,23.09 32.1,23.14 31.96,23.19 C31.82,23.24 31.68,23.29 31.53,23.35 C31.0688119,23.5313807 30.6181105,23.7383695 30.18,23.97 C30.0182864,24.047212 29.8613391,24.1340339 29.71,24.23 C29.5514748,24.3145238 29.3978927,24.4080085 29.25,24.51 C29.09,24.61 28.94,24.71 28.78,24.82 L28.77,24.82 C25.88,25.33 22.25,24.89 18.38,21.79 C18.1383905,21.5990187 17.997459,21.3079757 17.997459,21 C17.997459,20.6920243 18.1383905,20.4009813 18.38,20.21 C22.25,17.11 25.89,16.67 28.78,17.18 C30.0992721,17.4184826 31.3762794,17.8497674 32.57,18.46 C32.552744,18.4845181 32.5392609,18.5114844 32.53,18.54 C32.1804972,19.3130101 31.9998145,20.1516506 32,21 Z" id="Shape" fill="#FF5364"/><path d="M35.46,26.43 C35.32,26.71 35.18,27 35.05,27.32 L34.9,27.68 C34.84,27.84 34.78,28.01 34.72,28.17 C34.64,28.38 34.57,28.6 34.51,28.82 C34.3755363,29.2805597 34.2653842,29.7478716 34.18,30.22 C32.5,32.62 29.61,34.89 24.68,35.43 C24.3760466,35.4657621 24.0724527,35.3603673 23.8560427,35.1439573 C23.6396327,34.9275473 23.5342379,34.6239534 23.57,34.32 C24.11,29.4 26.38,26.51 28.77,24.82 L28.78,24.82 C28.94,24.71 29.09,24.61 29.25,24.51 C29.41,24.41 29.56,24.32 29.71,24.23 C29.86,24.14 30.02,24.05 30.18,23.97 C30.6181105,23.7383695 31.0688119,23.5313807 31.53,23.35 C31.67,23.29 31.82,23.24 31.96,23.19 C32.1,23.14 32.24,23.09 32.37,23.05 L32.4,23.14 C32.9568286,24.5907009 34.0533848,25.7696781 35.46,26.43 Z" id="Shape" fill="#FB7B76"/><path d="M38.79,40.62 C38.5990187,40.8616095 38.3079757,41.002541 38,41.002541 C37.6920243,41.002541 37.4009813,40.8616095 37.21,40.62 C34.11,36.75 33.67,33.11 34.18,30.22 C34.2653842,29.7478716 34.3755363,29.2805597 34.51,28.82 C34.57,28.6 34.64,28.38 34.72,28.17 C34.78,28.01 34.84,27.84 34.9,27.68 L35.05,27.32 C35.18,27 35.32,26.71 35.46,26.43 C35.4845181,26.447256 35.5114844,26.4607391 35.54,26.47 C36.3130101,26.8195028 37.1516506,27.0001855 38,27 C38.7001788,27.0027097 39.3949471,26.8773125 40.05,26.63 C40.4584335,27.9079303 41.0549819,29.1178789 41.82,30.22 L41.82,30.23 C42.33,33.12 41.89,36.75 38.79,40.62 Z" id="Shape" fill="#FF5364"/><path d="M52.43,34.32 C52.4657621,34.6239534 52.3603673,34.9275473 52.1439573,35.1439573 C51.9275473,35.3603673 51.6239534,35.4657621 51.32,35.43 C46.4,34.89 43.51,32.62 41.82,30.23 L41.82,30.22 C41.0549819,29.1178789 40.4584335,27.9079303 40.05,26.63 L40.14,26.6 C41.5907009,26.0431714 42.7696781,24.9466152 43.43,23.54 C44.6237206,24.1502326 45.9007279,24.5815174 47.22,24.82 C49.61,26.5 51.88,29.38 52.43,34.32 Z" id="Shape" fill="#FB7B76"/><path d="M57.62,21.79 C53.75,24.89 50.11,25.33 47.22,24.82 C45.9007279,24.5815174 44.6237206,24.1502326 43.43,23.54 C43.447256,23.5154819 43.4607391,23.4885156 43.47,23.46 C43.8195028,22.6869899 44.0001855,21.8483494 44,21 C44.0027097,20.2998212 43.8773125,19.6050529 43.63,18.95 C43.77,18.91 43.9,18.86 44.04,18.81 C44.18,18.76 44.33,18.71 44.47,18.65 C44.9321534,18.4708936 45.3829857,18.2638447 45.82,18.03 C45.98,17.95 46.13,17.86 46.29,17.77 C46.45,17.68 46.6,17.59 46.75,17.49 C46.9,17.39 47.06,17.29 47.22,17.18 C50.11,16.67 53.75,17.11 57.62,20.21 C57.8616095,20.4009813 58.002541,20.6920243 58.002541,21 C58.002541,21.3079757 57.8616095,21.5990187 57.62,21.79 Z" id="Shape" fill="#FF5364"/><path d="M52.43,7.68 C51.88,12.62 49.61,15.5 47.22,17.18 C47.06,17.29 46.91,17.4 46.75,17.49 C46.59,17.58 46.44,17.68 46.29,17.77 C46.14,17.86 45.98,17.95 45.82,18.03 C45.3829857,18.2638447 44.9321534,18.4708936 44.47,18.65 C44.33,18.71 44.18,18.76 44.04,18.81 C43.9,18.86 43.77,18.91 43.63,18.95 L43.6,18.86 C43.0431714,17.4092991 41.9466152,16.2303219 40.54,15.57 C40.68,15.29 40.82,15 40.95,14.68 C41,14.57 41.05,14.44 41.1,14.32 C41.16,14.16 41.23,14 41.28,13.83 C41.36,13.62 41.43,13.4 41.49,13.18 C41.6291684,12.7206934 41.7393849,12.2531084 41.82,11.78 C43.5,9.38 46.39,7.11 51.32,6.57 C51.6239534,6.53423791 51.9275473,6.63963274 52.1439573,6.85604274 C52.3603673,7.07245274 52.4657621,7.37604663 52.43,7.68 Z" id="Shape" fill="#FB7B76"/><path d="M43,21 C43.0045433,23.5925052 41.0316284,25.7607908 38.4502101,26.0003392 C35.8687917,26.2398877 33.5305796,24.4716628 33.0579987,21.9225901 C32.5854179,19.3735175 34.1343909,16.8846347 36.6301255,16.1829132 C39.12586,15.4811917 41.7449168,16.7981566 42.67,19.22 C42.8868314,19.7884686 42.9986449,20.3915835 43,21 Z" id="Shape" fill="#F3D55B"/><path d="M43.43,23.54 C42.7696781,24.9466152 41.5907009,26.0431714 40.14,26.6 L40.05,26.63 C39.94,26.29 39.85,25.97 39.78,25.67 C41.0169098,25.1990326 42.0166247,24.2568552 42.56,23.05 C42.82,23.21 43.11,23.37 43.43,23.54 Z" id="Shape" fill="#FF5364"/><path d="M40.05,26.63 C39.3949471,26.8773125 38.7001788,27.0027097 38,27 C37.1516506,27.0001855 36.3130101,26.8195028 35.54,26.47 C35.5114844,26.4607391 35.4845181,26.447256 35.46,26.43 C35.63,26.11 35.79,25.82 35.95,25.56 C37.1609574,26.1057621 38.5397153,26.1453609 39.78,25.67 C39.85,25.97 39.94,26.29 40.05,26.63 Z" id="Shape" fill="#DF4D60"/><path d="M33,21 C33.0003712,21.6085076 33.1122174,22.211799 33.33,22.78 C33.0633333,22.84 32.7733333,22.92 32.46,23.02 L32.37,23.05 C32.1226875,22.3949471 31.9972903,21.7001788 32,21 C31.9998145,20.1516506 32.1804972,19.3130101 32.53,18.54 C32.5392609,18.5114844 32.552744,18.4845181 32.57,18.46 C32.89,18.63 33.18,18.79 33.44,18.95 C33.1508468,19.5948021 33.0009182,20.2933329 33,21 Z" id="Shape" fill="#DF4D60"/><path d="M36.22,16.33 C34.9830902,16.8009674 33.9833753,17.7431448 33.44,18.95 C33.18,18.79 32.89,18.63 32.57,18.46 C33.2303219,17.0533848 34.4092991,15.9568286 35.86,15.4 L35.95,15.37 L35.98,15.46 C36,15.53 36.02,15.6 36.04,15.66 C36.07,15.76 36.1,15.86 36.12,15.95 C36.16,16.08 36.19,16.21 36.22,16.33 Z" id="Shape" fill="#FF5364"/><path d="M40.54,15.57 C40.49,15.67 40.44,15.76 40.39,15.85 C40.36,15.9 40.33,15.96 40.3,16.01 C40.22,16.16 40.13,16.3 40.05,16.44 C38.8390426,15.8942379 37.4602847,15.8546391 36.22,16.33 C36.19,16.21 36.16,16.08 36.12,15.95 C36.1,15.86 36.07,15.76 36.04,15.66 C36.02,15.6 36,15.53 35.98,15.46 L35.95,15.37 C36.6050529,15.1226875 37.2998212,14.9972903 38,15 C38.8483494,14.9998145 39.6869899,15.1804972 40.46,15.53 C40.4885156,15.5392609 40.5154819,15.552744 40.54,15.57 Z" id="Shape" fill="#DF4D60"/><path d="M43.63,18.95 L43.54,18.98 C43.23,19.07 42.94,19.15 42.67,19.22 C42.1990326,17.9830902 41.2568552,16.9833753 40.05,16.44 C40.13,16.3 40.22,16.16 40.3,16.01 C40.33,15.96 40.36,15.9 40.39,15.85 C40.44,15.76 40.49,15.67 40.54,15.57 C41.9466152,16.2303219 43.0431714,17.4092991 43.6,18.86 L43.63,18.95 Z" id="Shape" fill="#FF5364"/><path d="M44,21 C44.0001855,21.8483494 43.8195028,22.6869899 43.47,23.46 C43.4607391,23.4885156 43.447256,23.5154819 43.43,23.54 C43.11,23.37 42.82,23.21 42.56,23.05 C43.1057621,21.8390426 43.1453609,20.4602847 42.67,19.22 C42.9366667,19.15 43.2266667,19.07 43.54,18.98 L43.63,18.95 C43.8773125,19.6050529 44.0027097,20.2998212 44,21 Z" id="Shape" fill="#DF4D60"/><path d="M35.95,25.56 C35.79,25.82 35.63,26.11 35.46,26.43 C34.0533848,25.7696781 32.9568286,24.5907009 32.4,23.14 L32.37,23.05 L32.46,23.02 C32.77,22.92 33.06,22.84 33.33,22.78 C33.8009674,24.0169098 34.7431448,25.0166247 35.95,25.56 Z" id="Shape" fill="#FF5364"/><path d="M43,21 C43.0045433,23.5925052 41.0316284,25.7607908 38.4502101,26.0003392 C35.8687917,26.2398877 33.5305796,24.4716628 33.0579987,21.9225901 C32.5854179,19.3735175 34.1343909,16.8846347 36.6301255,16.1829132 C39.12586,15.4811917 41.7449168,16.7981566 42.67,19.22 C42.8868314,19.7884686 42.9986449,20.3915835 43,21 Z" id="Shape" fill="#F3D55B"/><circle id="Oval" fill="#F0C419" cx="38.002" cy="21.003" r="2.998"/></g></g></svg>
