<?xml version="1.0" encoding="UTF-8"?>
<svg xmlns="http://www.w3.org/2000/svg" xmlns:xlink="http://www.w3.org/1999/xlink" width="512" height="512" viewBox="0 0 58 58" version="1.1"><!-- Generator: Sketch 51.3 (57544) - http://www.bohemiancoding.com/sketch --><title>017 - Secure Mind</title><desc>Created with Sketch.</desc><defs/><g id="Page-1" stroke="none" stroke-width="1" fill="none" fill-rule="evenodd"><g id="017---Secure-Mind" fill-rule="nonzero"><path d="M18.72,50.3 C22.149,51.851 23.652,58 23.652,58 L48.746,57.931 C48.2755957,56.9544122 47.7410951,56.0100165 47.146,55.104 C46.6730873,54.1364367 46.2765457,53.1333804 45.96,52.104 C45.3723088,50.1153891 44.9653241,48.077788 44.744,46.016 C44.3722168,42.8481157 44.849885,39.638351 46.128,36.716 C47.255,34.147 49.212,32.116 50.704,29.758 C52.1835305,27.4592816 52.9797562,24.7876252 53,22.054 C53.0559518,19.2866244 52.7165274,16.5254337 51.992,13.854 C51.0433154,10.6182409 49.0653268,7.78010465 46.358,5.77 C41.4,1.881 36.342,-0.293 29.938,0.033 C26.7328711,0.255304185 23.5483426,0.712194448 20.41,1.4 C16.992,2.088 13.373,3.366 10.92,5.956 C9.24666038,7.74409793 7.95386958,9.85338818 7.12,12.156 C6.72915176,13.3014161 6.41118297,14.470419 6.168,15.656 C5.75858569,16.9487526 5.26451756,18.2131528 4.689,19.441 C4.5195956,19.8140028 4.44570743,20.2233089 4.474,20.632 C4.666,22.016 6.742,22.611 6.759,24.037 C6.73691373,24.352602 6.63989807,24.6583899 6.476,24.929 C5.25846342,27.4971257 3.76500104,29.9250919 2.022,32.17 C1.61,32.67 0.774,33.67 0.878,34.384 C0.952,34.891 1.56,35.312 1.935,35.591 C2.735,36.185 4.364,36.591 4.567,37.663 C4.67208167,38.2089291 4.60607672,38.7739874 4.378,39.281 C3.825,40.447 3.212,41.07 3.647,41.436 C4.082,41.802 5.247,42.681 5.247,42.681 C5.247,42.681 4.14,44.094 4.753,44.529 C5.513,45.069 6.481,45.318 6.739,46.329 C6.81580147,47.1301317 6.73563877,47.9385522 6.503,48.709 C6.42489413,49.4629685 6.52349984,50.2247661 6.791,50.934 C7.15109494,52.3532114 8.56767488,53.2347664 10,52.931 C12.9521233,52.2123982 15.8630708,51.3341066 18.72,50.3" id="Shape" fill="#B49ACA"/><path d="M10.1,16.468 C9.83669632,16.4098525 9.60803419,16.2478349 9.46588349,16.0186992 C9.32373279,15.7895636 9.28014226,15.5127316 9.345,15.251 C9.50215969,14.5562533 9.69915171,13.8711218 9.935,13.199 C10.6292536,11.2744768 11.70587,9.51039072 13.1,8.013 C14.724,6.297 17.387,5.061 21.016,4.339 C21.5458506,4.25813074 22.0452413,4.60938671 22.1482412,5.13538342 C22.2512411,5.66138013 21.9212189,6.17505045 21.4,6.3 C18.186,6.939 15.881,7.977 14.548,9.386 C13.3395494,10.6858491 12.4062067,12.2164768 11.804,13.886 C11.5945574,14.4871971 11.4196061,15.0998605 11.28,15.721 C11.1544825,16.2489086 10.6308585,16.5803892 10.1,16.468 Z" id="Shape" fill="#ECF0F1"/><circle id="Oval" fill="#ECF0F1" cx="8.869" cy="20.001" r="1"/><rect id="Rectangle-path" fill="#E4C05C" x="30" y="17" width="28" height="24" rx="2"/><path d="M55,11 L55,17 L51,17 L51,11 C51,7.13400675 47.8659932,4 44,4 C40.1340068,4 37,7.13400675 37,11 L37,17 L33,17 L33,11 C33,4.92486775 37.9248678,1.11022302e-15 44,0 C50.0751322,-1.11022302e-15 55,4.92486775 55,11 Z" id="Shape" fill="#BDC3C7"/><path d="M46.17,29.36 L46.859,34.876 C46.8945602,35.1605624 46.80624,35.446697 46.6164778,35.6617099 C46.4267155,35.8767228 46.1537756,35.9999191 45.867,36 L42.133,36 C41.8462244,35.9999191 41.5732845,35.8767228 41.3835222,35.6617099 C41.19376,35.446697 41.1054398,35.1605624 41.141,34.876 L41.83,29.36 C40.3401894,28.3978946 39.6617521,26.5696781 40.1632766,24.8686032 C40.6648011,23.1675284 42.2265338,21.9997768 44,21.9997768 C45.7734662,21.9997768 47.3351989,23.1675284 47.8367234,24.8686032 C48.3382479,26.5696781 47.6598106,28.3978946 46.17,29.36 Z" id="Shape" fill="#35495E"/><path d="M36,21 C36,21.5522847 35.5522847,22 35,22 L30,22 L30,20 L35,20 C35.5522847,20 36,20.4477153 36,21 Z" id="Shape" fill="#B19046"/><path d="M36,25 C36,25.5522847 35.5522847,26 35,26 L30,26 L30,24 L35,24 C35.5522847,24 36,24.4477153 36,25 Z" id="Shape" fill="#B19046"/><path d="M36,29 C36,29.5522847 35.5522847,30 35,30 L30,30 L30,28 L35,28 C35.5522847,28 36,28.4477153 36,29 Z" id="Shape" fill="#B19046"/><path d="M36,33 C36,33.5522847 35.5522847,34 35,34 L30,34 L30,32 L35,32 C35.5522847,32 36,32.4477153 36,33 Z" id="Shape" fill="#B19046"/><path d="M36,37 C36,37.5522847 35.5522847,38 35,38 L30,38 L30,36 L35,36 C35.5522847,36 36,36.4477153 36,37 Z" id="Shape" fill="#B19046"/><path d="M58,20 L58,22 L53,22 C52.4477153,22 52,21.5522847 52,21 C52,20.4477153 52.4477153,20 53,20 L58,20 Z" id="Shape" fill="#B19046"/><path d="M58,24 L58,26 L53,26 C52.4477153,26 52,25.5522847 52,25 C52,24.4477153 52.4477153,24 53,24 L58,24 Z" id="Shape" fill="#B19046"/><path d="M58,28 L58,30 L53,30 C52.4477153,30 52,29.5522847 52,29 C52,28.4477153 52.4477153,28 53,28 L58,28 Z" id="Shape" fill="#B19046"/><path d="M58,32 L58,34 L53,34 C52.4477153,34 52,33.5522847 52,33 C52,32.4477153 52.4477153,32 53,32 L58,32 Z" id="Shape" fill="#B19046"/><path d="M58,36 L58,38 L53,38 C52.4477153,38 52,37.5522847 52,37 C52,36.4477153 52.4477153,36 53,36 L58,36 Z" id="Shape" fill="#B19046"/><path d="M52,11 L52,17 L51,17 L51,11 C51,7.13400675 47.8659932,4 44,4 C40.1340068,4 37,7.13400675 37,11 L37,17 L36,17 L36,11 C36,6.581722 39.581722,3 44,3 C48.418278,3 52,6.581722 52,11 Z" id="Shape" fill="#95A5A5"/></g></g></svg>
