<?xml version="1.0" encoding="UTF-8"?>
<svg xmlns="http://www.w3.org/2000/svg" xmlns:xlink="http://www.w3.org/1999/xlink" width="512" height="512" viewBox="0 0 58 58" version="1.1"><!-- Generator: Sketch 51.3 (57544) - http://www.bohemiancoding.com/sketch --><title>014 - Study</title><desc>Created with Sketch.</desc><defs/><g id="Page-1" stroke="none" stroke-width="1" fill="none" fill-rule="evenodd"><g id="014---Study" fill-rule="nonzero"><path d="M17.851,50.3 C21.281,51.851 22.783,58 22.783,58 L47.883,57.931 C47.4121814,56.9546289 46.877696,56.01026 46.283,55.104 C45.810511,54.1362498 45.4139826,53.133227 45.097,52.104 C44.5096366,50.1153602 44.1029865,48.0777587 43.882,46.016 C43.5094179,42.8481972 43.9867593,39.6383095 45.265,36.716 C46.392,34.147 48.349,32.116 49.842,29.758 C51.3188424,27.4596935 52.1139104,24.7898183 52.135,22.058 C52.1906124,19.2905772 51.8508514,16.5293876 51.126,13.858 C50.1780466,10.6221548 48.200326,7.78389935 45.493,5.774 C40.534,1.881 35.474,-0.293 29.069,0.033 C25.8638786,0.255375513 22.6793554,0.71226503 19.541,1.4 C16.123,2.088 12.504,3.366 10.051,5.956 C8.37766038,7.74409793 7.08486958,9.85338818 6.251,12.156 C5.86015176,13.3014161 5.54218297,14.470419 5.299,15.656 C4.88925592,16.9460342 4.39519171,18.2077519 3.82,19.433 C3.65089796,19.8060777 3.57735228,20.2153904 3.606,20.624 C3.8,22.008 5.874,22.6 5.89,24.029 C5.86887774,24.3447852 5.77179136,24.650796 5.607,24.921 C4.39034374,27.4921042 2.89684314,29.922815 1.153,32.17 C0.742,32.67 -0.095,33.67 0.009,34.384 C0.083,34.891 0.691,35.312 1.066,35.591 C1.866,36.185 3.495,36.591 3.698,37.663 C3.80398936,38.2088042 3.73831308,38.7740394 3.51,39.281 C2.956,40.447 2.343,41.07 2.778,41.436 C3.213,41.802 4.378,42.681 4.378,42.681 C4.378,42.681 3.272,44.094 3.884,44.529 C4.645,45.069 5.612,45.318 5.871,46.329 C5.94680483,47.1301298 5.86666115,47.9383584 5.635,48.709 C5.5563755,49.462975 5.65499664,50.2248918 5.923,50.934 C6.28395493,52.3522509 7.70070311,53.2321447 9.132,52.927 C12.083746,52.2098159 14.9943653,51.332858 17.851,50.3" id="Shape" fill="#7ED09E"/><path d="M9.227,16.468 C8.96351193,16.4100801 8.73460382,16.2481569 8.59224806,16.0189942 C8.4498923,15.7898316 8.40616709,15.5128728 8.471,15.251 C8.62815969,14.5562533 8.82515171,13.8711218 9.061,13.199 C9.7565457,11.2744195 10.8341474,9.51039105 12.229,8.013 C13.853,6.297 16.516,5.061 20.145,4.339 C20.4954775,4.2693332 20.856499,4.39193597 21.0920709,4.66062503 C21.3276429,4.9293141 21.4019765,5.30326919 21.2870709,5.64162505 C21.1721654,5.97998091 20.8854776,6.23133322 20.535,6.301 C17.321,6.94 15.015,7.978 13.682,9.387 C12.4735494,10.6868491 11.5402067,12.2174768 10.938,13.887 C10.7285574,14.4881971 10.5536061,15.1008605 10.414,15.722 C10.2880679,16.2528234 9.7599176,16.5847527 9.227,16.468 Z" id="Shape" fill="#ECF0F1"/><path d="M58,3.94 L58,28.06 C58.0016663,28.5759388 57.5859271,28.9961483 57.07,29 L42.93,29 C42.6830344,28.9996049 42.4458773,29.0966237 42.27,29.27 C42.1988832,29.3425328 42.1413103,29.4271988 42.1,29.52 C42.0318986,29.6457682 41.9974517,29.7870002 42,29.93 L42,31.06 C42.0016663,31.5759388 41.5859271,31.9961483 41.07,32 L34.94,32 C34.4240729,31.9961483 34.0083337,31.5759388 34.01,31.06 L34.01,29.93 C34.0030068,29.4192999 33.5907001,29.0069932 33.08,29 L18.93,29 C18.4140729,28.9961483 17.9983337,28.5759388 18,28.06 L18,3.94 C17.9983337,3.42406122 18.4140729,3.00385173 18.93,3 L57.07,3 C57.5859271,3.00385173 58.0016663,3.42406122 58,3.94 Z" id="Shape" fill="#805333"/><path d="M58,3.94 L58,26.06 C58.0016663,26.5759388 57.5859271,26.9961483 57.07,27 L42.93,27 C42.6826942,26.9978447 42.4448908,27.0951343 42.2700125,27.2700125 C42.0951343,27.4448908 41.9978447,27.6826942 42,27.93 L42,29.06 C41.9970462,29.1863303 41.9733992,29.3113216 41.93,29.43 C41.7788667,29.7713238 41.4432352,29.9937773 41.07,30 L34.94,30 C34.5667648,29.9937773 34.2311333,29.7713238 34.08,29.43 C34.0366008,29.3113216 34.0129538,29.1863303 34.01,29.06 L34.01,27.93 C34.0072667,27.4175116 33.5924884,27.0027333 33.08,27 L18.93,27 C18.4140729,26.9961483 17.9983337,26.5759388 18,26.06 L18,3.94 C17.9983337,3.42406122 18.4140729,3.00385173 18.93,3 L57.07,3 C57.5859271,3.00385173 58.0016663,3.42406122 58,3.94 Z" id="Shape" fill="#CB8252"/><circle id="Oval" fill="#ECF0F1" cx="8" cy="20.001" r="1"/><path d="M38,28.955 C37.4477153,28.955 37,28.5072847 37,27.955 L37,24 C37,23.4477153 37.4477153,23 38,23 C38.5522847,23 39,23.4477153 39,24 L39,27.955 C39,28.5072847 38.5522847,28.955 38,28.955 Z" id="Shape" fill="#805333"/><path d="M38,24 L38,25 L22.89,25 C22.3694873,24.96675 21.9726413,24.5208555 22,24 L22,20 L34.44,20 C36.5241095,20.1287716 38.1138736,21.9150234 38,24 Z" id="Shape" fill="#FAC176"/><path d="M38,3.73 L38,24 C38.1138736,21.9150234 36.5241095,20.1287716 34.44,20 L22,20 L22,0.93 C21.991044,0.428235631 22.3883267,0.0130976097 22.89,0 L34.44,0 C35.4068008,0.0222824067 36.3251202,0.427847318 36.9928054,1.12741633 C37.6604905,1.82698534 38.0228082,2.76321146 38,3.73 Z" id="Shape" fill="#F9EAB0"/><path d="M54,0.93 L54,20 L41.56,20 C39.4758905,20.1287716 37.8861264,21.9150234 38,24 L38,3.73 C37.9771918,2.76321146 38.3395095,1.82698534 39.0071946,1.12741633 C39.6748798,0.427847318 40.5931992,0.0222824067 41.56,0 L53.11,0 C53.6116733,0.0130976097 54.008956,0.428235631 54,0.93 Z" id="Shape" fill="#F5EFCA"/><path d="M54,20 L54,24 C54.0273587,24.5208555 53.6305127,24.96675 53.11,25 L38,25 L38,24 C37.8861264,21.9150234 39.4758905,20.1287716 41.56,20 L54,20 Z" id="Shape" fill="#FAC176"/><path d="M34,6 L26,6 C25.4477153,6 25,5.55228475 25,5 C25,4.44771525 25.4477153,4 26,4 L34,4 C34.5522847,4 35,4.44771525 35,5 C35,5.55228475 34.5522847,6 34,6 Z" id="Shape" fill="#35495E"/><path d="M34,11 L26,11 C25.4477153,11 25,10.5522847 25,10 C25,9.44771525 25.4477153,9 26,9 L34,9 C34.5522847,9 35,9.44771525 35,10 C35,10.5522847 34.5522847,11 34,11 Z" id="Shape" fill="#35495E"/><path d="M34,16 L26,16 C25.4477153,16 25,15.5522847 25,15 C25,14.4477153 25.4477153,14 26,14 L34,14 C34.5522847,14 35,14.4477153 35,15 C35,15.5522847 34.5522847,16 34,16 Z" id="Shape" fill="#35495E"/><path d="M50,6 L42,6 C41.4477153,6 41,5.55228475 41,5 C41,4.44771525 41.4477153,4 42,4 L50,4 C50.5522847,4 51,4.44771525 51,5 C51,5.55228475 50.5522847,6 50,6 Z" id="Shape" fill="#35495E"/><path d="M50,11 L42,11 C41.4477153,11 41,10.5522847 41,10 C41,9.44771525 41.4477153,9 42,9 L50,9 C50.5522847,9 51,9.44771525 51,10 C51,10.5522847 50.5522847,11 50,11 Z" id="Shape" fill="#35495E"/><path d="M50,16 L42,16 C41.4477153,16 41,15.5522847 41,15 C41,14.4477153 41.4477153,14 42,14 L50,14 C50.5522847,14 51,14.4477153 51,15 C51,15.5522847 50.5522847,16 50,16 Z" id="Shape" fill="#35495E"/></g></g></svg>
