<?xml version="1.0" encoding="UTF-8"?>
<svg xmlns="http://www.w3.org/2000/svg" xmlns:xlink="http://www.w3.org/1999/xlink" width="512" height="512" viewBox="0 0 58 58" version="1.1"><!-- Generator: Sketch 51.3 (57544) - http://www.bohemiancoding.com/sketch --><title>035 - Triumph</title><desc>Created with Sketch.</desc><defs/><g id="Page-1" stroke="none" stroke-width="1" fill="none" fill-rule="evenodd"><g id="035---Triumph" fill-rule="nonzero"><path d="M17.851,50.3 C21.281,51.851 22.783,58 22.783,58 L47.883,57.931 C47.4121814,56.9546289 46.877696,56.01026 46.283,55.104 C45.810511,54.1362498 45.4139826,53.133227 45.097,52.104 C44.5096366,50.1153602 44.1029865,48.0777587 43.882,46.016 C43.5094179,42.8481972 43.9867593,39.6383095 45.265,36.716 C46.392,34.147 48.349,32.116 49.842,29.758 C51.3188424,27.4596935 52.1139104,24.7898183 52.135,22.058 C52.1906124,19.2905772 51.8508514,16.5293876 51.126,13.858 C50.1780466,10.6221548 48.200326,7.78389935 45.493,5.774 C40.534,1.881 35.474,-0.293 29.069,0.033 C25.8638786,0.255375513 22.6793554,0.71226503 19.541,1.4 C16.123,2.088 12.504,3.366 10.051,5.956 C8.37766038,7.74409793 7.08486958,9.85338818 6.251,12.156 C5.86015176,13.3014161 5.54218297,14.470419 5.299,15.656 C4.88925592,16.9460342 4.39519171,18.2077519 3.82,19.433 C3.65089796,19.8060777 3.57735228,20.2153904 3.606,20.624 C3.8,22.008 5.874,22.6 5.89,24.029 C5.86887774,24.3447852 5.77179136,24.650796 5.607,24.921 C4.39034374,27.4921042 2.89684314,29.922815 1.153,32.17 C0.742,32.67 -0.095,33.67 0.009,34.384 C0.083,34.891 0.691,35.312 1.066,35.591 C1.866,36.185 3.495,36.591 3.698,37.663 C3.80398936,38.2088042 3.73831308,38.7740394 3.51,39.281 C2.956,40.447 2.343,41.07 2.778,41.436 C3.213,41.802 4.378,42.681 4.378,42.681 C4.378,42.681 3.272,44.094 3.884,44.529 C4.645,45.069 5.612,45.318 5.871,46.329 C5.94680483,47.1301298 5.86666115,47.9383584 5.635,48.709 C5.5563755,49.462975 5.65499664,50.2248918 5.923,50.934 C6.28395493,52.3522509 7.70070311,53.2321447 9.132,52.927 C12.083746,52.2098159 14.9943653,51.332858 17.851,50.3" id="Shape" fill="#B0D3F0"/><path d="M29.78,19 L28,19 C23.581722,19 20,15.418278 20,11 C20,6.581722 23.581722,3 28,3 L28,7 C25.790861,7 24,8.790861 24,11 C24,13.209139 25.790861,15 28,15 L28.18,15 C28.4433973,16.4260705 28.9872391,17.785675 29.78,19 Z" id="Shape" fill="#E57E25"/><path d="M58,11 C58.0029246,13.1226272 57.1610091,15.1591582 55.6600837,16.6600837 C54.1591582,18.1610091 52.1226272,19.0029246 50,19 L48.22,19.0000076 C49.0127609,17.785675 49.5566027,16.4260705 49.82,15 L50,15 C52.209139,15 54,13.209139 54,11 C54,8.790861 52.209139,7 50,7 L50,3 C52.1226272,2.99707535 54.1591582,3.83899086 55.6600837,5.33991634 C57.1610091,6.84084182 58.0029246,8.87737284 58,11 Z" id="Shape" fill="#E57E25"/><rect id="Rectangle-path" fill="#E57E25" x="36" y="23.58" width="6" height="10.42"/><path d="M46,38 L46,39 C46.0013171,39.1128273 45.980948,39.2248572 45.94,39.33 C45.8002085,39.7298911 45.4236174,39.9983124 45,40 L33,40 C32.5763826,39.9983124 32.1997915,39.7298911 32.06,39.33 C32.019052,39.2248572 31.9986829,39.1128273 32,39 L32,38 C32,35.790861 33.790861,34 36,34 L42,34 C44.209139,34 46,35.790861 46,38 Z" id="Shape" fill="#F3D55B"/><path d="M45.94,39.33 C45.8002085,39.7298911 45.4236174,39.9983124 45,40 L33,40 C32.5763826,39.9983124 32.1997915,39.7298911 32.06,39.33 C32.3865043,37.4082554 34.0507169,36.0017 36,36 L42,36 C43.9492831,36.0017 45.6134957,37.4082554 45.94,39.33 Z" id="Shape" fill="#F0C419"/><path d="M50,1 L50,13 C50,19.0751322 45.0751322,24 39,24 C32.9248678,24 28,19.0751322 28,13 L28,1 C28,0.44771525 28.4477153,0 29,0 L49,0 C49.5522847,0 50,0.44771525 50,1 Z" id="Shape" fill="#F29C1F"/><path d="M50,1 L50,11 C50,17.0751322 45.0751322,22 39,22 C32.9248678,22 28,17.0751322 28,11 L28,1 C28,0.44771525 28.4477153,0 29,0 L49,0 C49.5522847,0 50,0.44771525 50,1 Z" id="Shape" fill="#F0C419"/><path d="M47,6.5 C47,13.96 43.42,20 39,20 C34.58,20 31,13.96 31,6.5 C30.9876277,4.29486233 31.3216989,2.10146588 31.99,1.59872116e-14 L46.01,1.59872116e-14 C46.6783011,2.10146588 47.0123723,4.29486233 47,6.5 Z" id="Shape" fill="#F3D55B"/><path d="M9.227,16.468 C8.96351193,16.4100801 8.73460382,16.2481569 8.59224806,16.0189942 C8.4498923,15.7898316 8.40616709,15.5128728 8.471,15.251 C8.62815969,14.5562533 8.82515171,13.8711218 9.061,13.199 C9.7565457,11.2744195 10.8341474,9.51039105 12.229,8.013 C13.853,6.297 16.516,5.061 20.145,4.339 C20.4954775,4.2693332 20.856499,4.39193597 21.0920709,4.66062503 C21.3276429,4.9293141 21.4019765,5.30326919 21.2870709,5.64162505 C21.1721654,5.97998091 20.8854776,6.23133322 20.535,6.301 C17.321,6.94 15.015,7.978 13.682,9.387 C12.4735494,10.6868491 11.5402067,12.2174768 10.938,13.887 C10.7285574,14.4881971 10.5536061,15.1008605 10.414,15.722 C10.2880679,16.2528234 9.7599176,16.5847527 9.227,16.468 Z" id="Shape" fill="#ECF0F1"/><circle id="Oval" fill="#ECF0F1" cx="8" cy="20.001" r="1"/><path d="M41.777,16.472 L39.228,15.053 C39.077416,14.969712 38.894584,14.969712 38.744,15.053 L36.187,16.453 C36.0191852,16.5451843 35.8134631,16.5334402 35.6572294,16.422757 C35.5009957,16.3120737 35.4216887,16.1218898 35.453,15.933 L35.962,12.872 C35.9880742,12.7155254 35.9383495,12.5559612 35.828,12.442 L33.701,10.242 C33.57087,10.1074282 33.5268121,9.91143911 33.5868302,9.73412245 C33.6468483,9.5568058 33.8008873,9.42786848 33.986,9.4 L36.894,8.965 C37.0589895,8.94026237 37.2007711,8.83486389 37.272,8.684 L38.563,5.957 C38.6454269,5.78164899 38.821742,5.66970578 39.0155,5.66970578 C39.209258,5.66970578 39.3855731,5.78164899 39.468,5.957 L40.741,8.7 C40.8115228,8.85137064 40.9529593,8.95754181 41.118,8.983 L44.023,9.436 C44.2080796,9.46488171 44.3614912,9.59479104 44.420474,9.77258208 C44.4794568,9.95037312 44.4341158,10.1462193 44.303,10.28 L42.161,12.461 C42.0495657,12.5744001 41.9987046,12.7340372 42.024,12.891 L42.514,15.954 C42.545256,16.1434441 42.4652685,16.3340532 42.3081823,16.4444611 C42.1510961,16.5548691 41.9446615,16.5655716 41.777,16.472 Z" id="Shape" fill="#E64C3C"/></g></g></svg>
