<svg id="Capa_1" enable-background="new 0 0 512.686 512.686" height="512" viewBox="0 0 512.686 512.686" width="512" xmlns="http://www.w3.org/2000/svg"><path d="m332.017 61.78h29.977v193.131h-29.977z" fill="#97de3d"/><path d="m347.006 61.78h14.989v193.131h-14.989z" fill="#59c36a"/><path d="m446.628 321.136-99.623 63.399-103.455-75.165c0-38.293 31.154-69.447 69.447-69.447h64.185c38.293 0 69.447 31.154 69.447 69.447v11.766z" fill="#fa502e"/><path d="m377.182 239.923h-30.176v144.612l99.623-63.399v-11.766c-.001-38.293-31.154-69.447-69.447-69.447z" fill="#ea0016"/><path d="m508.72 324.459c-4.678-10.842-13.254-19.149-24.148-23.393-10.748-4.188-22.47-3.897-33.022.822l-92.387 41.488c-3.617-17.486-17.556-31.466-36.007-34.248l-110.001-16.592c-29.762-4.489-60.466 5.456-82.2 26.612l-50.162 43.862v149.678l107.406-82.144 145.631 20.049 152.702-68.348c21.775-9.748 31.728-35.67 22.188-57.786z" fill="#ffdfcf"/><path d="m245.189 49.574c9.031 20.718 18.17 33.695 27.939 39.674 7.906 4.839 19.707 7.224 35.88 7.224 3.81 0 7.862-.132 12.162-.396 11.281-.692 21.293-2.115 25.837-2.827 4.544.712 14.515 2.135 25.795 2.827 4.301.264 8.352.396 12.162.396 16.171 0 27.975-2.386 35.88-7.224 9.769-5.978 18.907-18.956 27.938-39.674 6.036-13.848 15.006-42.984 15.006-42.984s-30.026-5.268-45.104-6.194c-22.562-1.386-38.274.85-48.042 6.828-8.228 5.036-15.989 15.019-23.635 30.43-7.646-15.41-15.448-25.394-23.676-30.43-9.769-5.979-25.489-8.212-48.041-6.828-15.079.925-45.106 6.194-45.106 6.194s8.969 29.136 15.005 42.984z" fill="#59c36a"/><path d="m418.682 115.15c-22.562-1.386-38.274.849-48.042 6.828-8.228 5.036-15.989 15.019-23.635 30.43-7.646-15.41-15.448-25.394-23.676-30.43-9.769-5.979-25.489-8.213-48.041-6.828-15.079.925-45.106 6.193-45.106 6.193s8.971 29.135 15.007 42.984c9.031 20.718 18.17 33.695 27.939 39.674 7.906 4.839 19.707 7.224 35.88 7.224 3.81 0 7.862-.132 12.162-.396 11.281-.692 21.293-2.111 25.837-2.824 4.544.712 14.515 2.132 25.795 2.824 4.301.264 8.352.396 12.162.396 16.171 0 27.975-2.386 35.88-7.224 9.769-5.978 18.907-18.956 27.938-39.674 6.036-13.848 15.006-42.984 15.006-42.984s-30.028-5.268-45.106-6.193z" fill="#59c36a"/><path d="m384.962 96.473c16.171 0 27.975-2.386 35.88-7.224 9.769-5.978 18.907-18.956 27.938-39.674 6.036-13.848 15.006-42.984 15.006-42.984s-30.026-5.268-45.104-6.194c-22.562-1.386-38.274.85-48.042 6.828-8.221 5.031-15.995 15.043-23.635 30.43v55.598c4.552.714 14.531 2.133 25.795 2.824 4.301.264 8.352.396 12.162.396z" fill="#3ba455"/><path d="m370.641 121.978c-8.221 5.031-15.995 15.043-23.635 30.43v55.598c4.552.714 14.531 2.133 25.795 2.824 4.301.264 8.352.396 12.162.396 16.171 0 27.975-2.386 35.88-7.224 9.769-5.978 18.907-18.956 27.938-39.674 6.036-13.848 15.006-42.984 15.006-42.984s-30.026-5.268-45.104-6.193c-22.563-1.387-38.275.849-48.042 6.827z" fill="#3ba455"/><path d="m508.72 324.459c-4.677-10.842-13.254-19.149-24.148-23.393-10.748-4.188-22.47-3.897-33.022.822l-92.387 41.488c-1.78-8.606-6.068-16.356-12.157-22.344v123.662l139.525-62.45c21.776-9.747 31.729-35.669 22.189-57.785z" fill="#ffcebf"/><path d="m316.974 396.862c-2.156 0-4.327-.162-6.501-.49l-104.051-15.695 3.779-25.055 104.051 15.695c4.763.717 9.527-.517 13.399-3.482 4.059-3.107 6.622-7.672 7.216-12.853 1.166-10.159-5.591-19.274-15.385-20.752l-110.449-16.66c-22.499-3.393-44.825 3.892-61.253 19.989l-.457.426-66.532 58.666v-33.591l49.487-43.826c21.823-21.241 52.651-31.227 82.535-26.72l110.449 16.66c11.27 1.7 21.279 7.697 28.182 16.889 6.851 9.121 9.904 20.418 8.596 31.807-1.387 12.075-7.419 22.758-16.987 30.083-7.627 5.842-16.702 8.909-26.079 8.909z" fill="#ffcebf"/><path d="m351.445 326.065c-1.362-1.814-2.85-3.498-4.439-5.054v63.52c7.269-7.057 11.852-16.346 13.036-26.658 1.307-11.391-1.746-22.688-8.597-31.808z" fill="#f6b2b2"/><path d="m119.653 512h-119.31v-211.792h119.31z" fill="#4c60de"/></svg>