<svg id="Capa_1" enable-background="new 0 0 512 512" height="512" viewBox="0 0 512 512" width="512" xmlns="http://www.w3.org/2000/svg"><path d="m175.797 443.3h160.406v68.7h-160.406z" fill="#00b2cc"/><path d="m256 443.3h80.204v68.7h-80.204z" fill="#0f9dce"/><path d="m356.507 458.308h-201.013v-17.527c0-56.063-16.995-110.546-49.146-157.558-20.373-29.79-31.276-64.629-31.529-100.753-.338-48.394 18.34-94.089 52.593-128.67 34.245-34.572 79.749-53.678 128.126-53.8h.467c48.244 0 93.645 18.796 127.895 52.961 34.362 34.275 53.285 79.813 53.285 128.224 0 36.407-10.804 71.544-31.243 101.612-32.341 47.578-49.436 102.21-49.436 157.991v17.52z" fill="#ffda2d"/><path d="m383.901 52.961c-34.251-34.165-79.651-52.961-127.896-52.961-.002 0-.003 0-.005 0v458.308h100.507v-17.52c0-55.78 17.095-110.413 49.436-157.991 20.439-30.069 31.243-65.206 31.243-101.612 0-48.411-18.924-93.949-53.285-128.224z" fill="#fdbf00"/><path d="m152.7 401.667c1.847 12.901 2.794 25.963 2.794 39.114v17.527h201.013v-17.52c0-13.13.959-26.195 2.83-39.121z" fill="#00d7df"/><path d="m256 401.667v56.641h100.507v-17.52c0-13.13.959-26.195 2.83-39.121z" fill="#00b2cc"/><path d="m240.992 113.077h30.016v109.238h-30.016z" fill="#fa502e"/><path d="m256 285.877c-10.918 0-19.801-8.883-19.801-19.801s8.883-19.801 19.801-19.801 19.801 8.883 19.801 19.801-8.883 19.801-19.801 19.801z" fill="#fa502e"/><g fill="#ea0016"><path d="m256 113.077h15.009v109.238h-15.009z"/><path d="m256 246.274v39.602c10.918 0 19.801-8.883 19.801-19.801s-8.883-19.801-19.801-19.801z"/></g></svg>