<svg id="Capa_1" enable-background="new 0 0 512 512" height="512" viewBox="0 0 512 512" width="512" xmlns="http://www.w3.org/2000/svg"><path d="m437.02 74.981c-48.353-48.352-112.64-74.981-181.02-74.981s-132.667 26.629-181.02 74.981c-48.351 48.352-74.98 112.639-74.98 181.019s26.629 132.667 74.98 181.019c48.353 48.352 112.64 74.981 181.02 74.981s132.667-26.629 181.02-74.98c48.351-48.353 74.98-112.64 74.98-181.02s-26.629-132.667-74.98-181.019zm-21.213 340.825c-39.131 39.13-90.086 62.129-144.807 65.691v-38.334h-30v38.334c-54.72-3.562-105.676-26.561-144.807-65.691-39.13-39.13-62.129-90.085-65.691-144.806h38.334v-30h-38.334c3.562-54.721 26.561-105.676 65.692-144.807 39.13-39.129 90.086-62.128 144.806-65.691v38.334h30v-38.334c54.72 3.562 105.676 26.561 144.807 65.691 39.13 39.13 62.129 90.086 65.691 144.807h-38.334v30h38.334c-3.562 54.721-26.561 105.676-65.691 144.806z" fill="#f2f2fc"/><path d="m437.02 74.981c-48.353-48.352-112.64-74.981-181.02-74.981v68.836h15v-38.334c54.72 3.562 105.676 26.561 144.807 65.691 39.13 39.13 62.129 90.086 65.691 144.807h-38.334v30h38.334c-3.562 54.72-26.561 105.676-65.691 144.806-39.131 39.13-90.086 62.129-144.807 65.691v-38.334h-15v68.837c68.38 0 132.667-26.629 181.02-74.98 48.351-48.353 74.98-112.64 74.98-181.02s-26.629-132.667-74.98-181.019z" fill="#e2d9fb"/><path d="m256 53.836c-111.474 0-202.164 90.69-202.164 202.164 0 111.473 90.69 202.163 202.164 202.163s202.164-90.69 202.164-202.163-90.69-202.164-202.164-202.164zm0 304.16c-56.241 0-101.996-45.755-101.996-101.995 0-56.241 45.755-101.996 101.996-101.996s101.996 45.754 101.996 101.995-45.755 101.996-101.996 101.996z" fill="#fa502e"/><g fill="#ea0016"><path d="m256 154.004c18.769 0 36.365 5.101 51.488 13.981l14.513-103.075c-20.694-7.168-42.899-11.074-66.001-11.074-23.781 0-46.611 4.14-67.822 11.716l16.41 102.388c15.106-8.852 32.675-13.936 51.412-13.936z"/><path d="m256 357.996c-19.711 0-38.129-5.626-53.745-15.347l-14.59 103.618c21.355 7.693 44.362 11.898 68.335 11.898 23.159 0 45.417-3.926 66.155-11.128l-16.356-102.052c-14.738 8.279-31.725 13.011-49.799 13.011z"/><path d="m154.004 256c0-19.621 5.574-37.963 15.215-53.534l-103.563-14.581c-7.643 21.294-11.82 44.225-11.82 68.116 0 23.006 3.872 45.123 10.983 65.744l101.974-16.345c-8.142-14.645-12.789-31.488-12.789-49.4z"/><path d="m154.004 256c0-19.621 5.574-37.963 15.215-53.534l-103.563-14.581c-7.643 21.294-11.82 44.225-11.82 68.116 0 23.006 3.872 45.123 10.983 65.744l101.974-16.345c-8.142-14.645-12.789-31.488-12.789-49.4z"/><path d="m256 53.836v100.168c56.241 0 101.996 45.755 101.996 101.996 0 56.24-45.755 101.995-101.996 101.995v100.168c111.474 0 202.164-90.69 202.164-202.163s-90.69-202.164-202.164-202.164z"/></g><path d="m322.001 64.91c-20.694-7.168-42.899-11.074-66.001-11.074v100.168c18.769 0 36.365 5.101 51.488 13.981z" fill="#b81b20"/><path d="m305.798 344.984c-14.737 8.28-31.724 13.012-49.798 13.012v100.168c23.159 0 45.417-3.926 66.155-11.128z" fill="#b81b20"/><path d="m357.996 256c0 18.857-5.15 36.531-14.108 51.7l103.124 14.521c7.217-20.757 11.152-43.037 11.152-66.221 0-23.935-4.192-46.906-11.862-68.233l-102.478 16.425c8.998 15.194 14.172 32.907 14.172 51.808z" fill="#b81b20"/><path d="m357.996 256c0 18.857-5.15 36.531-14.108 51.7l103.124 14.521c7.217-20.757 11.152-43.037 11.152-66.221 0-23.935-4.192-46.906-11.862-68.233l-102.478 16.425c8.998 15.194 14.172 32.907 14.172 51.808z" fill="#b81b20"/></svg>