<svg id="Capa_1" enable-background="new 0 0 512 512" height="512" viewBox="0 0 512 512" width="512" xmlns="http://www.w3.org/2000/svg"><path d="m398.11 382.63h-398.11v-364.425h398.11z" fill="#f2f2fc"/><path d="m199.055 18.205h199.055v364.425h-199.055z" fill="#e2d9fb"/><path d="m398.11 103.183h-398.11v-84.978h398.11z" fill="#4c60de"/><path d="m38.987 75.694c7.846 0 15.363-6.899 15-15-.364-8.127-6.591-15-15-15-7.846 0-15.363 6.899-15 15 .364 8.127 6.591 15 15 15z" fill="#fa502e"/><path d="m88.99 75.694c7.846 0 15.363-6.899 15-15-.364-8.127-6.591-15-15-15-7.846 0-15.363 6.899-15 15 .364 8.127 6.591 15 15 15z" fill="#ffda2d"/><path d="m138.993 75.694c7.846 0 15.363-6.899 15-15-.364-8.127-6.591-15-15-15-7.846 0-15.363 6.899-15 15 .364 8.127 6.591 15 15 15z" fill="#00d7df"/><path d="m199.055 18.205h199.055v84.978h-199.055z" fill="#25509f"/><path d="m440.477 217.099h-15.017l.001 143.044h15.016c39.438 0 71.522-32.085 71.522-71.522.001-39.437-32.084-71.522-71.522-71.522z" fill="#ea0016"/><path d="m235 356.335v137.46h85.203v-126.617z" fill="#4c60de"/><path d="m279 356.335v137.46h41.203v-126.617z" fill="#25509f"/><path d="m455.493 424.884-231.413-62.86c-32.644-8.866-55.442-38.684-55.442-72.512 0-34.599 23.452-64.587 57.033-72.924l229.823-57.062v265.358z" fill="#ffda2d"/><path d="m235 214.272-9.329 2.316c-33.581 8.337-57.033 38.325-57.033 72.924 0 33.828 22.798 63.645 55.442 72.512l10.92 2.966z" fill="#00d7df"/><path d="m279 203.348v173.594l176.493 47.942v-265.358z" fill="#fdbf00"/><path d="m398.11 173.774v235.523l57.383 15.587v-265.358z" fill="#fd982c"/></svg>