<svg id="Capa_1" enable-background="new 0 0 512 512" height="512" viewBox="0 0 512 512" width="512" xmlns="http://www.w3.org/2000/svg"><path d="m307.333 203.667 47.873 96.679 26.981-13.36-41.259-83.319z" fill="#e2d9fb"/><path d="m168.968 203.667-41.822 81.09 26.757 13.8 48.941-94.89z" fill="#f2f2fc"/><path d="m221.682 378.132h68.635v30.107h-68.635z" fill="#f2f2fc"/><path d="m256.09 378.132h34.228v30.107h-34.228z" fill="#e2d9fb"/><path d="m118.591 512c-65.391 0-118.591-53.2-118.591-118.591s53.2-118.591 118.591-118.591 118.591 53.2 118.591 118.591-53.2 118.591-118.591 118.591z" fill="#00d7df"/><path d="m118.591 274.818v237.182c65.391 0 118.591-53.2 118.591-118.591s-53.2-118.591-118.591-118.591z" fill="#00b2cc"/><path d="m204.64 474.929v-17.112c0-35.093-28.448-63.541-63.541-63.541h-44.837c-35.093 0-63.541 28.448-63.541 63.541v17.305c21.617 22.705 52.119 36.878 85.87 36.878 33.845 0 64.422-14.254 86.049-37.071z" fill="#fa502e"/><path d="m141.099 394.276h-22.508v117.724c33.845 0 64.422-14.254 86.049-37.071v-17.112c0-35.093-28.448-63.541-63.541-63.541z" fill="#ea0016"/><path d="m118.591 423.109c-29.021 0-52.632-23.611-52.632-52.632 0-29.022 23.611-52.633 52.632-52.633s52.632 23.611 52.632 52.633c0 29.021-23.611 52.632-52.632 52.632z" fill="#ffcebf"/><path d="m118.591 317.844v105.265c29.021 0 52.632-23.611 52.632-52.632 0-29.022-23.611-52.633-52.632-52.633z" fill="#f6b2b2"/><path d="m393.409 512c-65.391 0-118.591-53.2-118.591-118.591s53.2-118.591 118.591-118.591 118.591 53.2 118.591 118.591-53.2 118.591-118.591 118.591z" fill="#00d7df"/><path d="m393.409 274.818v237.182c65.391 0 118.591-53.2 118.591-118.591s-53.2-118.591-118.591-118.591z" fill="#00b2cc"/><path d="m479.458 474.929v-17.112c0-35.093-28.448-63.541-63.541-63.541h-44.837c-35.093 0-63.541 28.448-63.541 63.541v17.305c21.617 22.705 52.119 36.878 85.87 36.878 33.845 0 64.422-14.254 86.049-37.071z" fill="#fa502e"/><path d="m415.917 394.276h-22.508v117.724c33.845 0 64.422-14.254 86.049-37.071v-17.112c0-35.093-28.448-63.541-63.541-63.541z" fill="#ea0016"/><path d="m393.409 423.109c-29.021 0-52.632-23.611-52.632-52.632 0-29.022 23.611-52.633 52.632-52.633s52.632 23.611 52.632 52.633c0 29.021-23.611 52.632-52.632 52.632z" fill="#ffcebf"/><path d="m393.409 317.844v105.265c29.021 0 52.632-23.611 52.632-52.632 0-29.022-23.611-52.633-52.632-52.633z" fill="#f6b2b2"/><path d="m256 237.182c-65.391 0-118.591-53.2-118.591-118.592 0-65.39 53.2-118.59 118.591-118.59s118.591 53.2 118.591 118.591-53.2 118.591-118.591 118.591z" fill="#00d7df"/><path d="m256 0v237.182c65.391 0 118.591-53.2 118.591-118.591s-53.2-118.591-118.591-118.591z" fill="#00b2cc"/><path d="m342.049 200.111v-17.112c0-35.093-28.448-63.541-63.541-63.541h-44.837c-35.093 0-63.541 28.448-63.541 63.541v17.304c21.617 22.706 52.119 36.879 85.87 36.879 33.845 0 64.422-14.254 86.049-37.071z" fill="#fa502e"/><path d="m278.508 119.458h-22.508v117.724c33.845 0 64.422-14.254 86.049-37.071v-17.112c0-35.093-28.448-63.541-63.541-63.541z" fill="#ea0016"/><path d="m256 148.291c-29.021 0-52.632-23.611-52.632-52.632 0-29.022 23.611-52.633 52.632-52.633s52.632 23.611 52.632 52.633c0 29.021-23.611 52.632-52.632 52.632z" fill="#ffcebf"/><path d="m256 43.027v105.265c29.021 0 52.632-23.611 52.632-52.632 0-29.023-23.611-52.633-52.632-52.633z" fill="#f6b2b2"/></svg>