<svg id="Capa_1" enable-background="new 0 0 512 512" height="512" viewBox="0 0 512 512" width="512" xmlns="http://www.w3.org/2000/svg"><path d="m186.458 171.613h30v70.291h-30z" fill="#e2d9fb"/><path d="m201.458 171.613h15v70.291h-15z" fill="#c7c1dc"/><path d="m318.655 186.613h-234.394v-172.517h234.395v172.517z" fill="#f2f2fc"/><path d="m318.655 186.613h-117.197v-172.517h117.197z" fill="#e2d9fb"/><path d="m377.5 109.148h30.001v75.49h-30.001z" fill="#fa502e" transform="matrix(.98 -.199 .199 .98 -21.362 80.919)"/><path d="m397.276 140.552h57.878v30.001h-57.878z" fill="#ffda2d" transform="matrix(.204 -.979 .979 .204 187.179 541.191)"/><path d="m376.248 243.65-8.765-74.764h84.048l-8.763 74.764z" fill="#00d7df"/><path d="m451.531 168.886h-43.383v74.764h34.62z" fill="#00b2cc"/><path d="m32.002 241.904h30v256h-30z" fill="#ea0016"/><path d="m334.71 241.904h146.876v256h-146.876z" fill="#ea0016"/><path d="m408.148 241.904h73.438v256h-73.438z" fill="#b81b20"/><path d="m0 226.904h512v30h-512z" fill="#fa502e"/><path d="m408.148 226.904h103.852v30h-103.852z" fill="#ea0016"/><path d="m334.71 336.801h146.876v80.552h-146.876z" fill="#fa502e"/><path d="m408.148 336.801h73.438v80.552h-73.438z" fill="#ea0016"/><g fill="#ffda2d"><path d="m408.148 310.071c7.846 0 15.363-6.899 15-15-.364-8.127-6.591-15-15-15-7.846 0-15.363 6.899-15 15 .364 8.127 6.591 15 15 15z"/><path d="m408.148 392.076c7.846 0 15.363-6.899 15-15-.364-8.127-6.591-15-15-15-7.846 0-15.363 6.899-15 15 .364 8.127 6.591 15 15 15z"/><path d="m408.148 474.791c7.846 0 15.363-6.899 15-15-.364-8.127-6.591-15-15-15-7.846 0-15.363 6.899-15 15 .364 8.127 6.591 15 15 15z"/></g><path d="m408.148 392.076c7.846 0 15.363-6.899 15-15-.364-8.127-6.591-15-15-15z" fill="#fdbf00"/><path d="m408.148 474.791c7.846 0 15.363-6.899 15-15-.364-8.127-6.591-15-15-15z" fill="#fdbf00"/><path d="m408.148 310.071c7.846 0 15.363-6.899 15-15-.364-8.127-6.591-15-15-15z" fill="#fdbf00"/></svg>