<svg id="Capa_1" enable-background="new 0 0 512 512" height="512" viewBox="0 0 512 512" width="512" xmlns="http://www.w3.org/2000/svg"><path d="m512 241.045h-32.324c-3.552-54.63-26.511-105.502-65.577-144.567-39.065-39.065-89.937-62.025-144.567-65.577v-30.901h-29.911v30.901c-54.63 3.552-105.502 26.511-144.567 65.577s-62.024 89.937-65.577 144.567h-29.477v29.911h29.477c3.552 54.63 26.511 105.502 65.577 144.567 39.065 39.065 89.937 62.024 144.567 65.577v30.9h29.911v-30.901c54.631-3.552 105.502-26.511 144.567-65.577 39.066-39.065 62.025-89.937 65.577-144.567h32.324zm-62.302 0h-25.292c-7.17-82.101-72.772-147.703-154.874-154.873v-25.293c96.006 7.289 172.876 84.16 180.166 180.166zm-55.336 29.911c-6.969 65.596-59.234 117.861-124.83 124.829v-25.522h-29.911v25.522c-65.596-6.969-117.86-59.234-124.829-124.829h25.866v-29.911h-25.866c6.969-65.596 59.234-117.86 124.829-124.829v24.132h29.911v-24.132c65.596 6.969 117.861 59.234 124.83 124.829h-26.012v29.911zm-154.741-210.077v25.293c-82.101 7.17-147.703 72.772-154.873 154.873h-25.293c7.29-96.006 84.16-172.877 180.166-180.166zm-180.166 210.077h25.293c7.17 82.101 72.772 147.703 154.873 154.873v25.293c-96.006-7.29-172.876-84.161-180.166-180.166zm210.077 180.166v-25.293c82.102-7.17 147.704-72.772 154.874-154.873h25.292c-7.29 96.005-84.16 172.876-180.166 180.166z" fill="#00d7df"/><path d="m232.653 306.574-52.277-52.278 21.15-21.15 31.127 31.127 80.952-80.95 21.15 21.15z" fill="#fa502e"/><path d="m479.676 241.045c-3.552-54.63-26.511-105.502-65.577-144.567-39.065-39.065-89.937-62.025-144.567-65.577v-30.901h-14.941v140.347h14.941v-24.132c65.596 6.969 117.861 59.234 124.83 124.829h-26.012v29.911h26.012c-6.969 65.596-59.234 117.861-124.83 124.829v-25.522h-14.941v141.738h14.941v-30.901c54.631-3.552 105.502-26.511 144.567-65.577 39.066-39.065 62.025-89.937 65.577-144.567h32.324v-29.911h-32.324zm-210.144 210.077v-25.293c82.102-7.17 147.704-72.772 154.874-154.873h25.292c-7.29 96.005-84.16 172.876-180.166 180.166zm154.874-210.077c-7.17-82.101-72.772-147.703-154.874-154.873v-25.293c96.006 7.289 172.877 84.16 180.166 180.166z" fill="#00b2cc"/><path d="m254.591 284.637 80.164-80.164-21.15-21.15-59.014 59.013z" fill="#ea0016"/></svg>