<svg id="Capa_1" enable-background="new 0 0 512 512" height="512" viewBox="0 0 512 512" width="512" xmlns="http://www.w3.org/2000/svg"><path d="m350.5 474.022-44.169-88.329h-100.378l-44.168 88.329z" fill="#25509f"/><path d="m306.331 385.693h-50.331v88.329h94.5z" fill="#19408e"/><path d="m131.231 464.867h249.538v33.124h-249.538z" fill="#4c60de"/><path d="m256 464.867h124.769v33.124h-124.769z" fill="#25509f"/><path d="m0 14.008h512v345.955h-512z" fill="#f2f2fc"/><path d="m256 14.008h256v345.955h-256z" fill="#e2d9fb"/><path d="m0 312.903h512v94.122h-512z" fill="#4c60de"/><path d="m256 312.903h256v94.122h-256z" fill="#25509f"/><path d="m256 380.524c8.663 0 16.963-7.618 16.562-16.562-.402-8.973-7.277-16.562-16.562-16.562-8.663 0-16.963 7.618-16.562 16.562.402 8.974 7.277 16.562 16.562 16.562z" fill="#25509f"/><path d="m272.562 363.962c-.402-8.973-7.277-16.562-16.562-16.562v33.124c8.664 0 16.963-7.618 16.562-16.562z" fill="#19408e"/><path d="m256.002 247.548c-78.173 0-139.372-73.159-141.939-76.274l-7.847-9.52 7.847-9.52c2.567-3.115 63.766-76.274 141.939-76.274s139.372 73.159 141.939 76.274l7.847 9.52-7.847 9.52c-2.567 3.115-63.766 76.274-141.939 76.274z" fill="#ffda2d"/><path d="m397.941 152.234c-2.567-3.115-63.766-76.274-141.939-76.274-.001 0-.001 0-.002 0v171.588h.002c78.173 0 139.372-73.159 141.939-76.274l7.847-9.52z" fill="#fdbf00"/><path d="m256.71 247.548c-47.345 0-85.864-38.518-85.864-85.863 0-47.346 38.518-85.864 85.864-85.864s85.864 38.518 85.864 85.864c0 47.345-38.518 85.863-85.864 85.863z" fill="#fa502e"/><path d="m256.71 75.821c-.238 0-.472.016-.71.018v171.691c.238.002.472.018.71.018 47.346 0 85.864-38.519 85.864-85.863 0-47.346-38.518-85.864-85.864-85.864z" fill="#ea0016"/><path d="m256.71 181.958c10.604 0 20.763-9.325 20.273-20.273-.492-10.984-8.908-20.273-20.273-20.273-10.604 0-20.764 9.325-20.273 20.273.492 10.984 8.908 20.273 20.273 20.273z" fill="#25509f"/><path d="m276.983 161.685c-.492-10.984-8.908-20.273-20.273-20.273-.237 0-.474.01-.71.02v40.49c.238.008.469.036.71.036 10.604 0 20.764-9.325 20.273-20.273z" fill="#19408e"/></svg>