<svg height="512pt" viewBox="0 -79 512.00045 512" width="512pt" xmlns="http://www.w3.org/2000/svg"><path d="m512 17.65625v317.792969c-.027344 9.738281-7.914062 17.625-17.65625 17.652343h-476.6875c-9.738281-.027343-17.625-7.914062-17.65625-17.652343v-194.207031h194.207031v-141.242188h300.136719c9.742188.0273438 17.628906 7.917969 17.65625 17.65625zm0 0" fill="#285680"/><path d="m194.207031 0v141.242188h-194.207031v-123.585938c-.015625-2.019531.34375-4.027344 1.058594-5.914062 2.191406-6.21875 7.679687-10.683594 14.210937-11.566407.792969-.1015622 1.589844-.160156 2.386719-.175781zm0 0" fill="#285680"/><path d="m194.207031 0v141.242188h-194.207031v-123.585938c.0273438-9.738281 7.917969-17.6289062 17.65625-17.65625zm0 0" fill="#285680"/><path d="m194.207031 119.4375v21.804688h-30.011719l-164.195312-119.4375v-4.148438c.0273438-9.738281 7.917969-17.6289062 17.65625-17.65625h12.359375zm0 0" fill="#ecf0f1"/><path d="m194.207031 0v21.804688l-67.089843 48.816406-30.011719 21.804687-67.089844 48.816407h-30.015625v-21.804688l67.089844-48.816406 30.015625-21.804688 67.089843-48.816406zm0 0" fill="#ecf0f1"/><path d="m194.207031 52.964844v35.308594h-79.449219v52.96875h-35.308593v-52.96875h-79.449219v-35.308594h79.449219v-52.964844h35.308593v52.964844zm0 0" fill="#ecf0f1"/><g fill="#c03a2b"><path d="m194.207031 130.296875v10.945313h-15.007812l-63.027344-45.816407c-.535156-.371093-1.007813-.816406-1.414063-1.324219v-5.824218h21.628907zm0 0"/><path d="m79.449219 47.140625v5.824219h-21.628907l-53.933593-39.195313-2.828125-2.027343c2.191406-6.21875 7.679687-10.683594 14.214844-11.566407l1.324218.882813 61.4375 44.757812c.535156.367188 1.011719.816406 1.414063 1.324219zm0 0"/><path d="m79.449219 88.273438v5.828124c-.402344.507813-.878907.953126-1.410157 1.324219l-63.03125 45.816407h-15.007812v-10.945313l57.820312-42.019531h21.628907zm0 0"/><path d="m194.207031 0v10.945312l-57.820312 42.019532h-21.628907v-5.824219c.402344-.507813.878907-.957031 1.414063-1.324219l63.027344-45.816406zm0 0"/><path d="m0 61.792969h194.207031v17.65625h-194.207031zm0 0"/><path d="m88.277344 0h17.652344v141.242188h-17.652344zm0 0"/></g><path d="m391.6875 90.710938-26.046875 13.703124 4.960937-29.027343-21.070312-20.558594 29.128906-4.230469 13.027344-26.402344 13.039062 26.402344 29.140626 4.230469-21.089844 20.558594 4.980468 29.027343zm0 0" fill="#ecf0f1"/><path d="m391.6875 44.136719 7.179688 14.53125 16.03125 2.332031-11.601563 11.304688 2.738281 15.96875-14.347656-7.535157-14.335938 7.535157 2.738282-15.96875-11.597656-11.304688 16.027343-2.332031zm0 0" fill="#c03a2b"/><path d="m391.6875 269.550781-26.046875 13.699219 4.960937-29.023438-21.070312-20.558593 29.128906-4.230469 13.027344-26.402344 13.039062 26.402344 29.140626 4.230469-21.089844 20.558593 4.980468 29.023438zm0 0" fill="#ecf0f1"/><path d="m391.6875 222.976562 7.179688 14.53125 16.03125 2.328126-11.601563 11.308593 2.738281 15.96875-14.347656-7.539062-14.335938 7.539062 2.738282-15.96875-11.597656-11.308593 16.027343-2.328126zm0 0" fill="#c03a2b"/><path d="m337.410156 162.851562-26.050781 13.699219 4.960937-29.023437-21.082031-20.558594 29.132813-4.230469 13.039062-26.402343 13.027344 26.402343 29.148438 4.230469-21.097657 20.558594 4.988281 29.023437zm0 0" fill="#ecf0f1"/><path d="m337.410156 116.277344 7.167969 14.53125 16.039063 2.328125-11.609376 11.308593 2.746094 15.96875-14.34375-7.539062-14.347656 7.539062 2.746094-15.96875-11.605469-11.308593 16.039063-2.328125zm0 0" fill="#c03a2b"/><path d="m452.167969 162.851562-26.050781 13.699219 4.960937-29.023437-21.078125-20.558594 29.128906-4.230469 13.039063-26.402343 13.03125 26.402343 29.144531 4.230469-21.097656 20.558594 4.988281 29.023437zm0 0" fill="#ecf0f1"/><path d="m452.167969 116.277344 7.167969 14.53125 16.039062 2.328125-11.609375 11.308593 2.746094 15.96875-14.34375-7.539062-14.34375 7.539062 2.746093-15.96875-11.609374-11.308593 16.039062-2.328125zm0 0" fill="#c03a2b"/></svg>