<svg height="512pt" viewBox="0 -79 512 512" width="512pt" xmlns="http://www.w3.org/2000/svg"><path d="m397.242188 353.105469h97.101562c9.75 0 17.65625-7.90625 17.65625-17.65625v-317.792969c0-9.753906-7.90625-17.65625-17.65625-17.65625h-476.6875c-9.753906 0-17.65625 7.90625-17.65625 17.65625v317.792969c0 9.75 7.902344 17.652343 17.65625 17.652343h379.585938zm0 0" fill="#285680"/><path d="m344.71875 291.3125h167.28125v-229.519531h-512v229.519531zm0 0" fill="#fff"/><path d="m344.71875 273.65625h167.28125v-194.207031h-512v194.207031zm0 0" fill="#c03a2b"/><path d="m229.515625 176.550781c0 43.878907-35.570313 79.449219-79.445313 79.449219-43.878906 0-79.449218-35.570312-79.449218-79.449219 0-43.875 35.570312-79.445312 79.449218-79.445312 43.875 0 79.445313 35.570312 79.445313 79.445312zm0 0" fill="#fff"/><path d="m150.070312 105.929688 21.820313 43.59375 48.800781 6.980468-35.3125 33.933594 8.335938 47.90625-43.644532-22.613281-43.644531 22.613281 8.332031-47.90625-35.308593-33.933594 48.796875-6.980468zm0 0" fill="#c03a2b"/></svg>