<svg height="512pt" viewBox="0 0 512 512" width="512pt" xmlns="http://www.w3.org/2000/svg"><path d="m312.230469 433.433594h-112.460938c-1.257812 0-2.503906-.265625-3.648437-.789063l-81.742188-37.074219c-1.546875-.703124-2.859375-1.835937-3.777344-3.265624l-56.230468-87.394532c-.917969-1.421875-1.40625-3.078125-1.40625-4.773437v-88.273438c0-1.695312.488281-3.351562 1.40625-4.777343l56.230468-87.394532c.917969-1.429687 2.230469-2.5625 3.777344-3.265625l81.742188-37.074219c1.144531-.519531 2.390625-.789062 3.648437-.785156h112.460938c1.257812 0 2.503906.265625 3.648437.789063l81.742188 37.074219c1.546875.703124 2.859375 1.835937 3.777344 3.265624l56.230468 87.394532c.917969 1.421875 1.40625 3.078125 1.40625 4.773437v88.273438c0 1.695312-.488281 3.351562-1.40625 4.777343l-56.230468 87.394532c-.917969 1.429687-2.230469 2.5625-3.777344 3.265625l-81.742188 37.074219c-1.144531.519531-2.390625.789062-3.648437.785156zm-110.554688-17.652344h108.648438l77.632812-35.21875 53.421875-83.019531v-83.085938l-53.421875-83.019531-77.632812-35.21875h-108.648438l-77.632812 35.21875-53.421875 83.019531v83.085938l53.421875 83.019531zm0 0" fill="#f0c419"/><path d="m123.585938 150.070312c0 34.125-27.664063 61.792969-61.792969 61.792969-34.128907 0-61.792969-27.667969-61.792969-61.792969 0-34.128906 27.664062-61.792968 61.792969-61.792968 34.128906 0 61.792969 27.664062 61.792969 61.792968zm0 0" fill="#955ba5"/><path d="m97.101562 150.070312c0 19.5-15.808593 35.308594-35.308593 35.308594s-35.308594-15.808594-35.308594-35.308594c0-19.503906 15.808594-35.3125 35.308594-35.3125s35.308593 15.808594 35.308593 35.3125zm0 0" fill="#3d324c"/><path d="m123.585938 361.929688c0 34.128906-27.664063 61.792968-61.792969 61.792968-34.128907 0-61.792969-27.664062-61.792969-61.792968 0-34.125 27.664062-61.792969 61.792969-61.792969 34.128906 0 61.792969 27.667969 61.792969 61.792969zm0 0" fill="#955ba5"/><path d="m97.101562 361.929688c0 19.503906-15.808593 35.3125-35.308593 35.3125s-35.308594-15.808594-35.308594-35.3125c0-19.5 15.808594-35.308594 35.308594-35.308594s35.308593 15.808594 35.308593 35.308594zm0 0" fill="#3d324c"/><path d="m512 150.070312c0 34.125-27.664062 61.792969-61.792969 61.792969-34.128906 0-61.792969-27.667969-61.792969-61.792969 0-34.128906 27.664063-61.792968 61.792969-61.792968 34.128907 0 61.792969 27.664062 61.792969 61.792968zm0 0" fill="#955ba5"/><path d="m485.515625 150.070312c0 19.5-15.808594 35.308594-35.308594 35.308594s-35.308593-15.808594-35.308593-35.308594c0-19.503906 15.808593-35.3125 35.308593-35.3125s35.308594 15.808594 35.308594 35.3125zm0 0" fill="#3d324c"/><path d="m512 361.929688c0 34.128906-27.664062 61.792968-61.792969 61.792968-34.128906 0-61.792969-27.664062-61.792969-61.792968 0-34.125 27.664063-61.792969 61.792969-61.792969 34.128907 0 61.792969 27.667969 61.792969 61.792969zm0 0" fill="#955ba5"/><path d="m485.515625 361.929688c0 19.503906-15.808594 35.3125-35.308594 35.3125s-35.308593-15.808594-35.308593-35.3125c0-19.5 15.808593-35.308594 35.308593-35.308594s35.308594 15.808594 35.308594 35.308594zm0 0" fill="#3d324c"/><path d="m317.792969 61.792969c0 34.128906-27.664063 61.792969-61.792969 61.792969s-61.792969-27.664063-61.792969-61.792969c0-34.128907 27.664063-61.792969 61.792969-61.792969s61.792969 27.664062 61.792969 61.792969zm0 0" fill="#955ba5"/><path d="m291.308594 61.792969c0 19.5-15.808594 35.308593-35.308594 35.308593s-35.308594-15.808593-35.308594-35.308593 15.808594-35.308594 35.308594-35.308594 35.308594 15.808594 35.308594 35.308594zm0 0" fill="#3d324c"/><path d="m317.792969 256c0 34.128906-27.664063 61.792969-61.792969 61.792969s-61.792969-27.664063-61.792969-61.792969 27.664063-61.792969 61.792969-61.792969 61.792969 27.664063 61.792969 61.792969zm0 0" fill="#f0c419"/><path d="m291.308594 256c0 19.5-15.808594 35.308594-35.308594 35.308594s-35.308594-15.808594-35.308594-35.308594 15.808594-35.308594 35.308594-35.308594 35.308594 15.808594 35.308594 35.308594zm0 0" fill="#f3d55b"/><path d="m317.792969 450.207031c0 34.128907-27.664063 61.792969-61.792969 61.792969s-61.792969-27.664062-61.792969-61.792969c0-34.128906 27.664063-61.792969 61.792969-61.792969s61.792969 27.664063 61.792969 61.792969zm0 0" fill="#955ba5"/><path d="m291.308594 450.207031c0 19.5-15.808594 35.308594-35.308594 35.308594s-35.308594-15.808594-35.308594-35.308594 15.808594-35.308593 35.308594-35.308593 35.308594 15.808593 35.308594 35.308593zm0 0" fill="#3d324c"/><g fill="#f29c1f"><path d="m256 167.722656c-4.875 0-8.828125-3.949218-8.828125-8.824218v-8.828126c0-4.875 3.953125-8.828124 8.828125-8.828124s8.828125 3.953124 8.828125 8.828124v8.828126c0 4.875-3.953125 8.824218-8.828125 8.824218zm0 0"/><path d="m256 370.757812c-4.875 0-8.828125-3.953124-8.828125-8.828124v-8.828126c0-4.875 3.953125-8.824218 8.828125-8.824218s8.828125 3.949218 8.828125 8.824218v8.828126c0 4.875-3.953125 8.828124-8.828125 8.828124zm0 0"/><path d="m207.457031 180.734375c-3.15625.003906-6.074219-1.679687-7.652343-4.414063l-4.414063-7.644531c-1.664063-2.734375-1.71875-6.160156-.140625-8.945312 1.578125-2.789063 4.542969-4.5 7.75-4.476563 3.203125.023438 6.140625 1.785156 7.675781 4.59375l4.414063 7.644532c1.578125 2.726562 1.578125 6.089843.003906 8.820312s-4.484375 4.414062-7.636719 4.421875zm0 0"/><path d="m308.972656 356.566406c-3.15625.003906-6.074218-1.679687-7.648437-4.414062l-4.414063-7.644532c-1.667968-2.734374-1.722656-6.160156-.144531-8.945312 1.582031-2.789062 4.546875-4.5 7.75-4.476562 3.203125.023437 6.140625 1.785156 7.679687 4.59375l4.414063 7.644531c1.574219 2.730469 1.574219 6.089843 0 8.820312s-4.484375 4.417969-7.636719 4.421875zm0 0"/><path d="m171.898438 216.277344c-1.550782 0-3.070313-.410156-4.40625-1.1875l-7.644532-4.414063c-4.089844-2.496093-5.445312-7.800781-3.046875-11.953125 2.398438-4.148437 7.667969-5.628906 11.875-3.332031l7.644531 4.414063c3.457032 2 5.140626 6.074218 4.105469 9.933593-1.035156 3.855469-4.535156 6.539063-8.527343 6.539063zm0 0"/><path d="m347.726562 317.792969c-1.546874 0-3.066406-.40625-4.402343-1.183594l-7.644531-4.414063c-2.808594-1.539062-4.570313-4.476562-4.59375-7.679687-.023438-3.203125 1.6875-6.167969 4.476562-7.75 2.785156-1.578125 6.210938-1.523437 8.945312.144531l7.644532 4.414063c3.457031 2 5.140625 6.074219 4.105468 9.929687-1.035156 3.859375-4.535156 6.539063-8.53125 6.539063zm0 0"/><path d="m158.898438 264.828125h-8.828126c-4.875 0-8.828124-3.953125-8.828124-8.828125s3.953124-8.828125 8.828124-8.828125h8.828126c4.875 0 8.824218 3.953125 8.824218 8.828125s-3.949218 8.828125-8.824218 8.828125zm0 0"/><path d="m361.929688 264.828125h-8.828126c-4.875 0-8.824218-3.953125-8.824218-8.828125s3.949218-8.828125 8.824218-8.828125h8.828126c4.875 0 8.828124 3.953125 8.828124 8.828125s-3.953124 8.828125-8.828124 8.828125zm0 0"/><path d="m164.273438 317.792969c-3.996094 0-7.496094-2.679688-8.53125-6.539063-1.035157-3.855468.648437-7.929687 4.105468-9.929687l7.644532-4.414063c2.734374-1.667968 6.160156-1.722656 8.945312-.144531 2.789062 1.582031 4.5 4.546875 4.476562 7.75-.023437 3.203125-1.785156 6.140625-4.59375 7.679687l-7.644531 4.414063c-1.335937.777344-2.855469 1.183594-4.402343 1.183594zm0 0"/><path d="m340.101562 216.277344c-3.992187 0-7.492187-2.683594-8.527343-6.539063-1.035157-3.859375.648437-7.933593 4.105469-9.933593l7.644531-4.414063c4.207031-2.296875 9.476562-.816406 11.875 3.332031 2.398437 4.152344 1.042969 9.457032-3.046875 11.953125l-7.644532 4.414063c-1.335937.777344-2.855468 1.1875-4.40625 1.1875zm0 0"/><path d="m203.027344 356.566406c-3.152344-.003906-6.0625-1.691406-7.636719-4.421875s-1.574219-6.089843 0-8.820312l4.414063-7.644531c1.539062-2.808594 4.476562-4.570313 7.679687-4.59375 3.203125-.023438 6.167969 1.6875 7.75 4.476562 1.578125 2.785156 1.523437 6.210938-.144531 8.945312l-4.414063 7.644532c-1.574219 2.734375-4.492187 4.417968-7.648437 4.414062zm0 0"/><path d="m304.542969 180.734375c-3.152344-.007813-6.0625-1.691406-7.636719-4.421875s-1.574219-6.09375.003906-8.820312l4.414063-7.644532c2.496093-4.089844 7.800781-5.445312 11.953125-3.046875 4.148437 2.398438 5.628906 7.667969 3.332031 11.875l-4.414063 7.644531c-1.578124 2.734376-4.496093 4.417969-7.652343 4.414063zm0 0"/></g></svg>