<svg height="512pt" viewBox="0 0 512 512" width="512pt" xmlns="http://www.w3.org/2000/svg"><path d="m494.644531 251.660156c-.019531 47.921875-38.859375 86.761719-86.78125 86.78125h-295.050781c-35.097656.003906-66.742188-21.136718-80.175781-53.566406-13.429688-32.425781-6-69.753906 18.824219-94.566406 8.367187-8.386719 18.386718-14.945313 29.417968-19.265625-17.085937-34.96875-14.945312-76.269531 5.664063-109.285157 20.609375-33.011718 56.777343-53.074218 95.695312-53.078124 43.632813-.003907 83.363281 25.132812 102.050781 64.5625 22.632813-15.167969 51.777344-16.632813 75.820313-3.816407 24.039063 12.820313 39.0625 37.839844 39.078125 65.082031.019531 10.480469-2.230469 20.84375-6.597656 30.375h15.273437c47.921875.015626 86.761719 38.859376 86.78125 86.777344zm0 0" fill="#b0d3f0"/><path d="m494.644531 251.660156c-.019531 47.921875-38.859375 86.761719-86.78125 86.78125h-295.050781c-47.917969-.019531-86.761719-38.859375-86.777344-86.78125 0-2.863281.171875-5.726562.433594-8.503906 4.554688 44.269531 41.84375 77.921875 86.34375 77.929688h295.050781c44.496094-.027344 81.773438-33.671876 86.347657-77.929688.257812 2.777344.433593 5.640625.433593 8.503906zm0 0" fill="#90bae1"/><path d="m398.609375 308.15625c-6.863281-73.890625-70.609375-129.320312-144.734375-125.863281s-132.429688 64.585937-132.382812 138.792969c-.042969 19.828124 4.21875 39.429687 12.496093 57.445312 21.082031 46.472656 65.980469 77.617188 116.890625 81.085938 2.425782.191406 4.824219-.632813 6.617188-2.277344 1.796875-1.644532 2.824218-3.960938 2.84375-6.394532v-129.859374l120.5625 48.226562c2.257812.886719 4.78125.796875 6.96875-.246094 2.191406-1.039062 3.847656-2.941406 4.582031-5.253906 5.816406-17.941406 7.910156-36.878906 6.15625-55.65625zm0 0" fill="#2fa8cc"/><path d="m260.339844 321.085938-126.351563 57.445312c-8.277343-18.015625-12.539062-37.617188-12.496093-57.445312-.046876-42.195313 19.113281-82.121094 52.066406-108.476563zm0 0" fill="#955ba5"/><path d="m398.609375 308.15625c1.753906 18.777344-.339844 37.71875-6.15625 55.660156-.734375 2.308594-2.390625 4.214844-4.582031 5.253906-2.1875 1.042969-4.710938 1.128907-6.96875.242188l-120.5625-48.226562-86.78125-108.476563c39.878906-31.878906 94.03125-39.316406 141.027344-19.363281 46.996093 19.953125 79.261718 64.074218 84.023437 114.910156zm0 0" fill="#f29c1f"/><path d="m260.339844 321.085938v129.859374c-.019532 2.433594-1.046875 4.75-2.84375 6.394532-1.792969 1.644531-4.191406 2.46875-6.617188 2.277344-50.910156-3.46875-95.808594-34.613282-116.890625-81.085938zm0 0" fill="#2fa8cc"/><path d="m420.121094 433.355469c-21.601563 45.027343-65.757813 74.949219-115.585938 78.324219-2.429687.203124-4.832031-.617188-6.628906-2.261719-1.800781-1.644531-2.835938-3.960938-2.855469-6.398438v-117.050781c0-2.878906 1.429688-5.570312 3.8125-7.183594 2.386719-1.613281 5.414063-1.941406 8.089844-.871094l108.625 43.449219c2.25.917969 4.019531 2.734375 4.878906 5.007813.863281 2.273437.742188 4.804687-.335937 6.984375zm0 0" fill="#ff5364"/><g fill="#4482c3"><path d="m60.746094 277.695312c-4.089844-.042968-7.585938-2.960937-8.351563-6.976562-.769531-4.019531 1.402344-8.019531 5.1875-9.566406 3.789063-1.546875 8.140625-.210938 10.402344 3.195312 2.265625 3.40625 1.816406 7.9375-1.078125 10.832032-1.664062 1.582031-3.863281 2.480468-6.160156 2.515624zm0 0"/><path d="m95.457031 277.695312c-4.089843-.042968-7.582031-2.960937-8.351562-6.976562-.769531-4.019531 1.402343-8.019531 5.1875-9.566406 3.789062-1.546875 8.140625-.210938 10.40625 3.195312 2.261719 3.40625 1.8125 7.9375-1.082031 10.832032-1.664063 1.582031-3.863282 2.480468-6.160157 2.515624zm0 0"/><path d="m95.457031 312.40625c-4.089843-.039062-7.582031-2.960938-8.351562-6.976562-.769531-4.019532 1.402343-8.019532 5.1875-9.566407 3.789062-1.546875 8.140625-.210937 10.40625 3.195313 2.261719 3.40625 1.8125 7.9375-1.082031 10.832031-1.664063 1.582031-3.863282 2.480469-6.160157 2.515625zm0 0"/><path d="m425.21875 277.695312c-4.089844-.042968-7.582031-2.960937-8.351562-6.976562-.765626-4.019531 1.402343-8.019531 5.191406-9.566406 3.785156-1.546875 8.136718-.210938 10.402344 3.195312 2.265624 3.40625 1.8125 7.9375-1.078126 10.832032-1.664062 1.582031-3.867187 2.480468-6.164062 2.515624zm0 0"/><path d="m425.21875 312.296875c-4.089844-.039063-7.582031-2.957031-8.351562-6.976563-.765626-4.015624 1.402343-8.019531 5.191406-9.566406 3.785156-1.546875 8.136718-.207031 10.402344 3.199219 2.265624 3.40625 1.8125 7.9375-1.078126 10.828125-1.664062 1.585938-3.867187 2.484375-6.164062 2.515625zm0 0"/><path d="m459.933594 277.695312c-4.089844-.042968-7.585938-2.960937-8.355469-6.976562-.765625-4.019531 1.40625-8.019531 5.191406-9.566406 3.785157-1.546875 8.140625-.210938 10.402344 3.195312 2.265625 3.40625 1.8125 7.9375-1.078125 10.832032-1.664062 1.582031-3.863281 2.480468-6.160156 2.515624zm0 0"/></g><path d="m78.101562 433.898438c-4.792968 0-8.679687-3.886719-8.679687-8.679688v-8.675781c0-4.792969 3.886719-8.679688 8.679687-8.679688 4.792969 0 8.679688 3.886719 8.679688 8.679688v8.675781c0 4.792969-3.886719 8.679688-8.679688 8.679688zm0 0" fill="#f0c419"/><path d="m78.101562 477.289062c-4.792968 0-8.679687-3.886718-8.679687-8.679687v-8.675781c0-4.792969 3.886719-8.679688 8.679687-8.679688 4.792969 0 8.679688 3.886719 8.679688 8.679688v8.675781c0 4.792969-3.886719 8.679687-8.679688 8.679687zm0 0" fill="#f0c419"/><path d="m60.746094 451.253906h-8.679688c-4.792968 0-8.675781-3.886718-8.675781-8.675781 0-4.792969 3.882813-8.679687 8.675781-8.679687h8.679688c4.792968 0 8.675781 3.886718 8.675781 8.679687 0 4.789063-3.882813 8.675781-8.675781 8.675781zm0 0" fill="#f0c419"/><path d="m104.136719 451.253906h-8.679688c-4.792969 0-8.675781-3.886718-8.675781-8.675781 0-4.792969 3.882812-8.679687 8.675781-8.679687h8.679688c4.792969 0 8.675781 3.886718 8.675781 8.679687 0 4.789063-3.882812 8.675781-8.675781 8.675781zm0 0" fill="#f0c419"/><path d="m477.289062 78.101562c-19.171874 0-34.710937-15.539062-34.710937-34.710937s15.539063-34.710937 34.710937-34.710937c19.167969 0 34.710938 15.539062 34.710938 34.710937-.023438 19.160156-15.550781 34.691406-34.710938 34.710937zm0-52.066406c-9.585937 0-17.355468 7.769532-17.355468 17.355469s7.769531 17.355469 17.355468 17.355469c9.585938 0 17.355469-7.769532 17.355469-17.355469-.011719-9.582031-7.773437-17.347656-17.355469-17.355469zm0 0" fill="#2fa8cc"/><path d="m34.710938 69.421875c-19.167969 0-34.710938-15.539063-34.710938-34.710937 0-19.167969 15.542969-34.710938 34.710938-34.710938 19.171874 0 34.710937 15.542969 34.710937 34.710938-.019531 19.164062-15.546875 34.691406-34.710937 34.710937zm0-52.066406c-9.585938 0-17.355469 7.769531-17.355469 17.355469 0 9.585937 7.769531 17.355468 17.355469 17.355468 9.585937 0 17.355468-7.769531 17.355468-17.355468-.007812-9.582032-7.773437-17.34375-17.355468-17.355469zm0 0" fill="#955ba5"/></svg>