<svg height="512pt" viewBox="0 0 512 512" width="512pt" xmlns="http://www.w3.org/2000/svg"><path d="m476.691406 114.757812h17.652344c9.75 0 17.65625 7.90625 17.65625 17.65625v344.277344c0 9.75-7.90625 17.652344-17.65625 17.652344h-186.894531c-4.679688 0-9.171875 1.859375-12.484375 5.171875l-7.3125 7.3125c-3.308594 3.3125-7.800782 5.171875-12.480469 5.171875h-38.34375c-4.679687 0-9.171875-1.859375-12.480469-5.171875l-7.3125-7.3125c-3.3125-3.3125-7.804687-5.171875-12.484375-5.171875h-186.894531c-9.75 0-17.65625-7.902344-17.65625-17.652344v-344.277344c0-9.75 7.90625-17.65625 17.65625-17.65625zm0 0" fill="#7f5b53"/><path d="m512 132.414062v344.277344c-.027344 9.738282-7.917969 17.625-17.65625 17.652344h-186.878906c-4.703125.003906-9.214844 1.878906-12.535156 5.210938l-7.238282 7.238281c-3.320312 3.332031-7.832031 5.203125-12.535156 5.207031h-19.15625v-397.242188h238.34375c9.738281.03125 17.628906 7.917969 17.65625 17.65625zm0 0" fill="#af8066"/><path d="m476.691406 86.511719v361.488281c.03125 2.664062-1.148437 5.195312-3.210937 6.878906s-4.78125 2.335938-7.382813 1.773438c-38.753906-8.210938-171.960937-33.015625-203.390625 8.121094-1.574219 2.105468-4.074219 3.324218-6.707031 3.265624v-402.363281h141.242188c31.867187 3.710938 60.113281 9.445313 72.5625 12.183594 4.046874.902344 6.914062 4.503906 6.886718 8.652344zm0 0" fill="#f5efca"/><path d="m256 65.675781v402.363281c-2.632812.058594-5.132812-1.160156-6.707031-3.265624-31.429688-41.136719-164.636719-16.332032-203.390625-8.121094-2.601563.5625-5.320313-.089844-7.382813-1.773438s-3.242187-4.214844-3.210937-6.878906v-361.488281c-.027344-4.148438 2.839844-7.75 6.886718-8.652344 12.449219-2.738281 40.695313-8.472656 72.5625-12.183594zm0 0" fill="#f9eab0"/><path d="m256 0c-78.035156 0-141.242188 15.800781-141.242188 35.308594v291.3125c0 19.507812 63.207032 35.308594 141.242188 35.308594s141.242188-15.800782 141.242188-35.308594v-291.3125c0-19.507813-63.207032-35.308594-141.242188-35.308594zm0 0" fill="#955ba5"/><path d="m397.242188 35.308594c0-19.5-63.238282-35.308594-141.242188-35.308594s-141.242188 15.808594-141.242188 35.308594c0 19.503906 63.238282 35.3125 141.242188 35.3125s141.242188-15.808594 141.242188-35.3125zm0 0" fill="#b49aca"/><path d="m397.242188 35.308594v97.105468c0 19.507813-63.207032 35.308594-141.242188 35.308594s-141.242188-15.800781-141.242188-35.308594v-97.105468c0 19.511718 63.207032 35.3125 141.242188 35.3125s141.242188-15.800782 141.242188-35.3125zm0 0" fill="#955ba5"/><path d="m397.242188 132.414062v97.101563c0 19.511719-63.207032 35.3125-141.242188 35.3125s-141.242188-15.800781-141.242188-35.3125v-97.101563c0 19.507813 63.207032 35.308594 141.242188 35.308594s141.242188-15.800781 141.242188-35.308594zm0 0" fill="#894b9d"/><path d="m397.242188 229.515625v97.105469c0 19.507812-63.207032 35.308594-141.242188 35.308594s-141.242188-15.800782-141.242188-35.308594v-97.105469c0 19.511719 63.207032 35.3125 141.242188 35.3125s141.242188-15.800781 141.242188-35.3125zm0 0" fill="#955ba5"/><path d="m150.070312 132.414062c-4.875 0-8.828124-3.953124-8.828124-8.828124v-35.308594c0-4.875 3.953124-8.828125 8.828124-8.828125s8.828126 3.953125 8.828126 8.828125v35.308594c0 4.875-3.953126 8.828124-8.828126 8.828124zm0 0" fill="#b49aca"/><path d="m150.070312 229.515625c-4.875 0-8.828124-3.949219-8.828124-8.824219v-35.3125c0-4.875 3.953124-8.828125 8.828124-8.828125s8.828126 3.953125 8.828126 8.828125v35.3125c0 4.875-3.953126 8.824219-8.828126 8.824219zm0 0" fill="#b49aca"/><path d="m150.070312 326.621094c-4.875 0-8.828124-3.953125-8.828124-8.828125v-35.308594c0-4.878906 3.953124-8.828125 8.828124-8.828125s8.828126 3.949219 8.828126 8.828125v35.308594c0 4.875-3.953126 8.828125-8.828126 8.828125zm0 0" fill="#b49aca"/><path d="m185.378906 141.242188c-4.875 0-8.828125-3.953126-8.828125-8.828126v-35.3125c0-4.875 3.953125-8.824218 8.828125-8.824218s8.828125 3.949218 8.828125 8.824218v35.3125c0 4.875-3.953125 8.828126-8.828125 8.828126zm0 0" fill="#b49aca"/><path d="m185.378906 238.34375c-4.875 0-8.828125-3.949219-8.828125-8.828125v-35.308594c0-4.875 3.953125-8.828125 8.828125-8.828125s8.828125 3.953125 8.828125 8.828125v35.308594c0 4.878906-3.953125 8.828125-8.828125 8.828125zm0 0" fill="#b49aca"/><path d="m185.378906 335.449219c-4.875 0-8.828125-3.953125-8.828125-8.828125v-35.3125c0-4.875 3.953125-8.824219 8.828125-8.824219s8.828125 3.949219 8.828125 8.824219v35.3125c0 4.875-3.953125 8.828125-8.828125 8.828125zm0 0" fill="#b49aca"/><g fill="#35495e"><path d="m70.621094 379.585938c-2.347656.023437-4.605469-.902344-6.269532-2.558594-.777343-.859375-1.402343-1.84375-1.851562-2.914063-.492188-1.046875-.734375-2.195312-.707031-3.355469.015625-1.152343.253906-2.292968.707031-3.355468.425781-1.078125 1.054688-2.066406 1.851562-2.910156 2.539063-2.511719 6.335938-3.242188 9.625-1.855469 1.066407.449219 2.054688 1.074219 2.910157 1.855469.796875.84375 1.425781 1.832031 1.855469 2.910156.941406 2.136718.941406 4.574218 0 6.710937-.449219 1.066407-1.078126 2.050781-1.855469 2.914063-1.660157 1.65625-3.917969 2.582031-6.265625 2.558594zm0 0"/><path d="m123.585938 379.585938h-26.484376c-4.875 0-8.824218-3.953126-8.824218-8.828126s3.949218-8.828124 8.824218-8.828124h26.484376c4.875 0 8.828124 3.953124 8.828124 8.828124s-3.953124 8.828126-8.828124 8.828126zm0 0"/><path d="m132.414062 414.898438h-61.792968c-4.875 0-8.828125-3.953126-8.828125-8.828126s3.953125-8.828124 8.828125-8.828124h61.792968c4.875 0 8.828126 3.953124 8.828126 8.828124s-3.953126 8.828126-8.828126 8.828126zm0 0"/><path d="m194.207031 414.898438h-26.484375c-4.875 0-8.824218-3.953126-8.824218-8.828126s3.949218-8.828124 8.824218-8.828124h26.484375c4.875 0 8.828125 3.953124 8.828125 8.828124s-3.953125 8.828126-8.828125 8.828126zm0 0"/><path d="m441.378906 379.585938c2.347656.023437 4.605469-.902344 6.269532-2.558594.777343-.859375 1.402343-1.84375 1.851562-2.914063.492188-1.046875.734375-2.195312.707031-3.355469-.015625-1.152343-.253906-2.292968-.707031-3.355468-.425781-1.078125-1.054688-2.066406-1.851562-2.910156-2.539063-2.511719-6.335938-3.242188-9.625-1.855469-1.066407.449219-2.054688 1.074219-2.910157 1.855469-.796875.84375-1.425781 1.832031-1.855469 2.910156-.941406 2.136718-.941406 4.574218 0 6.710937.449219 1.066407 1.078126 2.050781 1.855469 2.914063 1.660157 1.65625 3.917969 2.582031 6.265625 2.558594zm0 0"/><path d="m414.898438 379.585938h-26.484376c-4.875 0-8.828124-3.953126-8.828124-8.828126s3.953124-8.828124 8.828124-8.828124h26.484376c4.875 0 8.824218 3.953124 8.824218 8.828124s-3.949218 8.828126-8.824218 8.828126zm0 0"/><path d="m441.378906 414.898438h-61.792968c-4.875 0-8.828126-3.953126-8.828126-8.828126s3.953126-8.828124 8.828126-8.828124h61.792968c4.875 0 8.828125 3.953124 8.828125 8.828124s-3.953125 8.828126-8.828125 8.828126zm0 0"/><path d="m344.277344 414.898438h-26.484375c-4.875 0-8.828125-3.953126-8.828125-8.828126s3.953125-8.828124 8.828125-8.828124h26.484375c4.875 0 8.824218 3.953124 8.824218 8.828124s-3.949218 8.828126-8.824218 8.828126zm0 0"/></g></svg>