<svg height="512pt" viewBox="0 0 512 512" width="512pt" xmlns="http://www.w3.org/2000/svg"><path d="m26.484375 412.933594h459.03125v72.582031h-459.03125zm0 0" fill="#7f8c8d"/><path d="m485.515625 141.242188v282.480468h-459.03125v-282.480468c-.003906-9.367188 3.714844-18.347657 10.335937-24.972657 6.625-6.621093 15.605469-10.339843 24.972657-10.339843h388.414062c9.367188 0 18.347657 3.71875 24.972657 10.339843 6.621093 6.625 10.339843 15.605469 10.335937 24.972657zm0 0" fill="#67b9cc"/><path d="m485.515625 278.6875v145.035156h-459.03125v-79.359375c96.21875-51.816406 262.617187-113.082031 459.03125-65.675781zm0 0" fill="#2fa8cc"/><path d="m512 459.035156v26.480469c0 14.628906-11.855469 26.484375-26.484375 26.484375h-459.03125c-14.628906 0-26.484375-11.855469-26.484375-26.484375v-26.480469h185.378906c4.875 0 8.828125 3.953125 8.828125 8.828125s3.953125 8.828125 8.828125 8.828125h105.929688c4.875 0 8.828125-3.953125 8.828125-8.828125s3.953125-8.828125 8.828125-8.828125zm0 0" fill="#95a5a5"/><g fill="#955ba5"><path d="m105.929688 326.621094c-4.875 0-8.828126-3.953125-8.828126-8.828125v-26.484375c0-2.777344 1.308594-5.394532 3.53125-7.058594l31.78125-23.835938v-22.070312c0-4.875 3.953126-8.828125 8.828126-8.828125s8.828124 3.953125 8.828124 8.828125v26.484375c0 2.777344-1.308593 5.394531-3.53125 7.0625l-31.78125 23.832031v22.070313c0 4.875-3.953124 8.828125-8.828124 8.828125zm0 0"/><path d="m105.929688 397.242188c-4.875 0-8.828126-3.953126-8.828126-8.828126v-35.3125c0-4.875 3.953126-8.824218 8.828126-8.824218s8.828124 3.949218 8.828124 8.824218v35.3125c0 4.875-3.953124 8.828126-8.828124 8.828126zm0 0"/><path d="m167.722656 397.242188c-4.875 0-8.824218-3.953126-8.824218-8.828126v-61.792968c0-4.875 3.949218-8.828125 8.824218-8.828125s8.828125 3.953125 8.828125 8.828125v61.792968c0 4.875-3.953125 8.828126-8.828125 8.828126zm0 0"/><path d="m167.722656 300.136719c-4.875 0-8.824218-3.949219-8.824218-8.828125v-17.652344c0-2.34375.929687-4.585938 2.585937-6.242188l15.066406-15.070312v-14c0-4.875 3.953125-8.828125 8.828125-8.828125s8.828125 3.953125 8.828125 8.828125v17.65625c0 2.339844-.929687 4.585938-2.585937 6.242188l-15.070313 15.070312v13.996094c0 4.878906-3.953125 8.828125-8.828125 8.828125zm0 0"/><path d="m220.691406 361.929688c-4.878906 0-8.828125-3.949219-8.828125-8.828126v-114.757812c0-4.875 3.949219-8.828125 8.828125-8.828125 4.875 0 8.824219 3.953125 8.824219 8.828125v114.757812c0 4.878907-3.949219 8.828126-8.824219 8.828126zm0 0"/><path d="m414.898438 326.621094c-4.878907 0-8.828126-3.953125-8.828126-8.828125v-22.070313l-31.78125-23.832031c-2.222656-1.667969-3.53125-4.285156-3.53125-7.0625v-26.484375c0-4.875 3.953126-8.828125 8.828126-8.828125s8.828124 3.953125 8.828124 8.828125v22.070312l31.777344 23.835938c2.226563 1.664062 3.535156 4.28125 3.53125 7.058594v26.484375c0 2.339843-.929687 4.585937-2.585937 6.242187-1.652344 1.65625-3.898438 2.585938-6.238281 2.585938zm0 0"/><path d="m414.898438 397.242188c-4.878907 0-8.828126-3.953126-8.828126-8.828126v-35.3125c0-4.875 3.949219-8.824218 8.828126-8.824218 4.875 0 8.824218 3.949218 8.824218 8.824218v35.3125c0 4.875-3.949218 8.828126-8.824218 8.828126zm0 0"/><path d="m353.101562 397.242188c-4.875 0-8.824218-3.953126-8.824218-8.828126v-61.792968c0-4.875 3.949218-8.828125 8.824218-8.828125 4.878907 0 8.828126 3.953125 8.828126 8.828125v61.792968c0 4.875-3.949219 8.828126-8.828126 8.828126zm0 0"/><path d="m353.101562 300.136719c-4.875 0-8.824218-3.949219-8.824218-8.828125v-13.996094l-15.070313-15.070312c-1.65625-1.65625-2.585937-3.902344-2.585937-6.242188v-17.65625c0-4.875 3.953125-8.828125 8.828125-8.828125s8.828125 3.953125 8.828125 8.828125v14l15.066406 15.070312c1.65625 1.65625 2.585938 3.898438 2.585938 6.242188v17.652344c0 4.878906-3.949219 8.828125-8.828126 8.828125zm0 0"/><path d="m300.136719 361.929688c-4.875 0-8.828125-3.949219-8.828125-8.828126v-114.757812c0-4.875 3.953125-8.828125 8.828125-8.828125s8.828125 3.953125 8.828125 8.828125v114.757812c0 4.878907-3.953125 8.828126-8.828125 8.828126zm0 0"/></g><path d="m406.070312 229.515625v-158.894531l-70.621093-70.621094h-211.863281c-9.738282.0273438-17.625 7.917969-17.65625 17.65625v211.859375c0 4.878906 3.953124 8.828125 8.828124 8.828125h282.484376c4.875 0 8.828124-3.949219 8.828124-8.828125zm0 0" fill="#f0c419"/><path d="m194.207031 70.621094c0 14.625-11.855469 26.480468-26.484375 26.480468-14.625 0-26.480468-11.855468-26.480468-26.480468s11.855468-26.484375 26.480468-26.484375c14.628906 0 26.484375 11.859375 26.484375 26.484375zm0 0" fill="#955ba5"/><path d="m238.34375 79.449219h-17.652344c-4.878906 0-8.828125-3.953125-8.828125-8.828125s3.949219-8.828125 8.828125-8.828125h17.652344c4.875 0 8.828125 3.953125 8.828125 8.828125s-3.953125 8.828125-8.828125 8.828125zm0 0" fill="#3d324c"/><path d="m300.136719 79.449219h-26.480469c-4.875 0-8.828125-3.953125-8.828125-8.828125s3.953125-8.828125 8.828125-8.828125h26.480469c4.875 0 8.828125 3.953125 8.828125 8.828125s-3.953125 8.828125-8.828125 8.828125zm0 0" fill="#3d324c"/><path d="m273.65625 114.757812h-52.964844c-4.878906 0-8.828125-3.953124-8.828125-8.828124s3.949219-8.828126 8.828125-8.828126h52.964844c4.875 0 8.828125 3.953126 8.828125 8.828126s-3.953125 8.828124-8.828125 8.828124zm0 0" fill="#3d324c"/><path d="m335.449219 114.757812h-26.484375c-4.875 0-8.828125-3.953124-8.828125-8.828124s3.953125-8.828126 8.828125-8.828126h26.484375c4.875 0 8.828125 3.953126 8.828125 8.828126s-3.953125 8.828124-8.828125 8.828124zm0 0" fill="#3d324c"/><path d="m150.070312 141.242188h79.445313c4.878906 0 8.828125 3.953124 8.828125 8.828124v44.136719c0 4.875-3.949219 8.828125-8.828125 8.828125h-79.445313c-4.875 0-8.828124-3.953125-8.828124-8.828125v-44.136719c0-4.875 3.953124-8.828124 8.828124-8.828124zm0 0" fill="#955ba5"/><path d="m282.484375 141.242188h79.445313c4.875 0 8.828124 3.953124 8.828124 8.828124v44.136719c0 4.875-3.953124 8.828125-8.828124 8.828125h-79.445313c-4.878906 0-8.828125-3.953125-8.828125-8.828125v-44.136719c0-4.875 3.949219-8.828124 8.828125-8.828124zm0 0" fill="#2fa8cc"/><path d="m335.449219 0 70.621093 70.621094h-61.792968c-4.875 0-8.828125-3.953125-8.828125-8.828125zm0 0" fill="#f3d55b"/><path d="m105.929688 361.929688c-14.625 0-26.480469-11.855469-26.480469-26.480469 0-14.628907 11.855469-26.484375 26.480469-26.484375 14.628906 0 26.484374 11.855468 26.484374 26.484375-.015624 14.617187-11.863281 26.464843-26.484374 26.480469zm0 0" fill="#3d324c"/><path d="m167.722656 335.449219c-14.625 0-26.480468-11.859375-26.480468-26.484375s11.855468-26.480469 26.480468-26.480469c14.628906 0 26.484375 11.855469 26.484375 26.480469-.015625 14.621094-11.863281 26.46875-26.484375 26.484375zm0 0" fill="#3d324c"/><path d="m220.691406 397.242188c-14.628906 0-26.484375-11.859376-26.484375-26.484376s11.855469-26.480468 26.484375-26.480468c14.625 0 26.480469 11.855468 26.480469 26.480468-.015625 14.621094-11.863281 26.46875-26.480469 26.484376zm0 0" fill="#3d324c"/><path d="m414.898438 361.929688c-14.628907 0-26.484376-11.855469-26.484376-26.480469 0-14.628907 11.855469-26.484375 26.484376-26.484375 14.625 0 26.480468 11.855468 26.480468 26.484375-.015625 14.617187-11.863281 26.464843-26.480468 26.480469zm0 0" fill="#3d324c"/><path d="m353.101562 335.449219c-14.625 0-26.480468-11.859375-26.480468-26.484375s11.855468-26.480469 26.480468-26.480469c14.628907 0 26.484376 11.855469 26.484376 26.480469-.015626 14.621094-11.863282 26.46875-26.484376 26.484375zm0 0" fill="#3d324c"/><path d="m300.136719 397.242188c-14.625 0-26.480469-11.859376-26.480469-26.484376s11.855469-26.480468 26.480469-26.480468c14.628906 0 26.484375 11.855468 26.484375 26.480468-.015625 14.621094-11.863282 26.46875-26.484375 26.484376zm0 0" fill="#3d324c"/></svg>