<svg height="512pt" viewBox="0 0 512 512.00015" width="512pt" xmlns="http://www.w3.org/2000/svg"><path d="m163.070312 257.367188c4.4375-14.679688 8.988282-29.300782 13.65625-43.863282 5.886719-18.261718 10.921876-37.546875 18.34375-55.296875 5.875-14.660156 15.75-27.375 28.503907-36.691406h64.851562c12.753907 9.316406 22.628907 22.03125 28.503907 36.691406 7.421874 17.75 12.457031 37.035157 18.34375 55.296875 4.695312 14.59375 9.246093 29.210938 13.65625 43.863282l23.039062 64c16.585938 38.964843 41.382812 73.894531 72.703125 102.398437 2.476563 2.132813 5.035156 4.265625 7.59375 6.3125l17.066406 13.65625h-426.664062l17.066406-13.65625c2.558594-2.046875 5.117187-4.179687 7.59375-6.3125 31.320313-28.503906 56.117187-63.433594 72.703125-102.398437zm0 0" fill="#ff5364"/><path d="m256 85.332031c-4.710938 0-8.535156-3.820312-8.535156-8.53125v-25.601562c0-4.710938 3.824218-8.53125 8.535156-8.53125 4.714844 0 8.535156 3.820312 8.535156 8.53125v25.601562c0 4.710938-3.820312 8.53125-8.535156 8.53125zm0 0" fill="#fb7b76"/><path d="m256 179.199219c-4.710938 0-8.535156-3.820313-8.535156-8.53125v-25.601563c0-4.710937 3.824218-8.53125 8.535156-8.53125 4.714844 0 8.535156 3.820313 8.535156 8.53125v25.601563c0 4.710937-3.820312 8.53125-8.535156 8.53125zm0 0" fill="#fb7b76"/><path d="m119.464844 298.667969h-25.597656c-4.714844 0-8.535157-3.820313-8.535157-8.535157 0-4.710937 3.820313-8.53125 8.535157-8.53125h25.597656c4.714844 0 8.535156 3.820313 8.535156 8.53125 0 4.714844-3.820312 8.535157-8.535156 8.535157zm0 0" fill="#fb7b76"/><path d="m213.332031 298.667969h-25.597656c-4.714844 0-8.535156-3.820313-8.535156-8.535157 0-4.710937 3.820312-8.53125 8.535156-8.53125h25.597656c4.714844 0 8.535157 3.820313 8.535157 8.53125 0 4.714844-3.820313 8.535157-8.535157 8.535157zm0 0" fill="#fb7b76"/><path d="m324.265625 298.667969h-25.597656c-4.714844 0-8.535157-3.820313-8.535157-8.535157 0-4.710937 3.820313-8.53125 8.535157-8.53125h25.597656c4.714844 0 8.535156 3.820313 8.535156 8.53125 0 4.714844-3.820312 8.535157-8.535156 8.535157zm0 0" fill="#fb7b76"/><path d="m418.132812 298.667969h-25.597656c-4.714844 0-8.535156-3.820313-8.535156-8.535157 0-4.710937 3.820312-8.53125 8.535156-8.53125h25.597656c4.714844 0 8.535157 3.820313 8.535157 8.53125 0 4.714844-3.820313 8.535157-8.535157 8.535157zm0 0" fill="#fb7b76"/><g fill="#2980ba"><path d="m25.601562 477.867188c-4.714843 0-8.535156-3.820313-8.535156-8.535157v-25.597656c0-4.714844 3.820313-8.535156 8.535156-8.535156 4.710938 0 8.53125 3.820312 8.53125 8.535156v25.597656c0 4.714844-3.820312 8.535157-8.53125 8.535157zm0 0"/><path d="m25.601562 512c-2.261718-.035156-4.421874-.917969-6.058593-2.476562-.753907-.828126-1.359375-1.78125-1.792969-2.8125-.4375-1.027344-.671875-2.128907-.683594-3.246094.015625-2.261719.902344-4.429688 2.476563-6.058594 3.421875-3.15625 8.695312-3.15625 12.117187 0 3.296875 3.367188 3.296875 8.753906 0 12.117188-1.636718 1.558593-3.800781 2.441406-6.058594 2.476562zm0 0"/><path d="m76.800781 477.867188c-4.714843 0-8.535156-3.820313-8.535156-8.535157v-25.597656c0-4.714844 3.820313-8.535156 8.535156-8.535156 4.710938 0 8.53125 3.820312 8.53125 8.535156v25.597656c0 4.714844-3.820312 8.535157-8.53125 8.535157zm0 0"/><path d="m76.800781 512c-2.257812-.035156-4.421875-.917969-6.058593-2.476562-.753907-.828126-1.359376-1.78125-1.792969-2.8125-.4375-1.027344-.667969-2.128907-.683594-3.246094-.019531-3.464844 2.058594-6.597656 5.261719-7.929688 3.203125-1.328125 6.890625-.589844 9.332031 1.871094 1.570313 1.628906 2.457031 3.796875 2.472656 6.058594-.011719 1.117187-.242187 2.21875-.679687 3.246094-.4375 1.03125-1.042969 1.984374-1.792969 2.8125-1.636719 1.558593-3.800781 2.441406-6.058594 2.476562zm0 0"/><path d="m128 477.867188c-4.710938 0-8.535156-3.820313-8.535156-8.535157v-25.597656c0-4.714844 3.824218-8.535156 8.535156-8.535156 4.714844 0 8.535156 3.820312 8.535156 8.535156v25.597656c0 4.714844-3.820312 8.535157-8.535156 8.535157zm0 0"/><path d="m128 512c-2.257812-.035156-4.421875-.917969-6.058594-2.476562-.753906-.828126-1.359375-1.78125-1.792968-2.8125-.4375-1.027344-.667969-2.128907-.683594-3.246094.019531-2.261719.902344-4.429688 2.476562-6.058594 2.734375-2.761719 6.988282-3.339844 10.359375-1.40625 3.371094 1.9375 5.019531 5.902344 4.007813 9.65625-1.007813 3.753906-4.421875 6.359375-8.308594 6.34375zm0 0"/><path d="m179.199219 477.867188c-4.710938 0-8.53125-3.820313-8.53125-8.535157v-25.597656c0-4.714844 3.820312-8.535156 8.53125-8.535156 4.714843 0 8.535156 3.820312 8.535156 8.535156v25.597656c0 4.714844-3.820313 8.535157-8.535156 8.535157zm0 0"/><path d="m179.199219 512c-3.871094 0-7.261719-2.601562-8.261719-6.34375s.636719-7.691406 3.992188-9.621094c3.359374-1.933594 7.59375-1.371094 10.328124 1.371094 1.570313 1.628906 2.457032 3.796875 2.476563 6.058594-.015625 1.117187-.246094 2.21875-.683594 3.246094-.433593 1.03125-1.039062 1.984374-1.792969 2.8125-1.636718 1.558593-3.800781 2.441406-6.058593 2.476562zm0 0"/><path d="m230.398438 477.867188c-4.710938 0-8.53125-3.820313-8.53125-8.535157v-25.597656c0-4.714844 3.820312-8.535156 8.53125-8.535156 4.714843 0 8.535156 3.820312 8.535156 8.535156v25.597656c0 4.714844-3.820313 8.535157-8.535156 8.535157zm0 0"/><path d="m230.398438 512c-2.257813-.035156-4.421876-.917969-6.058594-2.476562-.769532-.816407-1.378906-1.769532-1.789063-2.8125-.90625-2.070313-.90625-4.417969 0-6.488282.390625-1.054687 1-2.011718 1.789063-2.816406 2.734375-2.761719 6.988281-3.339844 10.359375-1.40625 3.375 1.9375 5.019531 5.902344 4.011719 9.65625-1.011719 3.753906-4.421876 6.359375-8.3125 6.34375zm0 0"/><path d="m281.601562 477.867188c-4.714843 0-8.535156-3.820313-8.535156-8.535157v-25.597656c0-4.714844 3.820313-8.535156 8.535156-8.535156 4.710938 0 8.53125 3.820312 8.53125 8.535156v25.597656c0 4.714844-3.820312 8.535157-8.53125 8.535157zm0 0"/><path d="m281.601562 512c-3.875 0-7.265624-2.601562-8.265624-6.34375s.640624-7.691406 3.996093-9.621094c3.355469-1.933594 7.59375-1.371094 10.328125 1.371094 1.570313 1.628906 2.457032 3.796875 2.472656 6.058594-.011718 1.117187-.246093 2.21875-.683593 3.246094-.433594 1.03125-1.039063 1.984374-1.789063 2.8125-1.636718 1.558593-3.800781 2.441406-6.058594 2.476562zm0 0"/><path d="m332.800781 477.867188c-4.714843 0-8.535156-3.820313-8.535156-8.535157v-25.597656c0-4.714844 3.820313-8.535156 8.535156-8.535156 4.710938 0 8.53125 3.820312 8.53125 8.535156v25.597656c0 4.714844-3.820312 8.535157-8.53125 8.535157zm0 0"/><path d="m332.800781 512c-1.117187-.011719-2.21875-.246094-3.242187-.683594-2.144532-.777344-3.828125-2.464844-4.609375-4.605468-.4375-1.027344-.667969-2.128907-.683594-3.246094.03125-2.257813.917969-4.421875 2.476563-6.058594.828124-.75 1.78125-1.359375 2.816406-1.789062 3.183594-1.25 6.804687-.554688 9.300781 1.789062 3.300781 3.367188 3.300781 8.753906 0 12.117188-1.628906 1.574218-3.796875 2.457031-6.058594 2.476562zm0 0"/><path d="m384 477.867188c-4.710938 0-8.535156-3.820313-8.535156-8.535157v-25.597656c0-4.714844 3.824218-8.535156 8.535156-8.535156 4.714844 0 8.535156 3.820312 8.535156 8.535156v25.597656c0 4.714844-3.820312 8.535157-8.535156 8.535157zm0 0"/><path d="m384 512c-4.023438-.039062-7.457031-2.910156-8.214844-6.859375-.753906-3.953125 1.382813-7.886719 5.105469-9.410156 3.722656-1.519531 8.003906-.203125 10.230469 3.144531 2.226562 3.351562 1.78125 7.804688-1.0625 10.648438-1.636719 1.558593-3.800782 2.441406-6.058594 2.476562zm0 0"/><path d="m435.199219 477.867188c-4.710938 0-8.53125-3.820313-8.53125-8.535157v-25.597656c0-4.714844 3.820312-8.535156 8.53125-8.535156 4.714843 0 8.535156 3.820312 8.535156 8.535156v25.597656c0 4.714844-3.820313 8.535157-8.535156 8.535157zm0 0"/><path d="m435.199219 512c-1.113281-.011719-2.214844-.246094-3.242188-.683594-2.140625-.777344-3.828125-2.464844-4.609375-4.605468-.4375-1.027344-.667968-2.128907-.679687-3.246094.03125-2.257813.914062-4.421875 2.472656-6.058594.832031-.75 1.78125-1.359375 2.816406-1.789062 3.1875-1.25 6.808594-.554688 9.300781 1.789062 2.460938 2.441406 3.203126 6.132812 1.871094 9.332031-1.328125 3.203125-4.460937 5.28125-7.929687 5.261719zm0 0"/><path d="m486.398438 477.867188c-4.710938 0-8.53125-3.820313-8.53125-8.535157v-25.597656c0-4.714844 3.820312-8.535156 8.53125-8.535156 4.714843 0 8.535156 3.820312 8.535156 8.535156v25.597656c0 4.714844-3.820313 8.535157-8.535156 8.535157zm0 0"/><path d="m486.398438 512c-4.019532-.039062-7.457032-2.910156-8.210938-6.859375-.757812-3.953125 1.378906-7.886719 5.101562-9.410156 3.722657-1.519531 8.003907-.203125 10.230469 3.144531 2.226563 3.351562 1.78125 7.804688-1.0625 10.648438-1.636719 1.558593-3.796875 2.441406-6.058593 2.476562zm0 0"/></g><path d="m256 25.601562c-4.710938 0-8.535156-3.820312-8.535156-8.535156v-8.53125c0-4.714844 3.824218-8.535156 8.535156-8.535156 4.714844 0 8.535156 3.820312 8.535156 8.535156v8.53125c0 4.714844-3.820312 8.535156-8.535156 8.535156zm0 0" fill="#fb7b76"/><path d="m256 452.265625c-4.710938 0-8.535156-3.820313-8.535156-8.53125v-238.933594c0-4.714843 3.824218-8.535156 8.535156-8.535156 4.714844 0 8.535156 3.820313 8.535156 8.535156v238.933594c0 4.710937-3.820312 8.53125-8.535156 8.53125zm0 0" fill="#fb7b76"/><path d="m59.734375 110.933594c-18.851563 0-34.132813-15.28125-34.132813-34.132813 0-18.851562 15.28125-34.132812 34.132813-34.132812s34.132813 15.28125 34.132813 34.132812c-.023438 18.839844-15.292969 34.113281-34.132813 34.132813zm0-51.199219c-9.425781 0-17.066406 7.640625-17.066406 17.066406s7.640625 17.066407 17.066406 17.066407 17.066406-7.640626 17.066406-17.066407c-.011719-9.421875-7.644531-17.058593-17.066406-17.066406zm0 0" fill="#ff5364"/><path d="m384 34.132812c-4.710938 0-8.535156-3.820312-8.535156-8.53125v-8.535156c0-4.710937 3.824218-8.53125 8.535156-8.53125 4.714844 0 8.535156 3.820313 8.535156 8.53125v8.535156c0 4.710938-3.820312 8.53125-8.535156 8.53125zm0 0" fill="#f0c419"/><path d="m384 76.800781c-4.710938 0-8.535156-3.820312-8.535156-8.535156v-8.53125c0-4.714844 3.824218-8.535156 8.535156-8.535156 4.714844 0 8.535156 3.820312 8.535156 8.535156v8.53125c0 4.714844-3.820312 8.535156-8.535156 8.535156zm0 0" fill="#f0c419"/><path d="m366.933594 51.199219h-8.535156c-4.710938 0-8.53125-3.820313-8.53125-8.53125 0-4.714844 3.820312-8.535157 8.53125-8.535157h8.535156c4.710937 0 8.53125 3.820313 8.53125 8.535157 0 4.710937-3.820313 8.53125-8.53125 8.53125zm0 0" fill="#f0c419"/><path d="m409.601562 51.199219h-8.535156c-4.710937 0-8.53125-3.820313-8.53125-8.53125 0-4.714844 3.820313-8.535157 8.53125-8.535157h8.535156c4.710938 0 8.53125 3.820313 8.53125 8.535157 0 4.710937-3.820312 8.53125-8.53125 8.53125zm0 0" fill="#f0c419"/><path d="m469.332031 153.601562c-4.710937 0-8.53125-3.820312-8.53125-8.535156v-8.53125c0-4.714844 3.820313-8.535156 8.53125-8.535156 4.714844 0 8.535157 3.820312 8.535157 8.535156v8.53125c0 4.714844-3.820313 8.535156-8.535157 8.535156zm0 0" fill="#2fa8cc"/><path d="m469.332031 196.265625c-4.710937 0-8.53125-3.820313-8.53125-8.53125v-8.535156c0-4.710938 3.820313-8.53125 8.53125-8.53125 4.714844 0 8.535157 3.820312 8.535157 8.53125v8.535156c0 4.710937-3.820313 8.53125-8.535157 8.53125zm0 0" fill="#2fa8cc"/><path d="m452.265625 170.667969h-8.53125c-4.714844 0-8.535156-3.820313-8.535156-8.535157 0-4.710937 3.820312-8.53125 8.535156-8.53125h8.53125c4.714844 0 8.535156 3.820313 8.535156 8.53125 0 4.714844-3.820312 8.535157-8.535156 8.535157zm0 0" fill="#2fa8cc"/><path d="m494.933594 170.667969h-8.535156c-4.710938 0-8.53125-3.820313-8.53125-8.535157 0-4.710937 3.820312-8.53125 8.53125-8.53125h8.535156c4.710937 0 8.53125 3.820313 8.53125 8.53125 0 4.714844-3.820313 8.535157-8.53125 8.535157zm0 0" fill="#2fa8cc"/><path d="m298.667969 110.933594c0 23.5625-19.105469 42.667968-42.667969 42.667968s-42.667969-19.105468-42.667969-42.667968 19.105469-42.667969 42.667969-42.667969 42.667969 19.105469 42.667969 42.667969zm0 0" fill="#f0c419"/><path d="m196.265625 290.132812c0 23.566407-19.101563 42.667969-42.664063 42.667969-23.566406 0-42.667968-19.101562-42.667968-42.667969 0-23.5625 19.101562-42.667968 42.667968-42.667968 23.5625 0 42.664063 19.105468 42.664063 42.667968zm0 0" fill="#f0c419"/><path d="m401.066406 290.132812c0 23.566407-19.101562 42.667969-42.667968 42.667969-23.5625 0-42.664063-19.101562-42.664063-42.667969 0-23.5625 19.101563-42.667968 42.664063-42.667968 23.566406 0 42.667968 19.105468 42.667968 42.667968zm0 0" fill="#f0c419"/><path d="m153.601562 298.667969c-1.121093.027343-2.230468-.207031-3.246093-.683594-1.042969-.414063-1.996094-1.023437-2.8125-1.792969-.34375-.425781-.683594-.851562-1.027344-1.28125-.320313-.472656-.578125-.992187-.765625-1.535156-.246094-.484375-.417969-1-.511719-1.535156-.101562-.5625-.15625-1.132813-.171875-1.707032.015625-1.113281.246094-2.214843.683594-3.242187.78125-2.140625 2.46875-3.824219 4.605469-4.609375 1.558593-.679688 3.289062-.855469 4.953125-.511719.53125.09375 1.050781.265625 1.535156.511719.542969.1875 1.058594.445312 1.535156.769531.445313.316407.875.65625 1.28125 1.023438.769532.816406 1.378906 1.773437 1.789063 2.816406.4375 1.027344.671875 2.128906.683593 3.242187-.015624.574219-.070312 1.144532-.171874 1.707032-.09375.535156-.265626 1.050781-.511719 1.535156-.183594.542969-.445313 1.0625-.765625 1.535156-.34375.429688-.683594.855469-1.023438 1.28125-.429687.34375-.855468.683594-1.28125 1.023438-.476562.324218-.992187.582031-1.535156.769531-.484375.242187-1.003906.417969-1.535156.511719-.566406.097656-1.136719.15625-1.707032.171875zm0 0" fill="#f29c1f"/><path d="m358.398438 298.667969c-1.117188.027343-2.226563-.207031-3.242188-.683594-1.042969-.414063-2-1.023437-2.816406-1.792969-.339844-.425781-.679688-.851562-1.023438-1.28125-.320312-.472656-.578125-.992187-.765625-1.535156-.246093-.484375-.421875-1-.511719-1.535156-.101562-.5625-.160156-1.132813-.171874-1.707032.011718-1.113281.246093-2.214843.683593-3.242187.78125-2.140625 2.46875-3.824219 4.605469-4.609375 1.558594-.679688 3.289062-.855469 4.949219-.511719.535156.09375 1.054687.265625 1.539062.511719.542969.1875 1.058594.445312 1.535157.769531.445312.316407.875.65625 1.277343 1.023438.773438.816406 1.378907 1.773437 1.792969 2.816406.4375 1.027344.671875 2.128906.683594 3.242187-.015625.574219-.074219 1.144532-.171875 1.707032-.09375.535156-.265625 1.050781-.511719 1.535156-.1875.542969-.445312 1.0625-.765625 1.535156-.34375.429688-.683594.855469-1.027344 1.28125-.425781.34375-.851562.683594-1.277343 1.023438-.476563.324218-.992188.582031-1.535157.769531-.484375.242187-1.003906.417969-1.539062.511719-.5625.097656-1.132813.15625-1.707031.171875zm0 0" fill="#f29c1f"/><path d="m256 119.464844c-1.121094.03125-2.230469-.203125-3.242188-.679688-1.042968-.414062-2-1.023437-2.816406-1.792968-.339844-.425782-.683594-.855469-1.023437-1.28125-.324219-.476563-.582031-.992188-.769531-1.535157-.246094-.484375-.417969-1-.511719-1.535156-.097657-.5625-.15625-1.136719-.171875-1.707031.015625-1.117188.246094-2.21875.683594-3.242188.785156-2.140625 2.46875-3.824218 4.609374-4.609375 1.554688-.679687 3.285157-.859375 4.949219-.511719.535157.09375 1.050781.265626 1.535157.511719.542968.1875 1.0625.445313 1.535156.769531.449218.316407.875.65625 1.28125 1.023438.769531.816406 1.378906 1.773438 1.792968 2.816406.4375 1.023438.667969 2.125.683594 3.242188-.015625.570312-.074218 1.140625-.171875 1.707031-.09375.535156-.269531 1.050781-.511719 1.535156-.1875.542969-.445312 1.058594-.769531 1.535157-.339843.425781-.683593.855468-1.023437 1.28125-.425782.339843-.851563.683593-1.28125 1.023437-.472656.324219-.992188.582031-1.535156.769531-.484376.242188-1 .414063-1.535157.511719-.5625.097656-1.132812.152344-1.707031.167969zm0 0" fill="#f29c1f"/><path d="m503.464844 452.265625h-494.929688c-4.714844 0-8.535156-3.820313-8.535156-8.53125 0-4.714844 3.820312-8.535156 8.535156-8.535156h494.929688c4.714844 0 8.535156 3.820312 8.535156 8.535156 0 4.710937-3.820312 8.53125-8.535156 8.53125zm0 0" fill="#2fa8cc"/></svg>