<svg height="511pt" viewBox="0 -2 511.97757 511" width="511pt" xmlns="http://www.w3.org/2000/svg"><path d="m322.382812 345.355469 24.980469-24.984375 49.878907 49.875-24.984376 24.984375zm0 0" fill="#95a5a5"/><path d="m176.550781 87.058594v-36.105469c.03125-9.738281 7.917969-17.625 17.65625-17.652344h203.035157v-24.011719c.011718-3.503906 2.09375-6.671874 5.308593-8.070312 3.214844-1.394531 6.949219-.757812 9.519531 1.625l98.515626 88.984375c.890624.851563 1.390624 2.03125 1.390624 3.265625 0 1.230469-.5 2.410156-1.390624 3.265625l-98.515626 88.980469c-2.570312 2.382812-6.304687 3.019531-9.519531 1.625-3.214843-1.398438-5.296875-4.5625-5.308593-8.066406v-24.011719h-35.3125zm0 0" fill="#955ba5"/><path d="m414.894531 86.265625h-70.617187c-4.878906 0-8.828125-3.953125-8.828125-8.828125s3.949219-8.828125 8.828125-8.828125h70.617187c4.878907 0 8.828125 3.953125 8.828125 8.828125s-3.949218 8.828125-8.828125 8.828125zm0 0" fill="#894b9d"/><path d="m414.894531 121.574219h-44.136719c-4.875 0-8.828124-3.953125-8.828124-8.828125s3.953124-8.824219 8.828124-8.824219h44.136719c4.878907 0 8.828125 3.949219 8.828125 8.824219s-3.949218 8.828125-8.828125 8.828125zm0 0" fill="#894b9d"/><path d="m144.417969 351.09375h-29.679688v-24.011719c-.011719-3.503906-2.097656-6.671875-5.3125-8.070312-3.214843-1.394531-6.949219-.757813-9.519531 1.625l-98.515625 88.984375c-.890625.851562-1.390625 2.03125-1.390625 3.265625 0 1.230469.5 2.410156 1.390625 3.265625l98.515625 88.980468c2.570312 2.382813 6.304688 3.023438 9.519531 1.625 3.214844-1.398437 5.300781-4.5625 5.3125-8.066406v-24.011718h203.054688c9.738281-.03125 17.625-7.917969 17.65625-17.65625v-88.277344c-.03125-9.738282-7.917969-17.625-17.65625-17.652344zm0 0" fill="#955ba5"/><path d="m167.722656 404.058594h-70.621094c-4.875 0-8.824218-3.953125-8.824218-8.828125s3.949218-8.828125 8.824218-8.828125h70.621094c4.875 0 8.828125 3.953125 8.828125 8.828125s-3.953125 8.828125-8.828125 8.828125zm0 0" fill="#894b9d"/><path d="m141.242188 439.367188h-44.140626c-4.875 0-8.824218-3.953126-8.824218-8.828126s3.949218-8.824218 8.824218-8.824218h44.140626c4.875 0 8.828124 3.949218 8.828124 8.824218s-3.953124 8.828126-8.828124 8.828126zm0 0" fill="#894b9d"/><path d="m482.957031 455.964844-24.980469 24.980468c-3.472656 3.445313-9.066406 3.445313-12.535156 0l-12.449218-12.535156-68.679688-68.679687c-1.652344-1.648438-2.582031-3.886719-2.582031-6.222657 0-2.332031.929687-4.574218 2.582031-6.222656l24.984375-24.980468c1.648437-1.652344 3.886719-2.582032 6.222656-2.582032 2.335938 0 4.574219.929688 6.222657 2.582032l12.535156 12.535156 12.449218 12.445312 43.695313 43.695313 12.535156 12.449219c3.441407 3.46875 3.441407 9.066406 0 12.535156zm0 0" fill="#f0c419"/><path d="m376.851562 412.265625 37.429688-37.425781 12.445312 12.445312-37.429687 37.429688zm0 0" fill="#f29c1f"/><path d="m420.546875 455.964844 37.429687-37.429688 12.445313 12.445313-37.429687 37.429687zm0 0" fill="#f29c1f"/><path d="m379.585938 227.507812c0 82.878907-67.1875 150.066407-150.070313 150.066407-82.878906 0-150.066406-67.1875-150.066406-150.066407 0-82.882812 67.1875-150.070312 150.066406-150.070312 82.882813 0 150.070313 67.1875 150.070313 150.070312zm0 0" fill="#bdc3c7"/><path d="m353.101562 227.507812c0 68.253907-55.328124 123.585938-123.585937 123.585938-68.253906 0-123.585937-55.332031-123.585937-123.585938 0-68.257812 55.332031-123.585937 123.585937-123.585937 68.257813 0 123.585937 55.328125 123.585937 123.585937zm0 0" fill="#7f8c8d"/><path d="m344.277344 227.507812c.023437 57.34375-42.304688 105.898438-99.117188 113.695313-56.816406 7.792969-110.65625-27.566406-126.078125-82.800781-2.878906-10.046875-4.335937-20.445313-4.324219-30.894532-.011718-61.742187 48.839844-112.421874 110.539063-114.679687s114.125 44.714844 118.625 106.292969c.265625 2.824218.355469 5.558594.355469 8.386718zm0 0" fill="#67b9cc"/><path d="m344.277344 227.507812c.023437 57.34375-42.304688 105.898438-99.117188 113.695313-56.816406 7.792969-110.65625-27.566406-126.078125-82.800781 52.613281-38.664063 130.386719-71.503906 224.839844-39.28125.265625 2.824218.355469 5.558594.355469 8.386718zm0 0" fill="#2fa8cc"/></svg>