<svg height="512pt" viewBox="-61 0 511 512" width="512pt" xmlns="http://www.w3.org/2000/svg"><path d="m53.464844 0h282.484375c29.25 0 52.964843 23.714844 52.964843 52.964844v406.070312c0 29.25-23.714843 52.964844-52.964843 52.964844h-282.484375c-29.25 0-52.964844-23.714844-52.964844-52.964844v-406.070312c0-29.25 23.714844-52.964844 52.964844-52.964844zm0 0" fill="#35495e"/><path d="m.5 70.621094h388.414062v379.585937h-388.414062zm0 0" fill="#67b9cc"/><path d="m388.914062 220.777344v229.429687h-388.414062v-92.601562c63.027344-55.4375 185.996094-131.707031 388.414062-136.828125zm0 0" fill="#2fa8cc"/><path d="m106.429688 150.070312h176.554687v52.964844h-176.554687zm0 0" fill="#3d324c"/><path d="m106.429688 238.34375h176.554687v52.964844h-176.554687zm0 0" fill="#3d324c"/><path d="m150.570312 44.136719h-8.828124c-4.875 0-8.828126-3.949219-8.828126-8.828125 0-4.875 3.953126-8.824219 8.828126-8.824219h8.828124c4.875 0 8.828126 3.949219 8.828126 8.824219 0 4.878906-3.953126 8.828125-8.828126 8.828125zm0 0" fill="#2c3e50"/><path d="m247.671875 44.136719h-61.792969c-4.875 0-8.828125-3.949219-8.828125-8.828125 0-4.875 3.953125-8.824219 8.828125-8.824219h61.792969c4.875 0 8.828125 3.949219 8.828125 8.824219 0 4.878906-3.953125 8.828125-8.828125 8.828125zm0 0" fill="#2c3e50"/><path d="m106.429688 105.929688h176.554687c9.75 0 17.652344 7.90625 17.652344 17.65625v17.65625c0 9.75-7.902344 17.65625-17.652344 17.65625h-176.554687c-9.75 0-17.652344-7.90625-17.652344-17.65625v-17.65625c0-9.75 7.902344-17.65625 17.652344-17.65625zm0 0" fill="#955ba5"/><g fill="#f0c419"><path d="m115.257812 141.242188c-2.347656.023437-4.605468-.898438-6.265624-2.558594-1.664063-1.664063-2.585938-3.921875-2.5625-6.269532-.03125-1.160156.210937-2.308593.707031-3.355468.425781-1.082032 1.054687-2.070313 1.855469-2.914063 2.828124-2.859375 7.226562-3.457031 10.714843-1.453125 3.488281 2 5.191407 6.101563 4.148438 9.988282-1.046875 3.882812-4.574219 6.578124-8.597657 6.5625zm0 0"/><path d="m150.570312 141.242188c-2.351562.023437-4.609374-.898438-6.269531-2.558594-1.660156-1.664063-2.582031-3.921875-2.558593-6.269532-.035157-1.160156.207031-2.308593.707031-3.355468.425781-1.082032 1.054687-2.070313 1.851562-2.914063 2.828125-2.859375 7.226563-3.457031 10.71875-1.453125 3.488281 2 5.191407 6.101563 4.144531 9.988282-1.042968 3.882812-4.574218 6.578124-8.59375 6.5625zm0 0"/><path d="m274.15625 141.242188c-2.347656.023437-4.609375-.898438-6.269531-2.558594-1.660157-1.664063-2.582031-3.921875-2.558594-6.269532-.03125-1.160156.207031-2.308593.707031-3.355468.425782-1.082032 1.054688-2.070313 1.851563-2.914063 2.828125-2.859375 7.230469-3.457031 10.71875-1.453125 3.488281 2 5.191406 6.101563 4.144531 9.988282-1.042969 3.882812-4.574219 6.578124-8.59375 6.5625zm0 0"/></g><path d="m106.429688 194.207031h176.554687c9.75 0 17.652344 7.90625 17.652344 17.65625v17.652344c0 9.753906-7.902344 17.65625-17.652344 17.65625h-176.554687c-9.75 0-17.652344-7.902344-17.652344-17.65625v-17.652344c0-9.75 7.902344-17.65625 17.652344-17.65625zm0 0" fill="#955ba5"/><path d="m115.257812 229.515625c-2.347656.027344-4.605468-.898437-6.265624-2.558594-1.664063-1.660156-2.585938-3.917969-2.5625-6.265625-.03125-1.160156.210937-2.308594.707031-3.355468.425781-1.082032 1.054687-2.070313 1.855469-2.914063 2.828124-2.859375 7.226562-3.457031 10.714843-1.457031 3.488281 2.003906 5.191407 6.105468 4.148438 9.988281-1.046875 3.886719-4.574219 6.582031-8.597657 6.5625zm0 0" fill="#f0c419"/><path d="m150.570312 229.515625c-2.351562.027344-4.609374-.898437-6.269531-2.558594-1.660156-1.660156-2.582031-3.917969-2.558593-6.265625-.035157-1.160156.207031-2.308594.707031-3.355468.425781-1.082032 1.054687-2.070313 1.851562-2.914063 2.828125-2.859375 7.226563-3.457031 10.71875-1.457031 3.488281 2.003906 5.191407 6.105468 4.144531 9.988281-1.042968 3.886719-4.574218 6.582031-8.59375 6.5625zm0 0" fill="#f0c419"/><path d="m274.15625 229.515625c-2.347656.027344-4.609375-.898437-6.269531-2.558594-1.660157-1.660156-2.582031-3.917969-2.558594-6.265625-.03125-1.160156.207031-2.308594.707031-3.355468.425782-1.082032 1.054688-2.070313 1.851563-2.914063 2.828125-2.859375 7.230469-3.457031 10.71875-1.457031 3.488281 2.003906 5.191406 6.105468 4.144531 9.988281-1.042969 3.886719-4.574219 6.582031-8.59375 6.5625zm0 0" fill="#f0c419"/><path d="m106.429688 282.484375h176.554687c9.75 0 17.652344 7.902344 17.652344 17.652344v17.65625c0 9.75-7.902344 17.65625-17.652344 17.65625h-176.554687c-9.75 0-17.652344-7.90625-17.652344-17.65625v-17.65625c0-9.75 7.902344-17.652344 17.652344-17.652344zm0 0" fill="#955ba5"/><path d="m115.257812 317.792969c-2.347656.023437-4.605468-.898438-6.265624-2.558594-1.664063-1.660156-2.585938-3.921875-2.5625-6.269531-.03125-1.15625.210937-2.308594.707031-3.355469.425781-1.078125 1.054687-2.066406 1.855469-2.910156 2.828124-2.863281 7.226562-3.460938 10.714843-1.457031 3.488281 2.003906 5.191407 6.101562 4.148438 9.988281-1.046875 3.882812-4.574219 6.578125-8.597657 6.5625zm0 0" fill="#f0c419"/><path d="m150.570312 317.792969c-2.351562.023437-4.609374-.898438-6.269531-2.558594-1.660156-1.660156-2.582031-3.921875-2.558593-6.269531-.035157-1.15625.207031-2.308594.707031-3.355469.425781-1.078125 1.054687-2.066406 1.851562-2.910156 2.828125-2.863281 7.226563-3.460938 10.71875-1.457031 3.488281 2.003906 5.191407 6.101562 4.144531 9.988281-1.042968 3.882812-4.574218 6.578125-8.59375 6.5625zm0 0" fill="#f0c419"/><path d="m274.15625 317.792969c-2.347656.023437-4.609375-.898438-6.269531-2.558594-1.660157-1.660156-2.582031-3.921875-2.558594-6.269531-.03125-1.15625.207031-2.308594.707031-3.355469.425782-1.078125 1.054688-2.066406 1.851563-2.910156 2.828125-2.863281 7.230469-3.460938 10.71875-1.457031 3.488281 2.003906 5.191406 6.101562 4.144531 9.988281-1.042969 3.882812-4.574219 6.578125-8.59375 6.5625zm0 0" fill="#f0c419"/><path d="m344.777344 379.585938h-300.140625c-4.875 0-8.828125-3.953126-8.828125-8.828126v-17.65625c0-4.875 3.953125-8.824218 8.828125-8.824218s8.828125 3.949218 8.828125 8.824218v8.828126h282.484375v-8.828126c0-4.875 3.953125-8.824218 8.828125-8.824218s8.824218 3.949218 8.824218 8.824218v17.65625c0 4.875-3.949218 8.828126-8.824218 8.828126zm0 0" fill="#3d324c"/><path d="m344.777344 423.722656h-300.140625c-4.875 0-8.828125-3.949218-8.828125-8.824218v-17.65625c0-4.875 3.953125-8.828126 8.828125-8.828126s8.828125 3.953126 8.828125 8.828126v8.828124h282.484375v-8.828124c0-4.875 3.953125-8.828126 8.828125-8.828126s8.824218 3.953126 8.824218 8.828126v17.65625c0 4.875-3.949218 8.824218-8.824218 8.824218zm0 0" fill="#3d324c"/></svg>