<svg height="512pt" viewBox="0 0 512 512" width="512pt" xmlns="http://www.w3.org/2000/svg"><path d="m17.65625 0h476.6875c9.75 0 17.65625 7.90625 17.65625 17.65625v370.757812c0 9.75-7.90625 17.65625-17.65625 17.65625h-476.6875c-9.75 0-17.65625-7.90625-17.65625-17.65625v-370.757812c0-9.75 7.90625-17.65625 17.65625-17.65625zm0 0" fill="#35495e"/><path d="m512 157.21875v231.195312c-.027344 9.738282-7.917969 17.625-17.65625 17.65625h-476.6875c-9.738281-.03125-17.6289062-7.917968-17.65625-17.65625v-107.34375c87.746094-67.089843 277.097656-178.933593 512-123.851562zm0 0" fill="#2c3e50"/><path d="m353.101562 476.691406c-52.664062-8.828125-43.886718-70.621094-43.886718-70.621094h-106.429688s8.777344 61.792969-43.886718 70.621094zm0 0" fill="#95a5a5"/><path d="m414.898438 512h-317.796876c-3.339843 0-6.398437-1.890625-7.894531-4.878906-1.496093-2.992188-1.171875-6.570313.835938-9.246094l7.941406-10.59375c5.003906-6.667969 12.851563-10.589844 21.1875-10.589844h273.65625c8.335937 0 16.183594 3.921875 21.1875 10.589844l7.941406 10.59375c2.007813 2.675781 2.332031 6.253906.835938 9.246094-1.496094 2.988281-4.554688 4.878906-7.894531 4.878906zm0 0" fill="#bdc3c7"/><g fill="#2fa8cc"><path d="m44.136719 52.964844h-8.828125c-4.875 0-8.824219-3.953125-8.824219-8.828125s3.949219-8.828125 8.824219-8.828125h8.828125c4.875 0 8.828125 3.953125 8.828125 8.828125s-3.953125 8.828125-8.828125 8.828125zm0 0"/><path d="m114.757812 123.585938c-4.875 0-8.828124-3.953126-8.828124-8.828126v-61.792968h-26.480469c-4.875 0-8.828125-3.953125-8.828125-8.828125s3.953125-8.828125 8.828125-8.828125h35.308593c4.875 0 8.828126 3.953125 8.828126 8.828125v70.621093c0 4.875-3.953126 8.828126-8.828126 8.828126zm0 0"/><path d="m158.898438 300.136719h-8.828126c-4.875 0-8.828124-3.949219-8.828124-8.828125 0-4.875 3.953124-8.824219 8.828124-8.824219h8.828126c4.875 0 8.824218 3.949219 8.824218 8.824219 0 4.878906-3.949218 8.828125-8.824218 8.828125zm0 0"/><path d="m114.757812 300.136719h-35.308593c-4.875 0-8.828125-3.949219-8.828125-8.828125v-70.617188c0-4.878906 3.953125-8.828125 8.828125-8.828125s8.828125 3.949219 8.828125 8.828125v61.792969h26.480468c4.875 0 8.828126 3.949219 8.828126 8.824219 0 4.878906-3.953126 8.828125-8.828126 8.828125zm0 0"/><path d="m317.792969 308.964844h-8.828125c-4.875 0-8.828125-3.953125-8.828125-8.828125s3.953125-8.828125 8.828125-8.828125h8.828125c4.875 0 8.828125 3.953125 8.828125 8.828125s-3.953125 8.828125-8.828125 8.828125zm0 0"/><path d="m273.65625 308.964844h-35.3125c-4.875 0-8.828125-3.953125-8.828125-8.828125v-79.445313c0-4.878906 3.953125-8.828125 8.828125-8.828125s8.828125 3.949219 8.828125 8.828125v70.617188h26.484375c4.875 0 8.828125 3.953125 8.828125 8.828125s-3.953125 8.828125-8.828125 8.828125zm0 0"/><path d="m317.792969 44.136719h-8.828125c-4.875 0-8.828125-3.949219-8.828125-8.828125 0-4.875 3.953125-8.824219 8.828125-8.824219h8.828125c4.875 0 8.828125 3.949219 8.828125 8.824219 0 4.878906-3.953125 8.828125-8.828125 8.828125zm0 0"/><path d="m238.34375 123.585938c-4.875 0-8.828125-3.953126-8.828125-8.828126v-79.449218c0-4.875 3.953125-8.824219 8.828125-8.824219h35.3125c4.875 0 8.828125 3.949219 8.828125 8.824219 0 4.878906-3.953125 8.828125-8.828125 8.828125h-26.484375v70.621093c0 4.875-3.953125 8.828126-8.828125 8.828126zm0 0"/><path d="m344.277344 88.277344h-8.828125c-4.875 0-8.828125-3.953125-8.828125-8.828125s3.953125-8.828125 8.828125-8.828125h8.828125c4.875 0 8.824218 3.953125 8.824218 8.828125s-3.949218 8.828125-8.824218 8.828125zm0 0"/><path d="m388.414062 123.585938c-4.875 0-8.828124-3.953126-8.828124-8.828126v-26.480468h-8.828126c-4.875 0-8.828124-3.953125-8.828124-8.828125s3.953124-8.828125 8.828124-8.828125h17.65625c4.875 0 8.828126 3.953125 8.828126 8.828125v35.308593c0 4.875-3.953126 8.828126-8.828126 8.828126zm0 0"/><path d="m441.378906 282.484375h-26.480468c-4.878907 0-8.828126-3.953125-8.828126-8.828125s3.949219-8.828125 8.828126-8.828125h17.652343v-44.136719c0-4.878906 3.953125-8.828125 8.828125-8.828125s8.828125 3.949219 8.828125 8.828125v52.964844c0 4.875-3.953125 8.828125-8.828125 8.828125zm0 0"/><path d="m379.585938 282.484375h-8.828126c-4.875 0-8.828124-3.953125-8.828124-8.828125s3.953124-8.828125 8.828124-8.828125h8.828126c4.875 0 8.828124 3.953125 8.828124 8.828125s-3.953124 8.828125-8.828124 8.828125zm0 0"/><path d="m441.378906 123.585938c-4.875 0-8.828125-3.953126-8.828125-8.828126v-79.449218c0-4.875 3.953125-8.824219 8.828125-8.824219h8.828125c4.875 0 8.828125 3.949219 8.828125 8.824219 0 4.878906-3.953125 8.828125-8.828125 8.828125v70.621093c0 4.875-3.953125 8.828126-8.828125 8.828126zm0 0"/><path d="m485.515625 44.136719c-2.339844-.015625-4.582031-.933594-6.265625-2.558594-3.414062-3.480469-3.414062-9.054687 0-12.535156 2.144531-2.03125 5.128906-2.917969 8.03125-2.382813.554688.097656 1.089844.273438 1.589844.527344.5625.195312 1.097656.460938 1.589844.796875.441406.351563.886718.707031 1.324218 1.058594 3.414063 3.480469 3.414063 9.054687 0 12.535156-1.683594 1.625-3.929687 2.539063-6.269531 2.558594zm0 0"/></g><path d="m512 335.449219v52.964843c-.027344 9.738282-7.917969 17.625-17.65625 17.65625h-476.6875c-9.738281-.03125-17.6289062-7.917968-17.65625-17.65625v-52.964843zm0 0" fill="#bdc3c7"/><path d="m158.898438 167.722656c-.003907 27.96875-18.789063 52.449219-45.804688 59.683594-27.011719 7.238281-55.519531-4.570312-69.503906-28.789062s-9.957032-54.8125 9.816406-74.589844l24.984375 24.980468c-8.476563 8.476563-10.199219 21.585938-4.207031 31.960938 5.992187 10.378906 18.207031 15.4375 29.785156 12.335938 11.574219-3.105469 19.621094-13.597657 19.617188-25.582032zm0 0" fill="#894b9d"/><path d="m158.898438 167.722656h-35.3125c.007812-10.710937-6.445313-20.371094-16.339844-24.46875-9.898438-4.097656-21.289063-1.824218-28.855469 5.753906l-24.984375-24.980468c17.671875-17.675782 44.253906-22.960938 67.34375-13.398438 23.09375 9.566406 38.148438 32.101563 38.148438 57.09375zm0 0" fill="#955ba5"/><path d="m317.792969 167.722656c0 34.128906-27.664063 61.792969-61.792969 61.792969s-61.792969-27.664063-61.792969-61.792969c-.046875-9.597656 2.191407-19.070312 6.53125-27.628906l31.605469 15.800781c-4.894531 9.78125-3.269531 21.5625 4.089844 29.652344s18.9375 10.820313 29.136718 6.875c10.195313-3.949219 16.917969-13.761719 16.914063-24.699219.027344-4.113281-.941406-8.171875-2.828125-11.828125l31.605469-15.800781c4.339843 8.558594 6.578125 18.03125 6.53125 27.628906zm0 0" fill="#df4d60"/><path d="m311.261719 140.09375-31.605469 15.800781c-3.789062-7.617187-11.019531-12.945312-19.417969-14.3125-8.402343-1.363281-16.945312 1.402344-22.953125 7.425781-2.015625 2.007813-3.6875 4.335938-4.941406 6.886719l-31.605469-15.800781c2.933594-5.960938 6.84375-11.394531 11.566407-16.066406 14.042968-14.042969 33.984374-20.480469 53.589843-17.296875 19.605469 3.183593 36.484375 15.597656 45.367188 33.363281zm0 0" fill="#ff5364"/><path d="m476.691406 167.722656c0 34.128906-27.667968 61.792969-61.792968 61.792969-34.128907 0-61.796876-27.664063-61.796876-61.792969h35.3125c0 14.628906 11.855469 26.484375 26.484376 26.484375 14.625 0 26.480468-11.855469 26.480468-26.484375zm0 0" fill="#e57e25"/><path d="m476.691406 167.722656h-35.3125c.03125-4.113281-.941406-8.171875-2.824218-11.828125-4.484376-8.960937-13.636719-14.632812-23.65625-14.652343v-35.3125c23.414062-.042969 44.832031 13.195312 55.257812 34.164062 4.34375 8.558594 6.582031 18.03125 6.535156 27.628906zm0 0" fill="#f0c419"/><path d="m414.898438 105.929688v35.3125c-7.019532.015624-13.75 2.808593-18.714844 7.765624-2.015625 2.007813-3.6875 4.335938-4.945313 6.886719-1.84375 3.671875-2.8125 7.722657-2.824219 11.828125h-35.3125c-.046874-9.597656 2.191407-19.070312 6.535157-27.628906 2.929687-5.960938 6.839843-11.394531 11.5625-16.066406 11.566406-11.621094 27.300781-18.136719 43.699219-18.097656zm0 0" fill="#f29c1f"/></svg>