<?xml version="1.0" encoding="iso-8859-1"?>
<!-- Generator: Adobe Illustrator 19.0.0, SVG Export Plug-In . SVG Version: 6.00 Build 0)  -->
<svg version="1.1" id="Layer_1" xmlns="http://www.w3.org/2000/svg" xmlns:xlink="http://www.w3.org/1999/xlink" x="0px" y="0px"
	 viewBox="0 0 512 512" style="enable-background:new 0 0 512 512;" xml:space="preserve">
<path style="fill:#F3C40F;" d="M511.5,431c0,44.183-35.942,80-80.125,80h-351C36.192,511,0.5,475.183,0.5,431V104L104.375,0h327
	C475.558,0,511.5,35.817,511.5,80V431z"/>
<rect x="160.5" y="399" style="fill:#1C2833;" width="5" height="113"/>
<path style="fill:#C62E26;" d="M363.5,305c0-5.523-4.477-10-10-10h-34c-5.523,0-10,4.477-10,10v102c0,5.523,4.477,10,10,10h34
	c5.523,0,10-4.477,10-10V305z"/>
<path style="fill:#C62E26;" d="M205.5,305c0-5.523-4.477-10-10-10h-34c-5.523,0-10,4.477-10,10v102c0,5.523,4.477,10,10,10h34
	c5.523,0,10-4.477,10-10V305z"/>
<path style="fill:#E24C3F;" d="M163.005,369.002c-1.652,0-3.27-0.819-4.223-2.316L95.5,267.291v-52.822
	C95.5,125.986,167.5,54,256,54s160.5,71.986,160.5,160.469v52.686l-58.49,95.592c-1.44,2.356-4.519,3.098-6.874,1.655
	c-2.355-1.44-3.097-4.519-1.655-6.874l57.019-93.19v-49.869C406.5,131.5,338.986,64,256,64s-150.5,67.5-150.5,150.469v49.908
	l61.718,96.938c1.483,2.33,0.797,5.42-1.532,6.903C164.853,368.748,163.923,369.002,163.005,369.002z"/>
<path style="fill:#FFD636;" d="M0.5,104h69.334C88.9,104,104.5,88.666,104.5,69.6l-0.125-69.568L0.5,104z"/>
<polygon style="opacity:0.2;fill:#5D5D5D;enable-background:new    ;" points="0.5,159.733 0.5,104 55.967,104 "/>
<rect x="171.5" y="295" style="fill:#991010;" width="18" height="122"/>
<rect x="324.5" y="295" style="fill:#991010;" width="18" height="122"/>
<path style="fill:#E24C3F;" d="M169.054,359.215c2.217,3.5,1.179,8.133-2.321,10.35l0,0c-3.499,2.218-8.133,1.178-10.35-2.32
	l-29.438-46.459c-2.217-3.5-1.178-8.133,2.322-10.35l0,0c3.499-2.218,8.132-1.179,10.349,2.32L169.054,359.215z"/>
<path style="fill:#E24C3F;" d="M344.946,359.215c-2.217,3.5-1.179,8.133,2.321,10.35l0,0c3.499,2.218,8.133,1.178,10.35-2.32
	l29.438-46.459c2.217-3.5,1.178-8.133-2.322-10.35l0,0c-3.499-2.218-8.132-1.179-10.349,2.32L344.946,359.215z"/>
<path style="fill:#1C2833;" d="M109.5,254.5c0,5.246-4.253,9.5-9.5,9.5l0,0c-5.247,0-9.5-4.254-9.5-9.5v-8
	c0-5.246,4.253-9.5,9.5-9.5l0,0c5.247,0,9.5,4.254,9.5,9.5V254.5z"/>
<path style="fill:#1C2833;" d="M420.5,254.5c0,5.246-4.253,9.5-9.5,9.5l0,0c-5.247,0-9.5-4.254-9.5-9.5v-8
	c0-5.246,4.253-9.5,9.5-9.5l0,0c5.247,0,9.5,4.254,9.5,9.5V254.5z"/>
<circle style="fill:#C62E26;" cx="100.501" cy="265.668" r="18.208"/>
<circle style="fill:#E24C3F;" cx="100.501" cy="265.668" r="13.542"/>
<circle style="fill:#C62E26;" cx="411.501" cy="265.668" r="18.208"/>
<circle style="fill:#E24C3F;" cx="411.501" cy="265.668" r="13.542"/>
<path style="fill:#1C2833;" d="M230.5,267c0-5.523-4.477-10-10-10h-34c-5.523,0-10,4.477-10,10v171c0,5.523,4.477,10,10,10h34
	c5.523,0,10-4.477,10-10V267z"/>
<path style="fill:#E24C3F;" d="M194.5,257h-8c-5.523,0-10,4.477-10,10v171c0,5.523,4.477,10,10,10h8V257z"/>
<path style="fill:#E24C3F;" d="M337.5,267c0-5.523-4.477-10-10-10h-34c-5.523,0-10,4.477-10,10v171c0,5.523,4.477,10,10,10h34
	c5.523,0,10-4.477,10-10V267z"/>
<path style="fill:#1C2833;" d="M320.5,257h-27c-5.523,0-10,4.477-10,10v171c0,5.523,4.477,10,10,10h27V257z"/>
<path style="fill:#F28181;" d="M334.5,375c0,1.104-0.896,2-2,2l0,0c-1.104,0-2-0.896-2-2V266c0-1.104,0.896-2,2-2l0,0
	c1.104,0,2,0.896,2,2V375z"/>
<path style="fill:#F28181;" d="M184.5,434c0,1.104-0.896,2-2,2l0,0c-1.104,0-2-0.896-2-2v-50c0-1.104,0.896-2,2-2l0,0
	c1.104,0,2,0.896,2,2V434z"/>
<path style="fill:#1C2833;" d="M397.5,214.469c0,6.149,3.704,11.428,9,13.744v-13.744C406.5,131.5,338.986,64,256,64
	s-150.5,67.5-150.5,150.469v14.443c6.34-1.752,11-7.547,11-14.443C116.5,137.014,179.528,74,257,74S397.5,137.014,397.5,214.469z"/>
<g>
</g>
<g>
</g>
<g>
</g>
<g>
</g>
<g>
</g>
<g>
</g>
<g>
</g>
<g>
</g>
<g>
</g>
<g>
</g>
<g>
</g>
<g>
</g>
<g>
</g>
<g>
</g>
<g>
</g>
</svg>
