<?xml version="1.0" encoding="iso-8859-1"?>
<!-- Generator: Adobe Illustrator 19.0.0, SVG Export Plug-In . SVG Version: 6.00 Build 0)  -->
<svg version="1.1" id="Layer_1" xmlns="http://www.w3.org/2000/svg" xmlns:xlink="http://www.w3.org/1999/xlink" x="0px" y="0px"
	 viewBox="0 0 511 511" style="enable-background:new 0 0 511 511;" xml:space="preserve">
<path style="fill:#2D3E50;" d="M511,431c0,44.183-35.818,80-80,80H80c-44.183,0-80-35.817-80-80V104L104,0h327
	c44.182,0,80,35.817,80,80V431z"/>
<path style="fill:#E24C3F;" d="M187.074,275.627c0,0-45.045,18.776-65.754,71.824l47.199,18.426L187.074,275.627z"/>
<path style="fill:#B7332C;" d="M168.52,365.877l18.555-90.25c0,0-6.926,2.889-16.596,9.598
	c-10.474,31.67-15.602,59.871-17.266,73.928c-0.033,0.23-0.067,0.473-0.101,0.71L168.52,365.877z"/>
<path style="fill:#496582;" d="M0,104h69.334C88.4,104,104,88.666,104,69.6V0L0,104z"/>
<polygon style="opacity:0.2;fill:#5D5D5D;enable-background:new    ;" points="0,159.733 0,104 55.467,104 "/>
<path style="fill:#E24C3F;" d="M342.471,336.289c0,0,20.411,44.33-0.298,97.379l-47.198-18.426L342.471,336.289z"/>
<path style="fill:#EF928E;" d="M342.471,336.289l-3.554,5.908c4.594,13.533,13.345,48.791-1.824,89.487l5.08,1.983
	C362.882,380.619,342.471,336.289,342.471,336.289z"/>
<path style="fill:#DDDDDD;" d="M301.625,422.408c1.651-1.881,3.243-4.045,4.668-6.244c13.834-19.512,44.838-71.214,58.23-128.051
	c17.282-73.338,8.803-127.373-24.696-173.975c-56.214,11.58-98.938,45.577-135.911,111.229
	c-29.173,51.795-41.021,112.08-43.729,134.947c-0.239,1.621-0.483,3.452-0.571,5.045c-0.049,0.639,0.072,0.813-0.198,1.955
	l0.043,0.016c-0.212,16.137,7.522,30.385,20.913,35.611l81.552,31.836c13.39,5.228,28.731-0.013,39.507-12.023l0.007,0.002
	C301.451,422.761,301.593,422.447,301.625,422.408z"/>
<path style="fill:#FFFFFF;" d="M364.539,288.075c17.272-73.297,8.803-127.292-24.648-173.878
	c24.688,43.164,28.142,95.201,8.943,167.747c-14.884,56.255-44.038,108.635-56.817,128.56c-1.328,2.237-2.823,4.525-4.317,6.469
	c-0.029,0.041-0.168,0.354-0.18,0.35l-0.004-0.002c-9.744,12.416-22.826,18.536-33.6,14.332l8.009,3.125
	c13.39,5.228,28.731-0.013,39.507-12.023l0.007,0.002c0.013,0.005,0.154-0.309,0.187-0.348c1.651-1.881,3.243-4.045,4.668-6.244
	C320.127,396.652,351.146,344.912,364.539,288.075z"/>
<circle style="fill:#999999;" cx="291.045" cy="232.084" r="46.478"/>
<path style="fill:#606060;" d="M318.145,255.379c-23.912-9.336-35.729-36.284-26.396-60.196c1.3-3.329,2.952-6.415,4.879-9.25
	c-20.563-2.503-40.997,9.063-48.879,29.25c-9.333,23.912,2.483,50.86,26.396,60.196c20.583,8.035,43.406,0.389,55.318-17.145
	C325.668,257.773,321.869,256.833,318.145,255.379z"/>
<circle style="fill:#4390C4;" cx="291.046" cy="232.084" r="35.309"/>
<path style="fill:#79BDE2;" d="M303.888,199.193c-12.557-4.902-26.215-2.125-35.795,6.057c1.504,12.509,9.668,23.807,22.222,28.707
	c12.557,4.901,26.215,2.123,35.796-6.059C324.605,215.392,316.442,204.094,303.888,199.193z"/>
<g>
	<circle style="fill:#2D3E50;" cx="305.803" cy="194.281" r="2.403"/>
	<circle style="fill:#2D3E50;" cx="276.289" cy="269.886" r="2.402"/>
	<circle style="fill:#2D3E50;" cx="253.245" cy="217.326" r="2.403"/>
	<circle style="fill:#2D3E50;" cx="328.849" cy="246.84" r="2.402"/>
</g>
<g>
	<circle style="fill:#2D3E50;" cx="274.752" cy="194.918" r="2.402"/>
	<circle style="fill:#2D3E50;" cx="307.343" cy="269.248" r="2.402"/>
	<path style="fill:#2D3E50;" d="M252.916,246.179c-1.213,0.532-1.767,1.948-1.232,3.165c0.53,1.213,1.947,1.767,3.165,1.235
		c1.216-0.534,1.767-1.951,1.234-3.165C255.547,246.198,254.133,245.646,252.916,246.179z"/>
	<circle style="fill:#2D3E50;" cx="328.212" cy="215.787" r="2.402"/>
</g>
<path style="fill:#E24C3F;" d="M160.035,362.565c-0.239,1.153-0.288,1.848-0.328,2.562c-0.049,0.637-0.02,1.045-0.29,2.188
	l0.043,0.016c-0.212,16.137,7.522,30.385,20.913,35.611l81.552,31.836c13.39,5.228,28.731-0.013,39.507-12.023l0.007,0.002
	c0.013,0.005,0.244-0.538,0.277-0.576c0.815-0.932,1.786-2.361,2.528-3.318L160.035,362.565z"/>
<path style="fill:#EF928E;" d="M290.108,413.343c-0.681,0.98-1.579,2.438-2.318,3.4c-0.03,0.038-0.259,0.583-0.271,0.579
	l-0.004-0.002c-9.744,12.416-22.826,18.536-33.6,14.332l8.009,3.125c13.39,5.228,28.731-0.013,39.507-12.023l0.007,0.002
	c0.013,0.005,0.244-0.538,0.277-0.576c0.815-0.932,1.786-2.361,2.528-3.318L290.108,413.343z"/>
<path style="fill:#642828;" d="M371.671,195.664c-3.736-30.153-14.37-56.779-31.955-81.239
	c-29.509,6.079-55.343,18.466-78.492,38.122L371.671,195.664z"/>
<path style="fill:#E24C3F;" d="M264.869,148.98l106.534,41.589c-4.162-26.542-13.669-51.098-28.99-73.473l17.271-52.556
	c2.529,0.844,5.304-0.418,6.285-2.932c1.012-2.593-0.27-5.518-2.864-6.529s-5.517,0.27-6.528,2.861
	c-0.982,2.521,0.209,5.338,2.654,6.425l-22.551,50.028C309.942,120.423,286.088,132.108,264.869,148.98z"/>
<circle style="fill:#707070;" cx="93.914" cy="459.936" r="4.481"/>
<circle style="fill:#707070;" cx="123.406" cy="226.713" r="4.481"/>
<circle style="fill:#707070;" cx="336.406" cy="467.713" r="4.481"/>
<circle style="fill:#707070;" cx="467.406" cy="405.713" r="4.481"/>
<circle style="fill:#969696;" cx="257.551" cy="68.125" r="4.481"/>
<circle style="fill:#B2B2B2;" cx="448.916" cy="146.768" r="4.481"/>
<circle style="fill:#B2B2B2;" cx="386.916" cy="300.768" r="4.481"/>
<circle style="fill:#B2B2B2;" cx="137.916" cy="85.768" r="4.481"/>
<circle style="fill:#B2B2B2;" cx="47.916" cy="320.768" r="4.481"/>
<path style="fill:#566E84;" d="M214.813,426.927c-16.8-6.386-35.594,1.86-41.977,18.659L147.947,511h69.63l16.098-42.295
	C240.058,451.904,231.613,433.309,214.813,426.927z"/>
<path style="fill:#EF928E;" d="M340.072,113.734c12.33,21.563,19.15,45.881,20.924,72.771l10.407,4.063
	C367.044,162.668,356.778,137.004,340.072,113.734z"/>
<g>
</g>
<g>
</g>
<g>
</g>
<g>
</g>
<g>
</g>
<g>
</g>
<g>
</g>
<g>
</g>
<g>
</g>
<g>
</g>
<g>
</g>
<g>
</g>
<g>
</g>
<g>
</g>
<g>
</g>
</svg>
