<?xml version="1.0" encoding="iso-8859-1"?>
<!-- Generator: Adobe Illustrator 19.0.0, SVG Export Plug-In . SVG Version: 6.00 Build 0)  -->
<svg version="1.1" id="Layer_1" xmlns="http://www.w3.org/2000/svg" xmlns:xlink="http://www.w3.org/1999/xlink" x="0px" y="0px"
	 viewBox="0 0 511 511" style="enable-background:new 0 0 511 511;" xml:space="preserve">
<path style="fill:#D9D9D9;" d="M511,431c0,44.184-35.817,80-80,80H80c-44.183,0-80-35.816-80-80V104L104,0h327
	c44.183,0,80,35.817,80,80V431z"/>
<path style="fill:#F7F7F7;" d="M483,236c8.271,0,15-6.729,15-15v-56c0-8.271-6.729-15-15-15h-7V94.844
	C476,61.846,449.154,35,416.156,35H94.844C61.846,35,35,61.846,35,94.844v321.313C35,449.154,61.846,476,94.844,476h321.312
	C449.154,476,476,449.154,476,416.156V361h7c8.271,0,15-6.729,15-15v-56c0-8.271-6.729-15-15-15h-7v-39H483z"/>
<path style="fill:#A6A6A6;" d="M483,231c5.5,0,10-4.5,10-10v-56c0-5.5-4.5-10-10-10h-12V94.844C471,64.555,446.445,40,416.156,40
	H94.844C64.555,40,40,64.555,40,94.844v321.313C40,446.445,64.555,471,94.844,471h321.312c30.29,0,54.844-24.555,54.844-54.844V356
	h12c5.5,0,10-4.5,10-10v-56c0-5.5-4.5-10-10-10h-12v-49H483z"/>
<path style="fill:#BFBFBF;" d="M94.844,456C72.874,456,55,438.126,55,416.156V94.844C55,72.874,72.874,55,94.844,55h321.312
	C438.126,55,456,72.874,456,94.844v321.313c0,21.97-17.874,39.844-39.844,39.844L94.844,456L94.844,456z"/>
<path style="fill:#D9D9D9;" d="M94.844,451C75.631,451,60,435.369,60,416.156V94.844C60,75.631,75.631,60,94.844,60h321.312
	C435.369,60,451,75.631,451,94.844v321.313C451,435.369,435.369,451,416.156,451H94.844z"/>
<polygon style="opacity:0.2;fill:#5D5D5D;enable-background:new    ;" points="313.878,451 296,451 266,254 94,254 124,451 
	141.878,451 151.015,511 323.015,511 "/>
<path style="opacity:0.2;fill:#5D5D5D;enable-background:new    ;" d="M468.051,496.396L451,388.818v27.338
	c0,6.928-2.041,13.385-5.541,18.816L393,104h-53l44.856,283H340l10,64h13l9.375,60H431c13.697,0,26.586-3.448,37.857-9.515
	L468.051,496.396z"/>
<path style="fill:#F7F7F7;" d="M0,104h69.334C88.4,104,104,88.666,104,69.6V0L0,104z"/>
<polygon style="opacity:0.2;fill:#5D5D5D;enable-background:new    ;" points="0,159.733 0,104 55.467,104 "/>
<path style="fill:#B8B8B8;" d="M180.139,341.639c-47.497,0-86.139-38.643-86.139-86.141c0-47.496,38.642-86.137,86.139-86.137
	s86.138,38.641,86.138,86.137C266.277,302.996,227.635,341.639,180.139,341.639z"/>
<circle style="fill:#F7F7F7;" cx="180.138" cy="255.498" r="77.656"/>
<path style="fill:#B3B3B3;" d="M179,184c0,0,0,9,0,14c0,1,3,1,3,0c0-5,0-9,0-14C182,183,179,183,179,184C179,184,179,183,179,184z"
	/>
<path style="fill:#B3B3B3;" d="M179,313c0,0,0,9,0,14c0,1,3,1,3,0c0-5,0-9,0-14C182,312,179,312,179,313C179,313,179,312,179,313z"
	/>
<path style="opacity:0.2;fill:#5D5D5D;enable-background:new    ;" d="M235.816,321.149L226,258h-91l11.967,76.987
	c10.216,4.279,21.421,6.651,33.172,6.651C201.354,341.639,220.789,333.914,235.816,321.149z"/>
<path style="fill:#B3B3B3;" d="M252,254c0,0-9,0-14,0c-1,0-1,3,0,3c5,0,9,0,14,0C253,257,253,254,252,254C252,254,253,254,252,254z"
	/>
<path style="fill:#B3B3B3;" d="M123,254c0,0-9,0-14,0c-1,0-1,3,0,3c5,0,9,0,14,0C124,257,124,254,123,254C123,254,124,254,123,254z"
	/>
<path style="fill:#B3B3B3;" d="M229.999,204.22c-3.199,3.198-6.398,6.397-9.597,9.596c-1.162,1.161,0.638,2.96,1.799,1.799
	c3.199-3.198,6.398-6.397,9.597-9.596C232.959,204.857,231.16,203.059,229.999,204.22L229.999,204.22z"/>
<path style="fill:#B3B3B3;" d="M138.833,295.386c-3.199,3.198-6.397,6.396-9.597,9.594c-1.161,1.161,0.638,2.96,1.8,1.799
	c3.198-3.198,6.397-6.396,9.596-9.594C141.793,296.023,139.994,294.225,138.833,295.386L138.833,295.386z"/>
<path style="fill:#B3B3B3;" d="M231.798,304.979c-3.198-3.198-6.397-6.396-9.596-9.594c-1.162-1.161-2.961,0.638-1.8,1.799
	c3.199,3.198,6.397,6.396,9.597,9.594C231.16,307.939,232.959,306.141,231.798,304.979L231.798,304.979z"/>
<path style="fill:#B3B3B3;" d="M140.633,213.815c-3.199-3.198-6.398-6.397-9.597-9.596c-1.162-1.161-2.961,0.638-1.8,1.799
	c3.199,3.198,6.398,6.397,9.597,9.596C139.995,216.775,141.794,214.977,140.633,213.815L140.633,213.815z"/>
<circle style="fill:#F2F2F2;" cx="366.333" cy="104.334" r="26.667"/>
<circle style="fill:#DEDEDE;" cx="366.333" cy="108.334" r="15.667"/>
<circle style="fill:#F2F2F2;" cx="366.333" cy="387.334" r="26.667"/>
<circle style="fill:#DEDEDE;" cx="366.333" cy="383.334" r="15.667"/>
<circle style="opacity:0.2;fill:#5D5D5D;enable-background:new    ;" cx="366.333" cy="387.334" r="26.667"/>
<path style="fill:#F7F7F7;" d="M351,110c0,44.002,0,88.003,0,132.005c0,46.253,0,92.505,0,138.757c0,0.08,0,0.159,0,0.238
	c0,19.346,30,19.346,30,0c0-44.002,0-88.003,0-132.005c0-46.253,0-92.505,0-138.757c0-0.08,0-0.159,0-0.238
	C381,90.654,351,90.654,351,110L351,110z"/>
<path style="fill:#2D3E50;" d="M180.139,305.377c-27.503,0-49.878-22.375-49.878-49.879c0-27.502,22.375-49.877,49.878-49.877
	c27.502,0,49.877,22.375,49.877,49.877C230.016,283.002,207.641,305.377,180.139,305.377z"/>
<circle style="fill:#496582;" cx="180.138" cy="255.498" r="33.417"/>
<polygon style="fill:#496582;" points="189.848,226 171.187,226 175.428,200 185.606,200 "/>
<polygon style="fill:#34475C;" points="171.603,222.852 165.231,207.896 175.428,199.896 "/>
<polygon style="fill:#34475C;" points="189.414,222.852 195.786,207.896 185.588,199.896 "/>
<path style="opacity:0.1;fill:#5D5D5D;enable-background:new    ;" d="M102.482,255.498c0,42.891,34.768,77.658,77.657,77.658
	c42.888,0,77.656-34.768,77.656-77.658c0-0.167-0.012-0.331-0.013-0.498H102.495C102.494,255.167,102.482,255.331,102.482,255.498z"
	/>
<path style="opacity:0.1;fill:#5D5D5D;enable-background:new    ;" d="M351,255c0,41.921,0,83.842,0,125.762c0,0.08,0,0.159,0,0.238
	c0,19.346,30,19.346,30,0c0-42,0-84,0-126H351z"/>
<g>
</g>
<g>
</g>
<g>
</g>
<g>
</g>
<g>
</g>
<g>
</g>
<g>
</g>
<g>
</g>
<g>
</g>
<g>
</g>
<g>
</g>
<g>
</g>
<g>
</g>
<g>
</g>
<g>
</g>
</svg>
