<?xml version="1.0" encoding="iso-8859-1"?>
<!-- Generator: Adobe Illustrator 19.0.0, SVG Export Plug-In . SVG Version: 6.00 Build 0)  -->
<svg version="1.1" id="Layer_1" xmlns="http://www.w3.org/2000/svg" xmlns:xlink="http://www.w3.org/1999/xlink" x="0px" y="0px"
	 viewBox="0 0 511 511" style="enable-background:new 0 0 511 511;" xml:space="preserve">
<path style="fill:#E8E8E8;" d="M511,431c0,44.183-35.942,80-80.125,80h-351C35.692,511,0,475.183,0,431V104L103.875,0h327
	C475.058,0,511,35.817,511,80V431z"/>
<path style="fill:#F4F4F4;" d="M0,104h69.334C88.4,104,104,88.666,104,69.6l-0.125-69.568L0,104z"/>
<polygon style="opacity:0.2;fill:#5D5D5D;enable-background:new    ;" points="0,159.733 0,104 55.467,104 "/>
<path style="fill:#2D3E50;" d="M274.214,127.511c-36.971,9.859-132.718,76.236-132.718,76.236H90.671
	c-7.8,0-14.119,6.323-14.119,14.12v98.832c0,7.797,6.319,14.117,14.119,14.117h50.825c0,0,95.747,66.379,132.718,76.238
	c7.532,2.016,14.116-6.318,14.116-14.115V141.625C288.33,133.828,281.746,125.494,274.214,127.511z"/>
<path style="fill:#F3C40F;" d="M334.459,175.318l-2.001-1.994l-19.951,19.965l1.981,1.994c0.178,0.178,17.619,17.972,26.368,45.672
	c11.634,36.836,2.515,73.035-27.101,107.59l-1.838,2.145l21.438,18.376l1.839-2.147C422.34,265.248,335.345,176.207,334.459,175.318
	z"/>
<path style="fill:#F3C40F;" d="M428.329,219.088c-14.636-46.348-43.555-75.631-44.777-76.857l-1.996-1.994l-19.977,19.939
	l1.982,2.002c4.107,4.135,99.433,102.619-0.714,219.456l-1.838,2.143l21.442,18.378l1.835-2.143
	C445.396,328.718,441.968,262.271,428.329,219.088z"/>
<path style="fill:#D1A20F;" d="M362.848,381.634l-1.838,2.143l21.442,18.378l1.835-2.143
	c41.224-48.096,53.075-93.982,52.238-132.012h-28.09C409.215,301.351,398.238,340.346,362.848,381.634z"/>
<path style="fill:#D1A20F;" d="M313.756,348.545l-1.838,2.145l21.438,18.376l1.839-2.147c30.516-35.603,39.676-69.656,38.66-98.918
	H345.67C346.759,295.495,336.088,322.488,313.756,348.545z"/>
<path style="opacity:0.2;fill:#5D5D5D;enable-background:new    ;" d="M77,268v48.699C77,324.496,82.871,331,90.671,331h50.825
	c0,0,95.582,66.287,132.553,76.146c7.532,2.016,13.951-6.41,13.951-14.207V268H77z"/>
<g>
</g>
<g>
</g>
<g>
</g>
<g>
</g>
<g>
</g>
<g>
</g>
<g>
</g>
<g>
</g>
<g>
</g>
<g>
</g>
<g>
</g>
<g>
</g>
<g>
</g>
<g>
</g>
<g>
</g>
</svg>
