<?xml version="1.0" encoding="iso-8859-1"?>
<!-- Generator: Adobe Illustrator 19.0.0, SVG Export Plug-In . SVG Version: 6.00 Build 0)  -->
<svg version="1.1" id="Layer_1" xmlns="http://www.w3.org/2000/svg" xmlns:xlink="http://www.w3.org/1999/xlink" x="0px" y="0px"
	 viewBox="0 0 511 511" style="enable-background:new 0 0 511 511;" xml:space="preserve">
<path style="fill:#E6E6E6;" d="M511,431c0,44.183-35.817,80-80,80H80c-44.183,0-80-35.817-80-80V104L104,0h327
	c44.183,0,80,35.817,80,80V431z"/>
<path style="fill:#F7F7F7;" d="M0,104h69.334C88.4,104,104,88.666,104,69.6V0L0,104z"/>
<polygon style="opacity:0.2;fill:#5D5D5D;enable-background:new    ;" points="0,159.733 0,104 55.467,104 "/>
<path style="fill:#F7B90F;" d="M448.814,421.752c7.357,7.357,7.357,19.397,0,26.756l-13.379,13.377
	c-7.357,7.359-19.396,7.359-26.756,0l-89.633-89.631c-7.357-7.359-7.357-19.398,0-26.757l13.379-13.378
	c7.357-7.358,19.398-7.358,26.756,0L448.814,421.752z"/>
<polygon style="opacity:0.2;fill:#5D5D5D;enable-background:new    ;" points="420.053,392.989 315.703,368.908 355.838,328.775 "/>
<path style="fill:#2D3E50;" d="M105.025,118.045c-64.479,64.477-64.479,169.016,0,233.494s169.018,64.479,233.496,0
	s64.479-169.018,0-233.496C274.043,53.566,169.504,53.566,105.025,118.045z M363.23,234.791c0,37.785-14.713,73.309-41.432,100.026
	c-26.717,26.718-62.24,41.432-100.025,41.432s-73.307-14.714-100.025-41.433c-26.719-26.717-41.432-62.24-41.432-100.025
	c0-37.783,14.713-73.307,41.432-100.024s62.24-41.431,100.025-41.431c37.783,0,73.309,14.713,100.025,41.431
	C348.518,161.484,363.23,197.008,363.23,234.791z"/>
<path style="fill:#FFFFFF;" d="M321.799,134.767c-26.717-26.718-62.242-41.431-100.025-41.431
	c-37.785,0-73.307,14.713-100.025,41.431s-41.432,62.241-41.432,100.024c0,37.785,14.713,73.309,41.432,100.025
	c26.719,26.719,62.24,41.433,100.025,41.433s73.309-14.714,100.025-41.432c26.719-26.718,41.432-62.241,41.432-100.026
	C363.23,197.008,348.518,161.484,321.799,134.767z"/>
<path style="fill:#E24C3F;" d="M292.721,209c-14.978,0-44.971,0-44.971,0h-52.028c0,0-26.675,0-40.031,0c-1.621,0-3.244,0-4.864,0
	c-14.182,0-26.015,11.818-26.015,26s11.833,26,26.014,26c14.979,0,44.896,0,44.896,0h52.028c0,0,26.749,0,40.105,0
	c1.622,0,3.243,0,4.866,0c14.18,0,26.015-11.818,26.015-26C318.735,220.82,306.902,209,292.721,209z"/>
<path style="opacity:0.1;fill:#5D5D5D;enable-background:new    ;" d="M338.521,118.043
	c-64.479-64.477-169.018-64.477-233.496,0.002c-3.826,3.826-7.418,7.798-10.79,11.89l16.812,16.812L309.819,345.52l16.812,16.811
	c4.092-3.373,8.064-6.965,11.891-10.791C403,287.061,403,182.521,338.521,118.043z"/>
<g>
</g>
<g>
</g>
<g>
</g>
<g>
</g>
<g>
</g>
<g>
</g>
<g>
</g>
<g>
</g>
<g>
</g>
<g>
</g>
<g>
</g>
<g>
</g>
<g>
</g>
<g>
</g>
<g>
</g>
</svg>
