<?xml version="1.0" encoding="utf-8"?>
<!-- Generator: Adobe Illustrator 18.0.0, SVG Export Plug-In . SVG Version: 6.00 Build 0)  -->
<!DOCTYPE svg PUBLIC "-//W3C//DTD SVG 1.1//EN" "http://www.w3.org/Graphics/SVG/1.1/DTD/svg11.dtd">
<svg xmlns="http://www.w3.org/2000/svg" xmlns:xlink="http://www.w3.org/1999/xlink" version="1.1" id="Layer_2" x="0px" y="0px" viewBox="0 0 64 64" style="enable-background:new 0 0 64 64;" xml:space="preserve" width="512" height="512">
<style type="text/css">
	.st0{fill:#EDEFF1;}
	.st1{fill:#D3D3D3;}
	.st2{fill:#98CA69;}
	.st3{fill:#80D6FB;}
	.st4{fill:#FFB0AA;}
	.st5{fill:#FFE352;}
	.st6{fill:#6E83B7;}
	.st7{fill:#466089;}
	.st8{fill:#FFD3B3;}
	.st9{fill:#FCB98B;}
	.st10{fill:#FFB236;}
	.st11{fill:#46BEE8;}
	.st12{fill:#E0E2FF;}
	.st13{fill:#8FA5D1;}
	.st14{fill:#75AA40;}
</style>
<g>
	<g>
		<polygon class="st6" points="32,8 2,8 2,59 32,59 62,59 62,8   "/>
	</g>
	<g>
		<path class="st0" d="M4,54h22c1.298,0,2.561,0.421,3.6,1.2L32,57V8l-2.4-1.8C28.561,5.421,27.298,5,26,5H4V54z"/>
	</g>
	<g>
		<path class="st1" d="M32,57l-2.4-1.8C28.561,54.421,27.298,54,26,54H4v3H32z"/>
	</g>
	<g>
		<path class="st1" d="M32,57l2.4-1.8c1.039-0.779,2.302-1.2,3.6-1.2h22v3H32z"/>
	</g>
	<g>
		<path class="st0" d="M60,54H38c-1.298,0-2.561,0.421-3.6,1.2L32,57V8l2.4-1.8C35.439,5.421,36.702,5,38,5h22V54z"/>
	</g>
	<g>
		<rect x="7" y="33" class="st1" width="22" height="2"/>
	</g>
	<g>
		<rect x="7" y="39" class="st1" width="22" height="2"/>
	</g>
	<g>
		<rect x="7" y="45" class="st1" width="12" height="2"/>
	</g>
	<g>
		<rect x="35" y="13" class="st1" width="22" height="2"/>
	</g>
	<g>
		<rect x="35" y="19" class="st1" width="22" height="2"/>
	</g>
	<g>
		<rect x="35" y="25" class="st1" width="12" height="2"/>
	</g>
	<g>
		<g>
			<circle class="st5" cx="18" cy="20" r="8"/>
		</g>
		<path class="st6" d="M19,19h-2c-0.551,0-1-0.449-1-1s0.449-1,1-1h2c0.551,0,1,0.449,1,1h2c0-1.654-1.346-3-3-3v-1h-2v1    c-1.654,0-3,1.346-3,3s1.346,3,3,3h2c0.551,0,1,0.449,1,1s-0.449,1-1,1h-2c-0.551,0-1-0.449-1-1h-2c0,1.654,1.346,3,3,3v1h2v-1    c1.654,0,3-1.346,3-3S20.654,19,19,19z"/>
	</g>
	<g>
		<path class="st5" d="M46,34v7h7C53,37.134,49.866,34,46,34z"/>
	</g>
	<g>
		<path class="st3" d="M46,41v-7c-3.866,0-7,3.134-7,7c0,3.866,3.134,7,7,7c1.933,0,3.683-0.784,4.95-2.05L46,41z"/>
	</g>
	<g>
		<path class="st4" d="M46,41l4.95,4.95C52.216,44.683,53,42.933,53,41H46z"/>
	</g>
</g>
</svg>
