<?xml version="1.0" encoding="utf-8"?>
<!-- Generator: Adobe Illustrator 18.0.0, SVG Export Plug-In . SVG Version: 6.00 Build 0)  -->
<!DOCTYPE svg PUBLIC "-//W3C//DTD SVG 1.1//EN" "http://www.w3.org/Graphics/SVG/1.1/DTD/svg11.dtd">
<svg xmlns="http://www.w3.org/2000/svg" xmlns:xlink="http://www.w3.org/1999/xlink" version="1.1" id="Layer_2" x="0px" y="0px" viewBox="0 0 64 64" style="enable-background:new 0 0 64 64;" xml:space="preserve" width="512" height="512">
<style type="text/css">
	.st0{fill:#EDEFF1;}
	.st1{fill:#D3D3D3;}
	.st2{fill:#98CA69;}
	.st3{fill:#80D6FB;}
	.st4{fill:#FFB0AA;}
	.st5{fill:#FFE352;}
	.st6{fill:#6E83B7;}
	.st7{fill:#466089;}
	.st8{fill:#FFD3B3;}
	.st9{fill:#FCB98B;}
	.st10{fill:#FFB236;}
	.st11{fill:#46BEE8;}
	.st12{fill:#E0E2FF;}
	.st13{fill:#8FA5D1;}
	.st14{fill:#75AA40;}
</style>
<g>
	<g>
		<path class="st1" d="M53,62c-3.314,0-6-2.686-6-6H5c0,3.314,2.686,6,6,6H53z"/>
	</g>
	<g>
		<path class="st0" d="M13,2v54h34c0,3.314,2.686,6,6,6s6-2.686,6-6V2H13z"/>
	</g>
	<g>
		<rect x="35" y="6" class="st1" width="2" height="28"/>
	</g>
	<g>
		<g>
			<rect x="19" y="39" class="st1" width="34" height="2"/>
		</g>
		<g>
			<rect x="19" y="45" class="st1" width="34" height="2"/>
		</g>
		<g>
			<rect x="19" y="51" class="st1" width="17" height="2"/>
		</g>
	</g>
	<g>
		<rect x="39" y="6" class="st4" width="18" height="4"/>
	</g>
	<g>
		<rect x="39" y="14" class="st4" width="13" height="4"/>
	</g>
	<g>
		<rect x="39" y="30" class="st4" width="11" height="4"/>
	</g>
	<g>
		<rect x="39" y="22" class="st4" width="6" height="4"/>
	</g>
	<g>
		<rect x="15" y="6" class="st2" width="18" height="4"/>
	</g>
	<g>
		<rect x="20" y="14" class="st2" width="13" height="4"/>
	</g>
	<g>
		<rect x="22" y="30" class="st2" width="11" height="4"/>
	</g>
	<g>
		<rect x="27" y="22" class="st2" width="6" height="4"/>
	</g>
</g>
</svg>
