<?xml version="1.0" encoding="utf-8"?>
<!-- Generator: Adobe Illustrator 18.0.0, SVG Export Plug-In . SVG Version: 6.00 Build 0)  -->
<!DOCTYPE svg PUBLIC "-//W3C//DTD SVG 1.1//EN" "http://www.w3.org/Graphics/SVG/1.1/DTD/svg11.dtd">
<svg xmlns="http://www.w3.org/2000/svg" xmlns:xlink="http://www.w3.org/1999/xlink" version="1.1" id="Layer_2" x="0px" y="0px" viewBox="0 0 64 64" style="enable-background:new 0 0 64 64;" xml:space="preserve" width="512" height="512">
<style type="text/css">
	.st0{fill:#EDEFF1;}
	.st1{fill:#D3D3D3;}
	.st2{fill:#98CA69;}
	.st3{fill:#80D6FB;}
	.st4{fill:#FFB0AA;}
	.st5{fill:#FFE352;}
	.st6{fill:#6E83B7;}
	.st7{fill:#466089;}
	.st8{fill:#FFD3B3;}
	.st9{fill:#FCB98B;}
	.st10{fill:#FFB236;}
	.st11{fill:#46BEE8;}
	.st12{fill:#E0E2FF;}
	.st13{fill:#8FA5D1;}
	.st14{fill:#75AA40;}
</style>
<g>
	<g>
		<rect x="2" y="2" class="st0" width="30" height="43"/>
	</g>
	<g>
		<path class="st6" d="M60,62H32c-1.105,0-2-0.895-2-2V18c0-1.105,0.895-2,2-2h28c1.105,0,2,0.895,2,2v42C62,61.105,61.105,62,60,62    z"/>
	</g>
	<g>
		<rect x="32" y="20" class="st3" width="28" height="6"/>
	</g>
	<g>
		<path class="st7" d="M39,40h-6c-0.552,0-1-0.448-1-1v-6c0-0.552,0.448-1,1-1h6c0.552,0,1,0.448,1,1v6C40,39.552,39.552,40,39,40z"/>
	</g>
	<g>
		<path class="st7" d="M49,40h-6c-0.552,0-1-0.448-1-1v-6c0-0.552,0.448-1,1-1h6c0.552,0,1,0.448,1,1v6C50,39.552,49.552,40,49,40z"/>
	</g>
	<g>
		<path class="st7" d="M59,40h-6c-0.552,0-1-0.448-1-1v-6c0-0.552,0.448-1,1-1h6c0.552,0,1,0.448,1,1v6C60,39.552,59.552,40,59,40z"/>
	</g>
	<g>
		<path class="st7" d="M39,50h-6c-0.552,0-1-0.448-1-1v-6c0-0.552,0.448-1,1-1h6c0.552,0,1,0.448,1,1v6C40,49.552,39.552,50,39,50z"/>
	</g>
	<g>
		<path class="st7" d="M49,50h-6c-0.552,0-1-0.448-1-1v-6c0-0.552,0.448-1,1-1h6c0.552,0,1,0.448,1,1v6C50,49.552,49.552,50,49,50z"/>
	</g>
	<g>
		<path class="st5" d="M59,60h-6c-0.552,0-1-0.448-1-1V43c0-0.552,0.448-1,1-1h6c0.552,0,1,0.448,1,1v16C60,59.552,59.552,60,59,60z    "/>
	</g>
	<g>
		<path class="st7" d="M39,60h-6c-0.552,0-1-0.448-1-1v-6c0-0.552,0.448-1,1-1h6c0.552,0,1,0.448,1,1v6C40,59.552,39.552,60,39,60z"/>
	</g>
	<g>
		<path class="st7" d="M49,60h-6c-0.552,0-1-0.448-1-1v-6c0-0.552,0.448-1,1-1h6c0.552,0,1,0.448,1,1v6C50,59.552,49.552,60,49,60z"/>
	</g>
	<g>
		<g>
			<g>
				<circle class="st5" cx="14.171" cy="13.929" r="8.172"/>
			</g>
			<path class="st6" d="M15.114,12.929h-1.886c-0.662,0-1.2-0.538-1.2-1.2s0.539-1.2,1.2-1.2H14.8c0.835,0,1.515,0.68,1.515,1.515h2     c0-1.81-1.382-3.288-3.143-3.477V7.643h-2v0.892c-1.738,0.031-3.143,1.449-3.143,3.194c0,1.765,1.436,3.2,3.2,3.2h1.886     c0.662,0,1.2,0.538,1.2,1.2c0,0.661-0.539,1.199-1.2,1.199h-1.571c-0.835,0-1.515-0.679-1.515-1.514h-2     c0,1.81,1.382,3.288,3.143,3.476v0.923h2v-0.892c1.738-0.031,3.143-1.449,3.143-3.193C18.314,14.364,16.879,12.929,15.114,12.929     z"/>
		</g>
		<g>
			<g>
				<circle class="st6" cx="22.972" cy="20.214" r="5.029"/>
			</g>
			<g>
				<circle class="st0" cx="24.543" cy="22.414" r="0.943"/>
			</g>
			<g>
				<circle class="st0" cx="21.4" cy="18.014" r="0.943"/>
			</g>
			<g>
				
					<rect x="22.471" y="16.659" transform="matrix(0.7071 0.7071 -0.7071 0.7071 21.0219 -10.3226)" class="st0" width="1" height="7.111"/>
			</g>
		</g>
	</g>
	<g>
		<rect x="6" y="28" class="st1" width="22" height="2"/>
	</g>
	<g>
		<rect x="6" y="33" class="st1" width="22" height="2"/>
	</g>
	<g>
		<rect x="6" y="38" class="st1" width="22" height="2"/>
	</g>
</g>
</svg>
