<?xml version="1.0" encoding="utf-8"?>
<!-- Generator: Adobe Illustrator 18.0.0, SVG Export Plug-In . SVG Version: 6.00 Build 0)  -->
<!DOCTYPE svg PUBLIC "-//W3C//DTD SVG 1.1//EN" "http://www.w3.org/Graphics/SVG/1.1/DTD/svg11.dtd">
<svg xmlns="http://www.w3.org/2000/svg" xmlns:xlink="http://www.w3.org/1999/xlink" version="1.1" id="Layer_2" x="0px" y="0px" viewBox="0 0 64 64" style="enable-background:new 0 0 64 64;" xml:space="preserve" width="512" height="512">
<style type="text/css">
	.st0{fill:#EDEFF1;}
	.st1{fill:#D3D3D3;}
	.st2{fill:#98CA69;}
	.st3{fill:#80D6FB;}
	.st4{fill:#FFB0AA;}
	.st5{fill:#FFE352;}
	.st6{fill:#6E83B7;}
	.st7{fill:#466089;}
	.st8{fill:#FFD3B3;}
	.st9{fill:#FCB98B;}
	.st10{fill:#FFB236;}
	.st11{fill:#46BEE8;}
	.st12{fill:#E0E2FF;}
	.st13{fill:#8FA5D1;}
	.st14{fill:#75AA40;}
</style>
<g>
	<g>
		<path class="st3" d="M50,35c-1.96,0-3.804,0.479-5.438,1.312L38,35l1.312,6.562C38.479,43.196,38,45.04,38,47    c0,6.627,5.373,12,12,12s12-5.373,12-12C62,40.373,56.627,35,50,35z"/>
	</g>
	<g>
		<path class="st6" d="M46.5,46c-1.93,0-3.5-1.57-3.5-3.5s1.57-3.5,3.5-3.5s3.5,1.57,3.5,3.5S48.43,46,46.5,46z M46.5,41    c-0.827,0-1.5,0.673-1.5,1.5s0.673,1.5,1.5,1.5s1.5-0.673,1.5-1.5S47.327,41,46.5,41z"/>
	</g>
	<g>
		<path class="st6" d="M53.5,55c-1.93,0-3.5-1.57-3.5-3.5s1.57-3.5,3.5-3.5s3.5,1.57,3.5,3.5S55.43,55,53.5,55z M53.5,50    c-0.827,0-1.5,0.673-1.5,1.5s0.673,1.5,1.5,1.5s1.5-0.673,1.5-1.5S54.327,50,53.5,50z"/>
	</g>
	<g>
		
			<rect x="49" y="37.808" transform="matrix(0.7071 0.7071 -0.7071 0.7071 47.8787 -21.5894)" class="st6" width="2" height="18.385"/>
	</g>
	<g>
		<path class="st4" d="M14,35c1.96,0,3.804,0.479,5.438,1.312L26,35l-1.312,6.562C25.521,43.196,26,45.04,26,47    c0,6.627-5.373,12-12,12S2,53.627,2,47C2,40.373,7.373,35,14,35z"/>
	</g>
	<g>
		<path class="st6" d="M10.5,46C8.57,46,7,44.43,7,42.5S8.57,39,10.5,39s3.5,1.57,3.5,3.5S12.43,46,10.5,46z M10.5,41    C9.673,41,9,41.673,9,42.5S9.673,44,10.5,44s1.5-0.673,1.5-1.5S11.327,41,10.5,41z"/>
	</g>
	<g>
		<path class="st6" d="M17.5,55c-1.93,0-3.5-1.57-3.5-3.5s1.57-3.5,3.5-3.5s3.5,1.57,3.5,3.5S19.43,55,17.5,55z M17.5,50    c-0.827,0-1.5,0.673-1.5,1.5s0.673,1.5,1.5,1.5s1.5-0.673,1.5-1.5S18.327,50,17.5,50z"/>
	</g>
	<g>
		
			<rect x="13" y="37.808" transform="matrix(0.7071 0.7071 -0.7071 0.7071 37.3345 3.8665)" class="st6" width="2" height="18.385"/>
	</g>
	<g>
		<g>
			<circle class="st5" cx="32" cy="19" r="14"/>
		</g>
		<g>
			<path class="st10" d="M32,31c-6.617,0-12-5.383-12-12S25.383,7,32,7s12,5.383,12,12S38.617,31,32,31z M32,9     c-5.514,0-10,4.486-10,10s4.486,10,10,10s10-4.486,10-10S37.514,9,32,9z"/>
		</g>
		<path class="st6" d="M33.5,18h-3c-0.827,0-1.5-0.673-1.5-1.5s0.673-1.5,1.5-1.5H33c1.103,0,2,0.897,2,2h2c0-2.206-1.794-4-4-4v-2    h-2v2h-0.5c-1.93,0-3.5,1.57-3.5,3.5s1.57,3.5,3.5,3.5h3c0.827,0,1.5,0.673,1.5,1.5S34.327,23,33.5,23H30c-0.551,0-1-0.449-1-1h-2    c0,1.654,1.346,3,3,3h1v2h2v-2h0.5c1.93,0,3.5-1.57,3.5-3.5S35.43,18,33.5,18z"/>
	</g>
</g>
</svg>
