<?xml version="1.0" encoding="utf-8"?>
<!-- Generator: Adobe Illustrator 18.0.0, SVG Export Plug-In . SVG Version: 6.00 Build 0)  -->
<!DOCTYPE svg PUBLIC "-//W3C//DTD SVG 1.1//EN" "http://www.w3.org/Graphics/SVG/1.1/DTD/svg11.dtd">
<svg xmlns="http://www.w3.org/2000/svg" xmlns:xlink="http://www.w3.org/1999/xlink" version="1.1" id="Layer_2" x="0px" y="0px" viewBox="0 0 64 64" style="enable-background:new 0 0 64 64;" xml:space="preserve" width="512" height="512">
<style type="text/css">
	.st0{fill:#EDEFF1;}
	.st1{fill:#D3D3D3;}
	.st2{fill:#98CA69;}
	.st3{fill:#80D6FB;}
	.st4{fill:#FFB0AA;}
	.st5{fill:#FFE352;}
	.st6{fill:#6E83B7;}
	.st7{fill:#466089;}
	.st8{fill:#FFD3B3;}
	.st9{fill:#FCB98B;}
	.st10{fill:#FFB236;}
	.st11{fill:#46BEE8;}
	.st12{fill:#E0E2FF;}
	.st13{fill:#8FA5D1;}
	.st14{fill:#75AA40;}
</style>
<g>
	<g>
		<path class="st1" d="M53,62c-3.314,0-6-2.686-6-6H5c0,3.314,2.686,6,6,6H53z"/>
	</g>
	<g>
		<path class="st0" d="M13,2v54h34c0,3.314,2.686,6,6,6s6-2.686,6-6V2H13z"/>
	</g>
	<g>
		<g>
			<circle class="st5" cx="36" cy="13" r="8"/>
		</g>
		<path class="st6" d="M37,12h-2c-0.552,0-1-0.449-1-1s0.448-1,1-1h2c0.552,0,1,0.449,1,1h2c0-1.654-1.346-3-3-3V7h-2v1    c-1.654,0-3,1.346-3,3s1.346,3,3,3h2c0.552,0,1,0.449,1,1s-0.448,1-1,1h-2c-0.552,0-1-0.449-1-1h-2c0,1.654,1.346,3,3,3v1h2v-1    c1.654,0,3-1.346,3-3S38.654,12,37,12z"/>
	</g>
	<g>
		<polygon class="st2" points="25,32 25,20 29,20 22,10 15,20 19,20 19,32   "/>
	</g>
	<g>
		<polygon class="st4" points="47,10 47,22 43,22 50,32 57,22 53,22 53,10   "/>
	</g>
	<g>
		<rect x="19" y="36" class="st1" width="34" height="2"/>
	</g>
	<g>
		<rect x="19" y="42" class="st1" width="34" height="2"/>
	</g>
	<g>
		<rect x="19" y="48" class="st1" width="17" height="2"/>
	</g>
</g>
</svg>
