<?xml version="1.0" encoding="utf-8"?>
<!-- Generator: Adobe Illustrator 18.0.0, SVG Export Plug-In . SVG Version: 6.00 Build 0)  -->
<!DOCTYPE svg PUBLIC "-//W3C//DTD SVG 1.1//EN" "http://www.w3.org/Graphics/SVG/1.1/DTD/svg11.dtd">
<svg xmlns="http://www.w3.org/2000/svg" xmlns:xlink="http://www.w3.org/1999/xlink" version="1.1" id="Layer_2" x="0px" y="0px" viewBox="0 0 64 64" style="enable-background:new 0 0 64 64;" xml:space="preserve" width="512" height="512">
<style type="text/css">
	.st0{fill:#EDEFF1;}
	.st1{fill:#D3D3D3;}
	.st2{fill:#98CA69;}
	.st3{fill:#80D6FB;}
	.st4{fill:#FFB0AA;}
	.st5{fill:#FFE352;}
	.st6{fill:#6E83B7;}
	.st7{fill:#466089;}
	.st8{fill:#FFD3B3;}
	.st9{fill:#FCB98B;}
	.st10{fill:#FFB236;}
	.st11{fill:#46BEE8;}
	.st12{fill:#E0E2FF;}
	.st13{fill:#8FA5D1;}
	.st14{fill:#75AA40;}
</style>
<g>
	<g>
		<g>
			<g>
				<path class="st0" d="M9,58V5c0-1.657,1.343-3,3-3h40c-1.657,0-3,1.343-3,3v53H9z"/>
			</g>
			<g>
				<path class="st1" d="M49,5c0-1.657,1.343-3,3-3s3,1.343,3,3H49z"/>
			</g>
		</g>
		<g>
			<rect x="23" y="11" class="st1" width="12" height="2"/>
		</g>
		<g>
			<rect x="13" y="17" class="st1" width="32" height="2"/>
		</g>
		<g>
			<rect x="13" y="23" class="st1" width="32" height="2"/>
		</g>
		<g>
			<polygon class="st1" points="17.873,35.287 15.873,33.287 13.555,34.832 12.445,33.168 16.127,30.713 18.127,32.713      20.445,31.168 21.555,32.832    "/>
		</g>
		<g>
			<polygon class="st1" points="41.873,35.287 39.873,33.287 37.555,34.832 36.445,33.168 40.127,30.713 42.127,32.713      44.445,31.168 45.555,32.832    "/>
		</g>
	</g>
	<g>
		<g>
			<path class="st6" d="M16.184,43.429c0,0,3.87-3.942,2.122-5.306c-1.21-0.945-2.44,0.566-3.184-0.531C14.003,35.942,13,36,13,36     s-1.003-0.058-2.122,1.592c-0.744,1.096-1.973-0.415-3.184,0.531c-1.747,1.364,2.122,5.306,2.122,5.306H16.184z"/>
		</g>
		<path class="st7" d="M16.823,42.051c-0.62-0.28-1.342-0.46-2.012-0.574c0.36-0.386,0.662-0.925,0.803-1.669l-0.982-0.188    c-0.25,1.312-1.079,1.617-1.444,1.69c-0.064-0.002-0.133-0.004-0.187-0.004c-0.05,0-0.115,0.003-0.173,0.004    c-0.381-0.073-1.208-0.379-1.458-1.689l-0.982,0.188c0.142,0.744,0.444,1.283,0.804,1.669c-0.67,0.114-1.393,0.294-2.013,0.574    c-0.132,0.06-0.253,0.138-0.361,0.227c0.535,0.676,1,1.15,1,1.15h6.367c0,0,0.465-0.474,1-1.15    C17.075,42.189,16.955,42.111,16.823,42.051z"/>
		<g>
			<path class="st5" d="M13,44.49h4.245l0-0.978c0-0.424-0.254-0.802-0.641-0.977c-1.234-0.557-2.935-0.698-3.604-0.698     s-2.37,0.141-3.604,0.698c-0.387,0.175-0.641,0.552-0.641,0.977v0.978H13z"/>
		</g>
		<g>
			<path class="st6" d="M13,43h1c4.418,0,8,3.582,8,8v5.122c0,0.562,0.223,1.101,0.621,1.499l0.758,0.758     C23.777,58.777,24,59.316,24,59.878v0.002c0,1.171-0.949,2.12-2.12,2.12h-9.268H4.12C2.949,62,2,61.051,2,59.88v-0.002     c0-0.562,0.223-1.101,0.621-1.499l0.758-0.758C3.777,57.223,4,56.684,4,56.122V51c0-4.418,3.582-8,8-8H13z"/>
		</g>
		<g>
			<circle class="st5" cx="13" cy="51.918" r="4"/>
		</g>
		<path class="st6" d="M13.531,51.418h-1.062c-0.31,0-0.561-0.251-0.561-0.561s0.251-0.562,0.561-0.562h1.062    c0.31,0,0.561,0.252,0.561,0.562h1c0-0.861-0.7-1.562-1.561-1.562H13.5v-0.562h-1v0.562h-0.031c-0.861,0-1.561,0.7-1.561,1.562    c0,0.86,0.7,1.561,1.561,1.561h1.062c0.31,0,0.561,0.252,0.561,0.562s-0.251,0.562-0.561,0.562h-1.062    c-0.31,0-0.561-0.252-0.561-0.562h-1c0,0.861,0.7,1.562,1.561,1.562H12.5v0.561h1v-0.561h0.031c0.861,0,1.561-0.7,1.561-1.562    S14.392,51.418,13.531,51.418z"/>
	</g>
	<g>
		<g>
			<path class="st3" d="M49.691,57.92L44.467,62l-1.379-6.484c-0.125-0.587-0.082-1.196,0.123-1.76l9.807-26.945l7.516,2.736     l-9.807,26.945C50.523,57.056,50.163,57.55,49.691,57.92z"/>
		</g>
		<g>
			<path class="st11" d="M53.151,40.479L53.151,40.479c-0.83-0.302-1.258-1.22-0.956-2.05l3.283-9.02l3.007,1.094l-3.283,9.02     C54.9,40.353,53.982,40.781,53.151,40.479z"/>
		</g>
		<g>
			<path class="st5" d="M60.535,29.547l-7.516-2.736l1.368-3.758c0.302-0.83,1.22-1.258,2.05-0.956l4.51,1.641     c0.83,0.302,1.258,1.22,0.956,2.05L60.535,29.547z"/>
		</g>
		<g>
			<path class="st5" d="M59.167,33.305l-7.516-2.736c-0.415-0.151-0.629-0.61-0.478-1.025l0.547-1.503     c0.151-0.415,0.61-0.629,1.025-0.478l7.516,2.736c0.415,0.151,0.629,0.61,0.478,1.025l-0.547,1.503     C60.041,33.242,59.582,33.456,59.167,33.305z"/>
		</g>
		<g>
			<g>
				
					<rect x="51.443" y="30.952" transform="matrix(0.9397 0.342 -0.342 0.9397 13.8978 -16.114)" class="st11" width="2.4" height="0.8"/>
			</g>
		</g>
		<g>
			<g>
				
					<rect x="56.704" y="32.867" transform="matrix(0.9397 0.342 -0.342 0.9397 14.8701 -17.7981)" class="st11" width="2.4" height="0.8"/>
			</g>
		</g>
		<g>
			<path class="st5" d="M52.4,40.206L52.4,40.206c-0.83-0.302-1.258-1.22-0.956-2.05l3.283-9.02l3.007,1.094l-3.283,9.02     C54.148,40.08,53.23,40.508,52.4,40.206z"/>
		</g>
		<g>
			<polygon class="st6" points="43.683,58.313 44.467,62 47.44,59.678    "/>
		</g>
		<g>
			
				<rect x="53.051" y="26.628" transform="matrix(0.9397 0.342 -0.342 0.9397 12.8213 -17.8583)" class="st10" width="7.999" height="1.6"/>
		</g>
	</g>
</g>
</svg>
