<?xml version="1.0" encoding="utf-8"?>
<!-- Generator: Adobe Illustrator 18.0.0, SVG Export Plug-In . SVG Version: 6.00 Build 0)  -->
<!DOCTYPE svg PUBLIC "-//W3C//DTD SVG 1.1//EN" "http://www.w3.org/Graphics/SVG/1.1/DTD/svg11.dtd">
<svg xmlns="http://www.w3.org/2000/svg" xmlns:xlink="http://www.w3.org/1999/xlink" version="1.1" id="Layer_2" x="0px" y="0px" viewBox="0 0 64 64" style="enable-background:new 0 0 64 64;" xml:space="preserve" width="512" height="512">
<style type="text/css">
	.st0{fill:#EDEFF1;}
	.st1{fill:#D3D3D3;}
	.st2{fill:#98CA69;}
	.st3{fill:#80D6FB;}
	.st4{fill:#FFB0AA;}
	.st5{fill:#FFE352;}
	.st6{fill:#6E83B7;}
	.st7{fill:#466089;}
	.st8{fill:#FFD3B3;}
	.st9{fill:#FCB98B;}
	.st10{fill:#FFB236;}
	.st11{fill:#46BEE8;}
	.st12{fill:#E0E2FF;}
	.st13{fill:#8FA5D1;}
	.st14{fill:#75AA40;}
</style>
<g>
	<g>
		<g>
			<path class="st6" d="M35,16c0,0,7.293-7.429,4-10c-2.281-1.781-4.599,1.066-6-1c-2.109-3.109-4-3-4-3s-1.891-0.109-4,3     c-1.401,2.066-3.719-0.781-6,1c-3.293,2.571,4,10,4,10H35z"/>
		</g>
		<path class="st7" d="M36.204,13.404c-1.341-0.605-2.933-0.962-4.339-1.167c0.704-0.653,1.34-1.637,1.627-3.143l-0.982-0.188    c-0.348,1.826-1.271,2.72-2.082,3.162C29.857,12.021,29.364,12,29,12c-0.361,0-0.848,0.02-1.412,0.067    c-0.818-0.443-1.75-1.337-2.097-3.16l-0.982,0.188c0.287,1.506,0.923,2.49,1.627,3.143c-1.407,0.205-2.999,0.562-4.34,1.167    c-0.25,0.113-0.476,0.259-0.681,0.428C22.123,15.107,23,16,23,16h12c0,0,0.877-0.894,1.885-2.168    C36.68,13.664,36.454,13.517,36.204,13.404z"/>
		<g>
			<path class="st5" d="M29,18h8v-1.843c0-0.8-0.479-1.512-1.208-1.841C33.466,13.266,30.261,13,29,13s-4.466,0.265-6.792,1.315     C21.479,14.645,21,15.357,21,16.157L21,18H29z"/>
		</g>
		<g>
			<path class="st6" d="M29,15h1c8.837,0,16,7.163,16,16v9.343c0,1.061,0.421,2.078,1.172,2.828l0.657,0.657     c0.75,0.75,1.172,1.768,1.172,2.828V47c0,2.209-1.791,4-4,4H29H13c-2.209,0-4-1.791-4-4v-0.343c0-1.061,0.421-2.078,1.172-2.828     l0.657-0.657c0.75-0.75,1.172-1.768,1.172-2.828V31c0-8.837,7.163-16,16-16H29z"/>
		</g>
		<g>
			<circle class="st5" cx="29" cy="32" r="8"/>
		</g>
		<path class="st6" d="M30,31h-2c-0.551,0-1-0.449-1-1s0.449-1,1-1h2c0.551,0,1,0.449,1,1h2c0-1.654-1.346-3-3-3v-1h-2v1    c-1.654,0-3,1.346-3,3s1.346,3,3,3h2c0.551,0,1,0.449,1,1s-0.449,1-1,1h-2c-0.551,0-1-0.449-1-1h-2c0,1.654,1.346,3,3,3v1h2v-1    c1.654,0,3-1.346,3-3S31.654,31,30,31z"/>
	</g>
	<g>
		<g>
			<rect x="51" y="44" class="st0" width="3" height="17"/>
		</g>
		<g>
			<rect x="54" y="43" class="st3" width="8" height="19"/>
		</g>
		<g>
			<path class="st8" d="M49,45c-1.438-2.821-5.448-4-8-4s-6.031,1.094-8,4h-9c-1.657,0-3,1.343-3,3s1.343,3,3,3h-3L8.497,43.57     c-1.831-1.099-4.202-0.565-5.386,1.211l-0.775,1.162c-0.613,0.919-0.364,2.161,0.555,2.774l16.102,10.611     C19.649,59.766,20.416,60,21.206,60c3.421,0,12.931,0,12.794,0h17V45H49z"/>
		</g>
		<g>
			<path class="st9" d="M21.779,50c0.549,0.61,1.336,1,2.221,1h10l0-1H21.779z"/>
		</g>
		<g>
			<rect x="53" y="44" class="st1" width="1" height="17"/>
		</g>
	</g>
	<g>
		<polygon class="st2" points="57,28 57,16 62,16 53,4 44,16 49,16 49,28   "/>
	</g>
</g>
</svg>
