<?xml version="1.0" encoding="utf-8"?>
<!-- Generator: Adobe Illustrator 18.0.0, SVG Export Plug-In . SVG Version: 6.00 Build 0)  -->
<!DOCTYPE svg PUBLIC "-//W3C//DTD SVG 1.1//EN" "http://www.w3.org/Graphics/SVG/1.1/DTD/svg11.dtd">
<svg xmlns="http://www.w3.org/2000/svg" xmlns:xlink="http://www.w3.org/1999/xlink" version="1.1" id="Layer_2" x="0px" y="0px" viewBox="0 0 64 64" style="enable-background:new 0 0 64 64;" xml:space="preserve" width="512" height="512">
<style type="text/css">
	.st0{fill:#EDEFF1;}
	.st1{fill:#D3D3D3;}
	.st2{fill:#98CA69;}
	.st3{fill:#80D6FB;}
	.st4{fill:#FFB0AA;}
	.st5{fill:#FFE352;}
	.st6{fill:#6E83B7;}
	.st7{fill:#466089;}
	.st8{fill:#FFD3B3;}
	.st9{fill:#FCB98B;}
	.st10{fill:#FFB236;}
	.st11{fill:#46BEE8;}
	.st12{fill:#E0E2FF;}
	.st13{fill:#8FA5D1;}
	.st14{fill:#75AA40;}
</style>
<g>
	<g>
		<path class="st5" d="M62,51.75v-0.952c0-0.687-0.177-1.362-0.514-1.961L36.147,3.789c-0.708-1.26-2.041-2.039-3.486-2.039H32    h-0.661c-1.445,0-2.778,0.779-3.486,2.039L2.514,48.837C2.177,49.435,2,50.111,2,50.798v0.952c0,2.209,1.791,4,4,4h52    C60.209,55.75,62,53.959,62,51.75z"/>
	</g>
	<g>
		<path class="st6" d="M32,39.665L32,39.665c1.904,0,3.447-1.543,3.447-3.447V20.133c0-1.904-1.543-3.447-3.447-3.447h0h0    c-1.904,0-3.447,1.543-3.447,3.447v16.085C28.553,38.122,30.096,39.665,32,39.665L32,39.665z"/>
	</g>
	<g>
		<circle class="st6" cx="32" cy="46.559" r="3.447"/>
	</g>
	<g>
		<g>
			<path class="st6" d="M51.184,43.429c0,0,3.87-3.942,2.122-5.306c-1.21-0.945-2.44,0.566-3.184-0.531C49.003,35.942,48,36,48,36     s-1.003-0.058-2.122,1.592c-0.744,1.096-1.973-0.415-3.184,0.531c-1.747,1.364,2.122,5.306,2.122,5.306H51.184z"/>
		</g>
		<path class="st7" d="M51.823,42.051c-0.62-0.28-1.343-0.46-2.013-0.574c0.36-0.386,0.662-0.926,0.803-1.67l-0.982-0.187    c-0.25,1.312-1.079,1.617-1.443,1.69c-0.064-0.002-0.134-0.005-0.188-0.005c-0.05,0-0.115,0.003-0.173,0.004    c-0.381-0.073-1.208-0.379-1.457-1.689l-0.982,0.187c0.141,0.744,0.443,1.284,0.804,1.67c-0.67,0.114-1.393,0.294-2.014,0.574    c-0.132,0.06-0.253,0.138-0.361,0.227c0.535,0.676,1,1.15,1,1.15h6.367c0,0,0.465-0.474,1-1.15    C52.075,42.189,51.955,42.111,51.823,42.051z"/>
		<g>
			<path class="st5" d="M48,44.49h4.245v-0.978c0-0.424-0.254-0.802-0.641-0.977c-1.234-0.557-2.935-0.698-3.604-0.698     s-2.37,0.141-3.604,0.698c-0.387,0.175-0.641,0.552-0.641,0.977v0.978H48z"/>
		</g>
		<g>
			<path class="st6" d="M48,43h1c4.418,0,8,3.582,8,8v5.122c0,0.562,0.223,1.101,0.621,1.499l0.758,0.758     C58.777,58.777,59,59.316,59,59.878v0.002c0,1.171-0.949,2.12-2.12,2.12h-9.268H39.12C37.949,62,37,61.051,37,59.88v-0.002     c0-0.562,0.223-1.101,0.621-1.499l0.758-0.758C38.777,57.223,39,56.684,39,56.122V51c0-4.418,3.582-8,8-8H48z"/>
		</g>
		<g>
			<circle class="st5" cx="48" cy="51.918" r="4"/>
		</g>
		<path class="st6" d="M48.53,51.418H47.47c-0.31,0-0.562-0.252-0.562-0.562s0.252-0.561,0.562-0.561h1.061    c0.31,0,0.562,0.251,0.562,0.561h1c0-0.861-0.7-1.561-1.562-1.561H48.5v-0.562h-1v0.562h-0.03c-0.861,0-1.562,0.7-1.562,1.561    s0.7,1.562,1.562,1.562h1.061c0.31,0,0.562,0.251,0.562,0.561s-0.252,0.561-0.562,0.561H47.47c-0.31,0-0.562-0.251-0.562-0.561h-1    c0,0.861,0.7,1.561,1.562,1.561h0.03v0.562h1v-0.562h0.03c0.861,0,1.562-0.7,1.562-1.561S49.392,51.418,48.53,51.418z"/>
	</g>
	<g>
		<polygon class="st2" points="12,26 12,14 16,14 9,2 2,14 6,14 6,26   "/>
	</g>
	<g>
		<polygon class="st4" points="52,2 52,14 48,14 55,26 62,14 58,14 58,2   "/>
	</g>
</g>
</svg>
