<?xml version="1.0" encoding="utf-8"?>
<!-- Generator: Adobe Illustrator 18.0.0, SVG Export Plug-In . SVG Version: 6.00 Build 0)  -->
<!DOCTYPE svg PUBLIC "-//W3C//DTD SVG 1.1//EN" "http://www.w3.org/Graphics/SVG/1.1/DTD/svg11.dtd">
<svg xmlns="http://www.w3.org/2000/svg" xmlns:xlink="http://www.w3.org/1999/xlink" version="1.1" id="Layer_2" x="0px" y="0px" viewBox="0 0 64 64" style="enable-background:new 0 0 64 64;" xml:space="preserve" width="512" height="512">
<style type="text/css">
	.st0{fill:#EDEFF1;}
	.st1{fill:#D3D3D3;}
	.st2{fill:#98CA69;}
	.st3{fill:#80D6FB;}
	.st4{fill:#FFB0AA;}
	.st5{fill:#FFE352;}
	.st6{fill:#6E83B7;}
	.st7{fill:#466089;}
	.st8{fill:#FFD3B3;}
	.st9{fill:#FCB98B;}
	.st10{fill:#FFB236;}
	.st11{fill:#46BEE8;}
	.st12{fill:#E0E2FF;}
	.st13{fill:#8FA5D1;}
	.st14{fill:#75AA40;}
</style>
<g>
	<g>
		<path class="st6" d="M41,62L41,62c-1.657,0-3-1.343-3-3V42h6v17C44,60.657,42.657,62,41,62z"/>
	</g>
	<g>
		
			<rect x="52" y="14.343" transform="matrix(0.7071 0.7071 -0.7071 0.7071 29.6655 -31.6188)" class="st6" width="2" height="11.314"/>
	</g>
	<g>
		
			<rect x="16" y="12.686" transform="matrix(0.7071 0.7071 -0.7071 0.7071 21.9497 -4.9914)" class="st6" width="2" height="22.627"/>
	</g>
	<g>
		
			<rect x="23.343" y="19" transform="matrix(0.7071 0.7071 -0.7071 0.7071 22.636 -14.6482)" class="st6" width="11.314" height="2"/>
	</g>
	<g>
		<path class="st7" d="M56.293,15.293l-3.461,3.461c0.372,0.562,0.853,1.042,1.414,1.414l3.461-3.461L56.293,15.293z"/>
	</g>
	<g>
		
			<rect x="55.964" y="17.5" transform="matrix(0.7071 0.7071 -0.7071 0.7071 30.5086 -36.6543)" class="st6" width="7.071" height="2"/>
	</g>
	<g>
		<path class="st7" d="M57.707,15.293l3.461,3.461c-0.372,0.562-0.853,1.042-1.414,1.414l-3.461-3.461L57.707,15.293z"/>
	</g>
	<g>
		<circle class="st6" cx="57" cy="16" r="4"/>
	</g>
	<g>
		<circle class="st0" cx="57" cy="16" r="2"/>
	</g>
	<g>
		<path class="st7" d="M9.707,32.707l3.461-3.461c-0.372-0.562-0.853-1.042-1.414-1.414l-3.461,3.461L9.707,32.707z"/>
	</g>
	<g>
		<rect x="0.55" y="27.5" transform="matrix(0.7071 0.7071 -0.7071 0.7071 21.7635 4.4584)" class="st6" width="9.899" height="2"/>
	</g>
	<g>
		<path class="st7" d="M8.293,32.707l-3.461-3.461c0.372-0.562,0.853-1.042,1.414-1.414l3.461,3.461L8.293,32.707z"/>
	</g>
	<g>
		<circle class="st6" cx="9" cy="32" r="4"/>
	</g>
	<g>
		<circle class="st0" cx="9" cy="32" r="2"/>
	</g>
	<g>
		<path class="st7" d="M25,14.586l-4.168,4.168c0.372,0.562,0.853,1.042,1.414,1.414L25,17.414l2.754,2.754    c0.562-0.372,1.042-0.853,1.414-1.414L25,14.586z"/>
	</g>
	<g>
		<circle class="st6" cx="25" cy="16" r="4"/>
	</g>
	<g>
		<circle class="st0" cx="25" cy="16" r="2"/>
	</g>
	<g>
		<path class="st7" d="M48.293,23.293l1.414,1.414l1.866-1.866c-0.437-0.505-0.91-0.977-1.414-1.414L48.293,23.293z"/>
	</g>
	<g>
		<path class="st7" d="M34,23.586L32.586,25l-2.159-2.159c0.437-0.505,0.91-0.977,1.414-1.414L34,23.586z"/>
	</g>
	<g>
		<path class="st7" d="M38,45.668C38.968,45.88,39.97,46,41,46s2.032-0.12,3-0.332V42h-6V45.668z"/>
	</g>
	<g>
		<circle class="st6" cx="41" cy="32" r="13"/>
	</g>
	<g>
		<circle class="st3" cx="41" cy="32" r="10"/>
	</g>
	<g>
		<path class="st11" d="M50,32h-2c0-3.859-3.141-7-7-7v-2C45.963,23,50,27.037,50,32z"/>
	</g>
	<g>
		<g>
			<circle class="st5" cx="10" cy="10" r="8"/>
		</g>
		<path class="st6" d="M11,9H9C8.448,9,8,8.552,8,8s0.448-1,1-1h2c0.552,0,1,0.448,1,1h2c0-1.654-1.346-3-3-3V4H9v1    C7.346,5,6,6.346,6,8s1.346,3,3,3h2c0.552,0,1,0.448,1,1s-0.448,1-1,1H9c-0.552,0-1-0.448-1-1H6c0,1.654,1.346,3,3,3v1h2v-1    c1.654,0,3-1.346,3-3S12.654,9,11,9z"/>
	</g>
</g>
</svg>
