<svg id="bold" enable-background="new 0 0 32 32" height="512" viewBox="0 0 32 32" width="512" xmlns="http://www.w3.org/2000/svg"><path d="m26 32h-20c-3.314 0-6-2.686-6-6v-20c0-3.314 2.686-6 6-6h20c3.314 0 6 2.686 6 6v20c0 3.314-2.686 6-6 6z" fill="#f5e6fe"/><path d="m22 8.667h-12c-1.103 0-2 .897-2 2v10.667c0 1.103.897 2 2 2h12c1.103 0 2-.897 2-2v-10.667c0-1.103-.897-2-2-2zm.667 12.666c0 .368-.299.667-.667.667h-12c-.368 0-.667-.299-.667-.667v-9.333h13.333v9.333z" fill="#be63f9"/><path d="m16 20.667c-1.286 0-2.333-1.047-2.333-2.333v-3.5c0-.827.673-1.5 1.5-1.5s1.5.673 1.5 1.5v3.333c0 .276-.224.5-.5.5s-.5-.224-.5-.5v-3.333c0-.276-.225-.5-.5-.5s-.5.224-.5.5v3.5c0 .735.598 1.333 1.333 1.333s1.333-.598 1.333-1.333v-4.5c0-.276.224-.5.5-.5s.5.224.5.5v4.5c0 1.286-1.047 2.333-2.333 2.333z" fill="#d9a4fc"/></svg>