<svg id="bold" enable-background="new 0 0 32 32" height="512" viewBox="0 0 32 32" width="512" xmlns="http://www.w3.org/2000/svg"><path d="m26 32h-20c-3.314 0-6-2.686-6-6v-20c0-3.314 2.686-6 6-6h20c3.314 0 6 2.686 6 6v20c0 3.314-2.686 6-6 6z" fill="#f5e6fe"/><path d="m18.503 9.376-7.038 7.169c-.254.258-.255.672-.003.931l2.532 2.611c.261.267.691.267.952 0l7.041-7.188z" fill="#be63f9"/><path d="m17.141 14.207c-.449-.449-1.181-.449-1.631 0-.218.218-.338.507-.338.815s.12.597.338.815c.225.225.52.337.815.337s.59-.112.815-.337c.218-.218.338-.507.338-.815.001-.308-.119-.597-.337-.815z" fill="#d9a4fc"/><path d="m22.817 9.517-.965-.986c-.332-.341-.777-.529-1.253-.531-.002 0-.004 0-.006 0-.477 0-.925.188-1.263.53l-.362.37c.003.003.007.004.009.006l3.479 3.517.361-.367c.691-.7.691-1.84 0-2.539z" fill="#be63f9"/><path d="m13.519 20.553-2.509-2.587-2.2 2.244c-.124.127-.172.311-.125.482l.807 2.94c.047.173.183.307.356.352.042.011.084.016.126.016.132 0 .262-.053.357-.15l3.213-3.276c-.009-.008-.018-.013-.025-.021z" fill="#d9a4fc"/></svg>