<svg id="bold" enable-background="new 0 0 32 32" height="512" viewBox="0 0 32 32" width="512" xmlns="http://www.w3.org/2000/svg"><path d="m26 32h-20c-3.314 0-6-2.686-6-6v-20c0-3.314 2.686-6 6-6h20c3.314 0 6 2.686 6 6v20c0 3.314-2.686 6-6 6z" fill="#fff9dd"/><path d="m12.5 8h-3.333c-.645 0-1.167.522-1.167 1.167v13.667c0 .644.522 1.166 1.167 1.166h4.5v-14.833c0-.645-.523-1.167-1.167-1.167zm-2.167 2.5c0-.276.224-.5.5-.5s.5.224.5.5v9c0 .276-.224.5-.5.5s-.5-.224-.5-.5zm1 11.5h-1c-.276 0-.5-.224-.5-.5s.224-.5.5-.5h1c.276 0 .5.224.5.5s-.224.5-.5.5z" fill="#ffe777"/><g fill="#ffd200"><path d="m17.833 11.333h-3.5v12.667h4.667v-11.5c0-.644-.522-1.167-1.167-1.167zm-1.666 2.5c0-.276.224-.5.5-.5s.5.224.5.5v5.667c0 .276-.224.5-.5.5s-.5-.224-.5-.5zm1 8.167h-1c-.276 0-.5-.224-.5-.5s.224-.5.5-.5h1c.276 0 .5.224.5.5s-.224.5-.5.5z"/><path d="m22.833 15.333h-3.167v8.667h3.167c.645 0 1.167-.522 1.167-1.167v-6.333c0-.644-.522-1.167-1.167-1.167zm-1.5 2.5c0-.276.224-.5.5-.5s.5.224.5.5v1.667c0 .276-.224.5-.5.5s-.5-.224-.5-.5zm1 4.167h-1c-.276 0-.5-.224-.5-.5s.224-.5.5-.5h1c.276 0 .5.224.5.5s-.224.5-.5.5z"/></g></svg>