<svg id="bold" enable-background="new 0 0 32 32" height="512" viewBox="0 0 32 32" width="512" xmlns="http://www.w3.org/2000/svg"><path d="m26 32h-20c-3.314 0-6-2.686-6-6v-20c0-3.314 2.686-6 6-6h20c3.314 0 6 2.686 6 6v20c0 3.314-2.686 6-6 6z" fill="#f5e6fe"/><path d="m22.833 18.667h-13.666c-.645 0-1.167.522-1.167 1.166v4.167h16v-4.167c0-.644-.522-1.166-1.167-1.166zm-3.333 3.166h-9c-.276 0-.5-.224-.5-.5s.224-.5.5-.5h9c.276 0 .5.224.5.5s-.224.5-.5.5zm2.5 0c0 .276-.224.5-.5.5s-.5-.224-.5-.5v-1c0-.276.224-.5.5-.5s.5.224.5.5z" fill="#d9a4fc"/><g fill="#be63f9"><path d="m22.833 18c.174 0 .34.032.5.078v-3.578c0-.644-.522-1.167-1.167-1.167h-11.5v4.667zm-2.5-2.833c0-.276.224-.5.5-.5s.5.224.5.5v1c0 .276-.224.5-.5.5s-.5-.224-.5-.5zm-7.166 0h5.667c.276 0 .5.224.5.5s-.224.5-.5.5h-5.667c-.276 0-.5-.224-.5-.5s.224-.5.5-.5z"/><path d="m10.667 12.667h11.333v-3.5c0-.645-.522-1.167-1.167-1.167h-10.333c-.644 0-1.167.522-1.167 1.167v3c0 .473.283.879.688 1.062.052-.317.314-.562.646-.562zm8.333-2.834c0-.276.224-.5.5-.5s.5.224.5.5v1c0 .276-.224.5-.5.5s-.5-.224-.5-.5zm-7.167 0h5.667c.276 0 .5.224.5.5s-.224.5-.5.5h-5.667c-.276 0-.5-.224-.5-.5s.224-.5.5-.5z"/></g></svg>