<svg id="bold" enable-background="new 0 0 32 32" height="512" viewBox="0 0 32 32" width="512" xmlns="http://www.w3.org/2000/svg"><path d="m26 32h-20c-3.314 0-6-2.686-6-6v-20c0-3.314 2.686-6 6-6h20c3.314 0 6 2.686 6 6v20c0 3.314-2.686 6-6 6z" fill="#ffe6e2"/><path d="m20.833 15.333h-9.667c-.15 0-.294-.068-.388-.185-.095-.117-.132-.271-.102-.418l1.333-6.333c.05-.231.255-.397.491-.397h7c.236 0 .441.166.49.397l1.333 6.333c.031.147-.007.301-.102.418-.094.117-.237.185-.388.185z" fill="#fc573b"/><path d="m19.5 24h-7c-.276 0-.5-.224-.5-.5v-1.333c0-1.011.822-1.833 1.833-1.833h4.333c1.011 0 1.833.822 1.833 1.833v1.333c.001.276-.223.5-.499.5z" fill="#fc573b"/><g fill="#fd907e"><path d="m18.167 16v.833c0 .368.298.667.667.667s.667-.299.667-.667v-.833z"/><path d="m15.333 16h1.333v3.667h-1.333z"/></g></svg>