<svg id="bold" enable-background="new 0 0 32 32" height="512" viewBox="0 0 32 32" width="512" xmlns="http://www.w3.org/2000/svg"><path d="m26 32h-20c-3.314 0-6-2.686-6-6v-20c0-3.314 2.686-6 6-6h20c3.314 0 6 2.686 6 6v20c0 3.314-2.686 6-6 6z" fill="#f5e6fe"/><g fill="#be63f9"><path d="m10.5 11.667c-.368 0-.667-.299-.667-.667v-2.333c0-.369.299-.667.667-.667s.667.299.667.667v2.333c0 .368-.299.667-.667.667z"/><path d="m13.667 11.667c-.369 0-.667-.299-.667-.667v-2.333c0-.369.298-.667.667-.667.368 0 .667.299.667.667v2.333c-.001.368-.299.667-.667.667z"/><path d="m16.833 11.667c-.368 0-.667-.299-.667-.667v-2.333c.001-.369.299-.667.667-.667s.667.298.667.667v2.333c0 .368-.298.667-.667.667z"/><path d="m17.5 9.5h-7.667c-1.013 0-1.833.82-1.833 1.833v8.833c0 1.014.82 1.834 1.833 1.834h5.227c-.253-.62-.393-1.293-.393-2 0-.607.293-1.14.747-1.473-.007-.02-.007-.04-.013-.06-.02-.08-.033-.16-.047-.24-.007-.053-.013-.1-.013-.153 0-.027-.007-.047-.007-.073v-1.333h-4.667c-.367-.001-.667-.301-.667-.668s.3-.667.667-.667h4.667c.127 0 .247.033.347.1.193-.273.467-.5.793-.633.22-.087.453-.133.693-.133.367 0 .727.113 1.027.32.367-.133.747-.227 1.14-.273v-3.38c-.001-1.014-.821-1.834-1.834-1.834zm-4.167 4.5h-2.667c-.366 0-.666-.3-.666-.667s.3-.667.667-.667h2.667c.367 0 .667.3.667.667-.001.367-.301.667-.668.667z"/></g><path d="m20 24c-2.206 0-4-1.794-4-4 0-.276.224-.5.5-.5s.5.224.5.5c0 1.654 1.346 3 3 3s3-1.346 3-3-1.346-3-3-3c-.993 0-1.852.456-2.421 1.283-.156.227-.467.285-.695.129-.228-.157-.285-.468-.129-.695.75-1.091 1.933-1.717 3.245-1.717 2.206 0 4 1.794 4 4s-1.794 4-4 4z" fill="#d9a4fc"/><path d="m18.63 18.5h-1.464c-.276 0-.5-.224-.5-.5v-1.5c0-.203.123-.386.311-.463.188-.076.404-.032.547.114l1.464 1.5c.14.144.181.358.103.544-.078.185-.26.305-.461.305z" fill="#d9a4fc"/></svg>