<svg id="bold" enable-background="new 0 0 32 32" height="512" viewBox="0 0 32 32" width="512" xmlns="http://www.w3.org/2000/svg"><path d="m26 32h-20c-3.314 0-6-2.686-6-6v-20c0-3.314 2.686-6 6-6h20c3.314 0 6 2.686 6 6v20c0 3.314-2.686 6-6 6z" fill="#f5e6fe"/><path d="m18.167 8h-8.334c-1.013 0-1.833.82-1.833 1.833v11c0 1.013.82 1.833 1.833 1.833h6.933c-.067-.32-.1-.66-.1-1v-3.5c0-.053 0-.113.007-.167h-6.007c-.366.001-.666-.299-.666-.666s.3-.667.667-.667h6.28c.5-1.307 1.653-2.3 3.053-2.58v-4.253c0-1.013-.82-1.833-1.833-1.833zm-7.5 3.333h3.333c.367 0 .667.3.667.667s-.3.667-.667.667h-3.333c-.367 0-.667-.3-.667-.667s.3-.667.667-.667zm6.666 4h-6.667c-.367 0-.667-.3-.667-.667.001-.366.301-.666.668-.666h6.667c.366 0 .666.3.666.667 0 .366-.3.666-.667.666z" fill="#be63f9"/><path d="m21.667 24c-1.286 0-2.333-1.047-2.333-2.333v-3.5c0-.827.673-1.5 1.5-1.5s1.5.673 1.5 1.5v3.333c0 .276-.224.5-.5.5s-.5-.224-.5-.5v-3.333c0-.276-.225-.5-.5-.5s-.5.224-.5.5v3.5c0 .735.598 1.333 1.333 1.333s1.333-.598 1.333-1.333v-4.5c0-.276.224-.5.5-.5s.5.224.5.5v4.5c0 1.286-1.047 2.333-2.333 2.333z" fill="#d9a4fc"/></svg>