<svg id="bold" enable-background="new 0 0 32 32" height="512" viewBox="0 0 32 32" width="512" xmlns="http://www.w3.org/2000/svg"><path d="m26 32h-20c-3.314 0-6-2.686-6-6v-20c0-3.314 2.686-6 6-6h20c3.314 0 6 2.686 6 6v20c0 3.314-2.686 6-6 6z" fill="#ffe6e2"/><path d="m13.358 23.5c-1.389 0-2.694-.551-3.675-1.551-2.016-2.057-2.016-5.404 0-7.46l5.011-5.113c.554-.565 1.291-.876 2.076-.876s1.521.311 2.075.876c1.134 1.157 1.134 3.04 0 4.197l-5.267 5.374c-.257.263-.679.267-.943.009-.263-.258-.267-.68-.009-.943l5.267-5.374c.63-.642.63-1.688 0-2.33-.602-.615-1.645-.614-2.247 0l-5.011 5.113c-1.512 1.542-1.512 4.051 0 5.593.728.743 1.695 1.152 2.723 1.152s1.995-.409 2.723-1.152l6.61-6.744c.258-.263.68-.267.943-.009s.267.68.009.943l-6.611 6.744c-.98 1-2.285 1.551-3.674 1.551z" fill="#fc573b"/></svg>