<svg id="bold" enable-background="new 0 0 32 32" height="512" viewBox="0 0 32 32" width="512" xmlns="http://www.w3.org/2000/svg"><path d="m26 32h-20c-3.314 0-6-2.686-6-6v-20c0-3.314 2.686-6 6-6h20c3.314 0 6 2.686 6 6v20c0 3.314-2.686 6-6 6z" fill="#fff9dd"/><path d="m9.62 18.452 9.126-9.132c.094-.094.221-.147.354-.148.133 0 .26.053.354.147l3.233 3.233c.094.094.146.221.146.354s-.053.26-.146.354l-9.134 9.127z" fill="#ffd200"/><g fill="#ffe777"><path d="m23.045 11.967.329-.329c.404-.404.626-.937.626-1.5 0-.576-.224-1.112-.624-1.506-.801-.81-2.21-.809-3.009-.002l-.329.33z"/><path d="m9.349 19.124-1.327 4.232c-.055.177-.008.371.124.503.095.095.223.146.354.146.05 0 .1-.007.15-.023l4.231-1.326z"/><path d="m12.646 13.864c.128 0 .256-.049.354-.146l3.228-3.228c.173-.172.403-.24.629-.223l.789-.79c-.683-.366-1.551-.269-2.126.306l-3.228 3.228c-.195.195-.195.512 0 .707.099.097.226.146.354.146z"/></g></svg>