<svg id="Layer_3" enable-background="new 0 0 64 64" height="512" viewBox="0 0 64 64" width="512" xmlns="http://www.w3.org/2000/svg"><path d="m30 62h-24c-2.209 0-4-1.791-4-4v-52c0-2.209 1.791-4 4-4h24c2.209 0 4 1.791 4 4v52c0 2.209-1.791 4-4 4z" fill="#8bd2f5"/><path d="m8 62v-2c0-1.105.895-2 2-2h16c1.105 0 2 .895 2 2v2z" fill="#645b54"/><path d="m23 58h-13c-1.105 0-2 .895-2 2v2h17v-2c0-1.105-.895-2-2-2z" fill="#857970"/><path d="m5 2 6 6h14l6-6z" fill="#645b54"/><path d="m5 2 6 6h11l6-6z" fill="#857970"/><path d="m50 21h-22v3l-5-5 5-5v3h22v-3l5 5-5 5z" fill="#857970"/><path d="m16 28h46v24h-46z" fill="#5f986e"/><path d="m54 48c0-2.209 1.791-4 4-4v-8c-2.209 0-4-1.791-4-4h-30c0 2.209-1.791 4-4 4v8c2.209 0 4 1.791 4 4z" fill="#7ecb92"/><circle cx="39" cy="40" fill="#b49e4c" r="8"/><ellipse cx="37.5" cy="40" fill="#f0d365" rx="6.5" ry="7.855"/><path d="m30 63h-24c-2.757 0-5-2.243-5-5v-52c0-2.757 2.243-5 5-5h24c2.757 0 5 2.243 5 5v11h-2v-11c0-1.654-1.346-3-3-3h-24c-1.654 0-3 1.346-3 3v52c0 1.654 1.346 3 3 3h24c1.654 0 3-1.346 3-3v-6h2v6c0 2.757-2.243 5-5 5z"/><path d="m25 9h-14c-.265 0-.52-.105-.707-.293l-6-6 1.414-1.414 5.707 5.707h13.172l5.707-5.707 1.414 1.414-6 6c-.187.188-.442.293-.707.293z"/><path d="m29 62h-2v-2c0-.552-.449-1-1-1h-16c-.551 0-1 .448-1 1v2h-2v-2c0-1.654 1.346-3 3-3h16c1.654 0 3 1.346 3 3z"/><path d="m62 53h-46c-.552 0-1-.447-1-1v-24c0-.553.448-1 1-1h46c.552 0 1 .447 1 1v24c0 .553-.448 1-1 1zm-45-2h44v-22h-44z"/><path d="m39 45h-3v-2h3c.551 0 1-.448 1-1s-.449-1-1-1c-1.654 0-3-1.346-3-3s1.346-3 3-3h3v2h-3c-.551 0-1 .448-1 1s.449 1 1 1c1.654 0 3 1.346 3 3s-1.346 3-3 3z"/><path d="m38 44h2v4h-2z"/><path d="m38 32h2v4h-2z"/><path d="m39 49c-4.962 0-9-4.037-9-9s4.038-9 9-9 9 4.037 9 9-4.038 9-9 9zm0-16c-3.86 0-7 3.141-7 7s3.14 7 7 7 7-3.141 7-7-3.14-7-7-7z"/><path d="m54 49h-30c-.552 0-1-.447-1-1 0-1.654-1.346-3-3-3-.552 0-1-.447-1-1v-8c0-.553.448-1 1-1 1.654 0 3-1.346 3-3 0-.553.448-1 1-1h30c.552 0 1 .447 1 1 0 1.654 1.346 3 3 3 .552 0 1 .447 1 1v8c0 .553-.448 1-1 1-1.654 0-3 1.346-3 3 0 .553-.448 1-1 1zm-29.101-2h28.201c.398-1.956 1.943-3.501 3.899-3.899v-6.201c-1.956-.398-3.501-1.943-3.899-3.899h-28.201c-.398 1.956-1.943 3.501-3.899 3.899v6.201c1.956.398 3.501 1.943 3.899 3.899z"/><path d="m50 25c-.129 0-.259-.024-.383-.076-.373-.154-.617-.52-.617-.924v-2h-20v2c0 .404-.244.77-.617.924-.375.155-.804.069-1.09-.217l-5-5c-.391-.391-.391-1.023 0-1.414l5-5c.286-.287.715-.374 1.09-.217.373.154.617.52.617.924v2h20v-2c0-.404.244-.77.617-.924.374-.157.803-.07 1.09.217l5 5c.391.391.391 1.023 0 1.414l-5 5c-.191.191-.447.293-.707.293zm-22-5h22c.552 0 1 .447 1 1v.586l2.586-2.586-2.586-2.586v.586c0 .553-.448 1-1 1h-22c-.552 0-1-.447-1-1v-.586l-2.586 2.586 2.586 2.586v-.586c0-.553.448-1 1-1z"/><path d="m33 21h2v7h-2z"/></svg>