<svg id="Layer_3" enable-background="new 0 0 64 64" height="512" viewBox="0 0 64 64" width="512" xmlns="http://www.w3.org/2000/svg"><path d="m28 16-6-14h6l2 4 2-4h10l-6 14z" fill="#857970"/><path d="m26 21v-3c0-1.105.895-2 2-2h8c1.105 0 2 .895 2 2v3 .024c-1.877-.663-3.896-1.024-6-1.024-2.104 0-4.123.361-6 1.024z" fill="#645b54"/><path d="m50 53.023v-15.023c0-9.941-8.059-18-18-18-9.941 0-18 8.059-18 18v15.023c-1.316.994-2.138 2.607-1.981 4.419.228 2.618 2.559 4.558 5.188 4.558h29.587c2.629 0 4.96-1.94 5.188-4.559.156-1.811-.666-3.424-1.982-4.418z" fill="#857970"/><circle cx="32" cy="42" fill="#b49e4c" r="12"/><ellipse cx="30.5" cy="42" fill="#f0d365" rx="10.5" ry="11.896"/><circle cx="54" cy="14" fill="#b49e4c" r="8"/><ellipse cx="52.5" cy="14" fill="#f0d365" rx="6.5" ry="7.855"/><circle cx="10" cy="14" fill="#b49e4c" r="8"/><ellipse cx="8.5" cy="14" fill="#f0d365" rx="6.5" ry="7.855"/><path d="m46.793 63h-29.586c-3.201 0-5.917-2.404-6.184-5.472-.164-1.891.568-3.716 1.977-4.976v-14.552c0-10.477 8.523-19 19-19s19 8.523 19 19v14.552c1.408 1.26 2.141 3.085 1.977 4.976-.267 3.068-2.983 5.472-6.184 5.472zm-14.793-42c-9.374 0-17 7.626-17 17v15.022c0 .313-.146.608-.396.798-1.113.841-1.707 2.163-1.588 3.535.177 2.044 2.018 3.645 4.191 3.645h29.586c2.173 0 4.014-1.601 4.191-3.645.119-1.372-.475-2.693-1.588-3.535-.25-.189-.396-.484-.396-.798v-15.022c0-9.374-7.626-17-17-17z"/><path d="m39 21h-2v-3c0-.551-.448-1-1-1h-8c-.552 0-1 .449-1 1v3h-2v-3c0-1.654 1.346-3 3-3h8c1.654 0 3 1.346 3 3z"/><path d="m36.919 16.394-1.838-.788 5.402-12.606h-7.865l-1.724 3.447c-.34.678-1.449.678-1.789 0l-1.723-3.447h-3.865l5.402 12.606-1.838.788-6-14c-.133-.309-.101-.664.084-.944.186-.281.499-.45.835-.45h6c.379 0 .725.214.895.553l1.105 2.211 1.105-2.211c.17-.339.516-.553.895-.553h10c.336 0 .649.169.835.45.185.28.217.635.084.944z"/><path d="m32 41c-.256 0-.512-.098-.707-.293l-5-5 1.414-1.414 4.293 4.293 4.293-4.293 1.414 1.414-5 5c-.195.195-.451.293-.707.293z"/><path d="m31 40h2v11h-2z"/><path d="m28 41h8v2h-8z"/><path d="m28 45h8v2h-8z"/><path d="m32 55c-7.168 0-13-5.832-13-13s5.832-13 13-13 13 5.832 13 13-5.832 13-13 13zm0-24c-6.065 0-11 4.935-11 11s4.935 11 11 11 11-4.935 11-11-4.935-11-11-11z"/><path d="m10 19h-3v-2h3c.552 0 1-.449 1-1s-.448-1-1-1c-1.654 0-3-1.346-3-3s1.346-3 3-3h3v2h-3c-.552 0-1 .449-1 1s.448 1 1 1c1.654 0 3 1.346 3 3s-1.346 3-3 3z"/><path d="m9 6h2v4h-2z"/><path d="m9 18h2v4h-2z"/><path d="m10 23c-4.963 0-9-4.038-9-9s4.037-9 9-9 9 4.038 9 9-4.037 9-9 9zm0-16c-3.859 0-7 3.14-7 7s3.141 7 7 7 7-3.14 7-7-3.141-7-7-7z"/><path d="m54 19h-3v-2h3c.552 0 1-.449 1-1s-.448-1-1-1c-1.654 0-3-1.346-3-3s1.346-3 3-3h3v2h-3c-.552 0-1 .449-1 1s.448 1 1 1c1.654 0 3 1.346 3 3s-1.346 3-3 3z"/><path d="m53 6h2v4h-2z"/><path d="m53 18h2v4h-2z"/><path d="m54 23c-4.963 0-9-4.038-9-9s4.037-9 9-9 9 4.038 9 9-4.037 9-9 9zm0-16c-3.859 0-7 3.14-7 7s3.141 7 7 7 7-3.14 7-7-3.141-7-7-7z"/></svg>