<svg id="Layer_1" enable-background="new 0 0 512 512" height="512" viewBox="0 0 512 512" width="512" xmlns="http://www.w3.org/2000/svg"><path d="m176.019 142.768-9.798 10.042-1.24 3.78c-1.443 4.399-4.427 8.129-8.403 10.501l-14.155 8.447-3.717-3.33 1.939-28.328 15.463-13.799z" fill="#fcb98b"/><path d="m256.016 198.589h-48.649l15.425 154.253v137.64h31.786 34.662v-137.64l15.425-154.253z" fill="#edeff1"/><path d="m256.016 212.828c-15.728 0-28.477-12.75-28.477-28.477v-27.291h56.955v27.291c-.001 15.727-12.75 28.477-28.478 28.477z" fill="#ffd3b3"/><path d="m304.665 198.589-26.104 39.157-3.56-4.746-4.781 5.587 8.632 11.556 32.756-49.487z" fill="#d3d3d3"/><path d="m207.367 198.589 26.104 39.157 3.56-4.746 4.495 5.816-8.346 11.327-32.756-49.487z" fill="#d3d3d3"/><path d="m263.834 246.052 10.447 196.41-18.805 20.593-18.805-20.593 10.447-196.41z" fill="#80d6fb"/><path d="m261.223 254.358h-2c0-7.515-4.029-9.699-4.2-9.788l.901-1.785c.217.108 5.299 2.75 5.299 11.573z" fill="#46bee8"/><path d="m251.729 254.358h-2c0-8.823 5.084-11.465 5.3-11.573l.895 1.789-.447-.895.454.891c-.171.089-4.202 2.273-4.202 9.788z" fill="#46bee8"/><path d="m227.539 184.351-20.172 14.238 26.104 39.157 3.56-4.746 13.052-17.799 5.933-2.373z" fill="#edeff1"/><path d="m284.493 184.351 20.172 14.238-26.104 39.157-3.56-4.746-13.052-17.799-5.933-2.373z" fill="#edeff1"/><path d="m261.949 215.201-5.933-2.373-5.933 2.373-13.052 17.799 10.087 13.052h8.898 7.818l11.167-13.052z" fill="#80d6fb"/><path d="m269.581 236.064c-3.329 4.069-8.308 6.428-13.565 6.428h-.567c-5.608 0-10.877-2.683-14.175-7.218l-2.943-4.047-1.3 1.772 10.087 13.052h8.898 7.818l11.167-13.051-1.377-1.877z" fill="#46bee8"/><path d="m144.48 490.482v16.612h111.536 91.365v-16.612h-91.365z" fill="#7c93bf"/><path d="m356.843 214.119-52.178-15.529-15.425 154.252v154.252h115.096v-193.409-35.88c0-29.397-19.317-55.301-47.493-63.686z" fill="#6e83b7"/><path d="m227.539 172.35c8.707 3.888 18.339 6.068 28.477 6.068s19.771-2.18 28.477-6.068v-15.29h-56.955v15.29z" fill="#fcb98b"/><path d="m256.016 5.009c-33.362 0-60.514 27.045-60.514 60.406v43.103c0 33.362 27.153 60.407 60.514 60.407s60.514-27.045 60.514-60.407v-43.102c0-33.362-27.152-60.407-60.514-60.407z" fill="#ffd3b3"/><path d="m316.53 68.068h4.455c7.103 0 12.614 6.198 11.784 13.252l-1.662 14.128c-.87 7.392-7.134 12.963-14.577 12.963z" fill="#ffd3b3"/><path d="m195.502 68.068h-4.455c-7.103 0-12.614 6.198-11.784 13.252l1.662 14.128c.87 7.392 7.134 12.963 14.577 12.963z" fill="#fcb98b"/><path d="m344.381 329.489h6v177.606h-6z" fill="#466089"/><path d="m261.949 124.463h-13.94l1.458-17.487 5.978.498-.915 10.989h7.419z" fill="#fcb98b"/><path d="m245.337 72.915s-18.589-7.713-34.41 5.933c0 0 18.392-4.746 30.85 1.187z" fill="#6e83b7"/><path d="m263.387 72.915s18.589-7.713 34.41 5.933c0 0-18.392-4.746-30.85 1.187z" fill="#6e83b7"/><path d="m242.964 490.482h26.104v16.612h-26.104z" fill="#d3d3d3"/><path d="m329.582 276.902-24.917-78.313-15.425 154.253 35.201-39.157-7.834-20.247z" fill="#859cc1"/><path d="m207.367 198.589-39.478 11.065c-15.508 4.347-30.192 11.225-43.459 20.358l-5.624 3.872 24.149-45.125-43.832-23.774-63.455 112.119c-8.383 13.834-6.556 31.031 4.546 42.794 6.948 7.361 16.232 11.219 25.708 11.219 5.667 0 11.4-1.378 16.75-4.211l61.795-32.937.003-.013.009 213.139h78.313v-154.253z" fill="#6e83b7"/><path d="m182.449 276.902 24.918-78.313 15.425 154.253-35.201-39.157 7.834-20.247z" fill="#859cc1"/><path d="m116.506 154.508 14.215-22.564 22.038-23.237 34.796-28.166c3.288-2.661 8.111-2.154 10.772 1.134 2.661 3.288 2.154 8.111-1.134 10.772l-34.796 28.166-31.882 44.393z" fill="#ffd3b3"/><path d="m198.328 81.675c-2.662-3.288-7.484-3.796-10.772-1.134l-34.796 28.166-22.038 23.237-14.215 22.564 14.01 10.498 31.882-44.393 8.035-6.504-5.787-1.403 31.512-25.508c1.424-1.153 2.427-2.632 3.011-4.241-.234-.446-.514-.876-.842-1.282z" fill="#fcb98b"/><path d="m195.977 74.802c-2.661-3.288-7.484-3.796-10.772-1.134l-34.796 28.166-22.038 23.237-16.491 26.176-8.668 15.954 34.093 18.492 5.872-10.604-4.417-3.365 3.817-5.059c1.075-1.425 1.718-3.13 1.851-4.91l1.62-21.709c.184-2.471 2.143-4.439 4.613-4.635l2.398-.19c1.46-.116 2.786.851 3.121 2.276l.431 1.829c.322 1.367-.358 2.772-1.63 3.366l-5.474 2.561c-1.828.855-2.806 2.876-2.342 4.84l.426 1.801c.564 2.388 3.024 3.807 5.374 3.101l8.757-2.632c1.8-.541 3.266-1.855 4-3.586l3.456-8.151h6.321c1.552 0 2.852-1.175 3.008-2.719l1.163-11.523c.445-4.411-2.432-8.475-6.741-9.52l-12.882-3.124 34.796-28.166c3.287-2.661 3.795-7.484 1.134-10.772z" fill="#ffd3b3"/><path d="m173.093 140.63-4-.004.009-8.031c.003-3.111-2.1-5.819-5.114-6.586l-10.126-2.577.986-3.876 10.126 2.577c4.79 1.219 8.133 5.523 8.128 10.467z" fill="#fcb98b"/><path d="m185.451 144.583-5.484 3.895c-3.124 2.219-7.456 1.485-9.675-1.639l-.36-.506c-2.219-3.124-1.485-7.456 1.639-9.675l5.484-3.895c3.124-2.219 7.456-1.485 9.675 1.639l.36.506c2.219 3.125 1.485 7.456-1.639 9.675z" fill="#ffd3b3"/><path d="m118.806 233.884-26.331 49.288 26.331-34.128z" fill="#466089"/><path d="m254.578 339.936-37.593-45.165 5.807 58.071v137.64h31.786 34.662l.304-137.3 5.469-58.07z" fill="#466089"/><g fill="#fcb98b"><path d="m280.567 106.76c-7.359 0-13.347-5.987-13.347-13.347h6c0 4.051 3.296 7.347 7.347 7.347s7.347-3.296 7.347-7.347h6c0 7.359-5.987 13.347-13.347 13.347z"/><path d="m228.156 106.76c-7.359 0-13.347-5.987-13.347-13.347h6c0 4.051 3.296 7.347 7.347 7.347s7.347-3.296 7.347-7.347h6c0 7.359-5.987 13.347-13.347 13.347z"/><path d="m243.848 142.094h24.336v6h-24.336z"/></g></svg>