<svg id="Layer_1" enable-background="new 0 0 512 512" height="512" viewBox="0 0 512 512" width="512" xmlns="http://www.w3.org/2000/svg"><path d="m359.866 234.789-8.866-1.789-47-9v33.272c0 25.22-8.946 49.622-25.247 68.866l-22.753 26.862-22.753-26.861c-16.301-19.244-25.247-43.647-25.247-68.867v-33.272l-47 9-8.866 1.789c-27.999 5.649-48.134 30.252-48.134 58.815v213.396h57 95 95 57v-213.396c0-28.563-20.135-53.166-48.134-58.815z" fill="#6e83b7"/><path d="m158 324.333h6v182.667h-6z" fill="#466089"/><path d="m253 348.75h6v158.25h-6z" fill="#466089"/><path d="m256 182h-28v37l28 18 28-18v-37z" fill="#ffd3b3"/><path d="m228 196c8.334 3.721 18.296 6 28 6s19.666-2.279 28-6v-14h-56z" fill="#fcb98b"/><path d="m196 93h-6.95c-5.916 0-10.539 5.108-9.95 10.995l2 20c.511 5.112 4.813 9.005 9.95 9.005h4.95z" fill="#ffd3b3"/><path d="m316 93h6.95c5.916 0 10.539 5.108 9.95 10.995l-2 20c-.511 5.112-4.813 9.005-9.95 9.005h-4.95z" fill="#ffd3b3"/><path d="m256 67h-60v67c0 33.137 26.863 60 60 60s60-26.863 60-60v-67z" fill="#ffd3b3"/><circle cx="234.2" cy="120.094" fill="#6e83b7" r="6"/><circle cx="278.2" cy="120.094" fill="#6e83b7" r="6"/><path d="m262.488 149.463h-13.939l1.457-17.487 5.979.498-.916 10.989h7.419z" fill="#fcb98b"/><g fill="#6e83b7"><path d="m245.876 97.915s-18.589-7.713-34.41 5.933c0 0 18.392-4.746 30.85 1.187z"/><path d="m263.926 97.915s18.589-7.713 34.41 5.933c0 0-18.392-4.746-30.85 1.187z"/><path d="m303 37c0-17.673-14.327-32-32-32h-31c-27.831 0-50.44 22.297-50.975 50h-.025v38h7v20l10-20v-17.154c8.988 2.079 21.227 2.154 36 2.154 32.667 0 50-11 50-11s14 1 14 26l10 20v-20h7v-36c0-11.046-8.954-20-20-20z"/></g><path d="m256 219h-48v38.272c0 25.22 8.946 49.622 25.247 68.866l22.753 26.862 22.753-26.861c16.301-19.244 25.247-43.647 25.247-68.867v-38.272z" fill="#edeff1"/><path d="m256.644 176c-8.479 0-14.627-6.915-14.885-7.209l4.516-3.951-2.258 1.976 2.251-1.983c.046.052 4.653 5.168 10.376 5.168h.034c3.273-.012 6.447-1.748 9.433-5.16l4.516 3.951c-4.186 4.783-8.891 7.208-13.983 7.208z" fill="#fcb98b"/><path d="m274 244.5h-36c-3.314 0-6-2.686-6-6v-26c0-3.314 2.686-6 6-6h36c3.314 0 6 2.686 6 6v26c0 3.314-2.686 6-6 6z" fill="#ffb0aa"/><path d="m274 310.667-17.807-6-18.193 6v-66.167h36z" fill="#ffb0aa"/><path d="m238 244.5h36v3.833h-36z" fill="#ff7b7b"/><path d="m228 207.375s.375 4.562 4 5.125v26s-9.243-3.721-10.559-17.86z" fill="#ffb0aa"/><path d="m230 237.335c1.181.832 2 1.165 2 1.165v-26c-.801-.124-1.435-.45-1.95-.873-.031.287-.05.578-.05.873z" fill="#ff7b7b"/><path d="m284 207.375s-.375 4.562-4 5.125v26s9.243-3.721 10.559-17.86z" fill="#ffb0aa"/><path d="m282 237.335c-1.181.832-2 1.165-2 1.165v-26c.801-.124 1.435-.45 1.95-.873.031.287.05.578.05.873z" fill="#ff7b7b"/><path d="m266.167 268.333h-4c0-14.355-4.561-18.46-6.174-19.462-1.572.979-6.159 5.066-6.159 19.462h-4c0-20.448 8.666-23.338 9.653-23.6l.513-.136.513.136c.988.263 9.654 3.152 9.654 23.6z" fill="#ff7b7b"/><path d="m256 353s-34.559-45.086-34.559-85.876v-46.484l6.559-13.265v-20.299l-71 22.424 27.5 21.5-20.752 37.333z" fill="#466089"/><path d="m256 353s34.559-45.086 34.559-85.876v-46.484l-6.559-13.265v-20.299l71 22.424-27.5 21.5 20.752 37.333z" fill="#466089"/><path d="m348 324.333h6v182.667h-6z" fill="#466089"/></svg>