<svg id="Layer_1" enable-background="new 0 0 512 512" height="512" viewBox="0 0 512 512" width="512" xmlns="http://www.w3.org/2000/svg"><path d="m431.633 192.056-6.299 19.57c-1.633 5.073-2.747 10.298-3.325 15.595l2.713 15.451-5.722 17.78 31.714 10.207 5.722-17.778 11.224-10.977c2.618-4.634 4.76-9.521 6.393-14.586l6.311-19.577z" fill="#ffd3b3"/><path d="m439.507 209.364-12.19-3.897-1.982 6.159c-.502 1.559-.937 3.137-1.341 4.723.54.294 1.111.548 1.718.743l13.364 4.301c3.362 1.082 6.881.27 9.418-1.831.447-.114.887-.251 1.313-.425 1.204 1.916 3.058 3.437 5.376 4.183s4.711.592 6.807-.262c1.204 1.916 3.059 3.437 5.376 4.183 2.313.744 4.702.593 6.795-.256l6.204-19.245-36.548-11.763z" fill="#fcb98b"/><g fill="#ffd3b3"><path d="m443.816 195.977-12.183-3.921 11.473-35.648c1.075-3.34 4.654-5.177 7.995-4.102l.086.028c3.34 1.075 5.177 4.654 4.102 7.995z"/><path d="m444.137 216.014-.086-.028c-3.34-1.075-5.177-4.654-4.102-7.995l6.791-21.1c1.075-3.34 4.654-5.177 7.995-4.102l.087.028c3.34 1.075 5.177 4.654 4.102 7.995l-6.791 21.1c-1.076 3.34-4.655 5.177-7.996 4.102z"/><path d="m422.675 205.64c1.083-3.364 4.688-5.214 8.052-4.131l13.364 4.301c3.364 1.083 5.214 4.688 4.131 8.052-1.083 3.364-4.688 5.214-8.052 4.131l-13.364-4.301c-3.364-1.083-5.214-4.687-4.131-8.052z"/><path d="m456.32 219.935-.087-.028c-3.34-1.075-5.177-4.654-4.102-7.995l5.97-18.55c1.075-3.34 4.654-5.177 7.995-4.102l.087.028c3.34 1.075 5.177 4.654 4.102 7.995l-5.97 18.55c-1.075 3.34-4.654 5.177-7.995 4.102z"/><path d="m468.503 223.856-.086-.028c-3.34-1.075-5.177-4.654-4.102-7.995l4.329-13.45c1.075-3.34 4.654-5.177 7.995-4.102l.087.028c3.34 1.075 5.177 4.654 4.102 7.995l-4.329 13.45c-1.076 3.341-4.656 5.177-7.996 4.102z"/></g><path d="m442.027 248.167-2.896-.78c.171-.634 4.321-15.567 16.447-18.673l.744 2.906c-10.447 2.676-14.258 16.408-14.295 16.547z" fill="#fcb98b"/><path d="m463.563 261.67-47.772-14.651-16.039 52.298-9.615-23.551c-6.528-17.735-21.029-31.358-39.137-36.766l-47-15-20 154v129.094h67v-177.094l20.784 50.799c11.222 27.437 51.2 23.709 57.156-5.329l.636-3.1-.026-.063.076.023z" fill="#6e83b7"/><path d="m396.168 290.539-10.634 34.675c-3.501 11.415-5.279 23.288-5.274 35.228l.001 3.025 19.556-63.99z" fill="#466089"/><path d="m208 224 20 154v129h56v-129l20-154-20-15h-56z" fill="#edeff1"/><path d="m245 491h22v16h-22z" fill="#ffe352"/><path d="m228 491h17v16h-17z" fill="#466089"/><path d="m267 491h17v16h-17z" fill="#466089"/><path d="m284 209-28 28-28-28-20 15 1 8 24.935 37.809 18.757-26.683 3.308-1.654 3.308 1.654 18.757 26.683 24.935-37.809 1-8z" fill="#d3d3d3"/><path d="m256 182h-28v27l28 28 28-28v-27z" fill="#ffd3b3"/><path d="m228 196c8.334 3.721 18.296 6 28 6s19.666-2.279 28-6v-14h-56z" fill="#fcb98b"/><path d="m196 93h-6.95c-5.916 0-10.539 5.108-9.95 10.995l2 20c.511 5.112 4.813 9.005 9.95 9.005h4.95z" fill="#ffd3b3"/><path d="m316 93h6.95c5.916 0 10.539 5.108 9.95 10.995l-2 20c-.511 5.112-4.813 9.005-9.95 9.005h-4.95z" fill="#ffd3b3"/><path d="m161 507h67v-129l-20-154-47 9z" fill="#6e83b7"/><path d="m187.983 222.405 12.194-3.658c3.204-.961 6.574.883 7.493 4.099l.33 1.154 20 154-42-79 12-34-15.853-28.103c-3.15-5.585-.305-12.65 5.836-14.492z" fill="#466089"/><path d="m324.017 222.405-12.194-3.658c-3.204-.961-6.574.883-7.493 4.099l-.33 1.154-20 154 42-79-12-34 15.853-28.103c3.15-5.585.305-12.65-5.836-14.492z" fill="#466089"/><path d="m228 209-20 15 26.011 38.746 15.989-22.746 6-3z" fill="#edeff1"/><path d="m284 209 20 15-26.011 38.746-15.989-22.746-6-3z" fill="#edeff1"/><path d="m256 67h-60v67c0 33.137 26.863 60 60 60s60-26.863 60-60v-67z" fill="#ffd3b3"/><circle cx="234.2" cy="120.094" fill="#6e83b7" r="6"/><circle cx="278.2" cy="120.094" fill="#6e83b7" r="6"/><path d="m262.488 149.463h-13.939l1.457-17.487 5.979.498-.916 10.989h7.419z" fill="#fcb98b"/><path d="m245.876 97.915s-18.589-7.713-34.41 5.933c0 0 18.392-4.746 30.85 1.187z" fill="#6e83b7"/><path d="m263.926 97.915s18.589-7.713 34.41 5.933c0 0-18.392-4.746-30.85 1.187z" fill="#6e83b7"/><path d="m303 37c0-17.673-14.327-32-32-32h-31c-27.831 0-50.44 22.297-50.975 50h-.025v38h7v20l10-20v-17.154c8.988 2.079 21.227 2.154 36 2.154 32.667 0 50-11 50-11s14 1 14 26l10 20v-20h7v-36c0-11.046-8.954-20-20-20z" fill="#6e83b7"/><path d="m283.201 241.451-27.201 8.549v10 10l27.201 8.549c3.866 1.215 7.799-1.672 7.799-5.724v-4.353c0-2.941-.685-5.842-2-8.472 1.315-2.631 2-5.531 2-8.472v-4.353c0-4.052-3.933-6.939-7.799-5.724z" fill="#ffb0aa"/><path d="m228.799 241.451 27.201 8.549v10 10l-27.201 8.549c-3.866 1.215-7.799-1.672-7.799-5.724v-4.353c0-2.941.685-5.842 2-8.472-1.315-2.631-2-5.531-2-8.472v-4.353c0-4.052 3.933-6.939 7.799-5.724z" fill="#ffb0aa"/><path d="m256 260v10l15.248 4.792c.482-1.171.752-2.45.752-3.792v-22c0-1.342-.27-2.622-.752-3.792l-15.248 4.792z" fill="#ff7b7b"/><path d="m256 260v10l-15.248 4.792c-.482-1.17-.752-2.45-.752-3.792v-22c0-1.342.27-2.622.752-3.792l15.248 4.792z" fill="#ff7b7b"/><path d="m262 277h-12c-3.314 0-6-2.686-6-6v-22c0-3.314 2.686-6 6-6h12c3.314 0 6 2.686 6 6v22c0 3.314-2.686 6-6 6z" fill="#ffb0aa"/><path d="m121.516 112.178c2.011-2.816 1.543-6.7-1.08-8.958-2.874-2.474-7.227-2.067-9.593.896 0 0-4.328 5.891-7.282 9.876-.181.244-.38.47-.586.687-1.411 1.487-3.374 2.319-5.429 2.311l7.68 17.802 8.101-11.148z" fill="#ffd3b3"/><path d="m94.897 115.193.002.002c2.514 2.514 6.63 2.384 8.979-.285l97.758-111.045c.509-.578.481-1.452-.063-1.996-.57-.57-1.494-.57-2.064 0l-104.612 104.613c-2.406 2.405-2.406 6.306 0 8.711z" fill="#466089"/><path d="m98.732 141.951.001-.002c1.906-.516 2.948-1.97 3.98-3.414l2.576-3.688-7.712-17.829c-.356-.001-.729-.034-1.088-.087l-.11-.022c-2.286-.34-4.27-1.767-5.321-3.825l-3.604-7.061c-1.358-2.694-.965-5.941.999-8.232l12.043-11.153 4.235 2.145-.345 2.726c-.394 3.114 1.669 6.008 4.741 6.652 3.36.704 6.628-1.536 7.182-4.924l.774-4.73c.628-3.838-1.223-7.657-4.624-9.543l-8.57-4.752c-3.223-1.787-7.2-1.481-10.112.777l-4.479 3.474-10.905 9.231-16.386 3.026c-3.206.592-5.773 2.999-6.571 6.16l-7.03 27.868c-.82 3.252-.386 6.693 1.217 9.64l2.999 5.512c1.002 1.841 1.273 3.992.761 6.025l-1.65 6.541 37.941 9.534 3.367-13.01c.773-3.066 2.947-5.555 5.691-7.039z" fill="#ffd3b3"/><path d="m94.06 116.136c-1.271-.681-2.328-1.735-3.001-3.052l-3.604-7.061c-1.358-2.694-.965-5.941.999-8.232l4.762-4.41c-.201-.168-.407-.332-.622-.486-.252-.191-.507-.359-.738-.494l-11.052-6.75-2.412 2.042-16.386 3.026c-3.206.592-5.773 2.999-6.571 6.16l-1.848 7.323 3.88 3.798c.331.324.465.803.353 1.251l-1.574 6.238c-.843 3.344.542 6.84 3.448 8.698l.961.615c1.831 1.164 3.938 1.779 6.093 1.779.599 0 1.203-.048 1.788-.143l16.531-2.625c4.228-.674 7.681-3.652 8.993-7.677z" fill="#fcb98b"/><path d="m55.435 96.881-.997 3.953 5.129 5.023c1.094 1.071 1.536 2.643 1.162 4.128l-1.573 6.237c-.527 2.087.342 4.278 2.155 5.437l.954.61c1.727 1.098 3.785 1.531 5.802 1.206l16.528-2.624c3.298-.527 5.958-2.96 6.774-6.194l2.66-10.543c.842-3.339-.459-6.84-3.221-8.81-.166-.128-.335-.239-.515-.345l-11.9-7.268-16.389 3.029c-3.202.587-5.772 3-6.569 6.161z" fill="#ffd3b3"/><path d="m83.182 122.559-2.909-.733 4.65-18.432c.359-1.423-.216-2.933-1.431-3.757l-5.177-3.51 1.684-2.483 5.177 3.511c2.255 1.53 3.322 4.332 2.656 6.973z" fill="#fcb98b"/><path d="m71.448 124.758-2.909-.733 4.547-18.022c.327-1.295-.099-2.641-1.111-3.512l-3.309-2.849 1.957-2.273 3.309 2.849c1.879 1.618 2.669 4.116 2.063 6.52z" fill="#fcb98b"/><path d="m68.533 149.819h13.818v3h-13.818z" fill="#fcb98b" transform="matrix(.244 -.97 .97 .244 -89.728 187.482)"/><path d="m161 233-85 14 20-86-52-15-29.537 116.635c-4.801 18.957 9.527 37.365 29.081 37.365h117.456z" fill="#6e83b7"/><path d="m253 277h6v214h-6z" fill="#d3d3d3"/><path d="m256.644 176c-8.479 0-14.627-6.915-14.885-7.209l4.516-3.951-2.258 1.976 2.251-1.983c.046.052 4.653 5.168 10.376 5.168h.034c3.273-.012 6.447-1.748 9.434-5.16l4.516 3.951c-4.187 4.783-8.892 7.208-13.984 7.208z" fill="#fcb98b"/></svg>