<svg id="Layer_1" enable-background="new 0 0 512 512" height="512" viewBox="0 0 512 512" width="512" xmlns="http://www.w3.org/2000/svg"><path d="m351.989 253.302-61.989-18.302-34 72v-1l-34-71-47.056 12.343c-9.165 2.404-17.631 6.944-24.704 13.25l-25.606 22.827 29.636-85.415-55.002-14.914-41.956 124.255c-4.518 13.379-1.478 28.155 7.953 38.664 11.679 13.014 30.574 16.702 46.29 9.036l55.445-27.046 13 98-11 81.047h87v-.047h87l-11-81 11-78v159h52v-196.154c0-26.594-17.505-50.014-43.011-57.544z" fill="#6e83b7"/><path d="m306 213c7.5 12 29 23 29 23-15.5-35-14-86-14-86h-65-65s1.5 51-14 86c0 0 21.5-11 29-23 0 0-1.5 15-13 23 0 0 21-6.75 28-23l8 19h27 27l8-19c7 16.25 28 23 28 23-11.5-8-13-23-13-23z" fill="#466089"/><path d="m256 307 34-72-7-3v-30h-54v30l-7 3z" fill="#ffd3b3"/><path d="m314 113h6.598c6.041 0 10.703 5.315 9.915 11.305l-2.597 19.739c-.524 3.981-3.917 6.956-7.932 6.956h-5.984z" fill="#ffd3b3"/><path d="m229 215.396c8.282 3.598 17.41 5.604 27 5.604s18.718-2.006 27-5.604v-13.396h-54z" fill="#fcb98b"/><path d="m314 153c0 32.033-25.967 58-58 58s-58-25.967-58-58v-76h116z" fill="#ffd3b3"/><g fill="#6e83b7"><path d="m245.937 124.078s-17.793-7.382-32.937 5.679c0 0 17.604-4.543 29.529 1.136z"/><path d="m264.811 128.531s15.435-11.527 33.323-2.585c0 0-18.181-.08-28.346 8.354z"/><path d="m199.161 214.888c-.054.037-.107.075-.161.112 0 0 .059.065.161-.112z"/><path d="m313 215c-.054-.038-.107-.075-.161-.112.102.177.161.112.161.112z"/><path d="m256 26c-35.899 0-65 29.102-65 65v22h11c0 90.559-2.217 100.797-2.839 101.888 7.58-5.308 12.839-11.598 12.839-64.888 0-53.667 44-59 44-59s44 5.333 44 59c0 53.29 5.259 59.58 12.839 64.888-.583-1.021-2.564-10.085-2.813-85.617l3.974 10.729v-27h7v-22c0-35.898-29.101-65-65-65z"/></g><path d="m259 170h-9.842l3.931-15.728 5.822 1.456-2.069 8.272h2.158z" fill="#fcb98b"/><path d="m284 163h-10c-2.209 0-4-1.791-4-4 0-2.209 1.791-4 4-4h10c2.209 0 4 1.791 4 4 0 2.209-1.791 4-4 4z" fill="#ffc69f"/><path d="m228 163h10c2.209 0 4-1.791 4-4 0-2.209-1.791-4-4-4h-10c-2.209 0-4 1.791-4 4 0 2.209 1.791 4 4 4z" fill="#ffc69f"/><path d="m236 139c-.022 0-.044.003-.067.003-.62.028-5.516.18-7.933-2.003 0 0 .619 2.919 2.817 4.987-.516.887-.817 1.914-.817 3.013 0 3.314 2.686 6 6 6s6-2.686 6-6-2.686-6-6-6z" fill="#6e83b7"/><path d="m276 139c.022 0 .044.003.067.003.62.028 5.516.18 7.933-2.003 0 0-.619 2.919-2.817 4.987.516.886.817 1.913.817 3.013 0 3.314-2.686 6-6 6s-6-2.686-6-6 2.686-6 6-6z" fill="#6e83b7"/><path d="m246 181h20l-.106.425c-1.113 4.452-5.113 7.575-9.701 7.575h-.384c-4.589 0-8.589-3.123-9.701-7.575z" fill="#edeff1"/><path d="m280 300 40-12-10.85-47.346-19.15-5.654-34 72v62l46-33z" fill="#859cc1"/><path d="m198 113h-6.598c-6.041 0-10.703 5.315-9.915 11.305l2.597 19.739c.524 3.981 3.917 6.956 7.932 6.956h5.984z" fill="#ffd3b3"/><path d="m259.318 299.974-3.318 7.026v62l25.151-18.043z" fill="#6e83b7"/><path d="m295 506h-8v-113l8 6z" fill="#466089"/><circle cx="273" cy="414" fill="#466089" r="8"/><circle cx="273" cy="448" fill="#466089" r="8"/><circle cx="273" cy="482" fill="#466089" r="8"/><circle cx="215.1" cy="138.338" fill="#6e83b7" r="38.333"/><circle cx="215.1" cy="138.338" fill="#80d6fb" r="29.333"/><path d="m90.673 142.654h92v16h-92z" fill="#6e83b7" transform="matrix(.99 -.144 .144 .99 -20.307 21.296)"/><path d="m109.969 123.394-4.636 23.104c-.969 4.83-1.541 9.729-1.711 14.649-.075 2.175.194 4.349.809 6.436l4.223 14.327-1.041 3.444 36.872 9.998 1.589-5.914 9.427-11.569c1.353-1.66 2.436-3.524 3.197-5.526 1.765-4.641 3.145-9.42 4.125-14.292l4.645-23.09z" fill="#ffd3b3"/><path d="m149.914 147.864 14.369 2.92-1.462 7.267c-.37 1.84-.817 3.661-1.301 5.472-.704-.008-1.417-.074-2.133-.218l-15.768-3.172c-3.966-.798-7.031-3.577-8.394-7.097-.384-.364-.747-.747-1.075-1.159-2.275 1.242-4.98 1.726-7.714 1.176-2.735-.55-5.042-2.042-6.66-4.068-2.275 1.242-4.98 1.727-7.715 1.176-2.729-.549-5.033-2.036-6.65-4.056l4.558-22.712 43.123 8.675z" fill="#fcb98b"/><path d="m140.659 151.741 1.916.386c3.44.692 6.79-1.536 7.482-4.976l5.373-26.71c.692-3.44-1.536-6.79-4.976-7.482l-1.916-.386c-3.44-.692-6.79 1.536-7.482 4.976l-5.373 26.71c-.692 3.44 1.536 6.79 4.976 7.482z" fill="#ffd3b3"/><path d="m154.839 155.561 1.916.386c3.44.692 6.79-1.536 7.482-4.976l5.373-26.71c.692-3.44-1.536-6.79-4.976-7.482l-1.916-.386c-3.44-.692-6.79 1.536-7.482 4.976l-5.373 26.71c-.692 3.44 1.536 6.79 4.976 7.482z" fill="#ffd3b3"/><path d="m135.643 143.954c2.339-4.263 7.259-6.718 12.271-5.709l3.677.74-1.552 7.717c-.799 3.969-4.664 6.54-8.633 5.741-3.921-.789-6.471-4.571-5.763-8.489z" fill="#fcb98b"/><path d="m151.591 138.985-1.777 8.935c-.692 3.44 1.536 6.79 4.976 7.482l1.916.386c3.44.692 6.79-1.536 7.482-4.976l1.929-9.183z" fill="#fcb98b"/><path d="m168.635 154.511.386-1.916c.692-3.44-1.536-6.79-4.976-7.482l-17.684-3.557c-3.44-.692-6.79 1.536-7.482 4.976l-.386 1.916c-.692 3.44 1.536 6.79 4.976 7.482l17.684 3.557c3.44.692 6.79-1.536 7.482-4.976z" fill="#ffd3b3"/><path d="m126.285 148.85 1.916.386c3.44.692 6.79-1.536 7.482-4.976l4.768-23.701c.692-3.44-1.536-6.79-4.976-7.482l-1.916-.386c-3.44-.692-6.79 1.536-7.482 4.976l-4.768 23.701c-.692 3.44 1.536 6.79 4.976 7.482z" fill="#ffd3b3"/><path d="m111.911 145.958 1.916.386c3.44.692 6.79-1.536 7.482-4.976l3.557-17.684c.692-3.44-1.536-6.79-4.976-7.482l-1.916-.386c-3.44-.692-6.79 1.536-7.482 4.976l-3.557 17.684c-.692 3.44 1.536 6.79 4.976 7.482z" fill="#ffd3b3"/><path d="m129.303 186.162-3.879-.975c.04-.158 3.841-15.891-4.961-24.268l2.758-2.898c10.504 9.999 6.267 27.406 6.082 28.141z" fill="#fcb98b"/><path d="m232 300-22 36 85 63-39-92-34-72-19 5-11 48z" fill="#859cc1"/><path d="m124.634 283.42-9.634 26.58 25.898-41.079z" fill="#466089"/><path d="m256.123 100.816h93.158c4.393 0 5.575-6.054 1.504-7.706l-25.975-10.544h-68.81-68.81l-25.976 10.544c-4.07 1.652-2.888 7.706 1.504 7.706h93.158z" fill="#466089"/><path d="m324.686 82.566-14.778-57.379c-3.067-11.91-13.807-20.234-26.105-20.234-4.731 0-9.378 1.245-13.475 3.61l-.854.493c-8.339 4.813-18.611 4.813-26.95 0l-.854-.493c-4.097-2.365-8.744-3.61-13.475-3.61-12.298 0-23.038 8.324-26.105 20.234l-14.778 57.379z" fill="#466089"/><path d="m192.821 61.182-5.507 21.384h137.372l-5.507-21.384z" fill="#6e83b7"/></svg>