<svg id="Layer_1" enable-background="new 0 0 512 512" height="512" viewBox="0 0 512 512" width="512" xmlns="http://www.w3.org/2000/svg"><path d="m23.564 120.794h29.222v83.493h-29.222z" fill="#edeff1" transform="matrix(.904 -.429 .429 .904 -65.977 32.045)"/><path d="m20.955 143.768h25.048v17.742h-25.048z" fill="#80d6fb" transform="matrix(.904 -.429 .429 .904 -62.186 29.077)"/><path d="m29.453 161.684h25.048v17.742h-25.048z" fill="#46bee8" transform="matrix(.904 -.429 .429 .904 -69.045 34.448)"/><path d="m12.457 125.852h25.048v17.742h-25.048z" fill="#9ce5ff" transform="matrix(.904 -.429 .429 .904 -55.328 23.706)"/><path d="m74.144 187.543c-.293-3.122-2.919-5.506-6.055-5.497-3.437.01-6.178 2.872-6.041 6.306 0 0 .53 6.604.871 11.088.021.275.019.548.006.819-.085 1.856-.935 3.591-2.348 4.805l15.825 7.64-1.065-12.444z" fill="#ffd3b3"/><path d="m32.212 147.929h83.493v29.222h-83.493z" fill="#edeff1" transform="matrix(.429 -.904 .904 .429 -104.595 159.702)"/><path d="m69.783 140.115h17.742v25.048h-17.742z" fill="#ff7b7b" transform="matrix(.429 -.904 .904 .429 -92.965 158.287)"/><path d="m61.285 158.031h17.742v25.048h-17.742z" fill="#f76161" transform="matrix(.429 -.904 .904 .429 -114.009 160.847)"/><path d="m41.456 116.766h29.222v83.493h-29.222z" fill="#edeff1"/><path d="m43.543 138.683h25.048v17.742h-25.048z" fill="#98ca69"/><path d="m43.543 158.512h25.048v17.742h-25.048z" fill="#75aa40"/><path d="m76.2 221.461v-.002c1-1.485.851-3.099.701-4.701l-.423-4.055-15.863-7.64c-.245.21-.519.409-.797.586l-.089.05c-1.768 1.124-3.974 1.323-5.915.536l-6.66-2.699c-2.529-1.04-4.187-3.498-4.201-6.233l1.633-14.787 4.174-1.044 1.381 2.072c1.578 2.367 4.709 3.126 7.195 1.744 2.72-1.511 3.629-4.985 1.999-7.635l-2.277-3.7c-1.848-3.002-5.381-4.521-8.831-3.794l-8.691 1.83c-3.268.688-5.812 3.258-6.467 6.533l-1.007 5.038-1.994 12.795-9.431 11.796c-1.845 2.308-2.176 5.48-.847 8.119l11.719 23.265c1.368 2.715 3.707 4.815 6.554 5.882l5.326 1.997c1.779.667 3.241 1.98 4.096 3.677l2.751 5.461 31.655-15.98-5.413-10.912c-1.29-2.559-1.278-5.554-.278-8.199z" fill="#ffd3b3"/><path d="m74.629 125.852h25.048v17.742h-25.048z" fill="#ffb0aa" transform="matrix(.904 .429 -.429 .904 66.148 -24.352)"/><path d="m43.543 118.853h25.048v17.742h-25.048z" fill="#bfea8c"/><path d="m430.939 240.572 5.496-10.912c1.289-2.56 1.396-5.555.291-8.199l-.001-.002c-.62-1.485-.865-3.099-.715-4.701l2.744-29.215c.293-3.122 2.919-5.506 6.055-5.497 3.437.01 6.178 2.872 6.041 6.306l-.885 11.027c-.201 2.504.999 4.913 3.119 6.261 1.859 1.182 4.175 1.386 6.212.549l6.45-2.652c2.529-1.04 4.185-3.498 4.199-6.233l.091-17.96c.006-1.907-.711-3.746-2.006-5.147l-3.303-3.572c-1.9-2.055-1.759-5.266.313-7.147l.098-.089c2.174-1.973 5.514-1.775 7.422.422 2.977 3.427 6.789 7.809 6.789 7.809.99 1.138 1.617 2.547 1.8 4.045l1.679 20.691 9.431 11.796c1.845 2.308 2.176 5.48.847 8.119l-11.719 23.265c-1.368 2.715-3.707 4.815-6.554 5.882l-5.326 1.997c-1.779.667-3.241 1.98-4.096 3.676l-2.751 5.461z" fill="#ffd3b3"/><path d="m492.261 208.151-9.431-11.796-.25-3.083-11.669-1.948c-.292-.054-.579-.092-.876-.111-.02-.002-.039-.001-.058-.003l-.031 6.094c-.014 2.735-1.67 5.193-4.199 6.233l-6.449 2.652c-1.396.574-2.922.647-4.343.262-1.523 3.63-.907 7.824 1.656 10.875l9.762 11.599c1.656 1.978 3.982 3.277 6.558 3.659l1.017.148c.359.052.726.079 1.089.079 2.86 0 5.438-1.588 6.727-4.144l2.623-5.208c.144-.285.431-.474.749-.493l4.749-.291 3.226-6.404c1.326-2.64.995-5.812-.85-8.12z" fill="#fcb98b"/><path d="m493.106 216.273-1.663 3.3-6.495.398c-1.385.085-2.621.899-3.245 2.139l-2.623 5.207c-.878 1.743-2.772 2.728-4.703 2.446l-1.016-.148c-1.834-.272-3.501-1.197-4.69-2.616l-9.767-11.605c-1.947-2.318-2.326-5.563-.966-8.263l4.433-8.801c1.404-2.788 4.373-4.415 7.434-4.125.189.011.372.035.557.069l12.466 2.082 9.432 11.8c1.847 2.3 2.176 5.478.846 8.117z" fill="#ffd3b3"/><g fill="#fcb98b"><path d="m461.413 218.688-2.68-1.35 7.751-15.387c1.137-2.257 3.579-3.575 6.1-3.278l5.63.667-.354 2.979-5.63-.667c-1.247-.148-2.495.512-3.066 1.648z"/><path d="m468.147 227.158-2.68-1.35 7.579-15.046c1.032-2.049 3.096-3.32 5.39-3.32h.018l3.958.012-.01 3-3.957-.012c-.003 0-.006 0-.009 0-1.153 0-2.191.639-2.71 1.669z"/><path d="m440.835 240.199h12.524v3h-12.524z" transform="matrix(.45 -.893 .893 .45 30.098 532.26)"/><path d="m57.176 206.633c-1.123.162-2.283.04-3.362-.397l-6.66-2.699c-2.529-1.04-4.187-3.498-4.2-6.233l.577-5.224c-2.951.436-11.921 1.733-13.093 1.902l-.37 2.373-9.431 11.797c-1.845 2.308-2.176 5.48-.847 8.119l2.747 5.453 5.625.333c.577.035 1.066.395 1.326.912l2.623 5.207c1.319 2.618 3.994 4.174 6.894 3.751l.854-.068c1.053-.156 2.059-.476 3-.95 1.197-.603 2.234-1.429 3.093-2.455l9.752-11.601c2.41-2.866 2.944-6.819 1.472-10.22z"/></g><path d="m19.792 216.273 1.663 3.3 6.495.398c1.385.085 2.621.899 3.245 2.139l2.623 5.207c.878 1.743 2.772 2.728 4.703 2.446l1.016-.148c1.834-.272 3.501-1.197 4.69-2.616l9.767-11.605c1.947-2.318 2.326-5.563.966-8.263l-4.433-8.801c-1.404-2.788-4.373-4.415-7.434-4.125-.189.011-.372.035-.557.069l-12.466 2.082-9.432 11.8c-1.847 2.3-2.175 5.478-.846 8.117z" fill="#ffd3b3"/><path d="m51.485 218.688-7.751-15.387c-.571-1.135-1.807-1.798-3.066-1.648l-5.63.667-.354-2.979 5.63-.667c2.517-.297 4.963 1.02 6.1 3.278l7.751 15.387z" fill="#fcb98b"/><path d="m44.751 227.158-7.579-15.046c-.519-1.031-1.557-1.669-2.71-1.669-.003 0-.006 0-.01 0l-3.956.012-.01-3 3.957-.012c2.299-.002 4.373 1.266 5.408 3.32l7.579 15.046z" fill="#fcb98b"/><path d="m64.302 235.437h3v12.524h-3z" fill="#fcb98b" transform="matrix(.893 -.45 .45 .893 -101.708 55.45)"/><path d="m256.449 213.826c-15.563 0-28.179-12.616-28.179-28.179v-28.179h56.358v28.179c0 15.563-12.616 28.179-28.179 28.179z" fill="#ffd3b3"/><path d="m228.27 172.695c8.349 3.884 18.051 6.062 28.179 6.062s19.829-2.178 28.179-6.062v-15.227h-56.358z" fill="#fcb98b"/><path d="m256.2 5.094c-33.372 0-60.532 26.85-60.532 59.97v43.352.562c0 33.121 27.161 59.97 60.532 59.97s60.532-26.85 60.532-59.97v-.562-43.351c.001-33.121-27.16-59.971-60.532-59.971z" fill="#ffd3b3"/><path d="m195.668 68.757h-6.176c-6.2 0-11.033 5.373-10.378 11.539l1.797 16.919c.676 6.369 6.049 11.201 12.454 11.201h2.303z" fill="#ffd3b3"/><path d="m316.733 68.757h6.176c6.2 0 11.033 5.373 10.378 11.539l-1.797 16.919c-.676 6.369-6.049 11.201-12.454 11.201h-2.303z" fill="#ffd3b3"/><path d="m262.711 124.984h-14.987l4.966-17.274 5.766 1.658-2.764 9.616h7.019z" fill="#fcb98b"/><path d="m246.013 77.107s-19.68-7.369-35.484 6.262c0 0 20.482-5.218 32.353 2.087z" fill="#6e83b7"/><path d="m266.886 77.107s19.68-7.369 35.484 6.262c0 0-20.482-5.218-32.353 2.087z" fill="#6e83b7"/><path d="m256.2 5.094c-33.372 0-60.532 26.85-60.532 59.97v23.859l7.745-11.705c.878-1.366 1.418-3.023 1.099-4.615-6.74-33.641 26.278-56.248 33.924-43.505 7.828 13.046 17.764 12.204 17.764 12.204s9.936.842 17.764-12.204c7.646-12.743 40.664 9.864 33.924 43.505-.319 1.593.221 3.249 1.099 4.615l7.745 11.705v-23.858c.001-33.121-27.16-59.971-60.532-59.971z" fill="#6e83b7"/><path d="m282.644 104.729c-8.479 0-14.627-6.915-14.885-7.209l4.516-3.951-2.258 1.975 2.251-1.983c.046.052 4.653 5.168 10.376 5.168h.034c3.273-.011 6.447-1.748 9.434-5.16l4.516 3.951c-4.187 4.784-8.892 7.209-13.984 7.209z" fill="#fcb98b"/><path d="m230.255 104.729c-5.093 0-9.797-2.425-13.983-7.209l4.516-3.951c2.996 3.424 6.182 5.16 9.468 5.16 5.695 0 10.324-5.109 10.369-5.16l4.516 3.951c-.259.295-6.407 7.209-14.886 7.209z" fill="#fcb98b"/><path d="m271.974 152.598h-6c0-3.935-5.326-7.437-9.524-7.437s-9.523 3.501-9.523 7.437h-6c0-7.567 8.345-13.437 15.523-13.437s15.524 5.87 15.524 13.437z" fill="#fcb98b"/><path d="m465.181 190.865h-16.698v-93.929l8.349-12.524 8.349 12.524z" fill="#ffe352"/><path d="m465.181 190.865h-16.698v-93.929l8.349-12.524 8.349 12.524z" fill="#ffe352"/><path d="m454.744 91.718h4.175v78.274h-4.175z" fill="#6e83b7"/><path d="m450.272 95.594 2.385-1.789 4.175 2.088 4.174-2.088 2.386 1.789.537-.536-7.097-10.646-7.097 10.646z" fill="#ffd3b3"/><path d="m448.483 174.167h16.699v16.699h-16.699z" fill="#ffb0aa"/><path d="m448.483 169.992h16.699v4.175h-16.699z" fill="#d3d3d3"/><path d="m455.044 87.094h3.576l-1.788-2.682z" fill="#6e83b7"/><path d="m231.306 212.497-1.896-5.692c6.127-2.042 6.298-12.702 6.298-12.809h6c-.001.614-.119 15.074-10.402 18.501z" fill="#466089"/><path d="m281.593 212.497c-10.283-3.427-10.401-17.887-10.401-18.501h6-3l3-.006c0 .107.216 10.788 6.298 12.815z" fill="#466089"/><path d="m253.2 200.094h6v14h-6z" fill="#466089"/><path d="m466.2 249.094-31-17-9.079 4.887-32.38 64.16-29.4-58.492c-8.853-17.612-25.033-30.415-44.209-34.981l-27.485-6.544c-4.701-1.119-8.02-5.32-8.02-10.153v-12.63s-9.654 6.262-28.179 6.262-28.179-6.262-28.179-6.262v12.63c0 4.833-3.318 9.033-8.019 10.153l-27.486 6.544c-19.176 4.566-35.356 17.369-44.209 34.981l-29.4 58.492-32.38-64.16-9.033-4.768-30.7 18.116-4.99 9.223 52.359 103.75c4.955 9.821 15.137 16.059 26.099 16.059.264 0 .528-.004.793-.011 11.261-.309 20.602-7.149 25.97-17.498l15.244-30.092v175.335h187.859v-175.336l15.244 30.092c5.368 10.35 14.709 17.19 25.97 17.498.265.007.529.011.793.011 10.962 0 21.143-6.238 26.099-16.059l52.359-103.75z" fill="#6e83b7"/></svg>