<svg id="Layer_1" enable-background="new 0 0 512 512" height="512" viewBox="0 0 512 512" width="512" xmlns="http://www.w3.org/2000/svg"><path d="m303 85.875s5.333 50.458 51 58.125 31 59 6 66-30.482 16.59-31 43c-.5 25.5-68.35 35.997-102 0-28.667-30.667-34.984-66-34.984-102s34.671-65.125 34.671-65.125z" fill="#6e83b7"/><path d="m410.686 262.25 12.666-16.759c1.89-2.501 4.843-3.971 7.978-3.971h15.023l10.186-12.545c2.082-2.564 5.793-3.082 8.497-1.185 2.909 2.04 3.552 6.083 1.42 8.925l-11.103 14.804z" fill="#fcb98b"/><path d="m410.686 272.25v-10.157c0-4.872 2.533-9.394 6.688-11.939l9.444-5.784c3.121-1.911 6.866-2.525 10.434-1.709l21.26 4.863c2.063.472 4.223.277 6.169-.557l16.236-6.958c1.169-.501 2.232-1.221 3.132-2.12l12.164-12.164c1.46-1.46 3.717-1.757 5.505-.726 2.354 1.358 3.006 4.462 1.396 6.652l-11.503 15.654c-1.011 1.376-2.358 2.47-3.911 3.178l-26.037 11.867c-1.302.593-2.716.9-4.147.9h-12.829v9z" fill="#fcb98b"/><path d="m410.686 276.112v-9.162c0-5.399 3.105-10.317 7.979-12.639l14.625-6.967c2.847-1.356 6.068-1.711 9.142-1.008l25.253 5.776 19.23-8.241c1.169-.501 2.232-1.221 3.132-2.12l12.164-12.164c1.46-1.46 3.717-1.757 5.505-.726 2.354 1.359 3.006 4.462 1.396 6.652l-11.503 15.654c-1.011 1.376-2.358 2.47-3.911 3.178l-26.037 11.867c-1.302.593-2.716.9-4.147.9h-12.829v9z" fill="#fcb98b"/><path d="m410.686 280.25v-12.854c0-3.23 1.56-6.26 4.188-8.137l9.419-6.728c4.698-3.356 10.616-4.517 16.234-3.187l25.948 6.146c2.085.494 4.274.305 6.244-.539l16.197-6.942c1.169-.501 2.232-1.221 3.132-2.12l12.164-12.164c1.46-1.46 3.717-1.757 5.505-.726 2.354 1.358 3.006 4.462 1.396 6.652l-11.503 15.654c-1.011 1.376-2.358 2.47-3.911 3.178l-26.037 11.867c-1.302.593-2.716.9-4.147.9h-10.829c-1.105 0-2 .895-2 2v7z" fill="#ffd3b3"/><path d="m388.599 288.486c-6.663-17.907-21.457-31.57-39.837-36.792l-58.762-16.694h-68l-63.697 18.454c-25.651 7.432-43.303 30.923-43.303 57.63v195.916h49v-159l16 79-15 80h183l-16-80 16-79 19.87 57.955c8.815 25.709 45.401 25.049 53.283-.961l4.847-15.994z" fill="#80d6fb"/><path d="m252 270h8v80h-8z" fill="#46bee8"/><path d="m292 342h40v8h-40z" fill="#46bee8"/><path d="m180 342h40v8h-40z" fill="#46bee8"/><path d="m222 234.772h34v42l-23.419 24.175c-4.333 4.472-11.694 3.97-15.295-1.11-5.632-7.945-12.286-20.954-12.286-38.065 0 0 .625-22.5 17-27z" fill="#ffb0aa"/><path d="m290 234.772h-34v42l23.419 24.175c4.333 4.472 11.694 3.97 15.295-1.11 5.632-7.946 12.286-20.954 12.286-38.066 0 .001-.625-22.499-17-26.999z" fill="#ffb0aa"/><path d="m290 242.772v-8l-7-3v-30h-54v30l-7 3v8c0 18.778 15.222 34 34 34 18.778 0 34-15.222 34-34z" fill="#ffd3b3"/><path d="m229 215.168c8.282 3.598 17.41 5.604 27 5.604s18.718-2.006 27-5.604v-13.396h-54z" fill="#fcb98b"/><path d="m375.39 352.346 17.042-53.56 4.004 10.761-19.436 63.453c-3.206-6.412-3.784-13.822-1.61-20.654z" fill="#46bee8"/><path d="m426 389-49-16 29-96h53z" fill="#80d6fb"/><path d="m453.024 297h-54.336c-1.34 0-2.301-1.291-1.916-2.575l4.372-14.575c.508-1.692 2.065-2.851 3.831-2.851h54.336c1.34 0 2.301 1.291 1.916 2.575l-4.372 14.575c-.507 1.692-2.065 2.851-3.831 2.851z" fill="#ffb0aa"/><circle cx="256" cy="315" fill="#ffe352" r="12"/><path d="m337.6 455h-162.85l-3.75 20h170.6z" fill="#ffb0aa"/><circle cx="451" cy="192" fill="#ffe352" r="30"/><circle cx="451" cy="192" fill="#ffb236" r="24"/><path d="m454 206h-6c-4.411 0-8-3.589-8-8h4c0 2.206 1.794 4 4 4h6c2.206 0 4-1.794 4-4s-1.794-4-4-4h-6c-4.411 0-8-3.589-8-8s3.589-8 8-8h6c4.411 0 8 3.589 8 8h-4c0-2.206-1.794-4-4-4h-6c-2.206 0-4 1.794-4 4s1.794 4 4 4h6c4.411 0 8 3.589 8 8s-3.589 8-8 8z" fill="#6e83b7"/><path d="m449 174h4v6h-4z" fill="#6e83b7"/><path d="m449 204h4v6h-4z" fill="#6e83b7"/><path d="m314 113h6.598c6.041 0 10.703 5.315 9.915 11.305l-2.597 19.739c-.524 3.981-3.917 6.956-7.932 6.956h-5.984z" fill="#ffd3b3"/><path d="m198 113h-6.598c-6.041 0-10.703 5.315-9.915 11.305l2.597 19.739c.524 3.981 3.917 6.956 7.932 6.956h5.984z" fill="#ffd3b3"/><path d="m314 153c0 32.033-25.967 58-58 58s-58-25.967-58-58v-47h116z" fill="#ffd3b3"/><path d="m246 181h20l-.106.425c-1.113 4.452-5.113 7.575-9.701 7.575h-.384c-4.589 0-8.589-3.123-9.701-7.575z" fill="#edeff1"/><g fill="#6e83b7"><path d="m245.937 124.078s-17.793-7.382-32.937 5.679c0 0 17.604-4.543 29.529 1.136z"/><path d="m264.811 128.531s15.435-11.527 33.323-2.585c0 0-18.181-.08-28.346 8.354z"/><path d="m301 106 13 34v-27h7v-7z"/><path d="m211 106-13 34v-27h-7v-7z"/></g><path d="m259 170h-9.842l3.931-15.728 5.821 1.456-2.068 8.272h2.158z" fill="#fcb98b"/><path d="m284 163h-10c-2.209 0-4-1.791-4-4 0-2.209 1.791-4 4-4h10c2.209 0 4 1.791 4 4 0 2.209-1.791 4-4 4z" fill="#ffc69f"/><path d="m228 163h10c2.209 0 4-1.791 4-4 0-2.209-1.791-4-4-4h-10c-2.209 0-4 1.791-4 4 0 2.209 1.791 4 4 4z" fill="#ffc69f"/><path d="m236 139c-.022 0-.044.003-.067.003-.62.028-5.516.18-7.933-2.003 0 0 .619 2.919 2.817 4.987-.516.887-.817 1.914-.817 3.013 0 3.314 2.686 6 6 6s6-2.686 6-6-2.686-6-6-6z" fill="#6e83b7"/><path d="m273.504 143.563-3.011-2.634c.289-.331 7.17-8.078 16.628-6.786l-.541 3.963c-7.287-.991-13.019 5.393-13.076 5.457z" fill="#fcb98b"/><path d="m281.432 145.468c-4.449-1.914-9.09-1.251-9.138-1.246l-.588-3.956c.233-.035 5.825-.83 11.306 1.527z" fill="#fcb98b"/><path d="m179 94h154v12h-154z" fill="#6e83b7"/><path d="m190 5h132v89h-132z" fill="#6e83b7"/><path d="m190 76h132v18h-132z" fill="#ffb0aa"/></svg>