<svg id="Layer_1" enable-background="new 0 0 512 512" height="512" viewBox="0 0 512 512" width="512" xmlns="http://www.w3.org/2000/svg"><path d="m352.709 236.664-49.943-14.864h-46.566-46.566l-49.944 14.864c-26.969 8.027-45.459 32.821-45.459 60.959v209.471h283.937v-209.471c.001-28.138-18.489-52.932-45.459-60.959z" fill="#6e83b7"/><path d="m290.2 293.921s59-78.827 59-179.795-93-109.032-93-109.032-93 8.063-93 109.032 59 179.795 59 179.795z" fill="#6e83b7"/><path d="m256.2 259.28 21.579-18.852s56.387-43.833 56.387-118.799c0-80.034-77.966-78.534-77.966-78.534s-77.966-1.5-77.966 78.534c0 74.966 56.387 118.799 56.387 118.799z" fill="#466089"/><path d="m164.2 291.194v13.517l-7.808-7.808-4.243 4.242 12.051 12.052v193.897h6v-215.9z" fill="#466089"/><path d="m360.252 301.145-4.243-4.242-7.809 7.808v-13.517h-6v215.9h6v-193.897z" fill="#466089"/><path d="m283.458 217.844v-45.795h-54.516v45.795l-12.839 3.956c10.224 12.175 18.518 18.627 18.518 18.627l21.579 18.853 21.579-18.852s8.294-6.453 18.518-18.627z" fill="#ffd3b3"/><path d="m228.942 186.684c8.334 3.721 17.554 5.809 27.258 5.809s18.924-2.087 27.258-5.809v-14.635h-54.516z" fill="#fcb98b"/><path d="m314.123 125.587c0 31.933-25.99 57.82-57.923 57.82s-57.923-25.887-57.923-57.82v-56.891h115.846z" fill="#ffd3b3"/><circle cx="230.955" cy="106.176" fill="#6e83b7" r="5.679"/><path d="m314.123 86.868h4.264c6.799 0 12.074 5.933 11.28 12.684l-1.591 13.523c-.832 7.075-6.829 12.408-13.953 12.408z" fill="#ffd3b3"/><path d="m198.277 86.868h-4.264c-6.798 0-12.074 5.933-11.28 12.684l1.591 13.523c.832 7.075 6.829 12.408 13.953 12.408z" fill="#ffd3b3"/><path d="m261.879 140.977h-13.482l1.406-16.878 5.98.498-.866 10.38h6.962z" fill="#fcb98b"/><path d="m318.2 70.414v16.68h-4v13.39l-2.82-2.27c-2.59-2.16-4.18-5.36-4.18-8.73v-20.79s-25 7.65-51 7.65-51-7.65-51-7.65v20.79c0 3.37-1.59 6.57-4.18 8.73l-2.82 2.27v-13.39h-4v-16.68c22.82-28.07 62-27.32 62-27.32s39.18-.75 62 27.32z" fill="#ffb236"/><path d="m256.644 165.729c-8.479 0-14.627-6.915-14.885-7.209l4.516-3.951-2.258 1.976 2.251-1.983c.046.052 4.653 5.168 10.376 5.168h.034c3.273-.011 6.447-1.748 9.434-5.16l4.516 3.951c-4.187 4.783-8.892 7.208-13.984 7.208z" fill="#fcb98b"/><path d="m256.2 507.094h83.984c-31.964-27.085-34.694-67-34.694-67h-49.29-49.29s-2.731 39.915-34.694 67z" fill="#466089"/><path d="m245.867 351.427h-6v-47.667c0-42.596-23.041-62.712-23.273-62.91l3.875-4.581c1.037.875 25.399 21.955 25.399 67.491v47.667z" fill="#edeff1"/><path d="m212.056 235.912h12.256v6h-12.256z" fill="#466089" transform="matrix(.707 -.707 .707 .707 -105.03 224.237)"/><path d="m249.534 346.761h-14l2-12h10z" fill="#466089"/><path d="m272.533 351.427h-6v-47.667c0-45.537 24.362-66.616 25.399-67.492l3.869 4.586-1.935-2.293 1.939 2.288c-.232.198-23.273 20.314-23.273 62.91v47.668z" fill="#edeff1"/><path d="m291.216 232.783h6v12.257h-6z" fill="#466089" transform="matrix(.707 -.707 .707 .707 -82.761 278.029)"/><path d="m262.867 346.761h14l-2-12h-10z" fill="#466089"/><g fill="#6e83b7"><path d="m212.784 91.594 12.492-4.726 22.715 10.226-3.707 7.25-20.144-13.893z"/><circle cx="281.446" cy="106.176" r="5.679"/><path d="m299.617 91.594-12.492-4.726-22.715 10.226 3.707 7.25 20.144-13.893z"/></g></svg>