<svg id="Layer_1" enable-background="new 0 0 512 512" height="512" viewBox="0 0 512 512" width="512" xmlns="http://www.w3.org/2000/svg"><path d="m256.2 96h-65.2v54c0 12.703 10.297 23 23 23 0 12.703 10.297 23 23 23h19.2 19.2c12.703 0 23-10.297 23-23 12.703 0 23-10.297 23-23v-54z" fill="#6e83b7"/><path d="m229 181h54v13h-54z" fill="#fcb98b"/><path d="m314 92h6.598c6.041 0 10.703 5.315 9.915 11.305l-2.597 19.739c-.524 3.981-3.917 6.956-7.932 6.956h-5.984z" fill="#ffd3b3"/><path d="m198 92h-6.598c-6.041 0-10.703 5.315-9.915 11.305l2.597 19.739c.524 3.981 3.917 6.956 7.932 6.956h5.984z" fill="#ffd3b3"/><path d="m314 132c0 32.033-25.967 58-58 58s-58-25.967-58-58v-76h116z" fill="#ffd3b3"/><path d="m287 21h-3c-7.043-7.043-16.596-11-26.556-11h-6.444c-33.137 0-60 26.863-60 60v22h7v27l9.302-27.907c22.921-4.139 48.898-21.093 48.898-21.093s27.286 15.604 47.446 20.528l10.354 28.472v-27h7v-37c0-18.777-15.222-34-34-34z" fill="#6e83b7"/><path d="m259 149h-9.842l3.931-15.728 5.822 1.456-2.069 8.272h2.158z" fill="#fcb98b"/><path d="m266 104s16.939-7.347 33 3c0 0-13.75-3.375-30 3z" fill="#6e83b7"/><path d="m246 104s-16.939-7.347-33 3c0 0 13.75-3.375 30 3z" fill="#6e83b7"/><path d="m256 168c-6.188 0-10.306-2.292-10.479-2.39l2.957-5.221c.011.006 2.996 1.61 7.521 1.61 4.551 0 7.493-1.595 7.521-1.61l2.957 5.221c-.171.098-4.289 2.39-10.477 2.39z" fill="#fcb98b"/><path d="m284 142h-10c-2.209 0-4-1.791-4-4 0-2.209 1.791-4 4-4h10c2.209 0 4 1.791 4 4 0 2.209-1.791 4-4 4z" fill="#ffc69f"/><path d="m228 142h10c2.209 0 4-1.791 4-4 0-2.209-1.791-4-4-4h-10c-2.209 0-4 1.791-4 4 0 2.209 1.791 4 4 4z" fill="#ffc69f"/><path d="m236 118c-.022 0-.044.003-.067.003-.62.028-5.516.18-7.933-2.003 0 0 .619 2.919 2.817 4.987-.516.887-.817 1.914-.817 3.013 0 3.314 2.686 6 6 6s6-2.686 6-6-2.686-6-6-6z" fill="#6e83b7"/><path d="m276 118c.022 0 .044.003.067.003.62.028 5.516.18 7.933-2.003 0 0-.619 2.919-2.817 4.987.516.886.817 1.913.817 3.013 0 3.314-2.686 6-6 6s-6-2.686-6-6 2.686-6 6-6z" fill="#6e83b7"/><path d="m387 406c0-3.253-1.427-6.171-3.679-8.187 1.057-1.689 1.679-3.678 1.679-5.813 0-6.065-4.935-11-11-11h-27v64h24c6.065 0 11-4.935 11-11 0-1.905-.488-3.698-1.344-5.263 2.634-2.011 4.344-5.174 4.344-8.737 0-2.135-.622-4.124-1.679-5.813 2.252-2.016 3.679-4.934 3.679-8.187z" fill="#466089"/><path d="m125 406c0-3.253 1.427-6.171 3.679-8.187-1.057-1.689-1.679-3.678-1.679-5.813 0-6.065 4.935-11 11-11h27v64h-24c-6.065 0-11-4.935-11-11 0-1.905.488-3.698 1.344-5.263-2.634-2.011-4.344-5.174-4.344-8.737 0-2.135.622-4.124 1.679-5.813-2.252-2.016-3.679-4.934-3.679-8.187z" fill="#466089"/><path d="m357.595 231.938-67.535-18.958-34.06 43.02-34.06-43.02-67.535 18.958c-23.301 6.541-39.405 27.788-39.405 51.991v62.071 71c0 15.464 12.536 28 28 28h22v-99-14l9 52-14 123h96 96l-14-123 9-52v14 99h22c15.464 0 28-12.536 28-28v-71-62.071c0-24.203-16.104-45.45-39.405-51.991z" fill="#6e83b7"/><path d="m255.928 507h90.86l4.402-7.172c1.937-3.157 2.96-6.789 2.955-10.493l-.248-160.309h-97.897-97.896l-.248 160.309c-.006 3.704 1.017 7.336 2.955 10.493l4.402 7.172h90.86z" fill="#ffe352"/><path d="m178.023 487.231.163-138.204h155.792l-.163 138.251c-.013 10.896-8.85 19.723-19.746 19.723h-116.3c-10.915-.001-19.759-8.856-19.746-19.77z" fill="#ffb236"/><g fill="#ffd3b3"><path d="m170 399h-32c-3.866 0-7-3.134-7-7 0-3.866 3.134-7 7-7h32c3.866 0 7 3.134 7 7 0 3.866-3.134 7-7 7z"/><path d="m168 427h-30c-3.866 0-7-3.134-7-7 0-3.866 3.134-7 7-7h30c3.866 0 7 3.134 7 7 0 3.866-3.134 7-7 7z"/><path d="m165 441h-24c-3.866 0-7-3.134-7-7 0-3.866 3.134-7 7-7h24c3.866 0 7 3.134 7 7 0 3.866-3.134 7-7 7z"/><path d="m172 413h-36c-3.866 0-7-3.134-7-7 0-3.866 3.134-7 7-7h36c3.866 0 7 3.134 7 7 0 3.866-3.134 7-7 7z"/><path d="m342 399h32c3.866 0 7-3.134 7-7 0-3.866-3.134-7-7-7h-32c-3.866 0-7 3.134-7 7 0 3.866 3.134 7 7 7z"/><path d="m344 427h30c3.866 0 7-3.134 7-7 0-3.866-3.134-7-7-7h-30c-3.866 0-7 3.134-7 7 0 3.866 3.134 7 7 7z"/><path d="m347 441h24c3.866 0 7-3.134 7-7 0-3.866-3.134-7-7-7h-24c-3.866 0-7 3.134-7 7 0 3.866 3.134 7 7 7z"/><path d="m340 413h36c3.866 0 7-3.134 7-7 0-3.866-3.134-7-7-7h-36c-3.866 0-7 3.134-7 7 0 3.866 3.134 7 7 7z"/></g><path d="m283 211v-17h-27-27v17l-7.06 1.98 34.06 43.02 34.06-43.02z" fill="#466089"/><path d="m201.465 216.704-14 3.889c-.866.24-1.465 1.029-1.465 1.927v64.48h18v-68.369c0-1.322-1.261-2.281-2.535-1.927z" fill="#efa470"/><path d="m310.535 216.704 14 3.889c.866.24 1.465 1.029 1.465 1.927v64.48h-18v-68.369c0-1.322 1.261-2.281 2.535-1.927z" fill="#efa470"/><path d="m342 311v-28h-86-86v28l-5 7.5-7 10.5h98 98z" fill="#edeff1"/><path d="m176.685 319 3.315-4.972v-21.028h152v21.028l3.315 4.972v10h-158.607z" fill="#d3d3d3"/><path d="m191 74h130v18h-130z" fill="#d3d3d3"/></svg>