<svg id="Layer_1" enable-background="new 0 0 512 512" height="512" viewBox="0 0 512 512" width="512" xmlns="http://www.w3.org/2000/svg"><path d="m274 149.304s28 11 33 37c3.728 19.388 14.667 40.667 41 41 0 0-38.667 16.333-65-14 0 0-15.667-17-36-10z" fill="#ffb236"/><path d="m321 84.926v47.062c0 35.127-28.684 63.469-63.809 63.082-.395-.004-1.986-.004-2.381 0-35.126.387-63.81-27.955-63.81-63.082v-47.062z" fill="#ffb236"/><path d="m256 99.721h72c15.333-17.833 16-39 16-39 0-52-88-53-88-53s-88 1-88 53c0 0 .667 21.167 16 39z" fill="#edeff1"/><path d="m283 197.333v-15.5h-54v15.5l27 27z" fill="#ffd3b3"/><path d="m277 255.294-21-30.961-21 30.961 21 68.039z" fill="#d3d3d3"/><path d="m314 92h6.598c6.041 0 10.703 5.315 9.915 11.305l-2.597 19.739c-.524 3.981-3.917 6.956-7.932 6.956h-5.984z" fill="#ffd3b3"/><path d="m198 92h-6.598c-6.041 0-10.703 5.315-9.915 11.305l2.597 19.739c.524 3.981 3.917 6.956 7.932 6.956h5.984z" fill="#ffd3b3"/><path d="m229 194.396c8.282 3.598 17.41 5.604 27 5.604s18.718-2.006 27-5.604v-13.396h-54z" fill="#fcb98b"/><path d="m314 132c0 32.033-25.967 58-58 58s-58-25.967-58-58v-60.667h116z" fill="#ffd3b3"/><path d="m357.595 231.938-67.535-18.958-34.06 110.353-34.06-110.353-67.535 18.958c-23.301 6.541-39.405 27.788-39.405 51.991v223.071h282v-223.071c0-24.203-16.104-45.45-39.405-51.991zm-192.595 231.133v-131.071l9 52zm173-79.071 9-52v131.071z" fill="#6e83b7"/><path d="m287 355.721 8-6v-15h-8-8v15z" fill="#ffb0aa"/><circle cx="287" cy="361.721" fill="#ffe352" r="8"/><path d="m305 355.721 8-6v-15h-8-8v15z" fill="#98ca69"/><circle cx="305" cy="361.721" fill="#ffe352" r="8"/><path d="m323 355.721 8-6v-15h-8-8v15z" fill="#80d6fb"/><circle cx="323" cy="361.721" fill="#ffe352" r="8"/><path d="m324 255-9.838-35.253-24.104-6.766-34.058 110.352-34.058-110.352-24.104 6.766-9.838 35.253 28 40-9 24 49 52.667 49-52.667-9-24z" fill="#859cc1"/><path d="m198 119 12-28h-12z" fill="#ffb236"/><path d="m314 119-12-33h12z" fill="#ffb236"/><path d="m259 149h-9.843l3.933-15.728 5.82 1.456-2.067 8.272h2.157z" fill="#fcb98b"/><path d="m266 104s16.939-7.347 33 3c0 0-13.75-3.375-30 3z" fill="#6e83b7"/><path d="m246 104s-16.939-7.347-33 3c0 0 13.75-3.375 30 3z" fill="#6e83b7"/><path d="m256 168c-6.188 0-10.307-2.292-10.479-2.39l2.957-5.221c.011.006 2.995 1.61 7.521 1.61 4.551 0 7.493-1.595 7.521-1.61l2.957 5.221c-.17.098-4.289 2.39-10.477 2.39z" fill="#fcb98b"/><path d="m284 142h-10c-2.209 0-4-1.791-4-4 0-2.209 1.791-4 4-4h10c2.209 0 4 1.791 4 4 0 2.209-1.791 4-4 4z" fill="#ffc69f"/><path d="m228 142h10c2.209 0 4-1.791 4-4 0-2.209-1.791-4-4-4h-10c-2.209 0-4 1.791-4 4 0 2.209 1.791 4 4 4z" fill="#ffc69f"/><path d="m236 118c-.022 0-.044.003-.067.003-.62.028-5.516.18-7.933-2.003 0 0 .619 2.919 2.817 4.987-.516.887-.817 1.914-.817 3.013 0 3.314 2.686 6 6 6s6-2.686 6-6-2.686-6-6-6z" fill="#6e83b7"/><path d="m276 118c.022 0 .044.003.067.003.62.028 5.516.18 7.933-2.003 0 0-.619 2.919-2.817 4.987.516.886.817 1.913.817 3.013 0 3.314-2.686 6-6 6s-6-2.686-6-6 2.686-6 6-6z" fill="#6e83b7"/><path d="m256 76.658s-11.667 14.342-46 14.342h-12v1h-6v-17.5h64z" fill="#ffb236"/><path d="m256 76.658s11.667 14.342 46 14.342h12v1h6v-17.5h-64z" fill="#ffb236"/><g fill="#ffe352"><circle cx="256" cy="407.721" r="9"/><circle cx="256" cy="446.721" r="9"/><circle cx="256" cy="485.721" r="9"/></g><path d="m320 85.721v-15s-21.333-17-64-17-64 17-64 17v15z" fill="#466089"/><path d="m256 69.721c40.667 0 64 16 64 16l-8.561 6.726c-3.524 2.769-7.875 4.274-12.356 4.274h-43.083-43.083c-4.481 0-8.833-1.505-12.356-4.274l-8.561-6.726s23.333-16 64-16z" fill="#6e83b7"/><circle cx="256" cy="39.721" fill="#ffe352" r="20"/><path d="m229 197.333 27 27-21 30.961-13.058-42.313z" fill="#edeff1"/><path d="m283 197.333-27 27 21 30.961 13.058-42.313z" fill="#edeff1"/></svg>