<svg id="Layer_1" enable-background="new 0 0 512 512" height="512" viewBox="0 0 512 512" width="512" xmlns="http://www.w3.org/2000/svg"><path d="m256.2 110.999h-65.2v54.001c0 12.702 10.297 23 23 23 0 12.702 10.297 23 23 23h19.2 19.2c12.703 0 23-10.298 23-23 12.703 0 23-10.298 23-23v-54.001z" fill="#6e83b7"/><path d="m283 202.999v-28h-54v28l27 53z" fill="#ffd3b3"/><path d="m236 370h40v-33l6.415-56.586-26.415-24.415-26.415 24.415 6.415 56.586z" fill="#edeff1"/><path d="m314 91.999h6.598c6.041 0 10.703 5.315 9.915 11.305l-2.597 19.739c-.524 3.981-3.917 6.956-7.932 6.956h-5.984z" fill="#ffd3b3"/><path d="m198 91.999h-6.598c-6.041 0-10.703 5.315-9.915 11.305l2.597 19.739c.524 3.981 3.917 6.956 7.932 6.956h5.984z" fill="#ffd3b3"/><path d="m229 194.395c8.282 3.598 17.41 5.604 27 5.604s18.718-2.006 27-5.604v-13.396h-54z" fill="#fcb98b"/><path d="m314 131.999c0 32.033-25.967 58-58 58s-58-25.967-58-58v-76h116z" fill="#ffd3b3"/><path d="m236 337v33h-64.42l-6.58-38v38h-50v-86.07c0-24.199 16.1-45.449 39.41-51.989l67.53-18.96z" fill="#6e83b7"/><path d="m236 337v33h-5.35l-23.65-51 9-24-28-40 9.84-35.25 24.1-6.77z" fill="#859cc1"/><path d="m397 283.93v86.07h-50v-38l-6.58 38h-64.42v-33l14.06-124.02 67.53 18.96c23.31 6.54 39.41 27.79 39.41 51.99z" fill="#6e83b7"/><path d="m296 295 9 24-23.65 51h-5.35v-33l14.06-124.02 24.1 6.77 9.84 35.25z" fill="#859cc1"/><path d="m287 15.999h-3c-7.043-7.043-16.596-11-26.556-11h-6.444c-33.137 0-60 26.863-60 60v27h7v27l11.693-27.284c51.786-2.559 66.307-21.716 66.307-21.716s12.404 14.615 27.462 20.02l10.538 28.98v-27h7v-42c0-18.777-15.222-34-34-34z" fill="#6e83b7"/><path d="m259 148.999h-9.842l3.931-15.728 5.822 1.456-2.069 8.272h2.158z" fill="#fcb98b"/><path d="m266 103.999s16.939-7.347 33 3c0 0-13.75-3.375-30 3z" fill="#6e83b7"/><path d="m246 103.999s-16.939-7.347-33 3c0 0 13.75-3.375 30 3z" fill="#6e83b7"/><path d="m284 141.999h-10c-2.209 0-4-1.791-4-4 0-2.209 1.791-4 4-4h10c2.209 0 4 1.791 4 4 0 2.209-1.791 4-4 4z" fill="#ffc69f"/><path d="m228 141.999h10c2.209 0 4-1.791 4-4 0-2.209-1.791-4-4-4h-10c-2.209 0-4 1.791-4 4 0 2.209 1.791 4 4 4z" fill="#ffc69f"/><path d="m236 117.999c-.022 0-.044.003-.067.003-.62.028-5.516.18-7.933-2.003 0 0 .619 2.919 2.817 4.987-.516.886-.817 1.913-.817 3.013 0 3.314 2.686 6 6 6s6-2.686 6-6-2.686-6-6-6z" fill="#6e83b7"/><path d="m276 117.999c.022 0 .044.003.067.003.62.028 5.516.18 7.933-2.003 0 0-.619 2.919-2.817 4.987.516.886.817 1.913.817 3.013 0 3.314-2.686 6-6 6s-6-2.686-6-6 2.686-6 6-6z" fill="#6e83b7"/><path d="m229 202.999 27 53-26.415 24.415-7.643-67.434z" fill="#d3d3d3"/><path d="m283 202.999-27 53 26.415 24.415 7.643-67.434z" fill="#d3d3d3"/><path d="m246 162.25h20l-.106.425c-1.113 4.452-5.113 7.575-9.701 7.575h-.384c-4.589 0-8.589-3.123-9.701-7.575z" fill="#edeff1"/><path d="m98 370h316v48h-316z" fill="#efa470"/><path d="m116 418h280v89h-280z" fill="#efa470"/><path d="m116 418h280v10h-280z" fill="#e2935d"/><path d="m304 370h-100l7.236-14.472c1.694-3.388 5.157-5.528 8.944-5.528h67.639c3.788 0 7.25 2.14 8.944 5.528z" fill="#466089"/><circle cx="277" cy="360" fill="#ff7b7b" r="7"/><path d="m253 203h6v147h-6z" fill="#466089"/><path d="m256 218c-5.523 0-10-4.477-10-10v-10c0-5.523 4.477-10 10-10 5.523 0 10 4.477 10 10v10c0 5.523-4.477 10-10 10z" fill="#6e83b7"/></svg>