<svg id="Layer_1" enable-background="new 0 0 512 512" height="512" viewBox="0 0 512 512" width="512" xmlns="http://www.w3.org/2000/svg"><path d="m319.783 130s-3.283 64 29.217 64c3.5 0 11.938.25 17-13 0 0 .333 33-34 33s-76 0-76 0-41.667 0-76 0-34-33-34-33c5.062 13.25 13.5 13 17 13 32.5 0 29.217-64 29.217-64z" fill="#6e83b7"/><path d="m306 218v101h-50-50v-101z" fill="#edeff1"/><path d="m348 231-42-13v27.855c0 26.576-16.424 50.386-41.266 59.826l-8.734 3.319-8.734-3.319c-24.843-9.44-41.266-33.25-41.266-59.826v-27.855l-42 13v98l16 67-12 111h88 88l-12-111 16-67z" fill="#80d6fb"/><path d="m256 352-3.171-3.266c-3.766-3.879-8.942-6.068-14.349-6.068h-45.172v107.667h62.692z" fill="#edeff1"/><path d="m256 352 3.171-3.266c3.766-3.879 8.942-6.068 14.349-6.068h45.172v107.667h-62.692z" fill="#edeff1"/><path d="m256 352h-62.692v98.333h62.692 62.692v-98.333z" fill="#6e83b7"/><path d="m269 345.833h43.615v4h-43.615z" fill="#d3d3d3"/><path d="m199.385 345.833h43.615v4h-43.615z" fill="#d3d3d3"/><path d="m170 385 8.308-2.528 1.526-6.612c.916-3.968 3.83-7.173 7.693-8.461l5.781-1.927v17 49l-11.396 3.159z" fill="#ffd3b3"/><path d="m237.95 398.113-.072-.677c-.363-3.42-2.656-6.16-5.678-7.275.956-1.621 1.426-3.547 1.212-5.562-.53-4.99-5.006-8.605-9.995-8.075l-32.403 3.444c-4.99.53-8.605 5.005-8.075 9.995.235 2.207 1.243 4.143 2.725 5.573-2.29 1.798-3.637 4.692-3.307 7.801l.072.677c.273 2.565 1.634 4.745 3.57 6.149-1.229 1.74-1.862 3.91-1.619 6.195.39 3.669 2.916 6.588 6.209 7.669-.404 1.201-.569 2.503-.427 3.846.53 4.99 5.005 8.605 9.995 8.075l24.832-2.64c4.99-.53 8.605-5.005 8.075-9.995-.169-1.587-.739-3.033-1.596-4.253 2.349-1.871 3.726-4.859 3.385-8.066-.167-1.566-.722-2.997-1.56-4.206 3.094-1.614 5.048-4.996 4.657-8.675z" fill="#ffd3b3"/><path d="m125.264 265.247-55.708 131.009c-15.991 28.282 8.585 62.288 40.457 55.98l72.987-14.236-13-56-37 9 31-62v-98l-1.881.605c-16.587 5.331-30.037 17.609-36.855 33.642z" fill="#80d6fb"/><path d="m342 385-8.308-2.528-1.526-6.612c-.916-3.968-3.83-7.173-7.693-8.461l-5.781-1.927v17 49l11.396 3.159z" fill="#ffd3b3"/><path d="m274.05 398.113.072-.677c.363-3.42 2.656-6.16 5.678-7.275-.956-1.621-1.426-3.547-1.212-5.562.53-4.99 5.006-8.605 9.995-8.075l32.403 3.444c4.99.53 8.605 5.005 8.075 9.995-.235 2.207-1.243 4.143-2.725 5.573 2.29 1.798 3.637 4.692 3.307 7.801l-.072.677c-.273 2.565-1.634 4.745-3.57 6.149 1.229 1.74 1.862 3.91 1.619 6.195-.39 3.669-2.916 6.588-6.209 7.669.404 1.201.569 2.503.427 3.846-.53 4.99-5.005 8.605-9.995 8.075l-24.832-2.64c-4.99-.53-8.605-5.005-8.075-9.995.169-1.587.739-3.033 1.596-4.253-2.349-1.871-3.726-4.859-3.385-8.066.167-1.566.722-2.997 1.56-4.206-3.094-1.614-5.048-4.996-4.657-8.675z" fill="#ffd3b3"/><path d="m386.736 265.247 55.708 131.009c15.991 28.282-8.585 62.288-40.457 55.98l-72.987-14.236 13-56 37 9-31-62v-98l1.881.605c16.587 5.331 30.037 17.609 36.855 33.642z" fill="#80d6fb"/><path d="m385.333 388.316c2.78-1.155 5.294-2.316 10.667-2.316v-6c-11.087 0-17.834 4.196-19.725 5.55l2.725 5.45s11.549 7.127 16.281 17.269l5.438-2.537c-3.738-8.008-10.189-15.149-15.386-17.416z" fill="#46bee8"/><path d="m126.667 388.316c-2.78-1.155-5.294-2.316-10.667-2.316v-6c11.087 0 17.834 4.196 19.725 5.55l-2.725 5.45s-11.549 7.127-16.281 17.269l-5.438-2.537c3.737-8.008 10.189-15.149 15.386-17.416z" fill="#46bee8"/><path d="m256.2 286 34-73-7-2v-36h-54v36l-7 2z" fill="#ffd3b3"/><path d="m229.2 194.396c8.282 3.598 17.41 5.604 27 5.604s18.718-2.006 27-5.604v-13.396h-54z" fill="#fcb98b"/><path d="m256.2 286-25-8-18 21 4-67-21-27 33-11v17l-7 2z" fill="#d3d3d3"/><path d="m256.2 286 25-8 18 21-4-67 21-27-33-11v17l7 2z" fill="#d3d3d3"/><path d="m198.2 92h-6.598c-6.041 0-10.703 5.315-9.915 11.305l2.597 19.739c.524 3.981 3.917 6.956 7.932 6.956h5.984z" fill="#ffd3b3"/><path d="m229.2 194.396c8.282 3.598 17.41 5.604 27 5.604s18.718-2.006 27-5.604v-13.396h-54z" fill="#fcb98b"/><path d="m314.2 132c0 32.033-25.967 58-58 58s-58-25.967-58-58v-76h116z" fill="#ffd3b3"/><path d="m321.2 70v22h-26.29l-5.71-15-5.71 15h-21.58l-5.71-15-5.71 15h-21.58l-5.71-15-5.71 15h-26.29v-22c0-35.898 29.101-65 65-65 35.899 0 65 29.101 65 65z" fill="#6e83b7"/><path d="m256.2 32.5c26.632 0 50.215 12.974 64.823 32.936-.243-3.495-.761-6.911-1.535-10.232-13.564-20.534-36.836-34.086-63.288-34.086-26.452 0-49.724 13.552-63.288 34.085-.774 3.321-1.292 6.738-1.535 10.233 14.608-19.962 38.192-32.936 64.823-32.936z" fill="#80d6fb"/><path d="m198.2 131 10-39h-10z" fill="#6e83b7"/><path d="m259.2 149h-9.842l3.932-15.728 5.82 1.456-2.067 8.272h2.157z" fill="#fcb98b"/><path d="m247.955 103.594s-17.411-6.146-32.71 5.298c0 0 13.481-4.327 30.136.897z" fill="#6e83b7"/><path d="m264.045 103.594s17.411-6.146 32.71 5.298c0 0-13.481-4.327-30.136.897z" fill="#6e83b7"/><path d="m256.2 168c-6.188 0-10.306-2.292-10.479-2.39l2.957-5.221c.011.006 2.996 1.61 7.521 1.61 4.551 0 7.493-1.595 7.521-1.61l2.957 5.221c-.17.098-4.288 2.39-10.477 2.39z" fill="#fcb98b"/><path d="m284.2 142h-10c-2.209 0-4-1.791-4-4 0-2.209 1.791-4 4-4h10c2.209 0 4 1.791 4 4 0 2.209-1.79 4-4 4z" fill="#ffc69f"/><path d="m228.2 142h10c2.209 0 4-1.791 4-4 0-2.209-1.791-4-4-4h-10c-2.209 0-4 1.791-4 4 0 2.209 1.791 4 4 4z" fill="#ffc69f"/><path d="m236.2 118c-.022 0-.044.003-.067.003-.62.028-5.516.18-7.933-2.003 0 0 .619 2.919 2.817 4.987-.516.886-.817 1.913-.817 3.013 0 3.314 2.686 6 6 6s6-2.686 6-6-2.686-6-6-6z" fill="#6e83b7"/><path d="m276.2 118c.022 0 .044.003.067.003.62.028 5.516.18 7.933-2.003 0 0-.619 2.919-2.817 4.987.516.886.817 1.913.817 3.013 0 3.314-2.686 6-6 6s-6-2.686-6-6 2.687-6 6-6z" fill="#6e83b7"/><path d="m314.2 92h6.598c6.041 0 10.703 5.315 9.915 11.305l-2.597 19.739c-.524 3.981-3.917 6.956-7.932 6.956h-5.984z" fill="#ffd3b3"/><path d="m314.2 131-10-39h10z" fill="#6e83b7"/></svg>