<svg id="Layer_1" enable-background="new 0 0 512 512" height="512" viewBox="0 0 512 512" width="512" xmlns="http://www.w3.org/2000/svg"><path d="m349.721 466.167 7.029-7.167 24.554-56.491 32.532 20.243-33.836 48.248-4 36h-32v-26.829c0-5.237 2.054-10.265 5.721-14.004z" fill="#ffd3b3"/><path d="m166.333 199h182v57h-182z" fill="#ffe352"/><path d="m351 199h-190c-5.523 0-10-4.477-10-10v-32c0-5.523 4.477-10 10-10h190c5.523 0 10 4.477 10 10v32c0 5.523-4.477 10-10 10z" fill="#6e83b7"/><path d="m162.279 466.167-7.029-7.167-24.554-56.491-32.532 20.243 33.836 48.248 4 36h32v-26.829c0-5.237-2.054-10.265-5.721-14.004z" fill="#ffd3b3"/><path d="m447.292 363.378-59.721-103.353c-7.447-12.888-19.419-22.548-33.59-27.103l-5.981-1.922-45-14-47 26-47-26-45 14-5.981 1.922c-14.171 4.555-26.143 14.215-33.59 27.103l-59.721 103.353c-3.538 6.122-3.58 13.658-.11 19.819l9.82 17.728 49.11-29.817-1.084-3.108 41.556-65 16 93-12 111h88 88l-12-111 16-93 41.556 65-1.084 3.108 49.111 29.817 9.82-17.728c3.469-6.161 3.427-13.697-.111-19.819z" fill="#6e83b7"/><path d="m149.75 482h4v25h-4z" fill="#fcb98b"/><path d="m145.5 486.582h4v11.336h-4z" fill="#fcb98b" transform="matrix(.662 -.75 .75 .662 -319.197 277.168)"/><path d="m252 242h8v265h-8z" fill="#466089"/><path d="m273 301h60v8h-60z" fill="#466089"/><path d="m179 301h60v8h-60z" fill="#466089"/><path d="m283 181v14l-27 48-27-48v-14z" fill="#ffd3b3"/><path d="m229.2 194.396c8.282 3.598 17.41 5.604 27 5.604s18.718-2.006 27-5.604v-13.396h-54z" fill="#fcb98b"/><path d="m283 194.396v-13.396h-54v13.396c8.282 3.598 17.41 5.604 27 5.604s18.718-2.006 27-5.604z" fill="#fcb98b"/><path d="m321 129v7c0 22.091-17.909 40-40 40h-25-25c-22.091 0-40-17.909-40-40v-7z" fill="#ffb236"/><path d="m314.2 132c0 32.033-25.967 58-58 58s-58-25.967-58-58v-46h116z" fill="#ffd3b3"/><path d="m259.2 149h-9.842l3.932-15.728 5.821 1.456-2.069 8.272h2.158z" fill="#fcb98b"/><path d="m247.955 103.594s-17.411-6.146-32.71 5.298c0 0 13.481-4.327 30.136.897z" fill="#6e83b7"/><path d="m264.045 103.594s17.411-6.146 32.71 5.298c0 0-13.481-4.327-30.136.897z" fill="#6e83b7"/><path d="m198.2 92h-6.598c-6.041 0-10.703 5.315-9.915 11.305l2.597 19.739c.524 3.981 3.917 6.956 7.932 6.956h5.984z" fill="#ffd3b3"/><path d="m256.2 168c-6.188 0-10.306-2.292-10.479-2.39l2.957-5.221c.011.006 2.996 1.61 7.521 1.61 4.551 0 7.493-1.595 7.521-1.61l2.957 5.221c-.171.098-4.289 2.39-10.477 2.39z" fill="#fcb98b"/><path d="m284.2 142h-10c-2.209 0-4-1.791-4-4 0-2.209 1.791-4 4-4h10c2.209 0 4 1.791 4 4 0 2.209-1.79 4-4 4z" fill="#ffc69f"/><path d="m228.2 142h10c2.209 0 4-1.791 4-4 0-2.209-1.791-4-4-4h-10c-2.209 0-4 1.791-4 4 0 2.209 1.791 4 4 4z" fill="#ffc69f"/><path d="m236.2 118c-.022 0-.044.003-.067.003-.62.028-5.516.18-7.933-2.003 0 0 .619 2.919 2.817 4.987-.516.886-.817 1.913-.817 3.013 0 3.314 2.686 6 6 6s6-2.686 6-6-2.686-6-6-6z" fill="#6e83b7"/><path d="m276.2 118c.022 0 .044.003.067.003.62.028 5.516.18 7.933-2.003 0 0-.619 2.919-2.817 4.987.516.886.817 1.913.817 3.013 0 3.314-2.686 6-6 6s-6-2.686-6-6 2.687-6 6-6z" fill="#6e83b7"/><path d="m314.2 92h6.598c6.041 0 10.703 5.315 9.915 11.305l-2.597 19.739c-.524 3.981-3.917 6.956-7.932 6.956h-5.984z" fill="#ffd3b3"/><path d="m73.073 406.419 11.969 19.734c1.155 1.904 3.643 2.498 5.533 1.322l48.5-30.18c1.841-1.146 2.434-3.549 1.337-5.419l-11.359-19.371c-1.13-1.926-3.618-2.555-5.526-1.396l-49.11 29.817c-1.887 1.145-2.489 3.604-1.344 5.493z" fill="#859cc1"/><path d="m358.25 482h4v25h-4z" fill="#fcb98b"/><path d="m358.832 490.25h11.336v4h-11.336z" fill="#fcb98b" transform="matrix(.75 -.662 .662 .75 -234.485 364.239)"/><path d="m438.927 406.419-11.969 19.734c-1.155 1.904-3.643 2.498-5.533 1.322l-48.5-30.18c-1.841-1.146-2.434-3.549-1.337-5.419l11.359-19.371c1.13-1.926 3.618-2.555 5.526-1.396l49.111 29.817c1.886 1.145 2.488 3.604 1.343 5.493z" fill="#859cc1"/><path d="m209 217 13 58 34-32-27-48z" fill="#859cc1"/><path d="m303 217-13 58-34-32 27-48z" fill="#859cc1"/><g fill="#ffb236"><path d="m339.93 349.94-3.13 18.18-12.936-11.185c-4.359-3.769-6.863-9.246-6.863-15.008v-124.927h16v117.875c0 5.792 2.531 11.294 6.928 15.064z"/><path d="m172.07 349.94 3.13 18.18 12.936-11.185c4.359-3.769 6.863-9.246 6.863-15.008v-124.927h-16v117.875c0 5.792-2.531 11.294-6.928 15.064z"/><path d="m226.626 86 2.284 6h21.58l2.284-6z"/><path d="m191.2 86v6h7v39l10-39h9.29l2.284-6z"/><path d="m292.626 86 2.284 6h9.29l10 39v-39h7v-6z"/><path d="m259.626 86 2.284 6h21.58l2.284-6z"/></g><path d="m323 73-10-68h-114l-10 68-32 13h198z" fill="#6e83b7"/><path d="m191.609 55-2.609 18h134l-2.609-18z" fill="#466089"/></svg>