<svg id="Layer_1" enable-background="new 0 0 512 512" height="512" viewBox="0 0 512 512" width="512" xmlns="http://www.w3.org/2000/svg"><path d="m403.244 295.15c-.04-26.645-17.866-50.066-43.756-57.491l-74.445-21.351-27.453 39.876-27.453-39.876-74.445 21.351c-25.89 7.425-43.716 30.847-43.756 57.491l-.113 124.914c-.031 17.682 14.463 32.031 32.353 32.031h20.401l.103 54.905h238.676z" fill="#6e83b7"/><path d="m204.312 223.213-27.494 7.978 36.127 110.809-8.55 19.547 51.709 77.404-.104-42.451z" fill="#466089"/><path d="m307.688 223.213 27.494 7.978-36.127 110.809 8.55 19.547-51.709 77.404.104-42.451z" fill="#466089"/><path d="m256 223.213h-51.688l51.688 173.287 51.688-173.287h-3.105z" fill="#edeff1"/><path d="m283.258 216.094-27.258 23.528-27.258-23.528v-37.045h54.516z" fill="#ffd3b3"/><path d="m228.742 193.684c8.334 3.721 17.554 5.809 27.258 5.809s18.924-2.087 27.258-5.809v-14.635h-54.516z" fill="#fcb98b"/><path d="m314.027 132.587c0 31.933-25.99 57.82-57.923 57.82s-57.923-25.887-57.923-57.82v-73.587h115.846z" fill="#ffd3b3"/><circle cx="234.2" cy="116.15" fill="#6e83b7" r="6"/><circle cx="278.2" cy="116.15" fill="#6e83b7" r="6"/><path d="m246.104 163.094h20l-.106.425c-1.113 4.452-5.113 7.575-9.701 7.575h-.384c-4.589 0-8.589-3.123-9.701-7.575z" fill="#edeff1"/><path d="m261.782 147.977h-14.235l5.68-19.232 5.753 1.699-3.406 11.533h6.208z" fill="#fcb98b"/><path d="m245.882 98.507s-17.793-7.382-32.937 5.679c0 0 17.604-4.543 29.529 1.136z" fill="#6e83b7"/><path d="m266.325 98.507s17.793-7.382 32.937 5.679c0 0-17.604-4.543-29.529 1.136z" fill="#6e83b7"/><path d="m314.027 91.962h4.264c6.798 0 12.074 5.933 11.28 12.684l-1.591 13.523c-.832 7.075-6.829 12.408-13.953 12.408z" fill="#ffd3b3"/><path d="m198.181 91.962h-4.264c-6.799 0-12.074 5.933-11.28 12.684l1.591 13.523c.832 7.075 6.829 12.408 13.953 12.408z" fill="#ffd3b3"/><path d="m164 287h6v110h-6z" fill="#466089"/><path d="m253 235.15h6v117.85h-6z" fill="#d3d3d3"/><path d="m256 239.622 3.308 1.655 18.757 26.682 29.623-44.746-3.688-1.063-20.742-15-27.258 28-27.258-28-20.742 15-3.688 1.063 29.623 44.746 18.757-26.682z" fill="#d3d3d3"/><path d="m228.742 207.15-20.742 15 26.011 38.746 15.989-22.746 6-3z" fill="#edeff1"/><path d="m283.258 207.15 20.742 15-26.011 38.746-15.989-22.746-6-3z" fill="#edeff1"/><path d="m283.201 239.601-27.201 8.549v10 10l27.201 8.549c3.866 1.215 7.799-1.672 7.799-5.724v-4.353c0-2.941-.685-5.842-2-8.472 1.315-2.631 2-5.531 2-8.472v-4.353c0-4.052-3.933-6.939-7.799-5.724z" fill="#6e83b7"/><path d="m228.799 239.601 27.201 8.549v10 10l-27.201 8.549c-3.866 1.215-7.799-1.672-7.799-5.724v-4.353c0-2.941.685-5.842 2-8.472-1.315-2.631-2-5.531-2-8.472v-4.353c0-4.052 3.933-6.939 7.799-5.724z" fill="#6e83b7"/><path d="m256 258.15v10l15.248 4.792c.482-1.171.752-2.45.752-3.792v-22c0-1.342-.27-2.622-.752-3.792l-15.248 4.792z" fill="#466089"/><path d="m256 258.15v10l-15.248 4.792c-.482-1.171-.752-2.45-.752-3.792v-22c0-1.342.27-2.622.752-3.792l15.248 4.792z" fill="#466089"/><path d="m262 275.15h-12c-3.314 0-6-2.686-6-6v-22c0-3.314 2.686-6 6-6h12c3.314 0 6 2.686 6 6v22c0 3.314-2.686 6-6 6z" fill="#6e83b7"/><path d="m342 287h6v220h-6z" fill="#466089"/><g fill="#ffd3b3"><path d="m307.096 426.935v23.274h-36.916c-7.969 0-14.43-6.46-14.43-14.43v-23.382c0-7.969 6.46-14.43 14.43-14.43h36.916z"/><path d="m287.63 411.078h21.109c3.62 0 6.555-2.935 6.555-6.555 0-3.62-2.935-6.555-6.555-6.555h-21.109c-3.62 0-6.555 2.935-6.555 6.555-.001 3.62 2.934 6.555 6.555 6.555z"/><path d="m286.588 437.098h23.79c3.62 0 6.555-2.935 6.555-6.555 0-3.62-2.935-6.555-6.555-6.555h-23.79c-3.62 0-6.555 2.935-6.555 6.555-.001 3.62 2.934 6.555 6.555 6.555z"/><path d="m289.046 450.209h18.874c3.62 0 6.555-2.935 6.555-6.555 0-3.621-2.935-6.555-6.555-6.555h-18.874c-3.62 0-6.555 2.935-6.555 6.555 0 3.62 2.935 6.555 6.555 6.555z"/><path d="m285.991 423.987h24.387c3.62 0 6.555-2.935 6.555-6.555 0-3.62-2.935-6.555-6.555-6.555h-24.387c-3.62 0-6.555 2.935-6.555 6.555 0 3.62 2.935 6.555 6.555 6.555z"/><path d="m286.434 391.253h-.008c-3.472 0-6.85 1.135-9.618 3.231l-8.058 6.102h27.25v-5.333c0-2.209-1.791-4-4-4z"/><path d="m247.75 405h21v38h-21z"/></g><path d="m257.79 405c-3.739 0-6.771 3.031-6.771 6.77l-.019 95.23h-100v-84.832c0-15.187 12.311-27.498 27.498-27.498h71.292c4.418 0 8 3.582 8 8z" fill="#edeff1"/><path d="m303 37c0-17.673-14.327-32-32-32h-31c-27.831 0-50.44 22.297-50.975 50h-.025v38h7v20l10-20v-17.154c8.988 2.079 21.227 2.154 36 2.154 32.667 0 50-11 50-11s14 1 14 26l10 20v-20h7v-36c0-11.046-8.954-20-20-20z" fill="#6e83b7"/></svg>