<svg id="Layer_1" enable-background="new 0 0 512 512" height="512" viewBox="0 0 512 512" width="512" xmlns="http://www.w3.org/2000/svg"><path d="m256 113h-65v165h65 65v-165z" fill="#6e83b7"/><path d="m356.64 254.483-53.64-15.483-47 97-47-97-53.64 15.483c-25.68 7.413-43.36 30.918-43.36 57.647v15.87l52 30v-10l16 48-16 111h92 92l-16-111 16-48v10l52-30v-15.87c0-26.729-17.68-50.234-43.36-57.647z" fill="#80d6fb"/><path d="m290 235 13 4-47 97-47-97 13-4z" fill="#d3d3d3"/><path d="m256 307 34-72-7-3v-36h-54v36l-7 3z" fill="#ffd3b3"/><path d="m256 19c18.038 0 33.743 8.295 41.945 20.554.033-.514.055-1.032.055-1.554 0-9.888-5.981-18.376-14.521-22.052-7.167-6.781-16.833-10.948-27.479-10.948s-20.312 4.167-27.479 10.948c-8.54 3.676-14.521 12.164-14.521 22.052 0 .522.022 1.04.055 1.554 8.202-12.259 23.907-20.554 41.945-20.554z" fill="#6e83b7"/><path d="m198 113h-6.598c-6.041 0-10.703 5.315-9.915 11.305l2.597 19.739c.524 3.981 3.917 6.956 7.932 6.956h5.984z" fill="#ffd3b3"/><path d="m314 113h6.598c6.041 0 10.703 5.315 9.915 11.305l-2.597 19.739c-.524 3.981-3.917 6.956-7.932 6.956h-5.984z" fill="#ffd3b3"/><path d="m229 215.396c8.282 3.598 17.41 5.604 27 5.604s18.718-2.006 27-5.604v-13.396h-54z" fill="#fcb98b"/><path d="m314 153c0 32.033-25.967 58-58 58s-58-25.967-58-58v-76h116z" fill="#ffd3b3"/><g fill="#6e83b7"><path d="m266 124.749s16.939-7.347 33 3c0 0-13.75-3.375-30 3z"/><path d="m246 124.749s-16.939-7.347-33 3c0 0 13.75-3.375 30 3z"/><path d="m236 138.749c-.022 0-.044.003-.067.003-.62.028-5.516.18-7.933-2.003 0 0 .619 2.919 2.817 4.987-.516.886-.817 1.913-.817 3.013 0 3.314 2.686 6 6 6s6-2.686 6-6-2.686-6-6-6z"/><path d="m276 138.749c.022 0 .044.003.067.003.62.028 5.516.18 7.933-2.003 0 0-.619 2.919-2.817 4.987.516.886.817 1.913.817 3.013 0 3.314-2.686 6-6 6s-6-2.686-6-6 2.686-6 6-6z"/></g><path d="m246 183h20l-.106.425c-1.113 4.452-5.113 7.575-9.701 7.575h-.384c-4.589 0-8.589-3.123-9.701-7.575z" fill="#edeff1"/><path d="m259 170h-9.843l3.933-15.728 5.82 1.456-2.067 8.272h2.157z" fill="#fcb98b"/><path d="m284 163h-10c-2.209 0-4-1.791-4-4 0-2.209 1.791-4 4-4h10c2.209 0 4 1.791 4 4 0 2.209-1.791 4-4 4z" fill="#ffc69f"/><path d="m228 163h10c2.209 0 4-1.791 4-4 0-2.209-1.791-4-4-4h-10c-2.209 0-4 1.791-4 4 0 2.209 1.791 4 4 4z" fill="#ffc69f"/><path d="m348 358v149h52v-179z" fill="#ffd3b3"/><path d="m164 358v149h-52v-179z" fill="#ffd3b3"/><path d="m112 328v11l52 30v-11z" fill="#ffe352"/><path d="m400 328v11l-52 30v-11z" fill="#ffe352"/><path d="m308.95 240.72c-.43 14.15-3.43 50.12-22.3 69.45-8.3 8.51-18.61 12.83-30.65 12.83s-22.35-4.32-30.65-12.83c-18.87-19.33-21.87-55.3-22.3-69.45l5.95-1.72 6-1.84c.08 9.11 1.53 46.82 18.95 64.65 6.04 6.18 13.26 9.19 22.05 9.19 8.8 0 16.02-3.01 22.07-9.21 17.45-17.89 18.86-55.55 18.93-64.64l6 1.85z" fill="#ffe352"/><circle cx="256" cy="326" fill="#ffe352" r="19"/><circle cx="256" cy="326" fill="#ffb0aa" r="15"/><path d="m338.559 441.5h-165.118l-3.747 26h172.612z" fill="#ffe352"/><path d="m256 26c17.062 0 32.58 6.583 44.177 17.336-7.314-14.306-24.339-24.336-44.177-24.336s-36.863 10.03-44.177 24.336c11.597-10.753 27.115-17.336 44.177-17.336z" fill="#ffe352"/><path d="m256 94c-25 0-39 16.25-39 42 0 26.667-5 21-5 74s-14 62-14 62v-121-38h-7v-22c0-35.898 29.101-65 65-65 35.898 0 65 29.101 65 65v22h-7v38 121s-14-9-14-62-5-47.333-5-74c0-25.75-14-42-39-42z" fill="#6e83b7"/></svg>