<svg id="Layer_3" enable-background="new 0 0 64 64" height="512" viewBox="0 0 64 64" width="512" xmlns="http://www.w3.org/2000/svg"><path d="m25 54h14v4h-14z" fill="#857970"/><g fill="#c4bfbc"><path d="m12 58h40v4h-40z"/><path d="m21 50h22v4h-22z"/><circle cx="32" cy="6" r="4"/></g><path d="m30 10h4v40h-4z" fill="#857970"/><path d="m5 16h54v4h-54z" fill="#857970"/><circle cx="10" cy="38" fill="#b49e4c" r="8"/><ellipse cx="8.5" cy="38" fill="#f0d365" rx="6.5" ry="7.855"/><circle cx="54" cy="38" fill="#b49e4c" r="8"/><ellipse cx="52.5" cy="38" fill="#f0d365" rx="6.5" ry="7.855"/><path d="m52 63h-40c-.553 0-1-.447-1-1v-4c0-.553.447-1 1-1h40c.553 0 1 .447 1 1v4c0 .553-.447 1-1 1zm-39-2h38v-2h-38z"/><path d="m43 55h-22c-.553 0-1-.447-1-1v-4c0-.553.447-1 1-1h22c.553 0 1 .447 1 1v4c0 .553-.447 1-1 1zm-21-2h20v-2h-20z"/><path d="m59 21h-54c-.553 0-1-.447-1-1v-4c0-.553.447-1 1-1h54c.553 0 1 .447 1 1v4c0 .553-.447 1-1 1zm-53-2h52v-2h-52z"/><path d="m32 11c-2.757 0-5-2.243-5-5s2.243-5 5-5 5 2.243 5 5-2.243 5-5 5zm0-8c-1.654 0-3 1.346-3 3s1.346 3 3 3 3-1.346 3-3-1.346-3-3-3z"/><path d="m29 9.378h2v6.622h-2z"/><path d="m33 9.378h2v6.622h-2z"/><path d="m3.96 10h25.08v2h-25.08z" transform="matrix(.917 -.399 .399 .917 -3.017 7.487)"/><path d="m46.5-1.54h2v25.08h-2z" transform="matrix(.399 -.917 .917 .399 18.473 50.175)"/><path d="m10 43h-3v-2h3c.552 0 1-.448 1-1s-.448-1-1-1c-1.654 0-3-1.346-3-3s1.346-3 3-3h3v2h-3c-.552 0-1 .448-1 1s.448 1 1 1c1.654 0 3 1.346 3 3s-1.346 3-3 3z"/><path d="m9 42h2v4h-2z"/><path d="m10 47c-4.963 0-9-4.037-9-9s4.037-9 9-9 9 4.037 9 9-4.037 9-9 9zm0-16c-3.859 0-7 3.141-7 7s3.141 7 7 7 7-3.141 7-7-3.141-7-7-7z"/><path d="m9 30h2v4h-2z"/><path d="m13.061 31.342-3.061-8.416-3.061 8.416-1.879-.684 4-11c.144-.395.519-.658.94-.658s.796.263.939.658l4 11z"/><path d="m54 43h-3v-2h3c.552 0 1-.448 1-1s-.448-1-1-1c-1.654 0-3-1.346-3-3s1.346-3 3-3h3v2h-3c-.552 0-1 .448-1 1s.448 1 1 1c1.654 0 3 1.346 3 3s-1.346 3-3 3z"/><path d="m53 42h2v4h-2z"/><path d="m54 47c-4.963 0-9-4.037-9-9s4.037-9 9-9 9 4.037 9 9-4.037 9-9 9zm0-16c-3.859 0-7 3.141-7 7s3.141 7 7 7 7-3.141 7-7-3.141-7-7-7z"/><path d="m53 30h2v4h-2z"/><path d="m57.061 31.342-3.061-8.416-3.061 8.416-1.879-.684 4-11c.144-.395.519-.658.94-.658s.796.263.939.658l4 11z"/><path d="m38 54h2v4h-2z"/><path d="m24 54h2v4h-2z"/><path d="m33 20h2v30h-2z"/><path d="m29 20h2v30h-2z"/></svg>