<svg id="Layer_3" enable-background="new 0 0 64 64" height="512" viewBox="0 0 64 64" width="512" xmlns="http://www.w3.org/2000/svg"><path d="m2 38h46v24h-46z" fill="#5f986e"/><path d="m40 58c0-2.209 1.791-4 4-4v-8c-2.209 0-4-1.791-4-4h-30c0 2.209-1.791 4-4 4v8c2.209 0 4 1.791 4 4z" fill="#7ecb92"/><circle cx="25" cy="50" fill="#b49e4c" r="8"/><ellipse cx="23.5" cy="50" fill="#f0d365" rx="6.5" ry="7.855"/><path d="m16 2h46v24h-46z" fill="#5f986e"/><path d="m62 27h-46c-.552 0-1-.448-1-1v-24c0-.552.448-1 1-1h46c.552 0 1 .448 1 1v24c0 .552-.448 1-1 1zm-45-2h44v-22h-44z"/><path d="m54 22c0-2.209 1.791-4 4-4v-8c-2.209 0-4-1.791-4-4h-30c0 2.209-1.791 4-4 4v8c2.209 0 4 1.791 4 4z" fill="#7ecb92"/><path d="m48 63h-46c-.552 0-1-.448-1-1v-24c0-.552.448-1 1-1h46c.552 0 1 .448 1 1v24c0 .552-.448 1-1 1zm-45-2h44v-22h-44z"/><path d="m25 55h-3v-2h3c.551 0 1-.449 1-1s-.449-1-1-1c-1.654 0-3-1.346-3-3s1.346-3 3-3h3v2h-3c-.551 0-1 .449-1 1s.449 1 1 1c1.654 0 3 1.346 3 3s-1.346 3-3 3z"/><path d="m24 54h2v4h-2z"/><path d="m24 42h2v4h-2z"/><path d="m25 59c-4.962 0-9-4.038-9-9s4.038-9 9-9 9 4.038 9 9-4.038 9-9 9zm0-16c-3.86 0-7 3.14-7 7s3.14 7 7 7 7-3.14 7-7-3.14-7-7-7z"/><path d="m40 59h-30c-.552 0-1-.448-1-1 0-1.654-1.346-3-3-3-.552 0-1-.448-1-1v-8c0-.552.448-1 1-1 1.654 0 3-1.346 3-3 0-.552.448-1 1-1h30c.552 0 1 .448 1 1 0 1.654 1.346 3 3 3 .552 0 1 .448 1 1v8c0 .552-.448 1-1 1-1.654 0-3 1.346-3 3 0 .552-.448 1-1 1zm-29.101-2h28.201c.398-1.956 1.943-3.501 3.899-3.899v-6.201c-1.956-.398-3.501-1.943-3.899-3.899h-28.201c-.398 1.955-1.943 3.5-3.899 3.898v6.201c1.956.399 3.501 1.944 3.899 3.9z"/><path d="m39 12c-.256 0-.512-.098-.707-.293l-4-4 1.414-1.414 3.293 3.293 3.293-3.293 1.414 1.414-4 4c-.195.195-.451.293-.707.293z"/><path d="m38 11h2v11h-2z"/><path d="m35 12h8v2h-8z"/><path d="m35 16h8v2h-8z"/><path d="m8 29h-2v-17c0-2.757 2.243-5 5-5h2v2h-2c-1.654 0-3 1.346-3 3z"/><path d="m7 31c-.256 0-.512-.098-.707-.293l-4-4 1.414-1.414 3.293 3.293 3.293-3.293 1.414 1.414-4 4c-.195.195-.451.293-.707.293z"/><path d="m53 57h-2v-2h2c1.654 0 3-1.346 3-3v-17h2v17c0 2.757-2.243 5-5 5z"/><path d="m60.293 38.707-3.293-3.293-3.293 3.293-1.414-1.414 4-4c.391-.391 1.023-.391 1.414 0l4 4z"/><path d="m33 23h-9c-.552 0-1-.448-1-1 0-1.654-1.346-3-3-3-.552 0-1-.448-1-1v-8c0-.552.448-1 1-1 1.654 0 3-1.346 3-3 0-.552.448-1 1-1h9v2h-8.101c-.398 1.956-1.943 3.501-3.899 3.899v6.201c1.956.398 3.501 1.943 3.899 3.899h8.101z"/><path d="m54 23h-9v-2h8.101c.398-1.956 1.943-3.501 3.899-3.899v-6.201c-1.956-.399-3.501-1.944-3.899-3.9h-8.101v-2h9c.552 0 1 .448 1 1 0 1.654 1.346 3 3 3 .552 0 1 .448 1 1v8c0 .552-.448 1-1 1-1.654 0-3 1.346-3 3 0 .552-.448 1-1 1z"/><path d="m17 26h2v9h-2z"/><path d="m21 26h2v6h-2z"/><path d="m25 29h2v9h-2z"/><path d="m37 26h2v6h-2z"/><path d="m41 29h2v9h-2z"/><path d="m33 26h2v9h-2z"/><path d="m29 32h2v6h-2z"/></svg>