<svg id="Layer_3" enable-background="new 0 0 64 64" height="512" viewBox="0 0 64 64" width="512" xmlns="http://www.w3.org/2000/svg"><path d="m57 62h-50c-1.657 0-3-1.343-3-3v-3h56v3c0 1.657-1.343 3-3 3z" fill="#c18e59"/><path d="m4 38h56v18h-56z" fill="#916b43"/><path d="m28 42h8v10h-8z" fill="#c18e59"/><path d="m2 32h60v6h-60z" fill="#916b43"/><path d="m2 32h57v6h-57z" fill="#c18e59"/><path d="m23 16 4-8h10l4 8z" fill="#b49e4c"/><path d="m27 8-4 8h15l-4-8z" fill="#f0d365"/><path d="m13 24 4-8h10l4 8z" fill="#b49e4c"/><path d="m17 16-4 8h15l-4-8z" fill="#f0d365"/><path d="m32 24 4-8h10l4 8z" fill="#b49e4c"/><path d="m36 16-4 8h15l-4-8z" fill="#f0d365"/><path d="m4 32 4-8h10l4 8z" fill="#b49e4c"/><path d="m8 24-4 8h15l-4-8z" fill="#f0d365"/><path d="m23 32 4-8h10l4 8z" fill="#b49e4c"/><path d="m27 24-4 8h15l-4-8z" fill="#f0d365"/><path d="m42 32 4-8h10l4 8z" fill="#b49e4c"/><g fill="#f0d365"><path d="m46 24-4 8h15l-4-8z"/><path d="m8 10c1.889-.63 3.37-2.111 4-4 .63 1.889 2.111 3.37 4 4-1.889.63-3.37 2.111-4 4-.63-1.889-2.111-3.37-4-4z"/><path d="m48 6c1.889-.63 3.37-2.111 4-4 .63 1.889 2.111 3.37 4 4-1.889.63-3.37 2.111-4 4-.63-1.889-2.111-3.37-4-4z"/></g><path d="m62 39h-60c-.552 0-1-.447-1-1v-6c0-.552.448-1 1-1h60c.552 0 1 .448 1 1v6c0 .553-.448 1-1 1zm-59-2h58v-4h-58z"/><path d="m57 63h-50c-2.206 0-4-1.794-4-4v-21h2v21c0 1.103.897 2 2 2h50c1.103 0 2-.897 2-2v-21h2v21c0 2.206-1.794 4-4 4z"/><path d="m40.105 32.447-3.723-7.447h-8.764l-3.724 7.447-1.789-.895 4-8c.17-.338.516-.552.895-.552h10c.379 0 .725.214.895.553l4 8z"/><path d="m21.105 32.447-3.723-7.447h-8.764l-3.724 7.447-1.789-.895 4-8c.17-.338.516-.552.895-.552h10c.379 0 .725.214.895.553l4 8z"/><path d="m59.105 32.447-3.723-7.447h-8.764l-3.724 7.447-1.789-.895 4-8c.17-.338.516-.552.895-.552h10c.379 0 .725.214.895.553l4 8z"/><path d="m50 25h-18c-.347 0-.668-.18-.851-.474-.182-.295-.199-.663-.044-.973l4-8c.17-.339.516-.553.895-.553h10c.379 0 .725.214.895.553l4 8c.155.31.138.678-.044.973-.183.294-.504.474-.851.474zm-16.382-2h14.764l-3-6h-8.764z"/><path d="m31 25h-18c-.347 0-.668-.18-.851-.474-.182-.295-.199-.663-.044-.973l4-8c.17-.339.516-.553.895-.553h10c.379 0 .725.214.895.553l4 8c.155.31.138.678-.044.973-.183.294-.504.474-.851.474zm-16.382-2h14.764l-3-6h-8.764z"/><path d="m41 17h-18c-.347 0-.668-.18-.851-.474-.182-.295-.199-.663-.044-.973l4-8c.17-.339.516-.553.895-.553h10c.379 0 .725.214.895.553l4 8c.155.31.138.678-.044.973-.183.294-.504.474-.851.474zm-16.382-2h14.764l-3-6h-8.764z"/><path d="m4 55h56v2h-56z"/><path d="m7 38h2v18h-2z"/><path d="m11 38h2v18h-2z"/><path d="m15 38h2v18h-2z"/><path d="m39 38h2v18h-2z"/><path d="m43 38h2v18h-2z"/><path d="m47 38h2v18h-2z"/><path d="m51 38h2v18h-2z"/><path d="m55 38h2v18h-2z"/><path d="m19 38h2v18h-2z"/><path d="m23 38h2v18h-2z"/><path d="m12 15c-.431 0-.812-.275-.949-.684-.527-1.582-1.786-2.84-3.367-3.367-.409-.137-.684-.518-.684-.949s.275-.812.684-.949c1.582-.527 2.84-1.786 3.367-3.367.137-.409.518-.684.949-.684s.812.275.949.684c.527 1.582 1.786 2.84 3.367 3.367.409.137.684.518.684.949s-.275.812-.684.949c-1.582.527-2.84 1.786-3.367 3.367-.137.409-.518.684-.949.684zm-1.804-5c.701.492 1.312 1.103 1.804 1.804.492-.701 1.103-1.312 1.804-1.804-.701-.492-1.312-1.103-1.804-1.804-.492.701-1.103 1.312-1.804 1.804z"/><path d="m52 11c-.431 0-.812-.275-.949-.684-.527-1.582-1.786-2.84-3.367-3.367-.409-.137-.684-.518-.684-.949s.275-.812.684-.949c1.582-.527 2.84-1.786 3.367-3.367.137-.409.518-.684.949-.684s.812.275.949.684c.527 1.582 1.786 2.84 3.367 3.367.409.137.684.518.684.949s-.275.812-.684.949c-1.582.527-2.84 1.786-3.367 3.367-.137.409-.518.684-.949.684zm-1.804-5c.701.492 1.312 1.103 1.804 1.804.492-.701 1.103-1.312 1.804-1.804-.701-.492-1.312-1.103-1.804-1.804-.492.701-1.103 1.312-1.804 1.804z"/><path d="m31 45h2v4h-2z"/><path d="m27 38h2v18h-2z"/><path d="m31 52h2v4h-2z"/><path d="m31 38h2v4h-2z"/><path d="m35 38h2v18h-2z"/><path d="m28 41h8v2h-8z"/><path d="m28 51h8v2h-8z"/></svg>