<svg id="Layer_3" enable-background="new 0 0 64 64" height="512" viewBox="0 0 64 64" width="512" xmlns="http://www.w3.org/2000/svg"><path d="m36 6h24v52h-24z" fill="#cec9c6"/><path d="m4 6h24v52h-24z" fill="#cec9c6"/><circle cx="32" cy="38" fill="#b49e4c" r="14"/><ellipse cx="30.5" cy="38" fill="#f0d365" rx="12.5" ry="13.917"/><circle cx="26" cy="35" fill="#cec9c6" r="3"/><circle cx="38" cy="41" fill="#cec9c6" r="3"/><path d="m8 40h6v6h-6z" fill="#689eb8"/><path d="m8 40h3v6h-3z" fill="#8bd2f5"/><path d="m8 30h6v6h-6z" fill="#689eb8"/><path d="m8 30h3v6h-3z" fill="#8bd2f5"/><path d="m8 20h6v6h-6z" fill="#689eb8"/><path d="m8 20h3v6h-3z" fill="#8bd2f5"/><path d="m18 10h6v6h-6z" fill="#689eb8"/><path d="m18 10h3v6h-3z" fill="#8bd2f5"/><path d="m18 20h6v6h-6z" fill="#689eb8"/><path d="m18 20h3v6h-3z" fill="#8bd2f5"/><path d="m8 10h6v6h-6z" fill="#689eb8"/><path d="m8 10h3v6h-3z" fill="#8bd2f5"/><path d="m40 10h6v6h-6z" fill="#689eb8"/><path d="m40 10h3v6h-3z" fill="#8bd2f5"/><path d="m40 20h6v6h-6z" fill="#689eb8"/><path d="m40 20h3v6h-3z" fill="#8bd2f5"/><path d="m50 20h6v6h-6z" fill="#689eb8"/><path d="m50 20h3v6h-3z" fill="#8bd2f5"/><path d="m50 10h6v6h-6z" fill="#689eb8"/><path d="m50 10h3v6h-3z" fill="#8bd2f5"/><path d="m50 30h6v6h-6z" fill="#689eb8"/><path d="m50 30h3v6h-3z" fill="#8bd2f5"/><path d="m50 40h6v6h-6z" fill="#689eb8"/><path d="m50 40h3v6h-3z" fill="#8bd2f5"/><path d="m44 58v-4c0-2.209 1.791-4 4-4 2.209 0 4 1.791 4 4v4z" fill="#689eb8"/><path d="m46.5 50.297c-1.465.594-2.5 2.025-2.5 3.703v4h5v-4c0-1.678-1.035-3.109-2.5-3.703z" fill="#8bd2f5"/><path d="m12 58v-4c0-2.209 1.791-4 4-4 2.209 0 4 1.791 4 4v4z" fill="#689eb8"/><path d="m14.5 50.297c-1.465.594-2.5 2.025-2.5 3.703v4h5v-4c0-1.678-1.035-3.109-2.5-3.703z" fill="#8bd2f5"/><path d="m2 58h60v4h-60z" fill="#645b54"/><path d="m2 58h57v4h-57z" fill="#857970"/><path d="m2 2h28v4h-28z" fill="#645b54"/><path d="m2 2h25v4h-25z" fill="#857970"/><path d="m34 2h28v4h-28z" fill="#645b54"/><path d="m34 2h25v4h-25z" fill="#857970"/><path d="m62 63h-60c-.553 0-1-.447-1-1v-4c0-.553.447-1 1-1h60c.553 0 1 .447 1 1v4c0 .553-.447 1-1 1zm-59-2h58v-2h-58z"/><path d="m27 51.418h2v6.582h-2z"/><path d="m27 6h2v18.582h-2z"/><path d="m3 6h2v52h-2z"/><path d="m14 17h-6c-.553 0-1-.447-1-1v-6c0-.553.447-1 1-1h6c.553 0 1 .447 1 1v6c0 .553-.447 1-1 1zm-5-2h4v-4h-4z"/><path d="m24 17h-6c-.553 0-1-.447-1-1v-6c0-.553.447-1 1-1h6c.553 0 1 .447 1 1v6c0 .553-.447 1-1 1zm-5-2h4v-4h-4z"/><path d="m14 27h-6c-.553 0-1-.447-1-1v-6c0-.553.447-1 1-1h6c.553 0 1 .447 1 1v6c0 .553-.447 1-1 1zm-5-2h4v-4h-4z"/><path d="m24 27h-6c-.553 0-1-.447-1-1v-6c0-.553.447-1 1-1h6c.553 0 1 .447 1 1v6c0 .553-.447 1-1 1zm-5-2h4v-4h-4z"/><path d="m14 37h-6c-.553 0-1-.447-1-1v-6c0-.553.447-1 1-1h6c.553 0 1 .447 1 1v6c0 .553-.447 1-1 1zm-5-2h4v-4h-4z"/><path d="m14 47h-6c-.553 0-1-.447-1-1v-6c0-.553.447-1 1-1h6c.553 0 1 .447 1 1v6c0 .553-.447 1-1 1zm-5-2h4v-4h-4z"/><path d="m30 7h-28c-.553 0-1-.447-1-1v-4c0-.553.447-1 1-1h28c.553 0 1 .447 1 1v4c0 .553-.447 1-1 1zm-27-2h26v-2h-26z"/><path d="m21 58h-2v-4c0-1.654-1.346-3-3-3s-3 1.346-3 3v4h-2v-4c0-2.757 2.243-5 5-5s5 2.243 5 5z"/><path d="m59 6h2v52h-2z"/><path d="m35 6h2v18.582h-2z"/><path d="m35 51.418h2v6.582h-2z"/><path d="m46 17h-6c-.553 0-1-.447-1-1v-6c0-.553.447-1 1-1h6c.553 0 1 .447 1 1v6c0 .553-.447 1-1 1zm-5-2h4v-4h-4z"/><path d="m56 17h-6c-.553 0-1-.447-1-1v-6c0-.553.447-1 1-1h6c.553 0 1 .447 1 1v6c0 .553-.447 1-1 1zm-5-2h4v-4h-4z"/><path d="m46 27h-6c-.553 0-1-.447-1-1v-6c0-.553.447-1 1-1h6c.553 0 1 .447 1 1v6c0 .553-.447 1-1 1zm-5-2h4v-4h-4z"/><path d="m56 27h-6c-.553 0-1-.447-1-1v-6c0-.553.447-1 1-1h6c.553 0 1 .447 1 1v6c0 .553-.447 1-1 1zm-5-2h4v-4h-4z"/><path d="m56 37h-6c-.553 0-1-.447-1-1v-6c0-.553.447-1 1-1h6c.553 0 1 .447 1 1v6c0 .553-.447 1-1 1zm-5-2h4v-4h-4z"/><path d="m56 47h-6c-.553 0-1-.447-1-1v-6c0-.553.447-1 1-1h6c.553 0 1 .447 1 1v6c0 .553-.447 1-1 1zm-5-2h4v-4h-4z"/><path d="m62 7h-28c-.553 0-1-.447-1-1v-4c0-.553.447-1 1-1h28c.553 0 1 .447 1 1v4c0 .553-.447 1-1 1zm-27-2h26v-2h-26z"/><path d="m53 58h-2v-4c0-1.654-1.346-3-3-3s-3 1.346-3 3v4h-2v-4c0-2.757 2.243-5 5-5s5 2.243 5 5z"/><path d="m26 39c-2.206 0-4-1.794-4-4s1.794-4 4-4 4 1.794 4 4-1.794 4-4 4zm0-6c-1.103 0-2 .897-2 2s.897 2 2 2 2-.897 2-2-.897-2-2-2z"/><path d="m38 45c-2.206 0-4-1.794-4-4s1.794-4 4-4 4 1.794 4 4-1.794 4-4 4zm0-6c-1.103 0-2 .897-2 2s.897 2 2 2 2-.897 2-2-.897-2-2-2z"/><path d="m22.151 37h19.698v2.001h-19.698z" transform="matrix(.406 -.914 .914 .406 -15.721 51.809)"/><path d="m32 53c-8.271 0-15-6.729-15-15s6.729-15 15-15 15 6.729 15 15-6.729 15-15 15zm0-28c-7.168 0-13 5.832-13 13s5.832 13 13 13 13-5.832 13-13-5.832-13-13-13z"/></svg>