<svg id="Layer_3" enable-background="new 0 0 64 64" height="512" viewBox="0 0 64 64" width="512" xmlns="http://www.w3.org/2000/svg"><path d="m25 24h4v14h-4z" fill="#857970"/><path d="m42.875 7.689c-.835.204-1.701.311-2.583.311h-2.292v8.974c0 3.288 1.078 6.45 3.02 9.027l-.012.009c-.912-1.22-2.368-2.01-4.008-2.01-2.761 0-5 2.239-5 5v1-1c0-2.761-2.239-5-5-5-2.761 0-5 2.239-5 5v1-1c0-2.761-2.239-5-5-5-2.761 0-5 2.239-5 5v1-1c0-2.761-2.239-5-5-5-2.761 0-5 2.239-5 5v1-3c0-13.807 11.193-25 25-25 6.027 0 11.556 2.133 15.874 5.685z" fill="#e4725f"/><path d="m62 8v8.974c0 4.452-1.977 8.673-5.397 11.523l-6.603 5.503-6.603-5.502c-3.42-2.85-5.397-7.072-5.397-11.524v-8.974h2.292c4.111 0 7.87-2.323 9.708-6 1.839 3.677 5.597 6 9.708 6z" fill="#f0d365"/><circle cx="50" cy="18" fill="#645b54" r="8"/><ellipse cx="48.5" cy="18" fill="#857970" rx="6.5" ry="7.855"/><path d="m2 38h50v24h-50z" fill="#5f986e"/><path d="m44 58c0-2.209 1.791-4 4-4v-8c-2.209 0-4-1.791-4-4h-34c0 2.209-1.791 4-4 4v8c2.209 0 4 1.791 4 4z" fill="#7ecb92"/><circle cx="27" cy="50" fill="#b49e4c" r="8"/><ellipse cx="25.5" cy="50" fill="#f0d365" rx="6.5" ry="7.855"/><path d="m32 31c-.552 0-1-.447-1-1v-1c0-2.206-1.794-4-4-4s-4 1.794-4 4v1c0 .553-.448 1-1 1s-1-.447-1-1v-1c0-2.206-1.794-4-4-4s-4 1.794-4 4v1c0 .553-.448 1-1 1s-1-.447-1-1v-1c0-2.206-1.794-4-4-4s-4 1.794-4 4v1c0 .553-.448 1-1 1s-1-.447-1-1v-3c0-14.337 11.664-26 26-26 6.013 0 11.875 2.1 16.509 5.913l-1.271 1.545c-4.277-3.52-9.688-5.458-15.238-5.458-12.359 0-22.566 9.391-23.861 21.411 1.044-.88 2.392-1.411 3.861-1.411 2.084 0 3.924 1.068 5 2.687 1.076-1.619 2.916-2.687 5-2.687s3.924 1.068 5 2.687c1.076-1.619 2.916-2.687 5-2.687s3.924 1.068 5 2.687c1.076-1.619 2.916-2.687 5-2.687 1.883 0 3.681.901 4.809 2.411l-1.602 1.197c-.764-1.022-1.933-1.608-3.207-1.608-2.206 0-4 1.794-4 4v1c0 .553-.448 1-1 1z"/><path d="m52 63h-50c-.552 0-1-.447-1-1v-24c0-.553.448-1 1-1h50c.552 0 1 .447 1 1v24c0 .553-.448 1-1 1zm-49-2h48v-22h-48z"/><path d="m27 55h-3v-2h3c.551 0 1-.448 1-1s-.449-1-1-1c-1.654 0-3-1.346-3-3s1.346-3 3-3h3v2h-3c-.551 0-1 .448-1 1s.449 1 1 1c1.654 0 3 1.346 3 3s-1.346 3-3 3z"/><path d="m26 54h2v4h-2z"/><path d="m27 59c-4.962 0-9-4.037-9-9s4.038-9 9-9 9 4.037 9 9-4.038 9-9 9zm0-16c-3.86 0-7 3.141-7 7s3.14 7 7 7 7-3.141 7-7-3.14-7-7-7z"/><path d="m44 59h-34c-.552 0-1-.447-1-1 0-1.654-1.346-3-3-3-.552 0-1-.447-1-1v-8c0-.553.448-1 1-1 1.654 0 3-1.346 3-3 0-.553.448-1 1-1h34c.552 0 1 .447 1 1 0 1.654 1.346 3 3 3 .552 0 1 .447 1 1v8c0 .553-.448 1-1 1-1.654 0-3 1.346-3 3 0 .553-.448 1-1 1zm-33.101-2h32.201c.398-1.956 1.943-3.501 3.899-3.899v-6.201c-1.956-.398-3.501-1.943-3.899-3.899h-32.201c-.398 1.955-1.943 3.5-3.899 3.898v6.201c1.956.399 3.501 1.944 3.899 3.9z"/><path d="m24 25h2v13h-2z"/><path d="m28 25h2v13h-2z"/><path d="m50 35c-.228 0-.455-.077-.64-.231l-6.603-5.502c-3.658-3.05-5.757-7.531-5.757-12.292v-8.975c0-.553.448-1 1-1h2.292c3.756 0 7.134-2.087 8.813-5.447.339-.678 1.45-.678 1.789 0 1.68 3.36 5.058 5.447 8.814 5.447h2.292c.552 0 1 .447 1 1v8.975c0 4.762-2.099 9.242-5.757 12.292l-6.603 5.502c-.185.154-.412.231-.64.231zm-11-26v7.975c0 4.167 1.836 8.087 5.038 10.755l5.962 4.968 5.962-4.969c3.202-2.667 5.038-6.587 5.038-10.754v-7.975h-1.292c-3.928 0-7.511-1.896-9.708-5.047-2.197 3.151-5.78 5.047-9.708 5.047z"/><path d="m50 27c-4.962 0-9-4.037-9-9s4.038-9 9-9 9 4.037 9 9-4.038 9-9 9zm0-16c-3.86 0-7 3.141-7 7s3.14 7 7 7 7-3.141 7-7-3.14-7-7-7z"/><path d="m49 21c-.256 0-.512-.098-.707-.293l-2-2 1.414-1.414 1.293 1.293 3.293-3.293 1.414 1.414-4 4c-.195.195-.451.293-.707.293z"/><path d="m26 42h2v4h-2z"/></svg>