<svg id="Layer_3" enable-background="new 0 0 64 64" height="512" viewBox="0 0 64 64" width="512" xmlns="http://www.w3.org/2000/svg"><path d="m16 36h46v22h-46z" fill="#54876b"/><path d="m20 40h38v14h-38z" fill="#70b48f"/><path d="m2 40h46v22h-46z" fill="#54876b"/><path d="m6 44h38v14h-38z" fill="#70b48f"/><circle cx="14" cy="18" fill="#ba9b50" r="12"/><ellipse cx="12.5" cy="18" fill="#f8cf6a" rx="10.5" ry="11.896"/><circle cx="50" cy="18" fill="#ba9b50" r="12"/><ellipse cx="48.5" cy="18" fill="#f8cf6a" rx="10.5" ry="11.896"/><circle cx="32" cy="14" fill="#ba9b50" r="12"/><ellipse cx="30.5" cy="14" fill="#f8cf6a" rx="10.5" ry="11.896"/><path d="m32 13c-.256 0-.512-.098-.707-.293l-5-5 1.414-1.414 4.293 4.293 4.293-4.293 1.414 1.414-5 5c-.195.195-.451.293-.707.293z"/><path d="m31 12h2v11h-2z"/><path d="m28 13h8v2h-8z"/><path d="m28 17h8v2h-8z"/><path d="m32 27c-7.168 0-13-5.832-13-13s5.832-13 13-13 13 5.832 13 13-5.832 13-13 13zm0-24c-6.065 0-11 4.935-11 11s4.935 11 11 11 11-4.935 11-11-4.935-11-11-11z"/><path d="m50 17c-.256 0-.512-.098-.707-.293l-5-5 1.414-1.414 4.293 4.293 4.293-4.293 1.414 1.414-5 5c-.195.195-.451.293-.707.293z"/><path d="m49 16h2v11h-2z"/><path d="m46 17h8v2h-8z"/><path d="m46 21h8v2h-8z"/><path d="m50 31c-4.887 0-9.316-2.7-11.559-7.046l1.777-.917c1.898 3.678 5.646 5.963 9.782 5.963 6.065 0 11-4.935 11-11s-4.935-11-11-11c-2.458 0-4.783.793-6.723 2.292l-1.223-1.582c2.293-1.773 5.041-2.71 7.946-2.71 7.168 0 13 5.832 13 13s-5.832 13-13 13z"/><path d="m14 17c-.256 0-.512-.098-.707-.293l-5-5 1.414-1.414 4.293 4.293 4.293-4.293 1.414 1.414-5 5c-.195.195-.451.293-.707.293z"/><path d="m13 16h2v11h-2z"/><path d="m10 17h8v2h-8z"/><path d="m10 21h8v2h-8z"/><path d="m14 31c-7.168 0-13-5.832-13-13s5.832-13 13-13c2.905 0 5.653.938 7.947 2.711l-1.224 1.582c-1.94-1.5-4.265-2.293-6.723-2.293-6.065 0-11 4.935-11 11s4.935 11 11 11c4.134 0 7.882-2.284 9.78-5.96l1.777.918c-2.243 4.343-6.672 7.042-11.557 7.042z"/><path d="m48 63h-46c-.552 0-1-.448-1-1v-22c0-.552.448-1 1-1h46c.552 0 1 .448 1 1v22c0 .552-.448 1-1 1zm-45-2h44v-20h-44z"/><path d="m25 49c-.256 0-.512-.098-.707-.293l-4-4 1.414-1.414 3.293 3.293 3.293-3.293 1.414 1.414-4 4c-.195.195-.451.293-.707.293z"/><path d="m24 48h2v11h-2z"/><path d="m21 49h8v2h-8z"/><path d="m21 53h8v2h-8z"/><path d="m44 59h-11v-2h10v-12h-10v-2h11c.552 0 1 .448 1 1v14c0 .552-.448 1-1 1z"/><path d="m17 59h-11c-.552 0-1-.448-1-1v-14c0-.552.448-1 1-1h11v2h-10v12h10z"/><path d="m62 59h-14v-2h13v-20h-44v3h-2v-4c0-.552.448-1 1-1h46c.552 0 1 .448 1 1v22c0 .552-.448 1-1 1z"/><path d="m58 55h-10v-2h9v-12h-9v-2h10c.552 0 1 .448 1 1v14c0 .552-.448 1-1 1z"/></svg>