<svg id="Capa_1" enable-background="new 0 0 512 512" height="512" viewBox="0 0 512 512" width="512" xmlns="http://www.w3.org/2000/svg"><path d="m155.117 0h174.431v134.378h-174.431z" fill="#fed330"/><path d="m155.116 377.649h174.432v134.351h-174.432z" fill="#fed330"/><circle cx="242.332" cy="256.012" fill="#e7ffff" r="134.473"/><path d="m241.971 0h87.577v134.378h-87.577z" fill="#f8b233"/><path d="m241.971 377.649h87.577v134.351h-87.577z" fill="#f8b233"/><path d="m242.332 412.509c-86.292 0-156.497-70.204-156.497-156.497s70.205-156.497 156.497-156.497 156.497 70.204 156.497 156.497-70.205 156.497-156.497 156.497zm0-282.781c-69.633 0-126.284 56.651-126.284 126.284s56.651 126.284 126.284 126.284 126.284-56.651 126.284-126.284-56.651-126.284-126.284-126.284z" fill="#7be2f5"/><path d="m383.723 240.906h42.443v30.213h-42.443z" fill="#1897fc"/><path d="m242.332 121.539c-.121 0-.241.004-.361.005l-.009 86.128.009 182.808c.121 0 .241.005.361.005 74.148 0 134.473-60.324 134.473-134.472 0-74.15-60.325-134.474-134.473-134.474z" fill="#d9effc"/><path d="m242.332 99.515c-.121 0-.241.004-.361.005v30.213c.121 0 .241-.005.361-.005 69.633 0 126.284 56.651 126.284 126.284s-56.651 126.284-126.284 126.284c-.121 0-.241-.004-.361-.005v30.213c.121 0 .241.005.361.005 86.293 0 156.497-70.204 156.497-156.497s-70.204-156.497-156.497-156.497z" fill="#50baea"/><path d="m241.971 346.672-71.532-71.489c-19.127-19.127-19.127-50.312.038-69.478 9.284-9.285 21.628-14.398 34.759-14.398 13.13 0 25.473 5.113 34.758 14.398l1.968 1.967 1.967-1.967c9.284-9.285 21.628-14.398 34.759-14.398 13.13 0 25.473 5.113 34.758 14.398 9.284 9.284 14.398 21.628 14.398 34.758s-5.113 25.474-14.398 34.759l-61.032 61.032z" fill="#fc652c"/><path d="m313.444 275.221c9.285-9.284 14.398-21.628 14.398-34.758s-5.114-25.474-14.398-34.758c-9.284-9.285-21.628-14.398-34.758-14.398-13.131 0-25.474 5.113-34.759 14.398l-1.967 1.967.009 139z" fill="#ed3a19"/></svg>