<svg id="Capa_1" enable-background="new 0 0 512 512" height="512" viewBox="0 0 512 512" width="512" xmlns="http://www.w3.org/2000/svg"><path d="m85.19 282.619v-84.348c0-92.836 75.527-168.362 168.363-168.362s168.362 75.527 168.362 168.362v84.348h29.909v-84.348c.001-109.327-88.944-198.271-198.272-198.271-109.327 0-198.271 88.944-198.271 198.272v84.348h29.909z" fill="#fed330"/><path d="m256 0v29.909c91.711 1.315 165.915 76.314 165.915 168.331v84.348h29.909v-84.348c.001-108.509-87.621-196.922-195.824-198.24z" fill="#f8b233"/><path d="m276.826 112.158.167 163.18-30.79.143c-23.117.115-41.831 19.016-41.716 42.132l.002.491c.056 11.198 4.469 21.706 12.427 29.584 7.907 7.829 18.372 12.132 29.482 12.132h.214l21.213-.092h.01c10.532-.053 20.412-4.203 27.822-11.686s11.462-17.405 11.41-27.936l-.245-123.955 7.744-.005c30.027-.01 54.456-24.445 54.456-54.473v-29.516h-92.196z" fill="#50baea"/><g fill="#cddefe"><path d="m253.895 427.323c-.163 0-.322 0-.484-.001-21.325-.138-41.65-9.446-55.764-25.537l22.486-19.721c8.484 9.672 20.684 15.266 33.472 15.349 12.751.056 25.06-5.352 33.668-14.914l22.228 20.012c-14.211 15.785-34.457 24.812-55.606 24.812z"/><path d="m253.889 472.606c-.257 0-.513-.001-.77-.002-34.237-.222-66.866-15.161-89.519-40.987l22.486-19.723c17.023 19.408 41.526 30.635 67.226 30.801.191.002.387.002.578.002 25.492 0 49.897-10.887 67.042-29.93l22.228 20.012c-22.814 25.339-55.313 39.827-89.271 39.827z"/><path d="m253.895 427.323c-.163 0-.322 0-.484-.001-21.325-.138-41.65-9.446-55.764-25.537l22.486-19.721c8.484 9.672 20.684 15.266 33.472 15.349 12.751.056 25.06-5.352 33.668-14.914l22.228 20.012c-14.211 15.785-34.457 24.812-55.606 24.812z"/><path d="m253.895 427.323c-.163 0-.322 0-.484-.001-21.325-.138-41.65-9.446-55.764-25.537l22.486-19.721c8.484 9.672 20.684 15.266 33.472 15.349 12.751.056 25.06-5.352 33.668-14.914l22.228 20.012c-14.211 15.785-34.457 24.812-55.606 24.812z"/></g><path d="m70.1 269.767c-39.705 6.526-70.1 41.063-70.1 82.587v74.577c0 41.524 30.395 76.063 70.1 82.59z" fill="#fc652c"/><path d="m84.067 268.638-.348-.004c-3.289 0-6.528.212-9.719.582v240.854c3.132.364 6.31.573 9.536.58l57.979 1.35v-242.023z" fill="#5b6c76"/><path d="m84.067 268.638-.348-.004c-9.98 0-19.555 1.762-28.438 4.981v232.051c8.829 3.199 18.341 4.963 28.256 4.985l1.654.039v-242.025z" fill="#475a60"/><path d="m267.825 359.728h.01c10.532-.053 20.412-4.203 27.822-11.686s11.462-17.405 11.41-27.936l-.245-123.955 7.744-.005c30.027-.01 54.456-24.445 54.456-54.473v-29.516h-92.195l.167 163.18-20.994.098v84.344z" fill="#1897fc"/><path d="m343.159 432.778-22.227-20.012c-16.672 18.517-40.207 29.319-64.932 29.902v29.909c33.191-.587 64.82-14.985 87.159-39.799z" fill="#b3c1fd"/><path d="m309.501 402.511-22.229-20.012c-8.068 8.962-19.386 14.275-31.273 14.86v29.908c20.383-.578 39.763-9.496 53.502-24.756z" fill="#b3c1fd"/><path d="m437.581 270.513v240.958c41.8-4.643 74.419-40.173 74.419-83.191v-74.577c0-43.017-32.618-78.547-74.419-83.19z" fill="#ed3a19"/><path d="m434 270.201c-1.892-.128-3.795-.217-5.719-.217h-61.784v242.016h61.784c1.924 0 3.827-.089 5.719-.217z" fill="#475a60"/><path d="m428.281 269.984h-6.366v242.016h6.366c8.174 0 16.07-1.199 23.543-3.393v-235.23c-7.473-2.194-15.369-3.393-23.543-3.393z" fill="#3a4a51"/></svg>