<svg id="Capa_1" enable-background="new 0 0 512 512" height="512" viewBox="0 0 512 512" width="512" xmlns="http://www.w3.org/2000/svg"><path d="m255.251 476.976-216.932-218.491c-24.697-24.697-38.319-57.584-38.319-92.564s13.622-67.867 38.357-92.601c51.061-51.061 134.143-51.061 185.204 0l32.47 32.47 32.47-32.47c51.061-51.061 134.143-51.061 185.204 0s51.061 134.143 0 185.204z" fill="#fed330"/><path d="m473.704 73.319c-51.061-51.061-134.143-51.061-185.204 0l-32.47 32.47-.801-.801v371.967l.021.022 218.453-218.453c51.062-51.062 51.062-134.144.001-185.205z" fill="#f8b233"/><path d="m294.599 358.649-22.655-99.402-27.933 67.51-30.941-55.312-10.64 21.115h-130.279l-29.79-30.004h141.591l27.736-55.04 28.275 50.547 40.292-97.376 25.841 113.386 10.069-18.683h160.563l-29.894 30.003h-112.756z" fill="#fc652c"/><path d="m316.165 255.39-10.069 18.683-25.841-113.386-25.025 60.48v78.475l16.714-40.395 22.655 99.402 39.479-73.256h112.756l29.894-30.003z" fill="#ed3a19"/></svg>