<svg id="Capa_1" enable-background="new 0 0 512 512" height="512" viewBox="0 0 512 512" width="512" xmlns="http://www.w3.org/2000/svg"><path d="m0 422.931h512v45.483h-512z" fill="#97de3d"/><g fill="#fdd0a7"><path d="m428.256 215.664-138.34-129.068-73.194 35.235-13.012-27.031 91.675-44.132 134.801 125.767 63.601-48.591 18.213 23.839z"/><path d="m189.488 293.762-121.187-5.569 1.377-29.969 109.571 4.953 48.354-51.191 21.429 20.995z"/><path d="m286.393 424.386-24.18-17.759 63.229-86.087-56.495-49.37 19.51-22.472 77.532 67.316z"/><path d="m421.17 116.495c-26.994 0-48.955-21.961-48.955-48.955s21.961-48.955 48.955-48.955c26.993 0 48.954 21.961 48.954 48.955 0 26.995-21.961 48.955-48.954 48.955z"/></g><path d="m286.393 424.386-24.18-17.759 63.229-86.087-56.495-49.37 19.51-22.472 77.532 67.316z" fill="#fcbc8a"/><path d="m454.85 32.064-67.361 70.953c8.783 8.342 20.64 13.478 33.681 13.478 26.993 0 48.954-21.961 48.954-48.955 0-13.952-5.877-26.55-15.274-35.476z" fill="#fcbc8a"/><path d="m512 151.683-18.213-23.839-63.601 48.591-59.604-55.609-20.656 21.758 78.33 73.08z" fill="#fcbc8a"/><path d="m300.197 258.891-64.541-55.74 103.237-111.891 63.122 58.893z" fill="#fc652c"/><path d="m266.849 230.091 33.348 28.8 101.818-108.738-31.433-29.327z" fill="#ed3a19"/><path d="m300.197 258.891-20.219 22.041-63.979-56.619 20.268-21.82z" fill="#1897fc"/><path d="m279.978 280.932 20.219-22.041-33.028-29.137-20.037 22.171z" fill="#007cc1"/><path d="m249.032 422.931h262.968v45.483h-262.968z" fill="#59c36a"/><path d="m0 403.41h512v30h-512z" fill="#59c36a"/><path d="m0 463.414h512v30h-512z" fill="#59c36a"/><path d="m249.032 403.41h262.968v30h-262.968z" fill="#00a66c"/><path d="m249.032 463.414h262.968v30h-262.968z" fill="#00a66c"/></svg>