<svg id="Capa_1" enable-background="new 0 0 512 512" height="512" viewBox="0 0 512 512" width="512" xmlns="http://www.w3.org/2000/svg"><g fill="#e7ffff"><path d="m248.189 512h-230.472v-91.115h230.472z"/><path d="m248.189 220.627h-230.472v-94.551l62.67-30.041v-96.035h105.132v96.035l62.67 30.041z"/><path d="m241.083 301.374h-218.396c-12.53 0-22.687-10.157-22.687-22.687 0-12.53 10.157-22.687 22.687-22.687h218.396c12.53 0 22.687 10.157 22.687 22.687 0 12.53-10.157 22.687-22.687 22.687z"/><path d="m241.083 392.122h-218.396c-12.53 0-22.687-10.157-22.687-22.687 0-12.53 10.157-22.687 22.687-22.687h218.396c12.53 0 22.687 10.157 22.687 22.687 0 12.53-10.157 22.687-22.687 22.687z"/></g><path d="m131.667 420.885h116.522v91.115h-116.522z" fill="#d9effc"/><path d="m185.519 96.035v-96.035h-53.852v220.627h116.522v-94.551z" fill="#d9effc"/><path d="m241.083 256h-109.416v45.374h109.416c12.53 0 22.687-10.157 22.687-22.687s-10.157-22.687-22.687-22.687z" fill="#d9effc"/><path d="m241.083 346.748h-109.416v45.374h109.416c12.53 0 22.687-10.157 22.687-22.687 0-12.53-10.157-22.687-22.687-22.687z" fill="#d9effc"/><path d="m80.387 0h105.132v46.505h-105.132z" fill="#7be2f5"/><path d="m241.083 256h-218.396c-12.53 0-22.687-10.157-22.687-22.687 0-12.53 10.157-22.687 22.687-22.687h218.396c12.53 0 22.687 10.157 22.687 22.687 0 12.53-10.157 22.687-22.687 22.687z" fill="#d9effc"/><path d="m241.083 346.748h-218.396c-12.53 0-22.687-10.157-22.687-22.687 0-12.53 10.157-22.687 22.687-22.687h218.396c12.53 0 22.687 10.157 22.687 22.687 0 12.53-10.157 22.687-22.687 22.687z" fill="#d9effc"/><path d="m241.083 437.655h-218.396c-12.53 0-22.687-10.157-22.687-22.687 0-12.53 10.157-22.687 22.687-22.687h218.396c12.53 0 22.687 10.157 22.687 22.687 0 12.53-10.157 22.687-22.687 22.687z" fill="#d9effc"/><path d="m131.667 0h53.852v46.505h-53.852z" fill="#50baea"/><path d="m241.083 210.626h-109.416v45.374h109.416c12.53 0 22.687-10.157 22.687-22.687s-10.157-22.687-22.687-22.687z" fill="#cddefe"/><path d="m241.083 301.374h-109.416v45.374h109.416c12.53 0 22.687-10.157 22.687-22.687s-10.157-22.687-22.687-22.687z" fill="#cddefe"/><path d="m241.083 392.281h-109.416v45.374h109.416c12.53 0 22.687-10.157 22.687-22.687 0-12.529-10.157-22.687-22.687-22.687z" fill="#cddefe"/><path d="m367.175 273.705-4.973-12.228c-12.516-30.706 2.287-65.878 33.001-78.398l36.622-14.926 4.98 12.213c6.065 14.88 5.973 31.229-.26 46.038s-17.859 26.304-32.738 32.369z" fill="#97de3d"/><path d="m399.92 512c-5.981 0-11.961-.645-17.886-1.948-5.652-1.244-11.15-3.083-16.425-5.489-5.274 2.406-10.771 4.245-16.422 5.489-26.981 5.936-55.095-1.798-79.169-21.778-22.965-19.06-39.614-47.242-46.881-79.355-8.521-37.648-2.999-75.632 15.152-104.213 13.414-21.123 33.111-35.465 55.466-40.385 13.73-3.023 27.788-2.505 41.778 1.54 19.675 5.692 40.475 5.69 60.155 0 13.99-4.044 28.046-4.562 41.777-1.54h-.001c22.354 4.92 42.052 19.262 55.466 40.384 18.15 28.581 23.674 66.566 15.153 104.214-7.268 32.113-23.917 60.295-46.882 79.355-18.787 15.591-40.034 23.726-61.281 23.726z" fill="#fc652c"/><path d="m492.929 304.705c-13.414-21.122-33.111-35.464-55.466-40.384h.001c-13.731-3.021-27.788-2.504-41.777 1.541-9.839 2.845-19.959 4.268-30.078 4.268v234.433c5.275 2.406 10.772 4.245 16.425 5.489 5.925 1.304 11.906 1.948 17.886 1.948 21.246 0 42.493-8.135 61.28-23.727 22.965-19.06 39.614-47.242 46.882-79.355 8.521-37.647 2.998-75.632-15.153-104.213z" fill="#ed3a19"/></svg>