<?xml version="1.0" encoding="iso-8859-1"?>
<!-- Generator: Adobe Illustrator 19.0.0, SVG Export Plug-In . SVG Version: 6.00 Build 0)  -->
<svg version="1.1" id="Layer_1" xmlns="http://www.w3.org/2000/svg" xmlns:xlink="http://www.w3.org/1999/xlink" x="0px" y="0px"
	 viewBox="0 0 512 512" style="enable-background:new 0 0 512 512;" xml:space="preserve">
<g transform="translate(0 -1)">
	<polygon style="fill:#556080;" points="187.733,320.999 324.267,320.999 324.267,286.865 187.733,286.865 	"/>
	<polygon style="fill:#2D3751;" points="204.8,355.132 307.2,355.132 307.2,320.999 204.8,320.999 	"/>
	<polygon style="fill:#556080;" points="238.933,500.199 273.067,500.199 273.067,355.132 238.933,355.132 	"/>
	<path style="fill:#B0BAC1;" d="M503.467,508.735H8.533c-4.71,0-8.533-3.814-8.533-8.533c0-4.719,3.823-8.533,8.533-8.533h494.933
		c4.71,0,8.533,3.814,8.533,8.533C512,504.92,508.177,508.735,503.467,508.735"/>
	<g>
		<polygon style="fill:#F3D55B;" points="51.2,56.465 119.467,56.465 119.467,5.265 51.2,5.265 		"/>
		<polygon style="fill:#F3D55B;" points="392.533,56.465 460.8,56.465 460.8,5.265 392.533,5.265 		"/>
		<polygon style="fill:#F3D55B;" points="221.867,56.465 290.133,56.465 290.133,5.265 221.867,5.265 		"/>
	</g>
	<polygon style="fill:#48A0DC;" points="460.8,30.868 460.8,56.468 392.533,56.468 392.533,30.868 290.133,30.868 290.133,56.468 
		221.867,56.468 221.867,30.868 119.467,30.868 119.467,56.468 51.2,56.468 51.2,30.868 8.533,30.868 8.533,286.868 
		503.467,286.868 503.467,30.868 	"/>
	<g>
		<path style="fill:#FFFFFF;" d="M213.333,227.135h-102.4c-4.71,0-8.533-3.814-8.533-8.533c0-4.719,3.823-8.533,8.533-8.533h102.4
			c4.71,0,8.533,3.814,8.533,8.533C221.867,223.32,218.044,227.135,213.333,227.135"/>
		<path style="fill:#FFFFFF;" d="M119.467,141.801v25.6c0,23.526,19.14,42.667,42.667,42.667s42.667-19.14,42.667-42.667v-25.6
			H119.467z M162.133,227.135c-32.939,0-59.733-26.803-59.733-59.733v-34.133c0-4.719,3.823-8.533,8.533-8.533h102.4
			c4.71,0,8.533,3.814,8.533,8.533v34.133C221.867,200.331,195.072,227.135,162.133,227.135L162.133,227.135z"/>
		<path style="fill:#FFFFFF;" d="M110.938,184.468c-28.237,0-51.2-22.963-51.2-51.2c0-4.719,3.814-8.533,8.533-8.533h42.667
			c4.71,0,8.533,3.814,8.533,8.533s-3.823,8.533-8.533,8.533H77.879c3.797,14.711,17.178,25.6,33.058,25.6
			c4.71,0,8.533,3.814,8.533,8.533C119.471,180.654,115.648,184.468,110.938,184.468"/>
		<path style="fill:#FFFFFF;" d="M426.667,141.801H307.2c-4.71,0-8.533-3.814-8.533-8.533s3.823-8.533,8.533-8.533h119.467
			c4.71,0,8.533,3.814,8.533,8.533S431.377,141.801,426.667,141.801"/>
		<path style="fill:#FFFFFF;" d="M426.667,227.135H307.2c-4.71,0-8.533-3.814-8.533-8.533c0-4.719,3.823-8.533,8.533-8.533h119.467
			c4.71,0,8.533,3.814,8.533,8.533C435.2,223.32,431.377,227.135,426.667,227.135"/>
		<path style="fill:#FFFFFF;" d="M443.733,184.468h-153.6c-4.71,0-8.533-3.814-8.533-8.533c0-4.719,3.823-8.533,8.533-8.533h153.6
			c4.71,0,8.533,3.814,8.533,8.533C452.267,180.654,448.444,184.468,443.733,184.468"/>
	</g>
</g>
<g>
</g>
<g>
</g>
<g>
</g>
<g>
</g>
<g>
</g>
<g>
</g>
<g>
</g>
<g>
</g>
<g>
</g>
<g>
</g>
<g>
</g>
<g>
</g>
<g>
</g>
<g>
</g>
<g>
</g>
</svg>
