<?xml version="1.0" encoding="iso-8859-1"?>
<!-- Generator: Adobe Illustrator 19.0.0, SVG Export Plug-In . SVG Version: 6.00 Build 0)  -->
<svg version="1.1" id="Layer_1" xmlns="http://www.w3.org/2000/svg" xmlns:xlink="http://www.w3.org/1999/xlink" x="0px" y="0px"
	 viewBox="0 0 512 512" style="enable-background:new 0 0 512 512;" xml:space="preserve">
<g transform="translate(0 -1)">
	<g>
		<path style="fill:#4482C3;" d="M76.8,346.601H8.533c-4.719,0-8.533-3.823-8.533-8.533s3.814-8.533,8.533-8.533H76.8
			c4.719,0,8.533,3.823,8.533,8.533S81.519,346.601,76.8,346.601"/>
		<path style="fill:#4482C3;" d="M401.067,346.601H110.933c-4.719,0-8.533-3.823-8.533-8.533s3.814-8.533,8.533-8.533h290.133
			c4.719,0,8.533,3.823,8.533,8.533S405.786,346.601,401.067,346.601"/>
		<path style="fill:#4482C3;" d="M503.467,346.601H435.2c-4.719,0-8.533-3.823-8.533-8.533s3.814-8.533,8.533-8.533h68.267
			c4.719,0,8.533,3.823,8.533,8.533S508.186,346.601,503.467,346.601"/>
		<path style="fill:#4482C3;" d="M179.2,414.868c-14.114,0-25.6-11.486-25.6-25.6c0-4.71,3.814-8.533,8.533-8.533
			c4.719,0,8.533,3.823,8.533,8.533c0,4.702,3.823,8.533,8.533,8.533s8.533-3.831,8.533-8.533c0-4.71,3.814-8.533,8.533-8.533
			s8.533,3.823,8.533,8.533C204.8,403.382,193.314,414.868,179.2,414.868"/>
		<path style="fill:#4482C3;" d="M332.8,414.868c-14.114,0-25.6-11.486-25.6-25.6c0-4.71,3.814-8.533,8.533-8.533
			c4.719,0,8.533,3.823,8.533,8.533c0,4.702,3.823,8.533,8.533,8.533s8.533-3.831,8.533-8.533c0-4.71,3.814-8.533,8.533-8.533
			c4.719,0,8.533,3.823,8.533,8.533C358.4,403.382,346.914,414.868,332.8,414.868"/>
		<path style="fill:#4482C3;" d="M256,457.535c-14.114,0-25.6-11.486-25.6-25.6c0-4.71,3.814-8.533,8.533-8.533
			c4.719,0,8.533,3.823,8.533,8.533c0,4.702,3.823,8.533,8.533,8.533c4.71,0,8.533-3.831,8.533-8.533
			c0-4.71,3.814-8.533,8.533-8.533s8.533,3.823,8.533,8.533C281.6,446.049,270.114,457.535,256,457.535"/>
	</g>
	<polygon style="fill:#BDC3C7;" points="76.8,406.332 110.933,406.332 110.933,269.799 76.8,269.799 	"/>
	<path style="fill:#E64C3C;" d="M8.533,158.868c-4.719,0-8.533-3.823-8.533-8.533s3.814-8.533,8.533-8.533
		c27.622,0,59.733-22.366,59.733-51.2c0-4.71,3.814-8.533,8.533-8.533c4.719,0,8.533,3.823,8.533,8.533
		C85.333,129.675,44.783,158.868,8.533,158.868"/>
	<polygon style="fill:#BDC3C7;" points="401.067,406.332 435.2,406.332 435.2,269.799 401.067,269.799 	"/>
	<g>
		<path style="fill:#E64C3C;" d="M503.467,158.868c-36.25,0-76.8-29.193-76.8-68.267c0-4.71,3.814-8.533,8.533-8.533
			c4.719,0,8.533,3.823,8.533,8.533c0,28.834,32.111,51.2,59.733,51.2c4.719,0,8.533,3.823,8.533,8.533
			S508.186,158.868,503.467,158.868"/>
		<path style="fill:#E64C3C;" d="M256,158.859c-95.019,0-149.197-60.049-151.458-62.609c-3.115-3.524-2.79-8.9,0.734-12.032
			c3.507-3.115,8.909-2.799,12.041,0.717c0.512,0.572,51.618,56.858,138.684,56.858s138.172-56.286,138.684-56.858
			c3.123-3.516,8.516-3.831,12.041-0.717c3.524,3.132,3.849,8.508,0.734,12.032C405.197,98.81,351.019,158.859,256,158.859"/>
		<path style="fill:#E64C3C;" d="M153.6,278.335c-4.719,0-8.533-3.823-8.533-8.533V124.735c0-4.71,3.814-8.533,8.533-8.533
			s8.533,3.823,8.533,8.533v145.067C162.133,274.512,158.319,278.335,153.6,278.335"/>
		<path style="fill:#E64C3C;" d="M196.267,278.335c-4.719,0-8.533-3.823-8.533-8.533V150.335c0-4.71,3.814-8.533,8.533-8.533
			s8.533,3.823,8.533,8.533v119.467C204.8,274.512,200.986,278.335,196.267,278.335"/>
		<path style="fill:#E64C3C;" d="M358.4,278.335c-4.719,0-8.533-3.823-8.533-8.533V124.735c0-4.71,3.814-8.533,8.533-8.533
			c4.719,0,8.533,3.823,8.533,8.533v145.067C366.933,274.512,363.119,278.335,358.4,278.335"/>
		<path style="fill:#E64C3C;" d="M315.733,278.335c-4.719,0-8.533-3.823-8.533-8.533V150.335c0-4.71,3.814-8.533,8.533-8.533
			c4.719,0,8.533,3.823,8.533,8.533v119.467C324.267,274.512,320.452,278.335,315.733,278.335"/>
		<polygon style="fill:#E64C3C;" points="247.467,269.799 264.533,269.799 264.533,150.324 247.467,150.324 		"/>
		<path style="fill:#E64C3C;" d="M76.8,227.135H8.533c-4.719,0-8.533-3.823-8.533-8.533s3.814-8.533,8.533-8.533H76.8
			c4.719,0,8.533,3.823,8.533,8.533S81.519,227.135,76.8,227.135"/>
		<path style="fill:#E64C3C;" d="M503.467,227.135H435.2c-4.719,0-8.533-3.823-8.533-8.533s3.814-8.533,8.533-8.533h68.267
			c4.719,0,8.533,3.823,8.533,8.533S508.186,227.135,503.467,227.135"/>
		<path style="fill:#E64C3C;" d="M401.067,227.135H110.933c-4.719,0-8.533-3.823-8.533-8.533s3.814-8.533,8.533-8.533h290.133
			c4.719,0,8.533,3.823,8.533,8.533S405.786,227.135,401.067,227.135"/>
	</g>
	<polygon style="fill:#BDC3C7;" points="51.2,474.599 136.533,474.599 136.533,440.465 51.2,440.465 	"/>
	<polygon style="fill:#7F8C8D;" points="68.267,440.465 119.467,440.465 119.467,406.332 68.267,406.332 	"/>
	<polygon style="fill:#BDC3C7;" points="375.467,474.599 460.8,474.599 460.8,440.465 375.467,440.465 	"/>
	<polygon style="fill:#7F8C8D;" points="392.533,440.465 443.733,440.465 443.733,406.332 392.533,406.332 	"/>
	<g>
		<path style="fill:#C03A2B;" d="M110.933,269.801H76.8V56.468c0-9.429,7.637-17.067,17.067-17.067s17.067,7.637,17.067,17.067
			V269.801z"/>
		<path style="fill:#C03A2B;" d="M401.067,269.801H435.2V56.468c0-9.429-7.637-17.067-17.067-17.067
			c-9.429,0-17.067,7.637-17.067,17.067V269.801z"/>
	</g>
	<path style="fill:#E64C3C;" d="M503.467,278.335H8.533c-4.719,0-8.533-3.823-8.533-8.533c0-4.71,3.814-8.533,8.533-8.533h494.933
		c4.719,0,8.533,3.823,8.533,8.533C512,274.512,508.186,278.335,503.467,278.335"/>
</g>
<g>
</g>
<g>
</g>
<g>
</g>
<g>
</g>
<g>
</g>
<g>
</g>
<g>
</g>
<g>
</g>
<g>
</g>
<g>
</g>
<g>
</g>
<g>
</g>
<g>
</g>
<g>
</g>
<g>
</g>
</svg>
