<?xml version="1.0" encoding="iso-8859-1"?>
<!-- Generator: Adobe Illustrator 19.0.0, SVG Export Plug-In . SVG Version: 6.00 Build 0)  -->
<svg version="1.1" id="Layer_1" xmlns="http://www.w3.org/2000/svg" xmlns:xlink="http://www.w3.org/1999/xlink" x="0px" y="0px"
	 viewBox="0 0 512 512" style="enable-background:new 0 0 512 512;" xml:space="preserve">
<g transform="translate(0 -1)">
	<polygon style="fill:#BDC3C7;" points="42.667,372.197 76.8,372.197 76.8,286.864 42.667,286.864 	"/>
	<path style="fill:#7F8C8D;" d="M93.867,397.8H25.6c0-18.85,15.283-34.133,34.133-34.133S93.867,378.95,93.867,397.8"/>
	<polygon style="fill:#BDC3C7;" points="435.2,372.197 469.333,372.197 469.333,286.864 435.2,286.864 	"/>
	<path style="fill:#7F8C8D;" d="M486.4,397.8h-68.267c0-18.85,15.283-34.133,34.133-34.133S486.4,378.95,486.4,397.8"/>
	<g>
		<path style="fill:#4482C3;" d="M503.467,295.4H8.533c-4.71,0-8.533-3.823-8.533-8.533c0-4.71,3.823-8.533,8.533-8.533h494.933
			c4.71,0,8.533,3.823,8.533,8.533C512,291.577,508.177,295.4,503.467,295.4"/>
		<path style="fill:#4482C3;" d="M512,286.867h-17.067c0-84.693-107.187-153.6-238.933-153.6s-238.933,68.907-238.933,153.6H0
			C0,192.761,114.842,116.2,256,116.2S512,192.761,512,286.867"/>
		<polygon style="fill:#4482C3;" points="247.467,286.864 264.533,286.864 264.533,124.731 247.467,124.731 		"/>
		<polygon style="fill:#4482C3;" points="281.6,286.864 298.667,286.864 298.667,124.731 281.6,124.731 		"/>
		<polygon style="fill:#4482C3;" points="315.733,286.864 332.8,286.864 332.8,133.264 315.733,133.264 		"/>
		<polygon style="fill:#4482C3;" points="349.867,286.864 366.933,286.864 366.933,133.264 349.867,133.264 		"/>
		<polygon style="fill:#4482C3;" points="384,286.864 401.067,286.864 401.067,150.331 384,150.331 		"/>
		<polygon style="fill:#4482C3;" points="418.133,286.864 435.2,286.864 435.2,167.397 418.133,167.397 		"/>
		<polygon style="fill:#4482C3;" points="452.267,286.864 469.333,286.864 469.333,192.997 452.267,192.997 		"/>
		<polygon style="fill:#4482C3;" points="213.333,286.864 230.4,286.864 230.4,124.731 213.333,124.731 		"/>
		<polygon style="fill:#4482C3;" points="179.2,286.864 196.267,286.864 196.267,133.264 179.2,133.264 		"/>
		<polygon style="fill:#4482C3;" points="145.067,286.864 162.133,286.864 162.133,133.264 145.067,133.264 		"/>
		<polygon style="fill:#4482C3;" points="110.933,286.864 128,286.864 128,150.331 110.933,150.331 		"/>
		<polygon style="fill:#4482C3;" points="76.8,286.864 93.867,286.864 93.867,167.397 76.8,167.397 		"/>
		<polygon style="fill:#4482C3;" points="42.667,286.864 59.733,286.864 59.733,192.997 42.667,192.997 		"/>
	</g>
</g>
<g>
</g>
<g>
</g>
<g>
</g>
<g>
</g>
<g>
</g>
<g>
</g>
<g>
</g>
<g>
</g>
<g>
</g>
<g>
</g>
<g>
</g>
<g>
</g>
<g>
</g>
<g>
</g>
<g>
</g>
</svg>
