<?xml version="1.0" encoding="iso-8859-1"?>
<!-- Generator: Adobe Illustrator 19.0.0, SVG Export Plug-In . SVG Version: 6.00 Build 0)  -->
<svg version="1.1" id="Layer_1" xmlns="http://www.w3.org/2000/svg" xmlns:xlink="http://www.w3.org/1999/xlink" x="0px" y="0px"
	 viewBox="0 0 512 512" style="enable-background:new 0 0 512 512;" xml:space="preserve">
<g>
	<g>
		<path style="fill:#BDC3C7;" d="M503.467,324.2c-4.719,0-8.533-3.823-8.533-8.533v-85.333c0-4.71,3.814-8.533,8.533-8.533
			c4.719,0,8.533,3.823,8.533,8.533v85.333C512,320.377,508.186,324.2,503.467,324.2"/>
		<path style="fill:#BDC3C7;" d="M503.467,324.2H8.533C3.814,324.2,0,320.377,0,315.666c0-4.71,3.814-8.533,8.533-8.533h494.933
			c4.719,0,8.533,3.823,8.533,8.533C512,320.377,508.186,324.2,503.467,324.2"/>
		<path style="fill:#BDC3C7;" d="M85.333,366.866c-4.719,0-8.533-3.823-8.533-8.533V273c0-4.71,3.814-8.533,8.533-8.533
			c4.719,0,8.533,3.823,8.533,8.533v85.333C93.867,363.043,90.052,366.866,85.333,366.866"/>
		<path style="fill:#BDC3C7;" d="M426.667,366.866c-4.719,0-8.533-3.823-8.533-8.533V273c0-4.71,3.814-8.533,8.533-8.533
			s8.533,3.823,8.533,8.533v85.333C435.2,363.043,431.386,366.866,426.667,366.866"/>
		<path style="fill:#BDC3C7;" d="M8.533,324.2C3.814,324.2,0,320.377,0,315.666v-85.333c0-4.71,3.814-8.533,8.533-8.533
			s8.533,3.823,8.533,8.533v85.333C17.067,320.377,13.252,324.2,8.533,324.2"/>
	</g>
	<path style="fill:#5E5F62;" d="M187.733,273H51.2V136.466l3.081-1.545c41.037-20.514,89.335-20.514,130.372,0l3.081,1.545V273z"/>
	<path style="fill:#464749;" d="M324.267,273H187.733V136.466l3.081-1.545c41.037-20.514,89.335-20.514,130.372,0l3.081,1.545V273z"
		/>
	<g>
		<path style="fill:#5E5F62;" d="M460.8,273H324.267V136.466l3.081-1.545c41.037-20.514,89.335-20.514,130.372,0l3.081,1.545V273z"
			/>
		<polygon style="fill:#5E5F62;" points="59.733,392.464 110.933,392.464 110.933,358.33 59.733,358.33 		"/>
		<polygon style="fill:#5E5F62;" points="401.067,392.464 452.267,392.464 452.267,358.33 401.067,358.33 		"/>
	</g>
	<g>
		<path style="fill:#464749;" d="M136.533,170.6H102.4c-4.719,0-8.533-3.823-8.533-8.533s3.814-8.533,8.533-8.533h34.133
			c4.719,0,8.533,3.823,8.533,8.533S141.252,170.6,136.533,170.6"/>
		<path style="fill:#464749;" d="M136.533,238.866H102.4c-4.719,0-8.533-3.823-8.533-8.533s3.814-8.533,8.533-8.533h34.133
			c4.719,0,8.533,3.823,8.533,8.533S141.252,238.866,136.533,238.866"/>
		<path style="fill:#464749;" d="M153.6,204.733H85.333c-4.719,0-8.533-3.823-8.533-8.533s3.814-8.533,8.533-8.533H153.6
			c4.719,0,8.533,3.823,8.533,8.533S158.319,204.733,153.6,204.733"/>
	</g>
	<g>
		<path style="fill:#5E5F62;" d="M273.067,170.6h-34.133c-4.719,0-8.533-3.823-8.533-8.533s3.814-8.533,8.533-8.533h34.133
			c4.719,0,8.533,3.823,8.533,8.533S277.786,170.6,273.067,170.6"/>
		<path style="fill:#5E5F62;" d="M273.067,238.866h-34.133c-4.719,0-8.533-3.823-8.533-8.533s3.814-8.533,8.533-8.533h34.133
			c4.719,0,8.533,3.823,8.533,8.533S277.786,238.866,273.067,238.866"/>
		<path style="fill:#5E5F62;" d="M290.133,204.733h-68.267c-4.719,0-8.533-3.823-8.533-8.533s3.814-8.533,8.533-8.533h68.267
			c4.719,0,8.533,3.823,8.533,8.533S294.852,204.733,290.133,204.733"/>
	</g>
	<g>
		<path style="fill:#464749;" d="M409.6,170.6h-34.133c-4.719,0-8.533-3.823-8.533-8.533s3.814-8.533,8.533-8.533H409.6
			c4.719,0,8.533,3.823,8.533,8.533S414.319,170.6,409.6,170.6"/>
		<path style="fill:#464749;" d="M409.6,238.866h-34.133c-4.719,0-8.533-3.823-8.533-8.533s3.814-8.533,8.533-8.533H409.6
			c4.719,0,8.533,3.823,8.533,8.533S414.319,238.866,409.6,238.866"/>
		<path style="fill:#464749;" d="M426.667,204.733H358.4c-4.719,0-8.533-3.823-8.533-8.533s3.814-8.533,8.533-8.533h68.267
			c4.719,0,8.533,3.823,8.533,8.533S431.386,204.733,426.667,204.733"/>
	</g>
</g>
<g>
</g>
<g>
</g>
<g>
</g>
<g>
</g>
<g>
</g>
<g>
</g>
<g>
</g>
<g>
</g>
<g>
</g>
<g>
</g>
<g>
</g>
<g>
</g>
<g>
</g>
<g>
</g>
<g>
</g>
</svg>
