<?xml version="1.0" encoding="iso-8859-1"?>
<!-- Generator: Adobe Illustrator 19.0.0, SVG Export Plug-In . SVG Version: 6.00 Build 0)  -->
<svg version="1.1" id="Layer_1" xmlns="http://www.w3.org/2000/svg" xmlns:xlink="http://www.w3.org/1999/xlink" x="0px" y="0px"
	 viewBox="0 0 511.997 511.997" style="enable-background:new 0 0 511.997 511.997;" xml:space="preserve">
<g transform="translate(0 -1)">
	<g>
		<path style="fill:#BDC3C7;" d="M117.151,486.966c-4.799,0-8.678-3.888-8.678-8.678V9.678c0-4.79,3.879-8.678,8.678-8.678
			s8.678,3.888,8.678,8.678v468.61C125.829,483.078,121.95,486.966,117.151,486.966"/>
		<path style="fill:#BDC3C7;" d="M160.541,35.712h-43.39c-4.799,0-8.678-3.888-8.678-8.678s3.879-8.678,8.678-8.678h43.39
			c4.799,0,8.678,3.888,8.678,8.678S165.34,35.712,160.541,35.712"/>
		<path style="fill:#BDC3C7;" d="M394.846,486.966c-4.799,0-8.678-3.888-8.678-8.678V9.678c0-4.79,3.879-8.678,8.678-8.678
			s8.678,3.888,8.678,8.678v468.61C403.524,483.078,399.645,486.966,394.846,486.966"/>
		<path style="fill:#BDC3C7;" d="M394.846,35.712h-43.39c-4.799,0-8.678-3.888-8.678-8.678s3.879-8.678,8.678-8.678h43.39
			c4.799,0,8.678,3.888,8.678,8.678S399.645,35.712,394.846,35.712"/>
		<path style="fill:#BDC3C7;" d="M160.541,252.661h-43.39c-4.799,0-8.678-3.888-8.678-8.678s3.879-8.678,8.678-8.678h43.39
			c4.799,0,8.678,3.888,8.678,8.678S165.34,252.661,160.541,252.661"/>
		<path style="fill:#BDC3C7;" d="M394.846,252.661h-43.39c-4.799,0-8.678-3.888-8.678-8.678s3.879-8.678,8.678-8.678h43.39
			c4.799,0,8.678,3.888,8.678,8.678S399.645,252.661,394.846,252.661"/>
	</g>
	<polygon style="fill:#2C2F38;" points="160.541,417.54 351.456,417.54 351.456,87.777 160.541,87.777 	"/>
	<g>
		<polygon style="fill:#805333;" points="91.117,512.997 143.185,512.997 143.185,478.286 91.117,478.286 		"/>
		<polygon style="fill:#805333;" points="160.541,44.387 351.456,44.387 351.456,9.675 160.541,9.675 		"/>
		<polygon style="fill:#805333;" points="368.812,512.997 420.88,512.997 420.88,478.286 368.812,478.286 		"/>
	</g>
	<g>
		<path style="fill:#FFFFFF;" d="M290.711,209.271h-69.424c-4.799,0-8.678-3.888-8.678-8.678s3.879-8.678,8.678-8.678h69.424
			c4.799,0,8.678,3.888,8.678,8.678S295.509,209.271,290.711,209.271"/>
		<path style="fill:#FFFFFF;" d="M290.711,296.051h-69.424c-4.799,0-8.678-3.888-8.678-8.678c0-4.79,3.879-8.678,8.678-8.678h69.424
			c4.799,0,8.678,3.888,8.678,8.678C299.389,292.163,295.509,296.051,290.711,296.051"/>
		<path style="fill:#FFFFFF;" d="M308.066,252.661H203.931c-4.799,0-8.678-3.888-8.678-8.678s3.879-8.678,8.678-8.678h104.136
			c4.799,0,8.678,3.888,8.678,8.678S312.865,252.661,308.066,252.661"/>
		<path style="fill:#FFFFFF;" d="M308.066,165.881H203.931c-4.799,0-8.678-3.888-8.678-8.678s3.879-8.678,8.678-8.678h104.136
			c4.799,0,8.678,3.888,8.678,8.678S312.865,165.881,308.066,165.881"/>
		<path style="fill:#FFFFFF;" d="M308.066,339.441H203.931c-4.799,0-8.678-3.888-8.678-8.678c0-4.79,3.879-8.678,8.678-8.678
			h104.136c4.799,0,8.678,3.888,8.678,8.678C316.744,335.553,312.865,339.441,308.066,339.441"/>
	</g>
</g>
<g>
</g>
<g>
</g>
<g>
</g>
<g>
</g>
<g>
</g>
<g>
</g>
<g>
</g>
<g>
</g>
<g>
</g>
<g>
</g>
<g>
</g>
<g>
</g>
<g>
</g>
<g>
</g>
<g>
</g>
</svg>
