<?xml version="1.0" encoding="iso-8859-1"?>
<!-- Generator: Adobe Illustrator 19.0.0, SVG Export Plug-In . SVG Version: 6.00 Build 0)  -->
<svg version="1.1" id="Layer_1" xmlns="http://www.w3.org/2000/svg" xmlns:xlink="http://www.w3.org/1999/xlink" x="0px" y="0px"
	 viewBox="0 0 512 512" style="enable-background:new 0 0 512 512;" xml:space="preserve">
<g transform="translate(0 -1)">
	<path style="fill:#7F8C8D;" d="M512,137.828c0,24.373-19.765,44.138-44.138,44.138s-44.138-19.765-44.138-44.138
		s19.765-44.138,44.138-44.138S512,113.455,512,137.828"/>
	<polygon style="fill:#95A5A5;" points="70.621,305.55 123.586,305.55 123.586,252.584 70.621,252.584 	"/>
	<polygon style="fill:#7F8C8D;" points="123.586,305.55 176.552,305.55 176.552,252.584 123.586,252.584 	"/>
	<polygon style="fill:#95A5A5;" points="176.552,305.55 229.517,305.55 229.517,252.584 176.552,252.584 	"/>
	<polygon style="fill:#7F8C8D;" points="229.517,305.55 282.483,305.55 282.483,252.584 229.517,252.584 	"/>
	<polygon style="fill:#95A5A5;" points="282.483,305.55 335.448,305.55 335.448,252.584 282.483,252.584 	"/>
	<polygon style="fill:#7F8C8D;" points="335.448,305.55 388.414,305.55 388.414,252.584 335.448,252.584 	"/>
	<polygon style="fill:#95A5A5;" points="388.414,305.55 441.379,305.55 441.379,252.584 388.414,252.584 	"/>
	<polygon style="fill:#7F8C8D;" points="70.621,252.584 123.586,252.584 123.586,199.619 70.621,199.619 	"/>
	<polygon style="fill:#95A5A5;" points="123.586,252.584 176.552,252.584 176.552,199.619 123.586,199.619 	"/>
	<polygon style="fill:#7F8C8D;" points="176.552,252.584 229.517,252.584 229.517,199.619 176.552,199.619 	"/>
	<polygon style="fill:#95A5A5;" points="229.517,252.584 282.483,252.584 282.483,199.619 229.517,199.619 	"/>
	<polygon style="fill:#7F8C8D;" points="282.483,252.584 335.448,252.584 335.448,199.619 282.483,199.619 	"/>
	<polygon style="fill:#95A5A5;" points="335.448,252.584 388.414,252.584 388.414,199.619 335.448,199.619 	"/>
	<polygon style="fill:#7F8C8D;" points="388.414,252.584 441.379,252.584 441.379,199.619 388.414,199.619 	"/>
	<polygon style="fill:#95A5A5;" points="70.621,402.653 123.586,402.653 123.586,349.688 70.621,349.688 	"/>
	<polygon style="fill:#7F8C8D;" points="123.586,402.653 176.552,402.653 176.552,349.688 123.586,349.688 	"/>
	<polygon style="fill:#95A5A5;" points="176.552,402.653 229.517,402.653 229.517,349.688 176.552,349.688 	"/>
	<polygon style="fill:#7F8C8D;" points="229.517,402.653 282.483,402.653 282.483,349.688 229.517,349.688 	"/>
	<polygon style="fill:#95A5A5;" points="282.483,402.653 335.448,402.653 335.448,349.688 282.483,349.688 	"/>
	<polygon style="fill:#7F8C8D;" points="335.448,402.653 388.414,402.653 388.414,349.688 335.448,349.688 	"/>
	<polygon style="fill:#95A5A5;" points="388.414,402.653 441.379,402.653 441.379,349.688 388.414,349.688 	"/>
	<polygon style="fill:#7F8C8D;" points="70.621,349.688 123.586,349.688 123.586,296.722 70.621,296.722 	"/>
	<polygon style="fill:#95A5A5;" points="123.586,349.688 176.552,349.688 176.552,296.722 123.586,296.722 	"/>
	<polygon style="fill:#7F8C8D;" points="176.552,349.688 229.517,349.688 229.517,296.722 176.552,296.722 	"/>
	<polygon style="fill:#95A5A5;" points="229.517,349.688 282.483,349.688 282.483,296.722 229.517,296.722 	"/>
	<polygon style="fill:#7F8C8D;" points="282.483,349.688 335.448,349.688 335.448,296.722 282.483,296.722 	"/>
	<polygon style="fill:#95A5A5;" points="335.448,349.688 388.414,349.688 388.414,296.722 335.448,296.722 	"/>
	<polygon style="fill:#7F8C8D;" points="388.414,349.688 441.379,349.688 441.379,296.722 388.414,296.722 	"/>
	<path style="fill:#BDC3C7;" d="M467.862,182.3c-9.984,0-19.085-3.566-26.483-9.366v247.375h52.966V172.934
		C486.947,178.734,477.846,182.3,467.862,182.3"/>
	<path style="fill:#7F8C8D;" d="M88.276,137.828c0,24.373-19.765,44.138-44.138,44.138S0,162.201,0,137.828
		s19.765-44.138,44.138-44.138S88.276,113.455,88.276,137.828"/>
	<path style="fill:#BDC3C7;" d="M44.138,182.3c-9.984,0-19.085-3.566-26.483-9.366v247.375h52.966V172.934
		C63.223,178.734,54.122,182.3,44.138,182.3"/>
</g>
<g>
</g>
<g>
</g>
<g>
</g>
<g>
</g>
<g>
</g>
<g>
</g>
<g>
</g>
<g>
</g>
<g>
</g>
<g>
</g>
<g>
</g>
<g>
</g>
<g>
</g>
<g>
</g>
<g>
</g>
</svg>
