<?xml version="1.0" encoding="iso-8859-1"?>
<!-- Generator: Adobe Illustrator 19.0.0, SVG Export Plug-In . SVG Version: 6.00 Build 0)  -->
<svg version="1.1" id="Layer_1" xmlns="http://www.w3.org/2000/svg" xmlns:xlink="http://www.w3.org/1999/xlink" x="0px" y="0px"
	 viewBox="0 0 511.997 511.997" style="enable-background:new 0 0 511.997 511.997;" xml:space="preserve">
<g transform="translate(0 -1)">
	<g>
		<polygon style="fill:#95A5A5;" points="127.999,512.997 182.856,512.997 182.856,439.854 127.999,439.854 		"/>
		<polygon style="fill:#95A5A5;" points="329.142,512.997 383.999,512.997 383.999,439.854 329.142,439.854 		"/>
	</g>
	<g>
		<polygon style="fill:#BDC3C7;" points="365.713,439.857 347.427,439.857 347.427,284.429 164.57,284.429 164.57,439.857 
			146.284,439.857 146.284,266.143 365.713,266.143 		"/>
		<polygon style="fill:#BDC3C7;" points="160.079,402.018 150.772,386.264 351.915,267.407 361.222,283.16 		"/>
		<polygon style="fill:#BDC3C7;" points="351.918,402.018 150.775,283.16 160.083,267.407 361.226,386.264 		"/>
	</g>
	<path style="fill:#556080;" d="M331.872,293.571H180.128c-28.791,0-52.133-23.342-52.133-52.123V110.714h256v130.734
		C383.996,270.23,360.663,293.571,331.872,293.571"/>
	<polygon style="fill:#2D3751;" points="402.284,110.714 109.713,110.714 255.999,1 	"/>
</g>
<g>
</g>
<g>
</g>
<g>
</g>
<g>
</g>
<g>
</g>
<g>
</g>
<g>
</g>
<g>
</g>
<g>
</g>
<g>
</g>
<g>
</g>
<g>
</g>
<g>
</g>
<g>
</g>
<g>
</g>
</svg>
