<svg height="512pt" viewBox="0 0 512 512" width="512pt" xmlns="http://www.w3.org/2000/svg"><path d="m512 256c0 141.386719-114.613281 256-256 256s-256-114.613281-256-256 114.613281-256 256-256 256 114.613281 256 256zm0 0" fill="#e64c3c"/><path d="m476.691406 256c0 2.914062-.089844 5.914062-.179687 8.828125-1.238281 32.742187-9.839844 64.785156-25.15625 93.75-2.714844 5.234375-5.691407 10.332031-8.917969 15.269531-17.457031 27.699219-40.890625 51.132813-68.589844 68.589844-4.9375 3.226562-10.035156 6.203125-15.269531 8.917969-28.964844 15.316406-61.007813 23.917969-93.75 25.15625-2.914063.089843-5.914063.179687-8.828125.179687s-5.914062-.089844-8.828125-.179687c-32.742187-1.238281-64.785156-9.839844-93.75-25.15625-5.234375-2.714844-10.332031-5.691407-15.269531-8.917969-26.238282-16.546875-48.652344-38.480469-65.765625-64.351562-1.058594-1.414063-1.941407-2.824219-2.824219-4.238282-3.226562-4.9375-6.203125-10.035156-8.917969-15.269531-15.316406-28.964844-23.917969-61.007813-25.15625-93.75-.089843-2.914063-.179687-5.914063-.179687-8.828125s.089844-5.914062.179687-8.828125c1.238281-32.742187 9.839844-64.785156 25.15625-93.75 2.714844-5.234375 5.691407-10.332031 8.917969-15.269531 17.457031-27.699219 40.890625-51.132813 68.589844-68.589844 4.9375-3.226562 10.035156-6.203125 15.269531-8.917969 28.964844-15.316406 61.007813-23.917969 93.75-25.15625 2.914063-.089843 5.914063-.179687 8.828125-.179687s5.914062.089844 8.828125.179687c32.742187 1.238281 64.785156 9.839844 93.75 25.15625 5.234375 2.714844 10.332031 5.691407 15.269531 8.917969 27.699219 17.457031 51.132813 40.890625 68.589844 68.589844 3.226562 4.9375 6.203125 10.035156 8.917969 15.269531 0 .089844.085937.089844.085937.179687 15.25 28.921876 23.816406 60.898438 25.070313 93.570313.089843 2.914063.179687 5.914063.179687 8.828125zm0 0" fill="#90bae1"/><path d="m451.441406 153.601562c-219.980468-13.066406-329.179687 124.730469-379.054687 224.484376-1.058594-1.414063-1.941407-2.824219-2.824219-4.238282-3.226562-4.9375-6.203125-10.035156-8.917969-15.269531-15.316406-28.964844-23.917969-61.007813-25.15625-93.75-.089843-2.914063-.179687-5.914063-.179687-8.828125s.089844-5.914062.179687-8.828125c1.238281-32.742187 9.839844-64.785156 25.15625-93.75 2.714844-5.234375 5.691407-10.332031 8.917969-15.269531 17.457031-27.699219 40.890625-51.132813 68.589844-68.589844 4.9375-3.226562 10.035156-6.203125 15.269531-8.917969 28.964844-15.316406 61.007813-23.917969 93.75-25.15625 2.914063-.089843 5.914063-.179687 8.828125-.179687s5.914062.089844 8.828125.179687c32.742187 1.238281 64.785156 9.839844 93.75 25.15625 5.234375 2.714844 10.332031 5.691407 15.269531 8.917969 27.699219 17.457031 51.132813 40.890625 68.589844 68.589844 3.226562 4.9375 6.203125 10.035156 8.917969 15.269531 0 .089844.085937.089844.085937.179687zm0 0" fill="#b0d3f0"/><g fill="#5e5f62"><path d="m264.828125 35.488281v35.132813c0 4.875-3.953125 8.828125-8.828125 8.828125s-8.828125-3.953125-8.828125-8.828125v-35.132813c2.914063-.089843 5.914063-.179687 8.828125-.179687s5.914062.089844 8.828125.179687zm0 0"/><path d="m167.722656 103.105469c-4.246094 2.390625-9.625.9375-12.09375-3.265625l-17.476562-30.277344c4.9375-3.226562 10.035156-6.203125 15.269531-8.917969l17.570313 30.367188c2.402343 4.246093.945312 9.636719-3.269532 12.09375zm0 0"/><path d="m103.105469 167.722656c-2.46875 4.203125-7.84375 5.65625-12.09375 3.269532l-30.367188-17.570313c2.714844-5.234375 5.691407-10.332031 8.917969-15.269531l30.277344 17.476562c2.042968 1.167969 3.535156 3.097656 4.148437 5.367188.613281 2.273437.296875 4.691406-.882812 6.726562zm0 0"/><path d="m79.449219 256c0 4.875-3.953125 8.828125-8.828125 8.828125h-35.132813c-.089843-2.914063-.179687-5.914063-.179687-8.828125s.089844-5.914062.179687-8.828125h35.132813c4.875 0 8.828125 3.953125 8.828125 8.828125zm0 0"/><path d="m99.839844 356.371094-30.277344 17.476562c-3.226562-4.9375-6.203125-10.035156-8.917969-15.269531l30.367188-17.570313c4.242187-2.4375 9.65625-.972656 12.09375 3.269532 2.4375 4.238281.976562 9.65625-3.265625 12.09375zm0 0"/><path d="m170.992188 420.988281-17.570313 30.367188c-5.234375-2.714844-10.332031-5.691407-15.269531-8.917969l17.476562-30.277344c1.578125-2.742187 4.5-4.4375 7.664063-4.445312 3.164062-.003906 6.09375 1.675781 7.679687 4.414062 1.589844 2.738282 1.59375 6.113282.019532 8.859375zm0 0"/><path d="m264.828125 441.378906v35.132813c-2.914063.089843-5.914063.179687-8.828125.179687s-5.914062-.089844-8.828125-.179687v-35.132813c0-4.875 3.953125-8.828125 8.828125-8.828125s8.828125 3.953125 8.828125 8.828125zm0 0"/><path d="m373.847656 442.4375c-4.9375 3.226562-10.035156 6.203125-15.269531 8.917969l-17.570313-30.367188c-2.4375-4.242187-.972656-9.65625 3.269532-12.09375 4.238281-2.4375 9.65625-.976562 12.09375 3.265625zm0 0"/><path d="m451.355469 358.578125c-2.714844 5.234375-5.691407 10.332031-8.917969 15.269531l-30.277344-17.476562c-4.242187-2.4375-5.703125-7.855469-3.265625-12.09375 2.4375-4.242188 7.851563-5.707032 12.09375-3.269532zm0 0"/><path d="m476.691406 256c0 2.914062-.089844 5.914062-.179687 8.828125h-35.132813c-4.875 0-8.828125-3.953125-8.828125-8.828125s3.953125-8.828125 8.828125-8.828125h35.132813c.089843 2.914063.179687 5.914063.179687 8.828125zm0 0"/><path d="m451.355469 153.421875-30.367188 17.570313c-4.242187 2.4375-9.65625.972656-12.09375-3.269532-2.4375-4.238281-.976562-9.65625 3.265625-12.09375l30.277344-17.476562c3.226562 4.9375 6.203125 10.035156 8.917969 15.269531zm0 0"/><path d="m373.847656 69.5625-17.476562 30.277344c-2.4375 4.242187-7.855469 5.703125-12.09375 3.265625-4.242188-2.4375-5.707032-7.851563-3.269532-12.09375l17.570313-30.367188c5.234375 2.714844 10.332031 5.691407 15.269531 8.917969zm0 0"/><path d="m256 238.34375c-4.875 0-8.828125-3.949219-8.828125-8.828125v-114.757813c0-4.875 3.953125-8.828124 8.828125-8.828124s8.828125 3.953124 8.828125 8.828124v114.757813c0 4.878906-3.953125 8.828125-8.828125 8.828125zm0 0"/><path d="m203.035156 361.929688c-3.117187 0-5.996094-1.644532-7.585937-4.324219-1.589844-2.679688-1.648438-5.996094-.15625-8.730469l40.253906-73.796875c1.449219-2.878906 4.351563-4.734375 7.570313-4.847656 3.222656-.113281 6.246093 1.535156 7.894531 4.304687 1.648437 2.765625 1.660156 6.210938.027343 8.988282l-40.246093 73.808593c-1.546875 2.839844-4.523438 4.601563-7.757813 4.597657zm0 0"/></g><path d="m282.484375 256c0 14.625-11.859375 26.484375-26.484375 26.484375s-26.484375-11.859375-26.484375-26.484375 11.859375-26.484375 26.484375-26.484375 26.484375 11.859375 26.484375 26.484375zm0 0" fill="#2c2f38"/></svg>