<svg height="512pt" viewBox="0 0 512 512" width="512pt" xmlns="http://www.w3.org/2000/svg"><path d="m26.484375 0h459.03125c14.628906 0 26.484375 11.855469 26.484375 26.484375v353.101563c0 14.625-11.855469 26.484374-26.484375 26.484374h-459.03125c-14.628906 0-26.484375-11.859374-26.484375-26.484374v-353.101563c0-14.628906 11.855469-26.484375 26.484375-26.484375zm0 0" fill="#a5a5a4"/><path d="m150.070312 467.863281h211.859376c19.503906 0 35.3125 15.808594 35.3125 35.308594 0 4.875-3.953126 8.828125-8.828126 8.828125h-264.828124c-4.875 0-8.828126-3.953125-8.828126-8.828125 0-19.5 15.808594-35.308594 35.3125-35.308594zm0 0" fill="#a5a5a4"/><path d="m353.101562 467.863281h-194.203124l17.652343-61.792969h158.898438zm0 0" fill="#5e5f62"/><path d="m52.964844 35.308594h406.070312c9.75 0 17.65625 7.90625 17.65625 17.65625v264.828125c0 9.75-7.90625 17.65625-17.65625 17.65625h-406.070312c-9.75 0-17.65625-7.90625-17.65625-17.65625v-264.828125c0-9.75 7.90625-17.65625 17.65625-17.65625zm0 0" fill="#90bae1"/><path d="m476.691406 52.964844v118.730468c-172.492187-45.019531-303.847656 72.121094-376.675781 163.753907h-47.050781c-9.738282-.03125-17.625-7.917969-17.65625-17.65625v-264.828125c.03125-9.738282 7.917968-17.625 17.65625-17.65625h406.070312c9.738282.03125 17.625 7.917968 17.65625 17.65625zm0 0" fill="#b0d3f0"/><path d="m300.136719 379.585938h-88.273438c-4.875 0-8.828125-3.953126-8.828125-8.828126s3.953125-8.828124 8.828125-8.828124h88.273438c4.875 0 8.828125 3.953124 8.828125 8.828124s-3.953125 8.828126-8.828125 8.828126zm0 0" fill="#5e5f62"/><path d="m379.585938 211.863281c0 3-.089844 5.914063-.265626 8.828125-1.601562 22.203125-9.199218 43.5625-21.980468 61.792969h-202.679688c-12.78125-18.230469-20.378906-39.589844-21.980468-61.792969-.175782-2.914062-.265626-5.828125-.265626-8.828125 0-3.003906.089844-5.914062.351563-8.828125 1.800781-26.40625 12.152344-51.503906 29.484375-71.503906 3.761719-4.570312 7.929688-8.796875 12.449219-12.625 20.179687-17.769531 45.648437-28.410156 72.472656-30.277344 2.914063-.265625 5.828125-.351562 8.828125-.351562s5.914062.085937 8.828125.351562c26.824219 1.867188 52.292969 12.507813 72.472656 30.277344 4.519531 3.828125 8.6875 8.054688 12.449219 12.625 17.332031 20 27.683594 45.097656 29.484375 71.503906.261719 2.914063.351563 5.824219.351563 8.828125zm0 0" fill="#e6e7e8"/><g fill="#5e5f62"><path d="m264.828125 88.628906v34.957032c0 4.875-3.953125 8.828124-8.828125 8.828124s-8.828125-3.953124-8.828125-8.828124v-34.957032c2.914063-.265625 5.828125-.351562 8.828125-.351562s5.914062.085937 8.828125.351562zm0 0"/><path d="m190.765625 147.507812c-3.484375 3.414063-9.054687 3.414063-12.535156 0l-15.980469-15.976562c3.761719-4.570312 7.929688-8.796875 12.449219-12.625l16.066406 16.066406c3.441406 3.46875 3.441406 9.066406 0 12.535156zm0 0"/><path d="m349.75 131.53125-15.980469 15.976562c-3.480469 3.414063-9.050781 3.414063-12.535156 0-3.441406-3.46875-3.441406-9.066406 0-12.535156l16.066406-16.066406c4.519531 3.828125 8.6875 8.054688 12.449219 12.625zm0 0"/><path d="m379.585938 211.863281c0 3-.089844 5.914063-.265626 8.828125h-35.042968c-4.875 0-8.828125-3.953125-8.828125-8.828125s3.953125-8.828125 8.828125-8.828125h34.957031c.261719 2.914063.351563 5.824219.351563 8.828125zm0 0"/><path d="m176.550781 211.863281c0 4.875-3.953125 8.828125-8.828125 8.828125h-35.042968c-.175782-2.914062-.265626-5.828125-.265626-8.828125 0-3.003906.089844-5.914062.351563-8.828125h34.957031c4.875 0 8.828125 3.953125 8.828125 8.828125zm0 0"/></g><path d="m230.230469 262.179688-2.355469-95.789063c.148438-4.679687 10.460938-7.132813 12.703125-3.035156l41.171875 86.507812zm0 0" fill="#e64c3c"/><path d="m282.472656 255.992188c0 14.625-11.855468 26.480468-26.480468 26.480468-14.628907 0-26.484376-11.855468-26.484376-26.480468 0-14.628907 11.855469-26.484376 26.484376-26.484376 14.625 0 26.480468 11.855469 26.480468 26.484376zm0 0" fill="#c03a2b"/></svg>