<svg height="512pt" viewBox="0 0 512.11362 512" width="512pt" xmlns="http://www.w3.org/2000/svg"><path d="m469.332031 256.042969c.074219 86.324219-51.898437 164.183593-131.652343 197.21875-79.753907 33.039062-171.558594 14.742187-232.550782-46.351563-17.496094-17.421875-31.792968-37.785156-42.238281-60.160156-1.28125-2.472656-2.390625-5.117188-3.5-7.679688-32.152344-76.023437-17.582031-163.777343 37.417969-225.328124 55.003906-61.554688 140.566406-85.871094 219.71875-62.441407 79.152344 23.429688 137.695312 90.402344 150.328125 171.972657 1.644531 10.847656 2.472656 21.800781 2.476562 32.769531zm0 0" fill="#90bae1"/><path d="m466.855469 223.273438c-199.421875-66.644532-332.542969 37.121093-403.964844 123.476562-1.28125-2.472656-2.390625-5.117188-3.5-7.679688-32.152344-76.023437-17.582031-163.777343 37.417969-225.328124 55.003906-61.554688 140.566406-85.871094 219.71875-62.441407 79.152344 23.429688 137.695312 90.402344 150.328125 171.972657zm0 0" fill="#b0d3f0"/><path d="m255.996094 512.042969c-34.242188.074219-68.144532-6.773438-99.675782-20.128907-61.378906-25.96875-110.230468-74.820312-136.191406-136.203124-26.839844-63.738282-26.839844-135.605469 0-199.347657 1.160156-2.847656 3.765625-4.847656 6.820313-5.238281 3.050781-.390625 6.078125.894531 7.917969 3.359375 1.839843 2.464844 2.210937 5.730469.972656 8.542969-25.046875 59.480468-25.046875 126.550781 0 186.027344 24.226562 57.3125 69.835937 102.921874 127.144531 127.148437 59.480469 25.042969 126.546875 25.042969 186.027344 0 57.308593-24.226563 102.917969-69.835937 127.144531-127.148437 25.046875-59.480469 25.046875-126.546876 0-186.027344-24.226562-57.308594-69.835938-102.917969-127.144531-127.144532-87.613281-37.109374-188.90625-18.578124-257.707031 47.144532-2.304688 2.078125-5.550782 2.742187-8.484376 1.734375-2.933593-1.007813-5.089843-3.527344-5.628906-6.578125-.542968-3.054688.613282-6.160156 3.019532-8.117188 74.449218-70.40625 183.707031-89.640625 277.722656-48.882812 94.015625 40.753906 154.671875 133.644531 154.175781 236.113281-.492187 102.464844-62.039063 194.765625-156.441406 234.617187-31.527344 13.355469-65.429688 20.203126-99.671875 20.128907zm0 0" fill="#e64c3c"/><g fill="#5e5f62"><path d="m255.996094 477.910156c-105.523438-.070312-196.410156-74.441406-217.359375-177.867187-20.953125-103.425781 33.824219-207.300781 131.003906-248.433594 112.769531-47.082031 242.386719 5.863281 289.9375 118.4375 47.554687 112.570313-4.847656 242.40625-117.222656 290.429687-27.316407 11.566407-56.691407 17.496094-86.359375 17.433594zm0-426.667968c-97.414063.0625-181.3125 68.71875-200.648438 164.195312-19.335937 95.476562 31.234375 191.363281 120.949219 229.328125 104.230469 44.019531 224.40625-4.792969 268.425781-109.023437 44.015625-104.226563-4.792968-224.40625-109.023437-268.421876-25.214844-10.667968-52.324219-16.136718-79.703125-16.078124zm0 0"/><path d="m255.996094 110.976562c-4.710938 0-8.53125-3.820312-8.53125-8.535156v-59.730468c0-4.714844 3.820312-8.535157 8.53125-8.535157 4.714844 0 8.535156 3.820313 8.535156 8.535157v59.730468c0 4.714844-3.820312 8.535156-8.535156 8.535156zm0 0"/><path d="m170.664062 116.777344c-3.050781.003906-5.871093-1.621094-7.398437-4.265625l-21.332031-36.949219c-1.550782-2.640625-1.5625-5.910156-.039063-8.566406 1.527344-2.65625 4.355469-4.289063 7.417969-4.28125 3.0625.003906 5.886719 1.652344 7.398438 4.3125l21.335937 36.953125c1.523437 2.636719 1.523437 5.886719 0 8.527343-1.519531 2.640626-4.335937 4.269532-7.382813 4.269532zm0 0"/><path d="m108.191406 179.242188c-1.496094.003906-2.96875-.390626-4.265625-1.144532l-36.949219-21.332031c-2.664062-1.511719-4.308593-4.335937-4.316406-7.398437-.007812-3.0625 1.628906-5.894532 4.285156-7.417969 2.652344-1.527344 5.921876-1.511719 8.5625.035156l36.949219 21.335937c3.347657 1.929688 4.976563 5.867188 3.976563 9.597657s-4.378906 6.324219-8.242188 6.324219zm0 0"/><path d="m102.398438 264.574219h-59.734376c-4.710937 0-8.53125-3.820313-8.53125-8.53125 0-4.714844 3.820313-8.535157 8.53125-8.535157h59.734376c4.710937 0 8.53125 3.820313 8.53125 8.535157 0 4.710937-3.820313 8.53125-8.53125 8.53125zm0 0"/><path d="m71.261719 371.242188c-3.863281 0-7.246094-2.59375-8.242188-6.324219-1-3.730469.628907-7.667969 3.972657-9.597657l36.949218-21.335937c2.644532-1.546875 5.910156-1.5625 8.566406-.035156 2.65625 1.523437 4.289063 4.355469 4.285157 7.417969-.007813 3.0625-1.65625 5.886718-4.316407 7.398437l-36.949218 21.332031c-1.296875.75-2.769532 1.144532-4.265625 1.144532zm0 0"/><path d="m149.332031 449.324219c-3.046875-.003907-5.863281-1.632813-7.382812-4.273438-1.523438-2.636719-1.523438-5.890625 0-8.527343l21.335937-36.949219c2.371094-4.046875 7.5625-5.421875 11.625-3.074219 4.0625 2.34375 5.472656 7.527344 3.152344 11.605469l-21.332031 36.949219c-1.527344 2.644531-4.347657 4.269531-7.398438 4.269531zm0 0"/><path d="m255.996094 477.910156c-4.710938 0-8.53125-3.820312-8.53125-8.535156v-59.734375c0-4.710937 3.820312-8.53125 8.53125-8.53125 4.714844 0 8.535156 3.820313 8.535156 8.53125v59.734375c0 4.714844-3.820312 8.535156-8.535156 8.535156zm0 0"/><path d="m362.664062 449.324219c-3.050781 0-5.871093-1.625-7.398437-4.269531l-21.332031-36.949219c-1.550782-2.640625-1.5625-5.910157-.039063-8.566407 1.527344-2.652343 4.355469-4.289062 7.417969-4.28125 3.0625.007813 5.886719 1.652344 7.398438 4.316407l21.335937 36.949219c1.523437 2.636718 1.523437 5.890624 0 8.527343-1.519531 2.640625-4.335937 4.269531-7.382813 4.273438zm0 0"/><path d="m440.734375 371.242188c-1.496094 0-2.96875-.394532-4.265625-1.144532l-36.949219-21.332031c-2.660156-1.511719-4.308593-4.335937-4.316406-7.398437-.003906-3.0625 1.628906-5.894532 4.285156-7.417969 2.65625-1.527344 5.921875-1.511719 8.566407.035156l36.949218 21.335937c3.34375 1.929688 4.972656 5.867188 3.972656 9.597657-.996093 3.730469-4.378906 6.324219-8.242187 6.324219zm0 0"/><path d="m469.332031 264.574219h-59.734375c-4.710937 0-8.53125-3.820313-8.53125-8.53125 0-4.714844 3.820313-8.535157 8.53125-8.535157h59.734375c4.710938 0 8.53125 3.820313 8.53125 8.535157 0 4.710937-3.820312 8.53125-8.53125 8.53125zm0 0"/><path d="m403.804688 179.242188c-3.863282 0-7.242188-2.59375-8.242188-6.324219s.628906-7.667969 3.976562-9.597657l36.949219-21.335937c2.640625-1.546875 5.910157-1.5625 8.5625-.035156 2.65625 1.523437 4.292969 4.355469 4.285157 7.417969-.007813 3.0625-1.652344 5.886718-4.316407 7.398437l-36.949219 21.332031c-1.296874.753906-2.769531 1.148438-4.265624 1.144532zm0 0"/><path d="m341.332031 116.777344c-3.046875 0-5.863281-1.628906-7.382812-4.269532-1.523438-2.640624-1.523438-5.890624 0-8.527343l21.335937-36.953125c1.511719-2.660156 4.335938-4.308594 7.398438-4.3125 3.0625-.007813 5.890625 1.625 7.417968 4.28125 1.523438 2.65625 1.511719 5.925781-.039062 8.566406l-21.332031 36.949219c-1.527344 2.644531-4.347657 4.269531-7.398438 4.265625zm0 0"/></g><path d="m127.996094 85.375h-42.664063c-4.714843 0-8.535156-3.820312-8.535156-8.53125v-42.667969c0-4.710937 3.820313-8.535156 8.535156-8.535156 4.710938 0 8.53125 3.824219 8.53125 8.535156v34.132813h34.132813c4.714844 0 8.535156 3.820312 8.535156 8.535156 0 4.710938-3.820312 8.53125-8.535156 8.53125zm0 0" fill="#e64c3c"/><path d="m230.398438 358.441406c-6.789063 0-13.300782-2.699218-18.101563-7.5l-59.730469-59.734375c-6.65625-6.425781-9.324218-15.945312-6.980468-24.894531 2.339843-8.949219 9.332031-15.941406 18.28125-18.285156 8.949218-2.339844 18.46875.328125 24.898437 6.984375l39.796875 39.789062 101.546875-123.296875c5.746094-7.285156 14.980469-10.894531 24.140625-9.429687 9.160156 1.460937 16.8125 7.765625 20.003906 16.476562 3.1875 8.710938 1.414063 18.464844-4.632812 25.5l-119.46875 145.066407c-4.582032 5.578124-11.304688 8.96875-18.515625 9.324218-.386719 0-.828125 0-1.238281 0zm0 0" fill="#24ae5f"/></svg>