<svg height="512pt" viewBox="0 0 512 512" width="512pt" xmlns="http://www.w3.org/2000/svg"><path d="m44.136719 0h229.519531c24.375 0 44.136719 19.761719 44.136719 44.136719v423.726562c0 24.375-19.761719 44.136719-44.136719 44.136719h-229.519531c-24.375 0-44.136719-19.761719-44.136719-44.136719v-423.726562c0-24.375 19.761719-44.136719 44.136719-44.136719zm0 0" fill="#5e5f62"/><path d="m0 70.621094h317.792969v370.757812h-317.792969zm0 0" fill="#90bae1"/><path d="m317.792969 70.621094v170.460937c-177.609375-27.542969-272.507813 36.898438-317.792969 86.863281v-257.324218zm0 0" fill="#b0d3f0"/><path d="m185.378906 485.515625h-52.964844c-4.875 0-8.828124-3.949219-8.828124-8.824219 0-4.878906 3.953124-8.828125 8.828124-8.828125h52.964844c4.875 0 8.828125 3.949219 8.828125 8.828125 0 4.875-3.953125 8.824219-8.828125 8.824219zm0 0" fill="#2c2f38"/><path d="m167.722656 0v26.484375c0 4.875-3.949218 8.824219-8.824218 8.824219-4.878907 0-8.828126-3.949219-8.828126-8.824219v-26.484375zm0 0" fill="#2c2f38"/><path d="m469.707031 288.46875c-2.160156 7.242188-5.046875 14.246094-8.625 20.902344-1.691406 3.050781-1.558593 6.789062.355469 9.710937l15.613281 23.367188c2.484375 3.71875 2 8.675781-1.164062 11.835937l-15.660157 15.660156c-3.164062 3.164063-8.121093 3.652344-11.839843 1.167969l-23.363281-15.617187c-2.921876-1.910156-6.660157-2.046875-9.710938-.351563-6.660156 3.574219-13.664062 6.464844-20.90625 8.621094-3.375.941406-5.949219 3.6875-6.671875 7.117187l-5.5 27.648438c-.882813 4.394531-4.75 7.554688-9.234375 7.539062h-22.140625c-4.46875-.003906-8.316406-3.15625-9.195313-7.539062l-5.527343-27.640625c-.722657-3.429687-3.296875-6.171875-6.671875-7.113281-7.242188-2.160156-14.25-5.050782-20.90625-8.625-3.050782-1.695313-6.789063-1.558594-9.710938.351562l-23.363281 15.617188c-3.71875 2.484375-8.675781 1.996094-11.839844-1.164063l-15.660156-15.660156c-3.164063-3.164063-3.648437-8.121094-1.164063-11.839844l15.613282-23.367187c1.914062-2.917969 2.046875-6.65625.355468-9.710938-3.578124-6.65625-6.46875-13.660156-8.625-20.902344-.945312-3.375-3.6875-5.945312-7.117187-6.671874l-27.644531-5.5c-4.398438-.882813-7.554688-4.75-7.539063-9.234376v-22.140624c0-4.46875 3.15625-8.320313 7.539063-9.199219l27.636718-5.523438c3.429688-.730469 6.171876-3.300781 7.117188-6.675781 2.15625-7.242188 5.046875-14.246094 8.625-20.902344 1.691406-3.050781 1.554688-6.789062-.355469-9.710937l-15.617187-23.367188c-2.484375-3.71875-1.996094-8.675781 1.167968-11.835937l15.660157-15.660156c3.160156-3.164063 8.117187-3.652344 11.835937-1.167969l23.367188 15.617187c2.921875 1.910156 6.660156 2.046875 9.710937.351563 6.65625-3.574219 13.660157-6.464844 20.902344-8.621094 3.375-.945313 5.949219-3.6875 6.675781-7.117187l5.523438-27.636719c.878906-4.390625 4.734375-7.550781 9.207031-7.550781h22.140625c4.472656.003906 8.320312 3.15625 9.199219 7.539062l5.527343 27.640625c.726563 3.429687 3.296876 6.167969 6.671876 7.113281 7.242187 2.160156 14.246093 5.050782 20.902343 8.625 3.054688 1.695313 6.792969 1.558594 9.710938-.351562l23.367187-15.617188c3.71875-2.484375 8.675782-1.996094 11.839844 1.164063l15.660156 15.660156c3.160156 3.164063 3.648438 8.121094 1.164063 11.839844l-15.617188 23.367187c-1.910156 2.917969-2.046875 6.65625-.351562 9.710938 3.574219 6.65625 6.464843 13.660156 8.625 20.902344.945312 3.375 3.683593 5.945312 7.113281 6.671874l27.640625 5.527344c4.390625.875 7.550781 4.730469 7.546875 9.207032v22.140624c0 4.46875-3.15625 8.320313-7.539062 9.199219l-27.640626 5.523438c-3.425781.730469-6.167968 3.300781-7.113281 6.675781zm0 0" fill="#35495e"/><path d="m423.722656 256c0 34.128906-27.664062 61.792969-61.792968 61.792969-34.125 0-61.792969-27.664063-61.792969-61.792969s27.667969-61.792969 61.792969-61.792969c34.128906 0 61.792968 27.664063 61.792968 61.792969zm0 0" fill="#2c3e50"/><path d="m370.757812 256c0 4.875-3.953124 8.828125-8.828124 8.828125s-8.828126-3.953125-8.828126-8.828125 3.953126-8.828125 8.828126-8.828125 8.828124 3.953125 8.828124 8.828125zm0 0" fill="#547580"/><g fill="#fff"><path d="m35.308594 176.550781c-3.441406-.003906-6.570313-2.007812-8.011719-5.136719-1.4375-3.128906-.925781-6.808593 1.3125-9.429687l52.964844-61.792969c2.011719-2.53125 5.242187-3.765625 8.429687-3.210937 3.183594.554687 5.8125 2.804687 6.851563 5.867187 1.035156 3.0625.316406 6.445313-1.878907 8.820313l-52.964843 61.792969c-1.671875 1.964843-4.121094 3.097656-6.703125 3.089843zm0 0"/><path d="m44.136719 264.828125c-3.355469-.007813-6.414063-1.914063-7.898438-4.921875s-1.136719-6.597656.898438-9.265625l114.757812-150.066406c3.019531-3.683594 8.410157-4.3125 12.191407-1.421875 3.785156 2.890625 4.59375 8.261718 1.828124 12.136718l-114.757812 150.070313c-1.671875 2.1875-4.265625 3.46875-7.019531 3.46875zm0 0"/></g></svg>