<svg height="512pt" viewBox="0 0 512 512" width="512pt" xmlns="http://www.w3.org/2000/svg"><g fill="#35495e"><path d="m256 397.242188c-4.875 0-8.828125-3.953126-8.828125-8.828126v-35.3125c0-4.875 3.953125-8.824218 8.828125-8.824218s8.828125 3.949218 8.828125 8.824218v35.3125c0 4.875-3.953125 8.828126-8.828125 8.828126zm0 0"/><path d="m61.792969 397.242188c-4.875 0-8.828125-3.953126-8.828125-8.828126v-70.621093c0-9.75 7.90625-17.65625 17.65625-17.65625h26.480468c4.878907 0 8.828126 3.953125 8.828126 8.828125s-3.949219 8.828125-8.828126 8.828125h-26.480468v70.621093c0 4.875-3.953125 8.828126-8.828125 8.828126zm0 0"/><path d="m450.207031 397.242188c-4.875 0-8.828125-3.953126-8.828125-8.828126v-70.621093h-26.480468c-4.878907 0-8.828126-3.953125-8.828126-8.828125s3.949219-8.828125 8.828126-8.828125h26.480468c9.75 0 17.65625 7.90625 17.65625 17.65625v70.621093c0 4.875-3.953125 8.828126-8.828125 8.828126zm0 0"/></g><path d="m211.863281 388.414062h88.273438c9.75 0 17.65625 7.902344 17.65625 17.65625v88.273438c0 9.75-7.90625 17.65625-17.65625 17.65625h-88.273438c-9.75 0-17.65625-7.90625-17.65625-17.65625v-88.273438c0-9.753906 7.90625-17.65625 17.65625-17.65625zm0 0" fill="#e64c3c"/><path d="m406.070312 388.414062h88.273438c9.75 0 17.65625 7.902344 17.65625 17.65625v88.273438c0 9.75-7.90625 17.65625-17.65625 17.65625h-88.273438c-9.753906 0-17.65625-7.90625-17.65625-17.65625v-88.273438c0-9.753906 7.902344-17.65625 17.65625-17.65625zm0 0" fill="#2fa8cc"/><path d="m17.65625 388.414062h88.273438c9.753906 0 17.65625 7.902344 17.65625 17.65625v88.273438c0 9.75-7.902344 17.65625-17.65625 17.65625h-88.273438c-9.75 0-17.65625-7.90625-17.65625-17.65625v-88.273438c0-9.753906 7.90625-17.65625 17.65625-17.65625zm0 0" fill="#2fa8cc"/><path d="m304.726562 183.527344v2.824218c0 24.960938 18.867188 45.886719 43.699219 48.460938l22.773438 4.238281c24.832031 2.574219 43.699219 23.5 43.699219 48.464844v47.316406c.019531 4.851563-1.898438 9.511719-5.332032 12.941407-3.429687 3.433593-8.089844 5.351562-12.941406 5.328124h-281.25c-4.851562.023438-9.511719-1.894531-12.941406-5.328124-3.433594-3.429688-5.351563-8.089844-5.332032-12.941407v-47.316406c0-24.964844 18.867188-45.890625 43.699219-48.464844l22.773438-4.238281c24.832031-2.574219 43.699219-23.5 43.699219-48.460938v-2.824218zm0 0" fill="#f09372"/><path d="m414.898438 287.515625v47.316406c.019531 4.851563-1.898438 9.511719-5.332032 12.941407-3.429687 3.433593-8.089844 5.351562-12.941406 5.328124l-131.796875.003907v-44.140625c9.738281-.027344 17.625-7.914063 17.65625-17.65625v-8.824219c-.027344-9.636719-7.757813-17.484375-17.390625-17.65625l9.179688-15.183594 17.035156 41.664063 62.675781-55.433594 17.214844 3.175781c24.832031 2.574219 43.699219 23.5 43.699219 48.464844zm0 0" fill="#2c2f38"/><path d="m264.828125 308.964844v44.140625l-149.453125-.003907c-4.851562.023438-9.511719-1.894531-12.941406-5.328124-3.433594-3.429688-5.351563-8.089844-5.332032-12.941407v-47.316406c0-24.964844 18.867188-45.890625 43.699219-48.464844l17.214844-3.175781 62.675781 55.433594 17.035156-41.664063 9.179688 15.183594c-9.632812.171875-17.363281 8.019531-17.390625 17.65625v8.824219c.03125 9.742187 7.917969 17.628906 17.65625 17.65625zm0 0" fill="#2c2f38"/><path d="m238.34375 247.171875 17.65625 35.3125 17.65625-35.3125 17.652344 44.136719v61.792968h-70.617188v-61.792968zm0 0" fill="#d1d4d1"/><path d="m247.171875 264.828125h17.65625c9.75 0 17.65625 7.902344 17.65625 17.65625v8.824219c0 9.753906-7.90625 17.65625-17.65625 17.65625h-17.65625c-9.75 0-17.65625-7.902344-17.65625-17.65625v-8.824219c0-9.753906 7.90625-17.65625 17.65625-17.65625zm0 0" fill="#e64c3c"/><path d="m286.457031 353.101562-16.773437-44.84375h-27.367188l-16.773437 44.84375zm0 0" fill="#c03a2b"/><path d="m185.378906 133.296875c-.023437 39.003906 31.574219 70.640625 70.578125 70.664063 39 .023437 70.640625-31.574219 70.664063-70.574219 14.554687-6.503907 24.613281-20.1875 26.480468-36.019531 0-24.539063-14.828124-26.570313-26.480468-20.125v-24.277344c0-29.25-23.714844-52.964844-52.964844-52.964844h-35.3125c-29.25 0-52.964844 23.714844-52.964844 52.964844v24.1875c-11.828125-6.355469-26.480468-4.148438-26.480468 19.949218 1.957031 15.839844 11.976562 29.535157 26.480468 36.195313zm0 0" fill="#fdd7ad"/><path d="m326.621094 52.964844v23.570312c-4.816406-4.320312-11.207032-6.460937-17.65625-5.914062-33.191406 0-35.308594-35.3125-35.308594-35.3125s-37.429688 35.3125-70.621094 35.3125c-6.449218-.546875-12.839844 1.59375-17.65625 5.914062v-23.570312c0-29.25 23.714844-52.964844 52.964844-52.964844h35.3125c29.25 0 52.964844 23.714844 52.964844 52.964844zm0 0" fill="#af8066"/><path d="m353.984375 235.875-62.675781 55.433594-17.652344-44.136719 45.902344-25.863281c7.804687 7.652344 17.988281 12.417968 28.867187 13.503906zm0 0" fill="#e6e7e8"/><path d="m238.34375 247.171875-17.652344 44.136719-62.675781-55.433594 5.558594-1.0625c10.878906-1.085938 21.0625-5.851562 28.867187-13.503906zm0 0" fill="#e6e7e8"/></svg>