<svg height="512.00017pt" viewBox="0 0 512.00017 512.00017" width="512.00017pt" xmlns="http://www.w3.org/2000/svg"><path d="m211.863281 326.621094c-4.875 0-8.828125-3.953125-8.828125-8.828125v-35.308594c0-4.878906 3.953125-8.828125 8.828125-8.828125s8.828125 3.949219 8.828125 8.828125v35.308594c0 4.875-3.953125 8.828125-8.828125 8.828125zm0 0" fill="#5e5f62"/><path d="m268.625 282.484375h-224.488281c-9.738281-.03125-17.625-7.917969-17.652344-17.65625v-229.519531h370.757813v130.738281zm0 0" fill="#e6e7e8"/><path d="m264.828125 231.980469v-99.566407c0-4.875-3.953125-8.828124-8.828125-8.828124h-17.65625c-4.875 0-8.828125 3.953124-8.828125 8.828124v105.929688c0 4.875 3.953125 8.828125 8.828125 8.828125h13.605469c3.019531 0 5.828125-1.539063 7.449219-4.085937l4.050781-6.367188c.902343-1.414062 1.378906-3.058594 1.378906-4.738281zm0 0" fill="#e64c3c"/><path d="m335.449219 152.832031v-55.730469c0-4.875-3.953125-8.824218-8.828125-8.824218h-17.65625c-4.875 0-8.828125 3.949218-8.828125 8.824218v62.527344c0 2.910156 1.429687 5.632813 3.828125 7.28125 2.398437 1.648438 5.453125 2.007813 8.167968.964844l17.65625-6.796875c3.410157-1.3125 5.660157-4.589844 5.660157-8.246094zm0 0" fill="#4482c3"/><path d="m401.832031 342.421875v2.824219c-.003906 24.964844 18.867188 45.890625 43.695313 48.464844l22.777344 4.238281c24.828124 2.570312 43.695312 23.5 43.695312 48.460937v47.316406c.019531 4.851563-1.898438 9.511719-5.328125 12.945313-3.433594 3.429687-8.09375 5.347656-12.945313 5.328125h-281.246093c-4.851563.019531-9.511719-1.898438-12.945313-5.328125-3.429687-3.433594-5.347656-8.09375-5.328125-12.945313v-47.316406c-.003906-24.960937 18.867188-45.890625 43.695313-48.460937l22.777344-4.238281c24.828124-2.574219 43.699218-23.5 43.695312-48.464844v-2.824219zm0 0" fill="#f09372"/><path d="m512 446.410156v47.316406c.019531 4.851563-1.898438 9.511719-5.328125 12.945313-3.433594 3.429687-8.09375 5.347656-12.945313 5.328125h-131.796874v-44.136719c9.738281-.03125 17.628906-7.917969 17.65625-17.65625v-8.828125c-.027344-9.636718-7.753907-17.480468-17.390626-17.65625l9.179688-15.183594 17.039062 41.667969 62.675782-55.4375 17.214844 3.179688c24.828124 2.570312 43.695312 23.5 43.695312 48.460937zm0 0" fill="#2c2f38"/><path d="m361.929688 467.863281v44.136719h-149.449219c-4.851563.019531-9.511719-1.898438-12.945313-5.328125-3.429687-3.433594-5.347656-8.09375-5.328125-12.945313v-47.316406c-.003906-24.960937 18.867188-45.890625 43.695313-48.460937l17.214844-3.179688 62.675781 55.4375 17.039062-41.667969 9.179688 15.183594c-9.636719.175782-17.363281 8.019532-17.390625 17.65625v8.828125c.027344 9.738281 7.917968 17.625 17.65625 17.65625zm0 0" fill="#2c2f38"/><path d="m335.449219 406.070312 17.652343 35.308594 17.65625-35.308594 17.65625 44.136719v61.792969h-70.621093v-61.792969zm0 0" fill="#d1d4d1"/><path d="m344.277344 423.722656h17.652344c9.753906 0 17.65625 7.90625 17.65625 17.65625v8.828125c0 9.75-7.902344 17.65625-17.65625 17.65625h-17.652344c-9.753906 0-17.65625-7.90625-17.65625-17.65625v-8.828125c0-9.75 7.902344-17.65625 17.65625-17.65625zm0 0" fill="#e64c3c"/><path d="m383.558594 512-16.773438-44.84375h-27.363281l-16.773437 44.84375zm0 0" fill="#c03a2b"/><path d="m282.484375 292.191406c-.027344 39.003906 31.570313 70.640625 70.574219 70.667969 39.003906.023437 70.640625-31.574219 70.664062-70.578125 14.554688-6.503906 24.617188-20.183594 26.484375-36.015625 0-24.542969-14.832031-26.570313-26.484375-20.128906v-24.273438c0-29.253906-23.710937-52.964843-52.964844-52.964843h-35.308593c-29.253907 0-52.964844 23.710937-52.964844 52.964843v24.1875c-11.832031-6.355469-26.484375-4.148437-26.484375 19.949219 1.957031 15.839844 11.976562 29.535156 26.484375 36.191406zm0 0" fill="#fdd7ad"/><path d="m423.722656 211.863281v23.570313c-4.816406-4.324219-11.203125-6.464844-17.652344-5.917969-33.191406 0-35.3125-35.308594-35.3125-35.308594s-37.429687 35.308594-70.621093 35.308594c-6.449219-.546875-12.835938 1.59375-17.652344 5.917969v-23.570313c0-29.253906 23.710937-52.964843 52.964844-52.964843h35.308593c29.253907 0 52.964844 23.710937 52.964844 52.964843zm0 0" fill="#af8066"/><path d="m451.089844 394.769531-62.675782 55.4375-17.65625-44.136719 45.902344-25.867187c7.808594 7.65625 17.988282 12.417969 28.867188 13.507813zm0 0" fill="#e6e7e8"/><path d="m335.449219 406.070312-17.65625 44.136719-62.675781-55.4375 5.5625-1.058593c10.878906-1.089844 21.058593-5.851563 28.863281-13.507813zm0 0" fill="#e6e7e8"/><path d="m17.65625 0h388.414062c9.75 0 17.652344 7.90625 17.652344 17.65625s-7.902344 17.652344-17.652344 17.652344h-388.414062c-9.75 0-17.65625-7.902344-17.65625-17.652344s7.90625-17.65625 17.65625-17.65625zm0 0" fill="#af8066"/><path d="m238.34375 344.277344c0 14.625-11.855469 26.480468-26.480469 26.480468-14.628906 0-26.484375-11.855468-26.484375-26.480468 0-14.628906 11.855469-26.484375 26.484375-26.484375 14.625 0 26.480469 11.855469 26.480469 26.484375zm0 0" fill="#a5a5a4"/><path d="m97.101562 176.550781h17.65625c4.875 0 8.828126 3.953125 8.828126 8.828125v52.964844c0 4.875-3.953126 8.828125-8.828126 8.828125h-17.65625c-4.875 0-8.824218-3.953125-8.824218-8.828125v-52.964844c0-4.875 3.949218-8.828125 8.824218-8.828125zm0 0" fill="#e64c3c"/><path d="m167.722656 158.898438h17.65625c4.875 0 8.828125 3.949218 8.828125 8.824218v70.621094c0 4.875-3.953125 8.828125-8.828125 8.828125h-17.65625c-4.875 0-8.824218-3.953125-8.824218-8.828125v-70.621094c0-4.875 3.949218-8.824218 8.824218-8.824218zm0 0" fill="#4482c3"/><path d="m97.101562 141.242188c-3.054687-.003907-5.894531-1.585938-7.503906-4.1875-1.605468-2.601563-1.753906-5.851563-.386718-8.585938l26.484374-52.964844c1.269532-2.542968 3.683594-4.316406 6.488282-4.769531 2.800781-.46875 5.65625.453125 7.652344 2.472656l36.527343 36.527344 29.335938-44.011719c2.46875-3.707031 7.308593-4.992187 11.289062-3.003906l31.355469 15.6875 31.367188-15.6875c2.820312-1.410156 6.179687-1.207031 8.8125.535156 2.632812 1.738282 4.136718 4.75 3.945312 7.898438-.1875 3.152344-2.046875 5.960937-4.867188 7.367187l-35.3125 17.65625c-2.484374 1.242188-5.40625 1.242188-7.890624 0l-28.34375-14.175781-30.984376 46.484375c-1.46875 2.199219-3.84375 3.625-6.476562 3.886719-2.632812.257812-5.242188-.675782-7.109375-2.542969l-35.480469-35.480469-20.957031 42.011719c-1.5 3.007813-4.582031 4.898437-7.945313 4.882813zm0 0" fill="#4fba6f"/></svg>