<svg height="512pt" viewBox="0 0 512 512.00017" width="512pt" xmlns="http://www.w3.org/2000/svg"><path d="m61.792969 105.929688h388.414062c9.75 0 17.65625 7.90625 17.65625 17.65625v300.136718h-423.726562v-300.136718c0-9.75 7.90625-17.65625 17.65625-17.65625zm0 0" fill="#d1d4d1"/><path d="m467.863281 123.585938v256h-423.726562v-256c.03125-9.738282 7.917969-17.625 17.65625-17.65625h388.414062c9.738281.03125 17.625 7.917968 17.65625 17.65625zm0 0" fill="#90bae1"/><path d="m467.863281 123.585938v88.628906c-220.691406-37.957032-354.164062 35.398437-423.726562 96.664062v-185.292968c.03125-9.738282 7.917969-17.625 17.65625-17.65625h388.414062c9.738281.03125 17.625 7.917968 17.65625 17.65625zm0 0" fill="#b0d3f0"/><path d="m17.65625 423.722656h476.6875c9.75 0 17.65625 7.90625 17.65625 17.65625 0 39.003906-31.617188 70.621094-70.621094 70.621094h-370.757812c-39.003906 0-70.621094-31.617188-70.621094-70.621094 0-9.75 7.90625-17.65625 17.65625-17.65625zm0 0" fill="#a5a5a4"/><path d="m361.929688 423.722656-15.445313 38.578125c-1.339844 3.359375-4.59375 5.566407-8.210937 5.5625h-164.546876c-3.617187.003907-6.871093-2.203125-8.210937-5.5625l-15.445313-38.578125zm0 0" fill="#5e5f62"/><path d="m247.171875 423.722656h17.65625v44.140625h-17.65625zm0 0" fill="#2c2f38"/><path d="m406.070312 459.035156c0 4.875-3.953124 8.828125-8.828124 8.828125s-8.828126-3.953125-8.828126-8.828125 3.953126-8.828125 8.828126-8.828125 8.828124 3.953125 8.828124 8.828125zm0 0" fill="#5e5f62"/><path d="m441.378906 459.035156c0 4.875-3.953125 8.828125-8.828125 8.828125s-8.828125-3.953125-8.828125-8.828125 3.953125-8.828125 8.828125-8.828125 8.828125 3.953125 8.828125 8.828125zm0 0" fill="#5e5f62"/><path d="m194.207031 361.929688c-4.875 0-8.828125-3.949219-8.828125-8.824219v-105.933594c0-4.875 3.953125-8.828125 8.828125-8.828125s8.828125 3.953125 8.828125 8.828125v105.933594c0 4.875-3.953125 8.824219-8.828125 8.824219zm0 0" fill="#4fba6f"/><path d="m220.691406 282.484375c-2.34375 0-4.585937-.933594-6.242187-2.589844l-20.242188-20.238281-20.242187 20.238281c-3.464844 3.347657-8.96875 3.300781-12.375-.105469-3.402344-3.40625-3.453125-8.910156-.105469-12.375l26.480469-26.484374c3.449218-3.445313 9.035156-3.445313 12.484375 0l26.480469 26.484374c2.523437 2.523438 3.28125 6.320313 1.914062 9.621094-1.367188 3.296875-4.585938 5.445313-8.152344 5.449219zm0 0" fill="#4fba6f"/><path d="m317.792969 361.929688c-4.875 0-8.828125-3.949219-8.828125-8.824219v-105.933594c0-4.875 3.953125-8.828125 8.828125-8.828125s8.828125 3.953125 8.828125 8.828125v105.933594c0 4.875-3.953125 8.824219-8.828125 8.824219zm0 0" fill="#e64c3c"/><path d="m317.792969 361.929688c-2.339844 0-4.585938-.929688-6.242188-2.585938l-26.480469-26.480469c-3.347656-3.464843-3.296874-8.972656.105469-12.375 3.40625-3.40625 8.910157-3.453125 12.375-.109375l20.242188 20.242188 20.242187-20.242188c3.464844-3.34375 8.96875-3.296875 12.375.109375 3.40625 3.402344 3.453125 8.910157.105469 12.375l-26.480469 26.480469c-1.65625 1.65625-3.902344 2.585938-6.242187 2.585938zm0 0" fill="#e64c3c"/><path d="m389.242188 6.179688c-4.207032-3.949219-9.753907-6.1562505-15.527344-6.179688h-235.253906c-5.664063-.0234375-11.128907 2.105469-15.289063 5.949219-5.289063 4.707031-8.289063 11.460937-8.238281 18.539062v162.929688c-.042969 6.179687 2.25 12.148437 6.429687 16.703125 4.3125 4.925781 10.546875 7.75 17.097657 7.742187h235.253906c6.550781.007813 12.785156-2.816406 17.101562-7.742187 4.175782-4.554688 6.472656-10.523438 6.425782-16.703125v-162.972657c.078124-6.957031-2.835938-13.605468-8-18.265624zm0 0" fill="#f0c419"/><path d="m397.242188 24.445312v162.972657c.046874 6.179687-2.25 12.148437-6.425782 16.703125l-95.59375-115.949219 94.019532-81.992187c5.164062 4.660156 8.078124 11.308593 8 18.265624zm0 0" fill="#f29c1f"/><path d="m390.816406 204.121094c-4.316406 4.925781-10.550781 7.75-17.101562 7.742187h-235.253906c-6.550782.007813-12.785157-2.816406-17.097657-7.742187l95.671875-116.039063 28.980469 25.335938c5.757813 5.085937 14.40625 5.085937 20.164063 0l29.042968-25.273438zm0 0" fill="#e57e25"/><path d="m217.035156 88.082031-95.671875 116.039063c-4.179687-4.554688-6.472656-10.523438-6.429687-16.703125v-162.972657c-.050782-7.078124 2.949218-13.835937 8.238281-18.539062zm0 0" fill="#f29c1f"/><path d="m389.242188 6.179688-94.019532 81.992187-29.042968 25.273437c-5.757813 5.085938-14.40625 5.085938-20.164063 0l-28.980469-25.335937-93.863281-82.097656c4.152344-3.867188 9.613281-6.01562525 15.289063-6.011719h235.253906c5.773437.0234375 11.320312 2.230469 15.527344 6.179688zm0 0" fill="#f0c419"/></svg>