<svg height="512pt" viewBox="0 0 512 512" width="512pt" xmlns="http://www.w3.org/2000/svg"><path d="m79.449219 141.242188h353.101562v44.136718h-353.101562zm0 0" fill="#5e5f62"/><path d="m79.449219 326.621094h353.101562v44.136718h-353.101562zm0 0" fill="#5e5f62"/><g fill="#a5a5a4"><path d="m61.792969 0h388.414062c34.128907 0 61.792969 27.664062 61.792969 61.792969v17.65625c0 34.125-27.664062 61.792969-61.792969 61.792969h-388.414062c-34.128907 0-61.792969-27.667969-61.792969-61.792969v-17.65625c0-34.128907 27.664062-61.792969 61.792969-61.792969zm0 0"/><path d="m61.792969 185.378906h388.414062c34.128907 0 61.792969 27.667969 61.792969 61.792969v17.65625c0 34.125-27.664062 61.792969-61.792969 61.792969h-388.414062c-34.128907 0-61.792969-27.667969-61.792969-61.792969v-17.65625c0-34.125 27.664062-61.792969 61.792969-61.792969zm0 0"/><path d="m61.792969 370.757812h388.414062c34.128907 0 61.792969 27.667969 61.792969 61.792969v17.65625c0 34.128907-27.664062 61.792969-61.792969 61.792969h-388.414062c-34.128907 0-61.792969-27.664062-61.792969-61.792969v-17.65625c0-34.125 27.664062-61.792969 61.792969-61.792969zm0 0"/></g><path d="m344.277344 79.449219h-282.484375c-4.875 0-8.828125-3.953125-8.828125-8.828125s3.953125-8.828125 8.828125-8.828125h282.484375c4.875 0 8.824218 3.953125 8.824218 8.828125s-3.949218 8.828125-8.824218 8.828125zm0 0" fill="#2c2f38"/><path d="m388.414062 70.621094c0 4.875-3.953124 8.828125-8.828124 8.828125s-8.828126-3.953125-8.828126-8.828125 3.953126-8.828125 8.828126-8.828125 8.828124 3.953125 8.828124 8.828125zm0 0" fill="#cc4b4c"/><path d="m423.722656 70.621094c0 4.875-3.949218 8.828125-8.824218 8.828125-4.878907 0-8.828126-3.953125-8.828126-8.828125s3.949219-8.828125 8.828126-8.828125c4.875 0 8.824218 3.953125 8.824218 8.828125zm0 0" fill="#cc4b4c"/><path d="m459.035156 70.621094c0 4.875-3.953125 8.828125-8.828125 8.828125s-8.828125-3.953125-8.828125-8.828125 3.953125-8.828125 8.828125-8.828125 8.828125 3.953125 8.828125 8.828125zm0 0" fill="#24ae5f"/><path d="m344.277344 264.828125h-282.484375c-4.875 0-8.828125-3.953125-8.828125-8.828125s3.953125-8.828125 8.828125-8.828125h282.484375c4.875 0 8.824218 3.953125 8.824218 8.828125s-3.949218 8.828125-8.824218 8.828125zm0 0" fill="#2c2f38"/><path d="m388.414062 256c0 4.875-3.953124 8.828125-8.828124 8.828125s-8.828126-3.953125-8.828126-8.828125 3.953126-8.828125 8.828126-8.828125 8.828124 3.953125 8.828124 8.828125zm0 0" fill="#24ae5f"/><path d="m423.722656 256c0 4.875-3.949218 8.828125-8.824218 8.828125-4.878907 0-8.828126-3.953125-8.828126-8.828125s3.949219-8.828125 8.828126-8.828125c4.875 0 8.824218 3.953125 8.824218 8.828125zm0 0" fill="#cc4b4c"/><path d="m459.035156 256c0 4.875-3.953125 8.828125-8.828125 8.828125s-8.828125-3.953125-8.828125-8.828125 3.953125-8.828125 8.828125-8.828125 8.828125 3.953125 8.828125 8.828125zm0 0" fill="#cc4b4c"/><path d="m344.277344 450.207031h-282.484375c-4.875 0-8.828125-3.953125-8.828125-8.828125s3.953125-8.828125 8.828125-8.828125h282.484375c4.875 0 8.824218 3.953125 8.824218 8.828125s-3.949218 8.828125-8.824218 8.828125zm0 0" fill="#2c2f38"/><path d="m388.414062 441.378906c0 4.875-3.953124 8.828125-8.828124 8.828125s-8.828126-3.953125-8.828126-8.828125 3.953126-8.828125 8.828126-8.828125 8.828124 3.953125 8.828124 8.828125zm0 0" fill="#cc4b4c"/><path d="m423.722656 441.378906c0 4.875-3.949218 8.828125-8.824218 8.828125-4.878907 0-8.828126-3.953125-8.828126-8.828125s3.949219-8.828125 8.828126-8.828125c4.875 0 8.824218 3.953125 8.824218 8.828125zm0 0" fill="#24ae5f"/><path d="m459.035156 441.378906c0 4.875-3.953125 8.828125-8.828125 8.828125s-8.828125-3.953125-8.828125-8.828125 3.953125-8.828125 8.828125-8.828125 8.828125 3.953125 8.828125 8.828125zm0 0" fill="#cc4b4c"/></svg>