<?xml version="1.0" encoding="iso-8859-1"?>
<!-- Generator: Adobe Illustrator 19.0.0, SVG Export Plug-In . SVG Version: 6.00 Build 0)  -->
<svg version="1.1" id="Layer_1" xmlns="http://www.w3.org/2000/svg" xmlns:xlink="http://www.w3.org/1999/xlink" x="0px" y="0px"
	 viewBox="0 0 503.102 503.102" style="enable-background:new 0 0 503.102 503.102;" xml:space="preserve">
<g>
	<path style="fill:#DBB38D;" d="M301.898,457.839c-17.363,11.776-32.669,27.298-55.17,27.298c-22.492,0-37.807-15.522-55.161-27.298
		c-8.47-5.74-17.067-11.345-25.429-17.246v62.509h161.684V440.26C319.297,446.297,310.53,451.991,301.898,457.839"/>
	<path style="fill:#FDD7AD;" d="M399.924,179.734c0-7.446-1.509-14.534-4.24-20.992c-10.267-24.324-39.056-34.25-63.883-25.268
		c-13.528,4.895-38.849,10.33-84.579,10.33s-71.051-5.434-84.579-10.33c-24.836-8.982-53.616,0.943-63.892,25.268
		c-2.722,6.449-4.231,13.546-4.231,20.992l-0.243,81.857c0,56.401,4.392,118.443,46.933,158.828
		c15.261,14.489,33.235,25.645,50.598,37.421c17.363,11.767,32.669,27.298,55.17,27.298s37.807-15.531,55.161-27.298
		c17.363-11.776,35.337-22.932,50.598-37.421c42.541-40.385,47.185-103.451,47.185-159.843V179.734z"/>
	<path style="fill:#CB8252;" d="M94.442,206.69l0.081-26.956c0-7.446,1.509-14.543,4.222-20.992
		c10.285-24.324,39.065-34.25,63.901-25.268c13.528,4.895,38.849,10.33,84.579,10.33s71.051-5.434,84.579-10.33
		c24.819-8.982,53.616,0.943,63.883,25.268c2.731,6.449,4.24,13.546,4.24,20.992v44.589c17.911-22.348,25.214-46.08,26.876-67.988
		c3.988-52.736-25.456-101.78-71.159-128.377C303.841-2.197,255.955,0.085,255.955,0.085s-96.184-4.114-116.772,44.912
		c0,0-104.421-3.746-44.912,161.684L94.442,206.69z"/>
</g>
<g>
</g>
<g>
</g>
<g>
</g>
<g>
</g>
<g>
</g>
<g>
</g>
<g>
</g>
<g>
</g>
<g>
</g>
<g>
</g>
<g>
</g>
<g>
</g>
<g>
</g>
<g>
</g>
<g>
</g>
</svg>
