<?xml version="1.0" encoding="iso-8859-1"?>
<!-- Generator: Adobe Illustrator 19.0.0, SVG Export Plug-In . SVG Version: 6.00 Build 0)  -->
<svg version="1.1" id="Layer_1" xmlns="http://www.w3.org/2000/svg" xmlns:xlink="http://www.w3.org/1999/xlink" x="0px" y="0px"
	 viewBox="0 0 511.999 511.999" style="enable-background:new 0 0 511.999 511.999;" xml:space="preserve">
<g>
	<path style="fill:#F0C419;" d="M336.842,35.93c14.031,20.148,17.965,44.921,17.965,44.921l-9.36-1.868l0.377,1.868l44.912,80.842
		C443.23,66.569,360.717,41.068,336.842,35.93"/>
	<g>
		<path style="fill:#C49A13;" d="M408.701,107.798c0,0,61.377,38.175,0,152.702l-17.965-98.807L408.701,107.798"/>
		<path style="fill:#C49A13;" d="M103.298,107.798c0,0-61.377,38.175,0,152.702l44.912-134.737L103.298,107.798"/>
	</g>
	<path style="fill:#F0C419;" d="M143.745,125.552c10.42-13.878,21.908-24.163,33.37-31.807l-1.958-3.916l-35.93-26.947
		c-42.289,0-35.93,44.912-35.93,44.912S109.567,123.585,143.745,125.552"/>
	<path style="fill:#C49A13;" d="M175.157,89.834h8.165c15.414-9.063,30.343-13.608,41.93-15.836
		c-8.156-13.689-29.166-43.583-59.078-47.041c0,0-30.693,8.982-26.947,35.93L175.157,89.834z"/>
	<path style="fill:#F0C419;" d="M223.947,71.869h81.66c6.89,0,12.09-6.701,9.944-13.258C300.244,11.704,255.996,0,255.996,0
		s-61.871,4.886-77.923,29.84C200.314,37.951,216.311,59.545,223.947,71.869"/>
	<path style="fill:#C49A13;" d="M275.544,8.894c13.68,8.219,24.486,16.573,31.232,40.277c2.273,8.03,0.108,16.716-5.794,22.618
		l-0.072,0.072l62.877,44.912C363.787,116.774,363.787,8.993,275.544,8.894"/>
	<path style="fill:#FDD7AD;" d="M263.789,62.912h-8.039h-8.03c0,0-144.671-7.985-144.671,207.576
		c0,56.401,4.401,118.443,46.942,158.828c15.261,14.489,33.235,25.645,50.598,37.421c17.354,11.776,32.669,27.298,55.161,27.298
		c22.501,0,37.807-15.522,55.17-27.298s35.337-22.932,50.598-37.421c42.541-40.385,46.933-102.427,46.933-158.828
		C408.452,54.927,263.789,62.912,263.789,62.912"/>
	<path style="fill:#DBB38D;" d="M310.92,466.737c-17.363,11.776-32.669,27.298-55.17,27.298c-22.492,0-37.807-15.522-55.161-27.298
		c-8.47-5.74-17.067-11.345-25.429-17.246v62.509h161.684v-62.841C328.319,455.194,319.552,460.889,310.92,466.737"/>
</g>
<g>
</g>
<g>
</g>
<g>
</g>
<g>
</g>
<g>
</g>
<g>
</g>
<g>
</g>
<g>
</g>
<g>
</g>
<g>
</g>
<g>
</g>
<g>
</g>
<g>
</g>
<g>
</g>
<g>
</g>
</svg>
