<?xml version="1.0" encoding="iso-8859-1"?>
<!-- Generator: Adobe Illustrator 19.0.0, SVG Export Plug-In . SVG Version: 6.00 Build 0)  -->
<svg version="1.1" id="Layer_1" xmlns="http://www.w3.org/2000/svg" xmlns:xlink="http://www.w3.org/1999/xlink" x="0px" y="0px"
	 viewBox="0 0 511.838 511.838" style="enable-background:new 0 0 511.838 511.838;" xml:space="preserve">
<g>
	<path style="fill:#DBB38D;" d="M309.77,467.356c-17.064,11.573-32.106,26.827-54.219,26.827c-22.104,0-37.155-15.254-54.21-26.827
		c-8.324-5.641-16.772-11.149-24.991-16.949v61.431h158.897v-61.758C326.869,456.013,318.253,461.609,309.77,467.356"/>
	<path style="fill:#FDD7AD;" d="M406.106,194.046c0-7.318-1.483-14.283-4.167-20.63c-10.09-23.905-38.382-33.66-62.782-24.832
		c-13.294,4.811-38.179,10.152-83.121,10.152s-69.826-5.341-83.121-10.152c-24.408-8.828-52.692,0.927-62.791,24.832
		c-2.675,6.338-4.158,13.312-4.158,20.63l-0.238,80.446c0,55.428,4.317,116.401,46.124,156.089
		c14.998,14.239,32.662,25.203,49.726,36.776c17.064,11.564,32.106,26.827,54.219,26.827c22.113,0,37.155-15.263,54.21-26.827
		c17.064-11.573,34.728-22.537,49.726-36.776c41.807-39.689,46.371-101.667,46.371-157.087V194.046z"/>
	<path style="fill:#59474E;" d="M426.615,116.15l-4.078-2.039c-7.433-3.716-8.077-14.071-1.165-18.679
		c5.685-3.778,6.479-11.82,1.651-16.64l-9.384-9.384c-8.73-8.73-10.205-21.963-4.652-32.998c7.168-14.265,6.806-27.622,6.171-33.465
		c-0.185-1.774-1.739-3.037-3.522-2.94l-164.67,8.66l-48.41-8.068c-2.816-0.468-5.676,0.6-7.512,2.798l-31.25,37.5
		c-5.65,6.771-15.492,8.201-22.828,3.31c-7.618-5.085-17.885-3.319-23.375,4.008l-26.995,35.99
		c-8.73,11.635-9.746,27.277-2.525,39.901c6.921,12.111,18.988,26.447,25.671,50.361c0.141-0.344,0.247-0.706,0.38-1.05
		c10.108-23.905,38.391-33.66,62.799-24.832c13.294,4.811,38.179,10.152,83.121,10.152s69.826-5.341,83.121-10.152
		c24.391-8.828,52.692,0.927,62.791,24.832c0.124,0.3,0.203,0.627,0.335,0.936c7.283-22.758,20.409-33.28,27.613-41.516
		C434.533,127.529,432.918,119.292,426.615,116.15"/>
</g>
<g>
</g>
<g>
</g>
<g>
</g>
<g>
</g>
<g>
</g>
<g>
</g>
<g>
</g>
<g>
</g>
<g>
</g>
<g>
</g>
<g>
</g>
<g>
</g>
<g>
</g>
<g>
</g>
<g>
</g>
</svg>
