<?xml version="1.0" encoding="iso-8859-1"?>
<!-- Generator: Adobe Illustrator 19.0.0, SVG Export Plug-In . SVG Version: 6.00 Build 0)  -->
<svg version="1.1" id="Layer_1" xmlns="http://www.w3.org/2000/svg" xmlns:xlink="http://www.w3.org/1999/xlink" x="0px" y="0px"
	 viewBox="0 0 511.999 511.999" style="enable-background:new 0 0 511.999 511.999;" xml:space="preserve">
<g>
	<path style="fill:#DBB38D;" d="M310.92,466.737c-17.363,11.776-32.669,27.298-55.17,27.298c-22.492,0-37.807-15.522-55.161-27.298
		c-8.47-5.74-17.067-11.345-25.429-17.246v62.509h161.684v-62.841C328.319,455.194,319.552,460.889,310.92,466.737"/>
	<path style="fill:#FDD7AD;" d="M408.482,260.272c0,56.392-4.177,128.656-46.718,169.041
		c-15.261,14.498-33.235,25.654-50.598,37.421c-17.363,11.776-32.669,27.298-55.17,27.298c-22.492,0-37.807-15.522-55.161-27.298
		c-17.363-11.767-35.337-22.923-50.598-37.421c-42.541-40.385-46.942-103.442-46.942-159.843v-59.913
		c0-17.282,7.689-33.81,21.235-44.535c5.812-4.599,11.48-8.515,15.576-11.821c20.381-16.474,50.823-10.914,65.186,11.013
		c13.86,21.154,25.645,40.25,42.882,47.329c19.663,8.075,40.673,12.019,61.853,13.689
		C371.681,230.1,406.254,258.395,408.482,260.272"/>
	<path style="fill:#804537;" d="M507.508,215.579c0-14.749-7.213-27.72-18.181-35.912c5.686-7.527,9.198-16.797,9.198-26.965
		c0-24.81-20.103-44.912-44.912-44.912c-3.557,0-6.961,0.512-10.276,1.293c0.781-3.315,1.293-6.719,1.293-10.276
		c0-24.81-20.103-44.912-44.912-44.912c-10.752,0-20.498,3.934-28.232,10.249c0.772-3.315,1.284-6.71,1.284-10.249
		c0-24.81-20.103-44.912-44.912-44.912c-15.252,0-28.672,7.644-36.801,19.267C287.537,12.108,273.201,0,256,0
		c-17.201,0-31.537,12.108-35.059,28.25c-8.129-11.623-21.549-19.267-36.801-19.267c-24.81,0-44.912,20.103-44.912,44.912
		c0,3.539,0.512,6.934,1.285,10.249c-7.734-6.315-17.48-10.249-28.232-10.249c-24.81,0-44.912,20.103-44.912,44.912
		c0,3.557,0.512,6.961,1.293,10.276c-3.315-0.781-6.719-1.293-10.276-1.293c-24.81,0-44.912,20.103-44.912,44.912
		c0,10.168,3.512,19.438,9.198,26.965c-10.968,8.192-18.18,21.163-18.18,35.912c0,16.923,9.476,31.484,23.3,39.137
		c-8.767,8.201-14.318,19.779-14.318,32.723c0,22.025,15.89,40.268,36.81,44.095c-6.081,7.662-9.863,17.219-9.863,27.765
		c0,24.81,20.103,44.912,44.912,44.912c7.411,0,14.291-1.967,20.453-5.138c-1.491,4.464-2.488,9.153-2.488,14.12
		c0,24.81,20.103,44.912,44.912,44.912c10.042,0,19.312-3.306,26.795-8.884c-8.659-6.126-17.058-12.593-24.765-19.905
		c-42.55-40.385-46.942-103.451-46.942-159.843v-59.922c0-17.282,7.68-33.81,21.226-44.535c5.821-4.599,11.489-8.506,15.585-11.812
		c20.372-16.474,50.823-10.914,65.177,11.004c13.86,21.163,25.654,40.259,42.891,47.338c19.654,8.066,40.664,12.019,61.853,13.68
		c61.656,4.868,96.229,33.172,98.457,35.05c0,56.392-4.177,128.656-46.727,169.041c-7.707,7.312-16.106,13.779-24.756,19.905
		c7.482,5.569,16.743,8.884,26.786,8.884c24.81,0,44.912-20.103,44.912-44.912c0-4.967-0.997-9.656-2.488-14.12
		c6.162,3.171,13.043,5.138,20.453,5.138c24.81,0,44.912-20.103,44.912-44.912c0-10.545-3.782-20.103-9.863-27.765
		c20.92-3.827,36.81-22.07,36.81-44.095c0-12.944-5.551-24.522-14.318-32.723C498.032,247.062,507.508,232.502,507.508,215.579"/>
</g>
<g>
</g>
<g>
</g>
<g>
</g>
<g>
</g>
<g>
</g>
<g>
</g>
<g>
</g>
<g>
</g>
<g>
</g>
<g>
</g>
<g>
</g>
<g>
</g>
<g>
</g>
<g>
</g>
<g>
</g>
</svg>
