<?xml version="1.0" encoding="iso-8859-1"?>
<!-- Generator: Adobe Illustrator 19.0.0, SVG Export Plug-In . SVG Version: 6.00 Build 0)  -->
<svg version="1.1" id="Layer_1" xmlns="http://www.w3.org/2000/svg" xmlns:xlink="http://www.w3.org/1999/xlink" x="0px" y="0px"
	 viewBox="0 0 503.495 503.495" style="enable-background:new 0 0 503.495 503.495;" xml:space="preserve">
<g>
	<path style="fill:#DBB38D;" d="M304.452,459.767c-16.775,11.377-31.562,26.372-53.3,26.372c-21.73,0-36.526-14.996-53.291-26.372
		c-8.183-5.545-16.488-10.96-24.567-16.662v60.39h156.203v-60.711C321.261,448.616,312.791,454.118,304.452,459.767"/>
	<path style="fill:#FDD7AD;" d="M398.919,191.09c0-7.194-1.458-14.041-4.087-20.28c-9.928-23.5-37.732-33.089-61.726-24.411
		c-13.069,4.729-37.532,9.98-81.712,9.98c-44.18,0-68.643-5.25-81.712-9.98c-23.995-8.678-51.799,0.911-61.726,24.411
		c-2.629,6.231-4.087,13.086-4.087,20.28l-0.234,79.082c0,54.489,4.244,114.428,45.342,153.444
		c14.744,13.998,32.108,24.776,48.883,36.152c16.775,11.368,31.562,26.372,53.3,26.372c21.738,0,36.526-15.004,53.291-26.372
		c16.775-11.377,34.139-22.155,48.883-36.152c41.099-39.016,45.585-99.944,45.585-154.424V191.09z"/>
	<path style="fill:#59474E;" d="M416.859,133.251c-5.78-9.355-13.399-25.505-17.538-35.692
		C380.16,50.42,354.873,38.392,340.58,35.537c-5.493-1.102-11.299-0.252-16.254,2.369c-35.788,18.97-55.574-11.698-55.574-11.698
		C249.227-3.8,199.329,0.174,199.329,0.174s25.192,22.146-7.992,43.19c-8.175,5.172-17.365,8.4-26.824,10.422
		c-13.564,2.881-38.999,10.431-48.38,27.639c-5.198,9.537-12.019,18.172-19.951,25.591c-16.61,15.516-34.434,47.711,7.637,101.359
		l0.052-17.287c0-7.194,1.458-14.05,4.079-20.28c9.936-23.5,37.74-33.089,61.735-24.411c13.06,4.729,37.532,9.98,81.712,9.98
		c44.171,0,68.643-5.25,81.712-9.98c23.986-8.678,51.79,0.911,61.726,24.411c2.629,6.231,4.087,13.086,4.087,20.28v26.034
		C436.107,179.938,426.665,149.114,416.859,133.251"/>
</g>
<g>
</g>
<g>
</g>
<g>
</g>
<g>
</g>
<g>
</g>
<g>
</g>
<g>
</g>
<g>
</g>
<g>
</g>
<g>
</g>
<g>
</g>
<g>
</g>
<g>
</g>
<g>
</g>
<g>
</g>
</svg>
