<?xml version="1.0" encoding="iso-8859-1"?>
<!-- Generator: Adobe Illustrator 19.0.0, SVG Export Plug-In . SVG Version: 6.00 Build 0)  -->
<svg version="1.1" id="Layer_1" xmlns="http://www.w3.org/2000/svg" xmlns:xlink="http://www.w3.org/1999/xlink" x="0px" y="0px"
	 viewBox="0 0 511.999 511.999" style="enable-background:new 0 0 511.999 511.999;" xml:space="preserve">
<g>
	<path style="fill:#DBB38D;" d="M311.906,465.928c-17.673,11.986-33.253,27.785-56.155,27.785
		c-22.903,0-38.482-15.799-56.155-27.785c-8.613-5.842-17.362-11.547-25.883-17.554v63.625h164.571v-63.963
		C329.615,454.18,320.683,459.976,311.906,465.928"/>
	<path style="fill:#FDD7AD;" d="M411.428,182.857c0-7.579-1.536-14.793-4.306-21.367c-10.459-24.759-39.762-34.862-65.033-25.719
		c-13.769,4.983-39.543,10.514-86.089,10.514s-72.32-5.531-86.089-10.514c-25.271-9.143-54.574,0.96-65.033,25.719
		c-2.77,6.565-4.306,13.787-4.306,21.367l-0.247,83.319c0,57.408,4.471,120.558,47.781,161.664
		c15.525,14.747,33.819,26.103,51.493,38.089c17.673,11.977,33.253,27.785,56.155,27.785c22.903,0,38.482-15.808,56.155-27.785
		c17.664-11.986,35.959-23.342,51.493-38.089c43.301-41.106,48.027-105.298,48.027-162.697V182.857z"/>
	<path style="fill:#805333;" d="M448,246.857V100.571c0-42.002-22.857-67.145-45.714-81.783C382.281,5.97,358.647,0,334.884,0H256
		h-78.885c-23.762,0-47.397,5.97-67.401,18.789C86.857,33.426,64,58.569,64,100.571v146.286c0,0-2.862,64,36.571,64h1.216
		c-1.161-14.958-1.463-30.007-1.463-44.681l0.247-83.319c0-7.579,1.536-14.802,4.306-21.367
		c10.459-24.759,39.762-34.862,65.033-25.719c13.769,4.983,39.543,10.514,86.089,10.514s72.32-5.531,86.089-10.514
		c25.271-9.143,54.574,0.96,65.033,25.719c2.77,6.565,4.306,13.787,4.306,21.367v82.286c0,14.958-0.347,30.363-1.582,45.714h1.582
		C450.852,310.857,448,246.857,448,246.857"/>
</g>
<g>
</g>
<g>
</g>
<g>
</g>
<g>
</g>
<g>
</g>
<g>
</g>
<g>
</g>
<g>
</g>
<g>
</g>
<g>
</g>
<g>
</g>
<g>
</g>
<g>
</g>
<g>
</g>
<g>
</g>
</svg>
