<?xml version="1.0" encoding="iso-8859-1"?>
<!-- Generator: Adobe Illustrator 19.0.0, SVG Export Plug-In . SVG Version: 6.00 Build 0)  -->
<svg version="1.1" id="Layer_1" xmlns="http://www.w3.org/2000/svg" xmlns:xlink="http://www.w3.org/1999/xlink" x="0px" y="0px"
	 viewBox="0 0 512.04 512.04" style="enable-background:new 0 0 512.04 512.04;" xml:space="preserve">
<g transform="translate(-1 -1)">
	<path style="fill:#DBB38D;" d="M315.012,468.558c-17.064,11.573-32.106,26.827-54.219,26.827s-37.155-15.254-54.219-26.827
		c-8.316-5.641-16.764-11.149-24.991-16.949v61.431H340.48v-61.758C332.111,457.215,323.486,462.811,315.012,468.558"/>
	<path style="fill:#FDD7AD;" d="M411.103,195.248c0-7.318-1.483-14.283-4.158-20.63c-10.099-23.905-38.391-33.66-62.791-24.832
		c-13.294,4.811-38.179,10.152-83.121,10.152s-69.826-5.341-83.121-10.152c-24.399-8.828-52.692,0.927-62.791,24.832
		c-2.675,6.338-4.158,13.312-4.158,20.63l-0.238,80.446c0,55.428,4.317,116.401,46.133,156.089
		c14.989,14.239,32.653,25.203,49.717,36.776c17.064,11.564,32.106,26.827,54.219,26.827s37.155-15.263,54.219-26.827
		c17.055-11.573,34.719-22.537,49.717-36.776c41.807-39.689,46.371-101.667,46.371-157.087V195.248z"/>
	<path style="fill:#59474E;" d="M384.62,36.352c-41.931-39.724-88.276,0-88.276,0c-20.233,0-17.655-35.31-17.655-35.31
		s-57.653-4.14-132.414,70.621l-9.834,9.834c-6.241,6.241-15.175,9.454-23.808,7.627c-8.889-1.889-15.625-8.086-1.668-26.289
		c0,0-98.454,99.928-0.159,185.229l0.159-52.815c0-7.318,1.483-14.292,4.158-20.63c10.099-23.905,38.391-33.66,62.791-24.832
		c13.294,4.811,38.179,10.152,83.121,10.152s69.826-5.341,83.121-10.152c24.399-8.828,52.692,0.927,62.791,24.832
		c2.675,6.338,4.158,13.312,4.158,20.63v52.966C504.896,124.998,384.62,36.352,384.62,36.352"/>
</g>
<g>
</g>
<g>
</g>
<g>
</g>
<g>
</g>
<g>
</g>
<g>
</g>
<g>
</g>
<g>
</g>
<g>
</g>
<g>
</g>
<g>
</g>
<g>
</g>
<g>
</g>
<g>
</g>
<g>
</g>
</svg>
