<?xml version="1.0" encoding="iso-8859-1"?>
<!-- Generator: Adobe Illustrator 19.0.0, SVG Export Plug-In . SVG Version: 6.00 Build 0)  -->
<svg version="1.1" id="Layer_1" xmlns="http://www.w3.org/2000/svg" xmlns:xlink="http://www.w3.org/1999/xlink" x="0px" y="0px"
	 viewBox="0 0 512.106 512.106" style="enable-background:new 0 0 512.106 512.106;" xml:space="preserve">
<g transform="translate(0 -1)">
	<path style="fill:#DBB38D;" d="M327.237,468.624c-17.064,11.573-32.106,26.827-54.219,26.827c-22.104,0-37.155-15.254-54.21-26.827
		c-8.324-5.641-16.772-11.149-24.991-16.949v61.431h158.897v-61.758C344.336,457.28,335.721,462.877,327.237,468.624"/>
	<path style="fill:#FDD7AD;" d="M370.125,186.486c0-69.402-43.582-71-51.677-70.7c-0.742,0.026-1.289,0.644-1.298,1.386
		c-0.768,68.114-61.784,60.487-61.784,60.487c-101.888,0-129.615,79.395-132.193,87.552c-0.071,3.496-0.221,6.912-0.221,10.549
		c0,55.428,4.317,116.401,46.133,156.089c14.998,14.239,32.662,25.203,49.717,36.776c17.064,11.564,32.106,26.827,54.219,26.827
		s37.155-15.263,54.219-26.827c17.055-11.573,34.719-22.537,49.717-36.776c41.816-39.689,46.133-100.661,46.133-156.089
		c0-9.684-0.388-18.759-0.953-27.551C366.559,247.476,370.125,186.486,370.125,186.486"/>
	<path style="fill:#F0C419;" d="M432.582,107.305c-24.894-49.841-71.044-44.403-71.044-44.403c0-67.31-70.621-61.793-70.621-61.793
		S247.574-2.863,171.25,38.15c-6.956,3.734-14.574,6.003-22.281,7.68c-12.977,2.834-34.604,15.704-34.604,70.038v27.33
		c0,12.791-5.358,25.344-15.537,33.077c-10.796,8.227-23.887,25.291-27.586,60.407c-1.13,10.681,5.049,20.913,15.095,24.717
		c15.581,5.888,36.855,19.306,36.855,48.675l0.6-0.106c-0.636-11.485-0.839-22.961-0.839-34.207c0-3.637,0.132-7.053,0.221-10.549
		c2.578-8.157,30.305-87.552,132.193-87.552c0,0,61.016,7.627,61.784-60.487c0.009-0.742,0.547-1.359,1.289-1.395
		c8.095-0.291,51.686,1.298,51.686,70.709c0,0-3.566,60.99,52.003,61.722c0.194,2.957,0.327,6.003,0.468,9.022l0.733-0.124
		l14.822-96.3C443.617,142.448,440.907,123.981,432.582,107.305"/>
</g>
<g>
</g>
<g>
</g>
<g>
</g>
<g>
</g>
<g>
</g>
<g>
</g>
<g>
</g>
<g>
</g>
<g>
</g>
<g>
</g>
<g>
</g>
<g>
</g>
<g>
</g>
<g>
</g>
<g>
</g>
</svg>
