<?xml version="1.0" encoding="iso-8859-1"?>
<!-- Generator: Adobe Illustrator 19.0.0, SVG Export Plug-In . SVG Version: 6.00 Build 0)  -->
<svg version="1.1" id="Layer_1" xmlns="http://www.w3.org/2000/svg" xmlns:xlink="http://www.w3.org/1999/xlink" x="0px" y="0px"
	 viewBox="0 0 512.002 512.002" style="enable-background:new 0 0 512.002 512.002;" xml:space="preserve">
<g>
	<path style="fill:#DBB38D;" d="M309.98,467.52c-17.064,11.573-32.106,26.827-54.219,26.827s-37.155-15.254-54.219-26.827
		c-8.316-5.641-16.764-11.149-24.991-16.949v61.431h158.897v-61.758C327.079,456.176,318.455,461.773,309.98,467.52"/>
	<path style="fill:#FDD7AD;" d="M112.049,283.994c111.598-127.532,223.223-133.923,223.223-133.923
		c31.453,16.004-26.483,61.793-26.483,61.793c50.211,0,79.448-35.31,79.448-35.31s17.832,39.892,17.832,98.101
		c0,55.428-4.317,116.401-46.124,156.089c-15.007,14.239-32.662,25.203-49.726,36.776c-17.064,11.573-32.106,26.827-54.219,26.827
		s-37.155-15.254-54.219-26.827s-34.631-22.634-49.717-36.776c-41.304-38.7-46.054-104.801-46.292-129.73
		C105.711,294.773,107.936,288.691,112.049,283.994"/>
	<path style="fill:#7D6599;" d="M412.653,123.503c-4.167-6.356-6.374-13.833-6.374-21.442c0.009-4.484-0.185-9.234-0.936-13.833
		c-3.222-19.853-18.238-36.484-37.57-42.002c-11.9-3.399-22.36-5.809-32.327-2.083c-5.164-45.542-35.31-44.138-35.31-44.138
		c-24.929,0-35.814,12.774-40.536,24.567c-1.333,3.319-5.862,3.319-7.194,0c-4.723-11.794-15.607-24.567-40.545-24.567
		c0,0-30.146-1.404-35.31,44.138c-9.966-3.725-20.436-1.315-32.335,2.083c-19.297,5.517-34.278,22.087-37.544,41.878
		c-0.759,4.661-0.953,9.454-0.953,13.983c0.009,7.601-2.207,15.069-6.365,21.416c-13.806,21.071-40.757,79.492,6.577,167.812h1.704
		c1.059-2.648,2.507-5.138,4.414-7.318c111.598-127.541,223.223-133.923,223.223-133.923c31.453,15.996-26.483,61.793-26.483,61.793
		c50.211,0,79.448-35.31,79.448-35.31s17.832,39.883,17.832,98.101c0,5.5-0.062,11.07-0.177,16.658h0.177
		C453.41,202.995,426.451,144.565,412.653,123.503"/>
</g>
<g>
</g>
<g>
</g>
<g>
</g>
<g>
</g>
<g>
</g>
<g>
</g>
<g>
</g>
<g>
</g>
<g>
</g>
<g>
</g>
<g>
</g>
<g>
</g>
<g>
</g>
<g>
</g>
<g>
</g>
</svg>
