<?xml version="1.0" encoding="iso-8859-1"?>
<!-- Generator: Adobe Illustrator 19.0.0, SVG Export Plug-In . SVG Version: 6.00 Build 0)  -->
<svg version="1.1" id="Layer_1" xmlns="http://www.w3.org/2000/svg" xmlns:xlink="http://www.w3.org/1999/xlink" x="0px" y="0px"
	 viewBox="0 0 503.509 503.509" style="enable-background:new 0 0 503.509 503.509;" xml:space="preserve">
<g>
	<path style="fill:#DBB38D;" d="M309.149,459.781c-16.775,11.377-31.562,26.372-53.3,26.372c-21.73,0-36.526-14.996-53.291-26.372
		c-8.183-5.545-16.488-10.952-24.567-16.653v60.381h156.203v-60.711C325.958,448.621,317.48,454.132,309.149,459.781"/>
	<path style="fill:#805333;" d="M255.853,0.188c0,0-130.169-10.301-182.237,121.492c0,0-18.441,52.068,0,104.136
		c0,0,12.479,31.458,34.712,52.068c0,0,33.627-78.102,86.78-78.102c0,0,62.915,69.424,112.814,69.424
		c0,0,63.731-5.693,95.458,26.034c0,0,78.102-105.22,0-225.627C403.378,69.612,356.196,0.188,255.853,0.188"/>
	<path style="fill:#FDD7AD;" d="M307.92,269.205c-49.898,0-112.814-69.424-112.814-69.424c-52.788,0-86.276,76.956-86.736,78.006
		c0.443,52.389,6.101,108.622,45.308,145.842c14.744,13.998,32.108,24.776,48.874,36.152c16.775,11.377,31.562,26.372,53.3,26.372
		s36.526-14.996,53.3-26.372c16.766-11.377,34.13-22.155,48.874-36.152c34.972-33.193,43.234-81.521,44.935-128.755
		C371.096,263.582,307.92,269.205,307.92,269.205"/>
</g>
<g>
</g>
<g>
</g>
<g>
</g>
<g>
</g>
<g>
</g>
<g>
</g>
<g>
</g>
<g>
</g>
<g>
</g>
<g>
</g>
<g>
</g>
<g>
</g>
<g>
</g>
<g>
</g>
<g>
</g>
</svg>
