<?xml version="1.0" encoding="iso-8859-1"?>
<!-- Generator: Adobe Illustrator 19.0.0, SVG Export Plug-In . SVG Version: 6.00 Build 0)  -->
<svg version="1.1" id="Layer_1" xmlns="http://www.w3.org/2000/svg" xmlns:xlink="http://www.w3.org/1999/xlink" x="0px" y="0px"
	 viewBox="0 0 509.574 509.574" style="enable-background:new 0 0 509.574 509.574;" xml:space="preserve">
<g>
	<path style="fill:#F0C419;" d="M456.475,161.111c-16.213-42.164-41.387-80.83-73.244-112.858
		c-29.468-29.62-74.904-61.668-118.3-42.411c-6.078,2.693-11.463,6.4-16.365,10.695l0.512,5.186
		c5.48,56.178,28.994,108.658,65.271,151.893c29.317,34.92,55.448,79.066,62.91,130.266
		c17.854,122.624-48.507,191.308-62.322,205.691c6.94-5.063,33.631-16.792,37.129-18.963
		c69.983-43.435,105.235-77.35,121.572-160.379C484.587,274.566,476.718,213.742,456.475,161.111"/>
	<path style="fill:#C49A13;" d="M249.077,21.723l-0.512-5.177C212.545,17.702,83.17,32.721,39.972,187.203
		c0,0-52.148,212.745,94.815,227.556c0,0-55.647-175.113,100.684-252.947c19.731-9.823,40.894-13.34,61.336-11.577
		C270.609,111.986,253.609,68.153,249.077,21.723"/>
	<path style="fill:#FDD7AD;" d="M374.197,401.639c6.21-27.506,8.543-60.065,3.053-97.754c-7.452-51.2-33.593-95.346-62.9-130.266
		c-6.296-7.5-12.051-15.36-17.541-23.391c-20.442-1.764-41.614,1.764-61.336,11.586C79.143,239.648,134.79,414.761,134.79,414.761
		c-9.444-0.958-18.043-2.75-25.913-5.234c5.281,7.917,11.359,15.407,18.574,22.253c16.109,15.294,35.081,27.07,53.4,39.5
		c18.328,12.43,34.484,28.814,58.235,28.814s39.908-16.384,58.235-28.814c18.318-12.43,37.291-24.206,53.4-39.5
		C360.288,422.688,367.949,412.514,374.197,401.639"/>
</g>
<g>
</g>
<g>
</g>
<g>
</g>
<g>
</g>
<g>
</g>
<g>
</g>
<g>
</g>
<g>
</g>
<g>
</g>
<g>
</g>
<g>
</g>
<g>
</g>
<g>
</g>
<g>
</g>
<g>
</g>
</svg>
