<?xml version="1.0" encoding="iso-8859-1"?>
<!-- Generator: Adobe Illustrator 19.0.0, SVG Export Plug-In . SVG Version: 6.00 Build 0)  -->
<svg version="1.1" id="Layer_1" xmlns="http://www.w3.org/2000/svg" xmlns:xlink="http://www.w3.org/1999/xlink" x="0px" y="0px"
	 viewBox="0 0 511.999 511.999" style="enable-background:new 0 0 511.999 511.999;" xml:space="preserve">
<g>
	<path style="fill:#FDD7AD;" d="M264.178,54.897h-8.183h-8.174c0,0-147.255-8.128-147.255,211.282
		c0,57.408,4.48,120.549,47.781,161.664c15.534,14.738,33.829,26.103,51.502,38.089c17.664,11.986,33.253,27.785,56.146,27.785
		c22.903,0,38.482-15.799,56.155-27.785c17.673-11.986,35.968-23.351,51.502-38.089c43.301-41.115,47.771-104.256,47.771-161.664
		C411.424,46.769,264.178,54.897,264.178,54.897"/>
	<path style="fill:#DBB38D;" d="M312.152,465.928c-17.673,11.986-33.253,27.785-56.155,27.785
		c-22.894,0-38.482-15.799-56.146-27.785c-8.622-5.842-17.371-11.538-25.883-17.545v63.616h164.571v-0.037v-18.286v-45.641
		C329.862,454.171,320.929,459.976,312.152,465.928"/>
	<path style="fill:#804537;" d="M264.178,54.857h-8.183h-8.174c0,0-142.391-7.698-147.026,200.923
		c2.267-1.911,37.458-30.72,100.215-35.675c21.559-1.701,42.944-5.714,62.958-13.925c17.545-7.205,29.541-26.642,43.648-48.183
		c14.619-22.318,45.605-27.968,66.35-11.2c9.984,8.064,20.041,19.584,28.315,36.023h0.329
		C370.903,49.07,264.178,54.857,264.178,54.857"/>
	<g>
		<path style="fill:#5E3128;" d="M224.321,57.161C205.697,23.104,169.555,0,128.001,0C67.411,0,18.287,49.125,18.287,109.714
			c0,52.178,36.462,95.762,85.275,106.88C118.364,94.638,187.366,64.485,224.321,57.161"/>
		<path style="fill:#5E3128;" d="M287.687,57.161C306.302,23.104,342.444,0,383.998,0c60.599,0,109.714,49.125,109.714,109.714
			c0,52.178-36.462,95.762-85.275,106.889C393.635,94.638,324.634,64.485,287.687,57.161"/>
	</g>
</g>
<g>
</g>
<g>
</g>
<g>
</g>
<g>
</g>
<g>
</g>
<g>
</g>
<g>
</g>
<g>
</g>
<g>
</g>
<g>
</g>
<g>
</g>
<g>
</g>
<g>
</g>
<g>
</g>
<g>
</g>
</svg>
