<?xml version="1.0" encoding="iso-8859-1"?>
<!-- Generator: Adobe Illustrator 19.0.0, SVG Export Plug-In . SVG Version: 6.00 Build 0)  -->
<svg version="1.1" id="Layer_1" xmlns="http://www.w3.org/2000/svg" xmlns:xlink="http://www.w3.org/1999/xlink" x="0px" y="0px"
	 viewBox="0 0 511.812 511.812" style="enable-background:new 0 0 511.812 511.812;" xml:space="preserve">
<g>
	<path style="fill:#DBB38D;" d="M314.138,464.035c-18.328,12.43-34.484,28.814-58.235,28.814c-23.742,0-39.908-16.384-58.235-28.814
		c-8.932-6.059-8.78-2.882-17.617-9.112v56.889h151.704v-56.889C322.766,461.286,323.24,457.863,314.138,464.035"/>
	<path style="fill:#FDD7AD;" d="M417.091,266.369c0-24.585-11.454-47.758-30.986-62.692l-128.379-98.171
		c-1.071-0.825-2.569-0.825-3.641,0l-128.379,98.171c-19.532,14.933-30.985,38.106-30.985,62.692
		c0,59.525,4.636,125.023,49.55,167.652c4.399,4.181,9.055,8.069,13.815,11.814c12.648,9.937,26.273,18.66,39.585,27.686
		c18.328,12.43,34.484,28.814,58.235,28.814s39.908-16.384,58.235-28.814c18.328-12.43,37.291-24.216,53.4-39.5
		C412.455,391.392,417.091,325.894,417.091,266.369"/>
	<path style="fill:#CB8252;" d="M464.499,293.739c0-164.143-56.889-227.556-56.889-227.556
		C340.054-33.969,255.906,9.295,255.906,9.295s-84.148-43.264-151.704,56.889c0,0-56.889,63.412-56.889,227.556
		c0,0-2.19,56.728,12.392,114.679c8.524,33.811,28.169,64.218,57.116,83.674c8.884,5.973,17.835,10.24,25.306,10.24v-66.37h4.418
		c-0.74-0.673-1.555-1.252-2.276-1.944c-44.914-42.629-49.55-108.117-49.55-167.652c0-24.576,11.454-47.758,30.985-62.692
		l128.379-98.171c1.071-0.825,2.569-0.825,3.641,0l128.379,98.171c19.532,14.933,30.986,38.116,30.986,62.692
		c0,59.534-4.636,125.023-49.55,167.652c-0.721,0.683-1.517,1.271-2.238,1.944h4.38v66.37c7.471,0,16.422-4.267,25.306-10.24
		c28.947-19.456,48.593-49.863,57.116-83.674C466.689,350.467,464.499,293.739,464.499,293.739"/>
</g>
<g>
</g>
<g>
</g>
<g>
</g>
<g>
</g>
<g>
</g>
<g>
</g>
<g>
</g>
<g>
</g>
<g>
</g>
<g>
</g>
<g>
</g>
<g>
</g>
<g>
</g>
<g>
</g>
<g>
</g>
</svg>
