<?xml version="1.0" encoding="iso-8859-1"?>
<!-- Generator: Adobe Illustrator 19.0.0, SVG Export Plug-In . SVG Version: 6.00 Build 0)  -->
<svg version="1.1" id="Layer_1" xmlns="http://www.w3.org/2000/svg" xmlns:xlink="http://www.w3.org/1999/xlink" x="0px" y="0px"
	 viewBox="0 0 512.022 512.022" style="enable-background:new 0 0 512.022 512.022;" xml:space="preserve">
<g transform="translate(0 -1)">
	<path style="fill:#FDD7AD;" d="M264.19,55.921h-8.183h-8.174c0,0-147.255-8.128-147.255,211.282
		c0,57.408,4.48,120.549,47.781,161.664c15.534,14.738,33.829,26.103,51.502,38.089c17.664,11.986,33.253,27.785,56.146,27.785
		c22.903,0,38.482-15.799,56.155-27.785s35.968-23.351,51.502-38.089c43.301-41.115,47.771-104.256,47.771-161.664
		C411.436,47.793,264.19,55.921,264.19,55.921"/>
	<path style="fill:#DBB38D;" d="M312.164,466.952c-17.673,11.986-33.253,27.785-56.155,27.785
		c-22.894,0-38.482-15.799-56.146-27.785c-8.622-5.842-17.371-11.538-25.883-17.545v63.616H338.55v-63.963
		C329.873,455.194,320.941,461,312.164,466.952"/>
	<path style="fill:#F18D46;" d="M460.02,178.461c-2.341-20.242-6.985-40.183-14.994-58.917
		C392.381-3.784,256.016,1.025,256.016,1.025S119.641-3.784,66.996,119.544c-8.009,18.734-12.654,38.674-14.994,58.917
		c-8.494,73.381-26.386,306.185,85.157,325.422c0,0,4.645-29.413,50.432-45.157c-13.687-9.17-27.273-18.514-39.232-29.861
		c-43.301-41.106-47.771-104.265-47.771-161.664c0-219.41,147.246-211.282,147.246-211.282h8.183h8.174
		c0,0,147.255-8.128,147.255,211.282c0,57.399-4.48,120.558-47.781,161.664c-11.959,11.346-25.545,20.69-39.232,29.861
		c45.787,15.744,50.441,45.157,50.441,45.157C486.406,484.646,468.514,251.841,460.02,178.461"/>
	<path style="fill:#CE7436;" d="M109.726,202.166c37.467,0,99.127-49.618,128.987-75.749c9.929-8.686,24.667-8.686,34.597,0
		c29.861,26.13,91.52,75.749,128.987,75.749l3.858-0.768C379.998,49.663,264.195,55.917,264.195,55.917h-8.183h-8.183
		c0,0-116.187-6.272-142.089,146.249H109.726z"/>
</g>
<g>
</g>
<g>
</g>
<g>
</g>
<g>
</g>
<g>
</g>
<g>
</g>
<g>
</g>
<g>
</g>
<g>
</g>
<g>
</g>
<g>
</g>
<g>
</g>
<g>
</g>
<g>
</g>
<g>
</g>
</svg>
