<?xml version="1.0" encoding="iso-8859-1"?>
<!-- Generator: Adobe Illustrator 19.0.0, SVG Export Plug-In . SVG Version: 6.00 Build 0)  -->
<svg version="1.1" id="Layer_1" xmlns="http://www.w3.org/2000/svg" xmlns:xlink="http://www.w3.org/1999/xlink" x="0px" y="0px"
	 viewBox="0 0 512.082 512.082" style="enable-background:new 0 0 512.082 512.082;" xml:space="preserve">
<g transform="translate(0 -1)">
	<path style="fill:#DBB38D;" d="M303.09,466.173c-17.994,12.204-33.857,28.29-57.176,28.29c-23.31,0-39.182-16.086-57.167-28.29
		c-8.778-5.949-17.687-11.748-26.354-17.864v64.773h167.564v-65.126C321.122,454.202,312.027,460.113,303.09,466.173"/>
	<path style="fill:#D75D72;" d="M166.744,77.996c-9.579,23.962-2.169,51.991,19.093,66.616
		c11.897,8.183,26.186,14.727,41.463,14.727c0,0,55.734-5.502,126.641,53.993c21.932,18.395,34.164,46.285,31.949,74.817
		c-1.536,19.819-8.778,43.157-28.262,66.681c0,0,145.455-105.314,74.473-242.036c0,0-54.114-111.709-176.873-111.709
		c0,0-0.428-0.093-1.229-0.084c-33.103,0.661-63.786,18.339-76.158,49.254L166.744,77.996z"/>
	<path style="fill:#AF4A60;" d="M166.744,77.996l11.096-27.741c2.998-7.494,7.103-14.308,12.009-20.359l0.214-0.847
		c0,0-74.826-4.627-113.711,89.386c-14.867,35.942-18.562,75.366-14.141,113.999c2.448,21.281,7.149,43.781,16.142,57.27
		c0,0,34.621-10.035,37.227-69.232c0.689-15.63,2.132-31.223,5.744-46.452c6.377-26.857,18.925-61.933,41.621-69.101
		C162.08,95.963,163.253,86.719,166.744,77.996"/>
	<path style="fill:#FDD7AD;" d="M357.626,354.828c19.484-23.515,26.726-46.862,28.262-66.681
		c2.216-28.532-10.017-56.422-31.949-74.817c-70.907-59.494-126.641-53.993-126.641-53.993c-15.276,0-29.566-6.544-41.463-14.727
		c-13.526-9.3-21.383-24.036-22.891-39.694c-22.696,7.168-35.244,42.245-41.621,69.111c-3.603,15.22-5.055,30.813-5.744,46.443
		c-1.722,38.875-17.194,56.478-27.648,64.028c1.452,52.168,9.691,106.17,48.379,142.895c15.816,15.016,34.444,26.577,52.429,38.782
		c17.994,12.204,33.857,28.29,57.176,28.29c23.319,0,39.182-16.086,57.176-28.29c17.985-12.204,36.613-23.766,52.429-38.782
		c32.098-30.469,43.203-72.816,46.899-116.15C379.68,338.807,357.626,354.828,357.626,354.828"/>
</g>
<g>
</g>
<g>
</g>
<g>
</g>
<g>
</g>
<g>
</g>
<g>
</g>
<g>
</g>
<g>
</g>
<g>
</g>
<g>
</g>
<g>
</g>
<g>
</g>
<g>
</g>
<g>
</g>
<g>
</g>
</svg>
