<svg id="Layer_3" enable-background="new 0 0 64 64" height="512" viewBox="0 0 64 64" width="512" xmlns="http://www.w3.org/2000/svg"><g fill="#7ecb92"><path d="m49 62h-2v-.343c0-3.381-1.316-6.56-3.707-8.95l1.414-1.414c2.769 2.769 4.293 6.449 4.293 10.364z"/><path d="m57 62h-2v-.343c0-3.915 1.524-7.596 4.293-10.364l1.414 1.414c-2.391 2.391-3.707 5.569-3.707 8.95z"/><path d="m53 62h-2v-5.871c0-2.396-.933-4.648-2.627-6.342l-1.08-1.08 1.414-1.414 1.08 1.08c2.072 2.071 3.213 4.825 3.213 7.756z"/><path d="m49.964 49.5h7.071v2h-7.071z" transform="matrix(.707 -.707 .707 .707 -20.039 52.621)"/></g><path d="m2 18 6-16h16l6 16-6 44h-16z" fill="#ab927a"/><path d="m14 14h4v4h4v4h-4v8h-4v-8h-4v-4h4z" fill="#56493d"/><path d="m24 62h4l6-44-6-16h-4l6 16z" fill="#56493d"/><path d="m28 62h6l6-44-6-16h-6l6 16z" fill="#ab927a"/><path d="m50 9v-.172c0-1.811.719-3.547 2-4.828 1.281-1.281 3.017-2 4.828-2h.172v.172c0 1.811-.719 3.547-2 4.828-1.281 1.281-3.017 2-4.828 2z" fill="#7ecb92"/><path d="m46 17v.172c0 1.811.719 3.548 2 4.828 1.281 1.281 3.017 2 4.828 2h.172v-.172c0-1.811-.719-3.548-2-4.828-1.281-1.281-3.017-2-4.828-2z" fill="#7ecb92"/><path d="m50 39v-.172c0-1.811.719-3.548 2-4.828 1.281-1.281 3.017-2 4.828-2h.172v.172c0 1.811-.719 3.548-2 4.828-1.281 1.281-3.017 2-4.828 2z" fill="#7ecb92"/><path d="m2 61h60v2h-60z" fill="#a8a8a8"/></svg>