<svg id="Layer_3" enable-background="new 0 0 64 64" height="512" viewBox="0 0 64 64" width="512" xmlns="http://www.w3.org/2000/svg"><path d="m25 29c-2.201 0-4.271-.857-5.828-2.414l-1.879-1.879 1.414-1.414 1.879 1.879c1.18 1.179 2.747 1.828 4.414 1.828z" fill="#999"/><path d="m56 50v-8c0-1.105.895-2 2-2 1.105 0 2 .895 2 2v8" fill="#f8cd6d"/><path d="m48 50v-8c0-1.105.895-2 2-2 1.105 0 2 .895 2 2v8" fill="#f8cd6d"/><path d="m40 50v-8c0-1.105.895-2 2-2 1.105 0 2 .895 2 2v8" fill="#f8cd6d"/><path d="m32 50v-8c0-1.105.895-2 2-2 1.105 0 2 .895 2 2v8" fill="#f8cd6d"/><path d="m24 50v-8c0-1.105.895-2 2-2 1.105 0 2 .895 2 2v8" fill="#f8cd6d"/><path d="m22 50h40v12h-40z" fill="#806e5c"/><path d="m22 50h37v12h-37z" fill="#ab927a"/><path d="m14 42h-8c-2.209 0-4-1.791-4-4v-20h16v20c0 2.209-1.791 4-4 4z" fill="#56493d"/><path d="m6 22h8v16h-8z" fill="#ab927a"/><path d="m14 6v12h-10v-2c0-5.523 4.477-10 10-10z" fill="#ab927a"/><path d="m34 24h-16c-3.314 0-6-2.686-6-6v-8c0-3.314 2.686-6 6-6h18v18c0 1.105-.895 2-2 2z" fill="#ccc"/><path d="m60 6v-4h-2c-2.209 0-4 1.791-4 4" fill="#ccc"/><path d="m36 6h26v6h-26z" fill="#666"/><path d="m36 6h23v6h-23z" fill="#999"/><path d="m36 12h22v4h-22z" fill="#4d4d4d"/><path d="m36 12h19v4h-19z" fill="#666"/><path d="m24 33h-6v-2h6c1.654 0 3-1.346 3-3v-4h2v4c0 2.757-2.243 5-5 5z" fill="#999"/><path d="m12.09 9h23.91v-2h-23.191c-.352.608-.598 1.282-.719 2z" fill="#4d4d4d"/><path d="m12 11h24v2h-24z" fill="#4d4d4d"/><path d="m12 15h24v2h-24z" fill="#4d4d4d"/><path d="m12.809 21h23.191v-2h-23.91c.121.718.367 1.392.719 2z" fill="#4d4d4d"/><g fill="#605345"><path d="m22 53h40v2h-40z"/><path d="m24 45h4v2h-4z"/><path d="m32 45h4v2h-4z"/><path d="m40 45h4v2h-4z"/><path d="m48 45h4v2h-4z"/><path d="m56 45h4v2h-4z"/></g></svg>