<?xml version="1.0" encoding="iso-8859-1"?>
<!-- Generator: Adobe Illustrator 19.0.0, SVG Export Plug-In . SVG Version: 6.00 Build 0)  -->
<svg xmlns="http://www.w3.org/2000/svg" xmlns:xlink="http://www.w3.org/1999/xlink" version="1.1" id="Layer_1" x="0px" y="0px" viewBox="0 0 512.004 512.004" style="enable-background:new 0 0 512.004 512.004;" xml:space="preserve">
<g>
	<path style="fill:#BDC3C7;" d="M256.003,291.314c-4.873,0-8.828-3.946-8.828-8.828v-35.31c0-4.882,3.955-8.828,8.828-8.828   c4.873,0,8.828,3.946,8.828,8.828v35.31C264.831,287.368,260.876,291.314,256.003,291.314"/>
	<path style="fill:#ECF0F1;" d="M370.762,397.245c0,63.382-51.377,114.759-114.759,114.759s-114.759-51.377-114.759-114.759   s51.377-114.759,114.759-114.759S370.762,333.863,370.762,397.245"/>
	<g>
		<path style="fill:#BDC3C7;" d="M287.245,332.995c-1.156,0-2.339-0.221-3.469-0.715c-5.014-2.145-10.302-3.708-15.713-4.634    c-4.802-0.83-8.033-5.394-7.203-10.196c0.821-4.811,5.376-8.051,10.196-7.203c6.771,1.165,13.391,3.116,19.668,5.809    c4.484,1.916,6.559,7.106,4.643,11.591C293.927,330.991,290.67,332.995,287.245,332.995 M216.103,337.356    c-3.046,0-6.003-1.571-7.645-4.387c-2.445-4.211-1.015-9.622,3.196-12.067c5.95-3.46,12.27-6.206,18.803-8.174    c4.652-1.377,9.596,1.245,10.999,5.914c1.404,4.67-1.245,9.596-5.914,10.999c-5.208,1.562-10.266,3.761-15.016,6.515    C219.131,336.967,217.604,337.356,216.103,337.356 M326.889,370.15c-3.231,0-6.329-1.766-7.883-4.837    c-2.472-4.864-5.517-9.446-9.057-13.647c-3.151-3.716-2.684-9.287,1.033-12.438c3.725-3.125,9.295-2.692,12.438,1.042    c4.431,5.235,8.245,10.973,11.335,17.064c2.198,4.343,0.468,9.666-3.884,11.864C329.591,369.85,328.231,370.15,326.889,370.15     M181.27,379.057c-0.998,0-2.013-0.168-3.001-0.53c-4.59-1.651-6.956-6.718-5.305-11.299c2.322-6.426,5.411-12.597,9.172-18.335    c2.675-4.061,8.148-5.217,12.226-2.534c4.07,2.666,5.208,8.148,2.542,12.217c-3.01,4.59-5.482,9.525-7.336,14.654    C188.27,376.824,184.88,379.057,181.27,379.057 M333.342,424.387c-0.671,0-1.359-0.079-2.039-0.238    c-4.74-1.121-7.68-5.879-6.559-10.62c1.245-5.305,1.88-10.778,1.88-16.287c0-4.873,3.955-8.986,8.828-8.986    s8.828,3.787,8.828,8.669v0.318c0,6.877-0.794,13.718-2.357,20.339C340.961,421.651,337.341,424.387,333.342,424.387     M181.376,433.391c-3.593,0-6.974-2.216-8.289-5.791c-2.348-6.418-3.946-13.127-4.749-19.933    c-0.565-4.846,2.895-9.234,7.742-9.799c4.785-0.644,9.225,2.887,9.799,7.733c0.636,5.447,1.916,10.796,3.787,15.925    c1.677,4.581-0.671,9.649-5.252,11.335C183.415,433.223,182.391,433.391,181.376,433.391 M303.496,469.77    c-2.692,0-5.35-1.227-7.08-3.54c-2.922-3.911-2.119-9.446,1.783-12.359c4.396-3.284,8.404-7.062,11.926-11.264    c3.143-3.734,8.704-4.22,12.438-1.077c3.734,3.134,4.22,8.704,1.086,12.438c-4.396,5.226-9.401,9.957-14.883,14.045    C307.186,469.205,305.333,469.77,303.496,469.77 M216.359,474.952c-1.501,0-3.019-0.38-4.405-1.183    c-5.923-3.416-11.449-7.53-16.428-12.217c-3.549-3.328-3.725-8.916-0.388-12.473c3.346-3.549,8.934-3.716,12.482-0.388    c3.99,3.752,8.422,7.044,13.162,9.79c4.228,2.436,5.667,7.839,3.231,12.059C222.38,473.371,219.414,474.952,216.359,474.952     M256.004,485.518c-1.686,0-3.372-0.053-5.041-0.141c-4.873-0.283-8.589-4.449-8.307-9.322c0.282-4.864,4.573-8.501,9.313-8.298    c5.429,0.309,11.008-0.018,16.375-0.962c4.838-0.909,9.375,2.357,10.222,7.159s-2.357,9.375-7.159,10.222    C266.35,485.077,261.168,485.518,256.004,485.518"/>
		<path style="fill:#BDC3C7;" d="M300.141,414.9h-88.276c-4.873,0-8.828-3.946-8.828-8.828c0-4.882,3.955-8.828,8.828-8.828h88.276    c4.873,0,8.828,3.946,8.828,8.828C308.969,410.954,305.014,414.9,300.141,414.9"/>
		<path style="fill:#BDC3C7;" d="M273.658,379.59h-35.31c-4.873,0-8.828-3.946-8.828-8.828c0-4.882,3.955-8.828,8.828-8.828h35.31    c4.873,0,8.828,3.946,8.828,8.828C282.486,375.644,278.531,379.59,273.658,379.59"/>
	</g>
	<g>
		<polygon style="fill:#932924;" points="300.141,247.176 211.865,247.176 203.038,211.866 308.969,211.866   "/>
		<path style="fill:#932924;" d="M256.684,208.469c-0.459,1.112-0.671,2.269-0.671,3.399h18.379L361.255,3.404    c0.459-1.112,0.671-2.269,0.671-3.399h-18.379L256.684,208.469z"/>
	</g>
	<g>
		<path style="fill:#BC392F;" d="M158.977,0.004c0,0.998,0.088,2.022,0.45,3.019l69.102,190.031l10.037-24.082L177.127,0.004    H158.977z"/>
		<path style="fill:#BC392F;" d="M343.546,0.004h-34.578l-88.276,211.862h35.319c0-1.13,0.203-2.286,0.671-3.399L343.546,0.004z"/>
		<path style="fill:#BC392F;" d="M361.925,0.004c0,1.13-0.203,2.286-0.671,3.399l-86.863,208.463h34.578L397.244,0.004H361.925z"/>
	</g>
	<g>
		<polygon style="fill:#E64C3C;" points="257.869,122.642 211.869,0 177.123,0 238.563,168.969   "/>
		<path style="fill:#E64C3C;" d="M228.52,193.02L159.427,3.024c-0.362-1.006-0.45-2.022-0.45-3.019h-44.217l88.276,211.862h17.655    l7.83-18.776V193.02"/>
	</g>
</g>
<g>
</g>
<g>
</g>
<g>
</g>
<g>
</g>
<g>
</g>
<g>
</g>
<g>
</g>
<g>
</g>
<g>
</g>
<g>
</g>
<g>
</g>
<g>
</g>
<g>
</g>
<g>
</g>
<g>
</g>
</svg>
