<?xml version="1.0" encoding="iso-8859-1"?>
<!-- Generator: Adobe Illustrator 19.0.0, SVG Export Plug-In . SVG Version: 6.00 Build 0)  -->
<svg xmlns="http://www.w3.org/2000/svg" xmlns:xlink="http://www.w3.org/1999/xlink" version="1.1" id="Layer_1" x="0px" y="0px" viewBox="0 0 512 512" style="enable-background:new 0 0 512 512;" xml:space="preserve">
<g>
	<path style="fill:#F0C419;" d="M414.897,203.034c0-87.755-71.142-158.897-158.897-158.897S97.103,115.279,97.103,203.034   S168.245,361.931,256,361.931S414.897,290.79,414.897,203.034"/>
	<g>
		<path style="fill:#E64C3C;" d="M256,44.138c36.608,0,70.232,12.509,97.103,33.315V0H158.897v77.453    C185.768,56.647,219.392,44.138,256,44.138"/>
		<path style="fill:#E64C3C;" d="M256,361.931c-36.608,0-70.232-12.509-97.103-33.315V512L256,414.897L353.103,512V328.616    C326.232,349.422,292.608,361.931,256,361.931"/>
	</g>
	<g>
		<path style="fill:#FFE69F;" d="M220.69,229.517c0,19.5-15.81,35.31-35.31,35.31s-35.31-15.81-35.31-35.31s15.81-35.31,35.31-35.31    S220.69,210.017,220.69,229.517"/>
		<path style="fill:#FFE69F;" d="M291.31,229.517c0,19.5-15.81,35.31-35.31,35.31s-35.31-15.81-35.31-35.31s15.81-35.31,35.31-35.31    S291.31,210.017,291.31,229.517"/>
		<path style="fill:#FFE69F;" d="M361.931,229.517c0,19.5-15.81,35.31-35.31,35.31c-19.5,0-35.31-15.81-35.31-35.31    s15.81-35.31,35.31-35.31C346.121,194.207,361.931,210.017,361.931,229.517"/>
		<path style="fill:#FFE69F;" d="M256,167.724c0,19.5-15.81,35.31-35.31,35.31s-35.31-15.81-35.31-35.31s15.81-35.31,35.31-35.31    S256,148.224,256,167.724"/>
		<path style="fill:#FFE69F;" d="M326.621,167.724c0,19.5-15.81,35.31-35.31,35.31c-19.5,0-35.31-15.81-35.31-35.31    s15.81-35.31,35.31-35.31C310.81,132.414,326.621,148.224,326.621,167.724"/>
	</g>
</g>
<g>
</g>
<g>
</g>
<g>
</g>
<g>
</g>
<g>
</g>
<g>
</g>
<g>
</g>
<g>
</g>
<g>
</g>
<g>
</g>
<g>
</g>
<g>
</g>
<g>
</g>
<g>
</g>
<g>
</g>
</svg>
