<?xml version="1.0" encoding="iso-8859-1"?>
<!-- Generator: Adobe Illustrator 19.0.0, SVG Export Plug-In . SVG Version: 6.00 Build 0)  -->
<svg xmlns="http://www.w3.org/2000/svg" xmlns:xlink="http://www.w3.org/1999/xlink" version="1.1" id="Layer_1" x="0px" y="0px" viewBox="0 0 512.004 512.004" style="enable-background:new 0 0 512.004 512.004;" xml:space="preserve">
<g transform="translate(0 -1)">
	<path style="fill:#ECF0F1;" d="M370.762,398.246c0,63.382-51.377,114.759-114.759,114.759s-114.759-51.377-114.759-114.759   s51.377-114.759,114.759-114.759S370.762,334.864,370.762,398.246"/>
	<path style="fill:#BC392F;" d="M211.865,248.177h88.276l89.238-127.1c10.055-14.177,10.505-32.989,1.148-47.625L344.279,1.004   L211.865,248.177z"/>
	<path style="fill:#E64C3C;" d="M256.279,165.228L167.729,1l-46.327,72.651c-9.26,14.521-8.801,33.165,1.148,47.228l89.318,127.294   L256.279,165.228z"/>
	<polygon style="fill:#932924;" points="167.727,1.004 205.809,71.625 306.444,71.625 344.279,1.004  "/>
	<g>
		<path style="fill:#BDC3C7;" d="M256.003,283.487c6.02,0,11.882,0.459,17.655,1.351v-36.661h-35.31v36.661    C244.112,283.946,249.983,283.487,256.003,283.487"/>
		<path style="fill:#BDC3C7;" d="M256.003,371.763c0,14.627-11.855,26.483-26.483,26.483s-26.483-11.855-26.483-26.483    s11.855-26.483,26.483-26.483S256.003,357.136,256.003,371.763"/>
		<path style="fill:#BDC3C7;" d="M308.969,371.763c0,14.627-11.855,26.483-26.483,26.483s-26.483-11.855-26.483-26.483    s11.855-26.483,26.483-26.483S308.969,357.136,308.969,371.763"/>
		<path style="fill:#BDC3C7;" d="M221.339,396.824c-3.822-1.254-7.283-3.257-10.116-5.985c-2.595-0.839-5.314-1.421-8.183-1.421    c-14.627,0-26.483,11.855-26.483,26.483c0,14.627,11.855,26.483,26.483,26.483c14.618,0,26.483-11.855,26.483-26.483    C229.522,408.397,226.362,401.644,221.339,396.824"/>
		<path style="fill:#BDC3C7;" d="M308.969,389.418c-2.878,0-5.588,0.574-8.183,1.421c-2.834,2.728-6.294,4.732-10.116,5.985    c-5.023,4.82-8.183,11.564-8.183,19.076c0,14.627,11.855,26.483,26.483,26.483s26.483-11.855,26.483-26.483    S323.596,389.418,308.969,389.418"/>
		<path style="fill:#BDC3C7;" d="M274.304,396.824c-3.822-1.254-7.283-3.257-10.116-5.985c-2.595-0.839-5.314-1.421-8.183-1.421    c-2.878,0-5.597,0.583-8.183,1.421c-2.834,2.728-6.294,4.732-10.116,5.985c-5.023,4.82-8.183,11.573-8.183,19.076    c0,14.627,11.855,26.483,26.483,26.483c14.618,0,26.483-11.855,26.483-26.483C282.488,408.397,279.327,401.644,274.304,396.824"/>
	</g>
</g>
<g>
</g>
<g>
</g>
<g>
</g>
<g>
</g>
<g>
</g>
<g>
</g>
<g>
</g>
<g>
</g>
<g>
</g>
<g>
</g>
<g>
</g>
<g>
</g>
<g>
</g>
<g>
</g>
<g>
</g>
</svg>
