<?xml version="1.0" encoding="iso-8859-1"?>
<!-- Generator: Adobe Illustrator 19.0.0, SVG Export Plug-In . SVG Version: 6.00 Build 0)  -->
<svg xmlns="http://www.w3.org/2000/svg" xmlns:xlink="http://www.w3.org/1999/xlink" version="1.1" id="Layer_1" x="0px" y="0px" viewBox="0 0 512.004 512.004" style="enable-background:new 0 0 512.004 512.004;" xml:space="preserve">
<g>
	<path style="fill:#BDC3C7;" d="M256.003,291.314c-4.882,0-8.828-3.946-8.828-8.828v-35.31c0-4.882,3.946-8.828,8.828-8.828   s8.828,3.946,8.828,8.828v35.31C264.831,287.368,260.885,291.314,256.003,291.314"/>
	<path style="fill:#ECF0F1;" d="M370.762,397.245c0,63.382-51.377,114.759-114.759,114.759s-114.759-51.377-114.759-114.759   s51.377-114.759,114.759-114.759S370.762,333.863,370.762,397.245"/>
	<g>
		<path style="fill:#BDC3C7;" d="M291.313,406.073h-70.621c-4.882,0-8.828-3.946-8.828-8.828c0-4.882,3.946-8.828,8.828-8.828    h70.621c4.882,0,8.828,3.946,8.828,8.828C300.141,402.127,296.195,406.073,291.313,406.073"/>
		<path style="fill:#BDC3C7;" d="M256.003,441.383c-4.882,0-8.828-3.946-8.828-8.828v-70.621c0-4.882,3.946-8.828,8.828-8.828    s8.828,3.946,8.828,8.828v70.621C264.831,437.437,260.885,441.383,256.003,441.383"/>
		<path style="fill:#BDC3C7;" d="M282.486,459.038c0,14.627-11.855,26.483-26.483,26.483c-14.627,0-26.483-11.855-26.483-26.483    c0-14.627,11.855-26.483,26.483-26.483C270.63,432.555,282.486,444.411,282.486,459.038"/>
		<path style="fill:#BDC3C7;" d="M282.486,335.452c0,14.627-11.855,26.483-26.483,26.483c-14.627,0-26.483-11.855-26.483-26.483    s11.855-26.483,26.483-26.483C270.63,308.969,282.486,320.824,282.486,335.452"/>
		<path style="fill:#BDC3C7;" d="M344.279,397.245c0,14.627-11.855,26.483-26.483,26.483c-14.627,0-26.483-11.855-26.483-26.483    s11.855-26.483,26.483-26.483C332.423,370.762,344.279,382.618,344.279,397.245"/>
		<path style="fill:#BDC3C7;" d="M220.693,397.245c0,14.627-11.855,26.483-26.483,26.483c-14.627,0-26.483-11.855-26.483-26.483    s11.855-26.483,26.483-26.483C208.837,370.762,220.693,382.618,220.693,397.245"/>
	</g>
	<g>
		<polygon style="fill:#932924;" points="300.141,247.176 211.865,247.176 203.038,211.866 308.969,211.866   "/>
		<path style="fill:#932924;" d="M256.684,208.469c-0.468,1.112-0.671,2.269-0.671,3.399h18.379L361.255,3.404    c0.459-1.112,0.671-2.269,0.671-3.399h-18.379L256.684,208.469z"/>
	</g>
	<g>
		<path style="fill:#BC392F;" d="M158.977,0.004c0,0.998,0.097,2.022,0.459,3.019l69.094,190.031l10.037-24.082L177.127,0.004    H158.977z"/>
		<path style="fill:#BC392F;" d="M343.546,0.004h-34.578l-88.276,211.862h35.319c0-1.13,0.203-2.286,0.671-3.399L343.546,0.004z"/>
		<path style="fill:#BC392F;" d="M361.925,0.004c0,1.13-0.203,2.286-0.671,3.399l-86.863,208.463h34.578L397.244,0.004H361.925z"/>
	</g>
	<g>
		<polygon style="fill:#E64C3C;" points="257.865,122.642 211.864,0 177.128,0 238.559,168.969   "/>
		<path style="fill:#E64C3C;" d="M228.52,193.02L159.435,3.024c-0.362-1.006-0.459-2.022-0.459-3.019h-44.217l88.276,211.862h17.655    l7.821-18.776C228.52,193.073,228.52,193.047,228.52,193.02"/>
	</g>
</g>
<g>
</g>
<g>
</g>
<g>
</g>
<g>
</g>
<g>
</g>
<g>
</g>
<g>
</g>
<g>
</g>
<g>
</g>
<g>
</g>
<g>
</g>
<g>
</g>
<g>
</g>
<g>
</g>
<g>
</g>
</svg>
