<svg height="512pt" viewBox="0 0 512.00074 512" width="512pt" xmlns="http://www.w3.org/2000/svg"><path d="m512 35.3125v326.617188h-512v-326.617188c-.00390625-9.367188 3.714844-18.351562 10.339844-24.972656 6.621094-6.621094 15.605468-10.34375025 24.96875-10.339844h441.382812c2.703125.0078125 5.402344.332031 8.03125.972656 5.121094 1.132813 9.898438 3.460938 13.949219 6.796875.261719.175781.441406.351563.703125.527344 4.59375 3.804687 8.121094 8.730469 10.242188 14.300781 1.601562 4.046875 2.410156 8.363282 2.382812 12.714844zm0 0" fill="#90bae1"/><path d="m484.722656.972656c-72 3.761719-143.328125 15.816406-212.566406 35.925782-7.503906 2.296874-15.097656 4.679687-22.601562 7.238281-12.621094 4.238281-25.246094 8.917969-37.691407 14.125-12.007812 4.945312-23.835937 10.242187-35.3125 16.15625-12.09375 6-23.921875 12.535156-35.308593 19.683593-6.179688 3.707032-12.183594 7.679688-18.097657 11.828126-5.914062 4.0625-11.652343 8.386718-17.214843 12.800781-12.59375 9.894531-24.402344 20.757812-35.308594 32.488281-2.382813 2.46875-4.679688 5.03125-6.886719 7.679688-10.523437 12.0625-19.917969 25.0625-28.070313 38.839843v.175781c-10.699218 18.242188-19.0625 37.757813-24.894531 58.085938-1.675781 5.738281-3.179687 11.652344-4.414062 17.65625-1.914063 8.742188-3.355469 17.582031-4.324219 26.480469-.707031 5.738281-1.238281 11.652343-1.5 17.65625-.355469 5.738281-.53125 11.652343-.53125 17.65625v-300.136719c-.00390625-9.367188 3.714844-18.351562 10.339844-24.972656 6.621094-6.621094 15.605468-10.34375025 24.96875-10.339844h441.382812c2.703125.0078125 5.402344.332031 8.03125.972656zm0 0" fill="#b0d3f0"/><path d="m282.484375 290.429688c.207031 2.480468-.628906 4.933593-2.300781 6.773437-1.675782 1.84375-4.039063 2.90625-6.527344 2.933594h-229.519531c-2.488281-.027344-4.851563-1.089844-6.527344-2.933594-1.671875-1.839844-2.507813-4.292969-2.300781-6.773437 5.273437-64.34375 59.03125-113.878907 123.589844-113.878907 64.554687 0 118.3125 49.535157 123.585937 113.878907zm0 0" fill="#fff"/><path d="m317.792969 167.722656h194.207031v167.726563h-194.207031zm0 0" fill="#285680"/><path d="m512 35.3125v132.410156h-194.207031v-167.722656h158.898437c2.703125.0078125 5.402344.332031 8.03125.972656 5.121094 1.132813 9.898438 3.460938 13.949219 6.796875.261719.175781.441406.351563.703125.527344 4.59375 3.804687 8.121094 8.730469 10.242188 14.300781 1.601562 4.046875 2.410156 8.363282 2.382812 12.714844zm0 0" fill="#4482c3"/><path d="m353.101562 476.691406-97.101562 17.652344-97.101562-17.652344c26.480468 0 52.964843-35.3125 52.964843-70.621094l44.136719-17.65625 44.136719 17.65625c0 35.308594 26.484375 70.621094 52.964843 70.621094zm0 0" fill="#2c3e50"/><path d="m512 335.449219v35.308593c.003906 9.367188-3.714844 18.351563-10.339844 24.972657-6.621094 6.621093-15.605468 10.339843-24.96875 10.339843h-441.382812c-9.363282 0-18.347656-3.71875-24.96875-10.339843-6.625-6.621094-10.34375025-15.605469-10.339844-24.972657v-35.308593zm0 0" fill="#35495e"/><path d="m370.757812 494.34375c-.070312 9.722656-7.933593 17.585938-17.65625 17.65625h-194.203124c-9.742188-.027344-17.628907-7.914062-17.65625-17.65625.070312-9.71875 7.933593-17.582031 17.65625-17.652344h194.203124c9.742188.027344 17.628907 7.914063 17.65625 17.652344zm0 0" fill="#35495e"/><path d="m264.828125 370.757812c0 4.875-3.953125 8.828126-8.828125 8.828126s-8.828125-3.953126-8.828125-8.828126 3.953125-8.828124 8.828125-8.828124 8.828125 3.953124 8.828125 8.828124zm0 0" fill="#556080"/><path d="m167.722656 211.863281c0 4.875-3.949218 8.828125-8.824218 8.828125-4.878907 0-8.828126-3.953125-8.828126-8.828125s3.949219-8.828125 8.828126-8.828125c4.875 0 8.824218 3.953125 8.824218 8.828125zm0 0" fill="#c03a2b"/><path d="m459.035156 141.242188c-14.625 0-26.484375-11.855469-26.484375-26.484376 0-14.625 11.859375-26.480468 26.484375-26.480468s26.480469 11.855468 26.480469 26.480468c-.015625 14.621094-11.863281 26.46875-26.480469 26.484376zm0-35.3125c-4.875 0-8.828125 3.953124-8.828125 8.828124s3.953125 8.828126 8.828125 8.828126 8.828125-3.953126 8.828125-8.828126c-.003906-4.871093-3.953125-8.824218-8.828125-8.828124zm0 0" fill="#fff"/><path d="m370.757812 79.449219c-14.625 0-26.480468-11.855469-26.480468-26.484375 0-14.625 11.855468-26.480469 26.480468-26.480469s26.484376 11.855469 26.484376 26.480469c-.015626 14.621094-11.863282 26.46875-26.484376 26.484375zm0-35.3125c-4.875 0-8.828124 3.953125-8.828124 8.828125s3.953124 8.828125 8.828124 8.828125 8.828126-3.953125 8.828126-8.828125c-.003907-4.871094-3.953126-8.820313-8.828126-8.828125zm0 0" fill="#fff"/><path d="m123.585938 223.6875c0 4.875-3.953126 8.828125-8.828126 8.828125s-8.828124-3.953125-8.828124-8.828125 3.953124-8.828125 8.828124-8.828125 8.828126 3.953125 8.828126 8.828125zm0 0" fill="#c03a2b"/><path d="m91.273438 256c0 4.875-3.949219 8.828125-8.828126 8.828125-4.875 0-8.824218-3.953125-8.824218-8.828125s3.949218-8.828125 8.824218-8.828125c4.878907 0 8.828126 3.953125 8.828126 8.828125zm0 0" fill="#c03a2b"/><path d="m218.128906 253.441406-46.695312 46.695313h-21.363282c-.007812-2.34375.910157-4.597657 2.558594-6.265625l52.964844-52.964844c3.464844-3.4375 9.058594-3.425781 12.511719.023438 3.449219 3.453124 3.460937 9.046874.023437 12.511718zm0 0" fill="#e64c3c"/><path d="m79.449219 97.105469h17.652343c4.878907 0 8.828126 3.949219 8.828126 8.824219v35.3125h-35.308594v-35.3125c0-4.875 3.953125-8.824219 8.828125-8.824219zm0 0" fill="#ff5364"/><path d="m158.898438 35.3125h17.652343c4.875 0 8.828125 3.949219 8.828125 8.824219v97.105469h-35.308594v-97.105469c0-4.875 3.949219-8.824219 8.828126-8.824219zm0 0" fill="#894b9d"/><path d="m238.34375 61.792969h17.65625c4.875 0 8.828125 3.953125 8.828125 8.828125v70.621094h-35.3125v-70.621094c0-4.875 3.953125-8.828125 8.828125-8.828125zm0 0" fill="#f0c419"/><path d="m361.929688 141.242188c-3.570313 0-6.785157-2.152344-8.152344-5.449219-1.367188-3.300781-.609375-7.09375 1.914062-9.621094l97.101563-97.101563c2.214843-2.296874 5.5-3.214843 8.585937-2.40625 3.085938.804688 5.496094 3.214844 6.304688 6.304688.808594 3.085938-.113282 6.367188-2.40625 8.582031l-97.105469 97.105469c-1.652344 1.65625-3.898437 2.589844-6.242187 2.585938zm0 0" fill="#fff"/><g fill="#90bae1"><path d="m476.691406 211.863281h-123.589844c-4.875 0-8.824218-3.953125-8.824218-8.828125s3.949218-8.828125 8.824218-8.828125h123.589844c4.875 0 8.824219 3.953125 8.824219 8.828125s-3.949219 8.828125-8.824219 8.828125zm0 0"/><path d="m379.585938 256h-26.484376c-4.875 0-8.824218-3.953125-8.824218-8.828125s3.949218-8.828125 8.824218-8.828125h26.484376c4.875 0 8.828124 3.953125 8.828124 8.828125s-3.953124 8.828125-8.828124 8.828125zm0 0"/><path d="m459.035156 256h-44.136718c-4.878907 0-8.828126-3.953125-8.828126-8.828125s3.949219-8.828125 8.828126-8.828125h44.136718c4.875 0 8.828125 3.953125 8.828125 8.828125s-3.953125 8.828125-8.828125 8.828125zm0 0"/><path d="m406.070312 300.136719h-52.96875c-4.875 0-8.824218-3.949219-8.824218-8.824219 0-4.878906 3.949218-8.828125 8.824218-8.828125h52.96875c4.875 0 8.828126 3.949219 8.828126 8.828125 0 4.875-3.953126 8.824219-8.828126 8.824219zm0 0"/></g><path d="m282.484375 150.070312h-247.175781c-4.875 0-8.824219-3.953124-8.824219-8.828124v-105.929688c0-4.878906 3.949219-8.828125 8.824219-8.828125 4.878906 0 8.828125 3.949219 8.828125 8.828125v97.101562h238.347656c4.875 0 8.824219 3.953126 8.824219 8.828126s-3.949219 8.828124-8.824219 8.828124zm0 0" fill="#2c3e50"/></svg>