<svg height="512.00001pt" viewBox="0 0 512.00001 512.00001" width="512.00001pt" xmlns="http://www.w3.org/2000/svg"><g fill="#464f5d"><path d="m300.128906 114.757812c-1.597656 0-3.164062-.433593-4.535156-1.257812l-88.273438-52.964844c-2.730468-1.613281-4.386718-4.5625-4.339843-7.730468.046875-3.167969 1.789062-6.070313 4.5625-7.601563 2.773437-1.53125 6.15625-1.457031 8.863281.195313l88.273438 52.964843c3.402343 2.042969 5.027343 6.105469 3.964843 9.929688s-4.546875 6.46875-8.515625 6.464843zm0 0"/><path d="m300.128906 467.863281c-1.597656 0-3.164062-.4375-4.535156-1.261719l-88.273438-52.964843c-4.140624-2.523438-5.46875-7.917969-2.972656-12.078125s7.878906-5.523438 12.058594-3.058594l88.273438 52.964844c3.402343 2.042968 5.027343 6.105468 3.964843 9.929687s-4.546875 6.472657-8.515625 6.46875zm0 0"/><path d="m141.242188 220.691406c-2.34375 0-4.589844-.929687-6.242188-2.589844l-9.796875-9.804687c-3.375-3.457031-3.339844-8.988281.078125-12.402344 3.414062-3.417969 8.945312-3.453125 12.402344-.082031l9.800781 9.808594c2.523437 2.523437 3.277344 6.320312 1.910156 9.621094-1.363281 3.296874-4.582031 5.445312-8.152343 5.449218zm-33.808594-35.519531c-3.507813.003906-6.679688-2.070313-8.089844-5.28125-1.484375-3.355469-2.246094-6.984375-2.242188-10.652344v-10.339843c0-4.878907 3.953126-8.828126 8.828126-8.828126s8.828124 3.949219 8.828124 8.828126v10.339843c0 1.222657.25 2.429688.742188 3.550781 1.199219 2.726563.9375 5.875-.6875 8.371094s-4.402344 4.007813-7.382812 4.011719zm-1.503906-52.757813c-4.875 0-8.828126-3.953124-8.828126-8.828124v-17.65625c0-4.875 3.953126-8.828126 8.828126-8.828126s8.828124 3.953126 8.828124 8.828126v17.65625c0 4.875-3.953124 8.828124-8.828124 8.828124zm0 0"/><path d="m406.070312 414.898438c-4.875 0-8.828124-3.953126-8.828124-8.828126v-17.65625c0-4.875 3.953124-8.828124 8.828124-8.828124s8.828126 3.953124 8.828126 8.828124v17.65625c0 4.875-3.953126 8.828126-8.828126 8.828126zm0-52.96875c-4.875 0-8.828124-3.949219-8.828124-8.828126v-10.339843c0-1.222657-.25-2.429688-.742188-3.550781-1.382812-2.902344-1.074219-6.332032.800781-8.941407 1.878907-2.613281 5.027344-4 8.21875-3.617187 3.195313.382812 5.929688 2.472656 7.136719 5.457031 1.484375 3.355469 2.246094 6.984375 2.242188 10.652344v10.339843c0 4.878907-3.953126 8.828126-8.828126 8.828126zm-25.511718-43.160157c-2.34375.003907-4.589844-.925781-6.242188-2.582031l-9.800781-9.808594c-3.34375-3.464844-3.296875-8.96875.109375-12.375 3.402344-3.40625 8.910156-3.453125 12.375-.105468l9.796875 9.804687c2.523437 2.523437 3.28125 6.320313 1.914063 9.617187-1.367188 3.300782-4.585938 5.449219-8.15625 5.449219zm0 0"/></g><path d="m203.027344 300.136719c-2.003906 0-3.949219-.679688-5.511719-1.933594l-44.136719-35.308594c-2.09375-1.675781-3.3125-4.214843-3.3125-6.894531s1.21875-5.21875 3.3125-6.894531l44.136719-35.308594c2.464844-1.972656 5.792969-2.480469 8.730469-1.332031 2.9375 1.148437 5.039062 3.773437 5.515625 6.894531.476562 3.117187-.746094 6.25-3.210938 8.222656l-35.523437 28.417969 35.523437 28.417969c2.929688 2.34375 4.058594 6.28125 2.8125 9.820312-1.242187 3.539063-4.585937 5.902344-8.335937 5.898438zm0 0" fill="#ff5364"/><path d="m308.972656 300.136719c-3.75.003906-7.09375-2.359375-8.335937-5.898438-1.246094-3.539062-.117188-7.476562 2.8125-9.820312l35.523437-28.417969-35.523437-28.417969c-3.808594-3.046875-4.421875-8.601562-1.375-12.410156 3.046875-3.804687 8.601562-4.421875 12.410156-1.375l44.136719 35.308594c2.09375 1.675781 3.3125 4.214843 3.3125 6.894531s-1.21875 5.21875-3.3125 6.894531l-44.136719 35.308594c-1.5625 1.253906-3.507813 1.933594-5.511719 1.933594zm0 0" fill="#ff5364"/><path d="m238.355469 326.625c-2.773438-.003906-5.378907-1.308594-7.046875-3.519531-1.671875-2.207031-2.207032-5.074219-1.453125-7.738281l35.308593-123.585938c1.339844-4.691406 6.230469-7.40625 10.917969-6.066406 4.691407 1.34375 7.40625 6.230468 6.0625 10.921875l-35.308593 123.585937c-1.085938 3.785156-4.542969 6.394532-8.480469 6.402344zm0 0" fill="#ff5364"/><path d="m512 105.929688c0 58.503906-47.425781 105.933593-105.929688 105.933593-58.503906 0-105.933593-47.429687-105.933593-105.933593 0-58.503907 47.429687-105.929688 105.933593-105.929688 58.503907 0 105.929688 47.425781 105.929688 105.929688zm0 0" fill="#955ba5"/><path d="m8.828125 0h194.207031c4.875 0 8.828125 3.953125 8.828125 8.828125v88.273437c0 4.878907-3.953125 8.828126-8.828125 8.828126h-194.207031c-4.875 0-8.828125-3.949219-8.828125-8.828126v-88.273437c0-4.875 3.953125-8.828125 8.828125-8.828125zm0 0" fill="#ff5364"/><path d="m167.722656 44.136719h-132.414062c-4.875 0-8.824219-3.949219-8.824219-8.828125 0-4.875 3.949219-8.824219 8.824219-8.824219h132.414062c4.875 0 8.828125 3.949219 8.828125 8.824219 0 4.878906-3.953125 8.828125-8.828125 8.828125zm0 0" fill="#fb7b76"/><path d="m105.929688 79.449219h-70.621094c-4.875 0-8.824219-3.953125-8.824219-8.828125s3.949219-8.828125 8.824219-8.828125h70.621094c4.875 0 8.828124 3.953125 8.828124 8.828125s-3.953124 8.828125-8.828124 8.828125zm0 0" fill="#fb7b76"/><path d="m308.964844 406.070312h194.207031c4.875 0 8.828125 3.949219 8.828125 8.828126v88.273437c0 4.875-3.953125 8.828125-8.828125 8.828125h-194.207031c-4.875 0-8.828125-3.953125-8.828125-8.828125v-88.273437c0-4.878907 3.953125-8.828126 8.828125-8.828126zm0 0" fill="#ff5364"/><path d="m406.070312 450.207031h-70.621093c-4.875 0-8.828125-3.953125-8.828125-8.828125s3.953125-8.828125 8.828125-8.828125h70.621093c4.875 0 8.828126 3.953125 8.828126 8.828125s-3.953126 8.828125-8.828126 8.828125zm0 0" fill="#fb7b76"/><path d="m467.863281 485.515625h-132.414062c-4.875 0-8.828125-3.949219-8.828125-8.824219 0-4.878906 3.953125-8.828125 8.828125-8.828125h132.414062c4.875 0 8.828125 3.949219 8.828125 8.828125 0 4.875-3.953125 8.824219-8.828125 8.824219zm0 0" fill="#fb7b76"/><path d="m379.585938 105.929688h-35.308594c-4.875 0-8.828125 3.953124-8.828125 8.828124v70.128907c14.875 13.359375 33.246093 22.207031 52.964843 25.511719v-95.640626c0-4.875-3.953124-8.828124-8.828124-8.828124zm0 0" fill="#ff5364"/><path d="m467.863281 70.621094h-35.3125c-4.875 0-8.828125 3.953125-8.828125 8.828125v130.949219c19.71875-3.304688 38.089844-12.15625 52.96875-25.511719v-105.4375c0-4.875-3.953125-8.828125-8.828125-8.828125zm0 0" fill="#f0c419"/><path d="m211.863281 406.070312c-.070312 50.453126-35.761719 93.839844-85.257812 103.632813-49.496094 9.792969-99.019531-16.730469-118.296875-63.359375-19.277344-46.625-2.941406-100.378906 39.019531-128.398438 41.964844-28.015624 97.871094-22.5 133.550781 13.175782 19.863282 19.882812 31.007813 46.84375 30.984375 74.949218zm0 0" fill="#955ba5"/><path d="m180.878906 331.121094-74.949218 74.949218h-105.929688c.0234375-42.84375 25.839844-81.460937 65.417969-97.859374 39.582031-16.398438 85.140625-7.359376 115.460937 22.910156zm0 0" fill="#ff5364"/><path d="m105.929688 406.070312v105.929688c-28.09375.007812-55.042969-11.148438-74.910157-31.019531-19.871093-19.867188-31.0273435-46.816407-31.019531-74.910157zm0 0" fill="#f0c419"/></svg>