<svg height="512pt" viewBox="0 0 512 512.00019" width="512pt" xmlns="http://www.w3.org/2000/svg"><path d="m374.78125 60.746094h-228.882812c3.03125 11.371094 3.03125 23.339844 0 34.710937h228.882812c-3.035156-11.371093-3.035156-23.339843 0-34.710937zm0 0" fill="#464f5d"/><path d="m135.9375 233.636719-16.394531-93.703125c-9.976563 5.703125-21.269531 8.71875-32.761719 8.746094-.402344 0-.789062.007812-1.1875 0l16.394531 93.660156c10.816407-4.589844 22.261719-7.523438 33.949219-8.703125zm0 0" fill="#464f5d"/><path d="m277.695312 407.863281c-43.796874-.019531-84.652343-22.050781-108.730468-58.640625-24.074219-36.585937-28.148438-82.824218-10.835938-123.058594-3.523437-.265624-7.011718-.535156-10.601562-.535156-71.007813-.015625-130.582032 53.542969-138.097656 124.148438-7.515626 70.605468 39.449218 135.503906 108.863281 150.4375 69.417969 14.933594 138.917969-24.910156 161.101562-92.359375-.570312.007812-1.125.007812-1.699219.007812zm0 0" fill="#b0d3f0"/><path d="m147.527344 512c-81.476563 0-147.527344-66.050781-147.527344-147.527344 0-81.472656 66.050781-147.523437 147.527344-147.523437 3.71875 0 7.328125.265625 10.980468.542969 4.808594.351562 8.4375 4.507812 8.136719 9.316406-.324219 4.742187-4.425781 8.328125-9.167969 8.007812l-.28125-.019531c-3.210937-.242187-6.390624-.492187-9.667968-.492187-65.878906-.015626-121.382813 49.1875-129.265625 114.59375-7.886719 65.402343 34.339843 126.386718 98.332031 142.023437 63.996094 15.640625 129.585938-19 152.753906-80.667969-.21875-.777344-.328125-1.582031-.332031-2.390625 0-4.792969 3.886719-8.675781 8.679687-8.675781l1.566407-.015625c2.816406-.082031 5.484375 1.242187 7.117187 3.535156 1.660156 2.261719 2.128906 5.1875 1.253906 7.851563-19.800781 60.589844-76.363281 101.542968-140.105468 101.441406zm0 0" fill="#2fa8cc"/><path d="m50.089844 365.847656c7.175781 10.730469 19.699218 16.609375 32.539062 15.273438 7.859375-.164063 15.4375-2.96875 21.507813-7.96875 26.363281-26.363282 17.191406-34.710938 52.644531-47.097656-6.15625-15.375-9.300781-31.792969-9.253906-48.359376-.003906-5.800781.375-11.597656 1.136718-17.347656-52.164062-.609375-95.535156 34.875-103.84375 79.835938-1.644531 8.914062.246094 18.121094 5.269532 25.664062zm0 0" fill="#fff"/><path d="m121.492188 425.21875c0 9.585938-7.769532 17.359375-17.355469 17.359375-9.585938 0-17.355469-7.773437-17.355469-17.359375 0-9.582031 7.769531-17.355469 17.355469-17.355469 9.585937 0 17.355469 7.773438 17.355469 17.355469zm0 0" fill="#fff"/><path d="m375.152344 391.015625 24.542968-24.542969 37.546876 37.542969-24.546876 24.546875zm0 0" fill="#bdc3c7"/><path d="m164.882812 78.101562c0 43.132813-34.96875 78.101563-78.101562 78.101563-43.136719 0-78.101562-34.96875-78.101562-78.101563 0-43.132812 34.964843-78.101562 78.101562-78.101562 43.132812 0 78.101562 34.96875 78.101562 78.101562zm0 0" fill="#ff5364"/><path d="m512 78.101562c0 43.132813-34.96875 78.101563-78.101562 78.101563-43.132813 0-78.101563-34.96875-78.101563-78.101563 0-43.132812 34.96875-78.101562 78.101563-78.101562 43.132812 0 78.101562 34.96875 78.101562 78.101562zm0 0" fill="#2fa8cc"/><path d="m407.863281 277.695312c0 71.890626-58.277343 130.167969-130.167969 130.167969-71.890624 0-130.167968-58.277343-130.167968-130.167969 0-71.890624 58.277344-130.167968 130.167968-130.167968 71.890626 0 130.167969 58.277344 130.167969 130.167968zm0 0" fill="#285680"/><path d="m332.714844 199.765625c-44.867188 14.582031-115.9375 49.292969-137.460938 126.09375-17.230468-29.53125-17.363281-66.019531-.34375-95.671875 17.019532-29.648438 48.59375-47.9375 82.785156-47.949219 19.722657-.0625 38.964844 6.070313 55.019532 17.527344zm0 0" fill="#b0d3f0"/><path d="m373.152344 277.695312c.003906 37.617188-22.089844 71.726563-56.414063 87.109376-34.328125 15.386718-74.492187 9.171874-102.566406-15.863282-7.503906-6.632812-13.890625-14.425781-18.917969-23.082031 21.523438-76.800781 92.59375-111.511719 137.460938-126.09375 5.636718 3.921875 10.816406 8.464844 15.445312 13.539063 16.105469 17.574218 25.027344 40.554687 24.992188 64.390624zm0 0" fill="#90bae1"/><path d="m461.40625 415.933594-3.914062 35.050781-32.878907 1.746094-18.398437-18.398438c-1.625-1.621093-2.539063-3.824219-2.539063-6.117187 0-2.296875.914063-4.496094 2.539063-6.117188l24.558594-24.558594c1.621093-1.625 3.824218-2.539062 6.117187-2.539062 2.296875 0 4.5.914062 6.121094 2.539062zm0 0" fill="#2c3e50"/><path d="m504.363281 495.683594c-10.164062 10.152344-26.628906 10.152344-36.792969 0l-42.957031-42.953125 36.792969-36.796875 42.957031 42.957031c10.152344 10.164063 10.152344 26.628906 0 36.792969zm0 0" fill="#285680"/><path d="m354.722656 382.628906 14.652344 14.886719c1.628906 1.628906 3.835938 2.542969 6.136719 2.542969 2.304687 0 4.511719-.914063 6.136719-2.542969l24.546874-24.542969c1.628907-1.628906 2.542969-3.835937 2.542969-6.136718 0-2.300782-.914062-4.507813-2.542969-6.136719l-16.5-16.65625zm0 0" fill="#2c3e50"/><path d="m46.992188 69.429688c-2.925782-.007813-5.652344-1.484376-7.25-3.933594-1.601563-2.449219-1.859376-5.539063-.691407-8.222656 8.285157-18.972657 27.023438-31.238282 47.730469-31.238282 4.792969 0 8.675781 3.882813 8.675781 8.675782 0 4.792968-3.882812 8.679687-8.675781 8.679687-13.808594 0-26.300781 8.175781-31.832031 20.828125-1.378907 3.164062-4.503907 5.210938-7.957031 5.210938zm0 0" fill="#fb7b76"/><path d="m407.875 49.628906c-3.898438 0-7.316406-2.589844-8.367188-6.34375-1.046874-3.75.53125-7.742187 3.863282-9.757812 8.121094-4.910156 17.429687-7.5 26.917968-7.492188 4.792969 0 8.675782 3.882813 8.675782 8.675782 0 4.792968-3.882813 8.679687-8.675782 8.679687-6.320312-.007813-12.523437 1.71875-17.933593 4.980469-1.351563.824218-2.902344 1.257812-4.480469 1.257812zm0 0" fill="#9fc9d3"/><path d="m394.128906 104.140625c-3.453125 0-6.578125-2.042969-7.960937-5.207031-2.875-6.566406-4.351563-13.664063-4.335938-20.832032-.003906-3.492187.34375-6.976562 1.03125-10.398437.949219-4.699219 5.53125-7.738281 10.230469-6.789063 4.699219.949219 7.738281 5.53125 6.789062 10.230469-1.421874 7.007813-.65625 14.28125 2.183594 20.84375 1.171875 2.679688.914063 5.769531-.6875 8.21875-1.597656 2.453125-4.324218 3.929688-7.25 3.9375zm0 0" fill="#9fc9d3"/><path d="m316.226562 287.742188c-2.90625.003906-5.621093-1.445313-7.230468-3.863282l-24.957032-37.4375c-1.765624-2.582031-2.003906-5.910156-.632812-8.714844 1.375-2.808593 4.152344-4.65625 7.269531-4.847656 3.121094-.1875 6.101563 1.316406 7.804688 3.933594l24.957031 37.4375c1.773438 2.660156 1.941406 6.082031.433594 8.902344-1.507813 2.824218-4.445313 4.585937-7.644532 4.589844zm0 0" fill="#464f5d"/><path d="m259.578125 294.617188c-2.941406-.003907-5.675781-1.492188-7.273437-3.957032-1.597657-2.46875-1.839844-5.574218-.644532-8.257812l19.363282-43.492188c1.203124-2.921875 3.898437-4.960937 7.039062-5.320312s6.226562 1.015625 8.058594 3.589844c1.832031 2.574218 2.121094 5.941406.75 8.789062l-19.363282 43.492188c-1.390624 3.136718-4.5 5.15625-7.929687 5.15625zm0 0" fill="#464f5d"/><g fill="#ff5364"><path d="m277.695312 303.730469c0 14.375-11.65625 26.03125-26.035156 26.03125s-26.03125-11.65625-26.03125-26.03125c0-14.378907 11.652344-26.035157 26.03125-26.035157s26.035156 11.65625 26.035156 26.035157zm0 0"/><path d="m338.441406 286.371094c0 9.585937-7.769531 17.359375-17.355468 17.359375-9.585938 0-17.355469-7.773438-17.355469-17.359375 0-9.582032 7.769531-17.355469 17.355469-17.355469 9.585937 0 17.355468 7.773437 17.355468 17.355469zm0 0"/><path d="m303.730469 234.304688c0 9.585937-7.773438 17.355468-17.359375 17.355468-9.582032 0-17.355469-7.769531-17.355469-17.355468 0-9.585938 7.773437-17.355469 17.355469-17.355469 9.585937 0 17.359375 7.769531 17.359375 17.355469zm0 0"/></g></svg>