<svg height="512pt" viewBox="0 0 512 512" width="512pt" xmlns="http://www.w3.org/2000/svg"><g fill="#464f5d"><path d="m256 264.828125c-4.875 0-8.828125-3.953125-8.828125-8.828125v-79.449219c0-4.875 3.953125-8.828125 8.828125-8.828125s8.828125 3.953125 8.828125 8.828125v79.449219c0 4.875-3.953125 8.828125-8.828125 8.828125zm0 0"/><path d="m256 388.414062c-4.875 0-8.828125-3.953124-8.828125-8.828124v-35.308594c0-4.875 3.953125-8.828125 8.828125-8.828125s8.828125 3.953125 8.828125 8.828125v35.308594c0 4.875-3.953125 8.828124-8.828125 8.828124zm0 0"/><path d="m344.277344 432.550781c-4.875 0-8.828125-3.953125-8.828125-8.828125v-26.480468c-.007813-4.875-3.957031-8.820313-8.828125-8.828126h-141.242188c-4.871094.007813-8.820312 3.953126-8.828125 8.828126v26.480468c0 4.875-3.953125 8.828125-8.828125 8.828125s-8.824218-3.953125-8.824218-8.828125v-26.480468c.015624-14.621094 11.863281-26.46875 26.480468-26.484376h141.242188c14.617187.015626 26.464844 11.863282 26.480468 26.484376v26.480468c0 4.875-3.949218 8.828125-8.824218 8.828125zm0 0"/><path d="m211.863281 308.964844h-123.585937c-4.875 0-8.828125-3.953125-8.828125-8.828125s3.953125-8.828125 8.828125-8.828125h123.585937c4.875 0 8.828125 3.953125 8.828125 8.828125s-3.953125 8.828125-8.828125 8.828125zm0 0"/><path d="m423.722656 308.964844h-123.585937c-4.875 0-8.828125-3.953125-8.828125-8.828125s3.953125-8.828125 8.828125-8.828125h123.585937c4.875 0 8.828125 3.953125 8.828125 8.828125s-3.953125 8.828125-8.828125 8.828125zm0 0"/><path d="m44.136719 264.828125c-4.875 0-8.828125-3.953125-8.828125-8.828125v-17.65625c0-4.875 3.953125-8.828125 8.828125-8.828125s8.828125 3.953125 8.828125 8.828125v17.65625c0 4.875-3.953125 8.828125-8.828125 8.828125zm0 0"/><path d="m141.242188 79.449219h-35.3125c-4.875 0-8.828126-3.953125-8.828126-8.828125s3.953126-8.828125 8.828126-8.828125h35.3125c4.875 0 8.828124 3.953125 8.828124 8.828125s-3.953124 8.828125-8.828124 8.828125zm0 0"/><path d="m44.136719 105.929688c-4.875 0-8.828125-3.949219-8.828125-8.828126v-8.824218c.019531-14.621094 11.863281-26.46875 26.484375-26.484375h8.828125c4.875 0 8.828125 3.953125 8.828125 8.828125s-3.953125 8.828125-8.828125 8.828125h-8.828125c-4.871094.003906-8.820313 3.953125-8.828125 8.828125v8.824218c0 4.878907-3.953125 8.828126-8.828125 8.828126zm0 0"/><path d="m44.136719 158.898438c-4.875 0-8.828125-3.953126-8.828125-8.828126v-17.65625c0-4.875 3.953125-8.828124 8.828125-8.828124s8.828125 3.953124 8.828125 8.828124v17.65625c0 4.875-3.953125 8.828126-8.828125 8.828126zm0 0"/><path d="m44.136719 211.863281c-4.875 0-8.828125-3.953125-8.828125-8.828125v-17.65625c0-4.875 3.953125-8.828125 8.828125-8.828125s8.828125 3.953125 8.828125 8.828125v17.65625c0 4.875-3.953125 8.828125-8.828125 8.828125zm0 0"/><path d="m467.863281 264.828125c-4.875 0-8.828125-3.953125-8.828125-8.828125v-17.65625c0-4.875 3.953125-8.828125 8.828125-8.828125s8.828125 3.953125 8.828125 8.828125v17.65625c0 4.875-3.953125 8.828125-8.828125 8.828125zm0 0"/><path d="m406.070312 79.449219h-35.3125c-4.875 0-8.828124-3.953125-8.828124-8.828125s3.953124-8.828125 8.828124-8.828125h35.3125c4.875 0 8.828126 3.953125 8.828126 8.828125s-3.953126 8.828125-8.828126 8.828125zm0 0"/><path d="m467.863281 105.929688c-4.875 0-8.828125-3.949219-8.828125-8.828126v-8.824218c-.007812-4.875-3.957031-8.824219-8.828125-8.828125h-8.828125c-4.875 0-8.828125-3.953125-8.828125-8.828125s3.953125-8.828125 8.828125-8.828125h8.828125c14.621094.015625 26.464844 11.863281 26.484375 26.484375v8.824218c0 4.878907-3.953125 8.828126-8.828125 8.828126zm0 0"/><path d="m467.863281 158.898438c-4.875 0-8.828125-3.953126-8.828125-8.828126v-17.65625c0-4.875 3.953125-8.828124 8.828125-8.828124s8.828125 3.953124 8.828125 8.828124v17.65625c0 4.875-3.953125 8.828126-8.828125 8.828126zm0 0"/><path d="m467.863281 211.863281c-4.875 0-8.828125-3.953125-8.828125-8.828125v-17.65625c0-4.875 3.953125-8.828125 8.828125-8.828125s8.828125 3.953125 8.828125 8.828125v17.65625c0 4.875-3.953125 8.828125-8.828125 8.828125zm0 0"/><path d="m70.621094 485.515625h-8.828125c-14.621094-.015625-26.464844-11.863281-26.484375-26.480469v-8.828125c0-4.875 3.953125-8.828125 8.828125-8.828125s8.828125 3.953125 8.828125 8.828125v8.828125c.007812 4.871094 3.957031 8.820313 8.828125 8.828125h8.828125c4.875 0 8.828125 3.949219 8.828125 8.828125 0 4.875-3.953125 8.824219-8.828125 8.824219zm0 0"/><path d="m123.585938 485.515625h-17.65625c-4.875 0-8.828126-3.949219-8.828126-8.824219 0-4.878906 3.953126-8.828125 8.828126-8.828125h17.65625c4.875 0 8.828124 3.949219 8.828124 8.828125 0 4.875-3.953124 8.824219-8.828124 8.824219zm0 0"/><path d="m44.136719 423.722656c-4.875 0-8.828125-3.949218-8.828125-8.824218v-17.65625c0-4.875 3.953125-8.828126 8.828125-8.828126s8.828125 3.953126 8.828125 8.828126v17.65625c0 4.875-3.953125 8.824218-8.828125 8.824218zm0 0"/><path d="m44.136719 370.757812c-4.875 0-8.828125-3.953124-8.828125-8.828124v-17.652344c0-4.875 3.953125-8.828125 8.828125-8.828125s8.828125 3.953125 8.828125 8.828125v17.652344c0 4.875-3.953125 8.828124-8.828125 8.828124zm0 0"/><path d="m450.207031 485.515625h-8.828125c-4.875 0-8.828125-3.949219-8.828125-8.824219 0-4.878906 3.953125-8.828125 8.828125-8.828125h8.828125c4.871094-.007812 8.820313-3.957031 8.828125-8.828125v-8.828125c0-4.875 3.953125-8.828125 8.828125-8.828125s8.828125 3.953125 8.828125 8.828125v8.828125c-.019531 14.617188-11.863281 26.464844-26.484375 26.480469zm0 0"/><path d="m406.070312 485.515625h-17.65625c-4.875 0-8.828124-3.949219-8.828124-8.824219 0-4.878906 3.953124-8.828125 8.828124-8.828125h17.65625c4.875 0 8.828126 3.949219 8.828126 8.828125 0 4.875-3.953126 8.824219-8.828126 8.824219zm0 0"/><path d="m467.863281 423.722656c-4.875 0-8.828125-3.949218-8.828125-8.824218v-17.65625c0-4.875 3.953125-8.828126 8.828125-8.828126s8.828125 3.953126 8.828125 8.828126v17.65625c0 4.875-3.953125 8.824218-8.828125 8.824218zm0 0"/><path d="m467.863281 370.757812c-4.875 0-8.828125-3.953124-8.828125-8.828124v-17.652344c0-4.875 3.953125-8.828125 8.828125-8.828125s8.828125 3.953125 8.828125 8.828125v17.652344c0 4.875-3.953125 8.828124-8.828125 8.828124zm0 0"/></g><path d="m88.277344 300.136719c0 24.378906-19.761719 44.140625-44.140625 44.140625-24.375 0-44.136719-19.761719-44.136719-44.140625 0-24.375 19.761719-44.136719 44.136719-44.136719 24.378906 0 44.140625 19.761719 44.140625 44.136719zm0 0" fill="#24ae5f"/><path d="m512 300.136719c0 24.378906-19.761719 44.140625-44.136719 44.140625-24.378906 0-44.140625-19.761719-44.140625-44.140625 0-24.375 19.761719-44.136719 44.140625-44.136719 24.375 0 44.136719 19.761719 44.136719 44.136719zm0 0" fill="#f0c419"/><path d="m300.136719 300.136719c0 24.378906-19.761719 44.140625-44.136719 44.140625s-44.136719-19.761719-44.136719-44.140625c0-24.375 19.761719-44.136719 44.136719-44.136719s44.136719 19.761719 44.136719 44.136719zm0 0" fill="#ff5364"/><path d="m150.070312 0h211.859376c4.875 0 8.828124 3.953125 8.828124 8.828125v158.894531c0 4.875-3.953124 8.828125-8.828124 8.828125h-211.859376c-4.875 0-8.828124-3.953125-8.828124-8.828125v-158.894531c0-4.875 3.953124-8.828125 8.828124-8.828125zm0 0" fill="#67b9cc"/><path d="m238.34375 44.136719h-61.792969c-4.875 0-8.828125-3.949219-8.828125-8.828125 0-4.875 3.953125-8.824219 8.828125-8.824219h61.792969c4.875 0 8.828125 3.949219 8.828125 8.824219 0 4.878906-3.953125 8.828125-8.828125 8.828125zm0 0" fill="#41767f"/><path d="m335.449219 79.449219h-158.898438c-4.875 0-8.828125-3.953125-8.828125-8.828125s3.953125-8.828125 8.828125-8.828125h158.898438c4.875 0 8.828125 3.953125 8.828125 8.828125s-3.953125 8.828125-8.828125 8.828125zm0 0" fill="#41767f"/><path d="m300.136719 114.757812h-123.585938c-4.875 0-8.828125-3.953124-8.828125-8.828124s3.953125-8.828126 8.828125-8.828126h123.585938c4.875 0 8.828125 3.953126 8.828125 8.828126s-3.953125 8.828124-8.828125 8.828124zm0 0" fill="#41767f"/><path d="m211.863281 150.070312h-35.3125c-4.875 0-8.828125-3.953124-8.828125-8.828124s3.953125-8.828126 8.828125-8.828126h35.3125c4.875 0 8.828125 3.953126 8.828125 8.828126s-3.953125 8.828124-8.828125 8.828124zm0 0" fill="#41767f"/><path d="m132.414062 423.722656h70.621094c4.875 0 8.828125 3.953125 8.828125 8.828125v70.621094c0 4.875-3.953125 8.828125-8.828125 8.828125h-70.621094c-4.875 0-8.828124-3.953125-8.828124-8.828125v-70.621094c0-4.875 3.953124-8.828125 8.828124-8.828125zm0 0" fill="#f0c419"/><path d="m379.585938 512h-70.621094c-4.875 0-8.828125-3.953125-8.828125-8.828125v-70.621094c0-4.875 3.953125-8.828125 8.828125-8.828125h70.621094c4.875 0 8.828124 3.953125 8.828124 8.828125v70.621094c0 4.875-3.953124 8.828125-8.828124 8.828125zm0 0" fill="#24ae5f"/></svg>