<svg height="512pt" viewBox="0 0 512 512.0074" width="512pt" xmlns="http://www.w3.org/2000/svg"><path d="m512.003906 423.722656c.019532 39.492188-26.203125 74.183594-64.203125 84.941406-37.996093 10.757813-78.511719-5.042968-99.195312-38.683593-8.644531-13.878907-13.203125-29.90625-13.152344-46.257813 0-48.75 39.519531-88.273437 88.273437-88.273437 48.753907 0 88.277344 39.523437 88.277344 88.273437zm0 0" fill="#24ae5f"/><path d="m8.832031 88.277344h26.480469v35.308594h-26.480469c-4.875 0-8.82812475-3.953126-8.82812475-8.828126v-17.65625c0-4.875 3.95312475-8.824218 8.82812475-8.824218zm0 0" fill="#bdc3c7"/><path d="m8.832031 158.898438h26.480469v35.308593h-26.480469c-4.875 0-8.82812475-3.953125-8.82812475-8.828125v-17.65625c0-4.875 3.95312475-8.824218 8.82812475-8.824218zm0 0" fill="#bdc3c7"/><path d="m192.445312 70.621094c-76.800781 47.050781-167.722656 156.425781-174.34375 411.1875-.328124-1.683594-.476562-3.402344-.441406-5.117188v-441.382812h42.019532c12.109374-.019532 23.191406 6.820312 28.601562 17.65625 5.40625 10.839844 16.488281 17.679687 28.601562 17.65625zm0 0" fill="#35495e"/><path d="m300.140625 35.308594v441.382812c.003906 9.363282-3.714844 18.347656-10.339844 24.96875-6.621093 6.625-15.605469 10.34375-24.96875 10.339844h-211.863281c-10.675781.023438-20.78125-4.816406-27.453125-13.152344-3.992187-4.890625-6.558594-10.785156-7.414063-17.039062 6.621094-254.761719 97.542969-364.136719 174.34375-411.1875h8.472657c12.113281.023437 23.195312-6.816406 28.601562-17.65625.234375-.460938.5-.902344.796875-1.324219 5.613282-10.089844 16.257813-16.34375 27.804688-16.332031zm0 0" fill="#2c3e50"/><path d="m300.140625 35.308594h-42.019531c-12.113282-.019532-23.191406 6.820312-28.601563 17.65625-5.40625 10.839844-16.488281 17.679687-28.601562 17.65625h-84.035157c-12.113281.023437-23.195312-6.816406-28.601562-17.65625-5.410156-10.835938-16.492188-17.675782-28.601562-17.65625h-42.019532c-.003906-9.363282 3.714844-18.347656 10.339844-24.96875 6.621094-6.625 15.605469-10.34375025 24.96875-10.339844h211.863281c9.363281-.00390625 18.347657 3.714844 24.96875 10.339844 6.625 6.621094 10.34375 15.605468 10.339844 24.96875zm0 0" fill="#2c2f38"/><path d="m279.621094 203.035156h-32.445313c-4.875 0-8.828125-3.953125-8.828125-8.828125s3.953125-8.828125 8.828125-8.828125h32.445313c.953125 0 1.898437-.152344 2.800781-.453125l50.238281-16.75c4.625-1.542969 9.625.957031 11.167969 5.582031s-.957031 9.625-5.582031 11.167969l-50.246094 16.75c-2.703125.898438-5.53125 1.359375-8.378906 1.359375zm0 0" fill="#f0c419"/><path d="m185.382812 485.515625h-132.414062c-4.875 0-8.828125-3.949219-8.828125-8.824219 0-4.878906 3.953125-8.828125 8.828125-8.828125h132.414062c4.875 0 8.828126 3.949219 8.828126 8.828125 0 4.875-3.953126 8.824219-8.828126 8.824219zm0 0" fill="#ecf0f1"/><path d="m141.246094 414.898438h-88.277344c-4.875 0-8.828125-3.953126-8.828125-8.828126s3.953125-8.828124 8.828125-8.828124h88.277344c4.875 0 8.828125 3.953124 8.828125 8.828124s-3.953125 8.828126-8.828125 8.828126zm0 0" fill="#ecf0f1"/><path d="m264.832031 450.207031h-211.863281c-4.875 0-8.828125-3.953125-8.828125-8.828125s3.953125-8.828125 8.828125-8.828125h211.863281c4.875 0 8.828125 3.953125 8.828125 8.828125s-3.953125 8.828125-8.828125 8.828125zm0 0" fill="#ecf0f1"/><path d="m310.644531 353.101562h-72.296875c-4.875 0-8.828125-3.949218-8.828125-8.824218s3.953125-8.828125 8.828125-8.828125h72.296875c4.539063.011719 8.34375-3.429688 8.789063-7.945313l7.300781-46.394531c.488281-3.113281 2.605469-5.730469 5.550781-6.863281 2.941406-1.132813 6.265625-.605469 8.71875 1.375 2.453125 1.984375 3.660156 5.125 3.167969 8.242187l-7.238281 45.894531c-1.496094 13.363282-12.839844 23.4375-26.289063 23.34375zm0 0" fill="#f0c419"/><path d="m335.453125 432.554688c-.949219 0-1.894531-.152344-2.792969-.457032l-50.246094-16.75c-.902343-.300781-1.84375-.453125-2.792968-.449218h-58.929688c-4.875 0-8.824218-3.953126-8.824218-8.828126s3.949218-8.828124 8.824218-8.828124h58.929688c2.84375 0 5.671875.457031 8.371094 1.355468l50.253906 16.75c4.113281 1.367188 6.628906 5.515625 5.933594 9.796875-.695313 4.277344-4.390626 7.417969-8.726563 7.410157zm0 0" fill="#ff5364"/><path d="m167.726562 35.308594c0 4.878906-3.949218 8.828125-8.828124 8.828125-4.875 0-8.824219-3.949219-8.824219-8.828125 0-4.875 3.949219-8.824219 8.824219-8.824219 4.878906 0 8.828124 3.949219 8.828124 8.824219zm0 0" fill="#bdc3c7"/><path d="m132.417969 35.308594c0 4.878906-3.953125 8.828125-8.828125 8.828125s-8.828125-3.949219-8.828125-8.828125c0-4.875 3.953125-8.824219 8.828125-8.824219s8.828125 3.949219 8.828125 8.824219zm0 0" fill="#bdc3c7"/><path d="m203.039062 35.308594c0 4.878906-3.953124 8.828125-8.828124 8.828125s-8.828126-3.949219-8.828126-8.828125c0-4.875 3.953126-8.824219 8.828126-8.824219s8.828124 3.949219 8.828124 8.824219zm0 0" fill="#bdc3c7"/><path d="m423.726562 335.449219v88.273437l-75.121093 46.257813c-8.644531-13.878907-13.203125-29.90625-13.152344-46.257813.015625-48.746094 39.527344-88.257812 88.273437-88.273437zm0 0" fill="#ff5364"/><path d="m423.726562 423.722656v88.277344c-30.648437.027344-59.105468-15.890625-75.121093-42.019531zm0 0" fill="#f0c419"/><path d="m97.105469 326.621094h123.585937c9.753906 0 17.65625 7.902344 17.65625 17.65625 0 9.75-7.902344 17.652344-17.65625 17.652344h-123.585937c-9.75 0-17.652344-7.902344-17.652344-17.652344 0-9.753906 7.902344-17.65625 17.652344-17.65625zm0 0" fill="#f0c419"/><path d="m247.175781 194.207031c.007813 24.519531-10.195312 47.933594-28.160156 64.617188-6.898437-27.585938-31.679687-46.945313-60.117187-46.960938 19.503906 0 35.3125-15.808593 35.3125-35.3125 0-19.5-15.808594-35.308593-35.3125-35.308593-19.5 0-35.308594 15.808593-35.308594 35.308593-.003906 9.367188 3.71875 18.347657 10.339844 24.972657 6.621093 6.621093 15.605468 10.339843 24.96875 10.339843-28.445313-.011719-53.238282 19.359375-60.113282 46.960938-29.539062-27.480469-36.683594-71.496094-17.355468-106.910157 19.328124-35.414062 60.207031-53.214843 99.300781-43.242187 39.09375 9.976563 66.449219 45.1875 66.445312 85.535156zm0 0" fill="#f0c419"/><path d="m194.210938 176.550781c0 19.503907-15.808594 35.3125-35.3125 35.3125-19.5 0-35.308594-15.808593-35.308594-35.3125 0-19.5 15.808594-35.308593 35.308594-35.308593 19.503906 0 35.3125 15.808593 35.3125 35.308593zm0 0" fill="#e57e25"/><path d="m219.015625 258.824219c-.265625.265625-.527344.441406-.792969.707031-.3125.398438-.703125.726562-1.148437.972656-.992188.984375-2.054688 1.898438-3.179688 2.734375-.703125.53125-1.410156 1.148438-2.207031 1.675781h-.085938c-1.472656 1.277344-3.070312 2.402344-4.765624 3.355469-.707032.53125-1.503907.972657-2.207032 1.414063-1.589844.96875-3.179687 1.851562-4.855468 2.734375-2.742188 1.472656-5.570313 2.769531-8.476563 3.886719-1.148437.441406-2.292969.882812-3.441406 1.234374-2.652344.96875-5.367188 1.765626-8.121094 2.382813-1.324219.355469-2.648437.617187-3.886719.882813-1.394531.320312-2.808594.558593-4.234375.707031-1.371093.261719-2.757812.441406-4.148437.53125-2.828125.261719-5.652344.441406-8.566406.441406-2.910157 0-5.734376-.179687-8.5625-.441406-1.390626-.089844-2.777344-.269531-4.148438-.53125-1.425781-.148438-2.839844-.386719-4.234375-.707031-1.238281-.265626-2.5625-.527344-3.886719-.882813-2.753906-.617187-5.46875-1.414063-8.121094-2.382813-1.148437-.351562-2.292968-.792968-3.355468-1.234374-2.945313-1.078126-5.808594-2.375-8.5625-3.886719-1.675782-.882813-3.265625-1.765625-4.855469-2.734375-.703125-.441406-1.5-.882813-2.207031-1.414063-1.695313-.953125-3.292969-2.078125-4.765625-3.355469h-.089844c-.792969-.527343-1.5-1.144531-2.203125-1.675781-1.125-.835937-2.1875-1.75-3.179688-2.734375-.445312-.246094-.835937-.574218-1.148437-.972656-.265625-.265625-.527344-.441406-.792969-.707031 6.882813-27.597657 31.671875-46.960938 60.113282-46.960938 28.445312 0 53.234374 19.363281 60.117187 46.960938zm0 0" fill="#e57e25"/><path d="m335.453125 211.863281h167.722656c4.875 0 8.828125 3.949219 8.828125 8.828125v52.964844c0 4.875-3.953125 8.828125-8.828125 8.828125h-176.550781v-61.792969c0-4.878906 3.953125-8.828125 8.828125-8.828125zm0 0" fill="#f0c419"/><path d="m450.210938 256h-79.449219c-4.875 0-8.828125-3.953125-8.828125-8.828125s3.953125-8.828125 8.828125-8.828125h79.449219c4.875 0 8.828124 3.953125 8.828124 8.828125s-3.953124 8.828125-8.828124 8.828125zm0 0" fill="#e57e25"/><path d="m335.453125 0h167.722656c4.875 0 8.828125 3.953125 8.828125 8.828125v167.722656c0 4.875-3.953125 8.828125-8.828125 8.828125h-176.550781v-176.550781c0-4.875 3.953125-8.828125 8.828125-8.828125zm0 0" fill="#f0c419"/><g fill="#f29c1f"><path d="m476.691406 44.136719h-105.929687c-4.875 0-8.828125-3.949219-8.828125-8.828125 0-4.875 3.953125-8.824219 8.828125-8.824219h105.929687c4.878906 0 8.828125 3.949219 8.828125 8.824219 0 4.878906-3.949219 8.828125-8.828125 8.828125zm0 0"/><path d="m397.246094 79.449219h-26.484375c-4.875 0-8.828125-3.953125-8.828125-8.828125s3.953125-8.828125 8.828125-8.828125h26.484375c4.875 0 8.828125 3.953125 8.828125 8.828125s-3.953125 8.828125-8.828125 8.828125zm0 0"/><path d="m441.382812 114.757812h-70.621093c-4.875 0-8.828125-3.953124-8.828125-8.828124s3.953125-8.828126 8.828125-8.828126h70.621093c4.875 0 8.828126 3.953126 8.828126 8.828126s-3.953126 8.828124-8.828126 8.828124zm0 0"/><path d="m414.898438 150.070312h-44.136719c-4.875 0-8.828125-3.953124-8.828125-8.828124s3.953125-8.828126 8.828125-8.828126h44.136719c4.878906 0 8.828124 3.953126 8.828124 8.828126s-3.949218 8.828124-8.828124 8.828124zm0 0"/></g></svg>