<svg height="512pt" viewBox="0 0 512 512" width="512pt" xmlns="http://www.w3.org/2000/svg"><path d="m512 52.964844v441.378906c-.027344 9.738281-7.917969 17.628906-17.65625 17.65625h-476.6875c-9.738281-.027344-17.6289062-7.917969-17.65625-17.65625v-441.378906zm0 0" fill="#e6e7e8"/><path d="m512 17.65625v52.964844h-512v-52.964844c.0273438-9.738281 7.917969-17.6289062 17.65625-17.65625h476.6875c9.738281.0273438 17.628906 7.917969 17.65625 17.65625zm0 0" fill="#547580"/><path d="m44.136719 35.308594c0 4.878906-3.949219 8.828125-8.828125 8.828125-4.875 0-8.824219-3.949219-8.824219-8.828125 0-4.875 3.949219-8.824219 8.824219-8.824219 4.878906 0 8.828125 3.949219 8.828125 8.824219zm0 0" fill="#cc4b4c"/><path d="m79.449219 35.308594c0 4.878906-3.953125 8.828125-8.828125 8.828125s-8.828125-3.949219-8.828125-8.828125c0-4.875 3.953125-8.824219 8.828125-8.824219s8.828125 3.949219 8.828125 8.824219zm0 0" fill="#f0c419"/><path d="m114.757812 35.308594c0 4.878906-3.953124 8.828125-8.828124 8.828125s-8.828126-3.949219-8.828126-8.828125c0-4.875 3.953126-8.824219 8.828126-8.824219s8.828124 3.949219 8.828124 8.824219zm0 0" fill="#71c285"/><path d="m256 485.515625c-95.375 0-158.898438-58.542969-158.898438-344.273437 0-4.875 3.953126-8.828126 8.828126-8.828126s8.828124 3.953126 8.828124 8.828126c0 301.378906 72.90625 326.621093 141.242188 326.621093s141.242188-25.242187 141.242188-326.621093c0-4.875 3.953124-8.828126 8.828124-8.828126s8.828126 3.953126 8.828126 8.828126c0 285.730468-63.523438 344.273437-158.898438 344.273437zm0 0" fill="#e64c3c"/><g fill="#464f5d"><path d="m379.265625 388.414062h-17.335937c-4.875 0-8.828126-3.953124-8.828126-8.828124s3.953126-8.828126 8.828126-8.828126h17.335937c4.878906 0 8.828125 3.953126 8.828125 8.828126s-3.949219 8.828124-8.828125 8.828124zm0 0"/><path d="m326.621094 388.414062h-17.65625c-4.875 0-8.828125-3.953124-8.828125-8.828124s3.953125-8.828126 8.828125-8.828126h17.65625c4.875 0 8.828125 3.953126 8.828125 8.828126s-3.953125 8.828124-8.828125 8.828124zm0 0"/><path d="m273.65625 388.414062h-17.65625c-4.875 0-8.828125-3.953124-8.828125-8.828124s3.953125-8.828126 8.828125-8.828126h17.65625c4.875 0 8.828125 3.953126 8.828125 8.828126s-3.953125 8.828124-8.828125 8.828124zm0 0"/><path d="m220.691406 388.414062h-17.65625c-4.875 0-8.828125-3.953124-8.828125-8.828124s3.953125-8.828126 8.828125-8.828126h17.65625c4.875 0 8.824219 3.953126 8.824219 8.828126s-3.949219 8.828124-8.824219 8.828124zm0 0"/><path d="m167.722656 388.414062h-79.445312c-4.875 0-8.828125-3.953124-8.828125-8.828124s3.953125-8.828126 8.828125-8.828126h79.445312c4.875 0 8.828125 3.953126 8.828125 8.828126s-3.953125 8.828124-8.828125 8.828124zm0 0"/><path d="m379.585938 485.515625c-4.875 0-8.828126-3.949219-8.828126-8.824219v-35.3125c0-4.875 3.953126-8.828125 8.828126-8.828125s8.828124 3.953125 8.828124 8.828125v35.3125c0 4.875-3.953124 8.824219-8.828124 8.824219zm0 0"/><path d="m52.964844 247.171875h-17.65625c-4.875 0-8.824219-3.953125-8.824219-8.828125s3.949219-8.828125 8.824219-8.828125h17.65625c4.875 0 8.828125 3.953125 8.828125 8.828125s-3.953125 8.828125-8.828125 8.828125zm0 0"/><path d="m52.964844 211.863281h-17.65625c-4.875 0-8.824219-3.953125-8.824219-8.828125s3.949219-8.828125 8.824219-8.828125h17.65625c4.875 0 8.828125 3.953125 8.828125 8.828125s-3.953125 8.828125-8.828125 8.828125zm0 0"/><path d="m52.964844 282.484375h-17.65625c-4.875 0-8.824219-3.953125-8.824219-8.828125s3.949219-8.828125 8.824219-8.828125h17.65625c4.875 0 8.828125 3.953125 8.828125 8.828125s-3.953125 8.828125-8.828125 8.828125zm0 0"/><path d="m52.964844 317.792969h-17.65625c-4.875 0-8.824219-3.953125-8.824219-8.828125s3.949219-8.828125 8.824219-8.828125h17.65625c4.875 0 8.828125 3.953125 8.828125 8.828125s-3.953125 8.828125-8.828125 8.828125zm0 0"/><path d="m52.964844 353.101562h-17.65625c-4.875 0-8.824219-3.949218-8.824219-8.824218s3.949219-8.828125 8.824219-8.828125h17.65625c4.875 0 8.828125 3.953125 8.828125 8.828125s-3.953125 8.824218-8.828125 8.824218zm0 0"/><path d="m52.964844 388.414062h-17.65625c-4.875 0-8.824219-3.953124-8.824219-8.828124s3.949219-8.828126 8.824219-8.828126h17.65625c4.875 0 8.828125 3.953126 8.828125 8.828126s-3.953125 8.828124-8.828125 8.828124zm0 0"/><path d="m52.964844 423.722656h-17.65625c-4.875 0-8.824219-3.949218-8.824219-8.824218 0-4.878907 3.949219-8.828126 8.824219-8.828126h17.65625c4.875 0 8.828125 3.949219 8.828125 8.828126 0 4.875-3.953125 8.824218-8.828125 8.824218zm0 0"/></g><path d="m176.550781 114.757812h158.898438c4.875 0 8.828125 3.953126 8.828125 8.828126v35.3125c0 4.875-3.953125 8.824218-8.828125 8.824218h-158.898438c-4.875 0-8.828125-3.949218-8.828125-8.824218v-35.3125c0-4.875 3.953125-8.828126 8.828125-8.828126zm0 0" fill="#3b97d3"/><path d="m344.277344 211.863281h-176.554688c-4.875 0-8.824218-3.953125-8.824218-8.828125s3.949218-8.828125 8.824218-8.828125h176.554688c4.875 0 8.824218 3.953125 8.824218 8.828125s-3.949218 8.828125-8.824218 8.828125zm0 0" fill="#464f5d"/><path d="m203.035156 247.171875h-35.3125c-4.875 0-8.824218-3.953125-8.824218-8.828125s3.949218-8.828125 8.824218-8.828125h35.3125c4.875 0 8.828125 3.953125 8.828125 8.828125s-3.953125 8.828125-8.828125 8.828125zm0 0" fill="#464f5d"/><path d="m264.828125 282.484375h-97.105469c-4.875 0-8.824218-3.953125-8.824218-8.828125s3.949218-8.828125 8.824218-8.828125h97.105469c4.875 0 8.828125 3.953125 8.828125 8.828125s-3.953125 8.828125-8.828125 8.828125zm0 0" fill="#464f5d"/><path d="m476.691406 485.515625h-441.382812c-4.875 0-8.824219-3.949219-8.824219-8.824219v-370.761718c0-3.570313 2.148437-6.785157 5.449219-8.152344 3.296875-1.367188 7.09375-.609375 9.617187 1.914062l26.484375 26.480469c3.34375 3.464844 3.296875 8.96875-.109375 12.375-3.402343 3.40625-8.910156 3.453125-12.375.109375l-11.414062-11.414062v340.621093h411.242187l-11.414062-11.414062c-3.34375-3.464844-3.296875-8.972657.109375-12.375 3.402343-3.40625 8.910156-3.453125 12.375-.109375l26.480469 26.484375c2.523437 2.523437 3.28125 6.320312 1.914062 9.617187-1.367188 3.300782-4.585938 5.449219-8.152344 5.449219zm0 0" fill="#464f5d"/></svg>