<svg height="504pt" viewBox="0 0 504 504.36339" width="504pt" xmlns="http://www.w3.org/2000/svg"><path d="m503.503906 69.421875v407.867187c.035156-6.910156-2.71875-13.542968-7.636718-18.398437l-61.351563-61.351563c-1.621094-1.625-3.824219-2.539062-6.121094-2.539062-2.292969 0-4.496093.914062-6.117187 2.539062l-24.558594 24.558594c-1.625 1.621094-2.539062 3.820313-2.539062 6.117188 0 2.292968.914062 4.496094 2.539062 6.117187l61.355469 61.351563c4.851562 4.917968 11.484375 7.671875 18.394531 7.636718h-459.929688c-9.574218-.027343-17.328124-7.78125-17.355468-17.355468v-416.542969zm0 0" fill="#e6e7e8"/><path d="m366.675781 391.015625 24.546875-24.542969 37.542969 37.542969-24.546875 24.546875zm0 0" fill="#bdc3c7"/><path d="m346.246094 382.628906 14.65625 14.886719c3.390625 3.390625 8.882812 3.390625 12.273437 0l24.542969-24.542969c1.628906-1.628906 2.542969-3.835937 2.542969-6.136718 0-2.300782-.914063-4.507813-2.542969-6.136719l-16.496094-16.65625zm0 0" fill="#2c3e50"/><path d="m179.902344 368.988281-24.644532 43.214844c-1.199218 2.078125-3.214843 3.554687-5.554687 4.078125-2.324219.613281-4.800781.167969-6.769531-1.214844l-69.769532-46.425781-55.28125 117.324219-6.507812 13.886718c-.632812 1.386719-1.621094 2.585938-2.863281 3.46875-4.652344-.191406-8.324219-4.019531-8.328125-8.675781v-11.800781l17.355468-36.882812 44.167969-93.894532c1.105469-2.261718 3.128907-3.933594 5.550781-4.601562 2.425782-.664063 5.019532-.25 7.121094 1.128906l70.378906 46.859375 20.042969-35.058594c1.148438-2.003906 3.046875-3.46875 5.28125-4.074219 2.230469-.601562 4.609375-.289062 6.609375.863282 2.007813 1.125 3.476563 3.007812 4.082032 5.230468.601562 2.21875.289062 4.585938-.871094 6.574219zm0 0" fill="#ff5364"/><path d="m468.792969 147.527344c-4.792969 0-8.679688-3.886719-8.679688-8.679688v-26.035156h-26.035156c-4.789063 0-8.675781-3.882812-8.675781-8.675781s3.886718-8.679688 8.675781-8.679688h34.714844c4.792969 0 8.675781 3.886719 8.675781 8.679688v34.710937c0 4.792969-3.882812 8.679688-8.675781 8.679688zm0 0" fill="#ff5364"/><g fill="#464f5d"><path d="m34.894531 381.832031c-.015625 4.785157-3.890625 8.664063-8.679687 8.675781h-17.355469v-17.355468h17.355469c4.789062.015625 8.664062 3.890625 8.679687 8.679687zm0 0"/><path d="m34.894531 347.117188c-.015625 4.789062-3.890625 8.664062-8.679687 8.679687h-17.355469v-17.355469h17.355469c4.789062.011719 8.664062 3.890625 8.679687 8.675782zm0 0"/><path d="m34.894531 312.40625c-.015625 4.789062-3.890625 8.664062-8.679687 8.679688h-17.355469v-17.355469h17.355469c4.789062.011719 8.664062 3.890625 8.679687 8.675781zm0 0"/><path d="m34.894531 277.695312c-.015625 4.785157-3.890625 8.664063-8.679687 8.675782h-17.355469v-17.355469h17.355469c4.789062.015625 8.664062 3.890625 8.679687 8.679687zm0 0"/><path d="m34.894531 242.984375c-.015625 4.785156-3.890625 8.664063-8.679687 8.675781h-17.355469v-17.355468h17.355469c4.789062.015624 8.664062 3.890624 8.679687 8.679687zm0 0"/><path d="m34.894531 208.269531c-.015625 4.789063-3.890625 8.664063-8.679687 8.679688h-17.355469v-17.355469h17.355469c4.789062.011719 8.664062 3.890625 8.679687 8.675781zm0 0"/><path d="m34.894531 173.558594c-.015625 4.789062-3.890625 8.664062-8.679687 8.679687h-17.355469v-17.355469h17.355469c4.789062.011719 8.664062 3.890626 8.679687 8.675782zm0 0"/><path d="m34.894531 138.847656c-.015625 4.785156-3.890625 8.664063-8.679687 8.679688h-17.355469v-17.359375h17.355469c4.789062.015625 8.664062 3.890625 8.679687 8.679687zm0 0"/><path d="m34.894531 104.136719c-.015625 4.785156-3.890625 8.664062-8.679687 8.675781h-17.355469v-17.355469h17.355469c4.789062.015625 8.664062 3.890625 8.679687 8.679688zm0 0"/><path d="m139.027344 477.289062v17.355469h-17.355469v-17.355469c0-4.792968 3.886719-8.679687 8.679687-8.679687 4.792969 0 8.675782 3.886719 8.675782 8.679687zm0 0"/><path d="m173.742188 477.289062v17.355469h-17.355469v-17.355469c0-4.792968 3.882812-8.679687 8.675781-8.679687s8.679688 3.886719 8.679688 8.679687zm0 0"/><path d="m208.453125 477.289062v17.355469h-17.355469v-17.355469c0-4.792968 3.882813-8.679687 8.675782-8.679687 4.792968 0 8.679687 3.886719 8.679687 8.679687zm0 0"/><path d="m243.164062 477.289062v17.355469h-17.355468v-17.355469c0-4.792968 3.886718-8.679687 8.679687-8.679687s8.675781 3.886719 8.675781 8.679687zm0 0"/><path d="m277.875 477.289062v17.355469h-17.355469v-17.355469c0-4.792968 3.886719-8.679687 8.679688-8.679687s8.675781 3.886719 8.675781 8.679687zm0 0"/><path d="m312.589844 477.289062v17.355469h-17.355469v-17.355469c0-4.792968 3.882813-8.679687 8.675781-8.679687 4.792969 0 8.679688 3.886719 8.679688 8.679687zm0 0"/><path d="m347.300781 477.289062v17.355469h-17.355469v-17.355469c0-4.792968 3.882813-8.679687 8.675782-8.679687 4.792968 0 8.679687 3.886719 8.679687 8.679687zm0 0"/><path d="m382.011719 477.289062v17.355469h-17.355469v-17.355469c0-4.792968 3.886719-8.679687 8.679688-8.679687 4.789062 0 8.675781 3.886719 8.675781 8.679687zm0 0"/><path d="m69.605469 286.371094h-17.355469c-4.792969 0-8.679688-3.882813-8.679688-8.675782 0-4.792968 3.886719-8.679687 8.679688-8.679687h17.355469c4.792969 0 8.679687 3.886719 8.679687 8.679687 0 4.792969-3.886718 8.675782-8.679687 8.675782zm0 0"/><path d="m139.027344 286.371094h-34.710938c-4.792968 0-8.675781-3.882813-8.675781-8.675782 0-4.792968 3.882813-8.679687 8.675781-8.679687h34.710938c4.792968 0 8.679687 3.886719 8.679687 8.679687 0 4.792969-3.886719 8.675782-8.679687 8.675782zm0 0"/><path d="m269.199219 459.933594c-4.792969 0-8.679688-3.886719-8.679688-8.679688v-43.390625c0-4.792969 3.886719-8.675781 8.679688-8.675781s8.675781 3.882812 8.675781 8.675781v43.390625c0 4.792969-3.882812 8.679688-8.675781 8.679688zm0 0"/></g><path d="m399.390625 277.695312c0 71.890626-58.28125 130.167969-130.171875 130.167969s-130.167969-58.277343-130.167969-130.167969c0-71.890624 58.277344-130.167968 130.167969-130.167968s130.171875 58.277344 130.171875 130.167968zm0 0" fill="#285680"/><path d="m324.21875 199.765625c-21.183594 6.75-41.441406 16.109375-60.3125 27.859375-16.929688 10.378906-32.152344 23.316406-45.125 38.355469-12.984375 15.082031-22.945312 32.523437-29.332031 51.371093-1.042969 2.777344-1.910157 5.640626-2.691407 8.507813-.347656-.609375-.695312-1.304687-1.042968-1.910156-21.617188-38.921875-13.4375-87.621094 19.710937-117.34375 33.148438-29.722657 82.449219-32.558594 118.792969-6.839844zm0 0" fill="#b0d3f0"/><path d="m364.65625 277.695312c.003906 37.617188-22.089844 71.726563-56.417969 87.109376-34.324219 15.386718-74.488281 9.171874-102.5625-15.863282-3.417969-3.03125-6.609375-6.308594-9.546875-9.804687-3.519531-4.132813-6.65625-8.578125-9.371094-13.277344.78125-2.867187 1.648438-5.730469 2.691407-8.507813 6.386719-18.847656 16.347656-36.289062 29.332031-51.371093 12.972656-15.039063 28.195312-27.976563 45.125-38.355469 18.871094-11.75 39.128906-21.109375 60.3125-27.859375 5.636719 3.921875 10.816406 8.464844 15.445312 13.539063 2.167969 2.335937 4.195313 4.800781 6.074219 7.375 3.628907 4.792968 6.769531 9.941406 9.371094 15.359374 6.324219 12.972657 9.589844 27.222657 9.546875 41.65625zm0 0" fill="#90bae1"/><path d="m475.039062 110.125-119.929687 125.914062-53.628906 56.320313c-1.785157 1.851563-4.289063 2.835937-6.855469 2.691406-2.578125-.1875-4.9375-1.527343-6.421875-3.644531l-35.578125-49.726562-54.238281 95.027343c-.539063.980469-1.316407 1.816407-2.257813 2.429688-3.519531-4.132813-6.65625-8.578125-9.371094-13.277344-.347656-.609375-.695312-1.304687-1.042968-1.910156l3.734375-6.597657 29.332031-51.371093 25.511719-44.691407c1.503906-2.539062 4.171875-4.164062 7.117187-4.339843 2.953125-.175781 5.785156 1.207031 7.460938 3.644531l5.035156 7.03125 32.28125 45.125 49.550781-52.070312 116.804688-122.53125c3.308593-3.453126 8.785156-3.566407 12.238281-.261719 3.449219 3.308593 3.566406 8.785156.257812 12.238281zm0 0" fill="#ff5364"/><path d="m486.148438 495.683594c-.015626 4.789062-3.890626 8.664062-8.679688 8.679687l-468.609375-1.042969h-.347656c-4.652344-.191406-8.324219-4.019531-8.328125-8.675781v-442.578125c0-4.792968 3.882812-8.675781 8.675781-8.675781s8.679687 3.882813 8.679687 8.675781v433.898438h.34375l459.585938 1.042968c4.789062.011719 8.664062 3.890626 8.679688 8.675782zm0 0" fill="#464f5d"/><path d="m452.933594 415.933594-3.917969 35.050781-32.878906 1.746094-18.394531-18.398438c-1.625-1.621093-2.539063-3.824219-2.539063-6.117187 0-2.296875.914063-4.496094 2.539063-6.117188l24.558593-24.558594c1.621094-1.625 3.820313-2.539062 6.117188-2.539062s4.496093.914062 6.117187 2.539062zm0 0" fill="#2c3e50"/><path d="m495.890625 495.683594c-10.167969 10.152344-26.632813 10.152344-36.796875 0l-42.957031-42.953125 36.796875-36.796875 42.957031 42.957031c10.148437 10.164063 10.148437 26.628906 0 36.792969zm0 0" fill="#285680"/><path d="m503.503906 17.355469v52.066406h-503.320312v-52.066406c.027344-9.574219 7.78125-17.3281252 17.355468-17.355469h468.609376c9.574218.0273438 17.328124 7.78125 17.355468 17.355469zm0 0" fill="#547580"/><path d="m43.570312 34.710938c0 4.792968-3.882812 8.679687-8.675781 8.679687s-8.679687-3.886719-8.679687-8.679687c0-4.792969 3.886718-8.675782 8.679687-8.675782s8.675781 3.882813 8.675781 8.675782zm0 0" fill="#cc4b4c"/><path d="m78.285156 34.710938c0 4.792968-3.886718 8.679687-8.679687 8.679687s-8.679688-3.886719-8.679688-8.679687c0-4.792969 3.886719-8.675782 8.679688-8.675782s8.679687 3.882813 8.679687 8.675782zm0 0" fill="#f0c419"/><path d="m112.996094 34.710938c0 4.792968-3.886719 8.679687-8.679688 8.679687-4.792968 0-8.675781-3.886719-8.675781-8.679687 0-4.792969 3.882813-8.675782 8.675781-8.675782 4.792969 0 8.679688 3.882813 8.679688 8.675782zm0 0" fill="#71c285"/></svg>