<svg height="512pt" viewBox="0 0 512 512" width="512pt" xmlns="http://www.w3.org/2000/svg"><path d="m317.792969 476.691406h-35.308594c-14.621094-.019531-26.46875-11.863281-26.484375-26.484375v-61.792969c0-4.875 3.953125-8.828124 8.828125-8.828124s8.828125 3.953124 8.828125 8.828124v61.792969c.003906 4.875 3.953125 8.824219 8.828125 8.828125h35.308594c4.875 0 8.828125 3.953125 8.828125 8.828125s-3.953125 8.828125-8.828125 8.828125zm0 0" fill="#464f5d"/><path d="m406.070312 247.171875h-35.3125c-4.875 0-8.828124-3.953125-8.828124-8.828125s3.953124-8.828125 8.828124-8.828125h35.3125c4.875 0 8.828126 3.953125 8.828126 8.828125s-3.953126 8.828125-8.828126 8.828125zm0 0" fill="#464f5d"/><path d="m370.765625 97.101562c-4.09375.007813-7.65625-2.808593-8.597656-6.792968-.945313-3.984375.976562-8.097656 4.640625-9.929688l35.3125-17.65625c4.359375-2.179687 9.664062-.410156 11.84375 3.949219 2.179687 4.359375.414062 9.664063-3.949219 11.84375l-35.308594 17.65625c-1.222656.613281-2.570312.933594-3.941406.929687zm0 0" fill="#464f5d"/><path d="m141.242188 148.597656h229.515624v161.839844h-229.515624zm0 0" fill="#955ba5"/><path d="m273.65625 70.621094h79.445312c9.742188.027344 17.628907 7.914062 17.65625 17.65625v88.273437h-229.515624v-88.273437c.027343-9.742188 7.914062-17.628906 17.65625-17.65625zm0 0" fill="#894b9d"/><path d="m370.757812 282.484375v88.273437c-.027343 9.738282-7.914062 17.628907-17.65625 17.65625h-194.203124c-9.742188-.027343-17.628907-7.917968-17.65625-17.65625v-88.273437zm0 0" fill="#894b9d"/><path d="m211.863281 123.585938c0 9.75-7.90625 17.65625-17.65625 17.65625s-17.65625-7.90625-17.65625-17.65625 7.90625-17.65625 17.65625-17.65625 17.65625 7.90625 17.65625 17.65625zm0 0" fill="#f29c1f"/><path d="m335.449219 114.757812h-44.140625c-4.875 0-8.824219-3.953124-8.824219-8.828124s3.949219-8.828126 8.824219-8.828126h44.140625c4.875 0 8.828125 3.953126 8.828125 8.828126s-3.953125 8.828124-8.828125 8.828124zm0 0" fill="#955ba5"/><path d="m317.792969 150.070312h-70.621094c-4.875 0-8.828125-3.953124-8.828125-8.828124s3.953125-8.828126 8.828125-8.828126h70.621094c4.875 0 8.828125 3.953126 8.828125 8.828126s-3.953125 8.828124-8.828125 8.828124zm0 0" fill="#955ba5"/><path d="m211.863281 229.515625c0 9.753906-7.90625 17.65625-17.65625 17.65625s-17.65625-7.902344-17.65625-17.65625c0-9.75 7.90625-17.652344 17.65625-17.652344s17.65625 7.902344 17.65625 17.652344zm0 0" fill="#f0c419"/><path d="m282.484375 220.691406h-35.3125c-4.875 0-8.828125-3.953125-8.828125-8.828125s3.953125-8.828125 8.828125-8.828125h35.3125c4.875 0 8.824219 3.953125 8.824219 8.828125s-3.949219 8.828125-8.824219 8.828125zm0 0" fill="#b49aca"/><path d="m335.449219 256h-88.277344c-4.875 0-8.828125-3.953125-8.828125-8.828125s3.953125-8.828125 8.828125-8.828125h88.277344c4.875 0 8.828125 3.953125 8.828125 8.828125s-3.953125 8.828125-8.828125 8.828125zm0 0" fill="#b49aca"/><path d="m211.863281 335.449219c0 9.75-7.90625 17.652343-17.65625 17.652343s-17.65625-7.902343-17.65625-17.652343 7.90625-17.65625 17.65625-17.65625 17.65625 7.90625 17.65625 17.65625zm0 0" fill="#f29c1f"/><path d="m308.964844 326.621094h-61.792969c-4.875 0-8.828125-3.953125-8.828125-8.828125s3.953125-8.828125 8.828125-8.828125h61.792969c4.875 0 8.828125 3.953125 8.828125 8.828125s-3.953125 8.828125-8.828125 8.828125zm0 0" fill="#955ba5"/><path d="m282.484375 361.929688h-35.3125c-4.875 0-8.828125-3.949219-8.828125-8.828126 0-4.875 3.953125-8.824218 8.828125-8.824218h35.3125c4.875 0 8.824219 3.949218 8.824219 8.824218 0 4.878907-3.949219 8.828126-8.824219 8.828126zm0 0" fill="#955ba5"/><path d="m335.449219 361.929688h-17.65625c-4.875 0-8.828125-3.949219-8.828125-8.828126 0-4.875 3.953125-8.824218 8.828125-8.824218h17.65625c4.875 0 8.828125 3.949218 8.828125 8.824218 0 4.878907-3.953125 8.828126-8.828125 8.828126zm0 0" fill="#955ba5"/><path d="m326.621094 423.722656h176.550781c4.875 0 8.828125 3.953125 8.828125 8.828125v70.621094c0 4.875-3.953125 8.828125-8.828125 8.828125h-176.550781c-4.875 0-8.828125-3.953125-8.828125-8.828125v-70.621094c0-4.875 3.953125-8.828125 8.828125-8.828125zm0 0" fill="#ff5364"/><path d="m476.691406 485.515625h-25.113281c-7.863281.007813-15.65625-1.492187-22.953125-4.421875l-25.1875-10.078125c-5.214844-2.085937-10.777344-3.160156-16.394531-3.152344h-33.941407c-4.875 0-8.824218-3.953125-8.824218-8.828125s3.949218-8.828125 8.824218-8.828125h33.941407c7.863281-.007812 15.65625 1.492188 22.953125 4.421875l25.1875 10.078125c5.214844 2.089844 10.777344 3.160157 16.394531 3.15625h25.113281c4.875 0 8.824219 3.949219 8.824219 8.828125 0 4.875-3.949219 8.824219-8.824219 8.824219zm0 0" fill="#fb7b76"/><path d="m414.898438 176.550781h88.273437c4.875 0 8.828125 3.953125 8.828125 8.828125v123.585938c0 4.875-3.953125 8.828125-8.828125 8.828125h-88.273437c-4.878907 0-8.828126-3.953125-8.828126-8.828125v-123.585938c0-4.875 3.949219-8.828125 8.828126-8.828125zm0 0" fill="#ff5364"/><path d="m476.691406 220.691406h-35.3125c-4.875 0-8.828125-3.953125-8.828125-8.828125s3.953125-8.828125 8.828125-8.828125h35.3125c4.875 0 8.824219 3.953125 8.824219 8.828125s-3.949219 8.828125-8.824219 8.828125zm0 0" fill="#fb7b76"/><path d="m459.035156 256h-17.65625c-4.875 0-8.828125-3.953125-8.828125-8.828125s3.953125-8.828125 8.828125-8.828125h17.65625c4.875 0 8.828125 3.953125 8.828125 8.828125s-3.953125 8.828125-8.828125 8.828125zm0 0" fill="#fb7b76"/><path d="m476.691406 291.308594h-35.3125c-4.875 0-8.828125-3.949219-8.828125-8.824219 0-4.878906 3.953125-8.828125 8.828125-8.828125h35.3125c4.875 0 8.824219 3.949219 8.824219 8.828125 0 4.875-3.949219 8.824219-8.824219 8.824219zm0 0" fill="#fb7b76"/><path d="m414.898438 0h88.273437c4.875 0 8.828125 3.953125 8.828125 8.828125v123.585937c0 4.875-3.953125 8.828126-8.828125 8.828126h-88.273437c-4.878907 0-8.828126-3.953126-8.828126-8.828126v-123.585937c0-4.875 3.949219-8.828125 8.828126-8.828125zm0 0" fill="#ff5364"/><path d="m476.691406 44.136719h-35.3125c-4.875 0-8.828125-3.949219-8.828125-8.828125 0-4.875 3.953125-8.824219 8.828125-8.824219h35.3125c4.875 0 8.824219 3.949219 8.824219 8.824219 0 4.878906-3.949219 8.828125-8.824219 8.828125zm0 0" fill="#fb7b76"/><path d="m459.035156 79.449219h-17.65625c-4.875 0-8.828125-3.953125-8.828125-8.828125s3.953125-8.828125 8.828125-8.828125h17.65625c4.875 0 8.828125 3.953125 8.828125 8.828125s-3.953125 8.828125-8.828125 8.828125zm0 0" fill="#fb7b76"/><path d="m476.691406 114.757812h-35.3125c-4.875 0-8.828125-3.953124-8.828125-8.828124s3.953125-8.828126 8.828125-8.828126h35.3125c4.875 0 8.824219 3.953126 8.824219 8.828126s-3.949219 8.828124-8.824219 8.828124zm0 0" fill="#fb7b76"/><path d="m229.515625 388.414062v105.929688c-.027344 9.738281-7.914063 17.628906-17.652344 17.65625h-194.207031c-9.738281-.027344-17.6289062-7.917969-17.65625-17.65625v-423.722656h158.898438c-9.742188.027344-17.628907 7.914062-17.65625 17.65625v282.480468c.027343 9.738282 7.914062 17.628907 17.65625 17.65625zm0 0" fill="#e6e7e8"/><g fill="#547580"><path d="m229.515625 17.65625v52.964844h-229.515625v-52.964844c.0273438-9.738281 7.917969-17.6289062 17.65625-17.65625h194.207031c9.738281.0273438 17.625 7.917969 17.652344 17.65625zm0 0"/><path d="m105.929688 123.585938h-70.621094c-4.875 0-8.824219-3.953126-8.824219-8.828126s3.949219-8.828124 8.824219-8.828124h70.621094c4.875 0 8.828124 3.953124 8.828124 8.828124s-3.953124 8.828126-8.828124 8.828126zm0 0"/><path d="m61.792969 158.898438h-26.484375c-4.875 0-8.824219-3.953126-8.824219-8.828126s3.949219-8.828124 8.824219-8.828124h26.484375c4.875 0 8.828125 3.953124 8.828125 8.828124s-3.953125 8.828126-8.828125 8.828126zm0 0"/><path d="m88.277344 194.207031h-52.96875c-4.875 0-8.824219-3.953125-8.824219-8.828125s3.949219-8.828125 8.824219-8.828125h52.96875c4.875 0 8.824218 3.953125 8.824218 8.828125s-3.949218 8.828125-8.824218 8.828125zm0 0"/><path d="m105.929688 229.515625h-70.621094c-4.875 0-8.824219-3.949219-8.824219-8.824219 0-4.878906 3.949219-8.828125 8.824219-8.828125h70.621094c4.875 0 8.828124 3.949219 8.828124 8.828125 0 4.875-3.953124 8.824219-8.828124 8.824219zm0 0"/><path d="m61.792969 264.828125h-26.484375c-4.875 0-8.824219-3.953125-8.824219-8.828125s3.949219-8.828125 8.824219-8.828125h26.484375c4.875 0 8.828125 3.953125 8.828125 8.828125s-3.953125 8.828125-8.828125 8.828125zm0 0"/><path d="m105.929688 300.136719h-70.621094c-4.875 0-8.824219-3.949219-8.824219-8.828125 0-4.875 3.949219-8.824219 8.824219-8.824219h70.621094c4.875 0 8.828124 3.949219 8.828124 8.824219 0 4.878906-3.953124 8.828125-8.828124 8.828125zm0 0"/><path d="m70.621094 335.449219h-35.3125c-4.875 0-8.824219-3.953125-8.824219-8.828125s3.949219-8.828125 8.824219-8.828125h35.3125c4.875 0 8.828125 3.953125 8.828125 8.828125s-3.953125 8.828125-8.828125 8.828125zm0 0"/><path d="m105.929688 370.757812h-70.621094c-4.875 0-8.824219-3.953124-8.824219-8.828124s3.949219-8.828126 8.824219-8.828126h70.621094c4.875 0 8.828124 3.953126 8.828124 8.828126s-3.953124 8.828124-8.828124 8.828124zm0 0"/><path d="m61.792969 406.070312h-26.484375c-4.875 0-8.824219-3.953124-8.824219-8.828124s3.949219-8.828126 8.824219-8.828126h26.484375c4.875 0 8.828125 3.953126 8.828125 8.828126s-3.953125 8.828124-8.828125 8.828124zm0 0"/><path d="m194.207031 441.378906h-158.898437c-4.875 0-8.824219-3.953125-8.824219-8.828125s3.949219-8.828125 8.824219-8.828125h158.898437c4.875 0 8.828125 3.953125 8.828125 8.828125s-3.953125 8.828125-8.828125 8.828125zm0 0"/><path d="m132.414062 476.691406h-97.105468c-4.875 0-8.824219-3.953125-8.824219-8.828125s3.949219-8.828125 8.824219-8.828125h97.105468c4.875 0 8.828126 3.953125 8.828126 8.828125s-3.953126 8.828125-8.828126 8.828125zm0 0"/></g><path d="m44.136719 35.308594c0 4.878906-3.949219 8.828125-8.828125 8.828125-4.875 0-8.824219-3.949219-8.824219-8.828125 0-4.875 3.949219-8.824219 8.824219-8.824219 4.878906 0 8.828125 3.949219 8.828125 8.824219zm0 0" fill="#cc4b4c"/><path d="m79.449219 35.308594c0 4.878906-3.953125 8.828125-8.828125 8.828125s-8.828125-3.949219-8.828125-8.828125c0-4.875 3.953125-8.824219 8.828125-8.824219s8.828125 3.949219 8.828125 8.824219zm0 0" fill="#f0c419"/><path d="m114.757812 35.308594c0 4.878906-3.953124 8.828125-8.828124 8.828125s-8.828126-3.949219-8.828126-8.828125c0-4.875 3.953126-8.824219 8.828126-8.824219s8.828124 3.949219 8.828124 8.824219zm0 0" fill="#71c285"/></svg>