<svg height="512pt" viewBox="0 0 512 512" width="512pt" xmlns="http://www.w3.org/2000/svg"><path d="m353.101562 97.101562h123.589844c9.75 0 17.652344 7.90625 17.652344 17.65625v317.792969h-476.6875v-317.792969c0-9.75 7.902344-17.65625 17.652344-17.65625zm0 0" fill="#7f8c8d"/><path d="m459.035156 141.242188v291.308593h-406.070312c0-276.65625 345.070312-298.28125 399.007812-299.960937 4.113282.832031 7.070313 4.453125 7.0625 8.652344zm0 0" fill="#90bae1"/><path d="m451.972656 132.589844c-53.9375 1.679687-399.007812 23.304687-399.007812 299.960937v-291.308593c.015625-4.871094 3.957031-8.8125 8.828125-8.828126h388.414062c.59375.011719 1.183594.070313 1.765625.175782zm0 0" fill="#b0d3f0"/><path d="m512 441.378906v35.3125c.003906 9.363282-3.714844 18.347656-10.339844 24.96875-6.621094 6.625-15.605468 10.34375-24.96875 10.339844h-441.382812c-9.363282.003906-18.347656-3.714844-24.96875-10.339844-6.625-6.621094-10.34375025-15.605468-10.339844-24.96875v-35.3125c.015625-4.867187 3.957031-8.8125 8.828125-8.828125h494.34375c4.871094.015625 8.8125 3.960938 8.828125 8.828125zm0 0" fill="#95a5a5"/><path d="m315.707031 467.863281h-119.414062c-6.6875 0-12.804688-3.78125-15.792969-9.761719l-12.777344-25.550781h176.554688l-12.777344 25.550781c-2.988281 5.980469-9.105469 9.761719-15.792969 9.761719zm0 0" fill="#bdc3c7"/><path d="m114.757812 467.863281c-.011718 4.867188-3.957031 8.8125-8.828124 8.828125h-105.929688v-17.65625h105.929688c4.871093.011719 8.816406 3.957032 8.828124 8.828125zm0 0" fill="#7f8c8d"/><path d="m150.070312 476.691406h-8.828124c-4.875 0-8.828126-3.953125-8.828126-8.828125s3.953126-8.828125 8.828126-8.828125h8.828124c4.875 0 8.828126 3.953125 8.828126 8.828125s-3.953126 8.828125-8.828126 8.828125zm0 0" fill="#7f8c8d"/><path d="m512 459.035156v17.65625h-105.929688c-4.875 0-8.828124-3.953125-8.828124-8.828125s3.953124-8.828125 8.828124-8.828125zm0 0" fill="#7f8c8d"/><path d="m370.757812 476.691406h-8.828124c-4.875 0-8.828126-3.953125-8.828126-8.828125s3.953126-8.828125 8.828126-8.828125h8.828124c4.875 0 8.828126 3.953125 8.828126 8.828125s-3.953126 8.828125-8.828126 8.828125zm0 0" fill="#7f8c8d"/><path d="m361.929688 105.929688c0 58.503906-47.425782 105.933593-105.929688 105.933593s-105.929688-47.429687-105.929688-105.933593c0-58.503907 47.425782-105.929688 105.929688-105.929688s105.929688 47.425781 105.929688 105.929688zm0 0" fill="#f0c419"/><path d="m229.515625 176.550781c-4.875 0-8.824219-3.953125-8.824219-8.828125v-123.585937c0-4.875 3.949219-8.828125 8.824219-8.828125 4.878906 0 8.828125 3.953125 8.828125 8.828125v123.585937c0 4.875-3.949219 8.828125-8.828125 8.828125zm0 0" fill="#e57e25"/><path d="m264.828125 105.929688h-52.964844c-4.875 0-8.828125-3.949219-8.828125-8.828126 0-4.875 3.953125-8.824218 8.828125-8.824218h52.964844c4.875 0 8.828125-3.953125 8.828125-8.828125s-3.953125-8.828125-8.828125-8.828125h-52.964844c-4.875 0-8.828125-3.953125-8.828125-8.828125s3.953125-8.828125 8.828125-8.828125h52.964844c14.625 0 26.480469 11.855468 26.480469 26.484375 0 14.625-11.855469 26.480469-26.480469 26.480469zm0 0" fill="#e57e25"/><path d="m273.65625 158.898438h-61.792969c-4.875 0-8.828125-3.953126-8.828125-8.828126s3.953125-8.828124 8.828125-8.828124h61.792969c9.75 0 17.652344-7.90625 17.652344-17.65625s-7.902344-17.65625-17.652344-17.65625h-52.964844c-4.878906 0-8.828125-3.949219-8.828125-8.828126 0-4.875 3.949219-8.824218 8.828125-8.824218h52.964844c19.5 0 35.308594 15.808594 35.308594 35.308594s-15.808594 35.3125-35.308594 35.3125zm0 0" fill="#e57e25"/><path d="m264.828125 70.621094c-4.875 0-8.828125-3.953125-8.828125-8.828125v-17.65625c0-4.875 3.953125-8.828125 8.828125-8.828125s8.828125 3.953125 8.828125 8.828125v17.65625c0 4.875-3.953125 8.828125-8.828125 8.828125zm0 0" fill="#e57e25"/><path d="m264.828125 176.550781c-4.875 0-8.828125-3.953125-8.828125-8.828125v-17.652344c0-4.875 3.953125-8.828124 8.828125-8.828124s8.828125 3.953124 8.828125 8.828124v17.652344c0 4.875-3.953125 8.828125-8.828125 8.828125zm0 0" fill="#e57e25"/><path d="m88.277344 406.070312c-4.875 0-8.828125-3.953124-8.828125-8.828124v-123.585938c0-4.875 3.953125-8.828125 8.828125-8.828125s8.824218 3.953125 8.824218 8.828125v123.585938c0 4.875-3.949218 8.828124-8.824218 8.828124zm0 0"/><path d="m361.929688 353.101562v44.140626h-114.757813v-44.140626l-.085937-.261718c3.992187-.773438 7.335937-3.488282 8.914062-7.238282l12.269531-37.960937c2.007813-4.734375 6.75-7.71875 11.890625-7.484375 5.136719.238281 9.585938 3.644531 11.148438 8.542969l10.152344 29.925781c1.417968 4.421875 5.195312 7.671875 9.777343 8.417969 4.582031.742187 9.195313-1.144531 11.941407-4.886719l2.382812-3.175781c2.300781-3.164063 5.976562-5.03125 9.886719-5.03125 3.910156 0 7.585937 1.867187 9.886719 5.03125l6.089843 8.207031c2.421875 3.300781 6.324219 5.1875 10.417969 5.03125zm0 0" fill="#ff5364"/><path d="m247.171875 353.101562v44.140626h-158.894531c17.457031-31.773438 32.617187-64.757813 45.371094-98.691407 2.234374-4.960937 7.453124-7.867187 12.847656-7.15625 5.390625.710938 9.675781 4.875 10.546875 10.242188l6.089843 32.3125c.804688 4.949219 4.535157 8.914062 9.425782 10.019531s9.964844-.867188 12.820312-4.988281l14.476563-24.71875c2.421875-3.488281 6.472656-5.480469 10.710937-5.261719 4.242188.214844 8.070313 2.605469 10.125 6.320312l13.238282 31.425782c2.535156 4.738281 7.902343 7.226562 13.15625 6.09375zm0 0" fill="#f0c419"/><path d="m423.722656 353.101562v44.140626h-61.792968v-44.140626l-.085938-.882812c3.980469-.207031 7.621094-2.308594 9.796875-5.648438l13.507813-23.214843c2.320312-3.585938 6.339843-5.703125 10.609374-5.597657 4.269532.109376 8.171876 2.429688 10.3125 6.125zm0 0" fill="#2fa8cc"/><g fill="#464f5d"><path d="m423.722656 282.484375h-105.929687c-4.875 0-8.828125-3.953125-8.828125-8.828125s3.953125-8.828125 8.828125-8.828125h105.929687c4.875 0 8.828125 3.953125 8.828125 8.828125s-3.953125 8.828125-8.828125 8.828125zm0 0"/><path d="m423.722656 247.171875h-70.621094c-4.875 0-8.824218-3.953125-8.824218-8.828125s3.949218-8.828125 8.824218-8.828125h70.621094c4.875 0 8.828125 3.953125 8.828125 8.828125s-3.953125 8.828125-8.828125 8.828125zm0 0"/><path d="m423.722656 211.863281h-61.792968c-4.875 0-8.828126-3.953125-8.828126-8.828125s3.953126-8.828125 8.828126-8.828125h61.792968c4.875 0 8.828125 3.953125 8.828125 8.828125s-3.953125 8.828125-8.828125 8.828125zm0 0"/><path d="m423.722656 176.550781h-35.308594c-4.875 0-8.828124-3.953125-8.828124-8.828125s3.953124-8.824218 8.828124-8.824218h35.308594c4.875 0 8.828125 3.949218 8.828125 8.824218s-3.953125 8.828125-8.828125 8.828125zm0 0"/><path d="m123.585938 176.550781h-35.308594c-4.875 0-8.828125-3.953125-8.828125-8.828125s3.953125-8.824218 8.828125-8.824218h35.308594c4.875 0 8.828124 3.949218 8.828124 8.824218s-3.953124 8.828125-8.828124 8.828125zm0 0"/><path d="m150.070312 211.863281h-61.792968c-4.875 0-8.828125-3.953125-8.828125-8.828125s3.953125-8.828125 8.828125-8.828125h61.792968c4.875 0 8.828126 3.953125 8.828126 8.828125s-3.953126 8.828125-8.828126 8.828125zm0 0"/><path d="m185.378906 247.171875h-97.101562c-4.875 0-8.828125-3.953125-8.828125-8.828125s3.953125-8.828125 8.828125-8.828125h97.101562c4.875 0 8.828125 3.953125 8.828125 8.828125s-3.953125 8.828125-8.828125 8.828125zm0 0"/></g><path d="m423.722656 406.070312h-335.445312c-4.875 0-8.828125-3.953124-8.828125-8.828124v-123.585938c0-4.875 3.953125-8.828125 8.828125-8.828125s8.824218 3.953125 8.824218 8.828125v114.757812h326.621094c4.875 0 8.828125 3.953126 8.828125 8.828126s-3.953125 8.828124-8.828125 8.828124zm0 0" fill="#2c3e50"/></svg>