<svg height="512pt" viewBox="0 0 512 512" width="512pt" xmlns="http://www.w3.org/2000/svg"><path d="m132.414062 476.691406c-22.417968-.039062-42.390624-14.179687-49.875-35.3125l-20.746093-8.828125-15.875 8.828125c2.632812 12.8125 8.09375 24.878906 15.984375 35.3125l26.375 8.824219zm0 0" fill="#95a5a5"/><path d="m220.691406 388.414062h138.117188l109.054687-109.054687v-270.53125c0-4.875-3.953125-8.828125-8.828125-8.828125h-247.171875c-4.875 0-8.828125 3.953125-8.828125 8.828125v177.484375zm0 0" fill="#f9eab0"/><path d="m203.035156 300.136719h70.621094v35.3125h-70.621094zm0 0" fill="#3f5c6c"/><path d="m512 344.277344c0 10.769531-19.125 17.660156-23.011719 27.027344-4.027343 9.710937 4.472657 28.074218-2.84375 35.390624-7.320312 7.320313-25.679687-1.179687-35.390625 2.847657-9.367187 3.882812-16.261718 23.007812-27.03125 23.007812-10.769531 0-17.660156-19.125-27.027344-23.007812-9.710937-4.027344-28.074218 4.472656-35.390624-2.847657-7.320313-7.316406 1.179687-25.679687-2.847657-35.390624-3.882812-9.367188-23.007812-16.257813-23.007812-27.027344 0-10.769532 19.125-17.664063 23.007812-27.03125 4.027344-9.710938-4.472656-28.070313 2.847657-35.390625 7.316406-7.320313 25.679687 1.183593 35.390624-2.84375 9.367188-3.886719 16.257813-23.011719 27.027344-23.011719 10.769532 0 17.664063 19.125 27.03125 23.011719 9.710938 4.027343 28.070313-4.472657 35.390625 2.84375 7.320313 7.320312-1.183593 25.679687 2.84375 35.390625 3.886719 9.367187 23.011719 16.261718 23.011719 27.03125zm0 0" fill="#e64c3c"/><path d="m459.035156 344.277344c0 19.5-15.808594 35.308594-35.3125 35.308594-19.5 0-35.308594-15.808594-35.308594-35.308594 0-19.503906 15.808594-35.3125 35.308594-35.3125 19.503906 0 35.3125 15.808594 35.3125 35.3125zm0 0" fill="#f0c419"/><path d="m473.449219 409.707031c-7.484375-1.5-15.1875-1.558593-22.695313-.164062-9.15625 3.792969-15.96875 22.15625-26.332031 22.980469l18.292969 76.375c.347656 1.449218 1.460937 2.589843 2.902344 2.96875 1.441406.378906 2.972656-.066407 3.984374-1.160157l11.296876-15.25c2.550781-3.445312 7.207031-4.558593 11.042968-2.640625l16.96875 8.488282c1.398438.515624 2.964844.222656 4.078125-.765626 1.109375-.988281 1.589844-2.511718 1.242188-3.957031zm0 0" fill="#802f34"/><path d="m396.695312 409.539062c-7.507812-1.390624-15.210937-1.332031-22.695312.167969l-20.78125 86.875c-.347656 1.445313.132812 2.96875 1.246094 3.957031 1.113281.988282 2.679687 1.28125 4.074218.765626l16.972657-8.488282c3.832031-1.917968 8.488281-.804687 11.042969 2.640625l11.292968 15.25c1.011719 1.09375 2.542969 1.539063 3.984375 1.160157 1.441407-.378907 2.554688-1.519532 2.902344-2.96875l18.292969-76.375c-10.363282-.824219-17.175782-19.1875-26.332032-22.984376zm0 0" fill="#802f34"/><path d="m35.308594 300.136719h52.96875v61.792969c0 4.875-3.953125 8.828124-8.828125 8.828124h-35.3125c-4.875 0-8.828125-3.953124-8.828125-8.828124zm0 0" fill="#67b9cc"/><path d="m35.308594 0h52.96875c4.875 0 8.824218 3.953125 8.824218 8.828125v61.792969h-70.617187v-61.792969c0-4.875 3.949219-8.828125 8.824219-8.828125zm0 0" fill="#67b9cc"/><path d="m8.828125 406.070312h105.929687c4.875 0 8.828126 3.949219 8.828126 8.828126v17.652343c0 4.875-3.953126 8.828125-8.828126 8.828125h-105.929687c-4.875 0-8.828125-3.953125-8.828125-8.828125v-17.652343c0-4.878907 3.953125-8.828126 8.828125-8.828126zm0 0" fill="#41767f"/><path d="m158.898438 167.722656h-26.484376v35.3125h26.484376c14.625 0 26.480468 11.855469 26.480468 26.480469v194.207031c-.03125 29.238282-23.726562 52.933594-52.964844 52.96875l44.136719 17.652344 26.3125-17.652344c11.558594-15.242187 17.820313-33.839844 17.828125-52.96875v-194.207031c0-34.125-27.667968-61.792969-61.792968-61.792969zm0 0" fill="#95a5a5"/><path d="m97.101562 132.414062h35.3125c9.75 0 17.65625 7.902344 17.65625 17.65625v70.621094c0 9.75-7.90625 17.652344-17.65625 17.652344h-35.3125zm0 0" fill="#67b9cc"/><path d="m273.65625 273.65625c9.75 0 17.652344 7.902344 17.652344 17.652344v52.96875c0 9.75-7.902344 17.652344-17.652344 17.652344s-17.65625-7.902344-17.65625-17.652344v-52.96875c0-9.75 7.90625-17.652344 17.65625-17.652344zm0 0" fill="#67b9cc"/><g fill="#464f5d"><path d="m247.171875 35.308594h176.550781c4.875 0 8.828125 3.953125 8.828125 8.828125v17.65625c0 4.875-3.953125 8.828125-8.828125 8.828125h-176.550781c-4.875 0-8.828125-3.953125-8.828125-8.828125v-17.65625c0-4.875 3.953125-8.828125 8.828125-8.828125zm0 0"/><path d="m388.414062 114.757812h-150.070312c-4.875 0-8.828125-3.953124-8.828125-8.828124s3.953125-8.828126 8.828125-8.828126h150.070312c4.875 0 8.828126 3.953126 8.828126 8.828126s-3.953126 8.828124-8.828126 8.828124zm0 0"/><path d="m273.65625 150.070312h-35.3125c-4.875 0-8.828125-3.953124-8.828125-8.828124s3.953125-8.828126 8.828125-8.828126h35.3125c4.875 0 8.828125 3.953126 8.828125 8.828126s-3.953125 8.828124-8.828125 8.828124zm0 0"/><path d="m388.414062 185.378906h-150.070312c-4.875 0-8.828125-3.953125-8.828125-8.828125s3.953125-8.828125 8.828125-8.828125h150.070312c4.875 0 8.828126 3.953125 8.828126 8.828125s-3.953126 8.828125-8.828126 8.828125zm0 0"/><path d="m432.550781 220.691406-176.550781-.011718c-4.875 0-8.828125-3.949219-8.828125-8.828126 0-4.875 3.953125-8.824218 8.828125-8.824218l176.550781.007812c4.875 0 8.828125 3.953125 8.828125 8.828125s-3.953125 8.828125-8.828125 8.828125zm0 0"/><path d="m388.414062 256h-79.449218c-4.875 0-8.828125-3.953125-8.828125-8.828125s3.953125-8.828125 8.828125-8.828125h79.449218c4.875 0 8.828126 3.953125 8.828126 8.828125s-3.953126 8.828125-8.828126 8.828125zm0 0"/></g><path d="m17.65625 52.964844h88.273438c4.875 0 8.828124 3.953125 8.828124 8.828125v247.171875c0 4.875-3.953124 8.828125-8.828124 8.828125h-88.273438c-4.875 0-8.828125-3.953125-8.828125-8.828125v-247.171875c0-4.875 3.953125-8.828125 8.828125-8.828125zm0 0" fill="#41767f"/><path d="m8.828125 256h105.929687v17.65625h-105.929687zm0 0" fill="#3f5c6c"/><path d="m35.308594 476.691406h194.207031c4.878906 0 8.828125 3.949219 8.828125 8.824219v17.65625c0 4.875-3.949219 8.828125-8.828125 8.828125h-194.207031c-4.875 0-8.824219-3.953125-8.824219-8.828125v-17.65625c0-4.875 3.949219-8.824219 8.824219-8.824219zm0 0" fill="#67b9cc"/></svg>