<svg height="511pt" viewBox="0 0 511.99781 511" width="511pt" xmlns="http://www.w3.org/2000/svg"><path d="m441.378906 291.804688c.011719 80.8125-44.152344 155.167968-115.121094 193.816406-70.96875 38.652344-157.390624 35.414062-225.269531-8.4375-8.308593-5.296875-16.214843-11.195313-23.65625-17.652344-6.53125-5.472656-12.695312-11.371094-18.449219-17.65625-5.226562-5.621094-10.144531-11.511719-14.742187-17.65625-4.316406-5.667969-8.320313-11.558594-12.007813-17.652344-3.515624-5.710937-6.730468-11.605468-9.621093-17.65625-2.902344-5.730468-5.46875-11.625-7.679688-17.65625-2.316406-5.773437-4.320312-11.664062-6.003906-17.65625-1.765625-5.734375-3.175781-11.652344-4.414063-17.652344-1.148437-5.828124-2.117187-11.742187-2.734374-17.65625-1.136719-8.78125-1.6992192-17.628906-1.679688-26.484374-.0078125-58.53125 23.242188-114.671876 64.628906-156.058594 41.390625-41.390625 97.527344-64.636719 156.0625-64.628906v220.6875zm0 0" fill="#ff5364"/><path d="m220.691406 71.117188v220.6875h-220.691406c-.0078125-58.53125 23.242188-114.671876 64.628906-156.058594 41.390625-41.390625 97.527344-64.636719 156.0625-64.628906zm0 0" fill="#24ae5f"/><path d="m220.691406 291.804688v220.691406c-42.480468.074218-84.066406-12.195313-119.703125-35.3125-8.308593-5.296875-16.214843-11.195313-23.65625-17.652344-6.53125-5.472656-12.695312-11.371094-18.449219-17.65625-5.226562-5.621094-10.144531-11.511719-14.742187-17.65625-4.316406-5.667969-8.320313-11.558594-12.007813-17.652344-3.515624-5.710937-6.730468-11.605468-9.621093-17.65625-2.902344-5.730468-5.46875-11.625-7.679688-17.65625-2.316406-5.773437-4.320312-11.664062-6.003906-17.65625-1.765625-5.734375-3.175781-11.652344-4.414063-17.652344-1.148437-5.828124-2.117187-11.742187-2.734374-17.65625-1.136719-8.78125-1.6992192-17.628906-1.679688-26.484374zm0 0" fill="#90bae1"/><path d="m220.691406 459.53125v17.652344h-119.703125c-8.308593-5.296875-16.214843-11.195313-23.65625-17.652344zm0 0" fill="#b0d3f0"/><path d="m220.691406 424.21875v17.65625h-161.808594c-5.226562-5.621094-10.144531-11.511719-14.742187-17.65625zm0 0" fill="#b0d3f0"/><path d="m220.691406 388.910156h-198.179687c2.890625 6.050782 6.105469 11.945313 9.621093 17.65625h188.558594zm0 0" fill="#b0d3f0"/><path d="m220.691406 353.597656v17.65625h-205.859375c-2.316406-5.773437-4.320312-11.664062-6.003906-17.65625zm0 0" fill="#b0d3f0"/><path d="m220.691406 318.289062h-219.011718c.617187 5.914063 1.585937 11.828126 2.734374 17.65625h216.277344zm0 0" fill="#b0d3f0"/><path d="m97.105469 238.839844c-3.570313 0-6.789063-2.152344-8.15625-5.449219-1.363281-3.296875-.609375-7.09375 1.914062-9.617187l52.964844-52.96875c3.464844-3.34375 8.96875-3.296876 12.375.109374s3.453125 8.910157.109375 12.375l-52.96875 52.964844c-1.652344 1.660156-3.898438 2.589844-6.238281 2.585938zm0 0" fill="#7ed09e"/><path d="m158.898438 230.011719c0 4.875-3.953126 8.828125-8.828126 8.828125s-8.828124-3.953125-8.828124-8.828125 3.953124-8.828125 8.828124-8.828125 8.828126 3.953125 8.828126 8.828125zm0 0" fill="#7ed09e"/><path d="m105.933594 177.046875c0 4.875-3.953125 8.828125-8.828125 8.828125s-8.828125-3.953125-8.828125-8.828125 3.953125-8.828125 8.828125-8.828125 8.828125 3.953125 8.828125 8.828125zm0 0" fill="#7ed09e"/><path d="m339.089844 394.089844c-3.566406 0-6.785156-2.152344-8.152344-5.449219s-.609375-7.09375 1.914062-9.617187l26.492188-26.492188c1.648438-1.660156 2.578125-3.902344 2.589844-6.242188v-89.792968c0-4.875 3.949218-8.828125 8.824218-8.828125 4.878907 0 8.828126 3.953125 8.828126 8.828125v89.792968c.019531 7.027344-2.773438 13.769532-7.757813 18.722657l-26.492187 26.492187c-1.652344 1.660156-3.902344 2.589844-6.246094 2.585938zm0 0" fill="#804169"/><path d="m344.277344 397.738281c0 9.75-7.90625 17.652344-17.65625 17.652344s-17.65625-7.902344-17.65625-17.652344 7.90625-17.65625 17.65625-17.65625 17.65625 7.90625 17.65625 17.65625zm0 0" fill="#3d324c"/><path d="m511.996094 247.453125c-4.75-134.371094-112.582032-242.199219-246.953125-246.953125-2.382813-.050781-4.691407.859375-6.394531 2.53125-1.703126 1.671875-2.65625 3.960938-2.648438 6.347656v238.285156c0 4.878907 3.957031 8.832032 8.832031 8.832032h238.285157c2.386718.007812 4.675781-.945313 6.347656-2.648438s2.585937-4.007812 2.53125-6.394531zm0 0" fill="#ff5364"/><g fill="#fb7b76"><path d="m467.863281 230.011719h-176.550781c-4.875 0-8.828125-3.949219-8.828125-8.828125 0-4.875 3.953125-8.824219 8.828125-8.824219h176.550781c4.875 0 8.828125 3.949219 8.828125 8.824219 0 4.878906-3.953125 8.828125-8.828125 8.828125zm0 0"/><path d="m406.070312 194.703125h-114.757812c-4.875 0-8.828125-3.953125-8.828125-8.828125s3.953125-8.828125 8.828125-8.828125h114.757812c4.875 0 8.828126 3.953125 8.828126 8.828125s-3.953126 8.828125-8.828126 8.828125zm0 0"/><path d="m441.378906 159.390625h-150.066406c-4.875 0-8.828125-3.949219-8.828125-8.824219s3.953125-8.828125 8.828125-8.828125h150.066406c4.875 0 8.828125 3.953125 8.828125 8.828125s-3.953125 8.824219-8.828125 8.824219zm0 0"/><path d="m335.449219 124.082031h-44.136719c-4.875 0-8.828125-3.953125-8.828125-8.828125s3.953125-8.828125 8.828125-8.828125h44.136719c4.875 0 8.828125 3.953125 8.828125 8.828125s-3.953125 8.828125-8.828125 8.828125zm0 0"/><path d="m388.414062 88.773438h-97.101562c-4.875 0-8.828125-3.953126-8.828125-8.828126s3.953125-8.828124 8.828125-8.828124h97.101562c4.875 0 8.828126 3.953124 8.828126 8.828124s-3.953126 8.828126-8.828126 8.828126zm0 0"/><path d="m317.792969 53.460938h-26.480469c-4.875 0-8.828125-3.953126-8.828125-8.828126s3.953125-8.828124 8.828125-8.828124h26.480469c4.875 0 8.828125 3.953124 8.828125 8.828124s-3.953125 8.828126-8.828125 8.828126zm0 0"/></g></svg>