<svg height="512pt" viewBox="0 0 512 512.00186" width="512pt" xmlns="http://www.w3.org/2000/svg"><path d="m173.558594 485.96875c-1.164063-7.828125-7.078125-21.296875-8.675782-34.714844-14.671874 10.902344-30.644531 19.925782-47.554687 26.855469-2.972656 1.199219-6.15625 1.785156-9.359375 1.722656h-1.730469c-6.902343 0-13.523437 2.742188-18.40625 7.625l-7.1875 7.1875c-1.628906 1.628907-3.835937 17.355469-6.136719 17.355469h105.175782c-8.597656 0-4.855469-17.527344-6.125-26.03125zm0 0" fill="#3b97d3"/><path d="m329.761719 512s60.746093-26.03125 60.746093-78.101562c0 0 73.105469 16.246093 117.152344 40.878906 2.714844 1.550781 4.375 4.449218 4.339844 7.574218v20.972657c0 4.792969-3.882812 8.675781-8.675781 8.675781zm0 0" fill="#3b97d3"/><path d="m494.644531 260.339844c0 24.992187-82.699219 68.210937-86.433593 131.039062-10.953126 11.496094-17.261719 26.644532-17.703126 42.519532 0 52.070312-26.03125 78.101562-26.03125 78.101562h-184.753906c-8.609375.066406-15.945312-6.230469-17.183594-14.75-1.214843-7.8125-2.691406-18.570312-4.253906-32.023438 9.113282-7.808593 15.273438-13.972656 15.273438-13.972656h26.988281c5.019531.003906 9.898437-1.644531 13.886719-4.683594l13.015625-9.71875c9.011719-6.722656 11.898437-18.941406 6.855469-28.984374l6.855468-13.710938c1.203125-2.398438 1.828125-5.042969 1.824219-7.726562v-29.503907c-.007813-6.082031-3.203125-11.710937-8.417969-14.839843l-34.972656-21c8.167969-4.246094 16.953125-7.175782 26.035156-8.679688 19.148438 1.476562 37.992188 5.652344 55.972656 12.410156 3.882813 1.324219 8.144532.910156 11.699219-1.132812 3.558594-2.042969 6.058594-5.519532 6.871094-9.539063 1.125-6.875-2.660156-13.609375-9.113281-16.230469-17.613282-7.722656-50.070313-20.21875-74.109375-20.21875-2.863281 0-5.8125.085938-8.675781.175782-6.769532.257812-13.367188.78125-19.613282 1.472656-13.839844 1.511719-27.578125 3.859375-41.132812 7.03125v-26.035156c.660156-4.53125 2.191406-8.894532 4.511718-12.84375 3.902344-7.503906 8.191407-14.804688 12.84375-21.867188l-5.554687-22.214844c-1.765625-6.925781 1.820313-14.09375 8.417969-16.835937l1.824218-.78125c12.90625-5.410156 21.316407-18.027344 21.347657-32.023437v-10.585938c-.003907-8.480469 3.117187-16.667969 8.761719-22.996094 15.96875-18.050781 49.898437-55.191406 69.339843-68.121094l.085938-.089843c13.683593-5.832031 28.429687-8.757813 43.300781-8.589844 26.035156 0 112.816406 8.679687 112.816406 121.492187-.464844 15.648438-6.640625 30.589844-17.355468 42-9.980469 10.761719-2.777344 18.226563 8.675781 27.421876 4.6875 3.734374-1.820313 8.679687 3.644531 8.679687 7.082031-.007813 13.84375-2.960937 18.65625-8.15625 7.464844-8.070313 26.382812-9.199219 38.445312-9.199219 8.679688 0 17.355469 8.675782 17.355469 34.710938zm0 0" fill="#f9c795"/><path d="m512 190.917969c0 3.121093 0 6.160156-.171875 9.109375 0 1.648437-.085937 3.210937-.175781 4.773437-.34375 8.589844-1.039063 16.664063-2.082032 24.386719-.433593 3.558594-1.039062 7.113281-1.648437 10.5-.347656 1.996094-.695313 3.90625-1.039063 5.8125-1.957031 9.636719-4.59375 19.117188-7.898437 28.378906-.609375 1.734375-1.214844 3.382813-1.910156 5.117188-1.300781 3.300781-2.601563 6.511718-4.078125 9.632812-.695313 1.652344-1.386719 3.125-2.167969 4.6875-1.476563 3.125-3.039063 6.074219-4.6875 9.023438-.78125 1.304687-1.5625 2.691406-2.34375 3.992187-6.152344 10.429688-13.238281 20.277344-21.171875 29.417969-1.910156 2.171875-3.734375 4.253906-5.554688 6.25-4.859374 5.292969-9.632812 10.152344-14.40625 14.839844-1.824218 1.820312-3.730468 3.558594-5.554687 5.292968-2.777344 2.691407-5.464844 5.292969-8.15625 7.808594-.867187.871094-1.734375 1.738282-2.691406 2.605469-1.300781 1.300781-2.601563 2.515625-3.902344 3.816406-1.214844 1.214844-2.519531 2.429688-3.648437 3.644531-1.300782 1.304688-2.601563 2.605469-3.816407 3.90625-1.128906 1.128907-2.167969 2.34375-3.210937 3.472657-1.214844 1.300781-2.34375 2.601562-3.472656 3.992187 3.734374-62.828125 51.722656-80.011718 51.722656-105.003906 0-26.035156-8.679688-34.710938-17.355469-34.710938-11.644531.839844-22.417969 6.460938-29.765625 15.53125-4.816406 5.195313-11.574219 8.152344-18.660156 8.15625-10.027344-.035156-19.082032-6-23.070313-15.203124-3.988281-9.199219-2.152343-19.886719 4.675781-27.230469 11.367188-12.234375 23.429688-28.289063 23.429688-42 0-112.816407-60.746094-147.527344-86.78125-147.527344-14.871094-.167969-29.617188 2.757813-43.300781 8.589844 17.292969-26.394531 46.46875-42.585938 78.015625-43.300781 52.066406 0 164.878906 17.355468 164.878906 182.238281zm0 0" fill="#804537"/><path d="m8.671875 104.136719c-3.199219-.003907-6.136719-1.765625-7.644531-4.585938-1.507813-2.820312-1.34375-6.242187.429687-8.90625l34.714844-52.066406c2.65625-3.988281 8.046875-5.066406 12.03125-2.40625l20.117187 13.40625 29.675782-29.679687c1.628906-1.628907 3.835937-2.542969 6.136718-2.542969 2.300782 0 4.507813.914062 6.136719 2.542969l19.175781 19.179687 28.660157-35.824219c1.9375-2.417968 5.019531-3.621094 8.085937-3.1562498 3.066406.4687498 5.648438 2.5351558 6.777344 5.4257818 1.125 2.886718.628906 6.160156-1.3125 8.578124l-34.710938 43.390626c-1.542968 1.925781-3.832031 3.101562-6.296874 3.238281-2.460938.136719-4.867188-.78125-6.613282-2.527344l-19.898437-19.894531-28.578125 28.574218c-2.921875 2.929688-7.507813 3.382813-10.949219 1.085938l-18.8125-12.542969-29.898437 44.847657c-1.609376 2.417968-4.324219 3.867187-7.226563 3.863281zm0 0" fill="#ff5364"/><path d="m303.730469 373.152344h-60.746094c-4.792969 0-8.679687-3.882813-8.679687-8.675782 0-4.792968 3.886718-8.679687 8.679687-8.679687h60.746094c36.707031 0 52.359375-45.667969 52.511719-46.132813 1.515624-4.546874 6.433593-7.003906 10.980468-5.488281s7.003906 6.429688 5.484375 10.976563c-.785156 2.367187-19.894531 58-68.976562 58zm0 0" fill="#f09372"/><g fill="#464f5d"><path d="m173.558594 104.136719h-164.878906c-4.792969 0-8.679688-3.886719-8.679688-8.675781v-86.78125c0-4.792969 3.886719-8.679688 8.679688-8.679688 4.792968 0 8.675781 3.886719 8.675781 8.679688v78.101562h156.203125c4.792968 0 8.679687 3.886719 8.679687 8.679688 0 4.789062-3.886719 8.675781-8.679687 8.675781zm0 0"/><path d="m138.847656 156.203125h-130.167968c-4.792969 0-8.679688-3.882813-8.679688-8.675781 0-4.792969 3.886719-8.679688 8.679688-8.679688h130.167968c4.792969 0 8.679688 3.886719 8.679688 8.679688 0 4.792968-3.886719 8.675781-8.679688 8.675781zm0 0"/><path d="m52.070312 190.917969h-43.390624c-4.792969 0-8.679688-3.886719-8.679688-8.679688s3.886719-8.675781 8.679688-8.675781h43.390624c4.792969 0 8.675782 3.882812 8.675782 8.675781s-3.882813 8.679688-8.675782 8.679688zm0 0"/><path d="m112.816406 225.628906h-104.136718c-4.792969 0-8.679688-3.886718-8.679688-8.679687s3.886719-8.675781 8.679688-8.675781h104.136718c4.789063 0 8.675782 3.882812 8.675782 8.675781s-3.886719 8.679687-8.675782 8.679687zm0 0"/><path d="m86.78125 260.339844h-78.101562c-4.792969 0-8.679688-3.882813-8.679688-8.675782 0-4.792968 3.886719-8.679687 8.679688-8.679687h78.101562c4.792969 0 8.675781 3.886719 8.675781 8.679687 0 4.792969-3.882812 8.675782-8.675781 8.675782zm0 0"/></g><path d="m8.679688 438.441406c-.007813-2.8125 1.355468-5.453125 3.65625-7.074218 12.144531-8.597657 51.191406-37.746094 65.765624-66.890626l36.195313-72.390624c4.410156-8.816407 13.425781-14.390626 23.285156-14.390626h9.945313v8.679688c22.765625-5.359375 46.039062-8.265625 69.421875-8.679688 24.496093 0 57.636719 12.964844 75.023437 20.597657 6.71875 2.972656 10.066406 10.578125 7.722656 17.542969-1.191406 3.613281-3.78125 6.59375-7.1875 8.285156-3.40625 1.6875-7.351562 1.941406-10.945312.703125-17.960938-6.769531-36.796875-10.949219-55.933594-12.417969-9.082031 1.503906-17.867187 4.433594-26.035156 8.679688l34.964844 20.976562c5.226562 3.136719 8.425781 8.789062 8.425781 14.882812v29.46875c0 2.691407-.628906 5.351563-1.832031 7.761719l-6.847656 13.691407c5.027343 10.050781 2.144531 22.253906-6.84375 28.996093l-12.988282 9.742188c-4.023437 3.019531-8.917968 4.648437-13.949218 4.648437h-26.964844s-30.878906 30.878906-56.230469 41.671875c-2.972656 1.195313-6.15625 1.78125-9.359375 1.71875h-1.726562c-6.90625 0-13.527344 2.742188-18.410157 7.625l-7.1875 7.191407c-1.628906 1.625-3.835937 2.539062-6.136719 2.539062h-57.152343c-4.792969 0-8.675781-3.882812-8.675781-8.675781zm0 0" fill="#fdd7ad"/></svg>