<svg height="512pt" viewBox="-4 0 512 512" width="512pt" xmlns="http://www.w3.org/2000/svg"><path d="m147.527344 0h-130.171875c-9.585938 0-17.355469 7.769531-17.355469 17.355469v347.117187c0 9.585938 7.769531 17.359375 17.355469 17.359375h100.796875c15.679687-36.019531 34.207031-70.734375 55.40625-103.808593 6.160156-8.625 17.683594-11.476563 27.15625-6.71875l24.925781 15.066406c7.632813 4.289062 10.753906 13.671875 7.210937 21.675781-3.542968 8.003906-12.589843 12.003906-20.894531 9.234375l-21.042969-13.550781-26.03125 78.101562h52.066407c9.585937 0 17.355469-7.773437 17.355469-17.359375v-277.691406zm0 0" fill="#b0d3f0"/><path d="m416.542969 0h-130.171875c-9.582032 0-17.355469 7.769531-17.355469 17.355469v347.117187c0 9.585938 7.773437 17.359375 17.355469 17.359375h52.070312l-26.035156-78.101562-21.042969 13.550781c-8.300781 2.769531-17.347656-1.230469-20.894531-9.234375-3.542969-8.003906-.417969-17.386719 7.214844-21.675781l24.925781-15.066406c9.46875-4.757813 20.996094-1.90625 27.152344 6.71875 21.199219 33.074218 39.726562 67.789062 55.410156 103.808593h100.792969c9.585937 0 17.355468-7.773437 17.355468-17.359375v-277.691406zm0 0" fill="#b0d3f0"/><path d="m277.695312 433.898438h121.492188c4.792969 0 8.675781 3.886718 8.675781 8.679687 0 16.109375-6.398437 31.558594-17.789062 42.953125-11.394531 11.390625-26.84375 17.789062-42.957031 17.789062h-17.355469c-16.109375 0-31.5625-6.398437-42.953125-17.789062-11.390625-11.394531-17.792969-26.84375-17.792969-42.953125 0-4.792969 3.886719-8.679687 8.679687-8.679687zm0 0" fill="#67b9cc"/><path d="m104.136719 433.898438h121.492187c4.789063 0 8.675782 3.886718 8.675782 8.679687 0 16.109375-6.398438 31.558594-17.792969 42.953125-11.390625 11.390625-26.839844 17.789062-42.953125 17.789062h-17.355469c-16.109375 0-31.5625-6.398437-42.953125-17.789062-11.390625-11.394531-17.792969-26.84375-17.792969-42.953125 0-4.792969 3.886719-8.679687 8.679688-8.679687zm0 0" fill="#67b9cc"/><path d="m122.542969 501.460938c-3.09375-.003907-5.949219-1.652344-7.5-4.324219-1.550781-2.675781-1.558594-5.972657-.027344-8.65625l33.652344-58.886719c2.40625-4.105469 7.664062-5.507812 11.796875-3.148438 4.128906 2.359376 5.589844 7.601563 3.273437 11.757813l-33.65625 58.886719c-1.542969 2.707031-4.421875 4.378906-7.539062 4.371094zm0 0" fill="#e6e7e8"/><path d="m176.035156 468.609375c-3.09375-.003906-5.949218-1.652344-7.5-4.324219-1.550781-2.675781-1.558594-5.972656-.027344-8.65625l14.875-26.035156c2.402344-4.105469 7.660157-5.507812 11.792969-3.148438 4.128907 2.359376 5.589844 7.601563 3.273438 11.757813l-14.871094 26.035156c-1.546875 2.707031-4.425781 4.375-7.542969 4.371094zm0 0" fill="#e6e7e8"/><path d="m296.101562 501.460938c-3.089843-.003907-5.949218-1.652344-7.496093-4.324219-1.550781-2.675781-1.5625-5.972657-.027344-8.65625l33.648437-58.886719c2.40625-4.105469 7.664063-5.507812 11.796876-3.148438 4.128906 2.359376 5.589843 7.601563 3.273437 11.757813l-33.65625 58.886719c-1.542969 2.707031-4.421875 4.378906-7.539063 4.371094zm0 0" fill="#e6e7e8"/><path d="m349.59375 468.609375c-3.09375-.003906-5.949219-1.652344-7.5-4.324219-1.550781-2.675781-1.558594-5.972656-.027344-8.65625l14.875-26.035156c2.402344-4.105469 7.664063-5.507812 11.792969-3.148438 4.128906 2.359376 5.589844 7.601563 3.273437 11.757813l-14.871093 26.035156c-1.546875 2.707031-4.425781 4.375-7.542969 4.371094zm0 0" fill="#e6e7e8"/><path d="m225.640625 286.371094-24.925781-15.066406c-9.472656-4.757813-20.996094-1.90625-27.15625 6.71875-28.164063 39.460937-78.449219 149.632812-78.101563 164.554687 0-4.792969 3.886719-8.679687 8.679688-8.679687h43.390625l43.386718-130.167969 21.042969 13.550781c8.304688 2.765625 17.351563-1.230469 20.890625-9.234375 3.542969-8.003906.421875-17.386719-7.207031-21.675781zm0 0" fill="#2c3e50"/><path d="m277.683594 286.371094 24.925781-15.066406c9.46875-4.757813 20.996094-1.90625 27.152344 6.71875 28.167969 39.460937 78.449219 149.632812 78.101562 164.554687 0-4.792969-3.882812-8.679687-8.675781-8.679687h-43.390625l-43.390625-130.167969-21.042969 13.550781c-8.300781 2.765625-17.347656-1.230469-20.890625-9.234375-3.542968-8.003906-.421875-17.386719 7.210938-21.675781zm0 0" fill="#2c3e50"/><path d="m251.660156 485.964844c10.261719.183594 20.402344-2.203125 29.507813-6.941406-6.863281-9.109376-11-19.980469-11.929688-31.347657-11.230469 4.773438-23.917969 4.773438-35.148437 0-.933594 11.367188-5.070313 22.238281-11.933594 31.347657 9.101562 4.738281 19.246094 7.125 29.503906 6.941406zm0 0" fill="#2c3e50"/><path d="m147.527344 69.421875c0 9.585937 7.769531 17.359375 17.355468 17.359375h69.421876l-86.777344-86.78125zm0 0" fill="#90bae1"/><path d="m416.542969 69.421875c0 9.585937 7.769531 17.359375 17.355469 17.359375h69.421874l-86.777343-86.78125zm0 0" fill="#90bae1"/><path d="m312.40625 34.710938h60.746094c4.792968 0 8.679687 3.886718 8.679687 8.679687v17.355469c0 4.792968-3.886719 8.675781-8.679687 8.675781h-60.746094c-4.792969 0-8.675781-3.882813-8.675781-8.675781v-17.355469c0-4.792969 3.882812-8.679687 8.675781-8.679687zm0 0" fill="#547580"/><path d="m43.390625 34.710938h60.746094c4.792969 0 8.675781 3.886718 8.675781 8.679687v17.355469c0 4.792968-3.882812 8.675781-8.675781 8.675781h-60.746094c-4.792969 0-8.679687-3.882813-8.679687-8.675781v-17.355469c0-4.792969 3.886718-8.679687 8.679687-8.679687zm0 0" fill="#547580"/><path d="m43.390625 121.492188h147.523437c4.792969 0 8.679688 3.882812 8.679688 8.675781v34.714843c0 4.792969-3.886719 8.675782-8.679688 8.675782h-147.523437c-4.792969 0-8.679687-3.882813-8.679687-8.675782v-34.714843c0-4.792969 3.886718-8.675781 8.679687-8.675781zm0 0" fill="#3b97d3"/><g fill="#547580"><path d="m199.59375 216.949219h-164.882812c-4.792969 0-8.675782-3.886719-8.675782-8.679688s3.882813-8.675781 8.675782-8.675781h164.882812c4.792969 0 8.675781 3.882812 8.675781 8.675781s-3.882812 8.679688-8.675781 8.679688zm0 0"/><path d="m130.160156 251.660156h-95.449218c-4.792969 0-8.675782-3.882812-8.675782-8.675781s3.882813-8.679687 8.675782-8.679687h95.449218c4.792969 0 8.679688 3.886718 8.679688 8.679687s-3.886719 8.675781-8.679688 8.675781zm0 0"/><path d="m69.421875 286.371094h-34.710937c-4.792969 0-8.675782-3.882813-8.675782-8.675782 0-4.792968 3.882813-8.679687 8.675782-8.679687h34.710937c4.792969 0 8.679687 3.886719 8.679687 8.679687 0 4.792969-3.886718 8.675782-8.679687 8.675782zm0 0"/><path d="m112.8125 321.085938h-78.101562c-4.792969 0-8.675782-3.886719-8.675782-8.679688s3.882813-8.675781 8.675782-8.675781h78.101562c4.792969 0 8.679688 3.882812 8.679688 8.675781s-3.886719 8.679688-8.679688 8.679688zm0 0"/><path d="m78.101562 355.796875h-43.390624c-4.792969 0-8.675782-3.886719-8.675782-8.679687 0-4.792969 3.882813-8.675782 8.675782-8.675782h43.390624c4.792969 0 8.679688 3.882813 8.679688 8.675782 0 4.792968-3.886719 8.679687-8.679688 8.679687zm0 0"/></g><path d="m303.730469 242.984375c-3.390625-.003906-6.46875-1.976563-7.882813-5.054687-1.414062-3.078126-.910156-6.699219 1.296875-9.273438l52.066407-60.746094c2.972656-3.472656 8.136718-4.039062 11.792968-1.292968l28.332032 21.242187 64.117187-72.136719c2.046875-2.359375 5.207031-3.4375 8.269531-2.816406 3.066406.617188 5.558594 2.835938 6.53125 5.808594.972656 2.96875.269532 6.234375-1.835937 8.542968l-69.421875 78.101563c-2.992188 3.382813-8.085938 3.898437-11.695313 1.175781l-28.210937-21.152344-46.78125 54.574219c-1.644532 1.921875-4.046875 3.027344-6.578125 3.027344zm0 0" fill="#ff5364"/><path d="m468.609375 286.371094h-52.066406c-4.792969 0-8.679688-3.882813-8.679688-8.675782 0-4.792968 3.886719-8.679687 8.679688-8.679687h52.066406c4.792969 0 8.679687 3.886719 8.679687 8.679687 0 4.792969-3.886718 8.675782-8.679687 8.675782zm0 0" fill="#ff5364"/><path d="m468.609375 321.085938h-78.101563c-4.792968 0-8.675781-3.886719-8.675781-8.679688s3.882813-8.675781 8.675781-8.675781h78.101563c4.792969 0 8.679687 3.882812 8.679687 8.675781s-3.886718 8.679688-8.679687 8.679688zm0 0" fill="#ff5364"/><path d="m468.609375 355.796875h-26.03125c-4.792969 0-8.679687-3.886719-8.679687-8.679687 0-4.792969 3.886718-8.675782 8.679687-8.675782h26.03125c4.792969 0 8.679687 3.882813 8.679687 8.675782 0 4.792968-3.886718 8.679687-8.679687 8.679687zm0 0" fill="#ff5364"/><path d="m347.117188 512h-17.355469c-38.324219-.042969-69.378907-31.101562-69.421875-69.421875.011718-9.582031 7.773437-17.347656 17.355468-17.359375h121.492188c9.578125.011719 17.34375 7.777344 17.355469 17.359375-.042969 38.320313-31.101563 69.378906-69.425781 69.421875zm-69.421876-69.421875c.03125 28.742187 23.324219 52.035156 52.066407 52.066406h17.355469c28.746093-.03125 52.039062-23.324219 52.070312-52.066406zm0 0" fill="#35495e"/><path d="m173.558594 512h-17.355469c-38.324219-.042969-69.378906-31.101562-69.421875-69.421875.007812-9.582031 7.773438-17.347656 17.355469-17.359375h121.492187c9.578125.011719 17.34375 7.777344 17.355469 17.359375-.046875 38.320313-31.101563 69.378906-69.425781 69.421875zm-69.421875-69.421875c.03125 28.742187 23.324219 52.035156 52.066406 52.066406h17.355469c28.742187-.03125 52.035156-23.324219 52.070312-52.066406zm0 0" fill="#35495e"/><path d="m468.609375 242.984375h-164.878906c-4.792969 0-8.679688-3.886719-8.679688-8.679687v-112.8125c0-4.792969 3.886719-8.679688 8.679688-8.679688s8.675781 3.886719 8.675781 8.679688v104.136718h156.203125c4.792969 0 8.679687 3.882813 8.679687 8.675782 0 4.792968-3.886718 8.679687-8.679687 8.679687zm0 0" fill="#547580"/></svg>