<svg height="503pt" viewBox="0 0 503 503.51462" width="503pt" xmlns="http://www.w3.org/2000/svg"><path d="m416.808594 104.328125c-34.699219 0-52.054688 34.683594-52.066406 8.707031.769531-46.84375-27.984376-89.117187-71.835938-105.609375-49.035156-18.640625-104.453125-1.285156-134.09375 41.996094-1.273438 1.898437-3.253906 3.207031-5.503906 3.636719-2.246094.429687-4.570313-.054688-6.457032-1.351563-9.625-6.957031-21.707031-9.617187-33.363281-7.34375-16.492187 3.246094-29.644531 15.691407-33.792969 31.980469-1.664062 6.53125-1.761718 13.367188-.289062 19.945312.527344 2.011719.183594 4.148438-.9375 5.898438-1.125 1.746094-2.925781 2.945312-4.972656 3.304688-44.964844 7.070312-76.804688 47.707031-72.917969 93.054687 4.789063 45.53125 43.46875 79.914063 89.246094 79.339844h324.011719c46.457031.601562 85.511718-34.722657 89.566406-81.003907 1.597656-23.964843-6.8125-47.519531-23.21875-65.058593-16.410156-17.539063-39.355469-27.496094-63.375-27.496094zm0 0" fill="#955ba5"/><path d="m251.929688 477.480469c-4.792969 0-8.679688-3.886719-8.679688-8.675781v-57.152344c-.011719-4.605469 1.820312-9.027344 5.085938-12.273438l29.625-29.628906v-131.660156l-29.625-29.625c-3.265626-3.25-5.097657-7.667969-5.085938-12.273438v-48.472656c0-4.792969 3.886719-8.679688 8.679688-8.679688 4.792968 0 8.675781 3.886719 8.675781 8.679688v48.472656l29.628906 29.628906c3.265625 3.246094 5.097656 7.664063 5.085937 12.269532v131.660156c.011719 4.605469-1.820312 9.027344-5.085937 12.273438l-29.628906 29.628906v57.152344c0 4.789062-3.882813 8.675781-8.675781 8.675781zm0 0" fill="#3d324c"/><path d="m182.503906 477.480469c-4.792968 0-8.675781-3.886719-8.675781-8.675781v-91.867188c-.015625-4.605469 1.816406-9.023438 5.082031-12.269531l29.628906-29.628907v-53.558593l-38.304687-38.304688c-3.265625-3.246093-5.097656-7.667969-5.085937-12.273437v-39.792969c0-4.792969 3.886718-8.679687 8.679687-8.679687s8.675781 3.886718 8.675781 8.679687v39.792969l38.304688 38.308594c3.269531 3.246093 5.097656 7.664062 5.085937 12.269531v53.558593c.011719 4.605469-1.816406 9.023438-5.085937 12.273438l-29.625 29.625v91.867188c0 4.789062-3.886719 8.675781-8.679688 8.675781zm0 0" fill="#3d324c"/><path d="m113.082031 477.480469c-4.792969 0-8.679687-3.886719-8.679687-8.675781v-109.222657c-.011719-4.605469 1.820312-9.023437 5.085937-12.269531l29.738281-28.6875-37.867187-31.550781c-3.558594-3.300781-5.597656-7.925781-5.632813-12.78125v-39.796875c0-4.792969 3.882813-8.675782 8.675782-8.675782 4.792968 0 8.679687 3.882813 8.679687 8.675782v39.796875l37.753907 31.664062c3.558593 3.296875 5.597656 7.921875 5.636718 12.777344.011719 4.605469-1.820312 9.027344-5.085937 12.277344l-29.738281 28.679687.109374 109.113282c0 4.789062-3.882812 8.675781-8.675781 8.675781zm0 0" fill="#3d324c"/><path d="m321.351562 477.480469c-4.792968 0-8.675781-3.886719-8.675781-8.675781v-57.152344c-.015625-4.605469 1.816407-9.027344 5.082031-12.273438l20.949219-20.949218v-140.339844l-12.269531-12.269532c-3.265625-3.246093-5.097656-7.667968-5.085938-12.273437v-22.4375c0-4.792969 3.886719-8.679687 8.679688-8.679687s8.675781 3.886718 8.675781 8.679687v22.4375l12.273438 12.273437c3.265625 3.246094 5.097656 7.664063 5.082031 12.269532v140.339844c.015625 4.605468-1.816406 9.023437-5.082031 12.269531l-20.949219 20.953125v57.152344c0 4.789062-3.886719 8.675781-8.679688 8.675781zm0 0" fill="#3d324c"/><path d="m390.777344 477.480469c-4.792969 0-8.679688-3.886719-8.679688-8.675781v-48.929688c.003906-4.054688 1.421875-7.984375 4.015625-11.101562l39.339844-46.601563-28.847656-22.871094c-.261719-.207031-.507813-.429687-.746094-.667969-3.265625-3.246093-5.097656-7.664062-5.082031-12.269531v-91.867187c0-4.792969 3.882812-8.675782 8.675781-8.675782s8.679687 3.882813 8.679687 8.675782v91.789062l28.878907 22.902344c.261719.207031.511719.429688.746093.660156 6.398438 6.332032 6.859376 16.511719 1.058594 23.390625l-39.40625 46.679688.042969 48.886719c0 4.789062-3.882813 8.675781-8.675781 8.675781zm0 0" fill="#3d324c"/><g fill="#f0c419"><path d="m243.25 113.007812h17.355469c4.792969 0 8.679687 3.882813 8.679687 8.675782v17.355468c0 4.792969-3.886718 8.679688-8.679687 8.679688h-17.355469c-4.792969 0-8.675781-3.886719-8.675781-8.679688v-17.355468c0-4.792969 3.882812-8.675782 8.675781-8.675782zm0 0"/><path d="m165.148438 156.394531h17.355468c4.792969 0 8.679688 3.886719 8.679688 8.679688v17.355469c0 4.792968-3.886719 8.679687-8.679688 8.679687h-17.355468c-4.792969 0-8.675782-3.886719-8.675782-8.679687v-17.355469c0-4.792969 3.882813-8.679688 8.675782-8.679688zm0 0"/><path d="m95.726562 199.785156h17.355469c4.792969 0 8.675781 3.886719 8.675781 8.679688v17.355468c0 4.792969-3.882812 8.675782-8.675781 8.675782h-17.355469c-4.792968 0-8.679687-3.882813-8.679687-8.675782v-17.355468c0-4.792969 3.886719-8.679688 8.679687-8.679688zm0 0"/><path d="m338.707031 191.109375h-17.355469c-4.792968 0-8.675781-3.886719-8.675781-8.679687v-17.355469c0-4.792969 3.882813-8.679688 8.675781-8.679688h17.355469c4.792969 0 8.679688 3.886719 8.679688 8.679688v17.355469c0 4.792968-3.886719 8.679687-8.679688 8.679687zm0 0"/><path d="m408.132812 234.496094h-17.355468c-4.792969 0-8.679688-3.882813-8.679688-8.675782v-17.355468c0-4.792969 3.886719-8.679688 8.679688-8.679688h17.355468c4.792969 0 8.675782 3.886719 8.675782 8.679688v17.355468c0 4.792969-3.882813 8.675782-8.675782 8.675782zm0 0"/><path d="m243.25 468.804688h17.355469c4.792969 0 8.679687 3.882812 8.679687 8.675781v17.355469c0 4.792968-3.886718 8.679687-8.679687 8.679687h-17.355469c-4.792969 0-8.675781-3.886719-8.675781-8.679687v-17.355469c0-4.792969 3.882812-8.675781 8.675781-8.675781zm0 0"/><path d="m173.828125 468.804688h17.355469c4.792968 0 8.675781 3.882812 8.675781 8.675781v17.355469c0 4.792968-3.882813 8.679687-8.675781 8.679687h-17.355469c-4.792969 0-8.679687-3.886719-8.679687-8.679687v-17.355469c0-4.792969 3.886718-8.675781 8.679687-8.675781zm0 0"/><path d="m104.402344 468.804688h17.355468c4.792969 0 8.679688 3.882812 8.679688 8.675781v17.355469c0 4.792968-3.886719 8.679687-8.679688 8.679687h-17.355468c-4.792969 0-8.675782-3.886719-8.675782-8.679687v-17.355469c0-4.792969 3.882813-8.675781 8.675782-8.675781zm0 0"/><path d="m330.03125 503.515625h-17.355469c-4.792969 0-8.679687-3.886719-8.679687-8.679687v-17.355469c0-4.792969 3.886718-8.675781 8.679687-8.675781h17.355469c4.792969 0 8.675781 3.882812 8.675781 8.675781v17.355469c0 4.792968-3.882812 8.679687-8.675781 8.679687zm0 0"/><path d="m399.453125 503.515625h-17.355469c-4.792968 0-8.675781-3.886719-8.675781-8.679687v-17.355469c0-4.792969 3.882813-8.675781 8.675781-8.675781h17.355469c4.792969 0 8.679687 3.882812 8.679687 8.675781v17.355469c0 4.792968-3.886718 8.679687-8.679687 8.679687zm0 0"/></g></svg>