<svg height="512pt" viewBox="0 0 512 512" width="512pt" xmlns="http://www.w3.org/2000/svg"><path d="m415.433594 65.414062c-.582032 0-1.167969-.058593-1.738282-.179687l-17.3125-3.464844c-4.722656-1.011719-7.753906-5.628906-6.804687-10.363281s5.523437-7.828125 10.269531-6.945312l17.3125 3.464843c4.4375.902344 7.472656 5.011719 7.027344 9.519531-.445312 4.503907-4.226562 7.941407-8.753906 7.960938zm-51.933594-10.398437c-.585938.003906-1.167969-.054687-1.742188-.171875l-17.304687-3.46875c-4.722656-1.011719-7.753906-5.628906-6.804687-10.363281.945312-4.734375 5.523437-7.828125 10.269531-6.945313l17.308593 3.464844c4.4375.902344 7.472657 5.011719 7.03125 9.519531-.445312 4.503907-4.226562 7.945313-8.753906 7.960938zm0 0" fill="#2fa8cc"/><path d="m39.007812 197.386719c-3.105468-.003907-5.980468-1.636719-7.574218-4.304688-1.589844-2.664062-1.664063-5.972656-.195313-8.707031l7.394531-13.738281c2.308594-4.292969 7.664063-5.902344 11.957032-3.59375 4.296875 2.308593 5.90625 7.660156 3.59375 11.957031l-7.390625 13.742188c-1.542969 2.863281-4.53125 4.648437-7.785157 4.644531zm24.121094-44.839844c-3.105468 0-5.980468-1.636719-7.570312-4.300781-1.59375-2.664063-1.667969-5.972656-.199219-8.707032l8.367187-15.550781c2.308594-4.296875 7.664063-5.90625 11.957032-3.59375 4.296875 2.308594 5.90625 7.660157 3.597656 11.957031l-8.367188 15.550782c-1.539062 2.863281-4.53125 4.652344-7.785156 4.648437zm0 0" fill="#2fa8cc"/><path d="m417.578125 382.722656c-1.011719 0-2.011719-.171875-2.964844-.507812-4.59375-1.640625-6.988281-6.691406-5.351562-11.285156l5.929687-16.628907c1.058594-2.96875 3.621094-5.148437 6.722656-5.71875 3.105469-.566406 6.273438.5625 8.316407 2.96875 2.042969 2.402344 2.648437 5.710938 1.589843 8.683594l-5.929687 16.628906c-1.253906 3.515625-4.582031 5.859375-8.3125 5.859375zm17.785156-49.886718c-2.871093-.003907-5.558593-1.398438-7.210937-3.746094-1.652344-2.34375-2.0625-5.34375-1.105469-8.046875l5.929687-16.628907c1.640626-4.59375 6.6875-6.988281 11.28125-5.347656 4.59375 1.636719 6.988282 6.6875 5.351563 11.277344l-5.933594 16.628906c-1.253906 3.515625-4.582031 5.863282-8.3125 5.863282zm0 0" fill="#2fa8cc"/><path d="m217.253906 335.976562c-2.65625 0-5.171875-1.199218-6.851562-3.257812-1.675782-2.0625-2.335938-4.769531-1.800782-7.371094l3.613282-17.285156c.996094-4.769531 5.671875-7.832031 10.445312-6.839844 4.769532.996094 7.832032 5.671875 6.839844 10.445313l-3.613281 17.285156c-.855469 4.085937-4.457031 7.015625-8.632813 7.023437zm10.835938-51.84375c-.609375 0-1.21875-.0625-1.8125-.191406-2.292969-.476562-4.300782-1.84375-5.582032-3.800781-1.28125-1.960937-1.734374-4.347656-1.253906-6.636719l3.609375-17.285156c.996094-4.773438 5.671875-7.835938 10.445313-6.839844 4.773437.996094 7.835937 5.671875 6.839844 10.445313l-3.613282 17.28125c-.855468 4.089843-4.457031 7.015625-8.632812 7.023437zm10.796875-51.851562c-.605469 0-1.210938-.058594-1.804688-.179688-4.773437-.992187-7.835937-5.664062-6.84375-10.4375l3.589844-17.285156c.59375-3.136718 2.832031-5.707031 5.855469-6.726562 3.023437-1.015625 6.363281-.324219 8.730468 1.8125 2.371094 2.136718 3.402344 5.386718 2.699219 8.5l-3.589843 17.285156c-.855469 4.089844-4.457032 7.023438-8.636719 7.027344zm0 0" fill="#2fa8cc"/><path d="m144.164062 189.792969c-2.957031.003906-5.714843-1.46875-7.355468-3.929688l-9.785156-14.691406c-2.652344-4.054687-1.539063-9.488281 2.492187-12.175781 4.027344-2.683594 9.472656-1.621094 12.195313 2.382812l9.789062 14.691406c1.804688 2.707032 1.972656 6.1875.441406 9.054688-1.535156 2.871094-4.523437 4.664062-7.777344 4.667969zm-29.363281-44.078125c-2.953125.003906-5.71875-1.472656-7.355469-3.929688l-6.917968-10.386718c-2.707032-4.058594-1.609375-9.542969 2.449218-12.246094 4.058594-2.707032 9.542969-1.609375 12.246094 2.453125l6.917969 10.386719c1.804687 2.707031 1.96875 6.1875.433594 9.054687-1.53125 2.871094-4.519531 4.664063-7.773438 4.667969zm0 0" fill="#2fa8cc"/><path d="m339.058594 198.53125c-1.558594 0-3.09375-.414062-4.441406-1.207031l-15.246094-8.902344c-4.105469-2.507813-5.445313-7.835937-3.019532-11.988281 2.425782-4.152344 7.726563-5.597656 11.925782-3.253906l15.246094 8.90625c3.441406 2.011718 5.105468 6.082031 4.0625 9.929687-1.042969 3.847656-4.539063 6.519531-8.527344 6.515625zm-45.734375-26.703125c-1.5625 0-3.097657-.417969-4.445313-1.207031l-6.875-4.019532c-2.789062-1.554687-4.519531-4.5-4.523437-7.695312-.003907-3.195312 1.71875-6.140625 4.503906-7.707031 2.785156-1.5625 6.199219-1.503907 8.925781.164062l6.875 4.015625c3.441406 2.011719 5.105469 6.082032 4.0625 9.933594-1.042968 3.847656-4.539062 6.515625-8.523437 6.515625zm0 0" fill="#2fa8cc"/><path d="m111.835938 285.835938c-3.21875-.003907-6.179688-1.757813-7.726563-4.582032-1.546875-2.820312-1.4375-6.261718.289063-8.976562l4.417968-6.949219c1.648438-2.75 4.660156-4.386719 7.867188-4.277344 3.203125.109375 6.097656 1.949219 7.558594 4.804688 1.460937 2.855469 1.257812 6.277343-.53125 8.9375l-4.417969 6.949219c-1.621094 2.554687-4.433594 4.097656-7.457031 4.09375zm23.367187-36.738282c-3.222656-.003906-6.1875-1.761718-7.734375-4.585937-1.550781-2.824219-1.4375-6.265625.292969-8.984375l9.476562-14.898438c1.691407-2.660156 4.675781-4.214844 7.828125-4.078125s5.992188 1.945313 7.449219 4.742188 1.3125 6.160156-.382813 8.820312l-9.472656 14.894531c-1.625 2.550782-4.4375 4.089844-7.457031 4.085938zm0 0" fill="#2fa8cc"/><path d="m237.03125 120.320312c-3.023438.003907-5.839844-1.542968-7.460938-4.09375l-9.472656-14.90625c-2.613281-4.117187-1.394531-9.574218 2.722656-12.1875 4.113282-2.613281 9.570313-1.394531 12.183594 2.722657l9.46875 14.90625c1.722656 2.714843 1.832032 6.15625.285156 8.976562-1.550781 2.820313-4.507812 4.574219-7.726562 4.582031zm-28.617188-44.8125c-2.9375.011719-5.667968-1.492187-7.238281-3.972656l-.199219-.308594c-1.753906-2.660156-1.9375-6.054687-.484374-8.890624 1.453124-2.832032 4.320312-4.664063 7.503906-4.789063 3.183594-.128906 6.1875 1.46875 7.859375 4.179687 1.796875 2.734376 1.945312 6.234376.390625 9.113282-1.554688 2.878906-4.5625 4.671875-7.832032 4.671875zm0 0" fill="#2fa8cc"/><path d="m305.5625 437.09375c-.847656.003906-1.6875-.117188-2.5-.359375-2.246094-.660156-4.136719-2.1875-5.257812-4.242187-1.121094-2.054688-1.378907-4.472657-.71875-6.714844l4.980468-16.933594c1.375-4.675781 6.28125-7.351562 10.960938-5.976562 4.675781 1.375 7.351562 6.28125 5.976562 10.960937l-4.976562 16.929687c-1.109375 3.753907-4.554688 6.332032-8.464844 6.335938zm14.9375-50.808594c-.84375 0-1.683594-.121094-2.492188-.363281-2.246093-.65625-4.140624-2.183594-5.261718-4.238281-1.121094-2.054688-1.382813-4.472656-.71875-6.71875l4.976562-16.9375c1.375-4.679688 6.285156-7.355469 10.960938-5.980469 4.679687 1.375 7.355468 6.285156 5.980468 10.960937l-4.980468 16.941407c-1.105469 3.753906-4.550782 6.332031-8.464844 6.335937zm0 0" fill="#2fa8cc"/><path d="m430.519531 273.65625c-2.183593 0-4.289062-.808594-5.90625-2.277344l-13.109375-11.828125c-2.40625-2.097656-3.492187-5.328125-2.84375-8.453125.648438-3.125 2.933594-5.652344 5.976563-6.617187 3.039062-.964844 6.367187-.210938 8.695312 1.96875l13.109375 11.828125c2.710938 2.449218 3.632813 6.3125 2.320313 9.722656-1.3125 3.40625-4.585938 5.65625-8.242188 5.65625zm-39.316406-35.488281c-2.183594.003906-4.292969-.808594-5.910156-2.277344l-9.585938-8.648437c-3.527343-3.285157-3.769531-8.796876-.535156-12.375 3.230469-3.582032 8.734375-3.90625 12.363281-.730469l9.585938 8.652343c2.710937 2.449219 3.636718 6.3125 2.324218 9.71875-1.3125 3.410157-4.585937 5.660157-8.238281 5.660157zm0 0" fill="#2fa8cc"/><g fill="#464f5d"><path d="m321.332031 467.066406c-3.953125.007813-7.425781-2.617187-8.503906-6.417968-1.078125-3.800782.5-7.855469 3.867187-9.925782l62.234376-38.3125c4.152343-2.554687 9.589843-1.261718 12.144531 2.886719 2.558593 4.152344 1.265625 9.589844-2.886719 12.148437l-62.234375 38.3125c-1.390625.855469-2.988281 1.308594-4.621094 1.308594zm0 0"/><path d="m456.660156 265.621094c-.722656 0-1.445312-.085938-2.148437-.257813-2.269531-.566406-4.226563-2.011719-5.429688-4.023437-1.207031-2.007813-1.5625-4.410156-.996093-6.683594l11.476562-45.992188c.710938-3.117187 3.050781-5.605468 6.117188-6.507812 3.070312-.902344 6.382812-.074219 8.667968 2.164062 2.285156 2.238282 3.179688 5.535157 2.339844 8.621094l-11.476562 45.992188c-.980469 3.925781-4.503907 6.683594-8.550782 6.6875zm0 0"/><path d="m119.796875 90.128906c-4.09375.003906-7.65625-2.808594-8.597656-6.796875-.941407-3.984375.980469-8.097656 4.644531-9.925781l50.757812-25.335938c4.351563-2.105468 9.585938-.324218 11.746094 4 2.160156 4.324219.441406 9.582032-3.855468 11.792969l-50.757813 25.335938c-1.222656.609375-2.570313.929687-3.9375.929687zm0 0"/><path d="m76.367188 289.28125c-2.832032.007812-5.492188-1.347656-7.152344-3.640625l-34.339844-47.226563c-2.773438-3.941406-1.871094-9.382812 2.03125-12.21875 3.898438-2.835937 9.355469-2.015624 12.25 1.839844l34.339844 47.226563c1.949218 2.683593 2.230468 6.234375.726562 9.191406s-4.539062 4.824219-7.855468 4.828125zm0 0"/><path d="m187.234375 352.484375c-1.117187.003906-2.222656-.199219-3.265625-.59375l-57.117188-22.070313c-4.445312-1.820312-6.617187-6.867187-4.886718-11.347656 1.730468-4.484375 6.734375-6.757812 11.25-5.117187l56.867187 21.972656c4.0625 1.40625 6.523438 5.539063 5.820313 9.78125-.707032 4.242187-4.367188 7.359375-8.667969 7.375zm0 0"/><path d="m220.59375 50.933594c-4.738281-.007813-8.621094-3.757813-8.800781-8.492188-.179688-4.738281 3.414062-8.769531 8.136719-9.136718l53.140624-4.058594.761719 8.800781v8.828125l-52.554687 4.035156c-.230469.011719-.457032.023438-.683594.023438zm0 0"/><path d="m466.265625 151.65625c-3.875 0-7.292969-2.527344-8.433594-6.230469l-17.125-55.785156c-1.433593-4.660156 1.183594-9.601563 5.84375-11.035156 4.660157-1.433594 9.601563 1.183593 11.035157 5.84375l17.125 55.785156c.824218 2.679687.328124 5.589844-1.339844 7.84375-1.664063 2.253906-4.300782 3.582031-7.105469 3.578125zm0 0"/><path d="m272.25 455.855469c-3.007812.003906-5.808594-1.519531-7.4375-4.050781l-46.078125-71.679688c-2.636719-4.101562-1.449219-9.5625 2.652344-12.203125 4.101562-2.636719 9.5625-1.449219 12.199219 2.652344l46.082031 71.679687c1.265625 1.96875 1.695312 4.363282 1.199219 6.648438-.5 2.289062-1.886719 4.285156-3.855469 5.550781-1.417969.917969-3.070313 1.40625-4.761719 1.402344zm0 0"/><path d="m237.71875 356.371094c-4.507812-.015625-8.28125-3.421875-8.753906-7.90625-.46875-4.484375 2.511718-8.601563 6.917968-9.550782l63.207032-13.507812c3.121094-.753906 6.40625.242188 8.578125 2.605469 2.171875 2.367187 2.890625 5.722656 1.875 8.769531-1.019531 3.046875-3.609375 5.296875-6.765625 5.882812l-63.203125 13.507813c-.609375.132813-1.230469.199219-1.855469.199219zm0 0"/><path d="m342.871094 300.933594c-.625 0-1.246094-.066406-1.855469-.199219-4.765625-1.019531-7.804687-5.707031-6.789063-10.472656l13.507813-63.207031c1.019531-4.765626 5.710937-7.808594 10.476563-6.789063 4.769531 1.019531 7.808593 5.710937 6.789062 10.480469l-13.503906 63.203125c-.875 4.070312-4.464844 6.976562-8.625 6.984375zm0 0"/><path d="m181.238281 197.648438c-3.925781.003906-7.378906-2.589844-8.480469-6.355469-1.097656-3.769531.425782-7.8125 3.738282-9.917969l45.019531-28.597656c2.664063-1.789063 6.089844-1.996094 8.945313-.535156 2.859374 1.460937 4.699218 4.355468 4.804687 7.5625.109375 3.207031-1.53125 6.222656-4.285156 7.871093l-45.019531 28.59375c-1.410157.90625-3.050782 1.382813-4.722657 1.378907zm0 0"/><path d="m52.871094 218.925781c-4.769532.007813-8.6875-3.773437-8.84375-8.539062-.15625-4.769531 3.503906-8.796875 8.265625-9.101563l79.625-5.296875c4.839843-.25 9 3.394531 9.390625 8.226563.324218 4.863281-3.355469 9.070312-8.21875 9.394531l-79.625 5.296875c-.199219.007812-.394532.019531-.59375.019531zm0 0"/><path d="m271.792969 118.554688c-3.054688 0-5.894531-1.582032-7.5-4.179688-1.609375-2.597656-1.757813-5.84375-.390625-8.578125l21.359375-42.898437c1.355469-2.910157 4.179687-4.855469 7.382812-5.082032 3.199219-.226562 6.273438 1.304688 8.023438 3.992188 1.75 2.691406 1.902343 6.117187.398437 8.953125l-21.363281 42.894531c-1.492187 3.003906-4.558594 4.902344-7.910156 4.898438zm0 0"/><path d="m387.699219 205.949219c-4.492188 0-8.265625-3.371094-8.773438-7.832031-.507812-4.464844 2.417969-8.59375 6.792969-9.601563l54.644531-12.621094c4.75-1.097656 9.492188 1.863281 10.589844 6.617188 1.097656 4.75-1.867187 9.492187-6.617187 10.589843l-54.644532 12.621094c-.652344.152344-1.324218.226563-1.992187.226563zm0 0"/><path d="m374.902344 188.734375c-3.132813-.007813-6.03125-1.671875-7.609375-4.378906-1.582031-2.703125-1.609375-6.042969-.074219-8.773438l53.496094-94.984375c1.496094-2.847656 4.417968-4.65625 7.632812-4.722656s6.210938 1.621094 7.824219 4.402344c1.609375 2.78125 1.582031 6.21875-.078125 8.972656l-53.492188 94.984375c-1.566406 2.785156-4.511718 4.503906-7.699218 4.5zm0 0"/><path d="m388.503906 395.121094c-2.527344.003906-4.933594-1.074219-6.605468-2.964844l-29.574219-33.28125c-3.152344-3.652344-2.785157-9.160156.824219-12.363281 3.605468-3.207031 9.117187-2.921875 12.375.640625l29.574218 33.28125c2.304688 2.597656 2.875 6.308594 1.453125 9.476562-1.425781 3.171875-4.574219 5.210938-8.046875 5.210938zm0 0"/><path d="m306.574219 315.234375c-1.808594 0-3.574219-.558594-5.054688-1.597656l-125.972656-88.1875c-3.996094-2.796875-4.96875-8.304688-2.171875-12.300781 2.796875-3.996094 8.304688-4.964844 12.300781-2.167969l125.964844 88.1875c3.164063 2.207031 4.527344 6.214843 3.367187 9.894531-1.160156 3.679688-4.578124 6.175781-8.433593 6.171875zm0 0"/></g><path d="m238.34375 353.101562c0 14.628907-11.855469 26.484376-26.480469 26.484376-14.628906 0-26.484375-11.855469-26.484375-26.484376 0-14.625 11.855469-26.480468 26.484375-26.480468 14.625 0 26.480469 11.855468 26.480469 26.480468zm0 0" fill="#f0c419"/><path d="m326.621094 476.691406c0 19.5-15.808594 35.308594-35.3125 35.308594-19.5 0-35.308594-15.808594-35.308594-35.308594 0-19.503906 15.808594-35.3125 35.308594-35.3125 19.503906 0 35.3125 15.808594 35.3125 35.3125zm0 0" fill="#ff5364"/><path d="m132.414062 308.964844c0 19.503906-15.808593 35.3125-35.3125 35.3125-19.5 0-35.308593-15.808594-35.308593-35.3125 0-19.5 15.808593-35.308594 35.308593-35.308594 19.503907 0 35.3125 15.808594 35.3125 35.308594zm0 0" fill="#ff5364"/><path d="m52.964844 211.863281c0 14.625-11.855469 26.480469-26.480469 26.480469-14.628906 0-26.484375-11.855469-26.484375-26.480469 0-14.628906 11.855469-26.484375 26.484375-26.484375 14.625 0 26.480469 11.855469 26.480469 26.484375zm0 0" fill="#894b9d"/><path d="m123.585938 97.101562c0 19.503907-15.808594 35.3125-35.308594 35.3125-19.503906 0-35.3125-15.808593-35.3125-35.3125 0-19.5 15.808594-35.308593 35.3125-35.308593 19.5 0 35.308594 15.808593 35.308594 35.308593zm0 0" fill="#ff5364"/><path d="m220.691406 44.136719c0 14.628906-11.859375 26.484375-26.484375 26.484375s-26.484375-11.855469-26.484375-26.484375c0-14.625 11.859375-26.480469 26.484375-26.480469s26.484375 11.855469 26.484375 26.480469zm0 0" fill="#f0c419"/><path d="m344.277344 35.308594c0 19.503906-15.808594 35.3125-35.3125 35.3125-19.5 0-35.308594-15.808594-35.308594-35.3125 0-19.5 15.808594-35.308594 35.308594-35.308594 19.503906 0 35.3125 15.808594 35.3125 35.308594zm0 0" fill="#ff5364"/><path d="m467.863281 61.792969c0 14.625-11.859375 26.484375-26.484375 26.484375s-26.480468-11.859375-26.480468-26.484375 11.855468-26.484375 26.480468-26.484375 26.484375 11.859375 26.484375 26.484375zm0 0" fill="#f0c419"/><path d="m512 176.550781c0 19.503907-15.808594 35.3125-35.308594 35.3125-19.503906 0-35.3125-15.808593-35.3125-35.3125 0-19.5 15.808594-35.308593 35.3125-35.308593 19.5 0 35.308594 15.808593 35.308594 35.308593zm0 0" fill="#ff5364"/><path d="m476.691406 282.484375c0 14.625-11.859375 26.480469-26.484375 26.480469s-26.484375-11.855469-26.484375-26.480469c0-14.628906 11.859375-26.484375 26.484375-26.484375s26.484375 11.855469 26.484375 26.484375zm0 0" fill="#f0c419"/><path d="m432.550781 406.070312c0 14.625-11.855469 26.480469-26.480469 26.480469-14.628906 0-26.484374-11.855469-26.484374-26.480469 0-14.628906 11.855468-26.484374 26.484374-26.484374 14.625 0 26.480469 11.855468 26.480469 26.484374zm0 0" fill="#894b9d"/><path d="m370.757812 326.621094c0 19.5-15.808593 35.308594-35.308593 35.308594-19.503907 0-35.3125-15.808594-35.3125-35.308594s15.808593-35.3125 35.3125-35.3125c19.5 0 35.308593 15.8125 35.308593 35.3125zm0 0" fill="#ff5364"/><path d="m185.378906 203.035156c0 14.625-11.855468 26.480469-26.480468 26.480469-14.628907 0-26.484376-11.855469-26.484376-26.480469s11.855469-26.484375 26.484376-26.484375c14.625 0 26.480468 11.859375 26.480468 26.484375zm0 0" fill="#f0c419"/><path d="m291.308594 141.242188c0 19.5-15.808594 35.308593-35.308594 35.308593s-35.308594-15.808593-35.308594-35.308593c0-19.503907 15.808594-35.3125 35.308594-35.3125s35.308594 15.808593 35.308594 35.3125zm0 0" fill="#894b9d"/><path d="m388.414062 203.035156c0 14.625-11.855468 26.480469-26.484374 26.480469-14.625 0-26.480469-11.855469-26.480469-26.480469s11.855469-26.484375 26.480469-26.484375c14.628906 0 26.484374 11.859375 26.484374 26.484375zm0 0" fill="#f0c419"/></svg>