<svg height="512pt" viewBox="0 -9 512.00015 512" width="512pt" xmlns="http://www.w3.org/2000/svg"><path d="m76.800781 366.933594c-4.714843 0-8.535156-3.820313-8.535156-8.535156v-35.597657c-.003906-2.261719-.902344-4.429687-2.5-6.035156l-58.265625-58.265625c-4.816406-4.789062-7.515625-11.308594-7.5-18.101562v-44.132813c.015625-14.132813 11.46875-25.582031 25.601562-25.597656h59.730469c4.714844 0 8.535157 3.820312 8.535157 8.53125 0 4.714843-3.820313 8.535156-8.535157 8.535156h-59.730469c-4.714843 0-8.53125 3.820313-8.535156 8.53125v44.132813c.007813 2.261718.90625 4.429687 2.5 6.035156l58.265625 58.265625c4.816407 4.789062 7.519531 11.308593 7.5 18.101562v35.597657c0 4.714843-3.820312 8.535156-8.53125 8.535156zm0 0" fill="#464f5d"/><path d="m435.199219 366.933594c-4.710938 0-8.53125-3.820313-8.53125-8.535156v-35.597657c-.019531-6.792969 2.683593-13.3125 7.5-18.101562l58.265625-58.265625c1.59375-1.605469 2.492187-3.773438 2.5-6.035156v-44.132813c-.003906-4.710937-3.820313-8.53125-8.535156-8.53125h-59.730469c-4.714844 0-8.535157-3.820313-8.535157-8.535156 0-4.710938 3.820313-8.53125 8.535157-8.53125h59.730469c14.132812.015625 25.585937 11.464843 25.601562 25.597656v44.132813c.015625 6.792968-2.683594 13.3125-7.5 18.101562l-58.265625 58.265625c-1.597656 1.605469-2.496094 3.773437-2.5 6.035156v35.597657c0 4.714843-3.820313 8.535156-8.535156 8.535156zm0 0" fill="#464f5d"/><path d="m256 366.933594c-4.710938 0-8.535156-3.820313-8.535156-8.535156v-34.132813c0-4.710937 3.824218-8.53125 8.535156-8.53125 4.714844 0 8.535156 3.820313 8.535156 8.53125v34.132813c0 4.714843-3.820312 8.535156-8.535156 8.535156zm0 0" fill="#464f5d"/><path d="m409.601562 196.265625-121.515624 81.410156c-4.113282 2.511719-6.988282 6.625-7.9375 11.347657l-5.714844 28.417968c-.804688 3.976563-4.304688 6.832032-8.363282 6.824219h-20.140624c-4.058594.007813-7.558594-2.847656-8.363282-6.824219l-5.714844-28.417968c-.949218-4.722657-3.824218-8.835938-7.9375-11.347657l-121.515624-81.410156 153.601562-17.066406zm0 0" fill="#f0c419"/><path d="m238.933594 27.199219h51.199218v150.402343h-51.199218zm0 0" fill="#804169"/><path d="m145.066406 97.601562h51.199219v77.863282h-51.199219zm0 0" fill="#2980ba"/><path d="m332.800781 92.800781h51.199219v87.464844h-51.199219zm0 0" fill="#4c8056"/><path d="m426.667969 179.199219c-.070313 9.398437-7.671875 17-17.066407 17.066406h-307.203124c-9.414063-.027344-17.039063-7.652344-17.066407-17.066406.070313-9.398438 7.671875-16.996094 17.066407-17.066407h307.203124c9.414063.027344 17.039063 7.652344 17.066407 17.066407zm0 0" fill="#b19046"/><path d="m290.132812 8.535156v34.132813h-51.199218v-34.132813c.011718-4.707031 3.824218-8.5234372 8.53125-8.535156h34.136718c4.707032.0117188 8.519532 3.828125 8.53125 8.535156zm0 0" fill="#ff5364"/><path d="m196.265625 85.332031v25.601563h-51.199219v-25.601563c.015625-4.707031 3.828125-8.519531 8.535156-8.53125h34.132813c4.707031.011719 8.519531 3.824219 8.53125 8.53125zm0 0" fill="#3b97d3"/><path d="m384 34.132812v76.800782h-51.199219v-76.800782c.011719-4.707031 3.824219-8.519531 8.53125-8.53125h34.132813c4.710937.011719 8.523437 3.824219 8.535156 8.53125zm0 0" fill="#71c285"/><path d="m324.265625 426.667969c0 37.703125-30.5625 68.265625-68.265625 68.265625s-68.265625-30.5625-68.265625-68.265625 30.5625-68.269531 68.265625-68.269531 68.265625 30.566406 68.265625 68.269531zm0 0" fill="#f0c419"/><path d="m503.464844 426.667969c0 37.703125-30.5625 68.265625-68.265625 68.265625s-68.265625-30.5625-68.265625-68.265625 30.5625-68.269531 68.265625-68.269531 68.265625 30.566406 68.265625 68.269531zm0 0" fill="#f0c419"/><path d="m145.066406 426.667969c0 37.703125-30.5625 68.265625-68.265625 68.265625s-68.265625-30.5625-68.265625-68.265625 30.5625-68.269531 68.265625-68.269531 68.265625 30.566406 68.265625 68.269531zm0 0" fill="#f0c419"/><g fill="#f29c1f"><path d="m256 460.800781c-8.289062.84375-16.578125-1.585937-23.101562-6.769531-3.230469-3.339844-3.195313-8.652344.082031-11.949219 3.277343-3.296875 8.59375-3.363281 11.953125-.148437 3.523437 1.359375 7.292968 1.972656 11.066406 1.800781 3.890625 0 8.535156-.742187 8.535156-4.269531 0-2.53125 0-3.132813-9.59375-4.332032-7.964844-.992187-24.542968-3.066406-24.542968-21.265624.523437-6.242188 3.527343-12.015626 8.339843-16.023438 4.808594-4.011719 11.027344-5.921875 17.261719-5.308594 9.785156-.710937 19.183594 3.949219 24.542969 12.164063 2.230469 4.078125.789062 9.1875-3.242188 11.5-4.027343 2.3125-9.167969.972656-11.558593-3.007813-2.480469-2.691406-6.105469-4.03125-9.742188-3.589844-3.949219 0-8.535156 1.867188-8.535156 4.265626 0 2.53125 0 3.132812 9.59375 4.332031 7.964844.992187 24.542968 3.066406 24.542968 21.265625 0 10.617187-7.917968 21.335937-25.601562 21.335937zm0 0"/><path d="m256 469.332031c-4.710938 0-8.535156-3.820312-8.535156-8.53125v-8.535156c0-4.710937 3.824218-8.53125 8.535156-8.53125 4.714844 0 8.535156 3.820313 8.535156 8.53125v8.535156c0 4.710938-3.820312 8.53125-8.535156 8.53125zm0 0"/><path d="m256 409.601562c-4.710938 0-8.535156-3.820312-8.535156-8.535156v-8.53125c0-4.714844 3.824218-8.535156 8.535156-8.535156 4.714844 0 8.535156 3.820312 8.535156 8.535156v8.53125c0 4.714844-3.820312 8.535156-8.535156 8.535156zm0 0"/><path d="m435.199219 460.800781c-8.285157.84375-16.578125-1.585937-23.097657-6.769531-3.234374-3.339844-3.199218-8.652344.078126-11.949219 3.28125-3.296875 8.59375-3.363281 11.953124-.148437 3.523438 1.367187 7.292969 1.980468 11.066407 1.800781 3.894531 0 8.535156-.742187 8.535156-4.269531 0-2.53125 0-3.132813-9.59375-4.332032-7.964844-.992187-24.539063-3.066406-24.539063-21.265624.519532-6.242188 3.523438-12.015626 8.335938-16.023438 4.808594-4.011719 11.027344-5.921875 17.261719-5.308594 9.785156-.710937 19.183593 3.949219 24.542969 12.164063 2.230468 4.078125.789062 9.1875-3.238282 11.5-4.03125 2.3125-9.167968.972656-11.5625-3.007813-2.480468-2.691406-6.105468-4.03125-9.742187-3.589844-3.949219 0-8.53125 1.867188-8.53125 4.265626 0 2.53125 0 3.132812 9.589843 4.332031 7.96875.992187 24.542969 3.066406 24.542969 21.265625 0 10.617187-7.917969 21.335937-25.601562 21.335937zm0 0"/><path d="m435.199219 469.332031c-4.710938 0-8.53125-3.820312-8.53125-8.53125v-8.535156c0-4.710937 3.820312-8.53125 8.53125-8.53125 4.714843 0 8.535156 3.820313 8.535156 8.53125v8.535156c0 4.710938-3.820313 8.53125-8.535156 8.53125zm0 0"/><path d="m435.199219 409.601562c-4.710938 0-8.53125-3.820312-8.53125-8.535156v-8.53125c0-4.714844 3.820312-8.535156 8.53125-8.535156 4.714843 0 8.535156 3.820312 8.535156 8.535156v8.53125c0 4.714844-3.820313 8.535156-8.535156 8.535156zm0 0"/><path d="m76.800781 460.800781c-8.289062.84375-16.578125-1.585937-23.101562-6.769531-3.230469-3.339844-3.195313-8.652344.082031-11.949219s8.59375-3.363281 11.949219-.148437c3.523437 1.363281 7.296875 1.976562 11.070312 1.800781 3.890625 0 8.53125-.742187 8.53125-4.269531 0-2.53125 0-3.132813-9.589843-4.332032-7.96875-.992187-24.542969-3.066406-24.542969-21.265624.523437-6.242188 3.527343-12.015626 8.335937-16.023438 4.8125-4.011719 11.03125-5.921875 17.265625-5.308594 9.785157-.710937 19.179688 3.949219 24.542969 12.164063 2.226562 4.078125.789062 9.1875-3.242188 11.5-4.027343 2.3125-9.167968.972656-11.558593-3.007813-2.480469-2.691406-6.105469-4.03125-9.742188-3.589844-3.949219 0-8.535156 1.867188-8.535156 4.265626 0 2.53125 0 3.132812 9.59375 4.332031 7.964844.992187 24.539063 3.066406 24.539063 21.265625 0 10.617187-7.914063 21.335937-25.597657 21.335937zm0 0"/><path d="m76.800781 469.332031c-4.714843 0-8.535156-3.820312-8.535156-8.53125v-8.535156c0-4.710937 3.820313-8.53125 8.535156-8.53125 4.710938 0 8.53125 3.820313 8.53125 8.53125v8.535156c0 4.710938-3.820312 8.53125-8.53125 8.53125zm0 0"/><path d="m76.800781 409.601562c-4.714843 0-8.535156-3.820312-8.535156-8.535156v-8.53125c0-4.714844 3.820313-8.535156 8.535156-8.535156 4.710938 0 8.53125 3.820312 8.53125 8.535156v8.53125c0 4.714844-3.820312 8.535156-8.53125 8.535156zm0 0"/></g></svg>