<?xml version="1.0" encoding="iso-8859-1"?>
<!-- Generator: Adobe Illustrator 19.0.0, SVG Export Plug-In . SVG Version: 6.00 Build 0)  -->
<svg version="1.1" id="Capa_1" xmlns="http://www.w3.org/2000/svg" xmlns:xlink="http://www.w3.org/1999/xlink" x="0px" y="0px"
	 viewBox="0 0 512 512" style="enable-background:new 0 0 512 512;" xml:space="preserve">
<g>
	<path style="fill:#8697CB;" d="M512,52.966v441.379c-0.029,9.739-7.916,17.627-17.655,17.655H17.655
		C7.916,511.971,0.029,504.084,0,494.345V52.966H512z"/>
	<path style="fill:#A5A5A4;" d="M512,17.655v52.966H0V17.655C0.028,7.916,7.916,0.028,17.655,0h476.69
		C504.084,0.028,511.972,7.916,512,17.655z"/>
	<path style="fill:#E64C3C;" d="M35.31,44.138c-2.34-0.017-4.585-0.933-6.268-2.56c-0.779-0.859-1.406-1.844-1.854-2.914
		c-0.943-2.138-0.943-4.573,0-6.711c0.405-1.09,1.037-2.082,1.854-2.91c0.417-0.381,0.858-0.735,1.319-1.06
		c0.494-0.335,1.03-0.604,1.595-0.797c0.499-0.254,1.034-0.431,1.586-0.526c1.72-0.361,3.51-0.177,5.121,0.526
		c1.081,0.427,2.07,1.058,2.914,1.858c3.414,3.481,3.414,9.054,0,12.535c-0.44,0.353-0.888,0.707-1.414,1.056
		c-0.45,0.351-0.958,0.62-1.5,0.797C37.603,43.884,36.464,44.124,35.31,44.138z"/>
	<path style="fill:#F0C419;" d="M70.621,44.138c-2.337-0.035-4.575-0.949-6.268-2.56c-0.779-0.859-1.406-1.844-1.854-2.914
		c-0.452-1.061-0.692-2.2-0.706-3.354c0.014-2.341,0.931-4.586,2.56-6.268c2.525-2.546,6.341-3.312,9.653-1.937
		c3.312,1.375,5.463,4.618,5.442,8.204c-0.035,2.337-0.949,4.574-2.56,6.268C75.204,43.202,72.96,44.118,70.621,44.138z"/>
	<path style="fill:#14A085;" d="M105.931,44.138c-2.348,0.023-4.607-0.9-6.267-2.56c-1.66-1.66-2.583-3.919-2.56-6.267
		c0.031-2.338,0.945-4.577,2.56-6.268c2.113-2.019,5.064-2.905,7.94-2.383c0.586,0.081,1.154,0.259,1.681,0.526
		c0.562,0.194,1.095,0.462,1.586,0.797c0.464,0.325,0.908,0.679,1.328,1.06c3.414,3.481,3.414,9.054,0,12.534
		c-0.42,0.379-0.863,0.732-1.328,1.056c-0.491,0.335-1.024,0.603-1.586,0.797c-0.528,0.266-1.096,0.445-1.681,0.53
		C107.052,44.062,106.492,44.122,105.931,44.138z"/>
	<g>
		<path style="fill:#E6E7E8;" d="M317.793,44.138H194.207c-4.875,0-8.828-3.952-8.828-8.828s3.952-8.828,8.828-8.828h123.586
			c4.875,0,8.828,3.952,8.828,8.828S322.668,44.138,317.793,44.138z"/>
		<path style="fill:#E6E7E8;" d="M476.69,44.138h-8.828c-4.875,0-8.828-3.952-8.828-8.828s3.952-8.828,8.828-8.828h8.828
			c4.875,0,8.828,3.952,8.828,8.828S481.565,44.138,476.69,44.138z"/>
		<path style="fill:#E6E7E8;" d="M432.552,44.138h-8.828c-4.875,0-8.828-3.952-8.828-8.828s3.952-8.828,8.828-8.828h8.828
			c4.875,0,8.828,3.952,8.828,8.828S437.427,44.138,432.552,44.138z"/>
	</g>
	<g>
		<path style="fill:#3F5C6C;" d="M229.517,141.241h-58.138l-23.896-23.896c-3.453-3.41-9.012-3.393-12.443,0.039
			c-3.432,3.432-3.449,8.99-0.039,12.443l11.414,11.414H88.276c-4.875,0-8.828,3.952-8.828,8.828s3.952,8.828,8.828,8.828h58.138
			L135,170.311c-2.253,2.225-3.142,5.487-2.328,8.547c0.813,3.06,3.204,5.451,6.264,6.264c3.061,0.813,6.322-0.076,8.547-2.329
			l23.897-23.896h58.138c4.875,0,8.828-3.952,8.828-8.828S234.393,141.241,229.517,141.241z"/>
		<path style="fill:#3F5C6C;" d="M476.69,141.241H353.103c-4.875,0-8.828,3.952-8.828,8.828s3.952,8.828,8.828,8.828h114.759
			v105.931H303.793l11.414-11.414c2.253-2.225,3.142-5.487,2.328-8.547c-0.813-3.06-3.204-5.451-6.264-6.264
			c-3.061-0.813-6.322,0.076-8.547,2.329l-23.897,23.896h-40.483c-4.875,0-8.828,3.952-8.828,8.828s3.952,8.828,8.828,8.828h40.483
			l23.896,23.896c3.453,3.41,9.012,3.393,12.443-0.039s3.449-8.99,0.039-12.443l-11.414-11.414H476.69
			c2.341,0.001,4.587-0.929,6.243-2.585c1.656-1.656,2.585-3.901,2.585-6.243V150.069c0.001-2.341-0.929-4.587-2.585-6.243
			C481.277,142.171,479.031,141.241,476.69,141.241z"/>
		<path style="fill:#3F5C6C;" d="M423.724,423.724h-40.483l-23.896-23.896c-3.453-3.41-9.012-3.393-12.443,0.039
			s-3.449,8.99-0.039,12.443l11.414,11.414H211.862c-4.875,0-8.828,3.952-8.828,8.828s3.952,8.828,8.828,8.828h146.414
			l-11.414,11.414c-2.253,2.225-3.142,5.487-2.328,8.547c0.813,3.06,3.204,5.451,6.264,6.264c3.061,0.813,6.322-0.076,8.547-2.329
			l23.897-23.896h40.483c4.875,0,8.828-3.952,8.828-8.828S428.599,423.724,423.724,423.724z"/>
		<path style="fill:#3F5C6C;" d="M187.966,338.035l-11.414,11.414v-49.31c0-4.875-3.952-8.828-8.828-8.828s-8.828,3.952-8.828,8.828
			v49.31l-11.414-11.414c-3.453-3.41-9.012-3.392-12.443,0.039c-3.432,3.432-3.449,8.99-0.039,12.443l23.896,23.897v40.483
			c0,4.875-4.875,17.655,0,17.655c8.07-3.195,14.46-9.585,17.655-17.655v-40.483l23.896-23.896c3.41-3.453,3.393-9.012-0.039-12.443
			C196.978,334.642,191.419,334.625,187.966,338.035z"/>
	</g>
	<g>
		<circle style="fill:#4C8056;" cx="70.621" cy="150.069" r="35.31"/>
		<circle style="fill:#4C8056;" cx="441.379" cy="432.552" r="35.31"/>
	</g>
	<path style="fill:#F0C419;" d="M220.69,114.759h141.241c4.875,0,8.828,3.952,8.828,8.828v52.966c0,4.875-3.952,8.828-8.828,8.828
		H220.69c-4.875,0-8.828-3.952-8.828-8.828v-52.966C211.862,118.711,215.814,114.759,220.69,114.759z"/>
	<path style="fill:#CC4B4C;" d="M97.103,238.345h141.241c4.875,0,8.828,3.952,8.828,8.828v52.966c0,4.875-3.952,8.828-8.828,8.828
		H97.103c-4.875,0-8.828-3.952-8.828-8.828v-52.966C88.276,242.297,92.228,238.345,97.103,238.345z"/>
	<polygon style="fill:#F0C419;" points="211.862,467.862 88.276,467.862 123.586,397.241 247.172,397.241 	"/>
</g>
<g>
</g>
<g>
</g>
<g>
</g>
<g>
</g>
<g>
</g>
<g>
</g>
<g>
</g>
<g>
</g>
<g>
</g>
<g>
</g>
<g>
</g>
<g>
</g>
<g>
</g>
<g>
</g>
<g>
</g>
</svg>
