<?xml version="1.0" encoding="iso-8859-1"?>
<!-- Generator: Adobe Illustrator 19.0.0, SVG Export Plug-In . SVG Version: 6.00 Build 0)  -->
<svg version="1.1" id="Capa_1" xmlns="http://www.w3.org/2000/svg" xmlns:xlink="http://www.w3.org/1999/xlink" x="0px" y="0px"
	 viewBox="0 0 512.027 512.027" style="enable-background:new 0 0 512.027 512.027;" xml:space="preserve">
<g transform="translate(0 -1)">
	<path style="fill:#D1D4D1;" d="M344.364,93.805c-6.452-21.7-19.772-40.72-37.959-54.201c-33.368-25.953-67.443-40.519-110.61-38.4
		c-21.585,1.511-43.033,4.58-64.177,9.181c-7.688,1.493-15.267,3.498-22.687,6.003c-15.553,4.661-29.714,13.091-41.225,24.541
		c-11.279,11.935-19.991,26.056-25.6,41.49c-2.631,7.657-4.783,15.469-6.444,23.393c-2.71,8.674-6.044,17.142-9.975,25.335
		c-1.079,2.534-1.562,5.283-1.412,8.033c1.324,9.181,15.272,13.241,15.36,22.775c-0.087,2.1-0.726,4.14-1.854,5.914
		c-8.183,17.241-18.249,33.524-30.014,48.552c-2.737,3.443-8.386,10.063-7.68,14.83c0.441,3.443,4.59,6.268,7.062,8.121
		c5.385,3.972,16.419,6.709,17.743,13.859c0.746,3.659,0.314,7.46-1.236,10.858c-3.708,7.768-7.857,12.006-4.943,14.389
		c2.825,2.56,10.77,8.386,10.77,8.386s-7.415,9.445-3.354,12.359c5.12,3.619,11.652,5.297,13.418,12.094
		c0.529,5.35-0.011,10.751-1.589,15.89c-0.551,5.057,0.115,10.172,1.942,14.919c2.488,9.509,12.015,15.381,21.628,13.33
		c19.871-4.789,39.468-10.653,58.703-17.567c23.128,10.417,33.192,51.553,33.192,51.553l58.439-0.177l86.069-127.735l3.001-4.502
		c1.147-3.443,2.472-6.797,3.884-10.152c7.592-17.214,20.833-30.808,30.897-46.61c9.952-15.363,15.312-33.248,15.448-51.553
		C351.509,130.18,349.22,111.692,344.364,93.805z"/>
	<path style="fill:#41767F;" d="M351.161,148.712c-0.137,18.305-5.496,36.19-15.448,51.553
		c-10.063,15.801-23.305,29.396-30.897,46.61c-1.412,3.354-2.737,6.709-3.884,10.152l-3.001,4.502l-6.709-4.502
		c-17.655-63.647-89.247-91.719-135.592-114.759c-53.319-26.483-46.61-125.705-46.61-125.705l-0.088-0.177
		c7.42-2.505,14.999-4.51,22.687-6.003c21.143-4.601,42.591-7.669,64.177-9.181c43.167-2.119,77.241,12.447,110.61,38.4
		c18.187,13.482,31.507,32.501,37.959,54.201C349.22,111.692,351.509,130.18,351.161,148.712z"/>
	<path style="fill:#A5A5A4;" d="M132.42,327.647c-4.225,0.001-7.858-2.991-8.668-7.138c-0.81-4.147,1.431-8.286,5.345-9.875
		l12.103-4.957c5.746-2.366,10.121-4.164,12.129-4.884c7.498-2.546,14.45-6.477,20.496-11.591c2.283-2.183,5.56-2.979,8.59-2.088
		c3.031,0.892,5.354,3.335,6.092,6.407c0.738,3.072-0.223,6.304-2.518,8.474c-7.779,6.795-16.804,12.016-26.573,15.371
		c-2.013,0.72-6.108,2.414-11.491,4.634l-12.19,4.996C134.682,327.425,133.557,327.646,132.42,327.647z"/>
	<circle style="fill:#67B9CC;" cx="238.344" cy="89.302" r="44.138"/>
	<path style="fill:#5E5F62;" d="M370.758,265.854c-4.875,0-8.828-3.952-8.828-8.828v-13.241
		c0.021-17.055,13.841-30.876,30.897-30.897h70.621c7.313,0,13.241-5.928,13.241-13.241s-5.928-13.241-13.241-13.241h-26.483
		c-17.064,0-30.897-13.833-30.897-30.897s13.833-30.897,30.897-30.897h44.138c7.313,0,13.241-5.928,13.241-13.241
		c0-7.313-5.928-13.241-13.241-13.241H238.344c-4.875,0-8.828-3.952-8.828-8.828s3.952-8.828,8.828-8.828h242.759
		c17.064,0,30.897,13.833,30.897,30.897s-13.833,30.897-30.897,30.897h-44.138c-7.313,0-13.241,5.928-13.241,13.241
		s5.928,13.241,13.241,13.241h26.483c17.064,0,30.897,13.833,30.897,30.897s-13.833,30.897-30.897,30.897h-70.621
		c-7.31,0.008-13.233,5.932-13.241,13.241v13.241C379.586,261.902,375.633,265.854,370.758,265.854z"/>
	<path style="fill:#8697CB;" d="M397.241,486.544h97.103V274.682c-0.029-9.739-7.916-17.627-17.655-17.655H229.517
		c-9.739,0.029-17.627,7.916-17.655,17.655v211.862H397.241z"/>
	<path style="fill:#BDC3C7;" d="M511.999,468.889v17.655c0.009,7.027-2.778,13.768-7.746,18.737
		c-4.969,4.969-11.71,7.756-18.737,7.746H220.689c-7.027,0.009-13.768-2.778-18.737-7.746s-7.756-11.71-7.746-18.737l0-17.655
		h114.759v8.828h88.276v-8.828H511.999z"/>
	<g>
		<path style="fill:#D25627;" d="M247.172,318.82c-0.563-0.016-1.123-0.075-1.677-0.177c-0.585-0.084-1.153-0.263-1.681-0.53
			c-0.562-0.195-1.095-0.463-1.586-0.797c-0.464-0.323-0.906-0.676-1.324-1.056c-3.462-3.461-3.462-9.074,0-12.535
			c3.461-3.462,9.074-3.462,12.535,0c0.353,0.44,0.707,0.879,1.056,1.323c0.334,0.491,0.603,1.025,0.797,1.586
			c0.253,0.501,0.432,1.037,0.53,1.59c0.236,1.165,0.236,2.365,0,3.53c-0.098,0.553-0.277,1.089-0.53,1.59
			c-0.194,0.563-0.462,1.098-0.797,1.591c-0.349,0.44-0.703,0.879-1.056,1.323C251.746,317.87,249.509,318.784,247.172,318.82z"/>
		<path style="fill:#D25627;" d="M247.172,354.13c-0.563-0.016-1.123-0.075-1.677-0.177c-0.585-0.084-1.153-0.263-1.681-0.53
			c-0.562-0.195-1.095-0.463-1.586-0.797c-0.444-0.349-0.884-0.703-1.323-1.056c-1.612-1.692-2.527-3.93-2.56-6.267
			c0.012-1.154,0.251-2.295,0.703-3.358c0.427-1.08,1.058-2.068,1.857-2.91c0.418-0.382,0.86-0.736,1.323-1.06
			c0.491-0.334,1.025-0.603,1.586-0.797c0.527-0.267,1.095-0.445,1.681-0.526c4.126-0.909,8.296,1.344,9.797,5.293
			c0.453,1.062,0.693,2.203,0.707,3.358c0.023,2.348-0.9,4.607-2.56,6.267C251.779,353.23,249.52,354.153,247.172,354.13z"/>
		<path style="fill:#D25627;" d="M247.172,389.44c-0.563-0.016-1.123-0.075-1.677-0.177c-0.585-0.084-1.153-0.263-1.681-0.53
			c-0.562-0.195-1.095-0.463-1.586-0.797c-0.444-0.349-0.884-0.703-1.323-1.056c-1.612-1.692-2.527-3.93-2.56-6.267
			c0.012-1.154,0.251-2.295,0.703-3.358c0.427-1.08,1.058-2.068,1.857-2.91c0.44-0.353,0.879-0.707,1.323-1.06
			c0.491-0.334,1.025-0.603,1.586-0.797c0.527-0.267,1.095-0.445,1.681-0.526c2.877-0.522,5.83,0.364,7.944,2.383
			c0.778,0.858,1.405,1.842,1.854,2.909c0.453,1.062,0.693,2.203,0.707,3.358c0.023,2.348-0.9,4.607-2.56,6.267
			C251.779,388.54,249.52,389.463,247.172,389.44z"/>
		<path style="fill:#D25627;" d="M247.172,424.751c-0.563-0.016-1.123-0.075-1.677-0.177c-0.585-0.084-1.153-0.263-1.681-0.53
			c-0.562-0.195-1.095-0.463-1.586-0.797c-0.464-0.323-0.906-0.676-1.324-1.056c-3.414-3.481-3.414-9.054,0-12.534
			c2.557-2.467,6.329-3.196,9.621-1.858c1.07,0.449,2.056,1.077,2.915,1.857c1.611,1.693,2.525,3.931,2.56,6.268
			c-0.02,0.591-0.079,1.18-0.177,1.763c-0.098,0.553-0.277,1.089-0.53,1.59c-0.194,0.563-0.462,1.098-0.797,1.591
			c-0.349,0.44-0.703,0.879-1.056,1.323C251.746,423.801,249.508,424.715,247.172,424.751z"/>
	</g>
	<path style="fill:#F0C419;" d="M317.793,318.82h-35.31c-4.875,0-8.828-3.952-8.828-8.828s3.952-8.828,8.828-8.828h35.31
		c4.875,0,8.828,3.952,8.828,8.828S322.668,318.82,317.793,318.82z"/>
	<path style="fill:#CC4B4C;" d="M317.793,354.13h-35.31c-4.875,0-8.828-3.952-8.828-8.828s3.952-8.828,8.828-8.828h35.31
		c4.875,0,8.828,3.952,8.828,8.828S322.668,354.13,317.793,354.13z"/>
	<path style="fill:#F0C419;" d="M317.793,389.44h-35.31c-4.875,0-8.828-3.952-8.828-8.828s3.952-8.828,8.828-8.828h35.31
		c4.875,0,8.828,3.952,8.828,8.828S322.668,389.44,317.793,389.44z"/>
	<g>
		<path style="fill:#CC4B4C;" d="M317.793,424.751h-35.31c-4.875,0-8.828-3.952-8.828-8.828s3.952-8.828,8.828-8.828h35.31
			c4.875,0,8.828,3.952,8.828,8.828S322.668,424.751,317.793,424.751z"/>
		<path style="fill:#CC4B4C;" d="M459.034,318.82H353.103c-4.875,0-8.828-3.952-8.828-8.828s3.952-8.828,8.828-8.828h105.931
			c4.875,0,8.828,3.952,8.828,8.828S463.909,318.82,459.034,318.82z"/>
	</g>
	<path style="fill:#41767F;" d="M459.034,354.13H353.103c-4.875,0-8.828-3.952-8.828-8.828s3.952-8.828,8.828-8.828h105.931
		c4.875,0,8.828,3.952,8.828,8.828S463.909,354.13,459.034,354.13z"/>
	<path style="fill:#CC4B4C;" d="M459.034,389.44H353.103c-4.875,0-8.828-3.952-8.828-8.828s3.952-8.828,8.828-8.828h105.931
		c4.875,0,8.828,3.952,8.828,8.828S463.909,389.44,459.034,389.44z"/>
	<path style="fill:#41767F;" d="M459.034,424.751H353.103c-4.875,0-8.828-3.952-8.828-8.828s3.952-8.828,8.828-8.828h105.931
		c4.875,0,8.828,3.952,8.828,8.828S463.909,424.751,459.034,424.751z"/>
</g>
<g>
</g>
<g>
</g>
<g>
</g>
<g>
</g>
<g>
</g>
<g>
</g>
<g>
</g>
<g>
</g>
<g>
</g>
<g>
</g>
<g>
</g>
<g>
</g>
<g>
</g>
<g>
</g>
<g>
</g>
</svg>
