<?xml version="1.0" encoding="iso-8859-1"?>
<!-- Generator: Adobe Illustrator 19.0.0, SVG Export Plug-In . SVG Version: 6.00 Build 0)  -->
<svg version="1.1" id="Capa_1" xmlns="http://www.w3.org/2000/svg" xmlns:xlink="http://www.w3.org/1999/xlink" x="0px" y="0px"
	 viewBox="0 0 512 512" style="enable-background:new 0 0 512 512;" xml:space="preserve">
<g>
	<g>
		<path style="fill:#67B9CC;" d="M238.353,141.242V70.621c-0.014-4.869-3.958-8.813-8.828-8.828H123.594l1.324-35.31h104.607
			c9.556-0.038,18.861,3.063,26.483,8.828c7.622-5.764,16.927-8.866,26.483-8.828l114.759,0v35.311H282.491
			c-4.869,0.014-8.813,3.958-8.828,8.828v70.621H238.353z"/>
		<g>
			<rect x="238.353" y="88.276" style="fill:#41767F;" width="35.31" height="52.966"/>
			<polygon style="fill:#41767F;" points="185.387,26.483 185.387,61.793 123.594,61.793 124.918,26.483 			"/>
			<rect x="335.456" y="26.483" style="fill:#41767F;" width="61.793" height="35.31"/>
		</g>
		<path style="fill:#A5A5A4;" d="M229.525,123.586h52.966c9.751,0,17.655,7.904,17.655,17.655v52.966H211.87v-52.966
			C211.87,131.491,219.775,123.586,229.525,123.586z"/>
		<path style="fill:#8697CB;" d="M379.578,0h105.931c4.875,0,8.828,3.952,8.828,8.828v114.759H370.751V8.828
			C370.751,3.952,374.703,0,379.578,0z"/>
		<path style="fill:#BDC3C7;" d="M432.544,141.242h70.621c3.344,0,6.4-1.889,7.896-4.88c1.495-2.991,1.173-6.569-0.834-9.244
			l-15.89-21.186H370.751l-15.89,21.186c-2.006,2.675-2.329,6.254-0.834,9.244c1.495,2.991,4.552,4.88,7.896,4.88H432.544z"/>
		<g>
			<path style="fill:#B0D3F0;" d="M423.732,44.138h-17.655c-4.875,0-8.828-3.952-8.828-8.828s3.952-8.828,8.828-8.828h17.655
				c4.875,0,8.828,3.952,8.828,8.828S428.607,44.138,423.732,44.138z"/>
			<path style="fill:#B0D3F0;" d="M459.042,44.138h-8.828c-4.875,0-8.828-3.952-8.828-8.828s3.952-8.828,8.828-8.828h8.828
				c4.875,0,8.828,3.952,8.828,8.828S463.918,44.138,459.042,44.138z"/>
		</g>
	</g>
	<path style="fill:#E64C3C;" d="M75.042,24.233c15.797-29.252,47.39-29.252,63.187-14.626s15.797,43.878,0,73.131
		c-11.058,21.939-39.492,43.878-63.187,58.504c-23.695-14.626-52.129-36.565-63.187-58.504c-15.796-29.253-15.796-58.504,0-73.131
		S59.245-5.019,75.042,24.233z"/>
	<g>
		<g>
			<path style="fill:#A5A5A4;" d="M344.296,512c-22.51-7.415-19.686-39.548-18.185-49.788H185.917
				c1.501,10.24,4.326,42.372-18.185,49.788H344.296z"/>
			<path style="fill:#A5A5A4;" d="M361.509,296.96c7.535-9.467,21.184-11.334,30.985-4.237c4.584,4.966,6.136,12.018,4.061,18.45
				c-2.551,10.096-6.099,19.914-10.593,29.308c-2.445,8.879-6.289,17.312-11.388,24.982c-2.263,2.977-5.669,4.872-9.392,5.224
				c-3.723,0.352-7.424-0.87-10.205-3.37H157.051c-2.781,2.5-6.482,3.722-10.205,3.37c-3.723-0.352-7.129-2.247-9.392-5.224
				c-5.098-7.67-8.942-16.103-11.388-24.982c-4.494-9.394-8.043-19.211-10.593-29.308c-2.076-6.432-0.524-13.484,4.061-18.45
				c9.801-7.097,23.449-5.23,30.985,4.237H361.509z"/>
		</g>
		<path style="fill:#D1D4D1;" d="M361.939,273.655c0,12.535-0.441,25.159-1.059,37.694c-0.53,10.593-1.236,21.186-2.472,31.691
			c-1.942,16.772-5.032,33.368-7.327,50.052c-1.815,15.792-5.672,31.281-11.476,46.08c-3.798,10.077-9.662,19.248-17.214,26.924
			c-6.921,6.147-14.234,11.838-21.892,17.037c-7.327,5.208-13.948,11.476-21.363,16.331c-7.207,3.389-15.224,4.674-23.128,3.708
			c-7.905,0.966-15.922-0.319-23.128-3.708c-7.415-4.855-14.036-11.122-21.363-16.331c-7.658-5.2-14.971-10.891-21.892-17.037
			c-7.552-7.677-13.415-16.848-17.214-26.924c-5.804-14.799-9.661-30.288-11.476-46.08c-2.295-16.684-5.385-33.28-7.327-50.052
			c-1.148-10.505-1.942-21.098-2.472-31.691c-0.618-12.535-1.059-25.159-1.059-37.694c0-65.501,29.749-93.837,57.732-105.931h96.397
			C332.19,179.818,361.939,208.155,361.939,273.655z"/>
		<path style="fill:#41767F;" d="M361.939,273.655c-9.601-12.495-21.607-22.94-35.31-30.72c-5.451-2.876-11.494-4.447-17.655-4.59
			c-6.015-0.038-11.99,0.978-17.655,3.001c-6.145,2.462-12.054,5.476-17.655,9.004c-5.285,3.405-11.375,5.354-17.655,5.65
			c-6.28-0.295-12.37-2.244-17.655-5.65c-5.601-3.528-11.51-6.542-17.655-9.004c-5.665-2.023-11.64-3.039-17.655-3.001
			c-6.161,0.143-12.205,1.715-17.655,4.59c-13.703,7.78-25.709,18.225-35.31,30.72c0-65.501,29.749-93.837,57.732-105.931h96.397
			C332.19,179.818,361.939,208.155,361.939,273.655z"/>
		<g>
			<path style="fill:#A5A5A4;" d="M247.086,335.63c0.058-4.82-3.731-8.811-8.547-9.004c-7.995-1.211-15.698-3.89-22.72-7.901
				c-9.319-5.414-19.701-8.743-30.431-9.759c-4.786,0.008-8.677,3.861-8.733,8.647c-0.058,4.82,3.731,8.811,8.547,9.004
				c7.995,1.211,15.698,3.89,22.72,7.901c9.319,5.414,19.701,8.743,30.431,9.759C243.139,344.268,247.03,340.415,247.086,335.63z"/>
			<path style="fill:#A5A5A4;" d="M326.629,308.966c-10.73,1.016-21.112,4.345-30.431,9.759c-6.975,3.966-14.609,6.641-22.534,7.897
				c-4.875,0-8.828,3.952-8.828,8.828s3.952,8.828,8.828,8.828c10.73-1.016,21.112-4.345,30.431-9.759
				c7.021-3.994,14.714-6.67,22.698-7.897c4.842-0.092,8.705-4.066,8.661-8.909C335.408,312.87,331.471,308.968,326.629,308.966z"/>
			<path style="fill:#A5A5A4;" d="M267.448,399.802c-3.09,3.2-7.079,5.386-11.44,6.268c-4.356-0.881-8.342-3.063-11.431-6.259
				c-3.457-3.414-9.022-3.392-12.452,0.047c-3.43,3.44-3.436,9.005-0.013,12.452c6.382,6.488,14.839,10.527,23.896,11.414
				c9.057-0.887,17.515-4.927,23.896-11.414c3.424-3.445,3.421-9.009-0.006-12.45C276.471,396.418,270.907,396.392,267.448,399.802z
				"/>
		</g>
		<g>
			<path style="fill:#67B9CC;" d="M211.87,203.035v8.828c-0.017,2.34-0.934,4.584-2.56,6.268l-6.268,6.179v14.036
				c-6.161,0.143-12.205,1.715-17.655,4.59V220.69c0.017-2.34,0.934-4.584,2.56-6.268l6.268-6.179v-5.208
				c0-4.875,3.952-8.828,8.828-8.828S211.87,198.159,211.87,203.035z"/>
			<path style="fill:#67B9CC;" d="M247.18,194.207v17.655c-0.017,2.34-0.934,4.584-2.56,6.268l-6.268,6.179v26.041
				c-5.601-3.528-11.51-6.542-17.655-9.004V220.69c0.017-2.34,0.934-4.584,2.56-6.268l6.268-6.179v-14.036
				c0-4.875,3.952-8.828,8.828-8.828S247.18,189.332,247.18,194.207z"/>
			<path style="fill:#67B9CC;" d="M326.629,220.69v22.246c-5.451-2.876-11.494-4.447-17.655-4.59v-14.036l-6.268-6.179
				c-1.626-1.683-2.543-3.927-2.56-6.268v-8.828c0-4.875,3.952-8.828,8.828-8.828s8.828,3.952,8.828,8.828v5.208l6.268,6.179
				C325.695,216.105,326.611,218.35,326.629,220.69z"/>
			<path style="fill:#67B9CC;" d="M291.318,220.69v20.657c-6.145,2.462-12.054,5.476-17.655,9.004v-26.041l-6.268-6.179
				c-1.626-1.683-2.543-3.927-2.56-6.268v-17.655c0-4.875,3.952-8.828,8.828-8.828s8.828,3.952,8.828,8.828v14.036l6.268,6.179
				C290.385,216.105,291.301,218.35,291.318,220.69z"/>
		</g>
	</g>
</g>
<g>
</g>
<g>
</g>
<g>
</g>
<g>
</g>
<g>
</g>
<g>
</g>
<g>
</g>
<g>
</g>
<g>
</g>
<g>
</g>
<g>
</g>
<g>
</g>
<g>
</g>
<g>
</g>
<g>
</g>
</svg>
