<?xml version="1.0" encoding="iso-8859-1"?>
<!-- Generator: Adobe Illustrator 19.0.0, SVG Export Plug-In . SVG Version: 6.00 Build 0)  -->
<svg version="1.1" id="Capa_1" xmlns="http://www.w3.org/2000/svg" xmlns:xlink="http://www.w3.org/1999/xlink" x="0px" y="0px"
	 viewBox="0 0 512 512" style="enable-background:new 0 0 512 512;" xml:space="preserve">
<g>
	<path style="fill:#8697CB;" d="M512,52.966v441.379c-0.029,9.739-7.916,17.627-17.655,17.655H17.655
		C7.916,511.971,0.029,504.084,0,494.345V52.966H512z"/>
	<path style="fill:#A5A5A4;" d="M512,17.655v52.966H0V17.655C0.028,7.916,7.916,0.028,17.655,0h476.69
		C504.084,0.028,511.972,7.916,512,17.655z"/>
	<path style="fill:#E64C3C;" d="M35.31,44.138c-2.34-0.017-4.585-0.933-6.268-2.56c-0.779-0.859-1.406-1.844-1.854-2.914
		c-0.943-2.138-0.943-4.573,0-6.711c0.405-1.09,1.037-2.082,1.854-2.91c0.417-0.381,0.858-0.735,1.319-1.06
		c0.494-0.335,1.03-0.604,1.595-0.797c0.499-0.254,1.034-0.431,1.586-0.526c1.72-0.361,3.51-0.177,5.121,0.526
		c1.081,0.427,2.07,1.058,2.914,1.858c3.414,3.481,3.414,9.054,0,12.535c-0.44,0.353-0.888,0.707-1.414,1.056
		c-0.45,0.351-0.958,0.62-1.5,0.797C37.603,43.884,36.464,44.124,35.31,44.138z"/>
	<path style="fill:#F0C419;" d="M70.621,44.138c-2.337-0.035-4.575-0.949-6.268-2.56c-0.779-0.859-1.406-1.844-1.854-2.914
		c-0.452-1.061-0.692-2.2-0.706-3.354c0.014-2.341,0.931-4.586,2.56-6.268c2.525-2.546,6.341-3.312,9.653-1.937
		c3.312,1.375,5.463,4.618,5.442,8.204c-0.035,2.337-0.949,4.574-2.56,6.268C75.204,43.202,72.96,44.118,70.621,44.138z"/>
	<path style="fill:#14A085;" d="M105.931,44.138c-2.348,0.023-4.607-0.9-6.267-2.56c-1.66-1.66-2.583-3.919-2.56-6.267
		c0.031-2.338,0.945-4.577,2.56-6.268c2.113-2.019,5.064-2.905,7.94-2.383c0.586,0.081,1.154,0.259,1.681,0.526
		c0.562,0.194,1.095,0.462,1.586,0.797c0.464,0.325,0.908,0.679,1.328,1.06c3.414,3.481,3.414,9.054,0,12.534
		c-0.42,0.379-0.863,0.732-1.328,1.056c-0.491,0.335-1.024,0.603-1.586,0.797c-0.528,0.266-1.096,0.445-1.681,0.53
		C107.052,44.062,106.492,44.122,105.931,44.138z"/>
	<g>
		<path style="fill:#E6E7E8;" d="M317.793,44.138H194.207c-4.875,0-8.828-3.952-8.828-8.828s3.952-8.828,8.828-8.828h123.586
			c4.875,0,8.828,3.952,8.828,8.828S322.668,44.138,317.793,44.138z"/>
		<path style="fill:#E6E7E8;" d="M476.69,44.138h-8.828c-4.875,0-8.828-3.952-8.828-8.828s3.952-8.828,8.828-8.828h8.828
			c4.875,0,8.828,3.952,8.828,8.828S481.565,44.138,476.69,44.138z"/>
		<path style="fill:#E6E7E8;" d="M432.552,44.138h-8.828c-4.875,0-8.828-3.952-8.828-8.828s3.952-8.828,8.828-8.828h8.828
			c4.875,0,8.828,3.952,8.828,8.828S437.427,44.138,432.552,44.138z"/>
		<path style="fill:#E6E7E8;" d="M105.931,238.345H88.276c-9.746-0.011-17.644-7.909-17.655-17.655v-17.655
			c0.011-9.746,7.909-17.644,17.655-17.655h17.655c9.746,0.011,17.644,7.909,17.655,17.655v17.655
			C123.575,230.436,115.677,238.334,105.931,238.345z M88.276,203.034v17.655h17.664l-0.009-17.655H88.276z"/>
		<path style="fill:#E6E7E8;" d="M141.241,397.241h-17.655c-9.746-0.011-17.644-7.909-17.655-17.655v-17.655
			c0.011-9.746,7.909-17.644,17.655-17.655h17.655c9.746,0.011,17.644,7.909,17.655,17.655v17.655
			C158.885,389.332,150.987,397.23,141.241,397.241z M123.586,361.931v17.655h17.664l-0.009-17.655H123.586z"/>
		<path style="fill:#E6E7E8;" d="M70.621,476.69H52.966c-9.746-0.011-17.644-7.909-17.655-17.655v-17.655
			c0.011-9.746,7.909-17.644,17.655-17.655h17.655c9.746,0.011,17.644,7.909,17.655,17.655v17.655
			C88.265,468.781,80.367,476.678,70.621,476.69z M52.966,441.379v17.655H70.63l-0.009-17.655H52.966z"/>
		<path style="fill:#E6E7E8;" d="M44.138,238.345c-2.341,0.001-4.587-0.929-6.243-2.585c-1.656-1.656-2.585-3.901-2.585-6.243
			v-35.31c0-4.875,3.952-8.828,8.828-8.828s8.828,3.952,8.828,8.828v35.31c0.001,2.341-0.929,4.587-2.585,6.243
			C48.725,237.416,46.479,238.345,44.138,238.345z"/>
		<path style="fill:#E6E7E8;" d="M150.069,238.345c-2.341,0.001-4.587-0.929-6.243-2.585c-1.656-1.656-2.585-3.901-2.585-6.243
			v-35.31c0-4.875,3.952-8.828,8.828-8.828s8.828,3.952,8.828,8.828v35.31c0.001,2.341-0.929,4.587-2.585,6.243
			C154.656,237.416,152.41,238.345,150.069,238.345z"/>
		<path style="fill:#E6E7E8;" d="M185.379,238.345c-2.341,0.001-4.587-0.929-6.243-2.585c-1.656-1.656-2.585-3.901-2.585-6.243
			v-35.31c0-4.875,3.952-8.828,8.828-8.828c4.875,0,8.828,3.952,8.828,8.828v35.31c0.001,2.341-0.929,4.587-2.585,6.243
			C189.966,237.416,187.721,238.345,185.379,238.345z"/>
		<path style="fill:#E6E7E8;" d="M44.138,397.241c-2.341,0.001-4.587-0.929-6.243-2.585c-1.656-1.656-2.585-3.901-2.585-6.243
			v-35.31c0-4.875,3.952-8.828,8.828-8.828s8.828,3.952,8.828,8.828v35.31c0.001,2.341-0.929,4.587-2.585,6.243
			C48.725,396.312,46.479,397.242,44.138,397.241z"/>
		<path style="fill:#E6E7E8;" d="M79.448,397.241c-2.341,0.001-4.587-0.929-6.243-2.585c-1.656-1.656-2.585-3.901-2.585-6.243
			v-35.31c0-4.875,3.952-8.828,8.828-8.828s8.828,3.952,8.828,8.828v35.31c0.001,2.341-0.929,4.587-2.585,6.243
			C84.035,396.312,81.79,397.242,79.448,397.241z"/>
		<path style="fill:#E6E7E8;" d="M114.759,476.69c-2.341,0.001-4.587-0.929-6.243-2.585c-1.656-1.656-2.585-3.901-2.585-6.243
			v-35.31c0-4.875,3.952-8.828,8.828-8.828c4.875,0,8.828,3.952,8.828,8.828v35.31c0.001,2.341-0.929,4.587-2.585,6.243
			C119.346,475.76,117.1,476.69,114.759,476.69z"/>
		<path style="fill:#E6E7E8;" d="M150.069,476.69c-2.341,0.001-4.587-0.929-6.243-2.585c-1.656-1.656-2.585-3.901-2.585-6.243
			v-35.31c0-4.875,3.952-8.828,8.828-8.828s8.828,3.952,8.828,8.828v35.31c0.001,2.341-0.929,4.587-2.585,6.243
			C154.656,475.76,152.41,476.69,150.069,476.69z"/>
		<path style="fill:#E6E7E8;" d="M256,397.241c-2.341,0.001-4.587-0.929-6.243-2.585c-1.656-1.656-2.585-3.901-2.585-6.243v-35.31
			c0-4.875,3.952-8.828,8.828-8.828s8.828,3.952,8.828,8.828v35.31c0.001,2.341-0.929,4.587-2.585,6.243
			C260.587,396.312,258.341,397.242,256,397.241z"/>
		<path style="fill:#E6E7E8;" d="M317.793,238.345h-17.655c-9.746-0.011-17.644-7.909-17.655-17.655v-17.655
			c0.011-9.746,7.909-17.644,17.655-17.655h17.655c9.746,0.011,17.644,7.909,17.655,17.655v17.655
			C335.437,230.436,327.539,238.334,317.793,238.345z M300.138,203.034v17.655h17.664l-0.009-17.655H300.138z"/>
		<path style="fill:#E6E7E8;" d="M423.724,238.345h-17.655c-9.746-0.011-17.644-7.909-17.655-17.655v-17.655
			c0.011-9.746,7.909-17.644,17.655-17.655h17.655c9.746,0.011,17.644,7.909,17.655,17.655v17.655
			C441.368,230.436,433.47,238.334,423.724,238.345z M406.069,203.034v17.655h17.664l-0.009-17.655H406.069z"/>
		<path style="fill:#E6E7E8;" d="M247.172,238.345h-17.655c-9.746-0.011-17.644-7.909-17.655-17.655v-17.655
			c0.011-9.746,7.909-17.644,17.655-17.655h17.655c9.746,0.011,17.644,7.909,17.655,17.655v17.655
			C264.816,230.436,256.918,238.334,247.172,238.345z M229.517,203.034v17.655h17.664l-0.009-17.655H229.517z"/>
		<path style="fill:#E6E7E8;" d="M211.862,397.241h-17.655c-9.746-0.011-17.644-7.909-17.655-17.655v-17.655
			c0.011-9.746,7.909-17.644,17.655-17.655h17.655c9.746,0.011,17.644,7.909,17.655,17.655v17.655
			C229.506,389.332,221.608,397.23,211.862,397.241z M194.207,361.931v17.655h17.664l-0.009-17.655H194.207z"/>
		<path style="fill:#E6E7E8;" d="M211.862,476.69h-17.655c-9.746-0.011-17.644-7.909-17.655-17.655v-17.655
			c0.011-9.746,7.909-17.644,17.655-17.655h17.655c9.746,0.011,17.644,7.909,17.655,17.655v17.655
			C229.506,468.781,221.608,476.678,211.862,476.69z M194.207,441.379v17.655h17.664l-0.009-17.655H194.207z"/>
		<path style="fill:#E6E7E8;" d="M317.793,397.241h-17.655c-9.746-0.011-17.644-7.909-17.655-17.655v-17.655
			c0.011-9.746,7.909-17.644,17.655-17.655h17.655c9.746,0.011,17.644,7.909,17.655,17.655v17.655
			C335.437,389.332,327.539,397.23,317.793,397.241z M300.138,361.931v17.655h17.664l-0.009-17.655H300.138z"/>
		<path style="fill:#E6E7E8;" d="M353.103,476.69h-17.655c-9.746-0.011-17.644-7.909-17.655-17.655v-17.655
			c0.011-9.746,7.909-17.644,17.655-17.655h17.655c9.746,0.011,17.644,7.909,17.655,17.655v17.655
			C370.747,468.781,362.85,476.678,353.103,476.69z M335.448,441.379v17.655h17.664l-0.009-17.655H335.448z"/>
		<path style="fill:#E6E7E8;" d="M459.034,476.69h-17.655c-9.746-0.011-17.644-7.909-17.655-17.655v-17.655
			c0.011-9.746,7.909-17.644,17.655-17.655h17.655c9.746,0.011,17.644,7.909,17.655,17.655v17.655
			C476.678,468.781,468.781,476.678,459.034,476.69z M441.379,441.379v17.655h17.664l-0.009-17.655H441.379z"/>
		<path style="fill:#E6E7E8;" d="M361.931,238.345c-2.341,0.001-4.587-0.929-6.243-2.585c-1.656-1.656-2.585-3.901-2.585-6.243
			v-35.31c0-4.875,3.952-8.828,8.828-8.828s8.828,3.952,8.828,8.828v35.31c0.001,2.341-0.929,4.587-2.585,6.243
			C366.518,237.416,364.272,238.345,361.931,238.345z"/>
		<path style="fill:#E6E7E8;" d="M361.931,397.241c-2.341,0.001-4.587-0.929-6.243-2.585c-1.656-1.656-2.585-3.901-2.585-6.243
			v-35.31c0-4.875,3.952-8.828,8.828-8.828s8.828,3.952,8.828,8.828v35.31c0.001,2.341-0.929,4.587-2.585,6.243
			C366.518,396.312,364.272,397.242,361.931,397.241z"/>
		<path style="fill:#E6E7E8;" d="M397.241,476.69c-2.341,0.001-4.587-0.929-6.243-2.585c-1.656-1.656-2.585-3.901-2.585-6.243
			v-35.31c0-4.875,3.952-8.828,8.828-8.828c4.875,0,8.828,3.952,8.828,8.828v35.31c0.001,2.341-0.929,4.587-2.585,6.243
			C401.828,475.76,399.583,476.69,397.241,476.69z"/>
		<path style="fill:#E6E7E8;" d="M397.241,397.241c-2.341,0.001-4.587-0.929-6.243-2.585c-1.656-1.656-2.585-3.901-2.585-6.243
			v-35.31c0-4.875,3.952-8.828,8.828-8.828c4.875,0,8.828,3.952,8.828,8.828v35.31c0.001,2.341-0.929,4.587-2.585,6.243
			C401.828,396.312,399.583,397.242,397.241,397.241z"/>
		<path style="fill:#E6E7E8;" d="M256,476.69c-2.341,0.001-4.587-0.929-6.243-2.585c-1.656-1.656-2.585-3.901-2.585-6.243v-35.31
			c0-4.875,3.952-8.828,8.828-8.828s8.828,3.952,8.828,8.828v35.31c0.001,2.341-0.929,4.587-2.585,6.243
			C260.587,475.76,258.341,476.69,256,476.69z"/>
		<path style="fill:#E6E7E8;" d="M291.31,476.69c-2.341,0.001-4.587-0.929-6.243-2.585c-1.656-1.656-2.585-3.901-2.585-6.243v-35.31
			c0-4.875,3.952-8.828,8.828-8.828s8.828,3.952,8.828,8.828v35.31c0.001,2.341-0.929,4.587-2.585,6.243
			C295.897,475.76,293.652,476.69,291.31,476.69z"/>
		<path style="fill:#E6E7E8;" d="M459.034,317.793h-17.655c-9.746-0.011-17.644-7.909-17.655-17.655v-17.655
			c0.011-9.746,7.909-17.644,17.655-17.655h17.655c9.746,0.011,17.644,7.909,17.655,17.655v17.655
			C476.678,309.884,468.781,317.782,459.034,317.793z M441.379,282.483v17.655h17.655v-17.655H441.379z"/>
		<path style="fill:#E6E7E8;" d="M397.241,317.793c-2.341,0.001-4.587-0.929-6.243-2.585c-1.656-1.656-2.585-3.901-2.585-6.243
			v-35.31c0-4.875,3.952-8.828,8.828-8.828c4.875,0,8.828,3.952,8.828,8.828v35.31c0.001,2.341-0.929,4.587-2.585,6.243
			C401.828,316.864,399.583,317.794,397.241,317.793z"/>
		<path style="fill:#E6E7E8;" d="M361.931,317.793c-2.341,0.001-4.587-0.929-6.243-2.585c-1.656-1.656-2.585-3.901-2.585-6.243
			v-35.31c0-4.875,3.952-8.828,8.828-8.828s8.828,3.952,8.828,8.828v35.31c0.001,2.341-0.929,4.587-2.585,6.243
			C366.518,316.864,364.272,317.794,361.931,317.793z"/>
		<path style="fill:#E6E7E8;" d="M317.793,317.793h-17.655c-9.746-0.011-17.644-7.909-17.655-17.655v-17.655
			c0.011-9.746,7.909-17.644,17.655-17.655h17.655c9.746,0.011,17.644,7.909,17.655,17.655v17.655
			C335.437,309.884,327.539,317.782,317.793,317.793z M300.138,282.483v17.655h17.655v-17.655H300.138z"/>
		<path style="fill:#E6E7E8;" d="M176.552,317.793h-17.655c-9.746-0.011-17.644-7.909-17.655-17.655v-17.655
			c0.011-9.746,7.909-17.644,17.655-17.655h17.655c9.746,0.011,17.644,7.909,17.655,17.655v17.655
			C194.196,309.884,186.298,317.782,176.552,317.793z M158.897,282.483v17.655h17.655v-17.655H158.897z"/>
		<path style="fill:#E6E7E8;" d="M70.621,317.793H52.966c-9.746-0.011-17.644-7.909-17.655-17.655v-17.655
			c0.011-9.746,7.909-17.644,17.655-17.655h17.655c9.746,0.011,17.644,7.909,17.655,17.655v17.655
			C88.265,309.884,80.367,317.782,70.621,317.793z M52.966,282.483v17.655h17.655v-17.655H52.966z"/>
		<path style="fill:#E6E7E8;" d="M114.759,317.793c-2.341,0.001-4.587-0.929-6.243-2.585c-1.656-1.656-2.585-3.901-2.585-6.243
			v-35.31c0-4.875,3.952-8.828,8.828-8.828c4.875,0,8.828,3.952,8.828,8.828v35.31c0.001,2.341-0.929,4.587-2.585,6.243
			C119.346,316.864,117.1,317.794,114.759,317.793z"/>
		<path style="fill:#E6E7E8;" d="M256,317.793c-2.341,0.001-4.587-0.929-6.243-2.585c-1.656-1.656-2.585-3.901-2.585-6.243v-35.31
			c0-4.875,3.952-8.828,8.828-8.828s8.828,3.952,8.828,8.828v35.31c0.001,2.341-0.929,4.587-2.585,6.243
			C260.587,316.864,258.341,317.794,256,317.793z"/>
		<path style="fill:#E6E7E8;" d="M220.69,317.793c-2.341,0.001-4.587-0.929-6.243-2.585c-1.656-1.656-2.585-3.901-2.585-6.243
			v-35.31c0-4.875,3.952-8.828,8.828-8.828s8.828,3.952,8.828,8.828v35.31c0.001,2.341-0.929,4.587-2.585,6.243
			C225.277,316.864,223.031,317.794,220.69,317.793z"/>
		<path style="fill:#E6E7E8;" d="M432.552,397.241c-2.341,0.001-4.587-0.929-6.243-2.585c-1.656-1.656-2.585-3.901-2.585-6.243
			v-35.31c0-4.875,3.952-8.828,8.828-8.828s8.828,3.952,8.828,8.828v35.31c0.001,2.341-0.929,4.587-2.585,6.243
			C437.139,396.312,434.893,397.242,432.552,397.241z"/>
		<path style="fill:#E6E7E8;" d="M467.862,397.241c-2.341,0.001-4.587-0.929-6.243-2.585c-1.656-1.656-2.585-3.901-2.585-6.243
			v-35.31c0-4.875,3.952-8.828,8.828-8.828s8.828,3.952,8.828,8.828v35.31c0.001,2.341-0.929,4.587-2.585,6.243
			C472.449,396.312,470.203,397.242,467.862,397.241z"/>
		<path style="fill:#E6E7E8;" d="M388.414,158.897h-17.655c-9.746-0.011-17.644-7.909-17.655-17.655v-17.655
			c0.011-9.746,7.909-17.644,17.655-17.655h17.655c9.746,0.011,17.644,7.909,17.655,17.655v17.655
			C406.058,150.987,398.16,158.885,388.414,158.897z M370.759,123.586v17.655h17.655v-17.655H370.759z"/>
		<path style="fill:#E6E7E8;" d="M467.862,158.897c-2.341,0.001-4.587-0.929-6.243-2.585c-1.656-1.656-2.585-3.901-2.585-6.243
			v-35.31c0-4.875,3.952-8.828,8.828-8.828s8.828,3.952,8.828,8.828v35.31c0.001,2.341-0.929,4.587-2.585,6.243
			C472.449,157.967,470.203,158.897,467.862,158.897z"/>
		<path style="fill:#E6E7E8;" d="M432.552,158.897c-2.341,0.001-4.587-0.929-6.243-2.585c-1.656-1.656-2.585-3.901-2.585-6.243
			v-35.31c0-4.875,3.952-8.828,8.828-8.828s8.828,3.952,8.828,8.828v35.31c0.001,2.341-0.929,4.587-2.585,6.243
			C437.139,157.967,434.893,158.897,432.552,158.897z"/>
		<path style="fill:#E6E7E8;" d="M256,158.897c-2.341,0.001-4.587-0.929-6.243-2.585c-1.656-1.656-2.585-3.901-2.585-6.243v-35.31
			c0-4.875,3.952-8.828,8.828-8.828s8.828,3.952,8.828,8.828v35.31c0.001,2.341-0.929,4.587-2.585,6.243
			C260.587,157.967,258.341,158.897,256,158.897z"/>
		<path style="fill:#E6E7E8;" d="M317.793,158.897h-17.655c-9.746-0.011-17.644-7.909-17.655-17.655v-17.655
			c0.011-9.746,7.909-17.644,17.655-17.655h17.655c9.746,0.011,17.644,7.909,17.655,17.655v17.655
			C335.437,150.987,327.539,158.885,317.793,158.897z M300.138,123.586v17.655h17.655v-17.655H300.138z"/>
		<path style="fill:#E6E7E8;" d="M211.862,158.897h-17.655c-9.746-0.011-17.644-7.909-17.655-17.655v-17.655
			c0.011-9.746,7.909-17.644,17.655-17.655h17.655c9.746,0.011,17.644,7.909,17.655,17.655v17.655
			C229.506,150.987,221.608,158.885,211.862,158.897z M194.207,123.586v17.655h17.655v-17.655H194.207z"/>
		<path style="fill:#E6E7E8;" d="M150.069,158.897c-2.341,0.001-4.587-0.929-6.243-2.585c-1.656-1.656-2.585-3.901-2.585-6.243
			v-35.31c0-4.875,3.952-8.828,8.828-8.828s8.828,3.952,8.828,8.828v35.31c0.001,2.341-0.929,4.587-2.585,6.243
			C154.656,157.967,152.41,158.897,150.069,158.897z"/>
		<path style="fill:#E6E7E8;" d="M114.759,158.897c-2.341,0.001-4.587-0.929-6.243-2.585c-1.656-1.656-2.585-3.901-2.585-6.243
			v-35.31c0-4.875,3.952-8.828,8.828-8.828c4.875,0,8.828,3.952,8.828,8.828v35.31c0.001,2.341-0.929,4.587-2.585,6.243
			C119.346,157.967,117.1,158.897,114.759,158.897z"/>
		<path style="fill:#E6E7E8;" d="M79.448,158.897c-2.341,0.001-4.587-0.929-6.243-2.585c-1.656-1.656-2.585-3.901-2.585-6.243
			v-35.31c0-4.875,3.952-8.828,8.828-8.828s8.828,3.952,8.828,8.828v35.31c0.001,2.341-0.929,4.587-2.585,6.243
			C84.035,157.967,81.79,158.897,79.448,158.897z"/>
		<path style="fill:#E6E7E8;" d="M44.138,158.897c-2.341,0.001-4.587-0.929-6.243-2.585c-1.656-1.656-2.585-3.901-2.585-6.243
			v-35.31c0-4.875,3.952-8.828,8.828-8.828s8.828,3.952,8.828,8.828v35.31c0.001,2.341-0.929,4.587-2.585,6.243
			C48.725,157.967,46.479,158.897,44.138,158.897z"/>
		<path style="fill:#E6E7E8;" d="M467.862,238.345c-2.341,0.001-4.587-0.929-6.243-2.585c-1.656-1.656-2.585-3.901-2.585-6.243
			v-35.31c0-4.875,3.952-8.828,8.828-8.828s8.828,3.952,8.828,8.828v35.31c0.001,2.341-0.929,4.587-2.585,6.243
			C472.449,237.416,470.203,238.345,467.862,238.345z"/>
	</g>
</g>
<g>
</g>
<g>
</g>
<g>
</g>
<g>
</g>
<g>
</g>
<g>
</g>
<g>
</g>
<g>
</g>
<g>
</g>
<g>
</g>
<g>
</g>
<g>
</g>
<g>
</g>
<g>
</g>
<g>
</g>
</svg>
