<?xml version="1.0" encoding="iso-8859-1"?>
<!-- Generator: Adobe Illustrator 19.0.0, SVG Export Plug-In . SVG Version: 6.00 Build 0)  -->
<svg version="1.1" id="Capa_1" xmlns="http://www.w3.org/2000/svg" xmlns:xlink="http://www.w3.org/1999/xlink" x="0px" y="0px"
	 viewBox="0 0 512 512" style="enable-background:new 0 0 512 512;" xml:space="preserve">
<g>
	<path style="fill:#41767F;" d="M35.31,0H476.69C496.191,0,512,15.809,512,35.31V476.69c0,19.501-15.809,35.31-35.31,35.31H35.31
		C15.809,512,0,496.191,0,476.69V35.31C0,15.809,15.809,0,35.31,0z"/>
	<g>
		<path style="fill:#BDC3C7;" d="M150.069,70.621c-4.875,0-8.828-3.952-8.828-8.828V35.31c0-4.875,3.952-8.828,8.828-8.828
			s8.828,3.952,8.828,8.828v26.483C158.897,66.668,154.944,70.621,150.069,70.621z"/>
		<path style="fill:#BDC3C7;" d="M220.69,70.621c-4.875,0-8.828-3.952-8.828-8.828V35.31c0-4.875,3.952-8.828,8.828-8.828
			s8.828,3.952,8.828,8.828v26.483C229.517,66.668,225.565,70.621,220.69,70.621z"/>
		<path style="fill:#BDC3C7;" d="M291.31,70.621c-4.875,0-8.828-3.952-8.828-8.828V35.31c0-4.875,3.952-8.828,8.828-8.828
			s8.828,3.952,8.828,8.828v26.483C300.138,66.668,296.186,70.621,291.31,70.621z"/>
		<path style="fill:#BDC3C7;" d="M361.931,70.621c-4.875,0-8.828-3.952-8.828-8.828V35.31c0-4.875,3.952-8.828,8.828-8.828
			s8.828,3.952,8.828,8.828v26.483C370.759,66.668,366.806,70.621,361.931,70.621z"/>
		<path style="fill:#BDC3C7;" d="M361.931,485.517c-4.875,0-8.828-3.952-8.828-8.828v-26.483c0-4.875,3.952-8.828,8.828-8.828
			s8.828,3.952,8.828,8.828v26.483C370.759,481.565,366.806,485.517,361.931,485.517z"/>
		<path style="fill:#BDC3C7;" d="M291.31,485.517c-4.875,0-8.828-3.952-8.828-8.828v-26.483c0-4.875,3.952-8.828,8.828-8.828
			s8.828,3.952,8.828,8.828v26.483C300.138,481.565,296.186,485.517,291.31,485.517z"/>
		<path style="fill:#BDC3C7;" d="M220.69,485.517c-4.875,0-8.828-3.952-8.828-8.828v-26.483c0-4.875,3.952-8.828,8.828-8.828
			s8.828,3.952,8.828,8.828v26.483C229.517,481.565,225.565,485.517,220.69,485.517z"/>
		<path style="fill:#BDC3C7;" d="M150.069,485.517c-4.875,0-8.828-3.952-8.828-8.828v-26.483c0-4.875,3.952-8.828,8.828-8.828
			s8.828,3.952,8.828,8.828v26.483C158.897,481.565,154.944,485.517,150.069,485.517z"/>
		<path style="fill:#BDC3C7;" d="M61.793,370.759H35.31c-4.875,0-8.828-3.952-8.828-8.828s3.952-8.828,8.828-8.828h26.483
			c4.875,0,8.828,3.952,8.828,8.828S66.668,370.759,61.793,370.759z"/>
		<path style="fill:#BDC3C7;" d="M61.793,300.138H35.31c-4.875,0-8.828-3.952-8.828-8.828s3.952-8.828,8.828-8.828h26.483
			c4.875,0,8.828,3.952,8.828,8.828S66.668,300.138,61.793,300.138z"/>
		<path style="fill:#BDC3C7;" d="M61.793,229.517H35.31c-4.875,0-8.828-3.952-8.828-8.828s3.952-8.828,8.828-8.828h26.483
			c4.875,0,8.828,3.952,8.828,8.828S66.668,229.517,61.793,229.517z"/>
		<path style="fill:#BDC3C7;" d="M61.793,158.897H35.31c-4.875,0-8.828-3.952-8.828-8.828s3.952-8.828,8.828-8.828h26.483
			c4.875,0,8.828,3.952,8.828,8.828S66.668,158.897,61.793,158.897z"/>
		<path style="fill:#BDC3C7;" d="M476.69,158.897h-26.483c-4.875,0-8.828-3.952-8.828-8.828s3.952-8.828,8.828-8.828h26.483
			c4.875,0,8.828,3.952,8.828,8.828S481.565,158.897,476.69,158.897z"/>
		<path style="fill:#BDC3C7;" d="M476.69,229.517h-26.483c-4.875,0-8.828-3.952-8.828-8.828s3.952-8.828,8.828-8.828h26.483
			c4.875,0,8.828,3.952,8.828,8.828S481.565,229.517,476.69,229.517z"/>
		<path style="fill:#BDC3C7;" d="M476.69,300.138h-26.483c-4.875,0-8.828-3.952-8.828-8.828s3.952-8.828,8.828-8.828h26.483
			c4.875,0,8.828,3.952,8.828,8.828S481.565,300.138,476.69,300.138z"/>
		<path style="fill:#BDC3C7;" d="M476.69,370.759h-26.483c-4.875,0-8.828-3.952-8.828-8.828s3.952-8.828,8.828-8.828h26.483
			c4.875,0,8.828,3.952,8.828,8.828S481.565,370.759,476.69,370.759z"/>
		<path style="fill:#BDC3C7;" d="M414.897,114.759v282.483c0,9.751-7.904,17.655-17.655,17.655H114.759
			c-9.751,0-17.655-7.904-17.655-17.655V114.759c0-9.751,7.905-17.655,17.655-17.655h282.483
			C406.992,97.103,414.897,105.008,414.897,114.759z"/>
	</g>
	<g>
		<path style="fill:#95A5A5;" d="M141.241,61.793h17.655c4.875,0,8.828,3.952,8.828,8.828v26.483h-35.31V70.621
			C132.414,65.745,136.366,61.793,141.241,61.793z"/>
		<path style="fill:#95A5A5;" d="M211.862,61.793h17.655c4.875,0,8.828,3.952,8.828,8.828v26.483h-35.31V70.621
			C203.034,65.745,206.987,61.793,211.862,61.793z"/>
		<path style="fill:#95A5A5;" d="M282.483,61.793h17.655c4.875,0,8.828,3.952,8.828,8.828v26.483h-35.31V70.621
			C273.655,65.745,277.607,61.793,282.483,61.793z"/>
		<path style="fill:#95A5A5;" d="M353.103,61.793h17.655c4.875,0,8.828,3.952,8.828,8.828v26.483h-35.31V70.621
			C344.276,65.745,348.228,61.793,353.103,61.793z"/>
		<path style="fill:#95A5A5;" d="M370.759,450.207h-17.655c-4.875,0-8.828-3.952-8.828-8.828v-26.483h35.31v26.483
			C379.586,446.255,375.634,450.207,370.759,450.207z"/>
		<path style="fill:#95A5A5;" d="M300.138,450.207h-17.655c-4.875,0-8.828-3.952-8.828-8.828v-26.483h35.31v26.483
			C308.966,446.255,305.013,450.207,300.138,450.207z"/>
		<path style="fill:#95A5A5;" d="M229.517,450.207h-17.655c-4.875,0-8.828-3.952-8.828-8.828v-26.483h35.31v26.483
			C238.345,446.255,234.393,450.207,229.517,450.207z"/>
		<path style="fill:#95A5A5;" d="M158.897,450.207h-17.655c-4.875,0-8.828-3.952-8.828-8.828v-26.483h35.31v26.483
			C167.724,446.255,163.772,450.207,158.897,450.207z"/>
		<path style="fill:#95A5A5;" d="M61.793,370.759v-17.655c0-4.875,3.952-8.828,8.828-8.828h26.483v35.31H70.621
			C65.745,379.586,61.793,375.634,61.793,370.759z"/>
		<path style="fill:#95A5A5;" d="M61.793,300.138v-17.655c0-4.875,3.952-8.828,8.828-8.828h26.483v35.31H70.621
			C65.745,308.966,61.793,305.013,61.793,300.138z"/>
		<path style="fill:#95A5A5;" d="M61.793,229.517v-17.655c0-4.875,3.952-8.828,8.828-8.828h26.483v35.31H70.621
			C65.745,238.345,61.793,234.393,61.793,229.517z"/>
		<path style="fill:#95A5A5;" d="M61.793,158.897v-17.655c0-4.875,3.952-8.828,8.828-8.828h26.483v35.31H70.621
			C65.745,167.724,61.793,163.772,61.793,158.897z"/>
		<path style="fill:#95A5A5;" d="M450.207,141.241v17.655c0,4.875-3.952,8.828-8.828,8.828h-26.483v-35.31h26.483
			C446.255,132.414,450.207,136.366,450.207,141.241z"/>
		<path style="fill:#95A5A5;" d="M450.207,211.862v17.655c0,4.875-3.952,8.828-8.828,8.828h-26.483v-35.31h26.483
			C446.255,203.034,450.207,206.987,450.207,211.862z"/>
		<path style="fill:#95A5A5;" d="M450.207,282.483v17.655c0,4.875-3.952,8.828-8.828,8.828h-26.483v-35.31h26.483
			C446.255,273.655,450.207,277.607,450.207,282.483z"/>
		<path style="fill:#95A5A5;" d="M450.207,353.103v17.655c0,4.875-3.952,8.828-8.828,8.828h-26.483v-35.31h26.483
			C446.255,344.276,450.207,348.228,450.207,353.103z"/>
	</g>
	<path style="fill:#CC66A1;" d="M367.316,290.428c2.284,4.356,3.466,9.206,3.443,14.124c-0.025,15.342-11.299,28.344-26.483,30.543
		c0-1.329-0.089-2.656-0.265-3.972c-2.386,23.377-22.677,40.782-46.145,39.581c-23.468-1.2-41.877-20.585-41.866-44.083
		c0.011,23.499-18.397,42.883-41.866,44.083c-23.468,1.201-43.759-16.204-46.145-39.581c-0.176,1.317-0.265,2.644-0.265,3.972
		c-15.184-2.199-26.457-15.201-26.483-30.543c-0.023-4.919,1.159-9.768,3.443-14.124c0.291-0.549,0.616-1.079,0.971-1.589
		c0.66-1.262,1.459-2.447,2.383-3.531c-9.77-6.552-15.63-17.544-15.625-29.308c-0.007-1.984,0.171-3.964,0.53-5.914
		c0.105-0.714,0.252-1.422,0.441-2.119c0.417-1.943,1.039-3.837,1.854-5.65c0.417-1.054,0.889-2.085,1.412-3.09
		c0.96-1.874,2.146-3.623,3.531-5.208c0.511-0.687,1.072-1.336,1.677-1.942c0.618-0.706,1.236-1.236,1.854-1.854
		c1.256-1.205,2.615-2.298,4.061-3.266l2.119-1.324c0.794-0.441,1.501-0.883,2.295-1.236c0.744-0.458,1.545-0.814,2.383-1.059
		c-2.981-4.761-4.543-10.273-4.502-15.89c0.019-17.056,13.841-30.878,30.897-30.897c1.479-0.018,2.956,0.101,4.414,0.353v-0.353
		c0-19.501,15.809-35.31,35.31-35.31S256,157.05,256,176.552c0-19.501,15.809-35.31,35.31-35.31c19.501,0,35.31,15.809,35.31,35.31
		v0.353c1.457-0.252,2.935-0.371,4.414-0.353c17.056,0.019,30.878,13.841,30.897,30.897c0.041,5.617-1.521,11.129-4.502,15.89
		c0.838,0.245,1.64,0.601,2.383,1.059c0.794,0.353,1.501,0.794,2.295,1.236l2.119,1.324c1.446,0.969,2.805,2.061,4.061,3.266
		c0.618,0.618,1.236,1.148,1.854,1.854c0.605,0.606,1.166,1.255,1.677,1.942c1.385,1.585,2.571,3.335,3.531,5.208
		c0.524,1.005,0.995,2.036,1.412,3.09c0.815,1.813,1.437,3.706,1.854,5.65c0.189,0.697,0.336,1.404,0.441,2.119
		c0.359,1.951,0.536,3.931,0.53,5.914c0.006,11.764-5.855,22.756-15.625,29.308c0.924,1.084,1.724,2.269,2.383,3.531
		C366.7,289.348,367.025,289.879,367.316,290.428z"/>
	<g>
		<path style="fill:#804169;" d="M335.448,335.448c-4.875,0-8.828-3.952-8.828-8.828c-0.702-6.11-3.038-11.917-6.763-16.81
			c-2.952-3.88-2.199-9.419,1.681-12.371s9.419-2.199,12.371,1.681c5.843,7.722,9.417,16.92,10.323,26.56
			c0.03,0.285,0.043,0.655,0.043,0.94C344.276,331.496,340.324,335.448,335.448,335.448z"/>
		<path style="fill:#804169;" d="M256,326.664c-2.337,0.01-4.581-0.911-6.237-2.56c-1.656-1.648-2.588-3.888-2.59-6.225v-8.914
			c0-4.875,3.952-8.828,8.828-8.828s8.828,3.952,8.828,8.828v8.828C264.831,322.677,260.884,326.643,256,326.664z"/>
		<path style="fill:#804169;" d="M300.566,247.172c-3.15-0.001-6.061-1.682-7.638-4.409c-1.577-2.728-1.58-6.089-0.008-8.819
			c7.881-13.649,22.438-22.064,38.198-22.082c5.729-0.035,11.404,1.114,16.668,3.375c2.894,1.255,4.898,3.958,5.258,7.092
			c0.36,3.133-0.979,6.221-3.513,8.099c-2.534,1.878-5.877,2.262-8.771,1.007c-3.048-1.295-6.33-1.948-9.642-1.918
			c-9.444,0.008-18.167,5.05-22.888,13.229C306.653,245.488,303.729,247.177,300.566,247.172z"/>
		<path style="fill:#804169;" d="M350.724,285.306c-2.702,0.004-5.257-1.232-6.931-3.353c-4.142-5.261-10.476-8.322-17.172-8.297
			c-4.875,0-8.828-3.952-8.828-8.828s3.952-8.828,8.828-8.828c12.1-0.039,23.544,5.495,31.026,15.004
			c2.098,2.654,2.495,6.275,1.02,9.32S354.108,285.305,350.724,285.306z"/>
		<path style="fill:#804169;" d="M308.972,202.685c-2.775-0.004-5.388-1.312-7.055-3.53c-1.667-2.219-2.196-5.092-1.428-7.759
			c0.554-1.957,0.823-3.984,0.797-6.017c0-4.875,3.952-8.828,8.828-8.828s8.828,3.952,8.828,8.828
			c0.027,3.696-0.477,7.378-1.496,10.931C316.352,200.083,312.9,202.68,308.972,202.685z"/>
		<path style="fill:#804169;" d="M176.987,335.448c4.875,0,8.827-3.952,8.828-8.828c0.701-6.11,3.038-11.917,6.763-16.81
			c2.952-3.88,2.199-9.419-1.681-12.371c-3.88-2.952-9.419-2.199-12.371,1.681c-5.843,7.722-9.417,16.92-10.323,26.56
			c-0.03,0.285-0.043,0.655-0.043,0.94C168.16,331.496,172.112,335.448,176.987,335.448z"/>
		<path style="fill:#804169;" d="M211.869,247.172c3.15-0.001,6.061-1.682,7.638-4.409c1.577-2.728,1.58-6.089,0.008-8.819
			c-7.881-13.649-22.438-22.064-38.198-22.082c-5.729-0.035-11.404,1.114-16.668,3.375c-4.473,1.94-6.527,7.139-4.586,11.612
			c1.94,4.473,7.139,6.527,11.612,4.586c3.048-1.295,6.331-1.948,9.642-1.918c9.444,0.008,18.167,5.05,22.888,13.229
			C205.782,245.488,208.706,247.177,211.869,247.172z"/>
		<path style="fill:#804169;" d="M161.711,285.306c2.702,0.004,5.257-1.232,6.931-3.353c4.142-5.261,10.476-8.322,17.172-8.297
			c4.875,0,8.828-3.952,8.828-8.828S190.69,256,185.815,256c-12.1-0.039-23.544,5.495-31.026,15.004
			c-2.098,2.654-2.494,6.275-1.02,9.32C155.243,283.37,158.328,285.305,161.711,285.306z"/>
		<path style="fill:#804169;" d="M203.028,202.685c2.775-0.004,5.388-1.312,7.055-3.53c1.667-2.219,2.196-5.092,1.428-7.759
			c-0.554-1.957-0.823-3.984-0.797-6.017c0-4.875-3.952-8.828-8.828-8.828c-4.875,0-8.828,3.952-8.828,8.828
			c-0.027,3.696,0.477,7.378,1.496,10.931C195.648,200.083,199.1,202.68,203.028,202.685z"/>
	</g>
	<g>
		<path style="fill:#ECF0F1;" d="M132.414,141.241c-2.337-0.035-4.575-0.949-6.268-2.56c-0.78-0.859-1.409-1.844-1.858-2.914
			c-0.937-2.139-0.937-4.572,0-6.711c0.449-1.069,1.077-2.053,1.858-2.91c3.539-3.267,8.995-3.267,12.534,0
			c0.778,0.858,1.405,1.842,1.854,2.909c0.943,2.138,0.943,4.573,0,6.711c-0.449,1.069-1.076,2.054-1.854,2.914
			C136.988,140.291,134.75,141.206,132.414,141.241z"/>
		<path style="fill:#ECF0F1;" d="M132.414,388.414c-1.155-0.014-2.296-0.254-3.358-0.707c-1.089-0.407-2.081-1.038-2.909-1.854
			c-1.612-1.692-2.527-3.93-2.56-6.267c0.018-0.592,0.077-1.183,0.177-1.767c0.095-0.554,0.272-1.09,0.526-1.59
			c0.195-0.561,0.463-1.095,0.797-1.586c0.324-0.464,0.679-0.906,1.06-1.324c3.539-3.267,8.995-3.267,12.534,0
			c0.353,0.44,0.707,0.879,1.056,1.323c0.334,0.491,0.603,1.025,0.797,1.586c0.253,0.501,0.432,1.037,0.53,1.59
			c0.097,0.585,0.157,1.175,0.177,1.768c0.023,2.348-0.9,4.607-2.56,6.267C137.021,387.514,134.762,388.437,132.414,388.414z"/>
		<path style="fill:#ECF0F1;" d="M379.586,141.241c-1.155-0.014-2.296-0.254-3.358-0.707c-1.079-0.428-2.066-1.057-2.909-1.854
			c-0.78-0.859-1.409-1.844-1.858-2.914c-0.937-2.139-0.937-4.572,0-6.711c0.811-2.213,2.554-3.956,4.767-4.767
			c3.298-1.294,7.046-0.571,9.626,1.857c0.778,0.858,1.405,1.842,1.854,2.909c0.943,2.138,0.943,4.573,0,6.711
			c-0.449,1.069-1.076,2.054-1.854,2.914C384.161,140.292,381.923,141.206,379.586,141.241z"/>
		<path style="fill:#ECF0F1;" d="M379.586,388.414c-1.155-0.014-2.296-0.254-3.358-0.707c-1.079-0.428-2.066-1.057-2.909-1.854
			c-1.612-1.692-2.527-3.93-2.56-6.267c0.018-0.592,0.077-1.183,0.177-1.767c0.095-0.554,0.272-1.09,0.526-1.59
			c0.195-0.561,0.463-1.095,0.797-1.586c0.353-0.444,0.707-0.884,1.06-1.323c3.539-3.267,8.995-3.267,12.534,0
			c0.38,0.418,0.733,0.86,1.056,1.323c0.334,0.491,0.603,1.025,0.797,1.586c0.253,0.501,0.432,1.037,0.53,1.59
			c0.097,0.585,0.156,1.175,0.177,1.767c-0.035,2.337-0.949,4.574-2.56,6.268c-0.831,0.815-1.824,1.446-2.914,1.854
			C381.879,388.16,380.74,388.4,379.586,388.414z"/>
	</g>
</g>
<g>
</g>
<g>
</g>
<g>
</g>
<g>
</g>
<g>
</g>
<g>
</g>
<g>
</g>
<g>
</g>
<g>
</g>
<g>
</g>
<g>
</g>
<g>
</g>
<g>
</g>
<g>
</g>
<g>
</g>
</svg>
