<?xml version="1.0" encoding="iso-8859-1"?>
<!-- Generator: Adobe Illustrator 19.0.0, SVG Export Plug-In . SVG Version: 6.00 Build 0)  -->
<svg version="1.1" id="Capa_1" xmlns="http://www.w3.org/2000/svg" xmlns:xlink="http://www.w3.org/1999/xlink" x="0px" y="0px"
	 viewBox="0 0 512.022 512.022" style="enable-background:new 0 0 512.022 512.022;" xml:space="preserve">
<g transform="translate(-1)">
	<g>
		<path style="fill:#46B29D;" d="M328.525,498.406c-1.942,1.324-3.972,2.56-5.914,3.619"/>
		<path style="fill:#46B29D;" d="M399.057,153.336c6.869,7.168,12.964,15.038,18.185,23.481c2.207,3.619,4.325,7.327,6.179,11.123"
			/>
		<path style="fill:#46B29D;" d="M428.718,199.769c-1.589-3.972-3.354-7.857-5.297-11.741"/>
		<path style="fill:#46B29D;" d="M433.044,212.393c-1.23-4.248-2.674-8.432-4.326-12.535"/>
		<path style="fill:#46B29D;" d="M442.313,280.012c0,54.466-15.272,108.844-34.074,137.004
			c-16.648,25.052-36.804,47.585-59.851,66.913c-6.336,5.205-12.968,10.039-19.862,14.477c-1.942,1.236-3.972,2.472-5.914,3.619
			s-3.884,2.207-5.826,3.178c-15.672,7.927-33.989,8.763-50.317,2.295c-14.251-5.985-29.414-9.507-44.844-10.417
			c-15.43,0.91-30.593,4.432-44.844,10.417c-16.329,6.468-34.645,5.632-50.317-2.295c-1.854-0.971-3.796-2.03-5.738-3.178
			c-1.942-1.148-3.972-2.383-5.914-3.619c-6.929-4.388-13.564-9.224-19.862-14.477c-23.047-19.328-43.203-41.862-59.851-66.913
			c-18.803-28.16-34.074-82.538-34.074-137.004c-0.314-22.877,2.81-45.671,9.269-67.619c1.324-4.237,2.737-8.474,4.326-12.535
			v-0.088c1.677-3.972,3.443-7.945,5.297-11.741c0,0-0.088,0,0-0.088c1.942-3.796,4.061-7.503,6.268-11.123
			c5.163-8.46,11.231-16.333,18.097-23.481c42.108-43.255,93.131-28.778,124.028-21.01c17.384,4.924,35.272,7.856,53.319,8.739
			c18.047-0.883,35.934-3.815,53.319-8.739c30.897-7.768,82.008-22.246,124.116,21.01c6.865,7.148,12.933,15.022,18.097,23.481
			c2.207,3.619,4.326,7.327,6.268,11.123v0.088c1.854,3.796,3.619,7.768,5.297,11.741c-0.088,0.088-0.088,0.088,0,0.088
			c1.589,4.061,3.001,8.298,4.326,12.535C439.416,234.359,442.539,257.141,442.313,280.012z"/>
		<path style="fill:#46B29D;" d="M120.724,502.026c-1.942-1.059-3.972-2.295-5.914-3.619"/>
		<path style="fill:#46B29D;" d="M19.913,187.94c1.854-3.796,3.972-7.503,6.179-11.123c5.221-8.443,11.316-16.314,18.185-23.481"/>
		<path style="fill:#46B29D;" d="M19.913,188.028c-1.942,3.884-3.708,7.768-5.297,11.741"/>
		<path style="fill:#46B29D;" d="M14.616,199.857c-1.652,4.103-3.095,8.287-4.326,12.535"/>
	</g>
	<g>
		<path style="fill:#14A085;" d="M252.255,76.536l-0.088,0.088"/>
		<path style="fill:#AF8066;" d="M272.608,55.936c-1.507-1.793-3.664-2.913-5.997-3.115s-4.651,0.531-6.443,2.038l-53.031,44.619
			c-2.72-3.594-5.778-6.919-9.133-9.929l-18.983-16.871c-2.356-2.094-5.651-2.773-8.642-1.779c-2.992,0.993-5.226,3.507-5.862,6.595
			c-0.636,3.088,0.424,6.28,2.78,8.374l18.974,16.871c11.305,10.057,17.776,24.464,17.785,39.595v51.698
			c0,4.875,3.952,8.828,8.828,8.828s8.828-3.952,8.828-8.828v-51.698c-0.023-9.394-1.923-18.689-5.588-27.339l55.407-46.618
			C275.262,65.238,275.745,59.669,272.608,55.936z"/>
		<g>
			<path style="fill:#E6E7E8;" d="M177.573,282.307c-2.342,0.001-4.588-0.928-6.244-2.584c-1.656-1.656-2.585-3.902-2.584-6.244
				v-26.483c0-4.875,3.952-8.828,8.828-8.828s8.828,3.952,8.828,8.828v26.483c0.001,2.342-0.928,4.588-2.584,6.244
				C182.161,281.379,179.915,282.308,177.573,282.307z"/>
			<path style="fill:#E6E7E8;" d="M221.711,282.307c-2.342,0.001-4.588-0.928-6.244-2.584c-1.656-1.656-2.585-3.902-2.584-6.244
				v-26.483c0-4.875,3.952-8.828,8.828-8.828s8.828,3.952,8.828,8.828v26.483c0.001,2.342-0.928,4.588-2.584,6.244
				C226.299,281.379,224.053,282.308,221.711,282.307z"/>
			<path style="fill:#E6E7E8;" d="M265.849,282.307c-2.342,0.001-4.588-0.928-6.244-2.584c-1.656-1.656-2.585-3.902-2.584-6.244
				v-26.483c0-4.875,3.952-8.828,8.828-8.828s8.828,3.952,8.828,8.828v26.483c0.001,2.342-0.928,4.588-2.584,6.244
				C270.437,281.379,268.191,282.308,265.849,282.307z"/>
			<path style="fill:#E6E7E8;" d="M177.573,432.376c-2.342,0.001-4.588-0.928-6.244-2.584s-2.585-3.902-2.584-6.244v-26.483
				c0-4.875,3.952-8.828,8.828-8.828s8.828,3.952,8.828,8.828v26.483c0.001,2.342-0.928,4.588-2.584,6.244
				S179.915,432.377,177.573,432.376z"/>
			<path style="fill:#E6E7E8;" d="M221.711,432.376c-2.342,0.001-4.588-0.928-6.244-2.584s-2.585-3.902-2.584-6.244v-26.483
				c0-4.875,3.952-8.828,8.828-8.828s8.828,3.952,8.828,8.828v26.483c0.001,2.342-0.928,4.588-2.584,6.244
				C226.299,431.448,224.053,432.377,221.711,432.376z"/>
			<path style="fill:#E6E7E8;" d="M159.918,388.238h-26.483c-4.875,0-8.828-3.952-8.828-8.828s3.952-8.828,8.828-8.828h26.483
				c4.875,0,8.828,3.952,8.828,8.828S164.793,388.238,159.918,388.238z"/>
			<path style="fill:#E6E7E8;" d="M159.918,344.1h-26.483c-4.875,0-8.828-3.952-8.828-8.828s3.952-8.828,8.828-8.828h26.483
				c4.875,0,8.828,3.952,8.828,8.828S164.793,344.1,159.918,344.1z"/>
			<path style="fill:#E6E7E8;" d="M159.918,299.962h-26.483c-4.875,0-8.828-3.952-8.828-8.828s3.952-8.828,8.828-8.828h26.483
				c4.875,0,8.828,3.952,8.828,8.828S164.793,299.962,159.918,299.962z"/>
		</g>
		<path style="fill:#527F72;" d="M212.884,202.859c-22.034,0-41.362-8.638-49.233-22c-2.476-4.199-1.079-9.61,3.121-12.086
			c4.199-2.476,9.61-1.079,12.086,3.121c3.896,6.612,16.836,13.31,34.026,13.31s30.129-6.698,34.026-13.31
			c2.476-4.199,7.887-5.596,12.086-3.121c4.199,2.476,5.596,7.887,3.121,12.086C254.246,194.221,234.918,202.859,212.884,202.859z"
			/>
	</g>
	<path style="fill:#BDC3C7;" d="M283.504,299.874v-17.567c0-4.875-3.952-8.828-8.828-8.828H168.746
		c-4.875,0-8.828,3.952-8.828,8.828v105.931c0,4.875,3.952,8.828,8.828,8.828h107.343L283.504,299.874z"/>
	<path style="fill:#CC4B4C;" d="M389.435,321.686c26.018-47.534,78.054-47.534,104.073-23.768
		c26.019,23.767,26.018,71.302,0,118.837c-18.214,35.651-65.046,71.301-104.073,95.069c-39.027-23.768-85.859-59.418-104.073-95.069
		c-26.017-47.535-26.017-95.07,0-118.837C311.38,274.151,363.416,274.152,389.435,321.686z"/>
	<path style="fill:#14A085;" d="M397.115,3.267h-0.088c-32.651-2.623-65.415-3.566-98.163-2.825
		c-38.93,1.412-64.265,35.134-58.703,58.527c1.842,7.095,6.124,13.314,12.094,17.567c14.566,10.946,39.901,14.83,66.56,8.563
		c37.959-9.004,80.508-81.655,80.508-81.655S398.528,3.355,397.115,3.267z"/>
	<path style="fill:#46B29D;" d="M399.322,3.444c0,0-42.549,72.651-80.508,81.655c-26.659,6.268-51.994,2.383-66.56-8.563
		c15.298-16.157,34.518-28.079,55.79-34.604c34.074-8.121,42.725-10.152,88.982-38.665h0.088
		C398.528,3.355,399.322,3.444,399.322,3.444z"/>
	<path style="fill:#14A085;" d="M397.38,3.091c-0.088,0.088-0.177,0.088-0.265,0.177"/>
</g>
<g>
</g>
<g>
</g>
<g>
</g>
<g>
</g>
<g>
</g>
<g>
</g>
<g>
</g>
<g>
</g>
<g>
</g>
<g>
</g>
<g>
</g>
<g>
</g>
<g>
</g>
<g>
</g>
<g>
</g>
</svg>
