<?xml version="1.0" encoding="iso-8859-1"?>
<!-- Generator: Adobe Illustrator 19.0.0, SVG Export Plug-In . SVG Version: 6.00 Build 0)  -->
<svg version="1.1" id="Capa_1" xmlns="http://www.w3.org/2000/svg" xmlns:xlink="http://www.w3.org/1999/xlink" x="0px" y="0px"
	 viewBox="0 0 512 512" style="enable-background:new 0 0 512 512;" xml:space="preserve">
<g>
	<path style="fill:#8697CB;" d="M512,52.966v441.379c-0.029,9.739-7.916,17.627-17.655,17.655H17.655
		C7.916,511.971,0.029,504.084,0,494.345V52.966H512z"/>
	<path style="fill:#A5A5A4;" d="M512,17.655v52.966H0V17.655C0.028,7.916,7.916,0.028,17.655,0h476.69
		C504.084,0.028,511.972,7.916,512,17.655z"/>
	<path style="fill:#E64C3C;" d="M35.31,44.138c-2.34-0.017-4.585-0.933-6.268-2.56c-0.779-0.859-1.406-1.844-1.854-2.914
		c-0.943-2.138-0.943-4.573,0-6.711c0.405-1.09,1.037-2.082,1.854-2.91c0.417-0.381,0.858-0.735,1.319-1.06
		c0.494-0.335,1.03-0.604,1.595-0.797c0.499-0.254,1.034-0.431,1.586-0.526c1.72-0.361,3.51-0.177,5.121,0.526
		c1.081,0.427,2.07,1.058,2.914,1.858c3.414,3.481,3.414,9.054,0,12.535c-0.44,0.353-0.888,0.707-1.414,1.056
		c-0.45,0.351-0.958,0.62-1.5,0.797C37.603,43.884,36.464,44.124,35.31,44.138z"/>
	<path style="fill:#F0C419;" d="M70.621,44.138c-2.337-0.035-4.575-0.949-6.268-2.56c-0.779-0.859-1.406-1.844-1.854-2.914
		c-0.452-1.061-0.692-2.2-0.706-3.354c0.014-2.341,0.931-4.586,2.56-6.268c2.525-2.546,6.341-3.312,9.653-1.937
		c3.312,1.375,5.463,4.618,5.442,8.204c-0.035,2.337-0.949,4.574-2.56,6.268C75.204,43.202,72.96,44.118,70.621,44.138z"/>
	<path style="fill:#14A085;" d="M105.931,44.138c-2.348,0.023-4.607-0.9-6.267-2.56c-1.66-1.66-2.583-3.919-2.56-6.267
		c0.031-2.338,0.945-4.577,2.56-6.268c2.113-2.019,5.064-2.905,7.94-2.383c0.586,0.081,1.154,0.259,1.681,0.526
		c0.562,0.194,1.095,0.462,1.586,0.797c0.464,0.325,0.908,0.679,1.328,1.06c3.414,3.481,3.414,9.054,0,12.534
		c-0.42,0.379-0.863,0.732-1.328,1.056c-0.491,0.335-1.024,0.603-1.586,0.797c-0.528,0.266-1.096,0.445-1.681,0.53
		C107.052,44.062,106.492,44.122,105.931,44.138z"/>
	<g>
		<path style="fill:#E6E7E8;" d="M317.793,44.138H194.207c-4.875,0-8.828-3.952-8.828-8.828s3.952-8.828,8.828-8.828h123.586
			c4.875,0,8.828,3.952,8.828,8.828S322.668,44.138,317.793,44.138z"/>
		<path style="fill:#E6E7E8;" d="M476.69,44.138h-8.828c-4.875,0-8.828-3.952-8.828-8.828s3.952-8.828,8.828-8.828h8.828
			c4.875,0,8.828,3.952,8.828,8.828S481.565,44.138,476.69,44.138z"/>
		<path style="fill:#E6E7E8;" d="M432.552,44.138h-8.828c-4.875,0-8.828-3.952-8.828-8.828s3.952-8.828,8.828-8.828h8.828
			c4.875,0,8.828,3.952,8.828,8.828S437.427,44.138,432.552,44.138z"/>
	</g>
	<g>
		<circle style="fill:#41767F;" cx="167.724" cy="132.414" r="17.655"/>
		<circle style="fill:#41767F;" cx="61.793" cy="194.207" r="17.655"/>
		<circle style="fill:#41767F;" cx="132.414" cy="256" r="17.655"/>
		<circle style="fill:#41767F;" cx="238.345" cy="194.207" r="17.655"/>
		<circle style="fill:#41767F;" cx="414.897" cy="194.207" r="17.655"/>
		<circle style="fill:#41767F;" cx="308.966" cy="256" r="17.655"/>
		<circle style="fill:#41767F;" cx="238.345" cy="317.793" r="17.655"/>
		<circle style="fill:#41767F;" cx="414.897" cy="317.793" r="17.655"/>
		<circle style="fill:#41767F;" cx="61.793" cy="317.793" r="17.655"/>
		<circle style="fill:#41767F;" cx="238.345" cy="441.379" r="17.655"/>
		<circle style="fill:#41767F;" cx="414.897" cy="441.379" r="17.655"/>
		<circle style="fill:#41767F;" cx="61.793" cy="441.379" r="17.655"/>
		<circle style="fill:#41767F;" cx="344.276" cy="132.414" r="17.655"/>
		<circle style="fill:#41767F;" cx="132.414" cy="379.586" r="17.655"/>
		<circle style="fill:#41767F;" cx="308.966" cy="379.586" r="17.655"/>
	</g>
	<g>
		<path style="fill:#ECF0F1;" d="M44.138,141.241c-1.153-0.014-2.293-0.254-3.353-0.707c-1.07-0.446-2.056-1.073-2.914-1.853
			c-1.661-1.66-2.584-3.919-2.56-6.268c-0.032-1.158,0.21-2.307,0.707-3.353c0.446-1.07,1.073-2.056,1.853-2.914
			c3.539-3.267,8.995-3.267,12.534,0c0.799,0.844,1.428,1.833,1.854,2.914c1.409,3.284,0.675,7.096-1.853,9.621
			c-0.859,0.778-1.845,1.405-2.914,1.854C46.431,140.988,45.291,141.227,44.138,141.241z"/>
		<path style="fill:#ECF0F1;" d="M79.448,141.241c-1.153-0.014-2.293-0.254-3.353-0.707c-1.07-0.446-2.056-1.073-2.914-1.853
			c-1.661-1.66-2.584-3.919-2.56-6.268c-0.032-1.158,0.21-2.307,0.707-3.353c0.446-1.07,1.073-2.056,1.853-2.914
			c0.418-0.379,0.859-0.733,1.319-1.06c0.493-0.336,1.03-0.603,1.595-0.793c0.5-0.255,1.034-0.435,1.586-0.535
			c4.157-0.943,8.373,1.318,9.888,5.302c0.943,2.136,0.943,4.571,0,6.707c-0.804,2.217-2.55,3.963-4.767,4.767
			C81.741,140.987,80.602,141.227,79.448,141.241z"/>
		<path style="fill:#ECF0F1;" d="M114.759,141.241c-1.153-0.014-2.293-0.254-3.353-0.707c-1.07-0.447-2.056-1.074-2.914-1.854
			c-0.778-0.859-1.405-1.845-1.854-2.914c-0.943-2.136-0.943-4.571,0-6.707c0.804-2.217,2.55-3.963,4.767-4.767
			c1.609-0.708,3.4-0.895,5.121-0.535c0.552,0.101,1.086,0.281,1.586,0.535c0.563,0.191,1.096,0.457,1.586,0.793
			c0.464,0.327,0.907,0.681,1.329,1.06c0.78,0.858,1.407,1.844,1.854,2.914c1.163,2.715,0.876,5.833-0.762,8.29
			C120.48,139.807,117.712,141.271,114.759,141.241z"/>
		<path style="fill:#ECF0F1;" d="M114.759,203.034c-2.367,0.031-4.639-0.928-6.268-2.647c-1.673-1.617-2.6-3.855-2.56-6.181
			c0.031-2.338,0.945-4.577,2.56-6.268c0.418-0.379,0.859-0.733,1.319-1.06c0.493-0.336,1.03-0.603,1.595-0.793
			c0.5-0.255,1.034-0.435,1.586-0.535c2.909-0.59,5.921,0.305,8.035,2.388c0.799,0.844,1.428,1.833,1.854,2.914
			c1.335,3.264,0.607,7.008-1.854,9.534c-0.834,0.832-1.824,1.492-2.914,1.94C117.051,202.78,115.912,203.02,114.759,203.034z"/>
		<path style="fill:#ECF0F1;" d="M150.069,203.034c-2.367,0.031-4.639-0.928-6.268-2.647c-1.673-1.617-2.6-3.855-2.56-6.181
			c0.014-1.153,0.254-2.293,0.707-3.353c0.804-2.217,2.55-3.963,4.767-4.767c3.287-1.378,7.081-0.647,9.621,1.854
			c0.799,0.844,1.428,1.833,1.854,2.914c0.452,1.061,0.693,2.2,0.707,3.353c0.036,2.325-0.891,4.562-2.56,6.181
			c-0.834,0.832-1.824,1.492-2.914,1.94C152.362,202.78,151.222,203.02,150.069,203.034z"/>
		<path style="fill:#ECF0F1;" d="M185.379,203.034c-2.351-0.047-4.594-0.994-6.268-2.647c-1.673-1.617-2.6-3.855-2.56-6.181
			c-0.032-1.158,0.21-2.307,0.707-3.353c0.426-1.081,1.055-2.07,1.854-2.914c0.418-0.379,0.859-0.733,1.319-1.06
			c0.493-0.336,1.03-0.603,1.595-0.793c0.5-0.255,1.034-0.435,1.586-0.535c1.132-0.259,2.308-0.259,3.44,0
			c0.586,0.086,1.153,0.267,1.681,0.535c0.563,0.191,1.096,0.457,1.586,0.793c0.463,0.327,0.906,0.681,1.328,1.06
			c0.799,0.844,1.428,1.833,1.854,2.914c0.452,1.061,0.692,2.2,0.706,3.354c0.036,2.325-0.891,4.562-2.56,6.181
			c-0.834,0.832-1.824,1.492-2.914,1.94C187.672,202.78,186.533,203.02,185.379,203.034z"/>
		<path style="fill:#ECF0F1;" d="M291.31,203.034c-2.367,0.031-4.639-0.928-6.268-2.647c-1.673-1.617-2.6-3.855-2.56-6.181
			c0.031-2.338,0.945-4.577,2.56-6.268c2.535-2.51,6.334-3.242,9.621-1.854c1.069,0.449,2.054,1.075,2.914,1.854
			c0.799,0.844,1.428,1.833,1.854,2.914c0.453,1.061,0.693,2.2,0.707,3.354C300.105,199.068,296.172,203.001,291.31,203.034z"/>
		<path style="fill:#ECF0F1;" d="M326.621,203.034c-2.351-0.047-4.594-0.994-6.268-2.647c-1.673-1.617-2.6-3.855-2.56-6.181
			c0.014-1.153,0.254-2.293,0.707-3.353c0.426-1.081,1.055-2.07,1.854-2.914c0.858-0.78,1.844-1.407,2.914-1.854
			c3.287-1.378,7.081-0.647,9.621,1.854c1.611,1.693,2.525,3.931,2.56,6.267c0.036,2.325-0.891,4.562-2.56,6.181
			c-0.834,0.832-1.824,1.492-2.914,1.94C328.913,202.78,327.774,203.02,326.621,203.034z"/>
		<path style="fill:#ECF0F1;" d="M361.931,203.034c-1.153-0.014-2.293-0.254-3.353-0.707c-1.102-0.425-2.097-1.087-2.914-1.94
			c-1.673-1.617-2.6-3.855-2.56-6.181c-0.032-1.158,0.21-2.307,0.707-3.353c0.426-1.081,1.055-2.07,1.854-2.914
			c0.418-0.379,0.859-0.733,1.319-1.06c0.493-0.336,1.03-0.603,1.595-0.793c0.5-0.255,1.034-0.435,1.586-0.535
			c1.132-0.259,2.308-0.259,3.44,0c0.586,0.086,1.153,0.267,1.681,0.535c0.543,0.174,1.051,0.442,1.5,0.793
			c0.506,0.304,0.98,0.659,1.414,1.06c0.799,0.844,1.428,1.833,1.854,2.914c0.493,1.048,0.734,2.196,0.706,3.354
			c0.036,2.325-0.891,4.562-2.56,6.181c-0.834,0.832-1.824,1.492-2.914,1.94C364.224,202.78,363.084,203.02,361.931,203.034z"/>
		<path style="fill:#ECF0F1;" d="M185.379,264.828c-2.348,0.023-4.607-0.899-6.268-2.56c-0.776-0.881-1.431-1.86-1.948-2.914
			c-0.422-1.067-0.63-2.207-0.612-3.354c-0.032-1.158,0.21-2.307,0.707-3.353c0.804-2.217,2.55-3.963,4.767-4.767
			c2.13-0.974,4.577-0.974,6.707,0c1.069,0.449,2.054,1.075,2.914,1.854c0.799,0.844,1.428,1.833,1.854,2.914
			c0.943,2.136,0.943,4.571,0,6.707c-0.804,2.217-2.55,3.963-4.767,4.767C187.672,264.574,186.533,264.814,185.379,264.828z"/>
		<path style="fill:#ECF0F1;" d="M220.69,264.828c-2.348,0.023-4.607-0.899-6.268-2.56c-0.776-0.881-1.431-1.86-1.948-2.914
			c-0.422-1.067-0.63-2.207-0.612-3.354c-0.032-1.158,0.21-2.307,0.707-3.353c0.804-2.217,2.55-3.963,4.767-4.767
			c3.287-1.378,7.081-0.647,9.621,1.854c0.799,0.844,1.428,1.833,1.854,2.914c0.943,2.136,0.943,4.571,0,6.707
			c-0.804,2.217-2.55,3.963-4.767,4.767C222.982,264.574,221.843,264.814,220.69,264.828z"/>
		<path style="fill:#ECF0F1;" d="M256,264.828c-2.348,0.023-4.607-0.899-6.268-2.56c-0.776-0.881-1.431-1.86-1.948-2.914
			c-0.422-1.067-0.63-2.207-0.612-3.354c-0.032-1.158,0.21-2.307,0.707-3.353c0.426-1.081,1.055-2.07,1.854-2.914
			c0.418-0.379,0.859-0.733,1.319-1.06c0.493-0.336,1.03-0.603,1.595-0.793c0.525-0.268,1.09-0.448,1.672-0.535
			c2.881-0.564,5.855,0.329,7.948,2.388c0.799,0.844,1.428,1.833,1.854,2.914c0.943,2.136,0.943,4.571,0,6.707
			c-0.804,2.217-2.55,3.963-4.767,4.767C258.293,264.573,257.154,264.813,256,264.828z"/>
		<path style="fill:#ECF0F1;" d="M361.931,264.828c-1.153-0.014-2.293-0.254-3.353-0.707c-1.081-0.426-2.07-1.055-2.914-1.854
			c-0.776-0.881-1.431-1.86-1.948-2.914c-0.422-1.067-0.63-2.206-0.612-3.353c-0.032-1.158,0.21-2.307,0.707-3.353
			c0.426-1.081,1.055-2.07,1.854-2.914c0.418-0.379,0.859-0.733,1.319-1.06c0.493-0.336,1.03-0.603,1.595-0.793
			c0.5-0.255,1.034-0.435,1.586-0.535c4.157-0.943,8.373,1.318,9.888,5.302c0.943,2.136,0.943,4.571,0,6.707
			c-0.449,1.069-1.075,2.054-1.854,2.914C366.536,263.925,364.279,264.847,361.931,264.828z"/>
		<path style="fill:#ECF0F1;" d="M397.241,264.828c-1.153-0.014-2.293-0.254-3.353-0.707c-1.07-0.447-2.056-1.074-2.914-1.854
			c-0.776-0.881-1.431-1.86-1.948-2.914c-0.422-1.067-0.63-2.206-0.612-3.353c-0.032-1.158,0.21-2.307,0.707-3.353
			c0.426-1.081,1.055-2.07,1.854-2.914c0.418-0.379,0.859-0.733,1.319-1.06c0.493-0.336,1.03-0.603,1.595-0.793
			c0.5-0.255,1.034-0.435,1.586-0.535c4.157-0.943,8.373,1.318,9.888,5.302c0.943,2.136,0.943,4.571,0,6.707
			c-0.449,1.069-1.075,2.054-1.854,2.914C401.846,263.925,399.589,264.847,397.241,264.828z"/>
		<path style="fill:#ECF0F1;" d="M432.552,264.828c-2.348,0.023-4.607-0.899-6.268-2.56c-0.804-0.858-1.462-1.843-1.948-2.914
			c-0.816-2.161-0.816-4.546,0-6.707c0.494-1.067,1.152-2.05,1.948-2.915c0.418-0.379,0.859-0.733,1.319-1.06
			c0.493-0.336,1.03-0.603,1.595-0.793c0.5-0.255,1.034-0.435,1.586-0.535c4.157-0.943,8.373,1.318,9.888,5.302
			c0.943,2.136,0.943,4.571,0,6.707c-0.449,1.069-1.075,2.054-1.854,2.914C437.156,263.925,434.899,264.847,432.552,264.828z"/>
		<path style="fill:#ECF0F1;" d="M291.31,326.621c-2.348,0.023-4.607-0.9-6.267-2.56c-1.66-1.66-2.583-3.919-2.56-6.267
			c0.031-2.338,0.945-4.577,2.56-6.268l1.319-1.06c0.493-0.336,1.03-0.603,1.595-0.793c0.5-0.255,1.034-0.435,1.586-0.535
			c1.721-0.36,3.511-0.173,5.121,0.535c1.069,0.449,2.054,1.075,2.914,1.854c1.612,1.693,2.526,3.93,2.561,6.267
			c0.023,2.348-0.9,4.607-2.56,6.267C295.917,325.721,293.658,326.644,291.31,326.621z"/>
		<path style="fill:#ECF0F1;" d="M326.621,326.621c-1.153-0.014-2.293-0.254-3.353-0.707c-1.07-0.447-2.056-1.074-2.914-1.854
			c-1.661-1.66-2.584-3.919-2.56-6.267c0.031-2.338,0.945-4.577,2.56-6.268c0.844-0.799,1.833-1.428,2.914-1.854
			c1.609-0.708,3.4-0.895,5.121-0.535c0.552,0.101,1.086,0.281,1.586,0.535c0.543,0.174,1.051,0.442,1.5,0.793
			c0.526,0.353,0.974,0.707,1.414,1.06c1.612,1.693,2.526,3.931,2.561,6.268c0.02,2.348-0.902,4.605-2.56,6.268
			c-0.859,0.778-1.845,1.405-2.914,1.854C328.913,326.367,327.774,326.607,326.621,326.621z"/>
		<path style="fill:#ECF0F1;" d="M361.931,326.621c-2.348,0.023-4.607-0.9-6.267-2.56c-1.66-1.66-2.583-3.919-2.56-6.267
			c0.031-2.338,0.945-4.577,2.56-6.268l1.319-1.06c0.493-0.336,1.03-0.603,1.595-0.793c0.5-0.255,1.034-0.435,1.586-0.535
			c1.721-0.36,3.511-0.173,5.121,0.535c1.069,0.449,2.054,1.075,2.914,1.854c1.612,1.693,2.526,3.93,2.561,6.267
			c0.023,2.348-0.9,4.607-2.56,6.267C366.538,325.721,364.279,326.644,361.931,326.621z"/>
		<path style="fill:#ECF0F1;" d="M467.862,326.621c-2.348,0.023-4.607-0.9-6.267-2.56c-1.66-1.66-2.583-3.919-2.56-6.267
			c0.031-2.338,0.945-4.577,2.56-6.268c0.844-0.799,1.833-1.428,2.914-1.854c1.577-0.703,3.336-0.89,5.026-0.535
			c0.586,0.086,1.153,0.267,1.681,0.535c0.543,0.174,1.051,0.442,1.5,0.793c0.526,0.353,0.974,0.707,1.414,1.06
			c0.799,0.844,1.428,1.833,1.854,2.914c1.163,2.714,0.876,5.833-0.762,8.29C473.583,325.186,470.815,326.65,467.862,326.621z"/>
		<path style="fill:#ECF0F1;" d="M114.759,326.621c-1.153-0.014-2.293-0.254-3.353-0.707c-1.081-0.426-2.07-1.055-2.914-1.854
			c-1.661-1.66-2.584-3.919-2.56-6.267c0.031-2.338,0.945-4.577,2.56-6.268c2.083-2.069,5.061-2.965,7.94-2.388
			c0.586,0.086,1.153,0.267,1.681,0.535c0.543,0.174,1.051,0.442,1.5,0.793c0.526,0.353,0.974,0.707,1.414,1.06
			c1.612,1.693,2.526,3.931,2.561,6.268c0.023,2.348-0.9,4.607-2.56,6.267C119.365,325.721,117.107,326.644,114.759,326.621z"/>
		<path style="fill:#ECF0F1;" d="M150.069,326.621c-2.348,0.023-4.607-0.9-6.267-2.56c-1.66-1.66-2.583-3.919-2.56-6.267
			c0.031-2.338,0.945-4.577,2.56-6.268l1.319-1.06c0.493-0.336,1.03-0.603,1.595-0.793c0.5-0.255,1.034-0.435,1.586-0.535
			c1.721-0.36,3.511-0.173,5.121,0.535c1.069,0.449,2.054,1.075,2.914,1.854c1.612,1.693,2.526,3.93,2.561,6.267
			c0.02,2.348-0.902,4.605-2.56,6.268c-0.859,0.778-1.845,1.405-2.914,1.854C152.362,326.367,151.222,326.607,150.069,326.621z"/>
		<path style="fill:#ECF0F1;" d="M185.379,326.621c-1.153-0.014-2.293-0.254-3.353-0.707c-1.07-0.447-2.056-1.074-2.914-1.854
			c-1.661-1.66-2.584-3.919-2.56-6.267c0.031-2.338,0.945-4.577,2.56-6.268c0.844-0.799,1.833-1.428,2.914-1.854
			c1.609-0.708,3.4-0.895,5.121-0.535c0.552,0.101,1.086,0.281,1.586,0.535c0.543,0.174,1.051,0.442,1.5,0.793
			c0.526,0.353,0.974,0.707,1.414,1.06c1.612,1.693,2.526,3.931,2.561,6.268c0.02,2.348-0.902,4.605-2.56,6.268
			c-0.859,0.778-1.845,1.405-2.914,1.854C187.672,326.367,186.533,326.607,185.379,326.621z"/>
		<path style="fill:#ECF0F1;" d="M291.31,450.207c-2.348,0.023-4.607-0.9-6.267-2.56c-1.66-1.66-2.583-3.919-2.56-6.267
			c0.031-2.338,0.945-4.577,2.56-6.268c0.418-0.379,0.859-0.733,1.319-1.06c0.493-0.336,1.03-0.603,1.595-0.793
			c0.5-0.255,1.034-0.435,1.586-0.535c2.908-0.577,5.914,0.316,8.035,2.388c1.611,1.693,2.526,3.931,2.56,6.268
			c0.023,2.348-0.9,4.607-2.56,6.267C295.917,449.307,293.658,450.23,291.31,450.207z"/>
		<path style="fill:#ECF0F1;" d="M326.621,450.207c-2.953,0.031-5.722-1.433-7.361-3.89c-1.638-2.457-1.924-5.576-0.76-8.291
			c0.447-1.07,1.074-2.056,1.854-2.914c2.525-2.546,6.34-3.311,9.652-1.936c3.312,1.375,5.463,4.617,5.442,8.203
			c0.023,2.348-0.9,4.607-2.56,6.267C331.227,449.307,328.969,450.23,326.621,450.207z"/>
		<path style="fill:#ECF0F1;" d="M361.931,450.207c-2.348,0.023-4.607-0.9-6.267-2.56c-1.66-1.66-2.583-3.919-2.56-6.267
			c0.031-2.338,0.945-4.577,2.56-6.268c0.418-0.379,0.859-0.733,1.319-1.06c0.493-0.336,1.03-0.603,1.595-0.793
			c0.525-0.268,1.09-0.448,1.672-0.535c1.135-0.259,2.313-0.259,3.448,0c0.552,0.101,1.086,0.281,1.586,0.535
			c0.543,0.174,1.051,0.442,1.5,0.793c0.507,0.304,0.98,0.66,1.415,1.06c0.78,0.858,1.407,1.844,1.854,2.914
			c1.163,2.715,0.876,5.833-0.762,8.29C367.652,448.772,364.884,450.236,361.931,450.207z"/>
		<path style="fill:#ECF0F1;" d="M467.862,450.207c-2.348,0.023-4.607-0.9-6.267-2.56c-1.66-1.66-2.583-3.919-2.56-6.267
			c-0.025-2.642,1.145-5.153,3.184-6.834c2.039-1.68,4.727-2.35,7.316-1.821c0.586,0.086,1.153,0.267,1.681,0.534
			c0.543,0.174,1.051,0.442,1.5,0.793c0.506,0.304,0.98,0.659,1.414,1.06c1.611,1.693,2.526,3.931,2.56,6.268
			c0.023,2.348-0.9,4.607-2.56,6.267C472.469,449.307,470.21,450.23,467.862,450.207z"/>
		<path style="fill:#ECF0F1;" d="M114.759,450.207c-2.348,0.023-4.607-0.9-6.267-2.56c-1.66-1.66-2.583-3.919-2.56-6.267
			c-0.021-3.586,2.13-6.829,5.442-8.204c3.312-1.375,7.127-0.61,9.653,1.937c0.78,0.858,1.407,1.844,1.854,2.914
			c1.163,2.715,0.876,5.833-0.762,8.29C120.48,448.772,117.712,450.236,114.759,450.207z"/>
		<path style="fill:#ECF0F1;" d="M150.069,450.207c-2.348,0.023-4.607-0.9-6.267-2.56c-1.66-1.66-2.583-3.919-2.56-6.267
			c-0.025-2.642,1.145-5.153,3.184-6.834c2.039-1.68,4.727-2.35,7.316-1.821c0.586,0.086,1.153,0.267,1.681,0.534
			c0.543,0.174,1.051,0.442,1.5,0.793c0.506,0.304,0.98,0.659,1.414,1.06c1.611,1.693,2.525,3.931,2.56,6.268
			c0.023,2.348-0.9,4.607-2.56,6.267C154.676,449.307,152.417,450.23,150.069,450.207z"/>
		<path style="fill:#ECF0F1;" d="M185.379,450.207c-1.153-0.014-2.293-0.254-3.353-0.707c-1.081-0.426-2.07-1.055-2.914-1.854
			c-2.528-2.525-3.263-6.337-1.854-9.621c0.447-1.07,1.074-2.056,1.854-2.914c3.539-3.267,8.995-3.267,12.534,0
			c0.78,0.858,1.407,1.844,1.854,2.914c0.943,2.136,0.943,4.571,0,6.707c-0.449,1.069-1.075,2.054-1.854,2.914
			C189.984,449.304,187.727,450.227,185.379,450.207z"/>
		<path style="fill:#ECF0F1;" d="M220.69,141.241c-1.153-0.014-2.293-0.254-3.353-0.707c-1.081-0.426-2.07-1.055-2.914-1.854
			c-2.528-2.525-3.263-6.337-1.854-9.621c0.447-1.07,1.074-2.056,1.854-2.914c2.083-2.069,5.061-2.965,7.94-2.388
			c0.586,0.086,1.153,0.267,1.681,0.535c0.563,0.191,1.096,0.457,1.586,0.793c0.463,0.327,0.907,0.681,1.328,1.06
			c0.78,0.858,1.407,1.844,1.854,2.914c1.409,3.284,0.675,7.096-1.854,9.621c-0.859,0.778-1.845,1.405-2.914,1.854
			C222.982,140.988,221.843,141.227,220.69,141.241z"/>
		<path style="fill:#ECF0F1;" d="M256,141.241c-1.153-0.014-2.293-0.254-3.353-0.707c-1.081-0.426-2.07-1.055-2.914-1.854
			c-2.528-2.525-3.263-6.337-1.854-9.621c0.447-1.07,1.074-2.056,1.854-2.914c0.418-0.379,0.859-0.733,1.319-1.06
			c0.493-0.336,1.03-0.603,1.595-0.793c0.5-0.255,1.034-0.435,1.586-0.535c2.908-0.577,5.914,0.316,8.035,2.388
			c0.78,0.858,1.407,1.844,1.854,2.914c1.409,3.284,0.675,7.096-1.854,9.621c-0.859,0.778-1.845,1.405-2.914,1.854
			C258.293,140.988,257.153,141.227,256,141.241z"/>
		<path style="fill:#ECF0F1;" d="M291.31,141.241c-1.153-0.014-2.293-0.254-3.353-0.707c-1.07-0.447-2.056-1.074-2.914-1.854
			c-1.661-1.66-2.584-3.919-2.56-6.267c-0.032-1.158,0.21-2.307,0.707-3.353c0.447-1.07,1.074-2.056,1.854-2.914
			c0.418-0.379,0.859-0.733,1.319-1.06c0.493-0.336,1.03-0.603,1.595-0.793c0.5-0.255,1.034-0.435,1.586-0.535
			c2.908-0.577,5.914,0.316,8.035,2.388c0.78,0.858,1.407,1.844,1.854,2.914c1.409,3.284,0.675,7.096-1.854,9.621
			c-0.859,0.778-1.845,1.405-2.914,1.854C293.603,140.988,292.464,141.227,291.31,141.241z"/>
		<path style="fill:#ECF0F1;" d="M397.241,141.241c-1.153-0.014-2.293-0.254-3.353-0.707c-1.07-0.447-2.056-1.074-2.914-1.854
			c-1.661-1.66-2.584-3.919-2.56-6.267c-0.032-1.158,0.21-2.307,0.707-3.353c0.804-2.217,2.55-3.963,4.767-4.767
			c2.13-0.974,4.577-0.974,6.707,0c1.069,0.449,2.054,1.075,2.914,1.854c0.78,0.858,1.407,1.844,1.854,2.914
			c1.162,2.714,0.875,5.832-0.763,8.289S400.194,141.27,397.241,141.241z"/>
		<path style="fill:#ECF0F1;" d="M432.552,141.241c-1.153-0.014-2.293-0.254-3.353-0.707c-1.07-0.447-2.056-1.074-2.914-1.854
			c-0.776-0.881-1.431-1.86-1.948-2.914c-0.422-1.067-0.63-2.206-0.612-3.353c0.014-1.153,0.254-2.293,0.707-3.353
			c0.804-2.217,2.55-3.963,4.767-4.767c1.609-0.708,3.4-0.895,5.121-0.535c0.552,0.101,1.086,0.281,1.586,0.535
			c0.543,0.174,1.051,0.442,1.5,0.793c0.495,0.283,0.942,0.641,1.328,1.06c0.853,0.817,1.515,1.812,1.94,2.914
			c0.453,1.061,0.693,2.2,0.707,3.353C441.346,137.275,437.413,141.208,432.552,141.241z"/>
		<path style="fill:#ECF0F1;" d="M467.862,141.241c-1.153-0.014-2.293-0.254-3.353-0.707c-1.07-0.447-2.056-1.074-2.914-1.854
			c-2.528-2.525-3.263-6.337-1.854-9.621c0.447-1.07,1.074-2.056,1.854-2.914c0.844-0.799,1.833-1.428,2.914-1.854
			c3.286-1.387,7.085-0.655,9.621,1.854c0.78,0.858,1.407,1.844,1.854,2.914c1.163,2.715,0.876,5.833-0.762,8.29
			C473.583,139.807,470.815,141.271,467.862,141.241z"/>
		<path style="fill:#ECF0F1;" d="M44.138,264.828c-2.348,0.023-4.607-0.899-6.268-2.56c-0.778-0.859-1.405-1.845-1.854-2.914
			c-0.943-2.136-0.943-4.571,0-6.707c0.804-2.217,2.55-3.963,4.767-4.767c1.609-0.708,3.4-0.895,5.121-0.535
			c0.552,0.101,1.086,0.281,1.586,0.535c0.563,0.191,1.096,0.457,1.586,0.793c0.464,0.326,0.907,0.68,1.329,1.059
			c0.799,0.844,1.428,1.833,1.854,2.914c0.943,2.136,0.943,4.571,0,6.707c-0.449,1.069-1.075,2.054-1.854,2.914
			c-0.859,0.778-1.845,1.405-2.914,1.854C46.431,264.573,45.291,264.813,44.138,264.828z"/>
		<path style="fill:#ECF0F1;" d="M79.448,264.828c-1.153-0.014-2.293-0.254-3.353-0.707c-1.07-0.446-2.056-1.073-2.914-1.853
			c-0.778-0.859-1.405-1.845-1.854-2.914c-0.943-2.136-0.943-4.571,0-6.707c0.804-2.217,2.55-3.963,4.767-4.767
			c1.577-0.703,3.336-0.89,5.026-0.535c0.586,0.086,1.153,0.267,1.681,0.535c0.563,0.191,1.096,0.457,1.586,0.793
			c0.464,0.326,0.907,0.68,1.329,1.059c0.799,0.844,1.428,1.833,1.854,2.914c0.943,2.136,0.943,4.571,0,6.707
			c-0.804,2.217-2.55,3.963-4.767,4.767C81.742,264.573,80.602,264.813,79.448,264.828z"/>
		<path style="fill:#ECF0F1;" d="M185.379,388.414c-2.348,0.023-4.607-0.9-6.267-2.56c-1.66-1.66-2.583-3.919-2.56-6.267
			c-0.032-1.158,0.21-2.307,0.707-3.353c0.426-1.081,1.055-2.07,1.854-2.914c3.539-3.267,8.995-3.267,12.534,0
			c0.799,0.844,1.428,1.833,1.854,2.914c1.163,2.715,0.876,5.833-0.762,8.29C191.1,386.979,188.332,388.443,185.379,388.414z"/>
		<path style="fill:#ECF0F1;" d="M220.69,388.414c-2.348,0.023-4.607-0.9-6.267-2.56c-1.66-1.66-2.583-3.919-2.56-6.267
			c-0.032-1.158,0.21-2.307,0.707-3.353c0.426-1.081,1.055-2.07,1.854-2.914c3.539-3.267,8.995-3.267,12.534,0
			c0.799,0.844,1.428,1.833,1.854,2.914c1.409,3.284,0.675,7.095-1.854,9.621c-0.859,0.778-1.845,1.405-2.914,1.854
			C222.982,388.16,221.843,388.4,220.69,388.414z"/>
		<path style="fill:#ECF0F1;" d="M256,388.414c-2.348,0.023-4.607-0.9-6.267-2.56c-1.66-1.66-2.583-3.919-2.56-6.267
			c-0.032-1.158,0.21-2.307,0.707-3.353c0.426-1.081,1.055-2.07,1.854-2.914c3.539-3.267,8.995-3.267,12.534,0
			c0.799,0.844,1.428,1.833,1.854,2.914c1.409,3.284,0.675,7.095-1.854,9.621c-0.859,0.778-1.845,1.405-2.914,1.854
			C258.293,388.16,257.153,388.4,256,388.414z"/>
		<path style="fill:#ECF0F1;" d="M361.931,388.414c-1.153-0.014-2.293-0.254-3.353-0.707c-1.07-0.447-2.056-1.074-2.914-1.854
			c-1.661-1.66-2.584-3.919-2.56-6.267c-0.021-3.586,2.13-6.829,5.442-8.204c3.312-1.375,7.127-0.61,9.653,1.937
			c0.799,0.844,1.428,1.833,1.854,2.914c1.163,2.715,0.876,5.833-0.762,8.29C367.652,386.979,364.884,388.443,361.931,388.414z"/>
		<path style="fill:#ECF0F1;" d="M397.241,388.414c-1.153-0.014-2.293-0.254-3.353-0.707c-1.07-0.447-2.056-1.074-2.914-1.854
			c-1.661-1.66-2.584-3.919-2.56-6.267c-0.021-3.586,2.13-6.829,5.442-8.204c3.312-1.375,7.127-0.61,9.653,1.937
			c0.799,0.844,1.428,1.833,1.854,2.914c1.409,3.284,0.675,7.096-1.854,9.621c-0.845,0.797-1.834,1.426-2.914,1.854
			C399.534,388.16,398.395,388.4,397.241,388.414z"/>
		<path style="fill:#ECF0F1;" d="M432.552,388.414c-1.153-0.014-2.293-0.254-3.353-0.707c-1.07-0.447-2.056-1.074-2.914-1.854
			c-1.661-1.66-2.584-3.919-2.56-6.267c0.031-2.338,0.945-4.577,2.56-6.268c3.506-3.268,8.942-3.268,12.448,0
			c0.871,0.801,1.536,1.801,1.94,2.914c0.453,1.061,0.693,2.2,0.707,3.354c0.028,2.366-0.931,4.637-2.647,6.268
			C437.067,387.453,434.86,388.367,432.552,388.414z"/>
		<path style="fill:#ECF0F1;" d="M44.138,388.414c-2.348,0.023-4.607-0.9-6.267-2.56c-1.66-1.66-2.583-3.919-2.56-6.267
			c-0.009-2.346,0.911-4.599,2.56-6.268c2.525-2.546,6.341-3.312,9.653-1.937c3.312,1.375,5.463,4.618,5.442,8.204
			c0.023,2.348-0.9,4.607-2.56,6.267C48.745,387.514,46.486,388.437,44.138,388.414z"/>
		<path style="fill:#ECF0F1;" d="M79.448,388.414c-2.348,0.023-4.607-0.9-6.267-2.56c-1.66-1.66-2.583-3.919-2.56-6.267
			c-0.032-1.158,0.21-2.307,0.707-3.353c0.426-1.081,1.055-2.07,1.853-2.914c3.539-3.267,8.995-3.267,12.534,0
			c0.817,0.829,1.449,1.822,1.854,2.914c1.163,2.714,0.876,5.832-0.762,8.29C85.169,386.979,82.401,388.443,79.448,388.414z"/>
		<path style="fill:#ECF0F1;" d="M467.862,203.034c-2.367,0.031-4.639-0.928-6.268-2.647c-1.673-1.617-2.6-3.855-2.56-6.181
			c0.014-1.153,0.254-2.293,0.707-3.353c0.804-2.217,2.55-3.963,4.767-4.767c3.287-1.378,7.081-0.647,9.621,1.854
			c1.611,1.692,2.526,3.93,2.561,6.267C476.656,199.068,472.724,203.001,467.862,203.034z"/>
	</g>
</g>
<g>
</g>
<g>
</g>
<g>
</g>
<g>
</g>
<g>
</g>
<g>
</g>
<g>
</g>
<g>
</g>
<g>
</g>
<g>
</g>
<g>
</g>
<g>
</g>
<g>
</g>
<g>
</g>
<g>
</g>
</svg>
