<?xml version="1.0" encoding="iso-8859-1"?>
<!-- Generator: Adobe Illustrator 19.0.0, SVG Export Plug-In . SVG Version: 6.00 Build 0)  -->
<svg version="1.1" id="Capa_1" xmlns="http://www.w3.org/2000/svg" xmlns:xlink="http://www.w3.org/1999/xlink" x="0px" y="0px"
	 viewBox="0 0 512 512" style="enable-background:new 0 0 512 512;" xml:space="preserve">
<g>
	<path style="fill:#5E5F62;" d="M344.276,0H8.828C3.958,0.014,0.014,3.958,0,8.828v494.345c0.014,4.869,3.958,8.813,8.828,8.828
		h335.448c4.875,0,8.828-3.952,8.828-8.828V8.828C353.089,3.958,349.145,0.014,344.276,0z"/>
	<rect x="35.31" style="fill:#A5A5A4;" width="282.483" height="512"/>
	<g>
		<path style="fill:#E4C05C;" d="M167.724,44.138h17.655c4.875,0,8.828,3.952,8.828,8.828v88.276c0,4.875-3.952,8.828-8.828,8.828
			h-17.655c-4.875,0-8.828-3.952-8.828-8.828V52.966C158.897,48.09,162.849,44.138,167.724,44.138z"/>
		<path style="fill:#E4C05C;" d="M167.724,203.034h17.655c4.875,0,8.828,3.952,8.828,8.828v88.276c0,4.875-3.952,8.828-8.828,8.828
			h-17.655c-4.875,0-8.828-3.952-8.828-8.828v-88.276C158.897,206.987,162.849,203.034,167.724,203.034z"/>
		<path style="fill:#E4C05C;" d="M167.724,361.931h17.655c4.875,0,8.828,3.952,8.828,8.828v88.276c0,4.875-3.952,8.828-8.828,8.828
			h-17.655c-4.875,0-8.828-3.952-8.828-8.828v-88.276C158.897,365.883,162.849,361.931,167.724,361.931z"/>
	</g>
	<circle style="fill:#4482C3;" cx="370.759" cy="370.759" r="141.241"/>
	<g>
		<path style="fill:#E6E7E8;" d="M459.034,347.853c-2.439,0.001-4.77-1.007-6.44-2.784c-20.993-23-50.696-36.103-81.836-36.103
			s-60.843,13.104-81.836,36.103c-3.338,3.557-8.926,3.734-12.483,0.397c-3.557-3.338-3.734-8.926-0.397-12.483
			c24.335-26.553,58.698-41.672,94.716-41.672c36.017,0,70.381,15.119,94.716,41.672c2.408,2.567,3.062,6.32,1.663,9.55
			C465.738,345.763,462.555,347.854,459.034,347.853z"/>
		<path style="fill:#E6E7E8;" d="M429.677,388.414c-2.434,0.003-4.76-1.002-6.426-2.776c-13.492-14.706-32.534-23.078-52.491-23.078
			s-38.999,8.372-52.491,23.078c-3.343,3.544-8.926,3.709-12.473,0.369c-3.547-3.34-3.717-8.923-0.38-12.473
			c16.828-18.249,40.521-28.629,65.345-28.629c24.824,0,48.516,10.38,65.345,28.629c2.412,2.565,3.07,6.318,1.674,9.551
			C436.381,386.318,433.198,388.412,429.677,388.414z"/>
		<path style="fill:#E6E7E8;" d="M400.22,427.931c-2.433,0.003-4.758-1.002-6.422-2.776c-6.024-6.27-14.344-9.815-23.039-9.815
			c-8.695,0-17.015,3.544-23.039,9.815c-2.162,2.294-5.384,3.261-8.452,2.536c-3.068-0.725-5.516-3.032-6.422-6.052
			c-0.906-3.02-0.132-6.293,2.03-8.588c9.249-10.008,22.257-15.698,35.884-15.698c13.627,0,26.635,5.691,35.884,15.698
			c2.416,2.563,3.077,6.317,1.681,9.551C406.927,425.837,403.742,427.931,400.22,427.931L400.22,427.931z"/>
		<path style="fill:#E6E7E8;" d="M370.759,467.862c-1.149,0.016-2.29-0.195-3.358-0.621c-1.054-0.51-2.033-1.163-2.91-1.939
			c-2.525-2.527-3.261-6.335-1.858-9.621c0.427-1.081,1.058-2.071,1.858-2.914c2.119-2.072,5.123-2.965,8.03-2.388
			c0.553,0.1,1.089,0.28,1.59,0.535c0.564,0.191,1.099,0.457,1.591,0.793c0.44,0.353,0.879,0.707,1.323,1.06
			c0.797,0.845,1.426,1.834,1.854,2.914c1.409,3.284,0.675,7.096-1.853,9.621c-0.878,0.777-1.858,1.43-2.914,1.94
			C373.046,467.667,371.906,467.878,370.759,467.862z"/>
	</g>
</g>
<g>
</g>
<g>
</g>
<g>
</g>
<g>
</g>
<g>
</g>
<g>
</g>
<g>
</g>
<g>
</g>
<g>
</g>
<g>
</g>
<g>
</g>
<g>
</g>
<g>
</g>
<g>
</g>
<g>
</g>
</svg>
