<?xml version="1.0" encoding="iso-8859-1"?>
<!-- Generator: Adobe Illustrator 19.0.0, SVG Export Plug-In . SVG Version: 6.00 Build 0)  -->
<svg version="1.1" id="Capa_1" xmlns="http://www.w3.org/2000/svg" xmlns:xlink="http://www.w3.org/1999/xlink" x="0px" y="0px"
	 viewBox="0 0 512.002 512.002" style="enable-background:new 0 0 512.002 512.002;" xml:space="preserve">
<g>
	<g>
		<rect x="423.724" y="128.001" style="fill:#BDC3C7;" width="52.966" height="105.931"/>
		<path style="fill:#BDC3C7;" d="M330.69,287.561c-3.111,0.006-5.994-1.629-7.586-4.302l-3.267-5.474
			c-3.889-6.365-11.324-9.644-18.647-8.224l-25.793,5.198c-4.776,0.952-9.421-2.143-10.381-6.917
			c-0.961-4.774,2.126-9.424,6.898-10.394l25.862-5.207c14.624-2.824,29.463,3.743,37.207,16.465l3.276,5.5
			c1.627,2.726,1.666,6.116,0.1,8.878S333.865,287.557,330.69,287.561L330.69,287.561z"/>
		<path style="fill:#BDC3C7;" d="M304.552,351.25c-2.251,0.002-4.497-0.215-6.707-0.647l-25.931-5.224
			c-4.772-0.969-7.859-5.619-6.898-10.394c0.961-4.774,5.605-7.869,10.381-6.917l25.862,5.216
			c7.313,1.407,14.729-1.888,18.586-8.259l3.259-5.448c2.5-4.185,7.918-5.551,12.103-3.052c4.185,2.5,5.551,7.918,3.052,12.103
			l-3.267,5.474C328.544,344.752,317,351.255,304.552,351.25z"/>
		<path style="fill:#BDC3C7;" d="M181.31,334.828c-3.175-0.004-6.103-1.713-7.669-4.475s-1.527-6.152,0.1-8.879l3.267-5.474
			c7.691-12.757,22.536-19.346,37.155-16.491l25.922,5.216c3.097,0.617,5.628,2.842,6.639,5.834c1.01,2.992,0.346,6.296-1.743,8.664
			c-2.089,2.368-5.283,3.441-8.378,2.812l-25.862-5.207c-7.315-1.419-14.738,1.875-18.595,8.25l-3.25,5.448
			C187.305,333.199,184.421,334.835,181.31,334.828z"/>
		<path style="fill:#BDC3C7;" d="M207.448,398.509c-12.435,0.015-23.973-6.472-30.422-17.103l-3.284-5.5
			c-1.617-2.707-1.667-6.071-0.131-8.825c1.536-2.754,4.425-4.479,7.578-4.526s6.091,1.592,7.708,4.299l3.267,5.474
			c3.9,6.348,11.321,9.619,18.638,8.216l25.802-5.198c4.776-0.952,9.421,2.143,10.381,6.917c0.961,4.774-2.126,9.424-6.898,10.394
			l-25.862,5.207C211.992,398.296,209.722,398.512,207.448,398.509z"/>
		<rect x="35.31" y="357.518" style="fill:#BDC3C7;" width="52.966" height="114.759"/>
		<rect x="35.31" y="128.001" style="fill:#BDC3C7;" width="52.966" height="105.931"/>
	</g>
	<path style="fill:#D1D4D1;" d="M141.241,30.897H17.655C7.916,30.926,0.028,38.814,0,48.552v88.276
		c0.029,9.739,7.916,17.627,17.655,17.655h123.586c9.739-0.029,17.627-7.916,17.655-17.655V48.552
		C158.868,38.814,150.98,30.926,141.241,30.897z"/>
	<path style="fill:#41767F;" d="M158.897,119.173v17.655c-0.029,9.739-7.916,17.627-17.655,17.655h-35.31v-26.483
		c0.014-4.869,3.958-8.813,8.828-8.828H158.897z"/>
	<path style="fill:#D1D4D1;" d="M370.759,30.897h123.586c9.739,0.028,17.627,7.916,17.655,17.655v88.276
		c-0.029,9.739-7.916,17.627-17.655,17.655H370.759c-9.739-0.029-17.626-7.916-17.655-17.655V48.552
		C353.132,38.814,361.02,30.926,370.759,30.897z"/>
	<g>
		<path style="fill:#41767F;" d="M353.103,119.173v17.655c0.029,9.739,7.916,17.627,17.655,17.655h35.31v-26.483
			c-0.014-4.869-3.958-8.813-8.828-8.828H353.103z"/>
		<circle style="fill:#41767F;" cx="52.966" cy="83.863" r="17.655"/>
	</g>
	<path style="fill:#46B29D;" d="M158.897,57.38v17.655h-35.31c-4.875,0-8.828-3.952-8.828-8.828c0-4.875,3.952-8.828,8.828-8.828
		H158.897z"/>
	<path style="fill:#D1D4D1;" d="M123.586,304.552v-79.448c-0.029-9.739-7.916-17.627-17.655-17.655H17.655
		C7.916,207.478,0.029,215.365,0,225.104v132.414c0.029,9.739,7.916,17.627,17.655,17.655h88.276
		c7.898-0.016,14.823-5.281,16.949-12.888L123.586,304.552z"/>
	<path style="fill:#A5A5A4;" d="M26.483,454.621h88.276c14.626,0,26.483,11.857,26.483,26.483v17.655
		c0,4.875-3.952,8.828-8.828,8.828H26.483c-4.875,0-8.828-3.952-8.828-8.828v-35.31C17.655,458.574,21.607,454.621,26.483,454.621z"
		/>
	<path style="fill:#BDC3C7;" d="M157.926,373.231c-0.277-0.048-0.544-0.137-0.794-0.265l-93.926-33.192l16.243-35.222l97.103,19.068
		l-0.088,0.177L157.926,373.231z"/>
	<circle style="fill:#A5A5A4;" cx="167.724" cy="348.69" r="26.483"/>
	<path style="fill:#46B29D;" d="M308.966,13.242v52.966c0,4.875-3.952,8.828-8.828,8.828h-70.621l-35.31,35.31V13.242
		c0-4.875,3.952-8.828,8.828-8.828h97.103C305.013,4.415,308.966,8.367,308.966,13.242z"/>
	<path style="fill:#4482C3;" d="M203.034,216.277v-52.966c0-4.875,3.952-8.828,8.828-8.828h70.621l35.31-35.31v97.103
		c0,4.875-3.952,8.828-8.828,8.828h-97.103C206.987,225.104,203.034,221.152,203.034,216.277z"/>
	<g>
		<path style="fill:#D1D4D1;" d="M273.655,48.552h-44.138c-4.875,0-8.828-3.952-8.828-8.828s3.952-8.828,8.828-8.828h44.138
			c4.875,0,8.828,3.952,8.828,8.828S278.531,48.552,273.655,48.552z"/>
		<path style="fill:#D1D4D1;" d="M247.172,198.621h-8.828c-4.875,0-8.828-3.952-8.828-8.828c0-4.875,3.952-8.828,8.828-8.828h8.828
			c4.875,0,8.828,3.952,8.828,8.828C256,194.669,252.048,198.621,247.172,198.621z"/>
		<path style="fill:#D1D4D1;" d="M282.483,198.621c-1.153-0.014-2.293-0.254-3.353-0.707c-1.07-0.447-2.056-1.074-2.914-1.854
			c-1.661-1.66-2.584-3.919-2.56-6.267c0.031-2.338,0.945-4.577,2.56-6.268c2.535-2.51,6.334-3.242,9.621-1.854
			c1.069,0.449,2.054,1.075,2.914,1.854c1.612,1.693,2.526,3.931,2.561,6.268c0.023,2.348-0.9,4.607-2.56,6.267
			C287.09,197.722,284.831,198.644,282.483,198.621z"/>
	</g>
	<path style="fill:#BDC3C7;" d="M88.276,313.38v-79.448c0-14.626-11.857-26.483-26.483-26.483S35.31,219.306,35.31,233.932v79.448
		H88.276z"/>
	<circle style="fill:#A5A5A4;" cx="61.793" cy="313.38" r="26.483"/>
	<rect x="423.724" y="357.518" style="fill:#BDC3C7;" width="52.966" height="114.759"/>
	<circle style="fill:#41767F;" cx="459.034" cy="83.863" r="17.655"/>
	<path style="fill:#46B29D;" d="M353.105,57.38v17.655h35.31c4.875,0,8.828-3.952,8.828-8.828c0-4.875-3.952-8.828-8.828-8.828
		H353.105z"/>
	<path style="fill:#D1D4D1;" d="M388.415,304.552v-79.448c0.028-9.739,7.916-17.627,17.655-17.655h88.276
		c9.739,0.029,17.627,7.916,17.655,17.655v132.414c-0.029,9.739-7.916,17.627-17.655,17.655H406.07
		c-7.898-0.016-14.823-5.281-16.949-12.888L388.415,304.552z"/>
	<path style="fill:#A5A5A4;" d="M485.516,507.587H379.585c-4.875,0-8.828-3.952-8.828-8.828v-17.655
		c0-14.626,11.857-26.483,26.483-26.483h88.276c4.875,0,8.828,3.952,8.828,8.828v35.31
		C494.343,503.635,490.391,507.587,485.516,507.587z"/>
	<path style="fill:#BDC3C7;" d="M354.074,325.959c0.277-0.048,0.544-0.137,0.794-0.265l93.926,14.08l-25.07-35.222l-35.31-13.241
		l-27.101-10.152L354.074,325.959z"/>
	<circle style="fill:#A5A5A4;" cx="344.276" cy="301.419" r="26.483"/>
	<path style="fill:#BDC3C7;" d="M423.726,313.38v-79.448c0-14.626,11.857-26.483,26.483-26.483
		c14.626,0,26.483,11.857,26.483,26.483v79.448H423.726z"/>
	<circle style="fill:#A5A5A4;" cx="450.207" cy="313.38" r="26.483"/>
</g>
<g>
</g>
<g>
</g>
<g>
</g>
<g>
</g>
<g>
</g>
<g>
</g>
<g>
</g>
<g>
</g>
<g>
</g>
<g>
</g>
<g>
</g>
<g>
</g>
<g>
</g>
<g>
</g>
<g>
</g>
</svg>
