<?xml version="1.0" encoding="iso-8859-1"?>
<!-- Generator: Adobe Illustrator 19.0.0, SVG Export Plug-In . SVG Version: 6.00 Build 0)  -->
<svg version="1.1" id="Capa_1" xmlns="http://www.w3.org/2000/svg" xmlns:xlink="http://www.w3.org/1999/xlink" x="0px" y="0px"
	 viewBox="0 0 512 512" style="enable-background:new 0 0 512 512;" xml:space="preserve">
<g>
	<path style="fill:#2C3E50;" d="M117.153,416.542H82.441c-14.372-0.016-26.018-11.662-26.034-26.034v-69.424
		c0-4.793,3.885-8.678,8.678-8.678s8.678,3.885,8.678,8.678v69.424c0.005,4.791,3.887,8.673,8.678,8.678h34.712
		c4.793,0,8.678,3.885,8.678,8.678S121.945,416.542,117.153,416.542z"/>
	<path style="fill:#41767F;" d="M134.508,390.508h17.356c9.585,0,17.356,7.771,17.356,17.356l0,0
		c0,9.585-7.771,17.356-17.356,17.356h-17.356c-9.585,0-17.356-7.771-17.356-17.356l0,0
		C117.153,398.279,124.923,390.508,134.508,390.508z"/>
	<path style="fill:#2C3E50;" d="M446.915,208.271c-2.302,0.001-4.509-0.913-6.137-2.541c-1.628-1.628-2.542-3.835-2.541-6.137
		v-17.356c-0.103-91.019-73.863-164.778-164.881-164.881h-34.712C147.625,17.459,73.866,91.219,73.763,182.237v17.356
		c0,4.793-3.885,8.678-8.678,8.678s-8.678-3.885-8.678-8.678v-17.356C56.521,81.638,138.045,0.114,238.644,0h34.712
		c100.6,0.114,182.123,81.638,182.237,182.237v17.356c0.001,2.302-0.914,4.509-2.541,6.137
		C451.425,207.358,449.217,208.272,446.915,208.271z"/>
	<path style="fill:#41767F;" d="M455.593,199.593H56.407c-14.378,0-26.034,11.656-26.034,26.034v69.424
		c0,14.378,11.656,26.034,26.034,26.034h399.186c14.378,0,26.034-11.656,26.034-26.034v-69.424
		C481.627,211.249,469.971,199.593,455.593,199.593z"/>
	<polygon style="fill:#BDC3C7;" points="269.538,173.559 301.039,148.055 247.235,88.168 212.61,104.136 252.008,148.055 
		221.288,172.596 222.156,173.559 	"/>
	<circle style="fill:#46B29D;" cx="221.288" cy="86.78" r="26.034"/>
	<path style="fill:#D1D4D1;" d="M403.525,329.763V190.915c0-14.378-11.656-26.034-26.034-26.034H134.508
		c-14.378,0-26.034,11.656-26.034,26.034v138.847c0,14.378,11.656,26.034,26.034,26.034h86.78c-9.585,0-17.356,7.771-17.356,17.356
		c0,9.585,7.771,17.356,17.356,17.356c-9.585,0-17.356,7.771-17.356,17.356s7.771,17.356,17.356,17.356
		c-9.585,0-17.356,7.771-17.356,17.356c0,9.585,7.771,17.356,17.356,17.356h-86.78c-6.907-0.009-13.535,2.731-18.419,7.615
		s-7.624,11.511-7.615,18.419l0,26.034h295.051v-26.034c0.009-6.907-2.731-13.535-7.615-18.419s-11.512-7.624-18.419-7.615h-86.78
		c9.585,0,17.356-7.771,17.356-17.356c0-9.585-7.771-17.356-17.356-17.356c9.585,0,17.356-7.771,17.356-17.356
		s-7.771-17.356-17.356-17.356c9.585,0,17.356-7.771,17.356-17.356c0-9.585-7.771-17.356-17.356-17.356h86.78
		C391.87,355.797,403.525,344.141,403.525,329.763z"/>
	<path style="fill:#BDC3C7;" d="M221.288,355.797c-9.585,0-17.356,7.771-17.356,17.356c0,9.585,7.771,17.356,17.356,17.356
		c-9.585,0-17.356,7.771-17.356,17.356s7.771,17.356,17.356,17.356c-9.585,0-17.356,7.771-17.356,17.356
		c0,9.585,7.771,17.356,17.356,17.356h69.424c9.585,0,17.356-7.771,17.356-17.356c0-9.585-7.771-17.356-17.356-17.356
		c9.585,0,17.356-7.771,17.356-17.356s-7.771-17.356-17.356-17.356c9.585,0,17.356-7.771,17.356-17.356
		c0-9.585-7.771-17.356-17.356-17.356H221.288z"/>
	<path style="fill:#D1D4D1;" d="M403.525,512v-26.034c0.009-6.907-2.731-13.535-7.615-18.419s-11.512-7.624-18.419-7.615H134.508
		c-6.907-0.009-13.535,2.731-18.419,7.615s-7.624,11.511-7.615,18.419l0,26.034"/>
	<path style="fill:#F29C1F;" d="M203.932,355.797l-39.87-65.345c-0.579-0.916-0.541-2.092,0.095-2.968
		c0.636-0.877,1.742-1.277,2.792-1.011c40.943,11.438,137.156,11.438,178.099,0c1.05-0.266,2.156,0.135,2.792,1.011
		s0.674,2.052,0.095,2.968l-39.869,65.345"/>
	<g>
		<path style="fill:#46B29D;" d="M177.898,199.593h17.356c9.585,0,17.356,7.771,17.356,17.356v17.356
			c0,9.585-7.771,17.356-17.356,17.356h-17.356c-9.585,0-17.356-7.771-17.356-17.356v-17.356
			C160.542,207.364,168.313,199.593,177.898,199.593z"/>
		<path style="fill:#46B29D;" d="M316.746,199.593h17.356c9.585,0,17.356,7.771,17.356,17.356v17.356
			c0,9.585-7.771,17.356-17.356,17.356h-17.356c-9.585,0-17.356-7.771-17.356-17.356v-17.356
			C299.39,207.364,307.16,199.593,316.746,199.593z"/>
	</g>
</g>
<g>
</g>
<g>
</g>
<g>
</g>
<g>
</g>
<g>
</g>
<g>
</g>
<g>
</g>
<g>
</g>
<g>
</g>
<g>
</g>
<g>
</g>
<g>
</g>
<g>
</g>
<g>
</g>
<g>
</g>
</svg>
