<?xml version="1.0" encoding="iso-8859-1"?>
<!-- Generator: Adobe Illustrator 19.0.0, SVG Export Plug-In . SVG Version: 6.00 Build 0)  -->
<svg version="1.1" id="Capa_1" xmlns="http://www.w3.org/2000/svg" xmlns:xlink="http://www.w3.org/1999/xlink" x="0px" y="0px"
	 viewBox="0 0 512 512" style="enable-background:new 0 0 512 512;" xml:space="preserve">
<g>
	<path style="fill:#95A5A5;" d="M494.345,211.862v35.31c-0.015,4.869-3.958,8.813-8.828,8.828h-46.08
		c-0.958,6.747-2.284,13.436-3.972,20.039H351.25c21.675-44.537,9.594-98.149-29.089-129.085s-93.639-30.936-132.322,0
		s-50.764,84.548-29.089,129.085H76.535c-1.688-6.602-3.014-13.292-3.972-20.039h-46.08c-4.869-0.015-8.813-3.958-8.828-8.828
		v-35.31c0.015-4.869,3.958-8.813,8.828-8.828h46.08c4.33-30.672,16.323-59.758,34.869-84.568L81.214,92.248
		c-3.443-3.469-3.443-9.066,0-12.535l24.982-24.982c3.469-3.443,9.066-3.443,12.535,0l26.218,26.218h0.088
		c24.787-18.53,53.839-30.522,84.48-34.869V8.828c0.015-4.869,3.958-8.813,8.828-8.828h35.31c4.869,0.015,8.813,3.958,8.828,8.828
		V46.08c30.672,4.33,59.758,16.323,84.568,34.869l26.218-26.218c3.469-3.443,9.066-3.443,12.535,0l24.982,24.982
		c3.443,3.469,3.443,9.066,0,12.535l-26.218,26.218v0.088c18.53,24.787,30.522,53.839,34.869,84.48h46.08
		C490.387,203.049,494.33,206.993,494.345,211.862z"/>
	<polygon style="fill:#BDC3C7;" points="269.771,220.69 301.815,194.745 247.084,133.826 211.862,150.069 251.939,194.745 
		220.69,219.71 221.572,220.69 	"/>
	<path style="fill:#41767F;" d="M406.069,353.103c24.377,0,44.138-19.761,44.138-44.138s-19.761-44.138-44.138-44.138H105.931
		c-24.377,0-44.138,19.761-44.138,44.138s19.761,44.138,44.138,44.138H406.069z"/>
	<path style="fill:#D1D4D1;" d="M406.069,379.586V238.345c0-14.626-11.857-26.483-26.483-26.483H132.414
		c-14.626,0-26.483,11.857-26.483,26.483v141.241c0,14.626,11.857,26.483,26.483,26.483h88.276c-9.751,0-17.655,7.904-17.655,17.655
		c0,9.751,7.904,17.655,17.655,17.655c-9.751,0-17.655,7.905-17.655,17.655s7.904,17.655,17.655,17.655h-88.276
		c-7.027-0.009-13.768,2.778-18.737,7.746c-4.969,4.969-7.756,11.71-7.746,18.737l0,8.828h300.138v-8.828
		c0.009-7.027-2.778-13.768-7.746-18.737s-11.71-7.756-18.736-7.746H291.31c9.751,0,17.655-7.905,17.655-17.655
		s-7.905-17.655-17.655-17.655c9.751,0,17.655-7.904,17.655-17.655c0-9.751-7.905-17.655-17.655-17.655h88.276
		C394.212,406.069,406.069,394.212,406.069,379.586z"/>
	<path style="fill:#BDC3C7;" d="M291.31,406.069c9.751,0,17.655,7.904,17.655,17.655c0,9.751-7.905,17.655-17.655,17.655
		c9.751,0,17.655,7.905,17.655,17.655s-7.905,17.655-17.655,17.655H220.69c-9.751,0-17.655-7.905-17.655-17.655
		s7.904-17.655,17.655-17.655c-9.751,0-17.655-7.904-17.655-17.655c0-9.751,7.904-17.655,17.655-17.655H291.31z"/>
	<g>
		<path style="fill:#46B29D;" d="M176.552,247.172h17.655c9.751,0,17.655,7.904,17.655,17.655v17.655
			c0,9.751-7.904,17.655-17.655,17.655h-17.655c-9.751,0-17.655-7.905-17.655-17.655v-17.655
			C158.897,255.077,166.801,247.172,176.552,247.172z"/>
		<path style="fill:#46B29D;" d="M317.793,247.172h17.655c9.751,0,17.655,7.904,17.655,17.655v17.655
			c0,9.751-7.905,17.655-17.655,17.655h-17.655c-9.751,0-17.655-7.905-17.655-17.655v-17.655
			C300.138,255.077,308.042,247.172,317.793,247.172z"/>
	</g>
	<circle style="fill:#14A085;" cx="220.69" cy="132.414" r="26.483"/>
	<rect x="158.897" y="370.759" style="fill:#67B9CC;" width="194.207" height="35.31"/>
	<path style="fill:#41767F;" d="M353.103,353.103v17.655H158.897v-17.655c0.028-9.739,7.916-17.627,17.655-17.655h158.897
		C345.187,335.477,353.075,343.365,353.103,353.103z"/>
</g>
<g>
</g>
<g>
</g>
<g>
</g>
<g>
</g>
<g>
</g>
<g>
</g>
<g>
</g>
<g>
</g>
<g>
</g>
<g>
</g>
<g>
</g>
<g>
</g>
<g>
</g>
<g>
</g>
<g>
</g>
</svg>
