<?xml version="1.0" encoding="iso-8859-1"?>
<!-- Generator: Adobe Illustrator 19.0.0, SVG Export Plug-In . SVG Version: 6.00 Build 0)  -->
<svg version="1.1" id="Capa_1" xmlns="http://www.w3.org/2000/svg" xmlns:xlink="http://www.w3.org/1999/xlink" x="0px" y="0px"
	 viewBox="0 0 512 512" style="enable-background:new 0 0 512 512;" xml:space="preserve">
<g>
	<path style="fill:#D1D4D1;" d="M229.517,123.586V0l21.518,14.345c19.647,13.098,31.447,35.148,31.447,58.76v50.481H229.517z"/>
	<rect x="211.862" y="450.207" style="fill:#A5A5A4;" width="88.276" height="61.793"/>
	<path style="fill:#D1D4D1;" d="M185.379,388.414h141.241v52.966c0,14.626-11.857,26.483-26.483,26.483h-88.276
		c-14.626,0-26.483-11.857-26.483-26.483V388.414z"/>
	<path style="fill:#A5A5A4;" d="M260.414,406.069h62.371c7.776,0.032,15.463-1.656,22.51-4.943
		c5.434-2.397,10.397-5.745,14.654-9.887c5.775-5.344,10.271-11.922,13.153-19.244l38.753-98.516
		c2.205-5.554,3.227-11.507,3.001-17.479c-0.097-6.105-1.481-12.121-4.061-17.655c-1.93-4.285-4.555-8.223-7.768-11.652
		L333.82,149.01c-4.533-4.861-10.852-7.666-17.498-7.766s-13.046,2.513-17.724,7.236c-9.622,9.7-9.622,25.345,0,35.046
		l41.048,43.432c3.369,3.318,6.172,7.164,8.298,11.388c2.829,5.483,4.482,11.496,4.855,17.655
		c0.368,5.768-0.382,11.553-2.207,17.037l-14.566,43.255c-4.642,13.35-14.298,24.368-26.924,30.72
		c-7.537,3.771-15.848,5.736-24.276,5.738h-57.653c-8.428-0.002-16.739-1.967-24.276-5.738c-12.626-6.352-22.282-17.37-26.924-30.72
		l-14.566-43.255c-1.825-5.484-2.575-11.269-2.207-17.037c0.373-6.159,2.026-12.172,4.855-17.655
		c2.126-4.223,4.929-8.07,8.298-11.388l41.048-43.432c9.622-9.7,9.622-25.345,0-35.046c-4.677-4.723-11.077-7.336-17.724-7.236
		s-12.965,2.904-17.498,7.766l-69.208,77.683c-3.213,3.43-5.838,7.367-7.768,11.652c-2.58,5.534-3.963,11.55-4.061,17.655
		c-0.226,5.972,0.796,11.924,3.001,17.479l38.753,98.516c2.882,7.322,7.378,13.9,13.153,19.244c4.257,4.142,9.219,7.49,14.654,9.887
		c7.044,3.297,14.733,4.985,22.51,4.943H260.414z"/>
	<g>
		<path style="fill:#BDC3C7;" d="M164.057,238.345c-2.829,5.483-4.482,11.496-4.855,17.655H97.144
			c0.097-6.105,1.481-12.121,4.061-17.655H164.057z"/>
		<path style="fill:#BDC3C7;" d="M202.898,347.012l-36.193,54.113c-5.434-2.397-10.397-5.745-14.654-9.887l36.546-54.643
			C192.737,340.856,197.573,344.379,202.898,347.012z"/>
		<path style="fill:#BDC3C7;" d="M414.857,256h-62.058c-0.373-6.159-2.027-12.172-4.855-17.655h62.853
			C413.376,243.879,414.76,249.895,414.857,256z"/>
		<path style="fill:#BDC3C7;" d="M359.949,391.239c-4.257,4.142-9.22,7.49-14.654,9.887l-36.193-54.113
			c5.324-2.634,10.161-6.157,14.301-10.417L359.949,391.239z"/>
	</g>
	<path style="fill:#41767F;" d="M229.517,105.931h52.966c4.875,0,8.828,3.952,8.828,8.828v167.724
		c0,19.501-15.809,35.31-35.31,35.31c-19.501,0-35.31-15.809-35.31-35.31V114.759C220.69,109.883,224.642,105.931,229.517,105.931z"
		/>
	<polygon style="fill:#67B9CC;" points="291.311,220.69 291.311,256 220.69,282.483 220.69,247.172 	"/>
</g>
<g>
</g>
<g>
</g>
<g>
</g>
<g>
</g>
<g>
</g>
<g>
</g>
<g>
</g>
<g>
</g>
<g>
</g>
<g>
</g>
<g>
</g>
<g>
</g>
<g>
</g>
<g>
</g>
<g>
</g>
</svg>
