<?xml version="1.0" encoding="iso-8859-1"?>
<!-- Generator: Adobe Illustrator 19.0.0, SVG Export Plug-In . SVG Version: 6.00 Build 0)  -->
<svg version="1.1" id="Capa_1" xmlns="http://www.w3.org/2000/svg" xmlns:xlink="http://www.w3.org/1999/xlink" x="0px" y="0px"
	 viewBox="0 0 512 512" style="enable-background:new 0 0 512 512;" xml:space="preserve">
<g>
	<rect x="211.862" y="450.207" style="fill:#A5A5A4;" width="88.276" height="61.793"/>
	<path style="fill:#D1D4D1;" d="M185.379,388.414h141.241v52.966c0,14.626-11.857,26.483-26.483,26.483h-88.276
		c-14.626,0-26.483-11.857-26.483-26.483V388.414z"/>
	<path style="fill:#A5A5A4;" d="M260.414,406.069h79.978c7.776,0.032,15.463-1.656,22.51-4.943
		c5.434-2.397,10.397-5.745,14.654-9.887c5.775-5.344,10.271-11.922,13.153-19.244l38.753-98.516
		c2.205-5.554,3.227-11.507,3.001-17.479c-0.097-6.105-1.481-12.121-4.061-17.655c-1.93-4.285-4.555-8.223-7.768-11.652
		l-69.208-77.683c-4.533-4.861-10.852-7.666-17.498-7.766c-6.646-0.1-13.046,2.513-17.724,7.236c-9.622,9.7-9.622,25.345,0,35.046
		l41.048,43.432c3.369,3.318,6.172,7.164,8.298,11.388c2.829,5.483,4.482,11.496,4.855,17.655
		c0.368,5.768-0.382,11.553-2.207,17.037l-14.566,43.255c-4.642,13.35-14.298,24.368-26.924,30.72
		c-7.537,3.771-15.848,5.735-24.276,5.738h-92.866c-8.428-0.002-16.739-1.967-24.276-5.738c-12.626-6.352-22.282-17.37-26.924-30.72
		l-14.566-43.255c-1.825-5.484-2.575-11.269-2.207-17.037c0.373-6.159,2.026-12.172,4.855-17.655
		c2.126-4.223,4.929-8.07,8.298-11.388l41.048-43.432c9.622-9.7,9.622-25.345,0-35.046c-4.677-4.723-11.077-7.336-17.724-7.236
		c-6.646,0.1-12.965,2.904-17.498,7.766l-69.208,77.683c-3.213,3.43-5.838,7.367-7.768,11.652c-2.58,5.534-3.963,11.55-4.061,17.655
		c-0.226,5.972,0.796,11.924,3.001,17.479l38.753,98.516c2.882,7.322,7.378,13.9,13.153,19.244c4.257,4.142,9.219,7.49,14.654,9.887
		c7.044,3.297,14.733,4.985,22.51,4.943H260.414z"/>
	<g>
		<path style="fill:#BDC3C7;" d="M146.45,238.345c-2.829,5.483-4.482,11.497-4.855,17.655H79.537
			c0.097-6.105,1.481-12.121,4.061-17.655H146.45z"/>
		<path style="fill:#BDC3C7;" d="M185.291,347.013l-36.193,54.113c-5.434-2.397-10.397-5.745-14.654-9.887l36.546-54.643
			C175.13,340.856,179.967,344.379,185.291,347.013z"/>
		<path style="fill:#BDC3C7;" d="M432.464,256h-62.058c-0.373-6.159-2.027-12.172-4.855-17.655h62.852
			C430.983,243.879,432.366,249.895,432.464,256z"/>
		<path style="fill:#BDC3C7;" d="M377.556,391.239c-4.257,4.142-9.22,7.49-14.654,9.887l-36.193-54.113
			c5.324-2.634,10.161-6.157,14.301-10.417L377.556,391.239z"/>
	</g>
	<path style="fill:#B0D3F0;" d="M326.621,0H185.379c-4.684-0.025-9.177,1.855-12.447,5.208c-3.353,3.27-5.233,7.763-5.208,12.447
		c0.029,9.739,7.916,17.627,17.655,17.655h17.655v229.517c0,29.252,23.713,52.966,52.966,52.966s52.966-23.713,52.966-52.966V35.311
		h17.655c4.684,0.025,9.176-1.855,12.447-5.208c3.353-3.27,5.233-7.763,5.208-12.447C344.248,7.917,336.36,0.029,326.621,0z"/>
	<path style="fill:#46B29D;" d="M308.966,79.449v185.379c0,29.252-23.713,52.966-52.966,52.966s-52.966-23.713-52.966-52.966V76.006
		c15.861-4.759,32.916-3.534,47.934,3.443C280.982,93.484,289.721,89.6,308.966,79.449z"/>
	<g>
		<path style="fill:#65DDB9;" d="M238.345,141.242c-2.952,0.028-5.72-1.436-7.358-3.892c-1.638-2.456-1.927-5.573-0.767-8.289
			c0.427-1.081,1.058-2.07,1.857-2.914c2.063-2.143,5.078-3.084,7.994-2.493c2.916,0.59,5.327,2.63,6.394,5.407
			c1.163,2.714,0.876,5.832-0.762,8.289C244.066,139.807,241.298,141.271,238.345,141.242z"/>
		<path style="fill:#65DDB9;" d="M273.655,158.897c-2.952,0.028-5.72-1.436-7.358-3.892c-1.638-2.456-1.927-5.573-0.767-8.289
			c0.427-1.081,1.058-2.07,1.857-2.914c3.539-3.267,8.995-3.267,12.534,0c0.779,0.859,1.406,1.844,1.854,2.914
			c0.943,2.136,0.943,4.571,0,6.707c-0.45,1.068-1.077,2.053-1.854,2.914C278.261,157.995,276.003,158.918,273.655,158.897z"/>
		<path style="fill:#65DDB9;" d="M247.173,194.207c-2.348,0.023-4.607-0.9-6.267-2.56c-1.66-1.66-2.583-3.919-2.56-6.267
			c0.033-2.337,0.947-4.576,2.56-6.268c3.518-3.322,9.017-3.322,12.534,0c0.379,0.417,0.732,0.858,1.056,1.319
			c0.335,0.494,0.604,1.03,0.797,1.595c0.253,0.5,0.432,1.034,0.53,1.586c0.102,0.584,0.161,1.175,0.177,1.768
			c0.023,2.348-0.9,4.607-2.56,6.267C251.779,193.307,249.521,194.23,247.173,194.207z"/>
		<path style="fill:#65DDB9;" d="M247.173,264.828c-2.952,0.028-5.72-1.436-7.358-3.892s-1.927-5.573-0.767-8.289
			c0.427-1.081,1.058-2.07,1.857-2.914c2.556-2.47,6.33-3.197,9.621-1.854c1.08,0.427,2.069,1.056,2.914,1.854
			c0.779,0.859,1.406,1.844,1.854,2.914c1.163,2.714,0.876,5.832-0.762,8.29C252.893,263.393,250.125,264.857,247.173,264.828z"/>
		<path style="fill:#65DDB9;" d="M273.655,238.345c-2.348,0.022-4.606-0.901-6.268-2.56c-0.78-0.859-1.408-1.844-1.858-2.914
			c-0.491-1.048-0.732-2.196-0.702-3.354c0.033-2.337,0.947-4.576,2.56-6.268c0.857-0.779,1.841-1.406,2.909-1.854
			c3.292-1.343,7.067-0.616,9.625,1.854c1.612,1.693,2.526,3.931,2.561,6.268c-0.014,1.153-0.254,2.293-0.707,3.353
			c-0.45,1.068-1.077,2.053-1.854,2.914c-0.859,0.779-1.844,1.406-2.914,1.854C275.948,238.091,274.808,238.331,273.655,238.345z"/>
	</g>
</g>
<g>
</g>
<g>
</g>
<g>
</g>
<g>
</g>
<g>
</g>
<g>
</g>
<g>
</g>
<g>
</g>
<g>
</g>
<g>
</g>
<g>
</g>
<g>
</g>
<g>
</g>
<g>
</g>
<g>
</g>
</svg>
