<?xml version="1.0" encoding="iso-8859-1"?>
<!-- Generator: Adobe Illustrator 19.0.0, SVG Export Plug-In . SVG Version: 6.00 Build 0)  -->
<svg version="1.1" id="Capa_1" xmlns="http://www.w3.org/2000/svg" xmlns:xlink="http://www.w3.org/1999/xlink" x="0px" y="0px"
	 viewBox="0 0 512.027 512.027" style="enable-background:new 0 0 512.027 512.027;" xml:space="preserve">
<g transform="translate(-1)">
	<g>
		<path style="fill:#95A5A5;" d="M433.578,406.073h52.966v44.138c0,4.875-3.952,8.828-8.828,8.828h-35.31
			c-4.875,0-8.828-3.952-8.828-8.828V406.073z"/>
		<path style="fill:#95A5A5;" d="M495.371,105.935c9.739,0.028,17.627,7.916,17.655,17.655v70.621
			c-0.029,9.739-7.916,17.627-17.655,17.655c9.739,0.028,17.627,7.916,17.655,17.655v70.621
			c-0.029,9.739-7.916,17.627-17.655,17.655c9.739,0.028,17.627,7.916,17.655,17.655v70.621
			c-0.029,9.739-7.916,17.627-17.655,17.655H142.268c-9.739-0.029-17.627-7.916-17.655-17.655v-70.621
			c0.028-9.739,7.916-17.627,17.655-17.655c-9.739-0.029-17.627-7.916-17.655-17.655v-70.621
			c0.028-9.739,7.916-17.627,17.655-17.655c-9.739-0.029-17.627-7.916-17.655-17.655V123.59c0.028-9.739,7.916-17.627,17.655-17.655
			c-9.739-0.029-17.627-7.916-17.655-17.655V17.659c0.028-9.739,7.916-17.627,17.655-17.655h353.103
			c9.739,0.028,17.627,7.916,17.655,17.655V88.28C512.998,98.018,505.11,105.906,495.371,105.935z"/>
	</g>
	<g>
		<circle style="fill:#14A085;" cx="177.578" cy="52.969" r="17.655"/>
		<circle style="fill:#CC4B4C;" cx="248.199" cy="52.969" r="17.655"/>
		<g>
			<path style="fill:#41767F;" d="M407.096,79.452c-2.342,0.001-4.588-0.928-6.244-2.584c-1.656-1.656-2.585-3.902-2.584-6.244
				v-35.31c0-4.875,3.952-8.828,8.828-8.828c4.875,0,8.828,3.952,8.828,8.828v35.31c0.001,2.342-0.928,4.588-2.584,6.244
				C411.683,78.524,409.437,79.453,407.096,79.452z"/>
			<path style="fill:#41767F;" d="M442.406,79.452c-2.342,0.001-4.588-0.928-6.244-2.584c-1.656-1.656-2.585-3.902-2.584-6.244
				v-35.31c0-4.875,3.952-8.828,8.828-8.828s8.828,3.952,8.828,8.828v35.31c0.001,2.342-0.928,4.588-2.584,6.244
				C446.994,78.524,444.748,79.453,442.406,79.452z"/>
			<path style="fill:#41767F;" d="M477.716,79.452c-2.342,0.001-4.588-0.928-6.244-2.584c-1.656-1.656-2.585-3.902-2.584-6.244
				v-35.31c0-4.875,3.952-8.828,8.828-8.828s8.828,3.952,8.828,8.828v35.31c0.001,2.342-0.928,4.588-2.584,6.244
				C482.304,78.524,480.058,79.453,477.716,79.452z"/>
		</g>
		<path style="fill:#7F8C8D;" d="M142.268,105.935h353.103c9.751,0,17.655,7.904,17.655,17.655v70.621
			c0,9.751-7.905,17.655-17.655,17.655H142.268c-9.751,0-17.655-7.904-17.655-17.655V123.59
			C124.613,113.839,132.517,105.935,142.268,105.935z"/>
		<circle style="fill:#46B29D;" cx="177.578" cy="158.9" r="17.655"/>
		<circle style="fill:#CC4B4C;" cx="248.199" cy="158.9" r="17.655"/>
		<g>
			<path style="fill:#41767F;" d="M407.096,185.383c-2.342,0.001-4.588-0.928-6.244-2.584c-1.656-1.656-2.585-3.902-2.584-6.244
				v-35.31c0-4.875,3.952-8.828,8.828-8.828c4.875,0,8.828,3.952,8.828,8.828v35.31c0.001,2.342-0.928,4.588-2.584,6.244
				C411.683,184.455,409.437,185.384,407.096,185.383z"/>
			<path style="fill:#41767F;" d="M442.406,185.383c-2.342,0.001-4.588-0.928-6.244-2.584s-2.585-3.902-2.584-6.244v-35.31
				c0-4.875,3.952-8.828,8.828-8.828s8.828,3.952,8.828,8.828v35.31c0.001,2.342-0.928,4.588-2.584,6.244
				C446.994,184.455,444.748,185.384,442.406,185.383z"/>
			<path style="fill:#41767F;" d="M477.716,185.383c-2.342,0.001-4.588-0.928-6.244-2.584c-1.656-1.656-2.585-3.902-2.584-6.244
				v-35.31c0-4.875,3.952-8.828,8.828-8.828s8.828,3.952,8.828,8.828v35.31c0.001,2.342-0.928,4.588-2.584,6.244
				S480.058,185.384,477.716,185.383z"/>
			<path style="fill:#41767F;" d="M407.096,291.314c-2.342,0.001-4.588-0.928-6.244-2.584c-1.656-1.656-2.585-3.902-2.584-6.244
				v-35.31c0-4.875,3.952-8.828,8.828-8.828c4.875,0,8.828,3.952,8.828,8.828v35.31c0.001,2.342-0.928,4.588-2.584,6.244
				C411.683,290.386,409.437,291.315,407.096,291.314z"/>
			<path style="fill:#41767F;" d="M442.406,291.314c-2.342,0.001-4.588-0.928-6.244-2.584c-1.656-1.656-2.585-3.902-2.584-6.244
				v-35.31c0-4.875,3.952-8.828,8.828-8.828s8.828,3.952,8.828,8.828v35.31c0.001,2.342-0.928,4.588-2.584,6.244
				C446.994,290.386,444.748,291.315,442.406,291.314z"/>
			<path style="fill:#41767F;" d="M477.716,291.314c-2.342,0.001-4.588-0.928-6.244-2.584c-1.656-1.656-2.585-3.902-2.584-6.244
				v-35.31c0-4.875,3.952-8.828,8.828-8.828s8.828,3.952,8.828,8.828v35.31c0.001,2.342-0.928,4.588-2.584,6.244
				C482.304,290.386,480.058,291.315,477.716,291.314z"/>
		</g>
		<path style="fill:#7F8C8D;" d="M142.268,317.797h353.103c9.751,0,17.655,7.904,17.655,17.655v70.621
			c0,9.751-7.905,17.655-17.655,17.655H142.268c-9.751,0-17.655-7.905-17.655-17.655v-70.621
			C124.613,325.701,132.517,317.797,142.268,317.797z"/>
		<g>
			<path style="fill:#41767F;" d="M407.096,397.245c-2.342,0.001-4.588-0.928-6.244-2.584c-1.656-1.656-2.585-3.902-2.584-6.244
				v-35.31c0-4.875,3.952-8.828,8.828-8.828c4.875,0,8.828,3.952,8.828,8.828v35.31c0.001,2.342-0.928,4.588-2.584,6.244
				C411.683,396.317,409.437,397.246,407.096,397.245z"/>
			<path style="fill:#41767F;" d="M442.406,397.245c-2.342,0.001-4.588-0.928-6.244-2.584c-1.656-1.656-2.585-3.902-2.584-6.244
				v-35.31c0-4.875,3.952-8.828,8.828-8.828s8.828,3.952,8.828,8.828v35.31c0.001,2.342-0.928,4.588-2.584,6.244
				C446.994,396.317,444.748,397.246,442.406,397.245z"/>
			<path style="fill:#41767F;" d="M477.716,397.245c-2.342,0.001-4.588-0.928-6.244-2.584c-1.656-1.656-2.585-3.902-2.584-6.244
				v-35.31c0-4.875,3.952-8.828,8.828-8.828s8.828,3.952,8.828,8.828v35.31c0.001,2.342-0.928,4.588-2.584,6.244
				C482.304,396.317,480.058,397.246,477.716,397.245z"/>
		</g>
		<path style="fill:#CC66A1;" d="M362.958,372.881c0.017,2.095-0.101,4.188-0.353,6.268c-0.152,1.961-0.447,3.908-0.883,5.826
			c-0.008,0.331-0.067,0.658-0.176,0.971c-0.324,1.715-0.798,3.399-1.414,5.032c0.023,0.153-0.008,0.309-0.088,0.441
			c-0.486,1.666-1.106,3.289-1.854,4.855c-0.099,0.468-0.278,0.916-0.529,1.324c-0.44,1.159-0.971,2.28-1.589,3.354
			c-0.29,0.607-0.614,1.196-0.971,1.766c-0.71,1.344-1.506,2.642-2.383,3.884c-0.53,0.883-1.237,1.766-1.855,2.648
			c-0.883,1.236-1.766,2.295-2.736,3.443c-5.312,6.157-11.794,11.198-19.069,14.83c-1.22,0.706-2.488,1.325-3.795,1.854
			c-0.397,0.186-0.81,0.333-1.235,0.441c-1.141,0.533-2.322,0.975-3.532,1.324c-0.822,0.357-1.68,0.624-2.559,0.794
			c-1.236,0.353-2.472,0.706-3.708,0.971c-0.577,0.169-1.168,0.287-1.766,0.353c-0.353,0.088-0.795,0.177-1.236,0.265l10.681,41.843
			c2.122,8.44-1.968,17.211-9.799,21.01l-30.366,15.007c-1.583,0.77-3.415,0.845-5.057,0.209c-1.641-0.636-2.944-1.928-3.594-3.563
			l-22.864-58.703c-0.619,0.794-1.235,1.589-1.942,2.383c-0.63,0.805-1.308,1.572-2.03,2.295c-3.607,3.587-7.901,6.409-12.624,8.298
			c-0.586,0.311-1.209,0.549-1.854,0.706c-0.738,0.315-1.507,0.552-2.295,0.706c-0.649,0.269-1.332,0.448-2.03,0.53l-1.324,0.265
			c-0.698,0.161-1.406,0.278-2.119,0.353c-1.524,0.179-3.056,0.267-4.59,0.265c-5.591,0.048-11.119-1.19-16.155-3.619
			c-0.331,0.614-0.747,1.179-1.235,1.677c-0.989,1.593-2.111,3.099-3.354,4.502c-0.794,0.883-1.678,1.854-2.472,2.737
			c-0.846,0.949-1.76,1.834-2.736,2.648c-1.851,1.76-3.827,3.383-5.914,4.855c-0.971,0.706-2.03,1.412-3.178,2.119
			c-0.289,0.256-0.617,0.465-0.972,0.618c-0.793,0.441-1.5,0.883-2.294,1.324c-1.091,0.693-2.243,1.284-3.443,1.766
			c-1.148,0.53-2.295,1.059-3.531,1.501c-1.177,0.519-2.386,0.961-3.619,1.324c-2.957,1.034-5.999,1.802-9.092,2.295
			c-1.664,0.303-3.344,0.51-5.031,0.618c-1.766,0.177-3.708,0.265-5.561,0.265c-1.681,0-3.361-0.089-5.033-0.265
			c-0.68-0.015-1.359-0.074-2.031-0.177c-1.605-0.105-3.199-0.342-4.766-0.706c-1.943-0.353-3.796-0.794-5.65-1.324
			c-1.5-0.441-2.914-0.883-4.326-1.412c-0.469-0.099-0.917-0.278-1.324-0.53c-1.597-0.586-3.159-1.264-4.678-2.03
			c-3.494-1.69-6.806-3.731-9.888-6.091c-1.522-1.075-2.968-2.255-4.326-3.531c-1.388-1.227-2.714-2.524-3.972-3.884l-0.353-0.353
			c-1.147-1.236-2.207-2.56-3.266-3.884c-0.971-1.236-1.854-2.472-2.736-3.796l-0.53-0.794c-0.441-0.618-0.794-1.324-1.235-2.03
			l-1.855-3.443c-10.725,9.639-26.021,12.285-39.361,6.81c-13.34-5.475-22.366-18.105-23.227-32.499
			C8.991,419.562-3.558,394.056,2.526,369.35c6.427-24.34,29.065-40.821,54.203-39.459h0.441v-0.088
			c-0.017-1.919,0.101-3.836,0.353-5.738c0.083-1.189,0.26-2.37,0.529-3.531c0.088-0.441,0.177-0.883,0.265-1.236
			c0.265-1.148,0.53-2.295,0.884-3.354c0.093-0.639,0.271-1.262,0.529-1.854c6.416-18.363,22.922-31.32,42.284-33.192
			c1.701-0.179,3.41-0.267,5.121-0.265c8.562-0.023,16.985,2.166,24.452,6.356c0.177-0.353,0.353-0.618,0.529-0.971
			c1.64-3.159,3.592-6.146,5.826-8.916c0.538-0.719,1.127-1.398,1.765-2.03c1.822-2.146,3.831-4.125,6.003-5.914
			c0.987-0.849,2.018-1.645,3.09-2.383l3.178-2.119c2.139-1.43,4.416-2.643,6.797-3.619c1.167-0.59,2.377-1.092,3.619-1.501
			c1.235-0.441,2.472-0.883,3.707-1.235c2.713-0.817,5.488-1.407,8.298-1.766c1.059-0.177,2.207-0.265,3.354-0.353
			c1.412-0.088,2.825-0.177,4.237-0.177c18.011-0.029,34.946,8.57,45.55,23.128l0.088,0.088c1.149-0.883,2.295-1.677,3.444-2.472
			c0.195-0.086,0.374-0.206,0.529-0.353c2.287-1.359,4.644-2.596,7.061-3.708c0.088,0,0.177-0.088,0.353-0.177
			c2.525-1.038,5.122-1.893,7.769-2.56c4.32-1.143,8.773-1.707,13.241-1.677c25.936-0.097,48.112,18.638,52.348,44.226
			c1.766,0.353,3.53,0.794,5.297,1.236c1.412,0.441,2.736,0.794,4.061,1.324c0.632,0.197,1.251,0.433,1.854,0.706
			c1.058,0.442,2.117,0.883,3.178,1.324l1.589,0.794c1.221,0.53,2.401,1.15,3.53,1.854l1.324,0.794
			c1.259,0.712,2.468,1.508,3.619,2.383c1.441,0.982,2.826,2.043,4.149,3.178c1.5,1.236,3.001,2.648,4.502,4.061
			c2.228,2.358,4.292,4.865,6.179,7.503c0.795,1.059,1.412,2.03,2.119,3.178c0.353,0.618,0.795,1.236,1.149,1.854
			c0.353,0.618,0.705,1.324,1.058,2.03c0.706,1.22,1.326,2.489,1.854,3.796c0.186,0.397,0.334,0.811,0.442,1.236
			c0.548,1.104,0.991,2.257,1.324,3.443c0.356,0.73,0.623,1.501,0.794,2.295c0.348,1.037,0.614,2.099,0.795,3.178
			c0.257,0.84,0.464,1.695,0.617,2.56c0.377,1.654,0.613,3.338,0.706,5.032c0.071,0.136,0.102,0.289,0.088,0.441
			C362.858,368.751,362.975,370.816,362.958,372.881z"/>
		<g>
			<path style="fill:#804169;" d="M78.363,370.762c-3.137,0.004-6.041-1.656-7.629-4.362c-5.198-8.782-7.932-18.803-7.914-29.009
				c0-4.875,3.952-8.828,8.828-8.828c4.875,0,8.828,3.952,8.828,8.828c-0.007,7.065,1.893,14.002,5.5,20.078
				c1.602,2.729,1.621,6.107,0.048,8.853C84.45,369.069,81.527,370.763,78.363,370.762z"/>
			<path style="fill:#804169;" d="M125.846,333.338c-2.342,0.001-4.588-0.928-6.244-2.584c-1.656-1.656-2.585-3.902-2.584-6.244
				c-0.013-9.841,2.278-19.548,6.69-28.345c1.418-2.823,4.237-4.674,7.391-4.852c3.155-0.178,6.164,1.343,7.891,3.989
				c1.727,2.646,1.909,6.013,0.476,8.829c-3.167,6.326-4.809,13.305-4.793,20.379c0.001,2.342-0.928,4.588-2.584,6.243
				C130.433,332.409,128.187,333.339,125.846,333.338z"/>
			<path style="fill:#804169;" d="M204.065,326.624c-0.888-0.001-1.772-0.135-2.621-0.397c-4.656-1.448-7.257-6.396-5.81-11.052
				c3.79-12.118,11.233-22.768,21.31-30.491c1.586-1.121,2.802-1.957,4.112-2.802c2.643-1.719,6.001-1.897,8.811-0.468
				c2.81,1.429,4.643,4.249,4.81,7.397c0.167,3.148-1.358,6.146-4,7.864c-1.155,0.759-2.233,1.509-3.31,2.25
				c-7.035,5.477-12.224,12.977-14.871,21.491C211.347,324.108,207.931,326.623,204.065,326.624z"/>
			<path style="fill:#804169;" d="M292.337,433.709c-4.875,0-8.828-3.952-8.828-8.828s3.952-8.828,8.828-8.828
				c3.397,0.027,6.789-0.294,10.121-0.957c3.095-0.666,6.309,0.377,8.423,2.733c2.114,2.356,2.804,5.664,1.808,8.669
				c-0.996,3.005-3.525,5.246-6.628,5.873C301.544,433.287,296.945,433.735,292.337,433.709z"/>
			<path style="fill:#804169;" d="M251.386,338.986c-3.806,0.004-7.186-2.432-8.386-6.044c-1.2-3.612,0.05-7.586,3.102-9.861
				c12.324-9.214,27.311-14.167,42.698-14.112c4.586-0.023,9.162,0.428,13.655,1.345c2.074,0.312,4.119,0.796,6.112,1.448
				c1.608,0.404,3.184,0.926,4.716,1.56c2.933,1.172,5.017,3.821,5.464,6.948c0.447,3.127-0.81,6.254-3.297,8.2
				c-2.487,1.947-5.825,2.416-8.752,1.231c-0.947-0.381-1.917-0.7-2.905-0.957c-1.43-0.463-2.895-0.815-4.379-1.052
				c-14.962-3.143-30.553,0.337-42.759,9.543C255.133,338.374,253.285,338.988,251.386,338.986z"/>
			<path style="fill:#804169;" d="M37.253,428.005c-2.342,0.001-4.588-0.928-6.244-2.584c-1.656-1.656-2.585-3.902-2.584-6.244
				c0.016-15.401,7.816-29.75,20.733-38.138c4.075-2.671,9.545-1.532,12.215,2.543c2.671,4.076,1.532,9.545-2.543,12.215
				c-7.928,5.137-12.725,13.932-12.75,23.379c0.001,2.342-0.928,4.588-2.584,6.244C41.841,427.077,39.595,428.006,37.253,428.005z"
				/>
			<path style="fill:#804169;" d="M96.725,450.211c-3.068,0.003-5.917-1.586-7.526-4.198c-0.871-1.407-1.655-2.867-2.345-4.371
				c-3.728-7.476-6.082-15.562-6.948-23.871c-0.507-4.843,3.004-9.181,7.846-9.695c4.842-0.514,9.185,2.992,9.706,7.833
				c0.665,6.296,2.461,12.42,5.302,18.078c0.437,0.95,0.93,1.874,1.474,2.767c1.677,2.722,1.75,6.139,0.192,8.931
				C102.868,448.476,99.922,450.208,96.725,450.211z"/>
			<path style="fill:#804169;" d="M203.259,459.038c-3.248-0.003-6.233-1.79-7.769-4.652c-1.536-2.862-1.377-6.337,0.416-9.046
				c3.571-5.431,6.072-11.493,7.371-17.862c1.018-4.751,5.685-7.786,10.44-6.789c4.755,0.997,7.811,5.65,6.835,10.41
				c-1.75,8.553-5.118,16.693-9.922,23.983C208.996,457.556,206.226,459.043,203.259,459.038z"/>
			<path style="fill:#804169;" d="M248.277,450.211c-3.436-0.004-6.558-2.002-8.001-5.121c-1.443-3.119-0.945-6.792,1.277-9.413
				c4.191-4.974,6.485-11.272,6.474-17.776c0-4.875,3.952-8.828,8.828-8.828c4.875,0,8.828,3.952,8.828,8.828
				c0.013,10.685-3.766,21.029-10.664,29.19C253.34,449.073,250.874,450.214,248.277,450.211z"/>
		</g>
	</g>
</g>
<g>
</g>
<g>
</g>
<g>
</g>
<g>
</g>
<g>
</g>
<g>
</g>
<g>
</g>
<g>
</g>
<g>
</g>
<g>
</g>
<g>
</g>
<g>
</g>
<g>
</g>
<g>
</g>
<g>
</g>
</svg>
