<svg height="512pt" viewBox="-34 0 512 512.03773" width="512pt" xmlns="http://www.w3.org/2000/svg"><path d="m167.742188 44.136719c4.753906-7.296875 11.1875-13.351563 18.757812-17.652344 12.140625-6.621094 29.792969-8.828125 51.863281 8.824219-3.714843 6.410156-9.039062 11.734375-15.449219 15.449218-11.03125 6.621094-28.6875 11.035157-55.171874 2.207032h-97.101563c-52.964844 17.65625-70.6210938-17.65625-70.6210938-17.65625 44.1367188-35.308594 70.6210938 8.828125 70.6210938 8.828125zm0 0" fill="#804537"/><path d="m331.054688 463.449219v22.066406c0 14.628906-11.859376 26.484375-26.484376 26.484375s-26.484374-11.855469-26.484374-26.484375v-22.066406zm0 0" fill="#2c2f38"/><path d="m335.46875 423.371094-4.414062 44.492187h-52.96875v-26.660156c-1.5.089844-2.910157.175781-4.410157.175781-21.101562 0-39.636719-15.800781-49.613281-35.488281l59.410156-8.824219c7.6875 10.859375 18.632813 18.988282 31.25 23.214844 6.570313 2.664062 13.683594 3.726562 20.746094 3.089844zm0 0" fill="#804537"/><path d="m384.019531 463.449219v22.066406c0 14.628906-11.855469 26.484375-26.484375 26.484375-14.625 0-26.480468-11.855469-26.480468-26.484375v-22.066406zm0 0" fill="#606060"/><path d="m101.535156 454.621094v30.894531c0 14.628906-11.855468 26.484375-26.480468 26.484375-14.628907 0-26.484376-11.855469-26.484376-26.484375v-30.894531zm0 0" fill="#2c2f38"/><path d="m154.5 454.621094v30.894531c.011719 7.277344-2.972656 14.234375-8.246094 19.246094-5.277344 5.007812-12.382812 7.625-19.648437 7.238281-14.375-1.289062-25.316407-13.460938-25.070313-27.894531v-29.484375zm0 0" fill="#606060"/><path d="m95.179688 275.683594c-.085938.089844-.175782.179687-.265626.179687-1.601562 1.699219-3.839843 2.660157-6.179687 2.648438-2.226563-.007813-4.371094-.859375-6-2.386719-.488281-.457031-.929687-.957031-1.324219-1.5-2.289062-3.410156-1.921875-7.945312.882813-10.945312 3.089843-3.355469 0-4.414063-3.382813-7.679688l-32-31.171875c-6.914062-7.675781-10.914062-17.535156-11.308594-27.859375v-20.417969c.988282-6.160156 5.542969-11.148437 11.59375-12.683593 4.851563 0 13.785157 3.972656 13.785157 8.828124l.558593 21.511719c-.164062 3.957031 1.578126 7.75 4.6875 10.203125l31.441407 31.179688c9.984375 10.0625 7.132812 29.679687-2.488281 40.09375zm0 0" fill="#af8066"/><path d="m200.289062 171.863281 4.972657 22.34375c.3125 10.960938-2.984375 21.71875-9.386719 30.621094l-36.960938 31.171875c-3.351562 3.265625-5.914062 4.324219-2.824218 7.679688 2.804687 3 3.171875 7.535156.882812 10.945312-.394531.542969-.835937 1.042969-1.324218 1.5-1.628907 1.527344-3.773438 2.378906-6.003907 2.386719-2.335937.011719-4.574219-.949219-6.175781-2.648438-.089844 0-.179688-.089843-.265625-.179687-9.621094-10.414063-16.976563-26.71875-7-36.78125l28.777344-34.207032c3.390625-2.457031 5.5-6.308593 5.746093-10.488281l5.128907-17.65625c0-4.855469 6.621093-14.34375 11.476562-14.34375s12.957031 4.800781 12.957031 9.65625zm0 0" fill="#af8066"/><path d="m74.964844 96.925781c-5.683594-7.589843-8.75-16.820312-8.738282-26.304687v-35.3125c0-19.5 15.808594-35.308594 35.308594-35.308594h35.3125c19.5 0 35.308594 15.808594 35.308594 35.308594v35.3125c.019531 8.773437-2.59375 17.355468-7.503906 24.628906zm0 0" fill="#fdd7ad"/><path d="m110.363281 44.136719c0 4.875-3.953125 8.828125-8.828125 8.828125s-8.828125-3.953125-8.828125-8.828125 3.953125-8.828125 8.828125-8.828125 8.828125 3.953125 8.828125 8.828125zm0 0" fill="#2c2f38"/><path d="m145.675781 44.136719c0 4.875-3.953125 8.828125-8.828125 8.828125s-8.828125-3.953125-8.828125-8.828125 3.953125-8.828125 8.828125-8.828125 8.828125 3.953125 8.828125 8.828125zm0 0" fill="#2c2f38"/><path d="m339.882812 273.65625s8.824219-35.3125 52.964844-35.3125c32.351563 0 45.734375 47.433594 50.570313 72.757812.34375 1.914063-.609375 3.828126-2.34375 4.710938-1.730469.878906-3.839844.523438-5.183594-.878906-16.613281-17.964844-50.160156-47.078125-69.527344-14.796875zm0 0" fill="#804537"/><path d="m384.019531 374.996094v92.867187h-52.964843v-35.664062c-7.0625.632812-14.175782-.425781-20.746094-3.089844-12.617188-4.226563-23.5625-12.355469-31.25-23.21875-3.609375-5.113281-6.296875-10.820313-7.945313-16.859375-.417969-1.203125-.714843-2.445312-.882812-3.707031-.265625-1.234375-.441407-2.558594-.617188-3.796875-.089843-.96875-.175781-1.941406-.175781-2.914063-.148438-1.140625-.207031-2.289062-.175781-3.441406 0-1.589844.085937-3.089844.175781-4.679687.085938-.96875.175781-1.941407.351562-2.910157.175782-.972656.265626-2.121093.441407-3.089843.441406-2.207032.972656-4.328126 1.589843-6.445313.265626-.882813.53125-1.675781.882813-2.558594.707031-2.03125 1.5625-4.007812 2.558594-5.914062.621093-1.34375 1.328125-2.640625 2.121093-3.886719.792969-1.324219 1.585938-2.558594 2.46875-3.796875 3.480469-4.84375 7.675782-9.128906 12.449219-12.710937 17.375-12.976563 40.578125-15.050782 59.980469-5.359376 19.398438 9.6875 31.679688 29.488282 31.738281 51.175782zm0 0" fill="#cb8252"/><path d="m48.570312 378.113281h52.964844v80.921875h-52.964844zm0 0" fill="#804537"/><path d="m384.019531 352.925781v22.070313c-.058593-21.6875-12.339843-41.488282-31.738281-51.175782-19.402344-9.691406-42.605469-7.617187-59.980469 5.359376-4.773437 3.582031-8.96875 7.867187-12.449219 12.710937-.882812 1.238281-1.675781 2.472656-2.46875 3.796875-.792968 1.246094-1.5 2.542969-2.121093 3.886719-.996094 1.90625-1.851563 3.882812-2.558594 5.914062-.351563.882813-.617187 1.675781-.882813 2.558594-.617187 2.117187-1.148437 4.238281-1.589843 6.445313-.175781.96875-.351563 2.027343-.441407 3.089843-.085937 1.058594-.265624 1.941407-.351562 2.910157-.089844 1.589843-.175781 3.089843-.175781 4.679687-.03125 1.152344.027343 2.300781.175781 3.441406 0 .972657.085938 1.945313.175781 2.914063.175781 1.238281.351563 2.5625.617188 3.796875.167969 1.261719.464843 2.503906.882812 3.707031 1.648438 6.039062 4.335938 11.746094 7.945313 16.859375h-98.074219c-14.625 0-26.484375 11.859375-26.484375 26.484375v26.660156h-52.964844v-53.144531h-52.964844v-150.066406l14.652344 5.824219c4.742188 4.796874 11.832032 6.417968 18.1875 4.148437 2.535156-.828125 4.832032-2.25 6.707032-4.148437l.089843-.085938c.230469-.191406.410157-.433594.527344-.707031l24.214844 24.214843c3.449219 3.445313 9.035156 3.445313 12.484375 0l24.210937-19.800781c.089844.265625.265625-3.972656.53125-3.707031l.089844 4.5c1.941406 1.941406 4.234375-1.058594 6.707031-.265625 6.179688 2.207031 13.242188 5.210937 18.183594.265625l14.65625-10.238281h97.101562c53.628907 0 97.105469 43.472656 97.105469 97.101562zm0 0" fill="#cb8252"/><path d="m198.640625 141.066406h-30.367187c-12.269532 28.601563-51.84375 32.730469-51.84375 32.730469s-34.050782-4.128906-46.320313-32.730469h-30.367187c-14.625 0-26.480469 11.855469-26.480469 26.480469v42.019531c0 13.621094 11.472656 22.695313 19.796875 32.027344 9.15625 10.535156 19.289062 20.183594 30.261718 28.8125 2.542969 2.085938 5.441407 3.695312 8.554688 4.75 3.984375 1.074219 8.230469.59375 11.875-1.34375 3.0625-1.492188 5.265625-4.320312 5.957031-7.65625.6875-3.339844-.207031-6.808594-2.425781-9.398438-2.976562-3.53125-6.992188-6.679687-10.347656-10.027343l-26.835938-26.835938c-6.578125-6.65625-10.292968-15.621093-10.355468-24.980469v-18.539062c0-4.875 3.953124-8.828125 8.828124-8.828125s8.828126 3.953125 8.828126 8.828125v18.539062c.003906 4.675782 1.878906 9.160157 5.207031 12.445313l31.867187 31.867187c9.996094 9.988282 10.308594 26.089844.707032 36.457032-.085938.089844-.175782.179687-.265626.179687l18.035157 18.035157c3.449219 3.445312 9.035156 3.445312 12.484375 0l18.035156-18.035157c-.089844 0-.179688-.089843-.265625-.179687-9.601563-10.367188-9.289063-26.46875.707031-36.457032l31.867188-31.867187c3.328125-3.285156 5.203125-7.769531 5.207031-12.445313v-18.539062c0-4.875 3.953125-8.828125 8.828125-8.828125s8.828125 3.953125 8.828125 8.828125v18.539062c-.054687 9.355469-3.761719 18.320313-10.328125 24.980469l-26.835938 26.835938c-3.355468 3.347656-7.371093 6.453125-10.347656 10.027343-2.21875 2.589844-3.117187 6.058594-2.425781 9.398438.691406 3.335938 2.890625 6.164062 5.957031 7.65625 3.644532 1.9375 7.890625 2.417969 11.875 1.34375 3.113282-1.054688 6.011719-2.664062 8.550782-4.75 10.976562-8.628906 21.105468-18.277344 30.261718-28.8125 8.296875-9.332031 19.773438-18.40625 19.773438-32.027344v-42.019531c0-14.625-11.855469-26.480469-26.480469-26.480469zm0 0" fill="#fdd7ad"/><path d="m112.269531 79.449219c-10.933593-.183594-21.589843 3.433593-30.152343 10.230469-1.097657.882812-2.183594 1.871093-3.242188 2.921874-8.351562 8.113282-12.9375 19.34375-12.648438 30.984376.125 6.027343 1.445313 11.964843 3.882813 17.480468 12.269531 28.601563 49.082031 53.140625 49.082031 53.140625s36.105469-24.980469 50.671875-53.140625c8.738281-16.863281 9.707031-34.871094-9.359375-49.347656-4.082031-3.109375-8.484375-5.773438-13.136718-7.945312-6.378907-2.941407-13.335938-4.417969-20.363282-4.324219zm0 0" fill="#804537"/></svg>