<svg height="512pt" viewBox="0 -48 512.00002 512" width="512pt" xmlns="http://www.w3.org/2000/svg"><g fill="#bdc3c7"><path d="m70.621094 235.46875c-4.875 0-8.828125-3.953125-8.828125-8.828125v-17.652344c0-4.875 3.953125-8.828125 8.828125-8.828125s8.828125 3.953125 8.828125 8.828125v17.652344c0 4.875-3.953125 8.828125-8.828125 8.828125zm0 0"/><path d="m123.585938 235.46875c-4.875 0-8.828126-3.953125-8.828126-8.828125v-17.652344c0-4.875 3.953126-8.828125 8.828126-8.828125s8.828124 3.953125 8.828124 8.828125v17.652344c0 4.875-3.953124 8.828125-8.828124 8.828125zm0 0"/><path d="m176.550781 235.46875c-4.875 0-8.828125-3.953125-8.828125-8.828125v-17.652344c0-4.875 3.953125-8.828125 8.828125-8.828125s8.828125 3.953125 8.828125 8.828125v17.652344c0 4.875-3.953125 8.828125-8.828125 8.828125zm0 0"/><path d="m203.035156 270.78125c-4.875 0-8.828125-3.953125-8.828125-8.828125v-17.65625c0-4.875 3.953125-8.828125 8.828125-8.828125s8.828125 3.953125 8.828125 8.828125v17.65625c0 4.875-3.953125 8.828125-8.828125 8.828125zm0 0"/><path d="m150.070312 270.78125c-4.875 0-8.828124-3.953125-8.828124-8.828125v-17.65625c0-4.875 3.953124-8.828125 8.828124-8.828125s8.828126 3.953125 8.828126 8.828125v17.65625c0 4.875-3.953126 8.828125-8.828126 8.828125zm0 0"/><path d="m97.101562 270.78125c-4.875 0-8.824218-3.953125-8.824218-8.828125v-17.65625c0-4.875 3.949218-8.828125 8.824218-8.828125 4.878907 0 8.828126 3.953125 8.828126 8.828125v17.65625c0 4.875-3.949219 8.828125-8.828126 8.828125zm0 0"/><path d="m17.65625 235.46875c-4.875 0-8.828125-3.953125-8.828125-8.828125v-17.652344c0-4.875 3.953125-8.828125 8.828125-8.828125s8.828125 3.953125 8.828125 8.828125v17.652344c0 4.875-3.953125 8.828125-8.828125 8.828125zm0 0"/><path d="m44.136719 270.78125c-4.875 0-8.828125-3.953125-8.828125-8.828125v-17.65625c0-4.875 3.953125-8.828125 8.828125-8.828125s8.828125 3.953125 8.828125 8.828125v17.65625c0 4.875-3.953125 8.828125-8.828125 8.828125zm0 0"/></g><path d="m460.535156 322.066406c1.5 1.324219 2.914063 2.648438 4.324219 4.0625 27.542969 27.628906 35.929687 63.910156 18.714844 81.125-17.210938 17.214844-53.582031 8.917969-81.125-18.714844-11.015625-10.695312-19.390625-23.8125-24.453125-38.3125l19.246094-51.304687zm0 0" fill="#c03a2b"/><path d="m411.011719 19.015625c25.867187-20.476563 56.144531-25.332031 71.503906-10.0625 17.214844 17.304687 8.828125 53.585937-18.714844 81.214844-1.851562 1.851562-3.796875 3.617187-5.738281 5.296875h-.085938l-97.742187 42.070312-51.269531-60.015625zm0 0" fill="#c03a2b"/><path d="m410.484375 320.566406c8.664063 2.125 17.558594 3.191406 26.480469 3.179688 6.421875-.011719 12.832031-.570313 19.15625-1.679688 29.75-5.207031 51.464844-22.242187 51.464844-42.457031 0-14.480469-11.121094-27.277344-28.335938-35.3125l-59.941406-2.9375zm0 0" fill="#e64c3c"/><path d="m414.898438 97.40625c8.664062-2.125 17.558593-3.191406 26.480468-3.179688 5.554688 0 11.101563.414063 16.597656 1.238282h.085938c30.984375 4.679687 53.9375 22.066406 53.9375 42.902344 0 14.476562-11.121094 27.277343-28.335938 35.308593l-135.707031 17.65625zm0 0" fill="#e64c3c"/><path d="m454.972656 252.242188c9.925782-1.117188 19.605469-3.796876 28.691406-7.945313 17.214844-8.03125 28.335938-20.832031 28.335938-35.308594 0-14.480469-11.121094-27.277343-28.335938-35.3125-7.8125-3.632812-16.109374-6.132812-24.628906-7.414062l-57.722656 56.699219zm0 0" fill="#c03a2b"/><path d="m414.015625 314.828125c-4.160156 20.589844-22.253906 35.394531-43.257813 35.398437h-317.792968c-29.25 0-52.964844-23.710937-52.964844-52.964843v-8.828125c0-14.625 11.855469-26.480469 26.484375-26.480469h223.867187v-52.964844h-223.867187c-14.628906 0-26.484375-11.859375-26.484375-26.484375v-35.308594c.0390625-43.863281 35.585938-79.410156 79.449219-79.449218h298.664062zm0 0" fill="#4fba6f"/><path d="m263.855469 67.746094c17.980469 17.554687 23.542969 44.246094 14.0625 67.519531-9.476563 23.273437-32.101563 38.488281-57.226563 38.488281-25.128906 0-47.753906-15.214844-57.230468-38.488281-9.476563-23.273437-3.917969-49.964844 14.0625-67.519531zm0 0" fill="#fff"/><path d="m339.066406 32.433594h-197.824218c-9.371094-.011719-18.355469 3.707031-24.980469 10.332031s-10.34375 15.613281-10.332031 24.980469h233.136718" fill="#f0c419"/><path d="m308.964844 235.46875c0 19.503906-15.808594 35.3125-35.308594 35.3125-19.503906 0-35.3125-15.808594-35.3125-35.3125 0-19.5 15.808594-35.308594 35.3125-35.308594 19.5 0 35.308594 15.808594 35.308594 35.308594zm0 0" fill="#f0c419"/><path d="m247.171875 103.054688c0-19.5-11.855469-35.308594-26.480469-35.308594-14.628906 0-26.484375 15.808594-26.484375 35.308594 0 19.503906 11.855469 35.3125 26.484375 35.3125 14.625 0 26.480469-15.808594 26.480469-35.3125zm0 0" fill="#2c2f38"/><path d="m52.964844 147.195312c0 14.652344-23.746094 26.480469-52.964844 26.480469v-26.480469c-.0078125-8.960937 1.515625-17.859374 4.503906-26.308593 27.097656 1.058593 48.460938 12.449219 48.460938 26.308593zm0 0" fill="#e4c05c"/><path d="m388.414062 235.46875c-39.003906 0-70.621093-31.617188-70.621093-70.621094 0-39 31.617187-70.621094 70.621093-70.621094 9.074219.011719 18.058594 1.75 26.484376 5.121094 26.671874 10.8125 44.128906 36.71875 44.136718 65.5v1.414063c-.460937 25.625-14.839844 48.96875-37.519531 60.910156" fill="#e57e25"/><path d="m459.035156 270.78125c0 24.375-19.761718 44.136719-44.136718 44.136719-24.378907 0-44.140626-19.761719-44.140626-44.136719 0-24.378906 19.761719-44.140625 44.140626-44.140625 24.375 0 44.136718 19.761719 44.136718 44.140625zm0 0" fill="#f29c1f"/><path d="m423.722656 270.78125c0 4.875-3.949218 8.828125-8.824218 8.828125-4.878907 0-8.828126-3.953125-8.828126-8.828125s3.949219-8.828125 8.828126-8.828125c4.875 0 8.824218 3.953125 8.824218 8.828125zm0 0" fill="#f0c419"/><path d="m414.898438 164.847656c0 14.628906-11.859376 26.484375-26.484376 26.484375s-26.484374-11.855469-26.484374-26.484375c0-14.625 11.859374-26.480468 26.484374-26.480468s26.484376 11.855468 26.484376 26.480468zm0 0" fill="#f0c419"/><path d="m423.722656 50.089844c0 24.378906-19.757812 44.136718-44.136718 44.136718-24.375 0-44.136719-19.757812-44.136719-44.136718 0-24.375 19.761719-44.136719 44.136719-44.136719 24.378906 0 44.136718 19.761719 44.136718 44.136719zm0 0" fill="#f29c1f"/><path d="m388.414062 50.089844c0 4.875-3.953124 8.828125-8.828124 8.828125s-8.828126-3.953125-8.828126-8.828125 3.953126-8.828125 8.828126-8.828125 8.828124 3.953125 8.828124 8.828125zm0 0" fill="#f0c419"/></svg>