<svg height="512pt" viewBox="-4 0 512 512.00001" width="512pt" xmlns="http://www.w3.org/2000/svg"><path d="m494.933594 162.132812c0 22.015626-14.421875 42.667969-39.253906 59.90625-1.960938 1.363282-4.011719 2.730469-6.144532 4.09375-44.882812-28.414062-118.613281-46.933593-202.070312-46.933593-83.453125 0-157.183594 18.519531-202.066406 46.933593-1.367188-.851562-2.730469-1.792968-4.097657-2.730468-26.113281-17.492188-41.300781-38.570313-41.300781-61.269532 0-61.269531 110.761719-110.933593 247.464844-110.933593 136.707031 0 247.46875 49.664062 247.46875 110.933593zm0 0" fill="#e57e25"/><path d="m494.078125 222.039062c-1.960937 1.363282-42.410156 2.730469-44.542969 4.09375-44.882812-28.414062-118.613281-46.933593-202.070312-46.933593-83.453125 0-157.183594 18.519531-202.066406 46.933593-1.367188-.851562-41.132813-1.792968-42.496094-2.730468 18.429687-48.214844 142.675781-84.734375 245.84375-84.734375 102.230468 0 225.792968 35.839843 245.332031 83.371093zm0 0" fill="#d25627"/><path d="m76.800781 477.867188c-3.671875 0-6.933593-2.351563-8.097656-5.835938-1.160156-3.484375.039063-7.320312 2.976563-9.523438l34.132812-25.601562c2.441406-1.828125 5.667969-2.21875 8.472656-1.019531 2.804688 1.195312 4.753906 3.800781 5.121094 6.824219.363281 3.027343-.914062 6.019531-3.351562 7.847656l-34.132813 25.601562c-1.476563 1.109375-3.273437 1.710938-5.121094 1.707032zm0 0" fill="#f3d55b"/><path d="m247.464844 512c-4.710938 0-8.53125-3.820312-8.53125-8.535156v-17.066406c0-4.710938 3.820312-8.53125 8.53125-8.53125 4.714844 0 8.535156 3.820312 8.535156 8.53125v17.066406c0 4.714844-3.820312 8.535156-8.535156 8.535156zm0 0" fill="#f3d55b"/><path d="m145.066406 512c-3.144531-.003906-6.035156-1.738281-7.519531-4.511719-1.480469-2.773437-1.316406-6.140625.429687-8.757812l17.066407-25.601563c2.613281-3.917968 7.914062-4.976562 11.835937-2.363281 3.921875 2.617187 4.976563 7.914063 2.363282 11.835937l-17.066407 25.601563c-1.585937 2.375-4.253906 3.800781-7.109375 3.796875zm0 0" fill="#f3d55b"/><path d="m418.132812 477.867188c-1.847656.003906-3.644531-.597657-5.121093-1.707032l-34.132813-25.601562c-2.4375-1.828125-3.714844-4.820313-3.351562-7.847656.367187-3.023438 2.316406-5.628907 5.121094-6.824219 2.804687-1.199219 6.03125-.808594 8.472656 1.019531l34.132812 25.601562c2.9375 2.203126 4.136719 6.039063 2.976563 9.523438-1.164063 3.484375-4.425781 5.835938-8.097657 5.835938zm0 0" fill="#f3d55b"/><path d="m349.867188 512c-2.855469.003906-5.523438-1.421875-7.109376-3.796875l-17.066406-25.601563c-2.617187-3.921874-1.558594-9.21875 2.363282-11.835937 3.921874-2.613281 9.222656-1.554687 11.835937 2.363281l17.066406 25.601563c1.746094 2.617187 1.910157 5.984375.429688 8.757812-1.484375 2.773438-4.375 4.507813-7.519531 4.511719zm0 0" fill="#f3d55b"/><path d="m110.933594 25.601562c0 4.710938-3.820313 8.53125-8.535156 8.53125-4.710938 0-8.53125-3.820312-8.53125-8.53125 0-4.714843 3.820312-8.535156 8.53125-8.535156 4.714843 0 8.535156 3.820313 8.535156 8.535156zm0 0" fill="#4fba6f"/><path d="m426.667969 17.066406c0 4.714844-3.820313 8.535156-8.535157 8.535156-4.710937 0-8.53125-3.820312-8.53125-8.535156 0-4.710937 3.820313-8.53125 8.53125-8.53125 4.714844 0 8.535157 3.820313 8.535157 8.53125zm0 0" fill="#4fba6f"/><path d="m51.199219 401.066406c0 4.714844-3.820313 8.535156-8.53125 8.535156-4.714844 0-8.535157-3.820312-8.535157-8.535156 0-4.710937 3.820313-8.53125 8.535157-8.53125 4.710937 0 8.53125 3.820313 8.53125 8.53125zm0 0" fill="#4fba6f"/><path d="m486.398438 375.464844c0 4.714844-3.820313 8.535156-8.53125 8.535156-4.714844 0-8.535157-3.820312-8.535157-8.535156 0-4.710938 3.820313-8.53125 8.535157-8.53125 4.710937 0 8.53125 3.820312 8.53125 8.53125zm0 0" fill="#4fba6f"/><path d="m494.933594 418.132812c0 4.714844-3.820313 8.535157-8.535156 8.535157-4.710938 0-8.53125-3.820313-8.53125-8.535157 0-4.710937 3.820312-8.53125 8.53125-8.53125 4.714843 0 8.535156 3.820313 8.535156 8.53125zm0 0" fill="#4fba6f"/><path d="m17.066406 426.667969c0 4.710937-3.820312 8.53125-8.53125 8.53125-4.714844 0-8.535156-3.820313-8.535156-8.53125 0-4.714844 3.820312-8.535157 8.535156-8.535157 4.710938 0 8.53125 3.820313 8.53125 8.535157zm0 0" fill="#4fba6f"/><path d="m34.132812 375.464844c0 4.714844-3.820312 8.535156-8.53125 8.535156-4.714843 0-8.535156-3.820312-8.535156-8.535156 0-4.710938 3.820313-8.53125 8.535156-8.53125 4.710938 0 8.53125 3.820312 8.53125 8.53125zm0 0" fill="#4fba6f"/><g fill="#7ed09e"><path d="m34.132812 25.601562c-4.710937 0-8.53125-3.820312-8.53125-8.535156v-8.53125c0-4.714844 3.820313-8.535156 8.53125-8.535156 4.714844 0 8.535157 3.820312 8.535157 8.535156v8.53125c0 4.714844-3.820313 8.535156-8.535157 8.535156zm0 0"/><path d="m59.734375 42.667969h-8.535156c-4.710938 0-8.53125-3.820313-8.53125-8.535157 0-4.710937 3.820312-8.53125 8.53125-8.53125h8.535156c4.710937 0 8.53125 3.820313 8.53125 8.53125 0 4.714844-3.820313 8.535157-8.53125 8.535157zm0 0"/><path d="m34.132812 68.265625c-4.710937 0-8.53125-3.820313-8.53125-8.53125v-8.535156c0-4.710938 3.820313-8.53125 8.53125-8.53125 4.714844 0 8.535157 3.820312 8.535157 8.53125v8.535156c0 4.710937-3.820313 8.53125-8.535157 8.53125zm0 0"/><path d="m17.066406 42.667969h-8.53125c-4.714844 0-8.535156-3.820313-8.535156-8.535157 0-4.710937 3.820312-8.53125 8.535156-8.53125h8.53125c4.714844 0 8.535156 3.820313 8.535156 8.53125 0 4.714844-3.820312 8.535157-8.535156 8.535157zm0 0"/><path d="m469.332031 42.667969c-4.710937 0-8.53125-3.820313-8.53125-8.535157v-8.53125c0-4.714843 3.820313-8.535156 8.53125-8.535156 4.714844 0 8.535157 3.820313 8.535157 8.535156v8.53125c0 4.714844-3.820313 8.535157-8.535157 8.535157zm0 0"/><path d="m494.933594 59.734375h-8.535156c-4.710938 0-8.53125-3.820313-8.53125-8.535156 0-4.710938 3.820312-8.53125 8.53125-8.53125h8.535156c4.710937 0 8.53125 3.820312 8.53125 8.53125 0 4.714843-3.820313 8.535156-8.53125 8.535156zm0 0"/><path d="m469.332031 85.332031c-4.710937 0-8.53125-3.820312-8.53125-8.53125v-8.535156c0-4.710937 3.820313-8.53125 8.53125-8.53125 4.714844 0 8.535157 3.820313 8.535157 8.53125v8.535156c0 4.710938-3.820313 8.53125-8.535157 8.53125zm0 0"/><path d="m452.265625 59.734375h-8.53125c-4.714844 0-8.535156-3.820313-8.535156-8.535156 0-4.710938 3.820312-8.53125 8.535156-8.53125h8.53125c4.714844 0 8.535156 3.820312 8.535156 8.53125 0 4.714843-3.820312 8.535156-8.535156 8.535156zm0 0"/></g><path d="m136.535156 297.214844v79.703125c-.007812 2.222656.429688 4.429687 1.277344 6.484375.769531 1.792968-6.742188 3.585937-5.289062 5.035156-78.082032-18.6875-132.523438-55.894531-132.523438-98.304688v-128c0 23.894532 16.8125 45.910157 45.398438 64 33.289062 19.433594 69.886718 32.539063 107.945312 38.65625l-11.777344 20.308594c-1.601562 1.617188-2.878906 3.53125-3.753906 5.632813-.847656 2.058593-1.285156 4.261719-1.277344 6.484375zm0 0" fill="#f0c419"/><path d="m494.933594 162.132812v128c0 42.410157-54.871094 79.789063-132.695313 98.558594 1.367188-1.449218-1.703125-3.15625-.9375-5.03125.914063-2.105468 1.40625-4.367187 1.453125-6.65625l-.085937-78.335937c0-2.65625-.371094-5.300781-1.109375-7.851563-.625-2.175781-1.769532-4.164062-3.328125-5.804687l-16.300781-20.308594c37.953124-6.058594 74.445312-19.136719 107.605468-38.570313 28.585938-18.089843 45.398438-40.191406 45.398438-64zm0 0" fill="#f29c1f"/><path d="m333.652344 311.066406-.367188 50.261719c-.121094 2.871094-.832031 5.683594-2.089844 8.269531-.875 1.941406-2.074218 3.722656-3.539062 5.273438l-37.71875 37.628906c-1.535156 1.53125-3.316406 2.789062-5.273438 3.722656-2.539062 1.269532-5.34375 1.925782-8.183593 1.910156h-58.878907c-2.523437-.019531-5.011718-.601562-7.28125-1.707031-1.707031-.753906-3.246093-1.835937-4.539062-3.183593l-38.179688-38.175782c-1.601562-1.523437-2.898437-3.34375-3.8125-5.359375v-.09375c-1.375-2.734375-2.089843-5.753906-2.089843-8.816406v-47.445313c0-3.058593.714843-6.078124 2.089843-8.8125v-.085937c.914063-2.019531 2.207032-3.84375 3.8125-5.367187l37.632813-37.625c1.484375-1.503907 3.242187-2.710938 5.179687-3.550782 2.378907-1.148437 4.996094-1.734375 7.636719-1.707031h59.078125c2.605469-.019531 5.179688.539063 7.542969 1.640625 1.96875.835938 3.757813 2.035156 5.273437 3.539062l39.253907 38.90625c1.121093 1.171876 2.042969 2.519532 2.722656 3.992188 1.09375 2.097656 1.6875 4.417969 1.730469 6.785156zm0 0" fill="#cc4b4c"/><path d="m365.824219 290.816406-39.082031 15.445313c-.640626-1.382813-1.507813-2.652344-2.5625-3.753907l-36.863282-36.523437c-1.421875-1.414063-3.101562-2.542969-4.949218-3.328125l15.703124-39.507812c2.070313.84375 3.957032 2.089843 5.546876 3.667968l38.3125 37.886719 20.566406 20.308594c1.5625 1.640625 2.703125 3.628906 3.328125 5.804687zm0 0" fill="#ff5364"/><path d="m298.070312 223.148438-15.703124 39.507812c-2.21875-1.03125-4.636719-1.554688-7.082032-1.535156h-55.464844c-2.484374-.023438-4.9375.53125-7.167968 1.621094l-15.789063-39.59375c2.058594-.851563 4.261719-1.285157 6.484375-1.28125h88.320313c2.199219-.003907 4.375.429687 6.402343 1.28125zm0 0" fill="#fb7b76"/><path d="m212.652344 262.742188c-1.820313.785156-3.472656 1.917968-4.867188 3.328124l-35.328125 35.328126c-1.507812 1.429687-2.726562 3.136718-3.582031 5.035156l-39.59375-15.703125c.875-2.101563 2.148438-4.015625 3.753906-5.632813l58.195313-58.195312c1.617187-1.605469 3.53125-2.878906 5.632812-3.753906zm0 0" fill="#ff5364"/><path d="m273.066406 298.667969c0 4.710937-3.820312 8.53125-8.53125 8.53125-4.714844 0-8.535156-3.820313-8.535156-8.53125 0-4.714844 3.820312-8.535157 8.535156-8.535157 4.710938 0 8.53125 3.820313 8.53125 8.535157zm0 0" fill="#e6e7e8"/><path d="m367.019531 377.003906c-.046875 2.289063-.539062 4.550782-1.453125 6.65625l-39.507812-16.042968c1.179687-2.425782 1.847656-5.070313 1.960937-7.765626l.34375-47.191406c-.03125-2.230468-.585937-4.421875-1.621093-6.398437l39.082031-15.445313c.738281 2.550782 1.113281 5.195313 1.109375 7.851563zm0 0" fill="#e64c3c"/><path d="m204.800781 358.398438c-4.714843 0-8.535156-3.820313-8.535156-8.53125v-25.601563c0-2.261719.902344-4.433594 2.5-6.03125l25.601563-25.601563c3.347656-3.234374 8.671874-3.1875 11.960937.105469 3.292969 3.289063 3.339844 8.613281.105469 11.960938l-23.101563 23.101562v22.066407c0 4.710937-3.820312 8.53125-8.53125 8.53125zm0 0" fill="#e6e7e8"/><path d="m365.566406 383.660156c-.792968 1.863282-1.921875 3.570313-3.328125 5.03125l-.253906.257813-58.28125 58.28125c-1.617187 1.605469-3.53125 2.878906-5.632813 3.757812l-15.703124-39.597656c1.835937-.875 3.511718-2.058594 4.949218-3.496094l35.414063-35.328125c1.378906-1.453125 2.503906-3.125 3.328125-4.949218zm0 0" fill="#c03a2b"/><path d="m212.566406 411.5625-15.703125 39.425781c-2.101562-.878906-4.015625-2.152343-5.632812-3.757812l-58.195313-58.195313c-.191406-.179687-.363281-.382812-.511718-.597656-1.390626-1.457031-2.492188-3.167969-3.242188-5.035156l39.59375-15.699219c.855469 1.894531 2.074219 3.605469 3.582031 5.03125l35.839844 35.839844c1.214844 1.269531 2.664063 2.28125 4.269531 2.988281zm0 0" fill="#c03a2b"/><path d="m298.070312 450.988281c-2.058593.847657-4.261718 1.28125-6.484374 1.277344h-88.238282c-2.222656.003906-4.425781-.429687-6.484375-1.277344l15.703125-39.425781c2.125 1.046875 4.457032 1.601562 6.824219 1.621094h55.296875c2.664062.015625 5.296875-.597656 7.679688-1.792969zm0 0" fill="#802f34"/><path d="m166.910156 314.792969v44.546875c.003906 2.875.675782 5.707031 1.964844 8.277344v.085937l-39.59375 15.699219c-.851562-2.054688-1.285156-4.261719-1.28125-6.484375v-79.703125c-.003906-2.222656.429688-4.425782 1.28125-6.484375l39.59375 15.703125v.082031c-1.289062 2.570313-1.960938 5.40625-1.964844 8.277344zm0 0" fill="#e64c3c"/></svg>