<svg id="Capa_1" enable-background="new 0 0 512.679 512.679" height="512" viewBox="0 0 512.679 512.679" width="512" xmlns="http://www.w3.org/2000/svg"><g><g><g><g><g><path d="m203.662 499.603c-5.246 0-10.337-2.77-13.075-7.684l-127.15-228.281c-2.508-4.504-2.528-9.982-.052-14.503l127.152-232.14c3.972-7.253 13.062-9.909 20.305-5.928 7.241 3.979 9.892 13.085 5.919 20.338l-123.171 224.874 123.12 221.044c4.024 7.225 1.439 16.35-5.775 20.38-2.306 1.288-4.807 1.9-7.273 1.9z" fill="#feebd9"/><path d="m93.624 256.339h-32.08c0 2.515.631 5.03 1.894 7.298l127.151 228.281c2.738 4.915 7.828 7.684 13.075 7.684 2.465 0 4.967-.612 7.273-1.901 7.214-4.031 9.799-13.155 5.775-20.38z" fill="#fde4c3"/></g><g><g><path d="m487.252 271.319h-471.827c-8.26 0-14.956-6.707-14.956-14.98s6.696-14.98 14.956-14.98h471.827c8.26 0 14.956 6.707 14.956 14.98-.001 8.273-6.697 14.98-14.956 14.98z" fill="#fcd1a6"/><path d="m.469 256.339c0 8.273 6.696 14.98 14.956 14.98h471.827c8.26 0 14.956-6.707 14.956-14.98z" fill="#f3c49b"/></g></g><g><path d="m173.737 512.679c-8.26 0-14.956-6.707-14.956-14.98s6.696-14.98 14.956-14.98c23.516 0 47.339-24.194 65.359-66.377 2.659-6.226 9.037-9.722 15.42-8.997 18.871-.684 37.192-15.176 51.738-40.982 16.427-29.145 25.473-68.218 25.473-110.023s-9.046-80.879-25.473-110.023c-14.551-25.816-32.883-40.309-51.762-40.983-2.426.271-4.898-.057-7.2-.98-3.686-1.476-6.635-4.36-8.196-8.016-18.02-42.184-41.842-66.378-65.359-66.378-8.26 0-14.956-6.707-14.956-14.98s6.696-14.98 14.956-14.98c34.634 0 66.033 26.906 89.043 76.02 26.844 3.755 51.253 23.153 69.523 55.568 18.918 33.565 29.337 77.87 29.337 124.751s-10.419 91.186-29.337 124.751c-18.27 32.415-42.678 51.813-69.523 55.568-23.01 49.115-54.409 76.021-89.043 76.021z" fill="#fcbc89"/><path d="m331.728 256.339c0 41.805-9.046 80.879-25.473 110.023-14.546 25.806-32.867 40.298-51.738 40.982-6.383-.724-12.761 2.772-15.42 8.997-18.02 42.183-41.843 66.377-65.359 66.377-8.26 0-14.956 6.707-14.956 14.98s6.696 14.98 14.956 14.98c34.634 0 66.033-26.906 89.043-76.02 26.844-3.755 51.253-23.153 69.523-55.568 18.918-33.565 29.337-77.87 29.337-124.751z" fill="#f3a871"/></g></g><g><path d="m393.138 241.36h29.912v29.959h-29.912z" fill="#fcbc89"/><path d="m262.265 406.275c-2.567.61-5.152.975-7.749 1.069-6.383-.724-12.761 2.772-15.42 8.997-.797 1.865-1.609 3.682-2.427 5.476l17.505 31.485c2.982-5.229 5.856-10.773 8.606-16.644 4.882-.683 9.682-1.89 14.38-3.591z" fill="#b15f4c"/><path d="m239.096 96.337c1.562 3.656 4.51 6.539 8.196 8.016 2.303.923 4.775 1.251 7.2.98 2.093.075 4.179.329 6.254.74l14.989-26.96c-4.243-1.439-8.566-2.479-12.956-3.093-3.016-6.438-6.18-12.484-9.473-18.147l-17.406 31.31c1.084 2.326 2.151 4.706 3.196 7.154z" fill="#572b21"/><path d="m393.138 256.34h29.911v14.98h-29.911z" fill="#f3a871"/></g></g></g><g><g><g><path d="m510.296 248.86c-1.368-2.444-3.327-4.34-5.587-5.641-.049-.03-.09-.069-.141-.098l-32.592-18.307c-7.205-4.048-16.321-1.477-20.36 5.738-4.04 7.216-1.475 16.346 5.729 20.392l9.685 5.394-9.685 5.088c-7.204 4.046-9.769 13.177-5.729 20.392 2.743 4.899 7.824 7.655 13.058 7.655 2.477 0 4.988-.617 7.302-1.917l32.591-18.306c7.204-4.044 9.769-13.174 5.729-20.39z" fill="#ced3df"/></g></g><path d="m467.03 256.34-9.685 5.088c-7.204 4.046-9.769 13.177-5.729 20.392 2.743 4.899 7.824 7.655 13.058 7.655 2.477 0 4.988-.617 7.302-1.917l32.591-18.306c4.838-2.717 7.571-7.729 7.629-12.913h-45.166z" fill="#aeb5c7"/></g></g></svg>