<svg id="Capa_1" enable-background="new 0 0 512.001 512.001" height="512" viewBox="0 0 512.001 512.001" width="512" xmlns="http://www.w3.org/2000/svg"><g><g><path d="m496.316 166.473v.002c-20.758.097-31.886 10.447-40.021 18.016-6.918 6.436-10.729 9.982-19.876 9.982s-12.958-3.545-19.876-9.982c-8.173-7.604-19.366-18.018-40.313-18.018-20.945 0-32.138 10.414-40.31 18.018-6.917 6.436-10.728 9.982-19.875 9.982s-12.957-3.545-19.874-9.982c-8.172-7.604-19.364-18.018-40.31-18.018-20.944 0-32.137 10.414-40.31 18.018-6.916 6.436-10.726 9.982-19.872 9.982s-12.957-3.545-19.874-9.982c-8.172-7.604-19.364-18.018-40.309-18.018s-32.138 10.414-40.31 18.018c-6.917 6.436-10.728 9.982-19.874 9.982-9.147 0-12.956-3.545-19.873-9.982-9.937-9.246-24.339-22.647-55.309-16.428v343.938h511.74v-345.528z" fill="#1785fb"/><path d="m496.316 166.473v.002c-20.758.097-31.886 10.447-40.021 18.016-6.918 6.436-10.729 9.982-19.876 9.982s-12.958-3.545-19.876-9.982c-8.173-7.604-19.366-18.018-40.313-18.018-20.945 0-32.138 10.414-40.31 18.018-6.917 6.436-10.728 9.982-19.875 9.982s-12.957-3.545-19.874-9.982c-8.154-7.587-19.316-17.97-40.171-18.016v345.526h255.87v-345.528z" fill="#1063e0"/></g><g><g><path d="m244.223 223.852-124.623-39.976-10.008-10.698v-15.655c0-2.904.843-5.747 2.428-8.181l92.739-142.522c2.933-4.508 8.051-7.107 13.428-6.794 5.371.307 10.166 3.466 12.567 8.28l44.102 88.414 89.075 43.609c3.166 1.55 5.685 4.166 7.115 7.388l7.807 17.593-16.469 18.567z" fill="#e1f0fd"/><path d="m383.935 176.758-4.525-10.196-8.363-18.846c-1.431-3.222-3.949-5.837-7.115-7.388l-89.075-43.608-18.856-37.802v161.416z" fill="#a0d1fd"/></g><g><path d="m253.941 443.641c2.767 2.982 6.624 4.712 10.69 4.795.103.002.204.003.307.003 3.956 0 7.758-1.564 10.57-4.357l104.727-104.011c2.25-2.235 3.733-5.125 4.238-8.256l17.482-108.451c.463-2.871.081-5.814-1.098-8.472l-21.448-48.331c-1.036-.054-2.092-.089-3.18-.089-20.945 0-32.138 10.414-40.31 18.018-6.917 6.436-10.728 9.982-19.875 9.982s-12.957-3.545-19.874-9.982c-8.172-7.604-19.364-18.018-40.31-18.018-20.944 0-32.137 10.414-40.31 18.018-6.916 6.436-10.726 9.982-19.872 9.982s-12.957-3.545-19.874-9.982c-8.172-7.604-19.364-18.018-40.309-18.018-11.001 0-19.309 2.874-25.904 6.704v108.976c0 3.784 1.43 7.428 4.003 10.202z" fill="#a0d1fd"/><path d="m400.858 214.893-21.448-48.331c-1.036-.054-2.092-.089-3.18-.089-20.945 0-32.138 10.414-40.31 18.018-6.917 6.436-10.728 9.982-19.875 9.982s-12.957-3.545-19.874-9.982c-8.154-7.587-19.316-17.97-40.171-18.016v278.997c2.484 1.845 5.492 2.899 8.631 2.964.103.002.204.003.307.003 3.956 0 7.758-1.564 10.57-4.357l104.727-104.011c2.25-2.235 3.733-5.125 4.238-8.256l17.482-108.451c.463-2.87.082-5.814-1.097-8.471z" fill="#76bdfc"/></g></g></g></svg>