<svg id="Capa_1" enable-background="new 0 0 511.219 511.219" height="512" viewBox="0 0 511.219 511.219" width="512" xmlns="http://www.w3.org/2000/svg"><g><g><g><path d="m391.608 511.219h-100.847c-52.726 0-102.43-20.667-139.956-58.193-37.526-37.527-58.193-87.231-58.193-139.956v-138.623c0-14.888 12.112-27 27-27h271.996c14.888 0 27 12.112 27 27v309.773c0 14.887-12.113 26.999-27 26.999z" fill="#dbe2eb"/><path d="m391.608 147.447h-135.998v360.625c11.422 2.077 23.208 3.148 35.151 3.148h100.847c14.888 0 27-12.112 27-27v-309.773c0-14.888-12.113-27-27-27z" fill="#ced3df"/></g><g><path d="m401.482 505.58c-1.201 0-2.413-.145-3.615-.443-44.195-10.972-84.278-36.822-112.864-72.789-29.066-36.572-45.074-82.332-45.074-128.849v-128.425c0-15.234 12.393-27.628 27.627-27.628h123.426c15.233 0 27.627 12.394 27.627 27.628v308.518c0 5.47-1.611 10.77-4.659 15.326-2.828 4.226-7.541 6.662-12.468 6.662zm-10.501-328.133h.01z" fill="#ced3df"/><path d="m390.981 147.447h-123.426c-4.318 0-8.406.998-11.945 2.771v232.059c7.279 17.989 17.178 34.701 29.393 50.071 28.586 35.967 68.669 61.817 112.864 72.789 1.202.298 2.414.443 3.615.443 4.928 0 9.641-2.436 12.467-6.661 3.048-4.556 4.659-9.856 4.659-15.326v-308.519c0-15.234-12.394-27.627-27.627-27.627z" fill="#aeb5c7"/></g></g><g><g><g><g><path d="m255.61 325.996c-89.878 0-162.998-73.121-162.998-162.998s73.12-162.998 162.998-162.998 162.998 73.121 162.998 162.998-73.12 162.998-162.998 162.998z" fill="#f3f5fb"/><path d="m255.61 0v325.996c89.878 0 162.998-73.121 162.998-162.998s-73.12-162.998-162.998-162.998z" fill="#dbe2eb"/></g><g><path d="m108.667 160.983c-.681 0-1.369-.046-2.063-.142-8.077-1.111-13.787-8.471-12.857-16.57 9.437-82.213 79.036-144.211 161.894-144.211 82.545 0 152.114 61.733 161.824 143.596.959 8.085-4.707 15.46-12.767 16.615-8.058 1.16-15.569-4.33-16.921-12.359-4.996-29.687-30.504-51.234-60.653-51.234-25.306 0-48.397 15.882-57.46 39.52-2.224 5.8-7.794 9.63-14.006 9.63-6.213 0-11.782-3.83-14.006-9.63-9.063-23.638-32.153-39.519-57.458-39.519-14.713 0-28.948 5.275-40.084 14.853-11.025 9.484-18.359 22.563-20.65 36.827-1.182 7.36-7.54 12.623-14.793 12.624z" fill="#ced3df"/><path d="m417.465 143.657c-9.71-81.864-79.279-143.597-161.824-143.597-.01 0-.021 0-.031 0v145.766c.016 0 .033.002.049.002 6.212 0 11.782-3.83 14.006-9.63 9.064-23.638 32.154-39.52 57.46-39.52 30.15 0 55.657 21.547 60.653 51.234 1.352 8.029 8.863 13.519 16.921 12.359 8.059-1.154 13.725-8.529 12.766-16.614z" fill="#aeb5c7"/></g></g><g><path d="m253.366 263.955c-1.053-.526-1.852-1.454-2.368-2.512l-23.735-48.676c-7.17-14.702-6.549-31.926 1.66-46.075l22.231-38.316c.593-1.023 1.46-1.897 2.556-2.34 2.409-.976 5.017.038 6.225 2.118l22.36 38.538c8.209 14.148 8.829 31.372 1.66 46.075l-23.853 48.916c-1.156 2.374-4.117 3.579-6.736 2.272z" fill="#fd713b"/><path d="m282.296 166.692-22.36-38.538c-.892-1.537-2.55-2.485-4.326-2.485v138.816c1.898 0 3.662-1.097 4.494-2.802l23.852-48.916c7.169-14.703 6.549-31.927-1.66-46.075z" fill="#fc4c1e"/></g></g><g><path d="m322.85 170.461c-6.286 0-11.984-4.052-14.119-9.946-2.125-5.869-.24-12.705 4.598-16.654 4.867-3.972 11.831-4.47 17.221-1.26 5.378 3.203 8.231 9.656 6.999 15.79-1.39 6.922-7.627 12.07-14.699 12.07z" fill="#463f3f"/><path d="m182.85 170.461c-6.285 0-11.985-4.053-14.119-9.946-2.131-5.885-.231-12.695 4.608-16.654 4.855-3.972 11.831-4.465 17.212-1.26 5.377 3.202 8.231 9.656 6.998 15.79-1.39 6.922-7.626 12.07-14.699 12.07z" fill="#5b5555"/></g></g></g></svg>