<svg id="Capa_1" enable-background="new 0 0 510.817 510.817" height="512" viewBox="0 0 510.817 510.817" width="512" xmlns="http://www.w3.org/2000/svg"><g><g><path d="m424.985 440.021c-1.41 0-2.833-.199-4.225-.606l-165.352-48.43-165.352 48.43c-5.272 1.54-10.971.088-14.857-3.798s-5.342-9.583-3.798-14.857l48.43-165.352-48.428-165.351c-1.545-5.274-.088-10.971 3.798-14.857 3.887-3.887 9.586-5.34 14.857-3.798l165.352 48.43 165.352-48.43c5.271-1.543 10.97-.089 14.857 3.798 3.886 3.886 5.342 9.583 3.798 14.857l-48.43 165.352 48.43 165.352c1.545 5.274.088 10.971-3.798 14.857-2.862 2.859-6.703 4.403-10.634 4.403z" fill="#fbac5b"/><path d="m390.984 255.409 48.43-165.352c1.545-5.274.088-10.971-3.798-14.857-3.887-3.887-9.586-5.34-14.857-3.798l-165.352 48.43v271.151l165.352 48.43c1.392.407 2.814.606 4.225.606 3.931 0 7.772-1.543 10.632-4.404 3.886-3.886 5.342-9.583 3.798-14.857z" fill="#fd8f32"/></g><g><g><path d="m255.409 510.817c-5.496 0-10.554-2.999-13.191-7.821l-82.872-151.526-151.525-82.871c-4.822-2.637-7.821-7.694-7.821-13.19s2.999-10.554 7.821-13.191l151.526-82.872 82.871-151.525c2.637-4.822 7.695-7.821 13.191-7.821s10.554 2.999 13.191 7.821l82.871 151.526 151.526 82.872c4.822 2.637 7.821 7.695 7.821 13.191s-2.999 10.554-7.821 13.191l-151.526 82.871-82.871 151.526c-2.638 4.82-7.695 7.819-13.191 7.819z" fill="#fddb8d"/><path d="m502.997 242.218-151.526-82.872-82.872-151.525c-2.637-4.822-7.694-7.821-13.19-7.821-.115 0-.228.009-.342.012v510.794c.114.003.227.012.342.012 5.496 0 10.554-2.999 13.191-7.821l82.872-151.526 151.526-82.871c4.822-2.637 7.821-7.695 7.821-13.191-.002-5.496-3.001-10.554-7.822-13.191z" fill="#fbac5b"/></g><g><path d="m291.67 270.444h207.955l3.372-1.844c4.822-2.637 7.821-7.695 7.821-13.191s-2.999-10.554-7.821-13.191l-3.372-1.844h-207.946l73.483-73.54-13.69-7.487-7.55-13.805-73.477 73.536v-207.885l-1.844-3.372c-2.639-4.822-7.696-7.821-13.192-7.821s-10.554 2.999-13.191 7.821l-1.844 3.372v207.915l-73.488-73.546-7.539 13.785-13.704 7.495 73.478 73.532h-207.928l-3.372 1.844c-4.822 2.637-7.821 7.695-7.821 13.191s2.999 10.554 7.821 13.191l3.372 1.844h207.927l-73.475 73.534 13.702 7.494 7.542 13.79 73.485-73.543v207.906l1.844 3.372c2.637 4.822 7.695 7.821 13.191 7.821s10.554-2.999 13.191-7.821l1.844-3.372v-207.889l73.48 73.535 7.547-13.8 13.685-7.484z" fill="#fef1ac"/><path d="m502.997 242.218-3.372-1.844h-207.946l73.483-73.54-13.69-7.487-7.55-13.805-73.477 73.536v-207.885l-1.844-3.372c-2.639-4.822-7.696-7.821-13.192-7.821-.115 0-.228.009-.342.012v510.794c.114.003.227.012.342.012 5.496 0 10.554-2.999 13.191-7.821l1.844-3.372v-207.889l73.48 73.535 7.547-13.8 13.685-7.484-73.486-73.543h207.955l3.372-1.844c4.822-2.637 7.821-7.695 7.821-13.191-.001-5.496-3-10.554-7.821-13.191z" fill="#fddb8d"/></g></g></g></svg>