<svg id="Capa_1" enable-background="new 0 0 510.565 510.565" height="512" viewBox="0 0 510.565 510.565" width="512" xmlns="http://www.w3.org/2000/svg"><g><g><path d="m423.002 120.914c-32.401 0-58.763-27.121-58.763-60.457.001-33.336 26.362-60.457 58.763-60.457s58.763 27.121 58.763 60.457c0 33.335-26.361 60.457-58.763 60.457z" fill="#8f8888"/><path d="m87.563 120.914c-32.401 0-58.763-27.121-58.763-60.457s26.361-60.457 58.763-60.457c32.401 0 58.763 27.121 58.763 60.457-.001 33.335-26.362 60.457-58.763 60.457z" fill="#b9acac"/></g><g><g><path d="m311.824 510.565h-113.084c-76.975 0-139.599-62.624-139.599-139.599v-190.632c0-65.614 53.381-118.994 118.994-118.994h154.293c65.613 0 118.994 53.38 118.994 118.994v190.632c.001 76.975-62.623 139.599-139.598 139.599z" fill="#f3f5fb"/><path d="m332.429 61.34h-77.146v449.225h56.542c76.975 0 139.599-62.624 139.599-139.599v-190.632c-.001-65.613-53.382-118.994-118.995-118.994z" fill="#dbe2eb"/></g><g><path d="m339.667 199.22c-6.282 0-11.985-4.054-14.119-9.946-2.133-5.892-.225-12.685 4.609-16.654 4.846-3.979 11.838-4.459 17.211-1.26 5.39 3.21 8.215 9.649 6.999 15.79-1.372 6.924-7.641 12.07-14.7 12.07z" fill="#463f3f"/><path d="m170.886 199.22c-6.253 0-12.019-4.048-14.113-9.946-2.093-5.895-.259-12.682 4.604-16.654 4.86-3.97 11.834-4.464 17.218-1.26 5.373 3.199 8.235 9.66 7.002 15.79-1.394 6.928-7.636 12.07-14.711 12.07z" fill="#756f6f"/></g><g><g><path d="m268.76 452.325h-26.955c-44.613 0-80.908-36.295-80.908-80.908v-72.233c0-45.648 37.138-82.786 82.785-82.786h23.201c45.647 0 82.785 37.138 82.785 82.786v72.233c0 44.612-36.295 80.908-80.908 80.908z" fill="#cdbfbb"/><path d="m266.883 216.398h-11.601v235.927h13.477c44.613 0 80.908-36.295 80.908-80.908v-72.233c.001-45.648-37.137-82.786-82.784-82.786z" fill="#9e9797"/></g><g><g><path d="m334.687 318.856c-8.274 0-14.981 6.716-14.981 15 0 14.541-11.125 26.371-24.798 26.371-12.652 0-23.113-10.13-24.607-23.163-.002-.001-.003-.003-.005-.004.073-1.189.123-2.384.123-3.592 0-8.284-6.707-15-14.981-15s-14.981 6.716-14.981 15c0 14.541-11.125 26.371-24.798 26.371s-24.798-11.83-24.798-26.371c0-8.284-6.707-15-14.981-15s-14.981 6.716-14.981 15c0 31.083 24.566 56.371 54.761 56.371 15.48 0 29.47-6.657 39.439-17.324 9.989 10.898 24.14 17.711 39.811 17.711 30.195 0 54.761-25.288 54.761-56.371-.003-8.284-6.71-14.999-14.984-14.999z" fill="#8f8888"/><path d="m334.687 318.856c-8.274 0-14.981 6.716-14.981 15 0 14.541-11.125 26.371-24.798 26.371-12.652 0-23.114-10.13-24.607-23.163-.002-.001-.003-.003-.005-.004.073-1.189.123-2.384.123-3.592 0-8.284-6.708-15-14.982-15-.052 0-.102.007-.154.008v54.232c9.979 10.783 24.049 17.518 39.625 17.518 30.195 0 54.761-25.288 54.761-56.371-.001-8.284-6.708-14.999-14.982-14.999z" fill="#5b5555"/></g><g><path d="m273.742 338.293h-36.92c-8.284 0-15-6.716-15-15s6.716-15 15-15h36.92c8.284 0 15 6.716 15 15s-6.715 15-15 15z" fill="#9e9797"/><path d="m273.742 308.293h-18.46v30h18.46c8.284 0 15-6.716 15-15s-6.715-15-15-15z" fill="#756f6f"/></g></g></g></g></g></svg>