<svg id="Capa_1" enable-background="new 0 0 512 512" height="512" viewBox="0 0 512 512" width="512" xmlns="http://www.w3.org/2000/svg"><g><g><g><path d="m308.582 512h-88.445c-8.284 0-15-6.716-15-15v-92.994c0-8.284 6.716-15 15-15s15 6.716 15 15v77.994h73.445c8.284 0 15 6.716 15 15s-6.716 15-15 15z" fill="#fc652b"/><path d="m308.582 482h-73.445v-77.994c0-8.179-6.549-14.816-14.688-14.984v122.978h88.133c8.284 0 15-6.716 15-15s-6.716-15-15-15z" fill="#ed3a1b"/></g><g><g><path d="m253.44 454.656h-18.742c-62.685 0-121.618-24.363-165.946-68.6-44.335-44.245-68.752-103.075-68.752-165.651 0-8.284 6.716-15 15-15h238.44c68.842 0 124.85 55.907 124.85 124.626 0 68.718-56.008 124.625-124.85 124.625z" fill="#f3f5fb"/><path d="m68.752 386.056c44.328 44.237 103.262 68.6 165.946 68.6h18.742c68.842 0 124.85-55.907 124.85-124.625h-351.123c10.838 20.376 24.776 39.25 41.585 56.025z" fill="#dbe2eb"/></g><g><g><path d="m175.957 446.717c-1.342 0-2.685-.18-3.994-.541-48.503-13.399-92.24-42.79-123.154-82.759-31.931-41.283-48.809-90.736-48.809-143.012 0-8.284 6.716-15 15-15h119.857c68.843 0 124.85 55.907 124.85 124.626 0 25.335-7.575 49.723-21.907 70.528-13.982 20.296-33.428 35.882-56.237 45.072-1.793.722-3.698 1.086-5.606 1.086z" fill="#dbe2eb"/><path d="m48.809 363.417c30.914 39.969 74.651 69.359 123.154 82.759 1.309.362 2.652.541 3.994.541 1.908 0 3.813-.364 5.605-1.087 22.809-9.19 42.256-24.775 56.237-45.072 14.332-20.805 21.907-45.193 21.907-70.528h-232.508c6.19 11.608 13.398 22.769 21.611 33.387z" fill="#ced3df"/></g><g><path d="m9.11 285.442h72.078c8.284 0 15-6.716 15-15s-6.716-15-15-15h-78.6c1.515 10.177 3.695 20.191 6.522 30z" fill="#aeb5c7"/><g><path d="m35.932 345.03h75.336c8.284 0 15-6.716 15-15s-6.716-15-15-15h-91.386c4.583 10.326 9.94 20.344 16.05 30z" fill="#ced3df"/><path d="m35.932 345.03h75.336c8.284 0 15-6.716 15-15h-99.065c2.714 5.089 5.623 10.092 8.729 15z" fill="#aeb5c7"/></g></g></g></g><g><g><g><path d="m275.229 233.923c-64.607 0-117.17-52.469-117.17-116.962 0-64.492 52.563-116.961 117.17-116.961s117.17 52.469 117.17 116.962-52.562 116.961-117.17 116.961z" fill="#f3f5fb"/><path d="m158.059 116.962c0 64.493 52.563 116.962 117.17 116.962s117.17-52.469 117.17-116.962z" fill="#dbe2eb"/></g><g><path d="m284.326 203.923h-9.096c-48.065 0-87.17-39.011-87.17-86.962s39.105-86.962 87.17-86.962h10.345v-26.393c-6.411-2.424-10.346-3.606-10.346-3.606-64.607 0-117.17 52.469-117.17 116.962s52.563 116.962 117.17 116.962c0 0 3.43-.667 9.096-2.233v-27.768z" fill="#ced3df"/><path d="m275.229 203.923c-48.065 0-87.17-39.01-87.17-86.962h-30c0 64.493 52.563 116.962 117.17 116.962z" fill="#aeb5c7"/></g></g><g><path d="m275.229 233.923c-8.284 0-15.001-6.716-15.001-15s6.714-15 14.998-15c48.068 0 87.173-39.011 87.173-86.962s-39.105-86.962-87.17-86.962c-8.284 0-15.003-6.716-15.003-15s6.714-15 14.998-15h17.436c58.582 0 113.659 22.768 155.085 64.11 41.436 41.352 64.255 96.332 64.255 154.814 0 8.284-6.716 15-15 15z" fill="#fd8f32"/><path d="m275.229 233.923c-8.284 0-15.002-6.716-15.002-15s6.715-15 14.999-15c40.123 0 74.905-27.085 84.587-65.866l151.605 85.005c-1.847 6.43-7.728 10.86-14.418 10.86z" fill="#fc652b"/></g></g></g><g><path d="m300.231 131.936c-6.286 0-11.984-4.05-14.119-9.946-2.129-5.88-.23-12.69 4.608-16.644 4.873-3.983 11.811-4.462 17.217-1.27 5.378 3.176 8.227 9.681 7.004 15.79-1.387 6.931-7.64 12.07-14.71 12.07z" fill="#5b5555"/><path d="m285.258 116.962c-.006 1.694.264 3.397.854 5.029 2.135 5.896 7.834 9.946 14.119 9.946 7.069 0 13.322-5.14 14.71-12.07.193-.964.273-1.936.27-2.905z" fill="#463f3f"/></g></g></svg>