<svg id="Capa_1" enable-background="new 0 0 497 497" height="512" viewBox="0 0 497 497" width="512" xmlns="http://www.w3.org/2000/svg"><path d="m198.096 130.998h100.809v328.901h-100.809z" fill="#6be3d3"/><path d="m198.096 400.56h100.809v59.339h-100.809z" fill="#17d9bf"/><path d="m198.096 130.998h100.809v122.92h-100.809z" fill="#17d9bf"/><path d="m89.822 192.917h82.807l27.367-159.929-120.902 136.043c-8.226 9.256-1.655 23.886 10.728 23.886z" fill="#90aecf"/><path d="m116.003 127.5-36.909 41.531c-8.226 9.256-1.655 23.886 10.728 23.886h82.807l11.194-65.417z" fill="#7c96b3"/><path d="m417.748 168.856-124.907-135.994 30.627 160.055h83.71c12.494 0 19.022-14.858 10.57-24.061z" fill="#90aecf"/><path d="m379.763 127.5h-68.813l12.518 65.417h83.709c12.495 0 19.022-14.859 10.57-24.061z" fill="#7c96b3"/><path d="m292.841 32.862-19.03-20.719c-15.037-16.372-40.929-16.16-55.696.456l-18.119 20.388-42.783 159.929h182.478z" fill="#e7faff"/><path d="m174.713 127.5-17.5 65.417h182.478l-19.148-65.417z" fill="#c1f1ff"/><path d="m423.824 497h-350.648c-14.534 0-26.316-11.782-26.316-26.316 0-14.534 11.782-26.316 26.316-26.316h350.648c14.534 0 26.316 11.782 26.316 26.316 0 14.534-11.782 26.316-26.316 26.316z" fill="#fff18f"/><path d="m369.523 197.085h37.686v140.827h-37.686z" fill="#6be3d3" transform="matrix(.964 -.267 .267 .964 -57.238 113.159)"/><path d="m439.585 350.793-52.378 14.481c-5.695 1.574-11.588-1.766-13.163-7.461l-3.652-13.211c-5.573-20.159 6.251-41.019 26.41-46.592 20.159-5.573 41.019 6.251 46.592 26.41l3.652 13.211c1.574 5.695-1.766 11.588-7.461 13.162z" fill="#ffbe6b"/><path d="m458.939 372.307-77.288 21.367c-9.96 2.754-20.266-3.088-23.019-13.048-2.754-9.96 3.088-20.266 13.048-23.019l77.288-21.367c9.96-2.754 20.266 3.088 23.019 13.048 2.754 9.96-3.088 20.266-13.048 23.019z" fill="#ffaa3e"/><path d="m89.791 197.085h37.686v140.827h-37.686z" fill="#6be3d3" transform="matrix(-.964 -.267 .267 -.964 142.061 554.273)"/><path d="m57.415 350.793 52.378 14.481c5.695 1.574 11.588-1.766 13.163-7.461l3.652-13.211c5.573-20.159-6.251-41.019-26.41-46.592-20.159-5.573-41.019 6.251-46.592 26.41l-3.652 13.211c-1.574 5.695 1.766 11.588 7.461 13.162z" fill="#ffbe6b"/><path d="m38.061 372.307 77.288 21.367c9.96 2.754 20.266-3.088 23.019-13.048 2.754-9.96-3.088-20.266-13.048-23.019l-77.288-21.367c-9.96-2.754-20.266 3.088-23.019 13.048-2.754 9.96 3.088 20.266 13.048 23.019z" fill="#ffaa3e"/><path d="m131.938 253.918 13.621-49.266-36.324-10.042-16.396 59.308z" fill="#17d9bf"/><path d="m404.161 253.918-16.396-59.308-36.324 10.042 13.621 49.266z" fill="#17d9bf"/><path d="m423.824 218.44h-350.648c-14.534 0-26.316-11.782-26.316-26.316 0-14.534 11.782-26.316 26.316-26.316h350.648c14.534 0 26.316 11.782 26.316 26.316 0 14.534-11.782 26.316-26.316 26.316z" fill="#fff18f"/><g fill="#ffde83"><path d="m105.998 444.369h-32.822c-14.534 0-26.316 11.782-26.316 26.316 0 14.533 11.782 26.315 26.316 26.315h350.648c13.374 0 24.41-9.979 26.087-22.896h-314.178c-16.422 0-29.735-13.313-29.735-29.735z"/><path d="m105.998 165.809h-32.822c-14.534 0-26.316 11.782-26.316 26.316 0 14.534 11.782 26.316 26.316 26.316h350.648c13.374 0 24.41-9.979 26.087-22.896h-314.178c-16.422 0-29.735-13.313-29.735-29.736z"/></g></svg>