<svg id="Capa_1" enable-background="new 0 0 497 497" height="512" viewBox="0 0 497 497" width="512" xmlns="http://www.w3.org/2000/svg"><circle cx="397.184" cy="362.154" fill="#d9c9f4" r="70.791"/><path d="m365.063 299.044c15.103 16.974 53.205 45.1 100.886 46.195 1.331 5.425 2.026 11.08 2.026 16.915 0 39.097-31.694 70.791-70.791 70.791s-70.791-31.694-70.791-70.791c0-27.537 15.712-51.405 38.67-63.11z" fill="#cabaf7"/><circle cx="99.816" cy="362.154" fill="#ff7591" r="70.791"/><path d="m131.936 299.046c-15.103 16.974-53.2 45.085-100.881 46.18-1.331 5.425-2.03 11.093-2.03 16.929 0 39.097 31.694 70.791 70.791 70.791s70.791-31.694 70.791-70.791c0-27.538-15.713-51.405-38.671-63.109z" fill="#fe5b70"/><circle cx="248.5" cy="369.555" fill="#6be3d3" r="98.779"/><path d="m300.201 421.34c0 10.201 1.795 19.982 5.074 29.052 25.403-17.874 42.004-47.416 42.004-80.837 0-7.969-.95-15.715-2.732-23.138-26.43 14.532-44.346 42.632-44.346 74.923z" fill="#17d9bf"/><path d="m152.805 344.973c-2.013 7.859-3.084 16.095-3.084 24.582 0 34.497 17.688 64.858 44.485 82.524 3.681-9.542 5.721-19.899 5.721-30.739-.001-33.406-19.182-62.315-47.122-76.367z" fill="#17d9bf"/><path d="m248.5 179.466c-11.171 0-20.226-9.055-20.226-20.226v-106.696c0-11.171 9.055-20.226 20.226-20.226s20.226 9.055 20.226 20.226v106.696c0 11.171-9.055 20.226-20.226 20.226z" fill="#516980"/><path d="m31.818 0c-10.203 0-18.473 8.271-18.473 18.473v47.006c0 10.202 8.271 18.473 18.473 18.473h433.365c10.202 0 18.473-8.271 18.473-18.473v-47.006c-.001-10.202-8.271-18.473-18.474-18.473z" fill="#90aecf"/><path d="m13.345 24.451v41.028c0 10.202 8.271 18.473 18.473 18.473h433.365c10.202 0 18.473-8.271 18.473-18.473v-41.028z" fill="#7c96b3"/><path d="m201.652 310.681c-5.107 0-10.216-1.921-14.152-5.777-16.89-16.543-26.191-38.662-26.191-62.281 0-48.077 39.114-87.191 87.191-87.191s87.191 39.114 87.191 87.191c0 23.618-9.301 45.737-26.19 62.281-7.978 7.816-20.784 7.686-28.602-.295-7.817-7.98-7.685-20.786.295-28.602 9.056-8.872 14.045-20.728 14.045-33.384 0-25.772-20.967-46.739-46.739-46.739s-46.739 20.967-46.739 46.739c0 12.656 4.988 24.511 14.046 33.383 7.98 7.816 8.112 20.622.296 28.602-3.961 4.044-9.205 6.073-14.451 6.073z" fill="#90aecf"/><path d="m165.489 120.59h-97.354c-10.349 0-18.738-8.389-18.738-18.738v-36.142c0-10.349 8.389-18.738 18.738-18.738h97.354c10.349 0 18.738 8.389 18.738 18.738v36.143c-.001 10.348-8.39 18.737-18.738 18.737z" fill="#e7faff"/><path d="m94.463 91.281h-8.205c-4.143 0-7.5-3.358-7.5-7.5s3.357-7.5 7.5-7.5h8.205c4.143 0 7.5 3.358 7.5 7.5s-3.358 7.5-7.5 7.5z" fill="#90aecf"/><path d="m147.366 91.281h-8.206c-4.143 0-7.5-3.358-7.5-7.5s3.357-7.5 7.5-7.5h8.206c4.143 0 7.5 3.358 7.5 7.5s-3.357 7.5-7.5 7.5z" fill="#90aecf"/><path d="m428.865 120.59h-97.354c-10.349 0-18.738-8.389-18.738-18.738v-36.142c0-10.349 8.389-18.738 18.738-18.738h97.354c10.349 0 18.738 8.389 18.738 18.738v36.143c0 10.348-8.389 18.737-18.738 18.737z" fill="#e7faff"/><path d="m357.84 91.281h-8.206c-4.143 0-7.5-3.358-7.5-7.5s3.357-7.5 7.5-7.5h8.206c4.143 0 7.5 3.358 7.5 7.5s-3.358 7.5-7.5 7.5z" fill="#90aecf"/><path d="m410.742 91.281h-8.205c-4.143 0-7.5-3.358-7.5-7.5s3.357-7.5 7.5-7.5h8.205c4.143 0 7.5 3.358 7.5 7.5s-3.357 7.5-7.5 7.5z" fill="#90aecf"/><ellipse cx="186.019" cy="368.02" fill="#fff" rx="15.412" ry="11.069"/><ellipse cx="310.569" cy="368.02" fill="#fff" rx="15.412" ry="11.069"/><g fill="#333942"><path d="m259.341 362.602c-7.468 3.451-14.902 3.667-22.731.086-3.86-1.766-8.399-1.03-11.385 1.986l-.105.106c-6.996 7.065-6.156 18.678 1.784 24.663l.001.001c12.449 9.383 29.6 9.412 42.081.071 8.016-6 8.841-17.717 1.743-24.781l-.155-.154c-2.961-2.947-7.442-3.73-11.233-1.978z"/><path d="m193.931 367.891c-4.143 0-7.5-3.358-7.5-7.5v-8.756c0-4.142 3.357-7.5 7.5-7.5s7.5 3.358 7.5 7.5v8.756c0 4.142-3.358 7.5-7.5 7.5z"/><path d="m303.069 367.891c-4.143 0-7.5-3.358-7.5-7.5v-8.756c0-4.142 3.357-7.5 7.5-7.5s7.5 3.358 7.5 7.5v8.756c0 4.142-3.357 7.5-7.5 7.5z"/></g><circle cx="103.378" cy="426.209" fill="#ffd6dc" r="70.791"/><path d="m115.586 356.459c-2.208 15.087-12.223 86.775-68.232 113.029 12.573 16.989 33.228 27.512 56.024 27.512 39.097 0 70.791-31.694 70.791-70.791 0-34.935-25.304-63.966-58.583-69.75z" fill="#ffbfca"/><circle cx="393.622" cy="426.209" fill="#fff18f" r="70.791"/><path d="m381.414 356.459c2.208 15.087 12.223 86.775 68.232 113.029-12.573 16.989-33.228 27.512-56.024 27.512-39.097 0-70.791-31.694-70.791-70.791 0-34.935 25.304-63.966 58.583-69.75z" fill="#ffde83"/></svg>