<svg id="Capa_1" enable-background="new 0 0 497 497" height="512" viewBox="0 0 497 497" width="512" xmlns="http://www.w3.org/2000/svg"><path d="m8.028 489.355-.383-.383c-10.194-10.194-10.194-26.875 0-37.069l101.115-101.114c10.194-10.194 26.875-10.194 37.069 0l.383.383c10.194 10.194 10.194 26.875 0 37.069l-101.115 101.114c-10.194 10.193-26.875 10.193-37.069 0z" fill="#ffd3a3"/><path d="m61.634 397.915 47.126-47.126c10.194-10.194 26.875-10.194 37.069 0l.383.383c10.194 10.194 10.194 26.875 0 37.069l-47.263 47.263z" fill="#f9c290"/><path d="m113.263 243.862c-38.625 38.625-38.625 101.25 0 139.875 38.625 38.625 101.25 38.625 139.875 0l214.893-214.893c38.625-38.625 38.625-101.25 0-139.875-38.625-38.625-101.25-38.625-139.875 0z" fill="#e7886e"/><path d="m275.568 81.556-162.305 162.306c-38.625 38.625-38.625 101.25 0 139.875 38.625 38.625 101.25 38.625 139.875 0l44.303-44.303c-34.233-57.362-52.755-195.486-21.873-257.878z" fill="#dc6646"/><path d="m156.646 344.023c-4.893 0-9.787-1.867-13.52-5.6-7.467-7.467-7.467-19.574-.001-27.041 14.969-14.969 29.102-17.151 39.422-18.743 15.334-2.367 23.831-10.834 26.204-26.203 1.593-10.32 3.774-24.454 18.743-39.422 14.969-14.969 29.102-17.151 39.422-18.744 15.335-2.367 23.832-10.835 26.206-26.205 1.592-10.32 3.774-24.454 18.743-39.423 14.97-14.97 29.104-17.152 39.424-18.746 15.338-2.368 23.838-10.839 26.211-26.212 1.594-10.32 3.776-24.454 18.745-39.423 7.469-7.468 19.574-7.467 27.041-.001 7.467 7.467 7.468 19.574.001 27.041-6.126 6.126-6.75 10.168-7.993 18.219-1.594 10.32-3.776 24.454-18.746 39.423-14.97 14.97-29.104 17.153-39.424 18.746-8.052 1.243-12.093 1.867-18.219 7.993-6.124 6.124-6.747 10.164-7.99 18.214-1.592 10.32-3.774 24.454-18.743 39.422-14.968 14.969-29.102 17.151-39.422 18.744-8.051 1.243-12.091 1.866-18.215 7.99-6.125 6.124-6.748 10.164-7.99 18.214-1.593 10.32-3.775 24.454-18.743 39.422-14.969 14.968-29.102 17.15-39.422 18.742-8.05 1.243-12.091 1.866-18.214 7.989-3.732 3.737-8.626 5.604-13.52 5.604z" fill="#fff18f"/><path d="m261.643 209.138c-9.624 1.761-21.592 5.319-34.149 17.876-14.969 14.969-17.15 29.102-18.743 39.422-2.367 15.334-10.834 23.831-26.204 26.203-10.32 1.592-24.453 3.774-39.422 18.743-7.467 7.467-7.467 19.574.001 27.041 3.733 3.734 8.627 5.6 13.52 5.6s9.787-1.867 13.521-5.601c6.123-6.123 10.164-6.747 18.214-7.989 10.32-1.592 24.453-3.774 39.422-18.742 14.969-14.969 17.15-29.102 18.743-39.422 1.242-8.05 1.865-12.09 7.99-18.214 4.61-4.61 8.041-6.103 12.889-7.089-2.609-12.52-4.588-25.157-5.782-37.828z" fill="#ffde83"/></svg>