<svg id="Capa_1" enable-background="new 0 0 497 497" height="512" viewBox="0 0 497 497" width="512" xmlns="http://www.w3.org/2000/svg"><path d="m273.974 258.487c-11.322 19.61-39.626 19.61-50.948 0l-51.303-88.859h76.777 76.777z" fill="#ffd6dc"/><path d="m171.723 169.627 28.984 50.202c15.777 1.055 32.006 1.609 48.575 1.609 16.002 0 31.684-.521 46.952-1.507l29.043-50.304h-76.777z" fill="#ffbfca"/><path d="m83.972 239.695c-17.93 13.829-44.107 3.063-47.118-19.379l-13.648-101.694 71.006 29.203 71.006 29.203z" fill="#fff18f"/><path d="m23.206 118.622 8.466 63.086c24.675 11.666 55.645 21.31 90.955 28.173l42.591-32.851-71.006-29.203z" fill="#ffde83"/><path d="m413.028 239.695c17.93 13.829 44.107 3.063 47.118-19.379l13.648-101.694-71.006 29.203-71.006 29.203z" fill="#d9c9f4"/><path d="m331.782 177.029 42.9 33.089c35.029-6.723 65.85-16.17 90.54-27.619l8.573-63.878-71.006 29.203z" fill="#cabaf7"/><path d="m242.024 188.509c-51.716 0-104.981-5.419-153.957-22.858-45.53-16.212-74.263-39.517-85.398-69.266-3.7-9.885 1.314-20.896 11.198-24.596 9.887-3.701 20.896 1.314 24.596 11.198 14.029 37.481 89.518 64.443 187.844 67.092 54.474 1.467 108.326-4.682 151.665-17.313 43.439-12.661 72.189-30.678 80.953-50.733 4.228-9.67 15.491-14.084 25.163-9.857 9.671 4.226 14.084 15.492 9.858 25.163-13.577 31.063-49.981 56.002-105.279 72.119-42.536 12.397-94.051 19.051-146.643 19.051z" fill="#fff2cf"/><path d="m273.974 456.819c-11.322 19.61-39.626 19.61-50.948 0l-51.303-88.86h76.777 76.777z" fill="#fff18f"/><path d="m171.723 367.96 32.942 57.057h87.67l32.942-57.057h-76.777z" fill="#ffde83"/><path d="m120.454 456.819c-11.322 19.61-39.626 19.61-50.948 0l-51.303-88.86h76.777 76.777z" fill="#d9c9f4"/><path d="m18.203 367.96 32.943 57.057h87.669l32.942-57.057h-76.777z" fill="#cabaf7"/><path d="m427.493 456.819c-11.322 19.61-39.626 19.61-50.948 0l-51.303-88.86h76.777 76.777z" fill="#ffd6dc"/><path d="m325.243 367.96 32.942 57.057h87.669l32.943-57.057h-76.777z" fill="#ffbfca"/><path d="m19.109 348.927c-10.554 0-19.109 8.555-19.109 19.109s8.555 19.109 19.109 19.109h458.781c10.554 0 19.109-8.556 19.109-19.109 0-10.554-8.555-19.109-19.109-19.109z" fill="#fff2cf"/><g fill="#fff18f"><circle cx="248.5" cy="77.747" r="22.697"/><circle cx="117.833" cy="48.17" r="22.697"/><circle cx="379.167" cy="48.17" r="22.697"/><circle cx="353.836" cy="281.463" r="22.697"/><circle cx="143.164" cy="281.463" r="22.697"/></g></svg>