<svg id="Capa_1" enable-background="new 0 0 497 497" height="512" viewBox="0 0 497 497" width="512" xmlns="http://www.w3.org/2000/svg"><path d="m25.491 315.888h446.018c7.967 0 14.426 6.459 14.426 14.426 0 64.609-52.376 116.985-116.985 116.985h-240.901c-64.609 0-116.985-52.376-116.985-116.985.001-7.967 6.46-14.426 14.427-14.426z" fill="#ffd3a3"/><path d="m247.029 325.934v-10.045h-221.538c-7.967 0-14.426 6.459-14.426 14.426 0 64.609 52.376 116.985 116.985 116.985h240.901c49.988 0 92.644-31.356 109.395-75.469h-185.42c-25.349-.001-45.897-20.549-45.897-45.897z" fill="#f9c290"/><path d="m62.144 312.019c2.16.54 80.816 44.722 133.483 74.382 29.149 16.416 64.622 16.964 94.264 1.456l144.965-75.839h-372.712z" fill="#fff18f"/><path d="m247.029 326.647v-14.628h-184.885c2.16.54 80.816 44.722 133.483 74.382 29.149 16.416 64.622 16.964 94.264 1.456l30.636-16.027h-28.315c-24.954 0-45.183-20.229-45.183-45.183z" fill="#ffde83"/><path d="m445.033 331.964h-393.066c-25.815 0-46.743-20.928-46.743-46.743 0-25.815 20.928-46.743 46.743-46.743h393.066c25.815 0 46.743 20.928 46.743 46.743 0 25.816-20.928 46.743-46.743 46.743z" fill="#e7886e"/><path d="m247.029 238.478h-195.062c-25.815 0-46.743 20.927-46.743 46.743 0 25.815 20.927 46.743 46.743 46.743h195.062z" fill="#dc6646"/><path d="m417.218 155.943c99.878 12.784 90.099 89.436 55.932 90.909-36.79 1.586-36.824 21.134-73.648 21.134s-36.824-21.134-73.648-21.134c-36.822 0-36.822 21.134-73.644 21.134-36.821 0-36.821-21.134-73.642-21.134-36.819 0-36.819 21.134-73.639 21.134-36.821 0-31.172-20.535-73.642-21.134-33.809-1.163-67.917-76.527 57.53-94.905z" fill="#6be3d3"/><path d="m247.029 153.873-158.211-1.925c-125.448 18.378-91.339 93.741-57.53 94.905 42.47.6 36.821 21.134 73.641 21.134 36.819 0 36.819-21.134 73.639-21.134 34.999 0 36.755 19.081 68.461 20.971z" fill="#17d9bf"/><path d="m471.509 181.112c7.967 0 14.426-6.459 14.426-14.426 0-64.609-52.376-116.985-116.985-116.985h-16.407c.308 3.312-15.197 36.148-34.529 36.148s-34.837-32.835-34.529-36.148h-69.973c.308 3.312-15.197 36.148-34.529 36.148s-34.837-32.835-34.529-36.148h-16.407c-64.609 0-116.985 52.376-116.985 116.985 0 7.967 6.459 14.426 14.426 14.426z" fill="#ffd3a3"/><path d="m325.931 101.996h140.497c-20.959-31.519-56.79-52.295-97.478-52.295h-16.407c.308 3.312-15.197 36.148-34.529 36.148s-34.836-32.835-34.529-36.148h-69.973c.308 3.312-15.197 36.148-34.529 36.148s-34.837-32.835-34.529-36.148h-16.407c-64.609 0-116.985 52.376-116.985 116.985 0 7.967 6.459 14.426 14.426 14.426h221.325c.003-43.695 35.424-79.116 79.118-79.116z" fill="#f9c290"/><path d="m178.985 121.996c19.332 0 35.004-27.812 35.004-62.12 0-3.467-.167-6.863-.475-10.176h-69.057c-.308 3.312-.475 6.709-.475 10.176-.001 34.308 15.671 62.12 35.003 62.12z" fill="#ffe1bd"/><path d="m318.015 121.996c19.332 0 35.004-27.812 35.004-62.12 0-3.467-.167-6.863-.475-10.176h-69.057c-.308 3.312-.475 6.709-.475 10.176-.001 34.308 15.671 62.12 35.003 62.12z" fill="#fff2cf"/></svg>