<svg id="Capa_1" enable-background="new 0 0 497 497" height="512" viewBox="0 0 497 497" width="512" xmlns="http://www.w3.org/2000/svg"><path d="m254.8 418.1-28.159 13.173-22.961-49.084 28.159-13.173c13.554-6.341 29.682-.493 36.023 13.062 6.341 13.553.493 29.681-13.062 36.022z" fill="#cabaf7"/><path d="m223.376 493.203c-20.111 9.408-44.041.731-53.449-19.38l-65.94-140.96 72.829-34.069 65.94 140.96c9.408 20.111.731 44.041-19.38 53.449z" fill="#90aecf"/><path d="m127.386 382.884-23.399-50.021 72.829-34.069 23.063 49.301z" fill="#7c96b3"/><path d="m47.788 309.39c14.393 30.768 51.002 44.042 81.77 29.649l4.815-2.253-17.209-62.304-34.912-49.115-4.815 2.253c-30.767 14.393-44.041 51.002-29.649 81.77z" fill="#cabaf7"/><path d="m47.789 309.39c.175.374.369.734.55 1.103 2.641-6.693 43.407-34.055 63.365-43.694l-29.451-41.432-4.815 2.253c-30.768 14.393-44.042 51.002-29.649 81.77z" fill="#bdaff2"/><path d="m164.017 187.119-81.764 38.248 52.121 111.419 81.764-38.248-14.814-62.784z" fill="#d9c9f4"/><path d="m194.325 225.367-30.308-38.249-81.764 38.249 21.399 45.745c8.632-4.646 78.322-42.81 90.673-45.745z" fill="#cabaf7"/><path d="m332.739 60.348 89.395 195.081c7.138 15.576-3.728 33.433-20.842 34.251l-185.153 8.857-52.121-111.419 129.341-133.525c11.847-12.231 32.286-8.725 39.38 6.755z" fill="#fff18f"/><path d="m422.133 255.43-89.394-195.082c-7.094-15.48-27.532-18.986-39.379-6.756l-129.343 133.527 19.851 42.436c61.533-19.762 114.891 13.937 150.002 63.351l67.421-3.225c17.114-.819 27.98-18.675 20.842-34.251z" fill="#ffde83"/><path d="m324.283 15.516c-6.28-13.426-22.403-19.271-35.828-12.991l-2.261 1.058c-13.425 6.28-19.271 22.403-12.991 35.828l128.212 274.08c6.28 13.425 22.403 19.271 35.828 12.991l2.261-1.058c13.425-6.28 19.271-22.403 12.991-35.828z" fill="#d9c9f4"/></svg>