<svg id="Capa_1" enable-background="new 0 0 497 497" height="512" viewBox="0 0 497 497" width="512" xmlns="http://www.w3.org/2000/svg"><path d="m92.922 244.717h316.187c-.967-11.225-7.958-20.726-17.735-25.246 7.899-8.532 10.6-21.194 5.867-32.644-4.038-9.77-12.532-16.345-22.155-18.353-2.535-.529-4.17-2.98-3.686-5.524 1.84-9.657-.97-20.023-8.442-27.503-7.471-7.479-17.835-10.3-27.494-8.47-2.544.482-4.994-1.156-5.52-3.691-1.998-9.625-8.564-18.126-18.33-22.174s-20.42-2.685-28.642 2.704c-2.166 1.419-5.056.844-6.513-1.296-5.532-8.126-14.852-13.465-25.423-13.465-10.436 0-19.657 5.199-25.215 13.149-1.458 2.085-4.295 2.644-6.434 1.267-8.156-5.249-18.66-6.566-28.317-2.61-9.783 4.007-16.384 12.48-18.422 22.097-.537 2.533-2.993 4.161-5.535 3.668-9.651-1.87-20.026.907-27.529 8.355s-10.356 17.803-8.556 27.467c.474 2.546-1.172 4.99-3.709 5.508-9.631 1.968-18.152 8.507-22.231 18.26-4.78 11.43-2.132 24.103 5.731 32.668-9.988 4.567-17.106 14.323-17.897 25.833z" fill="#fff2cf"/><path d="m233.739 231.281c-26.484-36.564-35.627-88.434-32.098-132.707-3.533.125-7.107.868-10.57 2.287-9.783 4.007-16.384 12.48-18.422 22.097-.537 2.533-2.993 4.161-5.535 3.668-9.651-1.87-20.026.907-27.529 8.355s-10.356 17.803-8.557 27.467c.474 2.546-1.172 4.99-3.709 5.508-9.631 1.968-18.153 8.507-22.231 18.26-4.78 11.43-2.132 24.104 5.731 32.668-9.988 4.567-17.106 14.323-17.897 25.833h151.347c-3.764-4.277-7.21-8.853-10.53-13.436z" fill="#ffe1bd"/><path d="m294.406 191.504c-.794 0-1.601-.127-2.395-.394-3.925-1.322-6.036-5.576-4.714-9.501.611-1.813.92-3.716.92-5.654 0-9.755-7.936-17.691-17.691-17.691-7.127 0-13.527 4.242-16.304 10.807-1.614 3.815-6.014 5.601-9.829 3.986-3.815-1.614-5.6-6.015-3.986-9.829 5.13-12.128 16.952-19.964 30.119-19.964 18.026 0 32.691 14.665 32.691 32.691 0 3.569-.574 7.082-1.705 10.441-1.054 3.132-3.975 5.108-7.106 5.108z" fill="#fdd3a6"/><path d="m396.442 252.809h-98.354l-5.508 127.625 5.508 116.566h56.788c12.593 0 23.07-9.683 24.06-22.237z" fill="#ffd6dc"/><path d="m388.64 351.73 7.802-98.921h-98.354l-4.269 98.921z" fill="#ffbfca"/><path d="m123.095 474.763c.99 12.554 11.467 22.237 24.06 22.237h56.788l4.932-120.053-4.932-124.138h-98.354z" fill="#ffd6dc"/><path d="m181.766 351.73h26.106l-3.93-98.92h-98.354l17.507 221.954c.99 12.554 11.467 22.237 24.06 22.237h14.034v-124.694c0-11.364 9.213-20.577 20.577-20.577z" fill="#ffbfca"/><path d="m203.943 252.809h94.145v244.191h-94.145z" fill="#ff7591"/><path d="m203.943 252.809h94.145v98.92h-94.145z" fill="#fe5b70"/><path d="m414.748 310.513h-327.465c-9.359 0-16.946-7.587-16.946-16.946v-59.016c0-9.359 7.587-16.946 16.946-16.946h327.466c9.359 0 16.946 7.587 16.946 16.946v59.016c-.001 9.359-7.588 16.946-16.947 16.946z" fill="#ff7591"/><g fill="#fff2cf"><path d="m125.319 34.905c.735-2.889.972-5.977.608-9.168-1.274-11.182-10.067-20.29-21.197-21.957-17.214-2.579-30.9 12.602-28.775 28.371.353 2.62-1.376 5.093-3.969 5.611-13.11 2.621-22.886 15.703-19.838 29.966 2.31 10.812 11.586 18.994 22.609 19.855 7.491.585 14.354-2.112 19.315-6.803 2.103-1.988 5.37-1.801 7.256.395 5.032 5.86 12.709 9.382 21.183 8.704 12.048-.964 21.858-10.61 23.001-22.643 1.147-12.076-6.238-22.603-16.829-26.269-2.528-.874-4.024-3.469-3.364-6.062z"/><path d="m474.966 68.876c1.829-1.828 3.412-3.978 4.66-6.428 5.734-11.259 2.047-25.304-8.455-32.329-13.341-8.923-31.302-2.765-37.231 11.167-1.035 2.433-3.785 3.675-6.279 2.795-12.84-4.528-28.251 2.037-32.611 16.39-3.167 10.428.851 21.915 9.846 28.067 6.028 4.122 13.112 5.261 19.621 3.839 2.86-.625 5.68 1.156 6.188 4.04 1.337 7.599 6.135 14.537 13.757 18.281 10.849 5.328 24.211 2.048 31.342-7.711 7.157-9.794 6.187-22.617-1.044-31.18-1.726-2.045-1.686-5.039.206-6.931z"/><circle cx="39.869" cy="151.354" r="25.191"/><circle cx="298.09" cy="25.191" r="25.191"/></g><path d="m169.639 274.301c-4.142 0-7.5-3.358-7.5-7.5v-12.858c0-4.142 3.358-7.5 7.5-7.5s7.5 3.358 7.5 7.5v12.858c0 4.142-3.358 7.5-7.5 7.5z" fill="#333942"/><path d="m332.391 274.301c-4.142 0-7.5-3.358-7.5-7.5v-12.858c0-4.142 3.358-7.5 7.5-7.5s7.5 3.358 7.5 7.5v12.858c0 4.142-3.358 7.5-7.5 7.5z" fill="#333942"/><path d="m250.945 282.192c-9.083 0-18.143-3.049-27.306-9.147-3.449-2.294-4.384-6.95-2.089-10.398 2.295-3.449 6.951-4.385 10.399-2.089 13.288 8.842 24.704 8.836 38.169-.022 3.46-2.276 8.111-1.317 10.388 2.144 2.277 3.46 1.317 8.111-2.144 10.388-9.249 6.082-18.345 9.124-27.417 9.124z" fill="#333942"/></svg>