<svg id="Layer_1" enable-background="new 0 0 256 256" height="512" viewBox="0 0 256 256" width="512" xmlns="http://www.w3.org/2000/svg"><circle cx="133.45" cy="133.787" fill="#89c4db" r="105.75"/><path d="m133.449 26.538c-59.138 0-107.249 48.112-107.249 107.25s48.112 107.25 107.249 107.25 107.25-48.112 107.25-107.25-48.112-107.25-107.25-107.25zm0 211.5c-57.483 0-104.249-46.766-104.249-104.25s46.766-104.25 104.249-104.25 104.25 46.766 104.25 104.25-46.766 104.25-104.25 104.25z" fill="#3a312a"/><path d="m167.401 85.477c-2.484-1.528-5.101-2.902-7.774-4.083-4.039-1.784-8.765.044-10.55 4.087-1.784 4.042.045 8.765 4.087 10.55 2.015.89 3.985 1.924 5.856 3.075 15.253 9.38 24.326 26.984 23.116 44.85-1.154 17.029-11.356 32.413-26.624 40.147-15.372 7.786-34.573 6.649-48.921-2.896-14.402-9.58-22.711-26.261-21.685-43.532 1.063-17.889 12.347-34.191 28.748-41.533 4.033-1.805 5.838-6.538 4.033-10.57-1.805-4.033-6.537-5.838-10.57-4.033-21.782 9.75-36.77 31.412-38.183 55.187-1.362 22.933 9.671 45.081 28.795 57.804 10.641 7.078 23.288 10.677 35.941 10.676 10.019-.001 20.044-2.257 29.071-6.829 20.276-10.271 33.824-30.709 35.357-53.339 1.609-23.726-10.441-47.105-30.697-59.561z" fill="#ef6d7a"/><path d="m168.188 84.199c-2.541-1.563-5.217-2.968-7.954-4.177-2.32-1.025-4.901-1.085-7.269-.168-2.366.917-4.234 2.7-5.26 5.021-2.116 4.792.062 10.412 4.854 12.528 1.952.862 3.862 1.865 5.676 2.98 14.784 9.091 23.578 26.154 22.406 43.471-1.119 16.504-11.007 31.414-25.806 38.911-14.899 7.546-33.509 6.443-47.413-2.806-13.959-9.286-22.013-25.453-21.018-42.194 1.03-17.337 11.967-33.137 27.863-40.252 2.316-1.037 4.09-2.913 4.995-5.284.904-2.371.832-4.952-.205-7.268s-2.913-4.09-5.284-4.995c-2.37-.904-4.952-.832-7.268.205-22.287 9.976-37.622 32.14-39.067 56.467-1.394 23.463 9.895 46.125 29.462 59.142 10.746 7.148 23.46 10.927 36.766 10.927h.006c10.435-.001 20.722-2.418 29.749-6.991 20.745-10.508 34.607-31.42 36.176-54.576 1.644-24.276-10.685-48.196-31.409-60.941zm28.415 60.738c-1.498 22.105-14.732 42.07-34.539 52.102-8.609 4.361-18.428 6.667-28.394 6.667h-.005c-12.713 0-24.854-3.605-35.106-10.425-18.681-12.428-29.459-34.064-28.128-56.466 1.38-23.223 16.02-44.383 37.298-53.907.849-.38 1.751-.571 2.654-.571.782 0 1.566.143 2.319.43 1.622.619 2.906 1.833 3.615 3.417.709 1.585.759 3.351.14 4.973s-1.833 2.906-3.417 3.615c-16.905 7.567-28.537 24.372-29.633 42.813-1.057 17.802 7.507 34.996 22.352 44.87 14.79 9.839 34.584 11.01 50.43 2.984 15.737-7.972 26.253-23.83 27.442-41.384 1.248-18.416-8.105-36.562-23.827-46.229-1.929-1.186-3.959-2.252-6.036-3.169-3.278-1.448-4.767-5.293-3.32-8.572.701-1.588 1.98-2.809 3.6-3.436 1.618-.626 3.384-.586 4.973.115 2.613 1.154 5.169 2.496 7.594 3.988 19.787 12.17 31.558 35.008 29.988 58.185z" fill="#3a312a"/><path d="m47.727 26.14c-.974 11.564-13.031 13.39-13.031 13.39 10.352.487 12.932 14.059 12.932 14.059.221-9.677 13.328-14.202 13.328-14.202-9.819-.588-13.229-13.247-13.229-13.247z" fill="#d5dc57"/><path d="m61.045 37.889c-8.61-.515-11.838-12.025-11.87-12.141-.191-.703-.859-1.162-1.583-1.101-.725.066-1.298.642-1.359 1.367-.861 10.215-11.32 11.963-11.761 12.033-.763.115-1.313.79-1.273 1.561.04.77.657 1.384 1.428 1.421 9.033.425 11.505 12.718 11.529 12.842.137.711.759 1.217 1.472 1.217.041 0 .084-.001.126-.005.764-.064 1.357-.693 1.374-1.459.195-8.509 12.198-12.777 12.319-12.819.676-.235 1.092-.914.995-1.623-.099-.709-.682-1.25-1.397-1.293zm-13.572 10.347c-1.357-3.131-3.71-6.908-7.591-8.878 2.933-1.405 6.413-3.914 8.206-8.274 1.552 3.071 4.202 6.881 8.339 8.724-3.01 1.64-6.927 4.406-8.954 8.428z" fill="#3a312a"/><path d="m26.017 43.12c-.689 8.179-9.217 9.471-9.217 9.471 7.322.344 9.147 9.944 9.147 9.944.156-6.844 9.427-10.045 9.427-10.045-6.944-.416-9.357-9.37-9.357-9.37z" fill="#d5dc57"/><path d="m35.463 50.992c-5.769-.345-7.977-8.185-7.998-8.264-.19-.702-.856-1.163-1.582-1.102-.726.065-1.299.642-1.36 1.368-.579 6.871-7.651 8.067-7.947 8.114-.763.115-1.313.79-1.273 1.561.04.77.657 1.384 1.428 1.421 6.039.284 7.728 8.644 7.744 8.726.136.712.759 1.22 1.472 1.22.042 0 .083-.001.125-.005.765-.063 1.358-.694 1.376-1.461.13-5.709 8.336-8.634 8.417-8.662.676-.234 1.094-.913.996-1.622-.098-.71-.683-1.251-1.398-1.294zm-9.589 6.796c-.924-1.886-2.341-3.948-4.449-5.281 1.857-1.041 3.699-2.63 4.873-4.917 1.058 1.874 2.656 3.955 4.944 5.225-1.851 1.101-3.991 2.74-5.368 4.973z" fill="#3a312a"/><path d="m26.017 16.462c-.689 8.179-9.217 9.471-9.217 9.471 7.322.344 9.147 9.944 9.147 9.944.156-6.844 9.427-10.045 9.427-10.045-6.944-.415-9.357-9.37-9.357-9.37z" fill="#d5dc57"/><path d="m35.463 24.334c-5.769-.345-7.977-8.186-7.998-8.265-.191-.702-.854-1.168-1.582-1.102-.726.065-1.299.642-1.36 1.368-.579 6.871-7.651 8.067-7.947 8.114-.763.115-1.313.79-1.273 1.561.04.77.657 1.384 1.428 1.421 6.039.284 7.728 8.644 7.744 8.726.136.712.759 1.22 1.472 1.22.042 0 .083-.001.125-.005.765-.063 1.358-.694 1.376-1.461.13-5.709 8.336-8.634 8.417-8.662.676-.234 1.094-.913.996-1.622-.098-.708-.683-1.25-1.398-1.293zm-9.589 6.797c-.924-1.886-2.341-3.948-4.45-5.281 1.857-1.042 3.7-2.631 4.874-4.918 1.058 1.874 2.656 3.956 4.944 5.225-1.85 1.101-3.991 2.741-5.368 4.974z" fill="#3a312a"/><path d="m218.738 186.406c-3.566-9.931-8.335-19.385-14.182-28.168-.048-.071-.087-.141-.135-.212l-13.725-20.336c-2.206-3.268-6.641-4.129-9.909-1.923l-.077.052c-3.268 2.206-4.129 6.641-1.923 9.909l-2.731-4.046c-2.205-3.268-6.641-4.129-9.909-1.923l-.077.052c-3.268 2.206-4.129 6.641-1.923 9.909l-2.731-4.046c-2.206-3.268-6.641-4.129-9.909-1.923l-.077.052c-3.268 2.205-4.129 6.641-1.923 9.909l4.544 6.733-.009-.002-17.025-25.225c-2.206-3.268-6.641-4.129-9.909-1.923l-.077.052c-3.268 2.206-4.129 6.641-1.923 9.909l26.439 39.174c1.539 2.281.939 5.376-1.342 6.915l-13.45 9.077c-4.606 3.108-5.819 9.362-2.715 13.963 1.554 2.303 3.893 3.757 6.418 4.247 2.531.486 5.244.012 7.547-1.542l10.407-7.024c4.288-2.894 9.947-2.739 14.07.391l8.22 6.231c.224-.199.466-.386.723-.56l37.712-25.452c.115-.078.229-.146.338-.22z" fill="#f8e4c8"/><path d="m220.886 187.947-.735-2.048c-3.594-10.006-8.42-19.592-14.384-28.552l-13.828-20.496c-2.664-3.947-8.043-4.994-12.067-2.275-1.786 1.205-3.033 2.991-3.549 5.065-2.86-2.931-7.513-3.493-11.092-1.074-1.785 1.205-3.032 2.99-3.548 5.064-1.218-1.253-2.786-2.105-4.537-2.445-2.267-.44-4.565.028-6.555 1.372-1.737 1.172-2.965 2.894-3.505 4.896l-8.826-13.077c-1.29-1.913-3.248-3.208-5.513-3.647-2.271-.44-4.566.029-6.479 1.32l-.077.052c-1.913 1.291-3.208 3.249-3.648 5.514-.439 2.265.029 4.565 1.32 6.478l26.439 39.173c1.073 1.591.652 3.759-.939 4.833l-13.449 9.077c-5.284 3.566-6.684 10.764-3.119 16.045 1.727 2.56 4.347 4.293 7.378 4.881.738.142 1.479.212 2.215.212 2.286 0 4.52-.678 6.453-1.983l10.407-7.024c3.759-2.536 8.713-2.398 12.325.344l8.22 6.231c.568.431 1.366.401 1.901-.073.176-.156.365-.302.567-.439l37.714-25.453.334-.218c.573-.385.809-1.107.577-1.753zm-40.184 24.858-7.313-5.544c-4.636-3.519-10.992-3.697-15.816-.44l-10.407 7.024c-1.894 1.278-4.177 1.743-6.422 1.312-2.242-.435-4.181-1.718-5.46-3.613-2.639-3.91-1.602-9.24 2.311-11.881l13.449-9.077c2.962-1.999 3.746-6.035 1.747-8.998l-26.439-39.174c-.842-1.248-1.148-2.75-.862-4.228.287-1.478 1.133-2.756 2.381-3.599l.077-.052c.943-.636 2.031-.966 3.143-.966.36 0 .724.035 1.085.104 1.478.287 2.756 1.132 3.599 2.381l17.025 25.225c.221.327.571.556.959.633.595.125 1.205-.133 1.543-.64.337-.506.335-1.166-.006-1.67l-4.544-6.733c-.843-1.248-1.148-2.75-.862-4.228.287-1.478 1.133-2.756 2.458-3.65 1.249-.843 2.751-1.147 4.227-.862 1.479.287 2.756 1.133 3.599 2.381l2.73 4.045s.001.001.001.001c.464.687 1.397.867 2.082.404.688-.463.868-1.396.404-2.083-.843-1.248-1.148-2.75-.862-4.228.287-1.478 1.133-2.756 2.458-3.651 2.576-1.738 6.087-1.057 7.827 1.519l2.731 4.046c.464.688 1.396.868 2.082.404.686-.463.868-1.396.404-2.082-.842-1.249-1.148-2.75-.861-4.228s1.133-2.756 2.457-3.65c2.576-1.737 6.088-1.057 7.827 1.52l13.766 20.4.089.14c5.792 8.698 10.509 18.066 14.021 27.844l.339.944z" fill="#3a312a"/><path d="m229.557 190.697c-2.32-3.438-6.987-4.343-10.425-2.023l-13.94 9.408-11.466 7.738-12.305 8.304c-3.438 2.32-4.343 6.987-2.023 10.425l9.642 14.287 12.947-8.738 11.533-7.784 25.679-17.331z" fill="#87796f"/><path d="m240.442 204.145-9.642-14.288c-2.779-4.117-8.39-5.206-12.507-2.427l-37.711 25.451c-4.117 2.778-5.206 8.389-2.428 12.507l9.643 14.287c.29.429.763.661 1.244.661.289 0 .581-.083.838-.257l12.946-8.738c.687-.463.868-1.396.404-2.083s-1.398-.867-2.082-.404l-11.703 7.898-8.804-13.043c-1.854-2.747-1.127-6.489 1.619-8.343l37.711-25.451c2.744-1.851 6.489-1.128 8.343 1.619l8.803 13.044-24.436 16.492c-.687.463-.868 1.396-.404 2.083s1.398.867 2.082.404l25.679-17.331c.688-.463.869-1.395.405-2.081z" fill="#3a312a"/><path d="m226.57 198.58c-1.75-2.593-5.271-3.276-7.864-1.526s-3.276 5.271-1.526 7.864 5.271 3.276 7.864 1.526 3.276-5.271 1.526-7.864z" fill="#d5de58"/><path d="m227.813 197.741c-1.07-1.586-2.694-2.66-4.573-3.025-1.875-.364-3.786.023-5.372 1.095-3.274 2.21-4.141 6.671-1.931 9.946 1.07 1.586 2.694 2.66 4.573 3.025.46.089.921.133 1.38.133 1.413 0 2.795-.419 3.992-1.228 3.275-2.21 4.141-6.671 1.931-9.946zm-3.608 7.46c-.922.622-2.031.848-3.123.636s-2.036-.836-2.658-1.758c-1.284-1.903-.781-4.497 1.122-5.782.713-.481 1.522-.711 2.323-.711 1.339 0 2.654.643 3.458 1.833 1.284 1.903.781 4.497-1.122 5.782z" fill="#3a312a"/><path d="m133.5 57.499c-4.418 0-8 3.582-8 8v15.141 14.055 16.556c0 4.418 3.582 8 8 8s8-3.582 8-8v-45.752c0-4.419-3.582-8-8-8z" fill="#ef6d7a"/><path d="m133.5 55.999c-5.238 0-9.5 4.262-9.5 9.5v15.141c0 .829.671 1.5 1.5 1.5s1.5-.671 1.5-1.5v-15.141c0-3.584 2.916-6.5 6.5-6.5s6.5 2.916 6.5 6.5v45.751c0 3.584-2.916 6.5-6.5 6.5s-6.5-2.916-6.5-6.5v-16.556c0-.829-.671-1.5-1.5-1.5s-1.5.671-1.5 1.5v16.556c0 5.238 4.262 9.5 9.5 9.5s9.5-4.262 9.5-9.5v-45.751c0-5.239-4.262-9.5-9.5-9.5z" fill="#3a312a"/><path d="m176.63 220.05c-12.66 9-27.4 15.28-43.36 17.99h.18c16.5 0 32.12-3.86 46.01-10.72l-1.3-1.93c-1.11-1.64-1.6-3.51-1.53-5.34zm-43.18-190.51h-.18c49.92 8.47 87.93 51.92 87.93 104.25 0 13.41-2.5 26.23-7.06 38.03 2.28 4.58 4.29 9.29 6.01 14.08l.18.51c1.1-.39 2.25-.55 3.38-.5 8.89-15.34 13.99-33.15 13.99-52.12 0-57.49-46.77-104.25-104.25-104.25z" fill="#6ca8bf"/></svg>