<svg id="Layer_1" enable-background="new 0 0 256 256" height="512" viewBox="0 0 256 256" width="512" xmlns="http://www.w3.org/2000/svg"><path d="m91.593 17.16c-29.823-5.096-70.11 13.577-50.585 64.61 24.202 63.257-46.888 85.425-17.062 90.522 17.504 2.991 36.288-1.309 53.192-10.058 20.926-10.831 38.97-28.479 48.137-47.553 14.712-30.615 12.955-89.552-33.682-97.521z" fill="#87796f"/><path d="m127.31 41.465c-7.31-14.152-19.574-23.069-35.464-25.784-15.725-2.686-36.915 1.087-48.807 15.576-7.146 8.705-13.54 24.627-3.432 51.048 14.27 37.293-5.223 59.863-16.868 73.347-5.26 6.09-8.734 10.114-7.484 13.597.814 2.268 3.417 3.662 8.438 4.52 3.718.635 7.559.949 11.488.949 13.711 0 28.482-3.823 42.646-11.154 21.354-11.051 39.596-29.083 48.799-48.235 9.303-19.355 12.524-50.942.684-73.864zm-3.387 72.566c-8.932 18.586-26.68 36.108-47.475 46.871-17.646 9.133-36.204 12.652-52.249 9.912-4.816-.823-5.902-1.967-6.121-2.576-.658-1.835 3.028-6.104 6.932-10.623 12.084-13.992 32.31-37.411 17.4-76.38-7.595-19.848-6.575-36.471 2.948-48.073 8.934-10.884 23.573-15.29 36.694-15.29 3.223 0 6.356.266 9.287.767 15.141 2.587 26.346 10.73 33.306 24.204 11.389 22.048 8.257 52.502-.722 71.188z" fill="#3a312a"/><path d="m118.008 183.298h-19.54v-12.692c-5.405 3.745-10.997 5.954-16.424 5.954-5.206 0-10.699-2.231-16.081-6.021h-.331v12.759h-19.552c-16.335 0-29.576 13.234-29.576 29.561v26.788h131.08v-26.788c0-16.327-13.24-29.561-29.576-29.561z" fill="#f8e4c8"/><path d="m118.009 181.798h-18.041v-11.192c0-.558-.31-1.07-.804-1.329s-1.091-.222-1.551.096c-5.446 3.773-10.684 5.687-15.568 5.687-4.681 0-9.801-1.934-15.219-5.747-.253-.178-.554-.273-.863-.273h-.331c-.828 0-1.5.671-1.5 1.5v11.259h-18.052c-17.135 0-31.075 13.934-31.075 31.061v26.788c0 .829.672 1.5 1.5 1.5h45.777c.828 0 1.5-.671 1.5-1.5s-.672-1.5-1.5-1.5h-44.277v-25.288c0-15.473 12.595-28.061 28.075-28.061h19.552c.828 0 1.5-.671 1.5-1.5v-10.176c5.204 3.278 10.211 4.938 14.913 4.938 4.779 0 9.788-1.576 14.923-4.691v9.929c0 .829.672 1.5 1.5 1.5h19.541c15.481 0 28.075 12.588 28.075 28.061v25.288h-70.363c-.828 0-1.5.671-1.5 1.5s.672 1.5 1.5 1.5h71.863c.828 0 1.5-.671 1.5-1.5v-26.788c0-17.128-13.94-31.062-31.075-31.062z" fill="#3a312a"/><path d="m147.527 211.074h-130.964c-.035.588-.058 1.179-.058 1.776v26.799h131.08v-26.799c0-.596-.023-1.187-.058-1.776z" fill="#d6df58"/><path d="m149.024 210.988c-.046-.793-.702-1.413-1.497-1.413h-33.068c-.828 0-1.5.671-1.5 1.5s.672 1.5 1.5 1.5h31.624c.001.092.002.184.002.276v25.299h-128.08v-25.299c0-.092.001-.184.002-.276h82.867c.828 0 1.5-.671 1.5-1.5s-.672-1.5-1.5-1.5h-84.311c-.794 0-1.45.618-1.497 1.411-.037.617-.06 1.238-.06 1.865v26.799c0 .829.672 1.5 1.5 1.5h131.08c.828 0 1.5-.671 1.5-1.5v-26.799c-.001-.626-.025-1.247-.062-1.863z" fill="#3a312a"/><path clip-rule="evenodd" d="m31.259 98.388c-6.427 0-11.637 5.208-11.637 11.632s5.21 11.631 11.637 11.631 11.638-5.208 11.638-11.631c0-6.424-5.211-11.632-11.638-11.632z" fill="#f8e4c8" fill-rule="evenodd"/><path d="m31.259 96.888c-7.244 0-13.138 5.891-13.138 13.132s5.893 13.131 13.138 13.131c7.244 0 13.138-5.891 13.138-13.131s-5.894-13.132-13.138-13.132zm0 23.263c-5.59 0-10.138-4.545-10.138-10.131 0-5.587 4.548-10.132 10.138-10.132s10.138 4.545 10.138 10.132c-.001 5.586-4.548 10.131-10.138 10.131z" fill="#3a312a"/><path clip-rule="evenodd" d="m132.834 98.388c-6.427 0-11.638 5.208-11.638 11.632s5.21 11.631 11.638 11.631c6.427 0 11.638-5.208 11.638-11.631-.001-6.424-5.211-11.632-11.638-11.632z" fill="#f8e4c8" fill-rule="evenodd"/><path d="m132.834 96.888c-7.244 0-13.138 5.891-13.138 13.132s5.893 13.131 13.138 13.131c7.243 0 13.137-5.891 13.137-13.131s-5.894-13.132-13.137-13.132zm0 23.263c-5.59 0-10.138-4.545-10.138-10.131 0-5.587 4.548-10.132 10.138-10.132s10.137 4.545 10.137 10.132c0 5.586-4.547 10.131-10.137 10.131z" fill="#3a312a"/><path d="m82.046 52.81c-28.492 0-51.59 23.086-51.59 51.563s28.538 72.188 51.59 72.188c24.149 0 51.59-43.711 51.59-72.188s-23.097-51.563-51.59-51.563z" fill="#f8e4c8"/><g fill="#3a312a"><path d="m82.046 51.31c-29.273 0-53.09 23.804-53.09 53.063 0 13.838 6.674 32.087 17.417 47.626 11.282 16.319 24.618 26.062 35.673 26.062 11.639 0 24.793-9.502 36.09-26.07 10.486-15.377 17-33.624 17-47.618 0-29.259-23.817-53.063-53.09-53.063zm33.611 98.992c-10.571 15.504-23.137 24.76-33.611 24.76-10.069 0-22.482-9.259-33.205-24.768-10.415-15.064-16.885-32.66-16.885-45.92 0-27.605 22.47-50.063 50.09-50.063s50.09 22.458 50.09 50.063c0 13.423-6.315 31.022-16.479 45.928z"/><path d="m63.832 98.759c-2.781 0-5.035 2.253-5.035 5.033s2.254 5.033 5.035 5.033 5.035-2.253 5.035-5.033-2.254-5.033-5.035-5.033z"/><path d="m100.26 98.759c-2.781 0-5.035 2.253-5.035 5.033s2.254 5.033 5.035 5.033 5.036-2.253 5.036-5.033-2.254-5.033-5.036-5.033z"/></g><path d="m53.768 112.273c-4.79 0-8.674 2.902-8.674 6.481s3.884 6.481 8.674 6.481c4.791 0 8.674-2.902 8.674-6.481.001-3.579-3.883-6.481-8.674-6.481z" fill="#f59689"/><ellipse cx="110.324" cy="118.754" fill="#f59689" rx="8.674" ry="6.481"/><path d="m41.058 216.977c-.828 0-1.5.671-1.5 1.5v21.172c0 .829.672 1.5 1.5 1.5s1.5-.671 1.5-1.5v-21.172c0-.829-.672-1.5-1.5-1.5z" fill="#3a312a"/><path d="m124.226 216.977c-.828 0-1.5.671-1.5 1.5v21.172c0 .829.672 1.5 1.5 1.5s1.5-.671 1.5-1.5v-21.172c0-.829-.672-1.5-1.5-1.5z" fill="#3a312a"/><path d="m96.826 135.925c-.779-.292-1.641.103-1.931.878-1.023 2.731-5.026 7.895-12.851 7.895-6.112 0-10.332-2.622-12.901-8.014-.357-.748-1.248-1.065-2-.709-.748.356-1.065 1.251-.709 1.999 3.074 6.452 8.326 9.724 15.61 9.724 8.226 0 13.883-5.102 15.659-9.842.292-.775-.101-1.64-.877-1.931z" fill="#3a312a"/><path d="m124.494 44.652c-10.84-11.446-26.181-18.586-43.186-18.586-6.36 0-12.483.999-18.22 2.856 4.544 10.533 9.916 20.648 17.232 29.453 3.363 4.037 7.09 7.763 11.033 11.22 3.212 2.856 6.575 5.551 9.991 8.139 11.645 8.837 24.215 16.654 37.428 23.021 1.3-4.875 1.987-9.997 1.987-15.279 0-15.817-6.177-30.184-16.265-40.824z" fill="#87796f"/><path d="m125.583 43.621c-11.637-12.288-27.36-19.055-44.275-19.055-6.394 0-12.68.985-18.682 2.929-.402.13-.731.424-.904.809-.175.385-.179.825-.011 1.213 5.392 12.5 10.938 21.974 17.456 29.818 3.216 3.861 6.982 7.693 11.188 11.382 2.948 2.622 6.246 5.308 10.081 8.212 12.024 9.124 24.701 16.922 37.684 23.177.206.099.429.149.651.149.214 0 .428-.045.626-.137.406-.187.708-.545.823-.977 1.353-5.072 2.038-10.342 2.038-15.666.001-15.648-5.921-30.512-16.675-41.854zm12.182 54.974c-12.225-6.028-24.163-13.442-35.516-22.057-3.772-2.857-7.011-5.495-9.907-8.071-4.097-3.592-7.754-7.311-10.869-11.051-6.061-7.294-11.273-16.082-16.338-27.555 5.221-1.524 10.653-2.295 16.173-2.295 16.082 0 31.033 6.435 42.098 18.119 10.224 10.783 15.854 24.915 15.854 39.791-.001 4.443-.503 8.848-1.495 13.119z" fill="#3a312a"/><path d="m81.308 26.065c-6.36 0-12.483.999-18.22 2.856-23.914 7.677-41.221 30.097-41.221 56.554 0 5.594.773 11.006 2.224 16.138 23.452-8.601 46.366-18.93 67.261-32.019 11.785-7.376 22.915-15.623 33.142-24.943-10.839-11.445-26.18-18.586-43.186-18.586z" fill="#87796f"/><path d="m125.583 43.621c-11.637-12.288-27.36-19.055-44.275-19.055-6.394 0-12.68.985-18.679 2.928-25.278 8.114-42.262 31.416-42.262 57.981 0 5.625.768 11.191 2.28 16.546.113.402.39.738.762.928.213.109.447.164.682.164.175 0 .35-.03.517-.092 26.307-9.647 48.399-20.166 67.541-32.155 12.307-7.704 23.529-16.15 33.357-25.105.297-.271.474-.651.488-1.054.014-.402-.134-.794-.411-1.086zm-35.026 24.703c-18.59 11.644-40.01 21.894-65.441 31.313-1.16-4.604-1.748-9.36-1.748-14.162 0-25.257 16.146-47.41 40.183-55.126 5.703-1.847 11.678-2.783 17.758-2.783 15.57 0 30.078 6.03 41.027 17.017-9.418 8.448-20.103 16.431-31.779 23.741z" fill="#3a312a"/><path d="m81.978 192.408c-3.787 0-6.857 3.07-6.857 6.857s3.07 6.857 6.857 6.857 6.857-3.07 6.857-6.857-3.07-6.857-6.857-6.857z" fill="#d6df58"/><path d="m81.978 190.908c-4.607 0-8.356 3.749-8.356 8.356s3.749 8.357 8.356 8.357 8.357-3.749 8.357-8.357-3.749-8.356-8.357-8.356zm0 13.713c-2.953 0-5.356-2.403-5.356-5.357s2.403-5.356 5.356-5.356 5.357 2.403 5.357 5.356-2.403 5.357-5.357 5.357z" fill="#3a312a"/><path d="m99.842 182.62c-.373-.74-1.273-1.038-2.015-.665-4.302 2.167-9.929 3.36-15.845 3.36-5.912 0-11.543-1.193-15.856-3.36-.741-.371-1.642-.074-2.015.667-.371.74-.073 1.642.667 2.014 4.724 2.373 10.834 3.68 17.204 3.68 6.375 0 12.482-1.307 17.194-3.68.741-.374 1.038-1.276.666-2.016z" fill="#3a312a"/><path d="m81.978 185.311c-.828 0-1.5.671-1.5 1.5v5.597c0 .829.672 1.5 1.5 1.5s1.5-.671 1.5-1.5v-5.597c0-.829-.671-1.5-1.5-1.5z" fill="#3a312a"/><path d="m226.264 26.102c-.974 11.564-13.031 13.39-13.031 13.39 10.352.487 12.932 14.059 12.932 14.059.221-9.677 13.328-14.202 13.328-14.202-9.819-.588-13.229-13.247-13.229-13.247z" fill="#d7e057"/><path d="m239.583 37.851c-8.609-.515-11.839-12.025-11.87-12.141-.191-.701-.853-1.17-1.584-1.101-.725.066-1.298.642-1.359 1.367-.86 10.215-11.319 11.963-11.761 12.033-.763.115-1.313.79-1.273 1.561.04.77.657 1.384 1.428 1.421 9.033.425 11.505 12.718 11.528 12.842.138.711.76 1.217 1.473 1.217.042 0 .084-.001.126-.005.765-.064 1.357-.693 1.375-1.459.194-8.509 12.198-12.777 12.319-12.819.675-.235 1.092-.914.994-1.623s-.682-1.25-1.396-1.293zm-13.573 10.348c-1.357-3.131-3.71-6.909-7.591-8.878 2.933-1.405 6.412-3.914 8.206-8.274 1.552 3.071 4.202 6.881 8.339 8.724-3.009 1.639-6.927 4.406-8.954 8.428z" fill="#3a312a"/><path d="m204.554 43.083c-.689 8.179-9.217 9.471-9.217 9.471 7.322.344 9.147 9.944 9.147 9.944.156-6.844 9.427-10.045 9.427-10.045-6.944-.416-9.357-9.37-9.357-9.37z" fill="#d7e057"/><path d="m214.001 50.955c-5.77-.345-7.977-8.186-7.999-8.265-.189-.702-.865-1.165-1.581-1.102-.726.065-1.3.642-1.361 1.368-.579 6.871-7.651 8.067-7.947 8.114-.763.115-1.313.79-1.273 1.561.04.77.657 1.384 1.428 1.421 6.039.284 7.729 8.644 7.744 8.726.136.712.759 1.22 1.473 1.22.041 0 .083-.001.125-.005.765-.063 1.358-.694 1.376-1.461.13-5.709 8.335-8.633 8.416-8.662.677-.234 1.094-.913.997-1.622-.099-.709-.684-1.25-1.398-1.293zm-9.59 6.796c-.924-1.886-2.341-3.948-4.45-5.281 1.857-1.041 3.7-2.63 4.874-4.917 1.058 1.874 2.656 3.956 4.944 5.225-1.85 1.1-3.991 2.74-5.368 4.973z" fill="#3a312a"/><path d="m204.554 16.425c-.689 8.179-9.217 9.471-9.217 9.471 7.322.344 9.147 9.944 9.147 9.944.156-6.844 9.427-10.045 9.427-10.045-6.944-.416-9.357-9.37-9.357-9.37z" fill="#d7e057"/><path d="m214.001 24.297c-5.748-.344-7.961-8.127-7.998-8.264-.191-.703-.869-1.167-1.582-1.103-.726.065-1.3.642-1.361 1.368-.579 6.87-7.651 8.067-7.947 8.114-.763.115-1.313.79-1.273 1.561.04.77.657 1.384 1.428 1.421 6.039.284 7.729 8.644 7.744 8.726.136.712.759 1.22 1.473 1.22.041 0 .083-.001.125-.005.765-.063 1.358-.694 1.376-1.461.13-5.708 8.335-8.633 8.416-8.661.677-.234 1.094-.913.997-1.622-.099-.709-.684-1.251-1.398-1.294zm-9.59 6.796c-.924-1.886-2.341-3.948-4.45-5.281 1.857-1.042 3.7-2.631 4.874-4.918 1.058 1.874 2.656 3.956 4.944 5.225-1.85 1.102-3.991 2.741-5.368 4.974z" fill="#3a312a"/><path d="m194.351 101.695c-12.051 0-22.98 4.197-31.022 11.008l-9.648 11.952c-2.594 4.978-4.051 10.508-4.051 16.341 0 9.912 4.185 18.961 11.075 25.875l-7.066 17.797c-.677 1.707.945 3.428 2.69 2.854l26.205-8.621c3.766.905 7.725 1.397 11.818 1.397 24.699 0 44.721-17.596 44.721-39.302-.001-21.705-20.024-39.301-44.722-39.301z" fill="#8ac6dd"/><path d="m194.351 100.195c-11.979 0-23.34 4.036-31.992 11.364-.632.535-.71 1.482-.175 2.114s1.482.71 2.114.175c8.11-6.87 18.783-10.653 30.053-10.653 23.832 0 43.221 16.958 43.221 37.802s-19.389 37.801-43.221 37.801c-3.865 0-7.724-.456-11.467-1.355-.271-.065-.554-.054-.819.034l-26.205 8.621c-.349.115-.584-.06-.693-.176-.107-.115-.269-.358-.133-.7l7.066-17.797c.22-.556.09-1.189-.332-1.613-6.859-6.883-10.638-15.696-10.638-24.815 0-5.441 1.306-10.706 3.881-15.648.383-.735.098-1.641-.637-2.023-.735-.385-1.641-.098-2.023.637-2.801 5.375-4.221 11.106-4.221 17.035 0 9.607 3.835 18.882 10.822 26.225l-6.708 16.893c-.53 1.336-.248 2.817.738 3.864.709.753 1.664 1.157 2.653 1.157.386 0 .777-.062 1.161-.188l25.804-8.489c3.841.889 7.792 1.34 11.75 1.34 25.486 0 46.221-18.303 46.221-40.801s-20.734-40.804-46.22-40.804z" fill="#3a312a"/><path d="m202.958 159.39c-2.367.859-4.829 1.288-7.388 1.288-5.245 0-9.525-1.721-12.843-5.163-3.316-3.442-4.975-8.104-4.975-13.985 0-3.78.763-7.231 2.287-10.354s3.697-5.506 6.519-7.15c2.82-1.643 5.947-2.465 9.381-2.465 4.656 0 8.367 1.396 11.134 4.19s4.15 6.601 4.15 11.421c0 2.939-.506 5.445-1.517 7.517-1.012 2.072-2.301 3.656-3.867 4.751-1.058.749-2.005 1.123-2.843 1.123-.364 0-.638-.091-.82-.274-.183-.182-.274-.438-.274-.767 0-.2.037-.52.11-.959l3.427-21.658h-5.346l-.493 3.098c-1.006-1.498-2.006-2.549-3.002-3.152s-2.143-.905-3.44-.905c-3.326 0-6.113 1.808-8.361 5.423-2.247 3.615-3.371 7.659-3.371 12.132 0 3.78.877 6.683 2.632 8.71 1.754 2.026 3.847 3.039 6.277 3.039 1.169 0 2.257-.242 3.262-.726s2.12-1.32 3.345-2.508c.329 1.115.84 1.929 1.535 2.44.694.511 1.59.767 2.687.767 1.846 0 3.819-.639 5.921-1.917 2.723-1.662 4.788-3.917 6.195-6.766s2.11-5.99 2.11-9.423c0-5.789-1.805-10.51-5.414-14.162s-8.292-5.479-14.049-5.479c-4.459 0-8.316.995-11.568 2.986-3.253 1.991-5.861 4.855-7.826 8.59s-2.946 7.885-2.946 12.451c0 4.348.945 8.33 2.837 11.946s4.518 6.402 7.881 8.355c3.362 1.954 7.155 2.932 11.376 2.932 3.034 0 5.867-.466 8.498-1.398 2.632-.932 4.943-2.138 6.936-3.619 1.352-1.005 2.778-2.394 4.276-4.166h-5.619c-2.176 1.698-4.448 2.978-6.814 3.837zm-6.044-15.588c-.713 2.975-1.545 4.96-2.495 5.954-.95.995-2.011 1.492-3.18 1.492-1.078 0-1.965-.447-2.659-1.341-.932-1.205-1.398-2.893-1.398-5.065 0-2.208.315-4.641.945-7.296.631-2.656 1.558-4.595 2.782-5.818.914-.912 1.974-1.369 3.18-1.369 1.06 0 1.974.457 2.741 1.369.767.913 1.151 2.264 1.151 4.052.001 2.373-.355 5.046-1.067 8.022z" fill="#3a312a"/><path d="m194.352 103.19c-3.23 0-6.42.31-9.51.92 19.28 3.79 33.73 18.89 33.73 36.89 0 5.15-1.19 10.07-3.33 14.55h.15c-.12.14-.23.27-.35.4-5.41 10.95-16.59 19.24-30.16 21.92 3.11.62 6.28.93 9.47.93 23.83 0 43.22-16.96 43.22-37.8 0-20.85-19.39-37.81-43.22-37.81z" fill="#6ca8bf"/></svg>