<svg id="Layer_1" enable-background="new 0 0 256 256" height="512" viewBox="0 0 256 256" width="512" xmlns="http://www.w3.org/2000/svg"><path d="m47.291 36.682c-.974 11.563-13.025 13.39-13.025 13.39 10.347.486 12.926 14.058 12.926 14.058.221-9.677 13.321-14.202 13.321-14.202-9.814-.587-13.222-13.246-13.222-13.246z" fill="#d7e057"/><path d="m60.603 48.431c-8.604-.515-11.832-12.024-11.863-12.141-.19-.702-.842-1.154-1.584-1.102-.725.066-1.298.642-1.359 1.367-.86 10.216-11.314 11.965-11.755 12.033-.763.116-1.313.791-1.273 1.561.04.771.657 1.385 1.428 1.421 9.028.426 11.499 12.719 11.522 12.843.138.711.76 1.217 1.473 1.217.042 0 .084-.002.126-.005.765-.064 1.357-.693 1.375-1.46.193-8.509 12.19-12.777 12.312-12.819.676-.234 1.092-.914.994-1.622-.1-.71-.683-1.251-1.396-1.293zm-13.566 10.345c-1.357-3.131-3.71-6.907-7.588-8.876 2.931-1.405 6.409-3.913 8.202-8.273 1.551 3.071 4.2 6.88 8.334 8.723-3.006 1.639-6.922 4.405-8.948 8.426z" fill="#3a312a"/><path d="m25.592 53.662c-.689 8.179-9.212 9.471-9.212 9.471 7.318.345 9.142 9.944 9.142 9.944.156-6.845 9.422-10.045 9.422-10.045-6.941-.416-9.352-9.37-9.352-9.37z" fill="#d7e057"/><path d="m35.034 61.534c-5.767-.345-7.972-8.186-7.993-8.265-.19-.702-.867-1.156-1.582-1.102-.726.065-1.3.643-1.361 1.368-.579 6.871-7.646 8.066-7.942 8.113-.763.116-1.313.791-1.273 1.561.04.771.657 1.385 1.428 1.421 6.035.284 7.724 8.645 7.739 8.727.136.713.759 1.22 1.473 1.22.041 0 .083-.002.125-.005.765-.063 1.358-.693 1.376-1.461.13-5.709 8.331-8.634 8.412-8.662.676-.234 1.093-.913.996-1.622-.099-.709-.684-1.251-1.398-1.293zm-9.585 6.795c-.924-1.885-2.34-3.947-4.447-5.279 1.855-1.041 3.697-2.63 4.871-4.917 1.057 1.874 2.654 3.955 4.941 5.224-1.849 1.1-3.989 2.74-5.365 4.972z" fill="#3a312a"/><path d="m25.592 27.005c-.689 8.179-9.212 9.47-9.212 9.47 7.318.345 9.142 9.944 9.142 9.944.156-6.845 9.422-10.045 9.422-10.045-6.941-.415-9.352-9.369-9.352-9.369z" fill="#d7e057"/><path d="m35.034 34.877c-5.767-.345-7.972-8.186-7.993-8.265-.19-.702-.867-1.155-1.582-1.102-.726.065-1.3.643-1.361 1.368-.579 6.87-7.646 8.066-7.942 8.113-.763.116-1.313.791-1.273 1.561.04.771.657 1.385 1.428 1.421 6.035.284 7.724 8.645 7.739 8.727.136.713.759 1.22 1.473 1.22.041 0 .083-.002.125-.005.765-.063 1.358-.693 1.376-1.461.13-5.709 8.331-8.634 8.412-8.662.676-.234 1.093-.913.996-1.622-.099-.709-.684-1.251-1.398-1.293zm-9.585 6.795c-.924-1.886-2.34-3.947-4.447-5.28 1.855-1.041 3.697-2.63 4.871-4.916 1.057 1.874 2.654 3.955 4.941 5.224-1.849 1.1-3.989 2.739-5.365 4.972z" fill="#3a312a"/><path d="m22.02 96.19c-3.33 3.1-5.4 7.52-5.4 12.42v103.36c0 4.9 2.07 9.32 5.4 12.43l77.09-64.11z" fill="#f16c7a"/><path d="m100.069 159.137-77.091-64.1c-.579-.482-1.43-.459-1.981.056-3.734 3.478-5.877 8.404-5.877 13.518v29.734c0 .828.672 1.5 1.5 1.5s1.5-.672 1.5-1.5v-29.735c0-3.843 1.443-7.56 3.999-10.386l74.646 62.065-74.646 62.077c-2.588-2.852-3.999-6.496-3.999-10.397v-58.314c0-.828-.672-1.5-1.5-1.5s-1.5.672-1.5 1.5v58.314c0 5.107 2.142 10.038 5.875 13.526.288.269.656.404 1.024.404.34 0 .681-.115.959-.347l77.091-64.11c.343-.285.541-.708.541-1.153s-.198-.867-.541-1.152z" fill="#3a312a"/><path d="m234.22 96.19-77.09 64.1 77.09 64.11c3.33-3.11 5.4-7.53 5.4-12.43v-103.36c0-4.9-2.07-9.32-5.4-12.42z" fill="#f16c7a"/><path d="m235.242 95.093c-.554-.514-1.401-.537-1.981-.056l-77.09 64.1c-.343.285-.541.708-.541 1.153s.198.868.541 1.153l77.09 64.11c.278.231.619.347.959.347.368 0 .736-.136 1.023-.403 3.735-3.488 5.877-8.419 5.877-13.527v-103.36c0-5.113-2.142-10.041-5.878-13.517zm2.878 116.877c0 3.901-1.411 7.546-4 10.397l-74.645-62.077 74.645-62.066c2.556 2.827 4 6.544 4 10.387z" fill="#3a312a"/><path d="m157.127 160.291-16.85-14.009c-6.707-5.578-17.607-5.578-24.314 0l-16.85 14.009-77.089 64.105c3.028 2.853 7.127 4.6 11.633 4.6h188.927c4.507 0 8.606-1.747 11.633-4.6z" fill="#f16c7a"/><path d="m235.176 223.242-93.939-78.114c-7.232-6.014-19-6.014-26.232 0l-93.939 78.114c-.33.274-.527.678-.54 1.106-.014.43.157.844.47 1.139 3.427 3.229 7.924 5.008 12.662 5.008h87.228c.828 0 1.5-.672 1.5-1.5s-.672-1.5-1.5-1.5h-87.23c-3.394 0-6.637-1.087-9.298-3.09l92.563-76.971c6.173-5.135 16.22-5.135 22.396 0l92.563 76.971c-2.661 2.003-5.904 3.09-9.298 3.09h-88.135c-.828 0-1.5.672-1.5 1.5s.672 1.5 1.5 1.5h88.135c4.738 0 9.235-1.778 12.662-5.008.313-.295.483-.709.47-1.139-.011-.428-.208-.831-.538-1.106z" fill="#3a312a"/><path d="m222.583 91.585h-188.927c-4.507 0-8.606 1.747-11.633 4.6l77.089 64.105 16.85 14.009c6.708 5.578 17.607 5.578 24.314 0l16.85-14.009 77.089-64.105c-3.026-2.853-7.125-4.6-11.632-4.6z" fill="#f16c7a"/><path d="m235.246 95.094c-3.427-3.229-7.924-5.008-12.662-5.008h-188.928c-4.738 0-9.235 1.778-12.662 5.008-.313.295-.483.709-.47 1.139.013.429.21.832.54 1.106l93.939 78.113c3.616 3.008 8.365 4.511 13.116 4.511 4.749 0 9.5-1.504 13.116-4.511l93.939-78.113c.33-.274.527-.678.54-1.106.015-.43-.155-.844-.468-1.139zm-95.928 78.052c-6.177 5.136-16.224 5.134-22.396 0l-92.563-76.97c2.661-2.003 5.904-3.09 9.298-3.09h188.928c3.394 0 6.637 1.087 9.298 3.09z" fill="#3a312a"/><g fill="#d34e5c"><path d="m234.12 98.22-10.58 8.8c.05.52.08 1.05.08 1.59v103.36c0 .54-.03 1.08-.08 1.6l10.58 8.8c2.59-2.85 4-6.5 4-10.4v-103.36c0-3.84-1.44-7.56-4-10.39z"/><path d="m222.88 216.92c-.19.66-.43 1.31-.71 1.94-.93 2.1-2.29 3.979-3.95 5.54-1.35 1.26-2.91 2.32-4.62 3.1h8.98c3.4 0 6.64-1.09 9.3-3.1z"/><path d="m222.58 93.09h-8.98c1.71.78 3.27 1.83 4.62 3.1 2.16 2.01 3.79 4.58 4.67 7.47l8.99-7.48c-2.66-2.01-5.9-3.09-9.3-3.09z"/></g><circle cx="128" cy="92.139" fill="#d6df58" r="44.5"/><path d="m128 46.139c-25.364 0-46 20.636-46 46s20.636 46 46 46 46-20.636 46-46-20.636-46-46-46zm0 89c-23.71 0-43-19.29-43-43s19.29-43 43-43 43 19.29 43 43-19.29 43-43 43z" fill="#3a312a"/><path d="m139.749 117.502c-3.284 1.191-6.699 1.787-10.248 1.787-7.276 0-13.213-2.388-17.815-7.162-4.6-4.775-6.902-11.242-6.902-19.399 0-5.243 1.058-10.031 3.173-14.363 2.115-4.331 5.129-7.638 9.044-9.917 3.912-2.28 8.25-3.42 13.013-3.42 6.459 0 11.606 1.938 15.444 5.813s5.756 9.156 5.756 15.842c0 4.078-.702 7.554-2.104 10.428-1.403 2.874-3.191 5.071-5.364 6.59-1.467 1.039-2.781 1.558-3.943 1.558-.505 0-.885-.126-1.138-.379s-.379-.608-.379-1.063c0-.279.052-.722.153-1.33l4.753-30.043h-7.415l-.684 4.297c-1.395-2.078-2.782-3.537-4.164-4.373-1.382-.837-2.973-1.254-4.772-1.254-4.614 0-8.48 2.506-11.598 7.521-3.117 5.015-4.676 10.625-4.676 16.83 0 5.242 1.217 9.27 3.651 12.081 2.433 2.812 5.336 4.217 8.707 4.217 1.621 0 3.131-.336 4.525-1.008 1.394-.67 2.941-1.832 4.64-3.479.456 1.545 1.165 2.674 2.129 3.384.963.71 2.205 1.065 3.727 1.065 2.56 0 5.298-.886 8.213-2.661 3.777-2.304 6.642-5.434 8.594-9.385 1.952-3.952 2.927-8.308 2.927-13.071 0-8.03-2.503-14.579-7.51-19.645s-11.502-7.6-19.488-7.6c-6.185 0-11.535 1.38-16.047 4.143-4.512 2.761-8.13 6.732-10.856 11.914-2.726 5.181-4.087 10.938-4.087 17.271 0 6.031 1.311 11.554 3.935 16.57 2.624 5.018 6.268 8.879 10.932 11.592 4.664 2.71 9.925 4.065 15.78 4.065 4.209 0 8.139-.646 11.788-1.938 3.651-1.293 6.857-2.967 9.621-5.019 1.876-1.395 3.854-3.321 5.932-5.78h-7.795c-3.019 2.355-6.169 4.129-9.452 5.321zm-8.383-21.623c-.989 4.126-2.143 6.88-3.461 8.259-1.318 1.38-2.789 2.07-4.411 2.07-1.495 0-2.725-.62-3.689-1.861-1.292-1.67-1.938-4.013-1.938-7.025 0-3.063.436-6.437 1.311-10.121.875-3.685 2.161-6.374 3.859-8.069 1.268-1.267 2.738-1.899 4.411-1.899 1.47 0 2.738.633 3.802 1.899 1.065 1.265 1.597 3.139 1.597 5.619 0 3.292-.494 7.001-1.481 11.128z" fill="#3a312a"/></svg>