<svg id="Layer_1" enable-background="new 0 0 256 256" height="512" viewBox="0 0 256 256" width="512" xmlns="http://www.w3.org/2000/svg"><path d="m47.671 203.093c-.974 11.564-13.025 13.39-13.025 13.39 10.346.487 12.925 14.059 12.925 14.059.221-9.677 13.321-14.202 13.321-14.202-9.813-.587-13.221-13.247-13.221-13.247z" fill="#d6df58"/><path d="m60.982 214.843c-8.604-.515-11.831-12.024-11.863-12.141-.191-.702-.865-1.162-1.583-1.102-.725.066-1.298.642-1.359 1.367-.86 10.215-11.313 11.963-11.755 12.031-.763.116-1.313.791-1.273 1.561.04.771.657 1.385 1.427 1.421 9.028.426 11.499 12.719 11.523 12.844.137.711.759 1.217 1.472 1.217.042 0 .084-.002.126-.005.764-.064 1.357-.693 1.375-1.46.195-8.509 12.192-12.777 12.313-12.819.675-.234 1.092-.914.994-1.622-.099-.709-.683-1.25-1.397-1.292zm-13.565 10.345c-1.356-3.131-3.709-6.908-7.587-8.877 2.931-1.404 6.409-3.913 8.202-8.272 1.551 3.071 4.199 6.88 8.334 8.723-3.008 1.639-6.923 4.405-8.949 8.426z" fill="#3a312a"/><path d="m25.972 220.074c-.689 8.179-9.212 9.471-9.212 9.471 7.318.344 9.142 9.944 9.142 9.944.156-6.845 9.422-10.045 9.422-10.045-6.941-.416-9.352-9.37-9.352-9.37z" fill="#d6df58"/><path d="m35.414 227.946c-5.766-.345-7.972-8.186-7.994-8.265-.19-.702-.856-1.163-1.582-1.102-.726.065-1.299.643-1.36 1.368-.579 6.87-7.646 8.066-7.942 8.113-.763.116-1.313.791-1.273 1.561.04.771.657 1.385 1.428 1.421 6.035.284 7.723 8.644 7.739 8.726.135.712.759 1.22 1.472 1.22.042 0 .083-.002.125-.005.765-.063 1.358-.693 1.376-1.461.131-5.708 8.332-8.633 8.413-8.661.677-.234 1.094-.913.996-1.622-.099-.709-.684-1.251-1.398-1.293zm-9.585 6.795c-.924-1.886-2.339-3.947-4.447-5.28 1.856-1.041 3.697-2.629 4.87-4.916 1.057 1.874 2.654 3.955 4.941 5.224-1.849 1.1-3.987 2.74-5.364 4.972z" fill="#3a312a"/><path d="m25.972 193.416c-.689 8.18-9.212 9.471-9.212 9.471 7.318.345 9.142 9.944 9.142 9.944.156-6.845 9.422-10.045 9.422-10.045-6.941-.415-9.352-9.37-9.352-9.37z" fill="#d6df58"/><path d="m35.414 201.289c-5.767-.346-7.973-8.187-7.994-8.266-.19-.702-.859-1.159-1.582-1.102-.726.065-1.299.643-1.36 1.368-.579 6.871-7.646 8.066-7.942 8.113-.763.116-1.313.791-1.273 1.561.04.771.657 1.385 1.427 1.421 6.036.284 7.724 8.645 7.739 8.727.135.713.759 1.22 1.473 1.22.041 0 .083-.002.125-.005.765-.063 1.358-.693 1.376-1.461.131-5.709 8.332-8.633 8.413-8.661.676-.233 1.094-.913.996-1.622-.099-.709-.684-1.25-1.398-1.293zm-9.585 6.794c-.924-1.885-2.34-3.947-4.447-5.279 1.856-1.041 3.697-2.63 4.871-4.916 1.057 1.873 2.654 3.954 4.941 5.224-1.85 1.1-3.988 2.739-5.365 4.971z" fill="#3a312a"/><path d="m128 16.511c-61.705 0-111.728 41.581-111.728 92.872 0 43.415 35.84 79.868 84.266 90.042l3.373 5.842 6.944 12.027 9.997 17.316c3.177 5.502 11.119 5.502 14.295 0l14.503-25.12 5.811-10.065c48.426-10.174 84.266-46.627 84.266-90.042 0-51.291-50.022-92.872-111.727-92.872z" fill="#8ac3da"/><path d="m128 15.012c-62.434 0-113.228 42.335-113.228 94.371 0 43.122 34.834 80.613 84.801 91.371l3.039 5.264c.415.719 1.332.965 2.049.549.717-.414.963-1.331.549-2.049l-3.373-5.842c-.213-.369-.573-.63-.99-.718-48.913-10.276-83.075-46.699-83.075-88.575 0-50.382 49.448-91.371 110.228-91.371 60.779 0 110.227 40.989 110.227 91.371 0 41.876-34.161 78.299-83.074 88.575-.417.088-.777.349-.99.718l-20.315 35.185c-1.221 2.114-3.407 3.376-5.849 3.376-2.441.001-4.628-1.262-5.849-3.376l-9.997-17.316c-.414-.718-1.33-.963-2.049-.549-.717.414-.963 1.331-.549 2.049l9.997 17.316c1.763 3.054 4.921 4.877 8.447 4.876 3.526 0 6.683-1.822 8.446-4.876l19.98-34.606c49.967-10.758 84.801-48.249 84.801-91.371.001-52.037-50.792-94.372-113.226-94.372z" fill="#3a312a"/><path d="m63.085 75.935c-8.754 0-15.85 7.096-15.85 15.85 0 8.753 7.096 15.85 15.85 15.85s15.85-7.097 15.85-15.85c0-8.754-7.096-15.85-15.85-15.85z" fill="#ef6d7a"/><path d="m63.085 74.435c-9.567 0-17.35 7.783-17.35 17.351s7.783 17.351 17.35 17.351 17.35-7.783 17.35-17.351-7.783-17.351-17.35-17.351zm0 31.701c-7.913 0-14.35-6.438-14.35-14.351s6.438-14.351 14.35-14.351c7.913 0 14.35 6.438 14.35 14.351s-6.437 14.351-14.35 14.351z" fill="#3a312a"/><path d="m87.506 134.269c-2.739-15.268-12.634-26.576-24.421-26.576s-21.682 11.308-24.421 26.576c-.798 4.452 2.572 8.563 7.095 8.563h34.653c4.523 0 7.893-4.111 7.094-8.563z" fill="#ef6d7a"/><path d="m88.982 134.005c-2.938-16.375-13.587-27.812-25.897-27.812-12.311 0-22.96 11.437-25.898 27.812-.463 2.582.232 5.211 1.908 7.214 1.655 1.979 4.083 3.113 6.663 3.113h34.653c2.58 0 5.009-1.135 6.664-3.113 1.675-2.003 2.37-4.632 1.907-7.214zm-4.208 5.289c-1.083 1.295-2.674 2.038-4.363 2.038h-34.653c-1.689 0-3.279-.743-4.362-2.038-1.104-1.319-1.562-3.055-1.256-4.76 2.677-14.92 12.112-25.341 22.945-25.341s20.268 10.421 22.944 25.341c.306 1.705-.151 3.441-1.255 4.76z" fill="#3a312a"/><path d="m152.81 104.028c-4.111-3.99-9.467-5.985-16.067-5.985-1.951 0-3.922.24-5.918.719-1.995.48-4.014 1.201-6.053 2.161l1.575-9.902h29.478v-14.626h-43.52l-5.806 35.464 15.617 2.25c1.47-1.651 2.82-2.791 4.051-3.421 1.649-.87 3.359-1.305 5.129-1.305 2.791 0 5.026.916 6.706 2.746 1.681 1.83 2.522 4.71 2.522 8.641 0 3.84-.833 6.728-2.499 8.663-1.664 1.935-3.773 2.903-6.322 2.903-2.281 0-4.245-.772-5.895-2.318-1.652-1.545-2.7-3.803-3.151-6.772l-18.543 2.025c.9 3.09 2.025 5.67 3.376 7.74 1.35 2.071 3.112 3.924 5.288 5.558 2.175 1.636 4.816 2.865 7.921 3.691 3.105.825 6.834 1.237 11.184 1.237 6.06 0 11.033-1.035 14.919-3.105s6.886-5.07 9.001-9.001c2.116-3.93 3.172-8.026 3.172-12.287 0-6.06-2.054-11.086-6.165-15.076z" fill="#87796f"/><path d="m153.854 102.952c-4.382-4.253-10.139-6.409-17.111-6.409-2.061 0-4.169.256-6.27.761-1.253.302-2.522.696-3.794 1.179l.948-5.961h28.198c.828 0 1.5-.672 1.5-1.5v-14.627c0-.828-.672-1.5-1.5-1.5h-17.348c-.828 0-1.5.672-1.5 1.5s.672 1.5 1.5 1.5h15.848v11.627h-27.978c-.737 0-1.366.536-1.482 1.265l-1.575 9.901c-.087.549.136 1.101.581 1.435.444.334 1.037.396 1.54.157 1.933-.91 3.873-1.604 5.764-2.06 1.87-.449 3.743-.677 5.567-.677 6.165 0 11.219 1.871 15.021 5.562 3.843 3.729 5.71 8.309 5.71 13.999 0 3.994-1.007 7.889-2.993 11.576-1.962 3.646-4.782 6.469-8.385 8.388-3.648 1.944-8.431 2.93-14.214 2.93-4.202 0-7.835-.399-10.799-1.187-2.905-.772-5.396-1.93-7.405-3.44-2.025-1.521-3.685-3.264-4.933-5.179-1.01-1.549-1.898-3.437-2.65-5.629l15.347-1.676c.605 2.626 1.726 4.716 3.339 6.225 1.927 1.808 4.256 2.725 6.921 2.725 2.994 0 5.504-1.152 7.459-3.425 1.899-2.205 2.862-5.449 2.862-9.642 0-4.299-.981-7.547-2.916-9.653-1.968-2.146-4.597-3.233-7.812-3.233-2.008 0-3.969.498-5.813 1.471-1.248.639-2.542 1.676-3.938 3.158l-13.318-1.919 5.353-32.698h11.945c.829 0 1.5-.672 1.5-1.5s-.671-1.5-1.5-1.5h-13.219c-.735 0-1.362.532-1.48 1.258l-5.806 35.465c-.065.397.033.805.271 1.129.238.325.597.54.996.598l15.617 2.25c.5.073 1-.111 1.334-.486 1.339-1.504 2.555-2.542 3.63-3.092 1.424-.752 2.915-1.133 4.43-1.133 2.373 0 4.205.739 5.602 2.262 1.41 1.536 2.126 4.102 2.126 7.625 0 3.453-.719 6.039-2.136 7.685-1.379 1.603-3.075 2.382-5.186 2.382-1.904 0-3.497-.626-4.871-1.914-1.39-1.3-2.295-3.285-2.692-5.901-.12-.795-.839-1.353-1.646-1.267l-18.543 2.025c-.44.048-.837.289-1.084.657-.247.369-.317.828-.193 1.254.936 3.216 2.134 5.954 3.559 8.14 1.44 2.208 3.338 4.206 5.643 5.938 2.318 1.743 5.157 3.069 8.437 3.94 3.215.854 7.108 1.288 11.569 1.288 6.28 0 11.537-1.104 15.624-3.281 4.134-2.203 7.37-5.438 9.616-9.614 2.224-4.129 3.352-8.502 3.352-12.998.002-6.457-2.226-11.89-6.619-16.154z" fill="#3a312a"/><path d="m218.427 93.497c-.63-2.58-1.462-4.838-2.497-6.774-1.036-1.935-2.454-3.78-4.254-5.535s-4.125-3.18-6.975-4.276c-2.851-1.095-6.497-1.642-10.937-1.642-9.24 0-16.118 2.505-20.634 7.515-4.516 5.011-6.772 13.788-6.772 26.328 0 5.102.443 9.759 1.328 13.974.885 4.216 2.122 7.539 3.713 9.969 2.19 3.419 4.995 6.016 8.417 7.786 3.419 1.77 7.905 2.655 13.456 2.655 9.9 0 16.878-2.774 20.927-8.326 4.052-5.551 6.076-14.312 6.076-26.283-.003-5.34-.619-10.471-1.848-15.391zm-17.349 29.343c-.646 2.82-1.651 4.883-3.015 6.188-1.367 1.305-2.98 1.957-4.839 1.957-2.82 0-4.972-1.537-6.458-4.612-1.485-3.075-2.228-8.814-2.228-17.214 0-8.312.675-14.004 2.025-17.081 1.35-3.075 3.54-4.612 6.571-4.612 2.969 0 5.197 1.507 6.683 4.523 1.485 3.015 2.228 8.903 2.228 17.665.001 5.97-.322 10.367-.967 13.186z" fill="#87796f"/><path d="m219.884 93.141c-.656-2.689-1.541-5.086-2.631-7.126-1.104-2.063-2.629-4.049-4.53-5.901-1.937-1.889-4.455-3.437-7.483-4.602-3.009-1.156-6.87-1.742-11.476-1.742-9.64 0-16.956 2.695-21.748 8.012-4.816 5.345-7.158 14.285-7.158 27.332 0 5.182.457 9.986 1.359 14.281.919 4.381 2.239 7.907 3.918 10.471 2.324 3.631 5.35 6.427 8.989 8.309 3.618 1.873 8.378 2.823 14.145 2.823 10.363 0 17.812-3.009 22.139-8.941 4.223-5.786 6.364-14.927 6.364-27.167 0-5.436-.635-10.737-1.888-15.749zm-6.9 41.146c-3.732 5.116-10.364 7.71-19.715 7.71-5.283 0-9.578-.837-12.767-2.487-3.167-1.638-5.805-4.081-7.851-7.274-1.48-2.262-2.658-5.443-3.5-9.457-.859-4.093-1.295-8.69-1.295-13.665 0-12.102 2.148-20.621 6.387-25.324 4.198-4.657 10.766-7.02 19.52-7.02 4.236 0 7.735.52 10.399 1.543 2.646 1.018 4.821 2.346 6.466 3.949 1.681 1.638 3.019 3.377 3.978 5.168.971 1.816 1.765 3.978 2.364 6.43 1.195 4.783 1.801 9.84 1.801 15.029.001 11.591-1.946 20.136-5.787 25.398zm-19.849-48.321c-3.614 0-6.361 1.905-7.945 5.51-1.447 3.3-2.151 9.084-2.151 17.683 0 8.709.777 14.554 2.377 17.867 2.181 4.513 5.451 5.46 7.81 5.46 2.249 0 4.226-.798 5.876-2.373 1.572-1.505 2.729-3.839 3.439-6.938.677-2.959 1.006-7.382 1.006-13.521 0-9.077-.779-15.071-2.382-18.327-1.73-3.508-4.506-5.361-8.03-5.361zm6.481 36.539c-.577 2.518-1.448 4.348-2.588 5.438-1.088 1.037-2.332 1.542-3.804 1.542-2.244 0-3.867-1.196-5.108-3.765-1.379-2.856-2.078-8.43-2.078-16.563 0-8.062.639-13.605 1.898-16.477 1.113-2.535 2.766-3.716 5.198-3.716 2.402 0 4.099 1.172 5.338 3.687 1.376 2.794 2.073 8.514 2.073 17.001.001 5.83-.312 10.154-.929 12.853z" fill="#3a312a"/><path d="m128 18.014c-3.03 0-6.03.1-9 .31 46.03 3.09 84.16 29.73 96.77 65.33.56.77 1.05 1.56 1.48 2.36 1.09 2.04 1.98 4.44 2.63 7.13 1.26 5.01 1.89 10.31 1.89 15.74 0 12.13-2.1 21.23-6.25 27.01-10.96 30.06-40.16 54.04-78.37 62.06-.41.09-.77.35-.99.72l-17.16 29.73 3.15 5.46c1.22 2.11 3.41 3.37 5.85 3.37s4.63-1.26 5.85-3.37l20.31-35.19c.22-.37.58-.63.99-.72 48.92-10.27 83.08-46.7 83.08-88.57 0-50.38-49.45-91.37-110.23-91.37z" fill="#6ca8bf"/></svg>