<svg id="Layer_1" enable-background="new 0 0 256 256" height="512" viewBox="0 0 256 256" width="512" xmlns="http://www.w3.org/2000/svg"><path d="m226.086 26.05c-.974 11.564-13.031 13.389-13.031 13.389 10.352.487 12.932 14.059 12.932 14.059.221-9.677 13.328-14.202 13.328-14.202-9.819-.587-13.229-13.246-13.229-13.246z" fill="#d7e057"/><path d="m239.405 37.799c-8.61-.515-11.839-12.024-11.87-12.141-.191-.702-.846-1.165-1.584-1.102-.725.066-1.298.642-1.359 1.367-.86 10.215-11.319 11.964-11.761 12.032-.763.116-1.313.791-1.273 1.561.04.771.657 1.385 1.428 1.421 9.033.425 11.505 12.719 11.528 12.843.138.711.76 1.217 1.473 1.217.042 0 .084-.002.126-.005.765-.064 1.357-.693 1.375-1.46.193-8.508 12.198-12.776 12.319-12.819.676-.234 1.092-.914.994-1.622-.098-.709-.682-1.25-1.396-1.292zm-13.573 10.347c-1.357-3.131-3.711-6.908-7.591-8.877 2.932-1.405 6.412-3.915 8.206-8.274 1.552 3.071 4.201 6.881 8.339 8.724-3.01 1.638-6.927 4.405-8.954 8.427z" fill="#3a312a"/><path d="m204.377 43.03c-.689 8.179-9.217 9.47-9.217 9.47 7.322.344 9.147 9.944 9.147 9.944.156-6.844 9.427-10.045 9.427-10.045-6.945-.415-9.357-9.369-9.357-9.369z" fill="#d7e057"/><path d="m213.823 50.902c-5.769-.345-7.977-8.186-7.999-8.265-.189-.702-.858-1.168-1.581-1.102-.726.065-1.3.643-1.361 1.368-.579 6.87-7.651 8.066-7.947 8.113-.763.116-1.313.791-1.273 1.561.04.771.657 1.385 1.428 1.421 6.039.284 7.729 8.644 7.744 8.726.136.713.759 1.22 1.473 1.22.041 0 .083-.002.125-.005.765-.063 1.358-.693 1.376-1.461.13-5.708 8.336-8.633 8.416-8.661.677-.233 1.094-.913.997-1.622-.099-.709-.684-1.251-1.398-1.293zm-9.59 6.796c-.924-1.886-2.341-3.948-4.449-5.281 1.856-1.041 3.699-2.63 4.873-4.917 1.058 1.874 2.655 3.955 4.944 5.225-1.85 1.1-3.991 2.74-5.368 4.973z" fill="#3a312a"/><path d="m204.377 16.373c-.689 8.179-9.217 9.471-9.217 9.471 7.322.344 9.147 9.944 9.147 9.944.156-6.845 9.427-10.045 9.427-10.045-6.945-.416-9.357-9.37-9.357-9.37z" fill="#d7e057"/><path d="m213.823 24.245c-5.769-.346-7.977-8.187-7.999-8.266-.189-.702-.858-1.166-1.581-1.102-.726.065-1.3.643-1.361 1.368-.579 6.871-7.651 8.066-7.947 8.113-.763.116-1.313.791-1.273 1.561.04.771.657 1.385 1.428 1.421 6.039.284 7.729 8.645 7.744 8.727.136.713.759 1.22 1.473 1.22.041 0 .083-.002.125-.005.765-.063 1.358-.693 1.376-1.461.13-5.708 8.336-8.633 8.416-8.661.677-.233 1.094-.913.997-1.622-.099-.709-.684-1.25-1.398-1.293zm-9.59 6.796c-.924-1.886-2.341-3.948-4.45-5.281 1.857-1.041 3.7-2.631 4.874-4.918 1.058 1.874 2.655 3.956 4.944 5.226-1.85 1.1-3.991 2.74-5.368 4.973z" fill="#3a312a"/><path d="m164.079 16.627h-130.289c-9.447 0-17.105 7.658-17.105 17.105v188.789c0 9.447 7.658 17.105 17.105 17.105h130.289c9.447 0 17.106-7.658 17.106-17.105v-188.788c0-9.447-7.659-17.106-17.106-17.106z" fill="#8ac6dd"/><g fill="#3a312a"><path d="m164.079 15.128h-130.289c-10.259 0-18.605 8.347-18.605 18.605v53.361c0 .828.671 1.5 1.5 1.5s1.5-.672 1.5-1.5v-53.361c0-8.604 7-15.605 15.605-15.605h130.289c8.604 0 15.605 7.001 15.605 15.605v188.789c0 8.604-7.001 15.605-15.605 15.605h-130.289c-8.605 0-15.605-7.001-15.605-15.605v-121.362c0-.828-.671-1.5-1.5-1.5s-1.5.672-1.5 1.5v121.362c0 10.259 8.346 18.605 18.605 18.605h130.289c10.259 0 18.605-8.347 18.605-18.605v-188.789c.001-10.258-8.346-18.605-18.605-18.605z"/><path d="m157.185 157.128h-116.5c-.829 0-1.5.672-1.5 1.5s.671 1.5 1.5 1.5h116.5c.828 0 1.5-.672 1.5-1.5s-.672-1.5-1.5-1.5z"/><path d="m157.185 178.128h-116.5c-.829 0-1.5.672-1.5 1.5s.671 1.5 1.5 1.5h116.5c.828 0 1.5-.672 1.5-1.5s-.672-1.5-1.5-1.5z"/><path d="m157.185 199.128h-116.5c-.829 0-1.5.672-1.5 1.5s.671 1.5 1.5 1.5h116.5c.828 0 1.5-.672 1.5-1.5s-.672-1.5-1.5-1.5z"/><path d="m157.185 220.128h-116.5c-.829 0-1.5.672-1.5 1.5s.671 1.5 1.5 1.5h116.5c.828 0 1.5-.672 1.5-1.5s-.672-1.5-1.5-1.5z"/></g><path d="m116.683 116.818h-9.643v-6.264c-2.667 1.848-5.427 2.938-8.105 2.938-2.569 0-5.28-1.101-7.936-2.971h-.164v6.297h-9.649c-8.062 0-14.596 6.531-14.596 14.588v13.22h64.689v-13.22c0-8.057-6.534-14.588-14.596-14.588z" fill="#fce8cb"/><path d="m116.683 115.318h-8.143v-4.765c0-.558-.31-1.07-.804-1.329s-1.091-.223-1.55.097c-2.558 1.772-4.997 2.671-7.251 2.671-2.151 0-4.53-.907-7.073-2.697-.252-.178-.554-.273-.863-.273h-.163c-.829 0-1.5.672-1.5 1.5v4.797h-8.149c-8.875 0-16.096 7.217-16.096 16.088v13.22c0 .828.671 1.5 1.5 1.5h64.689c.828 0 1.5-.672 1.5-1.5v-13.22c-.001-8.872-7.221-16.089-16.097-16.089zm13.096 27.808h-61.689v-11.72c0-7.217 5.875-13.088 13.096-13.088h9.649c.829 0 1.5-.672 1.5-1.5v-3.695c4.587 2.499 8.723 2.436 13.205.096v3.6c0 .828.671 1.5 1.5 1.5h9.643c7.221 0 13.096 5.871 13.096 13.088z" fill="#3a312a"/><path d="m116.683 116.814h-2.307l.06.044-10.03 13.296-5.176-3.898-5.176 3.898-10.03-13.296.06-.044h-2.896c-8.062 0-14.596 6.531-14.596 14.588v13.226h64.689v-13.226c-.002-8.057-6.536-14.588-14.598-14.588z" fill="#d7e057"/><path d="m116.684 115.313h-2.308c-.596 0-1.104.37-1.34.909l-8.925 11.831-3.979-2.996c-.534-.402-1.271-.402-1.805 0l-3.979 2.996-8.847-11.727c-.208-.605-.777-1.014-1.419-1.014h-2.896c-8.875 0-16.096 7.218-16.096 16.089v13.226c0 .828.671 1.5 1.5 1.5h64.689c.828 0 1.5-.672 1.5-1.5v-13.226c0-8.87-7.22-16.088-16.095-16.088zm13.095 27.815h-61.689v-11.726c0-7.217 5.875-13.089 13.096-13.089h2.056l9.614 12.743c.498.661 1.438.792 2.1.295l4.274-3.218 4.274 3.218c.662.497 1.602.366 2.1-.295l9.614-12.743h1.467c7.221 0 13.096 5.872 13.096 13.089v11.726z" fill="#3a312a"/><path clip-rule="evenodd" d="m73.872 74.914c-3.172 0-5.743 2.57-5.743 5.74s2.571 5.74 5.743 5.74 5.743-2.57 5.743-5.74-2.571-5.74-5.743-5.74z" fill="#fce8cb" fill-rule="evenodd"/><path d="m73.872 73.414c-3.994 0-7.243 3.248-7.243 7.24s3.249 7.24 7.243 7.24 7.243-3.248 7.243-7.24-3.249-7.24-7.243-7.24zm0 11.481c-2.339 0-4.243-1.902-4.243-4.24s1.903-4.24 4.243-4.24 4.243 1.902 4.243 4.24-1.904 4.24-4.243 4.24z" fill="#3a312a"/><path clip-rule="evenodd" d="m123.999 74.914c-3.172 0-5.743 2.57-5.743 5.74s2.571 5.74 5.743 5.74 5.743-2.57 5.743-5.74c.001-3.17-2.571-5.74-5.743-5.74z" fill="#fce8cb" fill-rule="evenodd"/><path d="m124 73.414c-3.994 0-7.243 3.248-7.243 7.24s3.249 7.24 7.243 7.24 7.243-3.248 7.243-7.24-3.25-7.24-7.243-7.24zm0 11.481c-2.34 0-4.243-1.902-4.243-4.24s1.903-4.24 4.243-4.24c2.339 0 4.243 1.902 4.243 4.24s-1.904 4.24-4.243 4.24z" fill="#3a312a"/><path d="m98.935 52.421c-14.061 0-25.46 11.393-25.46 25.447s14.084 35.625 25.46 35.625c11.918 0 25.46-21.572 25.46-35.625s-11.398-25.447-25.46-25.447z" fill="#fce8cb"/><path d="m98.935 50.921c-14.866 0-26.96 12.089-26.96 26.947 0 14.658 14.46 37.125 26.96 37.125 12.759 0 26.96-22.129 26.96-37.125.001-14.858-12.094-26.947-26.96-26.947zm0 61.072c-10.575 0-23.96-21.158-23.96-34.125 0-13.204 10.748-23.947 23.96-23.947 13.211 0 23.96 10.743 23.96 23.947.001 13.165-13.082 34.125-23.96 34.125z" fill="#3a312a"/><path d="m89.947 75.097c-1.372 0-2.485 1.112-2.485 2.484s1.112 2.484 2.485 2.484 2.485-1.112 2.485-2.484-1.113-2.484-2.485-2.484z" fill="#3a312a"/><path d="m107.924 75.097c-1.372 0-2.485 1.112-2.485 2.484s1.112 2.484 2.485 2.484 2.485-1.112 2.485-2.484-1.112-2.484-2.485-2.484z" fill="#3a312a"/><path d="m84.98 81.766c-2.364 0-4.281 1.432-4.281 3.198s1.917 3.198 4.281 3.198 4.281-1.432 4.281-3.198-1.917-3.198-4.281-3.198z" fill="#f5978a"/><path d="m112.891 81.766c-2.364 0-4.281 1.432-4.281 3.198s1.917 3.198 4.281 3.198 4.281-1.432 4.281-3.198-1.917-3.198-4.281-3.198z" fill="#f5978a"/><path d="m125.581 71.986c0-13.907-11.798-25.181-26.352-25.181s-26.352 11.274-26.352 25.182c0 1.471.266 2.568.762 3.939.233.646 4.007-1.417 4.328-1.643 1.607-1.131 2.92-2.663 3.901-4.357.406-.704.744-1.421 1.016-2.138.869-2.288 3.229-8.653 5.625-8.153 3.214.669 6.856 1.048 10.72 1.048s7.506-.379 10.72-1.048c2.396-.499 4.757 5.866 5.625 8.153.272.717.611 1.434 1.017 2.138 1.621 2.802 4.359 5.471 7.69 5.956.008-.161.211-.216.363-.271 1.09-.396.937-2.751.937-3.625z" fill="#87796f"/><path d="m127.084 72.259-.003-.272c0-14.712-12.494-26.682-27.852-26.682s-27.852 11.97-27.852 26.682c0 1.738.34 3.036.851 4.448.178.492.571.866 1.08 1.027.156.049.331.071.522.071 1.809 0 4.966-2 5-2.024 1.697-1.194 3.196-2.865 4.337-4.835.438-.76.814-1.553 1.119-2.355l.056-.146c2.389-6.298 3.603-7.002 3.861-7.069 3.44.716 7.15 1.079 11.025 1.079s7.585-.363 10.968-1.077c.315.065 1.53.77 3.918 7.067l.056.146c.305.803.681 1.596 1.121 2.357 2.14 3.7 5.419 6.201 8.772 6.689.42.063.842-.057 1.168-.325.036-.029.07-.06.103-.093 1.808-.81 1.77-3.32 1.75-4.688zm-3.15 2.017c-.005.002-.01.005-.015.007-2.258-.557-4.477-2.426-6.028-5.107-.358-.622-.666-1.269-.914-1.922l-.056-.146c-1.785-4.707-3.827-9.006-6.671-9.006-.198 0-.4.021-.606.063-3.24.675-6.744 1.017-10.414 1.017s-7.174-.342-10.414-1.017c-3.164-.669-5.369 3.907-7.278 8.942l-.056.146c-.248.653-.556 1.3-.912 1.919-.923 1.594-2.122 2.937-3.444 3.868-.385.248-1.58.866-2.446 1.231-.195-.717-.303-1.42-.303-2.286 0-13.059 11.148-23.682 24.852-23.682s24.852 10.623 24.852 23.682l.004.316c.015 1.013-.036 1.676-.151 1.975zm1.125 2.78-.541-1.399.633 1.354c-.032.018-.063.033-.092.045z" fill="#3a312a"/><path d="m88.384 113.219h6.507v16.655h-6.507z" fill="#87796f" transform="matrix(.799 -.602 .602 .799 -54.689 79.598)"/><path d="m100.448 125.335-10.027-13.298c-.499-.661-1.44-.792-2.1-.295l-5.198 3.915c-.318.239-.528.596-.583.989-.056.395.048.794.288 1.112l10.027 13.298c.295.391.744.597 1.199.597.314 0 .631-.099.901-.302l5.198-3.915c.318-.239.528-.596.583-.989.056-.394-.048-.794-.288-1.112zm-6.1 2.718-8.221-10.902 2.802-2.109 8.221 10.902z" fill="#3a312a"/><path d="m98.493 118.293h16.655v6.507h-16.655z" fill="#87796f" transform="matrix(.602 -.799 .799 .602 -54.541 133.66)"/><path d="m115.919 116.646c-.055-.394-.265-.75-.583-.989l-5.198-3.915c-.661-.497-1.602-.366-2.1.295l-10.027 13.298c-.24.318-.343.718-.288 1.112s.265.75.583.989l5.197 3.915c.27.203.587.302.901.302.455 0 .904-.206 1.199-.597l10.028-13.298c.24-.318.344-.717.288-1.112zm-11.808 11.407-2.801-2.109 8.221-10.902 2.802 2.109z" fill="#3a312a"/><path d="m78.707 132.679c-.829 0-1.5.672-1.5 1.5v10.449c0 .828.671 1.5 1.5 1.5s1.5-.672 1.5-1.5v-10.449c0-.828-.671-1.5-1.5-1.5z" fill="#3a312a"/><path d="m119.751 132.679c-.829 0-1.5.672-1.5 1.5v10.449c0 .828.671 1.5 1.5 1.5s1.5-.672 1.5-1.5v-10.449c0-.828-.671-1.5-1.5-1.5z" fill="#3a312a"/><path d="m106.496 92.729c-.773-.291-1.639.102-1.931.878-.513 1.367-2.435 3.402-5.631 3.402-2.731 0-4.536-1.119-5.681-3.521-.356-.747-1.251-1.063-1.999-.709-.748.356-1.065 1.252-.709 2 1.653 3.471 4.476 5.23 8.389 5.23 4.42 0 7.474-2.773 8.439-5.35.292-.775-.101-1.639-.877-1.93z" fill="#3a312a"/><path d="m98.935 34.627c-.74 0-19.987 8.323-19.987 15.545s8.948 13.078 19.987 13.078 19.987-5.855 19.987-13.078-19.74-15.545-19.987-15.545z" fill="#87796f"/><path d="m98.935 33.128c-.963 0-21.487 8.569-21.487 17.045 0 8.038 9.639 14.578 21.487 14.578s21.487-6.54 21.487-14.578c0-8.476-20.525-17.045-21.487-17.045zm0 28.623c-10.194 0-18.487-5.194-18.487-11.578 0-5.333 15.127-12.841 18.43-13.972 3.561 1.39 18.544 8.766 18.544 13.972 0 6.384-8.294 11.578-18.487 11.578z" fill="#3a312a"/><path d="m157.796 193.249.475 28.378 23.274-16.284z" fill="#87796f"/><path d="m182.226 204.006-23.749-12.094c-.469-.238-1.027-.215-1.476.064-.446.279-.714.771-.705 1.298l.475 28.379c.01.555.324 1.059.818 1.311.215.11.448.164.682.164.302 0 .604-.092.86-.271l23.274-16.285c.432-.303.673-.809.636-1.334-.036-.525-.346-.993-.815-1.232zm-22.503 14.775-.386-23.063 19.302 9.828z" fill="#3a312a"/><path d="m160.685 222.518c0 8.61-7 15.61-15.61 15.61h19c8.61 0 15.61-7 15.61-15.61v-14.04l-19 13.3zm3.389-204.391h-19c8.61 0 15.61 7 15.61 15.61v150.52l19-37.3v-113.22c.001-8.61-6.999-15.61-15.61-15.61z" fill="#6ca8bf"/><path d="m231.918 76.949c-6.558-3.34-14.582-.73-17.922 5.828l-16.235 31.883-6.418 12.604-33.665 66.111 23.75 12.094 56.318-110.599c3.339-6.558.73-14.582-5.828-17.921z" fill="#ed6e7a"/><path d="m239.97 84.239c-1.225-3.767-3.842-6.83-7.371-8.627-7.285-3.707-16.229-.799-19.939 6.483l-16.235 31.883c-.376.738-.082 1.642.656 2.018.735.373 1.642.083 2.018-.656l16.235-31.883c2.958-5.811 10.092-8.132 15.904-5.171 2.814 1.433 4.903 3.876 5.88 6.88s.726 6.209-.708 9.023l-55.638 109.262-21.076-10.732 32.984-64.774c.376-.738.082-1.642-.656-2.018-.736-.373-1.642-.083-2.018.656l-33.665 66.111c-.181.354-.213.767-.09 1.145s.392.692.746.873l23.75 12.094c.218.11.45.163.68.163.546 0 1.073-.299 1.338-.819l56.318-110.599c1.797-3.529 2.111-7.546.887-11.312z" fill="#3a312a"/><path d="m214.157 85.839h13.001v26.651h-13.001z" fill="#d7e057" transform="matrix(.454 -.891 .891 .454 32.162 250.799)"/><path d="m236.162 98.082-23.749-12.094c-.354-.182-.768-.212-1.145-.09-.378.123-.692.392-.873.746l-5.899 11.586c-.376.738-.082 1.642.656 2.018l23.749 12.094c.213.108.446.163.681.163.156 0 .313-.024.464-.073.378-.123.692-.392.873-.746l5.899-11.586c.376-.739.082-1.642-.656-2.018zm-7.236 10.905-21.075-10.732 4.538-8.912 21.075 10.732z" fill="#3a312a"/></svg>