<svg id="Layer_1" enable-background="new 0 0 256 256" height="512" viewBox="0 0 256 256" width="512" xmlns="http://www.w3.org/2000/svg"><path d="m25.952 81.309v51.682c.038 0 .072-.005.11-.005v14.071c-.038 0-.073-.005-.11-.005v11.97h110.724v-77.713z" fill="#87796f"/><path d="m136.676 79.809h-110.724c-.829 0-1.5.671-1.5 1.5v51.682c0 .401.161.786.446 1.067.285.282.67.44 1.073.433l.091-.005c.829 0 1.5-.671 1.5-1.5 0-.2-.039-.391-.11-.566v-49.61h107.724v74.712h-107.724v-9.853c.086-.187.134-.394.134-.612 0-.829-.647-1.5-1.476-1.5-.029-.002-.11-.006-.139-.006-.438.002-.788.151-1.073.433-.286.282-.446.666-.446 1.067v11.97c0 .829.671 1.5 1.5 1.5h110.724c.828 0 1.5-.671 1.5-1.5v-77.712c0-.829-.672-1.5-1.5-1.5z" fill="#3a312a"/><path d="m226.264 25.943c-.974 11.564-13.031 13.39-13.031 13.39 10.352.487 12.932 14.059 12.932 14.059.221-9.677 13.328-14.202 13.328-14.202-9.819-.588-13.229-13.247-13.229-13.247z" fill="#d7e057"/><path d="m239.583 37.692c-8.609-.515-11.839-12.025-11.87-12.141-.191-.702-.853-1.165-1.584-1.101-.725.066-1.298.642-1.359 1.367-.86 10.215-11.319 11.963-11.761 12.033-.763.115-1.314.79-1.273 1.561.04.77.657 1.384 1.428 1.421 9.033.425 11.505 12.718 11.528 12.842.138.712.76 1.217 1.473 1.217.042 0 .084-.001.126-.005.765-.064 1.357-.693 1.375-1.46.194-8.508 12.198-12.777 12.319-12.819.676-.235 1.092-.914.994-1.622-.098-.709-.682-1.25-1.396-1.293zm-13.573 10.348c-1.357-3.131-3.71-6.909-7.591-8.879 2.933-1.405 6.412-3.913 8.206-8.274 1.552 3.071 4.202 6.881 8.339 8.724-3.009 1.64-6.927 4.407-8.954 8.429z" fill="#3a312a"/><path d="m204.555 42.924c-.689 8.179-9.217 9.47-9.217 9.47 7.322.344 9.147 9.944 9.147 9.944.156-6.844 9.427-10.045 9.427-10.045-6.945-.415-9.357-9.369-9.357-9.369z" fill="#d7e057"/><path d="m214.001 50.795c-5.77-.345-7.977-8.185-7.999-8.265-.19-.702-.865-1.16-1.581-1.102-.726.065-1.3.642-1.361 1.368-.579 6.871-7.651 8.067-7.947 8.114-.763.115-1.314.79-1.273 1.561.04.77.657 1.384 1.428 1.421 6.039.284 7.728 8.644 7.744 8.726.136.712.759 1.22 1.473 1.22.041 0 .083-.001.125-.005.765-.063 1.358-.694 1.376-1.461.13-5.709 8.335-8.633 8.416-8.662.677-.234 1.094-.913.997-1.622-.099-.708-.684-1.25-1.398-1.293zm-9.59 6.797c-.924-1.886-2.341-3.948-4.45-5.281 1.857-1.041 3.7-2.63 4.874-4.917 1.058 1.874 2.656 3.955 4.944 5.225-1.85 1.1-3.991 2.74-5.368 4.973z" fill="#3a312a"/><path d="m204.555 16.266c-.689 8.179-9.217 9.471-9.217 9.471 7.322.344 9.147 9.944 9.147 9.944.156-6.845 9.427-10.045 9.427-10.045-6.945-.416-9.357-9.37-9.357-9.37z" fill="#d7e057"/><path d="m214.001 24.138c-5.77-.345-7.977-8.186-7.999-8.265-.19-.702-.865-1.159-1.581-1.102-.726.065-1.3.642-1.361 1.368-.579 6.871-7.651 8.067-7.947 8.114-.763.115-1.314.79-1.273 1.561.04.77.657 1.384 1.428 1.421 6.039.284 7.728 8.643 7.744 8.725.136.712.759 1.22 1.473 1.22.041 0 .083-.002.125-.005.765-.063 1.358-.694 1.376-1.461.13-5.708 8.335-8.633 8.416-8.661.677-.234 1.094-.913.997-1.622-.099-.708-.684-1.25-1.398-1.293zm-9.59 6.796c-.924-1.886-2.341-3.948-4.45-5.281 1.857-1.041 3.7-2.63 4.874-4.918 1.058 1.874 2.656 3.955 4.944 5.225-1.85 1.102-3.991 2.741-5.368 4.974z" fill="#3a312a"/><path d="m118.011 183.065h-19.54v-12.693c-5.405 3.745-10.997 5.954-16.424 5.954-5.206 0-10.699-2.232-16.081-6.021h-.331v12.759h-19.552c-16.335 0-29.576 13.234-29.576 29.56v26.788h131.08v-26.788c0-16.325-13.241-29.559-29.576-29.559z" fill="#fce8cb"/><path d="m118.011 181.565h-18.04v-11.193c0-.558-.31-1.07-.804-1.329-.495-.259-1.091-.223-1.55.096-5.446 3.774-10.685 5.688-15.569 5.688-4.681 0-9.801-1.934-15.217-5.748-.253-.178-.555-.273-.864-.273h-.331c-.829 0-1.5.671-1.5 1.5v11.259h-18.054c-17.135 0-31.076 13.934-31.076 31.061v26.788c0 .829.671 1.5 1.5 1.5h131.08c.828 0 1.5-.671 1.5-1.5v-26.788c.001-17.128-13.94-31.061-31.075-31.061zm28.076 56.348h-128.08v-25.288c0-15.473 12.595-28.061 28.076-28.061h19.552c.829 0 1.5-.671 1.5-1.5v-10.177c5.203 3.279 10.21 4.938 14.913 4.938 4.779 0 9.789-1.576 14.924-4.691v9.93c0 .829.671 1.5 1.5 1.5h19.54c15.482 0 28.076 12.588 28.076 28.061v25.288z" fill="#3a312a"/><path d="m118.011 183.056h-4.675l.122.089-20.325 26.943-10.489-7.898-10.489 7.898-20.325-26.943.121-.089h-5.869c-16.335 0-29.576 13.234-29.576 29.561v26.799h131.08v-26.799c.001-16.327-13.239-29.561-29.575-29.561z" fill="#fce8cb"/><path d="m118.011 181.556h-4.675c-.65 0-1.226.418-1.427 1.036-.019.058-.034.115-.045.173l-19.027 25.222-9.292-6.997c-.534-.402-1.271-.402-1.805 0l-9.292 6.997-19.027-25.223c-.012-.059-.027-.117-.045-.174-.202-.618-.777-1.035-1.426-1.035h-5.869c-17.135 0-31.076 13.933-31.076 31.06v26.799c0 .829.671 1.5 1.5 1.5h131.08c.828 0 1.5-.671 1.5-1.5v-26.799c.002-17.125-13.939-31.059-31.074-31.059zm28.076 56.36h-128.08v-25.299c0-15.473 12.595-28.06 28.076-28.06h4.934l19.941 26.434c.498.662 1.438.793 2.1.295l9.586-7.219 9.586 7.219c.662.498 1.601.366 2.1-.295l19.942-26.434h3.739c15.481 0 28.076 12.588 28.076 28.06z" fill="#3a312a"/><path clip-rule="evenodd" d="m31.261 98.155c-6.427 0-11.637 5.207-11.637 11.631s5.21 11.631 11.637 11.631 11.638-5.208 11.638-11.631c0-6.424-5.21-11.631-11.638-11.631z" fill="#fce8cb" fill-rule="evenodd"/><path d="m31.261 96.655c-7.244 0-13.137 5.891-13.137 13.131 0 7.241 5.894 13.131 13.137 13.131 7.244 0 13.138-5.891 13.138-13.131 0-7.241-5.894-13.131-13.138-13.131zm0 23.262c-5.59 0-10.137-4.545-10.137-10.131s4.547-10.131 10.137-10.131 10.138 4.545 10.138 10.131c0 5.587-4.548 10.131-10.138 10.131z" fill="#3a312a"/><ellipse clip-rule="evenodd" cx="132.836" cy="109.786" fill="#fce8cb" fill-rule="evenodd" rx="11.638" ry="11.631" transform="matrix(1 -.003 .003 1 -.271 .328)"/><path d="m132.836 96.655c-7.244 0-13.138 5.891-13.138 13.131 0 7.241 5.894 13.131 13.138 13.131s13.138-5.891 13.138-13.131c0-7.241-5.894-13.131-13.138-13.131zm0 23.262c-5.59 0-10.138-4.545-10.138-10.131s4.548-10.131 10.138-10.131 10.138 4.545 10.138 10.131c0 5.587-4.548 10.131-10.138 10.131z" fill="#3a312a"/><path d="m82.049 52.577c-28.492 0-51.59 23.086-51.59 51.563s28.539 72.188 51.59 72.188c24.149 0 51.59-43.711 51.59-72.188 0-28.478-23.098-51.563-51.59-51.563z" fill="#fce8cb"/><path d="m82.048 51.077c-29.274 0-53.09 23.804-53.09 53.063 0 13.838 6.674 32.087 17.417 47.626 11.282 16.32 24.618 26.063 35.673 26.063 11.639 0 24.793-9.502 36.091-26.07 10.486-15.377 17-33.624 17-47.618 0-29.26-23.817-53.064-53.091-53.064zm33.613 98.991c-10.572 15.504-23.138 24.76-33.612 24.76-10.07 0-22.483-9.259-33.205-24.769-10.415-15.064-16.885-32.66-16.885-45.92 0-27.605 22.47-50.063 50.09-50.063s50.09 22.458 50.09 50.063c0 13.424-6.314 31.023-16.478 45.929z" fill="#3a312a"/><path d="m63.834 98.525c-2.781 0-5.035 2.253-5.035 5.033s2.254 5.033 5.035 5.033 5.035-2.253 5.035-5.033c.001-2.78-2.254-5.033-5.035-5.033z" fill="#3a312a"/><path d="m100.263 98.525c-2.781 0-5.035 2.253-5.035 5.033s2.254 5.033 5.035 5.033 5.035-2.253 5.035-5.033-2.254-5.033-5.035-5.033z" fill="#3a312a"/><path d="m53.771 112.039c-4.791 0-8.674 2.902-8.674 6.481s3.884 6.481 8.674 6.481c4.791 0 8.674-2.902 8.674-6.481s-3.884-6.481-8.674-6.481z" fill="#f5978a"/><path d="m110.327 112.039c-4.791 0-8.674 2.902-8.674 6.481s3.884 6.481 8.674 6.481c4.791 0 8.674-2.902 8.674-6.481s-3.884-6.481-8.674-6.481z" fill="#f5978a"/><path d="m60.668 175.772h13.186v33.749h-13.186z" fill="#87796f" transform="matrix(.799 -.602 .602 .799 -102.372 79.239)"/><path d="m83.885 201.25-20.319-26.947c-.498-.661-1.439-.793-2.1-.295l-10.532 7.934c-.318.24-.528.596-.583.99-.056.394.048.794.288 1.112l20.319 26.947c.295.391.744.597 1.199.597.314 0 .631-.098.901-.302l10.532-7.933c.318-.24.528-.595.583-.99s-.048-.795-.288-1.113zm-11.435 6.737-18.513-24.551 8.136-6.129 18.513 24.552z" fill="#3a312a"/><path d="m81.152 186.054h33.749v13.186h-33.749z" fill="#87796f" transform="matrix(.602 -.799 .799 .602 -114.811 154.932)"/><path d="m114.938 182.932c-.055-.394-.265-.75-.583-.99l-10.532-7.934c-.661-.498-1.602-.366-2.1.295l-20.32 26.947c-.24.318-.343.718-.288 1.112s.265.75.583.99l10.532 7.933c.27.204.587.302.901.302.455 0 .904-.206 1.199-.597l20.319-26.947c.241-.317.344-.717.289-1.111zm-22.1 25.055-8.136-6.128 18.513-24.552 8.136 6.129z" fill="#3a312a"/><path d="m41.06 216.743c-.829 0-1.5.671-1.5 1.5v21.173c0 .829.671 1.5 1.5 1.5s1.5-.671 1.5-1.5v-21.173c0-.828-.672-1.5-1.5-1.5z" fill="#3a312a"/><path d="m124.228 216.743c-.829 0-1.5.671-1.5 1.5v21.173c0 .829.671 1.5 1.5 1.5s1.5-.671 1.5-1.5v-21.173c0-.828-.671-1.5-1.5-1.5z" fill="#3a312a"/><path d="m96.829 135.692c-.774-.29-1.64.102-1.931.878-1.023 2.73-5.026 7.894-12.851 7.894-6.113 0-10.333-2.621-12.9-8.013-.356-.748-1.253-1.065-2-.709-.748.356-1.065 1.252-.709 2 3.073 6.452 8.325 9.723 15.609 9.723 8.225 0 13.884-5.102 15.66-9.842.291-.776-.103-1.64-.878-1.931z" fill="#3a312a"/><path d="m124.497 44.418c-10.84-11.446-26.181-18.586-43.186-18.586-6.36 0-12.483.999-18.22 2.856 4.544 10.533 9.916 20.648 17.232 29.453 3.363 4.037 7.091 7.763 11.033 11.221 3.212 2.856 6.575 5.551 9.991 8.139 11.645 8.837 24.215 16.654 37.428 23.021 1.3-4.875 1.987-9.996 1.987-15.279-.001-15.818-6.178-30.184-16.265-40.825z" fill="#87796f"/><path d="m125.586 43.387c-11.637-12.288-27.36-19.055-44.276-19.055-6.394 0-12.679.985-18.682 2.929-.402.13-.73.424-.904.808-.174.385-.178.825-.011 1.213 5.392 12.5 10.939 21.975 17.456 29.818 3.218 3.863 6.985 7.695 11.19 11.382 2.946 2.62 6.244 5.307 10.081 8.213 12.026 9.125 24.705 16.923 37.684 23.177.206.099.429.149.651.149.214 0 .428-.045.626-.137.406-.187.708-.545.823-.977 1.353-5.071 2.038-10.342 2.038-15.665 0-15.648-5.923-30.512-16.676-41.855zm12.182 54.974c-12.222-6.027-24.162-13.441-35.516-22.057-3.774-2.859-7.013-5.497-9.908-8.071-4.094-3.59-7.752-7.309-10.868-11.051-6.061-7.294-11.274-16.081-16.339-27.555 5.222-1.524 10.654-2.296 16.173-2.296 16.083 0 31.033 6.435 42.098 18.119 10.224 10.784 15.853 24.916 15.853 39.791.001 4.445-.501 8.85-1.493 13.12z" fill="#3a312a"/><path d="m81.31 25.832c-6.36 0-12.483.999-18.22 2.856-23.914 7.677-41.22 30.097-41.22 56.554 0 5.594.773 11.006 2.224 16.138 23.452-8.601 46.366-18.93 67.261-32.019 11.785-7.377 22.915-15.623 33.142-24.943-10.84-11.446-26.181-18.586-43.187-18.586z" fill="#87796f"/><path d="m125.586 43.387c-11.637-12.288-27.36-19.055-44.276-19.055-6.394 0-12.679.985-18.678 2.928-25.278 8.115-42.262 31.416-42.262 57.981 0 5.625.767 11.192 2.281 16.546.113.402.39.738.762.928.213.109.447.164.682.164.174 0 .349-.03.517-.092 26.309-9.648 48.402-20.167 67.54-32.155 12.305-7.702 23.527-16.149 33.356-25.105.298-.272.474-.651.489-1.054.013-.402-.134-.794-.411-1.086zm-35.027 24.703c-18.586 11.643-40.006 21.893-65.44 31.313-1.161-4.604-1.749-9.36-1.749-14.162 0-25.256 16.147-47.41 40.183-55.127 5.704-1.847 11.678-2.783 17.758-2.783 15.57 0 30.079 6.03 41.027 17.017-9.42 8.451-20.103 16.433-31.779 23.742z" fill="#3a312a"/><path d="m234.059 223.962h-70.561c-3.001 0-5.434 2.433-5.434 5.434v4.586c0 3.001 2.433 5.434 5.434 5.434h70.561c3.001 0 5.434-2.433 5.434-5.434v-4.586c0-3.001-2.433-5.434-5.434-5.434z" fill="#d6df58"/><path d="m234.059 222.462h-70.561c-3.823 0-6.934 3.111-6.934 6.934v4.586c0 3.823 3.11 6.934 6.934 6.934h70.561c3.824 0 6.935-3.111 6.935-6.934v-4.586c-.001-3.823-3.111-6.934-6.935-6.934zm3.934 11.52c0 2.169-1.765 3.934-3.935 3.934h-70.561c-2.169 0-3.934-1.765-3.934-3.934v-4.586c0-2.169 1.765-3.934 3.934-3.934h70.561c2.17 0 3.935 1.765 3.935 3.934z" fill="#3a312a"/><path d="m234.059 208.508h-70.561c-3.001 0-5.434 2.433-5.434 5.434v4.586c0 3.001 2.433 5.434 5.434 5.434h70.561c3.001 0 5.434-2.433 5.434-5.434v-4.586c0-3.001-2.433-5.434-5.434-5.434z" fill="#d6df58"/><path d="m234.059 207.008h-70.561c-3.823 0-6.934 3.111-6.934 6.934v4.586c0 3.823 3.11 6.934 6.934 6.934h70.561c3.824 0 6.935-3.11 6.935-6.934v-4.586c-.001-3.823-3.111-6.934-6.935-6.934zm3.934 11.52c0 2.169-1.765 3.934-3.935 3.934h-70.561c-2.169 0-3.934-1.765-3.934-3.934v-4.586c0-2.169 1.765-3.934 3.934-3.934h70.561c2.17 0 3.935 1.765 3.935 3.934z" fill="#3a312a"/><path d="m234.059 193.055h-70.561c-3.001 0-5.434 2.433-5.434 5.434v4.586c0 3.001 2.433 5.434 5.434 5.434h70.561c3.001 0 5.434-2.433 5.434-5.434v-4.586c0-3.001-2.433-5.434-5.434-5.434z" fill="#d6df58"/><path d="m234.059 191.555h-37.375c-.828 0-1.5.671-1.5 1.5s.672 1.5 1.5 1.5h37.375c2.17 0 3.935 1.765 3.935 3.934v4.586c0 2.169-1.765 3.934-3.935 3.934h-70.561c-2.169 0-3.934-1.765-3.934-3.934v-4.586c0-2.169 1.765-3.934 3.934-3.934h19.609c.828 0 1.5-.671 1.5-1.5s-.672-1.5-1.5-1.5h-19.609c-3.823 0-6.934 3.111-6.934 6.934v4.586c0 3.823 3.11 6.934 6.934 6.934h70.561c3.824 0 6.935-3.11 6.935-6.934v-4.586c-.001-3.824-3.111-6.934-6.935-6.934z" fill="#3a312a"/><path d="m234.059 177.601h-70.561c-3.001 0-5.434 2.433-5.434 5.434v4.586c0 3.001 2.433 5.434 5.434 5.434h19.609 13.576 37.375c3.001 0 5.434-2.433 5.434-5.434v-4.586c.001-3.001-2.432-5.434-5.433-5.434z" fill="#d6df58"/><path d="m234.059 176.101h-70.561c-3.823 0-6.934 3.111-6.934 6.934v4.585c0 3.823 3.11 6.934 6.934 6.934h19.609c.828 0 1.5-.671 1.5-1.5s-.672-1.5-1.5-1.5h-19.609c-2.169 0-3.934-1.765-3.934-3.934v-4.585c0-2.169 1.765-3.934 3.934-3.934h70.561c2.17 0 3.935 1.765 3.935 3.934v4.585c0 2.169-1.765 3.934-3.935 3.934h-37.375c-.828 0-1.5.671-1.5 1.5s.672 1.5 1.5 1.5h37.375c3.824 0 6.935-3.111 6.935-6.934v-4.585c-.001-3.823-3.111-6.934-6.935-6.934z" fill="#3a312a"/><path d="m234.059 162.148h-70.561c-3.001 0-5.434 2.433-5.434 5.434v4.586c0 3.001 2.433 5.434 5.434 5.434h70.561c3.001 0 5.434-2.433 5.434-5.434v-4.586c0-3.001-2.433-5.434-5.434-5.434z" fill="#d6df58"/><path d="m234.059 160.647h-70.561c-3.823 0-6.934 3.111-6.934 6.934v4.586c0 3.823 3.11 6.934 6.934 6.934h70.561c3.824 0 6.935-3.111 6.935-6.934v-4.586c-.001-3.823-3.111-6.934-6.935-6.934zm3.934 11.52c0 2.169-1.765 3.934-3.935 3.934h-70.561c-2.169 0-3.934-1.765-3.934-3.934v-4.586c0-2.169 1.765-3.934 3.934-3.934h70.561c2.17 0 3.935 1.765 3.935 3.934z" fill="#3a312a"/><ellipse cx="198.779" cy="121.584" fill="#d6df58" rx="40.563" ry="40.563" transform="matrix(.924 -.383 .383 .924 -31.397 85.324)"/><path d="m198.778 79.521c-23.193 0-42.063 18.87-42.063 42.063 0 23.194 18.869 42.063 42.063 42.063s42.064-18.869 42.064-42.063c0-23.193-18.869-42.063-42.064-42.063zm0 81.126c-21.539 0-39.063-17.523-39.063-39.063s17.523-39.063 39.063-39.063 39.064 17.524 39.064 39.063c0 21.54-17.524 39.063-39.064 39.063z" fill="#3a312a"/><path d="m203.601 116.997c-5.908-2.223-8.341-3.683-8.341-5.977 0-1.945 1.46-3.892 5.978-3.892 5.003 0 8.201 1.598 10.008 2.363l2.016-7.853c-2.294-1.112-5.422-2.087-10.078-2.294v-6.117h-6.811v6.602c-7.437 1.46-11.746 6.255-11.746 12.372 0 6.742 5.073 10.218 12.51 12.719 5.143 1.738 7.367 3.407 7.367 6.046 0 2.781-2.711 4.31-6.672 4.31-4.518 0-8.618-1.459-11.537-3.057l-2.085 8.131c2.641 1.529 7.158 2.779 11.815 2.988v6.602h6.811v-7.089c7.993-1.389 12.372-6.671 12.372-12.857 0-6.255-3.337-10.078-11.607-12.997z" fill="#87796f"/><path d="m204.13 115.593c-5.372-2.021-7.369-3.261-7.369-4.573 0-2.082 2.806-2.392 4.478-2.392 4.256 0 7.054 1.216 8.905 2.022l.518.223c.403.171.858.157 1.25-.036.392-.194.68-.549.788-.972l2.016-7.853c.177-.691-.156-1.412-.799-1.723-2.656-1.288-5.688-2.062-9.231-2.353v-4.708c0-.829-.672-1.5-1.5-1.5h-6.812c-.828 0-1.5.671-1.5 1.5v5.402c-7.279 1.848-11.745 6.96-11.745 13.572 0 8.5 7.232 12.022 13.529 14.14 5.269 1.779 6.348 3.136 6.348 4.625 0 2.607-3.959 2.81-5.172 2.81-4.844 0-8.857-1.8-10.818-2.873-.406-.223-.892-.244-1.317-.06-.425.185-.74.555-.855 1.003l-2.085 8.131c-.167.651.12 1.334.702 1.671 2.727 1.578 6.866 2.724 11.066 3.093v5.199c0 .829.672 1.5 1.5 1.5h6.81c.828 0 1.5-.671 1.5-1.5v-5.864c7.56-1.763 12.372-7.183 12.372-14.083-.001-6.982-3.771-11.292-12.579-14.401zm-1.551 25.78c-.719.125-1.243.749-1.243 1.478v5.589h-3.81v-5.102c0-.802-.631-1.462-1.433-1.499-3.664-.164-7.494-1.034-10.134-2.271l1.328-5.179c2.471 1.127 6.205 2.386 10.546 2.386 5.041 0 8.172-2.226 8.172-5.81 0-4.073-4.031-5.996-8.389-7.468-8.053-2.708-11.488-6.087-11.488-11.297 0-5.53 3.938-9.605 10.534-10.9.703-.138 1.211-.754 1.211-1.472v-5.102h3.812v4.617c0 .803.632 1.463 1.434 1.499 3.236.144 5.99.686 8.375 1.651l-1.266 4.931c-1.999-.818-4.939-1.797-8.989-1.797-6.938 0-7.478 4.127-7.478 5.392 0 3.591 4.036 5.395 9.342 7.391 7.632 2.694 10.606 5.942 10.606 11.583-.001 5.827-4.266 10.188-11.13 11.38z" fill="#3a312a"/><g fill="#b9c239"><path d="m234.062 225.461h-16c2.17 0 3.93 1.77 3.93 3.94v4.58c0 2.17-1.76 3.94-3.93 3.94h16c2.17 0 3.93-1.77 3.93-3.94v-4.58c0-2.17-1.76-3.94-3.93-3.94z"/><path d="m234.062 210.011h-16c2.17 0 3.93 1.76 3.93 3.93v4.59c0 2.17-1.76 3.93-3.93 3.93h16c2.17 0 3.93-1.76 3.93-3.93v-4.59c0-2.17-1.76-3.93-3.93-3.93z"/><path d="m234.062 194.551h-16c2.17 0 3.93 1.77 3.93 3.94v4.58c0 2.17-1.76 3.94-3.93 3.94h16c2.17 0 3.93-1.77 3.93-3.94v-4.58c0-2.17-1.76-3.94-3.93-3.94z"/><path d="m234.062 179.101h-16c2.17 0 3.93 1.76 3.93 3.93v4.59c0 2.17-1.76 3.93-3.93 3.93h16c2.17 0 3.93-1.76 3.93-3.93v-4.59c0-2.17-1.76-3.93-3.93-3.93z"/><path d="m234.062 163.651h-16c2.17 0 3.93 1.76 3.93 3.93v4.59c0 2.17-1.76 3.93-3.93 3.93h16c2.17 0 3.93-1.76 3.93-3.93v-4.59c0-2.17-1.76-3.93-3.93-3.93z"/><path d="m198.782 82.521c-2.74 0-5.42.28-8 .82 17.72 3.71 31.06 19.44 31.06 38.24s-13.34 34.54-31.06 38.25c2.58.54 5.26.82 8 .82 21.54 0 39.06-17.53 39.06-39.07s-17.52-39.06-39.06-39.06z"/></g></svg>