<svg id="Layer_1" enable-background="new 0 0 256 256" height="512" viewBox="0 0 256 256" width="512" xmlns="http://www.w3.org/2000/svg"><path d="m47.727 26.344c-.974 11.564-13.031 13.39-13.031 13.39 10.352.487 12.932 14.059 12.932 14.059.221-9.677 13.328-14.202 13.328-14.202-9.819-.588-13.229-13.247-13.229-13.247z" fill="#d5dc57"/><path d="m61.045 38.093c-8.61-.515-11.838-12.025-11.87-12.141-.191-.702-.862-1.164-1.583-1.101-.725.066-1.298.642-1.359 1.367-.861 10.215-11.32 11.963-11.761 12.033-.763.115-1.313.79-1.273 1.561.04.77.657 1.384 1.428 1.421 9.033.425 11.505 12.718 11.529 12.842.137.711.759 1.217 1.472 1.217.042 0 .084-.001.126-.005.764-.064 1.356-.693 1.374-1.459.195-8.508 12.198-12.777 12.319-12.819.676-.235 1.092-.914.995-1.623-.099-.709-.682-1.25-1.397-1.293zm-13.572 10.347c-1.357-3.13-3.711-6.908-7.591-8.878 2.933-1.405 6.413-3.914 8.206-8.274 1.552 3.071 4.202 6.881 8.339 8.724-3.01 1.64-6.927 4.406-8.954 8.428z" fill="#3a312a"/><path d="m26.018 43.324c-.689 8.179-9.217 9.47-9.217 9.47 7.322.344 9.147 9.944 9.147 9.944.156-6.844 9.427-10.045 9.427-10.045-6.945-.415-9.357-9.369-9.357-9.369z" fill="#d5dc57"/><path d="m35.463 51.196c-5.769-.345-7.977-8.186-7.998-8.265-.191-.702-.856-1.168-1.582-1.102-.726.065-1.299.642-1.36 1.368-.579 6.871-7.651 8.067-7.947 8.114-.763.115-1.313.79-1.273 1.561.04.77.657 1.384 1.428 1.421 6.039.284 7.728 8.644 7.744 8.726.136.712.759 1.22 1.472 1.22.042 0 .083-.001.125-.005.765-.063 1.358-.694 1.376-1.461.13-5.709 8.336-8.633 8.417-8.662.676-.234 1.094-.913.996-1.622-.098-.708-.683-1.25-1.398-1.293zm-9.589 6.797c-.924-1.886-2.341-3.948-4.45-5.281 1.857-1.041 3.7-2.63 4.874-4.917 1.058 1.874 2.656 3.956 4.944 5.225-1.851 1.1-3.991 2.74-5.368 4.973z" fill="#3a312a"/><path d="m26.018 16.667c-.689 8.179-9.217 9.471-9.217 9.471 7.322.344 9.147 9.944 9.147 9.944.156-6.844 9.427-10.045 9.427-10.045-6.945-.416-9.357-9.37-9.357-9.37z" fill="#d5dc57"/><path d="m35.463 24.539c-5.748-.344-7.96-8.128-7.998-8.264-.19-.703-.857-1.17-1.583-1.103-.726.065-1.299.642-1.36 1.368-.579 6.871-7.651 8.067-7.947 8.114-.763.115-1.313.79-1.273 1.561.04.77.657 1.384 1.428 1.421 6.039.284 7.728 8.644 7.744 8.726.136.712.759 1.22 1.472 1.22.042 0 .083-.001.125-.005.765-.063 1.358-.694 1.376-1.461.13-5.708 8.336-8.633 8.417-8.661.676-.234 1.094-.913.996-1.622-.097-.709-.682-1.251-1.397-1.294zm-9.589 6.796c-.924-1.886-2.341-3.948-4.45-5.281 1.857-1.042 3.7-2.631 4.874-4.918 1.058 1.874 2.656 3.956 4.944 5.225-1.851 1.101-3.991 2.741-5.368 4.974z" fill="#3a312a"/><path d="m176.319 64.76v59.167c16.233-.125 29.348-13.322 29.348-29.583s-13.115-29.459-29.348-29.584z" fill="#d6df58"/><path d="m176.331 63.26c-.424.005-.785.153-1.068.435s-.443.665-.443 1.065v59.167c0 .4.16.783.443 1.065.281.279.661.435 1.057.435h.012c17.003-.131 30.836-14.075 30.836-31.083s-13.835-30.953-30.837-31.084zm1.488 59.115v-56.063c14.661.901 26.348 13.172 26.348 28.031s-11.687 27.131-26.348 28.032z" fill="#3a312a"/><path d="m165.898 16.401c-5.755 0-10.421 4.666-10.421 10.421v135.043c0 5.756 4.666 10.421 10.421 10.421s10.421-4.665 10.421-10.421v-135.043c0-5.756-4.665-10.421-10.421-10.421z" fill="#ef6d7a"/><path d="m165.898 14.901c-6.573 0-11.921 5.348-11.921 11.921v135.042c0 6.573 5.348 11.921 11.921 11.921s11.921-5.348 11.921-11.921v-135.042c0-6.573-5.348-11.921-11.921-11.921zm8.921 146.963c0 4.919-4.002 8.921-8.921 8.921s-8.921-4.002-8.921-8.921v-135.042c0-4.919 4.002-8.921 8.921-8.921s8.921 4.002 8.921 8.921z" fill="#3a312a"/><path d="m108.443 48.761-12.709 4.995-39.784 15.634v49.898l99.527 39.121v-128.132z" fill="#ef6d7a"/><path d="m156.322 29.038c-.41-.279-.931-.337-1.394-.156l-47.034 18.484c-.771.303-1.15 1.174-.847 1.945.302.771 1.171 1.149 1.945.847l44.985-17.679v123.729l-96.527-37.942v-47.853l38.833-15.261c.771-.303 1.15-1.174.847-1.945s-1.175-1.15-1.945-.847l-39.784 15.635c-.574.226-.951.779-.951 1.396v49.897c0 .617.377 1.17.951 1.396l99.527 39.121c.177.07.363.104.549.104.297 0 .592-.088.845-.26.41-.28.655-.744.655-1.24v-128.132c0-.496-.245-.96-.655-1.239z" fill="#3a312a"/><path d="m33.355 69.39c-9.309 0-16.855 7.546-16.855 16.855v16.185c0 9.309 7.546 16.855 16.855 16.855h22.595v-49.895z" fill="#ef6d7a"/><path d="m55.95 67.891h-22.595c-10.121 0-18.355 8.234-18.355 18.354v16.185c0 10.121 8.234 18.355 18.355 18.355h22.595c.829 0 1.5-.671 1.5-1.5v-49.894c0-.829-.672-1.5-1.5-1.5zm-1.5 49.894h-21.095c-8.467 0-15.355-6.888-15.355-15.355v-16.185c0-8.466 6.888-15.354 15.355-15.354h21.095z" fill="#3a312a"/><path d="m30.172 119.281v23.798c.221-.025.441-.034.662-.034h24.459c.221 0 .441.008.653.025v-23.789z" fill="#87796f"/><path d="m55.946 117.781h-25.774c-.829 0-1.5.671-1.5 1.5v23.797c0 .428.183.835.502 1.12.276.246.632.38.998.38.057 0 .114-.003.171-.01.163-.019.327-.023.49-.023h24.46c.179 0 .357.006.529.02.424.042.832-.107 1.14-.391s.484-.684.484-1.104v-23.79c0-.827-.671-1.499-1.5-1.499zm-1.5 23.764h-22.774v-20.764h22.774z" fill="#3a312a"/><path d="m55.289 143.042h-24.458c-4.387 0-7.944 3.556-7.944 7.944v79.769c0 4.885 3.96 8.844 8.844 8.844h22.655c4.885 0 8.845-3.96 8.845-8.844v-79.769c.001-4.387-3.556-7.944-7.942-7.944z" fill="#87796f"/><path d="m55.289 141.542h-24.458c-5.207 0-9.444 4.236-9.444 9.444v21.505c0 .829.671 1.5 1.5 1.5s1.5-.671 1.5-1.5v-21.505c0-3.553 2.891-6.444 6.444-6.444h24.457c3.553 0 6.443 2.891 6.443 6.444v79.768c0 4.05-3.294 7.345-7.344 7.345h-22.655c-4.05 0-7.344-3.295-7.344-7.345v-44.246c0-.829-.671-1.5-1.5-1.5s-1.5.671-1.5 1.5v44.246c0 5.704 4.641 10.345 10.344 10.345h22.656c5.704 0 10.344-4.641 10.344-10.345v-79.768c0-5.207-4.236-9.444-9.443-9.444z" fill="#3a312a"/><path d="m76.06 171.743h-12.82v38.46h12.82c3.635 0 6.573-2.96 6.573-6.595v-25.292c0-3.635-2.938-6.573-6.573-6.573z" fill="#d6df58"/><g fill="#3a312a"><path d="m76.06 170.243h-12.82c-.829 0-1.5.671-1.5 1.5v38.46c0 .829.671 1.5 1.5 1.5h12.82c4.452 0 8.073-3.631 8.073-8.095v-25.292c0-4.452-3.621-8.073-8.073-8.073zm5.073 33.365c0 2.809-2.276 5.095-5.073 5.095h-11.32v-35.46h11.32c2.797 0 5.073 2.276 5.073 5.073z"/><path d="m239.5 92.223h-20.583c-.829 0-1.5.671-1.5 1.5s.671 1.5 1.5 1.5h20.583c.829 0 1.5-.671 1.5-1.5s-.671-1.5-1.5-1.5z"/><path d="m234.957 53.39c-.387-.732-1.294-1.013-2.027-.624l-18.417 9.75c-.732.388-1.012 1.295-.624 2.027.269.509.789.799 1.327.799.236 0 .477-.056.7-.175l18.417-9.75c.733-.388 1.012-1.295.624-2.027z"/><path d="m217.875 15.273c-.623-.546-1.57-.484-2.117.138l-15.573 17.739c-.546.623-.485 1.57.138 2.117.285.25.638.373.989.373.417 0 .831-.173 1.128-.51l15.573-17.739c.547-.623.485-1.571-.138-2.118z"/><path d="m234.333 131.984-18.417-9.75c-.733-.389-1.64-.108-2.027.624-.388.732-.108 1.64.624 2.027l18.417 9.75c.224.119.464.175.7.175.538 0 1.058-.29 1.327-.799.388-.732.109-1.639-.624-2.027z"/><path d="m218.013 170.01-15.573-17.739c-.548-.623-1.494-.684-2.117-.138-.622.547-.684 1.495-.138 2.117l15.573 17.739c.297.338.711.51 1.128.51.352 0 .704-.123.989-.373.623-.545.685-1.493.138-2.116z"/></g><path d="m177.82 66.31v6.3c6.31 5.16 10.35 13 10.35 21.73s-4.04 16.57-10.35 21.73v6.3c14.66-.9 26.35-13.17 26.35-28.03s-11.69-27.13-26.35-28.03z" fill="#b9c239"/></svg>