<svg id="Layer_1" enable-background="new 0 0 256 256" height="512" viewBox="0 0 256 256" width="512" xmlns="http://www.w3.org/2000/svg"><path d="m117.796 183.222h-19.54v-12.693c-5.405 3.745-10.997 5.954-16.424 5.954-5.206 0-10.699-2.231-16.081-6.021h-.331v12.759h-19.552c-16.335 0-29.576 13.234-29.576 29.56v26.788h131.08v-26.788c0-16.326-13.241-29.559-29.576-29.559z" fill="#fae6ca"/><path d="m117.796 181.722h-18.04v-11.193c0-.558-.31-1.07-.804-1.329s-1.091-.222-1.55.096c-5.446 3.773-10.684 5.687-15.569 5.687-4.681 0-9.801-1.934-15.218-5.747-.253-.178-.554-.273-.863-.273h-.332c-.829 0-1.5.671-1.5 1.5v11.259h-18.052c-17.135 0-31.076 13.934-31.076 31.06v26.788c0 .829.671 1.5 1.5 1.5h131.08c.828 0 1.5-.671 1.5-1.5v-26.788c0-17.127-13.94-31.06-31.076-31.06zm28.076 56.348h-128.08v-25.288c0-15.473 12.595-28.06 28.076-28.06h19.552c.829 0 1.5-.671 1.5-1.5v-10.177c5.203 3.279 10.211 4.939 14.913 4.939 4.779 0 9.79-1.577 14.924-4.691v9.93c0 .829.671 1.5 1.5 1.5h19.54c15.481 0 28.076 12.588 28.076 28.06v25.287z" fill="#3a312a"/><path d="m124.011 183.878c-2-.43-4.08-.66-6.21-.66h-4.68l.12.08-20.32 26.95-10.49-7.9-10.49 7.9-20.33-26.95.13-.08h-5.87c-1.71 0-3.4.15-5.03.43-13.94 2.38-24.55 14.51-24.55 29.13v26.8h131.08v-26.8c0-14.2-10.01-26.061-23.36-28.9z" fill="#8ac5dc"/><path d="m124.326 182.411c-2.14-.46-4.336-.694-6.525-.694h-4.68c-.661 0-1.244.433-1.436 1.065-.013.043-.024.087-.033.131l-19.026 25.234-9.292-6.998c-.534-.402-1.271-.402-1.805 0l-9.292 6.998-19.023-25.217c-.008-.041-.018-.082-.029-.123-.183-.646-.773-1.091-1.443-1.091h-5.87c-1.759 0-3.537.152-5.282.452-14.948 2.552-25.798 15.425-25.798 30.608v26.8c0 .829.671 1.5 1.5 1.5h131.081c.828 0 1.5-.671 1.5-1.5v-26.8c-.002-14.569-10.326-27.34-24.547-30.365zm21.545 55.667h-128.081v-25.3c0-13.717 9.8-25.346 23.304-27.651 1.579-.271 3.186-.409 4.776-.409h4.933l19.941 26.434c.498.662 1.439.793 2.1.295l9.587-7.22 9.588 7.22c.662.498 1.602.366 2.1-.295l19.93-26.433h3.752c1.978 0 3.961.211 5.898.627 12.847 2.733 22.172 14.27 22.172 27.433z" fill="#3a312a"/><path clip-rule="evenodd" d="m31.047 98.311c-6.427 0-11.637 5.208-11.637 11.632s5.21 11.631 11.637 11.631 11.638-5.207 11.638-11.631c-.001-6.424-5.211-11.632-11.638-11.632z" fill="#fae6ca" fill-rule="evenodd"/><path d="m31.046 96.811c-7.244 0-13.137 5.891-13.137 13.131 0 7.241 5.893 13.131 13.137 13.131s13.138-5.891 13.138-13.131-5.894-13.131-13.138-13.131zm0 23.263c-5.59 0-10.137-4.545-10.137-10.131s4.547-10.131 10.137-10.131 10.138 4.545 10.138 10.131-4.548 10.131-10.138 10.131z" fill="#3a312a"/><path clip-rule="evenodd" d="m132.621 98.311c-6.427 0-11.637 5.208-11.637 11.632s5.21 11.631 11.637 11.631 11.638-5.207 11.638-11.631c-.001-6.424-5.211-11.632-11.638-11.632z" fill="#fae6ca" fill-rule="evenodd"/><path d="m132.621 96.811c-7.244 0-13.138 5.891-13.138 13.131 0 7.241 5.894 13.131 13.138 13.131s13.138-5.891 13.138-13.131-5.894-13.131-13.138-13.131zm0 23.263c-5.59 0-10.138-4.545-10.138-10.131s4.548-10.131 10.138-10.131 10.138 4.545 10.138 10.131-4.548 10.131-10.138 10.131z" fill="#3a312a"/><path d="m81.834 52.733c-28.492 0-51.59 23.086-51.59 51.563 0 28.478 28.538 72.189 51.59 72.189 24.149 0 51.59-43.711 51.59-72.189 0-28.477-23.098-51.563-51.59-51.563z" fill="#fae6ca"/><g fill="#3a312a"><path d="m81.834 51.233c-29.274 0-53.09 23.804-53.09 53.063 0 13.838 6.674 32.087 17.417 47.627 11.283 16.319 24.618 26.062 35.673 26.062 11.638 0 24.793-9.502 36.09-26.07 10.486-15.378 17-33.624 17-47.618 0-29.259-23.816-53.064-53.09-53.064zm33.612 98.992c-10.572 15.504-23.137 24.76-33.612 24.76-10.07 0-22.483-9.259-33.206-24.768-10.415-15.064-16.885-32.66-16.885-45.92 0-27.605 22.47-50.063 50.09-50.063s50.09 22.458 50.09 50.063c.001 13.423-6.313 31.022-16.477 45.928z"/><path d="m63.62 98.681c-2.781 0-5.035 2.254-5.035 5.033 0 2.78 2.254 5.033 5.035 5.033s5.035-2.253 5.035-5.033c0-2.779-2.254-5.033-5.035-5.033z"/><path d="m100.048 98.681c-2.781 0-5.035 2.254-5.035 5.033 0 2.78 2.254 5.033 5.035 5.033s5.035-2.253 5.035-5.033c0-2.779-2.254-5.033-5.035-5.033z"/></g><path d="m53.556 112.196c-4.79 0-8.674 2.901-8.674 6.481 0 3.579 3.884 6.481 8.674 6.481 4.791 0 8.674-2.902 8.674-6.481 0-3.58-3.884-6.481-8.674-6.481z" fill="#f59689"/><path d="m110.112 112.196c-4.79 0-8.674 2.901-8.674 6.481 0 3.579 3.884 6.481 8.674 6.481 4.791 0 8.674-2.902 8.674-6.481 0-3.58-3.884-6.481-8.674-6.481z" fill="#f59689"/><path d="m60.454 175.929h13.186v33.749h-13.186z" fill="#87796f" transform="matrix(.799 -.602 .602 .799 -102.509 79.14)"/><path d="m83.67 201.407-20.319-26.947c-.5-.661-1.44-.793-2.1-.295l-10.532 7.934c-.318.24-.528.596-.583.99-.056.394.048.794.288 1.111l20.318 26.947c.295.391.744.597 1.199.597.315 0 .631-.098.901-.302l10.533-7.934c.318-.24.528-.596.583-.99.055-.393-.048-.793-.288-1.111zm-11.436 6.737-18.512-24.551 8.136-6.129 18.513 24.551z" fill="#3a312a"/><path d="m80.938 186.211h33.749v13.186h-33.749z" fill="#87796f" transform="matrix(.602 -.799 .799 .602 -115.021 154.823)"/><path d="m114.723 183.088c-.055-.394-.265-.75-.583-.99l-10.532-7.934c-.661-.498-1.602-.366-2.1.295l-20.318 26.947c-.24.318-.343.718-.288 1.112s.265.75.583.99l10.532 7.934c.27.204.587.302.901.302.455 0 .904-.206 1.199-.597l20.319-26.947c.239-.318.342-.718.287-1.112zm-22.1 25.056-8.136-6.128 18.513-24.553 8.136 6.129z" fill="#3a312a"/><path d="m135.827 92.378c0-14.866-6.657-28.243-17.274-37.569.341-1.334.633-2.667.868-3.985.56-3.139.667-6.403-.378-9.254-2.053-5.601-3.956 1.336-10.193 6.473-.021-.011-.041-.023-.062-.034.842-2.542.173-5.643-3.409-8.765-8.981-7.828.141-17.159-4.881-15.482-1.587.53-2.956 1.698-4.115 3.018-.913 1.04-1.786 2.178-2.576 3.387-1.245 1.906-2.283 3.989-2.957 6.145-10.212-10.021.879-21.491-5.491-19.364-2.068.691-3.852 2.213-5.363 3.934-1.19 1.355-2.327 2.838-3.357 4.414-2.643 4.043-4.579 8.698-4.893 13.38-.008.119-.009.241-.014.361-15.648-7.582-8.319-25.811-14.851-20.272-2.174 1.844-3.599 4.558-4.596 7.381-.785 2.224-1.445 4.576-1.928 6.989-1.173 5.849-1.292 12.046.293 17.634-16.655-1.015-19.435-19.973-22.541-11.497-1.093 2.982-.981 6.397-.395 9.682.461 2.587 1.116 5.23 1.975 7.835 1.348 4.092 3.204 8.085 5.593 11.63-3.984 7.145-6.25 15.298-6.25 23.959 0 2.982.539 5.205 1.543 7.981.473 1.309 8.119-2.871 8.77-3.329 3.256-2.291 5.916-5.396 7.905-8.829.822-1.427 1.508-2.88 2.06-4.333.362-.954.854-2.26 1.446-3.72 8.982 2.678 19.384 1.123 23.66-7.732 5.435 13.062 23.956 10.934 32.806 2.845 1.065-.974 2.049-2.045 2.975-3.172 2.395 3.896 4.357 9.158 5.352 11.779.552 1.453 1.237 2.906 2.06 4.333 3.285 5.679 8.833 11.086 15.583 12.069.017-.326.428-.437.736-.548 2.209-.802 1.899-5.574 1.899-7.344z" fill="#87796f"/><path d="m137.333 92.953-.006-.575c0-14.365-6.221-28.193-17.101-38.085.259-1.083.484-2.157.671-3.206.712-3.99.566-7.273-.446-10.033-.469-1.281-1.199-2.783-2.69-3.03-1.756-.294-3.039 1.297-4.815 3.495-.722.893-1.543 1.908-2.493 2.934-.373-1.872-1.487-4.072-4.088-6.339-4.743-4.134-3.749-8.626-3.091-11.6.357-1.61.664-3-.356-3.918-.989-.891-2.372-.429-2.894-.255-1.653.552-3.213 1.681-4.768 3.452-.987 1.125-1.897 2.321-2.704 3.556-.881 1.349-1.627 2.721-2.229 4.103-3.6-4.798-2.527-9.665-1.789-13.012.45-2.041.805-3.652-.327-4.671-1.093-.983-2.713-.443-3.323-.239-2.076.693-4.044 2.122-6.014 4.366-1.272 1.449-2.445 2.991-3.486 4.583-2.622 4.011-4.301 8.173-4.917 12.152-6.675-4.184-7.754-10.678-8.487-15.098-.44-2.647-.757-4.56-2.375-5.153-1.378-.506-2.697.399-3.693 1.245-2.119 1.797-3.767 4.422-5.04 8.026-.832 2.357-1.5 4.778-1.984 7.194-1.152 5.744-1.216 11.294-.202 16.199-7.323-1.223-11.443-6.315-14.249-9.782-1.844-2.28-3.173-3.927-4.973-3.629-1.525.253-2.277 1.804-2.762 3.127-1.055 2.877-1.207 6.299-.464 10.462.488 2.734 1.169 5.44 2.026 8.04 1.363 4.136 3.134 7.91 5.27 11.233-3.929 7.354-6.002 15.593-6.002 23.887 0 3.31.625 5.703 1.632 8.49.195.542.635.955 1.206 1.135.187.059.404.086.646.086 2.854 0 9.131-3.789 9.193-3.833 3.258-2.293 6.142-5.511 8.341-9.308.847-1.471 1.574-3.001 2.162-4.549l.085-.225c.238-.627.525-1.386.856-2.228 8.161 2.028 17.631.7 22.675-6.431 2.324 3.721 5.95 6.202 10.627 7.238 7.722 1.71 17.294-.916 23.279-6.386.574-.525 1.14-1.089 1.708-1.702 1.78 3.339 3.247 7.207 4.096 9.447l.109.287c.588 1.548 1.315 3.078 2.164 4.551 4.103 7.094 10.333 11.88 16.664 12.803.419.06.842-.057 1.169-.325.104-.085.193-.182.27-.289.014-.005.024-.008.025-.009 2.997-1.09 2.93-5.703 2.894-8.181zm-3.997 5.387c-.148.052-.413.146-.688.314-5.174-1.059-10.263-5.191-13.74-11.201-.768-1.333-1.426-2.718-1.958-4.117l-.108-.286c-1.042-2.749-2.983-7.867-5.368-11.747-.254-.413-.692-.678-1.175-.711-.48-.03-.953.17-1.261.544-.961 1.17-1.887 2.157-2.829 3.018-5.223 4.774-13.891 7.156-20.606 5.671-3.256-.722-7.6-2.692-9.803-7.985-.227-.545-.753-.907-1.343-.923-.59-.013-1.136.316-1.392.847-4.197 8.689-14.411 9.174-21.881 6.947-.739-.221-1.528.158-1.818.874-.552 1.361-1.018 2.589-1.373 3.527l-.085.224c-.531 1.399-1.19 2.784-1.955 4.113-1.981 3.42-4.565 6.31-7.466 8.352-.896.608-5.027 2.73-6.793 3.213-.724-2.139-1.16-4.09-1.161-6.636 0-8.087 2.096-16.119 6.06-23.229.275-.494.25-1.1-.066-1.569-2.209-3.277-4.03-7.065-5.412-11.261-.813-2.467-1.46-5.033-1.923-7.628-.646-3.626-.539-6.538.327-8.903.196-.533.357-.854.47-1.041.521.426 1.393 1.503 2.116 2.398 3.183 3.933 8.509 10.515 18.455 11.121.493.032.955-.178 1.26-.557s.407-.882.274-1.35c-1.403-4.944-1.495-10.798-.265-16.929.457-2.278 1.087-4.56 1.872-6.785 1.091-3.089 2.45-5.292 4.152-6.737.277-.235.489-.39.645-.491.189.599.37 1.688.522 2.603.845 5.094 2.26 13.618 12.059 18.366.454.22.99.196 1.424-.063.434-.26.708-.721.728-1.227l.012-.322c.271-4.04 1.879-8.417 4.652-12.659.963-1.474 2.049-2.902 3.229-4.245 1.61-1.834 3.151-2.979 4.71-3.5.023-.008.045-.015.066-.022-.073.432-.192.969-.296 1.441-.854 3.872-2.443 11.078 4.195 17.592.373.365.91.511 1.416.384.507-.127.911-.509 1.066-1.007.603-1.929 1.538-3.871 2.78-5.772.73-1.116 1.554-2.199 2.448-3.218 1.01-1.15 1.976-1.932 2.937-2.376-.034.159-.069.32-.103.471-.711 3.217-2.036 9.205 4.049 14.509 2.712 2.364 3.739 4.841 2.971 7.162-.228.688.13 1.474.765 1.821.54.296 1.202.233 1.674-.158 2.364-1.947 4.09-4.082 5.476-5.796.662-.819 1.456-1.801 1.952-2.232.102.181.24.468.404.914.824 2.249.925 5.021.31 8.475-.225 1.262-.509 2.566-.844 3.877-.14.547.039 1.126.463 1.498 10.654 9.359 16.764 22.642 16.764 36.442l.007.618c.062 4.316-.549 5.185-.998 5.347z" fill="#3a312a"/><path d="m96.614 135.849c-.773-.289-1.64.102-1.931.879-1.023 2.73-5.026 7.894-12.85 7.894-6.113 0-10.333-2.621-12.901-8.013-.356-.748-1.251-1.064-2-.71-.748.357-1.065 1.252-.709 2 3.073 6.452 8.325 9.723 15.61 9.723 8.225 0 13.883-5.102 15.66-9.842.29-.776-.103-1.64-.879-1.931z" fill="#3a312a"/><path d="m117.801 183.217h-4.68l.12.08-20.32 26.95-10.49-7.9-10.49 7.9-20.33-26.95.13-.08h-5.87c-1.71 0-3.4.15-5.03.43v55.93h83.17v-55.7c-2-.429-4.08-.66-6.21-.66z" fill="#ef6d7a"/><path d="m124.326 182.411c-2.14-.46-4.336-.694-6.525-.694h-4.68c-.661 0-1.244.433-1.436 1.065-.013.043-.024.087-.033.131l-19.026 25.234-9.292-6.998c-.534-.402-1.271-.402-1.805 0l-9.292 6.998-19.023-25.217c-.008-.041-.018-.082-.029-.123-.183-.646-.773-1.091-1.443-1.091h-5.87c-1.759 0-3.537.152-5.284.452-.72.124-1.246.748-1.246 1.479v23.322c0 .829.671 1.5 1.5 1.5s1.5-.671 1.5-1.5v-22.029c1.174-.148 2.357-.223 3.53-.223h4.933l19.941 26.434c.498.662 1.439.793 2.1.295l9.587-7.22 9.588 7.22c.662.498 1.602.366 2.1-.295l19.93-26.433h3.752c1.576 0 3.155.134 4.71.398v52.962h-80.17v-17.047c0-.829-.671-1.5-1.5-1.5s-1.5.671-1.5 1.5v18.547c0 .829.671 1.5 1.5 1.5h83.17c.829 0 1.5-.671 1.5-1.5v-55.7c-.002-.708-.496-1.318-1.187-1.467z" fill="#3a312a"/><path d="m191.493 109.575c-8.687 0-16.829 2.309-23.869 6.329l-10.83 8.427c-8.364 8.671-13.517 20.46-13.517 33.459 0 26.629 21.587 48.215 48.215 48.215 26.629 0 48.215-21.587 48.215-48.215.001-26.628-21.585-48.215-48.214-48.215z" fill="#ef6d7a"/><path d="m191.493 108.075c-8.625 0-17.136 2.257-24.612 6.526-.719.411-.97 1.327-.559 2.046.412.721 1.327.968 2.047.559 7.023-4.012 15.02-6.132 23.124-6.132 25.758 0 46.715 20.957 46.716 46.715 0 25.759-20.957 46.715-46.716 46.715s-46.715-20.957-46.715-46.715c0-12.148 4.651-23.661 13.097-32.417.574-.597.558-1.546-.039-2.121-.595-.574-1.544-.558-2.121.038-8.987 9.319-13.937 21.571-13.937 34.5 0 27.413 22.302 49.715 49.715 49.715s49.716-22.302 49.716-49.715c-.001-27.412-22.304-49.714-49.716-49.714z" fill="#3a312a"/><path d="m226.48 26.102c-.974 11.564-13.031 13.389-13.031 13.389 10.352.487 12.932 14.059 12.932 14.059.221-9.677 13.328-14.202 13.328-14.202-9.819-.587-13.229-13.246-13.229-13.246z" fill="#d7e057"/><path d="m239.799 37.851c-8.61-.515-11.839-12.025-11.87-12.141-.191-.702-.851-1.162-1.584-1.102-.725.066-1.298.642-1.359 1.367-.86 10.215-11.32 11.963-11.762 12.033-.763.115-1.313.79-1.273 1.56s.657 1.384 1.428 1.421c9.034.425 11.506 12.718 11.529 12.842.138.711.76 1.217 1.473 1.217.042 0 .084-.002.126-.005.765-.064 1.357-.693 1.375-1.459.193-8.509 12.198-12.777 12.319-12.819.675-.235 1.092-.914.994-1.623-.098-.707-.682-1.248-1.396-1.291zm-13.573 10.347c-1.357-3.13-3.711-6.908-7.592-8.878 2.933-1.405 6.413-3.913 8.207-8.274 1.552 3.071 4.201 6.881 8.339 8.724-3.01 1.64-6.927 4.406-8.954 8.428z" fill="#3a312a"/><path d="m204.77 43.083c-.689 8.179-9.217 9.47-9.217 9.47 7.322.344 9.147 9.944 9.147 9.944.156-6.844 9.427-10.045 9.427-10.045-6.945-.415-9.357-9.369-9.357-9.369z" fill="#d7e057"/><path d="m214.217 50.955c-5.771-.345-7.978-8.186-8-8.265-.19-.702-.862-1.164-1.581-1.102-.726.065-1.3.643-1.361 1.368-.578 6.871-7.65 8.067-7.946 8.114-.763.115-1.313.79-1.273 1.561.04.77.657 1.384 1.428 1.421 6.039.284 7.729 8.644 7.744 8.726.136.712.759 1.22 1.473 1.22.041 0 .083-.001.125-.005.765-.063 1.358-.694 1.376-1.461.13-5.708 8.335-8.633 8.416-8.661.677-.234 1.094-.913.997-1.622-.099-.71-.684-1.251-1.398-1.294zm-9.59 6.795c-.924-1.886-2.341-3.948-4.45-5.281 1.857-1.042 3.699-2.63 4.873-4.917 1.058 1.874 2.656 3.956 4.945 5.225-1.851 1.101-3.991 2.741-5.368 4.973z" fill="#3a312a"/><path d="m204.77 16.425c-.689 8.179-9.217 9.471-9.217 9.471 7.322.344 9.147 9.944 9.147 9.944.156-6.844 9.427-10.045 9.427-10.045-6.945-.416-9.357-9.37-9.357-9.37z" fill="#d7e057"/><path d="m214.217 24.297c-5.771-.345-7.978-8.186-8-8.265-.19-.702-.862-1.163-1.581-1.102-.726.065-1.3.643-1.361 1.368-.578 6.871-7.65 8.067-7.946 8.114-.763.115-1.313.79-1.273 1.56.04.771.657 1.385 1.428 1.421 6.039.284 7.729 8.644 7.744 8.726.136.712.759 1.22 1.473 1.22.041 0 .083-.001.125-.005.765-.063 1.358-.694 1.376-1.461.13-5.709 8.336-8.634 8.416-8.662.677-.234 1.094-.913.997-1.622-.099-.708-.684-1.249-1.398-1.292zm-9.59 6.796c-.924-1.886-2.341-3.948-4.45-5.281 1.857-1.042 3.699-2.63 4.874-4.918 1.058 1.874 2.655 3.955 4.944 5.225-1.851 1.102-3.991 2.741-5.368 4.974z" fill="#3a312a"/><path d="m230.082 142.984c-.586-.586-1.535-.586-2.121 0l-26.741 26.741-26.806-26.807c-.563-.563-1.559-.563-2.121 0l-27.951 27.951c-.586.586-.586 1.536 0 2.121.293.293.677.44 1.06.44.384 0 .768-.146 1.061-.44l26.891-26.89 26.806 26.807c.563.563 1.559.563 2.121 0l27.802-27.802c.585-.585.585-1.535-.001-2.121z" fill="#3a312a"/><path d="m229.021 142.545h-21.42c-.828 0-1.5.671-1.5 1.5s.672 1.5 1.5 1.5h19.92v19.919c0 .829.672 1.5 1.5 1.5s1.5-.671 1.5-1.5v-21.419c0-.829-.671-1.5-1.5-1.5z" fill="#3a312a"/><path d="m220.138 145.54c.37 1.42.68 2.87.92 4.34l4.34-4.34z" fill="#d34e5c"/><path d="m191.498 111.08c-1.69 0-3.36.09-5 .27 15.41 4.3 27.71 16.08 32.75 31.19h9.77c.2 0 .38.04.55.11.01 0 .02.01.02.01.37.15.67.45.82.81 0 .01 0 .02.01.03.06.17.1.35.1.54v21.42c0 .83-.67 1.5-1.5 1.5-.82 0-1.5-.67-1.5-1.5v-17.79l-5.99 5.99c.12 1.36.18 2.74.18 4.13 0 22.13-14.9 40.77-35.21 46.44 1.64.19 3.3.28 4.99.28 25.76 0 46.72-20.96 46.72-46.72s-20.96-46.71-46.71-46.71z" fill="#d34e5c"/></svg>