<svg id="Layer_1" enable-background="new 0 0 256 256" height="512" viewBox="0 0 256 256" width="512" xmlns="http://www.w3.org/2000/svg"><path d="m117.93 183.18h-19.54v-12.693c-5.405 3.745-10.997 5.955-16.424 5.955-5.206 0-10.699-2.231-16.081-6.021h-.331v12.76h-19.553c-16.335 0-29.576 13.233-29.576 29.56v26.788h131.08v-26.789c0-16.327-13.24-29.56-29.575-29.56z" fill="#fae6ca"/><path d="m117.93 181.68h-18.04v-11.193c0-.558-.31-1.07-.804-1.329-.495-.258-1.091-.222-1.55.096-5.446 3.774-10.684 5.688-15.569 5.688-4.681 0-9.801-1.934-15.218-5.747-.253-.178-.554-.273-.863-.273h-.331c-.829 0-1.5.672-1.5 1.5v11.26h-18.053c-17.135 0-31.076 13.934-31.076 31.06v26.788c0 .828.671 1.5 1.5 1.5h44.913c.829 0 1.5-.672 1.5-1.5s-.671-1.5-1.5-1.5h-43.413v-25.288c0-15.472 12.595-28.06 28.076-28.06h19.552c.829 0 1.5-.672 1.5-1.5v-10.178c5.204 3.279 10.211 4.938 14.913 4.938 4.779 0 9.789-1.576 14.923-4.691v9.931c0 .828.671 1.5 1.5 1.5h19.54c15.481 0 28.076 12.588 28.076 28.06v25.288h-69.893c-.829 0-1.5.672-1.5 1.5s.671 1.5 1.5 1.5h71.392c.829 0 1.5-.672 1.5-1.5v-26.788c0-17.129-13.94-31.062-31.075-31.062z" fill="#3a312a"/><path d="m117.93 183.171h-4.675l.122.088-20.325 26.943-10.489-7.898-10.489 7.898-20.325-26.943.121-.088h-5.869c-16.335 0-29.576 13.233-29.576 29.56v26.799h131.08v-26.799c.001-16.327-13.24-29.56-29.575-29.56z" fill="#d6df58"/><path d="m117.93 181.671h-4.675c-.65 0-1.227.419-1.427 1.038-.018.057-.033.113-.044.171l-19.027 25.223-9.291-6.997c-.534-.402-1.271-.402-1.805 0l-9.291 6.997-19.028-25.223c-.011-.058-.026-.114-.044-.171-.2-.619-.777-1.038-1.427-1.038h-5.869c-17.135 0-31.076 13.934-31.076 31.061v26.799c0 .828.671 1.5 1.5 1.5h44.913c.829 0 1.5-.672 1.5-1.5s-.671-1.5-1.5-1.5h-43.413v-25.299c0-15.473 12.595-28.061 28.076-28.061h4.934l19.942 26.435c.498.661 1.439.792 2.1.295l9.586-7.219 9.586 7.219c.662.497 1.602.366 2.1-.295l19.941-26.435h3.74c15.481 0 28.076 12.588 28.076 28.061v25.299h-69.894c-.829 0-1.5.672-1.5 1.5s.671 1.5 1.5 1.5h71.393c.829 0 1.5-.672 1.5-1.5v-26.799c0-17.128-13.941-31.061-31.076-31.061z" fill="#3a312a"/><ellipse clip-rule="evenodd" cx="31.18" cy="109.9" fill="#fae6ca" fill-rule="evenodd" rx="11.631" ry="11.637" transform="matrix(.003 -1 1 .003 -78.798 140.804)"/><path d="m31.18 96.769c-7.244 0-13.138 5.891-13.138 13.132s5.893 13.132 13.138 13.132c7.244 0 13.137-5.891 13.137-13.132s-5.893-13.132-13.137-13.132zm0 23.263c-5.59 0-10.138-4.545-10.138-10.132s4.548-10.131 10.138-10.131 10.137 4.545 10.137 10.132-4.547 10.131-10.137 10.131z" fill="#3a312a"/><ellipse clip-rule="evenodd" cx="132.755" cy="109.9" fill="#fae6ca" fill-rule="evenodd" rx="11.631" ry="11.637" transform="matrix(.001 -1 1 .001 22.689 242.518)"/><path d="m132.754 96.769c-7.244 0-13.137 5.891-13.137 13.132s5.894 13.132 13.137 13.132c7.244 0 13.138-5.891 13.138-13.132s-5.894-13.132-13.138-13.132zm0 23.263c-5.59 0-10.137-4.545-10.137-10.132s4.547-10.132 10.137-10.132 10.138 4.545 10.138 10.132-4.548 10.132-10.138 10.132z" fill="#3a312a"/><path d="m81.967 52.691c-28.492 0-51.59 23.086-51.59 51.563s28.538 72.188 51.59 72.188c24.149 0 51.59-43.711 51.59-72.188s-23.097-51.563-51.59-51.563z" fill="#fae6ca"/><path d="m81.967 51.191c-29.274 0-53.09 23.804-53.09 53.063 0 13.838 6.674 32.087 17.417 47.626 11.282 16.319 24.618 26.063 35.673 26.063 11.638 0 24.793-9.502 36.09-26.07 10.486-15.377 17-33.624 17-47.618 0-29.26-23.816-53.064-53.09-53.064zm33.612 98.992c-10.572 15.504-23.137 24.76-33.612 24.76-10.07 0-22.483-9.259-33.205-24.769-10.415-15.063-16.885-32.659-16.885-45.92 0-27.604 22.47-50.063 50.09-50.063s50.09 22.458 50.09 50.063c0 13.424-6.314 31.022-16.478 45.929z" fill="#3a312a"/><path d="m63.753 98.639c-2.781 0-5.035 2.253-5.035 5.033s2.254 5.033 5.035 5.033 5.035-2.253 5.035-5.033c.001-2.779-2.254-5.033-5.035-5.033z" fill="#3a312a"/><path d="m100.181 98.639c-2.781 0-5.035 2.253-5.035 5.033s2.254 5.033 5.035 5.033 5.036-2.253 5.036-5.033c0-2.779-2.254-5.033-5.036-5.033z" fill="#3a312a"/><path d="m53.689 112.154c-4.79 0-8.674 2.901-8.674 6.481s3.884 6.481 8.674 6.481c4.791 0 8.674-2.902 8.674-6.481s-3.883-6.481-8.674-6.481z" fill="#f59689"/><path d="m110.245 112.154c-4.791 0-8.674 2.901-8.674 6.481s3.884 6.481 8.674 6.481 8.674-2.902 8.674-6.481-3.883-6.481-8.674-6.481z" fill="#f59689"/><path d="m135.96 92.336c0-28.181-23.907-51.025-53.398-51.025s-53.397 22.844-53.397 51.025c0 2.982.539 5.205 1.543 7.981.473 1.309 8.119-2.872 8.77-3.33 3.256-2.291 5.916-5.396 7.905-8.829.822-1.428 1.508-2.88 2.06-4.333 1.76-4.635 6.542-17.533 11.398-16.521 6.512 1.357 13.892 2.124 21.721 2.124s15.21-.767 21.722-2.124c4.856-1.012 9.638 11.886 11.398 16.521.552 1.453 1.237 2.905 2.06 4.333 3.285 5.679 8.833 11.085 15.583 12.069.017-.326.428-.437.736-.548 2.209-.801 1.899-5.573 1.899-7.343z" fill="#87796f"/><path d="m137.466 92.911-.006-.575c0-28.963-24.627-52.525-54.898-52.525s-54.897 23.563-54.897 52.526c0 3.311.625 5.703 1.632 8.489.196.542.635.956 1.206 1.136.187.06.404.087.646.087 2.854 0 9.13-3.79 9.192-3.834 3.259-2.293 6.143-5.511 8.341-9.307.848-1.473 1.576-3.004 2.162-4.55l.113-.297c5.286-13.937 8.264-15.555 9.578-15.287 6.863 1.43 14.274 2.154 22.027 2.154s15.165-.725 22.028-2.154c1.312-.285 4.293 1.352 9.579 15.292l.111.292c.588 1.549 1.315 3.079 2.164 4.552 4.103 7.094 10.333 11.88 16.665 12.803.421.063.843-.058 1.168-.325.103-.085.193-.182.269-.288.014-.005.025-.009.027-.009 2.997-1.089 2.93-5.701 2.893-8.18zm-3.986 5.384c-.151.053-.42.146-.698.316-5.174-1.059-10.263-5.19-13.74-11.201-.767-1.332-1.426-2.717-1.957-4.116l-.11-.291c-3.455-9.108-7.713-18.261-12.996-17.166-6.663 1.388-13.868 2.092-21.416 2.092s-14.753-.704-21.415-2.092c-5.298-1.087-9.541 8.056-12.995 17.161l-.112.296c-.53 1.397-1.188 2.782-1.955 4.113-1.981 3.421-4.564 6.31-7.466 8.352-.896.607-5.027 2.73-6.793 3.213-.724-2.138-1.161-4.089-1.161-6.635 0-27.309 23.281-49.526 51.897-49.526 28.617 0 51.898 22.217 51.898 49.525l.006.619c.063 4.312-.548 5.182-.987 5.34z" fill="#3a312a"/><path d="m60.587 175.887h13.186v33.749h-13.186z" fill="#87796f" transform="matrix(.799 -.602 .602 .799 -102.454 79.208)"/><path d="m83.803 201.364-20.318-26.946c-.5-.661-1.44-.791-2.1-.295l-10.533 7.934c-.318.239-.528.596-.583.989-.056.395.048.794.288 1.112l20.319 26.946c.295.391.744.597 1.199.597.315 0 .631-.099.901-.302l10.532-7.934c.318-.239.528-.596.583-.989.056-.394-.048-.793-.288-1.112zm-11.435 6.737-18.512-24.551 8.137-6.128 18.512 24.551z" fill="#3a312a"/><path d="m81.071 186.168h33.749v13.186h-33.749z" fill="#87796f" transform="matrix(.602 -.799 .799 .602 -114.934 154.913)"/><path d="m114.856 183.046c-.055-.394-.265-.75-.583-.989l-10.532-7.934c-.661-.496-1.602-.366-2.1.295l-20.319 26.946c-.24.318-.343.718-.288 1.112s.265.75.583.989l10.532 7.934c.27.203.587.302.901.302.455 0 .904-.206 1.199-.597l20.319-26.946c.241-.318.344-.718.288-1.112zm-22.099 25.055-8.136-6.128 18.513-24.551 8.136 6.128z" fill="#3a312a"/><path d="m40.979 216.857c-.829 0-1.5.672-1.5 1.5v21.173c0 .828.671 1.5 1.5 1.5s1.5-.672 1.5-1.5v-21.173c0-.828-.672-1.5-1.5-1.5z" fill="#3a312a"/><path d="m124.147 216.857c-.829 0-1.5.672-1.5 1.5v21.173c0 .828.671 1.5 1.5 1.5s1.5-.672 1.5-1.5v-21.173c0-.828-.671-1.5-1.5-1.5z" fill="#3a312a"/><path d="m81.966 16.635c-1.5 0-40.5 16.865-40.5 31.5 0 14.636 18.133 26.5 40.5 26.5s40.5-11.864 40.5-26.5c0-14.635-40-31.5-40.5-31.5z" fill="#87796f"/><path d="m103.176 25.611c-9.394-5.644-20.313-10.476-21.21-10.476-2.069 0-42 17.189-42 33 0 15.439 18.841 28 42 28s42-12.561 42-28c0-6.657-6.995-14.236-20.79-22.524zm-21.21 47.525c-21.505 0-39-11.215-39-25 0-12.698 34.288-28.569 38.922-29.944 4.641 1.726 39.078 17.49 39.078 29.944 0 13.785-17.495 25-39 25z" fill="#3a312a"/><path d="m194.853 16.47c-12.051 0-22.98 4.197-31.022 11.008l-9.648 11.953c-2.594 4.977-4.051 10.508-4.051 16.341 0 9.912 4.185 18.961 11.075 25.875l-7.066 17.797c-.678 1.706.945 3.428 2.69 2.854l26.205-8.622c3.766.905 7.725 1.397 11.818 1.397 24.699 0 44.721-17.596 44.721-39.302-.001-21.706-20.023-39.301-44.722-39.301z" fill="#8ac6dd"/><g fill="#3a312a"><path d="m194.854 14.97c-11.979 0-23.34 4.035-31.992 11.363-.632.535-.711 1.481-.175 2.114.535.632 1.483.712 2.114.175 8.11-6.869 18.784-10.652 30.053-10.652 23.832 0 43.221 16.958 43.221 37.802s-19.389 37.802-43.221 37.802c-3.867 0-7.725-.456-11.467-1.355-.271-.066-.554-.053-.819.033l-26.205 8.621c-.349.113-.584-.061-.693-.176-.108-.115-.269-.358-.134-.699l7.066-17.797c.221-.556.09-1.189-.332-1.612-6.86-6.884-10.638-15.697-10.638-24.816 0-5.441 1.306-10.706 3.881-15.647.383-.734.098-1.641-.637-2.023s-1.64-.098-2.023.637c-2.801 5.374-4.221 11.105-4.221 17.034 0 9.606 3.835 18.882 10.822 26.225l-6.708 16.894c-.53 1.336-.248 2.816.738 3.863.709.753 1.664 1.157 2.653 1.156.386 0 .777-.062 1.161-.188l25.803-8.489c3.841.89 7.792 1.341 11.751 1.341 25.486 0 46.221-18.304 46.221-40.802s-20.733-40.804-46.219-40.804z"/><path d="m219.213 36.341h-47.305c-.829 0-1.5.672-1.5 1.5s.671 1.5 1.5 1.5h47.305c.829 0 1.5-.672 1.5-1.5s-.671-1.5-1.5-1.5z"/><path d="m224.127 51.559h-58.906c-.829 0-1.5.672-1.5 1.5s.671 1.5 1.5 1.5h58.906c.829 0 1.5-.672 1.5-1.5s-.672-1.5-1.5-1.5z"/><path d="m219.213 66.776h-47.305c-.829 0-1.5.672-1.5 1.5s.671 1.5 1.5 1.5h47.305c.829 0 1.5-.672 1.5-1.5s-.671-1.5-1.5-1.5z"/></g><path d="m194.424 17.965c-3.23 0-6.42.31-9.51.92 11.67 2.29 21.58 8.74 27.57 17.46h6.3c.83 0 1.5.67 1.5 1.5 0 .82-.67 1.5-1.5 1.5h-4.44c2.09 3.77 3.48 7.88 4.03 12.21h5.32c.83 0 1.5.67 1.5 1.5s-.67 1.5-1.5 1.5h-5.07c.01.4.02.81.02 1.22 0 3.82-.65 7.52-1.87 11h2.01c.83 0 1.5.67 1.5 1.5s-.67 1.5-1.5 1.5h-3.21c-5.23 11.42-16.65 20.11-30.62 22.87 3.11.62 6.28.93 9.47.93 23.83 0 43.22-16.96 43.22-37.8 0-20.85-19.39-37.81-43.22-37.81z" fill="#6ca8bf"/><ellipse cx="81.871" cy="138.844" fill="#f16c7a" rx="7.055" ry="7.055" transform="matrix(.099 -.995 .995 .099 -64.365 206.635)"/><path d="m81.871 130.288c-4.717 0-8.555 3.838-8.555 8.556s3.838 8.556 8.555 8.556 8.555-3.838 8.555-8.556-3.838-8.556-8.555-8.556zm0 14.111c-3.063 0-5.555-2.492-5.555-5.556s2.492-5.556 5.555-5.556 5.555 2.492 5.555 5.556-2.492 5.556-5.555 5.556z" fill="#3a312a"/><path d="m192.279 136.877c-.974 11.564-13.031 13.39-13.031 13.39 10.352.487 12.932 14.059 12.932 14.059.221-9.677 13.328-14.202 13.328-14.202-9.819-.587-13.229-13.247-13.229-13.247z" fill="#d7e057"/><path d="m205.598 148.627c-8.61-.516-11.839-12.025-11.871-12.142-.191-.703-.86-1.159-1.583-1.102-.725.066-1.298.642-1.359 1.367-.86 10.216-11.32 11.964-11.761 12.032-.762.116-1.313.791-1.273 1.561.04.771.657 1.385 1.428 1.421 9.033.426 11.505 12.72 11.529 12.844.137.711.759 1.217 1.472 1.217.042 0 .084-.002.126-.005.764-.064 1.357-.693 1.375-1.46.195-8.508 12.198-12.776 12.319-12.819.676-.234 1.092-.914.995-1.622-.1-.708-.683-1.249-1.397-1.292zm-13.574 10.347c-1.357-3.13-3.71-6.908-7.591-8.878 2.933-1.405 6.413-3.914 8.206-8.274 1.551 3.071 4.202 6.881 8.339 8.724-3.008 1.64-6.926 4.405-8.954 8.428z" fill="#3a312a"/><path d="m170.569 153.858c-.689 8.179-9.217 9.47-9.217 9.47 7.322.345 9.147 9.944 9.147 9.944.156-6.844 9.427-10.045 9.427-10.045-6.944-.415-9.357-9.369-9.357-9.369z" fill="#d7e057"/><path d="m180.016 161.73c-5.77-.346-7.978-8.187-7.999-8.266-.19-.702-.858-1.168-1.582-1.102-.726.065-1.299.643-1.36 1.368-.579 6.871-7.651 8.066-7.947 8.113-.762.116-1.313.791-1.273 1.561.04.771.657 1.385 1.428 1.421 6.039.284 7.728 8.645 7.744 8.727.135.713.759 1.22 1.472 1.22.042 0 .083-.002.125-.005.765-.063 1.358-.693 1.376-1.461.13-5.709 8.337-8.633 8.417-8.661.677-.233 1.094-.913.997-1.622-.099-.709-.683-1.25-1.398-1.293zm-9.59 6.795c-.925-1.886-2.341-3.947-4.45-5.28 1.856-1.041 3.699-2.631 4.873-4.918 1.058 1.874 2.656 3.956 4.944 5.226-1.85 1.1-3.99 2.74-5.367 4.972z" fill="#3a312a"/><path d="m170.569 127.2c-.689 8.179-9.217 9.471-9.217 9.471 7.322.345 9.147 9.944 9.147 9.944.156-6.845 9.427-10.045 9.427-10.045-6.944-.416-9.357-9.37-9.357-9.37z" fill="#d7e057"/><path d="m180.016 135.073c-5.77-.346-7.978-8.187-7.999-8.266-.19-.702-.858-1.167-1.582-1.102-.726.065-1.299.643-1.36 1.368-.579 6.871-7.651 8.066-7.947 8.113-.762.116-1.313.791-1.273 1.561.04.771.657 1.385 1.428 1.421 6.039.284 7.728 8.645 7.744 8.727.135.713.759 1.22 1.473 1.22.041 0 .083-.002.125-.005.765-.063 1.358-.693 1.376-1.461.13-5.709 8.337-8.633 8.417-8.661.677-.233 1.094-.913.997-1.622-.1-.709-.684-1.25-1.399-1.293zm-9.59 6.795c-.925-1.886-2.341-3.947-4.45-5.28 1.856-1.041 3.699-2.631 4.873-4.918 1.058 1.874 2.656 3.956 4.944 5.226-1.85 1.1-3.99 2.74-5.367 4.972z" fill="#3a312a"/></svg>