<svg id="Layer_1" enable-background="new 0 0 256 256" height="512" viewBox="0 0 256 256" width="512" xmlns="http://www.w3.org/2000/svg"><path d="m222.395 16.135h-188.79c-9.447 0-17.105 7.659-17.105 17.105v130.29c0 9.447 7.658 17.105 17.105 17.105h188.789c9.447 0 17.105-7.658 17.105-17.105v-130.289c.001-9.447-7.657-17.106-17.104-17.106z" fill="#87796f"/><path d="m222.395 14.636h-188.79c-10.258 0-18.605 8.346-18.605 18.605v130.289c0 10.259 8.347 18.605 18.605 18.605h188.789c10.259 0 18.605-8.347 18.605-18.605v-130.289c.001-10.259-8.346-18.605-18.604-18.605zm15.605 148.894c0 8.604-7.001 15.605-15.605 15.605h-188.79c-8.604 0-15.605-7.001-15.605-15.605v-130.289c0-8.604 7.001-15.605 15.605-15.605h188.789c8.604 0 15.605 7.001 15.605 15.605v130.289z" fill="#3a312a"/><path d="m214.969 28.635h-173.938c-6.583 0-11.92 5.337-11.92 11.92v115.66c0 6.583 5.337 11.92 11.92 11.92h173.938c6.583 0 11.92-5.336 11.92-11.92v-115.66c0-6.583-5.337-11.92-11.92-11.92z" fill="#fae6ca"/><path d="m214.969 27.136h-115.17c-.828 0-1.5.672-1.5 1.5s.672 1.5 1.5 1.5h115.17c5.745 0 10.42 4.675 10.42 10.42v115.66c0 5.745-4.675 10.42-10.42 10.42h-173.938c-5.745 0-10.42-4.675-10.42-10.42v-115.66c0-5.745 4.675-10.42 10.42-10.42h45.17c.828 0 1.5-.672 1.5-1.5s-.672-1.5-1.5-1.5h-45.17c-7.399 0-13.42 6.021-13.42 13.42v115.66c0 7.399 6.021 13.42 13.42 13.42h173.938c7.399 0 13.42-6.021 13.42-13.42v-115.66c0-7.4-6.021-13.42-13.42-13.42z" fill="#3a312a"/><path d="m113.688 180.635h28.625v35.593h-28.625z" fill="#87796f"/><path d="m142.313 179.136h-28.625c-.828 0-1.5.672-1.5 1.5v35.593c0 .828.672 1.5 1.5 1.5h28.625c.828 0 1.5-.672 1.5-1.5v-35.593c0-.828-.672-1.5-1.5-1.5zm-1.5 35.593h-25.625v-32.593h25.625z" fill="#3a312a"/><path d="m148.296 216.229h-40.593c-12.927 0-23.407 10.479-23.407 23.407h87.406c.001-12.928-10.478-23.407-23.406-23.407z" fill="#87796f"/><path d="m148.297 214.729h-40.594c-13.733 0-24.906 11.173-24.906 24.907 0 .828.672 1.5 1.5 1.5h37.584c.828 0 1.5-.672 1.5-1.5s-.672-1.5-1.5-1.5h-36.033c.773-11.383 10.28-20.407 21.855-20.407h40.594c11.575 0 21.082 9.024 21.855 20.407h-34.701c-.828 0-1.5.672-1.5 1.5s.672 1.5 1.5 1.5h36.252c.828 0 1.5-.672 1.5-1.5 0-13.735-11.173-24.907-24.906-24.907z" fill="#3a312a"/><path d="m47.671 203.469c-.974 11.564-13.025 13.39-13.025 13.39 10.346.487 12.925 14.059 12.925 14.059.221-9.677 13.321-14.202 13.321-14.202-9.813-.587-13.221-13.247-13.221-13.247z" fill="#d6df58"/><path d="m60.982 215.219c-8.604-.515-11.832-12.024-11.863-12.141-.19-.702-.849-1.156-1.584-1.102-.725.066-1.298.642-1.359 1.367-.859 10.215-11.313 11.963-11.754 12.031-.763.116-1.313.791-1.273 1.561.04.771.657 1.385 1.428 1.421 9.028.426 11.499 12.719 11.522 12.844.138.711.76 1.217 1.473 1.217.042 0 .084-.002.126-.005.765-.064 1.357-.693 1.375-1.46.193-8.509 12.19-12.777 12.312-12.819.676-.234 1.092-.914.994-1.622-.1-.709-.683-1.25-1.397-1.292zm-13.565 10.345c-1.357-3.131-3.709-6.908-7.587-8.877 2.931-1.404 6.408-3.913 8.201-8.272 1.551 3.071 4.2 6.88 8.334 8.723-3.007 1.639-6.922 4.405-8.948 8.426z" fill="#3a312a"/><path d="m25.972 220.45c-.689 8.179-9.212 9.471-9.212 9.471 7.318.344 9.142 9.944 9.142 9.944.156-6.845 9.422-10.045 9.422-10.045-6.941-.416-9.352-9.37-9.352-9.37z" fill="#d6df58"/><path d="m35.414 228.322c-5.767-.345-7.972-8.186-7.993-8.265-.19-.701-.866-1.158-1.582-1.102-.726.065-1.3.643-1.361 1.368-.579 6.87-7.646 8.066-7.942 8.113-.763.116-1.313.791-1.273 1.561.04.771.657 1.385 1.428 1.421 6.035.284 7.724 8.644 7.739 8.726.136.713.759 1.22 1.473 1.22.041 0 .083-.002.125-.005.765-.063 1.358-.693 1.376-1.461.13-5.708 8.331-8.633 8.412-8.661.676-.234 1.093-.913.996-1.622-.099-.709-.684-1.251-1.398-1.293zm-9.585 6.795c-.924-1.886-2.34-3.947-4.447-5.28 1.856-1.041 3.697-2.63 4.871-4.916 1.057 1.874 2.654 3.955 4.941 5.224-1.85 1.1-3.989 2.74-5.365 4.972z" fill="#3a312a"/><path d="m25.972 193.792c-.689 8.179-9.212 9.47-9.212 9.47 7.318.345 9.142 9.944 9.142 9.944.156-6.844 9.422-10.045 9.422-10.045-6.941-.414-9.352-9.369-9.352-9.369z" fill="#d6df58"/><path d="m35.414 201.665c-5.767-.345-7.972-8.187-7.993-8.266-.19-.702-.866-1.156-1.582-1.102-.726.065-1.3.643-1.361 1.368-.579 6.871-7.646 8.066-7.942 8.113-.763.116-1.313.791-1.273 1.561.04.771.657 1.385 1.428 1.421 6.035.284 7.724 8.645 7.739 8.727.136.713.759 1.22 1.473 1.22.041 0 .083-.002.125-.005.765-.063 1.358-.693 1.376-1.461.13-5.709 8.331-8.633 8.411-8.661.677-.233 1.094-.913.997-1.622-.099-.709-.684-1.251-1.398-1.293zm-9.585 6.794c-.924-1.885-2.34-3.947-4.447-5.279 1.856-1.041 3.697-2.63 4.871-4.916 1.057 1.873 2.654 3.954 4.94 5.224-1.849 1.1-3.988 2.74-5.364 4.971z" fill="#3a312a"/><path d="m191.014 110.315c-.408-33.952-27.668-61.443-61.522-62.229-.085 0-.177-.006-.268-.006-.268-.006-.542-.012-.816-.012h-.408c-34.555 0-62.624 27.82-63.008 62.283-.006.152-.012.305-.006.457 0 .079-.006.152-.006.231h126.04c0-.243-.006-.481-.006-.724z" fill="#d6df58"/><g fill="#3a312a"><path d="m192.514 110.297c-.202-16.803-6.826-32.638-18.652-44.589-11.816-11.941-27.562-18.732-44.334-19.122-.012 0-.104-.002-.116-.002l-.154-.004c-.278-.006-.564-.012-.849-.012h-.409c-35.178 0-64.116 28.605-64.507 63.726-.007.191-.013.382-.009.571l-.004.174c0 .828.672 1.5 1.5 1.5h126.04c.828 0 1.5-.672 1.5-1.5zm-126.007-.758c.813-33.145 28.227-59.971 61.493-59.971h.408c.263 0 .525.006.782.012.012 0 .112.002.123.002l.143.004c33.019.767 59.247 27.041 60.043 59.953z"/><path d="m171.172 98.667c-1.073-8.208-3.191-15.929-6.295-22.947-7.827-17.697-21.034-28.588-35.327-29.133-.02-.001-.119-.003-.139-.003l-.154-.004c-.278-.006-.564-.012-.849-.012h-.165c-.053 0-.107.001-.161.004-.053-.002-.107-.001-.171.001-.109-.004-.204.001-.276.009-14.299.366-27.564 11.08-35.495 28.677-3.183 7.056-5.362 14.868-6.477 23.221-.55 4.104-.829 8.33-.829 12.56 0 .828.672 1.5 1.5 1.5s1.5-.672 1.5-1.5c0-4.097.269-8.188.803-12.162 1.076-8.063 3.175-15.595 6.237-22.385 7.46-16.548 19.761-26.609 32.904-26.912.027-.001.06-.003.092-.006.019.003.129-.003.142-.004.102.007.13.012.232-.002h.165c.263 0 .525.006.782.012.012 0 .112.002.123.002l.121.003c13.122.5 25.346 10.724 32.698 27.348 2.988 6.757 5.028 14.199 6.064 22.124.518 3.936.779 7.967.779 11.982 0 .828.672 1.5 1.5 1.5s1.5-.672 1.5-1.5c.001-4.146-.27-8.31-.804-12.373z"/><path d="m145.286 95.199c-.631-9.419-1.843-18.308-3.505-25.703-2.311-10.328-6.54-22.673-13.571-22.92-.216-.017-.404-.012-.601.01-6.93.457-11.109 12.703-13.397 22.908-1.653 7.356-2.864 16.245-3.504 25.708-.342 5.236-.515 10.565-.515 15.837 0 .828.672 1.5 1.5 1.5h32.607c.828 0 1.5-.672 1.5-1.5 0-5.282-.173-10.61-.514-15.84zm-32.088 14.34c.029-4.716.198-9.466.504-14.139.628-9.308 1.817-18.039 3.438-25.249 3.341-14.904 7.713-20.4 10.692-20.574.035-.002.125-.003.17-.008.025.002.051.004.076.004 3.001.079 7.409 5.526 10.776 20.579 1.63 7.249 2.818 15.979 3.438 25.245.305 4.668.474 9.418.503 14.142z"/><path d="m192.513 110.273c-.385-14.179-10.996-27.379-28.385-35.311-7.17-3.271-15.114-5.501-23.613-6.627-8.146-1.082-16.896-1.082-25.036 0-8.072 1.069-15.667 3.145-22.572 6.166-18.05 7.893-29.046 21.28-29.413 35.792-.007.191-.013.382-.009.571l-.004.174c0 .828.672 1.5 1.5 1.5h126.039c.828 0 1.5-.672 1.5-1.5zm-125.987-.734c.746-13.012 10.988-25.033 27.582-32.289 6.647-2.909 13.971-4.907 21.765-5.939 7.881-1.049 16.36-1.051 24.247 0 8.205 1.087 15.863 3.233 22.763 6.381 15.996 7.298 25.878 19.171 26.599 31.848h-122.956z"/><path d="m170.018 97.398c-7.478-1.703-16.512-2.947-26.129-3.596-10.305-.684-21.485-.684-31.784 0-9.255.625-17.995 1.805-25.277 3.411-10.395 2.287-22.881 6.485-23.338 13.496-.002.032-.005.123-.005.155l-.004.174c0 .828.672 1.5 1.5 1.5h126.039c.4 0 .785-.16 1.066-.445.282-.285.438-.671.434-1.071-.08-7.024-12.28-11.285-22.502-13.624zm-103.109 12.141c1.565-2.882 7.55-6.532 20.563-9.396 7.139-1.575 15.727-2.732 24.832-3.347 10.163-.677 21.213-.677 31.384 0 9.462.638 18.336 1.857 25.661 3.526 12.457 2.85 18.199 6.396 19.733 9.216h-122.173z"/></g><path d="m196.404 111.039h-136.808c-5.937 0-10.75 4.813-10.75 10.75v16.835c0 5.937 4.813 10.75 10.75 10.75h136.808c5.937 0 10.75-4.813 10.75-10.75v-16.835c0-5.937-4.813-10.75-10.75-10.75z" fill="#ef6d7a"/><path d="m196.404 109.539h-136.808c-6.755 0-12.25 5.495-12.25 12.25v16.835c0 6.755 5.495 12.25 12.25 12.25h136.809c6.755 0 12.25-5.495 12.25-12.25v-16.835c-.001-6.755-5.496-12.25-12.251-12.25zm9.25 29.085c0 5.101-4.149 9.25-9.25 9.25h-136.808c-5.101 0-9.25-4.149-9.25-9.25v-16.835c0-5.101 4.149-9.25 9.25-9.25h136.809c5.101 0 9.25 4.149 9.25 9.25v16.835z" fill="#3a312a"/><path d="m105.387 123.702-2.333 9.132-3.06-9.132h-5.01l-2.936 9.109-2.319-9.109h-5.362l5.365 14.468h4.956l2.833-8.705 2.93 8.705h4.935l5.33-14.468z" fill="#3a312a"/><path d="m134.513 123.702-2.334 9.132-3.059-9.132h-5.011l-2.936 9.109-2.319-9.109h-5.362l5.365 14.468h4.957l2.833-8.705 2.93 8.705h4.935l5.329-14.468z" fill="#3a312a"/><path d="m163.638 123.702-2.333 9.132-3.06-9.132h-5.011l-2.936 9.109-2.319-9.109h-5.361l5.365 14.468h4.956l2.833-8.705 2.93 8.705h4.935l5.329-14.468z" fill="#3a312a"/><path d="m214.97 30.14h-16c5.74 0 10.42 4.67 10.42 10.42v115.66c0 5.74-4.68 10.42-10.42 10.42h16c5.74 0 10.42-4.68 10.42-10.42v-115.66c0-5.75-4.68-10.42-10.42-10.42z" fill="#decaad"/></svg>