<?xml version="1.0" encoding="iso-8859-1"?>
<!-- Generator: Adobe Illustrator 19.0.0, SVG Export Plug-In . SVG Version: 6.00 Build 0)  -->
<svg version="1.1" id="Layer_1" xmlns="http://www.w3.org/2000/svg" xmlns:xlink="http://www.w3.org/1999/xlink" x="0px" y="0px"
	 viewBox="0 0 512 512" style="enable-background:new 0 0 512 512;" xml:space="preserve">
<g>
	<path style="fill:none;stroke:#000000;stroke-width:2;stroke-linecap:round;" d="M256.003,26.483h8.828"/>
	<path style="fill:#E8EDEE;" d="M415.797,512H96.212c-14.133,0-25.591-11.705-25.591-26.147V26.147C70.621,11.705,82.079,0,96.212,0
		h319.585c14.133,0,25.582,11.705,25.582,26.147v459.705C441.379,500.295,429.93,512,415.797,512"/>
	<polygon style="fill:#ECBA16;" points="97.106,441.379 414.899,441.379 414.899,52.966 97.106,52.966 	"/>
	<path style="fill:#6C797A;" d="M282.485,476.69c0,14.627-11.855,26.483-26.483,26.483c-14.627,0-26.483-11.855-26.483-26.483
		c0-14.627,11.855-26.483,26.483-26.483C270.63,450.207,282.485,462.062,282.485,476.69"/>
	<g>
		<path style="fill:#FFFFFF;" d="M211.972,309.034c-2.26,0-4.52-0.865-6.241-2.586l-52.559-52.559
			c-1.024-0.883-1.845-1.995-2.383-3.284c-1.359-3.302-0.653-7.089,1.871-9.613l53.027-53.027c3.443-3.443,9.031-3.443,12.482,0
			c3.443,3.452,3.443,9.039,0,12.482l-46.733,46.742l46.777,46.777c3.452,3.452,3.452,9.031,0,12.482
			C216.492,308.169,214.232,309.034,211.972,309.034"/>
		<path style="fill:#FFFFFF;" d="M300.248,309.086c-2.251,0-4.511-0.856-6.232-2.578c-3.452-3.443-3.46-9.031-0.018-12.482
			l46.645-46.795l-46.645-46.733c-3.443-3.452-3.434-9.048,0.009-12.491c3.46-3.443,9.048-3.434,12.491,0.018l52.86,52.966
			c3.434,3.452,3.434,9.022,0,12.473l-52.86,53.027C304.777,308.221,302.508,309.086,300.248,309.086"/>
		<path style="fill:#FFFFFF;" d="M247.292,309.034c-0.477,0-0.971-0.035-1.465-0.124c-4.802-0.794-8.051-5.35-7.247-10.161
			l17.655-105.94c0.803-4.802,5.314-8.06,10.161-7.256c4.802,0.803,8.051,5.35,7.247,10.161l-17.655,105.949
			C255.272,305.971,251.529,309.034,247.292,309.034"/>
	</g>
</g>
<g>
</g>
<g>
</g>
<g>
</g>
<g>
</g>
<g>
</g>
<g>
</g>
<g>
</g>
<g>
</g>
<g>
</g>
<g>
</g>
<g>
</g>
<g>
</g>
<g>
</g>
<g>
</g>
<g>
</g>
</svg>
