<svg id="Capa_1" enable-background="new 0 0 512 512" height="512" viewBox="0 0 512 512" width="512" xmlns="http://www.w3.org/2000/svg"><g fill="#474f54"><path d="m361 121h30v316h-30z"/><path d="m226 301h225v30h-225z"/><path d="m226 181h225v30h-225z"/></g><path d="m241 136v180c0 41.4-33.6 75-75 75s-75-33.6-75-75v-180z" fill="#e7e7f2"/><path d="m61 121h210v30h-210z" fill="#f2f2f2"/><path d="m376 361c-24.814 0-45-20.186-45-45s20.186-45 45-45 45 20.186 45 45-20.186 45-45 45z" fill="#cecee6"/><path d="m376 241c-24.814 0-45-20.186-45-45s20.186-45 45-45 45 20.186 45 45-20.186 45-45 45z" fill="#cecee6"/><path d="m61 422v90h390v-90z" fill="#fdbf00"/><path d="m166 391v-255h75v180c0 41.4-33.6 75-75 75z" fill="#cecee6"/><path d="m166 422h285v90h-285z" fill="#ff9100"/><path d="m166 121h105v30h-105z" fill="#e7e7f2"/><path d="m151 75h30v226h-30z" fill="#8de06a"/><path d="m211 0c-17.999 0-33.9 8.099-45 20.7-11.1-12.601-27.001-20.7-45-20.7h-30v30c0 32.999 27.001 60 60 60h30c32.999 0 60-27.001 60-60v-30z" fill="#8de06a"/><path d="m181 90h-15v-69.3c11.1-12.601 27.001-20.7 45-20.7h30v30c0 32.999-27.001 60-60 60z" fill="#00c9b0"/><path d="m166 75h15v226h-15z" fill="#00c9b0"/></svg>