<svg id="Capa_1" enable-background="new 0 0 512 512" height="512" viewBox="0 0 512 512" width="512" xmlns="http://www.w3.org/2000/svg"><path d="m391 0v30h-45c-41.4 0-75 34.6-75 76h-30c0-41.4-33.6-76-75-76h-45v-30h45c38.401 0 71.7 21 90 51.899 18.3-30.899 51.599-51.899 90-51.899z" fill="#474f54"/><path d="m391 0v30h-45c-41.4 0-75 34.6-75 76h-15v-54.101c18.3-30.899 51.599-51.899 90-51.899z" fill="#32393f"/><path d="m256 91c-35.4 0-42.299 41.999-44.399 90-3.6 75.3-1.201 151.199 6.899 226.199 10.499 96.001 23.101 104.801 37.5 104.801 18.3 0 25.499-23.8 32.1-63.401 3.6-21.599 5.4-44.399 6.301-69.6l5.999-200.7c-2.101-45.3-9-87.299-44.4-87.299z" fill="#575f64"/><path d="m466 61c-95.7 0-177.599 60.3-210 144.899-32.401-84.599-114.3-144.899-210-144.899h-46v30c16.5 0 31 13.5 31 30v132.9c0 28.2 11.4 55.199 31.5 75.3-.899 6-1.5 11.4-1.5 16.8v135h30c0-16.5 13.5-30 30-30h45c38.401 0 71.7-21 90-51.901 18.3 30.901 51.599 51.901 90 51.901h45c16.5 0 30 13.5 30 30h30v-135c0-5.4-.601-10.8-1.5-16.8 20.099-20.101 31.5-47.1 31.5-75.3v-132.9c0-16.5 14.5-30 31-30v-30z" fill="#ffda2d"/><path d="m300.399 178.299-5.999 200.7c-.9 25.201-2.7 48.001-6.3 69.6-6.601 39.601-13.8 63.401-32.1 63.401v-421c35.4 0 42.299 41.999 44.399 87.299z" fill="#474f54"/><path d="m512 61v30c-16.5 0-31 13.5-31 30v132.9c0 28.2-11.4 55.199-31.5 75.3.899 6 1.5 11.4 1.5 16.8v135h-30c0-16.5-13.5-30-30-30h-45c-38.401 0-71.7-21-90-51.901v-193.2c32.401-84.599 114.3-144.899 210-144.899z" fill="#fdbf00"/><path d="m376 241c-24.814 0-45-20.186-45-45s20.186-45 45-45 45 20.186 45 45-20.186 45-45 45z" fill="#ff9100"/><path d="m346 391c-24.814 0-45-20.186-45-45s20.186-45 45-45 45 20.186 45 45-20.186 45-45 45z" fill="#ff9100"/><path d="m136 241c-24.814 0-45-20.186-45-45s20.186-45 45-45 45 20.186 45 45-20.186 45-45 45z" fill="#fdbf00"/><path d="m166 391c-24.814 0-45-20.186-45-45s20.186-45 45-45 45 20.186 45 45-20.186 45-45 45z" fill="#fdbf00"/><path d="m301 241h30v30h-30z" fill="#ff9100"/><path d="m181 241h30v30h-30z" fill="#fdbf00"/></svg>