<svg id="Capa_1" enable-background="new 0 0 512 512" height="512" viewBox="0 0 512 512" width="512" xmlns="http://www.w3.org/2000/svg"><g fill="#ffda2d"><path d="m137.8 31h236.4v30h-236.4z"/><path d="m172.899 151h166.201v30h-166.201z"/><path d="m148.001 91h215.999v30h-215.999z"/><path d="m137.8 451h236.4v30h-236.4z"/><path d="m148.001 391h215.999v30h-215.999z"/><path d="m172.899 331h166.201v30h-166.201z"/></g><path d="m391 0c0 156.901-63.6 214.9-125.4 267.4-3.3 2.699-6.301 5.4-9.6 8.099-55.201 47.701-105 101.201-105 236.501h-30c0-156.899 63.6-214.9 125.4-267.4 3.3-2.701 6.301-5.4 9.6-8.101 55.201-47.699 105-101.199 105-236.499z" fill="#76e2f8"/><path d="m256 151h83.101v30h-83.101z" fill="#fdbf00"/><path d="m256 331h83.101v30h-83.101z" fill="#fdbf00"/><path d="m256 91h107.999v30h-107.999z" fill="#fdbf00"/><path d="m256 391h107.999v30h-107.999z" fill="#fdbf00"/><path d="m256 31h118.2v30h-118.2z" fill="#fdbf00"/><path d="m256 451h118.2v30h-118.2z" fill="#fdbf00"/><path d="m391 0c0 156.901-63.6 214.9-125.4 267.4-3.3 2.699-6.301 5.4-9.6 8.099v-39c55.201-47.699 105-101.199 105-236.499z" fill="#4bb9ec"/><path d="m391 512h-30c0-135.3-49.799-188.8-105-236.501-3.3-2.699-6.301-5.4-9.6-8.099-61.8-52.5-125.4-110.499-125.4-267.4h30c0 135.3 49.799 188.8 105 236.499 3.3 2.701 6.301 5.4 9.6 8.101 61.8 52.5 125.4 110.501 125.4 267.4z" fill="#ff7b4a"/><path d="m391 512h-30c0-135.3-49.799-188.8-105-236.501v-39c3.3 2.701 6.301 5.4 9.6 8.101 61.8 52.5 125.4 110.501 125.4 267.4z" fill="#ff435b"/></svg>