<svg id="Capa_1" enable-background="new 0 0 512.014 512.014" height="512" viewBox="0 0 512.014 512.014" width="512" xmlns="http://www.w3.org/2000/svg"><path d="m474.514 57.735c-28.5-32.1-69.3-50.7-112.5-50.7-26.7 0-54.3 7.2-80.099 22.5-32.701 19.799-56.7 53.399-65.7 90.599-23.101 99.6 51.299 186.901 145.8 186.901 82.8 0 150-67.2 150-150-.001-36.601-13.501-72.001-37.501-99.3z" fill="#ff7b4a"/><path d="m512.014 157.035c0 82.8-67.2 150-150 150v-300c43.2 0 84 18.6 112.5 50.7 24 27.299 37.5 62.699 37.5 99.3z" fill="#ff435b"/><path d="m29.414 504.979-29.414-5.888c7.632-38.174 39.529-67.764 77.703-75.396 26.265-5.259 46.626-25.62 51.885-51.885 6.914-34.629 32.183-62.593 65.918-73.008l8.848 28.682c-23.218 7.148-40.591 26.396-45.352 50.215-7.646 38.174-37.251 67.778-75.41 75.41-26.265 5.244-48.934 25.606-54.178 51.87z" fill="#cecee6"/><path d="m240.198 351.302c-23.364 0-42.173-18.809-54.229-30.864-18.53-18.545-53.013-53.042-10.605-95.464 33.765-33.765 106.011-63.721 137.886-31.816 31.889 31.875 1.963 104.106-31.816 137.886-14.825 14.824-28.697 20.258-41.236 20.258z" fill="#f2f2f2"/><path d="m392.014 67.035c-10.8 0-21.301 2.999-30 8.099-17.999 10.501-30 29.702-30 51.901s12.001 41.4 30 51.899c8.699 5.099 19.2 8.101 30 8.101 32.999 0 60-27.001 60-60 0-33.001-27.001-60-60-60z" fill="#ff435b"/><path d="m452.014 127.035c0 32.999-27.001 60-60 60-10.8 0-21.301-3.001-30-8.101v-103.8c8.699-5.099 19.2-8.099 30-8.099 32.999 0 60 26.999 60 60z" fill="#cd0000"/></svg>