<svg id="Capa_1" enable-background="new 0 0 512 512" height="512" viewBox="0 0 512 512" width="512" xmlns="http://www.w3.org/2000/svg"><path d="m61 0h30v90h-30z" fill="#f2f2f2"/><path d="m421 0h30v90h-30z" fill="#e7e7f2"/><path d="m121 30h30v60h-30z" fill="#f2f2f2"/><path d="m361 30h30v60h-30z" fill="#e7e7f2"/><path d="m481 211v75c0 124.2-100.8 226-225 226s-225-101.8-225-226v-75l28.2-30h63.3l28.5 30v75c0 57.9 47.1 106 105 106s105-48.1 105-106v-75l39-30h41.1z" fill="#ff7b4a"/><path d="m481 211v75c0 124.2-100.8 226-225 226v-120c57.9 0 105-48.1 105-106v-75l39-30h41.1z" fill="#4bb9ec"/><path d="m151 211h-120v-91h120z" fill="#575f64"/><path d="m481 211h-120v-91h120z" fill="#474f54"/></svg>