<svg id="Capa_1" enable-background="new 0 0 512 512" height="512" viewBox="0 0 512 512" width="512" xmlns="http://www.w3.org/2000/svg"><path d="m179.399 371.3 21.301 21.299-50.7 50.7v53.701h-30v-53.701l-50.7-50.7 21.301-21.299 29.399 29.399v-77.4l-50.7-50.7 21.301-21.299 29.399 29.399v-83.699h30v83.699l29.399-29.399 21.301 21.299-50.7 50.7v77.4z" fill="#00c9b0"/><path d="m179.399 371.3 21.301 21.299-50.7 50.7v53.701h-15v-300h15v83.699l29.399-29.399 21.301 21.299-50.7 50.7v77.4z" fill="#19a690"/><path d="m180 152c0-34.801-36.599-57.301-45-63.001-48.6 33.6-45 60-45 63.001 0 34.799 36.599 57.299 45 62.999 48.6-33.6 45-60 45-62.999z" fill="#8de06a"/><path d="m177.231 274.769c-1.9-10.424-11.705-51.944 12.773-76.406 4.148-4.153 20.021-23.069 76.406-12.773 1.881 10.323 11.712 51.952-12.773 76.406-27.322 27.322-73.365 12.807-76.406 12.773z" fill="#00c9b0"/><path d="m16.362 261.995c-4.153-4.148-23.051-20.018-12.773-76.406 10.174-1.848 51.944-11.705 76.406 12.773 4.152 4.149 23.054 20.018 12.773 76.406-3 .171-49.756 13.877-76.406-12.773z" fill="#8de06a"/><path d="m177.231 394.769c-1.9-10.424-11.705-51.944 12.773-76.406 4.148-4.153 20.021-23.069 76.406-12.773 1.881 10.323 11.712 51.952-12.773 76.406-27.322 27.322-73.365 12.807-76.406 12.773z" fill="#00c9b0"/><path d="m16.362 381.995c-4.153-4.148-23.051-20.018-12.773-76.406 10.274-1.866 51.583-12.066 76.406 12.773 4.152 4.149 23.054 20.018 12.773 76.406-3 .171-49.756 13.877-76.406-12.773z" fill="#8de06a"/><path d="m0 482h512v30h-512z" fill="#8de06a"/><g fill="#fdbf00"><path d="m392 0h30v45h-30z"/><path d="m333.664 24.155h29.997v45.016h-29.997z" transform="matrix(.707 -.707 .707 .707 69.126 260.209)"/><path d="m392 165h30v45h-30z"/></g><path d="m450.339 140.829h29.997v45.016h-29.997z" fill="#ff9100" transform="matrix(.707 -.707 .707 .707 20.797 376.884)"/><path d="m302 90h45v30h-45z" fill="#fdbf00"/><path d="m326.155 148.339h45.016v29.997h-45.016z" fill="#fdbf00" transform="matrix(.707 -.707 .707 .707 -13.376 294.382)"/><path d="m467 90h45v30h-45z" fill="#ff9100"/><path d="m442.829 31.664h45.016v29.997h-45.016z" fill="#ff9100" transform="matrix(.707 -.707 .707 .707 103.299 342.71)"/><path d="m135 214.999v-126c8.401 5.7 45 28.2 45 63.001 0 2.999 3.6 29.399-45 62.999z" fill="#00c9b0"/><path d="m135 482h377v30h-377z" fill="#00c9b0"/><path d="m407 0h15v45h-15z" fill="#ff9100"/><path d="m407 165h15v45h-15z" fill="#ff9100"/><path d="m407 30c-41.4 0-75 33.6-75 75s33.6 75 75 75 75-33.6 75-75-33.6-75-75-75z" fill="#ffda2d"/><path d="m482 105c0 41.4-33.6 75-75 75v-150c41.4 0 75 33.6 75 75z" fill="#fdbf00"/></svg>