<svg id="Capa_1" enable-background="new 0 0 512 512" height="512" viewBox="0 0 512 512" width="512" xmlns="http://www.w3.org/2000/svg"><path d="m231.7 72.299c-2.401-11.7-6.899-22.2-13.2-31.8-16.199-24.6-44.099-40.499-75-40.499-49.501 0-90 40.499-90 90v150h83.699l81.301-137.701 14.399-24.3z" fill="#fdbf00"/><path d="m232.899 77.999-14.399 24.3v-61.8c6.301 9.6 10.8 20.099 13.2 31.8z" fill="#ff9100"/><path d="m263.5 299.5v4.199l18.3 3.6 18.001 36.901c-8.401 22.2-15.3 44.099-20.4 65.4l-3.001 11.4h-116.1l-2.701-11.7c-4.799-20.4-11.398-41.1-19.199-62.1l16.8-39.901 18.3-3.6v-4.199c-34.2-6.901-60-37.202-60-73.5v-45l36.899-30h68.101c24.901 0 45-20.101 45-45v-11.4l30-2.401c29.399 38.101 30 60.3 30 73.801v60c0 36.299-25.8 66.599-60 73.5z" fill="#ffbfab"/><path d="m263.5 299.5v4.199l18.3 3.6 18.001 36.901c-8.401 22.2-15.3 44.099-20.4 65.4l-3.001 11.4h-57.9v-270c24.901 0 45-20.101 45-45v-11.4l30-2.401c29.399 38.101 30 60.3 30 73.801v60c0 36.299-25.8 66.599-60 73.5z" fill="#ffa78f"/><path d="m293.5 92.199v13.801c0 41.4-33.6 75-75 75h-105l.3-15.901c3-55.199 46.5-101.1 99-104.099 1.8 0 3.9-.3 5.7-.3 26.4 0 50.7 9.6 69.901 27.001z" fill="#ffda2d"/><path d="m293.5 92.199v13.801c0 41.4-33.6 75-75 75v-120.3c26.4 0 50.7 9.6 69.901 27.001z" fill="#fdbf00"/><path d="m283.9 391-4.499 18.6c-6.601 25.8-10.801 53.8-13.2 81.099l-32.1 21.301h-31.201l-33-29.401c-2.701-24.598-6.601-49.6-12.301-72.999l-4.499-18.6z" fill="#76e2f8"/><path d="m218.5 391h65.4l-4.499 18.6c-6.601 25.8-10.801 53.8-13.2 81.099l-32.1 21.301h-15.601z" fill="#4bb9ec"/><path d="m202.929 512h-179.429v-116.796c0-35.522 25.371-66.431 60.322-73.506l71.265-14.473 4.702 11.499c11.484 28.096 20.61 56.294 27.114 83.833 7.28 29.707 12.246 61.791 14.751 93.256z" fill="#f2f2f2"/><path d="m413.471 392.904c-1.069-34.556-26.104-64.292-60.278-71.191l-71.323-14.502-4.673 11.558c-11.484 28.389-20.596 56.572-27.07 83.657-7.31 29.839-12.275 61.923-14.78 93.388l-1.276 16.186h194.429v-68.588z" fill="#e7e7f2"/><path d="m473.5 284.799v76.201l-27.001 30h-30.598l-32.401-30v-76.201z" fill="#f2f2f2"/><path d="m473.5 284.799v76.201l-27.001 30h-17.999v-106.201z" fill="#e7e7f2"/><path d="m383.5 361v106c0 24.899 20.099 45 45 45s45-20.101 45-45v-106z" fill="#8de06a"/><path d="m428.5 361h45v106c0 24.899-20.099 45-45 45z" fill="#00c9b0"/><path d="m368.5 271h120v30h-120z" fill="#e7e7f2"/><path d="m428.5 271h60v30h-60z" fill="#cecee6"/></svg>