<svg id="Capa_1" enable-background="new 0 0 512 512" height="512" viewBox="0 0 512 512" width="512" xmlns="http://www.w3.org/2000/svg"><path d="m181 316h150v60h-150z" fill="#e7e7f2"/><path d="m181 136h150v60h-150z" fill="#e7e7f2"/><path d="m256 136h75v60h-75z" fill="#cecee6"/><path d="m256 316h75v60h-75z" fill="#cecee6"/><path d="m376 391h-15v-30h-210v30h-15c-24.901 0-45 20.099-45 45 0 24.899 20.099 45 45 45h15v31h210v-31h15c24.901 0 45-20.101 45-45 0-24.901-20.099-45-45-45z" fill="#f2f2f2"/><path d="m376 31h-15v-31h-210v31h-15c-24.901 0-45 20.099-45 45 0 24.899 20.099 45 45 45h15v30h210v-30h15c24.901 0 45-20.101 45-45 0-24.901-20.099-45-45-45z" fill="#f2f2f2"/><path d="m376 211h-15v-30h-210v30h-15c-24.901 0-45 20.099-45 45 0 24.899 20.099 45 45 45h15v30h210v-30h15c24.901 0 45-20.101 45-45 0-24.901-20.099-45-45-45z" fill="#f2f2f2"/><g fill="#e7e7f2"><path d="m421 436c0 24.899-20.099 45-45 45h-15v31h-105v-151h105v30h15c24.901 0 45 20.099 45 45z"/><path d="m421 256c0 24.899-20.099 45-45 45h-15v30h-105v-150h105v30h15c24.901 0 45 20.099 45 45z"/><path d="m361 151h-105v-151h105v31h15c24.901 0 45 20.099 45 45 0 24.899-20.099 45-45 45h-15z"/><path d="m211 61h30v30h-30z"/></g><path d="m271 61h30v30h-30z" fill="#cecee6"/><path d="m211 241h30v30h-30z" fill="#e7e7f2"/><path d="m271 241h30v30h-30z" fill="#cecee6"/><path d="m211 421h30v30h-30z" fill="#e7e7f2"/><path d="m271 421h30v30h-30z" fill="#cecee6"/></svg>