<svg id="Capa_1" enable-background="new 0 0 512.601 512.601" height="512" viewBox="0 0 512.601 512.601" width="512" xmlns="http://www.w3.org/2000/svg"><path d="m.3.3v512h512v-512z" fill="#ffbfab"/><path d="m256.3.3h256v512h-256z" fill="#ffa78f"/><path d="m512.601 241.3c-2.401 64.2-6.4 102.9-58.599 176.7h-.902l-65.7-13.8-2.1 71.7c-5.099 3.3-18.3 12.1-54 25.6 0 0-31.199-24.701-31.199-25.001l-28.801 34.9c-4.799.3-9.901.901-15 .901s-9.901-.601-15-.901l-29.099-34.9-30 24.401-.901.601c-27.9-11.7-39-16.901-54-25.6l3.6-54.6-71.4-3.3h-.901c-57.299-84.302-54.098-107.701-58.599-176.701l1.201-.901 57.699-51.599-35.799-36.901-.601-.599c8.101-14.401 19.3-31.8 36.099-56.7l58.801-4.799 9.6-53.101c6.301-3.001 57.599-36.4 129.3-36.4 49.501 0 88.5 15.099 129 36.099l-7.2 67.2 75.3-9h.601c5.4 8.101 17.8 24.3 36.099 56.7l-.3.599-38.5 43.2 60.099 45.3z" fill="#f2f2f2"/><path d="m512.601 241.3c-2.401 64.2-6.4 102.9-58.599 176.7h-.902l-65.7-13.8-2.1 71.7c-5.099 3.3-18.3 12.1-54 25.6 0 0-31.199-24.701-31.199-25.001l-28.801 34.9c-4.799.3-9.901.901-15 .901v-512c49.501 0 88.5 15.099 129 36.099l-7.2 67.2 75.3-9h.601c5.4 8.101 17.8 24.3 36.099 56.7l-.3.599-38.5 43.2 60.099 45.3z" fill="#e7e7f2"/><path d="m127.189 476.085-11.001-7.075c-17.358-11.147-33.691-25.005-48.53-41.162l-8.994-9.8 152.636-178.344v138.252z" fill="#ff435b"/><path d="m379.933 181.3h-118.77l124.263-144.77 10.986 7.061c17.358 11.147 33.691 25.005 48.53 41.162l8.979 9.785z" fill="#cd0000"/><path d="m251.437 181.3h-118.77l-73.989-86.762 8.979-9.785c14.839-16.157 31.172-30.015 48.53-41.162l10.986-7.061z" fill="#ff435b"/><path d="m385.412 476.085-84.111-98.13v-138.251l152.637 178.345-8.994 9.8c-14.839 16.157-31.172 30.015-48.53 41.162z" fill="#cd0000"/><path d="m256.3 61.3c-24.901 0-45 20.099-45 45 0 24.899 20.099 45 45 45s45-20.101 45-45c0-24.9-20.099-45-45-45z" fill="#ff7b4a"/><path d="m512.601 241.3h-181.301v260.2l-11.4 2.699c-16.199 4.2-32.401 6.301-48.6 7.2v-180.099h-30v180.099c-16.199-.899-32.401-2.999-48.6-7.2l-11.4-2.699v-260.2h-181.3l2.1-16.8c2.999-21.601 8.401-43.2 16.8-63.6l3.6-9.6h467.601l3.6 9.6c8.399 20.4 13.801 41.999 16.8 63.6z" fill="#ff7b4a"/><g fill="#ff435b"><path d="m301.3 106.3c0 24.899-20.099 45-45 45v-90c24.901 0 45 20.1 45 45z"/><path d="m512.601 241.3h-181.301v260.2l-11.4 2.699c-16.199 4.2-32.401 6.301-48.6 7.2v-180.099h-15v-180h233.8l3.6 9.6c8.399 20.4 13.801 41.999 16.8 63.6z"/></g></svg>