<svg id="Capa_1" enable-background="new 0 0 512 512" height="512" viewBox="0 0 512 512" width="512" xmlns="http://www.w3.org/2000/svg"><path d="m241 166h30v45h-30z" fill="#575f64"/><path d="m0 46h512v30h-512z" fill="#575f64"/><path d="m451 61h30v405h-30z" fill="#474f54"/><path d="m31 61h30v405h-30z" fill="#575f64"/><path d="m211 196h90v75h-90z" fill="#e7e7f2"/><path d="m391 331v120h-270v-120c0-41.4 33.6-75 75-75h45l11.7 13.5 3.3-2.401 15-11.1h45c41.4.001 75 33.601 75 75.001z" fill="#8de06a"/><path d="m256 166h15v45h-15z" fill="#474f54"/><path d="m256 46h256v30h-256z" fill="#474f54"/><path d="m256 196h45v75h-45z" fill="#cecee6"/><path d="m391 331v120h-135v-183.9l15-11.1h45c41.4 0 75 33.6 75 75z" fill="#00c9b0"/><path d="m295 113.5-39-67.5-39 67.5c-3.9 6.899-6 14.7-6 22.5 0 24.899 20.099 45 45 45s45-20.101 45-45c0-7.8-2.1-15.601-6-22.5z" fill="#ffda2d"/><path d="m256 181v-135l39 67.5c3.9 6.899 6 14.7 6 22.5 0 24.899-20.099 45-45 45z" fill="#fdbf00"/><path d="m286 316h-15v-60h-30v60h-60v30h60v15c0 13.2 5.7 25.199 15 33.3 7.8 7.2 18.3 11.7 30 11.7 24.901 0 45-20.101 45-45 0-24.901-20.099-45-45-45zm0 60c-8.401 0-15-6.601-15-15v-15h15c8.401 0 15 6.599 15 15 0 8.399-6.599 15-15 15z" fill="#00c9b0"/><path d="m286 316h-15v-60h-15v138.3c7.8 7.2 18.3 11.7 30 11.7 24.901 0 45-20.101 45-45 0-24.901-20.099-45-45-45zm0 60c-8.401 0-15-6.601-15-15v-15h15c8.401 0 15 6.599 15 15 0 8.399-6.599 15-15 15z" fill="#19a690"/><path d="m91 436h330v30h-330z" fill="#e7e7f2"/><path d="m256 436h165v30h-165z" fill="#cecee6"/></svg>