<svg height="512pt" viewBox="0 0 512 512" width="512pt" xmlns="http://www.w3.org/2000/svg"><path d="m247.171875 397.242188h-211.863281c-19.5 0-35.308594-15.808594-35.308594-35.3125v-326.621094c0-19.5 15.808594-35.308594 35.308594-35.308594h397.242187c19.503907 0 35.3125 15.808594 35.3125 35.308594v195.710937zm0 0" fill="#b0d3f0"/><path d="m123.585938 88.277344v52.964844h-79.449219v-44.933594c.242187-4.644532 4.179687-8.226563 8.828125-8.03125zm0 0" fill="#ff5364"/><path d="m423.722656 96.308594v44.933594h-300.136718v-52.964844h291.3125c4.644531-.195313 8.582031 3.386718 8.824218 8.03125zm0 0" fill="#e6e7e8"/><path d="m123.585938 141.242188h300.136718v52.964843h-300.136718zm0 0" fill="#fff"/><path d="m123.585938 194.207031h300.136718v52.964844h-300.136718zm0 0" fill="#e6e7e8"/><path d="m123.585938 247.171875h300.136718v52.964844h-300.136718zm0 0" fill="#fff"/><path d="m123.585938 300.136719h300.136718v52.964843h-300.136718zm0 0" fill="#e6e7e8"/><path d="m123.585938 300.136719v52.964843h-70.621094c-4.648438.195313-8.585938-3.386718-8.828125-8.03125v-44.933593zm0 0" fill="#ff5364"/><path d="m44.136719 141.242188h79.449219v52.964843h-79.449219zm0 0" fill="#fb7b76"/><path d="m44.136719 194.207031h79.449219v52.964844h-79.449219zm0 0" fill="#ff5364"/><path d="m44.136719 247.171875h79.449219v52.964844h-79.449219zm0 0" fill="#fb7b76"/><path d="m70.621094 52.964844h-17.65625c-4.875 0-8.828125-3.953125-8.828125-8.828125s3.953125-8.828125 8.828125-8.828125h17.65625c4.875 0 8.828125 3.953125 8.828125 8.828125s-3.953125 8.828125-8.828125 8.828125zm0 0" fill="#c03a2b"/><path d="m123.585938 52.964844h-17.65625c-4.875 0-8.828126-3.953125-8.828126-8.828125s3.953126-8.828125 8.828126-8.828125h17.65625c4.875 0 8.828124 3.953125 8.828124 8.828125s-3.953124 8.828125-8.828124 8.828125zm0 0" fill="#f0c419"/><path d="m194.207031 52.964844h-35.308593c-4.878907 0-8.828126-3.953125-8.828126-8.828125s3.949219-8.828125 8.828126-8.828125h35.308593c4.875 0 8.828125 3.953125 8.828125 8.828125s-3.953125 8.828125-8.828125 8.828125zm0 0" fill="#24ae5f"/><path d="m423.722656 52.964844h-194.207031c-4.875 0-8.824219-3.953125-8.824219-8.828125s3.949219-8.828125 8.824219-8.828125h194.207031c4.875 0 8.828125 3.953125 8.828125 8.828125s-3.953125 8.828125-8.828125 8.828125zm0 0" fill="#2c2f38"/><path d="m317.792969 123.585938h-61.792969c-11.199219.007812-21.167969 7.085937-24.867188 17.65625-.105468.265624-.140624.5625-.230468.828124-.355469 1.019532-.652344 2.0625-.882813 3.117188-.320312 1.609375-.488281 3.242188-.503906 4.882812v335.445313c0 14.628906 11.859375 26.484375 26.484375 26.484375h229.515625c14.628906 0 26.484375-11.855469 26.484375-26.484375v-335.445313c0-14.628906-11.855469-26.484374-26.484375-26.484374zm0 0" fill="#3d324c"/><path d="m273.203125 158.898438h195.109375c4.625 0 8.378906 3.75 8.378906 8.375v62.695312c0 4.625-3.753906 8.375-8.378906 8.375h-195.109375c-4.625 0-8.375-3.75-8.375-8.375v-62.695312c0-4.625 3.75-8.375 8.375-8.375zm0 0" fill="#7ed09e"/><g fill="#7d6599"><path d="m273.65625 273.65625h35.308594c4.875 0 8.828125 3.949219 8.828125 8.828125v26.480469c0 4.875-3.953125 8.828125-8.828125 8.828125h-35.308594c-4.875 0-8.828125-3.953125-8.828125-8.828125v-26.480469c0-4.878906 3.953125-8.828125 8.828125-8.828125zm0 0"/><path d="m273.65625 353.101562h35.308594c4.875 0 8.828125 3.953126 8.828125 8.828126v26.484374c0 4.875-3.953125 8.828126-8.828125 8.828126h-35.308594c-4.875 0-8.828125-3.953126-8.828125-8.828126v-26.484374c0-4.875 3.953125-8.828126 8.828125-8.828126zm0 0"/><path d="m273.65625 432.550781h35.308594c4.875 0 8.828125 3.953125 8.828125 8.828125v26.484375c0 4.875-3.953125 8.828125-8.828125 8.828125h-35.308594c-4.875 0-8.828125-3.953125-8.828125-8.828125v-26.484375c0-4.875 3.953125-8.828125 8.828125-8.828125zm0 0"/><path d="m353.101562 273.65625h35.3125c4.875 0 8.828126 3.949219 8.828126 8.828125v26.480469c0 4.875-3.953126 8.828125-8.828126 8.828125h-35.3125c-4.875 0-8.824218-3.953125-8.824218-8.828125v-26.480469c0-4.878906 3.949218-8.828125 8.824218-8.828125zm0 0"/><path d="m353.101562 353.101562h35.3125c4.875 0 8.828126 3.953126 8.828126 8.828126v26.484374c0 4.875-3.953126 8.828126-8.828126 8.828126h-35.3125c-4.875 0-8.824218-3.953126-8.824218-8.828126v-26.484374c0-4.875 3.949218-8.828126 8.824218-8.828126zm0 0"/><path d="m353.101562 432.550781h35.3125c4.875 0 8.828126 3.953125 8.828126 8.828125v26.484375c0 4.875-3.953126 8.828125-8.828126 8.828125h-35.3125c-4.875 0-8.824218-3.953125-8.824218-8.828125v-26.484375c0-4.875 3.949218-8.828125 8.824218-8.828125zm0 0"/><path d="m432.550781 273.65625h35.3125c4.875 0 8.828125 3.949219 8.828125 8.828125v26.480469c0 4.875-3.953125 8.828125-8.828125 8.828125h-35.3125c-4.875 0-8.828125-3.953125-8.828125-8.828125v-26.480469c0-4.878906 3.953125-8.828125 8.828125-8.828125zm0 0"/><path d="m432.550781 353.101562h35.3125c4.875 0 8.828125 3.953126 8.828125 8.828126v26.484374c0 4.875-3.953125 8.828126-8.828125 8.828126h-35.3125c-4.875 0-8.828125-3.953126-8.828125-8.828126v-26.484374c0-4.875 3.953125-8.828126 8.828125-8.828126zm0 0"/></g><path d="m432.550781 432.550781h35.3125c4.875 0 8.828125 3.953125 8.828125 8.828125v26.484375c0 4.875-3.953125 8.828125-8.828125 8.828125h-35.3125c-4.875 0-8.828125-3.953125-8.828125-8.828125v-26.484375c0-4.875 3.953125-8.828125 8.828125-8.828125zm0 0" fill="#cc66a1"/><path d="m308.964844 203.035156h-8.828125c-4.875 0-8.828125-3.953125-8.828125-8.828125s3.953125-8.828125 8.828125-8.828125h8.828125c4.875 0 8.828125 3.953125 8.828125 8.828125s-3.953125 8.828125-8.828125 8.828125zm0 0" fill="#4c8056"/><path d="m423.722656 203.035156h-79.445312c-4.875 0-8.828125-3.953125-8.828125-8.828125s3.953125-8.828125 8.828125-8.828125h79.445312c4.875 0 8.828125 3.953125 8.828125 8.828125s-3.953125 8.828125-8.828125 8.828125zm0 0" fill="#4c8056"/></svg>