<svg height="512pt" viewBox="-13 0 511 512" width="512pt" xmlns="http://www.w3.org/2000/svg"><path d="m406.570312 17.65625v158.894531h-406.070312v-158.894531c.027344-9.738281 7.917969-17.6289062 17.65625-17.65625h370.757812c9.738282.0273438 17.625 7.917969 17.65625 17.65625zm0 0" fill="#2fa8cc"/><path d="m.5 176.550781v317.792969c.027344 9.738281 7.917969 17.628906 17.65625 17.65625h388.414062v-335.449219zm0 0" fill="#67b9cc"/><path d="m62.292969 44.136719h-17.65625c-4.875 0-8.828125-3.949219-8.828125-8.828125 0-4.875 3.953125-8.824219 8.828125-8.824219h17.65625c4.875 0 8.828125 3.949219 8.828125 8.824219 0 4.878906-3.953125 8.828125-8.828125 8.828125zm0 0" fill="#f0c419"/><path d="m159.398438 44.136719h-61.796876c-4.875 0-8.824218-3.949219-8.824218-8.828125 0-4.875 3.949218-8.824219 8.824218-8.824219h61.796876c4.875 0 8.824218 3.949219 8.824218 8.824219 0 4.878906-3.949218 8.828125-8.824218 8.828125zm0 0" fill="#f0c419"/><path d="m212.363281 79.449219h-167.726562c-4.875 0-8.828125-3.953125-8.828125-8.828125s3.953125-8.828125 8.828125-8.828125h167.726562c4.875 0 8.828125 3.953125 8.828125 8.828125s-3.953125 8.828125-8.828125 8.828125zm0 0" fill="#f0c419"/><path d="m53.464844 105.929688h105.933594c4.875 0 8.824218 3.953124 8.824218 8.828124v17.65625c0 4.875-3.949218 8.828126-8.824218 8.828126h-105.933594c-4.875 0-8.828125-3.953126-8.828125-8.828126v-17.65625c0-4.875 3.953125-8.828124 8.828125-8.828124zm0 0" fill="#285680"/><path d="m371.257812 88.277344c0 29.25-23.710937 52.964844-52.964843 52.964844-29.25 0-52.964844-23.714844-52.964844-52.964844 0-29.253906 23.714844-52.96875 52.964844-52.96875 29.253906 0 52.964843 23.714844 52.964843 52.96875zm0 0" fill="#f0c419"/><path d="m362.429688 247.171875v-17.65625c0-4.875-3.949219-8.824219-8.828126-8.824219h-300.136718c-4.875 0-8.828125 3.949219-8.828125 8.824219v229.519531c0 4.875 3.953125 8.828125 8.828125 8.828125h300.136718zm0 0" fill="#285680"/><g fill="#67b9cc"><path d="m124.085938 476.691406c-4.875 0-8.828126-3.953125-8.828126-8.828125v-247.171875c0-4.878906 3.953126-8.828125 8.828126-8.828125s8.828124 3.949219 8.828124 8.828125v247.171875c0 4.875-3.953124 8.828125-8.828124 8.828125zm0 0"/><path d="m203.535156 476.691406c-4.875 0-8.828125-3.953125-8.828125-8.828125v-247.171875c0-4.878906 3.953125-8.828125 8.828125-8.828125s8.828125 3.949219 8.828125 8.828125v247.171875c0 4.875-3.953125 8.828125-8.828125 8.828125zm0 0"/><path d="m282.984375 476.691406c-4.878906 0-8.828125-3.953125-8.828125-8.828125v-247.171875c0-4.878906 3.949219-8.828125 8.828125-8.828125 4.875 0 8.824219 3.949219 8.824219 8.828125v247.171875c0 4.875-3.949219 8.828125-8.824219 8.828125zm0 0"/><path d="m347.6875 273.65625h-303.050781c-4.875 0-8.828125-3.953125-8.828125-8.828125s3.953125-8.828125 8.828125-8.828125h303.050781c4.875 0 8.828125 3.953125 8.828125 8.828125s-3.953125 8.828125-8.828125 8.828125zm0 0"/></g><path d="m482.777344 285.660156-69.429688-83.3125c-1.675781-2.011718-4.160156-3.175781-6.777344-3.175781-2.621093 0-5.105468 1.164063-6.78125 3.175781l-69.429687 83.3125c-2.191406 2.632813-2.664063 6.292969-1.210937 9.394532 1.453124 3.101562 4.566406 5.082031 7.992187 5.082031h7.636719c4.875 0 8.824218 3.953125 8.824218 8.828125v194.207031c0 4.875 3.953126 8.828125 8.828126 8.828125h88.277343c4.875 0 8.828125-3.953125 8.828125-8.828125v-194.207031c0-4.875 3.953125-8.828125 8.828125-8.828125h7.632813c3.425781 0 6.539062-1.980469 7.992187-5.082031 1.453125-3.101563.980469-6.761719-1.210937-9.394532zm0 0" fill="#ff5364"/></svg>