<?xml version="1.0" encoding="iso-8859-1"?>
<!-- Generator: Adobe Illustrator 19.0.0, SVG Export Plug-In . SVG Version: 6.00 Build 0)  -->
<svg version="1.1" id="Capa_1" xmlns="http://www.w3.org/2000/svg" xmlns:xlink="http://www.w3.org/1999/xlink" x="0px" y="0px"
	 viewBox="0 0 503.472 503.472" style="enable-background:new 0 0 503.472 503.472;" xml:space="preserve">
<g>
	<path style="fill:#547580;" d="M17.356,0.075h468.76c9.585,0,17.356,7.771,17.356,17.356v329.763H0V17.431
		C0,7.845,7.771,0.075,17.356,0.075z"/>
	<circle style="fill:#FFFFFF;" cx="303.879" cy="147.6" r="112.814"/>
	<circle style="fill:#547580;" cx="303.879" cy="147.6" r="78.102"/>
	<rect x="199.743" y="407.939" style="fill:#A5A5A4;" width="104.136" height="69.424"/>
	<path style="fill:#7F8C8D;" d="M130.169,468.685h243.133c9.585,0,17.356,7.771,17.356,17.356v17.356H112.814v-17.356
		C112.814,476.456,120.584,468.685,130.169,468.685z"/>
	<rect x="34.862" y="208.346" style="fill:#F0C419;" width="52.068" height="104.136"/>
	<rect x="86.93" y="95.533" style="fill:#DF4D60;" width="52.068" height="216.949"/>
	<rect x="138.997" y="34.787" style="fill:#2FA8CC;" width="52.068" height="277.695"/>
	<path style="fill:#BDC3C7;" d="M0.15,347.194h503.322v50.869c0,10.247-8.307,18.554-18.554,18.554H18.704
		c-10.247,0-18.554-8.307-18.554-18.554V347.194z"/>
	<circle style="fill:#7F8C8D;" cx="251.811" cy="381.905" r="8.678"/>
	<path style="fill:#FFFFFF;" d="M399.028,208.038c-8.893,13.97-20.742,25.819-34.712,34.712l61.054,61.054
		c9.585,9.585,25.126,9.585,34.712,0c9.585-9.585,9.585-25.126,0-34.712L399.028,208.038z"/>
	<path style="fill:#71C285;" d="M191.065,147.6v164.881h52.068v-69.92C210.699,221.877,191.066,186.069,191.065,147.6z"/>
	<path style="fill:#CC66A1;" d="M243.133,242.562v69.92h52.068v-52.506C276.669,258.58,258.776,252.596,243.133,242.562z"/>
	<g>
		<path style="fill:#FFFFFF;" d="M277.845,182.312c-3.509-0.001-6.673-2.115-8.016-5.357c-1.343-3.242-0.601-6.974,1.88-9.456
			l52.068-52.068c2.185-2.225,5.396-3.106,8.411-2.308c3.015,0.798,5.37,3.153,6.168,6.168c0.798,3.015-0.083,6.226-2.308,8.411
			L283.98,179.77C282.355,181.4,280.147,182.315,277.845,182.312z"/>
		<path style="fill:#FFFFFF;" d="M329.913,156.278c-2.302,0.001-4.509-0.913-6.137-2.541c-1.628-1.628-2.542-3.835-2.541-6.137
			v-17.356h-17.356c-4.793,0-8.678-3.885-8.678-8.678c0-4.793,3.885-8.678,8.678-8.678h26.034c2.302-0.001,4.509,0.913,6.137,2.541
			c1.628,1.628,2.542,3.835,2.541,6.137V147.6c0.001,2.302-0.914,4.509-2.541,6.137
			C334.422,155.365,332.214,156.279,329.913,156.278z"/>
	</g>
</g>
<g>
</g>
<g>
</g>
<g>
</g>
<g>
</g>
<g>
</g>
<g>
</g>
<g>
</g>
<g>
</g>
<g>
</g>
<g>
</g>
<g>
</g>
<g>
</g>
<g>
</g>
<g>
</g>
<g>
</g>
</svg>
