<?xml version="1.0" encoding="iso-8859-1"?>
<!-- Generator: Adobe Illustrator 19.0.0, SVG Export Plug-In . SVG Version: 6.00 Build 0)  -->
<svg version="1.1" id="Capa_1" xmlns="http://www.w3.org/2000/svg" xmlns:xlink="http://www.w3.org/1999/xlink" x="0px" y="0px"
	 viewBox="0 0 511.943 511.943" style="enable-background:new 0 0 511.943 511.943;" xml:space="preserve">
<g>
	<path style="fill:#59474E;" d="M255.944,507.705c-4.713,0-8.533-3.821-8.533-8.533V260.238c0-4.713,3.82-8.533,8.533-8.533
		s8.533,3.821,8.533,8.533v238.933C264.478,503.885,260.657,507.705,255.944,507.705z"/>
	<path style="fill:#4C8056;" d="M256.05,430.905c0,0,16.1-128.804,118.673-136.202c2.431-0.219,4.84,0.605,6.626,2.268
		c1.786,1.663,2.782,4.007,2.737,6.447C383.152,333.891,371.139,430.905,256.05,430.905z"/>
	<path style="fill:#71C285;" d="M256.05,465.038c0,0-11.817-94.532-87.097-99.962c-1.784-0.161-3.552,0.444-4.863,1.665
		c-1.311,1.22-2.042,2.94-2.009,4.731C162.766,393.838,171.583,465.038,256.05,465.038z"/>
	<g>
		<path style="fill:#59474E;" d="M503.411,379.705c-2.264,0.003-4.435-0.897-6.033-2.5l-28.1-28.1l-28.1,28.1
			c-3.338,3.296-8.711,3.279-12.029-0.038c-3.317-3.317-3.334-8.691-0.038-12.029l34.133-34.133c1.6-1.601,3.77-2.5,6.033-2.5
			s4.433,0.899,6.033,2.5l34.133,34.133c2.44,2.441,3.169,6.11,1.849,9.299C509.973,377.626,506.862,379.705,503.411,379.705z"/>
		<path style="fill:#59474E;" d="M452.211,507.705H59.678c-14.132-0.015-25.585-11.468-25.6-25.6V345.572
			c0-4.713,3.821-8.533,8.533-8.533s8.533,3.821,8.533,8.533v136.533c0.006,4.71,3.823,8.527,8.533,8.533h392.533
			c4.71-0.006,8.527-3.823,8.533-8.533V337.038c0-4.713,3.82-8.533,8.533-8.533s8.533,3.82,8.533,8.533v145.067
			C477.796,496.237,466.343,507.69,452.211,507.705z"/>
		<path style="fill:#59474E;" d="M76.744,388.238c-2.264,0.003-4.435-0.897-6.033-2.5l-28.1-28.1l-28.1,28.1
			c-3.341,3.281-8.701,3.256-12.012-0.054c-3.311-3.311-3.335-8.671-0.054-12.012l34.133-34.133c1.6-1.601,3.77-2.5,6.033-2.5
			s4.433,0.899,6.033,2.5l34.133,34.133c2.44,2.441,3.17,6.11,1.849,9.299C83.306,386.159,80.195,388.238,76.744,388.238z"/>
	</g>
	<path style="fill:#81CCB8;" d="M503.411,243.172V21.305c-0.027-9.414-7.652-17.039-17.067-17.067h-460.8
		C16.13,4.266,8.505,11.891,8.478,21.305v221.867c0.028,9.414,7.653,17.039,17.067,17.067h460.8
		C495.759,260.211,503.384,252.586,503.411,243.172z"/>
	<path style="fill:#4C8056;" d="M435.144,132.238c-0.002,9.053,3.593,17.737,9.995,24.139c6.402,6.402,15.085,9.997,24.139,9.995
		v59.733H42.611v-59.733c18.851,0,34.133-15.282,34.133-34.133S61.462,98.105,42.611,98.105V38.372h426.667v59.733
		c-9.053-0.003-17.737,3.593-24.139,9.995S435.142,123.185,435.144,132.238z"/>
	<g>
		<circle style="fill:#81CCB8;" cx="255.944" cy="132.238" r="93.867"/>
		<path style="fill:#81CCB8;" d="M392.478,157.838c-4.713,0-8.533-3.821-8.533-8.533v-34.133c0-4.713,3.821-8.533,8.533-8.533
			c4.713,0,8.533,3.821,8.533,8.533v34.133C401.011,154.018,397.191,157.838,392.478,157.838z"/>
		<path style="fill:#81CCB8;" d="M119.411,157.838c-4.713,0-8.533-3.821-8.533-8.533v-34.133c0-4.713,3.821-8.533,8.533-8.533
			c4.713,0,8.533,3.821,8.533,8.533v34.133C127.944,154.018,124.124,157.838,119.411,157.838z"/>
	</g>
	<g>
		<path style="fill:#4C8056;" d="M255.944,191.972c-23.525,0-42.667-15.312-42.667-34.133c0-4.713,3.821-8.533,8.533-8.533
			s8.533,3.821,8.533,8.533c0,9.25,11.725,17.067,25.6,17.067c13.875,0,25.6-7.817,25.6-17.067c0-9.25-11.725-17.067-25.6-17.067
			c-23.525,0-42.667-15.312-42.667-34.133s19.142-34.133,42.667-34.133s42.667,15.312,42.667,34.133
			c0,4.713-3.821,8.533-8.533,8.533s-8.533-3.821-8.533-8.533c0-9.25-11.725-17.067-25.6-17.067c-13.875,0-25.6,7.817-25.6,17.067
			s11.725,17.067,25.6,17.067c23.525,0,42.667,15.312,42.667,34.133S279.469,191.972,255.944,191.972z"/>
		<path style="fill:#4C8056;" d="M255.944,200.505c-4.713,0-8.533-3.82-8.533-8.533V72.505c0-4.713,3.82-8.533,8.533-8.533
			s8.533,3.821,8.533,8.533v119.467C264.478,196.685,260.657,200.505,255.944,200.505z"/>
	</g>
</g>
<g>
</g>
<g>
</g>
<g>
</g>
<g>
</g>
<g>
</g>
<g>
</g>
<g>
</g>
<g>
</g>
<g>
</g>
<g>
</g>
<g>
</g>
<g>
</g>
<g>
</g>
<g>
</g>
<g>
</g>
</svg>
