<svg height="511.9564pt" viewBox="0 0 511.9564 511.9564" width="511.9564pt" xmlns="http://www.w3.org/2000/svg"><path d="m511.957031 255.976562c0 141.375-114.605469 255.980469-255.980469 255.980469-141.371093 0-255.976562-114.605469-255.976562-255.980469 0-141.371093 114.605469-255.976562 255.976562-255.976562 141.375 0 255.980469 114.605469 255.980469 255.976562zm0 0" fill="#6770e6"/><path d="m255.976562 14c139.035157 0 252.171876 110.84375 255.882813 248.976562.0625-2.324218.097656-4.660156.097656-7 0-141.371093-114.605469-255.976562-255.980469-255.976562-141.371093 0-255.976562 114.605469-255.976562 255.976562 0 2.339844.0351562 4.675782.0976562 7 3.7109378-138.132812 116.8476558-248.976562 255.8789058-248.976562zm0 0" fill="#8f95e6"/><path d="m255.976562 497.957031c139.035157 0 252.171876-110.84375 255.882813-248.980469.0625 2.328126.097656 4.660157.097656 7 0 141.375-114.605469 255.980469-255.980469 255.980469-141.371093 0-255.976562-114.605469-255.976562-255.980469 0-2.339843.0351562-4.671874.0976562-7 3.7109378 138.136719 116.8476558 248.980469 255.8789058 248.980469zm0 0" fill="#5861c7"/><path d="m467.722656 255.976562c0 116.945313-94.800781 211.746094-211.746094 211.746094-116.941406 0-211.742187-94.800781-211.742187-211.746094 0-116.941406 94.800781-211.742187 211.742187-211.742187 116.945313 0 211.746094 94.800781 211.746094 211.742187zm0 0" fill="#ffefe4"/><path d="m110.15625 241.890625c10.671875-6.925781 21.640625-13.511719 31.242188-21.855469 14.472656-12.578125 22.898437-26.351562 5.660156-43.59375 0 0-46.378906-46.378906-46.378906-46.378906-7.128907-7.125-18.949219-10.324219-28.269532-5.867188-5.011718 2.394532-9.132812 6.277344-13.085937 10.183594-3.910157 3.859375-7.730469 7.773438-11.425781 11.746094-31.113282 33.433594-53.484376 71.136719-46.671876 119.308594 3.53125 24.949218 13.835938 48.523437 26.636719 70.035156 35.347657 59.394531 89.054688 113.171875 148.625 148.625 21.511719 12.800781 45.085938 23.105469 70.03125 26.632812 48.175781 6.816407 85.875-15.554687 119.3125-46.667968 3.96875-3.695313 7.882813-7.515625 11.746094-11.425782 3.902344-3.949218 7.789063-8.074218 10.183594-13.085937 4.457031-9.324219 1.261719-21.144531-5.867188-28.269531 0 0-46.378906-46.378906-46.378906-46.378906-17.242187-17.242188-31.015625-8.8125-43.59375 5.660156-8.34375 9.601562-14.929687 20.570312-21.855469 31.242187-5.207031 8.019531-10.941406 14.808594-21.246094 14.015625-22.078124-1.699218-43.386718-20.488281-59.542968-34.015625-21.847656-18.292969-42.164063-38.65625-60.351563-60.597656-13.125-15.832031-31.136719-36.554687-32.789062-58.070313-.789063-10.300781 5.996093-16.039062 14.019531-21.242187zm0 0" fill="#d476e2"/><g fill="#b665c2"><path d="m387.761719 425.546875c-2.394531 5.011719-6.28125 9.132813-10.183594 13.085937-3.863281 3.910157-7.773437 7.730469-11.746094 11.425782-33.4375 31.113281-71.136719 53.484375-119.3125 46.667968-24.945312-3.527343-48.519531-13.832031-70.03125-26.632812-59.570312-35.453125-113.277343-89.230469-148.625-148.625-12.800781-21.511719-23.105469-45.085938-26.636719-70.035156-.480468-3.421875-.804687-6.789063-1-10.113282-.464843 7.746094-.179687 15.769532 1 24.113282 3.53125 24.949218 13.835938 48.523437 26.636719 70.035156 35.347657 59.394531 89.054688 113.171875 148.625 148.625 21.511719 12.800781 45.085938 23.105469 70.03125 26.632812 48.175781 6.816407 85.875-15.554687 119.3125-46.667968 3.96875-3.695313 7.882813-7.515625 11.746094-11.425782 3.902344-3.949218 7.789063-8.074218 10.183594-13.085937 2.464843-5.160156 2.582031-11.082031.992187-16.550781-.28125.867187-.59375 1.722656-.992187 2.550781zm0 0"/><path d="m72.410156 124.195312c-5.011718 2.394532-9.132812 6.277344-13.085937 10.183594-.664063.65625-1.3125 1.324219-1.972657 1.984375l83.839844 83.84375c.070313-.058593.140625-.113281.207032-.171875 14.472656-12.578125 22.898437-26.351562 5.660156-43.59375 0 0-46.378906-46.378906-46.378906-46.378906-7.128907-7.128906-18.949219-10.324219-28.269532-5.867188zm0 0"/><path d="m381.894531 411.277344s-46.378906-46.378906-46.378906-46.378906c-17.242187-17.242188-31.015625-8.8125-43.59375 5.660156-.058594.066406-.113281.136718-.171875.207031l83.84375 83.839844c.660156-.660157 1.328125-1.308594 1.984375-1.972657 3.902344-3.949218 7.789063-8.074218 10.183594-13.085937 4.457031-9.324219 1.261719-21.144531-5.867188-28.269531zm0 0"/><path d="m381.894531 411.277344s-46.378906-46.378906-46.378906-46.378906c-17.242187-17.242188-31.015625-8.8125-43.59375 5.660156-.058594.066406-.113281.136718-.171875.207031l83.84375 83.839844c.660156-.660157 1.328125-1.308594 1.984375-1.972657 3.902344-3.949218 7.789063-8.074218 10.183594-13.085937 4.457031-9.324219 1.261719-21.144531-5.867188-28.269531zm0 0"/></g><path d="m388.730469 437.066406c.144531-.445312.285156-.894531.398437-1.347656.058594-.230469.101563-.464844.152344-.695312.09375-.433594.183594-.867188.25-1.304688.035156-.234375.0625-.464844.089844-.703125.054687-.445313.097656-.890625.128906-1.339844.011719-.222656.019531-.445312.027344-.664062.015625-.472657.019531-.945313.007812-1.417969-.007812-.199219-.011718-.398438-.023437-.597656-.023438-.507813-.066407-1.019532-.125-1.527344-.019531-.160156-.035157-.324219-.054688-.484375-.074219-.566406-.167969-1.132813-.28125-1.695313-.019531-.101562-.035156-.203124-.058593-.308593-.140626-.664063-.304688-1.328125-.492188-1.984375-.28125.863281-.59375 1.71875-.992188 2.550781-2.394531 5.007813-6.28125 9.132813-10.183593 13.082031-2.988281 3.027344-6.023438 5.980469-9.078125 8.886719l7.089844 7.089844c.660156-.660157 1.328124-1.308594 1.988281-1.976563 1.460937-1.480468 2.921875-2.984375 4.304687-4.554687 2.300782-2.609375 4.378906-5.394531 5.878906-8.527344.292969-.617187.550782-1.246094.777344-1.882813.078125-.199218.132813-.398437.195313-.597656zm0 0" fill="#94529e"/><path d="m97.128906 269.488281c-.824218 2.253907-1.210937 4.765625-.988281 7.644531 1.652344 21.515626 19.660156 42.238282 32.785156 58.070313 18.191407 21.941406 38.503907 42.304687 60.351563 60.597656 16.160156 13.527344 37.464844 32.316407 59.546875 34.015625 10.300781.792969 16.039062-5.992187 21.246093-14.015625 6.921876-10.671875 13.507813-21.640625 21.851563-31.242187 12.578125-14.472656 26.355469-22.902344 43.59375-5.660156 0 0 46.378906 46.378906 46.378906 46.378906 3.1875 3.183594 5.574219 7.304687 6.859375 11.71875 2.84375-8.84375-.363281-19.226563-6.859375-25.71875 0 0-46.378906-46.378906-46.378906-46.378906-17.238281-17.242188-31.011719-8.8125-43.59375 5.660156-8.34375 9.601562-14.929687 20.570312-21.851563 31.242187-5.207031 8.019531-10.945312 14.808594-21.246093 14.015625-22.082031-1.699218-43.386719-20.488281-59.546875-34.015625-21.847656-18.292969-42.160156-38.65625-60.351563-60.597656-11.824219-14.265625-27.578125-32.507813-31.796875-51.714844zm0 0" fill="#ea82fa"/><path d="m298.628906 377.640625c10.789063-9.710937 22.65625-12.976563 36.886719 1.253906 0 0 46.378906 46.382813 46.378906 46.382813 3.183594 3.183594 5.574219 7.300781 6.859375 11.71875 1.394532-4.34375 1.324219-9.054688.128906-13.5-.027343-.113282-.054687-.226563-.089843-.339844-.117188-.417969-.253907-.835938-.390625-1.25-.058594-.175781-.117188-.351562-.179688-.527344-.132812-.371094-.273437-.734375-.421875-1.097656-.089843-.21875-.179687-.4375-.273437-.652344-.144532-.328125-.289063-.652344-.445313-.972656-.121093-.246094-.242187-.492188-.371093-.734375-.148438-.289063-.300782-.578125-.460938-.863281-.148438-.265625-.308594-.527344-.46875-.789063-.152344-.253906-.308594-.511719-.46875-.757812-.1875-.289063-.382812-.566407-.582031-.847657-.152344-.214843-.300781-.433593-.460938-.644531-.234375-.3125-.484375-.617187-.734375-.917969-.132812-.164062-.265625-.335937-.40625-.496093-.394531-.460938-.804687-.902344-1.230468-1.328125 0 0-2.21875-2.222656-5.6875-5.6875-1.488282-1.488282-3.203126-3.203125-5.070313-5.070313-.621094-.625-1.261719-1.261719-1.917969-1.917969-3.269531-3.269531-6.890625-6.890624-10.515625-10.515624-.722656-.722657-1.449219-1.449219-2.171875-2.171876-10.828125-10.828124-21.015625-21.019531-21.015625-21.019531-1.617187-1.613281-3.203125-3.003906-4.761719-4.1875-.519531-.394531-1.035156-.761719-1.546874-1.109375-2.566407-1.742187-5.050782-2.914062-7.46875-3.59375-11.121094-3.128906-20.777344 4.148438-29.820313 14.550782-.058594.070312-.113281.140624-.167969.207031zm0 0" fill="#d476e2"/><path d="m47.898438 160.125c3.695312-3.972656 7.515624-7.882812 11.425781-11.746094 3.949219-3.90625 8.070312-7.789062 13.085937-10.183594 9.320313-4.457031 21.140625-1.261718 28.269532 5.867188 0 0 46.378906 46.378906 46.378906 46.378906 4.191406 4.191406 6.855468 8.179688 8.296875 11.996094 2.941406-7.851562 1.316406-16.386719-8.296875-25.996094 0 0-46.378906-46.378906-46.378906-46.378906-7.128907-7.125-18.949219-10.324219-28.269532-5.867188-5.011718 2.394532-9.132812 6.277344-13.085937 10.183594-3.910157 3.859375-7.730469 7.773438-11.425781 11.746094-28.898438 31.058594-50.242188 65.804688-47.671876 109.195312 2.214844-36.984374 21.949219-67.550781 47.671876-95.195312zm0 0" fill="#ea82fa"/><path d="m57.351562 136.363281 7.167969 7.167969c2.429688-2.082031 5.007813-3.960938 7.890625-5.335938 9.324219-4.457031 21.144532-1.261718 28.269532 5.867188 0 0 46.378906 46.378906 46.378906 46.378906 4.195312 4.191406 6.859375 8.179688 8.296875 11.996094.175781-.472656.335937-.945312.480469-1.421875.019531-.066406.035156-.136719.054687-.203125.121094-.410156.226563-.820312.320313-1.234375.019531-.101563.042968-.199219.0625-.300781.078124-.386719.148437-.769532.203124-1.160156.019532-.113282.035157-.230469.050782-.34375.046875-.378907.082031-.761719.105468-1.144532.007813-.117187.019532-.238281.023438-.359375.019531-.390625.019531-.78125.015625-1.171875-.003906-.113281 0-.222656-.003906-.332031-.015625-.425781-.050781-.859375-.09375-1.292969-.011719-.074218-.011719-.148437-.023438-.222656-.117187-1.03125-.328125-2.078125-.628906-3.136719-.015625-.050781-.035156-.097656-.050781-.148437-.132813-.460938-.289063-.929688-.460938-1.398438-.054687-.148437-.121094-.300781-.179687-.449218-.144531-.371094-.296875-.742188-.46875-1.117188-.082031-.1875-.175781-.375-.269531-.5625-.164063-.339844-.335938-.683594-.519532-1.027344-.109375-.207031-.226562-.414062-.347656-.621094-.1875-.328124-.382812-.660156-.59375-.996093-.132812-.214844-.269531-.429688-.414062-.648438-.214844-.328125-.445313-.660156-.683594-.996093-.15625-.21875-.308594-.4375-.472656-.65625-.253907-.339844-.523438-.683594-.792969-1.023438-.171875-.214844-.335938-.429688-.515625-.648438-.308594-.371093-.640625-.746093-.972656-1.121093-.167969-.1875-.324219-.375-.496094-.5625-.507813-.554688-1.039063-1.113281-1.597656-1.675781-.011719-.007813-.015626-.015626-.027344-.023438 0 0-4.53125-4.53125-10.757813-10.757812-3.113281-3.113282-6.652343-6.652344-10.261719-10.261719-1.445312-1.445313-2.898437-2.898438-4.34375-4.34375-2.886718-2.886719-5.730468-5.726563-8.34375-8.34375-1.308593-1.308594-2.5625-2.558594-3.730468-3.730469-5.273438-5.273438-8.941406-8.941406-8.941406-8.941406-1.785157-1.78125-3.855469-3.320313-6.113282-4.550782-3.949218-2.15625-8.449218-3.382812-12.902344-3.367187-3.183593.011719-6.339843.65625-9.253906 2.050781-4.386718 2.09375-8.089844 5.332032-11.59375 8.722656-.5.484376-.996094.972657-1.488281 1.460938-.667969.660156-1.316406 1.328125-1.976563 1.988281zm0 0" fill="#d476e2"/><path d="m166.921875 302.277344c0-6.273438 2.527344-12.296875 6.992187-16.699219 8.339844-8.222656 16.160157-15.988281 23.46875-23.296875 3.910157-3.910156 7.914063-7.914062 12.015626-12.015625 4.09375-4.09375 7.914062-7.914063 11.457031-11.457031 3.535156-3.535156 6.707031-6.75 9.503906-9.640625 2.792969-2.886719 4.933594-5.171875 6.425781-6.847657 2.980469-3.535156 5.632813-6.703124 7.964844-9.5 2.328125-2.792968 4.191406-5.539062 5.589844-8.242187 1.398437-2.699219 2.464844-5.398437 3.210937-8.105469.742188-2.695312 1.121094-5.628906 1.121094-8.800781 0-6.148437-2.425781-11.5-7.265625-16.066406-4.847656-4.5625-11.460938-6.847657-19.84375-6.847657-6.160156 0-15.894531 3.523438-22.878906 12.011719-5.042969 6.128907-13.5625 8.140625-20.902344 5.121094-11.359375-4.679687-14.914062-18.984375-7.152344-28.503906 3.292969-4.035157 6.515625-7.101563 8.738282-8.890625 5.214843-4.191406 11.410156-7.632813 18.582031-10.335938 7.167969-2.699218 15.230469-4.050781 24.171875-4.050781 9.683594 0 18.445312 1.445313 26.269531 4.328125 7.824219 2.890625 14.4375 6.847656 19.839844 11.875 5.402343 5.03125 9.59375 10.949219 12.574219 17.746094 2.980468 6.800781 4.472656 14.113281 4.472656 21.9375 0 11.925781-2.933594 22.871094-8.800782 32.832031-5.867187 9.96875-12.996093 19.238281-21.378906 27.804687l-24.035156 24.03125c-6.335938 6.335938-13.507812 13.414063-21.515625 21.238282l1.117187 1.675781h61.339844c8.871094 0 16.066406 7.195313 16.066406 16.066406 0 8.875-7.195312 16.070313-16.066406 16.070313h-87.640625c-12.945312 0-23.441406-10.496094-23.441406-23.4375zm0 0" fill="#ff8354"/><path d="m382.371094 308.671875v-18.167969h-65.605469c-12.535156 0-22.695313-10.160156-22.695313-22.699218 0-4.511719 1.34375-8.921876 3.863282-12.664063l73.390625-109.121094c4.808593-7.152343 12.863281-11.445312 21.480469-11.445312 14.300781 0 25.894531 11.59375 25.894531 25.894531v95.945312h6.988281c9.414062 0 17.042969 7.632813 17.042969 17.046876 0 9.414062-7.632813 17.042968-17.042969 17.042968h-6.988281v18.167969c0 9.414063-7.632813 17.042969-17.042969 17.042969h-2.238281c-9.414063 0-17.046875-7.628906-17.046875-17.042969zm0-119.605469h-2.234375l-45.546875 67.347656h47.78125zm0 0" fill="#ff8354"/></svg>