<svg height="512pt" viewBox="-22 0 511 512" width="512pt" xmlns="http://www.w3.org/2000/svg"><path d="m341.960938 503.53125 26.875-13.335938-121.417969-244.664062c-2.53125-5.101562-7.738281-8.332031-13.4375-8.332031-5.695313 0-10.902344 3.230469-13.433594 8.332031l-121.417969 244.664062 26.875 13.335938 17.976563-36.226562h180.007812zm-107.980469-217.585938 24.175781 48.714844-37.667969-21.53125zm-26.851563 54.105469 52.484375 29.996094-91.476562 48.578125zm-10.203125 97.253907 88.777344-47.144532 23.394531 47.144532zm0 0" fill="#d476e2"/><path d="m283.035156 233.480469c0 27.09375-21.960937 49.054687-49.054687 49.054687-27.089844 0-49.050781-21.960937-49.050781-49.054687 0-27.089844 21.960937-49.050781 49.050781-49.050781 27.09375 0 49.054687 21.960937 49.054687 49.050781zm0 0" fill="#6770e6"/><path d="m233.980469 198.429688c24.714843 0 45.152343 18.277343 48.550781 42.050781.328125-2.285157.507812-4.621094.507812-7 0-27.089844-21.964843-49.050781-49.054687-49.050781-27.09375 0-49.054687 21.960937-49.054687 49.050781 0 2.378906.179687 4.714843.507812 7 3.390625-23.773438 23.832031-42.050781 48.542969-42.050781zm0 0" fill="#8f95e6"/><path d="m329.808594 326.269531c-4.214844 0-8.46875-1.328125-12.089844-4.082031-8.792969-6.6875-10.5-19.234375-3.8125-28.027344 13.359375-17.5625 20.417969-38.542968 20.417969-60.679687 0-55.328125-45.015625-100.339844-100.34375-100.339844s-100.339844 45.011719-100.339844 100.339844c0 22.132812 7.0625 43.117187 20.417969 60.679687 6.683594 8.792969 4.980468 21.339844-3.8125 28.027344-8.789063 6.683594-21.339844 4.980469-28.027344-3.8125-18.695312-24.582031-28.578125-53.9375-28.578125-84.890625 0-77.382813 62.960937-140.34375 140.339844-140.34375 77.386719 0 140.34375 62.960937 140.34375 140.34375 0 30.953125-9.882813 60.308594-28.578125 84.890625-3.9375 5.171875-9.898438 7.894531-15.9375 7.894531zm0 0" fill="#6770e6"/><path d="m233.980469 107.140625c74.996093 0 136.4375 59.125 140.160156 133.210937.109375-2.28125.179687-4.570312.179687-6.871093 0-77.382813-62.957031-140.339844-140.339843-140.339844-77.382813 0-140.339844 62.957031-140.339844 140.339844 0 2.300781.070313 4.589843.179687 6.871093 3.726563-74.082031 65.167969-133.210937 140.160157-133.210937zm0 0" fill="#8f95e6"/><path d="m94.179688 414.832031c-4.644532 0-9.308594-1.609375-13.09375-4.890625-51.214844-44.40625-80.585938-108.726562-80.585938-176.457031 0-128.746094 104.738281-233.484375 233.480469-233.484375 128.742187 0 233.484375 104.738281 233.484375 233.480469 0 67.734375-29.375 132.050781-80.589844 176.460937-8.34375 7.230469-20.96875 6.335938-28.210938-2.007812-7.234374-8.34375-6.335937-20.976563 2.007813-28.210938 42.449219-36.808594 66.792969-90.109375 66.792969-146.242187 0-106.6875-86.792969-193.480469-193.484375-193.480469-106.683594 0-193.480469 86.792969-193.480469 193.480469 0 56.128906 24.34375 109.433593 66.792969 146.242187 8.34375 7.234375 9.242187 19.867188 2.007812 28.210938-3.957031 4.5625-9.523437 6.898437-15.121093 6.898437zm0 0" fill="#6770e6"/><path d="m233.980469 14c126.40625 0 229.664062 100.972656 233.371093 226.496094.070313-2.332032.113282-4.671875.113282-7.015625 0-128.742188-104.742188-233.480469-233.484375-233.480469-128.742188 0-233.480469 104.738281-233.480469 233.480469 0 2.34375.042969 4.683593.113281 7.015625 3.707031-125.523438 106.960938-226.496094 233.367188-226.496094zm0 0" fill="#8f95e6"/><path d="m409.382812 512h-350.804687c-6.882813 0-12.464844-5.582031-12.464844-12.464844 0-6.886718 5.582031-12.46875 12.464844-12.46875h350.804687c6.886719 0 12.464844 5.582032 12.464844 12.46875.003906 6.882813-5.578125 12.464844-12.464844 12.464844zm0 0" fill="#6770e6"/><path d="m409.382812 498h-350.800781c-4.289062 0-8.070312-2.167969-10.316406-5.464844-1.355469 1.996094-2.152344 4.402344-2.152344 7 0 6.882813 5.582031 12.464844 12.46875 12.464844h350.800781c6.886719 0 12.46875-5.582031 12.46875-12.464844 0-2.597656-.796874-5.003906-2.152343-7-2.242188 3.296875-6.027344 5.464844-10.316407 5.464844zm0 0" fill="#5861c7"/></svg>