<svg height="512pt" viewBox="0 0 512 512" width="512pt" xmlns="http://www.w3.org/2000/svg"><path d="m25.949219 491.679688h460.101562c14.332031 0 25.949219-11.621094 25.949219-25.953126v-374.742187c0-14.332031-11.617188-25.949219-25.949219-25.949219h-460.101562c-14.332031 0-25.949219 11.617188-25.949219 25.949219v374.742187c0 14.332032 11.617188 25.953126 25.949219 25.953126zm0 0" fill="#ffefe4"/><path d="m486.050781 491.679688h-460.101562c-14.332031 0-25.949219-11.621094-25.949219-25.953126v20c0 14.332032 11.617188 25.953126 25.949219 25.953126h460.101562c14.332031 0 25.949219-11.621094 25.949219-25.953126v-20c0 14.332032-11.617188 25.953126-25.949219 25.953126zm0 0" fill="#edd4c2"/><path d="m0 167.53125h512v-78.453125c0-14.332031-11.617188-25.949219-25.949219-25.949219h-460.101562c-14.332031.003906-25.949219 11.621094-25.949219 25.949219zm0 0" fill="#ff8354"/><path d="m25.949219 83.132812h460.101562c14.332031 0 25.949219 11.617188 25.949219 25.949219v-20c0-14.332031-11.617188-25.949219-25.949219-25.949219h-460.101562c-14.332031 0-25.949219 11.617188-25.949219 25.945313v20c0-14.328125 11.617188-25.945313 25.949219-25.945313zm0 0" fill="#ffac8c"/><path d="m126.699219 103.378906c0 14.335938-11.625 25.960938-25.964844 25.960938-14.335937 0-25.960937-11.625-25.960937-25.960938 0-14.339844 11.625-25.964844 25.960937-25.964844 14.339844 0 25.964844 11.625 25.964844 25.964844zm0 0" fill="#e0734a"/><path d="m437.222656 103.378906c0 14.335938-11.621094 25.960938-25.960937 25.960938-14.339844 0-25.960938-11.625-25.960938-25.960938 0-14.339844 11.621094-25.964844 25.960938-25.964844 14.339843 0 25.960937 11.625 25.960937 25.964844zm0 0" fill="#e0734a"/><path d="m100.734375 115.652344c-8.167969 0-14.785156-6.621094-14.785156-14.789063v-86.074219c0-8.167968 6.621093-14.789062 14.785156-14.789062 8.167969 0 14.789063 6.621094 14.789063 14.789062v86.074219c.003906 8.167969-6.621094 14.789063-14.789063 14.789063zm0 0" fill="#69ebfc"/><path d="m100.738281 0c-8.167969 0-14.789062 6.621094-14.789062 14.789062v20c0-8.167968 6.621093-14.789062 14.789062-14.789062s14.789063 6.621094 14.789063 14.789062v-20c0-8.167968-6.625-14.789062-14.789063-14.789062zm0 0" fill="#a1f1fc"/><path d="m411.261719 115.652344c-8.167969 0-14.789063-6.621094-14.789063-14.789063v-86.074219c0-8.167968 6.625-14.789062 14.789063-14.789062 8.167969 0 14.789062 6.621094 14.789062 14.789062v86.074219c0 8.167969-6.621093 14.789063-14.789062 14.789063zm0 0" fill="#69ebfc"/><path d="m411.261719 0c-8.167969 0-14.789063 6.621094-14.789063 14.789062v20c0-8.167968 6.621094-14.789062 14.789063-14.789062s14.789062 6.621094 14.789062 14.789062v-20c0-8.167968-6.621093-14.789062-14.789062-14.789062zm0 0" fill="#a1f1fc"/><g fill="#ff8354"><path d="m185.890625 432.386719c-8.484375 0-16.617187-1.113281-24.394531-3.332031s-14.898438-5.609376-21.363282-10.152344c-6.46875-4.542969-12.171874-10.253906-17.121093-17.121094-.417969-.582031-.828125-1.167969-1.230469-1.765625-7.148438-10.609375-2.804688-25.097656 9.078125-29.828125l.175781-.070312c8.984375-3.582032 19.019532-.054688 24.335938 8.023437 1.980468 3.007813 4.273437 5.582031 6.886718 7.730469 6.257813 5.152344 14.136719 7.726562 23.632813 7.726562 4.246094 0 8.285156-.652344 12.125-1.96875 3.832031-1.3125 7.167969-3.183594 10-5.609375 2.828125-2.421875 5.097656-5.300781 6.816406-8.632812 1.714844-3.335938 2.574219-7.125 2.574219-11.367188 0-8.886719-3.285156-15.859375-9.847656-20.910156-6.566406-5.046875-15.605469-7.574219-27.121094-7.574219h-1.515625c-9.039063 0-16.363281-7.328125-16.363281-16.363281v-3.332031c0-9.039063 7.324218-16.367188 16.363281-16.367188 4.039063 0 7.976563-.5 11.816406-1.515625 3.835938-1.007812 7.222657-2.574219 10.152344-4.695312 2.925781-2.125 5.25-4.851563 6.972656-8.183594 1.710938-3.335937 2.574219-7.21875 2.574219-11.667969 0-6.867187-2.421875-12.46875-7.273438-16.816406-4.847656-4.34375-11.417968-6.519531-19.699218-6.519531-6.535156 0-15.738282 3.417969-23.167969 11.863281-5.484375 6.234375-14.382813 8.210938-22.070313 5.074219-12.378906-5.054688-16.289062-20.78125-7.59375-30.9375 3.058594-3.574219 5.894532-6.214844 8.136719-7.964844 5.550781-4.34375 12.070313-7.878906 19.542969-10.605469 7.472656-2.730468 16.0625-4.09375 25.757812-4.09375 9.898438 0 18.941407 1.414063 27.125 4.242188 8.179688 2.832031 15.199219 6.71875 21.0625 11.667968 5.855469 4.953126 10.402344 10.808594 13.632813 17.574219 3.230469 6.773438 4.847656 14.09375 4.847656 21.972657 0 6.058593-.753906 11.515624-2.269531 16.363281-1.515625 4.847656-3.488281 9.195312-5.910156 13.03125-2.425782 3.839843-5.203125 7.121093-8.335938 9.851562-3.132812 2.726563-6.316406 4.898438-9.542968 6.515625v2.421875c9.695312 3.839844 17.726562 10 24.089843 18.484375 6.363281 8.488282 9.546875 19.199219 9.546875 32.125 0 9.09375-1.71875 17.425782-5.152344 25-3.4375 7.574219-8.335937 14.199219-14.699218 19.851563-6.363282 5.65625-13.992188 10.050781-22.878906 13.183593-8.886719 3.125-18.785157 4.691407-29.695313 4.691407zm0 0"/><path d="m330.746094 407.691406v-140.761718l-19.609375 8.265624c-9.445313 3.980469-20.335938-.394531-24.402344-9.800781-4.007813-9.273437.082031-20.054687 9.234375-24.335937l35.519531-16.609375c5.898438-2.757813 12.332031-4.1875 18.847657-4.1875h9.449218c5.890625 0 10.660156 4.773437 10.660156 10.660156v176.769531c0 10.960938-8.886718 19.847656-19.847656 19.847656-10.964844 0-19.851562-8.886718-19.851562-19.847656zm0 0"/></g></svg>