<svg height="512pt" viewBox="0 -25 512.002 512" width="512pt" xmlns="http://www.w3.org/2000/svg"><path d="m512 414.332031h-512v-370.765625c0-5.628906 4.5625-10.1875 10.1875-10.1875h491.625c5.628906 0 10.191406 4.558594 10.191406 10.1875v370.765625zm0 0" fill="#69ebfc"/><path d="m501.8125 33.378906h-491.625c-5.625 0-10.1875 4.558594-10.1875 10.1875v14c0-5.628906 4.5625-10.1875 10.1875-10.1875h491.625c5.625 0 10.1875 4.558594 10.1875 10.1875v-14c0-5.628906-4.5625-10.1875-10.1875-10.1875zm0 0" fill="#a1f1fc"/><path d="m30 290.03125v-116.589844c0-5 4.054688-9.054687 9.054688-9.054687h183.671874c5.003907 0 9.058594 4.054687 9.058594 9.054687v116.589844c0 5.003906-4.054687 9.058594-9.058594 9.058594h-183.671874c-5 0-9.054688-4.054688-9.054688-9.058594zm0 0" fill="#5fd4e3"/><path d="m46.730469 289.089844c-3.699219 0-6.730469-3.03125-6.730469-6.734375v-101.238281c0-3.71875 3.015625-6.730469 6.730469-6.730469h168.324219c3.703124 0 6.730468 3.03125 6.730468 6.730469v101.242187c0 3.71875-3.011718 6.730469-6.730468 6.730469zm0 0" fill="#ff8354"/><path d="m30 381.300781v-49.238281c0-5 4.054688-9.054688 9.054688-9.054688h183.671874c5.003907 0 9.058594 4.054688 9.058594 9.054688v49.238281c0 5.003907-4.054687 9.054688-9.058594 9.054688h-183.671874c-5 .003906-9.054688-4.050781-9.054688-9.054688zm0 0" fill="#5fd4e3"/><path d="m30 131.332031v-58.898437c0-5.003906 4.054688-9.054688 9.054688-9.054688h433.886718c5.003906 0 9.054688 4.050782 9.054688 9.054688v58.894531c0 5.003906-4.050782 9.058594-9.054688 9.058594h-433.886718c-5 0-9.054688-4.054688-9.054688-9.054688zm0 0" fill="#5fd4e3"/><path d="m40 125.125v-46.484375c0-2.90625 2.355469-5.261719 5.265625-5.261719h421.472656c2.90625 0 5.265625 2.355469 5.265625 5.261719v46.484375c0 2.90625-2.359375 5.265625-5.265625 5.265625h-421.472656c-2.910156-.003906-5.265625-2.359375-5.265625-5.265625zm0 0" fill="#ffefe4"/><path d="m17.375 455.636719-17.375-41.304688h512l-17.375 41.304688c-1.589844 3.78125-5.289062 6.238281-9.390625 6.238281h-458.46875c-4.101563-.003906-7.800781-2.460938-9.390625-6.238281zm0 0" fill="#5fd4e3"/><path d="m491.074219 447.871094h-470.148438c-3.609375 0-6.902343-1.816406-8.800781-4.714844l5.25 12.480469c1.589844 3.78125 5.289062 6.238281 9.390625 6.238281h458.464844c4.101562 0 7.800781-2.457031 9.390625-6.238281l5.25-12.480469c-1.894532 2.898438-5.1875 4.714844-8.796875 4.714844zm0 0" fill="#58c3d1"/><path d="m482 277.359375c0 62.40625-50.59375 113-113 113s-113-50.59375-113-113c0-62.410156 50.59375-113 113-113s113 50.589844 113 113zm0 0" fill="#5fd4e3"/><path d="m463.8125 277.359375c0 52.363281-42.449219 94.8125-94.8125 94.8125s-94.8125-42.449219-94.8125-94.8125 42.449219-94.8125 94.8125-94.8125 94.8125 42.449219 94.8125 94.8125zm0 0" fill="#69ebfc"/><path d="m443.953125 277.359375c0 41.394531-33.558594 74.953125-74.953125 74.953125s-74.953125-33.558594-74.953125-74.953125 33.558594-74.953125 74.953125-74.953125 74.953125 33.558594 74.953125 74.953125zm0 0" fill="#58c3d1"/><g fill="#e0734a"><path d="m102.683594 231.738281c0 11.527344-9.34375 20.871094-20.871094 20.871094s-20.871094-9.34375-20.871094-20.871094c0-11.527343 9.34375-20.871093 20.871094-20.871093s20.871094 9.34375 20.871094 20.871093zm0 0"/><path d="m200.847656 231.738281c0 11.527344-9.347656 20.871094-20.875 20.871094s-20.871094-9.34375-20.871094-20.871094c0-11.527343 9.34375-20.871093 20.871094-20.871093s20.875 9.34375 20.875 20.871093zm0 0"/><path d="m142.042969 234.925781h-22.300781c-1.429688 0-2.585938-1.15625-2.585938-2.585937v-5.898438c0-1.429687 1.15625-2.589844 2.585938-2.589844h22.296874c1.429688 0 2.589844 1.160157 2.589844 2.589844v5.898438c0 1.429687-1.160156 2.585937-2.585937 2.585937zm0 0"/></g><path d="m197.53125 362.246094h-105.804688c-2.941406 0-5.328124-2.386719-5.328124-5.328125v-.414063c0-2.941406 2.386718-5.328125 5.328124-5.328125h105.804688c2.941406 0 5.328125 2.386719 5.328125 5.328125v.414063c0 2.941406-2.386719 5.328125-5.328125 5.328125zm0 0" fill="#69ebfc"/><path d="m68.359375 362.246094h-7.789063c-.910156 0-1.640624-.734375-1.640624-1.640625v-7.789063c0-.90625.734374-1.640625 1.640624-1.640625h7.789063c.90625 0 1.640625.734375 1.640625 1.640625v7.789063c0 .90625-.734375 1.640625-1.640625 1.640625zm0 0" fill="#69ebfc"/><path d="m472 101.882812v-23.242187c0-2.90625-2.355469-5.261719-5.265625-5.261719h-421.46875c-2.90625 0-5.265625 2.355469-5.265625 5.261719v23.242187zm0 0" fill="#5861c7"/><path d="m447.507812 33.378906h-99.722656v-17.652344c0-8.683593 7.039063-15.726562 15.726563-15.726562h68.269531c8.683594 0 15.726562 7.039062 15.726562 15.726562zm0 0" fill="#ff8354"/><path d="m315.636719 33.378906h-59.722657v-17.652344c0-8.683593 7.039063-15.726562 15.726563-15.726562h28.269531c8.6875 0 15.726563 7.039062 15.726563 15.726562zm0 0" fill="#ff8354"/><path d="m431.78125.00390625h-68.269531c-8.6875 0-15.726563 7.03906275-15.726563 15.72656275v14c0-8.683594 7.039063-15.726563 15.726563-15.726563h68.269531c8.683594 0 15.726562 7.039063 15.726562 15.726563v-14c0-8.6875-7.042968-15.72656275-15.726562-15.72656275zm0 0" fill="#ffac8c"/><path d="m299.910156.00390625h-28.273437c-8.683594 0-15.726563 7.03906275-15.726563 15.72656275v14c0-8.683594 7.042969-15.726563 15.726563-15.726563h28.273437c8.683594 0 15.726563 7.039063 15.726563 15.726563v-14c0-8.6875-7.042969-15.72656275-15.726563-15.72656275zm0 0" fill="#ffac8c"/><path d="m216.164062 10.226562h-142.492187c-5.070313 0-9.179687 4.105469-9.179687 9.175782v13.976562h160.847656v-13.976562c0-5.070313-4.109375-9.175782-9.175782-9.175782zm0 0" fill="#58c3d1"/><path d="m216.164062 10.226562h-142.492187c-5.070313 0-9.179687 4.105469-9.179687 9.175782v13.976562h.003906c.015625-5.058594 4.113281-9.152344 9.175781-9.152344h142.492187c5.058594 0 9.160157 4.09375 9.175782 9.152344v-13.976562c0-5.070313-4.109375-9.175782-9.175782-9.175782zm0 0" fill="#5fd4e3"/></svg>