<svg height="512pt" viewBox="0 0 512 512.32205" width="512pt" xmlns="http://www.w3.org/2000/svg"><path d="m441.550781 305.351562h-36v-119.964843c0-82.371094-67.015625-149.386719-149.390625-149.386719s-149.386718 67.015625-149.386718 149.386719v119.964843h-36v-119.964843c0-102.222657 83.164062-185.386719 185.386718-185.386719 102.226563 0 185.390625 83.164062 185.390625 185.386719zm0 0" fill="#5861c7"/><path d="m256.160156 0c-102.222656 0-185.386718 83.164062-185.386718 185.386719v14c0-102.222657 83.164062-185.386719 185.386718-185.386719 102.226563 0 185.390625 83.164062 185.390625 185.386719v-14c0-102.222657-83.164062-185.386719-185.390625-185.386719zm0 0" fill="#6770e6"/><path d="m90.417969 512h-13.351563c-17.71875 0-32.082031-14.363281-32.082031-32.085938v-162.480468c0-17.71875 14.363281-32.082032 32.082031-32.082032h13.351563zm0 0" fill="#ff8354"/><path d="m138.179688 512h-31.761719v-226.648438h31.761719c17.71875 0 32.082031 14.363282 32.082031 32.082032v162.480468c0 17.722657-14.363281 32.085938-32.082031 32.085938zm0 0" fill="#ff8354"/><path d="m90.417969 285.351562h16v226.648438h-16zm0 0" fill="#e0734a"/><path d="m77.066406 285.351562c-17.71875 0-32.082031 14.363282-32.082031 32.082032v20c0-17.71875 14.363281-32.082032 32.082031-32.082032h13.351563v-20zm0 0" fill="#ffac8c"/><path d="m138.179688 285.351562h-31.765626v20h31.765626c17.71875 0 32.082031 14.363282 32.082031 32.082032v-20c0-17.71875-14.363281-32.082032-32.082031-32.082032zm0 0" fill="#ffac8c"/><path d="m90.414062 285.351562h16v20h-16zm0 0" fill="#ff8354"/><path d="m44.984375 483.875v-170.398438c-24.753906 0-44.824219 20.066407-44.824219 44.820313v80.753906c0 24.753907 20.070313 44.824219 44.824219 44.824219zm0 0" fill="#e0734a"/><g fill="#ff8354"><path d="m.160156 358.296875v14c0-24.753906 20.066406-44.824219 44.824219-44.824219v-14c-24.757813.003906-44.824219 20.070313-44.824219 44.824219zm0 0"/><path d="m421.90625 512h13.347656c17.722656 0 32.085938-14.363281 32.085938-32.085938v-162.480468c0-17.71875-14.363282-32.082032-32.085938-32.082032h-13.347656zm0 0"/><path d="m374.144531 512h31.761719v-226.648438h-31.761719c-17.722656 0-32.085937 14.363282-32.085937 32.082032v162.480468c0 17.722657 14.363281 32.085938 32.085937 32.085938zm0 0"/></g><path d="m421.90625 512h-16v-226.652344h16zm0 0" fill="#e0734a"/><path d="m467.339844 483.875v-170.398438c24.753906 0 44.820312 20.066407 44.820312 44.820313v80.757813c0 24.75-20.066406 44.820312-44.820312 44.820312zm0 0" fill="#e0734a"/><path d="m467.339844 313.476562v14c24.753906 0 44.820312 20.066407 44.820312 44.820313v-14c0-24.753906-20.066406-44.820313-44.820312-44.820313zm0 0" fill="#ff8354"/><path d="m435.253906 285.351562c17.722656 0 32.085938 14.363282 32.085938 32.082032v20c0-17.71875-14.363282-32.082032-32.085938-32.082032h-13.347656v-20zm0 0" fill="#ffac8c"/><path d="m374.144531 285.351562h31.761719v20h-31.761719c-17.722656 0-32.085937 14.363282-32.085937 32.082032v-20c0-17.71875 14.363281-32.082032 32.085937-32.082032zm0 0" fill="#ffac8c"/><path d="m405.90625 285.351562h16v20h-16zm0 0" fill="#ff8354"/><path d="m76.988281 511.679688c-17.71875-.035157-32.058593-14.421876-32.023437-32.144532l.035156-20c-.03125 17.722656 14.304688 32.109375 32.023438 32.144532l13.351562.023437-.035156 20zm0 0" fill="#e0734a"/><path d="m138.101562 511.789062-31.765624-.058593.035156-20 31.765625.058593c17.71875.03125 32.109375-14.308593 32.140625-32.027343l-.035156 20c-.03125 17.71875-14.421876 32.058593-32.140626 32.027343zm0 0" fill="#e0734a"/><path d="m90.339844 511.703125.035156-20 16 .027344-.035156 20zm0 0" fill="#c46540"/><path d="m.214844 438.59375.027344-14c-.046876 24.753906 19.984374 44.855469 44.738281 44.898438l-.027344 14c-24.753906-.042969-44.785156-20.144532-44.738281-44.898438zm0 0" fill="#c46540"/><path d="m467.3125 484.253906.023438-14c24.753906.042969 44.859374-19.984375 44.902343-44.738281l-.023437 14c-.046875 24.753906-20.148438 44.78125-44.902344 44.738281zm0 0" fill="#c46540"/><path d="m435.175781 512.320312c17.722657.035157 32.109375-14.304687 32.144531-32.023437l.035157-20c-.03125 17.71875-14.421875 32.058594-32.140625 32.023437l-13.351563-.023437-.035156 20zm0 0" fill="#e0734a"/><path d="m374.066406 512.210938 31.761719.058593.035156-20-31.761719-.058593c-17.71875-.03125-32.058593-14.421876-32.027343-32.140626l-.035157 20c-.03125 17.71875 14.304688 32.109376 32.027344 32.140626zm0 0" fill="#e0734a"/><path d="m405.828125 512.269531.035156-20 16 .027344-.035156 20zm0 0" fill="#c46540"/><path d="m353.496094 185.261719c0 53.753906-43.578125 97.332031-97.335938 97.332031-53.753906 0-97.332031-43.578125-97.332031-97.332031 0-53.757813 43.578125-97.335938 97.332031-97.335938 53.757813 0 97.335938 43.578125 97.335938 97.335938zm0 0" fill="#69ebfc"/><path d="m306.320312 132.101562-67.574218 12.4375c-1.261719.230469-2.183594 1.332032-2.183594 2.617188v57.375c-4.789062-2.835938-11.082031-3.773438-17.390625-2.085938-11.320313 3.03125-18.382813 13.363282-15.777344 23.078126 2.605469 9.710937 13.894531 15.132812 25.210938 12.101562 10.058593-2.691406 16.75-11.152344 16.292969-19.820312h.027343v-60.8125l56.175781-10.34375v44.234374c-4.789062-2.839843-11.082031-3.773437-17.386718-2.085937-11.320313 3.027344-18.386719 13.359375-15.78125 23.074219 2.609375 9.714844 13.894531 15.136718 25.214844 12.101562 9.890624-2.648437 16.53125-10.871094 16.3125-19.386718h.003906l.003906-69.867188c0-1.664062-1.511719-2.917969-3.148438-2.617188zm0 0" fill="#ffefe4"/></svg>