<svg height="512pt" viewBox="0 0 512 512.00008" width="512pt" xmlns="http://www.w3.org/2000/svg"><path d="m429.078125 0h-346.15625c-45.796875 0-82.921875 37.125-82.921875 82.921875v243.222656c0 45.796875 37.125 82.921875 82.921875 82.921875h14.144531v87.417969c0 13.796875 16.675782 20.703125 26.429688 10.949219l98.371094-98.367188h207.210937c45.796875 0 82.921875-37.125 82.921875-82.921875v-243.222656c0-45.796875-37.125-82.921875-82.921875-82.921875zm0 0" fill="#69ebfc"/><path d="m429.078125 0h-346.15625c-45.796875 0-82.921875 37.125-82.921875 82.921875v20c0-45.796875 37.125-82.917969 82.921875-82.917969h346.15625c45.796875 0 82.921875 37.121094 82.921875 82.917969v-20c0-45.796875-37.125-82.921875-82.921875-82.921875zm0 0" fill="#a1f1fc"/><path d="m97.066406 389.066406h-14.144531c-45.796875 0-82.921875-37.125-82.921875-82.921875v20c0 45.796875 37.125 82.921875 82.921875 82.921875h14.144531zm0 0" fill="#5fd4e3"/><path d="m429.078125 389.066406h-207.210937l-98.371094 98.367188c-9.753906 9.753906-26.429688 2.847656-26.429688-10.949219v20c0 13.796875 16.675782 20.703125 26.429688 10.949219l98.371094-98.367188h207.210937c45.796875 0 82.921875-37.125 82.921875-82.921875v-20c0 45.796875-37.125 82.921875-82.921875 82.921875zm0 0" fill="#5fd4e3"/><path d="m399.785156 205.648438c0 79.410156-64.375 143.785156-143.785156 143.785156s-143.785156-64.375-143.785156-143.785156c0-79.40625 64.375-143.78125 143.785156-143.78125s143.785156 64.375 143.785156 143.78125zm0 0" fill="#ffefe4"/><path d="m255.851562 147.414062c-3.40625 0-6.65625-.644531-9.757812-1.953124-3.105469-1.296876-5.804688-3.097657-8.105469-5.402344-2.300781-2.296875-4.105469-4.953125-5.402343-7.953125-1.300782-3.003907-1.953126-6.304688-1.953126-9.90625 0-3.601563.648438-6.90625 1.953126-9.90625 1.296874-3.003907 3.101562-5.652344 5.402343-7.957031 2.296875-2.296876 5-4.101563 8.105469-5.402344 3.101562-1.296875 6.351562-1.953125 9.757812-1.953125 7.003907 0 13.007813 2.457031 18.011719 7.355469 5 4.90625 7.503907 10.859374 7.503907 17.863281 0 7.007812-2.503907 12.957031-7.503907 17.859375-5.003906 4.910156-11.007812 7.355468-18.011719 7.355468zm-19.511718 147.238282v-107.765625c0-10.859375 8.800781-19.660157 19.660156-19.660157s19.660156 8.804688 19.660156 19.660157v107.765625c0 10.859375-8.800781 19.660156-19.660156 19.660156s-19.660156-8.800781-19.660156-19.660156zm0 0" fill="#6770e6"/></svg>