<svg height="512pt" viewBox="0 -25 512 512" width="512pt" xmlns="http://www.w3.org/2000/svg"><path d="m256 296.425781h-50.324219v75.910157h22.839844c15.179687 0 27.484375-12.304688 27.484375-27.484376zm0 0" fill="#ff8354"/><path d="m228.515625 358.335938h-22.839844v14h22.839844c15.179687 0 27.484375-12.304688 27.484375-27.484376v-14c0 15.179688-12.304688 27.484376-27.484375 27.484376zm0 0" fill="#e0734a"/><path d="m205.675781 300.933594 236.304688 87.519531v-367.589844l-236.304688 87.523438zm0 0" fill="#ffefe4"/><path d="m205.675781 300.933594 236.304688 87.519531v-14l-236.304688-87.519531zm0 0" fill="#edd4c2"/><path d="m159.726562 462.847656c25.375 0 45.949219-20.570312 45.949219-45.949218v-115.964844h-91.898437v115.964844c0 25.378906 20.574218 45.949218 45.949218 45.949218zm0 0" fill="#e0734a"/><path d="m159.726562 448.847656c-25.375 0-45.949218-20.570312-45.949218-45.949218v14c0 25.378906 20.574218 45.949218 45.949218 45.949218s45.949219-20.570312 45.949219-45.949218v-14c0 25.378906-20.570312 45.949218-45.949219 45.949218zm0 0" fill="#cc6944"/><path d="m96.273438 300.933594h109.402343v-192.546875h-109.402343c-53.167969 0-96.273438 43.101562-96.273438 96.273437 0 53.167969 43.105469 96.273438 96.273438 96.273438zm0 0" fill="#ff8354"/><path d="m458.742188 257.917969h-16.761719v-106.515625h16.761719c29.414062 0 53.257812 23.84375 53.257812 53.257812 0 29.410156-23.84375 53.257813-53.257812 53.257813zm0 0" fill="#edd4c2"/><path d="m462.671875 409.316406c-11.425781 0-20.691406-9.261718-20.691406-20.6875v-367.9375c0-11.425781 9.265625-20.691406 20.691406-20.691406s20.691406 9.265625 20.691406 20.691406v367.9375c0 11.425782-9.261719 20.6875-20.691406 20.6875zm0 0" fill="#ff8354"/><path d="m462.671875 395.316406c-11.425781 0-20.691406-9.261718-20.691406-20.6875v14c0 11.425782 9.265625 20.6875 20.691406 20.6875s20.691406-9.261718 20.691406-20.6875v-14c0 11.425782-9.261719 20.6875-20.691406 20.6875zm0 0" fill="#e0734a"/><path d="m205.675781 108.386719v14l236.304688-87.523438v-14zm0 0" fill="#fff7f2"/><path d="m96.273438 108.386719c-53.167969 0-96.273438 43.101562-96.273438 96.273437 0 2.355469.113281 4.6875.28125 7 3.589844-49.898437 45.179688-89.273437 95.992188-89.273437h109.402343v-14zm0 0" fill="#ffac8c"/><path d="m462.671875 0c-11.425781 0-20.691406 9.265625-20.691406 20.691406v14c0-11.425781 9.265625-20.691406 20.691406-20.691406s20.691406 9.265625 20.691406 20.691406v-14c0-11.425781-9.261719-20.691406-20.691406-20.691406zm0 0" fill="#ffac8c"/><g fill="#e0734a"><path d="m68.195312 140.734375h-43.882812c-7.589844 8.539063-13.675781 18.4375-17.863281 29.285156h61.75c8.085937 0 14.640625-6.558593 14.640625-14.644531s-6.558594-14.640625-14.644532-14.640625zm0 0"/><path d="m68.195312 190.019531h-67.089843c-.726563 4.773438-1.105469 9.664063-1.105469 14.640625 0 4.976563.378906 9.867188 1.105469 14.640625h67.089843c8.085938 0 14.644532-6.554687 14.644532-14.640625 0-8.085937-6.558594-14.640625-14.644532-14.640625zm0 0"/><path d="m68.195312 240.460938h-61.289062c4.363281 10.882812 10.640625 20.789062 18.441406 29.285156h42.847656c8.085938 0 14.644532-6.554688 14.644532-14.640625 0-8.085938-6.558594-14.644531-14.644532-14.644531zm0 0"/></g></svg>