<svg height="511pt" viewBox="0 0 511.686 511" width="511pt" xmlns="http://www.w3.org/2000/svg"><path d="m243.847656 429.839844h-204.683594c-21.628906 0-39.164062-17.535156-39.164062-39.164063v-351.167969c0-21.628906 17.535156-39.164062 39.164062-39.164062h204.683594c21.628906 0 39.164063 17.535156 39.164063 39.164062v351.167969c0 21.628907-17.535157 39.164063-39.164063 39.164063zm0 0" fill="#ff8354"/><path d="m243.847656.34375h-204.683594c-21.628906 0-39.164062 17.535156-39.164062 39.164062v14c0-21.628906 17.535156-39.164062 39.164062-39.164062h204.683594c21.628906 0 39.164063 17.535156 39.164063 39.164062v-14c0-21.628906-17.535157-39.164062-39.164063-39.164062zm0 0" fill="#ffac8c"/><path d="m39.164062 429.839844h204.683594c21.628906 0 39.164063-17.535156 39.164063-39.164063v-14c0 21.628907-17.535157 39.164063-39.164063 39.164063h-204.683594c-21.628906 0-39.164062-17.535156-39.164062-39.164063v14c0 21.628907 17.535156 39.164063 39.164062 39.164063zm0 0" fill="#e0734a"/><path d="m250.859375 194.308594h-218.707031c-7.367188 0-13.34375-5.976563-13.34375-13.34375v-130.71875c0-7.367188 5.976562-13.34375 13.34375-13.34375h218.707031c7.367187 0 13.339844 5.976562 13.339844 13.34375v130.71875c0 7.367187-5.972657 13.34375-13.339844 13.34375zm0 0" fill="#69ebfc"/><path d="m207.78125 310.539062c0 36.601563-29.671875 66.277344-66.273438 66.277344-36.605468 0-66.277343-29.675781-66.277343-66.277344 0-36.601562 29.671875-66.277343 66.277343-66.277343 36.601563 0 66.273438 29.675781 66.273438 66.277343zm0 0" fill="#e0734a"/><path d="m165.730469 310.539062c0 13.378907-10.84375 24.226563-24.222657 24.226563-13.382812 0-24.226562-10.847656-24.226562-24.226563 0-13.378906 10.84375-24.226562 24.226562-24.226562 13.378907 0 24.222657 10.847656 24.222657 24.226562zm0 0" fill="#ff8354"/><path d="m104.792969 310.539062c0 4.683594-3.796875 8.480469-8.480469 8.480469s-8.484375-3.796875-8.484375-8.480469c0-4.683593 3.800781-8.480468 8.484375-8.480468s8.480469 3.796875 8.480469 8.480468zm0 0" fill="#ffac8c"/><path d="m195.179688 310.539062c0 4.683594-3.796876 8.480469-8.480469 8.480469-4.6875 0-8.484375-3.796875-8.484375-8.480469 0-4.683593 3.796875-8.480468 8.484375-8.480468 4.683593 0 8.480469 3.796875 8.480469 8.480468zm0 0" fill="#ffac8c"/><path d="m191.660156 62.445312-67.570312 12.4375c-1.265625.230469-2.183594 1.332032-2.183594 2.617188v57.375c-4.789062-2.839844-11.085938-3.773438-17.390625-2.085938-11.320313 3.03125-18.382813 13.363282-15.777344 23.074219 2.605469 9.714844 13.894531 15.136719 25.210938 12.105469 10.058593-2.695312 16.75-11.152344 16.289062-19.820312h.03125v-60.8125l56.175781-10.34375v44.234374c-4.789062-2.839843-11.082031-3.777343-17.390624-2.085937-11.320313 3.027344-18.382813 13.359375-15.777344 23.074219 2.605468 9.714844 13.894531 15.132812 25.210937 12.101562 9.894531-2.648437 16.535157-10.871094 16.3125-19.386718h.007813v-69.867188c.003906-1.660156-1.507813-2.917969-3.148438-2.617188zm0 0" fill="#6770e6"/><path d="m154.550781 452.183594h-26.09375c-5.691406 0-10.308593-4.617188-10.308593-10.3125v-12.03125h46.714843v12.03125c0 5.695312-4.617187 10.3125-10.3125 10.3125zm0 0" fill="#e0734a"/><path d="m460.675781 204.039062v72.101563c0 24.050781-19.570312 43.617187-43.621093 43.617187-17.667969 0-33.425782 8.292969-43.621094 21.171876v-316.878907h-12v428.132813c0 25.453125-20.707032 46.160156-46.160156 46.160156h-121.609376c-25.453124 0-46.15625-20.707031-46.15625-46.160156h-12c0 32.070312 26.089844 58.160156 58.15625 58.160156h121.609376c32.070312 0 58.164062-26.089844 58.164062-58.160156v-76.804688c0-24.050781 19.566406-43.621094 43.617188-43.621094 30.667968 0 55.621093-24.949218 55.621093-55.617187v-72.101563zm0 0" fill="#69ebfc"/><path d="m396.992188 7.507812h-14.050782c-16.140625 0-29.226562 13.082032-29.226562 29.222657v48.457031c0 4.902344 3.972656 8.875 8.875 8.875h11.476562c4.898438 0 8.875-3.972656 8.875-8.875v-20.351562c0-7.761719 6.289063-14.054688 14.050782-14.054688zm0 0" fill="#e0734a"/><path d="m382.941406 7.507812c-16.140625 0-29.222656 13.082032-29.222656 29.222657v14c0-16.140625 13.082031-29.222657 29.222656-29.222657h14.054688v-14zm0 0" fill="#ff8354"/><path d="m495.660156 131.515625h-14.050781c-16.140625 0-29.226563 13.082031-29.226563 29.222656v48.457031c0 4.902344 3.972657 8.875 8.875 8.875h11.476563c4.898437 0 8.875-3.972656 8.875-8.875v-20.351562c0-7.761719 6.289063-14.054688 14.050781-14.054688zm0 0" fill="#e0734a"/><path d="m481.609375 131.515625c-16.140625 0-29.226563 13.082031-29.226563 29.222656v14c0-16.140625 13.085938-29.222656 29.226563-29.222656h14.050781v-14zm0 0" fill="#ff8354"/><path d="m396.992188 49.933594v-41.578125c0-4.425781 3.589843-8.011719 8.015624-8.011719 4.425782 0 8.011719 3.585938 8.011719 8.011719v41.578125c0 4.425781-3.589843 8.011718-8.011719 8.011718-4.425781 0-8.015624-3.585937-8.015624-8.011718zm0 0" fill="#ff8354"/><path d="m405.007812.34375c-4.425781 0-8.011718 3.585938-8.011718 8.011719v14c0-4.425781 3.589844-8.011719 8.011718-8.011719 4.425782 0 8.011719 3.585938 8.011719 8.011719v-14c0-4.425781-3.585937-8.011719-8.011719-8.011719zm0 0" fill="#ffac8c"/><path d="m495.660156 173.941406v-41.578125c0-4.425781 3.589844-8.011719 8.015625-8.011719s8.011719 3.589844 8.011719 8.011719v41.578125c0 4.425782-3.589844 8.011719-8.011719 8.011719-4.425781 0-8.015625-3.585937-8.015625-8.011719zm0 0" fill="#ff8354"/><path d="m503.675781 124.351562c-4.429687 0-8.015625 3.585938-8.015625 8.011719v14c0-4.425781 3.589844-8.011719 8.015625-8.011719 4.421875 0 8.011719 3.585938 8.011719 8.011719v-14c0-4.425781-3.585938-8.011719-8.011719-8.011719zm0 0" fill="#ffac8c"/></svg>