<svg height="512.00001pt" viewBox="0 0 512.00001 512.00001" width="512.00001pt" xmlns="http://www.w3.org/2000/svg"><path d="m512 256c0 141.386719-114.613281 256-256 256s-256-114.613281-256-256 114.613281-256 256-256 256 114.613281 256 256zm0 0" fill="#8f95e6"/><path d="m256 492c-138.035156 0-250.53125-109.253906-255.789062-246-.1250005 3.320312-.210938 6.648438-.210938 10 0 141.382812 114.617188 256 256 256s256-114.617188 256-256c0-3.351562-.085938-6.679688-.210938-10-5.257812 136.746094-117.753906 246-255.789062 246zm0 0" fill="#6770e6"/><path d="m256 20c138.035156 0 250.53125 109.253906 255.789062 246 .125-3.320312.210938-6.648438.210938-10 0-141.382812-114.617188-256-256-256s-256 114.617188-256 256c0 3.351562.0859375 6.679688.210938 10 5.257812-136.746094 117.753906-246 255.789062-246zm0 0" fill="#9fa5ff"/><path d="m369.894531 327.824219-58.023437-19.066407h-111.75l-58.167969 19.078126c-19.167969 6.289062-32.132813 24.179687-32.132813 44.355468v93.980469c40.550782 28.253906 89.65625 45.070313 142.65625 45.785156h7.042969c52.925781-.714843 101.964844-17.484375 142.484375-45.664062v-94.121094c0-20.167969-12.949218-38.054687-32.109375-44.347656zm0 0" fill="#5fd4e3"/><path d="m402.003906 446.292969c-41.410156 28.808593-91.730468 45.707031-146.003906 45.707031-54.351562 0-104.734375-16.945312-146.179688-45.828125v20c.003907 0 .007813.003906.007813.003906 5.0625 3.527344 10.261719 6.875 15.582031 10.039063.007813.003906.015625.007812.023438.015625 5.320312 3.160156 10.761718 6.132812 16.320312 8.90625.007813.007812.019532.011719.03125.015625 5.558594 2.777344 11.230469 5.355468 17.007813 7.730468.007812.003907.015625.007813.027343.011719 28.941407 11.882813 60.539063 18.617188 93.660157 19.066407h7.042969c26.460937-.359376 51.953124-4.730469 75.890624-12.53125h.003907c5.980469-1.953126 11.863281-4.117188 17.640625-6.484376.007812 0 .015625-.003906.027344-.007812 5.773437-2.371094 11.441406-4.945312 16.992187-7.710938.011719-.003906.019531-.007812.023437-.011718 5.554688-2.769532 10.996094-5.738282 16.308594-8.890625.007813-.003907.011719-.007813.019532-.011719 5.316406-3.15625 10.511718-6.496094 15.574218-10.019531h.003906v-20zm0 0" fill="#5bcad9"/><path d="m345.59375 120.851562c-4.523438-47.867187-80.042969-60.515624-104.480469-52.546874-24.441406 7.96875-23.59375 18.972656-23.59375 18.972656s-48.996093-4.148438-51.71875 45.84375c-2.722656 49.988281 5.082031 65.105468 5.082031 65.105468.257813 3.242188.570313 6.515626.929688 9.808594h167.476562c.082032-.714844.152344-1.429687.226563-2.144531l1.550781 5.933594c.003906-.003907 8.824219-45.484375 4.527344-90.972657zm0 0" fill="#339"/><path d="m209.398438 291.882812h93.203124v39.429688h-93.203124zm0 0" fill="#5fd4e3"/><path d="m272.132812 370.746094h-32.265624l-7.167969-39.433594h46.601562zm0 0" fill="#6770e6"/><g fill="#ffe4d1"><path d="m192.949219 194.140625s-6.8125-12.476563-20.433594-12.476563c-13.625 0-23.277344 59.898438 20.433594 49.914063zm0 0"/><path d="m319.050781 194.140625s6.8125-12.476563 20.433594-12.476563c13.625 0 23.277344 59.898438-20.433594 49.914063zm0 0"/><path d="m291.816406 252.460938h-71.632812v48.546874l35.816406 30.304688 35.847656-30.332031zm0 0"/></g><path d="m256 113.878906c-104.378906 0-84.421875 171.183594 0 171.183594 84.421875.003906 104.378906-171.183594 0-171.183594zm0 0" fill="#ffefe4"/><path d="m334.863281 316.976562-46.601562 50.183594-32.261719-35.847656 46.601562-39.429688zm0 0" fill="#69ebfc"/><path d="m177.136719 316.976562 46.601562 50.183594 32.261719-35.847656-46.601562-39.429688zm0 0" fill="#69ebfc"/><path d="m184.308594 186.257812s11.136718-2.910156 17.921875-17.921874c12.015625-26.597657 20.953125-30.0625 20.953125-30.0625s11.125 31.367187 53.992187 43.121093c42.863281 11.753907 50.515625 4.863281 50.515625 4.863281l9.925782-41.753906-56.339844-45.335937-70.210938 8.578125-36.773437 43.589844zm0 0" fill="#339"/><path d="m354.34375 241.695312h-22.746094c-2.15625 0-3.902344-1.746093-3.902344-3.902343v-66.878907c0-2.152343 1.75-3.898437 3.902344-3.898437h22.746094c2.15625 0 3.902344 1.746094 3.902344 3.898437v66.878907c0 2.15625-1.746094 3.902343-3.902344 3.902343zm0 0" fill="#d476e2"/><path d="m357.566406 223.773438v-38.835938c6.601563 0 11.953125 5.351562 11.953125 11.949219v14.9375c-.003906 6.597656-5.351562 11.949219-11.953125 11.949219zm0 0" fill="#b665c2"/><path d="m154.433594 223.773438c-6.601563 0-11.953125-5.351563-11.953125-11.953126v-14.933593c0-6.601563 5.351562-11.949219 11.953125-11.949219zm0 0" fill="#b665c2"/><path d="m181.082031 241.695312h-22.746093c-2.15625 0-3.902344-1.746093-3.902344-3.902343v-66.878907c0-2.152343 1.75-3.898437 3.902344-3.898437h22.746093c2.15625 0 3.902344 1.746094 3.902344 3.898437v66.878907c0 2.15625-1.75 3.902343-3.902344 3.902343zm0 0" fill="#d476e2"/><path d="m348.023438 167.015625h-10.785157c0-41.503906-33.761719-75.269531-75.265625-75.269531h-11.609375c-41.5 0-75.265625 33.765625-75.265625 75.269531h-10.78125c0-47.449219 38.601563-86.050781 86.046875-86.050781h11.609375c47.449219 0 86.050782 38.601562 86.050782 86.050781zm0 0" fill="#b665c2"/><path d="m337.238281 241.695312c0 21.734376-17.683593 39.417969-39.417969 39.417969h-5.554687c-1.675781-2.328125-4.40625-3.847656-7.496094-3.847656h-13.832031c-5.101562 0-9.242188 4.136719-9.242188 9.242187 0 5.101563 4.140626 9.238282 9.242188 9.238282h13.832031c3.089844 0 5.820313-1.519532 7.496094-3.847656h5.554687c27.683594 0 50.203126-22.519532 50.203126-50.199219h-10.785157zm0 0" fill="#b665c2"/><path d="m272.132812 370.746094h-32.265624l-14.21875 139.457031c9.957031 1.175781 20.078124 1.796875 30.347656 1.796875 10.273437 0 20.398437-.621094 30.351562-1.796875zm0 0" fill="#5861c7"/><path d="m284.332031 490.421875c-9.304687 1.027344-18.753906 1.582031-28.332031 1.582031s-19.027344-.554687-28.332031-1.582031l-2.015625 19.761719c.375.042968.742187.09375 1.117187.132812 1.402344.160156 2.808594.300782 4.214844.441406.9375.089844 1.871094.191407 2.808594.269532 1.277343.109375 2.566406.195312 3.847656.285156 2.433594.171875 4.871094.316406 7.320313.421875.539062.023437 1.074218.050781 1.613281.070313 1.6875.0625 3.378906.101562 5.074219.128906.46875.007812.9375.015625 1.402343.019531h5.902344c.351563-.003906.707031-.007813 1.0625-.015625 2.9375-.042969 5.863281-.140625 8.777344-.285156.300781-.015625.601562-.023438.902343-.039063 5.605469-.296875 11.152344-.800781 16.652344-1.453125zm0 0" fill="#5058b5"/></svg>