<svg height="511pt" viewBox="1 -30 511.99976 511" width="511pt" xmlns="http://www.w3.org/2000/svg"><path d="m137.128906 112.472656c12.441406 2.648438 24.855469 5.75 37.542969 6.636719 19.132813 1.339844 34.828125-2.441406 34.828125-26.820313 0 0 0-65.589843 0-65.59375 0-10.078124-6.097656-20.695312-15.839844-24.136718-5.238281-1.851563-10.898437-2.015625-16.453125-2.050782-5.496093-.035156-10.964843.03125-16.386719.230469-45.636718 1.640625-88.117187 12.476563-117.363281 51.363281-15.144531 20.132813-24.527343 44.085938-30.683593 68.351563-17.003907 66.992187-17.054688 142.996094 0 210.183594 6.15625 24.269531 15.539062 48.222656 30.6875 68.359375 29.246093 38.882812 71.722656 49.722656 117.363281 51.363281 5.425781.195313 10.890625.261719 16.386719.230469 5.554687-.035156 11.21875-.203125 16.453124-2.050782 9.742188-3.445312 15.839844-14.0625 15.839844-24.140624v-65.59375c0-24.378907-15.699218-28.160157-34.824218-26.820313-12.691407.886719-25.105469 3.988281-37.546876 6.636719-9.351562 1.992187-18.210937 2.734375-24.933593-5.109375-14.410157-16.816407-16.191407-45.164063-18.050781-66.160157-2.511719-28.386718-2.480469-57.148437.175781-85.523437 1.914062-20.472656 3.832031-47.859375 17.875-64.242187 6.722656-7.847657 15.578125-7.105469 24.929687-5.113282zm0 0" fill="#d476e2"/><path d="m193.660156 2.558594c-5.234375-1.851563-10.894531-2.015625-16.449218-2.050782-5.496094-.035156-10.964844.03125-16.386719.230469-45.640625 1.640625-88.121094 12.476563-117.367188 51.363281-15.144531 20.132813-24.527343 44.085938-30.6875 68.351563-9.0625 35.707031-13.261719 73.972656-12.664062 112.097656.519531-33.453125 4.710937-66.761719 12.664062-98.097656 6.160157-24.265625 15.542969-48.21875 30.6875-68.355469 29.246094-38.882812 71.726563-49.722656 117.367188-51.363281 5.421875-.195313 10.890625-.261719 16.386719-.226563 5.554687.03125 11.214843.199219 16.449218 2.046876 9.746094 3.445312 15.84375 14.0625 15.84375 24.140624 0-8.164062 0-14 0-14 0-10.078124-6.097656-20.695312-15.84375-24.136718zm0 0" fill="#ea82fa"/><g fill="#b665c2"><path d="m193.660156 434.535156c-5.234375 1.847656-10.894531 2.015625-16.449218 2.050782-5.496094.03125-10.964844-.035157-16.386719-.230469-45.640625-1.640625-88.121094-12.480469-117.367188-51.363281-15.144531-20.136719-24.527343-44.089844-30.6875-68.355469-7.964843-31.378907-12.148437-64.679688-12.664062-98.085938-.59375 38.066407 3.589843 76.324219 12.664062 112.085938 6.160157 24.265625 15.542969 48.21875 30.6875 68.355469 29.246094 38.882812 71.726563 49.722656 117.367188 51.363281 5.421875.195312 10.890625.261719 16.386719.230469 5.554687-.035157 11.214843-.203126 16.449218-2.050782 9.746094-3.441406 15.84375-14.0625 15.84375-24.140625 0 0 0-5.835937 0-14 0 10.078125-6.097656 20.699219-15.84375 24.140625zm0 0"/><path d="m193.660156 2.558594c-5.234375-1.851563-10.894531-2.015625-16.449218-2.050782-.9375-.003906-1.867188.011719-2.800782.011719v118.566407c.085938.007812.175782.019531.265625.023437 19.128907 1.339844 34.828125-2.441406 34.828125-26.820313 0 0 0-65.589843 0-65.59375 0-10.078124-6.097656-20.695312-15.84375-24.136718zm0 0"/><path d="m209.503906 424.394531v-65.589843c0-24.378907-15.699218-28.164063-34.828125-26.824219-.089843.007812-.175781.019531-.265625.027343v118.570313c.933594 0 1.863282.015625 2.800782.007813 5.554687-.035157 11.214843-.199219 16.449218-2.050782 9.746094-3.441406 15.84375-14.0625 15.84375-24.140625zm0 0"/><path d="m209.503906 424.394531v-65.589843c0-24.378907-15.699218-28.164063-34.828125-26.824219-.089843.007812-.175781.019531-.265625.027343v118.570313c.933594 0 1.863282.015625 2.800782.007813 5.554687-.035157 11.214843-.199219 16.449218-2.050782 9.746094-3.441406 15.84375-14.0625 15.84375-24.140625zm0 0"/></g><path d="m209.503906 410.398438c-.003906 10.078124-6.097656 20.695312-15.84375 24.136718-5.234375 1.847656-10.894531 2.015625-16.449218 2.050782-.9375.003906-1.867188-.011719-2.800782-.011719v14c.929688 0 1.855469.015625 2.785156.011719h.015626c1.386718-.007813 2.78125-.027344 4.175781-.074219 2.785156-.097657 5.566406-.328125 8.273437-.882813 1.355469-.273437 2.691406-.632812 4-1.09375 1.828125-.648437 3.527344-1.542968 5.082032-2.644531 3.109374-2.195313 5.640624-5.199219 7.464843-8.601563 2.128907-3.96875 3.296875-8.484374 3.296875-12.894531 0 0 0-5.832031 0-13.996093zm0 0" fill="#9c57a6"/><path d="m177.199219.507812c-.929688-.003906-1.859375.011719-2.789063.011719v14c.933594 0 1.863282-.015625 2.800782-.011719 5.554687.035157 11.214843.199219 16.449218 2.050782 9.746094 3.441406 15.839844 14.058594 15.84375 24.136718 0-8.164062 0-13.996093 0-13.996093 0-4.410157-1.167968-8.921875-3.296875-12.894531-1.824219-3.398438-4.355469-6.402344-7.464843-8.601563-1.554688-1.101563-3.253907-1.996094-5.082032-2.644531-1.308594-.460938-2.640625-.816406-4-1.09375-2.707031-.550782-5.488281-.78125-8.273437-.878906-1.394531-.050782-2.789063-.066407-4.175781-.074219-.003907-.003907-.007813-.003907-.011719-.003907zm0 0" fill="#d476e2"/><path d="m439.625 112.472656c12.441406 2.648438 24.855469 5.75 37.542969 6.636719 19.132812 1.339844 34.832031-2.441406 34.832031-26.820313 0 0 0-65.589843 0-65.59375 0-10.078124-6.097656-20.695312-15.84375-24.136718-5.234375-1.851563-10.898438-2.015625-16.449219-2.050782-5.496093-.035156-10.964843.03125-16.386719.230469-45.640624 1.640625-88.121093 12.476563-117.367187 51.363281-15.144531 20.136719-24.527344 44.089844-30.6875 68.355469-17.003906 66.992188-17.054687 142.996094 0 210.183594 6.15625 24.265625 15.542969 48.21875 30.6875 68.359375 29.246094 38.882812 71.726563 49.71875 117.367187 51.363281 5.421876.191407 10.890626.257813 16.386719.226563 5.550781-.035156 11.214844-.199219 16.449219-2.050782 9.746094-3.441406 15.84375-14.058593 15.84375-24.136718v-65.59375c0-24.378906-15.699219-28.164063-34.828125-26.820313-12.691406.886719-25.101563 3.984375-37.542969 6.636719-9.355468 1.992188-18.210937 2.734375-24.933594-5.109375-14.410156-16.816406-16.191406-45.167969-18.050781-66.160156-2.515625-28.386719-2.480469-57.148438.171875-85.523438 1.914063-20.476562 3.832032-47.863281 17.878906-64.246093 6.722657-7.847657 15.578126-7.105469 24.929688-5.113282zm0 0" fill="#d476e2"/><path d="m496.15625 2.558594c-5.234375-1.851563-10.898438-2.015625-16.449219-2.050782-5.496093-.035156-10.964843.03125-16.386719.230469-45.640624 1.640625-88.121093 12.476563-117.367187 51.363281-15.144531 20.136719-24.527344 44.089844-30.6875 68.355469-9.0625 35.707031-13.261719 73.96875-12.664063 112.097657.519532-33.453126 4.710938-66.761719 12.664063-98.097657 6.15625-24.265625 15.542969-48.21875 30.6875-68.355469 29.246094-38.886718 71.726563-49.726562 117.367187-51.367187 5.421876-.195313 10.890626-.261719 16.386719-.226563 5.550781.03125 11.214844.199219 16.449219 2.046876 9.746094 3.445312 15.84375 14.0625 15.84375 24.140624 0-8.164062 0-14 0-14 0-10.078124-6.097656-20.695312-15.84375-24.136718zm0 0" fill="#ea82fa"/><path d="m496.15625 434.535156c-5.234375 1.847656-10.898438 2.015625-16.449219 2.050782-5.496093.03125-10.964843-.035157-16.386719-.230469-45.640624-1.640625-88.121093-12.480469-117.367187-51.363281-15.144531-20.136719-24.527344-44.089844-30.6875-68.355469-7.964844-31.378907-12.148437-64.679688-12.664063-98.085938-.59375 38.066407 3.589844 76.324219 12.664063 112.085938 6.15625 24.265625 15.542969 48.21875 30.6875 68.355469 29.246094 38.882812 71.726563 49.722656 117.367187 51.363281 5.421876.195312 10.890626.261719 16.386719.230469 5.550781-.035157 11.214844-.203126 16.449219-2.050782 9.746094-3.441406 15.84375-14.0625 15.84375-24.140625 0 0 0-5.835937 0-14 0 10.078125-6.097656 20.699219-15.84375 24.140625zm0 0" fill="#b665c2"/><path d="m496.15625 2.558594c-5.234375-1.851563-10.898438-2.015625-16.449219-2.050782-.9375-.003906-1.867187.011719-2.800781.011719v118.566407c.085938.007812.175781.019531.265625.023437 19.128906 1.339844 34.828125-2.441406 34.828125-26.820313 0 0 0-65.589843 0-65.59375 0-10.078124-6.097656-20.695312-15.84375-24.136718zm0 0" fill="#b665c2"/><path d="m512 424.394531v-65.589843c0-24.378907-15.699219-28.164063-34.828125-26.824219-.089844.007812-.175781.019531-.265625.027343v118.570313c.933594 0 1.863281.015625 2.800781.007813 5.550781-.035157 11.214844-.199219 16.449219-2.050782 9.746094-3.441406 15.84375-14.0625 15.84375-24.140625zm0 0" fill="#b665c2"/><path d="m512 424.394531v-65.589843c0-24.378907-15.699219-28.164063-34.828125-26.824219-.089844.007812-.175781.019531-.265625.027343v118.570313c.933594 0 1.863281.015625 2.800781.007813 5.550781-.035157 11.214844-.199219 16.449219-2.050782 9.746094-3.441406 15.84375-14.0625 15.84375-24.140625zm0 0" fill="#b665c2"/><path d="m512 410.398438c-.003906 10.078124-6.097656 20.695312-15.84375 24.136718-5.234375 1.847656-10.898438 2.015625-16.449219 2.050782-.9375.003906-1.867187-.011719-2.800781-.011719v14c.929688 0 1.851562.015625 2.785156.011719h.015625c1.386719-.007813 2.78125-.027344 4.175781-.074219 2.785157-.097657 5.566407-.328125 8.273438-.882813 1.355469-.273437 2.691406-.632812 4-1.09375 1.828125-.648437 3.527344-1.542968 5.082031-2.644531 3.109375-2.195313 5.640625-5.199219 7.464844-8.601563 2.128906-3.96875 3.296875-8.484374 3.296875-12.894531 0 0 0-5.832031 0-13.996093zm0 0" fill="#9c57a6"/><path d="m479.695312.507812c-.929687-.003906-1.859374.011719-2.789062.011719v14c.933594 0 1.863281-.015625 2.800781-.011719 5.550781.035157 11.214844.199219 16.449219 2.050782 9.746094 3.441406 15.839844 14.058594 15.84375 24.136718 0-8.164062 0-13.996093 0-13.996093 0-4.410157-1.167969-8.921875-3.296875-12.894531-1.824219-3.398438-4.355469-6.402344-7.464844-8.601563-1.554687-1.101563-3.253906-1.996094-5.082031-2.644531-1.308594-.460938-2.640625-.816406-4-1.09375-2.707031-.550782-5.488281-.78125-8.273438-.878906-1.394531-.050782-2.789062-.066407-4.175781-.074219-.003906-.003907-.007812-.003907-.011719-.003907zm0 0" fill="#d476e2"/><path d="m340.664062 218.128906-80.984374-63.605468c-6.1875-4.859376-15.257813-.453126-15.257813 7.414062v38.191406h-78.210937c-14.039063 0-25.417969 11.382813-25.417969 25.417969 0 7.015625 2.84375 13.371094 7.445312 17.972656 4.597657 4.601563 10.953125 7.445313 17.972657 7.445313h78.214843v38.191406c0 7.867188 9.066407 12.277344 15.253907 7.417969l80.984374-63.613281c4.808594-3.773438 4.808594-11.054688 0-14.832032zm0 0" fill="#69ebfc"/><path d="m166.210938 214.128906h78.214843v-38.191406c0-7.867188 9.066407-12.273438 15.257813-7.414062l80.980468 63.609374c.160157.125.273438.285157.417969.414063 4.339844-3.867187 4.230469-10.765625-.417969-14.414063l-80.980468-63.609374c-6.191406-4.859376-15.257813-.453126-15.257813 7.414062v38.191406h-78.214843c-14.039063 0-25.417969 11.382813-25.417969 25.417969 0 2.429687.363281 4.773437 1 6.996094 3.042969-10.625 12.816406-18.414063 24.417969-18.414063zm0 0" fill="#a1f1fc"/></svg>