<svg height="512pt" viewBox="0 0 512.00002 512" width="512pt" xmlns="http://www.w3.org/2000/svg"><path d="m78.535156 135.035156 412.847656-121.859375 4.300782 14.578125-412.84375 121.859375zm0 0" fill="#d476e2"/><path d="m491.375 23.183594 1.589844 5.378906 2.714844-.800781-4.304688-14.578125-412.839844 121.855468 2.714844 9.199219zm0 0" fill="#ea82fa"/><path d="m486.144531 512h-460.289062c-14.28125 0-25.855469-11.574219-25.855469-25.855469v-296.78125c0-14.28125 11.574219-25.855469 25.855469-25.855469h460.285156c14.28125 0 25.855469 11.574219 25.855469 25.855469v296.78125c.003906 14.28125-11.570313 25.855469-25.851563 25.855469zm0 0" fill="#d476e2"/><path d="m486.144531 163.503906h-460.289062c-14.28125 0-25.855469 11.578125-25.855469 25.859375v14c0-14.28125 11.574219-25.855469 25.855469-25.855469h460.285156c14.28125 0 25.855469 11.574219 25.855469 25.855469v-14c.003906-14.28125-11.570313-25.859375-25.851563-25.859375zm0 0" fill="#ea82fa"/><path d="m25.855469 512h460.285156c14.28125 0 25.855469-11.574219 25.855469-25.855469v-14c0 14.28125-11.574219 25.855469-25.855469 25.855469h-460.285156c-14.28125 0-25.855469-11.574219-25.855469-25.855469v14c0 14.28125 11.574219 25.855469 25.855469 25.855469zm0 0" fill="#b665c2"/><path d="m30 455.648438v-104.285157c0-14.277343 11.574219-25.855469 25.855469-25.855469h214.285156c14.28125 0 25.855469 11.578126 25.855469 25.855469v104.285157c0 14.28125-11.574219 25.859374-25.855469 25.859374h-214.285156c-14.28125 0-25.855469-11.578124-25.855469-25.859374zm0 0" fill="#ea82fa"/><path d="m55.855469 471.507812c-8.742188 0-15.855469-7.117187-15.855469-15.859374v-104.285157c0-8.746093 7.113281-15.855469 15.855469-15.855469h214.289062c8.742188 0 15.855469 7.113282 15.855469 15.855469v104.285157c0 8.746093-7.113281 15.859374-15.855469 15.859374zm0 0" fill="#b665c2"/><path d="m30 269.652344v-50.292969c0-14.28125 11.574219-25.855469 25.855469-25.855469h400.285156c14.28125 0 25.855469 11.574219 25.855469 25.855469v50.292969c0 14.28125-11.574219 25.855468-25.855469 25.855468h-400.285156c-14.28125 0-25.855469-11.574218-25.855469-25.855468zm0 0" fill="#ea82fa"/><path d="m55.855469 285.507812c-8.742188 0-15.855469-7.113281-15.855469-15.859374v-50.289063c0-8.742187 7.113281-15.855469 15.855469-15.855469h400.289062c8.742188 0 15.855469 7.113282 15.855469 15.855469v50.292969c0 8.742187-7.113281 15.859375-15.855469 15.859375h-400.289062zm0 0" fill="#b665c2"/><path d="m100.886719 272.53125h-30.550781c-3.175782 0-5.75-2.574219-5.75-5.75v-8.117188c0-3.175781 2.574218-5.75 5.75-5.75h30.550781c3.175781 0 5.75 2.574219 5.75 5.75v8.117188c.003906 3.175781-2.574219 5.75-5.75 5.75zm0 0" fill="#edd4c2"/><path d="m157.683594 272.53125h-30.550782c-3.175781 0-5.75-2.574219-5.75-5.75v-8.117188c0-3.175781 2.574219-5.75 5.75-5.75h30.550782c3.175781 0 5.75 2.574219 5.75 5.75v8.117188c.003906 3.175781-2.574219 5.75-5.75 5.75zm0 0" fill="#edd4c2"/><path d="m214.480469 272.53125h-30.550781c-3.175782 0-5.75-2.574219-5.75-5.75v-8.117188c0-3.175781 2.574218-5.75 5.75-5.75h30.550781c3.175781 0 5.75 2.574219 5.75 5.75v8.117188c0 3.175781-2.574219 5.75-5.75 5.75zm0 0" fill="#edd4c2"/><path d="m271.277344 272.53125h-30.554688c-3.175781 0-5.75-2.574219-5.75-5.75v-8.117188c0-3.175781 2.574219-5.75 5.75-5.75h30.554688c3.175781 0 5.75 2.574219 5.75 5.75v8.117188c0 3.175781-2.574219 5.75-5.75 5.75zm0 0" fill="#edd4c2"/><path d="m328.070312 272.53125h-30.550781c-3.175781 0-5.75-2.574219-5.75-5.75v-8.117188c0-3.175781 2.574219-5.75 5.75-5.75h30.550781c3.175782 0 5.75 2.574219 5.75 5.75v8.117188c0 3.175781-2.574218 5.75-5.75 5.75zm0 0" fill="#edd4c2"/><path d="m384.867188 272.53125h-30.550782c-3.175781 0-5.75-2.574219-5.75-5.75v-8.117188c0-3.175781 2.574219-5.75 5.75-5.75h30.550782c3.175781 0 5.75 2.574219 5.75 5.75v8.117188c0 3.175781-2.574219 5.75-5.75 5.75zm0 0" fill="#edd4c2"/><path d="m441.664062 272.53125h-30.550781c-3.175781 0-5.75-2.574219-5.75-5.75v-8.117188c0-3.175781 2.574219-5.75 5.75-5.75h30.550781c3.175782 0 5.75 2.574219 5.75 5.75v8.117188c0 3.175781-2.574218 5.75-5.75 5.75zm0 0" fill="#edd4c2"/><path d="m443.484375 272.53125h-11.761719c-2.171875 0-3.929687-1.757812-3.929687-3.925781v-11.765625c0-2.167969 1.757812-3.929688 3.929687-3.929688h11.761719c2.171875 0 3.929687 1.761719 3.929687 3.929688v11.765625c0 2.167969-1.757812 3.925781-3.929687 3.925781zm0 0" fill="#edd4c2"/><path d="m482 403.507812c0 43.078126-34.921875 78-78 78s-78-34.921874-78-78c0-43.078124 34.921875-78 78-78s78 34.921876 78 78zm0 0" fill="#69ebfc"/><path d="m472 403.507812c0 37.554688-30.445312 68-68 68s-68-30.445312-68-68c0-37.558593 30.445312-68 68-68s68 30.441407 68 68zm0 0" fill="#5fd4e3"/><path d="m461.039062 403.507812c0 31.5-25.539062 57.035157-57.039062 57.035157s-57.039062-25.535157-57.039062-57.035157c0-31.503906 25.539062-57.039062 57.039062-57.039062s57.039062 25.535156 57.039062 57.039062zm0 0" fill="#69ebfc"/><path d="m97.039062 163.503906h-32.710937v-16.355468c0-9.03125 7.324219-16.351563 16.355469-16.351563s16.355468 7.320313 16.355468 16.351563zm0 0" fill="#b665c2"/><path d="m80.6875 130.796875c-9.035156 0-16.355469 7.320313-16.355469 16.351563v10c0-9.03125 7.320313-16.351563 16.355469-16.351563 9.03125 0 16.351562 7.320313 16.351562 16.351563v-10c0-9.03125-7.320312-16.351563-16.351562-16.351563zm0 0" fill="#d476e2"/><path d="m512 18.472656c0 10.199219-8.269531 18.472656-18.472656 18.472656-10.199219 0-18.472656-8.273437-18.472656-18.472656 0-10.203125 8.273437-18.472656 18.472656-18.472656 10.203125 0 18.472656 8.269531 18.472656 18.472656zm0 0" fill="#b665c2"/><path d="m493.527344 10c8.464844 0 15.585937 5.703125 17.769531 13.472656.445313-1.59375.703125-3.265625.703125-5 0-10.203125-8.269531-18.472656-18.472656-18.472656s-18.472656 8.269531-18.472656 18.472656c0 1.734375.257812 3.40625.707031 5 2.183593-7.769531 9.300781-13.472656 17.765625-13.472656zm0 0" fill="#d476e2"/><path d="m188 203.503906h18.933594v82.003906h-18.933594zm0 0" fill="#ff8354"/><g fill="#edd4c2"><path d="m80.277344 237.238281h-11.761719c-2.171875 0-3.929687-1.757812-3.929687-3.929687v-11.761719c0-2.171875 1.757812-3.929687 3.929687-3.929687h11.761719c2.171875 0 3.929687 1.757812 3.929687 3.929687v11.761719c0 2.171875-1.761719 3.929687-3.929687 3.929687zm0 0"/><path d="m120.632812 237.238281h-11.761718c-2.171875 0-3.929688-1.757812-3.929688-3.929687v-11.761719c0-2.171875 1.757813-3.929687 3.929688-3.929687h11.761718c2.171876 0 3.929688 1.757812 3.929688 3.929687v11.761719c0 2.171875-1.757812 3.929687-3.929688 3.929687zm0 0"/><path d="m160.988281 237.238281h-11.761719c-2.171874 0-3.929687-1.757812-3.929687-3.929687v-11.761719c0-2.171875 1.757813-3.929687 3.929687-3.929687h11.761719c2.171875 0 3.929688 1.757812 3.929688 3.929687v11.761719c0 2.171875-1.757813 3.929687-3.929688 3.929687zm0 0"/><path d="m241.703125 237.238281h-11.761719c-2.171875 0-3.929687-1.757812-3.929687-3.929687v-11.761719c0-2.171875 1.757812-3.929687 3.929687-3.929687h11.761719c2.171875 0 3.929687 1.757812 3.929687 3.929687v11.761719c0 2.171875-1.761718 3.929687-3.929687 3.929687zm0 0"/><path d="m282.058594 237.238281h-11.761719c-2.171875 0-3.929687-1.757812-3.929687-3.929687v-11.761719c0-2.171875 1.757812-3.929687 3.929687-3.929687h11.761719c2.171875 0 3.929687 1.757812 3.929687 3.929687v11.761719c0 2.171875-1.757812 3.929687-3.929687 3.929687zm0 0"/><path d="m322.414062 237.238281h-11.761718c-2.171875 0-3.929688-1.757812-3.929688-3.929687v-11.761719c0-2.171875 1.757813-3.929687 3.929688-3.929687h11.761718c2.171876 0 3.929688 1.757812 3.929688 3.929687v11.761719c0 2.171875-1.757812 3.929687-3.929688 3.929687zm0 0"/><path d="m362.773438 237.238281h-11.761719c-2.171875 0-3.929688-1.757812-3.929688-3.929687v-11.761719c0-2.171875 1.757813-3.929687 3.929688-3.929687h11.761719c2.171874 0 3.929687 1.757812 3.929687 3.929687v11.761719c0 2.171875-1.761719 3.929687-3.929687 3.929687zm0 0"/><path d="m403.128906 237.238281h-11.761718c-2.171876 0-3.929688-1.757812-3.929688-3.929687v-11.761719c0-2.171875 1.757812-3.929687 3.929688-3.929687h11.761718c2.171875 0 3.929688 1.757812 3.929688 3.929687v11.761719c0 2.171875-1.757813 3.929687-3.929688 3.929687zm0 0"/><path d="m443.484375 237.238281h-11.761719c-2.171875 0-3.929687-1.757812-3.929687-3.929687v-11.761719c0-2.171875 1.757812-3.929687 3.929687-3.929687h11.761719c2.171875 0 3.929687 1.757812 3.929687 3.929687v11.761719c0 2.171875-1.757812 3.929687-3.929687 3.929687zm0 0"/></g><path d="m404 380.359375c-3.238281 0-5.867188-2.628906-5.867188-5.867187v-12.261719c0-3.242188 2.628907-5.867188 5.867188-5.867188s5.867188 2.625 5.867188 5.867188v12.261719c0 3.238281-2.628907 5.867187-5.867188 5.867187zm0 0" fill="#5fd4e3"/></svg>