<svg height="512pt" viewBox="0 0 512.002 512" width="512pt" xmlns="http://www.w3.org/2000/svg"><path d="m65.941406 184.253906h28.355469v123.003906h-28.355469zm0 0" fill="#b665c2"/><path d="m488.683594 479.195312h-465.367188c-12.878906 0-23.316406-10.4375-23.316406-23.3125v-125.308593c0-12.878907 10.4375-23.316407 23.316406-23.316407h465.371094c12.875 0 23.316406 10.4375 23.316406 23.316407v125.308593c-.003906 12.875-10.441406 23.3125-23.320312 23.3125zm0 0" fill="#d476e2"/><path d="m488.683594 307.257812h-465.367188c-12.878906 0-23.316406 10.4375-23.316406 23.316407v14c0-12.878907 10.4375-23.316407 23.316406-23.316407h465.371094c12.875 0 23.316406 10.4375 23.316406 23.316407v-14c-.003906-12.878907-10.441406-23.316407-23.320312-23.316407zm0 0" fill="#ea82fa"/><path d="m0 393.097656v62.785156c0 12.875 10.4375 23.3125 23.316406 23.3125h465.371094c12.875 0 23.316406-10.4375 23.316406-23.3125v-62.785156zm0 0" fill="#6770e6"/><path d="m488.683594 465.195312h-465.367188c-12.878906 0-23.316406-10.4375-23.316406-23.3125v14c0 12.875 10.4375 23.3125 23.316406 23.3125h465.371094c12.875 0 23.316406-10.4375 23.316406-23.3125v-14c-.003906 12.875-10.441406 23.3125-23.320312 23.3125zm0 0" fill="#5861c7"/><path d="m91.320312 512h-22.40625c-7.453124 0-13.496093-6.039062-13.496093-13.496094v-19.308594h49.398437v19.308594c0 7.457032-6.042968 13.496094-13.496094 13.496094zm0 0" fill="#b665c2"/><path d="m437.113281 512h-22.40625c-7.453125 0-13.496093-6.039062-13.496093-13.496094v-19.308594h49.398437v19.308594c0 7.457032-6.042969 13.496094-13.496094 13.496094zm0 0" fill="#b665c2"/><path d="m94.34375 393.226562c0 10.734376-8.703125 19.4375-19.4375 19.4375s-19.4375-8.703124-19.4375-19.4375c0-10.734374 8.703125-19.4375 19.4375-19.4375s19.4375 8.703126 19.4375 19.4375zm0 0" fill="#69ebfc"/><path d="m171.886719 393.226562c0 10.734376-8.703125 19.4375-19.4375 19.4375-10.738281 0-19.4375-8.703124-19.4375-19.4375 0-10.734374 8.699219-19.4375 19.4375-19.4375 10.734375 0 19.4375 8.703126 19.4375 19.4375zm0 0" fill="#69ebfc"/><path d="m249.429688 393.226562c0 10.734376-8.703126 19.4375-19.4375 19.4375-10.734376 0-19.4375-8.703124-19.4375-19.4375 0-10.734374 8.703124-19.4375 19.4375-19.4375 10.734374 0 19.4375 8.703126 19.4375 19.4375zm0 0" fill="#69ebfc"/><path d="m441.222656 402.484375h-112.621094c-5.1875 0-9.386718-4.203125-9.386718-9.386719s4.199218-9.386718 9.386718-9.386718h112.621094c5.183594 0 9.386719 4.203124 9.386719 9.386718s-4.203125 9.386719-9.386719 9.386719zm0 0" fill="#69ebfc"/><path d="m113.707031 168.132812c0 18.101563-14.675781 32.777344-32.78125 32.777344s-32.78125-14.675781-32.78125-32.777344c0-18.105468 14.675781-32.78125 32.78125-32.78125s32.78125 14.675782 32.78125 32.78125zm0 0" fill="#d476e2"/><path d="m57.746094 158.953125c12.800781-12.800781 33.554687-12.800781 46.359375 0 4.605469 4.609375 7.527343 10.253906 8.820312 16.179687 2.292969-10.542968-.628906-21.988281-8.820312-30.179687-12.804688-12.800781-33.558594-12.800781-46.359375 0-8.195313 8.195313-11.117188 19.640625-8.820313 30.179687 1.292969-5.929687 4.214844-11.570312 8.820313-16.179687zm0 0" fill="#ea82fa"/><path d="m236.089844 197.132812c-.429688 0-.863282-.023437-1.296875-.066406-6.871094-.710937-11.871094-6.855468-11.164063-13.726562 4.460938-43.289063-10.5625-85.695313-41.207031-116.339844s-73.054687-45.652344-116.335937-41.203125c-6.886719.710937-13.023438-4.292969-13.730469-11.164063-.707031-6.875 4.289062-13.023437 11.164062-13.726562 50.824219-5.226562 100.601563 12.410156 136.597657 48.402344 35.996093 35.996094 53.636718 85.78125 48.402343 136.59375-.664062 6.4375-6.097656 11.230468-12.429687 11.230468zm0 0" fill="#d476e2"/><path d="m192.515625 192.976562c-.445313 0-.890625-.023437-1.339844-.070312-6.871093-.730469-11.851562-6.894531-11.121093-13.765625 3.210937-30.207031-7.210938-59.792969-28.597657-81.175781-21.386719-21.386719-50.980469-31.820313-81.175781-28.601563-6.851562.730469-13.035156-4.246093-13.765625-11.121093-.730469-6.871094 4.25-13.03125 11.121094-13.761719 37.761719-4.003907 74.757812 9.03125 101.515625 35.785156 26.753906 26.757813 39.800781 63.761719 35.789062 101.519531-.683594 6.425782-6.113281 11.191406-12.425781 11.191406zm0 0" fill="#d476e2"/><path d="m148.964844 188.820312c-.472656 0-.949219-.023437-1.433594-.082031-6.867188-.78125-11.796875-6.984375-11.011719-13.847656 1.949219-17.078125-3.890625-33.828125-16.027343-45.960937-12.132813-12.136719-28.886719-17.964844-45.960938-16.027344-6.878906.804687-13.066406-4.144532-13.847656-11.011719-.785156-6.867187 4.144531-13.066406 11.007812-13.847656 24.707032-2.820313 48.9375 5.628906 66.496094 23.191406 17.558594 17.558594 26.015625 41.792969 23.195312 66.496094-.730468 6.382812-6.140624 11.089843-12.417968 11.089843zm0 0" fill="#d476e2"/><g fill="#ea82fa"><path d="m53.335938 18.355469c1.746093-4 5.53125-6.972657 10.183593-7.453125 50.824219-5.222656 100.601563 12.410156 136.597657 48.402344 30.621093 30.625 47.949218 71.234374 49.222656 113.960937 1.339844-46.351563-16.21875-90.953125-49.222656-123.960937-35.996094-35.992188-85.773438-53.625-136.597657-48.402344-6.875.707031-11.871093 6.855468-11.164062 13.726562.136719 1.324219.476562 2.574219.980469 3.726563zm0 0"/><path d="m57.492188 61.929688c1.742187-3.988282 5.507812-6.957032 10.144531-7.449219 37.761719-4.003907 74.757812 9.035156 101.515625 35.789062 22.445312 22.445313 35.191406 52.105469 36.367187 83.367188 1.453125-34.890625-11.539062-68.539063-36.367187-93.367188-26.757813-26.753906-63.753906-39.792969-101.515625-35.789062-6.871094.730469-11.847657 6.894531-11.121094 13.765625.140625 1.304687.476563 2.542968.976563 3.683594zm0 0"/><path d="m180.488281 173.640625c-.09375 1.832031-.234375 3.664063-.429687 5.5-.175782 1.644531-.015625 3.246094.410156 4.742187.183594-3.429687.179688-6.847656.019531-10.242187zm0 0"/><path d="m61.644531 105.488281c1.726563-3.960937 5.449219-6.921875 10.046875-7.445312 24.707032-2.820313 48.9375 5.628906 66.496094 23.191406 14.148438 14.144531 22.371094 32.625 23.566406 52.191406 1.425782-23.195312-7.027344-45.65625-23.566406-62.191406-17.558594-17.558594-41.785156-26.011719-66.496094-23.191406-6.867187.78125-11.792968 6.980469-11.007812 13.847656.144531 1.273437.476562 2.480469.960937 3.597656zm0 0"/><path d="m136.644531 173.425781c-.039062.488281-.070312.976563-.125 1.464844-.179687 1.589844-.042969 3.136719.339844 4.597656.039063-2.03125-.035156-4.054687-.214844-6.0625zm0 0"/></g></svg>