<svg height="512pt" viewBox="0 0 512 512.0015" width="512pt" xmlns="http://www.w3.org/2000/svg"><path d="m261.445312 125.332031-10.753906 10.75-122.65625-122.65625c-2.96875-2.96875-2.96875-7.78125 0-10.753906 2.96875-2.96875 7.78125-2.96875 10.75 0zm0 0" fill="#d476e2"/><path d="m261.445312 135.636719-10.753906-10.75 122.660156-122.660157c2.96875-2.96875 7.78125-2.96875 10.75 0 2.972657 2.972657 2.972657 7.78125 0 10.753907zm0 0" fill="#d476e2"/><path d="m128.035156 12.671875c2.96875-2.96875 7.78125-2.96875 10.75 0l117.660156 117.660156 5-5-122.660156-122.660156c-2.96875-2.96875-7.78125-2.96875-10.75 0-2.851562 2.855469-2.933594 7.390625-.308594 10.378906.109376-.125.191407-.261719.308594-.378906zm0 0" fill="#ea82fa"/><path d="m373.347656 12.226562c2.96875-2.96875 7.78125-2.96875 10.753906 0 .117188.117188.199219.253907.308594.375 2.625-2.984374 2.542969-7.523437-.308594-10.375-2.972656-2.96875-7.78125-2.96875-10.753906 0l-122.65625 122.660157 5 5zm0 0" fill="#ea82fa"/><path d="m256.179688 86.902344h-.355469c-24.90625 0-45.097657 20.191406-45.097657 45.097656h90.550782c0-24.90625-20.191406-45.097656-45.097656-45.097656zm0 0" fill="#5861c7"/><path d="m255.820312 96.902344h.359376c21.46875 0 39.417968 15.007812 43.972656 35.097656h1.125c0-24.90625-20.191406-45.097656-45.097656-45.097656h-.359376c-24.90625 0-45.097656 20.191406-45.097656 45.097656h1.125c4.554688-20.089844 22.503906-35.097656 43.972656-35.097656zm0 0" fill="#6770e6"/><path d="m494.496094 512h-476.992188c-9.667968 0-17.503906-7.835938-17.503906-17.503906v-344.992188c0-9.667968 7.835938-17.503906 17.503906-17.503906h476.992188c9.667968 0 17.503906 7.835938 17.503906 17.503906v344.992188c0 9.667968-7.835938 17.503906-17.503906 17.503906zm0 0" fill="#6770e6"/><path d="m494.496094 132h-476.992188c-9.667968 0-17.503906 7.835938-17.503906 17.503906v14c0-9.667968 7.835938-17.503906 17.503906-17.503906h476.992188c9.667968 0 17.503906 7.835938 17.503906 17.503906v-14c0-9.667968-7.835938-17.503906-17.503906-17.503906zm0 0" fill="#8f95e6"/><path d="m17.503906 512h476.992188c9.667968 0 17.503906-7.835938 17.503906-17.503906v-14c0 9.667968-7.835938 17.503906-17.503906 17.503906h-476.992188c-9.667968 0-17.503906-7.835938-17.503906-17.503906v14c0 9.667968 7.835938 17.503906 17.503906 17.503906zm0 0" fill="#5861c7"/><path d="m469.542969 482h-427.085938c-6.878906 0-12.457031-5.578125-12.457031-12.457031v-295.082031c0-6.882813 5.578125-12.460938 12.457031-12.460938h427.085938c6.878906 0 12.457031 5.578125 12.457031 12.460938v295.082031c0 6.878906-5.578125 12.457031-12.457031 12.457031zm0 0" fill="#5861c7"/><path d="m357.0625 162.003906v320h-8v-320zm0 0" fill="#4e56b0"/><path d="m482 359.425781h-124.9375v-8h124.9375zm0 0" fill="#4e56b0"/><path d="m46 460.375v-276.746094c0-3.109375 2.519531-5.628906 5.625-5.628906h276.75c3.109375 0 5.625 2.519531 5.625 5.628906v276.746094c0 3.109375-2.515625 5.625-5.625 5.625h-276.75c-3.105469 0-5.625-2.515625-5.625-5.625zm0 0" fill="#69ebfc"/><path d="m463.554688 419.535156c0 24.308594-19.710938 44.019532-44.023438 44.019532-24.308594 0-44.019531-19.710938-44.019531-44.019532 0-24.3125 19.710937-44.023437 44.019531-44.023437 24.3125 0 44.023438 19.710937 44.023438 44.023437zm0 0" fill="#d476e2"/><path d="m449.117188 419.535156c0 16.335938-13.246094 29.582032-29.585938 29.582032-16.335938 0-29.582031-13.246094-29.582031-29.582032 0-16.339844 13.246093-29.585937 29.582031-29.585937 16.339844 0 29.585938 13.246093 29.585938 29.585937zm0 0" fill="#4e56b0"/><path d="m437.730469 419.535156c0 10.046875-8.148438 18.195313-18.199219 18.195313s-18.195312-8.148438-18.195312-18.195313c0-10.050781 8.144531-18.199218 18.195312-18.199218s18.199219 8.148437 18.199219 18.199218zm0 0" fill="#5861c7"/><path d="m445.8125 291.316406c0 14.515625-11.765625 26.28125-26.28125 26.28125-14.511719 0-26.277344-11.765625-26.277344-26.28125 0-14.511718 11.765625-26.277344 26.277344-26.277344 14.515625 0 26.28125 11.765626 26.28125 26.277344zm0 0" fill="#d476e2"/><path d="m434.789062 291.316406c0 8.425782-6.832031 15.257813-15.257812 15.257813s-15.253906-6.832031-15.253906-15.257813c0-8.425781 6.828125-15.253906 15.253906-15.253906s15.257812 6.828125 15.257812 15.253906zm0 0" fill="#b665c2"/><path d="m434.648438 282.203125-24.269532 24.269531c-1.667968 1.667969-4.371094 1.667969-6.039062 0-1.667969-1.667968-1.667969-4.375 0-6.039062l24.269531-24.269532c1.667969-1.667968 4.371094-1.667968 6.039063 0 1.667968 1.667969 1.667968 4.371094 0 6.039063zm0 0" fill="#ea82fa"/><path d="m445.8125 218.757812c0 14.515626-11.765625 26.28125-26.28125 26.28125-14.511719 0-26.277344-11.765624-26.277344-26.28125 0-14.515624 11.765625-26.28125 26.277344-26.28125 14.515625 0 26.28125 11.765626 26.28125 26.28125zm0 0" fill="#d476e2"/><path d="m434.789062 218.757812c0 8.425782-6.832031 15.253907-15.257812 15.253907s-15.253906-6.828125-15.253906-15.253907c0-8.425781 6.828125-15.257812 15.253906-15.257812s15.257812 6.832031 15.257812 15.257812zm0 0" fill="#b665c2"/><path d="m436.652344 223.027344h-34.320313c-2.355469 0-4.269531-1.910156-4.269531-4.269532 0-2.359374 1.914062-4.269531 4.269531-4.269531h34.320313c2.359375 0 4.269531 1.910157 4.269531 4.269531 0 2.359376-1.910156 4.269532-4.269531 4.269532zm0 0" fill="#ea82fa"/><path d="m424.921875 380.902344v77.261718h-10.78125v-77.261718zm0 0" fill="#d476e2"/><path d="m380.902344 414.144531h77.261718v10.777344h-77.261718zm0 0" fill="#d476e2"/><g fill="#6770e6"><path d="m374.289062 173.617188c0 3.097656-2.511718 5.613281-5.613281 5.613281-3.097656 0-5.613281-2.515625-5.613281-5.613281 0-3.101563 2.515625-5.617188 5.613281-5.617188 3.101563 0 5.613281 2.515625 5.613281 5.617188zm0 0"/><path d="m476 173.617188c0 3.097656-2.511719 5.613281-5.613281 5.613281-3.101563 0-5.613281-2.515625-5.613281-5.613281 0-3.101563 2.511718-5.617188 5.613281-5.617188 3.101562 0 5.613281 2.515625 5.613281 5.617188zm0 0"/><path d="m374.289062 339.8125c0 3.097656-2.511718 5.613281-5.613281 5.613281-3.097656 0-5.613281-2.515625-5.613281-5.613281 0-3.101562 2.515625-5.613281 5.613281-5.613281 3.101563 0 5.613281 2.511719 5.613281 5.613281zm0 0"/><path d="m476 339.8125c0 3.097656-2.511719 5.613281-5.613281 5.613281-3.101563 0-5.613281-2.515625-5.613281-5.613281 0-3.101562 2.511718-5.613281 5.613281-5.613281 3.101562 0 5.613281 2.511719 5.613281 5.613281zm0 0"/><path d="m374.289062 371.039062c0 3.101563-2.511718 5.613282-5.613281 5.613282-3.097656 0-5.613281-2.511719-5.613281-5.613282 0-3.101562 2.515625-5.613281 5.613281-5.613281 3.101563 0 5.613281 2.511719 5.613281 5.613281zm0 0"/><path d="m476 371.039062c0 3.101563-2.511719 5.613282-5.613281 5.613282-3.101563 0-5.613281-2.511719-5.613281-5.613282 0-3.101562 2.511718-5.613281 5.613281-5.613281 3.101562 0 5.613281 2.511719 5.613281 5.613281zm0 0"/><path d="m374.289062 470.386719c0 3.101562-2.511718 5.613281-5.613281 5.613281-3.097656 0-5.613281-2.511719-5.613281-5.613281 0-3.101563 2.515625-5.613281 5.613281-5.613281 3.101563 0 5.613281 2.511718 5.613281 5.613281zm0 0"/><path d="m476 470.386719c0 3.101562-2.511719 5.613281-5.613281 5.613281-3.101563 0-5.613281-2.511719-5.613281-5.613281 0-3.101563 2.511718-5.613281 5.613281-5.613281 3.101562 0 5.613281 2.511718 5.613281 5.613281zm0 0"/></g></svg>