<?xml version="1.0" encoding="UTF-8"?>
<svg xmlns="http://www.w3.org/2000/svg" xmlns:xlink="http://www.w3.org/1999/xlink" width="512" height="512" viewBox="0 0 58 58" version="1.1"><!-- Generator: Sketch 51.3 (57544) - http://www.bohemiancoding.com/sketch --><title>090 - Pencil Pot</title><desc>Created with Sketch.</desc><defs/><g id="Page-1" stroke="none" stroke-width="1" fill="none" fill-rule="evenodd"><g id="090---Pencil-Pot" fill-rule="nonzero"><rect id="Rectangle-path" fill="#2980BA" x="22" y="9.86" width="14" height="21.14"/><rect id="Rectangle-path" fill="#3B97D3" x="24" y="9.86" width="9" height="21.14"/><ellipse id="Oval" fill="#2980BA" cx="29" cy="9.86" rx="7" ry="3"/><ellipse id="Oval" fill="#2C3E50" cx="29" cy="9.86" rx="6" ry="2"/><rect id="Rectangle-path" fill="#24AE5F" x="10" y="17" width="14" height="33"/><rect id="Rectangle-path" fill="#71C285" x="12" y="17" width="10" height="33"/><ellipse id="Oval" fill="#24AE5F" cx="17" cy="17" rx="7" ry="3"/><ellipse id="Oval" fill="#527F72" cx="17" cy="17" rx="6" ry="2"/><rect id="Rectangle-path" fill="#24AE5F" x="34" y="3" width="14" height="46"/><rect id="Rectangle-path" fill="#71C285" x="36" y="3" width="10" height="46"/><ellipse id="Oval" fill="#24AE5F" cx="41" cy="3" rx="7" ry="3"/><ellipse id="Oval" fill="#527F72" cx="41" cy="3" rx="6" ry="2"/><path d="M19,44 L19,50 C19,52.21 14.744,54 9.5,54 C4.256,54 0,52.21 0,50 L0,44 L19,44 Z" id="Shape" fill="#894B9D"/><path d="M17.1,44 L17.1,50 C17.1,52.21 13.695,54 9.5,54 C5.305,54 1.9,52.21 1.9,50 L1.9,44 L17.1,44 Z" id="Shape" fill="#955BA5"/><ellipse id="Oval" fill="#894B9D" cx="9.5" cy="44" rx="9.5" ry="4"/><ellipse id="Oval" fill="#3D324C" cx="9.5" cy="44" rx="8.55" ry="3.2"/><path d="M58,44 L58,50 C58,52.21 53.744,54 48.5,54 C43.256,54 39,52.21 39,50 L39,44 L58,44 Z" id="Shape" fill="#894B9D"/><path d="M56.1,44 L56.1,50 C56.1,52.21 52.695,54 48.5,54 C44.305,54 40.9,52.21 40.9,50 L40.9,44 L56.1,44 Z" id="Shape" fill="#955BA5"/><ellipse id="Oval" fill="#894B9D" cx="48.5" cy="44" rx="9.5" ry="4"/><ellipse id="Oval" fill="#3D324C" cx="48.5" cy="44" rx="8.55" ry="3.2"/><rect id="Rectangle-path" fill="#DF4D60" x="22" y="29" width="14" height="16.14"/><rect id="Rectangle-path" fill="#FF5364" x="24" y="29" width="10" height="16.14"/><path d="M39,48 L39,54 C39,56.21 34.52,58 29,58 C23.48,58 19,56.21 19,54 L19,48 L39,48 Z" id="Shape" fill="#894B9D"/><path d="M37,48 L37,54 C37,56.21 33.416,58 29,58 C24.584,58 21,56.21 21,54 L21,48 L37,48 Z" id="Shape" fill="#955BA5"/><ellipse id="Oval" fill="#894B9D" cx="29" cy="48" rx="10" ry="4"/><ellipse id="Oval" fill="#3D324C" cx="29" cy="48" rx="9" ry="3.2"/><ellipse id="Oval" fill="#DF4D60" cx="29" cy="29" rx="7" ry="3"/><ellipse id="Oval" fill="#802D40" cx="29" cy="29" rx="6" ry="2"/></g></g></svg>
