<?xml version="1.0" encoding="UTF-8"?>
<svg xmlns="http://www.w3.org/2000/svg" xmlns:xlink="http://www.w3.org/1999/xlink" width="512" height="512" viewBox="0 0 44 58" version="1.1"><!-- Generator: Sketch 51.3 (57544) - http://www.bohemiancoding.com/sketch --><title>015 - Calculator</title><desc>Created with Sketch.</desc><defs/><g id="Page-1" stroke="none" stroke-width="1" fill="none" fill-rule="evenodd"><g id="015---Calculator" fill-rule="nonzero"><rect id="Rectangle-path" fill="#2980BA" x="0" y="0" width="44" height="58" rx="4"/><rect id="Rectangle-path" fill="#3B97D3" x="2" y="0" width="40" height="58" rx="4"/><path d="M4,0 L40,0 L40,12 C40,13.1045695 39.1045695,14 38,14 L6,14 C4.8954305,14 4,13.1045695 4,12 L4,0 Z" id="Shape" fill="#C03A2B"/><path d="M6,0 L38,0 L38,12 C38,13.1045695 37.1045695,14 36,14 L8,14 C6.8954305,14 6,13.1045695 6,12 L6,0 Z" id="Shape" fill="#E64C3C"/><rect id="Rectangle-path" fill="#7ED09E" x="8" y="4" width="28" height="10" rx="1"/><rect id="Rectangle-path" fill="#2C3E50" x="4" y="18" width="6" height="6" rx="1"/><rect id="Rectangle-path" fill="#2C3E50" x="14" y="18" width="6" height="6" rx="1"/><rect id="Rectangle-path" fill="#2C3E50" x="24" y="18" width="6" height="6" rx="1"/><rect id="Rectangle-path" fill="#2C3E50" x="34" y="18" width="6" height="6" rx="1"/><rect id="Rectangle-path" fill="#2C3E50" x="4" y="28" width="6" height="6" rx="1"/><rect id="Rectangle-path" fill="#2C3E50" x="14" y="28" width="6" height="6" rx="1"/><rect id="Rectangle-path" fill="#2C3E50" x="24" y="28" width="6" height="6" rx="1"/><rect id="Rectangle-path" fill="#2C3E50" x="34" y="28" width="6" height="6" rx="1"/><rect id="Rectangle-path" fill="#2C3E50" x="4" y="38" width="6" height="6" rx="1"/><rect id="Rectangle-path" fill="#2C3E50" x="14" y="38" width="6" height="6" rx="1"/><rect id="Rectangle-path" fill="#2C3E50" x="24" y="38" width="6" height="6" rx="1"/><rect id="Rectangle-path" fill="#2C3E50" x="4" y="48" width="6" height="6" rx="1"/><rect id="Rectangle-path" fill="#2C3E50" x="14" y="48" width="6" height="6" rx="1"/><rect id="Rectangle-path" fill="#2C3E50" x="24" y="48" width="6" height="6" rx="1"/><rect id="Rectangle-path" fill="#2C3E50" x="34" y="38" width="6" height="16" rx="1"/><path d="M9,18 L9,22 C9,22.5522847 8.55228475,23 8,23 L4,23 L4,19 C4,18.4477153 4.44771525,18 5,18 L9,18 Z" id="Shape" fill="#35495E"/><path d="M19,18 L19,22 C19,22.5522847 18.5522847,23 18,23 L14,23 L14,19 C14,18.4477153 14.4477153,18 15,18 L19,18 Z" id="Shape" fill="#35495E"/><path d="M29,18 L29,22 C29,22.5522847 28.5522847,23 28,23 L24,23 L24,19 C24,18.4477153 24.4477153,18 25,18 L29,18 Z" id="Shape" fill="#35495E"/><path d="M39,18 L39,22 C39,22.5522847 38.5522847,23 38,23 L34,23 L34,19 C34,18.4477153 34.4477153,18 35,18 L39,18 Z" id="Shape" fill="#35495E"/><path d="M9,28 L9,32 C9,32.5522847 8.55228475,33 8,33 L4,33 L4,29 C4,28.4477153 4.44771525,28 5,28 L9,28 Z" id="Shape" fill="#35495E"/><path d="M19,28 L19,32 C19,32.5522847 18.5522847,33 18,33 L14,33 L14,29 C14,28.4477153 14.4477153,28 15,28 L19,28 Z" id="Shape" fill="#35495E"/><path d="M29,28 L29,32 C29,32.5522847 28.5522847,33 28,33 L24,33 L24,29 C24,28.4477153 24.4477153,28 25,28 L29,28 Z" id="Shape" fill="#35495E"/><path d="M39,28 L39,32 C39,32.5522847 38.5522847,33 38,33 L34,33 L34,29 C34,28.4477153 34.4477153,28 35,28 L39,28 Z" id="Shape" fill="#35495E"/><path d="M9,38 L9,42 C9,42.5522847 8.55228475,43 8,43 L4,43 L4,39 C4,38.4477153 4.44771525,38 5,38 L9,38 Z" id="Shape" fill="#35495E"/><path d="M19,38 L19,42 C19,42.5522847 18.5522847,43 18,43 L14,43 L14,39 C14,38.4477153 14.4477153,38 15,38 L19,38 Z" id="Shape" fill="#35495E"/><path d="M29,38 L29,42 C29,42.5522847 28.5522847,43 28,43 L24,43 L24,39 C24,38.4477153 24.4477153,38 25,38 L29,38 Z" id="Shape" fill="#35495E"/><path d="M9,48 L9,52 C9,52.5522847 8.55228475,53 8,53 L4,53 L4,49 C4,48.4477153 4.44771525,48 5,48 L9,48 Z" id="Shape" fill="#35495E"/><path d="M19,48 L19,52 C19,52.5522847 18.5522847,53 18,53 L14,53 L14,49 C14,48.4477153 14.4477153,48 15,48 L19,48 Z" id="Shape" fill="#35495E"/><path d="M29,48 L29,52 C29,52.5522847 28.5522847,53 28,53 L24,53 L24,49 C24,48.4477153 24.4477153,48 25,48 L29,48 Z" id="Shape" fill="#35495E"/><path d="M39,38 L39,52 C39,52.5522847 38.5522847,53 38,53 L34,53 L34,39 C34,38.4477153 34.4477153,38 35,38 L39,38 Z" id="Shape" fill="#35495E"/><path d="M32,8 C31.4477153,8 31,7.55228475 31,7 L31,5 C31,4.44771525 31.4477153,4 32,4 C32.5522847,4 33,4.44771525 33,5 L33,7 C33,7.55228475 32.5522847,8 32,8 Z" id="Shape" fill="#527F72"/><path d="M32,15 C31.4477153,15 31,14.5522847 31,14 L31,11 C31,10.4477153 31.4477153,10 32,10 C32.5522847,10 33,10.4477153 33,11 L33,14 C33,14.5522847 32.5522847,15 32,15 Z" id="Shape" fill="#527F72"/><path d="M28,8 C27.4477153,8 27,7.55228475 27,7 L27,5 C27,4.44771525 27.4477153,4 28,4 C28.5522847,4 29,4.44771525 29,5 L29,7 C29,7.55228475 28.5522847,8 28,8 Z" id="Shape" fill="#527F72"/><path d="M28,15 C27.4477153,15 27,14.5522847 27,14 L27,11 C27,10.4477153 27.4477153,10 28,10 C28.5522847,10 29,10.4477153 29,11 L29,14 C29,14.5522847 28.5522847,15 28,15 Z" id="Shape" fill="#527F72"/><path d="M24,8 C23.4477153,8 23,7.55228475 23,7 L23,5 C23,4.44771525 23.4477153,4 24,4 C24.5522847,4 25,4.44771525 25,5 L25,7 C25,7.55228475 24.5522847,8 24,8 Z" id="Shape" fill="#527F72"/><path d="M24,15 C23.4477153,15 23,14.5522847 23,14 L23,11 C23,10.4477153 23.4477153,10 24,10 C24.5522847,10 25,10.4477153 25,11 L25,14 C25,14.5522847 24.5522847,15 24,15 Z" id="Shape" fill="#527F72"/><path d="M20,8 C19.4477153,8 19,7.55228475 19,7 L19,5 C19,4.44771525 19.4477153,4 20,4 C20.5522847,4 21,4.44771525 21,5 L21,7 C21,7.55228475 20.5522847,8 20,8 Z" id="Shape" fill="#527F72"/><path d="M20,15 C19.4477153,15 19,14.5522847 19,14 L19,11 C19,10.4477153 19.4477153,10 20,10 C20.5522847,10 21,10.4477153 21,11 L21,14 C21,14.5522847 20.5522847,15 20,15 Z" id="Shape" fill="#527F72"/><path d="M35,15 L9,15 C7.8954305,15 7,14.1045695 7,13 L7,5 C7,3.8954305 7.8954305,3 9,3 L35,3 C36.1045695,3 37,3.8954305 37,5 L37,13 C37,14.1045695 36.1045695,15 35,15 Z M9,5 L9,13 L35,13 L35,5 L9,5 Z" id="Shape" fill="#C03A2B"/><path d="M10,19 L6,19 C5.44771525,19 5,19.4477153 5,20 L5,24 C4.44771525,24 4,23.5522847 4,23 L4,19 C4,18.4477153 4.44771525,18 5,18 L9,18 C9.55228475,18 10,18.4477153 10,19 Z" id="Shape" fill="#285680"/><path d="M20,19 L16,19 C15.4477153,19 15,19.4477153 15,20 L15,24 C14.4477153,24 14,23.5522847 14,23 L14,19 C14,18.4477153 14.4477153,18 15,18 L19,18 C19.5522847,18 20,18.4477153 20,19 Z" id="Shape" fill="#285680"/><path d="M30,19 L26,19 C25.4477153,19 25,19.4477153 25,20 L25,24 C24.4477153,24 24,23.5522847 24,23 L24,19 C24,18.4477153 24.4477153,18 25,18 L29,18 C29.5522847,18 30,18.4477153 30,19 Z" id="Shape" fill="#285680"/><path d="M40,19 L36,19 C35.4477153,19 35,19.4477153 35,20 L35,24 C34.4477153,24 34,23.5522847 34,23 L34,19 C34,18.4477153 34.4477153,18 35,18 L39,18 C39.5522847,18 40,18.4477153 40,19 Z" id="Shape" fill="#285680"/><path d="M10,29 L6,29 C5.44771525,29 5,29.4477153 5,30 L5,34 C4.44771525,34 4,33.5522847 4,33 L4,29 C4,28.4477153 4.44771525,28 5,28 L9,28 C9.55228475,28 10,28.4477153 10,29 Z" id="Shape" fill="#285680"/><path d="M20,29 L16,29 C15.4477153,29 15,29.4477153 15,30 L15,34 C14.4477153,34 14,33.5522847 14,33 L14,29 C14,28.4477153 14.4477153,28 15,28 L19,28 C19.5522847,28 20,28.4477153 20,29 Z" id="Shape" fill="#285680"/><path d="M30,29 L26,29 C25.4477153,29 25,29.4477153 25,30 L25,34 C24.4477153,34 24,33.5522847 24,33 L24,29 C24,28.4477153 24.4477153,28 25,28 L29,28 C29.5522847,28 30,28.4477153 30,29 Z" id="Shape" fill="#285680"/><path d="M40,29 L36,29 C35.4477153,29 35,29.4477153 35,30 L35,34 C34.4477153,34 34,33.5522847 34,33 L34,29 C34,28.4477153 34.4477153,28 35,28 L39,28 C39.5522847,28 40,28.4477153 40,29 Z" id="Shape" fill="#285680"/><path d="M10,39 L6,39 C5.44771525,39 5,39.4477153 5,40 L5,44 C4.44771525,44 4,43.5522847 4,43 L4,39 C4,38.4477153 4.44771525,38 5,38 L9,38 C9.55228475,38 10,38.4477153 10,39 Z" id="Shape" fill="#285680"/><path d="M20,39 L16,39 C15.4477153,39 15,39.4477153 15,40 L15,44 C14.4477153,44 14,43.5522847 14,43 L14,39 C14,38.4477153 14.4477153,38 15,38 L19,38 C19.5522847,38 20,38.4477153 20,39 Z" id="Shape" fill="#285680"/><path d="M30,39 L26,39 C25.4477153,39 25,39.4477153 25,40 L25,44 C24.4477153,44 24,43.5522847 24,43 L24,39 C24,38.4477153 24.4477153,38 25,38 L29,38 C29.5522847,38 30,38.4477153 30,39 Z" id="Shape" fill="#285680"/><path d="M10,49 L6,49 C5.44771525,49 5,49.4477153 5,50 L5,54 C4.44771525,54 4,53.5522847 4,53 L4,49 C4,48.4477153 4.44771525,48 5,48 L9,48 C9.55228475,48 10,48.4477153 10,49 Z" id="Shape" fill="#285680"/><path d="M20,49 L16,49 C15.4477153,49 15,49.4477153 15,50 L15,54 C14.4477153,54 14,53.5522847 14,53 L14,49 C14,48.4477153 14.4477153,48 15,48 L19,48 C19.5522847,48 20,48.4477153 20,49 Z" id="Shape" fill="#285680"/><path d="M30,49 L26,49 C25.4477153,49 25,49.4477153 25,50 L25,54 C24.4477153,54 24,53.5522847 24,53 L24,49 C24,48.4477153 24.4477153,48 25,48 L29,48 C29.5522847,48 30,48.4477153 30,49 Z" id="Shape" fill="#285680"/><path d="M40,39 L36,39 C35.4477153,39 35,39.4477153 35,40 L35,54 C34.4477153,54 34,53.5522847 34,53 L34,39 C34,38.4477153 34.4477153,38 35,38 L39,38 C39.5522847,38 40,38.4477153 40,39 Z" id="Shape" fill="#285680"/></g></g></svg>
