<?xml version="1.0" encoding="UTF-8"?>
<svg xmlns="http://www.w3.org/2000/svg" xmlns:xlink="http://www.w3.org/1999/xlink" width="512" height="512" viewBox="0 0 58 58" version="1.1"><!-- Generator: Sketch 51.3 (57544) - http://www.bohemiancoding.com/sketch --><title>097 - CD</title><desc>Created with Sketch.</desc><defs/><g id="Page-1" stroke="none" stroke-width="1" fill="none" fill-rule="evenodd"><g id="097---CD" fill-rule="nonzero"><path d="M54,0 L4,0 C1.790861,-1.11022302e-16 2.22044605e-16,1.790861 0,4 L0,54 C2.22044605e-16,56.209139 1.790861,58 4,58 L54,58 C56.209139,58 58,56.209139 58,54 L58,4 C58,1.790861 56.209139,2.22044605e-16 54,0 Z M53,29 C53,42.254834 42.254834,53 29,53 C15.745166,53 5,42.254834 5,29 C4.99723386,27.9161763 5.07074881,26.8335016 5.22,25.76 C10.3582352,27.3162551 15.6545579,28.2923348 21.01,28.67 C22.31,28.79 23.64,28.87 25,28.91 C26.31,28.97 27.65,29 29,29 C30.35,29 31.69,28.97 33,28.91 C34.36,28.87 35.69,28.79 36.99,28.67 C42.3421753,28.2924029 47.6351927,27.3163142 52.77,25.76 C52.9275731,26.8327297 53.0044554,27.9157683 53,29 Z" id="Shape" fill="#90BAE1"/><path d="M58,4 L58,23.7 C56.310619,24.5164529 54.5623824,25.2050509 52.77,25.76 C47.6351927,27.3163142 42.3421753,28.2924029 36.99,28.67 C35.69,28.79 34.36,28.87 33,28.91 C31.69,28.97 30.35,29 29,29 C27.65,29 26.31,28.97 25,28.91 C23.64,28.87 22.31,28.79 21.01,28.67 C15.6545579,28.2923348 10.3582352,27.3162551 5.22,25.76 C3.4323803,25.2007334 1.68778248,24.5122522 3.55271368e-15,23.7 L3.55271368e-15,4 C3.10862447e-15,1.790861 1.790861,4.4408921e-16 4,0 L54,0 C56.209139,2.22044605e-16 58,1.790861 58,4 Z" id="Shape" fill="#B0D3F0"/><path d="M42.76,48.65 C38.7327442,51.4864575 33.9258749,53.0060709 29,53.0000181 L29,37 C30.6445625,37.0022555 32.248947,36.4919284 33.59,35.54 L33.59,35.55 L42.76,48.65 Z" id="Shape" fill="#804169"/><path d="M29,4.99998188 L29,21 C27.3554375,20.9977445 25.751053,21.5080716 24.41,22.46 L24.41,22.45 L15.24,9.35 C19.2672558,6.51354253 24.0741251,4.99392905 29,4.99998188 Z" id="Shape" fill="#46B29D"/><path d="M29,37 L29,53 C15.7465382,52.9966879 5.00331212,42.2534618 5,29 C4.99723386,27.9161763 5.07074881,26.8335016 5.22,25.76 C10.3582352,27.3162551 15.6545579,28.2923348 21.01,28.67 C21,28.78 21,28.89 21,29 C21.0060592,33.4157658 24.5842342,36.9939408 29,37 Z" id="Shape" fill="#547580"/><path d="M53,29 C53.0055639,36.8304737 49.1814377,44.1687628 42.76,48.65 L33.59,35.55 L33.59,35.54 C35.7250466,34.0464232 36.9977043,31.6056075 37,29 C37,28.89 37,28.78 36.99,28.67 C42.3421753,28.2924029 47.6351927,27.3163142 52.77,25.76 C52.9275731,26.8327297 53.0044554,27.9157683 53,29 Z" id="Shape" fill="#547580"/><path d="M52.77,25.76 C47.6351927,27.3163142 42.3421753,28.2924029 36.99,28.67 C35.69,28.79 34.36,28.87 33,28.91 C31.69,28.97 30.35,29 29,29 C27.65,29 26.31,28.97 25,28.91 C23.64,28.87 22.31,28.79 21.01,28.67 C15.6545579,28.2923348 10.3582352,27.3162551 5.22,25.76 C6.11979215,19.1300208 9.7533612,13.1792356 15.24,9.35 L24.41,22.45 L24.41,22.46 C25.751053,21.5080716 27.3554375,20.9977445 29,21 L29,5 C41.0006271,5.00034493 51.1546753,13.8685838 52.77,25.76 Z" id="Shape" fill="#84B5CB"/><path d="M37,29 C37,33.418278 33.418278,37 29,37 C24.581722,37 21,33.418278 21,29 C21,28.89 21,28.78 21.01,28.67 C22.31,28.79 23.64,28.87 25,28.91 L25,29 C25,31.209139 26.790861,33 29,33 C31.209139,33 33,31.209139 33,29 L33,28.91 C34.36,28.87 35.69,28.79 36.99,28.67 C37,28.78 37,28.89 37,29 Z" id="Shape" fill="#7F8C8D"/><path d="M36.99,28.67 C35.69,28.79 34.36,28.87 33,28.91 C31.69,28.97 30.35,29 29,29 C27.65,29 26.31,28.97 25,28.91 C23.64,28.87 22.31,28.79 21.01,28.67 C21.2230758,24.4124798 24.7371512,21.069875 29,21.069875 C33.2628488,21.069875 36.7769242,24.4124798 36.99,28.67 Z" id="Shape" fill="#A5A5A4"/><path d="M33,28.91 L33,29 C33,31.209139 31.209139,33 29,33 C26.790861,33 25,31.209139 25,29 L25,28.91 C26.31,28.97 27.65,29 29,29 C30.35,29 31.69,28.97 33,28.91 Z" id="Shape" fill="#2C3E50"/><path d="M33,28.91 C31.69,28.97 30.35,29 29,29 C27.65,29 26.31,28.97 25,28.91 C25,26.700861 26.790861,24.91 29,24.91 C31.209139,24.91 33,26.700861 33,28.91 Z" id="Shape" fill="#35495E"/></g></g></svg>
