<?xml version="1.0" encoding="UTF-8"?>
<svg xmlns="http://www.w3.org/2000/svg" xmlns:xlink="http://www.w3.org/1999/xlink" width="512" height="512" viewBox="0 0 50 57" version="1.1"><!-- Generator: Sketch 51.3 (57544) - http://www.bohemiancoding.com/sketch --><title>016 - Desk Lamp</title><desc>Created with Sketch.</desc><defs/><g id="Page-1" stroke="none" stroke-width="1" fill="none" fill-rule="evenodd"><g id="016---Desk-Lamp" transform="translate(-1.000000, 0.000000)" fill-rule="nonzero"><path d="M48.038,15.351 L50.163,13.227 C50.3601371,13.0275131 50.4653503,12.7549754 50.4533984,12.4747697 C50.4414465,12.1945641 50.313408,11.9319755 50.1,11.75 C49.5492405,11.276592 48.9635816,10.8453706 48.348,10.46 C47.8250199,10.1453494 47.2840977,9.86153224 46.728,9.61 C44.486655,8.60661776 42.0209326,8.21003304 39.578,8.46 L28.23,0.7 C27.4394487,0.151085345 26.3690912,0.248007479 25.69,0.93 L19.55,7.07 C18.8688198,7.75085415 18.7696307,8.82049961 19.314,9.615 L27.08,20.96 C26.6879427,24.7641112 27.8707094,28.5628413 30.353,31.472 C30.5340921,31.6884924 30.797511,31.8193328 31.0794354,31.8328211 C31.3613599,31.8463094 31.6360668,31.7412149 31.837,31.543 L33.962,29.42 C38.238,33.066 44.382,33.148 48.07,29.46 C49.6876541,27.8287061 50.6547579,25.6633893 50.79,23.37 C50.9452157,20.4415498 49.9587204,17.5670202 48.038,15.351 Z" id="Shape" fill="#802D40"/><path d="M25.445,1.172 C24.4344743,0.161474279 22.961601,-0.23318094 21.5811971,0.136697145 C20.2007933,0.50657523 19.1225752,1.58479334 18.7526971,2.96519715 C18.3828191,4.34560095 18.7774743,5.81847428 19.788,6.829 L25.445,1.172 Z" id="Shape" fill="#802D40"/><path d="M38,53 L35,53 C35,49.134 31.418,46 27,46 C26.6045615,46.002361 26.2097075,46.0307557 25.818,46.085 L25.83,46.08 L10.63,30.88 C11.1241553,29.683954 11.1273886,28.3414123 10.639,27.143 L10.663,27.167 L22.93,14.9 L20.63,11.54 L7.83,24.34 L7.855,24.365 C5.77337875,23.5194677 3.38339616,24.1662635 2.01229905,25.9461974 C0.641201937,27.7261312 0.625740838,30.2020396 1.97450188,31.998958 C3.32326292,33.7958763 5.70498145,34.4724695 7.797,33.653 L7.77,33.68 L21.787,47.7 C20.0711348,48.9256535 19.0373035,50.8916765 19,53 L16,53 C14.3431458,53 13,54.3431458 13,56 C13,56.5522847 13.4477153,57 14,57 L40,57 C40.5522847,57 41,56.5522847 41,56 C41,54.3431458 39.6568542,53 38,53 Z" id="Shape" fill="#802D40"/><path d="M50.79,23.37 C50.6547579,25.6633893 49.6876541,27.8287061 48.07,29.46 C44.17,33.36 37.52,33.05 33.24,28.76 L47.38,14.62 C49.719784,16.9120913 50.9618088,20.0991051 50.79,23.37 Z" id="Shape" fill="#F3D55B"/><path d="M50.79,23.37 C50.3321999,24.4499339 49.6700666,25.4312493 48.84,26.26 C45.31,29.79 39.54,29.88 35.3,26.7 L47.38,14.62 C49.719784,16.9120913 50.9618088,20.0991051 50.79,23.37 Z" id="Shape" fill="#F9EAB0"/><path d="M50.163,13.227 L31.837,31.543 C31.6360668,31.7412149 31.3613599,31.8463094 31.0794354,31.8328211 C30.797511,31.8193328 30.5340921,31.6884924 30.353,31.472 C27.8707094,28.5628413 26.6879427,24.7641112 27.08,20.96 L19.314,9.615 C18.7696307,8.82049961 18.8688198,7.75085415 19.55,7.07 L25.69,0.93 C26.3690912,0.248007479 27.4394487,0.151085345 28.23,0.7 L39.58,8.46 C42.0229326,8.21003304 44.488655,8.60661776 46.73,9.61 C47.2860977,9.86153224 47.8270199,10.1453494 48.35,10.46 C48.964893,10.8454543 49.5498809,11.276674 50.1,11.75 C50.313408,11.9319755 50.4414465,12.1945641 50.4533984,12.4747697 C50.4653503,12.7549754 50.3601371,13.0275131 50.163,13.227 Z" id="Shape" fill="#FF5364"/><path d="M36.759,21.971 C36.3546041,21.9709137 35.9900659,21.7272725 35.835322,21.3536546 C35.6805781,20.9800366 35.7660921,20.5499943 36.052,20.264 L36.759,19.557 C37.0100745,19.2970434 37.3818779,19.1927874 37.7315073,19.2843028 C38.0811368,19.3758183 38.3541817,19.6488632 38.4456972,19.9984927 C38.5372126,20.3481221 38.4329566,20.7199255 38.173,20.971 L37.466,21.678 C37.2789469,21.8662061 37.0243486,21.9717185 36.759,21.971 Z" id="Shape" fill="#FB7B76"/><path d="M48.35,10.46 C48.3330153,10.6903774 48.2336149,10.9069282 48.07,11.07 L41,18.14 C40.8156089,18.331781 40.5610451,18.4401659 40.295,18.4401659 C40.0289549,18.4401659 39.7743911,18.331781 39.59,18.14 C39.2022764,17.7499625 39.2022764,17.1200375 39.59,16.73 L46.66,9.66 C46.6789221,9.63789103 46.7029492,9.6207288 46.73,9.61 C47.2860977,9.86153224 47.8270199,10.1453494 48.35,10.46 Z" id="Shape" fill="#FB7B76"/><polygon id="Shape" fill="#DF4D60" points="20.63 11.54 7.83 24.34 10.66 27.17 22.93 14.9"/><polygon id="Shape" fill="#DF4D60" points="25.83 46.08 10.63 30.88 7.77 33.68 21.79 47.7"/><path d="M19,53 C19,49.134 22.582,46 27,46 C31.418,46 35,49.134 35,53 L19,53 Z" id="Shape" fill="#E64C3C"/><path d="M6,30 C5.5286597,29.9952962 5.12599909,29.6589249 5.03748917,29.1959457 C4.94897926,28.7329664 5.19916831,28.2717868 5.63553546,28.0935523 C6.0719026,27.9153179 6.57342108,28.069462 6.83435392,28.462015 C7.09528676,28.854568 7.04326405,29.376655 6.71,29.71 C6.51836621,29.8927337 6.26476698,29.9963165 6,30 Z" id="Shape" fill="#FF5364"/></g></g></svg>
