<?xml version="1.0" encoding="UTF-8"?>
<svg xmlns="http://www.w3.org/2000/svg" xmlns:xlink="http://www.w3.org/1999/xlink" width="512" height="512" viewBox="0 0 52 58" version="1.1"><!-- Generator: Sketch 51.3 (57544) - http://www.bohemiancoding.com/sketch --><title>083 - Templates</title><desc>Created with Sketch.</desc><defs/><g id="Page-1" stroke="none" stroke-width="1" fill="none" fill-rule="evenodd"><g id="083---Templates" fill-rule="nonzero"><path d="M38.74,34 L30.12,41.12 L24.27,45.95 C23.5332745,46.5601918 22.4667255,46.5601918 21.73,45.95 L15.88,41.12 L6,32.96 L0,28 L6,23.04 L27,23.04 L27,33 C27,33.5522847 27.4477153,34 28,34 L38.74,34 Z" id="Shape" fill="#B19046"/><path d="M40,55 L40,2 C39.9967052,0.896798134 39.1032019,0.00329480111 38,0 L8,0 C6.89679813,0.00329480111 6.0032948,0.896798134 6,2 L6,55 L40,55 Z" id="Shape" fill="#F9EAB0"/><path d="M40,32.96 L30.12,41.12 L24.27,45.95 C23.5332745,46.5601918 22.4667255,46.5601918 21.73,45.95 L15.88,41.12 L6,32.96 L0,28 L0,55 C-8.8817842e-16,56.6568542 1.34314575,58 3,58 L43,58 C44.6568542,58 46,56.6568542 46,55 L46,28 L40,32.96 Z" id="Shape" fill="#E4C05C"/><circle id="Oval" fill="#FF5364" cx="13" cy="7" r="3"/><path d="M29,5 L28,5 C27.4477153,5 27,4.55228475 27,4 C27,3.44771525 27.4477153,3 28,3 L29,3 C29.5522847,3 30,3.44771525 30,4 C30,4.55228475 29.5522847,5 29,5 Z" id="Shape" fill="#2C3E50"/><path d="M36,5 L33,5 C32.4477153,5 32,4.55228475 32,4 C32,3.44771525 32.4477153,3 33,3 L36,3 C36.5522847,3 37,3.44771525 37,4 C37,4.55228475 36.5522847,5 36,5 Z" id="Shape" fill="#2C3E50"/><path d="M31,8 L25,8 C24.4477153,8 24,7.55228475 24,7 C24,6.44771525 24.4477153,6 25,6 L31,6 C31.5522847,6 32,6.44771525 32,7 C32,7.55228475 31.5522847,8 31,8 Z" id="Shape" fill="#2C3E50"/><path d="M36,8 L35,8 C34.4477153,8 34,7.55228475 34,7 C34,6.44771525 34.4477153,6 35,6 L36,6 C36.5522847,6 37,6.44771525 37,7 C37,7.55228475 36.5522847,8 36,8 Z" id="Shape" fill="#2C3E50"/><path d="M36,11 L30,11 C29.4477153,11 29,10.5522847 29,10 C29,9.44771525 29.4477153,9 30,9 L36,9 C36.5522847,9 37,9.44771525 37,10 C37,10.5522847 36.5522847,11 36,11 Z" id="Shape" fill="#2C3E50"/><rect id="Rectangle-path" fill="#2C3E50" x="27" y="18" width="25" height="16" rx="1"/><circle id="Oval" fill="#FF5364" cx="33" cy="24" r="2"/><path d="M41,23 L40,23 C39.4477153,23 39,22.5522847 39,22 C39,21.4477153 39.4477153,21 40,21 L41,21 C41.5522847,21 42,21.4477153 42,22 C42,22.5522847 41.5522847,23 41,23 Z" id="Shape" fill="#E6E7E8"/><path d="M48,23 L44,23 C43.4477153,23 43,22.5522847 43,22 C43,21.4477153 43.4477153,21 44,21 L48,21 C48.5522847,21 49,21.4477153 49,22 C49,22.5522847 48.5522847,23 48,23 Z" id="Shape" fill="#E6E7E8"/><path d="M45,26.987 L38,26.987 C37.4477153,26.987 37,26.5392847 37,25.987 C37,25.4347153 37.4477153,24.987 38,24.987 L45,24.987 C45.5522847,24.987 46,25.4347153 46,25.987 C46,26.5392847 45.5522847,26.987 45,26.987 Z" id="Shape" fill="#E6E7E8"/><path d="M48,26.988 C47.7340684,26.9902044 47.4783433,26.8857533 47.29,26.698 C47.2017295,26.6003787 47.1307158,26.4884475 47.08,26.367 C47.0240654,26.2486599 46.9966651,26.1188508 47,25.988 C46.9976374,25.5817349 47.2413038,25.21442 47.6165185,25.058629 C47.9917332,24.9028381 48.4239095,24.9895401 48.71,25.278 C48.8027233,25.3717728 48.8743239,25.4842881 48.92,25.608 C49.0266824,25.8497538 49.0266824,26.1252462 48.92,26.367 C48.8296817,26.6186147 48.6316147,26.8166817 48.38,26.907 C48.2614161,26.9633615 48.1312597,26.9911053 48,26.988 Z" id="Shape" fill="#E6E7E8"/><path d="M45.15,57.09 C44.5862628,57.6721546 43.8103723,58.0005547 43,58 L3,58 C2.18962771,58.0005547 1.41373719,57.6721546 0.85,57.09 L15.88,41.12 L21.73,45.95 C22.4667255,46.5601918 23.5332745,46.5601918 24.27,45.95 L30.12,41.12 L45.15,57.09 Z" id="Shape" fill="#B19046"/></g></g></svg>
