<?xml version="1.0" encoding="UTF-8"?>
<svg xmlns="http://www.w3.org/2000/svg" xmlns:xlink="http://www.w3.org/1999/xlink" width="512" height="512" viewBox="0 0 58 58" version="1.1"><!-- Generator: Sketch 51.3 (57544) - http://www.bohemiancoding.com/sketch --><title>089 - Folders</title><desc>Created with Sketch.</desc><defs/><g id="Page-1" stroke="none" stroke-width="1" fill="none" fill-rule="evenodd"><g id="089---Folders" transform="translate(0.000000, -1.000000)" fill-rule="nonzero"><path d="M14,3.08 L14,59 L-3.32188866e-05,59 L-3.61174849e-16,11.345 C-0.00215099564,11.0797515 0.100235328,10.8243245 0.285,10.634 C3.469,7.4 8.245,4.769 14,3.08 Z" id="Shape" fill="#3B97D3"/><path d="M20.9999612,59 L37.0000388,59 L37,2.448 C37.0044129,1.94340928 36.6321971,1.51458923 36.132,1.448 C31.3964308,0.845332667 26.6035692,0.845332667 21.868,1.448 C21.3678029,1.51458923 20.9955871,1.94340928 21,2.448 L20.9999612,59 Z" id="Shape" fill="#24AE5F"/><path d="M20.9999612,59 L37.0000388,59 L37,2.448 C37.0044129,1.94340928 36.6321971,1.51458923 36.132,1.448 C31.3964308,0.845332667 26.6035692,0.845332667 21.868,1.448 C21.3678029,1.51458923 20.9955871,1.94340928 21,2.448 L20.9999612,59 Z" id="Shape" fill="#24AE5F"/><polygon id="Shape" fill="#2980BA" points="21 9 21 59 14 59 14 3.08"/><rect id="Rectangle-path" fill="#D1D4D1" x="25" y="7" width="8" height="26" rx="1"/><path d="M9,38 L5,38 C4.44771525,38 4,37.5522847 4,37 L4,16.535 C3.99994998,16.2007215 4.16693028,15.8885246 4.445,15.703 L8.445,13.036 C8.75200794,12.8311678 9.1468785,12.8120862 9.47220634,12.9863615 C9.79753419,13.1606368 10.0004245,13.4999337 10,13.869 L10,37 C10,37.5522847 9.55228475,38 9,38 Z" id="Shape" fill="#D1D4D1"/><path d="M9,39 L5,39 C3.8954305,39 3,38.1045695 3,37 L3,16.535 C3.00012287,15.8662533 3.33447989,15.24182 3.891,14.871 L7.891,12.204 C8.50468427,11.7950904 9.29359516,11.7570604 9.94376601,12.1050451 C10.5939369,12.4530297 10.9998645,13.1305616 11,13.868 L11,37 C11,38.1045695 10.1045695,39 9,39 Z M9,13.868 L5,16.535 L5,37 L9,37 L9,13.868 Z" id="Shape" fill="#285680"/><circle id="Oval" fill="#2C3E50" cx="29" cy="48" r="4"/><path d="M29,53 C26.2385763,53 24,50.7614237 24,48 C24,45.2385763 26.2385763,43 29,43 C31.7614237,43 34,45.2385763 34,48 C33.9966939,50.7600532 31.7600532,52.9966939 29,53 Z M29,45 C27.3431458,45 26,46.3431458 26,48 C26,49.6568542 27.3431458,51 29,51 C30.6568542,51 32,49.6568542 32,48 C32,46.3431458 30.6568542,45 29,45 Z" id="Shape" fill="#4C8056"/><ellipse id="Oval" fill="#2C3E50" cx="7" cy="48" rx="3" ry="4"/><path d="M7,53 C4.794,53 3,50.757 3,48 C3,45.243 4.794,43 7,43 C9.206,43 11,45.243 11,48 C11,50.757 9.206,53 7,53 Z M7,45 C5.916,45 5,46.374 5,48 C5,49.626 5.916,51 7,51 C8.084,51 9,49.626 9,48 C9,46.374 8.084,45 7,45 Z" id="Shape" fill="#285680"/><path d="M44,3.08 L44,59 L58.0000332,59 L58,11.345 C58.002151,11.0797515 57.8997647,10.8243245 57.715,10.634 C54.531,7.4 49.755,4.769 44,3.08 Z" id="Shape" fill="#3B97D3"/><polygon id="Shape" fill="#2980BA" points="37 9 37 59 44 59 44 3.08"/><path d="M49,38 L53,38 C53.5522847,38 54,37.5522847 54,37 L54,16.535 C54.00005,16.2007215 53.8330697,15.8885246 53.555,15.703 L49.555,13.036 C49.2479921,12.8311678 48.8531215,12.8120862 48.5277937,12.9863615 C48.2024658,13.1606368 47.9995755,13.4999337 48,13.869 L48,37 C48,37.5522847 48.4477153,38 49,38 Z" id="Shape" fill="#D1D4D1"/><path d="M47,37 L47,13.868 C46.9986585,13.129844 47.4040125,12.4509613 48.0544686,12.1019871 C48.7049247,11.7530129 49.4947184,11.7906906 50.109,12.2 L54.109,14.867 C54.6667009,15.2386052 55.0012165,15.8648364 55,16.535 L55,37 C55,38.1045695 54.1045695,39 53,39 L49,39 C47.8954305,39 47,38.1045695 47,37 Z M49,37 L53,37 L53,16.535 L49,13.868 L49,37 Z" id="Shape" fill="#285680"/><ellipse id="Oval" fill="#2C3E50" cx="51" cy="48" rx="3" ry="4"/><path d="M47,48 C47,45.243 48.794,43 51,43 C53.206,43 55,45.243 55,48 C55,50.757 53.206,53 51,53 C48.794,53 47,50.757 47,48 Z M49,48 C49,49.626 49.916,51 51,51 C52.084,51 53,49.626 53,48 C53,46.374 52.084,45 51,45 C49.916,45 49,46.374 49,48 Z" id="Shape" fill="#285680"/><path d="M33,14 L25,14 C24.4477153,14 24,13.5522847 24,13 C24,12.4477153 24.4477153,12 25,12 L33,12 C33.5522847,12 34,12.4477153 34,13 C34,13.5522847 33.5522847,14 33,14 Z" id="Shape" fill="#2C3E50"/><path d="M33,18 L25,18 C24.4477153,18 24,17.5522847 24,17 C24,16.4477153 24.4477153,16 25,16 L33,16 C33.5522847,16 34,16.4477153 34,17 C34,17.5522847 33.5522847,18 33,18 Z" id="Shape" fill="#2C3E50"/><path d="M33,22 L25,22 C24.4477153,22 24,21.5522847 24,21 C24,20.4477153 24.4477153,20 25,20 L33,20 C33.5522847,20 34,20.4477153 34,21 C34,21.5522847 33.5522847,22 33,22 Z" id="Shape" fill="#2C3E50"/><path d="M33,26 L25,26 C24.4477153,26 24,25.5522847 24,25 C24,24.4477153 24.4477153,24 25,24 L33,24 C33.5522847,24 34,24.4477153 34,25 C34,25.5522847 33.5522847,26 33,26 Z" id="Shape" fill="#2C3E50"/><path d="M33,30 L25,30 C24.4477153,30 24,29.5522847 24,29 C24,28.4477153 24.4477153,28 25,28 L33,28 C33.5522847,28 34,28.4477153 34,29 C34,29.5522847 33.5522847,30 33,30 Z" id="Shape" fill="#2C3E50"/><path d="M32,34 L26,34 C24.8954305,34 24,33.1045695 24,32 L24,8 C24,6.8954305 24.8954305,6 26,6 L32,6 C33.1045695,6 34,6.8954305 34,8 L34,32 C34,33.1045695 33.1045695,34 32,34 Z M26,8 L26,32 L32,32 L32,8 L26,8 Z" id="Shape" fill="#4C8056"/><polygon id="Shape" fill="#285680" points="21 9 21 59 19 59 19 7.31"/><polygon id="Shape" fill="#285680" points="39 7.31 39 59 37 59 37 9"/></g></g></svg>
