<?xml version="1.0" encoding="UTF-8"?>
<svg xmlns="http://www.w3.org/2000/svg" xmlns:xlink="http://www.w3.org/1999/xlink" width="512" height="512" viewBox="0 0 58 58" version="1.1"><!-- Generator: Sketch 51.3 (57544) - http://www.bohemiancoding.com/sketch --><title>013 - Letter</title><desc>Created with Sketch.</desc><defs/><g id="Page-1" stroke="none" stroke-width="1" fill="none" fill-rule="evenodd"><g id="013---Letter" fill-rule="nonzero"><path d="M3,58 L54,58 C56.209139,58 58,56.209139 58,54 L58,4 C58,1.790861 56.209139,2.22044605e-16 54,0 L7,0 C4.790861,-1.11022302e-16 3,1.790861 3,4 L3,25.41" id="Shape" fill="#90BAE1"/><path d="M5,58 L52.291,58 C54.4185974,57.9170656 56.0776985,56.1277951 56,54 L56,4 C56.0776985,1.87220495 54.4185974,0.082934423 52.291,0 L8.709,0 C6.58140259,0.082934423 4.9223015,1.87220495 5,4 L5,25.41" id="Shape" fill="#B0D3F0"/><path d="M2,27 L25.681,12.023 C27.6832715,10.7435009 30.2700391,10.8440044 32.167,12.275 L52,27 L2,27 Z" id="Shape" fill="#F5EFCA"/><path d="M38,6 L37,6 C36.4477153,6 36,5.55228475 36,5 C36,4.44771525 36.4477153,4 37,4 L38,4 C38.5522847,4 39,4.44771525 39,5 C39,5.55228475 38.5522847,6 38,6 Z" id="Shape" fill="#2C3E50"/><path d="M48,6 L42,6 C41.4477153,6 41,5.55228475 41,5 C41,4.44771525 41.4477153,4 42,4 L48,4 C48.5522847,4 49,4.44771525 49,5 C49,5.55228475 48.5522847,6 48,6 Z" id="Shape" fill="#2C3E50"/><path d="M53,6 L52,6 C51.4477153,6 51,5.55228475 51,5 C51,4.44771525 51.4477153,4 52,4 L53,4 C53.5522847,4 54,4.44771525 54,5 C54,5.55228475 53.5522847,6 53,6 Z" id="Shape" fill="#2C3E50"/><path d="M48,14 L42,14 C41.4477153,14 41,13.5522847 41,13 C41,12.4477153 41.4477153,12 42,12 L48,12 C48.5522847,12 49,12.4477153 49,13 C49,13.5522847 48.5522847,14 48,14 Z" id="Shape" fill="#2C3E50"/><path d="M53,14 L52,14 C51.4477153,14 51,13.5522847 51,13 C51,12.4477153 51.4477153,12 52,12 L53,12 C53.5522847,12 54,12.4477153 54,13 C54,13.5522847 53.5522847,14 53,14 Z" id="Shape" fill="#2C3E50"/><path d="M45,10 L37,10 C36.4477153,10 36,9.55228475 36,9 C36,8.44771525 36.4477153,8 37,8 L45,8 C45.5522847,8 46,8.44771525 46,9 C46,9.55228475 45.5522847,10 45,10 Z" id="Shape" fill="#2C3E50"/><path d="M53,10 L49,10 C48.4477153,10 48,9.55228475 48,9 C48,8.44771525 48.4477153,8 49,8 L53,8 C53.5522847,8 54,8.44771525 54,9 C54,9.55228475 53.5522847,10 53,10 Z" id="Shape" fill="#2C3E50"/><rect id="Rectangle-path" fill="#FAC176" x="0" y="26" width="54" height="32" rx="2"/><rect id="Rectangle-path" fill="#F9EAB0" x="2" y="26" width="50" height="32" rx="2"/><rect id="Rectangle-path" fill="#B0D3F0" x="5" y="40" width="24" height="11" rx="1"/><path d="M28,52 L6,52 C4.8954305,52 4,51.1045695 4,50 L4,41 C4,39.8954305 4.8954305,39 6,39 L28,39 C29.1045695,39 30,39.8954305 30,41 L30,50 C30,51.1045695 29.1045695,52 28,52 Z M6,41 L6,50 L28,50 L28,41 L6,41 Z" id="Shape" fill="#FAC176"/><path d="M35,32 L34,32 C33.4477153,32 33,31.5522847 33,31 C33,30.4477153 33.4477153,30 34,30 L35,30 C35.5522847,30 36,30.4477153 36,31 C36,31.5522847 35.5522847,32 35,32 Z" id="Shape" fill="#59474E"/><path d="M45,32 L39,32 C38.4477153,32 38,31.5522847 38,31 C38,30.4477153 38.4477153,30 39,30 L45,30 C45.5522847,30 46,30.4477153 46,31 C46,31.5522847 45.5522847,32 45,32 Z" id="Shape" fill="#59474E"/><path d="M50,32 L49,32 C48.4477153,32 48,31.5522847 48,31 C48,30.4477153 48.4477153,30 49,30 L50,30 C50.5522847,30 51,30.4477153 51,31 C51,31.5522847 50.5522847,32 50,32 Z" id="Shape" fill="#59474E"/><path d="M35,40 L34,40 C33.4477153,40 33,39.5522847 33,39 C33,38.4477153 33.4477153,38 34,38 L35,38 C35.5522847,38 36,38.4477153 36,39 C36,39.5522847 35.5522847,40 35,40 Z" id="Shape" fill="#59474E"/><path d="M45,40 L39,40 C38.4477153,40 38,39.5522847 38,39 C38,38.4477153 38.4477153,38 39,38 L45,38 C45.5522847,38 46,38.4477153 46,39 C46,39.5522847 45.5522847,40 45,40 Z" id="Shape" fill="#59474E"/><path d="M50,40 L49,40 C48.4477153,40 48,39.5522847 48,39 C48,38.4477153 48.4477153,38 49,38 L50,38 C50.5522847,38 51,38.4477153 51,39 C51,39.5522847 50.5522847,40 50,40 Z" id="Shape" fill="#59474E"/><path d="M42,36 L34,36 C33.4477153,36 33,35.5522847 33,35 C33,34.4477153 33.4477153,34 34,34 L42,34 C42.5522847,34 43,34.4477153 43,35 C43,35.5522847 42.5522847,36 42,36 Z" id="Shape" fill="#59474E"/><path d="M50,36 L46,36 C45.4477153,36 45,35.5522847 45,35 C45,34.4477153 45.4477153,34 46,34 L50,34 C50.5522847,34 51,34.4477153 51,35 C51,35.5522847 50.5522847,36 50,36 Z" id="Shape" fill="#59474E"/></g></g></svg>
