<?xml version="1.0" encoding="UTF-8"?>
<svg xmlns="http://www.w3.org/2000/svg" xmlns:xlink="http://www.w3.org/1999/xlink" width="512" height="512" viewBox="0 0 60 50" version="1.1"><!-- Generator: Sketch 51.3 (57544) - http://www.bohemiancoding.com/sketch --><title>047 - Matches</title><desc>Created with Sketch.</desc><defs/><g id="Page-1" stroke="none" stroke-width="1" fill="none" fill-rule="evenodd"><g id="047---Matches" fill-rule="nonzero"><rect id="Rectangle-path" fill="#7F8C8D" x="1" y="1" width="58" height="48" rx="4"/><path d="M55,50 L5,50 C2.23994685,49.9966939 0.00330611633,47.7600532 0,45 L0,5 C0.00330611633,2.23994685 2.23994685,0.00330611633 5,0 L55,0 C57.7600532,0.00330611633 59.9966939,2.23994685 60,5 L60,45 C59.9966939,47.7600532 57.7600532,49.9966939 55,50 Z M5,2 C3.34314575,2 2,3.34314575 2,5 L2,45 C2,46.6568542 3.34314575,48 5,48 L55,48 C56.6568542,48 58,46.6568542 58,45 L58,5 C58,3.34314575 56.6568542,2 55,2 L5,2 Z" id="Shape" fill="#547580"/><rect id="Rectangle-path" fill="#2C3E50" transform="translate(30.000000, 25.000000) rotate(90.000000) translate(-30.000000, -25.000000) " x="10" y="3.55271368e-15" width="40" height="50" rx="1"/><rect id="Rectangle-path" fill="#FF5364" x="10" y="9" width="5" height="32" rx="2"/><rect id="Rectangle-path" fill="#C03A2B" x="10" y="9" width="5" height="7" rx="2"/><rect id="Rectangle-path" fill="#955BA5" x="15" y="9" width="5" height="32" rx="2"/><rect id="Rectangle-path" fill="#894B9D" x="15" y="9" width="5" height="7" rx="2"/><rect id="Rectangle-path" fill="#46B29D" x="20" y="9" width="5" height="32" rx="2"/><rect id="Rectangle-path" fill="#14A085" x="20" y="9" width="5" height="7" rx="2"/><rect id="Rectangle-path" fill="#F29C1F" x="25" y="9" width="5" height="32" rx="2"/><rect id="Rectangle-path" fill="#E57E25" x="25" y="9" width="5" height="7" rx="2"/><rect id="Rectangle-path" fill="#3B97D3" x="30" y="9" width="5" height="32" rx="2"/><rect id="Rectangle-path" fill="#2980BA" x="30" y="9" width="5" height="7" rx="2"/><rect id="Rectangle-path" fill="#E64C3C" x="35" y="9" width="5" height="32" rx="2"/><rect id="Rectangle-path" fill="#C03A2B" x="35" y="9" width="5" height="7" rx="2"/><rect id="Rectangle-path" fill="#955BA5" x="40" y="9" width="5" height="32" rx="2"/><rect id="Rectangle-path" fill="#894B9D" x="40" y="9" width="5" height="7" rx="2"/><rect id="Rectangle-path" fill="#3B97D3" x="45" y="9" width="5" height="32" rx="2"/><rect id="Rectangle-path" fill="#2980BA" x="45" y="9" width="5" height="7" rx="2"/></g></g></svg>
