<?xml version="1.0" encoding="UTF-8"?>
<svg xmlns="http://www.w3.org/2000/svg" xmlns:xlink="http://www.w3.org/1999/xlink" width="512" height="512" viewBox="0 0 58 58" version="1.1"><!-- Generator: Sketch 51.3 (57544) - http://www.bohemiancoding.com/sketch --><title>037 - Paint</title><desc>Created with Sketch.</desc><defs/><g id="Page-1" stroke="none" stroke-width="1" fill="none" fill-rule="evenodd"><g id="037---Paint"><path d="M42.9,8.22 C34.7025062,2.20570087 23.8183359,1.31563792 14.7526366,5.91822369 C5.6869374,10.5208095 -0.0176896298,19.8328772 -2.87562942e-15,30 C-0.011493401,35.3676922 1.59121953,40.614835 4.6,45.06 L14.29,53.82 C14.71,54.05 15.14,54.27 15.57,54.47 C16.6174616,54.9646643 17.7616098,55.2208169 18.92,55.22 C23.3903078,55.1919604 26.9995381,51.5603957 27,47.09 C26.9930503,45.2439606 27.6255497,43.4524682 28.79,42.02 L28.82,41.99 C29.0743663,41.6639081 29.3589634,41.3625699 29.67,41.09 L29.7,41.06 C31.1783056,39.7274814 33.0997875,38.9931117 35.09,39 L45.88,39 C50.1624554,39.0194223 53.7118217,35.6853022 53.96,31.41 C54.0182487,30.3272395 54.0115701,29.2419616 53.94,28.16 C53.8019546,26.079 53.4193195,24.0214971 52.8,22.03 L42.9,8.22 Z" id="Shape" fill="#CBB292" fill-rule="nonzero"/><path d="M53.96,31.41 C53.7118217,35.6853022 50.1624554,39.0194223 45.88,39 L35.09,39 C33.0997875,38.9931117 31.1783056,39.7274814 29.7,41.06 L29.67,41.09 C29.3589634,41.3625699 29.0743663,41.6639081 28.82,41.99 L28.79,42.02 C27.6255497,43.4524682 26.9930503,45.2439606 27,47.09 C26.9995381,51.5603957 23.3903078,55.1919604 18.92,55.22 C17.7616098,55.2208169 16.6174616,54.9646643 15.57,54.47 C15.14,54.27 14.71,54.05 14.29,53.82 L4.6,45.06 C3.84650846,43.9451372 3.17795528,42.7751692 2.6,41.56 C2.91,42.11 3.24,42.65 3.6,43.17 L13.29,51.93 C13.71,52.16 14.14,52.38 14.57,52.58 C15.6174616,53.0746643 16.7616098,53.3308169 17.92,53.33 C22.3903078,53.3019604 25.9995381,49.6703957 26,45.2 C25.9930503,43.3539606 26.6255497,41.5624682 27.79,40.13 L27.82,40.1 C28.0743663,39.7739081 28.3589634,39.4725699 28.67,39.2 L28.7,39.17 C30.1783056,37.8374814 32.0997875,37.1031117 34.09,37.11 L44.88,37.11 C49.1624554,37.1294223 52.7118217,33.7953022 52.96,29.52 C53.0182487,28.4372395 53.0115701,27.3519616 52.94,26.27 C52.8232911,24.4810715 52.5250926,22.7086333 52.05,20.98 L52.8,22.03 C53.4193195,24.0214971 53.8019546,26.079 53.94,28.16 C54.0115701,29.2419616 54.0182487,30.3272395 53.96,31.41 Z" id="Shape" fill="#7F6E5D" fill-rule="nonzero"/><path d="M14.9,33.98 C14.9683847,33.6578653 15.0019109,33.3293077 15,33 C15,30.2385763 12.7614237,28 10,28 C7.23857625,28 5,30.2385763 5,33 C5,35.7614237 7.23857625,38 10,38 C10.234631,38.0003196 10.4688458,37.980244 10.7,37.94" id="Shape" fill="#955BA5" fill-rule="nonzero"/><circle id="Oval" fill="#2FA8CC" fill-rule="nonzero" cx="13" cy="19" r="5"/><circle id="Oval" fill="#FF5364" fill-rule="nonzero" cx="26" cy="12" r="5"/><path d="M55.915,0.46 C55.1171167,1.62085409 54.157413,2.66171166 53.065,3.551 C52.516313,4.00820385 51.9310135,4.41958582 51.315,4.781 C50.118096,5.4798819 48.8553499,6.0593383 47.545,6.511 C46.885,6.751 46.225,6.97 45.575,7.2 C43.5125651,7.76857676 41.5892971,8.75574089 39.925,10.1 C38.2803848,11.5721679 37.287644,13.6371407 37.165,15.841 C37.1236975,16.489361 37.1572522,17.140322 37.265,17.781 C37.295,17.991 37.335,18.2 37.385,18.41 L39,20.21 L36.452,17.388 C35.7098756,16.5671079 34.4436476,16.500935 33.62,17.24 L33.311,17.517 C32.9166805,17.8719472 32.6795493,18.3690254 32.6517926,18.8988413 C32.6240358,19.4286573 32.8079282,19.9477927 33.163,20.342 L34.117,21.399 C33.3761597,20.4246698 31.9943047,20.217192 31,20.931 L30.691,21.209 C30.0403452,21.8808076 29.9206811,22.9053282 30.399,23.709 C30.292,23.752 30.177,23.809 30.068,23.854 C25.563,25.746 19.896,29.482 14.312,34.494 C13.672,35.0693333 13.0483333,35.6476667 12.441,36.229 C12.289,36.375 12.147,36.521 11.997,36.666 C11.558,37.093 11.119,37.52 10.697,37.947 C10.388,38.262 10.097,38.575 9.797,38.889 C9.552,39.147 9.297,39.406 9.061,39.663 C8.72,40.033 8.398,40.4 8.073,40.768 C7.898,40.968 7.713,41.168 7.542,41.368 C7.208,41.756 6.894,42.138 6.579,42.522 C6.435,42.697 6.279,42.875 6.142,43.049 C5.835,43.431 5.55,43.807 5.263,44.183 C5.132,44.355 4.993,44.529 4.863,44.7 C4.591,45.066 4.341,45.424 4.09,45.783 C3.968,45.958 3.838,46.135 3.721,46.308 C3.489,46.651 3.277,46.984 3.065,47.319 C2.95,47.5 2.829,47.684 2.72,47.862 C2.528,48.176 2.358,48.48 2.186,48.785 C2.079,48.974 1.966,49.166 1.866,49.352 C1.715,49.635 1.584,49.907 1.451,50.181 C1.351,50.381 1.251,50.574 1.17,50.764 C1.057,51.016 0.962,51.257 0.865,51.5 C0.787,51.7 0.705,51.9 0.638,52.085 C0.56,52.308 0.499,52.519 0.438,52.732 C0.381,52.925 0.323,53.119 0.279,53.303 C0.235,53.487 0.204,53.684 0.179,53.87 C0.154,54.056 0.119,54.233 0.103,54.404 C0.087,54.575 0.089,54.739 0.089,54.904 C0.0864926877,55.0628533 0.092166867,55.2217303 0.106,55.38 C0.124081526,55.5260478 0.150457478,55.6709486 0.185,55.814 C0.2138237,55.9495709 0.251232396,56.0831734 0.297,56.214 C0.348148248,56.3433998 0.408987623,56.4687556 0.479,56.589 C0.517,56.656 0.537,56.735 0.579,56.798 L0.6,56.779 C0.652564641,56.873251 0.71101369,56.9640975 0.775,57.051 C3.634,60.218 14.341,55.263 24.675,45.979 C30.375,40.861 34.775,35.498 37.091,31.179 C37.8495955,31.800137 38.9359069,31.8175312 39.714,31.221 L40.023,30.943 C40.8433493,30.0293389 40.7787928,28.6264591 39.878,27.792 L36.962,24.561 L40.84,28.861 C41.1979813,29.2567202 41.6986881,29.4937643 42.2316656,29.519841 C42.7646432,29.5459177 43.2860986,29.3588844 43.681,29 L43.991,28.722 C44.3853195,28.3670528 44.6224507,27.8699746 44.6502074,27.3401587 C44.6779642,26.8103427 44.4940718,26.2912073 44.139,25.897 L40.865,22.27 L41.085,22.5 L43.175,24.82 C46.1123097,25.8767547 49.3923121,25.2433881 51.725,23.169 C56.015,19.32 57.595,10.209 57.925,1.15 C57.9403111,0.662391396 57.6360161,0.221742989 57.1745978,0.0633456557 C56.7131794,-0.095051678 56.2024009,0.0657953345 55.915,0.46 Z" id="Shape" fill="#59474E" fill-rule="nonzero"/><path d="M44.139,25.9 L36.456,17.39 C35.7141309,16.5685713 34.4474496,16.5023747 33.624,17.242 L33.315,17.519 C32.9206805,17.8739472 32.6835493,18.3710254 32.6557926,18.9008413 C32.6280358,19.4306573 32.8119282,19.9497927 33.167,20.344 L40.85,28.854 C41.592343,29.6741813 42.8582231,29.7394651 43.681,29 L43.991,28.722 C44.8101719,27.9831324 44.8763907,26.7205016 44.139,25.9 Z" id="Shape" fill="#7F8C8D" fill-rule="nonzero"/><path d="M57.925,1.151 C57.595,10.21 56.015,19.321 51.725,23.17 C49.3923121,25.2443881 46.1123097,25.8777547 43.175,24.821 L41.085,22.501 L40.835,22.241 L40.585,21.97 L40.395,21.761 L40.265,21.61 L39.625,20.901 L37.385,18.41 C37.335,18.2 37.295,17.991 37.265,17.781 C37.1572522,17.140322 37.1236975,16.489361 37.165,15.841 C37.287644,13.6371407 38.2803848,11.5721679 39.925,10.1 C41.5892971,8.75574089 43.5125651,7.76857676 45.575,7.2 C46.225,6.97 46.885,6.751 47.545,6.511 C48.8553499,6.0593383 50.118096,5.4798819 51.315,4.781 C51.9310135,4.41958582 52.516313,4.00820385 53.065,3.551 C54.157413,2.66171166 55.1171167,1.62085409 55.915,0.46 C56.2025008,0.0656160984 56.7135586,-0.095208166 57.1750991,0.0634607094 C57.6366395,0.222129585 57.9407765,0.663202413 57.925,1.151 Z" id="Shape" fill="#464F5D"/><path d="M53.065,3.551 C53.187147,3.7095454 53.2601553,3.90041 53.275,4.1 C53.315,4.741 53.345,5.371 53.345,5.96 C53.345,18.881 43.735,21.92 41.085,22.501 L40.835,22.241 L40.585,21.97 L40.395,21.761 L40.265,21.61 L39.625,20.901 C39.7781735,20.7629546 39.9702763,20.6756351 40.175,20.651 C40.655,20.591 51.955,18.97 51.315,4.781 C51.9310135,4.41958582 52.516313,4.00820385 53.065,3.551 Z" id="Shape" fill="#5E5F62" fill-rule="nonzero"/><path d="M47.545,6.511 C47.5771386,6.61466782 47.5939826,6.72246949 47.595,6.831 L47.595,6.881 C47.425,10.561 46.265,13.391 44.155,15.311 C42.275286,16.9484322 39.8576596,17.8350139 37.365,17.801 C37.3308778,17.7991808 37.2971971,17.7924447 37.265,17.781 C37.1572522,17.140322 37.1236975,16.489361 37.165,15.841 C37.2623555,15.812354 37.36354,15.7988627 37.465,15.801 C37.785,15.821 44.945,16.031 45.575,7.201 C46.225,6.97 46.885,6.751 47.545,6.511 Z" id="Shape" fill="#5E5F62" fill-rule="nonzero"/><path d="M30.505,23.66 L33.435,26.91 L0.585,56.791 C-1.775,53.381 4.245,43.541 14.315,34.491 C20.075,29.321 25.935,25.491 30.505,23.66 Z" id="Shape" fill="#7F5B53" fill-rule="nonzero"/><path d="M39.888,27.788 L34.13,21.407 C33.3897789,20.4234479 31.9991449,20.2119649 31,20.931 L30.691,21.209 C29.8709101,22.1229278 29.9359125,23.525822 30.837,24.36 L36.6,30.741 C37.3400113,31.7226912 38.728404,31.9340359 39.727,31.217 L40.036,30.94 C40.8556868,30.0252053 40.7897986,28.6219635 39.888,27.788 Z" id="Shape" fill="#95A5A5" fill-rule="nonzero"/></g></g></svg>
