<?xml version="1.0" encoding="UTF-8"?>
<svg xmlns="http://www.w3.org/2000/svg" xmlns:xlink="http://www.w3.org/1999/xlink" width="512" height="512" viewBox="0 0 58 58" version="1.1"><!-- Generator: Sketch 51.3 (57544) - http://www.bohemiancoding.com/sketch --><title>033 - Pen</title><desc>Created with Sketch.</desc><defs/><g id="Page-1" stroke="none" stroke-width="1" fill="none" fill-rule="evenodd"><g id="033---Pen" transform="translate(-1.000000, -1.000000)" fill-rule="nonzero"><path d="M36.2,44.318 C35.7956041,44.3179137 35.4310659,44.0742725 35.276322,43.7006546 C35.1215781,43.3270366 35.2070921,42.8969943 35.493,42.611 L36.918,41.187 C37.3147422,40.8414315 37.9114009,40.8623968 38.2829095,41.23496 C38.6544181,41.6075233 38.6736919,42.204239 38.327,42.6 L36.9,44.025 C36.7142258,44.210844 36.4627669,44.3160976 36.2,44.318 Z" id="Shape" fill="#3D324C"/><path d="M39.044,47.167 C38.6391643,47.167319 38.2740763,46.92352 38.1192414,46.5494636 C37.9644066,46.1754072 38.0503761,45.7449 38.337,45.459 L39.762,44.035 C40.1543789,43.6560278 40.7780848,43.6614476 41.1638186,44.0471814 C41.5495524,44.4329152 41.5549722,45.0566211 41.176,45.449 L39.751,46.874 C39.5635073,47.0615494 39.3091948,47.1669434 39.044,47.167 Z" id="Shape" fill="#3D324C"/><path d="M41.894,50.016 C41.4896041,50.0159137 41.1250659,49.7722725 40.970322,49.3986546 C40.8155781,49.0250366 40.9010921,48.5949943 41.187,48.309 L42.611,46.884 C42.863944,46.6314132 43.2324274,46.5329575 43.577646,46.62572 C43.9228646,46.7184826 44.1923714,46.9883707 44.284646,47.33372 C44.3769205,47.6790694 44.277944,48.0474132 44.025,48.3 L42.6,49.723 C42.4127524,49.9103046 42.1588482,50.0156784 41.894,50.016 Z" id="Shape" fill="#3D324C"/><path d="M44.742,52.865 C44.3376041,52.8649137 43.9730659,52.6212725 43.818322,52.2476546 C43.6635781,51.8740366 43.7490921,51.4439943 44.035,51.158 L45.459,49.733 C45.8494653,49.3422586 46.4827585,49.3420347 46.8735,49.7325 C47.2642414,50.1229653 47.2644653,50.7562585 46.874,51.147 L45.449,52.572 C45.2615073,52.7595494 45.0071948,52.8649434 44.742,52.865 Z" id="Shape" fill="#3D324C"/><path d="M32.634,23.663 C32.2296041,23.6629137 31.8650659,23.4192725 31.710322,23.0456546 C31.5555781,22.6720366 31.6410921,22.2419943 31.927,21.956 L32.64,21.244 L15.546,4.14 L13.4,6.277 C13.0076211,6.65597221 12.3839152,6.65055237 11.9981814,6.26481858 C11.6124476,5.87908478 11.6070278,5.25537889 11.986,4.863 L14.123,2.726 C14.9074283,1.94408746 16.1765717,1.94408746 16.961,2.726 L34.054,19.819 C34.8360278,20.6037709 34.8360278,21.8732291 34.054,22.658 L33.341,23.371 C33.1533437,23.5581827 32.8990514,23.6632087 32.634,23.663 Z" id="Shape" fill="#2C3E50"/><rect id="Rectangle-path" fill="#894B9D" transform="translate(44.030177, 44.030354) rotate(-45.000000) translate(-44.030177, -44.030354) " x="38.9941767" y="33.9578536" width="10.072" height="20.145" rx="1"/><rect id="Rectangle-path" fill="#894B9D" transform="translate(10.555024, 10.555000) rotate(-45.000000) translate(-10.555024, -10.555000) " x="5.51902415" y="5.519" width="10.072" height="10.072" rx="1"/><path d="M48.3,54 L57.515,58.879 C57.9059485,59.0853903 58.3857568,59.012957 58.6983569,58.7003569 C59.010957,58.3877568 59.0833903,57.9079485 58.877,57.517 L54,48.3" id="Shape" fill="#BDC3C7"/><polygon id="Shape" fill="#95A5A5" points="56.16 58.16 48.3 54 52 50.3"/><rect id="Rectangle-path" fill="#2C3E50" transform="translate(25.512416, 25.512000) rotate(-45.000000) translate(-25.512416, -25.512000) " x="21.4834164" y="9.396" width="8.058" height="32.232"/><polygon id="Shape" fill="#35495E" points="34.06 39.76 37.01 36.8 14.23 14.02 16.97 11.27 39.76 34.06"/><path d="M2.83604238,1.8365 L6.87904238,1.8365 C7.43132713,1.8365 7.87904238,2.28421525 7.87904238,2.8365 L7.87904238,7.8795 L1.83604238,7.8795 L1.83604238,2.8365 C1.83604238,2.28421525 2.28375763,1.8365 2.83604238,1.8365 Z" id="Shape" fill="#894B9D" transform="translate(4.857542, 4.858000) rotate(-45.000000) translate(-4.857542, -4.858000) "/><path d="M54.01,48.3 L54.01,48.31 L51.26,51.05 L37.01,36.8 L39.76,34.06 L39.76,34.05 C40.1530079,33.6600221 40.7869921,33.6600221 41.18,34.05 L54.01,46.88 C54.3999779,47.2730079 54.3999779,47.9069921 54.01,48.3 Z" id="Shape" fill="#955BA5"/><path d="M16.97,11.26 L16.97,11.27 L14.22,14.01 L7.1,6.89 L9.85,4.15 L9.85,4.14 C10.2400375,3.75227641 10.8699625,3.75227641 11.26,4.14 L16.97,9.85 C17.3577236,10.2400375 17.3577236,10.8699625 16.97,11.26 Z" id="Shape" fill="#955BA5"/><path d="M41.894,38.62 C41.4896041,38.6199137 41.1250659,38.3762725 40.970322,38.0026546 C40.8155781,37.6290366 40.9010921,37.1989943 41.187,36.913 L42.611,35.488 C43.0052523,35.1246133 43.6159419,35.1368315 43.9953438,35.5156968 C44.3747457,35.8945621 44.3878283,36.5052338 44.025,36.9 L42.6,38.327 C42.4127524,38.5143046 42.1588482,38.6196784 41.894,38.62 Z" id="Shape" fill="#894B9D"/><path d="M44.742,41.469 C44.3376041,41.4689137 43.9730659,41.2252725 43.818322,40.8516546 C43.6635781,40.4780366 43.7490921,40.0479943 44.035,39.762 L45.459,38.337 C45.8494653,37.9462586 46.4827585,37.9460347 46.8735,38.3365 C47.2642414,38.7269653 47.2644653,39.3602585 46.874,39.751 L45.449,41.176 C45.2615073,41.3635494 45.0071948,41.4689434 44.742,41.469 Z" id="Shape" fill="#894B9D"/><path d="M47.591,44.318 C47.1866041,44.3179137 46.8220659,44.0742725 46.667322,43.7006546 C46.5125781,43.3270366 46.5980921,42.8969943 46.884,42.611 L48.309,41.187 C48.7025832,40.8173982 49.3184904,40.8269636 49.7004063,41.2086094 C50.0823222,41.5902552 50.0923233,42.2061554 49.723,42.6 L48.3,44.025 C48.1120175,44.2130401 47.8568877,44.3184746 47.591,44.318 Z" id="Shape" fill="#894B9D"/><path d="M50.44,47.167 C50.0351643,47.167319 49.6700763,46.92352 49.5152414,46.5494636 C49.3604066,46.1754072 49.4463761,45.7449 49.733,45.459 L51.158,44.035 C51.5503789,43.6560278 52.1740848,43.6614476 52.5598186,44.0471814 C52.9455524,44.4329152 52.9509722,45.0566211 52.572,45.449 L51.147,46.874 C50.9595073,47.0615494 50.7051948,47.1669434 50.44,47.167 Z" id="Shape" fill="#894B9D"/></g></g></svg>
