<?xml version="1.0" encoding="UTF-8"?>
<svg xmlns="http://www.w3.org/2000/svg" xmlns:xlink="http://www.w3.org/1999/xlink" width="512" height="512" viewBox="0 0 58 58" version="1.1"><!-- Generator: Sketch 51.3 (57544) - http://www.bohemiancoding.com/sketch --><title>074 - Pen</title><desc>Created with Sketch.</desc><defs/><g id="Page-1" stroke="none" stroke-width="1" fill="none" fill-rule="evenodd"><g id="074---Pen" fill-rule="nonzero"><path d="M57.416,54.553 L54.6,57.409 C54.2279978,57.7869945 53.7198447,57.9998607 53.1895,57.9998607 C52.6591553,57.9998607 52.1510022,57.7869945 51.779,57.409 L22.859,28.138 L28.5,22.426 L57.416,51.7 C58.1931725,52.4922205 58.1931725,53.7607795 57.416,54.553 Z" id="Shape" fill="#90BAE1"/><path d="M57.42,54.55 L56,55.99 L25.76,25.38 L25.67,25.29 L28.5,22.43 L57.42,51.7 C58.1899302,52.494002 58.1899302,53.755998 57.42,54.55 Z" id="Shape" fill="#B0D3F0"/><path d="M41.9,42.7 C41.6320598,42.6994252 41.3755579,42.5913486 41.188,42.4 L24.968,25.98 C24.5797438,25.5870494 24.5835494,24.9537562 24.9765,24.5655 C25.3694506,24.1772438 26.0027438,24.1810494 26.391,24.574 L42.612,41 C42.8934534,41.2871359 42.9755636,41.7149153 42.8204243,42.085853 C42.665285,42.4567908 42.3030714,42.6987383 41.901,42.7 L41.9,42.7 Z" id="Shape" fill="#2C3E50"/><path d="M47.542,48.414 C47.2744069,48.4131577 47.0183148,48.3051019 46.831,48.114 L44.715,45.972 C44.3682089,45.5732601 44.3915249,44.9735242 44.7682261,44.6029116 C45.1449274,44.232299 45.7449636,44.218758 46.138,44.572 L48.254,46.715 C48.5355788,47.002266 48.6176232,47.4302854 48.4622285,47.8013122 C48.3068337,48.1723389 47.9442532,48.4141389 47.542,48.415 L47.542,48.414 Z" id="Shape" fill="#2C3E50"/><path d="M57.42,54.55 L54.59,57.41 C54.2187124,57.7889438 53.7105213,58.0024878 53.18,58.0024878 C52.6494787,58.0024878 52.1412876,57.7889438 51.77,57.41 L48.95,54.55 L54.59,48.84 L57.42,51.7 C58.1899302,52.494002 58.1899302,53.755998 57.42,54.55 Z" id="Shape" fill="#2980BA"/><path d="M19.333,24.568 L22.859,28.138 L28.5,22.426 L6.639,0.294 C6.45268289,0.105782507 6.19883937,-0.000118204851 5.934,-0.000118204851 C5.66916063,-0.000118204851 5.41531711,0.105782507 5.229,0.294 L1,4.578 C0.611767095,4.97483782 0.611767095,5.60916218 1,6.006" id="Shape" fill="#2980BA"/><path d="M19.333,24.568 C18.9612682,24.9464976 18.4530139,25.1597135 17.9225,25.1597135 C17.3919861,25.1597135 16.8837318,24.9464976 16.512,24.568 L0.292,8.148 C-0.0967657337,7.75137962 -0.0967657337,7.11662038 0.292,6.72 L1.7,5.292 C1.88591501,5.10303224 2.13990906,4.99661084 2.405,4.99661084 C2.67009094,4.99661084 2.92408499,5.10303224 3.11,5.292 L19.33,21.712 C20.1099697,22.503766 20.1113046,23.7745972 19.333,24.568 Z" id="Shape" fill="#3B97D3"/></g></g></svg>
