<?xml version="1.0" encoding="UTF-8"?>
<svg xmlns="http://www.w3.org/2000/svg" xmlns:xlink="http://www.w3.org/1999/xlink" width="512" height="512" viewBox="0 0 40 59" version="1.1"><!-- Generator: Sketch 51.3 (57544) - http://www.bohemiancoding.com/sketch --><title>043 - Stationary</title><desc>Created with Sketch.</desc><defs/><g id="Page-1" stroke="none" stroke-width="1" fill="none" fill-rule="evenodd"><g id="043---Stationary" fill-rule="nonzero"><path d="M17,48 L20.072,57.371 C20.2241756,57.7500298 20.5915627,57.9984198 21,57.9984198 C21.4084373,57.9984198 21.7758244,57.7500298 21.928,57.371 L25,48 L25,44.5 L17,44.5 L17,48 Z" id="Shape" fill="#95A5A5"/><path d="M8,16 C8,13 12,12 12,12 L12,8 L8,0 L4,0 L0,8 L0,12 C0,12 4,13 4,16 L8,16 Z" id="Shape" fill="#F0C419"/><path d="M7.368,16 C7.38719349,14.2357694 8.46752168,12.6569192 10.105,12 L10.105,8 L7.368,0 L4.631,0 L1.894,8 L1.894,12 C3.53147832,12.6569192 4.61180651,14.2357694 4.631,16 L7.368,16 Z" id="Shape" fill="#F3D55B"/><path d="M4,16 L8,16 C9.1045695,16 10,16.8954305 10,18 L10,20 L2,20 L2,18 C2,16.8954305 2.8954305,16 4,16 Z" id="Shape" fill="#95A5A5"/><path d="M5.519,16 L6.482,16 C7.5865695,16 8.482,16.8954305 8.482,18 L8.482,20 L3.519,20 L3.519,18 C3.519,16.8954305 4.4144305,16 5.519,16 Z" id="Shape" fill="#BDC3C7"/><path d="M6,9.988 C5.66543513,9.99140562 5.35178609,9.8255937 5.16619328,9.54720448 C4.98060046,9.26881526 4.94817756,8.91551926 5.08,8.608 C5.12807802,8.48549395 5.19938638,8.37343795 5.29,8.278 C5.69064225,7.9070169 6.30935775,7.9070169 6.71,8.278 C6.79847355,8.37509196 6.86951725,8.48673208 6.92,8.608 C7.05182244,8.91551926 7.01939954,9.26881526 6.83380672,9.54720448 C6.64821391,9.8255937 6.33456487,9.99140562 6,9.988 Z" id="Shape" fill="#2C3E50"/><path d="M6,58 C4.31935062,57.9996887 2.932791,56.6843023 2.844,55.006 L1.055,21.053 C1.04044274,20.7787258 1.13933738,20.5105378 1.32847469,20.3113762 C1.51761199,20.1122147 1.78034002,19.999614 2.055,20 L9.947,20 C10.22166,19.999614 10.484388,20.1122147 10.6735253,20.3113762 C10.8626626,20.5105378 10.9615573,20.7787258 10.947,21.053 L9.158,55.006 C9.06916831,56.685074 7.68142206,58.0007524 6,58 Z" id="Shape" fill="#894B9D"/><path d="M6,58 C5.02,58 4.212,56.684 4.16,55.006 L3.118,21.053 C3.1,20.48 3.366,20 3.7,20 L8.3,20 C8.634,20 8.9,20.48 8.882,21.053 L7.841,55.006 C7.789,56.684 6.981,58 6,58 Z" id="Shape" fill="#955BA5"/><path d="M5,26 C4.73406836,26.0022044 4.47834328,25.8977533 4.29,25.71 C4.20196297,25.6125749 4.13096936,25.5010136 4.08,25.38 C4.02875903,25.2597777 4.00157999,25.1306773 4,25 C4.00368349,24.735233 4.10726627,24.4816338 4.29,24.29 C4.38726069,24.2017473 4.49886071,24.1307291 4.62,24.08 C4.99297365,23.9291234 5.4197788,24.0113519 5.71,24.29 C5.89273373,24.4816338 5.99631651,24.735233 6,25 C6.00345472,25.1311833 5.97605237,25.2613445 5.92,25.38 C5.86903064,25.5010136 5.79803703,25.6125749 5.71,25.71 C5.52165672,25.8977533 5.26593164,26.0022044 5,26 Z" id="Shape" fill="#804169"/><path d="M5,26 C4.73406836,26.0022044 4.47834328,25.8977533 4.29,25.71 C4.20196297,25.6125749 4.13096936,25.5010136 4.08,25.38 C4.02875903,25.2597777 4.00157999,25.1306773 4,25 C4,24.4477153 4.44771525,24 5,24 C5.55228475,24 6,24.4477153 6,25 C5.99842001,25.1306773 5.97124097,25.2597777 5.92,25.38 C5.86903064,25.5010136 5.79803703,25.6125749 5.71,25.71 C5.61273931,25.7982527 5.50113929,25.8692709 5.38,25.92 C5.25977769,25.971241 5.13067726,25.99842 5,26 Z" id="Shape" fill="#3D324C"/><path d="M10.79,24.01 C10.7711053,24.0018556 10.7505148,23.9984238 10.73,24 L8,24 C7.44771525,24 7,24.4477153 7,25 C7,25.5522847 7.44771525,26 8,26 L10.68,26 L10.79,24.01 Z" id="Shape" fill="#3D324C"/><path d="M21,0 C23.209139,2.22044605e-16 25,1.790861 25,4 L25,48 L17,48 L17,4 C17,1.790861 18.790861,4.4408921e-16 21,0 Z" id="Shape" fill="#2FA8CC"/><path d="M21,4 L21,48 L16.999993,48 L17,4 C16.9973218,2.57129305 17.7606343,1.2507625 19,0.54 C19.3016023,0.714947487 19.5803887,0.926556453 19.83,1.17 C20.5776392,1.92233113 20.9981058,2.93935734 21,4 Z" id="Shape" fill="#67B9CC"/><rect id="Rectangle-path" fill="#7F8C8D" x="17" y="17" width="8" height="4"/><rect id="Rectangle-path" fill="#95A5A5" x="17" y="17" width="4" height="4"/><path d="M25,4 L25,17 L17,17 L17,4 C17,1.790861 18.790861,4.4408921e-16 21,0 C23.209139,-4.4408921e-16 25,1.790861 25,4 Z" id="Shape" fill="#2980BA"/><path d="M21,4 L21,17 L16.999993,17 L17,4 C16.9973218,2.57129305 17.7606343,1.2507625 19,0.54 C19.3016023,0.714947487 19.5803887,0.926556453 19.83,1.17 C20.5776392,1.92233113 20.9981058,2.93935734 21,4 Z" id="Shape" fill="#3B97D3"/><path d="M23.03,54.01 L21.93,57.37 C21.7791504,57.75168 21.4104086,58.0024405 21,58.0024405 C20.5895914,58.0024405 20.2208496,57.75168 20.07,57.37 L18.97,54.01 L19,54 L23,54 L23.03,54.01 Z" id="Shape" fill="#3F5C6C"/><rect id="Rectangle-path" fill="#BDC3C7" x="32" y="43.087" width="6" height="4"/><rect id="Rectangle-path" fill="#E57E25" x="32" y="9.087" width="8" height="34"/><rect id="Rectangle-path" fill="#F0C419" x="32" y="9.087" width="5" height="34"/><path d="M36,9.087 C36,10.1915695 35.1045695,11.087 34,11.087 C32.8954305,11.087 32,10.1915695 32,9.087 L35.072,0.716 C35.2241756,0.336970185 35.5915627,0.0885801927 36,0.0885801927 C36.4084373,0.0885801927 36.7758244,0.336970185 36.928,0.716 L40,9.087 C40,10.1915695 39.1045695,11.087 38,11.087 C36.8954305,11.087 36,10.1915695 36,9.087" id="Shape" fill="#CBB292"/><rect id="Rectangle-path" fill="#95A5A5" x="37" y="43.087" width="3" height="4"/><path d="M36,37.087 C35.4477153,37.087 35,37.5347153 35,38.087 L35,39.087 C35,39.6392847 35.4477153,40.087 36,40.087 C36.5522847,40.087 37,39.6392847 37,39.087 L37,38.087 C37,37.5347153 36.5522847,37.087 36,37.087 Z" id="Shape" fill="#F3D55B"/><path d="M36,14.087 C35.4477153,14.087 35,14.5347153 35,15.087 L35,34.087 C35,34.6392847 35.4477153,35.087 36,35.087 C36.5522847,35.087 37,34.6392847 37,34.087 L37,15.087 C37,14.8217835 36.8946432,14.5674296 36.7071068,14.3798932 C36.5195704,14.1923568 36.2652165,14.087 36,14.087 Z" id="Shape" fill="#F3D55B"/><path d="M40,55.087 L40,47.087 L32,47.087 L32,55.087 C32,55.187 32.01,55.298 32.02,55.397 C32.0236802,55.4776638 32.0337112,55.5579122 32.05,55.637 C32.0574425,55.6952193 32.0708462,55.7525201 32.09,55.808 C32.1005165,55.8659733 32.1172809,55.922637 32.14,55.977 C32.1674406,56.0726605 32.2008391,56.1665105 32.24,56.258 C32.27,56.337 32.31,56.417 32.34,56.488 C32.37,56.527 32.39,56.577 32.42,56.618 C32.4629513,56.6900849 32.5096832,56.7598489 32.56,56.827 C32.652634,56.9648487 32.7599263,57.0922584 32.88,57.207 C32.94,57.267 33.01,57.337 33.08,57.397 C33.214273,57.5067575 33.3581918,57.6041537 33.51,57.688 C33.5737149,57.7297949 33.6405831,57.7665724 33.71,57.798 C33.8905982,57.8805721 34.077953,57.9474846 34.27,57.998 C34.34,58.008 34.42,58.027 34.5,58.037 C34.561054,58.0582827 34.6253475,58.0687727 34.69,58.068 C34.79,58.077 34.9,58.087 35,58.087 L37,58.087 C38.6568542,58.087 40,56.7438542 40,55.087 Z" id="Shape" fill="#FF5364"/><path d="M37,55.087 L37.0000111,47.087 L32,47.087 L32,55.087 C32,55.187 32.01,55.298 32.02,55.397 C32.0236802,55.4776638 32.0337112,55.5579122 32.05,55.637 C32.0574425,55.6952193 32.0708462,55.7525201 32.09,55.808 C32.1005165,55.8659733 32.1172809,55.922637 32.14,55.977 C32.1674406,56.0726605 32.2008391,56.1665105 32.24,56.258 C32.27,56.337 32.31,56.417 32.34,56.488 C32.37,56.527 32.39,56.577 32.42,56.618 C32.4629513,56.6900849 32.5096832,56.7598489 32.56,56.827 C32.652634,56.9648487 32.7599263,57.0922584 32.88,57.207 C32.94,57.267 33.01,57.337 33.08,57.397 C33.214273,57.5067575 33.3581918,57.6041537 33.51,57.688 C33.5737149,57.7297949 33.6405831,57.7665724 33.71,57.798 C33.8905982,57.8805721 34.077953,57.9474846 34.27,57.998 C34.34,58.008 34.42,58.027 34.5,58.037 C35.9445827,57.8008196 37.0039577,56.5507571 37,55.087 Z" id="Shape" fill="#FB7B76"/><path d="M38.32,4.517 L36.93,0.717 C36.7791504,0.335319985 36.4104086,0.084559519 36,0.084559519 C35.5895914,0.084559519 35.2208496,0.335319985 35.07,0.717 L33.68,4.517 C35.1332876,5.27706913 36.8667124,5.27706913 38.32,4.517 Z" id="Shape" fill="#2C3E50"/></g></g></svg>
