<?xml version="1.0" encoding="UTF-8"?>
<svg xmlns="http://www.w3.org/2000/svg" xmlns:xlink="http://www.w3.org/1999/xlink" width="512" height="512" viewBox="0 0 58 58" version="1.1"><!-- Generator: Sketch 51.3 (57544) - http://www.bohemiancoding.com/sketch --><title>086 - Pencil Case</title><desc>Created with Sketch.</desc><defs/><g id="Page-1" stroke="none" stroke-width="1" fill="none" fill-rule="evenodd"><g id="086---Pencil-Case" fill-rule="nonzero"><path d="M51.6,32 L54,32 C56.209139,32 58,33.790861 58,36 L58,54 C58,56.209139 56.209139,58 54,58 L4,58 C1.790861,58 2.22044605e-16,56.209139 0,54 L0,36 C-2.22044605e-16,33.790861 1.790861,32 4,32 L51.6,32 Z" id="Shape" fill="#894B9D"/><path d="M52.0000059,36 L12,36 C12.0026555,25.3449259 20.3582528,16.5627534 31,16.03 C31.33,16.01 31.67,16 32,16 C32.33,16 32.67,16.01 33,16.03 C34.0153022,16.074604 35.0252966,16.2016894 36.02,16.41 C36.6753625,16.5367401 37.3230572,16.7003331 37.96,16.9 C38.9343398,17.2070573 39.883774,17.5881682 40.8,18.04 C41.3990927,18.3278282 41.9801613,18.6517573 42.54,19.01 C43.4093239,19.539508 44.2322621,20.1416579 45,20.81 C45.5120857,21.2388115 45.9963956,21.6997408 46.45,22.19 C47.1583151,22.9203319 47.8070522,23.7061733 48.39,24.54 C48.775864,25.0857226 49.1297902,25.6533401 49.45,26.24 C49.9521604,27.1279804 50.383498,28.054186 50.74,29.01 C50.9804742,29.6298336 51.1808867,30.2644735 51.34,30.91 C51.7794728,32.5709305 52.001329,34.2819125 52.0000059,36 Z" id="Shape" fill="#B0D3F0"/><path d="M6,55 L5,55 C4.44771525,55 4,54.5522847 4,54 C4,53.4477153 4.44771525,53 5,53 L6,53 C6.55228475,53 7,53.4477153 7,54 C7,54.5522847 6.55228475,55 6,55 Z" id="Shape" fill="#955BA5"/><path d="M53,55 L10,55 C9.44771525,55 9,54.5522847 9,54 C9,53.4477153 9.44771525,53 10,53 L53,53 C53.5522847,53 54,53.4477153 54,54 C54,54.5522847 53.5522847,55 53,55 Z" id="Shape" fill="#955BA5"/><polyline id="Shape" fill="#2980BA" points="15.67 36 11.36 32 4.54 25.67 9.98 19.81 23.11 32 26.68 35.32"/><path d="M4.538,25.672 L0.083,17.325 C-0.0729605387,16.9614981 -2.84219512e-06,16.5402269 0.269114277,16.2503419 C0.538231397,15.9604569 0.952927715,15.8564416 1.327,15.985 L9.981,19.808" id="Shape" fill="#95A5A5"/><path d="M18.253,33.945 C18.0004271,33.9451947 17.7571359,33.8498075 17.572,33.678 L10.243,26.878 C9.84533855,26.5016042 9.82432845,25.8753943 10.195867,25.4731909 C10.5674055,25.0709875 11.1933139,25.0423736 11.6,25.409 L18.93,32.209 C19.230809,32.4889762 19.3297133,32.9244771 19.1793424,33.3069184 C19.0289714,33.6893596 18.6599413,33.9408748 18.249,33.941 L18.253,33.945 Z" id="Shape" fill="#90BAE1"/><path d="M33,16.03 L33,18 C33,18.5522847 32.5522847,19 32,19 C31.4477153,19 31,18.5522847 31,18 L31,16.03 C31.33,16.01 31.67,16 32,16 C32.33,16 32.67,16.01 33,16.03 Z" id="Shape" fill="#2980BA"/><path d="M37.96,16.9 L37.47,18.82 C37.3558377,19.2621515 36.9566512,19.5708009 36.5,19.57 C36.4157753,19.5698928 36.3318589,19.5598228 36.25,19.54 C35.9924933,19.4740989 35.7718187,19.3083893 35.6367221,19.0794755 C35.5016254,18.8505617 35.4632238,18.5772811 35.53,18.32 L36.02,16.41 C36.6753625,16.5367401 37.3230572,16.7003331 37.96,16.9 Z" id="Shape" fill="#2980BA"/><path d="M42.54,19.01 L41.59,20.73 C41.4126599,21.0500807 41.0759239,21.2490611 40.71,21.25 C40.541218,21.2506414 40.3753899,21.2057296 40.23,21.12 C39.9983328,20.9935979 39.8267935,20.7798479 39.7535487,20.5263082 C39.6803039,20.2727684 39.7114294,20.0004708 39.84,19.77 L40.8,18.04 C41.3990927,18.3278282 41.9801613,18.6517573 42.54,19.01 Z" id="Shape" fill="#2980BA"/><path d="M46.45,22.19 L45.1,23.62 C44.9104913,23.8145584 44.651571,23.926038 44.38,23.93 C43.97876,23.9324914 43.6148844,23.6949118 43.4557736,23.3265593 C43.2966628,22.9582069 43.3731313,22.5304195 43.65,22.24 L45,20.81 C45.5120857,21.2388115 45.9963956,21.6997408 46.45,22.19 Z" id="Shape" fill="#2980BA"/><path d="M49.45,26.24 L47.78,27.29 C47.3101419,27.5801935 46.6941924,27.4373646 46.4,26.97 C46.2589787,26.7446877 46.2134623,26.4725017 46.2735053,26.2135664 C46.3335482,25.9546312 46.4942096,25.7302545 46.72,25.59 L48.39,24.54 C48.775864,25.0857226 49.1297902,25.6533401 49.45,26.24 Z" id="Shape" fill="#2980BA"/><path d="M26.04,16.9 L26.53,18.82 C26.6441623,19.2621515 27.0433488,19.5708009 27.5,19.57 C27.5842247,19.5698928 27.6681411,19.5598228 27.75,19.54 C28.0075067,19.4740989 28.2281813,19.3083893 28.3632779,19.0794755 C28.4983746,18.8505617 28.5367762,18.5772811 28.47,18.32 L27.98,16.41 C27.3246375,16.5367401 26.6769428,16.7003331 26.04,16.9 Z" id="Shape" fill="#2980BA"/><path d="M17.55,22.19 L18.9,23.62 C19.0895087,23.8145584 19.348429,23.926038 19.62,23.93 C20.02124,23.9324914 20.3851156,23.6949118 20.5442264,23.3265593 C20.7033372,22.9582069 20.6268687,22.5304195 20.35,22.24 L19,20.81 C18.4879143,21.2388115 18.0036044,21.6997408 17.55,22.19 Z" id="Shape" fill="#2980BA"/><path d="M51.34,30.91 L49.46,31.51 C49.3625092,31.5380041 49.2614224,31.5514823 49.16,31.55 C48.6691754,31.5488994 48.2517051,31.191744 48.1746441,30.7070053 C48.0975831,30.2222666 48.3837142,29.7532566 48.85,29.6 L50.74,29.01 C50.9804742,29.6298336 51.1808867,30.2644735 51.34,30.91 Z" id="Shape" fill="#2980BA"/><path d="M5.51,17.84 C5.0970515,19.4937615 3.86727964,20.8216133 2.25,21.36 L2.24,21.37 L0.08,17.32 C-0.071736864,16.9562644 0.0043207414,16.5373285 0.274232012,16.2501429 C0.544143283,15.9629573 0.957562184,15.8610902 1.33,15.99 L5.51,17.84 Z" id="Shape" fill="#464F5D"/><path d="M7,38 C6.44771525,38 6,37.5522847 6,37 L6,36 C6,35.4477153 6.44771525,35 7,35 C7.55228475,35 8,35.4477153 8,36 L8,37 C8,37.5522847 7.55228475,38 7,38 Z" id="Shape" fill="#3D324C"/><path d="M11,38 C10.4477153,38 10,37.5522847 10,37 L10,36 C10,35.4477153 10.4477153,35 11,35 C11.5522847,35 12,35.4477153 12,36 L12,37 C12,37.5522847 11.5522847,38 11,38 Z" id="Shape" fill="#3D324C"/><path d="M15,38 C14.4477153,38 14,37.5522847 14,37 L14,36 C14,35.4477153 14.4477153,35 15,35 C15.5522847,35 16,35.4477153 16,36 L16,37 C16,37.5522847 15.5522847,38 15,38 Z" id="Shape" fill="#3D324C"/><path d="M19,38 C18.4477153,38 18,37.5522847 18,37 L18,36 C18,35.4477153 18.4477153,35 19,35 C19.5522847,35 20,35.4477153 20,36 L20,37 C20,37.5522847 19.5522847,38 19,38 Z" id="Shape" fill="#3D324C"/><path d="M23,38 C22.4477153,38 22,37.5522847 22,37 L22,36 C22,35.4477153 22.4477153,35 23,35 C23.5522847,35 24,35.4477153 24,36 L24,37 C24,37.5522847 23.5522847,38 23,38 Z" id="Shape" fill="#3D324C"/><path d="M27,38 C26.4477153,38 26,37.5522847 26,37 L26,36 C26,35.4477153 26.4477153,35 27,35 C27.5522847,35 28,35.4477153 28,36 L28,37 C28,37.5522847 27.5522847,38 27,38 Z" id="Shape" fill="#3D324C"/><path d="M31,38 C30.4477153,38 30,37.5522847 30,37 L30,36 C30,35.4477153 30.4477153,35 31,35 C31.5522847,35 32,35.4477153 32,36 L32,37 C32,37.5522847 31.5522847,38 31,38 Z" id="Shape" fill="#3D324C"/><path d="M35,38 C34.4477153,38 34,37.5522847 34,37 L34,36 C34,35.4477153 34.4477153,35 35,35 C35.5522847,35 36,35.4477153 36,36 L36,37 C36,37.5522847 35.5522847,38 35,38 Z" id="Shape" fill="#3D324C"/><path d="M39,38 C38.4477153,38 38,37.5522847 38,37 L38,36 C38,35.4477153 38.4477153,35 39,35 C39.5522847,35 40,35.4477153 40,36 L40,37 C40,37.5522847 39.5522847,38 39,38 Z" id="Shape" fill="#3D324C"/><path d="M43,38 C42.4477153,38 42,37.5522847 42,37 L42,36 C42,35.4477153 42.4477153,35 43,35 C43.5522847,35 44,35.4477153 44,36 L44,37 C44,37.5522847 43.5522847,38 43,38 Z" id="Shape" fill="#3D324C"/><path d="M47,38 C46.4477153,38 46,37.5522847 46,37 L46,36 C46,35.4477153 46.4477153,35 47,35 C47.5522847,35 48,35.4477153 48,36 L48,37 C48,37.5522847 47.5522847,38 47,38 Z" id="Shape" fill="#3D324C"/><path d="M51,38 C50.4477153,38 50,37.5522847 50,37 L50,36 C50,35.4477153 50.4477153,35 51,35 C51.5522847,35 52,35.4477153 52,36 L52,37 C52,37.5522847 51.5522847,38 51,38 Z" id="Shape" fill="#3D324C"/><polygon id="Shape" fill="#C03A2B" points="27.02 36 25.05 32 14.21 9.95 21.39 6.42 33.97 32 35.94 36"/><path d="M28.836,31.615 C28.4540546,31.6161393 28.1048189,31.3996131 27.936,31.057 L19.552,14.007 C19.3081663,13.5113244 19.5123245,12.9118337 20.008,12.668 C20.5036756,12.4241663 21.1031663,12.6283245 21.347,13.124 L29.731,30.174 C29.8834937,30.4843469 29.8648339,30.8514525 29.681658,31.1447375 C29.4984821,31.4380225 29.1767872,31.6158625 28.831,31.615 L28.836,31.615 Z" id="Shape" fill="#FB7B76"/><path d="M35.94,36 L31.52,36 L29.3,31.5 C29.7843737,31.2500805 29.9763866,30.6561803 29.73,30.17 L21.35,13.12 C21.1009633,12.6294743 20.504627,12.4292121 20.01,12.67 L17.84,8.26 L17.8,8.18 L21.39,6.42 L33.97,32 L35.94,36 Z" id="Shape" fill="#E64C3C"/><path d="M29.3,31.5 L20.01,12.67 C20.504627,12.4292121 21.1009633,12.6294743 21.35,13.12 L29.73,30.17 C29.9763866,30.6561803 29.7843737,31.2500805 29.3,31.5 Z" id="Shape" fill="#FB7B76"/><path d="M17.8,8.181 C18.0342335,8.65716727 18.0696274,9.20690331 17.8983895,9.70917629 C17.7271515,10.2114493 17.363321,10.6250793 16.887,10.859 C15.8959158,11.3462476 14.6974863,10.9379668 14.21,9.947 L13.272,1.079 C13.2406714,0.671115013 13.4609396,0.285279617 13.8281062,0.104890068 C14.1952727,-0.0754994809 14.6352868,-0.0140619571 14.939,0.26 L21.389,6.416 C21.6233035,6.89204468 21.6588444,7.4416832 21.4878,7.94393862 C21.3167556,8.44619403 20.953145,8.85990046 20.477,9.094 C19.4856484,9.58110754 18.2871202,9.1723454 17.8,8.181 Z" id="Shape" fill="#CBB292"/><path d="M17.87,3.06 C17.3898266,3.70777716 16.7625979,4.23218147 16.04,4.59 C15.3124115,4.94584434 14.5096775,5.1207992 13.7,5.1 L13.28,1.08 C13.2511743,0.674778047 13.4703611,0.292387787 13.8345919,0.112466535 C14.1988227,-0.0674547164 14.635704,-0.00914628379 14.94,0.26 L17.87,3.06 Z" id="Shape" fill="#464F5D"/><path d="M53,37 L5,37 C4.44771525,37 4,36.5522847 4,36 C4,35.4477153 4.44771525,35 5,35 L53,35 C53.5522847,35 54,35.4477153 54,36 C54,36.5522847 53.5522847,37 53,37 Z" id="Shape" fill="#3D324C"/></g></g></svg>
