<?xml version="1.0" encoding="UTF-8"?>
<svg xmlns="http://www.w3.org/2000/svg" xmlns:xlink="http://www.w3.org/1999/xlink" width="512" height="512" viewBox="0 0 58 58" version="1.1"><!-- Generator: Sketch 51.3 (57544) - http://www.bohemiancoding.com/sketch --><title>084 - Sharpener</title><desc>Created with Sketch.</desc><defs/><g id="Page-1" stroke="none" stroke-width="1" fill="none" fill-rule="evenodd"><g id="084---Sharpener" fill-rule="nonzero"><circle id="Oval" fill="#FF5364" cx="29" cy="29" r="29"/><circle id="Oval" fill="#DF4D60" cx="29" cy="29" r="25"/><path d="M36,13 L22,13 C21.4477153,13 21,12.5522847 21,12 C21,11.4477153 21.4477153,11 22,11 L36,11 C36.5522847,11 37,11.4477153 37,12 C37,12.5522847 36.5522847,13 36,13 Z" id="Shape" fill="#802F34"/><path d="M32,16 L32,53.81 C31.0052683,53.9392574 30.0030908,54.0027287 29,54 C25.1850538,54.0056971 21.4204131,53.1295625 18,51.44 L18,18 C18.0032948,16.8967981 18.8967981,16.0032948 20,16 L32,16 Z" id="Shape" fill="#BFBFBF"/><path d="M40,18 L40,51.44 C37.4897872,52.6849926 34.7832915,53.486792 32,53.81 L32,16 L38,16 C39.1032019,16.0032948 39.9967052,16.8967981 40,18 Z" id="Shape" fill="#808080"/><path d="M28,34 C28,35.6568542 26.6568542,37 25,37 C24.5540984,36.9976671 24.1139984,36.8987299 23.71,36.71 C23.0901744,36.4102066 22.5897934,35.9098256 22.29,35.29 C22.1012701,34.8860016 22.0023329,34.4459016 22,34 C22,32.3431458 23.3431458,31 25,31 C25.4459016,31.0023329 25.8860016,31.1012701 26.29,31.29 C26.9098256,31.5897934 27.4102066,32.0901744 27.71,32.71 C27.8987299,33.1139984 27.9976671,33.5540984 28,34 Z" id="Shape" fill="#808080"/><path d="M27.71,32.71 L23.71,36.71 C23.0901744,36.4102066 22.5897934,35.9098256 22.29,35.29 L26.29,31.29 C26.9098256,31.5897934 27.4102066,32.0901744 27.71,32.71 Z" id="Shape" fill="#404040"/><path d="M29,55 C14.6405965,55 3,43.3594035 3,29 C3,14.6405965 14.6405965,3 29,3 C43.3594035,3 55,14.6405965 55,29 C54.9840179,43.3527783 43.3527783,54.9840179 29,55 Z M29,5 C15.745166,5 5,15.745166 5,29 C5,42.254834 15.745166,53 29,53 C42.254834,53 53,42.254834 53,29 C52.9845705,15.7515624 42.2484376,5.01542952 29,5 Z" id="Shape" fill="#802F34"/></g></g></svg>
