<?xml version="1.0" encoding="UTF-8"?>
<svg xmlns="http://www.w3.org/2000/svg" xmlns:xlink="http://www.w3.org/1999/xlink" width="512" height="512" viewBox="0 0 58 50" version="1.1"><!-- Generator: Sketch 51.3 (57544) - http://www.bohemiancoding.com/sketch --><title>078 - Dual Sharpener</title><desc>Created with Sketch.</desc><defs/><g id="Page-1" stroke="none" stroke-width="1" fill="none" fill-rule="evenodd"><g id="078---Dual-Sharpener" fill-rule="nonzero"><path d="M54,25 C54,30.872 55.2,35.834 56.842,37.447 C57.589775,38.1892779 58.0071634,39.2013906 58,40.255 L58,49 C58,49.5522847 57.5522847,50 57,50 L1,50 C0.44771525,50 -8.8817842e-16,49.5522847 -8.8817842e-16,49 L-8.8817842e-16,40.255 C-0.00716336222,39.2013906 0.410224997,38.1892779 1.158,37.447 C2.8,35.834 4,30.872 4,25 C4,19.128 2.8,14.166 1.158,12.553 C0.410224997,11.8107221 -0.00716336222,10.7986094 -1.11022302e-15,9.745 L-1.11022302e-15,1 C-9.99200722e-16,0.44771525 0.44771525,0 1,0 L57,0 C57.5522847,0 58,0.44771525 58,1 L58,9.745 C58.0071634,10.7986094 57.589775,11.8107221 56.842,12.553 C55.2,14.166 54,19.128 54,25 Z" id="Shape" fill="#DF4D60"/><path d="M52.1,25 C52.1,30.872 53.207,35.834 54.727,37.447 C55.4267852,38.2134836 55.8092522,39.2171916 55.797,40.255 L55.797,49 C55.8167305,49.5308339 55.4037363,49.9777974 54.873,50 L3.126,50 C2.59447135,49.978867 2.18028658,49.5315832 2.2,49 L2.2,40.255 C2.18774776,39.2171916 2.57021483,38.2134836 3.27,37.447 C4.792,35.834 5.9,30.872 5.9,25 C5.9,19.128 4.792,14.166 3.272,12.553 C2.57148809,11.7868219 2.18829294,10.7830794 2.2,9.745 L2.2,1 C2.18026946,0.469166066 2.59326371,0.0222025847 3.124,0 L54.874,0 C55.4055287,0.0211330367 55.8197134,0.468416804 55.8,1 L55.8,9.745 C55.8122522,10.7828084 55.4297852,11.7865164 54.73,12.553 C53.208,14.166 52.1,19.128 52.1,25 Z" id="Shape" fill="#FF5364"/><rect id="Rectangle-path" fill="#E6E7E8" x="8" y="5" width="19" height="40" rx="2"/><circle id="Oval" fill="#808080" cx="14" cy="25" r="2"/><path d="M27,7 L27,43 C26.9967052,44.1032019 26.1032019,44.9967052 25,45 L20,45 L20,5 L25,5 C26.1032019,5.0032948 26.9967052,5.89679813 27,7 Z" id="Shape" fill="#BFBFBF"/><path d="M21,5 L21,19 C21,19.5522847 20.5522847,20 20,20 C19.4477153,20 19,19.5522847 19,19 L19,5 L21,5 Z" id="Shape" fill="#404040"/><path d="M21,33 L21,45 L19,45 L19,33 C19,32.4477153 19.4477153,32 20,32 C20.5522847,32 21,32.4477153 21,33 Z" id="Shape" fill="#404040"/><path d="M20,30 C19.4477153,30 19,29.5522847 19,29 L19,23 C19,22.4477153 19.4477153,22 20,22 C20.5522847,22 21,22.4477153 21,23 L21,29 C21,29.5522847 20.5522847,30 20,30 Z" id="Shape" fill="#404040"/><rect id="Rectangle-path" fill="#E6E7E8" x="31" y="5" width="19" height="40" rx="2"/><circle id="Oval" fill="#808080" cx="37" cy="25" r="2"/><path d="M50,7 L50,43 C49.9967052,44.1032019 49.1032019,44.9967052 48,45 L43,45 L43,5 L48,5 C49.1032019,5.0032948 49.9967052,5.89679813 50,7 Z" id="Shape" fill="#BFBFBF"/><path d="M44,5 L44,19 C44,19.5522847 43.5522847,20 43,20 C42.4477153,20 42,19.5522847 42,19 L42,5 L44,5 Z" id="Shape" fill="#404040"/><path d="M44,33 L44,45 L42,45 L42,33 C42,32.4477153 42.4477153,32 43,32 C43.5522847,32 44,32.4477153 44,33 Z" id="Shape" fill="#404040"/><path d="M43,30 C42.4477153,30 42,29.5522847 42,29 L42,23 C42,22.4477153 42.4477153,22 43,22 C43.5522847,22 44,22.4477153 44,23 L44,29 C44,29.5522847 43.5522847,30 43,30 Z" id="Shape" fill="#404040"/></g></g></svg>
