<?xml version="1.0" encoding="UTF-8"?>
<svg xmlns="http://www.w3.org/2000/svg" xmlns:xlink="http://www.w3.org/1999/xlink" width="512" height="512" viewBox="0 0 58 58" version="1.1"><!-- Generator: Sketch 51.3 (57544) - http://www.bohemiancoding.com/sketch --><title>022 - Stamp</title><desc>Created with Sketch.</desc><defs/><g id="Page-1" stroke="none" stroke-width="1" fill="none" fill-rule="evenodd"><g id="022---Stamp" fill-rule="nonzero"><path d="M41.324,58 L7.8,58 C7.0423083,57.9999743 6.34968819,57.571781 6.011,56.894 L4.561,54 L44.561,54 L43.113,56.894 C42.7743118,57.571781 42.0816917,57.9999743 41.324,58 Z" id="Shape" fill="#3F5C6C"/><path d="M48.94,44.49 L47.8,49.03 L47.31,51 L46.94,52.49 C46.7180765,53.3799324 45.9171798,54.0033108 45,54 L4.12,54 C3.20282021,54.0033108 2.40192351,53.3799324 2.18,52.49 L0.18,44.49 C0.0288519835,43.8918718 0.162201314,43.2574625 0.541365732,42.770803 C0.92053015,42.2841435 1.50306968,41.9997058 2.12,42 L47,42 C47.6169303,41.9997058 48.1994699,42.2841435 48.5786343,42.770803 C48.9577987,43.2574625 49.091148,43.8918718 48.94,44.49 Z" id="Shape" fill="#41767F"/><path d="M33.56,3.9 C31.2386312,1.40276375 27.9795189,-0.0110891952 24.57,1.44328993e-15 L24.56,1.44328993e-15 C20.7350446,-0.00162107889 17.1258911,1.77185368 14.790086,4.80076445 C12.4542809,7.82967521 11.6563125,11.7710517 12.63,15.47 L18.56,38 L30.56,38 L33.15,28.14 L33.56,3.9 Z" id="Shape" fill="#2C3E50"/><path d="M16.561,38 L32.561,38 C33.6655695,38 34.561,38.8954305 34.561,40 L34.561,42 L14.561,42 L14.561,40 C14.561,38.8954305 15.4564305,38 16.561,38 Z" id="Shape" fill="#3F5C6C"/><path d="M17.958,8.244 C17.5770371,8.2438471 17.2292549,8.02724853 17.0610948,7.68540802 C16.8929348,7.34356751 16.9336126,6.93587552 17.166,6.634 C18.9257188,4.33446632 21.6594231,2.9899973 24.555,3 C25.1072847,3 25.555,3.44771525 25.555,4 C25.555,4.55228475 25.1072847,5 24.555,5 C22.2822219,4.99408603 20.1370159,6.04967533 18.755,7.854 C18.5647083,8.10119923 18.2699556,8.24543204 17.958,8.244 Z" id="Shape" fill="#35495E"/><path d="M16.5,15.45 C16.0456161,15.4499072 15.6484135,15.143482 15.533,14.704 C15.3933101,14.172749 15.2999603,13.6303833 15.254,13.083 C15.220589,12.7249218 15.3820281,12.3764808 15.6767987,12.1704553 C15.9715694,11.9644297 16.3542672,11.9325542 16.67906,12.0869754 C17.0038528,12.2413966 17.2207119,12.5583286 17.247,12.917 C17.2827011,13.3486289 17.3563184,13.7762785 17.467,14.195 C17.5346122,14.4516016 17.4974628,14.7245549 17.3637324,14.9537534 C17.230002,15.1829519 17.0106573,15.3495999 16.754,15.417 C16.6710727,15.4387133 16.5857226,15.4498021 16.5,15.45 Z" id="Shape" fill="#35495E"/><path d="M8.561,51 L7.561,51 C7.00871525,51 6.561,50.5522847 6.561,50 C6.561,49.4477153 7.00871525,49 7.561,49 L8.561,49 C9.11328475,49 9.561,49.4477153 9.561,50 C9.561,50.5522847 9.11328475,51 8.561,51 Z" id="Shape" fill="#67B9CC"/><path d="M47.8,49.03 L47.31,51 L12.56,51 C12.0077153,51 11.56,50.5522847 11.56,50 C11.56,49.4477153 12.0077153,49 12.56,49 L47.56,49 C47.640928,49.0001128 47.7215343,49.0101886 47.8,49.03 Z" id="Shape" fill="#67B9CC"/><path d="M43.821,0.835 C44.4243412,0.136983452 45.3735907,-0.154732823 46.2648033,0.0839886251 C47.1560158,0.322710073 47.832351,1.04985776 48.006,1.956 C48.1377971,2.64250195 48.5614128,3.23784846 49.1667951,3.58737328 C49.7721775,3.93689809 50.4995693,4.00609967 51.16,3.777 C52.0314266,3.47381593 52.9994832,3.69567586 53.6519037,4.34809632 C54.3043241,5.00051678 54.5261841,5.96857339 54.223,6.84 C53.9939003,7.50043072 54.0631019,8.22782254 54.4126267,8.8332049 C54.7621515,9.43858725 55.3574981,9.86220294 56.044,9.994 C56.9501422,10.167649 57.6772899,10.8439842 57.9160114,11.7351967 C58.1547328,12.6264093 57.8630165,13.5756588 57.165,14.179 C56.6363551,14.6363956 56.3325707,15.3009462 56.3325707,16 C56.3325707,16.6990538 56.6363551,17.3636044 57.165,17.821 C57.8630165,18.4243412 58.1547328,19.3735907 57.9160114,20.2648033 C57.6772899,21.1560158 56.9501422,21.832351 56.044,22.006 C55.3574981,22.1377971 54.7621515,22.5614128 54.4126267,23.1667951 C54.0631019,23.7721775 53.9939003,24.4995693 54.223,25.16 C54.5261841,26.0314266 54.3043241,26.9994832 53.6519037,27.6519037 C52.9994832,28.3043241 52.0314266,28.5261841 51.16,28.223 C50.4995693,27.9939003 49.7721775,28.0631019 49.1667951,28.4126267 C48.5614128,28.7621515 48.1377971,29.3574981 48.006,30.044 C47.832351,30.9501422 47.1560158,31.6772899 46.2648033,31.9160114 C45.3735907,32.1547328 44.4243412,31.8630165 43.821,31.165 C43.3636044,30.6363551 42.6990538,30.3325707 42,30.3325707 C41.3009462,30.3325707 40.6363956,30.6363551 40.179,31.165 C39.5756588,31.8630165 38.6264093,32.1547328 37.7351967,31.9160114 C36.8439842,31.6772899 36.167649,30.9501422 35.994,30.044 C35.8622029,29.3574981 35.4385872,28.7621515 34.8332049,28.4126267 C34.2278225,28.0631019 33.5004307,27.9939003 32.84,28.223 C31.9685734,28.5261841 31.0005168,28.3043241 30.3480963,27.6519037 C29.6956759,26.9994832 29.4738159,26.0314266 29.777,25.16 C30.0060997,24.4995693 29.9368981,23.7721775 29.5873733,23.1667951 C29.2378485,22.5614128 28.6425019,22.1377971 27.956,22.006 C27.0498578,21.832351 26.3227101,21.1560158 26.0839886,20.2648033 C25.8452672,19.3735907 26.1369835,18.4243412 26.835,17.821 C27.3636449,17.3636044 27.6674293,16.6990538 27.6674293,16 C27.6674293,15.3009462 27.3636449,14.6363956 26.835,14.179 C26.1369835,13.5756588 25.8452672,12.6264093 26.0839886,11.7351967 C26.3227101,10.8439842 27.0498578,10.167649 27.956,9.994 C28.6425019,9.86220294 29.2378485,9.43858725 29.5873733,8.8332049 C29.9368981,8.22782254 30.0060997,7.50043072 29.777,6.84 C29.4738159,5.96857339 29.6956759,5.00051678 30.3480963,4.34809632 C31.0005168,3.69567586 31.9685734,3.47381593 32.84,3.777 C33.5004307,4.00609967 34.2278225,3.93689809 34.8332049,3.58737328 C35.4385872,3.23784846 35.8622029,2.64250195 35.994,1.956 C36.167649,1.04985776 36.8439842,0.322710073 37.7351967,0.0839886251 C38.6264093,-0.154732823 39.5756588,0.136983452 40.179,0.835 C40.6363956,1.36364493 41.3009462,1.66742931 42,1.66742931 C42.6990538,1.66742931 43.3636044,1.36364493 43.821,0.835 Z" id="Shape" fill="#E64C3C"/><path d="M43.593,2.73 C44.1212446,2.11984736 44.9516034,1.8650403 45.7311654,2.07387437 C46.5107275,2.28270844 47.1025102,2.91848786 47.255,3.711 C47.3701553,4.311865 47.7407936,4.83300735 48.2705854,5.13898134 C48.8003773,5.44495532 49.437002,5.5055439 50.015,5.305 C50.7774752,5.03959453 51.624573,5.23366657 52.1954532,5.80454678 C52.7663334,6.37542699 52.9604055,7.22252484 52.695,7.985 C52.4944561,8.56299795 52.5550447,9.19962273 52.8610187,9.72941458 C53.1669927,10.2592064 53.688135,10.6298447 54.289,10.745 C55.0815121,10.8974898 55.7172916,11.4892725 55.9261256,12.2688346 C56.1349597,13.0483966 55.8801526,13.8787554 55.27,14.407 C54.807085,14.8068563 54.541,15.3883013 54.541,16 C54.541,16.6116987 54.807085,17.1931437 55.27,17.593 C55.8801526,18.1212446 56.1349597,18.9516034 55.9261256,19.7311654 C55.7172916,20.5107275 55.0815121,21.1025102 54.289,21.255 C53.688135,21.3701553 53.1669927,21.7407936 52.8610187,22.2705854 C52.5550447,22.8003773 52.4944561,23.437002 52.695,24.015 C52.9604055,24.7774752 52.7663334,25.624573 52.1954532,26.1954532 C51.624573,26.7663334 50.7774752,26.9604055 50.015,26.695 C49.437002,26.4944561 48.8003773,26.5550447 48.2705854,26.8610187 C47.7407936,27.1669927 47.3701553,27.688135 47.255,28.289 C47.1025102,29.0815121 46.5107275,29.7172916 45.7311654,29.9261256 C44.9516034,30.1349597 44.1212446,29.8801526 43.593,29.27 C43.1940507,28.8055491 42.6122705,28.5383388 42,28.5383388 C41.3877295,28.5383388 40.8059493,28.8055491 40.407,29.27 C39.8787554,29.8801526 39.0483966,30.1349597 38.2688346,29.9261256 C37.4892725,29.7172916 36.8974898,29.0815121 36.745,28.289 C36.6298447,27.688135 36.2592064,27.1669927 35.7294146,26.8610187 C35.1996227,26.5550447 34.562998,26.4944561 33.985,26.695 C33.2225248,26.9604055 32.375427,26.7663334 31.8045468,26.1954532 C31.2336666,25.624573 31.0395945,24.7774752 31.305,24.015 C31.5055439,23.437002 31.4449553,22.8003773 31.1389813,22.2705854 C30.8330073,21.7407936 30.311865,21.3701553 29.711,21.255 C28.9184879,21.1025102 28.2827084,20.5107275 28.0738744,19.7311654 C27.8650403,18.9516034 28.1198474,18.1212446 28.73,17.593 C29.1944509,17.1940507 29.4616612,16.6122705 29.4616612,16 C29.4616612,15.3877295 29.1944509,14.8059493 28.73,14.407 C28.1198474,13.8787554 27.8650403,13.0483966 28.0738744,12.2688346 C28.2827084,11.4892725 28.9184879,10.8974898 29.711,10.745 C30.311865,10.6298447 30.8330073,10.2592064 31.1389813,9.72941458 C31.4449553,9.19962273 31.5055439,8.56299795 31.305,7.985 C31.0395945,7.22252484 31.2336666,6.37542699 31.8045468,5.80454678 C32.375427,5.23366657 33.2225248,5.03959453 33.985,5.305 C34.562998,5.5055439 35.1996227,5.44495532 35.7294146,5.13898134 C36.2592064,4.83300735 36.6298447,4.311865 36.745,3.711 C36.8974898,2.91848786 37.4892725,2.28270844 38.2688346,2.07387437 C39.0483966,1.8650403 39.8787554,2.11984736 40.407,2.73 C40.8068563,3.19291501 41.3883013,3.459 42,3.459 C42.6116987,3.459 43.1931437,3.19291501 43.593,2.73 Z" id="Shape" fill="#C03A2B"/><circle id="Oval" fill="#802F34" cx="42" cy="16" r="10"/><path d="M46,21 C45.7348052,20.9999434 45.4804927,20.8945494 45.293,20.707 L37.293,12.707 C36.9140278,12.3146211 36.9194476,11.6909152 37.3051814,11.3051814 C37.6909152,10.9194476 38.3146211,10.9140278 38.707,11.293 L46.707,19.293 C46.9929079,19.5789943 47.0784219,20.0090366 46.923678,20.3826546 C46.7689341,20.7562725 46.4043959,20.9999137 46,21 Z" id="Shape" fill="#FB7B76"/><path d="M38,21 C37.5956041,20.9999137 37.2310659,20.7562725 37.076322,20.3826546 C36.9215781,20.0090366 37.0070921,19.5789943 37.293,19.293 L45.293,11.293 C45.6853789,10.9140278 46.3090848,10.9194476 46.6948186,11.3051814 C47.0805524,11.6909152 47.0859722,12.3146211 46.707,12.707 L38.707,20.707 C38.5195073,20.8945494 38.2651948,20.9999434 38,21 Z" id="Shape" fill="#FB7B76"/></g></g></svg>
