<?xml version="1.0" encoding="UTF-8"?>
<svg xmlns="http://www.w3.org/2000/svg" xmlns:xlink="http://www.w3.org/1999/xlink" width="512" height="512" viewBox="0 0 58 57" version="1.1"><!-- Generator: Sketch 51.3 (57544) - http://www.bohemiancoding.com/sketch --><title>028 - Stapler</title><desc>Created with Sketch.</desc><defs/><g id="Page-1" stroke="none" stroke-width="1" fill="none" fill-rule="evenodd"><g id="028---Stapler" transform="translate(-1.000000, 0.000000)" fill-rule="nonzero"><path d="M12,43 L54,43 C55.1032019,43.0032948 55.9967052,43.8967981 56,45 L56,48 L13,48" id="Shape" fill="#95A5A5"/><polygon id="Shape" fill="#BDC3C7" points="48.37 15.47 52 22 14 42 9 39"/><path d="M54,26.6 C53.6363956,26.6001766 53.3013481,26.4029773 53.125,26.085 L47.5,15.956 C47.2315896,15.4733031 47.4053031,14.8644104 47.888,14.596 C48.3706969,14.3275896 48.9795896,14.5013031 49.248,14.984 L54.878,25.112 C55.0515989,25.4224903 55.0471867,25.8018281 54.8664128,26.1081965 C54.685639,26.414565 54.355721,26.6018369 54,26.6 Z" id="Shape" fill="#95A5A5"/><path d="M14.98,47 L57,47 C58.1032019,47.0032948 58.9967052,47.8967981 59,49 L59,55 C58.9967052,56.1032019 58.1032019,56.9967052 57,57 L6,57 C4.8954305,57 4,56.1045695 4,55 L4,51.19" id="Shape" fill="#2980BA"/><path d="M2.12,45.27 C-0.512900545,38.6064675 1.60294859,31.0049322 7.3,26.66 L40.78,1.14 C41.6558158,0.470638551 42.9081124,0.6361206 43.58,1.51 L50.86,11.06 C51.5271388,11.9384293 51.3571267,13.1911496 50.48,13.86 L13.35,42.18" id="Shape" fill="#2980BA"/><circle id="Oval" fill="#2C3E50" cx="8.5" cy="46.5" r="6.5"/><circle id="Oval" fill="#3F5C6C" cx="8.5" cy="46.5" r="2.5"/><polygon id="Shape" fill="#A5A5A4" points="48.58 17.9 23.62 36.94 14 42 13.77 41.86 47.57 16.08"/><path d="M50.18,16.68 L48.58,17.9 L47.57,16.08 L48.37,15.47 L49.16,14.87 C49.1951829,14.8996455 49.2226369,14.9373947 49.24,14.98 L50.18,16.68 Z" id="Shape" fill="#7F8C8D"/><path d="M20,52 L18,52 C17.4477153,52 17,51.5522847 17,51 C17,50.4477153 17.4477153,50 18,50 L20,50 C20.5522847,50 21,50.4477153 21,51 C21,51.5522847 20.5522847,52 20,52 Z" id="Shape" fill="#3B97D3"/><path d="M55,52 L24,52 C23.4477153,52 23,51.5522847 23,51 C23,50.4477153 23.4477153,50 24,50 L55,50 C55.5522847,50 56,50.4477153 56,51 C56,51.5522847 55.5522847,52 55,52 Z" id="Shape" fill="#3B97D3"/></g></g></svg>
