<?xml version="1.0" encoding="UTF-8"?>
<svg xmlns="http://www.w3.org/2000/svg" xmlns:xlink="http://www.w3.org/1999/xlink" width="512" height="512" viewBox="0 0 58 58" version="1.1"><!-- Generator: Sketch 51.3 (57544) - http://www.bohemiancoding.com/sketch --><title>076 - Templates</title><desc>Created with Sketch.</desc><defs/><g id="Page-1" stroke="none" stroke-width="1" fill="none" fill-rule="evenodd"><g id="076---Templates" fill-rule="nonzero"><path d="M41,33 L41,1 C41,0.44771525 40.5522847,0 40,0 L1,0 C0.44771525,0 0,0.44771525 0,1 L0,57 C0,57.5522847 0.44771525,58 1,58 L40,58 L41,33 Z" id="Shape" fill="#F9EAB0"/><polygon id="Shape" fill="#FF5364" points="5 14 8 11 11 14 11 8 8 5 5 8"/><path d="M11,18 L5,18 C4.44771525,18 4,17.5522847 4,17 C4,16.4477153 4.44771525,16 5,16 L11,16 C11.5522847,16 12,16.4477153 12,17 C12,17.5522847 11.5522847,18 11,18 Z" id="Shape" fill="#FF5364"/><path d="M25,6 L24,6 C23.4477153,6 23,5.55228475 23,5 C23,4.44771525 23.4477153,4 24,4 L25,4 C25.5522847,4 26,4.44771525 26,5 C26,5.55228475 25.5522847,6 25,6 Z" id="Shape" fill="#2C3E50"/><path d="M37,6 L29,6 C28.4477153,6 28,5.55228475 28,5 C28,4.44771525 28.4477153,4 29,4 L37,4 C37.5522847,4 38,4.44771525 38,5 C38,5.55228475 37.5522847,6 37,6 Z" id="Shape" fill="#2C3E50"/><path d="M37,10 L27,10 C26.4477153,10 26,9.55228475 26,9 C26,8.44771525 26.4477153,8 27,8 L37,8 C37.5522847,8 38,8.44771525 38,9 C38,9.55228475 37.5522847,10 37,10 Z" id="Shape" fill="#2C3E50"/><path d="M17,51 L5,51 C4.44771525,51 4,50.5522847 4,50 C4,49.4477153 4.44771525,49 5,49 L17,49 C17.5522847,49 18,49.4477153 18,50 C18,50.5522847 17.5522847,51 17,51 Z" id="Shape" fill="#2C3E50"/><path d="M17,55 L10,55 C9.44771525,55 9,54.5522847 9,54 C9,53.4477153 9.44771525,53 10,53 L17,53 C17.5522847,53 18,53.4477153 18,54 C18,54.5522847 17.5522847,55 17,55 Z" id="Shape" fill="#2C3E50"/><rect id="Rectangle-path" fill="#547580" x="17" y="33" width="41" height="25" rx="2"/><path d="M51,41 L24,41 C23.7348052,40.9999434 23.4804927,40.8945494 23.293,40.707 L20.293,37.707 C19.9140278,37.3146211 19.9194476,36.6909152 20.3051814,36.3051814 C20.6909152,35.9194476 21.3146211,35.9140278 21.707,36.293 L24.414,39 L50.586,39 L53.293,36.293 C53.6853789,35.9140278 54.3090848,35.9194476 54.6948186,36.3051814 C55.0805524,36.6909152 55.0859722,37.3146211 54.707,37.707 L51.707,40.707 C51.5195073,40.8945494 51.2651948,40.9999434 51,41 Z" id="Shape" fill="#2C3E50"/><path d="M42,51 L33,51 C32.4477153,51 32,50.5522847 32,50 C32,49.4477153 32.4477153,49 33,49 L42,49 C42.5522847,49 43,49.4477153 43,50 C43,50.5522847 42.5522847,51 42,51 Z" id="Shape" fill="#2C3E50"/><path d="M42,55 L33,55 C32.4477153,55 32,54.5522847 32,54 C32,53.4477153 32.4477153,53 33,53 L42,53 C42.5522847,53 43,53.4477153 43,54 C43,54.5522847 42.5522847,55 42,55 Z" id="Shape" fill="#2C3E50"/><rect id="Rectangle-path" fill="#2C3E50" x="28" y="13" width="26" height="16" rx="2"/><path d="M36,19 C35.7348052,18.9999434 35.4804927,18.8945494 35.293,18.707 L34,17.414 L32.707,18.707 C32.3146211,19.0859722 31.6909152,19.0805524 31.3051814,18.6948186 C30.9194476,18.3090848 30.9140278,17.6853789 31.293,17.293 L33.293,15.293 C33.6834999,14.9026181 34.3165001,14.9026181 34.707,15.293 L36.707,17.293 C36.9929079,17.5789943 37.0784219,18.0090366 36.923678,18.3826546 C36.7689341,18.7562725 36.4043959,18.9999137 36,19 Z" id="Shape" fill="#FF5364"/><path d="M35,22 L33,22 C32.4477153,22 32,21.5522847 32,21 C32,20.4477153 32.4477153,20 33,20 L35,20 C35.5522847,20 36,20.4477153 36,21 C36,21.5522847 35.5522847,22 35,22 Z" id="Shape" fill="#FF5364"/><path d="M45,19 L43,19 C42.4477153,19 42,18.5522847 42,18 C42,17.4477153 42.4477153,17 43,17 L45,17 C45.5522847,17 46,17.4477153 46,18 C46,18.5522847 45.5522847,19 45,19 Z" id="Shape" fill="#8697CB"/><path d="M50,19 L49,19 C48.4477153,19 48,18.5522847 48,18 C48,17.4477153 48.4477153,17 49,17 L50,17 C50.5522847,17 51,17.4477153 51,18 C51,18.5522847 50.5522847,19 50,19 Z" id="Shape" fill="#8697CB"/><path d="M50,22 L45,22 C44.4477153,22 44,21.5522847 44,21 C44,20.4477153 44.4477153,20 45,20 L50,20 C50.5522847,20 51,20.4477153 51,21 C51,21.5522847 50.5522847,22 50,22 Z" id="Shape" fill="#8697CB"/><path d="M45,26 L43,26 C42.4477153,26 42,25.5522847 42,25 C42,24.4477153 42.4477153,24 43,24 L45,24 C45.5522847,24 46,24.4477153 46,25 C46,25.5522847 45.5522847,26 45,26 Z" id="Shape" fill="#8697CB"/><path d="M50,26 L49,26 C48.4477153,26 48,25.5522847 48,25 C48,24.4477153 48.4477153,24 49,24 L50,24 C50.5522847,24 51,24.4477153 51,25 C51,25.5522847 50.5522847,26 50,26 Z" id="Shape" fill="#8697CB"/></g></g></svg>
