<?xml version="1.0" encoding="UTF-8"?>
<svg xmlns="http://www.w3.org/2000/svg" xmlns:xlink="http://www.w3.org/1999/xlink" width="512" height="512" viewBox="0 0 34 58" version="1.1"><!-- Generator: Sketch 51.3 (57544) - http://www.bohemiancoding.com/sketch --><title>039 - Knife and Ruler</title><desc>Created with Sketch.</desc><defs/><g id="Page-1" stroke="none" stroke-width="1" fill="none" fill-rule="evenodd"><g id="039---Knife-and-Ruler" fill-rule="nonzero"><path d="M33,40.67 L33,48.5 C33,48.8147573 32.8518058,49.1111456 32.6,49.3 L21.8,57.4 C21.6484912,57.5136316 21.4457852,57.5319096 21.2763932,57.4472136 C21.1070012,57.3625176 21,57.189386 21,57 L21,40.5" id="Shape" fill="#95A5A5"/><path d="M33,46 L33,48.5 C32.9978344,48.8142421 32.8500943,49.1097222 32.6,49.3 L21.8,57.4 C21.6484912,57.5136316 21.4457852,57.5319096 21.2763932,57.4472136 C21.1070012,57.3625176 21,57.189386 21,57 L21,55.5 L32.6,46.8 C32.8500943,46.6097222 32.9978344,46.3142421 33,46 Z" id="Shape" fill="#BDC3C7"/><path d="M7,4.4408921e-16 C3.13400675,-2.22044605e-16 -3.55271368e-15,3.13400675 -3.55271368e-15,7 L-3.55271368e-15,57 C-3.55271368e-15,57.5522847 0.44771525,58 1,58 L13,58 C13.5522847,58 14,57.5522847 14,57 L14,7 C14,3.13400675 10.8659932,2.22044605e-16 7,0 Z M7,5 C8.1045695,5 9,5.8954305 9,7 C9,8.1045695 8.1045695,9 7,9 C5.8954305,9 5,8.1045695 5,7 C5.0032948,5.89679813 5.89679813,5.0032948 7,5 Z" id="Shape" fill="#547580"/><path d="M14,27 L14,29 L6,29 C5.44771525,29 5,28.5522847 5,28 C5,27.4477153 5.44771525,27 6,27 L14,27 Z" id="Shape" fill="#2C3E50"/><path d="M14,17 L14,19 L11,19 C10.4477153,19 10,18.5522847 10,18 C10,17.4477153 10.4477153,17 11,17 L14,17 Z" id="Shape" fill="#2C3E50"/><path d="M7,19 C6.73523302,18.9963165 6.48163379,18.8927337 6.29,18.71 C6.2469872,18.6624865 6.20691278,18.6123935 6.17,18.56 C6.13212275,18.5042729 6.10185535,18.4437381 6.08,18.38 C6.05111232,18.3233376 6.03088731,18.2626625 6.02,18.2 C6.00839112,18.1339204 6.00170607,18.0670699 6,18 C5.99654528,17.8688167 6.02394763,17.7386555 6.08,17.62 C6.13072915,17.4988607 6.20174734,17.3872607 6.29,17.29 C6.6910198,16.9199816 7.3089802,16.9199816 7.71,17.29 C7.79825266,17.3872607 7.86927085,17.4988607 7.92,17.62 C7.97124097,17.7402223 7.99842001,17.8693227 8,18 C7.99802571,18.2651121 7.89419577,18.5193164 7.71,18.71 C7.51825702,18.892565 7.26472686,18.9961196 7,19 Z" id="Shape" fill="#2C3E50"/><path d="M14,22 L14,24 L11,24 C10.4477153,24 10,23.5522847 10,23 C10,22.4477153 10.4477153,22 11,22 L14,22 Z" id="Shape" fill="#2C3E50"/><path d="M7,24 C6.5286597,23.9952962 6.12599909,23.6589249 6.03748917,23.1959457 C5.94897926,22.7329664 6.19916831,22.2717868 6.63553546,22.0935523 C7.0719026,21.9153179 7.57342108,22.069462 7.83435392,22.462015 C8.09528676,22.854568 8.04326405,23.376655 7.71,23.71 C7.51836621,23.8927337 7.26476698,23.9963165 7,24 Z" id="Shape" fill="#2C3E50"/><path d="M14,47 L14,49 L6,49 C5.44771525,49 5,48.5522847 5,48 C5,47.4477153 5.44771525,47 6,47 L14,47 Z" id="Shape" fill="#2C3E50"/><path d="M14,32 L14,34 L11,34 C10.4477153,34 10,33.5522847 10,33 C10,32.4477153 10.4477153,32 11,32 L14,32 Z" id="Shape" fill="#2C3E50"/><path d="M7,34 C6.73523302,33.9963165 6.48163379,33.8927337 6.29,33.71 C6.2469872,33.6624865 6.20691278,33.6123935 6.17,33.56 C6.13212275,33.5042729 6.10185535,33.4437381 6.08,33.38 C6.05111232,33.3233376 6.03088731,33.2626625 6.02,33.2 C6.00839112,33.1339204 6.00170607,33.0670699 6,33 C5.99654528,32.8688167 6.02394763,32.7386555 6.08,32.62 C6.13072915,32.4988607 6.20174734,32.3872607 6.29,32.29 C6.6910198,31.9199816 7.3089802,31.9199816 7.71,32.29 C7.79825266,32.3872607 7.86927085,32.4988607 7.92,32.62 C7.97124097,32.7402223 7.99842001,32.8693227 8,33 C7.99802571,33.2651121 7.89419577,33.5193164 7.71,33.71 C7.51825702,33.892565 7.26472686,33.9961196 7,34 Z" id="Shape" fill="#2C3E50"/><path d="M14,37 L14,39 L11,39 C10.4477153,39 10,38.5522847 10,38 C10,37.4477153 10.4477153,37 11,37 L14,37 Z" id="Shape" fill="#2C3E50"/><path d="M7,39 C6.73396466,39.0027011 6.47803835,38.8982118 6.28991326,38.7100867 C6.10178817,38.5219616 5.99729892,38.2660353 6,38 C5.99654528,37.8688167 6.02394763,37.7386555 6.08,37.62 C6.12832305,37.4976187 6.19960316,37.3856071 6.29,37.29 C6.6910198,36.9199816 7.3089802,36.9199816 7.71,37.29 C7.80039684,37.3856071 7.87167695,37.4976187 7.92,37.62 C7.97124097,37.7402223 7.99842001,37.8693227 8,38 C8.00270108,38.2660353 7.89821183,38.5219616 7.71008674,38.7100867 C7.52196165,38.8982118 7.26603534,39.0027011 7,39 Z" id="Shape" fill="#2C3E50"/><path d="M14,42 L14,44 L11,44 C10.4477153,44 10,43.5522847 10,43 C10,42.4477153 10.4477153,42 11,42 L14,42 Z" id="Shape" fill="#2C3E50"/><path d="M7,44 C6.73523302,43.9963165 6.48163379,43.8927337 6.29,43.71 C6.19960316,43.6143929 6.12832305,43.5023813 6.08,43.38 C6.02394763,43.2613445 5.99654528,43.1311833 6,43 C6,42.4477153 6.44771525,42 7,42 C7.55228475,42 8,42.4477153 8,43 C7.99842001,43.1306773 7.97124097,43.2597777 7.92,43.38 C7.87167695,43.5023813 7.80039684,43.6143929 7.71,43.71 C7.51825702,43.892565 7.26472686,43.9961196 7,44 Z" id="Shape" fill="#2C3E50"/><path d="M14,52 L14,54 L11,54 C10.4477153,54 10,53.5522847 10,53 C10,52.4477153 10.4477153,52 11,52 L14,52 Z" id="Shape" fill="#2C3E50"/><path d="M7,54 C6.73523302,53.9963165 6.48163379,53.8927337 6.29,53.71 C6.2469872,53.6624865 6.20691278,53.6123935 6.17,53.56 C6.13212275,53.5042729 6.10185535,53.4437381 6.08,53.38 C6.05111232,53.3233376 6.03088731,53.2626625 6.02,53.2 C6.00839112,53.1339204 6.00170607,53.0670699 6,53 C5.99654528,52.8688167 6.02394763,52.7386555 6.08,52.62 C6.13072915,52.4988607 6.20174734,52.3872607 6.29,52.29 C6.6910198,51.9199816 7.3089802,51.9199816 7.71,52.29 C7.79825266,52.3872607 7.86927085,52.4988607 7.92,52.62 C7.97124097,52.7402223 7.99842001,52.8693227 8,53 C7.99802571,53.2651121 7.89419577,53.5193164 7.71,53.71 C7.51825702,53.892565 7.26472686,53.9961196 7,54 Z" id="Shape" fill="#2C3E50"/><path d="M33.555,40.3 L28.483,43.681 C28.184805,43.8792053 27.8033946,43.9028528 27.483,43.743 L20.555,40.279 C20.2145253,40.1098145 19.9994415,39.7621926 20,39.382 L20,7 C20,3.13400675 23.1340068,8.8817842e-16 27,0 C30.8659932,2.22044605e-16 34,3.13400675 34,7 L34,39.465 C34.0010551,39.8003409 33.8339559,40.1138866 33.555,40.3 Z" id="Shape" fill="#D25627"/><path d="M33,40.67 L33,43.24 L28.48,46.26 C28.180125,46.4535902 27.8008711,46.4763455 27.48,46.32 L21,43.08 L21,40.51 L24.65,42.33 L27.48,43.74 C27.8000418,43.9004458 28.1814387,43.877562 28.48,43.68 L33,40.67 Z" id="Shape" fill="#7F8C8D"/><path d="M28.14,7 L28.14,39.46 C28.1392865,39.7974777 27.9705574,40.1124387 27.69,40.3 L24.65,42.33 L20.55,40.28 C20.2104962,40.1089345 19.9973543,39.7601569 20,39.38 L20,7 C19.9983394,4.2696035 21.588415,1.78877292 24.07,0.65 C24.8230883,0.989553208 25.507694,1.46403235 26.09,2.05 C27.4066613,3.36022375 28.1447808,5.14251233 28.14,7 Z" id="Shape" fill="#E57E25"/><path d="M27,21 C26.4477153,21 26,20.5522847 26,20 L26,13 C26,12.4477153 26.4477153,12 27,12 C27.5522847,12 28,12.4477153 28,13 L28,20 C28,20.5522847 27.5522847,21 27,21 Z" id="Shape" fill="#C03A2B"/><path d="M7,4 C5.34314575,4 4,5.34314575 4,7 C4,8.65685425 5.34314575,10 7,10 C8.65685425,10 10,8.65685425 10,7 C9.9950578,5.3451972 8.6548028,4.0049422 7,4 Z M7,8 C6.44771525,8 6,7.55228475 6,7 C6,6.44771525 6.44771525,6 7,6 C7.55228475,6 8,6.44771525 8,7 C8,7.55228475 7.55228475,8 7,8 Z" id="Shape" fill="#2C3E50"/><circle id="Oval" fill="#C03A2B" cx="27" cy="7" r="2"/><rect id="Rectangle-path" fill="#2C3E50" x="25" y="20" width="4" height="9" rx="2"/></g></g></svg>
