<?xml version="1.0" encoding="utf-8"?>
<!-- Generator: Adobe Illustrator 22.1.0, SVG Export Plug-In . SVG Version: 6.00 Build 0)  -->
<svg xmlns="http://www.w3.org/2000/svg" xmlns:xlink="http://www.w3.org/1999/xlink" version="1.1" id="Layer_1" x="0px" y="0px" viewBox="0 0 512 512" style="enable-background:new 0 0 512 512;" xml:space="preserve" width="512" height="512">
<style type="text/css">
	.st0{fill:#FFA730;}
	.st1{fill:#E58D23;}
	.st2{fill:#BF6C0D;}
	.st3{fill:#A56021;}
	.st4{fill:#FFD551;}
	.st5{fill:#FFF4C1;}
	.st6{fill:#FFC34C;}
	.st7{fill:#FFEA63;}
	.st8{fill:#FCE575;}
	.st9{fill:#FFB74B;}
	.st10{fill:#8C4C17;}
	.st11{fill:#F9BB32;}
	.st12{fill:#FF4B34;}
	.st13{fill:#FF9079;}
	.st14{fill:#FFDF74;}
	.st15{fill:#FF624B;}
	.st16{fill:#CCC033;}
	.st17{fill:#EACF32;}
	.st18{fill:#FFEACF;}
	.st19{fill:#99AF17;}
	.st20{fill:#FFD59A;}
	.st21{fill:#FCDA4F;}
	.st22{fill:#FCF9DE;}
	.st23{fill:#DB9C2E;}
</style>
<g>
	<g>
		<g>
			<path class="st8" d="M188.961,299.233c0,0,0.217-78.453-73.15-144.939c-3.718-3.369-9.38-3.369-13.098,0     c-73.367,66.486-73.15,144.939-73.15,144.939l0.237,0.018c-0.141,1.935-0.237,3.882-0.237,5.852     c0,44.017,35.683,79.699,79.699,79.699c44.017,0,79.7-35.683,79.7-79.699c0-1.971-0.096-3.918-0.237-5.852L188.961,299.233z"/>
		</g>
	</g>
	<g>
		<g>
			<path class="st4" d="M67.562,305.104c0-1.971,0.096-3.918,0.237-5.853l-0.237-0.018c0,0-0.185-69.298,60.699-132.83     c-3.897-4.066-8.037-8.109-12.451-12.108c-3.718-3.37-9.38-3.37-13.098,0c-73.367,66.485-73.15,144.938-73.15,144.938     l0.237,0.018c-0.141,1.935-0.237,3.882-0.237,5.853c0,44.017,35.683,79.699,79.699,79.699c6.55,0,12.909-0.808,19-2.298     C93.422,373.981,67.562,342.569,67.562,305.104z"/>
		</g>
	</g>
	<g>
		<g>
			<path class="st8" d="M256.948,120.913l-73.306-73.306l0.063-0.605l-64.223-6.675c-6.528-0.679-12.37,4.064-13.049,10.592v0     c-0.679,6.528,4.064,12.37,10.592,13.049l55.091,5.726l68.027,68.027L256.948,120.913z"/>
		</g>
	</g>
	<g>
		<g>
			<path class="st4" d="M126.924,54.067c-6.528-0.679-11.271-6.521-10.592-13.049c0.021-0.205,0.062-0.402,0.094-0.603     c-5.204,0.808-9.423,5.018-9.993,10.503c-0.679,6.528,4.064,12.37,10.592,13.049l55.091,5.726l68.027,68.027l9.899-9.899     l-68.027-68.027L126.924,54.067z"/>
		</g>
	</g>
	<g>
		<g>
			<path class="st10" d="M482.438,486.739c-8.284,0-15-6.716-15-15V370.002l-80.305-81.348c-5.82-5.896-5.759-15.393,0.137-21.213     c5.896-5.82,15.392-5.758,21.213,0.137l84.63,85.729c2.771,2.808,4.325,6.593,4.325,10.538v107.893     C497.438,480.023,490.722,486.739,482.438,486.739z"/>
		</g>
	</g>
	<g>
		<g>
			<path class="st17" d="M474.951,327.641l-27.619,27.619c-3.905,3.905-10.237,3.905-14.142,0l-23.339-23.339l41.761-41.761     l23.339,23.339C478.856,317.404,478.856,323.736,474.951,327.641z"/>
		</g>
	</g>
	<g>
		<g>
			<path class="st16" d="M453.696,334.754l-23.339-23.339l-20.506,20.506l23.339,23.339c3.905,3.905,10.237,3.905,14.142,0     l20.506-20.506C463.933,338.66,457.601,338.66,453.696,334.754z"/>
		</g>
	</g>
	<g>
		<g>
			<path class="st17" d="M256.475,178.546l-38.766-38.766c-3.124-3.124-3.124-8.19,0-11.314l29.593-29.593     c3.124-3.124,8.19-3.124,11.314,0l38.766,38.766L256.475,178.546z"/>
		</g>
	</g>
	<g>
		<g>
			<path class="st16" d="M239.426,106.75l-21.455,21.455c-3.269,3.269-3.269,8.568,0,11.837l38.504,38.504l21.455-21.455     l-38.504-38.504C236.157,115.318,236.157,110.019,239.426,106.75z"/>
		</g>
	</g>
	<g>
		<g>
			<path class="st0" d="M381.719,363.193c-2.303,0-4.606-0.879-6.364-2.636L330.6,315.801c-2.597-2.597-6.173-4.028-9.867-3.956     l-25.133,0.573c-4.97,0.1-9.089-3.823-9.203-8.792c-0.113-4.969,3.823-9.089,8.792-9.203l25.133-0.573     c8.544-0.193,16.948,3.166,23.004,9.223l44.756,44.756c3.515,3.515,3.515,9.213,0,12.728     C386.326,362.314,384.022,363.193,381.719,363.193z"/>
		</g>
	</g>
	<g>
		<g>
			<path class="st16" d="M271.489,199.948l-46.137,46.137l126.793,126.793c4.989,4.989,12.779,5.831,18.718,2.022l46.048-29.53     l41.761-41.761c7.029-7.029,7.029-18.427,0-25.456L325.978,145.459L271.489,199.948z M387.838,337.526     c2.71,2.71,2.222,7.232-1.004,9.301l-18.987,12.176c-2.97,1.904-6.864,1.484-9.359-1.011L246.581,246.086l24.908-24.908     L387.838,337.526z"/>
		</g>
	</g>
	<g>
		<g>
			<polygon class="st19" points="246.581,246.086 271.489,221.178 307.923,257.611 373.027,192.507 373.027,192.507      325.978,145.459 271.489,199.948 225.352,246.086 272.4,293.134 283.015,282.519    "/>
		</g>
	</g>
	<g>
		<g>
			<path class="st16" d="M351.717,116.72l-40.953-10.182l-11.853,11.853l-92.665,92.665c-4.397,4.397-4.397,11.525,0,15.922     l52.012,52.012l100.626-100.626l11.853-11.853l10.084-10.084c4.397-4.397,4.397-11.525,0-15.922l-16.867-16.867     C360.579,120.263,356.349,117.872,351.717,116.72z"/>
		</g>
	</g>
	<g>
		<g>
			<g>
				<path class="st19" d="M388.664,338.561c1.726,2.714,1.013,6.442-1.831,8.266l-18.987,12.176      c-2.97,1.904-6.864,1.484-9.359-1.011l-89.615-89.615l24.741-24.741l-32.906-32.906l-19.106-19.106      c-4.397-4.397-4.397-11.525,0-15.922l-35.355,35.355c-4.397,4.397-4.397,11.525,0,15.922l19.106,19.106l32.906,32.906      l93.887,93.887c4.989,4.989,12.779,5.831,18.718,2.022l46.048-29.53l35.355-35.355l-46.048,29.53      C400.722,343.07,393.644,342.604,388.664,338.561z"/>
			</g>
		</g>
	</g>
	<g>
		<g>
			<path class="st12" d="M124.893,273.358L124.893,273.358c-9.304,9.304-24.389,9.304-33.693,0l0,0     c-11.661-11.661-11.661-30.566,0-42.227l15.017-15.017c0.972-0.972,2.547-0.972,3.519,0l15.157,15.157     C136.515,242.894,136.515,261.736,124.893,273.358z"/>
		</g>
	</g>
	<g>
		<g>
			<path class="st19" d="M109.262,358.454L109.262,358.454c-2.538,0-4.596-2.057-4.596-4.596v-73.874h9.191v73.874     C113.857,356.397,111.8,358.454,109.262,358.454z"/>
		</g>
	</g>
	<g>
		<g>
			<path class="st17" d="M143.916,307.937c0.026-0.571-0.475-1.04-1.09-1.024c-22.729,0.562-28.849,10.749-28.849,10.749l0,0     c-1.434,1.98-2.263,4.365-2.242,6.925c0.055,6.789,6.06,12.243,13.412,12.183c0.371-0.003,0.738-0.021,1.102-0.051     C141.736,336.326,143.675,313.172,143.916,307.937z"/>
		</g>
	</g>
	<g>
		<g>
			<path class="st17" d="M75.067,294.822c-0.605-0.031-1.106,0.472-1.095,1.095c0.398,22.998,11.143,29.273,11.143,29.273h0     c2.087,1.467,4.607,2.326,7.321,2.326c7.196,0,13.03-6.029,13.03-13.467c0-0.376-0.016-0.747-0.045-1.115     C105.139,297.262,80.614,295.109,75.067,294.822z"/>
		</g>
	</g>
	<g>
		<g>
			<path class="st13" d="M115.012,279.227L115.012,279.227c-13.145,0.583-24.273-9.601-24.856-22.745l0,0     c-0.731-16.474,12.032-30.422,28.507-31.152l21.216-0.941c1.373-0.061,2.535,1.003,2.596,2.376l0.95,21.414     C144.152,264.597,131.431,278.498,115.012,279.227z"/>
		</g>
	</g>
	<g>
		<g>
			<path class="st15" d="M126.183,254.056L126.183,254.056c0.583,13.145-9.601,24.273-22.745,24.856h0     c-16.474,0.731-30.422-12.032-31.152-28.507l-0.941-21.216c-0.061-1.373,1.003-2.535,2.376-2.596l21.414-0.95     C111.554,224.915,125.455,237.636,126.183,254.056z"/>
		</g>
	</g>
	<g>
		<g>
			<path class="st16" d="M95.115,325.189c0,0-10.745-6.275-11.143-29.272c0-0.008,0.004-0.015,0.004-0.022     c-3.894-0.73-7.251-0.986-8.909-1.072c-0.605-0.031-1.106,0.472-1.095,1.095c0.398,22.997,11.143,29.272,11.143,29.272     c2.087,1.468,4.607,2.325,7.321,2.325c1.774,0,3.463-0.369,5.004-1.032C96.62,326.13,95.84,325.699,95.115,325.189z"/>
		</g>
	</g>
	<g>
		<g>
			<path class="st16" d="M119.734,330.587c-0.021-2.561,0.808-4.945,2.242-6.926c0,0,4.754-7.899,21.417-10.167     c0.337-2.423,0.47-4.416,0.522-5.557c0.026-0.571-0.475-1.04-1.09-1.024c-22.729,0.562-28.849,10.748-28.849,10.748     c-1.435,1.98-2.263,4.365-2.242,6.926c0.045,5.556,4.079,10.214,9.572,11.69C120.322,334.58,119.751,332.646,119.734,330.587z"/>
		</g>
	</g>
	<g>
		<g>
			<circle class="st19" cx="404.597" cy="315.5" r="15"/>
		</g>
	</g>
	<g>
		<g>
			<circle class="st19" cx="286.784" cy="204" r="15"/>
		</g>
	</g>
	<g>
		<g>
			<path class="st17" d="M368.25,154.324c-1.536,0-3.071-0.586-4.243-1.757l-16.588-16.588l-25.294-5.621     c-3.235-0.719-5.274-3.924-4.555-7.159c0.719-3.234,3.926-5.273,7.159-4.555l27,6c1.114,0.248,2.134,0.808,2.941,1.614     l17.824,17.824c2.343,2.343,2.343,6.142,0,8.485C371.321,153.738,369.785,154.324,368.25,154.324z"/>
		</g>
	</g>
	<g>
		<g>
			<path class="st17" d="M388.261,235.665c-1.536,0-3.071-0.586-4.243-1.757l-10.665-10.665c-2.343-2.343-2.343-6.142,0-8.485     c2.343-2.343,6.143-2.343,8.485,0l10.665,10.665c2.343,2.343,2.343,6.142,0,8.485     C391.333,235.079,389.797,235.665,388.261,235.665z"/>
		</g>
	</g>
	<g>
		<g>
			<path class="st17" d="M443.059,290.208c-1.536,0-3.071-0.586-4.243-1.757l-42.208-42.208c-2.343-2.343-2.343-6.142,0-8.485     c2.343-2.343,6.143-2.343,8.485,0l42.208,42.208c2.343,2.343,2.343,6.142,0,8.485     C446.13,289.622,444.595,290.208,443.059,290.208z"/>
		</g>
	</g>
	<g>
		<g>
			<path class="st5" d="M136.71,363.607c-2.315,0-4.52-1.347-5.503-3.605c-1.321-3.032,0.061-6.56,3.087-7.89     c1.371-0.609,33.117-15.165,31.235-54.173c-0.16-3.31,2.394-6.123,5.704-6.282c3.303-0.141,6.123,2.394,6.282,5.704     c1.194,24.767-9.261,41.313-18.243,50.833c-9.699,10.28-19.746,14.727-20.168,14.911     C138.323,363.446,137.51,363.607,136.71,363.607z"/>
		</g>
	</g>
</g>
</svg>
