<?xml version="1.0" encoding="utf-8"?>
<!-- Generator: Adobe Illustrator 22.1.0, SVG Export Plug-In . SVG Version: 6.00 Build 0)  -->
<svg xmlns="http://www.w3.org/2000/svg" xmlns:xlink="http://www.w3.org/1999/xlink" version="1.1" id="Layer_1" x="0px" y="0px" viewBox="0 0 512 512" style="enable-background:new 0 0 512 512;" xml:space="preserve" width="512" height="512">
<style type="text/css">
	.st0{fill:#FFA730;}
	.st1{fill:#E58D23;}
	.st2{fill:#BF6C0D;}
	.st3{fill:#A56021;}
	.st4{fill:#FFD551;}
	.st5{fill:#FFF4C1;}
	.st6{fill:#FFC34C;}
	.st7{fill:#FFEA63;}
	.st8{fill:#FCE575;}
	.st9{fill:#FFB74B;}
	.st10{fill:#8C4C17;}
	.st11{fill:#F9BB32;}
	.st12{fill:#FF4B34;}
	.st13{fill:#FF9079;}
	.st14{fill:#FFDF74;}
	.st15{fill:#FF624B;}
	.st16{fill:#CCC033;}
	.st17{fill:#EACF32;}
	.st18{fill:#FFEACF;}
	.st19{fill:#99AF17;}
	.st20{fill:#FFD59A;}
	.st21{fill:#FCDA4F;}
	.st22{fill:#FCF9DE;}
	.st23{fill:#DB9C2E;}
</style>
<g>
	<g>
		<g>
			<path class="st6" d="M449.54,422.605c-14.055,0-25.449-11.393-25.449-25.449v-62.368v-30.703v-97.979v-22.861V98.492     c0-30.118-24.416-54.534-54.534-54.534h-64.951h-19.72H196.59c-30.118,0-54.534,24.416-54.534,54.534v107.614h43.627v-93.071     c0-14.055,11.394-25.449,25.449-25.449h73.753h19.72h50.408c14.055,0,25.449,11.394,25.449,25.449v70.211v22.861v97.979v30.703     v76.911c0,30.118,24.416,54.534,54.534,54.534h41.505v-43.628H449.54z"/>
		</g>
	</g>
	<g>
		<g>
			<g>
				<path class="st9" d="M470.246,432.466h6.256v-9.86h-26.365C454.793,428.602,462.066,432.466,470.246,432.466z"/>
			</g>
		</g>
		<g>
			<g>
				<path class="st9" d="M162.762,108.353c0-30.118,24.416-54.534,54.534-54.534h88.295h19.72h64.951      c4.322,0,8.52,0.518,12.551,1.467c-9.206-7.097-20.735-11.328-33.258-11.328h-64.951h-19.72H196.59      c-30.118,0-54.534,24.416-54.534,54.534v107.613h20.707V108.353z"/>
			</g>
		</g>
	</g>
	<g>
		<g>
			<path class="st3" d="M211.704,175.415h-96.637v-32.447c0-4.418,3.582-8,8-8h80.637c4.418,0,8,3.582,8,8V175.415z"/>
		</g>
	</g>
	<g>
		<g>
			<path class="st15" d="M368.941,204.936V193.85c0-2.761,2.239-5,5-5h56.671c2.761,0,5,2.239,5,5v11.087c0,2.761-2.239,5-5,5     h-56.671C371.18,209.936,368.941,207.698,368.941,204.936z"/>
		</g>
	</g>
	<g>
		<g>
			<path class="st15" d="M368.941,324.184v-11.087c0-2.761,2.239-5,5-5h56.671c2.761,0,5,2.239,5,5v11.087c0,2.761-2.239,5-5,5     h-56.671C371.18,329.184,368.941,326.946,368.941,324.184z"/>
		</g>
	</g>
	<g>
		<g>
			<path class="st15" d="M461.099,412.174h11.087c2.761,0,5,2.239,5,5v56.671c0,2.761-2.239,5-5,5h-11.087c-2.761,0-5-2.239-5-5     v-56.671C456.099,414.412,458.337,412.174,461.099,412.174z"/>
		</g>
	</g>
	<g>
		<g>
			
				<rect x="414.794" y="247.189" transform="matrix(-1.836970e-16 1 -1 -1.836970e-16 688.5702 -167.6048)" class="st3" width="26.588" height="26.588"/>
		</g>
	</g>
	<g>
		<g>
			
				<rect x="444.875" y="251.851" transform="matrix(-1.836970e-16 1 -1 -1.836970e-16 713.9892 -193.0238)" class="st2" width="17.263" height="17.263"/>
		</g>
	</g>
	<g>
		<g>
			<path class="st1" d="M459.013,271.137v-21.309c0-2.209,1.791-4,4-4h3.177c2.209,0,4,1.791,4,4v21.309c0,2.209-1.791,4-4,4h-3.177     C460.804,275.137,459.013,273.346,459.013,271.137z"/>
		</g>
	</g>
	<g>
		<g>
			<path class="st15" d="M470.19,290.853v-60.74c0-3.577,2.9-6.477,6.477-6.477l0,0c3.577,0,6.477,2.9,6.477,6.477v60.74     c0,3.577-2.9,6.477-6.477,6.477l0,0C473.089,297.329,470.19,294.43,470.19,290.853z"/>
		</g>
	</g>
	<g>
		<g>
			<path class="st1" d="M97.933,470.207H79.36c-2.761,0-5-2.239-5-5v-94.172h28.573v94.172     C102.933,467.968,100.694,470.207,97.933,470.207z"/>
		</g>
	</g>
	<g>
		<g>
			<path class="st1" d="M245.431,470.207h-18.573c-2.761,0-5-2.239-5-5v-94.172h28.573v94.172     C250.431,467.968,248.193,470.207,245.431,470.207z"/>
		</g>
	</g>
	<g>
		<g>
			<path class="st15" d="M238.853,99.826h-11.087c-2.761,0-5-2.239-5-5V38.155c0-2.761,2.239-5,5-5h11.087c2.761,0,5,2.239,5,5     v56.671C243.853,97.588,241.614,99.826,238.853,99.826z"/>
		</g>
	</g>
	<g>
		<g>
			<path class="st15" d="M338.38,99.826h-11.087c-2.761,0-5-2.239-5-5V38.155c0-2.761,2.239-5,5-5h11.087c2.761,0,5,2.239,5,5     v56.671C343.38,97.588,341.141,99.826,338.38,99.826z"/>
		</g>
	</g>
	<g>
		<g>
			<path class="st1" d="M423.088,292.688H378.83c-2.761,0-5-2.239-5-5v-55.487c0-2.761,2.239-5,5-5h44.258c2.761,0,5,2.239,5,5     v55.487C428.088,290.449,425.849,292.688,423.088,292.688z"/>
		</g>
	</g>
	<g>
		<g>
			<path class="st10" d="M162.396,134.967h-39.441c-4.357,0-7.888,3.532-7.888,7.888v32.559h39.441v-32.559     C154.508,138.499,158.039,134.967,162.396,134.967z"/>
		</g>
	</g>
	<g>
		<g>
			<path class="st2" d="M91.123,465.277v-94.242H74.36v94.242c0,2.722,2.207,4.93,4.93,4.93h16.762     C93.33,470.207,91.123,467.999,91.123,465.277z"/>
		</g>
	</g>
	<g>
		<g>
			<path class="st2" d="M238.621,465.277v-94.242h-16.762v94.242c0,2.722,2.207,4.93,4.93,4.93h16.762     C240.828,470.207,238.621,467.999,238.621,465.277z"/>
		</g>
	</g>
	<g>
		<g>
			<path class="st2" d="M74.36,403.651c8.614,7.611,18.208,14.135,28.573,19.356v-51.973H74.36V403.651z"/>
		</g>
	</g>
	<g>
		<g>
			<path class="st2" d="M221.859,423.992c10.33-4.994,19.92-11.275,28.573-18.626v-34.332h-28.573V423.992z"/>
		</g>
	</g>
	<g>
		<g>
			<circle class="st2" cx="163.385" cy="290.971" r="134.529"/>
		</g>
	</g>
	<g>
		<g>
			<path class="st3" d="M78.158,290.971c0-65.877,47.354-120.687,109.878-132.267c-7.992-1.48-16.23-2.262-24.651-2.262     c-74.298,0-134.529,60.23-134.529,134.529S89.087,425.5,163.385,425.5c8.421,0,16.658-0.782,24.651-2.262     C125.512,411.659,78.158,356.848,78.158,290.971z"/>
		</g>
	</g>
	<g>
		<g>
			<path class="st12" d="M234.598,94.896V38.085c0-2.619,2.048-4.739,4.627-4.899c-0.102-0.006-0.199-0.031-0.303-0.031h-11.226     c-2.723,0-4.93,2.208-4.93,4.93v56.811c0,2.723,2.207,4.93,4.93,4.93h11.226c0.104,0,0.201-0.024,0.303-0.031     C236.647,99.636,234.598,97.515,234.598,94.896z"/>
		</g>
	</g>
	<g>
		<g>
			<path class="st12" d="M334.126,94.896V38.085c0-2.619,2.048-4.739,4.627-4.899c-0.102-0.006-0.199-0.031-0.303-0.031h-11.226     c-2.723,0-4.93,2.208-4.93,4.93v56.811c0,2.723,2.207,4.93,4.93,4.93h11.226c0.104,0,0.201-0.024,0.303-0.031     C336.174,99.636,334.126,97.515,334.126,94.896z"/>
		</g>
	</g>
	<g>
		<g>
			<path class="st12" d="M398.522,205.006V193.78c0-2.723,2.207-4.93,4.93-4.93h-29.581c-2.723,0-4.93,2.207-4.93,4.93v11.226     c0,2.723,2.207,4.93,4.93,4.93h29.581C400.729,209.936,398.522,207.729,398.522,205.006z"/>
		</g>
	</g>
	<g>
		<g>
			<path class="st12" d="M398.522,324.254v-11.227c0-2.723,2.207-4.93,4.93-4.93h-29.581c-2.723,0-4.93,2.207-4.93,4.93v11.227     c0,2.723,2.207,4.93,4.93,4.93h29.581C400.729,329.184,398.522,326.977,398.522,324.254z"/>
		</g>
	</g>
	<g>
		<g>
			<path class="st12" d="M467.931,473.915v-56.811c0-2.619,2.048-4.74,4.627-4.9c-0.102-0.006-0.199-0.03-0.303-0.03h-11.226     c-2.723,0-4.93,2.207-4.93,4.93v56.811c0,2.722,2.207,4.93,4.93,4.93h11.226c0.104,0,0.201-0.025,0.303-0.031     C469.979,478.655,467.931,476.534,467.931,473.915z"/>
		</g>
	</g>
	<g>
		<g>
			<path class="st12" d="M478.078,290.853v-60.74c0-2.091,0.995-3.945,2.533-5.129c-1.093-0.842-2.458-1.348-3.944-1.348l0,0     c-3.577,0-6.477,2.9-6.477,6.478v60.74c0,3.577,2.9,6.477,6.477,6.477l0,0c1.486,0,2.851-0.506,3.944-1.347     C479.073,294.798,478.078,292.943,478.078,290.853z"/>
		</g>
	</g>
	<g>
		<g>
			<path class="st2" d="M394.536,287.758V232.13c0-2.722,2.207-4.93,4.93-4.93H378.76c-2.723,0-4.93,2.208-4.93,4.93v55.628     c0,2.722,2.207,4.93,4.93,4.93h20.706C396.744,292.688,394.536,290.48,394.536,287.758z"/>
		</g>
	</g>
	<g>
		<g>
			<path class="st0" d="M436.361,276.301v-31.636c0-2.209,1.791-4,4-4h3.177c2.209,0,4,1.791,4,4v31.636c0,2.209-1.791,4-4,4h-3.177     C438.151,280.301,436.361,278.51,436.361,276.301z"/>
		</g>
	</g>
	<g>
		<g>
			<path class="st3" d="M464.929,271.193v-21.421c0-1.715,1.102-3.159,2.63-3.702c-0.413-0.146-0.851-0.242-1.314-0.242h-3.289     c-2.178,0-3.944,1.766-3.944,3.944v21.421c0,2.178,1.766,3.944,3.944,3.944h3.289c0.463,0,0.901-0.094,1.314-0.241     C466.031,274.353,464.929,272.908,464.929,271.193z"/>
		</g>
	</g>
	<g>
		<g>
			<path class="st1" d="M442.277,276.357v-31.748c0-1.715,1.101-3.16,2.63-3.703c-0.413-0.146-0.851-0.241-1.314-0.241h-3.289     c-2.178,0-3.944,1.766-3.944,3.944v31.748c0,2.178,1.766,3.944,3.944,3.944h3.289c0.463,0,0.901-0.095,1.314-0.242     C443.378,279.516,442.277,278.072,442.277,276.357z"/>
		</g>
	</g>
	<g>
		<g>
			<circle class="st3" cx="168.977" cy="188.85" r="15"/>
		</g>
	</g>
	<g>
		<g>
			<circle class="st3" cx="130.067" cy="223.635" r="15"/>
		</g>
	</g>
	<g>
		<g>
			<path class="st1" d="M185.327,399.838c-2.787,0-5.286-1.953-5.87-4.79c-0.668-3.244,1.417-6.415,4.66-7.086     c0.687-0.146,49.978-11.014,69.721-56.053c1.33-3.036,4.871-4.417,7.904-3.086c3.035,1.33,4.417,4.869,3.086,7.904     c-22.322,50.923-76.01,62.519-78.284,62.988C186.136,399.797,185.729,399.838,185.327,399.838z"/>
		</g>
	</g>
	<g>
		<g>
			<path class="st0" d="M417.667,281.137c-3.313,0-6-2.687-6-6v-34.472c0-3.313,2.687-6,6-6s6,2.687,6,6v34.472     C423.667,278.45,420.98,281.137,417.667,281.137z"/>
		</g>
	</g>
	<g>
		<g>
			<path class="st4" d="M410.793,153.317c-3.313,0-6-2.687-6-6V98.354c-2.438-19.01-16.628-22.883-17.234-23.04     c-3.224-0.766-5.189-3.993-4.424-7.217c0.766-3.225,4.027-5.213,7.251-4.444c0.939,0.223,23.032,5.781,26.365,33.618     c0.028,0.237,0.042,0.475,0.042,0.713v49.333C416.793,150.63,414.107,153.317,410.793,153.317z"/>
		</g>
	</g>
	<g>
		<g>
			<path class="st4" d="M436.399,438.913c-7.015,0-13.045-2.185-17.959-6.513c-10.66-9.389-11.604-25.572-11.639-26.257     c-0.005-0.102-0.008-0.204-0.008-0.306V355.65c0-3.313,2.687-6,6-6s6,2.687,6,6v49.989c0.094,1.207,1.113,12.098,7.615,17.787     c3.048,2.667,6.897,3.783,11.772,3.417c3.304-0.251,6.186,2.226,6.436,5.53c0.25,3.304-2.226,6.186-5.53,6.436     C438.176,438.878,437.279,438.913,436.399,438.913z"/>
		</g>
	</g>
</g>
</svg>
