<?xml version="1.0" encoding="utf-8"?>
<!-- Generator: Adobe Illustrator 22.1.0, SVG Export Plug-In . SVG Version: 6.00 Build 0)  -->
<svg xmlns="http://www.w3.org/2000/svg" xmlns:xlink="http://www.w3.org/1999/xlink" version="1.1" id="Layer_1" x="0px" y="0px" viewBox="0 0 512 512" style="enable-background:new 0 0 512 512;" xml:space="preserve" width="512" height="512">
<style type="text/css">
	.st0{fill:#FFA730;}
	.st1{fill:#E58D23;}
	.st2{fill:#BF6C0D;}
	.st3{fill:#A56021;}
	.st4{fill:#FFD551;}
	.st5{fill:#FFF4C1;}
	.st6{fill:#FFC34C;}
	.st7{fill:#FFEA63;}
	.st8{fill:#FCE575;}
	.st9{fill:#FFB74B;}
	.st10{fill:#8C4C17;}
	.st11{fill:#F9BB32;}
	.st12{fill:#FF4B34;}
	.st13{fill:#FF9079;}
	.st14{fill:#FFDF74;}
	.st15{fill:#FF624B;}
	.st16{fill:#CCC033;}
	.st17{fill:#EACF32;}
	.st18{fill:#FFEACF;}
	.st19{fill:#99AF17;}
	.st20{fill:#FFD59A;}
	.st21{fill:#FCDA4F;}
	.st22{fill:#FCF9DE;}
	.st23{fill:#DB9C2E;}
</style>
<g>
	<g>
		<g>
			<path class="st16" d="M256.778,70.128C155.6,70.128,73.58,152.148,73.58,253.326c0,101.177,82.021,183.197,183.198,183.197     s183.198-82.021,183.198-183.197C439.976,152.148,357.955,70.128,256.778,70.128z M256.778,416.523     c-89.987,0-163.198-73.21-163.198-163.197c0-89.988,73.21-163.198,163.198-163.198c89.988,0,163.198,73.21,163.198,163.198     C419.976,343.313,346.766,416.523,256.778,416.523z"/>
		</g>
	</g>
	<g>
		<g>
			<g>
				<path class="st19" d="M93.58,253.326c0-97.822,76.672-177.73,173.198-182.924c-3.311-0.178-6.644-0.274-10-0.274      C155.6,70.128,73.58,152.148,73.58,253.326c0,101.177,82.021,183.197,183.198,183.197c3.356,0,6.689-0.097,10-0.274      C170.252,431.056,93.58,351.147,93.58,253.326z"/>
			</g>
		</g>
	</g>
	<g>
		<g>
			<path class="st4" d="M211.637,273.24c0,0,0.165-44.447,41.975-81.844c2.119-1.895,5.327-1.874,7.421,0.048     c41.321,37.936,40.909,82.381,40.909,82.381l-0.134,0.009c0.073,1.097,0.12,2.2,0.113,3.316     c-0.162,24.937-20.508,45.021-45.445,44.859c-24.937-0.162-45.021-20.508-44.859-45.445c0.007-1.116,0.069-2.219,0.156-3.315     L211.637,273.24z"/>
		</g>
	</g>
	<g>
		<g>
			<path class="st6" d="M237.859,276.736c0.007-1.116,0.069-2.219,0.156-3.315l-0.134-0.011c0,0,0.165-37.431,32.502-72.495     c-2.859-3.182-5.95-6.349-9.351-9.471c-2.094-1.923-5.302-1.943-7.421-0.048c-41.809,37.397-41.975,81.844-41.975,81.844     l0.134,0.011c-0.087,1.095-0.148,2.198-0.156,3.315c-0.162,24.937,19.923,45.283,44.859,45.445     c4.565,0.03,8.973-0.626,13.135-1.858C251.11,314.41,237.727,297.108,237.859,276.736z"/>
		</g>
	</g>
	<g>
		<g>
			<circle class="st11" cx="100.885" cy="256.994" r="69.259"/>
		</g>
	</g>
	<g>
		<g>
			<path class="st23" d="M61.398,256.994c0-33.14,23.277-60.838,54.373-67.65c-4.796-1.05-9.775-1.609-14.887-1.609     c-38.251,0-69.259,31.008-69.259,69.259c0,38.251,31.008,69.259,69.259,69.259c5.111,0,10.091-0.559,14.887-1.609     C84.676,317.832,61.398,290.134,61.398,256.994z"/>
		</g>
	</g>
	<g>
		<g>
			
				<ellipse transform="matrix(0.1602 -0.9871 0.9871 0.1602 -168.9508 315.4101)" class="st14" cx="100.885" cy="256.994" rx="61.816" ry="61.816"/>
		</g>
	</g>
	<g>
		<g>
			<path class="st4" d="M99.329,195.218c-33.367,0.831-60.26,28.212-60.26,61.776c0,33.564,26.893,60.946,60.26,61.776     c-22.507-11.435-37.93-34.802-37.93-61.776C61.398,230.019,76.822,206.652,99.329,195.218z"/>
		</g>
	</g>
	<g>
		<g>
			<circle class="st11" cx="257.614" cy="412.338" r="69.259"/>
		</g>
	</g>
	<g>
		<g>
			<path class="st23" d="M218.127,412.337c0-33.14,23.277-60.838,54.373-67.65c-4.796-1.05-9.775-1.609-14.887-1.609     c-38.251,0-69.259,31.008-69.259,69.259c0,38.251,31.008,69.259,69.259,69.259c5.111,0,10.091-0.559,14.887-1.609     C241.405,473.176,218.127,445.477,218.127,412.337z"/>
		</g>
	</g>
	<g>
		<g>
			
				<ellipse transform="matrix(0.1602 -0.9871 0.9871 0.1602 -190.6647 600.5754)" class="st14" cx="257.614" cy="412.337" rx="61.816" ry="61.816"/>
		</g>
	</g>
	<g>
		<g>
			<path class="st4" d="M256.058,350.561c-33.367,0.831-60.26,28.212-60.26,61.776c0,33.564,26.893,60.946,60.26,61.776     c-22.507-11.435-37.93-34.802-37.93-61.776S233.551,361.996,256.058,350.561z"/>
		</g>
	</g>
	<g>
		<g>
			<circle class="st11" cx="411.115" cy="255.634" r="69.259"/>
		</g>
	</g>
	<g>
		<g>
			<path class="st23" d="M371.629,255.633c0-33.14,23.277-60.838,54.373-67.65c-4.796-1.05-9.775-1.609-14.887-1.609     c-38.251,0-69.259,31.008-69.259,69.259c0,38.251,31.008,69.259,69.259,69.259c5.111,0,10.091-0.559,14.887-1.609     C394.907,316.472,371.629,288.773,371.629,255.633z"/>
		</g>
	</g>
	<g>
		<g>
			
				<ellipse transform="matrix(0.1602 -0.9871 0.9871 0.1602 92.9294 620.4924)" class="st14" cx="411.115" cy="255.633" rx="61.816" ry="61.816"/>
		</g>
	</g>
	<g>
		<g>
			<path class="st4" d="M409.56,193.857c-33.367,0.831-60.26,28.212-60.26,61.776c0,33.564,26.893,60.946,60.26,61.776     c-22.507-11.435-37.93-34.802-37.93-61.776S387.053,205.292,409.56,193.857z"/>
		</g>
	</g>
	<g>
		<g>
			<circle class="st11" cx="256.643" cy="99.662" r="69.259"/>
		</g>
	</g>
	<g>
		<g>
			<path class="st23" d="M217.157,99.662c0-33.14,23.277-60.838,54.373-67.65c-4.796-1.05-9.775-1.609-14.887-1.609     c-38.251,0-69.259,31.008-69.259,69.259c0,38.251,31.008,69.259,69.259,69.259c5.111,0,10.091-0.559,14.887-1.609     C240.435,160.501,217.157,132.802,217.157,99.662z"/>
		</g>
	</g>
	<g>
		<g>
			
				<ellipse transform="matrix(0.1602 -0.9871 0.9871 0.1602 117.1583 337.0276)" class="st14" cx="256.643" cy="99.662" rx="61.816" ry="61.816"/>
		</g>
	</g>
	<g>
		<g>
			<g>
				<path class="st23" d="M252.14,130.927c-8.771-1.452-15.235-6.255-16.75-13.92c-0.366-1.853,1.096-3.571,2.985-3.571h5.426      c1.38,0,2.643,0.89,2.999,2.224c0.503,1.881,1.463,3.477,2.912,4.675c1.955,1.616,4.919,0.162,4.919-2.374v-13.636      c0-1.381-0.934-2.584-2.271-2.931c-8.642-2.245-17.309-5.427-17.309-17.512c0-9.685,6.898-16.564,17.123-18.328      c1.431-0.247,2.457-1.522,2.457-2.975v-1.96c0-1.673,1.357-3.03,3.03-3.03l0,0c1.673,0,3.03,1.357,3.03,3.03v1.86      c0,1.467,1.05,2.734,2.496,2.979c8.081,1.368,13.825,5.851,15.731,13.309c0.483,1.89-1.001,3.716-2.952,3.716h-5.396      c-1.291,0-2.448-0.815-2.858-2.038c-0.375-1.119-0.966-2.173-1.76-3.097c-1.799-2.095-5.261-0.711-5.261,2.051v12.547      c0,1.391,0.948,2.6,2.297,2.938c8.62,2.161,17.189,5.27,17.189,17.341c0,8.437-6.005,16.631-17.03,18.601      c-1.428,0.255-2.455,1.521-2.455,2.972v1.969c0,1.673-1.357,3.03-3.03,3.03l0,0c-1.673,0-3.03-1.357-3.03-3.03v-1.858      C254.631,132.441,253.585,131.166,252.14,130.927z M254.631,88.14V77.998c0-2.327-2.53-3.81-4.538-2.635      c-2.605,1.525-4.227,4.159-4.227,7.957c0,3.519,1.58,5.775,4.071,7.358C251.97,91.97,254.631,90.549,254.631,88.14z       M260.691,108.119v10.013c0,2.427,2.727,3.89,4.728,2.517c2.616-1.795,4.036-4.622,4.036-7.867c0-3.471-1.591-5.669-4.097-7.218      C263.321,104.306,260.691,105.725,260.691,108.119z"/>
			</g>
		</g>
	</g>
	<g>
		<g>
			<path class="st4" d="M255.088,37.886c-33.367,0.831-60.26,28.212-60.26,61.776c0,33.564,26.893,60.946,60.26,61.776     c-22.507-11.435-37.93-34.802-37.93-61.776S232.581,49.321,255.088,37.886z"/>
		</g>
	</g>
	<g>
		<g>
			<path class="st23" d="M412.893,273.185c-1.183,0-1.889-1.299-1.26-2.301c1.048-1.668,1.821-3.471,2.315-5.4     c0.576-2.305,0.668-4.696,0.583-7.049c-0.03-0.848,0.648-1.551,1.496-1.551h8.637c0.829,0,1.5-0.672,1.5-1.5v-5.477     c0-0.829-0.672-1.5-1.5-1.5h-10.011c-0.735,0-1.361-0.531-1.482-1.255c-0.327-1.966-0.57-4.019-0.57-6.548     c0-4.273,1.399-9.367,8.063-9.367c3.488,0,5.737,0.843,7.01,1.55l0,0c0.836,0.464,1.887,0.039,2.164-0.876l2.074-6.842     l-0.981-0.606c-1.447-0.896-4.706-2.398-10.267-2.398c-10.712,0-18.193,7.589-18.193,18.454c0,2.098,0.188,4.181,0.455,6.201     c0.119,0.897-0.581,1.69-1.486,1.69h-4.598c-0.829,0-1.5,0.672-1.5,1.5v5.477c0,0.829,0.672,1.5,1.5,1.5h6.284     c0.785,0,1.44,0.609,1.5,1.391c0.083,1.081,0.105,2.092,0.105,3.195c0,5.715-3.483,11.032-9.09,13.877l-0.821,0.417v5.268     c0,0.829,0.672,1.5,1.5,1.5h36.081c0.829,0,1.5-0.672,1.5-1.5v-6.346c0-0.829-0.672-1.5-1.5-1.5H412.893z"/>
		</g>
	</g>
	<g>
		<g>
			<path class="st23" d="M117.117,269.074c-2.88,5.449-7.984,8.33-14.759,8.33c-6.873,0-12.571-2.995-15.975-8.303h17.475v-9.782     H83.265c-0.065-0.753-0.099-1.531-0.099-2.325c0-0.782,0.034-1.568,0.099-2.325h20.593v-9.782H86.373     c3.356-5.253,9.057-8.216,15.985-8.216c6.775,0,11.878,2.881,14.759,8.331l0.422,0.799h15.009l-0.797-2.045     c-4.667-11.977-15.655-19.127-29.394-19.127c-13.782,0-25.51,7.915-30.181,20.258h-8.444v9.782h6.333     c-0.043,0.766-0.073,1.547-0.073,2.325c0,0.787,0.029,1.557,0.072,2.325h-6.332v9.782h8.442     c4.643,12.344,16.372,20.258,30.183,20.258c13.76,0,24.748-7.117,29.394-19.039l0.797-2.045h-15.009L117.117,269.074z"/>
		</g>
	</g>
	<g>
		<g>
			<polygon class="st23" points="284.833,383.759 270.283,383.759 257.323,411.219 244.362,383.759 229.899,383.759      243.462,409.843 233.565,409.843 233.565,419.954 248.847,420.135 250.955,424.146 250.955,424.884 233.565,424.884      233.565,435.014 250.955,435.014 250.955,447.186 263.866,447.186 263.866,435.014 281.255,435.014 281.255,424.884      263.866,424.884 263.866,424.146 265.973,420.135 281.255,419.954 281.255,409.843 271.271,409.843    "/>
		</g>
	</g>
	<g>
		<g>
			<circle class="st6" cx="270.383" cy="234.75" r="15"/>
		</g>
	</g>
	<g>
		<g>
			<path class="st14" d="M266.77,310.248c-3.007,0-5.601-2.256-5.953-5.315c-0.377-3.277,1.962-6.24,5.229-6.641     c1.852-0.25,17.731-3.05,17.731-25.492c0-3.313,2.687-6,6-6s6,2.687,6,6c0,27.013-18.521,36.281-28.314,37.407     C267.23,310.235,266.999,310.248,266.77,310.248z"/>
		</g>
	</g>
	<g>
		<g>
			<path class="st5" d="M107.775,313.249c-2.606,0-5.005-1.71-5.762-4.34c-0.917-3.182,0.917-6.504,4.097-7.425     c0.417-0.123,27.005-8.136,32.933-27.444c0.972-3.168,4.33-4.95,7.497-3.975c3.168,0.973,4.948,4.329,3.975,7.497     c-7.863,25.611-39.722,35.062-41.074,35.451C108.885,313.173,108.325,313.249,107.775,313.249z"/>
		</g>
	</g>
	<g>
		<g>
			<path class="st5" d="M262.774,157.249c-2.605,0-5.005-1.71-5.763-4.34c-0.917-3.182,0.918-6.504,4.098-7.425     c0.416-0.123,27.004-8.136,32.933-27.444c0.972-3.167,4.326-4.946,7.496-3.975c3.168,0.973,4.947,4.329,3.975,7.497     c-7.862,25.611-39.722,35.062-41.074,35.451C263.884,157.173,263.324,157.249,262.774,157.249z"/>
		</g>
	</g>
	<g>
		<g>
			<path class="st5" d="M419.774,310.249c-2.605,0-5.005-1.71-5.763-4.34c-0.917-3.182,0.918-6.504,4.098-7.425     c0.416-0.123,27.004-8.136,32.933-27.444c0.973-3.167,4.327-4.947,7.496-3.975c3.168,0.973,4.947,4.329,3.975,7.497     c-7.862,25.611-39.722,35.062-41.074,35.451C420.884,310.173,420.324,310.249,419.774,310.249z"/>
		</g>
	</g>
	<g>
		<g>
			<path class="st5" d="M266.33,467.432c-2.605,0-5.005-1.71-5.763-4.34c-0.917-3.182,0.918-6.504,4.098-7.425     c0.416-0.123,27.004-8.135,32.933-27.444c0.972-3.167,4.326-4.946,7.496-3.975c3.168,0.973,4.947,4.329,3.975,7.497     c-7.862,25.611-39.722,35.062-41.074,35.451C267.439,467.356,266.88,467.432,266.33,467.432z"/>
		</g>
	</g>
</g>
</svg>
