<?xml version="1.0" encoding="utf-8"?>
<!-- Generator: Adobe Illustrator 22.1.0, SVG Export Plug-In . SVG Version: 6.00 Build 0)  -->
<svg xmlns="http://www.w3.org/2000/svg" xmlns:xlink="http://www.w3.org/1999/xlink" version="1.1" id="Layer_1" x="0px" y="0px" viewBox="0 0 512 512" style="enable-background:new 0 0 512 512;" xml:space="preserve" width="512" height="512">
<style type="text/css">
	.st0{fill:#BF6C0D;}
	.st1{fill:#A56021;}
	.st2{fill:#8C4C17;}
	.st3{fill:#FFA730;}
	.st4{fill:#E58D23;}
	.st5{fill:#FFC34C;}
	.st6{fill:#FFDF74;}
	.st7{fill:#FFB74B;}
	.st8{fill:#FFD551;}
	.st9{fill:#F9BB32;}
	.st10{fill:#DB9C2E;}
	.st11{fill:#FCE575;}
	.st12{fill:#FFF4C1;}
	.st13{fill:#EACF32;}
	.st14{fill:#CCC033;}
	.st15{fill:#99AF17;}
	.st16{fill:#FF624B;}
	.st17{fill:#FF4B34;}
</style>
<g>
	<g>
		<path class="st9" d="M470.574,207.417h-51.59c2.829,9.505,0,0,0,0c-0.127-0.426-0.266-0.846-0.396-1.27h0.012    c-0.144-0.472-0.303-0.941-0.451-1.411c-0.224-0.711-0.448-1.423-0.681-2.13c-0.238-0.722-0.488-1.441-0.736-2.16    c-0.224-0.65-0.446-1.301-0.679-1.947c-0.263-0.735-0.538-1.464-0.812-2.196c-0.239-0.638-0.476-1.277-0.722-1.911    c-0.274-0.705-0.559-1.407-0.843-2.11c-0.266-0.659-0.531-1.318-0.805-1.973c-0.278-0.665-0.568-1.326-0.855-1.988    c-0.297-0.684-0.592-1.369-0.897-2.048c-0.286-0.635-0.582-1.267-0.876-1.899c-0.322-0.692-0.643-1.386-0.974-2.073    c-0.304-0.632-0.619-1.261-0.931-1.889c-0.333-0.67-0.664-1.339-1.005-2.004c-0.348-0.678-0.707-1.352-1.064-2.026    c-0.225-0.424-0.441-0.853-0.669-1.274l-0.008,0.008c-0.211-0.39-0.412-0.784-0.627-1.173c-1.929-3.497-1.928-3.497,0,0    l36.193-36.762c6.275-6.374,6.195-16.627-0.179-22.902l-46.16-45.445c-6.374-6.275-16.626-6.195-22.901,0.178l-36.193,36.763    c3.528,1.873,3.528,1.874,0,0c-0.409-0.217-2.658-1.376-3.376-1.738c-0.568-0.286-3.197-1.568-3.947-1.921    c-0.583-0.275-3.218-1.476-3.955-1.8c-0.632-0.278-13.642-5.305-14.425-5.567c-0.604-0.202-1.208-0.406-1.816-0.601    c-0.763-0.246-1.529-0.481-2.296-0.716c-0.443-0.136-1.815-0.559-1.327-0.414V41.427c0-8.423-6.431-15.338-14.649-16.116    c-1.081-0.219-2.2-0.333-3.347-0.324l-31.496,0.246h-31.479c-1.147,0-2.265,0.123-3.344,0.35    c-8.212,0.843-14.588,7.807-14.522,16.23l0.402,51.588c-0.445,0.136-0.886,0.287-1.33,0.426c-0.755,0.238-1.511,0.475-2.261,0.723    c-0.697,0.23-1.391,0.471-2.085,0.711c-0.684,0.236-1.368,0.47-2.047,0.715c-0.715,0.256-1.428,0.524-2.14,0.791    c-0.664,0.249-1.329,0.497-1.99,0.754c-0.703,0.274-1.403,0.558-2.103,0.84c-0.667,0.27-1.335,0.54-1.998,0.819    c-0.679,0.285-1.356,0.579-2.032,0.874c-0.678,0.294-1.355,0.59-2.028,0.893c-0.661,0.298-1.319,0.605-1.977,0.911    c-0.675,0.315-1.35,0.631-2.021,0.955c-0.662,0.319-1.32,0.647-1.979,0.975c-0.648,0.324-1.294,0.647-1.937,0.979    c-0.693,0.357-1.383,0.721-2.072,1.088c-0.345,0.184-0.696,0.36-1.04,0.546l-36.48-36.479c-5.955-5.955-15.391-6.298-21.753-1.039    c-0.92,0.611-1.792,1.321-2.597,2.139L92.19,93.455l-22.27,22.269c-0.811,0.811-1.515,1.689-2.118,2.613    c-5.21,6.402-4.793,15.836,1.208,21.745l36.763,36.193c0.04-0.076,0.075-0.141,0.113-0.214c-0.071,0.134-0.113,0.214-0.113,0.214    c-0.232,0.438-0.451,0.881-0.68,1.32c-0.358,0.69-0.717,1.378-1.067,2.073c-0.298,0.592-0.587,1.188-0.877,1.783    c-0.358,0.732-0.715,1.464-1.062,2.202c-0.281,0.597-0.553,1.198-0.826,1.797c-0.334,0.732-0.668,1.464-0.992,2.202    c-0.279,0.636-0.548,1.274-0.819,1.912c-0.299,0.704-0.599,1.408-0.889,2.117c-0.282,0.689-0.552,1.382-0.824,2.075    c-0.261,0.665-0.526,1.329-0.779,1.998c-0.281,0.742-0.55,1.488-0.82,2.234c-0.229,0.632-0.462,1.263-0.684,1.899    c-0.268,0.768-0.523,1.539-0.779,2.309c-0.21,0.632-0.424,1.261-0.628,1.895c-0.235,0.735-0.456,1.472-0.681,2.209    c-0.17,0.558-0.351,1.111-0.515,1.671c0.054-0.185,0.1-0.372,0.154-0.556H41.426c-8.944,0-16.194,7.251-16.194,16.194v64.777    c0,8.944,7.25,16.194,16.194,16.194h51.589c-0.025-0.083-0.046-0.153-0.069-0.232c0.044,0.146,0.069,0.232,0.069,0.232    c0.127,0.426,0.266,0.846,0.396,1.27H93.4c0.144,0.471,0.302,0.938,0.45,1.407c0.225,0.713,0.449,1.426,0.683,2.135    c0.238,0.721,0.487,1.439,0.735,2.157c0.225,0.65,0.447,1.302,0.68,1.95c0.263,0.733,0.537,1.462,0.811,2.192    c0.239,0.64,0.477,1.28,0.724,1.916c0.274,0.704,0.558,1.405,0.842,2.106c0.267,0.66,0.531,1.322,0.806,1.977    c0.277,0.662,0.565,1.32,0.85,1.979c0.298,0.687,0.595,1.375,0.902,2.058c0.285,0.633,0.58,1.264,0.874,1.895    c0.322,0.694,0.643,1.387,0.974,2.075c0.304,0.632,0.619,1.261,0.931,1.889c0.333,0.67,0.664,1.34,1.005,2.004    c0.347,0.677,0.705,1.349,1.062,2.021c0.226,0.425,0.443,0.856,0.672,1.278l0.008-0.008c0.211,0.39,0.412,0.784,0.627,1.173    c1.929,3.497,1.928,3.497,0,0l-36.193,36.762c-6.275,6.374-6.195,16.627,0.179,22.902l46.16,45.445    c6.374,6.275,16.626,6.195,22.901-0.178c0,0,32.666-38.637,36.193-36.763c0.41,0.218,0.825,0.423,1.237,0.636    c0.71,0.371,1.421,0.74,2.137,1.1c0.571,0.287,1.145,0.567,1.719,0.847c0.74,0.362,1.48,0.722,2.225,1.074    c0.589,0.277,1.18,0.546,1.771,0.816c0.727,0.332,1.454,0.664,2.187,0.986c0.634,0.279,1.271,0.549,1.907,0.82    c0.69,0.293,1.38,0.586,2.075,0.87c0.692,0.284,1.388,0.558,2.083,0.833c0.645,0.254,1.289,0.508,1.938,0.755    c0.752,0.286,1.506,0.562,2.261,0.837c0.604,0.219,1.207,0.44,1.814,0.653c0.784,0.275,1.57,0.54,2.358,0.803    c0.601,0.201,1.201,0.403,1.804,0.598c0.766,0.246,1.535,0.483,2.304,0.718c0.442,0.135,0.879,0.28,1.322,0.412    c0.488,0.145,0.91,0.271,1.273,0.379l0,0c-0.363-0.108-0.786-0.234-1.273-0.379v51.589c0,8.423,6.431,15.338,14.649,16.116    c1.081,0.219,2.2,0.333,3.347,0.324l31.496-0.246h31.479c1.147,0,2.265-0.123,3.344-0.35c8.212-0.843,14.589-7.808,14.522-16.23    l-0.402-51.588c0.445-0.136,0.886-0.287,1.33-0.426c0.755-0.238,1.511-0.475,2.262-0.724c0.696-0.229,1.389-0.47,2.082-0.709    c0.685-0.236,1.37-0.471,2.051-0.716c0.714-0.256,1.424-0.523,2.135-0.789c0.667-0.25,1.333-0.499,1.996-0.757    c0.699-0.272,1.395-0.554,2.091-0.835c0.674-0.273,1.347-0.545,2.016-0.826c0.671-0.282,1.339-0.572,2.008-0.863    c0.687-0.299,1.373-0.598,2.054-0.905c0.653-0.294,1.302-0.596,1.952-0.9c0.684-0.318,1.367-0.638,2.046-0.966    c0.653-0.315,1.304-0.639,1.954-0.962c0.656-0.328,1.31-0.656,1.962-0.991c0.687-0.354,1.37-0.715,2.053-1.078    c0.349-0.186,0.702-0.363,1.049-0.552l36.48,36.479c5.955,5.955,15.391,6.298,21.753,1.038c0.92-0.61,1.791-1.32,2.596-2.138    l22.084-22.431l22.273-22.272c0.811-0.811,1.515-1.689,2.118-2.614c5.21-6.402,4.793-15.836-1.208-21.744l-36.763-36.193    c-0.222,0.417-0.423,0.796-0.623,1.173l-0.004-0.004c0.211-0.39,0.411-0.786,0.619-1.178l0.009,0.008    c0.232-0.438,0.451-0.881,0.68-1.32c0.358-0.69,0.717-1.378,1.067-2.073c0.298-0.592,0.587-1.188,0.877-1.783    c0.358-0.732,0.715-1.464,1.062-2.202c0.281-0.597,0.553-1.198,0.826-1.797c0.334-0.733,0.669-1.464,0.993-2.203    c0.278-0.633,0.545-1.268,0.815-1.903c0.301-0.708,0.603-1.417,0.894-2.131c0.28-0.684,0.548-1.372,0.819-2.059    c0.263-0.669,0.528-1.337,0.783-2.01c0.28-0.741,0.548-1.484,0.818-2.228c0.23-0.634,0.463-1.267,0.686-1.905    c0.268-0.766,0.522-1.536,0.778-2.305c0.21-0.632,0.425-1.262,0.629-1.898c0.235-0.735,0.456-1.472,0.681-2.209    c0.17-0.558,0.351-1.111,0.515-1.671c-0.054,0.185-0.1,0.372-0.154,0.556h51.579c8.944,0,16.194-7.251,16.194-16.194v-64.777    C486.768,214.668,479.517,207.417,470.574,207.417z M356.246,285.105c-0.391,1.357-0.821,2.705-1.268,4.048    c-0.135,0.4-0.268,0.802-0.407,1.2c-0.36,1.037-0.745,2.066-1.138,3.094c-0.274,0.71-0.549,1.42-0.838,2.122    c-0.287,0.704-0.589,1.403-0.892,2.101c-0.44,1.007-0.888,2.011-1.359,3.001c-0.181,0.383-0.369,0.765-0.555,1.147    c-0.622,1.268-1.261,2.527-1.932,3.766c-0.055,0.101-0.111,0.202-0.166,0.304c-11.037,20.205-28.567,36.361-49.755,45.694    c-0.538,0.235-1.069,0.487-1.609,0.713c-0.538,0.226-1.089,0.427-1.632,0.644c-21.518,8.554-45.334,9.71-67.478,3.399    c-0.107-0.031-0.215-0.061-0.323-0.092c-1.356-0.392-2.704-0.821-4.047-1.268c-0.402-0.135-0.804-0.269-1.203-0.408    c-1.036-0.359-2.065-0.744-3.092-1.137c-0.711-0.274-1.422-0.55-2.126-0.84c-0.702-0.287-1.4-0.588-2.097-0.891    c-1.008-0.44-2.011-0.888-3.002-1.359c-0.384-0.181-0.765-0.369-1.147-0.555c-1.269-0.623-2.528-1.261-3.768-1.933    c-0.101-0.054-0.2-0.11-0.301-0.165c-20.207-11.038-36.366-28.571-45.698-49.762c-0.234-0.535-0.485-1.064-0.709-1.601    c-0.227-0.54-0.429-1.093-0.647-1.638c-8.552-21.517-9.708-45.33-3.397-67.473c0.031-0.107,0.061-0.215,0.092-0.323    c0.391-1.356,0.821-2.704,1.268-4.047c0.135-0.402,0.268-0.803,0.408-1.203c0.359-1.037,0.744-2.065,1.137-3.092    c0.274-0.711,0.55-1.422,0.84-2.126c0.287-0.702,0.587-1.4,0.89-2.096c0.441-1.009,0.889-2.013,1.361-3.005    c0.181-0.382,0.368-0.763,0.553-1.144c0.623-1.269,1.261-2.529,1.933-3.769c0.054-0.101,0.11-0.201,0.165-0.301    c11.038-20.207,28.57-36.366,49.762-45.699c0.535-0.233,1.064-0.485,1.602-0.709c0.541-0.227,1.094-0.429,1.639-0.647    c21.515-8.551,45.326-9.707,67.467-3.397c0.11,0.032,0.221,0.062,0.33,0.094c1.354,0.391,2.699,0.819,4.039,1.265    c0.404,0.136,0.808,0.27,1.21,0.41c1.035,0.359,2.064,0.744,3.089,1.136c0.71,0.274,1.42,0.55,2.122,0.839    c0.704,0.287,1.403,0.589,2.102,0.891c1.008,0.441,2.012,0.889,3.003,1.36c0.382,0.18,0.761,0.367,1.141,0.552    c1.271,0.623,2.533,1.263,3.774,1.936c0.099,0.053,0.197,0.107,0.295,0.161c20.207,11.038,36.366,28.569,45.699,49.759    c0.235,0.537,0.487,1.068,0.712,1.608c0.226,0.538,0.427,1.089,0.645,1.631c8.553,21.519,9.71,45.333,3.398,67.478    C356.307,284.89,356.277,284.998,356.246,285.105z"/>
	</g>
	<g>
		<path class="st8" d="M383.975,229.363c-3.12,0-5.753-2.414-5.979-5.574c-4.383-61.549-59.988-78.278-60.549-78.44    c-3.184-0.918-5.021-4.243-4.103-7.427s4.241-5.021,7.427-4.103c0.662,0.191,16.391,4.824,32.773,18.075    c15.182,12.28,33.825,34.574,36.422,71.043c0.235,3.306-2.253,6.176-5.559,6.411C384.263,229.358,384.118,229.363,383.975,229.363    z"/>
	</g>
	<g>
		<path class="st10" d="M136.587,338.059C138.516,341.556,138.516,341.556,136.587,338.059L136.587,338.059z"/>
	</g>
	<g>
		<path class="st10" d="M100.573,397.723c-6.374-6.275-6.454-16.528-0.179-22.902l36.193-36.762    c-0.214-0.39-0.416-0.783-0.627-1.173l-0.008,0.008c-0.229-0.423-0.446-0.854-0.672-1.279c-0.357-0.673-0.714-1.345-1.061-2.021    c-0.341-0.664-0.673-1.335-1.005-2.005c-0.312-0.629-0.627-1.258-0.931-1.889c-0.331-0.689-0.652-1.382-0.975-2.076    c-0.293-0.631-0.588-1.261-0.873-1.895c-0.307-0.683-0.604-1.371-0.902-2.058c-0.286-0.659-0.573-1.317-0.851-1.979    c-0.275-0.656-0.539-1.317-0.806-1.977c-0.283-0.701-0.568-1.402-0.842-2.106c-0.247-0.636-0.485-1.276-0.724-1.916    c-0.273-0.73-0.548-1.459-0.811-2.192c-0.233-0.647-0.455-1.299-0.68-1.949c-0.248-0.719-0.497-1.437-0.734-2.158    c-0.234-0.709-0.458-1.422-0.683-2.135c-0.148-0.469-0.306-0.936-0.451-1.407h0.012c-0.13-0.424-0.27-0.844-0.396-1.27H93.016    c0.127,0.425,0.266,0.846,0.396,1.27H93.4c0.144,0.471,0.302,0.938,0.451,1.407c0.225,0.713,0.448,1.426,0.683,2.135    c0.238,0.721,0.487,1.439,0.734,2.158c0.225,0.65,0.447,1.302,0.68,1.949c0.263,0.733,0.537,1.462,0.811,2.192    c0.239,0.64,0.476,1.28,0.724,1.916c0.274,0.704,0.558,1.405,0.842,2.106c0.267,0.66,0.531,1.322,0.806,1.977    c0.277,0.662,0.564,1.32,0.851,1.979c0.298,0.687,0.595,1.375,0.902,2.058c0.285,0.634,0.58,1.264,0.873,1.895    c0.322,0.694,0.644,1.387,0.975,2.076c0.304,0.631,0.619,1.261,0.931,1.889c0.333,0.67,0.664,1.34,1.005,2.005    c0.347,0.676,0.705,1.348,1.061,2.021c0.226,0.425,0.443,0.856,0.672,1.279l0.008-0.008c0.211,0.39,0.412,0.784,0.627,1.173    c1.929,3.497,1.928,3.497,0,0l-36.193,36.762c-6.275,6.374-6.195,16.627,0.179,22.902l46.16,45.446    c6.374,6.275,16.626,6.195,22.901-0.179c0,0,1.119-1.323,2.957-3.459L100.573,397.723z"/>
	</g>
	<g>
		<path class="st10" d="M105.773,176.276c0.04-0.076,0.075-0.141,0.113-0.214C105.815,176.196,105.773,176.276,105.773,176.276    c-0.233,0.438-0.451,0.881-0.68,1.32c-0.358,0.69-0.717,1.378-1.067,2.073c-0.298,0.592-0.587,1.188-0.877,1.784    c-0.358,0.732-0.715,1.464-1.062,2.202c-0.281,0.597-0.553,1.198-0.827,1.797c-0.334,0.732-0.668,1.464-0.992,2.202    c-0.279,0.635-0.548,1.274-0.819,1.912c-0.299,0.705-0.599,1.408-0.889,2.117c-0.281,0.689-0.552,1.382-0.824,2.075    c-0.261,0.665-0.526,1.329-0.779,1.998c-0.281,0.742-0.55,1.489-0.82,2.234c-0.229,0.632-0.462,1.263-0.684,1.898    c-0.268,0.768-0.523,1.539-0.78,2.309c-0.21,0.632-0.424,1.261-0.627,1.896c-0.235,0.735-0.457,1.472-0.681,2.209    c-0.114,0.372-0.229,0.743-0.344,1.115h29.535c-0.055,0.184-0.1,0.372-0.154,0.556c0.165-0.56,0.345-1.113,0.515-1.671    c0.224-0.737,0.446-1.474,0.681-2.209c0.203-0.634,0.418-1.263,0.627-1.896c0.257-0.77,0.511-1.541,0.78-2.309    c0.222-0.635,0.455-1.266,0.684-1.898c0.27-0.745,0.539-1.491,0.82-2.234c0.253-0.669,0.517-1.333,0.779-1.998    c0.272-0.693,0.543-1.386,0.824-2.075c0.289-0.709,0.59-1.412,0.889-2.117c0.271-0.638,0.54-1.277,0.819-1.912    c0.324-0.738,0.659-1.47,0.992-2.202c0.274-0.599,0.546-1.201,0.827-1.797c0.347-0.738,0.704-1.47,1.062-2.202    c0.29-0.596,0.58-1.191,0.877-1.784c0.35-0.696,0.708-1.384,1.067-2.073c0.229-0.439,0.447-0.882,0.68-1.32l-36.763-36.194    c-6.001-5.909-6.418-15.342-1.208-21.745c0.603-0.924,1.307-1.802,2.118-2.613l22.27-22.269l20.052-20.367l-3.167-3.167    c-5.956-5.956-15.391-6.298-21.753-1.039c-0.919,0.611-1.792,1.321-2.597,2.139L92.19,93.455l-22.27,22.269    c-0.811,0.811-1.515,1.689-2.118,2.613c-5.21,6.403-4.793,15.836,1.208,21.745L105.773,176.276z"/>
	</g>
	<g>
		<path class="st10" d="M135.325,176.276c0,0,0.042-0.08,0.113-0.214C135.4,176.134,135.366,176.2,135.325,176.276z"/>
	</g>
	<g>
		<path class="st10" d="M54.785,288.388v-64.777c0-8.944,7.25-16.194,16.194-16.194H41.426c-8.944,0-16.194,7.251-16.194,16.194    v64.777c0,8.944,7.25,16.194,16.194,16.194h29.553C62.035,304.583,54.785,297.332,54.785,288.388z"/>
	</g>
	<g>
		<path class="st10" d="M122.568,304.583c0,0-0.025-0.086-0.069-0.231C122.523,304.43,122.544,304.5,122.568,304.583z"/>
	</g>
	<g>
		<path class="st11" d="M324.802,278.443c0,0,0.177-63.789-59.477-117.847c-3.023-2.74-7.627-2.74-10.65,0    c-59.653,54.058-59.477,117.847-59.477,117.847l0.193,0.014c-0.114,1.573-0.193,3.156-0.193,4.758    c0,35.789,29.013,64.802,64.802,64.802c35.789,0,64.802-29.013,64.802-64.802c0-1.602-0.078-3.185-0.193-4.758L324.802,278.443z"/>
	</g>
	<g>
		<path class="st8" d="M226.095,283.216c0-1.602,0.078-3.186,0.193-4.759l-0.193-0.014c0,0-0.151-56.345,49.353-108.001    c-3.168-3.306-6.535-6.594-10.124-9.845c-3.023-2.74-7.627-2.74-10.65,0c-59.653,54.058-59.477,117.846-59.477,117.846    l0.193,0.014c-0.114,1.573-0.193,3.156-0.193,4.759c0,35.789,29.013,64.802,64.802,64.802c5.326,0,10.496-0.657,15.449-1.868    C247.121,339.219,226.095,313.679,226.095,283.216z"/>
	</g>
	<g>
		<circle class="st8" cx="267.357" cy="223.363" r="15"/>
	</g>
	<g>
		<circle class="st10" cx="143.039" cy="383.91" r="15"/>
	</g>
	<g>
		<path class="st8" d="M430.893,389.91c-1.536,0-3.071-0.586-4.243-1.757l-35.893-35.892c-2.343-2.343-2.343-6.142,0-8.485    c2.343-2.343,6.142-2.343,8.485,0l35.893,35.892c2.343,2.343,2.343,6.142,0,8.485C433.964,389.324,432.428,389.91,430.893,389.91z    "/>
	</g>
	<g>
		<path class="st12" d="M275.451,331.04c-2.355,0-4.59-1.396-5.546-3.708c-1.265-3.058,0.184-6.561,3.237-7.833    c1.18-0.497,28.261-12.215,30.884-41.051c0.3-3.3,3.214-5.732,6.519-5.432c3.3,0.3,5.732,3.219,5.432,6.519    c-3.291,36.188-36.808,50.458-38.233,51.047C276.992,330.893,276.215,331.04,275.451,331.04z"/>
	</g>
	<g>
		<path class="st10" d="M136.715,337.972C138.641,341.465,138.641,341.465,136.715,337.972L136.715,337.972z"/>
	</g>
	<g>
		<path class="st10" d="M135.454,176.361c0,0,0.042-0.08,0.113-0.214C135.529,176.22,135.494,176.285,135.454,176.361z"/>
	</g>
	<g>
		<path class="st10" d="M122.71,304.531c0,0-0.025-0.086-0.069-0.231C122.665,304.378,122.686,304.449,122.71,304.531z"/>
	</g>
	<g>
		<path class="st10" d="M206.695,93.574c0.004-0.001,0.008-0.003,0.013-0.004c3.795-1.135,7.645-2.138,11.546-3.007    c0.053-0.012,0.106-0.023,0.159-0.035c3.845-0.852,7.739-1.573,11.677-2.158c0.153-0.022,0.307-0.042,0.46-0.065    c1.723-0.25,3.456-0.472,5.195-0.67c0.06-0.007,0.121-0.014,0.181-0.021l-0.357-45.574c-0.066-8.414,6.328-15.371,14.562-16.213    c1.082-0.227,2.203-0.349,3.353-0.349H223.85c-1.15,0-2.271,0.122-3.353,0.349c-8.234,0.842-14.628,7.799-14.562,16.213    l0.404,51.533H206.695z"/>
	</g>
	<g>
		<path class="st10" d="M251.935,486.419c-8.267-0.772-14.736-7.63-14.736-15.983v-45.753c-0.202-0.021-0.407-0.033-0.61-0.055    c-0.3-0.032-0.598-0.068-0.896-0.103c-1.745-0.196-3.483-0.415-5.212-0.664c-0.154-0.022-0.308-0.042-0.462-0.064    c-3.95-0.58-7.857-1.295-11.714-2.143c-0.053-0.011-0.106-0.023-0.16-0.034c-3.127-0.69-6.211-1.487-9.271-2.346l-1.404-0.463    v0.463v0.989v50.173c0,8.353,6.469,15.211,14.737,15.983c1.088,0.216,2.213,0.33,3.367,0.321l27.122-0.209    C252.442,486.493,252.184,486.469,251.935,486.419z"/>
	</g>
</g>
</svg>
