<?xml version="1.0" encoding="utf-8"?>
<!-- Generator: Adobe Illustrator 22.1.0, SVG Export Plug-In . SVG Version: 6.00 Build 0)  -->
<svg xmlns="http://www.w3.org/2000/svg" xmlns:xlink="http://www.w3.org/1999/xlink" version="1.1" id="Layer_1" x="0px" y="0px" viewBox="0 0 512 512" style="enable-background:new 0 0 512 512;" xml:space="preserve" width="512" height="512">
<style type="text/css">
	.st0{fill:#FFA730;}
	.st1{fill:#E58D23;}
	.st2{fill:#BF6C0D;}
	.st3{fill:#A56021;}
	.st4{fill:#FFD551;}
	.st5{fill:#FFF4C1;}
	.st6{fill:#FFC34C;}
	.st7{fill:#FFEA63;}
	.st8{fill:#FCE575;}
	.st9{fill:#FFB74B;}
	.st10{fill:#8C4C17;}
	.st11{fill:#F9BB32;}
	.st12{fill:#FF4B34;}
	.st13{fill:#FF9079;}
	.st14{fill:#FFDF74;}
	.st15{fill:#FF624B;}
	.st16{fill:#CCC033;}
	.st17{fill:#EACF32;}
	.st18{fill:#FFEACF;}
	.st19{fill:#99AF17;}
	.st20{fill:#FFD59A;}
	.st21{fill:#FCDA4F;}
	.st22{fill:#FCF9DE;}
	.st23{fill:#DB9C2E;}
</style>
<g>
	<g>
		<g>
			<path class="st4" d="M98.792,316.691c0,0-0.426-153.85,143.451-284.231c7.292-6.608,18.395-6.608,25.686,0     c143.876,130.381,143.45,284.231,143.45,284.231l-0.465,0.034c0.276,3.794,0.465,7.612,0.465,11.476     c0,86.319-69.975,156.294-156.294,156.294c-86.319,0-156.294-69.975-156.294-156.294c0-3.864,0.189-7.682,0.465-11.476     L98.792,316.691z"/>
		</g>
	</g>
	<g>
		<g>
			<path class="st6" d="M189.636,328.202c0-3.864,0.189-7.682,0.464-11.476l-0.464-0.034c0,0-0.268-129.564,110.872-251.658     c-9.966-10.948-20.739-21.843-32.578-32.573c-7.292-6.608-18.395-6.608-25.686,0C98.366,162.841,98.792,316.691,98.792,316.691     l0.464,0.034c-0.275,3.794-0.464,7.612-0.464,11.476c0,86.319,69.975,156.294,156.294,156.294     c15.801,0,31.045-2.367,45.422-6.727C236.347,458.308,189.636,398.72,189.636,328.202z"/>
		</g>
	</g>
	<g>
		<g>
			<path class="st2" d="M414.369,268.196l-134.511-57.755v-91.232h-0.097c-0.004-0.079-0.009-0.155-0.014-0.234h0.11     c0-28.936-15.421-34.132-15.421-34.132c-8.529-4.075-16.872,0-16.872,0s-15.421,5.196-15.421,34.132h0.11     c-0.004,0.079-0.01,0.155-0.014,0.234h-0.097v49.35c0,0,0,0.001,0,0.002v41.881L97.631,268.196     c-2.57,1.104-4.017,3.856-3.468,6.599l1.963,9.814c0.641,3.204,3.757,5.283,6.961,4.643l129.055-25.757v116.528h0.097     c0.004,0.083,0.009,0.163,0.014,0.246h-0.11c0,5.483,0.504,10.145,1.321,14.125l-43.345,28.769     c-1.253,0.832-1.924,2.303-1.731,3.794l0.78,6.028c0.314,2.427,2.738,3.985,5.076,3.264l59.127-18.241     c1.857,0.232,3.595,0.169,5.125-0.041l59.261,18.282c2.338,0.721,4.762-0.837,5.076-3.264l0.78-6.028     c0.193-1.491-0.479-2.962-1.731-3.794l-43.345-28.769c0.817-3.979,1.321-8.642,1.321-14.125h-0.11     c0.004-0.083,0.01-0.163,0.014-0.246h0.097v-60.248c0,0,0-0.001,0-0.001v-56.279l129.055,25.757     c3.205,0.64,6.321-1.439,6.961-4.643l1.963-9.814C418.386,272.052,416.939,269.3,414.369,268.196z"/>
		</g>
	</g>
	<g>
		<g>
			<g>
				<path class="st3" d="M293.857,217.442l123.021,52.821c-0.615-0.885-1.462-1.617-2.51-2.067l-120.511-51.743V217.442z"/>
			</g>
		</g>
		<g>
			<g>
				<path class="st3" d="M204.118,430.163l43.345-28.769c-0.817-3.979-1.321-8.642-1.321-14.125h0.11      c-0.004-0.083-0.01-0.163-0.014-0.246h-0.097V270.496l-14,2.794v106.733h0.097c0.004,0.083,0.009,0.163,0.014,0.246h-0.11      c0,5.483,0.504,10.145,1.321,14.125l-43.345,28.769c-1.253,0.832-1.924,2.303-1.731,3.794l0.78,6.028      c0.314,2.427,2.738,3.985,5.076,3.264l8.131-2.509C202.27,432.324,202.926,430.954,204.118,430.163z"/>
			</g>
		</g>
		<g>
			<g>
				<path class="st3" d="M108.163,281.795c-0.549-2.743,0.898-5.495,3.468-6.599l134.511-57.755v-41.881c0,0,0-0.001,0-0.002v-49.35      h0.097c0.004-0.079,0.009-0.155,0.014-0.234h-0.11c0-28.936,15.421-34.132,15.421-34.132s4.244-2.056,9.766-1.771      c-3.564-4.103-6.894-5.229-6.894-5.229c-8.529-4.075-16.872,0-16.872,0s-15.421,5.196-15.421,34.132h0.11      c-0.004,0.079-0.01,0.155-0.014,0.234h-0.097v49.35c0,0,0,0.001,0,0.002v41.881L97.631,268.196      c-2.57,1.104-4.017,3.856-3.468,6.599l1.963,9.814c0.641,3.204,3.757,5.283,6.961,4.643l6.315-1.26L108.163,281.795z"/>
			</g>
		</g>
	</g>
	<g>
		<g>
			<circle class="st6" cx="306.646" cy="125.061" r="15"/>
		</g>
	</g>
	<g>
		<g>
			<circle class="st6" cx="335.529" cy="159.996" r="15"/>
		</g>
	</g>
	<g>
		<g>
			<path class="st14" d="M291.646,455.002c-2.482,0-4.805-1.553-5.667-4.03c-1.088-3.127,0.563-6.545,3.689-7.637     c0.32-0.113,18.197-6.545,37.534-22.932c25.834-21.893,41.945-50.279,47.887-84.371c0.569-3.265,3.67-5.445,6.941-4.881     c3.265,0.569,5.449,3.677,4.881,6.941c-8.059,46.235-32.916,75.442-52.35,91.802c-21.067,17.735-40.143,24.493-40.944,24.772     C292.965,454.894,292.3,455.002,291.646,455.002z"/>
		</g>
	</g>
	<g>
		<g>
			<path class="st1" d="M267,375.063c-3.313,0-6-2.687-6-6v-79.694c0-3.313,2.687-6,6-6s6,2.687,6,6v79.694     C273,372.376,270.313,375.063,267,375.063z"/>
		</g>
	</g>
</g>
</svg>
