<?xml version="1.0" encoding="utf-8"?>
<!-- Generator: Adobe Illustrator 22.1.0, SVG Export Plug-In . SVG Version: 6.00 Build 0)  -->
<svg xmlns="http://www.w3.org/2000/svg" xmlns:xlink="http://www.w3.org/1999/xlink" version="1.1" id="Layer_1" x="0px" y="0px" viewBox="0 0 512 512" style="enable-background:new 0 0 512 512;" xml:space="preserve" width="512" height="512">
<style type="text/css">
	.st0{fill:#FFA730;}
	.st1{fill:#E58D23;}
	.st2{fill:#BF6C0D;}
	.st3{fill:#A56021;}
	.st4{fill:#FFD551;}
	.st5{fill:#FFF4C1;}
	.st6{fill:#FFC34C;}
	.st7{fill:#FFEA63;}
	.st8{fill:#FCE575;}
	.st9{fill:#FFB74B;}
	.st10{fill:#8C4C17;}
	.st11{fill:#F9BB32;}
	.st12{fill:#FF4B34;}
	.st13{fill:#FF9079;}
	.st14{fill:#FFDF74;}
	.st15{fill:#FF624B;}
	.st16{fill:#CCC033;}
	.st17{fill:#EACF32;}
	.st18{fill:#FFEACF;}
	.st19{fill:#99AF17;}
	.st20{fill:#FFD59A;}
	.st21{fill:#FCDA4F;}
	.st22{fill:#FCF9DE;}
	.st23{fill:#DB9C2E;}
</style>
<g>
	<g>
		<path class="st0" d="M148.703,441.894H85.516V54.652c0-4.418,3.582-8,8-8h47.187c4.418,0,8,3.582,8,8V441.894z"/>
	</g>
	<g>
		<path class="st0" d="M252.656,441.894h-63.187V54.652c0-4.418,3.582-8,8-8h47.187c4.418,0,8,3.582,8,8V441.894z"/>
	</g>
	<g>
		<path class="st1" d="M120.516,46.652h-27c-4.418,0-8,3.582-8,8v387.242h27V54.652C112.516,50.234,116.098,46.652,120.516,46.652z"/>
	</g>
	<g>
		<path class="st1" d="M224.469,46.652h-27c-4.418,0-8,3.582-8,8v387.242h27V54.652C216.469,50.234,220.051,46.652,224.469,46.652z"/>
	</g>
	<g>
		<path class="st2" d="M449.463,253.755v-69.862H302.979v69.862l-35.515,188.14v8.454c0,8.284,6.716,15,15,15h187.514    c8.284,0,15-6.716,15-15v-8.454L449.463,253.755z"/>
	</g>
	<g>
		<path class="st3" d="M317.464,450.348v-8.454l35.515-188.14v-69.862h-50v69.862l-35.515,188.14v8.454c0,8.284,6.716,15,15,15h50    C324.179,465.348,317.464,458.632,317.464,450.348z"/>
	</g>
	<g>
		<path class="st1" d="M458.439,188.632H294.002c-2.761,0-5-2.239-5-5v-22.095c0-2.761,2.239-5,5-5h164.437c2.761,0,5,2.239,5,5    v22.095C463.439,186.394,461.201,188.632,458.439,188.632z"/>
	</g>
	<g>
		<path class="st2" d="M329.002,183.632v-22.095c0-2.761,2.239-5,5-5h-40c-2.761,0-5,2.239-5,5v22.095c0,2.761,2.239,5,5,5h40    C331.241,188.632,329.002,186.393,329.002,183.632z"/>
	</g>
	<g>
		<path class="st4" d="M368.221,465.348H51.482c-4.418,0-8-3.582-8-8V307.797h332.738v149.551    C376.221,461.766,372.639,465.348,368.221,465.348z"/>
	</g>
	<g>
		<path class="st5" d="M265.809,405.936h-35.976c-4.418,0-8-3.582-8-8v-22.727c0-4.418,3.582-8,8-8h35.976c4.418,0,8,3.582,8,8    v22.727C273.809,402.355,270.227,405.936,265.809,405.936z"/>
	</g>
	<g>
		<path class="st5" d="M347.34,405.936h-35.976c-4.418,0-8-3.582-8-8v-22.727c0-4.418,3.582-8,8-8h35.976c4.418,0,8,3.582,8,8    v22.727C355.34,402.355,351.759,405.936,347.34,405.936z"/>
	</g>
	<g>
		<path class="st5" d="M107.258,405.936H71.281c-4.418,0-8-3.582-8-8v-22.727c0-4.418,3.582-8,8-8h35.976c4.418,0,8,3.582,8,8    v22.727C115.258,402.355,111.676,405.936,107.258,405.936z"/>
	</g>
	<g>
		<path class="st5" d="M188.789,405.936h-35.976c-4.418,0-8-3.582-8-8v-22.727c0-4.418,3.582-8,8-8h35.976c4.418,0,8,3.582,8,8    v22.727C196.789,402.355,193.207,405.936,188.789,405.936z"/>
	</g>
	<g>
		<path class="st6" d="M83.482,341.797h292.738v-34H43.482v149.551c0,4.418,3.582,8,8,8h32V341.797z"/>
	</g>
	<g>
		<path class="st7" d="M384.681,326.609H35.022c-4.418,0-8-3.582-8-8v-21.624c0-4.418,3.582-8,8-8h349.659c4.418,0,8,3.582,8,8    v21.624C392.681,323.027,389.1,326.609,384.681,326.609z"/>
	</g>
	<g>
		<path class="st8" d="M83.482,367.209H71.281c-4.418,0-8,3.582-8,8v22.727c0,4.418,3.582,8,8,8h12.201V367.209z"/>
	</g>
	<g>
		<path class="st4" d="M77.022,308.985c0-4.418,3.582-8,8-8h307.659v-4c0-4.418-3.582-8-8-8H35.022c-4.418,0-8,3.582-8,8v21.624    c0,4.418,3.582,8,8,8h42V308.985z"/>
	</g>
	<g>
		<path class="st1" d="M447.994,341.119c-2.793,0-5.294-1.961-5.873-4.805l-16-78.618c-0.08-0.394-0.121-0.795-0.121-1.197v-31.635    c0-3.314,2.686-6,6-6s6,2.686,6,6v31.031l15.879,78.026c0.661,3.247-1.436,6.415-4.683,7.076    C448.793,341.079,448.39,341.119,447.994,341.119z"/>
	</g>
	<g>
		<path class="st0" d="M448,175.405h-30c-3.313,0-6-2.686-6-6s2.687-6,6-6h30c3.313,0,6,2.686,6,6S451.313,175.405,448,175.405z"/>
	</g>
	<g>
		<path class="st9" d="M136,182.568c-3.313,0-6-2.686-6-6V160.5c0-3.314,2.687-6,6-6s6,2.686,6,6v16.068    C142,179.881,139.313,182.568,136,182.568z"/>
	</g>
	<g>
		<path class="st9" d="M136,279.07c-3.313,0-6-2.686-6-6V197.5c0-3.314,2.687-6,6-6s6,2.686,6,6v75.57    C142,276.384,139.313,279.07,136,279.07z"/>
	</g>
	<g>
		<path class="st9" d="M239,182.568c-3.313,0-6-2.686-6-6V160.5c0-3.314,2.687-6,6-6s6,2.686,6,6v16.068    C245,179.881,242.313,182.568,239,182.568z"/>
	</g>
	<g>
		<path class="st9" d="M239,279.07c-3.313,0-6-2.686-6-6V197.5c0-3.314,2.687-6,6-6s6,2.686,6,6v75.57    C245,276.384,242.313,279.07,239,279.07z"/>
	</g>
	<g>
		<circle class="st3" cx="379.004" cy="224.865" r="15"/>
	</g>
	<g>
		<circle class="st6" cx="118.485" cy="440.345" r="15"/>
	</g>
</g>
</svg>
