<?xml version="1.0" encoding="utf-8"?>
<!-- Generator: Adobe Illustrator 22.1.0, SVG Export Plug-In . SVG Version: 6.00 Build 0)  -->
<svg xmlns="http://www.w3.org/2000/svg" xmlns:xlink="http://www.w3.org/1999/xlink" version="1.1" id="Layer_1" x="0px" y="0px" viewBox="0 0 512 512" style="enable-background:new 0 0 512 512;" xml:space="preserve" width="512" height="512">
<style type="text/css">
	.st0{fill:#FFA730;}
	.st1{fill:#E58D23;}
	.st2{fill:#BF6C0D;}
	.st3{fill:#A56021;}
	.st4{fill:#FFD551;}
	.st5{fill:#FFF4C1;}
	.st6{fill:#FFC34C;}
	.st7{fill:#FFEA63;}
	.st8{fill:#FCE575;}
	.st9{fill:#FFB74B;}
	.st10{fill:#8C4C17;}
	.st11{fill:#F9BB32;}
	.st12{fill:#FF4B34;}
	.st13{fill:#FF9079;}
	.st14{fill:#FFDF74;}
	.st15{fill:#FF624B;}
	.st16{fill:#CCC033;}
	.st17{fill:#EACF32;}
	.st18{fill:#FFEACF;}
	.st19{fill:#99AF17;}
	.st20{fill:#FFD59A;}
	.st21{fill:#FCDA4F;}
	.st22{fill:#FCF9DE;}
	.st23{fill:#DB9C2E;}
</style>
<g>
	<g>
		<g>
			<path class="st4" d="M415.151,486.237H96.849v-44.3c0-52.467,42.533-95,95-95h128.301c52.467,0,95,42.533,95,95V486.237z"/>
		</g>
	</g>
	<g>
		<g>
			<path class="st6" d="M243.849,346.938h-52c-52.467,0-95,42.533-95,95v44.3h52v-44.3     C148.849,389.471,191.382,346.938,243.849,346.938z"/>
		</g>
	</g>
	<g>
		<g>
			<path class="st0" d="M300.114,340.667v21.475c0,23.932-19.401,43.333-43.333,43.333h-1.562     c-23.932,0-43.333-19.401-43.333-43.333v-21.475c0-2.209-1.791-4-4-4h-42.534c-9.941,0-18,8.059-18,18V486.04h220.314V354.667     c0-9.941-8.059-18-18-18h-45.552C301.905,336.667,300.114,338.457,300.114,340.667z"/>
		</g>
	</g>
	<g>
		<g>
			<path class="st18" d="M256.781,405.474h-1.562c-23.932,0-43.333-19.401-43.333-43.333V256.164h88.229v105.977     C300.114,386.073,280.713,405.474,256.781,405.474z"/>
		</g>
	</g>
	<g>
		<g>
			<rect x="161.084" y="336.667" class="st16" width="37.365" height="149.373"/>
		</g>
	</g>
	<g>
		<g>
			<rect x="314.084" y="336.667" class="st16" width="37.365" height="149.373"/>
		</g>
	</g>
	<g>
		<g>
			<path class="st20" d="M248.886,362.141V256.165h-37v105.977c0,23.932,19.401,43.333,43.333,43.333h1.562     c6.315,0,12.308-1.362,17.719-3.791C259.405,394.909,248.886,379.758,248.886,362.141z"/>
		</g>
	</g>
	<g>
		<g>
			<path class="st10" d="M169.786,233.038h34.634v-94.014c0-11.046-8.954-20-20-20h-14.634c-11.046,0-20,8.954-20,20v74.014     C149.786,224.083,158.741,233.038,169.786,233.038z"/>
		</g>
	</g>
	<g>
		<g>
			<path class="st10" d="M341.853,119.065H327.94c-11.244,0-20.36,7.292-20.36,16.288v14.182     c22.034,13.111,36.31,34.099,36.31,57.756v25.706c10.288-0.817,18.324-7.76,18.324-16.205v-81.438     C362.214,126.358,353.098,119.065,341.853,119.065z"/>
		</g>
	</g>
	<g>
		<g>
			<circle class="st18" cx="345.925" cy="208.579" r="29.085"/>
		</g>
	</g>
	<g>
		<g>
			<circle class="st20" cx="162.681" cy="208.579" r="29.085"/>
		</g>
	</g>
	<g>
		<g>
			<path class="st18" d="M257.592,312.125h-3.184c-48.785,0-88.333-39.548-88.333-88.333v-48.964     c0-48.785,39.548-88.333,88.333-88.333h3.184c48.785,0,88.333,39.548,88.333,88.333v48.964     C345.925,272.577,306.377,312.125,257.592,312.125z"/>
		</g>
	</g>
	<g>
		<g>
			<path class="st20" d="M206.075,223.792v-48.964c0-42.472,29.977-77.937,69.925-86.407c-5.938-1.259-12.095-1.927-18.408-1.927     h-3.184c-48.785,0-88.333,39.548-88.333,88.333v48.964c0,48.785,39.548,88.333,88.333,88.333h3.184     c6.313,0,12.47-0.667,18.408-1.927C236.051,301.729,206.075,266.263,206.075,223.792z"/>
		</g>
	</g>
	<g>
		<g>
			<path class="st4" d="M361.004,173.416c2.373-9.122,3.644-18.702,3.644-28.587C364.648,83.521,316.004,33.82,256,33.82     s-108.648,49.7-108.648,111.009c0,9.885,1.271,19.465,3.644,28.587H361.004z"/>
		</g>
	</g>
	<g>
		<g>
			<path class="st6" d="M276.36,35.775c-6.596-1.278-13.4-1.955-20.36-1.955c-60.005,0-108.648,49.7-108.648,111.009     c0,9.885,1.271,19.465,3.644,28.587h40.721c-2.373-9.122-3.644-18.702-3.644-28.587C188.073,90.632,226.089,45.514,276.36,35.775     z"/>
		</g>
	</g>
	<g>
		<g>
			<path class="st6" d="M256,33.82c-16.731,0-32.578,3.868-46.734,10.771c-1.806,1.251-3.596,2.536-5.347,3.895l-0.001,0.001     c-4.3,3.337-5.144,9.499-1.9,13.869l74.233,100.014l64.678-86.768C321.021,50.138,290.378,33.82,256,33.82z"/>
		</g>
	</g>
	<g>
		<g>
			<path class="st4" d="M181.658,64.464c-3.244-4.37-2.4-10.532,1.9-13.869l0.001-0.001c20.932-16.244,45.95-24.831,72.35-24.831     c26.488,0,51.574,8.639,72.546,24.984v0c4.293,3.346,5.124,9.509,1.872,13.873l-74.436,99.858L181.658,64.464z"/>
		</g>
	</g>
	<g>
		<g>
			<path class="st6" d="M214.098,50.595l0.001-0.001c16.408-12.734,35.333-20.736,55.461-23.611l-9.146-1.125     c-1.497-0.057-2.998-0.094-4.505-0.094c-26.4,0-51.418,8.587-72.35,24.831l-0.001,0.001c-4.3,3.337-5.144,9.499-1.9,13.869     l20.554,27.692c0,0,10.818-15.715,15.205-20.661l-5.218-7.031C208.954,60.093,209.799,53.931,214.098,50.595z"/>
		</g>
	</g>
	<g>
		<g>
			<path class="st4" d="M372.907,173.416H139.093c-6.627,0-12-5.373-12-12v-14.334c0-6.627,5.373-12,12-12h233.814     c6.627,0,12,5.373,12,12v14.334C384.907,168.044,379.534,173.416,372.907,173.416z"/>
		</g>
	</g>
	<g>
		<g>
			<path class="st6" d="M190.21,153.056c-6.747,0-12.216-5.469-12.216-12.216v-5.757h-38.685c-6.747,0-12.216,5.47-12.216,12.216     V161.2c0,6.747,5.469,12.216,12.216,12.216h233.381c6.747,0,12.216-5.469,12.216-12.216v-8.144H190.21z"/>
		</g>
	</g>
	<g>
		<g>
			<g>
				<path class="st1" d="M195.352,336.667h-30c-9.941,0-18,8.059-18,18V486.04h30V354.667      C177.352,344.725,185.411,336.667,195.352,336.667z"/>
			</g>
		</g>
	</g>
	<g>
		<g>
			<rect x="314.084" y="336.667" class="st16" width="37.365" height="149.373"/>
		</g>
	</g>
	<g>
		<g>
			<path class="st19" d="M165.35,336.667c-1.473,0-2.896,0.197-4.266,0.531V486.04h16.268V354.667c0-9.94,8.057-17.999,17.998-18     H165.35z"/>
		</g>
	</g>
	<g>
		<g>
			<rect x="314.084" y="336.667" class="st19" width="18" height="149.373"/>
		</g>
	</g>
	<g>
		<g>
			<path class="st14" d="M402.341,481.334c-0.283,0-0.568-0.02-0.856-0.061c-3.28-0.469-5.56-3.508-5.091-6.788     c7.027-49.191-8.942-57.546-9.104-57.625c0.139,0.068,0.217,0.091,0.217,0.091l4.322-11.194     c2.571,0.993,24.876,11.404,16.444,70.426C407.845,479.174,405.278,481.334,402.341,481.334z"/>
		</g>
	</g>
	<g>
		<g>
			<path class="st14" d="M318.15,68.369c-1.386,0-2.778-0.477-3.911-1.452c-17.973-15.468-35.772-16.663-43.373-17.173     c-2.465-0.166-3.953-0.265-5.344-0.767c-3.116-1.125-4.73-4.564-3.605-7.681c1.084-3.002,4.314-4.609,7.332-3.72     c0.441,0.062,1.532,0.135,2.421,0.195c8.795,0.59,29.392,1.973,50.397,20.051c2.512,2.161,2.795,5.95,0.634,8.461     C321.515,67.662,319.837,68.369,318.15,68.369z M269.379,37.615c0.073,0.023,0.146,0.048,0.22,0.074     C269.533,37.667,269.461,37.64,269.379,37.615z"/>
		</g>
	</g>
	<g>
		<g>
			<path class="st14" d="M351.44,133.933c-3.034,0-5.638-2.293-5.96-5.378c-2.177-20.868-7.895-26.719-7.95-26.758     c-2.73-1.877-3.423-5.612-1.547-8.343c1.878-2.73,5.612-3.424,8.344-1.547c1.689,1.161,10.264,8.327,13.089,35.402     c0.344,3.296-2.05,6.246-5.345,6.59C351.859,133.922,351.648,133.933,351.44,133.933z"/>
		</g>
	</g>
	<g>
		<g>
			<circle class="st6" cx="221.037" cy="120.547" r="15"/>
		</g>
	</g>
	<g>
		<g>
			<circle class="st1" cx="224.623" cy="433.541" r="15"/>
		</g>
	</g>
</g>
</svg>
