<svg height="480pt" viewBox="-70 0 480 480" width="480pt" xmlns="http://www.w3.org/2000/svg"><path d="m318.199219 107.140625h-297.40625c-11.484375 0-20.792969-9.304687-20.792969-20.792969v-65.554687c0-11.484375 9.308594-20.792969 20.792969-20.792969h297.40625c11.484375 0 20.792969 9.308594 20.792969 20.792969v65.554687c0 11.488282-9.304688 20.792969-20.792969 20.792969zm0 0" fill="#ccc033"/><path d="m1.007812 437.5625v-320.332031c0-5.570313 4.515626-10.089844 10.089844-10.089844h74.78125v330.421875c0 23.4375-19 42.4375-42.4375 42.4375s-42.433594-19-42.433594-42.4375zm0 0" fill="#ccc033"/><path d="m85.964844 437.5625v-330.421875h84.875v330.421875c0 23.4375-19 42.4375-42.4375 42.4375s-42.4375-19-42.4375-42.4375zm0 0" fill="#ccc033"/><path d="m127.230469 454.246094c-9.71875-.648438-17.050781-9.734375-17.050781-20.078125v-281.960938c0-10.6875 8.160156-19.347656 18.222656-19.347656 10.066406 0 18.222656 8.664063 18.222656 19.347656v282.730469c0 11.078125-8.820312 20.015625-19.394531 19.308594zm0 0" fill="#fcda4f"/><path d="m170.839844 437.5625v-330.421875h84.871094v330.421875c0 23.4375-19 42.4375-42.4375 42.4375s-42.433594-19-42.433594-42.4375zm0 0" fill="#ccc033"/><path d="m212.105469 454.246094c-9.722657-.648438-17.054688-9.734375-17.054688-20.078125v-281.960938c0-10.6875 8.160157-19.347656 18.222657-19.347656 10.066406 0 18.222656 8.664063 18.222656 19.347656v282.730469c0 11.078125-8.816406 20.015625-19.390625 19.308594zm0 0" fill="#fcda4f"/><path d="m255.128906 437.5625v-330.421875h74.78125c5.570313 0 10.089844 4.519531 10.089844 10.089844v320.332031c0 23.4375-19 42.4375-42.4375 42.4375-23.433594 0-42.433594-19-42.433594-42.4375zm0 0" fill="#ccc033"/><path d="m327.890625 252.363281c-3.3125 0-6-2.683593-6-6v-114.933593c0-3.316407 2.6875-6 6-6 3.316406 0 6 2.683593 6 6v114.933593c0 3.3125-2.683594 6-6 6zm0 0" fill="#fcda4f"/><path d="m296.394531 454.246094c-9.722656-.648438-17.050781-9.734375-17.050781-20.078125v-281.960938c0-10.6875 8.15625-19.351562 18.21875-19.351562 10.066406 0 18.222656 8.664062 18.222656 19.351562v282.726563c0 11.082031-8.816406 20.019531-19.390625 19.3125zm0 0" fill="#fcda4f"/><path d="m56.5 85.714844v-64.285156c0-11.835938 9.035156-21.429688 20.179688-21.429688h-56.5c-11.144532 0-20.179688 9.59375-20.179688 21.429688v64.285156c0 11.832031 9.035156 21.425781 20.179688 21.425781h56.5c-11.144532 0-20.179688-9.589844-20.179688-21.425781zm0 0" fill="#99af17"/><path d="m41.363281 434.9375v-317.078125c0-5.917969 4.515625-10.714844 10.089844-10.714844h-40.359375c-5.570312 0-10.089844 4.796875-10.089844 10.714844v317.078125c0 24.886719 19 45.0625 42.4375 45.0625 7.300782 0 14.175782-1.960938 20.175782-5.414062-13.253907-7.625-22.253907-22.519532-22.253907-39.648438zm0 0" fill="#99af17"/><path d="m42.273438 454.246094c-9.722657-.648438-17.054688-9.734375-17.054688-20.078125v-281.960938c0-10.6875 8.160156-19.347656 18.222656-19.347656h.003906c10.0625 0 18.21875 8.664063 18.21875 19.347656v282.730469c-.003906 11.078125-8.816406 20.015625-19.390624 19.308594zm0 0" fill="#fcda4f"/><g fill="#eacf32"><path d="m49.433594 434.167969v-281.960938c0-5.746093 2.371094-10.890625 6.113281-14.433593-3.21875-3.046876-7.449219-4.914063-12.105469-4.914063-10.0625 0-18.222656 8.664063-18.222656 19.347656v281.960938c0 10.34375 7.332031 19.429687 17.054688 20.078125 5.148437.34375 9.871093-1.609375 13.371093-4.972656-3.835937-3.75-6.210937-9.222657-6.210937-15.105469zm0 0"/><path d="m134.394531 434.171875v-281.964844c0-5.746093 2.371094-10.890625 6.117188-14.433593-3.222657-3.046876-7.453125-4.914063-12.109375-4.914063-10.0625 0-18.21875 8.664063-18.21875 19.347656v281.964844c0 10.34375 7.328125 19.425781 17.050781 20.074219 5.148437.347656 9.875-1.609375 13.375-4.972656-3.839844-3.75-6.214844-9.222657-6.214844-15.101563zm0 0"/><path d="m219.265625 434.171875v-281.964844c0-5.742187 2.371094-10.890625 6.113281-14.433593-3.21875-3.046876-7.453125-4.917969-12.105468-4.917969-10.0625 0-18.222657 8.664062-18.222657 19.351562v281.960938c0 10.34375 7.332031 19.429687 17.054688 20.078125 5.148437.34375 9.871093-1.609375 13.371093-4.972656-3.835937-3.75-6.210937-9.222657-6.210937-15.101563zm0 0"/><path d="m303.554688 434.171875v-281.964844c0-5.742187 2.371093-10.890625 6.117187-14.433593-3.222656-3.046876-7.457031-4.917969-12.109375-4.917969-10.0625 0-18.21875 8.664062-18.21875 19.351562v281.960938c0 10.34375 7.328125 19.429687 17.050781 20.078125 5.148438.34375 9.871094-1.609375 13.375-4.972656-3.835937-3.75-6.214843-9.222657-6.214843-15.101563zm0 0"/><path d="m24.214844 68.953125v-30.761719c0-6.890625 5.585937-12.476562 12.476562-12.476562h265.613282c6.890624 0 12.476562 5.585937 12.476562 12.476562v30.761719c0 6.890625-5.585938 12.476563-12.476562 12.476563h-265.613282c-6.890625 0-12.476562-5.585938-12.476562-12.476563zm0 0"/></g><path d="m36.320312 25.714844c-6.6875 0-12.105468 5.753906-12.105468 12.855468v30c0 7.101563 5.417968 12.859376 12.105468 12.859376h20.179688v-55.714844zm0 0" fill="#ccc033"/><path d="m98.621094 50c0 9.941406-8.058594 18-18 18s-18-8.058594-18-18 8.058594-18 18-18 18 8.058594 18 18zm0 0" fill="#ccc033"/></svg>