<svg height="456pt" viewBox="-3 0 455 456" width="456pt" xmlns="http://www.w3.org/2000/svg"><path d="m100.5 414.773438h-79.945312c-11.074219 0-20.054688-8.976563-20.054688-20.054688v-120.773438c0-11.074218 8.976562-20.054687 20.054688-20.054687h79.945312zm0 0" fill="#ccc033"/><path d="m40.5 394.71875v-120.773438c0-11.074218 8.980469-20.054687 20.054688-20.054687h-40c-11.074219 0-20.054688 8.980469-20.054688 20.054687v120.773438c0 11.074219 8.980469 20.054688 20.054688 20.054688h40c-11.074219 0-20.054688-8.980469-20.054688-20.054688zm0 0" fill="#99af17"/><path d="m.5 274.003906v60.328125h100v-80.441406h-80c-11.042969 0-20 9.003906-20 20.113281zm0 0" fill="#f9bb32"/><path d="m60.5 253.890625h-40c-11.046875 0-20 9.003906-20 20.113281v60.328125h40v-60.328125c0-11.109375 8.957031-20.113281 20-20.113281zm0 0" fill="#db9c2e"/><path d="m48.410156 346.398438h-45.816406c-1.15625 0-2.089844-.933594-2.089844-2.089844v-19.949219c0-1.152344.933594-2.089844 2.089844-2.089844h45.816406c1.152344 0 2.089844.9375 2.089844 2.089844v19.949219c0 1.15625-.9375 2.089844-2.089844 2.089844zm0 0" fill="#ffdf74"/><path d="m2.59375 322.265625c-1.15625 0-2.089844.9375-2.089844 2.089844v19.953125c0 1.152344.933594 2.089844 2.089844 2.089844h37.910156v-24.132813zm0 0" fill="#ffd551"/><path d="m42.808594 331.335938h-42.308594v6h42.308594c.476562 0 .855468-1.347657.855468-3 0-1.65625-.378906-3-.855468-3zm0 0" fill="#db9c2e"/><path d="m.5 331.335938h40v6h-40zm0 0" fill="#bf6c0d"/><path d="m428.445312 414.773438h-79.941406v-160.882813h79.941406c11.078126 0 20.058594 8.980469 20.058594 20.058594v120.769531c-.003906 11.078125-8.980468 20.054688-20.058594 20.054688zm0 0" fill="#ccc033"/><path d="m428.5 253.890625h-80v80.441406h100v-60.328125c0-11.109375-8.953125-20.113281-20-20.113281zm0 0" fill="#f9bb32"/><path d="m348.5 253.890625v160.882813h65.816406c.441406-2.65625.683594-5.382813.683594-8.164063v-152.714844h-66.5zm0 0" fill="#99af17"/><path d="m348.5 253.890625h66.5v80.441406h-66.5zm0 0" fill="#db9c2e"/><path d="m400.667969 322.265625h45.910156c1.152344 0 2.089844.9375 2.089844 2.089844v19.949219c0 1.15625-.9375 2.089843-2.089844 2.089843h-45.910156c-1.105469 0-2-.894531-2-2v-20.128906c0-1.105469.894531-2 2-2zm0 0" fill="#ffdf74"/><path d="m400.503906 346.398438h14.5v-24.128907h-14.5c-1.105468 0-2 .894531-2 2v20.128907c0 1.105468.894532 2 2 2zm0 0" fill="#ffd551"/><path d="m406.359375 337.335938h42.308594v-6h-42.308594c-.476563 0-.855469 1.34375-.855469 3 0 1.652343.378906 3 .855469 3zm0 0" fill="#db9c2e"/><path d="m415.003906 331.335938h-8.644531c-.476563 0-.855469 1.34375-.855469 3 0 1.652343.382813 3 .855469 3h8.644531zm0 0" fill="#bf6c0d"/><path d="m341.609375 456h-233.214844c-27.277343 0-49.390625-22.113281-49.390625-49.390625v-323.53125c0-27.277344 22.113282-49.390625 49.390625-49.390625h233.214844c27.277344 0 49.390625 22.113281 49.390625 49.390625v323.53125c0 27.277344-22.113281 49.390625-49.390625 49.390625zm0 0" fill="#eacf32"/><path d="m115 406.609375v-323.53125c0-27.28125 22.113281-49.390625 49.390625-49.390625h-56c-27.277344 0-49.390625 22.113281-49.390625 49.390625v323.53125c0 27.277344 22.113281 49.390625 49.390625 49.390625h56c-27.277344 0-49.390625-22.113281-49.390625-49.390625zm0 0" fill="#ccc033"/><path d="m341.742188 49.6875h-233.484376c-27.203124 0-49.253906 22.171875-49.253906 49.527344v42.976562c0 26.65625 21.488282 48.265625 48 48.265625h236c26.507813 0 48-21.609375 48-48.265625v-42.976562c-.003906-27.355469-22.054687-49.527344-49.261718-49.527344zm0 0" fill="#ccc033"/><path d="m282.289062 38.496094-17.074218-36.195313c-.660156-1.40625-2.070313-2.29687475-3.613282-2.29687475h-73.203124c-1.542969 0-2.949219.89062475-3.613282 2.29687475l-17.074218 36.195313c-1.257813 2.667968.675781 5.746094 3.613281 5.746094h107.355469c2.933593 0 4.867187-3.078126 3.609374-5.746094zm-26.261718-4.8125h-62.054688c-2.847656 0-4.78125-2.90625-3.695312-5.554688l4.117187-10.054687c.621094-1.507813 2.078125-2.488281 3.699219-2.488281h53.808594c1.621094 0 3.082031.980468 3.699218 2.488281l4.121094 10.054687c1.085938 2.648438-.847656 5.554688-3.695312 5.554688zm0 0" fill="#e58d23"/><path d="m207.710938 38.496094 2.269531-4.808594h-16.003907c-2.847656 0-4.785156-2.910156-3.699218-5.554688l4.121094-10.058593c.617187-1.503907 2.078124-2.488281 3.699218-2.488281h20.421875l6.269531-13.289063c.660157-1.402344 2.070313-2.296875 3.613282-2.296875h-40c-1.542969 0-2.953125.894531-3.613282 2.296875l-17.074218 36.199219c-1.257813 2.667968.675781 5.746094 3.613281 5.746094h40c-2.941406 0-4.875-3.078126-3.617187-5.746094zm0 0" fill="#bf6c0d"/><path d="m375 412.609375c-3.3125 0-6-2.6875-6-6v-97.273437c0-3.316407 2.6875-6 6-6s6 2.683593 6 6v97.273437c0 3.3125-2.6875 6-6 6zm0 0" fill="#fcda4f"/><path d="m341.742188 33.6875h-233.484376c-27.203124 0-49.253906 22.171875-49.253906 49.527344v42.976562c0 26.65625 21.488282 48.265625 48 48.265625h236c26.507813 0 48-21.609375 48-48.265625v-42.976562c-.003906-27.355469-22.054687-49.527344-49.261718-49.527344zm0 0" fill="#f9bb32"/><path d="m345 454.992188h-240v-106.945313c0-18.679687 15.144531-33.824219 33.824219-33.824219h172.351562c18.679688 0 33.824219 15.144532 33.824219 33.824219zm0 0" fill="#ffd551"/><path d="m309.445312 314.222656h-168.890624c-19.632813 0-35.554688 14.40625-35.554688 32.175782v43.101562h240v-43.101562c0-17.769532-15.917969-32.175782-35.554688-32.175782zm0 0" fill="#f9bb32"/><path d="m115 142.191406v-42.976562c0-27.355469 22.050781-49.527344 49.257812-49.527344h213.730469c-9.003906-9.835938-21.90625-16-36.246093-16h-233.484376c-27.203124 0-49.253906 22.171875-49.253906 49.527344v42.976562c0 26.65625 21.488282 48.265625 48 48.265625h20.304688c-7.648438-8.550781-12.308594-19.859375-12.308594-32.265625zm0 0" fill="#db9c2e"/><path d="m327.96875 242.832031h-21.933594c-6.648437 0-12.035156-5.386719-12.035156-12.035156v-197.109375h46v197.113281c0 6.644531-5.386719 12.03125-12.03125 12.03125zm0 0" fill="#ccc033"/><path d="m143.96875 242.832031h-21.933594c-6.648437 0-12.035156-5.386719-12.035156-12.035156v-197.109375h46v197.113281c0 6.644531-5.386719 12.03125-12.03125 12.03125zm0 0" fill="#ccc033"/><path d="m318 230.796875v-197.109375h-24v197.113281c0 6.644531 5.386719 12.035157 12.03125 12.035157h21.933594c.347656 0 .691406-.027344 1.03125-.054688-6.15625-.527344-10.996094-5.683594-10.996094-11.984375zm0 0" fill="#99af17"/><path d="m134 230.796875v-197.109375h-24v197.113281c0 6.644531 5.386719 12.035157 12.03125 12.035157h21.933594c.347656 0 .691406-.027344 1.03125-.054688-6.15625-.527344-10.996094-5.683594-10.996094-11.984375zm0 0" fill="#99af17"/><path d="m346.984375 147.808594h-59.964844c-3.324219 0-6.015625 2.695312-6.015625 6.015625v40.253906c0 3.324219 2.691406 6.019531 6.015625 6.019531h59.964844c3.320313 0 6.015625-2.695312 6.015625-6.019531v-40.25c0-3.324219-2.695312-6.019531-6.015625-6.019531zm-7.984375 38.210937h-44v-24.132812h44zm0 0" fill="#e58d23"/><path d="m162.984375 147.808594h-59.964844c-3.324219 0-6.015625 2.695312-6.015625 6.015625v40.253906c0 3.324219 2.691406 6.019531 6.015625 6.019531h59.964844c3.320313 0 6.015625-2.695312 6.015625-6.019531v-40.25c0-3.324219-2.695312-6.019531-6.015625-6.019531zm-7.984375 38.210937h-44v-24.132812h44zm0 0" fill="#e58d23"/><path d="m305 194.082031v-8.058593h-10v-24.136719h10v-8.0625c0-3.320313 2.695312-6.015625 6.015625-6.015625h-24c-3.320313 0-6.015625 2.695312-6.015625 6.015625v40.253906c0 3.324219 2.695312 6.019531 6.015625 6.019531h24c-3.320313 0-6.015625-2.695312-6.015625-6.015625zm0 0" fill="#bf6c0d"/><path d="m121 194.082031v-8.058593h-10v-24.136719h10v-8.0625c0-3.320313 2.695312-6.015625 6.015625-6.015625h-24c-3.320313 0-6.015625 2.695312-6.015625 6.015625v40.253906c0 3.324219 2.695312 6.019531 6.015625 6.019531h24c-3.320313 0-6.015625-2.695312-6.015625-6.015625zm0 0" fill="#bf6c0d"/><path d="m190.824219 314.222656h-52c-18.679688 0-33.824219 15.144532-33.824219 33.824219v106.945313h52v-106.945313c0-18.679687 15.144531-33.824219 33.824219-33.824219zm0 0" fill="#ffc34c"/><path d="m192.554688 314.222656h-52c-19.632813 0-35.554688 14.40625-35.554688 32.175782v43.097656h52v-43.097656c0-17.769532 15.921875-32.175782 35.554688-32.175782zm0 0" fill="#db9c2e"/><path d="m313.488281 401.804688h-175.976562c-2.214844 0-4.011719-1.792969-4.011719-4.011719v-16.109375c0-2.214844 1.796875-4.011719 4.011719-4.011719h175.976562c2.21875 0 4.011719 1.796875 4.011719 4.011719v16.109375c0 2.21875-1.796875 4.011719-4.011719 4.011719zm0 0" fill="#ffdf74"/><path d="m157.5 389.6875c0-2.21875 1.796875-4.011719 4.011719-4.011719h155.984375v-3.988281c0-2.21875-1.792969-4.011719-4.007813-4.011719h-175.976562c-2.214844 0-4.007813 1.792969-4.007813 4.011719v16.109375c0 2.214844 1.792969 4.011719 4.007813 4.011719h19.992187v-12.121094zm0 0" fill="#ffd551"/><path d="m306 392.335938h-163c-1.65625 0-3-1.347657-3-3 0-1.65625 1.34375-3 3-3h163c1.65625 0 3 1.34375 3 3 0 1.652343-1.34375 3-3 3zm0 0" fill="#db9c2e"/><path d="m306 399.507812h-13.472656v-14.828124c0-1.753907 1.421875-3.179688 3.179687-3.179688h7.113281c1.753907 0 3.179688 1.425781 3.179688 3.179688zm0 0" fill="#f9bb32"/><path d="m306 399.507812h-13.472656l-5.261719 18.191407h24zm0 0" fill="#db9c2e"/><path d="m303.265625 381.542969c-.148437-.019531-.292969-.042969-.445313-.042969h-7.113281c-1.757812 0-3.179687 1.421875-3.179687 3.179688v14.828124h8v-14.828124c0-1.605469 1.191406-2.917969 2.738281-3.136719zm0 0" fill="#db9c2e"/><path d="m299.265625 399.503906h-6.738281l-5.261719 18.195313h8l5.261719-18.195313zm0 0" fill="#bf6c0d"/><path d="m143 386.335938c-1.65625 0-3 1.34375-3 3 0 1.652343 1.34375 3 3 3h14.5v-2.648438c0-1.40625.722656-2.636719 1.8125-3.351562zm0 0" fill="#bf6c0d"/><path d="m200.394531 432.773438c0 9.941406-8.058593 18-18 18-9.941406 0-18-8.058594-18-18 0-9.941407 8.058594-18 18-18 9.941407 0 18 8.058593 18 18zm0 0" fill="#ffc34c"/><path d="m158 279.703125c0 9.941406-8.058594 18-18 18s-18-8.058594-18-18 8.058594-18 18-18 18 8.058594 18 18zm0 0" fill="#ccc033"/></svg>