<svg height="474pt" viewBox="0 -3 474.168 474" width="474pt" xmlns="http://www.w3.org/2000/svg"><path d="m474.167969 390.671875c0-18.777344-15.222657-34-34-34h-115.527344c-15.101563 0-27.882813 9.851563-32.320313 23.476563h-76.417968c-22.058594 0-39.9375 17.878906-39.9375 39.9375v10.113281h298.203125v-10.113281c0-1.515626-.101563-3.003907-.265625-4.472657h.265625zm0 0" fill="#f9bb32"/><path d="m474.167969 468.257812h-474.167969v-35.027343c0-4.417969 3.582031-8 8-8h466.164062v43.027343zm0 0" fill="#f9bb32"/><path d="m474.167969 426.066406h-258.089844v-.261718c1.191406-20.988282 18.535156-37.65625 39.820313-37.65625h76.421874c4.433594-13.625 17.21875-23.476563 32.320313-23.476563h97.414063c-5.917969-4.984375-13.546876-8-21.886719-8h-115.527344c-15.101563 0-27.882813 9.851563-32.320313 23.476563h-76.417968c-22.058594 0-39.9375 17.878906-39.9375 39.9375v5.144531h-167.964844c-4.417969 0-8 3.582031-8 8v35.027343h52v-19.027343c0-4.417969 3.582031-8 8-8h414.164062v-15.164063zm0 0" fill="#db9c2e"/><path d="m321.054688 363.976562-94.324219-352.023437c-2.015625-7.515625-6.765625-12.773437-10.617188-11.738281-3.847656 1.03125-5.335937 7.957031-3.320312 15.472656l94.324219 352.023438zm0 0" fill="#e58d23"/><path d="m220.792969 15.6875c-1.464844-5.464844-1.070313-10.609375.730469-13.410156-1.765626-1.710938-3.679688-2.527344-5.410157-2.0625-3.847656 1.03125-5.335937 7.957031-3.320312 15.472656l94.324219 352.023438 7.460937-2zm0 0" fill="#bf6c0d"/><path d="m69.375 365.101562-32.390625 55.550782c-2.550781 4.375-8.152344 5.875-12.550781 3.359375-4.449219-2.542969-5.972656-8.226563-3.390625-12.65625l32.3125-55.414063zm0 0" fill="#e58d23"/><path d="m256.851562 365.101562 32.390626 55.550782c2.554687 4.375 8.152343 5.875 12.550781 3.359375 4.449219-2.542969 5.976562-8.226563 3.394531-12.65625l-32.3125-55.414063zm0 0" fill="#e58d23"/><path d="m32.433594 424.011719c-4.449219-2.542969-5.972656-8.226563-3.390625-12.65625l30.3125-51.984375-6-3.429688-32.3125 55.414063c-2.582031 4.429687-1.0625 10.113281 3.390625 12.65625 2.753906 1.574219 5.976562 1.574219 8.628906.28125-.207031-.097657-.425781-.164063-.628906-.28125zm0 0" fill="#bf6c0d"/><path d="m297.242188 420.652344-32.390626-55.550782 10.023438-5.730468-2-3.429688-16.023438 9.160156 32.390626 55.550782c2.4375 4.171875 7.632812 5.6875 11.921874 3.644531-1.585937-.777344-2.964843-2.007813-3.921874-3.644531zm0 0" fill="#bf6c0d"/><path d="m406.671875 113.882812c-23.730469-70.21875-104.023437-109.429687-183.703125-88.078124-79.675781 21.347656-129.605469 95.449218-115.046875 168.125l1.875 8.136718c.921875 3.429688 5.648437 3.824219 7.082031.574219 7.285156-16.546875 21.714844-29.761719 40.539063-34.808594 18.3125-4.90625 36.875-1.011719 51.304687 9.039063 1.894532 1.320312 4.519532.613281 5.5-1.476563 7.453125-15.910156 21.558594-28.558593 39.867188-33.464843 18.3125-4.90625 36.875-1.011719 51.304687 9.039062 1.894531 1.320312 4.519531.613281 5.5-1.476562 7.453125-15.910157 21.558594-28.558594 39.867188-33.460938 18.824219-5.046875 37.929687-.8125 52.511719 9.871094 2.867187 2.101562 6.761718-.605469 5.84375-4.035156l-2.15625-8.058594zm0 0" fill="#ff9079"/><path d="m107.921875 193.929688 1.875 8.136718c.921875 3.429688 5.648437 3.824219 7.082031.574219 7.285156-16.546875 21.714844-29.761719 40.539063-34.804687 15.675781-4.199219 31.523437-1.933594 44.8125 5.101562-15.273438-76.421875-7.265625-139.625 20.742187-147.128906-79.679687 21.34375-129.609375 95.445312-115.050781 168.121094zm0 0" fill="#ff624b"/><path d="m406.671875 113.882812c-23.730469-70.21875-104.023437-109.429687-183.703125-88.078124 28.011719-7.507813 66.558594 43.238281 91.539062 117.078124 7.972657-12.753906 20.5625-22.652343 36.25-26.855468 18.820313-5.042969 37.925782-.8125 52.511719 9.875 2.863281 2.097656 6.761719-.605469 5.84375-4.039063l-2.160156-8.058593zm0 0" fill="#ff624b"/><path d="m382.820312 105.574219c-2.09375 0-4.121093-1.09375-5.226562-3.039063-11.019531-19.453125-28.019531-35.398437-49.152344-46.117187-2.960937-1.5-4.136718-5.109375-2.640625-8.066407 1.5-2.957031 5.121094-4.132812 8.066407-2.636718 23.25 11.789062 41.980468 29.390625 54.167968 50.902344 1.632813 2.878906.621094 6.542968-2.261718 8.175781-.933594.53125-1.953126.78125-2.953126.78125zm0 0" fill="#ff9079"/><path d="m305.570312 345.847656h-295.996093v-24.296875c0-8.835937 7.164062-16 16-16h264c8.835937 0 16 7.164063 16 16v24.296875zm0 0" fill="#fff4c1"/><path d="m451.820312 208.40625-141.925781 140.523438-17.292969-17.125c-6.324218-6.257813-6.324218-16.476563 0-22.738282l119.183594-118.011718c6.238282-6.171876 16.28125-6.171876 22.515625 0zm0 0" fill="#fff4c1"/><path d="m81.574219 305.550781h-56c-8.835938 0-16 7.164063-16 16v24.296875h56v-24.296875c0-8.835937 7.164062-16 16-16zm0 0" fill="#fce575"/><path d="m469.292969 231.820312-139.042969 137.671876-21.203125-20.996094 139.253906-137.878906c5.8125-5.753907 15.179688-5.753907 20.992188 0 5.898437 5.839843 5.898437 15.367187 0 21.203124zm0 0" fill="#bf6c0d"/><path d="m325.042969 348.496094 139.253906-137.878906c.773437-.765626 1.613281-1.421876 2.5-1.984376-5.75-3.660156-13.457031-3.003906-18.5 1.984376l-139.253906 137.878906zm0 0" fill="#a56021"/><path d="m331.148438 369.492188h-318.328126c-7.082031 0-12.820312-5.738282-12.820312-12.820313s5.738281-12.824219 12.820312-12.824219h318.324219v25.644532zm0 0" fill="#bf6c0d"/><path d="m12.820312 343.847656c-7.082031 0-12.820312 5.742188-12.820312 12.824219s5.738281 12.820313 12.820312 12.820313h44.125c-.605468-1.488282-.945312-3.113282-.945312-4.820313 0-7.082031 5.738281-12.824219 12.820312-12.824219h252.230469l8.6875-8zm0 0" fill="#a56021"/><path d="m186.828125 136.660156c0 9.941406-8.058594 18-18 18-9.9375 0-18-8.058594-18-18s8.0625-18 18-18c9.941406 0 18 8.058594 18 18zm0 0" fill="#ff4b34"/><path d="m211.636719 29.304688c-73.003907 25.050781-117.570313 95.46875-103.714844 164.625l1.875 8.136718c.921875 3.429688 5.648437 3.824219 7.082031.574219 5.945313-13.5 16.648438-24.78125 30.609375-31.21875-9.816406-54.566406 16.449219-109.554687 64.148438-142.117187zm0 0" fill="#ff4b34"/><path d="m384.261719 390.585938c0 9.941406-8.058594 18-18 18-9.941407 0-18-8.058594-18-18 0-9.941407 8.058593-18 18-18 9.941406 0 18 8.058593 18 18zm0 0" fill="#db9c2e"/></svg>