<svg height="480pt" viewBox="-104 0 480 480" width="480pt" xmlns="http://www.w3.org/2000/svg"><path d="m54.496094 108.71875h-36v-103.558594c0-2.453125 1.988281-4.441406 4.441406-4.441406h27.117188c2.453124 0 4.441406 1.988281 4.441406 4.441406zm0 0" fill="#ff624b"/><path d="m38.9375.71875h-16c-2.453125 0-4.441406 1.988281-4.441406 4.441406v103.558594h16v-103.558594c0-2.453125 1.988281-4.441406 4.441406-4.441406zm0 0" fill="#ff4b34"/><path d="m227.566406 97.355469h-183.042968l-42.21875 42.101562 16.71875 76.605469h.011718l5.152344 21.867188c.425781 1.804687 2.039062 3.082031 3.894531 3.082031h215.949219c1.855469 0 3.46875-1.277344 3.894531-3.082031l5.160157-21.867188 16.726562-76.605469zm0 0" fill="#ff9079"/><path d="m75.023438 216.0625-16.71875-76.605469 42.21875-42.101562h-56l-42.21875 42.101562 16.71875 76.605469h.011718l5.152344 21.867188c.425781 1.804687 2.039062 3.082031 3.894531 3.082031h52.832031l-5.878906-24.949219zm0 0" fill="#ff624b"/><path d="m253.164062 109.441406h-36v-104.972656c0-2.464844 2-4.46875 4.472657-4.46875h27.0625c2.464843 0 4.46875 2 4.46875 4.46875v104.972656zm0 0" fill="#ff624b"/><path d="m203.113281 52.933594c-32.652343 0-59.980469 22.832031-67.074219 53.464844-6.976562-30.800782-34.382812-53.796876-67.152343-53.796876-38.042969 0-68.886719 30.984376-68.886719 69.203126 0 38.222656 30.84375 69.207031 68.886719 69.207031 32.652343 0 59.980469-22.832031 67.074219-53.464844 6.976562 30.800781 34.382812 53.796875 67.152343 53.796875 38.042969 0 68.886719-30.984375 68.886719-69.207031 0-38.222657-30.84375-69.203125-68.886719-69.203125zm0 0" fill="#ff9079"/><path d="m203.113281 181.34375c-3.3125 0-6-2.6875-6-6 0-3.316406 2.6875-6 6-6 25.855469 0 46.886719-21.179688 46.886719-47.207031 0-3.316407 2.6875-6 6-6s6 2.683593 6 6c0 32.648437-26.414062 59.207031-58.886719 59.207031zm0 0" fill="#ffd59a"/><path d="m24.785156 328.714844 2.96875-12.242188c.4375-1.792968 2.042969-3.058594 3.886719-3.058594h208.417969c1.828125 0 3.421875 1.230469 3.875 3 1.132812 4.457032 3.132812 12.300782 3.132812 12.300782l5.882813 24.945312h-.214844l10.570313 46.542969h-2.988282c-13.546875.390625-69.429687 6.324219-87.4375 76.746094-.457031 1.78125-2.039062 3.046875-3.875 3.046875h-65.964844c-1.839843 0-3.421874-1.265625-3.878906-3.046875-18.007812-70.421875-73.886718-76.355469-87.4375-76.746094h-2.988281l10.449219-46.542969h-.285156s5.886718-24.945312 5.886718-24.945312zm0 0" fill="#ff9079"/><path d="m243.695312 392.132812c-2.742187 0-5.214843-1.886718-5.84375-4.671874l-11.007812-48.472657c-.050781-.21875-.089844-.441406-.113281-.664062l-1.042969-4.417969c-.757812-3.226562 1.238281-6.457031 4.460938-7.214844 3.226562-.765625 6.460937 1.238282 7.21875 4.460938l1.207031 5.132812c.0625.25.105469.507813.128906.761719l10.847656 47.757813c.734375 3.230468-1.289062 6.445312-4.523437 7.179687-.445313.101563-.894532.148437-1.332032.148437zm0 0" fill="#ffd59a"/><path d="m108.886719 175.011719c-38.042969 0-68.886719-30.984375-68.886719-69.207031 0-21.3125 9.597656-40.367188 24.679688-53.0625-36.082032 2.1875-64.679688 32.261718-64.679688 69.0625 0 38.222656 30.84375 69.207031 68.886719 69.207031 16.824219 0 32.226562-6.074219 44.183593-16.140625-1.382812.082031-2.777343.140625-4.183593.140625zm0 0" fill="#ff624b"/><path d="m151.785156 148.414062v-72.378906c-5.523437 6.207032-9.96875 13.40625-12.988281 21.320313h-5.460937c-3.449219-9.171875-8.8125-17.382813-15.550782-24.21875v75.277343c0 2.210938 1.789063 4 4 4h26c2.207032 0 4-1.789062 4-4zm0 0" fill="#ffc34c"/><path d="m262.472656 400.203125h.832032l-.09375-.40625c-.246094.140625-.492188.265625-.738282.40625zm0 0" fill="#ff624b"/><path d="m147.039062 468c-1.839843 0-3.421874-1.269531-3.878906-3.046875-18.007812-70.421875-73.886718-76.359375-87.4375-76.746094h-2.988281l10.449219-46.546875h-.285156s5.886718-24.945312 5.886718-24.945312l.800782-3.296875h-37.945313c-1.84375 0-3.449219 1.261719-3.886719 3.054687l-2.96875 12.242188s-5.886718 24.945312-5.886718 24.945312h.285156l-10.449219 46.546875h2.988281c13.550782.386719 69.429688 6.324219 87.4375 76.746094.457032 1.78125 2.039063 3.046875 3.878906 3.046875h65.964844c1.835938 0 3.417969-1.269531 3.875-3.046875.796875-3.125 1.695313-6.078125 2.636719-8.953125zm0 0" fill="#ff624b"/><path d="m130.644531 152.414062h10.546875c-2.273437-4.6875-4.050781-9.664062-5.230468-14.871093-1.203126 5.210937-3.011719 10.1875-5.316407 14.871093zm0 0" fill="#f9bb32"/><path d="m110.125 340.734375c0 9.941406-8.058594 18-18 18s-18-8.058594-18-18 8.058594-18 18-18 18 8.058594 18 18zm0 0" fill="#ff624b"/><path d="m90.722656 79.835938c0 9.9375-8.058594 18-18 18s-18-8.0625-18-18c0-9.941407 8.058594-18 18-18s18 8.058593 18 18zm0 0" fill="#ff624b"/><g fill="#fff4c1"><path d="m142.785156 114.71875c0 4.417969-3.582031 8-8 8-4.417968 0-8-3.582031-8-8s3.582032-8 8-8c4.417969 0 8 3.582031 8 8zm0 0"/><path d="m142.785156 138.71875c0 4.417969-3.582031 8-8 8-4.417968 0-8-3.582031-8-8s3.582032-8 8-8c4.417969 0 8 3.582031 8 8zm0 0"/></g></svg>