<svg height="497pt" viewBox="0 -52 497.408 497" width="497pt" xmlns="http://www.w3.org/2000/svg"><path d="m466.28125 392.402344 29.433594-29.433594c2.257812-2.257812 2.257812-5.914062 0-8.171875l-65.484375-65.484375-27.238281 27.238281 54.484374 75.082031c2.089844 2.882813 6.246094 3.246094 8.804688.769532zm0 0" fill="#ccc033"/><path d="m492.097656 351.179688-18.113281 18.109374c-2.554687 2.476563-6.710937 2.113282-8.800781-.765624l-48.003906-66.15625-14.1875 14.183593 54.484374 75.082031c2.089844 2.882813 6.246094 3.246094 8.804688.769532l29.433594-29.433594c2.253906-2.257812 2.253906-5.914062 0-8.171875zm0 0" fill="#99af17"/><path d="m203.230469 307.347656c-63.929688-63.933594-63.929688-167.589844 0-231.523437l6.8125-6.808594 231.519531 231.519531-6.808594 6.8125c-63.933594 63.929688-167.589844 63.929688-231.523437 0zm0 0" fill="#eacf32"/><path d="m241.753906 307.347656c-59.726562-59.726562-63.640625-154.109375-11.777344-218.394531l-19.933593-19.9375-6.8125 6.808594c-63.929688 63.9375-63.929688 167.589843 0 231.523437 36.878906 36.875 86.960937 52.433594 135.023437 46.769532-35.269531-4.152344-69.445312-19.714844-96.5-46.769532zm0 0" fill="#ccc033"/><path d="m395.289062 97.582031c-19.019531 2.324219-36.832031 7.332031-51.972656 14.085938-23.652344 5.453125-46.152344 21.097656-60.117187 44.320312-24.117188 40.105469-13.664063 87.632813 23.34375 106.15625 37.011719 18.523438 86.566406 1.027344 110.683593-39.078125 6.011719-9.996094 9.875-20.453125 11.714844-30.808594 36.503906-11.9375 62.636719-33.632812 63.125-55.332031.640625-28.335937-42.6875-45.949219-96.777344-39.34375zm0 0" fill="#fcda4f"/><path d="m380.640625 86.289062c-20.210937 2.613282-39.164063 8.070313-55.289063 15.355469-25.15625 5.972657-49.164062 22.753907-64.171874 47.523438-25.917969 42.765625-15.1875 93.148437 23.964843 112.527343 39.15625 19.382813 91.902344.425782 117.820313-42.339843 6.460937-10.660157 10.640625-21.796875 12.671875-32.804688 38.851562-12.957031 66.765625-36.191406 67.453125-59.234375.898437-30.09375-44.96875-48.460937-102.449219-41.027344zm0 0" fill="#eacf32"/><path d="m379.453125 78.765625c-19.5625 2.53125-37.902344 7.8125-53.507813 14.863281-24.347656 5.78125-47.582031 22.019532-62.105468 45.992188-25.082032 41.386718-14.695313 90.144531 23.195312 108.902344 37.890625 18.753906 88.9375.410156 114.019532-40.980469 6.25-10.316407 10.296874-21.089844 12.265624-31.742188 37.601563-12.539062 64.613282-35.027343 65.28125-57.328125.871094-29.121094-43.523437-46.898437-99.148437-39.707031zm0 0" fill="#ccc033"/><path d="m412.804688 175.96875c-1.28125 2.609375-2.699219 5.199219-4.25 7.761719-25.082032 41.386719-76.128907 59.734375-114.019532 40.976562-28.023437-13.867187-40.996094-44.148437-35.714844-75.71875-18.355468 39.125-6.847656 82.175781 28.214844 99.535157 37.894532 18.753906 88.941406.410156 114.019532-40.980469 6.253906-10.316407 10.300781-21.089844 12.265624-31.742188-.167968.054688-.34375.109375-.515624.167969zm0 0" fill="#99af17"/><path d="m457.320312 111.941406c-1.671874 0-3.335937-.695312-4.523437-2.054687-16.894531-19.351563-47.863281-14.59375-48.171875-14.539063-3.265625.511719-6.351562-1.691406-6.886719-4.957031-.535156-3.265625 1.667969-6.34375 4.933594-6.886719 1.539063-.246094 37.824219-5.953125 59.167969 18.492188 2.179687 2.496094 1.921875 6.285156-.574219 8.464844-1.140625.996093-2.546875 1.480468-3.945313 1.480468zm0 0" fill="#eacf32"/><path d="m372.921875 194.984375c0 9.574219-7.761719 17.332031-17.335937 17.332031-9.574219 0-17.332032-7.757812-17.332032-17.332031s7.757813-17.335937 17.332032-17.335937c9.574218 0 17.335937 7.761718 17.335937 17.335937zm0 0" fill="#99af17"/><path d="m251.253906 262.265625c-25.785156-25.785156-59.292968-39.101563-93.078125-40.019531 5.914063 31.175781 20.925781 60.96875 45.054688 85.097656 24.875 24.871094 55.761719 40.023438 87.980469 45.542969-1.484376-32.945313-14.800782-65.460938-39.957032-90.621094zm0 0" fill="#fcda4f"/><path d="m236.707031 101.558594c0 55.980468-45.378906 101.355468-101.355469 101.355468-55.976562 0-101.355468-45.375-101.355468-101.355468 0-55.976563 45.378906-101.355469 101.355468-101.355469 55.976563 0 101.355469 45.378906 101.355469 101.355469zm0 0" fill="#eacf32"/><path d="m72.519531 101.558594c0-49.386719 35.332031-90.503906 82.09375-99.503906-6.238281-1.199219-12.671875-1.847657-19.257812-1.847657-55.980469 0-101.359375 45.378907-101.359375 101.355469s45.378906 101.355469 101.359375 101.355469c6.585937 0 13.019531-.648438 19.257812-1.851563-46.761719-9-82.09375-50.117187-82.09375-99.507812zm0 0" fill="#ccc033"/><path d="m133.269531 82.101562c0 12.761719-10.347656 23.109376-23.113281 23.109376-12.761719 0-23.109375-10.347657-23.109375-23.109376 0-12.765624 10.347656-23.113281 23.109375-23.113281 12.765625 0 23.113281 10.347657 23.113281 23.113281zm0 0" fill="#fcf9de"/><path d="m121.714844 82.101562c0 6.378907-5.175782 11.554688-11.558594 11.554688-6.378906 0-11.554688-5.175781-11.554688-11.554688 0-6.382812 5.175782-11.558593 11.554688-11.558593 6.382812 0 11.558594 5.175781 11.558594 11.558593zm0 0" fill="#a56021"/><path d="m44.890625 151.203125h-40.066406c-2.664063 0-4.824219-2.160156-4.824219-4.828125v-5.1875c0-19.363281 15.695312-35.054688 35.054688-35.054688h9.835937c11.160156 0 20.210937 9.046876 20.210937 20.207032v4.652344c-.003906 11.164062-9.050781 20.210937-20.210937 20.210937zm0 0" fill="#f9bb32"/><path d="m55.085938 116.148438h7.234374c-3.507812-5.984376-9.992187-10.015626-17.429687-10.015626h-9.835937c-19.359376 0-35.054688 15.695313-35.054688 35.054688v5.191406c0 2.664063 2.160156 4.824219 4.824219 4.824219h15.207031c0-19.359375 15.691406-35.054687 35.054688-35.054687zm0 0" fill="#db9c2e"/><path d="m208.738281 312.585938c1.105469 1.003906 2.21875 1.992187 3.339844 2.964843.390625.339844.78125.679688 1.171875 1.011719 1.5 1.273438 3.015625 2.523438 4.550781 3.730469.046875.035156.097657.074219.144531.109375 1.496094 1.175781 3.011719 2.316406 4.535157 3.433594.363281.261718.722656.519531 1.085937.78125 1.355469.972656 2.71875 1.925781 4.097656 2.851562.246094.164062.488282.335938.738282.5 3.351562 2.226562 6.769531 4.320312 10.242187 6.273438.214844.121093.425781.238281.640625.359374 5.351563 2.984376 10.835938 5.648438 16.425782 7.984376.042968.015624.085937.035156.128906.050781 11.386718 4.75 23.207031 8.152343 35.210937 10.222656.054688.007813.105469.015625.160157.027344-.179688-4.050781-.546876-8.097657-1.085938-12.121094-17.53125-7.902344-33.96875-19.011719-48.371094-33.417969-22.285156-22.285156-36.792968-49.398437-43.539062-77.96875-12.984375-4.363281-26.484375-6.761718-40.035156-7.132812.1875 1 .414062 1.992187.621093 2.988281.269531 1.292969.546875 2.582031.84375 3.867187.253907 1.082032.527344 2.160157.800781 3.238282.320313 1.246094.65625 2.484375 1.007813 3.722656.285156 1.023438.566406 2.042969.871094 3.058594.609375 2.007812 1.25 4.007812 1.9375 5.996094.296875.867187.628906 1.730468.945312 2.59375.515625 1.421874 1.046875 2.84375 1.605469 4.253906.371094.9375.757812 1.875 1.148438 2.808594.5625 1.339843 1.144531 2.675781 1.742187 4.003906.382813.851562.757813 1.707031 1.160156 2.558594.964844 2.054687 1.96875 4.101562 3.027344 6.125.265625.507812.554687 1.007812.828125 1.511718.875 1.632813 1.773438 3.25 2.707031 4.855469.4375.753906.890625 1.5 1.34375 2.25.859375 1.421875 1.742188 2.832031 2.644531 4.230469.441407.679687.875 1.367187 1.324219 2.042968 1.335938 2 2.707031 3.984376 4.140625 5.9375.152344.207032.316406.410157.472656.617188 1.324219 1.785156 2.691407 3.546875 4.09375 5.285156.484376.601563.984376 1.199219 1.480469 1.796875 1.164063 1.398438 2.351563 2.785157 3.566407 4.15625.503906.566407 1 1.136719 1.515624 1.695313 1.699219 1.863281 3.429688 3.703125 5.230469 5.503906 1.398438 1.398438 2.824219 2.753906 4.257813 4.09375.40625.386719.824218.765625 1.242187 1.148438zm0 0" fill="#eacf32"/><path d="m175.511719 28.992188c0 9.574218-7.761719 17.335937-17.335938 17.335937s-17.332031-7.761719-17.332031-17.335937c0-9.570313 7.757812-17.332032 17.332031-17.332032s17.335938 7.761719 17.335938 17.332032zm0 0" fill="#ccc033"/></svg>