<svg height="476pt" viewBox="-9 0 476 476.24721" width="476pt" xmlns="http://www.w3.org/2000/svg"><path d="m320.789062 367.554688h-264c-4.417968 0-8-3.582032-8-8v-222h280v222c0 4.417968-3.582031 8-8 8zm0 0" fill="#fcda4f"/><path d="m104.789062 359.554688v-222h-56v222c0 4.417968 3.582032 8 8 8h56c-4.417968 0-8-3.582032-8-8zm0 0" fill="#eacf32"/><path d="m266.125 266.140625h-114.5c-6.628906 0-12-5.375-12-12v-29.75c0-6.628906 5.371094-12 12-12h114.5zm0 0" fill="#e58d23"/><path d="m30.910156 137.371094h320l-156.980468-135.429688c-3.03125-2.617187-7.535157-2.585937-10.535157.074219zm0 0" fill="#ff624b"/><path d="m307.871094 127.371094c-1.390625 0-2.785156-.476563-3.917969-1.457032l-81.644531-70.4375c-2.507813-2.164062-2.789063-5.957031-.625-8.464843 2.167968-2.507813 5.953125-2.785157 8.460937-.621094l81.644531 70.4375c2.507813 2.164063 2.789063 5.953125.625 8.460937-1.1875 1.375-2.863281 2.082032-4.542968 2.082032zm0 0" fill="#ff9079"/><path d="m91.789062 334.140625h-16c-2.210937 0-4-1.792969-4-4v-120c0-2.210937 1.789063-4 4-4h16c2.210938 0 4 1.789063 4 4v120c0 2.207031-1.789062 4-4 4zm0 0" fill="#a56021"/><path d="m279.789062 266.140625v24h-184v-24zm0 0" fill="#bf6c0d"/><path d="m299.789062 334.140625h-16c-2.210937 0-4-1.792969-4-4v-68c0-2.210937 1.789063-4 4-4h16c2.210938 0 4 1.789063 4 4v68c0 2.207031-1.789062 4-4 4zm0 0" fill="#bf6c0d"/><path d="m301.136719 302.640625h-142.941407c-4.710937 0-8.53125-3.820313-8.53125-8.53125v-82.941406c0-4.710938 3.820313-8.527344 8.53125-8.527344h142.941407c4.710937 0 8.527343 3.816406 8.527343 8.527344v82.941406c0 4.710937-3.816406 8.53125-8.527343 8.53125zm0 0" fill="#ffa730"/><path d="m127.625 250.140625h-8c-8.835938 0-16-7.164063-16-16s7.164062-16 16-16h8c8.835938 0 16 7.164063 16 16s-7.164062 16-16 16zm0 0" fill="#e58d23"/><path d="m140.226562 266.140625h-44.4375v-8c0-4.417969 3.582032-8 8-8h28.4375c4.417969 0 8 3.582031 8 8zm0 0" fill="#ffa730"/><path d="m376.125 169.554688h-372c-2.210938 0-4-1.792969-4-4v-24c0-2.210938 1.789062-4 4-4h372c2.207031 0 4 1.789062 4 4v24c0 2.207031-1.792969 4-4 4zm0 0" fill="#ff9079"/><path d="m415.707031 356.332031c0-42.121093-34.234375-76.269531-76.464843-76.269531-42.230469 0-76.464844 34.148438-76.464844 76.269531 0 42.125 34.234375 76.273438 76.464844 76.273438 42.230468 0 76.464843-34.148438 76.464843-76.273438zm0 0" fill="#bf6c0d"/><path d="m231.148438 283.0625h14.65625v95.722656h-14.65625zm0 0" fill="#fff4c1"/><path d="m241.671875 476.246094h-6.390625c-4.59375 0-8.320312-3.726563-8.320312-8.320313v-86.117187c0-1.671875 1.351562-3.023438 3.023437-3.023438h16.980469c1.671875 0 3.027344 1.351563 3.027344 3.023438v86.117187c0 4.59375-3.722657 8.320313-8.320313 8.320313zm0 0" fill="#bf6c0d"/><path d="m442.675781 476.246094h-6.390625c-4.59375 0-8.320312-3.726563-8.320312-8.320313v-86.117187c0-1.671875 1.351562-3.023438 3.023437-3.023438h16.980469c1.671875 0 3.027344 1.351563 3.027344 3.023438v86.117187c0 4.59375-3.722656 8.320313-8.320313 8.320313zm0 0" fill="#bf6c0d"/><path d="m435.441406 237.984375c-1.375-.984375-3.289062.027344-3.289062 1.714844v139.085937h14.65625v-11.496094h8.636718c1.152344 0 2.09375-.933593 2.09375-2.085937v-41.25c0-63.085937-15.230468-81.066406-22.097656-85.96875zm0 0" fill="#fff4c1"/><path d="m231.148438 283.0625h8.378906v95.722656h-8.378906zm0 0" fill="#fce575"/><path d="m255.867188 236.253906c-1.824219.109375-3.191407 2.035156-3.191407 4.179688v36.113281c0 2.039063-1.402343 3.695313-3.136719 3.695313h-4.191406c-1.730468 0-3.136718-1.65625-3.136718-3.695313v-36.335937c0-2.191407-1.507813-3.964844-3.371094-3.964844h-.71875c-1.863282 0-3.371094 1.773437-3.371094 3.964844v36.335937c0 2.039063-1.40625 3.695313-3.140625 3.695313h-4.1875c-1.734375 0-3.140625-1.65625-3.140625-3.695313v-36.113281c0-2.144532-1.367188-4.070313-3.1875-4.179688-1.945312-.121094-3.550781 1.699219-3.550781 3.957032v60.996093c0 6.800781 4.6875 12.3125 10.46875 12.3125h20.9375c5.78125 0 10.46875-5.511719 10.46875-12.3125v-60.996093c-.003907-2.257813-1.609375-4.078126-3.550781-3.957032zm0 0" fill="#fff4c1"/><path d="m230.105469 301.207031v-20.964843h-2.683594c-1.734375 0-3.140625-1.65625-3.140625-3.695313v-36.113281c0-2.144532-1.367188-4.070313-3.1875-4.179688-1.945312-.121094-3.550781 1.699219-3.550781 3.957032v60.996093c0 6.800781 4.6875 12.3125 10.46875 12.3125h12.5625c-5.785157 0-10.46875-5.511719-10.46875-12.3125zm0 0" fill="#fce575"/><path d="m239.527344 466.800781v-84.578125c0-1.898437 1.539062-3.4375 3.441406-3.4375h-12.5625c-1.902344 0-3.441406 1.539063-3.441406 3.4375v84.578125c0 5.21875 4.238281 9.445313 9.46875 9.445313h4.089844c1.523437 0 2.960937-.367188 4.234374-1.003906-3.101562-1.554688-5.230468-4.746094-5.230468-8.441407zm0 0" fill="#a56021"/><path d="m442.621094 283.0625v-37.238281c-2.703125-4.089844-5.265625-6.476563-7.179688-7.839844-1.375-.984375-3.289062.027344-3.289062 1.714844v139.085937h10.46875zm0 0" fill="#fce575"/><path d="m440.527344 466.800781v-84.578125c0-1.898437 1.542968-3.4375 3.445312-3.4375h-12.5625c-1.902344 0-3.445312 1.539063-3.445312 3.4375v84.578125c0 5.21875 4.242187 9.445313 9.472656 9.445313h4.089844c1.523437 0 2.957031-.367188 4.234375-1.003906-3.101563-1.554688-5.234375-4.746094-5.234375-8.441407zm0 0" fill="#a56021"/><path d="m296.277344 356.332031c0-36.378906 25.542968-66.789062 59.714844-74.414062-5.394532-1.199219-10.996094-1.855469-16.75-1.855469-42.230469 0-76.464844 34.148438-76.464844 76.269531 0 42.125 34.230468 76.273438 76.464844 76.273438 5.753906 0 11.355468-.65625 16.75-1.859375-34.171876-7.617188-59.714844-38.03125-59.714844-74.414063zm0 0" fill="#a56021"/><path d="m405.238281 356.332031c0-36.355469-29.546875-65.828125-65.996093-65.828125-36.449219 0-65.996094 29.472656-65.996094 65.828125s29.546875 65.828125 65.996094 65.828125c36.449218 0 65.996093-29.472656 65.996093-65.828125zm0 0" fill="#ffdf74"/><path d="m392.675781 356.332031c0-29.433593-23.921875-53.296875-53.433593-53.296875-29.511719 0-53.433594 23.863282-53.433594 53.296875 0 29.4375 23.921875 53.300781 53.433594 53.300781 29.511718 0 53.433593-23.863281 53.433593-53.300781zm0 0" fill="#fff4c1"/><path d="m339.242188 405.277344c-2.207032 0-4-1.792969-4-4 0-2.207032 1.792968-4 4-4 22.640624 0 41.058593-18.367188 41.058593-40.945313 0-2.207031 1.789063-4 4-4 2.207031 0 4 1.792969 4 4 0 26.992188-22.007812 48.945313-49.058593 48.945313zm0 0" fill="#fcf9de"/><path d="m193.929688 1.941406c-3.035157-2.617187-7.539063-2.585937-10.535157.074219l-152.484375 135.355469h56l130.121094-115.5zm0 0" fill="#ff4b34"/><path d="m56.125 165.554688v-24c0-2.210938 1.789062-4 4-4h-56c-2.210938 0-4 1.789062-4 4v24c0 2.207031 1.789062 4 4 4h56c-2.210938 0-4-1.792969-4-4zm0 0" fill="#ff624b"/><path d="m95.789062 266.140625h9v24h-9zm0 0" fill="#a56021"/><path d="m103.789062 250.140625c-4.417968 0-8 3.582031-8 8v8h9v-16zm0 0" fill="#e58d23"/><path d="m149.957031 342.140625c0 9.941406-8.058593 18-18 18-9.941406 0-18-8.058594-18-18s8.058594-18 18-18c9.941407 0 18 8.058594 18 18zm0 0" fill="#eacf32"/></svg>