<svg height="475pt" viewBox="0 -1 475.31058 475" width="475pt" xmlns="http://www.w3.org/2000/svg"><path d="m225.988281 82.304688h20v116h-20zm0 0" fill="#e58d23"/><path d="m225.988281 82.304688h12v116h-12zm0 0" fill="#bf6c0d"/><path d="m469.96875 15.742188-459.261719 162.910156c-4.128906 1.460937-8.664062-.652344-10.199219-4.753906-1.566406-4.203126.609376-8.871094 4.835938-10.371094l459.257812-162.910156c4.128907-1.460938 8.667969.652343 10.199219 4.753906 1.570313 4.203125-.609375 8.875-4.832031 10.371094zm0 0" fill="#e58d23"/><path d="m416.292969 285.644531h.007812l-.035156-.058593c-.328125-.796876-.683594-1.582032-1.023437-2.371094-.285157-.660156-.5625-1.324219-.855469-1.980469-.472657-1.035156-.96875-2.058594-1.46875-3.082031-.191407-.402344-.371094-.804688-.570313-1.203125-.519531-1.046875-1.074218-2.085938-1.625-3.125-.195312-.371094-.378906-.742188-.574218-1.109375-.761719-1.398438-1.550782-2.789063-2.363282-4.164063l-27.96875-47.304687c-1.441406-2.433594-4.058594-3.929688-6.886718-3.929688h-273.878907c-2.828125 0-5.445312 1.496094-6.886719 3.929688l-27.96875 47.304687c-.8125 1.378907-1.601562 2.769531-2.363281 4.167969-.199219.367188-.378906.738281-.574219 1.109375-.550781 1.035156-1.101562 2.074219-1.625 3.121094-.199218.398437-.378906.800781-.570312 1.203125-.5 1.027344-.996094 2.046875-1.46875 3.085937-.296875.65625-.570312 1.316407-.855469 1.976563-.34375.789062-.695312 1.574218-1.023437 2.371094l-.035156.0625h.007812c-6.382812 15.5-9.695312 31.945312-9.695312 48.578124v22.191407c0 16.632812 3.3125 33.074219 9.695312 48.578125l.007812.015625c.515626 1.25 1.058594 2.492187 1.613282 3.730469.09375.207031.179687.421874.273437.625.519531 1.148437 1.070313 2.289062 1.625 3.425781.140625.292969.273438.589843.417969.878906.535156 1.078125 1.105469 2.148437 1.671875 3.214844.179687.339843.347656.683593.53125 1.023437.761719 1.402344 1.550781 2.792969 2.367187 4.175782l27.96875 47.304687c1.441407 2.433594 4.058594 3.929687 6.886719 3.929687h273.875c2.828125 0 5.449219-1.496093 6.886719-3.929687l27.972656-47.304687c.8125-1.378907 1.605469-2.773438 2.363282-4.175782.183593-.339844.351562-.683594.53125-1.023437.570312-1.066407 1.136718-2.136719 1.671874-3.214844.144532-.292969.277344-.589844.417969-.878906.554688-1.136719 1.109375-2.277344 1.628907-3.425781.09375-.207032.175781-.417969.269531-.625.554687-1.238282 1.101562-2.480469 1.617187-3.730469l.007813-.015625h-.003907c6.382813-15.503906 9.699219-31.945313 9.699219-48.578125v-22.191407c0-16.636718-3.3125-33.078124-9.695312-48.582031zm0 0" fill="#ff624b"/><path d="m396.09375 286.359375c-2.128906 0-4.191406-1.132813-5.277344-3.136719-.636718-1.167968-1.292968-2.324218-1.96875-3.46875l-23.90625-40.433594h-23.203125c-3.3125 0-6-2.683593-6-6 0-3.3125 2.6875-6 6-6h26.628907c2.121093 0 4.085937 1.121094 5.160156 2.949219l25.648437 43.375c.75 1.265625 1.476563 2.550781 2.183594 3.847657 1.582031 2.910156.507813 6.554687-2.40625 8.136718-.910156.492188-1.894531.730469-2.859375.730469zm0 0" fill="#ff9079"/><path d="m148.164062 469.390625-27.96875-47.304687c-.816406-1.382813-1.605468-2.773438-2.367187-4.175782-.183594-.339844-.351563-.683594-.53125-1.023437-.566406-1.070313-1.136719-2.140625-1.671875-3.21875-.144531-.289063-.277344-.585938-.417969-.878907-.554687-1.132812-1.105469-2.273437-1.625-3.421874-.09375-.207032-.179687-.417969-.273437-.625-.554688-1.238282-1.097656-2.480469-1.613282-3.734376l-.007812-.015624c-6.382812-15.5-9.695312-31.945313-9.695312-48.578126v-22.191406c0-16.632812 3.3125-33.074218 9.695312-48.578125h-.007812l.035156-.058593c.328125-.796876.683594-1.582032 1.023437-2.371094.285157-.660156.5625-1.324219.855469-1.980469.472656-1.035156.96875-2.058594 1.46875-3.082031.191406-.402344.371094-.804688.570312-1.203125.519532-1.046875 1.074219-2.085938 1.625-3.125.195313-.371094.378907-.742188.574219-1.109375.761719-1.398438 1.550781-2.789063 2.363281-4.164063l27.96875-47.304687c1.441407-2.433594 4.058594-3.929688 6.886719-3.929688h-56c-2.828125 0-5.445312 1.496094-6.886719 3.929688l-27.96875 47.304687c-.8125 1.378907-1.601562 2.769531-2.363281 4.167969-.199219.367188-.378906.738281-.574219 1.109375-.550781 1.035156-1.101562 2.074219-1.625 3.121094-.199218.398437-.378906.800781-.570312 1.203125-.5 1.027344-.996094 2.046875-1.46875 3.085937-.296875.65625-.570312 1.316407-.855469 1.976563-.34375.789062-.695312 1.574218-1.023437 2.371094l-.035156.0625h.007812c-6.382812 15.5-9.695312 31.945312-9.695312 48.578124v22.191407c0 16.632812 3.3125 33.074219 9.695312 48.578125l.007812.015625c.515626 1.25 1.058594 2.492187 1.613282 3.730469.09375.207031.179687.421874.273437.625.519531 1.148437 1.070313 2.289062 1.625 3.425781.140625.292969.273438.589843.417969.878906.535156 1.078125 1.105469 2.148437 1.671875 3.214844.179687.339843.347656.683593.53125 1.023437.761719 1.402344 1.550781 2.792969 2.367187 4.175782l27.96875 47.304687c1.441407 2.433594 4.058594 3.929687 6.886719 3.929687h56c-2.828125 0-5.449219-1.496093-6.886719-3.929687zm0 0" fill="#ff4b34"/><path d="m45.988281 334.222656v22.191406c0 13.214844 2.09375 26.308594 6.148438 38.90625h103.183593c8.835938 0 16-7.164062 16-16v-68c0-8.835937-7.164062-16-16-16h-103.183593c-4.054688 12.597657-6.148438 25.6875-6.148438 38.902344zm0 0" fill="#ffdf74"/><path d="m316.65625 395.320312h103.183594c4.054687-12.597656 6.148437-25.691406 6.148437-38.90625v-22.191406c0-13.210937-2.09375-26.304687-6.148437-38.902344h-103.183594c-8.835938 0-16 7.164063-16 16v68c0 8.835938 7.164062 16 16 16zm0 0" fill="#ffdf74"/><path d="m293.65625 218.113281h-116l15.746094-29.757812c1.386718-2.617188 4.105468-4.257813 7.070312-4.257813h70.363282c2.964843 0 5.683593 1.640625 7.074218 4.257813zm0 0" fill="#ff9079"/><path d="m63.90625 421.582031c.097656.167969.1875.335938.285156.503907l27.972656 47.304687c1.4375 2.433594 4.058594 3.929687 6.886719 3.929687h273.875c2.828125 0 5.445313-1.496093 6.886719-3.929687l27.96875-47.304687c.097656-.167969.1875-.335938.285156-.503907zm0 0" fill="#ff9079"/><path d="m278.65625 473.320312h-88v-170c0-4.417968 3.582031-8 8-8h72c4.417969 0 8 3.582032 8 8zm0 0" fill="#ffa730"/><path d="m46.234375 363.878906c.078125 1.316406.175781 2.628906.292969 3.941406.0625.664063.128906 1.324219.199218 1.988282.140626 1.324218.308594 2.640625.492188 3.960937.082031.570313.152344 1.144531.238281 1.714844.285157 1.859375.605469 3.710937.972657 5.558594.042968.207031.09375.410156.136718.621093.335938 1.652344.707032 3.300782 1.113282 4.941407.140624.574219.296874 1.144531.445312 1.71875.34375 1.3125.703125 2.621093 1.089844 3.925781.167968.574219.339844 1.148438.519531 1.722656.140625.453125.296875.894532.441406 1.34375h56c-4.058593-12.597656-6.1875-25.6875-6.1875-38.902344v-22.191406c0-13.21875 2.128907-26.304687 6.1875-38.90625h-56c-.140625.449219-.300781.890625-.441406 1.34375-.179687.574219-.351563 1.148438-.519531 1.726563-.386719 1.300781-.746094 2.609375-1.089844 3.925781-.148438.570312-.304688 1.140625-.445312 1.714844-.40625 1.640625-.777344 3.289062-1.113282 4.945312-.042968.207032-.09375.410156-.136718.617188-.367188 1.847656-.6875 3.703125-.972657 5.558594-.085937.574218-.15625 1.144531-.238281 1.714843-.183594 1.320313-.351562 2.640625-.492188 3.964844-.074218.660156-.136718 1.324219-.199218 1.984375-.117188 1.3125-.214844 2.625-.292969 3.941406-.035156.597656-.078125 1.191406-.105469 1.789063-.085937 1.890625-.140625 3.785156-.140625 5.679687v22.191406c0 1.894532.054688 3.785157.140625 5.675782.027344.597656.070313 1.191406.105469 1.789062zm0 0" fill="#ffd551"/><path d="m148.164062 469.390625-27.96875-47.304687c-.097656-.167969-.1875-.339844-.285156-.507813h-56c.097656.167969.1875.339844.285156.507813l27.96875 47.304687c1.441407 2.433594 4.058594 3.925781 6.886719 3.925781h56c-2.828125.003906-5.449219-1.492187-6.886719-3.925781zm0 0" fill="#ff624b"/><path d="m224.472656 184.097656h-24c-2.964844 0-5.683594 1.636719-7.070312 4.257813l-15.746094 29.757812h24l15.746094-29.757812c1.386718-2.617188 4.105468-4.257813 7.070312-4.257813zm0 0" fill="#ff624b"/><path d="m85.988281 372.414062v-22.191406c0-13.210937 2.09375-26.304687 6.148438-38.902344h79.183593c0-8.835937-7.164062-16-16-16h-103.183593c-4.054688 12.597657-6.148438 25.691407-6.148438 38.902344v22.191406c0 13.214844 2.09375 26.308594 6.148438 38.90625h35.980469c-1.394532-7.546874-2.128907-15.207031-2.128907-22.90625zm0 0" fill="#ffd551"/><path d="m356.65625 311.320312h67.203125c-1-5.402343-2.328125-10.746093-4.019531-16h-103.183594c-8.835938 0-16 7.164063-16 16v68c0 8.835938 7.164062 16 16 16h24v-68c0-8.835937 7.164062-16 16-16zm0 0" fill="#ffd551"/><path d="m85.988281 350.222656c0-13.210937 2.09375-26.304687 6.148438-38.902344h12c1.007812-5.402343 2.34375-10.746093 4.039062-16h-56c-.144531.449219-.304687.890626-.445312 1.34375-.175781.574219-.347657 1.148438-.519531 1.722657-.382813 1.300781-.746094 2.613281-1.085938 3.925781-.035156.132812-.070312.269531-.105469.402344-.113281.441406-.234375.878906-.34375 1.320312-.402343 1.640625-.773437 3.285156-1.113281 4.933594-.042969.207031-.09375.417969-.136719.625-.367187 1.84375-.683593 3.695312-.96875 5.550781-.0625.402344-.109375.800781-.164062 1.207031-.023438.171876-.050781.34375-.074219.515626-.183594 1.320312-.351562 2.640624-.492188 3.964843-.074218.660157-.136718 1.324219-.199218 1.984375-.117188 1.3125-.214844 2.621094-.292969 3.9375-.035156.597656-.078125 1.195313-.105469 1.792969-.085937 1.886719-.140625 3.78125-.140625 5.675781v22.191406c0 1.894532.054688 3.789063.140625 5.675782.027344.601562.070313 1.199218.105469 1.796875.078125 1.3125.175781 2.625.292969 3.933593.0625.664063.128906 1.324219.199218 1.988282.140626 1.324218.308594 2.640625.492188 3.960937.023438.171875.046875.34375.074219.515625.054687.402344.105469.804688.164062 1.207032.285157 1.855468.601563 3.707031.96875 5.550781.042969.207031.09375.414062.136719.625.339844 1.652343.710938 3.292969 1.113281 4.933593.109375.445313.230469.882813.34375 1.324219.035157.132813.066407.265625.105469.398438.34375 1.316406.703125 2.625 1.085938 3.925781.171874.578125.34375 1.152344.519531 1.726562.140625.449219.296875.890626.445312 1.34375h35.941407c-1.398438-7.546874-2.128907-15.207031-2.128907-22.90625zm0 0" fill="#ffc34c"/><path d="m238.65625 295.320312h-40c-4.417969 0-8 3.582032-8 8v170h40v-170c0-4.417968 3.582031-8 8-8zm0 0" fill="#e58d23"/><path d="m259.320312 384.320312h-50.257812c-4.417969 0-8-3.582031-8-8v-59.320312c0-4.417969 3.582031-8 8-8h50.257812c4.417969 0 8 3.582031 8 8v59.320312c0 4.417969-3.582031 8-8 8zm0 0" fill="#ffdf74"/><path d="m259.320312 309h-50.257812c-4.417969 0-8 3.582031-8 8v59.320312c0 4.417969 3.582031 8 8 8h21.59375v-59.320312h28.667969c4.417969 0 8 3.582031 8 8v-16c-.003907-4.417969-3.585938-8-8.003907-8zm0 0" fill="#ffd551"/><path d="m182.554688 247.789062c0 9.941407-8.058594 18-18 18-9.941407 0-18-8.058593-18-18 0-9.9375 8.058593-18 18-18 9.941406 0 18 8.0625 18 18zm0 0" fill="#ff4b34"/><path d="m12.507812 177.898438c-1.566406-4.203126.609376-8.871094 4.835938-10.371094l457.410156-162.253906c-1.570312-4.03125-6.058594-6.105469-10.152344-4.65625l-459.257812 162.910156c-4.226562 1.5-6.402344 6.167968-4.835938 10.371094 1.535157 4.101562 6.074219 6.214843 10.199219 4.753906l1.851563-.65625c-.011719-.035156-.035156-.066406-.050782-.097656zm0 0" fill="#bf6c0d"/><path d="m261.988281 91.96875c0 14.359375-11.640625 26-26 26s-26-11.640625-26-26 11.640625-26 26-26 26 11.640625 26 26zm0 0" fill="#ffc34c"/><path d="m225.988281 91.96875c0-11.566406 7.558594-21.359375 18-24.730469-2.519531-.816406-5.203125-1.269531-8-1.269531-14.359375 0-26 11.640625-26 26s11.640625 26 26 26c2.796875 0 5.480469-.453125 8-1.269531-10.441406-3.371094-18-13.164063-18-24.730469zm0 0" fill="#ffb74b"/><path d="m249.988281 91.96875c0 7.730469-6.265625 14-14 14-7.730469 0-14-6.269531-14-14s6.269531-14 14-14c7.734375 0 14 6.269531 14 14zm0 0" fill="#ffdf74"/><path d="m249.988281 91.96875c0 7.730469-6.265625 14-14 14-7.730469 0-14-6.269531-14-14s6.269531-14 14-14c7.734375 0 14 6.269531 14 14zm0 0" fill="#ffdf74"/><path d="m233.988281 91.96875c0-5.570312 3.277344-10.375 8-12.628906-1.820312-.867188-3.851562-1.371094-6-1.371094-7.71875 0-14 6.28125-14 14s6.28125 14 14 14c2.148438 0 4.179688-.5 6-1.371094-4.722656-2.253906-8-7.058594-8-12.628906zm0 0" fill="#ffd551"/></svg>