<svg height="480pt" viewBox="-3 0 480 480.616" width="480pt" xmlns="http://www.w3.org/2000/svg"><path d="m201.988281 193.25h71v133.25h-71zm0 0" fill="#e58d23"/><path d="m433.046875 364.375h-162.683594c-9.042969 0-16.375-7.332031-16.375-16.375v-187.246094c0-9.046875 7.332031-16.378906 16.375-16.378906h162.683594c22.609375 0 40.941406 18.332031 40.941406 40.941406v138.121094c0 22.609375-18.332031 40.9375-40.941406 40.9375zm0 0" fill="#ffb74b"/><path d="m201.988281 193.25h40v133.25h-40zm0 0" fill="#bf6c0d"/><path d="m333.988281 347.996094v-187.242188c0-9.046875 7.332031-16.378906 16.375-16.378906h-80c-9.042969 0-16.375 7.332031-16.375 16.378906v187.246094c0 9.042969 7.332031 16.375 16.375 16.375h80c-9.042969 0-16.375-7.332031-16.375-16.378906zm0 0" fill="#ffa730"/><path d="m273.988281 324.375v-140c0-11.046875 8.953125-20 20-20h140c11.046875 0 20 8.953125 20 20v140c0 11.046875-8.953125 20-20 20h-140c-11.046875 0-20-8.953125-20-20zm0 0" fill="#ffeacf"/><path d="m437.988281 330.375c-3.3125 0-6-2.683594-6-6v-140c0-3.3125 2.6875-6 6-6s6 2.6875 6 6v140c0 3.3125-2.6875 6-6 6zm0 0" fill="#fcf9de"/><path d="m108.0625 457.644531h73.578125c13.253906 0 24-10.746093 24-24v-312.394531h-106.664063v327.304688c0 5.019531 4.066407 9.089843 9.085938 9.089843zm0 0" fill="#a56021"/><path d="m116.554688 457.644531h-73.582032c-13.253906 0-24-10.746093-24-24v-312.394531h106.667969v327.304688c0 5.019531-4.066406 9.089843-9.085937 9.089843zm0 0" fill="#8c4c17"/><path d="m224.308594 112c0 61.855469-50.144532 112-112 112-61.855469 0-112-50.144531-112-112s50.144531-112 112-112c61.855468 0 112 50.144531 112 112zm0 0" fill="#ffd551"/><path d="m157.1875 480.617188h-89.753906c-6.144532 0-11.125-4.980469-11.125-11.125v-414.226563c0-30.179687 24.46875-54.648437 54.648437-54.648437h2.699219c30.183594 0 54.652344 24.46875 54.652344 54.648437v414.226563c0 6.144531-4.980469 11.125-11.121094 11.125zm0 0" fill="#ffd551"/><path d="m112.308594 469.492188v-414.226563c0-20.5 11.296875-38.359375 28-47.707031-7.886719-4.414063-16.96875-6.941406-26.652344-6.941406h-2.699219c-30.179687 0-54.648437 24.46875-54.648437 54.648437v414.226563c0 6.144531 4.980468 11.125 11.125 11.125h56c-6.144532 0-11.125-4.980469-11.125-11.125zm0 0" fill="#ffc34c"/><path d="m52.308594 112c0-52.804688 36.742187-97.160156 86-108.921875-8.351563-1.992187-17.046875-3.078125-26-3.078125-61.757813 0-112 50.242188-112 112s50.242187 112 112 112v-12.859375c-35.636719-18.757813-60-56.148437-60-99.140625zm0 0" fill="#ffc34c"/><path d="m192.308594 112c0 44.183594-35.816406 80-80 80s-80-35.816406-80-80 35.816406-80 80-80 80 35.816406 80 80zm0 0" fill="#e58d23"/><path d="m140.308594 384.914062h-56c-4.417969 0-8-3.578124-8-8v-24c0-4.417968 3.582031-8 8-8h56c4.417968 0 8 3.582032 8 8v24c0 4.421876-3.582032 8-8 8zm0 0" fill="#ff624b"/><path d="m84.308594 344.914062c-4.417969 0-8 3.582032-8 8v24c0 4.421876 3.582031 8 8 8h28v-40zm0 0" fill="#ff4b34"/><path d="m132.308594 280.457031c0 11.046875-8.953125 20-20 20s-20-8.953125-20-20c0-11.042969 8.953125-20 20-20s20 8.957031 20 20zm0 0" fill="#ccc033"/><path d="m92.308594 280.457031c0 11.046875 8.953125 20 20 20v-40c-11.046875 0-20 8.953125-20 20zm0 0" fill="#99af17"/><path d="m72.308594 112c0-37.277344 25.496094-68.597656 60-77.480469-6.394532-1.644531-13.09375-2.519531-20-2.519531-44.183594 0-80 35.816406-80 80s35.816406 80 80 80c6.90625 0 13.605468-.875 20-2.519531-34.503906-8.882813-60-40.203125-60-77.480469zm0 0" fill="#bf6c0d"/><path d="m176.308594 112c0 35.347656-28.65625 64-64 64-35.347656 0-64-28.652344-64-64s28.652344-64 64-64c35.34375 0 64 28.652344 64 64zm0 0" fill="#ffeacf"/><path d="m160.308594 118c-3.316406 0-6-2.6875-6-6 0-23.160156-18.84375-42-42-42-3.316406 0-6-2.6875-6-6s2.683594-6 6-6c29.777344 0 54 24.222656 54 54 0 3.3125-2.6875 6-6 6zm0 0" fill="#fcf9de"/><path d="m72.308594 112c0-31.1875 22.425781-57.21875 52-62.855469-3.890625-.742187-7.898438-1.144531-12-1.144531-35.289063 0-64 28.710938-64 64s28.710937 64 64 64c4.101562 0 8.109375-.402344 12-1.144531-29.570313-5.636719-52-31.667969-52-62.855469zm0 0" fill="#ffd59a"/><path d="m150.308594 138.25c0 9.941406-8.058594 18-18 18s-18-8.058594-18-18 8.058594-18 18-18 18 8.058594 18 18zm0 0" fill="#fcf9de"/><path d="m156.308594 452.15625c0 9.941406-8.058594 18-18 18s-18-8.058594-18-18 8.058594-18 18-18 18 8.058594 18 18zm0 0" fill="#ffc34c"/><path d="m293.988281 164.375c-11.046875 0-20 8.953125-20 20v140c0 11.046875 8.953125 20 20 20h40v-180zm0 0" fill="#ffd59a"/><path d="m331.664062 230.730469v54.039062c0 7.144531 7.535157 11.789063 13.921876 8.574219l53.652343-27.019531c7.042969-3.546875 7.042969-13.601563 0-17.148438l-53.652343-27.019531c-6.386719-3.210938-13.921876 1.429688-13.921876 8.574219zm0 0" fill="#ff624b"/></svg>