<svg height="480pt" viewBox="0 -68 480 480" width="480pt" xmlns="http://www.w3.org/2000/svg"><path d="m104.5 78.5h-64v-44c0-6.628906 5.371094-12 12-12h40c6.628906 0 12 5.371094 12 12zm0 0" fill="#ffa730"/><path d="m80.5 22.5h-28c-6.628906 0-12 5.371094-12 12v44h28v-44c0-6.628906 5.371094-12 12-12zm0 0" fill="#e58d23"/><path d="m355 56h-230l26.773438-42.839844c5.117187-8.1875 14.089843-13.160156 23.746093-13.160156h128.960938c9.652343 0 18.628906 4.972656 23.742187 13.160156zm0 0" fill="#f9bb32"/><path d="m182.058594 32.578125 4.5625-12c.589844-1.550781 2.078125-2.578125 3.738281-2.578125h99.277344c1.660156 0 3.148437 1.027344 3.738281 2.578125l4.5625 12c.996094 2.617187-.941406 5.421875-3.738281 5.421875h-108.402344c-2.796875 0-4.730469-2.804688-3.738281-5.421875zm0 0" fill="#ffdf74"/><path d="m210.621094 28.578125c.589844-1.550781 2.078125-2.578125 3.742187-2.578125h81.074219l-2.0625-5.421875c-.589844-1.550781-2.078125-2.578125-3.738281-2.578125h-99.277344c-1.660156 0-3.148437 1.027344-3.738281 2.578125l-4.5625 12c-.996094 2.617187.9375 5.421875 3.738281 5.421875h21.242187zm0 0" fill="#ffd551"/><path d="m436.5 73h-64v-30.5c0-4.417969 3.582031-8 8-8h48c4.417969 0 8 3.582031 8 8zm0 0" fill="#ffa730"/><path d="m420.5 34.5h-40c-4.417969 0-8 3.582031-8 8v30.5h40v-30.5c0-4.417969 3.582031-8 8-8zm0 0" fill="#e58d23"/><path d="m443.214844 344.5h-406.429688c-20.316406 0-36.785156-16.46875-36.785156-36.785156v-218.429688c0-20.316406 16.46875-36.785156 36.785156-36.785156h406.429688c20.316406 0 36.785156 16.46875 36.785156 36.785156v218.429688c0 20.316406-16.46875 36.785156-36.785156 36.785156zm0 0" fill="#f9bb32"/><path d="m56 307.714844v-218.429688c0-20.316406 16.46875-36.785156 36.785156-36.785156h-56c-20.316406 0-36.785156 16.46875-36.785156 36.785156v218.429688c0 20.316406 16.46875 36.785156 36.785156 36.785156h56c-20.316406 0-36.785156-16.46875-36.785156-36.785156zm0 0" fill="#db9c2e"/><path d="m0 137.835938h480v120h-480zm0 0" fill="#bf6c0d"/><path d="m350 198.5c0 60.75-49.25 110-110 110s-110-49.25-110-110 49.25-110 110-110 110 49.25 110 110zm0 0" fill="#a56021"/><path d="m320 198.5c0 44.183594-35.816406 80-80 80s-80-35.816406-80-80 35.816406-80 80-80 80 35.816406 80 80zm0 0" fill="#e58d23"/><path d="m304 198.5c0 35.347656-28.652344 64-64 64s-64-28.652344-64-64 28.652344-64 64-64 64 28.652344 64 64zm0 0" fill="#ffd59a"/><path d="m277.761719 234.101562c-1.296875 0-2.605469-.417968-3.707031-1.285156-2.605469-2.046875-3.058594-5.820312-1.011719-8.421875 5.859375-7.457031 8.957031-16.414062 8.957031-25.894531 0-23.160156-18.84375-42-42-42-3.980469 0-7.925781.558594-11.710938 1.660156-3.179687.929688-6.511718-.902344-7.4375-4.085937-.925781-3.179688.90625-6.511719 4.085938-7.433594 4.875-1.417969 9.945312-2.136719 15.0625-2.136719 29.777344 0 54 24.222656 54 54 0 12.195313-3.980469 23.710938-11.519531 33.304688-1.183594 1.503906-2.941407 2.292968-4.71875 2.292968zm0 0" fill="#ffeacf"/><path d="m437 119.75h-60c-5.523438 0-10-4.476562-10-10v-20c0-5.523438 4.476562-10 10-10h60c5.523438 0 10 4.476562 10 10v20c0 5.523438-4.476562 10-10 10zm0 0" fill="#fff4c1"/><path d="m391 101.75c0-5.523438 4.476562-10 10-10h46v-2c0-5.523438-4.476562-10-10-10h-60c-5.523438 0-10 4.476562-10 10v20c0 5.523438 4.476562 10 10 10h14zm0 0" fill="#fce575"/><path d="m443.214844 334.5c-3.316406 0-6-2.6875-6-6s2.683594-6 6-6c8.152344 0 14.785156-6.632812 14.785156-14.785156v-38.714844c0-3.3125 2.6875-6 6-6s6 2.6875 6 6v38.714844c0 14.769531-12.015625 26.785156-26.785156 26.785156zm0 0" fill="#ffc34c"/><path d="m102.101562 86c0 9.941406-8.058593 18-18 18-9.941406 0-18-8.058594-18-18s8.058594-18 18-18c9.941407 0 18 8.058594 18 18zm0 0" fill="#db9c2e"/><path d="m221.519531 189.300781c0 9.941407-8.058593 18-18 18-9.941406 0-18-8.058593-18-18 0-9.941406 8.058594-18 18-18 9.941407 0 18 8.058594 18 18zm0 0" fill="#ffeacf"/><path d="m0 137.835938h56v120h-56zm0 0" fill="#a56021"/></svg>