<svg height="483pt" viewBox="0 -47 483.99987 483" width="483pt" xmlns="http://www.w3.org/2000/svg"><path d="m483.714844 380.246094-6.875-22.46875-59.921875-317.105469h-102.582031l-59.921876 317.105469-6.1875 22.65625c-1.105468 4.0625 1.957032 8.066406 6.171876 8.066406h.015624l25.734376-12.472656c18.859374-9.144532 40.878906-9.144532 59.738281 0h.003906c16.246094 7.875 35.21875 7.875 51.464844 0h.003906c18.859375-9.144532 40.878906-9.144532 59.742187 0l25.738282 12.472656h.757812c4.300782 0 7.375-4.148438 6.117188-8.253906zm0 0" fill="#ccc033"/><path d="m310.414062 357.777344 59.921876-317.105469h-56l-59.921876 317.105469-6.1875 22.660156c-1.105468 4.058594 1.957032 8.0625 6.171876 8.0625h.015624l25.734376-12.472656c8.589843-4.160156 17.832031-6.40625 27.132812-6.78125zm0 0" fill="#99af17"/><path d="m311.554688 356.742188c-3.828126-.785157-6.332032-4.921876-5.59375-9.238282l23.761718-139.230468c.738282-4.316407 4.4375-7.179688 8.265625-6.394532s6.335938 4.921875 5.597657 9.238282l-23.765626 139.234374c-.734374 4.316407-4.4375 7.175782-8.265624 6.390626zm0 0" fill="#fcda4f"/><path d="m423.429688 356.742188c3.828124-.785157 6.335937-4.921876 5.597656-9.238282l-23.765625-139.230468c-.734375-4.316407-4.433594-7.179688-8.261719-6.394532s-6.335938 4.921875-5.597656 9.238282l23.765625 139.234374c.734375 4.316407 4.433593 7.175782 8.261719 6.390626zm0 0" fill="#fcda4f"/><path d="m310.664062 356.453125 29.082032-153.898437c-.550782-.296876-1.128906-.542969-1.757813-.671876-3.828125-.785156-7.527343 2.074219-8.265625 6.390626l-23.765625 139.234374c-.675781 3.960938 1.398438 7.738282 4.707031 8.945313zm0 0" fill="#eacf32"/><path d="m374.195312 343.5c0 9.941406-8.058593 18-18 18-9.941406 0-18-8.058594-18-18s8.058594-18 18-18c9.941407 0 18 8.058594 18 18zm0 0" fill="#99af17"/><path d="m365.90625 191.660156h-1.8125c-28.769531 0-52.09375-23.324218-52.09375-52.09375v-86.972656c0-28.769531 23.324219-52.09375 52.09375-52.09375h1.8125c28.769531 0 52.09375 23.324219 52.09375 52.09375v86.972656c0 28.773438-23.324219 52.09375-52.09375 52.09375zm0 0" fill="#bf6c0d"/><path d="m402 58.59375c-3.3125 0-6-2.6875-6-6 0-16.59375-13.5-30.09375-30.09375-30.09375h-1.8125c-3.3125 0-6-2.6875-6-6s2.6875-6 6-6h1.8125c23.210938 0 42.09375 18.882812 42.09375 42.09375 0 3.3125-2.6875 6-6 6zm0 0" fill="#e58d23"/><path d="m365.625 145.578125c-14.140625 0-25.644531-9.804687-25.644531-21.855469v-75.765625c0-12.050781 11.503906-21.855469 25.644531-21.855469 14.144531 0 25.648438 9.800782 25.648438 21.855469v75.761719c0 12.054688-11.503907 21.859375-25.648438 21.859375zm0 0" fill="#a56021"/><path d="m363.980469 123.722656v-75.765625c0-8.355469 5.539062-15.625 13.644531-19.300781-3.582031-1.625-7.664062-2.554688-12-2.554688-14.140625 0-25.644531 9.804688-25.644531 21.855469v75.765625c0 12.050782 11.503906 21.855469 25.644531 21.855469 4.335938 0 8.417969-.929687 12-2.554687-8.105469-3.675782-13.644531-10.945313-13.644531-19.300782zm0 0" fill="#8c4c17"/><path d="m235.714844 380.246094-6.875-22.46875-59.921875-317.105469h-102.582031l-59.921876 317.105469-6.1875 22.660156c-1.105468 4.058594 1.957032 8.0625 6.171876 8.0625h.015624l25.734376-12.472656c18.859374-9.144532 40.878906-9.144532 59.738281 0h.003906c16.246094 7.875 35.21875 7.875 51.464844 0h.003906c18.859375-9.144532 40.878906-9.144532 59.742187 0l25.738282 12.472656h.757812c4.300782 0 7.375-4.148438 6.117188-8.253906zm0 0" fill="#ccc033"/><path d="m62.414062 357.777344 59.921876-317.105469h-56l-59.921876 317.105469-6.1875 22.660156c-1.105468 4.058594 1.957032 8.0625 6.171876 8.0625h.015624l25.734376-12.472656c8.589843-4.164063 17.832031-6.410156 27.132812-6.78125zm0 0" fill="#99af17"/><path d="m63.554688 356.742188c-3.828126-.785157-6.332032-4.921876-5.59375-9.238282l23.761718-139.230468c.738282-4.316407 4.4375-7.179688 8.265625-6.394532s6.335938 4.921875 5.597657 9.238282l-23.765626 139.234374c-.734374 4.316407-4.4375 7.175782-8.265624 6.390626zm0 0" fill="#fcda4f"/><path d="m175.429688 356.742188c3.828124-.785157 6.335937-4.921876 5.597656-9.238282l-23.765625-139.230468c-.734375-4.316407-4.433594-7.179688-8.261719-6.394532s-6.335938 4.921875-5.597656 9.238282l23.765625 139.234374c.734375 4.316407 4.433593 7.175782 8.261719 6.390626zm0 0" fill="#fcda4f"/><path d="m62.664062 356.453125 29.082032-153.898437c-.550782-.296876-1.128906-.542969-1.757813-.671876-3.828125-.785156-7.527343 2.074219-8.265625 6.390626l-23.761718 139.230468c-.679688 3.964844 1.394531 7.742188 4.703124 8.949219zm0 0" fill="#eacf32"/><path d="m126.195312 343.5c0 9.941406-8.058593 18-18 18-9.941406 0-18-8.058594-18-18s8.058594-18 18-18c9.941407 0 18 8.058594 18 18zm0 0" fill="#99af17"/><path d="m117.90625 191.660156h-1.8125c-28.769531 0-52.09375-23.320312-52.09375-52.09375v-86.972656c0-28.769531 23.324219-52.09375 52.09375-52.09375h1.8125c28.769531 0 52.09375 23.324219 52.09375 52.09375v86.972656c0 28.773438-23.324219 52.09375-52.09375 52.09375zm0 0" fill="#bf6c0d"/><path d="m117.90625 181.660156h-1.8125c-3.3125 0-6-2.6875-6-6s2.6875-6 6-6h1.8125c16.59375 0 30.09375-13.5 30.09375-30.09375 0-3.316406 2.6875-6 6-6s6 2.683594 6 6c0 23.210938-18.882812 42.09375-42.09375 42.09375zm0 0" fill="#e58d23"/><path d="m117.625 145.578125c-14.140625 0-25.644531-9.804687-25.644531-21.855469v-75.765625c0-12.050781 11.503906-21.855469 25.644531-21.855469 14.144531 0 25.648438 9.800782 25.648438 21.855469v75.761719c0 12.054688-11.503907 21.859375-25.648438 21.859375zm0 0" fill="#a56021"/><path d="m115.980469 123.722656v-75.765625c0-8.355469 5.539062-15.625 13.644531-19.300781-3.582031-1.625-7.664062-2.554688-12-2.554688-14.140625 0-25.644531 9.804688-25.644531 21.855469v75.765625c0 12.050782 11.503906 21.855469 25.644531 21.855469 4.335938 0 8.417969-.929687 12-2.554687-8.105469-3.675782-13.644531-10.945313-13.644531-19.300782zm0 0" fill="#8c4c17"/></svg>