<svg height="480pt" viewBox="-4 0 480 480.754" width="480pt" xmlns="http://www.w3.org/2000/svg"><path d="m303.945312 480.753906h-303.566406v-30.855468c0-55.933594 45.339844-101.273438 101.273438-101.273438h101.019531c55.929687 0 101.273437 45.339844 101.273437 101.273438zm0 0" fill="#fcda4f"/><path d="m153.167969 348.621094h-51.515625c-55.933594 0-101.273438 45.34375-101.273438 101.273437v30.859375h51.511719v-30.859375c.003906-55.929687 45.34375-101.273437 101.277344-101.273437zm0 0" fill="#eacf32"/><path d="m264.035156 110.707031c-.574218-1.726562-1.34375-3.34375-2.265625-4.839843-6.3125-17.796876-15.210937-27.191407-18.933593-30.542969-.0625-.0625-.136719-.109375-.195313-.171875h.285156c-1.589843-1.144532-3.175781-2.257813-4.757812-3.332032l-.015625-.011718c-85.125-57.945313-154.488282-13.160156-171.675782 0h-.304687l-2.941406 2.058594s-.113281.082031-.324219.25c-.5.371093-.976562.769531-1.417969 1.207031-3.722656 3.351562-12.621093 12.746093-18.933593 30.542969-.921876 1.496093-1.6875 3.113281-2.265626 4.839843-32.042968 95.839844-37.957031 157.363281-36.015624 194.714844 1.449218 27.832031 23.96875 49.671875 51.34375 49.671875h193.085937c27.378906 0 49.898437-21.835938 51.347656-49.671875 1.941407-37.347656-3.972656-98.875-36.015625-194.714844zm0 0" fill="#bf6c0d"/><path d="m102.492188 305.421875c-1.539063-29.554687 1.859374-74.273437 19.21875-139.136719h-49.109376c4.574219-17.101562 10.109376-35.582031 16.796876-55.578125.574218-1.726562 1.339843-3.34375 2.265624-4.839843 6.3125-17.796876 15.210938-27.191407 18.929688-30.542969.441406-.4375.921875-.835938 1.417969-1.207031.214843-.164063.328125-.25.328125-.25l2.9375-2.058594h.308594c8.589843-6.578125 30.210937-21.050782 60.320312-26.65625-55.261719-10.226563-96.683594 16.902344-109.429688 26.65625h-.304687l-2.035156 1.425781-.90625.632813s-.113281.082031-.324219.25c-.5.371093-.976562.769531-1.417969 1.207031-3.722656 3.351562-12.621093 12.746093-18.933593 30.542969-.921876 1.496093-1.6875 3.113281-2.265626 4.839843-32.042968 95.839844-37.957031 157.363281-36.015624 194.714844 1.449218 27.832031 23.96875 49.671875 51.34375 49.671875h98.21875c-27.378907 0-49.898438-21.835938-51.34375-49.671875zm0 0" fill="#a56021"/><path d="m162.246094 73.3125.105468-.074219h-.828124c.246093 0 .480468.046875.722656.074219zm0 0" fill="#a56021"/><path d="m191.3125 369.3125v-86.101562h-79.628906v86.101562h.21875l39.390625 25.722656 40.226562-25.722656zm0 0" fill="#ffeacf"/><path d="m289.226562 455.898438c-3.3125 0-6-2.6875-6-6 0-28.636719-15.453124-55.375-40.324218-69.773438-2.871094-1.660156-3.847656-5.332031-2.1875-8.199219 1.660156-2.867187 5.332031-3.847656 8.199218-2.1875 28.566407 16.539063 46.3125 47.253907 46.3125 80.15625 0 3.316407-2.683593 6.003907-6 6.003907zm0 0" fill="#fce575"/><path d="m111.902344 351.84375h-37.953125c-3.222657 0-5.277344 3.445312-3.742188 6.285156l24.035157 44.382813c4.671874 8.625 15.28125 12.066406 24.125 7.832031l32.929687-15.773438-35.546875-23.207031c-2.398438-1.566406-3.84375-4.238281-3.84375-7.101562v-12.417969zm0 0" fill="#ccc033"/><path d="m191.519531 351.84375h38.792969c3.277344 0 5.359375 3.449219 3.792969 6.285156l-24.730469 44.71875c-4.6875 8.472656-15.144531 11.863282-23.910156 7.75l-34.167969-16.027344 36.296875-23.207031c2.445312-1.566406 3.929688-4.269531 3.929688-7.171875v-12.347656zm0 0" fill="#ccc033"/><path d="m95.648438 455.914062c0 9.941407-8.058594 18-18 18-9.941407 0-18-8.058593-18-18 0-9.9375 8.058593-18 18-18 9.941406 0 18 8.0625 18 18zm0 0" fill="#eacf32"/><path d="m315.496094 479.121094h-12v-274c0-3.3125 2.683594-6 6-6 3.3125 0 6 2.6875 6 6zm0 0" fill="#e58d23"/><path d="m315.496094 204.417969v140h153.152344c3.71875 0 5.425781-4.628907 2.597656-7.042969zm0 0" fill="#ff624b"/><path d="m110.242188 402.511719-24.035157-44.382813c-1.535156-2.839844.519531-6.285156 3.742188-6.285156h-16c-3.222657 0-5.277344 3.445312-3.742188 6.285156l24.035157 44.382813c4.671874 8.625 15.28125 12.066406 24.125 7.832031l.074218-.035156c-3.371094-1.621094-6.289062-4.265625-8.199218-7.796875zm0 0" fill="#99af17"/><path d="m313.496094 200.679688c-1.066406-.960938-2.457032-1.558594-4-1.558594-3.316406 0-6 2.6875-6 6v274h8v-274c0-1.769532.78125-3.34375 2-4.441406zm0 0" fill="#bf6c0d"/><path d="m315.496094 204.417969v140h40v-105.855469zm0 0" fill="#ff4b34"/><path d="m397.363281 319.5625c0 9.941406-8.058593 18-18 18-9.9375 0-18-8.058594-18-18s8.0625-18 18-18c9.941407 0 18 8.058594 18 18zm0 0" fill="#ff4b34"/><path d="m147.683594 307.210938h43.628906v-24h-79.628906v86.101562h.21875l35.78125 23.363281zm0 0" fill="#ffd59a"/><path d="m278.148438 229.835938c0 16.570312-13.433594 30-30 30-16.570313 0-30-13.429688-30-30 0-16.570313 13.429687-30 30-30 16.566406 0 30 13.429687 30 30zm0 0" fill="#ffeacf"/><path d="m151.453125 336.316406c-53.398437 0-96.691406-43.292968-96.691406-96.695312v-53.617188c0-53.402344 43.292969-96.695312 96.691406-96.695312 53.402344 0 96.695313 43.292968 96.695313 96.695312v53.617188c0 53.40625-43.292969 96.695312-96.695313 96.695312zm0 0" fill="#ffeacf"/><path d="m91.558594 239.621094v-53.617188c0-47.109375 33.695312-86.328125 78.292968-94.925781-5.957031-1.148437-12.101562-1.769531-18.398437-1.769531-53.398437 0-96.691406 43.292968-96.691406 96.691406v53.621094c0 53.402344 43.292969 96.691406 96.691406 96.691406 6.296875 0 12.441406-.621094 18.398437-1.769531-44.597656-8.589844-78.292968-47.8125-78.292968-94.921875zm0 0" fill="#ffd59a"/><path d="m81.109375 229.835938c0 16.570312-13.429687 30-30 30-16.566406 0-30-13.429688-30-30 0-16.570313 13.433594-30 30-30 16.570313 0 30 13.429687 30 30zm0 0" fill="#ffd59a"/><path d="m215.164062 205.796875-7.09375 1.539063c-2.320312-2.304688-5.488281-3.726563-8.984374-3.726563-7.113282 0-12.878907 5.871094-12.878907 13.113281 0 7.242188 5.765625 13.113282 12.878907 13.113282 7.113281 0 12.882812-5.871094 12.882812-13.113282 0-.304687-.027344-.601562-.046875-.902344l4.375-8.503906c.402344-.789062-.277344-1.703125-1.132813-1.519531zm0 0" fill="#a56021"/><path d="m87.746094 205.796875 7.089844 1.539063c2.320312-2.304688 5.488281-3.726563 8.984374-3.726563 7.113282 0 12.878907 5.871094 12.878907 13.113281 0 7.242188-5.765625 13.113282-12.878907 13.113282-7.113281 0-12.878906-5.871094-12.878906-13.113282 0-.304687.023438-.601562.042969-.902344l-4.371094-8.503906c-.402343-.789062.277344-1.703125 1.132813-1.519531zm0 0" fill="#a56021"/><path d="m151.453125 89.308594c-51.097656 0-92.910156 40.367187-96.425781 91.480468.753906.320313 1.574218.5 2.441406.5h74.875c17.351562 0 31.792969-12.667968 34.902344-29.414062 6.503906 7.316406 15.898437 11.914062 26.351562 11.914062h51.652344c-10.515625-42.785156-48.515625-74.480468-93.796875-74.480468zm0 0" fill="#ffd59a"/><path d="m150.378906 73.238281h-59.171875c-27.851562 0-50.429687 22.578125-50.429687 50.425781v37.402344c0 2.882813 2.339844 5.21875 5.222656 5.21875h80.410156c16.117188 0 29.1875-13.066406 29.1875-29.1875v-58.640625c0-2.882812-2.339844-5.21875-5.21875-5.21875zm0 0" fill="#bf6c0d"/><path d="m237.464844 148.789062h-62.484375c-16.121094 0-29.191407-13.070312-29.191407-29.1875v-42.570312c0-2.882812 2.339844-5.222656 5.222657-5.222656h62.484375c16.121094 0 29.1875 13.070312 29.1875 29.1875v42.570312c0 2.886719-2.335938 5.222656-5.21875 5.222656zm0 0" fill="#bf6c0d"/><g fill="#a56021"><path d="m91.207031 73.238281c-27.851562 0-50.429687 22.578125-50.429687 50.425781v37.402344c0 2.882813 2.339844 5.21875 5.222656 5.21875h26.601562c4.574219-17.101562 10.109376-35.582031 16.796876-55.578125.574218-1.726562 1.339843-3.34375 2.265624-4.839843 6.3125-17.796876 15.210938-27.191407 18.929688-30.542969.441406-.4375.921875-.835938 1.417969-1.207031.214843-.164063.328125-.25.328125-.25l.902344-.632813h-22.035157zm0 0"/><path d="m142.730469 161.300781c-1.554688 1.050781-3.214844 1.953125-4.960938 2.691407 1.746094-.738282 3.40625-1.640626 4.960938-2.691407zm0 0"/><path d="m150.609375 153.417969c-1.046875 1.550781-2.242187 3-3.5625 4.320312 1.320313-1.320312 2.515625-2.765625 3.5625-4.320312zm0 0"/></g><path d="m260.4375 118.554688h-216.550781v-10.433594c0-59.714844 48.40625-108.121094 108.121093-108.121094h.308594c59.710938 0 108.121094 48.40625 108.121094 108.121094zm0 0" fill="#ccc033"/><path d="m229.097656 63.257812c-1.941406 0-3.847656-.941406-5-2.679687-13.242187-19.917969-34.269531-33.558594-57.699218-37.429687-3.265626-.542969-5.480469-3.628907-4.941407-6.898438.542969-3.273438 3.628907-5.484375 6.898438-4.941406 26.699219 4.410156 50.65625 19.949218 65.730469 42.625 1.835937 2.761718 1.085937 6.484375-1.671876 8.320312-1.019531.679688-2.175781 1.003906-3.316406 1.003906zm0 0" fill="#eacf32"/><path d="m180.164062 3.636719c-8.886718-2.363281-18.21875-3.636719-27.847656-3.636719h-.308594c-59.710937 0-108.121093 48.40625-108.121093 108.125v10.429688h56v-10.429688c0-50.089844 34.058593-92.203125 80.277343-104.488281zm0 0" fill="#99af17"/><path d="m43.886719 108.121094v10.433594h216.550781v-10.433594c0-14.183594-2.757812-27.714844-7.71875-40.125h-201.113281c-4.960938 12.410156-7.71875 25.941406-7.71875 40.125zm0 0" fill="#fcda4f"/><path d="m99.886719 108.121094c0-14.179688 2.730469-27.714844 7.695312-40.125h-55.976562c-.617188 1.550781-1.203125 3.117187-1.753907 4.699218-.003906.007813-.007812.019532-.007812.03125-.542969 1.558594-1.046875 3.132813-1.519531 4.722657-.019531.074219-.042969.148437-.0625.222656-.449219 1.523437-.867188 3.0625-1.25 4.613281-.042969.1875-.085938.378906-.128907.566406-.347656 1.449219-.671874 2.90625-.960937 4.375-.070313.347657-.125.707032-.1875 1.054688-.246094 1.324219-.484375 2.648438-.679687 3.988281-.085938.578125-.148438 1.164063-.222657 1.746094-.152343 1.132813-.304687 2.269531-.417969 3.417969-.089843.914062-.140624 1.835937-.210937 2.757812-.058594.839844-.140625 1.675782-.183594 2.523438-.085937 1.792968-.132812 3.59375-.132812 5.40625v10.433594h56zm0 0" fill="#eacf32"/><path d="m268.199219 119.101562-231.976563.878907c-3.097656.011719-5.925781-1.769531-7.253906-4.566407l-9.375-19.722656c-2.519531-5.308594 1.347656-11.433594 7.226562-11.433594h250.539063c5.910156 0 9.78125 6.191407 7.191406 11.507813l-9.191406 18.84375c-1.335937 2.738281-4.113281 4.480469-7.160156 4.492187zm0 0" fill="#ccc033"/><path d="m84.96875 115.414062-9.375-19.722656c-2.519531-5.308594 1.347656-11.433594 7.226562-11.433594h-56c-5.878906 0-9.746093 6.125-7.226562 11.433594l9.375 19.722656c1.328125 2.796876 4.152344 4.578126 7.253906 4.566407l54.257813-.207031c-2.382813-.519532-4.4375-2.101563-5.511719-4.359376zm0 0" fill="#99af17"/></svg>