<svg height="476pt" viewBox="0 -5 476.534 476" width="476pt" xmlns="http://www.w3.org/2000/svg"><path d="m430.222656 383.695312h-13.757812c1.648437-4.953124 2.542968-10.199218 2.542968-15.636718 0-30.054688-27.039062-54.417969-60.390624-54.417969-2.878907 0-5.703126.191406-8.472657.542969-11.734375-25.042969-39.242187-42.617188-71.304687-42.617188-34.597656 0-63.882813 20.464844-73.78125 48.6875-6.757813-2.355468-14.09375-3.660156-21.773438-3.660156-33.355468 0-60.394531 24.363281-60.394531 54.417969 0 4.539062.628906 8.941406 1.789063 13.15625-22.269532 3.03125-39.335938 20.347656-39.335938 41.257812 0 23.050781 20.734375 41.734375 46.3125 41.734375h298.5625c25.578125 0 46.316406-18.683594 46.316406-41.734375 0-23.042969-20.734375-41.730469-46.3125-41.730469zm0 0" fill="#fff4c1"/><path d="m172.941406 445.160156c0-20.910156 17.066406-38.226562 39.335938-41.257812-1.164063-4.21875-1.789063-8.621094-1.789063-13.15625 0-30.054688 27.039063-54.417969 60.390625-54.417969 7.683594 0 15.019532 1.304687 21.777344 3.660156 7.011719-19.984375 23.765625-36.039062 45.21875-43.726562-14.191406-15.09375-35.355469-24.691407-59.03125-24.691407-34.597656 0-63.882812 20.460938-73.78125 48.6875-6.757812-2.355468-14.09375-3.664062-21.777344-3.664062-33.351562 0-60.390625 24.367188-60.390625 54.417969 0 4.539062.628907 8.941406 1.789063 13.15625-22.269532 3.03125-39.335938 20.351562-39.335938 41.261719 0 23.050781 20.738282 41.734374 46.3125 41.734374h48.292969c-4.421875-6.394531-7.011719-13.917968-7.011719-22.003906zm0 0" fill="#ffd551"/><path d="m172.941406 445.160156c0-20.910156 17.066406-38.226562 39.335938-41.257812-1.164063-4.21875-1.789063-8.621094-1.789063-13.15625 0-30.054688 27.039063-54.417969 60.390625-54.417969 7.683594 0 15.019532 1.304687 21.777344 3.660156 7.011719-19.984375 23.765625-36.039062 45.21875-43.726562-14.191406-15.09375-35.355469-24.691407-59.03125-24.691407-34.597656 0-63.882812 20.460938-73.78125 48.6875-6.757812-2.355468-14.09375-3.664062-21.777344-3.664062-33.351562 0-60.390625 24.367188-60.390625 54.417969 0 4.539062.628907 8.941406 1.789063 13.15625-22.269532 3.03125-39.335938 20.351562-39.335938 41.261719 0 23.050781 20.738282 41.734374 46.3125 41.734374h48.292969c-4.421875-6.394531-7.011719-13.917968-7.011719-22.003906zm0 0" fill="#fce575"/><path d="m323.636719 287.304688c-113.273438 0-205.429688-90.265626-205.429688-201.214844 0-30.683594 7.074219-59.773438 19.671875-85.824219-80.179687 27.429687-137.878906 102.210937-137.878906 189.980469 0 110.949218 92.15625 201.214844 205.433594 201.214844 81.945312 0 152.808594-47.253907 185.757812-115.386719-21.171875 7.242187-43.890625 11.230469-67.554687 11.230469zm0 0" fill="#ffdf74"/><path d="m136.546875 208.167969c-1.96875 0-3.894531-.96875-5.039063-2.742188-23.097656-35.691406-35.300781-76.957031-35.300781-119.335937 0-11.570313.902344-23.152344 2.683594-34.421875.519531-3.273438 3.609375-5.5 6.867187-4.992188 3.273438.519531 5.503907 3.589844 4.988282 6.863281-1.6875 10.65625-2.539063 21.605469-2.539063 32.550782 0 40.0625 11.539063 79.070312 33.371094 112.816406 1.800781 2.78125 1.007813 6.496094-1.777344 8.292969-1.007812.65625-2.136719.96875-3.253906.96875zm0 0" fill="#fce575"/><g fill="#ffd551"><path d="m257.433594 371.460938c-113.277344 0-205.433594-90.265626-205.433594-201.214844 0-65.390625 32.035156-123.550782 81.523438-160.3125 1.367187-3.265625 2.820312-6.492188 4.355468-9.667969-80.179687 27.429687-137.878906 102.210937-137.878906 189.980469 0 110.949218 92.15625 201.214844 205.433594 201.214844 36.359375 0 70.53125-9.320313 100.1875-25.628907-15.464844 3.660157-31.59375 5.628907-48.1875 5.628907zm0 0"/><path d="m274.640625 338.050781c0 9.9375-8.058594 18-18 18s-18-8.0625-18-18c0-9.941406 8.058594-18 18-18s18 8.058594 18 18zm0 0"/></g></svg>