<svg height="480pt" viewBox="0 -3 480 479" width="480pt" xmlns="http://www.w3.org/2000/svg"><path d="m64.996094 186.175781h48v240h-48zm0 0" fill="#fff4c1"/><path d="m366 185.457031h48v240h-48zm0 0" fill="#fff4c1"/><path d="m216 185.457031h48v240h-48zm0 0" fill="#fff4c1"/><path d="m64.996094 186.175781h24v240h-24zm0 0" fill="#fce575"/><path d="m366 185.457031h24v240h-24zm0 0" fill="#fce575"/><path d="m216 185.457031h24v240h-24zm0 0" fill="#fce575"/><path d="m445.992188 185.457031h-412c-2.210938 0-4-1.792969-4-4v-32h420v32c0 2.207031-1.792969 4-4 4zm0 0" fill="#e58d23"/><path d="m468.09375 149.457031h-452.167969c-4.019531 0-5.53125-5.257812-2.125-7.390625l223.960938-140.34375c2.597656-1.628906 5.894531-1.628906 8.496093 0l223.957032 140.34375c3.40625 2.132813 1.894531 7.390625-2.121094 7.390625zm0 0" fill="#bf6c0d"/><path d="m424.007812 149.257812h-364l177.753907-111.339843c2.597656-1.625 5.894531-1.625 8.496093 0zm0 0" fill="#fff4c1"/><g fill="#ffdf74"><path d="m126.5 215.457031h-72c-4.417969 0-8-3.582031-8-8v-22h88v22c0 4.417969-3.582031 8-8 8zm0 0"/><path d="m134.5 425.457031h-88v-22c0-4.417969 3.582031-8 8-8h72c4.417969 0 8 3.582031 8 8zm0 0"/><path d="m426.5 215.457031h-72c-4.417969 0-8-3.582031-8-8v-22h88v22c0 4.417969-3.582031 8-8 8zm0 0"/><path d="m434.5 425.457031h-88v-22c0-4.417969 3.582031-8 8-8h72c4.417969 0 8 3.582031 8 8zm0 0"/><path d="m276.5 215.457031h-72c-4.417969 0-8-3.582031-8-8v-22h88v22c0 4.417969-3.582031 8-8 8zm0 0"/><path d="m284.5 425.457031h-88v-22c0-4.417969 3.582031-8 8-8h72c4.417969 0 8 3.582031 8 8zm0 0"/></g><path d="m447.484375 449.507812h-420v-20c0-2.210937 1.789063-4 4-4h412c2.210937 0 4 1.789063 4 4zm0 0" fill="#ffa730"/><path d="m476 473.507812h-472c-2.210938 0-4-1.789062-4-4v-16c0-2.210937 1.789062-4 4-4h472c2.210938 0 4 1.789063 4 4v16c0 2.207032-1.789062 4-4 4zm0 0" fill="#e58d23"/><path d="m470.214844 142.066406-223.957032-140.347656c-2.601562-1.625-5.898437-1.625-8.496093 0l-223.960938 140.347656c-3.40625 2.132813-1.894531 7.390625 2.125 7.390625h452.167969c4.015625 0 5.527344-5.257812 2.121094-7.390625zm-410.207032 7.191406 177.753907-111.339843c2.597656-1.625 5.894531-1.625 8.496093 0l177.753907 111.339843zm0 0" fill="#bf6c0d"/><path d="m53.800781 142.066406 208.207031-130.476562-15.75-9.871094c-2.601562-1.625-5.898437-1.625-8.496093 0l-223.960938 140.347656c-3.40625 2.132813-1.894531 7.390625 2.125 7.390625h40c-4.019531 0-5.527343-5.257812-2.125-7.390625zm0 0" fill="#a56021"/><path d="m246.257812 37.917969c-2.601562-1.625-5.898437-1.625-8.496093 0l-177.753907 111.339843h40l162-101.472656zm0 0" fill="#fce575"/><path d="m262.851562 70.15625-18.933593 42.09375c-.707031 1.574219-2.9375 1.574219-3.644531.003906l-19.015626-42.101562c-.324218-.714844-1.035156-1.175782-1.820312-1.175782h-11.425781c-1.105469 0-2 .898438-2 2v64c0 1.105469.894531 2 2 2h10.589843c1.101563 0 2-.894531 2-2v-25.25c0-2.152343 2.933594-2.785156 3.820313-.820312l12.140625 26.894531c.324219.714844 1.039062 1.179688 1.824219 1.179688h7.339843c.789063 0 1.5-.464844 1.824219-1.179688l12.042969-26.808593c.882812-1.964844 3.824219-1.335938 3.824219.820312v25.167969c0 1.101562.894531 2 2 2h10.589843c1.105469 0 2-.898438 2-2v-64c0-1.105469-.894531-2-2-2h-11.332031c-.785156-.003907-1.5.460937-1.824219 1.175781zm0 0" fill="#f9bb32"/><path d="m222.367188 72.617188-1.109376-2.460938c-.324218-.714844-1.035156-1.175781-1.820312-1.175781h-11.425781c-1.105469 0-2 .894531-2 2v11.882812zm0 0" fill="#db9c2e"/><path d="m85.992188 181.457031v-32h-56v32c0 2.207031 1.789062 4 4 4h56c-2.210938 0-4-1.792969-4-4zm0 0" fill="#bf6c0d"/><path d="m70.5 197.457031h64v-12h-88v22c0 4.417969 3.582031 8 8 8h16zm0 0" fill="#ffd551"/><path d="m370.5 197.457031h64v-12h-88v22c0 4.417969 3.582031 8 8 8h16zm0 0" fill="#ffd551"/><path d="m220.5 197.457031h64v-12h-88v22c0 4.417969 3.582031 8 8 8h16zm0 0" fill="#ffd551"/><path d="m78.5 395.457031h-24c-4.417969 0-8 3.578125-8 8v22h24v-22c0-4.421875 3.582031-8 8-8zm0 0" fill="#ffd551"/><path d="m378.5 395.457031h-24c-4.417969 0-8 3.578125-8 8v22h24v-22c0-4.421875 3.582031-8 8-8zm0 0" fill="#ffd551"/><path d="m228.5 395.457031h-24c-4.417969 0-8 3.578125-8 8v22h24v-22c0-4.421875 3.582031-8 8-8zm0 0" fill="#ffd551"/><path d="m87.484375 425.507812h-56c-2.210937 0-4 1.792969-4 4v20h56v-20c0-2.210937 1.789063-4 4-4zm0 0" fill="#e58d23"/><path d="m56 469.507812v-16c0-2.207031 1.789062-4 4-4h-56c-2.210938 0-4 1.792969-4 4v16c0 2.207032 1.789062 4 4 4h56c-2.210938 0-4-1.792968-4-4zm0 0" fill="#bf6c0d"/><path d="m200.277344 124.480469c0 9.941406-8.058594 18-18 18s-18-8.058594-18-18c0-9.941407 8.058594-18 18-18s18 8.058593 18 18zm0 0" fill="#fce575"/><path d="m434.5 175.457031h-88c-3.3125 0-6-2.683593-6-6 0-3.3125 2.6875-6 6-6h88c3.3125 0 6 2.6875 6 6 0 3.316407-2.6875 6-6 6zm0 0" fill="#ffa730"/></svg>