<svg height="460pt" viewBox="0 -10 460 460" width="460pt" xmlns="http://www.w3.org/2000/svg"><path d="m447.820312 0h-275.640624c-6.726563 0-12.179688 5.453125-12.179688 12.179688v315.640624c0 6.726563 5.453125 12.179688 12.179688 12.179688h275.640624c6.726563 0 12.179688-5.453125 12.179688-12.179688v-315.640624c0-6.726563-5.453125-12.179688-12.179688-12.179688zm0 0" fill="#fce575"/><path d="m216 327.820312v-315.636718c0-6.726563 5.453125-12.17968775 12.179688-12.17968775h-56c-6.726563 0-12.179688 5.45312475-12.179688 12.17968775v315.636718c0 6.726563 5.453125 12.183594 12.179688 12.183594h56c-6.726563-.003906-12.179688-5.457031-12.179688-12.183594zm0 0" fill="#ffd551"/><path d="m192.488281 27.089844c-4.417969 0-8 3.582031-8 8v232.523437c0 4.417969 3.582031 8 8 8h235.023438c4.417969 0 8-3.582031 8-8v-232.523437c0-4.417969-3.582031-8-8-8zm0 0" fill="#fff4c1"/><path d="m327.820312 59.089844h-167.820312v267.816406c0 6.726562 5.453125 12.183594 12.179688 12.183594h167.820312v-267.820313c0-6.730469-5.453125-12.179687-12.179688-12.179687zm0 0" fill="#ffd551"/><path d="m327.820312 59.089844h-111.820312v-32h-23.511719c-4.417969 0-8 3.582031-8 8v232.523437c0 4.417969 3.582031 8 8 8h147.511719v-204.34375c0-6.730469-5.453125-12.179687-12.179688-12.179687zm0 0" fill="#fce575"/><path d="m396.710938 276.566406h-173.421876c-4.027343 0-7.289062-3.265625-7.289062-7.289062 0-27.292969 22.125-49.414063 49.414062-49.414063h89.171876c27.289062 0 49.414062 22.121094 49.414062 49.414063 0 4.027344-3.265625 7.289062-7.289062 7.289062zm0 0" fill="#f9bb32"/><path d="m381.527344 227.863281c-7.75-5.054687-17-8-26.941406-8h-89.171876c-7.675781 0-14.941406 1.75-21.421874 4.871094-1.441407.695313-2.84375 1.457031-4.199219 2.285156-10.867188 6.601563-18.988281 17.277344-22.238281 29.910157-.203126.789062-.386719 1.585937-.550782 2.390624-.65625 3.214844-1.003906 6.546876-1.003906 9.957032 0 2.011718.816406 3.835937 2.132812 5.152344 1.320313 1.320312 3.140626 2.132812 5.15625 2.132812h116.710938v-40.699219c0-4.417969 3.582031-8 8-8zm0 0" fill="#db9c2e"/><path d="m301.882812 248.863281h16.234376c2.332031 0 4.199218-1.996093 4.121093-4.402343l-4.8125-153.320313h-14.851562l-4.8125 153.320313c-.074219 2.40625 1.792969 4.402343 4.121093 4.402343zm0 0" fill="#ffd551"/><path d="m310.136719 244.460938 4.816406-153.324219h-12.378906l-4.8125 153.324219c-.078125 2.40625 1.789062 4.398437 4.121093 4.398437h12.378907c-2.332031.003906-4.199219-1.992187-4.125-4.398437zm0 0" fill="#ffc34c"/><path d="m311.546875 109.617188c8.3125-15.308594 29.609375-22.691407 51.3125-16.683594 21.699219 6.007812 36.570313 23.40625 36.359375 40.957031zm0 0" fill="#ccc033"/><path d="m335.96875 60.328125c19.457031-11.605469 41.882812-10.167969 53.746094 2.398437l-18.21875 10.867188-13.5-9.171875 2.246094 15.886719-49.132813 29.308594c-4.601563-16.898438 5.40625-37.679688 24.859375-49.289063zm0 0" fill="#ccc033"/><path d="m350.824219 60.328125c6.46875-3.855469 13.265625-6.265625 19.890625-7.308594-10.761719-1.835937-23.269532.464844-34.746094 7.308594-19.453125 11.609375-29.460938 32.390625-24.863281 49.289063l13.75-8.203126c-.117188-15 9.570312-31.300781 25.96875-41.085937zm0 0" fill="#99af17"/><path d="m375.234375 105.71875c6.707031 1.855469 12.757813 4.804688 17.914063 8.503906-6.269532-9.652344-16.996094-17.609375-30.289063-21.292968-21.703125-6.007813-43 1.375-51.3125 16.6875l18.316406 5.070312c10.347657-9.882812 27.726563-13.851562 45.371094-8.96875zm0 0" fill="#99af17"/><path d="m298.175781 231.199219h23.648438l-.402344-12.789063h-22.84375zm0 0" fill="#eacf32"/><path d="m298.980469 205.621094h22.039062l-.402343-12.785156h-21.234376zm0 0" fill="#eacf32"/><path d="m299.78125 180.046875h20.4375l-.402344-12.789063h-19.632812zm0 0" fill="#eacf32"/><path d="m300.585938 154.46875h18.828124l-.402343-12.789062h-18.023438zm0 0" fill="#eacf32"/><g fill="#99af17"><path d="m298.578125 218.410156-.210937 6.679688-.191407 6.109375h12.378907l.402343-12.789063zm0 0"/><path d="m299.382812 192.835938-.042968 1.304687-.359375 11.480469h12.378906l.398437-12.785156zm0 0"/><path d="m300.183594 167.257812-.089844 2.859376-.3125 9.929687h12.378906l.402344-12.789063zm0 0"/><path d="m300.988281 141.679688-.210937 6.640624-.191406 6.148438h12.378906l.398437-12.789062zm0 0"/></g><path d="m311.546875 109.617188c4.597656-16.898438-5.410156-37.679688-24.863281-49.285157-19.457032-11.605469-41.882813-10.167969-53.746094 2.394531zm0 0" fill="#ccc033"/><path d="m257.140625 92.929688c-21.699219 6.007812-36.570313 23.40625-36.359375 40.957031l20.320312-5.625 3.265626-16.351563 9.285156 12.878906 54.804687-15.171874c-8.316406-15.308594-29.613281-22.691407-51.316406-16.6875zm0 0" fill="#99af17"/><path d="m286.683594 60.332031c-.75-.449219-1.507813-.835937-2.261719-1.242187h-47.285156c-1.503907 1.089844-2.921875 2.285156-4.199219 3.636718l78.609375 46.890626c4.597656-16.898438-5.410156-37.679688-24.863281-49.285157zm0 0" fill="#99af17"/><path d="m340 71.265625c0-4.195313-2.121094-7.894531-5.351562-10.082031-18.566407 11.746094-28.03125 31.929687-23.539063 48.433594l28.890625-17.234376zm0 0" fill="#99af17"/><path d="m340 91.441406c-12.585938 1.90625-23.15625 8.421875-28.453125 18.175782l28.453125 7.878906zm0 0" fill="#99af17"/><path d="m318.621094 134.539062h-.113282c-7.832031 0-14.179687-6.347656-14.179687-14.175781v-1.0625c0-7.828125 6.347656-14.175781 14.179687-14.175781h.113282c7.828125 0 14.175781 6.347656 14.175781 14.175781v1.0625c0 7.828125-6.347656 14.175781-14.175781 14.175781zm0 0" fill="#db9c2e"/><path d="m316.707031 119.84375v-.027344c0-5.828125 3.28125-10.863281 8.046875-13.238281-1.871094-.933594-3.964844-1.453125-6.179687-1.453125h-.023438c-7.851562 0-14.222656 6.578125-14.222656 14.691406v.027344c0 8.117188 6.371094 14.695312 14.222656 14.695312h.023438c2.214843 0 4.308593-.523437 6.179687-1.453124-4.765625-2.378907-8.046875-7.414063-8.046875-13.242188zm0 0" fill="#bf6c0d"/><path d="m301.285156 124.324219h-.113281c-7.832031 0-14.179687-6.347657-14.179687-14.175781v-1.058594c0-7.832032 6.347656-14.179688 14.179687-14.179688h.113281c7.828125 0 14.175782 6.347656 14.175782 14.179688v1.058594c0 7.828124-6.347657 14.175781-14.175782 14.175781zm0 0" fill="#db9c2e"/><path d="m299.371094 109.628906v-.023437c0-5.828125 3.28125-10.867188 8.042968-13.242188-1.867187-.929687-3.960937-1.453125-6.175781-1.453125h-.023437c-7.851563 0-14.222656 6.578125-14.222656 14.695313v.023437c0 8.117188 6.371093 14.695313 14.222656 14.695313h.023437c2.214844 0 4.308594-.523438 6.175781-1.453125-4.757812-2.378906-8.042968-7.414063-8.042968-13.242188zm0 0" fill="#bf6c0d"/><path d="m287.820312 99.089844h-275.640624c-6.726563 0-12.179688 5.453125-12.179688 12.179687v315.636719c0 6.726562 5.453125 12.183594 12.179688 12.183594h275.640624c6.726563 0 12.179688-5.457032 12.179688-12.183594v-315.636719c0-6.730469-5.453125-12.179687-12.179688-12.179687zm0 0" fill="#fff4c1"/><path d="m56 426.90625v-315.636719c0-6.726562 5.453125-12.179687 12.179688-12.179687h-56c-6.726563 0-12.179688 5.453125-12.179688 12.179687v315.636719c0 6.726562 5.453125 12.183594 12.179688 12.183594h56c-6.726563 0-12.179688-5.457032-12.179688-12.183594zm0 0" fill="#fce575"/><path d="m32.488281 127.089844c-4.417969 0-8 3.582031-8 8v232.523437c0 4.417969 3.582031 8 8 8h235.023438c4.417969 0 8-3.582031 8-8v-232.523437c0-4.417969-3.582031-8-8-8zm0 0" fill="#fcf9de"/><path d="m32.488281 127.089844c-4.417969 0-8 3.582031-8 8v232.523437c0 4.417969 3.582031 8 8 8h23.511719v-248.523437zm0 0" fill="#fff4c1"/><path d="m24.488281 275.613281 90.988281-43.945312c3.058594-1.476563 6.714844-.863281 9.121094 1.53125l22.054688 21.921875c2.066406 2.054687 5.082031 2.820312 7.878906 2.007812l26.554688-7.734375c2.21875-.648437 4.609374-.300781 6.554687.945313l87.871094 56.308594v60.964843c0 4.417969-3.582031 8-8 8h-235.023438c-4.417969 0-8-3.582031-8-8zm0 0" fill="#ccc033"/><path d="m253.277344 173.480469c0 16.570312-13.433594 30-30 30-16.570313 0-30-13.429688-30-30 0-16.566407 13.429687-30 30-30 16.566406 0 30 13.433593 30 30zm0 0" fill="#ffdf74"/><path d="m56 260.394531-31.511719 15.21875v92c0 4.417969 3.582031 8 8 8h23.511719zm0 0" fill="#99af17"/><path d="m96 351.804688c0 9.941406-8.058594 18-18 18s-18-8.058594-18-18c0-9.941407 8.058594-18 18-18s18 8.058593 18 18zm0 0" fill="#99af17"/><path d="m381.527344 315.804688c0 9.941406-8.058594 18-18 18s-18-8.058594-18-18c0-9.941407 8.058594-18 18-18s18 8.058593 18 18zm0 0" fill="#ffd551"/><path d="m419.511719 165.332031c-3.316407 0-6-2.6875-6-6v-120c0-3.3125 2.683593-6 6-6 3.3125 0 6 2.6875 6 6v120c0 3.3125-2.6875 6-6 6zm0 0" fill="#fcf9de"/><path d="m282.980469 423.804688c-3.316407 0-6-2.683594-6-6v-120c0-3.3125 2.683593-6 6-6 3.3125 0 6 2.6875 6 6v120c0 3.316406-2.6875 6-6 6zm0 0" fill="#fcf9de"/></svg>