<svg height="480pt" viewBox="0 -62 480 480" width="480pt" xmlns="http://www.w3.org/2000/svg"><path d="m472 260h-384c-4.417969 0-8-3.582031-8-8v-244c0-4.417969 3.582031-8 8-8h384c4.417969 0 8 3.582031 8 8v244c0 4.417969-3.582031 8-8 8zm0 0" fill="#ffdf74"/><path d="m136 252v-244c0-4.417969 3.582031-8 8-8h-56c-4.417969 0-8 3.582031-8 8v244c0 4.417969 3.582031 8 8 8h56c-4.417969 0-8-3.582031-8-8zm0 0" fill="#ffd551"/><path d="m432 40h-352v212c0 4.417969 3.582031 8 8 8h352v-212c0-4.417969-3.582031-8-8-8zm0 0" fill="#ffd551"/><path d="m100 232v-204c0-4.417969 3.582031-8 8-8h344c4.417969 0 8 3.582031 8 8v204c0 4.417969-3.582031 8-8 8h-344c-4.417969 0-8-3.582031-8-8zm0 0" fill="#ffb74b"/><path d="m432 50h-332v172.800781c0 3.976563 3.582031 7.199219 8 7.199219h332v-172.800781c0-3.976563-3.582031-7.199219-8-7.199219zm0 0" fill="#ffa730"/><path d="m324.296875 120.613281-38.164063 11.117188c-4.015624 1.171875-8.351562.066406-11.320312-2.882813l-31.699219-31.511718c-3.460937-3.4375-8.710937-4.316407-13.105469-2.199219l-130.007812 62.792969v74.070312c0 4.417969 3.582031 8 8 8h344c4.417969 0 8-3.582031 8-8v-29.105469l-126.285156-80.921875c-2.792969-1.792968-6.230469-2.289062-9.417969-1.359375zm0 0" fill="#ccc033"/><path d="m333.714844 121.972656c-2.792969-1.792968-6.230469-2.289062-9.417969-1.359375l-38.164063 11.117188c-4.015624 1.167969-8.351562.0625-11.320312-2.886719l-31.699219-31.507812c-3.460937-3.441407-8.710937-4.320313-13.105469-2.203126l-130.007812 62.796876v74.070312c0 4.417969 3.582031 8 8 8h332v-49.921875zm0 0" fill="#99af17"/><path d="m108 20c-4.417969 0-8 3.582031-8 8v204c0 4.417969 3.582031 8 8 8h28v-220zm0 0" fill="#ffa730"/><path d="m423.183594 73.496094c0 16.570312-13.429688 30-30 30-16.566406 0-30-13.429688-30-30 0-16.566406 13.433594-30 30-30 16.570312 0 30 13.433594 30 30zm0 0" fill="#ffd551"/><path d="m393.183594 103.496094c16.570312 0 30-13.429688 30-30 0-9.527344-4.457032-18-11.382813-23.496094h-37.234375c-6.925781 5.496094-11.382812 13.96875-11.382812 23.496094 0 16.570312 13.433594 30 30 30zm0 0" fill="#ffc34c"/><path d="m392 356h-384c-4.417969 0-8-3.582031-8-8v-244c0-4.417969 3.582031-8 8-8h384c4.417969 0 8 3.582031 8 8v244c0 4.417969-3.582031 8-8 8zm0 0" fill="#fff4c1"/><path d="m56 348v-244c0-4.417969 3.582031-8 8-8h-56c-4.417969 0-8 3.582031-8 8v244c0 4.417969 3.582031 8 8 8h56c-4.417969 0-8-3.582031-8-8zm0 0" fill="#fce575"/><path d="m149.242188 271.25h-100c-8.835938 0-16-7.164062-16-16v-120c0-8.835938 7.164062-16 16-16h100c8.835937 0 16 7.164062 16 16v120c0 8.835938-7.164063 16-16 16zm0 0" fill="#ffa730"/><path d="m49.242188 119.25c-8.835938 0-16 7.164062-16 16v120c0 8.835938 7.164062 16 16 16h6.757812v-152zm0 0" fill="#e58d23"/><path d="m200 338.625c-2.207031 0-4-1.789062-4-4v-217.25c0-2.207031 1.792969-4 4-4s4 1.792969 4 4v217.25c0 2.210938-1.792969 4-4 4zm0 0" fill="#e58d23"/><g fill="#a56021"><path d="m371.742188 237.5h-90c-3.3125 0-6-2.6875-6-6s2.6875-6 6-6h90c3.3125 0 6 2.6875 6 6s-2.6875 6-6 6zm0 0"/><path d="m376.5 265.5h-150c-3.3125 0-6-2.6875-6-6s2.6875-6 6-6h150c3.3125 0 6 2.6875 6 6s-2.6875 6-6 6zm0 0"/><path d="m376.5 293.5h-150c-3.3125 0-6-2.6875-6-6s2.6875-6 6-6h150c3.3125 0 6 2.6875 6 6s-2.6875 6-6 6zm0 0"/><path d="m376.5 321.5h-150c-3.3125 0-6-2.6875-6-6s2.6875-6 6-6h150c3.3125 0 6 2.6875 6 6s-2.6875 6-6 6zm0 0"/><path d="m176.5 309.5h-150c-3.3125 0-6-2.6875-6-6s2.6875-6 6-6h150c3.3125 0 6 2.6875 6 6s-2.6875 6-6 6zm0 0"/></g><path d="m362.671875 213.628906c-1.367187 1.800782-3.667969-2.585937-5.980469-2.585937-2.316406 0-2.316406 3.25-4.628906 3.25s-2.3125-3.25-4.625-3.25-2.3125 3.25-4.625 3.25c-2.316406 0-2.316406-3.25-4.625-3.25-2.316406 0-2.316406 3.25-4.628906 3.25s-2.3125-3.25-4.625-3.25c-2.316406 0-2.316406 3.25-4.628906 3.25s-2.3125-3.25-4.625-3.25-2.3125 3.25-4.628907 3.25c-2.3125 0-2.3125-3.25-4.625-3.25s-2.3125 3.25-4.628906 3.25c-2.3125 0-2.3125-3.25-4.625-3.25-2.316406 0-2.316406 3.25-4.628906 3.25-2.316407 0-2.316407-3.25-4.632813-3.25-2.3125 0-4.617187 4.390625-5.984375 2.585937-1.867187-2.457031 3.039063-4.007812 3.039063-7.058594 0-3.046874-3.363282-3.046874-3.363282-6.09375 0-3.046874 3.363282-3.046874 3.363282-6.097656 0-3.046875-3.363282-3.046875-3.363282-6.09375 0-3.050781 3.363282-3.050781 3.363282-6.097656s-3.363282-3.046875-3.363282-6.09375c0-3.050781 3.363282-3.050781 3.363282-6.097656s-3.363282-3.046875-3.363282-6.097656c0-3.046876 3.363282-3.046876 3.363282-6.09375 0-3.046876-3.363282-3.046876-3.363282-6.097657 0-3.046875 3.363282-3.046875 3.363282-6.097656 0-3.046875-3.363282-3.046875-3.363282-6.09375 0-3.050781 3.363282-3.050781 3.363282-6.101563 0-3.046874-3.363282-3.046874-3.363282-6.097656 0-3.046875 3.363282-3.046875 3.363282-6.097656s-4.90625-4.601562-3.039063-7.0625c1.367188-1.800781 3.671875 2.585938 5.980469 2.585938 2.316406 0 2.316406-3.25 4.628906-3.25s2.3125 3.25 4.625 3.25 2.3125-3.25 4.625-3.25c2.316406 0 2.316406 3.25 4.625 3.25 2.316406 0 2.316406-3.25 4.628906-3.25s2.3125 3.25 4.625 3.25c2.316407 0 2.316407-3.25 4.628907-3.25s2.3125 3.25 4.628906 3.25c2.308594 0 2.308594-3.25 4.625-3.25 2.3125 0 2.3125 3.25 4.625 3.25s2.3125-3.25 4.628906-3.25c2.3125 0 2.3125 3.25 4.628907 3.25 2.3125 0 2.3125-3.25 4.625-3.25 2.316406 0 2.316406 3.25 4.632812 3.25 2.3125 0 4.617188-4.390626 5.984375-2.585938 1.867187 2.457031-3.039063 4.007812-3.039063 7.058594 0 3.046875 3.363282 3.046875 3.363282 6.09375 0 3.050781-3.363282 3.050781-3.363282 6.097656s3.363282 3.046875 3.363282 6.097656c0 3.046875-3.363282 3.046875-3.363282 6.09375s3.363282 3.046875 3.363282 6.097656c0 3.046876-3.363282 3.046876-3.363282 6.09375 0 3.050782 3.363282 3.050782 3.363282 6.097657s-3.363282 3.046875-3.363282 6.09375c0 3.050781 3.363282 3.050781 3.363282 6.097656s-3.363282 3.046875-3.363282 6.097656c0 3.046875 3.363282 3.046875 3.363282 6.097657 0 3.046874-3.363282 3.046874-3.363282 6.097656 0 3.050781 3.363282 3.050781 3.363282 6.097656 0 3.050781-4.179688 3.625-3.296875 6.554688 1.09375 3.636718 4.839843 4.144531 2.972656 6.605468zm0 0" fill="#ccc033"/><path d="m298.007812 213.628906c-1.867187-2.457031 3.039063-4.011718 3.039063-7.058594 0-3.046874-3.363281-3.046874-3.363281-6.097656 0-3.046875 3.363281-3.046875 3.363281-6.09375 0-3.050781-3.363281-3.050781-3.363281-6.097656s3.363281-3.046875 3.363281-6.09375c0-3.050781-3.363281-3.050781-3.363281-6.097656s3.363281-3.046875 3.363281-6.097656c0-3.046876-3.363281-3.046876-3.363281-6.09375 0-3.046876 3.363281-3.046876 3.363281-6.097657 0-3.046875-3.363281-3.046875-3.363281-6.09375 0-3.050781 3.363281-3.050781 3.363281-6.097656 0-3.050781-3.363281-3.050781-3.363281-6.097656 0-3.050781 3.363281-3.050781 3.363281-6.097657 0-3.050781-3.363281-3.050781-3.363281-6.097656 0-3.050781 3.363281-3.050781 3.363281-6.101562 0-3.050782-4.90625-4.597656-3.039063-7.058594.011719-.011719.019532-.019531.027344-.03125-.386718-.371094-.851562-.632812-1.503906-.632812-2.3125 0-2.3125 3.25-4.625 3.25s-4.617188-4.386719-5.980469-2.585938c-1.867187 2.460938 3.039063 4.011719 3.039063 7.0625s-3.367188 3.050781-3.367188 6.097656c0 3.050782 3.367188 3.050782 3.367188 6.097656 0 3.050782-3.367188 3.050782-3.367188 6.101563 0 3.046875 3.367188 3.046875 3.367188 6.09375s-3.367188 3.046875-3.367188 6.097656 3.367188 3.050781 3.367188 6.097657c0 3.046874-3.367188 3.046874-3.367188 6.09375 0 3.050781 3.367188 3.050781 3.367188 6.097656s-3.367188 3.046875-3.367188 6.097656c0 3.046875 3.367188 3.046875 3.367188 6.09375s-3.367188 3.046875-3.367188 6.097656c0 3.046875 3.367188 3.046875 3.367188 6.09375 0 3.050782-3.367188 3.050782-3.367188 6.097656 0 3.046876 3.367188 3.046876 3.367188 6.09375 0 3.050782-4.90625 4.605469-3.039063 7.058594 1.367188 1.804688 3.671875-2.585937 5.984375-2.585937 2.316406 0 2.316406 3.25 4.628906 3.25.648438 0 1.113282-.257813 1.5-.628907-.007812-.011718-.019531-.023437-.03125-.035156zm0 0" fill="#99af17"/><path d="m293 205.730469v-81.601563c0-1.410156 1.144531-2.554687 2.554688-2.554687h57.484374c1.410157 0 2.554688 1.144531 2.554688 2.554687v81.601563c0 1.410156-1.144531 2.554687-2.554688 2.554687h-57.484374c-1.410157 0-2.554688-1.144531-2.554688-2.554687zm0 0" fill="#ffdf74"/><path d="m305.085938 205.734375v-81.605469c0-1.410156 1.140624-2.554687 2.554687-2.554687h-12.085937c-1.410157 0-2.554688 1.144531-2.554688 2.554687v81.605469c0 1.410156 1.144531 2.550781 2.554688 2.550781h12.085937c-1.414063 0-2.554687-1.140625-2.554687-2.550781zm0 0" fill="#ffd551"/><path d="m326.742188 139.195312c0-7.613281-6.183594-13.785156-13.808594-13.785156-7.628906 0-13.8125 6.171875-13.8125 13.785156 0 7.613282 6.183594 13.785157 13.8125 13.785157 7.625 0 13.808594-6.171875 13.808594-13.785157zm0 0" fill="#ffa730"/><path d="m295.21875 208.8125 59.558594-.660156c-27.785156-31.425782-61.777344-28.882813-61.777344-28.882813v27.015625c0 1.296875.96875 2.363282 2.21875 2.527344zm0 0" fill="#ffc34c"/><path d="m337.015625 203.039062c-11.257813 0-20.417969-9.144531-20.417969-20.386718 0-11.238282 9.160156-20.382813 20.417969-20.382813 11.261719 0 20.421875 9.144531 20.421875 20.382813 0 11.242187-9.160156 20.386718-20.421875 20.386718zm0-38.769531c-10.15625 0-18.417969 8.246094-18.417969 18.382813 0 10.136718 8.261719 18.382812 18.417969 18.382812 10.160156 0 18.421875-8.246094 18.421875-18.382812 0-10.136719-8.261719-18.382813-18.421875-18.382813zm0 0" fill="#a56021"/><path d="m337.015625 198.730469c-8.878906 0-16.105469-7.210938-16.105469-16.078125 0-8.867188 7.222656-16.078125 16.105469-16.078125 8.878906 0 16.105469 7.210937 16.105469 16.078125 0 8.867187-7.226563 16.078125-16.105469 16.078125zm0-30.15625c-7.777344 0-14.105469 6.316406-14.105469 14.078125 0 7.761718 6.328125 14.078125 14.105469 14.078125s14.105469-6.316407 14.105469-14.078125c0-7.761719-6.328125-14.078125-14.105469-14.078125zm0 0" fill="#e58d23"/><path d="m364.71875 185.011719c-5.585938 0-8.417969-1.128907-11.160156-2.222657-2.679688-1.074218-5.214844-2.085937-10.417969-2.085937-.550781 0-1-.445313-1-1 0-.550781.449219-1 1-1 5.589844 0 8.421875 1.132813 11.164063 2.226563 2.679687 1.070312 5.214843 2.082031 10.417968 2.082031s7.734375-1.011719 10.417969-2.082031c2.738281-1.09375 5.574219-2.226563 11.160156-2.226563.550781 0 1 .449219 1 1 0 .554687-.449219 1-1 1-5.203125 0-7.738281 1.011719-10.417969 2.082031-2.742187 1.09375-5.574218 2.226563-11.164062 2.226563zm0 0" fill="#a56021"/><path d="m364.71875 191.902344c-5.585938 0-8.417969-1.128906-11.160156-2.222656-2.679688-1.070313-5.214844-2.082032-10.417969-2.082032-.550781 0-1-.449218-1-1 0-.554687.449219-1 1-1 5.589844 0 8.421875 1.128906 11.164063 2.222656 2.679687 1.070313 5.214843 2.082032 10.417968 2.082032s7.734375-1.011719 10.417969-2.082032c2.738281-1.09375 5.574219-2.222656 11.160156-2.222656.550781 0 1 .445313 1 1 0 .550782-.449219 1-1 1-5.203125 0-7.738281 1.011719-10.417969 2.082032-2.742187 1.09375-5.574218 2.222656-11.164062 2.222656zm0 0" fill="#a56021"/><path d="m364.71875 198.796875c-5.585938 0-8.417969-1.132813-11.160156-2.226563-2.679688-1.070312-5.214844-2.082031-10.417969-2.082031-.550781 0-1-.449219-1-1s.449219-1 1-1c5.589844 0 8.421875 1.128907 11.164063 2.226563 2.679687 1.070312 5.214843 2.082031 10.417968 2.082031s7.734375-1.011719 10.417969-2.085937c2.738281-1.09375 5.574219-2.222657 11.160156-2.222657.550781 0 1 .449219 1 1s-.449219 1-1 1c-5.203125 0-7.738281 1.011719-10.417969 2.082031-2.742187 1.09375-5.574218 2.226563-11.164062 2.226563zm0 0" fill="#a56021"/><path d="m293.035156 206.671875c.011719.078125.027344.152344.050782.230469.011718.054687.027343.109375.042968.160156.332032 1 1.261719 1.722656 2.367188 1.75l11.347656-.125c-1.023438-.335938-1.757812-1.292969-1.757812-2.421875v-26.164063c-7.363282-1.183593-12.082032-.832031-12.082032-.832031v26.996094.050781c0 .121094.015625.238282.03125.355469zm0 0" fill="#ffb74b"/><path d="m299.121094 139.195312c0 4.703126 2.359375 8.855469 5.964844 11.34375v-22.683593c-3.605469 2.488281-5.964844 6.636719-5.964844 11.339843zm0 0" fill="#e58d23"/><path d="m314.609375 174.28125c0-2.140625-1.738281-3.878906-3.882813-3.878906-2.144531 0-3.882812 1.738281-3.882812 3.878906s1.738281 3.875 3.882812 3.875c2.144532 0 3.882813-1.734375 3.882813-3.875zm0 0" fill="#ffd551"/><path d="m314.609375 202.710938c0-2.140626-1.738281-3.875-3.882813-3.875-2.144531 0-3.882812 1.734374-3.882812 3.875 0 2.140624 1.738281 3.875 3.882812 3.875 2.144532 0 3.882813-1.734376 3.882813-3.875zm0 0" fill="#ffb74b"/><path d="m153.550781 154.035156c0 8.710938-7.0625 15.773438-15.773437 15.773438-8.714844 0-15.777344-7.0625-15.777344-15.773438 0-8.714844 7.0625-15.777344 15.777344-15.777344 8.710937 0 15.773437 7.0625 15.773437 15.777344zm0 0" fill="#ffdf74"/><path d="m115.589844 204.988281-13.964844 4.070313c-1.46875.425781-3.054688.023437-4.140625-1.054688l-11.601563-11.53125c-1.265624-1.257812-3.1875-1.582031-4.792968-.804687l-47.847656 23.109375v36.472656c0 8.835938 7.164062 16 16 16h100c8.835937 0 16-7.164062 16-16v-20.152344l-46.207032-29.609375c-1.019531-.65625-2.277344-.839843-3.445312-.5zm0 0" fill="#ccc033"/><path d="m33.242188 218.777344v36.472656c0 8.835938 7.164062 16 16 16h6.757812v-63.464844zm0 0" fill="#99af17"/><path d="m384 347.472656c-3.3125 0-6-2.683594-6-6v-128c0-3.3125 2.6875-6 6-6s6 2.6875 6 6v128c0 3.316406-2.6875 6-6 6zm0 0" fill="#fcf9de"/><path d="m464 240.402344c-3.3125 0-6-2.6875-6-6v-128c0-3.3125 2.6875-6 6-6s6 2.6875 6 6v128c0 3.3125-2.6875 6-6 6zm0 0" fill="#fce575"/></svg>