<svg height="475pt" viewBox="0 -1 475.868 475" width="475pt" xmlns="http://www.w3.org/2000/svg"><path d="m457.867188.433594h-270c-9.941407 0-18 8.058594-18 18v145.800781c0 9.941406 8.058593 18 18 18h270c9.941406 0 18-8.058594 18-18v-145.800781c0-9.941406-8.058594-18-18-18zm-257.3125 104.902344c-7.734376 0-14-6.269532-14-14 0-7.734376 6.265624-14 14-14 7.730468 0 14 6.265624 14 14 0 7.730468-6.269532 14-14 14zm0 0" fill="#ccc033"/><path d="m225.867188 164.234375v-145.800781c0-9.941406 8.058593-18 18-18h-56c-9.941407 0-18 8.058594-18 18v145.800781c0 9.941406 8.058593 18 18 18h56c-9.9375 0-18-8.058594-18-18zm-25.3125-58.898437c-7.734376 0-14-6.269532-14-14 0-7.734376 6.265624-14 14-14 7.730468 0 14 6.265624 14 14 0 7.730468-6.269532 14-14 14zm0 0" fill="#99af17"/><path d="m457.867188 172.234375c-3.3125 0-6-2.6875-6-6 0-1.777344.773437-3.375 2-4.472656v-140.855469c-1.226563-1.097656-2-2.695312-2-4.472656 0-3.3125 2.6875-6 6-6 4.414062 0 8 3.589844 8 8v145.800781c0 4.410156-3.585938 8-8 8zm0-149.800781h.019531zm0 0" fill="#eacf32"/><path d="m59.199219 211.179688v80.355468c0 1.09375.449219 2.144532 1.246093 2.898438l15.535157 14.777344c1.507812 1.433593 1.539062 3.828124.066406 5.300781l-15.675781 15.675781c-.75.75-1.171875 1.765625-1.171875 2.828125v66.835937c0 1.097657.449219 2.144532 1.246093 2.898438l15.535157 14.78125c1.507812 1.433594 1.539062 3.824219.066406 5.296875l-13.882813 13.882813c-1.613281 1.613281-1.550781 4.25.136719 5.785156l31.410157 28.589844c1.410156 1.28125 3.570312 1.28125 4.980468 0l34.507813-31.410157v-228.496093zm0 0" fill="#f9bb32"/><path d="m83.203125 439.675781 16.847656-16.847656c1.46875-1.46875 1.4375-3.863281-.066406-5.296875l-16.78125-15.964844v-70.207031l16.847656-16.847656c1.46875-1.472657 1.4375-3.867188-.066406-5.300781l-16.78125-15.960938v-82.070312h-24v80.355468c0 1.09375.449219 2.144532 1.242187 2.898438l15.539063 14.777344c1.503906 1.433593 1.535156 3.828124.066406 5.300781l-15.675781 15.675781c-.75.75-1.171875 1.765625-1.171875 2.828125v66.835937c0 1.097657.449219 2.144532 1.242187 2.898438l15.539063 14.78125c1.503906 1.433594 1.535156 3.824219.066406 5.296875l-13.886719 13.882813c-1.613281 1.613281-1.550781 4.25.136719 5.785156l31.410157 28.589844c1.414062 1.28125 3.570312 1.28125 4.980468 0l9.511719-8.65625zm0 0" fill="#db9c2e"/><path d="m95.507812 248.863281c-3.066406 0-5.550781 2.484375-5.550781 5.550781v190.746094c0 2.582032 2.484375 4.675782 5.550781 4.675782 3.066407 0 5.550782-2.09375 5.550782-4.675782v-190.746094c0-3.066406-2.484375-5.550781-5.550782-5.550781zm0 0" fill="#ffd551"/><path d="m96.203125 48.035156c-53.132813 0-96.203125 43.070313-96.203125 96.199219 0 53.132813 43.070312 96.203125 96.203125 96.203125 53.128906 0 96.199219-43.070312 96.199219-96.203125 0-53.128906-43.066406-96.199219-96.199219-96.199219zm0 140.601563c-24.484375 0-44.402344-19.917969-44.402344-44.402344 0-24.480469 19.917969-44.398437 44.402344-44.398437s44.402344 19.917968 44.402344 44.398437c0 24.484375-19.921875 44.402344-44.402344 44.402344zm0 0" fill="#f9bb32"/><path d="m116.265625 207.214844c-2.472656 0-4.789063-1.539063-5.660156-4.003906-1.101563-3.125.535156-6.554688 3.660156-7.65625 21.738281-7.675782 36.339844-28.296876 36.339844-51.320313 0-3.3125 2.683593-6 6-6 3.3125 0 6 2.6875 6 6 0 28.097656-17.820313 53.269531-44.34375 62.632813-.660157.238281-1.335938.347656-1.996094.347656zm0 0" fill="#ffc34c"/><path d="m132.351562 130.09375c-3.15625 0-6.148437-1.878906-7.414062-4.980469-1.667969-4.09375.296875-8.761719 4.386719-10.429687l60.058593-24.476563c4.09375-1.667969 8.757813.300781 10.425782 4.390625 1.667968 4.089844-.296875 8.757813-4.386719 10.425782l-60.054687 24.476562c-.988282.402344-2.011719.59375-3.015626.59375zm0 0" fill="#a56021"/><path d="m445.398438 133.335938h-207.394532c-4.585937 0-8.300781-3.71875-8.300781-8.304688v-67.394531c0-4.585938 3.714844-8.300781 8.300781-8.300781h207.394532c4.585937 0 8.304687 3.714843 8.304687 8.300781v67.394531c0 4.585938-3.71875 8.304688-8.304687 8.304688zm0 0" fill="#fcda4f"/><g fill="#ffc34c"><path d="m99.980469 417.53125-10.023438-9.539062v24.925781l10.089844-10.089844c.542969-.539063.875-1.203125 1.011719-1.898437v-1.4375c-.144532-.722657-.5-1.414063-1.078125-1.960938zm0 0"/><path d="m99.980469 309.210938-10.023438-9.535157v24.925781l10.089844-10.089843c.542969-.542969.875-1.207031 1.011719-1.898438v-1.4375c-.144532-.726562-.5-1.414062-1.078125-1.964843zm0 0"/><path d="m90.296875 446.132812c.617187 1.734376 2.058594 3.0625 3.863281 3.515626zm0 0"/></g><path d="m83.203125 211.238281c-11.386719-11.714843-19.816406-26.316406-24.074219-42.609375-4.625-7.007812-7.328125-15.390625-7.328125-24.394531s2.703125-17.382813 7.328125-24.390625c8.445313-32.3125 33.269532-57.996094 65.074219-67.65625-8.863281-2.695312-18.257813-4.152344-28-4.152344-53.132813 0-96.203125 43.070313-96.203125 96.199219 0 48.71875 36.222656 88.941406 83.203125 95.289063zm0 0" fill="#db9c2e"/><path d="m271.199219 23.664062c0 9.941407-8.058594 18-18 18-9.941407 0-18-8.058593-18-18 0-9.9375 8.058593-18 18-18 9.941406 0 18 8.0625 18 18zm0 0" fill="#99af17"/><path d="m142.203125 81.042969c0 9.941406-8.058594 18-18 18s-18-8.058594-18-18c0-9.941407 8.058594-18 18-18s18 8.058593 18 18zm0 0" fill="#db9c2e"/></svg>