<svg height="462pt" viewBox="-6 0 462 462.668" width="462pt" xmlns="http://www.w3.org/2000/svg"><path d="m401 462.667969h-117.335938c-4.417968 0-8-3.582031-8-8v-48h133.335938v48c0 4.417969-3.582031 8-8 8zm0 0" fill="#ffdf74"/><path d="m331.667969 454.667969v-48h-56v48c0 4.417969 3.582031 8 8 8h56c-4.417969 0-8-3.582031-8-8zm0 0" fill="#ffd551"/><path d="m275.667969 446.667969h133.335937v8c0 4.417969-3.582031 8-8 8h-117.335937c-4.417969 0-8-3.582031-8-8zm0 0" fill="#ccc033"/><path d="m356.335938 446.667969h-28v-3c0-7.730469 6.265624-14 14-14 7.730468 0 14 6.269531 14 14zm0 0" fill="#eacf32"/><path d="m331.667969 454.667969v-8h-56v8c0 4.417969 3.582031 8 8 8h56c-4.417969 0-8-3.582031-8-8zm0 0" fill="#99af17"/><path d="m328.335938 443.667969v3h3.332031v-12.054688c-2.074219 2.441407-3.332031 5.597657-3.332031 9.054688zm0 0" fill="#ccc033"/><path d="m268.335938 384h148v19.636719c0 2.410156-1.957032 4.363281-4.363282 4.363281h-139.277344c-2.410156 0-4.359374-1.953125-4.359374-4.363281zm0 0" fill="#ffd551"/><path d="m324.335938 403.636719v-19.636719h-56v19.636719c0 2.410156 1.953124 4.363281 4.359374 4.363281h56c-2.40625 0-4.359374-1.953125-4.359374-4.363281zm0 0" fill="#ffc34c"/><path d="m64.335938 127.667969h72v100h-72zm0 0" fill="#eacf32"/><path d="m64.335938 127.667969h40v100h-40zm0 0" fill="#ccc033"/><path d="m180.335938 462.667969h-160c-11.046876 0-20-8.953125-20-20v-190c0-38.660157 31.339843-70 70-70h60c38.65625 0 70 31.339843 70 70v190c0 11.046875-8.957032 20-20 20zm0 0" fill="#ccc033"/><path d="m184.335938 258.667969c-3.316407 0-6-2.6875-6-6 0-26.46875-21.535157-48-48-48-3.316407 0-6-2.6875-6-6s2.683593-6 6-6c33.082031 0 60 26.917969 60 60 0 3.3125-2.6875 6-6 6zm0 0" fill="#eacf32"/><path d="m142.335938 166h-84c-4.421876 0-8-3.582031-8-8v-72c0-4.417969 3.578124-8 8-8h84c4.417968 0 8 3.582031 8 8v72c0 4.417969-3.582032 8-8 8zm0 0" fill="#ffd551"/><path d="m56.335938 442.667969v-190c0-38.660157 31.339843-70 70-70h-56c-38.660157 0-70 31.339843-70 70v190c0 11.046875 8.953124 20 20 20h56c-11.046876 0-20-8.957031-20-20zm0 0" fill="#99af17"/><path d="m106.335938 158v-72c0-4.417969 3.578124-8 8-8h-56c-4.421876 0-8 3.582031-8 8v72c0 4.417969 3.578124 8 8 8h56c-4.421876 0-8-3.582031-8-8zm0 0" fill="#ffc34c"/><path d="m64.335938 155c-2.121094 0-3.835938-1.714844-3.835938-3.835938v-58.328124c0-2.121094 1.714844-3.835938 3.835938-3.835938 2.117187 0 3.832031 1.714844 3.832031 3.835938v58.332031c0 2.117187-1.714844 3.832031-3.832031 3.832031zm0 0" fill="#ffd551"/><path d="m88.335938 155c-2.121094 0-3.835938-1.714844-3.835938-3.835938v-58.328124c0-2.121094 1.714844-3.835938 3.835938-3.835938 2.117187 0 3.832031 1.714844 3.832031 3.835938v58.332031c0 2.117187-1.714844 3.832031-3.832031 3.832031zm0 0" fill="#ffd551"/><path d="m112.335938 155c-2.121094 0-3.835938-1.714844-3.835938-3.835938v-58.328124c0-2.121094 1.714844-3.835938 3.835938-3.835938 2.117187 0 3.832031 1.714844 3.832031 3.835938v58.332031c0 2.117187-1.714844 3.832031-3.832031 3.832031zm0 0" fill="#ffdf74"/><path d="m136.335938 155c-2.121094 0-3.835938-1.714844-3.835938-3.835938v-58.328124c0-2.121094 1.714844-3.835938 3.835938-3.835938 2.117187 0 3.832031 1.714844 3.832031 3.835938v58.332031c0 2.117187-1.714844 3.832031-3.832031 3.832031zm0 0" fill="#ffdf74"/><path d="m148.238281 326.78125c0-26.332031-21.445312-47.675781-47.902343-47.675781-26.460938 0-47.90625 21.34375-47.90625 47.675781 0 26.328125 21.445312 47.671875 47.90625 47.671875 26.457031 0 47.902343-21.34375 47.902343-47.671875zm0 0" fill="#fce575"/><path d="m102.5 434.667969c0 9.941406-8.058594 18-18 18s-18-8.058594-18-18c0-9.941407 8.058594-18 18-18s18 8.058593 18 18zm0 0" fill="#99af17"/><path d="m56.335938 307.945312c-2.511719 5.78125-3.90625 12.148438-3.90625 18.835938s1.394531 13.054688 3.90625 18.835938zm0 0" fill="#ffd551"/><g fill="#ffdf74"><path d="m139.945312 287.171875c.011719.011719.023438.027344.035157.039063 1.789062 1.785156 4.78125 1.71875 6.722656-.21875l14.734375-14.734376c1.863281-1.867187 2.273438-4.785156.742188-6.671874-1.757813-2.164063-5.078126-2.148438-7.164063-.0625l-14.890625 14.890624c-1.9375 1.9375-2.007812 4.933594-.21875 6.71875.015625.015626.027344.027344.039062.039063zm0 0"/><path d="m60.722656 366.394531c-.011718-.011719-.023437-.027343-.035156-.039062-1.789062-1.789063-4.785156-1.71875-6.722656.21875l-14.734375 14.734375c-1.863281 1.863281-2.273438 4.785156-.742188 6.671875 1.757813 2.164062 5.078125 2.148437 7.167969.058593l14.886719-14.886718c1.9375-1.9375 2.007812-4.933594.21875-6.71875-.015625-.011719-.027344-.027344-.039063-.039063zm0 0"/><path d="m60.722656 287.171875c.011719-.011719.027344-.027344.039063-.039063 1.789062-1.785156 1.71875-4.777343-.21875-6.71875l-14.734375-14.734374c-1.863282-1.867188-4.785156-2.273438-6.671875-.742188-2.164063 1.757812-2.148438 5.078125-.0625 7.164062l14.890625 14.890626c1.9375 1.9375 4.933594 2.003906 6.722656.21875.011719-.011719.023438-.023438.035156-.039063zm0 0"/><path d="m139.945312 366.394531c-.011718.011719-.027343.027344-.039062.039063-1.789062 1.785156-1.71875 4.78125.21875 6.71875l14.734375 14.734375c1.863281 1.863281 4.785156 2.273437 6.671875.742187 2.164062-1.757812 2.148438-5.078125.058594-7.167968l-14.886719-14.886719c-1.9375-1.9375-4.933594-2.007813-6.722656-.21875-.011719.011719-.023438.027343-.035157.039062zm0 0"/></g><path d="m44.316406 326.785156c0-.019531 0-.039062 0-.054687 0-2.527344-2.164062-4.597657-4.90625-4.597657h-20.839844c-2.636718 0-4.992187 1.773438-5.242187 4.191407-.285156 2.777343 2.074219 5.109375 5.027344 5.109375h21.054687c2.742188 0 4.90625-2.070313 4.90625-4.597656 0-.015626 0-.035157 0-.050782zm0 0" fill="#ffd551"/><path d="m156.351562 326.785156v.054688c0 2.527344 2.167969 4.597656 4.910157 4.597656h20.832031c2.636719 0 4.992188-1.777344 5.246094-4.195312.285156-2.773438-2.074219-5.109376-5.027344-5.109376h-21.050781c-2.746094 0-4.910157 2.070313-4.910157 4.597657zm0 0" fill="#ffdf74"/><path d="m100.335938 382.800781c-.019532 0-.039063 0-.054688 0-2.527344 0-4.597656 2.164063-4.597656 4.90625v20.839844c0 2.636719 1.773437 4.992187 4.191406 5.242187 2.773438.285157 5.109375-2.074218 5.109375-5.023437v-21.058594c0-2.742187-2.070313-4.90625-4.597656-4.90625-.015625 0-.035157 0-.050781 0zm0 0" fill="#ffdf74"/><path d="m100.335938 270.765625h.050781c2.527343.003906 4.597656-2.164063 4.597656-4.90625v-20.835937c0-2.636719-1.773437-4.992188-4.191406-5.242188-2.773438-.289062-5.109375 2.074219-5.109375 5.023438v21.054687c0 2.742187 2.070312 4.910156 4.597656 4.90625zm0 0" fill="#ffdf74"/><path d="m45.65625 388.039062 10.679688-10.675781v-12.136719c-.859376.21875-1.683594.660157-2.371094 1.351563l-14.734375 14.730469c-1.863281 1.867187-2.273438 4.789062-.742188 6.671875 1.757813 2.164062 5.078125 2.144531 7.167969.058593zm0 0" fill="#ffd551"/><path d="m53.964844 286.992188c.691406.691406 1.515625 1.128906 2.371094 1.347656v-12.132813l-10.527344-10.527343c-1.863282-1.863282-4.785156-2.273438-6.671875-.738282-2.164063 1.757813-2.148438 5.078125-.0625 7.164063zm0 0" fill="#ffd551"/><path d="m262.96875 382-32.632812-346h220l-32.636719 349.335938h-154.730469zm0 0" fill="#ccc033"/><path d="m450.335938 36h-220v-32c0-2.210938 1.789062-4 4-4h212c2.207031 0 4 1.789062 4 4zm0 0" fill="#eacf32"/><path d="m290.335938 0h-56c-2.210938 0-4 1.789062-4 4v32h56v-32c0-2.207031 1.789062-4 4-4zm0 0" fill="#ccc033"/><path d="m286.335938 36h-56l32.632812 346v3.335938h56v-3.335938zm0 0" fill="#99af17"/><path d="m379.945312 166.507812c.011719.011719.023438.023438.035157.035157 1.789062 1.789062 4.78125 1.722656 6.722656-.21875l14.734375-14.734375c1.863281-1.863282 2.273438-4.785156.742188-6.671875-1.757813-2.164063-5.078126-2.148438-7.164063-.058594l-14.890625 14.886719c-1.9375 1.941406-2.007812 4.9375-.21875 6.722656.015625.011719.027344.023438.039062.039062zm0 0" fill="#ffdf74"/><path d="m300.722656 245.726562c-.011718-.011718-.023437-.023437-.035156-.035156-1.789062-1.789062-4.785156-1.722656-6.722656.21875l-14.734375 14.730469c-1.863281 1.867187-2.273438 4.789063-.742188 6.675781 1.757813 2.164063 5.078125 2.144532 7.167969.058594l14.886719-14.886719c1.9375-1.941406 2.007812-4.9375.21875-6.722656-.015625-.011719-.027344-.027344-.039063-.039063zm0 0" fill="#ffd551"/><path d="m300.722656 166.507812c.011719-.015624.027344-.027343.039063-.039062 1.789062-1.785156 1.71875-4.78125-.21875-6.722656l-14.734375-14.734375c-1.863282-1.863281-4.785156-2.273438-6.671875-.738281-2.164063 1.757812-2.148438 5.078124-.0625 7.164062l14.890625 14.886719c1.9375 1.941406 4.933594 2.007812 6.722656.21875.011719-.011719.023438-.023438.035156-.035157zm0 0" fill="#ffdf74"/><path d="m379.945312 245.726562c-.011718.011719-.027343.027344-.039062.039063-1.789062 1.785156-1.71875 4.78125.21875 6.722656l14.734375 14.730469c1.863281 1.867188 4.785156 2.273438 6.671875.742188 2.164062-1.757813 2.148438-5.078126.058594-7.164063l-14.886719-14.886719c-1.9375-1.941406-4.933594-2.007812-6.722656-.21875-.011719.011719-.023438.023438-.035157.035156zm0 0" fill="#ffdf74"/><path d="m284.316406 206.117188c0-.019532 0-.039063 0-.054688 0-2.527344-2.164062-4.597656-4.90625-4.597656h-20.839844c-2.636718 0-4.992187 1.773437-5.242187 4.191406-.285156 2.777344 2.074219 5.109375 5.027344 5.109375h21.054687c2.742188 0 4.90625-2.070313 4.90625-4.597656 0-.015625 0-.035157 0-.050781zm0 0" fill="#ffd551"/><path d="m396.351562 206.117188v.054687c0 2.527344 2.167969 4.597656 4.910157 4.597656h20.832031c2.636719 0 4.992188-1.777343 5.246094-4.195312.285156-2.773438-2.074219-5.109375-5.027344-5.109375h-21.050781c-2.746094 0-4.910157 2.070312-4.910157 4.597656zm0 0" fill="#ffdf74"/><path d="m340.335938 262.132812c-.019532 0-.039063 0-.054688 0-2.527344 0-4.597656 2.164063-4.597656 4.90625v20.839844c0 2.636719 1.773437 4.992188 4.191406 5.242188 2.773438.285156 5.109375-2.074219 5.109375-5.023438v-21.058594c0-2.742187-2.070313-4.90625-4.597656-4.90625-.015625 0-.035157 0-.050781 0zm0 0" fill="#ffdf74"/><path d="m340.335938 150.097656h.050781c2.527343.003906 4.597656-2.164062 4.597656-4.90625v-20.835937c0-2.636719-1.773437-4.992188-4.191406-5.242188-2.773438-.289062-5.109375 2.074219-5.109375 5.023438v21.054687c0 2.742188 2.070312 4.910156 4.597656 4.90625zm0 0" fill="#ffdf74"/><path d="m297.738281 156.945312-11.933593-11.929687c-1.863282-1.867187-4.78125-2.277344-6.671876-.742187-2.164062 1.757812-2.148437 5.078124-.058593 7.164062l14.890625 14.890625c1.339844 1.339844 3.179687 1.765625 4.785156 1.320313zm0 0" fill="#ffd551"/><path d="m388.238281 206.113281c0-26.328125-21.445312-47.671875-47.902343-47.671875-26.460938 0-47.90625 21.34375-47.90625 47.671875 0 26.332031 21.445312 47.675781 47.90625 47.675781 26.457031 0 47.902343-21.34375 47.902343-47.675781zm0 0" fill="#fce575"/><path d="m299.960938 180.496094c-4.757813 7.40625-7.53125 16.195312-7.53125 25.617187 0 12.617188 4.957031 24.09375 13.027343 32.628907zm0 0" fill="#ffd551"/><path d="m332.5 60.746094c0 9.941406-8.058594 18-18 18s-18-8.058594-18-18 8.058594-18 18-18 18 8.058594 18 18zm0 0" fill="#99af17"/><path d="m403.574219 371.335938c-.183594 0-.375-.011719-.5625-.027344-3.300781-.308594-5.722657-3.234375-5.414063-6.53125l6.742188-72.191406c.308594-3.300782 3.222656-5.742188 6.53125-5.414063 3.300781.304687 5.726562 3.230469 5.417968 6.53125l-6.746093 72.1875c-.289063 3.109375-2.90625 5.445313-5.96875 5.445313zm0 0" fill="#eacf32"/></svg>