<svg height="469pt" viewBox="0 -2 469 469" width="469pt" xmlns="http://www.w3.org/2000/svg"><path d="m252.625 239.691406 39.523438 39.523438-66.277344 66.277344-39.523438-39.523438zm0 0" fill="#ffeacf"/><path d="m186.339844 305.972656 66.277344-66.277344 16.636718 16.636719-66.277344 66.273438zm0 0" fill="#ffd59a"/><path d="m374.398438 229.890625-6.636719-6.640625c-5.363281-5.363281-13.449219-5.972656-18.058594-1.363281l-7.269531 7.265625c3.792968 17.234375-.152344 34.800781-12.277344 46.921875l-13.175781 13.175781c5.328125 4.488281 12.71875 4.761719 17.050781.433594l41.738281-41.734375c4.605469-4.609375 3.996094-12.695313-1.371093-18.058594zm0 0" fill="#8c4c17"/><path d="m258.332031 184.660156c-7.664062-7.664062-20.03125-7.71875-27.625-.125-7.589843 7.589844-7.535156 19.957032.128907 27.621094 7.660156 7.664062 20.027343 7.71875 27.621093.125 7.59375-7.589844 7.539063-19.960938-.125-27.621094zm0 0" fill="#ffd59a"/><path d="m240.808594 293.1875-1.964844-1.964844c-23.148438-23.152344-23.148438-60.683594 0-83.835937l23.160156-23.15625c23.148438-23.152344 60.683594-23.152344 83.832032 0l1.964843 1.964843c23.152344 23.148438 23.152344 60.683594 0 83.835938l-23.15625 23.15625c-23.152343 23.148438-60.683593 23.148438-83.835937 0zm0 0" fill="#ffeacf"/><path d="m259.734375 216.609375 21.261719-21.261719c1.621094-1.621094 3.3125-3.132812 5.0625-4.53125 2.710937-2.164062 6.636718-1.898437 9.089844.558594l63.339843 63.339844c11.039063-22.609375 7.144531-50.683594-11.667969-69.5-1.84375-1.84375-3.777343-3.539063-5.78125-5.09375.003907.003906.007813.003906.011719.003906-.152343-.121094-.3125-.230469-.46875-.347656-.515625-.390625-1.03125-.777344-1.550781-1.148438-.253906-.179687-.511719-.351562-.765625-.53125-.472656-.320312-.941406-.640625-1.417969-.949218-.277344-.175782-.554687-.351563-.832031-.527344-.46875-.292969-.945313-.578125-1.417969-.859375-.28125-.164063-.558594-.328125-.839844-.484375-.5-.285156-1.003906-.558594-1.511718-.824219-.257813-.136719-.515625-.277344-.773438-.410156-.613281-.3125-1.234375-.613281-1.855468-.902344-.15625-.074219-.308594-.152344-.460938-.222656-.78125-.355469-1.5625-.695313-2.355469-1.015625-.207031-.085938-.414062-.160156-.621093-.242188-.585938-.230468-1.171876-.453125-1.757813-.667968-.296875-.105469-.59375-.203126-.890625-.300782-.507812-.175781-1.015625-.34375-1.527344-.503906-.324218-.101562-.648437-.199219-.972656-.292969-.492188-.144531-.988281-.28125-1.480469-.414062-.332031-.085938-.664062-.175781-.996093-.257813-.503907-.125-1.011719-.238281-1.515626-.351562-.320312-.070313-.640624-.144532-.960937-.210938-.566406-.113281-1.132813-.214844-1.703125-.316406-.261719-.042969-.519531-.097656-.78125-.136719-.816406-.132812-1.632812-.246093-2.449219-.34375-.253906-.03125-.507812-.050781-.761719-.078125-.578124-.0625-1.15625-.121094-1.734374-.167968-.34375-.027344-.6875-.042969-1.035157-.066407-.488281-.027343-.980469-.058593-1.46875-.074219-.371093-.015624-.742187-.023437-1.113281-.027343-.46875-.007813-.933594-.015625-1.402344-.011719-.378906.003906-.757812.007812-1.136718.015625-.464844.007813-.929688.027344-1.394532.046875-.375.019531-.746094.035156-1.121094.058594-.488281.03125-.976562.074218-1.460937.117187-.351563.03125-.695313.054688-1.042969.089844-.730468.078125-1.453125.171875-2.179687.273437-.375.054688-.75.117188-1.125.179688-.519531.082031-1.039063.167969-1.554688.261719-.378906.074219-.753906.15625-1.132812.234375-.441407.089844-.882813.183594-1.324219.285156-.390625.089844-.785156.191406-1.175781.289062-.421875.105469-.84375.21875-1.265625.335938-.394532.109375-.789063.21875-1.183594.339844-.414062.121094-.828125.253906-1.242188.386718-.390624.125-.78125.25-1.167968.382813-.421875.148437-.84375.304687-1.261719.457031-.375.136719-.746094.269532-1.117187.417969-.5.195313-.996094.40625-1.492188.617187-.539062.226563-1.074219.464844-1.613281.710938-.4375.199219-.875.394531-1.3125.609375l.003906.003906c-5.859375 2.859375-11.359375 6.722657-16.230469 11.589844l-21.285156 21.285156c-23.5625 23.5625-24.253906 61.945313-.898438 85.789063 7.511719 7.667968 16.539063 12.917968 26.125 15.753906-2.109374-1.636719-4.136718-3.429688-6.0625-5.386719-23.515624-23.828125-22.867187-62.347656.757813-85.972656zm0 0" fill="#ffd59a"/><path d="m294.863281 223.679688c-2.953125-2.953126-7.714843-2.972657-10.636719-.050782-2.925781 2.921875-2.902343 7.6875.046876 10.636719 2.953124 2.949219 7.714843 2.972656 10.636718.050781 2.925782-2.925781 2.902344-7.6875-.046875-10.636718zm0 0" fill="#a56021"/><path d="m331.546875 260.363281c-2.953125-2.953125-7.714844-2.972656-10.636719-.050781-2.925781 2.925781-2.902344 7.6875.046875 10.636719 2.953125 2.949219 7.714844 2.972656 10.636719.050781 2.925781-2.925781 2.902344-7.6875-.046875-10.636719zm0 0" fill="#a56021"/><path d="m150.78125 465.636719 75.640625-75.640625c25.816406-25.816406 30.699219-62.792969 10.902344-82.589844l-35.953125-35.953125c-19.796875-19.796875-56.773438-14.914063-82.589844 10.90625l-14.132812 14.128906-61.507813 61.507813zm0 0" fill="#ffeacf"/><path d="m320.996094 287.265625-15.027344-15.027344c-5.464844-5.464843-5.464844-14.332031 0-19.796875l7.074219-7.070312c5.46875-5.46875 14.332031-5.46875 19.796875 0l15.027344 15.023437c5.46875 5.46875 5.46875 14.332031 0 19.800781l-7.074219 7.070313c-5.464844 5.46875-14.328125 5.46875-19.796875 0zm0 0" fill="#ff624b"/><path d="m261.089844 185.136719 13.664062 13.664062-11.210937 11.207031-13.664063-13.660156zm0 0" fill="#a56021"/><path d="m243.34375 199.679688 8.550781 8.550781 41.960938-41.964844c3.40625-3.402344 3.40625-8.925781 0-12.332031l-2.382813-2.382813c-3.40625-3.40625-8.929687-3.40625-12.335937 0l-35.792969 35.792969c-3.40625 3.40625-3.40625 8.929688 0 12.335938zm0 0" fill="#8c4c17"/><path d="m258.332031 184.660156c-7.664062-7.664062-20.03125-7.71875-27.625-.125-7.589843 7.589844-7.535156 19.957032.128907 27.621094 7.660156 7.664062 20.027343 7.71875 27.621093.125 7.59375-7.589844 7.539063-19.960938-.125-27.621094zm0 0" fill="#ffd59a"/><path d="m373.855469 253.863281-98.359375-98.359375 8.449218-8.449218c27.160157-27.160157 71.195313-27.160157 98.359376 0 27.160156 27.160156 27.160156 71.195312 0 98.355468zm0 0" fill="#ccc033"/><path d="m373.742188 237.128906c-1.382813 0-2.777344-.476562-3.90625-1.453125-2.515626-2.164062-2.796876-5.949219-.636719-8.460937 9.695312-11.269532 13.554687-26.722656 10.320312-41.335938-.714843-3.234375 1.328125-6.4375 4.558594-7.152344 3.242187-.714843 6.441406 1.324219 7.15625 4.5625 4.046875 18.28125-.792969 37.628907-12.941406 51.75-1.183594 1.378907-2.863281 2.089844-4.550781 2.089844zm0 0" fill="#eacf32"/><path d="m278.570312 244.839844-15.027343-15.027344c-5.46875-5.46875-5.46875-14.332031 0-19.796875l7.074219-7.070313c5.46875-5.46875 14.332031-5.46875 19.796874 0l15.027344 15.023438c5.464844 5.46875 5.464844 14.332031 0 19.796875l-7.074218 7.074219c-5.464844 5.464844-14.332032 5.464844-19.796876 0zm0 0" fill="#ff624b"/><path d="m305.386719 169.617188c23.816406-23.816407 60.601562-26.746094 87.617187-8.796876-2.910156-4.910156-6.476562-9.542968-10.699218-13.765624-27.160157-27.160157-71.195313-27.160157-98.355469 0l-8.453125 8.449218 22 22zm0 0" fill="#99af17"/><path d="m317.96875 264.441406 7.074219-7.070312c5.46875-5.46875 14.332031-5.46875 19.796875 0l3.027344 3.023437-15.023438-15.023437c-5.46875-5.46875-14.332031-5.46875-19.800781 0l-7.070313 7.070312c-5.46875 5.464844-5.46875 14.332032 0 19.796875l12 12c-5.46875-5.464843-5.46875-14.332031-.003906-19.796875zm0 0" fill="#ff4b34"/><path d="m275.542969 222.011719 7.074219-7.070313c5.46875-5.46875 14.332031-5.46875 19.796874 0l-12-12c-5.46875-5.46875-14.332031-5.46875-19.796874 0l-7.074219 7.070313c-5.46875 5.46875-5.46875 14.332031 0 19.800781l12 12c-5.46875-5.46875-5.46875-14.332031 0-19.800781zm0 0" fill="#ff4b34"/><path d="m270.566406 216.847656 6.882813-6.882812c1.613281-1.613282 4.230469-1.613282 5.84375 0l16.195312 16.195312c1.617188 1.617188 1.617188 4.234375 0 5.847656l-6.878906 6.882813c-1.617187 1.613281-4.234375 1.613281-5.847656 0l-16.195313-16.195313c-1.613281-1.617187-1.613281-4.234374 0-5.847656zm0 0" fill="#fcda4f"/><path d="m315.777344 262.058594 6.882812-6.882813c1.613282-1.613281 4.230469-1.613281 5.847656 0l16.195313 16.199219c1.613281 1.613281 1.613281 4.230469 0 5.84375l-6.882813 6.882812c-1.613281 1.613282-4.230468 1.613282-5.847656 0l-16.195312-16.195312c-1.613282-1.613281-1.613282-4.234375 0-5.847656zm0 0" fill="#fcda4f"/><path d="m271.640625 223.769531 5.808594-5.804687c1.613281-1.617188 4.230469-1.617188 5.84375 0l15.117187 15.117187 1.078125-1.078125c1.617188-1.613281 1.617188-4.230468 0-5.847656l-16.195312-16.195312c-1.613281-1.613282-4.230469-1.613282-5.84375 0l-6.882813 6.882812c-1.613281 1.613281-1.613281 4.230469 0 5.847656zm0 0" fill="#f9bb32"/><path d="m316.855469 268.980469 5.804687-5.804688c1.613282-1.613281 4.230469-1.613281 5.847656 0l15.117188 15.117188 1.078125-1.078125c1.613281-1.613282 1.613281-4.230469 0-5.84375l-16.195313-16.199219c-1.617187-1.613281-4.234374-1.613281-5.847656 0l-6.882812 6.882813c-1.613282 1.613281-1.613282 4.234374 0 5.847656zm0 0" fill="#f9bb32"/><path d="m134.777344 298.355469c25.820312-25.816407 62.796875-30.699219 82.59375-10.902344l-16-16c-19.796875-19.796875-56.773438-14.914063-82.59375 10.902344l-14.132813 14.132812-61.503906 61.507813 16 16 61.507813-61.507813zm0 0" fill="#ffd59a"/><g fill="#ffeacf"><path d="m344.453125 66.316406-67.660156-18.125c-13.074219-3.507812-20.832031-16.945312-17.328125-30.019531 3.503906-13.078125 16.941406-20.835937 30.015625-17.332031l67.660156 18.128906c7.867187 2.109375 12.539063 10.195312 10.429687 18.066406l-5.050781 18.851563c-2.113281 7.867187-10.199219 12.539062-18.066406 10.429687zm0 0"/><path d="m92.453125 167.851562c-4.019531 4.019532-5.738281 9.800782-4.558594 15.363282l28.46875 134.425781 62.398438-34.65625-31.078125-86.429687c-2.203125-6.125-.667969-12.96875 3.929687-17.566407l148.882813-148.882812-27.773438-27.773438zm0 0"/><path d="m305.921875 73.285156-37.363281-15.1875 6.328125-15.566406 37.363281 15.183594c4.296875 1.75 6.367188 6.648437 4.621094 10.949218-1.75 4.300782-6.652344 6.367188-10.949219 4.621094zm0 0"/></g><path d="m102.035156 197.359375c-1.175781-5.5625.535156-11.347656 4.558594-15.367187l169.515625-155.644532c2.53125-4.359375 6.304687-7.765625 10.738281-9.855468l.015625-.015626.003907.003907c5.054687-2.375 10.9375-3.054688 16.753906-1.496094l64.40625 17.257813c-.40625-6.125-4.628906-11.59375-10.890625-13.269532l-67.65625-18.128906c-5.816407-1.558594-11.699219-.8789062-16.753907 1.496094l-.003906-.003906-.019531.019531c-4.429687 2.089843-8.203125 5.492187-10.734375 9.855469l-169.515625 155.640624c-4.019531 4.019532-5.738281 9.800782-4.558594 15.363282l28.46875 134.425781 9.976563-5.539063zm0 0" fill="#ffd59a"/><path d="m467.769531 325.582031c-.546875 0-1.023437.367188-1.175781.894531-4.886719 16.957032-16.699219 28.921876-30.503906 28.921876-9.75 0-18.503906-5.964844-24.53125-15.441407-1.976563-3.109375-6.570313-3.109375-8.546875 0-6.027344 9.472657-14.78125 15.441407-24.53125 15.441407-9.980469 0-18.917969-6.257813-24.953125-16.132813-1.964844-3.214844-6.6875-3.214844-8.65625 0-6.03125 9.875-14.972656 16.132813-24.953125 16.132813-9.746094 0-18.503907-5.964844-24.527344-15.441407-1.980469-3.109375-6.574219-3.109375-8.550781 0-6.027344 9.472657-14.78125 15.441407-24.527344 15.441407-9.75 0-18.503906-5.964844-24.527344-15.441407-1.980468-3.109375-6.574218-3.109375-8.550781 0-6.023437 9.472657-14.777344 15.441407-24.527344 15.441407-9.746093 0-18.5-5.964844-24.527343-15.441407-1.976563-3.109375-6.570313-3.109375-8.546876 0-6.027343 9.472657-14.78125 15.441407-24.527343 15.441407-9.75 0-18.503907-5.964844-24.53125-15.441407-1.976563-3.109375-6.570313-3.109375-8.546875 0-6.023438 9.472657-14.78125 15.441407-24.527344 15.441407s-18.503906-5.964844-24.527344-15.441407c-1.980468-3.109375-6.574218-3.109375-8.546875 0-6.027343 9.472657-14.78125 15.441407-24.53125 15.441407-14.046875 0-26.03125-12.386719-30.753906-29.816407h-1.140625v96.492188h469v-95.257813c0-.683594-.550781-1.234375-1.230469-1.234375zm0 0" fill="#fcda4f"/><path d="m467.769531 356.949219c-.546875 0-1.023437.433593-1.175781 1.054687-4.886719 20.011719-16.699219 34.128906-30.503906 34.128906-9.75 0-18.503906-7.039062-24.53125-18.21875-1.976563-3.671874-6.570313-3.671874-8.546875 0-6.027344 11.179688-14.78125 18.21875-24.53125 18.21875-9.980469 0-18.917969-7.382812-24.953125-19.035156-1.964844-3.796875-6.6875-3.796875-8.65625 0-6.03125 11.652344-14.972656 19.035156-24.953125 19.035156-9.746094 0-18.503907-7.039062-24.527344-18.21875-1.980469-3.671874-6.574219-3.671874-8.550781 0-6.027344 11.179688-14.78125 18.21875-24.527344 18.21875-9.75 0-18.503906-7.039062-24.527344-18.21875-1.980468-3.671874-6.574218-3.671874-8.550781 0-6.023437 11.179688-14.777344 18.21875-24.527344 18.21875-9.746093 0-18.5-7.039062-24.527343-18.21875-1.976563-3.671874-6.570313-3.671874-8.546876 0-6.027343 11.179688-14.78125 18.21875-24.527343 18.21875-9.75 0-18.503907-7.039062-24.53125-18.21875-1.976563-3.671874-6.570313-3.671874-8.546875 0-6.023438 11.179688-14.78125 18.21875-24.527344 18.21875s-18.503906-7.039062-24.527344-18.21875c-1.980468-3.671874-6.574218-3.671874-8.546875 0-6.027343 11.179688-14.78125 18.21875-24.53125 18.21875-14.046875 0-26.03125-14.617187-30.753906-35.183593h-1.140625v107.492187h469v-106.039062c0-.804688-.550781-1.453125-1.230469-1.453125zm0 0" fill="#eacf32"/><path d="m465.011719 465.550781c2.203125 0 3.988281-1.789062 3.988281-4v-65.390625c0-.785156-.550781-1.425781-1.230469-1.425781-.546875 0-1.023437.425781-1.175781 1.035156-4.886719 19.628907-16.699219 33.480469-30.503906 33.480469-9.746094 0-18.5-6.902344-24.527344-17.867188-1.847656-3.367187-6.703125-3.367187-8.550781 0-6.027344 10.964844-14.78125 17.867188-24.527344 17.867188-9.976563 0-18.917969-7.238281-24.949219-18.664062-1.835937-3.480469-6.824218-3.480469-8.664062 0-6.03125 11.425781-14.972656 18.664062-24.949219 18.664062-9.746094 0-18.5-6.902344-24.523437-17.867188-1.847657-3.367187-6.707032-3.367187-8.554688 0-6.023438 10.964844-14.777344 17.867188-24.523438 17.867188-9.746093 0-18.5-6.902344-24.527343-17.867188-1.847657-3.367187-6.703125-3.367187-8.554688 0-6.023437 10.964844-14.777343 17.867188-24.523437 17.867188s-18.5-6.90625-24.523438-17.867188c-1.847656-3.367187-6.707031-3.367187-8.554687 0-6.027344 10.964844-14.78125 17.867188-24.527344 17.867188s-18.5-6.902344-24.523437-17.867188c-1.847657-3.363281-6.707032-3.363281-8.554688 0-6.023438 10.964844-14.777344 17.871094-24.523438 17.871094-9.75 0-18.5-6.90625-24.527343-17.871094-1.847657-3.363281-6.707031-3.363281-8.554688 0-6.023437 10.964844-14.777343 17.867188-24.523437 17.867188-14.046875 0-26.03125-14.339844-30.757813-34.515625h-1.144531v66.816406c0 2.210938 1.785156 4 3.988281 4zm0 0" fill="#ccc033"/><path d="m318.492188 36.964844c0 9.941406-8.058594 18-18 18-9.9375 0-18-8.058594-18-18s8.0625-18 18-18c9.941406 0 18 8.058594 18 18zm0 0" fill="#ffd59a"/><path d="m308.109375 254.191406-12.050781-12.050781c-.78125-.78125-.78125-2.046875 0-2.828125l3.003906-3.003906c.785156-.78125 2.050781-.78125 2.828125 0l12.050781 12.050781c.78125.78125.78125 2.046875 0 2.824219l-3.003906 3.007812c-.78125.78125-2.046875.78125-2.828125 0zm0 0" fill="#ff4b34"/></svg>