<svg height="469pt" viewBox="0 -16 469 468" width="469pt" xmlns="http://www.w3.org/2000/svg"><path d="m0 156.816406h469v166.242188h-469zm0 0" fill="#fff4c1"/><path d="m465 179.816406h-461c-2.210938 0-4-1.792968-4-4v-38c0-2.210937 1.789062-4 4-4h461c2.210938 0 4 1.789063 4 4v38c0 2.207032-1.789062 4-4 4zm0 0" fill="#f9bb32"/><path d="m0 156.816406h56v166.242188h-56zm0 0" fill="#fce575"/><path d="m56 175.816406v-38c0-2.210937 1.789062-4 4-4h-56c-2.210938 0-4 1.789063-4 4v38c0 2.207032 1.789062 4 4 4h56c-2.210938 0-4-1.792968-4-4zm0 0" fill="#db9c2e"/><g fill="#e58d23"><path d="m167.5 107.816406v17h-125v-17zm0 0"/><path d="m167.5 187.816406v17h-125v-17zm0 0"/><path d="m167.5 267.816406v17h-125v-17zm0 0"/></g><path d="m63.5 351.816406h-21v-273.5c0-5.800781 4.703125-10.5 10.5-10.5s10.5 4.699219 10.5 10.5zm0 0" fill="#bf6c0d"/><path d="m167.5 351.816406h-21v-273.5c0-5.800781 4.703125-10.5 10.5-10.5s10.5 4.699219 10.5 10.5zm0 0" fill="#bf6c0d"/><path d="m59 69.714844c-1.703125-1.191406-3.765625-1.898438-6-1.898438-5.796875 0-10.5 4.699219-10.5 10.5v273.5h12v-273.5c0-3.566406 1.785156-6.703125 4.5-8.601562zm0 0" fill="#a56021"/><path d="m62.5 267.816406h21v17h-21zm0 0" fill="#bf6c0d"/><path d="m62.5 187.816406h21v17h-21zm0 0" fill="#bf6c0d"/><path d="m62.5 107.816406h21v17h-21zm0 0" fill="#bf6c0d"/><path d="m467.769531 274.8125c-.546875 0-1.023437.367188-1.175781.894531-4.886719 16.957031-16.699219 28.921875-30.503906 28.921875-9.75 0-18.503906-5.964844-24.53125-15.441406-1.976563-3.109375-6.570313-3.109375-8.546875 0-6.027344 9.476562-14.78125 15.441406-24.53125 15.441406-9.980469 0-18.917969-6.257812-24.953125-16.128906-1.964844-3.21875-6.6875-3.21875-8.65625 0-6.03125 9.871094-14.972656 16.128906-24.953125 16.128906-9.746094 0-18.503907-5.964844-24.527344-15.441406-1.980469-3.109375-6.574219-3.109375-8.546875 0-6.027344 9.476562-14.78125 15.441406-24.53125 15.441406-9.746094 0-18.5-5.964844-24.527344-15.441406-1.976562-3.109375-6.570312-3.109375-8.546875 0-6.027343 9.476562-14.78125 15.441406-24.527343 15.441406-9.75 0-18.503907-5.964844-24.527344-15.441406-1.980469-3.109375-6.574219-3.109375-8.550782 0-6.023437 9.476562-14.777343 15.441406-24.527343 15.441406-9.746094 0-18.5-5.964844-24.527344-15.441406-1.976563-3.109375-6.570313-3.109375-8.546875 0-6.027344 9.476562-14.78125 15.441406-24.527344 15.441406-9.75 0-18.503906-5.964844-24.53125-15.441406-1.976562-3.109375-6.570312-3.109375-8.546875 0-6.027343 9.476562-14.78125 15.441406-24.527343 15.441406-14.046876 0-26.03125-12.386718-30.757813-29.816406h-1.140625v96.492188h469v-95.257813c0-.679687-.550781-1.234375-1.230469-1.234375zm0 0" fill="#fcda4f"/><path d="m467.769531 306.179688c-.546875 0-1.023437.433593-1.175781 1.054687-4.886719 20.011719-16.699219 34.128906-30.503906 34.128906-9.75 0-18.503906-7.039062-24.53125-18.21875-1.976563-3.671875-6.570313-3.671875-8.546875 0-6.027344 11.179688-14.78125 18.21875-24.53125 18.21875-9.980469 0-18.917969-7.378906-24.953125-19.035156-1.964844-3.796875-6.6875-3.796875-8.65625 0-6.03125 11.65625-14.972656 19.035156-24.953125 19.035156-9.746094 0-18.503907-7.039062-24.527344-18.21875-1.980469-3.671875-6.574219-3.671875-8.546875 0-6.027344 11.179688-14.78125 18.21875-24.53125 18.21875-9.746094 0-18.5-7.039062-24.527344-18.21875-1.976562-3.671875-6.570312-3.671875-8.546875 0-6.027343 11.179688-14.78125 18.21875-24.527343 18.21875-9.75 0-18.503907-7.039062-24.527344-18.21875-1.980469-3.671875-6.574219-3.671875-8.550782 0-6.023437 11.179688-14.777343 18.21875-24.527343 18.21875-9.746094 0-18.5-7.039062-24.527344-18.21875-1.976563-3.671875-6.570313-3.671875-8.546875 0-6.027344 11.179688-14.78125 18.21875-24.527344 18.21875-9.75 0-18.503906-7.039062-24.53125-18.21875-1.976562-3.671875-6.570312-3.671875-8.546875 0-6.027343 11.179688-14.78125 18.21875-24.527343 18.21875-14.046876 0-26.03125-14.617187-30.757813-35.183593h-1.140625v107.492187h469v-106.039063c0-.800781-.550781-1.453124-1.230469-1.453124zm0 0" fill="#eacf32"/><path d="m467.769531 343.964844c-.546875 0-1.023437.425781-1.175781 1.035156-4.886719 19.628906-16.699219 33.484375-30.503906 33.484375-9.746094 0-18.5-6.90625-24.527344-17.871094-1.847656-3.363281-6.707031-3.363281-8.554688 0-6.023437 10.964844-14.777343 17.871094-24.523437 17.871094-9.980469 0-18.917969-7.242187-24.949219-18.667969-1.839844-3.480468-6.828125-3.480468-8.664062 0-6.035156 11.429688-14.972656 18.667969-24.949219 18.667969-9.746094 0-18.5-6.90625-24.527344-17.871094-1.847656-3.363281-6.703125-3.363281-8.550781 0-6.027344 10.964844-14.78125 17.871094-24.527344 17.871094s-18.5-6.90625-24.527344-17.871094c-1.847656-3.363281-6.703124-3.363281-8.554687 0-6.023437 10.964844-14.777344 17.871094-24.523437 17.871094-9.746094 0-18.5-6.90625-24.523438-17.871094-1.847656-3.363281-6.707031-3.363281-8.554688 0-6.027343 10.964844-14.78125 17.871094-24.527343 17.871094-9.746094 0-18.5-6.90625-24.523438-17.871094-1.847656-3.363281-6.707031-3.363281-8.554687 0-6.023438 10.964844-14.777344 17.871094-24.523438 17.871094s-18.5-6.90625-24.527344-17.871094c-1.847656-3.363281-6.703124-3.363281-8.550781 0-6.027343 10.964844-14.78125 17.871094-24.527343 17.871094-14.046876 0-26.03125-14.34375-30.753907-34.519531h-1.144531v66.816406.003906 22.519532c0 2.210937 1.789062 4 4 4h461c2.210938 0 4-1.789063 4-4v-87.914063c0-.785156-.550781-1.425781-1.230469-1.425781zm0 0" fill="#ccc033"/><path d="m237.824219 101.867188-18.375 31.515624c-1.449219 2.480469-4.628907 3.332032-7.121094 1.90625-2.527344-1.441406-3.390625-4.667968-1.925781-7.179687l18.332031-31.4375zm0 0" fill="#e58d23"/><path d="m344.1875 101.867188 18.375 31.515624c1.449219 2.480469 4.625 3.332032 7.121094 1.90625 2.523437-1.441406 3.386718-4.667968 1.921875-7.179687l-18.332031-31.4375zm0 0" fill="#e58d23"/><path d="m216.867188 135.289062c-2.527344-1.445312-3.390626-4.667968-1.925782-7.183593l17.195313-29.492188-3.402344-1.945312-18.332031 31.4375c-1.464844 2.511719-.601563 5.738281 1.921875 7.183593 1.5625.890626 3.390625.890626 4.898437.160157-.117187-.058594-.242187-.09375-.355468-.160157zm0 0" fill="#bf6c0d"/><path d="m367.101562 133.378906-18.378906-31.515625 5.6875-3.25-1.132812-1.945312-9.089844 5.195312 18.375 31.515625c1.378906 2.371094 4.328125 3.230469 6.761719 2.066406-.898438-.433593-1.683594-1.136718-2.222657-2.066406zm0 0" fill="#bf6c0d"/><path d="m371.824219 90.945312h-167.925781v-13.785156c0-5.015625 4.0625-9.078125 9.078124-9.078125h149.773438c5.015625 0 9.078125 4.0625 9.078125 9.078125v13.785156zm0 0" fill="#fff4c1"/><path d="m454.796875 12.964844-80.515625 79.726562-9.8125-9.714844c-3.589844-3.550781-3.589844-9.347656 0-12.898437l67.617188-66.953125c3.539062-3.5 9.234374-3.5 12.773437 0zm0 0" fill="#fff4c1"/><path d="m244.746094 68.082031h-31.769532c-5.015624 0-9.078124 4.066407-9.078124 9.078125v13.785156h31.769531v-13.785156c0-5.011718 4.0625-9.078125 9.078125-9.078125zm0 0" fill="#fce575"/><path d="m464.710938 26.253906-78.886719 78.105469-12.027344-11.914063 79.003906-78.222656c3.296875-3.265625 8.609375-3.265625 11.910157 0 3.34375 3.3125 3.34375 8.71875 0 12.03125zm0 0" fill="#bf6c0d"/><path d="m382.875 92.445312 79.003906-78.222656c.4375-.433594.914063-.808594 1.414063-1.125-3.261719-2.078125-7.632813-1.707031-10.492188 1.125l-79.003906 78.222656zm0 0" fill="#a56021"/><path d="m386.335938 104.359375h-180.597657c-4.015625 0-7.273437-3.257813-7.273437-7.273437 0-4.019532 3.257812-7.277344 7.273437-7.277344h180.597657zm0 0" fill="#bf6c0d"/><path d="m205.738281 89.808594c-4.015625 0-7.273437 3.257812-7.273437 7.277344 0 4.015624 3.257812 7.273437 7.273437 7.273437h25.035157c-.34375-.847656-.539063-1.769531-.539063-2.738281 0-4.015625 3.257813-7.273438 7.277344-7.273438h143.097656l4.925781-4.539062zm0 0" fill="#a56021"/><path d="m104.5 156.902344c0 9.941406-8.058594 18-18 18s-18-8.058594-18-18 8.058594-18 18-18 18 8.058594 18 18zm0 0" fill="#db9c2e"/><path d="m453 273.816406c-3.3125 0-6-2.6875-6-6v-80c0-3.3125 2.6875-6 6-6s6 2.6875 6 6v80c0 3.3125-2.6875 6-6 6zm0 0" fill="#fcf9de"/></svg>