<svg height="481pt" viewBox="-1 0 481 481.99916" width="481pt" xmlns="http://www.w3.org/2000/svg"><path d="m115.691406 331.570312c0 26.507813-21.488281 48-48 48-26.507812 0-48-21.492187-48-48 0-26.511718 21.492188-48 48-48 26.511719 0 48 21.488282 48 48zm0 0" fill="#eacf32"/><path d="m43.691406 331.570312c0-22.371093 15.296875-41.160156 36-46.488281-3.835937-.988281-7.855468-1.511719-12-1.511719-26.511718 0-48 21.488282-48 48 0 26.507813 21.488282 48 48 48 4.144532 0 8.164063-.527343 12-1.515624-20.703125-5.328126-36-24.121094-36-46.484376zm0 0" fill="#ccc033"/><path d="m19.691406 331.570312c0 14.585938 6.53125 27.628907 16.800782 36.433594 10.269531-8.804687 16.800781-21.847656 16.800781-36.433594 0-14.589843-6.53125-27.628906-16.800781-36.433593-10.269532 8.804687-16.800782 21.84375-16.800782 36.433593zm0 0" fill="#fcda4f"/><path d="m82.089844 331.570312c0 14.585938 6.53125 27.628907 16.800781 36.433594 10.269531-8.804687 16.800781-21.847656 16.800781-36.433594 0-14.589843-6.53125-27.628906-16.800781-36.433593-10.269531 8.804687-16.800781 21.84375-16.800781 36.433593zm0 0" fill="#fcda4f"/><path d="m427.628906 454.007812 26.511719-26.554687-161.644531-161.890625-26.507813 26.554688zm0 0" fill="#ffc34c"/><path d="m282.957031 275.144531 9.554688-9.566406-.011719-.015625-26.511719 26.550781 161.640625 161.894531 16.957032-16.988281zm0 0" fill="#f9bb32"/><g fill="#a56021"><path d="m223.058594 75.894531-148.019532 148.253907c-4.035156 4.042968-10.582031 4.042968-14.621093 0-4.035157-4.042969-4.035157-10.601563 0-14.640626l148.019531-148.253906c4.035156-4.046875 10.582031-4.046875 14.621094 0 4.035156 4.042969 4.035156 10.597656 0 14.640625zm0 0"/><path d="m267.621094 120.527344-148.019532 148.253906c-4.035156 4.046875-10.582031 4.046875-14.621093 0-4.035157-4.042969-4.035157-10.597656 0-14.640625l148.019531-148.253906c4.035156-4.042969 10.582031-4.042969 14.621094 0 4.035156 4.042969 4.035156 10.597656 0 14.640625zm0 0"/><path d="m178.496094 31.261719-148.019532 148.253906c-4.035156 4.046875-10.582031 4.046875-14.621093 0-4.039063-4.042969-4.035157-10.597656 0-14.640625l148.019531-148.253906c4.035156-4.042969 10.582031-4.042969 14.617188 0 4.039062 4.042968 4.039062 10.597656.003906 14.640625zm0 0"/></g><path d="m100.015625 184.550781c-4.035156-4.042969-4.035156-10.601562 0-14.640625l108.765625-108.941406c-.109375.105469-.234375.175781-.339844.285156l-148.023437 148.253906c-4.035157 4.039063-4.035157 10.597657 0 14.640626 4.039062 4.042968 10.582031 4.042968 14.621093 0l39.253907-39.316407c-4.054688 3.726563-10.34375 3.65625-14.277344-.28125zm0 0" fill="#8c4c17"/><path d="m144.578125 229.183594c-4.035156-4.039063-4.035156-10.597656 0-14.640625l108.765625-108.9375c-.109375.101562-.234375.175781-.34375.28125l-148.019531 148.253906c-4.035157 4.042969-4.035157 10.601563 0 14.640625 4.039062 4.046875 10.582031 4.046875 14.621093 0l39.257813-39.316406c-4.058594 3.730468-10.351563 3.65625-14.28125-.28125zm0 0" fill="#8c4c17"/><path d="m55.457031 139.917969c-4.039062-4.042969-4.039062-10.597657 0-14.640625l108.761719-108.9375c-.109375.101562-.238281.171875-.34375.277344l-148.015625 148.257812c-4.039063 4.042969-4.039063 10.601562 0 14.640625 4.035156 4.042969 10.582031 4.046875 14.617187 0l39.253907-39.316406c-4.054688 3.726562-10.34375 3.65625-14.273438-.28125zm0 0" fill="#8c4c17"/><path d="m230.589844 230.457031c-4.035156 4.042969-10.457032 4.167969-14.339844.28125l-169.71875-169.988281c-3.882812-3.890625-3.757812-10.320312.28125-14.363281 4.035156-4.042969 10.457031-4.167969 14.339844-.28125l169.71875 169.988281c3.878906 3.890625 3.757812 10.320312-.28125 14.363281zm0 0" fill="#a56021"/><path d="m272.121094 188.859375c-4.035156 4.042969-10.332032 4.292969-14.058594.558594l-162.96875-163.226563c-3.726562-3.734375-3.476562-10.039062.558594-14.082031 4.039062-4.042969 10.332031-4.292969 14.0625-.558594l162.964844 163.226563c3.730468 3.734375 3.480468 10.039062-.558594 14.082031zm0 0" fill="#a56021"/><path d="m224.734375 222.253906-169.71875-169.992187c-2.359375-2.363281-3.214844-5.664063-2.632813-8.800781-2.023437.375-3.984374 1.335937-5.570312 2.921874-4.035156 4.042969-4.160156 10.476563-.277344 14.363282l169.714844 169.988281c3.882812 3.886719 10.304688 3.765625 14.339844-.28125 1.582031-1.585937 2.542968-3.539063 2.917968-5.558594-3.125.574219-6.417968-.285156-8.773437-2.640625zm0 0" fill="#8c4c17"/><path d="m266.546875 180.933594-162.96875-163.226563c-2.265625-2.269531-3.039063-5.488281-2.410156-8.574219-1.992188.40625-3.925781 1.386719-5.515625 2.976563-4.035156 4.042969-4.285156 10.347656-.558594 14.082031l162.96875 163.226563c3.730469 3.734375 10.023438 3.484375 14.0625-.5625 1.582031-1.585938 2.5625-3.515625 2.96875-5.507813-3.078125.628906-6.285156-.148437-8.546875-2.414062zm0 0" fill="#8c4c17"/><path d="m189.058594 272.054688c-4.035156 4.042968-10.332032 4.292968-14.0625.558593l-162.964844-163.226562c-3.730469-3.730469-3.480469-10.039063.558594-14.078125 4.035156-4.046875 10.332031-4.296875 14.058594-.5625l162.96875 163.230468c3.726562 3.730469 3.476562 10.035157-.558594 14.078126zm0 0" fill="#a56021"/><path d="m183.484375 264.128906-162.96875-163.226562c-2.265625-2.269532-3.039063-5.484375-2.410156-8.570313-1.992188.40625-3.929688 1.386719-5.515625 2.976563-4.039063 4.039062-4.289063 10.347656-.558594 14.078125l162.964844 163.230469c3.730468 3.734374 10.023437 3.480468 14.0625-.558594 1.582031-1.589844 2.5625-3.523438 2.96875-5.511719-3.074219.625-6.28125-.148437-8.542969-2.417969zm0 0" fill="#8c4c17"/><path d="m34.066406 33.621094c-50.332031 50.417968-43.253906 139.246094 15.8125 198.40625 59.070313 59.164062 147.757813 66.253906 198.09375 15.839844 50.332032-50.417969 43.253906-139.246094-15.8125-198.410157-59.066406-59.160156-147.757812-66.25-198.09375-15.835937zm193.851563 194.160156c-38.800781 38.867188-109.355469 31.441406-157.269531-16.550781-47.917969-47.992188-55.332032-118.65625-16.527344-157.523438 38.804687-38.867187 109.355468-31.441406 157.273437 16.550781 47.914063 47.992188 55.328125 118.65625 16.523438 157.523438zm0 0" fill="#ffc34c"/><path d="m225.082031 62.523438c-1.535156 0-3.074219-.585938-4.246093-1.757813-25.871094-25.910156-58.625-41.664063-92.230469-44.363281-15.136719-1.210938-29.628907.277344-43.070313 4.441406-3.171875.96875-6.527344-.792969-7.507812-3.957031-.976563-3.167969.792968-6.527344 3.957031-7.507813 14.910156-4.617187 30.917969-6.277344 47.582031-4.9375 36.445313 2.921875 71.878906 19.914063 99.765625 47.839844 2.339844 2.347656 2.335938 6.144531-.007812 8.488281-1.171875 1.171875-2.707031 1.753907-4.242188 1.753907zm0 0" fill="#ffd551"/><path d="m250.078125 210.9375 22.347656 44.492188c.777344 1.539062.476563 3.402343-.742187 4.621093l-5.773438 5.785157-5.765625 5.773437c-1.21875 1.222656-3.085937 1.523437-4.628906.746094l-44.417969-22.375-15.117187 15.140625 71.703125 31.683594c1.511718.667968 3.28125.339843 4.449218-.832032l11.933594-11.953125 11.9375-11.960937c1.167969-1.164063 1.496094-2.929688.832032-4.4375l-31.636719-71.828125zm0 0" fill="#ffc34c"/><path d="m472.625 472.914062-1.195312 1.195313c-10.503907 10.519531-27.527344 10.519531-38.03125 0l-121.339844-121.53125c-2.46875-2.476563-2.46875-6.488281 0-8.964844l30.277344-30.324219c2.46875-2.472656 6.476562-2.472656 8.949218 0l121.339844 121.535157c10.5 10.519531 10.5 27.574219 0 38.089843zm0 0" fill="#bf6c0d"/><path d="m174.753906 252.160156c-34.605468 3.472656-73.863281-10.636718-104.105468-40.925781-30.300782-30.351563-44.382813-69.753906-40.847657-104.457031-3.664062-30.988282 2.761719-61.484375 19.746094-86.0625-5.472656 3.78125-10.652344 8.074218-15.480469 12.90625-50.332031 50.417968-43.253906 139.246094 15.8125 198.40625s147.757813 66.253906 198.09375 15.839844c4.785156-4.796876 9.050782-9.941407 12.804688-15.375-24.582032 16.984374-55.0625 23.390624-86.023438 19.667968zm0 0" fill="#f9bb32"/><path d="m284.65625 279.835938-22.707031-10.035157-1.804688 1.808594c-1.222656 1.222656-3.089843 1.523437-4.632812.746094l-44.414063-22.378907-15.117187 15.144532 71.703125 31.679687c1.511718.667969 3.277344.335938 4.449218-.832031l11.933594-11.953125 4.933594-4.941406c-1.167969 1.097656-2.871094 1.410156-4.34375.761719zm0 0" fill="#f9bb32"/><path d="m450.371094 457.140625-121.339844-121.535156c-2.472656-2.476563-2.472656-6.488281 0-8.960938l13.453125-13.472656c-.046875.042969-.101563.074219-.148437.117187l-30.277344 30.324219c-2.472656 2.476563-2.472656 6.488281 0 8.964844l121.339844 121.53125c10.5 10.519531 27.527343 10.519531 38.027343 0l1.199219-1.195313c2.804688-2.8125 4.839844-6.101562 6.148438-9.601562-9.558594 3.5625-20.722657 1.523438-28.402344-6.171875zm0 0" fill="#a56021"/><path d="m475.65625 444.609375c0 8.835937-7.164062 16-16 16s-16-7.164063-16-16 7.164062-16 16-16 16 7.164063 16 16zm0 0" fill="#a56021"/><path d="m36.492188 368c4.996093-4.285156 9.097656-9.578125 12.003906-15.558594-3.054688-6.316406-4.800782-13.382812-4.800782-20.871094 0-7.492187 1.746094-14.558593 4.800782-20.875-2.90625-5.984374-7.007813-11.277343-12.003906-15.558593-6.382813 5.46875-11.320313 12.578125-14.144532 20.679687-.039062.117188-.074218.230469-.117187.347656-.222657.65625-.429688 1.320313-.621094 1.984376-.058594.195312-.113281.386718-.164063.582031-.167968.597656-.320312 1.199219-.464843 1.800781-.058594.25-.113281.496094-.171875.746094-.121094.558594-.230469 1.128906-.335938 1.699218-.050781.28125-.105468.5625-.152344.847657-.089843.554687-.164062 1.113281-.234374 1.671875-.035157.296875-.078126.589844-.113282.886718-.0625.585938-.105468 1.175782-.148437 1.765626-.019531.273437-.046875.542968-.0625.820312-.042969.839844-.066407 1.6875-.066407 2.539062 0 .023438-.003906.042969-.003906.0625v.03125c0 .863282.027344 1.71875.070313 2.570313.015625.265625.042969.527344.0625.792969.042969.601562.085937 1.199218.148437 1.792968.03125.289063.074219.570313.109375.859376.074219.570312.148438 1.140624.242188 1.707031.042969.273437.097656.542969.144531.816406.105469.582031.21875 1.160156.34375 1.734375.050781.234375.105469.472656.164062.707031.144532.621094.300782 1.234375.472657 1.84375.046875.179688.101562.363281.152343.542969.199219.683594.410157 1.359375.636719 2.027344.035157.101562.070313.207031.105469.304687 2.820312 8.109375 7.761719 15.226563 14.148438 20.699219zm0 0" fill="#eacf32"/></svg>