<svg height="480pt" viewBox="-80 0 480 480" width="480pt" xmlns="http://www.w3.org/2000/svg"><path d="m320 406.152344h-282.351562v-398.152344c0-4.417969 3.582031-8 8-8h274.351562zm0 0" fill="#ffb74b"/><path d="m37.648438 41.15625v364.996094h178.351562l97.796875-22.566406c3.632813-.839844 6.203125-4.070313 6.203125-7.796876v-375.789062h-104zm0 0" fill="#e58d23"/><path d="m320 0-320 73.847656v406.152344l313.796875-72.414062c3.632813-.839844 6.203125-4.070313 6.203125-7.796876zm0 0" fill="#bf6c0d"/><path d="m12 456h92l190.355469-43.929688v-354.222656c0-4.417968-3.582031-8-8-8h-182.355469l-92 21.226563zm0 0" fill="#a56021"/><path d="m274.351562 480h-274.351562v-406.152344h274.351562c4.417969 0 8 3.582032 8 8v390.152344c0 4.417969-3.578124 8-8 8zm0 0" fill="#f9bb32"/><path d="m0 73.847656h56v406.152344h-56zm0 0" fill="#db9c2e"/><path d="m244.011719 280c0-57.578125-46.039063-104.253906-102.835938-104.253906-56.792969 0-102.835937 46.675781-102.835937 104.253906s46.042968 104.253906 102.835937 104.253906c56.796875 0 102.835938-46.675781 102.835938-104.253906zm0 0" fill="#ccc033"/><path d="m64.523438 280c0-53.082031 39.128906-96.898438 89.746093-103.414062-4.289062-.554688-8.65625-.839844-13.089843-.839844-56.796876 0-102.835938 46.679687-102.835938 104.253906 0 57.578125 46.039062 104.253906 102.835938 104.253906 4.433593 0 8.800781-.285156 13.089843-.839844-50.617187-6.515624-89.746093-50.332031-89.746093-103.414062zm0 0" fill="#99af17"/><path d="m194.945312 191.121094h-10.992187c-8.988281 0-16.273437 7.386718-16.273437 16.496094 0 9.109374 7.285156 16.496093 16.273437 16.496093h3.988281c2.960938 0 4.976563 2.988281 3.960938 5.8125-.632813 1.757813-.980469 3.652344-.980469 5.636719 0 9.109375 7.285156 16.496094 16.273437 16.496094h33.074219c-7.023437-25.652344-23.46875-47.320313-45.324219-60.9375zm0 0" fill="#eacf32"/><path d="m242.378906 298.597656h-54.1875c-8.984375 0-16.269531 7.386719-16.269531 16.496094s7.28125 16.496094 16.269531 16.496094h7.3125c1.65625 0 2.628906 1.816406 1.804688 3.273437-1.363282 2.410157-2.144532 5.199219-2.144532 8.175781 0 7.9375 5.535157 14.566407 12.90625 16.136719 17.589844-15.289062 30.03125-36.496093 34.308594-60.578125zm0 0" fill="#fcda4f"/><path d="m111.210938 260.015625c-1.066407-.351563-1.617188-1.410156-1.234376-2.34375.746094-1.804687 1.164063-3.746094 1.164063-5.773437 0-9.460938-8.78125-17.128907-19.613281-17.128907h-43.027344c-6.511719 13.679688-10.15625 29.023438-10.15625 45.234375 0 13.398438 2.496094 26.207032 7.035156 37.972656h37.152344c10.050781 0 18.84375-6.421874 19.996094-15.144531.335937-2.546875.011718-4.988281-.820313-7.226562-.449219-1.214844.550781-2.460938 2.007813-2.460938 10.789062 0 19.953125-7.40625 20.140625-16.824219.152343-7.449218-5.152344-13.816406-12.644531-16.304687zm0 0" fill="#fcda4f"/><path d="m148.664062 358.304688h-7.90625c-6.769531 0-12.96875 2.421874-17.824218 6.449218h-5.5c-8.21875 0-15.601563 3.570313-20.753906 9.257813 13.464843 6.5625 28.554687 10.242187 44.496093 10.242187 3.609375 0 7.175781-.191406 10.691407-.558594 0-.007812-.003907-.015624-.007813-.023437 8.226563-.863281 16.164063-2.6875 23.699219-5.398437-3.609375-11.574219-14.28125-19.96875-26.894532-19.96875zm0 0" fill="#eacf32"/><path d="m145.253906 384.160156c.652344-.023437 1.300782-.054687 1.953125-.09375.417969-.023437.835938-.050781 1.25-.082031.585938-.039063 1.171875-.089844 1.757813-.136719.425781-.039062.847656-.074218 1.273437-.117187.128907-.011719.253907-.03125.378907-.042969 0-.003906-.003907-.007812-.003907-.011719.761719-.082031 1.519531-.179687 2.277344-.277343-16.523437-2.144532-31.820313-8.269532-44.925781-17.394532-4.867188 1.507813-9.175782 4.304688-12.535156 8.011719.800781.390625 1.609374.769531 2.421874 1.140625.207032.09375.414063.183594.621094.273438.609375.273437 1.222656.542968 1.835938.804687.269531.113281.539062.222656.804687.332031.5625.234375 1.125.460938 1.6875.683594.296875.117188.59375.230469.890625.34375.546875.207031 1.097656.414062 1.648438.609375.304687.113281.613281.222656.921875.332031.550781.191406 1.109375.378906 1.664062.566406.304688.101563.609375.203126.917969.300782.582031.1875 1.167969.367187 1.753906.542968.28125.085938.558594.171876.839844.253907.667969.195312 1.339844.378906 2.011719.5625.203125.054687.40625.113281.609375.167969.890625.234374 1.789062.457031 2.6875.667968.007812.003906.011718.003906.019531.003906.875.203126 1.757813.394532 2.644531.578126.269532.054687.542969.105468.8125.160156.625.121094 1.25.242187 1.875.351562.335938.0625.675782.113282 1.011719.171875.566406.09375 1.136719.1875 1.707031.269531.363282.054688.726563.105469 1.09375.15625.550782.074219 1.105469.148438 1.65625.214844.378906.046875.753906.089844 1.132813.128906.550781.0625 1.105469.117188 1.660156.167969.375.039063.75.070313 1.125.101563.570313.046875 1.144531.085937 1.71875.125.359375.023437.722656.050781 1.082031.070312.628906.035156 1.261719.058594 1.894532.082032.304687.011718.613281.027343.921874.035156.9375.027344 1.878907.042968 2.828126.042968 1.011718 0 2.023437-.023437 3.027343-.050781.347657-.011719.699219-.03125 1.046875-.046875zm0 0" fill="#ccc033"/><path d="m38.402344 283.480469c.019531.570312.039062 1.136719.066406 1.703125.015625.355468.042969.710937.0625 1.066406.027344.5.058594.996094.09375 1.496094.027344.386718.0625.769531.09375 1.15625.039062.460937.074219.925781.121094 1.386718.039062.402344.085937.804688.125 1.207032.050781.4375.097656.878906.148437 1.3125.050781.417968.105469.832031.160157 1.246094.054687.417968.113281.835937.171874 1.25.0625.429687.128907.855468.195313 1.285156.0625.394531.128906.792968.195313 1.1875.074218.441406.152343.878906.230468 1.320312.070313.375.140625.75.214844 1.125.085938.453125.175781.902344.269531 1.355469.074219.351563.148438.703125.226563 1.054687.101562.46875.203125.933594.3125 1.402344.074218.320313.152344.644532.230468.960938.121094.488281.238282.980468.367188 1.464844.074219.285156.152344.570312.226562.851562.136719.519531.277344 1.039062.421876 1.554688.0625.21875.128906.433593.191406.652343.167968.578125.335937 1.152344.511718 1.722657.015626.042968.027344.082031.039063.128906.699219 2.234375 1.464844 4.4375 2.300781 6.605468h26.179688c-4.542969-11.765624-7.039063-24.574218-7.039063-37.972656 0-16.210937 3.652344-31.550781 10.164063-45.234375h-26.183594c-.390625.820313-.769531 1.652344-1.140625 2.484375-.097656.214844-.1875.4375-.285156.652344-.265625.609375-.527344 1.21875-.78125 1.835938-.121094.292968-.238281.59375-.355469.886718-.222656.546875-.4375 1.089844-.648438 1.640625-.125.324219-.246093.648438-.363281.976563-.199219.527344-.390625 1.058594-.578125 1.59375-.121094.335937-.238281.671875-.355468 1.011718-.179688.527344-.355469 1.0625-.53125 1.597657-.109376.339843-.21875.679687-.324219 1.019531-.171875.550781-.339844 1.101562-.5 1.65625-.097657.324219-.195313.652344-.289063.976562-.171875.609376-.335937 1.222657-.5 1.835938-.070312.273438-.148437.546875-.21875.820312-.226562.886719-.441406 1.777344-.648437 2.671876v.011718c-.207031.902344-.398438 1.808594-.582031 2.71875-.054688.277344-.101563.554688-.15625.832032-.121094.632812-.238282 1.265624-.351563 1.902343-.058594.34375-.113281.691407-.167969 1.039063-.09375.574218-.183594 1.144531-.269531 1.722656-.054687.375-.101563.746094-.152344 1.121094-.074219.558594-.148437 1.113281-.210937 1.671875-.046875.382812-.089844.769531-.132813 1.152343-.058593.558594-.113281 1.121094-.164062 1.679688-.035157.382812-.070313.765625-.101563 1.148438-.046875.582031-.085937 1.160156-.121094 1.742187-.023437.367187-.050781.734375-.066406 1.101563-.035156.636718-.058594 1.277343-.082031 1.917968-.011719.3125-.027344.625-.035156.9375-.027344.957032-.039063 1.910156-.039063 2.871094 0 .871094.011719 1.734375.03125 2.601562 0 .292969.015625.585938.023438.878907zm0 0" fill="#eacf32"/><path d="m168.132812 357.984375s-.136718 47.132813 45.894532 87.074219c2.332031 2.027344 5.882812 2.027344 8.214844 0 46.03125-39.941406 45.894531-87.074219 45.894531-87.074219l-.148438-.007813c.085938-1.164062.148438-2.332031.148438-3.515624 0-26.445313-22.386719-47.882813-50-47.882813s-50 21.4375-50 47.882813c0 1.183593.058593 2.351562.148437 3.515624zm0 0" fill="#ff624b"/><path d="m202.539062 357.984375.148438-.007813c-.089844-1.164062-.148438-2.332031-.148438-3.515624 0-20.65625 13.65625-38.257813 32.796876-44.972657-5.363282-1.882812-11.15625-2.910156-17.203126-2.910156-27.613281 0-50 21.4375-50 47.878906 0 1.183594.0625 2.355469.148438 3.515625l-.148438.011719s-.136718 47.132813 45.894532 87.074219c2.332031 2.023437 5.882812 2.023437 8.214844 0 4.875-4.230469 9.203124-8.539063 13.097656-12.863282-32.882813-36.53125-32.800782-74.210937-32.800782-74.210937zm0 0" fill="#ff4b34"/><path d="m248.132812 360.464844c0 16.566406-13.429687 30-30 30-16.566406 0-30-13.433594-30-30 0-16.570313 13.433594-30 30-30 16.570313 0 30 13.429687 30 30zm0 0" fill="#fce575"/><path d="m202.539062 357.984375.148438-.007813c-.089844-1.164062-.148438-2.332031-.148438-3.519531 0-8.0625 2.105469-15.652343 5.78125-22.320312-11.742187 4.070312-20.1875 15.199219-20.1875 28.324219 0 13.4375 8.835938 24.808593 21.011719 28.628906-6.625-18.113282-6.605469-31.105469-6.605469-31.105469zm0 0" fill="#ffd551"/><path d="m237.175781 147.003906h-192c-2.210937 0-4-1.789062-4-4v-28c0-2.210937 1.789063-4 4-4h192c2.210938 0 4 1.789063 4 4v28c0 2.207032-1.789062 4-4 4zm0 0" fill="#fce575"/><path d="m56 111.003906h-10.824219c-2.210937 0-4 1.792969-4 4v28c0 2.207032 1.789063 4 4 4h10.824219zm0 0" fill="#ffd551"/><path d="m99.101562 456c0 9.941406-8.058593 18-18 18-9.941406 0-18-8.058594-18-18s8.058594-18 18-18c9.941407 0 18 8.058594 18 18zm0 0" fill="#e58d23"/><path d="m266.355469 211.882812c-3.316407 0-6-2.683593-6-6v-109.882812c0-3.3125 2.683593-6 6-6 3.3125 0 6 2.6875 6 6v109.882812c0 3.316407-2.6875 6-6 6zm0 0" fill="#ffc34c"/></svg>