<svg height="483pt" viewBox="-1 0 483 483.04743" width="483pt" xmlns="http://www.w3.org/2000/svg"><path d="m424.265625 280.417969h-16.878906c2.023437-6.585938 3.121093-13.5625 3.121093-20.789063 0-39.949218-33.175781-72.335937-74.101562-72.335937-3.527344 0-6.992188.257812-10.390625.722656-14.402344-33.289063-48.152344-56.648437-87.496094-56.648437-42.449219 0-78.382812 27.203124-90.527343 64.71875-8.292969-3.128907-17.296876-4.867188-26.722657-4.867188-40.921875 0-74.101562 32.386719-74.101562 72.335938 0 6.03125.769531 11.886718 2.195312 17.488281-27.324219 4.03125-48.265625 27.050781-48.265625 54.847656 0 30.636719 25.441406 55.476563 56.828125 55.476563h366.339844c31.386719 0 56.828125-24.839844 56.828125-55.476563.003906-30.636719-25.441406-55.472656-56.828125-55.472656zm0 0" fill="#eacf32"/><path d="m108.578125 362.121094c0-27.796875 20.941406-50.8125 48.265625-54.847656-1.425781-5.601563-2.195312-11.453126-2.195312-17.484376 0-39.953124 33.175781-72.339843 74.101562-72.339843 9.421875 0 18.425781 1.734375 26.71875 4.867187 8.601562-26.566406 29.160156-47.90625 55.480469-58.128906-17.414063-20.0625-43.382813-32.820312-72.429688-32.820312-42.449219 0-78.386719 27.203124-90.53125 64.71875-8.292969-3.132813-17.296875-4.867188-26.71875-4.867188-40.925781 0-74.101562 32.386719-74.101562 72.339844 0 6.03125.769531 11.882812 2.195312 17.488281-27.324219 4.03125-48.265625 27.046875-48.265625 54.84375 0 30.636719 25.441406 55.476563 56.828125 55.476563h59.253907c-5.421876-8.496094-8.601563-18.496094-8.601563-29.246094zm0 0" fill="#ffd551"/><path d="m108.578125 362.121094c0-27.796875 20.941406-50.8125 48.265625-54.847656-1.425781-5.601563-2.195312-11.453126-2.195312-17.484376 0-39.953124 33.175781-72.339843 74.101562-72.339843 9.421875 0 18.425781 1.734375 26.71875 4.867187 8.601562-26.566406 29.160156-47.90625 55.480469-58.128906-17.414063-20.0625-43.382813-32.820312-72.429688-32.820312-42.449219 0-78.386719 27.203124-90.53125 64.71875-8.292969-3.132813-17.296875-4.867188-26.71875-4.867188-40.925781 0-74.101562 32.386719-74.101562 72.339844 0 6.03125.769531 11.882812 2.195312 17.488281-27.324219 4.03125-48.265625 27.046875-48.265625 54.84375 0 30.636719 25.441406 55.476563 56.828125 55.476563h59.253907c-5.421876-8.496094-8.601563-18.496094-8.601563-29.246094zm0 0" fill="#ccc033"/><path d="m246.457031 155.988281c0-49.929687-40.460937-90.410156-90.371093-90.410156-49.914063 0-90.375 40.480469-90.375 90.410156 0 49.933594 40.460937 90.410157 90.375 90.410157 49.910156 0 90.371093-40.476563 90.371093-90.410157zm0 0" fill="#ffdf74"/><path d="m187.1875 235.703125c-2.335938 0-4.558594-1.375-5.527344-3.660156-1.292968-3.050781.128906-6.570313 3.183594-7.867188 27.464844-11.640625 45.210938-38.40625 45.210938-68.1875 0-3.316406 2.6875-6 6-6s6 2.683594 6 6c0 34.605469-20.621094 65.707031-52.53125 79.234375-.761719.328125-1.558594.480469-2.335938.480469zm0 0" fill="#fce575"/><path d="m119.234375 155.988281c0-40.535156 26.800781-74.921875 63.609375-86.363281-8.460938-2.628906-17.445312-4.046875-26.757812-4.046875-49.832032 0-90.375 40.558594-90.375 90.410156 0 49.851563 40.542968 90.410157 90.375 90.410157 9.3125 0 18.296874-1.417969 26.757812-4.046876-36.808594-11.4375-63.609375-45.828124-63.609375-86.363281zm0 0" fill="#ffd551"/><path d="m65.324219 237.308594-19.375 19.378906c-2.703125 2.707031-2.847657 7.289062-.011719 9.859375 1.257812 1.140625 2.851562 1.710937 4.445312 1.710937 1.699219 0 3.394532-.648437 4.6875-1.941406l19.625-19.632812c2.539063-2.539063 2.476563-6.632813-.0625-9.175782-.042968-.042968-.085937-.085937-.128906-.128906-2.539062-2.550781-6.636718-2.617187-9.179687-.070312zm0 0" fill="#ffd551"/><path d="m103.414062 265.933594-10.445312 25.238281c-1.367188 3.308594-.09375 7.269531 3.132812 8.8125.929688.445313 1.90625.65625 2.867188.65625 2.601562 0 5.070312-1.542969 6.125-4.097656l10.570312-25.539063c1.375-3.328125-.257812-7.09375-3.589843-8.460937-.058594-.023438-.113281-.046875-.167969-.066407-3.320312-1.367187-7.121094.140626-8.492188 3.457032zm0 0" fill="#ffd551"/><g fill="#ffdf74"><path d="m156.082031 271.261719c-.023437 0-.050781 0-.074219 0-3.601562-.003907-6.550781 2.839843-6.550781 6.445312v27.375c0 3.464844 2.53125 6.558594 5.976563 6.886719 3.949218.375 7.277344-2.722656 7.277344-6.601562v-27.660157c0-3.605469-2.949219-6.449219-6.546876-6.449219-.03125.003907-.054687.003907-.082031.003907zm0 0"/><path d="m200.277344 262.460938c-.058594.019531-.109375.042968-.167969.066406-3.328125 1.367187-4.964844 5.132812-3.585937 8.460937l10.574218 25.558594c1.058594 2.550781 3.523438 4.09375 6.128906 4.09375.960938 0 1.945313-.210937 2.882813-.660156 3.214844-1.550781 4.480469-5.503907 3.113281-8.804688l-10.453125-25.257812c-1.371093-3.320313-5.171875-4.828125-8.492187-3.457031zm0 0"/><path d="m237.605469 237.425781c-.042969.042969-.085938.085938-.128907.128907-2.542968 2.539062-2.609374 6.636718-.066406 9.179687l19.566406 19.574219c1.292969 1.292968 2.988282 1.941406 4.683594 1.941406 1.59375 0 3.1875-.574219 4.449219-1.714844 2.832031-2.570312 2.691406-7.152344-.015625-9.859375l-19.3125-19.320312c-2.539062-2.539063-6.636719-2.476563-9.175781.070312zm0 0"/><path d="m296.292969 206.957031-25.261719-10.476562c-3.328125-1.378907-7.09375.253906-8.460938 3.585937-.023437.058594-.046874.109375-.066406.167969-1.371094 3.320313.136719 7.121094 3.453125 8.496094l25.535157 10.589843c.832031.34375 1.6875.503907 2.535156.503907 2.777344 0 5.402344-1.757813 6.320312-4.628907 1.066406-3.324218-.824218-6.902343-4.054687-8.238281zm0 0"/><path d="m305.113281 149.375h-27.355469c-3.601562 0-6.445312 2.949219-6.441406 6.554688v.066406.085937c-.003906 3.601563 2.839844 6.554688 6.441406 6.554688h27.640626c3.875 0 6.972656-3.324219 6.597656-7.28125-.332032-3.449219-3.421875-5.980469-6.882813-5.980469zm0 0"/><path d="m300.386719 96.945312c-1.164063-3.796874-5.296875-5.6875-8.878907-4.203124l-25.523437 10.570312c-3.320313 1.371094-4.828125 5.171875-3.460937 8.496094.023437.054687.046874.109375.070312.164062 1.363281 3.335938 5.132812 4.96875 8.457031 3.59375l25.261719-10.464844c3.199219-1.324218 5.089844-4.847656 4.074219-8.15625zm0 0"/><path d="m246.796875 74.632812 19.292969-19.300781c2.535156-2.539062 2.910156-6.714843.507812-9.382812-2.5625-2.84375-6.945312-2.929688-9.617187-.257813l-19.554688 19.5625c-2.542969 2.542969-2.480469 6.640625.066407 9.179688.039062.042968.085937.085937.125.128906 2.542968 2.546875 6.636718 2.613281 9.179687.070312zm0 0"/><path d="m208.796875 46.074219 10.507813-25.359375c1.210937-2.921875.335937-6.398438-2.289063-8.164063-3.605469-2.433593-8.3125-.882812-9.890625 2.921875l-10.574219 25.527344c-1.375 3.328125.257813 7.09375 3.589844 8.464844.054687.019531.109375.042968.164063.066406 3.316406 1.371094 7.117187-.136719 8.492187-3.457031zm0 0"/><path d="m156.082031 40.71875h.078125c3.601563 0 6.550782-2.84375 6.550782-6.449219v-27.355469c0-3.460937-2.53125-6.554687-5.976563-6.882812-3.953125-.378906-7.28125 2.722656-7.28125 6.601562v27.640626c0 3.601562 2.953125 6.449218 6.550781 6.445312zm0 0"/></g><path d="m40.855469 155.992188c0-.019532 0-.042969 0-.066407 0-3.601562-2.84375-6.550781-6.441407-6.550781h-27.476562c-3.460938 0-6.554688 2.53125-6.8828125 5.976562-.3749995 3.957032 2.7226565 7.285157 6.5976565 7.285157h27.757812c3.601563 0 6.445313-2.953125 6.441406-6.554688.003907-.027343.003907-.058593.003907-.089843zm0 0" fill="#ffd551"/><path d="m41.136719 196.480469-25.234375 10.460937c-3.230469 1.339844-5.125 4.914063-4.058594 8.246094.917969 2.871094 3.546875 4.628906 6.320312 4.628906.847657 0 1.707032-.164062 2.535157-.507812l25.507812-10.574219c3.320313-1.378906 4.824219-5.179687 3.457031-8.5-.023437-.054687-.046874-.109375-.070312-.164063-1.367188-3.335937-5.132812-4.96875-8.457031-3.589843zm0 0" fill="#ffd551"/><path d="m111.886719 49.519531c.054687-.023437.109375-.046875.164062-.066406 3.332031-1.371094 4.96875-5.136719 3.589844-8.464844l-10.464844-25.265625c-1.324219-3.199218-4.847656-5.085937-8.15625-4.070312-3.792969 1.167968-5.679687 5.304687-4.195312 8.886718l10.574219 25.523438c1.371093 3.320312 5.171874 4.828125 8.488281 3.457031zm0 0" fill="#ffd551"/><path d="m74.496094 74.621094c.039062-.042969.085937-.085938.125-.128906 2.542968-2.542969 2.605468-6.636719.0625-9.179688l-19.488282-19.496094c-2.238281-2.238281-5.785156-2.753906-8.421874-1.003906-3.625 2.410156-3.984376 7.347656-1.074219 10.257812l19.613281 19.621094c2.542969 2.546875 6.644531 2.476563 9.183594-.070312zm0 0" fill="#ffd551"/><path d="m49.648438 111.792969c1.367187-3.324219-.140626-7.125-3.457032-8.496094l-25.507812-10.566406c-3.578125-1.484375-7.71875.40625-8.875 4.207031-1.015625 3.3125.875 6.832031 4.074218 8.15625l25.238282 10.453125c3.328125 1.378906 7.09375-.257813 8.460937-3.589844.019531-.054687.042969-.113281.066407-.164062zm0 0" fill="#ffd551"/><path d="m157.484375 305.082031v-27.375c0-2.128906 1.03125-3.984375 2.613281-5.152343-1.097656-.8125-2.457031-1.296876-3.9375-1.292969-.027344 0-.050781 0-.078125 0-.023437 0-.050781 0-.074219 0-3.601562-.003907-6.550781 2.839843-6.550781 6.445312v27.375c0 3.464844 2.53125 6.558594 5.976563 6.886719 1.773437.167969 3.417968-.367188 4.695312-1.355469-1.625-1.285156-2.644531-3.332031-2.644531-5.53125zm0 0" fill="#ffd551"/><path d="m157.484375 34.269531v-27.640625c0-2.136718 1.015625-4.03125 2.582031-5.242187-.9375-.742188-2.070312-1.234375-3.328125-1.355469-3.957031-.378906-7.28125 2.722656-7.28125 6.597656v27.640625c0 3.605469 2.949219 6.449219 6.550781 6.449219h.074219.078125c1.476563 0 2.839844-.484375 3.9375-1.296875-1.582031-1.167969-2.613281-3.023437-2.613281-5.152344zm0 0" fill="#ffd551"/><path d="m423.417969 349.351562v-174.453124c0-22.480469-18.222657-40.703126-40.703125-40.703126-22.476563 0-40.699219 18.226563-40.699219 40.703126v174.453124c-19.234375 12.953126-32 34.804688-32.347656 59.605469-.5625 40.355469 32.121093 73.78125 72.480469 74.089844 40.542968.308594 73.625-32.582031 73.625-73.054687-.003907-25.230469-12.855469-47.507813-32.355469-60.640626zm0 0" fill="#fff4c1"/><path d="m353.558594 408.957031c.34375-24.800781 13.113281-46.652343 32.34375-59.605469v-174.453124c0-14.394532 7.480468-27.035157 18.757812-34.269532-6.332031-4.066406-13.859375-6.433594-21.945312-6.433594-22.480469 0-40.703125 18.226563-40.703125 40.703126v174.453124c-19.234375 12.953126-32 34.804688-32.34375 59.605469-.5625 40.355469 32.121093 73.78125 72.480469 74.089844 7.855468.058594 15.425781-1.140625 22.53125-3.386719-29.910157-9.480468-51.582032-37.78125-51.121094-70.703125zm0 0" fill="#fce575"/><path d="m382.714844 460.613281c-27.914063 0-50.621094-22.707031-50.621094-50.621093 0-18.53125 10.113281-35.566407 26.398438-44.460938l5.953124-3.253906v-183.320313c0-9.796875 7.96875-17.765625 17.761719-17.765625h1.011719c9.792969 0 17.765625 7.96875 17.765625 17.765625v183.320313l5.953125 3.253906c16.28125 8.894531 26.398438 25.929688 26.398438 44.460938 0 27.914062-22.707032 50.621093-50.621094 50.621093zm0 0" fill="#ff624b"/><path d="m382.714844 447.804688c-3.3125 0-6-2.6875-6-6 0-3.316407 2.6875-6 6-6 14.230468 0 25.8125-11.582032 25.8125-25.8125 0-3.316407 2.683594-6 6-6 3.3125 0 6 2.683593 6 6 0 20.847656-16.960938 37.8125-37.8125 37.8125zm0 0" fill="#ff9079"/><path d="m357.175781 409.992188c0-18.53125 10.113281-35.566407 26.398438-44.460938l5.953125-3.253906v-183.320313c0-5.148437 2.214844-9.78125 5.726562-13.027343-3.167968-2.929688-7.390625-4.738282-12.035156-4.738282h-1.011719c-9.792969 0-17.761719 7.96875-17.761719 17.765625v183.320313l-5.953124 3.253906c-16.285157 8.894531-26.398438 25.929688-26.398438 44.460938 0 27.914062 22.707031 50.621093 50.621094 50.621093 4.324218 0 8.527344-.546875 12.539062-1.574219-21.863281-5.59375-38.078125-25.460937-38.078125-49.046874zm0 0" fill="#ff4b34"/><path d="m400.984375 305.210938h-13.6875c-3.3125 0-6-2.6875-6-6s2.6875-6 6-6h13.6875c3.3125 0 6 2.6875 6 6s-2.6875 6-6 6zm0 0" fill="#ff9079"/><path d="m410.285156 336.5625h-22.988281c-3.3125 0-6-2.6875-6-6 0-3.316406 2.6875-6 6-6h22.988281c3.316406 0 6 2.683594 6 6 0 3.3125-2.683594 6-6 6zm0 0" fill="#ff9079"/><path d="m400.984375 211.160156h-13.6875c-3.3125 0-6-2.683594-6-6 0-3.3125 2.6875-6 6-6h13.6875c3.3125 0 6 2.6875 6 6 0 3.316406-2.6875 6-6 6zm0 0" fill="#ff9079"/><path d="m400.984375 242.511719h-13.6875c-3.3125 0-6-2.683594-6-6 0-3.3125 2.6875-6 6-6h13.6875c3.3125 0 6 2.6875 6 6 0 3.316406-2.6875 6-6 6zm0 0" fill="#ff9079"/><path d="m410.285156 273.859375h-22.988281c-3.3125 0-6-2.683594-6-6 0-3.3125 2.6875-6 6-6h22.988281c3.316406 0 6 2.6875 6 6 0 3.316406-2.683594 6-6 6zm0 0" fill="#ff9079"/><path d="m387.296875 199.160156c-3.3125 0-6 2.6875-6 6 0 3.316406 2.6875 6 6 6h2.230469v-12zm0 0" fill="#ff624b"/><path d="m387.296875 324.5625c-3.3125 0-6 2.683594-6 6 0 3.3125 2.6875 6 6 6h2.230469v-12zm0 0" fill="#ff624b"/><path d="m387.296875 293.210938c-3.3125 0-6 2.6875-6 6s2.6875 6 6 6h2.230469v-12zm0 0" fill="#ff624b"/><path d="m387.296875 261.859375c-3.3125 0-6 2.6875-6 6 0 3.316406 2.6875 6 6 6h2.230469v-12zm0 0" fill="#ff624b"/><path d="m387.296875 230.511719c-3.3125 0-6 2.6875-6 6 0 3.316406 2.6875 6 6 6h2.230469v-12zm0 0" fill="#ff624b"/><path d="m162.710938 354.5625c0 9.941406-8.058594 18-18 18-9.9375 0-18-8.058594-18-18s8.0625-18 18-18c9.941406 0 18 8.058594 18 18zm0 0" fill="#ccc033"/></svg>