<svg height="512" viewBox="0 0 59 59" width="512" xmlns="http://www.w3.org/2000/svg"><g id="035---Blood-Injection" fill="none" transform="translate(0 -1)"><path id="Shape" d="m58 60c-.2651948-.0000566-.5195073-.1054506-.707-.293l-4.381-4.381c-.3789722-.3923789-.3735524-1.0160848.0121814-1.4018186s1.0094397-.3911536 1.4018186-.0121814l4.381 4.381c.2859079.2859943.3714219.7160366.216678 1.0896546-.1547439.3736179-.5192821.6172591-.923678.6173454z" fill="#bdc3c7"/><path id="Rectangle-path" d="m7.9 6.394h8v13.012h-8z" fill="#35495e" transform="matrix(.707 -.707 .707 .707 -5.636 12.193)"/><path id="Shape" d="m53.62 41.89-12.73 12.73c-.3751365.3755541-.8841815.5865733-1.415.5865733s-1.0398635-.2110192-1.415-.5865733l-28.81-28.82 15.91-15.19 28.46 28.45c.3755541.3751365.5865733.8841815.5865733 1.415s-.2110192 1.0398635-.5865733 1.415z" fill="#2c3e50"/><path id="Shape" d="m48.436903 46.937h4v8c0 .5522847-.4477152 1-1 1h-2c-.5522847 0-1-.4477153-1-1z" fill="#547580" transform="matrix(.707 -.707 .707 .707 -21.599 50.73)"/><path id="Shape" d="m13.314 4.414-9.9 9.9c-.78120678.7809306-2.04756935.7807067-2.82849998-.0005-.78093063-.7812068-.78070678-2.0475694.00049998-2.8285l9.9-9.9c.5051735-.50535218 1.2415753-.70280997 1.9318099-.51799293.6902346.18481703 1.229439.72383079 1.4145 1.414.1850611.69016921-.0121364 1.42664075-.5173099 1.93199293z" fill="#547580"/><path id="Shape" d="m26.749 10.778-16.971 16.971c-.78120678.7809306-2.04756936.7807068-2.8285-.0005s-.78070678-2.0475694.0005-2.8285l16.971-16.97c.5021489-.51991317 1.2457558-.72842519 1.9450146-.54539431.6992589.18303088 1.2453488.7291208 1.4283797 1.42837966.1830309.69925887-.0254811 1.44286575-.5453943 1.94501465z" fill="#547580"/><path id="Shape" d="m53.62 41.89-12.73 12.73c-.3751365.3755541-.8841815.5865733-1.415.5865733s-1.0398635-.2110192-1.415-.5865733l-24.04-24.04c1.94-1.95 3.36-.53 5.3-2.47s.53-3.36 2.47-5.31 3.36-.53 5.31-2.47.53-3.36 2.48-5.31l24.04 24.04c.3755541.3751365.5865733.8841815.5865733 1.415s-.2110192 1.0398635-.5865733 1.415z" fill="#e64c3c"/><path id="Shape" d="m39.456 30.557c2.7338095 2.7338095 2.7338095 7.1661905 0 9.9s-7.1661905 2.7338095-9.9 0c-3.273-3.273-3.193-9.9-3.062-12.142.026959-.4406718.3783282-.792041.819-.819 2.243-.132 8.87-.213 12.143 3.061z" fill="#c03a2b"/><path id="Shape" d="m34.179 39.705c-.8972963-.1414641-1.7240427-.5715127-2.355-1.225-1.27-1.27-2.17-3.786-2.533-7.086-.0604752-.548971.335529-1.0430248.8845-1.1035s1.0430248.335529 1.1035.8845c.3 2.767 1.037 4.969 1.958 5.891.3235216.3258323.7303151.5565561 1.176.667.4921541.1189771.8177177.5870314.7580544 1.0898351-.0596633.5028036-.4857235.8816693-.9920544.8821649z" fill="#e64c3c"/><g fill="#35495e"><path id="Shape" d="m52.49 37.93-2.78 2.78c-.190164.1849909-.4447023.2889572-.71.29-.4062651.0023626-.77358-.2413038-.929371-.6165185-.1557909-.3752147-.0690889-.807391.219371-1.0934815l2.78-2.78z"/><path id="Shape" d="m49.49 34.93-2.78 2.78c-.190164.1849909-.4447023.2889572-.71.29-.4062651.0023626-.77358-.2413038-.929371-.6165185-.1557909-.3752147-.0690889-.807391.219371-1.0934815l2.78-2.78z"/><path id="Shape" d="m37.49 22.93c-1.847 1.847-1.932 2.07-2.49 2.07-.4062651.0023626-.77358-.2413038-.929371-.6165185-.1557909-.3752147-.0690889-.807391.219371-1.0934815l1.78-1.78z"/><path id="Shape" d="m34.49 19.93-2.78 2.78c-.190164.1849909-.4447023.2889572-.71.29-.4062651.0023626-.77358-.2413038-.929371-.6165185-.1557909-.3752147-.0690889-.807391.219371-1.0934815l2.78-2.78z"/></g></g></svg>