<svg height="512" viewBox="0 0 48 58" width="512" xmlns="http://www.w3.org/2000/svg"><g id="014---Donation-Location" fill="none"><path id="Shape" d="m48 24.222c0 13.92-17.828 29.343-22.752 33.336-.7257844.5924403-1.7682156.5924403-2.494 0-4.924-3.995-22.754-19.414-22.754-33.334 0-13.254834 10.745166-24 24-24s24 10.745166 24 24z" fill="#e64c3c"/><path id="Shape" d="m48 24.222c0 13.92-17.832 29.336-22.752 33.336-.3523467.2872612-.7933958.4434661-1.248.4420102v-58.0000102c13.3141159.06612045 24.0564684 10.9078397 24 24.222z" fill="#c03a2b"/><path id="Shape" d="m24 5v38c-10.4934102 0-19-8.5065898-19-19s8.5065898-19 19-19z" fill="#fff"/><path id="Shape" d="m43 24c0 5.0391133-2.00178 9.8718377-5.5649712 13.4350288-3.5631911 3.5631912-8.3959155 5.5649712-13.4350288 5.5649712v-38c10.4934102 0 19 8.5065898 19 19z" fill="#ecf0f1"/><path id="Shape" d="m24 29v10s-5.3-4.35-6.93-5.94c-1.29-1.25-3.09-2.51-3.77-4.95 1.0875497-.7386373 2.3754309-1.1260487 3.69-1.11 3.5 0 3.496 2 7.01 2z" fill="#e64c3c"/><path id="Shape" d="m34.7 28.11c-.68 2.44-2.48 3.7-3.77 4.95-1.63 1.59-6.93 5.94-6.93 5.94v-10c3.49 0 3.49-2 7-2 1.3178779-.0174564 2.6093623.3699889 3.7 1.11z" fill="#c03a2b"/><path id="Shape" d="m24 23.17v5.83c-3.513 0-3.51-2-7.01-2-1.3152086.0011315-2.601359.3869766-3.7 1.11-.2022871-.7052549-.2999945-1.4363757-.29-2.17 0-3.96 2.44-5.94 5.7-5.94 2.2151276.0018471 4.2505359 1.2192518 5.3 3.17z" fill="#bdc3c7"/><path id="Shape" d="m35 25.94c.0119327.7344414-.089252 1.4663439-.3 2.17-1.0906377-.7400111-2.3821221-1.1274564-3.7-1.11-3.51 0-3.51 2-7 2v-5.83c1.0494641-1.9507482 3.0848724-3.1681529 5.3-3.17 3.26 0 5.7 1.98 5.7 5.94z" fill="#95a5a5"/><path id="Shape" d="m24 9v8c-2.375 0-4.886-3.391-.24-7.9.0662506-.05973462.1509351-.0950198.24-.1z" fill="#e64c3c"/><path id="Shape" d="m24 17v-8c.0890649.0049802.1737494.04026538.24.1 4.584 4.45 2.18 7.9-.24 7.9z" fill="#c03a2b"/></g></svg>