<svg height="512" viewBox="0 0 58 58" width="512" xmlns="http://www.w3.org/2000/svg"><g id="011---Blood" fill="none" transform="translate(-1 -1)"><path id="Shape" d="m22.64 14.42-10.99 20.5c-6.13609383-.7815636-10.7142887-6.034666-10.65-12.22 0-7.99 9.33-18.99 11.54-21.49.1156708-.13332127.2834942-.20989976.46-.20989976s.3443292.07657849.46.20989976c3.5942619 4.00695804 6.6777882 8.44414566 9.18 13.21z" fill="#e64c3c"/><path id="Shape" d="m22.64 14.42-10.99 20.5c-.6593484-.0778648-1.3114227-.2082796-1.95-.39 1.89-7.69 7.29-16 11.91-22.06.36.64.71 1.29 1.03 1.95z" fill="#c03a2b"/><path id="Shape" d="m5 23.7c-.55228475 0-1-.4477153-1-1 0-5.426 5.745-13.3 8.215-16.43.221326-.2804535.5754599-.42152719.9290027-.37007997.3535429.05144722.6527832.28759929.7850001.61950001.1322168.33190072.0773232.70912647-.1440028.98957996-4.802 6.091-7.785 11.914-7.785 15.191 0 .5522847-.44771525 1-1 1z" fill="#fb7b76"/><path id="Shape" d="m7 29.185c-.29298358-.0001877-.57114666-.1288518-.761-.352-.35129159-.4143099-.66549986-.8586854-.939-1.328-.21694135-.3087432-.24161891-.7133129-.06381116-1.0461347s.52782003-.5372159.90506047-.5285216.71746472.2289963.87975069.5696563c.21596956.3681441.46357048.7167929.74 1.042.24936392.2970038.30452509.7114029.14153653 1.0632954-.16298855.3518925-.51473496.5778213-.90253653.5797046z" fill="#fb7b76"/><path id="Shape" d="m30 59c-10.540167-.0473911-19.0464957-8.629829-19-19.17 0-12.45 14.77-29.61 18.26-33.5.1895245-.20851424.458224-.32739313.74-.32739313s.5504755.11887889.74.32739313c2.295 2.567 4.857 5.713 6.62 8.09l10.99 20.5c3.176 13.098-6.55 24.08-18.35 24.08z" fill="#e64c3c"/><path id="Shape" d="m48.75 36.89c-4.0302916.4680064-8.0671773-.8200835-11.0815714-3.5359091-3.0143942-2.7158256-4.7150476-6.5969851-4.6684286-10.6540909 0-3.18 1.27-6.71 3.01-10.05 1.694 2.156.2-.368 12.34 22.27.16.66.3 1.32.4 1.97z" fill="#c03a2b"/><path id="Shape" d="m59 22.7c.0000001 4.2871871-2.287187 8.2487115-5.9999999 10.3923051-3.712813 2.1435936-8.2871872 2.1435936-12.0000002 0-3.7128129-2.1435936-6-6.105118-5.9999999-10.3923051 0-7.988 9.327-18.995 11.535-21.49.1168171-.13495904.2865058-.21250776.465-.21250776s.3481829.07754872.465.21250776c2.208 2.497 11.535 13.504 11.535 21.49z" fill="#e64c3c"/><g fill="#fb7b76"><path id="Shape" d="m39 23.7c-.5522847 0-1-.4477153-1-1 0-5.426 5.745-13.3 8.215-16.43.3421404-.43354353.9709565-.5076404 1.4045-.1655s.5076404.97095647.1655 1.4045c-4.802 6.091-7.785 11.914-7.785 15.191 0 .5522847-.4477153 1-1 1z"/><path id="Shape" d="m41 29.185c-.2929836-.0001877-.5711467-.1288518-.761-.352-.3526761-.4141509-.6682264-.8585313-.943-1.328-.1946569-.3088382-.2055489-.69921-.0284157-1.0184218.1771331-.3192119.5141399-.5165318.8792006-.5147784.3650606.0017535.7001564.2023016.8742151.5232002.2159696.3681441.4635705.7167929.74 1.042.2525579.296849.3096345.7133876.1462386 1.067233-.1633959.3538455-.517489.5805175-.9072386.580767z"/><path id="Shape" d="m15 41c-.5522847 0-1-.4477153-1-1 0-9.964 11.662-24.445 15.236-28.646.2322226-.2722364.5920416-.3999039.9439165-.3349114.351875.0649925.6423477.3127711.762.65s.0503061.712675-.1819165.9849114c-3.46 4.066-14.76 18.065-14.76 27.346 0 .5522847-.4477153 1-1 1z"/><path id="Shape" d="m16.253 47c-.3977982.0001929-.7578808-.2354119-.917-.6-.3025577-.6926143-.5558537-1.4057194-.758-2.134-.1034161-.3468148-.0113775-.7224417.2406559-.9821619.2520334-.2597201.6247265-.3629989.9744909-.2700457.3497643.0929532.6220119.367631.7118532.7182076.1769249.6367917.3984729 1.2603339.663 1.866.1357118.3091121.1063003.6658313-.0782073.9485413s-.4992013.4532428-.8367927.4534587z"/><path id="Shape" d="m19.812 52c-.2517471-.0000376-.4942177-.0950261-.679-.266-.365-.339-.718-.7-1.049-1.067-.3621698-.4121505-.3246171-1.0391465.0841571-1.4051229.4087742-.3659763 1.0360915-.3342398 1.4058429.0711229.2906667.326.5966667.637.918.933.3021798.2795982.4021266.7158165.2518241 1.0990879s-.5201353.6352624-.9318241.6349121z"/></g></g></svg>