<svg height="512" viewBox="0 0 58 58" width="512" xmlns="http://www.w3.org/2000/svg"><g id="003---Blood-Transfusion" fill="none"><path id="Shape" d="m20 17.11v15.89c0 6.288-2 5.91-2 8.92v14.08c-.0032948 1.1032019-.8967981 1.9967052-2 2h-9c-1.10320187-.0032948-1.9967052-.8967981-2-2v-12.93c-.00028119-1.3235245-.52531046-2.5929446-1.46-3.53l-2.08-2.08c-.93468953-.9370554-1.45971881-2.2064755-1.46-3.53v-4.93c.01251915-1.6516409 1.34835915-2.9874808 3-3h1v-10.89c-.02524836-1.1329738.86729764-2.0746098 2-2.11 1.10320187.0032948 1.9967052.8967981 2 2v-.95c-.01713776-.8154286.46259423-1.5595747 1.21237061-1.8805933s1.61937279-.1545909 2.19762939.4205933c.738.718.59 1.575.59 2.41.0033854-.8063114.4906258-1.5317303 1.2357575-1.8398346s1.6024026-.138627 2.1742425.4298346c.743.723.59 1.39.59 3.41.0005287-.5614058.2369897-1.0967404.6516211-1.4752342.4146313-.3784938.9692512-.5652926 1.5283789-.5147658 1.0548029.1308741 1.8403758 1.0373043 1.82 2.1z" fill="#fdd7ad"/><path id="Shape" d="m58 24.07v4.93c-.0035644 1.2682549-.8042713 2.3972517-2 2.82-.6483288.1910124-1.3279838.2521814-2 .18v10.89c.0366503.8235938-.4343196 1.5857547-1.1873093 1.9213982s-1.6346643.1764209-2.2226907-.4013982c-.3798589-.3704612-.5928231-.8794095-.59-1.41v.95c-.0059604 1.1103716-.890114 2.016629-2 2.05-1.1034291-.0027483-1.9972517-.8965709-2-2v-1c0 1.1045695-.8954305 2-2 2s-2-.8954305-2-2v-2c.0028231.5305905-.2101411 1.0395388-.59 1.41-.5876616.578929-1.4699343.7388381-2.2233974.4029836-.7534631-.3358546-1.2243223-1.0989192-1.1866026-1.9229836v-15.89c0-6.288 2-5.91 2-8.92v-14.08c.0032948-1.10320187.8967981-1.9967052 2-2h9c1.1032019.0032948 1.9967052.89679813 2 2v12.93c.0002812 1.3235245.5253105 2.5929446 1.46 3.53l2.08 2.08c.9346895.9370554 1.4597188 2.2064755 1.46 3.53z" fill="#fdd7ad"/><g fill="#f9c795"><path id="Shape" d="m16 15v12c0 .5522847-.4477153 1-1 1s-1-.4477153-1-1v-14c1.1032019.0032948 1.9967052.8967981 2 2z"/><path id="Shape" d="m4 26v6c0 .5522847-.44771525 1-1 1s-1-.4477153-1-1v-5.82c.64818977-.1917415 1.32799037-.2529236 2-.18z"/><path id="Shape" d="m12 14v13c0 .5522847-.4477153 1-1 1s-1-.4477153-1-1v-15c1.1032019.0032948 1.9967052.8967981 2 2z"/><path id="Shape" d="m8 15v12c0 .5522847-.44771525 1-1 1s-1-.4477153-1-1v-14c1.10320187.0032948 1.9967052.8967981 2 2z"/><path id="Shape" d="m44 31v14c-1.1034291-.0027483-1.9972517-.8965709-2-2v-12c0-.5522847.4477153-1 1-1s1 .4477153 1 1z"/><path id="Shape" d="m56 26v5.82c-.6481898.1917415-1.3279904.2529236-2 .18v-6c0-.5522847.4477153-1 1-1s1 .4477153 1 1z"/><path id="Shape" d="m48 31v15c-1.1034291-.0027483-1.9972517-.8965709-2-2v-13c0-.5522847.4477153-1 1-1s1 .4477153 1 1z"/><path id="Shape" d="m52 31v14c-1.1034291-.0027483-1.9972517-.8965709-2-2v-12c0-.5522847.4477153-1 1-1s1 .4477153 1 1z"/></g><path id="Shape" d="m47 19c-.5522847 0-1-.4477153-1-1v-10c0-1.1045695-.8954305-2-2-2h-12c-1.1045695 0-2 .8954305-2 2v5c0 .5522847-.4477153 1-1 1s-1-.4477153-1-1v-5c0-2.209139 1.790861-4 4-4h12c2.209139 0 4 1.790861 4 4v10c0 .5522847-.4477153 1-1 1z" fill="#e64c3c"/><path id="Shape" d="m49 17h-4c-.5522847 0-1-.4477153-1-1s.4477153-1 1-1h4c.5522847 0 1 .4477153 1 1s-.4477153 1-1 1z" fill="#ecf0f1"/><path id="Shape" d="m49 12h-4c-.5522847 0-1-.4477153-1-1s.4477153-1 1-1h4c.5522847 0 1 .4477153 1 1s-.4477153 1-1 1z" fill="#ecf0f1"/><path id="Shape" d="m26 55h-12c-2.209139 0-4-1.790861-4-4v-10c0-.5522847.4477153-1 1-1s1 .4477153 1 1v10c0 1.1045695.8954305 2 2 2h12c1.1045695 0 2-.8954305 2-2v-8c0-.5522847.4477153-1 1-1s1 .4477153 1 1v8c0 2.209139-1.790861 4-4 4z" fill="#e64c3c"/><path id="Shape" d="m13 44h-4c-.55228475 0-1-.4477153-1-1s.44771525-1 1-1h4c.5522847 0 1 .4477153 1 1s-.4477153 1-1 1z" fill="#ecf0f1"/><path id="Shape" d="m13 49h-4c-.55228475 0-1-.4477153-1-1s.44771525-1 1-1h4c.5522847 0 1 .4477153 1 1s-.4477153 1-1 1z" fill="#ecf0f1"/><path id="Shape" d="m26 39h6v4c0 .5522847-.4477153 1-1 1h-4c-.5522847 0-1-.4477153-1-1z" fill="#84b5cb"/><path id="Shape" d="m38 19v18c0 1.6568542-1.3431458 3-3 3h-12c-1.6568542 0-3-1.3431458-3-3v-18c0-1.6568542 1.3431458-3 3-3 .5522847 0 1-.4477153 1-1v-1c.0032948-1.1032019.8967981-1.9967052 2-2h6c1.1032019.0032948 1.9967052.8967981 2 2v1c0 .2652165.1053568.5195704.2928932.7071068s.4418903.2928932.7071068.2928932c1.6568542 0 3 1.3431458 3 3z" fill="#9fc9d3"/><path id="Shape" d="m34 24v11c0 .5522847-.4477153 1-1 1h-8c-.5522847 0-1-.4477153-1-1v-11z" fill="#e64c3c"/><path id="Shape" d="m34 21v3h-10v-3c0-.5522847.4477153-1 1-1h8c.5522847 0 1 .4477153 1 1z" fill="#84b5cb"/><circle id="Oval" cx="29" cy="16" fill="#84b5cb" r="1"/><path id="Shape" d="m29 32c0 .5522847-.4477153 1-1 1h-4v-2h4c.5522847 0 1 .4477153 1 1z" fill="#35495e"/><path id="Shape" d="m29 27.97c0 .5522847-.4477153 1-1 1h-4v-2h4c.5522847 0 1 .4477153 1 1z" fill="#35495e"/></g></svg>