<svg height="512" viewBox="0 0 58 58" width="512" xmlns="http://www.w3.org/2000/svg"><g id="017---Blood-Pressure-Check" fill="none" transform="translate(-1 -1)"><path id="Shape" d="m39 6.11v15.89c0 6.288-2 5.91-2 8.92v26.08c-.0032948 1.1032019-.8967981 1.9967052-2 2h-9c-1.1032019-.0032948-1.9967052-.8967981-2-2v-24.93c-.0002812-1.3235245-.5253105-2.5929446-1.46-3.53l-2.08-2.08c-.9346895-.9370554-1.4597188-2.2064755-1.46-3.53v-4.93c.0125192-1.6516409 1.3483591-2.9874808 3-3h1v-10.89c-.0252484-1.13297379.8672976-2.07460983 2-2.11 1.1032019.0032948 1.9967052.89679813 2 2v-.95c-.0171378-.81542864.4625942-1.55957467 1.2123706-1.8805933.7497764-.32101862 1.6193728-.15459091 2.1976294.4205933.738.718.59 1.575.59 2.41.0033854-.80631139.4906258-1.5317303 1.2357575-1.83983461s1.6024026-.13862704 2.1742425.42983461c.743.723.59 1.39.59 3.41.0005287-.56140576.2369897-1.09674045.6516211-1.47523422.4146313-.37849377.9692512-.56529257 1.5283789-.51476578 1.0548029.13087409 1.8403758 1.03730433 1.82 2.1z" fill="#fdd7ad"/><g fill="#f9c795"><path id="Shape" d="m35 4v12c0 .5522847-.4477153 1-1 1s-1-.4477153-1-1v-14c1.1032019.0032948 1.9967052.89679813 2 2z"/><path id="Shape" d="m23 15v6c0 .5522847-.4477153 1-1 1s-1-.4477153-1-1v-5.82c.6481898-.1917415 1.3279904-.2529236 2-.18z"/><path id="Shape" d="m31 3v13c0 .5522847-.4477153 1-1 1s-1-.4477153-1-1v-15c1.1032019.0032948 1.9967052.89679813 2 2z"/><path id="Shape" d="m27 4v12c0 .5522847-.4477153 1-1 1s-1-.4477153-1-1v-14c1.1032019.0032948 1.9967052.89679813 2 2z"/></g><path id="Shape" d="m46 45h-7c-.5522847 0-1-.4477153-1-1s.4477153-1 1-1h7c2.209139 0 4-1.790861 4-4v-16c0-.5522847.4477153-1 1-1s1 .4477153 1 1v16c-.0033074 3.3123376-2.6876624 5.9966926-6 6z" fill="#3f5c6c"/><path id="Shape" d="m22 45h-8c-3.3123376-.0033074-5.99669262-2.6876624-6-6v-22c0-.5522847.44771525-1 1-1s1 .4477153 1 1v22c0 2.209139 1.790861 4 4 4h8c.5522847 0 1 .4477153 1 1s-.4477153 1-1 1z" fill="#3f5c6c"/><rect id="Rectangle-path" fill="#67b9cc" height="20" rx="2" width="17" x="22" y="34"/><rect id="Rectangle-path" fill="#2fa8cc" height="20" rx="2" width="13" x="24" y="34"/><ellipse id="Oval" cx="51" cy="12" fill="#95a5a5" rx="8" ry="11"/><path id="Shape" d="m52 10h-2c-1.1045695 0-2-.8954305-2-2s.8954305-2 2-2h2c1.1045695 0 2 .8954305 2 2s-.8954305 2-2 2z" fill="#2c3e50"/><path id="Shape" d="m52 18h-2c-1.1045695 0-2-.8954305-2-2s.8954305-2 2-2h2c1.1045695 0 2 .8954305 2 2s-.8954305 2-2 2z" fill="#2c3e50"/><path id="Shape" d="m17 9c0 4.418278-3.581722 8-8 8s-8-3.581722-8-8 3.581722-8 8-8c2.1217319 0 4.1565632.84285472 5.6568542 2.34314575 1.5002911 1.50029103 2.3431458 3.53512233 2.3431458 5.65685425z" fill="#2fa8cc"/><path id="Shape" d="m1.42 11.56c-1.10654282-3.27383825.01417106-6.8881293 2.77879952-8.96160064 2.76462845-2.07347134 6.54814778-2.13735517 9.38120048-.15839936 1.0948984 3.27198787-.0290455 6.87740622-2.7893014 8.9475981-2.76025588 2.070192-6.5361618 2.139661-9.3706986.1724019z" fill="#67b9cc"/><path id="Shape" d="m10.41 8.59c-.4049421.00112993-.77059289-.24206562-.92610713-.6159569-.15551425-.37389129-.07018962-.80466303.21610713-1.0910431l1.59-1.59c.2510745-.25995658.6228779-.3642126.9725073-.27269716.3496295.09151544.6226744.3645604.7141899.71418984.0915154.34962943-.0127406.72143285-.2726972.97250732-1.704 1.712-1.76 1.883-2.294 1.883z" fill="#2c3e50"/><circle id="Oval" cx="9" cy="9" fill="#35495e" r="2"/></g></svg>