<svg height="512" viewBox="0 0 58 58" width="512" xmlns="http://www.w3.org/2000/svg"><g id="034---Blood-Help" fill="none" transform="translate(-1 -1)"><path id="Shape" d="m51 59h-42c-4.41622192-.0049599-7.99504012-3.5837781-8-8v-42c.00495988-4.41622192 3.58377808-7.99504012 8-8h42c4.4162219.00495988 7.9950401 3.58377808 8 8v42c-.0049599 4.4162219-3.5837781 7.9950401-8 8zm-42-56c-3.31233757.00330738-5.99669262 2.68766243-6 6v42c.00330738 3.3123376 2.68766243 5.9966926 6 6h42c3.3123376-.0033074 5.9966926-2.6876624 6-6v-42c-.0033074-3.31233757-2.6876624-5.99669262-6-6z" fill="#35495e"/><path id="Shape" d="m58.72 26c-2.1374782-15.3485961-15.9643694-26.30462536-31.3951499-24.87661006-15.4307805 1.42801529-27.01225373 14.73541836-26.29673453 30.21560726.7155192 15.4801888 13.47516823 27.6625061 28.97188443 27.6610028 8.3898592.0031771 16.3695858-3.6287823 21.8774917-9.9575042s8.0036831-14.733379 6.8425083-23.0424958zm-24.72 21.54c-7.4528328 1.6944868-15.1626995-1.5056961-19.2249375-7.9798158-4.0622379-6.4741197-3.5897523-14.8083847 1.1781664-20.7819057 4.7679188-5.973521 12.7900723-8.2818253 20.0036402-5.7558719s12.0432811 9.3345572 12.0431309 16.9775934c-.0094598 8.3946185-5.8163492 15.6698213-14 17.54z" fill="#ecf0f1"/><path id="Shape" d="m38 32.409c0 4.744-3.582 8.591-8 8.591s-8-3.847-8-8.591c0-5.658 5.421-11.316 7.338-13.14.3682302-.3592373.9557698-.3592373 1.324 0 1.917 1.824 7.338 7.482 7.338 13.14z" fill="#c03a2b"/><path id="Shape" d="m36.909 30.58c.1361103 3.9549777-2.9543736 7.2740384-6.909 7.42-3.9546264-.1459616-7.0451103-3.4650223-6.909-7.42 0-4.886 4.682-9.773 6.337-11.348.3187845-.3088815.8252155-.3088815 1.144 0 1.655 1.575 6.337 6.462 6.337 11.348z" fill="#e64c3c"/><path id="Shape" d="m26 33.538c-.5522847 0-1-.4477153-1-1 0-3.026 2.667-6.441 4.257-8.207.3694785-.4106237 1.0018763-.4439785 1.4125-.0745s.4439785 1.0018763.0745 1.4125c-2.344 2.604-3.744 5.172-3.744 6.869 0 .5522847-.4477153 1-1 1z" fill="#fb7b76"/><circle id="Oval" cx="28" cy="36" fill="#fb7b76" r="1"/><path id="Shape" d="m34 1.28v11.18c-2.6312668-.6144901-5.3687332-.6144901-8 0v-11.18c2.6535508-.37403623 5.3464492-.37403623 8 0z" fill="#e64c3c"/><path id="Shape" d="m58.72 26h-11.18c-1.525922-6.7460451-6.7939549-12.014078-13.54-13.54v-11.18c12.8422444 1.7820548 22.9379452 11.8777556 24.72 24.72z" fill="#ecf0f1"/><path id="Shape" d="m58.72 34h-11.18c.6144901-2.6312668.6144901-5.3687332 0-8h11.18c.3735623 2.653584.3735623 5.346416 0 8z" fill="#e64c3c"/><path id="Shape" d="m58.72 34c-1.7820548 12.8422444-11.8777556 22.9379452-24.72 24.72v-11.18c6.7460451-1.525922 12.014078-6.7939549 13.54-13.54z" fill="#d1d4d1"/><path id="Shape" d="m34 47.54v11.18c-2.653584.3735623-5.346416.3735623-8 0v-11.18c2.6312668.6144901 5.3687332.6144901 8 0z" fill="#c03a2b"/><path id="Shape" d="m26 47.54v11.18c-12.8422444-1.7820548-22.9379452-11.8777556-24.72-24.72h11.18c1.525922 6.7460451 6.7939549 12.014078 13.54 13.54z" fill="#d1d4d1"/><path id="Shape" d="m58.14 34c-2.8535606 11.4919028-12.4115956 20.0917587-24.14 21.72v-8.18c6.7460451-1.525922 12.014078-6.7939549 13.54-13.54z" fill="#ecf0f1"/><path id="Shape" d="m34 47.54v8.18c-2.653584.3735623-5.346416.3735623-8 0v-8.18c2.6312668.6144901 5.3687332.6144901 8 0z" fill="#e64c3c"/><path id="Shape" d="m26 47.54v8.18c-11.7284044-1.6282413-21.28643937-10.2280972-24.14-21.72h10.6c1.525922 6.7460451 6.7939549 12.014078 13.54 13.54z" fill="#ecf0f1"/><path id="Shape" d="m12.46 34h-11.18c-.37356233-2.653584-.37356233-5.346416 0-8h11.18c-.6144901 2.6312668-.6144901 5.3687332 0 8z" fill="#e64c3c"/><path id="Shape" d="m26 1.28v11.18c-6.7460451 1.525922-12.014078 6.7939549-13.54 13.54h-11.18c1.7820548-12.8422444 11.8777556-22.9379452 24.72-24.72z" fill="#ecf0f1"/><path id="Shape" d="m26 8.46v4c-6.7460451 1.525922-12.014078 6.7939549-13.54 13.54h-.4600024c-.0043088-8.3994428 5.8085945-15.6821802 14.0000024-17.54z" fill="#d1d4d1"/><path id="Shape" d="m48.0000024 26h-.4600024c-1.525922-6.7460451-6.7939549-12.014078-13.54-13.54v-4c8.1914079 1.8578198 14.0043112 9.1405572 14.0000024 17.54z" fill="#d1d4d1"/><path id="Shape" d="m34 8.46v4c-2.6312668-.6144901-5.3687332-.6144901-8 0v-4c2.6312668-.61449008 5.3687332-.61449008 8 0z" fill="#c03a2b"/></g></svg>