<svg height="512" viewBox="0 0 58 58" width="512" xmlns="http://www.w3.org/2000/svg"><g id="026---Compatible-Blood-Type" fill="none"><path id="Shape" d="m37.79 31.45-6.93 17.39c-5.7024413 4.5561577-13.5108041 5.4428631-20.089652 2.2813494-6.57884792-3.1615138-10.76502222-9.8122823-10.770348-17.1113494 0-11.6 13.71-28.48 18.25-33.67.189833-.21525044.4629994-.33856217.75-.33856217s.560167.12331173.75.33856217c4.22 4.82 16.34 19.72 18.04 31.11z" fill="#c03a2b"/><path id="Shape" d="m37.79 31.45-3.72 9.34c-10.5701677 6.4146356-24.0431795 5.4313505-33.57-2.45-.33464147-1.4189508-.50244448-2.8721248-.5-4.33 0-11.6 13.71-28.48 18.25-33.67.189833-.21525044.4629994-.33856217.75-.33856217s.560167.12331173.75.33856217c6.695 7.637 16.511 21.016 18.04 31.11z" fill="#e64c3c"/><g fill="#fb7b76"><path id="Shape" d="m4 35c-.55228475 0-1-.4477153-1-1 0-9.962 11.662-24.445 15.236-28.646.2322226-.27223639.5920416-.39990389.9439165-.33491139.351875.06499251.6423477.31277112.762.65000002s.0503061.71267499-.1819165.98491137c-3.46 4.066-14.76 18.066-14.76 27.346 0 .5522847-.44771525 1-1 1z"/><path id="Shape" d="m5.254 41c-.39779815.0001929-.75788077-.2354119-.917-.6-.30386818-.6923115-.55784902-1.405463-.76-2.134-.14746002-.5324025.16459751-1.08354.697-1.231.5324025-.14746 1.08353997.1645975 1.231.697.17665843.6376556.3985543 1.2619048.664 1.868.13482011.3089106.10495601.6649539-.07943971.9470894-.18439571.2821355-.49851138.4524001-.83556029.4529106z"/><path id="Shape" d="m8.812 46c-.2520332.000487-.49480248-.094976-.679-.267-.371-.343-.724-.7-1.05-1.066-.3683739-.4120044-.33300438-1.044626.07900003-1.413.41200441-.3683739 1.04462603-.3330044 1.41299997.079.29.326.6.637.917.934.30142664.2797258.40088052.7154618.25067297 1.0982701-.15020754.3828084-.51944975.6346359-.93067297.6347299z"/></g><path id="Shape" d="m19 34c-.5522847 0-1-.4477153-1-1v-10c0-.5522847.4477153-1 1-1s1 .4477153 1 1v10c0 .5522847-.4477153 1-1 1z" fill="#fff"/><path id="Shape" d="m24 29h-10c-.5522847 0-1-.4477153-1-1s.4477153-1 1-1h10c.5522847 0 1 .4477153 1 1s-.4477153 1-1 1z" fill="#fff"/><path id="Shape" d="m24 39h-10c-.5522847 0-1-.4477153-1-1s.4477153-1 1-1h10c.5522847 0 1 .4477153 1 1s-.4477153 1-1 1z" fill="#ecf0f1"/><path id="Shape" d="m37.79 31.45-3.79 12.55c-1.88 1.14-3.85-1.12-5.99-.43.1678658-6.1160269 3.8088839-11.6008442 9.38-14.13.17.68.3 1.35.4 2.01z" fill="#c03a2b"/><circle id="Oval" cx="44" cy="44" fill="#26b99a" r="14"/><path id="Shape" d="m40.293 50.707-3-3c-.3789722-.3923789-.3735524-1.0160848.0121814-1.4018186s1.0094397-.3911536 1.4018186-.0121814l2.185 2.185 8.308-11.078c.2143593-.2858125.5649147-.4355548.9196153-.3928204.3547005.0427344.6596588.2714532.8.6000001.1403412.3285468.0947441.7070078-.1196153.9928203l-9 12c-.173952.2318622-.4399517.3768378-.7290848.3973668s-.5729481-.0854086-.7779152-.2903668z" fill="#ecf0f1"/></g></svg>