<svg height="512" viewBox="0 0 58 58" width="512" xmlns="http://www.w3.org/2000/svg"><g id="039---Blood-Breakdown" fill="none"><path id="Shape" d="m40 27h-4c-.5522847 0-1-.4477153-1-1s.4477153-1 1-1h4c.5522847 0 1 .4477153 1 1s-.4477153 1-1 1z" fill="#2c3e50"/><path id="Shape" d="m22 38h-4c-.5522847 0-1-.4477153-1-1s.4477153-1 1-1h4c.5522847 0 1 .4477153 1 1s-.4477153 1-1 1z" fill="#2c3e50"/><path id="Shape" d="m40 49h-4c-.5522847 0-1-.4477153-1-1s.4477153-1 1-1h4c.5522847 0 1 .4477153 1 1s-.4477153 1-1 1z" fill="#2c3e50"/><path id="Shape" d="m36 6v45c0 3.8659932-3.1340068 7-7 7s-7-3.1340068-7-7v-45z" fill="#67b9cc"/><path id="Shape" d="m36 13v38c0 3.8659932-3.1340068 7-7 7s-7-3.1340068-7-7v-38c3.5 0 3.5 3 7 3s3.5-3 7-3z" fill="#e64c3c"/><path id="Shape" d="m28 37c0 .5522847-.4477153 1-1 1h-5v-2h5c.5522847 0 1 .4477153 1 1z" fill="#35495e"/><path id="Shape" d="m28 46c0 .5522847-.4477153 1-1 1h-5v-2h5c.5522847 0 1 .4477153 1 1z" fill="#35495e"/><path id="Rectangle-path" d="m22 41h14v2h-14z" fill="#c03a2b"/><path id="Shape" d="m28 26c0 .5522847-.4477153 1-1 1h-5v-2h5c.5522847 0 1 .4477153 1 1z" fill="#35495e"/><path id="Rectangle-path" d="m22 31h14v2h-14z" fill="#c03a2b"/><path id="Rectangle-path" d="m22 19h14v2h-14z" fill="#c03a2b"/><circle id="Oval" cx="49" cy="26" fill="#c03a2b" r="9"/><circle id="Oval" cx="49" cy="48" fill="#35495e" r="9"/><circle id="Oval" cx="9" cy="37" fill="#35495e" r="9"/><path id="Shape" d="m14 37c0 2.209139-1.790861 4-4 4h-2c-2.209139 0-4-1.790861-4-4s1.790861-4 4-4h2c2.209139 0 4 1.790861 4 4z" fill="#e64c3c"/><path id="Shape" d="m10 37c0 .5522847-.44771525 1-1 1-1.58 0-3.7-.19-4.94-1.64.17208838-.7292488.49577419-1.4140998.95-2.01.628.4.31 1.65 3.99 1.65.55228475 0 1 .4477153 1 1z" fill="#c03a2b"/><g fill="#894b9d"><path id="Shape" d="m49 46c-.5522847 0-1-.4477153-1-1v-2c0-.5522847.4477153-1 1-1s1 .4477153 1 1v2c0 .5522847-.4477153 1-1 1z"/><path id="Shape" d="m46.879 46.879c-.2651948-.0000566-.5195073-.1054506-.707-.293l-1.414-1.415c-.3789722-.3923789-.3735524-1.0160848.0121814-1.4018186s1.0094397-.3911536 1.4018186-.0121814l1.414 1.415c.2859079.2859943.3714219.7160366.216678 1.0896546-.1547439.3736179-.5192821.6172591-.923678.6173454z"/><path id="Shape" d="m46 49h-2c-.5522847 0-1-.4477153-1-1s.4477153-1 1-1h2c.5522847 0 1 .4477153 1 1s-.4477153 1-1 1z"/><path id="Shape" d="m45.465 52.536c-.4043959-.0000863-.7689341-.2437275-.923678-.6173454-.1547439-.373618-.0692299-.8036603.216678-1.0896546l1.414-1.415c.3923789-.3789722 1.0160848-.3735524 1.4018186.0121814s.3911536 1.0094397.0121814 1.4018186c-1.538 1.538-1.595 1.708-2.121 1.708z"/><path id="Shape" d="m49 54c-.5522847 0-1-.4477153-1-1v-2c0-.5522847.4477153-1 1-1s1 .4477153 1 1v2c0 .5522847-.4477153 1-1 1z"/><path id="Shape" d="m52.535 52.536c-.2651948-.0000566-.5195073-.1054506-.707-.293l-1.414-1.415c-.3789722-.3923789-.3735524-1.0160848.0121814-1.4018186s1.0094397-.3911536 1.4018186-.0121814l1.414 1.415c.2859079.2859943.3714219.7160366.216678 1.0896546-.1547439.3736179-.5192821.6172591-.923678.6173454z"/><path id="Shape" d="m54 49h-2c-.5522847 0-1-.4477153-1-1s.4477153-1 1-1h2c.5522847 0 1 .4477153 1 1s-.4477153 1-1 1z"/><path id="Shape" d="m51.121 46.879c-.4043959-.0000863-.7689341-.2437275-.923678-.6173454-.1547439-.373618-.0692299-.8036603.216678-1.0896546l1.414-1.415c.3923789-.3789722 1.0160848-.3735524 1.4018186.0121814s.3911536 1.0094397.0121814 1.4018186c-1.537 1.539-1.595 1.708-2.121 1.708z"/></g><path id="Shape" d="m57.78 28.01c-4.068 0-4.38 1.99-8.78 1.99-4.34 0-4.98-1.94-8.78-2-.4565461-2.012455-.20581-4.1207566.71-5.97 3.59.26 3.9 1.97 8.07 1.97s4.48-1.71 8.07-1.97c.9177412 1.8522452 1.1685099 3.9643537.71 5.98z" fill="#e64c3c"/><circle id="Oval" cx="49" cy="48" fill="#955ba5" r="4"/><path id="Shape" d="m36.5 7h-15c-1.9329966 0-3.5-1.56700338-3.5-3.5s1.5670034-3.5 3.5-3.5h15c1.9329966 0 3.5 1.56700338 3.5 3.5s-1.5670034 3.5-3.5 3.5z" fill="#2fa8cc"/></g></svg>