<svg height="512" viewBox="0 0 58 58" width="512" xmlns="http://www.w3.org/2000/svg"><g id="021---Blood-Tests" fill="none"><path id="Shape" d="m38 20v18l-3.81 5.84c-2.958.86-6.19-1.616-6.19-5.29v-18.55z" fill="#c03a2b"/><path id="Shape" d="m20 21v17.77c.0620055 2.8243513-2.1757159 5.1650078-5 5.23-2.8242841-.0649922-5.06200547-2.4056487-5-5.23v-17.77z" fill="#c03a2b"/><path id="Shape" d="m38 19v17.77c.0822932 1.8396713-.8522942 3.5759342-2.4331928 4.5203505-1.5808987.9444163-3.5527157.9444163-5.1336144 0-1.5808986-.9444163-2.515486-2.6806792-2.4331928-4.5203505v-17.77z" fill="#e64c3c"/><path id="Rectangle-path" d="m10 4h10v14h-10z" fill="#e64c3c"/><path id="Shape" d="m20 19v17.77c.0620055 2.8243513-2.1757159 5.1650078-5 5.23-2.8242841-.0649922-5.06200547-2.4056487-5-5.23v-17.77z" fill="#e64c3c"/><path id="Rectangle-path" d="m28 4h10v14h-10z" fill="#e64c3c"/><g fill="#c03a2b"><path id="Rectangle-path" d="m10 15h10v3h-10z"/><path id="Rectangle-path" d="m10 19h10v5h-10z"/><path id="Rectangle-path" d="m28 15h10v3h-10z"/><path id="Rectangle-path" d="m28 19h10v5h-10z"/></g><path id="Shape" d="m32 27c0 .5522847-.4477153 1-1 1h-3v-2h3c.5522847 0 1 .4477153 1 1z" fill="#35495e"/><path id="Shape" d="m32 35c0 .5522847-.4477153 1-1 1h-3v-2h3c.5522847 0 1 .4477153 1 1z" fill="#35495e"/><path id="Shape" d="m33 31c0 .5522847-.4477153 1-1 1h-4v-2h4c.5522847 0 1 .4477153 1 1z" fill="#35495e"/><path id="Rectangle-path" d="m2 21h4v33h-4z" fill="#805333"/><path id="Shape" d="m42 36v-15h4v14.184z" fill="#805333"/><path id="Shape" d="m46.2 57.99c-.121.017 2.592.01-44.2.01-1.10320187-.0032948-1.9967052-.8967981-2-2v-1c.0032948-1.1032019.89679813-1.9967052 2-2h34.25z" fill="#a56a43"/><circle id="Oval" cx="46" cy="46" fill="#35495e" r="12"/><path id="Shape" d="m38 4v6c-2.5 0-2.5 2-5 2s-2.5-2-5-2v-6z" fill="#67b9cc"/><path id="Shape" d="m20 4v6c-2.5 0-2.5 2-5 2s-2.5-2-5-2v-6z" fill="#67b9cc"/><path id="Shape" d="m52 47.752c.0000001 2.1435936-1.1435935 4.1243558-2.9999999 5.1961526-1.8564065 1.0717968-4.1435937 1.0717968-6.0000002 0-1.8564064-1.0717968-3-3.052559-2.9999999-5.1961526 0-4.115 4.066-8.23 5.5-9.556.2791117-.2611321.7128883-.2611321.992 0 1.442 1.326 5.508 5.441 5.508 9.556z" fill="#c03a2b"/><path id="Shape" d="m50.875 45.923c.0546818 2.7477395-2.1273047 5.0201386-4.875 5.077-4.029 0-8.334-5.525-.4-12.841.2268026-.2121083.5791974-.2121083.806 0 1.166 1.078 4.469 4.421 4.469 7.764z" fill="#e64c3c"/><path id="Shape" d="m44.338 50c-.3526614.0003577-.6794375-.1850687-.86-.488-1.251-2.1.235-4.683 1.734-6.6.2156718-.2934018.5737833-.4463766.9348755-.3993516s.6680799.2866157.8014132.6254684c.1333333.3388528.0719334.7233982-.1602887 1.0038832-.823 1.054-2.281 3.194-1.591 4.348.1831547.3089111.1865991.6923131.009024 1.004465-.1775752.3121518-.5088979.5051134-.868024.505535z" fill="#fb7b76"/><rect id="Rectangle-path" fill="#a56a43" height="5" rx="2" width="48" y="17"/><rect id="Rectangle-path" fill="#2fa8cc" height="5" rx="2" width="14" x="8"/><rect id="Rectangle-path" fill="#2fa8cc" height="5" rx="2" width="14" x="26"/><path id="Shape" d="m14 27c0 .5522847-.4477153 1-1 1h-3v-2h3c.5522847 0 1 .4477153 1 1z" fill="#35495e"/><path id="Shape" d="m14 35c0 .5522847-.4477153 1-1 1h-3v-2h3c.5522847 0 1 .4477153 1 1z" fill="#35495e"/><path id="Shape" d="m15 31c0 .5522847-.4477153 1-1 1h-4v-2h4c.5522847 0 1 .4477153 1 1z" fill="#35495e"/></g></svg>