<svg height="512" viewBox="0 0 58 58" width="512" xmlns="http://www.w3.org/2000/svg"><g id="023---Hospital-Bed-Transfusion" fill="none"><path id="Shape" d="m9 55c-.55228475 0-1-.4477153-1-1v-4c0-.5522847.44771525-1 1-1s1 .4477153 1 1v4c0 .5522847-.44771525 1-1 1z" fill="#547580"/><path id="Shape" d="m49 55c-.5522847 0-1-.4477153-1-1v-4c0-.5522847.4477153-1 1-1s1 .4477153 1 1v4c0 .5522847-.4477153 1-1 1z" fill="#547580"/><path id="Shape" d="m29 3.167c-1.0476213-1.95211248-3.0845433-3.16926945-5.3-3.167-3.256 0-5.7 1.979-5.7 5.938s2.442 5.54 4.072 7.123 6.928 5.939 6.928 5.939 5.3-4.355 6.928-5.939 4.072-3.161 4.072-7.123-2.444-5.938-5.7-5.938c-2.2154567-.00226945-4.2523787 1.21488752-5.3 3.167z" fill="#ecf0f1"/><path id="Shape" d="m4 37.978h-2c-1.1045695 0-2-.8954305-2-2v-20.978c0-1.1045695.8954305-2 2-2s2 .8954305 2 2z" fill="#547580"/><path id="Shape" d="m56 37.978h-2v-22.978c0-1.1045695.8954305-2 2-2s2 .8954305 2 2v20.978c0 1.1045695-.8954305 2-2 2z" fill="#547580"/><path id="Shape" d="m4 26h50v11.978c0 1.1045695-.8954305 2-2 2h-46c-1.1045695 0-2-.8954305-2-2z" fill="#2fa8cc"/><path id="Shape" d="m4 20h10c1.1045695 0 2 .8954305 2 2v4h-12z" fill="#67b9cc"/><circle id="Oval" cx="9" cy="55" fill="#35495e" r="3"/><path id="Shape" d="m8 48h-4c-1.1045695 0-2-.8954305-2-2s.8954305-2 2-2h4z" fill="#7f8c8d"/><circle id="Oval" cx="49" cy="55" fill="#35495e" r="3"/><path id="Rectangle-path" d="m10 44h38v4h-38z" fill="#7f8c8d"/><path id="Shape" d="m50 44h4c1.1045695 0 2 .8954305 2 2s-.8954305 2-2 2h-4z" fill="#7f8c8d"/><path id="Shape" d="m39.7 8.11c-.68 2.44-2.482 3.7-3.772 4.951-1.628 1.59-6.928 5.939-6.928 5.939s-5.3-4.349-6.928-5.939c-1.29-1.25-3.092-2.511-3.772-4.951 1.0875497-.73863728 2.3754309-1.12604869 3.69-1.11 3.5 0 3.5 2 7 2s3.5-2 7.01-2c1.3178779-.01745644 2.6093623.36998888 3.7 1.11z" fill="#e64c3c"/><path id="Shape" d="m7 39h4v10c0 .5522847-.4477153 1-1 1h-2c-.55228475 0-1-.4477153-1-1z" fill="#95a5a5"/><path id="Shape" d="m48 39h2c.5522847 0 1 .4477153 1 1v10h-4v-10c0-.5522847.4477153-1 1-1z" fill="#95a5a5" transform="matrix(-1 0 0 -1 98 89)"/><path id="Shape" d="m54 35v2.978c-.0038403 1.1029749-.8970251 1.9961597-2 2h-46c-1.10297489-.0038403-1.99615971-.8970251-2-2v-2.978z" fill="#bdc3c7"/></g></svg>