<svg height="512pt" viewBox="0 0 512.00455 512" width="512pt" xmlns="http://www.w3.org/2000/svg"><path d="m225.632812 425.222656c0 43.132813-34.96875 78.101563-78.101562 78.101563-43.136719 0-78.101562-34.96875-78.101562-78.101563 0-43.132812 34.964843-78.101562 78.101562-78.101562 43.132812 0 78.101562 34.96875 78.101562 78.101562zm0 0" fill="#c03a2b"/><path d="m433.902344 425.222656c0 43.132813-34.96875 78.101563-78.101563 78.101563-43.132812 0-78.101562-34.96875-78.101562-78.101563 0-43.132812 34.96875-78.101562 78.101562-78.101562 43.132813 0 78.101563 34.96875 78.101563 78.101562zm0 0" fill="#24ae5f"/><path d="m425.226562 338.441406c-4.792968 0-8.679687-3.882812-8.679687-8.675781 0-23.144531 15.390625-33.8125 27.761719-42.382813 9.988281-6.914062 15.628906-11.175781 15.628906-18.363281 0-4.792969 3.882812-8.679687 8.675781-8.679687s8.679688 3.886718 8.679688 8.679687c0 16.625-12.273438 25.125-23.101563 32.628907-10.882812 7.550781-20.289062 14.058593-20.289062 28.117187 0 4.792969-3.882813 8.675781-8.675782 8.675781zm0 0"/><path d="m469.433594 148.359375c-46.804688 0-80.265625-11.507813-111.859375-38.492187-3.648438-3.113282-4.078125-8.589844-.96875-12.238282 3.113281-3.644531 8.59375-4.078125 12.238281-.964844 19.882812 16.984376 47.382812 34.339844 100.585938 34.339844 4.792968 0 8.675781 3.882813 8.675781 8.675782 0 4.792968-3.882813 8.679687-8.675781 8.679687zm0 0" fill="#24ae5f"/><path d="m425.226562 338.441406c-4.792968 0-8.679687-3.882812-8.679687-8.675781 0-23.144531 15.390625-33.8125 27.761719-42.382813 9.988281-6.914062 15.628906-11.175781 15.628906-18.363281 0-4.792969 3.882812-8.679687 8.675781-8.679687s8.679688 3.886718 8.679688 8.679687c0 16.625-12.273438 25.125-23.101563 32.628907-10.882812 7.550781-20.289062 14.058593-20.289062 28.117187 0 4.792969-3.882813 8.675781-8.675782 8.675781zm0 0" fill="#24ae5f"/><path d="m43.394531 138.851562c-4.792969 0-8.679687-3.886718-8.679687-8.679687s3.886718-8.679687 8.679687-8.679687c53.203125 0 80.703125-17.355469 100.585938-34.335938 2.355469-2.015625 5.609375-2.617188 8.535156-1.582031 2.921875 1.035156 5.070313 3.550781 5.636719 6.601562s-.539063 6.167969-2.898438 8.183594c-31.597656 26.980469-65.054687 38.492187-111.859375 38.492187zm0 0" fill="#c03a2b"/><path d="m485.96875 512.003906c-4.828125.015625-8.773438-3.851562-8.851562-8.679687-.039063-2.285157.835937-4.488281 2.4375-6.121094 1.597656-1.632813 3.785156-2.550781 6.070312-2.558594 2.972656.085938 5.792969-1.324219 7.507812-3.761719 1.734376-2.613281 4.742188-4.089843 7.871094-3.855468 3.128906.230468 5.890625 2.132812 7.21875 4.972656 1.332032 2.84375 1.023438 6.179688-.800781 8.730469-4.859375 7.058593-12.882813 11.277343-21.453125 11.273437zm-17.355469-24.753906c-4.792969 0-8.675781-3.886719-8.675781-8.679688v-17.160156c0-4.792968 3.882812-8.679687 8.675781-8.679687s8.679688 3.886719 8.679688 8.679687v17.160156c0 4.792969-3.886719 8.679688-8.679688 8.679688zm34.714844-16.46875c-4.792969 0-8.679687-3.882812-8.679687-8.675781v-17.164063c0-4.789062 3.886718-8.675781 8.679687-8.675781s8.675781 3.886719 8.675781 8.675781v17.164063c0 4.792969-3.882812 8.675781-8.675781 8.675781zm-34.714844-35.023438c-4.792969 0-8.675781-3.886718-8.675781-8.679687v-17.160156c0-4.792969 3.882812-8.679688 8.675781-8.679688s8.679688 3.886719 8.679688 8.679688v17.160156c0 4.792969-3.886719 8.679687-8.679688 8.679687zm34.714844-16.457031c-4.792969 0-8.679687-3.886719-8.679687-8.679687v-17.167969c0-4.792969 3.886718-8.679687 8.679687-8.679687s8.675781 3.886718 8.675781 8.679687v17.167969c0 4.792968-3.882812 8.679687-8.675781 8.679687zm-34.714844-35.027343c-2.300781 0-4.507812-.914063-6.136719-2.539063-1.628906-1.628906-2.542968-3.835937-2.539062-6.140625v-17.160156c0-4.792969 3.882812-8.675782 8.675781-8.675782s8.679688 3.882813 8.679688 8.675782v17.160156c0 2.304688-.914063 4.511719-2.539063 6.140625-1.628906 1.625-3.835937 2.539063-6.140625 2.539063zm34.714844-16.464844c-4.792969 0-8.679687-3.886719-8.679687-8.679688v-17.160156c0-4.792969 3.886718-8.679688 8.679687-8.679688s8.675781 3.886719 8.675781 8.679688v17.160156c0 4.792969-3.882812 8.679688-8.675781 8.679688zm-34.714844-35.019532c-2.300781.003907-4.507812-.910156-6.136719-2.539062-1.628906-1.628906-2.542968-3.835938-2.539062-6.136719v-17.160156c0-4.792969 3.882812-8.679687 8.675781-8.679687s8.679688 3.886718 8.679688 8.679687v17.160156c0 2.300781-.914063 4.507813-2.539063 6.136719-1.628906 1.628906-3.835937 2.542969-6.140625 2.539062zm34.714844-16.464843c-4.792969 0-8.679687-3.886719-8.679687-8.675781v-17.164063c0-4.792969 3.886718-8.675781 8.679687-8.675781s8.675781 3.882812 8.675781 8.675781v17.164063c0 4.789062-3.882812 8.675781-8.675781 8.675781zm-34.714844-35.027344c-2.300781.003906-4.507812-.910156-6.136719-2.539063-1.628906-1.628906-2.542968-3.835937-2.539062-6.136718v-3.601563c.027344-3.933593-.335938-7.859375-1.09375-11.722656-.703125-3.070313.308594-6.28125 2.652344-8.386719 2.339844-2.109375 5.640625-2.78125 8.621094-1.761718 2.976562 1.023437 5.171874 3.578124 5.726562 6.679687.992188 5 1.480469 10.089844 1.449219 15.191406v3.601563c0 2.300781-.914063 4.507812-2.539063 6.136718-1.628906 1.628907-3.835937 2.542969-6.140625 2.539063zm33.984375-16.429687c-4.394531-.007813-8.089844-3.292969-8.609375-7.652344-.589843-5.132813-1.667969-10.195313-3.222656-15.117188-1.453125-4.570312 1.070313-9.453125 5.636719-10.910156 4.566406-1.453125 9.453125 1.066406 10.90625 5.636719 1.878906 5.976562 3.191406 12.117187 3.917968 18.339843.558594 4.757813-2.835937 9.070313-7.59375 9.644532-.34375.039062-.691406.058594-1.035156.058594zm-52.820312-29.257813c-2.03125.003906-4-.710937-5.554688-2.015625-4.035156-3.292969-8.355468-6.214844-12.910156-8.738281-2.691406-1.535157-4.363281-4.390625-4.382812-7.492188-.015626-3.101562 1.621093-5.976562 4.296874-7.542969 2.675782-1.566406 5.984376-1.585937 8.679688-.050781 5.445312 3.039063 10.613281 6.550781 15.441406 10.5 2.804688 2.34375 3.839844 6.191407 2.59375 9.628907-1.25 3.433593-4.515625 5.71875-8.171875 5.710937zm32.304687-16.964844c-2.460937.003907-4.808593-1.042969-6.449219-2.875-3.511718-3.867187-7.347656-7.429687-11.46875-10.644531-3.765624-2.960938-4.417968-8.417969-1.457031-12.183594 2.964844-3.769531 8.417969-4.421875 12.1875-1.460937 4.898438 3.828125 9.460938 8.070312 13.636719 12.679687 2.289062 2.546875 2.867188 6.203125 1.476562 9.335938-1.394531 3.128906-4.5 5.144531-7.925781 5.148437zm-77.476562-7.472656c-1.082031 0-2.15625-.207031-3.160157-.609375-.421874-.171875-.835937-.367188-1.238281-.582031-4.328125-1.832031-9.601562-4.128907-14.886719-6.597657-2.8125-1.308593-4.707031-4.019531-4.976562-7.109374-.269531-3.089844 1.128906-6.085938 3.667969-7.863282 2.539062-1.777344 5.835937-2.066406 8.644531-.753906 5.136719 2.398438 10.273438 4.625 15.222656 6.78125 4.375 1.890625 6.449219 6.925781 4.675782 11.355469-1.320313 3.234375-4.457032 5.355469-7.949219 5.378906zm35.632812-21.984375c-1.320312.003906-2.621093-.296875-3.804687-.878906-5.113282-2.5-10.246094-4.816406-15.28125-7.019532-4.390625-1.925781-6.386719-7.050781-4.457032-11.441406 1.929688-4.386718 7.050782-6.382812 11.441407-4.457031 5.238281 2.304687 10.59375 4.722656 15.921875 7.324219 3.632812 1.773437 5.558594 5.820312 4.644531 9.753906-.910156 3.9375-4.421875 6.722656-8.460937 6.71875zm-80.964843-2.082031c-1.882813 0-3.710938-.613281-5.214844-1.746094-5.042969-3.757813-9.707032-8.007813-13.921875-12.675781-2.066407-2.3125-2.738281-5.554688-1.769531-8.496094.972656-2.945312 3.441406-5.148438 6.476562-5.78125s6.175781.402344 8.242188 2.71875c3.460937 3.820312 7.28125 7.292969 11.414062 10.371094 2.984375 2.246094 4.195312 6.148437 3.007812 9.6875-1.183593 3.542968-4.5 5.925781-8.234374 5.921875zm34.152343-19.363281c-1.40625 0-2.792969-.34375-4.035156-1-5.570313-2.828126-10.871094-6.15625-15.839844-9.949219-3.765625-2.960938-4.417969-8.417969-1.457031-12.1875 2.964844-3.765625 8.417969-4.417969 12.1875-1.457031 4.144531 3.132812 8.558594 5.890624 13.195312 8.238281 3.53125 1.859375 5.339844 5.890625 4.378907 9.765625-.960938 3.871094-4.4375 6.59375-8.429688 6.589844zm-62.175781-22.367188c-4.113281-.007812-7.65625-2.894531-8.492188-6.921875-1.128906-5.582031-1.6875-11.265625-1.667968-16.960937l-.019532-1.71875c-.03125-2.300782.855469-4.519532 2.460938-6.171876 1.605469-1.648437 3.800781-2.59375 6.101562-2.625 4.765626-.003906 8.667969 3.792969 8.796876 8.558594l.015624 1.957032c-.019531 4.519531.421876 9.023437 1.3125 13.453124.964844 4.691407-2.054687 9.28125-6.746093 10.253907-.578125.117187-1.167969.175781-1.761719.175781zm33.21875-16.269531c-4.765625-.003907-8.640625-3.851563-8.675781-8.621094-.019531-5.289063-.429688-10.574219-1.230469-15.804687-.738281-4.734376 2.503906-9.175782 7.238281-9.914063 4.738281-.742187 9.175781 2.5 9.914063 7.238281.929687 6.078125 1.40625 12.214844 1.433594 18.363282.015624 2.300781-.882813 4.515624-2.5 6.152343-1.617188 1.640625-3.816407 2.570313-6.117188 2.585938zm-44.246094-33.113281c-2.742187.007812-5.320312-1.285157-6.960937-3.480469-2.929688-3.789063-6.460938-7.070313-10.457031-9.714844-3.945313-2.722656-4.933594-8.128906-2.210938-12.074219 2.726562-3.945312 8.132812-4.9375 12.078125-2.210937 5.542969 3.710937 10.441406 8.308593 14.492187 13.609375 1.964844 2.628906 2.277344 6.144531.808594 9.078125-1.46875 2.9375-4.46875 4.789062-7.75 4.792969zm31.277344-15.957032c-2.972656.003906-5.738281-1.515625-7.328125-4.023437-2.738281-4.28125-5.9375-8.246094-9.546875-11.824219-3.296875-3.394531-3.265625-8.808594.070312-12.164062 3.339844-3.359376 8.753907-3.421876 12.167969-.140626 4.523438 4.484376 8.53125 9.453126 11.957031 14.824219 1.699219 2.667969 1.804688 6.050781.285157 8.824219-1.523438 2.773438-4.433594 4.5-7.597657 4.503906zm-38.734375-33.007812c-1.414063 0-2.808594-.34375-4.058594-1.007813-4.058593-2.160156-8.050781-4.101562-11.847656-5.949219-1.195313-.578124-2.363281-1.179687-3.5-1.78125-4.230469-2.25-5.832031-7.507812-3.582031-11.738281 2.253906-4.230469 7.507812-5.835937 11.742187-3.582031.9375.5 1.921875 1 2.921875 1.492188 3.972656 1.929687 8.15625 3.972656 12.398438 6.21875 3.527344 1.867187 5.324218 5.898437 4.359375 9.769531-.96875 3.871093-4.449219 6.585937-8.4375 6.578125zm0 0" fill="#24ae5f"/><path d="m173.5625 459.933594c-2.300781.003906-4.507812-.910156-6.132812-2.542969l-52.070313-52.066406c-3.289063-3.40625-3.242187-8.816407.105469-12.164063s8.761718-3.394531 12.167968-.105468l52.066407 52.066406c2.480469 2.480468 3.222656 6.214844 1.878906 9.457031-1.339844 3.242187-4.503906 5.355469-8.015625 5.355469zm0 0" fill="#fff"/><path d="m121.496094 459.933594c-3.507813 0-6.671875-2.113282-8.015625-5.355469s-.601563-6.976563 1.878906-9.457031l52.070313-52.066406c3.402343-3.289063 8.816406-3.242188 12.164062.105468s3.394531 8.757813.105469 12.164063l-52.066407 52.066406c-1.625 1.632813-3.835937 2.546875-6.136718 2.542969zm0 0" fill="#fff"/><path d="m355.800781 468.613281c-2.300781 0-4.507812-.914062-6.136719-2.542969l-26.03125-26.035156c-3.289062-3.40625-3.242187-8.816406.105469-12.164062 3.347657-3.347656 8.757813-3.394532 12.164063-.105469l18 18 29.078125-50.882813c2.402343-4.105468 7.664062-5.507812 11.792969-3.148437 4.128906 2.359375 5.589843 7.605469 3.273437 11.757813l-34.710937 60.746093c-1.542969 2.707031-4.421876 4.375-7.535157 4.375zm0 0" fill="#fff"/><path d="m401.832031 132.773438c-4.703125.015624-9.375-.734376-13.835937-2.21875-3.019532-.917969-5.300782-3.40625-5.960938-6.492188s.410156-6.285156 2.789063-8.355469c2.378906-2.074219 5.699219-2.691406 8.664062-1.609375 20.558594 6.828125 43.625-15.128906 43.863281-15.347656 3.4375-3.296875 8.890626-3.207031 12.21875.203125 3.324219 3.410156 3.28125 8.863281-.097656 12.21875-1.058594 1.035156-22.445312 21.601563-47.640625 21.601563zm0 0" fill="#24ae5f"/><g fill="#c03a2b"><path d="m110.996094 123.265625c-25.195313 0-46.585938-20.566406-47.636719-21.601563-2.214844-2.167968-3.105469-5.355468-2.339844-8.359374.769531-3.003907 3.082031-5.367188 6.070313-6.203126 2.984375-.835937 6.1875-.015624 8.40625 2.152344.210937.203125 23.238281 22.160156 43.847656 15.328125 2.96875-1.082031 6.289062-.46875 8.671875 1.601563 2.386719 2.074218 3.457031 5.277344 2.792969 8.367187-.660156 3.089844-2.949219 5.574219-5.972656 6.488281-4.464844 1.488282-9.136719 2.238282-13.839844 2.226563zm0 0"/><path d="m165.003906 357.746094h-.195312c-2.300782-.050782-4.488282-1.011719-6.078125-2.675782-1.589844-1.664062-2.457031-3.894531-2.402344-6.195312.074219-3.101562.183594-6.09375.347656-8.957031.066407-2.316407 1.082031-4.503907 2.808594-6.050781 1.726563-1.550782 4.015625-2.320313 6.324219-2.136719 2.296875.125 4.453125 1.15625 5.988281 2.871093 1.535156 1.714844 2.328125 3.96875 2.199219 6.265626-.144532 2.691406-.253906 5.5-.3125 8.398437-.109375 4.714844-3.960938 8.480469-8.679688 8.480469zm0 0"/><path d="m171.386719 312.667969c-2.78125.003906-5.394531-1.328125-7.027344-3.578125s-2.089844-5.144532-1.226563-7.789063c2.078126-6.582031 4.996094-12.871093 8.675782-18.710937 1.671875-2.613282 4.609375-4.136719 7.710937-3.996094 3.097657.140625 5.882813 1.925781 7.3125 4.679688 1.425781 2.753906 1.277344 6.058593-.394531 8.671874-2.894531 4.597657-5.179688 9.550782-6.800781 14.734376-1.164063 3.570312-4.496094 5.988281-8.25 5.988281zm35.304687-40.710938c-3.929687.003907-7.375-2.632812-8.394531-6.425781-1.015625-3.796875.640625-7.804688 4.046875-9.769531 5.117188-2.875 10.085938-6.011719 14.890625-9.390625 3.890625-2.714844 9.238281-1.800782 12.011719 2.050781 2.769531 3.851563 1.933594 9.214844-1.878906 12.039063-5.269532 3.71875-10.726563 7.171874-16.347657 10.339843-1.316406.757813-2.808593 1.160157-4.328125 1.160157zm0 0"/><path d="m135.292969 313.710938c-.65625 0-1.308594-.074219-1.949219-.21875-2.242188-.515626-4.191406-1.898438-5.414062-3.851563-1.222657-1.949219-1.617188-4.304687-1.101563-6.546875 1.390625-6.113281 3.175781-12.128906 5.347656-18.011719 1.671875-4.492187 6.667969-6.78125 11.160157-5.109375 4.492187 1.671875 6.78125 6.667969 5.109374 11.160156-1.910156 5.171876-3.480468 10.464844-4.703124 15.839844-.90625 3.9375-4.40625 6.730469-8.449219 6.738282zm22.6875-47.3125c-3.394531-.003907-6.476563-1.980469-7.886719-5.066407-1.414062-3.085937-.898438-6.714843 1.320312-9.28125 4.199219-4.863281 8.839844-9.320312 13.871094-13.316406 3.742188-2.996094 9.207032-2.390625 12.203125 1.355469 2.996094 3.742187 2.386719 9.207031-1.355469 12.203125-4.199218 3.332031-8.078124 7.050781-11.585937 11.101562-1.644531 1.914063-4.042969 3.011719-6.566406 3.003907zm42.355469-31.40625c-3.785157 0-7.136719-2.453126-8.277344-6.0625-1.140625-3.609376.1875-7.542969 3.285156-9.71875 4.21875-2.890626 8.015625-6.347657 11.28125-10.28125 1.960938-2.429688 5.070312-3.621094 8.152344-3.117188 3.078125.5 5.652344 2.613281 6.742187 5.539062 1.085938 2.925782.519531 6.210938-1.484375 8.601563-4.273437 5.136719-9.222656 9.667969-14.722656 13.464844-1.457031 1.027343-3.195312 1.578125-4.976562 1.574219zm27.945312-43.566407c-2.683594.003907-5.21875-1.234375-6.863281-3.351562-1.648438-2.117188-2.222657-4.878907-1.554688-7.476563 1.355469-5.40625 2.417969-10.882812 3.183594-16.402344.722656-4.699218 5.09375-7.941406 9.796875-7.273437 4.707031.667969 8 5 7.386719 9.714844-.851563 6.144531-2.039063 12.242187-3.558594 18.261719-.976563 3.839843-4.433594 6.53125-8.394531 6.539062zm0 0"/><path d="m130.316406 357.671875h-.171875c-4.792969-.097656-8.597656-4.058594-8.503906-8.851563.058594-3.058593.175781-6.042968.320313-8.949218.246093-4.789063 4.324218-8.472656 9.113281-8.230469 4.785156.246094 8.472656 4.324219 8.226562 9.113281-.144531 2.734375-.246093 5.53125-.304687 8.40625-.089844 4.726563-3.949219 8.511719-8.679688 8.511719zm0 0"/></g><path d="m316.496094 234.65625c-24.414063-14.027344-47.472656-27.28125-47.472656-113.164062v-121.48828175h-28.578126c-3.449218.01953125-6.5625 2.07812475-7.921874 5.24999975-6.527344 12.183594-17.074219 21.730469-29.847657 27.011719-26.933593 13.132813-63.824219 31.136719-63.824219 89.226563 0 24.519531-19.433593 34.152343-53.769531 49.070312-37.898437 16.457031-85.07812475 36.949219-85.07812475 98.457031v216.019531c-.19531225 8.71875 5.89062475 16.324219 14.44140575 18.050782 5.039063.851562 10.203126-.558594 14.109376-3.855469 3.90625-3.300781 6.160156-8.152344 6.160156-13.265625v-216.949219c0-36.863281 24.398437-49.332031 64.195312-66.628906 33.265625-14.4375 74.652344-32.421875 74.652344-80.898437 0-36.40625 19.570312-45.949219 44.332031-58.03125 5.3125-2.59375 10.925781-5.347657 16.414063-8.515626v66.546876c0 67.261718 17.355468 97.484374 17.355468 97.484374 10.46875 20.007813 27.152344 36.070313 47.542969 45.769532 21.898438 12.589844 37.910157 29.894531 39.121094 84.351562 11.410156-2.621094 23.265625-2.636718 34.6875-.054687-1.480469-68.980469-25.425781-96.527344-56.519531-114.386719zm0 0" fill="#ff5364"/></svg>