<svg height="512pt" viewBox="0 0 512 512.0003" width="512pt" xmlns="http://www.w3.org/2000/svg"><path d="m416.542969 303.730469h69.421875v34.710937h-69.421875zm0 0" fill="#3f5c6c"/><path d="m158.945312 78.101562h-124.234374v-69.421874h124.234374c2.054688 0 3.960938 1.0625 5.042969 2.8125 1.082031 1.746093 1.179688 3.929687.257813 5.769531l-13.726563 21.449219c-1.824219 2.851562-1.824219 6.503906 0 9.355468l13.726563 21.453125c.921875 1.839844.824218 4.023438-.257813 5.769531-1.082031 1.75-2.988281 2.8125-5.042969 2.8125zm0 0" fill="#e64c3c"/><path d="m34.710938 173.558594c-4.792969 0-8.675782-3.882813-8.675782-8.675782v-156.203124c0-4.792969 3.882813-8.679688 8.675782-8.679688 4.792968 0 8.679687 3.886719 8.679687 8.679688v156.203124c0 4.792969-3.886719 8.675782-8.679687 8.675782zm0 0" fill="#cb8252"/><path d="m17.355469 164.882812h34.710937c9.585938 0 17.359375 7.769532 17.359375 17.355469v86.777344h-69.425781v-86.777344c0-9.585937 7.769531-17.355469 17.355469-17.355469zm0 0" fill="#cc66a1"/><path d="m0 251.660156h95.457031c9.585938 0 17.355469 7.773438 17.355469 17.355469v86.78125h-112.8125zm0 0" fill="#955ba5"/><path d="m0 338.441406h130.167969c9.585937 0 17.359375 7.769532 17.359375 17.355469v86.78125h-147.527344zm0 0" fill="#894b9d"/><path d="m347.117188 477.289062c-22.039063-.039062-41.671876-13.9375-49.027344-34.710937l-20.394532-17.359375-15.605468 17.359375c2.585937 12.59375 7.957031 24.453125 15.710937 34.710937l34.605469 17.355469zm0 0" fill="#95a5a5"/><path d="m373.152344 173.558594h-26.035156v34.714844h26.035156c14.378906 0 26.035156 11.652343 26.035156 26.03125v190.914062c-.03125 28.746094-23.324219 52.039062-52.070312 52.070312h69.257812c11.363281-14.980468 17.515625-33.265624 17.523438-52.070312v-190.914062c0-33.546876-27.195313-60.746094-60.746094-60.746094zm0 0" fill="#95a5a5"/><path d="m312.40625 138.847656h34.710938c9.585937 0 17.359374 7.769532 17.359374 17.355469v69.425781c0 9.582032-7.773437 17.355469-17.359374 17.355469h-34.710938zm0 0" fill="#67b9cc"/><path d="m251.660156 303.730469h52.070313v60.746093c0 4.792969-3.886719 8.675782-8.679688 8.675782h-34.710937c-4.792969 0-8.679688-3.882813-8.679688-8.675782zm0 0" fill="#67b9cc"/><path d="m251.660156 8.679688h52.070313c4.792969 0 8.675781 3.882812 8.675781 8.675781v60.746093h-69.421875v-60.746093c0-4.792969 3.882813-8.675781 8.675781-8.675781zm0 0" fill="#67b9cc"/><path d="m234.304688 60.746094h86.78125c4.792968 0 8.675781 3.886718 8.675781 8.679687v242.980469c0 4.792969-3.882813 8.679688-8.675781 8.679688h-86.78125c-4.792969 0-8.675782-3.886719-8.675782-8.679688v-242.980469c0-4.792969 3.882813-8.679687 8.675782-8.679687zm0 0" fill="#41767f"/><path d="m225.628906 407.863281h104.132813c4.792969 0 8.679687 3.886719 8.679687 8.679688v17.355469c0 4.792968-3.886718 8.679687-8.679687 8.679687h-104.132813c-4.792968 0-8.679687-3.886719-8.679687-8.679687v-17.355469c0-4.792969 3.886719-8.679688 8.679687-8.679688zm0 0" fill="#41767f"/><path d="m251.660156 477.289062h190.917969c4.789063 0 8.675781 3.882813 8.675781 8.675782v17.359375c0 4.789062-3.886718 8.675781-8.675781 8.675781h-190.917969c-4.792968 0-8.675781-3.886719-8.675781-8.675781v-17.359375c0-4.792969 3.882813-8.675782 8.675781-8.675782zm0 0" fill="#67b9cc"/><path d="m225.628906 260.339844h104.132813v17.355468h-104.132813zm0 0" fill="#3f5c6c"/><path d="m485.964844 277.695312c9.585937 0 17.355468 7.769532 17.355468 17.355469v52.066407c0 9.585937-7.769531 17.359374-17.355468 17.359374-9.585938 0-17.355469-7.773437-17.355469-17.359374v-52.066407c0-9.585937 7.769531-17.355469 17.355469-17.355469zm0 0" fill="#67b9cc"/><path d="m0 425.21875h164.882812c9.585938 0 17.355469 7.773438 17.355469 17.359375v52.066406c0 9.585938-7.769531 17.355469-17.355469 17.355469h-147.527343c-9.585938 0-17.355469-7.769531-17.355469-17.355469zm0 0" fill="#3d324c"/><g fill="#955ba5"><path d="m485.964844 121.492188c-4.792969 0-8.675782-3.886719-8.675782-8.679688v-34.710938c0-4.792968 3.882813-8.675781 8.675782-8.675781 4.792968 0 8.679687 3.882813 8.679687 8.675781v34.710938c0 4.792969-3.886719 8.679688-8.679687 8.679688zm0 0"/><path d="m485.964844 52.066406c-4.792969 0-8.675782-3.882812-8.675782-8.675781v-34.710937c0-4.792969 3.882813-8.679688 8.675782-8.679688 4.792968 0 8.679687 3.886719 8.679687 8.679688v34.710937c0 4.792969-3.886719 8.675781-8.679687 8.675781zm0 0"/><path d="m503.320312 34.710938c-2.300781.003906-4.507812-.910157-6.132812-2.542969l-11.222656-11.21875-11.21875 11.21875c-3.40625 3.289062-8.816406 3.242187-12.164063-.105469-3.347656-3.347656-3.394531-8.757812-.105469-12.164062l17.355469-17.355469c1.625-1.628907 3.832031-2.542969 6.132813-2.542969 2.304687 0 4.511718.914062 6.136718 2.542969l17.355469 17.355469c2.480469 2.480468 3.222657 6.214843 1.878907 9.457031-1.339844 3.242187-4.503907 5.355469-8.015626 5.355469zm0 0"/><path d="m156.203125 251.660156c-4.792969 0-8.675781-3.882812-8.675781-8.675781v-17.355469c0-4.792968 3.882812-8.679687 8.675781-8.679687s8.679687 3.886719 8.679687 8.679687v17.355469c0 4.792969-3.886718 8.675781-8.679687 8.675781zm0 0"/><path d="m156.203125 199.59375c-4.792969 0-8.675781-3.886719-8.675781-8.679688v-60.746093c0-4.789063 3.882812-8.675781 8.675781-8.675781s8.679687 3.886718 8.679687 8.675781v60.746093c0 4.792969-3.886718 8.679688-8.679687 8.679688zm0 0"/><path d="m173.558594 156.203125c-2.300782.003906-4.507813-.910156-6.132813-2.542969l-11.222656-11.21875-11.21875 11.21875c-3.40625 3.289063-8.820313 3.242188-12.167969-.105468-3.347656-3.347657-3.394531-8.757813-.105468-12.164063l17.355468-17.355469c1.628906-1.628906 3.835938-2.542968 6.136719-2.542968s4.507813.914062 6.136719 2.542968l17.355468 17.355469c2.480469 2.480469 3.222657 6.214844 1.878907 9.457031-1.34375 3.242188-4.503907 5.355469-8.015625 5.355469zm0 0"/></g></svg>