<svg height="512pt" viewBox="0 0 512 512" width="512pt" xmlns="http://www.w3.org/2000/svg"><path d="m273.65625 353.101562h150.066406v-256h-203.03125l26.480469 238.347657zm0 0" fill="#547580"/><path d="m423.722656 0h-406.066406c-9.75 0-17.65625 7.90625-17.65625 17.65625v317.792969c0 9.75 7.90625 17.652343 17.65625 17.652343h143.535156c4.214844.003907 8.289063 1.507813 11.492188 4.25l56.832031 48.71875v-35.3125c0-9.75 7.90625-17.65625 17.65625-17.65625h26.484375v-35.308593h-8.828125c-4.875 0-8.828125-3.953125-8.828125-8.828125v-150.066406c0-4.878907 3.953125-8.828126 8.828125-8.828126h8.828125v-26.484374c0-4.875 3.949219-8.828126 8.828125-8.828126h35.308594c4.875 0 8.828125 3.953126 8.828125 8.828126v26.484374h8.828125c4.875 0 8.828125 3.949219 8.828125 8.828126v44.136718h44.136718c29.25 0 52.964844 23.710938 52.964844 52.964844v-238.34375c0-9.75-7.902344-17.65625-17.65625-17.65625zm0 0" fill="#547580"/><path d="m441.378906 17.65625c0-9.75-7.902344-17.65625-17.65625-17.65625h-406.066406c-9.75 0-17.65625 7.90625-17.65625 17.65625v52.964844h441.378906zm0 0" fill="#90bae1"/><path d="m44.136719 35.308594c0 4.878906-3.949219 8.828125-8.828125 8.828125-4.875 0-8.824219-3.949219-8.824219-8.828125 0-4.875 3.949219-8.824219 8.824219-8.824219 4.878906 0 8.828125 3.949219 8.828125 8.824219zm0 0" fill="#ff5364"/><path d="m176.550781 317.792969c0 4.875-3.953125 8.828125-8.828125 8.828125s-8.824218-3.953125-8.824218-8.828125 3.949218-8.828125 8.824218-8.828125 8.828125 3.953125 8.828125 8.828125zm0 0" fill="#2c3e50"/><path d="m211.863281 317.792969c0 4.875-3.953125 8.828125-8.828125 8.828125s-8.828125-3.953125-8.828125-8.828125 3.953125-8.828125 8.828125-8.828125 8.828125 3.953125 8.828125 8.828125zm0 0" fill="#2c3e50"/><path d="m79.449219 35.308594c0 4.878906-3.953125 8.828125-8.828125 8.828125s-8.828125-3.949219-8.828125-8.828125c0-4.875 3.953125-8.824219 8.828125-8.824219s8.828125 3.949219 8.828125 8.824219zm0 0" fill="#f0c419"/><path d="m114.757812 35.308594c0 4.878906-3.953124 8.828125-8.828124 8.828125s-8.828126-3.949219-8.828126-8.828125c0-4.875 3.953126-8.824219 8.828126-8.824219s8.828124 3.949219 8.828124 8.824219zm0 0" fill="#24ae5f"/><path d="m114.757812 194.207031c-3.34375 0-6.398437-1.886719-7.894531-4.878906l-18.585937-37.171875-18.589844 37.171875c-1.65625 2.78125-4.65625 4.488281-7.894531 4.488281s-6.238281-1.707031-7.894531-4.488281l-26.484376-52.964844c-2.179687-4.363281-.414062-9.664062 3.949219-11.847656 4.359375-2.179687 9.664063-.410156 11.84375 3.949219l18.585938 37.171875 18.585937-37.171875c1.660156-2.78125 4.65625-4.488282 7.898438-4.488282 3.238281 0 6.238281 1.707032 7.894531 4.488282l18.585937 37.171875 18.585938-37.171875c1.410156-2.820313 4.21875-4.675782 7.367188-4.863282 3.148437-.1875 6.160156 1.316407 7.898437 3.949219 1.738281 2.632813 1.9375 5.992188.527344 8.8125l-26.480469 52.964844c-1.496094 2.992187-4.554688 4.878906-7.898438 4.878906zm0 0" fill="#fff"/><path d="m176.550781 211.863281c-4.875 0-8.828125-3.953125-8.828125-8.828125v-97.105468c0-4.875 3.953125-8.828126 8.828125-8.828126s8.828125 3.953126 8.828125 8.828126v97.105468c0 4.875-3.953125 8.828125-8.828125 8.828125zm0 0" fill="#ff5364"/><path d="m123.585938 264.828125c0 24.375-19.761719 44.136719-44.136719 44.136719-24.378907 0-44.140625-19.761719-44.140625-44.136719 0-24.378906 19.761718-44.136719 44.140625-44.136719 24.375 0 44.136719 19.757813 44.136719 44.136719zm0 0" fill="#b0d3f0"/><g fill="#2c3e50"><path d="m79.449219 317.792969c-29.253907 0-52.964844-23.714844-52.964844-52.964844 0-29.253906 23.710937-52.964844 52.964844-52.964844 29.25 0 52.964843 23.710938 52.964843 52.964844-.03125 29.238281-23.726562 52.933594-52.964843 52.964844zm0-88.277344c-19.503907 0-35.3125 15.8125-35.3125 35.3125s15.808593 35.308594 35.3125 35.308594c19.5 0 35.308593-15.808594 35.308593-35.308594-.019531-19.492187-15.816406-35.292969-35.308593-35.3125zm0 0"/><path d="m132.414062 326.621094c-2.34375.003906-4.589843-.929688-6.242187-2.585938l-21.757813-21.757812c-3.375-3.460938-3.339843-8.988282.078126-12.40625 3.417968-3.417969 8.945312-3.453125 12.40625-.078125l21.757812 21.757812c2.523438 2.527344 3.277344 6.320313 1.910156 9.621094-1.363281 3.296875-4.582031 5.449219-8.152344 5.449219zm0 0"/><path d="m238.34375 406.070312h123.585938c4.875 0 8.828124 3.949219 8.828124 8.828126v17.652343c0 4.875-3.953124 8.828125-8.828124 8.828125h-123.585938c-4.875 0-8.828125-3.953125-8.828125-8.828125v-17.652343c0-4.878907 3.953125-8.828126 8.828125-8.828126zm0 0"/><path d="m282.484375 114.757812h35.308594c4.875 0 8.828125 3.953126 8.828125 8.828126v44.136718h-52.964844v-44.136718c0-4.875 3.949219-8.828126 8.828125-8.828126zm0 0"/></g><path d="m264.828125 150.070312h70.621094c4.875 0 8.828125 3.949219 8.828125 8.828126v150.066406c0 4.875-3.953125 8.828125-8.828125 8.828125h-70.621094c-4.875 0-8.828125-3.953125-8.828125-8.828125v-150.066406c0-4.878907 3.953125-8.828126 8.828125-8.828126zm0 0" fill="#35495e"/><path d="m273.65625 317.792969h52.964844v44.136719c0 4.875-3.953125 8.828124-8.828125 8.828124h-35.308594c-4.878906 0-8.828125-3.953124-8.828125-8.828124zm0 0" fill="#2c3e50"/><path d="m256 273.65625h88.277344v17.652344h-88.277344zm0 0" fill="#3f5c6c"/><path d="m273.65625 476.691406h176.550781c9.75 0 17.65625 7.902344 17.65625 17.652344s-7.90625 17.65625-17.65625 17.65625h-176.550781c-9.75 0-17.65625-7.90625-17.65625-17.65625s7.90625-17.652344 17.65625-17.652344zm0 0" fill="#2c3e50"/><path d="m361.929688 476.691406c-20.960938-.03125-39.023438-14.777344-43.242188-35.3125h-35.683594c1.421875 12.644532 5.878906 24.761719 12.992188 35.3125zm0 0" fill="#464f5d"/><path d="m388.414062 203.035156h-44.136718v35.308594h44.136718c9.75 0 17.65625 7.90625 17.65625 17.65625v176.550781c-.03125 24.367188-19.773437 44.109375-44.140624 44.140625h66.015624c8.769532-13.050781 13.449219-28.417968 13.433594-44.140625v-176.550781c0-29.253906-23.714844-52.964844-52.964844-52.964844zm0 0" fill="#464f5d"/><path d="m441.378906 326.621094h35.3125v35.308594h-35.3125zm0 0" fill="#3f5c6c"/><path d="m494.34375 291.308594c9.75 0 17.65625 7.90625 17.65625 17.65625v70.621094c0 9.75-7.90625 17.65625-17.65625 17.65625s-17.652344-7.90625-17.652344-17.65625v-70.621094c0-9.75 7.902344-17.65625 17.652344-17.65625zm0 0" fill="#2c3e50"/></svg>