<svg height="512pt" viewBox="0 -4 512 511" width="512pt" xmlns="http://www.w3.org/2000/svg"><path d="m8.535156 350.367188h85.332032v145.066406h-85.332032zm0 0" fill="#2980ba"/><path d="m145.066406 26.101562h85.332032v469.332032h-85.332032zm0 0" fill="#24ae5f"/><path d="m281.601562 222.367188h85.332032v273.066406h-85.332032zm0 0" fill="#804169"/><path d="m409.601562.5h85.332032c4.710937 0 8.53125 3.820312 8.53125 8.535156v477.863282c0 4.714843-3.820313 8.535156-8.53125 8.535156h-85.332032c-4.714843 0-8.535156-3.820313-8.535156-8.535156v-477.863282c0-4.714844 3.820313-8.535156 8.535156-8.535156zm0 0" fill="#f3d55b"/><g fill="#b19046"><path d="m435.199219 43.167969c-.011719 4.707031-3.824219 8.519531-8.53125 8.53125h-25.601563v-17.066407h25.601563c4.707031.015626 8.519531 3.828126 8.53125 8.535157zm0 0"/><path d="m435.199219 77.300781c-.011719 4.707031-3.824219 8.519531-8.53125 8.53125h-25.601563v-17.066406h25.601563c4.707031.015625 8.519531 3.828125 8.53125 8.535156zm0 0"/><path d="m469.332031 111.433594c-.011719 4.707031-3.824219 8.519531-8.53125 8.53125h-59.734375v-17.066406h59.734375c4.707031.015624 8.519531 3.828124 8.53125 8.535156zm0 0"/><path d="m435.199219 145.566406c-.011719 4.707032-3.824219 8.519532-8.53125 8.535156h-25.601563v-17.066406h25.601563c4.707031.011719 8.519531 3.824219 8.53125 8.53125zm0 0"/><path d="m435.199219 179.699219c-.011719 4.707031-3.824219 8.519531-8.53125 8.535156h-25.601563v-17.066406h25.601563c4.707031.011719 8.519531 3.824219 8.53125 8.53125zm0 0"/><path d="m435.199219 213.832031c-.011719 4.707031-3.824219 8.519531-8.53125 8.535157h-25.601563v-17.066407h25.601563c4.707031.011719 8.519531 3.824219 8.53125 8.53125zm0 0"/><path d="m469.332031 247.964844c-.011719 4.710937-3.824219 8.523437-8.53125 8.535156h-59.734375v-17.066406h59.734375c4.707031.011718 8.519531 3.824218 8.53125 8.53125zm0 0"/><path d="m435.199219 282.101562c-.011719 4.707032-3.824219 8.519532-8.53125 8.53125h-25.601563v-17.066406h25.601563c4.707031.015625 8.519531 3.828125 8.53125 8.535156zm0 0"/><path d="m435.199219 316.234375c-.011719 4.707031-3.824219 8.519531-8.53125 8.53125h-25.601563v-17.066406h25.601563c4.707031.015625 8.519531 3.828125 8.53125 8.535156zm0 0"/><path d="m435.199219 350.367188c-.011719 4.707031-3.824219 8.519531-8.53125 8.53125h-25.601563v-17.066407h25.601563c4.707031.015625 8.519531 3.828125 8.53125 8.535157zm0 0"/><path d="m469.332031 384.5c-.011719 4.707031-3.824219 8.519531-8.53125 8.535156h-59.734375v-17.070312h59.734375c4.707031.015625 8.519531 3.828125 8.53125 8.535156zm0 0"/><path d="m435.199219 418.632812c-.011719 4.707032-3.824219 8.519532-8.53125 8.535157h-25.601563v-17.066407h25.601563c4.707031.011719 8.519531 3.824219 8.53125 8.53125zm0 0"/><path d="m435.199219 452.765625c-.011719 4.707031-3.824219 8.519531-8.53125 8.535156h-25.601563v-17.066406h25.601563c4.707031.011719 8.519531 3.824219 8.53125 8.53125zm0 0"/></g><path d="m93.867188 265.035156v128h-85.332032v-128c.011719-4.710937 3.824219-8.523437 8.53125-8.535156h68.265625c4.707031.011719 8.519531 3.824219 8.535157 8.535156zm0 0" fill="#3b97d3"/><path d="m230.398438 9.035156v42.664063h-85.332032v-42.664063c.015625-4.710937 3.828125-8.523437 8.535156-8.535156h68.265626c4.707031.011719 8.519531 3.824219 8.53125 8.535156zm0 0" fill="#71c285"/><path d="m366.933594 171.167969v76.796875h-85.332032v-76.796875c.011719-4.707031 3.824219-8.519531 8.53125-8.535157h68.265626c4.707031.015626 8.519531 3.828126 8.535156 8.535157zm0 0" fill="#ff5364"/><path d="m324.265625 137.035156c-4.710937 0-8.53125-3.824218-8.53125-8.535156v-68.265625c0-4.714844 3.820313-8.535156 8.53125-8.535156 4.714844 0 8.535156 3.820312 8.535156 8.535156v68.265625c0 4.710938-3.820312 8.535156-8.535156 8.535156zm0 0" fill="#e64c3c"/><path d="m349.867188 94.367188c-2.265626.003906-4.433594-.898438-6.035157-2.5l-19.566406-19.566407-19.566406 19.566407c-3.347657 3.234374-8.671875 3.1875-11.960938-.105469-3.292969-3.289063-3.339843-8.613281-.105469-11.960938l25.601563-25.601562c1.597656-1.601563 3.769531-2.5 6.03125-2.5 2.265625 0 4.433594.898437 6.035156 2.5l25.597657 25.601562c2.441406 2.441407 3.171874 6.109375 1.851562 9.296875s-4.433594 5.269532-7.882812 5.269532zm0 0" fill="#e64c3c"/><path d="m51.199219 230.898438c-4.710938 0-8.53125-3.820313-8.53125-8.53125v-68.265626c0-4.714843 3.820312-8.535156 8.53125-8.535156 4.714843 0 8.535156 3.820313 8.535156 8.535156v68.265626c0 4.710937-3.820313 8.53125-8.535156 8.53125zm0 0" fill="#e64c3c"/><path d="m51.199219 230.898438c-2.261719.003906-4.433594-.894532-6.03125-2.5l-25.601563-25.597657c-3.234375-3.347656-3.1875-8.671875.105469-11.964843 3.289063-3.289063 8.613281-3.335938 11.960937-.101563l19.566407 19.566406 19.566406-19.566406c3.347656-3.234375 8.671875-3.1875 11.964844.101563 3.289062 3.292968 3.335937 8.617187.101562 11.964843l-25.597656 25.597657c-1.597656 1.605468-3.769531 2.503906-6.035156 2.5zm0 0" fill="#e64c3c"/><path d="m503.464844 503.964844h-494.929688c-4.714844 0-8.535156-3.820313-8.535156-8.53125 0-4.714844 3.820312-8.535156 8.535156-8.535156h494.929688c4.714844 0 8.535156 3.820312 8.535156 8.535156 0 4.710937-3.820312 8.53125-8.535156 8.53125zm0 0" fill="#464f5d"/></svg>