<svg height="512pt" viewBox="0 0 512 512.00002" width="512pt" xmlns="http://www.w3.org/2000/svg"><path d="m326.347656 477.867188h-155.195312c-4.710938 0-8.53125-3.820313-8.53125-8.535157 0-4.710937 3.820312-8.53125 8.53125-8.53125h155.195312c4.710938 0 8.53125 3.820313 8.53125 8.53125 0 4.714844-3.820312 8.535157-8.53125 8.535157zm0 0" fill="#f3d55b"/><path d="m309.730469 443.734375h-125.304688c-4.714843 0-8.535156-3.820313-8.535156-8.535156 0-4.710938 3.820313-8.53125 8.535156-8.53125h125.304688c4.710937 0 8.53125 3.820312 8.53125 8.53125 0 4.714843-3.820313 8.535156-8.53125 8.535156zm0 0" fill="#f0c419"/><path d="m297.472656 409.601562h-102.710937c-4.710938 0-8.53125-3.820312-8.53125-8.535156 0-4.710937 3.820312-8.53125 8.53125-8.53125h102.710937c4.710938 0 8.53125 3.820313 8.53125 8.53125 0 4.714844-3.820312 8.535156-8.53125 8.535156zm0 0" fill="#f3d55b"/><path d="m288.078125 375.464844h-82.570313c-4.710937 0-8.53125-3.820313-8.53125-8.53125 0-4.714844 3.820313-8.535156 8.53125-8.535156h82.570313c4.714844 0 8.535156 3.820312 8.535156 8.535156 0 4.710937-3.820312 8.53125-8.535156 8.53125zm0 0" fill="#f0c419"/><path d="m280.839844 341.332031h-64.253906c-4.714844 0-8.535157-3.820312-8.535157-8.53125 0-4.714843 3.820313-8.535156 8.535157-8.535156h64.253906c4.714844 0 8.535156 3.820313 8.535156 8.535156 0 4.710938-3.820312 8.53125-8.535156 8.53125zm0 0" fill="#f3d55b"/><path d="m274.640625 307.199219h-44.46875c-4.714844 0-8.535156-3.820313-8.535156-8.53125 0-4.714844 3.820312-8.535157 8.535156-8.535157h44.46875c4.714844 0 8.535156 3.820313 8.535156 8.535157 0 4.710937-3.820312 8.53125-8.535156 8.53125zm0 0" fill="#f0c419"/><path d="m8.535156 512c-3.3125 0-6.324218-1.917969-7.730468-4.917969-1.402344-3-.941407-6.539062 1.179687-9.082031 60.464844-72.558594 72.5625-188.757812 83.230469-291.285156 11.539062-110.914063 21.511718-206.714844 93.984375-206.714844 4.714843 0 8.535156 3.820312 8.535156 8.535156 0 4.710938-3.820313 8.53125-8.535156 8.53125-57.085938 0-65.882813 84.476563-77.011719 191.417969-10.921875 104.949219-23.304688 223.890625-87.101562 300.449219-1.617188 1.945312-4.019532 3.070312-6.550782 3.066406zm0 0" fill="#ff5364"/><path d="m349.871094 512c-2.535156.003906-4.9375-1.117188-6.558594-3.066406-63.796875-76.558594-76.175781-195.5-87.101562-300.449219-11.128907-106.941406-19.921876-191.417969-77.011719-191.417969-4.710938 0-8.53125-3.820312-8.53125-8.53125 0-4.714844 3.820312-8.535156 8.53125-8.535156 72.476562 0 82.445312 95.800781 93.988281 206.714844 10.667969 102.527344 22.765625 218.726562 83.234375 291.285156 2.121094 2.542969 2.578125 6.082031 1.175781 9.082031s-4.414062 4.917969-7.726562 4.917969zm0 0" fill="#ff5364"/><path d="m503.457031 512c-1.480469 0-2.9375-.386719-4.222656-1.125-26.351563-15.058594-40.734375-62.949219-57.394531-118.417969-24.015625-79.957031-51.230469-170.589843-117.574219-170.589843-66.339844 0-93.558594 90.632812-117.574219 170.589843-16.660156 55.46875-31.042968 103.359375-57.390625 118.417969-4.085937 2.277344-9.242187.839844-11.5625-3.21875-2.324219-4.0625-.941406-9.234375 3.09375-11.597656 20.429688-11.675782 34.5625-58.710938 49.515625-108.507813 25.726563-85.660156 54.886719-182.75 133.917969-182.75 79.035156 0 108.191406 97.089844 133.921875 182.75 14.953125 49.800781 29.082031 96.832031 49.511719 108.507813 3.359375 1.921875 5.007812 5.863281 4.011719 9.601562-.992188 3.742188-4.382813 6.34375-8.253907 6.339844zm0 0" fill="#c03a2b"/><g fill="#464f5d"><path d="m230.398438 221.867188h-17.066407c-4.710937 0-8.53125-3.820313-8.53125-8.535157 0-4.710937 3.820313-8.53125 8.53125-8.53125h17.066407c4.714843 0 8.535156 3.820313 8.535156 8.53125 0 4.714844-3.820313 8.535157-8.535156 8.535157zm0 0"/><path d="m179.199219 221.867188h-17.066407c-4.710937 0-8.53125-3.820313-8.53125-8.535157 0-4.710937 3.820313-8.53125 8.53125-8.53125h17.066407c4.714843 0 8.535156 3.820313 8.535156 8.53125 0 4.714844-3.820313 8.535157-8.535156 8.535157zm0 0"/><path d="m128 221.867188h-68.265625c-4.714844 0-8.535156-3.820313-8.535156-8.535157 0-4.710937 3.820312-8.53125 8.535156-8.53125h68.265625c4.710938 0 8.535156 3.820313 8.535156 8.53125 0 4.714844-3.824218 8.535157-8.535156 8.535157zm0 0"/><path d="m25.601562 221.867188h-17.066406c-4.714844 0-8.535156-3.820313-8.535156-8.535157 0-4.710937 3.820312-8.53125 8.535156-8.53125h17.066406c4.710938 0 8.53125 3.820313 8.53125 8.53125 0 4.714844-3.820312 8.535157-8.53125 8.535157zm0 0"/><path d="m25.601562 187.734375h-17.066406c-4.714844 0-8.535156-3.820313-8.535156-8.535156 0-4.710938 3.820312-8.53125 8.535156-8.53125h17.066406c4.710938 0 8.53125 3.820312 8.53125 8.53125 0 4.714843-3.820312 8.535156-8.53125 8.535156zm0 0"/><path d="m25.601562 256h-17.066406c-4.714844 0-8.535156-3.820312-8.535156-8.535156 0-4.710938 3.820312-8.53125 8.535156-8.53125h17.066406c4.710938 0 8.53125 3.820312 8.53125 8.53125 0 4.714844-3.820312 8.535156-8.53125 8.535156zm0 0"/><path d="m25.601562 290.132812h-17.066406c-4.714844 0-8.535156-3.820312-8.535156-8.53125 0-4.714843 3.820312-8.535156 8.535156-8.535156h17.066406c4.710938 0 8.53125 3.820313 8.53125 8.535156 0 4.710938-3.820312 8.53125-8.53125 8.53125zm0 0"/><path d="m25.601562 324.265625h-17.066406c-4.714844 0-8.535156-3.820313-8.535156-8.53125 0-4.714844 3.820312-8.535156 8.535156-8.535156h17.066406c4.710938 0 8.53125 3.820312 8.53125 8.535156 0 4.710937-3.820312 8.53125-8.53125 8.53125zm0 0"/><path d="m25.601562 358.398438h-17.066406c-4.714844 0-8.535156-3.820313-8.535156-8.53125 0-4.714844 3.820312-8.535157 8.535156-8.535157h17.066406c4.710938 0 8.53125 3.820313 8.53125 8.535157 0 4.710937-3.820312 8.53125-8.53125 8.53125zm0 0"/><path d="m25.601562 392.535156h-17.066406c-4.714844 0-8.535156-3.824218-8.535156-8.535156s3.820312-8.535156 8.535156-8.535156h17.066406c4.710938 0 8.53125 3.824218 8.53125 8.535156s-3.820312 8.535156-8.53125 8.535156zm0 0"/><path d="m25.601562 153.601562h-17.066406c-4.714844 0-8.535156-3.820312-8.535156-8.535156 0-4.710937 3.820312-8.53125 8.535156-8.53125h17.066406c4.710938 0 8.53125 3.820313 8.53125 8.53125 0 4.714844-3.820312 8.535156-8.53125 8.535156zm0 0"/><path d="m25.601562 119.464844h-17.066406c-4.714844 0-8.535156-3.820313-8.535156-8.53125 0-4.714844 3.820312-8.535156 8.535156-8.535156h17.066406c4.710938 0 8.53125 3.820312 8.53125 8.535156 0 4.710937-3.820312 8.53125-8.53125 8.53125zm0 0"/><path d="m25.601562 85.332031h-17.066406c-4.714844 0-8.535156-3.820312-8.535156-8.53125 0-4.714843 3.820312-8.535156 8.535156-8.535156h17.066406c4.710938 0 8.53125 3.820313 8.53125 8.535156 0 4.710938-3.820312 8.53125-8.53125 8.53125zm0 0"/></g><path d="m375.464844 307.199219c-3.449219 0-6.558594-2.078125-7.878906-5.265625-1.320313-3.191406-.59375-6.859375 1.847656-9.300782l63.265625-63.265624c1.59375-1.605469 2.492187-3.773438 2.5-6.035157v-78.265625c0-4.710937 3.820312-8.53125 8.535156-8.53125 4.710937 0 8.53125 3.820313 8.53125 8.53125v78.265625c.019531 6.792969-2.679687 13.3125-7.5 18.101563l-63.265625 63.265625c-1.597656 1.605469-3.769531 2.503906-6.035156 2.5zm0 0" fill="#f0c419"/><path d="m204.800781 162.132812c-3.453125 0-6.5625-2.078124-7.882812-5.265624-1.320313-3.191407-.589844-6.859376 1.847656-9.300782l71.800781-71.800781c4.792969-4.816406 11.308594-7.515625 18.105469-7.5h44.128906c4.710938 0 8.53125 3.820313 8.53125 8.535156 0 4.710938-3.820312 8.53125-8.53125 8.53125h-44.128906c-2.265625-.003906-4.441406.898438-6.039063 2.5l-71.800781 71.800781c-1.597656 1.601563-3.769531 2.503907-6.03125 2.5zm0 0" fill="#f0c419"/><path d="m503.464844 512h-494.929688c-4.714844 0-8.535156-3.820312-8.535156-8.535156v-494.929688c0-3.453125 2.078125-6.5625 5.269531-7.882812 3.1875-1.320313 6.855469-.5937502 9.296875 1.847656l17.066406 17.066406c3.234376 3.347656 3.1875 8.671875-.105468 11.960938-3.289063 3.292968-8.613282 3.339844-11.960938.105468l-2.5-2.5v465.800782h486.398438c4.714844 0 8.535156 3.820312 8.535156 8.53125 0 4.714844-3.820312 8.535156-8.535156 8.535156zm0 0" fill="#464f5d"/><path d="m341.332031 8.535156h153.601563c4.710937 0 8.53125 3.820313 8.53125 8.53125v119.46875c0 4.710938-3.820313 8.53125-8.53125 8.53125h-153.601563c-4.710937 0-8.53125-3.820312-8.53125-8.53125v-119.46875c0-4.710937 3.820313-8.53125 8.53125-8.53125zm0 0" fill="#f0c419"/><path d="m452.265625 51.199219h-85.332031c-4.714844 0-8.535156-3.820313-8.535156-8.53125 0-4.714844 3.820312-8.535157 8.535156-8.535157h85.332031c4.714844 0 8.535156 3.820313 8.535156 8.535157 0 4.710937-3.820312 8.53125-8.535156 8.53125zm0 0" fill="#f29c1f"/><path d="m392.535156 85.332031h-25.601562c-4.714844 0-8.535156-3.820312-8.535156-8.53125 0-4.714843 3.820312-8.535156 8.535156-8.535156h25.601562c4.710938 0 8.53125 3.820313 8.53125 8.535156 0 4.710938-3.820312 8.53125-8.53125 8.53125zm0 0" fill="#f29c1f"/><path d="m469.332031 119.464844h-102.398437c-4.714844 0-8.535156-3.820313-8.535156-8.53125 0-4.714844 3.820312-8.535156 8.535156-8.535156h102.398437c4.714844 0 8.535157 3.820312 8.535157 8.535156 0 4.710937-3.820313 8.53125-8.535157 8.53125zm0 0" fill="#f29c1f"/></svg>