<svg height="512pt" viewBox="0 0 512 512" width="512pt" xmlns="http://www.w3.org/2000/svg"><path d="m242.984375 34.710938h-43.390625v26.035156c0 4.792968 3.882812 8.675781 8.675781 8.675781h60.746094c4.792969 0 8.679687-3.882813 8.679687-8.675781v-17.355469c0-4.792969-3.886718-8.679687-8.679687-8.679687zm0 0" fill="#802f34"/><path d="m173.558594 8.679688h60.746094c4.792968 0 8.679687 3.882812 8.679687 8.675781v17.355469c0 4.792968-3.886719 8.679687-8.679687 8.679687h-69.421876v-26.035156c0-4.792969 3.882813-8.675781 8.675782-8.675781zm0 0" fill="#cc4b4c"/><path d="m164.882812 112.8125c-4.792968 0-8.679687-3.882812-8.679687-8.675781v-95.457031c0-4.792969 3.886719-8.679688 8.679687-8.679688 4.792969 0 8.675782 3.886719 8.675782 8.679688v95.457031c0 4.792969-3.882813 8.675781-8.675782 8.675781zm0 0" fill="#e6e7e8"/><path d="m164.882812 104.136719c-52.722656 0-95.460937 42.738281-95.460937 95.457031h111.222656c18.5625-20.726562 43.265625-34.972656 70.503907-40.664062-15.71875-33.429688-49.328126-54.777344-86.265626-54.792969zm0 0" fill="#a5a5a4"/><path d="m121.492188 234.304688h47.726562v86.78125h-47.726562zm0 0" fill="#5e5f62"/><path d="m52.066406 234.304688h34.714844v86.78125h-34.714844zm0 0" fill="#a5a5a4"/><path d="m214.679688 172.460938c-4.175782-28.21875-16.050782-68.324219-49.796876-68.324219-52.070312 0-52.070312 95.457031-52.070312 95.457031h101.867188zm0 0" fill="#5e5f62"/><path d="m152.207031 321.085938h-108.816406c-4.792969 0-8.679687 3.882812-8.679687 8.675781v17.355469c0 4.792968 3.886718 8.679687 8.679687 8.679687h124.175781c-6.800781-10.75-11.976562-22.449219-15.359375-34.710937zm0 0" fill="#95a5a5"/><path d="m180.644531 199.59375h-137.253906c-4.792969 0-8.679687 3.882812-8.679687 8.675781v17.359375c0 4.789063 3.886718 8.675782 8.679687 8.675782h114.964844c5.527343-12.6875 13.054687-24.40625 22.289062-34.710938zm0 0" fill="#95a5a5"/><path d="m86.78125 234.304688h34.710938v86.78125h-34.710938zm0 0" fill="#bdc3c7"/><path d="m203.933594 364.472656h-195.253906c-4.792969 0-8.679688-3.882812-8.679688-8.675781s3.886719-8.679687 8.679688-8.679687h195.253906c4.792968 0 8.675781 3.886718 8.675781 8.679687s-3.882813 8.675781-8.675781 8.675781zm0 0" fill="#4c8056"/><path d="m403.390625 250.679688c-3.738281 0-7.054687-2.390626-8.238281-5.933594-1.183594-3.542969.035156-7.445313 3.027344-9.6875l13.886718-10.40625c2.476563-1.941406 5.808594-2.394532 8.710938-1.175782 2.902344 1.214844 4.917968 3.90625 5.269531 7.03125s-1.015625 6.195313-3.570313 8.027344l-13.890624 10.40625c-1.5 1.125-3.320313 1.734375-5.195313 1.738282zm41.652344-31.242188c-3.734375 0-7.054688-2.386719-8.234375-5.933594-1.183594-3.542968.035156-7.445312 3.023437-9.6875l7.957031-5.964844c1-.746093 1.824219-1.695312 2.414063-2.789062 1.476563-2.75 4.3125-4.492188 7.429687-4.574219 3.117188-.078125 6.039063 1.523438 7.648438 4.191407 1.613281 2.671874 1.667969 6 .144531 8.722656-1.789062 3.273437-4.261719 6.125-7.253906 8.355468l-7.933594 5.941407c-1.496093 1.128906-3.320312 1.742187-5.195312 1.742187zm14.890625-45.878906c-4.792969 0-8.679688-3.882813-8.679688-8.675782v-17.355468c0-4.792969 3.886719-8.679688 8.679688-8.679688 4.792968 0 8.675781 3.886719 8.675781 8.679688v17.355468c0 4.792969-3.882813 8.675782-8.675781 8.675782zm0 0" fill="#464f5d"/><path d="m252.898438 459.933594h-17.355469c-4.792969 0-8.679688-3.886719-8.679688-8.679688 0-4.792968 3.886719-8.675781 8.679688-8.675781h17.355469c4.792968 0 8.679687 3.882813 8.679687 8.675781 0 4.792969-3.886719 8.679688-8.679687 8.679688zm-52.066407 0h-17.355469c-4.792968 0-8.679687-3.886719-8.679687-8.679688 0-4.792968 3.886719-8.675781 8.679687-8.675781h17.355469c4.792969 0 8.675781 3.882813 8.675781 8.675781 0 4.792969-3.882812 8.679688-8.675781 8.679688zm-52.070312 0h-17.355469c-4.792969 0-8.675781-3.886719-8.675781-8.679688 0-4.792968 3.882812-8.675781 8.675781-8.675781h17.355469c4.792969 0 8.679687 3.882813 8.679687 8.675781 0 4.792969-3.886718 8.679688-8.679687 8.679688zm128.933593-17.355469c-4.792968 0-8.679687-3.886719-8.679687-8.679687v-17.355469c0-4.792969 3.886719-8.679688 8.679687-8.679688 4.792969 0 8.675782 3.886719 8.675782 8.679688v17.355469c0 4.792968-3.882813 8.679687-8.675782 8.679687zm0 0" fill="#464f5d"/><path d="m407.863281 286.371094c0 71.890625-58.277343 130.171875-130.167969 130.171875-71.890624 0-130.167968-58.28125-130.167968-130.171875s58.277344-130.167969 130.167968-130.167969c71.890626 0 130.167969 58.277344 130.167969 130.167969zm0 0" fill="#2980ba"/><path d="m373.152344 286.371094c0 52.722656-42.738282 95.460937-95.457032 95.460937s-95.457031-42.738281-95.457031-95.460937c0-52.71875 42.738281-95.457032 95.457031-95.457032s95.457032 42.738282 95.457032 95.457032zm0 0" fill="#90bae1"/><path d="m461.40625 424.613281-36.792969 36.792969-18.398437-18.394531c-1.625-1.621094-2.539063-3.824219-2.539063-6.121094 0-2.292969.914063-4.496094 2.539063-6.117187l24.558594-24.558594c1.621093-1.625 3.824218-2.539063 6.117187-2.539063 2.296875 0 4.5.914063 6.121094 2.539063zm0 0" fill="#7f6e5d"/><path d="m504.363281 504.363281c-10.164062 10.152344-26.628906 10.152344-36.792969 0l-42.957031-42.957031 36.792969-36.792969 42.957031 42.957031c10.152344 10.164063 10.152344 26.628907 0 36.792969zm0 0" fill="#804537"/><path d="m381.648438 406.195312 24.546874-24.546874 24.542969 24.546874-24.542969 24.542969zm0 0" fill="#95a5a5"/><path d="m406.195312 369.375-16.5-16.652344c-8.941406 15.082032-20.835937 28.207032-34.972656 38.585938l14.65625 14.886718c1.628906 1.628907 3.835938 2.542969 6.136719 2.542969s4.507813-.914062 6.136719-2.542969l24.546875-24.546874c1.625-1.625 2.539062-3.832032 2.539062-6.136719 0-2.300781-.914062-4.507813-2.542969-6.136719zm0 0" fill="#285680"/><path d="m364.472656 8.679688h138.847656c4.792969 0 8.679688 3.882812 8.679688 8.675781v121.492187c0 4.792969-3.886719 8.679688-8.679688 8.679688h-138.847656c-4.789062 0-8.675781-3.886719-8.675781-8.679688v-121.492187c0-4.792969 3.886719-8.675781 8.675781-8.675781zm0 0" fill="#f0c419"/><g fill="#f3d55b"><path d="m451.253906 52.066406h-60.746094c-4.792968 0-8.675781-3.882812-8.675781-8.675781s3.882813-8.679687 8.675781-8.679687h60.746094c4.792969 0 8.679688 3.886718 8.679688 8.679687s-3.886719 8.675781-8.679688 8.675781zm0 0"/><path d="m477.289062 86.78125h-86.78125c-4.792968 0-8.675781-3.886719-8.675781-8.679688 0-4.792968 3.882813-8.679687 8.675781-8.679687h86.78125c4.792969 0 8.675782 3.886719 8.675782 8.679687 0 4.792969-3.882813 8.679688-8.675782 8.679688zm0 0"/><path d="m425.21875 121.492188h-34.710938c-4.792968 0-8.675781-3.886719-8.675781-8.679688s3.882813-8.675781 8.675781-8.675781h34.710938c4.792969 0 8.679688 3.882812 8.679688 8.675781s-3.886719 8.679688-8.679688 8.679688zm0 0"/></g><path d="m321.085938 269.015625c0 23.964844-19.425782 43.390625-43.390626 43.390625-23.964843 0-43.390624-19.425781-43.390624-43.390625 0-23.960937 19.425781-43.386719 43.390624-43.386719 23.964844 0 43.390626 19.425782 43.390626 43.386719zm0 0" fill="#35495e"/><path d="m347.117188 329.761719c0-19.167969-15.539063-34.710938-34.710938-34.710938-8.195312 10.925781-21.054688 17.355469-34.710938 17.355469s-26.519531-6.429688-34.710937-17.355469c-19.171875 0-34.714844 15.542969-34.714844 34.710938l-.117187 21.992187c18.039062 19.191406 43.207031 30.078125 69.546875 30.078125 26.335937 0 51.503906-10.886719 69.542969-30.078125zm0 0" fill="#2c3e50"/><path d="m130.167969 451.253906c0 33.550782-27.195313 60.746094-60.746094 60.746094-33.546875 0-60.742187-27.195312-60.742187-60.746094 0-33.546875 27.195312-60.746094 60.742187-60.746094 33.550781 0 60.746094 27.199219 60.746094 60.746094zm0 0" fill="#804169"/><path d="m130.167969 451.253906c.042969 16.121094-6.363281 31.585938-17.789063 42.957032l-42.957031-42.957032v-60.746094c16.117187-.011718 31.574219 6.386719 42.96875 17.78125 11.394531 11.394532 17.789063 26.851563 17.777344 42.964844zm0 0" fill="#ff5364"/></svg>