<svg height="512pt" viewBox="0 0 512 512" width="512pt" xmlns="http://www.w3.org/2000/svg"><g fill="#7f8c8d"><path d="m467.863281 291.308594h-44.140625c-4.875 0-8.824218-3.949219-8.824218-8.824219 0-4.878906 3.949218-8.828125 8.824218-8.828125h44.140625c4.875 0 8.828125 3.949219 8.828125 8.828125 0 4.875-3.953125 8.824219-8.828125 8.824219zm0 0"/><path d="m388.414062 291.308594h-185.378906c-4.875 0-8.828125-3.949219-8.828125-8.824219 0-4.878906 3.953125-8.828125 8.828125-8.828125h185.378906c4.875 0 8.828126 3.949219 8.828126 8.828125 0 4.875-3.953126 8.824219-8.828126 8.824219zm0 0"/><path d="m167.722656 291.308594h-35.308594c-4.875 0-8.828124-3.949219-8.828124-8.824219 0-4.878906 3.953124-8.828125 8.828124-8.828125h35.308594c4.875 0 8.828125 3.949219 8.828125 8.828125 0 4.875-3.953125 8.824219-8.828125 8.824219zm0 0"/><path d="m97.101562 291.308594h-52.964843c-4.875 0-8.828125-3.949219-8.828125-8.824219 0-4.878906 3.953125-8.828125 8.828125-8.828125h52.964843c4.878907 0 8.828126 3.949219 8.828126 8.828125 0 4.875-3.949219 8.824219-8.828126 8.824219zm0 0"/><path d="m467.863281 185.378906h-114.761719c-4.875 0-8.824218-3.953125-8.824218-8.828125s3.949218-8.828125 8.824218-8.828125h114.761719c4.875 0 8.828125 3.953125 8.828125 8.828125s-3.953125 8.828125-8.828125 8.828125zm0 0"/><path d="m317.792969 185.378906h-273.65625c-4.875 0-8.828125-3.953125-8.828125-8.828125s3.953125-8.828125 8.828125-8.828125h273.65625c4.875 0 8.828125 3.953125 8.828125 8.828125s-3.953125 8.828125-8.828125 8.828125zm0 0"/><path d="m229.515625 79.449219h-114.757813c-4.875 0-8.828124-3.953125-8.828124-8.828125s3.953124-8.828125 8.828124-8.828125h114.757813c4.878906 0 8.828125 3.953125 8.828125 8.828125s-3.949219 8.828125-8.828125 8.828125zm0 0"/><path d="m467.863281 79.449219h-52.964843c-4.878907 0-8.828126-3.953125-8.828126-8.828125s3.949219-8.828125 8.828126-8.828125h52.964843c4.875 0 8.828125 3.953125 8.828125 8.828125s-3.953125 8.828125-8.828125 8.828125zm0 0"/><path d="m79.449219 79.449219h-35.3125c-4.875 0-8.828125-3.953125-8.828125-8.828125s3.953125-8.828125 8.828125-8.828125h35.3125c4.875 0 8.828125 3.953125 8.828125 8.828125s-3.953125 8.828125-8.828125 8.828125zm0 0"/><path d="m379.585938 79.449219h-114.757813c-4.875 0-8.828125-3.953125-8.828125-8.828125s3.953125-8.828125 8.828125-8.828125h114.757813c4.875 0 8.828124 3.953125 8.828124 8.828125s-3.953124 8.828125-8.828124 8.828125zm0 0"/></g><path d="m26.484375 0c9.75 0 17.652344 7.90625 17.652344 17.65625v388.414062h-35.308594v-388.414062c0-9.75 7.902344-17.65625 17.65625-17.65625zm0 0" fill="#3d324c"/><path d="m503.171875 406.070312h-35.308594v-388.414062c0-9.75 7.902344-17.65625 17.652344-17.65625 9.753906 0 17.65625 7.90625 17.65625 17.65625zm0 0" fill="#3d324c"/><path d="m8.828125 388.414062h494.34375c4.875 0 8.828125 3.953126 8.828125 8.828126v105.929687c0 4.875-3.953125 8.828125-8.828125 8.828125h-494.34375c-4.875 0-8.828125-3.953125-8.828125-8.828125v-105.929687c0-4.875 3.953125-8.828126 8.828125-8.828126zm0 0" fill="#71c285"/><path d="m114.757812 247.171875c9.75 0 17.65625 7.90625 17.65625 17.65625v35.308594c0 9.75-7.90625 17.65625-17.65625 17.65625s-17.65625-7.90625-17.65625-17.65625v-35.308594c0-9.75 7.90625-17.65625 17.65625-17.65625zm0 0" fill="#955ba5"/><path d="m185.378906 247.171875c9.75 0 17.65625 7.90625 17.65625 17.65625v35.308594c0 9.75-7.90625 17.65625-17.65625 17.65625s-17.65625-7.90625-17.65625-17.65625v-35.308594c0-9.75 7.90625-17.65625 17.65625-17.65625zm0 0" fill="#955ba5"/><path d="m335.449219 141.242188c9.75 0 17.652343 7.902343 17.652343 17.65625v35.308593c0 9.75-7.902343 17.65625-17.652343 17.65625s-17.65625-7.90625-17.65625-17.65625v-35.308593c0-9.753907 7.90625-17.65625 17.65625-17.65625zm0 0" fill="#955ba5"/><path d="m406.070312 247.171875c9.75 0 17.652344 7.90625 17.652344 17.65625v35.308594c0 9.75-7.902344 17.65625-17.652344 17.65625-9.753906 0-17.65625-7.90625-17.65625-17.65625v-35.308594c0-9.75 7.902344-17.65625 17.65625-17.65625zm0 0" fill="#955ba5"/><path d="m512 397.242188v3.617187l-73.179688 73.269531c-2.511718 2.480469-6.253906 3.242188-9.535156 1.941406l-39.546875-15.800781-31.339843 23.480469c-2.328126 1.742188-5.359376 2.234375-8.121094 1.324219l-52.964844-17.652344c-2.203125-.730469-4.019531-2.324219-5.03125-4.414063l-11.5625-23.039062-26.660156 33.367188c-2.816406 3.609374-7.949219 4.421874-11.742188 1.851562l-21.363281-14.210938-30.277344 22.773438c-3.519531 2.640625-8.441406 2.304688-11.5625-.792969l-37.871093-37.957031-37.871094 37.957031c-1.78125 1.78125-4.242188 2.714844-6.753906 2.5625-2.515626-.152343-4.84375-1.375-6.398438-3.355469l-28.335938-35.398437-50.671874 65.234375h-2.382813c-4.871094-.015625-8.8125-3.957031-8.828125-8.828125v-5.5625l54.820312-70.441406c1.628907-2.164063 4.175782-3.4375 6.882813-3.445313h.089844c2.6875.015625 5.21875 1.25 6.886719 3.355469l29.128906 36.371094 37.164062-37.164063c3.46875-3.445312 9.066406-3.445312 12.535156 0l38.664063 38.753906 29.222656-21.894531c2.980469-2.242187 7.054688-2.347656 10.148438-.265625l19.777343 13.152344 30.277344-37.78125c1.867188-2.34375 4.796875-3.578125 7.78125-3.273438 2.980469.304688 5.605469 2.101563 6.960938 4.773438l16.066406 32.046875 45.109375 15.09375 31.601563-23.746094c2.457031-1.851562 5.703124-2.289062 8.5625-1.148437l38.753906 15.539062 69.121094-69.121094h3.617187c4.871094.015626 8.8125 3.957032 8.828125 8.828126zm0 0" fill="#4c8056"/><path d="m247.171875 35.308594c9.75 0 17.65625 7.90625 17.65625 17.65625v35.3125c0 9.75-7.90625 17.652344-17.65625 17.652344s-17.65625-7.902344-17.65625-17.652344v-35.3125c0-9.75 7.90625-17.65625 17.65625-17.65625zm0 0" fill="#955ba5"/><path d="m97.101562 35.308594c9.753907 0 17.65625 7.90625 17.65625 17.65625v35.3125c0 9.75-7.902343 17.652344-17.65625 17.652344-9.75 0-17.652343-7.902344-17.652343-17.652344v-35.3125c0-9.75 7.902343-17.65625 17.652343-17.65625zm0 0" fill="#955ba5"/><path d="m397.242188 35.308594c9.75 0 17.65625 7.90625 17.65625 17.65625v35.3125c0 9.75-7.90625 17.652344-17.65625 17.652344s-17.65625-7.902344-17.65625-17.652344v-35.3125c0-9.75 7.90625-17.65625 17.65625-17.65625zm0 0" fill="#955ba5"/></svg>