<svg height="512pt" viewBox="0 0 512.00412 512" width="512pt" xmlns="http://www.w3.org/2000/svg"><path d="m229.519531 397.242188v.441406c-.058593 28.023437-10.429687 55.046875-29.128906 75.917968-3.914063 4.445313-8.195313 8.546876-12.800781 12.269532-20.371094 16.835937-45.957032 26.074218-72.386719 26.132812h-.441406c-2.824219 0-5.648438-.089844-8.472657-.355468-2.992187-.175782-5.96875-.527344-8.917968-1.058594-52.71875-8.015625-92.941406-51.347656-97.015625-104.519532-.261719-2.914062-.35156275-5.824218-.35156275-8.828124-.03125005-2.949219.11718775-5.894532.44140575-8.828126 1.203126-16.625 6.054688-32.777343 14.210938-47.3125 2.925781-5.203124 6.261719-10.164062 9.976562-14.832031 19.773438-25.269531 49.300782-41.011719 81.300782-43.34375 2.933594-.324219 5.878906-.472656 8.828125-.441406 3.003906 0 5.914062.089844 8.828125.355469 53.171875 4.070312 96.503906 44.292968 104.519531 97.011718.53125 2.949219.886719 5.925782 1.058594 8.917969.265625 2.824219.351562 5.648438.351562 8.472657zm0 0" fill="#e57e25"/><path d="m229.519531 397.242188v.441406l-1.144531-.085938c-2.554688-.25-5.117188-.367187-7.679688-.355468-58.460937.109374-105.824218 47.472656-105.933593 105.933593-.011719 2.5625.105469 5.125.355469 7.679688l.085937 1.148437h-.441406c-2.824219 0-5.648438-.089844-8.472657-.355468-2.992187-.175782-5.96875-.527344-8.917968-1.058594-.175782-2.472656-.261719-4.945313-.261719-7.414063-.027344-30.644531 11.363281-60.199219 31.953125-82.890625 3.980469-4.351562 8.257812-8.421875 12.800781-12.183594 22.113281-18.464843 50.019531-28.558593 78.832031-28.511718 2.46875 0 4.941407.085937 7.414063.261718.53125 2.949219.886719 5.925782 1.058594 8.917969.265625 2.824219.351562 5.648438.351562 8.472657zm0 0" fill="#d25627"/><path d="m123.589844 282.839844c-.054688 30.734375-11.613282 60.335937-32.398438 82.976562-4.046875 4.433594-8.414062 8.5625-13.0625 12.359375-21.921875 18.003907-49.402344 27.863281-77.773437 27.894531-.261719-2.914062-.35156275-5.824218-.35156275-8.828124-.03125005-2.949219.11718775-5.894532.44140575-8.828126 22.425782-.027343 44.242188-7.269531 62.234376-20.65625 4.972656-3.570312 9.585937-7.621093 13.769531-12.09375 18.863281-19.523437 29.429687-45.589843 29.484375-72.738281 2.933594-.324219 5.878906-.472656 8.828125-.441406 3.003906 0 5.914062.089844 8.828125.355469zm0 0" fill="#d25627"/><path d="m273.660156.00390625h229.515625c4.875 0 8.828125 3.94921875 8.828125 8.82421875v494.347656c0 4.875-3.953125 8.828125-8.828125 8.828125h-229.515625c-4.875 0-8.828125-3.953125-8.828125-8.828125v-494.347656c0-4.875 3.953125-8.82421875 8.828125-8.82421875zm0 0" fill="#90bae1"/><path d="m200.390625 473.601562c-3.914063 4.445313-8.195313 8.546876-12.800781 12.269532l-.441406-.617188c-13.902344-18.554687-29.09375-36.105468-45.460938-52.523437-1.941406-2.117188-4.0625-4.238281-6.179688-6.269531-2.117187-2.117188-4.238281-4.148438-6.445312-6.175782-15.96875-15.214844-32.988281-29.285156-50.933594-42.109375-5.03125-3.53125-10.242187-7.0625-15.449218-10.417969-15.09375-9.804687-30.84375-18.566406-47.140626-26.214843l-.882812-.441407c2.925781-5.203124 6.261719-10.164062 9.976562-14.832031 17.972657 8.507813 35.292969 18.332031 51.816407 29.394531 4.945312 3.269532 9.890625 6.621094 14.742187 10.152344 17.863282 12.890625 34.792969 27.019532 50.671875 42.285156 2.03125 1.855469 4.0625 3.796876 6.003907 5.738282 2.292968 2.207031 4.5 4.414062 6.621093 6.707031 16.515625 16.597656 31.855469 34.324219 45.902344 53.054687zm0 0" fill="#d25627"/><path d="m8.832031.00390625h211.863281c4.875 0 8.824219 3.94921875 8.824219 8.82421875v141.242187c0 4.875-3.949219 8.828126-8.824219 8.828126h-211.863281c-4.875 0-8.82812475-3.953126-8.82812475-8.828126v-141.242187c0-4.875 3.95312475-8.82421875 8.82812475-8.82421875zm0 0" fill="#71c285"/><path d="m308.96875 123.589844c-.011719 4.867187-3.957031 8.8125-8.828125 8.824218h-70.621094c-21.238281.722657-42.367187-3.378906-61.792969-12.003906-6.335937-3.003906-12.269531-6.800781-17.652343-11.300781-12.167969-10.566406-22.207031-23.359375-29.574219-37.691406-8.207031-14.125-13.769531-22.863281-23.390625-25.953125-2.851563-.929688-5.832031-1.378906-8.828125-1.324219-2.996094-.027344-5.972656.421875-8.828125 1.324219-16.773437 5.207031-26.660156 26.039062-39.8125 57.46875-7.101563 20.035156-17.160156 38.902344-29.835937 55.964844h-.972657c-4.871093-.015626-8.8124998-3.957032-8.82812475-8.828126v-7.238281c9.50390575-14.648437 17.35156275-30.3125 23.39453175-46.699219 14.210937-34.25 28.953124-69.648437 64.882812-69.648437 26.480469 0 37.164062 18.363281 47.492188 36.015625 6.820312 13.707031 16.550781 25.753906 28.511718 35.3125 13.683594 10.0625 33.632813 16.949219 65.234375 16.949219h70.621094c4.871094.011719 8.816406 3.957031 8.828125 8.828125zm0 0" fill="#4c8056"/><path d="m167.726562 105.492188v53.40625h-17.652343v-53.40625c-.007813-2.34375.917969-4.59375 2.574219-6.25 1.660156-1.660157 3.910156-2.585938 6.253906-2.578126 1.804687-.03125 3.570312.527344 5.03125 1.589844 2.410156 1.613282 3.839844 4.335938 3.792968 7.238282zm0 0" fill="#4c8056"/><path d="m88.28125 26.484375c-4.871094.015625-8.816406 3.957031-8.828125 8.828125v17.65625c0 4.875 3.953125 8.828125 8.828125 8.828125s8.828125-3.953125 8.828125-8.828125v-17.65625c-.015625-4.871094-3.960937-8.8125-8.828125-8.828125zm0 52.964844c-4.871094.015625-8.816406 3.960937-8.828125 8.828125v17.65625c0 4.875 3.953125 8.828125 8.828125 8.828125s8.828125-3.953125 8.828125-8.828125v-17.65625c-.015625-4.867188-3.960937-8.8125-8.828125-8.828125zm0 52.964843c-4.871094.015626-8.816406 3.960938-8.828125 8.828126v17.65625h17.65625v-17.65625c-.015625-4.867188-3.960937-8.8125-8.828125-8.828126zm0 0" fill="#4c8056"/><path d="m476.695312 123.589844c0 48.75-39.523437 88.273437-88.277343 88.273437-48.753907 0-88.277344-39.523437-88.277344-88.273437 0-48.753906 39.523437-88.277344 88.277344-88.277344 48.753906 0 88.277343 39.523438 88.277343 88.277344zm0 0" fill="#894b9d"/><g fill="#2c3e50"><path d="m450.210938 485.519531h-150.070313c-4.875 0-8.824219-3.953125-8.824219-8.828125s3.949219-8.828125 8.824219-8.828125h150.070313c4.875 0 8.828124 3.953125 8.828124 8.828125s-3.953124 8.828125-8.828124 8.828125zm0 0"/><path d="m344.28125 450.207031h-44.140625c-4.875 0-8.824219-3.949219-8.824219-8.824219s3.949219-8.828124 8.824219-8.828124h44.140625c4.875 0 8.828125 3.953124 8.828125 8.828124s-3.953125 8.824219-8.828125 8.824219zm0 0"/><path d="m406.074219 414.898438h-105.933594c-4.875 0-8.824219-3.953126-8.824219-8.828126s3.949219-8.828124 8.824219-8.828124h105.933594c4.875 0 8.828125 3.953124 8.828125 8.828124s-3.953125 8.828126-8.828125 8.828126zm0 0"/><path d="m476.695312 379.589844h-176.554687c-4.875 0-8.824219-3.953125-8.824219-8.828125s3.949219-8.828125 8.824219-8.828125h176.554687c4.875 0 8.824219 3.953125 8.824219 8.828125s-3.949219 8.828125-8.824219 8.828125zm0 0"/><path d="m397.246094 344.277344h-97.105469c-4.875 0-8.824219-3.953125-8.824219-8.828125s3.949219-8.828125 8.824219-8.828125h97.105469c4.875 0 8.828125 3.953125 8.828125 8.828125s-3.953125 8.828125-8.828125 8.828125zm0 0"/></g><path d="m314.257812 282.484375c-1.652343.003906-3.269531-.464844-4.667968-1.34375l-98.867188-61.792969c-2.753906-1.636718-4.402344-4.632812-4.316406-7.832031.089844-3.199219 1.902344-6.101563 4.742188-7.582031 2.835937-1.480469 6.253906-1.308594 8.929687.449218l98.871094 61.792969c3.335937 2.085938 4.886719 6.136719 3.800781 9.921875-1.089844 3.785156-4.554688 6.390625-8.492188 6.386719zm0 0" fill="#802d40"/><path d="m8.832031 194.207031h211.863281c4.875 0 8.824219 3.953125 8.824219 8.828125v35.3125c0 4.875-3.949219 8.828125-8.824219 8.828125h-211.863281c-4.875 0-8.82812475-3.953125-8.82812475-8.828125v-35.3125c0-4.875 3.95312475-8.828125 8.82812475-8.828125zm0 0" fill="#ff5364"/><path d="m308.96875 247.175781h158.898438c4.875 0 8.828124 3.949219 8.828124 8.828125v17.652344c0 4.875-3.953124 8.828125-8.828124 8.828125h-158.898438c-4.875 0-8.828125-3.953125-8.828125-8.828125v-17.652344c0-4.878906 3.953125-8.828125 8.828125-8.828125zm0 0" fill="#ff5364"/><path d="m476.695312 123.589844c.023438 23.414062-9.285156 45.875-25.867187 62.410156l-62.410156-62.410156v-88.277344c48.746093.015625 88.257812 39.53125 88.277343 88.277344zm0 0" fill="#ff5364"/><path d="m450.828125 186c-16.546875 16.558594-39 25.863281-62.410156 25.863281-23.410157 0-45.863281-9.304687-62.410157-25.863281l62.410157-62.410156zm0 0" fill="#f0c419"/></svg>