<svg height="512pt" viewBox="0 -4 512 511" width="512pt" xmlns="http://www.w3.org/2000/svg"><path d="m486.398438 94.367188v46.933593c0 21.207031-17.191407 38.398438-38.398438 38.398438s-38.398438-17.191407-38.398438-38.398438c0 21.207031-17.195312 38.398438-38.402343 38.398438s-38.398438-17.191407-38.398438-38.398438c0 21.207031-17.191406 38.398438-38.402343 38.398438-21.207032 0-38.398438-17.191407-38.398438-38.398438 0 21.207031-17.191406 38.398438-38.398438 38.398438-21.210937 0-38.402343-17.191407-38.402343-38.398438 0 21.207031-17.191407 38.398438-38.398438 38.398438s-38.402343-17.191407-38.402343-38.398438c0 21.207031-17.191407 38.398438-38.398438 38.398438s-38.398438-17.191407-38.398438-38.398438v-46.933593l27.816407-82.261719c2.378906-6.929688 8.886719-11.589844 16.214843-11.605469h372.734376c7.328124.015625 13.835937 4.675781 16.214843 11.605469zm0 0" fill="#cc4b4c"/><path d="m102.398438 107.167969c.425781 15.351562-5.792969 30.136719-17.066407 40.570312v279.429688h34.132813v-279.429688c-11.269532-10.433593-17.492188-25.21875-17.066406-40.570312zm0 0" fill="#e4c05c"/><path d="m409.601562 107.167969c-.425781 15.351562 5.792969 30.136719 17.066407 40.570312v279.429688h-34.132813v-279.429688c11.269532-10.433593 17.492188-25.21875 17.066406-40.570312zm0 0" fill="#e4c05c"/><path d="m460.800781 393.035156h-137.066406c-12.109375 10.636719-26.539063 18.296875-42.132813 22.371094v20.292969c-.015624 4.707031-3.828124 8.519531-8.535156 8.535156v34.132813c-.027344 9.414062-7.652344 17.039062-17.066406 17.066406h221.867188v-85.332032c0-9.425781-7.640626-17.066406-17.066407-17.066406zm0 0" fill="#b19046"/><path d="m238.933594 478.367188v-34.132813c-4.707032-.015625-8.519532-3.828125-8.535156-8.535156v-20.292969c-15.59375-4.074219-30.023438-11.734375-42.132813-22.371094h-137.066406c-9.425781 0-17.066407 7.640625-17.066407 17.066406v85.332032h221.867188c-9.414062-.027344-17.039062-7.652344-17.066406-17.066406zm0 0" fill="#b19046"/><g fill="#fff"><path d="m187.734375.5-8.535156 93.867188h-76.800781l17.066406-93.867188zm0 0"/><path d="m332.800781 94.367188h-76.800781v-93.867188h68.265625zm0 0"/><path d="m486.398438 94.367188h-76.796876l-17.066406-93.867188h49.832032c7.328124.015625 13.835937 4.675781 16.214843 11.605469zm0 0"/></g><path d="m102.398438 94.367188v46.933593c0 21.207031-17.191407 38.398438-38.398438 38.398438s-38.398438-17.191407-38.398438-38.398438v-46.933593zm0 0" fill="#802f34"/><path d="m179.199219 94.367188v46.933593c0 21.207031-17.191407 38.398438-38.398438 38.398438s-38.402343-17.191407-38.402343-38.398438v-46.933593zm0 0" fill="#e6e7e8"/><path d="m256 94.367188v46.933593c0 21.207031-17.191406 38.398438-38.398438 38.398438-21.210937 0-38.402343-17.191407-38.402343-38.398438v-46.933593zm0 0" fill="#802f34"/><path d="m332.800781 94.367188v46.933593c0 21.207031-17.191406 38.398438-38.402343 38.398438-21.207032 0-38.398438-17.191407-38.398438-38.398438v-46.933593zm0 0" fill="#e6e7e8"/><path d="m409.601562 94.367188v46.933593c0 21.207031-17.195312 38.398438-38.402343 38.398438s-38.398438-17.191407-38.398438-38.398438v-46.933593zm0 0" fill="#802f34"/><path d="m486.398438 94.367188v46.933593c0 21.207031-17.191407 38.398438-38.398438 38.398438s-38.398438-17.191407-38.398438-38.398438v-46.933593zm0 0" fill="#e6e7e8"/><path d="m34.132812 435.699219h136.535157c4.710937 0 8.53125-3.820313 8.53125-8.53125 0-4.714844-3.820313-8.535157-8.53125-8.535157h-136.535157zm0 0" fill="#805333"/><path d="m477.867188 435.699219h-136.535157c-4.710937 0-8.53125-3.820313-8.53125-8.53125 0-4.714844 3.820313-8.535157 8.53125-8.535157h136.535157zm0 0" fill="#805333"/><path d="m503.464844 503.964844h-494.929688c-4.714844 0-8.535156-3.820313-8.535156-8.53125 0-4.714844 3.820312-8.535156 8.535156-8.535156h494.929688c4.714844 0 8.535156 3.820312 8.535156 8.535156 0 4.710937-3.820312 8.53125-8.535156 8.53125zm0 0" fill="#464f5d"/><path d="m358.398438 316.234375c0 56.554687-45.84375 102.398437-102.398438 102.398437s-102.398438-45.84375-102.398438-102.398437 45.84375-102.402344 102.398438-102.402344 102.398438 45.847657 102.398438 102.402344zm0 0" fill="#285680"/><path d="m324.265625 316.234375c.03125 24.378906-12.992187 46.910156-34.132813 59.050781-5.160156 3.082032-10.734374 5.410156-16.554687 6.910156-11.546875 3.074219-23.695313 3.074219-35.242187 0-5.78125-1.539062-11.320313-3.863281-16.46875-6.910156-18.429688-10.582031-30.839844-29.183594-33.535157-50.261718-.414062-2.910157-.613281-5.851563-.597656-8.789063-.003906-2.824219.167969-5.644531.511719-8.449219 3.351562-26.988281 22.410156-49.40625 48.503906-57.058594 26.097656-7.65625 54.246094.917969 71.644531 21.816407 3.714844 4.410156 6.84375 9.289062 9.300781 14.507812 4.320313 9.121094 6.5625 19.089844 6.570313 29.183594zm0 0" fill="#90bae1"/><path d="m238.933594 444.234375h34.132812v34.132813c0 9.425781-7.640625 17.066406-17.066406 17.066406s-17.066406-7.640625-17.066406-17.066406zm0 0" fill="#285680"/><path d="m256 418.632812c-8.636719.011719-17.238281-1.074218-25.601562-3.226562v20.292969c0 4.714843 3.820312 8.535156 8.535156 8.535156h34.132812c4.714844 0 8.535156-3.820313 8.535156-8.535156v-20.292969c-8.363281 2.152344-16.964843 3.238281-25.601562 3.226562zm0 0" fill="#2c3e50"/><path d="m238.933594 324.765625v54.273437c-.027344 1.078126-.226563 2.144532-.597656 3.15625-5.78125-1.539062-11.320313-3.863281-16.46875-6.910156v-50.519531c.007812-.570313.066406-1.140625.171874-1.707031.101563-.558594.273438-1.101563.511719-1.621094.222657-.5.476563-.984375.765625-1.449219.640625-.9375 1.453125-1.75 2.390625-2.390625.4375-.261718.894531-.488281 1.363281-.683594 1.054688-.445312 2.1875-.675781 3.328126-.679687.574218.007813 1.144531.066406 1.707031.167969.980469.175781 1.910156.554687 2.730469 1.109375.433593.238281.832031.523437 1.195312.855469l.769531.765624c.828125.890626 1.414063 1.976563 1.707031 3.160157.164063.316406.25.667969.253907 1.023437.105469.476563.160156.960938.171875 1.449219zm0 0" fill="#f0c419"/><path d="m290.132812 307.699219v67.585937c-5.160156 3.082032-10.734374 5.410156-16.554687 6.910156-.339844-.839843-.515625-1.738281-.511719-2.644531v-71.851562c-.011718-3.039063 1.621094-5.84375 4.265625-7.335938 1.289063-.78125 2.761719-1.195312 4.269531-1.195312 4.707032.011719 8.519532 3.824219 8.53125 8.53125zm0 0" fill="#f0c419"/><path d="m238.933594 324.765625c-.019532.574219-.074219 1.144531-.171875 1.707031-.574219 2.921875-2.652344 5.324219-5.460938 6.316406l-.171875.085938h-.167968c-.828126.265625-1.691407.40625-2.5625.425781-.570313-.019531-1.140626-.078125-1.707032-.171875l-6.824218-1.363281-33.535157-6.742187c-.414062-2.910157-.613281-5.851563-.597656-8.789063-.003906-2.824219.167969-5.644531.511719-8.449219.398437-.011718.800781.019532 1.195312.085938l40.359375 8.105468 2.304688.425782c1.816406.390625 3.460937 1.347656 4.695312 2.730468.167969.171876.253907.34375.425781.515626.21875.296874.417969.613281.597657.9375.066406.066406.097656.160156.085937.253906.320313.425781.523438.925781.597656 1.453125.3125.785156.457032 1.628906.425782 2.472656zm0 0" fill="#ff5364"/><path d="m317.695312 287.050781-27.5625 24.488281-2.902343 2.5625c-.839844.757813-1.828125 1.335938-2.898438 1.707032l-11.265625 3.753906-34.132812 11.347656-5.632813 1.878906-.171875.085938c-.886718.257812-1.804687.402344-2.730468.425781-.570313-.019531-1.140626-.078125-1.707032-.171875-2.980468-.605468-5.417968-2.75-6.398437-5.632812-.273438-.882813-.417969-1.804688-.425781-2.730469.007812-.570313.066406-1.140625.171874-1.707031.167969-.679688.425782-1.363282.679688-2.132813.085938-.085937.171875-.167969.171875-.253906.191406-.273437.359375-.558594.511719-.855469.292968-.359375.605468-.703125.9375-1.023437.480468-.496094 1.027344-.929688 1.621094-1.28125.351562-.230469.722656-.429688 1.109374-.597657.171876-.082031.429688-.167968.597657-.253906l2.050781-.683594h.082031l47.445313-15.785156 30.550781-27.222656c.179687-.167969.378906-.3125.597656-.425781 3.714844 4.410156 6.84375 9.289062 9.300781 14.507812zm0 0" fill="#ff5364"/></svg>