<svg height="507pt" viewBox="0 -2 507.2068 507" width="507pt" xmlns="http://www.w3.org/2000/svg"><g fill="#2fa8cc"><path d="m55.515625 151.886719c-3.738281-.242188-6.878906-2.890625-7.75-6.53125-.871094-3.644531.734375-7.425781 3.957031-9.332031l126.808594-74.976563c4.054688-2.398437 9.289062-1.054687 11.6875 3.003906 2.398438 4.058594 1.054688 9.292969-3.003906 11.691407l-126.804688 74.976562c-1.476562.875-3.183594 1.28125-4.894531 1.167969zm0 0"/><path d="m8.539062 186.949219c-3.625.003906-6.855468-2.285157-8.058593-5.707031-1.199219-3.421876-.105469-7.230469 2.726562-9.492188l43.734375-34.964844c3.679688-2.941406 9.050782-2.34375 11.996094 1.335938 2.945312 3.683594 2.347656 9.054687-1.335938 12l-43.734374 34.960937c-1.511719 1.210938-3.390626 1.867188-5.328126 1.867188zm0 0"/><path d="m314.660156 142.902344c-1.453125.003906-2.882812-.371094-4.148437-1.082032l-117.335938-65.507812c-4.019531-2.339844-5.425781-7.472656-3.15625-11.535156 2.265625-4.0625 7.371094-5.558594 11.472657-3.363282l117.335937 65.507813c3.390625 1.894531 5.078125 5.839844 4.097656 9.601563-.980469 3.761718-4.378906 6.382812-8.265625 6.378906zm0 0"/><path d="m468.851562 66.949219c-3.070312 0-5.90625-1.652344-7.417968-4.328125-1.515625-2.671875-1.476563-5.953125.101562-8.589844l29.808594-49.773438c2.421875-4.046874 7.664062-5.363281 11.707031-2.941406 4.046875 2.421875 5.363281 7.664063 2.941407 11.707032l-29.808594 49.777343c-1.542969 2.578125-4.328125 4.152344-7.332032 4.148438zm0 0"/><path d="m330.03125 140.015625c-3.898438 0-7.304688-2.640625-8.269531-6.417969-.964844-3.777344.753906-7.730468 4.175781-9.601562l125.011719-68.265625c2.679687-1.519531 5.96875-1.480469 8.609375.109375s4.21875 4.476562 4.128906 7.554687c-.085938 3.082031-1.828125 5.875-4.554688 7.308594l-125.019531 68.265625c-1.253906.6875-2.65625 1.046875-4.082031 1.046875zm0 0"/></g><path d="m25.601562 231.75h51.199219v108.542969h-51.199219zm0 0" fill="#b0d3f0"/><path d="m162.136719 231.75h51.199219v226.132812h-51.199219zm0 0" fill="#b0d3f0"/><path d="m298.667969 231.75h51.199219v124.445312h-51.199219zm0 0" fill="#b0d3f0"/><path d="m435.203125 231.75h51.199219v78.933594h-51.199219zm0 0" fill="#b0d3f0"/><path d="m76.800781 340.550781v136.53125c0 14.140625-11.460937 25.601563-25.597656 25.601563-14.140625 0-25.601563-11.460938-25.601563-25.601563v-136.53125zm0 0" fill="#3b97d3"/><path d="m25.601562 204.015625h51.199219c9.425781 0 17.066407 7.640625 17.066407 17.066406s-7.640626 17.066407-17.066407 17.066407h-51.199219c-9.425781 0-17.066406-7.640626-17.066406-17.066407s7.640625-17.066406 17.066406-17.066406zm0 0" fill="#90bae1"/><path d="m213.335938 451.484375v25.597656c0 14.140625-11.460938 25.601563-25.601563 25.601563-14.136719 0-25.597656-11.460938-25.597656-25.601563v-25.597656zm0 0" fill="#cc4b4c"/><path d="m162.136719 204.015625h51.199219c9.425781 0 17.066406 7.640625 17.066406 17.066406s-7.640625 17.066407-17.066406 17.066407h-51.199219c-9.425781 0-17.066407-7.640626-17.066407-17.066407s7.640626-17.066406 17.066407-17.066406zm0 0" fill="#90bae1"/><path d="m349.867188 332.015625v145.066406c0 14.140625-11.460938 25.601563-25.597657 25.601563-14.140625 0-25.601562-11.460938-25.601562-25.601563v-145.066406zm0 0" fill="#71c285"/><path d="m298.667969 204.015625h51.199219c9.425781 0 17.070312 7.640625 17.070312 17.066406s-7.644531 17.066407-17.070312 17.066407h-51.199219c-9.425781 0-17.066407-7.640626-17.066407-17.066407s7.640626-17.066406 17.066407-17.066406zm0 0" fill="#90bae1"/><path d="m486.402344 289.347656v187.734375c0 14.140625-11.460938 25.601563-25.601563 25.601563-14.136719 0-25.597656-11.460938-25.597656-25.601563v-187.734375zm0 0" fill="#ff5364"/><path d="m435.203125 204.015625h51.199219c9.425781 0 17.066406 7.640625 17.066406 17.066406s-7.640625 17.066407-17.066406 17.066407h-51.199219c-9.425781 0-17.066406-7.640626-17.066406-17.066407s7.640625-17.066406 17.066406-17.066406zm0 0" fill="#90bae1"/><path d="m68.269531 144.28125c0 9.425781-7.640625 17.066406-17.066406 17.066406s-17.066406-7.640625-17.066406-17.066406 7.640625-17.066406 17.066406-17.066406 17.066406 7.640625 17.066406 17.066406zm0 0" fill="#ff5364"/><path d="m204.800781 67.484375c0 9.425781-7.640625 17.066406-17.066406 17.066406s-17.066406-7.640625-17.066406-17.066406 7.640625-17.066406 17.066406-17.066406 17.066406 7.640625 17.066406 17.066406zm0 0" fill="#ff5364"/><path d="m341.335938 135.75c0 9.425781-7.640626 17.066406-17.066407 17.066406s-17.066406-7.640625-17.066406-17.066406 7.640625-17.066406 17.066406-17.066406 17.066407 7.640625 17.066407 17.066406zm0 0" fill="#ff5364"/><path d="m477.867188 58.949219c0 9.425781-7.640626 17.066406-17.066407 17.066406s-17.066406-7.640625-17.066406-17.066406 7.640625-17.066407 17.066406-17.066407 17.066407 7.640626 17.066407 17.066407zm0 0" fill="#ff5364"/></svg>