<svg height="511pt" viewBox="0 -4 511.98979 511" width="511pt" xmlns="http://www.w3.org/2000/svg"><g fill="#95a5a5"><path d="m413.863281 337.5625c-3.453125 0-6.5625-2.082031-7.882812-5.269531-1.320313-3.1875-.589844-6.855469 1.847656-9.296875l41.933594-41.933594c1.59375-1.605469 2.492187-3.773438 2.5-6.035156v-61.199219c0-4.710937 3.820312-8.535156 8.535156-8.535156 4.710937 0 8.53125 3.824219 8.53125 8.535156v61.199219c.015625 6.792968-2.683594 13.3125-7.5 18.101562l-41.933594 41.933594c-1.597656 1.601562-3.769531 2.5-6.03125 2.5zm0 0"/><path d="m324.261719 290.628906c-3.449219 0-6.5625-2.082031-7.882813-5.269531-1.320312-3.1875-.589844-6.855469 1.851563-9.296875l29.132812-29.132812c1.59375-1.605469 2.492188-3.773438 2.5-6.035157v-27.066406c0-4.710937 3.820313-8.535156 8.53125-8.535156 4.714844 0 8.535157 3.824219 8.535157 8.535156v27.066406c.015624 6.792969-2.683594 13.308594-7.5 18.101563l-29.136719 29.132812c-1.597657 1.601563-3.769531 2.5-6.03125 2.5zm0 0"/><path d="m98.128906 337.5625c-2.265625 0-4.433594-.898438-6.035156-2.5l-41.933594-41.933594c-4.816406-4.789062-7.515625-11.308594-7.5-18.101562v-61.199219c0-4.710937 3.820313-8.535156 8.535156-8.535156 4.710938 0 8.53125 3.824219 8.53125 8.535156v61.199219c.007813 2.261718.90625 4.429687 2.503907 6.035156l41.929687 41.933594c2.441406 2.441406 3.171875 6.109375 1.851563 9.296875-1.320313 3.1875-4.433594 5.269531-7.882813 5.269531zm0 0"/><path d="m187.726562 290.628906c-2.261718 0-4.433593-.898437-6.03125-2.5l-29.132812-29.132812c-4.816406-4.792969-7.515625-11.308594-7.5-18.101563v-27.066406c0-4.710937 3.820312-8.535156 8.53125-8.535156 4.714844 0 8.535156 3.824219 8.535156 8.535156v27.066406c.007813 2.261719.90625 4.429688 2.5 6.035157l29.132813 29.132812c2.4375 2.441406 3.167969 6.109375 1.847656 9.296875s-4.429687 5.269531-7.882813 5.269531zm0 0"/><path d="m255.996094 282.09375c-4.714844 0-8.535156-3.820312-8.535156-8.53125v-59.734375c0-4.710937 3.820312-8.535156 8.535156-8.535156 4.710937 0 8.53125 3.824219 8.53125 8.535156v59.734375c0 4.710938-3.820313 8.53125-8.53125 8.53125zm0 0"/></g><path d="m230.394531 34.628906h51.199219v93.867188h-51.199219zm0 0" fill="#b0d3f0"/><path d="m281.59375 128.496094v59.730468c0 14.140626-11.460938 25.601563-25.597656 25.601563-14.140625 0-25.601563-11.460937-25.601563-25.601563v-59.730468zm0 0" fill="#71c285"/><path d="m230.394531.496094h51.199219c4.714844 0 8.535156 3.820312 8.535156 8.53125v17.066406c0 4.714844-3.820312 8.535156-8.535156 8.535156h-51.199219c-4.710937 0-8.53125-3.820312-8.53125-8.535156v-17.066406c0-4.710938 3.820313-8.53125 8.53125-8.53125zm0 0" fill="#90bae1"/><path d="m332.796875 34.628906h51.199219v34.132813h-51.199219zm0 0" fill="#b0d3f0"/><path d="m383.996094 68.761719v119.464843c0 14.140626-11.460938 25.601563-25.601563 25.601563-14.136719 0-25.597656-11.460937-25.597656-25.601563v-119.464843zm0 0" fill="#ff5364"/><path d="m332.796875.496094h51.199219c4.710937 0 8.53125 3.820312 8.53125 8.53125v17.066406c0 4.714844-3.820313 8.535156-8.53125 8.535156h-51.199219c-4.714844 0-8.535156-3.820312-8.535156-8.535156v-17.066406c0-4.710938 3.820312-8.53125 8.535156-8.53125zm0 0" fill="#90bae1"/><path d="m435.195312 34.628906h51.199219v76.800782h-51.199219zm0 0" fill="#b0d3f0"/><path d="m486.394531 111.429688v76.796874c0 14.140626-11.460937 25.601563-25.597656 25.601563-14.140625 0-25.601563-11.460937-25.601563-25.601563v-76.796874zm0 0" fill="#f3d55b"/><path d="m435.195312.496094h51.199219c4.714844 0 8.535157 3.820312 8.535157 8.53125v17.066406c0 4.714844-3.820313 8.535156-8.535157 8.535156h-51.199219c-4.714843 0-8.535156-3.820312-8.535156-8.535156v-17.066406c0-4.710938 3.820313-8.53125 8.535156-8.53125zm0 0" fill="#90bae1"/><path d="m127.996094 34.628906h51.199218v136.53125h-51.199218zm0 0" fill="#b0d3f0"/><path d="m179.195312 171.160156v17.066406c0 14.140626-11.460937 25.601563-25.601562 25.601563-14.136719 0-25.597656-11.460937-25.597656-25.601563v-17.066406zm0 0" fill="#cc4b4c"/><path d="m179.195312 34.628906h-51.199218c-4.714844 0-8.535156-3.820312-8.535156-8.535156v-17.066406c0-4.710938 3.820312-8.53125 8.535156-8.53125h51.199218c4.710938 0 8.53125 3.820312 8.53125 8.53125v17.066406c0 4.714844-3.820312 8.535156-8.53125 8.535156zm0 0" fill="#90bae1"/><path d="m25.59375 34.628906h51.203125v51.199219h-51.203125zm0 0" fill="#b0d3f0"/><path d="m76.796875 85.828125v102.398437c0 14.140626-11.464844 25.601563-25.601563 25.601563-14.140624 0-25.601562-11.460937-25.601562-25.601563v-102.398437zm0 0" fill="#3b97d3"/><path d="m76.796875 34.628906h-51.203125c-4.710938 0-8.53125-3.820312-8.53125-8.535156v-17.066406c0-4.710938 3.820312-8.53125 8.53125-8.53125h51.203125c4.710937 0 8.53125 3.820312 8.53125 8.53125v17.066406c0 4.714844-3.820313 8.535156-8.53125 8.535156zm0 0" fill="#90bae1"/><path d="m503.460938 486.722656c.054687 2.3125-.832032 4.542969-2.460938 6.183594-1.625 1.644531-3.847656 2.554688-6.15625 2.523438h-477.695312c-2.3125.03125-4.535157-.878907-6.160157-2.523438-1.625-1.640625-2.515625-3.871094-2.460937-6.183594 3.164062-88.03125 52.851562-167.753906 130.488281-209.375 77.632813-41.617187 171.535156-38.871094 246.601563 7.222656 13.285156 8.121094 25.746093 17.523438 37.203124 28.074219 49.285157 44.757813 78.371094 107.542969 80.640626 174.078125zm0 0" fill="#90bae1"/><path d="m385.617188 284.570312c-100.351563 18.941407-251.136719 70.65625-284.929688 210.859376h-83.539062c-2.3125.03125-4.535157-.878907-6.160157-2.523438-1.625-1.640625-2.515625-3.871094-2.460937-6.183594 3.164062-88.03125 52.851562-167.753906 130.488281-209.375 77.632813-41.617187 171.535156-38.871094 246.601563 7.222656zm0 0" fill="#b0d3f0"/><path d="m68.261719 503.960938c-4.710938 0-8.535157-3.820313-8.535157-8.53125.019532-70.117188 37.429688-134.902344 98.148438-169.960938 60.71875-35.0625 135.527344-35.078125 196.261719-.039062 3.933593 2.425781 5.21875 7.539062 2.902343 11.539062-2.3125 3.996094-7.390624 5.425781-11.453124 3.222656-55.453126-31.976562-123.753907-31.953125-179.1875.058594-55.433594 32.015625-89.585938 91.164062-89.601563 155.179688 0 4.710937-3.824219 8.53125-8.535156 8.53125zm0 0" fill="#464f5d"/><path d="m324.269531 358.894531c-3.761719.003907-7.082031-2.457031-8.171875-6.054687-1.09375-3.601563.300782-7.492188 3.429688-9.578125l21.800781-14.535157v-21.03125c0-4.714843 3.820313-8.535156 8.535156-8.535156 4.710938 0 8.53125 3.820313 8.53125 8.535156v25.597657c0 2.855469-1.425781 5.519531-3.800781 7.101562l-25.597656 17.066407c-1.398438.933593-3.042969 1.433593-4.726563 1.433593zm0 0" fill="#464f5d"/><path d="m392.527344 503.960938c-4.710938 0-8.53125-3.820313-8.53125-8.53125.035156-32.292969-12.167969-63.402344-34.160156-87.050782-2.15625-2.222656-2.9375-5.4375-2.046876-8.402344.890626-2.964843 3.320313-5.214843 6.34375-5.875 3.023438-.664062 6.171876.363282 8.222657 2.679688 24.917969 26.800781 38.75 62.050781 38.707031 98.648438 0 4.710937-3.820312 8.53125-8.535156 8.53125zm0 0" fill="#464f5d"/><path d="m388.738281 362.679688-122.480469 100.1875c10.617188 3.355468 18.933594 11.671874 22.289063 22.289062zm0 0" fill="#c03a2b"/><path d="m221.863281 495.429688c0-18.851563 15.28125-34.136719 34.132813-34.136719 18.851562 0 34.132812 15.285156 34.132812 34.136719zm0 0" fill="#285680"/><path d="m494.878906 503.960938h-477.765625c-4.660156-.007813-9.113281-1.902344-12.351562-5.25-3.207031-3.277344-4.925781-7.734376-4.7500002-12.316407 4.9453122-137.804687 118.0937502-246.960937 255.9882812-246.960937 137.890625.003906 251.035156 109.167968 255.976562 246.96875.175782 4.582031-1.542968 9.03125-4.75 12.308594-3.234374 3.347656-7.691406 5.242187-12.347656 5.25zm-238.882812-247.464844c-128.925782-.558594-234.855469 101.628906-238.933594 230.488281l.050781-.089844h477.765625c-4.078125-128.824219-109.996094-230.980469-238.882812-230.398437zm0 0" fill="#3b97d3"/></svg>