<svg height="512pt" viewBox="0 0 512 512.00025" width="512pt" xmlns="http://www.w3.org/2000/svg"><path d="m119.703125 467.949219-60.292969 42.460937c-1.472656 1.039063-3.230468 1.59375-5.03125 1.589844h-45.550781c-4.871094-.015625-8.8125-3.957031-8.828125-8.828125v-119.347656c.0117188-2.6875 1.246094-5.222657 3.355469-6.886719l26.921875-21.625 58 33.101562zm0 0" fill="#3b97d3"/><path d="m497.699219 315.058594-159.335938 87.921875c-13.476562 7.78125-28.757812 11.890625-44.316406 11.917969h-82.183594c-19.773437 0-37.605469 11.386718-51.378906 19.242187l-81.035156-36.898437-13.949219-82.714844c24.828125-24.964844 58.210938-39.574219 93.398438-40.871094 61.792968 0 52.964843 17.65625 105.929687 17.65625h79.449219c10.636718-.847656 20.800781 4.558594 26.039062 13.855469 3.953125 7.382812 3.226563 16.390625-1.851562 23.042969-.089844.085937-.089844.175781-.179688.265624l7.683594-4.414062 96.484375-55.703125c6.289063-3.628906 13.796875-4.511719 20.757813-2.441406 6.960937 2.070312 12.765624 6.910156 16.050781 13.386719 6.09375 13.109374 1.050781 28.695312-11.5625 35.753906zm0 0" fill="#fdd7ad"/><path d="m375.96875 324.0625c-11.898438 8.121094-26.132812 12.125-40.519531 11.386719h-105.933594c-4.359375.902343-8.355469 3.085937-11.472656 6.265625-1.644531 1.632812-3.863281 2.550781-6.179688 2.5625-2.34375-.011719-4.589843-.929688-6.269531-2.5625-3.441406-3.46875-3.441406-9.066406 0-12.535156 6.394531-6.480469 14.859375-10.511719 23.921875-11.386719h105.933594c16.59375 0 27.984375-4.058594 34.78125-12.535157l.085937-.089843c3.953125 7.382812 3.226563 16.390625-1.851562 23.042969-.089844.085937-.089844.175781-.179688.265624zm0 0" fill="#f9c795"/><path d="m164.015625 452.855469-27.628906 21.890625c-1.839844 1.464844-4.183594 2.140625-6.515625 1.875-2.335938-.265625-4.46875-1.445313-5.933594-3.285156l-4.234375-5.386719-89.425781-112.636719-9.355469-11.832031c-3.007813-3.804688-2.378906-9.328125 1.410156-12.359375l27.71875-21.980469c3.808594-3.007813 9.332031-2.375 12.359375 1.414063l3.089844 3.972656 94.984375 119.613281 4.945313 6.269531c1.484374 1.828125 2.171874 4.175782 1.90625 6.519532-.265626 2.339843-1.460938 4.476562-3.320313 5.925781zm0 0" fill="#285680"/><path d="m313.554688 162.429688-3.53125 2.292968c-6 3.972656-13.769532 21.648438-19.773438 17.675782l-6.707031-4.410157c-5.964844-4.0625-13.808594-4.0625-19.773438 0l-6.710937 4.410157c-5.992188 3.972656-13.78125 3.972656-19.773438 0l-6.707031-4.410157c-5.96875-4.0625-13.808594-4.0625-19.773437 0l-6.710938 4.410157c-6.003906 3.972656-13.769531-13.703126-19.773438-17.675782l-3.53125-2.292968 34.691407-56.851563c3.414062-5.515625 5.214843-11.875 5.210937-18.363281v-69.558594h52.964844v69.558594c-.007812 6.488281 1.796875 12.847656 5.207031 18.363281zm0 0" fill="#b0d3f0"/><g fill="#955ba5"><path d="m317.800781 88.277344c-4.09375.003906-7.65625-2.808594-8.601562-6.796875-.941407-3.984375.980469-8.097657 4.644531-9.929688l17.65625-8.824219c4.359375-2.183593 9.664062-.414062 11.84375 3.945313 2.183594 4.363281.414062 9.664063-3.945312 11.84375l-17.65625 8.828125c-1.222657.613281-2.574219.929688-3.941407.933594zm0 0"/><path d="m344.277344 114.757812h-8.828125c-4.875 0-8.828125-3.953124-8.828125-8.828124s3.953125-8.824219 8.828125-8.824219h8.828125c4.875 0 8.828125 3.949219 8.828125 8.824219s-3.953125 8.828124-8.828125 8.828124zm0 0"/><path d="m176.542969 88.277344c-1.367188-.003906-2.714844-.320313-3.941407-.933594l-17.652343-8.828125c-4.363281-2.179687-6.128907-7.480469-3.949219-11.84375 2.179688-4.359375 7.484375-6.128906 11.84375-3.945313l17.65625 8.824219c3.664062 1.832031 5.585938 5.945313 4.644531 9.929688-.945312 3.988281-4.503906 6.800781-8.601562 6.796875zm0 0"/><path d="m158.898438 114.757812h-8.828126c-4.875 0-8.828124-3.953124-8.828124-8.828124s3.953124-8.824219 8.828124-8.824219h8.828126c4.875 0 8.824218 3.949219 8.824218 8.824219s-3.949218 8.828124-8.824218 8.828124zm0 0"/><path d="m343.746094 238.34375h-193.148438c-3.214844.167969-6.261718-1.433594-7.953125-4.171875-1.691406-2.738281-1.753906-6.179687-.167969-8.980469l38.3125-62.761718 3.53125 2.292968c5.992188 3.972656 13.78125 3.972656 19.773438 0l6.710938-4.414062c5.964843-4.0625 13.804687-4.0625 19.773437 0l6.707031 4.414062c5.992188 3.972656 13.78125 3.972656 19.773438 0l6.710937-4.414062c5.964844-4.0625 13.808594-4.0625 19.773438 0l6.707031 4.414062c5.992188 3.972656 13.78125 3.972656 19.773438 0l3.53125-2.292968 38.3125 62.761718c1.589843 2.800782 1.523437 6.242188-.167969 8.980469-1.6875 2.738281-4.738281 4.339844-7.953125 4.171875zm0 0"/></g><path d="m300.136719 17.65625c.027343 4.683594-1.855469 9.175781-5.207031 12.445312-3.269532 3.355469-7.761719 5.234376-12.445313 5.210938h-70.621094c-9.738281-.03125-17.628906-7.917969-17.65625-17.65625-.023437-4.683594 1.855469-9.175781 5.207031-12.449219 3.273438-3.351562 7.765626-5.2304685 12.449219-5.207031h70.621094c9.738281.0273438 17.625 7.917969 17.652344 17.65625zm0 0" fill="#90bae1"/></svg>