<svg enable-background="new 0 0 256 256" height="512" viewBox="0 0 256 256" width="512" xmlns="http://www.w3.org/2000/svg"><path d="m20.084 241.5h137.716c2.4 0 4.346-1.945 4.346-4.346v-78.658c0-2.4-1.946-4.346-4.346-4.346-5.928 0-131.622 0-137.716 0-2.4 0-4.346 1.946-4.346 4.346v78.658c0 2.4 1.946 4.346 4.346 4.346z" fill="#b2e26d"/><g fill="#87d147"><path d="m20.084 241.5h22.531c0-14.844-12.033-26.877-26.877-26.877v22.532c0 2.399 1.946 4.345 4.346 4.345z"/><path d="m157.8 241.5h-22.531c0-14.844 12.033-26.877 26.877-26.877v22.532c-.001 2.399-1.946 4.345-4.346 4.345z"/><path d="m157.8 154.151h-22.531c0 14.844 12.033 26.877 26.877 26.877v-22.532c-.001-2.4-1.946-4.345-4.346-4.345z"/><path d="m42.615 154.151h-22.531c-2.4 0-4.346 1.945-4.346 4.346v22.532c14.844-.001 26.877-12.035 26.877-26.878z"/><circle cx="88.942" cy="197.825" r="29.566"/><path d="m15.738 158.496c0-2.4 1.946-4.346 4.346-4.346h128.824v-8.892c0-2.4-1.946-4.346-4.346-4.346-5.928 0-131.622 0-137.716 0-2.4 0-4.346 1.945-4.346 4.346v78.658c0 2.4 1.946 4.346 4.346 4.346h8.892c0-19.7 0-61.555 0-69.766z"/></g><path d="m15.738 204.874c-3.909-2.217-8.423-3.489-13.238-3.489v22.532c0 2.4 1.946 4.346 4.346 4.346h8.892c0-6.188 0-14.56 0-23.389z" fill="#5bbf21"/><path d="m148.908 154.151v-8.892c0-2.4-1.946-4.346-4.346-4.346h-22.532c0 4.815 1.272 9.329 3.489 13.238z" fill="#5bbf21"/><path d="m15.738 158.496c0-2.4 1.946-4.346 4.346-4.346h5.804c2.217-3.909 3.489-8.423 3.489-13.238h-22.531c-2.4 0-4.346 1.945-4.346 4.346v22.532c4.815 0 9.329-1.272 13.238-3.489 0-2.57 0-4.569 0-5.805z" fill="#5bbf21"/><path d="m247.407 87.027h-105.814c-3.365 0-6.093 2.728-6.093 6.093v47.792h9.062c2.393 0 4.346 1.938 4.346 4.346v8.892h8.892c2.392 0 4.346 1.938 4.346 4.346v3.531h85.261c3.365 0 6.093-2.728 6.093-6.093v-62.814c0-3.365-2.728-6.093-6.093-6.093z" fill="#edf4fc"/><path d="m135.5 99.027h118v16h-118z" fill="#3a70bf"/><path d="m215.662 139.046c0-4.074 2.061-7.667 5.197-9.793-2.018-1.604-4.568-2.569-7.347-2.569-6.531 0-11.825 5.294-11.825 11.825s5.294 11.825 11.825 11.825c2.456 0 4.737-.75 6.628-2.032-2.725-2.167-4.478-5.504-4.478-9.256z" fill="#ef4460"/><path d="m227.487 127.221c-2.456 0-4.737.75-6.628 2.032 2.725 2.166 4.478 5.504 4.478 9.256 0 4.074-2.061 7.667-5.197 9.793 2.018 1.604 4.568 2.569 7.347 2.569 6.531 0 11.825-5.294 11.825-11.825s-5.294-11.825-11.825-11.825z" fill="#f5c84c"/><path d="m225.337 138.509c0-3.752-1.753-7.089-4.478-9.256-3.136 2.127-5.197 5.719-5.197 9.793 0 3.752 1.753 7.089 4.478 9.256 3.136-2.127 5.197-5.719 5.197-9.793z" fill="#fc8c48"/><path d="m162.145 181.028v33.595 10.079h61.863c5.458 0 9.924-4.466 9.924-9.924v-52.75h-71.787z" fill="#dae6f1"/><path d="m27.316 70.098c-1.679 0-3.257.803-4.245 2.161-.652.897-1.004 1.978-1.004 3.087v65.567h7.31 92.653 13.47v-25.885-16-5.908c0-3.365 2.728-6.093 6.093-6.093h92.339v-16.93h-206.616z" fill="#dae6f1"/><path d="m27.316 70.098c8.27-2.197 13.885-10.388 13.885-19.35 0-10.687-8.663-19.35-19.35-19.35l212.294-.098h.005.005.548v.028c10.429.295 18.797 8.822 18.797 19.322s-8.369 19.027-18.797 19.322v.127h-207.387z" fill="#3caadc"/><path d="m5.562 141.128c.408-.127.834-.215 1.284-.215h15.222c0-25.4 0-51.072 0-65.567 0-1.109.351-2.19 1.004-3.087.988-1.358 2.565-2.161 4.245-2.161 8.27-2.197 13.885-10.388 13.885-19.35 0-10.687-8.663-19.35-19.35-19.35s-19.35 8.663-19.35 19.35v94.508c-.001-1.949 1.292-3.579 3.06-4.128z" fill="#087ebf"/><path d="m104.075 9.545h-2.07v-2.07c0-1.549-1.256-2.805-2.805-2.805s-2.805 1.256-2.805 2.805v2.07h-2.069c-1.549 0-2.805 1.256-2.805 2.805s1.256 2.805 2.805 2.805h2.069v2.07c0 1.549 1.256 2.805 2.805 2.805s2.805-1.256 2.805-2.805v-2.07h2.07c1.549 0 2.805-1.256 2.805-2.805s-1.256-2.805-2.805-2.805z" fill="#f5c84c"/><path d="m253.745 189.224c1.361-.257 2.255-1.475 2.255-2.749 0-1.529-1.233-2.805-2.805-2.805-1.57 0-2.805 1.3-2.805 2.805.001 1.687 1.52 3.091 3.355 2.749z" fill="#f5c84c"/><path d="m125.506 5.554c1.851.334 3.355-1.05 3.355-2.749 0-1.535-1.237-2.805-2.805-2.805-1.509 0-2.805 1.248-2.805 2.805.001 1.343.972 2.506 2.255 2.749z" fill="#ef4460"/><path d="m180.606 241.554c1.335-.252 2.255-1.45 2.255-2.749 0-1.529-1.233-2.805-2.805-2.805-1.509 0-2.805 1.248-2.805 2.805.001 1.672 1.503 3.094 3.355 2.749z" fill="#87d147"/><path d="m195.943 248.11c3.995.744 7.144 3.829 7.904 7.743.038.197.313.197.351 0 .76-3.914 3.908-6.999 7.904-7.743.201-.037.201-.306 0-.344-3.995-.744-7.144-3.829-7.904-7.743-.038-.197-.313-.197-.351 0-.76 3.914-3.908 6.999-7.904 7.743-.201.038-.201.306 0 .344z" fill="#3caadc"/><path d="m167.444 130.149h-15.594c-1.381 0-2.5-1.119-2.5-2.5s1.119-2.5 2.5-2.5h15.594c1.381 0 2.5 1.119 2.5 2.5s-1.119 2.5-2.5 2.5z"/><path d="m182.192 130.149h-5.034c-1.381 0-2.5-1.119-2.5-2.5s1.119-2.5 2.5-2.5h5.034c1.381 0 2.5 1.119 2.5 2.5s-1.119 2.5-2.5 2.5z"/><path d="m253.5 117.527h-118c-1.381 0-2.5-1.119-2.5-2.5v-16c0-1.381 1.119-2.5 2.5-2.5h118c1.381 0 2.5 1.119 2.5 2.5v16c0 1.381-1.119 2.5-2.5 2.5zm-115.5-5h113v-11h-113z"/><path d="m213.513 152.833c-7.899 0-14.325-6.426-14.325-14.325s6.426-14.325 14.325-14.325c3.263 0 6.341 1.076 8.902 3.112.623.495.973 1.257.942 2.052s-.437 1.528-1.095 1.975c-2.567 1.741-4.101 4.628-4.101 7.724 0 2.853 1.288 5.514 3.534 7.299.623.495.973 1.257.942 2.052s-.437 1.528-1.095 1.974c-2.374 1.611-5.15 2.462-8.029 2.462zm0-23.649c-5.142 0-9.325 4.183-9.325 9.325s4.184 9.325 9.325 9.325c.826 0 1.64-.108 2.424-.318-1.79-2.429-2.774-5.375-2.774-8.47 0-3.467 1.251-6.764 3.457-9.332-.987-.35-2.032-.53-3.107-.53z"/><path d="m227.487 153.371c-3.262 0-6.34-1.076-8.902-3.112-.622-.495-.973-1.257-.942-2.052s.437-1.528 1.095-1.975c2.567-1.742 4.101-4.629 4.101-7.724 0-2.853-1.288-5.514-3.534-7.299-.623-.495-.973-1.257-.942-2.052s.437-1.528 1.095-1.974c2.376-1.611 5.152-2.463 8.031-2.463 7.899 0 14.325 6.426 14.325 14.325-.002 7.9-6.427 14.326-14.327 14.326zm-3.106-5.531c.986.351 2.031.531 3.106.531 5.142 0 9.325-4.183 9.325-9.325s-4.184-9.325-9.325-9.325c-.826 0-1.64.108-2.424.318 1.79 2.429 2.774 5.375 2.774 8.47.001 3.467-1.25 6.763-3.456 9.331z"/><path d="m220.141 150.802c-.552 0-1.102-.182-1.556-.543-3.446-2.739-5.423-6.826-5.423-11.213 0-4.755 2.353-9.189 6.294-11.862.905-.613 2.103-.568 2.959.112 3.446 2.739 5.423 6.826 5.423 11.213 0 4.754-2.353 9.189-6.294 11.862-.425.288-.915.431-1.403.431zm.593-18.185c-1.636 1.717-2.572 4.01-2.572 6.429 0 2.177.75 4.243 2.104 5.892 1.636-1.718 2.572-4.01 2.572-6.429 0-2.178-.75-4.243-2.104-5.892z"/><path d="m234.702 72.598h-207.386c-1.255 0-2.316-.931-2.479-2.176s.624-2.417 1.837-2.74c6.969-1.852 12.027-8.973 12.027-16.934 0-9.292-7.559-16.851-16.85-16.851-1.38 0-2.5-1.119-2.5-2.5s1.118-2.5 2.499-2.5l212.251-.098c.033-.001.063-.001.095 0h.505.002c.156 0 .312.015.464.043 11.713.534 20.833 10.039 20.833 21.806 0 11.622-8.895 21.037-20.398 21.783-.28.108-.583.167-.9.167zm0-2.627h.01zm-198.022-2.373h197.234c.226-.075.467-.119.718-.126 9.179-.26 16.368-7.65 16.368-16.824s-7.19-16.563-16.368-16.823c-.103-.003-.203-.012-.301-.026h-.175c0-.001-.006 0-.008 0-.001 0-.003 0-.004 0l-198.406.092c4.86 4.011 7.962 10.078 7.962 16.857.001 6.641-2.663 12.705-7.02 16.85z"/><path d="m2.5 147.756c-1.381 0-2.5-1.12-2.5-2.5v-94.508c0-12.048 9.802-21.851 21.851-21.851s21.85 9.802 21.85 21.851c0 10.353-6.474 19.304-15.743 21.766-.209.056-.425.084-.642.084-.876 0-1.708.423-2.223 1.132-.343.473-.525 1.032-.525 1.617v65.566c0 1.381-1.119 2.5-2.5 2.5h-15.222c-.144 0-.32.033-.541.102-.78.242-1.305.943-1.305 1.743-.001 1.38-1.12 2.498-2.5 2.498zm3.062-6.629h.01zm16.289-107.23c-9.292 0-16.851 7.559-16.851 16.851v87.939c.642-.184 1.247-.274 1.846-.274h12.722v-63.067c0-1.648.512-3.224 1.481-4.557 1.381-1.898 3.563-3.069 5.896-3.183 6.829-1.962 11.756-9.001 11.756-16.859 0-9.291-7.559-16.85-16.85-16.85z"/><path d="m117.564 100.374h-73.76c-1.381 0-2.5-1.119-2.5-2.5s1.119-2.5 2.5-2.5h73.76c1.381 0 2.5 1.119 2.5 2.5s-1.119 2.5-2.5 2.5z"/><path d="m117.564 113.852h-73.76c-1.381 0-2.5-1.119-2.5-2.5s1.119-2.5 2.5-2.5h73.76c1.381 0 2.5 1.119 2.5 2.5s-1.119 2.5-2.5 2.5z"/><path d="m117.564 127.331h-73.76c-1.381 0-2.5-1.119-2.5-2.5s1.119-2.5 2.5-2.5h73.76c1.381 0 2.5 1.119 2.5 2.5s-1.119 2.5-2.5 2.5z"/><path d="m92.699 213.895h-10.651c-1.381 0-2.5-1.119-2.5-2.5s1.119-2.5 2.5-2.5h10.651c2.363 0 4.285-1.922 4.285-4.285s-1.922-4.285-4.285-4.285h-7.515c-5.12 0-9.285-4.165-9.285-9.285s4.165-9.285 9.285-9.285h12.019c1.381 0 2.5 1.119 2.5 2.5s-1.119 2.5-2.5 2.5h-12.019c-2.363 0-4.285 1.922-4.285 4.285s1.922 4.285 4.285 4.285h7.515c5.12 0 9.285 4.165 9.285 9.285s-4.165 9.285-9.285 9.285z"/><path d="m88.942 218.537c-1.381 0-2.5-1.119-2.5-2.5v-36.423c0-1.381 1.119-2.5 2.5-2.5s2.5 1.119 2.5 2.5v36.423c0 1.38-1.119 2.5-2.5 2.5z"/><path d="m45.68 200.325h-6.69c-1.381 0-2.5-1.119-2.5-2.5s1.119-2.5 2.5-2.5h6.69c1.381 0 2.5 1.119 2.5 2.5s-1.119 2.5-2.5 2.5z"/><path d="m138.894 200.325h-6.69c-1.381 0-2.5-1.119-2.5-2.5s1.119-2.5 2.5-2.5h6.69c1.381 0 2.5 1.119 2.5 2.5s-1.12 2.5-2.5 2.5z"/><path d="m157.8 244h-137.717c-3.775 0-6.846-3.071-6.846-6.846v-78.658c0-3.775 3.071-6.846 6.846-6.846h137.717c3.774 0 6.846 3.071 6.846 6.846v78.658c0 3.775-3.072 6.846-6.846 6.846zm-137.717-87.35c-1.018 0-1.846.828-1.846 1.846v78.658c0 1.018.828 1.846 1.846 1.846h137.717c1.018 0 1.846-.828 1.846-1.846v-78.658c0-1.018-.828-1.846-1.846-1.846z"/><path d="m42.615 244h-22.532c-3.775 0-6.846-3.071-6.846-6.846v-22.532c0-1.381 1.119-2.5 2.5-2.5 16.199 0 29.377 13.179 29.377 29.377.001 1.382-1.118 2.501-2.499 2.501zm-24.377-26.75v19.904c0 1.018.828 1.846 1.846 1.846h19.904c-1.172-11.449-10.301-20.578-21.75-21.75z"/><path d="m157.8 244h-22.531c-1.381 0-2.5-1.119-2.5-2.5 0-16.199 13.179-29.377 29.377-29.377 1.381 0 2.5 1.119 2.5 2.5v22.532c0 3.774-3.072 6.845-6.846 6.845zm-19.904-5h19.904c1.018 0 1.846-.828 1.846-1.846v-19.904c-11.45 1.172-20.579 10.301-21.75 21.75z"/><path d="m162.146 183.528c-16.198 0-29.377-13.179-29.377-29.377 0-1.381 1.119-2.5 2.5-2.5h22.531c3.774 0 6.846 3.071 6.846 6.846v22.532c0 1.38-1.12 2.499-2.5 2.499zm-24.25-26.878c1.172 11.449 10.301 20.578 21.75 21.75v-19.904c0-1.018-.828-1.846-1.846-1.846z"/><path d="m15.738 183.528c-1.381 0-2.5-1.119-2.5-2.5v-22.532c0-3.775 3.071-6.846 6.846-6.846h22.532c1.381 0 2.5 1.119 2.5 2.5-.001 16.199-13.179 29.378-29.378 29.378zm4.345-26.878c-1.018 0-1.846.828-1.846 1.846v19.904c11.449-1.172 20.578-10.301 21.75-21.75z"/><path d="m88.942 229.891c-17.681 0-32.066-14.385-32.066-32.066s14.385-32.066 32.066-32.066 32.065 14.385 32.065 32.066-14.384 32.066-32.065 32.066zm0-59.132c-14.924 0-27.066 12.142-27.066 27.066s12.142 27.066 27.066 27.066 27.065-12.142 27.065-27.066-12.141-27.066-27.065-27.066z"/><path d="m15.738 230.762h-8.892c-3.775 0-6.846-3.071-6.846-6.846v-78.658c0-3.775 3.071-6.846 6.846-6.846h137.716c3.774 0 6.846 3.071 6.846 6.846v8.892c0 1.381-1.119 2.5-2.5 2.5h-128.825c-1.018 0-1.846.828-1.846 1.846v69.766c.001 1.381-1.118 2.5-2.499 2.5zm-8.892-87.349c-1.018 0-1.846.828-1.846 1.846v78.658c0 1.018.828 1.846 1.846 1.846h6.392v-67.266c0-3.775 3.071-6.846 6.846-6.846h126.324v-6.392c0-1.018-.828-1.846-1.846-1.846z"/><path d="m15.738 230.762h-8.892c-3.775 0-6.846-3.071-6.846-6.846v-22.532c0-1.381 1.119-2.5 2.5-2.5 5.068 0 10.073 1.319 14.471 3.815.783.444 1.267 1.274 1.267 2.174v23.388c0 1.382-1.119 2.501-2.5 2.501zm-10.738-26.748v19.903c0 1.018.828 1.846 1.846 1.846h6.392v-19.383c-2.581-1.269-5.376-2.07-8.238-2.366z"/><path d="m148.907 156.65h-23.387c-.9 0-1.73-.484-2.174-1.267-2.496-4.4-3.815-9.404-3.815-14.471 0-1.381 1.119-2.5 2.5-2.5h22.531c3.774 0 6.846 3.071 6.846 6.846v8.892c-.001 1.381-1.12 2.5-2.501 2.5zm-21.883-5h19.383v-6.392c0-1.018-.828-1.846-1.846-1.846h-19.902c.296 2.862 1.097 5.657 2.365 8.238z"/><path d="m2.5 170.29c-1.381 0-2.5-1.119-2.5-2.5v-22.532c0-3.775 3.071-6.846 6.846-6.846h22.532c1.381 0 2.5 1.119 2.5 2.5 0 5.068-1.319 10.072-3.815 14.471-.444.783-1.274 1.267-2.174 1.267h-5.804c-1.018 0-1.846.828-1.846 1.846v5.805c0 .9-.484 1.73-1.267 2.174-4.401 2.496-9.405 3.815-14.472 3.815zm4.346-26.877c-1.018 0-1.846.828-1.846 1.846v19.903c2.862-.296 5.656-1.097 8.238-2.365v-4.3c0-3.775 3.071-6.846 6.846-6.846h4.299c1.269-2.582 2.07-5.376 2.366-8.238zm8.892 20.888h.01z"/><path d="m224.009 227.202h-61.863c-1.381 0-2.5-1.119-2.5-2.5v-62.674c0-1.381 1.119-2.5 2.5-2.5h71.787c1.381 0 2.5 1.119 2.5 2.5v52.75c0 6.85-5.574 12.424-12.424 12.424zm-59.363-5h59.363c4.094 0 7.424-3.33 7.424-7.424v-50.25h-66.787z"/><path d="m135.5 143.413h-113.433c-1.381 0-2.5-1.119-2.5-2.5v-65.567c0-1.648.512-3.224 1.481-4.557 1.454-1.999 3.796-3.191 6.267-3.191h206.617c1.381 0 2.5 1.119 2.5 2.5v16.93c0 1.381-1.119 2.5-2.5 2.5h-92.34c-1.981 0-3.593 1.612-3.593 3.593v47.792c.001 1.38-1.118 2.5-2.499 2.5zm-110.933-5h108.433v-45.293c0-4.738 3.854-8.593 8.593-8.593h89.84v-11.93h-204.117c-.876 0-1.708.423-2.223 1.132-.343.473-.525 1.032-.525 1.617v63.067z"/><path d="m247.407 164.527h-85.262c-1.381 0-2.5-1.119-2.5-2.5v-3.531c0-1.018-.828-1.846-1.846-1.846h-8.893c-1.381 0-2.5-1.119-2.5-2.5v-8.892c0-1.018-.828-1.846-1.846-1.846h-9.06c-1.381 0-2.5-1.119-2.5-2.5v-47.792c0-4.738 3.854-8.593 8.593-8.593h105.814c4.738 0 8.593 3.854 8.593 8.593v62.814c0 4.738-3.854 8.593-8.593 8.593zm-82.761-5h82.762c1.981 0 3.593-1.612 3.593-3.593v-62.814c0-1.981-1.611-3.593-3.593-3.593h-105.815c-1.981 0-3.593 1.612-3.593 3.593v45.292h6.562c3.774 0 6.846 3.071 6.846 6.846v6.392h6.393c3.774 0 6.846 3.071 6.846 6.846v1.031z"/></svg>