<svg enable-background="new 0 0 256 256" height="512" viewBox="0 0 256 256" width="512" xmlns="http://www.w3.org/2000/svg"><path d="m230.449 253.463h-215.332c-3.062 0-5.545-2.483-5.545-5.545s2.483-5.545 5.545-5.545h215.332c3.062 0 5.545 2.483 5.545 5.545s-2.483 5.545-5.545 5.545z" fill="#dae6f1"/><path d="m221.207 242.373h-196.848c-3.062 0-5.545-2.483-5.545-5.545s2.483-5.545 5.545-5.545h196.848c3.062 0 5.545 2.483 5.545 5.545s-2.482 5.545-5.545 5.545z" fill="#c7d7e5"/><path d="m217.049 225.738c0-3.062-2.483-5.545-5.545-5.545h-42.512c-3.062 0-5.545 2.483-5.545 5.545s2.483 5.545 5.545 5.545h42.512c3.062 0 5.545-2.483 5.545-5.545z" fill="#edf4fc"/><path d="m149.584 225.738c0-3.062-2.483-5.545-5.545-5.545h-42.512c-3.062 0-5.545 2.483-5.545 5.545s2.483 5.545 5.545 5.545h42.512c3.062 0 5.545-2.483 5.545-5.545z" fill="#edf4fc"/><path d="m82.12 225.738c0-3.062-2.483-5.545-5.545-5.545h-42.512c-3.062 0-5.545 2.483-5.545 5.545s2.483 5.545 5.545 5.545h42.512c3.062 0 5.545-2.483 5.545-5.545z" fill="#edf4fc"/><path d="m217.049 123.859c0-3.062-2.483-5.545-5.545-5.545h-42.512c-3.062 0-5.545 2.483-5.545 5.545s2.483 5.545 5.545 5.545h42.512c3.062 0 5.545-2.483 5.545-5.545z" fill="#edf4fc"/><path d="m149.584 123.859c0-3.062-2.483-5.545-5.545-5.545h-42.512c-3.062 0-5.545 2.483-5.545 5.545s2.483 5.545 5.545 5.545h42.512c3.062 0 5.545-2.483 5.545-5.545z" fill="#edf4fc"/><path d="m82.12 123.859c0-3.062-2.483-5.545-5.545-5.545h-42.512c-3.062 0-5.545 2.483-5.545 5.545s2.483 5.545 5.545 5.545h42.512c3.062 0 5.545-2.483 5.545-5.545z" fill="#edf4fc"/><g fill="#dae6f1"><path d="m211.504 220.193c.052 0 .102.006.154.008v-5.353c0-2.278-1.847-4.125-4.125-4.125h-33.646c-2.278 0-4.125 1.847-4.125 4.125v5.345z"/><path d="m143.577 220.193c.052 0 .102.006.154.008v-5.353c0-2.278-1.847-4.125-4.125-4.125h-33.646c-2.278 0-4.125 1.847-4.125 4.125v5.345z"/><path d="m76.113 220.193c.052 0 .102.006.154.008v-5.353c0-2.278-1.847-4.125-4.125-4.125h-33.646c-2.278 0-4.125 1.847-4.125 4.125v5.345z"/><path d="m211.504 129.404h-41.742v5.337c0 2.278 1.847 4.125 4.125 4.125h33.646c2.278 0 4.125-1.847 4.125-4.125v-5.345c-.052.002-.102.008-.154.008z"/><path d="m101.835 129.404v5.337c0 2.278 1.847 4.125 4.125 4.125h33.646c2.278 0 4.125-1.847 4.125-4.125v-5.337z"/><path d="m34.371 129.404v5.337c0 2.278 1.847 4.125 4.125 4.125h33.646c2.278 0 4.125-1.847 4.125-4.125v-5.337z"/></g><path d="m105.96 210.723h33.383v-71.857h-33.383c-.226 0-.444-.032-.661-.067v71.99c.217-.034.435-.066.661-.066z" fill="#c7d7e5"/><path d="m207.533 138.866h-33.646c-.068 0-.132-.017-.199-.02v71.897c.067-.003.131-.02.199-.02h33.646c.068 0 .132.017.199.02v-71.897c-.068.003-.131.02-.199.02z" fill="#c7d7e5"/><path d="m38.496 210.723h33.383v-71.857h-33.383c-.226 0-.444-.032-.661-.067v71.99c.216-.034.434-.066.661-.066z" fill="#c7d7e5"/><path d="m168.992 118.314h-24.953c3.062 0 5.545 2.483 5.545 5.545s-2.483 5.545-5.545 5.545h-.308v4.841h26.031v-4.841h-.77c-3.062 0-5.545-2.483-5.545-5.545s2.483-5.545 5.545-5.545z" fill="#29589f"/><path d="m101.835 134.245v-4.841h-.308c-3.062 0-5.545-2.483-5.545-5.545s2.483-5.545 5.545-5.545h-24.952c3.062 0 5.545 2.483 5.545 5.545s-2.483 5.545-5.545 5.545h-.308v4.841z" fill="#29589f"/><path d="m143.731 134.245v.496c0 2.278-1.847 4.125-4.125 4.125h-.263v71.857h.263c2.278 0 4.125 1.847 4.125 4.125v5.345h.308c3.062 0 5.545 2.483 5.545 5.545s-2.483 5.545-5.545 5.545h24.953c-3.062 0-5.545-2.483-5.545-5.545s2.483-5.545 5.545-5.545h.77v-5.345c0-2.278 1.847-4.125 4.125-4.125-.068 0-.132.017-.199.02v-71.897c.067.003.131.02.199.02-2.278 0-4.125-1.847-4.125-4.125v-.496z" fill="#5290db"/><path d="m76.575 231.283h24.953c-3.062 0-5.545-2.483-5.545-5.545s2.483-5.545 5.545-5.545h.308v-5.345c0-2.278 1.847-4.125 4.125-4.125-.226 0-.444.032-.661.067v-71.99c.216.035.435.067.661.067-2.278 0-4.125-1.847-4.125-4.125v-.496h-25.569v.496c0 2.278-1.847 4.125-4.125 4.125h-.263v71.857h.263c2.278 0 4.125 1.847 4.125 4.125v5.345h.308c3.062 0 5.545 2.483 5.545 5.545 0 3.061-2.483 5.544-5.545 5.544z" fill="#5290db"/><path d="m241.375 43.499h-4.596c-.956 0-1.779-.634-2.067-1.545-.745-2.359-1.69-4.629-2.816-6.79-.442-.848-.308-1.88.368-2.556l3.252-3.252c1.973-1.973 1.973-5.172 0-7.146l-8.799-8.799c-1.973-1.973-5.173-1.973-7.146 0l-3.252 3.252c-.676.676-1.707.81-2.556.368-2.162-1.126-4.431-2.071-6.79-2.816-.911-.288-1.545-1.111-1.545-2.066v-4.596c0-2.79-2.262-5.053-5.053-5.053h-12.444c-2.791 0-5.053 2.262-5.053 5.053v4.596c0 .956-.634 1.779-1.545 2.066-2.359.745-4.629 1.69-6.791 2.816-.848.442-1.879.308-2.556-.368l-3.252-3.252c-1.973-1.973-5.172-1.973-7.146 0l-8.799 8.799c-1.973 1.973-1.973 5.173 0 7.146l3.252 3.252c.676.676.81 1.707.368 2.556-1.126 2.162-2.071 4.431-2.816 6.79-.288.911-1.111 1.545-2.067 1.545h-4.596c-2.791 0-5.053 2.262-5.053 5.053v12.444c0 2.791 2.262 5.053 5.053 5.053h4.596c.956 0 1.779.634 2.067 1.545.745 2.359 1.69 4.629 2.816 6.79.442.848.308 1.88-.368 2.556l-3.252 3.252c-1.973 1.973-1.973 5.173 0 7.146l8.799 8.799c1.973 1.973 5.172 1.973 7.146 0l3.252-3.252c.676-.676 1.707-.81 2.555-.369 2.162 1.126 4.431 2.071 6.79 2.816.911.288 1.545 1.111 1.545 2.066v4.596c0 2.791 2.262 5.053 5.053 5.053h12.444c2.791 0 5.053-2.262 5.053-5.053v-4.596c0-.956.634-1.779 1.545-2.066 2.359-.745 4.629-1.69 6.79-2.816.848-.442 1.879-.308 2.555.369l3.252 3.252c1.973 1.973 5.172 1.973 7.146 0l8.799-8.799c1.973-1.973 1.973-5.173 0-7.146l-3.252-3.252c-.676-.676-.81-1.707-.368-2.556 1.126-2.162 2.071-4.431 2.816-6.79.288-.911 1.111-1.545 2.067-1.545h4.596c2.79 0 5.053-2.262 5.053-5.053v-12.445c.003-2.79-2.259-5.052-5.05-5.052z" fill="#fcdd86"/><path d="m141.881 48.551c0-2.791 2.262-5.053 5.053-5.053h2.57c-10.839-9.693-19.461-17.404-23.025-20.591-2.105-1.882-5.288-1.882-7.393 0l-102.06 91.273c-2.283 2.041-2.478 5.547-.437 7.83 2.042 2.284 5.548 2.478 7.83.437l98.365-87.967c3.222 2.881 10.228 9.147 19.098 17.08v-3.009z" fill="#edf4fc"/><path d="m207.329 95.211c-.119.039-.235.083-.354.121-.911.288-1.545 1.111-1.545 2.066v4.596c0 1.805-.953 3.377-2.377 4.271 8.981 8.031 15.751 14.086 18.096 16.183 2.279 2.038 5.784 1.849 7.83-.437 2.041-2.282 1.846-5.788-.437-7.83-3.413-3.052-11.269-10.077-21.213-18.97z" fill="#edf4fc"/><path d="m200.377 107.046h-12.444c-2.791 0-5.053-2.262-5.053-5.053v-4.596c0-.956-.634-1.779-1.545-2.066-2.359-.745-4.629-1.69-6.791-2.816-.848-.442-1.879-.308-2.555.369l-3.252 3.251c-1.973 1.973-5.172 1.973-7.146 0l-8.799-8.799c-1.973-1.973-1.973-5.173 0-7.146l3.252-3.251c.676-.676.81-1.707.369-2.556-1.126-2.162-2.071-4.431-2.816-6.79-.288-.911-1.111-1.545-2.067-1.545h-4.596c-2.791 0-5.053-2.262-5.053-5.053v-9.435l-19.098-17.08-93.743 83.834h187.486l-13.474-12.05c-.777.488-1.69.782-2.675.782z" fill="#c7d7e5"/><circle cx="122.928" cy="85.037" fill="#edf4fc" r="12.5"/><circle cx="194.155" cy="54.773" fill="#f5c84c" r="31.376"/><circle cx="194.155" cy="54.773" fill="#87d147" r="22.132"/><path d="m231.456 156.911h-2.07v-2.07c0-1.549-1.256-2.805-2.805-2.805s-2.805 1.256-2.805 2.805v2.07h-2.069c-1.549 0-2.805 1.256-2.805 2.805s1.256 2.805 2.805 2.805h2.069v2.07c0 1.549 1.256 2.805 2.805 2.805s2.805-1.256 2.805-2.805v-2.07h2.07c1.549 0 2.805-1.256 2.805-2.805s-1.255-2.805-2.805-2.805z" fill="#3caadc"/><path d="m242.528 135.856c-1.854-.335-3.355 1.052-3.355 2.749 0 1.549 1.249 2.805 2.805 2.805 1.491 0 2.805-1.2 2.805-2.805 0-1.352-.978-2.508-2.255-2.749z" fill="#87d147"/><path d="m60.528 36.856c-1.849-.334-3.355 1.047-3.355 2.749 0 1.28.901 2.493 2.255 2.749 1.806.336 3.354-1.042 3.354-2.749.001-1.352-.977-2.508-2.254-2.749z" fill="#f5c84c"/><path d="m51.092 61.927c-3.995-.744-7.144-3.829-7.904-7.743-.038-.197-.313-.197-.351 0-.76 3.914-3.908 6.999-7.904 7.743-.201.037-.201.306 0 .344 3.995.744 7.144 3.829 7.904 7.743.038.197.313.197.351 0 .76-3.914 3.908-6.999 7.904-7.743.201-.038.201-.307 0-.344z" fill="#ef4460"/><path d="m230.449 255.963h-215.332c-4.436 0-8.045-3.609-8.045-8.045s3.609-8.045 8.045-8.045h215.332c4.436 0 8.045 3.609 8.045 8.045s-3.609 8.045-8.045 8.045zm-215.332-11.09c-1.679 0-3.045 1.366-3.045 3.045s1.366 3.045 3.045 3.045h215.332c1.679 0 3.045-1.366 3.045-3.045s-1.366-3.045-3.045-3.045z"/><path d="m221.207 244.873h-196.848c-4.436 0-8.045-3.609-8.045-8.045s3.609-8.045 8.045-8.045h196.848c4.436 0 8.045 3.609 8.045 8.045s-3.609 8.045-8.045 8.045zm-196.848-11.09c-1.679 0-3.045 1.366-3.045 3.045s1.366 3.045 3.045 3.045h196.848c1.679 0 3.045-1.366 3.045-3.045s-1.366-3.045-3.045-3.045z"/><path d="m211.504 233.783h-42.512c-4.437 0-8.046-3.609-8.046-8.045s3.609-8.045 8.046-8.045h42.512c4.436 0 8.045 3.609 8.045 8.045s-3.61 8.045-8.045 8.045zm-42.512-11.09c-1.68 0-3.046 1.366-3.046 3.045s1.366 3.045 3.046 3.045h42.512c1.679 0 3.045-1.366 3.045-3.045s-1.366-3.045-3.045-3.045z"/><path d="m144.039 233.783h-42.512c-4.436 0-8.045-3.609-8.045-8.045s3.609-8.045 8.045-8.045h42.512c4.436 0 8.045 3.609 8.045 8.045s-3.609 8.045-8.045 8.045zm-42.512-11.09c-1.679 0-3.045 1.366-3.045 3.045s1.366 3.045 3.045 3.045h42.512c1.679 0 3.045-1.366 3.045-3.045s-1.366-3.045-3.045-3.045z"/><path d="m76.574 233.783h-42.512c-4.436 0-8.045-3.609-8.045-8.045s3.609-8.045 8.045-8.045h42.512c4.437 0 8.046 3.609 8.046 8.045s-3.609 8.045-8.046 8.045zm-42.512-11.09c-1.679 0-3.045 1.366-3.045 3.045s1.366 3.045 3.045 3.045h42.512c1.68 0 3.046-1.366 3.046-3.045s-1.366-3.045-3.046-3.045z"/><path d="m211.504 131.904h-42.512c-4.437 0-8.046-3.609-8.046-8.045 0-4.437 3.609-8.046 8.046-8.046h42.512c4.436 0 8.045 3.609 8.045 8.046 0 4.436-3.61 8.045-8.045 8.045zm-42.512-11.091c-1.68 0-3.046 1.366-3.046 3.046 0 1.679 1.366 3.045 3.046 3.045h42.512c1.679 0 3.045-1.366 3.045-3.045 0-1.68-1.366-3.046-3.045-3.046z"/><path d="m144.039 131.904h-42.512c-4.436 0-8.045-3.609-8.045-8.045 0-4.437 3.609-8.046 8.045-8.046h42.512c4.436 0 8.045 3.609 8.045 8.046 0 4.436-3.609 8.045-8.045 8.045zm-42.512-11.091c-1.679 0-3.045 1.366-3.045 3.046 0 1.679 1.366 3.045 3.045 3.045h42.512c1.679 0 3.045-1.366 3.045-3.045 0-1.68-1.366-3.046-3.045-3.046z"/><path d="m76.574 131.904h-42.512c-4.436 0-8.045-3.609-8.045-8.045 0-4.437 3.609-8.046 8.045-8.046h42.512c4.437 0 8.046 3.609 8.046 8.046 0 4.436-3.609 8.045-8.046 8.045zm-42.512-11.091c-1.679 0-3.045 1.366-3.045 3.046 0 1.679 1.366 3.045 3.045 3.045h42.512c1.68 0 3.046-1.366 3.046-3.045 0-1.68-1.366-3.046-3.046-3.046z"/><path d="m211.657 222.701c-.052 0-.109-.003-.206-.008h-41.689c-1.381 0-2.5-1.119-2.5-2.5v-5.346c0-3.652 2.972-6.624 6.625-6.624h33.646c3.652 0 6.624 2.972 6.624 6.624v5.354c0 .68-.276 1.33-.767 1.802-.466.448-1.087.698-1.733.698zm-.153-.008h.01zm-39.242-5h36.896v-2.846c0-.896-.729-1.624-1.624-1.624h-33.646c-.896 0-1.625.729-1.625 1.624v2.846z"/><path d="m143.731 222.693h-41.896c-1.381 0-2.5-1.119-2.5-2.5v-5.346c0-3.652 2.972-6.624 6.625-6.624h33.646c3.653 0 6.625 2.972 6.625 6.624v5.346c0 1.381-1.119 2.5-2.5 2.5zm-39.396-5h36.896v-2.846c0-.896-.729-1.624-1.625-1.624h-33.646c-.896 0-1.625.729-1.625 1.624z"/><path d="m207.533 141.366h-33.646c-3.653 0-6.625-2.972-6.625-6.625v-5.337c0-1.381 1.119-2.5 2.5-2.5h41.688c.085-.004.161-.008.207-.008.654 0 1.283.257 1.751.715.479.471.749 1.114.749 1.785v5.345c0 3.654-2.971 6.625-6.624 6.625zm-35.271-9.462v2.837c0 .896.729 1.625 1.625 1.625h33.646c.896 0 1.624-.729 1.624-1.625v-2.837z"/><path d="m139.606 141.366h-33.646c-3.653 0-6.625-2.972-6.625-6.625v-5.337c0-1.381 1.119-2.5 2.5-2.5h41.896c1.381 0 2.5 1.119 2.5 2.5v5.337c0 3.654-2.971 6.625-6.625 6.625zm-35.271-9.462v2.837c0 .896.729 1.625 1.625 1.625h33.646c.896 0 1.625-.729 1.625-1.625v-2.837z"/><path d="m72.142 141.366h-33.646c-3.653 0-6.625-2.972-6.625-6.625v-5.337c0-1.381 1.119-2.5 2.5-2.5h41.896c1.381 0 2.5 1.119 2.5 2.5v5.337c0 3.654-2.972 6.625-6.625 6.625zm-35.271-9.462v2.837c0 .896.729 1.625 1.625 1.625h33.646c.896 0 1.625-.729 1.625-1.625v-2.837z"/><path d="m76.267 222.693h-41.896c-1.381 0-2.5-1.119-2.5-2.5v-5.346c0-3.652 2.972-6.624 6.625-6.624h33.646c3.653 0 6.625 2.972 6.625 6.624v5.346c0 1.381-1.12 2.5-2.5 2.5zm-39.396-5h36.896v-2.846c0-.896-.729-1.624-1.625-1.624h-33.646c-.896 0-1.625.729-1.625 1.624z"/><path d="m195.908 201.591c-1.381 0-2.5-1.119-2.5-2.5v-46.824c0-1.381 1.119-2.5 2.5-2.5s2.5 1.119 2.5 2.5v46.824c0 1.381-1.119 2.5-2.5 2.5z"/><path d="m185.512 201.591c-1.381 0-2.5-1.119-2.5-2.5v-46.824c0-1.381 1.119-2.5 2.5-2.5s2.5 1.119 2.5 2.5v46.824c0 1.381-1.119 2.5-2.5 2.5z"/><path d="m127.52 201.591c-1.381 0-2.5-1.119-2.5-2.5v-46.824c0-1.381 1.119-2.5 2.5-2.5s2.5 1.119 2.5 2.5v46.824c0 1.381-1.12 2.5-2.5 2.5z"/><path d="m117.123 201.591c-1.381 0-2.5-1.119-2.5-2.5v-46.824c0-1.381 1.119-2.5 2.5-2.5s2.5 1.119 2.5 2.5v46.824c0 1.381-1.119 2.5-2.5 2.5z"/><path d="m60.055 201.591c-1.381 0-2.5-1.119-2.5-2.5v-46.824c0-1.381 1.119-2.5 2.5-2.5s2.5 1.119 2.5 2.5v46.824c0 1.381-1.119 2.5-2.5 2.5z"/><path d="m49.658 201.591c-1.381 0-2.5-1.119-2.5-2.5v-46.824c0-1.381 1.119-2.5 2.5-2.5s2.5 1.119 2.5 2.5v46.824c0 1.381-1.119 2.5-2.5 2.5z"/><path d="m105.299 213.29c-.59 0-1.165-.209-1.62-.596-.559-.476-.88-1.171-.88-1.904v-71.99c0-.733.321-1.429.88-1.904.558-.475 1.293-.682 2.021-.563.086.014.171.033.261.034h33.383c1.381 0 2.5 1.119 2.5 2.5v71.857c0 1.381-1.119 2.5-2.5 2.5h-33.384c-.09.001-.175.021-.261.034-.134.021-.267.032-.4.032zm2.5-5.066h29.044v-66.857h-29.044z"/><path d="m207.731 213.243c-.036 0-.072-.001-.108-.002-.049-.003-.133-.01-.208-.018h-33.415c-.076.008-.159.016-.204.018-.678.021-1.345-.221-1.837-.692-.493-.472-.771-1.124-.771-1.806v-71.897c0-.688.283-1.346.784-1.818.499-.472 1.176-.714 1.86-.678.041.003.111.01.177.017h33.404c.066-.007.136-.014.174-.017.682-.045 1.361.206 1.86.678.501.473.784 1.13.784 1.818v71.897c0 .682-.278 1.334-.771 1.806-.466.446-1.086.694-1.729.694zm-31.543-5.019h29.044v-66.857h-29.044z"/><path d="m37.835 213.29c-.589 0-1.164-.208-1.619-.596-.559-.475-.881-1.171-.881-1.904v-71.99c0-.733.322-1.43.881-1.904.559-.477 1.293-.68 2.021-.563.085.014.17.033.259.034h33.383c1.381 0 2.5 1.119 2.5 2.5v71.857c0 1.381-1.119 2.5-2.5 2.5h-33.383c-.089.001-.174.021-.259.034-.133.021-.268.032-.402.032zm2.5-5.066h29.044v-66.857h-29.044z"/><path d="m169.762 136.745h-26.03c-1.381 0-2.5-1.119-2.5-2.5v-4.841c0-1.381 1.119-2.5 2.5-2.5h.308c1.679 0 3.045-1.366 3.045-3.045 0-1.68-1.366-3.046-3.045-3.046-1.381 0-2.5-1.119-2.5-2.5s1.119-2.5 2.5-2.5h24.953c1.381 0 2.5 1.119 2.5 2.5s-1.119 2.5-2.5 2.5c-1.68 0-3.046 1.366-3.046 3.046 0 1.679 1.366 3.045 3.046 3.045h.77c1.381 0 2.5 1.119 2.5 2.5v4.841c-.001 1.381-1.12 2.5-2.501 2.5zm-23.531-5 21.03-.028c-3.607-.793-6.315-4.016-6.315-7.857 0-1.077.213-2.105.599-3.046h-10.06c.386.94.599 1.969.599 3.046 0 3.676-2.479 6.784-5.853 7.741z"/><path d="m101.835 136.745h-25.568c-1.381 0-2.5-1.119-2.5-2.5v-4.841c0-1.381 1.119-2.5 2.5-2.5h.308c1.68 0 3.046-1.366 3.046-3.045 0-1.68-1.366-3.046-3.046-3.046-1.381 0-2.5-1.119-2.5-2.5s1.119-2.5 2.5-2.5h24.953c1.381 0 2.5 1.119 2.5 2.5s-1.119 2.5-2.5 2.5c-1.679 0-3.045 1.366-3.045 3.046 0 1.679 1.366 3.045 3.045 3.045h.308c1.381 0 2.5 1.119 2.5 2.5v4.841c-.001 1.381-1.12 2.5-2.501 2.5zm-23.068-5h20.568v-.145c-3.374-.957-5.853-4.065-5.853-7.741 0-1.077.213-2.105.599-3.046h-10.06c.386.94.599 1.969.599 3.046 0 3.676-2.479 6.784-5.854 7.741v.145z"/><path d="m168.992 233.783h-24.953c-1.381 0-2.5-1.119-2.5-2.5s1.119-2.5 2.5-2.5c1.679 0 3.045-1.366 3.045-3.045s-1.366-3.045-3.045-3.045h-.308c-1.381 0-2.5-1.119-2.5-2.5v-5.346c0-.896-.729-1.624-1.625-1.624h-.264c-1.381 0-2.5-1.119-2.5-2.5v-71.857c0-1.381 1.119-2.5 2.5-2.5h.264c.896 0 1.625-.729 1.625-1.625v-.496c0-1.381 1.119-2.5 2.5-2.5h26.03c1.381 0 2.5 1.119 2.5 2.5v.496c0 .81.595 1.482 1.37 1.605.065-.004.134-.002.2.003.053.003.153.014.229.022 1.299.09 2.325 1.172 2.325 2.494 0 .348-.071.679-.199.979v69.898c.128.301.199.632.199.979 0 1.327-1.033 2.412-2.34 2.495-.085.009-.196.02-.251.022-.053.001-.105.004-.158.001-.778.12-1.376.795-1.376 1.605v5.346c0 1.381-1.119 2.5-2.5 2.5h-.77c-1.68 0-3.046 1.366-3.046 3.045s1.366 3.045 3.046 3.045c1.381 0 2.5 1.119 2.5 2.5s-1.117 2.503-2.498 2.503zm-17.507-5h10.06c-.386-.939-.599-1.968-.599-3.045 0-3.842 2.708-7.064 6.315-7.857v-3.033c0-2.691 1.614-5.014 3.926-6.049v-68.008c-1.712-.767-3.042-2.239-3.616-4.046h-21.649c-.625 1.966-2.146 3.537-4.079 4.232v67.635c2.556.919 4.389 3.367 4.389 6.235v3.149c3.374.957 5.853 4.065 5.853 7.741-.001 1.078-.214 2.107-.6 3.046z"/><path d="m101.527 233.783h-24.953c-1.381 0-2.5-1.119-2.5-2.5s1.119-2.5 2.5-2.5c1.68 0 3.046-1.366 3.046-3.045s-1.366-3.045-3.046-3.045h-.308c-1.381 0-2.5-1.119-2.5-2.5v-5.346c0-.896-.729-1.624-1.625-1.624h-.263c-1.381 0-2.5-1.119-2.5-2.5v-71.857c0-1.381 1.119-2.5 2.5-2.5h.263c.896 0 1.625-.729 1.625-1.625v-.496c0-1.381 1.119-2.5 2.5-2.5h25.568c1.381 0 2.5 1.119 2.5 2.5v.496c0 .751.513 1.386 1.206 1.57.053.005.105.012.158.021.086.014.171.033.261.034 1.381 0 2.5 1.119 2.5 2.5 0 .653-.251 1.248-.661 1.693v68.471c.41.445.661 1.04.661 1.693 0 1.381-1.119 2.5-2.5 2.5-.09.001-.175.021-.261.034-.053.009-.105.016-.158.021-.693.185-1.206.818-1.206 1.569v5.346c0 1.381-1.119 2.5-2.5 2.5h-.308c-1.679 0-3.045 1.366-3.045 3.045s1.366 3.045 3.045 3.045c1.381 0 2.5 1.119 2.5 2.5s-1.118 2.5-2.499 2.5zm-17.506-5h10.06c-.386-.939-.599-1.968-.599-3.045 0-3.676 2.479-6.784 5.853-7.741v-3.149c0-2.509 1.402-4.696 3.464-5.82v-68.465c-1.488-.812-2.633-2.177-3.154-3.817h-21.188c-.625 1.966-2.145 3.536-4.078 4.232v67.635c2.556.92 4.388 3.367 4.388 6.235v3.149c3.374.957 5.854 4.065 5.854 7.741-.001 1.077-.214 2.106-.6 3.045z"/><path d="m88.127 201.438c-1.381 0-2.5-1.119-2.5-2.5v-47.133c0-1.381 1.119-2.5 2.5-2.5s2.5 1.119 2.5 2.5v47.133c0 1.38-1.119 2.5-2.5 2.5z"/><path d="m156.516 201.438c-1.381 0-2.5-1.119-2.5-2.5v-47.133c0-1.381 1.119-2.5 2.5-2.5s2.5 1.119 2.5 2.5v47.133c0 1.38-1.12 2.5-2.5 2.5z"/><path d="m200.377 109.546h-12.444c-4.165 0-7.553-3.388-7.553-7.553v-4.343c-2.332-.748-4.618-1.696-6.802-2.82l-3.073 3.073c-2.945 2.944-7.737 2.944-10.681 0l-8.8-8.799c-2.944-2.945-2.944-7.736-.001-10.682l3.074-3.072c-1.125-2.187-2.072-4.473-2.82-6.803h-4.344c-4.164 0-7.552-3.388-7.552-7.553v-12.442c0-4.165 3.388-7.553 7.553-7.553h4.342c.749-2.332 1.697-4.618 2.821-6.803l-3.073-3.073c-2.944-2.944-2.944-7.735-.001-10.681l8.801-8.799c1.426-1.427 3.322-2.213 5.34-2.213s3.914.786 5.341 2.213l3.073 3.072c2.184-1.123 4.47-2.071 6.802-2.82v-4.342c0-4.165 3.388-7.553 7.553-7.553h12.444c4.164 0 7.552 3.388 7.552 7.553v4.342c2.333.749 4.619 1.698 6.802 2.821l3.074-3.072c1.426-1.427 3.322-2.213 5.34-2.213s3.914.786 5.341 2.213l8.799 8.799c1.427 1.427 2.213 3.323 2.213 5.341s-.786 3.914-2.213 5.341l-3.072 3.073c1.123 2.181 2.071 4.468 2.821 6.802h4.342c4.165 0 7.553 3.388 7.553 7.552v12.444c0 4.165-3.388 7.553-7.553 7.553h-4.343c-.748 2.332-1.697 4.618-2.82 6.802l3.072 3.073c2.945 2.945 2.945 7.736 0 10.682l-8.799 8.799c-2.945 2.944-7.737 2.944-10.681 0l-3.074-3.073c-2.182 1.123-4.468 2.071-6.802 2.821v4.342c0 4.163-3.388 7.551-7.552 7.551zm-26.873-19.79c.744 0 1.496.178 2.194.541 2.047 1.066 4.196 1.958 6.39 2.65 1.97.622 3.292 2.411 3.292 4.45v4.596c0 1.407 1.146 2.553 2.553 2.553h12.444c1.407 0 2.552-1.146 2.552-2.553v-4.596c0-2.039 1.323-3.827 3.292-4.45 2.195-.693 4.345-1.585 6.389-2.649 1.834-.954 4.035-.627 5.479.818l3.252 3.252c.996.995 2.614.994 3.61-.001l8.799-8.798c.482-.482.748-1.124.748-1.806s-.266-1.323-.748-1.806l-3.251-3.251c-1.444-1.443-1.773-3.646-.819-5.478 1.066-2.047 1.958-4.196 2.65-6.39.622-1.97 2.411-3.292 4.45-3.292h4.596c1.407 0 2.553-1.146 2.553-2.553v-12.442c0-1.407-1.146-2.552-2.553-2.552h-4.596c-2.039 0-3.827-1.323-4.45-3.292-.693-2.195-1.585-4.345-2.649-6.389-.955-1.836-.625-4.037.819-5.48l3.25-3.25c.482-.482.748-1.123.748-1.805s-.266-1.323-.748-1.806l-8.799-8.799c-.965-.965-2.646-.965-3.609 0l-3.253 3.251c-1.441 1.445-3.645 1.774-5.477.819-2.046-1.065-4.195-1.957-6.39-2.65-1.97-.623-3.293-2.411-3.293-4.45v-4.595c0-1.407-1.145-2.553-2.552-2.553h-12.444c-1.407 0-2.553 1.146-2.553 2.553v4.596c0 2.039-1.322 3.828-3.291 4.45-2.194.692-4.344 1.584-6.391 2.65-1.832.954-4.033.625-5.478-.819l-3.251-3.251c-.965-.965-2.646-.965-3.609 0l-8.801 8.799c-.995.995-.995 2.615 0 3.61l3.252 3.252c1.444 1.442 1.773 3.645.817 5.479-1.064 2.046-1.956 4.195-2.648 6.388-.623 1.97-2.411 3.293-4.45 3.293h-4.596c-1.407 0-2.553 1.146-2.553 2.553v12.443c0 1.407 1.145 2.553 2.552 2.553h4.597c2.039 0 3.828 1.322 4.45 3.291.692 2.193 1.584 4.343 2.649 6.391.955 1.83.627 4.032-.818 5.478l-3.252 3.251c-.995.995-.995 2.616.001 3.611l8.799 8.799c.995.995 2.615.994 3.61-.001l3.252-3.251c.893-.895 2.077-1.362 3.283-1.362z"/><path d="m192.948 63.97c-.64 0-1.279-.244-1.768-.732l-6.904-6.903c-.977-.976-.977-2.559 0-3.535s2.559-.977 3.535 0l5.137 5.136 9.277-9.277c.977-.977 2.559-.977 3.535 0s.977 2.559 0 3.535l-11.045 11.045c-.487.487-1.127.731-1.767.731z"/><path d="m20.732 126.359c-.152 0-.305-.004-.458-.013-2.146-.12-4.117-1.068-5.55-2.671-2.956-3.306-2.672-8.401.634-11.358l102.062-91.272c3.059-2.734 7.668-2.736 10.727 0l23.024 20.59c.772.69 1.038 1.787.669 2.755-.37.969-1.3 1.608-2.336 1.608h-2.569c-1.407 0-2.553 1.146-2.553 2.553v3.009c0 .986-.579 1.88-1.479 2.282-.901.403-1.953.237-2.688-.419l-17.432-15.589-96.698 86.477c-1.487 1.33-3.373 2.048-5.353 2.048zm102.051-102.364c-.726 0-1.451.259-2.029.776l-102.062 91.273c-1.252 1.119-1.359 3.048-.24 4.299.543.607 1.288.967 2.101 1.012.812.041 1.593-.229 2.198-.771l98.365-87.967c.949-.85 2.386-.85 3.333 0l15.281 13.664c.64-2.027 2.113-3.688 4.017-4.577l-18.934-16.933c-.579-.517-1.304-.776-2.03-.776z"/><path d="m224.84 126.354c-1.91 0-3.826-.674-5.357-2.044l-18.097-16.184c-.585-.523-.891-1.292-.824-2.075.066-.782.497-1.488 1.163-1.906.755-.473 1.205-1.277 1.205-2.151v-4.597c0-2.039 1.322-3.828 3.291-4.45l.329-.112c.85-.275 1.78-.082 2.446.513l21.212 18.97c1.602 1.432 2.55 3.402 2.67 5.548.119 2.146-.604 4.209-2.036 5.812-1.587 1.772-3.79 2.676-6.002 2.676zm-18.162-20.202 16.138 14.432c1.25 1.12 3.18 1.011 4.3-.241.542-.605.815-1.387.77-2.198-.045-.812-.403-1.558-1.01-2.1l-18.946-16.943v2.893c0 1.509-.446 2.944-1.252 4.157z"/><path d="m216.526 120.814h-187.486c-1.036 0-1.966-.64-2.336-1.608-.369-.968-.104-2.064.669-2.755l93.743-83.834c.949-.85 2.386-.85 3.333 0l19.099 17.079c.531.474.834 1.151.834 1.863v9.436c0 1.407 1.146 2.553 2.553 2.553h4.596c2.039 0 3.828 1.322 4.45 3.291.692 2.193 1.584 4.343 2.649 6.39.955 1.832.626 4.034-.818 5.479l-3.252 3.251c-.995.995-.995 2.615 0 3.61l8.8 8.799c.965.965 2.646.965 3.61 0l3.252-3.251c1.442-1.446 3.645-1.773 5.479-.817 2.046 1.064 4.195 1.956 6.388 2.648 1.97.622 3.292 2.411 3.292 4.45v4.597c0 1.407 1.146 2.553 2.553 2.553h12.444c.471 0 .924-.135 1.348-.4.945-.592 2.165-.487 2.995.255l13.474 12.05c.772.69 1.038 1.787.669 2.755-.372.967-1.302 1.606-2.338 1.606zm-180.94-5h174.394l-7.388-6.607c-.718.225-1.464.34-2.216.34h-12.444c-4.165 0-7.553-3.388-7.553-7.553v-4.344c-2.33-.748-4.617-1.696-6.802-2.819l-3.073 3.071c-1.427 1.427-3.323 2.213-5.341 2.213s-3.914-.786-5.341-2.213l-8.799-8.799c-2.944-2.944-2.944-7.735-.001-10.681l3.074-3.073c-1.124-2.185-2.072-4.471-2.82-6.802h-4.343c-4.165 0-7.553-3.388-7.553-7.553v-8.317l-16.599-14.844z"/><path d="m122.928 100.037c-8.271 0-15-6.729-15-15s6.729-15 15-15 15 6.729 15 15-6.729 15-15 15zm0-25c-5.514 0-10 4.486-10 10s4.486 10 10 10 10-4.486 10-10-4.487-10-10-10z"/><path d="m194.154 88.649c-18.68 0-33.876-15.196-33.876-33.876s15.196-33.876 33.876-33.876 33.876 15.196 33.876 33.876-15.196 33.876-33.876 33.876zm0-62.752c-15.922 0-28.876 12.954-28.876 28.876s12.954 28.876 28.876 28.876 28.876-12.954 28.876-28.876-12.954-28.876-28.876-28.876z"/><path d="m194.154 79.405c-13.582 0-24.632-11.05-24.632-24.632s11.05-24.632 24.632-24.632 24.632 11.05 24.632 24.632-11.05 24.632-24.632 24.632zm0-44.263c-10.825 0-19.632 8.807-19.632 19.632s8.807 19.632 19.632 19.632 19.632-8.807 19.632-19.632-8.807-19.632-19.632-19.632z"/></svg>