<svg enable-background="new 0 0 256 256" height="512" viewBox="0 0 256 256" width="512" xmlns="http://www.w3.org/2000/svg"><path d="m249.148 105.383c-5.937 0-131.816 0-137.919 0-2.404 0-4.352 1.948-4.352 4.352v19.028c0-2.404 1.949-4.352 4.352-4.352h137.919c2.404 0 4.352 1.948 4.352 4.352v-19.028c0-2.404-1.949-4.352-4.352-4.352z" fill="#5bbf21"/><path d="m249.148 124.411c-5.937 0-131.816 0-137.919 0-2.404 0-4.352 1.948-4.352 4.352v19.028c0-2.404 1.949-4.352 4.352-4.352h137.919c2.404 0 4.352 1.948 4.352 4.352v-19.028c0-2.404-1.949-4.352-4.352-4.352z" fill="#87d147"/><path d="m111.228 230.917h137.919c2.404 0 4.352-1.948 4.352-4.352v-78.774c0-2.404-1.948-4.352-4.352-4.352-5.937 0-131.816 0-137.919 0-2.404 0-4.352 1.948-4.352 4.352v78.774c0 2.404 1.949 4.352 4.352 4.352z" fill="#b2e26d"/><path d="m106.876 170.356c0-14.021 0-46.553 0-60.621 0-2.472 2.068-4.352 4.352-4.352h106.58v-37.881c0-6.318-5.169-11.487-11.487-11.487h-192.334c-6.318-.001-11.487 5.169-11.487 11.487v112.724c0 6.318 5.169 11.487 11.487 11.487h92.889c0-7.235 0-14.661 0-21.357z" fill="#edf4fc"/><path d="m249.148 105.383h-22.565c0 7.43 3.011 14.157 7.879 19.028h14.686c2.404 0 4.352 1.948 4.352 4.352v-19.028c0-2.404-1.949-4.352-4.352-4.352z" fill="#4daa11"/><path d="m111.228 124.411h14.686c4.868-4.871 7.879-11.598 7.879-19.028h-22.565c-2.404 0-4.352 1.948-4.352 4.352v19.028c0-2.404 1.949-4.352 4.352-4.352z" fill="#4daa11"/><path d="m111.228 143.439h14.686c4.868-4.871 7.879-11.598 7.879-19.028h-22.565c-2.404 0-4.352 1.948-4.352 4.352v19.028c0-2.404 1.949-4.352 4.352-4.352z" fill="#5bbf21"/><path d="m249.148 124.411h-22.565c0 7.43 3.011 14.157 7.879 19.028h14.686c2.404 0 4.352 1.948 4.352 4.352v3.537-22.565c0-2.404-1.949-4.352-4.352-4.352z" fill="#5bbf21"/><g fill="#87d147"><path d="m111.228 230.917h22.565c0-14.866-12.051-26.917-26.917-26.917v22.565c0 2.404 1.949 4.352 4.352 4.352z"/><path d="m249.148 230.917h-22.565c0-14.866 12.051-26.917 26.917-26.917v22.565c0 2.404-1.949 4.352-4.352 4.352z"/><path d="m249.148 143.439h-22.565c0 14.866 12.051 26.917 26.917 26.917v-22.565c0-2.403-1.949-4.352-4.352-4.352z"/><path d="m133.793 143.439h-22.565c-2.404 0-4.352 1.948-4.352 4.352v22.565c14.866 0 26.917-12.051 26.917-26.917z"/><circle cx="180.188" cy="187.178" r="29.609"/></g><path d="m2.5 80.117v25.266h215.308v-25.266z" fill="#3a70bf"/><path d="m106.876 135.049c0-6.505 0-12.073 0-15.751h-82.175c-1.037 0-1.878.841-1.878 1.878v19.312c0 1.037.841 1.878 1.878 1.878h82.175z" fill="#c7d7e5"/><path d="m233.506 90.136c1.843.333 3.355-1.042 3.355-2.749 0-1.529-1.233-2.805-2.805-2.805-1.509 0-2.805 1.248-2.805 2.805.001 1.335.961 2.504 2.255 2.749z" fill="#f5c84c"/><path d="m141.506 41.136c1.851.334 3.355-1.05 3.355-2.749 0-1.501-1.207-2.805-2.805-2.805-1.509 0-2.805 1.248-2.805 2.805.001 1.335.961 2.504 2.255 2.749z" fill="#70d6f9"/><path d="m106.943 30.817c3.995.744 7.144 3.829 7.904 7.743.038.197.313.197.351 0 .76-3.914 3.908-6.999 7.904-7.743.201-.037.201-.306 0-.344-3.995-.744-7.144-3.829-7.904-7.743-.038-.197-.313-.197-.351 0-.76 3.914-3.908 6.999-7.904 7.743-.201.037-.201.306 0 .344z" fill="#ef4460"/><path d="m253.5 131.263c-1.381 0-2.5-1.119-2.5-2.5 0-1.021-.831-1.852-1.853-1.852h-137.918c-1.021 0-1.853.831-1.853 1.852 0 1.381-1.119 2.5-2.5 2.5s-2.5-1.119-2.5-2.5v-19.028c0-3.778 3.074-6.852 6.853-6.852h137.919c3.778 0 6.853 3.074 6.853 6.852v19.028c-.001 1.381-1.12 2.5-2.501 2.5zm-142.271-9.352h137.919c.642 0 1.263.089 1.853.254v-12.431c0-1.021-.831-1.852-1.853-1.852h-137.919c-1.021 0-1.853.831-1.853 1.852v12.431c.59-.165 1.211-.254 1.853-.254z"/><path d="m253.5 150.291c-1.381 0-2.5-1.119-2.5-2.5 0-1.021-.831-1.852-1.853-1.852h-137.918c-1.021 0-1.853.831-1.853 1.852 0 1.381-1.119 2.5-2.5 2.5s-2.5-1.119-2.5-2.5v-19.028c0-3.778 3.074-6.852 6.853-6.852h137.919c3.778 0 6.853 3.074 6.853 6.852v19.028c-.001 1.381-1.12 2.5-2.501 2.5zm-142.271-9.352h137.919c.642 0 1.263.089 1.853.254v-12.43c0-1.021-.831-1.852-1.853-1.852h-137.919c-1.021 0-1.853.831-1.853 1.852v12.43c.59-.165 1.211-.254 1.853-.254z"/><path d="m183.951 203.268h-10.666c-1.381 0-2.5-1.119-2.5-2.5s1.119-2.5 2.5-2.5h10.666c2.368 0 4.295-1.927 4.295-4.295s-1.927-4.295-4.295-4.295h-7.526c-5.125 0-9.295-4.17-9.295-9.295s4.17-9.295 9.295-9.295h12.037c1.381 0 2.5 1.119 2.5 2.5s-1.119 2.5-2.5 2.5h-12.037c-2.368 0-4.295 1.927-4.295 4.295s1.927 4.295 4.295 4.295h7.526c5.125 0 9.295 4.17 9.295 9.295s-4.17 9.295-9.295 9.295z"/><path d="m180.188 207.917c-1.381 0-2.5-1.119-2.5-2.5v-36.477c0-1.381 1.119-2.5 2.5-2.5s2.5 1.119 2.5 2.5v36.477c0 1.38-1.119 2.5-2.5 2.5z"/><path d="m136.862 189.678h-6.7c-1.381 0-2.5-1.119-2.5-2.5s1.119-2.5 2.5-2.5h6.7c1.381 0 2.5 1.119 2.5 2.5s-1.119 2.5-2.5 2.5z"/><path d="m230.214 189.678h-6.7c-1.381 0-2.5-1.119-2.5-2.5s1.119-2.5 2.5-2.5h6.7c1.381 0 2.5 1.119 2.5 2.5s-1.119 2.5-2.5 2.5z"/><path d="m249.147 233.417h-137.918c-3.778 0-6.853-3.074-6.853-6.852v-78.774c0-3.778 3.074-6.852 6.853-6.852h137.919c3.778 0 6.853 3.074 6.853 6.852v78.774c-.001 3.779-3.075 6.852-6.854 6.852zm-137.918-87.478c-1.021 0-1.853.831-1.853 1.852v78.774c0 1.021.831 1.852 1.853 1.852h137.919c1.021 0 1.853-.831 1.853-1.852v-78.774c0-1.021-.831-1.852-1.853-1.852z"/><path d="m59.377 203.436c-1.849-.334-3.355 1.047-3.355 2.749 0 1.482 1.186 2.805 2.805 2.805 1.517 0 2.805-1.257 2.805-2.805 0-1.352-.978-2.508-2.255-2.749z" fill="#87d147"/><path d="m75.308 225.708h2.07v2.07c0 1.549 1.256 2.805 2.805 2.805s2.805-1.256 2.805-2.805v-2.07h2.069c1.549 0 2.805-1.256 2.805-2.805s-1.256-2.805-2.805-2.805h-2.069v-2.07c0-1.549-1.256-2.805-2.805-2.805s-2.805 1.256-2.805 2.805v2.07h-2.07c-1.549 0-2.805 1.256-2.805 2.805.001 1.55 1.256 2.805 2.805 2.805z" fill="#f5c84c"/><path d="m85.698 160.487h-63.136c-1.381 0-2.5-1.119-2.5-2.5s1.119-2.5 2.5-2.5h63.136c1.381 0 2.5 1.119 2.5 2.5s-1.119 2.5-2.5 2.5z"/><path d="m85.698 172.069h-63.136c-1.381 0-2.5-1.119-2.5-2.5s1.119-2.5 2.5-2.5h63.136c1.381 0 2.5 1.119 2.5 2.5s-1.119 2.5-2.5 2.5z"/><path d="m92.028 133.332h-56.023c-1.381 0-2.5-1.119-2.5-2.5s1.119-2.5 2.5-2.5h56.023c1.381 0 2.5 1.119 2.5 2.5s-1.119 2.5-2.5 2.5z"/><path d="m106.876 194.213h-92.889c-7.713 0-13.987-6.275-13.987-13.987v-112.725c0-7.712 6.274-13.987 13.987-13.987h192.334c7.713 0 13.987 6.274 13.987 13.987v37.881c0 1.381-1.119 2.5-2.5 2.5h-106.58c-.895 0-1.853.744-1.853 1.852v81.978c.001 1.382-1.118 2.501-2.499 2.501zm-92.889-135.698c-4.956 0-8.987 4.031-8.987 8.986v112.724c0 4.956 4.031 8.987 8.987 8.987h90.389v-79.478c0-3.778 3.074-6.852 6.853-6.852h104.08v-35.381c0-4.956-4.031-8.987-8.987-8.987h-192.335z"/><path d="m253.5 131.263c-1.381 0-2.5-1.119-2.5-2.5 0-1.021-.831-1.852-1.853-1.852h-14.686c-.663 0-1.3-.264-1.769-.733-5.553-5.555-8.61-12.94-8.61-20.795 0-1.381 1.119-2.5 2.5-2.5h22.564c3.778 0 6.853 3.074 6.853 6.852v19.028c.001 1.381-1.118 2.5-2.499 2.5zm-17.973-9.352h13.62c.642 0 1.263.089 1.853.254v-12.431c0-1.021-.831-1.852-1.853-1.852h-19.938c.529 5.243 2.721 10.125 6.318 14.029z"/><path d="m106.876 131.263c-1.381 0-2.5-1.119-2.5-2.5v-19.028c0-3.778 3.074-6.852 6.853-6.852h22.564c1.381 0 2.5 1.119 2.5 2.5 0 7.855-3.058 15.24-8.61 20.795-.469.469-1.105.733-1.769.733h-14.686c-1.021 0-1.853.831-1.853 1.852.001 1.381-1.118 2.5-2.499 2.5zm4.353-23.38c-1.021 0-1.853.831-1.853 1.852v12.431c.59-.166 1.211-.254 1.853-.254h13.62c3.598-3.904 5.789-8.786 6.318-14.028h-19.938z"/><path d="m106.876 150.291c-1.381 0-2.5-1.119-2.5-2.5v-19.028c0-3.778 3.074-6.852 6.853-6.852h22.564c1.381 0 2.5 1.119 2.5 2.5 0 7.854-3.058 15.24-8.61 20.795-.469.469-1.105.733-1.769.733h-14.686c-1.021 0-1.853.831-1.853 1.852.001 1.381-1.118 2.5-2.499 2.5zm4.353-23.38c-1.021 0-1.853.831-1.853 1.852v12.43c.59-.166 1.211-.254 1.853-.254h13.62c3.598-3.903 5.789-8.786 6.318-14.028z"/><path d="m253.5 153.828c-1.381 0-2.5-1.119-2.5-2.5v-3.537c0-1.021-.831-1.852-1.853-1.852h-14.686c-.663 0-1.3-.264-1.769-.733-5.553-5.555-8.61-12.94-8.61-20.795 0-1.381 1.119-2.5 2.5-2.5h22.564c3.778 0 6.853 3.074 6.853 6.852v22.565c.001 1.381-1.118 2.5-2.499 2.5zm-17.973-12.889h13.62c.642 0 1.263.089 1.853.254v-12.431c0-1.021-.831-1.852-1.853-1.852h-19.938c.529 5.243 2.721 10.126 6.318 14.029z"/><path d="m133.793 233.417h-22.564c-3.778 0-6.853-3.074-6.853-6.852v-22.565c0-1.381 1.119-2.5 2.5-2.5 16.221 0 29.417 13.196 29.417 29.417 0 1.381-1.119 2.5-2.5 2.5zm-24.417-26.79v19.938c0 1.021.831 1.852 1.853 1.852h19.938c-1.173-11.471-10.319-20.618-21.791-21.79z"/><path d="m249.147 233.417h-22.564c-1.381 0-2.5-1.119-2.5-2.5 0-16.221 13.196-29.417 29.417-29.417 1.381 0 2.5 1.119 2.5 2.5v22.565c0 3.779-3.074 6.852-6.853 6.852zm-19.937-5h19.938c1.021 0 1.853-.831 1.853-1.852v-19.938c-11.473 1.172-20.619 10.319-21.791 21.79z"/><path d="m253.5 172.856c-16.221 0-29.417-13.196-29.417-29.417 0-1.381 1.119-2.5 2.5-2.5h22.564c3.778 0 6.853 3.074 6.853 6.852v22.565c0 1.381-1.119 2.5-2.5 2.5zm-24.29-26.917c1.172 11.472 10.318 20.618 21.79 21.79v-19.938c0-1.021-.831-1.852-1.853-1.852z"/><path d="m106.876 172.856c-1.381 0-2.5-1.119-2.5-2.5v-22.565c0-3.778 3.074-6.852 6.853-6.852h22.564c1.381 0 2.5 1.119 2.5 2.5 0 16.221-13.196 29.417-29.417 29.417zm4.353-26.917c-1.021 0-1.853.831-1.853 1.852v19.938c11.472-1.172 20.618-10.318 21.79-21.79z"/><path d="m180.188 219.288c-17.705 0-32.109-14.404-32.109-32.109s14.404-32.109 32.109-32.109 32.109 14.404 32.109 32.109-14.403 32.109-32.109 32.109zm0-59.219c-14.948 0-27.109 12.161-27.109 27.109s12.161 27.109 27.109 27.109 27.109-12.161 27.109-27.109-12.16-27.109-27.109-27.109z"/><path d="m217.809 107.883h-215.309c-1.381 0-2.5-1.119-2.5-2.5v-25.266c0-1.381 1.119-2.5 2.5-2.5h215.309c1.381 0 2.5 1.119 2.5 2.5v25.266c0 1.381-1.12 2.5-2.5 2.5zm-212.809-5h210.309v-20.266h-210.309z"/><path d="m106.876 144.866h-82.175c-2.414 0-4.379-1.964-4.379-4.378v-19.312c0-2.414 1.965-4.378 4.379-4.378h82.175c1.381 0 2.5 1.119 2.5 2.5v23.069c0 1.38-1.119 2.499-2.5 2.499zm-81.554-5h79.054v-18.069h-79.054z"/></svg>