<svg enable-background="new 0 0 256 256" height="512" viewBox="0 0 256 256" width="512" xmlns="http://www.w3.org/2000/svg"><circle cx="144.701" cy="71.302" fill="#c7d7e5" r="7.085"/><path d="m137.616 71.302c0-1.906.757-3.633 1.981-4.906h-44.494c-2.784 0-5.061 2.277-5.061 5.061s2.277 5.061 5.061 5.061h44.815c-1.412-1.295-2.302-3.149-2.302-5.216z" fill="#edf4fc"/><path d="m160.897 66.396h-11.09c1.224 1.273 1.981 3 1.981 4.906 0 2.067-.89 3.921-2.302 5.216h11.412c2.784 0 5.061-2.277 5.061-5.061s-2.279-5.061-5.062-5.061z" fill="#edf4fc"/><path d="m216.596 183.443c-4.56-71.812-41.428-83.295-56.084-106.924h-11.027c-1.261 1.157-2.937 1.869-4.784 1.869-1.846 0-3.522-.712-4.784-1.869h-44.43c-14.656 23.63-51.523 35.113-56.084 106.924-4.698 74.003 88.597 70.019 88.597 70.019s93.295 3.984 88.596-70.019z" fill="#c46c45"/><path d="m157.86 56.274h-59.72c-2.784 0-5.061 2.277-5.061 5.061s2.277 5.061 5.061 5.061h41.457c1.289-1.341 3.098-2.18 5.105-2.18s3.816.838 5.105 2.18h8.054c2.784 0 5.061-2.277 5.061-5.061-.001-2.783-2.278-5.061-5.062-5.061z" fill="#edf4fc"/><path d="m142.394 77.992c5.071 10.666 10.755 26.431 8.891 34.081-.662 2.716 1.004 5.453 3.72 6.116 2.713.66 5.453-1.002 6.115-3.72 2.676-10.989-3.785-28.042-8.259-37.951h-3.375c-1.261 1.157-2.937 1.869-4.784 1.869-.81.001-1.584-.143-2.308-.395z" fill="#edf4fc"/><path d="m133.456 109c.171.017.34.025.508.025 2.57 0 4.77-1.948 5.03-4.56.684-6.871 3.389-14.879 5.844-21.019-.809-1.913-1.636-3.747-2.447-5.455-.925-.322-1.767-.824-2.474-1.473h-3.179c-2.961 6.958-6.886 17.596-7.817 26.944-.276 2.781 1.754 5.261 4.535 5.538z" fill="#c7d7e5"/><path d="m135.612 164.725h-1.298c-.448 0-.811-.363-.811-.811v-15.824c0-.448.363-.811.811-.811h10.695c2.644 0 5.004-1.933 5.255-4.565.287-3.018-2.079-5.557-5.037-5.557h-10.912c-.448 0-.811-.363-.811-.811v-3.341c0-2.643-1.932-5.004-4.563-5.255-3.019-.288-5.559 2.078-5.559 5.037v3.558c0 .448-.363.811-.811.811h-1.298c-10.205 0-18.909 7.92-19.295 18.118-.406 10.721 8.199 19.572 18.831 19.572h1.762c.448 0 .811.363.811.811v15.824c0 .448-.363.811-.811.811h-7.915c-2.644 0-5.004 1.933-5.255 4.565-.287 3.018 2.079 5.557 5.037 5.557h8.132c.448 0 .811.363.811.811v3.341c0 2.643 1.932 5.004 4.563 5.255 3.019.288 5.559-2.078 5.559-5.037v-3.558c0-.448.363-.811.811-.811h1.762c10.632 0 19.237-8.851 18.831-19.572-.386-10.198-9.089-18.118-19.295-18.118zm-12.231-.811c0 .448-.363.811-.811.811h-1.762c-5.007 0-9.043-4.241-8.703-9.319.31-4.631 4.369-8.126 9.011-8.126h1.453c.448 0 .811.363.811.811v15.823zm21.398 20.254c-.31 4.631-4.369 8.125-9.01 8.125h-1.454c-.448 0-.811-.363-.811-.811v-15.824c0-.448.363-.811.811-.811h1.762c5.006 0 9.042 4.242 8.702 9.321z" fill="#f5c84c"/><path d="m162.109 19.561h-68.218c-2.531 0-3.944 2.944-2.335 4.898 5.088 6.18 12.381 17.72 10.883 31.815h51.122c-1.498-14.095 5.795-25.635 10.883-31.815 1.608-1.954.196-4.898-2.335-4.898z" fill="#c46c45"/><path d="m157.501.05c-1.349.255-2.255 1.464-2.255 2.749 0 1.549 1.249 2.805 2.805 2.805 1.549 0 2.805-1.259 2.805-2.805-.001-1.73-1.555-3.084-3.355-2.749z" fill="#ef4460"/><path d="m83.601 42.05c-1.849-.334-3.355 1.047-3.355 2.749 0 1.501 1.207 2.805 2.805 2.805 1.586 0 2.805-1.299 2.805-2.805-.001-1.352-.979-2.508-2.255-2.749z" fill="#3caadc"/><path d="m205.601 95.05c-1.869-.337-3.355 1.073-3.355 2.749 0 1.656 1.45 3.083 3.355 2.749 1.279-.242 2.255-1.403 2.255-2.749-.001-1.349-.977-2.507-2.255-2.749z" fill="#87d147"/><path d="m61.164 75.89c-3.995-.744-7.144-3.829-7.904-7.743-.038-.197-.313-.197-.351 0-.76 3.914-3.908 6.999-7.904 7.743-.201.037-.201.306 0 .344 3.995.744 7.144 3.829 7.904 7.743.038.197.313.197.351 0 .76-3.914 3.908-6.999 7.904-7.743.201-.038.201-.306 0-.344z" fill="#f5c84c"/><path d="m184.529 33.874h-2.07v-2.07c0-1.549-1.256-2.805-2.805-2.805s-2.805 1.256-2.805 2.805v2.07h-2.069c-1.549 0-2.805 1.256-2.805 2.805s1.256 2.805 2.805 2.805h2.069v2.07c0 1.549 1.256 2.805 2.805 2.805s2.805-1.256 2.805-2.805v-2.07h2.07c1.549 0 2.805-1.256 2.805-2.805s-1.256-2.805-2.805-2.805z" fill="#3caadc"/><path d="m144.702 80.888c-5.286 0-9.585-4.3-9.585-9.585 0-5.286 4.3-9.586 9.585-9.586s9.585 4.3 9.585 9.586c0 5.285-4.3 9.585-9.585 9.585zm0-14.171c-2.528 0-4.585 2.058-4.585 4.586s2.057 4.585 4.585 4.585 4.585-2.057 4.585-4.585-2.057-4.586-4.585-4.586z"/><path d="m139.918 79.019h-44.815c-4.169 0-7.561-3.392-7.561-7.562 0-4.169 3.392-7.561 7.561-7.561h44.494c1.002 0 1.908.599 2.3 1.521s.197 1.989-.498 2.712c-.827.86-1.283 1.987-1.283 3.174 0 1.292.53 2.49 1.492 3.374.759.697 1.013 1.789.639 2.749s-1.298 1.593-2.329 1.593zm-44.815-10.123c-1.412 0-2.561 1.148-2.561 2.561s1.149 2.562 2.561 2.562h40.41c-.26-.875-.397-1.79-.397-2.716 0-.821.104-1.629.305-2.406h-40.318z"/><path d="m160.897 79.019h-11.412c-1.031 0-1.956-.633-2.33-1.593s-.12-2.052.639-2.749c.962-.884 1.493-2.082 1.493-3.374 0-1.186-.456-2.312-1.283-3.174-.695-.723-.891-1.79-.498-2.712s1.298-1.521 2.3-1.521h11.091c4.169 0 7.561 3.392 7.561 7.561 0 4.17-3.392 7.562-7.561 7.562zm-7.007-5h7.007c1.412 0 2.561-1.149 2.561-2.562s-1.149-2.561-2.561-2.561h-6.916c.202.778.306 1.585.306 2.406 0 .927-.136 1.842-.397 2.717z"/><path d="m130.557 256.003c-1.364 0-2.248-.027-2.557-.039-1.307.049-12.878.381-27.527-2.269-25.66-4.642-39.998-14.756-47.507-22.423-11.905-12.154-17.307-28.3-16.057-47.987 3.391-53.396 24.348-74.056 41.188-90.656 6.155-6.067 11.471-11.308 15.267-17.428.456-.735 1.259-1.183 2.125-1.183h44.43c.626 0 1.229.234 1.69.658 1.703 1.562 4.485 1.562 6.187 0 .461-.423 1.064-.658 1.69-.658h11.027c.865 0 1.668.447 2.125 1.183 3.796 6.12 9.112 11.36 15.267 17.428 16.839 16.601 37.797 37.261 41.188 90.656 1.25 19.688-4.152 35.833-16.057 47.987-7.509 7.667-21.848 17.781-47.507 22.423-11.184 2.023-20.573 2.308-24.972 2.308zm-2.557-5.041c.036 0 .071.001.106.002.463.023 47.018 1.675 71.37-23.203 10.861-11.097 15.781-25.954 14.625-44.159-3.27-51.49-23.473-71.408-39.707-87.412-5.751-5.669-11.202-11.042-15.249-17.171h-8.768c-1.642 1.212-3.622 1.869-5.675 1.869s-4.034-.657-5.675-1.869h-42.172c-4.047 6.129-9.498 11.502-15.249 17.171-36.438 35.922-38.25 64.472-39.707 87.412-1.156 18.205 3.764 33.062 14.625 44.159 24.352 24.88 70.907 23.231 71.37 23.203.035-.001.07-.002.106-.002z"/><path d="m157.86 68.896h-8.054c-.68 0-1.332-.277-1.803-.768-.875-.911-2.047-1.412-3.302-1.412s-2.428.501-3.302 1.412c-.471.49-1.122.768-1.803.768h-41.456c-4.169 0-7.561-3.392-7.561-7.562 0-4.169 3.392-7.561 7.561-7.561h59.721c4.169 0 7.561 3.392 7.561 7.561-.001 4.171-3.393 7.562-7.562 7.562zm-7.078-5h7.079c1.412 0 2.561-1.149 2.561-2.562s-1.149-2.561-2.561-2.561h-59.721c-1.412 0-2.561 1.148-2.561 2.561s1.149 2.562 2.561 2.562h40.481c1.709-1.413 3.831-2.18 6.081-2.18s4.37.767 6.08 2.18z"/><path d="m156.2 120.834c-.589 0-1.188-.07-1.786-.215-4.052-.99-6.544-5.088-5.559-9.138 1.566-6.429-3.251-20.913-8.72-32.416-.433-.91-.276-1.992.396-2.742.673-.75 1.73-1.024 2.684-.692 1.613.564 3.358.167 4.578-.954.461-.423 1.064-.658 1.69-.658h3.375c.982 0 1.874.575 2.278 1.471 5.349 11.845 11.149 28.325 8.41 39.572-.838 3.451-3.94 5.772-7.346 5.772zm-9.813-40.096c3.361 7.702 9.415 23.354 7.327 31.927-.334 1.372.511 2.761 1.883 3.096 1.372.328 2.759-.512 3.093-1.883 2.399-9.849-3.345-25.498-7.454-34.859h-.86c-1.186.876-2.549 1.461-3.989 1.719z"/><path d="m133.964 111.524c-.248 0-.498-.012-.75-.036-.002 0-.003 0-.005-.001-2.01-.199-3.821-1.17-5.102-2.733-1.279-1.562-1.874-3.529-1.674-5.539.953-9.57 4.879-20.332 8.004-27.676.393-.922 1.298-1.521 2.3-1.521h3.179c.625 0 1.228.234 1.689.657.462.424 1.002.744 1.605.954.633.22 1.151.684 1.438 1.289.863 1.817 1.701 3.687 2.491 5.554.256.606.263 1.29.019 1.902-3.182 7.957-5.146 14.99-5.678 20.338-.385 3.885-3.618 6.812-7.516 6.812zm-.262-5.012c1.438.141 2.666-.894 2.805-2.295.564-5.667 2.458-12.639 5.629-20.734-.515-1.193-1.049-2.383-1.596-3.555-.533-.257-1.038-.561-1.512-.909h-.626c-2.862 6.931-6.164 16.376-6.992 24.692-.068.68.134 1.347.567 1.876.433.528 1.045.857 1.725.925z"/><path d="m128.428 214.345c-.24 0-.48-.012-.721-.035-3.828-.364-6.826-3.766-6.826-7.743v-1.651h-6.443c-2.125 0-4.165-.902-5.595-2.476-1.43-1.572-2.133-3.693-1.931-5.819.364-3.828 3.766-6.827 7.743-6.827h6.226v-12.446h-.073c-5.847 0-11.306-2.325-15.372-6.549-4.063-4.22-6.179-9.766-5.957-15.617.423-11.188 9.985-20.315 21.402-20.52v-1.873c0-2.126.902-4.165 2.476-5.596 1.573-1.43 3.696-2.139 5.82-1.93 3.828.364 6.826 3.766 6.826 7.743v1.651h9.223c2.125 0 4.165.902 5.595 2.476 1.43 1.572 2.133 3.693 1.931 5.819-.364 3.828-3.766 6.827-7.743 6.827h-9.006v12.449c11.417.204 20.979 9.331 21.402 20.52.222 5.853-1.894 11.398-5.957 15.618-4.066 4.224-9.525 6.549-15.373 6.549h-.072v1.869c0 2.126-.902 4.165-2.476 5.596-1.394 1.267-3.22 1.965-5.099 1.965zm-13.772-19.552c-1.428 0-2.643 1.011-2.766 2.302-.07.737.162 1.441.653 1.981.492.541 1.165.839 1.896.839h8.132c1.826 0 3.311 1.485 3.311 3.311v3.341c0 1.428 1.011 2.644 2.301 2.767.742.072 1.442-.162 1.982-.653.541-.492.839-1.165.839-1.896v-3.559c0-1.825 1.485-3.311 3.311-3.311h1.761c4.476 0 8.656-1.781 11.771-5.017 3.112-3.231 4.732-7.479 4.562-11.961-.328-8.664-7.863-15.713-16.797-15.713h-1.298c-1.826 0-3.311-1.485-3.311-3.311v-15.823c0-1.825 1.485-3.311 3.311-3.311h10.695c1.428 0 2.643-1.011 2.766-2.302.07-.737-.162-1.441-.653-1.981-.492-.541-1.165-.839-1.896-.839h-10.912c-1.826 0-3.311-1.485-3.311-3.312v-3.34c0-1.428-1.011-2.644-2.301-2.767-.734-.062-1.441.162-1.982.653-.542.491-.839 1.165-.839 1.896v3.558c0 1.826-1.485 3.312-3.311 3.312h-1.298c-8.934 0-16.469 7.049-16.797 15.713-.169 4.48 1.451 8.729 4.562 11.96 3.115 3.235 7.295 5.017 11.771 5.017h1.762c1.826 0 3.311 1.485 3.311 3.312v15.823c0 1.826-1.485 3.312-3.311 3.312h-7.914zm21.113 0h-1.454c-1.826 0-3.311-1.485-3.311-3.312v-15.823c0-1.826 1.485-3.312 3.311-3.312h1.761c3.091 0 6.078 1.298 8.195 3.562 2.146 2.295 3.213 5.287 3.003 8.427-.394 5.864-5.447 10.458-11.505 10.458zm.234-17.446v12.442c3.331-.113 6.068-2.614 6.281-5.788.117-1.743-.475-3.404-1.665-4.678-1.192-1.274-2.806-1.977-4.543-1.977h-.073zm8.776 6.821h.01zm-22.209-16.943h-1.762c-3.091 0-6.079-1.298-8.195-3.562-2.146-2.294-3.212-5.286-3.002-8.425.393-5.865 5.447-10.459 11.506-10.459h1.453c1.826 0 3.311 1.485 3.311 3.311v15.824c0 1.825-1.485 3.311-3.311 3.311zm-1.689-17.442c-3.331.113-6.068 2.615-6.281 5.789-.117 1.743.474 3.403 1.664 4.676 1.192 1.274 2.806 1.977 4.544 1.977h.073z"/><path d="m153.561 58.774h-51.122c-.709 0-1.385-.301-1.859-.828s-.702-1.231-.627-1.937c1.426-13.422-5.858-24.533-10.327-29.962-1.361-1.652-1.638-3.885-.723-5.824.921-1.951 2.832-3.163 4.988-3.163h68.217c2.155 0 4.066 1.212 4.987 3.163.916 1.939.639 4.172-.722 5.824-4.469 5.429-11.754 16.539-10.327 29.962.075.705-.153 1.409-.627 1.937s-1.149.828-1.858.828zm-48.444-5h45.767c-.451-13.968 6.966-25.24 11.63-30.904.048-.058.192-.233.061-.513-.093-.197-.25-.297-.465-.297h-68.218c-.216 0-.373.1-.466.297-.131.279.013.454.061.513 4.663 5.664 12.08 16.938 11.63 30.904z"/><path d="m139.885 58.151c-1.205 0-2.266-.872-2.465-2.1-1.561-9.63 1.604-19.628 1.74-20.049.423-1.314 1.83-2.038 3.146-1.614 1.314.423 2.036 1.83 1.614 3.145-.04.123-2.927 9.314-1.564 17.718.221 1.363-.705 2.647-2.068 2.868-.135.022-.27.032-.403.032z"/><path d="m128.049 58.151c-1.205 0-2.266-.873-2.465-2.101-1.168-7.208-.002-13.115.048-13.363.274-1.353 1.588-2.232 2.946-1.954 1.352.273 2.227 1.591 1.955 2.942-.01.052-1.03 5.307-.014 11.576.221 1.362-.705 2.646-2.068 2.867-.135.024-.269.033-.402.033z"/></svg>