<svg enable-background="new 0 0 256 256" height="512" viewBox="0 0 256 256" width="512" xmlns="http://www.w3.org/2000/svg"><path d="m229.696 253.5h-203.392c-2.892 0-5.238-2.345-5.238-5.238 0-2.892 2.345-5.238 5.238-5.238h203.392c2.892 0 5.238 2.345 5.238 5.238-.001 2.893-2.346 5.238-5.238 5.238z" fill="#dae6f1"/><path d="m220.967 243.025h-185.934c-2.892 0-5.238-2.345-5.238-5.238 0-2.892 2.345-5.238 5.238-5.238h185.933c2.892 0 5.238 2.345 5.238 5.238s-2.345 5.238-5.237 5.238z" fill="#c7d7e5"/><path d="m217.038 227.312c0-2.892-2.345-5.238-5.238-5.238h-40.155c-2.892 0-5.238 2.345-5.238 5.238 0 2.892 2.345 5.238 5.238 5.238h40.155c2.893 0 5.238-2.345 5.238-5.238z" fill="#edf4fc"/><path d="m153.315 227.312c0-2.892-2.345-5.238-5.238-5.238h-40.155c-2.892 0-5.238 2.345-5.238 5.238 0 2.892 2.345 5.238 5.238 5.238h40.155c2.893 0 5.238-2.345 5.238-5.238z" fill="#edf4fc"/><path d="m89.591 227.312c0-2.892-2.345-5.238-5.238-5.238h-40.154c-2.892 0-5.238 2.345-5.238 5.238 0 2.892 2.345 5.238 5.238 5.238h40.155c2.892 0 5.237-2.345 5.237-5.238z" fill="#edf4fc"/><path d="m217.038 131.082c0-2.892-2.345-5.238-5.238-5.238h-40.155c-2.892 0-5.238 2.345-5.238 5.238s2.345 5.238 5.238 5.238h40.155c2.893 0 5.238-2.345 5.238-5.238z" fill="#edf4fc"/><path d="m153.315 131.082c0-2.892-2.345-5.238-5.238-5.238h-40.155c-2.892 0-5.238 2.345-5.238 5.238s2.345 5.238 5.238 5.238h40.155c2.893 0 5.238-2.345 5.238-5.238z" fill="#edf4fc"/><path d="m89.591 131.082c0-2.892-2.345-5.238-5.238-5.238h-40.154c-2.892 0-5.238 2.345-5.238 5.238s2.345 5.238 5.238 5.238h40.155c2.892 0 5.237-2.345 5.237-5.238z" fill="#edf4fc"/><g fill="#dae6f1"><path d="m211.801 222.075c.049 0 .097.006.146.007v-5.056c0-2.152-1.744-3.896-3.896-3.896h-31.781c-2.152 0-3.896 1.744-3.896 3.896v5.049z"/><path d="m147.786 222.075v-5.049c0-2.152-1.744-3.896-3.896-3.896h-31.78c-2.152 0-3.896 1.744-3.896 3.896v5.049z"/><path d="m211.801 136.32h-39.427v5.041c0 2.152 1.744 3.896 3.896 3.896h31.781c2.152 0 3.896-1.744 3.896-3.896v-5.049c-.049.002-.097.008-.146.008z"/><path d="m108.214 136.32v5.041c0 2.152 1.744 3.896 3.896 3.896h31.78c2.152 0 3.896-1.744 3.896-3.896v-5.041z"/><path d="m44.49 136.32v5.041c0 2.152 1.744 3.896 3.896 3.896h31.78c2.152 0 3.896-1.744 3.896-3.896v-5.041z"/><path d="m84.063 222.075v-5.049c0-2.152-1.744-3.896-3.896-3.896h-31.78c-2.152 0-3.896 1.744-3.896 3.896v5.049z"/></g><path d="m112.11 213.13h31.532v-67.873h-31.532c-.214 0-.42-.03-.624-.063v67.999c.204-.033.41-.063.624-.063z" fill="#c7d7e5"/><path d="m208.05 145.257h-31.78c-.064 0-.124-.016-.188-.019v67.91c.064-.003.123-.019.188-.019h31.781c.064 0 .124.016.188.019v-67.91c-.064.003-.124.019-.189.019z" fill="#c7d7e5"/><path d="m48.386 213.13h31.532v-67.873h-31.532c-.214 0-.42-.03-.624-.063v67.999c.204-.033.41-.063.624-.063z" fill="#c7d7e5"/><path d="m171.646 125.845h-23.569c2.892 0 5.238 2.345 5.238 5.238s-2.345 5.238-5.238 5.238h-.291v4.573h24.587v-4.573h-.727c-2.892 0-5.238-2.345-5.238-5.238s2.346-5.238 5.238-5.238z" fill="#3a70bf"/><path d="m108.214 140.893v-4.573h-.291c-2.892 0-5.238-2.345-5.238-5.238s2.345-5.238 5.238-5.238h-23.569c2.892 0 5.238 2.345 5.238 5.238s-2.345 5.238-5.238 5.238h-.291v4.573z" fill="#3a70bf"/><path d="m147.786 140.893v.469c0 2.152-1.744 3.896-3.896 3.896h-.249v67.873h.249c2.152 0 3.896 1.744 3.896 3.896v5.049h.291c2.892 0 5.238 2.345 5.238 5.238 0 2.892-2.345 5.238-5.238 5.238h23.569c-2.892 0-5.238-2.345-5.238-5.238 0-2.892 2.345-5.238 5.238-5.238h.727v-5.049c0-2.152 1.744-3.896 3.896-3.896-.064 0-.124.016-.188.019v-67.91c.064.003.123.019.188.019-2.152 0-3.896-1.744-3.896-3.896v-.469h-24.587z" fill="#5290db"/><path d="m84.354 232.55h23.569c-2.892 0-5.238-2.345-5.238-5.238 0-2.892 2.345-5.238 5.238-5.238h.291v-5.049c0-2.152 1.744-3.896 3.896-3.896-.214 0-.42.03-.624.063v-67.999c.204.033.41.063.624.063-2.152 0-3.896-1.744-3.896-3.896v-.469h-24.151v.469c0 2.152-1.744 3.896-3.896 3.896h-.249v67.873h.249c2.152 0 3.896 1.744 3.896 3.896v5.049h.291c2.892 0 5.238 2.345 5.238 5.238-.001 2.893-2.346 5.238-5.238 5.238z" fill="#5290db"/><path d="m166.73 81.296c-1.674 19.929-18.369 35.584-38.73 35.584-20.362 0-37.056-15.655-38.731-35.584l-49.814 44.549h177.09z" fill="#c7d7e5"/><path d="m89.12 78c0-4.359.728-8.546 2.051-12.458l-63.064 56.398c-2.156 1.928-2.341 5.24-.413 7.396 1.929 2.157 5.24 2.341 7.396.413l54.18-48.453c-.092-1.088-.15-2.185-.15-3.296z" fill="#edf4fc"/><path d="m227.893 121.94c-7.54-6.743-38.05-34.028-63.065-56.399 1.323 3.912 2.051 8.099 2.051 12.458 0 1.111-.058 2.208-.149 3.296 23.424 20.948 49.227 44.024 54.18 48.453 2.153 1.925 5.464 1.746 7.396-.413 1.928-2.155 1.744-5.467-.413-7.395z" fill="#edf4fc"/><path d="m128 39.12c14.775 0 27.625 8.242 34.204 20.38 2.982-5.501 4.676-11.803 4.676-18.5 0-21.473-17.407-38.88-38.88-38.88s-38.88 17.407-38.88 38.88c0 6.697 1.694 12.999 4.676 18.5 6.579-12.137 19.429-20.38 34.204-20.38z" fill="#f5c84c"/><circle cx="128" cy="78" fill="#fcdd86" r="38.88"/><circle cx="128" cy="78" fill="#f5c84c" r="30.13"/><path d="m128 39.12c11.158 0 21.212 4.708 28.302 12.237 1.182-3.23 1.828-6.718 1.828-10.358 0-16.64-13.49-30.13-30.13-30.13s-30.13 13.491-30.13 30.131c0 3.639.645 7.128 1.828 10.358 7.09-7.53 17.143-12.238 28.302-12.238z" fill="#edb311"/><path d="m229.95 184.076c-1.942-.35-3.52 1.102-3.52 2.884 0 1.578 1.269 2.943 2.943 2.943 1.664 0 2.943-1.362 2.943-2.943 0-1.418-1.026-2.631-2.366-2.884z" fill="#ef4460"/><path d="m53.943 64.999h2.171v2.171c0 1.625 1.317 2.943 2.943 2.943s2.943-1.317 2.943-2.943v-2.171h2.171c1.625 0 2.943-1.317 2.943-2.943s-1.317-2.943-2.943-2.943h-2.171v-2.171c0-1.625-1.317-2.943-2.943-2.943s-2.943 1.317-2.943 2.943v2.171h-2.171c-1.625 0-2.943 1.317-2.943 2.943s1.317 2.943 2.943 2.943z" fill="#87d147"/><path d="m37.986 84.048c1.942.35 3.52-1.102 3.52-2.884 0-1.575-1.266-2.943-2.943-2.943-1.583 0-2.943 1.309-2.943 2.943.001 1.4 1.008 2.627 2.366 2.884z" fill="#3caadc"/><path d="m177.986 62.048c1.942.35 3.52-1.102 3.52-2.884 0-1.575-1.266-2.943-2.943-2.943-1.583 0-2.943 1.309-2.943 2.943.001 1.4 1.008 2.627 2.366 2.884z" fill="#3caadc"/><path d="m243.87 160.167c-4.192-.781-7.496-4.017-8.293-8.124-.04-.206-.328-.206-.368 0-.797 4.106-4.101 7.343-8.293 8.124-.21.039-.21.321 0 .36 4.192.781 7.496 4.017 8.293 8.124.04.206.328.206.368 0 .797-4.107 4.101-7.343 8.293-8.124.21-.039.21-.321 0-.36z" fill="#f5c84c"/><path d="m229.696 256h-203.392c-4.267 0-7.737-3.471-7.737-7.738s3.471-7.737 7.737-7.737h203.393c4.267 0 7.737 3.471 7.737 7.737s-3.471 7.738-7.738 7.738zm-203.392-10.475c-1.51 0-2.737 1.228-2.737 2.737 0 1.51 1.228 2.738 2.737 2.738h203.393c1.51 0 2.737-1.228 2.737-2.738 0-1.509-1.228-2.737-2.737-2.737z"/><path d="m220.967 245.525h-185.934c-4.267 0-7.737-3.471-7.737-7.738s3.471-7.737 7.737-7.737h185.934c4.267 0 7.737 3.471 7.737 7.737s-3.471 7.738-7.737 7.738zm-185.934-10.475c-1.51 0-2.737 1.228-2.737 2.737 0 1.51 1.228 2.738 2.737 2.738h185.934c1.51 0 2.737-1.228 2.737-2.738 0-1.509-1.228-2.737-2.737-2.737z"/><path d="m211.801 235.05h-40.154c-4.267 0-7.737-3.471-7.737-7.738s3.471-7.737 7.737-7.737h40.154c4.267 0 7.737 3.471 7.737 7.737s-3.471 7.738-7.737 7.738zm-40.155-10.475c-1.51 0-2.737 1.228-2.737 2.737 0 1.51 1.228 2.738 2.737 2.738h40.154c1.51 0 2.737-1.228 2.737-2.738 0-1.509-1.228-2.737-2.737-2.737z"/><path d="m148.077 235.05h-40.154c-4.267 0-7.737-3.471-7.737-7.738s3.471-7.737 7.737-7.737h40.154c4.267 0 7.737 3.471 7.737 7.737s-3.47 7.738-7.737 7.738zm-40.154-10.475c-1.51 0-2.737 1.228-2.737 2.737 0 1.51 1.228 2.738 2.737 2.738h40.154c1.51 0 2.737-1.228 2.737-2.738 0-1.509-1.228-2.737-2.737-2.737z"/><path d="m84.354 235.05h-40.155c-4.267 0-7.737-3.471-7.737-7.738s3.471-7.737 7.737-7.737h40.154c4.267 0 7.737 3.471 7.737 7.737s-3.47 7.738-7.736 7.738zm-40.155-10.475c-1.51 0-2.737 1.228-2.737 2.737 0 1.51 1.228 2.738 2.737 2.738h40.154c1.51 0 2.737-1.228 2.737-2.738 0-1.509-1.228-2.737-2.737-2.737z"/><path d="m211.801 138.82h-40.154c-4.267 0-7.737-3.471-7.737-7.738s3.471-7.737 7.737-7.737h40.154c4.267 0 7.737 3.471 7.737 7.737s-3.471 7.738-7.737 7.738zm-40.155-10.475c-1.51 0-2.737 1.228-2.737 2.737 0 1.51 1.228 2.738 2.737 2.738h40.154c1.51 0 2.737-1.228 2.737-2.738 0-1.509-1.228-2.737-2.737-2.737z"/><path d="m148.077 138.82h-40.154c-4.267 0-7.737-3.471-7.737-7.738s3.471-7.737 7.737-7.737h40.154c4.267 0 7.737 3.471 7.737 7.737s-3.47 7.738-7.737 7.738zm-40.154-10.475c-1.51 0-2.737 1.228-2.737 2.737 0 1.51 1.228 2.738 2.737 2.738h40.154c1.51 0 2.737-1.228 2.737-2.738 0-1.509-1.228-2.737-2.737-2.737z"/><path d="m84.354 138.82h-40.155c-4.267 0-7.737-3.471-7.737-7.738s3.471-7.737 7.737-7.737h40.154c4.267 0 7.737 3.471 7.737 7.737s-3.47 7.738-7.736 7.738zm-40.155-10.475c-1.51 0-2.737 1.228-2.737 2.737 0 1.51 1.228 2.738 2.737 2.738h40.154c1.51 0 2.737-1.228 2.737-2.738 0-1.509-1.228-2.737-2.737-2.737z"/><path d="m211.946 224.582c-.05 0-.115-.002-.2-.007h-39.372c-1.381 0-2.5-1.119-2.5-2.5v-5.049c0-3.527 2.869-6.396 6.396-6.396h31.781c3.526 0 6.396 2.869 6.396 6.396v5.056c0 .676-.273 1.323-.759 1.794-.468.454-1.092.706-1.742.706zm-.145-.007h.01zm-36.927-5h34.572v-2.549c0-.77-.626-1.396-1.396-1.396h-31.78c-.77 0-1.396.626-1.396 1.396z"/><path d="m147.786 224.575h-39.572c-1.381 0-2.5-1.119-2.5-2.5v-5.049c0-3.527 2.869-6.396 6.396-6.396h31.781c3.526 0 6.396 2.869 6.396 6.396v5.049c-.001 1.381-1.12 2.5-2.501 2.5zm-37.072-5h34.572v-2.549c0-.77-.626-1.396-1.396-1.396h-31.781c-.77 0-1.396.626-1.396 1.396v2.549z"/><path d="m208.051 147.757h-31.781c-3.526 0-6.396-2.869-6.396-6.396v-5.042c0-1.381 1.119-2.5 2.5-2.5h39.373c.083-.005.153-.008.199-.007.653 0 1.282.256 1.75.715.479.47.75 1.113.75 1.785v5.049c0 3.527-2.869 6.396-6.395 6.396zm-33.177-8.937v2.542c0 .77.626 1.396 1.396 1.396h31.781c.77 0 1.396-.626 1.396-1.396v-2.542z"/><path d="m143.891 147.757h-31.781c-3.526 0-6.396-2.869-6.396-6.396v-5.042c0-1.381 1.119-2.5 2.5-2.5h39.572c1.381 0 2.5 1.119 2.5 2.5v5.042c0 3.527-2.869 6.396-6.395 6.396zm-33.177-8.937v2.542c0 .77.626 1.396 1.396 1.396h31.781c.77 0 1.396-.626 1.396-1.396v-2.542z"/><path d="m80.167 147.757h-31.781c-3.526 0-6.396-2.869-6.396-6.396v-5.042c0-1.381 1.119-2.5 2.5-2.5h39.572c1.381 0 2.5 1.119 2.5 2.5v5.042c0 3.527-2.869 6.396-6.395 6.396zm-33.177-8.937v2.542c0 .77.626 1.396 1.396 1.396h31.781c.77 0 1.395-.626 1.395-1.396v-2.542z"/><path d="m84.062 224.575h-39.572c-1.381 0-2.5-1.119-2.5-2.5v-5.049c0-3.527 2.869-6.396 6.396-6.396h31.781c3.526 0 6.395 2.869 6.395 6.396v5.049c0 1.381-1.119 2.5-2.5 2.5zm-37.072-5h34.572v-2.549c0-.77-.626-1.396-1.395-1.396h-31.781c-.77 0-1.396.626-1.396 1.396z"/><path d="m197.07 204.643c-1.381 0-2.5-1.119-2.5-2.5v-44.229c0-1.381 1.119-2.5 2.5-2.5s2.5 1.119 2.5 2.5v44.229c0 1.381-1.119 2.5-2.5 2.5z"/><path d="m187.25 204.643c-1.381 0-2.5-1.119-2.5-2.5v-44.229c0-1.381 1.119-2.5 2.5-2.5s2.5 1.119 2.5 2.5v44.229c0 1.381-1.119 2.5-2.5 2.5z"/><path d="m132.474 204.643c-1.381 0-2.5-1.119-2.5-2.5v-44.229c0-1.381 1.119-2.5 2.5-2.5s2.5 1.119 2.5 2.5v44.229c0 1.381-1.12 2.5-2.5 2.5z"/><path d="m122.653 204.643c-1.381 0-2.5-1.119-2.5-2.5v-44.229c0-1.381 1.119-2.5 2.5-2.5s2.5 1.119 2.5 2.5v44.229c0 1.381-1.119 2.5-2.5 2.5z"/><path d="m68.75 204.643c-1.381 0-2.5-1.119-2.5-2.5v-44.229c0-1.381 1.119-2.5 2.5-2.5s2.5 1.119 2.5 2.5v44.229c0 1.381-1.119 2.5-2.5 2.5z"/><path d="m58.93 204.643c-1.381 0-2.5-1.119-2.5-2.5v-44.229c0-1.381 1.119-2.5 2.5-2.5s2.5 1.119 2.5 2.5v44.229c0 1.381-1.119 2.5-2.5 2.5z"/><path d="m111.485 215.693c-.59 0-1.165-.208-1.62-.596-.559-.475-.88-1.171-.88-1.904v-67.999c0-.733.321-1.429.88-1.904.558-.475 1.298-.68 2.02-.564.075.012.15.028.228.031h31.529c1.381 0 2.5 1.119 2.5 2.5v67.873c0 1.381-1.119 2.5-2.5 2.5h-31.53c-.077.002-.151.019-.227.031-.133.021-.267.032-.4.032zm2.5-5.063h27.156v-62.873h-27.156z"/><path d="m208.238 215.649c-.045 0-.09-.001-.135-.003-.041-.002-.109-.009-.174-.016h-31.542c-.064.007-.133.013-.171.016-.684.035-1.355-.209-1.854-.682-.498-.472-.78-1.128-.78-1.814v-67.911c0-.683.279-1.336.773-1.808.494-.471 1.164-.712 1.842-.689.047.002.123.009.194.017h31.54c.071-.007.147-.014.191-.017.684-.023 1.349.218 1.842.689.494.472.773 1.125.773 1.808v67.911c0 .687-.282 1.343-.78 1.814-.465.441-1.081.685-1.719.685zm-29.656-5.019h27.156v-62.873h-27.156z"/><path d="m47.762 215.693c-.59 0-1.165-.208-1.62-.596-.559-.475-.88-1.171-.88-1.904v-67.999c0-.733.321-1.429.88-1.904.558-.475 1.297-.68 2.02-.564.075.012.15.028.228.031h31.529c1.381 0 2.5 1.119 2.5 2.5v67.873c0 1.381-1.119 2.5-2.5 2.5h-31.53c-.077.002-.151.019-.227.031-.134.021-.267.032-.4.032zm2.5-5.063h27.156v-62.873h-27.156z"/><path d="m172.374 143.393h-24.588c-1.381 0-2.5-1.119-2.5-2.5v-4.573c0-1.381 1.119-2.5 2.5-2.5h.291c1.51 0 2.737-1.228 2.737-2.738 0-1.509-1.228-2.737-2.737-2.737-1.381 0-2.5-1.119-2.5-2.5s1.119-2.5 2.5-2.5h23.569c1.381 0 2.5 1.119 2.5 2.5s-1.119 2.5-2.5 2.5c-1.51 0-2.737 1.228-2.737 2.737 0 1.51 1.228 2.738 2.737 2.738h.728c1.381 0 2.5 1.119 2.5 2.5v4.573c0 1.38-1.119 2.5-2.5 2.5zm-21.76-5h18.495c-3.024-1.053-5.2-3.932-5.2-7.311 0-.963.177-1.886.5-2.737h-9.095c.323.852.5 1.774.5 2.737 0 3.378-2.175 6.258-5.2 7.311z"/><path d="m108.214 143.393h-24.152c-1.381 0-2.5-1.119-2.5-2.5v-4.573c0-1.381 1.119-2.5 2.5-2.5h.291c1.51 0 2.737-1.228 2.737-2.738 0-1.509-1.228-2.737-2.737-2.737-1.381 0-2.5-1.119-2.5-2.5s1.119-2.5 2.5-2.5h23.569c1.381 0 2.5 1.119 2.5 2.5s-1.119 2.5-2.5 2.5c-1.51 0-2.737 1.228-2.737 2.737 0 1.51 1.228 2.738 2.737 2.738h.291c1.381 0 2.5 1.119 2.5 2.5v4.573c.001 1.38-1.118 2.5-2.499 2.5zm-21.323-5h18.495c-3.024-1.053-5.2-3.932-5.2-7.311 0-.963.177-1.886.5-2.737h-9.095c.323.852.5 1.774.5 2.737 0 3.378-2.176 6.258-5.2 7.311z"/><path d="m171.646 235.05h-23.569c-1.381 0-2.5-1.119-2.5-2.5s1.119-2.5 2.5-2.5c1.51 0 2.737-1.228 2.737-2.738 0-1.509-1.228-2.737-2.737-2.737h-.291c-1.381 0-2.5-1.119-2.5-2.5v-5.049c0-.77-.626-1.396-1.396-1.396h-.249c-1.381 0-2.5-1.119-2.5-2.5v-67.873c0-1.381 1.119-2.5 2.5-2.5h.249c.77 0 1.396-.626 1.396-1.396v-.469c0-1.381 1.119-2.5 2.5-2.5h24.588c1.381 0 2.5 1.119 2.5 2.5v.469c0 .692.506 1.268 1.167 1.377.051-.002.104 0 .156.002.061.003.167.013.251.023 1.297.091 2.321 1.173 2.321 2.494 0 .337-.066.658-.188.952v65.969c.121.293.188.615.188.952 0 1.324-1.029 2.407-2.33 2.494-.078.009-.174.019-.223.021-.059.003-.115.007-.176.003-.661.109-1.167.686-1.167 1.377v5.049c0 1.381-1.119 2.5-2.5 2.5h-.728c-1.51 0-2.737 1.228-2.737 2.737 0 1.51 1.228 2.738 2.737 2.738 1.381 0 2.5 1.119 2.5 2.5s-1.118 2.501-2.499 2.501zm-16.332-5h9.095c-.323-.852-.5-1.774-.5-2.738 0-3.657 2.55-6.729 5.965-7.533v-2.753c0-2.567 1.521-4.786 3.708-5.804v-64.057c-1.583-.736-2.816-2.102-3.378-3.772h-20.248c-.612 1.822-2.023 3.28-3.814 3.956v63.69c2.419.913 4.145 3.252 4.145 5.987v2.87c3.193.953 5.528 3.917 5.528 7.416-.001.963-.177 1.886-.501 2.738z"/><path d="m107.923 235.05h-23.569c-1.381 0-2.5-1.119-2.5-2.5s1.119-2.5 2.5-2.5c1.51 0 2.737-1.228 2.737-2.738 0-1.509-1.228-2.737-2.737-2.737h-.291c-1.381 0-2.5-1.119-2.5-2.5v-5.049c0-.77-.626-1.396-1.395-1.396h-.249c-1.381 0-2.5-1.119-2.5-2.5v-67.873c0-1.381 1.119-2.5 2.5-2.5h.249c.77 0 1.395-.626 1.395-1.396v-.469c0-1.381 1.119-2.5 2.5-2.5h24.151c1.381 0 2.5 1.119 2.5 2.5v.469c0 .641.435 1.183 1.024 1.346.049.005.098.012.146.02.075.012.149.028.227.031 1.38.001 2.498 1.12 2.498 2.5 0 .633-.235 1.212-.624 1.652v64.568c.389.44.624 1.019.624 1.652 0 1.381-1.119 2.5-2.5 2.5-.074.002-.149.019-.225.031-.049.008-.098.015-.146.02-.59.163-1.024.705-1.024 1.346v5.049c0 1.381-1.119 2.5-2.5 2.5h-.291c-1.51 0-2.737 1.228-2.737 2.737 0 1.51 1.228 2.738 2.737 2.738 1.381 0 2.5 1.119 2.5 2.5s-1.119 2.499-2.5 2.499zm-16.332-5h9.095c-.323-.852-.5-1.774-.5-2.738 0-3.499 2.335-6.463 5.528-7.416v-2.87c0-2.393 1.321-4.483 3.271-5.58v-64.505c-1.372-.771-2.433-2.034-2.941-3.548h-19.812c-.612 1.822-2.023 3.28-3.814 3.956v63.69c2.419.913 4.145 3.252 4.145 5.987v2.87c3.193.953 5.528 3.917 5.528 7.416 0 .963-.177 1.886-.5 2.738z"/><path d="m95.266 204.498c-1.381 0-2.5-1.119-2.5-2.5v-44.52c0-1.381 1.119-2.5 2.5-2.5s2.5 1.119 2.5 2.5v44.52c0 1.38-1.12 2.5-2.5 2.5z"/><path d="m159.861 204.498c-1.381 0-2.5-1.119-2.5-2.5v-44.52c0-1.381 1.119-2.5 2.5-2.5s2.5 1.119 2.5 2.5v44.52c0 1.38-1.119 2.5-2.5 2.5z"/><path d="m216.545 128.345h-177.09c-1.036 0-1.966-.64-2.336-1.608-.369-.968-.104-2.064.669-2.755l49.814-44.549c.707-.633 1.712-.81 2.591-.459.881.35 1.488 1.169 1.567 2.113 1.57 18.669 17.488 33.293 36.24 33.293 18.753 0 34.671-14.624 36.239-33.293.079-.944.687-1.763 1.567-2.113.878-.351 1.883-.174 2.591.459l49.814 44.549c.772.691 1.038 1.787.669 2.755s-1.299 1.608-2.335 1.608zm-170.544-5h163.998l-41.462-37.079c-3.872 18.912-20.828 33.114-40.537 33.114-19.708 0-36.664-14.203-40.537-33.114z"/><path d="m31.603 133.579c-2.127 0-4.246-.869-5.772-2.576-2.844-3.181-2.57-8.083.61-10.926l63.064-56.398c.848-.757 2.098-.85 3.045-.223.947.625 1.354 1.811.99 2.887-1.274 3.767-1.92 7.689-1.92 11.658 0 .956.046 1.965.141 3.085.066.783-.239 1.551-.824 2.074l-54.181 48.453c-1.474 1.317-3.317 1.966-5.153 1.966zm55.363-60.923-57.192 51.147c-1.126 1.006-1.223 2.741-.217 3.866 1.006 1.124 2.741 1.222 3.865.216l53.266-47.635c-.046-.784-.068-1.528-.068-2.25 0-1.792.116-3.576.346-5.344z"/><path d="m224.396 133.578c-1.836 0-3.679-.648-5.152-1.965l-54.181-48.454c-.585-.523-.891-1.291-.824-2.074.095-1.121.141-2.13.141-3.085 0-3.968-.646-7.891-1.92-11.658-.364-1.076.043-2.261.99-2.887.948-.627 2.199-.534 3.045.223l63.065 56.399c3.18 2.843 3.453 7.745.609 10.925-1.525 1.706-3.645 2.576-5.773 2.576zm-55.084-53.328 53.267 47.635c1.124 1.004 2.858.91 3.866-.217 1.005-1.124.908-2.858-.217-3.864-.001 0-.001 0-.001 0l-57.192-51.147c.229 1.768.346 3.552.346 5.344-.001.721-.024 1.465-.069 2.249z"/><path d="m131.704 93.347h-11.849c-1.381 0-2.5-1.119-2.5-2.5s1.119-2.5 2.5-2.5h11.849c2.31 0 4.188-1.879 4.188-4.188 0-2.31-1.879-4.188-4.188-4.188h-7.408c-5.066 0-9.188-4.122-9.188-9.188s4.122-9.188 9.188-9.188h10.499c1.381 0 2.5 1.119 2.5 2.5s-1.119 2.5-2.5 2.5h-10.499c-2.31 0-4.188 1.879-4.188 4.188s1.879 4.188 4.188 4.188h7.408c5.066 0 9.188 4.122 9.188 9.188s-4.121 9.188-9.188 9.188z"/><path d="m128 97.923c-1.381 0-2.5-1.119-2.5-2.5v-35.905c0-1.381 1.119-2.5 2.5-2.5s2.5 1.119 2.5 2.5v35.905c0 1.381-1.119 2.5-2.5 2.5z"/><path d="m162.203 62c-.917 0-1.761-.502-2.198-1.309-6.375-11.763-18.639-19.071-32.005-19.071s-25.63 7.308-32.005 19.071c-.437.807-1.281 1.309-2.198 1.309s-1.761-.502-2.198-1.309c-3.257-6.008-4.979-12.817-4.979-19.691 0-22.817 18.562-41.38 41.38-41.38s41.38 18.563 41.38 41.38c0 6.874-1.722 13.683-4.979 19.691-.437.807-1.281 1.309-2.198 1.309zm-34.203-25.38c13.598 0 26.192 6.649 33.889 17.626 1.638-4.199 2.491-8.707 2.491-13.247 0-20.06-16.32-36.38-36.38-36.38s-36.38 16.321-36.38 36.381c0 4.54.854 9.047 2.491 13.247 7.697-10.977 20.291-17.627 33.889-17.627z"/><path d="m128 119.379c-22.817 0-41.38-18.562-41.38-41.379s18.563-41.379 41.38-41.379 41.38 18.562 41.38 41.379-18.563 41.379-41.38 41.379zm0-77.758c-20.06 0-36.38 16.32-36.38 36.379s16.32 36.379 36.38 36.379 36.38-16.319 36.38-36.379-16.32-36.379-36.38-36.379z"/><path d="m121.206 42.217c-.39 0-.785-.091-1.154-.284-3.05-1.59-4.944-4.714-4.944-8.151 0-5.066 4.122-9.188 9.188-9.188h10.499c1.381 0 2.5 1.119 2.5 2.5s-1.119 2.5-2.5 2.5h-10.499c-2.31 0-4.188 1.879-4.188 4.188 0 1.567.864 2.992 2.257 3.718 1.224.639 1.699 2.148 1.061 3.373-.447.855-1.319 1.344-2.22 1.344z"/><path d="m128 41.62c-1.381 0-2.5-1.119-2.5-2.5v-16.602c0-1.381 1.119-2.5 2.5-2.5s2.5 1.119 2.5 2.5v16.602c0 1.381-1.119 2.5-2.5 2.5z"/><path d="m173.609 19.336c-.395 0-.795-.094-1.168-.291-1.22-.646-1.686-2.159-1.039-3.379l4.343-8.201c.646-1.22 2.159-1.685 3.379-1.04 1.22.646 1.686 2.159 1.039 3.379l-4.343 8.201c-.448.848-1.314 1.331-2.211 1.331z"/><path d="m178.885 28.154c-1.068 0-2.058-.69-2.389-1.765-.406-1.32.335-2.719 1.654-3.125l8.87-2.729c1.321-.405 2.719.335 3.125 1.654.406 1.32-.335 2.719-1.654 3.125l-8.87 2.729c-.245.075-.493.111-.736.111z"/><path d="m186.524 42.866c-.395 0-.795-.094-1.168-.291l-8.201-4.342c-1.22-.646-1.686-2.159-1.04-3.379.647-1.22 2.159-1.684 3.38-1.04l8.201 4.342c1.22.646 1.686 2.159 1.04 3.379-.449.847-1.315 1.331-2.212 1.331z"/><path d="m128 110.629c-17.992 0-32.63-14.638-32.63-32.629s14.638-32.629 32.63-32.629 32.63 14.637 32.63 32.629-14.638 32.629-32.63 32.629zm0-60.258c-15.235 0-27.63 12.395-27.63 27.629s12.395 27.629 27.63 27.629 27.63-12.394 27.63-27.629-12.395-27.629-27.63-27.629z"/><path d="m156.302 53.857c-.682 0-1.343-.279-1.82-.786-6.954-7.384-16.358-11.451-26.482-11.451s-19.528 4.067-26.481 11.451c-.595.63-1.476.91-2.322.735-.85-.174-1.548-.775-1.846-1.589-1.314-3.589-1.98-7.363-1.98-11.217 0-17.992 14.638-32.63 32.63-32.63s32.629 14.638 32.629 32.63c0 3.854-.666 7.628-1.98 11.217-.298.814-.996 1.415-1.846 1.589-.167.035-.335.051-.502.051zm-28.302-17.237c10.084 0 19.54 3.546 27.045 10.066.389-1.858.585-3.76.585-5.686 0-15.235-12.395-27.63-27.63-27.63s-27.63 12.395-27.63 27.63c0 1.926.196 3.828.585 5.686 7.505-6.52 16.961-10.066 27.045-10.066z"/></svg>