<svg enable-background="new 0 0 256 256" height="512" viewBox="0 0 256 256" width="512" xmlns="http://www.w3.org/2000/svg"><path d="m244.5 253.5h-233c-3.313 0-6-2.687-6-6s2.687-6 6-6h233c3.313 0 6 2.687 6 6s-2.687 6-6 6z" fill="#dae6f1"/><path d="m234.5 241.5h-213c-3.313 0-6-2.687-6-6s2.687-6 6-6h213c3.313 0 6 2.687 6 6s-2.687 6-6 6z" fill="#c7d7e5"/><path d="m230 223.5c0-3.313-2.687-6-6-6h-46c-3.313 0-6 2.687-6 6s2.687 6 6 6h46c3.313 0 6-2.687 6-6z" fill="#edf4fc"/><path d="m157 223.5c0-3.313-2.687-6-6-6h-46c-3.313 0-6 2.687-6 6s2.687 6 6 6h46c3.313 0 6-2.687 6-6z" fill="#edf4fc"/><path d="m84 223.5c0-3.313-2.687-6-6-6h-46c-3.313 0-6 2.687-6 6s2.687 6 6 6h46c3.313 0 6-2.687 6-6z" fill="#edf4fc"/><path d="m230 113.261c0-3.313-2.687-6-6-6h-46c-3.313 0-6 2.687-6 6s2.687 6 6 6h46c3.313 0 6-2.686 6-6z" fill="#edf4fc"/><path d="m157 113.261c0-3.313-2.687-6-6-6h-46c-3.313 0-6 2.687-6 6s2.687 6 6 6h46c3.313 0 6-2.686 6-6z" fill="#edf4fc"/><path d="m84 113.261c0-3.313-2.687-6-6-6h-46c-3.313 0-6 2.687-6 6s2.687 6 6 6h46c3.313 0 6-2.686 6-6z" fill="#edf4fc"/><g fill="#dae6f1"><path d="m224 217.5c.056 0 .111.007.167.008v-5.792c0-2.465-1.998-4.463-4.463-4.463h-36.407c-2.465 0-4.463 1.998-4.463 4.463v5.784z"/><path d="m150.667 217.5v-5.784c0-2.465-1.998-4.463-4.463-4.463h-36.407c-2.465 0-4.463 1.998-4.463 4.463v5.784z"/><path d="m224 119.261h-45.167v5.775c0 2.465 1.998 4.463 4.463 4.463h36.407c2.465 0 4.463-1.998 4.463-4.463v-5.784c-.055.003-.11.009-.166.009z"/><path d="m105.333 119.261v5.775c0 2.465 1.998 4.463 4.463 4.463h36.407c2.465 0 4.463-1.998 4.463-4.463v-5.775z"/><path d="m32.333 119.261v5.775c0 2.465 1.998 4.463 4.463 4.463h36.407c2.465 0 4.463-1.998 4.463-4.463v-5.775z"/><path d="m77.667 217.5v-5.784c0-2.465-1.998-4.463-4.463-4.463h-36.407c-2.465 0-4.463 1.998-4.463 4.463v5.784z"/></g><path d="m109.797 207.253h36.122v-77.753h-36.122c-.245 0-.481-.034-.715-.072v77.897c.234-.038.47-.072.715-.072z" fill="#c7d7e5"/><path d="m219.703 129.5h-36.407c-.074 0-.142-.018-.215-.022v77.796c.073-.004.141-.022.215-.022h36.407c.074 0 .142.018.215.022v-77.796c-.072.004-.141.022-.215.022z" fill="#c7d7e5"/><path d="m36.797 207.253h36.122v-77.753h-36.122c-.245 0-.481-.034-.715-.072v77.897c.234-.038.47-.072.715-.072z" fill="#c7d7e5"/><path d="m178 107.261h-27c3.313 0 6 2.687 6 6s-2.687 6-6 6h-.333v5.239h28.167v-5.239h-.834c-3.313 0-6-2.687-6-6s2.687-6 6-6z" fill="#3a70bf"/><path d="m105.333 124.5v-5.239h-.333c-3.313 0-6-2.687-6-6s2.687-6 6-6h-27c3.313 0 6 2.687 6 6s-2.687 6-6 6h-.333v5.239z" fill="#3a70bf"/><path d="m150.667 124.5v.537c0 2.465-1.998 4.463-4.463 4.463h-.285v77.753h.285c2.465 0 4.463 1.998 4.463 4.463v5.784h.333c3.313 0 6 2.687 6 6s-2.687 6-6 6h27c-3.313 0-6-2.687-6-6s2.687-6 6-6h.833v-5.784c0-2.465 1.998-4.463 4.463-4.463-.074 0-.142.018-.215.022v-77.796c.073.004.141.022.215.022-2.465 0-4.463-1.998-4.463-4.463v-.538z" fill="#5290db"/><path d="m78 229.5h27c-3.313 0-6-2.687-6-6s2.687-6 6-6h.333v-5.784c0-2.465 1.998-4.463 4.463-4.463-.245 0-.481.034-.715.072v-77.897c.234.038.47.072.715.072-2.465 0-4.463-1.998-4.463-4.463v-.537h-27.666v.537c0 2.465-1.998 4.463-4.463 4.463h-.285v77.753h.285c2.465 0 4.463 1.998 4.463 4.463v5.784h.333c3.313 0 6 2.687 6 6s-2.687 6-6 6z" fill="#5290db"/><path d="m234.436 111.734-106.436-95.185-106.436 95.185c-2.469 2.208-6.262 1.998-8.472-.473-2.208-2.47-1.997-6.263.473-8.472l110.435-98.762c2.277-2.036 5.722-2.036 7.999 0l110.436 98.762c2.47 2.209 2.682 6.002.473 8.472-2.213 2.474-6.006 2.679-8.472.473z" fill="#edf4fc"/><path d="m128 16.549-101.435 90.712h202.87z" fill="#c7d7e5"/><circle cx="128.5" cy="69" fill="#f5c84c" r="24.5"/><path d="m174.673 4.874h-2.07v-2.07c0-1.549-1.256-2.805-2.805-2.805s-2.805 1.256-2.805 2.805v2.07h-2.069c-1.549 0-2.805 1.256-2.805 2.805s1.256 2.805 2.805 2.805h2.069v2.07c0 1.549 1.256 2.805 2.805 2.805s2.805-1.256 2.805-2.805v-2.07h2.07c1.549 0 2.805-1.256 2.805-2.805s-1.256-2.805-2.805-2.805z" fill="#edb311"/><path d="m202.646 41.819c-1.349.255-2.255 1.464-2.255 2.749 0 1.635 1.434 3.086 3.355 2.749 1.269-.24 2.255-1.397 2.255-2.749-.001-1.673-1.503-3.094-3.355-2.749z" fill="#ef4460"/><path d="m23.745 140.819c-1.843-.333-3.355 1.042-3.355 2.749 0 1.482 1.185 2.805 2.805 2.805 1.509 0 2.805-1.248 2.805-2.805 0-1.349-.977-2.508-2.255-2.749z" fill="#edb311"/><path d="m44.745 36.819c-1.843-.333-3.355 1.042-3.355 2.749 0 1.482 1.185 2.805 2.805 2.805 1.508 0 2.805-1.249 2.805-2.805 0-1.334-.96-2.504-2.255-2.749z" fill="#87d147"/><path d="m40.309 61.89c-3.995-.744-7.144-3.829-7.904-7.743-.038-.197-.313-.197-.351 0-.76 3.914-3.908 6.999-7.904 7.743-.201.037-.201.306 0 .344 3.995.744 7.144 3.829 7.904 7.743.038.197.313.197.351 0 .76-3.914 3.908-6.999 7.904-7.743.2-.038.2-.306 0-.344z" fill="#3caadc"/><path d="m17.575 115.762c-.161 0-.322-.004-.484-.014-2.267-.126-4.35-1.128-5.863-2.821-3.124-3.494-2.823-8.877.67-12.002l110.436-98.761c3.23-2.889 8.102-2.888 11.332 0l110.436 98.762c3.494 3.124 3.794 8.508.67 12.001-3.126 3.494-8.51 3.794-12.002.671l-104.77-93.695-104.77 93.695c-1.571 1.405-3.563 2.164-5.655 2.164zm110.425-110.763c-.834 0-1.668.297-2.333.892l-110.436 98.761c-1.438 1.287-1.562 3.503-.276 4.942.624.697 1.481 1.11 2.414 1.162.938.055 1.831-.263 2.528-.886l106.436-95.185c.949-.849 2.384-.849 3.333 0l106.436 95.186c1.437 1.285 3.655 1.162 4.942-.277 1.286-1.438 1.162-3.655-.276-4.941l-110.435-98.762c-.665-.595-1.499-.892-2.333-.892z"/><path d="m229.435 109.762h-202.87c-1.037 0-1.966-.64-2.335-1.608s-.104-2.064.669-2.755l101.435-90.713c.949-.849 2.384-.849 3.333 0l101.435 90.713c.773.691 1.039 1.787.669 2.755s-1.3 1.608-2.336 1.608zm-196.324-5h189.777l-94.888-84.859z"/><path d="m244.5 256h-233c-4.687 0-8.5-3.813-8.5-8.5s3.813-8.5 8.5-8.5h233c4.687 0 8.5 3.813 8.5 8.5s-3.813 8.5-8.5 8.5zm-233-12c-1.93 0-3.5 1.57-3.5 3.5s1.57 3.5 3.5 3.5h233c1.93 0 3.5-1.57 3.5-3.5s-1.57-3.5-3.5-3.5z"/><path d="m234.5 244h-213c-4.687 0-8.5-3.813-8.5-8.5s3.813-8.5 8.5-8.5h213c4.687 0 8.5 3.813 8.5 8.5s-3.813 8.5-8.5 8.5zm-213-12c-1.93 0-3.5 1.57-3.5 3.5s1.57 3.5 3.5 3.5h213c1.93 0 3.5-1.57 3.5-3.5s-1.57-3.5-3.5-3.5z"/><path d="m224 232h-46c-4.687 0-8.5-3.813-8.5-8.5s3.813-8.5 8.5-8.5h46c4.687 0 8.5 3.813 8.5 8.5s-3.813 8.5-8.5 8.5zm-46-12c-1.93 0-3.5 1.57-3.5 3.5s1.57 3.5 3.5 3.5h46c1.93 0 3.5-1.57 3.5-3.5s-1.57-3.5-3.5-3.5z"/><path d="m151 232h-46c-4.687 0-8.5-3.813-8.5-8.5s3.813-8.5 8.5-8.5h46c4.687 0 8.5 3.813 8.5 8.5s-3.813 8.5-8.5 8.5zm-46-12c-1.93 0-3.5 1.57-3.5 3.5s1.57 3.5 3.5 3.5h46c1.93 0 3.5-1.57 3.5-3.5s-1.57-3.5-3.5-3.5z"/><path d="m78 232h-46c-4.687 0-8.5-3.813-8.5-8.5s3.813-8.5 8.5-8.5h46c4.687 0 8.5 3.813 8.5 8.5s-3.813 8.5-8.5 8.5zm-46-12c-1.93 0-3.5 1.57-3.5 3.5s1.57 3.5 3.5 3.5h46c1.93 0 3.5-1.57 3.5-3.5s-1.57-3.5-3.5-3.5z"/><path d="m224 121.762h-46c-4.687 0-8.5-3.813-8.5-8.5s3.813-8.5 8.5-8.5h46c4.687 0 8.5 3.813 8.5 8.5s-3.813 8.5-8.5 8.5zm-46-12c-1.93 0-3.5 1.57-3.5 3.5s1.57 3.5 3.5 3.5h46c1.93 0 3.5-1.57 3.5-3.5s-1.57-3.5-3.5-3.5z"/><path d="m151 121.762h-46c-4.687 0-8.5-3.813-8.5-8.5s3.813-8.5 8.5-8.5h46c4.687 0 8.5 3.813 8.5 8.5s-3.813 8.5-8.5 8.5zm-46-12c-1.93 0-3.5 1.57-3.5 3.5s1.57 3.5 3.5 3.5h46c1.93 0 3.5-1.57 3.5-3.5s-1.57-3.5-3.5-3.5z"/><path d="m78 121.762h-46c-4.687 0-8.5-3.813-8.5-8.5s3.813-8.5 8.5-8.5h46c4.687 0 8.5 3.813 8.5 8.5s-3.813 8.5-8.5 8.5zm-46-12c-1.93 0-3.5 1.57-3.5 3.5s1.57 3.5 3.5 3.5h46c1.93 0 3.5-1.57 3.5-3.5s-1.57-3.5-3.5-3.5z"/><path d="m224.167 220.008c-.051 0-.136-.003-.219-.008h-45.114c-1.381 0-2.5-1.119-2.5-2.5v-5.784c0-3.84 3.124-6.963 6.963-6.963h36.407c3.839 0 6.963 3.124 6.963 6.963v5.792c0 .674-.272 1.32-.756 1.791-.468.455-1.094.709-1.744.709zm-.167-.008h.01zm-42.667-5h40.333v-3.284c0-1.083-.88-1.963-1.963-1.963h-36.407c-1.083 0-1.963.881-1.963 1.963z"/><path d="m150.667 220h-45.333c-1.381 0-2.5-1.119-2.5-2.5v-5.784c0-3.84 3.124-6.963 6.963-6.963h36.407c3.839 0 6.963 3.124 6.963 6.963v5.784c0 1.381-1.12 2.5-2.5 2.5zm-42.834-5h40.333v-3.284c0-1.083-.88-1.963-1.963-1.963h-36.407c-1.083 0-1.963.881-1.963 1.963z"/><path d="m219.704 132h-36.407c-3.839 0-6.963-3.124-6.963-6.963v-5.775c0-1.381 1.119-2.5 2.5-2.5h45.113c.1-.005.172-.008.22-.009.651 0 1.277.254 1.744.709.483.471.756 1.117.756 1.791v5.784c0 3.839-3.124 6.963-6.963 6.963zm-38.371-10.238v3.275c0 1.083.88 1.963 1.963 1.963h36.407c1.083 0 1.963-.881 1.963-1.963v-3.275z"/><path d="m146.204 132h-36.407c-3.839 0-6.963-3.124-6.963-6.963v-5.775c0-1.381 1.119-2.5 2.5-2.5h45.333c1.381 0 2.5 1.119 2.5 2.5v5.775c0 3.839-3.124 6.963-6.963 6.963zm-38.371-10.238v3.275c0 1.083.88 1.963 1.963 1.963h36.407c1.083 0 1.963-.881 1.963-1.963v-3.275z"/><path d="m73.204 132h-36.408c-3.839 0-6.963-3.124-6.963-6.963v-5.775c0-1.381 1.119-2.5 2.5-2.5h45.333c1.381 0 2.5 1.119 2.5 2.5v5.775c.001 3.839-3.123 6.963-6.962 6.963zm-38.371-10.238v3.275c0 1.083.88 1.963 1.963 1.963h36.407c1.083 0 1.963-.881 1.963-1.963v-3.275z"/><path d="m77.667 220h-45.334c-1.381 0-2.5-1.119-2.5-2.5v-5.784c0-3.84 3.124-6.963 6.963-6.963h36.407c3.839 0 6.963 3.124 6.963 6.963v5.784c.001 1.381-1.119 2.5-2.499 2.5zm-42.834-5h40.333v-3.284c0-1.083-.88-1.963-1.963-1.963h-36.407c-1.083 0-1.963.881-1.963 1.963z"/><path d="m207.125 197.167c-1.381 0-2.5-1.119-2.5-2.5v-50.667c0-1.381 1.119-2.5 2.5-2.5s2.5 1.119 2.5 2.5v50.667c0 1.38-1.119 2.5-2.5 2.5z"/><path d="m195.875 197.167c-1.381 0-2.5-1.119-2.5-2.5v-50.667c0-1.381 1.119-2.5 2.5-2.5s2.5 1.119 2.5 2.5v50.667c0 1.38-1.119 2.5-2.5 2.5z"/><path d="m133.125 197.167c-1.381 0-2.5-1.119-2.5-2.5v-50.667c0-1.381 1.119-2.5 2.5-2.5s2.5 1.119 2.5 2.5v50.667c0 1.38-1.119 2.5-2.5 2.5z"/><path d="m121.875 197.167c-1.381 0-2.5-1.119-2.5-2.5v-50.667c0-1.381 1.119-2.5 2.5-2.5s2.5 1.119 2.5 2.5v50.667c0 1.38-1.119 2.5-2.5 2.5z"/><path d="m60.125 197.167c-1.381 0-2.5-1.119-2.5-2.5v-50.667c0-1.381 1.119-2.5 2.5-2.5s2.5 1.119 2.5 2.5v50.667c0 1.38-1.119 2.5-2.5 2.5z"/><path d="m48.875 197.167c-1.381 0-2.5-1.119-2.5-2.5v-50.667c0-1.381 1.119-2.5 2.5-2.5s2.5 1.119 2.5 2.5v50.667c0 1.38-1.119 2.5-2.5 2.5z"/><path d="m109.082 209.825c-.589 0-1.164-.208-1.62-.596-.559-.475-.88-1.171-.88-1.904v-77.897c0-.733.322-1.43.88-1.904.559-.475 1.299-.682 2.021-.563.103.017.206.04.313.04h36.122c1.381 0 2.5 1.119 2.5 2.5v77.753c0 1.381-1.119 2.5-2.5 2.5h-36.122c-.107 0-.21.023-.313.04-.133.02-.268.031-.401.031zm2.5-5.072h31.837v-72.753h-31.837z"/><path d="m219.918 209.775c-.044 0-.089-.001-.134-.003s-.128-.01-.201-.019h-36.16c-.07.008-.139.015-.208.019-.69.039-1.356-.21-1.854-.682s-.78-1.128-.78-1.814v-77.796c0-.684.28-1.337.774-1.809s1.162-.723 1.843-.688c.05.002.138.01.216.019h36.175c.078-.008.166-.017.211-.019.68-.033 1.349.217 1.843.688.495.472.774 1.125.774 1.809v77.796c0 .687-.282 1.342-.78 1.814-.464.441-1.08.685-1.719.685zm-34.336-5.022h31.837v-72.753h-31.837z"/><path d="m36.082 209.825c-.589 0-1.164-.208-1.62-.596-.559-.475-.88-1.171-.88-1.904v-77.897c0-.733.322-1.43.88-1.904.559-.475 1.297-.682 2.021-.563.103.017.206.04.313.04h36.122c1.381 0 2.5 1.119 2.5 2.5v77.753c0 1.381-1.119 2.5-2.5 2.5h-36.122c-.107 0-.21.023-.313.04-.133.02-.268.031-.401.031zm2.5-5.072h31.837v-72.753h-31.837z"/><path d="m178.833 127h-28.167c-1.381 0-2.5-1.119-2.5-2.5v-5.238c0-1.381 1.119-2.5 2.5-2.5h.334c1.93 0 3.5-1.57 3.5-3.5s-1.57-3.5-3.5-3.5c-1.381 0-2.5-1.119-2.5-2.5s1.119-2.5 2.5-2.5h27c1.381 0 2.5 1.119 2.5 2.5s-1.119 2.5-2.5 2.5c-1.93 0-3.5 1.57-3.5 3.5s1.57 3.5 3.5 3.5h.833c1.381 0 2.5 1.119 2.5 2.5v5.238c0 1.381-1.119 2.5-2.5 2.5zm-25.666-5h23.167v-.402c-3.892-.776-6.833-4.219-6.833-8.336 0-1.247.27-2.432.754-3.5h-11.509c.484 1.068.754 2.253.754 3.5 0 3.938-2.692 7.26-6.333 8.22z"/><path d="m105.333 127h-27.666c-1.381 0-2.5-1.119-2.5-2.5v-5.238c0-1.381 1.119-2.5 2.5-2.5h.333c1.93 0 3.5-1.57 3.5-3.5s-1.57-3.5-3.5-3.5c-1.381 0-2.5-1.119-2.5-2.5s1.119-2.5 2.5-2.5h27c1.381 0 2.5 1.119 2.5 2.5s-1.119 2.5-2.5 2.5c-1.93 0-3.5 1.57-3.5 3.5s1.57 3.5 3.5 3.5h.333c1.381 0 2.5 1.119 2.5 2.5v5.238c0 1.381-1.119 2.5-2.5 2.5zm-25.166-5h22.667v-.518c-3.641-.96-6.333-4.282-6.333-8.22 0-1.247.27-2.432.754-3.5h-11.509c.484 1.068.754 2.253.754 3.5 0 3.938-2.692 7.26-6.333 8.22z"/><path d="m178 232h-27c-1.381 0-2.5-1.119-2.5-2.5s1.119-2.5 2.5-2.5c1.93 0 3.5-1.57 3.5-3.5s-1.57-3.5-3.5-3.5h-.333c-1.381 0-2.5-1.119-2.5-2.5v-5.784c0-1.083-.88-1.963-1.963-1.963h-.285c-1.381 0-2.5-1.119-2.5-2.5v-77.753c0-1.381 1.119-2.5 2.5-2.5h.285c1.083 0 1.963-.881 1.963-1.963v-.537c0-1.381 1.119-2.5 2.5-2.5h28.167c1.381 0 2.5 1.119 2.5 2.5v.537c0 .986.73 1.805 1.679 1.943.061-.001.124-.001.187.002.061.002.179.014.265.024 1.303.086 2.333 1.17 2.333 2.495 0 .361-.077.705-.215 1.016v75.722c.138.311.215.654.215 1.016 0 1.321-1.025 2.403-2.323 2.494-.089.012-.172.02-.258.025-.07.003-.139.003-.207.002-.947.139-1.676.958-1.676 1.942v5.784c0 1.381-1.119 2.5-2.5 2.5h-.834c-1.93 0-3.5 1.57-3.5 3.5s1.57 3.5 3.5 3.5c1.381 0 2.5 1.119 2.5 2.5s-1.119 2.498-2.5 2.498zm-19.254-5h11.509c-.484-1.068-.754-2.253-.754-3.5 0-4.117 2.941-7.56 6.833-8.336v-3.448c0-2.877 1.754-5.352 4.248-6.412v-73.855c-1.903-.809-3.375-2.442-3.966-4.449h-23.73c-.642 2.179-2.322 3.917-4.466 4.639v73.475c2.757.928 4.748 3.537 4.748 6.603v3.563c3.641.96 6.333 4.282 6.333 8.22-.001 1.247-.271 2.432-.755 3.5zm24.554-17.247c-.001 0-.002 0-.004 0z"/><path d="m105 232h-27c-1.381 0-2.5-1.119-2.5-2.5s1.119-2.5 2.5-2.5c1.93 0 3.5-1.57 3.5-3.5s-1.57-3.5-3.5-3.5h-.333c-1.381 0-2.5-1.119-2.5-2.5v-5.784c0-1.083-.88-1.963-1.963-1.963h-.285c-1.381 0-2.5-1.119-2.5-2.5v-77.753c0-1.381 1.119-2.5 2.5-2.5h.285c1.083 0 1.963-.881 1.963-1.963v-.537c0-1.381 1.119-2.5 2.5-2.5h27.667c1.381 0 2.5 1.119 2.5 2.5v.537c0 .913.626 1.683 1.472 1.901.06.005.119.013.178.022.103.017.206.04.313.04 1.381 0 2.5 1.119 2.5 2.5 0 .682-.272 1.299-.715 1.75v74.253c.442.451.715 1.068.715 1.75 0 1.381-1.119 2.5-2.5 2.5-.107 0-.21.023-.313.04-.06.01-.119.018-.178.023-.846.218-1.472.988-1.472 1.901v5.784c0 1.381-1.119 2.5-2.5 2.5h-.334c-1.93 0-3.5 1.57-3.5 3.5s1.57 3.5 3.5 3.5c1.381 0 2.5 1.119 2.5 2.5s-1.119 2.499-2.5 2.499zm-19.254-5h11.509c-.484-1.068-.754-2.253-.754-3.5 0-3.938 2.692-7.26 6.333-8.22v-3.563c0-2.681 1.522-5.012 3.748-6.176v-74.328c-1.66-.868-2.929-2.385-3.466-4.212h-23.23c-.642 2.179-2.322 3.917-4.466 4.639v73.475c2.757.928 4.748 3.537 4.748 6.603v3.563c3.641.96 6.333 4.282 6.333 8.22-.001 1.246-.271 2.431-.755 3.499z"/><path d="m90.5 197c-1.381 0-2.5-1.119-2.5-2.5v-51c0-1.381 1.119-2.5 2.5-2.5s2.5 1.119 2.5 2.5v51c0 1.381-1.119 2.5-2.5 2.5z"/><path d="m164.5 197c-1.381 0-2.5-1.119-2.5-2.5v-51c0-1.381 1.119-2.5 2.5-2.5s2.5 1.119 2.5 2.5v51c0 1.381-1.119 2.5-2.5 2.5z"/><path d="m128.5 96c-14.888 0-27-12.112-27-27s12.112-27 27-27 27 12.112 27 27-12.112 27-27 27zm0-49c-12.131 0-22 9.869-22 22s9.869 22 22 22 22-9.869 22-22-9.869-22-22-22z"/><path d="m130.885 81.411h-9.14c-1.381 0-2.5-1.119-2.5-2.5s1.119-2.5 2.5-2.5h9.14c1.466 0 2.66-1.193 2.66-2.66s-1.193-2.659-2.66-2.659h-5.714c-4.224 0-7.66-3.436-7.66-7.66s3.436-7.66 7.66-7.66h8.099c1.381 0 2.5 1.119 2.5 2.5s-1.119 2.5-2.5 2.5h-8.099c-1.466 0-2.66 1.193-2.66 2.66s1.193 2.66 2.66 2.66h5.714c4.224 0 7.66 3.436 7.66 7.659-.001 4.224-3.437 7.66-7.66 7.66z"/><path d="m128.027 84.94c-1.381 0-2.5-1.119-2.5-2.5v-27.697c0-1.381 1.119-2.5 2.5-2.5s2.5 1.119 2.5 2.5v27.697c0 1.381-1.119 2.5-2.5 2.5z"/></svg>