<svg enable-background="new 0 0 256 256" height="512" viewBox="0 0 256 256" width="512" xmlns="http://www.w3.org/2000/svg"><path d="m164.063 224.797h-144.511c-2.692 0-4.874 2.182-4.874 4.874v4.46c0 2.692 2.182 4.874 4.874 4.874h144.51c2.692 0 4.874-2.182 4.874-4.874v-4.46c.001-2.692-2.181-4.874-4.873-4.874z" fill="#87d147"/><path d="m128.952 63.807-26.457-26.368c-5.888-5.875-15.469-5.876-21.354-.003l-76.551 76.276c-2.779 2.769-2.787 7.267-.018 10.046 2.77 2.779 7.267 2.788 10.047.018l76.556-76.28c.354-.354.931-.354 1.288.003l36.49 36.367v-20.059z" fill="#ef4460"/><path d="m140.126 192.442c-6.145 0-11.174-5.028-11.174-11.174v-97.384l-36.508-36.385c-.358-.357-.935-.357-1.288-.003l-67.27 67.027v110.273h135.843v-32.355h-19.603z" fill="#edf4fc"/><path d="m80.546 150.712h-37.353c-2.016 0-3.65 1.634-3.65 3.65v70.434h44.654v-70.434c-.001-2.016-1.635-3.65-3.651-3.65z" fill="#c46c45"/><path d="m80.546 150.712h-37.353c-2.016 0-3.65 1.634-3.65 3.65v6.498h44.654v-6.498c-.001-2.016-1.635-3.65-3.651-3.65z" fill="#a75430"/><path d="m140.126 192.442c-6.145 0-11.174-5.028-11.174-11.174v-30.556h-31.4c-1.211 0-2.192.981-2.192 2.192v46.359c0 1.211.982 2.192 2.192 2.192h41.329c1.211 0 2.192-.982 2.192-2.192v-6.821z" fill="#70d6f9"/><path d="m128.952 150.712h-31.4c-1.211 0-2.192.981-2.192 2.192v7.956h33.593v-10.148z" fill="#3caadc"/><path d="m103.297 86.776h-21.964c-1.221 0-2.211.99-2.211 2.211v26.024c0 1.221.99 2.211 2.211 2.211h21.964c1.221 0 2.211-.99 2.211-2.211v-26.024c0-1.221-.99-2.211-2.211-2.211z" fill="#70d6f9"/><path d="m92.315 86.776h-10.982c-1.221 0-2.211.99-2.211 2.211v26.024c0 1.221.99 2.211 2.211 2.211h10.982z" fill="#3caadc"/><circle cx="239.43" cy="136.682" fill="#87d147" r="14.07"/><path d="m239.43 150.752c-7.771 0-14.07-6.299-14.07-14.07s6.299-14.07 14.07-14.07c4.138 0 7.848 1.798 10.422 4.642v-86.228c0-6.146-5.028-11.174-11.174-11.174h-98.553c-6.145 0-11.174 5.028-11.174 11.174v140.242c0 6.145 5.028 11.174 11.174 11.174h98.553c6.145 0 11.174-5.028 11.174-11.174v-35.158c-2.574 2.845-6.284 4.642-10.422 4.642z" fill="#fcdd86"/><path d="m238.679 194.942h-98.553c-7.54 0-13.674-6.134-13.674-13.673v-140.243c0-7.54 6.134-13.673 13.674-13.673h98.553c7.54 0 13.674 6.134 13.674 13.673v86.228c0 1.034-.637 1.961-1.601 2.333-.969.372-2.061.111-2.753-.655-2.197-2.427-5.321-3.819-8.569-3.819-6.38 0-11.57 5.19-11.57 11.57s5.19 11.57 11.57 11.57c3.248 0 6.371-1.393 8.569-3.82.692-.767 1.783-1.028 2.753-.655.964.372 1.601 1.299 1.601 2.333v35.158c0 7.539-6.134 13.673-13.674 13.673zm-98.553-162.589c-4.783 0-8.674 3.891-8.674 8.673v140.243c0 4.783 3.891 8.673 8.674 8.673h98.553c4.783 0 8.674-3.891 8.674-8.673v-30.049c-2.411 1.318-5.134 2.032-7.923 2.032-9.137 0-16.57-7.434-16.57-16.57s7.434-16.57 16.57-16.57c2.789 0 5.512.714 7.923 2.032v-81.118c0-4.783-3.891-8.673-8.674-8.673z"/><path d="m228.844 44.444h-78.883c-3.529 0-6.417 2.888-6.417 6.417v26.771c0 3.529 2.888 6.417 6.417 6.417h78.883c3.529 0 6.417-2.888 6.417-6.417v-26.771c0-3.53-2.888-6.417-6.417-6.417z" fill="#edf4fc"/><path d="m228.844 84.049h-78.883c-3.529 0-6.417 2.888-6.417 6.417v26.771c0 3.529 2.888 6.417 6.417 6.417h78.883c3.529 0 6.417-2.888 6.417-6.417v-26.771c0-3.53-2.888-6.417-6.417-6.417z" fill="#edf4fc"/><path d="m225.451 138.245h-75.491c-3.529 0-6.417 2.888-6.417 6.417v26.771c0 3.529 2.888 6.417 6.417 6.417h78.883c3.529 0 6.417-2.888 6.417-6.417v-21.31c-5.254-1.627-9.186-6.253-9.809-11.878z" fill="#fca265"/><path d="m228.844 86.549h-78.883c-4.917 0-8.917-4-8.917-8.917v-26.771c0-4.917 4-8.917 8.917-8.917h78.883c4.917 0 8.917 4 8.917 8.917v26.771c0 4.917-4 8.917-8.917 8.917zm-78.883-39.605c-2.16 0-3.917 1.757-3.917 3.917v26.771c0 2.16 1.757 3.917 3.917 3.917h78.883c2.16 0 3.917-1.757 3.917-3.917v-26.771c0-2.16-1.757-3.917-3.917-3.917z"/><path d="m228.844 126.154h-78.883c-4.917 0-8.917-4-8.917-8.917v-26.771c0-4.917 4-8.917 8.917-8.917h78.883c4.917 0 8.917 4 8.917 8.917v26.771c0 4.917-4 8.917-8.917 8.917zm-78.883-39.605c-2.16 0-3.917 1.757-3.917 3.917v26.771c0 2.16 1.757 3.917 3.917 3.917h78.883c2.16 0 3.917-1.757 3.917-3.917v-26.771c0-2.16-1.757-3.917-3.917-3.917z"/><path d="m228.844 180.351h-78.883c-4.917 0-8.917-4-8.917-8.917v-26.771c0-4.917 4-8.917 8.917-8.917h75.49c1.274 0 2.345.958 2.484 2.225.506 4.571 3.672 8.404 8.065 9.765 1.046.324 1.76 1.292 1.76 2.388v21.31c.001 4.917-3.999 8.917-8.916 8.917zm-78.883-39.605c-2.16 0-3.917 1.757-3.917 3.917v26.771c0 2.16 1.757 3.917 3.917 3.917h78.883c2.16 0 3.917-1.757 3.917-3.917v-19.579c-4.683-2.055-8.149-6.164-9.394-11.109z"/><path d="m49.506 44.849c1.854-.335 3.355 1.052 3.355 2.749 0 1.479-1.184 2.805-2.805 2.805-1.533 0-2.805-1.251-2.805-2.805.001-1.351.979-2.507 2.255-2.749z" fill="#3caadc"/><path d="m28.575 69.122h-2.07v2.07c0 1.549-1.256 2.805-2.805 2.805s-2.805-1.256-2.805-2.805v-2.07h-2.069c-1.549 0-2.805-1.256-2.805-2.805s1.256-2.805 2.805-2.805h2.069v-2.07c0-1.549 1.256-2.805 2.805-2.805s2.805 1.256 2.805 2.805v2.07h2.07c1.549 0 2.805 1.256 2.805 2.805s-1.256 2.805-2.805 2.805z" fill="#87d147"/><path d="m253.712 205.131c-1.844.333-3.405-1.02-3.405-2.79 0-1.681 1.476-3.128 3.405-2.79 1.253.237 2.288 1.372 2.288 2.79 0 1.372-.993 2.546-2.288 2.79z" fill="#ef4460"/><path d="m119.596 28.131c-1.381-.261-2.289-1.497-2.289-2.79 0-1.551 1.251-2.846 2.846-2.846 1.517 0 2.846 1.237 2.846 2.846.001 1.712-1.541 3.137-3.403 2.79z" fill="#f5c84c"/><path d="m238.964 215.859c-4.055.755-7.25 3.886-8.021 7.858-.039.2-.317.2-.356 0-.771-3.972-3.967-7.103-8.021-7.858-.204-.038-.204-.311 0-.349 4.055-.755 7.25-3.886 8.021-7.858.039-.2.317-.2.356 0 .771 3.972 3.967 7.103 8.021 7.858.204.039.204.311 0 .349z" fill="#f5c84c"/><path d="m164.062 241.505h-144.51c-4.066 0-7.374-3.308-7.374-7.375v-4.459c0-4.066 3.308-7.375 7.374-7.375h144.51c4.066 0 7.374 3.308 7.374 7.375v4.459c.001 4.067-3.307 7.375-7.374 7.375zm-144.51-14.209c-1.309 0-2.374 1.065-2.374 2.375v4.459c0 1.309 1.065 2.375 2.374 2.375h144.51c1.309 0 2.374-1.065 2.374-2.375v-4.459c0-1.309-1.065-2.375-2.374-2.375z"/><path d="m49.691 195.836c-1.381 0-2.5-1.119-2.5-2.5v-6.089c0-1.381 1.119-2.5 2.5-2.5s2.5 1.119 2.5 2.5v6.089c0 1.381-1.119 2.5-2.5 2.5z"/><path d="m9.604 128.348c-.006 0-.012 0-.018 0-2.565-.005-4.975-1.008-6.786-2.825s-2.806-4.231-2.801-6.796c.005-2.565 1.008-4.975 2.825-6.786l76.552-76.277c6.858-6.845 18.021-6.843 24.884.005l26.456 26.367c.471.469.735 1.106.735 1.771v20.06c0 1.01-.608 1.921-1.541 2.309-.934.387-2.008.175-2.724-.539l-35.369-35.252-75.434 75.162c-1.813 1.807-4.219 2.801-6.779 2.801zm82.21-92.819c-3.227 0-6.452 1.225-8.907 3.675l-76.553 76.279c-.871.868-1.352 2.023-1.354 3.253-.002 1.229.475 2.387 1.343 3.258s2.023 1.352 3.253 1.354h.009c1.227 0 2.38-.477 3.249-1.343l76.556-76.28c1.325-1.324 3.488-1.324 4.818.004l32.224 32.116v-13l-25.722-25.636c-2.459-2.453-5.688-3.68-8.916-3.68zm1.128 13.735-.004.004c.001-.001.003-.003.004-.004z"/><path d="m116.716 203.955c-1.381 0-2.5-1.119-2.5-2.5v-40.595c0-1.381 1.119-2.5 2.5-2.5s2.5 1.119 2.5 2.5v40.594c0 1.381-1.119 2.501-2.5 2.501z"/><path d="m159.729 227.297h-135.843c-1.381 0-2.5-1.119-2.5-2.5v-110.274c0-.665.265-1.302.735-1.771l67.27-67.027c.64-.641 1.514-.975 2.411-.994.909.001 1.765.356 2.408.999l36.506 36.384c.471.469.735 1.106.735 1.771v97.384c0 4.783 3.891 8.673 8.674 8.673h19.603c1.381 0 2.5 1.119 2.5 2.5v32.355c.001 1.381-1.119 2.5-2.499 2.5zm-133.343-5h130.842v-27.355h-17.103c-7.54 0-13.674-6.134-13.674-13.673v-96.347l-34.652-34.537-65.413 65.176zm66.539-173.034-.005.005c.002-.002.003-.004.005-.005z"/><path d="m127.89 183.658h-32.531c-1.381 0-2.5-1.119-2.5-2.5s1.119-2.5 2.5-2.5h32.531c1.38 0 2.5 1.119 2.5 2.5s-1.119 2.5-2.5 2.5z"/><path d="m165.03 75.375h-7.036c-1.381 0-2.5-1.119-2.5-2.5s1.119-2.5 2.5-2.5h7.036c1.093 0 1.981-.889 1.981-1.982s-.889-1.981-1.981-1.981h-4.965c-3.85 0-6.981-3.132-6.981-6.982s3.132-6.982 6.981-6.982h7.939c1.381 0 2.5 1.119 2.5 2.5s-1.119 2.5-2.5 2.5h-7.939c-1.093 0-1.981.889-1.981 1.982s.889 1.982 1.981 1.982h4.965c3.85 0 6.981 3.132 6.981 6.981.001 3.85-3.131 6.982-6.981 6.982z"/><path d="m162.548 78.441c-1.381 0-2.5-1.119-2.5-2.5v-24.06c0-1.381 1.119-2.5 2.5-2.5s2.5 1.119 2.5 2.5v24.06c0 1.381-1.119 2.5-2.5 2.5z"/><path d="m188.753 73.152c-.752 0-1.494-.337-1.986-.979l-9.12-11.906c-.84-1.096-.632-2.666.464-3.505 1.099-.839 2.666-.631 3.505.464l9.12 11.906c.84 1.096.632 2.666-.464 3.505-.455.347-.989.515-1.519.515z"/><path d="m179.629 73.152c-.53 0-1.064-.168-1.519-.515-1.096-.84-1.304-2.409-.464-3.505l9.12-11.906c.84-1.095 2.407-1.303 3.505-.464 1.096.84 1.304 2.409.464 3.505l-9.12 11.906c-.492.642-1.235.979-1.986.979z"/><path d="m205.429 73.152c-.752 0-1.494-.337-1.986-.979l-9.12-11.906c-.84-1.096-.632-2.666.464-3.505 1.099-.839 2.666-.631 3.505.464l9.12 11.906c.84 1.096.632 2.666-.464 3.505-.455.347-.989.515-1.519.515z"/><path d="m196.305 73.152c-.53 0-1.064-.168-1.519-.515-1.096-.84-1.304-2.409-.464-3.505l9.12-11.906c.84-1.095 2.408-1.303 3.505-.464 1.096.84 1.304 2.409.464 3.505l-9.12 11.906c-.492.642-1.235.979-1.986.979z"/><path d="m165.03 169.176h-7.036c-1.381 0-2.5-1.119-2.5-2.5s1.119-2.5 2.5-2.5h7.036c1.093 0 1.981-.889 1.981-1.982s-.889-1.982-1.981-1.982h-4.965c-3.85 0-6.981-3.132-6.981-6.981s3.132-6.982 6.981-6.982h7.939c1.381 0 2.5 1.119 2.5 2.5s-1.119 2.5-2.5 2.5h-7.939c-1.093 0-1.981.889-1.981 1.982s.889 1.981 1.981 1.981h4.965c3.85 0 6.981 3.132 6.981 6.982s-3.131 6.982-6.981 6.982z"/><path d="m162.548 172.242c-1.381 0-2.5-1.119-2.5-2.5v-24.059c0-1.381 1.119-2.5 2.5-2.5s2.5 1.119 2.5 2.5v24.059c0 1.381-1.119 2.5-2.5 2.5z"/><path d="m188.753 166.954c-.752 0-1.494-.337-1.986-.979l-9.12-11.906c-.84-1.096-.632-2.666.464-3.505 1.099-.839 2.666-.631 3.505.464l9.12 11.906c.84 1.096.632 2.666-.464 3.505-.455.347-.989.515-1.519.515z"/><path d="m179.629 166.954c-.53 0-1.064-.168-1.519-.515-1.096-.84-1.304-2.409-.464-3.505l9.12-11.906c.84-1.096 2.407-1.303 3.505-.464 1.096.84 1.304 2.409.464 3.505l-9.12 11.906c-.492.642-1.235.979-1.986.979z"/><path d="m205.429 166.954c-.752 0-1.494-.337-1.986-.979l-9.12-11.906c-.84-1.096-.632-2.666.464-3.505 1.099-.839 2.666-.631 3.505.464l9.12 11.906c.84 1.096.632 2.666-.464 3.505-.455.347-.989.515-1.519.515z"/><path d="m196.305 166.954c-.53 0-1.064-.168-1.519-.515-1.096-.84-1.304-2.409-.464-3.505l9.12-11.906c.84-1.096 2.408-1.303 3.505-.464 1.096.84 1.304 2.409.464 3.505l-9.12 11.906c-.492.642-1.235.979-1.986.979z"/><path d="m223.146 166.954c-.752 0-1.494-.337-1.986-.98l-9.119-11.906c-.84-1.096-.632-2.665.464-3.505 1.099-.839 2.666-.631 3.505.465l9.119 11.906c.84 1.096.632 2.665-.464 3.505-.454.347-.988.515-1.519.515z"/><path d="m214.023 166.954c-.53 0-1.064-.168-1.519-.515-1.096-.84-1.304-2.409-.464-3.505l9.119-11.906c.84-1.096 2.407-1.303 3.505-.465 1.096.84 1.304 2.409.464 3.505l-9.119 11.906c-.491.643-1.234.98-1.986.98z"/><path d="m235.261 117.237v-26.771c0-3.529-2.888-6.417-6.417-6.417h-28.335c-3.529 0-6.417 2.888-6.417 6.417v26.771c0 3.529 2.888 6.417 6.417 6.417h28.335c3.529 0 6.417-2.888 6.417-6.417z" fill="#fc657e"/><path d="m165.823 112.758c-.752 0-1.494-.337-1.986-.98l-9.119-11.906c-.84-1.096-.632-2.665.464-3.505 1.098-.84 2.666-.631 3.505.465l9.119 11.906c.84 1.096.632 2.665-.464 3.505-.454.347-.988.515-1.519.515z"/><path d="m156.7 112.758c-.53 0-1.064-.168-1.519-.515-1.096-.84-1.304-2.409-.464-3.505l9.119-11.906c.84-1.096 2.407-1.304 3.505-.465 1.096.84 1.304 2.409.464 3.505l-9.119 11.906c-.492.642-1.234.98-1.986.98z"/><path d="m182.499 112.758c-.752 0-1.494-.337-1.986-.98l-9.119-11.906c-.84-1.096-.632-2.665.464-3.505 1.099-.84 2.666-.631 3.505.465l9.119 11.906c.84 1.096.632 2.665-.464 3.505-.455.347-.989.515-1.519.515z"/><path d="m173.376 112.758c-.53 0-1.064-.168-1.519-.515-1.096-.84-1.304-2.409-.464-3.505l9.119-11.906c.84-1.096 2.407-1.304 3.505-.465 1.096.84 1.304 2.409.464 3.505l-9.119 11.906c-.492.642-1.234.98-1.986.98z"/><path d="m239.43 153.252c-9.137 0-16.57-7.434-16.57-16.57s7.434-16.57 16.57-16.57 16.57 7.434 16.57 16.57-7.434 16.57-16.57 16.57zm0-28.14c-6.38 0-11.57 5.19-11.57 11.57s5.19 11.57 11.57 11.57 11.57-5.19 11.57-11.57-5.19-11.57-11.57-11.57z"/><path d="m238.477 142.041c-.663 0-1.299-.264-1.768-.732l-2.947-2.948c-.977-.977-.977-2.559 0-3.536.977-.976 2.559-.976 3.535 0l1.18 1.18 4.129-4.128c.977-.976 2.559-.976 3.535 0 .977.976.977 2.559 0 3.536l-5.896 5.896c-.47.468-1.105.732-1.768.732z"/><path d="m207.992 116.415c-.452 0-.908-.122-1.319-.378-1.172-.73-1.53-2.271-.801-3.444l12.533-20.125c.73-1.172 2.274-1.529 3.443-.8 1.172.73 1.53 2.271.801 3.444l-12.533 20.125c-.473.76-1.29 1.178-2.124 1.178z"/><path d="m208.659 105.778c-3.994 0-7.244-3.25-7.244-7.245s3.25-7.245 7.244-7.245c3.995 0 7.245 3.25 7.245 7.245s-3.25 7.245-7.245 7.245zm0-9.489c-1.237 0-2.244 1.007-2.244 2.245s1.007 2.245 2.244 2.245c1.238 0 2.245-1.007 2.245-2.245s-1.007-2.245-2.245-2.245z"/><path d="m219.862 116.414c-3.995 0-7.245-3.25-7.245-7.245s3.25-7.245 7.245-7.245c3.994 0 7.244 3.25 7.244 7.245s-3.25 7.245-7.244 7.245zm0-9.489c-1.238 0-2.245 1.007-2.245 2.245s1.007 2.245 2.245 2.245c1.237 0 2.244-1.007 2.244-2.245s-1.006-2.245-2.244-2.245z"/><path d="m228.844 126.154h-28.335c-4.917 0-8.917-4-8.917-8.917v-26.771c0-4.917 4-8.917 8.917-8.917h28.335c4.917 0 8.917 4 8.917 8.917v26.771c0 4.917-4 8.917-8.917 8.917zm-28.335-39.605c-2.16 0-3.917 1.757-3.917 3.917v26.771c0 2.16 1.757 3.917 3.917 3.917h28.335c2.16 0 3.917-1.757 3.917-3.917v-26.771c0-2.16-1.757-3.917-3.917-3.917z"/><path d="m84.196 227.296h-44.654c-1.381 0-2.5-1.119-2.5-2.5v-70.434c0-3.391 2.759-6.15 6.15-6.15h37.353c3.391 0 6.15 2.759 6.15 6.15v70.434c.001 1.381-1.118 2.5-2.499 2.5zm-42.154-5h39.654v-67.934c0-.634-.516-1.15-1.15-1.15h-37.353c-.634 0-1.15.516-1.15 1.15v67.934z"/><path d="m84.196 163.36h-44.654c-1.381 0-2.5-1.119-2.5-2.5v-6.498c0-3.391 2.759-6.15 6.15-6.15h37.353c3.391 0 6.15 2.759 6.15 6.15v6.498c.001 1.381-1.118 2.5-2.499 2.5zm-42.154-5h39.654v-3.998c0-.634-.516-1.15-1.15-1.15h-37.353c-.634 0-1.15.516-1.15 1.15v3.998z"/><path d="m138.881 203.955h-41.329c-2.587 0-4.692-2.105-4.692-4.692v-46.358c0-2.587 2.105-4.692 4.692-4.692h31.4c1.381 0 2.5 1.119 2.5 2.5v30.557c0 4.783 3.891 8.673 8.674 8.673h.947c1.381 0 2.5 1.119 2.5 2.5v6.821c0 2.586-2.105 4.691-4.692 4.691zm-41.022-5h40.714v-4.101c-6.812-.774-12.121-6.571-12.121-13.586v-28.057h-28.593z"/><path d="m128.952 163.36h-33.593c-1.381 0-2.5-1.119-2.5-2.5v-7.956c0-2.587 2.105-4.692 4.692-4.692h31.4c1.381 0 2.5 1.119 2.5 2.5v10.148c.001 1.381-1.118 2.5-2.499 2.5zm-31.093-5h28.593v-5.148h-28.593z"/><path d="m103.297 119.722h-21.964c-2.598 0-4.711-2.114-4.711-4.711v-26.024c0-2.598 2.113-4.711 4.711-4.711h21.964c2.598 0 4.711 2.113 4.711 4.711v26.023c0 2.598-2.113 4.712-4.711 4.712zm-21.675-5h21.386v-25.446h-21.386zm21.675-25.446h.01z"/><path d="m92.315 119.722h-10.982c-2.598 0-4.711-2.114-4.711-4.711v-26.024c0-2.598 2.113-4.711 4.711-4.711h10.982c1.381 0 2.5 1.119 2.5 2.5v30.446c0 1.381-1.119 2.5-2.5 2.5zm-10.693-5h8.193v-25.446h-8.193z"/></svg>