<svg enable-background="new 0 0 256 256" height="512" viewBox="0 0 256 256" width="512" xmlns="http://www.w3.org/2000/svg"><path d="m187.813 32.376c-.043-1.218-1.187-2.093-2.374-1.817l-20.417 4.755c-1.651.385-2.152 2.528-.828 3.541 1.185.906 3.089 2.364 5.292 4.05.726.556.857 1.601.288 2.316l-25.652 32.227-22.791-7.788c-1.814-.621-3.82-.196-5.231 1.102l-24.108 22.218-16.082-8.838c-1.642-.902-3.641-.857-5.242.12l-35.632 21.771c-2.462 1.505-3.238 4.721-1.734 7.184.985 1.612 2.704 2.501 4.464 2.501.929 0 1.869-.247 2.72-.767l33.045-20.191 16.72 9.189c1.968 1.083 4.406.785 6.058-.737l24.585-22.656 23.333 7.972c2.089.712 4.402.038 5.778-1.691l28.108-35.313c.554-.696 1.567-.818 2.274-.277 2.142 1.639 3.941 3.016 4.968 3.801 1.324 1.013 3.262-.03 3.202-1.724z" fill="#f5c84c"/><path d="m248.041 152.454c-1.394 0-2.788-.53-3.854-1.592l-58.812-58.614c-.275-.274-.718-.274-.99-.002l-58.829 58.617c-2.136 2.129-5.592 2.122-7.72-.014s-2.122-5.592.014-7.72l58.826-58.614c4.522-4.513 11.884-4.512 16.409.003l58.81 58.612c2.135 2.128 2.141 5.585.013 7.72-1.067 1.068-2.467 1.604-3.867 1.604z" fill="#ef4460"/><path d="m185.361 92.247c-.275-.274-.718-.274-.99-.002l-51.693 51.507v84.739h104.388v-84.713z" fill="#edf4fc"/><path d="m240.396 228.49h-111.048c-2.069 0-3.745 1.677-3.745 3.745v3.427c0 2.069 1.677 3.745 3.745 3.745h111.048c2.069 0 3.745-1.677 3.745-3.745v-3.427c.001-2.068-1.676-3.745-3.745-3.745z" fill="#87d147"/><path d="m99.863 235.873v-3.316c0-2.002-1.623-3.624-3.624-3.624h-81.933c-2.002 0-3.624 1.623-3.624 3.624v3.316c0 2.002 1.623 3.624 3.624 3.624h81.934c2.001 0 3.623-1.622 3.623-3.624z" fill="#87d147"/><path d="m94.013 228.933v-51.175l-38.253-38.125c-.266-.265-.695-.265-.958-.002l-38.27 38.132v51.17z" fill="#edf4fc"/><path d="m106.333 175.125-43.118-42.973c-4.379-4.368-11.503-4.37-15.878-.003l-43.125 42.971c-2.072 2.064-2.072 5.419 0 7.484 2.061 2.054 5.395 2.054 7.457 0l43.128-42.972c.263-.263.692-.263.958.002l43.12 42.975c2.061 2.055 5.396 2.055 7.458 0 2.071-2.065 2.071-5.419 0-7.484z" fill="#ef4460"/><path d="m193.701 122.429h-16.878c-.938 0-1.699.761-1.699 1.699v19.998c0 .938.761 1.699 1.699 1.699h16.878c.938 0 1.699-.761 1.699-1.699v-19.998c0-.938-.761-1.699-1.699-1.699z" fill="#70d6f9"/><path d="m63.438 162.458h-16.332c-.908 0-1.644.736-1.644 1.644v11.907c0 .908.736 1.644 1.644 1.644h16.332c.908 0 1.644-.736 1.644-1.644v-11.907c0-.908-.736-1.644-1.644-1.644z" fill="#70d6f9"/><path d="m175.218 169.363h-28.704c-1.549 0-2.805 1.256-2.805 2.805v56.323h34.314v-56.323c0-1.55-1.256-2.805-2.805-2.805z" fill="#c46c45"/><path d="m225.13 169.363h-34.844c-.93 0-1.685.754-1.685 1.685v37.822c0 .93.754 1.685 1.685 1.685h34.844c.93 0 1.685-.754 1.685-1.685v-37.822c0-.931-.754-1.685-1.685-1.685z" fill="#70d6f9"/><path d="m83.218 187.669h-20.956c-.9 0-1.63.73-1.63 1.63v28.091c0 .9.73 1.63 1.63 1.63h20.956c.9 0 1.63-.73 1.63-1.63v-28.091c0-.9-.73-1.63-1.63-1.63z" fill="#70d6f9"/><path d="m50.299 228.933v-38.549c0-1.499-1.215-2.714-2.714-2.714h-19.268c-1.499 0-2.714 1.215-2.714 2.714v38.549z" fill="#c46c45"/><path d="m185.262 122.429h-8.439c-.938 0-1.699.761-1.699 1.699v19.998c0 .938.761 1.699 1.699 1.699h8.439z" fill="#3caadc"/><path d="m55.272 162.458h-8.166c-.908 0-1.644.736-1.644 1.644v11.907c0 .908.736 1.644 1.644 1.644h8.166z" fill="#3caadc"/><path d="m47.584 187.669h-19.267c-1.499 0-2.714 1.215-2.714 2.714v6.959h24.697v-6.959c-.001-1.499-1.217-2.714-2.716-2.714z" fill="#a75430"/><path d="m84.848 197.342v-8.043c0-.9-.73-1.63-1.63-1.63h-20.956c-.9 0-1.63.73-1.63 1.63v8.043z" fill="#3caadc"/><path d="m175.218 169.363h-28.704c-1.549 0-2.805 1.256-2.805 2.805v7.191h34.314v-7.191c0-1.55-1.256-2.805-2.805-2.805z" fill="#a75430"/><path d="m226.815 179.359v-8.312c0-.93-.754-1.685-1.685-1.685h-34.844c-.93 0-1.685.754-1.685 1.685v8.312z" fill="#3caadc"/><path d="m227.553 82.629h-2.07v2.07c0 1.549-1.256 2.805-2.805 2.805s-2.805-1.256-2.805-2.805v-2.07h-2.069c-1.549 0-2.805-1.256-2.805-2.805s1.256-2.805 2.805-2.805h2.069v-2.07c0-1.549 1.256-2.805 2.805-2.805s2.805 1.256 2.805 2.805v2.07h2.07c1.549 0 2.805 1.256 2.805 2.805s-1.256 2.805-2.805 2.805z" fill="#3caadc"/><path d="m233.712 103.639c-1.877.339-3.405-1.063-3.405-2.79 0-1.504 1.204-2.846 2.846-2.846 1.54 0 2.846 1.275 2.846 2.846.001 1.372-.992 2.545-2.287 2.79z" fill="#87d147"/><path d="m125.712 103.639c-1.877.339-3.405-1.063-3.405-2.79 0-1.523 1.225-2.846 2.846-2.846 1.54 0 2.846 1.275 2.846 2.846.001 1.369-.99 2.545-2.287 2.79z" fill="#3caadc"/><path d="m152.712 27.639c-1.878.339-3.405-1.065-3.405-2.79 0-1.68 1.472-3.128 3.405-2.79 1.249.236 2.288 1.391 2.288 2.79 0 1.354-.974 2.541-2.288 2.79z" fill="#f5c84c"/><path d="m138.964 39.366c-4.055.755-7.25 3.886-8.021 7.858-.039.2-.317.2-.356 0-.771-3.972-3.967-7.103-8.021-7.858-.204-.038-.204-.311 0-.349 4.055-.755 7.25-3.886 8.021-7.858.039-.2.317-.2.356 0 .771 3.972 3.967 7.103 8.021 7.858.204.039.204.312 0 .349z" fill="#ef4460"/><path d="m248.041 154.954c-2.121 0-4.116-.825-5.618-2.322l-57.544-57.35-57.558 57.351c-3.108 3.098-8.157 3.088-11.256-.02-3.098-3.109-3.088-8.158.02-11.256l58.826-58.615c5.495-5.484 14.44-5.482 19.939.003l58.809 58.612c1.506 1.5 2.338 3.498 2.341 5.624.004 2.126-.821 4.126-2.322 5.632-1.504 1.51-3.506 2.341-5.637 2.341zm-63.163-65.413h.006c.853.001 1.655.334 2.259.938l58.81 58.611c1.119 1.115 3.067 1.113 4.185-.007.558-.56.864-1.303.863-2.094-.001-.79-.311-1.533-.87-2.09l-58.81-58.613c-3.553-3.543-9.328-3.546-12.879-.003l-58.827 58.616c-1.155 1.151-1.158 3.029-.007 4.185 1.152 1.156 3.03 1.158 4.185.007l58.829-58.617c.598-.6 1.401-.933 2.256-.933zm-1.268 4.477c.001.001.003.003.004.004zm2.545-.007-.006.006c.002-.002.004-.004.006-.006z"/><path d="m237.065 230.991h-104.386c-1.381 0-2.5-1.119-2.5-2.5v-84.739c0-.665.265-1.302.735-1.771l51.692-51.507c1.245-1.243 3.272-1.242 4.52.003l51.704 51.531c.471.469.735 1.106.735 1.771v84.713c0 1.38-1.119 2.499-2.5 2.499zm-101.886-5h99.387v-81.175l-49.7-49.534-49.687 49.508z"/><path d="m240.396 241.909h-111.048c-3.443 0-6.245-2.802-6.245-6.246v-3.427c0-3.443 2.802-6.245 6.245-6.245h111.049c3.443 0 6.245 2.802 6.245 6.245v3.427c0 3.444-2.802 6.246-6.246 6.246zm-111.048-10.918c-.687 0-1.245.559-1.245 1.245v3.427c0 .687.559 1.246 1.245 1.246h111.049c.687 0 1.245-.559 1.245-1.246v-3.427c0-.687-.559-1.245-1.245-1.245z"/><path d="m207.318 213.054c-1.381 0-2.5-1.119-2.5-2.5v-31.195c0-1.381 1.119-2.5 2.5-2.5s2.5 1.119 2.5 2.5v31.195c0 1.381-1.119 2.5-2.5 2.5z"/><path d="m226.814 197.457h-38.213c-1.381 0-2.5-1.119-2.5-2.5s1.119-2.5 2.5-2.5h38.213c1.381 0 2.5 1.119 2.5 2.5s-1.119 2.5-2.5 2.5z"/><path d="m151.508 206.815c-1.381 0-2.5-1.119-2.5-2.5v-4.679c0-1.381 1.119-2.5 2.5-2.5s2.5 1.119 2.5 2.5v4.679c0 1.381-1.119 2.5-2.5 2.5z"/><path d="m96.239 241.998h-81.933c-3.377 0-6.124-2.748-6.124-6.125v-3.316c0-3.377 2.747-6.125 6.124-6.125h81.934c3.377 0 6.124 2.748 6.124 6.125v3.316c-.001 3.377-2.748 6.125-6.125 6.125zm-81.933-10.565c-.62 0-1.124.504-1.124 1.125v3.316c0 .62.504 1.125 1.124 1.125h81.934c.62 0 1.124-.504 1.124-1.125v-3.316c0-.62-.504-1.125-1.124-1.125z"/><path d="m72.74 221.52c-1.381 0-2.5-1.119-2.5-2.5v-21.678c0-1.381 1.119-2.5 2.5-2.5s2.5 1.119 2.5 2.5v21.678c0 1.381-1.119 2.5-2.5 2.5z"/><path d="m84.849 210.681h-24.217c-1.381 0-2.5-1.119-2.5-2.5s1.119-2.5 2.5-2.5h24.217c1.381 0 2.5 1.119 2.5 2.5s-1.12 2.5-2.5 2.5z"/><path d="m34.212 217.61c-1.381 0-2.5-1.119-2.5-2.5v-4.528c0-1.381 1.119-2.5 2.5-2.5s2.5 1.119 2.5 2.5v4.528c0 1.381-1.119 2.5-2.5 2.5z"/><path d="m94.014 231.433h-77.483c-1.381 0-2.5-1.119-2.5-2.5v-51.17c0-.665.265-1.302.735-1.771l38.271-38.132c1.23-1.232 3.245-1.234 4.485 0l38.256 38.127c.471.469.735 1.106.735 1.771v51.174c.001 1.381-1.118 2.501-2.499 2.501zm-74.983-5h72.482v-47.636l-36.234-36.112-36.248 36.117zm37.54-85.036-.007.006c.002-.002.005-.004.007-.006z"/><path d="m102.604 186.643c-1.989 0-3.979-.754-5.493-2.264l-41.836-41.695-41.841 41.69c-3.029 3.018-7.957 3.018-10.986 0-1.476-1.471-2.289-3.429-2.289-5.513s.813-4.042 2.289-5.513l43.125-42.97c5.35-5.338 14.057-5.336 19.408.004l43.117 42.972c1.476 1.471 2.289 3.428 2.289 5.512s-.812 4.042-2.289 5.513c-1.515 1.509-3.504 2.264-5.494 2.264zm-47.331-49.707c.813 0 1.628.309 2.248.928l43.118 42.975c1.086 1.08 2.847 1.079 3.929 0 .527-.526.818-1.226.818-1.971s-.291-1.445-.818-1.97l-43.118-42.975c-3.405-3.397-8.944-3.401-12.348-.003l-43.125 42.971c-.527.526-.818 1.226-.818 1.971s.291 1.445.818 1.971c1.082 1.078 2.846 1.079 3.928 0l43.128-42.973c.616-.616 1.429-.924 2.24-.924z"/><path d="m37.766 118.219c-2.716 0-5.182-1.382-6.597-3.698-2.221-3.635-1.071-8.399 2.563-10.62l35.632-21.772c2.359-1.441 5.327-1.508 7.749-.178l14.507 7.972 22.786-20.999c2.088-1.924 5.051-2.549 7.734-1.629l21.123 7.217 24.005-30.157-4.594-3.515c-1.377-1.053-2.003-2.771-1.634-4.482.375-1.743 1.684-3.076 3.415-3.479l20.415-4.755c1.298-.301 2.646-.011 3.703.798s1.689 2.035 1.736 3.365l.745 20.949c.063 1.775-.881 3.387-2.465 4.205-1.557.802-3.378.648-4.755-.406l-4.295-3.287-27.579 34.647c-2.025 2.545-5.457 3.551-8.54 2.5l-21.927-7.492-23.49 21.648c-2.446 2.253-6.045 2.691-8.958 1.089l-15.449-8.49-31.806 19.435c-1.217.743-2.607 1.134-4.024 1.134zm35.627-32.222c-.493 0-.986.133-1.421.399l-35.632 21.771c-1.282.784-1.688 2.464-.905 3.747.5.817 1.371 1.305 2.331 1.305.498 0 .988-.139 1.419-.401l33.043-20.19c.766-.468 1.721-.49 2.508-.058l16.721 9.189c1.027.565 2.297.41 3.161-.385l24.584-22.656c.675-.622 1.635-.823 2.503-.527l23.333 7.972c1.087.373 2.299.017 3.013-.881l28.108-35.313c1.393-1.75 3.97-2.066 5.75-.706l4.115 3.15-.685-19.264-18.773 4.373 4.44 3.398c.89.682 1.455 1.669 1.592 2.781.137 1.11-.171 2.203-.867 3.077l-25.652 32.227c-.658.827-1.765 1.151-2.765.809l-22.791-7.788c-.945-.325-1.991-.103-2.729.576l-24.107 22.217c-.789.729-1.956.871-2.898.353l-16.083-8.838c-.409-.225-.861-.337-1.313-.337zm112.667-32.582h.01zm-.746-20.951c0 .001 0 .001 0 0z"/><path d="m193.701 148.325h-16.878c-2.315 0-4.199-1.884-4.199-4.199v-19.998c0-2.315 1.884-4.199 4.199-4.199h16.878c2.315 0 4.199 1.883 4.199 4.199v19.998c0 2.315-1.883 4.199-4.199 4.199zm-16.077-5h15.276v-18.396h-15.276zm16.077-18.396h.01z"/><path d="m63.438 180.153h-16.332c-2.285 0-4.145-1.859-4.145-4.144v-11.907c0-2.285 1.859-4.144 4.145-4.144h16.332c2.285 0 4.144 1.859 4.144 4.144v11.907c0 2.285-1.858 4.144-4.144 4.144zm-15.476-5h14.62v-10.195h-14.62zm15.476-10.195h.01z"/><path d="m178.023 230.991h-34.314c-1.381 0-2.5-1.119-2.5-2.5v-56.323c0-2.925 2.38-5.305 5.306-5.305h28.703c2.926 0 5.306 2.38 5.306 5.305v56.323c-.001 1.381-1.12 2.5-2.501 2.5zm-31.814-5h29.314v-53.823c0-.168-.137-.305-.306-.305h-28.703c-.169 0-.306.137-.306.305v53.823z"/><path d="m225.13 213.054h-34.844c-2.308 0-4.185-1.877-4.185-4.185v-37.822c0-2.308 1.877-4.185 4.185-4.185h34.844c2.308 0 4.185 1.877 4.185 4.185v37.822c-.001 2.308-1.877 4.185-4.185 4.185zm-34.028-5h33.213v-36.191h-33.213zm34.028-36.191h.01z"/><path d="m83.218 221.52h-20.956c-2.277 0-4.13-1.853-4.13-4.13v-28.091c0-2.277 1.853-4.13 4.13-4.13h20.956c2.277 0 4.131 1.853 4.131 4.13v28.091c0 2.277-1.854 4.13-4.131 4.13zm-20.086-5h19.217v-26.351h-19.217zm20.086-26.351h.01z"/><path d="m50.299 231.433h-24.696c-1.381 0-2.5-1.119-2.5-2.5v-38.549c0-2.875 2.339-5.214 5.214-5.214h19.268c2.875 0 5.215 2.339 5.215 5.214v38.549c-.001 1.38-1.12 2.5-2.501 2.5zm-22.196-5h19.696v-36.049c0-.118-.097-.214-.215-.214h-19.268c-.118 0-.214.096-.214.214v36.049z"/><path d="m185.262 148.325h-8.438c-2.315 0-4.199-1.884-4.199-4.199v-19.998c0-2.315 1.884-4.199 4.199-4.199h8.438c1.381 0 2.5 1.119 2.5 2.5v23.396c0 1.381-1.119 2.5-2.5 2.5zm-7.638-5h5.138v-18.396h-5.138z"/><path d="m55.272 180.153h-8.166c-2.285 0-4.145-1.859-4.145-4.144v-11.907c0-2.285 1.859-4.144 4.145-4.144h8.166c1.381 0 2.5 1.119 2.5 2.5v15.195c0 1.381-1.119 2.5-2.5 2.5zm-7.31-5h4.811v-10.195h-4.811z"/><path d="m50.299 199.842h-24.696c-1.381 0-2.5-1.119-2.5-2.5v-6.958c0-2.875 2.339-5.214 5.214-5.214h19.268c2.875 0 5.215 2.339 5.215 5.214v6.958c-.001 1.381-1.12 2.5-2.501 2.5zm-22.196-5h19.696v-4.458c0-.118-.097-.214-.215-.214h-19.268c-.118 0-.214.096-.214.214v4.458z"/><path d="m84.849 199.842h-24.217c-1.381 0-2.5-1.119-2.5-2.5v-8.043c0-2.277 1.853-4.13 4.13-4.13h20.956c2.277 0 4.131 1.853 4.131 4.13v8.043c0 1.381-1.12 2.5-2.5 2.5zm-21.717-5h19.217v-4.673h-19.217z"/><path d="m178.023 181.859h-34.314c-1.381 0-2.5-1.119-2.5-2.5v-7.191c0-2.925 2.38-5.305 5.306-5.305h28.703c2.926 0 5.306 2.38 5.306 5.305v7.191c-.001 1.381-1.12 2.5-2.501 2.5zm-31.814-5h29.314v-4.691c0-.168-.137-.305-.306-.305h-28.703c-.169 0-.306.137-.306.305v4.691z"/><path d="m226.814 181.859h-38.213c-1.381 0-2.5-1.119-2.5-2.5v-8.312c0-2.308 1.877-4.185 4.185-4.185h34.844c2.308 0 4.185 1.877 4.185 4.185v8.312c-.001 1.381-1.12 2.5-2.501 2.5zm-35.712-5h33.213v-4.996h-33.213z"/></svg>