<svg enable-background="new 0 0 256 256" height="512" viewBox="0 0 256 256" width="512" xmlns="http://www.w3.org/2000/svg"><path d="m164.423 117.939c-15.535-6.567-27.741-21.118-28.888-40.965l6.845-.467c1.467-.1 2.143-1.919 1.116-3.006l-12.692-13.439c-.738-.781-2.005-.695-2.63.179l-10.751 15.037c-.869 1.216.047 2.927 1.514 2.827l5.815-.396c1.353 22.589 15.931 42.795 37.207 51.016.015.006.029.011.044.017 2.103.81 4.358-.794 4.358-3.048v-4.79c0-1.285-.753-2.464-1.938-2.965z" fill="#70d6f9"/><path d="m251.648 63.308-5.815.396c-1.353-22.589-15.931-42.795-37.206-51.017-.015-.006-.029-.011-.044-.017-2.103-.81-4.358.794-4.358 3.048v4.79c0 1.286.753 2.465 1.938 2.966 15.535 6.567 27.741 21.118 28.888 40.965l-6.845.467c-1.467.1-2.143 1.919-1.116 3.006l12.692 13.439c.738.781 2.005.695 2.63-.179l10.751-15.037c.868-1.216-.048-2.927-1.515-2.827z" fill="#70d6f9"/><path d="m130.305 51.775h4.79c1.286 0 2.465-.753 2.966-1.938 6.567-15.535 21.118-27.742 40.965-28.888l.466 6.845c.1 1.467 1.919 2.143 3.006 1.116l13.439-12.692c.781-.738.695-2.005-.179-2.63l-15.037-10.75c-1.216-.869-2.927.047-2.827 1.514l.396 5.815c-22.589 1.353-42.795 15.931-51.016 37.207-.006.015-.011.029-.017.043-.809 2.103.794 4.358 3.048 4.358z" fill="#70d6f9"/><path d="m240.281 89.639h-4.79c-1.286 0-2.465.753-2.966 1.938-6.567 15.535-21.118 27.741-40.965 28.888l-.466-6.845c-.1-1.467-1.919-2.143-3.006-1.116l-13.439 12.692c-.781.738-.695 2.005.179 2.63l15.037 10.751c1.216.869 2.927-.047 2.827-1.514l-.396-5.815c22.589-1.353 42.795-15.931 51.016-37.207.006-.015.011-.029.017-.043.81-2.104-.794-4.359-3.048-4.359z" fill="#70d6f9"/><path d="m239.781 81.352-12.692-13.439c-1.026-1.087-.351-2.906 1.116-3.006l6.845-.466c-1.147-19.847-13.353-34.398-28.888-40.965-1.185-.5-1.938-1.68-1.938-2.966v-3.57c-2.514-.885-5.105-1.604-7.766-2.133.051.504-.116 1.029-.522 1.411l-13.439 12.692c-1.087 1.026-2.906.351-3.006-1.116l-.466-6.845c-19.847 1.146-34.398 13.353-40.965 28.888-.501 1.184-1.68 1.938-2.966 1.938h-3.569c-.885 2.514-1.604 5.105-2.133 7.766.504-.051 1.029.116 1.411.522l12.692 13.439c1.026 1.086.351 2.906-1.116 3.006l-6.845.467c1.147 19.847 13.353 34.398 28.888 40.964 1.184.501 1.938 1.68 1.938 2.966v3.569c2.514.885 5.105 1.604 7.766 2.133-.051-.504.116-1.029.522-1.412l13.439-12.692c1.087-1.026 2.906-.351 3.006 1.116l.466 6.846c19.847-1.147 34.398-13.354 40.965-28.888.501-1.185 1.68-1.938 2.966-1.938h3.569c.885-2.513 1.604-5.104 2.133-7.766-.504.051-1.028-.116-1.411-.521z" fill="#fc657e"/><path d="m224.727 253.5h-216.648c-3.081 0-5.579-2.498-5.579-5.579s2.498-5.579 5.579-5.579h216.648c3.081 0 5.579 2.498 5.579 5.579s-2.498 5.579-5.579 5.579z" fill="#dae6f1"/><path d="m215.429 242.342h-198.052c-3.081 0-5.579-2.498-5.579-5.579s2.498-5.579 5.579-5.579h198.051c3.081 0 5.579 2.498 5.579 5.579s-2.498 5.579-5.578 5.579z" fill="#c7d7e5"/><path d="m211.244 225.605c0-3.081-2.498-5.579-5.579-5.579h-42.772c-3.081 0-5.579 2.498-5.579 5.579s2.498 5.579 5.579 5.579h42.772c3.081 0 5.579-2.498 5.579-5.579z" fill="#edf4fc"/><path d="m143.368 225.605c0-3.081-2.498-5.579-5.579-5.579h-42.772c-3.081 0-5.579 2.498-5.579 5.579s2.498 5.579 5.579 5.579h42.772c3.081 0 5.579-2.498 5.579-5.579z" fill="#edf4fc"/><path d="m75.491 225.605c0-3.081-2.498-5.579-5.579-5.579h-42.772c-3.081 0-5.579 2.498-5.579 5.579s2.498 5.579 5.579 5.579h42.772c3.081 0 5.579-2.498 5.579-5.579z" fill="#edf4fc"/><path d="m143.368 123.104c0-3.081-2.498-5.579-5.579-5.579h-42.772c-3.081 0-5.579 2.498-5.579 5.579s2.498 5.579 5.579 5.579h42.772c3.081-.001 5.579-2.499 5.579-5.579z" fill="#edf4fc"/><path d="m75.491 123.104c0-3.081-2.498-5.579-5.579-5.579h-42.772c-3.081 0-5.579 2.498-5.579 5.579s2.498 5.579 5.579 5.579h42.772c3.081-.001 5.579-2.499 5.579-5.579z" fill="#edf4fc"/><g fill="#dae6f1"><path d="m205.665 220.027c.052 0 .103.006.155.008v-5.386c0-2.292-1.858-4.15-4.15-4.15h-33.852c-2.292 0-4.15 1.858-4.15 4.15v5.378z"/><path d="m137.479 220.027v-5.378c0-2.292-1.858-4.15-4.15-4.15h-33.852c-2.292 0-4.15 1.858-4.15 4.15v5.378z"/><path d="m176.027 128.682h-11.637c-.231.1-.472.173-.722.217v5.154c0 2.292 1.858 4.15 4.15 4.15h21.524z"/><path d="m192.295 131.247.396 5.815c.03.446-.119.831-.359 1.14h9.338c2.292 0 4.15-1.858 4.15-4.15v-5.263c-4.353 1.336-8.887 2.18-13.525 2.458z"/><path d="m95.327 128.682v5.37c0 2.292 1.858 4.15 4.15 4.15h33.852c2.292 0 4.15-1.858 4.15-4.15v-5.37z"/><path d="m27.45 128.682v5.37c0 2.292 1.858 4.15 4.15 4.15h33.852c2.292 0 4.15-1.858 4.15-4.15v-5.37z"/><path d="m69.602 220.027v-5.378c0-2.292-1.858-4.15-4.15-4.15h-33.852c-2.292 0-4.15 1.858-4.15 4.15v5.378z"/></g><path d="m99.477 210.499h33.587v-72.296h-33.587c-.228 0-.447-.032-.665-.067v72.43c.218-.036.437-.067.665-.067z" fill="#c7d7e5"/><path d="m192.332 138.202c-.549.708-1.622.978-2.468.373l-.522-.373h-21.524c-.069 0-.132-.017-.2-.02v72.337c.068-.003.131-.02.2-.02h33.852c.069 0 .132.017.2.02v-72.337c-.068.003-.132.02-.2.02z" fill="#c7d7e5"/><path d="m31.6 210.499h33.587v-72.296h-33.587c-.228 0-.447-.032-.665-.067v72.43c.218-.036.437-.067.665-.067z" fill="#c7d7e5"/><path d="m162.003 128.743c-.015-.006-.029-.011-.044-.017-.241-.093-.476-.196-.715-.292-.289-.089-.565-.207-.832-.339-6.16-2.589-11.726-6.193-16.533-10.57h-6.09c3.081 0 5.579 2.498 5.579 5.579s-2.498 5.579-5.579 5.579h-.31v4.871h26.19v-4.654c-.537.093-1.105.058-1.666-.157z" fill="#3a70bf"/><path d="m95.327 133.553v-4.871h-.31c-3.081 0-5.579-2.498-5.579-5.579s2.498-5.579 5.579-5.579h-25.105c3.081 0 5.579 2.498 5.579 5.579s-2.498 5.579-5.579 5.579h-.31v4.871z" fill="#3a70bf"/><path d="m137.479 133.553v.499c0 2.292-1.858 4.15-4.15 4.15h-.265v72.296h.265c2.292 0 4.15 1.858 4.15 4.15v5.378h.31c3.081 0 5.579 2.498 5.579 5.579s-2.498 5.579-5.579 5.579h25.105c-3.081 0-5.579-2.498-5.579-5.579s2.498-5.579 5.579-5.579h.775v-5.378c0-2.292 1.858-4.15 4.15-4.15-.069 0-.132.017-.2.02v-72.337c.068.003.131.02.2.02-2.292 0-4.15-1.858-4.15-4.15v-.499h-26.19z" fill="#5290db"/><path d="m69.912 231.184h25.105c-3.081 0-5.579-2.498-5.579-5.579s2.498-5.579 5.579-5.579h.31v-5.378c0-2.292 1.858-4.15 4.15-4.15-.228 0-.447.032-.665.067v-72.43c.218.035.437.067.665.067-2.292 0-4.15-1.858-4.15-4.15v-.499h-25.725v.499c0 2.292-1.858 4.15-4.15 4.15h-.265v72.296h.265c2.292 0 4.15 1.858 4.15 4.15v5.378h.31c3.081 0 5.579 2.498 5.579 5.579s-2.498 5.579-5.579 5.579z" fill="#5290db"/><path d="m134.395 34.3-14.273-12.764c-2.118-1.894-5.32-1.894-7.438 0l-102.685 91.83c-2.297 2.054-2.493 5.581-.44 7.877 2.055 2.298 5.582 2.494 7.878.44l98.966-88.505c1.123 1.004 5.672 5.073 12.249 10.954 1.601-3.489 3.527-6.779 5.743-9.832z" fill="#edf4fc"/><path d="m124.753 77.709-5.815.396c-1.467.1-2.383-1.611-1.514-2.827l10.751-15.037c.301-.421.751-.654 1.219-.701.529-2.661 1.247-5.252 2.132-7.766h-1.221c-2.254 0-3.857-2.255-3.048-4.358.006-.015.011-.029.017-.043.425-1.1.89-2.178 1.378-3.241l-12.249-10.954-94.316 84.346h121.792c-11.138-10.141-18.204-24.423-19.126-39.815z" fill="#c7d7e5"/><path d="m187.756 40.804c-1.613-.44-3.314-.44-4.927 0-4.767 1.3-7.703 6.081-6.706 10.92l4.388 21.315c.467 2.269 2.465 3.897 4.781 3.897 2.317 0 4.314-1.628 4.781-3.897l4.388-21.315c.998-4.839-1.938-9.62-6.705-10.92z" fill="#f5c84c"/><circle cx="185.293" cy="93.277" fill="#f5c84c" r="7.663"/><path d="m225.74 163.358h-2.082v-2.082c0-1.559-1.263-2.822-2.822-2.822s-2.822 1.263-2.822 2.822v2.082h-2.082c-1.559 0-2.822 1.263-2.822 2.822s1.263 2.822 2.822 2.822h2.082v2.082c0 1.559 1.263 2.822 2.822 2.822s2.822-1.263 2.822-2.822v-2.082h2.082c1.559 0 2.822-1.263 2.822-2.822s-1.263-2.822-2.822-2.822z" fill="#87d147"/><path d="m236.88 142.174c-1.866-.337-3.375 1.059-3.375 2.766 0 1.288.907 2.508 2.269 2.766 1.826.34 3.375-1.056 3.375-2.766-.001-1.361-.985-2.524-2.269-2.766z" fill="#ef4460"/><path d="m53.768 35.569c-1.861-.336-3.375 1.054-3.375 2.766 0 1.288.907 2.508 2.269 2.766 1.81.337 3.375-1.04 3.375-2.766-.001-1.361-.985-2.524-2.269-2.766z" fill="#3caadc"/><path d="m44.273 60.793c-4.02-.749-7.188-3.852-7.952-7.79-.038-.198-.314-.198-.353 0-.764 3.938-3.932 7.042-7.952 7.79-.202.038-.202.308 0 .346 4.02.749 7.188 3.852 7.952 7.79.038.198.314.198.353 0 .764-3.938 3.932-7.042 7.952-7.79.202-.038.202-.308 0-.346z" fill="#f5c84c"/><path d="m224.727 256h-216.648c-4.455 0-8.079-3.624-8.079-8.079s3.624-8.079 8.079-8.079h216.647c4.455 0 8.079 3.624 8.079 8.079s-3.623 8.079-8.078 8.079zm-216.648-11.158c-1.698 0-3.079 1.381-3.079 3.079s1.381 3.079 3.079 3.079h216.647c1.698 0 3.079-1.381 3.079-3.079s-1.381-3.079-3.079-3.079z"/><path d="m215.429 244.842h-198.052c-4.455 0-8.079-3.624-8.079-8.078 0-4.455 3.624-8.079 8.079-8.079h198.052c4.455 0 8.079 3.624 8.079 8.079-.001 4.454-3.625 8.078-8.079 8.078zm-198.052-11.157c-1.698 0-3.079 1.381-3.079 3.079 0 1.697 1.381 3.078 3.079 3.078h198.052c1.698 0 3.079-1.381 3.079-3.078 0-1.698-1.381-3.079-3.079-3.079z"/><path d="m205.666 233.685h-42.772c-4.455 0-8.079-3.624-8.079-8.079s3.624-8.079 8.079-8.079h42.772c4.455 0 8.079 3.624 8.079 8.079s-3.625 8.079-8.079 8.079zm-42.772-11.159c-1.698 0-3.079 1.381-3.079 3.079s1.381 3.079 3.079 3.079h42.772c1.698 0 3.079-1.381 3.079-3.079s-1.381-3.079-3.079-3.079z"/><path d="m137.789 233.685h-42.772c-4.455 0-8.079-3.624-8.079-8.079s3.625-8.079 8.079-8.079h42.771c4.455 0 8.079 3.624 8.079 8.079s-3.624 8.079-8.078 8.079zm-42.772-11.159c-1.698 0-3.079 1.381-3.079 3.079s1.381 3.079 3.079 3.079h42.771c1.698 0 3.079-1.381 3.079-3.079s-1.381-3.079-3.079-3.079z"/><path d="m69.912 233.685h-42.772c-4.455 0-8.079-3.624-8.079-8.079s3.624-8.079 8.079-8.079h42.772c4.455 0 8.079 3.624 8.079 8.079s-3.624 8.079-8.079 8.079zm-42.772-11.159c-1.698 0-3.079 1.381-3.079 3.079s1.381 3.079 3.079 3.079h42.772c1.698 0 3.079-1.381 3.079-3.079s-1.381-3.079-3.079-3.079z"/><path d="m137.789 131.183h-42.772c-4.455 0-8.079-3.624-8.079-8.079s3.625-8.079 8.079-8.079h42.771c4.455 0 8.079 3.624 8.079 8.079s-3.624 8.079-8.078 8.079zm-42.772-11.159c-1.698 0-3.079 1.381-3.079 3.079s1.381 3.079 3.079 3.079h42.771c1.698 0 3.079-1.381 3.079-3.079s-1.381-3.079-3.079-3.079z"/><path d="m69.912 131.183h-42.772c-4.455 0-8.079-3.624-8.079-8.079s3.624-8.079 8.079-8.079h42.772c4.455 0 8.079 3.624 8.079 8.079s-3.624 8.079-8.079 8.079zm-42.772-11.159c-1.698 0-3.079 1.381-3.079 3.079s1.381 3.079 3.079 3.079h42.772c1.698 0 3.079-1.381 3.079-3.079s-1.381-3.079-3.079-3.079z"/><path d="m205.82 222.534c-.047.001-.132-.004-.211-.008h-41.94c-1.381 0-2.5-1.119-2.5-2.5v-5.378c0-3.666 2.983-6.649 6.65-6.649h33.852c3.667 0 6.65 2.983 6.65 6.649v5.386c0 .671-.27 1.314-.749 1.784-.468.459-1.097.716-1.752.716zm-.154-.008h.01zm-39.498-5h37.152v-2.878c0-.909-.74-1.649-1.65-1.649h-33.852c-.91 0-1.65.74-1.65 1.649z"/><path d="m137.479 222.526h-42.152c-1.381 0-2.5-1.119-2.5-2.5v-5.378c0-3.666 2.983-6.649 6.65-6.649h33.852c3.667 0 6.65 2.983 6.65 6.649v5.378c0 1.381-1.12 2.5-2.5 2.5zm-39.652-5h37.151v-2.878c0-.909-.74-1.649-1.65-1.649h-33.851c-.91 0-1.65.74-1.65 1.649z"/><path d="m189.342 140.702h-21.523c-3.667 0-6.65-2.983-6.65-6.649v-5.154c0-1.218.877-2.258 2.077-2.464.051-.009.099-.023.145-.043.315-.138.656-.209 1-.209h11.637c.521 0 1.03.163 1.454.466l13.315 9.52c.884.633 1.258 1.763.926 2.798-.332 1.033-1.294 1.735-2.381 1.735zm-23.174-9.519v2.87c0 .909.74 1.649 1.65 1.649h13.728l-6.321-4.52h-9.057z"/><path d="m201.67 140.702h-9.338c-.954 0-1.825-.543-2.245-1.399-.373-.76-.333-1.65.089-2.368l-.376-5.518c-.045-.665.177-1.32.617-1.821.44-.5 1.062-.805 1.728-.844 4.352-.262 8.706-1.053 12.941-2.353.758-.233 1.582-.092 2.219.379.638.472 1.014 1.218 1.014 2.011v5.264c.001 3.666-2.982 6.649-6.649 6.649zm-11.472-3.47h.01zm4.907-1.53h6.565c.91 0 1.65-.74 1.65-1.649v-1.978c-2.761.685-5.558 1.174-8.363 1.463z"/><path d="m133.329 140.702h-33.852c-3.667 0-6.65-2.983-6.65-6.649v-5.37c0-1.381 1.119-2.5 2.5-2.5h42.151c1.381 0 2.5 1.119 2.5 2.5v5.37c.001 3.666-2.982 6.649-6.649 6.649zm-35.502-9.519v2.87c0 .909.74 1.649 1.65 1.649h33.852c.91 0 1.65-.74 1.65-1.649v-2.87z"/><path d="m65.452 140.702h-33.852c-3.667 0-6.65-2.983-6.65-6.649v-5.37c0-1.381 1.119-2.5 2.5-2.5h42.152c1.381 0 2.5 1.119 2.5 2.5v5.37c0 3.666-2.983 6.649-6.65 6.649zm-35.502-9.519v2.87c0 .909.74 1.649 1.65 1.649h33.852c.91 0 1.65-.74 1.65-1.649v-2.87z"/><path d="m69.602 222.526h-42.152c-1.381 0-2.5-1.119-2.5-2.5v-5.378c0-3.666 2.983-6.649 6.65-6.649h33.852c3.667 0 6.65 2.983 6.65 6.649v5.378c0 1.381-1.119 2.5-2.5 2.5zm-39.652-5h37.152v-2.878c0-.909-.74-1.649-1.65-1.649h-33.852c-.91 0-1.65.74-1.65 1.649z"/><path d="m189.975 201.296c-1.381 0-2.5-1.119-2.5-2.5v-47.111c0-1.381 1.119-2.5 2.5-2.5s2.5 1.119 2.5 2.5v47.111c0 1.381-1.12 2.5-2.5 2.5z"/><path d="m179.514 201.296c-1.381 0-2.5-1.119-2.5-2.5v-47.111c0-1.381 1.119-2.5 2.5-2.5s2.5 1.119 2.5 2.5v47.111c0 1.381-1.119 2.5-2.5 2.5z"/><path d="m121.168 201.296c-1.381 0-2.5-1.119-2.5-2.5v-47.111c0-1.381 1.119-2.5 2.5-2.5s2.5 1.119 2.5 2.5v47.111c0 1.381-1.119 2.5-2.5 2.5z"/><path d="m110.708 201.296c-1.381 0-2.5-1.119-2.5-2.5v-47.111c0-1.381 1.119-2.5 2.5-2.5s2.5 1.119 2.5 2.5v47.111c0 1.381-1.12 2.5-2.5 2.5z"/><path d="m53.292 201.296c-1.381 0-2.5-1.119-2.5-2.5v-47.111c0-1.381 1.119-2.5 2.5-2.5s2.5 1.119 2.5 2.5v47.111c0 1.381-1.12 2.5-2.5 2.5z"/><path d="m42.831 201.296c-1.381 0-2.5-1.119-2.5-2.5v-47.111c0-1.381 1.119-2.5 2.5-2.5s2.5 1.119 2.5 2.5v47.111c0 1.381-1.119 2.5-2.5 2.5z"/><path d="m98.812 213.065c-.59 0-1.166-.209-1.621-.597-.558-.475-.879-1.171-.879-1.903v-72.43c0-.732.321-1.429.879-1.903.558-.475 1.295-.68 2.019-.564.087.014.175.034.267.034h33.587c1.381 0 2.5 1.119 2.5 2.5v72.297c0 1.381-1.119 2.5-2.5 2.5h-33.587c-.092 0-.179.021-.267.034-.132.022-.266.032-.398.032zm2.5-5.066h29.252v-67.297h-29.252z"/><path d="m201.871 213.019c-.036 0-.072-.001-.108-.002-.049-.003-.133-.01-.208-.018h-33.623c-.076.008-.16.016-.205.018-.685.03-1.345-.221-1.837-.692-.493-.472-.771-1.124-.771-1.806v-72.337c0-.688.284-1.346.784-1.817.5-.473 1.177-.718 1.86-.679.042.003.112.01.178.017h21.402c.522 0 1.031.163 1.455.467l.041.029c.427-.318.95-.496 1.495-.496h9.22c.066-.007.137-.015.175-.017.688-.038 1.359.206 1.86.679.5.472.784 1.13.784 1.817v72.337c0 .682-.278 1.334-.771 1.806-.469.446-1.088.694-1.731.694zm-31.752-5.02h29.252v-67.297h-6.104c-1.402.926-3.255.968-4.721 0h-18.426v67.297z"/><path d="m30.935 213.065c-.59 0-1.166-.209-1.621-.597-.558-.475-.879-1.171-.879-1.903v-72.43c0-.732.321-1.429.879-1.903.557-.475 1.296-.68 2.019-.564.087.014.175.034.267.034h33.587c1.381 0 2.5 1.119 2.5 2.5v72.297c0 1.381-1.119 2.5-2.5 2.5h-33.587c-.091 0-.179.021-.267.034-.132.022-.266.032-.398.032zm2.5-5.066h29.252v-67.297h-29.252z"/><path d="m163.668 136.053h-26.19c-1.381 0-2.5-1.119-2.5-2.5v-4.87c0-1.381 1.119-2.5 2.5-2.5h.31c1.698 0 3.079-1.381 3.079-3.079s-1.381-3.079-3.079-3.079c-1.381 0-2.5-1.119-2.5-2.5s1.119-2.5 2.5-2.5h6.09c.623 0 1.223.232 1.683.651 4.69 4.271 10.012 7.674 15.819 10.114.049.021.097.043.145.066.171.085.319.146.455.188.068.021.135.045.201.071l.298.123c.126.053.252.105.379.154.001.001.045.018.046.018.063.024.168.056.333.025.725-.127 1.473.074 2.039.549.565.476.892 1.176.892 1.914v4.654c0 1.382-1.119 2.501-2.5 2.501zm-23.689-5h21.068c-.188-.073-.338-.136-.489-.198l-.171-.07c-.333-.108-.666-.245-1.012-.414-4.847-2.044-9.382-4.702-13.534-7.929.018.219.027.439.027.662 0 3.696-2.495 6.82-5.889 7.777z"/><path d="m95.327 136.054h-25.725c-1.381 0-2.5-1.119-2.5-2.5v-4.871c0-1.381 1.119-2.5 2.5-2.5h.31c1.698 0 3.079-1.381 3.079-3.079s-1.381-3.079-3.079-3.079c-1.381 0-2.5-1.119-2.5-2.5s1.119-2.5 2.5-2.5h25.105c1.381 0 2.5 1.119 2.5 2.5s-1.119 2.5-2.5 2.5c-1.698 0-3.079 1.381-3.079 3.079s1.381 3.079 3.079 3.079h.31c1.381 0 2.5 1.119 2.5 2.5v4.871c0 1.381-1.119 2.5-2.5 2.5zm-23.225-5h20.725v-.173c-3.395-.957-5.889-4.081-5.889-7.777 0-1.09.217-2.13.61-3.079h-10.167c.393.949.61 1.989.61 3.079 0 3.696-2.495 6.82-5.889 7.777z"/><path d="m162.894 233.685h-25.105c-1.381 0-2.5-1.119-2.5-2.5s1.119-2.5 2.5-2.5c1.698 0 3.079-1.381 3.079-3.079s-1.381-3.079-3.079-3.079h-.31c-1.381 0-2.5-1.119-2.5-2.5v-5.378c0-.909-.74-1.649-1.65-1.649h-.265c-1.381 0-2.5-1.119-2.5-2.5v-72.297c0-1.381 1.119-2.5 2.5-2.5h.265c.91 0 1.65-.74 1.65-1.649v-.499c0-1.381 1.119-2.5 2.5-2.5h26.19c1.381 0 2.5 1.119 2.5 2.5v.499c0 .824.608 1.509 1.399 1.631.054-.002.106 0 .159.001.061.003.174.014.259.023 1.303.085 2.333 1.169 2.333 2.494 0 .349-.071.681-.2.981v70.334c.129.301.2.633.2.981 0 1.327-1.034 2.413-2.341 2.495-.085.01-.196.02-.251.022-.053.001-.105.004-.159.001-.792.122-1.399.807-1.399 1.631v5.378c0 1.381-1.119 2.5-2.5 2.5h-.775c-1.698 0-3.079 1.381-3.079 3.079s1.381 3.079 3.079 3.079c1.381 0 2.5 1.119 2.5 2.5s-1.12 2.501-2.5 2.501zm-17.636-5h10.167c-.393-.949-.61-1.989-.61-3.079 0-3.863 2.725-7.102 6.354-7.894v-3.063c0-2.706 1.625-5.039 3.95-6.076v-68.443c-1.727-.77-3.067-2.254-3.643-4.075h-21.805c-.626 1.981-2.158 3.564-4.107 4.262v68.07c2.571.92 4.415 3.38 4.415 6.263v3.18c3.395.957 5.889 4.081 5.889 7.777 0 1.088-.217 2.128-.61 3.078z"/><path d="m95.017 233.685h-25.105c-1.381 0-2.5-1.119-2.5-2.5s1.119-2.5 2.5-2.5c1.698 0 3.079-1.381 3.079-3.079s-1.381-3.079-3.079-3.079h-.31c-1.381 0-2.5-1.119-2.5-2.5v-5.378c0-.909-.74-1.649-1.65-1.649h-.265c-1.381 0-2.5-1.119-2.5-2.5v-72.297c0-1.381 1.119-2.5 2.5-2.5h.265c.91 0 1.65-.74 1.65-1.649v-.499c0-1.381 1.119-2.5 2.5-2.5h25.725c1.381 0 2.5 1.119 2.5 2.5v.499c0 .764.522 1.408 1.229 1.595.052.005.103.012.155.021.087.014.175.034.267.034 1.381 0 2.5 1.119 2.5 2.5 0 .655-.252 1.252-.665 1.698v68.9c.413.446.665 1.043.665 1.698 0 1.381-1.119 2.5-2.5 2.5-.092 0-.179.021-.267.034-.052.009-.103.016-.155.021-.707.187-1.229.831-1.229 1.595v5.378c0 1.381-1.119 2.5-2.5 2.5h-.31c-1.698 0-3.079 1.381-3.079 3.079s1.381 3.079 3.079 3.079c1.381 0 2.5 1.119 2.5 2.5s-1.119 2.499-2.5 2.499zm-17.636-5h10.167c-.393-.949-.61-1.989-.61-3.079 0-3.696 2.495-6.82 5.889-7.777v-3.18c0-2.521 1.411-4.72 3.485-5.847v-68.902c-1.501-.815-2.654-2.191-3.177-3.846h-21.34c-.626 1.981-2.158 3.564-4.107 4.262v68.07c2.571.92 4.415 3.38 4.415 6.263v3.18c3.394.957 5.889 4.081 5.889 7.777-.001 1.089-.218 2.129-.611 3.079z"/><path d="m81.535 201.141c-1.381 0-2.5-1.119-2.5-2.5v-47.421c0-1.381 1.119-2.5 2.5-2.5s2.5 1.119 2.5 2.5v47.421c0 1.38-1.119 2.5-2.5 2.5z"/><path d="m150.341 201.141c-1.381 0-2.5-1.119-2.5-2.5v-47.421c0-1.381 1.119-2.5 2.5-2.5s2.5 1.119 2.5 2.5v47.421c0 1.38-1.119 2.5-2.5 2.5z"/><path d="m13.722 125.6c-2.221 0-4.433-.908-6.027-2.69-1.438-1.607-2.164-3.68-2.044-5.835.121-2.154 1.073-4.133 2.681-5.571l102.685-91.831c3.071-2.746 7.701-2.746 10.771 0l14.273 12.765c.956.854 1.11 2.294.357 3.332-2.126 2.928-3.974 6.093-5.494 9.406-.331.722-.985 1.243-1.762 1.405-.779.159-1.585-.055-2.177-.584l-10.583-9.465-97.3 87.016c-1.538 1.375-3.462 2.052-5.38 2.052zm102.681-102.986c-.734 0-1.467.262-2.052.784l-102.685 91.831c-.613.549-.976 1.303-1.022 2.124-.046.82.231 1.61.779 2.223 1.131 1.267 3.083 1.373 4.348.244l98.966-88.506c.949-.85 2.384-.85 3.333 0l9.795 8.761c.979-1.853 2.052-3.653 3.213-5.388l-12.623-11.289c-.585-.522-1.319-.784-2.052-.784z"/><path d="m143.879 120.024h-121.792c-1.037 0-1.966-.64-2.335-1.608-.37-.968-.104-2.064.669-2.755l94.316-84.347c.949-.85 2.384-.85 3.333 0l12.249 10.955c.817.731 1.063 1.909.605 2.906-.511 1.113-.942 2.127-1.318 3.099-.118.309-.027.527.066.665.069.101.27.336.633.336h1.221c.811 0 1.572.394 2.04 1.056.469.661.587 1.51.318 2.274-.859 2.439-1.544 4.937-2.039 7.423-.189.952-.908 1.696-1.827 1.934l-9.682 13.542 4.247-.289c.662-.051 1.32.176 1.821.617.5.44.804 1.062.844 1.728.863 14.412 7.538 28.305 18.313 38.116.764.695 1.021 1.788.648 2.751s-1.297 1.597-2.33 1.597zm-115.246-5h109.249c-8.623-9.618-14.102-21.876-15.419-34.653l-3.354.229c-1.64.117-3.163-.719-3.971-2.169-.822-1.474-.725-3.238.254-4.606l10.75-15.036c.295-.414.661-.767 1.077-1.044.288-1.29.622-2.579 1-3.86-1.066-.415-2.001-1.144-2.668-2.115-1.062-1.547-1.296-3.51-.625-5.25.223-.576.456-1.149.705-1.735l-9.227-8.252z"/><path d="m163.132 131.452c-.684 0-1.37-.124-2.025-.376-.027-.011-.054-.021-.074-.028-21.339-8.245-36.266-27.967-38.573-50.677l-3.353.229c-1.639.119-3.163-.719-3.971-2.168-.822-1.474-.726-3.239.253-4.607l10.751-15.037c.733-1.026 1.876-1.664 3.135-1.75 1.255-.091 2.479.392 3.346 1.309l12.691 13.439c1.156 1.224 1.491 2.96.876 4.532-.605 1.544-2 2.573-3.64 2.685l-4.313.294c1.789 16.375 11.8 29.847 27.161 36.341l-.001-.001c2.105.889 3.465 2.957 3.465 5.269v4.791c0 1.9-.937 3.678-2.507 4.755-.963.66-2.088 1-3.221 1zm-38.379-56.243c.606 0 1.193.22 1.651.623.5.44.804 1.062.844 1.728 1.306 21.812 15.285 40.979 35.612 48.834.31.118.528.028.665-.065.101-.069.336-.271.336-.633v-4.791c0-.292-.165-.559-.41-.661 0-.001-.001-.001-.001-.001-17.919-7.575-29.288-23.696-30.41-43.123-.079-1.368.958-2.546 2.326-2.639l5.277-.36-10.994-11.642-9.313 13.025 4.248-.289c.056-.004.112-.006.169-.006z"/><path d="m241.018 84.387c-1.155 0-2.255-.472-3.055-1.318l-12.691-13.439c-1.156-1.224-1.491-2.96-.876-4.532.605-1.544 2-2.573 3.64-2.685l4.313-.294c-1.788-16.374-11.799-29.847-27.16-36.341-2.104-.891-3.464-2.958-3.464-5.269v-4.79c0-1.9.937-3.678 2.506-4.755 1.547-1.062 3.51-1.294 5.25-.626 21.409 8.272 36.337 27.995 38.645 50.704l3.353-.228c1.629-.117 3.161.718 3.97 2.166.823 1.474.726 3.239-.252 4.608l-10.751 15.037c-.734 1.026-1.878 1.665-3.137 1.751-.098.007-.195.011-.291.011zm-11.074-17.093 10.993 11.641 9.313-13.025-4.248.289c-.67.046-1.32-.178-1.821-.617-.5-.44-.804-1.062-.844-1.728-1.306-21.811-15.285-40.979-35.612-48.834-.308-.118-.527-.028-.664.066-.101.069-.336.27-.336.633v4.79c0 .293.166.56.412.663 17.919 7.575 29.288 23.696 30.41 43.123.079 1.369-.958 2.546-2.326 2.639zm21.875-1.491h-.001-.003zm-.171-2.494h.01z"/><path d="m135.095 54.275h-4.79c-1.9 0-3.678-.937-4.755-2.506-1.062-1.547-1.296-3.51-.626-5.251 8.273-21.409 27.995-36.338 50.704-38.645l-.228-3.352c-.111-1.641.719-3.162 2.168-3.971 1.472-.822 3.238-.725 4.607.253l15.037 10.752c1.027.734 1.665 1.877 1.75 3.137s-.392 2.479-1.31 3.345l-13.439 12.69c-1.224 1.155-2.961 1.491-4.531.876-1.545-.604-2.574-1.999-2.686-3.64l-.294-4.313c-16.375 1.788-29.847 11.8-36.34 27.16-.888 2.105-2.957 3.465-5.267 3.465zm45.4-48.525.29 4.247c.045.665-.177 1.32-.617 1.821-.44.5-1.062.805-1.728.844-21.811 1.307-40.979 15.285-48.834 35.612-.119.309-.028.528.066.665.069.101.27.336.633.336h4.79c.292 0 .559-.166.663-.412 7.574-17.919 23.695-29.288 43.123-30.41 1.36-.076 2.545.958 2.638 2.326l.359 5.276 11.642-10.993z"/><path d="m190.907 141.418c-.875 0-1.746-.271-2.497-.808l-15.037-10.752c-1.026-.733-1.665-1.877-1.75-3.136s.391-2.479 1.308-3.346l13.44-12.691c1.223-1.156 2.959-1.492 4.531-.876 1.545.604 2.574 1.999 2.686 3.64l.294 4.314c16.375-1.789 29.847-11.801 36.34-27.161.89-2.104 2.958-3.464 5.268-3.464h4.791c1.9 0 3.678.937 4.755 2.506 1.062 1.547 1.296 3.51.625 5.251-8.272 21.407-27.994 36.336-50.704 38.645l.229 3.352c.111 1.642-.719 3.163-2.168 3.972-.665.37-1.39.554-2.111.554zm-.709-4.188h.01zm-13.134-10.878 13.026 9.313-.29-4.248c-.045-.665.177-1.32.617-1.821.44-.5 1.062-.805 1.728-.844 21.811-1.308 40.979-15.286 48.834-35.613.119-.308.028-.527-.066-.664-.069-.101-.27-.336-.633-.336h-4.791c-.292 0-.559.165-.663.411-7.575 17.919-23.695 29.288-43.123 30.411-1.367.097-2.545-.958-2.639-2.326l-.359-5.277z"/><path d="m174.127 129.106c-.162 0-.326-.016-.488-.048-2.72-.541-5.448-1.29-8.108-2.227-1-.353-1.67-1.298-1.67-2.358v-3.569c0-.293-.166-.56-.411-.663-17.919-7.574-29.288-23.695-30.41-43.122-.079-1.368.958-2.546 2.326-2.639l5.277-.36-11.413-12.084c-.641-.042-1.248-.331-1.687-.814-.533-.586-.756-1.391-.602-2.168.541-2.721 1.29-5.449 2.227-8.109.352-1.001 1.297-1.67 2.358-1.67h3.569c.292 0 .559-.165.663-.411 7.574-17.919 23.695-29.288 43.123-30.41 1.36-.076 2.545.958 2.638 2.326l.359 5.276 12.085-11.412c.042-.641.33-1.247.813-1.687.586-.532 1.393-.756 2.168-.602 2.721.54 5.449 1.289 8.11 2.228 1 .352 1.669 1.297 1.669 2.357v3.568c0 .293.166.56.412.663 17.919 7.574 29.288 23.695 30.41 43.123.079 1.369-.958 2.546-2.326 2.639l-5.278.359 11.413 12.085c.641.042 1.248.331 1.687.814.533.586.756 1.391.602 2.168-.54 2.718-1.289 5.446-2.226 8.108-.353 1.001-1.298 1.67-2.358 1.67h-3.569c-.292 0-.559.165-.663.41-7.575 17.92-23.695 29.289-43.123 30.412-1.367.097-2.545-.958-2.639-2.326l-.359-5.277-12.085 11.412c-.042.642-.33 1.248-.814 1.688-.464.423-1.064.65-1.68.65zm-5.266-6.432c1.242.393 2.495.74 3.75 1.041.1-.117.207-.23.321-.338l13.44-12.691c1.223-1.155 2.959-1.492 4.531-.876 1.545.604 2.574 1.999 2.686 3.64l.294 4.314c16.375-1.789 29.847-11.801 36.34-27.161.889-2.104 2.957-3.464 5.268-3.464h1.769c.393-1.242.741-2.495 1.042-3.75-.118-.1-.23-.206-.338-.32l-12.691-13.439c-1.155-1.224-1.491-2.959-.876-4.53.604-1.546 1.999-2.575 3.639-2.688l4.315-.294c-1.788-16.375-11.799-29.847-27.16-36.34-2.105-.891-3.465-2.958-3.465-5.269v-1.769c-1.242-.394-2.495-.741-3.75-1.042-.1.117-.207.23-.321.338l-13.44 12.691c-1.224 1.155-2.961 1.491-4.531.876-1.545-.604-2.574-1.999-2.686-3.64l-.294-4.313c-16.375 1.788-29.847 11.799-36.34 27.16-.89 2.104-2.958 3.464-5.269 3.464h-1.769c-.393 1.242-.741 2.495-1.042 3.751.118.1.23.206.338.32l12.691 13.439c1.155 1.223 1.491 2.959.876 4.53-.605 1.546-2 2.575-3.641 2.687l-4.313.294c1.789 16.375 11.8 29.847 27.16 36.34 2.105.89 3.464 2.958 3.464 5.269v1.77zm72.735-43.041.002.002c0-.001-.001-.001-.002-.002z"/><path d="m185.293 79.437c-3.486 0-6.527-2.479-7.23-5.894l-4.388-21.315c-1.259-6.114 2.473-12.191 8.497-13.836 2.042-.557 4.2-.557 6.242 0h.001c6.024 1.645 9.756 7.722 8.497 13.836l-4.388 21.315c-.704 3.415-3.745 5.894-7.231 5.894zm0-36.462c-.608 0-1.215.08-1.806.241-3.484.951-5.643 4.467-4.915 8.004l4.388 21.315c.227 1.102 1.208 1.901 2.333 1.901s2.106-.8 2.333-1.901l4.388-21.315c.729-3.537-1.43-7.053-4.915-8.004-.591-.161-1.198-.241-1.806-.241z"/><path d="m185.293 103.439c-5.604 0-10.163-4.56-10.163-10.163s4.559-10.163 10.163-10.163 10.163 4.56 10.163 10.163-4.559 10.163-10.163 10.163zm0-15.326c-2.847 0-5.163 2.316-5.163 5.163s2.316 5.163 5.163 5.163 5.163-2.316 5.163-5.163-2.316-5.163-5.163-5.163z"/></svg>