<svg enable-background="new 0 0 256 256" height="512" viewBox="0 0 256 256" width="512" xmlns="http://www.w3.org/2000/svg"><path d="m165.152 166.623c-1.559-.544-3.044-1.176-4.14-2.272-2.443-2.443-2.61-6.8-4.539-9.681-1.915-2.86-5.883-4.672-7.218-7.89-1.311-3.162.2-7.245-.48-10.682-.66-3.336-3.632-6.527-3.632-10.057s2.972-6.721 3.632-10.057c.68-3.437-.832-7.519.48-10.682 1.334-3.218 5.303-5.03 7.218-7.89 1.929-2.882 2.096-7.238 4.539-9.681s6.8-2.61 9.681-4.539c2.86-1.915 4.672-5.883 7.89-7.218 3.162-1.311 7.245.2 10.682-.48 3.336-.66 6.527-3.632 10.057-3.632 3.529 0 6.721 2.972 10.057 3.632 2.666.527 5.717-.259 8.429-.029v-9.969c0-6.318-5.169-11.487-11.487-11.487h-192.334c-6.318.002-11.487 5.171-11.487 11.489v112.724c0 6.318 5.169 11.487 11.487 11.487h144.188z" fill="#edf4fc"/><path d="m156.474 97.413c1.929-2.882 2.096-7.238 4.539-9.681s6.8-2.61 9.681-4.539c1.871-1.253 3.295-3.381 4.956-5.079h-173.15v25.266h147.958c1.767-2.131 4.518-3.729 6.016-5.967z" fill="#3a70bf"/><path d="m119.81 117.294h-95.109c-1.037 0-1.878.841-1.878 1.878v19.312c0 1.037.841 1.878 1.878 1.878h95.109c1.037 0 1.878-.841 1.878-1.878v-19.312c0-1.037-.841-1.878-1.878-1.878z" fill="#c7d7e5"/><path d="m234.507 166.244c-2.19.875-4.682 1.391-6.557 2.646-2.86 1.915-4.672 5.883-7.89 7.218-3.162 1.311-7.245-.2-10.682.48-2.673.529-5.257 2.52-7.993 3.299l15.782 52.223c.678 2.244 3.047 3.514 5.291 2.835l26-7.857c2.244-.678 3.514-3.047 2.836-5.291z" fill="#3caadc"/><path d="m189.265 176.588c-3.437-.68-7.519.832-10.682-.48-3.218-1.334-5.03-5.303-7.89-7.218-1.59-1.064-3.623-1.598-5.542-2.267l-16.674 55.174c-.678 2.244.591 4.613 2.836 5.291l26 7.857c2.244.678 4.613-.591 5.291-2.835l15.711-51.99c-3.134-.472-6.034-2.936-9.05-3.532z" fill="#70d6f9"/><path d="m234.507 166.244c-2.19.875-4.682 1.391-6.557 2.646-2.86 1.915-4.672 5.883-7.89 7.218-.353.146-.721.247-1.095.33l16.494 54.579 13-3.929c2.244-.678 3.514-3.047 2.836-5.291z" fill="#70d6f9"/><path d="m178.584 176.108c-3.218-1.334-5.03-5.303-7.89-7.218-1.59-1.064-3.623-1.598-5.542-2.267l-16.674 55.174c-.678 2.244.591 4.613 2.836 5.291l13 3.929 16.446-54.42c-.756-.07-1.491-.205-2.176-.489z" fill="#3caadc"/><path d="m253.5 126.042c0 3.53-2.972 6.721-3.632 10.057-.68 3.437.832 7.519-.48 10.682-1.334 3.218-5.303 5.03-7.218 7.89-1.929 2.882-2.096 7.238-4.539 9.681s-6.8 2.61-9.681 4.539c-2.86 1.915-4.672 5.883-7.89 7.218-3.162 1.311-7.245-.2-10.682.48-3.336.66-6.527 3.632-10.057 3.632-3.529 0-6.721-2.972-10.057-3.632-3.437-.68-7.519.832-10.682-.48-3.218-1.334-5.03-5.303-7.89-7.218-2.882-1.929-7.238-2.096-9.681-4.539s-2.61-6.8-4.539-9.681c-1.915-2.86-5.883-4.672-7.218-7.89-1.311-3.162.2-7.245-.48-10.682-.66-3.336-3.632-6.527-3.632-10.057 0-3.529 2.972-6.721 3.632-10.057.68-3.437-.832-7.519.48-10.682 1.334-3.218 5.303-5.03 7.218-7.89 1.929-2.882 2.096-7.238 4.539-9.681s6.8-2.61 9.681-4.539c2.86-1.915 4.672-5.883 7.89-7.218 3.162-1.311 7.245.2 10.682-.48 3.336-.66 6.527-3.632 10.057-3.632 3.529 0 6.721 2.972 10.057 3.632 3.437.68 7.519-.832 10.682.48 3.218 1.334 5.03 5.303 7.89 7.218 2.882 1.929 7.238 2.096 9.681 4.539s2.61 6.8 4.539 9.681c1.915 2.86 5.883 4.672 7.218 7.89 1.311 3.162-.2 7.245.48 10.682.66 3.336 3.632 6.527 3.632 10.057z" fill="#f98fa6"/><circle cx="199.322" cy="126.042" fill="#fc657e" r="34.35"/><g fill="#f5c84c"><path d="m200.062 107.857 5.347 10.834c.071.144.209.245.368.268l11.956 1.737c.401.058.562.552.271.835l-8.652 8.433c-.115.112-.168.274-.141.433l2.042 11.908c.069.4-.351.705-.71.516l-10.694-5.622c-.143-.075-.313-.075-.455 0l-10.694 5.622c-.359.189-.779-.116-.71-.516l2.042-11.908c.027-.159-.025-.321-.141-.433l-8.652-8.433c-.29-.283-.13-.776.271-.835l11.956-1.737c.159-.023.297-.123.368-.268l5.347-10.834c.183-.363.702-.363.881 0z"/><path d="m234.506 72.123c1.849.334 3.355-1.05 3.355-2.749 0-1.529-1.233-2.805-2.805-2.805-1.509 0-2.805 1.248-2.805 2.805.001 1.343.972 2.506 2.255 2.749z"/><path d="m96.506 205.123c1.851.334 3.355-1.05 3.355-2.749 0-1.501-1.207-2.805-2.805-2.805-1.517 0-2.805 1.257-2.805 2.805.001 1.335.961 2.504 2.255 2.749z"/></g><path d="m114.943 216.679c3.995.744 7.144 3.829 7.904 7.743.038.197.313.197.351 0 .76-3.914 3.908-6.999 7.904-7.743.201-.037.201-.306 0-.344-3.995-.744-7.144-3.829-7.904-7.743-.038-.197-.313-.197-.351 0-.76 3.914-3.908 6.999-7.904 7.743-.201.038-.201.306 0 .344z" fill="#87d147"/><path d="m94.606 18.422c1.349.255 2.255 1.464 2.255 2.749 0 1.501-1.207 2.805-2.805 2.805-1.586 0-2.805-1.299-2.805-2.805.001-1.676 1.506-3.093 3.355-2.749z" fill="#ef4460"/><path d="m79.575 36.695h-2.07v2.07c0 1.549-1.256 2.805-2.805 2.805s-2.805-1.256-2.805-2.805v-2.07h-2.069c-1.549 0-2.805-1.256-2.805-2.805s1.256-2.805 2.805-2.805h2.069v-2.07c0-1.549 1.256-2.805 2.805-2.805s2.805 1.256 2.805 2.805v2.07h2.07c1.549 0 2.805 1.256 2.805 2.805s-1.256 2.805-2.805 2.805z" fill="#3caadc"/><path d="m158.176 192.209h-144.189c-7.712 0-13.987-6.275-13.987-13.987v-112.724c0-7.712 6.275-13.987 13.987-13.987h192.334c7.712 0 13.987 6.274 13.987 13.987v9.97c0 .7-.293 1.368-.809 1.841s-1.205.709-1.903.65c-.981-.082-2.098 0-3.28.087-1.762.131-3.586.267-5.423-.097-1.776-.352-3.374-1.161-4.92-1.943-1.667-.844-3.242-1.642-4.651-1.642s-2.984.797-4.651 1.641c-1.546.783-3.144 1.592-4.921 1.943-1.838.363-3.661.227-5.424.094-1.829-.138-3.557-.267-4.785.242-1.269.526-2.409 1.856-3.617 3.265-1.138 1.327-2.314 2.7-3.84 3.721-1.541 1.031-3.269 1.6-4.939 2.15-1.752.577-3.408 1.122-4.365 2.079s-1.501 2.612-2.079 4.364c-.55 1.671-1.119 3.399-2.151 4.941-1.021 1.525-2.393 2.701-3.72 3.838-1.409 1.208-2.739 2.348-3.266 3.618-.509 1.228-.379 2.956-.242 4.785.132 1.763.269 3.586-.094 5.424-.352 1.777-1.161 3.375-1.943 4.92-.844 1.667-1.641 3.242-1.641 4.652s.797 2.984 1.641 4.652c.783 1.545 1.592 3.143 1.943 4.919.363 1.838.227 3.661.094 5.424-.137 1.83-.267 3.558.242 4.786.526 1.27 1.857 2.41 3.266 3.617 1.327 1.138 2.699 2.313 3.721 3.839 1.031 1.541 1.6 3.269 2.15 4.939.577 1.752 1.122 3.408 2.079 4.365.762.762 1.986 1.257 3.195 1.679 1.265.441 1.958 1.801 1.57 3.083l-6.977 23.086c-.318 1.057-1.29 1.779-2.392 1.779zm-144.189-135.698c-4.955 0-8.987 4.031-8.987 8.987v112.724c0 4.956 4.032 8.987 8.987 8.987h142.333l5.779-19.125c-1.019-.49-1.999-1.11-2.854-1.966-1.799-1.798-2.592-4.209-3.292-6.336-.466-1.414-.905-2.749-1.557-3.722-.64-.957-1.699-1.864-2.819-2.824-1.709-1.465-3.646-3.125-4.63-5.499-.966-2.329-.776-4.85-.609-7.075.112-1.496.218-2.909-.013-4.08-.218-1.102-.84-2.331-1.499-3.631-1.022-2.019-2.181-4.307-2.181-6.91s1.158-4.892 2.181-6.91c.659-1.301 1.281-2.53 1.499-3.632.231-1.17.125-2.583.013-4.08-.167-2.224-.356-4.746.609-7.074.984-2.374 2.921-4.034 4.63-5.499 1.121-.96 2.179-1.868 2.819-2.824.652-.973 1.091-2.309 1.557-3.723.7-2.127 1.494-4.538 3.292-6.336 1.798-1.799 4.209-2.592 6.336-3.293 1.414-.465 2.749-.905 3.722-1.556.957-.64 1.864-1.699 2.825-2.82 1.464-1.708 3.125-3.646 5.497-4.629 2.33-.966 4.851-.776 7.075-.61 1.497.113 2.91.219 4.08-.013 1.102-.218 2.331-.84 3.632-1.499 2.019-1.022 4.307-2.181 6.91-2.181 2.604 0 4.892 1.159 6.91 2.181 1.301.659 2.53 1.281 3.631 1.499 1.173.233 2.586.127 4.083.016.449-.033.904-.067 1.362-.093v-7.469c0-4.956-4.031-8.987-8.987-8.987h-192.334z"/><path d="m85.698 158.483h-63.136c-1.381 0-2.5-1.119-2.5-2.5s1.119-2.5 2.5-2.5h63.135c1.381 0 2.5 1.119 2.5 2.5s-1.118 2.5-2.499 2.5z"/><path d="m85.698 170.065h-63.136c-1.381 0-2.5-1.119-2.5-2.5s1.119-2.5 2.5-2.5h63.135c1.381 0 2.5 1.119 2.5 2.5s-1.118 2.5-2.499 2.5z"/><path d="m92.029 131.328h-56.025c-1.381 0-2.5-1.119-2.5-2.5s1.119-2.5 2.5-2.5h56.024c1.381 0 2.5 1.119 2.5 2.5s-1.118 2.5-2.499 2.5z"/><path d="m108.506 131.328h-4.394c-1.381 0-2.5-1.119-2.5-2.5s1.119-2.5 2.5-2.5h4.394c1.381 0 2.5 1.119 2.5 2.5s-1.119 2.5-2.5 2.5z"/><path d="m150.458 105.879h-147.958c-1.381 0-2.5-1.119-2.5-2.5v-25.266c0-1.381 1.119-2.5 2.5-2.5h173.151c1.006 0 1.914.603 2.304 1.531.39.927.187 1.998-.517 2.717-.501.512-.991 1.083-1.51 1.688-1.139 1.327-2.317 2.7-3.843 3.722-1.541 1.031-3.269 1.6-4.939 2.15-1.752.577-3.408 1.122-4.365 2.079s-1.501 2.612-2.079 4.364c-.55 1.671-1.119 3.399-2.151 4.941-1.021 1.525-2.392 2.702-3.718 3.84-.925.795-1.8 1.545-2.451 2.331-.475.572-1.18.903-1.924.903zm-145.458-5h144.352c.713-.729 1.478-1.386 2.225-2.027 1.121-.962 2.179-1.871 2.82-2.829.651-.973 1.091-2.308 1.557-3.722.7-2.127 1.494-4.538 3.292-6.336 1.798-1.799 4.209-2.592 6.336-3.292 1.414-.466 2.749-.905 3.722-1.557.219-.147.436-.315.652-.502h-164.956z"/><path d="m119.81 142.862h-95.109c-2.414 0-4.378-1.964-4.378-4.378v-19.312c0-2.414 1.964-4.378 4.378-4.378h95.109c2.414 0 4.378 1.964 4.378 4.378v19.312c0 2.414-1.964 4.378-4.378 4.378zm-94.488-5h93.866v-18.069h-93.866zm94.488-18.069h.01z"/><path d="m221.222 237.63c-1.097 0-2.183-.27-3.177-.803-1.588-.851-2.75-2.27-3.271-3.994l-15.782-52.223c-.194-.641-.122-1.333.199-1.922.321-.588.865-1.022 1.509-1.206 1.035-.294 2.122-.84 3.272-1.417 1.546-.776 3.146-1.579 4.92-1.93 1.836-.362 3.661-.226 5.424-.094 1.829.137 3.556.267 4.785-.242 1.269-.526 2.41-1.857 3.617-3.265 1.138-1.327 2.314-2.699 3.84-3.721 1.543-1.033 3.273-1.606 4.947-2.16.733-.243 1.426-.472 2.072-.73.651-.26 1.38-.234 2.012.069.631.304 1.106.858 1.309 1.529l16.788 55.553c1.075 3.56-.946 7.332-4.505 8.407l-26 7.857c-.644.195-1.303.292-1.959.292zm-16.769-56.239 15.108 49.996c.135.446.436.813.846 1.033s.882.267 1.329.132l26-7.857c.921-.278 1.443-1.254 1.166-2.175l-16.032-53.051c-1.341.444-2.598.876-3.528 1.499-.958.641-1.865 1.699-2.826 2.82-1.465 1.709-3.125 3.646-5.498 4.63-2.329.966-4.85.777-7.074.609-1.496-.112-2.909-.219-4.08.014-1.109.219-2.342.838-3.647 1.493-.577.289-1.163.583-1.764.857z"/><path d="m178.551 237.63c-.656 0-1.315-.097-1.96-.292l-26-7.857c-3.56-1.076-5.581-4.847-4.505-8.407l16.674-55.175c.197-.652.652-1.196 1.259-1.505.608-.31 1.314-.357 1.958-.132.38.133.765.26 1.15.387 1.677.554 3.412 1.127 4.959 2.164 1.525 1.021 2.701 2.393 3.838 3.719 1.208 1.409 2.349 2.74 3.618 3.267 1.229.51 2.957.379 4.785.242 1.763-.133 3.586-.269 5.424.094 1.772.351 3.368 1.153 4.912 1.929 1.43.718 2.78 1.397 4.026 1.584.717.108 1.353.522 1.741 1.136s.49 1.365.28 2.06l-15.711 51.99c-.521 1.725-1.682 3.143-3.271 3.994-.994.531-2.08.802-3.177.802zm-11.752-67.814-15.927 52.704c-.278.921.245 1.896 1.166 2.175l26 7.857c.446.135.917.089 1.329-.132.411-.22.711-.587.846-1.033l14.979-49.565c-.959-.379-1.874-.839-2.773-1.291-1.302-.655-2.533-1.273-3.638-1.491-1.17-.231-2.583-.125-4.079-.013-2.225.167-4.747.356-7.075-.61-2.373-.984-4.034-2.921-5.499-4.63-.96-1.121-1.868-2.179-2.824-2.819-.689-.462-1.557-.818-2.505-1.152z"/><path d="m235.458 233.517c-1.073 0-2.065-.697-2.392-1.777l-16.494-54.579c-.201-.666-.116-1.385.235-1.986s.937-1.027 1.616-1.178c.293-.065.509-.128.679-.199 1.27-.526 2.41-1.857 3.617-3.265 1.138-1.327 2.314-2.699 3.84-3.721 1.543-1.033 3.273-1.606 4.947-2.16.733-.243 1.426-.472 2.072-.73.651-.26 1.38-.234 2.012.069.631.304 1.106.858 1.309 1.529l16.788 55.553c1.075 3.56-.946 7.332-4.505 8.407l-13 3.929c-.24.073-.484.108-.724.108zm-13.433-55.595 15.104 49.978 10.607-3.206c.921-.278 1.443-1.254 1.166-2.175l-16.032-53.051c-1.341.444-2.598.876-3.528 1.499-.958.641-1.865 1.699-2.826 2.82-1.248 1.457-2.639 3.079-4.491 4.135z"/><path d="m164.314 233.517c-.243 0-.486-.035-.723-.107l-13-3.929c-3.56-1.076-5.581-4.847-4.505-8.407l16.674-55.175c.197-.652.652-1.196 1.259-1.505.608-.31 1.314-.357 1.958-.132.38.133.765.26 1.15.387 1.677.554 3.412 1.127 4.958 2.164 1.525 1.021 2.701 2.393 3.838 3.719 1.208 1.409 2.348 2.739 3.618 3.266.37.154.831.252 1.45.31.747.069 1.424.471 1.843 1.094s.536 1.4.319 2.119l-16.445 54.419c-.192.635-.628 1.167-1.212 1.48-.367.197-.773.297-1.182.297zm2.485-63.701-15.927 52.704c-.278.921.245 1.896 1.166 2.175l10.607 3.206 14.957-49.494c-2.36-.987-4.014-2.917-5.474-4.62-.96-1.121-1.868-2.179-2.824-2.819-.689-.462-1.557-.818-2.505-1.152z"/><path d="m199.322 182.719c-2.604 0-4.892-1.158-6.91-2.181-1.301-.659-2.53-1.281-3.632-1.499-1.171-.232-2.584-.126-4.079-.013-2.224.166-4.747.356-7.075-.61-2.373-.984-4.033-2.921-5.498-4.629-.961-1.121-1.868-2.18-2.825-2.82-.973-.651-2.308-1.091-3.722-1.557-2.127-.7-4.538-1.494-6.336-3.293-1.799-1.798-2.592-4.209-3.292-6.336-.466-1.414-.905-2.749-1.557-3.722-.64-.956-1.699-1.863-2.819-2.824-1.709-1.465-3.647-3.125-4.631-5.499-.966-2.329-.776-4.851-.609-7.075.112-1.496.218-2.909-.013-4.08-.218-1.102-.84-2.331-1.499-3.631-1.022-2.019-2.181-4.307-2.181-6.91s1.158-4.891 2.18-6.91c.659-1.301 1.281-2.53 1.499-3.632.231-1.171.125-2.584.013-4.08-.167-2.224-.356-4.746.609-7.074.984-2.374 2.922-4.034 4.631-5.499 1.121-.96 2.179-1.868 2.82-2.824.651-.972 1.09-2.308 1.556-3.722.7-2.127 1.494-4.538 3.292-6.336 1.798-1.799 4.209-2.592 6.336-3.292 1.414-.466 2.75-.905 3.722-1.557.957-.64 1.864-1.699 2.824-2.819 1.465-1.709 3.125-3.646 5.498-4.63 2.33-.966 4.853-.776 7.075-.61 1.497.113 2.91.219 4.08-.013 1.102-.218 2.331-.84 3.632-1.499 2.019-1.022 4.306-2.18 6.91-2.18s4.892 1.159 6.911 2.181c1.301.659 2.529 1.281 3.631 1.499 1.172.231 2.585.125 4.081.014 2.223-.167 4.746-.356 7.074.61 2.373.984 4.034 2.921 5.499 4.63.96 1.121 1.868 2.179 2.824 2.82.972.651 2.308 1.09 3.721 1.556 2.127.7 4.538 1.494 6.336 3.292 1.799 1.798 2.592 4.209 3.292 6.336.466 1.414.905 2.75 1.557 3.722.64.956 1.698 1.863 2.819 2.824 1.709 1.465 3.646 3.125 4.631 5.499.966 2.329.776 4.85.609 7.074-.112 1.496-.218 2.909.013 4.08.218 1.102.84 2.331 1.499 3.631 1.022 2.019 2.181 4.307 2.181 6.91 0 2.604-1.159 4.892-2.181 6.911-.659 1.301-1.281 2.53-1.499 3.632-.231 1.17-.125 2.583-.013 4.08.167 2.224.356 4.745-.609 7.074-.984 2.374-2.921 4.034-4.631 5.499-1.12.96-2.179 1.868-2.819 2.824-.652.973-1.091 2.309-1.557 3.723-.7 2.126-1.494 4.537-3.292 6.335s-4.208 2.592-6.335 3.292c-1.414.466-2.75.905-3.722 1.557-.957.641-1.864 1.699-2.825 2.82-1.465 1.709-3.125 3.646-5.499 4.63-2.329.966-4.85.777-7.074.609-1.496-.112-2.909-.219-4.08.014-1.103.218-2.331.84-3.632 1.499-2.018 1.021-4.306 2.179-6.909 2.179zm-12.196-8.817c.868 0 1.745.059 2.625.233 1.777.352 3.375 1.161 4.92 1.943 1.667.844 3.242 1.641 4.652 1.641s2.984-.797 4.651-1.641c1.545-.782 3.144-1.591 4.92-1.943 1.836-.362 3.661-.226 5.424-.094 1.829.137 3.556.267 4.785-.242 1.27-.527 2.41-1.857 3.617-3.266 1.138-1.327 2.314-2.699 3.839-3.72 1.541-1.032 3.269-1.601 4.94-2.151 1.752-.577 3.407-1.122 4.364-2.079s1.501-2.612 2.079-4.364c.55-1.671 1.119-3.399 2.151-4.94 1.021-1.525 2.393-2.701 3.72-3.838 1.409-1.208 2.739-2.348 3.266-3.618.509-1.228.379-2.956.242-4.785-.132-1.763-.269-3.586.094-5.424.352-1.777 1.161-3.375 1.943-4.92.844-1.667 1.642-3.242 1.642-4.652s-.797-2.984-1.641-4.652c-.783-1.545-1.592-3.143-1.943-4.919-.363-1.838-.227-3.661-.094-5.424.137-1.83.267-3.557-.242-4.785-.527-1.271-1.857-2.411-3.266-3.619-1.327-1.137-2.699-2.313-3.72-3.838-1.032-1.542-1.601-3.27-2.151-4.94-.577-1.752-1.122-3.408-2.079-4.365s-2.612-1.502-4.365-2.079c-1.671-.55-3.398-1.119-4.939-2.15-1.525-1.021-2.702-2.394-3.839-3.72-1.208-1.409-2.348-2.739-3.618-3.266-1.228-.51-2.955-.38-4.785-.243-1.763.132-3.587.268-5.425-.094-1.776-.352-3.374-1.161-4.919-1.943-1.667-.844-3.242-1.642-4.652-1.642s-2.984.797-4.651 1.641c-1.546.783-3.144 1.592-4.921 1.943-1.838.363-3.661.227-5.424.094-1.829-.138-3.557-.267-4.785.242-1.269.526-2.41 1.856-3.617 3.265-1.138 1.327-2.313 2.699-3.839 3.721-1.541 1.031-3.269 1.6-4.94 2.15-1.752.577-3.408 1.122-4.365 2.079s-1.501 2.612-2.079 4.365c-.55 1.671-1.119 3.399-2.15 4.94-1.022 1.526-2.394 2.702-3.721 3.839-1.409 1.208-2.739 2.348-3.266 3.618-.509 1.228-.379 2.956-.242 4.785.132 1.763.269 3.586-.094 5.424-.352 1.777-1.161 3.375-1.943 4.921-.844 1.667-1.641 3.241-1.641 4.651s.797 2.984 1.641 4.652c.783 1.545 1.592 3.143 1.943 4.919.363 1.838.227 3.661.094 5.424-.137 1.83-.267 3.557.242 4.786.527 1.27 1.857 2.41 3.266 3.618 1.327 1.137 2.699 2.313 3.72 3.839 1.031 1.541 1.6 3.269 2.15 4.939.577 1.752 1.122 3.408 2.079 4.365s2.612 1.502 4.365 2.079c1.671.55 3.399 1.119 4.939 2.15 1.526 1.021 2.702 2.394 3.84 3.721 1.208 1.408 2.348 2.738 3.617 3.265 1.227.509 2.956.378 4.785.242.921-.068 1.856-.138 2.801-.138z"/><path d="m199.322 162.892c-20.319 0-36.85-16.531-36.85-36.85s16.531-36.85 36.85-36.85 36.85 16.531 36.85 36.85-16.53 36.85-36.85 36.85zm0-68.701c-17.562 0-31.85 14.288-31.85 31.85s14.288 31.85 31.85 31.85 31.85-14.288 31.85-31.85-14.288-31.85-31.85-31.85z"/><path d="m188.471 145.381c-.617 0-1.23-.193-1.755-.574-.928-.674-1.383-1.795-1.188-2.926l1.863-10.864-7.895-7.695c-.821-.8-1.111-1.975-.756-3.065s1.28-1.87 2.414-2.034l10.909-1.585 4.88-9.886c.506-1.027 1.533-1.667 2.681-1.667 1.146 0 2.174.639 2.681 1.667l4.879 9.886 10.909 1.585c1.133.164 2.059.943 2.414 2.034.354 1.09.065 2.265-.756 3.065l-7.895 7.696 1.864 10.866c.195 1.128-.261 2.25-1.188 2.924-.929.674-2.136.761-3.15.227l-9.757-5.129-9.758 5.13c-.443.23-.92.345-1.396.345zm-2.567-22.796 5.734 5.589c.706.691 1.026 1.68.859 2.647l-1.353 7.891 7.087-3.727c.873-.457 1.911-.457 2.779-.001l7.091 3.728-1.354-7.892c-.165-.974.157-1.961.86-2.646l5.734-5.589-7.924-1.151c-.977-.144-1.816-.755-2.251-1.636l-3.544-7.18-3.544 7.181c-.435.881-1.274 1.492-2.247 1.635zm31.471.586h.01z"/></svg>