<svg enable-background="new 0 0 256 256" height="512" viewBox="0 0 256 256" width="512" xmlns="http://www.w3.org/2000/svg"><circle cx="127.992" cy="134.418" fill="#70d6f9" r="119.082"/><circle cx="127.992" cy="134.418" fill="#3caadc" r="107.694"/><path d="m20.298 134.418c0 18.406 4.622 35.731 12.762 50.885h189.865c8.14-15.154 12.762-32.479 12.762-50.885s-4.622-35.731-12.762-50.885h-189.865c-8.14 15.154-12.762 32.479-12.762 50.885z" fill="#ef4460"/><g fill="#edf4fc"><path d="m62.319 125.22c0-4.316 7.386-4.014 8.209.33.233 1.227 1.305 2.115 2.554 2.115h5.056c1.566 0 2.778-1.377 2.578-2.93-2.012-15.683-28.655-15.434-28.655.64 0 14.889 19.246 11.061 19.246 18.007 0 4.813-8.395 4.278-8.9-.773-.132-1.33-1.25-2.343-2.586-2.343h-5.005c-.729 0-1.425.306-1.917.844-.493.538-.736 1.258-.672 1.984 1.441 16.358 29.285 17.077 29.285.133.001-15.241-19.193-11.385-19.193-18.007z"/><path d="m129.941 113.694h-5.159c-1.213 0-2.266.839-2.535 2.022l-4.739 20.809-5.857-20.932c-.314-1.123-1.337-1.899-2.503-1.899h-5.211c-1.167 0-2.19.777-2.504 1.901l-5.845 20.966-4.698-20.84c-.267-1.186-1.32-2.028-2.536-2.028h-5.21c-.803 0-1.561.371-2.053 1.005-.493.634-.664 1.46-.465 2.238l9.288 36.375c.293 1.151 1.33 1.956 2.518 1.956h5.727c1.163 0 2.184-.773 2.501-1.892l5.91-20.88 5.907 20.88c.317 1.119 1.338 1.892 2.501 1.892h5.727c1.189 0 2.227-.807 2.519-1.96l9.236-36.375c.198-.777.025-1.602-.467-2.236-.493-.632-1.25-1.002-2.052-1.002z"/><path d="m141.196 113.694h-4.695c-1.436 0-2.6 1.164-2.6 2.6v36.375c0 1.436 1.164 2.6 2.6 2.6h4.695c1.436 0 2.6-1.164 2.6-2.6v-36.375c0-1.436-1.164-2.6-2.6-2.6z"/><path d="m169.317 113.694h-20.588c-1.436 0-2.6 1.164-2.6 2.6v36.375c0 1.436 1.164 2.6 2.6 2.6h4.695c1.436 0 2.6-1.164 2.6-2.6v-13.705h10.869c1.436 0 2.6-1.164 2.6-2.6v-3.663c0-1.436-1.164-2.6-2.6-2.6h-10.869v-7.391h13.294c1.436 0 2.6-1.164 2.6-2.6v-3.818c-.002-1.434-1.166-2.598-2.601-2.598z"/><path d="m201.339 113.694h-25.231c-1.436 0-2.6 1.164-2.6 2.6v3.818c0 1.436 1.164 2.6 2.6 2.6h7.669v29.958c0 1.436 1.164 2.6 2.6 2.6h4.695c1.436 0 2.6-1.164 2.6-2.6v-29.958h7.669c1.436 0 2.6-1.164 2.6-2.6v-3.818c-.003-1.436-1.167-2.6-2.602-2.6z"/></g><path d="m246.026 62.961c-1.415.267-2.366 1.536-2.366 2.884 0 1.575 1.266 2.943 2.943 2.943 1.664 0 2.943-1.362 2.943-2.943 0-1.754-1.579-3.246-3.52-2.884z" fill="#b2e26d"/><path d="m220.95 236.076c-1.942-.35-3.52 1.102-3.52 2.884 0 1.555 1.245 2.943 2.943 2.943 1.639 0 2.943-1.368 2.943-2.943 0-1.4-1.007-2.628-2.366-2.884z" fill="#3caadc"/><path d="m43.563 22.101h-2.171v-2.171c0-1.625-1.317-2.943-2.943-2.943s-2.943 1.317-2.943 2.943v2.171h-2.171c-1.625 0-2.943 1.317-2.943 2.943s1.317 2.943 2.943 2.943h2.171v2.171c0 1.625 1.317 2.943 2.943 2.943s2.943-1.317 2.943-2.943v-2.171h2.171c1.625 0 2.943-1.317 2.943-2.943s-1.317-2.943-2.943-2.943z" fill="#f5c84c"/><path d="m61.475.053c-1.942-.35-3.52 1.102-3.52 2.884 0 1.703 1.496 3.239 3.52 2.884 1.331-.252 2.366-1.466 2.366-2.884s-1.027-2.631-2.366-2.884z" fill="#ef4460"/><path d="m249.87 215.167c-4.192-.781-7.496-4.017-8.293-8.124-.04-.206-.328-.206-.368 0-.797 4.106-4.101 7.343-8.293 8.124-.21.039-.21.321 0 .36 4.192.781 7.496 4.017 8.293 8.124.04.206.328.206.368 0 .797-4.107 4.101-7.343 8.293-8.124.21-.039.21-.321 0-.36z" fill="#b2e26d"/><path d="m101.929 102.019c-.073 0-.146-.003-.221-.01-1.376-.12-2.394-1.333-2.272-2.708 1.861-21.26 5.327-39.549 10.022-52.89 5.182-14.722 11.417-22.187 18.534-22.187s13.353 7.465 18.534 22.187c4.695 13.341 8.162 31.63 10.023 52.89.121 1.375-.896 2.588-2.272 2.708-1.379.13-2.588-.896-2.708-2.272-4.055-46.292-14.93-70.513-23.577-70.513s-19.522 24.221-23.576 70.513c-.113 1.301-1.205 2.282-2.487 2.282z"/><path d="m127.992 244.612c-7.117 0-13.353-7.465-18.534-22.187-4.695-13.341-8.161-31.629-10.022-52.889-.121-1.375.896-2.588 2.272-2.708 1.382-.124 2.589.896 2.708 2.272 4.054 46.292 14.929 70.513 23.576 70.513s19.522-24.221 23.577-70.513c.119-1.375 1.328-2.396 2.708-2.272 1.376.12 2.394 1.333 2.272 2.708-1.861 21.26-5.328 39.549-10.023 52.889-5.181 14.722-11.417 22.187-18.534 22.187z"/><path d="m195.862 102.019c-1.141 0-2.171-.786-2.436-1.945-9.663-42.378-35.959-70.851-65.435-70.851s-55.771 28.473-65.435 70.851c-.308 1.346-1.648 2.187-2.993 1.882-1.347-.307-2.188-1.647-1.882-2.993 10.193-44.704 38.448-74.739 70.31-74.739s60.116 30.035 70.31 74.739c.307 1.346-.535 2.686-1.882 2.993-.186.043-.373.063-.557.063z"/><path d="m127.992 244.612c-31.861 0-60.116-30.035-70.31-74.739-.307-1.346.535-2.686 1.882-2.993s2.686.537 2.993 1.882c9.663 42.377 35.959 70.85 65.435 70.85s55.771-28.473 65.435-70.85c.307-1.346 1.647-2.188 2.993-1.882 1.347.307 2.188 1.647 1.882 2.993-10.194 44.704-38.448 74.739-70.31 74.739z"/><path d="m127.992 256c-67.041 0-121.582-54.542-121.582-121.582s54.541-121.582 121.582-121.582 121.582 54.542 121.582 121.582-54.541 121.582-121.582 121.582zm0-238.164c-64.283 0-116.582 52.298-116.582 116.582s52.299 116.582 116.582 116.582 116.582-52.298 116.582-116.582-52.299-116.582-116.582-116.582z"/><path d="m234.733 136.918h-18.371c-1.381 0-2.5-1.119-2.5-2.5s1.119-2.5 2.5-2.5h18.371c1.381 0 2.5 1.119 2.5 2.5s-1.119 2.5-2.5 2.5z"/><path d="m39.639 136.918h-19.196c-1.381 0-2.5-1.119-2.5-2.5s1.119-2.5 2.5-2.5h19.195c1.381 0 2.5 1.119 2.5 2.5s-1.118 2.5-2.499 2.5z"/><path d="m127.992 244.612c-60.762 0-110.194-49.433-110.194-110.194s49.432-110.194 110.194-110.194 110.194 49.433 110.194 110.194-49.432 110.194-110.194 110.194zm0-215.388c-58.004 0-105.194 47.19-105.194 105.194s47.19 105.194 105.194 105.194 105.194-47.19 105.194-105.194-47.19-105.194-105.194-105.194z"/><path d="m222.925 187.803h-189.865c-.921 0-1.767-.506-2.202-1.317-8.544-15.906-13.06-33.911-13.06-52.068s4.516-36.163 13.06-52.068c.436-.811 1.281-1.317 2.202-1.317h189.865c.921 0 1.767.506 2.202 1.317 8.544 15.906 13.06 33.911 13.06 52.068s-4.516 36.163-13.06 52.068c-.436.811-1.281 1.317-2.202 1.317zm-188.359-5h186.852c7.703-14.854 11.769-31.55 11.769-48.385s-4.065-33.531-11.769-48.385h-186.852c-7.703 14.854-11.769 31.55-11.769 48.385s4.066 33.531 11.769 48.385z"/><path d="m67.719 158.15c-8.241 0-17.12-5.06-17.981-14.837-.126-1.419.354-2.838 1.318-3.891.966-1.053 2.336-1.656 3.761-1.656h1.788c-3.798-2.205-7.043-5.784-7.043-12.391 0-6.833 4.655-14.025 15.057-14.689 8.307-.532 17.331 4.017 18.578 13.731.188 1.452-.261 2.916-1.229 4.016-.968 1.101-2.363 1.732-3.829 1.732h-1.914c4.123 2.192 7.788 5.865 7.788 13.062 0 7.081-4.768 14.436-15.418 14.904-.29.013-.583.019-.876.019zm-12.903-15.384s-.099.107-.099.108c.626 7.104 7.352 10.54 13.657 10.261 4.907-.216 10.638-2.94 10.638-9.909 0-6.853-4.269-8.742-10.779-10.842-3.944-1.272-8.414-2.714-8.414-7.165 0-3.02 2.16-5.252 5.376-5.554 3.233-.304 7.045 1.495 7.789 5.418.009.047.05.081.098.081h5.057s.099-.111.099-.112c-.855-6.661-7.347-9.764-13.3-9.378-4.787.306-10.376 3.03-10.376 9.7 0 6.548 4.194 8.42 10.593 10.528 4.057 1.336 8.654 2.852 8.654 7.479 0 3.252-2.44 5.645-5.936 5.819-3.574.177-7.533-2.146-7.952-6.344-.006-.053-.048-.091-.099-.091h-5.006zm9.745-1.791c.172.434.287.9.336 1.388.135 1.359 1.681 1.887 2.728 1.845 1.185-.059 1.185-.596 1.185-.825-.001-.879-2.095-1.684-4.249-2.408zm1.33-16.341c-.079 0-.155.003-.228.01-.844.079-.844.402-.844.576 0 .648 1.828 1.367 3.629 1.974-.17-.37-.298-.765-.376-1.179-.185-.979-1.336-1.381-2.181-1.381z"/><path d="m120.705 157.769h-5.728c-2.271 0-4.289-1.526-4.906-3.711l-3.503-12.379-3.504 12.379c-.617 2.185-2.635 3.711-4.906 3.711h-5.728c-2.333 0-4.365-1.579-4.94-3.839l-9.287-36.374c-.388-1.513-.047-3.155.912-4.39.976-1.254 2.443-1.972 4.028-1.972h5.21c2.4 0 4.446 1.636 4.975 3.978l2.516 11.16 3.181-11.408c.612-2.196 2.633-3.73 4.912-3.73h5.211c2.278 0 4.298 1.532 4.911 3.727l3.2 11.438 2.551-11.198c.532-2.336 2.577-3.967 4.973-3.967h5.158c1.584 0 3.052.717 4.025 1.967.975 1.254 1.309 2.854.917 4.39l-9.235 36.373c-.576 2.264-2.608 3.845-4.943 3.845zm-14.136-27.772c1.119 0 2.102.743 2.405 1.819l5.907 20.88c.013.043.052.072.096.072h5.728c.045 0 .086-.032.097-.076l9.235-36.375-.097-.124h-5.158c-.047 0-.087.032-.098.078l-4.739 20.809c-.254 1.115-1.232 1.916-2.376 1.944-1.131.057-2.16-.724-2.469-1.825l-5.857-20.932c-.013-.043-.052-.073-.096-.073h-5.211c-.045 0-.084.029-.096.073l-5.846 20.966c-.302 1.083-1.288 1.829-2.407 1.829-.021 0-.043 0-.063-.001-1.146-.029-2.124-.832-2.376-1.949l-4.697-20.84c-.011-.045-.051-.078-.098-.078h-5.21s-.097.124-.097.124l9.288 36.375c.012.045.051.075.096.075h5.728c.044 0 .083-.029.096-.072l5.91-20.88c.305-1.076 1.287-1.819 2.405-1.819z"/><path d="m141.196 157.769h-4.694c-2.812 0-5.1-2.288-5.1-5.1v-36.375c0-2.812 2.288-5.1 5.1-5.1h4.694c2.812 0 5.1 2.288 5.1 5.1v36.375c0 2.812-2.288 5.1-5.1 5.1zm-4.694-41.575c-.056 0-.1.044-.1.1v36.375c0 .056.044.1.1.1h4.694c.055 0 .1-.045.1-.1v-36.375c0-.055-.045-.1-.1-.1z"/><path d="m153.424 157.769h-4.695c-2.812 0-5.1-2.288-5.1-5.1v-36.375c0-2.812 2.288-5.1 5.1-5.1h20.588c2.812 0 5.1 2.288 5.1 5.1v3.817c0 2.812-2.288 5.1-5.1 5.1h-10.793v2.391h8.368c2.812 0 5.1 2.288 5.1 5.1v3.664c0 2.812-2.288 5.1-5.1 5.1h-8.368v11.205c-.001 2.81-2.289 5.098-5.1 5.098zm-4.695-41.575c-.055 0-.1.045-.1.1v36.375c0 .055.045.1.1.1h4.695c.055 0 .1-.045.1-.1v-13.705c0-1.381 1.119-2.5 2.5-2.5h10.868c.055 0 .1-.045.1-.1v-3.664c0-.055-.045-.1-.1-.1h-10.868c-1.381 0-2.5-1.119-2.5-2.5v-7.391c0-1.381 1.119-2.5 2.5-2.5h13.293c.056 0 .1-.044.1-.1v-3.817c0-.056-.044-.1-.1-.1h-20.588z"/><path d="m191.07 157.769h-4.694c-2.812 0-5.1-2.288-5.1-5.1v-27.458h-5.169c-2.812 0-5.1-2.288-5.1-5.1v-3.817c0-2.812 2.288-5.1 5.1-5.1h25.231c2.812 0 5.1 2.288 5.1 5.1v3.817c0 2.812-2.288 5.1-5.1 5.1h-5.169v27.458c.001 2.812-2.287 5.1-5.099 5.1zm-14.963-41.575c-.056 0-.1.044-.1.1v3.817c0 .056.044.1.1.1h7.669c1.381 0 2.5 1.119 2.5 2.5v29.958c0 .056.044.1.1.1h4.694c.055 0 .1-.045.1-.1v-29.958c0-1.381 1.119-2.5 2.5-2.5h7.669c.055 0 .1-.045.1-.1v-3.817c0-.055-.045-.1-.1-.1z"/></svg>