<svg enable-background="new 0 0 256 256" height="512" viewBox="0 0 256 256" width="512" xmlns="http://www.w3.org/2000/svg"><path d="m150.985 91.821h-145.575c-1.607 0-2.91 1.303-2.91 2.91v58.138c0 1.607 1.303 2.91 2.91 2.91h145.575c1.607 0 2.91-1.303 2.91-2.91v-58.138c0-1.607-1.303-2.91-2.91-2.91z" fill="#fc657e"/><path d="m18.313 155.779c11.454 21.362 33.997 35.927 59.885 35.927 25.887 0 48.431-14.566 59.885-35.927z" fill="#fc657e"/><path d="m150.985 91.821h-145.575c-1.607 0-2.91 1.303-2.91 2.91v58.138c0 1.607 1.303 2.91 2.91 2.91h145.575c1.607 0 2.91-1.303 2.91-2.91v-58.138c0-1.607-1.303-2.91-2.91-2.91z" fill="#fc657e"/><path d="m138.082 91.821c-11.454-21.362-33.997-35.927-59.885-35.927s-48.43 14.565-59.884 35.927z" fill="#fcdd86"/><path d="m18.313 155.779c11.454 21.362 33.997 35.927 59.885 35.927 25.887 0 48.431-14.566 59.885-35.927z" fill="#fcdd86"/><path d="m126.458 91.821c-10.385-15.621-28.137-25.941-48.26-25.941s-37.875 10.321-48.26 25.941z" fill="#f5c84c"/><path d="m29.937 155.779c10.385 15.621 28.137 25.941 48.26 25.941s37.875-10.321 48.26-25.941z" fill="#f5c84c"/><path d="m196.02 57.538h-43.014c-3.174 0-5.771 2.597-5.771 5.771s2.597 5.771 5.771 5.771h43.014c3.174 0 5.771-2.597 5.771-5.771 0-3.175-2.597-5.771-5.771-5.771z" fill="#dae6f1"/><path d="m154.059 57.538h40.908c2.588-.568 4.543-2.88 4.543-5.632 0-3.174-2.597-5.771-5.771-5.771h-38.452c-3.174 0-5.771 2.597-5.771 5.771-.001 2.752 1.954 5.064 4.543 5.632z" fill="#dae6f1"/><path d="m157.653 46.134h36.545c-.091-9.032 4.598-16.379 7.962-20.465 1.158-1.407.141-3.526-1.681-3.526h-49.108c-1.822 0-2.839 2.119-1.681 3.526 3.365 4.086 8.055 11.433 7.963 20.465z" fill="#c46c45"/><path d="m188.584 175.339v-4.308c0-2.113 1.729-3.842 3.842-3.842-2.113 0-3.842-1.729-3.842-3.842v-4.855c0-2.114 1.729-3.843 3.842-3.843-2.113 0-3.842-1.729-3.842-3.842v-4.855c0-2.114 1.729-3.843 3.842-3.843h8.113c-2.113 0-3.842-1.729-3.842-3.842v-4.855c0-2.113 1.729-3.842 3.842-3.842h36.17c-.66-3.524-1.451-6.79-2.346-9.83l-35.46 9.695c-2.038.557-4.162-.654-4.72-2.693l-1.28-4.683c-.557-2.039.655-4.162 2.693-4.72l34.314-9.381c-9.562-20.232-24.241-27.822-31.53-39.398-.723.328-1.519.521-2.361.521h-43.014c-.637 0-1.24-.129-1.814-.322-3.959 6.19-10.026 11.26-16.267 17.78 1.127 1.71 2.185 3.47 3.157 5.283h12.903c1.607 0 2.91 1.303 2.91 2.91v58.138c0 1.607-1.303 2.91-2.91 2.91h-12.903c-1.908 3.559-4.13 6.924-6.618 10.069.031.012.063.021.094.034 9.707 3.765 24.213 8.714 33.399 8.714 7.928 0 16.958-.735 23.648.747-.006-.002-.013-.004-.02-.005z" fill="#c46c45"/><path d="m182.771 69.08v10.537c0 3.856 3.22 6.324 6.666 5.716 2.787-.492 4.404-3.053 4.404-5.883v-10.37z" fill="#c7d7e5"/><g fill="#f5c84c"><path d="m237.362 142.109h-44.936c-2.113 0-3.842 1.729-3.842 3.842v4.855c0 2.113 1.729 3.842 3.842 3.842h44.936c2.113 0 3.842-1.729 3.842-3.842v-4.855c0-2.113-1.729-3.842-3.842-3.842z"/><path d="m237.362 154.649h-44.936c-2.113 0-3.842 1.729-3.842 3.842v4.855c0 2.113 1.729 3.842 3.842 3.842h44.936c2.113 0 3.842-1.729 3.842-3.842v-4.855c0-2.113-1.729-3.842-3.842-3.842z"/><path d="m245.476 129.57h-44.936c-2.113 0-3.842 1.729-3.842 3.842v4.855c0 2.113 1.729 3.842 3.842 3.842h44.936c2.113 0 3.842-1.729 3.842-3.842v-4.855c0-2.113-1.729-3.842-3.842-3.842z"/><path d="m238.942 105.488-43.345 11.85c-2.038.557-3.25 2.681-2.693 4.72l1.28 4.683c.557 2.039 2.681 3.25 4.72 2.693l43.345-11.85c2.038-.557 3.25-2.681 2.693-4.72l-1.28-4.683c-.558-2.038-2.682-3.25-4.72-2.693z"/><path d="m196.542 179.728c1.23 1.627 1.933 3.735 1.933 6.471 0 2.412-1.008 4.407-2.664 6.068h1.502l26.429-12.54h-27.2z"/><path d="m196.542 179.728h27.2l13.771-6.533c1.197-.568 2.444-.892 3.692-1.015v-1.149c0-2.113-1.729-3.842-3.842-3.842h-44.935c-2.113 0-3.842 1.729-3.842 3.842v4.308c3.414.754 6.217 2.088 7.956 4.389z"/><path d="m196.542 179.728c0-.001 0-.001 0 0 1.23 1.627 1.933 3.734 1.933 6.471 0 3.289-1.868 5.807-4.717 7.747l.03-.007 29.954-14.212h-27.2z"/></g><path d="m252.341 178.347c-2.706-5.479-9.308-7.772-14.828-5.153l-43.724 20.745-.178.122c2.94-1.954 4.864-4.513 4.864-7.863 0-14.181-18.693-11.603-33.518-11.603-9.186 0-23.692-4.949-33.399-8.714-.031-.012-.063-.021-.094-.033-10.667 13.486-26.328 22.844-44.172 25.245l-.002 26.043 9.478-1.028c9.427-1.023 18.961-.315 28.133 2.088l30.467 7.984c17.294 4.532 35.678 2.066 51.167-6.863l41.78-26.573c4.821-3.066 6.557-9.273 4.026-14.397z" fill="#f9d0b4"/><path d="m78.198 191.707c-1.934 0-3.847-.091-5.741-.25v38.574h12.193c1.458 0 2.641-1.182 2.641-2.641v-36.296c-2.976.4-6.01.613-9.093.613z" fill="#dae6f1"/><path d="m43.789 182.312v51.524c0 1.458 1.182 2.641 2.641 2.641h23.386c1.458 0 2.641-1.182 2.641-2.641v-42.38c-10.395-.875-20.127-4.1-28.668-9.144z" fill="#70d6f9"/><path d="m122.529 21.898h-2.07v-2.07c0-1.549-1.256-2.805-2.805-2.805s-2.805 1.256-2.805 2.805v2.07h-2.069c-1.549 0-2.805 1.256-2.805 2.805s1.256 2.805 2.805 2.805h2.069v2.07c0 1.549 1.256 2.805 2.805 2.805s2.805-1.256 2.805-2.805v-2.07h2.07c1.549 0 2.805-1.256 2.805-2.805-.001-1.55-1.256-2.805-2.805-2.805z" fill="#f5c84c"/><path d="m222.694 47.166c-1.851-.334-3.355 1.05-3.355 2.749 0 1.623 1.426 3.087 3.355 2.749 1.269-.24 2.255-1.397 2.255-2.749-.001-1.352-.979-2.508-2.255-2.749z" fill="#3caadc"/><path d="m107.694 43.166c-1.854-.335-3.355 1.052-3.355 2.749 0 1.28.901 2.493 2.255 2.749 1.815.338 3.354-1.049 3.354-2.749 0-1.352-.978-2.508-2.254-2.749z" fill="#87d147"/><path d="m22.594 182.166c-1.349.255-2.255 1.464-2.255 2.749 0 1.549 1.249 2.805 2.805 2.805 1.542 0 2.805-1.252 2.805-2.805-.001-1.731-1.555-3.085-3.355-2.749z" fill="#f5c84c"/><path d="m243.257 74.237c-3.995-.744-7.144-3.829-7.904-7.743-.038-.197-.313-.197-.351 0-.76 3.914-3.908 6.999-7.904 7.743-.201.037-.201.306 0 .344 3.995.744 7.144 3.829 7.904 7.743.038.197.313.197.351 0 .76-3.914 3.908-6.999 7.904-7.743.201-.038.201-.307 0-.344z" fill="#ef4460"/><path d="m163.99 202.88c-1.38 0-2.5-1.119-2.5-2.499 0-1.381 1.119-2.5 2.499-2.501.194 0 19.478-.077 28.237-5.899 1.149-.766 2.702-.452 3.466.698.764 1.149.452 2.701-.698 3.466-10.018 6.659-30.152 6.735-31.004 6.735z"/><path d="m150.985 158.279h-145.575c-2.983 0-5.41-2.427-5.41-5.41v-58.138c0-2.983 2.427-5.41 5.41-5.41h145.575c2.983 0 5.41 2.427 5.41 5.41v58.138c0 2.984-2.427 5.41-5.41 5.41zm-145.575-63.958c-.226 0-.41.184-.41.41v58.138c0 .227.184.41.41.41h145.575c.226 0 .41-.184.41-.41v-58.138c0-.227-.184-.41-.41-.41z"/><path d="m78.198 194.207c-25.979 0-49.77-14.272-62.088-37.246-.416-.775-.394-1.711.058-2.466.451-.754 1.266-1.216 2.145-1.216h119.769c.879 0 1.694.462 2.145 1.216.452.755.474 1.69.058 2.466-12.318 22.974-36.108 37.246-62.087 37.246zm-55.553-35.928c11.924 19.179 32.84 30.928 55.553 30.928s43.628-11.749 55.553-30.928z"/><path d="m196.02 71.58h-43.014c-4.561 0-8.271-3.711-8.271-8.271s3.71-8.271 8.271-8.271h43.014c4.561 0 8.271 3.711 8.271 8.271s-3.71 8.271-8.271 8.271zm-43.014-11.543c-1.804 0-3.271 1.468-3.271 3.271s1.467 3.271 3.271 3.271h43.014c1.804 0 3.271-1.468 3.271-3.271s-1.468-3.271-3.271-3.271z"/><path d="m194.967 60.037h-40.908c-.18 0-.359-.02-.535-.058-3.771-.827-6.508-4.223-6.508-8.074 0-4.561 3.71-8.271 8.271-8.271h38.452c4.561 0 8.271 3.71 8.271 8.271 0 3.852-2.737 7.247-6.508 8.074-.176.039-.355.058-.535.058zm-40.598-5h40.289c1.376-.407 2.353-1.688 2.353-3.132 0-1.804-1.468-3.271-3.271-3.271h-38.452c-1.804 0-3.271 1.467-3.271 3.271-.001 1.444.975 2.725 2.352 3.132z"/><path d="m194.198 48.635h-36.545c-.667 0-1.307-.267-1.777-.741-.469-.475-.73-1.116-.723-1.784.086-8.485-4.595-15.452-7.393-18.851-1.154-1.401-1.388-3.294-.612-4.938.78-1.651 2.398-2.678 4.223-2.678h49.108c1.825 0 3.444 1.026 4.224 2.678.776 1.644.542 3.536-.612 4.938-2.798 3.398-7.479 10.365-7.393 18.851.007.668-.254 1.31-.723 1.784-.47.474-1.109.741-1.777.741zm-34.134-5h31.723c.678-8.447 5.022-15.255 7.989-18.991h-47.7c2.966 3.736 7.311 10.544 7.988 18.991z"/><path d="m181.383 48.635c-1.381 0-2.5-1.119-2.5-2.5 0-6.268 1.658-11.663 1.729-11.89.411-1.319 1.814-2.053 3.13-1.644 1.317.41 2.053 1.811 1.644 3.128-.015.049-1.503 4.926-1.503 10.405 0 1.382-1.119 2.501-2.5 2.501z"/><path d="m48.889 125.546h-4.726v9.273h-8.958v-9.273h-4.696v23.367h4.696v-9.914h8.958v9.914h4.726z"/><path d="m62.459 125.94h-4.466l-8.172 21.668c-.112.296-.071.628.109.888.18.261.476.416.793.416h3.656.001l1.794-4.957h8.074l1.794 4.957h3.657c.316 0 .613-.155.793-.415s.221-.592.11-.888zm.299 13.927h-5.095l2.547-7.03z"/><path d="m90.072 125.546h-3.688l-5.946 16.474-5.864-16.474h-3.721c-.315 0-.61.153-.791.412-.18.258-.223.589-.115.884l8.077 22.072h4.844l8.108-22.07c.109-.296.066-.626-.114-.884-.179-.26-.475-.414-.79-.414z"/><path d="m105.664 125.546h-13.758v23.367h13.758v-4.179h-9.062v-5.554h8.15v-4.056h-8.15v-5.4h9.062z"/><path d="m125.886 125.546h-4.695v14.703l-9.646-14.703h-4.252v23.367h4.696v-14.681l9.646 14.681h4.251z"/><path d="m66.617 98.687h-16.753v4.173h6.033v19.129h4.687v-19.129h6.033z"/><path d="m86.564 120.488-8.117-21.604h-4.456-.001l-8.149 21.602c-.112.296-.071.628.109.888.18.261.476.416.793.416h3.648l1.788-4.941h8.044l1.789 4.941h3.648c.316 0 .613-.155.793-.415.181-.259.222-.591.111-.887zm-7.826-7.719h-5.071l2.536-6.998z"/><path d="m106.382 120.51-6.411-10.165 6.235-10.191c.182-.298.189-.67.019-.975-.171-.304-.493-.493-.841-.493h-3.733l-4.388 7.421-4.686-7.421h-3.837c-.352 0-.675.191-.845.499s-.158.684.03.981l6.322 9.988-6.213 10.374c-.178.298-.183.669-.012.971s.492.489.839.489h3.741l4.363-7.56 4.796 7.56h3.804c.351 0 .675-.191.844-.498.172-.307.161-.683-.027-.98z"/><path d="m150.985 158.279h-145.575c-2.983 0-5.41-2.427-5.41-5.41v-58.138c0-2.983 2.427-5.41 5.41-5.41h145.575c2.983 0 5.41 2.427 5.41 5.41v58.138c0 2.984-2.427 5.41-5.41 5.41zm-145.575-63.958c-.226 0-.41.184-.41.41v58.138c0 .227.184.41.41.41h145.575c.226 0 .41-.184.41-.41v-58.138c0-.227-.184-.41-.41-.41z"/><path d="m138.082 94.321h-119.769c-.879 0-1.694-.462-2.145-1.216-.452-.755-.474-1.69-.058-2.466 12.318-22.974 36.108-37.246 62.088-37.246 25.979 0 49.77 14.272 62.087 37.246.416.775.394 1.711-.058 2.466-.451.754-1.266 1.216-2.145 1.216zm-115.437-5h111.105c-11.924-19.179-32.839-30.928-55.553-30.928s-43.628 11.75-55.552 30.928z"/><path d="m78.198 194.207c-25.979 0-49.77-14.272-62.088-37.246-.416-.775-.394-1.711.058-2.466.451-.754 1.266-1.216 2.145-1.216h119.769c.879 0 1.694.462 2.145 1.216.452.755.474 1.69.058 2.466-12.318 22.974-36.108 37.246-62.087 37.246zm-55.553-35.928c11.924 19.179 32.84 30.928 55.553 30.928s43.628-11.749 55.553-30.928z"/><path d="m172.7 230.927c-5.992 0-12.021-.771-17.965-2.328l-30.467-7.984c-8.912-2.335-18.074-3.016-27.229-2.021l-9.478 1.028c-.706.074-1.412-.15-1.939-.625-.528-.474-.83-1.15-.83-1.86l.002-26.043c0-1.252.926-2.311 2.167-2.478 16.822-2.263 31.931-10.899 42.544-24.318.674-.854 1.821-1.173 2.839-.79.009.003.112.04.121.043 14.206 5.511 25.746 8.546 32.495 8.546 1.934 0 3.991-.046 5.98-.09 10.306-.231 20.96-.467 26.483 4.934 2.359 2.308 3.555 5.423 3.555 9.259 0 .503-.036 1.048-.125 1.622l35.591-16.886c6.713-3.184 14.851-.356 18.142 6.305 3.103 6.281.985 13.854-4.926 17.614l-41.78 26.572c-.031.02-.062.038-.093.057-10.842 6.248-22.886 9.443-35.087 9.443zm-67.496-17.777c6.846 0 13.653.878 20.331 2.628l30.467 7.984c16.75 4.388 34.233 2.05 49.237-6.584l41.733-26.543c3.752-2.387 5.097-7.193 3.127-11.181-2.09-4.229-7.253-6.022-11.516-4.002l-43.542 20.658c-.016.011-.032.021-.048.032-1.145.762-2.688.454-3.455-.683-.769-1.138-.476-2.683.656-3.46l.178-.122c.027-.019.055-.037.083-.055 2.368-1.638 3.52-3.479 3.52-5.625 0-2.475-.671-4.334-2.051-5.684-4.018-3.93-14.037-3.707-22.875-3.51-2.017.045-4.102.091-6.091.091-8.949 0-22.414-4.356-32.694-8.266-10.879 13.059-25.83 21.651-42.47 24.415l-.002 21.104 6.708-.728c2.901-.311 5.807-.469 8.704-.469z"/><path d="m84.649 232.53h-12.193c-1.381 0-2.5-1.119-2.5-2.5v-38.574c0-.699.293-1.367.808-1.84.515-.474 1.201-.709 1.901-.651 1.939.163 3.749.242 5.532.242 2.898 0 5.845-.199 8.759-.591.714-.094 1.437.12 1.979.596.543.475.854 1.161.854 1.882v36.296c.001 2.835-2.305 5.14-5.14 5.14zm-9.693-5h9.693c.078 0 .141-.063.141-.141v-33.494c-3.28.308-6.486.393-9.834.232z"/><path d="m69.815 238.977h-23.385c-2.834 0-5.141-2.306-5.141-5.141v-51.524c0-.897.481-1.727 1.261-2.171.78-.446 1.738-.438 2.511.019 8.494 5.016 17.781 7.979 27.605 8.806 1.295.109 2.291 1.191 2.291 2.491v42.38c-.001 2.834-2.307 5.14-5.142 5.14zm-23.526-52.436v47.295c0 .077.063.141.141.141h23.386c.078 0 .141-.063.141-.141v-40.118c-8.311-.969-16.246-3.376-23.668-7.177z"/><path d="m237.362 157.148h-44.936c-3.497 0-6.342-2.845-6.342-6.342v-4.855c0-3.497 2.845-6.342 6.342-6.342h44.936c3.497 0 6.342 2.845 6.342 6.342v4.855c.001 3.498-2.845 6.342-6.342 6.342zm-44.935-12.539c-.728 0-1.342.614-1.342 1.342v4.855c0 .728.615 1.342 1.342 1.342h44.936c.728 0 1.342-.614 1.342-1.342v-4.855c0-.728-.615-1.342-1.342-1.342z"/><path d="m237.362 169.688h-44.936c-3.497 0-6.342-2.846-6.342-6.343v-4.854c0-3.497 2.845-6.343 6.342-6.343h44.936c3.497 0 6.342 2.846 6.342 6.343v4.854c.001 3.498-2.845 6.343-6.342 6.343zm-44.935-12.54c-.728 0-1.342.615-1.342 1.343v4.854c0 .728.615 1.343 1.342 1.343h44.936c.728 0 1.342-.615 1.342-1.343v-4.854c0-.728-.615-1.343-1.342-1.343z"/><path d="m245.476 144.609h-44.936c-3.497 0-6.342-2.846-6.342-6.343v-4.854c0-3.497 2.845-6.343 6.342-6.343h44.936c3.497 0 6.342 2.846 6.342 6.343v4.854c0 3.498-2.845 6.343-6.342 6.343zm-44.935-12.54c-.728 0-1.342.615-1.342 1.343v4.854c0 .728.615 1.343 1.342 1.343h44.936c.728 0 1.342-.615 1.342-1.343v-4.854c0-.728-.615-1.343-1.342-1.343z"/><path d="m197.893 132.071c-2.788 0-5.35-1.855-6.12-4.671l-1.28-4.684c-.446-1.63-.228-3.339.613-4.813s2.202-2.531 3.833-2.977l43.344-11.85c1.631-.445 3.341-.229 4.814.612 1.474.842 2.531 2.202 2.977 3.833l1.28 4.683c.921 3.373-1.072 6.867-4.445 7.79l-43.346 11.851c-.557.153-1.118.226-1.67.226zm42.056-24.218c-.108 0-.225.014-.347.047l-43.345 11.851c-.461.126-.704.45-.808.632s-.259.556-.133 1.016l1.28 4.685c.192.702.947 1.135 1.649.94l43.345-11.85c.701-.192 1.132-.947.94-1.649l-1.28-4.683c-.126-.461-.45-.704-.632-.809-.134-.077-.37-.18-.669-.18zm-1.007-2.365h.01z"/><path d="m197.313 194.768h-1.501c-1.01 0-1.921-.608-2.309-1.541-.387-.934-.175-2.008.538-2.724 1.301-1.306 1.934-2.714 1.934-4.304 0-2.07-.467-3.693-1.427-4.964-.572-.757-.666-1.772-.244-2.622.423-.849 1.29-1.386 2.238-1.386h27.2c1.169 0 2.182.811 2.439 1.951s-.311 2.307-1.367 2.808l-26.429 12.54c-.335.16-.701.242-1.072.242zm3.164-12.54c.332 1.224.498 2.55.498 3.972 0 .551-.04 1.092-.12 1.621l11.787-5.593z"/><path d="m223.742 182.228h-27.2c-.784 0-1.522-.367-1.994-.992-1.233-1.632-3.36-2.762-6.502-3.455-1.146-.253-1.961-1.269-1.961-2.441v-4.309c0-3.497 2.845-6.342 6.342-6.342h44.936c3.497 0 6.342 2.845 6.342 6.342v1.148c0 1.285-.974 2.36-2.252 2.487-1.017.102-1.981.366-2.867.786l-13.771 6.534c-.336.16-.702.242-1.073.242zm-26.048-5h25.485l13.262-6.292c.631-.3 1.285-.549 1.958-.747-.249-.303-.624-.5-1.036-.5h-44.936c-.728 0-1.342.614-1.342 1.342v2.379c2.811.859 4.993 2.119 6.609 3.818z"/><path d="m188.608 177.844c-.11 0-.221-.007-.333-.021-.068-.01-.14-.022-.21-.038-4.741-1.05-10.985-.91-17.025-.778-2.014.045-4.096.091-6.083.091-9.424 0-23.855-4.831-34.303-8.884-.744-.284-1.348-.919-1.56-1.687-.211-.768-.084-1.604.41-2.229 2.42-3.06 4.565-6.323 6.376-9.7.435-.812 1.282-1.318 2.203-1.318h12.903c.226 0 .41-.184.41-.41v-58.14c0-.227-.184-.41-.41-.41h-12.903c-.921 0-1.768-.507-2.203-1.318-.905-1.687-1.928-3.398-3.042-5.088-.642-.974-.525-2.262.281-3.104 1.808-1.889 3.589-3.646 5.312-5.345 4.281-4.223 7.979-7.869 10.656-12.054.617-.966 1.813-1.39 2.9-1.023.387.129.721.192 1.02.192h43.014c.445 0 .893-.101 1.328-.298 1.141-.515 2.483-.113 3.149.944 2.683 4.261 6.432 7.958 10.773 12.239 6.971 6.874 14.873 14.665 20.902 27.423.316.668.32 1.442.011 2.113-.309.672-.899 1.172-1.612 1.366l-34.314 9.381c-.461.127-.704.45-.808.633-.104.182-.259.556-.133 1.016l1.28 4.685c.126.461.45.703.631.808.182.104.556.256 1.017.133l35.461-9.694c1.311-.36 2.672.399 3.057 1.704.943 3.198 1.752 6.589 2.406 10.076.137.731-.058 1.485-.533 2.058s-1.18.903-1.924.903h-36.17c-.728 0-1.342.615-1.342 1.343v4.854c0 .728.615 1.343 1.343 1.343 1.381.001 2.5 1.12 2.499 2.501 0 1.38-1.12 2.499-2.5 2.499h-8.113c-.728 0-1.342.614-1.342 1.342v4.855c0 .728.615 1.342 1.342 1.342 1.381 0 2.5 1.119 2.5 2.5s-1.119 2.5-2.5 2.5c-.728 0-1.342.615-1.342 1.343v4.854c0 .728.615 1.343 1.343 1.343 1.381.001 2.5 1.12 2.499 2.501 0 1.38-1.12 2.499-2.5 2.499-.728 0-1.342.614-1.342 1.342v3.989c.032.247.028.503-.018.76-.216 1.207-1.267 2.064-2.461 2.064zm-11.421-5.93c3.082 0 6.103.104 8.897.463v-1.347c0-1.443.485-2.775 1.3-3.843-.815-1.066-1.3-2.398-1.3-3.842v-4.854c0-1.443.484-2.775 1.299-3.843-.815-1.066-1.299-2.398-1.299-3.842v-4.855c0-3.497 2.845-6.342 6.342-6.342h1.915c-.094-.433-.143-.882-.143-1.343v-4.854c0-.796.147-1.558.416-2.26-1.403-.846-2.41-2.173-2.841-3.752l-1.28-4.684c-.446-1.629-.228-3.339.613-4.813s2.202-2.531 3.832-2.977l31.379-8.579c-5.473-10.42-12.394-17.245-18.557-23.322-3.879-3.824-7.567-7.462-10.439-11.551-.43.07-.864.105-1.301.105h-43.014c-.226 0-.452-.011-.679-.031-2.863 4.057-6.528 7.672-10.385 11.476-1.257 1.24-2.546 2.512-3.844 3.834.509.819.997 1.642 1.461 2.462h11.426c2.983 0 5.41 2.427 5.41 5.41v58.139c0 2.983-2.427 5.41-5.41 5.41h-11.425c-1.24 2.195-2.61 4.341-4.097 6.414 12.828 4.786 23.227 7.403 29.494 7.403 1.931 0 3.985-.046 5.972-.09 2.079-.045 4.183-.092 6.258-.092zm39.845-44.845h16.622c-.315-1.448-.659-2.872-1.028-4.264z"/><path d="m193.784 196.44c-.979 0-1.898-.571-2.302-1.497-.481-1.102-.125-2.387.869-3.063 2.438-1.66 3.624-3.519 3.624-5.681 0-2.07-.467-3.694-1.427-4.965-.572-.757-.667-1.771-.244-2.621.422-.85 1.29-1.386 2.238-1.386h27.2c1.169 0 2.182.811 2.439 1.951s-.311 2.307-1.367 2.808l-29.954 14.212c-.164.077-.336.138-.513.178-.187.043-.376.064-.563.064zm6.693-14.212c.331 1.224.498 2.55.498 3.972 0 .552-.04 1.092-.118 1.619l11.784-5.591z"/><path d="m188.399 87.925c-1.913 0-3.758-.655-5.222-1.884-1.874-1.572-2.906-3.854-2.906-6.424v-10.537c0-1.381 1.119-2.5 2.5-2.5h11.071c1.381 0 2.5 1.119 2.5 2.5v10.369c0 4.241-2.66 7.673-6.47 8.346-.492.087-.984.13-1.473.13zm-3.128-16.345v8.037c0 1.066.398 1.988 1.12 2.594.702.588 1.652.828 2.612.66 1.616-.285 2.339-1.924 2.339-3.422v-7.869z"/><path d="m126.458 94.321h-96.521c-.921 0-1.768-.507-2.204-1.319-.435-.812-.388-1.798.122-2.564 11.264-16.943 30.083-27.058 50.343-27.058 20.259 0 39.079 10.115 50.342 27.058.51.767.557 1.753.122 2.564-.436.812-1.283 1.319-2.204 1.319zm-91.611-5h86.702c-10.498-13.195-26.374-20.941-43.351-20.941-16.978 0-32.854 7.746-43.351 20.941z"/><path d="m78.198 184.221c-20.259 0-39.079-10.115-50.343-27.058-.51-.767-.557-1.753-.122-2.564.436-.812 1.282-1.319 2.204-1.319h96.521c.921 0 1.768.507 2.204 1.319.435.812.388 1.798-.122 2.564-11.264 16.942-30.083 27.058-50.342 27.058zm-43.351-25.942c10.498 13.195 26.374 20.941 43.351 20.941s32.853-7.746 43.351-20.941z"/></svg>