<svg enable-background="new 0 0 256 256" height="512" viewBox="0 0 256 256" width="512" xmlns="http://www.w3.org/2000/svg"><path d="m81.685 48.399h-18c-.778 0-1.49-.44-1.838-1.136-.403-.805-.222-1.768.421-2.399 2.975-2.921 4.768-7.142 4.768-11.616 0-1.569-.238-3.082-.681-4.505-1.033-3.321-3.178-6.152-5.999-8.058-.806-.545-1.667-1.014-2.574-1.397-1.813-.767-3.806-1.191-5.897-1.191-8.368 0-15.151 6.783-15.151 15.151v213.176c0 3.908 3.168 7.076 7.076 7.076h152.071c3.911 0 7.08-3.167 7.076-7.078-.029-29.383-.142-142.786-.197-198.023z" fill="#dae6f1"/><g fill="#edf4fc"><path d="m218.548 18.042v-.022h-.429c-.001 0-.003 0-.004 0s-.003 0-.004 0l-166.226.077c8.368 0 15.151 6.783 15.151 15.151 0 4.474-1.793 8.695-4.768 11.617-.643.631-.823 1.593-.421 2.399.348.696 1.059 1.136 1.838 1.136h154.863v-.1c8.166-.231 14.718-6.908 14.718-15.129 0-8.222-6.553-14.898-14.718-15.129z"/><path d="m62.208 149.357h116.086v12.37h-116.086z"/><path d="m62.208 161.727h116.086v12.37h-116.086z"/></g><path d="m175.649 136.988h-110.795c-1.461 0-2.646 1.185-2.646 2.646v9.724h116.086v-9.724c0-1.462-1.184-2.646-2.645-2.646z" fill="#70d6f9"/><path d="m62.208 183.821c0 1.461 1.185 2.646 2.646 2.646h110.795c1.461 0 2.646-1.185 2.646-2.646v-9.724h-116.087z" fill="#edf4fc"/><path d="m111.741 136.988h-46.887c-1.461 0-2.646 1.185-2.646 2.646v9.724h49.533z" fill="#70d6f9"/><path d="m78.384 136.988h-13.53c-1.461 0-2.646 1.185-2.646 2.646v9.724h16.176z" fill="#fcdd86"/><path d="m62.208 149.357h49.533v12.37h-49.533z" fill="#edf4fc"/><path d="m62.208 149.357h16.176v12.37h-16.176z" fill="#fcdd86"/><path d="m62.208 161.727h49.533v12.37h-49.533z" fill="#edf4fc"/><path d="m62.208 161.727h16.176v12.37h-16.176z" fill="#fcdd86"/><path d="m111.741 174.097h-49.533v9.724c0 1.461 1.185 2.646 2.646 2.646h46.887z" fill="#edf4fc"/><path d="m78.384 174.097h-16.176v9.724c0 1.461 1.185 2.646 2.646 2.646h13.53z" fill="#fcdd86"/><path d="m145.494 186.467h30.155c1.461 0 2.646-1.185 2.646-2.646v-9.724h-32.801z" fill="#edf4fc"/><path d="m145.494 161.727h32.801v12.37h-32.801z" fill="#edf4fc"/><path d="m145.494 149.357h32.801v12.37h-32.801z" fill="#edf4fc"/><path d="m175.649 136.988h-30.155v12.37h32.801v-9.724c-.001-1.462-1.185-2.646-2.646-2.646z" fill="#70d6f9"/><path d="m145.863 125.635h-52.158c-2.601 0-4.71-2.109-4.71-4.71s2.109-4.71 4.71-4.71h52.158c2.601 0 4.71 2.109 4.71 4.71-.001 2.601-2.109 4.71-4.71 4.71z" fill="#fcdd86"/><path d="m151.499 86.757c-.131-.17-.273-.332-.428-.485l-27.187-27.129c-1.767-1.763-4.441-1.764-6.208 0l-27.186 27.129c-.154.154-.296.316-.428.485-2.19 2.833-.147 7.26 3.206 7.26h55.026c3.352 0 5.396-4.427 3.205-7.26z" fill="#fcdd86"/><path d="m96.132 94.017v22.198h9.419v-22.198c-6.695 0-4.17 0-9.419 0z" fill="#f5c84c"/><path d="m116.071 94.017h9.419v22.198h-9.419z" fill="#f5c84c"/><path d="m136.01 94.017v22.198h9.419c0-6.689 0-16.376 0-22.198-5.249 0-2.738 0-9.419 0z" fill="#f5c84c"/><path d="m20.456 188.911h-2.07v-2.07c0-1.549-1.256-2.805-2.805-2.805s-2.805 1.256-2.805 2.805v2.07h-2.069c-1.549 0-2.805 1.256-2.805 2.805s1.256 2.805 2.805 2.805h2.069v2.07c0 1.549 1.256 2.805 2.805 2.805s2.805-1.256 2.805-2.805v-2.07h2.07c1.549 0 2.805-1.256 2.805-2.805s-1.255-2.805-2.805-2.805z" fill="#87d147"/><path d="m40.528.05c-1.854-.335-3.355 1.052-3.355 2.749 0 1.549 1.249 2.805 2.805 2.805 1.603 0 2.805-1.322 2.805-2.805 0-1.352-.978-2.508-2.255-2.749z" fill="#3caadc"/><path d="m216.429 75.856c-1.349.255-2.255 1.464-2.255 2.749 0 1.657 1.454 3.082 3.355 2.749 1.272-.24 2.255-1.399 2.255-2.749-.001-1.731-1.555-3.085-3.355-2.749z" fill="#f5c84c"/><path d="m23.528 213.856c-1.854-.335-3.355 1.052-3.355 2.749 0 1.637 1.428 3.087 3.355 2.749 1.269-.24 2.255-1.397 2.255-2.749s-.978-2.508-2.255-2.749z" fill="#3caadc"/><path d="m234.092 104.927c-3.995-.744-7.144-3.829-7.904-7.743-.038-.197-.313-.197-.351 0-.76 3.914-3.908 6.999-7.904 7.743-.201.037-.201.306 0 .344 3.995.744 7.144 3.829 7.904 7.743.038.197.313.197.351 0 .76-3.914 3.908-6.999 7.904-7.743.201-.038.201-.307 0-.344z" fill="#ef4460"/><path d="m25.149 21.992c-2.486-.463-4.446-2.383-4.918-4.818-.024-.122-.194-.122-.218 0-.473 2.436-2.432 4.355-4.919 4.818-.125.023-.125.191 0 .214 2.486.463 4.446 2.383 4.919 4.818.024.122.194.122.218 0 .473-2.436 2.432-4.355 4.918-4.818.125-.024.125-.191 0-.214z" fill="#f5c84c"/><path d="m218.548 50.899h-154.863c-1.737 0-3.298-.965-4.073-2.519-.885-1.768-.522-3.897.903-5.299 2.557-2.51 4.021-6.093 4.021-9.834 0-6.976-5.676-12.651-12.651-12.651-1.381 0-2.5-1.119-2.5-2.499 0-1.381 1.118-2.5 2.499-2.501l166.664-.077c.147 0 .292.013.432.037 9.442.453 16.786 8.122 16.786 17.614 0 9.374-7.164 16.971-16.437 17.594-.246.088-.509.135-.781.135zm-153.81-5h153.132c.193-.059.396-.093.606-.099 6.892-.195 12.289-5.743 12.289-12.63 0-6.888-5.397-12.436-12.288-12.63-.09-.003-.179-.01-.266-.021h-.093l-153.942.072c3.305 3.21 5.36 7.698 5.36 12.657 0 4.717-1.737 9.269-4.798 12.651z"/><path d="m150.124 214.248h-12.759c-1.381 0-2.5-1.119-2.5-2.5s1.119-2.5 2.5-2.5h12.759c1.381 0 2.5 1.119 2.5 2.5s-1.119 2.5-2.5 2.5z"/><path d="m162.883 214.248h-3.753c-1.381 0-2.5-1.119-2.5-2.5s1.119-2.5 2.5-2.5h3.753c1.381 0 2.5 1.119 2.5 2.5s-1.119 2.5-2.5 2.5z"/><path d="m174.891 214.248h-3.752c-1.381 0-2.5-1.119-2.5-2.5s1.119-2.5 2.5-2.5h3.752c1.381 0 2.5 1.119 2.5 2.5s-1.12 2.5-2.5 2.5z"/><path d="m174.566 202.167c-.005 0-.011 0-.016 0l-37.696-.237c-1.381-.009-2.493-1.135-2.484-2.516.009-1.375 1.126-2.484 2.5-2.484h.016l37.696.237c1.381.009 2.493 1.135 2.484 2.516-.008 1.375-1.126 2.484-2.5 2.484z"/><path d="m161.177 227.083c-.005 0-.011 0-.016 0l-24.464-.153c-1.381-.009-2.493-1.135-2.484-2.516.009-1.375 1.126-2.484 2.5-2.484h.016l24.464.153c1.381.009 2.493 1.135 2.484 2.516-.009 1.375-1.126 2.484-2.5 2.484z"/><path d="m178.295 164.228h-116.087c-1.381 0-2.5-1.119-2.5-2.5v-12.37c0-1.381 1.119-2.5 2.5-2.5h116.087c1.381 0 2.5 1.119 2.5 2.5v12.37c0 1.38-1.119 2.5-2.5 2.5zm-113.587-5h111.087v-7.37h-111.087z"/><path d="m178.295 176.597h-116.087c-1.381 0-2.5-1.119-2.5-2.5v-12.369c0-1.381 1.119-2.5 2.5-2.5h116.087c1.381 0 2.5 1.119 2.5 2.5v12.369c0 1.381-1.119 2.5-2.5 2.5zm-113.587-5h111.087v-7.369h-111.087z"/><path d="m178.295 151.857h-116.087c-1.381 0-2.5-1.119-2.5-2.5v-9.725c0-2.837 2.309-5.146 5.146-5.146h110.795c2.838 0 5.146 2.309 5.146 5.146v9.725c0 1.381-1.119 2.5-2.5 2.5zm-113.587-5h111.087v-7.225c0-.08-.065-.146-.146-.146h-110.795c-.08 0-.146.065-.146.146z"/><path d="m175.648 188.967h-110.794c-2.837 0-5.146-2.309-5.146-5.146v-9.725c0-1.381 1.119-2.5 2.5-2.5h116.087c1.381 0 2.5 1.119 2.5 2.5v9.725c0 2.837-2.309 5.146-5.147 5.146zm-110.94-12.37v7.225c0 .08.065.146.146.146h110.795c.081 0 .146-.065.146-.146v-7.225z"/><path d="m111.741 151.857h-49.533c-1.381 0-2.5-1.119-2.5-2.5v-9.725c0-2.837 2.309-5.146 5.146-5.146h46.888c1.381 0 2.5 1.119 2.5 2.5v12.37c-.001 1.382-1.12 2.501-2.501 2.501zm-47.033-5h44.533v-7.37h-44.387c-.08 0-.146.065-.146.146z"/><path d="m78.384 151.857h-16.176c-1.381 0-2.5-1.119-2.5-2.5v-9.725c0-2.837 2.309-5.146 5.146-5.146h13.53c1.381 0 2.5 1.119 2.5 2.5v12.37c0 1.382-1.119 2.501-2.5 2.501zm-13.676-5h11.176v-7.37h-11.03c-.08 0-.146.065-.146.146z"/><path d="m111.741 164.228h-49.533c-1.381 0-2.5-1.119-2.5-2.5v-12.37c0-1.381 1.119-2.5 2.5-2.5h49.533c1.381 0 2.5 1.119 2.5 2.5v12.37c0 1.38-1.119 2.5-2.5 2.5zm-47.033-5h44.533v-7.37h-44.533z"/><path d="m78.384 164.228h-16.176c-1.381 0-2.5-1.119-2.5-2.5v-12.37c0-1.381 1.119-2.5 2.5-2.5h16.176c1.381 0 2.5 1.119 2.5 2.5v12.37c0 1.38-1.119 2.5-2.5 2.5zm-13.676-5h11.176v-7.37h-11.176z"/><path d="m111.741 176.597h-49.533c-1.381 0-2.5-1.119-2.5-2.5v-12.369c0-1.381 1.119-2.5 2.5-2.5h49.533c1.381 0 2.5 1.119 2.5 2.5v12.369c0 1.381-1.119 2.5-2.5 2.5zm-47.033-5h44.533v-7.369h-44.533z"/><path d="m78.384 176.597h-16.176c-1.381 0-2.5-1.119-2.5-2.5v-12.369c0-1.381 1.119-2.5 2.5-2.5h16.176c1.381 0 2.5 1.119 2.5 2.5v12.369c0 1.381-1.119 2.5-2.5 2.5zm-13.676-5h11.176v-7.369h-11.176z"/><path d="m111.741 188.967h-46.887c-2.837 0-5.146-2.309-5.146-5.146v-9.725c0-1.381 1.119-2.5 2.5-2.5h49.533c1.381 0 2.5 1.119 2.5 2.5v12.37c0 1.382-1.119 2.501-2.5 2.501zm-47.033-12.37v7.225c0 .08.065.146.146.146h44.388v-7.37h-44.534z"/><path d="m78.384 188.967h-13.53c-2.837 0-5.146-2.309-5.146-5.146v-9.725c0-1.381 1.119-2.5 2.5-2.5h16.176c1.381 0 2.5 1.119 2.5 2.5v12.37c0 1.382-1.119 2.501-2.5 2.501zm-13.676-12.37v7.225c0 .08.065.146.146.146h11.03v-7.37h-11.176z"/><path d="m175.648 188.967h-30.154c-1.381 0-2.5-1.119-2.5-2.5v-12.37c0-1.381 1.119-2.5 2.5-2.5h32.801c1.381 0 2.5 1.119 2.5 2.5v9.725c0 2.836-2.309 5.145-5.147 5.145zm-27.654-5h27.654c.081 0 .146-.065.146-.146v-7.225h-27.801v7.371z"/><path d="m178.295 176.597h-32.801c-1.381 0-2.5-1.119-2.5-2.5v-12.369c0-1.381 1.119-2.5 2.5-2.5h32.801c1.381 0 2.5 1.119 2.5 2.5v12.369c0 1.381-1.119 2.5-2.5 2.5zm-30.301-5h27.801v-7.369h-27.801z"/><path d="m178.295 164.228h-32.801c-1.381 0-2.5-1.119-2.5-2.5v-12.37c0-1.381 1.119-2.5 2.5-2.5h32.801c1.381 0 2.5 1.119 2.5 2.5v12.37c0 1.38-1.119 2.5-2.5 2.5zm-30.301-5h27.801v-7.37h-27.801z"/><path d="m178.295 151.857h-32.801c-1.381 0-2.5-1.119-2.5-2.5v-12.37c0-1.381 1.119-2.5 2.5-2.5h30.154c2.838 0 5.146 2.309 5.146 5.146v9.725c.001 1.38-1.118 2.499-2.499 2.499zm-30.301-5h27.801v-7.225c0-.08-.065-.146-.146-.146h-27.654v7.371z"/><path d="m195.881 256h-152.071c-5.279 0-9.575-4.296-9.575-9.576v-213.176c0-9.733 7.918-17.651 17.65-17.651 2.379 0 4.69.467 6.87 1.388 1.051.444 2.061.992 3.002 1.629 3.318 2.241 5.8 5.575 6.985 9.386.527 1.695.794 3.461.794 5.249 0 4.717-1.737 9.269-4.798 12.651h138.022c1.38 0 2.499 1.118 2.5 2.497l.197 198.022c.003 2.561-.993 4.967-2.803 6.776-1.808 1.809-4.214 2.805-6.773 2.805zm-143.996-235.403c-6.976 0-12.65 5.676-12.65 12.651v213.176c0 2.523 2.053 4.576 4.575 4.576h152.071c1.224 0 2.374-.476 3.238-1.34s1.339-2.014 1.338-3.235l-.194-195.525h-136.578c-1.737 0-3.298-.965-4.073-2.519-.885-1.768-.522-3.897.903-5.299 2.557-2.51 4.021-6.093 4.021-9.834 0-1.284-.191-2.551-.568-3.764-.849-2.729-2.629-5.119-5.011-6.728-.675-.457-1.397-.85-2.148-1.167-1.56-.658-3.217-.992-4.924-.992z"/><path d="m145.862 128.135h-52.157c-3.976 0-7.21-3.234-7.21-7.209 0-3.976 3.234-7.21 7.21-7.21h52.157c3.976 0 7.21 3.234 7.21 7.21 0 3.974-3.234 7.209-7.21 7.209zm-52.157-9.419c-1.219 0-2.21.991-2.21 2.21 0 1.218.991 2.209 2.21 2.209h52.157c1.219 0 2.21-.991 2.21-2.209 0-1.219-.991-2.21-2.21-2.21z"/><path d="m148.294 96.518h-55.026c-2.456 0-4.699-1.461-5.854-3.813-1.225-2.493-.968-5.357.67-7.476.198-.256.41-.496.638-.724l27.189-27.131c2.729-2.724 7.008-2.726 9.739 0l27.188 27.129c.231.23.444.474.64.728 1.637 2.117 1.894 4.98.67 7.474-1.155 2.352-3.398 3.813-5.854 3.813zm-27.513-36.195c-.473 0-.944.197-1.339.59l-27.187 27.129c-.077.077-.15.161-.218.248-.55.711-.431 1.608-.135 2.211.117.238.562 1.017 1.365 1.017h55.026c.804 0 1.248-.778 1.365-1.017.295-.602.414-1.5-.138-2.214-.001-.001-.002-.003-.003-.004-.065-.085-.138-.166-.214-.243l-27.186-27.127c-.392-.392-.864-.59-1.336-.59z"/><path d="m105.551 118.716h-9.419c-1.381 0-2.5-1.119-2.5-2.5v-22.198c0-1.381 1.119-2.5 2.5-2.5h9.419c1.381 0 2.5 1.119 2.5 2.5v22.198c0 1.381-1.119 2.5-2.5 2.5zm-6.919-5h4.419v-17.198h-4.419z"/><path d="m125.49 118.716h-9.419c-1.381 0-2.5-1.119-2.5-2.5v-22.198c0-1.381 1.119-2.5 2.5-2.5h9.419c1.381 0 2.5 1.119 2.5 2.5v22.198c0 1.381-1.119 2.5-2.5 2.5zm-6.919-5h4.419v-17.198h-4.419z"/><path d="m145.43 118.716h-9.419c-1.381 0-2.5-1.119-2.5-2.5v-22.198c0-1.381 1.119-2.5 2.5-2.5h9.419c1.381 0 2.5 1.119 2.5 2.5v22.198c0 1.381-1.119 2.5-2.5 2.5zm-6.919-5h4.419v-17.198h-4.419z"/></svg>