<svg height="512" viewBox="0 0 58 58" width="512" xmlns="http://www.w3.org/2000/svg"><g id="009---Blood-Transfusion-Ambulance" fill="none"><path id="Shape" d="m57 49v-4c0-2.7614237-2.2385763-5-5-5h-1l-2.22-5.181c-.4727285-1.1038712-1.5581655-1.8194964-2.759-1.819h-7.021l-2 16z" fill="#d1d4d1"/><path id="Shape" d="m37 24c1.1032019.0032948 1.9967052.8967981 2 2v23h-38v-23c.0032948-1.1032019.89679813-1.9967052 2-2z" fill="#ecf0f1"/><circle id="Oval" cx="29" cy="13" fill="#e64c3c" r="13"/><path id="Shape" d="m47 33.17v-3.17c0-1.1045695-.8954305-2-2-2s-2 .8954305-2 2v3z" fill="#65ddb9"/><path id="Shape" d="m51 40h-12v-7.0000003l7.021.0000003c1.2008345-.0004964 2.2862715.7151288 2.759 1.819z" fill="#67b9cc"/><path id="Shape" d="m17 34v2c0 .5522847-.4477153 1-1 1h-2v2c0 .5522847-.4477153 1-1 1h-2c-.5522847 0-1-.4477153-1-1v-2h-2c-.55228475 0-1-.4477153-1-1v-2c0-.5522847.44771525-1 1-1h2v-2c0-.5522847.4477153-1 1-1h2c.5522847 0 1 .4477153 1 1v2h2c.5522847 0 1 .4477153 1 1z" fill="#e64c3c"/><path id="Rectangle-path" d="m1 44h38v5h-38z" fill="#e64c3c"/><path id="Shape" d="m34 31v5h-10v-5c0-.5522847.4477153-1 1-1h8c.5522847 0 1 .4477153 1 1z" fill="#7f8c8d"/><path id="Rectangle-path" d="m24 36h10v13h-10z" fill="#95a5a5"/><path id="Shape" d="m29 14.5c-.5313658-1.1587522-1.8186675-1.7679676-3.0516409-1.4441887-1.2329734.3237788-2.0548676 1.486869-1.9483591 2.7571887 0 1.875 1.111 2.625 1.852 3.375s3.148 2.812 3.148 2.812 2.407-2.062 3.148-2.812 1.852-1.5 1.852-3.375c.1036234-1.2688935-.7182018-2.4292193-1.9495703-2.7525766-1.2313685-.3233574-2.5172518.2834842-3.0504297 1.4395766z" fill="#ecf0f1"/><path id="Shape" d="m31 7.047c0 1.1045695-.8954305 2-2 2s-2-.8954305-2-2c0-1.285 1.355-2.571 1.835-2.986.0950192-.0811883.2349808-.0811883.33 0 .48.415 1.835 1.701 1.835 2.986z" fill="#ecf0f1"/><path id="Shape" d="m57 49h-18v-5h17.9c.142.65.1.95.1 5z" fill="#c03a2b"/><rect id="Rectangle-path" fill="#3f5c6c" height="4" rx="1" width="58" y="49"/><g fill="#2c3e50"><circle id="Oval" cx="15" cy="53" r="5"/><circle id="Oval" cx="49" cy="53" r="5"/></g></g></svg>