<svg height="512" viewBox="0 0 52 58" width="512" xmlns="http://www.w3.org/2000/svg"><g id="005---Blood-Type-A" fill="none"><path id="Shape" d="m33.94 32-9.94 14.46c-11.144 5.18-24-3.16-24-15.82 0-11.28 13.21-26.82 16.34-30.34.1663559-.19061609.4070005-.3.66-.3s.4936441.10938391.66.3c6.661 7.492 17.172 21.659 16.28 31.7z" fill="#c03a2b"/><path id="Shape" d="m33.94 32-1.95 2.84c-9.8689296 5.9472646-22.32168059 5.4920112-31.73-1.16-.17302867-1.0040868-.26001123-2.0211137-.26-3.04 0-11.28 13.21-26.82 16.34-30.34.1663559-.19061609.4070005-.3.66-.3s.4936441.10938391.66.3c6.661 7.492 17.172 21.659 16.28 31.7z" fill="#e64c3c"/><path id="Shape" d="m10.164 43c-.19033987.0001608-.37672388-.0543313-.537-.157-1.35747032-.8662077-2.5573267-1.9575088-3.548-3.227-.22858139-.2806522-.28766028-.662918-.15446916-.9994818.13319112-.3365639.43785847-.5748814.79659094-.6231112.35873247-.0482297.7155248.1011581.93287822.390593.85082133 1.0902984 1.88083299 2.0279945 3.046 2.773.3743117.2388444.5463025.6959042.4223049 1.1222615-.1239975.4263572-.5142833.7198901-.9583049.7207385z" fill="#fb7b76"/><path id="Shape" d="m4.021 31c-.27613177.0005143-.54018586-.1131743-.72957889-.3141203s-.28726566-.4712617-.27042111-.7468797c.353-5.758 5.289-14.939 13.207-24.574.3555038-.40823645.9713116-.45946625 1.389385-.11558463s.4866024.95800503.154615 1.38558463c-7.659 9.316-12.427 18.073-12.754 23.426-.03221725.5271738-.46884306.9383991-.997.939z" fill="#fb7b76"/><rect id="Rectangle-path" fill="#f0c419" height="26" rx="3" width="28" x="24" y="32"/><circle id="Oval" cx="5" cy="35" fill="#fb7b76" r="1"/><g fill="#ecf0f1"><path id="Shape" d="m46 54c-.3877424.0004949-.7408219-.2232-.906-.574l-7.094-15.077-7.095 15.077c-.1521951.3233254-.4653213.5408952-.8214268.570753-.3561056.0298578-.7010896-.1325325-.905-.426s-.2357683-.6734276-.0835732-.996753l8-17c.1648538-.350702.517484-.5745884.905-.5745884s.7401462.2238864.905.5745884l8 17c.145877.3098083.1230862.6727168-.060404.9618407-.1834903.2891239-.5021617.4642541-.844596.4641593z"/><path id="Shape" d="m42.71 47h-9.42c-.5522847 0-1-.4477153-1-1s.4477153-1 1-1h9.42c.5522847 0 1 .4477153 1 1s-.4477153 1-1 1z"/></g></g></svg>