<svg height="512" viewBox="0 0 58 58" width="512" xmlns="http://www.w3.org/2000/svg"><g id="025---Hospital-Blood-Order" fill="none"><path id="Shape" d="m32 40h-30c-1.10320187-.0032948-1.9967052-.8967981-2-2v-36c.0032948-1.10320187.89679813-1.9967052 2-2h36c1.1032019.0032948 1.9967052.89679813 2 2v18z" fill="#3b97d3"/><path id="Shape" d="m36 20v-15c0-.55228475-.4477153-1-1-1h-30c-.55228475 0-1 .44771525-1 1v30c0 .5522847.44771525 1 1 1h27z" fill="#fff"/><path id="Shape" d="m28 11v18c0 .5522847-.4477153 1-1 1h-3c-.5522847 0-1-.4477153-1-1v-7h-6v7c0 .5522847-.4477153 1-1 1h-3c-.5522847 0-1-.4477153-1-1v-18c0-.5522847.4477153-1 1-1h3c.5522847 0 1 .4477153 1 1v7h6v-7c0-.5522847.4477153-1 1-1h3c.5522847 0 1 .4477153 1 1z" fill="#3b97d3"/><rect id="Rectangle-path" fill="#ecf0f1" height="38" rx="1" width="26" x="32" y="20"/><path id="Shape" d="m40 42.047c0 1.1045695-.8954305 2-2 2s-2-.8954305-2-2c0-1.285 1.355-2.571 1.835-2.986.0950192-.0811883.2349808-.0811883.33 0 .48.415 1.835 1.701 1.835 2.986z" fill="#e64c3c"/><path id="Shape" d="m40 51.047c0 1.1045695-.8954305 2-2 2s-2-.8954305-2-2c0-1.285 1.355-2.571 1.835-2.986.0950192-.0811883.2349808-.0811883.33 0 .48.415 1.835 1.701 1.835 2.986z" fill="#e64c3c"/><path id="Shape" d="m50 28v2c0 .5522847-.4477153 1-1 1h-2v2c0 .5522847-.4477153 1-1 1h-2c-.5522847 0-1-.4477153-1-1v-2h-2c-.5522847 0-1-.4477153-1-1v-2c0-.5522847.4477153-1 1-1h2v-2c0-.5522847.4477153-1 1-1h2c.5522847 0 1 .4477153 1 1v2h2c.5522847 0 1 .4477153 1 1z" fill="#e64c3c"/><g fill="#3f5c6c"><path id="Shape" d="m54 41h-10c-.5522847 0-1-.4477153-1-1s.4477153-1 1-1h10c.5522847 0 1 .4477153 1 1s-.4477153 1-1 1z"/><path id="Shape" d="m47 45h-3c-.5522847 0-1-.4477153-1-1s.4477153-1 1-1h3c.5522847 0 1 .4477153 1 1s-.4477153 1-1 1z"/><path id="Shape" d="m54 50h-10c-.5522847 0-1-.4477153-1-1s.4477153-1 1-1h10c.5522847 0 1 .4477153 1 1s-.4477153 1-1 1z"/><path id="Shape" d="m47 54h-3c-.5522847 0-1-.4477153-1-1s.4477153-1 1-1h3c.5522847 0 1 .4477153 1 1s-.4477153 1-1 1z"/></g></g></svg>