<svg height="512" viewBox="0 0 58 58" width="512" xmlns="http://www.w3.org/2000/svg"><g id="022---Mobile-Donation-Unit" fill="none"><path id="Shape" d="m58 39-15 1 1-5h11c1.6568542 0 3 1.3431458 3 3z" fill="#e64c3c"/><path id="Shape" d="m58 39v14c-.0032948 1.1032019-.8967981 1.9967052-2 2h-14l2-16z" fill="#ecf0f1"/><path id="Shape" d="m46 35v4h-2c-2.73 21.837-2.609 22.092 0-4z" fill="#c03a2b"/><path id="Shape" d="m46 39v16h-4l2-16z" fill="#d1d4d1"/><path id="Shape" d="m44 33v22h-42c-1.10320187-.0032948-1.9967052-.8967981-2-2v-20c.0032948-1.1032019.89679813-1.9967052 2-2h40c1.1032019.0032948 1.9967052.8967981 2 2z" fill="#ecf0f1"/><g fill="#35495e"><circle id="Oval" cx="9" cy="55" r="3"/><circle id="Oval" cx="19" cy="55" r="3"/><circle id="Oval" cx="51" cy="55" r="3"/></g><path id="Shape" d="m53 49h-2c-.5522847 0-1-.4477153-1-1s.4477153-1 1-1h2c.5522847 0 1 .4477153 1 1s-.4477153 1-1 1z" fill="#e64c3c"/><rect id="Rectangle-path" fill="#95a5a5" height="14" rx="1" width="6" x="33" y="36"/><rect id="Rectangle-path" fill="#2fa8cc" height="6" rx="1" width="8" x="16" y="36"/><rect id="Rectangle-path" fill="#2fa8cc" height="6" rx="1" width="8" x="4" y="36"/><path id="Shape" d="m30 48c0 .5522847-.4477153 1-1 1h-29v-2h29c.5522847 0 1 .4477153 1 1z" fill="#e64c3c"/><path id="Shape" d="m58 39v6l-5.28-.75c-.9842719-.1435008-1.7155598-.9853323-1.72-1.98v-3.27z" fill="#2fa8cc"/><circle id="Oval" cx="29" cy="16.5" fill="#35495e" r="16.5"/><path id="Shape" d="m45.5 16.5c0 9.1126984-7.3873016 16.5-16.5 16.5v-33c9.1126984 0 16.5 7.38730163 16.5 16.5z" fill="#2c3e50"/><path id="Shape" d="m29 17.333c-.7532567-1.4306486-2.2351736-2.3281855-3.852-2.333-2.37 0-4.148 1.458-4.148 4.375s1.776 4.081 2.961 5.247 5.039 4.378 5.039 4.378 3.853-3.206 5.039-4.372 2.961-2.336 2.961-5.253c0-5.35-6.235-5.516-8-2.042z" fill="#ecf0f1"/><path id="Shape" d="m31.857 8.876c.0949126 1.08056333-.4279256 2.122217-1.3510865 2.6917777-.923161.5695607-2.088666.5695607-3.011827 0-.9231609-.5695607-1.4459991-1.61121437-1.3510865-2.6917777 0-2.058 1.936-4.115 2.621-4.778.0624925-.06277659.1474212-.09806809.236-.09806809s.1735075.0352915.236.09806809c.685.663 2.621 2.72 2.621 4.778z" fill="#e64c3c"/><path id="Shape" d="m36.64 21.42c-.60536 1.2570003-1.4956191 2.3554431-2.6 3.208-1.191 1.159-5.04 4.372-5.04 4.372s-3.849-3.208-5.039-4.378c-1.1065183-.8470899-1.9973593-1.9435096-2.6-3.2.7632926-.3020433 1.5793218-.4482485 2.4-.43 2.61 0 2.61 1.01 5.23 1.01s2.62-1.01 5.24-1.01c.8235218-.0196028 1.6426296.1259257 2.409.428z" fill="#e64c3c"/></g></svg>