<svg height="512" viewBox="0 0 60 60" width="512" xmlns="http://www.w3.org/2000/svg"><g id="037---No-Medication-Pre-Donation" fill="none"><path id="Shape" d="m18 23h24v27c0 1.1045695-.8954305 2-2 2h-20c-1.1045695 0-2-.8954305-2-2z" fill="#955ba5"/><path id="Rectangle-path" d="m18 30h24v14h-24z" fill="#ecf0f1"/><path id="Shape" d="m38 36h-16c-.5522847 0-1-.4477153-1-1s.4477153-1 1-1h16c.5522847 0 1 .4477153 1 1s-.4477153 1-1 1z" fill="#3f5c6c"/><path id="Shape" d="m34 40h-8c-.5522847 0-1-.4477153-1-1s.4477153-1 1-1h8c.5522847 0 1 .4477153 1 1s-.4477153 1-1 1z" fill="#3f5c6c"/><path id="Shape" d="m24 9h12c1.1045695 0 2 .8954305 2 2v4h-16v-4c0-1.1045695.8954305-2 2-2z" fill="#2c3e50"/><rect id="Rectangle-path" fill="#35495e" height="10" rx="1" width="28" x="16" y="14"/><g fill="#2c3e50"><path id="Shape" d="m25 18v6h-2v-6c0-.5522847.4477153-1 1-1s1 .4477153 1 1z"/><path id="Shape" d="m21 18v6h-2v-6c0-.5522847.4477153-1 1-1s1 .4477153 1 1z"/><path id="Shape" d="m29 18v6h-2v-6c0-.5522847.4477153-1 1-1s1 .4477153 1 1z"/><path id="Shape" d="m33 18v6h-2v-6c0-.5522847.4477153-1 1-1s1 .4477153 1 1z"/><path id="Shape" d="m37 18v6h-2v-6c0-.5522847.4477153-1 1-1s1 .4477153 1 1z"/><path id="Shape" d="m41 18v6h-2v-6c0-.5522847.4477153-1 1-1s1 .4477153 1 1z"/></g><path id="Shape" d="m30 60c-16.5685425 0-30-13.4314575-30-30s13.4314575-30 30-30 30 13.4314575 30 30c-.018737 16.5607751-13.4392249 29.981263-30 30zm0-58c-15.463973 0-28 12.536027-28 28s12.536027 28 28 28 28-12.536027 28-28c-.0176345-15.4566626-12.5433374-27.98236546-28-28z" fill="#e64c3c"/><path id="Shape" d="m50.5 51.5c-.644 0 2.071 2.485-41.718-41.3-.25240814-.2533013-.35050824-.6220195-.25734695-.96726201.0931613-.34524251.36343057-.61455879.709-.7065.34556944-.09194121.71393881.00746071.96634695.26076201l41.011 41.013c.2814534.2871359.3635636.7149153.2084243 1.085853-.1551393.3709378-.5173529.6128853-.9194243.614147z" fill="#e64c3c"/></g></svg>