<svg height="512" viewBox="0 0 60 59" width="512" xmlns="http://www.w3.org/2000/svg"><g id="004---Blood-Motorbike" fill="none"><circle id="Oval" cx="30" cy="12" fill="#f0c419" r="12"/><path id="Shape" d="m56.82 45.82c2.0473304 3.3323441 1.3851907 7.656443-1.5654947 10.2234519-2.9506855 2.5670089-7.3248113 2.6243118-10.3417304.1354812-3.0169191-2.4888307-3.7921074-6.7941-1.8327749-10.1789331z" fill="#35495e"/><circle id="Oval" cx="50" cy="50" fill="#95a5a5" r="4"/><path id="Shape" d="m15.89 45.93c2.0492637 3.4697358 1.1979145 7.9220752-1.9869002 10.3909825s-7.70883184 2.1836175-10.55826583-.6658165c-2.84943399-2.849434-3.13472373-7.3734511-.66581643-10.5582658s6.92124665-4.0361639 10.39098246-1.9869002z" fill="#35495e"/><path id="Shape" d="m22 40-9.14 8.96c.4719108 1.7491601-.2907405 3.5970996-1.8589404 4.5042986-1.56819987.907199-3.55033821.6471123-4.83140434-.6339539-1.28106614-1.2810661-1.5411529-3.2632044-.63395389-4.8314043.90719902-1.5681999 2.75513853-2.3308512 4.50429863-1.8589404l7.3-7.3z" fill="#95a5a5"/><path id="Shape" d="m11 28c-.3081903.0003001-.5993028-.141522-.789027-.3843924s-.25686341-.5596548-.181973-.8586076l2-8c.0847423-.348821.3499483-.6254598.6948844-.7248402.344936-.0993804.7166761-.0062538.9740215.2440075.2573454.2502612.3608098.6192576.2710941.9668327l-2 8c-.1113683.4445697-.5106935.7565296-.969.757z" fill="#3f5c6c"/><path id="Shape" d="m36 13.752c0 3.3137085-2.6862915 6-6 6s-6-2.6862915-6-6c0-4.115 4.066-8.23 5.5-9.557.2794983-.26015136.7125017-.26015136.992 0 1.442 1.327 5.508 5.442 5.508 9.557z" fill="#e64c3c"/><path id="Shape" d="m28.338 16c-.3526614.0003577-.6794375-.1850687-.86-.488-1.251-2.1.235-4.683 1.734-6.6.3450468-.41675814.958988-.48349197 1.3855197-.15060244.4265316.33288953.5109358.94465184.1904803 1.38060244-.823 1.054-2.281 3.194-1.591 4.348.1831547.3089111.1865991.6923131.009024 1.004465-.1775752.3121518-.5088979.5051134-.868024.505535z" fill="#fb7b76"/><path id="Shape" d="m58 30h-12c-1.6568542 0-3 1.3431458-3 3v2h-10v-1c0-1.6568542-1.3431458-3-3-3h-12v-3c0-.5522847-.4477153-1-1-1h-6c-3.3137085 0-6 2.6862915-6 6v3c.0032948 1.1032019.89679813 1.9967052 2 2h7c3.8659932 0 7 3.1340068 7 7v3c0 2.7614237 2.2385763 5 5 5h8c2.209139 0 4-1.790861 4-4v-1c.0032948-1.1032019.8967981-1.9967052 2-2h16c1.1032019-.0032948 1.9967052-.8967981 2-2v-9c.8167899-1.1636676 1.1730887-2.5888628 1-4 0-.5522847-.4477153-1-1-1z" fill="#f0c419"/><path id="Shape" d="m43 35v2c0 1.6568542-1.3431458 3-3 3h-4c-1.6568542 0-3-1.3431458-3-3v-2z" fill="#35495e"/><path id="Shape" d="m59 31c.1797455 1.4115392-.1771473 2.8391104-1 4-.942293 1.261398-2.4255058 2.0030044-4 2l-11 .0000091v-4.0000091c0-1.6568542 1.3431458-3 3-3h12c.5522847 0 1 .4477153 1 1z" fill="#e64c3c"/><g fill="#f0c419"><path id="Shape" d="m58 35v9c-.0032948 1.1032019-.8967981 1.9967052-2 2h-11c-1.1032019-.0032948-1.9967052-.8967981-2-2v-7h11c1.5744942.0030044 3.057707-.738602 4-2z"/><path id="Shape" d="m36 40h-11c-1.1032019-.0032948-1.9967052-.8967981-2-2v-1c-.0032948-1.1032019-.8967981-1.9967052-2-2h-1c-1.1032019-.0032948-1.9967052-.8967981-2-2v-2h12c1.6568542 0 3 1.3431458 3 3v3c0 1.6568542 1.3431458 3 3 3z"/><path id="Shape" d="m25 40h-2c-1.1032019.0032948-1.9967052.8967981-2 2v3c0-3.8659932-3.1340068-7-7-7h-7c-1.10320187-.0032948-1.9967052-.8967981-2-2v-3h13c.0032948 1.1032019.8967981 1.9967052 2 2h1c1.1032019.0032948 1.9967052.8967981 2 2v1c.0032948 1.1032019.8967981 1.9967052 2 2z"/></g><path id="Shape" d="m45 46h-5c-1.1032019.0032948-1.9967052.8967981-2 2v1c0 2.209139-1.790861 4-4 4h-8c-2.7614237 0-5-2.2385763-5-5v-6c.0032948-1.1032019.8967981-1.9967052 2-2h17c1.6568542 0 3-1.3431458 3-3v7c.0032948 1.1032019.8967981 1.9967052 2 2z" fill="#c03a2b"/><path id="Shape" d="m17 33h-12c0-3.3137085 2.6862915-6 6-6h6c.5522847 0 1 .4477153 1 1v4c0 .5522847-.4477153 1-1 1z" fill="#e64c3c"/><path id="Shape" d="m59 59h-58c-.55228475 0-1-.4477153-1-1s.44771525-1 1-1h58c.5522847 0 1 .4477153 1 1s-.4477153 1-1 1z" fill="#547580"/><path id="Shape" d="m48 43h-1c-.5522847 0-1-.4477153-1-1s.4477153-1 1-1h1c.5522847 0 1 .4477153 1 1s-.4477153 1-1 1z" fill="#e64c3c"/><path id="Shape" d="m53 43h-1c-.5522847 0-1-.4477153-1-1s.4477153-1 1-1h1c.5522847 0 1 .4477153 1 1s-.4477153 1-1 1z" fill="#e64c3c"/><path id="Shape" d="m58 41v2h-1c-.5522847 0-1-.4477153-1-1s.4477153-1 1-1z" fill="#e64c3c"/></g></svg>