<svg height="512" viewBox="0 0 59 59" width="512" xmlns="http://www.w3.org/2000/svg"><g id="016---Research-Blood" fill="none"><path id="Rectangle-path" d="m1.95 3.949h7.998v4.001h-7.998z" fill="#3f5c6c" transform="matrix(.707 .707 -.707 .707 5.95 -2.464)"/><path id="Shape" d="m23.923 21.09 1.491 1.493c.5066026.5058881.7048346 1.2436172.520024 1.935292-.1848106.6916747-.7245867 1.2322133-1.416 1.418-.6914132.1857867-1.4294214-.0114039-1.936024-.517292l-1.492-1.493z" fill="#2fa8cc"/><path id="Shape" d="m11.33 15.58-3.97-3.97c-.38986145-.392666-.38986145-1.026334 0-1.419l2.829-2.829c.392666-.38986145 1.026334-.38986145 1.419 0l13.012 13.018-4.24 4.24-3.33-3.33c-2.2901429 3.3893658-2.6960209 7.7118575-1.0768633 11.4683032 1.6191576 3.7564456 5.0402972 6.4293607 9.0768633 7.0916968.21.032 1.74.14 1.95.15l-6.2 7.01c-6.2163572-2.0362017-11.04526625-6.9818653-12.93240267-13.2450858s-.59428868-13.0533969 3.46240267-18.1849142z" fill="#bdc3c7"/><path id="Shape" d="m1 6.243c-.4043959-.00008635-.76893405-.2437275-.92367798-.61734544s-.06922994-.80366031.21667798-1.08965456l4.242-4.243c.39237889-.37897221 1.01608478-.37355237 1.40181858.01218143.38573379.38573379.39115363 1.00943968.01218142 1.40181857l-4.242 4.243c-.18749273.18754937-.44180519.29294336-.707.293z" fill="#547580"/><path id="Shape" d="m19.114 26.886c-.4043959-.0000863-.7689341-.2437275-.923678-.6173454-.1547439-.373618-.0692299-.8036603.216678-1.0896546l6.772-6.772c.3923789-.3789722 1.0160848-.3735524 1.4018186.0121814s.3911536 1.0094397.0121814 1.4018186l-6.772 6.772c-.1874927.1875494-.4418052.2929434-.707.293z" fill="#547580"/><path id="Shape" d="m26 40v-7h4v5.472z" fill="#3f5c6c"/><path id="Shape" d="m31.26 39.22c.35-.14.7-.29 1.03-.45.9889283-.4747063 2.1756742-.0642529 2.66.92l1.76 3.61c.4811101.9727862.0940796 2.1516723-.87 2.65-1.2269911.6059199-2.5139927 1.0818424-3.84 1.42z" fill="#bdc3c7"/><path id="Shape" d="m32 56v-14.724c-.0039029-1.4330064-.9379069-2.6974883-2.3064356-3.12252-1.3685286-.4250316-2.8545392.0878527-3.6695644 1.26652l-10.024 14.58z" fill="#2fa8cc"/><circle id="Oval" cx="28" cy="44" fill="#3f5c6c" r="1"/><path id="Shape" d="m36 59h-24c-.3316373-.0002099-.6415976-.1648211-.8274939-.4394589-.1858964-.2746378-.2235436-.6235717-.1005061-.9315411l1.2-3c.1516748-.3796505.5191728-.6287412.928-.629h21.6c.4088272.0002588.7763252.2493495.928.629l1.2 3c.1230375.3079694.0853903.6569033-.1005061.9315411-.1858963.2746378-.4958566.439249-.8274939.4394589z" fill="#67b9cc"/><path id="Shape" d="m41.99 30.86c.027.109.01.8.01 2.14 0 .5522847-.4477153 1-1 1h-16c-.5522847 0-1-.4477153-1-1v-2c0-.5522847.4477153-1 1-1h13.61z" fill="#95a5a5"/><circle id="Oval" cx="44" cy="16" fill="#35495e" r="15"/><path id="Shape" d="m59 16c-.0027597 8.2831279-6.7168721 14.9972403-15 15v-30c8.2831279.00275966 14.9972403 6.71687211 15 15z" fill="#2c3e50"/><path id="Shape" d="m52 18.409c0 4.744-3.582 8.591-8 8.591s-8-3.847-8-8.591c0-5.658 5.421-11.316 7.338-13.14.3682302-.35923729.9557698-.35923729 1.324 0 1.917 1.824 7.338 7.482 7.338 13.14z" fill="#c03a2b"/><path id="Shape" d="m50.909 16.58c.1361103 3.9549777-2.9543736 7.2740384-6.909 7.42-3.9546264-.1459616-7.0451103-3.4650223-6.909-7.42 0-4.886 4.682-9.773 6.337-11.348.3187845-.30888149.8252155-.30888149 1.144 0 1.655 1.575 6.337 6.462 6.337 11.348z" fill="#e64c3c"/><g fill="#fb7b76"><path id="Shape" d="m40.248 21c-.4337461-.0003078-.81784-.2801996-.951-.693-1.164-3.6 1.5-7.7 3.942-10.572.2322226-.27187914.591851-.39921652.9434165-.33404538.3515656.06517114.6416572.31294975.7610001.64999998.1193429.3370503.0498061.7121663-.1824166.9840454-1.886 2.214-4.454 5.883-3.562 8.661.0969405.3037896.0431846.6355978-.1447132.893241s-.4874055.410226-.8062868.410759z"/><circle id="Oval" cx="43" cy="23" r="1"/></g></g></svg>