<svg height="512" viewBox="0 0 58 58" width="512" xmlns="http://www.w3.org/2000/svg"><g id="027---Blood-Loss" fill="none"><path id="Shape" d="m58 12.5c.001866.6636115-.2609269 1.300581-.7301729 1.7698271-.4692461.469246-1.1062156.7320389-1.7698271.7301729h-2c1.3807119 0 2.5 1.1192881 2.5 2.5s-1.1192881 2.5-2.5 2.5h-2c1.3807119 0 2.5 1.1192881 2.5 2.5s-1.1192881 2.5-2.5 2.5h-22.14c-2.0735908-.0556634-4.0954584-.6594635-5.86-1.75-14.975-1.5-10.14-1.25-21.5-1.25-1.10320187-.0032948-1.9967052-.8967981-2-2v-12c.0032948-1.10320187.89679813-1.9967052 2-2h16.1c1.8565667.00013395 3.6371421-.73727608 4.95-2.05l1.9-1.9c1.3128579-1.31272392 3.0934333-2.05013395 4.95-2.05h6.1c1.8238506-.00147026 3.416779 1.23335796 3.87 3 .1392078.65695702.1829914 1.33055003.13 2h14.5c1.3807119 0 2.5 1.11928813 2.5 2.5s-1.1192881 2.5-2.5 2.5h1c1.3807119 0 2.5 1.1192881 2.5 2.5z" fill="#fdd7ad"/><g fill="#f9c795"><path id="Shape" d="m56.95 8c-.2347981 1.16587776-1.2607188 2.0033641-2.45 2h-15.5c-.5522847 0-1-.44771525-1-1s.4477153-1 1-1z"/><path id="Shape" d="m40 5h-7c-.5522847 0-1-.44771525-1-1s.4477153-1 1-1h6.87c.1392078.65695702.1829914 1.33055003.13 2z"/><path id="Shape" d="m57.95 13c-.2347981 1.1658778-1.2607188 2.0033641-2.45 2h-16.5c-.5522847 0-1-.4477153-1-1s.4477153-1 1-1z"/><path id="Shape" d="m55.95 18c-.2347981 1.1658778-1.2607188 2.0033641-2.45 2h-14.5c-.5522847 0-1-.4477153-1-1s.4477153-1 1-1z"/></g><path id="Shape" d="m19.26 16.85c2.6144843-.3623501 5.1457418-1.1779023 7.48-2.41.1617116-.0872827.2625132-.2562368.2625132-.44s-.1008016-.3527173-.2625132-.44c-6.0488009-3.397939-13.4311991-3.397939-19.48 0-.1617116.0872827-.26251316.2562368-.26251316.44s.10080156.3527173.26251316.44c2.33425817 1.2320977 4.8655157 2.0476499 7.48 2.41z" fill="#c03a2b"/><path id="Shape" d="m24 25.971c0 2.5008592-1.3341924 4.8117483-3.5 6.0621779-2.1658075 1.2504296-4.8341925 1.2504296-7 0-2.1658076-1.2504296-3.50000004-3.5613187-3.5-6.0621779 0-4.63 4.743-9.259 6.421-10.751.3304573-.2928444.8275427-.2928444 1.158 0 1.678 1.492 6.421 6.121 6.421 10.751z" fill="#c03a2b"/><path id="Shape" d="m22.833 24.142c0 3.2214769-2.6115231 5.833-5.833 5.833s-5.833-2.6115231-5.833-5.833c0-3.857 3.952-7.715 5.35-8.959.275793-.243956.690207-.243956.966 0 1.398 1.244 5.35 5.102 5.35 8.959z" fill="#e64c3c"/><path id="Shape" d="m14 27c-.5522847 0-1-.4477153-1-1 0-2.462 2.028-5.221 3.237-6.647.2311508-.2725936.59017-.4011631.9418184-.3372774.3516485.0638857.6425024.3105207.763.647s.0523324.7116838-.1788184.9842774c-1.73 2.04-2.763 4.041-2.763 5.353 0 .5522847-.4477153 1-1 1z" fill="#fb7b76"/><circle id="Oval" cx="16" cy="29" fill="#fb7b76" r="1"/><path id="Shape" d="m20 50.971c0 3.8659932-3.1340068 7-7 7-3.86599325 0-7-3.1340068-7-7 0-4.63 4.743-9.259 6.421-10.751.3304573-.2928444.8275427-.2928444 1.158 0 1.678 1.492 6.421 6.121 6.421 10.751z" fill="#c03a2b"/><path id="Shape" d="m18.833 49.142c0 3.2214769-2.6115231 5.833-5.833 5.833-3.22147695 0-5.833-2.6115231-5.833-5.833 0-3.857 3.952-7.715 5.35-8.959.275793-.243956.690207-.243956.966 0 1.398 1.244 5.35 5.102 5.35 8.959z" fill="#e64c3c"/><path id="Shape" d="m27 40.876c0 1.0717968-.5717967 2.0621779-1.5 2.5980763-.9282032.5358984-2.0717968.5358984-3 0-.9282033-.5358984-1.5-1.5262795-1.5-2.5980763 0-2.058 2.033-4.115 2.752-4.778.1398981-.1335879.3601019-.1335879.5 0 .715.663 2.748 2.72 2.748 4.778z" fill="#c03a2b"/><path id="Shape" d="m26.25 39.657c.0348551.8264776-.3862063 1.6055373-1.0967117 2.0291671s-1.5960712.4236298-2.3065766 0-1.1315668-1.2026895-1.0967117-2.0291671c0-1.543 1.525-3.086 2.064-3.584.1050023-.0970714.2669977-.0970714.372 0 .539.498 2.064 2.041 2.064 3.584z" fill="#e64c3c"/><path id="Shape" d="m10 52c-.55228475 0-1-.4477153-1-1 0-2.462 2.028-5.221 3.237-6.647.3573282-.4213932.9886067-.4733282 1.41-.116.4213932.3573282.4733282.9886067.116 1.41-1.73 2.04-2.763 4.041-2.763 5.353 0 .5522847-.4477153 1-1 1z" fill="#fb7b76"/><circle id="Oval" cx="12" cy="54" fill="#fb7b76" r="1"/></g></svg>