<svg id="Layer_2" enable-background="new 0 0 64 64" height="512" viewBox="0 0 64 64" width="512" xmlns="http://www.w3.org/2000/svg"><path d="m2 2h60v60h-60z" fill="#6e83b7"/><path d="m12 8h40v32h-40z" fill="#466089"/><path d="m14 10h36v28h-36z" fill="#80d6fb"/><circle cx="57" cy="12" fill="#edeff1" r="3"/><circle cx="57" cy="12" fill="#d3d3d3" r="2"/><circle cx="57" cy="20" fill="#edeff1" r="3"/><circle cx="57" cy="20" fill="#d3d3d3" r="2"/><circle cx="57" cy="28" fill="#edeff1" r="3"/><circle cx="57" cy="28" fill="#d3d3d3" r="2"/><circle cx="57" cy="36" fill="#edeff1" r="3"/><circle cx="57" cy="36" fill="#d3d3d3" r="2"/><circle cx="7" cy="12" fill="#edeff1" r="3"/><circle cx="7" cy="12" fill="#d3d3d3" r="2"/><circle cx="7" cy="20" fill="#edeff1" r="3"/><circle cx="7" cy="20" fill="#d3d3d3" r="2"/><circle cx="7" cy="28" fill="#edeff1" r="3"/><circle cx="7" cy="28" fill="#d3d3d3" r="2"/><circle cx="7" cy="36" fill="#edeff1" r="3"/><circle cx="7" cy="36" fill="#d3d3d3" r="2"/><path d="m5 45h54v4h-54z" fill="#466089"/><path d="m7 47h50v13h-50z" fill="#98ca69"/><path d="m40 47c0 4.42-3.58 8-8 8s-8-3.58-8-8z" fill="#75aa40"/><path d="m53.5 47v4.79c-2.25.67-4.04 2.46-4.71 4.71h-33.58c-.67-2.25-2.46-4.04-4.71-4.71v-4.79h-2v6.5c2.76 0 5 2.24 5 5h37c0-2.76 2.24-5 5-5v-6.5z" fill="#75aa40"/><path d="m36 49c0 1.65-1.35 3-3 3v1h-2v-1c-1.65 0-3-1.35-3-3h2c0 .55.45 1 1 1h2c.55 0 1-.45 1-1s-.45-1-1-1h-2c-.88 0-1.68-.39-2.23-1h6.46c.48.53.77 1.24.77 2z" fill="#98ca69"/><path d="m8 60h48v2h-48z" fill="#98ca69"/><path d="m8 60h48v1h-48z" fill="#75aa40"/></svg>