<svg id="Layer_2" enable-background="new 0 0 64 64" height="512" viewBox="0 0 64 64" width="512" xmlns="http://www.w3.org/2000/svg"><path d="m42.676 41.948-10.676-2.965h-6-6l-10.676 2.965c-4.329 1.203-7.324 5.144-7.324 9.636v10.416h24 24v-10.416c0-4.492-2.995-8.433-7.324-9.636z" fill="#edeff1"/><g fill="#d3d3d3"><path d="m10 56h2v6h-2z"/><path d="m40 56h2v6h-2z"/><path d="m32 38.983h-6-6l-1.973.548c.275 4.163 3.741 7.469 7.973 7.469s7.698-3.306 7.973-7.469z"/></g><path d="m32 31.983h-12v7l.001.001c0 .005-.001.01-.001.016 0 3.314 2.686 6 6 6s6-2.686 6-6c0-.006-.001-.011-.001-.017h.001z" fill="#fcb98b"/><path d="m38 13.983v10.017c0 6.627-5.373 12-12 12-6.627 0-12-5.373-12-12v-10.017z" fill="#ffd3b3"/><path d="m38 17h.693c1.217 0 2.152 1.078 1.98 2.284l-.427 2.983c-.141.985-.985 1.716-1.98 1.716h-.266z" fill="#ffd3b3"/><path d="m14 17h-.693c-1.217 0-2.152 1.078-1.98 2.284l.427 2.983c.141.985.985 1.716 1.98 1.716h.266z" fill="#ffd3b3"/><path d="m38 23.983-2-8h-10-10l-2 8v-11.983c0-5.523 4.477-10 10-10h5c2.209 0 4 1.791 4 4 2.761 0 5 2.239 5 5z" fill="#6e83b7"/><path d="m24 36.983h28v16h-28z" fill="#98ca69"/><circle cx="38" cy="44.983" fill="#75aa40" r="5"/><path d="m38.65 44.483h-1.3c-.441 0-.8-.359-.8-.8s.358-.8.8-.8h1.301c.441 0 .8.359.8.8h1c0-.992-.808-1.8-1.8-1.8h-.151v-.8h-1v.8h-.15c-.992 0-1.8.808-1.8 1.8 0 .993.808 1.8 1.8 1.8h1.301c.441 0 .8.359.8.8s-.358.8-.8.8h-1.301c-.441 0-.8-.359-.8-.8h-1c0 .993.808 1.8 1.8 1.8h.15v.8h1v-.8h.15c.992 0 1.8-.808 1.8-1.8s-.807-1.8-1.8-1.8z" fill="#98ca69"/><path d="m48.171 38.983c.302.851.977 1.527 1.829 1.829v8.343c-.851.302-1.527.977-1.829 1.829h-20.342c-.302-.851-.977-1.527-1.829-1.829v-8.343c.851-.302 1.527-.977 1.829-1.829zm.829-1h-22c0 1.1-.9 2-2 2v10c1.1 0 2 .9 2 2h22c0-1.1.9-2 2-2v-10c-1.1 0-2-.9-2-2z" fill="#75aa40"/><path d="m54 61 2-.009v-12.991h-2z" fill="#edeff1"/><path d="m55 60.991 1 .009v-13h-1z" fill="#d3d3d3"/><path d="m56 47h6v15h-6z" fill="#80d6fb"/><path d="m58.367 48.945c-.946 1.241.458 2.645 1.699 1.699.946-1.241-.458-2.644-1.699-1.699z" fill="#ffe352"/><path d="m52.123 49c-1.124-1.792-3.219-3-5.623-3s-4.499 1.208-5.623 3h-6.877c-1.105 0-2 .895-2 2s.895 2 2 2h-2l-9.438-6.006c-.882-.561-2.047-.349-2.674.487l-1.275 1.7c-.337.449-.238 1.087.219 1.414l12.646 9.033c.34.242.746.372 1.163.372h21.359v-7-4z" fill="#ffd3b3"/><path d="m32.277 52c.346.595.984 1 1.723 1h7v-1z" fill="#fcb98b"/></svg>