<svg id="Layer_2" enable-background="new 0 0 64 64" height="512" viewBox="0 0 64 64" width="512" xmlns="http://www.w3.org/2000/svg"><g fill="#6e83b7"><path d="m40 19h-2v-4c0-6.065-4.935-11-11-11h-2c-6.065 0-11 4.935-11 11v4h-2v-4c0-7.168 5.832-13 13-13h2c7.168 0 13 5.832 13 13z"/><path d="m41 28h-4v-10h4c1.105 0 2 .895 2 2v6c0 1.105-.895 2-2 2z"/><path d="m11 28h4v-10h-4c-1.105 0-2 .895-2 2v6c0 1.105.895 2 2 2z"/></g><path d="m42.676 44.948-10.676-2.965h-6-6l-10.676 2.965c-4.329 1.203-7.324 5.144-7.324 9.636v7.416h24 24v-7.416c0-4.492-2.995-8.433-7.324-9.636z" fill="#edeff1"/><path d="m10 58h2v4h-2z" fill="#d3d3d3"/><path d="m40 58h2v4h-2z" fill="#d3d3d3"/><path d="m32 34.983h-12v7l.001.001c0 .005-.001.01-.001.016 0 3.314 2.686 6 6 6s6-2.686 6-6c0-.006-.001-.011-.001-.017h.001z" fill="#fcb98b"/><path d="m38 16.983v10.017c0 6.627-5.373 12-12 12-6.627 0-12-5.373-12-12v-10.017z" fill="#ffd3b3"/><path d="m38 26.983-2-8h-20l-2 8v-11.983c0-5.523 4.477-10 10-10h5c2.209 0 4 1.791 4 4 2.761 0 5 2.239 5 5z" fill="#6e83b7"/><path d="m20 40 6 7-4 4-4-8.462z" fill="#d3d3d3"/><path d="m32 40-6 7 4 4 4-8.462z" fill="#d3d3d3"/><path d="m29 50-3-3-3 3 2 3-2 9h3 3l-2-9z" fill="#ffb0aa"/><path d="m38 27v4c0 1.654-1.346 3-3 3h-7c0-.552-.448-1-1-1h-2c-.552 0-1 .448-1 1v2c0 .552.448 1 1 1h2c.552 0 1-.448 1-1h7c2.757 0 5-2.243 5-5v-4z" fill="#6e83b7"/><circle cx="50" cy="50" fill="#edeff1" r="12"/><circle cx="50" cy="50" fill="#ffe352" r="11"/><path d="m48 48h-2c0-.551-.448-1-1-1s-1 .449-1 1h-2c0-1.654 1.346-3 3-3s3 1.346 3 3z" fill="#ffb236"/><path d="m58 48h-2c0-.551-.448-1-1-1s-1 .449-1 1h-2c0-1.654 1.346-3 3-3s3 1.346 3 3z" fill="#ffb236"/><path d="m57 52c0 3.866-3.134 7-7 7s-7-3.134-7-7z" fill="#ffb236"/></svg>