<svg id="Layer_2" enable-background="new 0 0 64 64" height="512" viewBox="0 0 64 64" width="512" xmlns="http://www.w3.org/2000/svg"><path d="m62 18h-60v-4l30-12 30 12z" fill="#6e83b7"/><path d="m4 18h56v44h-56z" fill="#edeff1"/><path d="m8 24h48v38h-48z" fill="#d3d3d3"/><path d="m8 24h48v6h-48z" fill="#6e83b7"/><path d="m8 28h48v1h-48z" fill="#466089"/><path d="m8 25h48v1h-48z" fill="#466089"/><path d="m24 30h16v16h-16z" fill="#ffe352"/><path d="m33 46h16v16h-16z" fill="#ffe352"/><path d="m15 46h16v16h-16z" fill="#ffe352"/><g fill="#6e83b7"><path d="m33 37h-2c-.551 0-1-.449-1-1s.449-1 1-1h2c.551 0 1 .449 1 1h2c0-1.654-1.346-3-3-3v-1h-2v1c-1.654 0-3 1.346-3 3s1.346 3 3 3h2c.551 0 1 .449 1 1s-.449 1-1 1h-2c-.551 0-1-.449-1-1h-2c0 1.654 1.346 3 3 3v1h2v-1c1.654 0 3-1.346 3-3s-1.346-3-3-3z"/><path d="m43 55v1c0 .551-.449 1-1 1h-1.586l.586-.586v-2.414h1v-2h-1v-1c0-.551.449-1 1-1h1v-2h-1c-1.654 0-3 1.346-3 3v1h-1v2h1v1.586l-1 1v2.414h4c1.654 0 3-1.346 3-3v-1z"/><path d="m27 52.535v-3.535h-2v2.465l-2 1.333-2-1.333v-2.465h-2v3.535l3 2v.465h-2v2h2v2h2v-2h2v-2h-2v-.465z"/></g><path d="m24 45h16v1h-16z" fill="#ffb236"/><path d="m33 61h16v1h-16z" fill="#ffb236"/><path d="m15 61h16v1h-16z" fill="#ffb236"/></svg>