<svg id="Layer_2" enable-background="new 0 0 64 64" height="512" viewBox="0 0 64 64" width="512" xmlns="http://www.w3.org/2000/svg"><path d="m32 2c-16.569 0-30 13.431-30 30s13.431 30 30 30 30-13.431 30-30-13.431-30-30-30zm0 46c-8.837 0-16-7.163-16-16s7.163-16 16-16 16 7.163 16 16-7.163 16-16 16z" fill="#edeff1"/><g fill="#ffb0aa"><path d="m22.648 3.494 4.029 13.431c1.668-.588 3.454-.925 5.323-.925s3.655.337 5.322.926l4.029-13.431c-2.943-.966-6.084-1.495-9.351-1.495s-6.408.529-9.352 1.494z"/><path d="m60.506 22.648-13.431 4.029c.588 1.668.925 3.454.925 5.323s-.337 3.655-.926 5.322l13.431 4.029c.966-2.943 1.495-6.084 1.495-9.351s-.529-6.408-1.494-9.352z"/><path d="m41.352 60.506-4.029-13.431c-1.668.588-3.454.925-5.323.925s-3.655-.337-5.322-.926l-4.029 13.431c2.943.966 6.084 1.495 9.351 1.495s6.408-.529 9.352-1.494z"/><path d="m3.494 41.352 13.431-4.029c-.588-1.668-.925-3.454-.925-5.323s.337-3.655.926-5.322l-13.432-4.03c-.965 2.944-1.494 6.085-1.494 9.352s.529 6.408 1.494 9.352z"/></g><path d="m32 19c-7.168 0-13 5.832-13 13s5.832 13 13 13 13-5.832 13-13-5.832-13-13-13zm3.667 5.694c-1.168.198-2.405.306-3.667.306s-2.499-.108-3.667-.306c.981-2.317 2.364-3.694 3.667-3.694s2.686 1.377 3.667 3.694zm.834-2.72c.987.445 1.896 1.031 2.703 1.733-.492.202-1.007.387-1.557.544-.332-.842-.714-1.611-1.146-2.277zm-9.476 9.026c.069-1.617.3-3.097.65-4.391 1.368.253 2.82.391 4.325.391s2.957-.138 4.325-.391c.35 1.294.581 2.774.65 4.391zm9.95 2c-.069 1.617-.3 3.097-.65 4.391-1.368-.253-2.82-.391-4.325-.391s-2.957.138-4.325.391c-.35-1.294-.581-2.774-.65-4.391zm-10.622-8.749c-.55-.157-1.065-.342-1.557-.544.807-.702 1.716-1.288 2.703-1.733-.432.666-.814 1.435-1.146 2.277zm-.623 1.907c-.39 1.47-.635 3.101-.703 4.842h-3.976c.196-2.157 1.019-4.132 2.283-5.75.739.352 1.539.659 2.396.908zm-.704 6.842c.068 1.741.314 3.372.703 4.842-.857.249-1.656.556-2.396.908-1.263-1.618-2.087-3.593-2.283-5.75zm1.327 6.749c.333.842.714 1.612 1.146 2.278-.987-.445-1.896-1.031-2.703-1.733.491-.203 1.007-.388 1.557-.545zm1.98-.443c1.168-.198 2.405-.306 3.667-.306s2.499.108 3.667.306c-.981 2.317-2.364 3.694-3.667 3.694s-2.686-1.377-3.667-3.694zm9.314.443c.55.157 1.065.342 1.557.544-.807.702-1.716 1.288-2.703 1.733.432-.666.814-1.435 1.146-2.277zm.623-1.907c.39-1.47.635-3.101.703-4.842h3.976c-.196 2.157-1.019 4.132-2.283 5.75-.739-.352-1.539-.659-2.396-.908zm.704-6.842c-.068-1.741-.314-3.372-.703-4.842.857-.249 1.656-.556 2.396-.908 1.263 1.618 2.087 3.593 2.283 5.75z" fill="#6e83b7"/></svg>