<svg id="Layer_2" enable-background="new 0 0 64 64" height="512" viewBox="0 0 64 64" width="512" xmlns="http://www.w3.org/2000/svg"><path d="m7 19h50v26h-50z" fill="#98ca69"/><circle cx="32" cy="32" fill="#75aa40" r="8"/><path d="m48.791 22.5c.673 2.254 2.455 4.036 4.709 4.709v9.582c-2.254.673-4.036 2.455-4.709 4.709h-33.582c-.673-2.254-2.455-4.036-4.709-4.709v-9.582c2.254-.673 4.036-2.455 4.709-4.709zm1.709-2h-37c0 2.761-2.239 5-5 5v13c2.761 0 5 2.239 5 5h37c0-2.761 2.239-5 5-5v-13c-2.761 0-5-2.239-5-5z" fill="#75aa40"/><path d="m33 31h-2c-.551 0-1-.449-1-1s.449-1 1-1h2c.552 0 1 .449 1 1h2c0-1.654-1.346-3-3-3v-1h-2v1c-1.654 0-3 1.346-3 3s1.346 3 3 3h2c.552 0 1 .449 1 1s-.448 1-1 1h-2c-.551 0-1-.449-1-1h-2c0 1.654 1.346 3 3 3v1h2v-1c1.654 0 3-1.346 3-3s-1.346-3-3-3z" fill="#98ca69"/><path d="m29 11-8.29-4.787v2.787h-9.71c-5.514 0-10 4.486-10 10s4.486 10 10 10h5v-4h-5c-3.309 0-6-2.691-6-6s2.691-6 6-6h9.71v2.787z" fill="#80d6fb"/><path d="m61.234 44c.558-.441.868-1.16.736-1.91s-.67-1.319-1.345-1.543c.373-.606.419-1.387.038-2.047s-1.08-1.011-1.792-.99c.144-.697-.081-1.447-.664-1.936s-1.361-.58-2.022-.318c-.103-.704-.571-1.332-1.286-1.593-.715-.26-1.477-.08-2.009.393-.338-.626-.992-1.056-1.753-1.056s-1.415.43-1.753 1.057c-.532-.473-1.293-.654-2.009-.393-.715.26-1.183.889-1.286 1.593-.661-.263-1.439-.172-2.022.318-.583.489-.808 1.24-.664 1.936-.711-.02-1.411.331-1.792.99s-.335 1.441.038 2.047c-.675.224-1.213.793-1.345 1.543s.178 1.469.736 1.91c-.558.441-.868 1.16-.736 1.91s.67 1.319 1.345 1.543c-.373.606-.419 1.387-.038 2.047.381.659 1.081 1.011 1.792.99-.144.697.081 1.447.664 1.936s1.361.58 2.022.318c.103.704.571 1.332 1.286 1.593s1.477.08 2.009-.393c.337.625.991 1.055 1.753 1.055s1.415-.43 1.753-1.057c.532.473 1.293.654 2.009.393s1.183-.889 1.286-1.593c.661.263 1.439.172 2.022-.318.583-.489.808-1.24.664-1.936.711.02 1.411-.331 1.792-.99s.335-1.441-.038-2.047c.675-.224 1.213-.793 1.345-1.543.132-.749-.178-1.468-.736-1.909z" fill="#ffe352"/><circle cx="51.137" cy="44" fill="#edeff1" r="8"/><path d="m50.137 47.914-3.707-3.707 1.414-1.414 2.293 2.293 5.043-5.043 1.414 1.414z" fill="#98ca69"/></svg>