<svg id="Layer_2" enable-background="new 0 0 64 64" height="512" viewBox="0 0 64 64" width="512" xmlns="http://www.w3.org/2000/svg"><path d="m32 2c12.703 0 23 10.297 23 23 0 19.25-23 37-23 37s-23-17.75-23-37c0-12.703 10.297-23 23-23z" fill="#ffb0aa"/><circle cx="32" cy="25" fill="#edeff1" r="19"/><path d="m19 18h26v14h-26z" fill="#98ca69"/><circle cx="32" cy="25" fill="#75aa40" r="4"/><path d="m32.52 24.5h-1.04c-.298 0-.54-.242-.54-.54s.242-.54.54-.54h1.039c.298 0 .54.242.54.54h1c0-.849-.69-1.54-1.54-1.54h-.019v-.54h-1v.54h-.02c-.85 0-1.54.691-1.54 1.54s.69 1.54 1.54 1.54h1.039c.298 0 .54.242.54.54s-.242.54-.54.54h-1.039c-.298 0-.54-.242-.54-.54h-1c0 .849.69 1.54 1.54 1.54h.02v.54h1v-.54h.02c.85 0 1.54-.691 1.54-1.54s-.691-1.54-1.54-1.54z" fill="#98ca69"/><path d="m41.171 20c.302.851.977 1.527 1.829 1.829v6.343c-.851.302-1.527.977-1.829 1.829h-18.342c-.302-.851-.977-1.527-1.829-1.829v-6.343c.851-.302 1.527-.977 1.829-1.829zm.829-1h-20c0 1.1-.9 2-2 2v8c1.1 0 2 .9 2 2h20c0-1.1.9-2 2-2v-8c-1.1 0-2-.9-2-2z" fill="#75aa40"/><g fill="#6e83b7"><path d="m36 17h-13v-2.566l5.485-3.291 1.03 1.714-3.572 2.143h10.057z"/><path d="m35.515 38.857-1.03-1.714 3.572-2.143h-10.057v-2h13v2.566z"/></g></svg>