<svg id="Layer_2" enable-background="new 0 0 64 64" height="512" viewBox="0 0 64 64" width="512" xmlns="http://www.w3.org/2000/svg"><path d="m41 55.01-.242-.242c-1.126-1.125-1.758-2.651-1.758-4.243v-3.525h-14v3.525c0 1.591-.632 3.117-1.757 4.243l-.243.242h-2v1.99h22v-1.99z" fill="#6e83b7"/><path d="m25 47h14v2.167h-14z" fill="#466089"/><path d="m60 47h-56c-1.105 0-2-.895-2-2v-36c0-1.105.895-2 2-2h56c1.105 0 2 .895 2 2v36c0 1.105-.895 2-2 2z" fill="#6e83b7"/><path d="m4 9h56v32h-56z" fill="#80d6fb"/><path d="m4 40h56v1h-56z" fill="#46bee8"/><path d="m19 12h26v14h-26z" fill="#98ca69"/><circle cx="32" cy="19" fill="#75aa40" r="4"/><path d="m32.52 18.5h-1.04c-.298 0-.54-.242-.54-.54s.242-.54.54-.54h1.039c.298 0 .54.242.54.54h1c0-.849-.69-1.54-1.54-1.54h-.019v-.54h-1v.54h-.02c-.85 0-1.54.691-1.54 1.54s.69 1.54 1.54 1.54h1.039c.298 0 .54.242.54.54s-.242.54-.54.54h-1.039c-.298 0-.54-.242-.54-.54h-1c0 .849.69 1.54 1.54 1.54h.02v.54h1v-.54h.02c.85 0 1.54-.691 1.54-1.54s-.691-1.54-1.54-1.54z" fill="#98ca69"/><path d="m41.171 14c.302.851.977 1.527 1.829 1.829v6.343c-.851.302-1.527.977-1.829 1.829h-18.342c-.302-.851-.977-1.527-1.829-1.829v-6.343c.851-.302 1.527-.977 1.829-1.829zm.829-1h-20c0 1.1-.9 2-2 2v8c1.1 0 2 .9 2 2h20c0-1.1.9-2 2-2v-8c-1.1 0-2-.9-2-2z" fill="#75aa40"/><g fill="#6e83b7"><path d="m24 38h-2v-9h6v6h-4zm0-5h2v-2h-2z"/><path d="m29 29v9h2v-3h2v3h2v-9zm2 2h2v2h-2z"/><path d="m42 29h-2v4h-2v-4h-2v6h1.938v3h2v-3h2.062z"/></g></svg>