<svg id="Layer_2" enable-background="new 0 0 64 64" height="512" viewBox="0 0 64 64" width="512" xmlns="http://www.w3.org/2000/svg"><path d="m52 22v-4.042l-24-15.958-24 15.958v4.042z" fill="#edeff1"/><path d="m11 18 17-11 17 11z" fill="#d3d3d3"/><g fill="#edeff1"><path d="m6 22h10v3h-10z"/><path d="m6 39h10v3h-10z"/><path d="m15.5 42h-9l1-17h7z"/><path d="m4 42h48v4h-48z"/></g><path d="m4 45h48v1h-48z" fill="#d3d3d3"/><path d="m2 46h52v4h-52z" fill="#edeff1"/><path d="m6 22h10v1h-10z" fill="#d3d3d3"/><path d="m6 41h10v1h-10z" fill="#d3d3d3"/><path d="m14.559 26-.059-1h-7l-.059 1z" fill="#d3d3d3"/><path d="m23 22h10v3h-10z" fill="#edeff1"/><path d="m23 39h10v3h-10z" fill="#edeff1"/><path d="m32.5 42h-9l1-17h7z" fill="#edeff1"/><path d="m23 22h10v1h-10z" fill="#d3d3d3"/><path d="m23 41h10v1h-10z" fill="#d3d3d3"/><path d="m31.559 26-.059-1h-7l-.059 1z" fill="#d3d3d3"/><path d="m40 22h10v3h-10z" fill="#edeff1"/><path d="m40 39h10v3h-10z" fill="#edeff1"/><path d="m49.5 42h-9l1-17h7z" fill="#edeff1"/><path d="m40 22h10v1h-10z" fill="#d3d3d3"/><path d="m40 41h10v1h-10z" fill="#d3d3d3"/><path d="m48.559 26-.059-1h-7l-.059 1z" fill="#d3d3d3"/><path d="m22 35h12v16h-12z" fill="#6e83b7"/><path d="m59 46h-25v-6h25c1.657 0 3 1.343 3 3 0 1.657-1.343 3-3 3z" fill="#6e83b7"/><path d="m18 56h20v4h-20z" fill="#6e83b7"/><path d="m16 60h24v2h-24z" fill="#6e83b7"/><path d="m18 59h20v1h-20z" fill="#466089"/><path d="m21 51h14v3h-14z" fill="#466089"/><path d="m21 32h14v3h-14z" fill="#466089"/><path d="m34 40h1v6h-1z" fill="#466089"/></svg>