<svg id="Layer_2" enable-background="new 0 0 64 64" height="512" viewBox="0 0 64 64" width="512" xmlns="http://www.w3.org/2000/svg"><path d="m11 2h42v56h-42z" fill="#edeff1"/><g fill="#d3d3d3"><path d="m15 21h34v2h-34z"/><path d="m15 26h34v2h-34z"/><path d="m15 31h34v2h-34z"/><path d="m15 37h34v2h-34z"/></g><path d="m27 16h-7v-2h5v-3h-5v-6h7v2h-5v2h5z" fill="#6e83b7"/><path d="m36 16h-7v-2h5v-3h-5v-6h7v2h-5v2h5z" fill="#6e83b7"/><path d="m44 16h-6v-11h2v9h4z" fill="#6e83b7"/><path d="m42 52h5v10l-5-2-5 2v-10z" fill="#ffb0aa"/><path d="m51.295 47c.514-.406.799-1.068.678-1.758-.122-.69-.616-1.214-1.238-1.421.344-.558.386-1.277.035-1.884-.35-.607-.995-.93-1.649-.911.132-.641-.074-1.332-.611-1.782-.537-.451-1.253-.534-1.862-.292-.095-.648-.525-1.226-1.184-1.466s-1.36-.073-1.849.362c-.311-.576-.913-.973-1.614-.973s-1.303.396-1.614.973c-.489-.435-1.191-.602-1.849-.362-.659.24-1.089.818-1.184 1.466-.609-.242-1.325-.158-1.862.292-.537.451-.743 1.141-.611 1.782-.655-.019-1.299.305-1.649.911-.35.607-.308 1.326.035 1.884-.622.206-1.116.73-1.238 1.421-.122.69.164 1.352.678 1.758-.514.406-.799 1.068-.678 1.758.122.69.616 1.214 1.238 1.421-.344.558-.386 1.277-.035 1.884.35.607.995.93 1.649.911-.132.641.074 1.332.611 1.782.537.451 1.253.534 1.862.292.095.648.525 1.226 1.184 1.466s1.36.073 1.849-.362c.311.576.913.973 1.614.973s1.303-.396 1.614-.973c.489.435 1.191.602 1.849.362s1.089-.818 1.184-1.466c.609.242 1.325.158 1.862-.292s.743-1.141.611-1.782c.655.019 1.299-.304 1.649-.911s.308-1.327-.035-1.884c.622-.206 1.116-.73 1.238-1.421.121-.69-.165-1.352-.678-1.758z" fill="#ffe352"/><circle cx="42" cy="47" fill="#edeff1" r="7.364"/><path d="m41 50.914-3.707-3.707 1.414-1.414 2.293 2.293 5.043-5.043 1.414 1.414z" fill="#98ca69"/><path d="m15 43h12v2h-12z" fill="#d3d3d3"/></svg>