<svg id="Layer_2" enable-background="new 0 0 64 64" height="512" viewBox="0 0 64 64" width="512" xmlns="http://www.w3.org/2000/svg"><path d="m56 23v-4.042l-24-15.958-24 15.958v4.042z" fill="#edeff1"/><path d="m14 19 18-12 18 12z" fill="#d3d3d3"/><g fill="#edeff1"><path d="m10 23h10v3h-10z"/><path d="m10 40h10v3h-10z"/><path d="m19.5 43h-9l1-17h7z"/><path d="m8 43h48v4h-48z"/></g><path d="m8 46h48v1h-48z" fill="#d3d3d3"/><path d="m6 47h52v4h-52z" fill="#edeff1"/><path d="m10 23h10v1h-10z" fill="#d3d3d3"/><path d="m10 42h10v1h-10z" fill="#d3d3d3"/><path d="m18.559 27-.059-1h-7l-.059 1z" fill="#d3d3d3"/><path d="m27 23h10v3h-10z" fill="#edeff1"/><path d="m27 40h10v3h-10z" fill="#edeff1"/><path d="m36.5 43h-9l1-17h7z" fill="#edeff1"/><path d="m27 23h10v1h-10z" fill="#d3d3d3"/><path d="m27 42h10v1h-10z" fill="#d3d3d3"/><path d="m35.559 27-.059-1h-7l-.059 1z" fill="#d3d3d3"/><path d="m44 23h10v3h-10z" fill="#edeff1"/><path d="m44 40h10v3h-10z" fill="#edeff1"/><path d="m53.5 43h-9l1-17h7z" fill="#edeff1"/><path d="m44 23h10v1h-10z" fill="#d3d3d3"/><path d="m44 42h10v1h-10z" fill="#d3d3d3"/><path d="m52.559 27-.059-1h-7l-.059 1z" fill="#d3d3d3"/><path d="m2 53h26v8h-26z" fill="#ffb0aa"/><path d="m8.354 55.354-.708-.708-1.646 1.647-1.646-1.647-.708.708 1.647 1.646-1.647 1.646.708.708 1.646-1.647 1.646 1.647.708-.708-1.647-1.646z" fill="#ff7b7b"/><path d="m14.354 55.354-.708-.708-1.646 1.647-1.646-1.647-.708.708 1.647 1.646-1.647 1.646.708.708 1.646-1.647 1.646 1.647.708-.708-1.647-1.646z" fill="#ff7b7b"/><path d="m20.354 55.354-.708-.708-1.646 1.647-1.646-1.647-.708.708 1.647 1.646-1.647 1.646.708.708 1.646-1.647 1.646 1.647.708-.708-1.647-1.646z" fill="#ff7b7b"/><path d="m26.354 55.354-.708-.708-1.646 1.647-1.646-1.647-.708.708 1.647 1.646-1.647 1.646.708.708 1.646-1.647 1.646 1.647.708-.708-1.647-1.646z" fill="#ff7b7b"/><path d="m31 53h14v8h-14z" fill="#ffe352"/><path d="m37.354 55.354-.708-.708-1.646 1.647-1.646-1.647-.708.708 1.647 1.646-1.647 1.646.708.708 1.646-1.647 1.646 1.647.708-.708-1.647-1.646z" fill="#ffb236"/><path d="m43.354 55.354-.708-.708-1.646 1.647-1.646-1.647-.708.708 1.647 1.646-1.647 1.646.708.708 1.646-1.647 1.646 1.647.708-.708-1.647-1.646z" fill="#ffb236"/><path d="m48 53h14v8h-14z" fill="#80d6fb"/><path d="m54.354 55.354-.708-.708-1.646 1.647-1.646-1.647-.708.708 1.647 1.646-1.647 1.646.708.708 1.646-1.647 1.646 1.647.708-.708-1.647-1.646z" fill="#46bee8"/><path d="m60.354 55.354-.708-.708-1.646 1.647-1.646-1.647-.708.708 1.647 1.646-1.647 1.646.708.708 1.646-1.647 1.646 1.647.708-.708-1.647-1.646z" fill="#46bee8"/></svg>