<svg id="Layer_3" enable-background="new 0 0 64 64" height="512" viewBox="0 0 64 64" width="512" xmlns="http://www.w3.org/2000/svg"><path d="m44 56h16v6h-16z" fill="#4d5d7a"/><path d="m4 56h16v6h-16z" fill="#4d5d7a"/><path d="m42 52h14v4h-14z" fill="#a8b0bc"/><path d="m8 52h12v4h-12z" fill="#a8b0bc"/><path d="m42 46h-4v-14h-12v14h-4v7h20z" fill="#c1c8d1"/><path d="m30 52v-6c0-1.105.895-2 2-2 1.105 0 2 .895 2 2v6" fill="#4d5d7a"/><path d="m24 26h16v6h-16z" fill="#8892a0"/><path d="m6 46h16v6h-16z" fill="#8892a0"/><path d="m42 46h16v6h-16z" fill="#8892a0"/><path d="m20 22h24v4h-24z" fill="#c1c8d1"/><path d="m28 18v-4h8v4" fill="#c1c8d1"/><path d="m2 42h24v4h-24z" fill="#c1c8d1"/><path d="m10 38v-4h8v4" fill="#c1c8d1"/><path d="m38 42h24v4h-24z" fill="#c1c8d1"/><path d="m46 38v-4h8v4" fill="#c1c8d1"/><path d="m24 22v-4h16v4" fill="#a8b0bc"/><path d="m30 14v-8h4v8" fill="#a8b0bc"/><path d="m6 42v-4h16v4" fill="#a8b0bc"/><path d="m12 34v-8h4v8" fill="#a8b0bc"/><path d="m42 42v-4h16v4" fill="#a8b0bc"/><path d="m48 34v-8h4v8" fill="#a8b0bc"/><path d="m15 6c-.034 0-.066.009-.1.01-.459-2.287-2.478-4.01-4.9-4.01s-4.441 1.723-4.9 4.01c-.034-.001-.066-.01-.1-.01-1.657 0-3 1.343-3 3s1.343 3 3 3c.841 0 1.598-.348 2.143-.905.811.567 1.793.905 2.857.905s2.046-.338 2.857-.905c.545.557 1.302.905 2.143.905 1.657 0 3-1.343 3-3s-1.343-3-3-3z" fill="#a1cdfb"/><path d="m59 6c-.034 0-.066.009-.1.01-.459-2.287-2.478-4.01-4.9-4.01s-4.441 1.723-4.9 4.01c-.034-.001-.066-.01-.1-.01-1.657 0-3 1.343-3 3s1.343 3 3 3c.841 0 1.598-.348 2.143-.905.811.567 1.793.905 2.857.905s2.046-.338 2.857-.905c.545.557 1.302.905 2.143.905 1.657 0 3-1.343 3-3s-1.343-3-3-3z" fill="#a1cdfb"/><g fill="#4d5d7a"><path d="m20 19h2v3h-2z"/><path d="m42 19h2v3h-2z"/><path d="m24 15h2v3h-2z"/><path d="m38 15h2v3h-2z"/><path d="m27 9h10v2h-10z"/><path d="m31 1h2v5h-2z"/><path d="m2 39h2v3h-2z"/><path d="m24 39h2v3h-2z"/><path d="m6 35h2v3h-2z"/><path d="m20 35h2v3h-2z"/><path d="m9 29h10v2h-10z"/><path d="m13 21h2v5h-2z"/><path d="m37 39h2v3h-2z"/><path d="m60 39h2v3h-2z"/><path d="m42 35h2v3h-2z"/><path d="m56 35h2v3h-2z"/><path d="m45 29h10v2h-10z"/><path d="m49 21h2v5h-2z"/><path d="m21 31h22v2h-22z"/><path d="m3 51h14v2h-14z"/><path d="m47 51h14v2h-14z"/><path d="m29 39h6v2h-6z"/></g><path d="m20 52h24v10h-24z" fill="#8892a0"/><path d="m27 62v-1c0-2.761 2.239-5 5-5 2.761 0 5 2.239 5 5v1" fill="#4d5d7a"/></svg>