<svg id="Layer_3" enable-background="new 0 0 64 64" height="512" viewBox="0 0 64 64" width="512" xmlns="http://www.w3.org/2000/svg"><path d="m14 31 18-15 18 15" fill="#4d5d7a"/><path d="m29 28h6v14h-6z" fill="#c1c8d1"/><path d="m29 2h6v14h-6z" fill="#c1c8d1"/><path d="m15 15h6v14h-6z" fill="#c1c8d1" transform="matrix(0 -1 1 0 -4 40)"/><path d="m43 15h6v14h-6z" fill="#c1c8d1" transform="matrix(0 -1 1 0 24 68)"/><path d="m27 59v-7c0-2.761 2.239-5 5-5 2.761 0 5 2.239 5 5v7" fill="#4d5d7a"/><path d="m43 39h4v16h-4z" fill="#4d5d7a"/><path d="m17 39h4v16h-4z" fill="#4d5d7a"/><path d="m17 43 3.2-2.4c3.022-2.266 4.8-5.823 4.8-9.6h-6c0 3.777-1.778 7.334-4.8 9.6l-3.2 2.4z" fill="#78b75b"/><path d="m47 43-3.2-2.4c-3.022-2.266-4.8-5.823-4.8-9.6h6c0 3.777 1.778 7.334 4.8 9.6l3.2 2.4z" fill="#78b75b"/><path d="m60 62-4.143-3.315c-3.792-3.033-8.502-4.685-13.357-4.685-4.855 0-9.565 1.652-13.357 4.685l-4.143 3.315" fill="#976947"/><path d="m39 62-4.143-3.315c-3.792-3.033-8.502-4.685-13.357-4.685-4.855 0-9.565 1.652-13.357 4.685l-4.143 3.315" fill="#c18e59"/><path d="m15 6c-.034 0-.066.009-.1.01-.459-2.287-2.478-4.01-4.9-4.01s-4.441 1.723-4.9 4.01c-.034-.001-.066-.01-.1-.01-1.657 0-3 1.343-3 3s1.343 3 3 3c.841 0 1.598-.348 2.143-.905.811.567 1.793.905 2.857.905s2.046-.338 2.857-.905c.545.557 1.302.905 2.143.905 1.657 0 3-1.343 3-3s-1.343-3-3-3z" fill="#a1cdfb"/><path d="m59 6c-.034 0-.066.009-.1.01-.459-2.287-2.478-4.01-4.9-4.01s-4.441 1.723-4.9 4.01c-.034-.001-.066-.01-.1-.01-1.657 0-3 1.343-3 3s1.343 3 3 3c.841 0 1.598-.348 2.143-.905.811.567 1.793.905 2.857.905s2.046-.338 2.857-.905c.545.557 1.302.905 2.143.905 1.657 0 3-1.343 3-3s-1.343-3-3-3z" fill="#a1cdfb"/><path d="m2 60h60v2h-60z" fill="#78b75b"/><path d="m35 30h24v2h-24z" fill="#4d5d7a"/><path d="m5 30h24v2h-24z" fill="#4d5d7a"/><path d="m11 29.343h2v11.314h-2z" fill="#4d5d7a" transform="matrix(.707 -.707 .707 .707 -21.234 18.737)"/><path d="m46.343 34h11.314v2h-11.314z" fill="#4d5d7a" transform="matrix(.707 -.707 .707 .707 -9.518 47.021)"/><path d="m31 16h2v12h-2z" fill="#8892a0"/><path d="m25 21h14v2h-14z" fill="#8892a0"/><g fill="#4d5d7a"><path d="m29 5h6v2h-6z"/><path d="m29 9h6v2h-6z"/><path d="m29 37h6v2h-6z"/><path d="m29 33h6v2h-6z"/><path d="m48 19h2v6h-2z"/><path d="m44 19h2v6h-2z"/><path d="m14 19h2v6h-2z"/><path d="m18 19h2v6h-2z"/></g></svg>