<svg id="Layer_3" enable-background="new 0 0 64 64" height="512" viewBox="0 0 64 64" width="512" xmlns="http://www.w3.org/2000/svg"><path d="m23 6h18v14h-18z" fill="#c1c8d1"/><path d="m18 24h28v10h-28z" fill="#c1c8d1"/><path d="m18 38h28v10h-28z" fill="#c1c8d1"/><path d="m18 52h28v10h-28z" fill="#c1c8d1"/><g fill="#758190"><path d="m32 12c-1.657 0-3 1.343-3 3v5h6v-5c0-1.657-1.343-3-3-3z"/><path d="m24 56c-1.105 0-2 .895-2 2v4h4v-4c0-1.105-.895-2-2-2z"/><path d="m32 56c-1.105 0-2 .895-2 2v4h4v-4c0-1.105-.895-2-2-2z"/><path d="m40 56c-1.105 0-2 .895-2 2v4h4v-4c0-1.105-.895-2-2-2z"/><path d="m24 42c-1.105 0-2 .895-2 2v4h4v-4c0-1.105-.895-2-2-2z"/><path d="m32 42c-1.105 0-2 .895-2 2v4h4v-4c0-1.105-.895-2-2-2z"/><path d="m40 42c-1.105 0-2 .895-2 2v4h4v-4c0-1.105-.895-2-2-2z"/><path d="m24 28c-1.105 0-2 .895-2 2v4h4v-4c0-1.105-.895-2-2-2z"/><path d="m32 28c-1.105 0-2 .895-2 2v4h4v-4c0-1.105-.895-2-2-2z"/><path d="m40 28c-1.105 0-2 .895-2 2v4h4v-4c0-1.105-.895-2-2-2z"/></g><path d="m41 2h-18c-1.105 0-2 .895-2 2 0 1.105.895 2 2 2h18c1.105 0 2-.895 2-2 0-1.105-.895-2-2-2z" fill="#8892a0"/><path d="m46 24h-28c-1.105 0-2-.895-2-2 0-1.105.895-2 2-2h28c1.105 0 2 .895 2 2 0 1.105-.895 2-2 2z" fill="#8892a0"/><path d="m46 38h-28c-1.105 0-2-.895-2-2 0-1.105.895-2 2-2h28c1.105 0 2 .895 2 2 0 1.105-.895 2-2 2z" fill="#8892a0"/><path d="m46 52h-28c-1.105 0-2-.895-2-2 0-1.105.895-2 2-2h28c1.105 0 2 .895 2 2 0 1.105-.895 2-2 2z" fill="#8892a0"/><path d="m15 6c-.034 0-.066.009-.1.01-.459-2.287-2.478-4.01-4.9-4.01s-4.441 1.723-4.9 4.01c-.034-.001-.066-.01-.1-.01-1.657 0-3 1.343-3 3s1.343 3 3 3c.841 0 1.598-.348 2.143-.905.811.567 1.793.905 2.857.905s2.046-.338 2.857-.905c.545.557 1.302.905 2.143.905 1.657 0 3-1.343 3-3s-1.343-3-3-3z" fill="#a1cdfb"/><path d="m59 6c-.034 0-.066.009-.1.01-.459-2.287-2.478-4.01-4.9-4.01s-4.441 1.723-4.9 4.01c-.034-.001-.066-.01-.1-.01-1.657 0-3 1.343-3 3s1.343 3 3 3c.841 0 1.598-.348 2.143-.905.811.567 1.793.905 2.857.905s2.046-.338 2.857-.905c.545.557 1.302.905 2.143.905 1.657 0 3-1.343 3-3s-1.343-3-3-3z" fill="#a1cdfb"/><path d="m2 60h60v2h-60z" fill="#8892a0"/></svg>