<svg id="Layer_3" enable-background="new 0 0 64 64" height="512" viewBox="0 0 64 64" width="512" xmlns="http://www.w3.org/2000/svg"><path d="m19 30h-2c-2.209 0-4-1.791-4-4v-1l.716-9.307c.16-2.084 1.898-3.693 3.988-3.693h1.296" fill="#758190"/><path d="m52 62v-10c0-4.418-3.582-8-8-8h-24c-4.418 0-8 3.582-8 8v10" fill="#c1c8d1"/><path d="m45 12h1.296c2.09 0 3.828 1.609 3.988 3.693l.716 9.307v1c0 2.209-1.791 4-4 4h-2" fill="#758190"/><path d="m41.216 2h-18.432c-2.123 0-3.876 1.658-3.994 3.778l-1.79 32.222c0 3.314 2.686 6 6 6h18c3.314 0 6-2.686 6-6l-1.79-32.222c-.118-2.12-1.871-3.778-3.994-3.778z" fill="#a8b0bc"/><path d="m18.79 5.778-1.79 32.222c0 .669.114 1.311.316 1.912 11.577-1.029 20.684-11.785 20.684-24.912 0-4.762-1.199-9.212-3.279-13h-11.937c-2.123 0-3.876 1.658-3.994 3.778z" fill="#c1c8d1"/><g fill="#758190"><path d="m2 60h60v2h-60z"/><path d="m22 6h20v4h-20z"/><path d="m36 32h-8c-.276 0-.54-.114-.729-.315s-.287-.472-.27-.747l.935-14.938h-6.936v-2h8c.276 0 .54.114.729.315s.287.472.27.747l-.935 14.938h5.871l-.934-14.938c-.018-.275.08-.546.27-.747.189-.201.453-.315.729-.315h8v2h-6.936l.934 14.938c.018.275-.08.546-.27.747-.188.201-.452.315-.728.315z"/><path d="m42.293 38.707c-1.746-1.746-4.066-2.707-6.535-2.707h-7.516c-2.469 0-4.789.961-6.535 2.707l-1.414-1.414c2.123-2.123 4.946-3.293 7.949-3.293h7.516c3.003 0 5.826 1.17 7.949 3.293z"/><path d="m17 49h30v2h-30z"/></g></svg>