<svg id="Layer_3" enable-background="new 0 0 64 64" height="512" viewBox="0 0 64 64" width="512" xmlns="http://www.w3.org/2000/svg"><path d="m31 2h2v6h-2z" fill="#c1c8d1"/><path d="m44 19h-24l3 8h18z" fill="#96cc7f"/><path d="m44 27h-24l3 8h18z" fill="#669e4f"/><path d="m40 11h-16l3 8h10z" fill="#669e4f"/><path d="m62 62v-10.455h-2v-4.181h-4v4.181h-4v-12.545h-4v10.455h-7-18-7v-10.455l-4 4.182v8.363h-4v-4.181h-4v4.181h-2v10.455" fill="#c1c8d1"/><path d="m44 62h-24l3-14-3-13h24l-3 13z" fill="#96cc7f"/><g fill="#fff"><path d="m31 54h8v4h-8z"/><path d="m33 35v4h4v-4"/><path d="m33 27v4h4v-4"/><path d="m33 19v4h4v-4"/><path d="m33 43h4v4h-4z"/></g><path d="m15 6c-.034 0-.066.009-.1.01-.459-2.287-2.478-4.01-4.9-4.01s-4.441 1.723-4.9 4.01c-.034-.001-.066-.01-.1-.01-1.657 0-3 1.343-3 3s1.343 3 3 3c.841 0 1.598-.348 2.143-.905.811.567 1.793.905 2.857.905s2.046-.338 2.857-.905c.545.557 1.302.905 2.143.905 1.657 0 3-1.343 3-3s-1.343-3-3-3z" fill="#a1cdfb"/><path d="m59 11c-.034 0-.066.009-.1.01-.459-2.287-2.478-4.01-4.9-4.01s-4.441 1.723-4.9 4.01c-.034-.001-.066-.01-.1-.01-1.657 0-3 1.343-3 3s1.343 3 3 3c.841 0 1.598-.348 2.143-.905.811.567 1.793.905 2.857.905s2.046-.338 2.857-.905c.545.557 1.302.905 2.143.905 1.657 0 3-1.343 3-3s-1.343-3-3-3z" fill="#a1cdfb"/><path d="m29 11v-4h6v4" fill="#96cc7f"/></svg>