<svg id="Layer_3" enable-background="new 0 0 64 64" height="512" viewBox="0 0 64 64" width="512" xmlns="http://www.w3.org/2000/svg"><path d="m52 16h2v5h-2z" fill="#c18e59"/><path d="m10 16h2v5h-2z" fill="#c18e59"/><path d="m28 25h8v6h-8z" fill="#c7e2fc"/><path d="m20 34h24v24h-24z" fill="#c1c8d1"/><path d="m2 36h18v12h-18z" fill="#8892a0"/><path d="m44 36h18v12h-18z" fill="#8892a0"/><path d="m20 30h24v4h-24z" fill="#8892a0"/><path d="m26 62v-18c0-3.314 2.686-6 6-6 3.314 0 6 2.686 6 6v18" fill="#4d5d7a"/><path d="m26 58h12v4h-12z" fill="#8892a0"/><path d="m48 48v-3c0-2.761 2.239-5 5-5 2.761 0 5 2.239 5 5v3" fill="#4d5d7a"/><path d="m16 48v-3c0-2.761-2.239-5-5-5-2.761 0-5 2.239-5 5v3" fill="#4d5d7a"/><g fill="#78b75b"><circle cx="6" cy="54" r="4"/><circle cx="16" cy="54" r="4"/><circle cx="48" cy="54" r="4"/><circle cx="58" cy="54" r="4"/><path d="m48 36v-11c0-2.761 2.239-5 5-5 2.761 0 5 2.239 5 5v11"/></g><path d="m48 26h10v4h-10z" fill="#c18e59"/><path d="m6 36v-11c0-2.761 2.239-5 5-5 2.761 0 5 2.239 5 5v11" fill="#78b75b"/><path d="m6 26h10v4h-10z" fill="#c18e59"/><path d="m32 2v5l.051.154c.567 1.7 2.157 2.846 3.949 2.846 4.418 0 8 3.582 8 8s-3.582 8-8 8h-8c-4.418 0-8-3.582-8-8s3.582-8 8-8c1.792 0 3.382-1.146 3.949-2.846l.051-.154z" fill="#a1cdfb"/><path d="m32.051 7.154-.051-.154-.051.154c-.567 1.7-2.157 2.846-3.949 2.846-4.418 0-8 3.582-8 8 0 1.329.329 2.579.902 3.682 1.715.838 3.665 1.318 5.737 1.318 6.827 0 12.361-5.149 12.361-11.5 0-.315-.024-.623-.051-.932-.913-.362-1.906-.568-2.949-.568-1.792 0-3.382-1.146-3.949-2.846z" fill="#c7e2fc"/><path d="m15 6c-.034 0-.066.009-.1.01-.459-2.287-2.478-4.01-4.9-4.01s-4.441 1.723-4.9 4.01c-.034-.001-.066-.01-.1-.01-1.657 0-3 1.343-3 3s1.343 3 3 3c.841 0 1.598-.348 2.143-.905.811.567 1.793.905 2.857.905s2.046-.338 2.857-.905c.545.557 1.302.905 2.143.905 1.657 0 3-1.343 3-3s-1.343-3-3-3z" fill="#a1cdfb"/><path d="m59 6c-.034 0-.066.009-.1.01-.459-2.287-2.478-4.01-4.9-4.01s-4.441 1.723-4.9 4.01c-.034-.001-.066-.01-.1-.01-1.657 0-3 1.343-3 3s1.343 3 3 3c.841 0 1.598-.348 2.143-.905.811.567 1.793.905 2.857.905s2.046-.338 2.857-.905c.545.557 1.302.905 2.143.905 1.657 0 3-1.343 3-3s-1.343-3-3-3z" fill="#a1cdfb"/><path d="m5 53h2v9h-2z" fill="#976947"/><path d="m15 53h2v9h-2z" fill="#976947"/><path d="m47 53h2v9h-2z" fill="#976947"/><path d="m57 53h2v9h-2z" fill="#976947"/><path d="m21.76 23h20.48c.483-.602.879-1.274 1.173-2h-22.826c.294.726.691 1.398 1.173 2z" fill="#ebf7fe"/><path d="m25 18h-2c0-2.757 2.243-5 5-5v2c-1.654 0-3 1.346-3 3z" fill="#fff"/><path d="m2 60h60v2h-60z" fill="#c18e59"/></svg>