<?xml version="1.0" encoding="iso-8859-1"?>
<!-- Generator: Adobe Illustrator 19.0.0, SVG Export Plug-In . SVG Version: 6.00 Build 0)  -->
<svg version="1.1" id="Layer_1" xmlns="http://www.w3.org/2000/svg" xmlns:xlink="http://www.w3.org/1999/xlink" x="0px" y="0px"
	 viewBox="0 0 512 512" style="enable-background:new 0 0 512 512;" xml:space="preserve">
<g>
	<polygon style="fill:#E8EDEE;" points="0,512 512,512 512,0 0,0 	"/>
	<polygon style="fill:#546A79;" points="0,105.931 512,105.931 512,0 0,0 	"/>
	<path style="fill:#ED7161;" d="M79.448,52.966c0,14.627-11.855,26.483-26.483,26.483S26.483,67.593,26.483,52.966
		s11.855-26.483,26.483-26.483S79.448,38.338,79.448,52.966"/>
	<path style="fill:#F0C419;" d="M158.897,52.966c0,14.627-11.855,26.483-26.483,26.483s-26.483-11.855-26.483-26.483
		s11.855-26.483,26.483-26.483S158.897,38.338,158.897,52.966"/>
	<path style="fill:#4FBA6F;" d="M238.345,52.966c0,14.627-11.855,26.483-26.483,26.483c-14.627,0-26.483-11.855-26.483-26.483
		s11.855-26.483,26.483-26.483C226.489,26.483,238.345,38.338,238.345,52.966"/>
	<polygon style="fill:#24AE5F;" points="255.808,141.241 158.899,238.345 185.382,264.828 255.808,194.207 256.003,194.401 
		256.188,194.207 326.623,264.828 353.106,238.345 	"/>
	<polygon style="fill:#1F894A;" points="255.898,194.207 203.03,247.172 203.03,317.793 308.961,317.793 308.961,247.172 	"/>
	<g>
		<path style="fill:#B0B6BB;" d="M123.586,388.414h-35.31c-4.882,0-8.828-3.946-8.828-8.828c0-4.882,3.946-8.828,8.828-8.828h35.31
			c4.882,0,8.828,3.946,8.828,8.828C132.414,384.468,128.468,388.414,123.586,388.414"/>
		<path style="fill:#B0B6BB;" d="M282.483,388.414H158.897c-4.882,0-8.828-3.946-8.828-8.828c0-4.882,3.946-8.828,8.828-8.828
			h123.586c4.882,0,8.828,3.946,8.828,8.828C291.31,384.468,287.364,388.414,282.483,388.414"/>
		<path style="fill:#B0B6BB;" d="M423.724,388.414H317.793c-4.882,0-8.828-3.946-8.828-8.828c0-4.882,3.946-8.828,8.828-8.828
			h105.931c4.882,0,8.828,3.946,8.828,8.828C432.552,384.468,428.606,388.414,423.724,388.414"/>
		<path style="fill:#B0B6BB;" d="M423.724,432.552h-61.793c-4.882,0-8.828-3.946-8.828-8.828c0-4.882,3.946-8.828,8.828-8.828
			h61.793c4.882,0,8.828,3.946,8.828,8.828C432.552,428.606,428.606,432.552,423.724,432.552"/>
		<path style="fill:#B0B6BB;" d="M326.621,432.552H220.69c-4.882,0-8.828-3.946-8.828-8.828c0-4.882,3.946-8.828,8.828-8.828
			h105.931c4.882,0,8.828,3.946,8.828,8.828C335.448,428.606,331.502,432.552,326.621,432.552"/>
		<path style="fill:#B0B6BB;" d="M185.379,432.552H88.276c-4.882,0-8.828-3.946-8.828-8.828c0-4.882,3.946-8.828,8.828-8.828h97.103
			c4.882,0,8.828,3.946,8.828,8.828C194.207,428.606,190.261,432.552,185.379,432.552"/>
		<path style="fill:#B0B6BB;" d="M158.897,476.69H88.276c-4.882,0-8.828-3.946-8.828-8.828c0-4.882,3.946-8.828,8.828-8.828h70.621
			c4.882,0,8.828,3.946,8.828,8.828C167.724,472.744,163.778,476.69,158.897,476.69"/>
		<path style="fill:#B0B6BB;" d="M256,476.69h-61.793c-4.882,0-8.828-3.946-8.828-8.828c0-4.882,3.946-8.828,8.828-8.828H256
			c4.882,0,8.828,3.946,8.828,8.828C264.828,472.744,260.882,476.69,256,476.69"/>
		<path style="fill:#B0B6BB;" d="M423.724,476.69h-44.138c-4.882,0-8.828-3.946-8.828-8.828c0-4.882,3.946-8.828,8.828-8.828h44.138
			c4.882,0,8.828,3.946,8.828,8.828C432.552,472.744,428.606,476.69,423.724,476.69"/>
		<path style="fill:#B0B6BB;" d="M344.276,476.69H291.31c-4.882,0-8.828-3.946-8.828-8.828c0-4.882,3.946-8.828,8.828-8.828h52.966
			c4.882,0,8.828,3.946,8.828,8.828C353.103,472.744,349.158,476.69,344.276,476.69"/>
	</g>
</g>
<g>
</g>
<g>
</g>
<g>
</g>
<g>
</g>
<g>
</g>
<g>
</g>
<g>
</g>
<g>
</g>
<g>
</g>
<g>
</g>
<g>
</g>
<g>
</g>
<g>
</g>
<g>
</g>
<g>
</g>
</svg>
