<?xml version="1.0" encoding="iso-8859-1"?>
<!-- Generator: Adobe Illustrator 19.0.0, SVG Export Plug-In . SVG Version: 6.00 Build 0)  -->
<svg version="1.1" id="Layer_1" xmlns="http://www.w3.org/2000/svg" xmlns:xlink="http://www.w3.org/1999/xlink" x="0px" y="0px"
	 viewBox="0 0 512 512" style="enable-background:new 0 0 512 512;" xml:space="preserve">
<g>
	<polygon style="fill:#E4ECF2;" points="26.483,512 273.655,512 273.655,52.966 26.483,52.966 	"/>
	<g>
		<polygon style="fill:#C8D2DA;" points="273.655,512 485.517,512 485.517,176.552 273.655,176.552 		"/>
		<polygon style="fill:#C8D2DA;" points="88.276,512 211.862,512 211.862,406.069 88.276,406.069 		"/>
		<path style="fill:#C8D2DA;" d="M273.655,52.966H26.483c-9.754,0-17.655-7.901-17.655-17.655V17.655C8.828,7.901,16.728,0,26.483,0
			h247.172c9.754,0,17.655,7.901,17.655,17.655V35.31C291.31,45.065,283.41,52.966,273.655,52.966"/>
	</g>
	<path style="fill:#9EADB7;" d="M273.655,176.552h220.69c4.873,0,8.828-3.955,8.828-8.828v-17.655c0-4.873-3.955-8.828-8.828-8.828
		h-220.69V176.552z"/>
	<g>
		<polygon style="fill:#FFFFFF;" points="61.793,132.414 97.103,132.414 97.103,97.103 61.793,97.103 		"/>
		<polygon style="fill:#FFFFFF;" points="132.414,132.414 167.724,132.414 167.724,97.103 132.414,97.103 		"/>
		<polygon style="fill:#FFFFFF;" points="203.034,132.414 238.345,132.414 238.345,97.103 203.034,97.103 		"/>
		<polygon style="fill:#FFFFFF;" points="61.793,203.034 97.103,203.034 97.103,167.724 61.793,167.724 		"/>
		<polygon style="fill:#FFFFFF;" points="132.414,203.034 167.724,203.034 167.724,167.724 132.414,167.724 		"/>
		<polygon style="fill:#FFFFFF;" points="203.034,203.034 238.345,203.034 238.345,167.724 203.034,167.724 		"/>
		<polygon style="fill:#FFFFFF;" points="61.793,273.655 97.103,273.655 97.103,238.345 61.793,238.345 		"/>
		<polygon style="fill:#FFFFFF;" points="132.414,273.655 167.724,273.655 167.724,238.345 132.414,238.345 		"/>
		<polygon style="fill:#FFFFFF;" points="203.034,273.655 238.345,273.655 238.345,238.345 203.034,238.345 		"/>
		<polygon style="fill:#FFFFFF;" points="61.793,344.276 97.103,344.276 97.103,308.966 61.793,308.966 		"/>
		<polygon style="fill:#FFFFFF;" points="132.414,344.276 167.724,344.276 167.724,308.966 132.414,308.966 		"/>
		<polygon style="fill:#FFFFFF;" points="203.034,344.276 238.345,344.276 238.345,308.966 203.034,308.966 		"/>
		<polygon style="fill:#FFFFFF;" points="414.897,247.172 450.207,247.172 450.207,211.862 414.897,211.862 		"/>
		<polygon style="fill:#FFFFFF;" points="414.897,317.793 450.207,317.793 450.207,282.483 414.897,282.483 		"/>
		<polygon style="fill:#FFFFFF;" points="414.897,388.414 450.207,388.414 450.207,353.103 414.897,353.103 		"/>
		<polygon style="fill:#FFFFFF;" points="344.276,247.172 379.586,247.172 379.586,211.862 344.276,211.862 		"/>
		<polygon style="fill:#FFFFFF;" points="344.276,317.793 379.586,317.793 379.586,282.483 344.276,282.483 		"/>
		<polygon style="fill:#FFFFFF;" points="344.276,388.414 379.586,388.414 379.586,353.103 344.276,353.103 		"/>
		<polygon style="fill:#FFFFFF;" points="273.655,247.172 308.966,247.172 308.966,211.862 273.655,211.862 		"/>
		<polygon style="fill:#FFFFFF;" points="273.655,317.793 308.966,317.793 308.966,282.483 273.655,282.483 		"/>
		<polygon style="fill:#FFFFFF;" points="273.655,388.414 308.966,388.414 308.966,353.103 273.655,353.103 		"/>
	</g>
	<g>
		<polygon style="fill:#9EADB7;" points="141.241,510.897 158.897,510.897 158.897,406.069 141.241,406.069 		"/>
		<path style="fill:#9EADB7;" d="M167.724,467.862h-35.31c-4.873,0-8.828-3.946-8.828-8.828c0-4.882,3.955-8.828,8.828-8.828h35.31
			c4.873,0,8.828,3.946,8.828,8.828C176.552,463.916,172.597,467.862,167.724,467.862"/>
	</g>
</g>
<g>
</g>
<g>
</g>
<g>
</g>
<g>
</g>
<g>
</g>
<g>
</g>
<g>
</g>
<g>
</g>
<g>
</g>
<g>
</g>
<g>
</g>
<g>
</g>
<g>
</g>
<g>
</g>
<g>
</g>
</svg>
