<?xml version="1.0" encoding="iso-8859-1"?>
<!-- Generator: Adobe Illustrator 19.0.0, SVG Export Plug-In . SVG Version: 6.00 Build 0)  -->
<svg version="1.1" id="Layer_1" xmlns="http://www.w3.org/2000/svg" xmlns:xlink="http://www.w3.org/1999/xlink" x="0px" y="0px"
	 viewBox="0 0 511.996 511.996" style="enable-background:new 0 0 511.996 511.996;" xml:space="preserve">
<g>
	<path style="fill:#FD973B;" d="M423.724,175.925v186.624c0,24.038-19.482,43.52-43.511,43.52H194.207l-88.276,97.103v-97.103
		h-62.42C19.482,406.069,0,386.586,0,362.549V175.925c0-24.029,19.482-43.511,43.511-43.511h336.702
		C404.242,132.414,423.724,151.896,423.724,175.925"/>
	<path style="fill:#C4702C;" d="M468.485,8.824H131.792c-24.038,0-43.52,19.482-43.52,43.52v80.066h291.937
		c24.029,0,43.511,19.482,43.511,43.52v106.549h44.765c24.029,0,43.511-19.482,43.511-43.52V52.344
		C511.996,28.307,492.514,8.824,468.485,8.824"/>
	<polygon style="fill:#FFFFFF;" points="211.671,176.548 114.761,273.652 141.244,300.134 211.671,229.514 211.865,229.708 
		212.05,229.514 282.485,300.134 308.968,273.652 	"/>
	<polygon style="fill:#E8E6E6;" points="211.761,229.514 158.892,282.479 158.892,353.1 264.823,353.1 264.823,282.479 	"/>
</g>
<g>
</g>
<g>
</g>
<g>
</g>
<g>
</g>
<g>
</g>
<g>
</g>
<g>
</g>
<g>
</g>
<g>
</g>
<g>
</g>
<g>
</g>
<g>
</g>
<g>
</g>
<g>
</g>
<g>
</g>
</svg>
