<?xml version="1.0" encoding="iso-8859-1"?>
<!-- Generator: Adobe Illustrator 19.0.0, SVG Export Plug-In . SVG Version: 6.00 Build 0)  -->
<svg version="1.1" id="Layer_1" xmlns="http://www.w3.org/2000/svg" xmlns:xlink="http://www.w3.org/1999/xlink" x="0px" y="0px"
	 viewBox="0 0 512 512" style="enable-background:new 0 0 512 512;" xml:space="preserve">
<g>
	<path style="fill:#6D7EA3;" d="M8.678,212.48c-4.79,0-8.678-3.888-8.678-8.678V82.311c0-4.79,3.888-8.678,8.678-8.678h26.034
		c4.79,0,8.678,3.888,8.678,8.678s-3.888,8.678-8.678,8.678H17.356v112.814C17.356,208.592,13.468,212.48,8.678,212.48"/>
	<path style="fill:#F0C419;" d="M130.169,394.978c0-14.379,11.655-26.034,26.034-26.034c0-19.17-15.542-34.712-34.712-34.712H52.068
		c-19.17,0-34.712,15.542-34.712,34.712c14.379,0,26.034,11.655,26.034,26.034c0,14.379-11.655,26.034-26.034,26.034l69.424,86.78
		l69.424-86.78C141.824,421.012,130.169,409.357,130.169,394.978"/>
	<polygon style="fill:#C49B1A;" points="69.424,412.073 78.102,403.395 95.458,403.343 104.136,412.073 104.136,429.429 
		95.458,438.107 78.102,438.107 69.424,429.429 	"/>
	<polygon style="fill:#899ABF;" points="34.712,290.582 138.847,290.582 138.847,56.277 34.712,56.277 	"/>
	<g>
		<path style="fill:#6D7EA3;" d="M130.169,56.277H43.39V28.846c0-13.607,11.03-24.637,24.637-24.637h37.506
			c13.607,0,24.637,11.03,24.637,24.637V56.277z"/>
		<path style="fill:#6D7EA3;" d="M52.068,334.232h69.424v-43.65H52.068v43.659C51.981,334.241,52.024,334.232,52.068,334.232"/>
	</g>
	<polygon style="fill:#EEECDE;" points="182.237,472.819 512,472.819 512,4.209 182.237,4.209 	"/>
	<g>
		<path style="fill:#D2C1A3;" d="M321.085,151.734c-4.79,0-8.678-3.888-8.678-8.678V82.311c0-4.79,3.888-8.678,8.678-8.678
			s8.678,3.888,8.678,8.678v60.746C329.763,147.847,325.875,151.734,321.085,151.734"/>
		<path style="fill:#D2C1A3;" d="M373.153,151.734c-4.79,0-8.678-3.888-8.678-8.678V82.311c0-4.79,3.888-8.678,8.678-8.678
			c4.79,0,8.678,3.888,8.678,8.678v60.746C381.831,147.847,377.943,151.734,373.153,151.734"/>
		<path style="fill:#D2C1A3;" d="M399.186,117.022c-2.222,0-4.443-0.85-6.135-2.543l-45.932-45.932l-45.932,45.932
			c-3.393,3.393-8.878,3.393-12.271,0c-3.393-3.393-3.393-8.878,0-12.271l52.068-52.068c3.393-3.393,8.878-3.393,12.271,0
			l52.068,52.068c3.393,3.393,3.393,8.878,0,12.271C403.63,116.172,401.408,117.022,399.186,117.022"/>
		<path style="fill:#D2C1A3;" d="M477.288,221.158h-95.458c-4.79,0-8.678-3.888-8.678-8.678s3.888-8.678,8.678-8.678h95.458
			c4.79,0,8.678,3.888,8.678,8.678S482.078,221.158,477.288,221.158"/>
		<path style="fill:#D2C1A3;" d="M260.339,221.158h-43.39c-4.79,0-8.678-3.888-8.678-8.678s3.888-8.678,8.678-8.678h43.39
			c4.79,0,8.678,3.888,8.678,8.678S265.129,221.158,260.339,221.158"/>
		<path style="fill:#D2C1A3;" d="M381.831,255.87h-69.424c-4.79,0-8.678-3.888-8.678-8.678s3.888-8.678,8.678-8.678h69.424
			c4.79,0,8.678,3.888,8.678,8.678S386.621,255.87,381.831,255.87"/>
		<path style="fill:#D2C1A3;" d="M277.695,255.87h-60.746c-4.79,0-8.678-3.888-8.678-8.678s3.888-8.678,8.678-8.678h60.746
			c4.79,0,8.678,3.888,8.678,8.678S282.485,255.87,277.695,255.87"/>
		<path style="fill:#D2C1A3;" d="M477.288,290.582H347.119c-4.79,0-8.678-3.888-8.678-8.678c0-4.79,3.888-8.678,8.678-8.678h130.169
			c4.79,0,8.678,3.888,8.678,8.678C485.966,286.694,482.078,290.582,477.288,290.582"/>
		<path style="fill:#D2C1A3;" d="M312.407,290.582h-95.458c-4.79,0-8.678-3.888-8.678-8.678c0-4.79,3.888-8.678,8.678-8.678h95.458
			c4.79,0,8.678,3.888,8.678,8.678C321.085,286.694,317.197,290.582,312.407,290.582"/>
		<path style="fill:#D2C1A3;" d="M477.288,325.294H425.22c-4.79,0-8.678-3.888-8.678-8.678s3.888-8.678,8.678-8.678h52.068
			c4.79,0,8.678,3.888,8.678,8.678S482.078,325.294,477.288,325.294"/>
		<path style="fill:#D2C1A3;" d="M477.288,429.429h-95.458c-4.79,0-8.678-3.888-8.678-8.678s3.888-8.678,8.678-8.678h95.458
			c4.79,0,8.678,3.888,8.678,8.678S482.078,429.429,477.288,429.429"/>
		<path style="fill:#D2C1A3;" d="M390.508,325.294h-60.746c-4.79,0-8.678-3.888-8.678-8.678s3.888-8.678,8.678-8.678h60.746
			c4.79,0,8.678,3.888,8.678,8.678S395.299,325.294,390.508,325.294"/>
		<path style="fill:#D2C1A3;" d="M295.051,325.294h-78.102c-4.79,0-8.678-3.888-8.678-8.678s3.888-8.678,8.678-8.678h78.102
			c4.79,0,8.678,3.888,8.678,8.678S299.841,325.294,295.051,325.294"/>
		<path style="fill:#D2C1A3;" d="M468.61,403.395c-2.222,0-4.443-0.85-6.135-2.543l-13.52-13.52
			c-8.583,2.091-21.383,1.788-33.289-7.637l-20.341,13.564c-4.001,2.664-9.372,1.571-12.036-2.404
			c-2.655-3.992-1.579-9.381,2.404-12.036l26.034-17.356c3.558-2.36,8.296-1.805,11.186,1.328c11.958,12.939,24.29,6.89,24.411,6.83
			c3.367-1.692,7.42-1.05,10.066,1.605l17.356,17.356c3.393,3.393,3.393,8.878,0,12.271
			C473.053,402.545,470.832,403.395,468.61,403.395"/>
		<path style="fill:#D2C1A3;" d="M347.119,221.158h-52.068c-4.79,0-8.678-3.888-8.678-8.678s3.888-8.678,8.678-8.678h52.068
			c4.79,0,8.678,3.888,8.678,8.678S351.909,221.158,347.119,221.158"/>
		<path style="fill:#D2C1A3;" d="M477.288,255.87h-60.746c-4.79,0-8.678-3.888-8.678-8.678s3.888-8.678,8.678-8.678h60.746
			c4.79,0,8.678,3.888,8.678,8.678S482.078,255.87,477.288,255.87"/>
	</g>
	<polygon style="fill:#C49B1A;" points="86.78,507.791 95.484,496.909 95.518,429.438 78.162,429.429 78.128,496.978 	"/>
	<g>
		<polygon style="fill:#6D7EA3;" points="34.712,143.056 138.847,143.056 138.847,125.7 34.712,125.7 		"/>
		<path style="fill:#6D7EA3;" d="M77.975,171.116h-43.26v17.356h43.26c4.79,0,8.678-3.888,8.678-8.678
			S82.765,171.116,77.975,171.116"/>
		<path style="fill:#6D7EA3;" d="M69.297,210.709H34.715v17.356h34.582c4.79,0,8.678-3.888,8.678-8.678
			S74.087,210.709,69.297,210.709"/>
	</g>
</g>
<g>
</g>
<g>
</g>
<g>
</g>
<g>
</g>
<g>
</g>
<g>
</g>
<g>
</g>
<g>
</g>
<g>
</g>
<g>
</g>
<g>
</g>
<g>
</g>
<g>
</g>
<g>
</g>
<g>
</g>
</svg>
