<?xml version="1.0" encoding="iso-8859-1"?>
<!-- Generator: Adobe Illustrator 19.0.0, SVG Export Plug-In . SVG Version: 6.00 Build 0)  -->
<svg version="1.1" id="Layer_1" xmlns="http://www.w3.org/2000/svg" xmlns:xlink="http://www.w3.org/1999/xlink" x="0px" y="0px"
	 viewBox="0 0 512 512" style="enable-background:new 0 0 512 512;" xml:space="preserve">
<g>
	<g>
		<polygon style="fill:#DBB5AC;" points="26.483,512 141.241,512 141.241,203.034 26.483,260.414 		"/>
		<polygon style="fill:#DBB5AC;" points="370.759,203.034 370.759,512 485.517,512 485.517,260.414 		"/>
	</g>
	<polygon style="fill:#BF7460;" points="256,44.138 141.241,101.517 141.241,512 370.759,512 370.759,101.517 	"/>
	<g>
		<polygon style="fill:#366A7D;" points="194.207,203.034 317.793,203.034 317.793,114.759 194.207,114.759 		"/>
		<polygon style="fill:#366A7D;" points="194.207,335.448 317.793,335.448 317.793,247.172 194.207,247.172 		"/>
	</g>
	<g>
		<polygon style="fill:#235360;" points="247.172,203.034 264.828,203.034 264.828,114.759 247.172,114.759 		"/>
		<polygon style="fill:#235360;" points="194.207,167.724 317.793,167.724 317.793,150.069 194.207,150.069 		"/>
	</g>
	<path style="fill:#A05748;" d="M326.621,211.862H185.379c-4.882,0-8.828-3.955-8.828-8.828c0-4.873,3.946-8.828,8.828-8.828
		h141.241c4.882,0,8.828,3.955,8.828,8.828C335.448,207.907,331.502,211.862,326.621,211.862"/>
	<g>
		<polygon style="fill:#235360;" points="247.172,335.448 264.828,335.448 264.828,247.172 247.172,247.172 		"/>
		<polygon style="fill:#235360;" points="194.207,300.138 317.793,300.138 317.793,282.483 194.207,282.483 		"/>
	</g>
	<path style="fill:#A05748;" d="M326.621,344.276H185.379c-4.882,0-8.828-3.955-8.828-8.828s3.946-8.828,8.828-8.828h141.241
		c4.882,0,8.828,3.955,8.828,8.828S331.502,344.276,326.621,344.276"/>
	<g>
		<polygon style="fill:#366A7D;" points="70.621,361.931 141.241,361.931 141.241,273.655 70.621,273.655 		"/>
		<polygon style="fill:#366A7D;" points="70.621,476.69 141.241,476.69 141.241,388.414 70.621,388.414 		"/>
		<polygon style="fill:#366A7D;" points="370.759,361.931 441.379,361.931 441.379,273.655 370.759,273.655 		"/>
		<polygon style="fill:#366A7D;" points="370.759,476.69 441.379,476.69 441.379,388.414 370.759,388.414 		"/>
	</g>
	<polygon style="fill:#DBB5AC;" points="256,0 114.759,70.621 114.759,114.759 256,44.138 397.241,114.759 397.241,70.621 	"/>
	<g>
		<polygon style="fill:#A05748;" points="141.241,158.897 0,229.517 0,273.655 141.241,203.034 		"/>
		<polygon style="fill:#A05748;" points="370.759,158.897 512,229.517 512,273.655 370.759,203.034 		"/>
	</g>
	<polygon style="fill:#366A7D;" points="203.034,512 308.966,512 308.966,388.414 203.034,388.414 	"/>
	<g>
		<polygon style="fill:#235360;" points="70.621,326.621 141.241,326.621 141.241,308.966 70.621,308.966 		"/>
		<polygon style="fill:#235360;" points="70.621,441.379 141.241,441.379 141.241,423.724 70.621,423.724 		"/>
		<polygon style="fill:#235360;" points="370.759,326.621 441.379,326.621 441.379,308.966 370.759,308.966 		"/>
		<polygon style="fill:#235360;" points="370.759,441.379 441.379,441.379 441.379,423.724 370.759,423.724 		"/>
		<polygon style="fill:#235360;" points="247.172,511.991 264.828,511.991 264.828,388.414 247.172,388.414 		"/>
		<path style="fill:#235360;" d="M264.828,459.034h-17.655c-4.882,0-8.828-3.955-8.828-8.828c0-4.873,3.946-8.828,8.828-8.828
			h17.655c4.882,0,8.828,3.955,8.828,8.828C273.655,455.08,269.709,459.034,264.828,459.034"/>
	</g>
</g>
<g>
</g>
<g>
</g>
<g>
</g>
<g>
</g>
<g>
</g>
<g>
</g>
<g>
</g>
<g>
</g>
<g>
</g>
<g>
</g>
<g>
</g>
<g>
</g>
<g>
</g>
<g>
</g>
<g>
</g>
</svg>
