<?xml version="1.0" encoding="iso-8859-1"?>
<!-- Generator: Adobe Illustrator 19.0.0, SVG Export Plug-In . SVG Version: 6.00 Build 0)  -->
<svg version="1.1" id="Layer_1" xmlns="http://www.w3.org/2000/svg" xmlns:xlink="http://www.w3.org/1999/xlink" x="0px" y="0px"
	 viewBox="0 0 512 512" style="enable-background:new 0 0 512 512;" xml:space="preserve">
<g transform="translate(-1)">
	<path style="fill:#48A0DC;" d="M142.279,88.276V35.31h17.655V0H54.003v35.31h17.655v114.759l-49.364,42.805
		c-7.477,6.63-2.781,18.988,7.212,18.988h42.152V476.69H54.003V512h405.998l0.071-35.31h-17.655V211.862h42.214
		c9.869,0,14.504-12.209,7.124-18.759L288.684,12.959c-17.752-17.09-45.833-17.09-63.576,0L142.279,88.276z"/>
	<path style="fill:#FFFFFF;" d="M398.279,308.966c0-78.009-63.232-141.241-141.241-141.241s-141.241,63.232-141.241,141.241
		s63.232,141.241,141.241,141.241S398.279,386.975,398.279,308.966"/>
	<g>
		<path style="fill:#F0C419;" d="M301.175,397.241H195.244c-4.873,0-8.828-3.955-8.828-8.828s3.955-8.828,8.828-8.828
			c24.523,0,26.359-24.099,26.492-26.854l-0.009-105.56c0-24.338,19.8-44.138,44.138-44.138s44.138,19.8,44.138,44.138
			c0,4.873-3.955,8.828-8.828,8.828s-8.828-3.955-8.828-8.828c0-14.601-11.882-26.483-26.483-26.483
			c-14.601,0-26.483,11.882-26.483,26.483v105.931c-0.265,7.353-2.648,17.664-8.669,26.483h70.462
			c12.376,0,17.655-5.279,17.655-17.655c0-4.873,3.955-8.828,8.828-8.828s8.828,3.955,8.828,8.828
			C336.485,384.044,323.288,397.241,301.175,397.241"/>
		<path style="fill:#F0C419;" d="M265.865,308.966h-70.621c-4.873,0-8.828-3.955-8.828-8.828c0-4.873,3.955-8.828,8.828-8.828
			h70.621c4.873,0,8.828,3.955,8.828,8.828C274.692,305.011,270.738,308.966,265.865,308.966"/>
	</g>
</g>
<g>
</g>
<g>
</g>
<g>
</g>
<g>
</g>
<g>
</g>
<g>
</g>
<g>
</g>
<g>
</g>
<g>
</g>
<g>
</g>
<g>
</g>
<g>
</g>
<g>
</g>
<g>
</g>
<g>
</g>
</svg>
