<?xml version="1.0" encoding="iso-8859-1"?>
<!-- Generator: Adobe Illustrator 19.0.0, SVG Export Plug-In . SVG Version: 6.00 Build 0)  -->
<svg version="1.1" id="Layer_1" xmlns="http://www.w3.org/2000/svg" xmlns:xlink="http://www.w3.org/1999/xlink" x="0px" y="0px"
	 viewBox="0 0 512.003 512.003" style="enable-background:new 0 0 512.003 512.003;" xml:space="preserve">
<g>
	<path style="fill:#CB8252;" d="M308.967,296.28c-15.236,13.559-33.412,21.513-52.966,21.513s-37.729-7.954-52.965-21.513v56.823
		c-21.01,0-50.626,3.584-79.448,10.496V132.414C123.588,59.286,182.874,0,256.001,0s132.414,59.286,132.414,132.414v231.186
		c-28.822-6.912-58.439-10.496-79.448-10.496V296.28z"/>
	<path style="fill:#FDC794;" d="M203.036,88.279c5.791,28.69,11.997,52.966,44.138,52.966h105.931v44.138
		c0,73.128-43.476,132.414-97.103,132.414s-97.103-59.286-97.103-132.414v-44.138C177.286,139.037,196.565,127.782,203.036,88.279"
		/>
	<path style="fill:#CE9A6F;" d="M256.001,317.796c-19.553,0-37.729-7.954-52.965-21.513v56.823l105.931,0.247v-57.07
		C293.73,309.842,275.554,317.796,256.001,317.796"/>
	<path style="fill:#4FBA6F;" d="M490.48,404.021c-8.501-4.476-16.931-8.783-25.273-12.879
		c-48.711-23.896-102.065-36.529-156.239-37.791l-105.931-0.247c-54.175,1.262-107.529,14.142-156.239,38.038
		c-8.342,4.096-16.772,8.404-25.273,12.879c-13.224,6.965-21.522,20.718-21.522,35.663V512h256v-0.079l256,0.079v-72.316
		C512.001,424.739,503.703,410.986,490.48,404.021"/>
	<path style="fill:#FDC794;" d="M256.056,511.923l105.702-153.556c-17.426-2.842-35.054-4.599-52.789-5.014l-105.931-0.247
		c-17.752,0.415-35.399,2.198-52.833,5.085l-0.035,0.062l105.834,153.75v-0.079H256.056z"/>
	<g>
		<polygon style="fill:#37914E;" points="256.001,512.003 114.76,423.727 150.167,358.253 		"/>
		<polygon style="fill:#37914E;" points="256.001,512.003 397.243,423.727 361.835,358.253 		"/>
	</g>
	<path style="fill:#F9A471;" d="M282.484,423.727c-10.593,0-20.003,4.785-26.483,12.2c-6.479-7.415-15.89-12.2-26.483-12.2
		c-4.873,0-8.828,3.946-8.828,8.828c0,4.882,3.955,8.828,8.828,8.828c9.737,0,17.655,7.918,17.655,17.655v40.139l8.775,12.747h0.106
		l8.775-12.747v-40.139c0-9.737,7.918-17.655,17.655-17.655c4.873,0,8.828-3.946,8.828-8.828
		C291.312,427.673,287.357,423.727,282.484,423.727"/>
	<g>
		<path style="fill:#37914E;" d="M397.243,511.967v-35.275c0-4.882-3.955-8.828-8.828-8.828c-4.873,0-8.828,3.946-8.828,8.828
			v35.266L397.243,511.967z"/>
		<path style="fill:#37914E;" d="M123.588,467.865c-4.873,0-8.828,3.946-8.828,8.828v35.31h17.655v-35.31
			C132.415,471.811,128.46,467.865,123.588,467.865"/>
	</g>
</g>
<g>
</g>
<g>
</g>
<g>
</g>
<g>
</g>
<g>
</g>
<g>
</g>
<g>
</g>
<g>
</g>
<g>
</g>
<g>
</g>
<g>
</g>
<g>
</g>
<g>
</g>
<g>
</g>
<g>
</g>
</svg>
