<?xml version="1.0" encoding="iso-8859-1"?>
<!-- Generator: Adobe Illustrator 19.0.0, SVG Export Plug-In . SVG Version: 6.00 Build 0)  -->
<svg version="1.1" id="Layer_1" xmlns="http://www.w3.org/2000/svg" xmlns:xlink="http://www.w3.org/1999/xlink" x="0px" y="0px"
	 viewBox="0 0 512 512" style="enable-background:new 0 0 512 512;" xml:space="preserve">
<g>
	<polygon style="fill:#B4C1E7;" points="70.621,476.69 441.379,476.69 441.379,0 70.621,0 	"/>
	<polygon style="fill:#24AE5F;" points="255.808,88.276 158.899,185.379 185.382,211.862 255.808,141.241 256.003,141.436 
		256.188,141.241 326.623,211.862 353.106,185.379 	"/>
	<polygon style="fill:#1F894A;" points="255.898,141.241 203.03,194.207 203.03,264.828 308.961,264.828 308.961,194.207 	"/>
	<polygon style="fill:#AFB6BB;" points="494.345,512 17.655,512 0,476.69 512,476.69 	"/>
	<g>
		<path style="fill:#E8EDEE;" d="M44.138,132.414c-9.746,0-17.655,7.901-17.655,17.655V476.69h44.138V132.414H44.138z"/>
		<path style="fill:#E8EDEE;" d="M467.862,132.414h-26.483V476.69h44.138V150.069C485.517,140.314,477.608,132.414,467.862,132.414"
			/>
	</g>
	<polygon style="fill:#8697CB;" points="70.621,52.966 441.379,52.966 441.379,0 70.621,0 	"/>
	<path style="fill:#D75A4A;" d="M123.586,26.483c0-4.873-3.955-8.828-8.828-8.828s-8.828,3.955-8.828,8.828s3.955,8.828,8.828,8.828
		S123.586,31.356,123.586,26.483"/>
	<path style="fill:#F0C419;" d="M158.897,26.483c0-4.873-3.955-8.828-8.828-8.828c-4.873,0-8.828,3.955-8.828,8.828
		s3.955,8.828,8.828,8.828C154.942,35.31,158.897,31.356,158.897,26.483"/>
	<path style="fill:#24AE5F;" d="M194.207,26.483c0-4.873-3.955-8.828-8.828-8.828c-4.873,0-8.828,3.955-8.828,8.828
		s3.955,8.828,8.828,8.828C190.252,35.31,194.207,31.356,194.207,26.483"/>
	<polygon style="fill:#D75A4A;" points="123.586,361.931 176.552,361.931 176.552,308.966 123.586,308.966 	"/>
	<g>
		<path style="fill:#8697CB;" d="M388.414,326.621H273.655c-4.882,0-8.828-3.946-8.828-8.828c0-4.882,3.946-8.828,8.828-8.828
			h114.759c4.882,0,8.828,3.946,8.828,8.828C397.241,322.675,393.295,326.621,388.414,326.621"/>
		<path style="fill:#8697CB;" d="M238.345,326.621h-26.483c-4.882,0-8.828-3.946-8.828-8.828c0-4.882,3.946-8.828,8.828-8.828
			h26.483c4.882,0,8.828,3.946,8.828,8.828C247.172,322.675,243.226,326.621,238.345,326.621"/>
		<path style="fill:#8697CB;" d="M388.414,361.931h-35.31c-4.882,0-8.828-3.946-8.828-8.828c0-4.882,3.946-8.828,8.828-8.828h35.31
			c4.882,0,8.828,3.946,8.828,8.828C397.241,357.985,393.295,361.931,388.414,361.931"/>
		<path style="fill:#8697CB;" d="M317.793,361.931H211.862c-4.882,0-8.828-3.946-8.828-8.828c0-4.882,3.946-8.828,8.828-8.828
			h105.931c4.882,0,8.828,3.946,8.828,8.828C326.621,357.985,322.675,361.931,317.793,361.931"/>
	</g>
	<polygon style="fill:#F0C419;" points="123.586,450.207 176.552,450.207 176.552,397.241 123.586,397.241 	"/>
	<g>
		<path style="fill:#8697CB;" d="M388.414,414.897H273.655c-4.882,0-8.828-3.946-8.828-8.828c0-4.882,3.946-8.828,8.828-8.828
			h114.759c4.882,0,8.828,3.946,8.828,8.828C397.241,410.951,393.295,414.897,388.414,414.897"/>
		<path style="fill:#8697CB;" d="M238.345,414.897h-26.483c-4.882,0-8.828-3.946-8.828-8.828c0-4.882,3.946-8.828,8.828-8.828
			h26.483c4.882,0,8.828,3.946,8.828,8.828C247.172,410.951,243.226,414.897,238.345,414.897"/>
		<path style="fill:#8697CB;" d="M388.414,450.207h-35.31c-4.882,0-8.828-3.946-8.828-8.828c0-4.882,3.946-8.828,8.828-8.828h35.31
			c4.882,0,8.828,3.946,8.828,8.828C397.241,446.261,393.295,450.207,388.414,450.207"/>
		<path style="fill:#8697CB;" d="M317.793,450.207H211.862c-4.882,0-8.828-3.946-8.828-8.828c0-4.882,3.946-8.828,8.828-8.828
			h105.931c4.882,0,8.828,3.946,8.828,8.828C326.621,446.261,322.675,450.207,317.793,450.207"/>
	</g>
</g>
<g>
</g>
<g>
</g>
<g>
</g>
<g>
</g>
<g>
</g>
<g>
</g>
<g>
</g>
<g>
</g>
<g>
</g>
<g>
</g>
<g>
</g>
<g>
</g>
<g>
</g>
<g>
</g>
<g>
</g>
</svg>
