<?xml version="1.0" encoding="iso-8859-1"?>
<!-- Generator: Adobe Illustrator 19.0.0, SVG Export Plug-In . SVG Version: 6.00 Build 0)  -->
<svg version="1.1" id="Capa_1" xmlns="http://www.w3.org/2000/svg" xmlns:xlink="http://www.w3.org/1999/xlink" x="0px" y="0px"
	 viewBox="0 0 512 512" style="enable-background:new 0 0 512 512;" xml:space="preserve">
<g>
	<g>
		<path style="fill:#8697CB;" d="M70.621,0H17.655C7.916,0.028,0.028,7.916,0,17.655v476.69c0.029,9.739,7.916,17.627,17.655,17.655
			h52.966c9.739-0.029,17.627-7.916,17.655-17.655V17.655C88.247,7.916,80.36,0.028,70.621,0z"/>
		<path style="fill:#8697CB;" d="M211.862,88.276h-52.966c-9.739,0.028-17.627,7.916-17.655,17.655v388.414
			c0.029,9.739,7.916,17.627,17.655,17.655h52.966c9.739-0.029,17.627-7.916,17.655-17.655V105.931
			C229.489,96.192,221.601,88.304,211.862,88.276z"/>
		<path style="fill:#8697CB;" d="M353.103,176.552h-52.966c-9.739,0.028-17.627,7.916-17.655,17.655v300.138
			c0.029,9.739,7.916,17.627,17.655,17.655h52.966c9.739-0.029,17.626-7.916,17.655-17.655V194.207
			C370.73,184.468,362.842,176.58,353.103,176.552z"/>
		<path style="fill:#8697CB;" d="M494.345,264.828h-52.966c-9.739,0.028-17.627,7.916-17.655,17.655v211.862
			c0.029,9.739,7.916,17.627,17.655,17.655h52.966c9.739-0.029,17.627-7.916,17.655-17.655V282.483
			C511.972,272.744,504.084,264.856,494.345,264.828z"/>
	</g>
	<g>
		<path style="fill:#F29C1F;" d="M88.276,308.966v185.379c-0.029,9.739-7.916,17.627-17.655,17.655H17.655
			C7.916,511.971,0.029,504.084,0,494.345v-97.103L88.276,308.966z"/>
		<path style="fill:#F29C1F;" d="M229.517,308.966v185.379c-0.029,9.739-7.916,17.627-17.655,17.655h-52.966
			c-9.739-0.029-17.627-7.916-17.655-17.655v-97.103L229.517,308.966z"/>
		<path style="fill:#F29C1F;" d="M370.759,308.966v185.379c-0.029,9.739-7.916,17.627-17.655,17.655h-52.966
			c-9.739-0.029-17.627-7.916-17.655-17.655v-97.103L370.759,308.966z"/>
		<path style="fill:#F29C1F;" d="M512,308.966v185.379c-0.029,9.739-7.916,17.627-17.655,17.655h-52.966
			c-9.739-0.029-17.626-7.916-17.655-17.655v-97.103L512,308.966z"/>
	</g>
</g>
<g>
</g>
<g>
</g>
<g>
</g>
<g>
</g>
<g>
</g>
<g>
</g>
<g>
</g>
<g>
</g>
<g>
</g>
<g>
</g>
<g>
</g>
<g>
</g>
<g>
</g>
<g>
</g>
<g>
</g>
</svg>
