<svg id="Capa_1" enable-background="new 0 0 512 512" height="512" viewBox="0 0 512 512" width="512" xmlns="http://www.w3.org/2000/svg"><path d="m476.656 88.512h-148.346v-84.512c0-2.209 1.791-4 4-4h140.346c2.209 0 4 1.791 4 4z" fill="#ebad88"/><path d="m445.75 0v88.512h30.905v-84.512c0-2.209-1.791-4-4-4z" fill="#e8916f"/><path d="m294.771 88.512v183.877c0 3.822-3.099 6.921-6.921 6.921h-168.76c-60.651 0-109.819 49.168-109.819 109.819v91.966h493.457v-392.583z" fill="#ffd740"/><path d="m471.823 88.512h30.905v369.918h-30.905z" fill="#ffca28"/><path d="m0 466.672v35.026c0 5.69 4.612 10.302 10.302 10.302h213.581c6.328 0 12.396-2.519 16.863-7.002l14.906-14.957c3.079-3.089 7.261-4.826 11.623-4.826h49.599c3.027 0 5.481 2.454 5.481 5.481v17.183c0 2.276 1.845 4.121 4.121 4.121h175.223c5.69 0 10.302-4.612 10.302-10.302v-35.026c0-4.552-3.69-8.241-8.241-8.241h-495.519c-4.551 0-8.241 3.689-8.241 8.241z" fill="#4380a0"/><path d="m503.759 458.431h-30.905c4.552 0 8.241 3.69 8.241 8.241v35.026c0 5.69-4.612 10.302-10.302 10.302h30.905c5.69 0 10.302-4.612 10.302-10.302v-35.026c0-4.552-3.69-8.241-8.241-8.241z" fill="#3b7191"/><path d="m502.728 458.431h-103.018v-31.936c0-22.189 17.988-40.177 40.177-40.177h62.841z" fill="#ffa000"/><path d="m471.823 386.318h30.905v72.113h-30.905z" fill="#f57f17"/><path d="m440.918 175.646v30.905c0 8.534 6.918 15.453 15.453 15.453 8.534 0 15.453-6.918 15.453-15.453v-30.905c0-8.534-6.918-15.453-15.453-15.453-8.535 0-15.453 6.919-15.453 15.453z" fill="#f57f17"/><path d="m440.918 284.771v30.905c0 8.534 6.918 15.453 15.453 15.453 8.534 0 15.453-6.918 15.453-15.453v-30.905c0-8.534-6.918-15.453-15.453-15.453-8.535 0-15.453 6.918-15.453 15.453z" fill="#f57f17"/><g fill="#ffa000"><path d="m163.109 315.544c-8.534 0-15.453-6.918-15.453-15.453v-30.905c0-8.534 6.918-15.453 15.453-15.453 8.534 0 15.453 6.918 15.453 15.453v30.905c0 8.534-6.918 15.453-15.453 15.453z"/><path d="m221.236 315.544c-8.534 0-15.453-6.918-15.453-15.453v-30.905c0-8.534 6.918-15.453 15.453-15.453 8.534 0 15.453 6.918 15.453 15.453v30.905c0 8.534-6.918 15.453-15.453 15.453z"/><path d="m279.364 315.544c-8.534 0-15.453-6.918-15.453-15.453v-30.905c0-8.534 6.918-15.453 15.453-15.453 8.534 0 15.453 6.918 15.453 15.453v30.905c-.001 8.534-6.919 15.453-15.453 15.453z"/><path d="m269.322 152.148c0-8.534 6.918-15.453 15.453-15.453h30.905c8.534 0 15.453 6.918 15.453 15.453 0 8.534-6.918 15.453-15.453 15.453h-30.905c-8.534 0-15.453-6.919-15.453-15.453z"/><path d="m269.322 210.275c0-8.534 6.918-15.453 15.453-15.453h30.905c8.534 0 15.453 6.918 15.453 15.453 0 8.534-6.918 15.453-15.453 15.453h-30.905c-8.534 0-15.453-6.918-15.453-15.453z"/></g><path d="m502.728 108.69h-221.998c-3.414 0-6.181-2.767-6.181-6.181v-27.994c0-3.414 2.767-6.181 6.181-6.181h217.998c2.209 0 4 1.791 4 4z" fill="#4380a0"/><path d="m471.823 68.334v40.356h30.905v-36.356c0-2.209-1.791-4-4-4z" fill="#3b7191"/><path d="m112.29 458.431h-103.018v-72.113h62.845c22.187 0 40.173 17.986 40.173 40.173z" fill="#ffa000"/></svg>