<svg id="Capa_1" enable-background="new 0 0 512 512" height="512" viewBox="0 0 512 512" width="512" xmlns="http://www.w3.org/2000/svg"><path d="m373.649 452.981h-125.793c-37.52 0-67.937-30.416-67.937-67.937v-1.402c0-56.556 45.848-102.403 102.403-102.403h56.859c56.556 0 102.403 45.848 102.403 102.403v1.402c.001 37.521-30.415 67.937-67.935 67.937z" fill="#bf6724"/><path d="m340.018 281.239h-30.905c56.094 0 101.568 46.225 101.568 103.246 0 37.829-30.168 68.496-67.382 68.496h30.905c37.214 0 67.382-30.667 67.382-68.496 0-57.021-45.474-103.246-101.568-103.246z" fill="#a35418"/><path d="m150.413 303.139v136.46c0 6.826-5.463 12.359-12.203 12.359h-77.722c-6.74 0-12.203-5.533-12.203-12.359v-136.331c0-11.936 3.684-23.573 10.536-33.284l8.393-11.894c6.852-9.711 10.536-21.348 10.536-33.284v-45.87h43.45v45.999c0 11.856 3.635 23.419 10.402 33.093l8.407 12.018c6.77 9.674 10.404 21.237 10.404 33.093z" fill="#bdf9ff"/><path d="m140.011 270.046-8.407-12.018c-6.768-9.674-10.402-21.237-10.402-33.093v-45.999h-30.906v45.999c0 11.856 3.635 23.419 10.402 33.093l8.407 12.018c6.768 9.674 10.402 21.237 10.402 33.093v136.46c0 6.825-5.464 12.359-12.203 12.359h30.905c6.739 0 12.203-5.533 12.203-12.359v-136.46c.001-11.856-3.633-23.42-10.401-33.093z" fill="#8cf2ff"/><path d="m121.71 182.901h-44.72c-1.752 0-3.172-1.42-3.172-3.172v-27.841c0-1.763 1.429-3.191 3.191-3.191h44.681c1.763 0 3.191 1.429 3.191 3.191v27.841c0 1.752-1.42 3.172-3.171 3.172z" fill="#ffa000"/><path d="m121.69 148.697h-30.906c1.763 0 3.192 1.429 3.192 3.192v27.841c0 1.752-1.42 3.172-3.172 3.172h30.905c1.752 0 3.172-1.42 3.172-3.172v-27.841c0-1.763-1.429-3.192-3.191-3.192z" fill="#f57f17"/><path d="m48.285 317.443h102.128v95.88h-102.128z" fill="#ffa000"/><path d="m119.508 317.443h30.905v95.88h-30.905z" fill="#f57f17"/><path d="m27.243 14.891 91.492 15.018-58.419 80.742c-.966 1.335-3.042.995-3.53-.579z" fill="#ffa000"/><path d="m138.584 32.619 92.508 6.208-50.438 85.954c-.834 1.421-2.933 1.281-3.57-.24z" fill="#f44336"/><path d="m484.385 14.891-91.492 15.018 58.419 80.742c.966 1.335 3.042.995 3.53-.579z" fill="#d35d3f"/><path d="m373.044 32.619-92.508 6.208 50.438 85.954c.834 1.421 2.933 1.281 3.57-.24z" fill="#ffd740"/><path d="m511.794 5.768c-.959-4.029-5.003-6.52-9.032-5.56-1.29.307-123.157 30.701-246.948 30.701s-245.286-30.394-246.576-30.701c-4.032-.967-8.074 1.529-9.032 5.56-.959 4.029 1.53 8.073 5.559 9.032 1.307.312 124.454 31.109 250.049 31.109s249.114-30.798 250.421-31.109c4.03-.959 6.518-5.003 5.559-9.032z" fill="#8c4815"/><path d="m403.725 512h-295.45c-11.375 0-20.596-9.221-20.596-20.596v-24.861h336.642v24.861c0 11.375-9.221 20.596-20.596 20.596z" fill="#f2cdae"/><path d="m471.281 481.106h-430.562c-14.756 0-26.719-11.962-26.719-26.719v-.176c0-2.208 1.79-3.998 3.998-3.998h476.003c2.208 0 3.998 1.79 3.998 3.998v.176c.001 14.757-11.962 26.719-26.718 26.719z" fill="#ffe8cf"/><path d="m467.106 450.213v4.174c0 14.757-11.963 26.72-26.719 26.72h30.893c14.757 0 26.72-11.963 26.72-26.72v-.175c0-2.208-1.79-3.998-3.998-3.998h-26.896z" fill="#f2cdae"/><path d="m479.068 237.482c9.471 8.329 9.8 22.799.993 31.606-3.534 3.534-7.986 5.596-12.586 6.182-3.495.446-6.704 2.173-9.197 4.666l-33.905 33.905-21.47-21.47 36.627-36.627c2.009-2.009 3.546-4.478 4.239-7.231.978-3.885 3.05-7.552 6.211-10.517 8.064-7.565 20.803-7.799 29.088-.514z" fill="#ffe8cf"/><path d="m432.999 344.559-23.48 23.48c-15.467 15.467-40.777 15.467-56.245 0l-2.759-2.759c-15.467-15.467-15.467-40.777 0-56.245l23.48-23.48c13.286-13.286 35.027-13.286 48.313 0l10.691 10.691c13.287 13.286 13.287 35.027 0 48.313z" fill="#a35418"/><path d="m433 296.246-10.691-10.691c-10.671-10.671-26.792-12.763-39.609-6.294 3.142 1.586 6.088 3.678 8.704 6.294l10.691 10.691c13.286 13.286 13.286 35.027 0 48.313l-23.48 23.48c-3.74 3.739-8.058 6.566-12.67 8.497 14.464 6.057 31.847 3.23 43.575-8.497l23.48-23.48c13.285-13.286 13.285-35.027 0-48.313z" fill="#8c4815"/></svg>