<svg id="Capa_1" enable-background="new 0 0 512 512" height="512" viewBox="0 0 512 512" width="512" xmlns="http://www.w3.org/2000/svg"><path d="m454.251 150.232c-.779-9.885-15.733-8.723-14.954 1.177.034.429 3.318 43.553-1.571 101.892-4.502 53.711-17.05 131.501-51.266 197.072-4.617 8.849 8.722 15.707 13.299 6.939 35.37-67.784 48.297-147.675 52.914-202.759 4.991-59.543 1.72-102.521 1.578-104.321z" fill="#bf6724"/><path d="m73.497 177.85c-3.672-71.535.882-118.93.929-119.4.975-9.868-13.949-11.358-14.927-1.478-.194 1.956-4.704 48.741-.999 121.315 3.416 66.925 14.838 168.988 49.851 275.161 3.107 9.425 17.354 4.728 14.245-4.697-34.449-104.462-45.715-204.976-49.099-270.901z" fill="#bf6724"/><path d="m378.076 140.769c0 18.774 29.98 17.905 66.962 17.905s66.962.869 66.962-17.905-29.98-50.081-66.962-50.081-66.962 31.307-66.962 50.081z" fill="#ffe8cf"/><path d="m445.038 90.688c-5.321 0-10.49.666-15.453 1.831 29.529 6.936 51.509 32.177 51.509 48.249s-21.981 17.747-51.509 17.896c4.963.025 10.132.009 15.453.009 36.982 0 66.962.869 66.962-17.905 0-18.773-29.98-50.08-66.962-50.08z" fill="#f2cdae"/><path d="m133.924 50.081c0 18.774-29.98 17.905-66.962 17.905s-66.962.869-66.962-17.905 29.98-50.081 66.962-50.081 66.962 31.307 66.962 50.081z" fill="#ffe8cf"/><path d="m66.962 0c-5.321 0-10.49.666-15.453 1.831 29.529 6.936 51.509 32.177 51.509 48.249s-21.981 17.747-51.509 17.896c4.963.025 10.132.009 15.453.009 36.982 0 66.962.869 66.962-17.905 0-18.773-29.98-50.08-66.962-50.08z" fill="#f2cdae"/><path d="m336.354 443.852c-53.569 0-107.139 0-160.708 0-25.282-75.181-20.414-153.44 0-230.058h160.708c20.415 76.618 25.283 154.877 0 230.058z" fill="#bf6724"/><path d="m336.354 213.794h-30.905c20.415 76.618 25.282 154.877 0 230.058h30.905c25.283-75.181 20.415-153.44 0-230.058z" fill="#a35418"/><path d="m277.538 398.702c-37.968 16.051-80.668-10.36-117.275-26.824 2.431 24.199 7.401 48.241 15.383 71.975h160.708c15.982-47.525 19.905-96.28 15.48-145.073-32.57 24.794-32.339 82.185-74.296 99.922z" fill="#ffe8cf"/><path d="m351.834 298.78c-13.7 10.429-21.596 26.625-29.27 43.211-.59 34.286-5.856 68.379-17.116 101.862h30.905c15.983-47.526 19.906-96.28 15.481-145.073z" fill="#f2cdae"/><path d="m486.245 512h-455.34c-17.068 0-30.905-13.837-30.905-30.905v-36.692c0-2.209 1.791-4 4-4h504c2.209 0 4 1.791 4 4v41.843c0 14.223-11.531 25.754-25.755 25.754z" fill="#f2ac57"/><path d="m481.095 440.402v45.843c0 14.224-11.531 25.755-25.755 25.755h30.905c14.224 0 25.755-11.531 25.755-25.755v-41.843c0-2.209-1.791-4-4-4z" fill="#e39e4b"/><path d="m421.859 184.431c0 47.503-74.258 45.305-165.859 45.305s-165.859 2.199-165.859-45.305 74.258-126.72 165.859-126.72 165.859 79.217 165.859 126.72z" fill="#ffe8cf"/><path d="m421.86 184.43c0 22.48-16.63 33.83-43.86 39.55-7.54 1.58-15.88 2.74-24.92 3.57-12.85 1.2-27.08 1.75-42.33 2.01h-.01c-7.38.12-14.99.17-22.81.19 0 0 0 0-.01 0-10.33.02-21-.01-31.92-.01-10.98 0-21.7.03-32.08.01-.01 0-.01 0-.01 0-7.82-.02-15.45-.07-22.84-.2-14.75-.24-28.55-.78-41.06-1.9-.01.01-.01 0-.01 0-9.08-.81-17.47-1.93-25.07-3.49h-.01c-27.77-5.65-44.78-17-44.78-39.73 0-47.5 74.26-126.72 165.86-126.72s165.86 79.22 165.86 126.72z" fill="#ffe8cf"/><path d="m256 57.711c-5.212 0-10.364.269-15.453.761 84.355 8.162 150.406 81.158 150.406 125.959 0 41.527-56.748 45.071-132.222 45.306 90.34.038 163.128 1.724 163.128-45.306 0-47.503-74.258-126.72-165.859-126.72z" fill="#f2cdae"/><g fill="#e6b793"><path d="m160 227.65c-9.08-.81-17.47-1.93-25.07-3.49h-.01c-1.88-3.24-3.5-6.86-4.85-10.84-4.14-12.23-4.19-23.69-4.19-24.18 0-4.14 3.36-7.5 7.5-7.5s7.5 3.36 7.5 7.49c.01.47.4 30.87 19.12 38.52z"/><path d="m223.91 229.75c-7.82-.02-15.45-.07-22.84-.2-2.77-4.01-5.07-8.71-6.88-14.05-4.14-12.23-4.19-23.69-4.19-24.17 0-4.14 3.36-7.5 7.5-7.5s7.5 3.35 7.5 7.49c.01.46.4 30.63 18.91 38.43z"/><path d="m321.82 191.33c0 .48-.05 11.94-4.19 24.17-1.81 5.34-4.12 10.04-6.88 14.06h-.01c-7.38.12-14.99.17-22.81.19 18.65-7.82 18.89-38.09 18.89-38.42 0-4.14 3.35-7.5 7.5-7.5 4.14 0 7.5 3.36 7.5 7.5z"/><path d="m386.93 189.14c0 .49-.05 11.95-4.18 24.18-1.32 3.91-2.91 7.46-4.75 10.66-7.54 1.58-15.88 2.74-24.92 3.57 18.62-7.83 18.85-38.08 18.85-38.41 0-4.14 3.36-7.5 7.5-7.5s7.5 3.36 7.5 7.5z"/></g></svg>