<svg id="Capa_1" enable-background="new 0 0 512 512" height="512" viewBox="0 0 512 512" width="512" xmlns="http://www.w3.org/2000/svg"><path d="m78.275 323.992h35.579v141.135h-35.579z" fill="#bf6724"/><path d="m188.129 348.716h-184.129c-2.209 0-4-1.791-4-4v-20.906c0-43.23 35.045-78.275 78.275-78.275h35.579c43.23 0 78.275 35.045 78.275 78.275v20.906c0 2.209-1.791 4-4 4z" fill="#ffb300"/><path d="m113.854 245.536h-26.685c43.23 0 78.275 35.045 78.275 78.275v24.906h22.685c2.209 0 4-1.791 4-4v-20.906c0-43.23-35.045-78.275-78.275-78.275z" fill="#ff9800"/><path d="m170.339 245.536h-148.549c-2.209 0-4-1.791-4-4v-10.232c0-39.3 31.859-71.159 71.159-71.159h14.232c39.3 0 71.159 31.859 71.159 71.159v10.232c-.001 2.209-1.792 4-4.001 4z" fill="#ffca28"/><path d="m103.18 160.146h-14.232c-2.098 0-4.175.091-6.226.269 36.384 3.154 64.932 33.688 64.932 70.89v14.232h22.685c2.209 0 4-1.791 4-4v-10.232c0-39.3-31.859-71.159-71.159-71.159z" fill="#ffb300"/><path d="m151.66 160.146h-111.191c-2.209 0-4-1.791-4-4v-8.453c0-29.475 23.894-53.369 53.369-53.369h12.453c29.475 0 53.369 23.894 53.369 53.369v8.453c0 2.209-1.791 4-4 4z" fill="#ffb300"/><path d="m102.291 94.324h-12.453c-2.413 0-4.788.16-7.116.47 26.111 3.479 46.253 25.837 46.253 52.899v12.453h22.685c2.209 0 4-1.791 4-4v-8.453c0-29.475-23.894-53.369-53.369-53.369z" fill="#ff9800"/><g fill="#8c4815"><path d="m290.441 283.815h32.966v80.354h-32.966z"/><path d="m411.042 283.815h32.966v80.354h-32.966z"/><path d="m256.96 364.169h32.966v91.686h-32.966z"/><path d="m444.523 364.169h32.966v91.686h-32.966z"/></g><path d="m369.182 22.425c19.233 19.233 4.151 50.248 1.774 54.803-.196.375-.494.673-.868.868-4.556 2.378-35.577 17.467-54.811-1.767-27.977-27.977-22.453-65.764-21.006-73.3.158-.824.795-1.461 1.619-1.619 7.534-1.444 45.315-6.962 73.292 21.015z" fill="#ffca28"/><path d="m295.889 1.412c-.824.158-1.461.795-1.619 1.619-.537 2.799-1.634 9.775-1.371 18.867 15.386.447 36.842 4.795 54.429 22.382 11.718 11.718 10.694 27.801 7.57 39.618 7.579-2.005 13.408-4.87 15.189-5.799.375-.195.673-.494.868-.868 2.377-4.556 17.459-35.57-1.774-54.804-27.976-27.979-65.757-22.461-73.292-21.015z" fill="#ffb300"/><path d="m392.711 89.253-66.176-66.176c-2.929-2.929-7.678-2.929-10.606 0-2.929 2.929-2.929 7.678 0 10.606l66.176 66.176c2.929 2.929 7.678 2.929 10.606 0 2.93-2.928 2.93-7.677 0-10.606z" fill="#bf6724"/><path d="m508 379.622h-281.551c-2.209 0-4-1.791-4-4v-22.905c0-2.209 1.791-4 4-4h281.551c2.209 0 4 1.791 4 4v22.905c0 2.209-1.791 4-4 4z" fill="#bf6724"/><path d="m481.095 348.716v30.905h26.905c2.209 0 4-1.791 4-4v-22.905c0-2.209-1.791-4-4-4z" fill="#a35418"/><path d="m488.427 311.63h-242.405c-2.209 0-4-1.791-4-4v-47.63c0-2.209 1.791-4 4-4h242.404c2.209 0 4 1.791 4 4v47.63c.001 2.209-1.79 4-3.999 4z" fill="#bf6724"/><path d="m461.521 256v55.63h26.905c2.209 0 4-1.791 4-4v-47.63c0-2.209-1.791-4-4-4z" fill="#a35418"/><path d="m486.245 512h-455.34c-17.068 0-30.905-13.837-30.905-30.905v-36.692c0-2.209 1.791-4 4-4h504c2.209 0 4 1.791 4 4v41.843c0 14.223-11.531 25.754-25.755 25.754z" fill="#f2ac57"/><path d="m481.095 440.402v45.843c0 14.224-11.531 25.755-25.755 25.755h30.905c14.224 0 25.755-11.531 25.755-25.755v-41.843c0-2.209-1.791-4-4-4z" fill="#e39e4b"/></svg>