<svg id="Capa_1" enable-background="new 0 0 512 512" height="512" viewBox="0 0 512 512" width="512" xmlns="http://www.w3.org/2000/svg"><path d="m86.111 435.674c19.233-19.233 50.248-4.151 54.803-1.774.375.196.673.494.868.868 2.378 4.556 17.467 35.577-1.767 54.811-27.977 27.977-65.764 22.453-73.3 21.006-.824-.158-1.461-.795-1.619-1.619-1.443-7.535-6.961-45.316 21.015-73.292z" fill="#ffca28"/><path d="m141.783 434.768c-.196-.375-.494-.673-.869-.868-3.783-1.974-25.803-12.688-44.178-5.264 6.635 1.948 11.646 4.415 13.273 5.264.375.196.673.494.869.868 2.378 4.556 17.466 35.577-1.767 54.811-13.122 13.122-28.401 18.874-41.706 21.133 8.898 1.595 45.392 6.085 72.611-21.133 19.234-19.234 4.145-50.255 1.767-54.811z" fill="#ffb300"/><path d="m402.803 76.326c-19.233 19.233-50.248 4.15-54.803 1.773-.375-.196-.673-.494-.868-.868-2.378-4.556-17.467-35.577 1.767-54.811 27.977-27.977 65.764-22.453 73.3-21.006.824.158 1.461.795 1.619 1.619 1.444 7.535 6.962 45.316-21.015 73.293z" fill="#ffca28"/><path d="m423.816 3.033c-.158-.824-.795-1.461-1.619-1.619-4.001-.768-16.532-2.685-31.594-.127.248.044.484.088.689.127.824.158 1.461.795 1.619 1.619 1.445 7.535 6.963 45.316-21.013 73.293-3.264 3.264-6.87 5.52-10.625 7.037 11.942 3.507 29.167 5.327 41.531-7.037 27.976-27.977 22.458-65.758 21.012-73.293z" fill="#ffb300"/><g fill="#9ccc65"><path d="m105.483 205.328h364.797c19.522 0 35.405-15.883 35.405-35.405s-15.883-35.405-35.405-35.405h-27.337c-4.143 0-7.5 3.358-7.5 7.5s3.357 7.5 7.5 7.5h27.337c11.252 0 20.405 9.154 20.405 20.405s-9.153 20.405-20.405 20.405h-364.797c-4.143 0-7.5 3.358-7.5 7.5s3.358 7.5 7.5 7.5z"/><path d="m409.227 306.671h-364.797c-19.522 0-35.405 15.883-35.405 35.405s15.883 35.405 35.405 35.405h44.514c4.143 0 7.5-3.358 7.5-7.5s-3.357-7.5-7.5-7.5h-44.514c-11.252 0-20.405-9.154-20.405-20.405s9.153-20.405 20.405-20.405h364.797c4.143 0 7.5-3.358 7.5-7.5s-3.358-7.5-7.5-7.5z"/><path d="m504.5 249.677h-497c-4.143 0-7.5 3.358-7.5 7.5s3.357 7.5 7.5 7.5h497c4.143 0 7.5-3.358 7.5-7.5s-3.357-7.5-7.5-7.5z"/></g><path d="m433.681 391.86c19.233 19.233 4.151 50.248 1.774 54.804-.196.375-.494.673-.868.868-4.556 2.378-35.577 17.467-54.811-1.767-27.977-27.977-22.453-65.764-21.006-73.3.158-.824.795-1.461 1.619-1.619 7.534-1.445 45.315-6.963 73.292 21.014z" fill="#d35d3f"/><path d="m433.681 391.86c-27.234-27.234-63.747-22.729-72.618-21.138 13.305 2.26 28.588 8.013 41.713 21.138 19.233 19.233 4.151 50.248 1.774 54.804-.195.375-.494.673-.868.868-1.628.85-6.643 3.319-13.284 5.268 18.378 7.426 40.406-3.294 44.189-5.268.375-.196.673-.494.868-.868 2.377-4.556 17.459-35.571-1.774-54.804z" fill="#c24b31"/><path d="m93.774 69.167c27.2 0 38.466 32.596 40.006 37.498.127.403.127.825 0 1.228-1.54 4.903-12.806 37.508-40.006 37.508-39.566 0-62.379-30.626-66.685-36.977-.471-.694-.471-1.595 0-2.289 4.306-6.351 27.119-36.968 66.685-36.968z" fill="#d35d3f"/><path d="m133.78 106.665c-1.54-4.902-12.806-37.498-40.006-37.498-6.733 0-12.969.902-18.723 2.405 18.462 7.612 26.537 31 27.824 35.093.127.403.127.825 0 1.228-1.286 4.094-9.362 27.488-27.824 35.102 5.754 1.503 11.99 2.406 18.723 2.406 27.2 0 38.466-32.605 40.006-37.508.126-.403.126-.825 0-1.228z" fill="#c24b31"/><path d="m152.939 412.144-66.176 66.176c-2.929 2.929-2.929 7.678 0 10.606 2.93 2.929 7.678 2.929 10.607 0l66.177-66.177c2.929-2.929 2.929-7.678 0-10.606-2.93-2.928-7.678-2.928-10.608.001z" fill="#bf6724"/><path d="m402.151 23.073c-2.929-2.929-7.677-2.929-10.607 0l-66.177 66.176c-2.929 2.929-2.929 7.678 0 10.606 2.929 2.929 7.677 2.929 10.607 0l66.177-66.176c2.929-2.929 2.929-7.678 0-10.606z" fill="#bf6724"/><path d="m457.211 458.688-66.176-66.176c-2.93-2.929-7.678-2.93-10.607 0-2.929 2.929-2.929 7.678 0 10.606l66.176 66.176c2.929 2.929 7.677 2.929 10.607 0 2.929-2.928 2.929-7.677 0-10.606z" fill="#733a10"/><path d="m165.167 107.284c0-4.142-3.357-7.5-7.5-7.5h-93.588c-4.143 0-7.5 3.358-7.5 7.5s3.357 7.5 7.5 7.5h93.588c4.143 0 7.5-3.358 7.5-7.5z" fill="#733a10"/></svg>