<svg height="480pt" viewBox="0 0 480 480" width="480pt" xmlns="http://www.w3.org/2000/svg"><path d="m376 24v63.441406l-56-35.441406v-28zm0 0" fill="#edeff1"/><path d="m312 0h73.335938v24h-73.335938zm0 0" fill="#6e83b7"/><path d="m240 40-176 112v248h352v-248zm0 0" fill="#edeff1"/><path d="m416 400v-161.601562c-3.3125-3.109376-7.414062-5.328126-12.023438-6.070313-1.34375-.222656-2.679687-.328125-3.976562-.328125-13.230469 0-24 10.769531-24 24v88c0 4.40625-3.585938 8-8 8h-3.503906c-11.03125 0-20.609375 7.472656-23.28125 18.175781l-4.925782 19.71875-2.761718 10.105469zm0 0" fill="#d3d3d3"/><path d="m264 200h128v200h-128zm0 0" fill="#d3d3d3"/><path d="m64 152v24l176-112 176 112v-24l-176-112zm0 0" fill="#d3d3d3"/><g fill="#6e83b7"><path d="m240 1.335938-200 126.664062v40l200-126.664062 200 126.664062v-40zm0 0"/><path d="m272 120c0 17.671875-14.328125 32-32 32s-32-14.328125-32-32 14.328125-32 32-32 32 14.328125 32 32zm0 0"/><path d="m272 208h112v192h-112zm0 0"/></g><path d="m376 256v88c0 4.40625-3.585938 8-8 8h-3.503906c-11.03125 0-20.609375 7.472656-23.28125 18.175781l-4.925782 19.71875-2.761718 10.105469h50.472656v-161.761719c-4.871094 4.402344-8 10.699219-8 17.761719zm0 0" fill="#466089"/><path d="m296.664062 303.335938c0 4.417968-3.582031 8-8 8-4.417968 0-8-3.582032-8-8 0-4.417969 3.582032-8 8-8 4.417969 0 8 3.582031 8 8zm0 0" fill="#ffe352"/><path d="m264 120c0 13.253906-10.746094 24-24 24s-24-10.746094-24-24 10.746094-24 24-24 24 10.746094 24 24zm0 0" fill="#80d6fb"/><path d="m88 200h144v112h-144zm0 0" fill="#6e83b7"/><path d="m96 208h128v96h-128zm0 0" fill="#80d6fb"/><path d="m224 252h-60v-44h-8v44h-60v8h60v44h8v-44h60zm0 0" fill="#6e83b7"/><path d="m16 376c17.671875 0 32-14.328125 32-32 0 17.671875 14.328125 32 32 32s32-14.328125 32-32c0 17.671875 14.328125 32 32 32s32-14.328125 32-32c0 17.671875 14.328125 32 32 32s32-14.328125 32-32c0 17.671875 14.328125 32 32 32s32-14.328125 32-32c0 17.671875 14.328125 32 32 32s32-14.328125 32-32c0 17.671875 14.328125 32 32 32s32-14.328125 32-32c0 17.671875 14.328125 32 32 32h16v104h-480v-104zm0 0" fill="#80d6fb"/><path d="m480 480v-30.398438l-16.238281-59.546874-3.609375-14.445313c-13.144532-1.59375-23.769532-11.058594-27.023438-23.617187h-1.128906c-.375 0-.703125-.167969-1.0625-.214844-3.496094 13.894531-15.960938 24.222656-30.9375 24.222656s-27.441406-10.328125-30.9375-24.214844c-.359375.046875-.6875.214844-1.0625.214844h-1.128906c-3.253906 12.558594-13.871094 22.015625-27.015625 23.617188l-3.566407 14.277343-24.578124 90.105469zm0 0" fill="#71cbea"/><path d="m480 480-24-88h-112l-24 88zm0 0" fill="#ffe352"/><path d="m392 392h16v32h-16zm0 0" fill="#ffb236"/><path d="m424 392h16v24h-16zm0 0" fill="#ffb236"/><path d="m360 392h16v24h-16zm0 0" fill="#ffb236"/><path d="m456 392-4.96875-19.878906c-1.785156-7.121094-8.183594-12.121094-15.527344-12.121094h-3.503906c-8.839844 0-16-7.160156-16-16v-87.144531c0-7.96875-5.449219-15.359375-13.3125-16.640625-10.023438-1.621094-18.6875 6.066406-18.6875 15.785156v88c0 8.839844-7.160156 16-16 16h-3.503906c-7.34375 0-13.742188 5-15.519532 12.121094l-4.976562 19.878906zm-56-144c4.414062 0 8 3.585938 8 8s-3.585938 8-8 8-8-3.585938-8-8 3.585938-8 8-8zm0 0" fill="#6e83b7"/></svg>