<svg height="480pt" viewBox="0 0 480 480" width="480pt" xmlns="http://www.w3.org/2000/svg"><path d="m224 152c-3.96875 0-7.648438 1.054688-10.945312 2.753906-5.039063-11.042968-16.117188-18.753906-29.054688-18.753906-.921875 0-1.792969.191406-2.6875.273438-6.519531-18.777344-24.320312-32.273438-45.3125-32.273438-24.335938 0-44.398438 18.136719-47.527344 41.617188-2.640625-1-5.480468-1.617188-8.472656-1.617188-13.257812 0-24 10.742188-24 24s10.742188 24 24 24c7.761719 0 14.585938-3.742188 18.976562-9.457031 8.800782 10.664062 22.121094 17.457031 37.023438 17.457031 9.929688 0 19.160156-3.015625 26.816406-8.183594 5.648438 5.03125 13.015625 8.183594 21.183594 8.183594 8.40625 0 16.007812-3.3125 21.71875-8.625 4.402344 5.234375 10.914062 8.625 18.28125 8.625 13.257812 0 24-10.742188 24-24s-10.742188-24-24-24zm0 0" fill="#80d6fb"/><path d="m296 128s-56 82-56 184v120.03125c0 26.511719 21.488281 47.96875 48 47.96875h144c26.511719 0 48-21.488281 48-48v-120c0-102-56-184-56-184zm0 0" fill="#edeff1"/><path d="m440 304c0 44.183594-35.816406 80-80 80s-80-35.816406-80-80 35.816406-80 80-80 80 35.816406 80 80zm0 0" fill="#ffe352"/><path d="m296 96h128v32h-128zm0 0" fill="#98ca69"/><path d="m424 288h-48v-48h-32v48h-48v32h48v48h32v-48h48zm0 0" fill="#98ca69"/><path d="m429.023438 136c-3.113282-5.191406-5.023438-8-5.023438-8h-128s-1.910156 2.808594-5.023438 8zm0 0" fill="#d3d3d3"/><path d="m312 64h96v32h-96zm0 0" fill="#98ca69"/><path d="m312 88h96v8h-96zm0 0" fill="#75aa40"/><path d="m344 32h32v32h-32zm0 0" fill="#edeff1"/><path d="m400 0h-96l-32 16 16 24 24-8h88c8.839844 0 16-7.160156 16-16s-7.160156-16-16-16zm0 0" fill="#edeff1"/><path d="m344 32h32v8h-32zm0 0" fill="#d3d3d3"/><path d="m256 299.640625c-.078125-4.382813-1.625-8.375-4.089844-11.640625h14.683594c11.207031 0 21.605469-9.152344 21.398438-20.359375-.082032-4.382813-1.625-8.375-4.089844-11.640625h.097656c7.847656 0 15.359375-4.414062 18.320312-11.6875 5.902344-14.488281-4.59375-28.3125-18.320312-28.3125h-11.769531c4.699219-3.664062 7.769531-9.304688 7.769531-15.710938v-.289062c0-13.257812-10.742188-24-24-24h-116.34375l24.273438-12.734375c10.855468-5.699219 16.316406-18.945313 11.183593-30.082031-5.472656-11.871094-19.699219-16.589844-31.113281-10.574219l-64.351562 33.558594c-15.550782 7.777343-29.082032 19.0625-39.511719 32.976562l-3.335938 4.457031c-3.023437 4.03125-7.761719 6.398438-12.800781 6.398438h-24v96h34.664062c3.464844 0 6.832032 1.121094 9.601563 3.199219l2.132813 1.601562c16.625 12.464844 36.839843 19.199219 57.609374 19.199219h130.585938c11.207031 0 21.605469-9.152344 21.40625-20.359375zm0 0" fill="#ffd3b3"/><g fill="#fcb98b"><path d="m272.238281 216h-120.238281v-8h126.398438c-1.277344 3.199219-3.4375 5.921875-6.160157 8zm0 0"/><path d="m284 256h-132v-8h148.160156c-3.519531 5.039062-9.761718 8-16.160156 8zm0 0"/><path d="m266.558594 288h-114.558594v-8h131.519531c-4 4.878906-10.320312 8-16.960937 8zm0 0"/></g><path d="m200 80c0 8.835938-7.164062 16-16 16s-16-7.164062-16-16 7.164062-16 16-16 16 7.164062 16 16zm0 0" fill="#80d6fb"/><path d="m156 44c0 11.046875-8.953125 20-20 20s-20-8.953125-20-20 8.953125-20 20-20 20 8.953125 20 20zm0 0" fill="#80d6fb"/></svg>