<svg height="480pt" viewBox="0 -48 480 480" width="480pt" xmlns="http://www.w3.org/2000/svg"><path d="m384 384h-288c-8.839844 0-16-7.160156-16-16v-304h320v304c0 8.839844-7.160156 16-16 16zm0 0" fill="#edeff1"/><path d="m400 64h-320v-48c0-8.839844 7.160156-16 16-16h288c8.839844 0 16 7.160156 16 16zm0 0" fill="#6e83b7"/><path d="m352 224c0 61.855469-50.144531 112-112 112s-112-50.144531-112-112 50.144531-112 112-112 112 50.144531 112 112zm0 0" fill="#d3d3d3"/><path d="m328 224c0 48.601562-39.398438 88-88 88s-88-39.398438-88-88 39.398438-88 88-88 88 39.398438 88 88zm0 0" fill="#edeff1"/><path d="m314.34375 213.65625-4.6875 4.6875c-3.128906 3.128906-8.191406 3.128906-11.3125 0l-4.6875-4.6875c-3.128906-3.128906-8.191406-3.128906-11.3125 0l-4.6875 4.6875c-3.128906 3.128906-8.191406 3.128906-11.3125 0l-4.6875-4.6875c-3.128906-3.128906-8.191406-3.128906-11.3125 0l-4.6875 4.6875c-3.128906 3.128906-8.191406 3.128906-11.3125 0l-4.6875-4.6875c-3.128906-3.128906-8.191406-3.128906-11.3125 0l-4.6875 4.6875c-3.128906 3.128906-8.191406 3.128906-11.3125 0l-4.6875-4.6875c-3.128906-3.128906-8.191406-3.128906-11.3125 0l-4.6875 4.6875c-3.128906 3.128906-8.191406 3.128906-11.3125 0l-4.6875-4.6875c-3.128906-3.128906-8.191406-3.128906-11.3125 0l-1.917969 1.917969c-.265625 2.777343-.425781 5.578125-.425781 8.425781 0 48.601562 39.398438 88 88 88s88-39.398438 88-88c0-2.847656-.160156-5.648438-.425781-8.425781l-1.917969-1.917969c-3.121094-3.121094-8.191406-3.121094-11.3125 0zm0 0" fill="#80d6fb"/><path d="m352 260h-32c-4.414062 0-8-3.585938-8-8v-56c0-4.414062 3.585938-8 8-8h32c4.414062 0 8 3.585938 8 8v56c0 4.414062-3.585938 8-8 8zm0 0" fill="#6e83b7"/><g fill="#466089"><path d="m112 32c0 4.417969-3.582031 8-8 8s-8-3.582031-8-8 3.582031-8 8-8 8 3.582031 8 8zm0 0"/><path d="m144 32c0 4.417969-3.582031 8-8 8s-8-3.582031-8-8 3.582031-8 8-8 8 3.582031 8 8zm0 0"/><path d="m176 32c0 4.417969-3.582031 8-8 8s-8-3.582031-8-8 3.582031-8 8-8 8 3.582031 8 8zm0 0"/><path d="m240 24h48v16h-48zm0 0"/><path d="m320 24h48v16h-48zm0 0"/><path d="m184 280h-176c-4.414062 0-8-3.585938-8-8s3.585938-8 8-8h176c4.414062 0 8 3.585938 8 8s-3.585938 8-8 8zm0 0"/></g><path d="m8 280 13.910156 90.433594c1.203125 7.804687 7.921875 13.566406 15.816406 13.566406h116.546876c7.894531 0 14.613281-5.761719 15.816406-13.566406l13.910156-90.433594zm0 0" fill="#6e83b7"/><path d="m168 248c4.414062 0 8-3.585938 8-8s-3.585938-8-8-8h-136c-8.839844 0-16 7.160156-16 16s7.160156 16 16 16h136c4.414062 0 8-3.585938 8-8s-3.585938-8-8-8zm0 0" fill="#ffe352"/><path d="m32 240c-4.414062 0-8 3.585938-8 8h144c4.414062 0 8-3.585938 8-8zm0 0" fill="#ffb236"/><path d="m168 184c4.414062 0 8-3.585938 8-8s-3.585938-8-8-8h-136c-8.839844 0-16 7.160156-16 16s7.160156 16 16 16h136c4.414062 0 8-3.585938 8-8s-3.585938-8-8-8zm0 0" fill="#ffb0aa"/><path d="m32 176c-4.414062 0-8 3.585938-8 8h144c4.414062 0 8-3.585938 8-8zm0 0" fill="#ff7b7b"/><path d="m160 200h-136c-4.414062 0-8 3.585938-8 8s3.585938 8 8 8c-4.414062 0-8 3.585938-8 8s3.585938 8 8 8h136c8.839844 0 16-7.160156 16-16s-7.160156-16-16-16zm0 0" fill="#98ca69"/><path d="m160 208c4.414062 0 8 3.585938 8 8h-144c-4.414062 0-8-3.585938-8-8zm0 0" fill="#75aa40"/><path d="m456 240h-48l-18.824219 43.929688c-3.414062 7.964843-5.175781 16.542968-5.175781 25.207031v58.863281c0 8.839844 7.160156 16 16 16h64c8.839844 0 16-7.160156 16-16v-58.863281c0-8.664063-1.761719-17.25-5.175781-25.207031zm-24 48v-24c0-4.414062 3.585938-8 8-8h.921875c3.148437 0 6.015625 1.855469 7.300781 4.734375l10.738282 24c2.367187 5.289063-1.503907 11.265625-7.304688 11.265625h-11.65625c-4.414062 0-8-3.585938-8-8zm0 0" fill="#80d6fb"/><path d="m448 216v-8c0-4.414062-3.585938-8-8-8h-16c-4.414062 0-8 3.585938-8 8v8c-4.414062 0-8 3.585938-8 8v16h48v-16c0-4.414062-3.585938-8-8-8zm0 0" fill="#6e83b7"/></svg>