<svg height="480pt" viewBox="-48 0 480 480" width="480pt" xmlns="http://www.w3.org/2000/svg"><path d="m232 272h-80c-26.511719 0-48-21.488281-48-48v-32h176v32c0 26.511719-21.488281 48-48 48zm0 0" fill="#466089"/><path d="m325.40625 319.726562-85.40625-23.726562h-96l-85.40625 23.726562c-34.632812 9.617188-58.59375 41.144532-58.59375 77.082032v83.191406h384v-83.191406c0-35.9375-23.960938-67.464844-58.59375-77.082032zm0 0" fill="#6e83b7"/><path d="m240 256v40c0 26.511719-21.488281 48-48 48s-48-21.488281-48-48v-40zm0 0" fill="#fcb98b"/><path d="m280 144v48c0 48.601562-39.398438 88-88 88s-88-39.398438-88-88v-48c0-17.671875 14.328125-32 32-32h112c17.671875 0 32 14.328125 32 32zm0 0" fill="#ffd3b3"/><path d="m241.625 64.167969c-8.28125-14.433594-23.800781-24.167969-41.625-24.167969h-16c-44.183594 0-80 35.816406-80 80v72l6.152344-18.449219c5.878906-17.648437 22.398437-29.550781 41-29.550781h64.847656c10.929688 0 20.550781-5.496094 26.320312-13.855469 3.832032 8.167969 12.0625 13.855469 21.679688 13.855469l16 48v-88c0-21.535156-17.054688-38.96875-38.375-39.832031zm0 0" fill="#6e83b7"/><path d="m280 144h5.113281c9.886719 0 17.40625 8.878906 15.78125 18.632812l-2.664062 16c-1.285157 7.710938-7.964844 13.367188-15.78125 13.367188h-2.449219zm0 0" fill="#ffd3b3"/><path d="m104 144h-5.113281c-9.886719 0-17.40625 8.878906-15.78125 18.632812l2.664062 16c1.285157 7.710938 7.964844 13.367188 15.78125 13.367188h2.449219zm0 0" fill="#ffd3b3"/><g fill="#edeff1"><path d="m192 344-28.65625 28.65625c-6.777344 6.777344-17.917969 6.144531-23.878906-1.367188-11.03125-13.921874-23.601563-38.617187-11.464844-70.847656l16-4.441406s4 42.503906 48 48zm0 0"/><path d="m192 344 28.65625 28.65625c6.777344 6.777344 17.917969 6.144531 23.878906-1.367188 11.03125-13.921874 23.601563-38.617187 11.464844-70.847656l-16-4.441406s-4 42.503906-48 48zm0 0"/><path d="m280 307.113281v132.886719h-176v-132.886719l-32 8.886719v164h240v-164zm0 0"/><path d="m280 307.113281v84.886719c0 26.511719-21.488281 48-48 48h-80c-26.511719 0-48-21.488281-48-48v-84.886719l-32 8.886719v140l-8 24h256l-8-24v-140zm0 0"/></g><path d="m192 480h72v-24h-144v24zm0 0" fill="#d3d3d3"/><path d="m258.65625 60.480469c.015625-.054688.046875-.105469.0625-.160157.882812-2.640624 1.28125-5.441406 1.28125-8.320312 0-15.441406-12.558594-28-28-28-1.121094 0-2.160156.238281-3.199219.320312-6.082031-14.320312-20.242187-24.320312-36.800781-24.320312s-30.71875 10-36.800781 24.320312c-1.039063-.082031-2.078125-.320312-3.199219-.320312-15.441406 0-28 12.558594-28 28 0 2.878906.398438 5.679688 1.28125 8.320312.015625.054688.046875.105469.0625.160157-3.414062 2.113281-5.34375 3.519531-5.34375 3.519531l8 16s31.664062-8 64-8 64 8 64 8l8-16s-1.929688-1.40625-5.34375-3.519531zm0 0" fill="#edeff1"/></svg>