<svg height="480pt" viewBox="0 0 480 480" width="480pt" xmlns="http://www.w3.org/2000/svg"><path d="m80 112h320v288h-320zm0 0" fill="#edeff1"/><path d="m400 128h80v272h-80zm0 0" fill="#edeff1"/><path d="m400 160h80v112h-80zm0 0" fill="#6e83b7"/><path d="m400 400h66.472656l-2.710937-9.945312-4.96875-19.878907c-2.671875-10.703125-12.257813-18.175781-23.289063-18.175781h-3.503906c-4.414062 0-8-3.59375-8-8v-87.144531c0-12.128907-8.609375-22.671875-20.023438-24.527344-1.34375-.222656-2.679687-.328125-3.976562-.328125-13.230469 0-24 10.769531-24 24v88c0 4.40625-3.585938 8-8 8h-3.503906c-11.03125 0-20.609375 7.472656-23.28125 18.175781l-4.925782 19.71875-2.761718 10.105469zm0 0" fill="#d3d3d3"/><path d="m400 128h8v32h-8zm0 0" fill="#d3d3d3"/><path d="m184 288h112v112h-112zm0 0" fill="#6e83b7"/><path d="m192 296h96v104h-96zm0 0" fill="#80d6fb"/><path d="m236 296h8v104h-8zm0 0" fill="#46bee8"/><path d="m434.105469 90.945312 5.894531-2.945312-5.894531-2.953125c-3.097657-1.550781-5.609375-4.054687-7.152344-7.152344l-2.953125-5.894531-2.953125 5.894531c-1.550781 3.097657-4.054687 5.609375-7.152344 7.152344l-5.894531 2.953125 5.894531 2.953125c3.097657 1.550781 5.609375 4.054687 7.152344 7.152344l2.953125 5.894531 2.953125-5.894531c1.542969-3.097657 4.054687-5.609375 7.152344-7.160157zm0 0" fill="#80d6fb"/><path d="m55.152344 28.425781 8.847656-4.425781-8.847656-4.425781c-4.648438-2.316407-8.410156-6.085938-10.738282-10.734375l-4.414062-8.839844-4.425781 8.847656c-2.316407 4.648438-6.085938 8.410156-10.734375 10.738282l-8.839844 4.414062 8.847656 4.425781c4.648438 2.316407 8.410156 6.085938 10.738282 10.734375l4.414062 8.839844 4.425781-8.847656c2.316407-4.640625 6.085938-8.410156 10.726563-10.726563zm0 0" fill="#80d6fb"/><path d="m80 136h320v112h-320zm0 0" fill="#6e83b7"/><path d="m400 248v24h24v-15.144531c0-12.128907-8.609375-22.671875-20.023438-24.527344-1.34375-.222656-2.679687-.328125-3.976562-.328125-10.414062 0-19.214844 6.710938-22.527344 16zm0 0" fill="#466089"/><g fill="#80d6fb"><path d="m80 144h104v96h-104zm0 0"/><path d="m192 144h96v96h-96zm0 0"/><path d="m296 144h104v96h-104zm0 0"/><path d="m400 168h80v96h-80zm0 0"/></g><path d="m0 128h80v272h-80zm0 0" fill="#edeff1"/><path d="m72 128h8v272h-8zm0 0" fill="#d3d3d3"/><path d="m0 160h80v112h-80zm0 0" fill="#6e83b7"/><path d="m0 168h80v96h-80zm0 0" fill="#80d6fb"/><path d="m72 168h8v96h-8zm0 0" fill="#46bee8"/><path d="m112 96h16v16h-16zm0 0" fill="#6e83b7"/><path d="m352 96h16v16h-16zm0 0" fill="#6e83b7"/><path d="m368 96h-256c-8.839844 0-16-7.160156-16-16v-64c0-8.839844 7.160156-16 16-16h256c8.839844 0 16 7.160156 16 16v64c0 8.839844-7.160156 16-16 16zm0 0" fill="#ffb0aa"/><path d="m176 16v4.6875l-16 16-16-16v-4.6875h-16v64h16v-36.6875l16 16 16-16v36.6875h16v-64zm0 0" fill="#ff7b7b"/><path d="m243.3125 16h-30.625l-12.6875 12.6875v51.3125h16v-16h24v16h16v-51.3125zm-27.3125 32v-12.6875l3.3125-3.3125h17.375l3.3125 3.3125v12.6875zm0 0" fill="#ff7b7b"/><path d="m304 80h-40v-64h16v48h24zm0 0" fill="#ff7b7b"/><path d="m352 80h-40v-64h16v48h24zm0 0" fill="#ff7b7b"/><path d="m461.046875 49.472656 2.953125-1.472656-2.953125-1.472656c-1.550781-.773438-2.800781-2.03125-3.574219-3.574219l-1.472656-2.953125-1.472656 2.953125c-.773438 1.550781-2.03125 2.800781-3.574219 3.574219l-2.953125 1.472656 2.953125 1.472656c1.550781.773438 2.800781 2.03125 3.574219 3.574219l1.472656 2.953125 1.472656-2.953125c.773438-1.542969 2.03125-2.800781 3.574219-3.574219zm0 0" fill="#80d6fb"/><path d="m408 233.382812v-65.382812h-8v64c-7.0625 0-13.359375 3.128906-17.761719 8h17.761719v24h24v-7.144531c0-10.648438-6.648438-20.070313-16-23.472657zm0 0" fill="#46bee8"/><path d="m480 480-24-88h-112l-24 88zm0 0" fill="#ffe352"/><path d="m392 392h16v32h-16zm0 0" fill="#ffb236"/><path d="m424 392h16v24h-16zm0 0" fill="#ffb236"/><path d="m360 392h16v24h-16zm0 0" fill="#ffb236"/><path d="m456 392-4.96875-19.878906c-1.785156-7.121094-8.183594-12.121094-15.527344-12.121094h-3.503906c-8.839844 0-16-7.160156-16-16v-87.144531c0-7.96875-5.449219-15.359375-13.3125-16.640625-10.023438-1.621094-18.6875 6.066406-18.6875 15.785156v88c0 8.839844-7.160156 16-16 16h-3.503906c-7.34375 0-13.742188 5-15.519532 12.121094l-4.976562 19.878906zm-56-144c4.414062 0 8 3.585938 8 8s-3.585938 8-8 8-8-3.585938-8-8 3.585938-8 8-8zm0 0" fill="#6e83b7"/></svg>