<svg height="480pt" viewBox="-80 0 480 480" width="480pt" xmlns="http://www.w3.org/2000/svg"><path d="m304 400h-288c-8.839844 0-16-7.160156-16-16v-368c0-8.839844 7.160156-16 16-16h288c8.839844 0 16 7.160156 16 16v368c0 8.839844-7.160156 16-16 16zm0 0" fill="#edeff1"/><path d="m312 56v-32c0-8.839844-7.160156-16-16-16h-272c-8.839844 0-16 7.160156-16 16v32c0 8.839844 7.160156 16 16 16-8.839844 0-16 7.160156-16 16v32c0 8.839844 7.160156 16 16 16-8.839844 0-16 7.160156-16 16v32c0 8.839844 7.160156 16 16 16-8.839844 0-16 7.160156-16 16v32c0 8.839844 7.160156 16 16 16-8.839844 0-16 7.160156-16 16v32c0 8.839844 7.160156 16 16 16-8.839844 0-16 7.160156-16 16v32c0 8.839844 7.160156 16 16 16h272c8.839844 0 16-7.160156 16-16v-32c0-8.839844-7.160156-16-16-16 8.839844 0 16-7.160156 16-16v-32c0-8.839844-7.160156-16-16-16 8.839844 0 16-7.160156 16-16v-32c0-8.839844-7.160156-16-16-16 8.839844 0 16-7.160156 16-16v-32c0-8.839844-7.160156-16-16-16 8.839844 0 16-7.160156 16-16v-32c0-8.839844-7.160156-16-16-16 8.839844 0 16-7.160156 16-16zm0 0" fill="#80d6fb"/><g fill="#46bee8"><path d="m76 104c0 4.417969-3.582031 8-8 8s-8-3.582031-8-8 3.582031-8 8-8 8 3.582031 8 8zm0 0"/><path d="m140 104c0 4.417969-3.582031 8-8 8s-8-3.582031-8-8 3.582031-8 8-8 8 3.582031 8 8zm0 0"/><path d="m196 104c0 4.417969-3.582031 8-8 8s-8-3.582031-8-8 3.582031-8 8-8 8 3.582031 8 8zm0 0"/><path d="m260 104c0 4.417969-3.582031 8-8 8s-8-3.582031-8-8 3.582031-8 8-8 8 3.582031 8 8zm0 0"/><path d="m76 232c0 4.417969-3.582031 8-8 8s-8-3.582031-8-8 3.582031-8 8-8 8 3.582031 8 8zm0 0"/><path d="m140 232c0 4.417969-3.582031 8-8 8s-8-3.582031-8-8 3.582031-8 8-8 8 3.582031 8 8zm0 0"/><path d="m196 232c0 4.417969-3.582031 8-8 8s-8-3.582031-8-8 3.582031-8 8-8 8 3.582031 8 8zm0 0"/><path d="m260 232c0 4.417969-3.582031 8-8 8s-8-3.582031-8-8 3.582031-8 8-8 8 3.582031 8 8zm0 0"/><path d="m76 360c0 4.417969-3.582031 8-8 8s-8-3.582031-8-8 3.582031-8 8-8 8 3.582031 8 8zm0 0"/><path d="m260 360c0 4.417969-3.582031 8-8 8s-8-3.582031-8-8 3.582031-8 8-8 8 3.582031 8 8zm0 0"/><path d="m48 40c0 4.417969-3.582031 8-8 8s-8-3.582031-8-8 3.582031-8 8-8 8 3.582031 8 8zm0 0"/><path d="m112 40c0 4.417969-3.582031 8-8 8s-8-3.582031-8-8 3.582031-8 8-8 8 3.582031 8 8zm0 0"/><path d="m168 40c0 4.417969-3.582031 8-8 8s-8-3.582031-8-8 3.582031-8 8-8 8 3.582031 8 8zm0 0"/><path d="m232 40c0 4.417969-3.582031 8-8 8s-8-3.582031-8-8 3.582031-8 8-8 8 3.582031 8 8zm0 0"/><path d="m288 40c0 4.417969-3.582031 8-8 8s-8-3.582031-8-8 3.582031-8 8-8 8 3.582031 8 8zm0 0"/><path d="m48 168c0 4.417969-3.582031 8-8 8s-8-3.582031-8-8 3.582031-8 8-8 8 3.582031 8 8zm0 0"/><path d="m112 168c0 4.417969-3.582031 8-8 8s-8-3.582031-8-8 3.582031-8 8-8 8 3.582031 8 8zm0 0"/><path d="m168 168c0 4.417969-3.582031 8-8 8s-8-3.582031-8-8 3.582031-8 8-8 8 3.582031 8 8zm0 0"/><path d="m232 168c0 4.417969-3.582031 8-8 8s-8-3.582031-8-8 3.582031-8 8-8 8 3.582031 8 8zm0 0"/><path d="m288 168c0 4.417969-3.582031 8-8 8s-8-3.582031-8-8 3.582031-8 8-8 8 3.582031 8 8zm0 0"/><path d="m48 296c0 4.417969-3.582031 8-8 8s-8-3.582031-8-8 3.582031-8 8-8 8 3.582031 8 8zm0 0"/><path d="m112 296c0 4.417969-3.582031 8-8 8s-8-3.582031-8-8 3.582031-8 8-8 8 3.582031 8 8zm0 0"/><path d="m168 296c0 4.417969-3.582031 8-8 8s-8-3.582031-8-8 3.582031-8 8-8 8 3.582031 8 8zm0 0"/><path d="m232 296c0 4.417969-3.582031 8-8 8s-8-3.582031-8-8 3.582031-8 8-8 8 3.582031 8 8zm0 0"/><path d="m288 296c0 4.417969-3.582031 8-8 8s-8-3.582031-8-8 3.582031-8 8-8 8 3.582031 8 8zm0 0"/><path d="m309.785156 128h-299.570312c2.769531 4.761719 7.875 8 13.785156 8h272c5.902344 0 11.007812-3.238281 13.785156-8zm0 0"/><path d="m309.785156 64h-299.570312c2.769531 4.761719 7.875 8 13.785156 8h272c5.902344 0 11.007812-3.238281 13.785156-8zm0 0"/><path d="m309.785156 192h-299.570312c2.769531 4.761719 7.875 8 13.785156 8h272c5.902344 0 11.007812-3.238281 13.785156-8zm0 0"/><path d="m309.785156 320h-299.570312c2.769531 4.761719 7.875 8 13.785156 8h272c5.902344 0 11.007812-3.238281 13.785156-8zm0 0"/><path d="m309.785156 256h-299.570312c2.769531 4.761719 7.875 8 13.785156 8h272c5.902344 0 11.007812-3.238281 13.785156-8zm0 0"/><path d="m309.785156 384h-299.570312c2.769531 4.761719 7.875 8 13.785156 8h272c5.902344 0 11.007812-3.238281 13.785156-8zm0 0"/></g><path d="m230.304688 356.152344-46.304688 19.847656h-48l-46.304688-19.847656c-5.878906-2.519532-9.695312-8.304688-9.695312-14.703125v-13.449219c0-4.414062 3.585938-8 8-8h144c4.414062 0 8 3.585938 8 8v13.449219c0 6.398437-3.816406 12.183593-9.695312 14.703125zm0 0" fill="#6e83b7"/><path d="m176 408h-32c-4.414062 0-8-3.585938-8-8v-24h48v24c0 4.414062-3.585938 8-8 8zm0 0" fill="#edeff1"/><path d="m144 408h32v72h-32zm0 0" fill="#6e83b7"/><path d="m144 408h32v8h-32zm0 0" fill="#466089"/><path d="m232 320h-144v-8c0-4.414062 3.585938-8 8-8h128c4.414062 0 8 3.585938 8 8zm0 0" fill="#edeff1"/><path d="m108 280h8v16h-8zm0 0" fill="#edeff1"/><path d="m132 280h8v16h-8zm0 0" fill="#edeff1"/><path d="m156 280h8v16h-8zm0 0" fill="#edeff1"/><path d="m180 280h8v16h-8zm0 0" fill="#edeff1"/><path d="m204 280h8v16h-8zm0 0" fill="#edeff1"/></svg>