<svg height="480pt" viewBox="0 0 480 480" width="480pt" xmlns="http://www.w3.org/2000/svg"><path d="m448 0v40c0 8.839844-7.160156 16-16 16h-32v32h40c22.089844 0 40-17.910156 40-40v-48zm0 0" fill="#6e83b7"/><path d="m384 8h-288c-17.671875 0-32 14.328125-32 32v16h48v408c0 8.839844 7.160156 16 16 16h272c8.839844 0 16-7.160156 16-16v-424c0-17.671875-14.328125-32-32-32zm0 0" fill="#80d6fb"/><path d="m80 40c0-8.839844 7.160156-16 16-16s16 7.160156 16 16v360h-40l8-16zm0 0" fill="#46bee8"/><path d="m112 56h-64c-8.839844 0-16-7.160156-16-16v-40h-32v48c0 22.089844 17.910156 40 40 40h72zm0 0" fill="#6e83b7"/><path d="m72 400c-4.414062 0-8-3.585938-8-8v-304h16v304c0 4.414062-3.585938 8-8 8zm0 0" fill="#80d6fb"/><g fill="#ffe352"><path d="m112 376h304v64h-304zm0 0"/><path d="m112 280h304v64h-304zm0 0"/></g></svg>