<svg height="480pt" viewBox="-80 0 480 480" width="480pt" xmlns="http://www.w3.org/2000/svg"><path d="m271.007812 200.097656-11.503906-92.066406c-2-16.015625-15.617187-28.03125-31.75-28.03125h-19.753906c8.839844 0 16-7.160156 16-16v-48c0-8.839844-7.160156-16-16-16h-96c-8.839844 0-16 7.160156-16 16v48c0 8.839844 7.160156 16 16 16h-19.753906c-16.132813 0-29.75 12.015625-31.75 28.03125l-11.503906 92.066406c-.664063 5.261719-.992188 10.566406-.992188 15.871094v136.03125h224v-136.03125c0-5.304688-.328125-10.609375-.992188-15.871094zm0 0" fill="#80d6fb"/><path d="m80 352v-136.03125c0-3.953125.246094-7.898438.734375-11.816406l9.761719-78.136719c1-8.007813 7.808594-14.015625 15.878906-14.015625h107.25c8.070312 0 14.871094 6.007812 15.878906 14.015625l9.753906 78.046875c.496094 3.953125.742188 7.9375.742188 11.921875v136.015625zm0 0" fill="#46bee8"/><path d="m272 288.144531c-7.96875.367188-15.390625 4.632813-19.519531 11.511719l-5.832031 9.726562c-4.335938 7.226563-12.175782 11.714844-20.472657 11.714844-2.128906 0-4.246093-.296875-6.296875-.882812-18.941406-5.375-39.648437-8.214844-59.878906-8.214844s-40.9375 2.839844-59.871094 8.214844c-2.050781.585937-4.167968.882812-6.296875.882812-8.289062 0-16.136719-4.488281-20.472656-11.722656l-5.832031-9.726562c-4.136719-6.878907-11.558594-11.144532-19.519532-11.511719v63.863281h224v-63.855469zm0 0" fill="#46bee8"/><path d="m304 296h-30.945312c-5.621094 0-10.832032 2.953125-13.71875 7.769531l-5.832032 9.726563c-7.367187 12.289062-22.039062 18.328125-35.816406 14.414062-13.984375-3.964844-33.863281-7.910156-57.6875-7.910156s-43.703125 3.945312-57.6875 7.910156c-13.785156 3.914063-28.449219-2.125-35.816406-14.414062l-5.832032-9.726563c-2.894531-4.816406-8.105468-7.769531-13.71875-7.769531h-30.945312c-8.839844 0-16 7.160156-16 16v16l13.054688 39.175781c6.539062 19.601563 24.882812 32.824219 45.546874 32.824219h202.796876c20.664062 0 39-13.222656 45.539062-32.824219l13.0625-39.175781v-16c0-8.839844-7.160156-16-16-16zm0 0" fill="#80d6fb"/><path d="m128 40c0 4.417969-3.582031 8-8 8s-8-3.582031-8-8 3.582031-8 8-8 8 3.582031 8 8zm0 0" fill="#46bee8"/><path d="m208 40c0 4.417969-3.582031 8-8 8s-8-3.582031-8-8 3.582031-8 8-8 8 3.582031 8 8zm0 0" fill="#46bee8"/><path d="m230.304688 356.152344-46.304688 19.847656h-48l-46.304688-19.847656c-5.878906-2.519532-9.695312-8.304688-9.695312-14.703125v-13.449219c0-4.414062 3.585938-8 8-8h144c4.414062 0 8 3.585938 8 8v13.449219c0 6.398437-3.816406 12.183593-9.695312 14.703125zm0 0" fill="#6e83b7"/><path d="m176 408h-32c-4.414062 0-8-3.585938-8-8v-24h48v24c0 4.414062-3.585938 8-8 8zm0 0" fill="#edeff1"/><path d="m144 408h32v72h-32zm0 0" fill="#6e83b7"/><path d="m144 408h32v8h-32zm0 0" fill="#466089"/><g fill="#edeff1"><path d="m232 320h-144v-8c0-4.414062 3.585938-8 8-8h128c4.414062 0 8 3.585938 8 8zm0 0"/><path d="m108 280h8v16h-8zm0 0"/><path d="m132 280h8v16h-8zm0 0"/><path d="m156 280h8v16h-8zm0 0"/><path d="m180 280h8v16h-8zm0 0"/><path d="m204 280h8v16h-8zm0 0"/></g></svg>