<svg id="Capa_1" enable-background="new 0 0 512 512" height="512" viewBox="0 0 512 512" width="512" xmlns="http://www.w3.org/2000/svg"><circle cx="256" cy="256" fill="#b46e5a" r="256"/><path d="m159.1 402.833 108.891 108.891c135.818-6.263 244.009-118.358 244.009-255.724 0-17.453-1.747-34.497-5.074-50.968l-113.417-113.417z" fill="#915041"/><path d="m352.9 402.833-96.9 62.09-96.9-62.09c-25.304-16.214-40.609-44.197-40.609-74.25v-236.968h275.018v236.968c0 30.053-15.305 58.036-40.609 74.25z" fill="#ffd400"/><path d="m256 91.615v373.308l96.9-62.09c25.304-16.214 40.609-44.197 40.609-74.25v-236.968z" fill="#fcaf03"/><path d="m256.817 243.124-.571-29.994c65.833-1.254 84.672-23.627 88.878-30.454 3.025-4.911 3.857-9.872 2.226-13.271-1.245-2.594-2.493-3.021-3.163-3.25-4.549-1.557-12.602 1.218-14.865 2.35l-13.416-26.833c2.055-1.027 20.574-9.864 37.997-3.9 9.033 3.093 16.12 9.542 20.492 18.651 6.161 12.836 4.802 28.14-3.729 41.987-9.904 16.078-37.865 43.267-113.849 44.714z" fill="#23272b"/><path d="m259.15 243.124.571-29.994c-65.833-1.254-84.672-23.627-88.878-30.454-3.025-4.911-3.857-9.872-2.226-13.271 1.245-2.594 2.493-3.021 3.163-3.25 4.549-1.557 12.602 1.218 14.865 2.35l13.416-26.833c-2.055-1.027-20.574-9.864-37.997-3.9-9.033 3.093-16.12 9.542-20.492 18.651-6.161 12.836-4.802 28.14 3.729 41.987 9.904 16.078 37.865 43.267 113.849 44.714z" fill="#333940"/><g fill="#23272b"><path d="m352.138 177.636h21v178.497h-21z"/><path d="m319.804 203.491h21v122.153h-21z"/><path d="m290.979 218.338h21v86.795h-21z"/></g><path d="m328.703 365.982 13.152-8.005-8.319-13.667-18.16 11.054-.472-.376-29.517-34.541-12.164 10.394 28.096 32.879v.2l-18.782 11.433 8.319 13.667 10.463-6.369v17.274h16v-22.555l17.608 14.03 9.971-12.514z" fill="#d13400"/><path d="m137.799 177.636h21v178.497h-21z" fill="#333940"/><path d="m170.133 205.808h21v122.153h-21z" fill="#333940"/><path d="m198.958 218.338h21v86.795h-21z" fill="#333940"/><path d="m209.618 363.719 28.096-32.878-12.164-10.394-29.517 34.541-.472.376-18.16-11.054-8.319 13.667 13.152 8.005-16.195 12.904 9.971 12.514 17.608-14.03v22.555h16v-17.274l10.463 6.369 8.319-13.667-18.782-11.433z" fill="#f24500"/><path d="m241.539 125.685c5.855-1.152 19.393-1.49 38.874 12.038 0 0-12.195 7.761-8.315 21.065s26.608 50.445-1.663 135.258l33.815 38.804-17.739 3.88.554 19.402-15.799-18.848s-3.603 48.227 22.451 62.086c0 0-8.869 11.087-27.163 5.543l-10.554 18.294-11.618-19.402s-13.858 9.424-33.815-3.326c0 0 33.26-8.315 27.717-64.303l-13.304 19.956v-21.619h-19.956l33.26-40.467s-22.174-85.368 10.532-114.194c0 0 12.195-16.076-1.109-17.739-10.845-1.356-10.271-24.074-9.689-32.428.139-1.975 1.578-3.618 3.521-4z" fill="#333940"/><path d="m271.267 337.285 15.799 18.847-.554-19.402 17.739-3.88-33.815-38.804c28.271-84.813 5.543-121.954 1.663-135.258s8.315-21.065 8.315-21.065c-9.676-6.719-17.883-10.016-24.414-11.493v296.977l10.555-18.293c18.293 5.543 27.163-5.543 27.163-5.543-26.054-13.859-22.451-62.086-22.451-62.086z" fill="#23272b"/><path d="m252.643 132.464s-14.553-11.104-27.664 0c-7.206 6.104-3.203 9.382-3.203 9.382l27.926 4.632z" fill="#f24500"/></svg>