<svg id="Capa_1" enable-background="new 0 0 512 512" height="512" viewBox="0 0 512 512" width="512" xmlns="http://www.w3.org/2000/svg"><circle cx="256" cy="256" fill="#fe6a16" r="256"/><path d="m512 256c0-14.227-1.161-28.182-3.392-41.776l-152.074-152.074-38.875 61.258 42.075 42.075-25.338 96.858-78.396-78.395-30.245 50.263-74.734-74.734-30.185 47.565 145.993 145.993-187.613 26.403 127.757 127.622c16.062 3.201 32.666 4.898 49.659 4.94 141.094-.34 255.368-114.824 255.368-255.998z" fill="#f24500"/><path d="m256 152.774h53.784v149.445h-53.784z" fill="#bec3d2"/><path d="m252.707 154.091 30.185-47.564 30.185 47.566z" fill="#555a66"/><path d="m125.964 244.586h321.375v134.85h-321.375z" fill="#fff"/><path d="m257.277 244.586h190.062v134.85h-190.062z" fill="#e9edf5"/><path d="m447.339 244.586h-321.375l10.054-40.213h301.267z" fill="#414952"/><path d="m437.285 204.373h-180.008v40.213h190.062z" fill="#23272b"/><path d="m79.216 268.979h82.015v110.458h-82.015z" fill="#fff"/><path d="m161.23 268.979h-82.014l16.42-32.933h63.029z" fill="#414952"/><path d="m329.642 119.589h53.784v45.576h-53.784z" fill="#bec3d2"/><path d="m321.18 160.473v29.49l6.199 12.734v176.739h58.31v-176.739l6.2-12.734v-29.49z" fill="#cdd2e1"/><path d="m317.659 123.408 38.875-61.258 38.875 61.259z" fill="#23272b"/><path d="m229.108 230.192h53.784v149.244h-53.784z" fill="#dce1eb"/><path d="m257.277 230.192h25.615v149.244h-25.615z" fill="#bec3d2"/><path d="m225.815 231.51 30.185-47.565 30.185 47.567z" fill="#707789"/><path d="m256 183.946 1.277 47.565 28.908.001z" fill="#555a66"/><path d="m349.832 154.441h-12.064v-21.275c0-2.316 1.878-4.194 4.194-4.194h3.676c2.316 0 4.194 1.878 4.194 4.194z" fill="#23272b"/><path d="m362.566 212.248h-12.064v-21.275c0-2.316 1.878-4.194 4.194-4.194h3.676c2.316 0 4.194 1.878 4.194 4.194z" fill="#23272b"/><path d="m433.096 301.891h-12.064v-21.275c0-2.316 1.878-4.194 4.194-4.194h3.676c2.316 0 4.194 1.878 4.194 4.194z" fill="#23272b"/><path d="m272.242 270.055h-12.064v-21.275c0-2.316 1.878-4.194 4.194-4.194h3.676c2.316 0 4.194 1.878 4.194 4.194z" fill="#414952"/><path d="m251.967 270.055h-12.064v-21.275c0-2.316 1.878-4.194 4.194-4.194h3.676c2.316 0 4.194 1.878 4.194 4.194z" fill="#414952"/><path d="m124.129 205.722h53.784v173.715h-53.784z" fill="#dce1eb"/><path d="m120.835 207.039 30.186-47.564 30.185 47.566z" fill="#707789"/><path d="m157.053 248.781h-12.064v-21.275c0-2.316 1.878-4.194 4.194-4.194h3.676c2.316 0 4.194 1.878 4.194 4.194z" fill="#414952"/><path d="m157.053 290.52h-12.064v-21.275c0-2.316 1.878-4.194 4.194-4.194h3.676c2.316 0 4.194 1.878 4.194 4.194z" fill="#414952"/><path d="m407.474 301.891h-12.064v-21.275c0-2.316 1.878-4.194 4.194-4.194h3.676c2.316 0 4.194 1.878 4.194 4.194z" fill="#23272b"/><path d="m362.566 257.321h-12.064v-21.275c0-2.316 1.878-4.194 4.194-4.194h3.676c2.316 0 4.194 1.878 4.194 4.194z" fill="#23272b"/><path d="m375.301 154.441h-12.064v-21.275c0-2.316 1.878-4.194 4.194-4.194h3.676c2.316 0 4.194 1.878 4.194 4.194z" fill="#23272b"/><path d="m315.173 300.277h-18.99v-30.594c0-5.244 4.251-9.495 9.495-9.495 5.244 0 9.495 4.251 9.495 9.495z" fill="#23272b"/><g fill="#414952"><path d="m210.692 300.277h-18.99v-30.594c0-5.244 4.251-9.495 9.495-9.495 5.244 0 9.495 4.251 9.495 9.495z"/><path d="m191.703 314.625h19.437v19.437h-19.437z"/><path d="m295.96 314.625h19.437v19.437h-19.437z"/><path d="m95.636 314.625h19.437v19.437h-19.437z"/><path d="m95.636 281.905h19.437v19.437h-19.437z"/></g></svg>