<svg id="Capa_1" enable-background="new 0 0 512 512" height="512" viewBox="0 0 512 512" width="512" xmlns="http://www.w3.org/2000/svg"><circle cx="256" cy="256" fill="#b46e5a" r="256"/><path d="m512 256c0-19.48-2.176-38.452-6.298-56.686l-61.572-61.572-363.885 235.915 135.139 135.139c13.228 2.109 26.794 3.204 40.616 3.204 141.385 0 256-114.615 256-256z" fill="#915041"/><path d="m80.245 137.743h363.886v235.915h-363.886z" fill="#ffd400"/><path d="m255.839 137.743h188.291v235.915h-188.291z" fill="#fdba12"/><path d="m80.245 137.743 202.155-55.193 161.731 55.193z" fill="#ffe85f"/><path d="m282.4 82.55-26.561 7.251v47.942h188.292z" fill="#f7d948"/><circle cx="369.348" cy="236.925" fill="#f7d948" r="50.976"/><circle cx="296.122" cy="314.876" fill="#f7d948" r="30.81"/><g fill="#ffe85f"><circle cx="135.295" cy="255.7" r="30.108"/><path d="m165.403 317.716c-25.665 0-46.472 20.806-46.472 46.472 0 3.245.333 6.412.966 9.469h91.011c.633-3.057.966-6.224.966-9.469 0-25.666-20.806-46.472-46.471-46.472z"/><circle cx="240.593" cy="212.649" r="50.626"/></g><path d="m291.219 212.649c0-22.646-14.871-41.815-35.379-48.285v96.569c20.507-6.469 35.379-25.638 35.379-48.284z" fill="#f7d948"/><circle cx="399.185" cy="337.733" fill="#f7d948" r="21.138"/><circle cx="313.542" cy="170.616" fill="#f7d948" r="15.332"/><circle cx="130.24" cy="181.667" fill="#ffe85f" r="15.332"/></svg>