<svg id="Capa_1" enable-background="new 0 0 512 512" height="512" viewBox="0 0 512 512" width="512" xmlns="http://www.w3.org/2000/svg"><circle cx="256" cy="256" fill="#ffd400" r="256"/><path d="m270.127 511.617c132.692-7.217 238.495-115.483 241.793-249.182l-51.258-51.258-71.448 70.795-70.795-70.795-229.258 119.473z" fill="#fdba12"/><path d="m453.415 256c7.946-5.97 13.085-15.473 13.085-26.176 0-18.071-14.649-32.72-32.72-32.72-17.706 0-32.126 14.064-32.702 31.629h-92.725v54.533h92.725c.575 17.566 14.996 31.629 32.702 31.629 18.071 0 32.72-14.649 32.72-32.72 0-10.702-5.14-20.205-13.085-26.175z" fill="#fff"/><path d="m453.415 256h-145.062v27.267h92.725c.575 17.566 14.996 31.629 32.702 31.629 18.071 0 32.72-14.649 32.72-32.72 0-10.704-5.14-20.206-13.085-26.176z" fill="#e9edf5"/><path d="m343.54 256c0 57.357-124.828 103.855-182.186 103.855s-103.854-46.498-103.854-103.855 46.497-103.855 103.855-103.855 182.185 46.498 182.185 103.855z" fill="#b46e5a"/><path d="m161.355 359.854c57.357 0 182.186-46.497 182.186-103.854h-286.041c0 57.357 46.497 103.854 103.855 103.854z" fill="#915041"/><g fill="#d79b8c"><circle cx="133.584" cy="199.75" r="16.097"/><circle cx="97.955" cy="231.944" r="16.097"/><circle cx="146.084" cy="249.456" r="16.097"/></g><path d="m131.386 256c2.509 5.626 8.14 9.553 14.698 9.553s12.189-3.927 14.698-9.553z" fill="#b46e5a"/></svg>