<svg id="Capa_1" enable-background="new 0 0 512 512" height="512" viewBox="0 0 512 512" width="512" xmlns="http://www.w3.org/2000/svg"><circle cx="256" cy="256" fill="#ffd400" r="256"/><path d="m512 256c0-1.343-.01-2.684-.031-4.022l-191.978-191.978-143.367 439.456c24.99 8.142 51.669 12.544 79.376 12.544 141.385 0 256-114.615 256-256z" fill="#fdba12"/><path d="m449.897 260.815c4.469-5.566 2.809-13.829-3.477-17.213-17.301-9.315-50.315-29.308-70.331-55.534-16.319-21.382-49.947-44.954-75.246-60.943-19.507-12.329-44.528-11.54-63.242 1.962-13.249 9.559-29.813 22.192-47.855 37.524-54.913 46.667-137.626 74.868-189.308 104.478 6.222 107.052 78.225 196.449 176.186 228.367 25.398-70.269 73.693-197.89 92.101-205.639 25.484-10.728 41.95 10.729 102.408 7.663 41.587-2.109 66.971-25.973 78.764-40.665z" fill="#b46e5a"/><path d="m446.42 243.603c-17.301-9.315-50.315-29.308-70.331-55.534-16.319-21.382-49.947-44.954-75.246-60.943-13.652-8.628-30.003-10.823-45.005-6.74v188.814c5.088-8.452 9.495-13.957 12.885-15.384 25.484-10.728 41.95 10.729 102.408 7.663 41.588-2.108 66.971-25.973 78.765-40.664 4.47-5.566 2.81-13.828-3.476-17.212z" fill="#915041"/><path d="m329.252 147.136-4.203-75.599-5.058-11.537-75.146 97.409z" fill="#b46e5a"/><path d="m325.05 71.538-5.059-11.538-64.152 83.158v12.913l73.413-8.935z" fill="#915041"/><path d="m446.418 243.602c-17.301-9.316-50.314-29.308-70.329-55.533-8.468-11.095-21.598-22.781-35.805-33.69-11.826 6.469-26.771 18.292-30.348 37.77-6.131 33.378 53.813 54.495 45.639 63.69-6.614 7.44-34.317 22.238-43.338 40.245 14.101 3.325 47.716 10.985 74.429 11.249 28.772.285 51.435-31.825 63.229-46.516 4.47-5.567 2.81-13.83-3.477-17.215z" fill="#555a66"/><path d="m446.418 243.602c-5.34-2.875-12.178-6.769-19.668-11.548-6.086 7.098-9.764 16.32-9.764 26.403 0 10.819 4.234 20.648 11.135 27.923 9.129-9.044 16.527-19.027 21.774-25.563 4.47-5.567 2.81-13.831-3.477-17.215z" fill="#333940"/><path d="m354.96 202.036c-1.02 6.218-6.888 10.432-13.107 9.412s-18.317-13.531-17.296-19.75 14.772-3.789 20.991-2.768c6.218 1.02 10.432 6.888 9.412 13.106z" fill="#333940"/><path d="m301.309 259.832c-3.274-4.559-2.372-10.808 2.014-13.958s19.503-2.615 22.777 1.944-6.535 11.415-10.921 14.565-10.596 2.008-13.87-2.551z" fill="#414952"/><path d="m93.269 225.544c29.987 3.793 79.297 8.622 99.504 2.536 21.851-6.581 23.789-56.333 23.235-82.813-8.204 6.377-17.04 13.508-26.262 21.344-27.621 23.474-62.275 42.275-96.477 58.933z" fill="#414952"/><path d="m319.991 60s29.944 48.345 9.516 86.284l-24.206 7.709s25.858-62.292 14.69-93.993z" fill="#c38778"/></svg>