<svg height="503pt" viewBox="0 0 503.79182 503" width="503pt" xmlns="http://www.w3.org/2000/svg"><path d="m25.601562 473.996094v-328.535156c-.003906-9.050782 3.589844-17.734376 9.992188-24.136719 6.402344-6.402344 15.085938-9.996094 24.140625-9.996094h205.226563l186.453124 4.097656c11.03125 5.964844 17.910157 17.496094 17.917969 30.035157v328.535156zm0 0" fill="#7f8c8d"/><path d="m469.332031 145.460938v273.066406h-443.730469v-273.066406c-.003906-9.050782 3.589844-17.734376 9.992188-24.136719 6.402344-6.402344 15.085938-9.996094 24.140625-9.996094h205.226563l186.453124 4.097656c11.03125 5.964844 17.910157 17.496094 17.917969 30.035157zm0 0" fill="#35495e"/><path d="m469.332031 258.101562v160.425782h-443.730469v-73.46875c82.773438-65.195313 237.394532-147.96875 443.730469-86.957032zm0 0" fill="#2c3e50"/><path d="m494.933594 452.664062v25.597657c0 14.140625-11.460938 25.601562-25.601563 25.601562h-443.730469c-14.140624 0-25.601562-11.460937-25.601562-25.601562v-25.597657h179.199219c4.714843 0 8.535156 3.820313 8.535156 8.53125 0 4.714844 3.820313 8.535157 8.53125 8.535157h102.402344c4.710937 0 8.53125-3.820313 8.53125-8.535157 0-4.710937 3.820312-8.53125 8.535156-8.53125zm0 0" fill="#95a5a5"/><path d="m362.828125 324.355469c-9.738281-.085938-18.648437-5.492188-23.21875-14.09375-26.09375-45.011719-40.414063-95.875-41.644531-147.886719 1.230468-52.011719 15.554687-102.871094 41.644531-147.882812 4.570313-8.601563 13.476563-14.007813 23.214844-14.097657 9.734375.089844 18.640625 5.496094 23.210937 14.09375 26.09375 45.011719 40.417969 95.875 41.644532 147.886719-1.226563 52.011719-15.550782 102.875-41.644532 147.886719-4.570312 8.59375-13.472656 14.003906-23.207031 14.09375zm-.003906-306.894531c-3.554688.109374-6.761719 2.175781-8.332031 5.367187-14.738282 26.3125-39.460938 79.429687-39.460938 139.546875s24.722656 113.230469 39.464844 139.546875c1.589844 3.136719 4.808594 5.113281 8.328125 5.113281 3.515625 0 6.734375-1.976562 8.324219-5.113281 14.742187-26.3125 39.472656-79.429687 39.472656-139.546875s-24.730469-113.238281-39.472656-139.546875c-1.566407-3.191406-4.769532-5.257813-8.324219-5.367187zm0 0" fill="#e64c3c"/><path d="m476.855469 256.722656h-.113281c-51.210938.589844-101.6875-12.222656-146.417969-37.164062-43.777344-27.40625-79.804688-65.574219-104.636719-110.863282-5.039062-8.476562-5.113281-19.011718-.195312-27.5625 4.84375-8.238281 13.738281-13.242187 23.296874-13.101562h.117188c51.210938-.59375 101.683594 12.21875 146.414062 37.160156 43.78125 27.40625 79.808594 65.574219 104.640626 110.863282 5.035156 8.476562 5.109374 19.011718.199218 27.558593-4.847656 8.242188-13.746094 13.246094-23.304687 13.109375zm-228.066407-171.625c-3.484374-.132812-6.765624 1.648438-8.554687 4.640625-1.835937 3.289063-1.730469 7.320313.277344 10.507813 14.933593 26.179687 47.578125 74.585937 98.480469 104.613281 50.875 30 108.183593 34.679687 137.8125 34.796875 3.496093.113281 6.785156-1.660156 8.609374-4.648438 1.832032-3.289062 1.726563-7.316406-.28125-10.503906-14.929687-26.183594-47.578124-74.589844-98.480468-104.613281-50.867188-30-108.179688-34.671875-137.816406-34.792969zm0 0" fill="#f0c419"/><path d="m248.796875 256.722656c-9.5625.140625-18.460937-4.867187-23.304687-13.109375-4.914063-8.546875-4.839844-19.082031.195312-27.558593 24.832031-45.289063 60.859375-83.457032 104.636719-110.863282 44.730469-24.941406 95.207031-37.753906 146.417969-37.160156h.117187c9.554687-.140625 18.449219 4.863281 23.292969 13.101562 4.914062 8.550782 4.839844 19.085938-.195313 27.5625-24.828125 45.289063-60.855469 83.457032-104.636719 110.863282-44.730468 24.941406-95.203124 37.753906-146.414062 37.164062zm90.195313-136.832031c-50.898438 30.023437-83.546876 78.429687-98.476563 104.613281-2.007813 3.1875-2.117187 7.21875-.28125 10.507813 1.796875 2.992187 5.078125 4.769531 8.5625 4.644531h.042969c29.632812-.117188 86.945312-4.796875 137.8125-34.796875 50.910156-30.027344 83.554687-78.433594 98.484375-104.613281 2.007812-3.1875 2.113281-7.21875.277343-10.507813-1.777343-3.035156-5.097656-4.824219-8.605468-4.640625-29.636719.117188-86.945313 4.792969-137.816406 34.792969zm0 0" fill="#955ba5"/><path d="m68.265625 273.460938h42.667969v89.601562c0 11.78125-9.550782 21.332031-21.332032 21.332031-11.785156 0-21.335937-9.550781-21.335937-21.332031zm0 0" fill="#67b9cc"/><path d="m68.265625 239.328125h42.667969c4.710937 0 8.53125 3.820313 8.53125 8.535156v17.066407c0 4.710937-3.820313 8.53125-8.53125 8.53125h-42.667969c-4.710937 0-8.53125-3.820313-8.53125-8.53125v-17.066407c0-4.714843 3.820313-8.535156 8.53125-8.535156zm0 0" fill="#2fa8cc"/><path d="m153.601562 273.460938h42.664063v89.601562c0 5.65625-2.246094 11.085938-6.246094 15.085938-4.003906 4-9.429687 6.246093-15.085937 6.246093-11.78125 0-21.332032-9.550781-21.332032-21.332031zm0 0" fill="#67b9cc"/><path d="m153.601562 239.328125h42.664063c4.714844 0 8.535156 3.820313 8.535156 8.535156v17.066407c0 4.710937-3.820312 8.53125-8.535156 8.53125h-42.664063c-4.714843 0-8.535156-3.820313-8.535156-8.53125v-17.066407c0-4.714843 3.820313-8.535156 8.535156-8.535156zm0 0" fill="#2fa8cc"/><path d="m76.800781 213.730469c-2.257812-.035157-4.421875-.917969-6.058593-2.476563-.34375-.425781-.683594-.851562-1.023438-1.28125-.324219-.472656-.582031-.992187-.769531-1.535156-.246094-.484375-.417969-1-.511719-1.535156-.101562-.5625-.15625-1.132813-.171875-1.707032.03125-2.257812.917969-4.421874 2.476563-6.058593 2.042968-2.015625 4.953124-2.878907 7.765624-2.304688.535157.09375 1.050782.265625 1.535157.511719.542969.1875 1.058593.445312 1.535156.769531.425781.339844.855469.683594 1.28125 1.023438 1.554687 1.636719 2.441406 3.800781 2.472656 6.058593-.015625.574219-.070312 1.144532-.167969 1.707032-.097656.535156-.269531 1.050781-.511718 1.535156-.1875.542969-.445313 1.0625-.769532 1.535156-.339843.429688-.683593.855469-1.023437 1.28125-.425781.34375-.855469.683594-1.28125 1.023438-.476563.324218-.992187.582031-1.535156.769531-.484375.246094-1.003907.417969-1.535157.511719-.566406.097656-1.136718.15625-1.707031.171875zm0 0" fill="#955ba5"/><path d="m102.398438 188.136719c-2.257813-.03125-4.421876-.917969-6.058594-2.472657-.339844-.425781-.679688-.855468-1.023438-1.28125-.320312-.476562-.582031-.992187-.765625-1.535156-.246093-.484375-.421875-1-.511719-1.535156-.101562-.566406-.160156-1.136719-.171874-1.707031.03125-2.261719.914062-4.425781 2.472656-6.058594 2.042968-2.015625 4.957031-2.878906 7.765625-2.304687.535156.09375 1.054687.265624 1.539062.511718.542969.1875 1.058594.445313 1.535157.769532.425781.339843.851562.679687 1.277343 1.023437 1.558594 1.636719 2.441407 3.796875 2.476563 6.058594-.015625.570312-.074219 1.140625-.171875 1.707031-.09375.53125-.265625 1.050781-.511719 1.535156-.1875.542969-.445312 1.058594-.765625 1.535156-.34375.425782-.683594.855469-1.027344 1.28125-.425781.339844-.851562.683594-1.277343 1.023438-.476563.324219-.992188.582031-1.535157.769531-.484375.242188-1.003906.414063-1.539062.511719-.5625.097656-1.132813.152344-1.707031.167969zm0 0" fill="#955ba5"/><path d="m162.132812 213.730469c-2.257812-.035157-4.421874-.917969-6.058593-2.476563-.339844-.425781-.683594-.851562-1.023438-1.28125-.324219-.472656-.582031-.992187-.769531-1.535156-.246094-.484375-.417969-1-.511719-1.535156-.097656-.5625-.15625-1.132813-.167969-1.707032.03125-2.257812.914063-4.421874 2.472657-6.058593 2.042969-2.015625 4.957031-2.878907 7.765625-2.304688.535156.09375 1.050781.265625 1.535156.511719.542969.1875 1.0625.445312 1.535156.769531.429688.339844.855469.683594 1.28125 1.023438 1.558594 1.636719 2.441406 3.800781 2.476563 6.058593-.015625.574219-.074219 1.144532-.171875 1.707032-.09375.535156-.269532 1.050781-.511719 1.535156-.1875.542969-.445313 1.0625-.769531 1.535156-.339844.429688-.679688.855469-1.023438 1.28125-.425781.34375-.851562.683594-1.28125 1.023438-.472656.324218-.992187.582031-1.535156.769531-.484375.246094-1 .417969-1.535156.511719-.5625.097656-1.132813.15625-1.707032.171875zm0 0" fill="#f0c419"/><path d="m187.734375 188.136719c-2.261719-.03125-4.421875-.917969-6.058594-2.472657-.34375-.425781-.683593-.855468-1.023437-1.28125-.324219-.476562-.582032-.992187-.769532-1.535156-.246093-.484375-.417968-1-.511718-1.535156-.101563-.566406-.15625-1.136719-.171875-1.707031.03125-2.261719.917969-4.425781 2.476562-6.058594 2.042969-2.015625 4.953125-2.878906 7.765625-2.304687.535156.09375 1.050782.265624 1.535156.511718.542969.1875 1.058594.445313 1.535157.769532.425781.339843.855469.679687 1.28125 1.023437 1.554687 1.636719 2.441406 3.796875 2.472656 6.058594-.015625.570312-.070313 1.140625-.167969 1.707031-.097656.53125-.269531 1.050781-.511718 1.535156-.1875.542969-.445313 1.058594-.769532 1.535156-.339844.425782-.683594.855469-1.023437 1.28125-.425781.339844-.855469.683594-1.28125 1.023438-.476563.324219-.992188.582031-1.535157.769531-.484374.242188-1.003906.414063-1.535156.511719-.566406.097656-1.136718.152344-1.707031.167969zm0 0" fill="#f0c419"/><g fill="#67b9cc"><path d="m256 350.261719c-4.710938 0-8.535156-3.820313-8.535156-8.53125v-17.066407c0-4.714843 3.824218-8.535156 8.535156-8.535156s8.535156 3.820313 8.535156 8.535156v17.066407c0 4.710937-3.824218 8.53125-8.535156 8.53125zm0 0"/><path d="m290.132812 350.261719c-4.710937 0-8.53125-3.820313-8.53125-8.53125v-17.066407c0-4.714843 3.820313-8.535156 8.53125-8.535156 4.714844 0 8.535157 3.820313 8.535157 8.535156v17.066407c0 4.710937-3.820313 8.53125-8.535157 8.53125zm0 0"/><path d="m324.265625 350.261719c-4.710937 0-8.53125-3.820313-8.53125-8.53125v-17.066407c0-4.714843 3.820313-8.535156 8.53125-8.535156 4.714844 0 8.535156 3.820313 8.535156 8.535156v17.066407c0 4.710937-3.820312 8.53125-8.535156 8.53125zm0 0"/><path d="m426.667969 350.261719c-4.714844 0-8.535157-3.820313-8.535157-8.53125v-17.066407c0-4.714843 3.820313-8.535156 8.535157-8.535156 4.710937 0 8.53125 3.820313 8.53125 8.535156v17.066407c0 4.710937-3.820313 8.53125-8.53125 8.53125zm0 0"/><path d="m392.535156 350.261719c-4.714844 0-8.535156-3.820313-8.535156-8.53125v-8.535157c0-4.710937 3.820312-8.53125 8.535156-8.53125 4.710938 0 8.53125 3.820313 8.53125 8.53125v8.535157c0 4.710937-3.820312 8.53125-8.53125 8.53125zm0 0"/><path d="m256 384.394531c-.570312-.019531-1.140625-.074219-1.707031-.167969-.535157-.097656-1.050781-.269531-1.535157-.511718-.542968-.1875-1.058593-.449219-1.535156-.769532-.429687-.339843-.855468-.683593-1.28125-1.023437-3.300781-3.367187-3.300781-8.753906 0-12.117187 2.472656-2.386719 6.121094-3.085938 9.300782-1.792969 1.035156.433593 1.988281 1.039062 2.816406 1.792969 2.460937 2.441406 3.203125 6.128906 1.871094 9.332031-1.328126 3.199219-4.464844 5.28125-7.929688 5.257812zm0 0"/><path d="m290.132812 384.394531c-.570312-.019531-1.140624-.074219-1.707031-.167969-.535156-.097656-1.050781-.269531-1.535156-.511718-.542969-.1875-1.058594-.449219-1.535156-.769532-.425781-.339843-.855469-.683593-1.28125-1.023437-3.300781-3.367187-3.300781-8.753906 0-12.117187 2.472656-2.386719 6.121093-3.085938 9.300781-1.792969 1.035156.433593 1.988281 1.039062 2.816406 1.792969 2.460938 2.441406 3.203125 6.128906 1.871094 9.332031-1.328125 3.199219-4.460938 5.28125-7.929688 5.257812zm0 0"/><path d="m324.265625 384.394531c-.570313-.019531-1.140625-.074219-1.707031-.167969-.53125-.097656-1.050782-.269531-1.535156-.511718-.542969-.1875-1.058594-.449219-1.535157-.769532-.425781-.339843-.855469-.683593-1.28125-1.023437-3.296875-3.367187-3.296875-8.753906 0-12.117187 2.472657-2.386719 6.121094-3.085938 9.300781-1.792969 1.035157.433593 1.988282 1.039062 2.816407 1.792969 2.460937 2.441406 3.203125 6.128906 1.875 9.332031-1.332031 3.199219-4.464844 5.28125-7.933594 5.257812zm0 0"/><path d="m358.398438 384.394531c-.570313-.019531-1.140626-.074219-1.707032-.167969-.53125-.097656-1.050781-.269531-1.535156-.511718-.542969-.1875-1.058594-.449219-1.535156-.769532-.425782-.339843-.851563-.683593-1.28125-1.023437-3.296875-3.367187-3.296875-8.753906 0-12.117187 2.476562-2.386719 6.121094-3.085938 9.304687-1.792969 1.03125.433593 1.984375 1.039062 2.8125 1.792969 2.464844 2.441406 3.203125 6.128906 1.875 9.332031-1.332031 3.199219-4.464843 5.28125-7.933593 5.257812zm0 0"/><path d="m358.398438 350.234375c-.570313-.019531-1.140626-.074219-1.707032-.167969-.53125-.09375-1.050781-.269531-1.535156-.511718-.542969-.1875-1.058594-.445313-1.535156-.769532-.425782-.335937-.851563-.683594-1.28125-1.023437-3.296875-3.367188-3.296875-8.753907 0-12.117188 2.472656-2.386719 6.121094-3.089843 9.304687-1.796875 1.03125.433594 1.984375 1.042969 2.8125 1.796875 2.464844 2.441407 3.203125 6.128907 1.875 9.332031-1.332031 3.199219-4.464843 5.28125-7.933593 5.257813zm0 0"/><path d="m392.535156 384.394531c-.574218-.019531-1.144531-.074219-1.707031-.167969-.535156-.097656-1.054687-.269531-1.539063-.511718-.542968-.1875-1.058593-.449219-1.535156-.769532-.425781-.339843-.851562-.683593-1.277344-1.023437-3.300781-3.367187-3.300781-8.753906 0-12.117187 2.472657-2.386719 6.117188-3.085938 9.300782-1.792969 1.03125.433593 1.984375 1.039062 2.816406 1.792969 2.460938 2.441406 3.199219 6.128906 1.871094 9.332031-1.332032 3.199219-4.464844 5.28125-7.929688 5.257812zm0 0"/><path d="m426.667969 384.394531c-.574219-.019531-1.144531-.074219-1.707031-.167969-.535157-.097656-1.050782-.269531-1.535157-.511718-.546875-.1875-1.0625-.449219-1.539062-.769532-.425781-.339843-.851563-.683593-1.277344-1.023437-3.300781-3.367187-3.300781-8.753906 0-12.117187 2.472656-2.386719 6.117187-3.085938 9.300781-1.792969 1.03125.433593 1.984375 1.039062 2.816406 1.792969 2.460938 2.441406 3.199219 6.128906 1.871094 9.332031-1.328125 3.199219-4.464844 5.28125-7.929687 5.257812zm0 0"/></g></svg>