<svg height="512pt" viewBox="0 0 512 512" width="512pt" xmlns="http://www.w3.org/2000/svg"><g fill="#3f5c6c"><path d="m76.800781 42.667969c-4.714843 0-8.535156-3.820313-8.535156-8.535157v-25.597656c0-4.714844 3.820313-8.535156 8.535156-8.535156 4.710938 0 8.53125 3.820312 8.53125 8.535156v25.597656c0 4.714844-3.820312 8.535157-8.53125 8.535157zm0 0"/><path d="m128 42.667969c-4.710938 0-8.535156-3.820313-8.535156-8.535157v-25.597656c0-4.714844 3.824218-8.535156 8.535156-8.535156s8.535156 3.820312 8.535156 8.535156v25.597656c0 4.714844-3.824218 8.535157-8.535156 8.535157zm0 0"/><path d="m179.199219 42.667969c-4.710938 0-8.53125-3.820313-8.53125-8.535157v-25.597656c0-4.714844 3.820312-8.535156 8.53125-8.535156 4.714843 0 8.535156 3.820312 8.535156 8.535156v25.597656c0 4.714844-3.820313 8.535157-8.535156 8.535157zm0 0"/><path d="m230.398438 42.667969c-4.710938 0-8.53125-3.820313-8.53125-8.535157v-25.597656c0-4.714844 3.820312-8.535156 8.53125-8.535156 4.714843 0 8.535156 3.820312 8.535156 8.535156v25.597656c0 4.714844-3.820313 8.535157-8.535156 8.535157zm0 0"/><path d="m281.601562 42.667969c-4.714843 0-8.535156-3.820313-8.535156-8.535157v-25.597656c0-4.714844 3.820313-8.535156 8.535156-8.535156 4.710938 0 8.53125 3.820312 8.53125 8.535156v25.597656c0 4.714844-3.820312 8.535157-8.53125 8.535157zm0 0"/><path d="m332.800781 42.667969c-4.714843 0-8.535156-3.820313-8.535156-8.535157v-25.597656c0-4.714844 3.820313-8.535156 8.535156-8.535156 4.710938 0 8.53125 3.820312 8.53125 8.535156v25.597656c0 4.714844-3.820312 8.535157-8.53125 8.535157zm0 0"/><path d="m384 42.667969c-4.710938 0-8.535156-3.820313-8.535156-8.535157v-25.597656c0-4.714844 3.824218-8.535156 8.535156-8.535156s8.535156 3.820312 8.535156 8.535156v25.597656c0 4.714844-3.824218 8.535157-8.535156 8.535157zm0 0"/><path d="m435.199219 42.667969c-4.710938 0-8.53125-3.820313-8.53125-8.535157v-25.597656c0-4.714844 3.820312-8.535156 8.53125-8.535156 4.714843 0 8.535156 3.820312 8.535156 8.535156v25.597656c0 4.714844-3.820313 8.535157-8.535156 8.535157zm0 0"/><path d="m76.800781 512c-4.714843 0-8.535156-3.820312-8.535156-8.535156v-25.597656c0-4.714844 3.820313-8.535157 8.535156-8.535157 4.710938 0 8.53125 3.820313 8.53125 8.535157v25.597656c0 4.714844-3.820312 8.535156-8.53125 8.535156zm0 0"/><path d="m128 512c-4.710938 0-8.535156-3.820312-8.535156-8.535156v-25.597656c0-4.714844 3.824218-8.535157 8.535156-8.535157s8.535156 3.820313 8.535156 8.535157v25.597656c0 4.714844-3.824218 8.535156-8.535156 8.535156zm0 0"/><path d="m179.199219 512c-4.710938 0-8.53125-3.820312-8.53125-8.535156v-25.597656c0-4.714844 3.820312-8.535157 8.53125-8.535157 4.714843 0 8.535156 3.820313 8.535156 8.535157v25.597656c0 4.714844-3.820313 8.535156-8.535156 8.535156zm0 0"/><path d="m230.398438 512c-4.710938 0-8.53125-3.820312-8.53125-8.535156v-25.597656c0-4.714844 3.820312-8.535157 8.53125-8.535157 4.714843 0 8.535156 3.820313 8.535156 8.535157v25.597656c0 4.714844-3.820313 8.535156-8.535156 8.535156zm0 0"/><path d="m281.601562 512c-4.714843 0-8.535156-3.820312-8.535156-8.535156v-25.597656c0-4.714844 3.820313-8.535157 8.535156-8.535157 4.710938 0 8.53125 3.820313 8.53125 8.535157v25.597656c0 4.714844-3.820312 8.535156-8.53125 8.535156zm0 0"/><path d="m332.800781 512c-4.714843 0-8.535156-3.820312-8.535156-8.535156v-25.597656c0-4.714844 3.820313-8.535157 8.535156-8.535157 4.710938 0 8.53125 3.820313 8.53125 8.535157v25.597656c0 4.714844-3.820312 8.535156-8.53125 8.535156zm0 0"/><path d="m384 512c-4.710938 0-8.535156-3.820312-8.535156-8.535156v-25.597656c0-4.714844 3.824218-8.535157 8.535156-8.535157s8.535156 3.820313 8.535156 8.535157v25.597656c0 4.714844-3.824218 8.535156-8.535156 8.535156zm0 0"/><path d="m435.199219 512c-4.710938 0-8.53125-3.820312-8.53125-8.535156v-25.597656c0-4.714844 3.820312-8.535157 8.53125-8.535157 4.714843 0 8.535156 3.820313 8.535156 8.535157v25.597656c0 4.714844-3.820313 8.535156-8.535156 8.535156zm0 0"/><path d="m34.132812 443.734375h-25.597656c-4.714844 0-8.535156-3.820313-8.535156-8.535156 0-4.710938 3.820312-8.53125 8.535156-8.53125h25.597656c4.714844 0 8.535157 3.820312 8.535157 8.53125 0 4.714843-3.820313 8.535156-8.535157 8.535156zm0 0"/><path d="m34.132812 392.535156h-25.597656c-4.714844 0-8.535156-3.824218-8.535156-8.535156s3.820312-8.535156 8.535156-8.535156h25.597656c4.714844 0 8.535157 3.824218 8.535157 8.535156s-3.820313 8.535156-8.535157 8.535156zm0 0"/><path d="m34.132812 341.332031h-25.597656c-4.714844 0-8.535156-3.820312-8.535156-8.53125 0-4.714843 3.820312-8.535156 8.535156-8.535156h25.597656c4.714844 0 8.535157 3.820313 8.535157 8.535156 0 4.710938-3.820313 8.53125-8.535157 8.53125zm0 0"/><path d="m34.132812 290.132812h-25.597656c-4.714844 0-8.535156-3.820312-8.535156-8.53125 0-4.714843 3.820312-8.535156 8.535156-8.535156h25.597656c4.714844 0 8.535157 3.820313 8.535157 8.535156 0 4.710938-3.820313 8.53125-8.535157 8.53125zm0 0"/><path d="m34.132812 238.933594h-25.597656c-4.714844 0-8.535156-3.820313-8.535156-8.535156 0-4.710938 3.820312-8.53125 8.535156-8.53125h25.597656c4.714844 0 8.535157 3.820312 8.535157 8.53125 0 4.714843-3.820313 8.535156-8.535157 8.535156zm0 0"/><path d="m34.132812 187.734375h-25.597656c-4.714844 0-8.535156-3.820313-8.535156-8.535156 0-4.710938 3.820312-8.53125 8.535156-8.53125h25.597656c4.714844 0 8.535157 3.820312 8.535157 8.53125 0 4.714843-3.820313 8.535156-8.535157 8.535156zm0 0"/><path d="m34.132812 136.535156h-25.597656c-4.714844 0-8.535156-3.824218-8.535156-8.535156s3.820312-8.535156 8.535156-8.535156h25.597656c4.714844 0 8.535157 3.824218 8.535157 8.535156s-3.820313 8.535156-8.535157 8.535156zm0 0"/><path d="m34.132812 85.332031h-25.597656c-4.714844 0-8.535156-3.820312-8.535156-8.53125 0-4.714843 3.820312-8.535156 8.535156-8.535156h25.597656c4.714844 0 8.535157 3.820313 8.535157 8.535156 0 4.710938-3.820313 8.53125-8.535157 8.53125zm0 0"/><path d="m503.464844 443.734375h-25.597656c-4.714844 0-8.535157-3.820313-8.535157-8.535156 0-4.710938 3.820313-8.53125 8.535157-8.53125h25.597656c4.714844 0 8.535156 3.820312 8.535156 8.53125 0 4.714843-3.820312 8.535156-8.535156 8.535156zm0 0"/><path d="m503.464844 392.535156h-25.597656c-4.714844 0-8.535157-3.824218-8.535157-8.535156s3.820313-8.535156 8.535157-8.535156h25.597656c4.714844 0 8.535156 3.824218 8.535156 8.535156s-3.820312 8.535156-8.535156 8.535156zm0 0"/><path d="m503.464844 341.332031h-25.597656c-4.714844 0-8.535157-3.820312-8.535157-8.53125 0-4.714843 3.820313-8.535156 8.535157-8.535156h25.597656c4.714844 0 8.535156 3.820313 8.535156 8.535156 0 4.710938-3.820312 8.53125-8.535156 8.53125zm0 0"/><path d="m503.464844 290.132812h-25.597656c-4.714844 0-8.535157-3.820312-8.535157-8.53125 0-4.714843 3.820313-8.535156 8.535157-8.535156h25.597656c4.714844 0 8.535156 3.820313 8.535156 8.535156 0 4.710938-3.820312 8.53125-8.535156 8.53125zm0 0"/><path d="m503.464844 238.933594h-25.597656c-4.714844 0-8.535157-3.820313-8.535157-8.535156 0-4.710938 3.820313-8.53125 8.535157-8.53125h25.597656c4.714844 0 8.535156 3.820312 8.535156 8.53125 0 4.714843-3.820312 8.535156-8.535156 8.535156zm0 0"/><path d="m503.464844 187.734375h-25.597656c-4.714844 0-8.535157-3.820313-8.535157-8.535156 0-4.710938 3.820313-8.53125 8.535157-8.53125h25.597656c4.714844 0 8.535156 3.820312 8.535156 8.53125 0 4.714843-3.820312 8.535156-8.535156 8.535156zm0 0"/><path d="m503.464844 136.535156h-25.597656c-4.714844 0-8.535157-3.824218-8.535157-8.535156s3.820313-8.535156 8.535157-8.535156h25.597656c4.714844 0 8.535156 3.824218 8.535156 8.535156s-3.820312 8.535156-8.535156 8.535156zm0 0"/><path d="m503.464844 85.332031h-25.597656c-4.714844 0-8.535157-3.820312-8.535157-8.53125 0-4.714843 3.820313-8.535156 8.535157-8.535156h25.597656c4.714844 0 8.535156 3.820313 8.535156 8.535156 0 4.710938-3.820312 8.53125-8.535156 8.53125zm0 0"/></g><path d="m68.265625 34.132812h375.46875c18.851563 0 34.132813 15.28125 34.132813 34.132813v375.46875c0 18.851563-15.28125 34.132813-34.132813 34.132813h-375.46875c-18.851563 0-34.132813-15.28125-34.132813-34.132813v-375.46875c0-18.851563 15.28125-34.132813 34.132813-34.132813zm0 0" fill="#2c3e50"/><path d="m443.734375 76.800781v358.398438c0 4.714843-3.820313 8.535156-8.535156 8.535156h-358.398438c-4.714843 0-8.535156-3.820313-8.535156-8.535156v-358.398438c0-4.714843 3.820313-8.535156 8.535156-8.535156h358.398438c4.714843 0 8.535156 3.820313 8.535156 8.535156zm0 0" fill="#3f5c6c"/><path d="m110.933594 110.933594h-8.535156c-4.710938 0-8.53125-3.820313-8.53125-8.535156 0-4.710938 3.820312-8.53125 8.53125-8.53125h8.535156c4.710937 0 8.53125 3.820312 8.53125 8.53125 0 4.714843-3.820313 8.535156-8.53125 8.535156zm0 0" fill="#ecf0f1"/><path d="m153.601562 110.933594h-8.535156c-4.710937 0-8.53125-3.820313-8.53125-8.535156 0-4.710938 3.820313-8.53125 8.53125-8.53125h8.535156c4.710938 0 8.53125 3.820312 8.53125 8.53125 0 4.714843-3.820312 8.535156-8.53125 8.535156zm0 0" fill="#ecf0f1"/><path d="m196.265625 110.933594h119.453125c9.425781 0 17.066406 7.640625 17.066406 17.066406v8.535156c0 9.425782-7.640625 17.066406-17.066406 17.066406h-119.453125c-9.425781 0-17.066406-7.640624-17.066406-17.066406v-8.535156c0-9.425781 7.640625-17.066406 17.066406-17.066406zm0 0" fill="#2fa8cc"/><path d="m307.207031 153.601562v82.691407c0 1.71875.519531 3.398437 1.492188 4.820312l72.894531 106.546875c7.148438 10.449219 7.925781 24 2.019531 35.199219s-17.527343 18.207031-30.191406 18.207031h-194.84375c-12.664063 0-24.285156-7.007812-30.191406-18.207031s-5.128907-24.75 2.019531-35.199219l72.894531-106.546875c.972657-1.421875 1.492188-3.101562 1.492188-4.820312v-82.691407zm0 0" fill="#67b9cc"/><path d="m283.046875 259.847656 70.378906 107.085938h-194.851562l70.371093-107.070313c1.574219-2.402343 4.253907-3.847656 7.125-3.847656l39.839844-.015625c2.875 0 5.558594 1.445312 7.136719 3.847656zm0 0" fill="#955ba5"/><path d="m221.867188 341.332031c-2.257813-.03125-4.421876-.917969-6.058594-2.472656-3.300782-3.367187-3.300782-8.753906 0-12.117187 2.472656-2.386719 6.117187-3.089844 9.300781-1.792969 1.042969.414062 2 1.019531 2.816406 1.792969.367188.402343.710938.832031 1.023438 1.277343.324219.476563.582031.996094.769531 1.539063.242188.484375.414062 1 .511719 1.535156.226562 1.125.226562 2.285156 0 3.414062-.097657.53125-.269531 1.050782-.511719 1.535157-.1875.542969-.445312 1.058593-.769531 1.535156-.316407.449219-.65625.875-1.023438 1.28125-1.636719 1.554687-3.800781 2.4375-6.058593 2.472656zm0 0" fill="#b49aca"/><path d="m247.464844 315.734375c-2.257813-.035156-4.421875-.917969-6.058594-2.476563-3.296875-3.363281-3.296875-8.75 0-12.117187 2.472656-2.386719 6.121094-3.085937 9.304688-1.792969 1.042968.414063 1.996093 1.023438 2.8125 1.792969.371093.40625.710937.832031 1.027343 1.28125.320313.476563.578125.992187.765625 1.535156.246094.484375.417969 1.003907.511719 1.535157.230469 1.128906.230469 2.289062 0 3.414062-.09375.535156-.265625 1.050781-.511719 1.535156-.1875.546875-.445312 1.0625-.765625 1.539063-.316406.445312-.660156.871093-1.027343 1.277343-1.636719 1.558594-3.796876 2.441407-6.058594 2.476563zm0 0" fill="#b49aca"/><path d="m273.066406 341.332031c-2.257812-.03125-4.421875-.917969-6.058594-2.472656-3.300781-3.367187-3.300781-8.753906 0-12.117187 2.472657-2.386719 6.121094-3.089844 9.300782-1.792969 1.042968.414062 2 1.019531 2.816406 1.792969.367188.402343.710938.832031 1.023438 1.277343.324218.476563.582031.996094.769531 1.539063.242187.484375.417969 1 .511719 1.535156.226562 1.125.226562 2.285156 0 3.414062-.09375.53125-.269532 1.050782-.511719 1.535157-.1875.542969-.445313 1.058593-.769531 1.535156-.316407.449219-.65625.875-1.023438 1.28125-1.636719 1.554687-3.800781 2.4375-6.058594 2.472656zm0 0" fill="#b49aca"/><path d="m238.933594 196.265625c-4.714844 0-8.535156-3.820313-8.535156-8.53125v-8.535156c0-4.710938 3.820312-8.53125 8.535156-8.53125 4.710937 0 8.53125 3.820312 8.53125 8.53125v8.535156c0 4.710937-3.820313 8.53125-8.53125 8.53125zm0 0" fill="#ecf0f1"/><path d="m238.933594 230.398438c-2.269532.023437-4.453125-.867188-6.058594-2.472657s-2.5-3.789062-2.476562-6.058593c.03125-2.261719.914062-4.425782 2.476562-6.058594.816406-.773438 1.769531-1.378906 2.816406-1.792969 2.074219-.859375 4.40625-.859375 6.484375 0 1.035157.433594 1.984375 1.039063 2.816407 1.792969.753906.828125 1.359374 1.78125 1.792968 2.816406 1.125 2.625.847656 5.636719-.738281 8.011719-1.582031 2.378906-4.257813 3.792969-7.113281 3.761719zm0 0" fill="#ecf0f1"/><path d="m145.066406 145.066406h-42.667968c-4.710938 0-8.53125-3.820312-8.53125-8.53125 0-4.714844 3.820312-8.535156 8.53125-8.535156h42.667968c4.714844 0 8.535156 3.820312 8.535156 8.535156 0 4.710938-3.820312 8.53125-8.535156 8.53125zm0 0" fill="#ecf0f1"/><path d="m409.601562 110.933594h-8.535156c-4.710937 0-8.53125-3.820313-8.53125-8.535156 0-4.710938 3.820313-8.53125 8.53125-8.53125h8.535156c4.710938 0 8.53125 3.820312 8.53125 8.53125 0 4.714843-3.820312 8.535156-8.53125 8.535156zm0 0" fill="#ecf0f1"/><path d="m366.933594 110.933594h-8.535156c-4.710938 0-8.53125-3.820313-8.53125-8.535156 0-4.710938 3.820312-8.53125 8.53125-8.53125h8.535156c4.710937 0 8.53125 3.820312 8.53125 8.53125 0 4.714843-3.820313 8.535156-8.53125 8.535156zm0 0" fill="#ecf0f1"/><path d="m409.601562 145.066406h-42.667968c-4.714844 0-8.535156-3.820312-8.535156-8.53125 0-4.714844 3.820312-8.535156 8.535156-8.535156h42.667968c4.710938 0 8.53125 3.820312 8.53125 8.535156 0 4.710938-3.820312 8.53125-8.53125 8.53125zm0 0" fill="#ecf0f1"/></svg>