<svg height="512pt" viewBox="-4 0 511 512" width="512pt" xmlns="http://www.w3.org/2000/svg"><path d="m300.636719 476.691406c.003906 9.363282-3.714844 18.347656-10.339844 24.96875-6.621094 6.625-15.605469 10.34375-24.96875 10.339844h-229.519531c-9.363282.003906-18.347656-3.714844-24.96875-10.339844-6.625-6.621094-10.34375-15.605468-10.339844-24.96875v-441.382812c-.003906-9.363282 3.714844-18.347656 10.339844-24.96875 6.621094-6.625 15.605468-10.34375025 24.96875-10.339844h229.519531c9.363281-.00390625 18.347656 3.714844 24.96875 10.339844 6.625 6.621094 10.34375 15.605468 10.339844 24.96875zm0 0" fill="#35495e"/><path d="m35.808594 70.621094h229.519531c19.5 0 35.308594 15.808594 35.308594 35.308594v326.621093c0 19.503907-15.808594 35.3125-35.308594 35.3125h-229.519531c-19.5 0-35.308594-15.808593-35.308594-35.3125v-326.621093c0-19.5 15.808594-35.308594 35.308594-35.308594zm0 0" fill="#67b9cc"/><path d="m300.636719 243.023438v189.527343c.003906 9.367188-3.714844 18.347657-10.339844 24.972657-6.621094 6.621093-15.605469 10.339843-24.96875 10.339843h-229.519531c-9.363282 0-18.347656-3.71875-24.96875-10.339843-6.625-6.625-10.34375-15.605469-10.339844-24.972657v-72.738281c82.496094-74.160156 189.210938-115.6875 300.136719-116.789062zm0 0" fill="#2fa8cc"/><path d="m97.601562 44.136719c-2.339843-.015625-4.582031-.933594-6.265624-2.558594-1.613282-1.691406-2.527344-3.929687-2.558594-6.269531.011718-1.152344.253906-2.292969.703125-3.351563.449219-1.070312 1.074219-2.054687 1.855469-2.914062 2.113281-2.082031 5.125-2.976563 8.03125-2.382813.554687.097656 1.089843.273438 1.589843.527344.542969.175781 1.050781.445312 1.5.796875 1.476563.953125 2.617188 2.339844 3.269531 3.972656.449219 1.058594.691407 2.199219.703126 3.351563-.011719.59375-.074219 1.183594-.179688 1.765625-.09375.554687-.273438 1.089843-.53125 1.589843-.191406.5625-.460938 1.097657-.792969 1.589844-.359375.460938-.742187.902344-1.148437 1.324219-.382813.421875-.828125.777344-1.324219 1.058594-.449219.351562-.957031.617187-1.5.796875-.5.25-1.035156.429687-1.589844.527344-.582031.101562-1.167969.160156-1.761719.175781zm0 0" fill="#2c3e50"/><path d="m203.535156 44.136719h-70.621094c-4.875 0-8.828124-3.949219-8.828124-8.828125 0-4.875 3.953124-8.824219 8.828124-8.824219h70.621094c4.875 0 8.828125 3.949219 8.828125 8.824219 0 4.878906-3.953125 8.828125-8.828125 8.828125zm0 0" fill="#2c3e50"/><g fill="#894b9d"><path d="m230.015625 185.378906h-17.652344c-4.875 0-8.828125-3.953125-8.828125-8.828125s3.953125-8.828125 8.828125-8.828125h17.652344c4.878906 0 8.828125 3.953125 8.828125 8.828125s-3.949219 8.828125-8.828125 8.828125zm0 0"/><path d="m230.015625 256h-17.652344c-4.875 0-8.828125-3.953125-8.828125-8.828125s3.953125-8.828125 8.828125-8.828125h17.652344c4.878906 0 8.828125 3.953125 8.828125 8.828125s-3.949219 8.828125-8.828125 8.828125zm0 0"/><path d="m230.015625 220.691406h-17.652344c-4.875 0-8.828125-3.953125-8.828125-8.828125s3.953125-8.828125 8.828125-8.828125h17.652344c4.878906 0 8.828125 3.953125 8.828125 8.828125s-3.949219 8.828125-8.828125 8.828125zm0 0"/><path d="m230.015625 326.621094h-17.652344c-4.875 0-8.828125-3.953125-8.828125-8.828125s3.953125-8.828125 8.828125-8.828125h17.652344c4.878906 0 8.828125 3.953125 8.828125 8.828125s-3.949219 8.828125-8.828125 8.828125zm0 0"/><path d="m230.015625 291.308594h-17.652344c-4.875 0-8.828125-3.949219-8.828125-8.824219 0-4.878906 3.953125-8.828125 8.828125-8.828125h17.652344c4.878906 0 8.828125 3.949219 8.828125 8.828125 0 4.875-3.949219 8.824219-8.828125 8.824219zm0 0"/><path d="m230.015625 361.929688h-17.652344c-4.875 0-8.828125-3.949219-8.828125-8.828126 0-4.875 3.953125-8.824218 8.828125-8.824218h17.652344c4.878906 0 8.828125 3.949218 8.828125 8.824218 0 4.878907-3.949219 8.828126-8.828125 8.828126zm0 0"/><path d="m230.015625 397.242188h-17.652344c-4.875 0-8.828125-3.953126-8.828125-8.828126s3.953125-8.828124 8.828125-8.828124h17.652344c4.878906 0 8.828125 3.953124 8.828125 8.828124s-3.949219 8.828126-8.828125 8.828126zm0 0"/><path d="m494.84375 185.378906h-17.652344c-4.878906 0-8.828125-3.953125-8.828125-8.828125s3.949219-8.828125 8.828125-8.828125h17.652344c4.875 0 8.828125 3.953125 8.828125 8.828125s-3.953125 8.828125-8.828125 8.828125zm0 0"/><path d="m494.84375 256h-17.652344c-4.878906 0-8.828125-3.953125-8.828125-8.828125s3.949219-8.828125 8.828125-8.828125h17.652344c4.875 0 8.828125 3.953125 8.828125 8.828125s-3.953125 8.828125-8.828125 8.828125zm0 0"/><path d="m494.84375 220.691406h-17.652344c-4.878906 0-8.828125-3.953125-8.828125-8.828125s3.949219-8.828125 8.828125-8.828125h17.652344c4.875 0 8.828125 3.953125 8.828125 8.828125s-3.953125 8.828125-8.828125 8.828125zm0 0"/><path d="m494.84375 326.621094h-17.652344c-4.878906 0-8.828125-3.953125-8.828125-8.828125s3.949219-8.828125 8.828125-8.828125h17.652344c4.875 0 8.828125 3.953125 8.828125 8.828125s-3.953125 8.828125-8.828125 8.828125zm0 0"/><path d="m494.84375 291.308594h-17.652344c-4.878906 0-8.828125-3.949219-8.828125-8.824219 0-4.878906 3.949219-8.828125 8.828125-8.828125h17.652344c4.875 0 8.828125 3.949219 8.828125 8.828125 0 4.875-3.953125 8.824219-8.828125 8.824219zm0 0"/><path d="m494.84375 361.929688h-17.652344c-4.878906 0-8.828125-3.949219-8.828125-8.828126 0-4.875 3.949219-8.824218 8.828125-8.824218h17.652344c4.875 0 8.828125 3.949218 8.828125 8.824218 0 4.878907-3.953125 8.828126-8.828125 8.828126zm0 0"/><path d="m494.84375 397.242188h-17.652344c-4.878906 0-8.828125-3.953126-8.828125-8.828126s3.949219-8.828124 8.828125-8.828124h17.652344c4.875 0 8.828125 3.953124 8.828125 8.828124s-3.953125 8.828126-8.828125 8.828126zm0 0"/><path d="m247.671875 441.378906c-4.875 0-8.828125-3.953125-8.828125-8.828125v-17.652343c0-4.878907 3.953125-8.828126 8.828125-8.828126s8.828125 3.949219 8.828125 8.828126v17.652343c0 4.875-3.953125 8.828125-8.828125 8.828125zm0 0"/><path d="m318.292969 441.378906c-4.875 0-8.828125-3.953125-8.828125-8.828125v-17.652343c0-4.878907 3.953125-8.828126 8.828125-8.828126s8.828125 3.949219 8.828125 8.828126v17.652343c0 4.875-3.953125 8.828125-8.828125 8.828125zm0 0"/><path d="m282.984375 441.378906c-4.878906 0-8.828125-3.953125-8.828125-8.828125v-17.652343c0-4.878907 3.949219-8.828126 8.828125-8.828126 4.875 0 8.824219 3.949219 8.824219 8.828126v17.652343c0 4.875-3.949219 8.828125-8.824219 8.828125zm0 0"/><path d="m388.914062 441.378906c-4.875 0-8.828124-3.953125-8.828124-8.828125v-17.652343c0-4.878907 3.953124-8.828126 8.828124-8.828126s8.828126 3.949219 8.828126 8.828126v17.652343c0 4.875-3.953126 8.828125-8.828126 8.828125zm0 0"/><path d="m353.601562 441.378906c-4.875 0-8.824218-3.953125-8.824218-8.828125v-17.652343c0-4.878907 3.949218-8.828126 8.824218-8.828126 4.878907 0 8.828126 3.949219 8.828126 8.828126v17.652343c0 4.875-3.949219 8.828125-8.828126 8.828125zm0 0"/><path d="m424.222656 441.378906c-4.875 0-8.824218-3.953125-8.824218-8.828125v-17.652343c0-4.878907 3.949218-8.828126 8.824218-8.828126s8.828125 3.949219 8.828125 8.828126v17.652343c0 4.875-3.953125 8.828125-8.828125 8.828125zm0 0"/><path d="m459.535156 441.378906c-4.875 0-8.828125-3.953125-8.828125-8.828125v-17.652343c0-4.878907 3.953125-8.828126 8.828125-8.828126s8.828125 3.949219 8.828125 8.828126v17.652343c0 4.875-3.953125 8.828125-8.828125 8.828125zm0 0"/><path d="m247.671875 158.898438c-4.875 0-8.828125-3.953126-8.828125-8.828126v-17.65625c0-4.875 3.953125-8.828124 8.828125-8.828124s8.828125 3.953124 8.828125 8.828124v17.65625c0 4.875-3.953125 8.828126-8.828125 8.828126zm0 0"/><path d="m318.292969 158.898438c-4.875 0-8.828125-3.953126-8.828125-8.828126v-17.65625c0-4.875 3.953125-8.828124 8.828125-8.828124s8.828125 3.953124 8.828125 8.828124v17.65625c0 4.875-3.953125 8.828126-8.828125 8.828126zm0 0"/><path d="m282.984375 158.898438c-4.878906 0-8.828125-3.953126-8.828125-8.828126v-17.65625c0-4.875 3.949219-8.828124 8.828125-8.828124 4.875 0 8.824219 3.953124 8.824219 8.828124v17.65625c0 4.875-3.949219 8.828126-8.824219 8.828126zm0 0"/><path d="m388.914062 158.898438c-4.875 0-8.828124-3.953126-8.828124-8.828126v-17.65625c0-4.875 3.953124-8.828124 8.828124-8.828124s8.828126 3.953124 8.828126 8.828124v17.65625c0 4.875-3.953126 8.828126-8.828126 8.828126zm0 0"/><path d="m353.601562 158.898438c-4.875 0-8.824218-3.953126-8.824218-8.828126v-17.65625c0-4.875 3.949218-8.828124 8.824218-8.828124 4.878907 0 8.828126 3.953124 8.828126 8.828124v17.65625c0 4.875-3.949219 8.828126-8.828126 8.828126zm0 0"/><path d="m424.222656 158.898438c-4.875 0-8.824218-3.953126-8.824218-8.828126v-17.65625c0-4.875 3.949218-8.828124 8.824218-8.828124s8.828125 3.953124 8.828125 8.828124v17.65625c0 4.875-3.953125 8.828126-8.828125 8.828126zm0 0"/><path d="m459.535156 158.898438c-4.875 0-8.828125-3.953126-8.828125-8.828126v-17.65625c0-4.875 3.953125-8.828124 8.828125-8.828124s8.828125 3.953124 8.828125 8.828124v17.65625c0 4.875-3.953125 8.828126-8.828125 8.828126zm0 0"/></g><path d="m62.292969 229.515625c-14.621094-.015625-26.464844-11.863281-26.484375-26.480469v-17.65625c0-14.625 11.859375-26.480468 26.484375-26.480468s26.484375 11.855468 26.484375 26.480468v17.65625c-.015625 14.617188-11.863282 26.464844-26.484375 26.480469zm0-52.964844c-4.875.003907-8.824219 3.953125-8.828125 8.828125v17.65625c0 4.875 3.953125 8.828125 8.828125 8.828125s8.828125-3.953125 8.828125-8.828125v-17.65625c-.003906-4.875-3.953125-8.824218-8.828125-8.828125zm0 0" fill="#3d324c"/><path d="m150.570312 229.515625c-14.621093-.015625-26.46875-11.863281-26.484374-26.480469v-17.65625c0-14.625 11.855468-26.480468 26.484374-26.480468 14.625 0 26.480469 11.855468 26.480469 26.480468v17.65625c-.015625 14.617188-11.863281 26.464844-26.480469 26.480469zm0-52.964844c-4.875.003907-8.824218 3.953125-8.828124 8.828125v17.65625c0 4.875 3.953124 8.828125 8.828124 8.828125s8.828126-3.953125 8.828126-8.828125v-17.65625c-.007813-4.875-3.957032-8.824218-8.828126-8.828125zm0 0" fill="#3d324c"/><path d="m106.429688 229.515625c-4.875 0-8.828126-3.949219-8.828126-8.824219v-52.96875c0-4.875 3.953126-8.824218 8.828126-8.824218s8.828124 3.949218 8.828124 8.824218v52.96875c0 4.875-3.953124 8.824219-8.828124 8.824219zm0 0" fill="#3d324c"/><path d="m62.292969 388.414062c-14.621094-.015624-26.464844-11.863281-26.484375-26.484374v-17.652344c0-14.628906 11.859375-26.484375 26.484375-26.484375s26.484375 11.855469 26.484375 26.484375v17.652344c-.015625 14.621093-11.863282 26.46875-26.484375 26.484374zm0-52.964843c-4.875.003906-8.824219 3.953125-8.828125 8.828125v17.652344c0 4.875 3.953125 8.828124 8.828125 8.828124s8.828125-3.953124 8.828125-8.828124v-17.652344c-.003906-4.875-3.953125-8.824219-8.828125-8.828125zm0 0" fill="#3d324c"/><path d="m150.570312 388.414062c-14.621093-.015624-26.46875-11.863281-26.484374-26.484374v-17.652344c0-14.628906 11.855468-26.484375 26.484374-26.484375 14.625 0 26.480469 11.855469 26.480469 26.484375v17.652344c-.015625 14.621093-11.863281 26.46875-26.480469 26.484374zm0-52.964843c-4.875.003906-8.824218 3.953125-8.828124 8.828125v17.652344c0 4.875 3.953124 8.828124 8.828124 8.828124s8.828126-3.953124 8.828126-8.828124v-17.652344c-.007813-4.875-3.957032-8.824219-8.828126-8.828125zm0 0" fill="#3d324c"/><path d="m106.429688 388.414062c-4.875 0-8.828126-3.953124-8.828126-8.828124v-52.964844c0-4.875 3.953126-8.828125 8.828126-8.828125s8.828124 3.953125 8.828124 8.828125v52.964844c0 4.875-3.953124 8.828124-8.828124 8.828124zm0 0" fill="#3d324c"/><path d="m88.777344 308.964844c-14.621094-.015625-26.46875-11.863282-26.484375-26.480469v-17.65625c0-14.625 11.855469-26.484375 26.484375-26.484375 14.625 0 26.480468 11.859375 26.480468 26.484375v17.65625c-.015624 14.617187-11.863281 26.464844-26.480468 26.480469zm0-52.964844c-4.875.003906-8.824219 3.953125-8.828125 8.828125v17.65625c0 4.875 3.953125 8.824219 8.828125 8.824219s8.824218-3.949219 8.824218-8.824219v-17.65625c-.003906-4.875-3.953124-8.824219-8.824218-8.828125zm0 0" fill="#3d324c"/><path d="m150.570312 308.964844c-14.621093-.015625-26.46875-11.863282-26.484374-26.480469v-17.65625c0-14.625 11.855468-26.484375 26.484374-26.484375 14.625 0 26.480469 11.859375 26.480469 26.484375v17.65625c-.015625 14.617187-11.863281 26.464844-26.480469 26.480469zm0-52.964844c-4.875.003906-8.824218 3.953125-8.828124 8.828125v17.65625c0 4.875 3.953124 8.824219 8.828124 8.824219s8.828126-3.949219 8.828126-8.824219v-17.65625c-.007813-4.875-3.957032-8.824219-8.828126-8.828125zm0 0" fill="#3d324c"/><path d="m44.636719 308.964844c-4.875 0-8.828125-3.953125-8.828125-8.828125v-52.964844c0-4.875 3.953125-8.828125 8.828125-8.828125s8.828125 3.953125 8.828125 8.828125v52.964844c0 4.875-3.953125 8.828125-8.828125 8.828125zm0 0" fill="#3d324c"/><path d="m247.671875 150.070312h211.863281c9.75 0 17.65625 7.902344 17.65625 17.652344v229.519532c0 9.75-7.90625 17.65625-17.65625 17.65625h-211.863281c-9.75 0-17.65625-7.90625-17.65625-17.65625v-229.519532c0-9.75 7.90625-17.652344 17.65625-17.652344zm0 0" fill="#955ba5"/><path d="m353.601562 185.378906h79.449219c2.34375 0 4.589844.929688 6.246094 2.585938 1.65625 1.652344 2.585937 3.898437 2.582031 6.242187v176.550781c.003906 2.34375-.925781 4.589844-2.582031 6.246094s-3.902344 2.582032-6.246094 2.582032h-158.894531c-2.34375 0-4.589844-.925782-6.246094-2.582032s-2.585937-3.902344-2.582031-6.246094v-176.550781c-.003906-2.34375.925781-4.589843 2.582031-6.242187 1.65625-1.65625 3.902344-2.585938 6.246094-2.585938zm0 0" fill="#b49aca"/></svg>