<svg height="512pt" viewBox="0 0 512 512" width="512pt" xmlns="http://www.w3.org/2000/svg"><path d="m476.691406 114.757812h17.652344c9.75 0 17.65625 7.90625 17.65625 17.65625v344.277344c0 9.75-7.90625 17.652344-17.65625 17.652344h-186.894531c-4.679688 0-9.171875 1.859375-12.484375 5.171875l-7.3125 7.3125c-3.308594 3.3125-7.800782 5.171875-12.480469 5.171875h-38.34375c-4.679687 0-9.171875-1.859375-12.480469-5.171875l-7.3125-7.3125c-3.3125-3.3125-7.804687-5.171875-12.484375-5.171875h-186.894531c-9.75 0-17.65625-7.902344-17.65625-17.652344v-344.277344c0-9.75 7.90625-17.65625 17.65625-17.65625zm0 0" fill="#7f5b53"/><path d="m512 132.414062v344.277344c-.027344 9.738282-7.917969 17.625-17.65625 17.652344h-186.878906c-4.703125.003906-9.214844 1.878906-12.535156 5.210938l-7.238282 7.238281c-3.320312 3.332031-7.832031 5.203125-12.535156 5.207031h-19.15625v-397.242188h238.34375c9.738281.03125 17.628906 7.917969 17.65625 17.65625zm0 0" fill="#af8066"/><path d="m476.691406 86.511719v361.488281c.03125 2.664062-1.148437 5.195312-3.210937 6.878906s-4.78125 2.335938-7.382813 1.773438c-38.753906-8.210938-171.960937-33.015625-203.390625 8.121094-1.574219 2.105468-4.074219 3.324218-6.707031 3.265624v-402.363281h141.242188c31.867187 3.710938 60.113281 9.445313 72.5625 12.183594 4.046874.902344 6.914062 4.503906 6.886718 8.652344zm0 0" fill="#f5efca"/><path d="m256 65.675781v402.363281c-2.632812.058594-5.132812-1.160156-6.707031-3.265624-31.429688-41.136719-164.636719-16.332032-203.390625-8.121094-2.601563.5625-5.320313-.089844-7.382813-1.773438s-3.242187-4.214844-3.210937-6.878906v-361.488281c-.027344-4.148438 2.839844-7.75 6.886718-8.652344 12.449219-2.738281 40.695313-8.472656 72.5625-12.183594zm0 0" fill="#f9eab0"/><g fill="#35495e"><path d="m70.621094 379.585938c-2.347656.023437-4.605469-.902344-6.269532-2.558594-.777343-.859375-1.402343-1.84375-1.851562-2.914063-.492188-1.046875-.734375-2.195312-.707031-3.355469.015625-1.152343.253906-2.292968.707031-3.355468.425781-1.078125 1.054688-2.066406 1.851562-2.910156 2.539063-2.511719 6.335938-3.242188 9.625-1.855469 1.066407.449219 2.054688 1.074219 2.910157 1.855469.796875.84375 1.425781 1.832031 1.855469 2.910156.941406 2.136718.941406 4.574218 0 6.710937-.449219 1.066407-1.078126 2.050781-1.855469 2.914063-1.660157 1.65625-3.917969 2.582031-6.265625 2.558594zm0 0"/><path d="m123.585938 379.585938h-26.484376c-4.875 0-8.824218-3.953126-8.824218-8.828126s3.949218-8.828124 8.824218-8.828124h26.484376c4.875 0 8.828124 3.953124 8.828124 8.828124s-3.953124 8.828126-8.828124 8.828126zm0 0"/><path d="m132.414062 414.898438h-61.792968c-4.875 0-8.828125-3.953126-8.828125-8.828126s3.953125-8.828124 8.828125-8.828124h61.792968c4.875 0 8.828126 3.953124 8.828126 8.828124s-3.953126 8.828126-8.828126 8.828126zm0 0"/><path d="m194.207031 414.898438h-26.484375c-4.875 0-8.824218-3.953126-8.824218-8.828126s3.949218-8.828124 8.824218-8.828124h26.484375c4.875 0 8.828125 3.953124 8.828125 8.828124s-3.953125 8.828126-8.828125 8.828126zm0 0"/><path d="m441.378906 379.585938c2.347656.023437 4.605469-.902344 6.269532-2.558594.777343-.859375 1.402343-1.84375 1.851562-2.914063.492188-1.046875.734375-2.195312.707031-3.355469-.015625-1.152343-.253906-2.292968-.707031-3.355468-.425781-1.078125-1.054688-2.066406-1.851562-2.910156-2.539063-2.511719-6.335938-3.242188-9.625-1.855469-1.066407.449219-2.054688 1.074219-2.910157 1.855469-.796875.84375-1.425781 1.832031-1.855469 2.910156-.941406 2.136718-.941406 4.574218 0 6.710937.449219 1.066407 1.078126 2.050781 1.855469 2.914063 1.660157 1.65625 3.917969 2.582031 6.265625 2.558594zm0 0"/><path d="m414.898438 379.585938h-26.484376c-4.875 0-8.828124-3.953126-8.828124-8.828126s3.953124-8.828124 8.828124-8.828124h26.484376c4.875 0 8.824218 3.953124 8.824218 8.828124s-3.949218 8.828126-8.824218 8.828126zm0 0"/><path d="m441.378906 414.898438h-61.792968c-4.875 0-8.828126-3.953126-8.828126-8.828126s3.953126-8.828124 8.828126-8.828124h61.792968c4.875 0 8.828125 3.953124 8.828125 8.828124s-3.953125 8.828126-8.828125 8.828126zm0 0"/><path d="m344.277344 414.898438h-26.484375c-4.875 0-8.828125-3.953126-8.828125-8.828126s3.953125-8.828124 8.828125-8.828124h26.484375c4.875 0 8.824218 3.953124 8.824218 8.828124s-3.949218 8.828126-8.824218 8.828126zm0 0"/></g><path d="m132.414062 0h247.171876c9.75 0 17.65625 7.90625 17.65625 17.65625v35.308594c0 9.75-7.90625 17.65625-17.65625 17.65625h-247.171876c-9.75 0-17.65625-7.90625-17.65625-17.65625v-35.308594c0-9.75 7.90625-17.65625 17.65625-17.65625zm0 0" fill="#4482c3"/><path d="m158.898438 44.136719h-8.828126c-4.875 0-8.828124-3.949219-8.828124-8.828125 0-4.875 3.953124-8.824219 8.828124-8.824219h8.828126c4.875 0 8.824218 3.949219 8.824218 8.824219 0 4.878906-3.949218 8.828125-8.824218 8.828125zm0 0" fill="#f0c419"/><path d="m194.207031 44.136719c-1.152343-.011719-2.292969-.253907-3.355469-.703125-1.070312-.449219-2.054687-1.078125-2.914062-1.855469-2.523438-2.527344-3.257812-6.335937-1.851562-9.621094.425781-1.082031 1.054687-2.070312 1.851562-2.914062 3.542969-3.265625 8.996094-3.265625 12.535156 0 .796875.84375 1.429688 1.832031 1.855469 2.914062 1.164063 2.714844.878906 5.832031-.761719 8.289063-1.636718 2.457031-4.40625 3.921875-7.359375 3.890625zm0 0" fill="#f0c419"/><path d="m132.414062 114.757812h247.171876c9.75 0 17.65625 7.90625 17.65625 17.65625v35.308594c0 9.753906-7.90625 17.65625-17.65625 17.65625h-247.171876c-9.75 0-17.65625-7.902344-17.65625-17.65625v-35.308594c0-9.75 7.90625-17.65625 17.65625-17.65625zm0 0" fill="#4482c3"/><path d="m158.898438 158.898438h-8.828126c-4.875 0-8.828124-3.953126-8.828124-8.828126s3.953124-8.828124 8.828124-8.828124h8.828126c4.875 0 8.824218 3.953124 8.824218 8.828124s-3.949218 8.828126-8.824218 8.828126zm0 0" fill="#f0c419"/><path d="m194.207031 158.898438c-1.152343-.015626-2.292969-.253907-3.355469-.707032-1.070312-.449218-2.054687-1.074218-2.914062-1.855468-2.523438-2.527344-3.257812-6.335938-1.851562-9.621094.425781-1.082032 1.054687-2.070313 1.851562-2.914063 2.066406-2.144531 5.082031-3.085937 7.996094-2.492187 2.917968.589844 5.328125 2.628906 6.394531 5.40625 1.164063 2.714844.878906 5.832031-.761719 8.289062-1.636718 2.460938-4.40625 3.921875-7.359375 3.894532zm0 0" fill="#f0c419"/><path d="m132.414062 229.515625h247.171876c9.75 0 17.65625 7.90625 17.65625 17.65625v35.3125c0 9.75-7.90625 17.652344-17.65625 17.652344h-247.171876c-9.75 0-17.65625-7.902344-17.65625-17.652344v-35.3125c0-9.75 7.90625-17.65625 17.65625-17.65625zm0 0" fill="#4482c3"/><path d="m158.898438 273.65625h-8.828126c-4.875 0-8.828124-3.953125-8.828124-8.828125s3.953124-8.828125 8.828124-8.828125h8.828126c4.875 0 8.824218 3.953125 8.824218 8.828125s-3.949218 8.828125-8.824218 8.828125zm0 0" fill="#f0c419"/><path d="m194.207031 273.65625c-1.152343-.015625-2.292969-.253906-3.355469-.707031-1.070312-.449219-2.054687-1.074219-2.914062-1.855469-2.523438-2.527344-3.257812-6.335938-1.851562-9.621094.425781-1.078125 1.054687-2.070312 1.851562-2.914062 2.066406-2.140625 5.082031-3.082032 7.996094-2.492188 2.917968.589844 5.328125 2.628906 6.394531 5.40625 1.164063 2.714844.878906 5.832032-.761719 8.292969-1.636718 2.457031-4.40625 3.917969-7.359375 3.890625zm0 0" fill="#f0c419"/><path d="m132.414062 70.621094h247.171876v44.136718h-247.171876zm0 0" fill="#285680"/><path d="m132.414062 185.378906h247.171876v44.136719h-247.171876zm0 0" fill="#285680"/><path d="m132.414062 300.136719h247.171876v26.484375c0 9.75-7.902344 17.65625-17.65625 17.65625h-211.859376c-9.753906 0-17.65625-7.90625-17.65625-17.65625zm0 0" fill="#285680"/></svg>