<svg height="512pt" viewBox="0 0 512 512.16738" width="512pt" xmlns="http://www.w3.org/2000/svg"><path d="m35.394531 114.925781h-17.65625c-9.75 0-17.6562498 7.90625-17.6562498 17.65625v344.273438c0 9.753906 7.9062498 17.65625 17.6562498 17.65625h186.894531c4.683594 0 9.171876 1.859375 12.484376 5.171875l7.3125 7.3125c3.3125 3.3125 7.800781 5.171875 12.484374 5.171875h38.339844c4.683594 0 9.171875-1.859375 12.484375-5.171875l7.3125-7.3125c3.3125-3.3125 7.800781-5.171875 12.484375-5.171875h186.894532c9.75 0 17.652343-7.902344 17.652343-17.65625v-344.273438c0-9.75-7.902343-17.65625-17.652343-17.65625zm0 0" fill="#7f5b53"/><path d="m512.082031 132.582031v344.273438c-.027343 9.742187-7.914062 17.628906-17.652343 17.65625h-186.882813c-4.703125.003906-9.210937 1.878906-12.535156 5.207031l-7.238281 7.242188c-3.320313 3.328124-7.828126 5.203124-12.535157 5.207031h-19.15625v-397.242188h238.347657c9.738281.027344 17.625 7.917969 17.652343 17.65625zm0 0" fill="#af8066"/><path d="m365.28125 65.84375h4.148438c22.695312-.003906 45.347656 1.945312 67.707031 5.828125 14.300781 2.46875 25.953125 4.855469 32.75 6.355469 4.046875.898437 6.917969 4.503906 6.886719 8.648437v361.492188c.035156 2.660156-1.148438 5.195312-3.210938 6.878906s-4.78125 2.335937-7.382812 1.773437c-38.753907-8.210937-171.960938-33.015624-203.386719 8.121094-1.625 2.046875-4.09375 3.242188-6.710938 3.242188-2.613281 0-5.082031-1.195313-6.707031-3.242188-31.425781-41.136718-164.632812-16.332031-203.386719-8.121094-2.601562.5625-5.320312-.089843-7.382812-1.773437s-3.246094-4.21875-3.210938-6.878906v-361.492188c-.03125-4.144531 2.839844-7.75 6.886719-8.648437 6.796875-1.5 18.449219-3.886719 32.75-6.355469 22.359375-3.882813 45.011719-5.832031 67.707031-5.828125zm0 0" fill="#f9eab0"/><path d="m476.773438 86.675781v361.492188c.035156 2.660156-1.148438 5.195312-3.210938 6.878906s-4.78125 2.335937-7.382812 1.773437c-38.753907-8.210937-171.960938-33.015624-203.386719 8.121094-1.578125 2.105469-4.078125 3.324219-6.710938 3.265625v-402.363281h113.347657c22.695312-.003906 45.347656 1.945312 67.707031 5.828125 14.300781 2.46875 25.953125 4.855469 32.75 6.355469 4.046875.898437 6.917969 4.503906 6.886719 8.648437zm0 0" fill="#f5efca"/><g fill="#35495e"><path d="m70.703125 379.753906c-2.347656.019532-4.605469-.902344-6.265625-2.558594-.777344-.859374-1.40625-1.847656-1.855469-2.914062-.492187-1.046875-.734375-2.199219-.707031-3.355469.015625-1.152343.253906-2.292969.707031-3.355469.425781-1.078124 1.054688-2.066406 1.855469-2.910156 2.535156-2.511718 6.335938-3.242187 9.621094-1.855468 1.070312.449218 2.054687 1.074218 2.914062 1.855468.796875.84375 1.425782 1.832032 1.851563 2.910156.945312 2.136719.945312 4.574219 0 6.710938-.449219 1.066406-1.074219 2.050781-1.851563 2.914062-1.664062 1.65625-3.921875 2.578126-6.269531 2.558594zm0 0"/><path d="m123.667969 379.753906h-26.480469c-4.875 0-8.828125-3.953125-8.828125-8.828125s3.953125-8.828125 8.828125-8.828125h26.480469c4.878906 0 8.828125 3.953125 8.828125 8.828125s-3.949219 8.828125-8.828125 8.828125zm0 0"/><path d="m132.496094 415.0625h-61.792969c-4.875 0-8.828125-3.949219-8.828125-8.824219 0-4.878906 3.953125-8.828125 8.828125-8.828125h61.792969c4.875 0 8.828125 3.949219 8.828125 8.828125 0 4.875-3.953125 8.824219-8.828125 8.824219zm0 0"/><path d="m194.289062 415.0625h-26.480468c-4.875 0-8.828125-3.949219-8.828125-8.824219 0-4.878906 3.953125-8.828125 8.828125-8.828125h26.480468c4.875 0 8.828126 3.949219 8.828126 8.828125 0 4.875-3.953126 8.824219-8.828126 8.824219zm0 0"/><path d="m441.464844 379.753906c2.347656.019532 4.605468-.902344 6.265625-2.558594.777343-.859374 1.40625-1.847656 1.855469-2.914062.492187-1.046875.734374-2.199219.703124-3.355469-.011718-1.152343-.253906-2.292969-.703124-3.355469-.429688-1.078124-1.058594-2.066406-1.855469-2.910156-2.535157-2.511718-6.335938-3.242187-9.621094-1.855468-1.070313.449218-2.054687 1.074218-2.914063 1.855468-.796874.84375-1.425781 1.832032-1.855468 2.910156-.941406 2.136719-.941406 4.574219 0 6.710938.453125 1.066406 1.078125 2.050781 1.855468 2.914062 1.660157 1.65625 3.917969 2.578126 6.269532 2.558594zm0 0"/><path d="m414.980469 379.753906h-26.484375c-4.875 0-8.828125-3.953125-8.828125-8.828125s3.953125-8.828125 8.828125-8.828125h26.484375c4.875 0 8.828125 3.953125 8.828125 8.828125s-3.953125 8.828125-8.828125 8.828125zm0 0"/><path d="m441.464844 415.0625h-61.796875c-4.875 0-8.824219-3.949219-8.824219-8.824219 0-4.878906 3.949219-8.828125 8.824219-8.828125h61.796875c4.875 0 8.824218 3.949219 8.824218 8.828125 0 4.875-3.949218 8.824219-8.824218 8.824219zm0 0"/><path d="m344.359375 415.0625h-26.484375c-4.875 0-8.824219-3.949219-8.824219-8.824219 0-4.878906 3.949219-8.828125 8.824219-8.828125h26.484375c4.875 0 8.828125 3.949219 8.828125 8.828125 0 4.875-3.953125 8.824219-8.828125 8.824219zm0 0"/></g><path d="m379.667969 123.753906c.074219-56.527344-38.21875-105.898437-92.988281-119.894531-54.769532-13.996094-112.050782 10.953125-139.105469 60.585937-27.058594 49.632813-16.988281 111.296876 24.449219 149.746094 19.554687 17.703125 30.828124 42.765625 31.09375 69.144532v8.140624c0 4.875 3.953124 8.828126 8.828124 8.828126h88.277344c4.875 0 8.828125-3.953126 8.828125-8.828126v-8.121093c.367188-26.523438 11.761719-51.699219 31.441407-69.488281 25.015624-23.285157 39.214843-55.933594 39.175781-90.113282zm0 0" fill="#f0c419"/><path d="m379.667969 123.753906c.03125 34.183594-14.167969 66.839844-39.191407 90.128906-19.660156 17.796876-31.042968 42.960938-31.425781 69.472657v8.121093c-.015625 4.871094-3.960937 8.816407-8.828125 8.828126h-44.140625v-300.136719c68.25.011719 123.574219 55.335937 123.585938 123.585937zm0 0" fill="#f3d55b"/><path d="m211.945312 300.304688h88.277344v44.136718c0 4.878906-3.953125 8.828125-8.828125 8.828125h-70.621093c-4.875 0-8.828126-3.949219-8.828126-8.828125zm0 0" fill="#bdc3c7"/><path d="m220.773438 353.269531c0 19.503907 15.808593 35.3125 35.308593 35.3125 19.503907 0 35.3125-15.808593 35.3125-35.3125zm0 0" fill="#95a5a5"/><path d="m229.601562 264.996094c-1.152343-.015625-2.292968-.253906-3.355468-.707032-1.070313-.445312-2.054688-1.074218-2.914063-1.855468-.777343-.859375-1.402343-1.84375-1.851562-2.910156-.945313-2.136719-.945313-4.574219 0-6.710938.445312-1.070312 1.074219-2.054688 1.851562-2.914062 3.542969-3.265626 8.996094-3.265626 12.535157 0 .78125.859374 1.410156 1.84375 1.855468 2.914062.941406 2.136719.941406 4.574219 0 6.710938-.449218 1.066406-1.074218 2.050781-1.855468 2.910156-1.660157 1.660156-3.917969 2.582031-6.265626 2.5625zm0 0" fill="#f29c1f"/><path d="m229.601562 238.511719c-4.875 0-8.828124-3.953125-8.828124-8.828125v-70.621094c0-3.570312 2.152343-6.785156 5.449218-8.152344 3.296875-1.367187 7.09375-.609375 9.621094 1.914063l26.480469 26.480469c3.347656 3.464843 3.296875 8.96875-.105469 12.375-3.40625 3.40625-8.914062 3.453124-12.375.109374l-11.414062-11.414062v49.308594c0 4.875-3.953126 8.828125-8.828126 8.828125zm0 0" fill="#f29c1f"/><path d="m282.566406 264.996094c1.152344-.015625 2.292969-.253906 3.355469-.707032 1.070313-.445312 2.054687-1.074218 2.914063-1.855468.777343-.859375 1.402343-1.84375 1.851562-2.910156.945312-2.136719.945312-4.574219 0-6.710938-.445312-1.070312-1.074219-2.054688-1.851562-2.914062-3.542969-3.265626-8.996094-3.265626-12.535157 0-.78125.859374-1.410156 1.84375-1.855469 2.914062-.945312 2.136719-.945312 4.574219 0 6.710938.449219 1.066406 1.074219 2.050781 1.855469 2.910156 1.660157 1.660156 3.917969 2.582031 6.265625 2.5625zm0 0" fill="#f29c1f"/><path d="m282.566406 238.511719c-4.875 0-8.828125-3.953125-8.828125-8.828125v-49.308594l-11.414062 11.414062c-3.464844 3.34375-8.96875 3.296876-12.375-.109374-3.402344-3.40625-3.453125-8.910157-.105469-12.375l26.480469-26.480469c2.527343-2.523438 6.320312-3.28125 9.621093-1.914063 3.296876 1.367188 5.449219 4.582032 5.449219 8.152344v70.621094c0 4.875-3.953125 8.828125-8.828125 8.828125zm0 0" fill="#f29c1f"/></svg>