<svg height="512pt" viewBox="0 0 512.02192 512" width="512pt" xmlns="http://www.w3.org/2000/svg"><path d="m373.847656 242.945312 48.703125 48.375-24.984375 24.984376-48.699218-48.375zm0 0" fill="#95a5a5"/><path d="m509.441406 378.539062-24.984375 24.980469c-3.46875 3.441407-9.066406 3.441407-12.535156 0l-12.445313-12.535156-68.679687-68.679687c-1.652344-1.648438-2.582031-3.886719-2.582031-6.222657 0-2.335937.929687-4.574219 2.582031-6.222656l24.984375-24.980469c1.648438-1.65625 3.886719-2.582031 6.222656-2.582031 2.332032 0 4.574219.925781 6.222656 2.582031l56.230469 56.230469 12.449219 12.445313 12.535156 12.449218c3.441406 3.46875 3.441406 9.066406 0 12.535156zm0 0" fill="#955ba5"/><path d="m403.332031 334.839844 37.429688-37.429688 12.445312 12.449219-37.429687 37.429687zm0 0" fill="#894b9d"/><path d="m447.027344 378.539062 37.429687-37.429687 12.449219 12.445313-37.429688 37.429687zm0 0" fill="#894b9d"/><path d="m52.964844 512.011719h-17.65625c-4.875 0-8.824219-3.953125-8.824219-8.828125v-30.898438h35.308594v30.898438c0 4.875-3.953125 8.828125-8.828125 8.828125zm0 0" fill="#285680"/><path d="m229.515625 512.011719h-17.652344c-4.875 0-8.828125-3.953125-8.828125-8.828125v-30.898438h35.308594v30.898438c0 4.875-3.949219 8.828125-8.828125 8.828125zm0 0" fill="#285680"/><path d="m112.464844 203.046875h-94.808594v-58.203125h88.539062zm0 0" fill="#285680"/><path d="m247.171875 291.789062v18.070313h-229.515625v-55.15625h141.683594zm0 0" fill="#285680"/><path d="m17.65625 357.363281h229.515625v56.238281h-229.515625zm0 0" fill="#285680"/><path d="m106.195312 158.90625h-97.367187c-4.871094-.011719-8.8125-3.957031-8.828125-8.828125v-44.136719c.0273438-9.738281 7.917969-17.625 17.65625-17.65625h101.605469zm0 0" fill="#4482c3"/><path d="m8.828125 406.078125h247.171875c4.875 0 8.828125 3.953125 8.828125 8.828125v44.140625c0 9.75-7.90625 17.652344-17.65625 17.652344h-229.515625c-9.75 0-17.65625-7.902344-17.65625-17.652344v-44.140625c0-4.875 3.953125-8.828125 8.828125-8.828125zm0 0" fill="#4482c3"/><path d="m159.339844 264.839844h-150.511719c-4.871094-.015625-8.8125-3.960938-8.828125-8.828125v-52.964844c.015625-4.871094 3.957031-8.816406 8.828125-8.828125h103.636719zm0 0" fill="#4482c3"/><path d="m8.828125 300.148438h247.171875c4.875 0 8.828125 3.953124 8.828125 8.828124v52.964844c0 4.875-3.953125 8.828125-8.828125 8.828125h-247.171875c-4.875 0-8.828125-3.953125-8.828125-8.828125v-52.964844c0-4.875 3.953125-8.828124 8.828125-8.828124zm0 0" fill="#4482c3"/><path d="m44.136719 132.425781h-8.828125c-4.875 0-8.824219-3.953125-8.824219-8.828125s3.949219-8.828125 8.824219-8.828125h8.828125c4.875 0 8.828125 3.953125 8.828125 8.828125s-3.953125 8.828125-8.828125 8.828125zm0 0" fill="#f0c419"/><path d="m44.136719 238.242188h-8.828125c-4.875 0-8.824219-3.949219-8.824219-8.824219 0-4.878907 3.949219-8.828125 8.824219-8.828125h8.828125c4.875 0 8.828125 3.949218 8.828125 8.828125 0 4.875-3.953125 8.824219-8.828125 8.824219zm0 0" fill="#f0c419"/><path d="m44.136719 344.066406h-8.828125c-4.875 0-8.824219-3.953125-8.824219-8.828125s3.949219-8.828125 8.824219-8.828125h8.828125c4.875 0 8.828125 3.953125 8.828125 8.828125s-3.953125 8.828125-8.828125 8.828125zm0 0" fill="#f0c419"/><path d="m44.136719 449.890625h-8.828125c-4.875 0-8.824219-3.953125-8.824219-8.828125s3.949219-8.828125 8.824219-8.828125h8.828125c4.875 0 8.828125 3.953125 8.828125 8.828125s-3.953125 8.828125-8.828125 8.828125zm0 0" fill="#f0c419"/><path d="m406.070312 150.078125c0 82.882813-67.191406 150.070313-150.070312 150.070313s-150.070312-67.1875-150.070312-150.070313c0-82.878906 67.191406-150.0664062 150.070312-150.0664062s150.070312 67.1875002 150.070312 150.0664062zm0 0" fill="#bdc3c7"/><path d="m379.585938 150.078125c.03125 56.816406-38.699219 106.324219-93.847657 119.972656-55.152343 13.644531-112.5-12.085937-138.96875-62.359375-9.476562-17.722656-14.410156-37.515625-14.355469-57.613281-.015624-61.402344 45.066407-113.5 105.835938-122.308594 60.769531-8.808593 118.785156 28.347657 136.203125 87.230469 3.40625 11.382812 5.136719 23.199219 5.132813 35.078125zm0 0" fill="#7f8c8d"/><path d="m370.757812 150.078125c.03125 52.757813-35.933593 98.730469-87.144531 111.402344-51.214843 12.671875-104.464843-11.222657-129.042969-57.90625-8.800781-16.453125-13.378906-34.835938-13.328124-53.496094-.011719-57.015625 41.847656-105.390625 98.273437-113.570313 56.429687-8.175781 110.300781 26.324219 126.476563 81 3.164062 10.566407 4.769531 21.539063 4.765624 32.570313zm0 0" fill="#67b9cc"/><path d="m370.757812 150.078125c.03125 52.757813-35.933593 98.730469-87.144531 111.402344-51.214843 12.671875-104.464843-11.222657-129.042969-57.90625 55.816407-56.273438 132.167969-87.359375 211.421876-86.066407 3.164062 10.566407 4.769531 21.539063 4.765624 32.570313zm0 0" fill="#2fa8cc"/><path d="m194.207031 344.066406c-2.335937-.035156-4.574219-.949218-6.269531-2.558594-.375-.421874-.730469-.863281-1.058594-1.324218-.335937-.492188-.601562-1.027344-.792968-1.589844-.253907-.5-.433594-1.035156-.535157-1.589844-.101562-.582031-.160156-1.171875-.175781-1.765625.015625-.5625.074219-1.121093.175781-1.675781.085938-.585938.265625-1.152344.535157-1.683594.191406-.5625.457031-1.097656.792968-1.585937.328125-.464844.679688-.90625 1.058594-1.324219 3.542969-3.269531 8.996094-3.269531 12.535156 0 .355469.441406.707032.882812 1.0625 1.324219.332032.492187.597656 1.027343.792969 1.585937.269531.527344.449219 1.097656.53125 1.683594.105469.554688.164063 1.113281.175781 1.675781-.011718.59375-.070312 1.183594-.175781 1.765625-.09375.554688-.273437 1.089844-.53125 1.589844-.195313.5625-.460937 1.097656-.792969 1.589844-.355468.441406-.707031.882812-1.0625 1.324218-1.691406 1.609376-3.929687 2.523438-6.265625 2.558594zm0 0" fill="#9fc9d3"/><path d="m229.515625 344.066406c-2.335937-.035156-4.574219-.949218-6.265625-2.558594-.378906-.421874-.730469-.863281-1.058594-1.324218-.335937-.492188-.605468-1.027344-.796875-1.589844-.253906-.5-.433593-1.035156-.535156-1.589844-.101563-.582031-.160156-1.171875-.175781-1.765625.015625-.5625.074218-1.121093.175781-1.675781.085937-.585938.269531-1.152344.535156-1.683594.191407-.5625.460938-1.097656.796875-1.585937.324219-.464844.679688-.90625 1.058594-1.324219 3.539062-3.269531 8.996094-3.269531 12.535156 0 .351563.441406.707032.882812 1.058594 1.324219.332031.492187.597656 1.027343.792969 1.585937.273437.527344.453125 1.097656.53125 1.683594.105469.554688.164062 1.113281.175781 1.675781-.011719.59375-.070312 1.183594-.175781 1.765625-.09375.554688-.273438 1.089844-.53125 1.589844-.191407.5625-.460938 1.097656-.792969 1.589844-.351562.441406-.707031.882812-1.058594 1.324218-1.695312 1.609376-3.929687 2.523438-6.269531 2.558594zm0 0" fill="#9fc9d3"/><path d="m194.207031 449.886719c-2.335937-.035157-4.574219-.949219-6.269531-2.558594-.375-.421875-.730469-.863281-1.058594-1.324219-.335937-.492187-.601562-1.027344-.792968-1.589844-.253907-.5-.433594-1.035156-.535157-1.589843-.101562-.582031-.160156-1.171875-.175781-1.765625.015625-.5625.074219-1.121094.175781-1.675782.085938-.585937.265625-1.152343.535157-1.675781.191406-.566406.457031-1.097656.792968-1.589843.328125-.464844.679688-.90625 1.058594-1.324219 3.542969-3.269531 8.996094-3.269531 12.535156 0 .355469.441406.707032.882812 1.0625 1.324219.332032.492187.597656 1.027343.792969 1.589843.269531.523438.449219 1.089844.53125 1.675781.105469.554688.164063 1.113282.175781 1.675782-.011718.59375-.070312 1.183594-.175781 1.765625-.09375.554687-.273437 1.089843-.53125 1.589843-.195313.5625-.460937 1.097657-.792969 1.589844-.355468.441406-.707031.882813-1.0625 1.324219-1.691406 1.609375-3.929687 2.523437-6.265625 2.558594zm0 0" fill="#9fc9d3"/><path d="m229.515625 449.886719c-2.335937-.035157-4.574219-.949219-6.265625-2.558594-.378906-.421875-.730469-.863281-1.058594-1.324219-.335937-.492187-.605468-1.027344-.796875-1.589844-.253906-.5-.433593-1.035156-.535156-1.589843-.101563-.582031-.160156-1.171875-.175781-1.765625.015625-.5625.074218-1.121094.175781-1.675782.085937-.585937.269531-1.152343.535156-1.675781.191407-.566406.460938-1.097656.796875-1.589843.324219-.464844.679688-.90625 1.058594-1.324219 3.539062-3.269531 8.996094-3.269531 12.535156 0 .351563.441406.707032.882812 1.058594 1.324219.332031.492187.601562 1.027343.792969 1.589843.273437.523438.453125 1.089844.53125 1.675781.105469.554688.164062 1.113282.175781 1.675782-.011719.59375-.070312 1.183594-.175781 1.765625-.09375.554687-.273438 1.089843-.53125 1.589843-.191407.5625-.460938 1.097657-.792969 1.589844-.351562.441406-.707031.882813-1.058594 1.324219-1.695312 1.609375-3.929687 2.523437-6.269531 2.558594zm0 0" fill="#9fc9d3"/><g fill="#955ba5"><path d="m211.863281 141.253906c-14.621093-.019531-26.46875-11.863281-26.484375-26.484375v-8.828125c0-14.625 11.855469-26.480468 26.484375-26.480468 14.625 0 26.480469 11.855468 26.480469 26.480468v8.828125c-.015625 14.621094-11.863281 26.464844-26.480469 26.484375zm0-44.140625c-4.875.003907-8.824219 3.957031-8.828125 8.828125v8.828125c0 4.875 3.953125 8.828125 8.828125 8.828125s8.828125-3.953125 8.828125-8.828125v-8.828125c-.007812-4.871094-3.957031-8.824218-8.828125-8.828125zm0 0"/><path d="m300.136719 141.253906c-14.617188-.019531-26.464844-11.863281-26.480469-26.484375v-8.828125c0-14.625 11.855469-26.480468 26.480469-26.480468 14.628906 0 26.484375 11.855468 26.484375 26.480468v8.828125c-.015625 14.621094-11.863282 26.464844-26.484375 26.484375zm0-44.140625c-4.871094.003907-8.820313 3.957031-8.828125 8.828125v8.828125c0 4.875 3.953125 8.828125 8.828125 8.828125s8.828125-3.953125 8.828125-8.828125v-8.828125c-.003906-4.871094-3.953125-8.824218-8.828125-8.828125zm0 0"/><path d="m256 141.253906c-4.875 0-8.828125-3.953125-8.828125-8.828125v-44.140625c0-4.875 3.953125-8.824218 8.828125-8.824218s8.828125 3.949218 8.828125 8.824218v44.140625c0 4.875-3.953125 8.828125-8.828125 8.828125zm0 0"/><path d="m211.863281 220.699219c-14.621093-.015625-26.46875-11.863281-26.484375-26.480469v-8.828125c0-14.625 11.855469-26.484375 26.484375-26.484375 14.625 0 26.480469 11.859375 26.480469 26.484375v8.828125c-.015625 14.617188-11.863281 26.464844-26.480469 26.480469zm0-44.136719c-4.875.003906-8.824219 3.953125-8.828125 8.828125v8.828125c0 4.875 3.953125 8.828125 8.828125 8.828125s8.828125-3.953125 8.828125-8.828125v-8.828125c-.007812-4.875-3.957031-8.824219-8.828125-8.828125zm0 0"/><path d="m300.136719 220.699219c-14.617188-.015625-26.464844-11.863281-26.480469-26.480469v-8.828125c0-14.625 11.855469-26.484375 26.480469-26.484375 14.628906 0 26.484375 11.859375 26.484375 26.484375v8.828125c-.015625 14.617188-11.863282 26.464844-26.484375 26.480469zm0-44.136719c-4.871094.003906-8.820313 3.953125-8.828125 8.828125v8.828125c0 4.875 3.953125 8.828125 8.828125 8.828125s8.828125-3.953125 8.828125-8.828125v-8.828125c-.003906-4.875-3.953125-8.824219-8.828125-8.828125zm0 0"/><path d="m256 220.699219c-4.875 0-8.828125-3.949219-8.828125-8.828125v-44.136719c0-4.875 3.953125-8.828125 8.828125-8.828125s8.828125 3.953125 8.828125 8.828125v44.136719c0 4.878906-3.953125 8.828125-8.828125 8.828125zm0 0"/></g></svg>