<svg height="511pt" viewBox="0 0 511.98226 511" width="511pt" xmlns="http://www.w3.org/2000/svg"><path d="m464.496094 227.878906-32.90625-7.3125c-4.582032-22.429687-13.445313-43.761718-26.101563-62.835937l18.144531-28.511719c4.292969-6.75 3.324219-15.574219-2.332031-21.230469l-16.84375-16.84375c-5.65625-5.65625-14.480469-6.625-21.230469-2.332031l-28.511718 18.148438c-19.074219-12.660157-40.40625-21.523438-62.835938-26.105469l-7.3125-32.910157c-1.734375-7.808593-8.660156-13.363281-16.660156-13.363281h-23.820312c-7.996094 0-14.925782 5.554688-16.660157 13.363281l-7.3125 32.910157c-22.429687 4.582031-43.761719 13.445312-62.835937 26.105469l-28.511719-18.148438c-6.75-4.292969-15.578125-3.324219-21.230469 2.332031l-16.84375 16.84375c-5.65625 5.65625-6.625 14.480469-2.332031 21.230469l18.144531 28.511719c-12.65625 19.074219-21.519531 40.40625-26.101562 62.835937l-32.90625 7.3125c-7.808594 1.734375-13.367188 8.660156-13.367188 16.660156v23.820313c0 8 5.558594 14.925781 13.367188 16.660156l32.90625 7.3125c4.582031 22.429688 13.445312 43.761719 26.105468 62.835938l-18.148437 28.511719c-4.292969 6.75-3.324219 15.578124 2.332031 21.234374l16.84375 16.839844c5.65625 5.65625 14.480469 6.625 21.230469 2.332032l28.511719-18.144532c19.074218 12.660156 40.40625 21.523438 62.835937 26.105469l7.3125 32.90625c1.734375 7.808594 8.664063 13.363281 16.660157 13.363281h23.820312c8 0 14.925781-5.554687 16.660156-13.363281l7.3125-32.910156c22.429688-4.582031 43.761719-13.445313 62.835938-26.101563l28.511718 18.144532c6.75 4.292968 15.578126 3.324218 21.234376-2.332032l16.839843-16.84375c5.65625-5.65625 6.625-14.480468 2.332031-21.230468l-18.144531-28.511719c12.660157-19.074219 21.523438-40.40625 26.105469-62.835938l32.90625-7.3125c7.808594-1.734375 13.363281-8.660156 13.363281-16.660156v-23.820313c0-8-5.554687-14.925781-13.367187-16.660156zm0 0" fill="#35495e"/><path d="m401.0625 256.449219c0 80.117187-64.949219 145.066406-145.066406 145.066406-80.117188 0-145.066406-64.949219-145.066406-145.066406 0-80.117188 64.949218-145.066407 145.066406-145.066407 38.476562-.011718 75.382812 15.265626 102.59375 42.472657 27.207031 27.210937 42.488281 64.117187 42.472656 102.59375zm0 0" fill="#2fa8cc"/><path d="m307.195312 330.433594v61.78125c-33.007812 12.402344-69.390624 12.402344-102.398437 0v-61.78125zm0 0" fill="#fdd7ad"/><path d="m328.1875 222.316406h13.140625c9.414063.027344 17.039063 7.652344 17.066406 17.066406v23.550782c0 6.476562-3.671875 12.394531-9.46875 15.277344l-24.664062 12.371093h-136.53125l-24.664063-12.371093c-5.796875-2.882813-9.464844-8.800782-9.46875-15.277344v-23.550782c.027344-9.414062 7.652344-17.039062 17.066406-17.066406zm0 0" fill="#f09372"/><g fill="#955ba5"><path d="m494.933594 145.515625c-3.328125.003906-6.351563-1.929687-7.75-4.949219-23.414063-50.992187-64.332032-91.898437-115.328125-115.304687-4.273438-1.992188-6.117188-7.070313-4.125-11.34375 1.992187-4.269531 7.070312-6.117188 11.339843-4.121094 54.65625 25.09375 98.511719 68.945313 123.605469 123.601563 1.222657 2.640624 1.015625 5.726562-.554687 8.179687-1.566406 2.453125-4.277344 3.9375-7.1875 3.9375zm0 0"/><path d="m494.9375 145.515625c-.566406 0-1.128906-.058594-1.683594-.171875l-42.667968-8.53125c-4.582032-.960938-7.53125-5.4375-6.613282-10.027344.917969-4.589844 5.367188-7.582031 9.964844-6.707031l34.296875 6.859375 6.863281-34.304688c.960938-4.582031 5.433594-7.535156 10.023438-6.613281 4.59375.917969 7.585937 5.363281 6.707031 9.964844l-8.53125 42.664063c-.792969 3.988281-4.292969 6.863281-8.359375 6.867187zm0 0"/><path d="m136.53125 503.902344c-1.246094.003906-2.476562-.269532-3.605469-.796875-54.660156-25.09375-98.511719-68.949219-123.609375-123.605469-1.980468-4.277344-.117187-9.351562 4.164063-11.328125 4.277343-1.980469 9.347656-.117187 11.328125 4.160156 23.414062 50.992188 64.332031 91.898438 115.328125 115.304688 3.628906 1.691406 5.589843 5.675781 4.722656 9.582031-.863281 3.90625-4.328125 6.683594-8.328125 6.683594zm0 0"/><path d="m8.539062 427.117188c-.566406-.003907-1.128906-.058594-1.683593-.171876-4.617188-.925781-7.609375-5.417968-6.6875-10.039062l8.53125-42.664062c.4375-2.222657 1.746093-4.175782 3.628906-5.433594 1.882813-1.253906 4.191406-1.707032 6.410156-1.253906l42.667969 8.53125c3.011719.574218 5.484375 2.722656 6.476562 5.625.992188 2.902343.347657 6.113281-1.683593 8.414062-2.035157 2.296875-5.140625 3.324219-8.144531 2.695312l-34.296876-6.859374-6.859374 34.304687c-.804688 3.980469-4.300782 6.847656-8.359376 6.851563zm0 0"/><path d="m375.480469 503.917969c-4.007813 0-7.480469-2.785157-8.339844-6.699219-.863281-3.914062 1.113281-7.898438 4.75-9.582031 50.992187-23.414063 91.902344-64.332031 115.304687-115.328125 1.289063-2.765625 3.957032-4.628906 6.992188-4.894532 3.039062-.265624 5.984375 1.113282 7.734375 3.609376 1.746094 2.496093 2.03125 5.738281.742187 8.5-25.097656 54.65625-68.949218 98.511718-123.605468 123.605468-1.121094.519532-2.34375.785156-3.578125.789063zm0 0"/><path d="m418.148438 512.449219c-.5625 0-1.128907-.058594-1.679688-.171875l-42.667969-8.53125c-4.621093-.925782-7.617187-5.421875-6.691406-10.042969l8.53125-42.667969c.566406-3.023437 2.710937-5.511718 5.621094-6.507812 2.910156-1 6.132812-.355469 8.433593 1.6875 2.300782 2.042968 3.324219 5.164062 2.679688 8.171875l-6.859375 34.296875 34.304687 6.859375c4.3125.855469 7.269532 4.839843 6.835938 9.210937-.429688 4.375-4.113281 7.703125-8.507812 7.695313zm0 0"/><path d="m17.0625 145.515625c-2.914062 0-5.628906-1.492187-7.195312-3.949219-1.566407-2.460937-1.765626-5.550781-.53125-8.191406 25.089843-54.65625 68.941406-98.507812 123.597656-123.605469 4.277344-1.980469 9.351562-.117187 11.328125 4.164063 1.980469 4.277344.117187 9.347656-4.160157 11.328125-50.992187 23.414062-91.902343 64.332031-115.304687 115.328125-1.402344 3.007812-4.417969 4.929687-7.734375 4.925781zm0 0"/><path d="m127.996094 68.714844c-.566406 0-1.128906-.054688-1.683594-.164063-4.621094-.925781-7.617188-5.421875-6.691406-10.042969l6.859375-34.296874-34.304688-6.859376c-4.519531-1.023437-7.398437-5.460937-6.488281-10 .910156-4.542968 5.273438-7.53125 9.835938-6.730468l42.667968 8.53125c4.621094.925781 7.617188 5.421875 6.691406 10.042968l-8.53125 42.667969c-.800781 3.980469-4.292968 6.847657-8.355468 6.851563zm0 0"/></g><path d="m307.195312 330.433594v17.066406c-20.480468 18.433594-20.480468 36.949219-40.960937 36.949219h-20.476563c-20.480468 0-20.480468-18.515625-40.960937-36.949219v-17.066406zm0 0" fill="#f09372"/><path d="m327.691406 200.984375c-2.558594-52.824219-66.574218-55.46875-66.574218-55.46875h-10.242188s-64.015625 2.640625-66.574219 55.46875c-2.558593 52.824219 5.121094 58.109375 5.121094 76.59375 0 18.488281-5.121094 34.339844 15.359375 52.828125s20.488281 36.976562 40.976562 36.976562h20.476563c20.484375 0 20.484375-18.488281 40.972656-36.976562 20.484375-18.488281 15.359375-34.335938 15.359375-52.824219 0-18.484375 7.6875-23.773437 5.125-76.597656zm0 0" fill="#fdd7ad"/></svg>