<svg height="512pt" viewBox="-4 0 511 512" width="512pt" xmlns="http://www.w3.org/2000/svg"><path d="m346.78125 298.667969c-5.847656-20.75-18.691406-38.835938-36.351562-51.203125-2.476563-1.75-5.039063-3.371094-7.679688-4.863282 8.769531-10.640624 13.539062-24.011718 13.484375-37.800781 0-32.992187-26.746094-59.734375-59.734375-59.734375s-59.734375 26.742188-59.734375 59.734375c-.054687 13.789063 4.714844 27.160157 13.484375 37.800781-2.640625 1.492188-5.203125 3.113282-7.679688 4.863282-17.660156 12.367187-30.503906 30.453125-36.351562 51.203125-2.9375 10.636719 1.339844 21.953125 10.578125 27.988281 48.628906 30.945312 110.777344 30.945312 159.40625 0 9.238281-6.035156 13.515625-17.351562 10.578125-27.988281zm0 0" fill="#fdd7ad"/><path d="m316.234375 204.800781c0 32.988281-26.746094 59.734375-59.734375 59.734375s-59.734375-26.746094-59.734375-59.734375c0-32.992187 26.746094-59.734375 59.734375-59.734375s59.734375 26.742188 59.734375 59.734375zm0 0" fill="#fdd7ad"/><path d="m336.203125 326.65625c-48.628906 30.945312-110.777344 30.945312-159.40625 0-9.238281-6.035156-13.515625-17.351562-10.578125-27.988281 5.847656-20.75 18.691406-38.835938 36.351562-51.203125 2.476563-1.75 5.039063-3.371094 7.679688-4.863282 11.34375 13.882813 28.324219 21.933594 46.25 21.933594s34.90625-8.050781 46.25-21.933594c2.640625 1.492188 5.203125 3.113282 7.679688 4.863282 17.660156 12.367187 30.503906 30.453125 36.351562 51.203125 2.9375 10.636719-1.339844 21.953125-10.578125 27.988281zm0 0" fill="#35495e"/><path d="m256.5 512c-84.691406 0-153.601562-114.839844-153.601562-256s68.910156-256 153.601562-256 153.601562 114.839844 153.601562 256-68.910156 256-153.601562 256zm0-494.933594c-75.285156 0-136.535156 107.183594-136.535156 238.933594s61.25 238.933594 136.535156 238.933594 136.535156-107.179688 136.535156-238.933594-61.25-238.933594-136.535156-238.933594zm0 0" fill="#f0c419"/><path d="m359.148438 437.738281c-54.214844 0-118.199219-17.621093-179.449219-52.980469-124.28125-71.761718-190.941407-189.8125-148.597657-263.15625 42.339844-73.347656 177.890626-74.652343 302.199219-2.894531 124.28125 71.765625 190.941407 189.8125 148.597657 263.160157-21.480469 37.203124-66.941407 55.871093-122.75 55.871093zm-206.03125-355.539062c-49.21875 0-88.757813 15.933593-107.234376 47.933593-37.640624 65.195313 26.21875 172.792969 142.351563 239.84375 116.148437 67.054688 241.25 68.554688 278.882813 3.355469 37.632812-65.199219-26.21875-172.789062-142.351563-239.839843-59.136719-34.140626-120.597656-51.292969-171.648437-51.292969zm0 0" fill="#955ba5"/><path d="m153.851562 437.738281c-55.816406 0-101.269531-18.664062-122.75-55.871093-42.34375-73.347657 24.316407-191.394532 148.597657-263.160157 124.292969-71.753906 259.851562-70.457031 302.199219 2.894531 42.351562 73.347657-24.316407 191.394532-148.597657 263.15625-61.242187 35.355469-125.234375 52.980469-179.449219 52.980469zm34.382813-304.246093c-116.132813 67.050781-179.992187 174.644531-142.351563 239.839843 37.644532 65.195313 162.746094 63.691407 278.882813-3.355469 116.140625-67.050781 179.992187-174.648437 142.351563-239.84375-37.648438-65.207031-162.746094-63.699218-278.882813 3.359376zm0 0" fill="#e64c3c"/><path d="m34.632812 76.800781c-18.851562 0-34.132812-15.28125-34.132812-34.132812 0-18.851563 15.28125-34.132813 34.132812-34.132813 18.851563 0 34.132813 15.28125 34.132813 34.132813-.019531 18.84375-15.289063 34.113281-34.132813 34.132812zm0-51.199219c-9.425781 0-17.066406 7.640626-17.066406 17.066407s7.640625 17.066406 17.066406 17.066406c9.425782 0 17.066407-7.640625 17.066407-17.066406-.011719-9.421875-7.644531-17.058594-17.066407-17.066407zm0 0" fill="#24ae5f"/><path d="m444.234375 512c-18.851563 0-34.132813-15.28125-34.132813-34.132812 0-18.851563 15.28125-34.132813 34.132813-34.132813s34.132813 15.28125 34.132813 34.132813c-.019532 18.84375-15.289063 34.113281-34.132813 34.132812zm0-51.199219c-9.425781 0-17.066406 7.640625-17.066406 17.066407 0 9.425781 7.640625 17.066406 17.066406 17.066406s17.066406-7.640625 17.066406-17.066406c-.011719-9.421876-7.644531-17.054688-17.066406-17.066407zm0 0" fill="#24ae5f"/><g fill="#f0c419"><path d="m469.832031 25.601562c-4.710937 0-8.53125-3.820312-8.53125-8.535156v-8.53125c0-4.714844 3.820313-8.535156 8.53125-8.535156 4.714844 0 8.535157 3.820312 8.535157 8.535156v8.53125c0 4.714844-3.820313 8.535156-8.535157 8.535156zm0 0"/><path d="m469.832031 68.265625c-4.710937 0-8.53125-3.820313-8.53125-8.53125v-8.535156c0-4.710938 3.820313-8.53125 8.53125-8.53125 4.714844 0 8.535157 3.820312 8.535157 8.53125v8.535156c0 4.710937-3.820313 8.53125-8.535157 8.53125zm0 0"/><path d="m452.765625 42.667969h-8.53125c-4.714844 0-8.535156-3.820313-8.535156-8.535157 0-4.710937 3.820312-8.53125 8.535156-8.53125h8.53125c4.714844 0 8.535156 3.820313 8.535156 8.53125 0 4.714844-3.820312 8.535157-8.535156 8.535157zm0 0"/><path d="m495.433594 42.667969h-8.535156c-4.710938 0-8.53125-3.820313-8.53125-8.535157 0-4.710937 3.820312-8.53125 8.53125-8.53125h8.535156c4.710937 0 8.53125 3.820313 8.53125 8.53125 0 4.714844-3.820313 8.535157-8.53125 8.535157zm0 0"/><path d="m34.632812 469.332031c-4.710937 0-8.53125-3.820312-8.53125-8.53125v-8.535156c0-4.710937 3.820313-8.53125 8.53125-8.53125 4.714844 0 8.535157 3.820313 8.535157 8.53125v8.535156c0 4.710938-3.820313 8.53125-8.535157 8.53125zm0 0"/><path d="m34.632812 512c-4.710937 0-8.53125-3.820312-8.53125-8.535156v-8.53125c0-4.714844 3.820313-8.535156 8.53125-8.535156 4.714844 0 8.535157 3.820312 8.535157 8.535156v8.53125c0 4.714844-3.820313 8.535156-8.535157 8.535156zm0 0"/><path d="m17.566406 486.398438h-8.53125c-4.714844 0-8.535156-3.820313-8.535156-8.53125 0-4.714844 3.820312-8.535157 8.535156-8.535157h8.53125c4.714844 0 8.535156 3.820313 8.535156 8.535157 0 4.710937-3.820312 8.53125-8.535156 8.53125zm0 0"/><path d="m60.234375 486.398438h-8.535156c-4.710938 0-8.53125-3.820313-8.53125-8.53125 0-4.714844 3.820312-8.535157 8.53125-8.535157h8.535156c4.710937 0 8.53125 3.820313 8.53125 8.535157 0 4.710937-3.820313 8.53125-8.53125 8.53125zm0 0"/></g><path d="m310.429688 247.464844c-2.015626 4.386718-4.597657 8.488281-7.679688 12.203125-11.34375 13.882812-28.324219 21.933593-46.25 21.933593s-34.90625-8.050781-46.25-21.933593c-3.082031-3.714844-5.664062-7.816407-7.679688-12.203125 2.476563-1.75 5.039063-3.371094 7.679688-4.863282 11.34375 13.882813 28.324219 21.933594 46.25 21.933594s34.90625-8.050781 46.25-21.933594c2.640625 1.492188 5.203125 3.113282 7.679688 4.863282zm0 0" fill="#2c3e50"/></svg>