<?xml version="1.0" encoding="iso-8859-1"?>
<!-- Generator: Adobe Illustrator 19.0.0, SVG Export Plug-In . SVG Version: 6.00 Build 0)  -->
<svg version="1.1" id="Layer_1" xmlns="http://www.w3.org/2000/svg" xmlns:xlink="http://www.w3.org/1999/xlink" x="0px" y="0px"
	 viewBox="0 0 512 512" style="enable-background:new 0 0 512 512;" xml:space="preserve">
<g>
	<path style="fill:#878787;" d="M85.333,260.265c-37.641,0-68.267,30.626-68.267,68.267s30.626,68.267,68.267,68.267
		s68.267-30.626,68.267-68.267S122.974,260.265,85.333,260.265 M85.333,413.865C38.281,413.865,0,375.585,0,328.532
		s38.281-85.333,85.333-85.333s85.333,38.281,85.333,85.333S132.386,413.865,85.333,413.865"/>
	<path style="fill:#878787;" d="M426.667,260.265c-37.641,0-68.267,30.626-68.267,68.267s30.626,68.267,68.267,68.267
		s68.267-30.626,68.267-68.267S464.307,260.265,426.667,260.265 M426.667,413.865c-47.053,0-85.333-38.281-85.333-85.333
		s38.281-85.333,85.333-85.333S512,281.479,512,328.532S473.719,413.865,426.667,413.865"/>
	<path style="fill:#878787;" d="M426.675,337.065c-2.807,0-5.555-1.382-7.185-3.917l-76.792-119.441
		c-0.162-0.256-0.316-0.529-0.452-0.802c-2.108-4.215-0.401-9.353,3.814-11.46c3.994-2.014,8.832-0.572,11.11,3.209l76.672,119.262
		c2.551,3.968,1.399,9.25-2.56,11.793C429.858,336.63,428.254,337.065,426.675,337.065"/>
	<path style="fill:#878787;" d="M170.675,234.665c-2.961,0-5.845-1.545-7.415-4.301l-34.133-59.733
		c-2.338-4.087-0.922-9.301,3.174-11.639c4.087-2.355,9.31-0.922,11.639,3.174l34.133,59.733c2.338,4.087,0.922,9.301-3.174,11.639
		C173.568,234.307,172.109,234.665,170.675,234.665"/>
	<path style="fill:#878787;" d="M179.2,174.932h-59.733c-4.71,0-8.533-3.814-8.533-8.533s3.823-8.533,8.533-8.533H179.2
		c4.71,0,8.533,3.814,8.533,8.533S183.91,174.932,179.2,174.932"/>
	<path style="fill:#878787;" d="M349.875,217.599c-3.132,0-6.144-1.724-7.646-4.719l-25.6-51.2
		c-2.108-4.215-0.393-9.335,3.823-11.452l51.2-25.6c4.233-2.099,9.344-0.393,11.452,3.823c2.108,4.215,0.393,9.335-3.823,11.452
		l-43.563,21.777l21.786,43.571c2.108,4.215,0.393,9.335-3.823,11.452C352.461,217.308,351.155,217.599,349.875,217.599"/>
	<path style="fill:#878787;" d="M375.458,140.799c-1.775,0-3.575-0.555-5.111-1.707l-34.133-25.6
		c-3.772-2.825-4.531-8.175-1.707-11.947c2.825-3.763,8.175-4.531,11.947-1.707l34.133,25.6c3.772,2.825,4.531,8.175,1.707,11.947
		C380.612,139.621,378.052,140.799,375.458,140.799"/>
	<path style="fill:#878787;" d="M238.933,328.532c-9.412,0-17.067,7.654-17.067,17.067c0,9.412,7.654,17.067,17.067,17.067
		c9.412,0,17.067-7.654,17.067-17.067C256,336.186,248.346,328.532,238.933,328.532 M238.933,379.732
		c-18.825,0-34.133-15.309-34.133-34.133s15.309-34.133,34.133-34.133s34.133,15.309,34.133,34.133S257.758,379.732,238.933,379.732
		"/>
	<path style="fill:#878787;" d="M256,335.273c-4.71,0-8.533-3.814-8.533-8.533c0-60.954,41.148-126.208,102.4-126.208
		c4.71,0,8.533,3.814,8.533,8.533c0,4.719-3.823,8.533-8.533,8.533c-51.046,0-85.333,56.431-85.333,109.141
		C264.533,331.459,260.71,335.273,256,335.273"/>
	<path style="fill:#878787;" d="M213.346,354.132c-0.375,0-0.759-0.026-1.143-0.077l-128-17.067
		c-3.029-0.401-5.606-2.398-6.767-5.222c-1.152-2.825-0.717-6.059,1.161-8.474l59.733-76.8c20.813-27.46,64.7-45.961,109.141-45.961
		h102.4c4.71,0,8.533,3.814,8.533,8.533c0,4.719-3.823,8.533-8.533,8.533h-102.4c-38.75,0-78.063,16.162-95.607,39.287
		l-50.671,65.152l113.271,15.104c4.668,0.623,7.953,4.915,7.33,9.583C221.222,351.017,217.553,354.132,213.346,354.132"/>
	<path style="fill:#878787;" d="M230.409,328.532c-2.825,0-5.581-1.399-7.211-3.951l-59.733-93.867
		c-2.526-3.977-1.357-9.25,2.62-11.785c3.977-2.526,9.25-1.34,11.785,2.62l59.733,93.867c2.526,3.977,1.357,9.25-2.62,11.785
		C233.566,328.097,231.979,328.532,230.409,328.532"/>
</g>
<g>
</g>
<g>
</g>
<g>
</g>
<g>
</g>
<g>
</g>
<g>
</g>
<g>
</g>
<g>
</g>
<g>
</g>
<g>
</g>
<g>
</g>
<g>
</g>
<g>
</g>
<g>
</g>
<g>
</g>
</svg>
