<?xml version="1.0" encoding="iso-8859-1"?>
<!-- Generator: Adobe Illustrator 19.0.0, SVG Export Plug-In . SVG Version: 6.00 Build 0)  -->
<svg version="1.1" id="Layer_1" xmlns="http://www.w3.org/2000/svg" xmlns:xlink="http://www.w3.org/1999/xlink" x="0px" y="0px"
	 viewBox="0 0 512.001 512.001" style="enable-background:new 0 0 512.001 512.001;" xml:space="preserve">
<g>
	<path style="fill:#74B73E;" d="M506.606,148.549l-76.712-84.383c-3.928-4.317-9.498-6.788-15.342-6.788H18.026
		C8.068,57.378,0,65.446,0,75.403v264.095c0,9.949,8.068,18.017,18.026,18.017h26.112c0-29.246,23.711-52.966,52.966-52.966
		s52.966,23.72,52.966,52.966h211.862c0-29.246,23.711-52.966,52.966-52.966c29.255,0,52.966,23.72,52.966,52.966h26.112
		c9.957,0,18.026-8.068,18.026-18.017V162.505C512,157.341,510.076,152.371,506.606,148.549"/>
	<g>
		<path style="fill:#E0E0E0;" d="M394.76,198.622h117.239v-36.122c0-5.155-1.924-10.134-5.394-13.948l-50.776-55.861H394.76
			c-3.505,0-6.347,2.842-6.347,6.347v93.237C388.413,195.779,391.255,198.622,394.76,198.622"/>
		<path style="fill:#E0E0E0;" d="M0.001,92.691v105.931h68.961c5.791,0,10.487-4.696,10.487-10.487v-84.957
			c0-5.791-4.696-10.487-10.487-10.487H0.001z"/>
		<path style="fill:#E0E0E0;" d="M256.001,105.103v81.108c0,6.85,5.561,12.412,12.412,12.412h63.453
			c6.85,0,12.412-5.561,12.412-12.412v-81.108c0-6.859-5.561-12.412-12.412-12.412h-63.453
			C261.562,92.691,256.001,98.244,256.001,105.103"/>
		<path style="fill:#E0E0E0;" d="M123.587,105.103v81.108c0,6.85,5.561,12.412,12.412,12.412h63.453
			c6.85,0,12.412-5.561,12.412-12.412v-81.108c0-6.859-5.561-12.412-12.412-12.412h-63.453
			C129.148,92.691,123.587,98.244,123.587,105.103"/>
	</g>
	<path style="fill:#A2A2A2;" d="M432.553,357.518c0,9.754-7.901,17.655-17.655,17.655s-17.655-7.901-17.655-17.655
		s7.901-17.655,17.655-17.655S432.553,347.764,432.553,357.518"/>
	<path style="fill:#494949;" d="M150.07,357.518c0,29.255-23.711,52.966-52.966,52.966s-52.966-23.711-52.966-52.966
		s23.711-52.966,52.966-52.966S150.07,328.264,150.07,357.518"/>
	<path style="fill:#A2A2A2;" d="M114.76,357.518c0,9.754-7.901,17.655-17.655,17.655s-17.655-7.901-17.655-17.655
		s7.901-17.655,17.655-17.655S114.76,347.764,114.76,357.518"/>
	<g>
		<path style="fill:#599922;" d="M512.001,251.587h-52.965c-4.882,0-8.828,3.946-8.828,8.828c0,4.882,3.946,8.828,8.828,8.828
			h52.965V251.587z"/>
		<path style="fill:#599922;" d="M282.484,225.104H0.001v17.655h282.483c4.873,0,8.828-3.946,8.828-8.828
			C291.311,229.05,287.356,225.104,282.484,225.104"/>
		<path style="fill:#599922;" d="M317.794,260.415H0.001v17.655h317.793c4.873,0,8.828-3.946,8.828-8.828
			S322.667,260.415,317.794,260.415"/>
	</g>
	<path style="fill:#434C6D;" d="M476.691,338.505l-12.747-2.454c-18.918-3.637-27.586-25.732-16.199-41.269l8.007-10.911
		l-17.293-17.284l-10.743,7.274c-15.943,10.805-37.711,1.315-40.633-17.726l-2.066-13.374h-24.444l-3.16,16.463
		c-3.566,18.494-24.876,27.33-40.474,16.764l-13.877-9.401l-17.293,17.284l8.007,10.911c11.388,15.537,2.719,37.632-16.199,41.269
		l-12.747,2.454v24.444l13.374,2.057c19.041,2.931,28.531,24.691,17.726,40.642l-7.274,10.743l17.284,17.284l10.911-7.998
		c15.537-11.388,37.632-2.719,41.269,16.199l2.454,12.747h24.444l1.448-9.41c3.001-19.456,25.565-28.804,41.445-17.161l7.671,5.623
		l17.284-17.284l-7.274-10.743c-10.805-15.951-1.315-37.711,17.726-40.642l13.374-2.057V338.505z"/>
	<path style="fill:#FFFFFF;" d="M406.07,348.691c0,19.5-15.81,35.31-35.31,35.31c-19.5,0-35.31-15.81-35.31-35.31
		c0-19.5,15.81-35.31,35.31-35.31C390.26,313.38,406.07,329.19,406.07,348.691"/>
	<path style="fill:none;stroke:#E8EDEE;stroke-width:2;" d="M406.07,348.691c0,19.5-15.81,35.31-35.31,35.31
		c-19.5,0-35.31-15.81-35.31-35.31c0-19.5,15.81-35.31,35.31-35.31C390.26,313.38,406.07,329.19,406.07,348.691L406.07,348.691z"/>
</g>
<g>
</g>
<g>
</g>
<g>
</g>
<g>
</g>
<g>
</g>
<g>
</g>
<g>
</g>
<g>
</g>
<g>
</g>
<g>
</g>
<g>
</g>
<g>
</g>
<g>
</g>
<g>
</g>
<g>
</g>
</svg>
