<?xml version="1.0" encoding="iso-8859-1"?>
<!-- Generator: Adobe Illustrator 19.0.0, SVG Export Plug-In . SVG Version: 6.00 Build 0)  -->
<svg version="1.1" id="Layer_1" xmlns="http://www.w3.org/2000/svg" xmlns:xlink="http://www.w3.org/1999/xlink" x="0px" y="0px"
	 viewBox="0 0 512.001 512.001" style="enable-background:new 0 0 512.001 512.001;" xml:space="preserve">
<g>
	<path style="fill:#74B73E;" d="M506.606,152.963l-76.712-84.374c-3.928-4.326-9.498-6.797-15.342-6.797H18.026
		C8.068,61.792,0,69.86,0,79.818v264.095c0,9.949,8.068,18.017,18.026,18.017h26.112c0-29.246,23.711-52.966,52.966-52.966
		s52.966,23.72,52.966,52.966h211.862h105.931h26.112c9.957,0,18.026-8.068,18.026-18.017V166.919
		C512,161.755,510.076,156.785,506.606,152.963"/>
	<g>
		<path style="fill:#E0E0E0;" d="M394.759,203.037h117.239v-36.122c0-5.155-1.924-10.134-5.394-13.948l-50.776-55.861h-61.069
			c-3.505,0-6.347,2.842-6.347,6.347v93.237C388.412,200.194,391.255,203.037,394.759,203.037"/>
		<path style="fill:#E0E0E0;" d="M0.001,97.106v105.931h68.961c5.791,0,10.487-4.696,10.487-10.487v-84.957
			c0-5.791-4.696-10.487-10.487-10.487H0.001z"/>
		<path style="fill:#E0E0E0;" d="M256.001,109.518v81.108c0,6.85,5.561,12.412,12.412,12.412h63.453
			c6.85,0,12.412-5.561,12.412-12.412v-81.108c0-6.859-5.561-12.412-12.412-12.412h-63.453
			C261.562,97.107,256.001,102.659,256.001,109.518"/>
		<path style="fill:#E0E0E0;" d="M123.587,109.518v81.108c0,6.85,5.561,12.412,12.412,12.412h63.453
			c6.85,0,12.412-5.561,12.412-12.412v-81.108c0-6.859-5.561-12.412-12.412-12.412h-63.453
			C129.148,97.107,123.587,102.659,123.587,109.518"/>
	</g>
	<path style="fill:#A2A2A2;" d="M432.553,361.933c0,9.754-7.901,17.655-17.655,17.655s-17.655-7.901-17.655-17.655
		c0-9.754,7.901-17.655,17.655-17.655S432.553,352.179,432.553,361.933"/>
	<path style="fill:#494949;" d="M150.07,361.933c0,29.255-23.711,52.966-52.966,52.966s-52.966-23.711-52.966-52.966
		c0-29.255,23.711-52.966,52.966-52.966S150.07,332.679,150.07,361.933"/>
	<path style="fill:#A2A2A2;" d="M114.76,361.933c0,9.754-7.901,17.655-17.655,17.655s-17.655-7.901-17.655-17.655
		c0-9.754,7.901-17.655,17.655-17.655S114.76,352.179,114.76,361.933"/>
	<g>
		<path style="fill:#599922;" d="M512.001,256.002h-52.965c-4.882,0-8.828,3.946-8.828,8.828s3.946,8.828,8.828,8.828h52.965
			V256.002z"/>
		<path style="fill:#599922;" d="M282.484,229.519H0.001v17.655h282.483c4.873,0,8.828-3.946,8.828-8.828
			S287.356,229.519,282.484,229.519"/>
		<path style="fill:#599922;" d="M317.794,264.83H0.001v17.655h317.793c4.873,0,8.828-3.946,8.828-8.828
			S322.667,264.83,317.794,264.83"/>
	</g>
	<path style="fill:#2E243B;" d="M500.587,435.14l-60.001-60.001l57.229-28.619l-155.692-57.362l57.371,155.701l28.61-57.238
		l60.001,60.001c1.721,1.721,3.981,2.586,6.241,2.586s4.52-0.865,6.241-2.586C504.038,444.171,504.038,438.592,500.587,435.14"/>
</g>
<g>
</g>
<g>
</g>
<g>
</g>
<g>
</g>
<g>
</g>
<g>
</g>
<g>
</g>
<g>
</g>
<g>
</g>
<g>
</g>
<g>
</g>
<g>
</g>
<g>
</g>
<g>
</g>
<g>
</g>
</svg>
