<?xml version="1.0" encoding="iso-8859-1"?>
<!-- Generator: Adobe Illustrator 19.0.0, SVG Export Plug-In . SVG Version: 6.00 Build 0)  -->
<svg version="1.1" id="Layer_1" xmlns="http://www.w3.org/2000/svg" xmlns:xlink="http://www.w3.org/1999/xlink" x="0px" y="0px"
	 viewBox="0 0 512.001 512.001" style="enable-background:new 0 0 512.001 512.001;" xml:space="preserve">
<g>
	<path style="fill:#74B73E;" d="M506.606,148.549l-76.712-84.374c-3.928-4.326-9.498-6.797-15.342-6.797H18.026
		C8.068,57.378,0,65.446,0,75.404v264.095c0,9.949,8.068,18.017,18.026,18.017h26.112c0-29.246,23.711-52.966,52.966-52.966
		s52.966,23.72,52.966,52.966h211.862h105.931h26.112c9.957,0,18.026-8.068,18.026-18.017V162.506
		C512,157.342,510.076,152.372,506.606,148.549"/>
	<g>
		<path style="fill:#E0E0E0;" d="M394.759,198.623h117.239V162.5c0-5.155-1.924-10.134-5.394-13.948l-50.776-55.861h-61.069
			c-3.505,0-6.347,2.842-6.347,6.347v93.237C388.412,195.78,391.255,198.623,394.759,198.623"/>
		<path style="fill:#E0E0E0;" d="M0.001,92.692v105.931h68.961c5.791,0,10.487-4.696,10.487-10.487v-84.957
			c0-5.791-4.696-10.487-10.487-10.487H0.001z"/>
		<path style="fill:#E0E0E0;" d="M256.001,105.104v81.108c0,6.85,5.561,12.412,12.412,12.412h63.453
			c6.85,0,12.412-5.561,12.412-12.412v-81.108c0-6.859-5.561-12.412-12.412-12.412h-63.453
			C261.562,92.693,256.001,98.245,256.001,105.104"/>
		<path style="fill:#E0E0E0;" d="M123.587,105.104v81.108c0,6.85,5.561,12.412,12.412,12.412h63.453
			c6.85,0,12.412-5.561,12.412-12.412v-81.108c0-6.859-5.561-12.412-12.412-12.412h-63.453
			C129.148,92.693,123.587,98.245,123.587,105.104"/>
	</g>
	<path style="fill:#A2A2A2;" d="M432.553,357.519c0,9.754-7.901,17.655-17.655,17.655s-17.655-7.901-17.655-17.655
		s7.901-17.655,17.655-17.655S432.553,347.765,432.553,357.519"/>
	<path style="fill:#494949;" d="M150.07,357.519c0,29.255-23.711,52.966-52.966,52.966s-52.966-23.711-52.966-52.966
		s23.711-52.966,52.966-52.966S150.07,328.265,150.07,357.519"/>
	<path style="fill:#A2A2A2;" d="M114.76,357.519c0,9.754-7.901,17.655-17.655,17.655s-17.655-7.901-17.655-17.655
		s7.901-17.655,17.655-17.655S114.76,347.765,114.76,357.519"/>
	<g>
		<path style="fill:#599922;" d="M512.001,251.588h-52.965c-4.882,0-8.828,3.946-8.828,8.828c0,4.882,3.946,8.828,8.828,8.828
			h52.965V251.588z"/>
		<path style="fill:#599922;" d="M282.484,225.106H0.001v17.655h282.483c4.873,0,8.828-3.946,8.828-8.828
			S287.356,225.106,282.484,225.106"/>
		<path style="fill:#599922;" d="M317.794,260.416H0.001v17.655h317.793c4.873,0,8.828-3.946,8.828-8.828
			S322.667,260.416,317.794,260.416"/>
	</g>
	<path style="fill:#A2C9EC;" d="M335.449,454.623h176.552V313.382H335.449V454.623z"/>
	<path style="fill:#434C6D;" d="M450.208,375.175c0-14.627-11.855-26.483-26.483-26.483c-14.627,0-26.483,11.855-26.483,26.483
		c0,11.626,7.539,21.398,17.964,24.956c-0.097,0.512-0.309,0.989-0.309,1.527v17.655c0,4.873,3.955,8.828,8.828,8.828
		c4.873,0,8.828-3.955,8.828-8.828v-17.655c0-0.538-0.212-1.015-0.309-1.527C442.669,396.573,450.208,386.801,450.208,375.175"/>
	<path style="fill:#B0B6BB;" d="M379.587,295.726c0-24.338,19.8-44.138,44.138-44.138c24.338,0,44.138,19.8,44.138,44.138v17.655
		h17.655v-17.655c0-34.074-27.719-61.793-61.793-61.793s-61.793,27.719-61.793,61.793v17.655h17.655V295.726z"/>
</g>
<g>
</g>
<g>
</g>
<g>
</g>
<g>
</g>
<g>
</g>
<g>
</g>
<g>
</g>
<g>
</g>
<g>
</g>
<g>
</g>
<g>
</g>
<g>
</g>
<g>
</g>
<g>
</g>
<g>
</g>
</svg>
