<?xml version="1.0" encoding="iso-8859-1"?>
<!-- Generator: Adobe Illustrator 19.0.0, SVG Export Plug-In . SVG Version: 6.00 Build 0)  -->
<svg version="1.1" id="Layer_1" xmlns="http://www.w3.org/2000/svg" xmlns:xlink="http://www.w3.org/1999/xlink" x="0px" y="0px"
	 viewBox="0 0 512.003 512.003" style="enable-background:new 0 0 512.003 512.003;" xml:space="preserve">
<g>
	<path style="fill:#74B73E;" d="M506.606,148.551l-76.712-84.383c-3.928-4.317-9.498-6.788-15.342-6.788H18.026
		C8.068,57.379,0,65.448,0,75.405V339.5c0,9.949,8.068,18.017,18.026,18.017h26.112c0-29.246,23.711-52.966,52.966-52.966
		s52.966,23.72,52.966,52.966h211.862c0-29.246,23.711-52.966,52.966-52.966c29.255,0,52.966,23.72,52.966,52.966h26.112
		c9.957,0,18.026-8.068,18.026-18.017V162.507C512,157.343,510.076,152.373,506.606,148.551"/>
	<g>
		<path style="fill:#E0E0E0;" d="M394.759,198.623h117.239v-36.122c0-5.155-1.924-10.134-5.394-13.948l-50.776-55.861h-61.069
			c-3.505,0-6.347,2.842-6.347,6.347v93.237C388.412,195.781,391.255,198.623,394.759,198.623"/>
		<path style="fill:#E0E0E0;" d="M0.001,92.692v105.931h68.961c5.791,0,10.487-4.696,10.487-10.487v-84.957
			c0-5.791-4.696-10.487-10.487-10.487H0.001z"/>
		<path style="fill:#E0E0E0;" d="M256.001,105.105v81.108c0,6.85,5.561,12.412,12.412,12.412h63.453
			c6.85,0,12.412-5.561,12.412-12.412v-81.108c0-6.859-5.561-12.412-12.412-12.412h-63.453
			C261.562,92.693,256.001,98.246,256.001,105.105"/>
		<path style="fill:#E0E0E0;" d="M123.587,105.105v81.108c0,6.85,5.561,12.412,12.412,12.412h63.453
			c6.85,0,12.412-5.561,12.412-12.412v-81.108c0-6.859-5.561-12.412-12.412-12.412h-63.453
			C129.148,92.693,123.587,98.246,123.587,105.105"/>
	</g>
	<path style="fill:#494949;" d="M467.863,357.52c0,29.255-23.711,52.966-52.966,52.966s-52.966-23.711-52.966-52.966
		s23.711-52.966,52.966-52.966S467.863,328.265,467.863,357.52"/>
	<path style="fill:#A2A2A2;" d="M432.553,357.52c0,9.754-7.901,17.655-17.655,17.655s-17.655-7.901-17.655-17.655
		s7.901-17.655,17.655-17.655S432.553,347.765,432.553,357.52"/>
	<path style="fill:#494949;" d="M150.07,357.52c0,29.255-23.711,52.966-52.966,52.966s-52.966-23.711-52.966-52.966
		s23.711-52.966,52.966-52.966S150.07,328.265,150.07,357.52"/>
	<path style="fill:#A2A2A2;" d="M114.76,357.52c0,9.754-7.901,17.655-17.655,17.655s-17.655-7.901-17.655-17.655
		s7.901-17.655,17.655-17.655S114.76,347.765,114.76,357.52"/>
	<g>
		<path style="fill:#599922;" d="M512.001,251.589h-52.965c-4.882,0-8.828,3.946-8.828,8.828s3.946,8.828,8.828,8.828h52.965
			V251.589z"/>
		<path style="fill:#599922;" d="M282.484,225.106H0.001v17.655h282.483c4.873,0,8.828-3.946,8.828-8.828
			S287.356,225.106,282.484,225.106"/>
		<path style="fill:#599922;" d="M317.794,260.416H0.001v17.655h317.793c4.873,0,8.828-3.946,8.828-8.828
			S322.667,260.416,317.794,260.416"/>
	</g>
	<path style="fill:#EBB916;" d="M406.07,306.32c8.554-19.271,27.445-37.076,50.176-37.076c30.605,0,52.648,24.903,55.42,54.581
		c0,0,1.492,7.371-1.801,20.63c-4.484,18.061-15.016,34.119-29.228,46.362l-74.567,63.806l-74.567-63.815
		c-14.212-12.244-24.744-28.292-29.228-46.354c-3.293-13.268-1.801-20.63-1.801-20.63c2.772-29.678,24.814-54.581,55.42-54.581
		C378.625,269.244,397.516,287.049,406.07,306.32"/>
</g>
<g>
</g>
<g>
</g>
<g>
</g>
<g>
</g>
<g>
</g>
<g>
</g>
<g>
</g>
<g>
</g>
<g>
</g>
<g>
</g>
<g>
</g>
<g>
</g>
<g>
</g>
<g>
</g>
<g>
</g>
</svg>
