<?xml version="1.0" encoding="iso-8859-1"?>
<!-- Generator: Adobe Illustrator 19.0.0, SVG Export Plug-In . SVG Version: 6.00 Build 0)  -->
<svg version="1.1" id="Layer_1" xmlns="http://www.w3.org/2000/svg" xmlns:xlink="http://www.w3.org/1999/xlink" x="0px" y="0px"
	 viewBox="0 0 512 512" style="enable-background:new 0 0 512 512;" xml:space="preserve">
<g>
	<path style="fill:#6B4425;" d="M308.467,17.655V8.828c0-4.873-3.955-8.828-8.828-8.828H176.053c-4.873,0-8.828,3.955-8.828,8.828
		v8.828H43.64c-9.754,0-17.655,7.901-17.655,17.655v459.034c0,9.754,7.901,17.655,17.655,17.655h388.414
		c9.754,0,17.655-7.901,17.655-17.655V35.31c0-9.754-7.901-17.655-17.655-17.655H308.467z"/>
	<path style="fill:#434C6D;" d="M299.639,70.621H176.053c-4.873,0-8.828-3.955-8.828-8.828V8.828c0-4.873,3.955-8.828,8.828-8.828
		h123.586c4.873,0,8.828,3.955,8.828,8.828v52.966C308.466,66.666,304.512,70.621,299.639,70.621"/>
	<path style="fill:#ECE8D8;" d="M308.467,52.966v8.828c0,4.873-3.955,8.828-8.828,8.828H176.053c-4.873,0-8.828-3.955-8.828-8.828
		v-8.828H70.122c-4.873,0-8.828,3.955-8.828,8.828v406.069c0,4.873,3.955,8.828,8.828,8.828h335.448
		c4.873,0,8.828-3.955,8.828-8.828V61.793c0-4.873-3.955-8.828-8.828-8.828H308.467z"/>
	<g>
		<path style="fill:#C9B693;" d="M157.899,176.552h159.894l-28.072-39.318c-2.163-3.019-5.667-4.82-9.384-4.82h-84.983
			c-3.716,0-7.221,1.801-9.375,4.82L157.899,176.552z M334.954,194.207H140.747c-3.31,0-6.338-1.845-7.848-4.785
			c-1.518-2.94-1.262-6.479,0.662-9.172l38.056-53.274c5.464-7.645,14.336-12.217,23.737-12.217h84.983
			c9.41,0,18.273,4.573,23.746,12.217l38.047,53.274c1.924,2.692,2.18,6.232,0.662,9.172
			C341.283,192.362,338.264,194.207,334.954,194.207L334.954,194.207z"/>
		<path style="fill:#C9B693;" d="M167.226,229.517c-9.737,0-17.655,7.918-17.655,17.655s7.918,17.655,17.655,17.655
			s17.655-7.918,17.655-17.655S176.963,229.517,167.226,229.517 M167.226,282.483c-19.474,0-35.31-15.837-35.31-35.31
			s15.837-35.31,35.31-35.31s35.31,15.837,35.31,35.31S186.7,282.483,167.226,282.483"/>
		<path style="fill:#C9B693;" d="M308.467,229.517c-9.737,0-17.655,7.918-17.655,17.655s7.918,17.655,17.655,17.655
			s17.655-7.918,17.655-17.655S318.204,229.517,308.467,229.517 M308.467,282.483c-19.474,0-35.31-15.837-35.31-35.31
			s15.837-35.31,35.31-35.31s35.31,15.837,35.31,35.31S327.941,282.483,308.467,282.483"/>
		<path style="fill:#C9B693;" d="M342.657,238.345h13.815c2.737,0,4.961-2.225,4.961-4.961v-34.216c0-2.737-2.225-4.961-4.961-4.961
			H119.213c-2.728,0-4.952,2.225-4.952,4.961v34.216c0,2.737,2.225,4.961,4.952,4.961h13.824
			c3.919-15.219,17.77-26.483,34.189-26.483s30.27,11.264,34.189,26.483h72.863c3.919-15.219,17.77-26.483,34.189-26.483
			S338.737,223.126,342.657,238.345 M356.472,256H334.95c-4.882,0-8.828-3.946-8.828-8.828c0-9.737-7.927-17.655-17.655-17.655
			c-9.737,0-17.655,7.918-17.655,17.655c0,4.882-3.946,8.828-8.828,8.828h-88.276c-4.882,0-8.828-3.946-8.828-8.828
			c0-9.737-7.927-17.655-17.655-17.655c-9.737,0-17.655,7.918-17.655,17.655c0,4.882-3.946,8.828-8.828,8.828h-21.53
			c-12.465,0-22.607-10.143-22.607-22.616v-34.216c0-12.473,10.143-22.616,22.607-22.616h237.259
			c12.473,0,22.616,10.143,22.616,22.616v34.216C379.088,245.857,368.945,256,356.472,256"/>
		<path style="fill:#C9B693;" d="M237.847,344.276H105.433c-4.882,0-8.828-3.946-8.828-8.828c0-4.882,3.946-8.828,8.828-8.828
			h132.414c4.882,0,8.828,3.946,8.828,8.828C246.674,340.33,242.728,344.276,237.847,344.276"/>
		<path style="fill:#C9B693;" d="M237.847,388.414H105.433c-4.882,0-8.828-3.946-8.828-8.828c0-4.882,3.946-8.828,8.828-8.828
			h132.414c4.882,0,8.828,3.946,8.828,8.828C246.674,384.468,242.728,388.414,237.847,388.414"/>
		<path style="fill:#C9B693;" d="M237.847,432.552H105.433c-4.882,0-8.828-3.946-8.828-8.828c0-4.882,3.946-8.828,8.828-8.828
			h132.414c4.882,0,8.828,3.946,8.828,8.828C246.674,428.606,242.728,432.552,237.847,432.552"/>
		<path style="fill:#C9B693;" d="M237.847,194.207c-4.882,0-8.828-3.946-8.828-8.828v-61.793c0-4.882,3.946-8.828,8.828-8.828
			c4.882,0,8.828,3.946,8.828,8.828v61.793C246.674,190.261,242.728,194.207,237.847,194.207"/>
	</g>
	<path style="fill:#48A0DC;" d="M450.102,415.875c-0.441-34.737-27.913-62.773-61.784-62.773c-22.669,0-42.425,12.588-53.186,31.311
		c-3.716-1.254-7.68-1.951-11.811-1.951c-18.202,0-33.404,13.171-37.146,30.755c-15.475,7.636-26.262,23.887-26.262,42.655
		c0,26.015,20.692,47.298,45.974,47.298h95.117c0.53,0,1.05-0.062,1.58-0.079c0.53,0.018,1.051,0.079,1.589,0.079h38.047
		c23.543,0,42.796-19.818,42.796-44.041C485.015,437.679,469.903,419.715,450.102,415.875"/>
	<path style="fill:none;stroke:#A2C9EC;stroke-width:2;stroke-linecap:round;" d="M450.102,415.875
		c-0.441-34.737-27.913-62.773-61.784-62.773c-22.669,0-42.425,12.588-53.186,31.311c-3.716-1.254-7.68-1.951-11.811-1.951
		c-18.202,0-33.404,13.171-37.146,30.755c-15.475,7.636-26.262,23.887-26.262,42.655c0,26.015,20.692,47.298,45.974,47.298h95.117
		c0.53,0,1.05-0.062,1.58-0.079c0.53,0.018,1.051,0.079,1.589,0.079h38.047c23.543,0,42.796-19.818,42.796-44.041
		C485.015,437.679,469.903,419.715,450.102,415.875L450.102,415.875z"/>
</g>
<g>
</g>
<g>
</g>
<g>
</g>
<g>
</g>
<g>
</g>
<g>
</g>
<g>
</g>
<g>
</g>
<g>
</g>
<g>
</g>
<g>
</g>
<g>
</g>
<g>
</g>
<g>
</g>
<g>
</g>
</svg>
