<?xml version="1.0" encoding="iso-8859-1"?>
<!-- Generator: Adobe Illustrator 19.0.0, SVG Export Plug-In . SVG Version: 6.00 Build 0)  -->
<svg version="1.1" id="Layer_1" xmlns="http://www.w3.org/2000/svg" xmlns:xlink="http://www.w3.org/1999/xlink" x="0px" y="0px"
	 viewBox="0 0 512 512" style="enable-background:new 0 0 512 512;" xml:space="preserve">
<g>
	<path style="fill:#6B4425;" d="M304.552,17.655V8.828c0-4.873-3.955-8.828-8.828-8.828H172.138c-4.873,0-8.828,3.955-8.828,8.828
		v8.828H39.725c-9.754,0-17.655,7.901-17.655,17.655v459.034c0,9.754,7.901,17.655,17.655,17.655h388.414
		c9.754,0,17.655-7.901,17.655-17.655V35.31c0-9.754-7.901-17.655-17.655-17.655H304.552z"/>
	<path style="fill:#434C6D;" d="M295.724,70.621H172.137c-4.873,0-8.828-3.955-8.828-8.828V8.828c0-4.873,3.955-8.828,8.828-8.828
		h123.586c4.873,0,8.828,3.955,8.828,8.828v52.966C304.551,66.666,300.596,70.621,295.724,70.621"/>
	<path style="fill:#ECE8D8;" d="M304.552,52.966v8.828c0,4.873-3.955,8.828-8.828,8.828H172.138c-4.873,0-8.828-3.955-8.828-8.828
		v-8.828H66.207c-4.873,0-8.828,3.955-8.828,8.828v406.069c0,4.873,3.955,8.828,8.828,8.828h335.448
		c4.873,0,8.828-3.955,8.828-8.828V61.793c0-4.873-3.955-8.828-8.828-8.828H304.552z"/>
	<g>
		<path style="fill:#C9B693;" d="M153.984,176.552h159.894l-28.072-39.318c-2.163-3.019-5.667-4.82-9.384-4.82h-84.983
			c-3.716,0-7.221,1.801-9.375,4.82L153.984,176.552z M331.038,194.207H136.831c-3.31,0-6.338-1.845-7.848-4.785
			c-1.518-2.94-1.262-6.479,0.662-9.172l38.056-53.274c5.464-7.645,14.336-12.217,23.737-12.217h84.983
			c9.41,0,18.273,4.573,23.746,12.217l38.047,53.274c1.924,2.692,2.18,6.232,0.662,9.172
			C337.368,192.362,334.349,194.207,331.038,194.207L331.038,194.207z"/>
		<path style="fill:#C9B693;" d="M163.311,229.517c-9.737,0-17.655,7.918-17.655,17.655s7.918,17.655,17.655,17.655
			s17.655-7.918,17.655-17.655S173.048,229.517,163.311,229.517 M163.311,282.483c-19.474,0-35.31-15.837-35.31-35.31
			s15.837-35.31,35.31-35.31s35.31,15.837,35.31,35.31S182.784,282.483,163.311,282.483"/>
		<path style="fill:#C9B693;" d="M304.552,229.517c-9.737,0-17.655,7.918-17.655,17.655s7.918,17.655,17.655,17.655
			c9.737,0,17.655-7.918,17.655-17.655S314.289,229.517,304.552,229.517 M304.552,282.483c-19.474,0-35.31-15.837-35.31-35.31
			s15.837-35.31,35.31-35.31c19.474,0,35.31,15.837,35.31,35.31S324.026,282.483,304.552,282.483"/>
		<path style="fill:#C9B693;" d="M338.741,238.345h13.815c2.737,0,4.961-2.225,4.961-4.961v-34.216c0-2.737-2.225-4.961-4.961-4.961
			H115.297c-2.728,0-4.952,2.225-4.952,4.961v34.216c0,2.737,2.225,4.961,4.952,4.961h13.824
			c3.919-15.219,17.77-26.483,34.189-26.483s30.27,11.264,34.189,26.483h72.863c3.919-15.219,17.77-26.483,34.189-26.483
			C320.971,211.862,334.822,223.126,338.741,238.345 M352.557,256h-21.522c-4.882,0-8.828-3.946-8.828-8.828
			c0-9.737-7.927-17.655-17.655-17.655c-9.737,0-17.655,7.918-17.655,17.655c0,4.882-3.946,8.828-8.828,8.828h-88.276
			c-4.882,0-8.828-3.946-8.828-8.828c0-9.737-7.927-17.655-17.655-17.655c-9.737,0-17.655,7.918-17.655,17.655
			c0,4.882-3.946,8.828-8.828,8.828h-21.53c-12.465,0-22.607-10.143-22.607-22.616v-34.216c0-12.473,10.143-22.616,22.607-22.616
			h237.259c12.473,0,22.616,10.143,22.616,22.616v34.216C375.173,245.857,365.03,256,352.557,256"/>
		<path style="fill:#C9B693;" d="M233.931,344.276H101.518c-4.882,0-8.828-3.946-8.828-8.828c0-4.882,3.946-8.828,8.828-8.828
			h132.414c4.882,0,8.828,3.946,8.828,8.828C242.759,340.33,238.813,344.276,233.931,344.276"/>
		<path style="fill:#C9B693;" d="M233.931,388.414H101.518c-4.882,0-8.828-3.946-8.828-8.828c0-4.882,3.946-8.828,8.828-8.828
			h132.414c4.882,0,8.828,3.946,8.828,8.828C242.759,384.468,238.813,388.414,233.931,388.414"/>
		<path style="fill:#C9B693;" d="M233.931,432.552H101.518c-4.882,0-8.828-3.946-8.828-8.828c0-4.882,3.946-8.828,8.828-8.828
			h132.414c4.882,0,8.828,3.946,8.828,8.828C242.759,428.606,238.813,432.552,233.931,432.552"/>
		<path style="fill:#C9B693;" d="M233.931,194.207c-4.882,0-8.828-3.946-8.828-8.828v-61.793c0-4.882,3.946-8.828,8.828-8.828
			s8.828,3.946,8.828,8.828v61.793C242.759,190.261,238.813,194.207,233.931,194.207"/>
	</g>
	<path style="fill:#EBB916;" d="M478.991,512H269.856c-8.43,0-13.683-9.145-9.437-16.428l104.572-179.253
		c4.211-7.23,14.654-7.23,18.873,0l104.563,179.253C492.673,502.855,487.421,512,478.991,512"/>
	<g>
		<path style="fill:#FFFFFF;" d="M375.173,450.207c-4.873,0-8.828-3.955-8.828-8.828v-70.621c0-4.873,3.955-8.828,8.828-8.828
			s8.828,3.955,8.828,8.828v70.621C384,446.252,380.046,450.207,375.173,450.207"/>
		<path style="fill:#FFFFFF;" d="M375.173,485.517c-2.295,0-4.59-0.971-6.268-2.56c-1.589-1.677-2.56-3.972-2.56-6.268
			c0-2.295,0.971-4.59,2.56-6.268c3.354-3.266,9.181-3.266,12.535,0c1.589,1.677,2.56,3.972,2.56,6.268
			c0,2.295-0.971,4.59-2.56,6.268C379.763,484.546,377.556,485.517,375.173,485.517"/>
	</g>
</g>
<g>
</g>
<g>
</g>
<g>
</g>
<g>
</g>
<g>
</g>
<g>
</g>
<g>
</g>
<g>
</g>
<g>
</g>
<g>
</g>
<g>
</g>
<g>
</g>
<g>
</g>
<g>
</g>
<g>
</g>
</svg>
