<?xml version="1.0" encoding="iso-8859-1"?>
<!-- Generator: Adobe Illustrator 19.0.0, SVG Export Plug-In . SVG Version: 6.00 Build 0)  -->
<svg version="1.1" id="Layer_1" xmlns="http://www.w3.org/2000/svg" xmlns:xlink="http://www.w3.org/1999/xlink" x="0px" y="0px"
	 viewBox="0 0 512 512" style="enable-background:new 0 0 512 512;" xml:space="preserve">
<g>
	<path style="fill:#6B4425;" d="M317.793,17.655V8.828c0-4.873-3.955-8.828-8.828-8.828H185.379c-4.873,0-8.828,3.955-8.828,8.828
		v8.828H52.966c-9.754,0-17.655,7.901-17.655,17.655v459.035c0,9.754,7.901,17.655,17.655,17.655h388.414
		c9.754,0,17.655-7.901,17.655-17.655V35.31c0-9.754-7.901-17.655-17.655-17.655H317.793z"/>
	<path style="fill:#434C6D;" d="M308.965,70.621H185.378c-4.873,0-8.828-3.955-8.828-8.828V8.828c0-4.873,3.955-8.828,8.828-8.828
		h123.586c4.873,0,8.828,3.955,8.828,8.828v52.966C317.792,66.666,313.837,70.621,308.965,70.621"/>
	<path style="fill:#ECE8D8;" d="M317.793,52.966v8.828c0,4.873-3.955,8.828-8.828,8.828H185.379c-4.873,0-8.828-3.955-8.828-8.828
		v-8.828H79.448c-4.873,0-8.828,3.955-8.828,8.828v406.069c0,4.873,3.955,8.828,8.828,8.828h335.448
		c4.873,0,8.828-3.955,8.828-8.828V61.793c0-4.873-3.955-8.828-8.828-8.828H317.793z"/>
	<g>
		<path style="fill:#C9B693;" d="M167.225,176.552h159.894l-28.072-39.318c-2.163-3.019-5.667-4.82-9.384-4.82H204.68
			c-3.716,0-7.221,1.801-9.375,4.82L167.225,176.552z M344.279,194.207H150.072c-3.31,0-6.338-1.845-7.848-4.785
			c-1.518-2.94-1.262-6.479,0.662-9.172l38.056-53.274c5.464-7.645,14.336-12.217,23.737-12.217h84.983
			c9.41,0,18.273,4.573,23.746,12.217l38.047,53.274c1.924,2.692,2.18,6.232,0.662,9.172
			C350.609,192.362,347.59,194.207,344.279,194.207L344.279,194.207z"/>
		<path style="fill:#C9B693;" d="M176.552,229.517c-9.737,0-17.655,7.918-17.655,17.655c0,9.737,7.918,17.655,17.655,17.655
			c9.737,0,17.655-7.918,17.655-17.655C194.207,237.436,186.289,229.517,176.552,229.517 M176.552,282.483
			c-19.474,0-35.31-15.837-35.31-35.31c0-19.474,15.837-35.31,35.31-35.31s35.31,15.837,35.31,35.31
			C211.862,266.646,196.025,282.483,176.552,282.483"/>
		<path style="fill:#C9B693;" d="M317.793,229.517c-9.737,0-17.655,7.918-17.655,17.655c0,9.737,7.918,17.655,17.655,17.655
			c9.737,0,17.655-7.918,17.655-17.655C335.448,237.436,327.53,229.517,317.793,229.517 M317.793,282.483
			c-19.474,0-35.31-15.837-35.31-35.31c0-19.474,15.837-35.31,35.31-35.31s35.31,15.837,35.31,35.31
			C353.103,266.646,337.267,282.483,317.793,282.483"/>
		<path style="fill:#C9B693;" d="M351.982,238.345h13.815c2.737,0,4.961-2.225,4.961-4.961v-34.216c0-2.737-2.225-4.961-4.961-4.961
			H128.538c-2.728,0-4.952,2.225-4.952,4.961v34.216c0,2.737,2.225,4.961,4.952,4.961h13.824
			c3.919-15.219,17.77-26.483,34.189-26.483s30.27,11.264,34.189,26.483h72.863c3.919-15.219,17.77-26.483,34.189-26.483
			C334.212,211.862,348.063,223.126,351.982,238.345 M365.798,256h-21.522c-4.882,0-8.828-3.946-8.828-8.828
			c0-9.737-7.927-17.655-17.655-17.655c-9.737,0-17.655,7.918-17.655,17.655c0,4.882-3.946,8.828-8.828,8.828h-88.276
			c-4.882,0-8.828-3.946-8.828-8.828c0-9.737-7.927-17.655-17.655-17.655c-9.737,0-17.655,7.918-17.655,17.655
			c0,4.882-3.946,8.828-8.828,8.828h-21.53c-12.465,0-22.607-10.143-22.607-22.616v-34.216c0-12.473,10.143-22.616,22.607-22.616
			h237.259c12.473,0,22.616,10.143,22.616,22.616v34.216C388.414,245.857,378.271,256,365.798,256"/>
		<path style="fill:#C9B693;" d="M247.172,344.276H114.759c-4.882,0-8.828-3.946-8.828-8.828s3.946-8.828,8.828-8.828h132.414
			c4.882,0,8.828,3.946,8.828,8.828S252.054,344.276,247.172,344.276"/>
		<path style="fill:#C9B693;" d="M247.172,388.414H114.759c-4.882,0-8.828-3.946-8.828-8.828s3.946-8.828,8.828-8.828h132.414
			c4.882,0,8.828,3.946,8.828,8.828S252.054,388.414,247.172,388.414"/>
		<path style="fill:#C9B693;" d="M247.172,432.552H114.759c-4.882,0-8.828-3.946-8.828-8.828c0-4.882,3.946-8.828,8.828-8.828
			h132.414c4.882,0,8.828,3.946,8.828,8.828C256,428.606,252.054,432.552,247.172,432.552"/>
		<path style="fill:#C9B693;" d="M247.172,194.207c-4.882,0-8.828-3.946-8.828-8.828v-61.793c0-4.882,3.946-8.828,8.828-8.828
			s8.828,3.946,8.828,8.828v61.793C256,190.261,252.054,194.207,247.172,194.207"/>
	</g>
	<g>
		<path style="fill:#C6E3F8;" d="M388.414,397.075h-17.655c-32.071-12.826-52.966-42.911-52.966-76.27v-29.661h123.586v29.661
			C441.379,354.164,420.484,384.248,388.414,397.075"/>
		<path style="fill:#C6E3F8;" d="M370.759,397.075h17.655c32.071,12.826,52.966,42.911,52.966,76.27v29.661H317.793v-29.661
			C317.793,439.985,338.688,409.901,370.759,397.075"/>
	</g>
	<g>
		<path style="fill:#434C6D;" d="M291.31,299.971h8.828h17.655h150.069c4.882,0,8.828-3.955,8.828-8.828
			c0-4.873-3.946-8.828-8.828-8.828H317.793h-17.655h-8.828c-4.882,0-8.828,3.955-8.828,8.828
			C282.483,296.016,286.429,299.971,291.31,299.971"/>
		<path style="fill:#434C6D;" d="M467.853,494.161H308.957c-0.026,0-0.053,0.018-0.088,0.018H291.31
			c-4.882,0-8.828,3.955-8.828,8.828c0,4.873,3.946,8.828,8.828,8.828h26.483c0.026,0,0.053-0.018,0.088-0.018h149.972
			c4.882,0,8.828-3.955,8.828-8.828C476.681,498.116,472.735,494.161,467.853,494.161"/>
	</g>
</g>
<g>
</g>
<g>
</g>
<g>
</g>
<g>
</g>
<g>
</g>
<g>
</g>
<g>
</g>
<g>
</g>
<g>
</g>
<g>
</g>
<g>
</g>
<g>
</g>
<g>
</g>
<g>
</g>
<g>
</g>
</svg>
