<?xml version="1.0" encoding="iso-8859-1"?>
<!-- Generator: Adobe Illustrator 19.0.0, SVG Export Plug-In . SVG Version: 6.00 Build 0)  -->
<svg version="1.1" id="Layer_1" xmlns="http://www.w3.org/2000/svg" xmlns:xlink="http://www.w3.org/1999/xlink" x="0px" y="0px"
	 viewBox="0 0 512.005 512.005" style="enable-background:new 0 0 512.005 512.005;" xml:space="preserve">
<g>
	<path style="fill:#E86C59;" d="M70.623,295.727H0.003V92.692c0-14.627,11.855-26.483,26.483-26.483h17.655
		c14.627,0,26.483,11.855,26.483,26.483V295.727z"/>
	<path style="fill:#666666;" d="M44.141,445.796H26.485c-14.627,0-26.483-11.855-26.483-26.483v-52.966h70.621v52.966
		C70.623,433.94,58.768,445.796,44.141,445.796"/>
	<path style="fill:#932D20;" d="M185.37,366.347H0v-70.621h211.862v44.129C211.862,354.483,200.007,366.347,185.37,366.347"/>
	<path style="fill:#E86C59;" d="M441.382,295.727h70.621V92.692c0-14.627-11.855-26.483-26.483-26.483h-17.655
		c-14.627,0-26.483,11.855-26.483,26.483V295.727z"/>
	<path style="fill:#666666;" d="M467.865,445.796h17.655c14.627,0,26.483-11.855,26.483-26.483v-52.966h-70.621v52.966
		C441.382,433.94,453.237,445.796,467.865,445.796"/>
	<path style="fill:#932D20;" d="M326.635,366.347h185.37v-70.621H300.143v44.129C300.143,354.483,311.999,366.347,326.635,366.347"
		/>
	<path style="fill:#B24837;" d="M326.612,119.175c-14.618,0-26.474,11.855-26.474,26.474v24.011c0,6.241-5.058,11.308-11.308,11.308
		h-65.651c-6.25,0-11.317-5.067-11.317-11.308v-24.011c0-14.618-11.847-26.474-26.465-26.474H70.621v176.552h141.241v-32.83
		c0-6.241,5.067-11.308,11.317-11.308h65.651c6.25,0,11.308,5.067,11.308,11.308v32.83h141.241V119.175H326.612z"/>
	<g>
		<path style="fill:#932D20;" d="M176.554,163.313h-70.621c-4.873,0-8.828-3.955-8.828-8.828s3.955-8.828,8.828-8.828h70.621
			c4.873,0,8.828,3.955,8.828,8.828S181.427,163.313,176.554,163.313"/>
		<path style="fill:#932D20;" d="M176.554,198.623h-70.621c-4.873,0-8.828-3.955-8.828-8.828c0-4.873,3.955-8.828,8.828-8.828
			h70.621c4.873,0,8.828,3.955,8.828,8.828C185.382,194.669,181.427,198.623,176.554,198.623"/>
		<path style="fill:#932D20;" d="M176.554,233.934h-70.621c-4.873,0-8.828-3.955-8.828-8.828c0-4.873,3.955-8.828,8.828-8.828
			h70.621c4.873,0,8.828,3.955,8.828,8.828C185.382,229.979,181.427,233.934,176.554,233.934"/>
		<path style="fill:#932D20;" d="M176.554,269.244h-70.621c-4.873,0-8.828-3.955-8.828-8.828c0-4.873,3.955-8.828,8.828-8.828
			h70.621c4.873,0,8.828,3.955,8.828,8.828C185.382,265.289,181.427,269.244,176.554,269.244"/>
		<path style="fill:#932D20;" d="M406.072,163.313h-70.621c-4.873,0-8.828-3.955-8.828-8.828s3.955-8.828,8.828-8.828h70.621
			c4.873,0,8.828,3.955,8.828,8.828S410.944,163.313,406.072,163.313"/>
		<path style="fill:#932D20;" d="M406.072,198.623h-70.621c-4.873,0-8.828-3.955-8.828-8.828c0-4.873,3.955-8.828,8.828-8.828
			h70.621c4.873,0,8.828,3.955,8.828,8.828C414.899,194.669,410.944,198.623,406.072,198.623"/>
		<path style="fill:#932D20;" d="M406.072,233.934h-70.621c-4.873,0-8.828-3.955-8.828-8.828c0-4.873,3.955-8.828,8.828-8.828
			h70.621c4.873,0,8.828,3.955,8.828,8.828C414.899,229.979,410.944,233.934,406.072,233.934"/>
		<path style="fill:#932D20;" d="M406.072,269.244h-70.621c-4.873,0-8.828-3.955-8.828-8.828c0-4.873,3.955-8.828,8.828-8.828
			h70.621c4.873,0,8.828,3.955,8.828,8.828C414.899,265.289,410.944,269.244,406.072,269.244"/>
	</g>
	<g>
		<path style="fill:#FFCE5D;" d="M150.072,339.865H61.796c-4.873,0-8.828-3.955-8.828-8.828s3.955-8.828,8.828-8.828h88.276
			c4.873,0,8.828,3.955,8.828,8.828S154.944,339.865,150.072,339.865"/>
		<path style="fill:#FFCE5D;" d="M450.21,339.865h-88.276c-4.873,0-8.828-3.955-8.828-8.828s3.955-8.828,8.828-8.828h88.276
			c4.873,0,8.828,3.955,8.828,8.828S455.082,339.865,450.21,339.865"/>
	</g>
	<g>
		<path style="fill:#932D20;" d="M238.347,216.279c0,4.873-3.955,8.828-8.828,8.828c-4.873,0-8.828-3.955-8.828-8.828
			c0-4.873,3.955-8.828,8.828-8.828C234.393,207.451,238.347,211.406,238.347,216.279"/>
		<path style="fill:#932D20;" d="M291.313,216.279c0,4.873-3.955,8.828-8.828,8.828c-4.873,0-8.828-3.955-8.828-8.828
			c0-4.873,3.955-8.828,8.828-8.828C287.358,207.451,291.313,211.406,291.313,216.279"/>
	</g>
</g>
<g>
</g>
<g>
</g>
<g>
</g>
<g>
</g>
<g>
</g>
<g>
</g>
<g>
</g>
<g>
</g>
<g>
</g>
<g>
</g>
<g>
</g>
<g>
</g>
<g>
</g>
<g>
</g>
<g>
</g>
</svg>
