<?xml version="1.0" encoding="iso-8859-1"?>
<!-- Generator: Adobe Illustrator 19.0.0, SVG Export Plug-In . SVG Version: 6.00 Build 0)  -->
<svg version="1.1" id="Layer_1" xmlns="http://www.w3.org/2000/svg" xmlns:xlink="http://www.w3.org/1999/xlink" x="0px" y="0px"
	 viewBox="0 0 512 512" style="enable-background:new 0 0 512 512;" xml:space="preserve">
<g>
	<path style="fill:#419EDE;" d="M406.069,110.346c-68.281-58.774-230.153-58.933-300.138,0V313.38h300.138V110.346z"/>
	<g>
		<path style="fill:#1C83BB;" d="M105.931,69.161v41.181c69.985-58.924,231.857-58.765,300.138,0V68.967
			c0-7.336-3.178-14.433-8.995-18.891C333.471,1.383,181.592,0.809,116.171,49.291C109.833,53.987,105.931,61.278,105.931,69.161"/>
		<path style="fill:#1C83BB;" d="M211.862,69.215v70.559c0,8.121,6.585,14.707,14.716,14.707h58.845
			c8.13,0,14.716-6.585,14.716-14.707V69.065C271.272,65.225,240.799,65.278,211.862,69.215"/>
	</g>
	<path style="fill:#FFCE5D;" d="M203.034,233.932c0,14.627-11.855,26.483-26.483,26.483s-26.483-11.855-26.483-26.483
		c0-14.627,11.855-26.483,26.483-26.483S203.034,219.305,203.034,233.932"/>
	<path style="fill:#EF715D;" d="M273.655,110.346c0,9.754-7.901,17.655-17.655,17.655s-17.655-7.901-17.655-17.655
		S246.246,92.691,256,92.691S273.655,100.591,273.655,110.346"/>
	<path style="fill:#FFCE5D;" d="M361.931,233.932c0,14.627-11.855,26.483-26.483,26.483s-26.483-11.855-26.483-26.483
		c0-14.627,11.855-26.483,26.483-26.483S361.931,219.305,361.931,233.932"/>
	<g>
		<path style="fill:#1C83BB;" d="M105.931,216.277H65.836c-7.106,0-12.871-5.764-12.871-12.871v-44.879
			c0-7.106,5.764-12.871,12.871-12.871h40.095V216.277z"/>
		<path style="fill:#1C83BB;" d="M446.161,216.277h-40.095v-70.621h40.095c7.106,0,12.871,5.764,12.871,12.871v44.879
			C459.032,210.512,453.267,216.277,446.161,216.277"/>
		<path style="fill:#1C83BB;" d="M256,260.414c-4.882,0-8.828-3.955-8.828-8.828v-35.31c0-4.873,3.946-8.828,8.828-8.828
			s8.828,3.955,8.828,8.828v35.31C264.828,256.459,260.882,260.414,256,260.414"/>
	</g>
	<path style="fill:#666666;" d="M459.034,498.759H52.966l88.276-70.621h220.69L459.034,498.759z"/>
	<g>
		<path style="fill:#B3B3B3;" d="M86.069,472.276h336.552l-24.276-17.655H108.138L86.069,472.276z"/>
		<path style="fill:#B3B3B3;" d="M317.793,498.759h17.655v-70.621h-17.655V498.759z"/>
		<path style="fill:#B3B3B3;" d="M167.724,498.759h17.655v-70.621h-17.655V498.759z"/>
	</g>
	<path style="fill:#FFCE5D;" d="M0,313.379h512c-23.543,23.543-23.543,91.215,0,114.759H0C23.543,404.595,23.543,336.922,0,313.379"
		/>
	<path style="fill:#C49E47;" d="M16.915,384h478.173c-0.6-5.817-0.794-11.741-0.6-17.655H17.516
		C17.71,372.259,17.516,378.183,16.915,384"/>
</g>
<g>
</g>
<g>
</g>
<g>
</g>
<g>
</g>
<g>
</g>
<g>
</g>
<g>
</g>
<g>
</g>
<g>
</g>
<g>
</g>
<g>
</g>
<g>
</g>
<g>
</g>
<g>
</g>
<g>
</g>
</svg>
