<?xml version="1.0" encoding="iso-8859-1"?>
<!-- Generator: Adobe Illustrator 19.0.0, SVG Export Plug-In . SVG Version: 6.00 Build 0)  -->
<svg version="1.1" id="Layer_1" xmlns="http://www.w3.org/2000/svg" xmlns:xlink="http://www.w3.org/1999/xlink" x="0px" y="0px"
	 viewBox="0 0 503.832 503.832" style="enable-background:new 0 0 503.832 503.832;" xml:space="preserve">
<g>
	<path style="fill:#999999;" d="M176.552,371.089c-19.518,0-38.232-3.196-55.782-8.713l10.884,88.161h158.897l12.164-100.405
		C229.182,373.543,176.552,371.089,176.552,371.089"/>
	<path style="fill:#E6E6E6;" d="M0,221.02c0,73.128,79.042,150.069,176.552,150.069c0,0,166.788,7.795,321.368-136.457
		c7.883-7.371,7.883-19.853,0-27.224C343.102,62.9,176.552,70.951,176.552,70.951C79.042,70.951,0,147.892,0,221.02"/>
	<g>
		<path style="fill:#999999;" d="M441.379,161.31V79.778l-52.966-26.483l-52.966,50.308
			C368.649,116.819,404.718,135.33,441.379,161.31"/>
		<path style="fill:#999999;" d="M441.379,280.729v81.532l-52.966,26.483l-52.966-50.308
			C368.649,325.22,404.718,306.709,441.379,280.729"/>
		<path style="fill:#999999;" d="M0,221.02c0,35.275,18.511,71.353,48.49,99.337c23.755-19.844,39.786-56.85,39.786-99.337
			s-16.031-79.501-39.786-99.337C18.511,149.666,0,185.745,0,221.02"/>
		<path style="fill:#999999;" d="M423.724,229.847H158.897c-4.873,0-8.828-3.946-8.828-8.828c0-4.882,3.955-8.828,8.828-8.828
			h264.828c4.873,0,8.828,3.946,8.828,8.828C432.552,225.901,428.597,229.847,423.724,229.847"/>
		<path style="fill:#999999;" d="M370.759,273.985H211.862c-4.873,0-8.828-3.946-8.828-8.828c0-4.882,3.955-8.828,8.828-8.828
			h158.897c4.873,0,8.828,3.946,8.828,8.828C379.586,270.039,375.631,273.985,370.759,273.985"/>
		<path style="fill:#999999;" d="M370.759,185.709H211.862c-4.873,0-8.828-3.946-8.828-8.828c0-4.882,3.955-8.828,8.828-8.828
			h158.897c4.873,0,8.828,3.946,8.828,8.828C379.586,181.763,375.631,185.709,370.759,185.709"/>
	</g>
	<g>
		<path style="fill:#E6E6E6;" d="M46.586,249.657l-40.81-35.31c-1.518-1.315-3.363-1.871-5.217-1.986
			c-0.247,2.887-0.556,5.773-0.556,8.66c0,4.114,0.3,8.236,0.794,12.359l34.233,29.625c1.668,1.448,3.725,2.154,5.773,2.154
			c2.472,0,4.935-1.033,6.682-3.054C50.673,258.414,50.267,252.844,46.586,249.657"/>
		<path style="fill:#E6E6E6;" d="M38.625,178.813L0.772,209.101c-0.459,3.972-0.768,7.954-0.768,11.917
			c0,2.913,0.309,5.826,0.556,8.739c1.748-0.115,3.487-0.662,4.952-1.845l44.138-35.31c3.814-3.046,4.423-8.598,1.377-12.412
			C47.991,176.386,42.421,175.768,38.625,178.813"/>
		<path style="fill:#E6E6E6;" d="M44.138,212.192H0.565C0.318,215.132,0,218.08,0,221.02c0,2.94,0.318,5.888,0.565,8.828h43.573
			c4.873,0,8.828-3.946,8.828-8.828C52.966,216.138,49.011,212.192,44.138,212.192"/>
		<path style="fill:#E6E6E6;" d="M127.296,415.226h167.53l2.145-17.655H125.116L127.296,415.226z"/>
	</g>
</g>
<g>
</g>
<g>
</g>
<g>
</g>
<g>
</g>
<g>
</g>
<g>
</g>
<g>
</g>
<g>
</g>
<g>
</g>
<g>
</g>
<g>
</g>
<g>
</g>
<g>
</g>
<g>
</g>
<g>
</g>
</svg>
