<svg height="512" viewBox="0 0 64 64" width="512" xmlns="http://www.w3.org/2000/svg"><g id="_14-almond_milk" data-name="14-almond milk"><path d="m23.23 60-.23 3h-20l-.23-3z" fill="#f7f4ec"/><path d="m25 37-.31 4h-23.38l-.31-4z" fill="#ebe8e0"/><path d="m1.31 41h23.38l-1.46 19h-20.46z" fill="#fff2e6"/><path d="m52 10c0 .69-1.22 1.29-3.08 1.66a20.656 20.656 0 0 1 -3.92.34 20.656 20.656 0 0 1 -3.92-.34c-1.86-.37-3.08-.97-3.08-1.66 0-1.1 3.13-2 7-2s7 .9 7 2z" fill="#ffbd50"/><path d="m41 12v5.64c-1.82-.36-3-.96-3-1.64v-6c0 .69 1.22 1.29 3.08 1.66z" fill="#cc926d"/><path d="m49 12v5.64a20.54 20.54 0 0 1 -4 .36v-6a20.656 20.656 0 0 0 3.92-.34z" fill="#cc926d"/><path d="m45 12v6a20.54 20.54 0 0 1 -4-.36v-5.64l.08-.34a20.656 20.656 0 0 0 3.92.34z" fill="#dd9f76"/><path d="m52 10v6c0 .68-1.18 1.28-3 1.64v-5.64l-.08-.34c1.86-.37 3.08-.97 3.08-1.66z" fill="#dd9f76"/><path d="m59 1v4h-14-14v-4z" fill="#ffe16e"/><path d="m59 5h-28l-4 16h36zm-7 11c0 .68-1.18 1.28-3 1.64a20.54 20.54 0 0 1 -4 .36 20.54 20.54 0 0 1 -4-.36c-1.82-.36-3-.96-3-1.64v-6c0-1.1 3.13-2 7-2s7 .9 7 2z" fill="#fff0e0"/><path d="m42.3 48.87a6 6 0 0 0 11.7-1.87c0-3.31-3-12-6-12-.92 0-1.83.81-2.66 2.03l-.04-.03c-2.76-3.22-7.19-6.83-9.4-5.83-2.97 1.34-1.93 11-.4 14.17a6.594 6.594 0 0 0 6.5 3.64zm20.7-27.87v42h-36v-42z" fill="#ffe4c6"/><path d="m21.12 9.88a2.331 2.331 0 0 1 0 3.65c-1.35 1.34-4.25 1.82-4.86 1.21s-.13-3.51 1.21-4.86a2.331 2.331 0 0 1 3.65 0z" fill="#dd9f76"/><g fill="#cc926d"><path d="m10 20a2.7 2.7 0 0 1 3 3c0 2.21-2 5-3 5s-3-2.79-3-5a2.7 2.7 0 0 1 3-3z"/><path d="m38.47 44a9.364 9.364 0 0 0 3.53 4.13l.11-.02a4.969 4.969 0 0 0 .19.76l-.3.11a6.594 6.594 0 0 1 -6.5-3.64c-1.53-3.17-2.57-12.83.4-14.17-.75.33-.5 6.48 2.57 12.83z"/><path d="m35.9 31.17c.69-.31 4.8 3.23 7.83 8.83l.04.02a26.772 26.772 0 0 0 -1.35 4.09l-.42-.11z"/><path d="m48 53a6 6 0 0 1 -5.7-4.13 4.969 4.969 0 0 1 -.19-.76 5.8 5.8 0 0 1 -.11-1.11 13.264 13.264 0 0 1 .42-2.89 26.772 26.772 0 0 1 1.35-4.09 16.42 16.42 0 0 1 1.57-2.99c.83-1.22 1.74-2.03 2.66-2.03-.75 0-3 5.37-3 12 0 3.32 1.34 6 3 6z"/><path d="m51 47c0 3.32-1.34 6-3 6v-18c.75 0 3 5.37 3 12z"/></g><path d="m42 47a5.8 5.8 0 0 0 .11 1.11l-.11.02a9.364 9.364 0 0 1 -3.53-4.13c-3.07-6.35-3.32-12.5-2.57-12.83l6.1 12.83.42.11a13.264 13.264 0 0 0 -.42 2.89z" fill="#dd9f76"/><path d="m45.34 37.03a16.42 16.42 0 0 0 -1.57 2.99l-.04-.02c-3.03-5.6-7.14-9.14-7.83-8.83 2.21-1 6.64 2.61 9.4 5.83z" fill="#dd9f76"/><path d="m48 35v18c-1.66 0-3-2.68-3-6 0-6.63 2.25-12 3-12z" fill="#dd9f76"/><path d="m54 47a6 6 0 0 1 -6 6c1.66 0 3-2.68 3-6 0-6.63-2.25-12-3-12 3 0 6 8.69 6 12z" fill="#dd9f76"/><path d="m45 9c3.268 0 6 .643 6.773 1.5a.746.746 0 0 0 .227-.5c0-1.1-3.13-2-7-2s-7 .9-7 2a.746.746 0 0 0 .227.5c.773-.857 3.505-1.5 6.773-1.5z" fill="#ffe16e"/><path d="m21.12 9.88c-.043-.042-.089-.076-.132-.115a2.582 2.582 0 0 1 -.868 1.765 6.06 6.06 0 0 1 -4.051 1.464 2.338 2.338 0 0 0 .191 1.746c.61.61 3.51.13 4.86-1.21a2.331 2.331 0 0 0 0-3.65z" fill="#b48160"/><path d="m9 23a2.607 2.607 0 0 1 2-2.878 4.182 4.182 0 0 0 -1-.122 2.7 2.7 0 0 0 -3 3c0 2.21 2 5 3 5a1.682 1.682 0 0 0 1-.578 7.057 7.057 0 0 1 -2-4.422z" fill="#b48160"/><path d="m45.061 48.216a6 6 0 0 1 -2.761-3.346c-.01-.032-.015-.066-.024-.1a11.626 11.626 0 0 0 -.276 2.23 5.8 5.8 0 0 0 .11 1.11 4.969 4.969 0 0 0 .19.76 6 6 0 0 0 5.7 4.13c-1.452 0-2.658-2.049-2.939-4.784z" fill="#a07050"/><path d="m50.937 48.227a5.961 5.961 0 0 1 -2.937.773v4c1.45 0 2.655-2.044 2.937-4.773z" fill="#a07050"/><path d="m45.061 48.216c.281 2.735 1.487 4.784 2.939 4.784v-4a5.953 5.953 0 0 1 -2.939-.784z" fill="#b48160"/><path d="m50.937 48.227c-.282 2.729-1.487 4.773-2.937 4.773a6 6 0 0 0 6-6 11.68 11.68 0 0 0 -.273-2.209 6.022 6.022 0 0 1 -2.79 3.436z" fill="#b48160"/><path d="m49 17.64a20.54 20.54 0 0 1 -4 .36 20.54 20.54 0 0 1 -4-.36c-1.82-.36-3-.96-3-1.64v2c0 .68 1.18 1.28 3 1.64a20.54 20.54 0 0 0 4 .36 20.54 20.54 0 0 0 4-.36c1.82-.36 3-.96 3-1.64v-2c0 .68-1.18 1.28-3 1.64z" fill="#f3d2ae"/><path d="m42.11 48.11-.11.02a8.506 8.506 0 0 1 -2.936-3.053c-.035-.057-.07-.114-.1-.173a5.992 5.992 0 0 1 -4.643-3.993 17 17 0 0 0 1.179 4.429 6.462 6.462 0 0 0 4.168 3.408 6.742 6.742 0 0 0 2.332.232l.3-.11a4.969 4.969 0 0 1 -.19-.76z" fill="#a07050"/><path d="m41.807 36.89a18.572 18.572 0 0 0 -1.037 2.13c-.183.433-.351.875-.511 1.319l1.741 3.661.42.11a26.772 26.772 0 0 1 1.35-4.09l-.04-.02a32.242 32.242 0 0 0 -1.923-3.11z" fill="#a07050"/><path d="m42.42 44.11-.42-.11-1.741-3.661a26.367 26.367 0 0 0 -.839 2.771 17.265 17.265 0 0 0 -.338 1.813l-.123-.019c.035.059.07.116.1.173a8.506 8.506 0 0 0 2.941 3.053l.11-.02a5.8 5.8 0 0 1 -.11-1.11 13.264 13.264 0 0 1 .42-2.89z" fill="#b48160"/><path d="m41.807 36.89a32.242 32.242 0 0 1 1.923 3.11l.04.02a16.42 16.42 0 0 1 1.57-2.99l-.04-.03a29.238 29.238 0 0 0 -2.021-2.122 7.665 7.665 0 0 0 -.939 1.152c-.184.27-.36.558-.533.86z" fill="#b48160"/><path d="m38 58a6 6 0 0 1 -6-6v-31h-5v42h36v-5z" fill="#f3d2ae"/><path d="m38.234 7h21.266l-.5-2h-28l-4 16h5l2.322-10.838a4 4 0 0 1 3.912-3.162z" fill="#ffe4c6"/><path d="m35 1a2 2 0 0 0 2 2h22v2h-28v-4z" fill="#ffbd50"/><path d="m3 63h20l.23-3h-20.46z" fill="#e0dbd3"/><path d="m5.095 37h-4.095l.31 4h4.166z" fill="#e0dbd3"/><path d="m6.655 53.379-1.179-12.379h-4.166l1.46 19h20.46l.231-3h-12.824a4 4 0 0 1 -3.982-3.621z" fill="#ffe7c9"/><ellipse cx="19.684" cy="44.695" fill="#f7fafd" rx="1.642" ry="2.286" transform="matrix(.707 -.707 .707 .707 -25.845 27.025)"/><ellipse cx="19.682" cy="48.708" fill="#f7fafd" rx=".825" ry="1.148" transform="matrix(.707 -.707 .707 .707 -28.684 28.2)"/><rect fill="#ff9b3a" height="2" rx="1" width="18" x="36" y="3"/><rect fill="#ff9b3a" height="1.953" rx=".977" width="3" x="55.102" y="3.031"/><rect fill="#fff0e0" height="2" rx="1" transform="matrix(0 -1 1 0 27 95)" width="10" x="56" y="33"/><rect fill="#fff0e0" height="2" rx="1" transform="matrix(0 -1 1 0 35 87)" width="3" x="59.5" y="25"/><ellipse cx="57.684" cy="17.695" fill="#f7fafd" rx="1.642" ry="2.286" transform="matrix(.707 -.707 .707 .707 4.393 45.99)"/><ellipse cx="57.682" cy="13.708" fill="#f7fafd" rx=".825" ry="1.148" transform="matrix(.707 -.707 .707 .707 7.212 44.819)"/><ellipse cx="11.427" cy="22.208" fill="#f7fafd" rx=".413" ry=".574" transform="matrix(.707 -.707 .707 .707 -12.359 14.593)"/><ellipse cx="19.427" cy="10.208" fill="#f7fafd" rx=".413" ry=".574" transform="matrix(.707 -.707 .707 .707 -1.526 16.734)"/></g></svg>