<svg height="512" viewBox="0 0 64 64" width="512" xmlns="http://www.w3.org/2000/svg"><g id="_04-bean_oat_meal" data-name="04-bean,oat meal"><circle cx="46" cy="45.999" fill="#8a5a3d" r="14"/><path d="m46 60a14 14 0 1 0 -14-14 14 14 0 0 0 14 14zm3-30.719a17 17 0 1 1 -6 0v-8.281a25.508 25.508 0 0 0 -2.42-11.42 6 6 0 1 1 11.35-3.539 6.084 6.084 0 0 1 -.38 3.249 31.392 31.392 0 0 0 -2.55 11.71zm-1-22.281a2 2 0 1 0 -2 2 2.006 2.006 0 0 0 2-2z" fill="#f7d5a9"/><path d="m46 32a14 14 0 1 0 14 14 14 14 0 0 0 -14-14zm0 27a13 13 0 1 1 13-13 13 13 0 0 1 -13 13z" fill="#744924"/><path d="m46 31a15 15 0 1 0 15 15 15 15 0 0 0 -15-15zm0 29a14 14 0 1 1 14-14 14 14 0 0 1 -14 14z" fill="#dbb27d"/><path d="m48 7a2.006 2.006 0 0 1 -2 2v20a17.005 17.005 0 0 1 3.005.282h-.005v-8.282a31.392 31.392 0 0 1 2.55-11.71 6 6 0 0 0 -4.82-8.249 6.214 6.214 0 0 0 -.73-.041v4a2.006 2.006 0 0 1 2 2z" fill="#ffe6c6"/><circle cx="18" cy="18" fill="#8a5a3d" r="14"/><path d="m32 18a14 14 0 1 0 -14 14 14 14 0 0 0 14-14zm-14-17a16.992 16.992 0 0 1 3 33.718v8.282a25.5 25.5 0 0 0 2.42 11.419 6 6 0 1 1 -11.35 3.54 6.087 6.087 0 0 1 .38-3.25 31.387 31.387 0 0 0 2.55-11.709v-8.28a16.992 16.992 0 0 1 3-33.72zm2 56a2 2 0 1 0 -2 2 2.006 2.006 0 0 0 2-2z" fill="#f7d5a9"/><path d="m18 4a14 14 0 1 0 14 14 14 14 0 0 0 -14-14zm0 27a13 13 0 1 1 13-13 13 13 0 0 1 -13 13z" fill="#744924"/><path d="m18 3a15 15 0 1 0 15 15 15 15 0 0 0 -15-15zm0 29a14 14 0 1 1 14-14 14 14 0 0 1 -14 14z" fill="#dbb27d"/><path d="m21.005 34.718a17.005 17.005 0 0 1 -3.005.282v20a2 2 0 0 1 0 4v4a6 6 0 0 0 5.42-8.579 25.5 25.5 0 0 1 -2.42-11.421v-8.28z" fill="#ffe6c6"/><circle cx="46" cy="7.001" fill="#f7fafd" r="2"/><circle cx="18" cy="56.998" fill="#f7fafd" r="2"/><g fill="#ffe4c6"><ellipse cx="39" cy="53.998" rx="1.57" ry="2.348" transform="matrix(.707 -.707 .707 .707 -26.76 43.397)"/><ellipse cx="55" cy="46.999" rx="1.57" ry="2.348" transform="matrix(.707 -.707 .707 .707 -17.124 52.661)"/><ellipse cx="52" cy="52.998" rx="2.348" ry="1.57" transform="matrix(.707 -.707 .707 .707 -22.245 52.288)"/><ellipse cx="46" cy="55.998" rx="1.57" ry="2.348" transform="matrix(.707 -.707 .707 .707 -26.124 48.933)"/><ellipse cx="48" cy="48.999" rx="2.348" ry="1.57" transform="matrix(.707 -.707 .707 .707 -20.588 48.288)"/><ellipse cx="42" cy="48.499" rx="2" ry="2.5"/><ellipse cx="36" cy="46.999" rx="2.348" ry="1.57" transform="matrix(.707 -.707 .707 .707 -22.688 39.218)"/><ellipse cx="46" cy="42.499" rx="2" ry="2.5"/><ellipse cx="40" cy="41.999" rx="2.348" ry="1.57" transform="matrix(.707 -.707 .707 .707 -17.982 40.582)"/><ellipse cx="53" cy="40.999" rx="2.348" ry="1.57" transform="matrix(.707 -.707 .707 .707 -13.468 49.481)"/><ellipse cx="42" cy="35.999" rx="2.348" ry="1.57" transform="matrix(.707 -.707 .707 .707 -13.154 40.239)"/><ellipse cx="48" cy="35.999" rx="1.57" ry="2.348" transform="matrix(.707 -.707 .707 .707 -11.396 44.489)"/></g><path d="m22.83 14.17a.86.86 0 0 1 .17-1.17l2-2a.86.86 0 0 1 1.17-.17l.5.5a1.71 1.71 0 0 1 -.34 2.34l-.66.66a1.71 1.71 0 0 1 -2.34.34z" fill="#ffd15f"/><path d="m24.33 13.67-.5-.5a.86.86 0 0 1 .17-1.17l-1 1a.86.86 0 0 0 -.17 1.17l.5.5a1.71 1.71 0 0 0 2.34-.34l.66-.66a2.235 2.235 0 0 0 .157-.183 1.635 1.635 0 0 1 -2.157.183z" fill="#fead4d"/><path d="m11.83 10.17a.86.86 0 0 1 .17-1.17l2-2a.86.86 0 0 1 1.17-.17l.5.5a1.71 1.71 0 0 1 -.34 2.34l-.66.66a1.71 1.71 0 0 1 -2.34.34z" fill="#ffd15f"/><path d="m13.33 9.67-.5-.5a.86.86 0 0 1 .17-1.17l-1 1a.86.86 0 0 0 -.17 1.17l.5.5a1.71 1.71 0 0 0 2.34-.34l.66-.66a2.235 2.235 0 0 0 .157-.183 1.635 1.635 0 0 1 -2.157.183z" fill="#fead4d"/><path d="m23.83 25.17a.86.86 0 0 1 .17-1.17l2-2a.86.86 0 0 1 1.17-.17l.5.5a1.71 1.71 0 0 1 -.34 2.34l-.66.66a1.71 1.71 0 0 1 -2.34.34z" fill="#ffd15f"/><path d="m25.33 24.67-.5-.5a.86.86 0 0 1 .17-1.17l-1 1a.86.86 0 0 0 -.17 1.17l.5.5a1.71 1.71 0 0 0 2.34-.34l.66-.66c.058-.059.107-.122.157-.183a1.638 1.638 0 0 1 -2.157.183z" fill="#fead4d"/><path d="m7.83 24.17a.86.86 0 0 1 .17-1.17l2-2a.86.86 0 0 1 1.17-.17l.5.5a1.71 1.71 0 0 1 -.34 2.34l-.66.66a1.71 1.71 0 0 1 -2.34.34z" fill="#ffd15f"/><path d="m9.33 23.67-.5-.5a.86.86 0 0 1 .17-1.17l-1 1a.86.86 0 0 0 -.17 1.17l.5.5a1.71 1.71 0 0 0 2.34-.34l.66-.66c.058-.059.107-.121.157-.183a1.638 1.638 0 0 1 -2.157.183z" fill="#fead4d"/><path d="m9.17 17.838a.86.86 0 0 1 -1.17-.17l-2-2a.86.86 0 0 1 -.17-1.17l.5-.5a1.71 1.71 0 0 1 2.34.34l.66.66a1.71 1.71 0 0 1 .34 2.34z" fill="#ffd15f"/><path d="m8.67 16.338-.5.5a.86.86 0 0 1 -1.17-.17l1 1a.86.86 0 0 0 1.17.17l.5-.5a1.71 1.71 0 0 0 -.34-2.338l-.66-.66c-.058-.058-.121-.107-.183-.158a1.637 1.637 0 0 1 .183 2.156z" fill="#fead4d"/><path d="m15.33 23.33a1.71 1.71 0 0 1 .34 2.34l-.5.5a.86.86 0 0 1 -1.17-.17l-2-2a.86.86 0 0 1 -.17-1.17l.5-.5a1.71 1.71 0 0 1 2.34.34z" fill="#ffd15f"/><path d="m14 26a.86.86 0 0 1 .17 1.17l-.5.5a1.71 1.71 0 0 1 -2.34-.34l-.66-.66a1.71 1.71 0 0 1 -.34-2.34l.5-.5a.86.86 0 0 1 1.17.17z" fill="#ffe16e"/><path d="m15.33 23.33-.66-.66c-.058-.058-.121-.106-.183-.157a1.635 1.635 0 0 1 .183 2.157l-.5.5a.86.86 0 0 1 -1.17-.17l1 1a.86.86 0 0 0 1.17.17l.5-.5a1.71 1.71 0 0 0 -.34-2.34z" fill="#fead4d"/><path d="m13.17 26.17-.5.5a1.639 1.639 0 0 1 -2.158-.183c.051.061.1.124.158.183l.66.66a1.71 1.71 0 0 0 2.34.34l.5-.5a.86.86 0 0 0 -.17-1.17l-1-1a.86.86 0 0 1 .17 1.17z" fill="#ffd15f"/><path d="m16.33 24.67a1.71 1.71 0 0 1 .34-2.34l.66-.66a1.71 1.71 0 0 1 2.34-.34l.5.5a.86.86 0 0 1 -.17 1.17l-2 2a.86.86 0 0 1 -1.17.17z" fill="#ffe16e"/><path d="m17.83 24.17-.5-.5a1.636 1.636 0 0 1 .182-2.157c-.061.051-.124.1-.182.157l-.66.66a1.71 1.71 0 0 0 -.34 2.34l.5.5a.86.86 0 0 0 1.17-.17l1-1a.86.86 0 0 1 -1.17.17z" fill="#ffd15f"/><path d="m15.17 16.83a.86.86 0 0 1 -.17 1.17l-2 2a.86.86 0 0 1 -1.17.17l-.5-.5a1.71 1.71 0 0 1 .34-2.34l.66-.66a1.71 1.71 0 0 1 2.34-.34z" fill="#ffd15f"/><path d="m16.67 18.33a1.71 1.71 0 0 1 -.34 2.34l-.66.66a1.71 1.71 0 0 1 -2.34.34l-.5-.5a.86.86 0 0 1 .17-1.17l2-2a.86.86 0 0 1 1.17-.17z" fill="#ffe16e"/><path d="m12.83 19.17-.5-.5a1.636 1.636 0 0 1 .182-2.157c-.061.051-.124.1-.182.157l-.66.66a1.71 1.71 0 0 0 -.34 2.34l.5.5a.86.86 0 0 0 1.17-.17l1-1a.86.86 0 0 1 -1.17.17z" fill="#fead4d"/><path d="m14.33 20.67-.5-.5a.86.86 0 0 1 .17-1.17l-1 1a.86.86 0 0 0 -.17 1.17l.5.5a1.71 1.71 0 0 0 2.34-.34l.66-.66a2.235 2.235 0 0 0 .157-.183 1.635 1.635 0 0 1 -2.157.183z" fill="#ffd15f"/><path d="m23.17 7.83a.86.86 0 0 1 -.17 1.17l-2 2a.86.86 0 0 1 -1.17.17l-.5-.5a1.71 1.71 0 0 1 .34-2.34l.66-.66a1.712 1.712 0 0 1 2.34-.34z" fill="#ffd15f"/><path d="m24.67 9.33a1.71 1.71 0 0 1 -.34 2.34l-.66.66a1.71 1.71 0 0 1 -2.34.34l-.5-.5a.86.86 0 0 1 .17-1.17l2-2a.86.86 0 0 1 1.17-.17z" fill="#ffe16e"/><path d="m20.83 10.17-.5-.5a1.636 1.636 0 0 1 .182-2.157c-.061.051-.124.1-.182.157l-.66.66a1.71 1.71 0 0 0 -.34 2.34l.5.5a.86.86 0 0 0 1.17-.17l1-1a.86.86 0 0 1 -1.17.17z" fill="#fead4d"/><path d="m22.33 11.67-.5-.5a.86.86 0 0 1 .17-1.17l-1 1a.86.86 0 0 0 -.17 1.17l.5.5a1.71 1.71 0 0 0 2.34-.34l.66-.66a2.235 2.235 0 0 0 .157-.183 1.635 1.635 0 0 1 -2.157.183z" fill="#ffd15f"/><path d="m17.17 24.83a.86.86 0 0 1 -.17 1.17l-2 2a.86.86 0 0 1 -1.17.17l-.5-.5a1.71 1.71 0 0 1 .34-2.34l.66-.66a1.71 1.71 0 0 1 2.34-.34z" fill="#ffd15f"/><path d="m18.67 26.33a1.71 1.71 0 0 1 -.34 2.34l-.66.659a1.71 1.71 0 0 1 -2.34.34l-.5-.5a.859.859 0 0 1 .17-1.169l2-2a.86.86 0 0 1 1.17-.17z" fill="#ffe16e"/><path d="m14.83 27.17-.5-.5a1.636 1.636 0 0 1 .182-2.157 2.2 2.2 0 0 0 -.182.157l-.66.66a1.71 1.71 0 0 0 -.34 2.34l.5.5a.86.86 0 0 0 1.17-.17l1-1a.86.86 0 0 1 -1.17.17z" fill="#fead4d"/><path d="m16.33 28.669-.5-.5a.86.86 0 0 1 .17-1.169l-1 1a.859.859 0 0 0 -.17 1.169l.5.5a1.71 1.71 0 0 0 2.34-.34l.66-.66a2.4 2.4 0 0 0 .157-.182 1.636 1.636 0 0 1 -2.157.182z" fill="#ffd15f"/><path d="m16 11v3c0 .55-.34 1-.75 1h-.75c-.83 0-1.5-.9-1.5-2v-1c0-1.1.67-2 1.5-2h.75c.41 0 .75.45.75 1z" fill="#ffd15f"/><path d="m16.75 15c-.41 0-.75-.45-.75-1v-3c0-.55.34-1 .75-1h.75c.83 0 1.5.9 1.5 2v1c0 1.1-.67 2-1.5 2z" fill="#ffe16e"/><path d="m15.25 14h-.75c-.83 0-1.5-.9-1.5-2v1c0 1.1.67 2 1.5 2h.75c.41 0 .75-.45.75-1v-1c0 .55-.34 1-.75 1z" fill="#fead4d"/><path d="m17.5 14h-.75c-.41 0-.75-.45-.75-1v1c0 .55.34 1 .75 1h.75c.83 0 1.5-.9 1.5-2v-1c0 1.1-.67 2-1.5 2z" fill="#ffd15f"/><path d="m25 21v1c0 1.1-.67 2-1.5 2h-.75c-.41 0-.75-.45-.75-1v-3c0-.55.34-1 .75-1h.75c.83 0 1.5.9 1.5 2z" fill="#ffd15f"/><path d="m19 21c0-1.1.67-2 1.5-2h.75c.41 0 .75.45.75 1v3c0 .55-.34 1-.75 1h-.75c-.83 0-1.5-.9-1.5-2z" fill="#ffe16e"/><path d="m22.75 23h.75c.83 0 1.5-.9 1.5-2v1c0 1.1-.67 2-1.5 2h-.75c-.41 0-.75-.45-.75-1v-1c0 .55.34 1 .75 1z" fill="#fead4d"/><path d="m20.5 23h.75c.41 0 .75-.45.75-1v1c0 .55-.34 1-.75 1h-.75c-.83 0-1.5-.9-1.5-2v-1c0 1.1.67 2 1.5 2z" fill="#ffd15f"/><path d="m23 16c.55 0 1 .34 1 .75v.75c0 .83-.9 1.5-2 1.5h-1c-1.1 0-2-.67-2-1.5v-.75c0-.41.45-.75 1-.75z" fill="#ffd15f"/><path d="m23 16h-3c-.55 0-1-.34-1-.75v-.75c0-.83.9-1.5 2-1.5h1c1.1 0 2 .67 2 1.5v.75c0 .41-.45.75-1 .75z" fill="#ffe16e"/><path d="m20 16.75v.75c0 .83.9 1.5 2 1.5h-1c-1.1 0-2-.67-2-1.5v-.75c0-.41.45-.75 1-.75h1c-.55 0-1 .34-1 .75z" fill="#fead4d"/><path d="m20 14.5v.75c0 .41.45.75 1 .75h-1c-.55 0-1-.34-1-.75v-.75c0-.83.9-1.5 2-1.5h1c-1.1 0-2 .67-2 1.5z" fill="#ffd15f"/><path d="m29.67 18.33a1.71 1.71 0 0 1 -.34 2.34l-.66.66a1.71 1.71 0 0 1 -2.34.34l-.5-.5a.86.86 0 0 1 .17-1.17l2-2a.86.86 0 0 1 1.17-.17z" fill="#ffd15f"/><path d="m24.33 19.67a1.71 1.71 0 0 1 .34-2.34l.66-.66a1.71 1.71 0 0 1 2.34-.34l.5.5a.86.86 0 0 1 -.17 1.17l-2 2a.86.86 0 0 1 -1.17.17z" fill="#ffe16e"/><path d="m25.83 19.17-.5-.5a1.636 1.636 0 0 1 .182-2.157c-.061.051-.124.1-.182.157l-.66.66a1.71 1.71 0 0 0 -.34 2.34l.5.5a.86.86 0 0 0 1.17-.17l1-1a.86.86 0 0 1 -1.17.17z" fill="#ffd15f"/><path d="m27.33 20.67-.5-.5a.86.86 0 0 1 .17-1.17l-1 1a.86.86 0 0 0 -.17 1.17l.5.5a1.71 1.71 0 0 0 2.34-.34l.66-.66a2.235 2.235 0 0 0 .157-.183 1.635 1.635 0 0 1 -2.157.183z" fill="#fead4d"/><path d="m49.11 34.889c-.92-.92-2.16-1.17-2.77-.55l3.32 3.32c.62-.61.37-1.85-.55-2.77z" fill="#f3d2ae"/><path d="m46.89 37.109c.92.92 2.16 1.17 2.77.55l-3.32-3.32c-.62.61-.37 1.85.55 2.77z" fill="#eabb90"/><path d="m38.11 41.889c-.92-.92-2.16-1.17-2.77-.55l3.32 3.32c.62-.61.37-1.85-.55-2.77z" fill="#f3d2ae"/><path d="m35.89 44.109c.92.92 2.16 1.17 2.77.55l-3.32-3.32c-.62.61-.37 1.85.55 2.77z" fill="#eabb90"/><path d="m48.11 51.888c-.92-.92-2.16-1.17-2.77-.55l3.32 3.319c.62-.609.37-1.849-.55-2.769z" fill="#f3d2ae"/><path d="m45.89 54.108c.92.92 2.16 1.17 2.77.55l-3.32-3.319c-.62.61-.37 1.849.55 2.769z" fill="#eabb90"/><path d="m47.11 54.888c-.92-.92-2.16-1.17-2.77-.55l3.32 3.32c.62-.61.37-1.85-.55-2.77z" fill="#f3d2ae"/><path d="m44.89 57.108c.92.92 2.16 1.17 2.77.55l-3.32-3.32c-.62.61-.37 1.85.55 2.77z" fill="#eabb90"/><path d="m51.11 49.889c-.92-.92-2.16-1.17-2.77-.55l3.32 3.319c.62-.61.37-1.85-.55-2.769z" fill="#f3d2ae"/><path d="m48.89 52.108c.92.92 2.16 1.17 2.77.55l-3.32-3.319c-.62.61-.37 1.849.55 2.769z" fill="#eabb90"/><path d="m56.11 42.889c-.92-.92-2.16-1.17-2.77-.55l3.32 3.32c.62-.61.37-1.85-.55-2.77z" fill="#f3d2ae"/><path d="m53.89 45.109c.92.92 2.16 1.17 2.77.55l-3.32-3.32c-.62.61-.37 1.85.55 2.77z" fill="#eabb90"/><path d="m49.11 38.889c-.92-.92-2.16-1.17-2.77-.55l3.32 3.32c.62-.61.37-1.85-.55-2.77z" fill="#f3d2ae"/><path d="m46.89 41.109c.92.92 2.16 1.17 2.77.55l-3.32-3.32c-.62.61-.37 1.85.55 2.77z" fill="#eabb90"/><path d="m53.11 35.889c-.92-.92-2.16-1.17-2.77-.55l3.32 3.32c.62-.61.37-1.85-.55-2.77z" fill="#f3d2ae"/><path d="m50.89 38.109c.92.92 2.16 1.17 2.77.55l-3.32-3.32c-.62.61-.37 1.85.55 2.77z" fill="#eabb90"/><path d="m40.11 52.888c-.92-.92-2.16-1.17-2.77-.55l3.32 3.32c.62-.61.37-1.85-.55-2.77z" fill="#f3d2ae"/><path d="m37.89 55.108c.92.92 2.16 1.17 2.77.55l-3.32-3.32c-.62.61-.37 1.85.55 2.77z" fill="#eabb90"/><path d="m34.89 45.889c.92-.92 2.16-1.17 2.77-.55l-3.32 3.32c-.62-.61-.37-1.85.55-2.77z" fill="#f3d2ae"/><path d="m37.11 48.109c-.92.92-2.16 1.17-2.77.55l3.32-3.32c.62.61.37 1.85-.55 2.77z" fill="#eabb90"/><path d="m38.89 44.889c.92-.92 2.16-1.17 2.77-.55l-3.32 3.32c-.62-.61-.37-1.85.55-2.77z" fill="#f3d2ae"/><path d="m41.11 47.109c-.92.92-2.16 1.17-2.77.55l3.32-3.32c.62.61.37 1.85-.55 2.77z" fill="#eabb90"/><path d="m44.89 44.889c.92-.92 2.16-1.17 2.77-.55l-3.32 3.32c-.62-.61-.37-1.85.55-2.77z" fill="#f3d2ae"/><path d="m47.11 47.109c-.92.92-2.16 1.17-2.77.55l3.32-3.32c.62.61.37 1.85-.55 2.77z" fill="#eabb90"/><path d="m48.89 40.889c.92-.92 2.16-1.17 2.77-.55l-3.32 3.32c-.62-.61-.37-1.85.55-2.77z" fill="#f3d2ae"/><path d="m51.11 43.109c-.92.92-2.16 1.17-2.77.55l3.32-3.32c.62.61.37 1.85-.55 2.77z" fill="#eabb90"/><path d="m41.89 51.888c.92-.92 2.16-1.17 2.77-.55l-3.32 3.319c-.62-.609-.37-1.849.55-2.769z" fill="#f3d2ae"/><path d="m44.11 54.108c-.92.92-2.16 1.17-2.77.55l3.32-3.319c.62.61.37 1.849-.55 2.769z" fill="#eabb90"/><path d="m48.89 54.888c.92-.92 2.16-1.17 2.77-.55l-3.32 3.32c-.62-.61-.37-1.85.55-2.77z" fill="#f3d2ae"/><path d="m51.11 57.108c-.92.92-2.16 1.17-2.77.55l3.32-3.32c.62.61.37 1.85-.55 2.77z" fill="#eabb90"/><path d="m54.89 49.889c.92-.92 2.16-1.17 2.77-.55l-3.32 3.319c-.62-.61-.37-1.85.55-2.769z" fill="#f3d2ae"/><path d="m57.11 52.108c-.92.92-2.16 1.17-2.77.55l3.32-3.319c.62.61.37 1.849-.55 2.769z" fill="#eabb90"/><path d="m50.89 51.888c.92-.92 2.16-1.17 2.77-.55l-3.32 3.319c-.62-.609-.37-1.849.55-2.769z" fill="#f3d2ae"/><path d="m53.11 54.108c-.92.92-2.16 1.17-2.77.55l3.32-3.319c.62.61.37 1.849-.55 2.769z" fill="#eabb90"/><path d="m51.89 39.889c.92-.92 2.16-1.17 2.77-.55l-3.32 3.32c-.62-.61-.37-1.85.55-2.77z" fill="#f3d2ae"/><path d="m54.11 42.109c-.92.92-2.16 1.17-2.77.55l3.32-3.32c.62.61.37 1.85-.55 2.77z" fill="#eabb90"/><path d="m43.89 47.889c.92-.92 2.16-1.17 2.77-.55l-3.32 3.319c-.62-.609-.37-1.849.55-2.769z" fill="#f3d2ae"/><path d="m46.11 50.109c-.92.919-2.16 1.169-2.77.549l3.32-3.319c.62.61.37 1.85-.55 2.77z" fill="#eabb90"/><path d="m38.89 40.889c.92-.92 2.16-1.17 2.77-.55l-3.32 3.32c-.62-.61-.37-1.85.55-2.77z" fill="#f3d2ae"/><path d="m41.11 43.109c-.92.92-2.16 1.17-2.77.55l3.32-3.32c.62.61.37 1.85-.55 2.77z" fill="#eabb90"/><path d="m37.89 37.889c.92-.92 2.16-1.17 2.77-.55l-3.32 3.32c-.62-.61-.37-1.85.55-2.77z" fill="#f3d2ae"/><path d="m40.11 40.109c-.92.92-2.16 1.17-2.77.55l3.32-3.32c.62.61.37 1.85-.55 2.77z" fill="#eabb90"/><path d="m42.89 37.889c.92-.92 2.16-1.17 2.77-.55l-3.32 3.32c-.62-.61-.37-1.85.55-2.77z" fill="#f3d2ae"/><path d="m45.11 40.109c-.92.92-2.16 1.17-2.77.55l3.32-3.32c.62.61.37 1.85-.55 2.77z" fill="#eabb90"/><path d="m40.89 34.889c.92-.92 2.16-1.17 2.77-.55l-3.32 3.32c-.62-.61-.37-1.85.55-2.77z" fill="#f3d2ae"/><path d="m43.11 37.109c-.92.92-2.16 1.17-2.77.55l3.32-3.32c.62.61.37 1.85-.55 2.77z" fill="#eabb90"/><path d="m40 48.5a2.3 2.3 0 0 0 2 2.5v-5a2.3 2.3 0 0 0 -2 2.5z" fill="#eabb90"/><path d="m42 46v5a2.562 2.562 0 0 0 0-5z" fill="#f3d2ae"/><path d="m37 49.5a2.3 2.3 0 0 0 2 2.5v-5a2.3 2.3 0 0 0 -2 2.5z" fill="#eabb90"/><path d="m39 47v5a2.562 2.562 0 0 0 0-5z" fill="#f3d2ae"/><path d="m44 42.5a2.3 2.3 0 0 0 2 2.5v-5a2.3 2.3 0 0 0 -2 2.5z" fill="#eabb90"/><path d="m46 40v5a2.3 2.3 0 0 0 2-2.5 2.3 2.3 0 0 0 -2-2.5z" fill="#f3d2ae"/><path d="m49 45.5a2.3 2.3 0 0 0 2 2.5v-5a2.3 2.3 0 0 0 -2 2.5z" fill="#eabb90"/><path d="m51 43v5a2.562 2.562 0 0 0 0-5z" fill="#f3d2ae"/><path d="m54 41.5a2.3 2.3 0 0 0 2 2.5v-5a2.3 2.3 0 0 0 -2 2.5z" fill="#eabb90"/><path d="m56 39v5a2.3 2.3 0 0 0 2-2.5 2.3 2.3 0 0 0 -2-2.5z" fill="#f3d2ae"/><path d="m41 43.5a2.3 2.3 0 0 0 2 2.5v-5a2.3 2.3 0 0 0 -2 2.5z" fill="#eabb90"/><path d="m43 41v5a2.3 2.3 0 0 0 2-2.5 2.3 2.3 0 0 0 -2-2.5z" fill="#f3d2ae"/><path d="m51 49.5a2.3 2.3 0 0 0 2 2.5v-5a2.3 2.3 0 0 0 -2 2.5z" fill="#eabb90"/><path d="m53 47v5a2.562 2.562 0 0 0 0-5z" fill="#f3d2ae"/><path d="m49.11 34.889c-.92-.92-2.16-1.17-2.77-.55l3.32 3.32c.62-.61.37-1.85-.55-2.77z" fill="#ffe4c6"/><path d="m46.89 37.109c.92.92 2.16 1.17 2.77.55l-3.32-3.32c-.62.61-.37 1.85.55 2.77z" fill="#f7d5a9"/><path d="m56.11 45.889c-.92-.92-2.16-1.17-2.77-.55l3.32 3.32c.62-.61.37-1.85-.55-2.77z" fill="#ffe4c6"/><path d="m53.89 48.109c.92.92 2.16 1.17 2.77.55l-3.32-3.32c-.62.61-.37 1.85.55 2.77z" fill="#f7d5a9"/><path d="m47.11 54.888c-.92-.92-2.16-1.17-2.77-.55l3.32 3.32c.62-.61.37-1.85-.55-2.77z" fill="#ffe4c6"/><path d="m44.89 57.108c.92.92 2.16 1.17 2.77.55l-3.32-3.32c-.62.61-.37 1.85.55 2.77z" fill="#f7d5a9"/><path d="m40.11 52.888c-.92-.92-2.16-1.17-2.77-.55l3.32 3.32c.62-.61.37-1.85-.55-2.77z" fill="#ffe4c6"/><path d="m37.89 55.108c.92.92 2.16 1.17 2.77.55l-3.32-3.32c-.62.61-.37 1.85.55 2.77z" fill="#f7d5a9"/><path d="m34.89 45.889c.92-.92 2.16-1.17 2.77-.55l-3.32 3.32c-.62-.61-.37-1.85.55-2.77z" fill="#ffe4c6"/><path d="m37.11 48.109c-.92.92-2.16 1.17-2.77.55l3.32-3.32c.62.61.37 1.85-.55 2.77z" fill="#f7d5a9"/><path d="m46.89 47.889c.92-.92 2.16-1.17 2.77-.55l-3.32 3.319c-.62-.609-.37-1.849.55-2.769z" fill="#ffe4c6"/><path d="m49.11 50.109c-.92.919-2.16 1.169-2.77.549l3.32-3.319c.62.61.37 1.85-.55 2.77z" fill="#f7d5a9"/><path d="m50.89 51.888c.92-.92 2.16-1.17 2.77-.55l-3.32 3.319c-.62-.609-.37-1.849.55-2.769z" fill="#ffe4c6"/><path d="m53.11 54.108c-.92.92-2.16 1.17-2.77.55l3.32-3.319c.62.61.37 1.849-.55 2.769z" fill="#f7d5a9"/><path d="m51.89 39.889c.92-.92 2.16-1.17 2.77-.55l-3.32 3.32c-.62-.61-.37-1.85.55-2.77z" fill="#ffe4c6"/><path d="m54.11 42.109c-.92.92-2.16 1.17-2.77.55l3.32-3.32c.62.61.37 1.85-.55 2.77z" fill="#f7d5a9"/><path d="m38.89 40.889c.92-.92 2.16-1.17 2.77-.55l-3.32 3.32c-.62-.61-.37-1.85.55-2.77z" fill="#ffe4c6"/><path d="m41.11 43.109c-.92.92-2.16 1.17-2.77.55l3.32-3.32c.62.61.37 1.85-.55 2.77z" fill="#f7d5a9"/><path d="m40.89 34.889c.92-.92 2.16-1.17 2.77-.55l-3.32 3.32c-.62-.61-.37-1.85.55-2.77z" fill="#ffe4c6"/><path d="m43.11 37.109c-.92.92-2.16 1.17-2.77.55l3.32-3.32c.62.61.37 1.85-.55 2.77z" fill="#f7d5a9"/><path d="m40 48.5a2.3 2.3 0 0 0 2 2.5v-5a2.3 2.3 0 0 0 -2 2.5z" fill="#f7d5a9"/><path d="m42 46v5a2.562 2.562 0 0 0 0-5z" fill="#ffe4c6"/><path d="m44 42.5a2.3 2.3 0 0 0 2 2.5v-5a2.3 2.3 0 0 0 -2 2.5z" fill="#f7d5a9"/><path d="m46 40v5a2.3 2.3 0 0 0 2-2.5 2.3 2.3 0 0 0 -2-2.5z" fill="#ffe4c6"/><path d="m22.83 14.17a.86.86 0 0 1 .17-1.17l2-2a.86.86 0 0 1 1.17-.17l.5.5a1.71 1.71 0 0 1 -.34 2.34l-.66.66a1.71 1.71 0 0 1 -2.34.34z" fill="#ffe16e"/><path d="m24.33 13.67-.5-.5a.86.86 0 0 1 .17-1.17l-1 1a.86.86 0 0 0 -.17 1.17l.5.5a1.71 1.71 0 0 0 2.34-.34l.66-.66a2.235 2.235 0 0 0 .157-.183 1.635 1.635 0 0 1 -2.157.183z" fill="#ffd15f"/><path d="m15.33 23.33a1.71 1.71 0 0 1 .34 2.34l-.5.5a.86.86 0 0 1 -1.17-.17l-2-2a.86.86 0 0 1 -.17-1.17l.5-.5a1.71 1.71 0 0 1 2.34.34z" fill="#ffe16e"/><path d="m14 26a.86.86 0 0 1 .17 1.17l-.5.5a1.71 1.71 0 0 1 -2.34-.34l-.66-.66a1.71 1.71 0 0 1 -.34-2.34l.5-.5a.86.86 0 0 1 1.17.17z" fill="#fff6b7"/><path d="m15.33 23.33-.66-.66c-.058-.058-.121-.106-.183-.157a1.635 1.635 0 0 1 .183 2.157l-.5.5a.86.86 0 0 1 -1.17-.17l1 1a.86.86 0 0 0 1.17.17l.5-.5a1.71 1.71 0 0 0 -.34-2.34z" fill="#ffd15f"/><path d="m13.17 26.17-.5.5a1.638 1.638 0 0 1 -2.157-.183c.05.061.1.124.157.183l.66.66a1.71 1.71 0 0 0 2.34.34l.5-.5a.86.86 0 0 0 -.17-1.17l-1-1a.86.86 0 0 1 .17 1.17z" fill="#ffe16e"/><path d="m7.33 21.67a1.71 1.71 0 0 1 .34-2.34l.66-.66a1.71 1.71 0 0 1 2.34-.34l.5.5a.86.86 0 0 1 -.17 1.17l-2 2a.86.86 0 0 1 -1.17.17z" fill="#fff6b7"/><path d="m8.83 21.17-.5-.5a1.635 1.635 0 0 1 .183-2.157c-.062.051-.125.1-.183.157l-.66.66a1.71 1.71 0 0 0 -.34 2.34l.5.5a.86.86 0 0 0 1.17-.17l1-1a.86.86 0 0 1 -1.17.17z" fill="#ffe16e"/><path d="m12.17 10.83a.86.86 0 0 1 -.17 1.17l-2 2a.86.86 0 0 1 -1.17.17l-.5-.5a1.71 1.71 0 0 1 .34-2.34l.66-.66a1.71 1.71 0 0 1 2.34-.34z" fill="#ffe16e"/><path d="m13.67 12.33a1.71 1.71 0 0 1 -.34 2.34l-.66.66a1.71 1.71 0 0 1 -2.34.34l-.5-.5a.86.86 0 0 1 .17-1.17l2-2a.86.86 0 0 1 1.17-.17z" fill="#fff6b7"/><path d="m9.83 13.17-.5-.5a1.635 1.635 0 0 1 .183-2.157c-.062.051-.125.1-.183.157l-.66.66a1.71 1.71 0 0 0 -.34 2.34l.5.5a.86.86 0 0 0 1.17-.17l1-1a.86.86 0 0 1 -1.17.17z" fill="#ffd15f"/><path d="m11.33 14.67-.5-.5a.86.86 0 0 1 .17-1.17l-1 1a.86.86 0 0 0 -.17 1.17l.5.5a1.71 1.71 0 0 0 2.34-.34l.66-.66a2.235 2.235 0 0 0 .157-.183 1.635 1.635 0 0 1 -2.157.183z" fill="#ffe16e"/><path d="m19 8v3c0 .55-.34 1-.75 1h-.75c-.83 0-1.5-.9-1.5-2v-1c0-1.1.67-2 1.5-2h.75c.41 0 .75.45.75 1z" fill="#ffe16e"/><path d="m19.75 12c-.41 0-.75-.45-.75-1v-3c0-.55.34-1 .75-1h.75c.83 0 1.5.9 1.5 2v1c0 1.1-.67 2-1.5 2z" fill="#fff6b7"/><path d="m18.25 11h-.75c-.83 0-1.5-.9-1.5-2v1c0 1.1.67 2 1.5 2h.75c.41 0 .75-.45.75-1v-1c0 .55-.34 1-.75 1z" fill="#ffd15f"/><path d="m20.5 11h-.75c-.41 0-.75-.45-.75-1v1c0 .55.34 1 .75 1h.75c.83 0 1.5-.9 1.5-2v-1c0 1.1-.67 2-1.5 2z" fill="#ffe16e"/><path d="m24 26v1c0 1.1-.67 2-1.5 2h-.75c-.41 0-.75-.449-.75-1v-3c0-.55.34-1 .75-1h.75c.83 0 1.5.9 1.5 2z" fill="#ffe16e"/><path d="m18 26c0-1.1.67-2 1.5-2h.75c.41 0 .75.45.75 1v3c0 .55-.34 1-.75 1h-.75c-.83 0-1.5-.9-1.5-2z" fill="#fff6b7"/><path d="m21.75 28h.75c.83 0 1.5-.9 1.5-2v1c0 1.1-.67 2-1.5 2h-.75c-.41 0-.75-.449-.75-1v-1c0 .55.34 1 .75 1z" fill="#ffd15f"/><path d="m19.5 28h.75c.41 0 .75-.45.75-1v1c0 .55-.34 1-.75 1h-.75c-.83 0-1.5-.9-1.5-2v-1c0 1.1.67 2 1.5 2z" fill="#ffe16e"/><path d="m19 18c.55 0 1 .34 1 .75v.75c0 .83-.9 1.5-2 1.5h-1c-1.1 0-2-.67-2-1.5v-.75c0-.41.45-.75 1-.75z" fill="#ffe16e"/><path d="m19 18h-3c-.55 0-1-.34-1-.75v-.75c0-.83.9-1.5 2-1.5h1c1.1 0 2 .67 2 1.5v.75c0 .41-.45.75-1 .75z" fill="#fff6b7"/><path d="m16 18.75v.75c0 .83.9 1.5 2 1.5h-1c-1.1 0-2-.67-2-1.5v-.75c0-.41.45-.75 1-.75h1c-.55 0-1 .34-1 .75z" fill="#ffd15f"/><path d="m16 16.5v.75c0 .41.45.75 1 .75h-1c-.55 0-1-.34-1-.75v-.75c0-.83.9-1.5 2-1.5h1c-1.1 0-2 .67-2 1.5z" fill="#ffe16e"/><path d="m29.67 18.33a1.71 1.71 0 0 1 -.34 2.34l-.66.66a1.71 1.71 0 0 1 -2.34.34l-.5-.5a.86.86 0 0 1 .17-1.17l2-2a.86.86 0 0 1 1.17-.17z" fill="#ffe16e"/><path d="m24.33 19.67a1.71 1.71 0 0 1 .34-2.34l.66-.66a1.71 1.71 0 0 1 2.34-.34l.5.5a.86.86 0 0 1 -.17 1.17l-2 2a.86.86 0 0 1 -1.17.17z" fill="#fff6b7"/><path d="m25.83 19.17-.5-.5a1.635 1.635 0 0 1 .183-2.157c-.062.051-.125.1-.183.157l-.66.66a1.71 1.71 0 0 0 -.34 2.34l.5.5a.86.86 0 0 0 1.17-.17l1-1a.86.86 0 0 1 -1.17.17z" fill="#ffe16e"/><path d="m27.33 20.67-.5-.5a.86.86 0 0 1 .17-1.17l-1 1a.86.86 0 0 0 -.17 1.17l.5.5a1.71 1.71 0 0 0 2.34-.34l.66-.66a2.235 2.235 0 0 0 .157-.183 1.635 1.635 0 0 1 -2.157.183z" fill="#ffd15f"/></g></svg>