<svg height="512" viewBox="0 0 64 64" width="512" xmlns="http://www.w3.org/2000/svg"><g id="_25-syrup" data-name="25-syrup"><path d="m62.312 1.69c1.14 1.14.83 3.3-.69 4.82l-10.331 8.96-2.76-2.76 8.961-10.33c1.52-1.52 3.68-1.83 4.82-.69z" fill="#77492d"/><path d="m56.002 39-2 4h-16.002l-2-4h5.001 4z" fill="#b48160"/><path d="m54 43 2 14a6 6 0 0 1 -6 6h-8a6 6 0 0 1 -6-6l2-14z" fill="#ffd15f"/><path d="m51.971 16.16a1.936 1.936 0 0 1 0 2.76 1.98 1.98 0 0 1 -.97.53v-1.45a3 3 0 0 0 -3-3h-.68a2.375 2.375 0 0 0 -1.49.53l-.75-.75a1.943 1.943 0 0 1 0-2.75 1.932 1.932 0 0 1 2.76 0z" fill="#dba26d"/><path d="m51 34.5v1a1.5 1.5 0 0 1 -3 0v-1a1.5 1.5 0 0 1 3 0z" fill="#ffd15f"/><path d="m45.831 15.53a2.375 2.375 0 0 1 1.49-.53h.679a3 3 0 0 1 3 3v11.5a1.5 1.5 0 1 1 -3 0v-2a1.5 1.5 0 0 0 -3 0v11.5h-4v-12.35a4.122 4.122 0 0 0 -.58-1.74 3.989 3.989 0 0 1 -.42-1.79v-1.12a1.991 1.991 0 0 1 2-2h1.32c.93 0 1.68-1.75 1.68-2.68a2.313 2.313 0 0 1 .68-1.64z" fill="#ffd15f"/><path d="m42.331 17.54a1.948 1.948 0 1 1 2.75-2.76l.75.75-.15.15a2.313 2.313 0 0 0 -.681 1.64c0 .93-.75 2.68-1.68 2.68h-1.32a2.021 2.021 0 0 0 -1.73.99l-.7-.7a1.948 1.948 0 0 1 2.76-2.75z" fill="#dba26d"/><path d="m10 13v-8h12v3h2a6.993 6.993 0 0 1 3.52 13.04 10.02 10.02 0 0 1 3.36 9.11l-4.88 32.85h-20l-4.882-32.85a10.033 10.033 0 0 1 4.1-9.72l3.11-2.23a3.991 3.991 0 0 0 1.672-3.25zm6 28s1 2 6 2l-1-4 4-2-2-1 2-3h-3v-2l-3 2v-5l-2 1-1-4-1 4-2-1v5l-3-2v2h-3l2 3-2 1 4 2-1 4c5 0 6-2 6-2zm6-28v1.95a3.991 3.991 0 0 0 1.67 3.25l1.02.73a3.993 3.993 0 1 0 -2.69-7.38z" fill="#ffd15f"/><path d="m28 15a4 4 0 0 1 -3.311 3.93l-1.02-.73a3.991 3.991 0 0 1 -1.669-3.25v-3.4a3.982 3.982 0 0 1 6 3.45z" fill="#fffbf4"/><path d="m25 33-2 3 2 1-4 2 1 4c-5 0-6-2-6-2v-16l1 4 2-1v5l3-2v2z" fill="#ff9b3a"/><path d="m23 1a2.006 2.006 0 0 1 2 2 1.955 1.955 0 0 1 -.59 1.41 1.955 1.955 0 0 1 -1.41.59h-14a2.006 2.006 0 0 1 -2-2 1.955 1.955 0 0 1 .59-1.41 1.955 1.955 0 0 1 1.41-.59z" fill="#d8d1c5"/><path d="m16 25v16s-1 2-6 2l1-4-4-2 2-1-2-3h3v-2l3 2v-5l2 1z" fill="#f5791b"/><path d="m22 11.55a3.95 3.95 0 0 1 5.445 1.45h3.262a7 7 0 0 0 -6.707-5h-2v-3h-12v8h12z" fill="#f7f4ec"/><path d="m49 27.5v-2a1.5 1.5 0 0 0 -3 0v.591a1.488 1.488 0 0 1 2 1.409v2a1.5 1.5 0 1 0 3 0v-.591a1.488 1.488 0 0 1 -2-1.409z" fill="#ffbd50"/><path d="m24.409 2.41a1.955 1.955 0 0 1 -1.409.59h-14a2 2 0 0 1 -1.723-1 1.963 1.963 0 0 0 -.277 1 2.006 2.006 0 0 0 2 2h14a1.955 1.955 0 0 0 1.41-.59 1.959 1.959 0 0 0 .31-2.41 1.905 1.905 0 0 1 -.311.41z" fill="#b4aaa1"/><path d="m39.545 39.632-.211-.632h-3.334l2 4h16l1-2h-13.558a2 2 0 0 1 -1.897-1.368z" fill="#8a5a3d"/><path d="m39 57 .834-9.181a2 2 0 0 1 1.993-1.819h12.6l-.427-3h-16l-2 14a6 6 0 0 0 6 6h8a6 6 0 0 0 5.19-3h-13.19a3 3 0 0 1 -3-3z" fill="#fead4d"/><path d="m54 43h-1v1h.132l1.868 13.068a5.005 5.005 0 0 1 -5 4.932h-8a5.005 5.005 0 0 1 -5-4.932l1.868-13.068h.132v-1h-1l-2 14a6 6 0 0 0 6 6h8a6 6 0 0 0 6-6z" fill="#8a5a3d"/><path d="m15 8h7v-3h-12v8h3v-3a2 2 0 0 1 2-2z" fill="#e0dbd3"/><path d="m11.705 60a4 4 0 0 1 -3.956-3.412l-3.631-24.438a10.033 10.033 0 0 1 4.1-9.72l3.112-2.23a4 4 0 0 0 1.67-3.25v-3.95h-3v1.948a4 4 0 0 1 -1.672 3.252l-3.11 2.23a10.033 10.033 0 0 0 -4.1 9.72l4.434 29.85.448 3h20l.445-3z" fill="#fead4d"/><path d="m52.709 11.293 9.6-9.6c-1.14-1.14-3.3-.83-4.82.69l-8.958 10.327 2.76 2.76 2.239-1.942-.821-.821a1 1 0 0 1 0-1.414z" fill="#64371d"/><path d="m48 15h-.68a2.375 2.375 0 0 0 -1.49.53l-.15.15a2.306 2.306 0 0 0 -.674 1.585c0 .019-.006.036-.006.055 0 .93-.75 2.68-1.68 2.68h-1.32a1.991 1.991 0 0 0 -2 2v1.12a4.035 4.035 0 0 0 .437 1.825 4.03 4.03 0 0 1 .563 1.705v12.35h4v-2h-1a1 1 0 0 1 -1-1v-7.35a4.03 4.03 0 0 0 -.563-1.7 4.035 4.035 0 0 1 -.437-1.83v-1.12a1.991 1.991 0 0 1 2-2h1.32a1.778 1.778 0 0 0 1.737-2.158 2.324 2.324 0 0 1 .623-2.162l.15-.15a2.375 2.375 0 0 1 1.49-.53h.68a2.951 2.951 0 0 1 .861.14 2.987 2.987 0 0 0 -2.861-2.14z" fill="#ffbd50"/><path d="m16 41a2.76 2.76 0 0 1 -1 .922v5.078h2v-5.078a2.748 2.748 0 0 1 -1-.922z" fill="#f5791b"/><circle cx="47.001" cy="58" fill="#ffe16e" r="1"/><circle cx="43.001" cy="56" fill="#ffeb54" r="1"/><circle cx="46.501" cy="47.5" fill="#ffe16e" r=".5"/><circle cx="42.501" cy="51.5" fill="#ffe16e" r=".5"/><circle cx="42.501" cy="48.5" fill="#ffeb54" r=".5"/><circle cx="51.501" cy="50.5" fill="#ffeb54" r=".5"/><circle cx="46.501" cy="51.5" fill="#ffe16e" r=".5"/><circle cx="49.001" cy="55" fill="#ffe16e" r="2"/><path d="m28 32.5a1.5 1.5 0 0 1 -1.5-1.5c0-.1-.077-5.264-3.226-7a1.5 1.5 0 1 1 1.452-2.625c4.72 2.605 4.774 9.34 4.774 9.625a1.5 1.5 0 0 1 -1.5 1.5z" fill="#fff"/><path d="m50 60a1 1 0 0 1 0-2c.871 0 1.68-.921 1.924-2.189a1 1 0 0 1 1.964.378c-.431 2.244-2.03 3.811-3.888 3.811z" fill="#fff"/><circle cx="23.999" cy="57" fill="#ffeb54" r="1"/><circle cx="10.998" cy="26" fill="#ffeb54" r="1"/><circle cx="19.999" cy="46" fill="#ffe16e" r="1"/><circle cx="25.5" cy="51.5" fill="#ffeb54" r=".5"/><circle cx="19.499" cy="49.5" fill="#ffe16e" r=".5"/><circle cx="14.499" cy="21.5" fill="#ffe16e" r=".5"/><circle cx="24.499" cy="49.5" fill="#ffeb54" r=".5"/><circle cx="19.499" cy="57.5" fill="#ffeb54" r=".5"/><circle cx="12.499" cy="51.5" fill="#ffe16e" r=".5"/><circle cx="16.499" cy="55.5" fill="#ffeb54" r="1.5"/><g fill="#ffe16e"><circle cx="24.999" cy="44" r="2"/><circle cx="6.998" cy="28" r="2"/><rect height="2" rx="1" transform="matrix(0 -1 1 0 25.501 74.501)" width="5" x="47.501" y="23.5"/><rect height="2" rx=".977" transform="matrix(0 -1 1 0 30.001 70.001)" width="3" x="48.501" y="19"/><rect height="2" rx=".977" transform="matrix(0 -1 1 0 13.501 74.501)" width="3" x="42.501" y="29.5"/></g></g></svg>