<svg height="512" viewBox="0 0 64 64" width="512" xmlns="http://www.w3.org/2000/svg"><g id="_21-pickle" data-name="21-pickle"><path d="m17 1h30a2.006 2.006 0 0 1 2 2v5h-34v-5a2.006 2.006 0 0 1 2-2z" fill="#eeeae3"/><path d="m29.73 52.62c.7.94 1.45 1.91 2.25 2.93a8.155 8.155 0 0 1 -4.35 2.08l-.08-.06a6.043 6.043 0 0 1 -2.11-3.05 8.411 8.411 0 0 0 4.29-1.9z" fill="#335506"/><path d="m44.26 21.21a4.912 4.912 0 0 1 .74.24c2.33 1.54.47 10.94-4.25 21.3-.08.18-.17.36-.25.53-.84-1.18-1.59-2.29-2.27-3.39 3.86-9.29 4.79-17.48 2.82-18.45l-.05-.19a5.838 5.838 0 0 1 3.14-.07z" fill="#416f07"/><path d="m27.12 48.97c.79 1.17 1.66 2.38 2.61 3.65a8.411 8.411 0 0 1 -4.29 1.9 4.663 4.663 0 0 1 .65-4.19c.34-.45.67-.9.99-1.33z" fill="#335506"/><path d="m49 26.92a4.965 4.965 0 0 1 -.12 1.08c-1.81 8.12-3.28 13-5.95 18l-.26.2c-.79-1.03-1.51-1.99-2.17-2.92.08-.17.17-.35.25-.53 4.72-10.36 6.58-19.76 4.25-21.3a6.067 6.067 0 0 1 4 5.47z" fill="#629026"/><path d="m41.05 21.44c1.97.97 1.04 9.16-2.82 18.45a41.869 41.869 0 0 1 -3.05-5.8l.21-.09c.84-2.58 1.58-5.55 2.43-9.38a4.567 4.567 0 0 1 3.18-3.37z" fill="#3a6206"/><path d="m40.5 43.28c.66.93 1.38 1.89 2.17 2.92.89 1.17 1.88 2.41 2.96 3.76a5.112 5.112 0 0 1 .83 4.86c-4.66-.43-10.24-5.12-14.84-14.46-5.78-11.74-7.34-22.65-4.68-23.86l.05-.21a5.479 5.479 0 0 1 3.99 3.9 86.992 86.992 0 0 0 4.2 13.9 41.869 41.869 0 0 0 3.05 5.8c.68 1.1 1.43 2.21 2.27 3.39z" fill="#50761e"/><path d="m29.73 52.62c-.95-1.27-1.82-2.48-2.61-3.65-5.05-7.42-7.2-13.32-9.97-24.86a5.9 5.9 0 0 1 1.13-4.9 7.944 7.944 0 0 1 3.64-2.66c-2.8 1.94-.47 12.73 5.39 24.63 5.4 10.96 11.69 16.88 16.41 17.24l-.02.01a8.308 8.308 0 0 1 -4.84 1.57 6.542 6.542 0 0 1 -5.17-2.29q-.9-1.11-1.71-2.16c-.8-1.02-1.55-1.99-2.25-2.93z" fill="#50761e"/><path d="m26.94 16.5c-2.66 1.21-1.1 12.12 4.68 23.86 4.6 9.34 10.18 14.03 14.84 14.46a7.1 7.1 0 0 1 -2.65 3.52l-.09.08c-4.72-.36-11.01-6.28-16.41-17.24-5.86-11.9-8.19-22.69-5.39-24.63a7.9 7.9 0 0 1 1.01-.3l.14-.04a7.727 7.727 0 0 1 3.92.08z" fill="#6ea22a"/><path d="m48.24 19.24a7.66 7.66 0 0 1 -2.24-5.41v-2.83h-28v2.83a8.258 8.258 0 0 1 -1.73 4.85c-.16.19-.33.38-.51.56a5.993 5.993 0 0 0 -1.76 4.25v32.51a4 4 0 0 0 4 4h20.86a6.542 6.542 0 0 1 -5.17-2.29q-.9-1.11-1.71-2.16a8.155 8.155 0 0 1 -4.35 2.08l-.08-.06a6.043 6.043 0 0 1 -2.11-3.05 4.663 4.663 0 0 1 .65-4.19c.34-.45.67-.9.99-1.33l.04-.03c-5.05-7.42-7.2-13.32-9.97-24.86a5.9 5.9 0 0 1 1.13-4.9 8.21 8.21 0 0 1 4.65-2.96l.14-.04a7.727 7.727 0 0 1 3.92.08 5.479 5.479 0 0 1 3.99 3.9 86.992 86.992 0 0 0 4.2 13.9l.21-.09c.84-2.58 1.58-5.55 2.43-9.38a4.567 4.567 0 0 1 3.18-3.37 5.838 5.838 0 0 1 3.14-.07l.12.03a4.912 4.912 0 0 1 .74.24 6.067 6.067 0 0 1 4 5.47h1v-3.43a5.993 5.993 0 0 0 -1.76-4.25z" fill="#d0f669"/><path d="m46 60h-7.14a8.308 8.308 0 0 0 4.84-1.57l.02-.01.09-.08a7.1 7.1 0 0 0 2.65-3.52 5.112 5.112 0 0 0 -.83-4.86c-1.08-1.35-2.07-2.59-2.96-3.76l.26-.2c2.67-5 4.14-9.88 5.95-18a4.965 4.965 0 0 0 .12-1.08h1v29.08a4 4 0 0 1 -4 4z" fill="#d0f669"/><path d="m11 57v-35.51a5.993 5.993 0 0 1 1.76-4.25l2.24-2.24v-4h3v2.83a8.258 8.258 0 0 1 -1.73 4.85c-.16.19-.33.38-.51.56a5.993 5.993 0 0 0 -1.76 4.25v32.51a4 4 0 0 0 4 4h28a4 4 0 0 0 4-4v-32.51a5.993 5.993 0 0 0 -1.76-4.25 7.66 7.66 0 0 1 -2.24-5.41v-2.83h3v4l2.24 2.24a5.993 5.993 0 0 1 1.76 4.25v35.51a6 6 0 0 1 -6 6h-30a6 6 0 0 1 -6-6z" fill="#fffcc1"/><rect fill="#a69c92" height="3" rx="1.5" width="40" x="12" y="8"/><path d="m42.446 38.759c-.427-.632-.836-1.254-1.216-1.869-.417-.666-.8-1.325-1.166-1.984-.513 1.6-1.123 3.272-1.834 4.984.68 1.1 1.43 2.21 2.27 3.39.08-.17.17-.35.25-.53.616-1.35 1.181-2.687 1.696-3.991z" fill="#3a6206"/><path d="m42.446 38.759c-.515 1.3-1.08 2.639-1.7 3.991-.08.18-.17.36-.25.53.66.93 1.38 1.89 2.17 2.92l.26-.2c.7-1.3 1.31-2.6 1.87-3.949-.455-.605-.893-1.2-1.3-1.771-.366-.52-.713-1.023-1.05-1.521z" fill="#416f07"/><path d="m35.18 34.09a41.869 41.869 0 0 0 3.05 5.8c.711-1.712 1.321-3.385 1.834-4.984a41.425 41.425 0 0 1 -1.884-3.816c-.41-.962-.792-1.958-1.159-3.007-.541 2.245-1.063 4.174-1.631 5.917z" fill="#2b4805"/><path d="m50.5 10h-37a1.5 1.5 0 0 1 -1.408-1 1.483 1.483 0 0 0 -.092.5 1.5 1.5 0 0 0 1.5 1.5h37a1.5 1.5 0 0 0 1.5-1.5 1.483 1.483 0 0 0 -.092-.5 1.5 1.5 0 0 1 -1.408 1z" fill="#867e70"/><path d="m47 1v3a2 2 0 0 1 -2 2h-26a2 2 0 0 1 -2-2v-3a2.006 2.006 0 0 0 -2 2v5h34v-5a2.006 2.006 0 0 0 -2-2z" fill="#e0dbd3"/><path d="m19 4h2v4h-2z" fill="#d0c6b8"/><path d="m23 4h2v4h-2z" fill="#d0c6b8"/><path d="m27 4h2v4h-2z" fill="#d0c6b8"/><path d="m31 4h2v4h-2z" fill="#d0c6b8"/><path d="m35 4h2v4h-2z" fill="#d0c6b8"/><path d="m39 4h2v4h-2z" fill="#d0c6b8"/><path d="m43 4h2v4h-2z" fill="#d0c6b8"/><g fill="#b4aaa1"><path d="m19 6h2v2h-2z"/><path d="m23 6h2v2h-2z"/><path d="m27 6h2v2h-2z"/><path d="m31 6h2v2h-2z"/><path d="m35 6h2v2h-2z"/><path d="m39 6h2v2h-2z"/><path d="m43 6h2v2h-2z"/><rect height="2" rx="1" width="18" x="20.102" y="8"/><rect height="1.953" rx=".977" width="3" x="40.102" y="8.031"/></g><path d="m17.9 15h28.2a7.718 7.718 0 0 1 -.1-1.17v-2.83h-28v2.83a7.016 7.016 0 0 1 -.1 1.17z" fill="#ace54b"/><path d="m46.1 15h2.9v-4h-3v2.83a7.718 7.718 0 0 0 .1 1.17z" fill="#ffdfb8"/><path d="m18 13.83v-2.83h-3v4h2.9a7.016 7.016 0 0 0 .1-1.17z" fill="#ffdfb8"/><rect fill="#ffdfb8" height="3" rx="1.5" width="21" x="18" y="60"/><rect fill="#ffdfb8" height="3" rx="1.5" width="5" x="41" y="60"/><rect fill="#fff6e1" height="22" rx="1.5" width="3" x="50" y="27"/><rect fill="#fff6e1" height="22" rx="1.5" width="3" x="11" y="27"/><path d="m45.63 49.96c-1.08-1.35-2.07-2.59-2.96-3.76-.168-.219-.321-.424-.483-.637a9.038 9.038 0 0 1 -5.272 3.127c3.228 3.84 6.573 5.856 9.545 6.13a5.112 5.112 0 0 0 -.83-4.86z" fill="#3a6206"/><path d="m31.765 48.838a13.5 13.5 0 0 1 -6.42-2.611c.55.9 1.139 1.809 1.775 2.743.79 1.17 1.66 2.38 2.61 3.65.7.94 1.45 1.91 2.25 2.93q.81 1.05 1.71 2.16a6.542 6.542 0 0 0 5.17 2.29 8.308 8.308 0 0 0 4.84-1.57l.02-.01c-3.464-.264-7.773-3.534-11.955-9.582z" fill="#3a6206"/><path d="m36.915 48.69a13.508 13.508 0 0 1 -2.915.31 15.865 15.865 0 0 1 -2.235-.162c4.182 6.048 8.491 9.318 11.955 9.582l.09-.08a7.1 7.1 0 0 0 2.65-3.52c-2.972-.274-6.317-2.29-9.545-6.13z" fill="#50761e"/><path d="m26.061 24.157a16.572 16.572 0 0 1 6.48 2.148c-.507-1.826-1.015-3.838-1.561-6.115a5.479 5.479 0 0 0 -3.99-3.9l-.05.21c-1.296.59-1.587 3.487-.879 7.657z" fill="#6ea22a"/><path d="m21.92 16.55a7.944 7.944 0 0 0 -3.64 2.66 5.9 5.9 0 0 0 -1.13 4.9c.155.644.307 1.264.458 1.874a9.2 9.2 0 0 1 3.595-1.7c-.767-3.978-.59-6.828.717-7.734z" fill="#6ea22a"/><path d="m21.2 24.282a10.484 10.484 0 0 1 2.409-.282 19.834 19.834 0 0 1 2.452.157c-.708-4.17-.417-7.067.879-7.657l.05-.21a7.727 7.727 0 0 0 -3.92-.08l-.14.04a7.9 7.9 0 0 0 -1.01.3c-1.307.906-1.484 3.756-.72 7.732z" fill="#7fb734"/><path d="m20.293 52.293-1.293 1.293-1.293-1.293a1 1 0 0 0 -1.414 1.414l1.707 1.707v1.586a1 1 0 0 0 2 0v-1.586l1.707-1.707a1 1 0 0 0 -1.414-1.414z" fill="#8dc736"/><path d="m20.293 48.293-1.293 1.293-1.293-1.293a1 1 0 0 0 -1.414 1.414l2 2a1 1 0 0 0 1.414 0l2-2a1 1 0 0 0 -1.414-1.414z" fill="#8dc736"/><path d="m20.293 44.293-1.293 1.293-1.293-1.293a1 1 0 0 0 -1.414 1.414l2 2a1 1 0 0 0 1.414 0l2-2a1 1 0 0 0 -1.414-1.414z" fill="#8dc736"/><path d="m19 44a1 1 0 0 0 1-1v-2a1 1 0 0 0 -2 0v2a1 1 0 0 0 1 1z" fill="#8dc736"/><path d="m36.293 24.293-1.293 1.293-1.293-1.293a1 1 0 0 0 -1.414 1.414l2 2a1 1 0 0 0 1.414 0l2-2a1 1 0 0 0 -1.414-1.414z" fill="#8dc736"/><path d="m36.293 20.293-1.293 1.293-1.293-1.293a1 1 0 0 0 -1.414 1.414l2 2a1 1 0 0 0 1.414 0l2-2a1 1 0 0 0 -1.414-1.414z" fill="#8dc736"/><path d="m34.293 19.707a1 1 0 0 0 1.414 0l2-2a1 1 0 0 0 -1.414-1.414l-1.293 1.293-1.293-1.293a1 1 0 0 0 -1.414 1.414z" fill="#8dc736"/><path d="m35 16a1 1 0 0 0 1-1v-2a1 1 0 0 0 -2 0v2a1 1 0 0 0 1 1z" fill="#8dc736"/><ellipse cx="47.427" cy="44.208" fill="#f7fafd" rx=".413" ry=".574" transform="matrix(.707 -.707 .707 .707 -17.368 46.507)"/><ellipse cx="45.684" cy="27.695" fill="#f7fafd" rx="1.642" ry="2.286" transform="matrix(.707 -.707 .707 .707 -6.198 40.433)"/><ellipse cx="42.682" cy="29.708" fill="#f7fafd" rx=".825" ry="1.148" transform="matrix(.707 -.707 .707 .707 -8.502 38.899)"/><ellipse cx="47.682" cy="46.708" fill="#f7fafd" rx=".825" ry="1.148" transform="matrix(.707 -.707 .707 .707 -19.062 47.419)"/><ellipse cx="28.684" cy="27.695" fill="#f7fafd" rx="1.642" ry="2.286" transform="matrix(.707 -.707 .707 .707 -11.181 28.408)"/><ellipse cx="17.684" cy="36.695" fill="#f7fafd" rx="1.642" ry="2.286" transform="matrix(.707 -.707 .707 .707 -20.772 23.265)"/><ellipse cx="24.682" cy="21.708" fill="#f7fafd" rx=".825" ry="1.148" transform="matrix(.707 -.707 .707 .707 -8.12 23.822)"/><ellipse cx="16.682" cy="31.708" fill="#f7fafd" rx=".825" ry="1.148" transform="matrix(.707 -.707 .707 .707 -17.539 21.094)"/></g></svg>