<svg height="512" viewBox="0 0 64 64" width="512" xmlns="http://www.w3.org/2000/svg"><g id="_30-soy_meat" data-name="30-soy meat"><path d="m28.42 11.377a5.983 5.983 0 0 1 4.58 5.83v8.411a28.456 28.456 0 0 0 -4-.6v-.018c-.03-2.92.02-5.081-.01-8a10.327 10.327 0 0 0 -.45-3.07 3.956 3.956 0 0 0 -1.97-2.53 5.576 5.576 0 0 0 -2.34-.34c-.41 0-.82 0-1.23-.01v-.05h2a14.617 14.617 0 0 1 3.42.377z" fill="#b9976a"/><path d="m16.88 43c-.41.88-.8 1.76-1.15 2.66a11.442 11.442 0 0 0 -.67 2.35l-.06-.01h-8l-1-3c2.97 0 6.92-1.962 10.88-2z" fill="#b9976a"/><path d="m49 33.338v5.89a6.491 6.491 0 0 1 -.16 1.52 42.342 42.342 0 0 1 -2.88 7.51l-4.77 10.38c-.77 1.671-1.73 3.521-3.58 4.131a6.573 6.573 0 0 1 -2.93.13c-3.13-.41-6.11-1.49-9.23-1.93-1.24-.17-2.5-.24-3.73-.44a10.685 10.685 0 0 1 -4.22-1.51 5.416 5.416 0 0 1 -2.44-3.419q-.045-.3-.06-.6v-6h.01a4.047 4.047 0 0 0 .05.6 5.425 5.425 0 0 0 2.3 3.42 9.66 9.66 0 0 0 3.96 1.51c1.17.2 2.35.27 3.52.44 2.94.44 5.74 1.52 8.68 1.93a5.848 5.848 0 0 0 2.76-.13c1.75-.61 2.65-2.46 3.37-4.13q2.25-5.19 4.49-10.38a36.066 36.066 0 0 0 2.7-7.89c.32-1.87.26-4.02-1.12-5.35a4.681 4.681 0 0 0 -1.72-1.02 7.14 7.14 0 0 1 4.88 4.62 2.176 2.176 0 0 1 .12.718z" fill="#caa473"/><path d="m63 9v4a8.768 8.768 0 0 1 -.24 2.31 10.9 10.9 0 0 1 -1.46 2.56c-1.17 1.7-2.34 3.391-3.51 5.091-1.57 2.27-3.33 4.69-6.11 5.65a7.652 7.652 0 0 1 -6.56-.82 13.9 13.9 0 0 1 -1.75-1.49q-1.71-1.65-3.43-3.28c-.31-.313-.94-1.021-.94-1.021a6.838 6.838 0 0 1 -2-4.831v-1.84a1.787 1.787 0 0 0 .13.68 3.537 3.537 0 0 0 .81 1.01q1.725 1.635 3.43 3.28a13.828 13.828 0 0 0 1.75 1.491 7.652 7.652 0 0 0 6.56.82c2.78-.96 4.54-3.381 6.11-5.651 1.17-1.7 2.34-3.39 3.51-5.09a10.9 10.9 0 0 0 1.46-2.56 3.544 3.544 0 0 0 -.11-2.82 3.743 3.743 0 0 0 -1.09-1.189c3.44 1.887 3.44 3.7 3.44 3.7z" fill="#b9976a"/><path d="m29 25v.02a8.823 8.823 0 0 0 -3.19.37 5.932 5.932 0 0 0 -3.02 2.02c-1.07 1.43-1.23 3.3-1.61 5.03-.8 3.72-2.7 7.09-4.3 10.56-3.96.04-7.91 2-10.88 2-1.98-4.73-4.13-7.93-5-13v-5c-.01-1.45.82-2.76.96-4.2.25-2.691.02-5.481.84-8.061a4.56 4.56 0 0 1 1.37-2.239 4.712 4.712 0 0 1 1.72-.78 17.362 17.362 0 0 1 6.21-.72c3.63.02 7.27.04 10.9.05.41.01.82.01 1.23.01a5.576 5.576 0 0 1 2.34.34 3.956 3.956 0 0 1 1.97 2.53 10.327 10.327 0 0 1 .45 3.07c.03 2.917-.02 5.078.01 8zm-12.64 3.29c3.73-3.73-.07-6.29-.07-6.29-2.64 2.64-1.51 4.69-.63 5.66-.97-.88-3.02-2.01-5.66.63 0 0 2.56 3.8 6.29.07a2.932 2.932 0 0 0 -.26-.33 2.932 2.932 0 0 0 .33.258z" fill="#ffe6c6"/><path d="m47.95 13s.78-4-3.9-4c0 0-.78 4 3.9 4zm6-2c-4.68 0-3.9 4-3.9 4 4.68 0 3.9-4 3.9-4zm5.61-5.7a3.743 3.743 0 0 1 1.09 1.19 3.544 3.544 0 0 1 .11 2.82 10.9 10.9 0 0 1 -1.46 2.56c-1.17 1.7-2.34 3.39-3.51 5.09-1.57 2.27-3.33 4.691-6.11 5.651a7.652 7.652 0 0 1 -6.56-.82 13.828 13.828 0 0 1 -1.75-1.491q-1.71-1.65-3.43-3.28a3.537 3.537 0 0 1 -.81-1.01 1.787 1.787 0 0 1 -.13-.68 3.625 3.625 0 0 1 .23-1.16 18.635 18.635 0 0 1 2.1-3.9c.56-.88 1.12-1.76 1.68-2.63q1.515-2.37 3.04-4.74a3.43 3.43 0 0 1 1.09-1.33 5.155 5.155 0 0 1 2.16-.55 13.462 13.462 0 0 1 5.43 1.14 42.649 42.649 0 0 1 5.68 2.41 8.592 8.592 0 0 1 1.15.73z" fill="#ffe6c6"/><path d="m33 25.618c.1.01.2.03.3.05q4.455.81 8.87 1.82a14.609 14.609 0 0 1 1.83.512 4.681 4.681 0 0 1 1.72 1.02c1.38 1.33 1.44 3.48 1.12 5.35a36.066 36.066 0 0 1 -2.7 7.89q-2.25 5.19-4.49 10.38c-.72 1.67-1.62 3.52-3.37 4.13a5.848 5.848 0 0 1 -2.76.13c-2.94-.41-5.74-1.49-8.68-1.93-1.17-.17-2.35-.24-3.52-.44a9.66 9.66 0 0 1 -3.96-1.51 5.425 5.425 0 0 1 -2.3-3.42 4.047 4.047 0 0 1 -.05-.6 4.7 4.7 0 0 1 .05-.99 11.442 11.442 0 0 1 .67-2.35c.35-.9.74-1.78 1.15-2.66 1.6-3.47 3.5-6.84 4.3-10.56.38-1.73.54-3.6 1.61-5.03a5.932 5.932 0 0 1 3.02-2.02 8.823 8.823 0 0 1 3.19-.37 28.456 28.456 0 0 1 4 .598zm-.95 18.382c4.68 0 3.9-4 3.9-4-3.51 0-3.95 2.25-3.95 3.38 0-1.13-.44-3.38-3.95-3.38 0 0-.78 4 3.9 4a3.487 3.487 0 0 0 .05-.62 3.487 3.487 0 0 0 .05.62z" fill="#ffe6c6"/><path d="m15.06 48.008a11.442 11.442 0 0 1 .67-2.35c.35-.9.74-1.78 1.15-2.66a22.7 22.7 0 0 0 -5.5.934c-.169.355-.338.71-.5 1.066-.41.88-.8 1.76-1.15 2.66-.043.112-.076.228-.117.34h5.387z" fill="#a88a61"/><path d="m19.81 27.388a5.932 5.932 0 0 0 -3.02 2.02c-1.07 1.43-1.23 3.3-1.61 5.03-.718 3.338-2.32 6.395-3.8 9.494a22.7 22.7 0 0 1 5.5-.932c1.6-3.47 3.5-6.84 4.3-10.56.38-1.73.54-3.6 1.61-5.03a4.568 4.568 0 0 1 .342-.379c-.044 0-.088-.009-.132-.011a8.823 8.823 0 0 0 -3.19.368z" fill="#f7d09e"/><path d="m37.051 57.992a8.034 8.034 0 0 1 .392-1.891 3.7 3.7 0 0 1 -1.163.667 5.848 5.848 0 0 1 -2.76.13c-2.94-.41-5.74-1.49-8.68-1.93-1.17-.17-2.35-.24-3.52-.44a9.66 9.66 0 0 1 -3.96-1.51 5.425 5.425 0 0 1 -2.3-3.42 4.047 4.047 0 0 1 -.05-.6h-.01v6q.015.3.06.6a5.411 5.411 0 0 0 2.44 3.42 10.687 10.687 0 0 0 4.22 1.511c1.23.2 2.49.27 3.73.44 3.12.44 6.1 1.52 9.23 1.93a7.594 7.594 0 0 0 2.36.005 8.393 8.393 0 0 0 .178-1.773c-.018-1.049-.237-2.093-.167-3.139z" fill="#a88a61"/><path d="m50 22.471c-.108.043-.208.1-.32.137a7.652 7.652 0 0 1 -6.56-.82 13.828 13.828 0 0 1 -1.75-1.488q-1.71-1.65-3.43-3.28a3.537 3.537 0 0 1 -.81-1.01 1.787 1.787 0 0 1 -.13-.68v1.84a6.839 6.839 0 0 0 2 4.83s.63.71.94 1.02q1.725 1.635 3.43 3.28a13.9 13.9 0 0 0 1.75 1.49 7.607 7.607 0 0 0 4.88 1.176v-6.5z" fill="#a88a61"/><path d="m53.53 23.806 9.47-11.246v-3.56s0-1.81-3.44-3.7a3.743 3.743 0 0 1 1.09 1.19 3.544 3.544 0 0 1 .11 2.82 10.9 10.9 0 0 1 -1.46 2.56c-1.17 1.7-2.34 3.39-3.51 5.09-1.507 2.179-3.2 4.482-5.79 5.514v.047a2 2 0 0 0 3.53 1.285z" fill="#caa473"/><path d="m45.72 29.018a4.681 4.681 0 0 0 -1.72-1.018 14.609 14.609 0 0 0 -1.83-.51q-4.41-1-8.87-1.82c-.1-.02-.2-.04-.3-.05a28.456 28.456 0 0 0 -4-.6 8.823 8.823 0 0 0 -3.19.37 5.932 5.932 0 0 0 -3.02 2.02 9.176 9.176 0 0 0 -1.383 3.89c1.76 11.381 9.075 20.167 18.165 21.511.026-.059.053-.118.078-.176q2.25-5.19 4.49-10.38a36.066 36.066 0 0 0 2.7-7.89c.32-1.865.26-4.017-1.12-5.347zm-13.67 14.982a3.487 3.487 0 0 1 -.05-.62 3.487 3.487 0 0 1 -.05.62c-4.68 0-3.9-4-3.9-4 3.51 0 3.95 2.25 3.95 3.38 0-1.13.44-3.38 3.95-3.38 0 0 .78 4-3.9 4z" fill="#fff3e3"/><path d="m60.65 6.487a3.743 3.743 0 0 0 -1.09-1.187 8.592 8.592 0 0 0 -1.15-.73 42.649 42.649 0 0 0 -5.68-2.41 13.462 13.462 0 0 0 -5.43-1.14 5.155 5.155 0 0 0 -2.16.55 2.152 2.152 0 0 0 -.752.785 22.2 22.2 0 0 0 -.388 7.211 3.772 3.772 0 0 1 .05-.566c4.68 0 3.9 4 3.9 4-2.46 0-3.405-1.1-3.754-2.152a14.7 14.7 0 0 0 7.55 10.671 18.017 18.017 0 0 0 4.044-4.559c1.17-1.7 2.34-3.39 3.51-5.09a10.9 10.9 0 0 0 1.46-2.56 3.544 3.544 0 0 0 -.11-2.823zm-10.6 8.513s-.78-4 3.9-4c0 0 .78 4-3.9 4z" fill="#fff3e3"/><path d="m53.95 11s.78 4-3.9 4c0 0-.78-4 3.9-4z" fill="#50761e"/><path d="m44.05 9c4.68 0 3.9 4 3.9 4-4.68 0-3.9-4-3.9-4z" fill="#50761e"/><path d="m16.03 28.028a2.932 2.932 0 0 1 .26.33c-3.73 3.73-6.29-.07-6.29-.07 2.64-2.64 4.69-1.51 5.66-.63.14.15.26.27.37.37z" fill="#50761e"/><path d="m16.29 22s3.8 2.56.07 6.29a2.932 2.932 0 0 1 -.33-.26c-.1-.11-.22-.23-.37-.37-.88-.972-2.01-3.022.63-5.66z" fill="#50761e"/><path d="m32 43.378a3.487 3.487 0 0 1 -.05.62c-4.68 0-3.9-4-3.9-4 3.51.002 3.95 2.25 3.95 3.38z" fill="#50761e"/><path d="m35.95 40s.78 4-3.9 4a3.487 3.487 0 0 1 -.05-.62c0-1.132.44-3.38 3.95-3.38z" fill="#50761e"/><g fill="#eaaf79"><path d="m32 54a1 1 0 0 1 -.7-1.715c.214-.209.418-.449.624-.688a4.477 4.477 0 0 1 2.46-1.791 3.715 3.715 0 0 1 .793-.037 1.53 1.53 0 0 0 .425-.018 1.019 1.019 0 0 0 .4-.813.986.986 0 0 1 1.06-.938 1 1 0 0 1 .938 1.061 2.88 2.88 0 0 1 -1.762 2.586 3.027 3.027 0 0 1 -1.122.119 2.073 2.073 0 0 0 -.38.007c-.381.067-.865.63-1.293 1.127-.244.283-.488.566-.743.814a.994.994 0 0 1 -.7.286z"/><path d="m26 52a1 1 0 0 1 -.833-.445l-.967-1.455a2.825 2.825 0 0 0 -.881-.989 4.016 4.016 0 0 0 -.525-.212 5.734 5.734 0 0 1 -.859-.37 4.156 4.156 0 0 1 -1.722-2.379 2.765 2.765 0 0 0 -.788-1.337 1 1 0 0 1 1.156-1.633 4.467 4.467 0 0 1 1.5 2.258c.264.688.445 1.123.843 1.353a4 4 0 0 0 .552.227 5.93 5.93 0 0 1 .8.338 4.612 4.612 0 0 1 1.591 1.644l.965 1.443a1 1 0 0 1 -.832 1.557z"/><path d="m41.829 40a1 1 0 0 1 -.887-1.461 1.236 1.236 0 0 0 -.07-.882c-.081-.219-.182-.425-.28-.631a7.723 7.723 0 0 1 -.412-.975 2.876 2.876 0 0 1 .246-2.562 3.285 3.285 0 0 1 .369-.407 1.391 1.391 0 0 0 .145-.152.478.478 0 0 0 .022-.417 1 1 0 0 1 1.717-1.027 2.458 2.458 0 0 1 -.141 2.647 3.267 3.267 0 0 1 -.351.383 1.391 1.391 0 0 0 -.145.152 1.132 1.132 0 0 0 .037.757 5.911 5.911 0 0 0 .317.736c.125.263.25.525.352.8a3.158 3.158 0 0 1 -.03 2.5 1 1 0 0 1 -.889.539z"/><path d="m38 37a1 1 0 0 1 -.67-.258 5.941 5.941 0 0 1 -1.651-2.572l-.035-.1c0-.013-.01-.027-.014-.041-.071-.007-.159-.011-.227-.014l-.119-.006a4.805 4.805 0 0 1 -2.962-1.273 1 1 0 0 1 1.356-1.471 2.834 2.834 0 0 0 1.72.748h.1a2.143 2.143 0 0 1 1.642.64 2.3 2.3 0 0 1 .4.763l.034.095a4.04 4.04 0 0 0 1.1 1.744 1 1 0 0 1 -.674 1.745z"/><path d="m25 32a1 1 0 0 1 -.7-1.719 4.109 4.109 0 0 1 2.845-1.211 6.587 6.587 0 0 1 1.229.148 5.114 5.114 0 0 0 .867.112.821.821 0 0 0 .79-.6 1 1 0 0 1 1.928.535 2.8 2.8 0 0 1 -2.675 2.063 6.117 6.117 0 0 1 -1.28-.147 4.942 4.942 0 0 0 -.859-.113 2.131 2.131 0 0 0 -1.455.649 1 1 0 0 1 -.69.283z"/><path d="m29.835 38.1a2.787 2.787 0 0 1 -1.638-.569 6.253 6.253 0 0 1 -1.06-1.028 1 1 0 0 1 1.506-1.317 4.606 4.606 0 0 0 .724.723.779.779 0 0 0 .5.19.984.984 0 0 1 1.09.9 1 1 0 0 1 -.9 1.09c-.076.011-.149.011-.222.011z"/><path d="m27 23a1.025 1.025 0 0 1 -.231-.027 2.433 2.433 0 0 1 -1.453-1.1c-.067-.1-.13-.206-.192-.31a2.14 2.14 0 0 0 -.29-.416 2.514 2.514 0 0 0 -.894-.444c-.74-.256-1.492-.513-2.243-.751a1 1 0 0 1 .6-1.907c.768.243 1.536.5 2.3.768a4.117 4.117 0 0 1 1.64.908 3.824 3.824 0 0 1 .6.813c.047.078.093.155.142.231.159.236.247.26.248.26a1 1 0 0 1 -.227 1.975z"/><path d="m20.687 16.561a6.061 6.061 0 0 1 -2.679-.893c-1.551-.818-1.869-.814-2.227-.366a1 1 0 0 1 -1.562-1.25c1.488-1.859 3.435-.832 4.723-.152 1.579.834 1.885.822 2.259.327a1 1 0 0 1 1.6 1.2 2.546 2.546 0 0 1 -2.114 1.134z"/><path d="m6.3 23a1 1 0 0 1 -.858-.484 3.21 3.21 0 0 1 .6-4c.138-.129.281-.243.424-.356a2.517 2.517 0 0 0 .382-.339 1.215 1.215 0 0 0 .152-.784 1 1 0 0 1 .96-1.037.984.984 0 0 1 1.04.957 3.088 3.088 0 0 1 -.564 2.077 4.01 4.01 0 0 1 -.729.691c-.1.079-.2.157-.293.243a1.223 1.223 0 0 0 -.257 1.513 1 1 0 0 1 -.34 1.373.989.989 0 0 1 -.517.146z"/><path d="m7 32a1.015 1.015 0 0 1 -.336-.058 4.25 4.25 0 0 1 -2.664-3.942 1 1 0 0 1 2 0 2.255 2.255 0 0 0 1.336 2.057 1 1 0 0 1 -.336 1.943z"/><path d="m8.931 40a3.743 3.743 0 0 1 -3.3-2.115 6.671 6.671 0 0 1 -.32-.865l-.079-.244a9.513 9.513 0 0 0 -1.066-2.227 1 1 0 1 1 1.67-1.1 11.5 11.5 0 0 1 1.293 2.693l.089.276a4.769 4.769 0 0 0 .219.606 1.666 1.666 0 0 0 1.533.976 1 1 0 1 1 .06 2z"/><path d="m16 38a1 1 0 0 1 -.526-.15 3.617 3.617 0 0 1 -1.257-1.622 3.731 3.731 0 0 0 -.409-.712 2.478 2.478 0 0 0 -1.808-.516 1 1 0 0 1 0-2 4.3 4.3 0 0 1 3.34 1.231 5.264 5.264 0 0 1 .673 1.118 2.243 2.243 0 0 0 .514.8 1 1 0 0 1 -.527 1.851z"/><path d="m50.99 8h-.01a1 1 0 0 1 -.99-1.01c0-.059 0-.108 0-.148-.078-.034-.139-.063-.2-.1a3.417 3.417 0 0 0 -.456-.183 4.48 4.48 0 0 1 -.9-.4 3.128 3.128 0 0 1 -1.4-1.912 1 1 0 1 1 1.938-.492 1.146 1.146 0 0 0 .5.7 2.686 2.686 0 0 0 .53.228 5.468 5.468 0 0 1 .714.3c.044.022.089.039.13.056a1.8 1.8 0 0 1 1.144 1.968 1 1 0 0 1 -1 .993z"/><path d="m46 21a1 1 0 0 1 -.984-.832.373.373 0 0 0 -.119-.2 2.426 2.426 0 0 0 -.5-.264c-.159-.072-.317-.143-.468-.225a3.737 3.737 0 0 1 -1.914-3.579 1 1 0 1 1 1.99.193 1.753 1.753 0 0 0 .88 1.628c.1.053.213.1.327.154a3.866 3.866 0 0 1 1.018.6 2.382 2.382 0 0 1 .755 1.352 1 1 0 0 1 -.816 1.154.985.985 0 0 1 -.169.019z"/><path d="m49 21h-.036a1 1 0 0 1 -.964-1.038 3.394 3.394 0 0 1 .194-1.081 1.978 1.978 0 0 1 1.076-1.127l1.274-.647a1 1 0 1 1 .91 1.781l-1.411.717a3.868 3.868 0 0 0 -.045.428 1 1 0 0 1 -.998.967z"/><path d="m57 10a.993.993 0 0 1 -.268-.036 3.87 3.87 0 0 1 -2.5-1.726 1.961 1.961 0 0 1 -.13-1.568 1 1 0 0 1 1.898.63 2.047 2.047 0 0 0 1.264.734 1 1 0 0 1 -.264 1.966z"/></g></g></svg>