<?xml version="1.0" encoding="iso-8859-1"?>
<!-- Generator: Adobe Illustrator 19.0.0, SVG Export Plug-In . SVG Version: 6.00 Build 0)  -->
<svg version="1.1" id="Capa_1" xmlns="http://www.w3.org/2000/svg" xmlns:xlink="http://www.w3.org/1999/xlink" x="0px" y="0px"
	 viewBox="0 0 512 512" style="enable-background:new 0 0 512 512;" xml:space="preserve">
<g>
	<rect x="88.276" y="44.138" style="fill:#B0D3F0;" width="335.448" height="423.724"/>
	<g>
		<path style="fill:#35495E;" d="M423.724,441.379v35.31c0.003,9.366-3.717,18.348-10.339,24.971
			c-6.623,6.622-15.605,10.342-24.971,10.339H123.586c-9.366,0.003-18.348-3.717-24.971-10.339
			c-6.623-6.623-10.342-15.605-10.339-24.971v-35.31H423.724z"/>
		<path style="fill:#35495E;" d="M423.724,35.31v35.31H88.276V35.31c-0.003-9.366,3.717-18.349,10.339-24.971
			C105.238,3.717,114.221-0.003,123.586,0h264.828c9.366-0.003,18.349,3.717,24.971,10.339
			C420.007,16.962,423.727,25.945,423.724,35.31z"/>
	</g>
	<g>
		<path style="fill:#2C2F38;" d="M273.655,485.517h-35.31c-4.875,0-8.828-3.952-8.828-8.828s3.952-8.828,8.828-8.828h35.31
			c4.875,0,8.828,3.952,8.828,8.828S278.531,485.517,273.655,485.517z"/>
		<path style="fill:#2C2F38;" d="M264.828,44.138h-17.655c-4.875,0-8.828-3.952-8.828-8.828s3.952-8.828,8.828-8.828h17.655
			c4.875,0,8.828,3.952,8.828,8.828S269.703,44.138,264.828,44.138z"/>
	</g>
	<path style="fill:#C03A2B;" d="M380.204,358.577l-51.023-23.217c-1.297-0.579-2.794-0.496-4.02,0.222s-2.03,1.983-2.16,3.397
		l-5.385,55.702c-0.18,1.913-1.58,3.488-3.458,3.892c-1.878,0.404-3.801-0.457-4.752-2.126L256,304.022l-53.407,92.425
		c-0.951,1.67-2.874,2.53-4.752,2.126c-1.878-0.404-3.278-1.979-3.458-3.892l-5.385-55.702c-0.13-1.414-0.934-2.679-2.16-3.397
		c-1.226-0.718-2.722-0.801-4.02-0.222l-51.023,23.217c-1.754,0.77-3.805,0.329-5.087-1.094c-1.283-1.423-1.509-3.508-0.562-5.173
		l52.436-90.659h154.836l52.436,90.659c0.947,1.665,0.72,3.75-0.562,5.173C384.009,358.905,381.959,359.346,380.204,358.577z"/>
	<circle style="fill:#E64C3C;" cx="256" cy="203.034" r="97.103"/>
	<polygon style="fill:#F3D55B;" points="256,141.241 275.094,178.229 317.793,184.152 286.897,212.948 294.188,253.59 256,234.399 
		217.812,253.59 225.103,212.948 194.207,184.152 236.906,178.229 	"/>
</g>
<g>
</g>
<g>
</g>
<g>
</g>
<g>
</g>
<g>
</g>
<g>
</g>
<g>
</g>
<g>
</g>
<g>
</g>
<g>
</g>
<g>
</g>
<g>
</g>
<g>
</g>
<g>
</g>
<g>
</g>
</svg>
