<?xml version="1.0" encoding="iso-8859-1"?>
<!-- Generator: Adobe Illustrator 19.0.0, SVG Export Plug-In . SVG Version: 6.00 Build 0)  -->
<svg version="1.1" id="Capa_1" xmlns="http://www.w3.org/2000/svg" xmlns:xlink="http://www.w3.org/1999/xlink" x="0px" y="0px"
	 viewBox="0 0 512.019 512.019" style="enable-background:new 0 0 512.019 512.019;" xml:space="preserve">
<g>
	<path style="fill:#AF8066;" d="M360.192,342.57c-10.159,23.261-13.949,48.806-10.982,74.015c1.764,16.41,4.987,32.63,9.63,48.468
		c2.541,8.189,5.707,16.171,9.47,23.876c5.223,7.391,9.981,15.099,14.246,23.08H181.363c0,0-12.018-48.946-39.235-61.281
		c-22.731,8.245-45.899,15.233-69.399,20.931c-11.39,2.454-22.68-4.545-25.548-15.838c-2.149-5.654-2.939-11.733-2.307-17.748
		c1.859-6.13,2.508-12.564,1.91-18.942c-2.069-8.038-9.789-10.027-15.838-14.325c-4.855-3.502,3.9-14.723,3.9-14.723
		s-9.312-6.924-12.735-9.949c-3.422-2.865,1.433-7.799,5.81-17.111c1.845-4.032,2.374-8.543,1.513-12.893
		c-1.592-8.516-14.564-11.779-20.931-16.474c-2.945-2.228-7.799-5.57-8.437-9.63c-0.794-5.651,5.889-13.609,9.154-17.589
		c13.858-17.895,25.733-37.242,35.415-57.7c1.309-2.144,2.074-4.576,2.229-7.083c-0.079-11.381-16.634-16.076-18.146-27.139
		c-0.237-3.247,0.337-6.501,1.671-9.471c4.589-9.756,8.524-19.806,11.779-30.084c1.949-9.439,4.501-18.743,7.64-27.855
		c6.613-18.337,16.905-35.128,30.243-49.343c19.498-20.613,48.309-30.8,75.527-36.212c24.951-5.501,50.276-9.145,75.766-10.903
		c51.014-2.547,91.285,14.724,130.68,45.603c21.534,16.024,37.263,38.625,44.808,64.385c5.81,21.253,8.518,43.233,8.038,65.261
		c-0.163,21.739-6.482,42.986-18.226,61.281C384.785,305.881,369.186,322.117,360.192,342.57z"/>
	<path style="fill:#7F5B53;" d="M167.724,446.867c-4.317-0.002-8-3.126-8.706-7.385c-0.706-4.259,1.771-8.405,5.857-9.8
		c8.017-2.737,15.302-5.306,21.112-7.358c5.759-2.034,10.112-3.565,12.375-4.276c32.345-10.155,38.922-21.608,38.75-29.427
		c-0.054-2.341,0.825-4.607,2.442-6.299c1.618-1.692,3.842-2.672,6.183-2.723l0.203-0.004c4.796,0.002,8.713,3.834,8.819,8.629
		c0.457,20.177-16.737,35.875-51.112,46.668c-2.155,0.677-6.297,2.142-11.78,4.078c-5.862,2.069-13.207,4.664-21.293,7.418
		C169.657,446.704,168.694,446.866,167.724,446.867z"/>
	<path style="fill:#95A5A5;" d="M445.329,229.527H207.216v-0.299c-1.579,0.202-3.17,0.302-4.762,0.299
		c-14.225-0.331-27.736-6.3-37.56-16.593c-9.824-10.293-15.157-24.067-14.825-38.292c-0.255-21.703,12.283-41.525,32.002-50.594
		c-2.31-6.156-3.472-12.684-3.429-19.259c-0.332-14.225,5.001-27.999,14.825-38.292s23.335-16.262,37.56-16.593
		c2.231,0.014,4.459,0.18,6.667,0.499c5.594-23.437,26.387-40.084,50.48-40.415c16.728,0.086,32.365,8.315,41.908,22.054
		c10.622-19.592,31.052-31.862,53.337-32.033c35,0.834,62.707,29.863,61.909,64.864c0.011,5.105-0.564,10.194-1.714,15.168
		c39.085,2.597,69.212,35.481,68.386,74.643c0.904,40.379-31.057,73.865-71.434,74.843H445.329z"/>
	<polygon style="fill:#F0C419;" points="247.172,291.32 308.966,194.216 247.172,194.216 361.931,70.63 326.621,167.734 
		388.414,194.216 	"/>
</g>
<g>
</g>
<g>
</g>
<g>
</g>
<g>
</g>
<g>
</g>
<g>
</g>
<g>
</g>
<g>
</g>
<g>
</g>
<g>
</g>
<g>
</g>
<g>
</g>
<g>
</g>
<g>
</g>
<g>
</g>
</svg>
