<?xml version="1.0" encoding="iso-8859-1"?>
<!-- Generator: Adobe Illustrator 19.0.0, SVG Export Plug-In . SVG Version: 6.00 Build 0)  -->
<svg version="1.1" id="Capa_1" xmlns="http://www.w3.org/2000/svg" xmlns:xlink="http://www.w3.org/1999/xlink" x="0px" y="0px"
	 viewBox="0 0 512 512" style="enable-background:new 0 0 512 512;" xml:space="preserve">
<g>
	<circle style="fill:#46B29D;" cx="256" cy="256" r="150.069"/>
	<g>
		<path style="fill:#81CCB8;" d="M297.181,353.599c-39.699,16.794-85.619,7.799-116.047-22.732
			c-3.456-3.394-9.001-3.369-12.426,0.056c-3.425,3.425-3.45,8.97-0.056,12.426c35.529,35.589,89.092,46.074,135.418,26.509
			c4.49-1.902,6.587-7.084,4.685-11.573C306.852,353.795,301.671,351.697,297.181,353.599L297.181,353.599z"/>
		<path style="fill:#81CCB8;" d="M369.853,207.927c-6.214-14.681-15.215-28.019-26.504-39.276
			c-3.456-3.394-9.001-3.369-12.426,0.056c-3.425,3.425-3.45,8.97-0.056,12.426c30.506,30.444,39.497,76.349,22.728,116.052
			c-1.902,4.49,0.196,9.671,4.685,11.573s9.671-0.196,11.573-4.685C382.831,273.338,382.831,238.661,369.853,207.927
			L369.853,207.927z"/>
		<path style="fill:#81CCB8;" d="M214.819,158.401c13.025-5.525,27.032-8.359,41.181-8.332c4.875,0,8.828-3.952,8.828-8.828
			s-3.952-8.828-8.828-8.828c-32.777,0-64.212,13.02-87.389,36.197S132.413,223.223,132.414,256c0,4.875,3.952,8.828,8.828,8.828
			s8.828-3.952,8.828-8.828C150.151,213.433,175.632,175.024,214.819,158.401z"/>
	</g>
	<path style="fill:#65DDB9;" d="M264.828,185.379c0-4.875-3.952-8.828-8.828-8.828s-8.828,3.952-8.828,8.828v6.047
		c-19.021,1.943-33.906,17.255-35.31,36.324c1.404,19.069,16.289,34.382,35.31,36.327v38.356
		c-9.259-1.489-16.439-8.884-17.655-18.183c0-4.875-3.952-8.828-8.828-8.828s-8.828,3.952-8.828,8.828
		c1.404,19.069,16.289,34.381,35.31,36.324v6.047c0,4.875,3.952,8.828,8.828,8.828s8.828-3.952,8.828-8.828v-6.047
		c19.021-1.943,33.906-17.255,35.31-36.324c-1.404-19.069-16.289-34.382-35.31-36.327v-38.356
		c9.259,1.489,16.439,8.884,17.655,18.183c0,4.875,3.952,8.828,8.828,8.828s8.828-3.952,8.828-8.828
		c-1.404-19.069-16.289-34.381-35.31-36.324V185.379z M229.517,227.75c1.216-9.299,8.396-16.694,17.655-18.183v36.37
		C237.913,244.445,230.733,237.049,229.517,227.75z M282.483,284.25c-1.216,9.299-8.396,16.694-17.655,18.183v-36.37
		C274.087,267.555,281.267,274.951,282.483,284.25L282.483,284.25z"/>
	<g>
		<path style="fill:#4482C3;" d="M62.797,236.181C73.083,137.175,156.462,61.916,256,61.793v17.655l52.966-35.31L256,0v17.655
			C133.306,17.66,30.656,110.798,18.759,232.914c-0.488,5.969,1.554,11.868,5.627,16.258c4.073,4.39,9.803,6.868,15.791,6.828h1.231
			C52.581,255.895,61.842,247.313,62.797,236.181z"/>
		<path style="fill:#4482C3;" d="M449.922,275.819c-10.286,99.005-93.665,174.264-193.203,174.387v-17.655l-52.966,35.31
			L256.719,512v-17.655c122.694-0.004,225.344-93.143,237.241-215.259c0.488-5.969-1.554-11.868-5.627-16.258
			c-4.073-4.39-9.803-6.868-15.791-6.828h-1.231C460.138,256.105,450.877,264.687,449.922,275.819z"/>
	</g>
	<circle style="fill:#285680;" cx="35.31" cy="300.138" r="17.655"/>
	<circle style="fill:#35495E;" cx="70.621" cy="370.759" r="17.655"/>
	<circle style="fill:#285680;" cx="476.69" cy="211.862" r="17.655"/>
	<circle style="fill:#35495E;" cx="441.379" cy="141.241" r="17.655"/>
</g>
<g>
</g>
<g>
</g>
<g>
</g>
<g>
</g>
<g>
</g>
<g>
</g>
<g>
</g>
<g>
</g>
<g>
</g>
<g>
</g>
<g>
</g>
<g>
</g>
<g>
</g>
<g>
</g>
<g>
</g>
</svg>
