<?xml version="1.0" encoding="iso-8859-1"?>
<!-- Generator: Adobe Illustrator 19.0.0, SVG Export Plug-In . SVG Version: 6.00 Build 0)  -->
<svg version="1.1" id="Capa_1" xmlns="http://www.w3.org/2000/svg" xmlns:xlink="http://www.w3.org/1999/xlink" x="0px" y="0px"
	 viewBox="0 0 512.052 512.052" style="enable-background:new 0 0 512.052 512.052;" xml:space="preserve">
<g transform="translate(0 -1)">
	<circle style="fill:#E4C05C;" cx="150.064" cy="345.291" r="88.276"/>
	<path style="fill:#F9EAB0;" d="M130.984,298.116l-1.501-2.402c-2.584-4.134-8.03-5.39-12.163-2.806
		c-4.134,2.584-5.39,8.03-2.806,12.163l1.503,2.405c-11.12,9.604-14.077,25.643-7.113,38.581
		c4.695,7.206,12.42,11.877,20.982,12.687c5.699,0.577,11.454-0.166,16.82-2.17l12.724,20.356c-4.832,1.31-9.98-0.379-13.097-4.296
		c-1.672-2.674-4.643-4.253-7.794-4.143c-3.152,0.111-6.005,1.894-7.485,4.679c-1.48,2.785-1.362,6.147,0.31,8.821
		c8.581,11.927,24.293,16.295,37.799,10.51l1.501,2.402c1.672,2.674,4.643,4.253,7.794,4.143c3.152-0.111,6.005-1.894,7.485-4.679
		c1.48-2.785,1.362-6.147-0.309-8.821l-1.447-2.315c1.969-1.921,3.73-4.044,5.253-6.334c6.916-9.483,7.622-22.143,1.803-32.336
		c-4.695-7.206-12.42-11.877-20.982-12.687c-5.699-0.577-11.454,0.166-16.82,2.17l-12.723-20.355
		c4.832-1.31,9.98,0.379,13.097,4.296c1.672,2.674,4.643,4.253,7.794,4.143c3.151-0.111,6.005-1.894,7.485-4.679
		c1.48-2.785,1.362-6.147-0.31-8.821C160.202,296.699,144.49,292.33,130.984,298.116z M131.931,341.206
		c-3.223-0.226-6.178-1.878-8.058-4.505c-2.155-4.519-1.419-9.887,1.873-13.659l11.214,17.94
		C135.302,341.287,133.61,341.362,131.931,341.206L131.931,341.206z M168.215,349.411c3.223,0.226,6.178,1.878,8.058,4.505
		c2.156,4.52,1.421,9.889-1.871,13.662l-11.215-17.943C164.845,349.33,166.537,349.254,168.215,349.411z"/>
	<path style="fill:#67B9CC;" d="M432.578,115.77h-0.223c0.059-1.476,0.223-2.924,0.223-4.414
		c0.015-52.151-36.493-97.187-87.518-107.964c-51.025-10.777-102.626,15.65-123.701,63.353
		c-20.894-26.663-56.403-37.133-88.42-26.07S79.45,81.895,79.474,115.77c-43.878,0-79.448,35.57-79.448,79.448
		s35.57,79.448,79.448,79.448h353.103c43.878,0,79.448-35.57,79.448-79.448S476.456,115.77,432.578,115.77z"/>
	<circle style="fill:#E4C05C;" cx="361.971" cy="424.755" r="88.276"/>
	<path style="fill:#F9EAB0;" d="M390.82,382.786l1.176-2.577c1.324-2.871,1.011-6.231-0.821-8.808
		c-1.831-2.577-4.902-3.978-8.048-3.672c-3.147,0.306-5.89,2.271-7.191,5.153l-1.177,2.58c-14.144-3.98-29.155,2.398-36.107,15.342
		c-3.422,7.89-3.058,16.91,0.987,24.5c2.662,5.072,6.455,9.464,11.086,12.835l-9.964,21.839c-3.757-3.308-5.187-8.534-3.638-13.294
		c2.015-4.433,0.058-9.661-4.372-11.682c-4.43-2.021-9.66-0.073-11.688,4.354c-5.218,13.735-0.198,29.252,12.076,37.328
		l-1.176,2.577c-1.315,2.87-0.997,6.223,0.834,8.795c1.831,2.572,4.895,3.97,8.037,3.667c3.142-0.303,5.883-2.26,7.189-5.134
		l1.134-2.484c2.688,0.584,5.43,0.882,8.181,0.889c11.725,0.54,22.675-5.853,27.97-16.328c3.422-7.89,3.058-16.91-0.987-24.5
		c-2.661-5.072-6.455-9.464-11.086-12.835l9.964-21.839c3.757,3.308,5.187,8.534,3.638,13.294
		c-2.015,4.433-0.058,9.661,4.372,11.682c4.43,2.021,9.66,0.073,11.688-4.354C408.114,406.379,403.094,390.863,390.82,382.786z
		 M355.397,407.339c-1.589-2.814-1.84-6.189-0.685-9.207c2.582-4.29,7.465-6.636,12.427-5.97l-8.782,19.247
		C357.188,410.195,356.192,408.825,355.397,407.339z M368.56,442.132c1.589,2.814,1.84,6.189,0.685,9.207
		c-2.581,4.291-7.466,6.639-12.429,5.973l8.783-19.251C366.769,439.276,367.765,440.645,368.56,442.132z"/>
</g>
<g>
</g>
<g>
</g>
<g>
</g>
<g>
</g>
<g>
</g>
<g>
</g>
<g>
</g>
<g>
</g>
<g>
</g>
<g>
</g>
<g>
</g>
<g>
</g>
<g>
</g>
<g>
</g>
<g>
</g>
</svg>
