<?xml version="1.0" encoding="iso-8859-1"?>
<!-- Generator: Adobe Illustrator 19.0.0, SVG Export Plug-In . SVG Version: 6.00 Build 0)  -->
<svg version="1.1" id="Capa_1" xmlns="http://www.w3.org/2000/svg" xmlns:xlink="http://www.w3.org/1999/xlink" x="0px" y="0px"
	 viewBox="0 0 512 512" style="enable-background:new 0 0 512 512;" xml:space="preserve">
<g>
	<path style="fill:#BDC3C7;" d="M450.207,397.241v-35.31H61.793v35.31L0,476.69v17.655C0,504.095,7.904,512,17.655,512h476.69
		c9.751,0,17.655-7.905,17.655-17.655V476.69L450.207,397.241z"/>
	<g>
		<path style="fill:#E6E7E8;" d="M397.241,450.207H114.759c-4.875,0-8.828-3.952-8.828-8.828s3.952-8.828,8.828-8.828h282.483
			c4.875,0,8.828,3.952,8.828,8.828S402.117,450.207,397.241,450.207z"/>
		<path style="fill:#E6E7E8;" d="M79.448,450.207h-8.828c-4.875,0-8.828-3.952-8.828-8.828s3.952-8.828,8.828-8.828h8.828
			c4.875,0,8.828,3.952,8.828,8.828S84.324,450.207,79.448,450.207z"/>
		<path style="fill:#E6E7E8;" d="M441.379,450.207h-8.828c-4.875,0-8.828-3.952-8.828-8.828s3.952-8.828,8.828-8.828h8.828
			c4.875,0,8.828,3.952,8.828,8.828S446.255,450.207,441.379,450.207z"/>
	</g>
	<path style="fill:#35495E;" d="M406.069,123.586h26.483c9.739,0.029,17.627,7.916,17.655,17.655v256H61.793v-256
		c0.029-9.739,7.916-17.627,17.655-17.655H406.069z"/>
	<path style="fill:#D1D4D1;" d="M406.069,361.931H105.931V17.655C105.96,7.916,113.847,0.029,123.586,0h264.828
		c9.739,0.029,17.627,7.916,17.655,17.655V361.931"/>
	<path style="fill:#2C2F38;" d="M423.724,370.759H88.276c-4.875,0-8.828-3.952-8.828-8.828s3.952-8.828,8.828-8.828h335.448
		c4.875,0,8.828,3.952,8.828,8.828S428.599,370.759,423.724,370.759z"/>
	<circle style="fill:#4482C3;" cx="256" cy="110.345" r="75.034"/>
	<g>
		<path style="fill:#7F8C8D;" d="M175.669,265.887l-32.132,40.165c-1.472-1.619-2.29-3.727-2.295-5.914v-52.966
			c0.011-2.49,1.068-4.861,2.913-6.532L175.669,265.887z"/>
		<path style="fill:#7F8C8D;" d="M229.517,247.172v52.966c-0.005,2.188-0.823,4.296-2.295,5.914l-32.132-40.165l31.514-25.247
			C228.449,242.312,229.507,244.682,229.517,247.172z"/>
	</g>
	<path style="fill:#95A5A5;" d="M226.604,240.64l-31.514,25.247l-9.71,7.768l-9.71-7.768l-31.514-25.247
		c1.619-1.472,3.727-2.29,5.914-2.295h70.621C222.878,238.35,224.985,239.168,226.604,240.64z"/>
	<g>
		<path style="fill:#4482C3;" d="M370.759,247.172H264.828c-4.875,0-8.828-3.952-8.828-8.828c0-4.875,3.952-8.828,8.828-8.828
			h105.931c4.875,0,8.828,3.952,8.828,8.828C379.586,243.22,375.634,247.172,370.759,247.172z"/>
		<path style="fill:#4482C3;" d="M370.759,282.483H264.828c-4.875,0-8.828-3.952-8.828-8.828s3.952-8.828,8.828-8.828h105.931
			c4.875,0,8.828,3.952,8.828,8.828S375.634,282.483,370.759,282.483z"/>
		<path style="fill:#4482C3;" d="M370.759,317.793H264.828c-4.875,0-8.828-3.952-8.828-8.828s3.952-8.828,8.828-8.828h105.931
			c4.875,0,8.828,3.952,8.828,8.828S375.634,317.793,370.759,317.793z"/>
	</g>
	<path style="fill:#5E5F62;" d="M227.222,306.052c-1.672,1.845-4.042,2.902-6.532,2.913h-70.621
		c-2.49-0.011-4.861-1.068-6.532-2.913l32.132-40.165l9.71,7.768l9.71-7.768L227.222,306.052z"/>
	<path style="fill:#95A5A5;" d="M0,476.69h512v17.655c0,9.751-7.905,17.655-17.655,17.655H17.655C7.904,512,0,504.095,0,494.345
		V476.69z"/>
	<path style="fill:#F3D55B;" d="M256,118.437c20.111,0,36.414,16.303,36.414,36.414v4.046h-72.828v-4.046
		C219.586,134.74,235.889,118.437,256,118.437z"/>
	<path style="fill:#46B29D;" d="M313.203,158.897C298.949,175.695,278.031,185.38,256,185.38s-42.949-9.684-57.203-26.483H313.203z"
		/>
	<circle style="fill:#F5EFCA;" cx="256" cy="90.112" r="28.319"/>
</g>
<g>
</g>
<g>
</g>
<g>
</g>
<g>
</g>
<g>
</g>
<g>
</g>
<g>
</g>
<g>
</g>
<g>
</g>
<g>
</g>
<g>
</g>
<g>
</g>
<g>
</g>
<g>
</g>
<g>
</g>
</svg>
