<?xml version="1.0" encoding="iso-8859-1"?>
<!-- Generator: Adobe Illustrator 19.0.0, SVG Export Plug-In . SVG Version: 6.00 Build 0)  -->
<svg version="1.1" id="Capa_1" xmlns="http://www.w3.org/2000/svg" xmlns:xlink="http://www.w3.org/1999/xlink" x="0px" y="0px"
	 viewBox="0 0 512 512" style="enable-background:new 0 0 512 512;" xml:space="preserve">
<g>
	<path style="fill:#BDC3C7;" d="M450.207,397.241v-44.138H61.793v44.138L0,476.69v17.655C0,504.095,7.904,512,17.655,512h476.69
		c9.751,0,17.655-7.905,17.655-17.655V476.69L450.207,397.241z"/>
	<path style="fill:#95A5A5;" d="M0,476.69h512v17.655c0,9.751-7.905,17.655-17.655,17.655H17.655C7.904,512,0,504.095,0,494.345
		V476.69z"/>
	<path style="fill:#35495E;" d="M300.138,123.586h132.414c9.739,0.029,17.627,7.916,17.655,17.655v256H61.793v-256
		c0.029-9.739,7.916-17.627,17.655-17.655h132.414"/>
	<path style="fill:#ECF0F1;" d="M450.207,326.621v70.621H61.793v-70.621c-0.003-9.366,3.717-18.349,10.339-24.971
		c6.623-6.623,15.605-10.342,24.971-10.339c3.41-0.003,6.802,0.502,10.063,1.501c-0.813-3.383-1.227-6.849-1.236-10.328
		c0.009-24.373,19.765-44.129,44.138-44.138c6.069,0.006,12.074,1.237,17.655,3.619h176.552c5.581-2.383,11.586-3.614,17.655-3.619
		c24.373,0.009,44.129,19.765,44.138,44.138c-0.008,3.479-0.423,6.945-1.236,10.328c3.261-0.998,6.653-1.504,10.063-1.501
		c9.366-0.003,18.349,3.717,24.971,10.339C446.49,308.272,450.21,317.255,450.207,326.621z"/>
	<g>
		<path style="fill:#BDC3C7;" d="M142.957,339.716c-4.496-0.004-8.271-3.385-8.767-7.853c-1.073-9.892-7.985-18.17-17.526-20.991
			c-4.675-1.385-7.343-6.299-5.957-10.974c1.385-4.675,6.299-7.342,10.974-5.957c16.357,4.833,28.211,19.018,30.06,35.974
			c0.536,4.845-2.957,9.208-7.802,9.746C143.614,339.697,143.285,339.716,142.957,339.716z"/>
		<path style="fill:#BDC3C7;" d="M369.043,339.716c-0.328,0.001-0.657-0.018-0.983-0.056c-4.845-0.537-8.338-4.9-7.802-9.746
			c1.849-16.956,13.703-31.141,30.06-35.974c4.675-1.385,9.589,1.282,10.974,5.957c1.386,4.675-1.282,9.589-5.957,10.974
			c-9.541,2.822-16.452,11.1-17.526,20.991C377.312,336.33,373.538,339.71,369.043,339.716z"/>
		<rect x="211.862" y="78.618" style="fill:#BDC3C7;" width="88.276" height="150.863"/>
	</g>
	<g>
		<polygon style="fill:#95A5A5;" points="211.862,167.724 211.862,273.655 167.724,317.793 167.724,220.69 		"/>
		<polygon style="fill:#95A5A5;" points="300.138,273.655 282.483,308.966 229.517,308.966 211.862,273.655 		"/>
	</g>
	<rect x="211.862" y="229.517" style="fill:#7F8C8D;" width="88.276" height="44.138"/>
	<polygon style="fill:#95A5A5;" points="344.276,220.69 344.276,317.793 300.138,273.655 300.138,167.724 	"/>
	<path style="fill:#F29C1F;" d="M278.069,316.557c0,12.535-22.069,45.374-22.069,45.374s-22.069-32.839-22.069-45.374
		c-0.013-2.589,0.435-5.16,1.324-7.592h41.49C277.634,311.397,278.082,313.968,278.069,316.557z"/>
	<g>
		<path style="fill:#ECF0F1;" d="M397.241,450.207H114.759c-4.875,0-8.828-3.952-8.828-8.828s3.952-8.828,8.828-8.828h282.483
			c4.875,0,8.828,3.952,8.828,8.828S402.117,450.207,397.241,450.207z"/>
		<path style="fill:#ECF0F1;" d="M79.448,450.207h-8.828c-4.875,0-8.828-3.952-8.828-8.828s3.952-8.828,8.828-8.828h8.828
			c4.875,0,8.828,3.952,8.828,8.828S84.324,450.207,79.448,450.207z"/>
		<path style="fill:#ECF0F1;" d="M441.379,450.207h-8.828c-4.875,0-8.828-3.952-8.828-8.828s3.952-8.828,8.828-8.828h8.828
			c4.875,0,8.828,3.952,8.828,8.828S446.255,450.207,441.379,450.207z"/>
	</g>
	<g>
		<path style="fill:#FFFFFF;" d="M264.828,123.586h-17.655c-4.875,0-8.828-3.952-8.828-8.828s3.952-8.828,8.828-8.828h17.655
			c4.875,0,8.828,3.952,8.828,8.828S269.703,123.586,264.828,123.586z"/>
		<path style="fill:#FFFFFF;" d="M264.828,158.897h-17.655c-4.875,0-8.828-3.952-8.828-8.828s3.952-8.828,8.828-8.828h17.655
			c4.875,0,8.828,3.952,8.828,8.828S269.703,158.897,264.828,158.897z"/>
	</g>
	<path style="fill:#CC4B4C;" d="M300.138,79.448h-88.276C211.862,39.548,256,0,256,0S300.138,39.548,300.138,79.448z"/>
</g>
<g>
</g>
<g>
</g>
<g>
</g>
<g>
</g>
<g>
</g>
<g>
</g>
<g>
</g>
<g>
</g>
<g>
</g>
<g>
</g>
<g>
</g>
<g>
</g>
<g>
</g>
<g>
</g>
<g>
</g>
</svg>
