<?xml version="1.0" encoding="iso-8859-1"?>
<!-- Generator: Adobe Illustrator 19.0.0, SVG Export Plug-In . SVG Version: 6.00 Build 0)  -->
<svg version="1.1" id="Capa_1" xmlns="http://www.w3.org/2000/svg" xmlns:xlink="http://www.w3.org/1999/xlink" x="0px" y="0px"
	 viewBox="0 0 512 512" style="enable-background:new 0 0 512 512;" xml:space="preserve">
<g>
	<rect x="88.276" y="44.138" style="fill:#B0D3F0;" width="335.448" height="423.724"/>
	<path style="fill:#ECF0F1;" d="M423.724,420.811l0,20.568H88.276l0-214.775c-0.018-5.522,1.094-10.989,3.266-16.066
		c4.199-9.849,12.044-17.693,21.892-21.892c5.077-2.172,10.544-3.284,16.066-3.266c0.972,0,2.031,0,3.002,0.088
		c1.059,0.088,2.03,0.177,3.001,0.353l2.913,0.53c0.972,0.265,1.854,0.53,2.825,0.794c-0.993-3.955-1.497-8.016-1.501-12.094
		c0.04-28.441,23.111-51.473,51.552-51.465c7.071,0.023,14.065,1.464,20.569,4.237l41.312,98.781l91.101,96.927
		c17.163,8.79,27.967,26.444,27.983,45.727c-0.004,4.077-0.508,8.139-1.5,12.094c0.971-0.265,1.854-0.53,2.825-0.794l2.913-0.53
		c0.971-0.177,1.942-0.265,3.001-0.353c0.971-0.088,2.03-0.088,3.002-0.088c5.522-0.018,10.989,1.094,16.066,3.266
		c9.849,4.199,17.693,12.044,21.892,21.892C422.631,409.822,423.742,415.289,423.724,420.811z"/>
	<g>
		<path style="fill:#35495E;" d="M423.724,441.379v35.31c0.003,9.366-3.717,18.348-10.339,24.971
			c-6.623,6.622-15.605,10.342-24.971,10.339H123.586c-9.366,0.003-18.348-3.717-24.971-10.339
			c-6.623-6.623-10.342-15.605-10.339-24.971v-35.31H423.724z"/>
		<path style="fill:#35495E;" d="M423.724,35.31v35.31H88.276V35.31c-0.003-9.366,3.717-18.349,10.339-24.971
			S114.221-0.003,123.586,0h264.828c9.366-0.003,18.349,3.717,24.971,10.339C420.007,16.962,423.727,25.945,423.724,35.31z"/>
	</g>
	<path style="fill:#2C2F38;" d="M273.655,485.517h-35.31c-4.875,0-8.828-3.952-8.828-8.828s3.952-8.828,8.828-8.828h35.31
		c4.875,0,8.828,3.952,8.828,8.828S278.531,485.517,273.655,485.517z"/>
	<path style="fill:#CC4B4C;" d="M300.138,114.759h-88.276C211.862,74.858,256,35.31,256,35.31S300.138,74.858,300.138,114.759z"/>
	<rect x="211.862" y="264.828" style="fill:#7F8C8D;" width="88.276" height="44.138"/>
	<rect x="211.862" y="114.759" style="fill:#BDC3C7;" width="88.276" height="150.069"/>
	<g>
		<polygon style="fill:#95A5A5;" points="300.138,308.966 282.483,344.276 229.517,344.276 211.862,308.966 		"/>
		<polygon style="fill:#95A5A5;" points="211.862,203.034 211.862,308.966 167.724,353.103 167.724,256 		"/>
		<polygon style="fill:#95A5A5;" points="344.276,256 344.276,353.103 300.138,308.966 300.138,203.034 		"/>
	</g>
	<path style="fill:#F29C1F;" d="M278.069,351.868c0,12.535-22.069,45.374-22.069,45.374s-22.069-32.839-22.069-45.374
		c-0.013-2.589,0.436-5.16,1.324-7.592h41.49C277.633,346.708,278.082,349.278,278.069,351.868z"/>
	<g>
		<path style="fill:#FFFFFF;" d="M264.828,158.897h-17.655c-4.875,0-8.828-3.952-8.828-8.828s3.952-8.828,8.828-8.828h17.655
			c4.875,0,8.828,3.952,8.828,8.828S269.703,158.897,264.828,158.897z"/>
		<path style="fill:#FFFFFF;" d="M264.828,194.207h-17.655c-4.875,0-8.828-3.952-8.828-8.828c0-4.875,3.952-8.828,8.828-8.828
			h17.655c4.875,0,8.828,3.952,8.828,8.828C273.655,190.255,269.703,194.207,264.828,194.207z"/>
	</g>
</g>
<g>
</g>
<g>
</g>
<g>
</g>
<g>
</g>
<g>
</g>
<g>
</g>
<g>
</g>
<g>
</g>
<g>
</g>
<g>
</g>
<g>
</g>
<g>
</g>
<g>
</g>
<g>
</g>
<g>
</g>
</svg>
