<?xml version="1.0" encoding="iso-8859-1"?>
<!-- Generator: Adobe Illustrator 19.0.0, SVG Export Plug-In . SVG Version: 6.00 Build 0)  -->
<svg version="1.1" id="Capa_1" xmlns="http://www.w3.org/2000/svg" xmlns:xlink="http://www.w3.org/1999/xlink" x="0px" y="0px"
	 viewBox="0 0 512.001 512.001" style="enable-background:new 0 0 512.001 512.001;" xml:space="preserve">
<g>
	<path style="fill:#BDC3C7;" d="M508.734,196.503c-2.308-5.019-5.754-9.432-10.063-12.888l-48.463-38.577L312.321,35.311
		L277.363,7.504c-12.485-10.004-30.241-10.004-42.726,0l-34.957,27.807L61.794,145.038L13.33,183.614
		c-4.31,3.457-7.755,7.869-10.063,12.888c-2.142,4.62-3.256,9.65-3.266,14.742V476.69c-0.053,9.655,3.913,18.897,10.946,25.512
		c6.545,6.3,15.28,9.813,24.364,9.799H476.69c19.483-0.044,35.266-15.827,35.31-35.31V211.245
		C511.99,206.152,510.876,201.123,508.734,196.503z"/>
	<path style="fill:#FDD7AD;" d="M450.207,52.966v183.879l-35.31,24.276l-5.297,3.708l-97.986,67.531L276.039,356.9
		c-12.043,8.386-28.034,8.386-40.077,0l-35.575-24.541l-97.898-67.531h-0.088l-5.297-3.708l-35.31-24.276V52.966
		c0.028-9.739,7.916-17.627,17.655-17.655h353.103C442.291,35.339,450.179,43.227,450.207,52.966z"/>
	<path style="fill:#E64C3C;" d="M150.069,264.828v-88.276c-0.014-4.869-3.958-8.813-8.828-8.828h-35.31
		c-4.869,0.014-8.813,3.958-8.828,8.828v84.568L150.069,264.828z"/>
	<path style="fill:#46B29D;" d="M238.345,264.828V88.276c-0.014-4.869-3.958-8.813-8.828-8.828h-35.31
		c-4.869,0.014-8.813,3.958-8.828,8.828v176.552H238.345z"/>
	<path style="fill:#4482C3;" d="M326.621,264.828v-61.793c-0.014-4.869-3.958-8.813-8.828-8.828h-35.31
		c-4.869,0.014-8.813,3.958-8.828,8.828v61.793H326.621z"/>
	<path style="fill:#F0C419;" d="M414.897,261.12V79.449c-0.014-4.869-3.958-8.813-8.828-8.828h-35.31
		c-4.869,0.014-8.813,3.958-8.828,8.828v185.379L414.897,261.12z"/>
	<path style="fill:#7F6E5D;" d="M441.38,273.656H70.729c-4.886,0.004-8.857-3.941-8.884-8.828c-0.012-2.336,0.908-4.58,2.554-6.237
		c1.647-1.657,3.886-2.589,6.221-2.591H441.38c4.875,0,8.828,3.952,8.828,8.828S446.255,273.656,441.38,273.656z"/>
	<path style="fill:#A5A5A4;" d="M200.387,332.359L10.947,502.202c-7.034-6.615-10.999-15.857-10.946-25.512V211.245
		c0.01-5.092,1.125-10.122,3.266-14.742l58.527,40.342l35.31,24.276l5.297,3.708h0.088L200.387,332.359z"/>
	<path style="fill:#D1D4D1;" d="M501.054,502.202c-6.545,6.3-15.28,9.813-24.364,9.799H35.311
		c-9.084,0.014-17.819-3.499-24.364-9.799l189.44-169.843l35.575,24.541c12.043,8.386,28.034,8.386,40.077,0l35.575-24.541
		L501.054,502.202z"/>
	<path style="fill:#A5A5A4;" d="M512.001,211.245V476.69c0.053,9.655-3.913,18.897-10.946,25.512l-189.44-169.843l97.986-67.531
		l5.297-3.708l35.31-24.276l58.527-40.342C510.876,201.123,511.99,206.152,512.001,211.245z"/>
</g>
<g>
</g>
<g>
</g>
<g>
</g>
<g>
</g>
<g>
</g>
<g>
</g>
<g>
</g>
<g>
</g>
<g>
</g>
<g>
</g>
<g>
</g>
<g>
</g>
<g>
</g>
<g>
</g>
<g>
</g>
</svg>
