<?xml version="1.0" encoding="iso-8859-1"?>
<!-- Generator: Adobe Illustrator 19.0.0, SVG Export Plug-In . SVG Version: 6.00 Build 0)  -->
<svg version="1.1" id="Capa_1" xmlns="http://www.w3.org/2000/svg" xmlns:xlink="http://www.w3.org/1999/xlink" x="0px" y="0px"
	 viewBox="0 0 512 512" style="enable-background:new 0 0 512 512;" xml:space="preserve">
<g>
	<rect x="185.379" y="418.957" style="fill:#95A5A5;" width="141.241" height="80.066"/>
	<path style="fill:#BDC3C7;" d="M476.69,79.448H35.31c-9.366-0.003-18.349,3.717-24.971,10.339S-0.003,105.393,0,114.759v291.31
		c-0.003,9.366,3.717,18.348,10.339,24.971c6.623,6.622,15.605,10.342,24.971,10.339H476.69c9.366,0.003,18.348-3.717,24.971-10.339
		c6.622-6.623,10.342-15.605,10.339-24.971v-291.31c0.003-9.366-3.717-18.349-10.339-24.971
		C495.038,83.165,486.055,79.446,476.69,79.448z"/>
	<path style="fill:#35495E;" d="M512,370.759v-256c0.003-9.366-3.717-18.348-10.339-24.971
		c-6.623-6.623-15.605-10.342-24.971-10.339H35.31c-9.366-0.003-18.348,3.717-24.971,10.339S-0.003,105.393,0,114.759l0,256H512z"/>
	<path style="fill:#BDC3C7;" d="M123.586,476.69h264.828c4.875,0,8.828,3.952,8.828,8.828v17.655c0,4.875-3.952,8.828-8.828,8.828
		H123.586c-4.875,0-8.828-3.952-8.828-8.828v-17.655C114.759,480.642,118.711,476.69,123.586,476.69z"/>
	<path style="fill:#46B29D;" d="M256,123.586c43.878,0,79.448,35.57,79.448,79.448v8.828H176.552v-8.828
		C176.552,159.156,212.122,123.586,256,123.586z"/>
	<g>
		<polygon style="fill:#F0C419;" points="256,247.172 271.007,276.233 304.552,280.894 280.276,303.51 286.005,335.448 256,320.371 
			225.995,335.448 231.724,303.51 207.448,280.894 240.993,276.233 		"/>
		<polygon style="fill:#F0C419;" points="119.172,247.172 134.179,276.233 167.724,280.894 143.448,303.51 149.177,335.448 
			119.172,320.371 89.167,335.448 94.897,303.51 70.621,280.894 104.166,276.233 		"/>
		<polygon style="fill:#F0C419;" points="392.828,247.172 407.835,276.233 441.379,280.894 417.103,303.51 422.833,335.448 
			392.828,320.371 362.823,335.448 368.552,303.51 344.276,280.894 377.821,276.233 		"/>
	</g>
	<path style="fill:#ECF0F1;" d="M361.931,220.69H150.069c-4.875,0-8.828-3.952-8.828-8.828s3.952-8.828,8.828-8.828h211.862
		c4.875,0,8.828,3.952,8.828,8.828S366.806,220.69,361.931,220.69z"/>
	<circle style="fill:#65DDB9;" cx="256" cy="61.793" r="61.793"/>
</g>
<g>
</g>
<g>
</g>
<g>
</g>
<g>
</g>
<g>
</g>
<g>
</g>
<g>
</g>
<g>
</g>
<g>
</g>
<g>
</g>
<g>
</g>
<g>
</g>
<g>
</g>
<g>
</g>
<g>
</g>
</svg>
