<?xml version="1.0" encoding="iso-8859-1"?>
<!-- Generator: Adobe Illustrator 19.0.0, SVG Export Plug-In . SVG Version: 6.00 Build 0)  -->
<svg version="1.1" id="Capa_1" xmlns="http://www.w3.org/2000/svg" xmlns:xlink="http://www.w3.org/1999/xlink" x="0px" y="0px"
	 viewBox="0 0 512 512" style="enable-background:new 0 0 512 512;" xml:space="preserve">
<g transform="translate(0 -2)">
	<g>
		<path style="fill:#35495E;" d="M441.379,275.094H70.621c-4.875,0-8.828-3.952-8.828-8.828s3.952-8.828,8.828-8.828h370.759
			c4.875,0,8.828,3.952,8.828,8.828S446.255,275.094,441.379,275.094z"/>
		<path style="fill:#35495E;" d="M95.586,426.676c-3.58-0.001-6.805-2.163-8.165-5.474c-1.36-3.311-0.587-7.116,1.958-9.633
			l50.422-49.828l295.629-295.63c3.447-3.447,9.036-3.447,12.483,0c3.447,3.447,3.447,9.036,0,12.483L101.793,424.128
			C100.14,425.762,97.91,426.678,95.586,426.676z"/>
		<path style="fill:#35495E;" d="M426.414,454.34c-2.342,0.003-4.588-0.928-6.241-2.586L89.345,120.926
			c-3.447-3.447-3.447-9.036,0-12.483s9.036-3.447,12.483,0l330.828,330.828c2.524,2.525,3.279,6.321,1.913,9.619
			C433.202,452.188,429.984,454.339,426.414,454.34L426.414,454.34z"/>
	</g>
	<g>
		<circle style="fill:#46B29D;" cx="35.31" cy="266.266" r="35.31"/>
		<circle style="fill:#46B29D;" cx="476.69" cy="266.266" r="35.31"/>
		<circle style="fill:#46B29D;" cx="70.625" cy="442.816" r="35.311"/>
		<circle style="fill:#46B29D;" cx="467.866" cy="45.54" r="35.311"/>
		<circle style="fill:#46B29D;" cx="451.34" cy="470.46" r="35.311"/>
		<circle style="fill:#46B29D;" cx="70.621" cy="89.718" r="35.311"/>
	</g>
	<path id="SVGCleanerId_0" style="fill:#FFFFFF;" d="M35.31,275.094c-0.592-0.02-1.183-0.079-1.767-0.177
		c-0.552-0.098-1.086-0.277-1.586-0.53c-0.565-0.194-1.101-0.462-1.595-0.797c-0.44-0.35-0.879-0.703-1.319-1.056
		c-0.353-0.444-0.707-0.884-1.06-1.323c-0.336-0.492-0.603-1.027-0.793-1.591c-0.255-0.501-0.435-1.037-0.535-1.591
		c-0.1-0.583-0.157-1.172-0.172-1.763c0.014-1.155,0.254-2.296,0.707-3.358c0.426-1.08,1.055-2.068,1.853-2.91l1.319-1.06
		c0.494-0.335,1.03-0.604,1.595-0.797c0.499-0.254,1.034-0.431,1.587-0.526c1.72-0.361,3.51-0.177,5.121,0.526
		c0.542,0.177,1.05,0.447,1.5,0.797c0.526,0.353,0.974,0.707,1.414,1.06c0.799,0.842,1.428,1.83,1.854,2.909
		c0.453,1.062,0.693,2.203,0.707,3.358c-0.013,0.592-0.074,1.181-0.181,1.763c-0.093,0.554-0.27,1.091-0.526,1.591
		c-0.194,0.562-0.461,1.097-0.793,1.591c-0.353,0.44-0.707,0.879-1.06,1.323c-0.44,0.353-0.888,0.707-1.414,1.056
		c-0.45,0.351-0.958,0.62-1.5,0.797C37.603,274.84,36.464,275.08,35.31,275.094z"/>
	<path id="SVGCleanerId_1" style="fill:#FFFFFF;" d="M476.69,275.094c-0.593-0.016-1.183-0.075-1.767-0.177
		c-0.552-0.098-1.086-0.277-1.586-0.53c-0.565-0.194-1.101-0.462-1.595-0.797c-0.44-0.35-0.879-0.703-1.319-1.056
		c-0.378-0.421-0.732-0.862-1.06-1.323c-0.336-0.492-0.603-1.027-0.793-1.591c-0.255-0.501-0.435-1.037-0.535-1.591
		c-0.096-0.583-0.153-1.172-0.172-1.763c0.031-2.338,0.945-4.577,2.56-6.268l1.319-1.06c0.494-0.335,1.03-0.604,1.595-0.797
		c0.499-0.254,1.034-0.431,1.587-0.526c1.131-0.267,2.309-0.267,3.44,0c0.586,0.081,1.154,0.259,1.681,0.526
		c0.562,0.194,1.095,0.462,1.586,0.797c0.44,0.353,0.888,0.707,1.328,1.06c0.353,0.44,0.707,0.879,1.06,1.323
		c0.331,0.492,0.598,1.026,0.793,1.586c0.256,0.5,0.433,1.036,0.526,1.591c0.241,1.164,0.241,2.366,0,3.53
		c-0.093,0.554-0.27,1.091-0.526,1.591c-0.194,0.562-0.461,1.097-0.793,1.591c-0.353,0.44-0.707,0.879-1.06,1.323
		c-0.44,0.353-0.888,0.707-1.328,1.056c-0.491,0.335-1.024,0.603-1.586,0.797c-0.528,0.266-1.096,0.445-1.681,0.53
		C477.81,275.019,477.251,275.078,476.69,275.094z"/>
	<g>
		<path id="SVGCleanerId_0_1_" style="fill:#FFFFFF;" d="M35.31,275.094c-0.592-0.02-1.183-0.079-1.767-0.177
			c-0.552-0.098-1.086-0.277-1.586-0.53c-0.565-0.194-1.101-0.462-1.595-0.797c-0.44-0.35-0.879-0.703-1.319-1.056
			c-0.353-0.444-0.707-0.884-1.06-1.323c-0.336-0.492-0.603-1.027-0.793-1.591c-0.255-0.501-0.435-1.037-0.535-1.591
			c-0.1-0.583-0.157-1.172-0.172-1.763c0.014-1.155,0.254-2.296,0.707-3.358c0.426-1.08,1.055-2.068,1.853-2.91l1.319-1.06
			c0.494-0.335,1.03-0.604,1.595-0.797c0.499-0.254,1.034-0.431,1.587-0.526c1.72-0.361,3.51-0.177,5.121,0.526
			c0.542,0.177,1.05,0.447,1.5,0.797c0.526,0.353,0.974,0.707,1.414,1.06c0.799,0.842,1.428,1.83,1.854,2.909
			c0.453,1.062,0.693,2.203,0.707,3.358c-0.013,0.592-0.074,1.181-0.181,1.763c-0.093,0.554-0.27,1.091-0.526,1.591
			c-0.194,0.562-0.461,1.097-0.793,1.591c-0.353,0.44-0.707,0.879-1.06,1.323c-0.44,0.353-0.888,0.707-1.414,1.056
			c-0.45,0.351-0.958,0.62-1.5,0.797C37.603,274.84,36.464,275.08,35.31,275.094z"/>
	</g>
	<g>
		<path id="SVGCleanerId_1_1_" style="fill:#FFFFFF;" d="M476.69,275.094c-0.593-0.016-1.183-0.075-1.767-0.177
			c-0.552-0.098-1.086-0.277-1.586-0.53c-0.565-0.194-1.101-0.462-1.595-0.797c-0.44-0.35-0.879-0.703-1.319-1.056
			c-0.378-0.421-0.732-0.862-1.06-1.323c-0.336-0.492-0.603-1.027-0.793-1.591c-0.255-0.501-0.435-1.037-0.535-1.591
			c-0.096-0.583-0.153-1.172-0.172-1.763c0.031-2.338,0.945-4.577,2.56-6.268l1.319-1.06c0.494-0.335,1.03-0.604,1.595-0.797
			c0.499-0.254,1.034-0.431,1.587-0.526c1.131-0.267,2.309-0.267,3.44,0c0.586,0.081,1.154,0.259,1.681,0.526
			c0.562,0.194,1.095,0.462,1.586,0.797c0.44,0.353,0.888,0.707,1.328,1.06c0.353,0.44,0.707,0.879,1.06,1.323
			c0.331,0.492,0.598,1.026,0.793,1.586c0.256,0.5,0.433,1.036,0.526,1.591c0.241,1.164,0.241,2.366,0,3.53
			c-0.093,0.554-0.27,1.091-0.526,1.591c-0.194,0.562-0.461,1.097-0.793,1.591c-0.353,0.44-0.707,0.879-1.06,1.323
			c-0.44,0.353-0.888,0.707-1.328,1.056c-0.491,0.335-1.024,0.603-1.586,0.797c-0.528,0.266-1.096,0.445-1.681,0.53
			C477.81,275.019,477.251,275.078,476.69,275.094z"/>
	</g>
	<g>
		<path style="fill:#FFFFFF;" d="M70.621,451.646c-2.337-0.035-4.575-0.949-6.268-2.56c-1.629-1.682-2.546-3.927-2.56-6.268
			c0.014-1.155,0.254-2.296,0.707-3.358c0.447-1.068,1.074-2.053,1.853-2.91c3.539-3.267,8.995-3.267,12.534,0
			c0.779,0.857,1.406,1.841,1.854,2.909c0.453,1.062,0.693,2.203,0.707,3.358c0.023,2.348-0.9,4.607-2.56,6.267
			C75.227,450.746,72.969,451.668,70.621,451.646z"/>
		<path style="fill:#FFFFFF;" d="M467.862,54.404c-2.337-0.035-4.575-0.949-6.268-2.56c-0.779-0.859-1.406-1.844-1.854-2.914
			c-0.943-2.138-0.943-4.573,0-6.711c0.426-1.08,1.055-2.068,1.854-2.91c3.539-3.267,8.995-3.267,12.534,0
			c0.779,0.857,1.406,1.841,1.854,2.909c0.943,2.138,0.943,4.573,0,6.711c-0.448,1.07-1.075,2.055-1.854,2.914
			C472.445,53.468,470.202,54.384,467.862,54.404z"/>
		<path style="fill:#FFFFFF;" d="M451.353,479.275c-2.323,0.023-4.555-0.902-6.181-2.56c-0.849-0.785-1.512-1.75-1.939-2.824
			c-0.453-1.092-0.693-2.261-0.707-3.444c0.047-2.351,0.994-4.594,2.647-6.268c2.102-2.043,5.069-2.932,7.948-2.383
			c1.128,0.247,2.203,0.695,3.172,1.323c0.448,0.353,0.888,0.707,1.328,1.06c0.805,0.856,1.461,1.841,1.94,2.914
			c0.426,1.066,0.636,2.206,0.621,3.353c0.007,1.176-0.203,2.344-0.621,3.444c-0.459,1.057-1.118,2.016-1.94,2.823
			c-0.397,0.407-0.843,0.763-1.328,1.06c-0.479,0.328-0.981,0.623-1.5,0.884c-0.547,0.185-1.105,0.332-1.672,0.44
			C452.544,479.244,451.948,479.304,451.353,479.275z"/>
		<path style="fill:#FFFFFF;" d="M70.621,98.542c-2.337-0.035-4.575-0.949-6.268-2.56c-0.816-0.83-1.448-1.823-1.854-2.914
			c-0.943-2.138-0.943-4.573,0-6.711c0.426-1.08,1.055-2.068,1.854-2.91c2.525-2.546,6.341-3.312,9.653-1.937
			c3.312,1.375,5.463,4.618,5.442,8.204c-0.014,1.153-0.254,2.293-0.707,3.353c-0.406,1.091-1.038,2.084-1.854,2.914
			C75.194,97.592,72.957,98.506,70.621,98.542z"/>
	</g>
	<circle style="fill:#46B29D;" cx="256" cy="266.266" r="150.069"/>
	<g>
		<path style="fill:#81CCB8;" d="M297.19,363.865c-39.7,16.798-85.623,7.802-116.052-22.732c-3.453-3.41-9.012-3.393-12.443,0.039
			c-3.432,3.432-3.449,8.99-0.039,12.443c35.527,35.589,89.089,46.074,135.414,26.509c2.904-1.229,4.932-3.914,5.32-7.044
			s-0.923-6.229-3.44-8.129C303.433,363.05,300.094,362.636,297.19,363.865L297.19,363.865z"/>
		<path style="fill:#81CCB8;" d="M369.853,218.197c-6.211-14.687-15.214-28.028-26.509-39.285c-3.455-3.414-9.018-3.396-12.451,0.04
			c-3.433,3.435-3.447,8.999-0.031,12.451c30.509,30.44,39.502,76.346,22.733,116.047c-1.902,4.49,0.196,9.671,4.685,11.573
			c4.49,1.902,9.671-0.196,11.573-4.685C382.831,283.606,382.831,248.931,369.853,218.197L369.853,218.197z"/>
		<path style="fill:#81CCB8;" d="M214.81,168.667c13.028-5.523,27.039-8.357,41.19-8.332c4.875,0,8.828-3.952,8.828-8.828
			s-3.952-8.828-8.828-8.828c-32.777,0-64.212,13.02-87.389,36.197s-36.198,54.612-36.197,87.389c0,4.875,3.952,8.828,8.828,8.828
			s8.828-3.952,8.828-8.828C150.158,223.704,175.633,185.3,214.81,168.667z"/>
	</g>
	<path style="fill:#65DDB9;" d="M264.828,195.646c0-4.875-3.952-8.828-8.828-8.828s-8.828,3.952-8.828,8.828v6.047
		c-19.021,1.943-33.906,17.255-35.31,36.324c1.404,19.069,16.289,34.382,35.31,36.327v38.356
		c-9.259-1.489-16.439-8.885-17.655-18.183c0-4.875-3.952-8.828-8.828-8.828s-8.828,3.952-8.828,8.828
		c1.404,19.069,16.289,34.381,35.31,36.324v6.047c0,4.875,3.952,8.828,8.828,8.828s8.828-3.952,8.828-8.828v-6.047
		c19.021-1.943,33.906-17.255,35.31-36.324c-1.404-19.069-16.289-34.382-35.31-36.327v-38.356
		c9.259,1.489,16.439,8.885,17.655,18.183c0,4.875,3.952,8.828,8.828,8.828s8.828-3.952,8.828-8.828
		c-1.404-19.069-16.289-34.381-35.31-36.324V195.646z M229.517,238.016c1.216-9.299,8.396-16.694,17.655-18.183v36.37
		C237.913,254.712,230.733,247.316,229.517,238.016z M282.483,294.516c-1.216,9.299-8.396,16.694-17.655,18.183v-36.37
		C274.087,277.821,281.267,285.217,282.483,294.516L282.483,294.516z"/>
</g>
<g>
</g>
<g>
</g>
<g>
</g>
<g>
</g>
<g>
</g>
<g>
</g>
<g>
</g>
<g>
</g>
<g>
</g>
<g>
</g>
<g>
</g>
<g>
</g>
<g>
</g>
<g>
</g>
<g>
</g>
</svg>
