<?xml version="1.0" encoding="iso-8859-1"?>
<!-- Generator: Adobe Illustrator 19.0.0, SVG Export Plug-In . SVG Version: 6.00 Build 0)  -->
<svg version="1.1" id="Capa_1" xmlns="http://www.w3.org/2000/svg" xmlns:xlink="http://www.w3.org/1999/xlink" x="0px" y="0px"
	 viewBox="0 0 512 512" style="enable-background:new 0 0 512 512;" xml:space="preserve">
<g>
	<rect x="185.379" y="418.957" style="fill:#95A5A5;" width="141.241" height="80.066"/>
	<path style="fill:#BDC3C7;" d="M476.69,79.448H35.31c-9.366-0.003-18.349,3.717-24.971,10.339S-0.003,105.393,0,114.759v291.31
		c-0.003,9.366,3.717,18.348,10.339,24.971c6.623,6.622,15.605,10.342,24.971,10.339H476.69c9.366,0.003,18.348-3.717,24.971-10.339
		c6.622-6.623,10.342-15.605,10.339-24.971v-291.31c0.003-9.366-3.717-18.349-10.339-24.971
		C495.038,83.165,486.055,79.446,476.69,79.448z"/>
	<path style="fill:#35495E;" d="M512,370.759v-256c0.003-9.366-3.717-18.349-10.339-24.971
		c-6.623-6.623-15.605-10.342-24.971-10.339H35.31c-9.366-0.003-18.348,3.717-24.971,10.339C3.717,96.41-0.003,105.393,0,114.759
		l0,256H512z"/>
	<path style="fill:#BDC3C7;" d="M123.586,476.69h264.828c4.875,0,8.828,3.952,8.828,8.828v17.655c0,4.875-3.952,8.828-8.828,8.828
		H123.586c-4.875,0-8.828-3.952-8.828-8.828v-17.655C114.759,480.642,118.711,476.69,123.586,476.69z"/>
	<rect x="70.621" y="111.448" style="fill:#D1D4D1;" width="370.759" height="259.31"/>
	<path style="fill:#67B9CC;" d="M123.586,203.035h105.931c4.875,0,8.828,3.952,8.828,8.828v61.793c0,4.875-3.952,8.828-8.828,8.828
		H123.586c-4.875,0-8.828-3.952-8.828-8.828v-61.793C114.759,206.987,118.711,203.035,123.586,203.035z"/>
	<path style="fill:#A5A5A4;" d="M282.483,203.035h105.931c4.875,0,8.828,3.952,8.828,8.828v158.897H273.655V211.862
		C273.655,206.987,277.607,203.035,282.483,203.035z"/>
	<polygon style="fill:#CC4B4C;" points="335.448,238.345 308.966,273.655 361.931,273.655 	"/>
	<rect x="308.966" y="273.655" style="fill:#FDD7AD;" width="52.966" height="35.31"/>
	<path style="fill:#A5A5A4;" d="M238.345,326.621H114.759c-4.875,0-8.828-3.952-8.828-8.828s3.952-8.828,8.828-8.828h123.586
		c4.875,0,8.828,3.952,8.828,8.828S243.22,326.621,238.345,326.621z"/>
	<path style="fill:#CC4B4C;" d="M467.862,79.448v52.966c-0.029,9.739-7.916,17.627-17.655,17.655h-17.655
		c-9.739-0.029-17.626-7.916-17.655-17.655c-0.029,9.739-7.916,17.627-17.655,17.655h-17.655
		c-9.739-0.029-17.626-7.916-17.655-17.655c-0.029,9.739-7.916,17.627-17.655,17.655h-17.655
		c-9.739-0.029-17.626-7.916-17.655-17.655c-0.029,9.739-7.916,17.627-17.655,17.655h-17.655
		c-9.739-0.029-17.627-7.916-17.655-17.655c-0.029,9.739-7.916,17.627-17.655,17.655H220.69
		c-9.739-0.029-17.627-7.916-17.655-17.655c-0.029,9.739-7.916,17.627-17.655,17.655h-17.655
		c-9.739-0.029-17.627-7.916-17.655-17.655c-0.029,9.739-7.916,17.627-17.655,17.655h-17.655
		c-9.739-0.029-17.627-7.916-17.655-17.655c-0.029,9.739-7.916,17.627-17.655,17.655H61.793
		c-9.739-0.029-17.627-7.916-17.655-17.655V79.448l83.244-74.946c3.25-2.912,7.465-4.516,11.829-4.502h233.578
		c4.364-0.014,8.579,1.59,11.829,4.502L467.862,79.448z"/>
	<path id="SVGCleanerId_0" style="fill:#802F34;" d="M256,128c-4.875,0-8.828-3.952-8.828-8.828V66.207
		c0-4.875,3.952-8.828,8.828-8.828c4.875,0,8.828,3.952,8.828,8.828v52.966C264.828,124.048,260.875,128,256,128z"/>
	<path id="SVGCleanerId_1" style="fill:#802F34;" d="M414.897,128c-4.875,0-8.828-3.952-8.828-8.828v-35.31
		c0-4.875,3.952-8.828,8.828-8.828s8.828,3.952,8.828,8.828v35.31C423.724,124.048,419.772,128,414.897,128z"/>
	<g>
		<path id="SVGCleanerId_1_1_" style="fill:#802F34;" d="M414.897,128c-4.875,0-8.828-3.952-8.828-8.828v-35.31
			c0-4.875,3.952-8.828,8.828-8.828s8.828,3.952,8.828,8.828v35.31C423.724,124.048,419.772,128,414.897,128z"/>
	</g>
	<path id="SVGCleanerId_2" style="fill:#802F34;" d="M361.931,128c-4.875,0-8.828-3.952-8.828-8.828V75.035
		c0-4.875,3.952-8.828,8.828-8.828s8.828,3.952,8.828,8.828v44.138C370.759,124.048,366.806,128,361.931,128z"/>
	<g>
		<path id="SVGCleanerId_2_1_" style="fill:#802F34;" d="M361.931,128c-4.875,0-8.828-3.952-8.828-8.828V75.035
			c0-4.875,3.952-8.828,8.828-8.828s8.828,3.952,8.828,8.828v44.138C370.759,124.048,366.806,128,361.931,128z"/>
	</g>
	<path id="SVGCleanerId_3" style="fill:#802F34;" d="M308.966,128c-4.875,0-8.828-3.952-8.828-8.828v-35.31
		c0-4.875,3.952-8.828,8.828-8.828c4.875,0,8.828,3.952,8.828,8.828v35.31C317.793,124.048,313.841,128,308.966,128z"/>
	<g>
		<path id="SVGCleanerId_3_1_" style="fill:#802F34;" d="M308.966,128c-4.875,0-8.828-3.952-8.828-8.828v-35.31
			c0-4.875,3.952-8.828,8.828-8.828c4.875,0,8.828,3.952,8.828,8.828v35.31C317.793,124.048,313.841,128,308.966,128z"/>
	</g>
	<g>
		<path id="SVGCleanerId_0_1_" style="fill:#802F34;" d="M256,128c-4.875,0-8.828-3.952-8.828-8.828V66.207
			c0-4.875,3.952-8.828,8.828-8.828c4.875,0,8.828,3.952,8.828,8.828v52.966C264.828,124.048,260.875,128,256,128z"/>
	</g>
	<path id="SVGCleanerId_4" style="fill:#802F34;" d="M97.103,128c-4.875,0-8.828-3.952-8.828-8.828v-35.31
		c0-4.875,3.952-8.828,8.828-8.828s8.828,3.952,8.828,8.828v35.31C105.931,124.048,101.979,128,97.103,128z"/>
	<g>
		<path id="SVGCleanerId_4_1_" style="fill:#802F34;" d="M97.103,128c-4.875,0-8.828-3.952-8.828-8.828v-35.31
			c0-4.875,3.952-8.828,8.828-8.828s8.828,3.952,8.828,8.828v35.31C105.931,124.048,101.979,128,97.103,128z"/>
	</g>
	<path id="SVGCleanerId_5" style="fill:#802F34;" d="M150.069,128c-4.875,0-8.828-3.952-8.828-8.828V75.035
		c0-4.875,3.952-8.828,8.828-8.828s8.828,3.952,8.828,8.828v44.138C158.897,124.048,154.944,128,150.069,128z"/>
	<g>
		<path id="SVGCleanerId_5_1_" style="fill:#802F34;" d="M150.069,128c-4.875,0-8.828-3.952-8.828-8.828V75.035
			c0-4.875,3.952-8.828,8.828-8.828s8.828,3.952,8.828,8.828v44.138C158.897,124.048,154.944,128,150.069,128z"/>
	</g>
	<path id="SVGCleanerId_6" style="fill:#802F34;" d="M203.035,128c-4.875,0-8.828-3.952-8.828-8.828v-35.31
		c0-4.875,3.952-8.828,8.828-8.828s8.828,3.952,8.828,8.828v35.31C211.862,124.048,207.91,128,203.035,128z"/>
	<g>
		<path id="SVGCleanerId_6_1_" style="fill:#802F34;" d="M203.035,128c-4.875,0-8.828-3.952-8.828-8.828v-35.31
			c0-4.875,3.952-8.828,8.828-8.828s8.828,3.952,8.828,8.828v35.31C211.862,124.048,207.91,128,203.035,128z"/>
	</g>
</g>
<g>
</g>
<g>
</g>
<g>
</g>
<g>
</g>
<g>
</g>
<g>
</g>
<g>
</g>
<g>
</g>
<g>
</g>
<g>
</g>
<g>
</g>
<g>
</g>
<g>
</g>
<g>
</g>
<g>
</g>
</svg>
