<?xml version="1.0" encoding="iso-8859-1"?>
<!-- Generator: Adobe Illustrator 19.0.0, SVG Export Plug-In . SVG Version: 6.00 Build 0)  -->
<svg version="1.1" id="Capa_1" xmlns="http://www.w3.org/2000/svg" xmlns:xlink="http://www.w3.org/1999/xlink" x="0px" y="0px"
	 viewBox="0 0 511.932 511.932" style="enable-background:new 0 0 511.932 511.932;" xml:space="preserve">
<g>
	<circle style="fill:#C03A2B;" cx="220.69" cy="291.242" r="220.69"/>
	<circle style="fill:#ECF0F1;" cx="220.69" cy="291.242" r="167.724"/>
	<circle style="fill:#C03A2B;" cx="220.69" cy="291.242" r="114.759"/>
	<circle style="fill:#ECF0F1;" cx="220.69" cy="291.242" r="61.793"/>
	<path style="fill:#BDC3C7;" d="M506.792,129.962L381.97,5.14c-3.39-3.49-8.117-5.355-12.977-5.12
		c-4.51,0.108-8.806,1.94-12.006,5.12L176.022,186.105c-3.211,3.171-5.022,7.493-5.032,12.006h-0.088
		c-0.168,4.849,1.687,9.549,5.12,12.977l124.822,124.822c3.428,3.433,8.128,5.287,12.977,5.12v-0.088
		c4.513-0.009,8.835-1.821,12.006-5.032l180.966-180.966c3.18-3.199,5.012-7.496,5.12-12.006
		C512.147,138.079,510.282,133.352,506.792,129.962z"/>
	<path style="fill:#A5A5A4;" d="M321.854,187.783l-8.033,153.159v0.088c-4.848,0.167-9.549-1.687-12.977-5.12L176.022,211.087
		c-3.433-3.428-5.288-8.128-5.12-12.977h0.088L321.854,187.783z"/>
	<path style="fill:#D1D4D1;" d="M511.912,142.938c-0.108,4.51-1.94,8.806-5.12,12.006L325.826,335.909
		c-3.171,3.211-7.493,5.022-12.006,5.032l8.033-153.159l34.516-2.295l2.295-34.516L511.912,142.938z"/>
	<path style="fill:#A5A5A4;" d="M511.912,142.938l-153.247,8.033L368.993,0.02c4.86-0.235,9.586,1.63,12.977,5.12l124.822,124.822
		C510.282,133.352,512.147,138.079,511.912,142.938z"/>
</g>
<g>
</g>
<g>
</g>
<g>
</g>
<g>
</g>
<g>
</g>
<g>
</g>
<g>
</g>
<g>
</g>
<g>
</g>
<g>
</g>
<g>
</g>
<g>
</g>
<g>
</g>
<g>
</g>
<g>
</g>
</svg>
