<?xml version="1.0" encoding="iso-8859-1"?>
<!-- Generator: Adobe Illustrator 19.0.0, SVG Export Plug-In . SVG Version: 6.00 Build 0)  -->
<svg version="1.1" id="Layer_1" xmlns="http://www.w3.org/2000/svg" xmlns:xlink="http://www.w3.org/1999/xlink" x="0px" y="0px"
	 viewBox="0 0 505 505" style="enable-background:new 0 0 505 505;" xml:space="preserve">
<circle style="fill:#FD8469;" cx="252.5" cy="252.5" r="252.5"/>
<g>
	<rect x="362.7" y="118.1" style="fill:#FFFFFF;" width="43.4" height="253"/>
	<rect x="108" y="127.3" style="fill:#FFFFFF;" width="19" height="13.7"/>
	<rect x="108" y="170.2" style="fill:#FFFFFF;" width="19" height="13.7"/>
	<rect x="108" y="213" style="fill:#FFFFFF;" width="19" height="13.7"/>
	<rect x="108" y="255.9" style="fill:#FFFFFF;" width="19" height="13.7"/>
	<rect x="108" y="298.8" style="fill:#FFFFFF;" width="19" height="13.7"/>
	<rect x="108" y="341.7" style="fill:#FFFFFF;" width="19" height="13.7"/>
	<polygon style="fill:#FFFFFF;" points="97,407.9 97,97.1 113.9,97.1 113.9,391.1 407.9,391.1 407.9,407.9 	"/>
	<rect x="154.8" y="183" style="fill:#FFFFFF;" width="43.4" height="188.1"/>
	<rect x="224.1" y="232.7" style="fill:#FFFFFF;" width="43.4" height="138.4"/>
</g>
<rect x="362.7" y="118.1" style="fill:#54C0EB;" width="43.4" height="53.3"/>
<rect x="293.4" y="150" style="fill:#FFFFFF;" width="43.4" height="221.1"/>
<rect x="293.4" y="150" style="fill:#324A5E;" width="43.4" height="53.3"/>
<rect x="224.1" y="232.7" style="fill:#4CDBC4;" width="43.4" height="53.3"/>
<rect x="154.8" y="183" style="fill:#FFD05B;" width="43.4" height="53.3"/>
<g>
</g>
<g>
</g>
<g>
</g>
<g>
</g>
<g>
</g>
<g>
</g>
<g>
</g>
<g>
</g>
<g>
</g>
<g>
</g>
<g>
</g>
<g>
</g>
<g>
</g>
<g>
</g>
<g>
</g>
</svg>
