<?xml version="1.0" encoding="iso-8859-1"?>
<!-- Generator: Adobe Illustrator 19.0.0, SVG Export Plug-In . SVG Version: 6.00 Build 0)  -->
<svg version="1.1" id="Layer_1" xmlns="http://www.w3.org/2000/svg" xmlns:xlink="http://www.w3.org/1999/xlink" x="0px" y="0px"
	 viewBox="0 0 505 505" style="enable-background:new 0 0 505 505;" xml:space="preserve">
<circle style="fill:#FFD05B;" cx="252.5" cy="252.5" r="252.5"/>
<polygon style="fill:#FFFFFF;" points="325.6,86.1 325.6,139.7 379.1,139.7 379.1,418.9 125.9,418.9 125.9,86.1 "/>
<polygon style="fill:#E6E9EE;" points="325.6,86.1 379.1,139.7 325.6,139.7 "/>
<g>
	<rect x="149.8" y="117.5" style="fill:#4CDBC4;" width="127.8" height="9.2"/>
	<rect x="149.8" y="139.7" style="fill:#4CDBC4;" width="127.8" height="9.2"/>
	<rect x="149.8" y="161.9" style="fill:#4CDBC4;" width="127.8" height="9.2"/>
	<rect x="149.8" y="184.1" style="fill:#4CDBC4;" width="59.9" height="9.2"/>
</g>
<rect x="316.899" y="277.989" transform="matrix(-0.7071 0.7071 -0.7071 -0.7071 774.3527 291.5294)" style="fill:#2B3B4E;" width="19.8" height="56.299"/>
<circle style="fill:#324A5E;" cx="281.8" cy="261.2" r="63"/>
<circle style="fill:#84DBFF;" cx="281.8" cy="261.2" r="49.5"/>
<path style="fill:#FF7058;" d="M350.2,306.4L327,329.6c-0.7,0.7-0.7,1.9,0,2.6l73.2,73.2c0.7,0.7,1.9,0.7,2.6,0l23.2-23.2
	c0.7-0.7,0.7-1.9,0-2.6l-73.2-73.2C352.1,305.7,350.9,305.7,350.2,306.4z"/>
<path style="fill:#FFFFFF;" d="M331.1,266c-0.3,2.6-0.7,5.3-1.5,7.9h-25.9l-9.9,19.8L270,246.2l-5.1,10.2h-32.2
	c0.2-2.6,0.7-5.3,1.4-7.9h26l9.9-19.9l23.8,47.5l5.1-10.1H331.1z"/>
<g>
	<rect x="149.8" y="301.5" style="fill:#54C0EB;" width="15.3" height="84.6"/>
	<rect x="177.4" y="318.9" style="fill:#54C0EB;" width="15.3" height="67.2"/>
	<rect x="205" y="333.1" style="fill:#54C0EB;" width="15.3" height="53.1"/>
	<rect x="232.6" y="344.3" style="fill:#54C0EB;" width="15.3" height="41.9"/>
</g>
<g>
</g>
<g>
</g>
<g>
</g>
<g>
</g>
<g>
</g>
<g>
</g>
<g>
</g>
<g>
</g>
<g>
</g>
<g>
</g>
<g>
</g>
<g>
</g>
<g>
</g>
<g>
</g>
<g>
</g>
</svg>
