<?xml version="1.0" encoding="iso-8859-1"?>
<!-- Generator: Adobe Illustrator 19.0.0, SVG Export Plug-In . SVG Version: 6.00 Build 0)  -->
<svg version="1.1" id="Layer_1" xmlns="http://www.w3.org/2000/svg" xmlns:xlink="http://www.w3.org/1999/xlink" x="0px" y="0px"
	 viewBox="0 0 505 505" style="enable-background:new 0 0 505 505;" xml:space="preserve">
<circle style="fill:#FD8469;" cx="252.5" cy="252.5" r="252.5"/>
<polygon style="fill:#FFFFFF;" points="179.4,86.1 179.4,139.7 125.9,139.7 125.9,418.9 379.1,418.9 379.1,86.1 "/>
<polygon style="fill:#E6E9EE;" points="179.4,86.1 125.9,139.7 179.4,139.7 "/>
<polygon style="fill:#324A5E;" points="333.2,227.4 285.2,244.8 295.3,254.9 243.1,307.1 221.3,285.3 173.9,332.7 184.3,343.2 
	221.3,306.2 243.1,328 305.8,265.4 315.8,275.4 "/>
<polygon style="fill:#4CDBC4;" points="190.1,355.1 190.1,339 190.1,223.4 190.1,207 166.8,207 166.8,378.4 338.2,378.4 
	338.2,355.1 "/>
<g>
</g>
<g>
</g>
<g>
</g>
<g>
</g>
<g>
</g>
<g>
</g>
<g>
</g>
<g>
</g>
<g>
</g>
<g>
</g>
<g>
</g>
<g>
</g>
<g>
</g>
<g>
</g>
<g>
</g>
</svg>
