<?xml version="1.0" encoding="iso-8859-1"?>
<!-- Generator: Adobe Illustrator 19.0.0, SVG Export Plug-In . SVG Version: 6.00 Build 0)  -->
<svg version="1.1" id="Layer_1" xmlns="http://www.w3.org/2000/svg" xmlns:xlink="http://www.w3.org/1999/xlink" x="0px" y="0px"
	 viewBox="0 0 505 505" style="enable-background:new 0 0 505 505;" xml:space="preserve">
<circle style="fill:#324A5E;" cx="252.5" cy="252.5" r="252.5"/>
<path style="fill:#4CDBC4;" d="M392.4,396.6H112.6c-2.3,0-4.1-1.8-4.1-4.1V112.6c0-2.3,1.8-4.1,4.1-4.1h279.9c2.3,0,4.1,1.8,4.1,4.1
	v279.9C396.6,394.7,394.7,396.6,392.4,396.6z"/>
<rect x="132.1" y="132.1" style="fill:#FFFFFF;" width="240.8" height="240.8"/>
<path style="fill:#4CDBC4;" d="M380.2,182.2v-3.9h-53.5v-53.5h-3.9v53.5h-44.3v-53.5h-3.9v53.5h-44.2v-53.5h-3.9v53.5h-44.2v-53.5
	h-3.9v53.5h-53.5v3.9h53.5v44.3h-53.5v3.9h53.5v44.2h-53.5v3.9h53.5v44.2h-53.5v3.9h53.5v53.5h3.9v-53.5h44.2v53.5h3.9v-53.5h44.2
	v53.5h3.9v-53.5h44.2v53.5h3.9v-53.5h53.5v-3.9h-53.5v-44.2h53.5v-3.9h-53.5v-44.2h53.5v-3.9h-53.5v-44.2h53.6V182.2z M274.6,230.4
	v44.2h-44.2v-44.2L274.6,230.4L274.6,230.4z M274.6,226.5h-44.2v-44.2h44.2V226.5z M226.5,226.5h-44.2v-44.2h44.2V226.5z
	 M226.5,230.4v44.2h-44.2v-44.2L226.5,230.4L226.5,230.4z M226.5,278.5v44.2h-44.2v-44.2H226.5z M230.4,278.5h44.2v44.2h-44.2
	L230.4,278.5L230.4,278.5z M278.5,278.5h44.2v44.2h-44.2V278.5z M278.5,274.6v-44.2h44.2v44.2H278.5z M278.5,226.5v-44.2h44.2v44.2
	H278.5z"/>
<path style="fill:#FF7058;" d="M354.5,355.4V201.1c-2.3,3.4-4.7,6.7-7.3,9.8c-5.3,6.4-13.3,12.8-20.5,10c-3.3-1.3-5.5-4.4-7.5-7.3
	c-4.4-6.4-8.7-12.8-13-19.1c-15.8,16.5-30.2,33.9-43,52c-2,2.9-4.5,6.1-7.8,6.2c-0.8-12.2-8.6-23.1-19.2-26.9
	c-5.2,16.1-15.6,30.4-28.7,39.6c-4.7,3.3-9.7,6-14,9.8c-5.2,4.6-9.1,10.6-12.9,16.5c-4.5-10.1-10.3-19.3-17.2-27.2
	c-4.3,11-8.6,22-12.9,32.9v57.8h204V355.4z"/>
<g>
</g>
<g>
</g>
<g>
</g>
<g>
</g>
<g>
</g>
<g>
</g>
<g>
</g>
<g>
</g>
<g>
</g>
<g>
</g>
<g>
</g>
<g>
</g>
<g>
</g>
<g>
</g>
<g>
</g>
</svg>
