<?xml version="1.0" encoding="iso-8859-1"?>
<!-- Generator: Adobe Illustrator 19.0.0, SVG Export Plug-In . SVG Version: 6.00 Build 0)  -->
<svg version="1.1" id="Layer_1" xmlns="http://www.w3.org/2000/svg" xmlns:xlink="http://www.w3.org/1999/xlink" x="0px" y="0px"
	 viewBox="0 0 505 505" style="enable-background:new 0 0 505 505;" xml:space="preserve">
<circle style="fill:#90DFAA;" cx="252.5" cy="252.5" r="252.5"/>
<path style="fill:#324A5E;" d="M371.5,426.7h-238c-1.4,0-2.6-1.2-2.6-2.6V80.9c0-1.4,1.2-2.6,2.6-2.6h238c1.4,0,2.6,1.2,2.6,2.6
	v343.2C374.1,425.5,372.9,426.7,371.5,426.7z"/>
<rect x="159.1" y="114.6" style="fill:#FFFFFF;" width="186.8" height="258.4"/>
<g>
	<circle style="fill:#2B3B4E;" cx="252.5" cy="397.5" r="13.1"/>
	<path style="fill:#2B3B4E;" d="M296.2,102.4h-57.7c-3,0-5.5-2.4-5.5-5.5l0,0c0-3,2.4-5.5,5.5-5.5h57.7c3,0,5.5,2.4,5.5,5.5l0,0
		C301.6,100,299.2,102.4,296.2,102.4z"/>
	<path style="fill:#2B3B4E;" d="M218,102.4h-9.2c-3,0-5.5-2.4-5.5-5.5l0,0c0-3,2.4-5.5,5.5-5.5h9.2c3,0,5.5,2.4,5.5,5.5l0,0
		C223.5,100,221.1,102.4,218,102.4z"/>
</g>
<path style="fill:#84DBFF;" d="M194.1,362l-13.5,7.7l1.5,3.3h49.4c-9.7-8.5-13.6-22.4-8.7-35.2c6.3-16.4,24.6-24.6,41-18.3
	c16.4,6.3,24.6,24.6,18.3,41c-1.9,5-4.9,9.2-8.7,12.5h49.1l2.8-7.3l-13.8-6.9c1.2-7.6,1-15.2-0.7-22.5l13.5-7.7l-8.6-19.3l-14.7,4.9
	c-4.3-6-9.8-11.3-16.3-15.5l4.1-14.9l-19.8-7.6l-6.9,13.8c-7.6-1.2-15.2-1-22.5,0.7l-7.7-13.5l-19.3,8.6l4.9,14.7
	c-6,4.3-11.3,9.8-15.5,16.3l-14.9-4.1l-7.6,19.8l14,7C192.2,347.1,192.5,354.7,194.1,362z"/>
<g>
	<path style="fill:#FF7058;" d="M265.8,160.3c0,21.5-6,54-13.3,54s-13.3-32.5-13.3-54s6-23.8,13.3-23.8S265.8,138.9,265.8,160.3z"/>
	<circle style="fill:#FF7058;" cx="252.5" cy="238.1" r="10.6"/>
</g>
<g>
</g>
<g>
</g>
<g>
</g>
<g>
</g>
<g>
</g>
<g>
</g>
<g>
</g>
<g>
</g>
<g>
</g>
<g>
</g>
<g>
</g>
<g>
</g>
<g>
</g>
<g>
</g>
<g>
</g>
</svg>
