<svg id="Layer_1" enable-background="new 0 0 256 256" height="512" viewBox="0 0 256 256" width="512" xmlns="http://www.w3.org/2000/svg"><g><g><path d="m226.883 200.478h-197.766c-7.802 0-14.126-6.325-14.126-14.126v-141.262c0-7.802 6.325-14.126 14.126-14.126h197.767c7.802 0 14.126 6.325 14.126 14.126v141.262c0 7.802-6.325 14.126-14.127 14.126z" fill="#e0ebfc"/></g><g><path d="m84.053 200.478-5.495 36.221h98.884l-5.495-36.221z" fill="#e0ebfc"/></g><g><path d="m241.01 186.352v-23.713h-226.02v23.713c0 7.802 6.324 14.126 14.126 14.126h197.767c7.802 0 14.127-6.325 14.127-14.126z" fill="#4671c6"/></g><g><circle cx="128" cy="181.559" fill="#a4c9ff" r="10.584"/></g><g><path d="m225 154.767h-194c-3.641 0-6.592-2.951-6.592-6.592v-101.709c0-3.641 2.951-6.592 6.592-6.592h194c3.641 0 6.592 2.951 6.592 6.592v101.709c0 3.641-2.951 6.592-6.592 6.592z" fill="#f9cfcf"/></g><g><path d="m226.883 202.478h-197.766c-8.892 0-16.126-7.234-16.126-16.126v-141.262c0-8.892 7.234-16.126 16.126-16.126h197.767c8.892 0 16.126 7.234 16.126 16.126v141.262c0 8.892-7.235 16.126-16.127 16.126zm-197.766-169.514c-6.687 0-12.126 5.44-12.126 12.126v141.262c0 6.687 5.44 12.126 12.126 12.126h197.767c6.687 0 12.126-5.439 12.126-12.126v-141.262c0-6.686-5.44-12.126-12.126-12.126z" fill="#3762cc"/></g><g><path d="m177.442 238.699h-98.884c-.583 0-1.137-.254-1.517-.696s-.548-1.027-.461-1.604l5.495-36.221c.148-.978.989-1.7 1.978-1.7h87.895c.989 0 1.829.723 1.978 1.7l5.495 36.221c.087.576-.081 1.162-.461 1.604s-.935.696-1.518.696zm-96.558-4h94.231l-4.888-32.221h-84.455z" fill="#3762cc"/></g><g><path d="m226.883 202.478h-197.766c-8.892 0-16.126-7.234-16.126-16.126v-23.713c0-1.104.896-2 2-2h226.02c1.104 0 2 .896 2 2v23.713c-.001 8.892-7.236 16.126-16.128 16.126zm-209.893-37.839v21.713c0 6.686 5.44 12.126 12.126 12.126h197.767c6.687 0 12.126-5.44 12.126-12.126v-21.713z" fill="#3762cc"/></g><g><path d="m225 156.767h-194c-4.738 0-8.592-3.854-8.592-8.592v-101.709c0-4.738 3.854-8.592 8.592-8.592h194c4.738 0 8.592 3.854 8.592 8.592v101.708c0 4.739-3.854 8.593-8.592 8.593zm-194-114.893c-2.532 0-4.592 2.06-4.592 4.592v101.708c0 2.532 2.06 4.592 4.592 4.592h194c2.532 0 4.592-2.06 4.592-4.592v-101.708c0-2.532-2.06-4.592-4.592-4.592z" fill="#3762cc"/></g><g><path d="m188.272 248h-120.544c-3.121 0-5.65-2.53-5.65-5.65 0-3.121 2.53-5.65 5.65-5.65h120.544c3.121 0 5.65 2.53 5.65 5.65 0 3.12-2.529 5.65-5.65 5.65z" fill="#a4c9ff"/></g><g><path d="m188.272 250h-120.544c-4.218 0-7.65-3.432-7.65-7.65s3.432-7.65 7.65-7.65h120.544c4.218 0 7.65 3.432 7.65 7.65s-3.432 7.65-7.65 7.65zm-120.544-11.301c-2.013 0-3.65 1.638-3.65 3.65s1.638 3.65 3.65 3.65h120.544c2.013 0 3.65-1.638 3.65-3.65s-1.638-3.65-3.65-3.65z" fill="#3762cc"/></g><g><path d="m87.397 141.701h-42.824c-.885 0-1.603-.718-1.603-1.603s.718-1.603 1.603-1.603h42.824c.176 0 .277-.096.332-.176.054-.08.106-.21.041-.373l-2.509-6.307c-.327-.822.074-1.754.897-2.082.823-.327 1.754.074 2.082.897l2.509 6.307c.442 1.112.305 2.367-.367 3.357-.672.992-1.788 1.583-2.985 1.583z" fill="#4671c6"/></g><g><circle cx="55.503" cy="141.378" fill="#f9a7a7" r="7.701"/></g><g><circle cx="55.503" cy="141.378" fill="#4671c6" r="3.976"/></g><g><circle cx="77.941" cy="141.378" fill="#f9a7a7" r="7.701"/></g><g><circle cx="77.941" cy="141.378" fill="#4671c6" r="3.976"/></g><g><path d="m96.161 97.386c-.247-.139-.533-.194-.816-.194h-55.993c-.27 0-.543.047-.783.172-.651.34-.969 1.037-.851 1.709l5.153 29.224c.128.724.731 1.268 1.464 1.32l42.3 3.028c.038.003.077.004.115.004.72 0 1.359-.483 1.547-1.188l8.643-32.251c.185-.689-.104-1.445-.779-1.824zm-23.101 14.651h-12.098c-.443 0-.801-.359-.801-.801v-9.313c0-.443.359-.801.801-.801h12.098c.443 0 .801.359.801.801v9.313c.001.442-.358.801-.801.801zm-16.828-10.114v9.313c0 .443-.359.801-.801.801h-10.324c-.389 0-.722-.279-.789-.662l-1.642-9.313c-.087-.491.291-.941.789-.941h11.965c.443.001.802.36.802.802zm-10.15 14.044h9.348c.443 0 .801.359.801.801v8.969c0 .465-.395.833-.859.799l-7.866-.563c-.366-.026-.668-.298-.732-.66l-1.482-8.406c-.085-.491.292-.94.79-.94zm14.88 0h12.098c.443 0 .801.359.801.801v10.231c0 .465-.395.833-.859.799l-12.098-.866c-.419-.03-.744-.379-.744-.799v-9.365c.001-.443.36-.801.802-.801zm23.008 12.616-5.435-.389c-.419-.03-.744-.379-.744-.799v-10.627c0-.443.359-.801.801-.801h8.128c.658 0 1.136.624.966 1.259l-2.885 10.766c-.099.37-.448.619-.831.591zm4.492-16.546h-9.869c-.443 0-.801-.359-.801-.801v-9.313c0-.443.359-.801.801-.801h12.365c.527 0 .91.5.774 1.009l-2.495 9.313c-.095.35-.413.593-.775.593z" fill="#4671c6"/></g><g><path d="m91.547 114.752c-.137 0-.277-.018-.416-.055-.855-.229-1.362-1.108-1.133-1.963l6.266-23.388c.515-1.924 2.266-3.267 4.257-3.267h11.345c.885 0 1.603.718 1.603 1.603s-.718 1.603-1.603 1.603h-11.345c-.543 0-1.02.366-1.161.891l-6.266 23.388c-.192.716-.839 1.188-1.547 1.188z" fill="#4671c6"/></g><g><path d="m113.626 90.086h-11.319c-.443 0-.801-.359-.801-.801v-3.306c0-.443.359-.801.801-.801h11.319c.443 0 .801.359.801.801v3.306c0 .443-.358.801-.801.801z" fill="#f9a7a7"/></g><g><path d="m143.444 98.857c-.939-.629-2.183-.949-3.697-.949h-2.134c-1.428 0-2.465.137-3.172.42-.827.33-1.444.926-1.833 1.77-.306.662-.636 1.68-1.011 3.111l-3.958 14.922-3.957-14.919c-.376-1.434-.707-2.452-1.012-3.114-.39-.845-1.007-1.44-1.834-1.771-.707-.283-1.745-.42-3.172-.42h-2.134c-1.514 0-2.758.319-3.697.949-1.069.716-1.611 2.011-1.611 3.848v26.907c0 1.571.386 2.789 1.149 3.62.785.858 1.802 1.293 3.023 1.293 1.257 0 2.288-.442 3.067-1.314.748-.838 1.128-2.049 1.128-3.6v-15.268l3.451 13.715c.186.715.369 1.401.547 2.061.199.738.478 1.423.829 2.036.391.686.944 1.256 1.643 1.692.718.449 1.586.676 2.58.676 1.32 0 2.391-.36 3.184-1.072.732-.656 1.244-1.406 1.524-2.226.231-.678.532-1.746.894-3.177l3.448-13.706v15.267c0 1.553.385 2.766 1.144 3.605.785.868 1.796 1.309 3.004 1.309 1.272 0 2.311-.442 3.09-1.314.748-.838 1.128-2.049 1.128-3.6v-26.907c0-1.832-.542-3.127-1.611-3.844z" fill="#4671c6"/></g><g><path d="m175.655 99.606c-2.671-1.511-5.895-2.278-9.581-2.278-2.715 0-5.183.434-7.335 1.29-2.173.865-4.045 2.132-5.564 3.767-1.514 1.628-2.683 3.622-3.476 5.928-.783 2.276-1.18 4.807-1.18 7.522 0 2.649.38 5.151 1.129 7.437.761 2.322 1.905 4.341 3.401 6 1.502 1.669 3.399 2.979 5.636 3.891 2.216.905 4.749 1.363 7.528 1.363 2.793 0 5.317-.446 7.501-1.326 2.206-.889 4.096-2.195 5.618-3.88 1.51-1.676 2.658-3.678 3.41-5.951.742-2.244 1.118-4.763 1.118-7.487 0-3.697-.691-6.973-2.053-9.739-1.384-2.812-3.454-5.011-6.152-6.537zm-12.869 26.734c-1.009-.447-1.919-1.135-2.705-2.044-.793-.916-1.419-2.101-1.862-3.523-.454-1.457-.684-3.119-.684-4.939 0-1.804.23-3.445.683-4.878.444-1.401 1.049-2.559 1.8-3.44.739-.868 1.632-1.538 2.653-1.991 1.032-.458 2.177-.69 3.404-.69 1.729 0 3.276.42 4.597 1.248 1.31.821 2.337 2.062 3.054 3.689.743 1.687 1.12 3.727 1.12 6.062 0 2.526-.408 4.666-1.213 6.36-.781 1.646-1.834 2.873-3.128 3.646-1.31.782-2.77 1.179-4.339 1.179-1.227 0-2.364-.228-3.38-.679z" fill="#4671c6"/></g><g><path d="m217.197 98.663c-.771-.886-1.817-1.335-3.109-1.335-1.264 0-2.292.451-3.056 1.34-.725.843-1.092 2.061-1.092 3.62v16.844l-11.368-17.202c-.373-.59-.734-1.156-1.083-1.7-.383-.597-.77-1.095-1.149-1.483-.419-.429-.912-.774-1.465-1.027-.573-.261-1.249-.393-2.01-.393-.984 0-1.912.277-2.756.824-.851.552-1.474 1.284-1.856 2.189-.296.761-.441 1.739-.441 2.991v26.234c0 1.531.381 2.743 1.133 3.603.787.9 1.833 1.356 3.108 1.356 1.238 0 2.272-.448 3.072-1.331.776-.854 1.169-2.075 1.169-3.629v-16.505l11.064 16.964c.376.547.751 1.083 1.126 1.606.413.577.869 1.089 1.355 1.523.528.471 1.108.823 1.726 1.046.603.216 1.281.326 2.014.326 1.765 0 4.728-.713 4.728-5.493v-26.744c-.002-1.558-.374-2.778-1.11-3.624z" fill="#4671c6"/></g><g><path d="m167.243 45.448c0 3.801-8.423 6.224-9.536 9.653-1.154 3.555 4.195 10.458 2.042 13.417-2.175 2.988-10.408.022-13.396 2.197-2.959 2.153-2.669 10.91-6.224 12.065-3.43 1.114-8.328-6.105-12.129-6.105s-8.699 7.219-12.129 6.105c-3.555-1.154-3.265-9.911-6.224-12.065-2.988-2.175-11.221.792-13.396-2.197-2.153-2.959 3.196-9.862 2.042-13.417-1.114-3.43-9.536-5.852-9.536-9.653s8.423-6.224 9.536-9.653c1.154-3.555-4.195-10.458-2.042-13.417 2.175-2.988 10.408-.022 13.396-2.197 2.959-2.153 2.669-10.91 6.224-12.065 3.43-1.114 8.328 6.105 12.129 6.105s8.699-7.219 12.129-6.105c3.555 1.154 3.265 9.911 6.224 12.065 2.988 2.175 11.221-.792 13.396 2.197 2.153 2.959-3.196 9.862-2.042 13.417 1.113 3.43 9.536 5.852 9.536 9.653z" fill="#f9a7a7"/></g><g><path d="m149.062 49.707c-.371-1.326-.957-2.458-1.741-3.366-.791-.914-1.757-1.61-2.872-2.068-1.09-.447-2.364-.674-3.786-.674-3.012 0-5.266.96-6.699 2.855-1.368 1.808-2.061 4.475-2.061 7.927 0 2.173.374 4.041 1.111 5.554.762 1.561 1.84 2.74 3.206 3.503 1.334.747 2.863 1.125 4.543 1.125 2.712 0 4.893-.892 6.481-2.65 1.562-1.729 2.354-4.339 2.354-7.757 0-1.681-.181-3.178-.536-4.449zm-10.252.976c.15-.71.39-1.234.714-1.558.273-.273.679-.406 1.239-.406.797 0 1.266.272 1.565.91.275.586.604 1.804.604 4.278 0 2.1-.2 3.635-.594 4.562-.291.684-.762.976-1.575.976-.81 0-1.288-.289-1.599-.965-.411-.895-.62-2.4-.62-4.473 0-1.371.089-2.49.266-3.324z" fill="#4671c6"/></g><g><path d="m121.693 43.873c1.562-1.729 2.354-4.339 2.354-7.757 0-1.682-.181-3.176-.537-4.438-.37-1.312-.947-2.447-1.714-3.373-.785-.948-1.757-1.662-2.889-2.123-1.097-.446-2.374-.673-3.795-.673-1.985 0-3.658.432-4.972 1.283-1.34.867-2.317 2.145-2.906 3.797-.552 1.549-.832 3.483-.832 5.75 0 2.155.369 4.021 1.095 5.545.753 1.583 1.831 2.77 3.201 3.527 1.333.737 2.851 1.111 4.513 1.111 2.713.001 4.893-.891 6.482-2.649zm-4.916-12.335c.275.586.604 1.813.604 4.328 0 2.117-.196 3.657-.583 4.577-.284.673-.758.96-1.586.96-.541 0-.936-.134-1.208-.412-.322-.328-.555-.864-.691-1.592-.162-.865-.245-2.02-.245-3.434 0-1.363.082-2.489.244-3.345.136-.718.371-1.248.697-1.574.282-.281.675-.418 1.203-.418.797.001 1.266.273 1.565.91z" fill="#4671c6"/></g><g><path d="m141.613 27.807c0-.755-.268-1.407-.775-1.887-.491-.465-1.147-.71-1.897-.71-1.01 0-1.608.433-1.932.796-.321.36-.672.864-1.063 1.524l-20.892 33.756c-.449.673-.667 1.271-.667 1.828 0 .781.335 1.449.968 1.931.559.425 1.148.641 1.753.641 1.042 0 1.938-.629 2.646-1.845l20.782-33.506c.949-1.514 1.077-2.127 1.077-2.528z" fill="#4671c6"/></g><g><path d="m139.356 84.902c-2.333 0-4.586-1.769-6.776-3.489-1.554-1.22-3.487-2.738-4.58-2.738-1.094 0-3.027 1.519-4.58 2.738-2.622 2.06-5.334 4.188-8.167 3.269-2.935-.953-3.892-4.351-4.817-7.637-.518-1.84-1.163-4.13-1.965-4.713-.825-.6-3.224-.508-5.153-.434-3.386.13-6.888.264-8.683-2.203-1.779-2.444-.581-5.713.578-8.875.67-1.828 1.503-4.103 1.179-5.101-.294-.906-2.243-2.206-3.809-3.25-2.73-1.821-5.825-3.885-5.825-7.02s3.095-5.199 5.825-7.021c1.566-1.044 3.515-2.345 3.809-3.25.324-.998-.509-3.272-1.179-5.101-1.158-3.162-2.356-6.431-.578-8.875 1.795-2.466 5.297-2.331 8.683-2.203 1.93.074 4.33.166 5.154-.434.802-.583 1.447-2.873 1.965-4.713.925-3.286 1.882-6.684 4.817-7.637 2.832-.919 5.544 1.209 8.167 3.269 1.554 1.22 3.487 2.739 4.58 2.739 1.094 0 3.027-1.519 4.581-2.739 2.622-2.059 5.333-4.188 8.166-3.269 2.936.953 3.893 4.351 4.818 7.637.518 1.84 1.163 4.13 1.965 4.713.824.6 3.225.508 5.154.434 3.385-.128 6.888-.263 8.683 2.203 1.779 2.444.581 5.713-.578 8.875-.67 1.828-1.503 4.103-1.179 5.101.294.906 2.243 2.206 3.809 3.25 2.73 1.821 5.825 3.886 5.825 7.021s-3.095 5.199-5.825 7.021c-1.566 1.044-3.515 2.345-3.809 3.25-.324.998.509 3.272 1.179 5.101 1.158 3.162 2.356 6.431.578 8.875-1.794 2.466-5.294 2.332-8.683 2.203-1.929-.074-4.33-.166-5.154.434-.802.583-1.447 2.874-1.965 4.713-.925 3.286-1.882 6.684-4.817 7.636-.469.151-.933.22-1.393.22zm-33.937-17.059c2.041 0 3.98.217 5.405 1.254 1.923 1.399 2.705 4.177 3.461 6.863.519 1.841 1.303 4.625 2.203 4.917.81.265 3.093-1.536 4.461-2.61 2.249-1.767 4.574-3.593 7.051-3.593s4.802 1.826 7.051 3.593c1.367 1.074 3.658 2.875 4.46 2.61.9-.292 1.684-3.075 2.203-4.916.757-2.686 1.539-5.464 3.462-6.863 1.945-1.416 4.85-1.305 7.66-1.197 1.893.072 4.756.182 5.295-.56.523-.718-.493-3.49-1.099-5.146-.973-2.655-1.979-5.4-1.228-7.712.723-2.227 3.098-3.811 5.394-5.343 1.61-1.075 4.044-2.698 4.044-3.693s-2.434-2.619-4.045-3.693c-2.296-1.531-4.67-3.115-5.394-5.342-.75-2.312.255-5.057 1.228-7.712.606-1.656 1.622-4.427 1.099-5.146-.54-.741-3.402-.632-5.295-.56-2.812.107-5.716.218-7.66-1.197-1.923-1.399-2.705-4.177-3.461-6.863-.519-1.841-1.303-4.625-2.203-4.917-.813-.268-3.094 1.537-4.46 2.61-2.249 1.766-4.575 3.593-7.051 3.593s-4.802-1.827-7.051-3.593c-1.367-1.075-3.651-2.877-4.46-2.61-.9.292-1.684 3.075-2.203 4.916-.757 2.687-1.539 5.464-3.462 6.863-1.944 1.416-4.849 1.304-7.66 1.197-1.895-.073-4.756-.182-5.295.56-.523.719.493 3.49 1.099 5.146.973 2.655 1.979 5.4 1.228 7.712-.723 2.227-3.098 3.811-5.394 5.343-1.611 1.074-4.045 2.698-4.045 3.693s2.434 2.618 4.044 3.692c2.296 1.532 4.671 3.116 5.394 5.343.75 2.312-.255 5.057-1.228 7.712-.606 1.656-1.622 4.427-1.099 5.146.541.742 3.402.632 5.296.56.752-.028 1.51-.057 2.255-.057z" fill="#3762cc"/></g><g><path d="m128 194.143c-6.939 0-12.584-5.645-12.584-12.584s5.645-12.584 12.584-12.584 12.584 5.645 12.584 12.584-5.645 12.584-12.584 12.584zm0-21.168c-4.733 0-8.584 3.851-8.584 8.584s3.851 8.584 8.584 8.584 8.584-3.851 8.584-8.584-3.851-8.584-8.584-8.584z" fill="#3762cc"/></g></g></svg>