<svg id="Layer_1" enable-background="new 0 0 256 256" height="512" viewBox="0 0 256 256" width="512" xmlns="http://www.w3.org/2000/svg"><g><g><path d="m58.493 121.83h-39.765c-3.064 0-5.549-2.484-5.549-5.549 0-3.064 2.484-5.549 5.549-5.549h39.764c3.064 0 5.549 2.484 5.549 5.549 0 3.065-2.484 5.549-5.548 5.549z" fill="#f9cfcf"/></g><g><path d="m58.493 99.457h-30.517c-3.064 0-5.549-2.484-5.549-5.549 0-3.064 2.484-5.549 5.549-5.549h30.517c3.064 0 5.549 2.484 5.549 5.549-.001 3.065-2.485 5.549-5.549 5.549z" fill="#f9cfcf"/></g><g><path d="m62.56 144.203h-49.011c-3.064 0-5.549-2.484-5.549-5.549 0-3.064 2.484-5.549 5.549-5.549h49.011c3.064 0 5.549 2.484 5.549 5.549 0 3.065-2.484 5.549-5.549 5.549z" fill="#f9cfcf"/></g><g><path d="m176.701 168.337h-128.833v-93.708c0-2.554 2.07-4.624 4.624-4.624h119.585c2.554 0 4.624 2.07 4.624 4.624z" fill="#f9a7a7"/></g><g><path d="m176.7 170.337h-128.832c-1.104 0-2-.896-2-2v-93.708c0-3.652 2.972-6.624 6.624-6.624h119.585c3.652 0 6.623 2.972 6.623 6.624v93.708c0 1.105-.895 2-2 2zm-126.832-4h124.832v-91.708c0-1.447-1.177-2.624-2.623-2.624h-119.585c-1.447 0-2.624 1.177-2.624 2.624z" fill="#3762cc"/></g><g><path d="m176.701 168.337v-78.063h42.941c2.8 0 5.359 1.58 6.614 4.083l15.041 30.01c.709 1.414 1.078 2.975 1.078 4.557v39.414h-65.674z" fill="#e0ebfc"/></g><g><path d="m231.794 126.378-12.076-24.094c-.627-1.251-1.907-2.042-3.307-2.042h-26.764c-2.043 0-3.699 1.656-3.699 3.699v21.666c0 2.043 1.656 3.699 3.699 3.699l40.505-.249c1.37-.009 2.256-1.454 1.642-2.679z" fill="#a4c9ff"/></g><g><path d="m242.374 170.337h-65.674c-1.104 0-2-.896-2-2v-78.063c0-1.104.896-2 2-2h42.941c3.579 0 6.798 1.987 8.402 5.187l15.041 30.01c.844 1.685 1.289 3.57 1.289 5.453v39.414c.001 1.104-.894 1.999-1.999 1.999zm-63.674-4h61.674v-37.414c0-1.264-.3-2.53-.865-3.662l-15.041-30.009c-.921-1.837-2.771-2.979-4.826-2.979h-40.942z" fill="#3762cc"/></g><g><path d="m189.66 131.306c-3.155 0-5.712-2.557-5.712-5.699v-21.666c0-3.143 2.557-5.699 5.699-5.699h26.764c2.17 0 4.123 1.206 5.095 3.146l12.076 24.094c.601 1.198.541 2.595-.16 3.737-.7 1.143-1.918 1.829-3.259 1.837zm-.013-29.064c-.937 0-1.699.762-1.699 1.699v21.666c0 .937.763 1.699 1.699 1.699l40.25-.248-11.967-23.878c-.29-.579-.872-.938-1.519-.938z" fill="#3762cc"/></g><g><path d="m45.278 164h200.303c1.123 0 2.034.911 2.034 2.034v15.044c0 1.123-.911 2.034-2.034 2.034h-200.303c-1.123 0-2.034-.911-2.034-2.034v-15.044c0-1.123.911-2.034 2.034-2.034z" fill="#a4c9ff"/></g><g><path d="m245.966 152h-9.906c-2.247 0-4.068-1.821-4.068-4.068v-3.116c0-2.247 1.821-4.068 4.068-4.068h9.906c1.123 0 2.034.911 2.034 2.034v7.183c0 1.124-.911 2.035-2.034 2.035z" fill="#ffea92"/></g><g><path d="m245.581 185.112h-200.303c-2.224 0-4.034-1.81-4.034-4.034v-15.044c0-2.224 1.81-4.034 4.034-4.034h200.303c2.224 0 4.033 1.81 4.033 4.034v15.044c0 2.224-1.809 4.034-4.033 4.034zm-200.303-19.112c-.019 0-.034.015-.034.034v15.044l200.337.034.033-15.078z" fill="#3762cc"/></g><g><circle cx="88.3" cy="188.99" fill="#4671c6" r="25.277"/></g><g><path d="m88.3 202.245c-7.309 0-13.255-5.946-13.255-13.255s5.946-13.255 13.255-13.255 13.255 5.946 13.255 13.255c-.001 7.309-5.947 13.255-13.255 13.255z" fill="#f9cfcf"/></g><g><circle cx="204.475" cy="188.99" fill="#4671c6" r="25.277"/></g><g><circle cx="204.475" cy="188.99" fill="#f9cfcf" r="13.255"/></g><g><path d="m88.3 216.267c-15.041 0-27.277-12.236-27.277-27.276 0-15.041 12.236-27.277 27.277-27.277 15.04 0 27.276 12.236 27.276 27.277 0 15.039-12.236 27.276-27.276 27.276zm0-50.554c-12.835 0-23.277 10.442-23.277 23.277 0 12.834 10.442 23.276 23.277 23.276 12.834 0 23.276-10.442 23.276-23.276 0-12.835-10.442-23.277-23.276-23.277z" fill="#3762cc"/></g><g><path d="m88.299 204.245c-8.411 0-15.254-6.843-15.254-15.255s6.843-15.255 15.254-15.255c8.412 0 15.255 6.844 15.255 15.255s-6.843 15.255-15.255 15.255zm0-26.51c-6.206 0-11.254 5.049-11.254 11.255s5.049 11.255 11.254 11.255c6.206 0 11.255-5.049 11.255-11.255s-5.049-11.255-11.255-11.255z" fill="#3762cc"/></g><g><path d="m204.475 216.267c-15.04 0-27.276-12.236-27.276-27.276 0-15.041 12.236-27.277 27.276-27.277s27.276 12.236 27.276 27.277c0 15.039-12.236 27.276-27.276 27.276zm0-50.554c-12.835 0-23.276 10.442-23.276 23.277 0 12.834 10.441 23.276 23.276 23.276s23.276-10.442 23.276-23.276c0-12.835-10.441-23.277-23.276-23.277z" fill="#3762cc"/></g><g><path d="m204.475 204.245c-8.411 0-15.255-6.843-15.255-15.255s6.844-15.255 15.255-15.255 15.255 6.844 15.255 15.255-6.844 15.255-15.255 15.255zm0-26.51c-6.206 0-11.255 5.049-11.255 11.255s5.049 11.255 11.255 11.255 11.255-5.049 11.255-11.255-5.049-11.255-11.255-11.255z" fill="#3762cc"/></g><g><path d="m245.966 154h-9.906c-3.346 0-6.067-2.722-6.067-6.068v-3.116c0-3.346 2.722-6.068 6.067-6.068h9.906c2.225 0 4.034 1.81 4.034 4.034v7.183c0 2.225-1.81 4.035-4.034 4.035zm-9.906-11.251c-1.14 0-2.067.928-2.067 2.068v3.116c0 1.14.928 2.068 2.067 2.068h9.906c.02 0 .034-.015.034-.034v-7.183z" fill="#3762cc"/></g><g><path d="m197.386 120.486c-.512 0-1.023-.195-1.414-.586-.781-.781-.781-2.047 0-2.828l7.424-7.425c.78-.781 2.047-.781 2.828 0s.781 2.047 0 2.828l-7.424 7.425c-.39.391-.903.586-1.414.586z" fill="#e0ebfc"/></g><g><path d="m207.386 120.486c-.512 0-1.023-.195-1.414-.586-.781-.781-.781-2.047 0-2.828l7.424-7.425c.78-.781 2.047-.781 2.828 0s.781 2.047 0 2.828l-7.424 7.425c-.39.391-.903.586-1.414.586z" fill="#e0ebfc"/></g><g><circle cx="112.284" cy="81.031" fill="#6bdddd" r="39.298"/></g><g><circle cx="112.284" cy="81.031" fill="#4671c6" r="30.118"/></g><g><path d="m112.284 122.329c-22.771 0-41.298-18.526-41.298-41.297s18.526-41.298 41.298-41.298 41.298 18.526 41.298 41.298-18.526 41.297-41.298 41.297zm0-78.596c-20.566 0-37.298 16.732-37.298 37.298s16.732 37.297 37.298 37.297 37.298-16.731 37.298-37.297-16.731-37.298-37.298-37.298z" fill="#3762cc"/></g><g><path d="m102.083 98.111c-.354 0-.711-.03-1.068-.09-1.922-.326-3.556-1.497-4.483-3.212l-7.712-14.266c-1.133-2.097-.352-4.715 1.744-5.849 2.096-1.133 4.715-.353 5.849 1.744l6.291 11.638 25.273-23.001c1.763-1.604 4.492-1.476 6.097.287 1.604 1.763 1.476 4.492-.287 6.097l-27.482 25.011c-1.173 1.068-2.669 1.641-4.222 1.641z" fill="#f9a7a7"/></g></g></svg>