<svg id="Layer_1" enable-background="new 0 0 256 256" height="512" viewBox="0 0 256 256" width="512" xmlns="http://www.w3.org/2000/svg"><g><g><path d="m58.493 125.494h-39.765c-3.064 0-5.549-2.484-5.549-5.549 0-3.064 2.484-5.549 5.549-5.549h39.764c3.064 0 5.549 2.484 5.549 5.549 0 3.065-2.484 5.549-5.548 5.549z" fill="#f9cfcf"/></g><g><path d="m58.493 103.121h-30.517c-3.064 0-5.549-2.484-5.549-5.549 0-3.064 2.484-5.549 5.549-5.549h30.517c3.064 0 5.549 2.484 5.549 5.549-.001 3.065-2.485 5.549-5.549 5.549z" fill="#f9cfcf"/></g><g><path d="m62.56 147.867h-49.011c-3.064 0-5.549-2.484-5.549-5.549 0-3.064 2.484-5.549 5.549-5.549h49.011c3.064 0 5.549 2.484 5.549 5.549 0 3.065-2.484 5.549-5.549 5.549z" fill="#f9cfcf"/></g><g><path d="m176.701 172.002h-128.833v-93.709c0-2.554 2.07-4.624 4.624-4.624h119.585c2.554 0 4.624 2.07 4.624 4.624z" fill="#f9a7a7"/></g><g><path d="m176.701 174.001h-128.833c-1.104 0-2-.896-2-2v-93.708c0-3.652 2.972-6.624 6.624-6.624h119.585c3.652 0 6.624 2.972 6.624 6.624v93.708c0 1.105-.896 2-2 2zm-126.833-4h124.833v-91.708c0-1.447-1.177-2.624-2.624-2.624h-119.585c-1.447 0-2.624 1.177-2.624 2.624z" fill="#3762cc"/></g><g><path d="m176.701 172.002v-78.064h42.941c2.8 0 5.359 1.58 6.614 4.083l15.041 30.01c.709 1.414 1.078 2.975 1.078 4.557v39.414z" fill="#e0ebfc"/></g><g><path d="m231.794 130.042-12.076-24.094c-.627-1.251-1.907-2.042-3.307-2.042h-26.764c-2.043 0-3.699 1.656-3.699 3.699v21.666c0 2.043 1.656 3.699 3.699 3.699l40.505-.249c1.37-.009 2.256-1.453 1.642-2.679z" fill="#a4c9ff"/></g><g><path d="m242.375 174.001h-65.674c-1.104 0-2-.896-2-2v-78.063c0-1.104.896-2 2-2h42.941c3.579 0 6.798 1.988 8.402 5.188l15.041 30.01c.844 1.683 1.29 3.569 1.29 5.453v39.414c0 1.103-.896 1.998-2 1.998zm-63.674-4h61.674v-37.414c0-1.265-.299-2.53-.866-3.66l-15.041-30.01c-.921-1.838-2.77-2.979-4.826-2.979h-40.941z" fill="#3762cc"/></g><g><path d="m189.659 134.97c-3.154 0-5.711-2.557-5.711-5.699v-21.666c0-3.143 2.557-5.699 5.699-5.699h26.764c2.17 0 4.123 1.206 5.095 3.146l12.076 24.095c.6 1.198.54 2.595-.16 3.736-.7 1.142-1.917 1.829-3.257 1.838zm-.012-29.064c-.937 0-1.699.762-1.699 1.699v21.666c0 .937.762 1.699 1.699 1.699l40.25-.248-11.968-23.878c-.29-.578-.872-.938-1.519-.938z" fill="#3762cc"/></g><g><path d="m45.278 167.665h200.303c1.123 0 2.034.911 2.034 2.034v15.044c0 1.123-.911 2.034-2.034 2.034h-200.303c-1.123 0-2.034-.911-2.034-2.034v-15.044c0-1.124.911-2.034 2.034-2.034z" fill="#a4c9ff"/></g><g><path d="m245.966 155.664h-9.906c-2.247 0-4.068-1.821-4.068-4.068v-3.116c0-2.247 1.821-4.068 4.068-4.068h9.906c1.123 0 2.034.911 2.034 2.034v7.183c0 1.125-.911 2.035-2.034 2.035z" fill="#ffea92"/></g><g><path d="m245.581 188.776h-200.303c-2.224 0-4.034-1.81-4.034-4.034v-15.043c0-2.225 1.81-4.034 4.034-4.034h200.303c2.225 0 4.034 1.81 4.034 4.034v15.043c0 2.225-1.81 4.034-4.034 4.034zm-200.303-19.111c-.019 0-.034.015-.034.034v15.043l200.336.034.034-15.078z" fill="#3762cc"/></g><g><circle cx="88.3" cy="192.654" fill="#4671c6" r="25.277"/></g><g><path d="m88.3 205.909c-7.309 0-13.255-5.946-13.255-13.255s5.946-13.255 13.255-13.255 13.255 5.946 13.255 13.255-5.947 13.255-13.255 13.255z" fill="#f9cfcf"/></g><g><circle cx="204.475" cy="192.654" fill="#4671c6" r="25.277"/></g><g><circle cx="204.475" cy="192.654" fill="#f9cfcf" r="13.255"/></g><g><path d="m88.3 219.931c-15.041 0-27.277-12.236-27.277-27.277 0-15.04 12.236-27.276 27.277-27.276 15.04 0 27.276 12.236 27.276 27.276 0 15.041-12.236 27.277-27.276 27.277zm0-50.553c-12.835 0-23.277 10.442-23.277 23.276 0 12.835 10.442 23.277 23.277 23.277 12.834 0 23.276-10.442 23.276-23.277 0-12.834-10.442-23.276-23.276-23.276z" fill="#3762cc"/></g><g><path d="m88.299 207.909c-8.411 0-15.254-6.843-15.254-15.255s6.843-15.255 15.254-15.255c8.412 0 15.255 6.843 15.255 15.255s-6.843 15.255-15.255 15.255zm0-26.51c-6.206 0-11.254 5.049-11.254 11.255s5.049 11.255 11.254 11.255c6.206 0 11.255-5.049 11.255-11.255s-5.049-11.255-11.255-11.255z" fill="#3762cc"/></g><g><path d="m204.475 219.931c-15.04 0-27.276-12.236-27.276-27.277 0-15.04 12.236-27.276 27.276-27.276 15.041 0 27.277 12.236 27.277 27.276-.001 15.041-12.237 27.277-27.277 27.277zm0-50.553c-12.834 0-23.276 10.442-23.276 23.276 0 12.835 10.442 23.277 23.276 23.277 12.835 0 23.277-10.442 23.277-23.277-.001-12.834-10.442-23.276-23.277-23.276z" fill="#3762cc"/></g><g><path d="m204.475 207.909c-8.412 0-15.255-6.843-15.255-15.255s6.844-15.255 15.255-15.255 15.255 6.843 15.255 15.255-6.843 15.255-15.255 15.255zm0-26.51c-6.206 0-11.255 5.049-11.255 11.255s5.049 11.255 11.255 11.255 11.255-5.049 11.255-11.255-5.049-11.255-11.255-11.255z" fill="#3762cc"/></g><g><path d="m245.966 157.664h-9.906c-3.346 0-6.068-2.722-6.068-6.067v-3.116c0-3.346 2.722-6.068 6.068-6.068h9.906c2.224 0 4.034 1.81 4.034 4.034v7.184c0 2.223-1.81 4.033-4.034 4.033zm-9.906-11.251c-1.14 0-2.068.928-2.068 2.068v3.116c0 1.14.928 2.067 2.068 2.067h9.906c.019 0 .034-.015.034-.034v-7.184z" fill="#3762cc"/></g><g><path d="m104.561 44.447h15.447v22.622h-15.447z" fill="#4671c6"/></g><g><path d="m120.007 69.069h-15.447c-1.104 0-2-.896-2-2v-22.622c0-1.104.896-2 2-2h15.447c1.104 0 2 .896 2 2v22.622c0 1.104-.895 2-2 2zm-13.446-4h11.447v-18.622h-11.447z" fill="#3762cc"/></g><g><path d="m124.058 48.035h-23.548c-1.105 0-2-.895-2-2v-5.966c0-1.105.895-2 2-2h23.548c1.105 0 2 .895 2 2v5.966c0 1.104-.895 2-2 2z" fill="#6bdddd"/></g><g><path d="m124.058 50.035h-23.548c-2.206 0-4-1.794-4-4v-5.966c0-2.206 1.794-4 4-4h23.548c2.206 0 4 1.794 4 4v5.966c0 2.205-1.794 4-4 4zm-23.548-9.966v5.966h23.55l-.002-5.966z" fill="#3762cc"/></g><g><circle cx="112.284" cy="93.938" fill="#6bdddd" r="39.298"/></g><g><circle cx="112.284" cy="93.938" fill="#4671c6" r="30.118"/></g><g><path d="m112.284 135.236c-22.771 0-41.298-18.526-41.298-41.298s18.526-41.297 41.298-41.297 41.298 18.526 41.298 41.297-18.526 41.298-41.298 41.298zm0-78.595c-20.566 0-37.298 16.731-37.298 37.297s16.732 37.298 37.298 37.298 37.298-16.732 37.298-37.298-16.732-37.297-37.298-37.297z" fill="#3762cc"/></g><g><path d="m197.386 124.15c-.512 0-1.023-.195-1.414-.586-.781-.781-.781-2.047 0-2.828l7.424-7.425c.78-.781 2.047-.781 2.828 0s.781 2.047 0 2.828l-7.424 7.425c-.39.391-.903.586-1.414.586z" fill="#e0ebfc"/></g><g><path d="m207.386 124.15c-.512 0-1.023-.195-1.414-.586-.781-.781-.781-2.047 0-2.828l7.424-7.425c.78-.781 2.047-.781 2.828 0s.781 2.047 0 2.828l-7.424 7.425c-.39.391-.903.586-1.414.586z" fill="#e0ebfc"/></g><g><path d="m131.38 92.953c-1.263-5.622-4.784-11.1-6.055-12.95-.223-.325-.704-.321-.926.004-3.905 5.711-4.377 9.119-4.268 10.737.019.279-.336.412-.505.189-6.57-8.685-8.941-18.575-9.648-22.349-.097-.516-.786-.626-1.041-.167l-.152.273c-.935 1.682-4.512 5.871-4.512 5.871-19.84 23.816-9.031 34.834-9.031 34.834l.003-.001c3.366 5.919 10.064 9.913 17.743 9.761 8.85-.176 16.349-5.957 18.546-13.724l.004.002c1.725-5.224-.158-12.48-.158-12.48z" fill="#f9a7a7"/></g><g><path d="m123.839 103.446c-.764-3.391-2.895-6.694-3.664-7.81-.135-.196-.426-.194-.561.002-2.363 3.444-2.648 5.499-2.582 6.475.011.169-.204.249-.306.114-3.975-5.238-5.41-11.202-5.838-13.478-.058-.311-.476-.377-.63-.101l-.092.165c-.566 1.015-2.73 3.541-2.73 3.541-12.004 14.362-5.464 21.007-5.464 21.007l.002-.001c2.037 3.57 6.09 5.978 10.736 5.886 5.355-.106 9.892-3.592 11.222-8.277l.002.001c1.044-3.148-.095-7.524-.095-7.524z" fill="#ffea92"/></g></g></svg>