<svg id="Layer_1" enable-background="new 0 0 256 256" height="512" viewBox="0 0 256 256" width="512" xmlns="http://www.w3.org/2000/svg"><g><g><path d="m213.392 38.859-150.198 40.246-51.823 13.886c-2.425.65-3.865 3.143-3.215 5.569l28.884 107.795c.65 2.426 3.143 3.865 5.569 3.215l51.823-13.886 150.198-40.245c2.426-.65 3.865-3.143 3.215-5.569l-28.885-107.796c-.65-2.425-3.143-3.865-5.568-3.215z" fill="#4671c6"/></g><g><path d="m232.574 96.605h-155.497v120.692h155.496c2.511 0 4.547-2.036 4.547-4.547v-111.598c0-2.512-2.035-4.547-4.546-4.547z" fill="#a4c9ff"/></g><g><path d="m23.426 217.297h53.651v-120.692h-53.651c-2.511 0-4.547 2.036-4.547 4.547v111.598c.001 2.511 2.036 4.547 4.547 4.547z" fill="#e0ebfc"/></g><g><path d="m32.52 198.78v-83.659c0-2.009 1.628-3.637 3.637-3.637h23.643c2.009 0 3.637 1.628 3.637 3.637v83.659c0 2.009-1.628 3.637-3.637 3.637h-23.643c-2.009 0-3.637-1.628-3.637-3.637z" fill="#a4c9ff"/></g><g><g><path d="m77.077 104.605c-1.104 0-2-.896-2-2v-6c0-1.104.896-2 2-2s2 .896 2 2v6c0 1.104-.895 2-2 2z" fill="#3762cc"/></g><g><path d="m77.077 201.22c-1.104 0-2-.896-2-2v-12.077c0-1.104.896-2 2-2s2 .896 2 2v12.077c0 1.104-.895 2-2 2zm0-24.154c-1.104 0-2-.896-2-2v-12.077c0-1.104.896-2 2-2s2 .896 2 2v12.077c0 1.104-.895 2-2 2zm0-24.154c-1.104 0-2-.896-2-2v-12.077c0-1.104.896-2 2-2s2 .896 2 2v12.077c0 1.105-.895 2-2 2zm0-24.154c-1.104 0-2-.896-2-2v-12.077c0-1.104.896-2 2-2s2 .896 2 2v12.077c0 1.105-.895 2-2 2z" fill="#3762cc"/></g><g><path d="m77.077 219.297c-1.104 0-2-.896-2-2v-6c0-1.104.896-2 2-2s2 .896 2 2v6c0 1.104-.895 2-2 2z" fill="#3762cc"/></g></g><g><path d="m145.597 136.901c0 6.981-1.535 12.171-4.605 15.57s-7.274 5.099-12.609 5.099c-3.29 0-6.242-.721-8.854-2.166-2.613-1.443-4.651-3.701-6.112-6.771-1.463-3.07-2.193-6.816-2.193-11.239 0-4.751.567-8.717 1.7-11.897 1.132-3.18 2.969-5.592 5.509-7.237 2.541-1.645 5.785-2.467 9.732-2.467 2.851 0 5.354.439 7.511 1.316 2.155.877 3.983 2.22 5.482 4.03 1.498 1.809 2.613 4.012 3.344 6.606.729 2.596 1.095 5.648 1.095 9.156zm-10.252-.548c0-4.788-.512-8.269-1.535-10.444-1.023-2.174-2.833-3.262-5.427-3.262-1.755 0-3.152.521-4.194 1.562-1.042 1.042-1.755 2.577-2.138 4.605-.384 2.028-.575 4.615-.575 7.757 0 3.253.192 5.903.575 7.949.384 2.047 1.087 3.591 2.111 4.633 1.023 1.042 2.431 1.562 4.222 1.562 2.704 0 4.54-1.151 5.509-3.454.967-2.3 1.452-5.937 1.452-10.908zm46.819-13.322-45.667 73.628c-1.17 2.01-2.486 3.015-3.947 3.015-.842 0-1.682-.32-2.522-.959-.842-.64-1.261-1.472-1.261-2.494 0-.768.365-1.7 1.096-2.796l45.943-74.231c.803-1.352 1.507-2.366 2.11-3.043.604-.676 1.471-1.014 2.605-1.014 1.097 0 1.982.32 2.659.959.676.64 1.014 1.49 1.014 2.549-.001.768-.678 2.23-2.03 4.386zm19.572 53.508c0 6.981-1.535 12.171-4.605 15.57s-7.274 5.099-12.609 5.099c-3.327 0-6.296-.731-8.91-2.193-2.613-1.461-4.659-3.709-6.14-6.743-1.48-3.033-2.22-6.779-2.22-11.239 0-7.127 1.36-12.49 4.084-16.091 2.723-3.599 7.045-5.4 12.966-5.4 2.851 0 5.345.439 7.483 1.316 2.137.877 3.965 2.193 5.482 3.947s2.64 3.939 3.372 6.551c.731 2.613 1.097 5.674 1.097 9.183zm-10.252-.549c0-4.715-.512-8.159-1.535-10.334-1.024-2.174-2.833-3.262-5.428-3.262-1.828 0-3.254.512-4.277 1.535-1.024 1.024-1.746 2.531-2.165 4.523-.421 1.993-.63 4.578-.63 7.758 0 4.898.52 8.48 1.562 10.745 1.042 2.267 2.878 3.399 5.51 3.399 2.668 0 4.495-1.16 5.482-3.481.988-2.321 1.481-5.948 1.481-10.883z" fill="#ffea92"/></g><g><path d="m232.573 219.297h-209.146c-3.61 0-6.547-2.937-6.547-6.547v-111.599c0-3.61 2.937-6.546 6.547-6.546h209.146c3.61 0 6.547 2.937 6.547 6.546v111.599c0 3.61-2.936 6.547-6.547 6.547zm-209.146-120.692c-1.404 0-2.547 1.142-2.547 2.546v111.599c0 1.404 1.143 2.547 2.547 2.547h209.146c1.404 0 2.547-1.143 2.547-2.547v-111.599c0-1.404-1.143-2.546-2.547-2.546z" fill="#3762cc"/></g></g></svg>