<svg id="Layer_1" enable-background="new 0 0 256 256" height="512" viewBox="0 0 256 256" width="512" xmlns="http://www.w3.org/2000/svg"><g><g><path d="m142.873 39.218 40.204 60.733c.99 1.496 1.291 3.344.827 5.076l-36.394 135.823c-.895 3.34-4.328 5.322-7.668 4.427l-105.388-28.238c-3.34-.895-5.322-4.328-4.427-7.668l36.393-135.823c.464-1.732 1.649-3.183 3.254-3.983l65.184-32.495c2.831-1.41 6.269-.489 8.015 2.148z" fill="#a4c9ff"/></g><g><path d="m141.46 247.492c-.705 0-1.422-.091-2.136-.282l-105.387-28.239c-4.399-1.179-7.021-5.717-5.842-10.117l36.393-135.823c.613-2.285 2.178-4.2 4.294-5.255l65.184-32.495c3.729-1.858 8.275-.641 10.575 2.833l40.203 60.733c1.306 1.973 1.704 4.415 1.091 6.699l-36.394 135.822c-.987 3.687-4.334 6.124-7.981 6.124zm-3.814-209.078c-.641 0-1.289.145-1.896.447l-65.183 32.494c-1.092.544-1.899 1.532-2.216 2.711l-36.393 135.823c-.607 2.27.744 4.61 3.014 5.219l105.388 28.239c1.101.294 2.247.144 3.233-.426.985-.569 1.69-1.488 1.985-2.587l36.394-135.823c.315-1.178.11-2.438-.563-3.455l-40.203-60.733c-.812-1.228-2.169-1.909-3.56-1.909z" fill="#3762cc"/></g><g><path d="m156.969 33.93-58.811 52.025c-1.343 1.188-2.113 2.896-2.113 4.689v151.095c0 3.458 2.803 6.261 6.261 6.261h117.621c3.458 0 6.261-2.803 6.261-6.261v-151.094c0-1.794-.769-3.501-2.113-4.689l-58.81-52.026c-2.369-2.095-5.928-2.095-8.296 0z" fill="#e0ebfc"/></g><g><circle cx="161.117" cy="60.085" fill="#4671c6" r="9.477"/></g><g><path d="m146.681 158.226c3.719-4.118 5.605-10.392 5.605-18.647 0-4.093-.437-7.72-1.299-10.781-.882-3.129-2.254-5.832-4.078-8.035-1.851-2.233-4.139-3.915-6.802-4.998-2.612-1.063-5.666-1.601-9.075-1.601-4.746 0-8.73 1.021-11.841 3.036-3.149 2.039-5.451 5.052-6.841 8.955-1.335 3.747-2.013 8.452-2.013 13.984 0 5.214.885 9.715 2.63 13.379 1.786 3.751 4.328 6.557 7.555 8.34 3.17 1.752 6.789 2.641 10.758 2.641 6.461-.001 11.642-2.111 15.401-6.273zm-10.608-30.464c1.06 2.252 1.597 6.019 1.597 11.195 0 5.404-.514 9.367-1.529 11.78-.859 2.044-2.404 2.995-4.86 2.995-1.625 0-2.84-.432-3.713-1.322-.942-.958-1.61-2.463-1.987-4.474-.416-2.216-.626-5.154-.626-8.731 0-3.452.21-6.316.626-8.511.375-1.986 1.051-3.479 2.009-4.436.896-.896 2.104-1.331 3.692-1.331 2.358.001 3.881.902 4.791 2.835z" fill="#4671c6"/></g><g><path d="m194.018 118.893c0-1.623-.544-2.961-1.619-3.979-1.052-.993-2.412-1.496-4.042-1.496-1.724 0-3.093.555-4.07 1.651-.757.849-1.595 2.052-2.547 3.656l-52.028 84.066c-1.006 1.507-1.495 2.816-1.495 4 0 1.625.699 3.015 2.021 4.02 1.216.925 2.482 1.393 3.766 1.393 2.22 0 4.161-1.4 5.748-4.126l51.741-83.419c2.238-3.573 2.525-4.958 2.525-5.766z" fill="#4671c6"/></g><g><path d="m210.598 173.682c-.885-3.161-2.274-5.853-4.13-8-1.866-2.158-4.146-3.8-6.777-4.879-2.593-1.064-5.637-1.603-9.048-1.603-7.172 0-12.518 2.259-15.888 6.714-3.272 4.326-4.932 10.765-4.932 19.137 0 5.259.897 9.764 2.668 13.392 1.806 3.702 4.354 6.492 7.573 8.292 3.172 1.775 6.815 2.676 10.827 2.676 6.46 0 11.642-2.11 15.4-6.271 3.719-4.117 5.605-10.391 5.605-18.647 0-4.094-.436-7.731-1.298-10.811zm-26.221 10.436c0-3.483.229-6.336.682-8.48.412-1.956 1.101-3.428 2.047-4.374.875-.875 2.113-1.3 3.785-1.3 2.359 0 3.882.901 4.792 2.834 1.06 2.253 1.597 5.978 1.597 11.071 0 5.362-.524 9.313-1.558 11.744-.879 2.068-2.415 3.031-4.832 3.031-2.396 0-3.947-.946-4.88-2.978-1.084-2.357-1.633-6.242-1.633-11.548z" fill="#4671c6"/></g><g><path d="m219.928 250h-117.621c-4.556 0-8.262-3.706-8.262-8.261v-151.094c0-2.365 1.017-4.62 2.788-6.188l58.811-52.024c3.118-2.76 7.826-2.762 10.946 0l58.812 52.024c1.771 1.568 2.787 3.823 2.787 6.188v151.095c-.001 4.554-3.707 8.26-8.261 8.26zm-58.812-215.64c-1.009 0-2.018.356-2.822 1.068l-58.811 52.025c-.914.809-1.438 1.972-1.438 3.191v151.095c0 2.35 1.912 4.261 4.262 4.261h117.621c2.35 0 4.261-1.911 4.261-4.261v-151.094c0-1.22-.524-2.383-1.438-3.192l-58.812-52.024c-.804-.712-1.813-1.069-2.823-1.069zm-4.147-.429h.01z" fill="#3762cc"/></g><g><path d="m161.117 71.563c-6.329 0-11.478-5.148-11.478-11.477s5.148-11.478 11.478-11.478c6.328 0 11.477 5.149 11.477 11.478s-5.149 11.477-11.477 11.477zm0-18.955c-4.123 0-7.478 3.354-7.478 7.478s3.354 7.477 7.478 7.477 7.477-3.354 7.477-7.477-3.354-7.478-7.477-7.478z" fill="#3762cc"/></g><g><path d="m161.117 60.085c-3.59 0-6.5-2.91-6.5-6.5v-39.085c0-3.59 2.91-6.5 6.5-6.5 3.59 0 6.5 2.91 6.5 6.5v39.085c0 3.59-2.91 6.5-6.5 6.5z" fill="#f9a7a7"/></g><g><path d="m161.117 62.085c-4.687 0-8.5-3.813-8.5-8.5v-39.085c0-4.687 3.813-8.5 8.5-8.5s8.5 3.813 8.5 8.5v39.085c0 4.687-3.813 8.5-8.5 8.5zm0-52.085c-2.481 0-4.5 2.019-4.5 4.5v39.085c0 2.481 2.019 4.5 4.5 4.5s4.5-2.019 4.5-4.5v-39.085c0-2.481-2.018-4.5-4.5-4.5z" fill="#3762cc"/></g></g></svg>