<svg id="Layer_1" enable-background="new 0 0 256 256" height="512" viewBox="0 0 256 256" width="512" xmlns="http://www.w3.org/2000/svg"><g><g><path d="m215 197.708h-174c-18.225 0-33-14.775-33-33v-62c0-18.225 14.775-33 33-33h174c18.225 0 33 14.775 33 33v62c0 18.226-14.775 33-33 33z" fill="#a4c9ff"/></g><g><path d="m81 183.708h94c3.866 0 7-3.134 7-7v-86c0-3.866-3.134-7-7-7h-94c-3.866 0-7 3.134-7 7v86c0 3.866 3.134 7 7 7z" fill="#4671c6"/></g><g><path d="m42.397 107.756h-4.026c-.936 0-1.695.759-1.695 1.695v14.019c0 .509.229.991.623 1.313l4.026 3.286c.624.509 1.52.509 2.144 0l4.026-3.286c.394-.322.623-.804.623-1.313v-14.019c0-.936-.759-1.695-1.695-1.695z" fill="#f9a7a7"/></g><g><path d="m42.397 162.415h4.026c.936 0 1.695-.759 1.695-1.695v-14.02c0-.509-.229-.991-.623-1.313l-4.026-3.286c-.624-.509-1.52-.509-2.144 0l-4.026 3.286c-.394.322-.623.804-.623 1.313v14.019c0 .936.759 1.695 1.695 1.695h4.026z" fill="#f9a7a7"/></g><g><path d="m67.76 135.086v-4.026c0-.936-.759-1.695-1.695-1.695h-14.02c-.509 0-.991.229-1.313.623l-3.286 4.026c-.509.624-.509 1.52 0 2.144l3.286 4.026c.322.394.804.623 1.313.623h14.019c.936 0 1.695-.759 1.695-1.695v-4.026z" fill="#f9a7a7"/></g><g><path d="m17.096 135.086v4.026c0 .936.759 1.695 1.695 1.695h14.019c.509 0 .991-.229 1.313-.623l3.286-4.026c.509-.624.509-1.52 0-2.144l-3.286-4.026c-.322-.394-.804-.623-1.313-.623h-14.019c-.936 0-1.695.759-1.695 1.695z" fill="#f9a7a7"/></g><g><circle cx="229.617" cy="135.112" fill="#f9cfcf" r="9.287"/></g><g><circle cx="213.543" cy="117.812" fill="#f9cfcf" r="9.287"/></g><g><circle cx="213.573" cy="152.359" fill="#f9cfcf" r="9.287"/></g><g><circle cx="197.527" cy="135.112" fill="#f9cfcf" r="9.287"/></g><g><path d="m91.5 69.708h-35v-7.417c0-2.209 1.791-4 4-4h27c2.209 0 4 1.791 4 4z" fill="#6bdddd"/></g><g><path d="m199.5 69.708h-35v-7.417c0-2.209 1.791-4 4-4h27c2.209 0 4 1.791 4 4z" fill="#6bdddd"/></g><g><path d="m91.5 71.708h-35c-1.104 0-2-.896-2-2v-7.416c0-3.309 2.691-6 6-6h27c3.309 0 6 2.691 6 6v7.416c0 1.105-.896 2-2 2zm-33-4h31v-5.416c0-1.103-.897-2-2-2h-27c-1.103 0-2 .897-2 2z" fill="#3762cc"/></g><g><path d="m199.5 71.708h-35c-1.104 0-2-.896-2-2v-7.416c0-3.309 2.691-6 6-6h27c3.309 0 6 2.691 6 6v7.416c0 1.105-.896 2-2 2zm-33-4h31v-5.416c0-1.103-.897-2-2-2h-27c-1.103 0-2 .897-2 2z" fill="#3762cc"/></g><g><path d="m215 199.708h-174c-19.299 0-35-15.701-35-35v-62c0-19.299 15.701-35 35-35h174c19.299 0 35 15.701 35 35v62c0 19.299-15.701 35-35 35zm-174-128c-17.093 0-31 13.906-31 31v62c0 17.094 13.907 31 31 31h174c17.093 0 31-13.906 31-31v-62c0-17.094-13.907-31-31-31z" fill="#3762cc"/></g><g><path d="m175 185.708h-94c-4.962 0-9-4.037-9-9v-86c0-4.963 4.038-9 9-9h94c4.962 0 9 4.037 9 9v86c0 4.963-4.038 9-9 9zm-94-100c-2.757 0-5 2.243-5 5v86c0 2.757 2.243 5 5 5h94c2.757 0 5-2.243 5-5v-86c0-2.757-2.243-5-5-5z" fill="#3762cc"/></g><g><path d="m42.397 130.448c-.83 0-1.661-.276-2.338-.83l-4.024-3.284c-.863-.706-1.358-1.749-1.358-2.863v-14.02c0-2.037 1.658-3.694 3.695-3.694h8.051c2.038 0 3.695 1.657 3.695 3.694v14.02c0 1.114-.495 2.157-1.358 2.862l-4.026 3.286c-.677.553-1.507.829-2.337.829zm-3.721-7.122 3.721 3.036 3.721-3.036v-13.569h-7.441v13.569zm7.746-13.569h.01z" fill="#3762cc"/></g><g><path d="m46.422 164.415h-8.051c-2.037 0-3.695-1.657-3.695-3.695v-14.02c0-1.116.496-2.159 1.36-2.863l4.024-3.285c1.354-1.104 3.318-1.104 4.672 0l4.026 3.287c.863.702 1.359 1.746 1.359 2.861v14.02c.001 2.038-1.657 3.695-3.695 3.695zm-7.746-4h7.441v-13.569l-3.721-3.037-3.721 3.037v13.569z" fill="#3762cc"/></g><g><path d="m66.064 142.807h-14.019c-1.114 0-2.158-.496-2.863-1.36l-3.286-4.024c-1.104-1.354-1.104-3.318-.001-4.672l3.287-4.026c.704-.863 1.747-1.358 2.862-1.358h14.019c2.038 0 3.695 1.657 3.695 3.694v8.052c.002 2.036-1.656 3.694-3.694 3.694zm-13.873-4h13.569v-7.441h-13.57l-3.037 3.721z" fill="#3762cc"/></g><g><path d="m32.81 142.807h-14.019c-2.038 0-3.695-1.657-3.695-3.695v-8.052c0-2.037 1.658-3.694 3.695-3.694h14.019c1.115 0 2.159.495 2.863 1.359l3.286 4.024c1.104 1.354 1.104 3.318.001 4.672l-3.287 4.026c-.705.864-1.749 1.36-2.863 1.36zm-13.714-4h13.569l3.038-3.722-3.037-3.72h-13.57z" fill="#3762cc"/></g><g><path d="m229.617 146.399c-6.224 0-11.287-5.063-11.287-11.287s5.063-11.287 11.287-11.287 11.287 5.063 11.287 11.287-5.063 11.287-11.287 11.287zm0-18.574c-4.018 0-7.287 3.269-7.287 7.287s3.269 7.287 7.287 7.287 7.287-3.269 7.287-7.287-3.269-7.287-7.287-7.287z" fill="#3762cc"/></g><g><path d="m213.543 129.099c-6.224 0-11.287-5.063-11.287-11.287s5.063-11.286 11.287-11.286 11.287 5.063 11.287 11.286-5.063 11.287-11.287 11.287zm0-18.574c-4.018 0-7.287 3.269-7.287 7.286 0 4.019 3.269 7.287 7.287 7.287s7.287-3.269 7.287-7.287c0-4.017-3.269-7.286-7.287-7.286z" fill="#3762cc"/></g><g><path d="m213.573 163.646c-6.224 0-11.287-5.063-11.287-11.287s5.063-11.287 11.287-11.287 11.287 5.063 11.287 11.287-5.064 11.287-11.287 11.287zm0-18.574c-4.018 0-7.287 3.269-7.287 7.287s3.269 7.287 7.287 7.287 7.287-3.269 7.287-7.287-3.269-7.287-7.287-7.287z" fill="#3762cc"/></g><g><path d="m197.527 146.399c-6.224 0-11.287-5.063-11.287-11.287s5.063-11.287 11.287-11.287 11.287 5.063 11.287 11.287-5.063 11.287-11.287 11.287zm0-18.574c-4.018 0-7.287 3.269-7.287 7.287s3.269 7.287 7.287 7.287 7.287-3.269 7.287-7.287-3.269-7.287-7.287-7.287z" fill="#3762cc"/></g></g></svg>