<svg id="Layer_1" enable-background="new 0 0 256 256" height="512" viewBox="0 0 256 256" width="512" xmlns="http://www.w3.org/2000/svg"><g><g><path d="m206.022 76.937h-31.805v-27.321c0-2.477 2.008-4.484 4.484-4.484h22.837c2.477 0 4.484 2.008 4.484 4.484z" fill="#e0ebfc"/></g><g><path d="m81.778 76.937h-31.805v-27.321c0-2.477 2.008-4.484 4.484-4.484h22.837c2.477 0 4.484 2.008 4.484 4.484z" fill="#e0ebfc"/></g><g><path d="m206.022 78.938h-31.806c-1.104 0-2-.896-2-2v-27.322c0-3.575 2.909-6.484 6.484-6.484h22.837c3.575 0 6.484 2.909 6.484 6.484v27.321c.001 1.105-.894 2.001-1.999 2.001zm-29.805-4h27.806v-25.322c0-1.37-1.114-2.484-2.484-2.484h-22.837c-1.37 0-2.484 1.114-2.484 2.484v25.322z" fill="#3762cc"/></g><g><path d="m81.778 78.938h-31.805c-1.104 0-2-.896-2-2v-27.322c0-3.575 2.909-6.484 6.484-6.484h22.837c3.575 0 6.484 2.909 6.484 6.484v27.321c0 1.105-.895 2.001-2 2.001zm-29.805-4h27.806v-25.322c0-1.37-1.114-2.484-2.484-2.484h-22.838c-1.37 0-2.484 1.114-2.484 2.484z" fill="#3762cc"/></g><g><path d="m184.164 56.607c-18.595 2.691-37.36 4.042-56.15 4.042-18.789 0-37.554-1.351-56.15-4.042l-9.956-1.441v80.026l9.956-1.441c18.595-2.691 37.36-4.042 56.15-4.042 18.789 0 37.554 1.351 56.15 4.042l9.956 1.441c0-16.79 0-65.345 0-80.026z" fill="#4671c6"/></g><g><path d="m194.119 137.192c-.096 0-.191-.007-.286-.021l-9.955-1.441c-18.437-2.669-37.232-4.021-55.864-4.021-18.631 0-37.427 1.353-55.863 4.021l-9.956 1.441c-.568.082-1.156-.087-1.595-.468-.439-.38-.691-.932-.691-1.512v-80.025c0-.58.252-1.132.691-1.512.438-.381 1.027-.55 1.595-.468l9.956 1.441c18.436 2.669 37.231 4.021 55.863 4.021s37.428-1.353 55.864-4.021l9.955-1.441c.566-.082 1.156.087 1.595.468.439.38.691.932.691 1.512v80.026c0 .58-.252 1.132-.691 1.512-.365.317-.831.488-1.309.488zm-130.211-79.715v75.405l7.67-1.11c18.625-2.695 37.613-4.063 56.436-4.063s37.812 1.367 56.437 4.063l7.669 1.11v-75.405l-7.669 1.11c-18.625 2.695-37.613 4.063-56.437 4.063s-37.812-1.367-56.436-4.063zm120.256-.87h.01z" fill="#3762cc"/></g><g><path d="m192.454 103.892-40.22 10.777 36.233 79.84c5.595 12.329 19.288 18.8 32.366 15.296 13.078-3.504 21.701-15.955 20.382-29.43l-8.541-87.26z" fill="#4671c6"/></g><g><path d="m63.574 103.892 40.22 10.777-36.268 79.955c-5.593 12.329-19.285 18.802-32.362 15.298-13.077-3.504-21.699-15.955-20.378-29.429l8.568-87.378z" fill="#4671c6"/></g><g><path d="m213.599 212.763c-11.402.001-22.032-6.587-26.952-17.428l-36.233-79.84c-.243-.535-.238-1.149.013-1.681s.724-.925 1.291-1.077l40.22-10.777 40.22-10.776c.569-.152 1.174-.046 1.656.287.483.335.795.865.852 1.45l8.541 87.259c1.421 14.511-7.771 27.782-21.854 31.557-2.587.692-5.192 1.026-7.754 1.026zm-58.569-96.773 35.259 77.692c5.213 11.486 17.836 17.458 30.026 14.19 12.186-3.266 20.139-14.748 18.909-27.303l-8.312-84.913z" fill="#3762cc"/></g><g><path d="m42.397 212.88c-2.564 0-5.166-.333-7.752-1.026-14.084-3.773-23.273-17.045-21.851-31.557l8.568-87.377c.057-.585.368-1.114.852-1.449.482-.334 1.088-.439 1.656-.287l40.22 10.776 40.22 10.777c.567.152 1.039.546 1.291 1.077.251.531.256 1.146.013 1.681l-36.267 79.955c-4.918 10.841-15.549 17.43-26.95 17.43zm-17.283-117.223-8.339 85.03c-1.231 12.555 6.72 24.037 18.905 27.303 12.186 3.262 24.813-2.704 30.023-14.192l35.293-77.808z" fill="#3762cc"/></g><g><path d="m136.02 98.946h-16.009c-2.08 0-3.767-1.686-3.767-3.767 0-2.08 1.686-3.767 3.767-3.767h16.009c2.08 0 3.767 1.686 3.767 3.767-.001 2.08-1.687 3.767-3.767 3.767z" fill="#f9a7a7"/></g><g><circle cx="190.12" cy="95.179" fill="#a4c9ff" r="42.6"/></g><g><path d="m190.093 127.028c-14.367 0-27.002-9.708-30.727-23.608-2.201-8.215-1.071-16.795 3.181-24.16s11.118-12.633 19.331-14.834c2.713-.727 5.495-1.096 8.268-1.096 14.366 0 27.002 9.708 30.727 23.608 2.201 8.214 1.071 16.794-3.181 24.159s-11.118 12.633-19.332 14.834c-2.713.728-5.494 1.097-8.267 1.097z" fill="#e0ebfc"/></g><g><circle cx="65.908" cy="95.179" fill="#a4c9ff" r="42.6"/></g><g><path d="m65.936 127.028c-2.774 0-5.555-.369-8.268-1.096-8.214-2.201-15.08-7.469-19.332-14.834s-5.382-15.945-3.181-24.159c3.725-13.9 16.36-23.608 30.727-23.608 2.773 0 5.554.369 8.268 1.096 8.213 2.201 15.079 7.469 19.331 14.834s5.382 15.945 3.181 24.159c-3.725 13.899-16.36 23.608-30.726 23.608z" fill="#e0ebfc"/></g><g><path d="m65.875 68.376h-4.26c-.991 0-1.794.803-1.794 1.794v14.835c0 .539.242 1.049.66 1.39l4.26 3.477c.66.539 1.608.539 2.268 0l4.26-3.477c.417-.341.66-.851.66-1.39v-14.836c0-.991-.803-1.794-1.794-1.794h-4.26z" fill="#6bdddd"/></g><g><path d="m65.875 121.982h4.26c.991 0 1.794-.803 1.794-1.794v-14.835c0-.539-.242-1.049-.66-1.39l-4.26-3.477c-.66-.539-1.608-.539-2.268 0l-4.26 3.477c-.417.341-.66.851-.66 1.39v14.835c0 .991.803 1.794 1.794 1.794z" fill="#6bdddd"/></g><g><path d="m92.714 95.179v-4.26c0-.991-.803-1.794-1.794-1.794h-14.835c-.539 0-1.049.242-1.39.66l-3.477 4.26c-.539.66-.539 1.608 0 2.268l3.477 4.26c.341.417.851.66 1.39.66h14.835c.991 0 1.794-.803 1.794-1.794z" fill="#6bdddd"/></g><g><path d="m39.102 95.179v4.26c0 .991.803 1.794 1.794 1.794h14.835c.539 0 1.049-.242 1.39-.66l3.477-4.26c.539-.66.539-1.608 0-2.268l-3.477-4.26c-.341-.417-.851-.66-1.39-.66h-14.836c-.991 0-1.794.803-1.794 1.794v4.26z" fill="#6bdddd"/></g><g><circle cx="190.087" cy="79.279" fill="#6bdddd" r="9.119"/></g><g><circle cx="206.022" cy="95.179" fill="#6bdddd" r="9.119"/></g><g><circle cx="190.12" cy="111.595" fill="#6bdddd" r="9.119"/></g><g><circle cx="174.217" cy="95.179" fill="#6bdddd" r="9.119"/></g><g><path d="m190.129 139.784c-19.691.001-37.757-13.157-43.09-33.062-6.364-23.755 7.783-48.259 31.537-54.624 23.754-6.369 48.258 7.783 54.623 31.537 3.084 11.507 1.502 23.526-4.455 33.843-5.956 10.317-15.574 17.697-27.081 20.78-3.85 1.033-7.725 1.526-11.534 1.526zm-.02-85.21c-3.469 0-6.991.448-10.498 1.388-21.623 5.795-34.502 28.102-28.709 49.726 5.795 21.624 28.105 34.5 49.726 28.708 10.475-2.807 19.23-9.524 24.652-18.916 5.422-9.393 6.862-20.333 4.056-30.809-4.855-18.117-21.302-30.097-39.227-30.097z" fill="#3762cc"/></g><g><path d="m65.981 139.798c-3.875 0-7.773-.509-11.616-1.539-11.507-3.083-21.125-10.463-27.082-20.779-5.956-10.317-7.539-22.337-4.455-33.844 6.363-23.754 30.862-37.904 54.623-31.537 23.755 6.365 37.902 30.87 31.537 54.624-3.083 11.507-10.463 21.125-20.78 27.081-6.871 3.967-14.499 5.994-22.227 5.994zm-.063-85.224c-17.926 0-34.372 11.979-39.227 30.097-2.807 10.476-1.366 21.416 4.056 30.808 5.423 9.393 14.178 16.11 24.653 18.917 10.475 2.808 21.416 1.367 30.809-4.056 9.392-5.422 16.109-14.178 18.916-24.652 5.794-21.624-7.085-43.931-28.709-49.726-3.506-.94-7.03-1.388-10.498-1.388zm-41.158 29.579h.01z" fill="#3762cc"/></g><g><path d="m65.876 92.271c-.853 0-1.704-.283-2.399-.852l-4.26-3.476c-.887-.724-1.396-1.795-1.396-2.939v-14.835c0-2.092 1.702-3.793 3.794-3.793h8.521c2.092 0 3.793 1.701 3.793 3.793v14.836c0 1.144-.508 2.215-1.394 2.938l-4.261 3.478c-.695.567-1.546.85-2.398.85zm-4.055-7.365 4.055 3.309 4.053-3.308v-14.531h-8.107v14.53zm8.315-14.53h.01z" fill="#3762cc"/></g><g><path d="m70.136 123.982h-8.521c-2.092 0-3.794-1.702-3.794-3.794v-14.835c0-1.145.509-2.216 1.396-2.939l4.259-3.477c1.392-1.136 3.408-1.135 4.798.001l4.26 3.476c.887.725 1.395 1.796 1.395 2.939v14.835c0 2.092-1.701 3.794-3.793 3.794zm-8.315-4h8.107v-14.531l-4.054-3.308-4.054 3.309v14.53z" fill="#3762cc"/></g><g><path d="m90.921 103.232h-14.836c-1.144 0-2.215-.508-2.938-1.394l-3.478-4.261c-1.135-1.39-1.135-3.408.001-4.798l3.476-4.26c.724-.887 1.795-1.396 2.939-1.396h14.836c2.092 0 3.793 1.702 3.793 3.794v8.521c0 2.093-1.701 3.794-3.793 3.794zm-14.738-4h14.531v-8.107h-14.53l-3.309 4.055z" fill="#3762cc"/></g><g><path d="m55.73 103.232h-14.834c-2.092 0-3.794-1.701-3.794-3.793v-8.521c0-2.092 1.702-3.794 3.794-3.794h14.834c1.145 0 2.216.509 2.939 1.396l3.477 4.259c1.135 1.39 1.135 3.408-.001 4.798l-3.476 4.26c-.724.888-1.795 1.395-2.939 1.395zm-14.628-4h14.531l3.308-4.054-3.309-4.054h-14.53z" fill="#3762cc"/></g><g><path d="m190.087 90.397c-6.131 0-11.119-4.987-11.119-11.118s4.988-11.119 11.119-11.119 11.118 4.988 11.118 11.119-4.987 11.118-11.118 11.118zm0-18.237c-3.926 0-7.119 3.193-7.119 7.119 0 3.925 3.193 7.118 7.119 7.118 3.925 0 7.118-3.193 7.118-7.118s-3.193-7.119-7.118-7.119z" fill="#3762cc"/></g><g><path d="m206.022 106.298c-6.131 0-11.119-4.988-11.119-11.119s4.988-11.118 11.119-11.118 11.118 4.987 11.118 11.118-4.987 11.119-11.118 11.119zm0-18.237c-3.926 0-7.119 3.193-7.119 7.118 0 3.926 3.193 7.119 7.119 7.119 3.925 0 7.118-3.193 7.118-7.119.001-3.925-3.193-7.118-7.118-7.118z" fill="#3762cc"/></g><g><path d="m190.12 122.714c-6.131 0-11.119-4.988-11.119-11.119s4.988-11.118 11.119-11.118 11.118 4.987 11.118 11.118-4.987 11.119-11.118 11.119zm0-18.237c-3.926 0-7.119 3.193-7.119 7.118 0 3.926 3.193 7.119 7.119 7.119 3.925 0 7.118-3.193 7.118-7.119 0-3.925-3.193-7.118-7.118-7.118z" fill="#3762cc"/></g><g><path d="m174.217 106.298c-6.131 0-11.119-4.988-11.119-11.119s4.988-11.118 11.119-11.118 11.119 4.987 11.119 11.118-4.988 11.119-11.119 11.119zm0-18.237c-3.926 0-7.119 3.193-7.119 7.118 0 3.926 3.193 7.119 7.119 7.119s7.119-3.193 7.119-7.119c0-3.925-3.193-7.118-7.119-7.118z" fill="#3762cc"/></g></g></svg>