<svg id="Layer_1" enable-background="new 0 0 256 256" height="512" viewBox="0 0 256 256" width="512" xmlns="http://www.w3.org/2000/svg"><g><g><path d="m137.34 69.578h-21.268c-4.307 0-7.798 3.491-7.798 7.798v12.288c0 4.307 3.491 7.798 7.798 7.798h42.063v-7.089c.001-11.485-9.31-20.795-20.795-20.795zm11.03 19.767h-26c-2.392 0-4.33-1.939-4.33-4.33v-2.99c0-2.392 1.939-4.33 4.33-4.33h14.35c6.434 0 11.65 5.216 11.65 11.65z" fill="#f9a7a7"/></g><g><path d="m200.199 69.578h-21.268c-11.485 0-20.795 9.31-20.795 20.795v7.089h42.063c4.307 0 7.798-3.491 7.798-7.798v-12.288c.001-4.307-3.491-7.798-7.798-7.798zm-1.967 15.437c0 2.392-1.939 4.33-4.33 4.33h-26c0-6.434 5.216-11.65 11.65-11.65h14.35c2.392 0 4.33 1.939 4.33 4.33z" fill="#f9a7a7"/></g><g><path d="m158.136 99.462h-42.063c-5.403 0-9.798-4.396-9.798-9.798v-12.288c0-5.403 4.396-9.798 9.798-9.798h21.268c12.569 0 22.796 10.226 22.796 22.795v7.089c-.001 1.105-.897 2-2.001 2zm-42.064-27.884c-3.197 0-5.798 2.601-5.798 5.798v12.288c0 3.197 2.601 5.798 5.798 5.798h40.063v-5.089c0-10.364-8.432-18.795-18.796-18.795zm32.298 19.767h-26c-3.491 0-6.331-2.84-6.331-6.33v-2.99c0-3.49 2.84-6.33 6.331-6.33h14.35c7.526 0 13.65 6.124 13.65 13.65 0 1.105-.895 2-2 2zm-26-11.65c-1.285 0-2.331 1.045-2.331 2.33v2.99c0 1.285 1.045 2.33 2.331 2.33h23.792c-.924-4.364-4.807-7.65-9.442-7.65z" fill="#3762cc"/></g><g><path d="m200.199 99.462h-42.063c-1.104 0-2-.896-2-2v-7.089c0-12.569 10.226-22.795 22.795-22.795h21.269c5.402 0 9.798 4.396 9.798 9.798v12.288c-.001 5.403-4.396 9.798-9.799 9.798zm-40.063-4h40.063c3.197 0 5.798-2.601 5.798-5.798v-12.288c0-3.197-2.601-5.798-5.798-5.798h-21.269c-10.363 0-18.795 8.432-18.795 18.795v5.089zm33.765-4.117h-26c-1.104 0-2-.896-2-2 0-7.526 6.124-13.65 13.65-13.65h14.35c3.49 0 6.33 2.84 6.33 6.33v2.99c0 3.49-2.839 6.33-6.33 6.33zm-23.792-4h23.792c1.285 0 2.33-1.045 2.33-2.33v-2.99c0-1.285-1.045-2.33-2.33-2.33h-14.35c-4.635 0-8.518 3.286-9.442 7.65z" fill="#3762cc"/></g><g><path d="m224.421 97.463h-132.571c-1.566 0-2.836 1.27-2.836 2.836v17.96c0 1.566 1.27 2.836 2.836 2.836h132.571c1.566 0 2.836-1.27 2.836-2.836v-17.96c0-1.567-1.27-2.836-2.836-2.836z" fill="#4671c6"/></g><g><path d="m94.471 121.094v82.105c0 2.814 2.281 5.094 5.094 5.094h117.14c2.814 0 5.094-2.281 5.094-5.094v-82.105z" fill="#4671c6"/></g><g><path d="m143.957 97.463h28.357v23.631h-28.357z" fill="#f9a7a7"/></g><g><path d="m145.729 121.094h24.813v87.199h-24.813z" fill="#f9a7a7"/></g><g><path d="m165.225 97.463v-20.129c0-2.13-1.727-3.857-3.857-3.857h-6.465c-2.13 0-3.857 1.727-3.857 3.857v20.129z" fill="#f9cfcf"/></g><g><path d="m165.225 99.462h-14.179c-1.104 0-2-.896-2-2v-20.129c0-3.229 2.628-5.856 5.857-5.856h6.465c3.229 0 5.856 2.627 5.856 5.856v20.129c.001 1.105-.895 2-1.999 2zm-12.179-4h10.179v-18.129c0-1.023-.833-1.856-1.856-1.856h-6.465c-1.024 0-1.857.833-1.857 1.856v18.129z" fill="#3762cc"/></g><g><path d="m224.421 123.094h-132.571c-2.667 0-4.835-2.169-4.835-4.836v-17.959c0-2.667 2.169-4.836 4.835-4.836h132.571c2.667 0 4.836 2.169 4.836 4.836v17.959c0 2.666-2.169 4.836-4.836 4.836zm-132.571-23.632c-.46 0-.835.375-.835.836v17.959c0 .461.375.836.835.836h132.571c.461 0 .836-.375.836-.836v-17.959c0-.461-.375-.836-.836-.836z" fill="#3762cc"/></g><g><path d="m216.706 210.293h-117.14c-3.912 0-7.094-3.183-7.094-7.095v-82.104c0-1.104.896-2 2-2h127.328c1.104 0 2 .896 2 2v82.104c0 3.912-3.183 7.095-7.094 7.095zm-120.234-87.199v80.104c0 1.707 1.388 3.095 3.094 3.095h117.14c1.706 0 3.094-1.388 3.094-3.095v-80.104z" fill="#3762cc"/></g><g><path d="m172.314 123.094h-28.357c-1.104 0-2-.896-2-2v-23.632c0-1.104.896-2 2-2h28.357c1.104 0 2 .896 2 2v23.631c0 1.105-.895 2.001-2 2.001zm-26.357-4h24.357v-19.632h-24.357z" fill="#3762cc"/></g><g><path d="m170.542 210.293h-24.813c-1.104 0-2-.896-2-2v-87.199c0-1.104.896-2 2-2h24.813c1.104 0 2 .896 2 2v87.199c0 1.104-.896 2-2 2zm-22.813-4h20.813v-83.199h-20.813z" fill="#3762cc"/></g><g><path d="m227.047 190.758c-.393.064-.786.14-1.178.229l-49.758 11.255c-.363-8.719-7.526-15.682-16.334-15.682h-19.733c-1.636 0-3.104-1.036-3.614-2.59-3.17-9.677-12.273-16.667-23.009-16.667h-13.205c-6.329 0-12.087 2.432-16.4 6.409-1.411 1.301-3.257 2.027-5.176 2.027h-35.371v54.288h32.738l74.375 8.095c4.273.465 8.594-.12 12.59-1.703l68.871-27.3c10.485-4.157 6.336-20.178-4.796-18.361z" fill="#f9cfcf"/></g><g><path d="m153.22 240.275c-1.02 0-2.039-.055-3.055-.166l-74.267-8.083h-32.629c-1.104 0-2-.896-2-2v-54.288c0-1.104.896-2 2-2h35.371c1.417 0 2.773-.532 3.82-1.497 4.852-4.475 11.158-6.939 17.756-6.939h13.205c11.364 0 21.375 7.251 24.91 18.044.237.726.926 1.213 1.714 1.213h19.731c9.066 0 16.6 6.524 18.084 15.236l47.567-10.759c.434-.098.866-.182 1.298-.252 6.857-1.122 11.4 3.481 12.712 8.229 1.35 4.882-.222 11.334-6.857 13.965l-68.871 27.3c-3.333 1.321-6.909 1.997-10.489 1.997zm-107.951-12.249h30.738c.072 0 .145.004.216.012l74.375 8.095c3.929.427 7.957-.117 11.636-1.575l68.871-27.3c4.367-1.731 5.396-5.858 4.477-9.181-.815-2.951-3.459-6.12-8.213-5.346h-.001c-.354.058-.706.126-1.06.206l-49.756 11.254c-.581.131-1.186-.001-1.657-.363-.471-.36-.758-.912-.782-1.504-.322-7.719-6.619-13.766-14.337-13.766h-19.732c-2.521-.001-4.737-1.596-5.514-3.969-2.996-9.145-11.479-15.289-21.109-15.289h-13.205c-5.59 0-10.933 2.088-15.044 5.88-1.788 1.649-4.108 2.557-6.532 2.557h-33.371zm181.778-37.268h.01z" fill="#3762cc"/></g><g><path d="m170.781 210.293h-42.229c-1.104 0-2-.896-2-2s.896-2 2-2h42.229c1.855 0 3.364-1.509 3.364-3.365l-.031-.587c-.056-1.104.794-2.042 1.897-2.097 1.093-.045 2.043.794 2.097 1.898l.034.687c.004 4.16-3.3 7.464-7.361 7.464z" fill="#3762cc"/></g><g><path d="m70.041 242.498h-23.905c-1.584 0-2.868-1.284-2.868-2.868v-73.496c0-1.584 1.284-2.868 2.868-2.868h23.905c2.112 0 3.823 1.712 3.823 3.823v71.584c.001 2.113-1.711 3.825-3.823 3.825z" fill="#e0ebfc"/></g><g><path d="m70.042 244.498h-23.905c-2.684 0-4.868-2.184-4.868-4.868v-73.496c0-2.684 2.184-4.868 4.868-4.868h23.905c3.211 0 5.823 2.612 5.823 5.823v71.584c0 3.213-2.613 5.825-5.823 5.825zm-23.905-79.231c-.479 0-.868.389-.868.868v73.496c0 .479.389.868.868.868h23.905c1.005 0 1.823-.818 1.823-1.824v-71.585c0-1.005-.818-1.823-1.823-1.823z" fill="#3762cc"/></g><g><path d="m21.933 248h34.536c2.112 0 3.823-1.712 3.823-3.823v-82.588c0-2.112-1.712-3.823-3.823-3.823h-34.536c-2.112 0-3.823 1.712-3.823 3.823v82.588c0 2.111 1.712 3.823 3.823 3.823z" fill="#4671c6"/></g><g><path d="m56.469 250h-34.536c-3.211 0-5.823-2.612-5.823-5.823v-82.588c0-3.211 2.612-5.824 5.823-5.824h34.536c3.211 0 5.824 2.612 5.824 5.824v82.588c0 3.211-2.612 5.823-5.824 5.823zm-34.536-90.235c-1.005 0-1.823.818-1.823 1.824v82.588c0 1.005.818 1.823 1.823 1.823h34.536c1.005 0 1.824-.818 1.824-1.823v-82.588c0-1.005-.818-1.824-1.824-1.824z" fill="#3762cc"/></g><g><circle cx="158.136" cy="33.667" fill="#eaa97d" r="25.667"/></g><g><circle cx="158.136" cy="33.667" fill="#ffea92" r="19.585"/></g><g><path d="m159.134 17.649v1.762c1.164.12 2.162.359 2.994.718.833.359 1.559.903 2.179 1.632.489.555.867 1.126 1.134 1.713.266.587.4 1.126.4 1.615 0 .544-.199 1.014-.595 1.411-.397.397-.879.596-1.444.596-1.066 0-1.757-.576-2.072-1.73-.359-1.36-1.224-2.262-2.594-2.709v6.788c1.349.37 2.423.707 3.223 1.012s1.515.745 2.146 1.322c.674.598 1.194 1.313 1.558 2.146.364.832.546 1.743.546 2.733 0 1.24-.291 2.401-.873 3.484s-1.439 1.966-2.57 2.652c-1.131.685-2.475 1.093-4.03 1.224v4.063c0 .642-.063 1.11-.188 1.403-.125.294-.4.441-.824.441-.392 0-.666-.12-.824-.359-.157-.239-.237-.609-.237-1.11v-4.406c-1.273-.141-2.385-.441-3.337-.897-.952-.457-1.746-1.025-2.382-1.705s-1.107-1.387-1.411-2.121-.457-1.455-.457-2.162c0-.522.204-.992.612-1.411s.916-.628 1.525-.628c.49 0 .903.114 1.24.343.337.228.572.549.702.963.294.892.549 1.575.767 2.048s.547.906.987 1.297c.441.392 1.025.691 1.754.897v-7.587c-1.457-.402-2.676-.851-3.655-1.346s-1.773-1.199-2.382-2.113-.914-2.089-.914-3.524c0-1.871.595-3.405 1.786-4.601s2.913-1.893 5.164-2.089v-1.73c0-.914.343-1.371 1.028-1.371.696-.002 1.044.444 1.044 1.336zm-2.072 11.193v-6.249c-.914.272-1.626.631-2.137 1.077s-.767 1.12-.767 2.023c0 .859.239 1.509.718 1.95.478.44 1.207.84 2.186 1.199zm2.072 4.846v7.147c1.098-.217 1.947-.658 2.545-1.322.598-.663.898-1.436.898-2.317 0-.946-.291-1.678-.873-2.195-.582-.516-1.438-.954-2.57-1.313z" fill="#eaa97d"/></g><g><path d="m158.136 61.333c-15.256 0-27.667-12.411-27.667-27.667 0-15.255 12.411-27.666 27.667-27.666s27.667 12.411 27.667 27.667c0 15.255-12.411 27.666-27.667 27.666zm0-51.333c-13.05 0-23.667 10.617-23.667 23.667s10.617 23.667 23.667 23.667 23.667-10.617 23.667-23.667-10.617-23.667-23.667-23.667z" fill="#3762cc"/></g></g></svg>