<svg id="Layer_1" enable-background="new 0 0 256 256" height="512" viewBox="0 0 256 256" width="512" xmlns="http://www.w3.org/2000/svg"><g><g><g><path d="m109.823 79.795c-1.933 0-3.5-1.567-3.5-3.5v-7c0-1.933 1.567-3.5 3.5-3.5s3.5 1.567 3.5 3.5v7c0 1.932-1.567 3.5-3.5 3.5z" fill="#6bdddd"/></g></g><g><g><path d="m109.823 61.904c-1.933 0-3.5-1.567-3.5-3.5v-7.109c0-4.687 3.813-8.5 8.5-8.5h.28c1.933 0 3.5 1.567 3.5 3.5s-1.567 3.5-3.5 3.5h-.28c-.827 0-1.5.673-1.5 1.5v7.109c0 1.933-1.567 3.5-3.5 3.5zm57.555-12.109h-15.247c-1.933 0-3.5-1.567-3.5-3.5s1.567-3.5 3.5-3.5h15.247c1.933 0 3.5 1.567 3.5 3.5s-1.567 3.5-3.5 3.5zm-26.137 0h-15.247c-1.933 0-3.5-1.567-3.5-3.5s1.567-3.5 3.5-3.5h15.247c1.933 0 3.5 1.567 3.5 3.5s-1.567 3.5-3.5 3.5z" fill="#6bdddd"/></g></g><g><g><path d="m185.283 49.795h-7c-1.933 0-3.5-1.567-3.5-3.5s1.567-3.5 3.5-3.5h7c1.933 0 3.5 1.567 3.5 3.5s-1.567 3.5-3.5 3.5z" fill="#6bdddd"/></g></g><g><path d="m197.724 84.587h-39.585l-12.093-9.006c-.652-.485-1.443-.748-2.255-.748h-34.735-34.734c-.813 0-1.604.262-2.255.748l-12.093 9.006h-48.198c-2.086 0-3.776 1.69-3.776 3.776v80.582 4.369c0 2.085 1.69 3.776 3.776 3.776h65.478c1.169 0 2.273-.542 2.988-1.467l4.025-5.21c.715-.925 1.818-1.467 2.988-1.467h110.47c2.085 0 3.776-1.69 3.776-3.776v-76.807c-.001-2.086-1.691-3.776-3.777-3.776z" fill="#4671c6"/></g><g><path d="m34.199 112.373h-11.928c-1.105 0-2-.895-2-2v-11.928c0-1.105.895-2 2-2h11.928c1.105 0 2 .895 2 2v11.928c0 1.105-.895 2-2 2z" fill="#a4c9ff"/></g><g><path d="m58.741 112.373h-11.929c-1.105 0-2-.895-2-2v-11.928c0-1.105.895-2 2-2h11.928c1.105 0 2 .895 2 2v11.928c.001 1.105-.895 2-1.999 2z" fill="#f9a7a7"/></g><g><path d="m83.282 112.373h-11.928c-1.105 0-2-.895-2-2v-11.928c0-1.105.895-2 2-2h11.928c1.105 0 2 .895 2 2v11.928c0 1.105-.895 2-2 2z" fill="#a4c9ff"/></g><g><path d="m107.823 112.373h-11.928c-1.105 0-2-.895-2-2v-11.928c0-1.105.895-2 2-2h11.928c1.105 0 2 .895 2 2v11.928c0 1.105-.895 2-2 2z" fill="#a4c9ff"/></g><g><path d="m34.199 135.027h-11.928c-1.105 0-2-.895-2-2v-11.928c0-1.105.895-2 2-2h11.928c1.105 0 2 .895 2 2v11.928c0 1.104-.895 2-2 2z" fill="#f9a7a7"/></g><g><path d="m58.741 135.027h-11.929c-1.105 0-2-.895-2-2v-11.928c0-1.105.895-2 2-2h11.928c1.105 0 2 .895 2 2v11.928c.001 1.104-.895 2-1.999 2z" fill="#f9a7a7"/></g><g><path d="m83.282 135.027h-11.928c-1.105 0-2-.895-2-2v-11.928c0-1.105.895-2 2-2h11.928c1.105 0 2 .895 2 2v11.928c0 1.104-.895 2-2 2z" fill="#f9a7a7"/></g><g><path d="m107.823 135.027h-11.928c-1.105 0-2-.895-2-2v-11.928c0-1.105.895-2 2-2h11.928c1.105 0 2 .895 2 2v11.928c0 1.104-.895 2-2 2z" fill="#a4c9ff"/></g><g><path d="m188.645 157.68h-13.226c-1.105 0-2-.895-2-2v-34.582c0-1.105.895-2 2-2h13.226c1.105 0 2 .895 2 2v34.582c0 1.105-.895 2-2 2z" fill="#a4c9ff"/></g><g><path d="m164.104 112.373h-11.928c-1.105 0-2-.895-2-2v-11.928c0-1.105.895-2 2-2h11.928c1.105 0 2 .895 2 2v11.928c0 1.105-.896 2-2 2z" fill="#a4c9ff"/></g><g><path d="m188.645 112.373h-11.928c-1.105 0-2-.895-2-2v-11.928c0-1.105.895-2 2-2h11.928c1.105 0 2 .895 2 2v11.928c0 1.105-.895 2-2 2z" fill="#a4c9ff"/></g><g><path d="m139.562 112.373h-11.928c-1.105 0-2-.895-2-2v-11.928c0-1.105.895-2 2-2h11.928c1.105 0 2 .895 2 2v11.928c0 1.105-.895 2-2 2z" fill="#a4c9ff"/></g><g><path d="m139.562 135.027h-11.928c-1.105 0-2-.895-2-2v-11.928c0-1.105.895-2 2-2h11.928c1.105 0 2 .895 2 2v11.928c0 1.104-.895 2-2 2z" fill="#a4c9ff"/></g><g><path d="m164.104 135.027h-11.928c-1.105 0-2-.895-2-2v-11.928c0-1.105.895-2 2-2h11.928c1.105 0 2 .895 2 2v11.928c0 1.104-.896 2-2 2z" fill="#a4c9ff"/></g><g><path d="m34.199 157.68h-11.928c-1.105 0-2-.895-2-2v-11.928c0-1.105.895-2 2-2h11.928c1.105 0 2 .895 2 2v11.928c0 1.105-.895 2-2 2z" fill="#a4c9ff"/></g><g><path d="m58.741 157.68h-11.929c-1.105 0-2-.895-2-2v-11.928c0-1.105.895-2 2-2h11.928c1.105 0 2 .895 2 2v11.928c.001 1.105-.895 2-1.999 2z" fill="#a4c9ff"/></g><g><path d="m83.282 157.68h-11.928c-1.105 0-2-.895-2-2v-11.928c0-1.105.895-2 2-2h11.928c1.105 0 2 .895 2 2v11.928c0 1.105-.895 2-2 2z" fill="#a4c9ff"/></g><g><path d="m107.823 157.68h-11.928c-1.105 0-2-.895-2-2v-11.928c0-1.105.895-2 2-2h11.928c1.105 0 2 .895 2 2v11.928c0 1.105-.895 2-2 2z" fill="#a4c9ff"/></g><g><path d="m164.104 157.68h-11.928c-1.105 0-2-.895-2-2v-11.928c0-1.105.895-2 2-2h11.928c1.105 0 2 .895 2 2v11.928c0 1.105-.896 2-2 2z" fill="#a4c9ff"/></g><g><path d="m139.562 157.68h-11.928c-1.105 0-2-.895-2-2v-11.928c0-1.105.895-2 2-2h11.928c1.105 0 2 .895 2 2v11.928c0 1.105-.895 2-2 2z" fill="#a4c9ff"/></g><g><path d="m77.253 179.09h-65.478c-3.185 0-5.775-2.591-5.775-5.776v-84.952c0-3.185 2.591-5.775 5.775-5.775h47.535l11.562-8.61c1.006-.748 2.199-1.144 3.45-1.144h69.469c1.233 0 2.459.406 3.449 1.144l11.563 8.61h38.922c3.185 0 5.775 2.591 5.775 5.775v76.807c0 3.185-2.591 5.775-5.775 5.775h-110.471c-.546 0-1.07.258-1.404.69l-4.025 5.21c-1.104 1.427-2.77 2.246-4.572 2.246zm-65.478-92.503c-.979 0-1.775.797-1.775 1.775v84.951c0 .979.797 1.776 1.775 1.776h65.478c.554 0 1.066-.252 1.406-.691l4.024-5.209c1.086-1.405 2.794-2.245 4.57-2.245h110.471c.979 0 1.775-.797 1.775-1.775v-76.807c0-.979-.797-1.775-1.775-1.775h-39.584c-.431 0-.85-.139-1.194-.396l-12.093-9.006c-.305-.228-.683-.353-1.062-.353h-69.469c-.385 0-.752.122-1.063.353l-12.092 9.006c-.345.257-.764.396-1.194.396z" fill="#3762cc"/></g><g><path d="m34.199 114.373h-11.928c-2.206 0-4-1.794-4-4v-11.929c0-2.206 1.794-4 4-4h11.929c2.206 0 4 1.794 4 4v11.929c-.001 2.206-1.795 4-4.001 4zm-11.928-15.929v11.929h11.932l-.003-11.929z" fill="#3762cc"/></g><g><path d="m58.74 114.373h-11.927c-2.206 0-4-1.794-4-4v-11.929c0-2.206 1.794-4 4-4h11.927c2.206 0 4 1.794 4 4v11.929c0 2.206-1.794 4-4 4zm-11.927-15.929v11.929h11.931l-.004-11.929z" fill="#3762cc"/></g><g><path d="m83.282 114.373h-11.928c-2.206 0-4-1.794-4-4v-11.929c0-2.206 1.794-4 4-4h11.929c2.206 0 4 1.794 4 4v11.929c-.001 2.206-1.795 4-4.001 4zm-11.928-15.929v11.929h11.932l-.003-11.929z" fill="#3762cc"/></g><g><path d="m107.823 114.373h-11.927c-2.206 0-4-1.794-4-4v-11.929c0-2.206 1.794-4 4-4h11.928c2.206 0 4 1.794 4 4v11.929c-.001 2.206-1.795 4-4.001 4zm-11.927-15.929v11.929h11.931l-.003-11.929z" fill="#3762cc"/></g><g><path d="m34.199 137.026h-11.928c-2.206 0-4-1.794-4-4v-11.928c0-2.206 1.794-4 4-4h11.929c2.206 0 4 1.794 4 4v11.928c-.001 2.206-1.795 4-4.001 4zm-11.928-15.927v11.928h11.932l-.003-11.928z" fill="#3762cc"/></g><g><path d="m58.74 137.026h-11.927c-2.206 0-4-1.794-4-4v-11.928c0-2.206 1.794-4 4-4h11.927c2.206 0 4 1.794 4 4v11.928c0 2.206-1.794 4-4 4zm-11.927-15.927v11.928h11.931l-.003-11.928z" fill="#3762cc"/></g><g><path d="m83.282 137.026h-11.928c-2.206 0-4-1.794-4-4v-11.928c0-2.206 1.794-4 4-4h11.929c2.206 0 4 1.794 4 4v11.928c-.001 2.206-1.795 4-4.001 4zm-11.928-15.927v11.928h11.932l-.003-11.928z" fill="#3762cc"/></g><g><path d="m107.823 137.026h-11.927c-2.206 0-4-1.794-4-4v-11.928c0-2.206 1.794-4 4-4h11.928c2.206 0 4 1.794 4 4v11.928c-.001 2.206-1.795 4-4.001 4zm-11.927-15.927v11.928h11.931l-.003-11.928z" fill="#3762cc"/></g><g><path d="m188.646 159.681h-13.227c-2.206 0-4-1.794-4-4v-34.582c0-2.206 1.794-4 4-4h13.227c2.206 0 4 1.794 4 4v34.582c0 2.206-1.794 4-4 4zm-13.227-38.582v34.582h13.229l-.003-34.582z" fill="#3762cc"/></g><g><path d="m164.104 114.373h-11.928c-2.206 0-4-1.794-4-4v-11.929c0-2.206 1.794-4 4-4h11.928c2.206 0 4 1.794 4 4v11.929c0 2.206-1.794 4-4 4zm-11.928-15.929v11.929h11.931l-.003-11.929z" fill="#3762cc"/></g><g><path d="m188.646 114.373h-11.929c-2.206 0-4-1.794-4-4v-11.929c0-2.206 1.794-4 4-4h11.929c2.206 0 4 1.794 4 4v11.929c0 2.206-1.794 4-4 4zm-11.929-15.929v11.929h11.932l-.003-11.929z" fill="#3762cc"/></g><g><path d="m139.563 114.373h-11.929c-2.206 0-4-1.794-4-4v-11.929c0-2.206 1.794-4 4-4h11.929c2.206 0 4 1.794 4 4v11.929c0 2.206-1.794 4-4 4zm-11.929-15.929v11.929h11.932l-.003-11.929z" fill="#3762cc"/></g><g><path d="m139.563 137.026h-11.929c-2.206 0-4-1.794-4-4v-11.928c0-2.206 1.794-4 4-4h11.929c2.206 0 4 1.794 4 4v11.928c0 2.206-1.794 4-4 4zm-11.929-15.927v11.928h11.932l-.003-11.928z" fill="#3762cc"/></g><g><path d="m164.104 137.026h-11.928c-2.206 0-4-1.794-4-4v-11.928c0-2.206 1.794-4 4-4h11.928c2.206 0 4 1.794 4 4v11.928c0 2.206-1.794 4-4 4zm-11.928-15.927v11.928h11.931l-.003-11.928z" fill="#3762cc"/></g><g><path d="m34.199 159.681h-11.928c-2.206 0-4-1.794-4-4v-11.929c0-2.206 1.794-4 4-4h11.929c2.206 0 4 1.794 4 4v11.929c-.001 2.206-1.795 4-4.001 4zm-11.928-15.929v11.929h11.932l-.003-11.929z" fill="#3762cc"/></g><g><path d="m58.74 159.681h-11.927c-2.206 0-4-1.794-4-4v-11.929c0-2.206 1.794-4 4-4h11.927c2.206 0 4 1.794 4 4v11.929c0 2.206-1.794 4-4 4zm-11.927-15.929v11.929h11.931l-.003-11.929z" fill="#3762cc"/></g><g><path d="m83.282 159.681h-11.928c-2.206 0-4-1.794-4-4v-11.929c0-2.206 1.794-4 4-4h11.929c2.206 0 4 1.794 4 4v11.929c-.001 2.206-1.795 4-4.001 4zm-11.928-15.929v11.929h11.932l-.003-11.929z" fill="#3762cc"/></g><g><path d="m107.823 159.681h-11.927c-2.206 0-4-1.794-4-4v-11.929c0-2.206 1.794-4 4-4h11.928c2.206 0 4 1.794 4 4v11.929c-.001 2.206-1.795 4-4.001 4zm-11.927-15.929v11.929h11.931l-.003-11.929z" fill="#3762cc"/></g><g><path d="m164.104 159.681h-11.928c-2.206 0-4-1.794-4-4v-11.929c0-2.206 1.794-4 4-4h11.928c2.206 0 4 1.794 4 4v11.929c0 2.206-1.794 4-4 4zm-11.928-15.929v11.929h11.931l-.003-11.929z" fill="#3762cc"/></g><g><path d="m139.563 159.681h-11.929c-2.206 0-4-1.794-4-4v-11.929c0-2.206 1.794-4 4-4h11.929c2.206 0 4 1.794 4 4v11.929c0 2.206-1.794 4-4 4zm-11.929-15.929v11.929h11.932l-.003-11.929z" fill="#3762cc"/></g><g><path d="m214 144.332c-1.933 0-3.5-1.567-3.5-3.5v-7c0-1.933 1.567-3.5 3.5-3.5s3.5 1.567 3.5 3.5v7c0 1.932-1.567 3.5-3.5 3.5z" fill="#6bdddd"/></g><g><path d="m214 126.76c-1.933 0-3.5-1.567-3.5-3.5v-14.801c0-1.933 1.567-3.5 3.5-3.5s3.5 1.567 3.5 3.5v14.801c0 1.932-1.567 3.5-3.5 3.5zm0-25.374c-1.933 0-3.5-1.567-3.5-3.5v-14.8c0-1.933 1.567-3.5 3.5-3.5s3.5 1.567 3.5 3.5v14.801c0 1.932-1.567 3.499-3.5 3.499zm0-25.373c-1.933 0-3.5-1.567-3.5-3.5v-1.719c0-.827-.673-1.5-1.5-1.5h-5.226c-1.933 0-3.5-1.567-3.5-3.5s1.567-3.5 3.5-3.5h5.226c4.687 0 8.5 3.813 8.5 8.5v1.719c0 1.933-1.567 3.5-3.5 3.5zm-20.798-6.718h-2.919c-4.687 0-8.5-3.813-8.5-8.5v-4.025c0-1.933 1.567-3.5 3.5-3.5s3.5 1.567 3.5 3.5v4.024c0 .827.673 1.5 1.5 1.5h2.919c1.933 0 3.5 1.567 3.5 3.5s-1.567 3.501-3.5 3.501zm-7.919-19.597c-1.933 0-3.5-1.567-3.5-3.5v-14.801c0-1.933 1.567-3.5 3.5-3.5s3.5 1.567 3.5 3.5v14.801c0 1.933-1.567 3.5-3.5 3.5z" fill="#6bdddd"/></g><g><path d="m185.283 24.295c-1.933 0-3.5-1.567-3.5-3.5v-7c0-1.933 1.567-3.5 3.5-3.5s3.5 1.567 3.5 3.5v7c0 1.932-1.567 3.5-3.5 3.5z" fill="#6bdddd"/></g><g><path d="m211.853 149.316-29 13.789c-1.743.829-2.853 2.586-2.853 4.516v32.174 11.929c0 15.533 10.534 29.089 25.586 32.926 2.761.704 5.587 1.056 8.414 1.056v-96.874c-.734-.001-1.468.16-2.147.484z" fill="#a4c9ff"/></g><g><path d="m211.853 149.316-29 13.789c-1.743.829-2.853 2.586-2.853 4.516v32.174 11.929c0 15.533 10.534 29.089 25.586 32.926 2.761.704 5.587 1.056 8.414 1.056v-96.874c-.734-.001-1.468.16-2.147.484z" fill="#a4c9ff"/></g><g><path d="m245.147 163.105-29-13.789c-.679-.323-1.413-.484-2.147-.484v96.874c2.827 0 5.654-.352 8.414-1.056h.001c15.052-3.838 25.585-17.393 25.585-32.926v-44.104c0-1.929-1.11-3.687-2.853-4.515z" fill="#4671c6"/></g><g><path d="m214 247.705c-3.003 0-6-.376-8.908-1.118-15.951-4.066-27.092-18.402-27.092-34.863v-44.104c0-2.686 1.567-5.167 3.993-6.321l29.001-13.79c.933-.443 1.972-.678 3.006-.678 1.104 0 2 .896 2 2v96.874c0 1.105-.896 2-2 2zm-2-96.245-28.289 13.451c-1.039.494-1.711 1.558-1.711 2.709v44.104c0 14.631 9.902 27.374 24.08 30.987 1.939.495 3.923.807 5.92.932zm-.147-2.145h.01z" fill="#3762cc"/></g><g><path d="m214 247.705c-1.104 0-2-.896-2-2v-96.874c0-.53.211-1.039.586-1.414s.884-.586 1.414-.586c1.031 0 2.07.234 3.004.677l29.002 13.79c.001.001.001.001.001.001 2.426 1.154 3.993 3.636 3.993 6.321v44.104c0 16.461-11.141 30.797-27.091 34.863-2.909.742-5.906 1.118-8.909 1.118zm2-96.245v92.183c1.997-.125 3.98-.437 5.92-.931 14.178-3.614 24.08-16.356 24.08-30.987v-44.105c0-1.151-.672-2.215-1.711-2.709z" fill="#3762cc"/></g><g><path d="m240.717 156.628h-5.127l-19.009-16.058c-1.491-1.259-3.672-1.259-5.163 0l-19.009 16.058h-5.127c-1.105 0-2 .895-2 2v4.021l26.089 47.374c1.14 2.07 4.116 2.07 5.256 0l26.089-47.374v-4.021c.001-1.104-.895-2-1.999-2z" fill="#e0ebfc"/></g><g><path d="m216.628 210.023 26.089-47.374v-4.021c0-1.104-.896-2-2-2h-5.127l-19.009-16.058c-.745-.63-1.663-.944-2.581-.944v71.95c1.029-.001 2.058-.518 2.628-1.553z" fill="#a4c9ff"/></g><g><path d="m214 213.575c-1.822 0-3.5-.991-4.38-2.588l-26.089-47.374c-.163-.296-.248-.628-.248-.965v-4.021c0-2.206 1.794-4 4-4h4.396l18.449-15.585c2.244-1.896 5.5-1.896 7.744 0l18.449 15.585h4.396c2.206 0 4 1.794 4 4v4.021c0 .337-.085.669-.248.965l-26.089 47.374c-.88 1.597-2.558 2.588-4.38 2.588zm-26.717-51.441 25.841 46.924c.257.467.698.518.876.518s.619-.051.876-.518l25.841-46.924v-3.506h-5.127c-.473 0-.93-.167-1.291-.473l-19.009-16.058c-.748-.631-1.832-.631-2.58 0l-19.009 16.058c-.361.306-.818.473-1.291.473h-5.127zm55.434.514h.01z" fill="#3762cc"/></g><g><path d="m214 213.575c-.53 0-1.039-.211-1.414-.586s-.586-.884-.586-1.414v-71.949c0-1.104.896-2 2-2 1.416 0 2.791.503 3.872 1.417l18.449 15.585h4.396c2.206 0 4 1.794 4 4v4.021c0 .337-.085.669-.248.965l-26.089 47.374c-.88 1.596-2.558 2.587-4.38 2.587zm2.628-3.553h.01zm-.628-67.325v64.319l24.717-44.883v-3.506h-5.127c-.473 0-.93-.167-1.291-.473z" fill="#3762cc"/></g><g><path d="m214 186.461c-3.498 0-6.333-2.836-6.333-6.333v-11.833c0-3.498 2.836-6.333 6.333-6.333 3.498 0 6.333 2.836 6.333 6.333v11.833c0 3.498-2.835 6.333-6.333 6.333z" fill="#f9a7a7"/></g><g><path d="m214 188.461c-4.595 0-8.333-3.738-8.333-8.333v-11.833c0-4.596 3.738-8.334 8.333-8.334s8.333 3.738 8.333 8.334v11.833c0 4.595-3.738 8.333-8.333 8.333zm0-24.5c-2.39 0-4.333 1.944-4.333 4.334v11.833c0 2.39 1.943 4.333 4.333 4.333s4.333-1.943 4.333-4.333v-11.833c0-2.39-1.943-4.334-4.333-4.334z" fill="#3762cc"/></g></g></svg>