<svg id="Layer_1" enable-background="new 0 0 256 256" height="512" viewBox="0 0 256 256" width="512" xmlns="http://www.w3.org/2000/svg"><g><g><path d="m240 229.292h-224c-4.418 0-8-3.582-8-8v-7c0-2.209 1.791-4 4-4h232c2.209 0 4 1.791 4 4v7c0 4.418-3.582 8-8 8z" fill="#4671c6"/></g><g><path d="m142.343 221.125h-28.685c-1.517 0-2.746-1.23-2.746-2.746v-8.087h34.178v8.087c-.001 1.516-1.23 2.746-2.747 2.746z" fill="#e0ebfc"/></g><g><path d="m235.851 210.292h-215.702v-133.834c0-3.314 2.686-6 6-6h203.702c3.314 0 6 2.686 6 6z" fill="#a4c9ff"/></g><g><path d="m31.149 195.799v-110.848c0-1.657 1.343-3 3-3h187.702c1.657 0 3 1.343 3 3v110.847c0 1.657-1.343 3-3 3h-187.702c-1.657.001-3-1.343-3-2.999z" fill="#f9cfcf"/></g><g><path d="m240 231.292h-224c-5.514 0-10-4.486-10-10v-7c0-3.309 2.691-6 6-6h232c3.309 0 6 2.691 6 6v7c0 5.514-4.486 10-10 10zm-228-19c-1.103 0-2 .897-2 2v7c0 3.309 2.691 6 6 6h224c3.309 0 6-2.691 6-6v-7c0-1.103-.897-2-2-2z" fill="#3762cc"/></g><g><path d="m235.851 212.292h-215.702c-1.104 0-2-.896-2-2v-133.834c0-4.411 3.589-8 8-8h203.702c4.411 0 8 3.589 8 8v133.834c0 1.104-.895 2-2 2zm-213.702-4h211.702v-131.834c0-2.206-1.794-4-4-4h-203.702c-2.206 0-4 1.794-4 4z" fill="#3762cc"/></g><g><path d="m221.851 200.799h-187.702c-2.757 0-5-2.243-5-5v-110.848c0-2.757 2.243-5 5-5h187.702c2.757 0 5 2.243 5 5v110.848c0 2.757-2.243 5-5 5zm-187.702-116.848c-.551 0-1 .448-1 1v110.848c0 .552.449 1 1 1h187.702c.551 0 1-.448 1-1v-110.848c0-.552-.449-1-1-1z" fill="#3762cc"/></g><g><circle cx="128" cy="70.458" fill="#6bdddd" r="43.75"/></g><g><circle cx="128" cy="70.458" fill="#4671c6" r="34.214"/></g><g><path d="m128 116.208c-25.227 0-45.75-20.523-45.75-45.75s20.523-45.75 45.75-45.75 45.75 20.523 45.75 45.75-20.523 45.75-45.75 45.75zm0-87.5c-23.021 0-41.75 18.729-41.75 41.75s18.729 41.75 41.75 41.75 41.75-18.729 41.75-41.75-18.729-41.75-41.75-41.75z" fill="#3762cc"/></g><g><path d="m116.098 66.169h23.634c2.673 0 4.011-3.231 2.121-5.121l-12.016-12.018c-1.186-1.186-3.113-1.169-4.278.036l-11.617 12.017c-1.842 1.905-.492 5.086 2.156 5.086z" fill="#f9a7a7"/></g><g><path d="m116.098 88.169h23.634c2.673 0 4.011-3.231 2.121-5.121l-12.016-12.018c-1.186-1.186-3.113-1.169-4.278.036l-11.617 12.017c-1.842 1.905-.492 5.086 2.156 5.086z" fill="#f9a7a7"/></g><g><path d="m142.343 223.125h-28.686c-2.617 0-4.747-2.129-4.747-4.746v-8.087c0-1.104.896-2 2-2h34.179c1.104 0 2 .896 2 2v8.087c0 2.617-2.129 4.746-4.746 4.746zm-29.432-10.833v6.087c0 .411.335.746.747.746h28.686c.412 0 .747-.335.747-.746v-6.087z" fill="#3762cc"/></g></g></svg>