<svg id="Layer_1" enable-background="new 0 0 256 256" height="512" viewBox="0 0 256 256" width="512" xmlns="http://www.w3.org/2000/svg"><g><g><path d="m153.25 248h-116c-6.075 0-11-4.925-11-11v-218c0-6.075 4.925-11 11-11h116c6.075 0 11 4.925 11 11v218c0 6.075-4.925 11-11 11z" fill="#4671c6"/></g><g><path d="m149.619 18.291h-17.961v1.942c0 4.29-3.477 7.767-7.767 7.767h-57.282c-4.29 0-7.767-3.477-7.767-7.767v-1.942h-17.961c-3.217 0-5.825 2.608-5.825 5.825v207.767c0 3.217 2.608 5.825 5.825 5.825h108.738c3.217 0 5.825-2.608 5.825-5.825v-207.766c0-3.218-2.608-5.826-5.825-5.826z" fill="#f9cfcf"/></g><g><path d="m153.25 250h-116c-7.168 0-13-5.832-13-13v-218c0-7.168 5.832-13 13-13h116c7.168 0 13 5.832 13 13v218c0 7.168-5.832 13-13 13zm-116-240c-4.962 0-9 4.038-9 9v218c0 4.962 4.038 9 9 9h116c4.963 0 9-4.038 9-9v-218c0-4.962-4.037-9-9-9z" fill="#3762cc"/></g><g><path d="m149.619 239.708h-108.738c-4.315 0-7.825-3.51-7.825-7.825v-207.766c0-4.315 3.51-7.825 7.825-7.825h17.961c1.104 0 2 .896 2 2v1.941c0 3.18 2.587 5.767 5.767 5.767h57.281c3.18 0 5.768-2.587 5.768-5.767v-1.941c0-1.104.896-2 2-2h17.961c4.314 0 7.825 3.51 7.825 7.825v207.767c0 4.314-3.51 7.824-7.825 7.824zm-108.738-219.416c-2.109 0-3.825 1.716-3.825 3.825v207.767c0 2.109 1.716 3.825 3.825 3.825h108.738c2.109 0 3.825-1.716 3.825-3.825v-207.767c0-2.109-1.716-3.825-3.825-3.825h-15.961c-.031 5.358-4.401 9.708-9.767 9.708h-57.282c-5.366 0-9.735-4.35-9.767-9.708z" fill="#3762cc"/></g><g><circle cx="118.956" cy="19.019" fill="#a4c9ff" r="3.649"/></g><g><circle cx="107.305" cy="19.019" fill="#a4c9ff" r="2.636"/></g><g><path d="m96.497 21.656h-27.737c-1.456 0-2.636-1.18-2.636-2.636 0-1.456 1.18-2.636 2.636-2.636h27.737c1.456 0 2.636 1.18 2.636 2.636 0 1.455-1.18 2.636-2.636 2.636z" fill="#a4c9ff"/></g><g><path d="m112.552 103.574c-.154 0-.31-.02-.465-.061-.956-.256-1.523-1.238-1.267-2.194l7.004-26.142c.576-2.15 2.533-3.651 4.758-3.651h12.681c.989 0 1.791.802 1.791 1.791s-.802 1.791-1.791 1.791h-12.681c-.607 0-1.141.41-1.298.996l-7.004 26.141c-.213.801-.937 1.329-1.728 1.329z" fill="#4671c6"/></g><g><path d="m107.921 133.697h-47.867c-.989 0-1.791-.802-1.791-1.791s.802-1.791 1.791-1.791h47.867c.196 0 .31-.107.371-.197s.118-.235.045-.417l-2.804-7.05c-.366-.919.083-1.961 1.002-2.327.92-.365 1.961.083 2.327 1.002l2.804 7.05c.494 1.243.341 2.646-.41 3.753-.75 1.107-1.997 1.768-3.335 1.768z" fill="#4671c6"/></g><g><circle cx="72.272" cy="133.335" fill="#f9a7a7" r="7.825"/></g><g><circle cx="72.271" cy="133.335" fill="#4671c6" r="3.672"/></g><g><circle cx="97.352" cy="133.335" fill="#f9a7a7" r="7.825"/></g><g><circle cx="97.351" cy="133.335" fill="#4671c6" r="3.672"/></g><g><path d="m117.717 84.163c-.276-.155-.596-.216-.912-.216h-62.586c-.302 0-.607.053-.875.193-.728.38-1.083 1.159-.951 1.91l5.76 32.665c.143.809.817 1.417 1.637 1.476l47.28 3.385c.043.003.086.005.129.005.805 0 1.519-.54 1.729-1.328l9.66-36.05c.206-.771-.117-1.616-.871-2.04zm-25.821 16.377h-13.522c-.495 0-.896-.401-.896-.896v-10.409c0-.495.401-.896.896-.896h13.522c.495 0 .896.401.896.896v10.409c0 .495-.401.896-.896.896zm-18.81-11.305v10.409c0 .495-.401.896-.896.896h-11.539c-.435 0-.807-.312-.882-.74l-1.836-10.41c-.097-.548.325-1.051.882-1.051h13.375c.495 0 .896.401.896.896zm-11.345 15.697h10.449c.495 0 .896.401.896.896v10.025c0 .52-.441.931-.96.893l-8.792-.629c-.41-.029-.747-.333-.818-.738l-1.657-9.396c-.096-.549.326-1.051.882-1.051zm16.633 0h13.522c.495 0 .896.401.896.896v11.436c0 .52-.441.931-.96.893l-13.522-.968c-.469-.034-.832-.424-.832-.893v-10.468c0-.495.401-.896.896-.896zm25.717 14.102-6.075-.435c-.469-.034-.832-.424-.832-.893v-11.878c0-.495.401-.896.896-.896h10.542l-3.601 13.441c-.112.414-.502.691-.93.661zm5.02-18.494h-11.032c-.495 0-.896-.401-.896-.896v-10.409c0-.495.401-.896.896-.896h13.82c.589 0 1.018.559.865 1.128l-2.789 10.409c-.104.391-.459.664-.864.664z" fill="#4671c6"/></g><g><path d="m137.238 76.004h-12.652c-.495 0-.896-.401-.896-.896v-3.695c0-.495.401-.896.896-.896h12.652c.495 0 .896.401.896.896v3.695c0 .495-.401.896-.896.896z" fill="#f9a7a7"/></g><g><path d="m130.75 173.755h-71c-3.866 0-7-3.134-7-7v-10.718c0-3.866 3.134-7 7-7h71c3.866 0 7 3.134 7 7v10.718c0 3.866-3.134 7-7 7z" fill="#e0ebfc"/></g><g><path d="m191.886 123.531c-15.205 0-28.309 8.967-34.333 21.896h-11.916v-6.202c0-3.35-3.871-5.216-6.492-3.129l-27.886 22.202c-2.011 1.601-2.011 4.657 0 6.259l27.886 22.202c2.621 2.086 6.492.22 6.492-3.129v-6.202h11.945c6.037 12.896 19.124 21.833 34.304 21.833 20.912 0 37.864-16.952 37.864-37.865 0-20.912-16.953-37.865-37.864-37.865z" fill="#eaa97d"/></g><g><circle cx="191.886" cy="161.396" fill="#ffea92" r="28.892"/></g><g><path d="m193.359 137.766v2.6c1.717.177 3.189.53 4.417 1.059 1.228.53 2.299 1.332 3.214 2.407.722.818 1.279 1.661 1.673 2.528.392.867.589 1.661.589 2.383 0 .803-.293 1.497-.878 2.082-.586.586-1.296.879-2.13.879-1.573 0-2.592-.85-3.057-2.552-.53-2.006-1.805-3.338-3.827-3.996v10.014c1.99.546 3.574 1.043 4.754 1.492s2.235 1.099 3.166 1.95c.994.883 1.761 1.938 2.299 3.165.537 1.228.806 2.572.806 4.032 0 1.829-.429 3.543-1.288 5.139-.859 1.597-2.122 2.901-3.791 3.912s-3.651 1.613-5.945 1.805v5.994c0 .947-.093 1.637-.277 2.07-.185.433-.59.65-1.216.65-.578 0-.983-.177-1.216-.53-.232-.353-.349-.899-.349-1.637v-6.499c-1.878-.209-3.519-.65-4.922-1.324-1.405-.674-2.575-1.512-3.514-2.515-.938-1.003-1.633-2.046-2.082-3.129s-.674-2.146-.674-3.189c0-.77.301-1.464.903-2.082s1.351-.927 2.25-.927c.722 0 1.332.168 1.829.505s.843.81 1.035 1.42c.433 1.316.81 2.323 1.131 3.021s.807 1.336 1.456 1.914c.65.578 1.512 1.019 2.588 1.324v-11.193c-2.15-.594-3.947-1.255-5.392-1.986-1.444-.73-2.616-1.769-3.514-3.117-.899-1.348-1.348-3.081-1.348-5.199 0-2.76.878-5.023 2.635-6.788 1.758-1.765 4.297-2.792 7.618-3.081v-2.552c0-1.348.506-2.022 1.516-2.022 1.027-.001 1.541.657 1.541 1.973zm-3.057 16.513v-9.219c-1.348.401-2.399.931-3.153 1.589s-1.131 1.653-1.131 2.985c0 1.268.353 2.227 1.059 2.877.705.648 1.78 1.238 3.225 1.768zm3.057 7.149v10.543c1.621-.321 2.873-.971 3.755-1.95.883-.979 1.324-2.118 1.324-3.418 0-1.396-.429-2.475-1.288-3.238-.859-.762-2.122-1.408-3.791-1.937z" fill="#eaa97d"/></g><g><path d="m191.886 201.26c-14.975 0-28.79-8.528-35.554-21.833h-8.696v4.203c0 2.324-1.301 4.395-3.394 5.404-2.096 1.011-4.525.737-6.343-.71l-27.886-22.203c-1.438-1.145-2.263-2.855-2.263-4.694s.825-3.549 2.263-4.694l27.885-22.202c1.817-1.447 4.248-1.721 6.343-.711 2.094 1.009 3.395 3.081 3.395 5.405v4.202h8.665c6.752-13.344 20.579-21.896 35.585-21.896 21.981 0 39.864 17.883 39.864 39.865s-17.883 39.864-39.864 39.864zm-46.25-25.832h11.945c.776 0 1.482.449 1.812 1.152 5.882 12.563 18.637 20.681 32.493 20.681 19.775 0 35.864-16.089 35.864-35.864 0-19.776-16.089-35.865-35.864-35.865-13.886 0-26.65 8.142-32.521 20.741-.328.705-1.035 1.155-1.813 1.155h-11.917c-1.104 0-2-.896-2-2v-6.202c0-.787-.423-1.46-1.131-1.802-.707-.34-1.498-.253-2.115.237l-27.885 22.202c-.479.382-.754.952-.754 1.565s.275 1.183.754 1.564l27.886 22.203c.615.49 1.407.58 2.114.237.708-.341 1.131-1.015 1.131-1.801v-6.203c.001-1.105.896-2 2.001-2z" fill="#3762cc"/></g></g></svg>