<svg id="Layer_1" enable-background="new 0 0 256 256" height="512" viewBox="0 0 256 256" width="512" xmlns="http://www.w3.org/2000/svg"><g><g><path d="m246.47 97.355-82.156 82.156c-1.665 1.665-4.364 1.665-6.029 0l-41.701-41.701c-1.665-1.665-1.665-4.364 0-6.029l82.156-82.156c1.665-1.665 4.364-1.665 6.029 0l41.701 41.701c1.665 1.665 1.665 4.364 0 6.029z" fill="#6bdddd"/></g><g><path d="m162.354 174.054c-1.104 0-2.141-.43-2.922-1.21l-36.181-36.181c-1.61-1.611-1.61-4.232-.001-5.842l74.528-74.527c.779-.78 1.817-1.21 2.921-1.21s2.141.43 2.922 1.21l36.181 36.181c1.61 1.611 1.61 4.232.001 5.842l-74.528 74.527c-.779.78-1.817 1.21-2.921 1.21zm-.093-4.039c.043.043.143.045.186.001l74.528-74.527c.051-.051.051-.135-.001-.187l-36.18-36.18c-.044-.043-.142-.043-.186 0l-74.528 74.527c-.051.051-.051.135.001.187z" fill="#e0ebfc"/></g><g><circle cx="181.527" cy="114.568" fill="#e0ebfc" r="21.221"/></g><g><path d="m171.256 102.784 1.313 1.313c.956-.778 1.878-1.343 2.765-1.696.888-.353 1.834-.489 2.839-.408.778.049 1.485.193 2.121.431.636.239 1.136.541 1.501.906.405.405.608.904.608 1.495 0 .592-.211 1.098-.632 1.52-.794.794-1.738.879-2.832.255-1.28-.745-2.597-.774-3.951-.085l5.057 5.057c1.281-.729 2.332-1.278 3.154-1.647.823-.369 1.684-.573 2.583-.614.948-.056 1.868.089 2.759.438s1.706.892 2.443 1.629c.924.924 1.572 2.006 1.945 3.246s.393 2.536.061 3.89c-.332 1.353-1.029 2.658-2.091 3.914l3.027 3.027c.478.478.78.873.906 1.185s.03.626-.286.942c-.292.292-.585.407-.881.347-.296-.061-.63-.278-1.003-.65l-3.282-3.282c-1.054.843-2.105 1.449-3.154 1.817-1.05.369-2.064.537-3.045.505-.98-.032-1.858-.209-2.632-.529s-1.424-.743-1.951-1.27c-.389-.389-.587-.892-.595-1.507-.008-.616.214-1.15.668-1.604.365-.365.758-.587 1.179-.668s.835-.016 1.24.194c.883.446 1.582.764 2.097.954s1.082.267 1.702.231c.62-.037 1.278-.249 1.975-.638l-5.652-5.652c-1.385.786-2.627 1.359-3.726 1.72-1.098.361-2.214.427-3.348.2-1.135-.227-2.237-.875-3.306-1.945-1.394-1.394-2.093-2.98-2.097-4.759s.76-3.58 2.291-5.403l-1.288-1.288c-.681-.681-.766-1.276-.255-1.787.516-.521 1.108-.449 1.773.216zm6.795 9.882-4.656-4.656c-.478.883-.741 1.681-.79 2.395-.049.713.263 1.406.936 2.079.64.64 1.303.946 1.987.918.685-.028 1.526-.274 2.523-.736zm5.154 2.067 5.324 5.324c.656-.98.96-1.941.912-2.881s-.401-1.738-1.057-2.395c-.705-.705-1.467-1.033-2.285-.984-.82.049-1.784.36-2.894.936z" fill="#6bdddd"/></g><g><path d="m161.3 182.756c-1.604 0-3.208-.61-4.429-1.831l-41.701-41.702c-1.184-1.183-1.835-2.756-1.835-4.429s.651-3.246 1.835-4.429l82.156-82.156c1.183-1.183 2.756-1.835 4.429-1.835s3.246.652 4.429 1.835l41.701 41.701c1.184 1.183 1.835 2.756 1.835 4.429s-.651 3.246-1.835 4.429l-82.156 82.156c-1.221 1.222-2.826 1.832-4.429 1.832zm40.455-132.38c-.604 0-1.173.236-1.601.663l-82.156 82.156c-.428.428-.663.996-.663 1.6s.235 1.173.663 1.601l41.701 41.701c.883.882 2.318.882 3.201 0l82.156-82.156c.428-.428.663-.996.663-1.601s-.235-1.173-.663-1.601l-41.701-41.701c-.427-.426-.996-.662-1.6-.662z" fill="#3762cc"/></g><g><path d="m244.939 124.219-82.156 82.156c-1.665 1.665-4.364 1.665-6.029 0l-41.701-41.701c-1.665-1.665-1.665-4.364 0-6.029l82.156-82.156c1.665-1.665 4.364-1.665 6.029 0l41.701 41.701c1.665 1.665 1.665 4.364 0 6.029z" fill="#6bdddd"/></g><g><path d="m160.823 200.917c-1.104 0-2.141-.43-2.922-1.21l-36.181-36.181c-1.61-1.611-1.61-4.232-.001-5.842l74.528-74.527c.779-.78 1.817-1.21 2.921-1.21s2.141.43 2.922 1.21l36.181 36.181c1.61 1.611 1.61 4.232.001 5.842l-74.528 74.527c-.779.78-1.817 1.21-2.921 1.21zm-.094-4.039c.043.043.143.045.186.001l74.528-74.527c.051-.051.051-.135-.001-.187l-36.18-36.18c-.044-.043-.142-.043-.186 0l-74.528 74.527c-.051.051-.051.135.001.187z" fill="#e0ebfc"/></g><g><circle cx="179.996" cy="141.432" fill="#e0ebfc" r="21.221"/></g><g><path d="m169.724 129.648 1.313 1.313c.956-.778 1.878-1.343 2.765-1.696.888-.353 1.834-.489 2.839-.408.778.049 1.485.193 2.121.431.636.239 1.136.541 1.501.906.405.405.608.904.608 1.495 0 .592-.211 1.098-.632 1.52-.794.794-1.738.879-2.832.255-1.28-.745-2.597-.774-3.951-.085l5.057 5.057c1.281-.729 2.332-1.278 3.154-1.647.823-.369 1.684-.573 2.583-.614.948-.056 1.868.089 2.759.438s1.706.892 2.443 1.629c.924.924 1.572 2.006 1.945 3.246s.393 2.536.061 3.89c-.332 1.353-1.029 2.658-2.091 3.914l3.027 3.027c.478.478.78.873.906 1.185s.03.626-.286.942c-.292.292-.585.407-.881.347-.296-.061-.63-.278-1.003-.65l-3.282-3.282c-1.054.843-2.105 1.449-3.154 1.817-1.05.369-2.064.537-3.045.505-.98-.033-1.858-.209-2.632-.529s-1.424-.743-1.951-1.27c-.389-.389-.587-.892-.595-1.507-.008-.616.214-1.15.668-1.604.365-.365.758-.587 1.179-.668s.835-.016 1.24.194c.883.446 1.582.764 2.097.954s1.082.267 1.702.231c.62-.037 1.278-.249 1.975-.638l-5.652-5.652c-1.385.786-2.627 1.359-3.726 1.72-1.098.361-2.214.427-3.348.2-1.135-.227-2.237-.875-3.306-1.945-1.394-1.394-2.093-2.98-2.097-4.759s.76-3.58 2.291-5.403l-1.288-1.288c-.681-.681-.766-1.276-.255-1.787.517-.521 1.109-.448 1.773.216zm6.795 9.883-4.656-4.656c-.478.883-.741 1.681-.79 2.395-.049.713.263 1.406.936 2.079.64.64 1.303.946 1.987.918.686-.029 1.526-.275 2.523-.736zm5.154 2.066 5.324 5.324c.656-.98.96-1.941.912-2.881-.049-.94-.401-1.738-1.057-2.395-.705-.705-1.467-1.033-2.285-.984-.819.049-1.784.36-2.894.936z" fill="#6bdddd"/></g><g><path d="m159.769 209.624c-1.673 0-3.246-.652-4.429-1.835l-41.701-41.701c-1.184-1.183-1.835-2.756-1.835-4.429s.651-3.246 1.835-4.429l82.156-82.156c2.441-2.441 6.416-2.442 8.857 0l41.701 41.702c2.441 2.442 2.441 6.416 0 8.857l-82.156 82.156c-1.182 1.183-2.756 1.835-4.428 1.835zm40.455-132.383c-.58 0-1.159.221-1.601.662l-82.156 82.156c-.428.428-.663.996-.663 1.601s.235 1.173.663 1.601l41.701 41.701c.855.854 2.346.854 3.201 0l82.156-82.156c.882-.882.882-2.318-.001-3.201l-41.7-41.701c-.441-.442-1.02-.663-1.6-.663zm44.715 46.978h.01z" fill="#3762cc"/></g><g><path d="m50.869 139.23h20.551l24.01 10.45c5.142 2.238 10.69 3.393 16.297 3.393h53.839c8.13 0 14.675-6.781 14.288-14.996-.362-7.694-6.99-13.613-14.693-13.613h-41.262c27.998-27.997 13.007-13.007 43.104-43.103l-22.969-9.105c-4.28-1.697-8.91-2.323-13.488-1.825l-79.674 8.672c.002 13.667-.002 46.767-.003 60.127z" fill="#f9cfcf"/></g><g><path d="m165.567 155.073h-53.84c-5.917 0-11.669-1.197-17.095-3.559l-23.628-10.284h-20.135c-.53 0-1.039-.211-1.414-.586s-.586-.884-.586-1.414l.004-60.127c0-1.021.769-1.878 1.783-1.988l79.675-8.672c4.878-.53 9.875.144 14.442 1.954l22.969 9.105c.626.248 1.085.795 1.222 1.454.136.66-.068 1.343-.545 1.819l-39.689 39.689h36.434c8.949 0 16.28 6.817 16.69 15.519.212 4.508-1.382 8.783-4.488 12.039-3.108 3.257-7.298 5.051-11.799 5.051zm-112.698-17.843h18.551c.274 0 .546.057.798.166l24.011 10.45c4.92 2.142 10.135 3.227 15.499 3.227h53.84c3.396 0 6.559-1.354 8.904-3.813 2.344-2.457 3.546-5.685 3.386-9.089-.309-6.565-5.885-11.708-12.694-11.708h-41.262c-.809 0-1.538-.487-1.848-1.235-.31-.747-.139-1.607.434-2.179l40.951-40.951-20.14-7.983c-3.963-1.571-8.299-2.156-12.534-1.696l-77.892 8.478z" fill="#3762cc"/></g><g><path d="m60.722 150.712h-24.14c-1.599 0-2.896-1.296-2.896-2.896v-74.217c0-1.599 1.296-2.896 2.896-2.896h24.14c2.132 0 3.861 1.729 3.861 3.861v72.287c0 2.132-1.728 3.861-3.861 3.861z" fill="#e0ebfc"/></g><g><path d="m60.723 152.711h-24.14c-2.699 0-4.896-2.196-4.896-4.896v-74.216c0-2.7 2.196-4.896 4.896-4.896h24.14c3.231 0 5.86 2.629 5.86 5.861v72.287c0 3.231-2.629 5.86-5.86 5.86zm-24.14-80.008c-.494 0-.896.402-.896.896v74.217c0 .494.401.896.896.896h24.14c1.025 0 1.86-.835 1.86-1.861v-72.287c0-1.026-.835-1.861-1.86-1.861z" fill="#3762cc"/></g><g><path d="m12.142 156.268h34.875c2.132 0 3.861-1.729 3.861-3.861v-83.399c0-2.132-1.729-3.861-3.861-3.861h-34.875c-2.132 0-3.861 1.729-3.861 3.861v83.399c0 2.132 1.728 3.861 3.861 3.861z" fill="#4671c6"/></g><g><path d="m47.018 158.268h-34.876c-3.231 0-5.86-2.629-5.86-5.861v-83.399c0-3.232 2.629-5.861 5.86-5.861h34.876c3.231 0 5.86 2.629 5.86 5.861v83.399c0 3.231-2.629 5.861-5.86 5.861zm-34.876-91.122c-1.025 0-1.86.835-1.86 1.861v83.399c0 1.026.835 1.861 1.86 1.861h34.876c1.025 0 1.86-.835 1.86-1.861v-83.398c0-1.026-.835-1.861-1.86-1.861h-34.876z" fill="#3762cc"/></g></g></svg>