<svg id="Layer_1" enable-background="new 0 0 256 256" height="512" viewBox="0 0 256 256" width="512" xmlns="http://www.w3.org/2000/svg"><g><g><path d="m176.426 128.14c-.43 0-.866-.056-1.301-.172-2.674-.716-4.261-3.465-3.544-6.139l19.6-73.151c1.612-6.016 7.087-10.218 13.315-10.218h35.485c2.768 0 5.013 2.244 5.013 5.013s-2.245 5.013-5.013 5.013h-35.485c-1.699 0-3.192 1.146-3.632 2.787l-19.6 73.15c-.6 2.24-2.625 3.717-4.838 3.717z" fill="#e0ebfc"/></g><g><path d="m176.426 130.14c-.613 0-1.225-.081-1.82-.241-1.808-.484-3.32-1.645-4.257-3.267-.937-1.623-1.186-3.513-.7-5.322l19.6-73.15c1.845-6.889 8.115-11.7 15.247-11.7h35.485c3.867 0 7.013 3.146 7.013 7.013s-3.146 7.013-7.013 7.013h-35.485c-.795 0-1.494.537-1.701 1.306l-19.6 73.149c-.819 3.061-3.603 5.199-6.769 5.199zm28.07-89.68c-5.325 0-10.005 3.592-11.383 8.735l-19.601 73.151c-.208.777-.102 1.589.301 2.286s1.052 1.195 1.83 1.403c1.592.429 3.269-.56 3.689-2.129l19.6-73.151c.675-2.514 2.963-4.27 5.564-4.27h35.485c1.662 0 3.013-1.352 3.013-3.013 0-1.662-1.352-3.013-3.013-3.013h-35.485z" fill="#3762cc"/></g><g><path d="m163.447 212.431h-133.944c-2.768 0-5.013-2.244-5.013-5.013s2.245-5.013 5.013-5.013h133.943c.55 0 .868-.299 1.038-.55s.33-.657.127-1.166l-7.847-19.727c-1.023-2.572.233-5.487 2.805-6.511 2.574-1.022 5.486.232 6.511 2.805l7.847 19.728c1.383 3.478.955 7.403-1.147 10.501-2.101 3.097-5.591 4.946-9.333 4.946z" fill="#e0ebfc"/></g><g><path d="m163.446 214.431h-133.943c-3.867 0-7.013-3.146-7.013-7.013s3.146-7.013 7.013-7.013h132.844l-7.441-18.705c-1.429-3.593.332-7.679 3.924-9.108 3.592-1.427 7.679.333 9.108 3.924l7.848 19.728c1.628 4.096 1.124 8.717-1.351 12.363-2.473 3.646-6.581 5.824-10.989 5.824zm-133.943-10.026c-1.661 0-3.013 1.352-3.013 3.013s1.352 3.013 3.013 3.013h133.943c3.08 0 5.951-1.521 7.679-4.07 1.729-2.547 2.082-5.777.944-8.639l-7.848-19.727c-.614-1.542-2.368-2.302-3.914-1.686-1.542.614-2.299 2.369-1.685 3.913l7.848 19.728c.405 1.017.285 2.121-.331 3.028-.614.907-1.596 1.428-2.693 1.428h-133.943z" fill="#3762cc"/></g><g><circle cx="63.69" cy="211.418" fill="#4671c6" r="19.041"/></g><g><circle cx="63.689" cy="211.418" fill="#a4c9ff" r="9.406"/></g><g><circle cx="133.87" cy="211.418" fill="#4671c6" r="19.041"/></g><g><circle cx="133.869" cy="211.418" fill="#a4c9ff" r="9.406"/></g><g><path d="m190.857 73.825c-.773-.434-1.666-.605-2.552-.605h-175.131c-.845 0-1.698.148-2.447.539-2.037 1.063-3.031 3.244-2.661 5.344l16.118 91.405c.399 2.263 2.286 3.965 4.58 4.129l132.302 9.471c.12.009.241.013.36.013 2.252 0 4.249-1.512 4.839-3.716l27.03-100.876c.577-2.154-.328-4.519-2.438-5.704zm-72.254 45.825h-37.838c-1.384 0-2.506-1.122-2.506-2.506v-29.128c0-1.384 1.122-2.506 2.506-2.506h37.839c1.384 0 2.506 1.122 2.506 2.506v29.127c0 1.384-1.122 2.507-2.507 2.507zm-52.635-31.634v29.127c0 1.384-1.122 2.506-2.506 2.506h-32.289c-1.216 0-2.257-.873-2.468-2.071l-5.136-29.127c-.271-1.535.91-2.942 2.468-2.942h37.426c1.383.001 2.505 1.123 2.505 2.507zm-31.744 43.923h29.238c1.384 0 2.506 1.122 2.506 2.506v28.052c0 1.455-1.234 2.604-2.685 2.5l-24.602-1.761c-1.146-.082-2.09-.933-2.289-2.065l-4.636-26.291c-.271-1.534.909-2.941 2.468-2.941zm46.541 0h37.839c1.384 0 2.506 1.122 2.506 2.506v31.999c0 1.455-1.234 2.604-2.685 2.5l-37.839-2.709c-1.311-.094-2.327-1.185-2.327-2.5v-29.291c-.001-1.382 1.122-2.505 2.506-2.505zm71.962 39.462-17-1.217c-1.311-.094-2.327-1.185-2.327-2.5v-33.238c0-1.384 1.122-2.506 2.506-2.506h26.892c1.315 0 2.272 1.247 1.932 2.518l-9.403 35.093c-.311 1.159-1.401 1.936-2.6 1.85zm14.047-51.751h-30.868c-1.384 0-2.506-1.122-2.506-2.506v-29.128c0-1.384 1.122-2.506 2.506-2.506h38.673c1.648 0 2.848 1.563 2.421 3.155l-7.805 29.127c-.293 1.096-1.286 1.858-2.421 1.858z" fill="#a4c9ff"/></g><g><path d="m245.505 50.993h-35.403c-1.384 0-2.506-1.122-2.506-2.506v-10.339c0-1.384 1.122-2.506 2.506-2.506h35.403c1.384 0 2.506 1.122 2.506 2.506v10.339c0 1.384-1.122 2.506-2.506 2.506z" fill="#4671c6"/></g><g><path d="m245.504 52.993h-35.403c-2.485 0-4.506-2.021-4.506-4.506v-10.339c0-2.485 2.021-4.506 4.506-4.506h35.403c2.485 0 4.507 2.021 4.507 4.506v10.339c0 2.485-2.022 4.506-4.507 4.506zm-35.403-15.351c-.279 0-.506.227-.506.506v10.339c0 .279.227.506.506.506h35.403c.279 0 .507-.227.507-.506v-10.339c0-.279-.228-.506-.507-.506z" fill="#3762cc"/></g><g><path d="m63.689 232.459c-11.602 0-21.041-9.439-21.041-21.041s9.439-21.041 21.041-21.041 21.041 9.439 21.041 21.041-9.438 21.041-21.041 21.041zm0-38.082c-9.396 0-17.041 7.645-17.041 17.041s7.645 17.041 17.041 17.041 17.041-7.645 17.041-17.041-7.644-17.041-17.041-17.041z" fill="#3762cc"/></g><g><path d="m133.87 232.459c-11.602 0-21.041-9.439-21.041-21.041s9.439-21.041 21.041-21.041 21.041 9.439 21.041 21.041-9.439 21.041-21.041 21.041zm0-38.082c-9.396 0-17.041 7.645-17.041 17.041s7.645 17.041 17.041 17.041 17.041-7.645 17.041-17.041-7.645-17.041-17.041-17.041z" fill="#3762cc"/></g><g><path d="m63.689 222.824c-6.29 0-11.406-5.117-11.406-11.406s5.117-11.406 11.406-11.406 11.406 5.117 11.406 11.406-5.116 11.406-11.406 11.406zm0-18.812c-4.084 0-7.406 3.322-7.406 7.406s3.322 7.406 7.406 7.406 7.406-3.322 7.406-7.406-3.322-7.406-7.406-7.406z" fill="#3762cc"/></g><g><path d="m133.869 222.824c-6.29 0-11.406-5.117-11.406-11.406s5.117-11.406 11.406-11.406 11.406 5.117 11.406 11.406-5.116 11.406-11.406 11.406zm0-18.812c-4.084 0-7.406 3.322-7.406 7.406s3.322 7.406 7.406 7.406 7.406-3.322 7.406-7.406-3.322-7.406-7.406-7.406z" fill="#3762cc"/></g><g><path d="m161.425 186.122c-.164 0-.332-.006-.498-.018l-132.307-9.472c-3.212-.229-5.847-2.605-6.406-5.777l-16.119-91.405c-.533-3.031.956-6.03 3.707-7.465.973-.508 2.107-.766 3.372-.766h175.13c1.326 0 2.514.29 3.532.862 2.828 1.588 4.221 4.864 3.389 7.966l-27.03 100.875c-.819 3.062-3.603 5.2-6.77 5.2zm-148.251-110.902c-.613 0-1.125.105-1.521.312-1.197.625-1.847 1.92-1.618 3.225l16.118 91.405c.24 1.362 1.372 2.383 2.752 2.481l132.303 9.472c.069.005.144.008.217.008 1.36 0 2.555-.918 2.907-2.233l27.03-100.876c.364-1.357-.233-2.74-1.484-3.443 0 0 0 0-.001 0-.406-.229-.95-.349-1.572-.349h-175.131zm139.733 98.187c-.107 0-.215-.004-.323-.011l-17-1.217c-2.347-.168-4.185-2.143-4.185-4.495v-33.238c0-2.485 2.021-4.506 4.506-4.506h26.892c1.253 0 2.41.57 3.173 1.565s1.015 2.259.69 3.47l-9.403 35.093c-.528 1.977-2.328 3.339-4.35 3.339zm9.891-39.468h-26.892c-.279 0-.506.227-.506.506v33.238c0 .264.207.486.47.505l17 1.217c.246.006.463-.141.525-.375zm-44.197 37.013c-.106 0-.213-.004-.319-.011l-37.838-2.709c-2.347-.168-4.185-2.143-4.185-4.495v-29.291c0-2.485 2.021-4.506 4.506-4.506h37.839c2.485 0 4.506 2.021 4.506 4.506v32c0 1.247-.523 2.449-1.436 3.298-.835.777-1.94 1.208-3.073 1.208zm-37.836-37.013c-.279 0-.506.227-.506.506v29.291c0 .264.207.486.47.505l37.839 2.709c.181.012.308-.065.381-.134.074-.068.162-.188.162-.371v-32c0-.279-.227-.506-.506-.506zm-17.306 33.065c-.106 0-.213-.004-.319-.011l-24.602-1.761c-2.064-.148-3.757-1.674-4.117-3.712l-4.636-26.291c-.232-1.315.128-2.657.986-3.68s2.116-1.609 3.452-1.609h29.238c2.485 0 4.506 2.021 4.506 4.506v28.052c0 1.247-.523 2.449-1.436 3.299-.833.776-1.938 1.207-3.072 1.207zm-29.235-33.065c-.195 0-.318.098-.388.181s-.145.222-.111.414l4.636 26.291c.041.229.23.4.462.417l24.602 1.761c.187.012.308-.066.381-.134.074-.068.162-.188.162-.371v-28.052c0-.279-.227-.506-.506-.506h-29.238zm132.55-12.29h-30.868c-2.485 0-4.506-2.021-4.506-4.506v-29.127c0-2.485 2.021-4.506 4.506-4.506h38.673c1.413 0 2.716.643 3.576 1.763.859 1.121 1.143 2.545.777 3.91l-7.805 29.127c-.526 1.966-2.316 3.339-4.353 3.339zm-30.868-34.139c-.279 0-.506.227-.506.506v29.127c0 .279.227.506.506.506h30.868c.229 0 .43-.154.489-.375l7.805-29.127c.053-.199-.018-.349-.087-.439s-.195-.198-.402-.198zm-17.302 34.139h-37.839c-2.485 0-4.506-2.021-4.506-4.506v-29.127c0-2.485 2.021-4.506 4.506-4.506h37.839c2.485 0 4.506 2.021 4.506 4.506v29.127c0 2.485-2.022 4.506-4.506 4.506zm-37.839-34.139c-.279 0-.506.227-.506.506v29.127c0 .279.227.506.506.506h37.839c.279 0 .506-.227.506-.506v-29.127c0-.279-.227-.506-.506-.506zm-17.303 34.139h-32.289c-2.191 0-4.058-1.566-4.438-3.723l-5.136-29.128c-.232-1.315.127-2.656.986-3.679.858-1.023 2.117-1.61 3.452-1.61h37.426c2.485 0 4.506 2.021 4.506 4.506v29.127c-.001 2.486-2.022 4.507-4.507 4.507zm-37.426-34.139c-.195 0-.318.098-.388.181s-.145.221-.111.414l5.136 29.127c.042.242.252.418.499.418h32.289c.279 0 .506-.227.506-.506v-29.128c0-.279-.227-.506-.506-.506z" fill="#3762cc"/></g><g><circle cx="99.684" cy="60.541" fill="#6bdddd" r="35"/></g><g><circle cx="99.684" cy="60.541" fill="#4671c6" r="26.6"/></g><g><path d="m90.146 74.489c-.3 0-.602-.025-.904-.077-1.627-.276-3.01-1.267-3.795-2.719l-6.528-12.077c-.959-1.775-.298-3.992 1.477-4.951s3.992-.299 4.951 1.477l5.326 9.852 21.395-19.472c1.492-1.358 3.803-1.25 5.162.243 1.358 1.492 1.249 3.803-.243 5.161l-23.267 21.174c-.993.904-2.26 1.389-3.574 1.389z" fill="#f9a7a7"/></g><g><path d="m99.684 97.541c-20.402 0-37-16.598-37-37s16.598-37 37-37 37 16.598 37 37-16.598 37-37 37zm0-70c-18.196 0-33 14.804-33 33s14.804 33 33 33 33-14.804 33-33-14.804-33-33-33z" fill="#3762cc"/></g></g></svg>