<svg id="Layer_1" enable-background="new 0 0 256 256" height="512" viewBox="0 0 256 256" width="512" xmlns="http://www.w3.org/2000/svg"><g><g><path d="m224.787 96.467c0-3.019-2.448-5.467-5.467-5.467-4.237 0-193.605 0-190.495 0-3.019 0-5.467 2.448-5.467 5.467v51.723c0 3.019 2.448 5.467 5.467 5.467h23.852c.635 0 1.137.54 1.09 1.174l-6.432 87.301c-.233 3.168 2.275 5.868 5.453 5.868 3.912 0 144.663 0 142.571 0 3.177 0 5.685-2.7 5.452-5.868l-6.432-87.301c-.047-.634.455-1.174 1.09-1.174h23.852c3.019 0 5.467-2.448 5.467-5.467v-51.723z" fill="#4671c6"/></g><g><path d="m163.816 95.723v-4.723c-2.68 0-76.04 0-79.487 0v4.723c0 21.915 17.829 39.743 39.743 39.743s39.744-17.828 39.744-39.743z" fill="#e0ebfc"/></g><g><path d="m155.07 95.722v-4.722c-29.866 0-33.213 0-61.994 0v4.722c0 17.119 13.878 30.997 30.997 30.997s30.997-13.877 30.997-30.997z" fill="#f9a7a7"/></g><g><path d="m195.382 250h-142.594c-2.068 0-4.063-.869-5.471-2.385-1.407-1.515-2.128-3.567-1.976-5.63l6.359-86.329h-22.875c-4.117 0-7.467-3.35-7.467-7.466v-51.723c0-4.091 3.308-7.424 7.388-7.467h.041 190.533c4.117 0 7.467 3.35 7.467 7.467v51.724c0 4.116-3.35 7.466-7.467 7.466h-22.875l6.359 86.329c.152 2.063-.568 4.115-1.976 5.63-1.397 1.504-3.371 2.371-5.422 2.385-.008-.001-.016-.001-.024-.001zm-166.557-157c-1.911 0-3.467 1.556-3.467 3.467v51.724c0 1.911 1.556 3.466 3.467 3.466h23.852c.857 0 1.684.36 2.267.988.584.628.882 1.479.818 2.333l-6.432 87.301c-.071.973.255 1.9.918 2.614s1.565 1.107 2.54 1.107h142.57c.975 0 1.877-.394 2.54-1.107s.989-1.642.918-2.614l-6.432-87.302c-.063-.854.234-1.704.818-2.332.583-.628 1.408-.988 2.266-.988h23.852c1.911 0 3.467-1.555 3.467-3.466v-51.724c0-1.911-1.556-3.467-3.467-3.467z" fill="#3762cc"/></g><g><path d="m124.073 137.467c-23.018 0-41.743-18.727-41.743-41.744v-4.723c0-1.104.896-2 2-2h79.486c1.104 0 2 .896 2 2v4.723c0 23.017-18.725 41.744-41.743 41.744zm-37.743-44.467v2.723c0 20.813 16.932 37.744 37.743 37.744s37.743-16.932 37.743-37.744v-2.723z" fill="#3762cc"/></g><g><path d="m124.073 128.72c-18.194 0-32.997-14.803-32.997-32.997v-4.723c0-1.104.896-2 2-2h61.994c1.104 0 2 .896 2 2v4.723c0 18.194-14.802 32.997-32.997 32.997zm-28.997-35.72v2.723c0 15.989 13.008 28.997 28.997 28.997s28.997-13.008 28.997-28.997v-2.723z" fill="#3762cc"/></g><g><path d="m192.625 194.265-4.896-13.571c-.71-1.968-3.493-1.968-4.203 0l-4.896 13.571c-.583 1.616-1.909 2.862-3.574 3.358l-10.165 3.027c-2.128.634-2.128 3.648 0 4.282l10.165 3.028c1.664.496 2.991 1.742 3.574 3.358l4.896 13.571c.71 1.968 3.493 1.968 4.203 0l4.896-13.571c.583-1.616 1.909-2.862 3.574-3.358l10.165-3.028c2.128-.634 2.128-3.648 0-4.282l-10.164-3.027c-1.666-.496-2.992-1.742-3.575-3.358z" fill="#a4c9ff"/></g><g><path d="m221.221 213.905-3.646-10.108c-.529-1.466-2.601-1.466-3.13 0l-3.646 10.108c-.434 1.204-1.422 2.132-2.662 2.501l-7.57 2.255c-1.585.472-1.585 2.717 0 3.189l7.571 2.255c1.239.369 2.227 1.298 2.662 2.501l3.646 10.108c.529 1.466 2.601 1.466 3.13 0l3.646-10.108c.434-1.203 1.422-2.132 2.662-2.501l7.57-2.255c1.585-.472 1.585-2.717 0-3.189l-7.57-2.255c-1.241-.369-2.229-1.297-2.663-2.501z" fill="#a4c9ff"/></g><g><path d="m156.56 8h-66.126c-7.732 0-14 6.268-14 14v43.306c0 7.732 6.268 14 14 14h17.841l12.719 19.241c1.186 1.794 3.819 1.794 5.005 0l12.719-19.241h17.841c7.732 0 14-6.268 14-14v-43.306c.001-7.732-6.267-14-13.999-14z" fill="#6bdddd"/></g><g><path d="m103.861 31.188c-.862 0-1.563.306-2.081.909-.497.579-.749 1.425-.749 2.515v13.011l-8.7-13.163c-.272-.431-.536-.846-.792-1.243-.273-.424-.547-.779-.815-1.053-.289-.296-.629-.534-1.01-.708-.392-.179-.859-.269-1.387-.269-.68 0-1.321.192-1.905.571-.588.381-1.017.883-1.278 1.503-.208.532-.309 1.224-.309 2.114v19.2c0 1.069.262 1.911.778 2.502.536.613 1.249.923 2.121.923.845 0 1.55-.305 2.096-.907.532-.586.802-1.433.802-2.518v-12.77l8.473 12.991c.273.399.548.79.821 1.172.294.411.617.775.962 1.082.366.327.768.571 1.195.725.42.15.892.227 1.405.227 1.484 0 3.254-.662 3.254-3.815v-19.575c0-1.091-.256-1.938-.76-2.518-.524-.601-1.237-.906-2.121-.906z" fill="#e0ebfc"/></g><g><path d="m128.51 52.492h-11.209v-6.002h9.919c.921 0 1.629-.23 2.104-.684.482-.46.726-1.057.726-1.773 0-.72-.25-1.314-.745-1.765-.481-.436-1.182-.658-2.086-.658h-9.919v-5.034h10.819c.939 0 1.664-.227 2.154-.676.506-.462.761-1.072.761-1.815 0-.731-.256-1.336-.761-1.798-.49-.449-1.215-.676-2.154-.676h-13.309c-.788 0-1.455.122-1.98.363-.575.263-1.004.688-1.275 1.263-.247.528-.372 1.202-.372 2.002v18.707c0 1.229.296 2.151.877 2.738.584.591 1.508.89 2.75.89h13.7c.928 0 1.652-.233 2.155-.693.515-.472.777-1.089.777-1.832 0-.766-.262-1.394-.777-1.865-.503-.458-1.227-.692-2.155-.692z" fill="#e0ebfc"/></g><g><path d="m163.859 31.989c-.561-.532-1.248-.801-2.043-.801-.799 0-1.432.223-1.878.664-.407.398-.697.859-.865 1.37-.148.448-.3 1.049-.465 1.833l-2.783 12.409-3.115-11.498c-.306-1.124-.556-1.95-.745-2.457-.211-.567-.59-1.094-1.125-1.567-.569-.5-1.355-.754-2.333-.754-.96 0-1.743.24-2.326.715-.556.453-.964 1-1.214 1.629-.224.565-.469 1.363-.75 2.435l-3.082 11.485-2.78-12.392c-.25-1.181-.54-2.066-.884-2.706-.286-.532-.922-1.166-2.324-1.166-.81 0-1.502.274-2.056.815-.56.544-.842 1.222-.842 2.016 0 .562.127 1.333.389 2.353l4.142 16.757c.126.501.268 1.045.428 1.631.171.628.395 1.181.667 1.642.296.504.69.9 1.171 1.178.483.279 1.091.42 1.806.42.896 0 1.635-.24 2.197-.712.533-.449.915-.969 1.133-1.545.191-.505.444-1.317.772-2.485l3.552-13.007 3.507 13.011c.335 1.191.59 2.012.778 2.514.214.567.592 1.08 1.127 1.524.563.465 1.301.701 2.195.701.945 0 1.702-.246 2.251-.73.513-.455.883-.996 1.099-1.606.195-.545.43-1.375.72-2.538l4.143-16.757c.262-1.073.389-1.842.389-2.351-.001-.807-.289-1.49-.856-2.03z" fill="#e0ebfc"/></g><g><path d="m123.496 101.893c-1.684 0-3.243-.838-4.171-2.243l-12.125-18.344h-16.766c-8.822 0-16-7.178-16-16v-43.306c0-8.822 7.178-16 16-16h66.126c8.822 0 16 7.178 16 16v43.306c0 8.822-7.178 16-16 16h-16.767l-12.126 18.344c-.927 1.405-2.486 2.243-4.171 2.243zm-33.062-91.893c-6.617 0-12 5.383-12 12v43.306c0 6.617 5.383 12 12 12h17.842c.672 0 1.298.337 1.668.897l12.719 19.241c.259.391.634.448.834.448.201 0 .576-.058.834-.448l12.72-19.241c.37-.561.996-.897 1.668-.897h17.842c6.617 0 12-5.383 12-12v-43.306c0-6.617-5.383-12-12-12z" fill="#3762cc"/></g></g></svg>