<svg id="Layer_1" enable-background="new 0 0 256 256" height="512" viewBox="0 0 256 256" width="512" xmlns="http://www.w3.org/2000/svg"><g><g><path d="m178.873 53.958v-31.727h-145.384v31.726c0 33.466 22.622 61.629 53.404 70.082 1.775.487 3.032 2.087 3.032 3.928v.066c0 1.841-1.257 3.44-3.032 3.928-30.781 8.452-53.404 36.616-53.404 70.082v31.726h145.383v-31.726c0-33.466-22.622-61.629-53.404-70.082-1.775-.487-3.032-2.087-3.032-3.928 0-.022 0-.044 0-.066 0-1.841 1.257-3.44 3.032-3.928 30.782-8.452 53.405-36.616 53.405-70.081z" fill="#e0ebfc"/></g><g><path d="m178.873 235.769h-145.384c-1.104 0-2-.896-2-2v-31.726c0-33.527 22.564-63.139 54.874-72.011.919-.252 1.562-1.074 1.562-1.999 0-.991-.643-1.813-1.562-2.065-32.31-8.872-54.874-38.483-54.874-72.011v-31.726c0-1.104.896-2 2-2h145.384c1.104 0 2 .896 2 2v31.726c0 33.527-22.565 63.139-54.875 72.011-.919.252-1.561 1.074-1.562 2 .001.99.643 1.813 1.562 2.064 32.31 8.872 54.875 38.483 54.875 72.011v31.726c0 1.104-.895 2-2 2zm-143.384-4h141.384v-29.726c0-31.731-21.356-59.757-51.934-68.153-2.649-.728-4.502-3.135-4.503-5.855.001-2.789 1.854-5.196 4.503-5.924 30.577-8.396 51.934-36.422 51.934-68.153v-29.727h-141.384v29.726c0 31.731 21.355 59.757 51.933 68.153 2.651.728 4.503 3.136 4.503 5.856 0 2.787-1.852 5.195-4.503 5.923-30.577 8.396-51.933 36.422-51.933 68.153z" fill="#3762cc"/></g><g><path d="m166.477 209.687-54.783-30.009v-61.845c18.954-1.623 35.573-11.53 46.225-26.074 1.931-2.637.026-6.356-3.242-6.356h-96.992c-3.268 0-5.173 3.719-3.242 6.356 10.652 14.544 27.271 24.451 46.225 26.074v61.845l-54.783 30.009c-2.355 1.29-3.819 3.761-3.819 6.447v2.052c0 4.06 3.291 7.351 7.351 7.351h113.529c4.06 0 7.351-3.291 7.351-7.351v-2.052c-.001-2.685-1.465-5.157-3.82-6.447z" fill="#6bdddd"/></g><g><path d="m181.259 30.463h-150.156c-4.546 0-8.231-3.685-8.231-8.231 0-4.546 3.685-8.231 8.231-8.231h150.156c4.546 0 8.231 3.685 8.231 8.231.001 4.546-3.685 8.231-8.231 8.231z" fill="#4671c6"/></g><g><path d="m181.259 32.463h-150.156c-5.642 0-10.231-4.59-10.231-10.231s4.589-10.232 10.231-10.232h150.156c5.642 0 10.231 4.59 10.231 10.231s-4.59 10.232-10.231 10.232zm-150.156-16.463c-3.436 0-6.231 2.796-6.231 6.231s2.796 6.231 6.231 6.231h150.156c3.436 0 6.231-2.796 6.231-6.231s-2.796-6.231-6.231-6.231z" fill="#3762cc"/></g><g><path d="m181.259 242h-150.156c-4.546 0-8.231-3.685-8.231-8.231 0-4.546 3.685-8.231 8.231-8.231h150.156c4.546 0 8.231 3.685 8.231 8.231.001 4.546-3.685 8.231-8.231 8.231z" fill="#4671c6"/></g><g><path d="m181.259 244h-150.156c-5.642 0-10.231-4.59-10.231-10.231s4.59-10.231 10.231-10.231h150.156c5.642 0 10.231 4.59 10.231 10.231s-4.59 10.231-10.231 10.231zm-150.156-16.463c-3.436 0-6.231 2.796-6.231 6.231s2.795 6.232 6.231 6.232h150.156c3.436 0 6.231-2.796 6.231-6.231s-2.796-6.231-6.231-6.231h-150.156z" fill="#3762cc"/></g><g><path d="m233.129 128c0 3.457-8.885 5.998-9.531 9.265-.666 3.367 6.559 9.106 5.274 12.203-1.307 3.152-10.486 2.094-12.361 4.895-1.89 2.823 2.585 10.9.192 13.293s-10.47-2.082-13.293-.192c-2.801 1.875-1.743 11.055-4.895 12.361-3.098 1.284-8.836-5.94-12.203-5.274-3.267.646-5.808 9.531-9.265 9.531s-5.998-8.885-9.265-9.531c-3.367-.666-9.106 6.559-12.203 5.274-3.152-1.307-2.094-10.486-4.895-12.361-2.823-1.89-10.9 2.585-13.293.192s2.082-10.47.192-13.293c-1.875-2.801-11.055-1.743-12.361-4.895-1.284-3.098 5.94-8.836 5.274-12.203-.646-3.267-9.531-5.808-9.531-9.265s8.885-5.998 9.531-9.265c.666-3.367-6.559-9.106-5.274-12.203 1.307-3.152 10.486-2.094 12.361-4.895 1.89-2.823-2.585-10.9-.192-13.293s10.47 2.082 13.293.192c2.801-1.875 1.743-11.055 4.895-12.361 3.098-1.284 8.836 5.94 12.203 5.274 3.267-.646 5.808-9.531 9.265-9.531s5.998 8.885 9.265 9.531c3.367.666 9.106-6.559 12.203-5.274 3.152 1.307 2.094 10.486 4.895 12.361 2.823 1.89 10.9-2.585 13.293-.192s-2.082 10.47-.192 13.293c1.875 2.801 11.055 1.743 12.361 4.895 1.284 3.098-5.94 8.836-5.274 12.203.646 3.267 9.531 5.808 9.531 9.265z" fill="#f9a7a7"/></g><g><path d="m169.446 113.681c0 4.875-1.072 8.499-3.216 10.873s-5.08 3.561-8.805 3.561c-2.298 0-4.359-.504-6.183-1.512-1.825-1.008-3.248-2.584-4.268-4.728-1.021-2.144-1.532-4.76-1.532-7.848 0-3.318.396-6.087 1.187-8.308s2.073-3.905 3.847-5.054 4.04-1.723 6.796-1.723c1.991 0 3.739.306 5.245.919 1.505.613 2.781 1.551 3.828 2.814 1.046 1.263 1.824 2.801 2.335 4.613s.766 3.943.766 6.393zm-7.159-.383c0-3.343-.358-5.775-1.072-7.293s-1.978-2.278-3.79-2.278c-1.225 0-2.202.364-2.929 1.091s-1.225 1.799-1.493 3.216-.402 3.223-.402 5.417c0 2.272.134 4.122.402 5.551.268 1.43.759 2.508 1.474 3.235.714.727 1.697 1.091 2.948 1.091 1.888 0 3.171-.804 3.847-2.412.676-1.607 1.015-4.146 1.015-7.618zm32.696-9.303-31.892 51.417c-.817 1.403-1.736 2.106-2.757 2.106-.588 0-1.175-.224-1.761-.67-.588-.447-.881-1.028-.881-1.742 0-.536.255-1.187.765-1.953l32.084-51.839c.561-.944 1.052-1.652 1.473-2.125.422-.472 1.028-.708 1.819-.708.766 0 1.384.224 1.857.67.472.447.708 1.04.708 1.78.001.537-.471 1.558-1.415 3.064zm13.668 37.367c0 4.875-1.072 8.499-3.216 10.873s-5.08 3.561-8.805 3.561c-2.323 0-4.397-.51-6.222-1.531s-3.254-2.59-4.288-4.709c-1.034-2.118-1.55-4.734-1.55-7.849 0-4.977.95-8.722 2.852-11.237 1.901-2.514 4.92-3.771 9.055-3.771 1.991 0 3.733.306 5.226.919s2.769 1.531 3.828 2.757c1.059 1.225 1.844 2.751 2.355 4.575.509 1.824.765 3.961.765 6.412zm-7.16-.383c0-3.293-.358-5.698-1.072-7.217-.715-1.518-1.978-2.278-3.79-2.278-1.277 0-2.272.358-2.987 1.072-.715.715-1.219 1.768-1.512 3.159-.294 1.391-.44 3.197-.44 5.417 0 3.421.363 5.922 1.091 7.504.727 1.583 2.01 2.374 3.848 2.374 1.863 0 3.139-.81 3.828-2.431.69-1.621 1.034-4.155 1.034-7.6z" fill="#ffea92"/></g><g><path d="m177.046 186.083c-2.906 0-4.784-2.937-6.601-5.777-.815-1.275-2.334-3.65-3.052-3.792-.803-.139-3.08 1.438-4.446 2.391-2.717 1.895-5.526 3.854-8.136 2.769-2.653-1.101-3.258-4.509-3.842-7.805-.268-1.509-.766-4.317-1.399-4.742-.649-.437-3.351.156-4.964.511-3.252.712-6.615 1.449-8.631-.566s-1.278-5.379-.566-8.631c.354-1.613.946-4.314.511-4.964-.425-.634-3.233-1.132-4.742-1.399-3.296-.584-6.704-1.188-7.805-3.843-1.084-2.611.875-5.419 2.769-8.135.952-1.366 2.548-3.653 2.391-4.446-.142-.718-2.517-2.236-3.792-3.052-2.841-1.816-5.777-3.694-5.777-6.601s2.937-4.784 5.777-6.601c1.275-.815 3.65-2.334 3.792-3.052.157-.793-1.438-3.08-2.391-4.446-1.894-2.716-3.853-5.524-2.769-8.137 1.101-2.653 4.509-3.258 7.805-3.842 1.51-.268 4.318-.766 4.742-1.399.436-.649-.156-3.35-.511-4.964-.712-3.252-1.449-6.615.566-8.63 2.016-2.016 5.379-1.278 8.631-.566 1.615.354 4.313.946 4.964.511.634-.425 1.132-3.233 1.399-4.742.584-3.296 1.188-6.704 3.842-7.806 2.613-1.081 5.42.875 8.136 2.77 1.366.952 3.644 2.523 4.446 2.391.718-.142 2.236-2.517 3.052-3.792 1.816-2.841 3.694-5.777 6.601-5.777s4.784 2.937 6.601 5.776c.815 1.276 2.334 3.651 3.053 3.793.774.133 3.079-1.438 4.445-2.391 2.717-1.895 5.521-3.853 8.137-2.769 2.653 1.101 3.258 4.509 3.842 7.805.268 1.51.766 4.318 1.399 4.742.646.437 3.35-.156 4.964-.511 3.253-.713 6.615-1.448 8.63.566 2.016 2.016 1.279 5.378.566 8.631-.354 1.613-.945 4.313-.511 4.963.425.635 3.233 1.133 4.742 1.4 3.296.584 6.704 1.188 7.806 3.842 1.083 2.612-.875 5.42-2.769 8.135-.953 1.366-2.549 3.653-2.392 4.447.143.718 2.517 2.235 3.792 3.052 2.841 1.816 5.777 3.694 5.777 6.601s-2.937 4.784-5.777 6.601c-1.275.816-3.649 2.334-3.792 3.053-.157.792 1.438 3.079 2.392 4.446 1.894 2.715 3.852 5.522 2.769 8.135-1.102 2.654-4.51 3.259-7.806 3.843-1.509.268-4.318.766-4.742 1.399-.436.649.156 3.35.511 4.964.712 3.252 1.449 6.615-.566 8.63-2.015 2.016-5.378 1.278-8.631.566-1.613-.354-4.313-.948-4.964-.511-.633.424-1.131 3.233-1.398 4.742-.584 3.296-1.188 6.704-3.842 7.806-2.616 1.078-5.422-.876-8.137-2.77-1.366-.952-3.637-2.529-4.445-2.391-.719.142-2.237 2.517-3.053 3.793-1.817 2.839-3.695 5.776-6.601 5.776zm-9.719-13.574c.282 0 .563.025.842.081 2.393.473 3.973 2.944 5.646 5.561.752 1.177 2.515 3.933 3.23 3.933s2.479-2.755 3.23-3.932c1.674-2.617 3.255-5.089 5.647-5.562 2.467-.487 5.028 1.303 7.509 3.034 1.265.882 3.602 2.525 4.325 2.352.633-.328 1.169-3.353 1.427-4.806.546-3.083 1.063-5.995 3.111-7.368 2.068-1.385 4.972-.747 8.046-.072 1.422.312 4.381.958 4.949.51.443-.564-.205-3.521-.516-4.942-.674-3.075-1.311-5.979.072-8.046 1.373-2.05 4.285-2.566 7.368-3.112 1.453-.258 4.478-.794 4.81-1.438.169-.692-1.474-3.048-2.355-4.313-1.731-2.482-3.521-5.049-3.034-7.511.474-2.393 2.944-3.973 5.561-5.646 1.177-.753 3.933-2.515 3.933-3.231s-2.756-2.479-3.933-3.231c-2.616-1.673-5.087-3.253-5.561-5.645-.487-2.463 1.303-5.029 3.034-7.512.882-1.265 2.524-3.619 2.352-4.323-.327-.633-3.352-1.169-4.806-1.427-3.083-.547-5.995-1.063-7.367-3.113-1.384-2.065-.747-4.97-.073-8.045.312-1.422.959-4.379.51-4.949-.568-.447-3.522.204-4.942.516-3.076.675-5.979 1.312-8.046-.072-2.05-1.373-2.566-4.285-3.112-7.368-.258-1.453-.794-4.476-1.438-4.809-.683-.165-3.049 1.473-4.314 2.355-2.482 1.73-5.044 3.523-7.51 3.033-2.392-.473-3.973-2.944-5.646-5.562-.752-1.177-2.515-3.932-3.23-3.932s-2.479 2.756-3.23 3.933c-1.674 2.616-3.254 5.088-5.646 5.561-2.465.488-5.028-1.304-7.51-3.034-1.265-.882-3.602-2.527-4.324-2.352-.633.327-1.169 3.352-1.427 4.806-.547 3.083-1.063 5.995-3.113 7.368-2.065 1.383-4.97.745-8.044.073-1.422-.313-4.382-.958-4.95-.511-.443.564.205 3.521.516 4.942.674 3.075 1.311 5.979-.072 8.046-1.373 2.05-4.285 2.566-7.368 3.112-1.453.258-4.476.794-4.809 1.438-.17.693 1.473 3.049 2.355 4.314 1.73 2.481 3.521 5.049 3.033 7.51-.473 2.393-2.944 3.973-5.561 5.646-1.177.752-3.933 2.515-3.933 3.23s2.756 2.479 3.933 3.23c2.616 1.674 5.088 3.254 5.561 5.646.487 2.462-1.303 5.028-3.034 7.51-.882 1.266-2.523 3.62-2.351 4.323.328.635 3.352 1.17 4.805 1.428 3.083.547 5.995 1.063 7.368 3.113 1.383 2.065.747 4.97.073 8.044-.313 1.422-.96 4.38-.511 4.95.568.446 3.521-.204 4.943-.516 3.074-.675 5.98-1.312 8.045.072 2.051 1.373 2.566 4.285 3.113 7.368.258 1.453.793 4.477 1.438 4.809.685.159 3.048-1.473 4.313-2.354 2.2-1.533 4.467-3.113 6.668-3.113z" fill="#3762cc"/></g></g></svg>