<svg height="480pt" viewBox="0 0 480 480" width="480pt" xmlns="http://www.w3.org/2000/svg"><path d="m32 96h416v272h-416zm0 0" fill="#edeff1"/><path d="m448 368v-12.425781c-3.671875-2.246094-7.945312-3.574219-12.496094-3.574219h-3.503906c-4.414062 0-8-3.59375-8-8v-87.144531c0-12.128907-8.609375-22.671875-20.023438-24.527344-1.34375-.222656-2.679687-.328125-3.976562-.328125-13.230469 0-24 10.769531-24 24v88c0 4.40625-3.585938 8-8 8h-3.503906c-10.257813 0-19.175782 6.496094-22.535156 16zm0 0" fill="#d3d3d3"/><path d="m184 240h112v128h-112zm0 0" fill="#d3d3d3"/><path d="m192 248h96v120h-96zm0 0" fill="#6e83b7"/><path d="m344 128h80v80h-80zm0 0" fill="#6e83b7"/><path d="m352 136h64v64h-64zm0 0" fill="#80d6fb"/><path d="m416 164h-28v-28h-8v28h-28v8h28v28h8v-28h28zm0 0" fill="#6e83b7"/><path d="m200 128h80v80h-80zm0 0" fill="#6e83b7"/><path d="m208 136h64v64h-64zm0 0" fill="#80d6fb"/><path d="m272 164h-28v-28h-8v28h-28v8h28v28h8v-28h28zm0 0" fill="#6e83b7"/><path d="m56 128h80v80h-80zm0 0" fill="#6e83b7"/><path d="m64 136h64v64h-64zm0 0" fill="#80d6fb"/><path d="m128 164h-28v-28h-8v28h-28v8h28v28h8v-28h28zm0 0" fill="#6e83b7"/><path d="m236 248h8v120h-8zm0 0" fill="#466089"/><path d="m432 0h-384l-32 96h448zm0 0" fill="#6e83b7"/><path d="m32 96h416v16h-416zm0 0" fill="#d3d3d3"/><path d="m466.105469 146.945312 5.894531-2.945312-5.894531-2.953125c-3.097657-1.550781-5.609375-4.054687-7.152344-7.152344l-2.953125-5.894531-2.953125 5.894531c-1.550781 3.097657-4.054687 5.609375-7.152344 7.152344l-5.894531 2.953125 5.894531 2.953125c3.097657 1.550781 5.609375 4.054687 7.152344 7.152344l2.953125 5.894531 2.953125-5.894531c1.542969-3.097657 4.054687-5.609375 7.152344-7.160157zm0 0" fill="#80d6fb"/><path d="m39.152344 28.425781 8.847656-4.425781-8.847656-4.425781c-4.648438-2.316407-8.410156-6.085938-10.738282-10.734375l-4.414062-8.839844-4.425781 8.847656c-2.316407 4.648438-6.085938 8.410156-10.734375 10.738282l-8.839844 4.414062 8.847656 4.425781c4.648438 2.316407 8.410156 6.085938 10.738282 10.734375l4.414062 8.839844 4.425781-8.847656c2.316407-4.640625 6.085938-8.410156 10.726563-10.726563zm0 0" fill="#80d6fb"/><path d="m480 480-24-88h-112l-24 88zm0 0" fill="#ffe352"/><g fill="#ffb236"><path d="m392 392h16v32h-16zm0 0"/><path d="m424 392h16v24h-16zm0 0"/><path d="m360 392h16v24h-16zm0 0"/></g><path d="m456 392-4.96875-19.878906c-1.785156-7.121094-8.183594-12.121094-15.527344-12.121094h-3.503906c-8.839844 0-16-7.160156-16-16v-87.144531c0-7.96875-5.449219-15.359375-13.3125-16.640625-10.023438-1.621094-18.6875 6.066406-18.6875 15.785156v88c0 8.839844-7.160156 16-16 16h-3.503906c-7.34375 0-13.742188 5-15.519532 12.121094l-4.976562 19.878906zm-56-144c4.414062 0 8 3.585938 8 8s-3.585938 8-8 8-8-3.585938-8-8 3.585938-8 8-8zm0 0" fill="#6e83b7"/></svg>