<svg height="480pt" viewBox="0 -40 480 480" width="480pt" xmlns="http://www.w3.org/2000/svg"><path d="m32 0h416v304h-416zm0 0" fill="#ffe352"/><path d="m416 56v192c-13.28125 0-24 10.71875-24 24h-304c0-13.28125-10.71875-24-24-24v-192c13.28125 0 24-10.71875 24-24h304c0 13.28125 10.71875 24 24 24zm0 0" fill="#ffb236"/><path d="m310.304688 276.152344-46.304688 19.847656h-48l-46.304688-19.847656c-5.878906-2.519532-9.695312-8.304688-9.695312-14.703125v-13.449219c0-4.414062 3.585938-8 8-8h144c4.414062 0 8 3.585938 8 8v13.449219c0 6.398437-3.816406 12.183593-9.695312 14.703125zm0 0" fill="#6e83b7"/><path d="m256 328h-32c-4.414062 0-8-3.585938-8-8v-24h48v24c0 4.414062-3.585938 8-8 8zm0 0" fill="#edeff1"/><path d="m224 328h32v72h-32zm0 0" fill="#6e83b7"/><path d="m224 328h32v8h-32zm0 0" fill="#466089"/><path d="m312 240h-144v-8c0-4.414062 3.585938-8 8-8h128c4.414062 0 8 3.585938 8 8zm0 0" fill="#edeff1"/><path d="m188 200h8v16h-8zm0 0" fill="#edeff1"/><path d="m212 200h8v16h-8zm0 0" fill="#edeff1"/><path d="m236 200h8v16h-8zm0 0" fill="#edeff1"/><path d="m260 200h8v16h-8zm0 0" fill="#edeff1"/><path d="m284 200h8v16h-8zm0 0" fill="#edeff1"/><g fill="#ffb236"><path d="m0 0h32v16h-32zm0 0"/><path d="m0 48h32v16h-32zm0 0"/><path d="m0 96h32v16h-32zm0 0"/><path d="m0 144h32v16h-32zm0 0"/><path d="m0 192h32v16h-32zm0 0"/><path d="m0 240h32v16h-32zm0 0"/><path d="m0 288h32v16h-32zm0 0"/><path d="m448 0h32v16h-32zm0 0"/><path d="m448 48h32v16h-32zm0 0"/><path d="m448 96h32v16h-32zm0 0"/><path d="m448 144h32v16h-32zm0 0"/><path d="m448 192h32v16h-32zm0 0"/><path d="m448 240h32v16h-32zm0 0"/><path d="m448 288h32v16h-32zm0 0"/></g></svg>