<svg height="480pt" viewBox="-104 0 480 480" width="480pt" xmlns="http://www.w3.org/2000/svg"><path d="m240 480h-208c-17.671875 0-32-14.328125-32-32v-416c0-17.671875 14.328125-32 32-32h208c17.671875 0 32 14.328125 32 32v416c0 17.671875-14.328125 32-32 32zm0 0" fill="#6e83b7"/><path d="m240 16h-25.375c-4.242188 0-8.3125 1.6875-11.3125 4.6875l-6.625 6.625c-3 3-7.070312 4.6875-11.3125 4.6875h-98.75c-4.242188 0-8.3125-1.6875-11.3125-4.6875l-6.625-6.625c-3-3-7.070312-4.6875-11.3125-4.6875h-25.375c-8.839844 0-16 7.160156-16 16v352c0 8.839844 7.160156 16 16 16h208c8.839844 0 16-7.160156 16-16v-352c0-8.839844-7.160156-16-16-16zm0 0" fill="#80d6fb"/><path d="m160 440c0 13.253906-10.746094 24-24 24s-24-10.746094-24-24 10.746094-24 24-24 24 10.746094 24 24zm0 0" fill="#466089"/><path d="m176 288h-80c-17.671875 0-32-14.328125-32-32v-80c0-17.671875 14.328125-32 32-32h80c17.671875 0 32 14.328125 32 32v80c0 17.671875-14.328125 32-32 32zm0 0" fill="#46bee8"/><path d="m176 280h-80c-17.671875 0-32-14.328125-32-32v-80c0-17.671875 14.328125-32 32-32h80c17.671875 0 32 14.328125 32 32v80c0 17.671875-14.328125 32-32 32zm0 0" fill="#edeff1"/><path d="m180.488281 253.472656-12.488281-37.472656h-64l-12.488281 37.472656c-1.726563 5.175782 2.128906 10.527344 7.585937 10.527344h73.796875c5.464844 0 9.320313-5.351562 7.59375-10.527344zm0 0" fill="#ffe352"/><path d="m144 200v-40c0-4.414062-3.585938-8-8-8s-8 3.585938-8 8v40h-16c-4.414062 0-8 3.585938-8 8v8h64v-8c0-4.414062-3.585938-8-8-8zm0 0" fill="#6e83b7"/></svg>