<svg height="480pt" viewBox="-40 0 480 480" width="480pt" xmlns="http://www.w3.org/2000/svg"><path d="m136 456v8l8 16h16l8-16v-8zm0 0" fill="#75aa40"/><path d="m381.753906 32h-21.753906l-11.574219-23.152344c-2.714843-5.421875-8.257812-8.847656-14.3125-8.847656h-220.226562c-6.0625 0-11.597657 3.425781-14.3125 8.847656l-11.574219 23.152344h-21.753906c-5.207032 0-9.023438 4.886719-7.757813 9.9375l4 16c.886719 3.566406 4.085938 6.0625 7.757813 6.0625h307.507812c3.671875 0 6.871094-2.496094 7.757813-6.0625l4-16c1.265625-5.050781-2.550781-9.9375-7.757813-9.9375zm0 0" fill="#98ca69"/><path d="m72 64 14.824219 185.273438c.664062 8.320312 7.609375 14.726562 15.945312 14.726562l15.964844 185.375c.722656 8.273438 7.640625 14.625 15.945313 14.625h178.640624c8.304688 0 15.230469-6.351562 15.945313-14.625l15.964844-185.375c8.34375 0 15.28125-6.40625 15.953125-14.726562l14.816406-185.273438zm0 0" fill="#98ca69"/><path d="m375.359375 72 .640625-8h-304l.640625 8zm0 0" fill="#75aa40"/><path d="m344 440c0 22.089844-17.910156 40-40 40s-40-17.910156-40-40 17.910156-40 40-40 40 17.910156 40 40zm0 0" fill="#6e83b7"/><path d="m320 440c0 8.835938-7.164062 16-16 16s-16-7.164062-16-16 7.164062-16 16-16 16 7.164062 16 16zm0 0" fill="#466089"/><path d="m400 64c0 13.253906-10.746094 24-24 24s-24-10.746094-24-24 10.746094-24 24-24 24 10.746094 24 24zm0 0" fill="#6e83b7"/><path d="m384 64c0 4.417969-3.582031 8-8 8s-8-3.582031-8-8 3.582031-8 8-8 8 3.582031 8 8zm0 0" fill="#466089"/><g fill="#6e83b7"><path d="m243.671875 189.367188-12.945313-20.121094c-3-4.671875-10.453124-4.671875-13.453124 0l-12.945313 20.121094-13.457031-8.65625 12.945312-20.117188c4.441406-6.898438 11.976563-11.019531 20.175782-11.019531 8.199218 0 15.742187 4.121093 20.175781 11.019531l12.945312 20.117188zm0 0"/><path d="m266.6875 264h-26.6875v-16h26.6875c4.28125 0 6.335938-2.910156 7.023438-4.167969.679687-1.257812 2.023437-4.550781-.296876-8.160156l-12.535156-19.503906 13.457032-8.65625 12.535156 19.503906c4.832031 7.503906 5.160156 16.65625.882812 24.480469-4.210937 7.710937-12.28125 12.503906-21.066406 12.503906zm0 0"/><path d="m208 264h-26.6875c-8.785156 0-16.855469-4.792969-21.066406-12.503906-4.269532-7.832032-3.941406-16.984375.882812-24.480469l12.535156-19.503906 13.457032 8.65625-12.535156 19.503906c-2.320313 3.609375-.976563 6.902344-.296876 8.160156.6875 1.257813 2.742188 4.167969 7.023438 4.167969h26.6875zm0 0"/><path d="m72 312h8l21.65625-21.65625c1.503906-1.503906 2.34375-3.535156 2.34375-5.65625v-7.589844c0-3.203125-1.878906-6.121094-4.832031-7.355468-5.679688-2.359376-15.792969-5.742188-27.167969-5.742188s-21.488281 3.382812-27.167969 5.742188c-2.953125 1.234374-4.832031 4.152343-4.832031 7.355468v7.589844c0 2.121094.839844 4.160156 2.34375 5.65625l21.65625 21.65625zm0 0"/></g><path d="m72 312h24v-8c-3.503906-8.871094-24-8-24-8s-20.503906-.871094-24 8v8zm0 0" fill="#466089"/><path d="m128 480h-112c-8.839844 0-16-7.160156-16-16v-88c0-39.769531 32.230469-72 72-72s72 32.230469 72 72v88c0 8.839844-7.160156 16-16 16zm0 0" fill="#6e83b7"/></svg>