<svg height="480pt" viewBox="0 -80 480 480" width="480pt" xmlns="http://www.w3.org/2000/svg"><path d="m272 240c13.257812 0 24-10.742188 24-24s-10.742188-24-24-24h-224c-26.511719 0-48 21.488281-48 48s21.488281 48 48 48h224c13.257812 0 24-10.742188 24-24s-10.742188-24-24-24zm0 0" fill="#ffe352"/><path d="m294.527344 224h-238.527344c-8.839844 0-16 7.160156-16 16h232c10.433594 0 19.222656-6.695312 22.527344-16zm0 0" fill="#ffb236"/><path d="m248 96h-224c-13.257812 0-24 10.742188-24 24s10.742188 24 24 24c-13.257812 0-24 10.742188-24 24s10.742188 24 24 24h224c26.511719 0 48-21.488281 48-48s-21.488281-48-48-48zm0 0" fill="#98ca69"/><path d="m1.472656 128h238.527344c8.839844 0 16 7.160156 16 16h-232c-10.433594 0-19.222656-6.695312-22.527344-16zm0 0" fill="#75aa40"/><path d="m272 48c13.257812 0 24-10.742188 24-24s-10.742188-24-24-24h-224c-26.511719 0-48 21.488281-48 48s21.488281 48 48 48h224c13.257812 0 24-10.742188 24-24s-10.742188-24-24-24zm0 0" fill="#ffb0aa"/><path d="m294.527344 32h-238.527344c-8.839844 0-16 7.160156-16 16h232c10.433594 0 19.222656-6.695312 22.527344-16zm0 0" fill="#ff7b7b"/><path d="m480 104-16 128h-16v-160h32zm0 0" fill="#6e83b7"/><path d="m360 192h-80v-8c0-4.414062 3.585938-8 8-8h64c4.414062 0 8 3.585938 8 8zm0 0" fill="#edeff1"/><path d="m88 264h320v8h-320zm0 0" fill="#d3d3d3"/><path d="m80 272h336v16h-336zm0 0" fill="#edeff1"/><path d="m448 72h8v160h-8zm0 0" fill="#466089"/><path d="m432 48h-136c-119.296875 0-216 96.703125-216 216h336l32-32v-168c0-8.839844-7.160156-16-16-16zm-144 48h80c17.671875 0 32 14.328125 32 32v32c0 17.671875-14.328125 32-32 32h-199.414062c-12.96875 0-20.355469-14.480469-13.105469-25.230469 28.726562-42.632812 77.34375-70.769531 132.519531-70.769531zm0 0" fill="#6e83b7"/><path d="m416 224c0 8.835938-7.164062 16-16 16s-16-7.164062-16-16 7.164062-16 16-16 16 7.164062 16 16zm0 0" fill="#ffb0aa"/><path d="m0 288h480v32h-480zm0 0" fill="#80d6fb"/></svg>