<svg height="480pt" viewBox="-31 0 479 480" width="480pt" xmlns="http://www.w3.org/2000/svg"><path d="m76.5 0h8v40h-8zm0 0" fill="#80d6fb"/><path d="m80.5 55.207031-19.328125-28.992187 6.65625-4.429688 12.671875 19.007813 12.671875-19.007813 6.65625 4.429688zm0 0" fill="#80d6fb"/><path d="m104.5 480c-17.648438 0-32-14.351562-32-32v-112h16v112c0 8.824219 7.175781 16 16 16s16-7.175781 16-16v-144c0-22.054688 17.945312-40 40-40h32v16h-32c-13.230469 0-24 10.769531-24 24v144c0 17.648438-14.351562 32-32 32zm0 0" fill="#6e83b7"/><path d="m320.507812 216.398438-7.238281-144.796876c-.210937-4.265624-3.722656-7.601562-7.984375-7.601562h-49.5625c-4.261718 0-7.773437 3.335938-7.992187 7.601562l-7.238281 144.796876-15.976563-.796876 7.242187-144.800781c.628907-12.785156 11.15625-22.800781 23.957032-22.800781h49.5625c12.796875 0 23.335937 10.015625 23.964844 22.800781l7.242187 144.800781zm0 0" fill="#6e83b7"/><path d="m384.5 480h-208v-120l17.601562-111.488281c3.6875-23.328125 23.796876-40.511719 47.414063-40.511719h77.96875c23.617187 0 43.726563 17.183594 47.414063 40.511719l17.601562 111.488281zm0 0" fill="#ffe352"/><g fill="#466089"><path d="m176.5 480h-16c-8.839844 0-16-7.160156-16-16v-88c0-8.839844 7.160156-16 16-16h16zm0 0"/><path d="m384.5 480h16c8.839844 0 16-7.160156 16-16v-88c0-8.839844-7.160156-16-16-16h-16zm0 0"/><path d="m320.5 292c0 19.882812-16.117188 36-36 36s-36-16.117188-36-36 16.117188-36 36-36 36 16.117188 36 36zm0 0"/></g><path d="m304.5 292c0 11.046875-8.953125 20-20 20s-20-8.953125-20-20 8.953125-20 20-20 20 8.953125 20 20zm0 0" fill="#edeff1"/><path d="m244.5 384h80v16h-80zm0 0" fill="#ffb236"/><path d="m244.5 416h80v16h-80zm0 0" fill="#ffb236"/><path d="m244.5 448h80v16h-80zm0 0" fill="#ffb236"/><path d="m88.5 48h-16l-8 56 8 24h16l8-24zm0 0" fill="#edeff1"/><path d="m72.5 128h16v112h-16zm0 0" fill="#d3d3d3"/><path d="m88.5 240h-16c-4.414062 0-8 3.585938-8 8v53.335938l-56.871094 37.921874c-4.457031 2.957032-7.128906 7.957032-7.128906 13.300782v17.546875c0 12.773437 14.238281 20.398437 24.871094 13.308593l64-42.660156c4.457031-2.96875 7.128906-7.96875 7.128906-13.3125v-79.441406c0-4.414062-3.585938-8-8-8zm0 0" fill="#edeff1"/><path d="m64.5 288h-19.3125l-18.34375-18.34375 11.3125-11.3125 13.65625 13.65625h12.6875zm0 0" fill="#6e83b7"/></svg>