<svg height="511pt" viewBox="0 0 511.83657 511" width="511pt" xmlns="http://www.w3.org/2000/svg"><path d="m9.625 171.585938c-20.667969 70.53125-7.65625 146.652343 35.261719 206.316406 42.917969 59.664062 110.949219 96.203125 184.394531 99.039062 2.390625.0625 4.707031-.847656 6.417969-2.523437 1.707031-1.675781 2.664062-3.972657 2.648437-6.367188v-220.460937l76.535156-8.824219h152.714844c2.394532.015625 4.691406-.941406 6.367188-2.648437 1.675781-1.710938 2.585937-4.027344 2.523437-6.417969-4.871093-128.003907-110.046875-229.265625-238.140625-229.28125-11.257812-.027344-22.503906.800781-33.636718 2.472656-.085938-.089844-.085938-.089844-.175782 0zm0 0" fill="#4482c3"/><path d="m330.949219 274.074219h171.996093c2.390626-.019531 4.691407.9375 6.367188 2.648437 1.675781 1.707032 2.585938 4.023438 2.519531 6.417969-4.734375 124.519531-104.589843 224.375-229.109375 229.109375-2.394531.066406-4.710937-.84375-6.417968-2.519531-1.710938-1.675781-2.667969-3.976563-2.648438-6.367188v-220.460937c0-4.875 3.953125-8.828125 8.828125-8.828125zm0 0" fill="#e64c3c"/><path d="m305.328125 217.664062 26.203125 57.636719c1.589844 3.5.734375 7.628907-2.117188 10.207031-2.851562 2.578126-7.046874 3.011719-10.367187 1.074219l-68.5-39.960937c-2.195313-1.273438-4.835937-1.519532-7.230469-.679688-23.121094 7.851563-47.386718 11.820313-71.804687 11.738282-94.761719 0-171.511719-57.5625-171.511719-128.632813s76.75-128.628906 171.511719-128.628906c94.765625 0 171.503906 57.566406 171.503906 128.628906-.59375 29.96875-13.484375 58.378906-35.648437 78.5625-2.742188 2.582031-3.558594 6.613281-2.039063 10.054687zm0 0" fill="#24ae5f"/><path d="m331.566406 275.308594c1.632813 3.515625.785156 7.6875-2.09375 10.28125-2.878906 2.597656-7.117187 3.007812-10.441406 1.019531l-68.503906-39.988281c-2.191406-1.285156-4.839844-1.546875-7.238282-.707032-23.101562 7.886719-47.359374 11.855469-71.769531 11.742188-1.234375 0-2.558593 0-3.792969-.089844v-257.058594c1.234376-.089843 2.558594-.089843 3.792969-.089843 94.722657 0 171.523438 57.558593 171.523438 128.617187-.613281 29.972656-13.507813 58.378906-35.664063 78.566406-2.757812 2.578126-3.574218 6.621094-2.03125 10.0625zm0 0" fill="#4fba6f"/><g fill="#fff"><path d="m256 88.695312h-176.550781c-4.875 0-8.828125-3.953124-8.828125-8.828124s3.953125-8.828126 8.828125-8.828126h176.550781c4.875 0 8.828125 3.953126 8.828125 8.828126s-3.953125 8.828124-8.828125 8.828124zm0 0"/><path d="m291.3125 132.832031h-247.171875c-4.878906 0-8.828125-3.953125-8.828125-8.828125s3.949219-8.828125 8.828125-8.828125h247.171875c4.875 0 8.828125 3.953125 8.828125 8.828125s-3.953125 8.828125-8.828125 8.828125zm0 0"/><path d="m256 176.96875h-176.550781c-4.875 0-8.828125-3.949219-8.828125-8.824219s3.953125-8.828125 8.828125-8.828125h176.550781c4.875 0 8.828125 3.953125 8.828125 8.828125s-3.953125 8.824219-8.828125 8.824219zm0 0"/></g></svg>