<svg height="512pt" viewBox="-4 0 512 512.00323" width="512pt" xmlns="http://www.w3.org/2000/svg"><path d="m208.273438 459.242188v26.726562c0 14.378906 11.65625 26.035156 26.035156 26.035156h69.421875c14.378906 0 26.035156-11.65625 26.035156-26.035156v-269.015625c0-14.378906-11.65625-26.035156-26.035156-26.035156h-69.421875c-14.378906 0-26.035156 11.65625-26.035156 26.035156zm0 0" fill="#3b97d3"/><path d="m34.714844 317.878906v-222.417968c0-14.378907 11.65625-26.035157 26.03125-26.035157h69.425781c14.378906 0 26.03125 11.65625 26.03125 26.035157v199.59375zm0 0" fill="#e64c3c"/><path d="m225.628906 399.191406c0 62.304688-50.507812 112.8125-112.8125 112.8125-62.304687 0-112.816406-50.507812-112.816406-112.8125 0-62.308594 50.511719-112.816406 112.816406-112.816406 62.304688 0 112.8125 50.507812 112.8125 112.816406zm0 0" fill="#4fba6f"/><path d="m112.816406 286.375v225.628906c-62.304687 0-112.816406-50.507812-112.816406-112.8125 0-62.308594 50.511719-112.816406 112.816406-112.816406zm0 0" fill="#24ae5f"/><path d="m242.984375 338.445312c-4.792969 0-8.675781-3.886718-8.675781-8.679687v-104.136719c0-4.792968 3.882812-8.675781 8.675781-8.675781s8.679687 3.882813 8.679687 8.675781v104.136719c0 4.792969-3.886718 8.679687-8.679687 8.679687zm0 0" fill="#2980ba"/><path d="m69.425781 251.664062c-4.792969 0-8.679687-3.886718-8.679687-8.679687v-138.84375c0-4.792969 3.886718-8.679687 8.679687-8.679687s8.675781 3.886718 8.675781 8.679687v138.84375c0 4.792969-3.882812 8.679687-8.675781 8.679687zm0 0" fill="#c03a2b"/><path d="m407.867188 312.410156h69.421874c14.378907 0 26.035157 11.65625 26.035157 26.035156v147.523438c0 14.378906-11.65625 26.035156-26.035157 26.035156h-69.421874c-14.378907 0-26.035157-11.65625-26.035157-26.035156v-147.523438c0-14.378906 11.65625-26.035156 26.035157-26.035156zm0 0" fill="#e64c3c"/><path d="m442.578125 260.34375c-4.421875-.003906-8.132813-3.332031-8.617187-7.726562-24.898438-223.976563-335.601563-235.171876-338.734376-235.257813-4.792968-.128906-8.574218-4.121094-8.445312-8.914063.128906-4.792968 4.121094-8.570312 8.914062-8.44140575 3.277344.09374995 328.945313 11.65234375 355.507813 250.70703175.507813 4.75-2.921875 9.015624-7.671875 9.542968-.316406.046875-.632812.078125-.953125.089844zm0 0" fill="#802f34"/><path d="m442.578125 260.34375c-2.300781-.003906-4.507813-.917969-6.136719-2.542969l-34.710937-34.714843c-3.289063-3.402344-3.242188-8.816407.105469-12.164063 3.347656-3.347656 8.761718-3.394531 12.164062-.105469l26.859375 26.902344 20.316406-33.84375c1.566407-2.71875 4.480469-4.378906 7.617188-4.34375s6.011719 1.765625 7.515625 4.515625c1.503906 2.753906 1.40625 6.105469-.261719 8.765625l-26.03125 43.390625c-1.597656 2.574219-4.410156 4.140625-7.4375 4.140625zm0 0" fill="#802f34"/><path d="m416.542969 485.96875c-4.792969 0-8.675781-3.882812-8.675781-8.675781v-130.171875c0-4.792969 3.882812-8.675782 8.675781-8.675782s8.679687 3.882813 8.679687 8.675782v130.171875c0 4.792969-3.886718 8.675781-8.679687 8.675781zm0 0" fill="#c03a2b"/><g fill="#4c8056"><path d="m138.847656 459.933594h-78.101562c-4.792969 0-8.675782-3.882813-8.675782-8.675782 0-4.792968 3.882813-8.679687 8.675782-8.679687h78.101562c9.585938 0 17.355469-7.769531 17.355469-17.355469 0-9.585937-7.769531-17.355468-17.355469-17.355468h-52.066406c-19.171875 0-34.710938-15.539063-34.710938-34.710938s15.539063-34.710938 34.710938-34.710938h78.101562c4.792969 0 8.679688 3.882813 8.679688 8.675782 0 4.792968-3.886719 8.679687-8.679688 8.679687h-78.101562c-9.585938 0-17.355469 7.769531-17.355469 17.355469s7.769531 17.355469 17.355469 17.355469h52.066406c19.171875 0 34.714844 15.539062 34.714844 34.710937s-15.542969 34.710938-34.714844 34.710938zm0 0"/><path d="m112.816406 355.800781c-4.792968 0-8.679687-3.886719-8.679687-8.679687v-26.03125c0-4.792969 3.886719-8.679688 8.679687-8.679688 4.792969 0 8.675782 3.886719 8.675782 8.679688v26.03125c0 4.792968-3.882813 8.679687-8.675782 8.679687zm0 0"/><path d="m112.816406 485.96875c-4.792968 0-8.679687-3.882812-8.679687-8.675781v-26.035157c0-4.792968 3.886719-8.679687 8.679687-8.679687 4.792969 0 8.675782 3.886719 8.675782 8.679687v26.035157c0 4.792969-3.882813 8.675781-8.675782 8.675781zm0 0"/></g></svg>