<svg height="512pt" viewBox="0 0 512 512" width="512pt" xmlns="http://www.w3.org/2000/svg"><path d="m123.585938 44.136719h353.105468c19.5 0 35.308594 15.808593 35.308594 35.3125v397.242187c0 19.5-15.808594 35.308594-35.308594 35.308594h-441.382812c-19.5 0-35.308594-15.808594-35.308594-35.308594v-397.242187c0-19.503907 15.808594-35.3125 35.308594-35.3125zm0 0" fill="#e6e7e8"/><path d="m512 79.449219v79.449219h-512v-79.449219c0-19.503907 15.808594-35.3125 35.308594-35.3125h441.382812c19.5 0 35.308594 15.808593 35.308594 35.3125zm0 0" fill="#e64c3c"/><path d="m123.585938 61.792969c10.734374 5.550781 17.527343 16.578125 17.65625 28.664062-.621094 18.890625-16.417969 33.714844-35.3125 33.128907-18.890626.585937-34.691407-14.238282-35.308594-33.128907.128906-12.085937 6.921875-23.113281 17.65625-28.664062zm0 0" fill="#2c2f38"/><path d="m423.722656 61.792969c10.734375 5.550781 17.527344 16.578125 17.65625 28.664062-1.179687 18.636719-16.636718 33.144531-35.308594 33.144531-18.675781 0-34.132812-14.507812-35.3125-33.144531.128907-12.085937 6.921876-23.113281 17.65625-28.664062zm0 0" fill="#2c2f38"/><path d="m105.929688 0c9.753906 0 17.65625 7.90625 17.65625 17.65625v52.964844c0 9.75-7.902344 17.65625-17.65625 17.65625-9.75 0-17.652344-7.90625-17.652344-17.65625v-52.964844c0-9.75 7.902344-17.65625 17.652344-17.65625zm0 0" fill="#e6e7e8"/><path d="m406.070312 0c9.75 0 17.652344 7.90625 17.652344 17.65625v52.964844c0 9.75-7.902344 17.65625-17.652344 17.65625-9.753906 0-17.65625-7.90625-17.65625-17.65625v-52.964844c0-9.75 7.902344-17.65625 17.65625-17.65625zm0 0" fill="#e6e7e8"/><path d="m397.242188 335.652344c0-77.894532-63.238282-141.039063-141.242188-141.039063s-141.242188 63.144531-141.242188 141.039063c0 77.890625 63.238282 141.039062 141.242188 141.039062s141.242188-63.148437 141.242188-141.039062zm0 0" fill="#e64c3c"/><path d="m344.875 335.449219c0-48.753907-39.65625-88.277344-88.574219-88.277344s-88.578125 39.523437-88.578125 88.277344c0 48.753906 39.660156 88.273437 88.578125 88.273437s88.574219-39.519531 88.574219-88.273437zm0 0" fill="#fff"/><path d="m291.308594 335.449219c0 19.5-15.808594 35.308593-35.308594 35.308593s-35.308594-15.808593-35.308594-35.308593c0-19.503907 15.808594-35.3125 35.308594-35.3125s35.308594 15.808593 35.308594 35.3125zm0 0" fill="#e64c3c"/><path d="m255.816406 344.46875c-3.824218 0-7.210937-2.457031-8.394531-6.09375-1.183594-3.632812.105469-7.613281 3.191406-9.863281l194.402344-141.445313c3.945313-2.867187 9.464844-1.996094 12.332031 1.949219 2.867188 3.945313 1.992188 9.464844-1.949218 12.332031l-194.410157 141.4375c-1.5 1.097656-3.3125 1.6875-5.171875 1.683594zm0 0" fill="#7f5b53"/><g fill="#e64c3c"><path d="m423.722656 247.171875c-1.363281 0-2.710937-.316406-3.9375-.925781l-17.652344-8.828125c-1.714843-.855469-3.101562-2.242188-3.957031-3.953125l-8.828125-17.65625c-2.175781-4.363282-.40625-9.667969 3.957032-11.847656 4.363281-2.179688 9.667968-.410157 11.847656 3.957031l7.503906 15.003906 15.003906 7.503906c3.6875 1.816407 5.632813 5.9375 4.691406 9.941407-.941406 4-4.515624 6.820312-8.628906 6.804687zm0 0"/><path d="m441.378906 229.515625c-1.367187 0-2.714844-.316406-3.9375-.925781l-17.65625-8.828125c-1.710937-.855469-3.097656-2.242188-3.953125-3.953125l-8.828125-17.65625c-2.179687-4.363282-.40625-9.667969 3.957032-11.847656 4.363281-2.179688 9.664062-.40625 11.84375 3.957031l7.503906 15.007812 15.007812 7.5c3.6875 1.820313 5.632813 5.9375 4.691406 9.941407-.941406 4-4.519531 6.824218-8.628906 6.804687zm0 0"/></g></svg>