<svg height="512pt" viewBox="0 0 512 512" width="512pt" xmlns="http://www.w3.org/2000/svg"><path d="m123.585938 44.136719h353.105468c19.5 0 35.308594 15.808593 35.308594 35.3125v397.242187c0 19.5-15.808594 35.308594-35.308594 35.308594h-441.382812c-19.5 0-35.308594-15.808594-35.308594-35.308594v-397.242187c0-19.503907 15.808594-35.3125 35.308594-35.3125zm0 0" fill="#e6e7e8"/><path d="m512 79.449219v79.449219h-512v-79.449219c0-19.503907 15.808594-35.3125 35.308594-35.3125h441.382812c19.5 0 35.308594 15.808593 35.308594 35.3125zm0 0" fill="#e64c3c"/><path d="m123.585938 61.792969c10.734374 5.550781 17.527343 16.578125 17.65625 28.664062-.621094 18.890625-16.417969 33.714844-35.3125 33.128907-18.890626.585937-34.691407-14.238282-35.308594-33.128907.128906-12.085937 6.921875-23.113281 17.65625-28.664062zm0 0" fill="#2c2f38"/><path d="m423.722656 61.792969c10.734375 5.550781 17.527344 16.578125 17.65625 28.664062-1.179687 18.636719-16.636718 33.144531-35.308594 33.144531-18.675781 0-34.132812-14.507812-35.3125-33.144531.128907-12.085937 6.921876-23.113281 17.65625-28.664062zm0 0" fill="#2c2f38"/><path d="m105.929688 0c9.753906 0 17.65625 7.90625 17.65625 17.65625v52.964844c0 9.75-7.902344 17.65625-17.65625 17.65625-9.75 0-17.652344-7.90625-17.652344-17.65625v-52.964844c0-9.75 7.902344-17.65625 17.652344-17.65625zm0 0" fill="#e6e7e8"/><path d="m406.070312 0c9.75 0 17.652344 7.90625 17.652344 17.65625v52.964844c0 9.75-7.902344 17.65625-17.652344 17.65625-9.753906 0-17.65625-7.90625-17.65625-17.65625v-52.964844c0-9.75 7.902344-17.65625 17.65625-17.65625zm0 0" fill="#e6e7e8"/><path d="m432.550781 335.449219c0 97.507812-79.042969 176.550781-176.550781 176.550781s-176.550781-79.042969-176.550781-176.550781c0-97.507813 79.042969-176.550781 176.550781-176.550781s176.550781 79.042968 176.550781 176.550781zm0 0" fill="#2fa8cc"/><path d="m335.007812 339.15625c-2.089843 0-4.109374-.738281-5.703124-2.082031l-60.910157-51.554688c-3.726562-3.160156-4.183593-8.738281-1.023437-12.464843 3.15625-3.722657 8.738281-4.183594 12.464844-1.023438l60.910156 51.554688c2.832031 2.390624 3.867187 6.296874 2.59375 9.777343-1.277344 3.480469-4.589844 5.796875-8.296875 5.792969zm0 0" fill="#285680"/><path d="m198.796875 382.324219c-2.945313 0-5.699219-1.46875-7.335937-3.917969-1.640626-2.445312-1.953126-5.550781-.828126-8.273438l34.957032-84.914062c1.855468-4.507812 7.015625-6.660156 11.523437-4.804688 4.511719 1.855469 6.660157 7.011719 4.808594 11.523438l-34.960937 84.914062c-1.359376 3.308594-4.582032 5.472657-8.164063 5.472657zm0 0" fill="#285680"/><g fill="#fff"><path d="m220.691406 406.070312c0 19.5-15.8125 35.308594-35.3125 35.308594s-35.308594-15.808594-35.308594-35.308594c0-19.503906 15.808594-35.3125 35.308594-35.3125s35.3125 15.808594 35.3125 35.3125zm0 0"/><path d="m282.484375 256c0 19.5-15.8125 35.308594-35.3125 35.308594s-35.308594-15.808594-35.308594-35.308594 15.808594-35.308594 35.308594-35.308594 35.3125 15.808594 35.3125 35.308594zm0 0"/><path d="m397.242188 353.101562c0 19.503907-15.808594 35.3125-35.3125 35.3125-19.5 0-35.308594-15.808593-35.308594-35.3125 0-19.5 15.808594-35.308593 35.308594-35.308593 19.503906 0 35.3125 15.808593 35.3125 35.308593zm0 0"/></g></svg>