<svg height="512pt" viewBox="-53 0 512 512" width="512pt" xmlns="http://www.w3.org/2000/svg"><path d="m297.753906 52.964844h64.175782c24.378906 0 44.140624 19.761718 44.140624 44.136718v370.761719c0 24.375-19.761718 44.136719-44.140624 44.136719h-317.792969c-24.375 0-44.136719-19.761719-44.136719-44.136719v-370.761719c0-24.375 19.761719-44.136718 44.136719-44.136718zm0 0" fill="#7f5b53"/><path d="m300.136719 88.277344h52.964843c9.742188.027344 17.628907 7.914062 17.65625 17.652344v284.003906c0 4.679687-1.859374 9.171875-5.171874 12.480468l-69.101563 69.101563c-3.3125 3.3125-7.800781 5.171875-12.484375 5.175781h-231.035156c-9.738282-.03125-17.625-7.917968-17.65625-17.65625v-353.105468c.03125-9.738282 7.917968-17.625 17.65625-17.652344zm0 0" fill="#fff"/><path d="m158.898438 44.136719c0-24.375 19.757812-44.136719 44.136718-44.136719 24.375 0 44.136719 19.761719 44.136719 44.136719h35.3125c9.738281.03125 17.625 7.917969 17.652344 17.65625v35.308593c-.027344 9.742188-7.914063 17.628907-17.652344 17.65625h-158.898437c-9.738282-.027343-17.625-7.914062-17.65625-17.65625v-35.308593c.03125-9.738281 7.917968-17.625 17.65625-17.65625zm0 0" fill="#d1d4d1"/><path d="m247.171875 88.277344h-88.273437c-4.878907 0-8.828126-3.953125-8.828126-8.828125s3.949219-8.828125 8.828126-8.828125h88.273437c4.875 0 8.828125 3.953125 8.828125 8.828125s-3.953125 8.828125-8.828125 8.828125zm0 0" fill="#a5a5a4"/><path d="m291.308594 475.101562v-69.03125c0-4.875 3.953125-8.828124 8.828125-8.828124h69.03125zm0 0" fill="#e6e7e8"/><path d="m132.414062 256h-52.964843c-9.75 0-17.65625-7.90625-17.65625-17.65625v-52.964844c0-9.75 7.90625-17.65625 17.65625-17.65625h26.480469c4.875 0 8.828124 3.953125 8.828124 8.828125s-3.953124 8.828125-8.828124 8.828125h-26.480469v52.964844h52.964843v-8.828125c0-4.875 3.953126-8.824219 8.828126-8.824219s8.828124 3.949219 8.828124 8.824219v8.828125c0 9.75-7.90625 17.65625-17.65625 17.65625zm0 0" fill="#a5a5a4"/><path d="m132.414062 379.585938h-52.964843c-9.75 0-17.65625-7.902344-17.65625-17.65625v-52.964844c0-9.75 7.90625-17.65625 17.65625-17.65625h52.964843c9.75 0 17.65625 7.90625 17.65625 17.65625v52.964844c0 9.753906-7.90625 17.65625-17.65625 17.65625zm-52.964843-70.621094v52.964844h52.964843v-52.964844zm0 0" fill="#a5a5a4"/><g fill="#5e5f62"><path d="m220.691406 203.035156h-44.140625c-4.875 0-8.828125-3.953125-8.828125-8.828125s3.953125-8.828125 8.828125-8.828125h44.140625c4.875 0 8.824219 3.953125 8.824219 8.828125s-3.949219 8.828125-8.824219 8.828125zm0 0"/><path d="m335.449219 203.035156h-79.449219c-4.875 0-8.828125-3.953125-8.828125-8.828125s3.953125-8.828125 8.828125-8.828125h79.449219c4.875 0 8.828125 3.953125 8.828125 8.828125s-3.953125 8.828125-8.828125 8.828125zm0 0"/><path d="m264.828125 238.34375h-88.277344c-4.875 0-8.828125-3.949219-8.828125-8.828125 0-4.875 3.953125-8.824219 8.828125-8.824219h88.277344c4.875 0 8.828125 3.949219 8.828125 8.824219 0 4.878906-3.953125 8.828125-8.828125 8.828125zm0 0"/><path d="m335.449219 238.34375h-35.3125c-4.875 0-8.828125-3.949219-8.828125-8.828125 0-4.875 3.953125-8.824219 8.828125-8.824219h35.3125c4.875 0 8.828125 3.949219 8.828125 8.824219 0 4.878906-3.953125 8.828125-8.828125 8.828125zm0 0"/><path d="m220.691406 326.621094h-44.140625c-4.875 0-8.828125-3.953125-8.828125-8.828125s3.953125-8.828125 8.828125-8.828125h44.140625c4.875 0 8.824219 3.953125 8.824219 8.828125s-3.949219 8.828125-8.824219 8.828125zm0 0"/><path d="m335.449219 326.621094h-79.449219c-4.875 0-8.828125-3.953125-8.828125-8.828125s3.953125-8.828125 8.828125-8.828125h79.449219c4.875 0 8.828125 3.953125 8.828125 8.828125s-3.953125 8.828125-8.828125 8.828125zm0 0"/><path d="m264.828125 361.929688h-88.277344c-4.875 0-8.828125-3.949219-8.828125-8.828126 0-4.875 3.953125-8.824218 8.828125-8.824218h88.277344c4.875 0 8.828125 3.949218 8.828125 8.824218 0 4.878907-3.953125 8.828126-8.828125 8.828126zm0 0"/><path d="m335.449219 361.929688h-35.3125c-4.875 0-8.828125-3.949219-8.828125-8.828126 0-4.875 3.953125-8.824218 8.828125-8.824218h35.3125c4.875 0 8.828125 3.949218 8.828125 8.824218 0 4.878907-3.953125 8.828126-8.828125 8.828126zm0 0"/></g><path d="m114.757812 229.515625c-2.339843 0-4.585937-.929687-6.242187-2.585937l-17.652344-17.652344c-3.347656-3.464844-3.296875-8.972656.105469-12.375 3.40625-3.40625 8.910156-3.453125 12.375-.109375l10.285156 10.285156 38.089844-53.308594c1.78125-2.703125 4.894531-4.214843 8.117188-3.945312 3.222656.273437 6.039062 2.285156 7.339843 5.246093 1.300781 2.960938.878907 6.398438-1.101562 8.953126l-44.140625 61.796874c-1.503906 2.109376-3.863282 3.453126-6.449219 3.671876-.242187.023437-.488281.023437-.726563.023437zm0 0" fill="#24ae5f"/></svg>