<svg height="512pt" viewBox="-44 0 512 512.00024" width="512pt" xmlns="http://www.w3.org/2000/svg"><path d="m370.757812 70.621094v423.722656c-.027343 9.738281-7.914062 17.628906-17.652343 17.65625h-335.449219c-9.738281-.027344-17.625-7.917969-17.65625-17.65625v-476.6875c-.0234375-4.683594 1.855469-9.175781 5.207031-12.449219 3.273438-3.351562 7.765625-5.2304685 12.449219-5.207031 19.5 0 35.308594 15.808594 35.308594 35.3125v26.480469c0 4.875 3.953125 8.828125 8.828125 8.828125zm0 0" fill="#d1d4d1"/><path d="m423.722656 35.3125v26.480469c0 4.875-3.949218 8.828125-8.824218 8.828125h-353.105469c-4.875 0-8.828125-3.953125-8.828125-8.828125v-26.480469c0-19.503906-15.808594-35.3125-35.308594-35.3125h370.757812c19.5 0 35.308594 15.808594 35.308594 35.3125zm0 0" fill="#e6e7e8"/><path d="m335.449219 361.929688h-97.191407c-4.875 0-8.828124-3.949219-8.828124-8.824219 0-4.878907 3.953124-8.828125 8.828124-8.828125h97.191407c4.875 0 8.828125 3.949218 8.828125 8.828125 0 4.875-3.953125 8.824219-8.828125 8.824219zm0 0" fill="#a5a5a4"/><path d="m238.34375 361.929688h-203.03125c-4.878906 0-8.828125-3.949219-8.828125-8.824219 0-4.878907 3.949219-8.828125 8.828125-8.828125h203.03125c4.875 0 8.828125 3.949218 8.828125 8.828125 0 4.875-3.953125 8.824219-8.828125 8.824219zm0 0" fill="#a5a5a4"/><path d="m79.449219 132.414062h-44.136719c-4.878906 0-8.828125-3.953124-8.828125-8.828124s3.949219-8.828126 8.828125-8.828126h44.136719c4.875 0 8.828125 3.953126 8.828125 8.828126s-3.953125 8.828124-8.828125 8.828124zm0 0" fill="#71c285"/><path d="m335.449219 132.414062h-185.378907c-4.875 0-8.828124-3.953124-8.828124-8.828124s3.953124-8.828126 8.828124-8.828126h185.378907c4.875 0 8.828125 3.953126 8.828125 8.828126s-3.953125 8.828124-8.828125 8.828124zm0 0" fill="#5e5f62"/><path d="m335.449219 167.722656h-185.378907c-4.875 0-8.828124-3.949218-8.828124-8.824218 0-4.878907 3.953124-8.828126 8.828124-8.828126h185.378907c4.875 0 8.828125 3.949219 8.828125 8.828126 0 4.875-3.953125 8.824218-8.828125 8.824218zm0 0" fill="#5e5f62"/><path d="m79.449219 203.035156h-44.136719c-4.878906 0-8.828125-3.953125-8.828125-8.828125s3.949219-8.828125 8.828125-8.828125h44.136719c4.875 0 8.828125 3.953125 8.828125 8.828125s-3.953125 8.828125-8.828125 8.828125zm0 0" fill="#71c285"/><path d="m335.449219 203.035156h-185.378907c-4.875 0-8.828124-3.953125-8.828124-8.828125s3.953124-8.828125 8.828124-8.828125h185.378907c4.875 0 8.828125 3.953125 8.828125 8.828125s-3.953125 8.828125-8.828125 8.828125zm0 0" fill="#5e5f62"/><path d="m335.449219 238.34375h-185.378907c-4.875 0-8.828124-3.949219-8.828124-8.828125 0-4.875 3.953124-8.824219 8.828124-8.824219h185.378907c4.875 0 8.828125 3.949219 8.828125 8.824219 0 4.878906-3.953125 8.828125-8.828125 8.828125zm0 0" fill="#5e5f62"/><path d="m79.449219 273.65625h-44.136719c-4.878906 0-8.828125-3.953125-8.828125-8.828125s3.949219-8.828125 8.828125-8.828125h44.136719c4.875 0 8.828125 3.953125 8.828125 8.828125s-3.953125 8.828125-8.828125 8.828125zm0 0" fill="#e64c3c"/><path d="m335.449219 273.65625h-185.378907c-4.875 0-8.828124-3.953125-8.828124-8.828125s3.953124-8.828125 8.828124-8.828125h185.378907c4.875 0 8.828125 3.953125 8.828125 8.828125s-3.953125 8.828125-8.828125 8.828125zm0 0" fill="#5e5f62"/><path d="m335.449219 308.964844h-185.378907c-4.875 0-8.828124-3.953125-8.828124-8.828125s3.953124-8.824219 8.828124-8.824219h185.378907c4.875 0 8.828125 3.949219 8.828125 8.824219s-3.953125 8.828125-8.828125 8.828125zm0 0" fill="#5e5f62"/><path d="m273.65625 423.722656c0 48.753906-39.523438 88.277344-88.277344 88.277344s-88.273437-39.523438-88.273437-88.277344c0-48.75 39.519531-88.273437 88.273437-88.273437s88.277344 39.523437 88.277344 88.273437zm0 0" fill="#71c285"/><g fill="#4c8056"><path d="m194.207031 467.863281h-35.308593c-4.875 0-8.828126-3.953125-8.828126-8.828125s3.953126-8.828125 8.828126-8.828125h35.308593c4.875 0 8.828125-3.953125 8.828125-8.828125s-3.953125-8.828125-8.828125-8.828125h-17.65625c-14.625 0-26.480469-11.855469-26.480469-26.480469 0-14.628906 11.855469-26.484374 26.480469-26.484374h35.3125c4.875 0 8.828125 3.953124 8.828125 8.828124s-3.953125 8.828126-8.828125 8.828126h-35.3125c-4.875 0-8.828125 3.953124-8.828125 8.828124s3.953125 8.828126 8.828125 8.828126h17.65625c14.625 0 26.484375 11.855468 26.484375 26.480468s-11.859375 26.484375-26.484375 26.484375zm0 0"/><path d="m185.378906 397.242188c-4.875 0-8.828125-3.953126-8.828125-8.828126v-17.65625c0-4.875 3.953125-8.828124 8.828125-8.828124s8.828125 3.953124 8.828125 8.828124v17.65625c0 4.875-3.953125 8.828126-8.828125 8.828126zm0 0"/><path d="m185.378906 485.515625c-4.875 0-8.828125-3.949219-8.828125-8.824219v-17.65625c0-4.875 3.953125-8.828125 8.828125-8.828125s8.828125 3.953125 8.828125 8.828125v17.65625c0 4.875-3.953125 8.824219-8.828125 8.824219zm0 0"/></g></svg>