<svg height="512pt" viewBox="0 0 512.00084 512" width="512pt" xmlns="http://www.w3.org/2000/svg"><path d="m508.824219 213.871094c-2.183594-4.902344-5.476563-9.222656-9.625-12.625l-57.820313-51.375-99.132812-88.101563-58.085938-51.640625c-16.34375-13.503906-39.976562-13.503906-56.320312 0l-58.085938 51.640625-99.132812 88.101563-57.820313 51.375c-8.039062 6.757812-12.7148435 16.691406-12.800781 27.191406v248.230469c.03125 19.488281 15.820312 35.28125 35.3125 35.308593h441.378906c8.792969-.011718 17.265625-3.316406 23.746094-9.269531 7.398438-6.625 11.609375-16.105469 11.5625-26.039062v-248.230469c.03125-5.03125-1.054688-10.007812-3.175781-14.566406zm0 0" fill="#f29c1f"/><path d="m508.824219 213.871094-67.445313 42.726562-138.769531 87.832032-32.574219-26.039063c-13.230468-10.605469-32.128906-10.308594-45.019531.703125l-29.574219 25.335938-124.820312-84.746094-67.441406-45.726563c2.148437-4.941406 5.445312-9.300781 9.621093-12.710937l57.820313-51.375 99.132812-88.101563 58.085938-51.640625c16.34375-13.503906 39.976562-13.503906 56.320312 0l58.085938 51.640625 99.132812 88.101563 57.820313 51.375c4.148437 3.402344 7.441406 7.722656 9.625 12.625zm0 0" fill="#f0c419"/><path d="m441.378906 385.300781v-297.046875c0-14.625-11.855468-26.484375-26.480468-26.484375h-317.792969c-14.628907 0-26.484375 11.859375-26.484375 26.484375v300.136719zm0 0" fill="#e6e7e8"/><path d="m123.585938 105.910156h123.585937c4.875 0 8.828125 3.949219 8.828125 8.828125v123.585938c0 4.875-3.953125 8.824219-8.828125 8.824219h-123.585937c-4.875 0-8.828126-3.949219-8.828126-8.824219v-123.585938c0-4.878906 3.953126-8.828125 8.828126-8.828125zm0 0" fill="#67b9cc"/><path d="m220.691406 145.632812c0-21.9375-15.808594-39.722656-35.3125-39.722656-19.5 0-35.308594 17.785156-35.308594 39.722656s15.808594 39.722657 35.308594 39.722657c19.503906 0 35.3125-17.785157 35.3125-39.722657zm0 0" fill="#fdd7ad"/><g fill="#5e5f62"><path d="m406.070312 114.738281h-105.933593c-4.875 0-8.824219-3.953125-8.824219-8.828125s3.949219-8.828125 8.824219-8.828125h105.933593c4.875 0 8.828126 3.953125 8.828126 8.828125s-3.953126 8.828125-8.828126 8.828125zm0 0"/><path d="m353.105469 158.875h-52.96875c-4.875 0-8.824219-3.953125-8.824219-8.828125s3.949219-8.828125 8.824219-8.828125h52.96875c4.875 0 8.824219 3.953125 8.824219 8.828125s-3.949219 8.828125-8.824219 8.828125zm0 0"/><path d="m406.070312 158.875h-17.65625c-4.875 0-8.828124-3.953125-8.828124-8.828125s3.953124-8.828125 8.828124-8.828125h17.65625c4.875 0 8.828126 3.953125 8.828126 8.828125s-3.953126 8.828125-8.828126 8.828125zm0 0"/><path d="m406.070312 194.183594h-105.933593c-4.875 0-8.824219-3.949219-8.824219-8.828125 0-4.875 3.949219-8.824219 8.824219-8.824219h105.933593c4.875 0 8.828126 3.949219 8.828126 8.824219 0 4.878906-3.953126 8.828125-8.828126 8.828125zm0 0"/><path d="m326.621094 229.496094h-26.484375c-4.875 0-8.824219-3.953125-8.824219-8.828125s3.949219-8.828125 8.824219-8.828125h26.484375c4.875 0 8.828125 3.953125 8.828125 8.828125s-3.953125 8.828125-8.828125 8.828125zm0 0"/><path d="m406.070312 229.496094h-35.3125c-4.875 0-8.828124-3.953125-8.828124-8.828125s3.953124-8.828125 8.828124-8.828125h35.3125c4.875 0 8.828126 3.953125 8.828126 8.828125s-3.953126 8.828125-8.828126 8.828125zm0 0"/></g><path d="m512 228.4375v248.230469c.046875 9.933593-4.164062 19.414062-11.5625 26.039062l-197.828125-158.277343 138.769531-87.832032 67.445313-42.726562c2.121093 4.558594 3.207031 9.535156 3.175781 14.566406zm0 0" fill="#f29c1f"/><path d="m500.4375 502.707031c-6.480469 5.953125-14.953125 9.257813-23.746094 9.269531h-441.378906c-8.953125-.007812-17.566406-3.414062-24.101562-9.53125l184.230468-158.015624 29.574219-25.335938c12.890625-11.011719 31.789063-11.308594 45.019531-.703125l32.574219 26.039063zm0 0" fill="#e57e25"/><path d="m195.441406 344.429688-184.230468 158.015624c-7.148438-6.667968-11.210938-16.003906-11.210938-25.777343v-248.230469c-.0195312-5.003906 1.066406-9.945312 3.179688-14.480469l67.441406 45.726563zm0 0" fill="#f29c1f"/><path d="m256 220.667969v17.65625c0 4.875-3.953125 8.824219-8.828125 8.824219h-123.585937c-4.875 0-8.828126-3.949219-8.828126-8.824219v-17.65625c0-17.65625 17.65625-17.65625 35.3125-17.65625 10.945313 0 15.09375-13.503907 16.683594-23.746094 11.089844 8.121094 26.164063 8.121094 37.25 0 1.589844 10.242187 5.738282 23.746094 16.6875 23.746094 17.652344 0 35.308594 0 35.308594 17.65625zm0 0" fill="#f09372"/><path d="m256 220.667969v17.65625c0 4.875-3.953125 8.824219-8.828125 8.824219h-123.585937c-4.875 0-8.828126-3.949219-8.828126-8.824219v-17.65625c0-14.125 11.386719-16.949219 24.984376-17.566407 12.089843 11.972657 28.636718 18.34375 45.636718 17.566407 17 .777343 33.546875-5.59375 45.640625-17.566407 13.59375.617188 24.980469 3.441407 24.980469 17.566407zm0 0" fill="#cc4b4c"/></svg>