<svg height="512pt" viewBox="-4 0 512 512" width="512pt" xmlns="http://www.w3.org/2000/svg"><path d="m350.71875 52.964844h108.316406c24.375 0 44.136719 19.761718 44.136719 44.136718v370.761719c0 24.375-19.761719 44.136719-44.136719 44.136719h-414.898437c-11.703125 0-22.929688-4.648438-31.210938-12.925781-8.277343-8.28125-12.925781-19.507813-12.925781-31.210938v-370.761719c0-24.375 19.761719-44.136718 44.136719-44.136718zm0 0" fill="#af8066"/><path d="m353.101562 88.277344h97.105469c9.738281.027344 17.625 7.914062 17.65625 17.652344v284.003906c-.003906 4.679687-1.863281 9.171875-5.175781 12.480468l-69.101562 69.101563c-3.308594 3.3125-7.800782 5.171875-12.480469 5.175781h-328.140625c-9.738282-.03125-17.625-7.917968-17.65625-17.65625v-353.105468c.03125-9.738282 7.917968-17.625 17.65625-17.652344zm0 0" fill="#fff"/><path d="m211.863281 44.136719c0-24.375 19.761719-44.136719 44.136719-44.136719s44.136719 19.761719 44.136719 44.136719h35.3125c9.738281.03125 17.625 7.917969 17.652343 17.65625v35.308593c-.027343 9.742188-7.914062 17.628907-17.652343 17.65625h-158.898438c-9.738281-.027343-17.625-7.914062-17.652343-17.65625v-35.308593c.027343-9.738281 7.914062-17.625 17.652343-17.65625zm0 0" fill="#d1d4d1"/><path d="m300.136719 88.277344h-88.273438c-4.875 0-8.828125-3.953125-8.828125-8.828125s3.953125-8.828125 8.828125-8.828125h88.273438c4.875 0 8.828125 3.953125 8.828125 8.828125s-3.953125 8.828125-8.828125 8.828125zm0 0" fill="#a5a5a4"/><g fill="#5e5f62"><path d="m423.722656 167.722656h-132.414062c-4.875 0-8.824219-3.949218-8.824219-8.824218 0-4.878907 3.949219-8.828126 8.824219-8.828126h132.414062c4.875 0 8.828125 3.949219 8.828125 8.828126 0 4.875-3.953125 8.824218-8.828125 8.824218zm0 0"/><path d="m423.722656 203.035156h-132.414062c-4.875 0-8.824219-3.953125-8.824219-8.828125s3.949219-8.828125 8.824219-8.828125h132.414062c4.875 0 8.828125 3.953125 8.828125 8.828125s-3.953125 8.828125-8.828125 8.828125zm0 0"/><path d="m423.722656 238.34375h-132.414062c-4.875 0-8.824219-3.949219-8.824219-8.828125 0-4.875 3.949219-8.824219 8.824219-8.824219h132.414062c4.875 0 8.828125 3.949219 8.828125 8.824219 0 4.878906-3.953125 8.828125-8.828125 8.828125zm0 0"/><path d="m423.722656 273.65625h-132.414062c-4.875 0-8.824219-3.953125-8.824219-8.828125s3.949219-8.828125 8.824219-8.828125h132.414062c4.875 0 8.828125 3.953125 8.828125 8.828125s-3.953125 8.828125-8.828125 8.828125zm0 0"/><path d="m423.722656 308.964844h-132.414062c-4.875 0-8.824219-3.953125-8.824219-8.828125s3.949219-8.828125 8.824219-8.828125h132.414062c4.875 0 8.828125 3.953125 8.828125 8.828125s-3.953125 8.828125-8.828125 8.828125zm0 0"/><path d="m423.722656 370.757812h-344.273437c-4.875 0-8.828125-3.953124-8.828125-8.828124s3.953125-8.828126 8.828125-8.828126h344.273437c4.875 0 8.828125 3.953126 8.828125 8.828126s-3.953125 8.828124-8.828125 8.828124zm0 0"/><path d="m344.277344 406.070312h-264.828125c-4.875 0-8.828125-3.953124-8.828125-8.828124s3.953125-8.828126 8.828125-8.828126h264.828125c4.875 0 8.824218 3.953126 8.824218 8.828126s-3.949218 8.828124-8.824218 8.828124zm0 0"/><path d="m344.277344 441.378906h-264.828125c-4.875 0-8.828125-3.953125-8.828125-8.828125s3.953125-8.828125 8.828125-8.828125h264.828125c4.875 0 8.824218 3.953125 8.824218 8.828125s-3.949218 8.828125-8.824218 8.828125zm0 0"/></g><path d="m388.414062 475.101562v-69.03125c0-4.875 3.953126-8.828124 8.828126-8.828124h69.03125zm0 0" fill="#e6e7e8"/><path d="m247.171875 238.34375c0 43.878906-35.570313 79.449219-79.449219 79.449219-43.875 0-79.445312-35.570313-79.445312-79.449219s35.570312-79.445312 79.445312-79.445312c43.878906 0 79.449219 35.566406 79.449219 79.445312zm0 0" fill="#b0d3f0"/><path d="m220.691406 282.484375c-.007812 6.878906-1.898437 13.628906-5.476562 19.507813-28.15625 21.066406-66.828125 21.066406-94.984375 0-3.574219-5.878907-5.46875-12.628907-5.472657-19.507813 1.195313-20.039063 15.410157-36.914063 34.957032-41.492187h36.015625c19.546875 4.578124 33.765625 21.453124 34.960937 41.492187zm0 0" fill="#e64c3c"/><path d="m167.722656 282.484375c-4.875 0-8.824218-3.953125-8.824218-8.828125v-26.484375c0-4.875 3.949218-8.828125 8.824218-8.828125s8.828125 3.953125 8.828125 8.828125v26.484375c0 4.875-3.953125 8.828125-8.828125 8.828125zm0 0" fill="#c03a2b"/><path d="m203.035156 203.035156c0-24.378906-15.808594-44.136718-35.3125-44.136718-19.5 0-35.308594 19.757812-35.308594 44.136718 0 24.375 15.808594 44.136719 35.308594 44.136719 19.503906 0 35.3125-19.761719 35.3125-44.136719zm0 0" fill="#fdd7ad"/></svg>