<svg height="512pt" viewBox="0 0 512 512" width="512pt" xmlns="http://www.w3.org/2000/svg"><path d="m26.484375 251.585938v-225.101563c0-14.628906 11.855469-26.484375 26.480469-26.484375h406.070312c14.625 0 26.480469 11.855469 26.480469 26.484375v233.929687zm0 0" fill="#f5efca"/><path d="m512 256v229.515625c0 14.628906-11.855469 26.484375-26.484375 26.484375h-459.03125c-14.628906 0-26.484375-11.855469-26.484375-26.484375v-300.136719c0-14.625 11.855469-26.480468 26.484375-26.480468h105.929687c14.625 0 26.484376 11.855468 26.484376 26.480468v8.828125c0 19.5 15.808593 35.308594 35.308593 35.308594h291.308594c14.628906 0 26.484375 11.859375 26.484375 26.484375zm0 0" fill="#4482c3"/><path d="m35.308594 485.515625c-4.875 0-8.824219-3.949219-8.824219-8.824219v-282.484375c0-4.875 3.949219-8.828125 8.824219-8.828125 4.878906 0 8.828125 3.953125 8.828125 8.828125v282.484375c0 4.875-3.949219 8.824219-8.828125 8.824219zm0 0" fill="#285680"/><g fill="#5e5f62"><path d="m450.207031 70.621094h-388.414062c-4.875 0-8.828125-3.953125-8.828125-8.828125s3.953125-8.828125 8.828125-8.828125h388.414062c4.875 0 8.828125 3.953125 8.828125 8.828125s-3.953125 8.828125-8.828125 8.828125zm0 0"/><path d="m300.136719 167.722656h-97.101563c-4.875 0-8.828125-3.949218-8.828125-8.824218 0-4.878907 3.953125-8.828126 8.828125-8.828126h97.101563c4.875 0 8.828125 3.949219 8.828125 8.828126 0 4.875-3.953125 8.824218-8.828125 8.824218zm0 0"/><path d="m432.550781 167.722656h-88.273437c-4.875 0-8.828125-3.949218-8.828125-8.824218 0-4.878907 3.953125-8.828126 8.828125-8.828126h88.273437c4.875 0 8.828125 3.949219 8.828125 8.828126 0 4.875-3.953125 8.824218-8.828125 8.824218zm0 0"/><path d="m432.550781 203.035156h-229.515625c-4.875 0-8.828125-3.953125-8.828125-8.828125s3.953125-8.828125 8.828125-8.828125h229.515625c4.875 0 8.828125 3.953125 8.828125 8.828125s-3.953125 8.828125-8.828125 8.828125zm0 0"/><path d="m132.414062 132.414062h-52.964843c-4.875 0-8.828125-3.953124-8.828125-8.828124s3.953125-8.828126 8.828125-8.828126h52.964843c4.875 0 8.828126 3.953126 8.828126 8.828126s-3.953126 8.828124-8.828126 8.828124zm0 0"/><path d="m317.792969 132.414062h-141.242188c-4.875 0-8.828125-3.953124-8.828125-8.828124s3.953125-8.828126 8.828125-8.828126h141.242188c4.875 0 8.828125 3.953126 8.828125 8.828126s-3.953125 8.828124-8.828125 8.828124zm0 0"/><path d="m432.550781 132.414062h-70.621093c-4.875 0-8.828126-3.953124-8.828126-8.828124s3.953126-8.828126 8.828126-8.828126h70.621093c4.875 0 8.828125 3.953126 8.828125 8.828126s-3.953125 8.828124-8.828125 8.828124zm0 0"/></g><path d="m322.648438 393.976562c-.886719 2.585938-1.917969 5.121094-3.089844 7.589844l18.539062 26.695313c2.425782 3.507812 2 8.246093-1.015625 11.265625l-12.269531 12.269531c-3.019531 3.015625-7.757812 3.441406-11.265625 1.015625l-26.738281-18.496094c-2.46875 1.175782-5.003906 2.207032-7.59375 3.089844l-5.832032 32.035156c-.765624 4.195313-4.414062 7.246094-8.679687 7.25h-17.40625c-4.265625-.003906-7.914063-3.054687-8.679687-7.25l-5.832032-32.035156c-2.589844-.882812-5.125-1.914062-7.59375-3.089844l-26.695312 18.539063c-3.507813 2.425781-8.246094 2-11.261719-1.015625l-12.273437-12.269532c-3.011719-3.015624-3.441407-7.757812-1.011719-11.265624l18.535156-26.695313c-1.171875-2.46875-2.203125-5.003906-3.089844-7.589844l-32.035156-5.835937c-4.226563-.746094-7.304687-4.425782-7.289063-8.722656v-17.40625c.003907-4.261719 3.050782-7.914063 7.246094-8.675782l32.035156-5.835937c.886719-2.589844 1.917969-5.121094 3.089844-7.59375l-18.539062-26.695313c-2.425782-3.503906-2-8.246094 1.015625-11.261718l12.269531-12.269532c3.019531-3.015625 7.757812-3.445312 11.265625-1.015625l26.738281 18.492188c2.46875-1.171875 5.003906-2.203125 7.59375-3.089844l5.832032-32.035156c.765624-4.195313 4.414062-7.242188 8.679687-7.246094h17.40625c4.265625.003906 7.914063 3.050781 8.679687 7.246094l5.832032 32.035156c2.589844.886719 5.125 1.917969 7.59375 3.089844l26.695312-18.492188c3.507813-2.429687 8.246094-2 11.261719 1.015625l12.273437 12.269532c3.011719 3.015624 3.441407 7.757812 1.011719 11.261718l-18.492187 26.695313c1.171875 2.472656 2.203125 5.003906 3.089844 7.59375l32.035156 5.835937c4.195312.761719 7.242187 4.414063 7.246094 8.675782v17.40625c-.003907 4.265624-3.050782 7.917968-7.246094 8.679687zm0 0" fill="#d1d4d1"/><path d="m282.484375 370.757812c0 14.625-11.859375 26.484376-26.484375 26.484376s-26.484375-11.859376-26.484375-26.484376 11.859375-26.480468 26.484375-26.480468 26.484375 11.855468 26.484375 26.480468zm0 0" fill="#4482c3"/></svg>