<svg height="512pt" viewBox="0 -9 512 512" width="512pt" xmlns="http://www.w3.org/2000/svg"><path d="m332.425781 375.464844c1.875-22.679688 9.210938-44.570313 21.382813-63.800782 11.65625-18.390624 27.027344-34.304687 37.28125-53.597656 20.710937-38.9375 30.082031-66.816406 26.171875-110.789062-8.335938-83.109375-77.933594-146.597656-161.457031-147.277344h.195312c-83.523438.679688-153.125 64.167969-161.460938 147.277344-3.90625 43.972656 5.464844 71.851562 26.171876 110.789062 10.242187 19.292969 25.601562 35.207032 37.285156 53.597656 12.171875 19.230469 19.507812 41.121094 21.382812 63.800782zm0 0" fill="#f0c419"/><path d="m128.546875 158.832031c-.25 0-.503906 0-.761719 0-4.691406-.417969-8.160156-4.558593-7.746094-9.25 7.542969-69.679687 65.796876-122.835937 135.875-123.980469 4.714844 0 8.535157 3.820313 8.535157 8.53125 0 4.714844-3.820313 8.535157-8.535157 8.535157-61.28125.988281-112.238281 47.445312-118.878906 108.371093-.382812 4.40625-4.066406 7.785157-8.488281 7.792969zm0 0" fill="#fff"/><path d="m324.265625 426.667969v42.664062c0 14.140625-11.460937 25.601563-25.597656 25.601563h-85.335938c-.855469.027344-1.714843-.027344-2.558593-.171875h-.085938c-6.679688-.644531-12.824219-3.929688-17.066406-9.128907-3.8125-4.574218-5.894532-10.34375-5.886719-16.300781v-42.664062zm0 0" fill="#a5a5a4"/><path d="m230.398438 384c-4.710938 0-8.53125-3.820312-8.53125-8.535156v-145.066406h-25.601563c-18.851563 0-34.132813-15.28125-34.132813-34.132813s15.28125-34.132813 34.132813-34.132813h8.535156c18.851563 0 34.132813 15.28125 34.132813 34.132813v17.066406h17.066406c4.710938 0 8.535156 3.820313 8.535156 8.535157 0 4.710937-3.824218 8.53125-8.535156 8.53125h-17.066406v145.066406c0 4.714844-3.820313 8.535156-8.535156 8.535156zm-34.132813-204.800781c-9.425781 0-17.066406 7.640625-17.066406 17.066406s7.640625 17.066406 17.066406 17.066406h25.601563v-17.066406c0-9.425781-7.640626-17.066406-17.066407-17.066406zm0 0" fill="#e57e25"/><path d="m281.601562 384c-4.714843 0-8.535156-3.820312-8.535156-8.535156v-145.066406h-17.066406c-4.710938 0-8.535156-3.820313-8.535156-8.53125 0-4.714844 3.824218-8.535157 8.535156-8.535157h17.066406v-17.066406c0-18.851563 15.28125-34.132813 34.132813-34.132813h8.535156c18.851563 0 34.132813 15.28125 34.132813 34.132813s-15.28125 34.132813-34.132813 34.132813h-25.601563v145.066406c0 4.714844-3.820312 8.535156-8.53125 8.535156zm8.53125-170.667969h25.601563c9.425781 0 17.066406-7.640625 17.066406-17.066406s-7.640625-17.066406-17.066406-17.066406h-8.535156c-9.425781 0-17.066407 7.640625-17.066407 17.066406zm0 0" fill="#e57e25"/><g fill="#f29c1f"><path d="m51.199219 170.667969h-42.664063c-4.714844 0-8.535156-3.820313-8.535156-8.535157 0-4.710937 3.820312-8.53125 8.535156-8.53125h42.664063c4.714843 0 8.535156 3.820313 8.535156 8.53125 0 4.714844-3.820313 8.535157-8.535156 8.535157zm0 0"/><path d="m41.703125 294.398438c-3.863281 0-7.242187-2.59375-8.242187-6.324219s.628906-7.667969 3.976562-9.597657l36.949219-21.332031c4.074219-2.320312 9.261719-.910156 11.605469 3.148438 2.347656 4.0625.972656 9.257812-3.074219 11.628906l-36.949219 21.335937c-1.296875.746094-2.769531 1.140626-4.265625 1.140626zm0 0"/><path d="m470.304688 294.398438c-1.496094.003906-2.96875-.390626-4.265626-1.140626l-36.949218-21.335937c-2.660156-1.511719-4.308594-4.335937-4.316406-7.398437-.003907-3.0625 1.628906-5.894532 4.285156-7.417969 2.652344-1.523438 5.921875-1.511719 8.566406.039062l36.949219 21.332031c3.34375 1.929688 4.972656 5.867188 3.972656 9.597657s-4.378906 6.324219-8.242187 6.324219zm0 0"/><path d="m503.464844 170.667969h-42.664063c-4.714843 0-8.535156-3.820313-8.535156-8.535157 0-4.710937 3.820313-8.53125 8.535156-8.53125h42.664063c4.714844 0 8.535156 3.820313 8.535156 8.53125 0 4.714844-3.820312 8.535157-8.535156 8.535157zm0 0"/><path d="m433.367188 68.265625c-3.863282 0-7.246094-2.59375-8.242188-6.324219-1-3.730468.628906-7.667968 3.972656-9.597656l36.949219-21.332031c2.644531-1.550781 5.910156-1.566407 8.566406-.039063 2.65625 1.523438 4.289063 4.355469 4.285157 7.417969-.007813 3.0625-1.65625 5.886719-4.316407 7.398437l-36.949219 21.335938c-1.296874.75-2.769531 1.144531-4.265624 1.140625zm0 0"/><path d="m78.625 68.265625c-1.496094 0-2.96875-.394531-4.265625-1.140625l-36.949219-21.335938c-4.046875-2.371093-5.417968-7.566406-3.074218-11.628906s7.53125-5.46875 11.609374-3.148437l36.949219 21.332031c3.34375 1.929688 4.972657 5.867188 3.972657 9.597656-1 3.730469-4.378907 6.324219-8.242188 6.324219zm0 0"/></g><path d="m318.292969 426.667969c-.027344 3.003906-1.609375 5.78125-4.179688 7.335937l-103.339843 60.757813h-.085938c-6.679688-.644531-12.824219-3.929688-17.066406-9.128907.601562-.6875 1.289062-1.289062 2.046875-1.792968l97.28125-57.171875 12.457031-7.339844c4.054688-2.402344 9.289062-1.066406 11.691406 2.988281.761719 1.324219 1.171875 2.820313 1.195313 4.351563zm0 0" fill="#5e5f62"/><path d="m187.734375 375.464844h136.53125c14.140625 0 25.601563 11.464844 25.601563 25.601562 0 14.140625-11.460938 25.601563-25.601563 25.601563h-136.53125c-14.140625 0-25.601563-11.460938-25.601563-25.601563 0-14.136718 11.460938-25.601562 25.601563-25.601562zm0 0" fill="#d1d4d1"/></svg>