<svg height="512pt" viewBox="0 0 512.51732 512" width="512pt" xmlns="http://www.w3.org/2000/svg"><path d="m418.390625 512.339844h-324.265625c-32.972656-.039063-59.695312-26.761719-59.734375-59.734375v-187.734375c0-9.425782-7.640625-17.066406-17.066406-17.066406-1.859375-.011719-3.707031.308593-5.453125.957031-2.863282 1.21875-6.167969.777343-8.617188-1.148438-2.445312-1.925781-3.648437-5.035156-3.136718-8.105469.511718-3.074218 2.65625-5.625 5.59375-6.652343 3.707031-1.425781 7.644531-2.140625 11.613281-2.117188 18.851562 0 34.132812 15.28125 34.132812 34.132813v187.734375c.03125 23.550781 19.117188 42.636719 42.667969 42.664062h324.265625c23.554687-.027343 42.640625-19.113281 42.667969-42.664062v-187.734375c0-18.851563 15.28125-34.132813 34.132812-34.132813 3.96875-.023437 7.910156.695313 11.613282 2.117188 2.941406 1.027343 5.085937 3.578125 5.597656 6.652343.511718 3.070313-.691406 6.179688-3.140625 8.105469s-5.75 2.367188-8.617188 1.148438c-1.746093-.648438-3.59375-.96875-5.453125-.957031-9.425781 0-17.066406 7.640624-17.066406 17.066406v187.734375c-.039062 32.972656-26.757812 59.695312-59.734375 59.734375zm0 0" fill="#af8066"/><path d="m350.125 422.738281c-.222656 10.410157-4.574219 20.308594-12.097656 27.507813-7.523438 7.203125-17.597656 11.121094-28.007813 10.890625-9.640625.042969-18.980469-3.34375-26.351562-9.554688-3.03125.683594-6.128907 1.027344-9.234375 1.023438-9.8125.074219-19.3125-3.449219-26.707032-9.898438-7.394531 6.449219-16.898437 9.972657-26.710937 9.898438-3.117187.007812-6.226563-.335938-9.265625-1.023438-7.363281 6.203125-16.691406 9.589844-26.316406 9.554688-10.414063.230469-20.488282-3.6875-28.011719-10.890625-7.519531-7.199219-11.871094-17.097656-12.097656-27.507813.019531-11.753906 5.558593-22.816406 14.960937-29.867187-9.402344-7.050782-14.941406-18.113282-14.960937-29.867188.363281-20.054687 15.851562-36.574218 35.839843-38.230468-.179687-1.46875-.265624-2.953126-.261718-4.433594.222656-10.414063 4.574218-20.308594 12.097656-27.511719 7.519531-7.199219 17.597656-11.117187 28.007812-10.890625 9.816407-.074219 19.320313 3.445312 26.71875 9.898438 7.394532-6.449219 16.894532-9.972657 26.707032-9.898438 10.414062-.226562 20.488281 3.691406 28.011718 10.890625 7.519532 7.203125 11.871094 17.097656 12.097657 27.511719.003906 1.480468-.085938 2.964844-.265625 4.433594 19.992187 1.652343 35.488281 18.175781 35.847656 38.230468-.015625 11.753906-5.558594 22.816406-14.957031 29.867188 9.398437 7.050781 14.941406 18.113281 14.957031 29.867187zm0 0" fill="#fb7b76"/><path d="m247.726562 392.871094c-4.714843 0-8.535156-3.820313-8.535156-8.53125v-42.667969c0-4.714844 3.820313-8.535156 8.535156-8.535156 4.710938 0 8.53125 3.820312 8.53125 8.535156v42.667969c0 4.710937-3.820312 8.53125-8.53125 8.53125zm0 0" fill="#ff5364"/><path d="m264.792969 409.9375c-4.714844 0-8.535157-3.820312-8.535157-8.53125-.027343-4.714844-3.871093-8.511719-8.582031-8.484375-4.714843.027344-8.511719 3.871094-8.484375 8.585937-.113281 4.636719-3.894531 8.34375-8.53125 8.371094h-.113281c-4.65625-.035156-8.417969-3.816406-8.421875-8.472656 0-14.140625 11.460938-25.601562 25.601562-25.601562 14.136719 0 25.597657 11.460937 25.597657 25.601562 0 4.710938-3.820313 8.53125-8.53125 8.53125zm0 0" fill="#ff5364"/><path d="m247.726562 350.203125c-6.851562.203125-13.480468-2.429687-18.324218-7.277344-4.84375-4.84375-7.476563-11.472656-7.277344-18.320312 0-4.714844 3.820312-8.535157 8.535156-8.535157 4.710938 0 8.53125 3.820313 8.53125 8.535157.027344 4.710937 3.871094 8.507812 8.585938 8.480469 4.710937-.027344 8.507812-3.871094 8.480468-8.582032.117188-4.640625 3.894532-8.347656 8.535157-8.371094h.109375c4.660156.03125 8.417968 3.8125 8.421875 8.472657.203125 6.847656-2.429688 13.476562-7.277344 18.320312-4.84375 4.847657-11.472656 7.480469-18.320313 7.277344zm0 0" fill="#ff5364"/><path d="m194.402344 392.871094c-4 .050781-7.496094-2.683594-8.410156-6.574219-.917969-3.890625.988281-7.898437 4.585937-9.640625 2.660156-1.070312 4.71875-3.261719 5.625-5.984375s.570313-5.707031-.914063-8.164063c-1.363281-2.726562-1.167968-5.976562.515626-8.519531 1.679687-2.542969 4.589843-4 7.636718-3.8125 3.042969.183594 5.757813 1.976563 7.121094 4.707031 3.53125 6.515626 4.207031 14.203126 1.871094 21.234376-2.335938 7.035156-7.476563 12.789062-14.203125 15.902343-1.191407.578125-2.503907.867188-3.828125.851563zm0 0" fill="#ff5364"/><path d="m301.050781 392.871094c-1.316406.011718-2.621093-.277344-3.804687-.851563-6.710938-3.109375-11.835938-8.847656-14.175782-15.859375-2.339843-7.015625-1.679687-14.679687 1.816407-21.195312 2.105469-4.191406 7.203125-5.898438 11.410156-3.820313 4.203125 2.078125 5.945313 7.164063 3.890625 11.382813-1.523438 2.453125-1.878906 5.457031-.976562 8.203125.90625 2.742187 2.976562 4.945312 5.664062 6.011719 3.597656 1.742187 5.503906 5.75 4.585938 9.640624-.917969 3.890626-4.414063 6.621094-8.410157 6.574219zm0 0" fill="#ff5364"/><g fill="#24ae5f"><path d="m187.992188 256.339844c-4.234376-.007813-7.820313-3.117188-8.429688-7.304688-.691406-4.59375-18.417969-112.164062-170.769531-112.164062-4.714844 0-8.535157-3.820313-8.535157-8.53125 0-4.714844 3.820313-8.535156 8.535157-8.535156 167.59375 0 187.46875 125.523437 187.648437 126.789062.351563 2.449219-.378906 4.929688-2 6.800781-1.621094 1.871094-3.972656 2.945313-6.449218 2.945313zm0 0"/><path d="m42.925781 162.472656c-1.847656.003906-3.644531-.597656-5.121093-1.707031l-34.132813-25.601563c-2.148437-1.609374-3.414063-4.140624-3.414063-6.824218 0-2.6875 1.265626-5.21875 3.414063-6.828125l34.132813-25.601563c2.441406-1.828125 5.667968-2.21875 8.472656-1.019531 2.804687 1.199219 4.753906 3.800781 5.121094 6.828125.363281 3.023438-.914063 6.015625-3.351563 7.847656l-25.03125 18.773438 25.03125 18.773437c2.9375 2.203125 4.136719 6.039063 2.972656 9.523438-1.160156 3.484375-4.421875 5.835937-8.09375 5.835937zm0 0"/><path d="m230.660156 256.339844h-.453125c-2.261719-.117188-4.386719-1.128906-5.902343-2.816406-1.515626-1.683594-2.300782-3.898438-2.179688-6.164063.085938-1.570313 6.628906-157.992187-115.335938-231.175781-4.039062-2.429688-5.34375-7.671875-2.914062-11.710938 2.429688-4.039062 7.671875-5.34375 11.710938-2.914062 130.886718 78.53125 123.683593 245.015625 123.605468 246.699218-.238281 4.535157-3.992187 8.085938-8.53125 8.082032zm0 0"/><path d="m119.726562 60.070312c-4.054687-.003906-7.542968-2.855468-8.355468-6.824218l-8.535156-42.667969c-.511719-2.507813.132812-5.117187 1.75-7.101563 1.621093-1.984374 4.042968-3.136718 6.605468-3.136718h42.667969c4.710937 0 8.53125 3.820312 8.53125 8.53125 0 4.714844-3.820313 8.535156-8.53125 8.535156h-32.257813l6.488282 32.425781c.453125 2.21875.003906 4.523438-1.242188 6.414063-1.25 1.886718-3.199218 3.203125-5.414062 3.65625-.5625.113281-1.136719.171875-1.707032.167968zm0 0"/><path d="m307.457031 256.339844c-2.476562 0-4.828125-1.070313-6.453125-2.941406-1.621094-1.871094-2.351562-4.355469-2-6.804688.1875-1.265625 20.058594-126.789062 187.65625-126.789062 4.710938 0 8.53125 3.820312 8.53125 8.535156 0 4.710937-3.820312 8.53125-8.53125 8.53125-152.96875 0-170.589844 111.019531-170.753906 112.144531-.601562 4.203125-4.203125 7.324219-8.449219 7.324219zm0 0"/><path d="m452.523438 162.472656c-3.671876 0-6.933594-2.351562-8.09375-5.835937-1.160157-3.484375.039062-7.320313 2.976562-9.523438l25.027344-18.773437-25.027344-18.773438c-3.769531-2.828125-4.535156-8.179687-1.707031-11.949218 2.828125-3.769532 8.175781-4.535157 11.945312-1.707032l34.132813 25.601563c2.148437 1.609375 3.414062 4.140625 3.414062 6.828125 0 2.683594-1.265625 5.214844-3.414062 6.824218l-34.132813 25.601563c-1.472656 1.109375-3.273437 1.710937-5.121093 1.707031zm0 0"/><path d="m264.792969 256.339844c-4.542969.003906-8.292969-3.546875-8.535157-8.082032-.085937-1.707031-7.285156-168.167968 123.597657-246.699218 2.617187-1.636719 5.910156-1.734375 8.617187-.253906 2.707032 1.476562 4.40625 4.304687 4.441406 7.390624.035157 3.082032-1.597656 5.949219-4.269531 7.488282-122.144531 73.320312-115.414062 229.605468-115.320312 231.167968.125 2.265626-.660157 4.484376-2.175781 6.171876-1.515626 1.683593-3.640626 2.699218-5.902344 2.816406zm0 0"/><path d="m375.726562 60.070312c-.574218.003907-1.148437-.050781-1.707031-.167968-2.21875-.453125-4.167969-1.769532-5.414062-3.65625-1.25-1.890625-1.695313-4.195313-1.242188-6.414063l6.484375-32.425781h-32.253906c-4.714844 0-8.535156-3.820312-8.535156-8.535156 0-4.710938 3.820312-8.53125 8.535156-8.53125h42.664062c2.5625-.003906 4.992188 1.148437 6.613282 3.132812s2.261718 4.59375 1.75 7.105469l-8.53125 42.667969c-.8125 3.972656-4.308594 6.824218-8.363282 6.824218zm0 0"/></g></svg>