<svg height="503pt" viewBox="-13 0 503 503.45215" width="503pt" xmlns="http://www.w3.org/2000/svg"><path d="m54.550781 295.136719c-7.164062-10.183594-10.984375-22.34375-10.933593-34.796875v-199.59375c0-33.550782 27.199218-60.746094 60.746093-60.746094h312.40625c33.550781 0 60.746094 27.195312 60.746094 60.746094v199.59375c0 33.546875-27.195313 60.746094-60.746094 60.746094h-43.476562zm0 0" fill="#e6e7e8"/><path d="m130.398438 78.101562 12.285156 43.390626h39.78125l-32.175782 18.734374 12.285157 42.011719-32.175781-27.34375-32.179688 27.34375 12.289062-42.011719-32.179687-18.734374h39.78125zm0 0" fill="#f0c419"/><path d="m260.566406 34.710938 12.289063 43.390624h39.777343l-32.175781 18.734376 12.289063 42.011718-32.179688-27.34375-32.175781 27.34375 12.285156-42.011718-32.175781-18.734376h39.777344zm0 0" fill="#f0c419"/><path d="m390.738281 78.101562 12.285157 43.390626h39.78125l-32.179688 18.734374 12.289062 42.011719-32.175781-27.34375-32.179687 27.34375 12.289062-42.011719-32.179687-18.734374h39.78125zm0 0" fill="#f0c419"/><path d="m296.148438 503.320312h-143.265626s-45.714843 3.472657-72.175781-25.441406c-3.046875-3.308594-3.246093-9.269531-16.140625-9.269531h-47.375c-9.429687-.210937-16.964844-7.921875-16.964844-17.355469v-136.6875c-.132812-9.875 7.167969-18.273437 16.964844-19.515625h27.953125c16.976563 0 33.785157 1.648438 48.007813-8.878906 4.648437-3.636719 8.980468-7.664063 12.945312-12.035156 49.761719-52.066407 127.878906-60.449219 178.480469-111.007813 16.730469-16.714844 33.453125 0 33.453125 16.714844 0 15.773438-29.832031 47.101562-54.289062 64.683594-2.8125 2.023437-5.605469 4.042968-8.296876 6.222656l-2.792968 2.265625c-10.449219 7.078125-19.480469 16.050781-26.625 26.457031-.3125.480469-1.214844 2.230469-2.316406 4.4375-1.300782 2.5-1.121094 5.511719.464843 7.839844 1.589844 2.328125 4.328125 3.597656 7.128907 3.300781h116.335937c6.976563.40625 13.515625 3.519531 18.226563 8.679688 6.820312 7.363281 9.25 17.78125 6.386718 27.402343-4.296875 10.085938-14.390625 16.453126-25.339844 15.984376h-5.703124c6.835937-.007813 13.394531 2.703124 18.222656 7.542968 6.828125 7.5625 9.246094 18.121094 6.386718 27.898438-4.222656 10.226562-14.277343 16.824218-25.339843 16.628906h-12.148438c6.835938-.011719 13.394531 2.703125 18.226563 7.539062 6.820312 7.304688 9.253906 17.683594 6.386718 27.257813-4.136718 10.378906-14.160156 17.210937-25.332031 17.269531h-30.703125c6.835938-.007812 13.394532 2.707032 18.222656 7.542969 6.804688 7.050781 9.25 17.242187 6.386719 26.613281-4.070312 10.542969-14.078125 17.605469-25.371093 17.910156zm0 0" fill="#4482c3"/><g fill="#285680"><path d="m34.941406 355.796875c-4.792968 0-8.679687-3.886719-8.679687-8.679687v-17.355469c0-4.792969 3.886719-8.675781 8.679687-8.675781 4.792969 0 8.675782 3.882812 8.675782 8.675781v17.355469c0 4.792968-3.882813 8.679687-8.675782 8.679687zm0 0"/><path d="m34.941406 442.578125c-4.792968 0-8.679687-3.886719-8.679687-8.679687v-52.066407c0-4.792969 3.886719-8.679687 8.679687-8.679687 4.792969 0 8.675782 3.886718 8.675782 8.679687v52.066407c0 4.792968-3.882813 8.679687-8.675782 8.679687zm0 0"/><path d="m329.992188 355.796875h-60.746094c-4.792969 0-8.679688-3.886719-8.679688-8.679687 0-4.792969 3.886719-8.675782 8.679688-8.675782h60.746094c4.792968 0 8.675781 3.882813 8.675781 8.675782 0 4.792968-3.882813 8.679687-8.675781 8.679687zm0 0"/><path d="m321.3125 407.863281h-60.746094c-4.792968 0-8.675781-3.882812-8.675781-8.675781s3.882813-8.679688 8.675781-8.679688h60.746094c4.792969 0 8.679688 3.886719 8.679688 8.679688s-3.886719 8.675781-8.679688 8.675781zm0 0"/><path d="m295.277344 459.933594h-52.066406c-4.792969 0-8.679688-3.886719-8.679688-8.679688 0-4.792968 3.886719-8.675781 8.679688-8.675781h52.066406c4.792968 0 8.679687 3.882813 8.679687 8.675781 0 4.792969-3.886719 8.679688-8.679687 8.679688zm0 0"/></g></svg>