<svg id="Capa_1" enable-background="new 0 0 58 59" height="512" viewBox="0 0 58 59" width="512" xmlns="http://www.w3.org/2000/svg"><path id="Shape" d="m29.4 37c.2-.5.5-.9.9-1.2 2.5-2.1 3.8-5.2 3.7-8.4 0-.1 0-.3 0-.4h1c1.7 0 3-1.3 3-3v-3c0-1.1-.6-2.1-1.6-2.6l.2-.4c1-4.1.1-8.9-3.8-10.4-.7-.3-.3.1-.6-.8-1.3-3.9-5.8-6.8-12-6.8-6.5 0-11.2 5.3-11.2 12.7 0 1.9.3 3.8.8 5.6-1.1.4-1.8 1.5-1.8 2.7v3c0 1.7 1.3 3 3 3h1v.4c-.2 3.2 1.2 6.3 3.7 8.4.9.8 1.3 1.9 1.3 3v2c0 1.7-1 3.2-2.6 3.7l-9.8 3.7c-2.7 1.1-4.6 3.8-4.6 6.8v3h46c0-.2 1.2 1.4-16.6-21z" fill="#955ba5"/><path d="m58 46c0 6.6-6.3 12-14 12-8.4 0-14.9-6.3-13.9-13.5-2.5-3.1-2.3-8.2-2.3-8.2 1.8.9 3.8 1.5 5.8 1.6 2.8-2.6 6.5-3.9 10.3-3.9 7.8 0 14.1 5.4 14.1 12z" fill="#f0c419"/><g fill="#fff"><path d="m50 42h-12c-.6 0-1-.4-1-1s.4-1 1-1h12c.6 0 1 .4 1 1s-.4 1-1 1z"/><path d="m50 52h-12c-.6 0-1-.4-1-1s.4-1 1-1h12c.6 0 1 .4 1 1s-.4 1-1 1z"/><path d="m50 47h-12c-.6 0-1-.4-1-1s.4-1 1-1h12c.6 0 1 .4 1 1s-.4 1-1 1z"/></g></svg>