<svg height="512" viewBox="0 0 58 58" width="512" xmlns="http://www.w3.org/2000/svg"><g id="090---Account-Blocked" fill="none"><circle id="Oval" cx="29" cy="29" fill="#2c3e50" r="29"/><path id="Shape" d="m44 41.34c-.0530926.3070392-.0765338.6184728-.07.93 0 1.92.16 4.4.28 6.59-9.1419695 7.0063853-21.8927624 6.841059-30.85-.4.6649789-1.2491137 1.1146131-2.601397 1.33-4 0-.48.27.6-2.06-8.67-.5740088-.8125086-1.2457117-1.5513818-2-2.2-2.46717178-1.9114722-3.78411121-4.9528854-3.49-8.06.17-3.26 2.76-6.62 4.59-9.24 3.57-5.2 9.46-11.85 16.33-12.29h.09c5.62-.46 12.35 4.87 16.05 9.23l4.55 6.57c1 1.75 2.13 3.65 2.24 5.67.16 2.78-2 5.22-3.41 7.46-1.58 2.6-3.17 5.4-3.58 8.41z" fill="#805333"/><path id="Shape" d="m42.65 42.09c-.0667138 2.5582345-.0032985 5.1182065.19 7.67-.5772477.4645091-1.1927783.8793232-1.84 1.24-7.4481293 4.0510452-16.4418707 4.0510452-23.89 0-.8678122-.4162895-1.6670124-.9625782-2.37-1.62.6110317-1.2860638 1.0192024-2.6590017 1.21-4.07 0-.49.25.65-1.87-8.84-1.93-3-5.3-4.18-5-10.47.15-3.32 2.52-6.75 4.19-9.42 4.58-7.5 11.83-15.42 19.66-11.58 3.9373627 1.99180934 7.3444678 4.89161914 9.94 8.46l4.13 6.68c1.0667259 1.7641091 1.7483052 3.7338732 2 5.78.15 2.84-1.83 5.32-3.11 7.61-1.6002631 2.6283201-2.6988636 5.5307955-3.24 8.56z" fill="#a56a43"/><path id="Shape" d="m41 51c-7.4481293 4.0510452-16.4418707 4.0510452-23.89 0 1.4785831-.7233829 2.8295771-1.6825886 4-2.84.331117-.3346467.5269803-.7797905.55-1.25.052333-1.6248246-.1501198-3.2478215-.6-4.81h16c-.4654869 1.5355983-.6815666 3.1359388-.64 4.74.0314478.4771255.2379942.9258298.58 1.26 1.1682268 1.1760424 2.5190076 2.1553585 4 2.9z" fill="#fdd7ad"/><path id="Shape" d="m37.06 42.07c-.2766038.8823901-.4642052 1.7902472-.56 2.71-1.47 1.77-3.58 3.95-5.85 4.83-1.0599297.419892-2.2400703.419892-3.3 0-2.27-.88-4.39-3.07-5.85-4.84-.095926-.9131961-.2698952-1.8164976-.52-2.7z" fill="#f9c795"/><path id="Shape" d="m37.51 41.5c-2.54 3.22-6.34 7.64-10.16 6.11-2.55-1-4.91-3.7-6.37-5.54-.4-.52-.9-1.09-1.22-1.57l-2.56-8c0-.26.08-.52.13-.79.4219953-1.5687836.4219953-3.2212164 0-4.79l-1.08-.09.89-.37c10.28-4.38 13.86-12.25 13.86-12.46.0875089 2.5495879.7254259 5.0500863 1.87 7.33l6.32 5.31c.4927184.1608192.9977231.2812177 1.51.36-.4110051 1.5431011-.4110051 3.1668989 0 4.71.62 3.19-.32 6.04-3.19 9.79z" fill="#fdd7ad"/><path id="Shape" d="m15.27 28.18c-.4833909-.0053212-.8937648-.3556706-.9748316-.8322451-.0810668-.4765746.1903873-.942905.6448316-1.1077549.58-.2 1.17-.44 1.75-.69 9.7-4.12 13.15-11.38 13.31-11.81.071797-.5522847.5777153-.941797 1.13-.87s.941797.5777153.87 1.13c.0909911 2.321071.6594887 4.5984655 1.67 6.69l6 5c1.0938426.3034186 2.2249135.451535 3.36.44.5522847 0 1 .4477153 1 1s-.4477153 1-1 1c-.8388721.0320079-1.6789231-.0115007-2.51-.13-.6933762-.0730701-1.3694968-.2623838-2-.56-6.86-5.83-6.41-5.44-6.52-5.64-.7611981-1.4718569-1.3099868-3.0441535-1.63-4.67-3.221563 4.5875099-7.6967422 8.1495999-12.89 10.26-.7111319.3299381-1.4508592.5943655-2.21.79z" fill="#805333"/><path id="Shape" d="m54.7 15.57c-46.87 33.43-46.7 33.27-46.76 33.37-1.84743916-1.93908-3.40974511-4.1310222-4.64-6.51 46.87-33.43 46.7-33.27 46.76-33.37 1.8474392 1.93908 3.4097451 4.1310222 4.64 6.51z" fill="#e64c3c"/></g></svg>