<svg height="512" viewBox="0 0 58 58" width="512" xmlns="http://www.w3.org/2000/svg"><g id="087---Account-Blocked" fill="none"><circle id="Oval" cx="29" cy="29" fill="#2c3e50" r="29"/><path id="Shape" d="m45.79 52.64c-10.0548069 7.1397216-23.5251931 7.1397216-33.58 0l8.21-3.14c1.5532909-.5898365 2.5802221-2.0784887 2.58-3.74 0-1.82.18-3.07-.75-4.36l-4.14-7.16c-.0939662-.7427488-.130741-1.4916182-.11-2.24h-1c-1.6568542 0-3-1.3431458-3-3v-3c.0009811-1.2038406.7214852-2.2905024 1.83-2.76-2.52-7.56.49-16.84 8.59-18.1 5.21-.81 12.12 1.45 13.75 6.63.43 1.12-.31.22 1.32 1.1l3.51 7.81c-.0518409.7830532-.1756974 1.559667-.37 2.32l-.22.35c.9792055.5214045 1.5907397 1.5406283 1.59 2.65v3c0 1.6568542-1.3431458 3-3 3h-1v.39c.1562707 3.221755-1.205731 6.3306719-3.68 8.4-.8603666.756784-1.3433158 1.8543958-1.32 3v2c-.0002221 1.6615113 1.0267091 3.1501635 2.58 3.74z" fill="#f0c419"/><path id="Shape" d="m52.13 11.52-40.61 40.61c-2.14375236-1.6035455-4.04645451-3.5062476-5.65-5.65l40.61-40.61c2.1437524 1.60354549 4.0464545 3.50624764 5.65 5.65z" fill="#e64c3c"/></g></svg>