<svg height="512" viewBox="0 0 59 58" width="512" xmlns="http://www.w3.org/2000/svg"><g id="030---Male-User-Account-Rating" fill="none"><circle id="Oval" cx="29" cy="29" fill="#3d324c" r="29"/><path id="Shape" d="m15.32 24c-.8435909-2.273544-1.2900922-4.6751797-1.32-7.1 0-6.6 6.2-12.9 13.71-12.9s10.44 5.1 10.44 5.1h.32s6.53.3 6.53 8.7c-.0100465 2.2100266-.5629177 4.3837377-1.61 6.33l-2.39 1.87h-24z" fill="#805333"/><path id="Shape" d="m18.06 24c-.6832416-2.3055355-1.0400441-4.6954388-1.06-7.1 0-6.6 5-12.9 11.06-12.9 3.5366363.0021108 6.7799829 1.96660817 8.42 5.1h.25s5.27.3 5.27 8.7c-.0008023 2.1762021-.4430535 4.3296253-1.3 6.33l-1.93 1.87h-19.35z" fill="#a56a43"/><path id="Shape" d="m35 40 3 12-3 1.27c-6.2072344 1.5400752-12.7693018.626687-18.32-2.55 1.5106912-1.1554591 2.953112-2.3975437 4.32-3.72v-8z" fill="#fdd7ad"/><path id="Shape" d="m35 40v3.88l-3 4.71c-.71.26-1 .21-4.73.21-3.23 0-3.4-2.76-6.3-5.68v-4.12z" fill="#f9c795"/><path id="Shape" d="m42.56 32.23c.7228076-.9172105 1.1732697-2.0191101 1.3-3.18.36-1.75.59-5.33-1.18-5.06-1.1298259-.1296538-2.1543248.672128-2.3 1.8 0 .1.48 0-22.91-.23 0 0-.09-1.57-2.15-1.57-1.78-.27-1.53 3.32-1.18 5.06.1963891 2.220622 1.6337162 4.1383496 3.71 4.95h22.15z" fill="#f9c795"/><path id="Shape" d="m40.12 38c0-.63-.06-6.32-.06-7 .0175971-1.0102216.1416154-2.0157755.37-3 0-1.13 0-2.15-.09-2.93-.6-9.07-3.82-10.87-3.82-10.87-2.94 4.8-9.79 5.4-9.79 5.4h-5.22c-2.35 0-4 .94-4.12 3.09-.1 1.87.36 6.21.36 6.31.73 4.22-1.35 7.16 2.74 10.83 3.28 3 3.37 6.17 6.81 6.17 3.12 0 3.92.09 4.73-.21z" fill="#fdd7ad"/><path id="Shape" d="m55.71 46.32-11.71 11.75-11.8-11.75c-1.827206-1.8357637-2.6283527-4.4563369-2.14-7 .5648054-2.8213836 2.6351997-5.103684 5.3883772-5.9398807 2.7531774-.8361966 5.7431366-.0908297 7.7816228 1.9398807l.77.68.73-.73c2.0411886-2.0237538 5.0280763-2.7645838 7.7783957-1.9292552 2.7503193.8353286 4.8206841 3.1121502 5.3916043 5.9292552.4968262 2.5684703-.3253196 5.215104-2.19 7.05z" fill="#df4d60"/><path id="Shape" d="m57.86 39.29c-.3011855 1.5181024-1.0500062 2.9112571-2.15 4l-11.71 11.78-11.8-11.75c-1.0933871-1.0922304-1.8381444-2.4843002-2.14-4 .5648054-2.8213836 2.6351997-5.103684 5.3883772-5.9398807 2.7531774-.8361966 5.7431366-.0908297 7.7816228 1.9398807l.77.68.73-.73c2.0457631-2.0017336 5.0216617-2.725908 7.758444-1.8879898 2.7367822.8379181 4.7971446 3.1040398 5.371556 5.9079898z" fill="#ff5364"/><circle id="Oval" cx="38" cy="39" fill="#fb7b76" r="4"/></g></svg>