<svg id="Capa_1" enable-background="new 0 0 58 58" height="512" viewBox="0 0 58 58" width="512" xmlns="http://www.w3.org/2000/svg"><path id="Shape" d="m29 38.3c.1-1 .6-1.9 1.3-2.5 2.5-2.1 3.9-5.2 3.7-8.4 0-.1 0-.3 0-.4h1c1.7 0 3-1.3 3-3v-3c0-1.1-.6-2.1-1.6-2.6l.2-.4c1-4.1.1-8.9-3.8-10.4-.7-.3-.3.1-.6-.8-1.3-3.9-5.8-6.8-12-6.8-6.5 0-11.2 5.3-11.2 12.7 0 1.9.3 3.8.8 5.6-1.1.4-1.8 1.5-1.8 2.7v3c0 1.7 1.3 3 3 3h1v.4c-.2 3.2 1.2 6.3 3.7 8.4.9.8 1.3 1.9 1.3 3v2c0 1.7-1 3.2-2.6 3.7l-9.8 3.7c-2.7 1.1-4.6 3.8-4.6 6.8v3h46z" fill="#955ba5"/><path d="m58 51c0 1.9-.7 3.6-2.1 4.9-1.3 1.4-3 2.1-4.9 2.1h-25c-2.9 0-5.5-2.1-5.9-5-.5-2.9 1.2-5.7 4.1-6.7-.5-2.6.6-5.3 2.7-6.9 2.2-1.6 5.1-1.8 7.4-.6.8-3.3 3.3-5.8 6.5-6.7 3.2-.8 6.7.2 8.9 2.7s2.9 6 1.8 9.2c3.7.2 6.5 3.3 6.5 7z" fill="#ecf0f1"/><g fill="#d1d4d1"><path d="m51 58h-25c-1.8 0-3.4-.8-4.6-2.1s-1.6-3.1-1.3-4.9c.5 2.9 3 5 5.9 5h25c3.5 0 6.4-2.6 6.9-6 .3 2-.3 4-1.6 5.6-1.3 1.5-3.3 2.4-5.3 2.4z"/><path d="m50.2 47.5c-.4 0-.7-.2-.9-.6s-.1-.8.1-1.1c2.1-2.8 2.2-6.7 0-9.6-2.1-2.9-5.9-4-9.2-2.7-3.3 1.2-5.5 4.5-5.2 8.1 0 .6-.4 1-1 1s-1-.4-1-1c-.3-4.4 2.4-8.5 6.6-10s8.8-.1 11.4 3.4 2.6 8.4 0 11.9c-.2.4-.5.6-.8.6z"/></g></svg>