<svg height="512" viewBox="0 0 58 58" width="512" xmlns="http://www.w3.org/2000/svg"><g id="021---Male-User-Logged-In" fill="none"><path id="Shape" d="m38.66 56.35c-12.7725699 4.5098822-26.9658164-.4227989-34.18860164-11.8818107-7.22278521-11.4590119-5.55096359-26.3916809 4.02707323-35.96971771 9.57803681-9.57803682 24.51070581-11.24985844 35.96971771-4.02707323 11.4590118 7.22278524 16.3916929 21.41603174 11.8818107 34.18860164z" fill="#3d324c"/><path id="Shape" d="m15.32 24c-.8435909-2.273544-1.2900922-4.6751797-1.32-7.1 0-6.6 6.2-12.9 13.71-12.9s10.44 5.1 10.44 5.1h.32s6.53.3 6.53 8.7c-.0100465 2.2100266-.5629177 4.3837377-1.61 6.33l-2.39 1.87h-24z" fill="#805333"/><path id="Shape" d="m18.06 24c-.6832416-2.3055355-1.0400441-4.6954388-1.06-7.1 0-6.6 5-12.9 11.06-12.9 3.5366363.0021108 6.7799829 1.96660817 8.42 5.1h.25s5.27.3 5.27 8.7c-.0008023 2.1762021-.4430535 4.3296253-1.3 6.33l-1.93 1.87h-19.35z" fill="#a56a43"/><path id="Shape" d="m35 40v13.27c-6.2072344 1.5400752-12.7693018.626687-18.32-2.55 1.5106912-1.1554591 2.953112-2.3975437 4.32-3.72v-8z" fill="#fdd7ad"/><path id="Shape" d="m35 40v3.88l-3 4.71c-.71.26-1 .21-4.73.21-3.23 0-3.4-2.76-6.3-5.68v-4.12z" fill="#f9c795"/><path id="Shape" d="m42.56 32.23c.7228076-.9172105 1.1732697-2.0191101 1.3-3.18.36-1.75.59-5.33-1.18-5.06-1.1298259-.1296538-2.1543248.672128-2.3 1.8 0 .1.48 0-22.91-.23 0 0-.09-1.57-2.15-1.57-1.78-.27-1.53 3.32-1.18 5.06.1963891 2.220622 1.6337162 4.1383496 3.71 4.95h24.15z" fill="#f9c795"/><path id="Shape" d="m40.12 33c-.1776761-1.6722605-.0728816-3.3624941.31-5 0-1.13 0-2.15-.09-2.93-.6-9.07-3.82-10.87-3.82-10.87-2.94 4.8-9.79 5.4-9.79 5.4h-5.22c-2.35 0-4 .94-4.12 3.09-.11 2 .44 7.06.35 6.22.74 4.45-1.33 7.26 2.75 10.92 3.28 3 3.37 6.17 6.81 6.17 3.12 0 3.92.09 4.73-.21z" fill="#fdd7ad"/><circle id="Oval" cx="45" cy="45" fill="#4fba6f" r="13"/><path id="Shape" d="m41.59 52.41-4-4c-.6795536-.7935206-.6338645-1.9763883.1048736-2.7151264s1.9216058-.7844272 2.7151264-.1048736l2.42 2.41 6.61-8.26c.7014826-.8215071 1.9285492-.9375153 2.7715595-.2620263.8430104.675489.9972772 1.8983349.3484405 2.7620263l-8 10c-.354578.4429794-.8806274.7144986-1.4471121.7469237-.5664847.032425-1.1200799-.1772964-1.5228879-.5769237z" fill="#fff"/></g></svg>