<svg height="512" viewBox="0 0 58 59" width="512" xmlns="http://www.w3.org/2000/svg"><g id="053---Male-User" fill="none"><circle id="Oval" cx="29" cy="29" fill="#d25627" r="29"/><path id="Shape" d="m44 29v3c0 1.6568542-1.3431458 3-3 3h-1v.39c.1562707 3.221755-1.205731 6.3306719-3.68 8.4-.8603666.756784-1.3433158 1.8543958-1.32 3v2c-.0002221 1.6615113 1.0267091 3.1501635 2.58 3.74l5.25 2c-8.6297673 4.6655955-19.0302327 4.6655955-27.66 0l5.25-2c1.5635989-.5936952 2.592749-2.0975309 2.58-3.77v-2c.0233158-1.1456042-.4596334-2.243216-1.32-3-2.4656415-2.0628337-3.8267397-5.1585925-3.68-8.37 0-.13 0-.27 0-.39h-1c-1.6568542 0-3-1.3431458-3-3v-3c0-1.6568542 1.3431458-3 3-3-1.8474528-2.6476899-2.8893483-5.7733764-3-9 0-5.09 0-5.81 2-9 0 0 2 4 6 3s5-2 11-2c5 0 8 2 8 6 2.9207 3.0850425 2.9207 7.9149575 0 11 1.6568542 0 3 1.3431458 3 3z" fill="#f0c419"/></g></svg>