<svg height="512" viewBox="0 0 52 58" width="512" xmlns="http://www.w3.org/2000/svg"><g id="003---Male-User" fill="none"><path id="Shape" d="m18 36.32v6.68c-7.67 7.38-6.77 3.7-13.18 7.43-.82.46-4.65 2.57-4.76 2.57 10.57 6.62 41.33 6.59 51.86 0 .1 0-.31-.05-4.75-2.59-6.4-3.71-5.52-.05-13.17-7.41v-6.68z" fill="#fdd7ad"/><path id="Shape" d="m51.93 53c-4.7 2.94-13.08 4.24-18.61 4.69 5.18-1.61 6.37-8 6.61-10.08.6928161.3369715 1.4252155.5855841 2.18.74 3.17.58 5.79 2.65 9.82 4.65z" fill="#2fa8cc"/><path id="Shape" d="m18.68 57.71c-5.53-.45-13.91-1.71-18.61-4.71.88-.44 3.54-1.9 4.75-2.59 4.39-2.56 4.54-1.52 7.25-2.8.24 2.06 1.43 8.49 6.61 10.1z" fill="#2fa8cc"/><path id="Shape" d="m34 35v4c-2.9 2.94-3.07 5.72-6.3 5.72h-3.4c-3.23 0-3.4-2.78-6.3-5.72v-4z" fill="#f9c795"/><path id="Shape" d="m42 12c.0710984 2.7892098-.5326957 5.5543124-1.76 8.06l-2.24 1.94-26.92-1c-1.62-2.78-1.81-8-.08-12 3.15-7.35 11.82-4.79 15.37-5 3.89-.24 4.51-2.86 4.61-3.73.0119169-.08953394.0185949-.17968741.02-.27 0 0 11 3 11 12z" fill="#f29c1f"/><path id="Shape" d="m39.78 12c.0695691 2.763971-.4485214 5.5112142-1.52 8.06l-1.87 1.88c-.11.11 1.34.11-23.27-.93-1.4-2.78-1.56-8-.07-12 2.73-7.37 10.28-4.82 13.32-5 3.89-.24 4.51-2.86 4.61-3.73 2.17.86 8.8 4.19 8.8 11.72z" fill="#f0c419"/><path id="Shape" d="m37.87 20.71c.469507-.491412 1.1315967-.7511267 1.81-.71 1.77-.27 1.53 3.3 1.18 5.06-.2117094 2.1960681-1.6489904 4.0827417-3.71 4.87h-22.3c-2.0580884-.7911584-3.4937549-2.6757125-3.71-4.87-.35-1.76-.58-5.32 1.18-5.06.6800554-.0578588 1.3474487.2090986 1.8.72h23.75z" fill="#f9c795"/><path id="Shape" d="m14.12 20.71c.26-2.95 1.12-7.71 3.88-7.71 4 0 4 1 8 1s4-1 8-1c2.75 0 3.61 4.73 3.88 7.68 0 1.49-.83 4.45-.83 6.35 0 3.12.83 5.74-2.55 8.81s-3.39 6.16-6.8 6.16h-3.4c-3.41 0-3.41-3.08-6.81-6.17s-2.55-5.68-2.55-8.83c0-2.14-.82-4.38-.82-6.29z" fill="#fdd7ad"/></g></svg>