<svg id="Capa_1" enable-background="new 0 0 46 58" height="512" viewBox="0 0 46 58" width="512" xmlns="http://www.w3.org/2000/svg"><path id="Shape" d="m8 21v3c0 1.7 1.3 3 3 3h1v.4c-.2 3.2 1.2 6.3 3.7 8.4.9.8 1.3 1.9 1.3 3v2c0 1.7-1 3.2-2.6 3.7l-9.8 3.7c-2.7 1.1-4.6 3.8-4.6 6.8v3h46v-3c0-3-1.9-5.7-4.7-6.8l-9.8-3.7c-1.5-.6-2.5-2.1-2.5-3.7v-2c0-1.1.5-2.2 1.3-3 2.5-2.1 3.8-5.2 3.7-8.4 0-.1 0-.3 0-.4h1c1.7 0 3-1.3 3-3v-3c0-1.7-1.3-3-3-3 2.9-3.1 2.9-7.9 0-11 0-4-3-6-8-6-6 0-7 1-11 2s-6-3-6-3c-2 3-2 4-2 9 .1 3.2 1.2 6.4 3 9-1.7 0-3 1.3-3 3z" fill="#f3d55b"/></svg>