<svg id="Capa_1" enable-background="new 0 0 59 58" height="512" viewBox="0 0 59 58" width="512" xmlns="http://www.w3.org/2000/svg"><path id="Shape" d="m43.7 49.7c1.5 1.4 2.3 3.3 2.3 5.3v3h-46v-3c0-3 1.9-5.7 4.7-6.8l9.8-3.7c1.6-.6 2.6-2.1 2.6-3.7v-2c0-1.1-.5-2.2-1.3-3-2.5-2.1-3.8-5.2-3.7-8.4 0-.1 0-.3 0-.4h-1c-1.7 0-3-1.3-3-3v-3c0-1.2.7-2.3 1.8-2.8-.6-1.8-.9-3.6-.9-5.5 0-7.4 4.7-12.7 11.2-12.7 5.3 0 10.9 2.3 12.1 7.4 3.2.7 5.7 5 4.3 10.6l-.2.4c1 .5 1.6 1.5 1.6 2.6v3c0 1.7-1.3 3-3 3h-1v.4c.2 3.2-1.2 6.3-3.7 8.4-.9.8-1.3 1.9-1.3 3v2c0 1.7 1 3.2 2.6 3.7 3.7 1.4 1.1.3 12.1 5.2z" fill="#955ba5"/><path d="m53.7 48.2c-.3.7-.6 1.1-.2 1.6l1.6 2.4c.3.4.2.9-.1 1.2l-1.6 1.6c-.3.3-.8.4-1.2.1l-2.4-1.6c-.3-.2-.6-.2-.9-.1-.7.3-1.2.4-1.3 1l-.6 2.9c-.1.4-.5.7-.9.8h-2.2c-.4 0-.8-.3-.9-.8l-.6-2.8c-.1-.3-.3-.6-.6-.7-.7-.3-1.1-.6-1.6-.2l-2.4 1.6c-.4.3-.9.2-1.2-.1l-1.6-1.7c-.3-.3-.4-.8-.1-1.2l1.6-2.4c.2-.3.2-.6.1-.9-.3-.7-.4-1.2-1-1.3l-2.8-.6c-.4-.1-.7-.5-.8-.9v-2.2c0-.4.3-.8.8-.9l2.8-.6c.3-.1.6-.3.7-.6.3-.7.6-1.1.2-1.6l-1.6-2.4c-.3-.4-.2-.9.1-1.2l1.6-1.6c.3-.3.8-.4 1.2-.1l2.4 1.6c.3.2.6.2.9.1.7-.3 1.2-.4 1.3-1l.6-2.8c.1-.4.5-.7.9-.8h2.2c.4 0 .8.3.9.8l.6 2.8c.1.3.3.6.6.7.7.3 1.1.6 1.6.2l2.4-1.6c.4-.3.9-.2 1.2.1l1.6 1.5c.3.3.4.8.1 1.2l-1.6 2.4c-.2.3-.2.6-.1.9.3.7.4 1.2 1 1.3l2.8.6c.4.1.7.5.8.9v2.2c0 .4-.3.8-.8.9l-2.8.6c-.3.1-.6.4-.7.7z" fill="#547580"/><circle id="Oval" cx="45" cy="45" fill="#2c3e50" r="3"/></svg>