<svg height="512" viewBox="0 0 59 59" width="512" xmlns="http://www.w3.org/2000/svg"><g id="029---Male-User-Account-Suspended" fill="none"><circle id="Oval" cx="29" cy="29" fill="#3d324c" r="29"/><path id="Shape" d="m15.32 24c-.8435909-2.273544-1.2900922-4.6751797-1.32-7.1 0-6.6 6.2-12.9 13.71-12.9s10.44 5.1 10.44 5.1h.32s6.53.3 6.53 8.7c-.0100465 2.2100266-.5629177 4.3837377-1.61 6.33l-2.39 1.87h-24z" fill="#805333"/><path id="Shape" d="m18.06 24c-.6832416-2.3055355-1.0400441-4.6954388-1.06-7.1 0-6.6 5-12.9 11.06-12.9 3.5366363.0021108 6.7799829 1.96660817 8.42 5.1h.25s5.27.3 5.27 8.7c-.0008023 2.1762021-.4430535 4.3296253-1.3 6.33l-1.93 1.87h-19.35z" fill="#a56a43"/><path id="Shape" d="m35 40 3 12-3 1.27c-6.2072344 1.5400752-12.7693018.626687-18.32-2.55 1.5106912-1.1554591 2.953112-2.3975437 4.32-3.72v-8z" fill="#fdd7ad"/><path id="Shape" d="m35 40v3.88l-3 4.71c-.71.26-1 .21-4.73.21-3.23 0-3.4-2.76-6.3-5.68v-4.12z" fill="#f9c795"/><path id="Shape" d="m42.56 32.23c.7228076-.9172105 1.1732697-2.0191101 1.3-3.18.36-1.75.59-5.33-1.18-5.06-1.1298259-.1296538-2.1543248.672128-2.3 1.8 0 .1.48 0-22.91-.23 0 0-.09-1.57-2.15-1.57-1.78-.27-1.53 3.32-1.18 5.06.1963891 2.220622 1.6337162 4.1383496 3.71 4.95h24.15z" fill="#f9c795"/><path id="Shape" d="m40.12 38c0-.63-.06-6.32-.06-7 .0175971-1.0102216.1416154-2.0157755.37-3 0-1.13 0-2.15-.09-2.93-.6-9.07-3.82-10.87-3.82-10.87-2.94 4.8-9.79 5.4-9.79 5.4h-5.22c-2.35 0-4 .94-4.12 3.09-.1 1.87.36 6.21.36 6.31.73 4.22-1.35 7.16 2.74 10.83 3.28 3 3.37 6.17 6.81 6.17 3.12 0 3.92.09 4.73-.21z" fill="#fdd7ad"/><circle id="Oval" cx="45" cy="45" fill="#35495e" r="13"/><g fill="#547580"><path id="Shape" d="m45 36c-.5522847 0-1-.4477153-1-1v-3c0-.5522847.4477153-1 1-1s1 .4477153 1 1v3c0 .5522847-.4477153 1-1 1z"/><path id="Shape" d="m45 59c-.5522847 0-1-.4477153-1-1v-3c0-.5522847.4477153-1 1-1s1 .4477153 1 1v3c0 .5522847-.4477153 1-1 1z"/><path id="Shape" d="m58 46h-3c-.5522847 0-1-.4477153-1-1s.4477153-1 1-1h3c.5522847 0 1 .4477153 1 1s-.4477153 1-1 1z"/><path id="Shape" d="m35 46h-3c-.5522847 0-1-.4477153-1-1s.4477153-1 1-1h3c.5522847 0 1 .4477153 1 1s-.4477153 1-1 1z"/><path id="Shape" d="m39.5 36.47c-.3586848.001424-.690659-.1893658-.87-.5l-1-1.73c-.2761424-.4804877-.1104877-1.0938576.37-1.37s1.0938576-.1104877 1.37.37l1 1.73c.1789919.3100165.1786145.6920638-.0009896 1.001726-.1796041.3096623-.5110351.4996985-.8690104.498274z"/><path id="Shape" d="m35.47 40.5c-.35 0-.37-.06-2.23-1.13-.4804877-.2761424-.6461424-.8895123-.37-1.37s.8895123-.6461424 1.37-.37l1.73 1c.3962127.2245181.5906881.688381.4730546 1.1283301-.1176334.4399491-.5176617.7448538-.9730546.7416699z"/><path id="Shape" d="m33.74 52.5c-.4553929.0031839-.8554212-.3017208-.9730546-.7416699-.1176335-.4399491.0768419-.903812.4730546-1.1283301l1.73-1c.3108211-.1786328.693331-.1778753 1.0034421.0019873.3101111.1798625.50071.5115046.5.87-.00071.3584953-.192621.6893799-.5034421.8680127-1.85 1.07-1.86 1.13-2.23 1.13z"/><path id="Shape" d="m38.5 57.26c-.3579753.0014245-.6894063-.1886117-.8690104-.498274-.1796041-.3096622-.1799815-.6917095-.0009896-1.001726l1-1.73c.1786328-.3108211.5095174-.5027321.8680127-.5034421s.6901375.1898889.87.5.1806201.692621.0019873 1.0034421l-1 1.73c-.179341.3106342-.5113152.501424-.87.5z"/><path id="Shape" d="m51.5 57.26c-.3586848.001424-.690659-.1893658-.87-.5l-1-1.73c-.1786328-.3108211-.1778752-.693331.0019873-1.0034421s.5115047-.50071.87-.5.6893799.192621.8680127.5034421l1 1.73c.1789919.3100165.1786145.6920638-.0009896 1.001726-.1796041.3096623-.5110351.4996985-.8690104.498274z"/><path id="Shape" d="m56.26 52.5c-.36 0-.37-.06-2.23-1.13-.3108211-.1786328-.5027321-.5095174-.5034421-.8680127s.1898889-.6901375.5-.87.692621-.1806201 1.0034421-.0019873l1.73 1c.3962127.2245181.5906881.688381.4730546 1.1283301-.1176334.4399491-.5176617.7448538-.9730546.7416699z"/><path id="Shape" d="m54.53 40.5c-.4553929.0031839-.8554212-.3017208-.9730546-.7416699-.1176335-.4399491.0768419-.903812.4730546-1.1283301l1.73-1c.4804877-.2761424 1.0938576-.1104877 1.37.37.2761423.4804877.1104877 1.0938576-.37 1.37-1.86 1.07-1.87 1.13-2.23 1.13z"/><path id="Shape" d="m50.5 36.47c-.3579753.0014245-.6894063-.1886117-.8690104-.498274-.1796041-.3096622-.1799815-.6917095-.0009896-1.001726l1-1.73c.1786328-.3108211.5095174-.5027321.8680127-.5034421s.6901375.1898889.87.5.1806201.692621.0019873 1.0034421l-1 1.73c-.179341.3106342-.5113152.501424-.87.5z"/></g><path id="Shape" d="m47 49c-.3345191-.0017306-.6460165-.1706148-.83-.45l-2-3c-.24-.35-.17-.13-.17-6.55 0-.5522847.4477153-1 1-1s1 .4477153 1 1v5.7l1.83 2.75c.2017791.3063872.2195909.6986641.0464086 1.0220769-.1731823.3234127-.5095512.5260316-.8764086.5279231z" fill="#95a5a5"/><path id="Shape" d="m45 59c-7.7319865 0-14-6.2680135-14-14s6.2680135-14 14-14 14 6.2680135 14 14c0 3.7130309-1.4749958 7.2739856-4.1005051 9.8994949s-6.186464 4.1005051-9.8994949 4.1005051zm0-26c-6.627417 0-12 5.372583-12 12s5.372583 12 12 12 12-5.372583 12-12-5.372583-12-12-12z" fill="#95a5a5"/></g></svg>