<svg id="Capa_1" enable-background="new 0 0 58 58" height="512" viewBox="0 0 58 58" width="512" xmlns="http://www.w3.org/2000/svg"><path id="Shape" d="m34 45.4-2.4-.9c-1.6-.6-2.6-2.1-2.6-3.7v-2c0-1.1.5-2.2 1.3-3 2.5-2.1 3.8-5.2 3.7-8.4 0-.1 0-.3 0-.4h1c1.7 0 3-1.3 3-3v-3c0-1.1-.6-2.1-1.6-2.6l.2-.4c1.4-5.7-1.2-9.9-4.3-10.6-1.2-5.1-6.8-7.4-12.1-7.4-6.5 0-11.2 5.3-11.2 12.7 0 1.9.3 3.8.8 5.6-1.1.4-1.8 1.5-1.8 2.7v3c0 1.7 1.3 3 3 3h1v.4c-.2 3.2 1.2 6.3 3.7 8.4.9.8 1.3 1.9 1.3 3v2c0 1.7-1 3.2-2.6 3.7l-9.8 3.7c-2.7 1.1-4.6 3.8-4.6 6.8v3h46z" fill="#955ba5"/><path id="Rectangle-path" d="m38 37h16c2.2 0 4 1.8 4 4v13c0 2.2-1.8 4-4 4h-16c-2.2 0-4-1.8-4-4v-13c0-2.2 1.8-4 4-4z" fill="#84b5cb"/><path d="m40 37h12c2.2 0 4 1.8 4 4v13c0 2.2-1.8 4-4 4h-12c-2.2 0-4-1.8-4-4v-13c0-2.2 1.8-4 4-4z" fill="#9fc9d3"/><path d="m38 37v-4c0-4.4 3.6-8 8-8s8 3.6 8 8v4h-4v-4c0-2.2-1.8-4-4-4s-4 1.8-4 4v4z" fill="#547580"/><path d="m48.8 51.2c.3.6.2 1.3-.2 1.9s-1 .9-1.7.9h-2c-.7 0-1.3-.3-1.7-.9s-.4-1.3-.2-1.9l1.2-3.7c-1.1-.7-1.6-2.1-1.2-3.4s1.6-2.1 3-2.1c1.3 0 2.5.9 2.9 2.1s-.1 2.6-1.2 3.4z" fill="#2c3e50"/></svg>