<svg height="512" viewBox="0 0 58 58" width="512" xmlns="http://www.w3.org/2000/svg"><g id="052---Female-User" fill="none"><circle id="Oval" cx="29" cy="29" fill="#802d40" r="29"/><path id="Shape" d="m22 36-1-8h-3l-1.92 1.85c-3.24 1.45-7.51 5.27-4.89 15.15 0 0 7 .78 10-5.9z" fill="#df4d60"/><path id="Shape" d="m36 33v-6h3l3.12 2.78c3.27 1.39 7.74 5.22 5.07 15.22-4.3636754.3495974-8.4566112-2.1489502-10.14-6.19z" fill="#df4d60"/><path id="Shape" d="m34.35 48.26c-.6275607-.5476112-.9914042-1.3371515-1-2.17-.0456407-1.7591156.3279841-3.5038404 1.09-5.09 3.88-2.55 5.56-5.95 5.56-10.58 0-.14 0-.29 0-.42h1c1.6568542 0 3-1.3431458 3-3v-3c.0022719-1.5963297-1.2459405-2.9148639-2.84-3 2.76-9.35-1.81-14.8-6.16-15.87-.3662331-.09107712-.7426421-.13476745-1.12-.13-3.88 0-4.88 1-4.88 1-.67-.69-4.09-1.26-5.95-.9-4.4.81-9 6.55-6.21 15.9-1.5940595.0851361-2.8422719 1.4036703-2.84 3v3c0 1.6568542 1.3431458 3 3 3h1v.42c0 4.54 1.63 8 5.56 10.55.7770438 1.5926693 1.1611014 3.3483615 1.12 5.12-.0085958.8328485-.3724393 1.6223888-1 2.17-4.63 4-6.17 3.23-11.32 4.47 10.0026235 7.0267172 23.3373765 7.0267172 33.34 0-5.15-1.24-6.7-.45-11.35-4.47z" fill="#ff5364"/></g></svg>