<svg height="512" viewBox="0 0 52 58" width="512" xmlns="http://www.w3.org/2000/svg"><g id="016---Female-User" fill="none" transform="translate(0 -1)"><path id="Shape" d="m51.88 54c-2.3977636 1.410854-5.0082404 2.4239757-7.73 3-10.57 2.66-25.78 2.68-36.42 0-5.81-1.45-7.56-3-7.73-3 0 0 .88-4 4.88-4 7.22 0 11.32-3.14 13-4.88.3327216-.3335529.5288707-.7793465.55-1.25.0517801-1.6215103-.1506722-3.2411282-.6-4.8h16.11c-.470472 1.5310785-.6866742 3.1289482-.64 4.73.0174648.4872031.2215375.9490517.57 1.29 1.7 1.73 5.85 4.91 13.13 4.91 4 0 4.88 4 4.88 4z" fill="#fdd7ad"/><path id="Shape" d="m41.79 49.39c0 .19-2.95 1.63-3 8.65-2.5511011.426799-5.1258998.6973032-7.71.81 4.83-2.72 5.44-11.34 5.58-11.56 1.5855336.9721258 3.3179217 1.6812905 5.13 2.1z" fill="#f0c419"/><path id="Shape" d="m33.94 39.07c-.2849996.9114501-.4759942 1.849669-.57 2.8-1.47 1.77-3.58 3.94-5.84 4.82-1.0617851.4100556-2.2382149.4100556-3.3 0-2.27-.88-4.38-3.06-5.84-4.83-.0975575-.9432988-.2748582-1.8766366-.53-2.79z" fill="#f9c795"/><path id="Shape" d="m42.74 29c-2.74 15.05-12.89 19-12.89 19 2.72-5 5.94-16.92 5.94-27 0-8.9-3.92-9.88-8.28-10-.75 0-2.51 0-3.26 0-4.36.12-8.25 1.1-8.25 10 .0884747 6.634291 1.1290932 13.2215073 3.09 19.56.746086 2.5492276 1.6889177 5.0366984 2.82 7.44 0 0-10.17-3.95-12.91-19-2-11-1-15 0-19 1.15-4.52 5.63-9.35 10.35-9 2.31 0 5.28.74 6.42 2.73.21.35 0 .35.22 0 1.14-1.99 4.12-2.73 6.42-2.73 4.72-.36 9.2 4.47 10.33 9 .99 4 1.98 8 0 19z" fill="#805333"/><path id="Shape" d="m40.75 29c-2 12.64-8.67 17.45-10.74 18.66 3.11-6.45 5.78-17.3 5.78-26.66 0-8.9-3.92-9.88-8.28-10-.75 0-2.51 0-3.26 0-4.36.12-8.25 1.1-8.25 10 0 9.08 2.54 19.94 5.78 26.66-2.1-1.21-8.78-6.02-10.78-18.66-1.75-11-.87-15 0-19s4.38-9 8.75-9 5.66 2 6 2.74c.21.35 0 .35.22 0 .37-.74 1.73-2.74 6.03-2.74s7.89 5.05 8.75 9 1.75 8 0 19z" fill="#a56a43"/><path id="Shape" d="m20.67 58.85c-2.5693528-.153949-5.1292842-.4376442-7.67-.85-.07-6.9-2.94-8.52-3-8.62 1.8159729-.41633 3.5520271-1.1256129 5.14-2.1 0 0 .75 8.88 5.53 11.57z" fill="#f0c419"/><path id="Shape" d="m35.79 21c-.0956064 6.6296472-1.1326354 13.2120876-3.08 19.55-1.4020027 1.7037134-3.168836 3.0707025-5.17 4-3.1 1.24-6.24-1.54-8.47-4-1.9269901-6.3423085-2.9602709-12.9223211-3.07-19.55 0-10 5-10 9.91-10s9.88 0 9.88 10z" fill="#fdd7ad"/><path id="Shape" d="m35.79 21v1.71c-.37-7.71-4.11-8.6-8.25-8.69-.75 0-2.51 0-3.26 0-4.16.1-7.91 1-8.25 8.79 0-.11 0-1.44 0-1.81 0-10 5-10 9.91-10s9.85 0 9.85 10z" fill="#f9c795"/></g></svg>