<svg height="512" viewBox="0 0 59 59" width="512" xmlns="http://www.w3.org/2000/svg"><g id="039---Female-User-Account-Suspended" fill="none"><circle id="Oval" cx="29" cy="29" fill="#3d324c" r="29"/><path id="Shape" d="m44 41.34c-.0530926.3070392-.0765338.6184728-.07.93 0 1.93.16 4.41.28 6.6-1.9222172 1.463917-4.0436289 2.6458464-6.3 3.51l-16.9.3c-2.7803041-.9367039-5.3709755-2.3624198-7.65-4.21.6655083-1.2488866 1.115173-2.6012619 1.33-4 .5928406-4.0892893-.9599019-8.1959341-4.11-10.87-2.46717178-1.9114722-3.78411121-4.9528854-3.49-8.06.17-3.26 2.76-6.62 4.59-9.24 3.63-5.22 9.52-11.86 16.38-12.3h.26c.331554-.04870824.668446-.04870824 1 0 1.3840844.08060108 2.7408191.41978475 4 1 6.68 2.82 11.75 8.37 15.21 14.44 1.06 1.86 2.34 3.88 2.46 6 .16 2.78-2 5.22-3.41 7.46-1.58 2.63-3.17 5.43-3.58 8.44z" fill="#805333"/><path id="Shape" d="m42 41.34c-.16 1.24.19 7.64.26 8.88-1.3583456.8522813-2.7989199 1.5658682-4.3 2.13l-16.96.35c-2.1835909-.737957-4.2560969-1.7708455-6.16-3.07.8599736-1.6091028 1.4351194-3.3548394 1.7-5.16.5619382-3.9755866-.7446932-7.9877572-3.54-10.87-2.1858544-2.082639-3.29219584-5.0550098-3-8.06.14-3.26 2.39-6.62 4-9.24 3.13-5.21 8.22-11.83 14.16-12.3h.16c.0997521-.0099584.2002479-.0099584.3 0h.69c1.1989723.09914855 2.3655987.43927289 3.43 1 5.78 2.86 10.19 8.41 13.19 14.48.92 1.86 2 3.88 2.13 6 .14 2.78-1.74 5.22-3 7.46-1.5202211 2.5916121-2.5570504 5.4378104-3.06 8.4z" fill="#a56a43"/><path id="Shape" d="m41 51c-7.456006 4.061932-16.463994 4.061932-23.92 0 1.4822806-.721394 2.8340989-1.6845645 4-2.85.3327216-.3335529.5288707-.7793465.55-1.25.0517801-1.6215103-.1506722-3.2411282-.6-4.8h16.03c-.4681928 1.5315785-.6843441 3.1290719-.64 4.73.0276374.4780846.2347877.9281006.58 1.26 1.1638306 1.1838362 2.5153909 2.1670964 4 2.91z" fill="#fdd7ad"/><path id="Shape" d="m37.06 42.07c-.2849996.9114501-.4759942 1.849669-.57 2.8-1.47 1.77-3.58 3.94-5.84 4.82-1.0617851.4100556-2.2382149.4100556-3.3 0-2.27-.88-4.38-3.06-5.84-4.83-.0919886-.9425824-.2625821-1.8758294-.51-2.79z" fill="#f9c795"/><path id="Shape" d="m37.51 41.5c-2.54 3.22-6.34 7.64-10.16 6.11-2.55-1-4.91-3.69-6.37-5.54-2.53-3.24-4.48-6.3-3.65-10.35.4086911-1.570514.4086911-3.219486 0-4.79 5.81-.93 9.29-3.2 11.36-5.48 1.3944339-1.5486748 2.3778164-3.422603 2.86-5.45.14-.68.07-.8.09 0 .0052132 2.9647715 1.0691124 5.8302067 3 8.08 1.6052278 1.6352609 3.7233715 2.6696211 6 2.93-.4059557 1.543758-.4059557 3.166242 0 4.71.68 3.18-.26 6.03-3.13 9.78z" fill="#fdd7ad"/><path id="Shape" d="m40.61 27.53c-.1566621.6550188-.2338845 1.3265183-.23 2-4.5129196-.569595-8.186456-3.9033592-9.19-8.34-1.73 3.06-5.48 6.92-13.57 8.26-.0091006-.6738615-.092947-1.3446325-.25-2 6.2-1 9.51-3.65 11.27-6 1.4125072-1.5433096 2.413322-3.417688 2.91-5.45h.09c.0052132 2.9647715 1.0691124 5.8302067 3 8.08 1.4378572 1.9142049 3.5935551 3.15996 5.97 3.45z" fill="#f9c795"/><path id="Shape" d="m15.27 28.18c-.5522847.0276142-1.0223857-.3977153-1.05-.95-.0276142-.5522847.3977153-1.0223858.95-1.05 1.9-.19 1.84-.25 2-.26 13.4-2.18 13.52-11.51 13.47-10.52.0266663-.5326668.4666665-.9506671 1-.95.5522847 0 1 .4477153 1 1 0 6.54 3.61 10.73 10.4 10.73.5522847 0 1 .4477153 1 1s-.4477153 1-1 1c-6.4 0-10.39-3.19-11.85-8.55-1.74 3.09-5.53 7-13.74 8.29-.2.08-1.91.26-2.18.26z" fill="#805333"/><circle id="Oval" cx="45" cy="45" fill="#35495e" r="13"/><g fill="#547580"><path id="Shape" d="m45 36c-.5522847 0-1-.4477153-1-1v-3c0-.5522847.4477153-1 1-1s1 .4477153 1 1v3c0 .5522847-.4477153 1-1 1z"/><path id="Shape" d="m45 59c-.5522847 0-1-.4477153-1-1v-3c0-.5522847.4477153-1 1-1s1 .4477153 1 1v3c0 .5522847-.4477153 1-1 1z"/><path id="Shape" d="m58 46h-3c-.5522847 0-1-.4477153-1-1s.4477153-1 1-1h3c.5522847 0 1 .4477153 1 1s-.4477153 1-1 1z"/><path id="Shape" d="m35 46h-3c-.5522847 0-1-.4477153-1-1s.4477153-1 1-1h3c.5522847 0 1 .4477153 1 1s-.4477153 1-1 1z"/><path id="Shape" d="m39.5 36.47c-.3586848.001424-.690659-.1893658-.87-.5l-1-1.73c-.2761424-.4804877-.1104877-1.0938576.37-1.37s1.0938576-.1104877 1.37.37l1 1.73c.1789919.3100165.1786145.6920638-.0009896 1.001726-.1796041.3096623-.5110351.4996985-.8690104.498274z"/><path id="Shape" d="m35.47 40.5c-.35 0-.37-.06-2.23-1.13-.4804877-.2761424-.6461424-.8895123-.37-1.37s.8895123-.6461424 1.37-.37l1.73 1c.3962127.2245181.5906881.688381.4730546 1.1283301-.1176334.4399491-.5176617.7448538-.9730546.7416699z"/><path id="Shape" d="m33.74 52.5c-.4553929.0031839-.8554212-.3017208-.9730546-.7416699-.1176335-.4399491.0768419-.903812.4730546-1.1283301l1.73-1c.3108211-.1786328.693331-.1778753 1.0034421.0019873.3101111.1798625.50071.5115046.5.87-.00071.3584953-.192621.6893799-.5034421.8680127-1.85 1.07-1.86 1.13-2.23 1.13z"/><path id="Shape" d="m38.5 57.26c-.3579753.0014245-.6894063-.1886117-.8690104-.498274-.1796041-.3096622-.1799815-.6917095-.0009896-1.001726l1-1.73c.1786328-.3108211.5095174-.5027321.8680127-.5034421s.6901375.1898889.87.5.1806201.692621.0019873 1.0034421l-1 1.73c-.179341.3106342-.5113152.501424-.87.5z"/><path id="Shape" d="m51.5 57.26c-.3586848.001424-.690659-.1893658-.87-.5l-1-1.73c-.1786328-.3108211-.1778752-.693331.0019873-1.0034421s.5115047-.50071.87-.5.6893799.192621.8680127.5034421l1 1.73c.1789919.3100165.1786145.6920638-.0009896 1.001726-.1796041.3096623-.5110351.4996985-.8690104.498274z"/><path id="Shape" d="m56.26 52.5c-.36 0-.37-.06-2.23-1.13-.3108211-.1786328-.5027321-.5095174-.5034421-.8680127s.1898889-.6901375.5-.87.692621-.1806201 1.0034421-.0019873l1.73 1c.3962127.2245181.5906881.688381.4730546 1.1283301-.1176334.4399491-.5176617.7448538-.9730546.7416699z"/><path id="Shape" d="m54.53 40.5c-.4553929.0031839-.8554212-.3017208-.9730546-.7416699-.1176335-.4399491.0768419-.903812.4730546-1.1283301l1.73-1c.4804877-.2761424 1.0938576-.1104877 1.37.37.2761423.4804877.1104877 1.0938576-.37 1.37-1.86 1.07-1.87 1.13-2.23 1.13z"/><path id="Shape" d="m50.5 36.47c-.3579753.0014245-.6894063-.1886117-.8690104-.498274-.1796041-.3096622-.1799815-.6917095-.0009896-1.001726l1-1.73c.1786328-.3108211.5095174-.5027321.8680127-.5034421s.6901375.1898889.87.5.1806201.692621.0019873 1.0034421l-1 1.73c-.179341.3106342-.5113152.501424-.87.5z"/></g><path id="Shape" d="m47 49c-.3345191-.0017306-.6460165-.1706148-.83-.45l-2-3c-.24-.35-.17-.13-.17-6.55 0-.5522847.4477153-1 1-1s1 .4477153 1 1v5.7l1.83 2.75c.2017791.3063872.2195909.6986641.0464086 1.0220769-.1731823.3234127-.5095512.5260316-.8764086.5279231z" fill="#95a5a5"/><path id="Shape" d="m45 59c-7.7319865 0-14-6.2680135-14-14s6.2680135-14 14-14 14 6.2680135 14 14c0 3.7130309-1.4749958 7.2739856-4.1005051 9.8994949s-6.186464 4.1005051-9.8994949 4.1005051zm0-26c-6.627417 0-12 5.372583-12 12s5.372583 12 12 12 12-5.372583 12-12-5.372583-12-12-12z" fill="#95a5a5"/></g></svg>