<svg height="512" viewBox="0 0 52 58" width="512" xmlns="http://www.w3.org/2000/svg"><g id="014---Female-User" fill="none"><path id="Shape" d="m15.36 46.16c-8.19-1.42-11.48-4.16-11.48-4.16 3 0 5-5 2-7s-4-4-3-8 5-4 3-10 3-7 4-9-1-8 7-8 9 4 9 4 1-4 9-4 6 6 7 8 6 3 4 9 2 6 3 10 0 6-3 8-1 7 2 7c0 0-3.27 2.72-11.42 4.16z" fill="#c03a2b"/><path id="Shape" d="m16.48 46.16c-7.31-1.42-10.25-4.16-10.25-4.16 2.68 0 4.46-5 1.78-7s-3.57-4-2.68-8 4.47-4 2.67-10 2.68-7 3.58-9-.9-8 6.25-8 8 4 8 4 .89-4 8-4 5.36 6 6.25 8 5.36 3 3.58 9 1.78 6 2.68 10 0 6-2.68 8-.9 7 1.78 7c0 0-2.92 2.72-10.2 4.16z" fill="#e64c3c"/><path id="Shape" d="m51.88 53c-2.3977636 1.410854-5.0082404 2.4239757-7.73 3-10.57 2.66-25.78 2.68-36.42 0-5.81-1.45-7.56-3-7.73-3 0 0 .88-4 4.88-4 7.22 0 11.32-3.14 13-4.88.3327216-.3335529.5288707-.7793465.55-1.25.0517801-1.6215103-.1506722-3.2411282-.6-4.8h16.11c-.470472 1.5310785-.6866742 3.1289482-.64 4.73.0174648.4872031.2215375.9490517.57 1.29 1.7 1.73 5.85 4.91 13.13 4.91 4 0 4.88 4 4.88 4z" fill="#fdd7ad"/><path id="Shape" d="m41.79 48.39c0 .19-2.95 1.63-3 8.65-2.5511011.426799-5.1258998.6973032-7.71.81 4.83-2.72 5.44-11.34 5.58-11.56 1.5855336.9721258 3.3179217 1.6812905 5.13 2.1z" fill="#26b99a"/><path id="Shape" d="m20.67 57.85c-2.5693528-.153949-5.1292842-.4376442-7.67-.85-.07-6.9-2.94-8.52-3-8.62 1.8159729-.41633 3.5520271-1.1256129 5.14-2.1 0 0 .75 8.88 5.53 11.57z" fill="#26b99a"/><path id="Shape" d="m33.94 38.07c-.2849996.9114501-.4759942 1.849669-.57 2.8-1.47 1.77-3.58 3.94-5.84 4.82-1.0617851.4100556-2.2382149.4100556-3.3 0-2.27-.88-4.38-3.06-5.84-4.83-.0975575-.9432988-.2748582-1.8766366-.53-2.79z" fill="#f9c795"/><path id="Shape" d="m37.55 27.72c.65 3.18-.29 6-3.16 9.78-1.39 1.82-4 5-6.86 6.11-3.74 1.5-7.71-2.9-10.16-6.11-2.87-3.75-3.81-6.6-3.16-9.78.72-3.47-.07-3.23-.32-7.18 5.4272889-1.4407422 9.8654396-5.3421691 11.99-10.54 2.1266093 5.2001819 6.5689262 9.1020168 12 10.54-.26 3.95-1.05 3.71-.33 7.18z" fill="#fdd7ad"/><path id="Shape" d="m39.7 22c-5.8348559-.9119481-10.928791-4.4504269-13.82-9.6-2.891209 5.1495731-7.9851441 8.6880519-13.82 9.6-.5522847.0994113-1.0805887-.2677153-1.18-.82s.2677153-1.0805887.82-1.18c10.3-1.85 13.11-10 13.23-10.32.1348836-.41037454.5180268-.6877501.95-.6877501s.8151164.27737556.95.6877501c.11.35 3 8.47 13.23 10.34.5522847.0994113.9194113.6277153.82 1.18s-.6277153.9194113-1.18.82z" fill="#c03a2b"/></g></svg>