<svg height="512" viewBox="0 0 59 58" width="512" xmlns="http://www.w3.org/2000/svg"><g id="040---Female-User-Rating" fill="none"><circle id="Oval" cx="29" cy="29" fill="#3d324c" r="29"/><path id="Shape" d="m44 41.34c-.0530926.3070392-.0765338.6184728-.07.93 0 1.93.16 4.41.28 6.6-1.9222172 1.463917-4.0436289 2.6458464-6.3 3.51l-16.9.3c-2.7803041-.9367039-5.3709755-2.3624198-7.65-4.21.6655083-1.2488866 1.115173-2.6012619 1.33-4 .5928406-4.0892893-.9599019-8.1959341-4.11-10.87-2.46717178-1.9114722-3.78411121-4.9528854-3.49-8.06.17-3.26 2.76-6.62 4.59-9.24 3.63-5.22 9.52-11.86 16.38-12.3h.26.16c1.6634071-.02024234 3.3113736.32095154 4.83 1 6.69 2.82 11.76 8.37 15.22 14.44 1.06 1.86 2.34 3.88 2.46 6 .16 2.78-2 5.22-3.41 7.46-1.58 2.63-3.17 5.43-3.58 8.44z" fill="#805333"/><path id="Shape" d="m42 41.34c-.16 1.24.19 7.64.26 8.88-1.3583456.8522813-2.7989199 1.5658682-4.3 2.13l-16.96.35c-2.1835909-.737957-4.2560969-1.7708455-6.16-3.07.8599736-1.6091028 1.4351194-3.3548394 1.7-5.16.5619382-3.9755866-.7446932-7.9877572-3.54-10.87-2.1858544-2.082639-3.29219584-5.0550098-3-8.06.14-3.26 2.39-6.62 4-9.24 3.13-5.21 8.22-11.83 14.16-12.3h.16c.0997521-.0099584.2002479-.0099584.3 0h.65c1.1989723.09914855 2.3655987.43927289 3.43 1 5.78 2.86 10.19 8.41 13.19 14.48.92 1.86 2 3.88 2.13 6 .14 2.78-1.74 5.22-3 7.46-1.5062361 2.5943887-2.5294608 5.4404441-3.02 8.4z" fill="#a56a43"/><path id="Shape" d="m41 51c-7.456006 4.061932-16.463994 4.061932-23.92 0 1.4822806-.721394 2.8340989-1.6845645 4-2.85.3327216-.3335529.5288707-.7793465.55-1.25.0517801-1.6215103-.1506722-3.2411282-.6-4.8h16.03c-.4681928 1.5315785-.6843441 3.1290719-.64 4.73.0276374.4780846.2347877.9281006.58 1.26 1.1638306 1.1838362 2.5153909 2.1670964 4 2.91z" fill="#fdd7ad"/><path id="Shape" d="m37.06 42.07c-.2849996.9114501-.4759942 1.849669-.57 2.8-1.47 1.77-3.58 3.94-5.84 4.82-1.0617851.4100556-2.2382149.4100556-3.3 0-2.27-.88-4.38-3.06-5.84-4.83-.0919886-.9425824-.2625821-1.8758294-.51-2.79z" fill="#f9c795"/><path id="Shape" d="m37.51 41.5c-2.54 3.22-6.34 7.64-10.16 6.11-2.55-1-4.91-3.69-6.37-5.54-2.53-3.24-4.48-6.3-3.65-10.35.4086911-1.570514.4086911-3.219486 0-4.79 5.81-.93 9.29-3.2 11.36-5.48 1.3944339-1.5486748 2.3778164-3.422603 2.86-5.45.14-.68.07-.8.09 0 .0052132 2.9647715 1.0691124 5.8302067 3 8.08 1.6052278 1.6352609 3.7233715 2.6696211 6 2.93-.4059557 1.543758-.4059557 3.166242 0 4.71.68 3.18-.26 6.03-3.13 9.78z" fill="#fdd7ad"/><path id="Shape" d="m40.61 27.53c-.1566621.6550188-.2338845 1.3265183-.23 2-4.5129196-.569595-8.186456-3.9033592-9.19-8.34-1.73 3.06-5.48 6.92-13.57 8.26-.0091006-.6738615-.092947-1.3446325-.25-2 6.2-1 9.51-3.65 11.27-6 1.4125072-1.5433096 2.413322-3.417688 2.91-5.45h.09c.0052132 2.9647715 1.0691124 5.8302067 3 8.08 1.4378572 1.9142049 3.5935551 3.15996 5.97 3.45z" fill="#f9c795"/><path id="Shape" d="m15.27 28.18c-.5522847.0276142-1.0223857-.3977153-1.05-.95-.0276142-.5522847.3977153-1.0223858.95-1.05 1.9-.19 1.84-.25 2-.26 13.4-2.18 13.52-11.51 13.47-10.52.0266663-.5326668.4666665-.9506671 1-.95.5522847 0 1 .4477153 1 1 0 6.54 3.61 10.73 10.4 10.73.5522847 0 1 .4477153 1 1s-.4477153 1-1 1c-6.4 0-10.39-3.19-11.85-8.55-1.74 3.09-5.53 7-13.74 8.29-.2.08-1.91.26-2.18.26z" fill="#805333"/><path id="Shape" d="m55.71 46.32-11.71 11.75-11.8-11.75c-2.6623108-3.0938226-2.4892648-7.7169798.3968777-10.6031223s7.5092997-3.0591885 10.6031223-.3968777l.8.68.73-.73c1.9086366-2.2179916 4.8981164-3.1811551 7.7425731-2.4945358 2.8444568.6866194 5.0653433 2.9075059 5.7519627 5.7519627.6866193 2.8444567-.2765442 5.8339365-2.4945358 7.7425731z" fill="#df4d60"/><path id="Shape" d="m57.73 38.8c-.3352008 1.3329601-1.0265272 2.5496945-2 3.52l-11.73 11.75-11.8-11.75c-.9710733-.9721347-1.6619995-2.1881649-2-3.52.7246551-2.6753834 2.8146786-4.7652296 5.4901234-5.4896577 2.6754449-.7244282 5.5343639.0253966 7.5098766 1.9696577l.8.72.73-.73c1.9769194-1.9441516 4.8373169-2.6926822 7.5131357-1.9660945 2.6758187.7265878 4.7647751 2.8190582 5.4868643 5.4960945z" fill="#ff5364"/></g></svg>