<svg height="512" viewBox="0 0 44 58" width="512" xmlns="http://www.w3.org/2000/svg"><g id="078---Female-User-Rating" fill="none" transform="translate(-1 -1)"><path id="Shape" d="m35 23c3 1.24 7.06 4.59 4.62 13.48 0 0-6.58.7-9.26-5.49l-14.47.25c-2.75 5.93-9.14 5.24-9.14 5.24-2.4-8.77 1.49-12.16 4.45-13.48z" fill="#df4d60"/><path id="Shape" d="m44 48c0-4.88-8.67-4.88-11.57-5.85-1.6663992-.6602769-3.2058247-1.6042324-4.55-2.79-.5762146-.4739745-.9190275-1.1741882-.94-1.92-.0344529-1.5715204.3084694-3.1283878 1-4.54 3.9-2.45 5.06-5.57 5.06-9.73h1c1.4890376.0167366 2.7126193-1.1711201 2.74-2.66v-2.66c-.0105304-.7161098-.3051435-1.3986971-.8190105-1.8975607-.5138669-.4988635-1.2048821-.7731269-1.9209895-.7624393h.14c2.48-8.29-1.68-13.19-5.71-14.08-1.67-.38-4.8.16-5.43.78 0 0-.89-.89-4.45-.89-4.28 0-9.37 5.22-6.65 14.19h.1c-.7151659-.0106792-1.40514.2638978-1.9174201.7630426-.51228008.4991447-.80468291 1.1817553-.8125799 1.8969574v2.66c.03917965 1.1593094.8170923 2.1629377 1.93 2.49.5795935.1354829 1.1768313.1793479 1.77.13v.37c-.2387257 3.8330507 1.7085198 7.4720383 5.03 9.4.70064 1.4084135 1.0440632 2.9675549 1 4.54-.0209725.7458118-.3637854 1.4460255-.94 1.92-1.3441753 1.1857676-2.8836008 2.1297231-4.55 2.79-2.84.97-11.51.97-11.51 5.85z" fill="#ff5364"/><path id="Shape" d="m7.51 47.36 1.32 3.08c.08062748.1915759.25466182.3277767.46.36l3.2.34c.2333126.0407012.4230556.2107634.4889615.4382448.0659058.2274814-.0035407.472636-.1789615.6317552l-2.36 2.2c-.1622255.1538852-.2307286.3822286-.18.6l.67 3.25c.0577354.222005-.0207964.4571798-.2003409.5999501-.1795444.1427703-.426365.1663093-.6296591.0600499l-2.82-1.7c-.1732646-.1000344-.3867354-.1000344-.56 0l-2.82 1.7c-.20329414.1062594-.45011468.0827204-.62965914-.0600499-.17954447-.1427703-.25807622-.3779451-.20034086-.5999501l.67-3.26c.05072857-.2177714-.01777445-.4461148-.18-.6l-2.36-2.19c-.17542075-.1591192-.2448673-.4042738-.17896147-.6317552s.25564883-.3975436.48896147-.4382448l3.2-.34c.20533818-.0322233.37937252-.1684241.46-.36l1.32-3.08c.07553597-.2170545.28017762-.3625176.51-.3625176s.43446403.1454631.51.3625176z" fill="#f29c1f"/><path id="Shape" d="m39.51 47.36 1.32 3.08c.0806275.1915759.2546618.3277767.46.36l3.2.34c.2333126.0407012.4230556.2107634.4889615.4382448.0659058.2274814-.0035407.472636-.1789615.6317552l-2.36 2.2c-.1622255.1538852-.2307286.3822286-.18.6l.67 3.25c.0577354.222005-.0207964.4571798-.2003409.5999501-.1795444.1427703-.426365.1663093-.6296591.0600499l-2.82-1.7c-.1732646-.1000344-.3867354-.1000344-.56 0l-2.82 1.7c-.2032941.1062594-.4501147.0827204-.6296591-.0600499-.1795445-.1427703-.2580763-.3779451-.2003409-.5999501l.67-3.26c.0507286-.2177714-.0177745-.4461148-.18-.6l-2.36-2.2c-.1754208-.1591192-.2448673-.4042738-.1789615-.6317552.0659059-.2274814.2556489-.3975436.4889615-.4382448l3.2-.34c.2053382-.0322233.3793725-.1684241.46-.36l1.32-3.08c.0776396-.21634.2837159-.3598239.5135546-.3575706s.4330623.14975.5064454.3675706z" fill="#f29c1f"/><path id="Shape" d="m23.51 47.36 1.32 3.08c.0806275.1915759.2546618.3277767.46.36l3.2.34c.2333126.0407012.4230556.2107634.4889615.4382448.0659058.2274814-.0035407.472636-.1789615.6317552l-2.36 2.2c-.1622255.1538852-.2307286.3822286-.18.6l.67 3.25c.0577354.222005-.0207964.4571798-.2003409.5999501-.1795444.1427703-.426365.1663093-.6296591.0600499l-2.82-1.7c-.1732646-.1000344-.3867354-.1000344-.56 0l-2.82 1.7c-.2032941.1062594-.4501147.0827204-.6296591-.0600499-.1795445-.1427703-.2580763-.3779451-.2003409-.5999501l.67-3.26c.0507286-.2177714-.0177745-.4461148-.18-.6l-2.36-2.2c-.1754208-.1591192-.2448673-.4042738-.1789615-.6317552.0659059-.2274814.2556489-.3975436.4889615-.4382448l3.2-.34c.2053382-.0322233.3793725-.1684241.46-.36l1.32-3.08c.0776396-.21634.2837159-.3598239.5135546-.3575706s.4330623.14975.5064454.3675706z" fill="#f0c419"/></g></svg>