<svg id="Capa_1" enable-background="new 0 0 512 512" height="512" viewBox="0 0 512 512" width="512" xmlns="http://www.w3.org/2000/svg"><path d="m276.53 126.803c-10.574 0-17.926-1.05-18.757-1.174l-9.249-1.384-1.384-9.249c-.358-2.395-8.412-59.024 23.193-90.629 31.607-31.605 88.234-23.551 90.63-23.193l9.249 1.384 1.384 9.249c.358 2.395 8.412 59.024-23.193 90.629-20.644 20.642-51.964 24.367-71.873 24.367z" fill="#c4e83b"/><path d="m276.53 126.803c-10.574 0-17.926-1.05-18.757-1.174l-9.249-1.384-1.384-9.249c-.358-2.395-8.412-59.024 23.193-90.629 31.607-31.605 88.234-23.551 90.63-23.193l9.249 1.384 1.384 9.249c.358 2.395 8.412 59.024-23.193 90.629-20.644 20.642-51.964 24.367-71.873 24.367z" fill="#69b921"/><path d="m271.599 126.803h-29.785v-47.277c0-18.708-15.22-33.928-33.928-33.928h-25.641v-29.785h25.641c35.131 0 63.713 28.581 63.713 63.713z" fill="#c4e83b"/><path d="m310.641 512c-9.525 0-19.048-1.026-28.484-3.103-9.002-1.981-17.757-4.91-26.157-8.741-8.399 3.832-17.153 6.76-26.153 8.741-42.967 9.453-87.739-2.863-126.077-34.682-36.571-30.353-63.085-75.233-74.658-126.373-13.57-59.954-4.776-120.444 24.129-165.959 21.361-33.638 52.73-56.478 88.33-64.312 21.866-4.815 44.252-3.989 66.532 2.453 31.333 9.064 64.458 9.061 95.797 0 22.279-6.441 44.663-7.265 66.531-2.453h-.002c35.599 7.835 66.968 30.674 88.33 64.311 28.905 45.515 37.701 106.007 24.131 165.961-11.575 51.14-38.089 96.019-74.66 126.373-29.918 24.829-63.754 37.784-97.589 37.784z" fill="#fc652c"/><path d="m458.758 181.882c-21.361-33.637-52.73-56.476-88.329-64.311h.002c-21.867-4.811-44.252-3.987-66.531 2.453-15.669 4.53-31.785 6.796-47.899 6.797v373.335c8.4 3.832 17.155 6.76 26.156 8.741 9.436 2.076 18.96 3.103 28.484 3.103 33.835 0 67.671-12.955 97.588-37.785 36.571-30.353 63.085-75.233 74.66-126.372 13.57-59.954 4.774-120.446-24.131-165.961z" fill="#ed3a19"/></svg>