<svg id="Capa_1" enable-background="new 0 0 512 512" height="512" viewBox="0 0 512 512" width="512" xmlns="http://www.w3.org/2000/svg"><path d="m256 512c-68.38 0-132.667-26.629-181.02-74.98-48.351-48.353-74.98-112.64-74.98-181.02 0-68.381 26.629-132.668 74.98-181.02 48.353-48.351 112.64-74.98 181.02-74.98s132.667 26.629 181.02 74.98c48.351 48.352 74.98 112.639 74.98 181.02 0 68.38-26.629 132.667-74.98 181.02-48.353 48.351-112.64 74.98-181.02 74.98z" fill="#fee47b"/><path d="m256 512c-5.356 0 0-512 0-512 68.38 0 132.667 26.629 181.02 74.98 48.351 48.352 74.98 112.639 74.98 181.02 0 68.38-26.629 132.667-74.98 181.02-48.353 48.351-112.64 74.98-181.02 74.98z" fill="#fed843"/><path d="m113.388 435.481-25.701-22.307c6.864-7.909 13.305-16.427 19.147-25.32l28.445 18.682c-6.672 10.157-14.037 19.896-21.891 28.945zm39.772-60.422-30.602-14.889c4.616-9.488 8.702-19.417 12.144-29.51l32.211 10.983c-3.895 11.422-8.522 22.665-13.753 33.416zm23.305-68.21-33.301-7.019c2.184-10.361 3.777-21.011 4.735-31.65l33.895 3.051c-1.077 11.969-2.87 23.952-5.329 35.618zm-27.539-70.707c-.27-10.687-1.164-21.426-2.659-31.918l33.692-4.799c1.68 11.793 2.685 23.858 2.988 35.858zm-9.041-63.257c-2.748-10.303-6.144-20.495-10.091-30.292l31.566-12.718c4.464 11.079 8.302 22.599 11.407 34.238zm-23.825-59.05c-5.184-9.293-10.985-18.273-17.243-26.691l27.312-20.304c7.137 9.601 13.749 19.834 19.651 30.415z" fill="#fc652b"/><path d="m394.792 435.481c-7.854-9.049-15.22-18.787-21.891-28.945l28.445-18.682c5.842 8.894 12.283 17.411 19.147 25.32zm-39.773-60.422c-5.231-10.75-9.858-21.993-13.752-33.416l32.211-10.983c3.441 10.093 7.528 20.022 12.144 29.51zm-23.304-68.21c-2.459-11.666-4.252-23.65-5.329-35.618l33.895-3.051c.958 10.639 2.551 21.289 4.735 31.65zm27.539-70.707-34.021-.86c.303-12 1.308-24.065 2.988-35.858l33.692 4.799c-1.495 10.493-2.389 21.232-2.659 31.919zm9.041-63.257-32.882-8.772c3.105-11.639 6.943-23.159 11.407-34.238l31.566 12.718c-3.947 9.797-7.343 19.989-10.091 30.292zm23.824-59.05-29.72-16.58c5.902-10.581 12.514-20.814 19.651-30.415l27.312 20.304c-6.257 8.418-12.059 17.398-17.243 26.691z" fill="#e73c2f"/></svg>