<svg id="Capa_1" enable-background="new 0 0 512 512" height="512" viewBox="0 0 512 512" width="512" xmlns="http://www.w3.org/2000/svg"><path d="m295.306 173.503-209.09 185.517c-28.063 24.908-46.31 59.102-51.38 96.281l-.109.799-34.727 34.725 21.175 21.175 34.727-34.726.799-.109c37.178-5.07 71.371-23.318 96.282-51.383l185.514-209.089z" fill="#fed843"/><path d="m493.226 88.394c-13.959-13.958-32.799-20.124-51.076-18.515.165-1.888.262-3.79.261-5.708 0-17.148-6.678-33.271-18.804-45.397-25.032-25.032-65.762-25.032-90.794 0l-3.251 3.25c-27.69 27.691-43.136 66.027-42.377 105.223l1.174 52.523 43.938 44.156 52.501.891c.918.018 1.834.026 2.75.026 38.192 0 75.387-15.365 102.428-42.406l3.25-3.25c25.032-25.032 25.032-65.762 0-90.793z" fill="#c4e83b"/><path d="m10.588 501.412 10.587 10.588 34.727-34.726.799-.109c37.178-5.07 71.371-23.318 96.282-51.383l185.514-209.089-21.595-21.595z" fill="#fbbe2c"/><path d="m442.15 69.879c.001-.01.001-.021.002-.031l-131.912 131.911 22.056 22.166 52.501.891c.918.018 1.834.026 2.75.026 38.192 0 75.387-15.365 102.428-42.406l3.25-3.25c25.032-25.032 25.032-65.762 0-90.793-13.958-13.958-32.798-20.123-51.075-18.514z" fill="#9edb2c"/><g fill="#fc652b"><path d="m278.623 284.176-50.8-50.799-22.44 19.911 53.33 53.329z"/><path d="m238.802 329.058-55.859-55.86-22.44 19.91 58.389 58.39z"/><path d="m196.327 376.931-61.257-61.257-22.44 19.91 63.787 63.787z"/></g><path d="m232.048 279.952 26.665 26.665 19.91-22.441-25.4-25.399z" fill="#e73c2f"/><path d="m218.892 351.498 19.91-22.44-27.93-27.93-21.175 21.175z" fill="#e73c2f"/><path d="m176.417 399.371 19.91-22.44-30.629-30.629-21.175 21.175z" fill="#e73c2f"/><path d="m277.105 107.122h225.58v29.946h-225.58z" fill="#69b921" transform="matrix(.707 -.707 .707 .707 27.863 311.458)"/><path d="m282.401 119.908h225.58v14.967h-225.58z" fill="#497814" transform="matrix(.707 -.707 .707 .707 25.668 316.752)"/></svg>