<svg id="Capa_1" enable-background="new 0 0 512 512" height="512" viewBox="0 0 512 512" width="512" xmlns="http://www.w3.org/2000/svg"><path d="m256 376.305c-66.336 0-120.305-53.969-120.305-120.305 0-66.337 53.969-120.306 120.305-120.306s120.305 53.969 120.305 120.306c0 66.336-53.969 120.305-120.305 120.305z" fill="#fd9025"/><path d="m256 67.847v145.837-145.837c-103.337 0-187.472 83.741-188.137 186.924h147.049-147.049c-.003.41-.016.818-.016 1.229 0 103.748 84.404 188.152 188.152 188.152v-148.294 148.294c103.748 0 188.152-84.404 188.152-188.152 0-.411-.013-.819-.016-1.229h-147.048 147.049c-.664-103.184-84.799-186.924-188.136-186.924z" fill="none"/><path d="m256 135.694v77.989-77.989c-65.925 0-119.626 53.304-120.289 119.076h79.202-79.202c-.004.41-.016.818-.016 1.229 0 66.336 53.969 120.305 120.305 120.305v-80.447 80.447c66.336 0 120.305-53.969 120.305-120.305 0-.411-.011-.819-.016-1.229h-79.202 79.202c-.663-65.771-54.364-119.076-120.289-119.076z" fill="none"/><path d="m256 308.457c-28.926 0-52.458-23.532-52.458-52.457 0-28.926 23.532-52.458 52.458-52.458s52.458 23.532 52.458 52.458c0 28.925-23.532 52.457-52.458 52.457z" fill="#fc652b"/><path d="m256 203.542c-28.926 0-52.458 23.532-52.458 52.458 0 28.925 23.532 52.457 52.458 52.457s52.458-23.532 52.458-52.457c0-28.926-23.532-52.458-52.458-52.458z" fill="#c4e83b"/><path d="m256 203.542v10.141-10.141c-28.514 0-51.769 22.87-52.427 51.229h11.339-11.339c-.01.41-.031.817-.031 1.229 0 28.925 23.532 52.457 52.458 52.457v-12.599 12.599c28.926 0 52.458-23.532 52.458-52.457 0-.412-.022-.819-.031-1.229h-11.339 11.339c-.658-28.359-23.913-51.229-52.427-51.229z" fill="none"/><path d="m202.284 254.731c-.011.452-.034.902-.034 1.356 0 29.637 24.112 53.749 53.75 53.749v-55.105-52.394c-29.183.001-52.991 23.383-53.716 52.394z" fill="#fc652b"/><path d="m309.715 254.731c-.724-29.012-24.532-52.394-53.715-52.394v107.499c29.638 0 53.75-24.112 53.75-53.749 0-.454-.023-.903-.035-1.356z" fill="#e73c2f"/><path d="m448.078 254.745c-.679-105.345-86.577-190.84-192.078-190.84-105.502 0-191.399 85.495-192.078 190.84-.003.419-.016.835-.016 1.255 0 105.921 86.172 192.094 192.094 192.094s192.094-86.173 192.094-192.094c0-.42-.014-.836-.016-1.255zm-192.078 115.413c-62.947 0-114.158-51.211-114.158-114.158 0-.39.011-.777.015-1.166.629-62.412 51.586-112.993 114.143-112.993s113.514 50.581 114.143 112.993c.004.389.015.776.015 1.166 0 62.947-51.211 114.158-114.158 114.158z" fill="#9edb2c"/><path d="m256 135.694v-67.847c-103.337 0-187.472 83.741-188.137 186.924-.003.41-.016.818-.016 1.229 0 103.748 84.404 188.152 188.152 188.152v-67.848c-66.336 0-120.305-53.969-120.305-120.305 0-.411.011-.819.016-1.229.664-65.771 54.365-119.076 120.29-119.076z" fill="#c4e83b"/><path d="m444.137 254.771c-.665-103.184-84.8-186.924-188.137-186.924v67.848c65.925 0 119.626 53.304 120.289 119.076.004.41.016.818.016 1.229 0 66.336-53.969 120.305-120.305 120.305v67.848c103.748 0 188.152-84.404 188.152-188.152 0-.412-.013-.82-.015-1.23z" fill="#9edb2c"/><path d="m256 67.847v-67.847c-68.38 0-132.667 26.629-181.02 74.98-48.061 48.062-74.647 111.87-74.965 179.791-.002.41-.015.818-.015 1.229 0 68.38 26.629 132.667 74.98 181.02 48.353 48.351 112.64 74.98 181.02 74.98v-67.848c-103.748 0-188.152-84.404-188.152-188.152 0-.411.013-.819.016-1.229.664-103.184 84.799-186.924 188.136-186.924z" fill="#64cef2"/><path d="m511.985 254.771c-.318-67.921-26.904-131.729-74.966-179.79-48.352-48.352-112.639-74.981-181.019-74.981v67.847c103.337 0 187.472 83.741 188.137 186.924.003.41.016.818.016 1.229 0 103.748-84.404 188.152-188.152 188.152v67.848c68.38 0 132.667-26.629 181.02-74.98 48.35-48.353 74.979-112.64 74.979-181.02 0-.411-.013-.819-.015-1.229z" fill="#32b3e8"/><path d="m376.289 254.771c-.663-65.772-54.364-119.077-120.289-119.077v67.848c28.514 0 51.769 22.87 52.427 51.229.01.41.031.817.031 1.229 0 28.925-23.532 52.457-52.458 52.457v67.848c66.336 0 120.305-53.969 120.305-120.305 0-.411-.012-.819-.016-1.229z" fill="#fc652b"/><path d="m256 203.542v-67.848c-65.925 0-119.626 53.304-120.289 119.076-.004.41-.016.818-.016 1.229 0 66.336 53.969 120.305 120.305 120.305v-67.848c-28.926 0-52.458-23.532-52.458-52.457 0-.412.022-.819.031-1.229.658-28.358 23.913-51.228 52.427-51.228z" fill="#fd9025"/></svg>