<svg id="Capa_1" enable-background="new 0 0 512 512" height="512" viewBox="0 0 512 512" width="512" xmlns="http://www.w3.org/2000/svg"><path d="m144.194 143.974h418.776v30.295h-418.776z" fill="#e0f4fe" transform="matrix(.705 -.709 .709 .705 -8.598 297.559)"/><path d="m179.781 512c-11.695 0-22.691-4.555-30.961-12.825l-23.665-23.666 21.421-21.421 23.666 23.666c2.548 2.548 5.936 3.952 9.539 3.952s6.991-1.403 9.539-3.952l21.02-21.019c2.548-2.548 3.951-5.936 3.951-9.539s-1.403-6.991-3.951-9.539l-10.903-10.903 21.421-21.421 10.903 10.903c8.27 8.269 12.825 19.265 12.825 30.961 0 11.695-4.555 22.691-12.824 30.961l-21.02 21.019c-8.27 8.268-19.266 12.823-30.961 12.823z" fill="#bcdcfd"/><path d="m118.638 330.135-105.539 105.538c-8.447 8.448-13.099 19.679-13.099 31.624 0 11.946 4.652 23.178 13.1 31.624 8.719 8.72 20.169 13.079 31.624 13.079 11.451 0 22.907-4.361 31.624-13.078l105.539-105.539z" fill="#9bbad9"/><path d="m12.195 497.971c.3.318.595.64.905.95 8.719 8.72 20.169 13.079 31.624 13.079 11.451 0 22.907-4.361 31.624-13.078l105.539-105.539-31.436-31.798z" fill="#7da0bf"/><path d="m205.169 306.831 11.47 11.411 295.361-296.876-10.711-10.655z" fill="#bcdcfd"/><path d="m232.736 319.215-38.096-38.095c-26.374-26.374-69.287-26.374-95.661 0l-22.589 22.588 133.756 133.756 22.588-22.588c12.776-12.776 19.813-29.762 19.813-47.83.001-18.069-7.036-35.055-19.811-47.831z" fill="#bcdcfd"/><path d="m212.76 299.24-70.419 70.419 67.805 67.806 22.588-22.588c12.776-12.776 19.813-29.762 19.813-47.83 0-18.069-7.036-35.055-19.812-47.831z" fill="#9bbad9"/><path d="m94.131 358.02h30.295v89.446h-30.295z" fill="#bcdcfd" transform="matrix(.707 -.707 .707 .707 -252.775 195.231)"/><path d="m52.308 399.842h30.294v89.447h-30.294z" fill="#bcdcfd" transform="matrix(.707 -.707 .707 .707 -294.597 177.907)"/><g fill="#9bbad9"><path d="m130.191 445.078 21.422-21.422-31.826-31.826-21.593 21.295z"/><path d="m88.369 486.9 21.421-21.421-32.106-32.106-21.569 21.282z"/></g></svg>