<svg id="Capa_1" enable-background="new 0 0 512 512" height="512" viewBox="0 0 512 512" width="512" xmlns="http://www.w3.org/2000/svg"><path d="m256 512c-68.38 0-132.667-26.629-181.02-74.98-48.351-48.353-74.98-112.64-74.98-181.02s26.629-132.667 74.98-181.02c48.353-48.351 112.64-74.98 181.02-74.98s132.667 26.629 181.02 74.98c48.351 48.353 74.98 112.64 74.98 181.02s-26.629 132.667-74.98 181.02c-48.353 48.351-112.64 74.98-181.02 74.98z" fill="#e0f4fe"/><path d="m437.02 74.98c-48.353-48.351-112.64-74.98-181.02-74.98v512c68.38 0 132.667-26.629 181.02-74.98 48.351-48.353 74.98-112.64 74.98-181.02s-26.629-132.667-74.98-181.02z" fill="#bcdcfd"/><path d="m256 281.194c11.769 0 23.044-10.349 22.5-22.5-.546-12.191-9.886-22.5-22.5-22.5-11.769 0-23.044 10.349-22.5 22.5.546 12.19 9.886 22.5 22.5 22.5z" fill="#bcdcfd"/><path d="m343.203 236.194c-11.769 0-23.044 10.349-22.5 22.5.546 12.191 9.886 22.5 22.5 22.5 11.769 0 23.044-10.349 22.5-22.5-.546-12.191-9.886-22.5-22.5-22.5z" fill="#9bbad9"/><path d="m164.715 236.194c-11.769 0-23.044 10.349-22.5 22.5.546 12.191 9.886 22.5 22.5 22.5 11.769 0 23.044-10.349 22.5-22.5-.546-12.191-9.886-22.5-22.5-22.5z" fill="#bcdcfd"/><path d="m207.593 98.84c11.769 0 23.044-10.349 22.5-22.5-.546-12.191-9.886-22.5-22.5-22.5-11.769 0-23.044 10.349-22.5 22.5.546 12.191 9.887 22.5 22.5 22.5z" fill="#bcdcfd"/><path d="m296.516 98.84c11.769 0 23.044-10.349 22.5-22.5-.546-12.191-9.886-22.5-22.5-22.5-11.769 0-23.044 10.349-22.5 22.5.546 12.191 9.887 22.5 22.5 22.5z" fill="#9bbad9"/><path d="m230.093 197.008c-.546-12.191-9.886-22.5-22.5-22.5-11.769 0-23.044 10.349-22.5 22.5.546 12.191 9.886 22.5 22.5 22.5 11.77 0 23.045-10.349 22.5-22.5z" fill="#bcdcfd"/><path d="m319.016 197.008c-.546-12.191-9.886-22.5-22.5-22.5-11.769 0-23.044 10.349-22.5 22.5.546 12.191 9.886 22.5 22.5 22.5 11.77 0 23.045-10.349 22.5-22.5z" fill="#9bbad9"/><path d="m256 158.174c11.769 0 23.044-10.349 22.5-22.5-.546-12.191-9.886-22.5-22.5-22.5-11.769 0-23.044 10.349-22.5 22.5.546 12.191 9.886 22.5 22.5 22.5z" fill="#bcdcfd"/><path d="m344.735 113.174c-11.769 0-23.044 10.349-22.5 22.5.546 12.191 9.886 22.5 22.5 22.5 11.769 0 23.044-10.349 22.5-22.5-.546-12.19-9.886-22.5-22.5-22.5z" fill="#9bbad9"/><path d="m166.247 158.174c11.769 0 23.044-10.349 22.5-22.5-.546-12.191-9.886-22.5-22.5-22.5-11.769 0-23.044 10.349-22.5 22.5.547 12.191 9.887 22.5 22.5 22.5z" fill="#bcdcfd"/><path d="m114.22 174.508c-11.769 0-23.044 10.349-22.5 22.5.546 12.191 9.886 22.5 22.5 22.5 11.769 0 23.044-10.349 22.5-22.5-.546-12.191-9.887-22.5-22.5-22.5z" fill="#bcdcfd"/><path d="m392.342 174.508c-11.769 0-23.044 10.349-22.5 22.5.546 12.191 9.886 22.5 22.5 22.5 11.769 0 23.044-10.349 22.5-22.5-.546-12.191-9.887-22.5-22.5-22.5z" fill="#9bbad9"/><path d="m96.905 257.342c-.546-12.191-9.886-22.5-22.5-22.5-11.769 0-23.044 10.349-22.5 22.5.546 12.191 9.886 22.5 22.5 22.5 11.769 0 23.044-10.349 22.5-22.5z" fill="#bcdcfd"/><path d="m460.095 257.342c-.546-12.191-9.886-22.5-22.5-22.5-11.769 0-23.044 10.349-22.5 22.5.546 12.191 9.886 22.5 22.5 22.5 11.77 0 23.045-10.349 22.5-22.5z" fill="#9bbad9"/><path d="m298.968 413.16c-11.769 0-23.044 10.349-22.5 22.5.546 12.191 9.886 22.5 22.5 22.5 11.769 0 23.044-10.349 22.5-22.5-.546-12.191-9.886-22.5-22.5-22.5z" fill="#9bbad9"/><path d="m210.045 413.16c-11.769 0-23.044 10.349-22.5 22.5.546 12.191 9.886 22.5 22.5 22.5 11.769 0 23.044-10.349 22.5-22.5-.546-12.191-9.886-22.5-22.5-22.5z" fill="#bcdcfd"/><path d="m276.468 314.992c.546 12.191 9.886 22.5 22.5 22.5 11.769 0 23.044-10.349 22.5-22.5-.546-12.191-9.886-22.5-22.5-22.5-11.769 0-23.044 10.349-22.5 22.5z" fill="#9bbad9"/><path d="m210.045 337.492c11.769 0 23.044-10.349 22.5-22.5-.546-12.191-9.886-22.5-22.5-22.5-11.769 0-23.044 10.349-22.5 22.5.546 12.191 9.886 22.5 22.5 22.5z" fill="#bcdcfd"/><path d="m256 353.826c-11.769 0-23.044 10.349-22.5 22.5.546 12.191 9.886 22.5 22.5 22.5 11.769 0 23.044-10.349 22.5-22.5-.546-12.191-9.886-22.5-22.5-22.5z" fill="#bcdcfd"/><g fill="#9bbad9"><path d="m256 281.194c11.769 0 23.044-10.349 22.5-22.5-.546-12.191-9.886-22.5-22.5-22.5z"/><path d="m256 158.174c11.769 0 23.044-10.349 22.5-22.5-.546-12.191-9.886-22.5-22.5-22.5z"/><path d="m256 353.826v45c11.769 0 23.044-10.349 22.5-22.5-.546-12.191-9.886-22.5-22.5-22.5z"/></g><path d="m161.826 353.826c-11.769 0-23.044 10.349-22.5 22.5.546 12.191 9.886 22.5 22.5 22.5 11.769 0 23.044-10.349 22.5-22.5-.546-12.191-9.886-22.5-22.5-22.5z" fill="#bcdcfd"/><path d="m340.314 353.826c-11.769 0-23.044 10.349-22.5 22.5.546 12.191 9.886 22.5 22.5 22.5 11.769 0 23.044-10.349 22.5-22.5-.546-12.191-9.886-22.5-22.5-22.5z" fill="#9bbad9"/><path d="m392.342 292.492c-11.769 0-23.044 10.349-22.5 22.5.546 12.191 9.886 22.5 22.5 22.5 11.769 0 23.044-10.349 22.5-22.5-.546-12.19-9.887-22.5-22.5-22.5z" fill="#9bbad9"/><path d="m114.22 292.492c-11.769 0-23.044 10.349-22.5 22.5.546 12.191 9.886 22.5 22.5 22.5 11.769 0 23.044-10.349 22.5-22.5-.546-12.19-9.887-22.5-22.5-22.5z" fill="#bcdcfd"/></svg>