<svg id="Capa_1" enable-background="new 0 0 512 512" height="512" viewBox="0 0 512 512" width="512" xmlns="http://www.w3.org/2000/svg"><path d="m247.667 269.611-237.485-.964 235.207-250.96z" fill="#9edb2c"/><path d="m241 0v263.944h-241v30h241v55h30v-348.944z" fill="#fbbe2c"/><path d="m332 142.444c0 52.523-23.48 99.555-60.509 131.194 12.386-2.531 25.209-3.861 38.342-3.861 56.374 0 107.021 24.495 141.9 63.414 26.95-35.327 41.487-75.911 41.487-117.069 0-27.299-5.716-54.023-16.989-79.432-10.774-24.285-26.089-46.228-45.519-65.218-19.341-18.904-41.646-33.799-66.295-44.271-25.606-10.878-52.425-16.394-79.713-16.394-3.845 0-7.695.109-11.537.326-.279-.149-.549-.306-.829-.454l-.278.527c-.191.012-.381.028-.572.041 37.031 31.64 60.512 78.673 60.512 131.197z" fill="#69b921"/><path d="m256 0h15v348.944h-15z" fill="#fd9025"/><path d="m42.921 333.907v27.277c0 36.978 20.545 70.221 53.619 86.757l311.311.22c20.897-4.602 39.82-16.327 53.282-33.018 13.525-16.769 20.974-37.873 20.974-59.424v-21.813h-439.186z" fill="#fd9025"/><path d="m256 333.907v114.147l151.851.107c20.897-4.602 39.82-16.327 53.282-33.018 13.525-16.769 20.974-37.873 20.974-59.424v-21.813h-226.107z" fill="#fc652b"/><path d="m0 411.091h512v100.909h-512z" fill="#1997fc"/><path d="m256 411.091h256v100.909h-256z" fill="#0085cc"/><path d="m426.663 438.506c-24.055 0-36.742-4.758-47.936-8.955-10.081-3.78-18.787-7.045-37.401-7.045-18.613 0-27.319 3.265-37.4 7.045-11.193 4.197-23.88 8.955-47.933 8.955s-36.739-4.758-47.933-8.955c-10.08-3.78-18.786-7.045-37.398-7.045-18.613 0-27.319 3.265-37.399 7.045-11.193 4.197-23.88 8.955-47.933 8.955s-36.739-4.758-47.932-8.955c-10.08-3.78-18.786-7.045-37.398-7.045v-30c24.053 0 36.739 4.758 47.933 8.955 10.08 3.78 18.786 7.045 37.398 7.045 18.613 0 27.319-3.265 37.399-7.045 11.193-4.197 23.88-8.955 47.933-8.955s36.739 4.758 47.932 8.955c10.08 3.78 18.786 7.045 37.398 7.045 18.613 0 27.318-3.265 37.399-7.045 11.193-4.197 23.88-8.955 47.934-8.955s36.741 4.758 47.935 8.955c10.081 3.78 18.788 7.045 37.402 7.045s27.32-3.265 37.401-7.045c11.193-4.197 23.881-8.955 47.936-8.955v30c-18.614 0-27.321 3.265-37.402 7.045-11.194 4.197-23.881 8.955-47.935 8.955z" fill="#32b3e8"/><path d="m426.663 500.51c-24.055 0-36.742-4.758-47.936-8.955-10.081-3.78-18.787-7.045-37.401-7.045-18.613 0-27.319 3.265-37.4 7.045-11.193 4.197-23.88 8.955-47.933 8.955s-36.739-4.758-47.933-8.955c-10.08-3.78-18.786-7.045-37.398-7.045-18.613 0-27.319 3.265-37.399 7.045-11.193 4.197-23.88 8.955-47.933 8.955s-36.739-4.758-47.932-8.955c-10.08-3.78-18.786-7.045-37.398-7.045v-30c24.053 0 36.739 4.758 47.933 8.955 10.08 3.78 18.786 7.045 37.398 7.045 18.613 0 27.319-3.265 37.399-7.045 11.193-4.197 23.88-8.955 47.933-8.955s36.739 4.758 47.932 8.955c10.08 3.78 18.786 7.045 37.398 7.045 18.613 0 27.318-3.265 37.399-7.045 11.193-4.197 23.88-8.955 47.934-8.955s36.741 4.758 47.935 8.955c10.081 3.78 18.788 7.045 37.402 7.045s27.32-3.265 37.401-7.045c11.193-4.197 23.881-8.955 47.936-8.955v30c-18.614 0-27.321 3.265-37.402 7.045-11.194 4.197-23.881 8.955-47.935 8.955z" fill="#32b3e8"/><g fill="#1997fc"><path d="m341.326 422.506c18.614 0 27.32 3.265 37.401 7.045 11.193 4.197 23.881 8.955 47.936 8.955 24.054 0 36.741-4.758 47.935-8.955 10.081-3.78 18.788-7.045 37.402-7.045v-30c-24.055 0-36.742 4.758-47.936 8.955-10.081 3.78-18.787 7.045-37.401 7.045s-27.321-3.265-37.402-7.045c-11.193-4.197-23.881-8.955-47.935-8.955s-36.74 4.758-47.934 8.955c-10.08 3.78-18.784 7.044-37.393 7.045v30c24.048-.001 36.734-4.758 47.926-8.955 10.082-3.78 18.788-7.045 37.401-7.045z"/><path d="m303.926 491.555c10.081-3.78 18.787-7.045 37.4-7.045 18.614 0 27.32 3.265 37.401 7.045 11.193 4.197 23.881 8.955 47.936 8.955 24.054 0 36.741-4.758 47.935-8.955 10.081-3.78 18.788-7.045 37.402-7.045v-30c-24.055 0-36.742 4.758-47.936 8.955-10.081 3.78-18.787 7.045-37.401 7.045s-27.321-3.265-37.402-7.045c-11.193-4.197-23.881-8.955-47.935-8.955s-36.74 4.758-47.934 8.955c-10.08 3.78-18.784 7.044-37.393 7.045v30c24.049-.001 36.735-4.758 47.927-8.955z"/></g></svg>