<svg id="Capa_1" enable-background="new 0 0 512 512" height="512" viewBox="0 0 512 512" width="512" xmlns="http://www.w3.org/2000/svg"><path d="m256 512c-113.005 0-204.94-91.936-204.94-204.94v-102.119c0-113.005 91.935-204.941 204.94-204.941s204.94 91.936 204.94 204.941v102.119c0 113.004-91.935 204.94-204.94 204.94z" fill="#fc652b"/><path d="m256 0v512c113.005 0 204.94-91.936 204.94-204.94v-102.119c0-113.005-91.935-204.941-204.94-204.941z" fill="#e73c2f"/><path d="m351 402h-190v-15c0-41.355 33.645-75 75-75h40c41.355 0 75 33.645 75 75z" fill="#e0f4fe"/><path d="m326.29 276h-56.974v-26.168c0-40.711 33.121-73.832 73.832-73.832h56.974v26.168c0 40.711-33.121 73.832-73.832 73.832z" fill="#bcdcfd"/><path d="m111.983 202.168v-26.168h56.974c40.711 0 73.832 33.121 73.832 73.832v26.168h-56.974c-40.711 0-73.832-33.121-73.832-73.832z" fill="#e0f4fe"/><path d="m176.876 134.962h25.49c20.67 0 37.486 16.816 37.486 37.486h1.062 30.173 1.062c0-20.67 16.816-37.486 37.486-37.486h25.49c37.893 0 68.721-30.828 68.721-68.721v-3.078c-37.325-38.905-89.804-63.163-147.846-63.163s-110.522 24.258-147.845 63.164v3.078c0 37.892 30.828 68.72 68.721 68.72z" fill="#64cef2"/><path d="m387.063 306.156h-18.815l33.179 145.158c36.766-37.062 59.514-88.049 59.514-144.254v-68.513c-3.342 37.835-35.19 67.609-73.878 67.609z" fill="#9edb2c"/><path d="m125.393 306.156c-40.906 0-74.186-33.279-74.186-74.186v-.745h-.147v75.834c0 56.395 22.899 107.54 59.884 144.632l33.265-145.536h-18.816z" fill="#9edb2c"/><path d="m351 402v-15c0-41.355-33.645-75-75-75h-20v90z" fill="#bcdcfd"/><path d="m256 0v172.448h15.087 1.062c0-20.67 16.816-37.486 37.486-37.486h25.49c37.893 0 68.721-30.828 68.721-68.721v-3.078c-37.325-38.905-89.804-63.163-147.846-63.163z" fill="#1997fc"/></svg>