<?xml version="1.0" encoding="iso-8859-1"?>
<!-- Generator: Adobe Illustrator 19.0.0, SVG Export Plug-In . SVG Version: 6.00 Build 0)  -->
<svg version="1.1" id="Capa_1" xmlns="http://www.w3.org/2000/svg" xmlns:xlink="http://www.w3.org/1999/xlink" x="0px" y="0px"
	 viewBox="0 0 512 512" style="enable-background:new 0 0 512 512;" xml:space="preserve">
<g>
	<path style="fill:#35495E;" d="M141.241,0h229.517c19.501,0,35.31,15.809,35.31,35.31V476.69c0,19.501-15.809,35.31-35.31,35.31
		H141.241c-19.501,0-35.31-15.809-35.31-35.31V35.31C105.931,15.809,121.74,0,141.241,0z"/>
	<g>
		<path style="fill:#BDC3C7;" d="M308.966,485.517H203.034c-4.875,0-8.828-3.952-8.828-8.828s3.952-8.828,8.828-8.828h105.931
			c4.875,0,8.828,3.952,8.828,8.828S313.841,485.517,308.966,485.517z"/>
		<path style="fill:#BDC3C7;" d="M298.054,35.31h-84.108c-6.687,0-12.801-3.778-15.791-9.76L185.379,0h141.241l-12.775,25.551
			C310.855,31.532,304.741,35.31,298.054,35.31z"/>
	</g>
	<g>
		<path style="fill:#41767F;" d="M282.483,114.759H176.552c-4.875,0-8.828-3.952-8.828-8.828c0-4.875,3.952-8.828,8.828-8.828
			h105.931c4.875,0,8.828,3.952,8.828,8.828C291.31,110.806,287.358,114.759,282.483,114.759z"/>
		<path style="fill:#41767F;" d="M282.483,406.069h-88.276c-4.875,0-8.828-3.952-8.828-8.828c0-4.875,3.952-8.828,8.828-8.828
			h88.276c4.875,0,8.828,3.952,8.828,8.828C291.31,402.117,287.358,406.069,282.483,406.069z"/>
		<path style="fill:#41767F;" d="M317.793,203.034h-88.276c-4.875,0-8.828-3.952-8.828-8.828s3.952-8.828,8.828-8.828h79.448
			v-70.621c0-4.875,3.952-8.828,8.828-8.828s8.828,3.952,8.828,8.828v79.448c0.001,2.341-0.929,4.587-2.585,6.243
			C322.38,202.105,320.135,203.035,317.793,203.034z"/>
		<path style="fill:#41767F;" d="M194.207,308.966c-2.341,0.001-4.587-0.929-6.243-2.585c-1.656-1.656-2.585-3.901-2.585-6.243
			v-97.103c0-4.875,3.952-8.828,8.828-8.828s8.828,3.952,8.828,8.828v97.103c0.001,2.341-0.929,4.587-2.585,6.243
			C198.794,308.036,196.548,308.966,194.207,308.966z"/>
		<path style="fill:#41767F;" d="M317.793,397.241c-2.341,0.001-4.587-0.929-6.243-2.585c-1.656-1.656-2.585-3.901-2.585-6.243
			v-70.621h-70.621c-4.875,0-8.828-3.952-8.828-8.828s3.952-8.828,8.828-8.828h79.448c2.341-0.001,4.587,0.929,6.243,2.585
			c1.656,1.656,2.585,3.901,2.585,6.243v79.448c0.001,2.341-0.929,4.587-2.585,6.243
			C322.38,396.312,320.135,397.242,317.793,397.241z"/>
	</g>
	<g>
		<circle style="fill:#71C285;" cx="167.724" cy="105.931" r="26.483"/>
		<circle style="fill:#71C285;" cx="167.724" cy="397.241" r="26.483"/>
	</g>
	<path style="fill:#F0C419;" d="M273.655,79.448h88.276c4.875,0,8.828,3.952,8.828,8.828v35.31c0,4.875-3.952,8.828-8.828,8.828
		h-88.276c-4.875,0-8.828-3.952-8.828-8.828v-35.31C264.828,83.401,268.78,79.448,273.655,79.448z"/>
	<path style="fill:#CC4B4C;" d="M150.069,167.724h88.276c4.875,0,8.828,3.952,8.828,8.828v35.31c0,4.875-3.952,8.828-8.828,8.828
		h-88.276c-4.875,0-8.828-3.952-8.828-8.828v-35.31C141.241,171.676,145.194,167.724,150.069,167.724z"/>
	<polygon style="fill:#F0C419;" points="229.517,335.448 141.241,335.448 158.897,282.483 247.172,282.483 	"/>
	<polygon style="fill:#CC4B4C;" points="317.793,423.724 370.759,397.241 317.793,370.759 264.828,397.241 	"/>
</g>
<g>
</g>
<g>
</g>
<g>
</g>
<g>
</g>
<g>
</g>
<g>
</g>
<g>
</g>
<g>
</g>
<g>
</g>
<g>
</g>
<g>
</g>
<g>
</g>
<g>
</g>
<g>
</g>
<g>
</g>
</svg>
