<?xml version="1.0" encoding="iso-8859-1"?>
<!-- Generator: Adobe Illustrator 19.0.0, SVG Export Plug-In . SVG Version: 6.00 Build 0)  -->
<svg version="1.1" id="Capa_1" xmlns="http://www.w3.org/2000/svg" xmlns:xlink="http://www.w3.org/1999/xlink" x="0px" y="0px"
	 viewBox="0 0 512 512" style="enable-background:new 0 0 512 512;" xml:space="preserve">
<g>
	<path style="fill:#67B9CC;" d="M238.333,141.242V70.621c-0.014-4.869-3.958-8.813-8.828-8.828H123.575l1.324-35.31h104.607
		c9.556-0.038,18.861,3.063,26.483,8.828c7.622-5.764,16.926-8.866,26.483-8.828l114.759,0v35.311H282.471
		c-4.869,0.014-8.813,3.958-8.828,8.828v70.621H238.333z"/>
	<g>
		<rect x="238.336" y="88.276" style="fill:#41767F;" width="35.31" height="52.966"/>
		<polygon style="fill:#41767F;" points="185.371,26.483 185.371,61.793 123.578,61.793 124.902,26.483 		"/>
		<rect x="335.44" y="26.483" style="fill:#41767F;" width="61.793" height="35.31"/>
	</g>
	<g>
		<path style="fill:#A5A5A4;" d="M229.506,123.587h52.966c9.751,0,17.655,7.904,17.655,17.655v52.966h-88.276v-52.966
			C211.851,131.491,219.755,123.587,229.506,123.587z"/>
		<path style="fill:#A5A5A4;" d="M344.276,512c-22.51-7.415-19.686-39.548-18.185-49.788H185.898
			c1.501,10.24,4.326,42.372-18.185,49.788H344.276z"/>
		<path style="fill:#A5A5A4;" d="M361.49,296.96c7.535-9.467,21.184-11.334,30.985-4.237c4.584,4.966,6.136,12.018,4.061,18.45
			c-2.551,10.096-6.099,19.914-10.593,29.308c-2.445,8.879-6.289,17.312-11.388,24.982c-2.263,2.977-5.669,4.872-9.392,5.224
			c-3.723,0.352-7.424-0.87-10.205-3.37H157.031c-2.781,2.5-6.482,3.722-10.205,3.37c-3.723-0.352-7.129-2.247-9.392-5.224
			c-5.098-7.67-8.942-16.103-11.388-24.982c-4.494-9.394-8.043-19.211-10.593-29.308c-2.076-6.432-0.524-13.484,4.061-18.45
			c9.801-7.097,23.449-5.23,30.985,4.237H361.49z"/>
	</g>
	<path style="fill:#D1D4D1;" d="M361.92,273.655c0,12.535-0.441,25.159-1.059,37.694c-0.53,10.593-1.236,21.186-2.472,31.691
		c-1.942,16.772-5.031,33.368-7.327,50.052c-1.815,15.792-5.672,31.281-11.476,46.08c-3.798,10.077-9.662,19.248-17.214,26.924
		c-6.921,6.147-14.234,11.838-21.892,17.037c-7.327,5.208-13.948,11.476-21.363,16.331c-7.207,3.389-15.224,4.674-23.128,3.708
		c-7.905,0.966-15.922-0.319-23.128-3.708c-7.415-4.855-14.036-11.122-21.363-16.331c-7.658-5.2-14.971-10.891-21.892-17.037
		c-7.552-7.677-13.415-16.848-17.213-26.924c-5.804-14.799-9.661-30.288-11.476-46.08c-2.295-16.684-5.385-33.28-7.327-50.052
		c-1.148-10.505-1.942-21.098-2.472-31.691c-0.618-12.535-1.059-25.159-1.059-37.694c0-65.501,29.749-93.837,57.732-105.931h96.397
		C332.171,179.818,361.92,208.155,361.92,273.655z"/>
	<path style="fill:#41767F;" d="M361.92,273.655c-9.601-12.495-21.607-22.94-35.31-30.72c-5.451-2.876-11.494-4.447-17.655-4.59
		c-6.015-0.038-11.99,0.978-17.655,3.001c-6.145,2.462-12.054,5.476-17.655,9.004c-5.285,3.405-11.375,5.354-17.655,5.65
		c-6.28-0.295-12.37-2.244-17.655-5.65c-5.601-3.528-11.51-6.542-17.655-9.004c-5.665-2.023-11.64-3.039-17.655-3.001
		c-6.161,0.143-12.205,1.715-17.655,4.59c-13.703,7.78-25.709,18.225-35.31,30.72c0-65.501,29.749-93.837,57.732-105.931h96.397
		C332.171,179.818,361.92,208.155,361.92,273.655z"/>
	<g>
		<path style="fill:#A5A5A4;" d="M247.066,335.63c0.058-4.82-3.731-8.811-8.547-9.004c-7.995-1.211-15.698-3.89-22.72-7.901
			c-9.319-5.414-19.701-8.743-30.431-9.759c-4.786,0.008-8.677,3.861-8.733,8.647c-0.058,4.82,3.731,8.811,8.547,9.004
			c7.995,1.211,15.698,3.89,22.72,7.901c9.319,5.414,19.701,8.743,30.431,9.759C243.119,344.268,247.011,340.415,247.066,335.63z"/>
		<path style="fill:#A5A5A4;" d="M326.609,308.966c-10.73,1.016-21.112,4.345-30.431,9.759c-6.975,3.966-14.609,6.641-22.534,7.897
			c-4.875,0-8.828,3.952-8.828,8.828s3.952,8.828,8.828,8.828c10.73-1.016,21.112-4.345,30.431-9.759
			c7.021-3.994,14.714-6.67,22.698-7.897c4.842-0.092,8.705-4.066,8.661-8.909C335.389,312.87,331.452,308.968,326.609,308.966z"/>
		<path style="fill:#A5A5A4;" d="M267.428,399.802c-3.09,3.2-7.079,5.386-11.44,6.268c-4.356-0.881-8.342-3.063-11.431-6.259
			c-3.453-3.433-9.035-3.421-12.473,0.027c-3.439,3.448-3.435,9.029,0.008,12.473c6.382,6.488,14.84,10.527,23.897,11.414
			c9.057-0.887,17.515-4.927,23.896-11.414c3.44-3.442,3.445-9.02,0.011-12.468C276.462,396.394,270.885,396.376,267.428,399.802
			L267.428,399.802z"/>
	</g>
	<g>
		<path style="fill:#67B9CC;" d="M211.851,203.035v8.828c-0.017,2.34-0.934,4.584-2.56,6.268l-6.268,6.179v14.036
			c-6.161,0.143-12.205,1.715-17.655,4.59V220.69c0.017-2.34,0.934-4.584,2.56-6.268l6.268-6.179v-5.208
			c0-4.875,3.952-8.828,8.828-8.828C207.898,194.207,211.851,198.159,211.851,203.035z"/>
		<path style="fill:#67B9CC;" d="M247.161,194.207v17.655c-0.017,2.34-0.934,4.584-2.56,6.268l-6.268,6.179v26.041
			c-5.601-3.528-11.51-6.542-17.655-9.004V220.69c0.017-2.34,0.934-4.584,2.56-6.268l6.268-6.179v-14.036
			c0-4.875,3.952-8.828,8.828-8.828C243.209,185.38,247.161,189.332,247.161,194.207z"/>
		<path style="fill:#67B9CC;" d="M326.609,220.69v22.246c-5.451-2.876-11.494-4.447-17.655-4.59v-14.036l-6.268-6.179
			c-1.626-1.683-2.543-3.927-2.56-6.268v-8.828c0-4.875,3.952-8.828,8.828-8.828s8.828,3.952,8.828,8.828v5.208l6.268,6.179
			C325.675,216.106,326.592,218.35,326.609,220.69z"/>
		<path style="fill:#67B9CC;" d="M291.299,220.69v20.657c-6.145,2.462-12.054,5.476-17.655,9.004v-26.041l-6.268-6.179
			c-1.626-1.683-2.543-3.927-2.56-6.268v-17.655c0-4.875,3.952-8.828,8.828-8.828s8.828,3.952,8.828,8.828v14.036l6.268,6.179
			C290.365,216.106,291.282,218.35,291.299,220.69z"/>
	</g>
	<path style="fill:#FDD7AD;" d="M494.345,0H388.414c-9.751,0-17.655,7.904-17.655,17.655v141.241
		c0,9.751,7.904,17.655,17.655,17.655h105.931v-35.31"/>
	<path style="fill:#CC4B4C;" d="M388.414,0H512v123.586c0,9.751-7.905,17.655-17.655,17.655H370.759V17.655
		C370.759,7.905,378.663,0,388.414,0z"/>
	<g>
		<path style="fill:#ECF0F1;" d="M432.552,44.138h-26.483c-4.875,0-8.828-3.952-8.828-8.828s3.952-8.828,8.828-8.828h26.483
			c4.875,0,8.828,3.952,8.828,8.828S437.427,44.138,432.552,44.138z"/>
		<path style="fill:#ECF0F1;" d="M467.862,44.138c-2.34-0.017-4.585-0.933-6.268-2.56c-3.414-3.481-3.414-9.054,0-12.534
			c3.539-3.267,8.995-3.267,12.534,0c0.779,0.857,1.406,1.841,1.854,2.909c0.453,1.062,0.693,2.203,0.707,3.357
			c0.023,2.348-0.9,4.607-2.56,6.267C472.469,43.238,470.21,44.161,467.862,44.138z"/>
	</g>
	<path style="fill:#CC66A1;" d="M165.076,110.558c3.501,4.509,5.398,10.059,5.388,15.768c-0.009,12.737-9.275,23.578-21.856,25.569
		c-0.12,0.647-0.272,1.287-0.457,1.918c-0.073,0.373-0.175,0.739-0.304,1.096c-0.213,0.778-0.478,1.54-0.791,2.283
		c-0.215,0.594-0.469,1.174-0.761,1.735c-0.117,0.316-0.259,0.621-0.426,0.913c-0.203,0.452-0.437,0.889-0.7,1.309
		c-0.122,0.243-0.274,0.487-0.426,0.731c-0.505,0.84-1.054,1.652-1.644,2.435c-0.365,0.487-0.731,0.944-1.096,1.4
		c-1.504,1.784-3.21,3.388-5.084,4.779c-0.396,0.304-0.791,0.578-1.187,0.852c-1.222,0.825-2.504,1.557-3.835,2.192
		c-0.853,0.419-1.727,0.795-2.618,1.126c-0.578,0.213-1.156,0.396-1.735,0.578c-0.396,0.122-0.822,0.243-1.218,0.335
		c-0.981,0.264-1.977,0.468-2.983,0.609c-0.365,0.061-0.761,0.122-1.156,0.152c-1.151,0.149-2.31,0.22-3.471,0.213
		c-16.809-0.006-30.434-13.631-30.44-30.44c-0.006,16.809-13.631,30.434-30.44,30.44c-1.16,0.007-2.319-0.064-3.47-0.213
		c-0.396-0.03-0.791-0.091-1.156-0.152c-1.006-0.142-2.002-0.345-2.983-0.609c-0.396-0.091-0.822-0.213-1.218-0.335
		c-0.578-0.183-1.156-0.365-1.735-0.578c-0.891-0.331-1.765-0.707-2.618-1.126c-1.331-0.635-2.613-1.367-3.835-2.192
		c-0.396-0.274-0.791-0.548-1.187-0.852c-1.873-1.392-3.579-2.995-5.084-4.779c-0.365-0.457-0.73-0.913-1.096-1.4
		c-0.59-0.783-1.138-1.596-1.644-2.435c-0.152-0.244-0.304-0.487-0.426-0.731c-0.263-0.42-0.497-0.857-0.7-1.309
		c-0.167-0.292-0.309-0.598-0.426-0.913c-0.292-0.561-0.546-1.14-0.761-1.735c-0.314-0.743-0.578-1.505-0.791-2.283
		c-0.13-0.357-0.231-0.723-0.304-1.096c-0.184-0.631-0.337-1.271-0.457-1.918c-12.58-1.991-21.847-12.832-21.856-25.569
		c-0.01-5.709,1.886-11.258,5.387-15.768C3.629,104.956-0.695,95.641,0.091,86.031s6.567-18.098,15.22-22.35
		c-2.068-3.636-3.149-7.75-3.135-11.932c-0.002-6.459,2.563-12.654,7.131-17.221s10.762-7.132,17.221-7.131h0.03
		c-0.03-0.518-0.03-1.005-0.03-1.522C36.528,11.584,48.112,0,62.402,0s25.874,11.584,25.874,25.874C88.276,11.584,99.86,0,114.15,0
		s25.874,11.584,25.874,25.874c0,0.517,0,1.004-0.03,1.522h0.03c6.459-0.002,12.654,2.563,17.221,7.131s7.132,10.762,7.131,17.221
		c0.014,4.183-1.067,8.297-3.135,11.932c8.653,4.252,14.434,12.741,15.22,22.351S172.923,104.956,165.076,110.558z"/>
</g>
<g>
</g>
<g>
</g>
<g>
</g>
<g>
</g>
<g>
</g>
<g>
</g>
<g>
</g>
<g>
</g>
<g>
</g>
<g>
</g>
<g>
</g>
<g>
</g>
<g>
</g>
<g>
</g>
<g>
</g>
</svg>
