<?xml version="1.0" encoding="iso-8859-1"?>
<!-- Generator: Adobe Illustrator 19.0.0, SVG Export Plug-In . SVG Version: 6.00 Build 0)  -->
<svg version="1.1" id="Capa_1" xmlns="http://www.w3.org/2000/svg" xmlns:xlink="http://www.w3.org/1999/xlink" x="0px" y="0px"
	 viewBox="0 0 512.007 512.007" style="enable-background:new 0 0 512.007 512.007;" xml:space="preserve">
<g transform="translate(-1)">
	<path style="fill:#95A5A5;" d="M509.123,300.141c5.179-29.197,5.179-59.078,0-88.276h-54.025
		c-5.039-22.989-14.126-44.899-26.836-64.706l38.223-38.223c-16.979-24.306-38.105-45.432-62.411-62.411l-38.223,38.223
		c-19.808-12.71-41.717-21.796-64.706-26.836V3.887c-29.197-5.179-59.078-5.179-88.276,0v504.232
		c29.197,5.179,59.078,5.179,88.276,0v-54.025c22.989-5.039,44.899-14.126,64.706-26.836l38.223,38.223
		c24.306-16.979,45.432-38.105,62.411-62.411l-38.223-38.223c12.71-19.808,21.797-41.717,26.836-64.706H509.123z M257.007,203.038
		c29.252,0,52.966,23.713,52.966,52.966s-23.713,52.966-52.966,52.966V203.038z"/>
	<path style="fill:#BDC3C7;" d="M371.766,256.003c0.001,30.436-12.089,59.626-33.611,81.148
		c-21.522,21.522-50.711,33.612-81.148,33.611v-61.793c29.252,0,52.966-23.713,52.966-52.966s-23.713-52.966-52.966-52.966v-61.793
		c30.436-0.001,59.626,12.089,81.148,33.611C359.676,196.377,371.767,225.567,371.766,256.003z"/>
	<path style="fill:#CC66A1;" d="M257.007,75.038v348.69c-0.018,48.746-39.53,88.258-88.276,88.276
		c-3.365,0.019-6.727-0.187-10.063-0.618c-1.148-0.088-2.295-0.265-3.354-0.441c-2.917-0.41-5.806-1-8.651-1.766
		c-1.148-0.265-2.383-0.618-3.531-0.971c-1.677-0.53-3.354-1.059-5.031-1.677c-2.584-0.961-5.118-2.051-7.592-3.266
		c-3.86-1.84-7.578-3.965-11.123-6.356c-1.147-0.794-2.295-1.589-3.442-2.472c-5.432-4.035-10.379-8.686-14.742-13.859
		c-1.059-1.324-2.119-2.648-3.178-4.061c-1.71-2.27-3.301-4.627-4.767-7.062c-0.441-0.706-0.883-1.412-1.236-2.119
		c-0.763-1.217-1.441-2.486-2.03-3.796c-0.484-0.847-0.897-1.733-1.236-2.648c-0.846-1.627-1.583-3.308-2.207-5.032
		c-0.909-2.154-1.676-4.366-2.295-6.621c-0.376-1.035-0.671-2.097-0.883-3.178c-0.289-0.831-0.496-1.689-0.618-2.56
		c-0.287-0.988-0.523-1.989-0.706-3.001c-1.059-0.177-2.119-0.353-3.09-0.618c-35.053-7.012-60.286-37.787-60.293-73.534
		c-0.01-4.143,0.345-8.278,1.059-12.359c0.268-1.694,0.622-3.373,1.059-5.032c0.489-2.433,1.168-4.823,2.03-7.15
		c0.618-1.942,1.412-3.884,2.207-5.738c1.661-3.678,3.609-7.22,5.826-10.593c1.059-1.677,2.207-3.266,3.443-4.855
		c-20.894-14.887-33.294-38.963-33.28-64.618c-0.029-1.562,0.03-3.124,0.177-4.679c0.001-1.153,0.089-2.304,0.265-3.443
		c0.088-1.324,0.265-2.648,0.441-3.972c0.265-1.677,0.618-3.354,0.971-4.943c0.346-1.796,0.818-3.566,1.412-5.297
		c2.182-7.769,5.61-15.133,10.152-21.804h0.088c-0.012-0.097,0.021-0.194,0.088-0.265c2.227-3.357,4.737-6.517,7.503-9.446
		c0.69-0.808,1.427-1.574,2.207-2.295c6.138-6.2,13.269-11.332,21.098-15.183c-5.998-10.544-9.132-22.474-9.092-34.604
		c-0.005-18.731,7.433-36.697,20.679-49.942s31.211-20.684,49.942-20.679h0.088c-0.088-1.501-0.088-2.913-0.088-4.414
		c0-41.44,33.594-75.034,75.034-75.034S257.007,33.597,257.007,75.038z"/>
	<g>
		<path style="fill:#804169;" d="M185.693,114.762c-3.157,0.004-6.075-1.679-7.651-4.414
			c-11.046-19.079-31.403-30.846-53.448-30.897c-4.875,0-8.828-3.952-8.828-8.828s3.952-8.828,8.828-8.828
			c28.35,0.058,54.529,15.189,68.733,39.724c1.575,2.73,1.576,6.092,0.002,8.822S188.844,114.757,185.693,114.762z"/>
		<path style="fill:#804169;" d="M63.072,176.555c-4.107,0.003-7.673-2.826-8.605-6.825c-0.931-4,1.018-8.113,4.704-9.925
			c12.11-5.971,25.437-9.06,38.94-9.026c4.875,0,8.828,3.952,8.828,8.828s-3.952,8.828-8.828,8.828
			c-10.803-0.03-21.466,2.44-31.155,7.215C65.748,176.246,64.419,176.556,63.072,176.555z"/>
		<path style="fill:#804169;" d="M53.979,347.381c-2.814-0.005-5.458-1.348-7.12-3.619c-1.662-2.271-2.144-5.197-1.298-7.881
			c0.703-2.22,1.599-4.444,2.513-6.56c1.816-4.235,4.041-8.283,6.642-12.086c1.157-1.949,2.478-3.796,3.948-5.522
			c10.465-13.753,25.01-23.846,41.556-28.836c3.02-0.929,6.307-0.173,8.617,1.983c2.31,2.156,3.292,5.382,2.574,8.46
			c-0.718,3.077-3.027,5.536-6.053,6.446c-13.11,3.979-24.622,12.01-32.883,22.94c-1.054,1.235-2.003,2.555-2.836,3.948
			c-2.088,3.029-3.877,6.254-5.341,9.629c-0.69,1.603-1.379,3.267-1.909,4.935C61.226,344.884,57.825,347.376,53.979,347.381z"/>
		<path style="fill:#804169;" d="M99.693,423.727c-4.214-0.004-7.837-2.986-8.651-7.121c-5.192-26.934,1.227-54.808,17.677-76.759
			c1.895-2.529,4.997-3.851,8.134-3.468c3.137,0.383,5.829,2.414,7.06,5.324c1.231,2.91,0.812,6.257-1.098,8.774
			c-13.421,17.943-18.668,40.708-14.453,62.716c0.454,2.297-0.024,4.68-1.328,6.624s-3.328,3.291-5.625,3.742
			C100.843,423.672,100.269,423.728,99.693,423.727z"/>
	</g>
	<g>
		<path style="fill:#D1D4D1;" d="M257.007,120.676v29.308L224.08,193.68c-3.31,4.543-8.591,7.233-14.212,7.239
			c-2.459-0.021-4.89-0.531-7.15-1.501l-38.841-17.037c-2.902-1.262-4.91-3.975-5.268-7.119c-0.358-3.144,0.988-6.239,3.531-8.121
			c2.543-1.882,5.897-2.264,8.799-1.003l38.93,17.126L257.007,120.676z"/>
		<path style="fill:#D1D4D1;" d="M257.007,229.52v17.655h-88.276c-4.875,0-8.828-3.952-8.828-8.828s3.952-8.828,8.828-8.828H257.007
			z"/>
		<path style="fill:#D1D4D1;" d="M257.007,282.486v17.655h-35.31c-4.875,0-8.828-3.952-8.828-8.828s3.952-8.828,8.828-8.828H257.007
			z"/>
		<path style="fill:#D1D4D1;" d="M257.007,335.451v17.655H175.97l-7.415,37.076c-0.827,4.118-4.451,7.077-8.651,7.062
			c-0.592-0.019-1.182-0.078-1.766-0.177c-2.298-0.461-4.318-1.82-5.61-3.775c-1.293-1.956-1.752-4.346-1.275-6.641l7.415-36.988
			c1.65-8.252,8.887-14.197,17.302-14.212H257.007z"/>
	</g>
	<g>
		<circle style="fill:#67B9CC;" cx="151.076" cy="167.727" r="17.655"/>
		<circle style="fill:#67B9CC;" cx="151.076" cy="238.348" r="17.655"/>
		<circle style="fill:#67B9CC;" cx="204.042" cy="291.313" r="17.655"/>
		<circle style="fill:#67B9CC;" cx="159.904" cy="406.072" r="17.655"/>
	</g>
</g>
<g>
</g>
<g>
</g>
<g>
</g>
<g>
</g>
<g>
</g>
<g>
</g>
<g>
</g>
<g>
</g>
<g>
</g>
<g>
</g>
<g>
</g>
<g>
</g>
<g>
</g>
<g>
</g>
<g>
</g>
</svg>
