<?xml version="1.0" encoding="iso-8859-1"?>
<!-- Generator: Adobe Illustrator 19.0.0, SVG Export Plug-In . SVG Version: 6.00 Build 0)  -->
<svg version="1.1" id="Capa_1" xmlns="http://www.w3.org/2000/svg" xmlns:xlink="http://www.w3.org/1999/xlink" x="0px" y="0px"
	 viewBox="0 0 512 512" style="enable-background:new 0 0 512 512;" xml:space="preserve">
<g>
	<path style="fill:#35495E;" d="M141.241,0h229.517c19.501,0,35.31,15.809,35.31,35.31V476.69c0,19.501-15.809,35.31-35.31,35.31
		H141.241c-19.501,0-35.31-15.809-35.31-35.31V35.31C105.931,15.809,121.74,0,141.241,0z"/>
	<g>
		<path style="fill:#BDC3C7;" d="M308.966,485.517H203.034c-4.875,0-8.828-3.952-8.828-8.828s3.952-8.828,8.828-8.828h105.931
			c4.875,0,8.828,3.952,8.828,8.828S313.841,485.517,308.966,485.517z"/>
		<path style="fill:#BDC3C7;" d="M298.054,35.31h-84.108c-6.687,0-12.801-3.778-15.791-9.76L185.379,0h141.241l-12.775,25.551
			C310.855,31.532,304.741,35.31,298.054,35.31z"/>
	</g>
	<path style="fill:#A5A5A4;" d="M335.448,344.276h8.828c14.626,0,26.483,11.857,26.483,26.483v70.621H141.241v-70.621
		c0-14.626,11.857-26.483,26.483-26.483H335.448z"/>
	<g>
		<rect x="229.517" y="247.172" style="fill:#BDC3C7;" width="52.966" height="88.276"/>
		<path style="fill:#BDC3C7;" d="M245.897,160.931c-3.57-0.001-6.788-2.152-8.154-5.45c-1.366-3.298-0.611-7.094,1.913-9.619
			l28.582-29.345L240.69,99.862c-2.706-1.62-4.342-4.56-4.292-7.714c0.05-3.153,1.779-6.04,4.534-7.573
			c2.756-1.533,6.12-1.48,8.826,0.14l37.259,22.47c2.334,1.396,3.894,3.791,4.228,6.49c0.333,2.7-0.597,5.402-2.522,7.324
			l-36.586,37.345C250.484,160.003,248.238,160.934,245.897,160.931z"/>
	</g>
	<g>
		<path style="fill:#41767F;" d="M176.552,167.724v70.621c-19.501,0-35.31-15.809-35.31-35.31S157.05,167.724,176.552,167.724z"/>
		<path style="fill:#41767F;" d="M335.448,238.345v-70.621c19.501,0,35.31,15.809,35.31,35.31S354.95,238.345,335.448,238.345z"/>
	</g>
	<path style="fill:#D1D4D1;" d="M194.207,141.241h123.586c9.751,0,17.655,7.904,17.655,17.655v88.276
		c0,9.751-7.904,17.655-17.655,17.655H194.207c-9.751,0-17.655-7.904-17.655-17.655v-88.276
		C176.552,149.146,184.456,141.241,194.207,141.241z"/>
	<path style="fill:#41767F;" d="M299.336,238.345h-86.672c-4.875,0-8.828-3.952-8.828-8.828s3.952-8.828,8.828-8.828h86.672
		c4.875,0,8.828,3.952,8.828,8.828S304.212,238.345,299.336,238.345z"/>
	<circle style="fill:#46B29D;" cx="238.345" cy="88.276" r="17.655"/>
	<path style="fill:#D1D4D1;" d="M194.207,317.793h123.586c9.751,0,17.655,7.905,17.655,17.655v105.931H176.552V335.448
		C176.552,325.698,184.456,317.793,194.207,317.793z"/>
	<path style="fill:#41767F;" d="M300.138,361.931v79.448h-88.276v-79.448c0-4.875,3.952-8.828,8.828-8.828h70.621
		C296.186,353.103,300.138,357.056,300.138,361.931z"/>
	<g>
		<path style="fill:#46B29D;" d="M220.69,203.034c-4.875,0-8.828-3.952-8.828-8.828v-17.655c0-4.875,3.952-8.828,8.828-8.828
			s8.828,3.952,8.828,8.828v17.655C229.517,199.082,225.565,203.034,220.69,203.034z"/>
		<path style="fill:#46B29D;" d="M291.31,203.034c-4.875,0-8.828-3.952-8.828-8.828v-17.655c0-4.875,3.952-8.828,8.828-8.828
			s8.828,3.952,8.828,8.828v17.655C300.138,199.082,296.186,203.034,291.31,203.034z"/>
	</g>
</g>
<g>
</g>
<g>
</g>
<g>
</g>
<g>
</g>
<g>
</g>
<g>
</g>
<g>
</g>
<g>
</g>
<g>
</g>
<g>
</g>
<g>
</g>
<g>
</g>
<g>
</g>
<g>
</g>
<g>
</g>
</svg>
