<?xml version="1.0" encoding="iso-8859-1"?>
<!-- Generator: Adobe Illustrator 19.0.0, SVG Export Plug-In . SVG Version: 6.00 Build 0)  -->
<svg version="1.1" id="Capa_1" xmlns="http://www.w3.org/2000/svg" xmlns:xlink="http://www.w3.org/1999/xlink" x="0px" y="0px"
	 viewBox="0 0 512.019 512.019" style="enable-background:new 0 0 512.019 512.019;" xml:space="preserve">
<g transform="translate(0 -1)">
	<path style="fill:#CC4B4C;" d="M476.699,133.433h26.483c4.875,0,8.828,3.952,8.828,8.828v326.621c0,4.875-3.952,8.828-8.828,8.828
		H299.265c-4.199,20.551-22.279,35.31-43.255,35.31s-39.056-14.759-43.255-35.31H8.837c-4.875,0-8.828-3.952-8.828-8.828V142.261
		c0-4.875,3.952-8.828,8.828-8.828H476.699z"/>
	<path style="fill:#CBB292;" d="M476.699,106.951v335.448c0-14.654-49.434-26.483-110.345-26.483
		c-45.55,0-84.657,6.621-101.517,16.066c-5.65,3.178-8.828,6.708-8.828,10.417c0-3.708-3.178-7.239-8.828-10.417
		c-16.861-9.446-55.967-16.066-101.517-16.066c-60.91,0-110.345,11.829-110.345,26.483V106.951
		c0-11.476,30.543-21.274,73.092-24.982h295.195C446.156,85.676,476.699,95.475,476.699,106.951z"/>
	<path style="fill:#7F6E5D;" d="M264.837,265.847v166.135c-5.65,3.178-8.828,6.708-8.828,10.417c0-3.708-3.178-7.239-8.828-10.417
		V265.847c0-4.875,3.952-8.828,8.828-8.828S264.837,260.972,264.837,265.847z"/>
	<path style="fill:#CC66A1;" d="M419.673,239.011c0.462,2.772,0.698,5.576,0.706,8.386c-0.263,25.113-18.83,46.268-43.697,49.788
		c-0.265,1.324-0.53,2.56-0.883,3.796c-0.177,0.706-0.441,1.412-0.618,2.119c-0.437,1.503-0.967,2.977-1.589,4.414
		c-0.456,1.18-0.987,2.33-1.589,3.443c-0.207,0.613-0.473,1.204-0.794,1.766c-0.441,0.883-0.883,1.677-1.412,2.56
		c-0.262,0.49-0.557,0.962-0.883,1.412c-0.986,1.657-2.077,3.249-3.266,4.767c-0.706,0.883-1.412,1.854-2.207,2.737
		c-3.016,3.47-6.423,6.58-10.152,9.269c-0.794,0.618-1.589,1.148-2.383,1.677c-2.44,1.62-5.008,3.037-7.68,4.237
		c-1.679,0.863-3.42,1.601-5.208,2.207c-1.148,0.441-2.295,0.794-3.443,1.148c-0.813,0.248-1.638,0.454-2.472,0.618
		c-1.96,0.589-3.969,1.003-6.003,1.236c-0.759,0.137-1.525,0.225-2.295,0.265c-2.28,0.328-4.582,0.476-6.885,0.441
		c-21.133,0.09-40.819-10.721-52.083-28.601c-5.786-9.2-8.847-19.852-8.828-30.72c0.044,10.872-3.019,21.53-8.828,30.72
		c-11.264,17.88-30.95,28.691-52.083,28.601c-2.303,0.035-4.606-0.113-6.886-0.441c-0.77-0.04-1.536-0.128-2.295-0.265
		c-2.034-0.233-4.042-0.646-6.003-1.236c-0.834-0.164-1.659-0.37-2.472-0.618c-1.148-0.353-2.295-0.706-3.443-1.148
		c-1.788-0.606-3.529-1.344-5.208-2.207c-2.672-1.2-5.24-2.617-7.68-4.237c-0.794-0.53-1.589-1.059-2.383-1.677
		c-3.729-2.689-7.136-5.799-10.152-9.269c-0.794-0.883-1.501-1.854-2.207-2.737c-1.189-1.518-2.28-3.11-3.266-4.767
		c-0.326-0.45-0.62-0.922-0.883-1.412c-0.53-0.883-0.971-1.677-1.412-2.56c-0.321-0.561-0.587-1.153-0.794-1.766
		c-0.602-1.113-1.133-2.263-1.589-3.443c-0.621-1.437-1.152-2.911-1.589-4.414c-0.177-0.706-0.441-1.412-0.618-2.119
		c-0.353-1.236-0.618-2.472-0.883-3.796c-24.866-3.519-43.434-24.675-43.697-49.788c0.008-2.81,0.244-5.614,0.706-8.386
		c0.177-1.059,0.441-2.207,0.706-3.354c0.365-1.618,0.837-3.211,1.412-4.767c0.438-1.33,0.969-2.628,1.589-3.884
		c1.15-2.476,2.478-4.866,3.972-7.15c0.715-1.145,1.511-2.236,2.383-3.266c-14.318-9.83-22.897-26.064-22.952-43.432
		c0-1.059,0.088-2.119,0.088-3.178c0.018-0.768,0.077-1.534,0.177-2.295c0.088-0.883,0.265-1.766,0.353-2.648
		c0.177-1.148,0.441-2.295,0.618-3.354c0.272-1.2,0.626-2.38,1.059-3.531c2.315-7.951,6.525-15.222,12.27-21.186
		c0.441-0.53,0.971-1.059,1.501-1.589c4.262-4.165,9.183-7.595,14.566-10.152c-4.144-7.064-6.309-15.115-6.268-23.305
		c0.345-26.569,22.159-47.83,48.728-47.492v-2.913c0.159-13.557,5.7-26.495,15.402-35.966c9.702-9.47,22.771-14.697,36.328-14.528
		c16.294-0.43,31.964,6.276,42.902,18.361c5.81,6.915,8.942,15.686,8.828,24.717c-0.115-9.031,3.018-17.802,8.828-24.717
		C275.775,7.296,291.445,0.59,307.739,1.019c13.557-0.169,26.625,5.057,36.328,14.528c9.702,9.47,15.243,22.409,15.402,35.966v2.913
		c12.861-0.047,25.226,4.962,34.428,13.948c9.132,8.77,14.296,20.883,14.301,33.545c0.042,8.19-2.123,16.24-6.268,23.305
		c5.382,2.557,10.304,5.987,14.566,10.152c0.53,0.53,1.059,1.059,1.501,1.589c5.745,5.965,9.956,13.235,12.27,21.186
		c0.434,1.151,0.788,2.331,1.059,3.531c0.177,1.059,0.441,2.207,0.618,3.354c0.088,0.883,0.265,1.766,0.353,2.648
		c0.099,0.761,0.158,1.528,0.177,2.295c0,1.059,0.088,2.119,0.088,3.178c-0.055,17.368-8.634,33.602-22.952,43.432
		c0.872,1.03,1.669,2.121,2.383,3.266c1.495,2.285,2.822,4.674,3.972,7.15c0.62,1.256,1.151,2.554,1.589,3.884
		c0.575,1.556,1.047,3.149,1.412,4.767C419.232,236.804,419.497,237.952,419.673,239.011z"/>
	<g>
		<path style="fill:#804169;" d="M329.143,71.017c-4.016,0.005-7.529-2.702-8.549-6.586s0.712-7.967,4.212-9.935
			c8.726-4.936,18.587-7.515,28.612-7.483c4.875,0,8.828,3.952,8.828,8.828s-3.952,8.828-8.828,8.828
			c-6.993-0.025-13.872,1.774-19.957,5.22C332.143,70.629,330.656,71.018,329.143,71.017z"/>
		<path style="fill:#804169;" d="M397.566,212.258c-2.731,0.003-5.31-1.259-6.983-3.418c-5.434-6.904-12.882-11.946-21.31-14.427
			c-3.023-0.896-5.338-3.337-6.073-6.403c-0.735-3.066,0.221-6.291,2.509-8.461s5.559-2.954,8.582-2.058
			c11.968,3.537,22.538,10.712,30.241,20.53c2.064,2.661,2.434,6.264,0.954,9.289C404.006,210.335,400.934,212.255,397.566,212.258
			L397.566,212.258z"/>
		<path style="fill:#804169;" d="M391.693,268.678c0.369,7.655-1.488,14.824-9.496,14.824c-0.594,0.033-1.19-0.026-1.766-0.177
			c-2.714-0.546-5.007-2.348-6.179-4.855c-0.937-2.836-1.024-5.884-0.25-8.769c-0.062-4.693-1.11-9.321-3.076-13.583
			c-1.692-4.301-3.99-8.338-6.825-11.988c-2.491-3.202-2.454-7.697,0.088-10.858c0.432-0.564,0.937-1.069,1.501-1.501
			c1.844-1.442,4.189-2.086,6.511-1.788c2.322,0.299,4.428,1.515,5.847,3.377c4.608,5.927,8.187,12.587,10.587,19.701
			C390.308,258.118,391.335,263.365,391.693,268.678z"/>
		<path style="fill:#804169;" d="M185.682,71.017c4.016,0.005,7.529-2.702,8.549-6.586s-0.712-7.967-4.212-9.935
			c-8.726-4.936-18.587-7.515-28.612-7.483c-4.875,0-8.828,3.952-8.828,8.828s3.952,8.828,8.828,8.828
			c6.993-0.025,13.872,1.774,19.957,5.22C182.682,70.629,184.169,71.018,185.682,71.017z"/>
		<path style="fill:#804169;" d="M114.76,212.258c2.731,0.003,5.31-1.259,6.983-3.418c5.434-6.904,12.882-11.946,21.31-14.427
			c3.023-0.896,5.338-3.337,6.073-6.403c0.735-3.066-0.221-6.291-2.509-8.461s-5.559-2.954-8.582-2.058
			c-11.968,3.537-22.538,10.712-30.241,20.53c-2.064,2.661-2.434,6.264-0.954,9.289C108.32,210.335,111.392,212.255,114.76,212.258
			L114.76,212.258z"/>
		<path style="fill:#804169;" d="M120.632,268.678c-0.369,7.655,1.488,14.824,9.496,14.824c0.594,0.033,1.19-0.026,1.766-0.177
			c2.714-0.546,5.007-2.348,6.179-4.855c0.937-2.836,1.024-5.884,0.25-8.769c0.062-4.693,1.11-9.321,3.076-13.583
			c1.692-4.301,3.991-8.338,6.826-11.988c2.491-3.202,2.454-7.697-0.088-10.858c-0.432-0.564-0.937-1.069-1.501-1.501
			c-1.844-1.442-4.189-2.086-6.511-1.788c-2.322,0.299-4.428,1.515-5.847,3.377c-4.608,5.927-8.187,12.587-10.587,19.701
			C122.018,258.118,120.99,263.365,120.632,268.678z"/>
	</g>
	<g>
		<path style="fill:#D1D4D1;" d="M256.01,274.675h-52.966c-2.341,0.001-4.587-0.929-6.243-2.585
			c-1.656-1.656-2.585-3.901-2.585-6.243v-26.483c0-4.875,3.952-8.828,8.828-8.828s8.828,3.952,8.828,8.828v17.655h44.138
			c4.875,0,8.828,3.952,8.828,8.828S260.885,274.675,256.01,274.675z"/>
		<path style="fill:#D1D4D1;" d="M256.01,212.882h-44.138c-4.875,0-8.828-3.952-8.828-8.828s3.952-8.828,8.828-8.828h44.138
			c4.875,0,8.828,3.952,8.828,8.828S260.885,212.882,256.01,212.882z"/>
		<path style="fill:#D1D4D1;" d="M176.561,212.882h-8.828c-4.875,0-8.828-3.952-8.828-8.828s3.952-8.828,8.828-8.828h8.828
			c4.875,0,8.828,3.952,8.828,8.828S181.437,212.882,176.561,212.882z"/>
		<path style="fill:#D1D4D1;" d="M203.044,168.744h-44.138c-4.875,0-8.828-3.952-8.828-8.828s3.952-8.828,8.828-8.828h35.31v-8.828
			c-0.001-2.341,0.929-4.587,2.585-6.243c1.656-1.656,3.901-2.585,6.243-2.585h52.966c4.875,0,8.828,3.952,8.828,8.828
			c0,4.875-3.952,8.828-8.828,8.828h-44.138v8.828c0.001,2.341-0.929,4.587-2.585,6.243
			C207.631,167.814,205.386,168.744,203.044,168.744z"/>
		<path style="fill:#D1D4D1;" d="M256.01,106.951h-44.138c-4.875,0-8.828-3.952-8.828-8.828s3.952-8.828,8.828-8.828h44.138
			c4.875,0,8.828,3.952,8.828,8.828S260.885,106.951,256.01,106.951z"/>
		<path style="fill:#D1D4D1;" d="M176.561,106.951h-8.828c-4.875,0-8.828-3.952-8.828-8.828s3.952-8.828,8.828-8.828h8.828
			c4.875,0,8.828,3.952,8.828,8.828S181.437,106.951,176.561,106.951z"/>
		<path style="fill:#D1D4D1;" d="M256.01,71.64h-44.138c-2.341,0.001-4.587-0.929-6.243-2.585c-1.656-1.656-2.585-3.901-2.585-6.243
			V45.157c0-4.875,3.952-8.828,8.828-8.828s8.828,3.952,8.828,8.828v8.828h35.31c4.875,0,8.828,3.952,8.828,8.828
			C264.837,67.688,260.885,71.64,256.01,71.64z"/>
		<path style="fill:#D1D4D1;" d="M300.148,89.295c-2.341,0.001-4.587-0.929-6.243-2.585c-1.656-1.656-2.585-3.901-2.585-6.243V71.64
			h-35.31c-4.875,0-8.828-3.952-8.828-8.828c0-4.875,3.952-8.828,8.828-8.828h44.138c2.341-0.001,4.587,0.929,6.243,2.585
			c1.656,1.656,2.585,3.901,2.585,6.243v17.655c0.001,2.341-0.929,4.587-2.585,6.243C304.735,88.366,302.489,89.296,300.148,89.295z
			"/>
		<path style="fill:#D1D4D1;" d="M300.148,133.433H256.01c-4.875,0-8.828-3.952-8.828-8.828s3.952-8.828,8.828-8.828h44.138
			c4.875,0,8.828,3.952,8.828,8.828S305.023,133.433,300.148,133.433z"/>
		<path style="fill:#D1D4D1;" d="M344.286,133.433h-8.828c-4.875,0-8.828-3.952-8.828-8.828s3.952-8.828,8.828-8.828h8.828
			c4.875,0,8.828,3.952,8.828,8.828S349.161,133.433,344.286,133.433z"/>
		<path style="fill:#D1D4D1;" d="M308.975,195.226H256.01c-4.875,0-8.828-3.952-8.828-8.828s3.952-8.828,8.828-8.828h44.138v-17.655
			c-0.001-2.341,0.929-4.587,2.585-6.243c1.656-1.656,3.901-2.585,6.243-2.585h44.138c4.875,0,8.828,3.952,8.828,8.828
			s-3.952,8.828-8.828,8.828h-35.31v17.655c0.001,2.341-0.929,4.587-2.585,6.243C313.562,194.297,311.317,195.227,308.975,195.226z"
			/>
		<path style="fill:#D1D4D1;" d="M300.148,239.364H256.01c-4.875,0-8.828-3.952-8.828-8.828s3.952-8.828,8.828-8.828h44.138
			c4.875,0,8.828,3.952,8.828,8.828S305.023,239.364,300.148,239.364z"/>
		<path style="fill:#D1D4D1;" d="M344.286,239.364h-8.828c-4.875,0-8.828-3.952-8.828-8.828s3.952-8.828,8.828-8.828h8.828
			c4.875,0,8.828,3.952,8.828,8.828S349.161,239.364,344.286,239.364z"/>
		<path style="fill:#D1D4D1;" d="M300.148,301.157c-2.341,0.001-4.587-0.929-6.243-2.585c-1.656-1.656-2.585-3.901-2.585-6.243
			v-17.655h-35.31c-4.875,0-8.828-3.952-8.828-8.828s3.952-8.828,8.828-8.828h44.138c2.341-0.001,4.587,0.929,6.243,2.585
			c1.656,1.656,2.585,3.901,2.585,6.243v26.483c0.001,2.341-0.929,4.587-2.585,6.243
			C304.735,300.228,302.489,301.158,300.148,301.157z"/>
	</g>
	<path style="fill:#804169;" d="M264.837,19.381v297.313c-5.786-9.2-8.847-19.852-8.828-30.72c0.044,10.872-3.019,21.53-8.828,30.72
		V19.381c5.81,6.915,8.942,15.686,8.828,24.717C255.895,35.067,259.028,26.296,264.837,19.381z"/>
</g>
<g>
</g>
<g>
</g>
<g>
</g>
<g>
</g>
<g>
</g>
<g>
</g>
<g>
</g>
<g>
</g>
<g>
</g>
<g>
</g>
<g>
</g>
<g>
</g>
<g>
</g>
<g>
</g>
<g>
</g>
</svg>
