<?xml version="1.0" encoding="iso-8859-1"?>
<!-- Generator: Adobe Illustrator 19.0.0, SVG Export Plug-In . SVG Version: 6.00 Build 0)  -->
<svg version="1.1" id="Capa_1" xmlns="http://www.w3.org/2000/svg" xmlns:xlink="http://www.w3.org/1999/xlink" x="0px" y="0px"
	 viewBox="0 0 512 512" style="enable-background:new 0 0 512 512;" xml:space="preserve">
<g>
	<path style="fill:#BDC3C7;" d="M441.379,220.69c-2.342,0.001-4.588-0.928-6.244-2.584c-1.656-1.656-2.585-3.902-2.584-6.244
		v-61.793c-0.019-19.493-15.817-35.291-35.31-35.31h-35.31c-4.875,0-8.828-3.952-8.828-8.828s3.952-8.828,8.828-8.828h35.31
		c29.239,0.032,52.934,23.727,52.966,52.966v61.793c0.001,2.342-0.928,4.588-2.584,6.244S443.721,220.691,441.379,220.69z"/>
	<path style="fill:#41767F;" d="M344.276,61.793c24.377,0,44.138,19.761,44.138,44.138s-19.761,44.138-44.138,44.138H44.138
		C19.761,150.069,0,130.308,0,105.931s19.761-44.138,44.138-44.138H344.276z"/>
	<path style="fill:#D1D4D1;" d="M344.276,167.724V26.483C344.276,11.857,332.419,0,317.793,0H70.621
		C55.995,0,44.138,11.857,44.138,26.483v141.241c0,14.626,11.857,26.483,26.483,26.483h247.172
		C332.419,194.207,344.276,182.35,344.276,167.724z"/>
	<g>
		<path style="fill:#46B29D;" d="M114.759,35.31h17.655c9.751,0,17.655,7.904,17.655,17.655v17.655
			c0,9.751-7.904,17.655-17.655,17.655h-17.655c-9.751,0-17.655-7.904-17.655-17.655V52.966
			C97.103,43.215,105.008,35.31,114.759,35.31z"/>
		<path style="fill:#46B29D;" d="M256,35.31h17.655c9.751,0,17.655,7.904,17.655,17.655v17.655c0,9.751-7.904,17.655-17.655,17.655
			H256c-9.751,0-17.655-7.904-17.655-17.655V52.966C238.345,43.215,246.249,35.31,256,35.31z"/>
	</g>
	<path style="fill:#41767F;" d="M291.31,141.241v17.655H97.103v-17.655c0.028-9.739,7.916-17.627,17.655-17.655h158.897
		C283.394,123.615,291.282,131.503,291.31,141.241z"/>
	<rect x="97.103" y="158.897" style="fill:#67B9CC;" width="194.207" height="35.31"/>
	<path style="fill:#BDC3C7;" d="M44.138,300.138C19.761,300.138,0,319.899,0,344.276v141.241c0,4.875,3.952,8.828,8.828,8.828
		h52.966V300.138H44.138z"/>
	<path style="fill:#D1D4D1;" d="M88.276,264.828H70.621c-14.626,0-26.483,11.857-26.483,26.483v211.862
		c0,4.875,3.952,8.828,8.828,8.828h79.448L88.276,264.828z"/>
	<path style="fill:#35495E;" d="M114.759,194.207h370.759c14.626,0,26.483,11.857,26.483,26.483v264.828
		C512,500.143,500.143,512,485.517,512H114.759c-14.626,0-26.483-11.857-26.483-26.483V220.69
		C88.276,206.064,100.133,194.207,114.759,194.207z"/>
	<path style="fill:#8697CB;" d="M459.034,238.345v229.517c0,4.875-3.952,8.828-8.828,8.828H132.414
		c-4.875,0-8.828-3.952-8.828-8.828V238.345c0-4.875,3.952-8.828,8.828-8.828h317.793
		C455.082,229.517,459.034,233.469,459.034,238.345z"/>
	<path style="fill:#2C3E50;" d="M512,344.276v17.655h-17.655c-4.875,0-8.828-3.952-8.828-8.828s3.952-8.828,8.828-8.828H512z"/>
	<path style="fill:#D25627;" d="M158.897,450.207c-2.341,0.001-4.587-0.929-6.243-2.585c-1.656-1.656-2.585-3.901-2.585-6.243
		V264.828c0-4.875,3.952-8.828,8.828-8.828s8.828,3.952,8.828,8.828v176.552c0.001,2.341-0.929,4.587-2.585,6.243
		C163.484,449.278,161.238,450.207,158.897,450.207z"/>
	<path style="fill:#F0C419;" d="M220.69,308.966h-26.483c-4.875,0-8.828-3.952-8.828-8.828s3.952-8.828,8.828-8.828h26.483
		c4.875,0,8.828,3.952,8.828,8.828S225.565,308.966,220.69,308.966z"/>
	<g>
		<path style="fill:#CC4B4C;" d="M264.828,308.966H256c-4.875,0-8.828-3.952-8.828-8.828s3.952-8.828,8.828-8.828h8.828
			c4.875,0,8.828,3.952,8.828,8.828S269.703,308.966,264.828,308.966z"/>
		<path style="fill:#CC4B4C;" d="M256,344.276h-52.966c-4.875,0-8.828-3.952-8.828-8.828s3.952-8.828,8.828-8.828H256
			c4.875,0,8.828,3.952,8.828,8.828S260.875,344.276,256,344.276z"/>
		<path style="fill:#CC4B4C;" d="M317.793,344.276H291.31c-4.875,0-8.828-3.952-8.828-8.828s3.952-8.828,8.828-8.828h26.483
			c4.875,0,8.828,3.952,8.828,8.828S322.668,344.276,317.793,344.276z"/>
		<path style="fill:#CC4B4C;" d="M220.69,414.897h-17.655c-4.875,0-8.828-3.952-8.828-8.828s3.952-8.828,8.828-8.828h17.655
			c4.875,0,8.828,3.952,8.828,8.828S225.565,414.897,220.69,414.897z"/>
		<path style="fill:#CC4B4C;" d="M317.793,414.897H256c-4.875,0-8.828-3.952-8.828-8.828s3.952-8.828,8.828-8.828h61.793
			c4.875,0,8.828,3.952,8.828,8.828S322.668,414.897,317.793,414.897z"/>
	</g>
	<path style="fill:#F0C419;" d="M256,450.207h-52.966c-4.875,0-8.828-3.952-8.828-8.828s3.952-8.828,8.828-8.828H256
		c4.875,0,8.828,3.952,8.828,8.828S260.875,450.207,256,450.207z"/>
	<g>
		<path style="fill:#41767F;" d="M361.931,450.207H291.31c-4.875,0-8.828-3.952-8.828-8.828s3.952-8.828,8.828-8.828h70.621
			c4.875,0,8.828,3.952,8.828,8.828S366.806,450.207,361.931,450.207z"/>
		<path style="fill:#41767F;" d="M397.241,344.276h-44.138c-4.875,0-8.828-3.952-8.828-8.828s3.952-8.828,8.828-8.828h44.138
			c4.875,0,8.828,3.952,8.828,8.828S402.117,344.276,397.241,344.276z"/>
	</g>
	<path style="fill:#F0C419;" d="M308.966,379.586h-97.103c-4.875,0-8.828-3.952-8.828-8.828s3.952-8.828,8.828-8.828h97.103
		c4.875,0,8.828,3.952,8.828,8.828S313.841,379.586,308.966,379.586z"/>
	<g>
		<path style="fill:#41767F;" d="M370.759,379.586h-26.483c-4.875,0-8.828-3.952-8.828-8.828s3.952-8.828,8.828-8.828h26.483
			c4.875,0,8.828,3.952,8.828,8.828S375.634,379.586,370.759,379.586z"/>
		<path style="fill:#41767F;" d="M423.724,379.586h-17.655c-4.875,0-8.828-3.952-8.828-8.828s3.952-8.828,8.828-8.828h17.655
			c4.875,0,8.828,3.952,8.828,8.828S428.599,379.586,423.724,379.586z"/>
	</g>
</g>
<g>
</g>
<g>
</g>
<g>
</g>
<g>
</g>
<g>
</g>
<g>
</g>
<g>
</g>
<g>
</g>
<g>
</g>
<g>
</g>
<g>
</g>
<g>
</g>
<g>
</g>
<g>
</g>
<g>
</g>
</svg>
