<?xml version="1.0" encoding="iso-8859-1"?>
<!-- Generator: Adobe Illustrator 19.0.0, SVG Export Plug-In . SVG Version: 6.00 Build 0)  -->
<svg version="1.1" id="Capa_1" xmlns="http://www.w3.org/2000/svg" xmlns:xlink="http://www.w3.org/1999/xlink" x="0px" y="0px"
	 viewBox="0 0 512 512" style="enable-background:new 0 0 512 512;" xml:space="preserve">
<g>
	<path style="fill:#CBB292;" d="M512,388.414v105.931c-0.029,9.739-7.916,17.627-17.655,17.655H17.655
		C7.916,511.971,0.029,504.084,0,494.345V388.414c0-4.875,3.952-8.828,8.828-8.828h141.241c9.751,0,17.655,7.904,17.655,17.655
		v17.655c0.029,9.739,7.916,17.627,17.655,17.655h141.241c9.739-0.029,17.627-7.916,17.655-17.655v-17.655
		c0-9.751,7.905-17.655,17.655-17.655h141.241C508.048,379.586,512,383.538,512,388.414z"/>
	<path style="fill:#46B29D;" d="M423.724,0H88.276c-4.869,0.015-8.813,3.958-8.828,8.828v44.138L229.517,220.69v176.552
		l52.966-44.138V220.69l39.459-44.138l15.801-17.655l15.801-17.655l15.801-17.655l31.603-35.31l31.603-35.31V8.828
		C432.537,3.958,428.593,0.015,423.724,0z"/>
	<g>
		<path style="fill:#81CCB8;" d="M432.552,8.828v44.138H79.448V8.828C79.463,3.958,83.407,0.015,88.276,0h335.448
			C428.593,0.015,432.537,3.958,432.552,8.828z"/>
		<path style="fill:#81CCB8;" d="M400.949,88.276l-15.801,17.655H291.31c-4.875,0-8.828-3.952-8.828-8.828s3.952-8.828,8.828-8.828
			H400.949z"/>
		<path style="fill:#81CCB8;" d="M369.346,123.586l-15.801,17.655h-79.89c-4.875,0-8.828-3.952-8.828-8.828s3.952-8.828,8.828-8.828
			H369.346z"/>
		<path style="fill:#81CCB8;" d="M337.743,158.897l-15.801,17.655H256c-4.875,0-8.828-3.952-8.828-8.828s3.952-8.828,8.828-8.828
			H337.743z"/>
	</g>
	<path style="fill:#7F6E5D;" d="M185.379,467.862h141.241c9.751,0,17.655,7.905,17.655,17.655V512H167.724v-26.483
		C167.724,475.767,175.629,467.862,185.379,467.862z"/>
</g>
<g>
</g>
<g>
</g>
<g>
</g>
<g>
</g>
<g>
</g>
<g>
</g>
<g>
</g>
<g>
</g>
<g>
</g>
<g>
</g>
<g>
</g>
<g>
</g>
<g>
</g>
<g>
</g>
<g>
</g>
</svg>
