<?xml version="1.0" encoding="iso-8859-1"?>
<!-- Generator: Adobe Illustrator 19.0.0, SVG Export Plug-In . SVG Version: 6.00 Build 0)  -->
<svg version="1.1" id="Capa_1" xmlns="http://www.w3.org/2000/svg" xmlns:xlink="http://www.w3.org/1999/xlink" x="0px" y="0px"
	 viewBox="0 0 512 512" style="enable-background:new 0 0 512 512;" xml:space="preserve">
<g>
	<path style="fill:#CB8252;" d="M341.034,95.458c-4.194-0.004-7.785-3.008-8.53-7.136C325.085,47.203,292.911,17.356,256,17.356
		s-69.085,29.847-76.504,70.966c-0.547,3.054-2.683,5.584-5.603,6.635s-6.178,0.462-8.546-1.544
		c-2.368-2.006-3.484-5.123-2.928-8.176C171.326,35.847,210.686,0,256,0s84.674,35.847,93.581,85.237
		c0.852,4.717-2.279,9.231-6.996,10.085C342.073,95.413,341.554,95.458,341.034,95.458z"/>
	<polygon style="fill:#F29C1F;" points="446.915,182.237 429.559,169.22 429.559,78.102 82.441,78.102 82.441,169.22 
		65.085,182.237 39.051,512 472.949,512 	"/>
	<polygon style="fill:#D25627;" points="429.559,78.102 377.492,130.169 377.492,182.237 134.508,182.237 134.508,130.169 
		82.441,78.102 	"/>
	<polygon style="fill:#E57E25;" points="446.915,182.237 377.492,182.237 377.492,130.169 	"/>
	<g>
		<polygon style="fill:#F29C1F;" points="134.508,130.169 82.441,169.22 82.441,78.102 		"/>
		<polygon style="fill:#F29C1F;" points="429.559,78.102 429.559,169.22 377.492,130.169 		"/>
	</g>
	<polygon style="fill:#E57E25;" points="134.508,130.169 134.508,182.237 65.085,182.237 	"/>
	<g>
		<circle style="fill:#D25627;" cx="169.22" cy="242.983" r="26.034"/>
		<circle style="fill:#D25627;" cx="342.78" cy="242.983" r="26.034"/>
	</g>
	<g>
		<path style="fill:#F3D55B;" d="M351.458,442.576H160.542c-4.793,0-8.678-3.885-8.678-8.678c0-4.793,3.885-8.678,8.678-8.678
			h190.915c4.793,0,8.678,3.885,8.678,8.678C360.136,438.691,356.25,442.576,351.458,442.576z"/>
		<path style="fill:#F3D55B;" d="M351.458,407.864H160.542c-4.793,0-8.678-3.885-8.678-8.678c0-4.793,3.885-8.678,8.678-8.678
			h190.915c4.793,0,8.678,3.885,8.678,8.678C360.136,403.979,356.25,407.864,351.458,407.864z"/>
		<path style="fill:#F3D55B;" d="M351.458,373.153H160.542c-4.793,0-8.678-3.885-8.678-8.678s3.885-8.678,8.678-8.678h190.915
			c4.793,0,8.678,3.885,8.678,8.678S356.25,373.153,351.458,373.153z"/>
		<path style="fill:#F3D55B;" d="M351.458,338.441H160.542c-4.793,0-8.678-3.885-8.678-8.678c0-4.793,3.885-8.678,8.678-8.678
			h190.915c4.793,0,8.678,3.885,8.678,8.678C360.136,334.555,356.25,338.441,351.458,338.441z"/>
		<path style="fill:#F3D55B;" d="M308.068,485.966c-2.302,0.001-4.509-0.913-6.137-2.541c-1.628-1.628-2.542-3.835-2.541-6.137
			V286.373c0-4.793,3.885-8.678,8.678-8.678c4.793,0,8.678,3.885,8.678,8.678v190.915c0.001,2.302-0.913,4.509-2.541,6.137
			S310.37,485.967,308.068,485.966z"/>
		<path style="fill:#F3D55B;" d="M273.356,485.966c-2.302,0.001-4.509-0.913-6.137-2.541s-2.542-3.835-2.541-6.137V286.373
			c0-4.793,3.885-8.678,8.678-8.678c4.793,0,8.678,3.885,8.678,8.678v190.915c0.001,2.302-0.914,4.509-2.541,6.137
			C277.865,485.053,275.658,485.967,273.356,485.966z"/>
		<path style="fill:#F3D55B;" d="M238.644,485.966c-2.302,0.001-4.509-0.913-6.137-2.541c-1.628-1.628-2.542-3.835-2.541-6.137
			V286.373c0-4.793,3.885-8.678,8.678-8.678c4.793,0,8.678,3.885,8.678,8.678v190.915c0.001,2.302-0.913,4.509-2.541,6.137
			C243.153,485.053,240.946,485.967,238.644,485.966z"/>
		<path style="fill:#F3D55B;" d="M203.932,485.966c-2.302,0.001-4.509-0.913-6.137-2.541c-1.628-1.628-2.542-3.835-2.541-6.137
			V286.373c0-4.793,3.885-8.678,8.678-8.678s8.678,3.885,8.678,8.678v190.915c0.001,2.302-0.913,4.509-2.541,6.137
			C208.442,485.053,206.234,485.967,203.932,485.966z"/>
	</g>
	<path style="fill:#71C285;" d="M195.254,312.407h121.492c4.793,0,8.678,3.885,8.678,8.678v121.492c0,4.793-3.885,8.678-8.678,8.678
		H195.254c-4.793,0-8.678-3.885-8.678-8.678V321.085C186.576,316.292,190.462,312.407,195.254,312.407z"/>
	<g>
		<path style="fill:#E6E7E8;" d="M227.449,340.957c-0.844-0.766-1.813-1.382-2.864-1.822c-3.231-1.364-6.965-0.644-9.458,1.822
			c-0.768,0.843-1.386,1.812-1.826,2.864c-1.38,3.23-0.657,6.974,1.826,9.458c3.422,3.356,8.9,3.356,12.322,0
			c2.485-2.483,3.207-6.229,1.822-9.458C228.831,342.771,228.215,341.802,227.449,340.957z"/>
		<path style="fill:#E6E7E8;" d="M224.585,408.559c-2.095-0.958-4.503-0.958-6.597,0c-1.05,0.44-2.018,1.056-2.86,1.822
			c-1.586,1.663-2.485,3.863-2.517,6.161c0,4.793,3.885,8.678,8.678,8.678c4.793,0,8.678-3.885,8.678-8.678
			c-0.034-2.297-0.933-4.497-2.517-6.161C226.605,409.615,225.636,408.999,224.585,408.559z"/>
		<path style="fill:#E6E7E8;" d="M284.551,410.381l-1.042,1.297c-0.33,0.486-0.593,1.013-0.784,1.568
			c-0.25,0.491-0.424,1.017-0.517,1.559c-0.098,0.575-0.156,1.155-0.173,1.738c0,4.793,3.885,8.678,8.678,8.678
			c4.793,0,8.678-3.885,8.678-8.678c0.021-3.526-2.094-6.713-5.35-8.065S287.033,407.878,284.551,410.381z"/>
		<path style="fill:#E6E7E8;" d="M290.712,355.797c2.3-0.018,4.506-0.919,6.161-2.517c2.485-2.483,3.207-6.229,1.822-9.458
			c-0.441-1.051-1.057-2.02-1.822-2.864c-0.413-0.372-0.848-0.72-1.301-1.042c-0.483-0.33-1.009-0.592-1.564-0.78
			c-0.517-0.263-1.074-0.441-1.648-0.525c-1.664-0.349-3.396-0.165-4.949,0.525c-2.177,0.793-3.893,2.509-4.686,4.686
			c-1.38,3.23-0.657,6.974,1.825,9.458C286.206,354.878,288.411,355.779,290.712,355.797z"/>
	</g>
	<path style="fill:#CB8252;" d="M342.78,242.983c-2.302,0.001-4.509-0.913-6.137-2.541c-1.628-1.628-2.542-3.835-2.541-6.137
		v-34.712c0-43.134-34.967-78.102-78.102-78.102s-78.102,34.967-78.102,78.102v34.712c0,4.793-3.885,8.678-8.678,8.678
		s-8.678-3.885-8.678-8.678v-34.712c0-52.72,42.738-95.458,95.458-95.458s95.458,42.738,95.458,95.458v34.712
		c0.001,2.302-0.914,4.509-2.541,6.137C347.289,242.07,345.081,242.984,342.78,242.983z"/>
</g>
<g>
</g>
<g>
</g>
<g>
</g>
<g>
</g>
<g>
</g>
<g>
</g>
<g>
</g>
<g>
</g>
<g>
</g>
<g>
</g>
<g>
</g>
<g>
</g>
<g>
</g>
<g>
</g>
<g>
</g>
</svg>
