<?xml version="1.0" encoding="iso-8859-1"?>
<!-- Generator: Adobe Illustrator 19.0.0, SVG Export Plug-In . SVG Version: 6.00 Build 0)  -->
<svg version="1.1" id="Capa_1" xmlns="http://www.w3.org/2000/svg" xmlns:xlink="http://www.w3.org/1999/xlink" x="0px" y="0px"
	 viewBox="0 0 512 512" style="enable-background:new 0 0 512 512;" xml:space="preserve">
<g>
	<path style="fill:#35495E;" d="M141.241,0h229.517c19.501,0,35.31,15.809,35.31,35.31V476.69c0,19.501-15.809,35.31-35.31,35.31
		H141.241c-19.501,0-35.31-15.809-35.31-35.31V35.31C105.931,15.809,121.74,0,141.241,0z"/>
	<g>
		<path style="fill:#BDC3C7;" d="M308.966,485.517H203.034c-4.875,0-8.828-3.952-8.828-8.828s3.952-8.828,8.828-8.828h105.931
			c4.875,0,8.828,3.952,8.828,8.828S313.841,485.517,308.966,485.517z"/>
		<path style="fill:#BDC3C7;" d="M298.054,35.31h-84.108c-6.687,0-12.801-3.778-15.791-9.76L185.379,0h141.241l-12.775,25.551
			C310.855,31.532,304.741,35.31,298.054,35.31z"/>
	</g>
	<path style="fill:#46B29D;" d="M370.759,123.585v211.832c0,4.682-1.86,9.173-5.171,12.484c-3.311,3.311-7.802,5.171-12.484,5.171
		h-26.483l-37.076,49.449c-2.28,3.039-6.248,4.279-9.853,3.078c-3.604-1.201-6.036-4.574-6.037-8.373v-44.154H158.897
		c-4.682,0-9.173-1.86-12.484-5.171c-3.311-3.311-5.171-7.801-5.171-12.484V123.585c0-4.682,1.86-9.173,5.171-12.484
		c3.311-3.311,7.802-5.171,12.484-5.171h194.207c4.682,0,9.173,1.86,12.484,5.171C368.898,114.412,370.758,118.903,370.759,123.585z
		"/>
	<g>
		<path style="fill:#E6E7E8;" d="M247.172,256h-17.655c-9.747-0.01-17.645-7.909-17.655-17.655V220.69
			c0.01-9.747,7.909-17.645,17.655-17.655h17.655c9.747,0.01,17.645,7.909,17.655,17.655v17.655
			C264.818,248.091,256.919,255.99,247.172,256z M229.517,220.69v17.655h17.668l-0.013-17.655H229.517z"/>
		<path style="fill:#E6E7E8;" d="M282.483,326.621h-17.655c-9.747-0.01-17.645-7.909-17.655-17.655V291.31
			c0.01-9.747,7.909-17.645,17.655-17.655h17.655c9.747,0.01,17.645,7.909,17.655,17.655v17.655
			C300.128,318.712,292.229,326.611,282.483,326.621z M264.828,291.31v17.655h17.668l-0.013-17.655H264.828z"/>
		<path style="fill:#E6E7E8;" d="M185.379,256c-4.875,0-8.828-3.952-8.828-8.828v-35.31c0-4.875,3.952-8.828,8.828-8.828
			c4.875,0,8.828,3.952,8.828,8.828v35.31C194.207,252.048,190.255,256,185.379,256z"/>
		<path style="fill:#E6E7E8;" d="M291.31,256c-4.875,0-8.828-3.952-8.828-8.828v-35.31c0-4.875,3.952-8.828,8.828-8.828
			s8.828,3.952,8.828,8.828v35.31C300.138,252.048,296.186,256,291.31,256z"/>
		<path style="fill:#E6E7E8;" d="M326.621,256c-4.875,0-8.828-3.952-8.828-8.828v-35.31c0-4.875,3.952-8.828,8.828-8.828
			s8.828,3.952,8.828,8.828v35.31C335.448,252.048,331.496,256,326.621,256z"/>
		<path style="fill:#E6E7E8;" d="M326.621,326.621c-4.875,0-8.828-3.952-8.828-8.828v-35.31c0-4.875,3.952-8.828,8.828-8.828
			s8.828,3.952,8.828,8.828v35.31C335.448,322.668,331.496,326.621,326.621,326.621z"/>
		<path style="fill:#E6E7E8;" d="M220.69,326.621c-4.875,0-8.828-3.952-8.828-8.828v-35.31c0-4.875,3.952-8.828,8.828-8.828
			s8.828,3.952,8.828,8.828v35.31C229.517,322.668,225.565,326.621,220.69,326.621z"/>
		<path style="fill:#E6E7E8;" d="M185.379,326.621c-4.875,0-8.828-3.952-8.828-8.828v-35.31c0-4.875,3.952-8.828,8.828-8.828
			c4.875,0,8.828,3.952,8.828,8.828v35.31C194.207,322.668,190.255,326.621,185.379,326.621z"/>
		<path style="fill:#E6E7E8;" d="M282.483,185.379h-17.655c-9.747-0.01-17.645-7.909-17.655-17.655v-17.655
			c0.01-9.747,7.909-17.645,17.655-17.655h17.655c9.747,0.01,17.645,7.909,17.655,17.655v17.655
			C300.128,177.471,292.229,185.37,282.483,185.379z M264.828,150.069v17.655h17.668l-0.013-17.655H264.828z"/>
		<path style="fill:#E6E7E8;" d="M326.621,185.379c-4.875,0-8.828-3.952-8.828-8.828v-35.31c0-4.875,3.952-8.828,8.828-8.828
			s8.828,3.952,8.828,8.828v35.31C335.448,181.427,331.496,185.379,326.621,185.379z"/>
		<path style="fill:#E6E7E8;" d="M220.69,185.379c-4.875,0-8.828-3.952-8.828-8.828v-35.31c0-4.875,3.952-8.828,8.828-8.828
			s8.828,3.952,8.828,8.828v35.31C229.517,181.427,225.565,185.379,220.69,185.379z"/>
		<path style="fill:#E6E7E8;" d="M185.379,185.379c-4.875,0-8.828-3.952-8.828-8.828v-35.31c0-4.875,3.952-8.828,8.828-8.828
			c4.875,0,8.828,3.952,8.828,8.828v35.31C194.207,181.427,190.255,185.379,185.379,185.379z"/>
	</g>
</g>
<g>
</g>
<g>
</g>
<g>
</g>
<g>
</g>
<g>
</g>
<g>
</g>
<g>
</g>
<g>
</g>
<g>
</g>
<g>
</g>
<g>
</g>
<g>
</g>
<g>
</g>
<g>
</g>
<g>
</g>
</svg>
