<?xml version="1.0" encoding="iso-8859-1"?>
<!-- Generator: Adobe Illustrator 19.0.0, SVG Export Plug-In . SVG Version: 6.00 Build 0)  -->
<svg version="1.1" id="Capa_1" xmlns="http://www.w3.org/2000/svg" xmlns:xlink="http://www.w3.org/1999/xlink" x="0px" y="0px"
	 viewBox="0 0 512 512" style="enable-background:new 0 0 512 512;" xml:space="preserve">
<g>
	<path style="fill:#46B29D;" d="M128.794,423.724c4.59,10.328,10.77,31.338,12.182,71.062c0.27,9.53,8.034,17.137,17.567,17.214
		h159.603c9.533-0.077,17.296-7.684,17.567-17.214c1.412-39.724,7.592-60.734,12.182-71.062V88.276
		c-4.59-10.328-10.77-31.338-12.182-71.062C335.443,7.684,327.68,0.077,318.146,0H158.543c-9.533,0.077-17.296,7.684-17.567,17.214
		c-1.412,39.724-7.592,60.734-12.182,71.062V423.724z"/>
	<g>
		<path style="fill:#2C3E50;" d="M388.414,150.069h35.31c9.751,0,17.655,7.904,17.655,17.655v8.828
			c0,9.751-7.904,17.655-17.655,17.655h-35.31V150.069z"/>
		<path style="fill:#2C3E50;" d="M388.414,256h35.31c9.751,0,17.655,7.904,17.655,17.655v61.793c0,9.751-7.904,17.655-17.655,17.655
			h-35.31V256z"/>
	</g>
	<path style="fill:#35495E;" d="M123.586,88.276h229.517c29.252,0,52.966,23.713,52.966,52.966v229.517
		c0,29.252-23.713,52.966-52.966,52.966H123.586c-29.252,0-52.966-23.713-52.966-52.966V141.241
		C70.621,111.989,94.334,88.276,123.586,88.276z"/>
	<path style="fill:#2FA8CC;" d="M132.414,370.759c-2.342,0.001-4.588-0.928-6.244-2.584c-1.656-1.656-2.585-3.902-2.584-6.244
		v-17.655c0-4.875,3.952-8.828,8.828-8.828c4.875,0,8.828,3.952,8.828,8.828v17.655c0.001,2.342-0.928,4.588-2.584,6.244
		C137.002,369.83,134.755,370.76,132.414,370.759z"/>
	<path style="fill:#46B29D;" d="M273.655,370.759c-2.342,0.001-4.588-0.928-6.244-2.584c-1.656-1.656-2.585-3.902-2.584-6.244
		v-17.655c0-4.875,3.952-8.828,8.828-8.828s8.828,3.952,8.828,8.828v17.655c0.001,2.342-0.928,4.588-2.584,6.244
		C278.243,369.83,275.997,370.76,273.655,370.759z"/>
	<g>
		<path style="fill:#FF5364;" d="M308.966,379.586c-2.342,0.001-4.588-0.928-6.244-2.584c-1.656-1.656-2.585-3.902-2.584-6.244
			v-35.31c0-4.875,3.952-8.828,8.828-8.828s8.828,3.952,8.828,8.828v35.31c0.001,2.342-0.928,4.588-2.584,6.244
			C313.553,378.658,311.307,379.588,308.966,379.586z"/>
		<path style="fill:#FF5364;" d="M167.724,379.586c-2.342,0.001-4.588-0.928-6.244-2.584c-1.656-1.656-2.585-3.902-2.584-6.244
			v-35.31c0-4.875,3.952-8.828,8.828-8.828c4.875,0,8.828,3.952,8.828,8.828v35.31c0.001,2.342-0.928,4.588-2.584,6.244
			C172.312,378.658,170.066,379.588,167.724,379.586z"/>
	</g>
	<path style="fill:#2FA8CC;" d="M238.345,379.586c-2.342,0.001-4.588-0.928-6.244-2.584c-1.656-1.656-2.585-3.902-2.584-6.244
		v-35.31c0-4.875,3.952-8.828,8.828-8.828c4.875,0,8.828,3.952,8.828,8.828v35.31c0.001,2.342-0.928,4.588-2.584,6.244
		C242.933,378.658,240.686,379.588,238.345,379.586z"/>
	<path style="fill:#46B29D;" d="M203.034,397.241c-2.342,0.001-4.588-0.928-6.244-2.584c-1.656-1.656-2.585-3.902-2.584-6.244
		v-70.621c0-4.875,3.952-8.828,8.828-8.828c4.875,0,8.828,3.952,8.828,8.828v70.621c0.001,2.342-0.928,4.588-2.584,6.244
		C207.622,396.313,205.376,397.243,203.034,397.241z"/>
	<path style="fill:#2FA8CC;" d="M344.276,370.759c-2.342,0.001-4.588-0.928-6.243-2.584c-1.656-1.656-2.585-3.902-2.584-6.244
		v-17.655c0-4.875,3.952-8.828,8.828-8.828s8.828,3.952,8.828,8.828v17.655c0.001,2.342-0.928,4.588-2.584,6.244
		S346.617,370.76,344.276,370.759z"/>
	<path style="fill:#E4C05C;" d="M290.638,168.005c3.266,19.994-5.176,40.096-21.738,51.763c-2.49,1.662-4.011,4.437-4.072,7.431
		v19.975c0,4.875-3.952,8.828-8.828,8.828h-35.31c-4.875,0-8.828-3.952-8.828-8.828V227.17c-0.06-2.977-1.573-5.737-4.051-7.388
		c-19.619-13.864-27.448-39.198-19.07-61.714c8.377-22.516,30.861-36.571,54.771-34.24
		C267.423,126.16,286.768,144.295,290.638,168.005z"/>
	<path style="fill:#A5A5A4;" d="M256,256v17.655c0,9.751-7.904,17.655-17.655,17.655c-9.751,0-17.655-7.904-17.655-17.655V256H256z"
		/>
	<path style="fill:#F9EAB0;" d="M220.69,185.379c-2.342,0.001-4.588-0.928-6.244-2.584s-2.585-3.902-2.584-6.244
		c0.016-14.619,11.863-26.467,26.483-26.483c4.875,0,8.828,3.952,8.828,8.828s-3.952,8.828-8.828,8.828
		c-4.874,0.003-8.824,3.954-8.828,8.828c0.001,2.342-0.928,4.588-2.584,6.244S223.031,185.381,220.69,185.379z"/>
</g>
<g>
</g>
<g>
</g>
<g>
</g>
<g>
</g>
<g>
</g>
<g>
</g>
<g>
</g>
<g>
</g>
<g>
</g>
<g>
</g>
<g>
</g>
<g>
</g>
<g>
</g>
<g>
</g>
<g>
</g>
</svg>
