<?xml version="1.0" encoding="utf-8"?>
<!-- Generator: Adobe Illustrator 18.0.0, SVG Export Plug-In . SVG Version: 6.00 Build 0)  -->
<!DOCTYPE svg PUBLIC "-//W3C//DTD SVG 1.1//EN" "http://www.w3.org/Graphics/SVG/1.1/DTD/svg11.dtd">
<svg xmlns="http://www.w3.org/2000/svg" xmlns:xlink="http://www.w3.org/1999/xlink" version="1.1" id="Layer_2" x="0px" y="0px" viewBox="0 0 64 64" style="enable-background:new 0 0 64 64;" xml:space="preserve" width="512" height="512">
<style type="text/css">
	.st0{fill:#EDEFF1;}
	.st1{fill:#D3D3D3;}
	.st2{fill:#98CA69;}
	.st3{fill:#80D6FB;}
	.st4{fill:#FFB0AA;}
	.st5{fill:#FFE352;}
	.st6{fill:#6E83B7;}
	.st7{fill:#466089;}
	.st8{fill:#FFD3B3;}
	.st9{fill:#FCB98B;}
	.st10{fill:#FFB236;}
	.st11{fill:#46BEE8;}
	.st12{fill:#E0E2FF;}
	.st13{fill:#8FA5D1;}
	.st14{fill:#75AA40;}
</style>
<g>
	<g>
		<g>
			<path class="st8" d="M56.455,24c-0.548,0.01-1.047,0.203-1.455,0.511v-1.835c0-1.401-1.144-2.701-2.545-2.675     c-0.548,0.01-1.047,0.203-1.455,0.511V20.5c0-0.981-0.552-1.92-1.461-2.29C47.728,17.472,46,18.784,46,20.5v1.471     C45.542,21.384,44.837,21,44.036,21H44c-1.657,0-3,1.343-3,3v14.543l-1.592-3.034c-0.712-1.357-2.368-2.04-3.76-1.398     c-1.484,0.684-2.074,2.462-1.322,3.889l4.195,8.044c0.972,1.944,2.383,3.635,4.122,4.939L43.2,51.4c0.504,0.378,0.8,0.97,0.8,1.6     v1h12v-2.333c0-0.433,0.14-0.854,0.4-1.2l0.2-0.267c1.558-2.078,2.4-4.605,2.4-7.201V26.676C59,25.275,57.856,23.975,56.455,24z"/>
		</g>
		<g>
			<rect x="43" y="54" class="st3" width="14" height="8"/>
		</g>
		<g>
			<path class="st9" d="M46,21.97V37h-1V21.2C45.4,21.36,45.74,21.63,46,21.97z"/>
		</g>
		<g>
			<path class="st9" d="M51,20.5V37h-1V18.48C50.63,18.92,51,19.7,51,20.5z"/>
		</g>
		<g>
			<path class="st9" d="M55,22.68V37h-1V20.56C54.61,21.06,55,21.85,55,22.68z"/>
		</g>
		<g>
			<path class="st9" d="M48.5,49.5h-1c0-4.411,3.589-8,8-8v1C51.64,42.5,48.5,45.64,48.5,49.5z"/>
		</g>
	</g>
	<g>
		<g>
			<path class="st5" d="M19,30c2.286,0,4.438-0.559,6.344-1.531L33,30l-1.531-7.656C32.441,20.438,33,18.286,33,16     c0-7.732-6.268-14-14-14S5,8.268,5,16C5,23.732,11.268,30,19,30z"/>
		</g>
		<g>
			<path class="st10" d="M19,28c-6.617,0-12-5.383-12-12S12.383,4,19,4s12,5.383,12,12S25.617,28,19,28z M19,6     C13.486,6,9,10.486,9,16s4.486,10,10,10s10-4.486,10-10S24.514,6,19,6z"/>
		</g>
		<path class="st6" d="M20.5,15h-3c-0.827,0-1.5-0.673-1.5-1.5s0.673-1.5,1.5-1.5H20c1.103,0,2,0.897,2,2h2c0-2.206-1.794-4-4-4V8    h-2v2h-0.5c-1.93,0-3.5,1.57-3.5,3.5s1.57,3.5,3.5,3.5h3c0.827,0,1.5,0.673,1.5,1.5S21.327,20,20.5,20H17c-0.551,0-1-0.449-1-1h-2    c0,1.654,1.346,3,3,3h1v2h2v-2h0.5c1.93,0,3.5-1.57,3.5-3.5S22.43,15,20.5,15z"/>
	</g>
</g>
</svg>
