<?xml version="1.0" encoding="utf-8"?>
<!-- Generator: Adobe Illustrator 18.0.0, SVG Export Plug-In . SVG Version: 6.00 Build 0)  -->
<!DOCTYPE svg PUBLIC "-//W3C//DTD SVG 1.1//EN" "http://www.w3.org/Graphics/SVG/1.1/DTD/svg11.dtd">
<svg xmlns="http://www.w3.org/2000/svg" xmlns:xlink="http://www.w3.org/1999/xlink" version="1.1" id="Layer_2" x="0px" y="0px" viewBox="0 0 64 64" style="enable-background:new 0 0 64 64;" xml:space="preserve" width="512" height="512">
<style type="text/css">
	.st0{fill:#EDEFF1;}
	.st1{fill:#D3D3D3;}
	.st2{fill:#98CA69;}
	.st3{fill:#80D6FB;}
	.st4{fill:#FFB0AA;}
	.st5{fill:#FFE352;}
	.st6{fill:#6E83B7;}
	.st7{fill:#466089;}
	.st8{fill:#FFD3B3;}
	.st9{fill:#FCB98B;}
	.st10{fill:#FFB236;}
	.st11{fill:#46BEE8;}
	.st12{fill:#E0E2FF;}
	.st13{fill:#8FA5D1;}
	.st14{fill:#75AA40;}
</style>
<g>
	<g>
		<g>
			<path class="st5" d="M39,62H25c-0.552,0-1-0.448-1-1v-3c0-0.552,0.448-1,1-1h14c0.552,0,1,0.448,1,1v3C40,61.552,39.552,62,39,62     z"/>
		</g>
		<path class="st10" d="M38.5,61v-3h-1v3h-2v-3h-1v3h-2v-3h-1v3h-2v-3h-1v3h-2v-3h-1v3H24c0,0.552,0.448,1,1,1h14    c0.552,0,1-0.448,1-1H38.5z"/>
	</g>
	<g>
		<g>
			<path class="st5" d="M39,57H25c-0.552,0-1-0.448-1-1v-3c0-0.552,0.448-1,1-1h14c0.552,0,1,0.448,1,1v3C40,56.552,39.552,57,39,57     z"/>
		</g>
		<path class="st10" d="M38.5,56v-3h-1v3h-2v-3h-1v3h-2v-3h-1v3h-2v-3h-1v3h-2v-3h-1v3H24c0,0.552,0.448,1,1,1h14    c0.552,0,1-0.448,1-1H38.5z"/>
	</g>
	<g>
		<g>
			<path class="st5" d="M39,52H25c-0.552,0-1-0.448-1-1v-3c0-0.552,0.448-1,1-1h14c0.552,0,1,0.448,1,1v3C40,51.552,39.552,52,39,52     z"/>
		</g>
		<path class="st10" d="M38.5,51v-3h-1v3h-2v-3h-1v3h-2v-3h-1v3h-2v-3h-1v3h-2v-3h-1v3H24c0,0.552,0.448,1,1,1h14    c0.552,0,1-0.448,1-1H38.5z"/>
	</g>
	<g>
		<g>
			<path class="st5" d="M39,47H25c-0.552,0-1-0.448-1-1v-3c0-0.552,0.448-1,1-1h14c0.552,0,1,0.448,1,1v3C40,46.552,39.552,47,39,47     z"/>
		</g>
		<path class="st10" d="M38.5,46v-3h-1v3h-2v-3h-1v3h-2v-3h-1v3h-2v-3h-1v3h-2v-3h-1v3H24c0,0.552,0.448,1,1,1h14    c0.552,0,1-0.448,1-1H38.5z"/>
	</g>
	<g>
		<g>
			<path class="st5" d="M39,42H25c-0.552,0-1-0.448-1-1v-3c0-0.552,0.448-1,1-1h14c0.552,0,1,0.448,1,1v3C40,41.552,39.552,42,39,42     z"/>
		</g>
		<path class="st10" d="M38.5,41v-3h-1v3h-2v-3h-1v3h-2v-3h-1v3h-2v-3h-1v3h-2v-3h-1v3H24c0,0.552,0.448,1,1,1h14    c0.552,0,1-0.448,1-1H38.5z"/>
	</g>
	<g>
		<g>
			<path class="st5" d="M39,37H25c-0.552,0-1-0.448-1-1v-3c0-0.552,0.448-1,1-1h14c0.552,0,1,0.448,1,1v3C40,36.552,39.552,37,39,37     z"/>
		</g>
		<path class="st10" d="M38.5,36v-3h-1v3h-2v-3h-1v3h-2v-3h-1v3h-2v-3h-1v3h-2v-3h-1v3H24c0,0.552,0.448,1,1,1h14    c0.552,0,1-0.448,1-1H38.5z"/>
	</g>
	<g>
		<g>
			<path class="st5" d="M57,62H43c-0.552,0-1-0.448-1-1v-3c0-0.552,0.448-1,1-1h14c0.552,0,1,0.448,1,1v3C58,61.552,57.552,62,57,62     z"/>
		</g>
		<path class="st10" d="M56.5,61v-3h-1v3h-2v-3h-1v3h-2v-3h-1v3h-2v-3h-1v3h-2v-3h-1v3H42c0,0.552,0.448,1,1,1h14    c0.552,0,1-0.448,1-1H56.5z"/>
	</g>
	<g>
		<g>
			<path class="st5" d="M57,57H43c-0.552,0-1-0.448-1-1v-3c0-0.552,0.448-1,1-1h14c0.552,0,1,0.448,1,1v3C58,56.552,57.552,57,57,57     z"/>
		</g>
		<path class="st10" d="M56.5,56v-3h-1v3h-2v-3h-1v3h-2v-3h-1v3h-2v-3h-1v3h-2v-3h-1v3H42c0,0.552,0.448,1,1,1h14    c0.552,0,1-0.448,1-1H56.5z"/>
	</g>
	<g>
		<g>
			<path class="st5" d="M57,52H43c-0.552,0-1-0.448-1-1v-3c0-0.552,0.448-1,1-1h14c0.552,0,1,0.448,1,1v3C58,51.552,57.552,52,57,52     z"/>
		</g>
		<path class="st10" d="M56.5,51v-3h-1v3h-2v-3h-1v3h-2v-3h-1v3h-2v-3h-1v3h-2v-3h-1v3H42c0,0.552,0.448,1,1,1h14    c0.552,0,1-0.448,1-1H56.5z"/>
	</g>
	<g>
		<g>
			<path class="st5" d="M57,47H43c-0.552,0-1-0.448-1-1v-3c0-0.552,0.448-1,1-1h14c0.552,0,1,0.448,1,1v3C58,46.552,57.552,47,57,47     z"/>
		</g>
		<path class="st10" d="M56.5,46v-3h-1v3h-2v-3h-1v3h-2v-3h-1v3h-2v-3h-1v3h-2v-3h-1v3H42c0,0.552,0.448,1,1,1h14    c0.552,0,1-0.448,1-1H56.5z"/>
	</g>
	<g>
		<g>
			<path class="st5" d="M21,62H7c-0.552,0-1-0.448-1-1v-3c0-0.552,0.448-1,1-1h14c0.552,0,1,0.448,1,1v3C22,61.552,21.552,62,21,62z     "/>
		</g>
		<path class="st10" d="M20.5,61v-3h-1v3h-2v-3h-1v3h-2v-3h-1v3h-2v-3h-1v3h-2v-3h-1v3H6c0,0.552,0.448,1,1,1h14    c0.552,0,1-0.448,1-1H20.5z"/>
	</g>
	<g>
		<g>
			<path class="st5" d="M21,57H7c-0.552,0-1-0.448-1-1v-3c0-0.552,0.448-1,1-1h14c0.552,0,1,0.448,1,1v3C22,56.552,21.552,57,21,57z     "/>
		</g>
		<path class="st10" d="M20.5,56v-3h-1v3h-2v-3h-1v3h-2v-3h-1v3h-2v-3h-1v3h-2v-3h-1v3H6c0,0.552,0.448,1,1,1h14    c0.552,0,1-0.448,1-1H20.5z"/>
	</g>
	<g>
		<g>
			<path class="st5" d="M21,52H7c-0.552,0-1-0.448-1-1v-3c0-0.552,0.448-1,1-1h14c0.552,0,1,0.448,1,1v3C22,51.552,21.552,52,21,52z     "/>
		</g>
		<path class="st10" d="M20.5,51v-3h-1v3h-2v-3h-1v3h-2v-3h-1v3h-2v-3h-1v3h-2v-3h-1v3H6c0,0.552,0.448,1,1,1h14    c0.552,0,1-0.448,1-1H20.5z"/>
	</g>
	<g>
		<polygon class="st2" points="36,28 36,14 41,14 32,2 23,14 28,14 28,28   "/>
	</g>
	<g>
		<polygon class="st2" points="54,38 54,24 59,24 50,12 41,24 46,24 46,38   "/>
	</g>
	<g>
		<polygon class="st2" points="18,43 18,29 23,29 14,17 5,29 10,29 10,43   "/>
	</g>
</g>
</svg>
