<?xml version="1.0" encoding="utf-8"?>
<!-- Generator: Adobe Illustrator 18.0.0, SVG Export Plug-In . SVG Version: 6.00 Build 0)  -->
<!DOCTYPE svg PUBLIC "-//W3C//DTD SVG 1.1//EN" "http://www.w3.org/Graphics/SVG/1.1/DTD/svg11.dtd">
<svg xmlns="http://www.w3.org/2000/svg" xmlns:xlink="http://www.w3.org/1999/xlink" version="1.1" id="Layer_2" x="0px" y="0px" viewBox="0 0 64 64" style="enable-background:new 0 0 64 64;" xml:space="preserve" width="512" height="512">
<style type="text/css">
	.st0{fill:#EDEFF1;}
	.st1{fill:#D3D3D3;}
	.st2{fill:#98CA69;}
	.st3{fill:#80D6FB;}
	.st4{fill:#FFB0AA;}
	.st5{fill:#FFE352;}
	.st6{fill:#6E83B7;}
	.st7{fill:#466089;}
	.st8{fill:#FFD3B3;}
	.st9{fill:#FCB98B;}
	.st10{fill:#FFB236;}
	.st11{fill:#46BEE8;}
	.st12{fill:#E0E2FF;}
	.st13{fill:#8FA5D1;}
	.st14{fill:#75AA40;}
</style>
<g>
	<g>
		<path class="st3" d="M9.486,22.002L32,34.997l22.514-12.995C50.018,14.232,41.623,9,32,9S13.982,14.232,9.486,22.002z"/>
	</g>
	<g>
		<path class="st6" d="M54.511,21.997L32,34.997l0.01,26c8.977-0.01,17.7-4.667,22.51-13.002S58.994,29.775,54.511,21.997z"/>
	</g>
	<g>
		<path class="st4" d="M9.49,22l22.511,13L32,61c-8.977-0.01-17.709-4.667-22.518-13.002S5.007,29.778,9.49,22z"/>
	</g>
	<g>
		<g>
			<circle class="st5" cx="54" cy="52" r="8"/>
		</g>
		<path class="st6" d="M55,51h-2c-0.552,0-1-0.448-1-1s0.448-1,1-1h2c0.552,0,1,0.448,1,1h2c0-1.654-1.346-3-3-3v-1h-2v1    c-1.654,0-3,1.346-3,3s1.346,3,3,3h2c0.552,0,1,0.448,1,1s-0.448,1-1,1h-2c-0.552,0-1-0.448-1-1h-2c0,1.654,1.346,3,3,3v1h2v-1    c1.654,0,3-1.346,3-3S56.654,51,55,51z"/>
	</g>
	<g>
		<g>
			<circle class="st5" cx="10" cy="52" r="8"/>
		</g>
		<path class="st6" d="M11,51H9c-0.552,0-1-0.448-1-1s0.448-1,1-1h2c0.552,0,1,0.448,1,1h2c0-1.654-1.346-3-3-3v-1H9v1    c-1.654,0-3,1.346-3,3s1.346,3,3,3h2c0.552,0,1,0.448,1,1s-0.448,1-1,1H9c-0.552,0-1-0.448-1-1H6c0,1.654,1.346,3,3,3v1h2v-1    c1.654,0,3-1.346,3-3S12.654,51,11,51z"/>
	</g>
	<g>
		<g>
			<circle class="st5" cx="32" cy="11" r="8"/>
		</g>
		<path class="st6" d="M33,10h-2c-0.552,0-1-0.448-1-1s0.448-1,1-1h2c0.552,0,1,0.448,1,1h2c0-1.654-1.346-3-3-3V5h-2v1    c-1.654,0-3,1.346-3,3s1.346,3,3,3h2c0.552,0,1,0.448,1,1s-0.448,1-1,1h-2c-0.552,0-1-0.448-1-1h-2c0,1.654,1.346,3,3,3v1h2v-1    c1.654,0,3-1.346,3-3S34.654,10,33,10z"/>
	</g>
</g>
</svg>
