<?xml version="1.0" encoding="utf-8"?>
<!-- Generator: Adobe Illustrator 18.0.0, SVG Export Plug-In . SVG Version: 6.00 Build 0)  -->
<!DOCTYPE svg PUBLIC "-//W3C//DTD SVG 1.1//EN" "http://www.w3.org/Graphics/SVG/1.1/DTD/svg11.dtd">
<svg xmlns="http://www.w3.org/2000/svg" xmlns:xlink="http://www.w3.org/1999/xlink" version="1.1" id="Layer_2" x="0px" y="0px" viewBox="0 0 64 64" style="enable-background:new 0 0 64 64;" xml:space="preserve" width="512" height="512">
<style type="text/css">
	.st0{fill:#EDEFF1;}
	.st1{fill:#D3D3D3;}
	.st2{fill:#98CA69;}
	.st3{fill:#80D6FB;}
	.st4{fill:#FFB0AA;}
	.st5{fill:#FFE352;}
	.st6{fill:#6E83B7;}
	.st7{fill:#466089;}
	.st8{fill:#FFD3B3;}
	.st9{fill:#FCB98B;}
	.st10{fill:#FFB236;}
	.st11{fill:#46BEE8;}
	.st12{fill:#E0E2FF;}
	.st13{fill:#8FA5D1;}
	.st14{fill:#75AA40;}
</style>
<g>
	<g>
		<g>
			<path class="st6" d="M37,62h-5V52h5c1.654,0,3,1.346,3,3v4C40,60.654,38.654,62,37,62z M34,60h3c0.552,0,1-0.449,1-1v-4     c0-0.551-0.448-1-1-1h-3V60z"/>
		</g>
		<path class="st6" d="M19,52h-2c-1.654,0-3,1.346-3,3v7h2v-4h4v4h2v-7C22,53.346,20.654,52,19,52z M16,56v-1c0-0.551,0.449-1,1-1h2    c0.551,0,1,0.449,1,1v1H16z"/>
		<path class="st6" d="M46,52h-2c-1.654,0-3,1.346-3,3v7h2v-4h4v4h2v-7C49,53.346,47.654,52,46,52z M43,56v-1c0-0.551,0.448-1,1-1h2    c0.552,0,1,0.449,1,1v1H43z"/>
		<polygon class="st6" points="11,52 11,57.586 7,53.586 7,52 5,52 5,62 7,62 7,56.414 11,60.414 11,62 13,62 13,52   "/>
		<g>
			<path class="st6" d="M28,62h-2c-1.654,0-3-1.346-3-3h2c0,0.551,0.449,1,1,1h2c0.551,0,1-0.449,1-1s-0.449-1-1-1h-2     c-1.654,0-3-1.346-3-3s1.346-3,3-3h2c1.654,0,3,1.346,3,3h-2c0-0.551-0.449-1-1-1h-2c-0.551,0-1,0.449-1,1s0.449,1,1,1h2     c1.654,0,3,1.346,3,3S29.654,62,28,62z"/>
		</g>
		<path class="st6" d="M58.707,61.293l-1.008-1.008C57.887,59.894,58,59.462,58,59v-4c0-1.654-1.346-3-3-3h-2c-1.654,0-3,1.346-3,3    v4c0,1.654,1.346,3,3,3h2c0.462,0,0.894-0.113,1.285-0.301l1.008,1.008L58.707,61.293z M53,60c-0.552,0-1-0.449-1-1v-4    c0-0.551,0.448-1,1-1h2c0.552,0,1,0.449,1,1v3.586l-1.293-1.293l-1.414,1.414L54.586,60H53z"/>
	</g>
	<g>
		<g>
			<path class="st6" d="M32,48h11V9.151c0-2.261-1.259-4.344-3.282-5.352C37.856,2.87,35.245,2,32,2s-5.856,0.87-7.718,1.798     C22.259,4.807,21,6.89,21,9.151V48H32z"/>
		</g>
		<g>
			<rect x="23" y="10" class="st7" width="2" height="4"/>
		</g>
		<g>
			<rect x="39" y="10" class="st7" width="2" height="4"/>
		</g>
		<g>
			<rect x="23" y="19" class="st7" width="2" height="4"/>
		</g>
		<g>
			<rect x="23" y="33" class="st7" width="2" height="4"/>
		</g>
		<g>
			<rect x="39" y="19" class="st7" width="2" height="4"/>
		</g>
		<g>
			<rect x="39" y="33" class="st7" width="2" height="4"/>
		</g>
		<g>
			<rect x="31" y="16" class="st7" width="2" height="4"/>
		</g>
		<g>
			<rect x="31" y="26" class="st7" width="2" height="4"/>
		</g>
		<g>
			<rect x="31" y="5" class="st7" width="2" height="4"/>
		</g>
		<g>
			<polygon class="st0" points="21,10 9,18 9,48 21,48    "/>
		</g>
		<g>
			<polygon class="st0" points="9,20 2,25 2,48 9,48    "/>
		</g>
		<g>
			<polygon class="st1" points="8,20.714 8,48 9,48 9,20    "/>
		</g>
		<g>
			<polygon class="st1" points="20,10.667 20,48 21,48 21,10    "/>
		</g>
		<g>
			<polygon class="st0" points="43,10 55,18 55,48 43,48    "/>
		</g>
		<g>
			<polygon class="st0" points="55,20 62,25 62,48 55,48    "/>
		</g>
		<g>
			<polygon class="st1" points="56,20.714 56,48 55,48 55,20    "/>
		</g>
		<g>
			<polygon class="st1" points="44,10.667 44,48 43,48 43,10    "/>
		</g>
	</g>
</g>
</svg>
