<?xml version="1.0" encoding="utf-8"?>
<!-- Generator: Adobe Illustrator 18.0.0, SVG Export Plug-In . SVG Version: 6.00 Build 0)  -->
<!DOCTYPE svg PUBLIC "-//W3C//DTD SVG 1.1//EN" "http://www.w3.org/Graphics/SVG/1.1/DTD/svg11.dtd">
<svg xmlns="http://www.w3.org/2000/svg" xmlns:xlink="http://www.w3.org/1999/xlink" version="1.1" id="Layer_2" x="0px" y="0px" viewBox="0 0 64 64" style="enable-background:new 0 0 64 64;" xml:space="preserve" width="512" height="512">
<style type="text/css">
	.st0{fill:#EDEFF1;}
	.st1{fill:#D3D3D3;}
	.st2{fill:#98CA69;}
	.st3{fill:#80D6FB;}
	.st4{fill:#FFB0AA;}
	.st5{fill:#FFE352;}
	.st6{fill:#6E83B7;}
	.st7{fill:#466089;}
	.st8{fill:#FFD3B3;}
	.st9{fill:#FCB98B;}
	.st10{fill:#FFB236;}
	.st11{fill:#46BEE8;}
	.st12{fill:#E0E2FF;}
	.st13{fill:#8FA5D1;}
	.st14{fill:#75AA40;}
</style>
<g>
	<g>
		<polygon class="st1" points="26.5,11 25.5,11 25.5,8.793 26.156,8.137 24.156,7.137 25.5,5.793 25.5,5 26.5,5 26.5,6.207     25.844,6.863 27.844,7.863 26.5,9.207   "/>
	</g>
	<g>
		<g>
			<path class="st0" d="M50,52c0-6.627-5.373-12-12-12H14C7.373,40,2,45.373,2,52v10h24h24V52z"/>
		</g>
	</g>
	<g>
		<rect x="10" y="56" class="st1" width="2" height="6"/>
	</g>
	<g>
		<rect x="40" y="56" class="st1" width="2" height="6"/>
	</g>
	<g>
		<path class="st1" d="M37,37c0-0.552-0.448-1-1-1c0.552,0,1-0.448,1-1c0-0.552-0.448-1-1-1H16c-0.552,0-1,0.448-1,1    c0,0.552,0.448,1,1,1c-0.552,0-1,0.448-1,1c0,0.552,0.448,1,1,1c-0.552,0-1,0.448-1,1c0,0.552,0.448,1,1,1h20c0.552,0,1-0.448,1-1    c0-0.552-0.448-1-1-1C36.552,38,37,37.552,37,37z"/>
	</g>
	<g>
		<path class="st3" d="M51,15c-6.075,0-11,4.925-11,11c0,2.047,0.569,3.957,1.543,5.598L40,37l5.402-1.543    C47.043,36.431,48.953,37,51,37c6.075,0,11-4.925,11-11S57.075,15,51,15z"/>
	</g>
	<g>
		<path class="st0" d="M39,34H13V23c0-7.18,5.82-13,13-13h0c7.18,0,13,5.82,13,13V34z"/>
	</g>
	<g>
		<polygon class="st1" points="37,62 35,62 35,51 17,51 17,62 15,62 15,49 37,49   "/>
	</g>
	<g>
		<path class="st1" d="M31.5,32h-11c-1.381,0-2.5-1.119-2.5-2.5v0c0-1.381,1.119-2.5,2.5-2.5h11c1.381,0,2.5,1.119,2.5,2.5v0    C34,30.881,32.881,32,31.5,32z"/>
	</g>
	<g>
		<circle class="st0" cx="26" cy="4" r="2"/>
	</g>
	<g>
		<path class="st1" d="M20,24.5c-1.93,0-3.5-1.57-3.5-3.5s1.57-3.5,3.5-3.5s3.5,1.57,3.5,3.5S21.93,24.5,20,24.5z M20,18.5    c-1.378,0-2.5,1.122-2.5,2.5s1.122,2.5,2.5,2.5s2.5-1.122,2.5-2.5S21.378,18.5,20,18.5z"/>
	</g>
	<g>
		<path class="st1" d="M32,24.5c-1.93,0-3.5-1.57-3.5-3.5s1.57-3.5,3.5-3.5s3.5,1.57,3.5,3.5S33.93,24.5,32,24.5z M32,18.5    c-1.378,0-2.5,1.122-2.5,2.5s1.122,2.5,2.5,2.5s2.5-1.122,2.5-2.5S33.378,18.5,32,18.5z"/>
	</g>
	<g>
		<g>
			<path class="st5" d="M56,24c0-3.115-2.849-5.565-6.083-4.886c-1.92,0.403-3.454,1.979-3.822,3.906     c-0.355,1.858,0.325,3.557,1.555,4.665c0.67,0.603,1.083,1.44,1.21,2.332L49,31h2h2l0.141-0.984     c0.128-0.895,0.545-1.731,1.216-2.337C55.363,26.77,56,25.465,56,24z"/>
		</g>
		<path class="st6" d="M51.531,23.5h-1.062c-0.31,0-0.561-0.251-0.561-0.561s0.251-0.562,0.561-0.562h1.062    c0.31,0,0.561,0.252,0.561,0.562h1c0-0.861-0.7-1.562-1.561-1.562H51.5v-0.561h-1v0.561h-0.031c-0.861,0-1.561,0.701-1.561,1.562    s0.7,1.561,1.561,1.561h1.062c0.31,0,0.561,0.251,0.561,0.561s-0.251,0.562-0.561,0.562h-1.062c-0.31,0-0.561-0.252-0.561-0.562    h-1c0,0.861,0.7,1.562,1.561,1.562H50.5v0.561h1v-0.561h0.031c0.861,0,1.561-0.701,1.561-1.562S52.392,23.5,51.531,23.5z"/>
		<g>
			<polygon class="st0" points="53,31 53,32 52,33 51,33 50,33 49,32 49,31    "/>
		</g>
	</g>
	<g>
		<circle class="st1" cx="21" cy="54" r="2"/>
	</g>
	<g>
		<rect x="25" y="53" class="st1" width="8" height="2"/>
	</g>
	<g>
		<circle class="st1" cx="21" cy="59" r="2"/>
	</g>
	<g>
		<rect x="25" y="58" class="st1" width="8" height="2"/>
	</g>
</g>
</svg>
