<?xml version="1.0" encoding="utf-8"?>
<!-- Generator: Adobe Illustrator 18.0.0, SVG Export Plug-In . SVG Version: 6.00 Build 0)  -->
<!DOCTYPE svg PUBLIC "-//W3C//DTD SVG 1.1//EN" "http://www.w3.org/Graphics/SVG/1.1/DTD/svg11.dtd">
<svg xmlns="http://www.w3.org/2000/svg" xmlns:xlink="http://www.w3.org/1999/xlink" version="1.1" id="Layer_2" x="0px" y="0px" viewBox="0 0 64 64" style="enable-background:new 0 0 64 64;" xml:space="preserve" width="512" height="512">
<style type="text/css">
	.st0{fill:#EDEFF1;}
	.st1{fill:#D3D3D3;}
	.st2{fill:#98CA69;}
	.st3{fill:#80D6FB;}
	.st4{fill:#FFB0AA;}
	.st5{fill:#FFE352;}
	.st6{fill:#6E83B7;}
	.st7{fill:#466089;}
	.st8{fill:#FFD3B3;}
	.st9{fill:#FCB98B;}
	.st10{fill:#FFB236;}
	.st11{fill:#46BEE8;}
	.st12{fill:#E0E2FF;}
	.st13{fill:#8FA5D1;}
	.st14{fill:#75AA40;}
</style>
<g>
	<g>
		<g>
			<path class="st0" d="M54,50H6c-2.209,0-4-1.791-4-4V8c0-2.209,1.791-4,4-4h48c2.209,0,4,1.791,4,4v38C58,48.209,56.209,50,54,50z     "/>
		</g>
		<g>
			<circle class="st1" cx="30" cy="27" r="7"/>
		</g>
		<g>
			<circle class="st0" cx="30" cy="27" r="6"/>
		</g>
		<g>
			<polygon class="st1" points="32,25 32,27 32,29 35,27    "/>
		</g>
		<g>
			<rect x="29.5" y="17" class="st1" width="1" height="2"/>
		</g>
		<g>
			<rect x="24.5" y="18.706" transform="matrix(0.5 0.866 -0.866 0.5 29.3818 -12.4809)" class="st1" width="2" height="0.999"/>
		</g>
		<g>
			<rect x="21.206" y="22" transform="matrix(0.8661 0.4999 -0.4999 0.8661 14.2222 -8.0879)" class="st1" width="2" height="1"/>
		</g>
		<g>
			<rect x="20" y="26.5" class="st1" width="2" height="1"/>
		</g>
		<g>
			<rect x="21.706" y="30.5" transform="matrix(0.4999 0.8661 -0.8661 0.4999 38.3861 -3.4795)" class="st1" width="1" height="2"/>
		</g>
		<g>
			
				<rect x="25" y="33.794" transform="matrix(0.8658 0.5003 -0.5003 0.8658 20.8304 -8.0903)" class="st1" width="0.999" height="2"/>
		</g>
		<g>
			<rect x="29.5" y="35" class="st1" width="1" height="2"/>
		</g>
		<g>
			<rect x="33.5" y="34.295" transform="matrix(0.5 0.866 -0.866 0.5 47.3813 -12.4812)" class="st1" width="2" height="0.999"/>
		</g>
		<g>
			<rect x="36.794" y="31" transform="matrix(0.8661 0.4999 -0.4999 0.8661 20.8091 -14.6752)" class="st1" width="2" height="1"/>
		</g>
		<g>
			<rect x="38" y="26.5" class="st1" width="2" height="1"/>
		</g>
		<g>
			
				<rect x="37.294" y="21.5" transform="matrix(0.4999 0.8661 -0.8661 0.4999 38.3866 -21.4805)" class="st1" width="1" height="2"/>
		</g>
		<g>
			
				<rect x="34" y="18.206" transform="matrix(0.8658 0.5003 -0.5003 0.8658 14.2384 -14.6849)" class="st1" width="0.999" height="2"/>
		</g>
		<path class="st1" d="M52,7H8c-1.654,0-3,1.346-3,3v2H4v8h1v14H4v8h1v2c0,1.654,1.346,3,3,3h44c1.654,0,3-1.346,3-3V10    C55,8.346,53.654,7,52,7z M53,44c0,0.551-0.448,1-1,1H8c-0.552,0-1-0.449-1-1v-2h1v-8H7V20h1v-8H7v-2c0-0.551,0.448-1,1-1h44    c0.552,0,1,0.449,1,1V44z"/>
		<g>
			<path class="st1" d="M6,50v4h6l4-4C16,50,5.875,50.125,6,50z"/>
		</g>
		<g>
			<path class="st1" d="M54,50v4h-6l-4-4C44,50,54.125,50.125,54,50z"/>
		</g>
	</g>
	<g>
		<g>
			<g>
				<path class="st5" d="M44,60H30c-0.552,0-1-0.448-1-1v-3c0-0.552,0.448-1,1-1h14c0.552,0,1,0.448,1,1v3      C45,59.552,44.552,60,44,60z"/>
			</g>
			<path class="st10" d="M43.5,59v-3h-1v3h-2v-3h-1v3h-2v-3h-1v3h-2v-3h-1v3h-2v-3h-1v3H29c0,0.552,0.448,1,1,1h14     c0.552,0,1-0.448,1-1H43.5z"/>
		</g>
		<g>
			<g>
				<path class="st5" d="M44,55H30c-0.552,0-1-0.448-1-1v-3c0-0.552,0.448-1,1-1h14c0.552,0,1,0.448,1,1v3      C45,54.552,44.552,55,44,55z"/>
			</g>
			<path class="st10" d="M43.5,54v-3h-1v3h-2v-3h-1v3h-2v-3h-1v3h-2v-3h-1v3h-2v-3h-1v3H29c0,0.552,0.448,1,1,1h14     c0.552,0,1-0.448,1-1H43.5z"/>
		</g>
		<g>
			<g>
				<path class="st5" d="M44,50H30c-0.552,0-1-0.448-1-1v-3c0-0.552,0.448-1,1-1h14c0.552,0,1,0.448,1,1v3      C45,49.552,44.552,50,44,50z"/>
			</g>
			<path class="st10" d="M43.5,49v-3h-1v3h-2v-3h-1v3h-2v-3h-1v3h-2v-3h-1v3h-2v-3h-1v3H29c0,0.552,0.448,1,1,1h14     c0.552,0,1-0.448,1-1H43.5z"/>
		</g>
		<g>
			<g>
				<path class="st5" d="M44,45H30c-0.552,0-1-0.448-1-1v-3c0-0.552,0.448-1,1-1h14c0.552,0,1,0.448,1,1v3      C45,44.552,44.552,45,44,45z"/>
			</g>
			<path class="st10" d="M43.5,44v-3h-1v3h-2v-3h-1v3h-2v-3h-1v3h-2v-3h-1v3h-2v-3h-1v3H29c0,0.552,0.448,1,1,1h14     c0.552,0,1-0.448,1-1H43.5z"/>
		</g>
		<g>
			<g>
				<path class="st5" d="M61,60H47c-0.552,0-1-0.448-1-1v-3c0-0.552,0.448-1,1-1h14c0.552,0,1,0.448,1,1v3      C62,59.552,61.552,60,61,60z"/>
			</g>
			<path class="st10" d="M60.5,59v-3h-1v3h-2v-3h-1v3h-2v-3h-1v3h-2v-3h-1v3h-2v-3h-1v3H46c0,0.552,0.448,1,1,1h14     c0.552,0,1-0.448,1-1H60.5z"/>
		</g>
		<g>
			<g>
				<path class="st5" d="M61,55H47c-0.552,0-1-0.448-1-1v-3c0-0.552,0.448-1,1-1h14c0.552,0,1,0.448,1,1v3      C62,54.552,61.552,55,61,55z"/>
			</g>
			<path class="st10" d="M60.5,54v-3h-1v3h-2v-3h-1v3h-2v-3h-1v3h-2v-3h-1v3h-2v-3h-1v3H46c0,0.552,0.448,1,1,1h14     c0.552,0,1-0.448,1-1H60.5z"/>
		</g>
	</g>
</g>
</svg>
