<?xml version="1.0" encoding="utf-8"?>
<!-- Generator: Adobe Illustrator 18.0.0, SVG Export Plug-In . SVG Version: 6.00 Build 0)  -->
<!DOCTYPE svg PUBLIC "-//W3C//DTD SVG 1.1//EN" "http://www.w3.org/Graphics/SVG/1.1/DTD/svg11.dtd">
<svg xmlns="http://www.w3.org/2000/svg" xmlns:xlink="http://www.w3.org/1999/xlink" version="1.1" id="Layer_2" x="0px" y="0px" viewBox="0 0 64 64" style="enable-background:new 0 0 64 64;" xml:space="preserve" width="512" height="512">
<style type="text/css">
	.st0{fill:#EDEFF1;}
	.st1{fill:#D3D3D3;}
	.st2{fill:#98CA69;}
	.st3{fill:#80D6FB;}
	.st4{fill:#FFB0AA;}
	.st5{fill:#FFE352;}
	.st6{fill:#6E83B7;}
	.st7{fill:#466089;}
	.st8{fill:#FFD3B3;}
	.st9{fill:#FCB98B;}
	.st10{fill:#FFB236;}
	.st11{fill:#46BEE8;}
	.st12{fill:#E0E2FF;}
	.st13{fill:#8FA5D1;}
	.st14{fill:#75AA40;}
</style>
<g>
	<g>
		<g>
			<path class="st6" d="M34,16c0,0,7.293-7.429,4-10c-2.281-1.781-4.599,1.066-6-1c-2.109-3.109-4-3-4-3s-1.891-0.109-4,3     c-1.401,2.066-3.719-0.781-6,1c-3.293,2.571,4,10,4,10H34z"/>
		</g>
		<path class="st7" d="M35.204,13.404c-1.341-0.605-2.933-0.962-4.34-1.167c0.704-0.653,1.34-1.637,1.627-3.144l-0.982-0.188    c-0.348,1.827-1.271,2.72-2.083,3.162C28.857,12.021,28.364,12,28,12c-0.361,0-0.848,0.02-1.411,0.067    c-0.818-0.443-1.75-1.337-2.097-3.161l-0.982,0.188c0.287,1.507,0.923,2.491,1.628,3.144c-1.407,0.205-2.999,0.562-4.341,1.167    c-0.25,0.113-0.476,0.259-0.681,0.428C21.123,15.107,22,16,22,16h12c0,0,0.877-0.894,1.885-2.168    C35.68,13.664,35.454,13.517,35.204,13.404z"/>
		<g>
			<path class="st5" d="M28,18h8v-1.843c0-0.8-0.479-1.512-1.208-1.841C32.466,13.266,29.261,13,28,13s-4.466,0.265-6.792,1.315     C20.479,14.645,20,15.357,20,16.157L20,18H28z"/>
		</g>
		<g>
			<path class="st6" d="M28,15h1c8.837,0,16,7.163,16,16v9.343c0,1.061,0.421,2.078,1.172,2.828l0.657,0.657     c0.75,0.75,1.172,1.768,1.172,2.828V47c0,2.209-1.791,4-4,4H28H12c-2.209,0-4-1.791-4-4v-0.343c0-1.061,0.421-2.078,1.172-2.828     l0.657-0.657c0.75-0.75,1.172-1.768,1.172-2.828V31c0-8.837,7.163-16,16-16H28z"/>
		</g>
		<g>
			<circle class="st5" cx="28" cy="32" r="8"/>
		</g>
		<path class="st6" d="M29,31h-2c-0.551,0-1-0.448-1-1s0.449-1,1-1h2c0.551,0,1,0.448,1,1h2c0-1.654-1.346-3-3-3v-1h-2v1    c-1.654,0-3,1.346-3,3s1.346,3,3,3h2c0.551,0,1,0.448,1,1s-0.449,1-1,1h-2c-0.551,0-1-0.448-1-1h-2c0,1.654,1.346,3,3,3v1h2v-1    c1.654,0,3-1.346,3-3S30.654,31,29,31z"/>
	</g>
	<g>
		<path class="st3" d="M44.219,61.585l11-8.462C55.712,52.745,56,52.159,56,51.538V34.239c0-0.987-0.72-1.827-1.696-1.977L43,30.523    l-11.304,1.739C30.72,32.412,30,33.252,30,34.239v17.299c0,0.621,0.288,1.207,0.781,1.585l11,8.462    C42.499,62.138,43.501,62.138,44.219,61.585z"/>
	</g>
	<path class="st11" d="M43,32.547l-11,1.692v17.3L43,60l11-8.462V34.239L43,32.547z M52,50.553l-9,6.923l-9-6.923V35.955l9-1.385   l9,1.385V50.553z"/>
	<g>
		<polygon class="st11" points="42,50.121 36.939,45.061 39.061,42.939 42,45.879 47.939,39.939 50.061,42.061   "/>
	</g>
</g>
</svg>
