<?xml version="1.0" encoding="utf-8"?>
<!-- Generator: Adobe Illustrator 18.0.0, SVG Export Plug-In . SVG Version: 6.00 Build 0)  -->
<!DOCTYPE svg PUBLIC "-//W3C//DTD SVG 1.1//EN" "http://www.w3.org/Graphics/SVG/1.1/DTD/svg11.dtd">
<svg xmlns="http://www.w3.org/2000/svg" xmlns:xlink="http://www.w3.org/1999/xlink" version="1.1" id="Layer_2" x="0px" y="0px" viewBox="0 0 64 64" style="enable-background:new 0 0 64 64;" xml:space="preserve" width="512" height="512">
<style type="text/css">
	.st0{fill:#EDEFF1;}
	.st1{fill:#D3D3D3;}
	.st2{fill:#98CA69;}
	.st3{fill:#80D6FB;}
	.st4{fill:#FFB0AA;}
	.st5{fill:#FFE352;}
	.st6{fill:#6E83B7;}
	.st7{fill:#466089;}
	.st8{fill:#FFD3B3;}
	.st9{fill:#FCB98B;}
	.st10{fill:#FFB236;}
	.st11{fill:#46BEE8;}
	.st12{fill:#E0E2FF;}
	.st13{fill:#8FA5D1;}
	.st14{fill:#75AA40;}
</style>
<g>
	<g>
		<g>
			<path class="st0" d="M48,2H6C3.791,2,2,3.791,2,6v42c0,2.209,1.791,4,4,4h42c2.209,0,4-1.791,4-4V6C52,3.791,50.209,2,48,2z"/>
		</g>
		<g>
			<path class="st6" d="M52,12H2V6c0-2.209,1.791-4,4-4h42c2.209,0,4,1.791,4,4V12z"/>
		</g>
		<g>
			<circle class="st4" cx="9" cy="7" r="2"/>
		</g>
		<g>
			<circle class="st5" cx="15" cy="7" r="2"/>
		</g>
		<g>
			<circle class="st2" cx="21" cy="7" r="2"/>
		</g>
	</g>
	<g>
		<g>
			<polygon class="st6" points="46,15 36,25 32,19 20,32 16,28 8,36 8,40 16,32 20,36 32,23 36,29 46,19    "/>
		</g>
		<g>
			<rect x="8" y="42" class="st2" width="6" height="7.125"/>
		</g>
		<g>
			<rect x="16" y="39" class="st4" width="6" height="10"/>
		</g>
		<g>
			<rect x="32" y="32" class="st4" width="6" height="17"/>
		</g>
		<g>
			<rect x="24" y="35" class="st2" width="6" height="14"/>
		</g>
		<g>
			<rect x="40" y="29" class="st2" width="6" height="20"/>
		</g>
	</g>
	<g>
		<g>
			<circle class="st3" cx="49" cy="49" r="13"/>
		</g>
		<g>
			<circle class="st0" cx="49" cy="49" r="11"/>
		</g>
		<path class="st6" d="M54,44l-4.572,3.048C49.29,47.018,49.147,47,49,47c-1.105,0-2,0.895-2,2c0,1.105,0.895,2,2,2s2-0.895,2-2    c0-0.147-0.018-0.29-0.048-0.428L54,44z"/>
		<g>
			<rect x="48" y="38" class="st6" width="2" height="2"/>
		</g>
		<g>
			<rect x="56.66" y="43" transform="matrix(0.4999 0.8661 -0.8661 0.4999 66.942 -27.9345)" class="st6" width="2" height="2"/>
		</g>
		<g>
			<rect x="53" y="39.34" transform="matrix(0.8661 0.4999 -0.4999 0.8661 27.3987 -21.5931)" class="st6" width="2" height="2"/>
		</g>
		<g>
			<rect x="58" y="48" class="st6" width="2" height="2"/>
		</g>
	</g>
</g>
</svg>
