<?xml version="1.0" encoding="utf-8"?>
<!-- Generator: Adobe Illustrator 18.0.0, SVG Export Plug-In . SVG Version: 6.00 Build 0)  -->
<!DOCTYPE svg PUBLIC "-//W3C//DTD SVG 1.1//EN" "http://www.w3.org/Graphics/SVG/1.1/DTD/svg11.dtd">
<svg xmlns="http://www.w3.org/2000/svg" xmlns:xlink="http://www.w3.org/1999/xlink" version="1.1" id="Layer_2" x="0px" y="0px" viewBox="0 0 64 64" style="enable-background:new 0 0 64 64;" xml:space="preserve" width="512" height="512">
<style type="text/css">
	.st0{fill:#EDEFF1;}
	.st1{fill:#D3D3D3;}
	.st2{fill:#98CA69;}
	.st3{fill:#80D6FB;}
	.st4{fill:#FFB0AA;}
	.st5{fill:#FFE352;}
	.st6{fill:#6E83B7;}
	.st7{fill:#466089;}
	.st8{fill:#FFD3B3;}
	.st9{fill:#FCB98B;}
	.st10{fill:#FFB236;}
	.st11{fill:#46BEE8;}
	.st12{fill:#E0E2FF;}
	.st13{fill:#8FA5D1;}
	.st14{fill:#75AA40;}
</style>
<g>
	<g>
		<rect x="4" y="34" class="st6" width="8" height="16"/>
	</g>
	<g>
		<rect x="16" y="30" class="st6" width="8" height="20"/>
	</g>
	<g>
		<rect x="28" y="26" class="st6" width="8" height="24"/>
	</g>
	<g>
		<rect x="40" y="22" class="st6" width="8" height="28"/>
	</g>
	<g>
		<rect x="52" y="18" class="st6" width="8" height="32"/>
	</g>
	<polygon class="st6" points="11,24 11,22 4,22 4,31 6,31 6,28 9,28 9,26 6,26 6,24  "/>
	<g>
		<path class="st6" d="M21,27h-5V17h5c1.654,0,3,1.346,3,3v4C24,25.654,22.654,27,21,27z M18,25h3c0.552,0,1-0.449,1-1v-4    c0-0.551-0.448-1-1-1h-3V25z"/>
	</g>
	<path class="st6" d="M48,12c0-1.654-1.346-3-3-3h-5v4v2v4h5c1.654,0,3-1.346,3-3c0-0.771-0.301-1.468-0.78-2   C47.699,13.468,48,12.771,48,12z M42,11h3c0.552,0,1,0.449,1,1s-0.448,1-1,1h-3V11z M45,17h-3v-2h3c0.552,0,1,0.449,1,1   S45.552,17,45,17z"/>
	<g>
		<path class="st6" d="M33,23h-2c-1.654,0-3-1.346-3-3v-4c0-1.654,1.346-3,3-3h2c1.654,0,3,1.346,3,3h-2c0-0.551-0.448-1-1-1h-2    c-0.552,0-1,0.449-1,1v4c0,0.551,0.448,1,1,1h2c0.552,0,1-0.449,1-1h2C36,21.654,34.654,23,33,23z"/>
	</g>
	<path class="st6" d="M57,5h-2c-1.654,0-3,1.346-3,3v7h2v-4h4v4h2V8C60,6.346,58.654,5,57,5z M54,9V8c0-0.551,0.448-1,1-1h2   c0.552,0,1,0.449,1,1v1H54z"/>
	<g>
		<rect x="2" y="54" class="st6" width="60" height="4"/>
	</g>
</g>
</svg>
