<svg height="512" viewBox="0 0 59 58" width="512" xmlns="http://www.w3.org/2000/svg"><g id="003---Global-Funding" fill="none"><path id="Shape" d="m49.778 44.633c-.507 0 .162.42-9.919-7.775-.2857214-.2227-.4286599-.5825103-.3736512-.940569.0550088-.3580587.299362-.6583692.6387562-.7850324.3393942-.1266631.7207518-.0598702.996895.1746014l9.289 7.55c.3286346.2671136.4533757.7122736.3113934 1.1112616-.1419822.3989881-.5198959.6652754-.9433934.6647384z" fill="#285680"/><path id="Shape" d="m7.919 53.7c-.38813719-.0006612-.74083258-.2258595-.9047475-.5776874-.16391491-.3518278-.1094375-.7667261.1397475-1.0643126l5.98-7.131c.3583267-.4094882.9782994-.4573183 1.395195-.1076376.4168957.3496807.4776867.9685171.136805 1.3926376l-5.98 7.131c-.19025872.2266143-.47110764.3573353-.767.357z" fill="#285680"/><path id="Shape" d="m38 23c-.3937523.0001053-.7509145-.2308641-.912353-.59-.1614384-.3591358-.0970986-.7795785.164353-1.074l5.78-6.51c.3667171-.4142136.9997864-.4527171 1.414-.086s.4527171.9997864.086 1.414l-5.779 6.51c-.1909934.2150863-.4653573.3375116-.753.336z" fill="#285680"/><path id="Shape" d="m13.9 19.23c-.3419963.0001429-.660348-.1744979-.844-.463l-5.6-8.79c-.29740534-.46585219-.16085219-1.08459466.305-1.382s1.08459466-.16085219 1.382.305l5.6 8.79c.1975783.3079526.2111984.6992236.0355118 1.0201694-.1756866.3209459-.5126269.5203193-.8785118.5198306z" fill="#285680"/><path id="Shape" d="m25 16c-.5522847 0-1-.4477153-1-1v-7c0-.55228475.4477153-1 1-1s1 .44771525 1 1v7c0 .5522847-.4477153 1-1 1z" fill="#285680"/><g fill="#2fa8cc"><path id="Shape" d="m36.45 20.34c-.23 3.325-2.293 7.205-4.19 9.95-4.185-5.29-11.127-10.99-17.76-12.46-.0109925.0013232-.0219999-.002346-.03-.01 6.9439444-4.7020393 16.2804236-3.631615 21.98 2.52z"/><path id="Shape" d="m40.77 34.64c-1.5887856.4926241-3.2091764.8768405-4.85 1.15-.715521-1.3501557-1.5276341-2.6468632-2.43-3.88 2.1385528-2.8334423 3.69513-6.0621506 4.58-9.5 0-.01.01-.03.01-.04 2.4343581 3.5948263 3.3971506 7.9864485 2.69 12.27z"/><path id="Shape" d="m36.45 43.46c-5.6951927 6.1521213-15.0297264 7.2228097-21.97 2.52h.02c4.11-.92 8.75-3.59 12.99-7.43 2.4491699-.0907468 4.8922425-.3043488 7.32-.64.8690343 1.739066 1.4242212 3.6179 1.64 5.55z"/><path id="Shape" d="m31.08 31.9c-1.3255098 1.7022869-2.7833745 3.2972444-4.36 4.77-5.645.19-12.844-.2-18.32-1.68-.185-.053-.99-.28-1.17-.35-.15268142-.8952655-.2296205-1.8018086-.23-2.71l.03-.02v-.01l-.03-.03c-.00293721-4.7185042 1.96991164-9.2226922 5.44-12.42 6.476.45 14.418 7.004 18.64 12.45z"/><path id="Shape" d="m7.03 31.9v.01l-.03.02v-.06z"/><path id="Shape" d="m40.77 34.64c-.5203107 3.3075219-2.0258366 6.3813039-4.32 8.82-.2157788-1.9321-.7709657-3.810934-1.64-5.55-2.4243254.3363767-4.8641056.5499826-7.31.64-.2 0-5.9 5.841-13 7.43-.7382185-.4748001-1.4281764-1.0207377-2.06-1.63-2.77808556-2.5595369-4.61336203-5.979985-5.21-9.71.17992418.0671594.36356046.1239197.55.17 5.452 1.636 13.259 2.052 18.94 1.86 1.5763624-1.4730159 3.0342074-3.0679518 4.36-4.77-4.166-5.374-12.143-12-18.64-12.45.6310402-.597833 1.3099756-1.142988 2.03-1.63.0080001.007654.0190075.0113232.03.01 6.631 1.47 13.573 7.17 17.76 12.46 1.9-2.746 3.961-6.627 4.19-9.95.597833.6310402 1.142988 1.3099756 1.63 2.03 0 .01-.01.03-.01.04-.88487 3.4378494-2.4414472 6.6665577-4.58 9.5.9023659 1.2331368 1.714479 2.5298443 2.43 3.88 1.6407274-.273637 3.261086-.6578458 4.85-1.15z"/></g><path id="Shape" d="m38.08 22.37c0 .01-.01.03-.01.04-2.445 10.949-16.67 23.91-26.42 23.91-5.739 0-9.193-5.14-4.83-14.13.0458303-.095665.10658983-.1834288.18-.26.0003795.9081914.07731858 1.8147345.23 2.71.17992418.0671594.36356046.1239197.55.17-.965 2.652-1.725 6.325.28 8.33 3.968 3.968 15.662-1.748 23.02-11.24 7.913-10.229 7.372-19.9-3.2-16.56-1.2595704-.2895017-2.5475913-.4370874-3.84-.44.0728915-.0733119.157354-.1341249.25-.18 5.34-2.55 9.83-2.6 12.3-.12 1.72 1.71 2.24 4.4 1.49 7.77z" fill="#e64c3c"/><path id="Shape" d="m24.29 49.09c-.0982132-.0457968-.1865339-.1103388-.26-.19 1.2996793-.0012526 2.5948866-.1522483 3.86-.45 5.109 1.635 9.031.293 8.56-4.99-.667-9.494-14.616-23.36-24.01-24.01-4.889-.439-6.474 2.942-5.24 7.71.326 1.3.27.391.03 2-.14365181.8963936-.22052993 1.8022183-.23 2.71-.0733119-.0728915-.1341249-.157354-.18-.25-4.7-9.822-.413-15.594 7.65-13.8.0080001.007654.0190075.0113232.03.01 8.794 1.952 18.811 11.564 22.28 19.75 4.765 10.682-1.38 16.796-12.49 11.51z" fill="#802f34"/><path id="Shape" d="m47.06 31.9c0 8.935-46.12 8.94-46.12 0 0-1.62 1.48-3.01 4.43-4.13.76564836-.2927444 1.54682997-.5431232 2.34-.75-.21655254.6994608-.37705988 1.415056-.48 2.14-.47.14-.89.29-1.27.44-2.39.94-3.1 1.84-3.1 2.3 0 1.423 4.166 2.7 5.54 3.09 8.219 2.214 22.209 2.387 31.2 0 1.358-.356 5.54-1.706 5.54-3.09 0-.53-.96-1.66-4.37-2.74-.1089879-.723825-.2693938-1.4389679-.48-2.14 4.5 1.23 6.77 2.87 6.77 4.88z" fill="#c03a2b"/><circle id="Oval" cx="50" cy="9" fill="#f0c419" r="9"/><path id="Shape" d="m50 15c-4.274 0-5.4-4.5-3.333-4.5.5522847 0 1 .4477153 1 1 0 .8 1.09 1.5 2.333 1.5s2.333-.7 2.333-1.5-1.09-1.5-2.333-1.5c-2.39 0-4.333-1.57-4.333-3.5s1.943-3.5 4.333-3.5c4.274 0 5.4 4.5 3.333 4.5-.5522847 0-1-.44771525-1-1 0-.8-1.09-1.5-2.333-1.5s-2.333.7-2.333 1.5 1.09 1.5 2.333 1.5c2.39 0 4.333 1.57 4.333 3.5s-1.943 3.5-4.333 3.5z" fill="#f5efca"/><path id="Shape" d="m50 15.833c-.5522847 0-1-.4477153-1-1v-11.666c0-.55228475.4477153-1 1-1s1 .44771525 1 1v11.666c0 .5522847-.4477153 1-1 1z" fill="#f5efca"/><circle id="Oval" cx="54" cy="47" fill="#f0c419" r="5"/><circle id="Oval" cx="6" cy="5" fill="#f0c419" r="5"/><circle id="Oval" cx="6" cy="55" fill="#f0c419" r="3"/><circle id="Oval" cx="25" cy="5" fill="#f0c419" r="3"/></g></svg>