<svg height="512" viewBox="0 0 58 60" width="512" xmlns="http://www.w3.org/2000/svg"><g id="040---Bank-Statement" fill="none"><path id="Shape" d="m35 1h-26c-2.209139 0-4 1.790861-4 4v50c.00713535 2.2061767 1.79382332 3.9928647 4 4h26c2.209139 0 4-1.790861 4-4v-50c-.0071353-2.20617668-1.7938233-3.99286465-4-4z" fill="#90bae1"/><path id="Shape" d="m37.78 2.13c-5.95.82-31.65 7.19-31.78 55.51-.64311092-.7292169-.99860087-1.6677104-1-2.64v-50c0-2.209139 1.790861-4 4-4h26c1.038715-.00102477 2.0365677.40457724 2.78 1.13z" fill="#b0d3f0"/><path id="Shape" d="m35 60h-26c-2.76005315-.0033061-4.99669388-2.2399468-5-5v-50c.00330612-2.76005315 2.23994685-4.99669388 5-5h26c2.7600532.00330612 4.9966939 2.23994685 5 5v50c-.0033061 2.7600532-2.2399468 4.9966939-5 5zm-26-58c-1.65685425 0-3 1.34314575-3 3v50c0 1.6568542 1.34314575 3 3 3h26c1.6568542 0 3-1.3431458 3-3v-50c0-1.65685425-1.3431458-3-3-3z" fill="#464f5d"/><path id="Shape" d="m28.175 7h-12.35c-1.2875903.04028668-2.5048754-.58650173-3.22-1.658l-2.605-4.342h24l-2.6 4.342c-.7160749 1.07303921-1.9356554 1.70003597-3.225 1.658z" fill="#464f5d"/><path id="Shape" d="m30 56h-16c-.5522847 0-1-.4477153-1-1s.4477153-1 1-1h16c.5522847 0 1 .4477153 1 1s-.4477153 1-1 1z" fill="#464f5d"/><path id="Shape" d="m17 15v11c-.003084 1.0845612-.5869353 2.0843588-1.53 2.62 0-.364.3.634-4.47-13.39v-.23z" fill="#f0c419"/><path id="Shape" d="m58 25v1h-23v-1c0-1.6568542-1.3431458-3-3-3h23c1.6568542 0 3 1.3431458 3 3z" fill="#f9eab0"/><path id="Shape" d="m53 26v22c0 1.6568542-1.3431458 3-3 3h-22.73v-.29c1.0557915-.4886834 1.7311387-1.5465972 1.73-2.71v-23c0-1.6568542 1.3431458-3 3-3s3 1.3431458 3 3v1z" fill="#f3d55b"/><path id="Shape" d="m48 14v8h-16c-1.6568542 0-3 1.3431458-3 3v23c0 1.6568542-1.3431458 3-3 3s-3-1.3431458-3-3v-34c0-1.6568542-1.3431458-3-3-3h25c1.6568542 0 3 1.3431458 3 3z" fill="#f0c419"/><path id="Shape" d="m23 14v15h-7.54c.0183088-.125829.0216655-.2533823.01-.38.9430647-.5356412 1.526916-1.5354388 1.53-2.62v-12c0-1.6568542 1.3431458-3 3-3s3 1.3431458 3 3z" fill="#f29c1f"/><circle id="Oval" cx="41" cy="38" fill="#f29c1f" r="8"/><path id="Shape" d="m41 47c-4.9705627 0-9-4.0294373-9-9s4.0294373-9 9-9 9 4.0294373 9 9c-.0055111 4.9682782-4.0317218 8.9944889-9 9zm0-16c-3.8659932 0-7 3.1340068-7 7s3.1340068 7 7 7 7-3.1340068 7-7c-.0044086-3.8641657-3.1358343-6.9955914-7-7z" fill="#f0c419"/><g fill="#f3d55b"><path id="Shape" d="m37.991 36.013c-.0034553-.7956517.3093062-1.5600874.869479-2.1251362.5601728-.5650487 1.3218692-.8844234 2.117521-.8878638 2.972-.013 3.937 3.987 2.016 3.991-.550338.0000069-.9972483-.4446689-1-.995 0-.5522847-.4477153-1-1-1s-1 .4477153-1 1 .4477153 1 1 1c.2669492-.0016039.5234582.1035948.7124109.2921719.1889528.1885771.2946617.4448762.2935891.7118281.007 1.9-3.994.988-4.009-1.987z"/><path id="Shape" d="m41.009 43c-2.963 0-3.92-3.987-2-3.991.550338-.0000069.9972483.4446689 1 .995 0 .5522847.4477153 1 1 1s1-.4477153 1-1-.4477153-1-1-1c-.2674672.0024095-.5247516-.1024333-.7143564-.2910985s-.2957244-.4454256-.2946436-.7129015c-.007-1.908 3.994-.992 4.009 1.983.0045254.7985909-.3095462 1.5660272-.8726466 2.1323185-.5631003.5662913-1.3287497.8846943-2.1273534.8846815z"/><path id="Shape" d="m40.994 35c-.5499402-.0032997-.9940099-.4500499-.994-1v-1c0-.5522847.4477153-1 1-1s1 .4477153 1 1v1c-.0032998.5532539-.4527363 1.0000098-1.006 1z"/><path id="Shape" d="m41.03 44c-.5522847 0-1-.4477153-1-1v-1c0-.5522847.4477153-1 1-1s1 .4477153 1 1v1c0 .5522847-.4477153 1-1 1z"/></g><path id="Shape" d="m6.91 16.05c-2.39065745.1310628-4.59646404 1.3275568-6.01 3.26-.26-.75-.51-1.49-.76-2.23-.37908091-1.6982118.11634345-3.4734824 1.32-4.73.98216694-.7957425 2.21639993-1.2142468 3.48-1.18.57218862.0348611 1.12769566.2063139 1.62.5-.50970897.5478384-.67857587 1.3307668-.44 2.04z" fill="#3b97d3"/><path id="Shape" d="m14.73 33.91c-2.1345863 1.4206877-4.6020765 2.2615642-7.16 2.44 0-.163-3.1-6.682-6.67-17.04 1.41353596-1.9324432 3.61934255-3.1289372 6.01-3.26 4.854 14.212 4.6 13.523 4.7 13.67.4394194.8339492 1.4049645 1.2435744 2.31.98.026.1.81 3.109.81 3.21z" fill="#285680"/><path id="Shape" d="m15.81 38.42c-1.5552343 1.8267784-3.9856314 2.6557154-6.333 2.16-.649-1.4-1.277-2.79-1.907-4.23 2.5579235-.1784358 5.0254137-1.0193123 7.16-2.44.39 1.51.74 3.01 1.08 4.51z" fill="#3b97d3"/><path id="Shape" d="m16.02 42.47c-.1008817.4867735-.3445943.9324194-.7 1.28-.6214152.5015058-1.4018217.7640061-2.2.74-1.088-.027-2.492-1.514-2.99-2.51-.177-.387-.545-1.143-.653-1.4 2.3473686.4957154 4.7777657-.3332216 6.333-2.16.4524694 1.3028046.5252995 2.7073851.21 4.05z" fill="#bdc3c7"/><path id="Shape" d="m14.75 33.9c-.0075808.0010568-.0146061.0045695-.02.01z" fill="#3b97d3"/><path id="Shape" d="m18.96 47.29-1.62 4.23c-.0771709.2072447-.2432125.3689598-.4524219.4406334s-.4395344.0457507-.6275781-.0706334l-3.87-2.36c-.1794971-.1128518-.2770717-.31971-.25-.53.2316397-1.7033593.1090811-3.4362005-.36-5.09.3789981.3223709.8455688.5243194 1.34.58.7981783.0240061 1.5785848-.2384942 2.2-.74.3554057-.3475806.5991183-.7932265.7-1.28.6413389 1.5936252 1.6008834 3.0397472 2.82 4.25.1521464.1479432.1995839.3732715.12.57z" fill="#f0c419"/><path id="Shape" d="m15.47 28.62c.0616007.9337219-.5324553 1.7853406-1.43 2.05-.0335342.0191547-.0713843.0294774-.11.03h-.01c-.9050355.2635744-1.8705806-.1460508-2.31-.98-.1-.146.222.742-5.49-16.01-.36726936-1.0797167.21028331-2.2527306 1.29-2.62s2.25273064.2102833 2.62 1.29c5.844 17.172 5.44 15.874 5.44 16.24z" fill="#95a5a5"/><path id="Shape" d="m17.58 50.89c-.2.523-.275.925-.69 1.07-.391.137-.61-.058-1.19-.41l-1.17-3.42c-.1316786-.3415276-.0662407-.7277083.1705995-1.0067908.2368403-.2790824.6072334-.4064663.9656316-.3320955.3583983.0743708.6475259.338611.7537689.6888863z" fill="#f29c1f"/></g></svg>