<svg height="512" viewBox="0 0 40 57" width="512" xmlns="http://www.w3.org/2000/svg"><g id="009---Locating-Money" fill="none"><path id="Shape" d="m22.777 51.17c3.991.365 6.9 1.5 6.9 2.852.002 1.645-4.331 2.978-9.677 2.978s-9.679-1.333-9.679-2.978c0-1.348 2.911-2.487 6.9-2.852z" fill="#464f5d"/><path id="Shape" d="m36.029 31.971c.1.067-16.3 24.065-15.245 22.54-.17795.2574961-.4709977.4111947-.784.4111947s-.60605-.1536986-.784-.4111947l-15.273-22.521.028-.019c-4.52636525-6.0668092-5.24140155-14.1686266-1.84759594-20.9344406 3.39380561-6.76581403 10.31530564-11.03706211 17.88459594-11.0365594 16.592.007 25.731 18.961 16.021 31.971z" fill="#e64c3c"/><circle id="Oval" cx="20" cy="19.461" fill="#f3d55b" r="15"/><path id="Shape" d="m23.057 40h-6.114c-.3745522-.0000361-.7177221.2092391-.889175.5422454-.171453.3330064-.1424398.7339052.075175 1.0387546l3.057 4.28c.187685.263014.490887.4191351.814.4191351s.626315-.1561211.814-.4191351l3.057-4.28c.2176148-.3048494.246628-.7057482.075175-1.0387546-.1714529-.3330063-.5146228-.5422815-.889175-.5422454z" fill="#c03a2b"/><g fill="#f29c1f"><path id="Shape" d="m20 28.461c-5.684 0-7.309-6-5-6 .5522847 0 1 .4477153 1 1 0 1.655 1.794 3 4 3s4-1.345 4-3-1.794-3-4-3c-3.309 0-6-2.243-6-5s2.691-5 6-5c5.684 0 7.309 6 5 6-.5522847 0-1-.4477153-1-1 0-1.654-1.794-3-4-3s-4 1.346-4 3 1.794 3 4 3c3.309 0 6 2.244 6 5s-2.691 5-6 5z"/><path id="Shape" d="m20 30.461c-.5522847 0-1-.4477153-1-1v-20c0-.55228475.4477153-1 1-1s1 .44771525 1 1v20c0 .5522847-.4477153 1-1 1z"/><path id="Shape" d="m20 35.461c-8.836556 0-16-7.163444-16-16s7.163444-16 16-16 16 7.163444 16 16c-.0099198 8.8324438-7.1675562 15.9900802-16 16zm0-30c-7.7319865 0-14 6.2680135-14 14s6.2680135 14 14 14 14-6.2680135 14-14c-.0088173-7.7283313-6.2716687-13.99118273-14-14z"/><path id="Shape" d="m10.022 25.149c-.39067272.000216-.74569884-.2270944-.909-.582-1.65439904-3.6095715-1.45571228-7.7972769.533-11.234.28389088-.4635985.8861308-.6154926 1.3559307-.3419864s.6350554.8722177.3720693 1.3479864c-1.66051278 2.8735887-1.82598919 6.3735639-.444 9.391.1428856.3096377.1181312.6707437-.0656717.9579863s-.5013124.4610184-.8423283.4610137z"/><path id="Shape" d="m29.978 25.149c-.3410159.0000047-.6585254-.1737711-.8423283-.4610137s-.2085573-.6483486-.0656717-.9579863c1.3819892-3.0174361 1.2165128-6.5174113-.444-9.391-.1893443-.3092023-.1964921-.696671-.0186807-1.0126464.1778114-.3159753.5127242-.5109535.875292-.5095739s.6959871.1989009.8713887.5162203c1.9890434 3.4366257 2.1877379 7.6244941.533 11.234-.1633012.3549056-.5183273.582216-.909.582z"/></g></g></svg>