<svg height="512" viewBox="0 0 58 59" width="512" xmlns="http://www.w3.org/2000/svg"><g id="033---Credit-Cards" fill="none"><path id="Shape" d="m52.12 16.47-15.56-15.55c-1.1712702-1.16981351-3.0687298-1.16981351-4.24 0l-25.08 25.08c28.848 2.4 20.53 2 37.57 2 .68-.34 1.42-1.83 2.19-2v-1.33c.0245945-.4942135.2545999-.9556633.6344236-1.2728161.3798237-.3171527.874903-.4611487 1.3655764-.3971839.52 0 .99-.81 1.34-.5l1.78-1.78c1.1698661-1.1751514 1.1698661-3.0748486 0-4.25z" fill="#f3d55b"/><path id="Shape" d="m52.12 20.72-1.78 1.78c-.5773508-.5135232-1.39814-.6502125-2.1107536-.3515121-.7126136.2987003-1.1906193.9797946-1.2292464 1.7515121v1.33c-.7587934.1659608-1.4943088.4245667-2.19.77h-5.04l10.94-10.94 1.41 1.41c1.1698661 1.1751514 1.1698661 3.0748486 0 4.25z" fill="#f0c419"/><path id="Shape" d="m50.71 15.06-10.94 10.94h-8.49l15.18-15.18z" fill="#464f5d"/><circle id="Oval" cx="30.201" cy="12.938" fill="#3b97d3" r="3"/><circle id="Oval" cx="34.444" cy="8.695" fill="#e64c3c" r="3"/><path id="Shape" d="m41.99 33.51c.0444085-3.217263 1.9135819-6.129606 4.82-7.51h-43.81c-1.65685425 0-3 1.3431458-3 3v22c0 1.6568542 1.34314575 3 3 3h43c-2.0766964-1.010671-3.6615654-2.8116586-4.4-5h7.4v-7.21c-3.9948227-.7650822-6.9144817-4.2136952-7.01-8.28z" fill="#fac176"/><path id="Shape" d="m0 49v-6h49v6z" fill="#56595e"/><path id="Shape" d="m46 54h-43c-1.65685425 0-3-1.3431458-3-3v-2h41.6c.7384346 2.1883414 2.3233036 3.989329 4.4 5z" fill="#f18d46"/><path id="Shape" d="m51 38.22v-8.83c1.7514965.6265362 2.9414484 2.2607369 3 4.12 0 1.1045695.8954305 2 2 2s2-.8954305 2-2c-.0915229-4.0643586-3.0075128-7.513558-7-8.28v-1.33c-.0379915-1.0723114-.9271507-1.9170127-2-1.9-.517369-.0139682-1.0190291.178524-1.3942581.5349915-.3752289.3564675-.5931775.8476035-.6057419 1.3650085v1.33c-3.995026.7647341-6.9148586 4.213552-7.01 8.28.0955183 4.0663048 3.0151773 7.5149178 7.01 8.28v8.83c-1.7563099-.6220712-2.9512743-2.2577035-3.01-4.12 0-1.1045695-.8954305-2-2-2s-2 .8954305-2 2c.0943872 4.0667344 3.0145671 7.5159626 7.01 8.28v1.32c0 1.1045695.8954305 2 2 2s2-.8954305 2-2v-1.32c4.0348058-.6894154 6.9852209-4.1867187 6.9852209-8.28s-2.9504151-7.5905846-6.9852209-8.28zm-4-.59c-1.79035-.5746152-3.0046804-2.239698-3.0046804-4.12s1.2143304-3.5453848 3.0046804-4.12zm4 12.99v-8.23c1.7846368.5773789 2.9936849 2.2392881 2.9936849 4.115s-1.2090481 3.5376211-2.9936849 4.115z" fill="#4fba6f"/><circle id="Oval" cx="27" cy="33" fill="#e64c3c" r="3"/><circle id="Oval" cx="33" cy="33" fill="#e57e25" r="3"/><g fill="#fdd7ad"><path id="Shape" d="m6 31h-2c-.55228475 0-1-.4477153-1-1s.44771525-1 1-1h2c.55228475 0 1 .4477153 1 1s-.44771525 1-1 1z"/><path id="Shape" d="m20 31h-10c-.55228475 0-1-.4477153-1-1s.44771525-1 1-1h10c.5522847 0 1 .4477153 1 1s-.4477153 1-1 1z"/></g></g></svg>