<svg height="512" viewBox="0 0 60 60" width="512" xmlns="http://www.w3.org/2000/svg"><g id="029---Global-Currency" fill="none"><g fill="#e64c3c"><path id="Shape" d="m11 25c-.5522847 0-1-.4477153-1-1v-3c0-.5522847.4477153-1 1-1s1 .4477153 1 1v3c0 .5522847-.4477153 1-1 1z"/><path id="Shape" d="m11 40c-.5522847 0-1-.4477153-1-1v-3c0-.5522847.4477153-1 1-1s1 .4477153 1 1v3c0 .5522847-.4477153 1-1 1z"/><path id="Shape" d="m11 33c-.5522847 0-1-.4477153-1-1v-4c0-.5522847.4477153-1 1-1s1 .4477153 1 1v4c0 .5522847-.4477153 1-1 1z"/><path id="Shape" d="m49 25c-.5522847 0-1-.4477153-1-1v-3c0-.5522847.4477153-1 1-1s1 .4477153 1 1v3c0 .5522847-.4477153 1-1 1z"/><path id="Shape" d="m49 40c-.5522847 0-1-.4477153-1-1v-3c0-.5522847.4477153-1 1-1s1 .4477153 1 1v3c0 .5522847-.4477153 1-1 1z"/><path id="Shape" d="m49 33c-.5522847 0-1-.4477153-1-1v-4c0-.5522847.4477153-1 1-1s1 .4477153 1 1v4c0 .5522847-.4477153 1-1 1z"/><path id="Shape" d="m24 12h-3c-.5522847 0-1-.4477153-1-1s.4477153-1 1-1h3c.5522847 0 1 .4477153 1 1s-.4477153 1-1 1z"/><path id="Shape" d="m39 12h-3c-.5522847 0-1-.4477153-1-1s.4477153-1 1-1h3c.5522847 0 1 .4477153 1 1s-.4477153 1-1 1z"/><path id="Shape" d="m32 12h-4c-.5522847 0-1-.4477153-1-1s.4477153-1 1-1h4c.5522847 0 1 .4477153 1 1s-.4477153 1-1 1z"/><path id="Shape" d="m24 50h-3c-.5522847 0-1-.4477153-1-1s.4477153-1 1-1h3c.5522847 0 1 .4477153 1 1s-.4477153 1-1 1z"/><path id="Shape" d="m39 50h-3c-.5522847 0-1-.4477153-1-1s.4477153-1 1-1h3c.5522847 0 1 .4477153 1 1s-.4477153 1-1 1z"/><path id="Shape" d="m32 50h-4c-.5522847 0-1-.4477153-1-1s.4477153-1 1-1h4c.5522847 0 1 .4477153 1 1s-.4477153 1-1 1z"/><circle id="Oval" cx="11" cy="49" r="10"/></g><circle id="Oval" cx="49" cy="49" fill="#3b97d3" r="10"/><circle id="Oval" cx="49" cy="11" fill="#f3d55b" r="10"/><circle id="Oval" cx="11" cy="11" fill="#24ae5f" r="10"/><path id="Shape" d="m11 60c-6.07513225 0-11-4.9248678-11-11s4.92486775-11 11-11c6.0751322 0 11 4.9248678 11 11-.0071635 6.0721626-4.9278374 10.9928365-11 11zm0-20c-3.6401602 0-6.92188679 2.1927796-8.31491579 5.5558491s-.62302721 7.23413 1.95095476 9.8081119c2.57398196 2.573982 6.44504243 3.3439838 9.80811193 1.9509548s5.5558491-4.6747556 5.5558491-8.3149158c-.0055111-4.9682782-4.0317218-8.9944889-9-9z" fill="#fb7b76"/><path id="Shape" d="m49 60c-6.0751322 0-11-4.9248678-11-11s4.9248678-11 11-11 11 4.9248678 11 11c-.0071635 6.0721626-4.9278374 10.9928365-11 11zm0-20c-3.6401602 0-6.9218868 2.1927796-8.3149158 5.5558491s-.6230272 7.23413 1.9509548 9.8081119c2.5739819 2.573982 6.4450424 3.3439838 9.8081119 1.9509548s5.5558491-4.6747556 5.5558491-8.3149158c-.0055111-4.9682782-4.0317218-8.9944889-9-9z" fill="#9fc9d3"/><path id="Shape" d="m11 22c-6.07513225 0-11-4.9248678-11-11 0-6.07513225 4.92486775-11 11-11 6.0751322 0 11 4.92486775 11 11-.0071635 6.0721626-4.9278374 10.9928365-11 11zm0-20c-4.97056275 0-9 4.02943725-9 9 0 4.9705627 4.02943725 9 9 9 4.9705627 0 9-4.0294373 9-9-.0055111-4.96827817-4.0317218-8.99448887-9-9z" fill="#7ed09e"/><path id="Shape" d="m30 44c-7.7319865 0-14-6.2680135-14-14s6.2680135-14 14-14 14 6.2680135 14 14c-.0082673 7.7285595-6.2714405 13.9917327-14 14zm0-26c-6.627417 0-12 5.372583-12 12s5.372583 12 12 12 12-5.372583 12-12c-.0071648-6.624447-5.375553-11.9928352-12-12z" fill="#81ccb8"/><path id="Shape" d="m30 44c-3.925 0-7-6.149-7-14s3.075-14 7-14 7 6.149 7 14-3.075 14-7 14zm0-26c-2.365 0-5 4.928-5 12s2.635 12 5 12 5-4.928 5-12-2.635-12-5-12z" fill="#81ccb8"/><path id="Shape" d="m11 18c-4.867 0-6.151-5-4-5 .55228475 0 1 .4477153 1 1 0 1.084 1.374 2 3 2s3-.916 3-2-1.374-2-3-2c-2.757 0-5-1.794-5-4s2.243-4 5-4c4.867 0 6.151 5 4 5-.5522847 0-1-.44771525-1-1 0-1.084-1.374-2-3-2s-3 .916-3 2 1.374 2 3 2c2.757 0 5 1.794 5 4s-2.243 4-5 4z" fill="#fff"/><path id="Shape" d="m11 19c-.5522847 0-1-.4477153-1-1v-14c0-.55228475.4477153-1 1-1s1 .44771525 1 1v14c0 .5522847-.4477153 1-1 1z" fill="#fff"/><path id="Shape" d="m49 22c-6.0751322 0-11-4.9248678-11-11 0-6.07513225 4.9248678-11 11-11s11 4.92486775 11 11c-.0071635 6.0721626-4.9278374 10.9928365-11 11zm0-20c-4.9705627 0-9 4.02943725-9 9 0 4.9705627 4.0294373 9 9 9s9-4.0294373 9-9c-.0055111-4.96827817-4.0317218-8.99448887-9-9z" fill="#f9eab0"/><path id="Shape" d="m11 56c-.5522847 0-1-.4477153-1-1v-7c0-.5522847.4477153-1 1-1s1 .4477153 1 1v7c0 .5522847-.4477153 1-1 1z" fill="#fff"/><path id="Shape" d="m10.293 48.707-4-4c-.37897221-.3923789-.37355237-1.0160848.01218142-1.4018186.3857338-.3857338 1.00943969-.3911536 1.40181858-.0121814l3.293 3.293 3.293-3.293c.3923789-.3789722 1.0160848-.3735524 1.4018186.0121814s.3911536 1.0094397.0121814 1.4018186l-4 4c-.3904999.3903819-1.0235001.3903819-1.414 0z" fill="#fff"/><path id="Shape" d="m14 51h-6c-.55228475 0-1-.4477153-1-1s.44771525-1 1-1h6c.5522847 0 1 .4477153 1 1s-.4477153 1-1 1z" fill="#fff"/><path id="Shape" d="m14 54h-6c-.55228475 0-1-.4477153-1-1s.44771525-1 1-1h6c.5522847 0 1 .4477153 1 1s-.4477153 1-1 1z" fill="#fff"/><path id="Shape" d="m43 49c.0023497-2.2729761 1.1081735-4.4033022 2.9656902-5.7132859 1.8575168-1.3099838 4.235439-1.6365133 6.3773098-.8757141.5188715.1894337.7859337.7636285.5965 1.2825s-.7636285.7859337-1.2825.5965c-2.0697842-.7308434-4.3741479-.0248095-5.6792674 1.7400706-1.3051195 1.76488-1.3051195 4.1749788 0 5.9398588 1.3051195 1.7648801 3.6094832 2.470914 5.6792674 1.7400706.5188715-.1894337 1.0930663.0776285 1.2825.5965s-.0776285 1.0930663-.5965 1.2825c-2.1418708.7607992-4.519793.4342697-6.3773098-.8757141-1.8575167-1.3099837-2.9633405-3.4403098-2.9656902-5.7132859z" fill="#fff"/><path id="Shape" d="m48 48h-5c-.5522847 0-1-.4477153-1-1s.4477153-1 1-1h5c.5522847 0 1 .4477153 1 1s-.4477153 1-1 1z" fill="#fff"/><path id="Shape" d="m48 52h-5c-.5522847 0-1-.4477153-1-1s.4477153-1 1-1h5c.5522847 0 1 .4477153 1 1s-.4477153 1-1 1z" fill="#fff"/><path id="Shape" d="m42.37 27h-24.74c-.5522847 0-1-.4477153-1-1s.4477153-1 1-1h24.74c.5522847 0 1 .4477153 1 1s-.4477153 1-1 1z" fill="#81ccb8"/><path id="Shape" d="m42.37 35h-24.74c-.5522847 0-1-.4477153-1-1s.4477153-1 1-1h24.74c.5522847 0 1 .4477153 1 1s-.4477153 1-1 1z" fill="#81ccb8"/><path id="Shape" d="m47.569 16.654c-1.0051101-.4223036-2.1378899-.4223036-3.143 0-.409008.1908377-.8951556.0840472-1.1865266-.2606404-.2913709-.3446876-.3157386-.8418293-.0594734-1.2133596.7-1.011 1.82-3.045 1.82-4.2 0-1.293-.716-3.038.163-4.688.8219536-1.42160855 2.3408778-2.29566687 3.983-2.292 3.31-.13 5.284 2.452 4.831 4.351-.1281301.53737306-.6676269.86913006-1.205.741s-.8691301-.66762694-.741-1.205c.146-.613-.887-1.959-2.808-1.888-.9301703-.02849766-1.805652.4385528-2.3 1.227-.2516923.71973631-.2775111 1.49918533-.074 2.234.3591716 1.6716862.0547519 3.4175278-.849 4.869.8398592-.0192777 1.6725197.1588315 2.431.52 1.215.579 3.373-.48 4.034-.9.4664045-.2960246 1.0844754-.1579045 1.3805.3085s.1579045 1.0844754-.3085 1.3805c-1.655 1.062-4.149 1.883-5.968 1.016z" fill="#fff"/><path id="Shape" d="m50 12h-6c-.5522847 0-1-.4477153-1-1s.4477153-1 1-1h6c.5522847 0 1 .4477153 1 1s-.4477153 1-1 1z" fill="#fff"/></g></svg>