<svg height="512" viewBox="0 0 58 58" width="512" xmlns="http://www.w3.org/2000/svg"><g id="012---Money-Growth" fill="none"><path id="Shape" d="m42.27 53.73c-9.014-9-6.9-7.063-10.27-9.73h-6c-3.372 2.666-1.27.741-10.27 9.73-.977544.977544-.977544 2.562456 0 3.54s2.562456.977544 3.54 0l6.73-6.74v4.47c0 1.6568542 1.3431458 3 3 3s3-1.3431458 3-3v-4.47l6.73 6.74c.977544.977544 2.562456.977544 3.54 0s.977544-2.562456 0-3.54z" fill="#547580"/><path id="Rectangle-path" d="m3 2h52v42h-52z" fill="#ecf0f1"/><path id="Shape" d="m12.929 24.36c-.5107311-.0001222-.939298-.3850884-.994007-.8928809-.0547091-.5077925.2820226-.9752112.781007-1.0841191l4.25-.93c.5395822-.1181889 1.072811.2234178 1.1909999.763.118189.5395822-.2234177 1.072811-.7629999 1.191-4.524.993-4.305.953-4.465.953z" fill="#e57e25"/><path id="Shape" d="m28.889 20.87c-.5091785-.0019039-.9356239-.3861009-.9904475-.892323-.0548236-.506222.2794822-.9728081.7764475-1.083677l4.32-.951c.3511856-.0828362.7197621.0299402.9644668.2951057s.3275844.6415936.2168742.9850122c-.1107103.3434187-.3978395.6005644-.751341.6728821-4.705 1.035-4.38.974-4.536.974z" fill="#e57e25"/><circle id="Oval" cx="42" cy="17" fill="#f0c419" r="9"/><path id="Shape" d="m56 0h-54c-1.1045695 0-2 .8954305-2 2s.8954305 2 2 2h54c1.1045695 0 2-.8954305 2-2s-.8954305-2-2-2z" fill="#3b97d3"/><path id="Shape" d="m56 46c1.1045695 0 2-.8954305 2-2s-.8954305-2-2-2h-54c-1.1045695 0-2 .8954305-2 2s.8954305 2 2 2z" fill="#3b97d3"/><path id="Shape" d="m32 46v9c0 1.6568542-1.3431458 3-3 3s-3-1.3431458-3-3v-9z" fill="#95a5a5"/><path id="Shape" d="m42 27c-5.5228475 0-10-4.4771525-10-10s4.4771525-10 10-10 10 4.4771525 10 10c-.0060624 5.5203344-4.4796656 9.9939376-10 10zm0-18c-4.418278 0-8 3.581722-8 8s3.581722 8 8 8 8-3.581722 8-8c-.0049599-4.4162219-3.5837781-7.99504012-8-8z" fill="#f29c1f"/><path id="Shape" d="m42 23c-4.274 0-5.4-4.5-3.333-4.5.5522847 0 1 .4477153 1 1 0 .8 1.09 1.5 2.333 1.5s2.333-.7 2.333-1.5-1.09-1.5-2.333-1.5c-2.39 0-4.333-1.57-4.333-3.5s1.943-3.5 4.333-3.5c4.274 0 5.4 4.5 3.333 4.5-.5522847 0-1-.4477153-1-1 0-.8-1.09-1.5-2.333-1.5s-2.333.7-2.333 1.5 1.09 1.5 2.333 1.5c2.39 0 4.333 1.57 4.333 3.5s-1.943 3.5-4.333 3.5z" fill="#f29c1f"/><path id="Shape" d="m42 23.833c-.5522847 0-1-.4477153-1-1v-11.666c0-.5522847.4477153-1 1-1s1 .4477153 1 1v11.666c0 .5522847-.4477153 1-1 1z" fill="#f29c1f"/><circle id="Oval" cx="23" cy="21" fill="#f0c419" r="6"/><circle id="Oval" cx="10" cy="24" fill="#f0c419" r="3"/><g fill="#95a5a5"><path id="Shape" d="m21 9h-14c-.55228475 0-1-.44771525-1-1s.44771525-1 1-1h14c.5522847 0 1 .44771525 1 1s-.4477153 1-1 1z"/><path id="Shape" d="m18 13h-11c-.55228475 0-1-.4477153-1-1s.44771525-1 1-1h11c.5522847 0 1 .4477153 1 1s-.4477153 1-1 1z"/><path id="Shape" d="m14 17h-7c-.55228475 0-1-.4477153-1-1s.44771525-1 1-1h7c.5522847 0 1 .4477153 1 1s-.4477153 1-1 1z"/><path id="Shape" d="m51 35h-9c-.5522847 0-1-.4477153-1-1s.4477153-1 1-1h9c.5522847 0 1 .4477153 1 1s-.4477153 1-1 1z"/><path id="Shape" d="m51 39h-12c-.5522847 0-1-.4477153-1-1s.4477153-1 1-1h12c.5522847 0 1 .4477153 1 1s-.4477153 1-1 1z"/><path id="Shape" d="m51 31h-7c-.5522847 0-1-.4477153-1-1s.4477153-1 1-1h7c.5522847 0 1 .4477153 1 1s-.4477153 1-1 1z"/></g><path id="Shape" d="m37.6 31.007-4.79-4.707c-.719-.7-1.81-.1-1.81.993v1.707l-14.011 1.868c-.5646517.078908-.9848071.5618614-.9848071 1.132s.4201554 1.053092.9848071 1.132l14.011 1.868v1.7c0 1.1 1.091 1.7 1.81.994l4.793-4.7c.5288116-.5572456.5274919-1.4313537-.003-1.987z" fill="#e64c3c"/></g></svg>