<svg height="512" viewBox="0 0 58 58" width="512" xmlns="http://www.w3.org/2000/svg"><g id="006---Injecting-Money" fill="none" transform="translate(-1)"><path id="Shape" d="m24 41v-4c0-2.21-4.03-4-9-4s-9 1.79-9 4v2.67c-2.41.72-4 1.94-4 3.33v4c0 1.39 1.59 2.61 4 3.33v3.67c0 2.21 4.03 4 9 4s9-1.79 9-4v-4c0-1.37-1.55-2.58-3.9-3.3-.143-.048-.1.246-.1-2.37 2.41-.72 4-1.94 4-3.33z" fill="#f0c419"/><path id="Shape" d="m44.709 44.709c-.2658877.0004746-.5210175-.1049599-.709-.293l-8.063-8.063c-.3904653-.3907415-.3902414-1.0240347.0005-1.4145.3907415-.3904653 1.0240347-.3902414 1.4145.0005l8.064 8.061c.2873421.2858042.3737691.7167776.2188429 1.0912738s-.5205664.6184529-.9258429.6177262z" fill="#7f8c8d"/><path id="Shape" d="m38.617 37.3-.25.25c-.335263.3380449-.8623673.392847-1.26.131l-7.81-5.2 1.125-2.625 3.125-1.625 5.2 7.81c.2615519.3971889.2071929.9236354-.13 1.259z" fill="#bdc3c7"/><path id="Shape" d="m33.62 27.95-4.67 4.67c-.7852224.6310227-1.9305397.5200423-2.58-.25l-15.56-15.56 2.969-4.469 4.031-2.531 15.56 15.56c.7700423.6494603.8810227 1.7947776.25 2.58z" fill="#c03a2b"/><g fill="#802f34"><path id="Shape" d="m19.27 21.09-2.09 2.09-1.42-1.42 2.09-2.09c.3921222-.3921221 1.0278778-.3921221 1.42 0 .3921221.3921222.3921221 1.0278778 0 1.42z"/><path id="Shape" d="m16.44 18.27-2.09 2.08-1.42-1.42 2.1-2.08c.3900375-.3877236 1.0199625-.3877236 1.41 0 .3899779.3930079.3899779 1.0269921 0 1.42z"/><path id="Shape" d="m22.09 23.92-2.08 2.09-1.42-1.42 2.08-2.09c.3921222-.3921222 1.0278778-.3921222 1.42 0s.3921222 1.0278778 0 1.42z"/><path id="Shape" d="m24.92 26.75-2.08 2.09-1.42-1.42 2.08-2.09c.3921222-.3921222 1.0278778-.3921222 1.42 0s.3921222 1.0278778 0 1.42z"/><path id="Shape" d="m27.75 29.58-2.08 2.09-1.42-1.42 2.08-2.09c.2536586-.2536586.623374-.3527235.969878-.259878.3465041.0928454.6171546.3634959.71.71.0928455.346504-.0062194.7162194-.259878.969878z"/></g><path id="Shape" d="m12.91 9.08-.54 2.54-2.29.29-4.96-4.96.853-2.352 1.977-.478z" fill="#547580"/><path id="Shape" d="m9.24 2c.00229112.52851207-.20649233 1.03607184-.58 1.41l-4.25 4.25c-.49652934.5460151-1.25340425.77421084-1.96899526.59364676-.71559101-.18056407-1.27358777-.74053955-1.45161766-1.45676524s.05284362-1.47228808.60061292-1.96688152l4.24-4.24c.5718399-.56846165 1.42911076-.73793892 2.17424246-.42983461s1.23237218 1.03352322 1.23575754 1.83983461z" fill="#95a5a5"/><path id="Shape" d="m19.84 6.95c.0022911.52851207-.2064923 1.03607184-.58 1.41l-9.9 9.9c-.5718399.5684616-1.42911076.7379389-2.17424246.4298346s-1.23237218-1.0335232-1.23575754-1.8398346c-.00316986-.5306591.20984879-1.0397376.59-1.41l9.9-9.9c.5692316-.57155732 1.4271926-.74293826 2.1723207-.43392925.7451281.309009 1.2300016 1.0372713 1.2276793 1.84392925z" fill="#95a5a5"/><path id="Shape" d="m39 48c0-4.04 5.351-15.313 8.224-20.913.3436614-.6636418 1.0286556-1.0803131 1.776-1.0803131s1.4323386.4166713 1.776 1.0803131c2.873 5.6 8.224 16.873 8.224 20.913 0 5.5228475-4.4771525 10-10 10s-10-4.4771525-10-10z" fill="#e64c3c"/><path id="Shape" d="m34 15.125c0-2.777 3.745-10.525 5.757-14.378.2444852-.45949085.7225148-.74662643 1.243-.74662643s.9985148.28713558 1.243.74662643c2.012 3.853 5.757 11.601 5.757 14.378 0 3.8659932-3.1340068 7-7 7s-7-3.1340068-7-7z" fill="#e64c3c"/><path id="Shape" d="m49 54c-4.867 0-6.151-5-4-5 .5522847 0 1 .4477153 1 1 0 1.084 1.374 2 3 2s3-.916 3-2-1.374-2-3-2c-2.757 0-5-1.794-5-4s2.243-4 5-4c4.867 0 6.151 5 4 5-.5522847 0-1-.4477153-1-1 0-1.084-1.374-2-3-2s-3 .916-3 2 1.374 2 3 2c2.757 0 5 1.794 5 4s-2.243 4-5 4z" fill="#fff"/><path id="Shape" d="m49 55c-.5522847 0-1-.4477153-1-1v-14c0-.5522847.4477153-1 1-1s1 .4477153 1 1v14c0 .5522847-.4477153 1-1 1z" fill="#fff"/><path id="Shape" d="m24 50c0 2.21-4.03 4-9 4-4.71 0-8.58-1.61-8.96-3.66 5.873 1.696 13.96-.082 13.96-3.34v-.33c.03.01.07.02.1.03 2.35.72 3.9 1.93 3.9 3.3z" fill="#f9eab0"/><path id="Shape" d="m19.33 44.51c-2.009 2.224-7.1 2.676-10.08 2.41-7.77-.677-9.975-5.241-3.25-7.25v1.33c0 2.21 4.03 4 9 4 1.4575418.0067957 2.9108356-.1576648 4.33-.49z" fill="#f9eab0"/><path id="Shape" d="m24 37c0 3.942-11.416 5.443-16.36 2.3-.90243033-.4376465-1.52032915-1.3042119-1.64-2.3 0-2.21 4.03-4 9-4s9 1.79 9 4z" fill="#f9eab0"/><path id="Shape" d="m39.684 18.949c-1.482979-.4096144-2.5823444-1.6589646-2.8-3.182-.0943803-.6982745-.037425-1.4086816.167-2.083.1728651-.5246705.7383295-.8098651 1.263-.637s.8098651.7383295.637 1.263c-.2224147.5427825-.199921 1.1551199.0617177 1.6801212.2616387.5250012.7369978.9116494 1.3042823 1.0608788.339045.1130746.592011.3984381.6636081.748597s-.049052.7119157-.3165.949c-.267448.2370844-.6410631.3134776-.9801081.200403z" fill="#fb7b76"/></g></svg>