<svg height="512" viewBox="0 0 58 58" width="512" xmlns="http://www.w3.org/2000/svg"><g id="024---Money-Bag" fill="none" transform="translate(0 -1)"><path id="Shape" d="m50.73 41.84-21.73 12.16-14.84-17.69c1.22-8.31 4.86-14.92 8.68-22.83 6.7557609.6899974 13.5642391.6899974 20.32 0 3.95 8.19 7.72 15.11 8.81 23.69.1353564 1.6528874-.3025177 3.3019777-1.24 4.67z" fill="#7f6e5d"/><path id="Shape" d="m44.93 2.66c-2.53 3.22-2.7 7.26-1.76 10.82h-.01c-6.7586324.6991763-13.5713676.6991763-20.33 0 .94-3.56.77-7.6-1.76-10.82-.2340164-.28754307-.2941504-.6791929-.1571787-1.02369754.1369718-.34450464.4496109-.58794349.8171787-.63630246 2.423-.3 6.488 1.1 8.77 1.97 1.6080539.62510123 3.3919461.62510123 5 0 2.274-.87 6.357-2.27 8.77-1.97.3675678.04835897.6802069.29179782.8171787.63630246.1369717.34450464.0768377.73615447-.1571787 1.02369754z" fill="#7f6e5d"/><path id="Shape" d="m48.081 41.84-18.468 12.16-12.613-17.69c1.037-8.31 4.13-14.92 7.376-22.83 5.7363253.6899986 11.5346747.6899986 17.271 0 3.353 8.19 6.562 15.11 7.488 23.69.1206582 1.6268271-.2462949 3.2527008-1.054 4.67z" fill="#a59078"/><path id="Shape" d="m43.15 2.66c-2.15 3.22-2.29 7.26-1.49 10.82-5.7404321.6940288-11.5435679.6940288-17.284 0 .8-3.56.644-7.6-1.506-10.82-.1970892-.27446108-.2551981-.62502204-.1572061-.94839579.097992-.32337374.3409189-.58271172.6572061-.70160421h.01c2.4430775.36670935 4.8334365 1.02472954 7.12 1.96 1.6085789.62229558 3.3914211.62229558 5 0 2.2900167-.93528238 4.6836858-1.59328961 7.13-1.96.3231428.11037658.5745403.36784216.6771798.69352515.1026395.32568298.0442878.68076651-.1571798.95647485z" fill="#a59078"/><g fill="#5f5346"><path id="Shape" d="m33 37c-6.859 0-8.286-6-6-6 .5522847 0 1 .4477153 1 1 0 1.626 2.29 3 5 3s5-1.374 5-3-2.29-3-5-3c-3.925 0-7-2.2-7-5s3.075-5 7-5c6.859 0 8.286 6 6 6-.5522847 0-1-.4477153-1-1 0-1.626-2.29-3-5-3s-5 1.374-5 3 2.29 3 5 3c3.925 0 7 2.2 7 5s-3.075 5-7 5z"/><path id="Shape" d="m31 39c-.5522847 0-1-.4477153-1-1v-20c0-.5522847.4477153-1 1-1s1 .4477153 1 1v20c0 .5522847-.4477153 1-1 1z"/><path id="Shape" d="m35 39c-.5522847 0-1-.4477153-1-1v-20c0-.5522847.4477153-1 1-1s1 .4477153 1 1v20c0 .5522847-.4477153 1-1 1z"/><path id="Shape" d="m33 15c-.5522847 0-1-.4477153-1-1v-6c0-.55228475.4477153-1 1-1s1 .44771525 1 1v6c0 .5522847-.4477153 1-1 1z"/><path id="Shape" d="m27.029 14.81c-.3437975-.0003138-.663329-.1772117-.8460887-.4684088-.1827596-.2911971-.2031196-.6558595-.0539113-.9655912.268-.627.949-4.179 0-5.89-.1736311-.31225013-.1674894-.69341223.0161116-.99990622.183601-.306494.516768-.49175616.874-.48600001.3572321.00575614.6842573.20165609.8578884.51390623 1.468 2.638.349 7.124.057 7.73-.1673289.3473556-.5194453.5675743-.905.566z"/><path id="Shape" d="m38.953 14.8c-.3769213.0015231-.7210296-.2141284-.884-.554-.292-.606-1.411-5.092.057-7.73.2684104-.48269686.8773031-.65641036 1.36-.38799998.4826968.26841039.6564104.87730311.388 1.35999998-.952 1.711-.271 5.263 0 5.9.1356112.3112675.1055819.6698685-.0799085.954247-.1854905.2843784-.5015683.4563996-.8410915.457753z"/></g><path id="Shape" d="m47.944 13.5c3.557-1.033 7.766-3.05 7.036-6.7-.1238056-.52447743-.640941-.85652496-1.1693679-.75083958s-.8780721.61108903-.7906321 1.14283958c.623 3.119-6.808 4.893-9.96 5.293-6.6922047.678002-13.4357953.678002-20.128 0-.5495233-.0552285-1.0397715.3454767-1.095.895s.3454767 1.0397715.895 1.095c3.4116275.3479881 6.8386714.5232119 10.268.525 4.837 0 10.144-.457 10.044-.491 3.16.4 10.6 2.176 9.976 5.3-.0839647.3556996.0328053.7288731.3045463.9732685s.6551639.32108 1 .2.5961521-.4206363.6554537-.7812685c.73-3.651-3.48-5.668-7.036-6.701z" fill="#a56a43"/><path id="Shape" d="m56.68 45.57-18.74 11.41c-1.0968305.667384-2.3560847 1.020252-3.64 1.02-29.17 0-26.94.025-27.3-.05.343-.64.24.973.24-21.95h4.56c2.0715011.0028959 4.0808416.7079276 5.7 2s3.6284989 1.9971041 5.7 2h5.23c3.835 0 6.465 4.365 3.83 7 2.223 0 2.792.073 3.62-.21l18.51-6.17c1.120338-.3678364 2.3505552.0181141 3.06.96v.01c.4649441.6171961.6465512 1.4025179.4997758 2.1611752s-.608183 1.4195768-1.2697758 1.8188248z" fill="#fdd7ad"/><path id="Shape" d="m33.27 45c-.1123578.7580836-.4666159 1.4595847-1.01 2h-6.54c-1.5797578-.0009418-3.1245213.4652706-4.44 1.34l-.72.49c-.4583963.3092795-1.0807205.1883963-1.39-.27s-.1883963-1.0807205.27-1.39l.73-.49c1.6440609-1.0946059 3.5748804-1.6790702 5.55-1.68z" fill="#f9c795"/><path id="Shape" d="m9 36c0 22.912.1 21.31-.24 21.95-.35109868.6449509-1.02568047 1.0474002-1.76 1.05h-5c-1.10320187-.0032948-1.9967052-.8967981-2-2v-21c.0032948-1.1032019.89679813-1.9967052 2-2h5c1.10320187.0032948 1.9967052.8967981 2 2z" fill="#b49aca"/></g></svg>