<?xml version="1.0" encoding="iso-8859-1"?>
<!-- Generator: Adobe Illustrator 19.0.0, SVG Export Plug-In . SVG Version: 6.00 Build 0)  -->
<svg version="1.1" id="Layer_1" xmlns="http://www.w3.org/2000/svg" xmlns:xlink="http://www.w3.org/1999/xlink" x="0px" y="0px"
	 viewBox="0 0 512 512" style="enable-background:new 0 0 512 512;" xml:space="preserve">
<path style="fill:#43B05B;" d="M264.828,388.414c0-67.972,55.614-123.586,123.586-123.586c34.428,0,66.207,14.124,88.276,37.076V0H0
	v476.69h301.903C278.952,454.621,264.828,422.841,264.828,388.414"/>
<path style="fill:#F0CE49;" d="M387.531,264.828C387.531,264.828,388.414,264.828,387.531,264.828
	c35.31,0,67.09,14.124,89.159,37.076v-63.559L384,148.303l92.69-91.807V0h-56.497L176.552,243.641V0h-70.621v105.931H0v70.621
	h105.931v137.71L92.69,327.503L0,420.193v56.497h56.497l271.007-271.007L387.531,264.828z"/>
<path style="fill:#EA7F5F;" d="M512,388.414c0-67.972-55.614-123.586-123.586-123.586s-123.586,55.614-123.586,123.586
	S320.441,512,388.414,512S512,456.386,512,388.414"/>
<path style="fill:#FFFFFF;" d="M388.414,361.931c5.297-12.359,15.89-26.483,30.014-26.483c19.421,0,34.428,15.007,36.193,34.428
	c0,0,0.883,4.414-0.883,13.241c-2.648,11.476-9.71,22.069-18.538,30.014l-46.786,45.903l-48.552-46.786
	c-8.828-7.945-15.89-18.538-18.538-30.014c-1.766-8.828-0.883-13.241-0.883-13.241c1.766-19.421,15.007-34.428,34.428-34.428
	C368.993,335.448,383.117,349.572,388.414,361.931"/>
<g>
</g>
<g>
</g>
<g>
</g>
<g>
</g>
<g>
</g>
<g>
</g>
<g>
</g>
<g>
</g>
<g>
</g>
<g>
</g>
<g>
</g>
<g>
</g>
<g>
</g>
<g>
</g>
<g>
</g>
</svg>
