<?xml version="1.0" encoding="iso-8859-1"?>
<!-- Generator: Adobe Illustrator 19.0.0, SVG Export Plug-In . SVG Version: 6.00 Build 0)  -->
<svg version="1.1" id="Layer_1" xmlns="http://www.w3.org/2000/svg" xmlns:xlink="http://www.w3.org/1999/xlink" x="0px" y="0px"
	 viewBox="0 0 505.925 505.925" style="enable-background:new 0 0 505.925 505.925;" xml:space="preserve">
<path style="fill:#DD342E;" d="M505.925,114.115c0-62.481-50.332-112.814-112.814-112.814S280.298,51.634,280.298,114.115
	s50.332,112.814,112.814,112.814S505.925,176.597,505.925,114.115"/>
<path style="fill:#F86363;" d="M315.01,122.793c-5.207,0-8.678-3.471-8.678-8.678c0-47.729,39.051-86.78,86.78-86.78
	c5.207,0,8.678,3.471,8.678,8.678s-3.471,8.678-8.678,8.678c-38.183,0-69.424,31.241-69.424,69.424
	C323.688,119.322,319.349,122.793,315.01,122.793"/>
<path style="fill:#D8D8D8;" d="M325.424,242.549l-61.614-61.614c-1.736-1.736-3.471-4.339-5.207-6.942L0,435.2v69.424h69.424
	l262.942-256.868C329.763,246.888,327.159,245.153,325.424,242.549"/>
<path style="fill:#B2AAAA;" d="M34.712,457.763c-2.603,0-4.339-0.868-6.075-2.603c-3.471-3.471-3.471-8.678,0-12.149
	l223.024-224.759c3.471-3.471,8.678-3.471,12.149,0c3.471,3.471,3.471,8.678,0,12.149L40.786,456.027
	C39.051,456.895,37.315,457.763,34.712,457.763"/>
<path style="fill:#444C6D;" d="M282.034,137.546c-6.942,0-13.017,2.603-18.224,7.81c-10.414,10.414-10.414,26.902,0,36.447
	l61.614,61.614c10.414,10.414,26.902,10.414,36.447,0c5.207-5.207,7.81-12.149,7.81-18.224
	C326.292,215.647,291.58,180.936,282.034,137.546"/>
<g>
</g>
<g>
</g>
<g>
</g>
<g>
</g>
<g>
</g>
<g>
</g>
<g>
</g>
<g>
</g>
<g>
</g>
<g>
</g>
<g>
</g>
<g>
</g>
<g>
</g>
<g>
</g>
<g>
</g>
</svg>
