<?xml version="1.0" encoding="iso-8859-1"?>
<!-- Generator: Adobe Illustrator 19.0.0, SVG Export Plug-In . SVG Version: 6.00 Build 0)  -->
<svg version="1.1" id="Layer_1" xmlns="http://www.w3.org/2000/svg" xmlns:xlink="http://www.w3.org/1999/xlink" x="0px" y="0px"
	 viewBox="0 0 512 512" style="enable-background:new 0 0 512 512;" xml:space="preserve">
<path style="fill:#FABA81;" d="M505.884,354.869c7.062-5.297,7.945-15.89,2.648-22.952c-11.476-15.007-20.303-19.421-58.262,0.883
	l-76.8,46.786c-23.834,12.359-84.745,8.828-111.228,8.828c0,0,62.676,4.414,37.959-32.662
	c-12.359-18.538-33.545-29.131-56.497-29.131h-34.428c-20.303,0-39.724-6.179-55.614-18.538
	c-37.959-28.248-109.462,27.366-109.462,27.366v158.897h123.586c17.655,0,35.31-1.766,52.966-4.414l114.759-17.655
	c3.531,0,7.945-0.883,11.476-0.883l0,0c9.71-0.883,17.655-6.179,24.717-12.359L505.884,354.869z"/>
<polygon style="fill:#48A0DC;" points="0.063,512 44.201,512 44.201,308.966 0.063,308.966 "/>
<path style="fill:#F4935E;" d="M152.78,423.724c-5.297,0-8.828-3.531-8.828-8.828c0-22.069,16.772-35.31,44.138-35.31h85.628
	c5.297,0,8.828,3.531,8.828,8.828s-3.531,8.828-8.828,8.828h-85.628c-26.483,0-26.483,13.241-26.483,17.655
	C161.608,420.193,157.194,423.724,152.78,423.724z"/>
<path style="fill:#43B05B;" d="M256.063,0c-52.966,0-88.276,45.903-88.276,96.221c0,30.014,7.945,46.786,21.186,75.034
	c26.483,58.262,67.09,120.938,67.09,120.938s40.607-62.676,67.09-120.938c13.241-29.131,21.186-45.021,21.186-75.034
	C344.339,45.903,309.029,0,256.063,0"/>
<path style="fill:#F0CE49;" d="M300.201,88.276c0-24.717-19.421-44.138-44.138-44.138c-24.717,0-44.138,19.421-44.138,44.138
	s19.421,44.138,44.138,44.138C280.78,132.414,300.201,112.993,300.201,88.276"/>
<g>
</g>
<g>
</g>
<g>
</g>
<g>
</g>
<g>
</g>
<g>
</g>
<g>
</g>
<g>
</g>
<g>
</g>
<g>
</g>
<g>
</g>
<g>
</g>
<g>
</g>
<g>
</g>
<g>
</g>
</svg>
