<?xml version="1.0" encoding="iso-8859-1"?>
<!-- Generator: Adobe Illustrator 19.0.0, SVG Export Plug-In . SVG Version: 6.00 Build 0)  -->
<svg version="1.1" id="Layer_1" xmlns="http://www.w3.org/2000/svg" xmlns:xlink="http://www.w3.org/1999/xlink" x="0px" y="0px"
	 viewBox="0 0 512.033 512.033" style="enable-background:new 0 0 512.033 512.033;" xml:space="preserve">
<g transform="translate(-1 -1)">
	<path style="fill:#DBB38D;" d="M319.61,468.551c-17.064,11.573-32.106,26.827-54.219,26.827c-22.113,0-37.155-15.254-54.219-26.827
		c-8.316-5.641-16.764-11.149-24.991-16.949v61.431h158.897v-61.758C336.709,457.207,328.084,462.804,319.61,468.551"/>
	<path style="fill:#FDD7AD;" d="M415.942,195.241c0-7.318-1.483-14.283-4.158-20.63c-10.108-23.905-38.391-33.66-62.791-24.832
		c-13.294,4.811-38.179,10.152-83.121,10.152s-69.826-5.341-83.121-10.152c-24.399-8.828-52.692,0.927-62.791,24.832
		c-2.684,6.338-4.158,13.312-4.158,20.63l-0.238,80.446c0,55.428,4.317,116.401,46.124,156.089
		c14.998,14.239,32.662,25.203,49.726,36.776c17.064,11.564,32.106,26.827,54.219,26.827s37.155-15.263,54.219-26.827
		c17.055-11.573,34.719-22.537,49.717-36.776c41.807-39.689,46.371-101.667,46.371-157.087V195.241z"/>
	<path style="fill:#BDC3C7;" d="M451.506,161.18c-0.283-0.83-0.494-1.254-0.494-1.254c-21.336-130.94-97.103-123.586-97.103-123.586
		C316.206-1.08,265.633,1.021,265.633,1.021S154.034,1.904,80.412,105.814c-18.873,26.624-27.78,59.004-26.059,91.595
		c2.825,53.504,14.751,131.866,61.21,112.587l0.847,0.026c-0.644-11.52-0.847-23.04-0.847-34.33l0.238-80.455
		c0-7.318,1.483-14.292,4.158-20.63c10.099-23.905,38.391-33.66,62.791-24.832c13.294,4.811,38.179,10.152,83.121,10.152
		s69.826-5.341,83.121-10.152c24.399-8.828,52.683,0.927,62.791,24.832c2.675,6.338,4.158,13.312,4.158,20.63v79.448
		c0,14.433-0.327,29.299-1.527,44.103l1.289,0.035l24.903-32.671C463.265,248.388,464.668,200.622,451.506,161.18"/>
</g>
<g>
</g>
<g>
</g>
<g>
</g>
<g>
</g>
<g>
</g>
<g>
</g>
<g>
</g>
<g>
</g>
<g>
</g>
<g>
</g>
<g>
</g>
<g>
</g>
<g>
</g>
<g>
</g>
<g>
</g>
</svg>
