<?xml version="1.0" encoding="iso-8859-1"?>
<!-- Generator: Adobe Illustrator 19.0.0, SVG Export Plug-In . SVG Version: 6.00 Build 0)  -->
<svg version="1.1" id="Layer_1" xmlns="http://www.w3.org/2000/svg" xmlns:xlink="http://www.w3.org/1999/xlink" x="0px" y="0px"
	 viewBox="0 0 511.998 511.998" style="enable-background:new 0 0 511.998 511.998;" xml:space="preserve">
<g>
	<path style="fill:#DBB38D;" d="M309.732,467.516c-17.064,11.573-32.106,26.827-54.219,26.827c-22.104,0-37.155-15.254-54.21-26.827
		c-8.324-5.641-16.772-11.149-24.991-16.949v61.431h158.897V450.24C326.831,456.173,318.215,461.769,309.732,467.516"/>
	<path style="fill:#FDD7AD;" d="M405.827,194.206c0-7.318-1.483-14.283-4.158-20.63c-10.099-23.905-38.382-33.66-62.791-24.832
		c-13.294,4.811-38.179,10.152-83.121,10.152s-69.826-5.341-83.121-10.152c-24.408-8.828-52.692,0.927-62.791,24.832
		c-2.675,6.338-4.158,13.312-4.158,20.63l-0.238,80.446c0,55.428,4.317,116.401,46.124,156.089
		c14.998,14.239,32.662,25.203,49.726,36.776c17.064,11.564,32.106,26.827,54.219,26.827c22.113,0,37.155-15.263,54.21-26.827
		c17.064-11.573,34.728-22.537,49.726-36.776c41.807-39.689,46.371-101.667,46.371-157.087V194.206z"/>
	<path style="fill:#CC6F56;" d="M403.241,99.646c-20.286-22.175-55.084-39.345-84.215-49.788c-8.836-3.16-18.044-4.82-27.295-6.382
		C259.245,37.967,255.758,0,255.758,0s-55.896,1.254-61.361,45.753c-0.538,4.334-3.293,8.201-7.362,9.799
		c-15.872,6.215-29.705,15.704-43.988,23.879c-63.656,36.44-82.82,100.652-67.725,160.115c4.988,19.677,15.916,37.358,30.305,51.703
		c-0.115-5.57-0.177-11.114-0.177-16.596l0.238-80.446c0-7.318,1.483-14.292,4.158-20.63c10.099-23.905,38.391-33.66,62.791-24.832
		c13.294,4.802,38.179,10.152,83.121,10.152s69.826-5.35,83.121-10.152c24.399-8.828,52.692,0.927,62.791,24.832
		c2.675,6.338,4.158,13.312,4.158,20.63v79.448c0,5.817-0.071,11.723-0.203,17.655h0.203l3.187-3.407
		c13.965-14.901,24.188-33.112,28.672-53.045C448.394,187.321,436.9,136.439,403.241,99.646"/>
</g>
<g>
</g>
<g>
</g>
<g>
</g>
<g>
</g>
<g>
</g>
<g>
</g>
<g>
</g>
<g>
</g>
<g>
</g>
<g>
</g>
<g>
</g>
<g>
</g>
<g>
</g>
<g>
</g>
<g>
</g>
</svg>
