<?xml version="1.0" encoding="iso-8859-1"?>
<!-- Generator: Adobe Illustrator 19.0.0, SVG Export Plug-In . SVG Version: 6.00 Build 0)  -->
<svg version="1.1" id="Layer_1" xmlns="http://www.w3.org/2000/svg" xmlns:xlink="http://www.w3.org/1999/xlink" x="0px" y="0px"
	 viewBox="0 0 512.1 512.1" style="enable-background:new 0 0 512.1 512.1;" xml:space="preserve">
<g transform="translate(0 -1)">
	<path style="fill:#DBB38D;" d="M310.143,468.617c-17.064,11.573-32.106,26.827-54.219,26.827c-22.104,0-37.155-15.254-54.21-26.827
		c-8.324-5.641-16.772-11.149-24.991-16.949V513.1h158.897v-61.758C327.242,457.274,318.626,462.871,310.143,468.617"/>
	<path style="fill:#FDD7AD;" d="M406.238,195.307c0-7.318-1.483-14.283-4.158-20.63c-10.099-23.905-38.382-33.66-62.791-24.832
		c-13.294,4.811-38.179,10.152-83.121,10.152s-69.826-5.341-83.121-10.152c-24.408-8.828-52.692,0.927-62.791,24.832
		c-2.675,6.338-4.158,13.312-4.158,20.63l-0.238,80.446c0,55.428,4.317,116.401,46.124,156.089
		c14.998,14.239,32.662,25.203,49.726,36.776c17.064,11.564,32.106,26.827,54.219,26.827c22.113,0,37.155-15.263,54.21-26.827
		c17.064-11.573,34.728-22.537,49.726-36.776c41.807-39.689,46.371-101.667,46.371-157.087V195.307z"/>
	<path style="fill:#F0C419;" d="M151.298,146.928c7.221-0.477,14.636,0.335,21.751,2.913c13.294,4.811,38.179,10.152,83.121,10.152
		s69.826-5.341,83.121-10.152c9.71-3.513,20.012-3.964,29.572-1.863c14.839-13.003,21.636-33.748,15.554-53.098
		c-7.459-23.746-26.721-49.646-75.282-49.646c-52.418,0-61.793-44.138-61.793-44.138s-80.119-5.941-110.636,75.635
		c-3.575,9.543-4.952,19.889-3.513,29.97C134.835,118.15,139.407,133.457,151.298,146.928"/>
</g>
<g>
</g>
<g>
</g>
<g>
</g>
<g>
</g>
<g>
</g>
<g>
</g>
<g>
</g>
<g>
</g>
<g>
</g>
<g>
</g>
<g>
</g>
<g>
</g>
<g>
</g>
<g>
</g>
<g>
</g>
</svg>
