<?xml version="1.0" encoding="iso-8859-1"?>
<!-- Generator: Adobe Illustrator 19.0.0, SVG Export Plug-In . SVG Version: 6.00 Build 0)  -->
<svg version="1.1" id="Layer_1" xmlns="http://www.w3.org/2000/svg" xmlns:xlink="http://www.w3.org/1999/xlink" x="0px" y="0px"
	 viewBox="0 0 511.999 511.999" style="enable-background:new 0 0 511.999 511.999;" xml:space="preserve">
<g>
	<path style="fill:#F0785A;" d="M410.439,0c0,0-18.211,44.138-141.241,44.138h-79.448c0,0-123.586-6.073-123.586,105.931v82.476
		c0,31.974,12.703,62.632,35.31,85.248h300.138l6.294-6.294c19.474-19.482,31.921-45.047,34.648-72.466
		C458.629,77.674,410.439,0,410.439,0"/>
	<path style="fill:#DBB38D;" d="M306,467.517c-17.064,11.573-32.106,26.827-54.219,26.827s-37.155-15.254-54.219-26.827
		c-8.474-5.747-17.099-11.343-25.468-17.276v61.758h158.897v-61.431C322.763,456.368,314.315,461.876,306,467.517"/>
	<path style="fill:#FDD7AD;" d="M101.473,194.207c0-7.318,1.474-14.292,4.158-20.63c10.099-23.905,38.391-33.66,62.791-24.832
		c13.294,4.811,38.179,10.152,83.121,10.152s69.826-5.341,83.121-10.152c24.399-8.828,52.683,0.927,62.791,24.832
		c2.675,6.347,4.158,13.312,4.158,20.63l0.238,80.446c0,55.428-4.317,116.401-46.133,156.089
		c-14.989,14.239-32.653,25.203-49.717,36.776c-17.064,11.564-32.106,26.827-54.219,26.827s-37.155-15.263-54.219-26.827
		c-17.055-11.573-34.719-22.537-49.717-36.776c-41.807-39.689-46.371-101.667-46.371-157.087V194.207z"/>
</g>
<g>
</g>
<g>
</g>
<g>
</g>
<g>
</g>
<g>
</g>
<g>
</g>
<g>
</g>
<g>
</g>
<g>
</g>
<g>
</g>
<g>
</g>
<g>
</g>
<g>
</g>
<g>
</g>
<g>
</g>
</svg>
