<?xml version="1.0" encoding="iso-8859-1"?>
<!-- Generator: Adobe Illustrator 19.0.0, SVG Export Plug-In . SVG Version: 6.00 Build 0)  -->
<svg version="1.1" id="Layer_1" xmlns="http://www.w3.org/2000/svg" xmlns:xlink="http://www.w3.org/1999/xlink" x="0px" y="0px"
	 viewBox="0 0 508.213 508.213" style="enable-background:new 0 0 508.213 508.213;" xml:space="preserve">
<g>
	<path style="fill:#DBB38D;" d="M312.082,463.731c-17.064,11.573-32.106,26.827-54.219,26.827c-22.104,0-37.155-15.254-54.21-26.827
		c-8.324-5.641-16.772-11.149-24.991-16.949v61.431h158.897v-61.758C329.181,452.387,320.565,457.984,312.082,463.731"/>
	<path style="fill:#FDD7AD;" d="M408.418,190.421c0-7.318-1.483-14.283-4.167-20.63c-10.09-23.905-38.382-33.66-62.782-24.832
		c-13.294,4.811-38.179,10.152-83.121,10.152s-69.826-5.341-83.121-10.152c-24.408-8.828-52.692,0.927-62.791,24.832
		c-2.675,6.338-4.158,13.312-4.158,20.63l-0.238,80.446c0,55.428,4.317,116.401,46.124,156.089
		c14.998,14.239,32.662,25.203,49.726,36.776c17.064,11.564,32.106,26.827,54.219,26.827s37.155-15.263,54.21-26.827
		c17.064-11.573,34.728-22.537,49.726-36.776c41.807-39.689,46.371-101.667,46.371-157.087V190.421z"/>
	<path style="fill:#805333;" d="M397.72,82.249l-70.78-38.1c-4.334-2.339-7.036-6.877-7.036-11.794v-18.82
		c0-8.792-8.271-15.254-16.808-13.127L195.101,27.412c-10.434,2.613-19.209,9.649-24.02,19.271l-0.865,1.73
		c-5.685,11.37-17.337,18.361-30.058,18.423c-14.786,0.079-28.76,6.824-37.994,18.379L91.156,98.977
		c-6.25,7.804-9.949,17.346-10.628,27.33l-6.877,103.221c-0.6,9.031,1.474,18.052,5.976,25.927l28.416,49.726h0.839
		c-0.636-11.52-0.839-23.022-0.839-34.313l0.238-80.446c0-7.318,1.483-14.292,4.158-20.63c10.099-23.905,38.382-33.66,62.791-24.832
		c13.294,4.802,38.179,10.152,83.121,10.152s69.826-5.35,83.121-10.152c24.399-8.828,52.692,0.927,62.782,24.832
		c2.684,6.338,4.167,13.312,4.167,20.63v79.448c0,11.564-0.229,23.428-0.927,35.31h0.689l11.096-25.9
		c10.152-23.684,15.386-49.178,15.386-74.946v-60.231C434.664,118.256,420.469,94.51,397.72,82.249"/>
</g>
<g>
</g>
<g>
</g>
<g>
</g>
<g>
</g>
<g>
</g>
<g>
</g>
<g>
</g>
<g>
</g>
<g>
</g>
<g>
</g>
<g>
</g>
<g>
</g>
<g>
</g>
<g>
</g>
<g>
</g>
</svg>
