<?xml version="1.0" encoding="iso-8859-1"?>
<!-- Generator: Adobe Illustrator 19.0.0, SVG Export Plug-In . SVG Version: 6.00 Build 0)  -->
<svg version="1.1" id="Layer_1" xmlns="http://www.w3.org/2000/svg" xmlns:xlink="http://www.w3.org/1999/xlink" x="0px" y="0px"
	 viewBox="0 0 511.999 511.999" style="enable-background:new 0 0 511.999 511.999;" xml:space="preserve">
<g transform="translate(-1)">
	<path style="fill:#FDD7AD;" d="M250.982,62.912h-8.039h-8.039c0,0-144.662-7.985-144.662,207.576
		c0,56.401,4.392,118.443,46.942,158.828c15.261,14.489,33.235,25.645,50.589,37.421c17.363,11.776,32.669,27.298,55.17,27.298
		s37.807-15.522,55.17-27.298c17.363-11.776,35.328-22.932,50.589-37.421c42.55-40.385,46.942-102.427,46.942-158.828
		C395.644,54.927,250.982,62.912,250.982,62.912"/>
	<path style="fill:#DBB38D;" d="M298.113,466.737c-17.363,11.776-32.669,27.298-55.17,27.298c-22.501,0-37.807-15.522-55.17-27.298
		c-8.461-5.74-17.058-11.345-25.429-17.246v62.509h161.684v-62.841C315.512,455.194,306.737,460.889,298.113,466.737"/>
	<path style="fill:#59474E;" d="M458.767,0H189.294C98.346,0,81.504,107.789,81.504,107.789h0.171c0,0-65.671,49.404,8.569,162.699
		c0-215.561,144.662-207.576,144.662-207.576h8.039h8.039c0,0,62.742-3.431,105.589,55.79l3.386-1.931
		c40.17,0,44.912-39.155,45.119-55.664c0.054-3.907,3.108-7.186,6.997-7.464C466.348,49.619,458.767,0,458.767,0"/>
</g>
<g>
</g>
<g>
</g>
<g>
</g>
<g>
</g>
<g>
</g>
<g>
</g>
<g>
</g>
<g>
</g>
<g>
</g>
<g>
</g>
<g>
</g>
<g>
</g>
<g>
</g>
<g>
</g>
<g>
</g>
</svg>
