<?xml version="1.0" encoding="iso-8859-1"?>
<!-- Generator: Adobe Illustrator 19.0.0, SVG Export Plug-In . SVG Version: 6.00 Build 0)  -->
<svg version="1.1" id="Layer_1" xmlns="http://www.w3.org/2000/svg" xmlns:xlink="http://www.w3.org/1999/xlink" x="0px" y="0px"
	 viewBox="0 0 511.86 511.86" style="enable-background:new 0 0 511.86 511.86;" xml:space="preserve">
<g>
	<path style="fill:#DBB38D;" d="M309.904,467.378c-17.064,11.573-32.106,26.827-54.219,26.827c-22.104,0-37.155-15.254-54.21-26.827
		c-8.324-5.641-16.772-11.149-24.991-16.949v61.431H335.38v-61.758C327.003,456.035,318.387,461.631,309.904,467.378"/>
	<path style="fill:#FDD7AD;" d="M406.24,194.068c0-7.318-1.483-14.283-4.167-20.63c-10.09-23.905-38.382-33.66-62.782-24.832
		c-13.294,4.811-38.179,10.152-83.121,10.152c-44.941,0-69.826-5.341-83.121-10.152c-24.408-8.828-52.692,0.927-62.791,24.832
		c-2.675,6.338-4.158,13.312-4.158,20.63l-0.238,80.446c0,55.428,4.317,116.401,46.124,156.089
		c14.998,14.239,32.662,25.203,49.726,36.776c17.064,11.564,32.106,26.827,54.219,26.827c22.113,0,37.155-15.263,54.21-26.827
		c17.064-11.573,34.728-22.537,49.726-36.776c41.807-39.689,46.371-101.667,46.371-157.087V194.068z"/>
	<path style="fill:#59474E;" d="M494.275,264.689c0-134.621-88.276-220.69-88.276-220.69C352.301-26.251,255.93,8.689,255.93,8.689
		s-96.371-34.94-150.069,35.31c0,0-88.276,86.069-88.276,220.69c0,0-2.233,49.638,18.37,75.52
		c12.359,15.519,21.116,33.536,27.948,52.162c12.182,33.218,35.814,75.352,77.268,75.352h61.025
		c-0.159-0.115-0.318-0.23-0.486-0.344c-17.055-11.573-34.719-22.537-49.717-36.776c-41.816-39.689-46.133-100.661-46.133-156.089
		l0.238-80.446c0-7.318,1.483-14.292,4.158-20.63c10.108-23.905,38.391-33.66,62.791-24.832
		c13.294,4.811,38.188,10.152,83.121,10.152c44.941,0,69.835-5.341,83.121-10.152c24.399-8.828,52.692,0.927,62.791,24.832
		c2.675,6.338,4.158,13.312,4.158,20.63v79.448c0,55.42-4.555,117.398-46.371,157.087c-14.998,14.239-32.662,25.203-49.717,36.776
		c-0.168,0.115-0.327,0.23-0.486,0.344h61.025c41.454,0,65.086-42.134,77.268-75.352c6.833-18.626,15.59-36.643,27.948-52.162
		C496.508,314.326,494.275,264.689,494.275,264.689"/>
</g>
<g>
</g>
<g>
</g>
<g>
</g>
<g>
</g>
<g>
</g>
<g>
</g>
<g>
</g>
<g>
</g>
<g>
</g>
<g>
</g>
<g>
</g>
<g>
</g>
<g>
</g>
<g>
</g>
<g>
</g>
</svg>
