<?xml version="1.0" encoding="iso-8859-1"?>
<!-- Generator: Adobe Illustrator 19.0.0, SVG Export Plug-In . SVG Version: 6.00 Build 0)  -->
<svg version="1.1" id="Layer_1" xmlns="http://www.w3.org/2000/svg" xmlns:xlink="http://www.w3.org/1999/xlink" x="0px" y="0px"
	 viewBox="0 0 511.998 511.998" style="enable-background:new 0 0 511.998 511.998;" xml:space="preserve">
<g>
	<path style="fill:#F0C419;" d="M234.146,0.043h-9.165h-9.155c0,0-164.925-9.103-164.925,236.636
		c0,64.297,5.018,135.014,53.514,181.064c17.398,16.507,37.888,29.235,57.672,42.66c19.794,13.425,37.253,31.119,62.894,31.119
		c25.651,0,43.1-17.695,62.904-31.119c19.784-13.425,40.274-26.153,57.672-42.66c48.497-46.049,53.504-116.767,53.504-181.064
		C399.061-9.06,234.146,0.043,234.146,0.043"/>
	<path style="fill:#DBB38D;" d="M287.876,460.398c-19.794,13.425-37.243,31.119-62.894,31.119c-25.641,0-43.1-17.695-62.894-31.119
		c-9.646-6.543-19.446-12.923-28.979-19.651v71.25h184.32v-71.639C307.711,447.229,297.707,453.732,287.876,460.398"/>
	<path style="fill:#FDD7AD;" d="M348.536,132.288c-37.97-29.747-82.586-50.371-82.586-50.371
		c-59.525,145.92-215.04,154.757-215.04,154.757c0,64.297,5.007,135.025,53.504,181.064c17.398,16.517,37.888,29.235,57.672,42.66
		c19.804,13.425,37.253,31.119,62.904,31.119c25.641,0,43.1-17.695,62.894-31.119c19.784-13.425,40.274-26.143,57.672-42.66
		c48.497-46.039,53.514-116.767,53.514-181.064C399.071,195.991,380.567,157.376,348.536,132.288"/>
	<path style="fill:#F0C419;" d="M399.066,255.998l-0.215,0.287c-1.26,58.696-9.687,120.054-53.299,161.454
		c-0.061,0.061-0.143,0.123-0.215,0.184c8.571,40.172,26.491,82.708,63.969,94.075c0,0-5.437-73.472,20.111-89.211
		c8.939-5.509,17.08-12.308,21.402-21.862C464.428,370.819,477.454,309.891,399.066,255.998"/>
</g>
<g>
</g>
<g>
</g>
<g>
</g>
<g>
</g>
<g>
</g>
<g>
</g>
<g>
</g>
<g>
</g>
<g>
</g>
<g>
</g>
<g>
</g>
<g>
</g>
<g>
</g>
<g>
</g>
<g>
</g>
</svg>
