<?xml version="1.0" encoding="iso-8859-1"?>
<!-- Generator: Adobe Illustrator 19.0.0, SVG Export Plug-In . SVG Version: 6.00 Build 0)  -->
<svg version="1.1" id="Layer_1" xmlns="http://www.w3.org/2000/svg" xmlns:xlink="http://www.w3.org/1999/xlink" x="0px" y="0px"
	 viewBox="0 0 511.784 511.784" style="enable-background:new 0 0 511.784 511.784;" xml:space="preserve">
<g transform="translate(-1)">
	<path style="fill:#DBB38D;" d="M321.048,463.105c-18.674,12.665-35.135,29.358-59.334,29.358c-24.19,0-40.661-16.693-59.324-29.358
		c-9.11-6.173-18.355-12.191-27.349-18.538v67.217h173.887V444.2C339.76,450.682,330.322,456.816,321.048,463.105"/>
	<path style="fill:#CB8252;" d="M394.378,188.176L263.577,88.153c-1.092-0.84-2.628-0.84-3.719,0L129.056,188.176
		c-19.891,15.215-31.56,38.825-31.56,63.874c0,60.648,4.724,127.372,50.475,170.805c4.492,4.27,9.226,8.231,14.085,12.047
		c-120.504-2.917-151.504-58.358-151.504-58.358c46.486,0,38.642-38.642,38.642-38.642v-38.642
		c0-137.66,19.321-173.887,19.321-173.887C152.434-49.121,261.722,9.45,261.722,9.45s99.618-58.571,183.547,115.925
		c0,0,19.321,36.226,19.321,173.887v38.642c0,0-7.854,38.642,38.642,38.642c0,0-35.946,49.046-140.472,57.315
		c4.376-3.487,8.627-7.129,12.703-11.003c45.752-43.433,50.485-110.157,50.485-170.805
		C425.948,227.001,414.279,203.391,394.378,188.176"/>
	<path style="fill:#FDD7AD;" d="M425.945,252.049c0-25.049-11.67-48.659-31.57-63.874L263.573,88.151c-1.092-0.84-2.618-0.84-3.71,0
		L129.062,188.174c-19.9,15.215-31.57,38.825-31.57,63.874c0,60.648,4.724,127.382,50.485,170.815
		c4.482,4.26,9.226,8.221,14.085,12.037c12.887,10.124,26.759,19.012,40.322,28.208c18.673,12.665,35.135,29.358,59.334,29.358
		c24.199,0,40.661-16.693,59.334-29.358c18.664-12.665,37.994-24.673,54.407-40.245
		C421.221,379.431,425.945,312.697,425.945,252.049"/>
</g>
<g>
</g>
<g>
</g>
<g>
</g>
<g>
</g>
<g>
</g>
<g>
</g>
<g>
</g>
<g>
</g>
<g>
</g>
<g>
</g>
<g>
</g>
<g>
</g>
<g>
</g>
<g>
</g>
<g>
</g>
</svg>
