<?xml version="1.0" encoding="iso-8859-1"?>
<!-- Generator: Adobe Illustrator 19.0.0, SVG Export Plug-In . SVG Version: 6.00 Build 0)  -->
<svg version="1.1" id="Layer_1" xmlns="http://www.w3.org/2000/svg" xmlns:xlink="http://www.w3.org/1999/xlink" x="0px" y="0px"
	 viewBox="0 0 503.352 503.352" style="enable-background:new 0 0 503.352 503.352;" xml:space="preserve">
<g>
	<path style="fill:#DBB38D;" d="M304.972,455.055c-16.774,11.377-31.562,26.372-53.3,26.372c-21.73,0-36.526-14.996-53.291-26.372
		c-8.183-5.545-16.488-10.952-24.567-16.653v60.381h156.203v-60.711C321.782,443.895,313.303,449.406,304.972,455.055"/>
	<g>
		<path style="fill:#804537;" d="M251.676,30.174c0,0-9.216-26.034-52.068-26.034c0,0-130.169-2.534-130.169,190.915
			c0,0-69.424,25.487-69.424,138.847c0,0-3.254,130.169,86.78,164.881c0,0,32.178,8.678,69.424-52.068l5.606-19.647
			c6.864-24.003,4.105-49.829-8.201-71.55c-12.809-22.632-27.709-55.782-31.301-92.195c-0.963-9.659,3.567-19.031,11.516-24.593
			c29.479-20.671,102.756-75.672,117.838-121.778V30.174z"/>
		<path style="fill:#804537;" d="M251.676,30.174c0,0,9.216-26.034,52.068-26.034c0,0,130.169-2.534,130.169,190.915
			c0,0,69.424,25.487,69.424,138.847c0,0,3.254,130.169-86.78,164.881c0,0-32.178,8.678-69.424-52.068l-5.606-19.647
			c-6.864-24.003-4.105-49.829,8.201-71.55c12.809-22.632,27.709-55.782,31.301-92.195c0.963-9.659-3.567-19.031-11.516-24.593
			c-29.479-20.671-102.756-75.672-117.838-121.778V30.174z"/>
	</g>
	<path style="fill:#FDD7AD;" d="M341.523,427.064c-6.864-24.003-4.105-49.829,8.201-71.55c12.817-22.623,27.717-55.773,31.31-92.195
		c0.955-9.65-3.567-19.022-11.507-24.593c-29.496-20.662-102.764-75.663-117.855-121.769
		c-15.082,46.106-88.35,101.107-117.847,121.769c-7.94,5.571-12.462,14.943-11.507,24.593c3.593,36.421,18.493,69.571,31.31,92.195
		c12.305,21.721,15.065,47.547,8.201,71.55l-0.564,1.987c11.819,9.39,24.619,17.538,37.116,26.008
		c16.766,11.377,31.562,26.372,53.291,26.372c21.738,0,36.526-14.996,53.3-26.372c12.496-8.47,25.296-16.618,37.116-26.008
		L341.523,427.064z"/>
</g>
<g>
</g>
<g>
</g>
<g>
</g>
<g>
</g>
<g>
</g>
<g>
</g>
<g>
</g>
<g>
</g>
<g>
</g>
<g>
</g>
<g>
</g>
<g>
</g>
<g>
</g>
<g>
</g>
<g>
</g>
</svg>
