<?xml version="1.0" encoding="iso-8859-1"?>
<!-- Generator: Adobe Illustrator 19.0.0, SVG Export Plug-In . SVG Version: 6.00 Build 0)  -->
<svg version="1.1" id="Layer_1" xmlns="http://www.w3.org/2000/svg" xmlns:xlink="http://www.w3.org/1999/xlink" x="0px" y="0px"
	 viewBox="0 0 511.792 511.792" style="enable-background:new 0 0 511.792 511.792;" xml:space="preserve">
<g>
	<path style="fill:#CB8252;" d="M336.98,511.792h61.494c25.429,0,46.053-20.624,46.053-46.062v-8.318
		c0-10.878,4.069-21.172,10.869-29.66c36.244-45.29,34.043-95.609,34.043-95.609c0-52.547-15.18-78.534-25.807-90.283
		c-6.773-7.482-10.123-17.453-10.123-27.54v-25.896c0-99.373-44.912-143.719-44.912-143.719
		c-60.632-71.303-152.702-35.93-152.702-35.93s-92.07-35.373-152.702,35.93c0,0-44.912,44.346-44.912,143.719v25.896
		c0,10.087-3.359,20.058-10.123,27.54c-10.626,11.749-25.807,37.735-25.807,90.283c0,0-2.201,50.32,34.044,95.609
		c6.8,8.488,10.869,18.782,10.869,29.66v8.318c0,25.438,20.615,46.062,46.053,46.062h61.979"/>
	<path style="fill:#DBB38D;" d="M311.06,457.546c-17.363,11.776-32.669,36.28-55.17,36.28c-22.492,0-37.807-24.504-55.17-36.28
		c-8.461-5.74-17.058-11.336-25.42-17.237v71.482h161.684v-71.824C328.459,445.994,319.683,451.698,311.06,457.546"/>
	<path style="fill:#FDD7AD;" d="M399.612,269.265c0-23.336-10.815-44.203-29.355-58.377l-111.041-91.585
		c-1.931-1.59-4.716-1.59-6.647,0l-111.041,91.585c-18.54,14.174-29.355,35.041-29.355,58.377
		c0,56.365,4.428,119.485,46.942,159.843c8.596,8.165,18.163,15.126,27.657,22.187c6.602,4.913,13.599,9.225,20.534,13.653
		c18.701,11.911,25.061,28.879,48.586,28.879c22.501,0,28.825-15.522,46.188-27.298c17.363-11.776,44.31-22.932,59.572-37.421
		C404.167,388.75,399.612,325.63,399.612,269.265"/>
</g>
<g>
</g>
<g>
</g>
<g>
</g>
<g>
</g>
<g>
</g>
<g>
</g>
<g>
</g>
<g>
</g>
<g>
</g>
<g>
</g>
<g>
</g>
<g>
</g>
<g>
</g>
<g>
</g>
<g>
</g>
</svg>
