<?xml version="1.0" encoding="iso-8859-1"?>
<!-- Generator: Adobe Illustrator 19.0.0, SVG Export Plug-In . SVG Version: 6.00 Build 0)  -->
<svg version="1.1" id="Layer_1" xmlns="http://www.w3.org/2000/svg" xmlns:xlink="http://www.w3.org/1999/xlink" x="0px" y="0px"
	 viewBox="0 0 511.998 511.998" style="enable-background:new 0 0 511.998 511.998;" xml:space="preserve">
<g>
	<path style="fill:#DBB38D;" d="M317.468,462.298c-3.584,3.341-6.315,5.614-7.698,6.557c-17.372,11.785-31.519,25.456-54.02,25.456
		c-22.492,0-38.957-13.671-56.32-25.456c-8.093-5.479-16.267-10.887-24.271-16.519v59.661h161.684v-62.841
		C330.474,453.666,323.953,457.96,317.468,462.298"/>
	<path style="fill:#FDD7AD;" d="M381.424,228.526c-8.452-16.007-18.037-31.484-29.876-45.11
		c-2.237-2.569-11.668-15.836-15.576-15.836c-32.615,0-26.992,90.983-26.992,90.983c-63.398-3.099-80.995-100.083-80.995-100.083
		c-55.107,35.822-8.991,90.983-8.991,90.983c-40.906,0-71.994-18.198-71.994-18.198c-40.897,71.339,0,109.182,0,109.182
		c-69.731,34.403,14.345,109.074,12.513,109.011c12.719,10.321,26.606,19.196,40.161,28.385
		c17.363,11.776,33.828,25.456,56.329,25.456s36.648-13.68,54.003-25.456C322.93,469.085,446.313,351.442,381.424,228.526"/>
	<path style="fill:#F0C419;" d="M255.999,0C122.053,0,13.473,100.541,13.473,224.561c0,82.576,48.173,154.696,119.88,193.707h0.638
		c-16.195-24.585-27.316-57.928,13.016-77.824c0,0-40.897-37.843,0-109.173c0,0,31.088,18.189,71.985,18.189
		c0,0-46.116-55.152,9-90.974c0,0,17.588,96.975,80.986,100.074c0,0-5.623-90.983,26.992-90.983
		c3.907,0,13.348,13.276,15.576,15.836c11.839,13.626,19.537,30.262,29.876,45.11c39.945,57.38,5.892,143.279-16.806,189.745
		l8.156-5.075c71.707-39.011,125.754-106.056,125.754-188.632C498.525,100.541,389.945,0,255.999,0"/>
</g>
<g>
</g>
<g>
</g>
<g>
</g>
<g>
</g>
<g>
</g>
<g>
</g>
<g>
</g>
<g>
</g>
<g>
</g>
<g>
</g>
<g>
</g>
<g>
</g>
<g>
</g>
<g>
</g>
<g>
</g>
</svg>
