<?xml version="1.0" encoding="iso-8859-1"?>
<!-- Generator: Adobe Illustrator 19.0.0, SVG Export Plug-In . SVG Version: 6.00 Build 0)  -->
<svg version="1.1" id="Layer_1" xmlns="http://www.w3.org/2000/svg" xmlns:xlink="http://www.w3.org/1999/xlink" x="0px" y="0px"
	 viewBox="0 0 511.999 511.999" style="enable-background:new 0 0 511.999 511.999;" xml:space="preserve">
<g>
	<path style="fill:#DBB38D;" d="M318.484,467.517c-17.064,11.573-32.106,26.827-54.219,26.827
		c-22.104,0-37.155-15.254-54.219-26.827c-8.316-5.641-16.764-11.14-24.982-16.94v61.422H343.96v-61.758
		C335.583,456.165,326.958,461.77,318.484,467.517"/>
	<path style="fill:#F0785A;" d="M193.648,88.276c0,0-70.276,20.701-107.423,126.385c-7.539,21.469-8.413,44.729-3.328,66.904
		c4.299,18.767,7.583,36.484,31.303,36.228c0,0,16.004-105.931,88.276-105.931c0,0,1.112,1.086,3.204,2.94
		c39.636,35.204,93.934,49.911,145.726,38.568c15.431-3.381,36.273-6.197,62.932-6.197c0,0,23.358-12.95,16.808-56.135
		c-7.698-50.706-44.721-91.78-92.928-109.268C301.9,68.599,252.431,63.197,193.648,88.276"/>
	<path style="fill:#FDD7AD;" d="M351.402,253.367c-51.791,11.352-106.09-3.363-145.726-38.568c-2.083-1.854-3.204-2.94-3.204-2.94
		c-62.27,0-82.75,78.583-87.225,100.352c2.772,43.961,12.579,87.676,45.082,118.528c14.998,14.239,32.662,25.212,49.726,36.776
		c17.055,11.573,32.106,26.827,54.21,26.827c22.113,0,37.155-15.254,54.219-26.827c17.064-11.564,34.728-22.537,49.726-36.776
		c41.807-39.689,46.124-100.661,46.124-156.081c0-9.657-0.388-18.714-0.953-27.471C387.198,247.249,366.647,250.03,351.402,253.367"
		/>
	<path style="fill:#CE5F49;" d="M193.648,88.276C252.431,63.197,301.9,68.599,338.217,81.77c5.032,1.827,9.913,3.972,14.689,6.294
		c5.376-7.98,8.466-16.861,8.466-26.271C361.372,27.666,321.851,0,273.096,0S184.82,27.666,184.82,61.793
		c0,9.516,3.16,18.494,8.651,26.536C193.498,88.329,193.648,88.276,193.648,88.276"/>
</g>
<g>
</g>
<g>
</g>
<g>
</g>
<g>
</g>
<g>
</g>
<g>
</g>
<g>
</g>
<g>
</g>
<g>
</g>
<g>
</g>
<g>
</g>
<g>
</g>
<g>
</g>
<g>
</g>
<g>
</g>
</svg>
