<?xml version="1.0" encoding="iso-8859-1"?>
<!-- Generator: Adobe Illustrator 19.0.0, SVG Export Plug-In . SVG Version: 6.00 Build 0)  -->
<svg version="1.1" id="Layer_1" xmlns="http://www.w3.org/2000/svg" xmlns:xlink="http://www.w3.org/1999/xlink" x="0px" y="0px"
	 viewBox="0 0 512.01 512.01" style="enable-background:new 0 0 512.01 512.01;" xml:space="preserve">
<g transform="translate(0 -1)">
	<path style="fill:#F0785A;" d="M256.005,1.011c0,0-223.418-5.232-223.418,214.109v182.952c0,32.638,26.447,59.085,59.085,59.085
		h80.552h13.275c-13.647-9.151-27.173-18.516-39.098-29.836C102.303,385.467,97.75,321.169,97.75,262.717
		c0,0,141.386-8.034,195.491-140.688c0,0,40.439,18.693,74.929,45.67c29.193,22.835,46.089,57.93,46.089,94.999
		c0,58.452-4.552,122.759-48.649,164.622c-11.925,11.32-25.451,20.685-39.098,29.836h13.275h80.552
		c32.638,0,59.085-26.447,59.085-59.085V215.12C479.423-4.221,256.005,1.011,256.005,1.011"/>
	<path style="fill:#DBB38D;" d="M313.178,466.101c-17.994,12.204-33.857,28.29-57.176,28.29c-23.31,0-39.182-16.086-57.176-28.29
		c-8.769-5.949-17.678-11.748-26.345-17.864v64.773h167.564v-65.126C331.209,454.13,322.114,460.041,313.178,466.101"/>
	<path style="fill:#FDD7AD;" d="M368.323,167.82c-34.518-27.043-75.078-45.791-75.078-45.791
		C239.131,254.683,97.754,262.716,97.754,262.716c0,58.452,4.552,122.75,48.64,164.603c15.816,15.016,34.444,26.577,52.429,38.782
		c18.004,12.204,33.866,28.29,57.186,28.29c23.31,0,39.182-16.086,57.176-28.29c17.985-12.204,36.613-23.766,52.429-38.782
		c44.088-41.854,48.649-106.152,48.649-164.603C414.263,225.731,397.442,190.627,368.323,167.82"/>
</g>
<g>
</g>
<g>
</g>
<g>
</g>
<g>
</g>
<g>
</g>
<g>
</g>
<g>
</g>
<g>
</g>
<g>
</g>
<g>
</g>
<g>
</g>
<g>
</g>
<g>
</g>
<g>
</g>
<g>
</g>
</svg>
