<?xml version="1.0" encoding="iso-8859-1"?>
<!-- Generator: Adobe Illustrator 19.0.0, SVG Export Plug-In . SVG Version: 6.00 Build 0)  -->
<svg version="1.1" id="Layer_1" xmlns="http://www.w3.org/2000/svg" xmlns:xlink="http://www.w3.org/1999/xlink" x="0px" y="0px"
	 viewBox="0 0 511.812 511.812" style="enable-background:new 0 0 511.812 511.812;" xml:space="preserve">
<g>
	<path style="fill:#DBB38D;" d="M314.138,464.035c-18.328,12.43-34.484,28.814-58.235,28.814s-39.908-16.384-58.235-28.814
		c-8.932-6.059-8.78-2.882-17.617-9.112v56.889h151.704v-56.889C322.766,461.286,323.241,457.863,314.138,464.035"/>
	<path style="fill:#FDD7AD;" d="M123.046,208.406c-19.532,14.933-28.331,33.384-28.331,57.96c0,59.534,4.646,125.023,49.55,167.652
		c4.409,4.181,9.055,8.069,13.824,11.814c12.648,9.937,26.273,18.66,39.585,27.686c18.318,12.43,34.475,28.814,58.226,28.814
		c23.751,0,39.908-16.384,58.235-28.814c18.328-12.43,37.291-24.206,53.409-39.5c44.904-42.629,49.55-108.117,49.55-167.652
		c0-24.576-9.036-43.027-28.568-57.96H123.046z"/>
	<path style="fill:#805333;" d="M464.499,293.739c0-164.143-56.889-227.556-56.889-227.556
		C340.055-33.969,255.907,9.295,255.907,9.295s-84.148-43.264-151.704,56.889c0,0-56.889,63.412-56.889,227.556
		c0,0-2.2,56.728,12.392,114.679c8.514,33.811,28.169,64.218,57.107,83.674c8.884,5.973,17.844,10.24,25.316,10.24v-66.37h4.409
		c-0.73-0.673-1.545-1.252-2.266-1.944c-44.914-42.629-49.55-108.117-49.55-167.652c0-13.284,2.674-24.737,8.116-34.844
		c5.31-10.78,10.411-15.625,20.205-23.116h265.482c10.06,7.689,15.512,12.857,20.821,23.998c5.177,9.899,7.746,21.068,7.746,33.963
		c0,59.534-4.646,125.023-49.55,167.652c-0.721,0.683-1.517,1.271-2.247,1.944h4.39v66.37c7.462,0,16.422-4.267,25.306-10.24
		c28.947-19.456,48.593-49.863,57.107-83.674C466.69,350.467,464.499,293.739,464.499,293.739"/>
</g>
<g>
</g>
<g>
</g>
<g>
</g>
<g>
</g>
<g>
</g>
<g>
</g>
<g>
</g>
<g>
</g>
<g>
</g>
<g>
</g>
<g>
</g>
<g>
</g>
<g>
</g>
<g>
</g>
<g>
</g>
</svg>
