<?xml version="1.0" encoding="iso-8859-1"?>
<!-- Generator: Adobe Illustrator 19.0.0, SVG Export Plug-In . SVG Version: 6.00 Build 0)  -->
<svg version="1.1" id="Layer_1" xmlns="http://www.w3.org/2000/svg" xmlns:xlink="http://www.w3.org/1999/xlink" x="0px" y="0px"
	 viewBox="0 0 512.036 512.036" style="enable-background:new 0 0 512.036 512.036;" xml:space="preserve">
<g transform="translate(0 -1)">
	<path style="fill:#D25627;" d="M335.228,513.036h19.721c23.623,0,45.921-11.626,58.836-31.4
		c56.682-86.696,54.095-215.773,54.095-215.773c0-114.759-52.966-194.207-52.966-194.207
		C346.501-45.865,256.018,18.692,256.018,18.692S165.535-45.865,97.122,71.657c0,0-52.966,79.448-52.966,194.207
		c0,0-2.586,129.077,54.095,215.773c12.924,19.774,35.222,31.4,58.836,31.4h19.73"/>
	<path style="fill:#DBB38D;" d="M335.711,513.036v-61.758c-8.369,5.923-16.993,11.529-25.476,17.276
		c-17.055,11.573-32.097,26.827-54.21,26.827s-37.155-15.254-54.219-26.827c-8.316-5.641-16.764-11.14-24.991-16.94v61.422"/>
	<path style="fill:#FDD7AD;" d="M332.643,453.381c16.772-46.839,36.573-113.337,38.135-169.86v-53.575
		c0-9.807-7.15-18.15-16.852-19.641c-63.541-21.23-132.264-21.23-195.814,0c-9.693,1.492-16.852,9.834-16.852,19.641v53.575
		c1.571,56.523,21.363,123.021,38.144,169.86c7.398,5.146,14.945,10.116,22.404,15.175c17.055,11.573,32.097,26.827,54.21,26.827
		c22.113,0,37.155-15.254,54.219-26.827C317.697,463.498,325.236,458.528,332.643,453.381"/>
</g>
<g>
</g>
<g>
</g>
<g>
</g>
<g>
</g>
<g>
</g>
<g>
</g>
<g>
</g>
<g>
</g>
<g>
</g>
<g>
</g>
<g>
</g>
<g>
</g>
<g>
</g>
<g>
</g>
<g>
</g>
</svg>
