<?xml version="1.0" encoding="iso-8859-1"?>
<!-- Generator: Adobe Illustrator 19.0.0, SVG Export Plug-In . SVG Version: 6.00 Build 0)  -->
<svg version="1.1" id="Layer_1" xmlns="http://www.w3.org/2000/svg" xmlns:xlink="http://www.w3.org/1999/xlink" x="0px" y="0px"
	 viewBox="0 0 503.195 503.195" style="enable-background:new 0 0 503.195 503.195;" xml:space="preserve">
<g>
	<path style="fill:#C03A2B;" d="M396.924,397.736c3.503-6.422,8.03-12.162,12.863-17.66
		c47.257-53.823,39.424-137.872,39.424-137.872c0-80.276-44.912-152.702-44.912-152.702C327.948-39.054,251.597,8.661,251.597,8.661
		S175.246-39.054,98.895,89.503c0,0-44.912,72.426-44.912,152.702c0,0-7.824,84.049,39.433,137.872
		c4.833,5.497,9.36,11.237,12.863,17.66c12.243,22.483,28.825,69.928-43.313,78.013c0,0,60.075,61.754,107.789,0
		c0,0,34.25-40.978,8.982-98.807c0,0-41.661-61.449-34.259-135.518c2.003-20.049,19.267-35.148,39.415-35.148h66.704h66.713
		c20.148,0,37.403,15.1,39.406,35.148c7.411,74.069-34.259,135.518-34.259,135.518c-25.259,57.829,8.982,98.807,8.982,98.807
		c47.724,61.754,107.789,0,107.789,0C368.099,467.665,384.681,420.219,396.924,397.736"/>
	<path style="fill:#FDD7AD;" d="M323.459,376.943c0,0,41.67-61.449,34.259-135.518c-2.003-20.049-19.267-35.148-39.415-35.148H251.6
		h-66.704c-20.148,0-37.412,15.1-39.415,35.148c-7.411,74.069,34.259,135.518,34.259,135.518
		c12.953,29.642,10.249,54.811,4.545,72.345c4.06,2.713,8.12,5.416,12.144,8.147c17.363,11.776,32.669,27.298,55.17,27.298
		s37.807-15.522,55.17-27.298c4.024-2.731,8.084-5.434,12.144-8.147C313.21,431.754,310.507,406.585,323.459,376.943"/>
</g>
<g>
</g>
<g>
</g>
<g>
</g>
<g>
</g>
<g>
</g>
<g>
</g>
<g>
</g>
<g>
</g>
<g>
</g>
<g>
</g>
<g>
</g>
<g>
</g>
<g>
</g>
<g>
</g>
<g>
</g>
</svg>
