<svg id="calculate" enable-background="new 0 0 300 300" height="512" viewBox="0 0 300 300" width="512" xmlns="http://www.w3.org/2000/svg"><path d="m238 110h-40c-4.418 0-8-3.582-8-8s3.582-8 8-8h40c4.418 0 8 3.582 8 8s-3.582 8-8 8z" fill="#0faa00"/><path d="m118 198h-56c-4.418 0-8-3.582-8-8s3.582-8 8-8h56c4.418 0 8 3.582 8 8s-3.582 8-8 8z" fill="#0faa00"/><path d="m246 30h-192c-4.418 0-8 3.582-8 8v224c0 4.418 3.582 8 8 8h192c4.418 0 8-3.582 8-8v-224c0-4.418-3.582-8-8-8zm-8 224h-176v-144h8c0 13.233 10.766 24 24 24 6.142 0 11.751-2.322 16-6.131 4.249 3.809 9.858 6.131 16 6.131s11.751-2.322 16-6.131c4.249 3.809 9.858 6.131 16 6.131 13.234 0 24-10.767 24-24v-16c0-13.233-10.766-24-24-24-6.142 0-11.751 2.322-16 6.131-4.249-3.809-9.858-6.131-16-6.131s-11.751 2.322-16 6.131c-4.249-3.809-9.858-6.131-16-6.131-13.234 0-24 10.767-24 24h-8v-48h176v136h-24c0-13.233-10.766-24-24-24-6.142 0-11.751 2.322-16 6.131-4.249-3.809-9.858-6.131-16-6.131-13.234 0-24 10.767-24 24v16c0 13.233 10.766 24 24 24 6.142 0 11.751-2.322 16-6.131 4.249 3.809 9.858 6.131 16 6.131 13.234 0 24-10.767 24-24h24zm-136-144c0 4.411-3.589 8-8 8s-8-3.589-8-8v-16c0-4.411 3.589-8 8-8s8 3.589 8 8zm32 0c0 4.411-3.589 8-8 8s-8-3.589-8-8v-16c0-4.411 3.589-8 8-8s8 3.589 8 8zm16-16c0-4.411 3.589-8 8-8s8 3.589 8 8v16c0 4.411-3.589 8-8 8s-8-3.589-8-8zm32 88c0-4.411 3.589-8 8-8s8 3.589 8 8v16c0 4.411-3.589 8-8 8s-8-3.589-8-8zm-16 16c0 4.411-3.589 8-8 8s-8-3.589-8-8v-16c0-4.411 3.589-8 8-8s8 3.589 8 8z"/></svg>