<svg id="bank-card" enable-background="new 0 0 300 300" height="512" viewBox="0 0 300 300" width="512" xmlns="http://www.w3.org/2000/svg"><path d="m214 154c-4.243 0-8.292.837-12 2.343-3.708-1.506-7.757-2.343-12-2.343-17.645 0-32 14.355-32 32s14.355 32 32 32c4.243 0 8.292-.837 12-2.343 3.708 1.506 7.757 2.343 12 2.343 17.645 0 32-14.355 32-32s-14.355-32-32-32zm-16 32c0-4.042 1.519-7.728 4-10.547 2.481 2.819 4 6.505 4 10.547s-1.519 7.728-4 10.547c-2.481-2.819-4-6.505-4-10.547zm-24 0c0-7.44 5.112-13.692 12.002-15.474-2.546 4.589-4.002 9.864-4.002 15.474s1.456 10.885 4.002 15.474c-6.89-1.782-12.002-8.034-12.002-15.474zm43.998 15.474c2.546-4.589 4.002-9.864 4.002-15.474s-1.456-10.885-4.002-15.474c6.89 1.782 12.002 8.034 12.002 15.474s-5.112 13.692-12.002 15.474z" fill="#0faa00"/><path d="m258.476 58h-216.952c-10.765 0-19.524 8.759-19.524 19.524v144.951c0 10.766 8.759 19.525 19.524 19.525h216.951c10.766 0 19.524-8.759 19.524-19.524v-144.952c.001-10.765-8.758-19.524-19.523-19.524zm3.524 40v32h-224v-32zm-220.476-24h216.951c1.943 0 3.524 1.581 3.524 3.524v4.476h-223.999v-4.476c0-1.943 1.581-3.524 3.524-3.524zm216.952 152h-216.952c-1.943 0-3.524-1.581-3.524-3.524v-76.476h224v76.476c0 1.943-1.581 3.524-3.524 3.524z"/><path d="m54 154h72v16h-72z"/><path d="m54 178h72v16h-72z"/><path d="m54 202h48v16h-48z"/></svg>