<svg id="no-cards" enable-background="new 0 0 300 300" height="512" viewBox="0 0 300 300" width="512" xmlns="http://www.w3.org/2000/svg"><path d="m254.476 46h-208.952c-10.765 0-19.524 8.759-19.524 19.524v128.951c0 10.766 8.759 19.525 19.524 19.525h208.951c10.766 0 19.524-8.759 19.524-19.524v-128.952c.001-10.765-8.758-19.524-19.523-19.524zm-212.476 48h216v24h-216zm3.524-32h208.951c1.943 0 3.524 1.581 3.524 3.524v12.476h-215.999v-12.476c0-1.943 1.581-3.524 3.524-3.524zm208.952 136h-208.952c-1.943 0-3.524-1.581-3.524-3.524v-60.476h216v60.476c0 1.943-1.581 3.524-3.524 3.524z"/><path d="m202 158c-26.467 0-48 21.532-48 48s21.533 48 48 48 48-21.532 48-48-21.533-48-48-48zm0 16c5.926 0 11.477 1.625 16.242 4.444l-43.797 43.797c-2.82-4.764-4.445-10.315-4.445-16.241 0-17.645 14.355-32 32-32zm0 64c-5.926 0-11.477-1.625-16.242-4.444l43.797-43.797c2.82 4.764 4.445 10.315 4.445 16.241 0 17.645-14.355 32-32 32z" fill="#0faa00"/></svg>