<svg id="leader" enable-background="new 0 0 300 300" height="512" viewBox="0 0 300 300" width="512" xmlns="http://www.w3.org/2000/svg"><path d="m264.343 91.657c1.531 1.531 3.577 2.343 5.659 2.343 1.03 0 2.07-.199 3.06-.609 2.989-1.238 4.938-4.155 4.938-7.391v-56c0-4.418-3.582-8-8-8h-56c-3.235 0-6.152 1.949-7.391 4.938s-.555 6.43 1.733 8.718l22.344 22.344-24.405 24.405c-15.267-12.733-34.894-20.405-56.281-20.405s-41.014 7.672-56.281 20.405l-24.405-24.405 22.343-22.343c2.288-2.288 2.972-5.729 1.733-8.718s-4.155-4.939-7.39-4.939h-56c-4.418 0-8 3.582-8 8v56c0 3.236 1.949 6.153 4.938 7.391.99.41 2.029.609 3.06.609 2.082 0 4.128-.813 5.659-2.343l22.343-22.343 24.405 24.405c-12.733 15.267-20.405 34.894-20.405 56.281s7.672 41.014 20.405 56.281l-24.405 24.405-22.343-22.343c-2.288-2.288-5.729-2.972-8.719-1.734-2.989 1.238-4.938 4.155-4.938 7.391v56c0 4.418 3.582 8 8 8h56c3.235 0 6.152-1.949 7.391-4.938s.555-6.43-1.733-8.718l-22.344-22.344 24.405-24.405c15.267 12.733 34.894 20.405 56.281 20.405s41.014-7.672 56.281-20.405l24.405 24.405-22.343 22.343c-2.288 2.288-2.972 5.729-1.733 8.718s4.155 4.939 7.39 4.939h56c4.418 0 8-3.582 8-8v-56c0-3.236-1.949-6.153-4.938-7.391-2.991-1.239-6.431-.553-8.719 1.734l-22.343 22.343-24.405-24.405c12.733-15.267 20.405-34.894 20.405-56.281s-7.672-41.014-20.405-56.281l24.405-24.405zm-226.343-53.657h28.687l-28.687 28.687zm0 224v-28.687l28.687 28.687zm224 0h-28.687l28.687-28.687zm-112-40c-39.701 0-72-32.299-72-72s32.299-72 72-72 72 32.299 72 72-32.299 72-72 72zm112-184v28.687l-28.687-28.687z"/><path d="m204.103 179.768c-4.282-14.734-15.498-26.518-29.963-32.796 4.889-5.622 7.86-12.954 7.86-20.972 0-17.645-14.355-32-32-32s-32 14.355-32 32c0 8.018 2.971 15.35 7.861 20.971-14.465 6.279-25.681 18.062-29.963 32.796-.702 2.417-.226 5.023 1.285 7.036s3.88 3.197 6.397 3.197h92.84c2.517 0 4.887-1.184 6.397-3.197s1.988-4.619 1.286-7.035zm-70.103-53.768c0-8.822 7.178-16 16-16s16 7.178 16 16-7.178 16-16 16-16-7.178-16-16zm-17.653 48c7.189-9.77 19.731-16 33.653-16s26.464 6.23 33.653 16z" fill="#0faa00"/></svg>