<svg id="invest" enable-background="new 0 0 300 300" height="512" viewBox="0 0 300 300" width="512" xmlns="http://www.w3.org/2000/svg"><path d="m166 94h-24c-4.418 0-8-3.582-8-8v-16h-8c-3.142 0-5.993-1.839-7.289-4.702-1.295-2.862-.795-6.218 1.279-8.579l28.12-32c1.52-1.729 3.709-2.719 6.01-2.719h.017c2.308.005 4.5 1.005 6.016 2.745l27.88 32c2.06 2.365 2.548 5.714 1.249 8.569s-4.146 4.686-7.282 4.686h-8v16c0 4.418-3.582 8-8 8zm-16-16h8v-16c0-3.918 2.816-7.179 6.536-7.866l-10.441-11.985-10.546 12.001c3.677.721 6.451 3.961 6.451 7.85z" fill="#0faa00"/><path d="m62.002 198c1.115 0 2.239-.233 3.296-.711 2.863-1.296 4.702-4.147 4.702-7.289v-8h16c4.418 0 8-3.582 8-8v-24c0-4.418-3.582-8-8-8h-16v-8c0-3.136-1.832-5.983-4.687-7.282-2.855-1.298-6.205-.81-8.568 1.25l-32 27.88c-1.739 1.515-2.74 3.708-2.745 6.015s.986 4.504 2.719 6.026l32 28.12c1.489 1.309 3.375 1.991 5.283 1.991zm-7.853-25.548-12.001-10.546 11.985-10.442c.688 3.719 3.949 6.536 7.867 6.536h16v8h-16c-3.889 0-7.129 2.774-7.851 6.452z"/><path d="m275.255 155.848-32-27.88c-2.363-2.059-5.713-2.547-8.568-1.25-2.855 1.299-4.687 4.146-4.687 7.282v8h-16c-4.418 0-8 3.582-8 8v24c0 4.418 3.582 8 8 8h16v8c0 3.142 1.839 5.993 4.702 7.289 1.057.478 2.18.711 3.296.711 1.908 0 3.794-.682 5.283-1.991l32-28.12c1.732-1.522 2.724-3.719 2.719-6.026s-1.006-4.5-2.745-6.015zm-29.404 16.604c-.722-3.678-3.962-6.452-7.851-6.452h-16v-8h16c3.918 0 7.179-2.817 7.866-6.536l11.985 10.442z"/><path d="m254 262h-40v-8.469c0-17.386-14.145-31.531-31.53-31.531h-8.47v-9.371c9.312-3.302 16-12.199 16-22.629v-62.922c0-13.828-11.25-25.078-25.077-25.078h-62.923c-4.418 0-8 3.582-8 8v14.922c0 10.627 6.648 19.725 16 23.37v41.708c0 10.43 6.688 19.327 16 22.629v9.371h-8.47c-17.385 0-31.53 14.145-31.53 31.531v8.469h-40c-4.418 0-8 3.582-8 8s3.582 8 8 8h48c4.418 0 8-3.582 8-8v-16.469c0-8.563 6.967-15.531 15.53-15.531h64.939c8.563 0 15.53 6.967 15.53 15.531v16.469c0 4.418 3.582 8 8 8h48c4.418 0 8-3.582 8-8s-3.581-8-7.999-8zm-144-144h54.923c5.005 0 9.077 4.072 9.077 9.078v6.922h-54.923c-5.005 0-9.077-4.072-9.077-9.078zm24 80c-4.411 0-8-3.589-8-8v-40h48v40c0 4.411-3.589 8-8 8-4.418 0-8 3.582-8 8v16h-16v-16c0-4.418-3.582-8-8-8z"/></svg>