<svg id="flip" enable-background="new 0 0 300 300" height="512" viewBox="0 0 300 300" width="512" xmlns="http://www.w3.org/2000/svg"><path d="m202.001 112.361h-16v-8h16c4.418 0 8-3.582 8-8s-3.582-8-8-8h-16v-8c0-4.418-3.582-8-8-8s-8 3.582-8 8v8h-16c-4.418 0-8 3.582-8 8v24c0 4.418 3.582 8 8 8h16v8h-16c-4.418 0-8 3.582-8 8s3.582 8 8 8h16v8c0 4.418 3.582 8 8 8s8-3.582 8-8v-8h16c4.418 0 8-3.582 8-8v-24c0-4.418-3.582-8-8-8zm-40 0v-8h8v8zm32 24h-8v-8h8z" fill="#0faa00"/><path d="m178.001 24.361c-52.935 0-96 43.065-96 96s43.065 96 96 96 96-43.065 96-96-43.066-96-96-96zm0 176c-44.112 0-80-35.888-80-80s35.888-80 80-80 80 35.888 80 80-35.888 80-80 80z"/><path d="m178.001 48.361c-39.701 0-72 32.299-72 72s32.299 72 72 72c12.341 0 24.52-3.178 35.22-9.189 3.852-2.164 5.22-7.041 3.056-10.894-2.164-3.851-7.039-5.222-10.894-3.056-8.312 4.67-17.78 7.139-27.382 7.139-30.879 0-56-25.121-56-56s25.121-56 56-56 56 25.121 56 56c0 8.074-1.679 15.86-4.99 23.145-1.828 4.022-.05 8.765 3.973 10.594 4.021 1.825 8.765.05 10.594-3.973 4.263-9.377 6.424-19.392 6.424-29.766-.001-39.701-32.3-72-72.001-72z"/><path d="m157.579 225.206c-3.953-1.975-8.758-.375-10.733 3.577-.214.427-22.395 42.545-111.53 27.687-4.352-.722-8.479 2.218-9.206 6.576s2.218 8.48 6.576 9.207c14.2 2.366 26.923 3.386 38.316 3.386 69.376 0 89.22-37.831 90.154-39.699 1.975-3.953.374-8.758-3.577-10.734z"/><path d="m40.685 240.253c7.338 1.223 14.16 1.748 20.479 1.748 37.998 0 57.552-19.041 58.494-19.982 3.124-3.125 3.144-8.209.02-11.334-3.125-3.123-8.171-3.143-11.294-.02-.884.859-22.14 20.966-65.067 13.805-4.357-.729-8.48 2.218-9.207 6.576s2.217 8.48 6.575 9.207z"/><path d="m40.06 208.122c5.338 1.335 10.293 1.907 14.873 1.907 27.203 0 41.056-20.228 41.724-21.23 2.451-3.676 1.458-8.644-2.219-11.094-3.679-2.452-8.644-1.457-11.094 2.219-.128.193-13.178 19.233-39.403 12.677-4.285-1.072-8.63 1.534-9.702 5.82s1.535 8.63 5.821 9.701z"/></svg>