<svg id="market-cap" enable-background="new 0 0 300 300" height="512" viewBox="0 0 300 300" width="512" xmlns="http://www.w3.org/2000/svg"><path d="m67.032 161.496c-3.581-2.586-8.583-1.78-11.169 1.801l-30.346 42.017c-2.587 3.582-1.78 8.583 1.802 11.169 1.416 1.023 3.054 1.515 4.677 1.515 2.481 0 4.929-1.151 6.492-3.316l30.346-42.017c2.587-3.582 1.78-8.583-1.802-11.169z" fill="#0faa00"/><path d="m275.792 71.168-9.021-38.97c-.479-2.067-1.759-3.859-3.559-4.982-1.8-1.124-3.975-1.485-6.039-1.007l-38.97 9.021c-3.152.73-5.555 3.287-6.087 6.478-.532 3.192.91 6.39 3.655 8.103l17.971 11.215c-.137.173-.272.348-.397.535l-27.562 41.343-65.343-43.563c-3.579-2.386-8.404-1.516-10.923 1.972l-55.096 76.287c-2.587 3.582-1.78 8.583 1.802 11.169 1.416 1.023 3.054 1.515 4.677 1.515 2.481 0 4.929-1.151 6.492-3.316l50.584-70.04 65.589 43.726c3.678 2.453 8.644 1.457 11.094-2.219l32-48c.216-.324.395-.66.558-1.001l16.545 10.325c1.299.811 2.769 1.213 4.235 1.213 1.633 0 3.263-.499 4.649-1.49 2.634-1.88 3.875-5.162 3.146-8.314zm-35.164-24.707 12.359-2.861 2.861 12.36z" fill="#0faa00"/><path d="m240.003 137.997h-56v-24c0-4.418-3.582-8-8-8h-48c-4.418 0-8 3.582-8 8v24h-56c-4.418 0-8 3.582-8 8v120c0 4.418 3.582 8 8 8h176c4.418 0 8-3.582 8-8v-120c0-4.418-3.582-8-8-8zm-104-16h32v16h-32zm-8 32h48 55.196c-3.717 18.235-19.88 32-39.196 32h-16v-8c0-4.418-3.582-8-8-8h-32c-4.418 0-8 3.582-8 8v8h-16c-19.316 0-35.479-13.765-39.196-32zm32 32v16h-16v-16zm-88 72v-72.862c10.172 10.394 24.342 16.862 40 16.862h16v8c0 4.418 3.582 8 8 8h32c4.418 0 8-3.582 8-8v-8h16c15.658 0 29.828-6.467 40-16.862v72.862z"/></svg>