<?xml version="1.0" encoding="UTF-8"?>
<svg xmlns="http://www.w3.org/2000/svg" xmlns:xlink="http://www.w3.org/1999/xlink" width="512" height="512" viewBox="0 0 59 58" version="1.1"><!-- Generator: Sketch 51.3 (57544) - http://www.bohemiancoding.com/sketch --><title>095 - Anxiety</title><desc>Created with Sketch.</desc><defs/><g id="Page-1" stroke="none" stroke-width="1" fill="none" fill-rule="evenodd"><g id="095---Anxiety" fill-rule="nonzero"><path d="M39.213,21.22 C37.943,20.57 36.672,22.5 36.672,22.5 L36.593,22.49 C36.7559709,19.4955491 36.7559709,16.4944509 36.593,13.5 C36,0.64 21.193,0 21.193,0 L18.813,0 C18.813,0 4,0.64 3.412,13.5 C3.24902908,16.4944509 3.24902908,19.4955491 3.412,22.49 L3.333,22.5 C3.333,22.5 2.063,20.57 0.792,21.22 C-0.467,21.85 0.153,27.64 0.153,27.64 C0.153,27.64 0.783,32.1 4.533,34.04 C4.373,37.76 4.093,41.14 8.153,45 C8.63507511,45.4551694 9.09239821,45.9358594 9.523,46.44 L9.523,55.96 C9.52298624,57.060676 10.4123377,57.9544966 11.513,57.96 L28.492,57.96 C29.5926623,57.9544966 30.4820138,57.060676 30.482,55.96 L30.482,46.44 C30.9126018,45.9358594 31.3699249,45.4551694 31.852,45 C35.912,41.14 35.633,37.76 35.472,34.04 C39.222,32.1 39.852,27.64 39.852,27.64 C39.852,27.64 40.472,21.85 39.213,21.22 Z" id="Shape" fill="#894B9D"/><path d="M4.593,32.14 C4.593,32.79 4.573,33.42 4.533,34.04 C0.783,32.1 0.153,27.64 0.153,27.64 C0.153,27.64 -0.467,21.85 0.792,21.22 C2.063,20.57 3.333,22.5 3.333,22.5 L3.412,22.49 C3.732,27.45 4.593,29.02 4.593,32.14 Z" id="Shape" fill="#894B9D"/><path d="M36.593,22.49 C36.273,27.45 35.412,29.02 35.412,32.14 C35.412,32.79 35.433,33.42 35.472,34.04 C35.633,37.76 35.912,41.14 31.852,45 C31.3699249,45.4551694 30.9126018,45.9358594 30.482,46.44 C27.063,50.41 26.6,54 22.373,54 L17.633,54 C13.403,54 12.943,50.41 9.523,46.44 C9.09239821,45.9358594 8.63507511,45.4551694 8.153,45 C4.093,41.14 4.373,37.76 4.533,34.04 C4.573,33.42 4.593,32.79 4.593,32.14 C4.593,29.02 3.732,27.45 3.412,22.49 C3.24902908,19.4955491 3.24902908,16.4944509 3.412,13.5 C4,0.64 18.813,0 18.813,0 L21.193,0 C21.193,0 36.003,0.64 36.593,13.5 C36.7559709,16.4944509 36.7559709,19.4955491 36.593,22.49 Z" id="Shape" fill="#955BA5"/><path d="M30.485,46.44 L30.485,55.96 C30.4850138,57.060676 29.5956623,57.9544966 28.495,57.96 L11.515,57.96 C10.4143377,57.9544966 9.52498624,57.060676 9.525,55.96 L9.525,46.44 C12.945,50.41 13.405,54 17.635,54 L22.375,54 C26.605,54 27.065,50.41 30.485,46.44 Z" id="Shape" fill="#894B9D"/><rect id="Rectangle-path" fill="#BDC3C7" x="30" y="31" width="28" height="6" rx="1"/><path d="M56,31 L32,31 L33.694,12.362 C33.9593681,10.382067 35.6846894,8.92720618 37.681,9 L50.319,9 C52.3153106,8.92720618 54.0406319,10.382067 54.306,12.362 L56,31 Z" id="Shape" fill="#F3D55B"/><polyline id="Shape" fill="#95A5A5" points="46 22.46 46 31 42 31 42 22.46"/><circle id="Oval" fill="#E64C3C" cx="44" cy="19" r="4"/><path d="M44,12 C43.4477153,12 43,11.5522847 43,11 L43,6 C43,5.44771525 43.4477153,5 44,5 C44.5522847,5 45,5.44771525 45,6 L45,11 C45,11.5522847 44.5522847,12 44,12 Z" id="Shape" fill="#F0C419"/><path d="M50,14 C49.5956041,13.9999137 49.2310659,13.7562725 49.076322,13.3826546 C48.9215781,13.0090366 49.0070921,12.5789943 49.293,12.293 L54.293,7.293 C54.6853789,6.91402779 55.3090848,6.91944763 55.6948186,7.30518142 C56.0805524,7.69091522 56.0859722,8.31462111 55.707,8.707 L50.707,13.707 C50.5195073,13.8945494 50.2651948,13.9999434 50,14 Z" id="Shape" fill="#F0C419"/><path d="M38,14 C37.7348052,13.9999434 37.4804927,13.8945494 37.293,13.707 L32.293,8.707 C31.9140278,8.31462111 31.9194476,7.69091522 32.3051814,7.30518142 C32.6909152,6.91944763 33.3146211,6.91402779 33.707,7.293 L38.707,12.293 C38.9929079,12.5789943 39.0784219,13.0090366 38.923678,13.3826546 C38.7689341,13.7562725 38.4043959,13.9999137 38,14 Z" id="Shape" fill="#F0C419"/><path d="M36,20 L30,20 C29.4477153,20 29,19.5522847 29,19 C29,18.4477153 29.4477153,18 30,18 L36,18 C36.5522847,18 37,18.4477153 37,19 C37,19.5522847 36.5522847,20 36,20 Z" id="Shape" fill="#F0C419"/><path d="M58,20 L52,20 C51.4477153,20 51,19.5522847 51,19 C51,18.4477153 51.4477153,18 52,18 L58,18 C58.5522847,18 59,18.4477153 59,19 C59,19.5522847 58.5522847,20 58,20 Z" id="Shape" fill="#F0C419"/></g></g></svg>
