<?xml version="1.0" encoding="UTF-8"?>
<svg xmlns="http://www.w3.org/2000/svg" xmlns:xlink="http://www.w3.org/1999/xlink" width="512" height="512" viewBox="0 0 58 58" version="1.1"><!-- Generator: Sketch 51.3 (57544) - http://www.bohemiancoding.com/sketch --><title>008 - Balance</title><desc>Created with Sketch.</desc><defs/><g id="Page-1" stroke="none" stroke-width="1" fill="none" fill-rule="evenodd"><g id="008---Balance" fill-rule="nonzero"><path d="M18.72,50.3 C22.149,51.851 23.652,58 23.652,58 L48.746,57.931 C48.2755957,56.9544122 47.7410951,56.0100165 47.146,55.104 C46.6725523,54.1351747 46.2756732,53.1307732 45.959,52.1 C45.3713088,50.1113891 44.9643241,48.073788 44.743,46.012 C44.3709743,42.844112 44.8486519,39.634284 46.127,36.712 C47.254,34.142 49.211,32.106 50.703,29.753 C52.1821574,27.4555352 52.9787015,24.7853611 53,22.053 C53.056116,19.285616 52.7166887,16.5244021 51.992,13.853 C51.0439103,10.6166836 49.0658224,7.77805373 46.358,5.768 C41.4,1.88 36.342,-0.294 29.938,0.032 C26.7328989,0.255128449 23.5484062,0.712347803 20.41,1.4 C16.992,2.088 13.373,3.366 10.92,5.956 C9.24666038,7.74409793 7.95386958,9.85338818 7.12,12.156 C6.72915176,13.3014161 6.41118297,14.470419 6.168,15.656 C5.75858569,16.9487526 5.26451756,18.2131528 4.689,19.441 C4.5196763,19.814028 4.44579184,20.2233135 4.474,20.632 C4.666,22.016 6.742,22.611 6.759,24.038 C6.73675722,24.3532587 6.63974717,24.6586861 6.476,24.929 C5.25897289,27.4999033 3.76549632,29.930575 2.022,32.178 C1.61,32.683 0.774,33.678 0.878,34.392 C0.952,34.899 1.56,35.32 1.935,35.599 C2.735,36.193 4.364,36.599 4.567,37.671 C4.67208167,38.2169291 4.60607672,38.7819874 4.378,39.289 C3.825,40.456 3.212,41.078 3.647,41.444 C4.082,41.81 5.247,42.689 5.247,42.689 C5.247,42.689 4.14,44.103 4.753,44.537 C5.513,45.077 6.481,45.326 6.739,46.337 C6.81580147,47.1381317 6.73563877,47.9465522 6.503,48.717 C6.42489413,49.4709685 6.52349984,50.2327661 6.791,50.942 C7.15504357,52.3575719 8.57041671,53.2344064 10,52.93 C12.9521039,52.2117262 15.8630511,51.3337685 18.72,50.3" id="Shape" fill="#B49ACA"/><path d="M10.1,16.467 C9.83577449,16.4099931 9.60588112,16.2484489 9.46270432,16.0191777 C9.31952752,15.7899064 9.27526406,15.5124389 9.34,15.25 C9.49723377,14.5559286 9.6942252,13.8714669 9.93,13.2 C10.6254989,11.2743503 11.7038474,9.5095325 13.1,8.012 C14.722,6.3 17.385,5.06 21.014,4.338 C21.5503166,4.24344704 22.0636884,4.59542981 22.1688144,5.12977454 C22.2739403,5.66411927 21.9321645,6.18434211 21.4,6.3 C18.186,6.939 15.881,7.978 14.548,9.386 C13.3395494,10.6858491 12.4062067,12.2164768 11.804,13.886 C11.5945574,14.4871971 11.4196061,15.0998605 11.28,15.721 C11.1540333,16.2485033 10.6305486,16.5794521 10.1,16.467 Z" id="Shape" fill="#ECF0F1"/><circle id="Oval" fill="#ECF0F1" cx="8.869" cy="20" r="1"/><path d="M58,19 C58.0025252,28.7622719 50.2192044,36.7452788 40.46,36.99 C45.3501307,36.7601899 49.1597101,32.6637972 49.0345735,27.7698692 C48.9094369,22.8759412 44.8954851,18.9795942 40,19 C35.1045149,19.0204058 31.0905631,15.1240588 30.9654265,10.2301308 C30.8402899,5.33620283 34.6498693,1.23981009 39.54,1.01 C39.69,1 39.84,1 40,1 C40.16,1 40.31,1 40.46,1.01 C50.2192044,1.25472119 58.0025252,9.23772813 58,19 Z" id="Shape" fill="#35495E"/><path d="M49,28 C49.0009389,32.7924616 45.2461979,36.745052 40.46,36.99 C40.31,37 40.16,37 40,37 C39.84,37 39.69,37 39.54,36.99 C29.8377923,36.6664583 22.1399167,28.7076008 22.1399167,19 C22.1399167,9.29239922 29.8377923,1.33354175 39.54,1.01 C34.6498693,1.23981009 30.8402899,5.33620283 30.9654265,10.2301308 C31.0905631,15.1240588 35.1045149,19.0204058 40,19 C44.9705627,19 49,23.0294373 49,28 Z" id="Shape" fill="#ECF0F1"/><circle id="Oval" fill="#ECF0F1" cx="40" cy="10" r="3"/><circle id="Oval" fill="#35495E" cx="40" cy="28" r="3"/></g></g></svg>
