<?xml version="1.0" encoding="UTF-8"?>
<svg xmlns="http://www.w3.org/2000/svg" xmlns:xlink="http://www.w3.org/1999/xlink" width="512" height="512" viewBox="0 0 40 58" version="1.1"><!-- Generator: Sketch 51.3 (57544) - http://www.bohemiancoding.com/sketch --><title>080 - Human Brain</title><desc>Created with Sketch.</desc><defs/><g id="Page-1" stroke="none" stroke-width="1" fill="none" fill-rule="evenodd"><g id="080---Human-Brain" transform="translate(-1.000000, 0.000000)" fill-rule="nonzero"><path d="M40.208,21.22 C38.937,20.57 37.667,22.5 37.667,22.5 L37.588,22.49 C37.7509709,19.4955491 37.7509709,16.4944509 37.588,13.5 C37,0.64 22.187,0 22.187,0 L19.807,0 C19.807,0 5,0.64 4.407,13.5 C4.24402908,16.4944509 4.24402908,19.4955491 4.407,22.49 L4.328,22.5 C4.328,22.5 3.057,20.57 1.787,21.22 C0.528,21.85 1.148,27.64 1.148,27.64 C1.148,27.64 1.778,32.1 5.528,34.04 C5.367,37.76 5.088,41.14 9.148,45 C9.63007511,45.4551694 10.0873982,45.9358594 10.518,46.44 L10.518,55.96 C10.5179862,57.060676 11.4073377,57.9544966 12.508,57.96 L29.487,57.96 C30.5876623,57.9544966 31.4770138,57.060676 31.477,55.96 L31.477,46.44 C31.9076018,45.9358594 32.3649249,45.4551694 32.847,45 C36.907,41.14 36.627,37.76 36.467,34.04 C40.217,32.1 40.847,27.64 40.847,27.64 C40.847,27.64 41.467,21.85 40.208,21.22 Z" id="Shape" fill="#35495E"/><path d="M5.588,32.14 C5.588,32.79 5.567,33.42 5.528,34.04 C1.778,32.1 1.148,27.64 1.148,27.64 C1.148,27.64 0.528,21.85 1.787,21.22 C3.057,20.57 4.328,22.5 4.328,22.5 L4.407,22.49 C4.727,27.45 5.588,29.02 5.588,32.14 Z" id="Shape" fill="#2C3E50"/><path d="M37.588,22.49 C37.268,27.45 36.407,29.02 36.407,32.14 C36.407,32.79 36.427,33.42 36.467,34.04 C36.627,37.76 36.907,41.14 32.847,45 C32.3646691,45.4549126 31.9073326,45.9356167 31.477,46.44 C28.057,50.41 27.6,54 23.367,54 L18.627,54 C14.398,54 13.937,50.41 10.518,46.44 C10.0873982,45.9358594 9.63007511,45.4551694 9.148,45 C5.088,41.14 5.367,37.76 5.528,34.04 C5.567,33.42 5.588,32.79 5.588,32.14 C5.588,29.02 4.727,27.45 4.407,22.49 C4.24402908,19.4955491 4.24402908,16.4944509 4.407,13.5 C5,0.64 19.807,0 19.807,0 L22.187,0 C22.187,0 36.997,0.64 37.587,13.5 C37.750304,16.4944328 37.7506378,19.495531 37.588,22.49 Z" id="Shape" fill="#35495E"/><path d="M40.847,27.64 C40.847,27.64 40.217,32.1 36.467,34.04 C36.427,33.42 36.407,32.79 36.407,32.14 C36.407,29.02 37.268,27.45 37.588,22.49 L37.667,22.5 C37.667,22.5 38.937,20.57 40.208,21.22 C41.467,21.85 40.847,27.64 40.847,27.64 Z" id="Shape" fill="#2C3E50"/><path d="M31.477,46.44 L31.477,55.96 C31.4770138,57.060676 30.5876623,57.9544966 29.487,57.96 L12.507,57.96 C11.4067287,57.9539484 10.5179834,57.060288 10.518,55.96 L10.518,46.44 C13.937,50.41 14.4,54 18.627,54 L23.367,54 C27.6,54 28.057,50.41 31.477,46.44 Z" id="Shape" fill="#2C3E50"/><path d="M14.563,26.008 C14.1277149,26.0088069 13.6930407,25.9753704 13.263,25.908 C9.69757427,25.4396608 6.85875026,22.6930275 6.273,19.145 C5.88611002,16.2661772 6.15689634,13.3371035 7.065,10.578 C7.115,10.43 7.153,10.316 7.191,10.216 C7.47007072,9.41518375 7.83909732,8.64861486 8.291,7.931 C9.135139,6.59045361 10.2650767,5.45300351 11.6,4.6 C13.9676704,3.13812048 16.6535907,2.2701452 19.429,2.07 L19.515,2.063 L19.6,2.063 L19.815,2.044 L22.08,2.044 C22.96683,2.04643313 23.8509734,2.14161763 24.718,2.328 C25.288849,2.44167907 25.8524947,2.58893486 26.406,2.769 L26.565,2.817 C27.7100742,3.18417458 28.8131871,3.67120682 29.856,4.27 C30.9699746,4.90723067 31.9617487,5.73749019 32.785,6.722 C33.3693625,7.40589323 33.8692907,8.1576322 34.274,8.961 C34.6957855,9.82431842 35.0265677,10.7291936 35.261,11.661 C35.861,14.106 36.355,17.62 35.352,20.546 C35.1758846,21.0630744 34.949817,21.5617628 34.677,22.035 C32.9393125,24.7921186 29.7819134,26.3174509 26.542,25.965 C25.6947116,25.86904 24.8667368,25.6458644 24.086,25.303 C23.4388262,25.0215961 22.8253126,24.6683813 22.257,24.25 C22.182,24.196 21.97,24.028 21.695,23.792 C21.466,23.592 21.228,23.392 20.995,23.183 C19.3090827,24.938391 16.9962736,25.9542004 14.563,26.008 Z" id="Shape" fill="#2C3E50"/><path d="M33.46,19.89 C33.326969,20.2822834 33.1561679,20.6607252 32.95,21.02 C31.2318569,23.7148711 27.8034311,24.7514707 24.88,23.46 C24.3702582,23.2384779 23.8871913,22.9600435 23.44,22.63 C23.37,22.58 23.21,22.45 23,22.27 C22.24,21.62 20.81,20.31 21,20.04 C19.32,22.54 16.7,24.42 13.57,23.93 C10.8490447,23.5903798 8.67811888,21.4968416 8.24,18.79 C7.90117126,16.2308313 8.15084316,13.6280873 8.97,11.18 C9,11.09 9.03,11 9.06,10.92 C9.29316472,10.2473062 9.60180001,9.60319775 9.98,9 C10.6681224,7.90509465 11.5902028,6.97618406 12.68,6.28 C14.7763337,4.99810996 17.1491696,4.23688227 19.6,4.06 C19.71,4.06 19.82,4.05 19.93,4.04 L22.08,4.04 C22.8263487,4.04229018 23.570406,4.12272881 24.3,4.28 C24.8588153,4.39135174 25.4099394,4.53831819 25.95,4.72 L25.96,4.72 C26.9692246,5.04287856 27.9413348,5.47194786 28.86,6 C29.7695054,6.51888584 30.578908,7.19621018 31.25,8 C31.7368183,8.56773406 32.1531756,9.19226998 32.49,9.86 C32.845004,10.5891524 33.1231686,11.3532673 33.32,12.14 C33.89,14.47 34.28,17.5 33.46,19.89 Z" id="Shape" fill="#FB7B76"/><path d="M22,4.04 L22,16 C22,16.5522847 21.5522847,17 21,17 C20.4477153,17 20,16.5522847 20,16 L20,4.04 L22,4.04 Z" id="Shape" fill="#FF5364"/><path d="M17,13 C16.4477153,13 16,12.5522847 16,12 L16,11 C16,9.34314575 17.3431458,8 19,8 L21,8 C21.5522847,8 22,8.44771525 22,9 C22,9.55228475 21.5522847,10 21,10 L19,10 C18.4477153,10 18,10.4477153 18,11 L18,12 C18,12.5522847 17.5522847,13 17,13 Z" id="Shape" fill="#FF5364"/><path d="M23,14 L21,14 C20.4477153,14 20,13.5522847 20,13 C20,12.4477153 20.4477153,12 21,12 L23,12 C23.5522847,12 24,11.5522847 24,11 C24,10.4477153 24.4477153,10 25,10 C25.5522847,10 26,10.4477153 26,11 C26,12.6568542 24.6568542,14 23,14 Z" id="Shape" fill="#FF5364"/><path d="M26,5 L26,7 C26,7.55228475 25.5522847,8 25,8 C24.4477153,8 24,7.55228475 24,7 L24,5 C24.0036353,4.73033981 24.1110851,4.47246037 24.3,4.28 C24.8588153,4.39135174 25.4099394,4.53831819 25.95,4.72 L25.96,4.72 C25.9886414,4.81049836 26.0021562,4.90510199 26,5 Z" id="Shape" fill="#FF5364"/><path d="M32.49,9.86 C32.3392335,9.95142365 32.1663201,9.9998394 31.99,10 L31,10 C30.4477153,10 30,10.4477153 30,11 C30,11.5522847 29.5522847,12 29,12 C28.4477153,12 28,11.5522847 28,11 C28.0049422,9.3451972 29.3451972,8.0049422 31,8 L31.25,8 C31.7368183,8.56773406 32.1531756,9.19226998 32.49,9.86 Z" id="Shape" fill="#FF5364"/><path d="M30,21 C28.3431458,21 27,19.6568542 27,18 C27,16.3431458 28.3431458,15 30,15 C30.5522847,15 31,15.4477153 31,16 C31,16.5522847 30.5522847,17 30,17 C29.4477153,17 29,17.4477153 29,18 C29,18.5522847 29.4477153,19 30,19 C30.5522847,19 31,19.4477153 31,20 C31,20.5522847 30.5522847,21 30,21 Z" id="Shape" fill="#FF5364"/><path d="M25,19 L25,23 C25.0019515,23.1613172 24.9605055,23.3201933 24.88,23.46 C24.3702582,23.2384779 23.8871913,22.9600435 23.44,22.63 C23.37,22.58 23.21,22.45 23,22.27 L23,19 C23,18.4477153 23.4477153,18 24,18 C24.5522847,18 25,18.4477153 25,19 Z" id="Shape" fill="#FF5364"/><path d="M15,21 L14,21 C13.4477153,21 13,20.5522847 13,20 C13,19.4477153 13.4477153,19 14,19 L15,19 C15.5522847,19 16,18.5522847 16,18 L16,16 C16,15.4477153 16.4477153,15 17,15 C17.5522847,15 18,15.4477153 18,16 L18,18 C18,19.6568542 16.6568542,21 15,21 Z" id="Shape" fill="#FF5364"/><path d="M13,17 C12.4477153,17 12,16.5522847 12,16 L12,14 C12,13.4477153 12.4477153,13 13,13 C13.5522847,13 14,13.4477153 14,14 L14,16 C14,16.5522847 13.5522847,17 13,17 Z" id="Shape" fill="#FF5364"/><path d="M14,10 C14,10.5522847 13.5522847,11 13,11 L9.44,11 C9.30932274,10.99842 9.18022231,10.971241 9.06,10.92 C9.29316472,10.2473062 9.60180001,9.60319775 9.98,9 L13,9 C13.5522847,9 14,9.44771525 14,10 Z" id="Shape" fill="#FF5364"/></g></g></svg>
