<?xml version="1.0" encoding="UTF-8"?>
<svg xmlns="http://www.w3.org/2000/svg" xmlns:xlink="http://www.w3.org/1999/xlink" width="512" height="512" viewBox="0 0 58 58" version="1.1"><!-- Generator: Sketch 51.3 (57544) - http://www.bohemiancoding.com/sketch --><title>009 - Heartbreak</title><desc>Created with Sketch.</desc><defs/><g id="Page-1" stroke="none" stroke-width="1" fill="none" fill-rule="evenodd"><g id="009---Heartbreak"><path d="M18.72,50.3 C22.149,51.851 23.652,58 23.652,58 L48.746,57.931 C48.2755957,56.9544122 47.7410951,56.0100165 47.146,55.104 C46.6725523,54.1351747 46.2756732,53.1307732 45.959,52.1 C45.3713088,50.1113891 44.9643241,48.073788 44.743,46.012 C44.3709743,42.844112 44.8486519,39.634284 46.127,36.712 C47.254,34.142 49.211,32.106 50.703,29.753 C52.1821574,27.4555352 52.9787015,24.7853611 53,22.053 C53.056116,19.285616 52.7166887,16.5244021 51.992,13.853 C51.0439103,10.6166836 49.0658224,7.77805373 46.358,5.768 C41.4,1.88 36.342,-0.294 29.938,0.032 C26.7328989,0.255128449 23.5484062,0.712347803 20.41,1.4 C16.992,2.088 13.373,3.366 10.92,5.956 C9.24666038,7.74409793 7.95386958,9.85338818 7.12,12.156 C6.72915176,13.3014161 6.41118297,14.470419 6.168,15.656 C5.75858569,16.9487526 5.26451756,18.2131528 4.689,19.441 C4.5196763,19.814028 4.44579184,20.2233135 4.474,20.632 C4.666,22.016 6.742,22.611 6.759,24.038 C6.73675722,24.3532587 6.63974717,24.6586861 6.476,24.929 C5.25897289,27.4999033 3.76549632,29.930575 2.022,32.178 C1.61,32.683 0.774,33.678 0.878,34.392 C0.952,34.899 1.56,35.32 1.935,35.599 C2.735,36.193 4.364,36.599 4.567,37.671 C4.67208167,38.2169291 4.60607672,38.7819874 4.378,39.289 C3.825,40.456 3.212,41.078 3.647,41.444 C4.082,41.81 5.247,42.689 5.247,42.689 C5.247,42.689 4.14,44.103 4.753,44.537 C5.513,45.077 6.481,45.326 6.739,46.337 C6.81580147,47.1381317 6.73563877,47.9465522 6.503,48.717 C6.42489413,49.4709685 6.52349984,50.2327661 6.791,50.942 C7.15504357,52.3575719 8.57041671,53.2344064 10,52.93 C12.9521039,52.2117262 15.8630511,51.3337685 18.72,50.3" id="Shape" fill="#F3D55B" fill-rule="nonzero"/><path d="M10.1,16.467 C9.83669632,16.4088525 9.60803419,16.2468349 9.46588349,16.0176992 C9.32373279,15.7885636 9.28014226,15.5117316 9.345,15.25 C9.50215969,14.5552533 9.69915171,13.8701218 9.935,13.198 C10.6292536,11.2734768 11.70587,9.50939072 13.1,8.012 C14.722,6.3 17.385,5.06 21.014,4.338 C21.5503166,4.24344704 22.0636884,4.59542981 22.1688144,5.12977454 C22.2739403,5.66411927 21.9321645,6.18434211 21.4,6.3 C18.186,6.939 15.881,7.978 14.548,9.386 C13.3395494,10.6858491 12.4062067,12.2164768 11.804,13.886 C11.5945574,14.4871971 11.4196061,15.0998605 11.28,15.721 C11.1540333,16.2485033 10.6305486,16.5794521 10.1,16.467 Z" id="Shape" fill="#F5EFCA" fill-rule="nonzero"/><circle id="Oval" fill="#F5EFCA" fill-rule="nonzero" cx="8.869" cy="20" r="1"/><path d="M40,5.45 C43.789,-1.129 51.368,-1.129 55.158,2.161 C58.948,5.451 58.947,12.029 55.158,18.607 C52.505,23.541 45.684,28.475 40,31.765 C34.316,28.475 27.5,23.541 24.842,18.607 C21.053,12.029 21.053,5.45 24.842,2.161 C28.631,-1.128 36.211,-1.129 40,5.45 Z" id="Shape" fill="#C03A2B"/><path d="M40,4.8 C41.2157356,2.45227755 43.4148677,0.768804991 45.9985347,0.208021051 C48.5822016,-0.352762889 51.2813665,0.267536149 53.361,1.9 C56.702,4.8 56.702,10.6 53.361,16.4 C51.023,20.751 45.01,25.1 40,28 C34.989,25.1 28.977,20.751 26.639,16.4 C23.298,10.6 23.298,4.8 26.639,1.9 C28.7186335,0.267536149 31.4177984,-0.352762889 34.0014653,0.208021051 C36.5851323,0.768804991 38.7842644,2.45227755 40,4.8 Z" id="Shape" fill="#E64C3C"/><path d="M40,24 C39.4477153,24 39,23.5522847 39,23 L39,20.3 L37.168,17.552 C37.0085951,17.3132617 36.9594755,17.017532 37.0331435,16.7400812 C37.1068115,16.4626304 37.2961617,16.2302186 37.553,16.102 L39.764,15 L37.553,13.9 C37.2135855,13.7308365 36.9990661,13.3842341 36.9990661,13.005 C36.9990661,12.6257659 37.2135855,12.2791635 37.553,12.11 L39.764,11 L37.553,9.9 C37.3133653,9.78244313 37.1306724,9.57396367 37.0455902,9.32097078 C36.960508,9.06797789 36.9800982,8.79147002 37.1,8.553 L39.1,4.553 C39.3468713,4.05870515 39.9477051,3.85812872 40.442,4.105 C40.9362949,4.35187128 41.1368713,4.95270515 40.89,5.447 L39.342,8.553 L42.447,10.105 C42.7864145,10.2741635 43.0009339,10.6207659 43.0009339,11 C43.0009339,11.3792341 42.7864145,11.7258365 42.447,11.895 L40.236,13 L42.447,14.105 C42.7864145,14.2741635 43.0009339,14.6207659 43.0009339,15 C43.0009339,15.3792341 42.7864145,15.7258365 42.447,15.895 L39.46,17.388 L40.832,19.445 C40.9412599,19.6095007 40.9996876,19.8025206 41,20 L41,23 C41,23.5522847 40.5522847,24 40,24 Z" id="Shape" fill="#C03A2B" fill-rule="nonzero"/><circle id="Oval" fill="#FB7B76" fill-rule="nonzero" cx="30" cy="6" r="4"/></g></g></svg>
