<?xml version="1.0" encoding="UTF-8"?>
<svg xmlns="http://www.w3.org/2000/svg" xmlns:xlink="http://www.w3.org/1999/xlink" width="512" height="512" viewBox="0 0 58 58" version="1.1"><!-- Generator: Sketch 51.3 (57544) - http://www.bohemiancoding.com/sketch --><title>036 - Calm</title><desc>Created with Sketch.</desc><defs/><g id="Page-1" stroke="none" stroke-width="1" fill="none" fill-rule="evenodd"><g id="036---Calm" fill-rule="nonzero"><path d="M17.851,50.3 C21.281,51.851 22.783,58 22.783,58 L47.883,57.931 C47.4121814,56.9546289 46.877696,56.01026 46.283,55.104 C45.810511,54.1362498 45.4139826,53.133227 45.097,52.104 C44.5096366,50.1153602 44.1029865,48.0777587 43.882,46.016 C43.5094179,42.8481972 43.9867593,39.6383095 45.265,36.716 C46.392,34.147 48.349,32.116 49.842,29.758 C51.3188424,27.4596935 52.1139104,24.7898183 52.135,22.058 C52.1906124,19.2905772 51.8508514,16.5293876 51.126,13.858 C50.1780466,10.6221548 48.200326,7.78389935 45.493,5.774 C40.534,1.881 35.474,-0.293 29.069,0.033 C25.8638786,0.255375513 22.6793554,0.71226503 19.541,1.4 C16.123,2.088 12.504,3.366 10.051,5.956 C8.37766038,7.74409793 7.08486958,9.85338818 6.251,12.156 C5.86015176,13.3014161 5.54218297,14.470419 5.299,15.656 C4.88925592,16.9460342 4.39519171,18.2077519 3.82,19.433 C3.65089796,19.8060777 3.57735228,20.2153904 3.606,20.624 C3.8,22.008 5.874,22.6 5.89,24.029 C5.86887774,24.3447852 5.77179136,24.650796 5.607,24.921 C4.39034374,27.4921042 2.89684314,29.922815 1.153,32.17 C0.742,32.67 -0.095,33.67 0.009,34.384 C0.083,34.891 0.691,35.312 1.066,35.591 C1.866,36.185 3.495,36.591 3.698,37.663 C3.80398936,38.2088042 3.73831308,38.7740394 3.51,39.281 C2.956,40.447 2.343,41.07 2.778,41.436 C3.213,41.802 4.378,42.681 4.378,42.681 C4.378,42.681 3.272,44.094 3.884,44.529 C4.645,45.069 5.612,45.318 5.871,46.329 C5.94680483,47.1301298 5.86666115,47.9383584 5.635,48.709 C5.5563755,49.462975 5.65499664,50.2248918 5.923,50.934 C6.28395493,52.3522509 7.70070311,53.2321447 9.132,52.927 C12.083746,52.2098159 14.9943653,51.332858 17.851,50.3" id="Shape" fill="#B0D3F0"/><path d="M43.22,14.83 L39.36,31.45 L39,33 L38.71,32.17 L37.97,29.99 L32.8,14.9 C32.96,14.38 33.14,13.88 33.34,13.39 C34.4459895,10.6760119 36.016106,8.17533083 37.98,6 C39.9570785,8.15248256 41.5441293,10.6328838 42.67,13.33 C42.87,13.81 43.06,14.31 43.22,14.83 Z" id="Shape" fill="#DF4D60"/><path d="M37.97,26.59 L37.97,29.99 L32.8,14.9 C32.96,14.38 33.14,13.88 33.34,13.39 C34.1866374,14.1782265 34.9323209,15.0683442 35.56,16.04 C37.0544023,18.5172673 37.8844798,21.3381532 37.97,24.23 C38.0100685,25.0161564 38.0100685,25.8038436 37.97,26.59 Z" id="Shape" fill="#A73A48"/><path d="M43.22,14.83 L39.36,31.45 L38.71,32.17 L37.97,33 L37.97,26.59 C37.9299418,25.8038433 37.9299418,25.0161567 37.97,24.23 C38.0516822,21.3389249 38.8783563,18.5178996 40.37,16.04 C41.0165404,15.0412224 41.7896284,14.1303231 42.67,13.33 C42.87,13.81 43.06,14.31 43.22,14.83 Z" id="Shape" fill="#A73A48"/><path d="M9.227,16.468 C8.96351193,16.4100801 8.73460382,16.2481569 8.59224806,16.0189942 C8.4498923,15.7898316 8.40616709,15.5128728 8.471,15.251 C8.62815969,14.5562533 8.82515171,13.8711218 9.061,13.199 C9.7565457,11.2744195 10.8341474,9.51039105 12.229,8.013 C13.853,6.297 16.516,5.061 20.145,4.339 C20.4954775,4.2693332 20.856499,4.39193597 21.0920709,4.66062503 C21.3276429,4.9293141 21.4019765,5.30326919 21.2870709,5.64162505 C21.1721654,5.97998091 20.8854776,6.23133322 20.535,6.301 C17.321,6.94 15.015,7.978 13.682,9.387 C12.4735494,10.6868491 11.5402067,12.2174768 10.938,13.887 C10.7285574,14.4881971 10.5536061,15.1008605 10.414,15.722 C10.2880679,16.2528234 9.7599176,16.5847527 9.227,16.468 Z" id="Shape" fill="#ECF0F1"/><circle id="Oval" fill="#ECF0F1" cx="8" cy="20.001" r="1"/><path d="M37.97,28.59 L37.97,35 L36.03,32.83 L23.3,18.59 C23.19,17.92 23.12,17.26 23.08,16.63 C22.9400601,14.5206667 23.0812985,12.4020905 23.5,10.33 C26.9053694,11.1313843 30.084944,12.6938204 32.8,14.9 C33.8674934,15.8071934 34.7972416,16.8649504 35.56,18.04 C37.0544023,20.5172673 37.8844798,23.3381532 37.97,26.23 C38.0100685,27.0161564 38.0100685,27.8038436 37.97,28.59 Z" id="Shape" fill="#FF5364"/><path d="M52.86,16.63 C52.82,17.26 52.75,17.92 52.64,18.59 L52.63,18.59 L39.93,32.81 L37.97,35 L37.97,28.59 C37.9299418,27.8038433 37.9299418,27.0161567 37.97,26.23 C38.0516822,23.3389249 38.8783563,20.5178996 40.37,18.04 C41.1550986,16.8342372 42.1156688,15.7523319 43.22,14.83 C45.9188535,12.6605029 49.0692637,11.1228841 52.44,10.33 C52.8587015,12.4020905 52.9999399,14.5206667 52.86,16.63 Z" id="Shape" fill="#FF5364"/><path d="M38.03,32.99 C38.0096962,32.9911446 37.9895775,32.9944977 37.97,33 C37.96,33 37.98,35 37.97,35 C37.73,34.99 37.01,32.96 36.03,32.83 L23.3,18.59 C23.19,17.92 23.12,17.26 23.08,16.63 C26.2488382,16.9570015 29.2644123,18.1583841 31.79,20.1 C36.53,23.99 37.72,30.63 37.97,32.49 C38.02,32.81 38.03,32.99 38.03,32.99 Z" id="Shape" fill="#DF4D60"/><path d="M52.86,16.63 C52.82,17.26 52.75,17.92 52.64,18.59 L52.63,18.59 L39.93,32.81 C38.99,32.94 38.24,34.99 37.97,35 L37.96,32.99 L37.91,32.99 C37.91,32.99 37.92,32.81 37.97,32.49 C38.0678597,31.7433565 38.2047134,31.0023439 38.38,30.27 L38.39,30.22 C39.04,27.5 40.51,23.35 43.72,20.48 L43.72,20.47 C43.86,20.34 44,20.22 44.15,20.1 C46.6143944,18.2090107 49.5446711,17.0203136 52.63,16.66 L52.86,16.63 Z" id="Shape" fill="#DF4D60"/><path d="M38.03,34.92 C38.0030891,34.920949 37.9763165,34.9242956 37.95,34.93 C37.06,35.01 29.39,35.59 24.18,31.31 C18.63,26.75 17.93,18.42 17.93,18.42 C18.6912565,18.3510563 19.4559538,18.3276813 20.22,18.35 C23.09,18.39 28.06,18.97 31.79,22.03 C37.34,26.59 38.03,34.92 38.03,34.92 Z" id="Shape" fill="#FF5364"/><path d="M38.03,34.92 C38.0030891,34.920949 37.9763165,34.9242956 37.95,34.93 C37.03,34.9 29.38,34.52 24.73,29.64 C21.4,26.13 20.47,21.19 20.22,18.35 C23.09,18.39 28.06,18.97 31.79,22.03 C37.34,26.59 38.03,34.92 38.03,34.92 Z" id="Shape" fill="#FB7B76"/><path d="M58,18.42 C58,18.42 57.31,26.75 51.76,31.31 C46.52,35.6 38.83,35.01 37.99,34.92 L37.91,34.92 C37.91,34.92 37.92,34.74 37.97,34.42 C38.0678597,33.6733565 38.2047134,32.9323439 38.38,32.2 L38.39,32.15 C39.04,29.43 40.51,25.28 43.72,22.41 L43.72,22.4 C43.86,22.27 44,22.15 44.15,22.03 C46.6143944,20.1390107 49.5446711,18.9503136 52.63,18.59 C53.6272356,18.4463128 54.6325954,18.3661512 55.64,18.35 C56.427349,18.3211009 57.215748,18.3444856 58,18.42 Z" id="Shape" fill="#FF5364"/><path d="M55.64,18.35 C55.39,21.21 54.46,26.09 51.18,29.58 C46.56,34.48 38.91,34.89 37.99,34.92 L37.91,34.92 C37.91,34.92 37.92,34.74 37.97,34.42 C38.0678597,33.6733565 38.2047134,32.9323439 38.38,32.2 L38.39,32.15 C39.04,29.43 40.51,25.28 43.72,22.41 L43.72,22.4 C43.86,22.27 44,22.15 44.15,22.03 C46.6143944,20.1390107 49.5446711,18.9503136 52.63,18.59 C53.6272356,18.4463128 54.6325954,18.3661512 55.64,18.35 Z" id="Shape" fill="#FB7B76"/></g></g></svg>
