<?xml version="1.0" encoding="UTF-8"?>
<svg xmlns="http://www.w3.org/2000/svg" xmlns:xlink="http://www.w3.org/1999/xlink" width="512" height="512" viewBox="0 0 58 59" version="1.1"><!-- Generator: Sketch 51.3 (57544) - http://www.bohemiancoding.com/sketch --><title>078 - Depression</title><desc>Created with Sketch.</desc><defs/><g id="Page-1" stroke="none" stroke-width="1" fill="none" fill-rule="evenodd"><g id="078---Depression" fill-rule="nonzero"><path d="M39.213,22.22 C37.943,21.57 36.672,23.5 36.672,23.5 L36.593,23.49 C36.7559709,20.4955491 36.7559709,17.4944509 36.593,14.5 C36,1.64 21.193,1 21.193,1 L18.813,1 C18.813,1 4,1.64 3.412,14.5 C3.24902908,17.4944509 3.24902908,20.4955491 3.412,23.49 L3.333,23.5 C3.333,23.5 2.063,21.57 0.792,22.22 C-0.467,22.85 0.153,28.64 0.153,28.64 C0.153,28.64 0.783,33.1 4.533,35.04 C4.373,38.76 4.093,42.14 8.153,46 C8.63533088,46.4549126 9.09266744,46.9356167 9.523,47.44 L9.523,56.96 C9.52298624,58.060676 10.4123377,58.9544966 11.513,58.96 L28.493,58.96 C29.5932713,58.9539484 30.4820166,58.060288 30.482,56.96 L30.482,47.44 C30.9126018,46.9358594 31.3699249,46.4551694 31.852,46 C35.912,42.14 35.633,38.76 35.472,35.04 C39.222,33.1 39.852,28.64 39.852,28.64 C39.852,28.64 40.472,22.85 39.213,22.22 Z" id="Shape" fill="#35495E"/><path d="M4.593,33.14 C4.593,33.79 4.573,34.42 4.533,35.04 C0.783,33.1 0.153,28.64 0.153,28.64 C0.153,28.64 -0.467,22.85 0.792,22.22 C2.063,21.57 3.333,23.5 3.333,23.5 L3.412,23.49 C3.732,28.45 4.593,30.02 4.593,33.14 Z" id="Shape" fill="#2C3E50"/><path d="M36.593,23.49 C36.273,28.45 35.412,30.02 35.412,33.14 C35.412,33.79 35.433,34.42 35.472,35.04 C35.633,38.76 35.912,42.14 31.852,46 C31.3699249,46.4551694 30.9126018,46.9358594 30.482,47.44 C27.063,51.41 26.6,55 22.373,55 L17.633,55 C13.403,55 12.943,51.41 9.523,47.44 C9.09239821,46.9358594 8.63507511,46.4551694 8.153,46 C4.093,42.14 4.373,38.76 4.533,35.04 C4.573,34.42 4.593,33.79 4.593,33.14 C4.593,30.02 3.732,28.45 3.412,23.49 C3.24902908,20.4955491 3.24902908,17.4944509 3.412,14.5 C4,1.64 18.813,1 18.813,1 L21.193,1 C21.193,1 36.003,1.64 36.593,14.5 C36.7559709,17.4944509 36.7559709,20.4955491 36.593,23.49 Z" id="Shape" fill="#35495E"/><path d="M39.852,28.64 C39.852,28.64 39.222,33.1 35.472,35.04 C35.433,34.42 35.412,33.79 35.412,33.14 C35.412,30.02 36.273,28.45 36.593,23.49 L36.672,23.5 C36.672,23.5 37.943,21.57 39.213,22.22 C40.472,22.85 39.852,28.64 39.852,28.64 Z" id="Shape" fill="#2C3E50"/><path d="M30.482,47.44 L30.482,56.96 C30.4820138,58.060676 29.5926623,58.9544966 28.492,58.96 L11.513,58.96 C10.4123377,58.9544966 9.52298624,58.060676 9.523,56.96 L9.523,47.44 C12.943,51.41 13.403,55 17.633,55 L22.373,55 C26.6,55 27.063,51.41 30.482,47.44 Z" id="Shape" fill="#2C3E50"/><path d="M48.5,28 L51.5,28 C54.9007633,27.9889421 57.718143,25.3583658 57.9621165,21.9663471 C58.20609,18.5743285 55.7941755,15.5676312 52.43,15.07 C54.3684699,12.2547104 54.5448307,8.58431036 52.8852143,5.59613461 C51.2255979,2.60795887 48.0164893,0.817829916 44.6020129,0.975537276 C41.1875364,1.13324464 38.1571032,3.21156467 36.78,6.34 C34.3514513,4.36477891 30.8119905,4.59059499 28.6541467,6.85842595 C26.4963029,9.12625691 26.4465829,12.6725654 28.54,15 L28.5,15 C24.9101491,15 22,17.9101491 22,21.5 C22,25.0898509 24.9101491,28 28.5,28 L48.5,28 Z" id="Shape" fill="#95A5A5"/><path d="M58,21.5 C58.0034603,23.2249657 57.3197521,24.8802774 56.1000147,26.1000147 C54.8802774,27.3197521 53.2249657,28.0034603 51.5,28 L28.5,28 C26.6000474,28.0047171 24.7936269,27.1758759 23.5581015,25.7325051 C22.3225761,24.2891343 21.7822832,22.3764879 22.08,20.5 C22.5699778,23.6661669 25.2961448,26.0016682 28.5,26 L51.5,26 C54.7063637,26.0084684 57.436357,23.6696891 57.92,20.5 C57.9718679,20.8308364 57.998611,21.1651253 58,21.5 Z" id="Shape" fill="#7F8C8D"/><path d="M47,17 C46.4477153,17 46,16.5522847 46,16 C46,13.790861 44.209139,12 42,12 C41.4477153,12 41,11.5522847 41,11 C41,10.4477153 41.4477153,10 42,10 C45.3123376,10.0033074 47.9966926,12.6876624 48,16 C48,16.5522847 47.5522847,17 47,17 Z" id="Shape" fill="#7F8C8D"/><path d="M33,21 C32.4477153,21 32,20.5522847 32,20 C32,17.790861 33.790861,16 36,16 C36.5522847,16 37,16.4477153 37,17 C37,17.5522847 36.5522847,18 36,18 C34.8954305,18 34,18.8954305 34,20 C34,20.5522847 33.5522847,21 33,21 Z" id="Shape" fill="#7F8C8D"/><path d="M52.29,33.71 L43,43 L43.2,41.37 L43.86,36.12 C43.8942778,35.8364249 43.8056531,35.5517268 43.6164785,35.337711 C43.4273038,35.1236952 43.1556382,35.0007922 42.87,35 L39.43,35 C39.1041901,34.9998614 38.7988747,34.8410089 38.6117679,34.5742822 C38.4246611,34.3075555 38.3792246,33.9663999 38.49,33.66 L41.76,24.66 C41.9011572,24.2625332 42.2782177,23.9977886 42.7,24 L48.56,24 C48.8876745,23.9993611 49.194613,24.1602538 49.3805048,24.4300967 C49.5663966,24.6999396 49.6073571,25.0440616 49.49,25.35 L47.51,30.65 C47.3926429,30.9559384 47.4336034,31.3000604 47.6194952,31.5699033 C47.805387,31.8397462 48.1123255,32.0006389 48.44,32 L51.59,32 C51.9944441,32.0016958 52.3580455,32.2468472 52.5112679,32.6211476 C52.6644903,32.995448 52.5771614,33.4251909 52.29,33.71 Z" id="Shape" fill="#F29C1F"/><path d="M50.87,33.71 L43.2,41.37 L43.86,36.12 C43.8942778,35.8364249 43.8056531,35.5517268 43.6164785,35.337711 C43.4273038,35.1236952 43.1556382,35.0007922 42.87,35 L39.43,35 C39.1041901,34.9998614 38.7988747,34.8410089 38.6117679,34.5742822 C38.4246611,34.3075555 38.3792246,33.9663999 38.49,33.66 L41.76,24.66 C41.9011572,24.2625332 42.2782177,23.9977886 42.7,24 L47.13,24 C47.4583415,23.9989321 47.7662875,24.1591168 47.9539096,24.4285741 C48.1415317,24.6980314 48.1849219,25.0424252 48.07,25.35 L46.08,30.65 C45.9650781,30.9575748 46.0084683,31.3019686 46.1960904,31.5714259 C46.3837125,31.8408832 46.6916585,32.0010679 47.02,32 L50.16,32 C50.5662651,31.9976374 50.93358,32.2413038 51.089371,32.6165185 C51.2451619,32.9917332 51.1584599,33.4239095 50.87,33.71 Z" id="Shape" fill="#F0C419"/><path d="M56,44 C56,45.6568542 54.6568542,47 53,47 C51.3431458,47 50,45.6568542 50,44 C50,42.343 53,39 53,39 C53,39 56,42.343 56,44 Z" id="Shape" fill="#2FA8CC"/><path d="M55.25,42.75 C55.25,43.9926407 54.2426407,45 53,45 C51.7573593,45 50.75,43.9926407 50.75,42.75 C50.75,41.507 53,39 53,39 C53,39 55.25,41.507 55.25,42.75 Z" id="Shape" fill="#67B9CC"/><path d="M44,54 C44,55.6568542 42.6568542,57 41,57 C39.3431458,57 38,55.6568542 38,54 C38,52.343 41,49 41,49 C41,49 44,52.343 44,54 Z" id="Shape" fill="#2FA8CC"/><path d="M43.25,52.75 C43.25,53.9926407 42.2426407,55 41,55 C39.7573593,55 38.75,53.9926407 38.75,52.75 C38.75,51.507 41,49 41,49 C41,49 43.25,51.507 43.25,52.75 Z" id="Shape" fill="#67B9CC"/><path d="M31,37 C31,38.6568542 29.6568542,40 28,40 C26.3431458,40 25,38.6568542 25,37 C25,35.343 28,32 28,32 C28,32 31,35.343 31,37 Z" id="Shape" fill="#2FA8CC"/><path d="M30.25,35.75 C30.25,36.9926407 29.2426407,38 28,38 C26.7573593,38 25.75,36.9926407 25.75,35.75 C25.75,34.507 28,32 28,32 C28,32 30.25,34.507 30.25,35.75 Z" id="Shape" fill="#67B9CC"/><circle id="Oval" fill="#9FC9D3" cx="28" cy="37" r="1"/><circle id="Oval" fill="#9FC9D3" cx="41" cy="54" r="1"/><circle id="Oval" fill="#9FC9D3" cx="53" cy="44" r="1"/></g></g></svg>
