<?xml version="1.0" encoding="UTF-8"?>
<svg xmlns="http://www.w3.org/2000/svg" xmlns:xlink="http://www.w3.org/1999/xlink" width="512" height="512" viewBox="0 0 49 58" version="1.1"><!-- Generator: Sketch 51.3 (57544) - http://www.bohemiancoding.com/sketch --><title>055 - Dreaming</title><desc>Created with Sketch.</desc><defs/><g id="Page-1" stroke="none" stroke-width="1" fill="none" fill-rule="evenodd"><g id="055---Dreaming" transform="translate(-1.000000, 0.000000)" fill-rule="nonzero"><path d="M40.208,21.26 C38.937,20.61 37.667,22.54 37.667,22.54 L37.588,22.53 C37.7509709,19.5355491 37.7509709,16.5344509 37.588,13.54 C37,0.68 22.187,0.04 22.187,0.04 L19.807,0.04 C19.807,0.04 4.997,0.68 4.407,13.54 C4.24402908,16.5344509 4.24402908,19.5355491 4.407,22.53 L4.328,22.54 C4.328,22.54 3.057,20.61 1.787,21.26 C0.528,21.89 1.148,27.68 1.148,27.68 C1.148,27.68 1.778,32.14 5.528,34.08 C5.367,37.8 5.088,41.18 9.148,45.04 C9.63007511,45.4951694 10.0873982,45.9758594 10.518,46.48 L10.518,56 C10.5179862,57.100676 11.4073377,57.9944966 12.508,58 L29.487,58 C30.5876623,57.9944966 31.4770138,57.100676 31.477,56 L31.477,46.48 C31.9076018,45.9758594 32.3649249,45.4951694 32.847,45.04 C36.907,41.18 36.628,37.8 36.467,34.08 C40.217,32.14 40.847,27.68 40.847,27.68 C40.847,27.68 41.467,21.89 40.208,21.26 Z" id="Shape" fill="#4482C3"/><path d="M5.588,32.18 C5.588,32.83 5.567,33.46 5.528,34.08 C1.778,32.14 1.148,27.68 1.148,27.68 C1.148,27.68 0.528,21.89 1.787,21.26 C3.057,20.61 4.328,22.54 4.328,22.54 L4.407,22.53 C4.727,27.49 5.588,29.06 5.588,32.18 Z" id="Shape" fill="#4482C3"/><path d="M37.588,22.53 C37.268,27.49 36.407,29.06 36.407,32.18 C36.407,32.83 36.427,33.46 36.467,34.08 C36.627,37.8 36.907,41.18 32.847,45.04 C32.3649249,45.4951694 31.9076018,45.9758594 31.477,46.48 C28.057,50.45 27.597,54.04 23.367,54.04 L18.627,54.04 C14.398,54.04 13.937,50.45 10.518,46.48 C10.0873982,45.9758594 9.63007511,45.4951694 9.148,45.04 C5.088,41.18 5.367,37.8 5.528,34.08 C5.567,33.46 5.588,32.83 5.588,32.18 C5.588,29.06 4.727,27.49 4.407,22.53 C4.24402908,19.5355491 4.24402908,16.5344509 4.407,13.54 C4.997,0.68 19.807,0.04 19.807,0.04 L22.187,0.04 C22.187,0.04 36.997,0.68 37.587,13.54 C37.750304,16.5344328 37.7506378,19.535531 37.588,22.53 Z" id="Shape" fill="#2FA8CC"/><path d="M40.847,27.68 C40.847,27.68 40.217,32.14 36.467,34.08 C36.427,33.46 36.407,32.83 36.407,32.18 C36.407,29.06 37.268,27.49 37.588,22.53 L37.667,22.54 C37.667,22.54 38.937,20.61 40.208,21.26 C41.467,21.89 40.847,27.68 40.847,27.68 Z" id="Shape" fill="#4482C3"/><path d="M31.477,46.48 L31.477,56 C31.4770138,57.100676 30.5876623,57.9944966 29.487,58 L12.508,58 C11.4073377,57.9944966 10.5179862,57.100676 10.518,56 L10.518,46.48 C13.937,50.45 14.398,54.04 18.627,54.04 L23.367,54.04 C27.6,54.04 28.057,50.45 31.477,46.48 Z" id="Shape" fill="#4482C3"/><path d="M50,18 C49.9950437,21.3116533 47.3116533,23.9950437 44,24 L28,24 C24.6862915,24 22,21.3137085 22,18 C21.9992795,17.6646124 22.0294064,17.3298693 22.09,17 C22.2861936,15.7693104 22.8714565,14.6338302 23.76,13.76 C24.4490859,13.0615714 25.3014709,12.5460159 26.24,12.26 C26.0784903,11.6873598 25.9977108,11.0949765 26,10.5 C25.9983443,10.4464716 26.0016922,10.3929056 26.01,10.34 C26.01,10.23 26.01,10.12 26.02,10 L26.14,9.81 L29.16,4.92 C30.1703512,4.31857664 31.3241943,4.00075161 32.5,4 C32.66,4 32.82,4.01 32.97,4.02 C35.2496585,4.17686394 37.2766407,5.52691781 38.3,7.57 C39.4854155,6.90982972 40.9049864,6.81817313 42.1654551,7.32042144 C43.4259239,7.82266975 44.3934485,8.8654921 44.8,10.16 C44.932083,10.5944274 44.9994725,11.0459374 45,11.5 C45.0019622,11.6940851 44.9885873,11.8880218 44.96,12.08 C47.4906525,12.4888601 49.480621,14.462748 49.91,16.99 C49.9701469,17.3232973 50.0002677,17.6613192 50,18 Z" id="Shape" fill="#E6E7E8"/><path d="M49.91,16.99 C49.7139451,18.2236334 49.1288236,19.3623431 48.24,20.24 C47.1193899,21.3708021 45.5919979,22.0048139 44,22 L28,22 C25.0729672,22.0011619 22.5737665,19.8867789 22.09,17 C22.2861936,15.7693104 22.8714565,14.6338302 23.76,13.76 C24.4490859,13.0615714 25.3014709,12.5460159 26.24,12.26 C26.0784903,11.6873598 25.9977108,11.0949765 26,10.5 C25.9983443,10.4464716 26.0016922,10.3929056 26.01,10.34 C26.0844576,10.307362 26.16136,10.2806134 26.24,10.26 C26.1971716,10.1122688 26.163771,9.96196616 26.14,9.81 L29.16,4.92 C30.1703512,4.31857664 31.3241943,4.00075161 32.5,4 C32.66,4 32.82,4.01 32.97,4.02 C35.2496585,4.17686394 37.2766407,5.52691781 38.3,7.57 C39.4854155,6.90982972 40.9049864,6.81817313 42.1654551,7.32042144 C43.4259239,7.82266975 44.3934485,8.8654921 44.8,10.16 C44.932083,10.5944274 44.9994725,11.0459374 45,11.5 C45.0019622,11.6940851 44.9885873,11.8880218 44.96,12.08 C47.4906525,12.4888601 49.480621,14.462748 49.91,16.99 Z" id="Shape" fill="#ECF0F1"/><path d="M30,7 C29.9950578,8.6548028 28.6548028,9.9950578 27,10 L19,10 C18.2044649,10.0000702 17.4416324,9.68342275 16.88,9.12 C16.3126865,8.56098207 15.9953313,7.79644449 16,7 C15.9968904,5.52754811 17.0659156,4.27186779 18.52,4.04 C18.5080164,3.94377361 18.5013397,3.84696045 18.5,3.75 C18.5016526,2.5080445 19.5080445,1.50165264 20.75,1.5 C21.1358828,1.49751258 21.5154985,1.59759308 21.85,1.79 C22.4334972,0.629550591 23.6520778,-0.0718608886 24.9486035,0.00645274318 C26.2451292,0.0847663749 27.3704239,0.927754217 27.81,2.15 C27.9353398,2.50321663 27.9995922,2.87520421 28,3.25 C28.0008014,3.5474655 27.9604181,3.84360989 27.88,4.13 C28.3498064,4.27179209 28.7762823,4.52974127 29.12,4.88 C29.4319911,5.19217151 29.674013,5.56713497 29.83,5.98 C29.9430443,6.30816794 30.000501,6.65290784 30,7 Z" id="Shape" fill="#95A5A5"/><path d="M29.83,5.98 C29.4107753,7.18555897 28.2763618,7.99528167 27,8 L19,8 C18.2044649,8.00007021 17.4416324,7.68342275 16.88,7.12 C16.5588263,6.80747109 16.3156181,6.42381864 16.17,6 C16.5387568,4.96802498 17.4385936,4.21752276 18.52,4.04 C18.5080164,3.94377361 18.5013397,3.84696045 18.5,3.75 C18.5016526,2.5080445 19.5080445,1.50165264 20.75,1.5 C21.1358828,1.49751258 21.5154985,1.59759308 21.85,1.79 C22.4334972,0.629550591 23.6520778,-0.0718608886 24.9486035,0.00645274318 C26.2451292,0.0847663749 27.3704239,0.927754217 27.81,2.15 C27.9353398,2.50321663 27.9995922,2.87520421 28,3.25 C28.0008014,3.5474655 27.9604181,3.84360989 27.88,4.13 C28.3498064,4.27179209 28.7762823,4.52974127 29.12,4.88 C29.4319911,5.19217151 29.674013,5.56713497 29.83,5.98 Z" id="Shape" fill="#BDC3C7"/></g></g></svg>
