<?xml version="1.0" encoding="UTF-8"?>
<svg xmlns="http://www.w3.org/2000/svg" xmlns:xlink="http://www.w3.org/1999/xlink" width="512" height="512" viewBox="0 0 58 58" version="1.1"><!-- Generator: Sketch 51.3 (57544) - http://www.bohemiancoding.com/sketch --><title>034 - Empathy</title><desc>Created with Sketch.</desc><defs/><g id="Page-1" stroke="none" stroke-width="1" fill="none" fill-rule="evenodd"><g id="034---Empathy"><path d="M17.851,50.3 C21.281,51.851 22.783,58 22.783,58 L47.883,57.931 C47.4121814,56.9546289 46.877696,56.01026 46.283,55.104 C45.810511,54.1362498 45.4139826,53.133227 45.097,52.104 C44.5096366,50.1153602 44.1029865,48.0777587 43.882,46.016 C43.5094179,42.8481972 43.9867593,39.6383095 45.265,36.716 C46.392,34.147 48.349,32.116 49.842,29.758 C51.3188424,27.4596935 52.1139104,24.7898183 52.135,22.058 C52.1906124,19.2905772 51.8508514,16.5293876 51.126,13.858 C50.1780466,10.6221548 48.200326,7.78389935 45.493,5.774 C40.534,1.881 35.474,-0.293 29.069,0.033 C25.8638786,0.255375513 22.6793554,0.71226503 19.541,1.4 C16.123,2.088 12.504,3.366 10.051,5.956 C8.37766038,7.74409793 7.08486958,9.85338818 6.251,12.156 C5.86015176,13.3014161 5.54218297,14.470419 5.299,15.656 C4.88925592,16.9460342 4.39519171,18.2077519 3.82,19.433 C3.65089796,19.8060777 3.57735228,20.2153904 3.606,20.624 C3.8,22.008 5.874,22.6 5.89,24.029 C5.86887774,24.3447852 5.77179136,24.650796 5.607,24.921 C4.39034374,27.4921042 2.89684314,29.922815 1.153,32.17 C0.742,32.67 -0.095,33.67 0.009,34.384 C0.083,34.891 0.691,35.312 1.066,35.591 C1.866,36.185 3.495,36.591 3.698,37.663 C3.80398936,38.2088042 3.73831308,38.7740394 3.51,39.281 C2.956,40.447 2.343,41.07 2.778,41.436 C3.213,41.802 4.378,42.681 4.378,42.681 C4.378,42.681 3.272,44.094 3.884,44.529 C4.645,45.069 5.612,45.318 5.871,46.329 C5.94680483,47.1301298 5.86666115,47.9383584 5.635,48.709 C5.5563755,49.462975 5.65499664,50.2248918 5.923,50.934 C6.28395493,52.3522509 7.70070311,53.2321447 9.132,52.927 C12.083746,52.2098159 14.9943653,51.332858 17.851,50.3" id="Shape" fill="#CC66A1" fill-rule="nonzero"/><path d="M9.227,16.468 C8.96351193,16.4100801 8.73460382,16.2481569 8.59224806,16.0189942 C8.4498923,15.7898316 8.40616709,15.5128728 8.471,15.251 C8.62815969,14.5562533 8.82515171,13.8711218 9.061,13.199 C9.7565457,11.2744195 10.8341474,9.51039105 12.229,8.013 C13.853,6.297 16.516,5.061 20.145,4.339 C20.4954775,4.2693332 20.856499,4.39193597 21.0920709,4.66062503 C21.3276429,4.9293141 21.4019765,5.30326919 21.2870709,5.64162505 C21.1721654,5.97998091 20.8854776,6.23133322 20.535,6.301 C17.321,6.94 15.015,7.978 13.682,9.387 C12.4735494,10.6868491 11.5402067,12.2174768 10.938,13.887 C10.7285574,14.4881971 10.5536061,15.1008605 10.414,15.722 C10.2880679,16.2528234 9.7599176,16.5847527 9.227,16.468 Z" id="Shape" fill="#ECF0F1" fill-rule="nonzero"/><circle id="Oval" fill="#ECF0F1" fill-rule="nonzero" cx="8" cy="20.001" r="1"/><path d="M20.92,23.42 L20.68,23.17" id="Shape" fill="#FDD7AD" fill-rule="nonzero"/><path d="M55.27,22.96 L55.03,23.21 L49.05,29.25 L49.03,29.25 C48.9741107,30.0529638 48.4523989,30.7484615 47.6971573,31.026822 C46.9419156,31.3051825 46.0936298,31.1146268 45.53,30.54 L45.52,30.54 C46.3302114,31.3564412 46.3302114,32.6735588 45.52,33.49 C45.1359563,33.8831419 44.6095909,34.1047879 44.06,34.1047879 C43.5104091,34.1047879 42.9840437,33.8831419 42.6,33.49 C43.4102114,34.3064412 43.4102114,35.6235588 42.6,36.44 C42.2136686,36.8288789 41.6881594,37.0475642 41.14,37.0475642 C40.5918406,37.0475642 40.0663314,36.8288789 39.68,36.44 C40.4902114,37.2564412 40.4902114,38.5735588 39.68,39.39 C39.2936686,39.7788789 38.7681594,39.9975642 38.22,39.9975642 C37.6718406,39.9975642 37.1463314,39.7788789 36.76,39.39 L20.92,23.42 L20.93,23.41 C20.8424656,23.3342419 20.7621237,23.2505523 20.69,23.16 C17.0174663,19.1784359 17.1231536,13.0133462 20.93,9.16 C22.7927267,7.26939192 25.3359183,6.20488391 27.99,6.20488391 C30.6440817,6.20488391 33.1872733,7.26939192 35.05,9.16 L36.5,10.55 L37.94,11.94 L38.3,11.58 L41.15,8.71 C45.0740256,5.00713304 51.2363349,5.11368593 55.03,8.95 C58.8371089,12.8071574 58.9427629,18.9747078 55.27,22.96 Z" id="Shape" fill="#FDD7AD"/><path d="M40.9,8.95 L41.03,8.82 C41.0724438,8.78609187 41.112536,8.74934066 41.15,8.71" id="Shape"/><path d="M39.679,37.438 C39.4114069,37.4371577 39.1553148,37.3291019 38.968,37.138 L26.791,24.853 C26.4021915,24.4606017 26.4051017,23.8273085 26.7975,23.4385 C27.1898983,23.0496915 27.8231915,23.0526017 28.212,23.445 L40.389,35.735 C40.6703286,36.0220058 40.752505,36.4495455 40.597621,36.8203946 C40.4427369,37.1912437 40.0808897,37.4333384 39.679,37.435 L39.679,37.438 Z" id="Shape" fill="#F09372" fill-rule="nonzero"/><path d="M42.6,34.486 C42.3324069,34.4851577 42.0763148,34.3771019 41.889,34.186 L31.549,23.755 C31.2905941,23.5025755 31.188413,23.1304095 31.2816976,22.7814257 C31.3749822,22.4324418 31.6492296,22.1608964 31.9991199,22.0710716 C32.3490102,21.9812468 32.7201463,22.0871076 32.97,22.348 L43.309,32.783 C43.5903286,33.0700058 43.672505,33.4975455 43.517621,33.8683946 C43.3627369,34.2392437 43.0008897,34.4813384 42.599,34.483 L42.6,34.486 Z" id="Shape" fill="#F09372" fill-rule="nonzero"/><path d="M45.526,31.539 C45.2587541,31.5378906 45.0030714,31.4298556 44.816,31.239 L34.731,21.064 C34.3534974,20.669819 34.3617854,20.0457554 34.7496231,19.6617388 C35.1374608,19.2777221 35.7615759,19.2756132 36.152,19.657 L46.237,29.835 C46.5184534,30.1221359 46.6005636,30.5499153 46.4454243,30.920853 C46.290285,31.2917908 45.9280714,31.5337383 45.526,31.535 L45.526,31.539 Z" id="Shape" fill="#F09372" fill-rule="nonzero"/><path d="M48.447,28.591 C48.1797541,28.5898906 47.9240714,28.4818556 47.737,28.291 L37.652,18.118 C37.2629154,17.7256017 37.2656017,17.0920846 37.658,16.703 C38.0503983,16.3139154 38.6839154,16.3166017 39.073,16.709 L49.158,26.887 C49.4394534,27.1741359 49.5215636,27.6019153 49.3664243,27.972853 C49.211285,28.3437908 48.8490714,28.5857383 48.447,28.587 L48.447,28.591 Z" id="Shape" fill="#F09372" fill-rule="nonzero"/><path d="M49.8,15.69 C48.465356,17.2222115 46.5216607,18.0860761 44.49,18.05 C42.7403518,17.8879252 41.097465,17.136992 39.83,15.92 L33.24,22.58 C32.0383044,23.7800689 30.0916956,23.7800689 28.89,22.58 C27.7001831,21.3701869 27.7001831,19.4298131 28.89,18.22 L36.5,10.55 L37.94,11.94 L30.31,19.63 C29.8907428,20.0577279 29.8907428,20.7422721 30.31,21.17 C30.5089794,21.3687318 30.7787758,21.4802477 31.06,21.48 C31.3441949,21.4803868 31.6171537,21.3690483 31.82,21.17 L39.12,13.79 C39.3224239,13.5925417 39.5974916,13.4875816 39.88,13.5 C40.165445,13.5117529 40.43176,13.6467345 40.61,13.87 C41.6260092,15.0634107 43.0468479,15.8397086 44.6,16.05 C46.0543629,16.033745 47.4314341,15.392569 48.38,14.29 C48.6224029,14.0030365 49.0051781,13.8761253 49.3710073,13.9614261 C49.7368365,14.046727 50.0240036,14.3298495 50.1144847,14.694432 C50.2049658,15.0590146 50.0834965,15.4435513 49.8,15.69 Z" id="Shape" fill="#F09372" fill-rule="nonzero"/></g></g></svg>
