<?xml version="1.0" encoding="UTF-8"?>
<svg xmlns="http://www.w3.org/2000/svg" xmlns:xlink="http://www.w3.org/1999/xlink" width="512" height="512" viewBox="0 0 56 58" version="1.1"><!-- Generator: Sketch 51.3 (57544) - http://www.bohemiancoding.com/sketch --><title>072 - Exhausted</title><desc>Created with Sketch.</desc><defs/><g id="Page-1" stroke="none" stroke-width="1" fill="none" fill-rule="evenodd"><g id="072---Exhausted" transform="translate(-1.000000, 0.000000)" fill-rule="nonzero"><path d="M40.208,21.22 C38.937,20.57 37.667,22.5 37.667,22.5 L37.588,22.49 C37.7509709,19.4955491 37.7509709,16.4944509 37.588,13.5 C37,0.64 22.187,0 22.187,0 L19.807,0 C19.807,0 5,0.64 4.407,13.5 C4.24402908,16.4944509 4.24402908,19.4955491 4.407,22.49 L4.328,22.5 C4.328,22.5 3.057,20.57 1.787,21.22 C0.528,21.85 1.148,27.64 1.148,27.64 C1.148,27.64 1.778,32.1 5.528,34.04 C5.367,37.76 5.088,41.14 9.148,45 C9.63007511,45.4551694 10.0873982,45.9358594 10.518,46.44 L10.518,55.96 C10.5179862,57.060676 11.4073377,57.9544966 12.508,57.96 L29.487,57.96 C30.5876623,57.9544966 31.4770138,57.060676 31.477,55.96 L31.477,46.44 C31.9076018,45.9358594 32.3649249,45.4551694 32.847,45 C36.907,41.14 36.627,37.76 36.467,34.04 C40.217,32.1 40.847,27.64 40.847,27.64 C40.847,27.64 41.467,21.85 40.208,21.22 Z" id="Shape" fill="#955BA5"/><path d="M5.588,32.14 C5.588,32.79 5.567,33.42 5.528,34.04 C1.778,32.1 1.148,27.64 1.148,27.64 C1.148,27.64 0.528,21.85 1.787,21.22 C3.057,20.57 4.328,22.5 4.328,22.5 L4.407,22.49 C4.727,27.45 5.588,29.02 5.588,32.14 Z" id="Shape" fill="#894B9D"/><path d="M37.588,22.49 C37.268,27.45 36.407,29.02 36.407,32.14 C36.407,32.79 36.427,33.42 36.467,34.04 C36.627,37.76 36.907,41.14 32.847,45 C32.3646691,45.4549126 31.9073326,45.9356167 31.477,46.44 C28.057,50.41 27.6,54 23.367,54 L18.627,54 C14.398,54 13.937,50.41 10.518,46.44 C10.0873982,45.9358594 9.63007511,45.4551694 9.148,45 C5.088,41.14 5.367,37.76 5.528,34.04 C5.567,33.42 5.588,32.79 5.588,32.14 C5.588,29.02 4.727,27.45 4.407,22.49 C4.24402908,19.4955491 4.24402908,16.4944509 4.407,13.5 C5,0.64 19.807,0 19.807,0 L22.187,0 C22.187,0 36.997,0.64 37.587,13.5 C37.750304,16.4944328 37.7506378,19.495531 37.588,22.49 Z" id="Shape" fill="#955BA5"/><path d="M40.847,27.64 C40.847,27.64 40.217,32.1 36.467,34.04 C36.427,33.42 36.407,32.79 36.407,32.14 C36.407,29.02 37.268,27.45 37.588,22.49 L37.667,22.5 C37.667,22.5 38.937,20.57 40.208,21.22 C41.467,21.85 40.847,27.64 40.847,27.64 Z" id="Shape" fill="#894B9D"/><path d="M31.477,46.44 L31.477,55.96 C31.4770138,57.060676 30.5876623,57.9544966 29.487,57.96 L12.507,57.96 C11.4067287,57.9539484 10.5179834,57.060288 10.518,55.96 L10.518,46.44 C13.937,50.41 14.4,54 18.627,54 L23.367,54 C27.6,54 28.057,50.41 31.477,46.44 Z" id="Shape" fill="#894B9D"/><rect id="Rectangle-path" fill="#35495E" x="25" y="8" width="32" height="18" rx="2"/><rect id="Rectangle-path" fill="#B0D3F0" x="29" y="12" width="24" height="10" rx="1"/><path d="M23,13 L25,13 L25,21 L23,21 C21.8954305,21 21,20.1045695 21,19 L21,15 C21,13.8954305 21.8954305,13 23,13 Z" id="Shape" fill="#3F5C6C"/><path d="M30,12 L35,12 L35,22 L30,22 C29.4477153,22 29,21.5522847 29,21 L29,13 C29,12.4477153 29.4477153,12 30,12 Z" id="Shape" fill="#E64C3C"/><path d="M42,20 L42,22 L40,22 L40,20 C40,19.4477153 40.4477153,19 41,19 C41.5522847,19 42,19.4477153 42,20 Z" id="Shape" fill="#2C3E50"/><path d="M48,20 L48,22 L46,22 L46,20 C46,19.4477153 46.4477153,19 47,19 C47.5522847,19 48,19.4477153 48,20 Z" id="Shape" fill="#2C3E50"/></g></g></svg>
