<?xml version="1.0" encoding="UTF-8"?>
<svg xmlns="http://www.w3.org/2000/svg" xmlns:xlink="http://www.w3.org/1999/xlink" width="512" height="512" viewBox="0 0 58 58" version="1.1"><!-- Generator: Sketch 51.3 (57544) - http://www.bohemiancoding.com/sketch --><title>021 - Extrovert</title><desc>Created with Sketch.</desc><defs/><g id="Page-1" stroke="none" stroke-width="1" fill="none" fill-rule="evenodd"><g id="021---Extrovert" fill-rule="nonzero"><path d="M17.851,50.3 C21.281,51.851 22.783,58 22.783,58 L47.883,57.931 C47.4121814,56.9546289 46.877696,56.01026 46.283,55.104 C45.8079274,54.1351664 45.409054,53.1307944 45.09,52.1 C44.5026366,50.1113602 44.0959865,48.0737587 43.875,46.012 C43.5021266,42.8441928 43.9794793,39.6342289 45.258,36.712 C46.385,34.142 48.342,32.106 49.835,29.753 C51.3118424,27.4546935 52.1069104,24.7848183 52.128,22.053 C52.1837766,19.2855688 51.8440127,16.524356 51.119,13.853 C50.1713082,10.6167572 48.1935564,7.77810583 45.486,5.768 C40.534,1.88 35.474,-0.294 29.069,0.032 C25.8639061,0.255195926 22.6794183,0.712414575 19.541,1.4 C16.123,2.088 12.504,3.366 10.051,5.956 C8.37766038,7.74409793 7.08486958,9.85338818 6.251,12.156 C5.86015176,13.3014161 5.54218297,14.470419 5.299,15.656 C4.88921474,16.9456944 4.39515102,18.2070768 3.82,19.432 C3.65097873,19.8051029 3.57743674,20.214395 3.606,20.623 C3.8,22.007 5.874,22.6 5.89,24.029 C5.86871908,24.3444419 5.77163847,24.6500914 5.607,24.92 C4.39034374,27.4911042 2.89684314,29.921815 1.153,32.169 C0.742,32.674 -0.095,33.669 0.009,34.383 C0.083,34.89 0.691,35.311 1.066,35.59 C1.866,36.184 3.495,36.59 3.698,37.662 C3.80398936,38.2078042 3.73831308,38.7730394 3.51,39.28 C2.956,40.447 2.343,41.069 2.778,41.435 C3.213,41.801 4.378,42.68 4.378,42.68 C4.378,42.68 3.272,44.094 3.884,44.528 C4.645,45.068 5.612,45.317 5.871,46.328 C5.94680483,47.1291298 5.86666115,47.9373584 5.635,48.708 C5.5563755,49.461975 5.65499664,50.2238918 5.923,50.933 C6.28395493,52.3512509 7.70070311,53.2311447 9.132,52.926 C12.0837266,52.209144 14.9943455,51.3325199 17.851,50.3" id="Shape" fill="#955BA5"/><path d="M9.227,16.467 C8.96351193,16.4090801 8.73460382,16.2471569 8.59224806,16.0179942 C8.4498923,15.7888316 8.40616709,15.5118728 8.471,15.25 C8.62815969,14.5552533 8.82515171,13.8701218 9.061,13.198 C9.7565457,11.2734195 10.8341474,9.50939105 12.229,8.012 C13.853,6.3 16.516,5.06 20.145,4.338 C20.6867913,4.23030449 21.2133045,4.58220868 21.321,5.12400001 C21.4286955,5.66579133 21.0767913,6.19230446 20.535,6.3 C17.321,6.939 15.015,7.978 13.682,9.386 C12.4735494,10.6858491 11.5402067,12.2164768 10.938,13.886 C10.7285574,14.4871971 10.5536061,15.0998605 10.414,15.721 C10.2880679,16.2518234 9.7599176,16.5837527 9.227,16.467 Z" id="Shape" fill="#B49ACA"/><circle id="Oval" fill="#B49ACA" cx="8" cy="20" r="1"/><ellipse id="Oval" fill="#FDD7AD" cx="36" cy="19.929" rx="3" ry="2.929"/><path d="M35.714,22.857 L36.285,22.857 C37.5354038,22.8567347 38.734685,23.3532698 39.6189478,24.237345 C40.5032106,25.1214203 41,26.3205962 41,27.571 C41,27.8079302 40.8079302,28 40.571,28 L31.429,28 C31.1920698,28 31,27.8079302 31,27.571 C31,24.9675297 33.1105297,22.857 35.714,22.857 Z" id="Shape" fill="#67B9CC"/><path d="M39,10 L39,12 C39,12.5522847 38.5522847,13 38,13 L34,13 C33.4477153,13 33,12.5522847 33,12 L33,10 C33,10.5522847 33.4477153,11 34,11 L38,11 C38.5522847,11 39,10.5522847 39,10 Z" id="Shape" fill="#4482C3"/><path d="M43,6.07 L39,6.07 L39,10 C39,10.5522847 38.5522847,11 38,11 L34,11 C33.4477153,11 33,10.5522847 33,10 L33,6.07 L29,6.07 L31.31,4.07 L36,0 L40.69,4.07 L43,6.07 Z" id="Shape" fill="#2FA8CC"/><path d="M43,38.933 L39,38.933 L39,33 C39,32.4477153 38.5522847,32 38,32 L34,32 C33.4477153,32 33,32.4477153 33,33 L33,38.933 L29,38.933 L36,45 L43,38.933 Z" id="Shape" fill="#2FA8CC"/><path d="M39,33 L39,35 C39,34.4477153 38.5522847,34 38,34 L34,34 C33.4477153,34 33,34.4477153 33,35 L33,33 C33,32.4477153 33.4477153,32 34,32 L38,32 C38.5522847,32 39,32.4477153 39,33 Z" id="Shape" fill="#4482C3"/><path d="M51.933,29 L51.933,25 L46,25 C45.4477153,25 45,24.5522847 45,24 L45,20 C45,19.4477153 45.4477153,19 46,19 L51.933,19 L51.933,15 L58,22 L51.933,29 Z" id="Shape" fill="#2FA8CC"/><path d="M48,25 L46,25 C45.4477153,25 45,24.5522847 45,24 L45,20 C45,19.4477153 45.4477153,19 46,19 L48,19 C47.4477153,19 47,19.4477153 47,20 L47,24 C47,24.5522847 47.4477153,25 48,25 Z" id="Shape" fill="#4482C3"/><path d="M20.067,29 L20.067,25 L26,25 C26.5522847,25 27,24.5522847 27,24 L27,20 C27,19.4477153 26.5522847,19 26,19 L20.067,19 L20.067,15 L14,22 L20.067,29 Z" id="Shape" fill="#2FA8CC"/><path d="M27,20 L27,24 C27,24.5522847 26.5522847,25 26,25 L24,25 C24.5522847,25 25,24.5522847 25,24 L25,20 C25,19.4477153 24.5522847,19 24,19 L26,19 C26.5522847,19 27,19.4477153 27,20 Z" id="Shape" fill="#4482C3"/></g></g></svg>
