<?xml version="1.0" encoding="UTF-8"?>
<svg xmlns="http://www.w3.org/2000/svg" xmlns:xlink="http://www.w3.org/1999/xlink" width="512" height="512" viewBox="0 0 58 59" version="1.1"><!-- Generator: Sketch 51.3 (57544) - http://www.bohemiancoding.com/sketch --><title>049 - Growth</title><desc>Created with Sketch.</desc><defs/><g id="Page-1" stroke="none" stroke-width="1" fill="none" fill-rule="evenodd"><g id="049---Growth" fill-rule="nonzero"><path d="M17.851,51.3 C21.281,52.851 22.783,59 22.783,59 L47.883,58.931 C47.4121814,57.9546289 46.877696,57.01026 46.283,56.104 C45.8079274,55.1351664 45.409054,54.1307944 45.09,53.1 C44.5026366,51.1113602 44.0959865,49.0737587 43.875,47.012 C43.5021266,43.8441928 43.9794793,40.6342289 45.258,37.712 C46.385,35.142 48.342,33.106 49.835,30.753 C51.3118424,28.4546935 52.1069104,25.7848183 52.128,23.053 C52.1837766,20.2855688 51.8440127,17.524356 51.119,14.853 C50.1713082,11.6167572 48.1935564,8.77810583 45.486,6.768 C40.534,2.88 35.474,0.706 29.069,1.032 C25.8639061,1.25519593 22.6794183,1.71241457 19.541,2.4 C16.123,3.088 12.504,4.366 10.051,6.956 C8.37766038,8.74409793 7.08486958,10.8533882 6.251,13.156 C5.86015176,14.3014161 5.54218297,15.470419 5.299,16.656 C4.88921474,17.9456944 4.39515102,19.2070768 3.82,20.432 C3.65097873,20.8051029 3.57743674,21.214395 3.606,21.623 C3.8,23.007 5.874,23.6 5.89,25.029 C5.86871908,25.3444419 5.77163847,25.6500914 5.607,25.92 C4.39034374,28.4911042 2.89684314,30.921815 1.153,33.169 C0.742,33.674 -0.095,34.669 0.009,35.383 C0.083,35.89 0.691,36.311 1.066,36.59 C1.866,37.184 3.495,37.59 3.698,38.662 C3.80398936,39.2078042 3.73831308,39.7730394 3.51,40.28 C2.956,41.447 2.343,42.069 2.778,42.435 C3.213,42.801 4.378,43.68 4.378,43.68 C4.378,43.68 3.272,45.094 3.884,45.528 C4.645,46.068 5.612,46.317 5.871,47.328 C5.94680483,48.1291298 5.86666115,48.9373584 5.635,49.708 C5.5563755,50.461975 5.65499664,51.2238918 5.923,51.933 C6.28395493,53.3512509 7.70070311,54.2311447 9.132,53.926 C12.0837266,53.209144 14.9943455,52.3325199 17.851,51.3" id="Shape" fill="#F3D55B"/><path d="M45.01,17.2 C51.844,14.594 55.247,8.479 53.021,1 C45.056,3.354 39.116,10.006 45.01,17.2 Z" id="Shape" fill="#4FBA6F"/><path d="M9.227,17.467 C8.96351193,17.4090801 8.73460382,17.2471569 8.59224806,17.0179942 C8.4498923,16.7888316 8.40616709,16.5118728 8.471,16.25 C8.62815969,15.5552533 8.82515171,14.8701218 9.061,14.198 C9.7565457,12.2734195 10.8341474,10.509391 12.229,9.012 C13.853,7.3 16.516,6.06 20.145,5.338 C20.6867913,5.23030449 21.2133045,5.58220868 21.321,6.12400001 C21.4286955,6.66579133 21.0767913,7.19230446 20.535,7.3 C17.321,7.939 15.015,8.978 13.682,10.386 C12.4735494,11.6858491 11.5402067,13.2164768 10.938,14.886 C10.7285574,15.4871971 10.5536061,16.0998605 10.414,16.721 C10.2880679,17.2518234 9.7599176,17.5837527 9.227,17.467 Z" id="Shape" fill="#F5EFCA"/><circle id="Oval" fill="#F5EFCA" cx="8" cy="21" r="1"/><path d="M58,41 C58,42.8565154 57.2625021,44.6369928 55.9497475,45.9497475 C54.6369928,47.2625021 52.8565154,48 51,48 L41,48 C37.1340068,48 34,44.8659932 34,41 C33.9960018,40.6649206 34.0227809,40.330182 34.08,40 C34.5250028,36.8458333 37.0534076,34.3956691 40.22,34.05 C41.5243995,32.1406167 43.6875981,30.99862 46,30.99862 C48.3124019,30.99862 50.4756005,32.1406167 51.78,34.05 C54.9402169,34.3936352 57.46664,36.8336497 57.92,39.98 C57.9722434,40.3175086 57.9989858,40.6584734 58,41 Z" id="Shape" fill="#7F5B53"/><path d="M57.92,39.98 C57.7200059,41.4846461 57.027266,42.8806752 55.95,43.95 C54.6397763,45.2666613 52.8574877,46.0047808 51,46 L41,46 C37.5200362,46.0049894 34.5681592,43.4455585 34.08,40 C34.5250028,36.8458333 37.0534076,34.3956691 40.22,34.05 C41.5243995,32.1406167 43.6875981,30.99862 46,30.99862 C48.3124019,30.99862 50.4756005,32.1406167 51.78,34.05 C54.9402169,34.3936352 57.46664,36.8336497 57.92,39.98 Z" id="Shape" fill="#AF8066"/><path d="M46.1,35.8 C45.6212694,35.7996246 45.2099587,35.4600102 45.119,34.99 C43.989,29.166 43.058,23.41 44.043,17.038 C44.135051,16.5010227 44.6400067,16.1365414 45.1786505,16.218278 C45.7172943,16.3000145 46.091392,16.7978878 46.02,17.338 C45.083,23.393 45.988,28.961 47.082,34.604 C47.1871026,35.1460456 46.8330069,35.6706982 46.291,35.776 C46.2282912,35.7903395 46.164307,35.7983794 46.1,35.8 Z" id="Shape" fill="#14A085"/><path d="M40.179,21.842 C31.494,12.879 23,27 23,27 C23,27 38.609,34.224 40.179,21.842 Z" id="Shape" fill="#4FBA6F"/><path d="M44.73,26.4 C44.2891516,26.3998549 43.9004052,26.111037 43.773,25.689 C43.3493382,23.9856923 41.7483173,22.8446519 40,23 C39.4477153,23 39,22.5522847 39,22 C39,21.4477153 39.4477153,21 40,21 C42.6353232,20.8331492 45.0196103,22.5563919 45.688,25.111 C45.847423,25.6395178 45.5484173,26.1972441 45.02,26.357 C44.9260497,26.3858527 44.8282803,26.4003496 44.73,26.4 Z" id="Shape" fill="#14A085"/><path d="M23,28 C22.4477153,28.0248528 21.9798529,27.5972847 21.955,27.045 C21.9301472,26.4927153 22.3577153,26.0248528 22.91,26 C23.018,25.99 33.73,24.975 39.446,21.164 C39.743245,20.9657176 40.1236931,20.9410754 40.4440332,21.0993559 C40.7643733,21.2576364 40.9759381,21.574793 40.9990332,21.9313559 C41.0221283,22.2879188 40.853245,22.6297176 40.556,22.828 C34.415,26.922 23.556,27.95 23.092,27.992 C23.06,28 23.029,28 23,28 Z" id="Shape" fill="#14A085"/><path d="M45,18 C44.9327926,17.9998206 44.8657789,17.9927842 44.8,17.979 C44.2595739,17.8681574 43.9110001,17.3405982 44.021,16.8 C44.106,16.38 46.192,6.436 52.313,0.294 C52.7048367,-0.0855650174 53.3285809,-0.0810451249 53.7148758,0.304158536 C54.1011707,0.689362196 54.1074551,1.31309114 53.729,1.706 C48.027,7.428 46,17.1 45.979,17.2 C45.8840215,17.6652983 45.4748929,17.999622 45,18 Z" id="Shape" fill="#14A085"/><path d="M48,36 L44,36 C43.4477153,36 43,35.5522847 43,35 C43,34.4477153 43.4477153,34 44,34 L48,34 C48.5522847,34 49,34.4477153 49,35 C49,35.5522847 48.5522847,36 48,36 Z" id="Shape" fill="#7F5B53"/></g></g></svg>
