<?xml version="1.0" encoding="UTF-8"?>
<svg xmlns="http://www.w3.org/2000/svg" xmlns:xlink="http://www.w3.org/1999/xlink" width="512" height="512" viewBox="0 0 59 59" version="1.1"><!-- Generator: Sketch 51.3 (57544) - http://www.bohemiancoding.com/sketch --><title>086 - Idea</title><desc>Created with Sketch.</desc><defs/><g id="Page-1" stroke="none" stroke-width="1" fill="none" fill-rule="evenodd"><g id="086---Idea" transform="translate(-1.000000, 0.000000)"><path d="M40.21,22.26 C38.94,21.61 37.67,23.54 37.67,23.54 L37.59,23.53 C37.7534816,20.535563 37.7534816,17.534437 37.59,14.54 C37,1.68 22.19,1.04 22.19,1.04 L19.81,1.04 C19.81,1.04 5,1.68 4.41,14.54 C4.2465184,17.534437 4.2465184,20.535563 4.41,23.53 L4.33,23.54 C4.33,23.54 3.06,21.61 1.79,22.26 C0.53,22.89 1.15,28.68 1.15,28.68 C1.15,28.68 1.78,33.14 5.53,35.08 C5.37,38.8 5.09,42.18 9.15,46.04 C9.63258763,46.4946547 10.0899378,46.9753732 10.52,47.48 L10.52,57 C10.5199862,58.100676 11.4093377,58.9944966 12.51,59 L29.49,59 C30.5906623,58.9944966 31.4800138,58.100676 31.48,57 L31.48,47.48 C31.9100622,46.9753732 32.3674124,46.4946547 32.85,46.04 C36.91,42.18 36.63,38.8 36.47,35.08 C40.22,33.14 40.85,28.68 40.85,28.68 C40.85,28.68 41.47,22.89 40.21,22.26 Z" id="Shape" fill="#FF5364" fill-rule="nonzero"/><path d="M37.59,23.53 C37.27,28.49 36.41,30.06 36.41,33.18 C36.41,33.83 36.43,34.46 36.47,35.08 C36.63,38.8 36.91,42.18 32.85,46.04 C32.3674124,46.4946547 31.9100622,46.9753732 31.48,47.48 C28.06,51.45 27.6,55.04 23.37,55.04 L18.63,55.04 C14.4,55.04 13.94,51.45 10.52,47.48 C10.0899378,46.9753732 9.63258763,46.4946547 9.15,46.04 C5.09,42.18 5.37,38.8 5.53,35.08 C5.57,34.46 5.59,33.83 5.59,33.18 C5.59,30.06 4.73,28.49 4.41,23.53 C4.2465184,20.535563 4.2465184,17.534437 4.41,14.54 C5,1.68 19.81,1.04 19.81,1.04 L22.19,1.04 C22.19,1.04 37,1.68 37.59,14.54 C37.7534816,17.534437 37.7534816,20.535563 37.59,23.53 Z" id="Shape" fill="#FB7B76" fill-rule="nonzero"/><path d="M5.59,33.18 C5.59,33.83 5.57,34.46 5.53,35.08 C1.78,33.14 1.15,28.68 1.15,28.68 C1.15,28.68 0.53,22.89 1.79,22.26 C3.06,21.61 4.33,23.54 4.33,23.54 L4.41,23.53 C4.73,28.49 5.59,30.06 5.59,33.18 Z" id="Shape" fill="#FF5364" fill-rule="nonzero"/><path d="M31.482,47.48 L31.482,57 C31.4820138,58.100676 30.5926623,58.9944966 29.492,59 L12.513,59 C11.4123377,58.9944966 10.5229862,58.100676 10.523,57 L10.523,47.48 C13.943,51.45 14.403,55.04 18.633,55.04 L23.373,55.04 C27.6,55.04 28.063,51.45 31.482,47.48 Z" id="Shape" fill="#FF5364" fill-rule="nonzero"/><path d="M59,20 L57,20 C56.4477153,20 56,19.5522847 56,19 C56,18.4477153 56.4477153,18 57,18 L59,18 C59.5522847,18 60,18.4477153 60,19 C60,19.5522847 59.5522847,20 59,20 Z" id="Shape" fill="#F0C419" fill-rule="nonzero"/><path d="M52.313,8.687 C51.9081643,8.68731896 51.5430763,8.44352001 51.3882414,8.06946359 C51.2334066,7.69540717 51.3193761,7.26489995 51.606,6.979 L53.021,5.565 C53.2720745,5.30504342 53.6438779,5.2007874 53.9935073,5.29230284 C54.3431368,5.38381828 54.6161817,5.65686324 54.7076972,6.00649268 C54.7992126,6.35612211 54.6949566,6.72792553 54.435,6.979 L53.021,8.394 C52.8332623,8.58179456 52.5785413,8.68720875 52.313,8.687 Z" id="Shape" fill="#F0C419" fill-rule="nonzero"/><path d="M41,4 C40.4477153,4 40,3.55228475 40,3 L40,1 C40,0.44771525 40.4477153,1.01453063e-16 41,0 C41.5522847,-1.01453063e-16 42,0.44771525 42,1 L42,3 C42,3.55228475 41.5522847,4 41,4 Z" id="Shape" fill="#F0C419" fill-rule="nonzero"/><path d="M29.687,8.687 C29.4214587,8.68720875 29.1667377,8.58179456 28.979,8.394 L27.565,6.979 C27.3050434,6.72792553 27.2007874,6.35612211 27.2923028,6.00649268 C27.3838183,5.65686324 27.6568632,5.38381828 28.0064927,5.29230284 C28.3561221,5.2007874 28.7279255,5.30504342 28.979,5.565 L30.394,6.979 C30.6806239,7.26489995 30.7665934,7.69540717 30.6117586,8.06946359 C30.4569237,8.44352001 30.0918357,8.68731896 29.687,8.687 Z" id="Shape" fill="#F0C419" fill-rule="nonzero"/><path d="M25,20 L23,20 C22.4477153,20 22,19.5522847 22,19 C22,18.4477153 22.4477153,18 23,18 L25,18 C25.5522847,18 26,18.4477153 26,19 C26,19.5522847 25.5522847,20 25,20 Z" id="Shape" fill="#F0C419" fill-rule="nonzero"/><path d="M43.962,34.74 C43.962,31.251 47.882,29.751 49.84,27.567 C51.9137593,25.188355 53.0262031,22.1220035 52.96,18.967 C52.9053081,12.3250021 47.5998216,6.91959563 40.96,6.741 C34.3201784,6.91959563 29.0146919,12.3250021 28.96,18.967 C28.8933138,22.1220832 30.0058189,25.1886036 32.08,27.567 C34.038,29.751 37.957,31.251 37.957,34.74 L43.962,34.74 Z" id="Shape" fill="#F0C419"/><path d="M37.962,40.74 L43.962,40.74 L43.962,41.74 C43.962,43.3968542 42.6188542,44.74 40.962,44.74 C39.3051458,44.74 37.962,43.3968542 37.962,41.74 L37.962,40.74 Z" id="Shape" fill="#95A5A5" fill-rule="nonzero"/><ellipse id="Oval" fill="#F3D55B" fill-rule="nonzero" cx="40.961" cy="16.74" rx="9" ry="10"/><path d="M42.962,35.74 C42.4097153,35.74 41.962,35.2922847 41.962,34.74 L41.962,22.74 L39.962,22.74 L39.962,34.74 C39.962,35.2922847 39.5142847,35.74 38.962,35.74 C38.4097153,35.74 37.962,35.2922847 37.962,34.74 L37.962,22.74 L36.962,22.74 C35.3051458,22.74 33.962,21.3968542 33.962,19.74 C33.962,18.0831458 35.3051458,16.74 36.962,16.74 C38.6188542,16.74 39.962,18.0831458 39.962,19.74 L39.962,20.74 L41.962,20.74 L41.962,19.74 C41.962,18.0831458 43.3051458,16.74 44.962,16.74 C46.6188542,16.74 47.962,18.0831458 47.962,19.74 C47.962,21.3968542 46.6188542,22.74 44.962,22.74 L43.962,22.74 L43.962,34.74 C43.962,35.2922847 43.5142847,35.74 42.962,35.74 Z M43.962,20.74 L44.962,20.74 C45.5142847,20.74 45.962,20.2922847 45.962,19.74 C45.962,19.1877153 45.5142847,18.74 44.962,18.74 C44.4097153,18.74 43.962,19.1877153 43.962,19.74 L43.962,20.74 Z M36.962,18.74 C36.4097153,18.74 35.962,19.1877153 35.962,19.74 C35.962,20.2922847 36.4097153,20.74 36.962,20.74 L37.962,20.74 L37.962,19.74 C37.962,19.1877153 37.5142847,18.74 36.962,18.74 Z" id="Shape" fill="#F29C1F" fill-rule="nonzero"/><rect id="Rectangle-path" fill="#BDC3C7" fill-rule="nonzero" x="35.962" y="34.74" width="10" height="6" rx="2"/></g></g></svg>
