<?xml version="1.0" encoding="UTF-8"?>
<svg xmlns="http://www.w3.org/2000/svg" xmlns:xlink="http://www.w3.org/1999/xlink" width="512" height="512" viewBox="0 0 58 58" version="1.1"><!-- Generator: Sketch 51.3 (57544) - http://www.bohemiancoding.com/sketch --><title>019 - Introvert</title><desc>Created with Sketch.</desc><defs/><g id="Page-1" stroke="none" stroke-width="1" fill="none" fill-rule="evenodd"><g id="019---Introvert" fill-rule="nonzero"><path d="M17.851,50.3 C21.281,51.851 22.783,58 22.783,58 L47.883,57.931 C47.4121814,56.9546289 46.877696,56.01026 46.283,55.104 C45.810511,54.1362498 45.4139826,53.133227 45.097,52.104 C44.5096366,50.1153602 44.1029865,48.0777587 43.882,46.016 C43.5094179,42.8481972 43.9867593,39.6383095 45.265,36.716 C46.392,34.147 48.349,32.116 49.842,29.758 C51.3188424,27.4596935 52.1139104,24.7898183 52.135,22.058 C52.1906124,19.2905772 51.8508514,16.5293876 51.126,13.858 C50.1780466,10.6221548 48.200326,7.78389935 45.493,5.774 C40.534,1.881 35.474,-0.293 29.069,0.033 C25.8638786,0.255375513 22.6793554,0.71226503 19.541,1.4 C16.123,2.088 12.504,3.366 10.051,5.956 C8.37766038,7.74409793 7.08486958,9.85338818 6.251,12.156 C5.86015176,13.3014161 5.54218297,14.470419 5.299,15.656 C4.88925592,16.9460342 4.39519171,18.2077519 3.82,19.433 C3.65089796,19.8060777 3.57735228,20.2153904 3.606,20.624 C3.8,22.008 5.874,22.6 5.89,24.029 C5.86887774,24.3447852 5.77179136,24.650796 5.607,24.921 C4.39034374,27.4921042 2.89684314,29.922815 1.153,32.17 C0.742,32.67 -0.095,33.67 0.009,34.384 C0.083,34.891 0.691,35.312 1.066,35.591 C1.866,36.185 3.495,36.591 3.698,37.663 C3.80398936,38.2088042 3.73831308,38.7740394 3.51,39.281 C2.956,40.447 2.343,41.07 2.778,41.436 C3.213,41.802 4.378,42.681 4.378,42.681 C4.378,42.681 3.272,44.094 3.884,44.529 C4.645,45.069 5.612,45.318 5.871,46.329 C5.94680483,47.1301298 5.86666115,47.9383584 5.635,48.709 C5.5563755,49.462975 5.65499664,50.2248918 5.923,50.934 C6.28395493,52.3522509 7.70070311,53.2321447 9.132,52.927 C12.083746,52.2098159 14.9943653,51.332858 17.851,50.3" id="Shape" fill="#7ED09E"/><path d="M9.227,16.468 C8.96351193,16.4100801 8.73460382,16.2481569 8.59224806,16.0189942 C8.4498923,15.7898316 8.40616709,15.5128728 8.471,15.251 C8.62815969,14.5562533 8.82515171,13.8711218 9.061,13.199 C9.7565457,11.2744195 10.8341474,9.51039105 12.229,8.013 C13.853,6.297 16.516,5.061 20.145,4.339 C20.4954775,4.2693332 20.856499,4.39193597 21.0920709,4.66062503 C21.3276429,4.9293141 21.4019765,5.30326919 21.2870709,5.64162505 C21.1721654,5.97998091 20.8854776,6.23133322 20.535,6.301 C17.321,6.94 15.015,7.978 13.682,9.387 C12.4735494,10.6868491 11.5402067,12.2174768 10.938,13.887 C10.7285574,14.4881971 10.5536061,15.1008605 10.414,15.722 C10.2880679,16.2528234 9.7599176,16.5847527 9.227,16.468 Z" id="Shape" fill="#ECF0F1"/><circle id="Oval" fill="#ECF0F1" cx="8" cy="20.001" r="1"/><ellipse id="Oval" fill="#FDD7AD" cx="38" cy="19.929" rx="3" ry="2.929"/><path d="M37.714,22.857 L38.285,22.857 C39.5354038,22.8567347 40.734685,23.3532698 41.6189478,24.237345 C42.5032106,25.1214203 43,26.3205962 43,27.571 L43,28 L33,28 L33,27.571 C33,24.9675297 35.1105297,22.857 37.714,22.857 Z" id="Shape" fill="#955BA5"/><path d="M45,6.933 L41,6.933 L41,1 C41,0.44771525 40.5522847,0 40,0 L36,0 C35.4477153,0 35,0.44771525 35,1 L35,6.933 L31,6.933 L38,13 L45,6.933 Z" id="Shape" fill="#955BA5"/><path d="M41,1 L41,3 C41,2.44771525 40.5522847,2 40,2 L36,2 C35.4477153,2 35,2.44771525 35,3 L35,1 C35,0.44771525 35.4477153,0 36,0 L40,0 C40.5522847,0 41,0.44771525 41,1 Z" id="Shape" fill="#894B9D"/><path d="M45,38.067 L41,38.067 L41,44 C41,44.5522847 40.5522847,45 40,45 L36,45 C35.4477153,45 35,44.5522847 35,44 L35,38.067 L31,38.067 L38,32 L45,38.067 Z" id="Shape" fill="#955BA5"/><path d="M41,42 L41,44 C41,44.5522847 40.5522847,45 40,45 L36,45 C35.4477153,45 35,44.5522847 35,44 L35,42 C35,42.5522847 35.4477153,43 36,43 L40,43 C40.5522847,43 41,42.5522847 41,42 Z" id="Shape" fill="#894B9D"/><path d="M51.067,29 L51.067,25 L57,25 C57.5522847,25 58,24.5522847 58,24 L58,20 C58,19.4477153 57.5522847,19 57,19 L51.067,19 L51.067,15 L45,22 L51.067,29 Z" id="Shape" fill="#955BA5"/><path d="M58,20 L58,24 C58,24.5522847 57.5522847,25 57,25 L55,25 C55.5522847,25 56,24.5522847 56,24 L56,20 C56,19.4477153 55.5522847,19 55,19 L57,19 C57.5522847,19 58,19.4477153 58,20 Z" id="Shape" fill="#894B9D"/><path d="M24.933,29 L24.933,25 L19,25 C18.4477153,25 18,24.5522847 18,24 L18,20 C18,19.4477153 18.4477153,19 19,19 L24.933,19 L24.933,15 L31,22 L24.933,29 Z" id="Shape" fill="#955BA5"/><path d="M21,25 L19,25 C18.4477153,25 18,24.5522847 18,24 L18,20 C18,19.4477153 18.4477153,19 19,19 L21,19 C20.4477153,19 20,19.4477153 20,20 L20,24 C20,24.5522847 20.4477153,25 21,25 Z" id="Shape" fill="#894B9D"/></g></g></svg>
