<?xml version="1.0" encoding="UTF-8"?>
<svg xmlns="http://www.w3.org/2000/svg" xmlns:xlink="http://www.w3.org/1999/xlink" width="512" height="512" viewBox="0 0 45 58" version="1.1"><!-- Generator: Sketch 51.3 (57544) - http://www.bohemiancoding.com/sketch --><title>060 - Mind Map</title><desc>Created with Sketch.</desc><defs/><g id="Page-1" stroke="none" stroke-width="1" fill="none" fill-rule="evenodd"><g id="060---Mind-Map" fill-rule="nonzero"><path d="M41.208,21.26 C39.938,20.61 38.667,22.54 38.667,22.54 L38.588,22.53 C38.7509709,19.5355491 38.7509709,16.5344509 38.588,13.54 C38,0.68 23.188,0.04 23.188,0.04 L20.807,0.04 C20.807,0.04 5.997,0.68 5.407,13.54 C5.24402908,16.5344509 5.24402908,19.5355491 5.407,22.53 L5.328,22.54 C5.328,22.54 4.057,20.61 2.787,21.26 C1.528,21.89 2.148,27.68 2.148,27.68 C2.148,27.68 2.778,32.14 6.528,34.08 C6.367,37.8 6.088,41.18 10.148,45.04 C10.6300751,45.4951694 11.0873982,45.9758594 11.518,46.48 L11.518,56 C11.5179862,57.100676 12.4073377,57.9944966 13.508,58 L30.487,58 C31.5876623,57.9944966 32.4770138,57.100676 32.477,56 L32.477,46.48 C32.9076018,45.9758594 33.3649249,45.4951694 33.847,45.04 C37.907,41.18 37.628,37.8 37.467,34.08 C41.217,32.14 41.847,27.68 41.847,27.68 C41.847,27.68 42.467,21.89 41.208,21.26 Z" id="Shape" fill="#F0C419"/><path d="M38.588,22.53 C38.268,27.49 37.407,29.06 37.407,32.18 C37.407,32.83 37.427,33.46 37.467,34.08 C37.627,37.8 37.907,41.18 33.847,45.04 C33.3649249,45.4951694 32.9076018,45.9758594 32.477,46.48 C29.057,50.45 28.597,54.04 24.367,54.04 L19.627,54.04 C15.398,54.04 14.937,50.45 11.518,46.48 C11.0873982,45.9758594 10.6300751,45.4951694 10.148,45.04 C6.088,41.18 6.367,37.8 6.528,34.08 C6.567,33.46 6.588,32.83 6.588,32.18 C6.588,29.06 5.727,27.49 5.407,22.53 C5.24402908,19.5355491 5.24402908,16.5344509 5.407,13.54 C5.997,0.68 20.807,0.04 20.807,0.04 L23.187,0.04 C23.187,0.04 37.997,0.68 38.587,13.54 C38.750304,16.5344328 38.7506378,19.535531 38.588,22.53 Z" id="Shape" fill="#F3D55B"/><path d="M6.588,32.18 C6.588,32.83 6.567,33.46 6.528,34.08 C2.778,32.14 2.148,27.68 2.148,27.68 C2.148,27.68 1.528,21.89 2.787,21.26 C4.057,20.61 5.328,22.54 5.328,22.54 L5.407,22.53 C5.727,27.49 6.588,29.06 6.588,32.18 Z" id="Shape" fill="#F0C419"/><path d="M41.847,27.68 C41.847,27.68 41.217,32.14 37.467,34.08 C37.427,33.46 37.407,32.83 37.407,32.18 C37.407,29.06 38.268,27.49 38.588,22.53 L38.667,22.54 C38.667,22.54 39.937,20.61 41.208,21.26 C42.467,21.89 41.847,27.68 41.847,27.68 Z" id="Shape" fill="#F0C419"/><path d="M32.477,46.48 L32.477,56 C32.4770138,57.100676 31.5876623,57.9944966 30.487,58 L13.508,58 C12.4073377,57.9944966 11.5179862,57.100676 11.518,56 L11.518,46.48 C14.937,50.45 15.398,54.04 19.627,54.04 L24.367,54.04 C28.6,54.04 29.057,50.45 32.477,46.48 Z" id="Shape" fill="#F0C419"/><path d="M20.03,12.57 C19.6217844,12.5694967 19.254856,12.3209195 19.103,11.942 L17.553,8.083 C17.4091801,7.74951203 17.4574725,7.36426472 17.6791572,7.07659429 C17.9008419,6.78892386 18.261066,6.64405747 18.6201931,6.69815074 C18.9793202,6.75224401 19.280889,6.99679246 19.408,7.337 L20.958,11.197 C21.0818959,11.505189 21.0446779,11.8547836 20.8586744,12.1299806 C20.6726709,12.4051775 20.3621606,12.570056 20.03,12.57 Z" id="Shape" fill="#3D324C"/><path d="M29.251,15 C28.8260033,15.0006249 28.4470392,14.7325525 28.3061098,14.3316018 C28.1651805,13.930651 28.2930767,13.4844234 28.625,13.219 L33.475,9.339 C33.9063344,8.99382203 34.535822,9.06366561 34.881,9.495 C35.226178,9.92633439 35.1563344,10.555822 34.725,10.901 L29.875,14.781 C29.6978557,14.9226545 29.4778173,14.9998795 29.251,15 Z" id="Shape" fill="#3D324C"/><path d="M38.09,34.26 C37.8340525,34.2600781 37.5878179,34.1620137 37.402,33.986 L28.133,25.217 C27.8734465,24.9713799 27.764646,24.6059475 27.8475825,24.2583575 C27.930519,23.9107676 28.1925926,23.6338273 28.5350825,23.5318575 C28.8775725,23.4298877 29.2484466,23.5183799 29.508,23.764 L38.777,32.533 C39.0748732,32.8143354 39.1709898,33.2489153 39.0195426,33.6296276 C38.8680954,34.0103398 38.4997292,34.2601486 38.09,34.26 Z" id="Shape" fill="#3D324C"/><path d="M19.651,35.07 C19.5780146,35.0698175 19.5052613,35.061771 19.434,35.046 C18.8951016,34.9265185 18.5549324,34.39299 18.674,33.854 L20.283,26.594 C20.4022935,26.054694 20.9361939,25.7142065 21.4755,25.8335 C22.014806,25.9527935 22.3552935,26.486694 22.236,27.026 L20.627,34.286 C20.5257158,34.743839 20.1199083,35.0698155 19.651,35.07 Z" id="Shape" fill="#3D324C"/><path d="M9.571,25.971 C9.09839046,25.9716086 8.68988171,25.6412681 8.59158205,25.178994 C8.49328239,24.71672 8.73203413,24.2487437 9.164,24.057 L15.284,21.336 C15.7887883,21.1114962 16.3799962,21.3387117 16.6045,21.8435 C16.8290038,22.3482883 16.6017883,22.9394962 16.097,23.164 L9.977,25.884 C9.84930962,25.9412865 9.71095204,25.9709346 9.571,25.971 Z" id="Shape" fill="#3D324C"/><circle id="Oval" fill="#FF5364" cx="23" cy="19" r="8"/><circle id="Oval" fill="#2FA8CC" cx="38" cy="7" r="5"/><circle id="Oval" fill="#FB7B76" cx="41" cy="36" r="4"/><circle id="Oval" fill="#2FA8CC" cx="19" cy="37" r="3"/><circle id="Oval" fill="#FB7B76" cx="5" cy="27" r="5"/><circle id="Oval" fill="#2FA8CC" cx="17" cy="4" r="4"/><circle id="Oval" fill="#FB7B76" cx="22" cy="18" r="6"/><circle id="Oval" fill="#FDB0AD" cx="4" cy="26" r="3"/><circle id="Oval" fill="#FDB0AD" cx="40" cy="35" r="2"/><circle id="Oval" fill="#67B9CC" cx="16" cy="3" r="2"/><circle id="Oval" fill="#67B9CC" cx="37" cy="6" r="3"/><circle id="Oval" fill="#67B9CC" cx="19" cy="36" r="2"/></g></g></svg>
