<?xml version="1.0" encoding="UTF-8"?>
<svg xmlns="http://www.w3.org/2000/svg" xmlns:xlink="http://www.w3.org/1999/xlink" width="512" height="512" viewBox="0 0 59 58" version="1.1"><!-- Generator: Sketch 51.3 (57544) - http://www.bohemiancoding.com/sketch --><title>027 - Open Mind</title><desc>Created with Sketch.</desc><defs/><g id="Page-1" stroke="none" stroke-width="1" fill="none" fill-rule="evenodd"><g id="027---Open-Mind" fill-rule="nonzero"><path d="M17.851,50.3 C21.281,51.851 22.783,58 22.783,58 L47.883,57.931 C47.4121814,56.9546289 46.877696,56.01026 46.283,55.104 C45.8079274,54.1351664 45.409054,53.1307944 45.09,52.1 C44.5026366,50.1113602 44.0959865,48.0737587 43.875,46.012 C43.5021266,42.8441928 43.9794793,39.6342289 45.258,36.712 C46.385,34.142 48.342,32.106 49.835,29.753 C51.3118424,27.4546935 52.1069104,24.7848183 52.128,22.053 C52.1837766,19.2855688 51.8440127,16.524356 51.119,13.853 C50.1713082,10.6167572 48.1935564,7.77810583 45.486,5.768 C40.534,1.88 35.474,-0.294 29.069,0.032 C25.8639061,0.255195926 22.6794183,0.712414575 19.541,1.4 C16.123,2.088 12.504,3.366 10.051,5.956 C8.37766038,7.74409793 7.08486958,9.85338818 6.251,12.156 C5.86015176,13.3014161 5.54218297,14.470419 5.299,15.656 C4.88921474,16.9456944 4.39515102,18.2070768 3.82,19.432 C3.65097873,19.8051029 3.57743674,20.214395 3.606,20.623 C3.8,22.007 5.874,22.6 5.89,24.029 C5.86871908,24.3444419 5.77163847,24.6500914 5.607,24.92 C4.39034374,27.4911042 2.89684314,29.921815 1.153,32.169 C0.742,32.674 -0.095,33.669 0.009,34.383 C0.083,34.89 0.691,35.311 1.066,35.59 C1.866,36.184 3.495,36.59 3.698,37.662 C3.80398936,38.2078042 3.73831308,38.7730394 3.51,39.28 C2.956,40.447 2.343,41.069 2.778,41.435 C3.213,41.801 4.378,42.68 4.378,42.68 C4.378,42.68 3.272,44.094 3.884,44.528 C4.645,45.068 5.612,45.317 5.871,46.328 C5.94680483,47.1291298 5.86666115,47.9373584 5.635,48.708 C5.5563755,49.461975 5.65499664,50.2238918 5.923,50.933 C6.28395493,52.3512509 7.70070311,53.2311447 9.132,52.926 C12.0837266,52.209144 14.9943455,51.3325199 17.851,50.3" id="Shape" fill="#4482C3"/><path d="M9.227,16.467 C8.96351193,16.4090801 8.73460382,16.2471569 8.59224806,16.0179942 C8.4498923,15.7888316 8.40616709,15.5118728 8.471,15.25 C8.62815969,14.5552533 8.82515171,13.8701218 9.061,13.198 C9.7565457,11.2734195 10.8341474,9.50939105 12.229,8.012 C13.853,6.3 16.516,5.06 20.145,4.338 C20.6867913,4.23030449 21.2133045,4.58220868 21.321,5.12400001 C21.4286955,5.66579133 21.0767913,6.19230446 20.535,6.3 C17.321,6.939 15.015,7.978 13.682,9.386 C12.4735494,10.6858491 11.5402067,12.2164768 10.938,13.886 C10.7285574,14.4871971 10.5536061,15.0998605 10.414,15.721 C10.2880679,16.2518234 9.7599176,16.5837527 9.227,16.467 Z" id="Shape" fill="#B0D3F0"/><circle id="Oval" fill="#B0D3F0" cx="8" cy="20" r="1"/><path d="M46,4 L52,4 C52.5522847,4 53,4.44771525 53,5 L53,37 C53,37.5522847 52.5522847,38 52,38 L46,38 L46,4 Z" id="Shape" fill="#2C3E50"/><path d="M44.821,41.786 L24.821,38.149 C24.3455066,38.0624895 23.9999271,37.6482991 24,37.165 L24,4.835 C23.9999271,4.35170085 24.3455066,3.93751054 24.821,3.851 L44.821,0.214 C45.1131248,0.16085055 45.4137619,0.240265897 45.6415297,0.430748496 C45.8692974,0.621231095 46.0006388,0.903080226 46,1.2 L46,40.8 C46.0006388,41.0969198 45.8692974,41.3787689 45.6415297,41.5692515 C45.4137619,41.7597341 45.1131248,41.8391494 44.821,41.786 Z" id="Shape" fill="#F29C1F"/><path d="M28,33.827 L28,8.173 C27.9999271,7.68970085 28.3455066,7.27551054 28.821,7.189 L40.821,5.007 C41.1127803,4.95391394 41.4130717,5.03307791 41.6407607,5.22310839 C41.8684496,5.41313887 42.0000448,5.69442987 42,5.991 L42,36.009 C42.0000448,36.3055701 41.8684496,36.5868611 41.6407607,36.7768916 C41.4130717,36.9669221 41.1127803,37.0460861 40.821,36.993 L28.821,34.811 C28.3455066,34.7244895 27.9999271,34.3102991 28,33.827 Z" id="Shape" fill="#F3D55B"/><circle id="Oval" fill="#2C3E50" cx="39" cy="21" r="3"/><path d="M58,22 L50,22 C49.4477153,22 49,21.5522847 49,21 C49,20.4477153 49.4477153,20 50,20 L58,20 C58.5522847,20 59,20.4477153 59,21 C59,21.5522847 58.5522847,22 58,22 Z" id="Shape" fill="#F0C419"/><path d="M50,15 C49.5649924,15.0004942 49.1795663,14.7197111 49.0466717,14.3055 C48.9137771,13.8912889 49.0639033,13.4386804 49.418,13.186 L56.418,8.186 C56.8675598,7.86512258 57.4921225,7.96944024 57.813,8.41900002 C58.1338774,8.86855979 58.0295598,9.49312255 57.58,9.814 L50.58,14.814 C50.4107116,14.9348032 50.207971,14.99982 50,15 Z" id="Shape" fill="#F0C419"/><path d="M57,34 C56.792029,33.99982 56.5892884,33.9348032 56.42,33.814 L49.42,28.814 C48.9704402,28.4931225 48.8661226,27.8685598 49.187,27.419 C49.5078775,26.9694403 50.1324402,26.8651226 50.582,27.186 L57.582,32.186 C57.9360967,32.4386804 58.0862229,32.8912889 57.9533283,33.3055 C57.8204337,33.7197111 57.4350076,34.0004942 57,34 Z" id="Shape" fill="#F0C419"/></g></g></svg>
