<?xml version="1.0" encoding="UTF-8"?>
<svg xmlns="http://www.w3.org/2000/svg" xmlns:xlink="http://www.w3.org/1999/xlink" width="512" height="512" viewBox="0 0 58 59" version="1.1"><!-- Generator: Sketch 51.3 (57544) - http://www.bohemiancoding.com/sketch --><title>067 - Open Mind</title><desc>Created with Sketch.</desc><defs/><g id="Page-1" stroke="none" stroke-width="1" fill="none" fill-rule="evenodd"><g id="067---Open-Mind" fill-rule="nonzero"><path d="M39.213,22.22 C37.943,21.57 36.672,23.5 36.672,23.5 L36.593,23.49 C36.7559709,20.4955491 36.7559709,17.4944509 36.593,14.5 C36,1.64 21.193,1 21.193,1 L18.813,1 C18.813,1 4,1.64 3.412,14.5 C3.24902908,17.4944509 3.24902908,20.4955491 3.412,23.49 L3.333,23.5 C3.333,23.5 2.063,21.57 0.792,22.22 C-0.467,22.85 0.153,28.64 0.153,28.64 C0.153,28.64 0.783,33.1 4.533,35.04 C4.373,38.76 4.093,42.14 8.153,46 C8.63533088,46.4549126 9.09266744,46.9356167 9.523,47.44 L9.523,56.96 C9.52298624,58.060676 10.4123377,58.9544966 11.513,58.96 L28.493,58.96 C29.5932713,58.9539484 30.4820166,58.060288 30.482,56.96 L30.482,47.44 C30.9126018,46.9358594 31.3699249,46.4551694 31.852,46 C35.912,42.14 35.633,38.76 35.472,35.04 C39.222,33.1 39.852,28.64 39.852,28.64 C39.852,28.64 40.472,22.85 39.213,22.22 Z" id="Shape" fill="#35495E"/><path d="M36.593,23.49 C36.273,28.45 35.412,30.02 35.412,33.14 C35.412,33.79 35.433,34.42 35.472,35.04 C35.633,38.76 35.912,42.14 31.852,46 C31.3699249,46.4551694 30.9126018,46.9358594 30.482,47.44 C27.063,51.41 26.6,55 22.373,55 L17.633,55 C13.403,55 12.943,51.41 9.523,47.44 C9.09239821,46.9358594 8.63507511,46.4551694 8.153,46 C4.093,42.14 4.373,38.76 4.533,35.04 C4.573,34.42 4.593,33.79 4.593,33.14 C4.593,30.02 3.732,28.45 3.412,23.49 C3.24902908,20.4955491 3.24902908,17.4944509 3.412,14.5 C4,1.64 18.813,1 18.813,1 L21.193,1 C21.193,1 36.003,1.64 36.593,14.5 C36.7559709,17.4944509 36.7559709,20.4955491 36.593,23.49 Z" id="Shape" fill="#35495E"/><path d="M18,16 L18,23 C18,23.5522847 17.5522847,24 17,24 L15,24 C14.4477153,24 14,23.5522847 14,23 L14,16 L18,16 Z" id="Shape" fill="#F3D55B"/><path d="M26,16 L26,23 C26,23.5522847 25.5522847,24 25,24 L23,24 C22.4477153,24 22,23.5522847 22,23 L22,16 L26,16 Z" id="Shape" fill="#F3D55B"/><rect id="Rectangle-path" fill="#F29C1F" x="18" y="18" width="4" height="2"/><path d="M4.593,33.14 C4.593,33.79 4.573,34.42 4.533,35.04 C0.783,33.1 0.153,28.64 0.153,28.64 C0.153,28.64 -0.467,22.85 0.792,22.22 C2.063,21.57 3.333,23.5 3.333,23.5 L3.412,23.49 C3.732,28.45 4.593,30.02 4.593,33.14 Z" id="Shape" fill="#2C3E50"/><path d="M39.852,28.64 C39.852,28.64 39.222,33.1 35.472,35.04 C35.433,34.42 35.412,33.79 35.412,33.14 C35.412,30.02 36.273,28.45 36.593,23.49 L36.672,23.5 C36.672,23.5 37.943,21.57 39.213,22.22 C40.472,22.85 39.852,28.64 39.852,28.64 Z" id="Shape" fill="#2C3E50"/><path d="M30.482,47.44 L30.482,56.96 C30.4820138,58.060676 29.5926623,58.9544966 28.492,58.96 L11.513,58.96 C10.4123377,58.9544966 9.52298624,58.060676 9.523,56.96 L9.523,47.44 C12.943,51.41 13.403,55 17.633,55 L22.373,55 C26.6,55 27.063,51.41 30.482,47.44 Z" id="Shape" fill="#2C3E50"/><path d="M49,28 C47.1541385,28.0043631 45.3255533,27.644491 43.619,26.941 C43.2844967,26.8077337 43.0474671,26.5049238 42.9984272,26.1482063 C42.9493873,25.7914887 43.0959101,25.4359497 43.382042,25.2173614 C43.6681739,24.998773 44.0497289,24.9508909 44.381,25.092 C48.0174003,26.5644355 52.1400281,26.1982774 55.46,24.108 C55.9250238,23.8097662 56.5437662,23.9449762 56.842,24.41 C57.1402338,24.8750238 57.0050238,25.4937662 56.54,25.792 C54.2902985,27.2355856 51.6730305,28.0020216 49,28 Z" id="Shape" fill="#E64C3C"/><path d="M56,4.05 C55.8089283,4.04990872 55.6218824,3.99507893 55.461,3.892 C51.522252,1.37956347 46.4865974,1.36865367 42.537,3.864 C42.2354657,4.07068676 41.8451781,4.09636154 41.5191661,3.93095746 C41.193154,3.76555337 40.9833806,3.43543412 40.9720963,3.07003706 C40.960812,2.70464 41.1498156,2.36220564 41.465,2.177 C46.0711747,-0.736977701 51.9468479,-0.724895858 56.541,2.208 C56.9151133,2.44769687 57.0862052,2.90549299 56.9609975,3.33180085 C56.8357899,3.75810872 56.444314,4.05067726 56,4.05 Z" id="Shape" fill="#E64C3C"/><path d="M58,14 C58.0113963,18.5897975 54.5671032,22.4528888 50.0060565,22.9659424 C45.4450098,23.4789961 41.2285618,20.4776304 40.22,16 L12,16 C10.8967981,15.9967052 10.0032948,15.1032019 10,14 C10.0081672,12.8988312 10.8988312,12.0081672 12,12 L40.22,12 C41.2285618,7.5223696 45.4450098,4.52100393 50.0060565,5.03405755 C54.5671032,5.54711117 58.0113963,9.4102025 58,14 Z" id="Shape" fill="#F0C419"/><rect id="Rectangle-path" fill="#E57E25" x="18" y="16" width="4" height="2"/><rect id="Rectangle-path" fill="#F0C419" x="14" y="16" width="4" height="2"/><rect id="Rectangle-path" fill="#F0C419" x="22" y="16" width="4" height="2"/><circle id="Oval" fill="#F29C1F" cx="52" cy="14" r="4"/><circle id="Oval" fill="#35495E" cx="52" cy="14" r="3"/></g></g></svg>
