<?xml version="1.0" encoding="UTF-8"?>
<svg xmlns="http://www.w3.org/2000/svg" xmlns:xlink="http://www.w3.org/1999/xlink" width="512" height="512" viewBox="0 0 59 59" version="1.1"><!-- Generator: Sketch 51.3 (57544) - http://www.bohemiancoding.com/sketch --><title>037 - Inner Peace</title><desc>Created with Sketch.</desc><defs/><g id="Page-1" stroke="none" stroke-width="1" fill="none" fill-rule="evenodd"><g id="037---Inner-Peace" fill-rule="nonzero"><path d="M17.851,51.3 C21.281,52.851 22.783,59 22.783,59 L47.883,58.931 C47.4121814,57.9546289 46.877696,57.01026 46.283,56.104 C45.810511,55.1362498 45.4139826,54.133227 45.097,53.104 C44.5096366,51.1153602 44.1029865,49.0777587 43.882,47.016 C43.5094179,43.8481972 43.9867593,40.6383095 45.265,37.716 C46.392,35.147 48.349,33.116 49.842,30.758 C51.3188424,28.4596935 52.1139104,25.7898183 52.135,23.058 C52.1906124,20.2905772 51.8508514,17.5293876 51.126,14.858 C50.1780466,11.6221548 48.200326,8.78389935 45.493,6.774 C40.534,2.881 35.474,0.707 29.069,1.033 C25.8638786,1.25537551 22.6793554,1.71226503 19.541,2.4 C16.123,3.088 12.504,4.366 10.051,6.956 C8.37766038,8.74409793 7.08486958,10.8533882 6.251,13.156 C5.86015176,14.3014161 5.54218297,15.470419 5.299,16.656 C4.88925592,17.9460342 4.39519171,19.2077519 3.82,20.433 C3.65089796,20.8060777 3.57735228,21.2153904 3.606,21.624 C3.8,23.008 5.874,23.6 5.89,25.029 C5.86887774,25.3447852 5.77179136,25.650796 5.607,25.921 C4.39034374,28.4921042 2.89684314,30.922815 1.153,33.17 C0.742,33.67 -0.095,34.67 0.009,35.384 C0.083,35.891 0.691,36.312 1.066,36.591 C1.866,37.185 3.495,37.591 3.698,38.663 C3.80398936,39.2088042 3.73831308,39.7740394 3.51,40.281 C2.956,41.447 2.343,42.07 2.778,42.436 C3.213,42.802 4.378,43.681 4.378,43.681 C4.378,43.681 3.272,45.094 3.884,45.529 C4.645,46.069 5.612,46.318 5.871,47.329 C5.94680483,48.1301298 5.86666115,48.9383584 5.635,49.709 C5.5563755,50.462975 5.65499664,51.2248918 5.923,51.934 C6.28395493,53.3522509 7.70070311,54.2321447 9.132,53.927 C12.083746,53.2098159 14.9943653,52.332858 17.851,51.3" id="Shape" fill="#4FBA6F"/><circle id="Oval" fill="#F3D55B" cx="39" cy="20" r="20"/><path d="M9.227,17.468 C8.96351193,17.4100801 8.73460382,17.2481569 8.59224806,17.0189942 C8.4498923,16.7898316 8.40616709,16.5128728 8.471,16.251 C8.62815969,15.5562533 8.82515171,14.8711218 9.061,14.199 C9.7565457,12.2744195 10.8341474,10.510391 12.229,9.013 C13.853,7.297 16.516,6.061 20.145,5.339 C20.4954775,5.2693332 20.856499,5.39193597 21.0920709,5.66062503 C21.3276429,5.9293141 21.4019765,6.30326919 21.2870709,6.64162505 C21.1721654,6.97998091 20.8854776,7.23133322 20.535,7.301 C17.321,7.94 15.015,8.978 13.682,10.387 C12.4735494,11.6868491 11.5402067,13.2174768 10.938,14.887 C10.7285574,15.4881971 10.5536061,16.1008605 10.414,16.722 C10.2880679,17.2528234 9.7599176,17.5847527 9.227,17.468 Z" id="Shape" fill="#7ED09E"/><circle id="Oval" fill="#7ED09E" cx="8" cy="21.001" r="1"/><path d="M39,39 C28.5065899,38.9999998 20.0000003,30.4934101 20.0000003,20 C20.0000003,9.50658986 28.5065899,1.00000016 39,1 C39.7925602,1.00159327 40.5843127,1.05068125 41.371,1.147 C50.8684682,2.35136158 57.9910017,10.4264788 58,20 C57.9911777,30.4897537 49.4897537,38.9911777 39,39 Z M42,32.652 C43.4340728,32.3084873 44.7990011,31.722745 46.036,30.92 L42,26.884 L42,32.652 Z M31.964,30.92 C33.2009989,31.722745 34.5659272,32.3084873 36,32.652 L36,26.884 L31.964,30.92 Z M50.2,26.594 C51.3837505,24.5985779 52.0057144,22.3201168 52,20 C51.9712231,13.9853886 47.8453124,8.76528643 42,7.348 L42,18.4 L50.2,26.594 Z M36,7.348 C30.1546876,8.76528643 26.0287769,13.9853886 26,20 C25.9942856,22.3201168 26.6162495,24.5985779 27.8,26.594 L36,18.4 L36,7.348 Z" id="Shape" fill="#894B9D"/><path d="M41.25,2.14 C40.5035164,2.0479278 39.7521394,2.00117545 39,2 C29.2839297,2.00538891 21.3276537,9.72463998 21.0285068,19.4361055 C20.72936,29.147571 28.195443,37.3418843 37.8927608,37.9452729 C47.5900786,38.5486616 56.0143771,31.3430832 56.9214147,21.669442 C57.8284522,11.9958008 50.8904589,3.34979517 41.25,2.14 Z M53,20 C53.0035333,22.9335838 52.0795003,25.793186 50.36,28.17 L41,18.81 L41,6.14 C47.8836449,7.14484693 52.9906227,13.0434063 53,20 Z M37,6.14 L37,18.81 L27.64,28.17 C24.7792499,24.1993319 24.2007757,19.0226302 26.1144962,14.5184355 C28.0282167,10.0142408 32.1560224,6.83712061 37,6.14 Z M37,24.47 L37,33.86 C34.5995734,33.5116607 32.3315548,32.5430996 30.42,31.05 L37,24.47 Z M41,33.86 L41,24.47 L47.58,31.05 C45.6684452,32.5430996 43.4004266,33.5116607 41,33.86 Z" id="Shape" fill="#955BA5"/></g></g></svg>
