<?xml version="1.0" encoding="UTF-8"?>
<svg xmlns="http://www.w3.org/2000/svg" xmlns:xlink="http://www.w3.org/1999/xlink" width="512" height="512" viewBox="0 0 40 58" version="1.1"><!-- Generator: Sketch 51.3 (57544) - http://www.bohemiancoding.com/sketch --><title>076 - Schizophrenia</title><desc>Created with Sketch.</desc><defs/><g id="Page-1" stroke="none" stroke-width="1" fill="none" fill-rule="evenodd"><g id="076---Schizophrenia" transform="translate(-1.000000, 0.000000)" fill-rule="nonzero"><path d="M40.208,21.22 C38.937,20.57 37.667,22.5 37.667,22.5 L37.588,22.49 C37.7509709,19.4955491 37.7509709,16.4944509 37.588,13.5 C37,0.64 22.187,0 22.187,0 L19.807,0 C19.807,0 5,0.64 4.407,13.5 C4.24402908,16.4944509 4.24402908,19.4955491 4.407,22.49 L4.328,22.5 C4.328,22.5 3.057,20.57 1.787,21.22 C0.528,21.85 1.148,27.64 1.148,27.64 C1.148,27.64 1.778,32.1 5.528,34.04 C5.367,37.76 5.088,41.14 9.148,45 C9.63007511,45.4551694 10.0873982,45.9358594 10.518,46.44 L10.518,55.96 C10.5179862,57.060676 11.4073377,57.9544966 12.508,57.96 L29.487,57.96 C30.5876623,57.9544966 31.4770138,57.060676 31.477,55.96 L31.477,46.44 C31.9076018,45.9358594 32.3649249,45.4551694 32.847,45 C36.907,41.14 36.627,37.76 36.467,34.04 C40.217,32.1 40.847,27.64 40.847,27.64 C40.847,27.64 41.467,21.85 40.208,21.22 Z" id="Shape" fill="#4482C3"/><path d="M5.588,32.14 C5.588,32.79 5.567,33.42 5.528,34.04 C1.778,32.1 1.148,27.64 1.148,27.64 C1.148,27.64 0.528,21.85 1.787,21.22 C3.057,20.57 4.328,22.5 4.328,22.5 L4.407,22.49 C4.727,27.45 5.588,29.02 5.588,32.14 Z" id="Shape" fill="#285680"/><path d="M37.588,22.49 C37.268,27.45 36.407,29.02 36.407,32.14 C36.407,32.79 36.427,33.42 36.467,34.04 C36.627,37.76 36.907,41.14 32.847,45 C32.3646691,45.4549126 31.9073326,45.9356167 31.477,46.44 C28.057,50.41 27.6,54 23.367,54 L18.627,54 C14.398,54 13.937,50.41 10.518,46.44 C10.0873982,45.9358594 9.63007511,45.4551694 9.148,45 C5.088,41.14 5.367,37.76 5.528,34.04 C5.567,33.42 5.588,32.79 5.588,32.14 C5.588,29.02 4.727,27.45 4.407,22.49 C4.24402908,19.4955491 4.24402908,16.4944509 4.407,13.5 C5,0.64 19.807,0 19.807,0 L22.187,0 C22.187,0 36.997,0.64 37.587,13.5 C37.750304,16.4944328 37.7506378,19.495531 37.588,22.49 Z" id="Shape" fill="#4482C3"/><path d="M40.847,27.64 C40.847,27.64 40.217,32.1 36.467,34.04 C36.427,33.42 36.407,32.79 36.407,32.14 C36.407,29.02 37.268,27.45 37.588,22.49 L37.667,22.5 C37.667,22.5 38.937,20.57 40.208,21.22 C41.467,21.85 40.847,27.64 40.847,27.64 Z" id="Shape" fill="#285680"/><path d="M31.477,46.44 L31.477,55.96 C31.4770138,57.060676 30.5876623,57.9544966 29.487,57.96 L12.507,57.96 C11.4067287,57.9539484 10.5179834,57.060288 10.518,55.96 L10.518,46.44 C13.937,50.41 14.4,54 18.627,54 L23.367,54 C27.6,54 28.057,50.41 31.477,46.44 Z" id="Shape" fill="#285680"/><path d="M27.457,26.008 C26.8077722,26.0081988 26.1607358,25.9326888 25.529,25.783 C24.3499422,25.4924152 23.2404308,24.9702922 22.265,24.247 C21.765,23.879 21.328,23.531 20.965,23.204 C19.732596,24.4495395 18.185826,25.3379992 16.489,25.775 L16.26,25.83 L16.233,25.83 C15.6820021,25.9469685 15.1202764,26.0059564 14.557,26.006 C14.1263952,26.0058996 13.6964442,25.9724664 13.271,25.906 C9.70363003,25.4389613 6.86252692,22.6916816 6.276,19.142 C5.88834052,16.2631932 6.15914281,13.3339467 7.068,10.575 C7.82930917,8.11250384 9.43391742,5.99698435 11.6,4.6 C13.9669343,3.13921002 16.6517774,2.27193639 19.426,2.072 L19.512,2.065 L19.6,2.065 L19.815,2.046 L22.08,2.046 C24.8168717,2.12922958 27.4896731,2.89436023 29.856,4.272 C32.6045298,5.87623185 34.5610751,8.55235111 35.256,11.658 C35.856,14.105 36.351,17.619 35.348,20.545 C35.1718846,21.0620744 34.945817,21.5607628 34.673,22.034 C33.126931,24.5281596 30.3913566,26.0346968 27.457,26.008 Z" id="Shape" fill="#285680"/><path d="M33.46,19.89 C33.326969,20.2822834 33.1561679,20.6607252 32.95,21.02 C31.6260389,23.1123168 29.219043,24.2594312 26.76,23.97 C26.5042659,23.9421109 26.2504642,23.8986975 26,23.84 C25.0755562,23.6084992 24.2056996,23.1973561 23.44,22.63 C23.14,22.41 20.76,20.39 21,20.04 C19.8675696,21.8773105 18.0926401,23.2281103 16.02,23.83 L16,23.83 C14.2992756,24.2317512 12.508235,23.9205796 11.0426829,22.9687263 C9.57713092,22.0168729 8.56454308,20.5071311 8.24,18.79 C7.90117126,16.2308313 8.15084316,13.6280873 8.97,11.18 C9.5899691,9.16018321 10.9040647,7.42458524 12.68,6.28 C14.7763337,4.99810996 17.1491696,4.23688227 19.6,4.06 C19.71,4.06 19.82,4.05 19.93,4.04 L22.08,4.04 C24.4673354,4.12244034 26.7969229,4.79589041 28.86,6 C31.132841,7.34067858 32.7478187,9.56398879 33.32,12.14 C33.89,14.47 34.28,17.5 33.46,19.89 Z" id="Shape" fill="#2C3E50"/><circle id="Oval" fill="#FDD7AD" cx="21" cy="10" r="3"/><path d="M26,18 L26,23.84 C25.0755562,23.6084992 24.2056996,23.1973561 23.44,22.63 C23.14,22.41 20.76,20.39 21,20.04 C19.8675696,21.8773105 18.0926401,23.2281103 16.02,23.83 L16,23.83 L16,18 C16,15.2385763 18.2385763,13 21,13 C23.7614237,13 26,15.2385763 26,18 Z" id="Shape" fill="#DF4D60"/><path d="M26,18 L26,22 C25.0755562,21.7684992 24.2056996,21.3573561 23.44,20.79 C23.14,20.57 20.76,18.55 21,18.2 C19.8675696,20.0373105 18.0926401,21.3881103 16.02,21.99 L16,21.99 L16,18 C16,15.2385763 18.2385763,13 21,13 C23.7614237,13 26,15.2385763 26,18 Z" id="Shape" fill="#FF5364"/></g></g></svg>
