<?xml version="1.0" encoding="UTF-8"?>
<svg xmlns="http://www.w3.org/2000/svg" xmlns:xlink="http://www.w3.org/1999/xlink" width="512" height="512" viewBox="0 0 57 58" version="1.1"><!-- Generator: Sketch 51.3 (57544) - http://www.bohemiancoding.com/sketch --><title>090 - Locked Mind</title><desc>Created with Sketch.</desc><defs/><g id="Page-1" stroke="none" stroke-width="1" fill="none" fill-rule="evenodd"><g id="090---Locked-Mind" transform="translate(-1.000000, 0.000000)" fill-rule="nonzero"><path d="M40.21,21.26 C38.94,20.61 37.67,22.54 37.67,22.54 L37.59,22.53 C37.7534816,19.535563 37.7534816,16.534437 37.59,13.54 C37,0.68 22.19,0.04 22.19,0.04 L19.81,0.04 C19.81,0.04 5,0.68 4.41,13.54 C4.2465184,16.534437 4.2465184,19.535563 4.41,22.53 L4.33,22.54 C4.33,22.54 3.06,20.61 1.79,21.26 C0.53,21.89 1.15,27.68 1.15,27.68 C1.15,27.68 1.78,32.14 5.53,34.08 C5.37,37.8 5.09,41.18 9.15,45.04 C9.63258763,45.4946547 10.0899378,45.9753732 10.52,46.48 L10.52,56 C10.5199862,57.100676 11.4093377,57.9944966 12.51,58 L29.49,58 C30.5906623,57.9944966 31.4800138,57.100676 31.48,56 L31.48,46.48 C31.9100622,45.9753732 32.3674124,45.4946547 32.85,45.04 C36.91,41.18 36.63,37.8 36.47,34.08 C40.22,32.14 40.85,27.68 40.85,27.68 C40.85,27.68 41.47,21.89 40.21,21.26 Z" id="Shape" fill="#35495E"/><path d="M37.59,22.53 C37.27,27.49 36.41,29.06 36.41,32.18 C36.41,32.83 36.43,33.46 36.47,34.08 C36.63,37.8 36.91,41.18 32.85,45.04 C32.3674124,45.4946547 31.9100622,45.9753732 31.48,46.48 C28.06,50.45 27.6,54.04 23.37,54.04 L18.63,54.04 C14.4,54.04 13.94,50.45 10.52,46.48 C10.0899378,45.9753732 9.63258763,45.4946547 9.15,45.04 C5.09,41.18 5.37,37.8 5.53,34.08 C5.57,33.46 5.59,32.83 5.59,32.18 C5.59,29.06 4.73,27.49 4.41,22.53 C4.2465184,19.535563 4.2465184,16.534437 4.41,13.54 C5,0.68 19.81,0.04 19.81,0.04 L22.19,0.04 C22.19,0.04 37,0.68 37.59,13.54 C37.7534816,16.534437 37.7534816,19.535563 37.59,22.53 Z" id="Shape" fill="#35495E"/><path d="M55,11 L55,16 L51,16 L51,11 C51,7.13400675 47.8659932,4 44,4 C40.1340068,4 37,7.13400675 37,11 L37,16 L33,16 L33,11 C33,4.92486775 37.9248678,2.22044605e-16 44,-8.8817842e-16 C50.0751322,-1.99840144e-15 55,4.92486775 55,11 Z" id="Shape" fill="#BDC3C7"/><path d="M5.59,32.18 C5.59,32.83 5.57,33.46 5.53,34.08 C1.78,32.14 1.15,27.68 1.15,27.68 C1.15,27.68 0.53,21.89 1.79,21.26 C3.06,20.61 4.33,22.54 4.33,22.54 L4.41,22.53 C4.73,27.49 5.59,29.06 5.59,32.18 Z" id="Shape" fill="#2C3E50"/><path d="M31.482,46.48 L31.482,56 C31.4820138,57.100676 30.5926623,57.9944966 29.492,58 L12.513,58 C11.4123377,57.9944966 10.5229862,57.100676 10.523,56 L10.523,46.48 C13.943,50.45 14.403,54.04 18.633,54.04 L23.373,54.04 C27.6,54.04 28.063,50.45 31.482,46.48 Z" id="Shape" fill="#2C3E50"/><rect id="Rectangle-path" fill="#E4C05C" x="30" y="16" width="28" height="20" rx="2"/><rect id="Rectangle-path" fill="#95A5A5" x="33" y="14" width="4" height="2"/><rect id="Rectangle-path" fill="#95A5A5" x="51" y="14" width="4" height="2"/><path d="M42.133,33.124 C41.5590768,33.1241609 41.0127414,32.8777574 40.6329581,32.4474639 C40.2531748,32.0171703 40.0765465,31.4444579 40.148,30.875 L40.732,27.784 C38.9848967,26.2752181 38.497785,23.7665111 39.5533099,21.7135474 C40.6088348,19.6605836 42.93259,18.597075 45.1762246,19.1401186 C47.4198593,19.6831621 49.0000927,21.6915822 49,24 C49.0032916,25.4538836 48.3709431,26.8365751 47.269,27.785 L47.842,30.813 C47.9309932,31.4006647 47.7573144,31.9977542 47.367,32.446 C46.9874941,32.8768259 46.4411391,33.1237784 45.867,33.124 L42.133,33.124 Z" id="Shape" fill="#B19046"/><path d="M46.17,27.36 L46.859,31 C46.8945602,31.2845624 46.80624,31.570697 46.6164778,31.7857099 C46.4267155,32.0007228 46.1537756,32.1239191 45.867,32.124 L42.133,32.124 C41.8462244,32.1239191 41.5732845,32.0007228 41.3835222,31.7857099 C41.19376,31.570697 41.1054398,31.2845624 41.141,31 L41.83,27.36 C40.3401894,26.3978946 39.6617521,24.5696781 40.1632766,22.8686032 C40.6648011,21.1675284 42.2265338,19.9997768 44,19.9997768 C45.7734662,19.9997768 47.3351989,21.1675284 47.8367234,22.8686032 C48.3382479,24.5696781 47.6598106,26.3978946 46.17,27.36 Z" id="Shape" fill="#35495E"/><path d="M36,20 C36,20.5522847 35.5522847,21 35,21 L30,21 L30,19 L35,19 C35.5522847,19 36,19.4477153 36,20 Z" id="Shape" fill="#B19046"/><path d="M36,24 C36,24.5522847 35.5522847,25 35,25 L30,25 L30,23 L35,23 C35.5522847,23 36,23.4477153 36,24 Z" id="Shape" fill="#B19046"/><path d="M36,28 C36,28.5522847 35.5522847,29 35,29 L30,29 L30,27 L35,27 C35.5522847,27 36,27.4477153 36,28 Z" id="Shape" fill="#B19046"/><path d="M36,32 C36,32.5522847 35.5522847,33 35,33 L30,33 L30,31 L35,31 C35.5522847,31 36,31.4477153 36,32 Z" id="Shape" fill="#B19046"/><path d="M58,19 L58,21 L53,21 C52.4477153,21 52,20.5522847 52,20 C52,19.4477153 52.4477153,19 53,19 L58,19 Z" id="Shape" fill="#B19046"/><path d="M58,23 L58,25 L53,25 C52.4477153,25 52,24.5522847 52,24 C52,23.4477153 52.4477153,23 53,23 L58,23 Z" id="Shape" fill="#B19046"/><path d="M58,27 L58,29 L53,29 C52.4477153,29 52,28.5522847 52,28 C52,27.4477153 52.4477153,27 53,27 L58,27 Z" id="Shape" fill="#B19046"/><path d="M58,31 L58,33 L53,33 C52.4477153,33 52,32.5522847 52,32 C52,31.4477153 52.4477153,31 53,31 L58,31 Z" id="Shape" fill="#B19046"/></g></g></svg>
