<?xml version="1.0" encoding="UTF-8"?>
<svg xmlns="http://www.w3.org/2000/svg" xmlns:xlink="http://www.w3.org/1999/xlink" width="512" height="512" viewBox="0 0 58 58" version="1.1"><!-- Generator: Sketch 51.3 (57544) - http://www.bohemiancoding.com/sketch --><title>065 - Study</title><desc>Created with Sketch.</desc><defs/><g id="Page-1" stroke="none" stroke-width="1" fill="none" fill-rule="evenodd"><g id="065---Study" fill-rule="nonzero"><path d="M39.213,21.22 C37.943,20.57 36.672,22.5 36.672,22.5 L36.593,22.49 C36.7559709,19.4955491 36.7559709,16.4944509 36.593,13.5 C36,0.64 21.193,0 21.193,0 L18.813,0 C18.813,0 4,0.64 3.412,13.5 C3.24902908,16.4944509 3.24902908,19.4955491 3.412,22.49 L3.333,22.5 C3.333,22.5 2.063,20.57 0.792,21.22 C-0.467,21.85 0.153,27.64 0.153,27.64 C0.153,27.64 0.783,32.1 4.533,34.04 C4.373,37.76 4.093,41.14 8.153,45 C8.63533088,45.4549126 9.09266744,45.9356167 9.523,46.44 L9.523,55.96 C9.52298624,57.060676 10.4123377,57.9544966 11.513,57.96 L28.493,57.96 C29.5932713,57.9539484 30.4820166,57.060288 30.482,55.96 L30.482,46.44 C30.9126018,45.9358594 31.3699249,45.4551694 31.852,45 C35.912,41.14 35.633,37.76 35.472,34.04 C39.222,32.1 39.852,27.64 39.852,27.64 C39.852,27.64 40.472,21.85 39.213,21.22 Z" id="Shape" fill="#4FBA6F"/><path d="M4.593,32.14 C4.593,32.79 4.573,33.42 4.533,34.04 C0.783,32.1 0.153,27.64 0.153,27.64 C0.153,27.64 -0.467,21.85 0.792,21.22 C2.063,20.57 3.333,22.5 3.333,22.5 L3.412,22.49 C3.732,27.45 4.593,29.02 4.593,32.14 Z" id="Shape" fill="#24AE5F"/><path d="M36.593,22.49 C36.273,27.45 35.412,29.02 35.412,32.14 C35.412,32.79 35.433,33.42 35.472,34.04 C35.633,37.76 35.912,41.14 31.852,45 C31.3699249,45.4551694 30.9126018,45.9358594 30.482,46.44 C27.063,50.41 26.6,54 22.373,54 L17.633,54 C13.403,54 12.943,50.41 9.523,46.44 C9.09239821,45.9358594 8.63507511,45.4551694 8.153,45 C4.093,41.14 4.373,37.76 4.533,34.04 C4.573,33.42 4.593,32.79 4.593,32.14 C4.593,29.02 3.732,27.45 3.412,22.49 C3.24902908,19.4955491 3.24902908,16.4944509 3.412,13.5 C4,0.64 18.813,0 18.813,0 L21.193,0 C21.193,0 36.003,0.64 36.593,13.5 C36.7559709,16.4944509 36.7559709,19.4955491 36.593,22.49 Z" id="Shape" fill="#4FBA6F"/><path d="M39.852,27.64 C39.852,27.64 39.222,32.1 35.472,34.04 C35.433,33.42 35.412,32.79 35.412,32.14 C35.412,29.02 36.273,27.45 36.593,22.49 L36.672,22.5 C36.672,22.5 37.943,20.57 39.213,21.22 C40.472,21.85 39.852,27.64 39.852,27.64 Z" id="Shape" fill="#802D40"/><path d="M30.482,46.44 L30.482,55.96 C30.4820138,57.060676 29.5926623,57.9544966 28.492,57.96 L11.513,57.96 C10.4123377,57.9544966 9.52298624,57.060676 9.523,55.96 L9.523,46.44 C12.943,50.41 13.403,54 17.633,54 L22.373,54 C26.6,54 27.063,50.41 30.482,46.44 Z" id="Shape" fill="#24AE5F"/><path d="M58,7.94 L58,32.06 C58.0016663,32.5759388 57.5859271,32.9961483 57.07,33 L42.93,33 C42.6830344,32.9996049 42.4458773,33.0966237 42.27,33.27 C42.1988832,33.3425328 42.1413103,33.4271988 42.1,33.52 C42.0318986,33.6457682 41.9974517,33.7870002 42,33.93 L42,35.06 C42.0016663,35.5759388 41.5859271,35.9961483 41.07,36 L34.94,36 C34.4240729,35.9961483 34.0083337,35.5759388 34.01,35.06 L34.01,33.93 C34.0030068,33.4192999 33.5907001,33.0069932 33.08,33 L18.93,33 C18.4140729,32.9961483 17.9983337,32.5759388 18,32.06 L18,7.94 C17.9983337,7.42406122 18.4140729,7.00385173 18.93,7 L57.07,7 C57.5859271,7.00385173 58.0016663,7.42406122 58,7.94 Z" id="Shape" fill="#805333"/><path d="M58,7.94 L58,30.06 C58.0016663,30.5759388 57.5859271,30.9961483 57.07,31 L42.93,31 C42.6826942,30.9978447 42.4448908,31.0951343 42.2700125,31.2700125 C42.0951343,31.4448908 41.9978447,31.6826942 42,31.93 L42,33.06 C41.9970462,33.1863303 41.9733992,33.3113216 41.93,33.43 C41.7788667,33.7713238 41.4432352,33.9937773 41.07,34 L34.94,34 C34.5667648,33.9937773 34.2311333,33.7713238 34.08,33.43 C34.0366008,33.3113216 34.0129538,33.1863303 34.01,33.06 L34.01,31.93 C34.0072667,31.4175116 33.5924884,31.0027333 33.08,31 L18.93,31 C18.4140729,30.9961483 17.9983337,30.5759388 18,30.06 L18,7.94 C17.9983337,7.42406122 18.4140729,7.00385173 18.93,7 L57.07,7 C57.5859271,7.00385173 58.0016663,7.42406122 58,7.94 Z" id="Shape" fill="#CB8252"/><path d="M38,32.955 C37.4477153,32.955 37,32.5072847 37,31.955 L37,28 C37,27.4477153 37.4477153,27 38,27 C38.5522847,27 39,27.4477153 39,28 L39,31.955 C39,32.5072847 38.5522847,32.955 38,32.955 Z" id="Shape" fill="#805333"/><path d="M38,28 L38,29 L22.89,29 C22.3694873,28.96675 21.9726413,28.5208555 22,28 L22,24 L34.44,24 C36.5241095,24.1287716 38.1138736,25.9150234 38,28 Z" id="Shape" fill="#FAC176"/><path d="M38,7.73 L38,28 C38.1138736,25.9150234 36.5241095,24.1287716 34.44,24 L22,24 L22,4.93 C21.991044,4.42823563 22.3883267,4.01309761 22.89,4 L34.44,4 C35.4068008,4.02228241 36.3251202,4.42784732 36.9928054,5.12741633 C37.6604905,5.82698534 38.0228082,6.76321146 38,7.73 Z" id="Shape" fill="#F9EAB0"/><path d="M54,4.93 L54,24 L41.56,24 C39.4758905,24.1287716 37.8861264,25.9150234 38,28 L38,7.73 C37.9771918,6.76321146 38.3395095,5.82698534 39.0071946,5.12741633 C39.6748798,4.42784732 40.5931992,4.02228241 41.56,4 L53.11,4 C53.6116733,4.01309761 54.008956,4.42823563 54,4.93 Z" id="Shape" fill="#F5EFCA"/><path d="M54,24 L54,28 C54.0273587,28.5208555 53.6305127,28.96675 53.11,29 L38,29 L38,28 C37.8861264,25.9150234 39.4758905,24.1287716 41.56,24 L54,24 Z" id="Shape" fill="#FAC176"/><path d="M34,10 L26,10 C25.4477153,10 25,9.55228475 25,9 C25,8.44771525 25.4477153,8 26,8 L34,8 C34.5522847,8 35,8.44771525 35,9 C35,9.55228475 34.5522847,10 34,10 Z" id="Shape" fill="#35495E"/><path d="M34,15 L26,15 C25.4477153,15 25,14.5522847 25,14 C25,13.4477153 25.4477153,13 26,13 L34,13 C34.5522847,13 35,13.4477153 35,14 C35,14.5522847 34.5522847,15 34,15 Z" id="Shape" fill="#35495E"/><path d="M34,20 L26,20 C25.4477153,20 25,19.5522847 25,19 C25,18.4477153 25.4477153,18 26,18 L34,18 C34.5522847,18 35,18.4477153 35,19 C35,19.5522847 34.5522847,20 34,20 Z" id="Shape" fill="#35495E"/><path d="M50,10 L42,10 C41.4477153,10 41,9.55228475 41,9 C41,8.44771525 41.4477153,8 42,8 L50,8 C50.5522847,8 51,8.44771525 51,9 C51,9.55228475 50.5522847,10 50,10 Z" id="Shape" fill="#35495E"/><path d="M50,15 L42,15 C41.4477153,15 41,14.5522847 41,14 C41,13.4477153 41.4477153,13 42,13 L50,13 C50.5522847,13 51,13.4477153 51,14 C51,14.5522847 50.5522847,15 50,15 Z" id="Shape" fill="#35495E"/><path d="M50,20 L42,20 C41.4477153,20 41,19.5522847 41,19 C41,18.4477153 41.4477153,18 42,18 L50,18 C50.5522847,18 51,18.4477153 51,19 C51,19.5522847 50.5522847,20 50,20 Z" id="Shape" fill="#35495E"/></g></g></svg>
