<?xml version="1.0" encoding="UTF-8"?>
<svg xmlns="http://www.w3.org/2000/svg" xmlns:xlink="http://www.w3.org/1999/xlink" width="512" height="512" viewBox="0 0 58 58" version="1.1"><!-- Generator: Sketch 51.3 (57544) - http://www.bohemiancoding.com/sketch --><title>004 - Carrying Boxes</title><desc>Created with Sketch.</desc><defs/><g id="Page-1" stroke="none" stroke-width="1" fill="none" fill-rule="evenodd"><g id="004---Carrying-Boxes" fill-rule="nonzero"><path d="M6,56 C6.0032402,57.1032246 6.89677542,57.9967598 8,58 L50,58 C51.1032246,57.9967598 51.9967598,57.1032246 52,56 L52,31 C51.9967598,29.8967754 51.1032246,29.0032402 50,29 L8,29 C6.89677542,29.0032402 6.0032402,29.8967754 6,31 L6,56 Z" id="Shape" fill="#7F5B53"/><path d="M8,54.1379 C7.99326238,55.1550749 8.80898735,55.9868812 9.8261,56 L48.1739,56 C49.1910127,55.9868812 50.0067376,55.1550749 50,54.1379 L50,30.8621 C50.0067376,29.8449251 49.1910127,29.0131188 48.1739,29 L9.8261,29 C8.80898735,29.0131188 7.99326238,29.8449251 8,30.8621 L8,54.1379 Z" id="Shape" fill="#AF8066"/><rect id="Rectangle-path" fill="#7F5B53" x="4" y="0" width="46" height="29" rx="2"/><rect id="Rectangle-path" fill="#AF8066" x="6" y="0" width="42" height="27" rx="2"/><rect id="Rectangle-path" fill="#FAC176" x="16" y="0" width="22" height="8" rx="1"/><rect id="Rectangle-path" fill="#FAC176" x="18" y="29" width="22" height="8" rx="1"/><rect id="Rectangle-path" fill="#ECF0F1" x="19" y="41" width="20" height="12" rx="1"/><path d="M23,46 C22.8693227,45.99842 22.7402223,45.971241 22.62,45.92 C22.4989365,45.869126 22.3873598,45.7981227 22.29,45.71 C22.1073844,45.5182897 22.0038214,45.2647389 22,45 C22.00158,44.8693227 22.028759,44.7402223 22.08,44.62 C22.1307152,44.4988534 22.2017349,44.3872512 22.29,44.29 C22.3855506,44.1995308 22.497577,44.1282413 22.62,44.08 C22.9923971,43.9234033 23.4224393,44.0062554 23.71,44.29 C23.7981227,44.3873598 23.869126,44.4989365 23.92,44.62 C23.9760488,44.7386567 24.003451,44.868817 24,45 C24.0027011,45.2660353 23.8982118,45.5219616 23.7100867,45.7100867 C23.5219616,45.8982118 23.2660353,46.0027011 23,46 Z" id="Shape" fill="#35495E"/><path d="M35,46 L27,46 C26.4477153,46 26,45.5522847 26,45 C26,44.4477153 26.4477153,44 27,44 L35,44 C35.5522847,44 36,44.4477153 36,45 C36,45.5522847 35.5522847,46 35,46 Z" id="Shape" fill="#35495E"/><path d="M35,50 L32,50 C31.4477153,50 31,49.5522847 31,49 C31,48.4477153 31.4477153,48 32,48 L35,48 C35.5522847,48 36,48.4477153 36,49 C36,49.5522847 35.5522847,50 35,50 Z" id="Shape" fill="#35495E"/><path d="M28,50 L23,50 C22.4477153,50 22,49.5522847 22,49 C22,48.4477153 22.4477153,48 23,48 L28,48 C28.5522847,48 29,48.4477153 29,49 C29,49.5522847 28.5522847,50 28,50 Z" id="Shape" fill="#35495E"/><rect id="Rectangle-path" fill="#ECF0F1" x="17" y="12" width="20" height="12" rx="1"/><path d="M21,17 C20.8693227,16.99842 20.7402223,16.971241 20.62,16.92 C20.4989365,16.869126 20.3873598,16.7981227 20.29,16.71 C20.1073844,16.5182897 20.0038214,16.2647389 20,16 C20.00158,15.8693227 20.028759,15.7402223 20.08,15.62 C20.1307152,15.4988534 20.2017349,15.3872512 20.29,15.29 C20.3855506,15.1995308 20.497577,15.1282413 20.62,15.08 C20.9923971,14.9234033 21.4224393,15.0062554 21.71,15.29 C21.7981227,15.3873598 21.869126,15.4989365 21.92,15.62 C21.9760488,15.7386567 22.003451,15.868817 22,16 C22.0027011,16.2660353 21.8982118,16.5219616 21.7100867,16.7100867 C21.5219616,16.8982118 21.2660353,17.0027011 21,17 Z" id="Shape" fill="#35495E"/><path d="M33,17 L25,17 C24.4477153,17 24,16.5522847 24,16 C24,15.4477153 24.4477153,15 25,15 L33,15 C33.5522847,15 34,15.4477153 34,16 C34,16.5522847 33.5522847,17 33,17 Z" id="Shape" fill="#35495E"/><path d="M33,21 L30,21 C29.4477153,21 29,20.5522847 29,20 C29,19.4477153 29.4477153,19 30,19 L33,19 C33.5522847,19 34,19.4477153 34,20 C34,20.5522847 33.5522847,21 33,21 Z" id="Shape" fill="#35495E"/><path d="M26,21 L21,21 C20.4477153,21 20,20.5522847 20,20 C20,19.4477153 20.4477153,19 21,19 L26,19 C26.5522847,19 27,19.4477153 27,20 C27,20.5522847 26.5522847,21 26,21 Z" id="Shape" fill="#35495E"/><path d="M15.9925,46.1768 C15.8629183,47.2345985 14.9534686,48.0224857 13.888,48 L12,48 C12.5599321,48.0038744 13.092951,48.2407858 13.4710208,48.6538259 C13.8490907,49.066866 14.0380467,49.61871 13.9925,50.1768 C13.8629183,51.2345985 12.9534686,52.0224857 11.888,52 L10,52 C10.5599231,52.0038467 11.0929432,52.2407355 11.4710162,52.6537601 C11.8490893,53.0667848 12.038048,53.6186194 11.9925,54.1767 C11.8629654,55.2345383 10.9535025,56.0224802 9.888,56 L4,56 C1.790861,56 2.22044605e-16,54.209139 0,52 L0,45.9409 C1.02936437e-05,43.3637155 0.711401406,40.8365434 2.0558,38.6378 L4.28,35 C4.47262302,34.6605126 4.76141982,34.3856337 5.11,34.21 L9.11,32.21 C10.0985897,31.7184666 11.2984666,32.1214103 11.79,33.11 C12.2815334,34.0985897 11.8785897,35.2984666 10.89,35.79 L9,36.74 L7.49,37.49 L6.24,40 L12,40 C13.1012587,40.0079524 13.9920476,40.8987413 14,42 C13.9967598,43.1032246 13.1032246,43.9967598 12,44 L14,44 C14.5599321,44.0038744 15.092951,44.2407858 15.4710208,44.6538259 C15.8490907,45.066866 16.0380467,45.61871 15.9925,46.1768 Z" id="Shape" fill="#FDD7AD"/><path d="M42.0075,46.1768 C42.1370817,47.2345985 43.0465314,48.0224857 44.112,48 L46,48 C45.4400679,48.0038744 44.907049,48.2407858 44.5289792,48.6538259 C44.1509093,49.066866 43.9619533,49.61871 44.0075,50.1768 C44.1370817,51.2345985 45.0465314,52.0224857 46.112,52 L48,52 C47.4400769,52.0038467 46.9070568,52.2407355 46.5289838,52.6537601 C46.1509107,53.0667848 45.961952,53.6186194 46.0075,54.1767 C46.1370346,55.2345383 47.0464975,56.0224802 48.112,56 L54,56 C56.209139,56 58,54.209139 58,52 L58,45.9409 C57.9999897,43.3637155 57.2885986,40.8365434 55.9442,38.6378 L53.72,35 C53.527377,34.6605126 53.2385802,34.3856337 52.89,34.21 L48.89,32.21 C48.2504946,31.8920336 47.4899342,31.9393926 46.8948145,32.3342373 C46.2996948,32.7290821 45.9604287,33.4114262 46.0048144,34.1242374 C46.0492002,34.8370485 46.4704946,35.4720336 47.11,35.79 L49,36.74 L50.51,37.49 L51.76,40 L46,40 C44.8987413,40.0079524 44.0079524,40.8987413 44,42 C44.0032402,43.1032246 44.8967754,43.9967598 46,44 L44,44 C43.4400679,44.0038744 42.907049,44.2407858 42.5289792,44.6538259 C42.1509093,45.066866 41.9619533,45.61871 42.0075,46.1768 Z" id="Shape" fill="#FDD7AD"/><path d="M12,45 L8,45 C7.44771525,45 7,44.5522847 7,44 C7,43.4477153 7.44771525,43 8,43 L12,43 C12.5522847,43 13,43.4477153 13,44 C13,44.5522847 12.5522847,45 12,45 Z" id="Shape" fill="#F09372"/><path d="M12,49 L8,49 C7.44771525,49 7,48.5522847 7,48 C7,47.4477153 7.44771525,47 8,47 L12,47 C12.5522847,47 13,47.4477153 13,48 C13,48.5522847 12.5522847,49 12,49 Z" id="Shape" fill="#F09372"/><path d="M10,53 L8,53 C7.44771525,53 7,52.5522847 7,52 C7,51.4477153 7.44771525,51 8,51 L10,51 C10.5522847,51 11,51.4477153 11,52 C11,52.5522847 10.5522847,53 10,53 Z" id="Shape" fill="#F09372"/><path d="M50,45 L46,45 C45.4477153,45 45,44.5522847 45,44 C45,43.4477153 45.4477153,43 46,43 L50,43 C50.5522847,43 51,43.4477153 51,44 C51,44.5522847 50.5522847,45 50,45 Z" id="Shape" fill="#F09372"/><path d="M50,49 L46,49 C45.4477153,49 45,48.5522847 45,48 C45,47.4477153 45.4477153,47 46,47 L50,47 C50.5522847,47 51,47.4477153 51,48 C51,48.5522847 50.5522847,49 50,49 Z" id="Shape" fill="#F09372"/><path d="M50,53 L48,53 C47.4477153,53 47,52.5522847 47,52 C47,51.4477153 47.4477153,51 48,51 L50,51 C50.5522847,51 51,51.4477153 51,52 C51,52.5522847 50.5522847,53 50,53 Z" id="Shape" fill="#F09372"/></g></g></svg>
