<?xml version="1.0" encoding="UTF-8"?>
<svg xmlns="http://www.w3.org/2000/svg" xmlns:xlink="http://www.w3.org/1999/xlink" width="512" height="512" viewBox="0 0 58 59" version="1.1"><!-- Generator: Sketch 51.3 (57544) - http://www.bohemiancoding.com/sketch --><title>020 - Moving House</title><desc>Created with Sketch.</desc><defs/><g id="Page-1" stroke="none" stroke-width="1" fill="none" fill-rule="evenodd"><g id="020---Moving-House" fill-rule="nonzero"><path d="M4,9 L4,27 C4,27.5522847 4.44771525,28 5,28 L25,28 C25.5522847,28 26,27.5522847 26,27 L26,9 L15,5 L4,9 Z" id="Shape" fill="#2FA8CC"/><path d="M5,9 L5,27 C4.97611334,27.5267459 5.38246749,27.973731 5.9091,28 L24.0909,28 C24.6175325,27.973731 25.0238867,27.5267459 25,27 L25,9 L15,5 L5,9 Z" id="Shape" fill="#67B9CC"/><path d="M12,21 L18,21 L18,25 C18,26.6568542 16.6568542,28 15,28 C13.3431458,28 12,26.6568542 12,25 L12,21 Z" id="Shape" fill="#59474E" transform="translate(15.000000, 24.500000) rotate(-180.000000) translate(-15.000000, -24.500000) "/><path d="M17,14 L17,18 C17.0015928,18.5516236 17.4483764,18.9984072 18,19 L22,19 C22.2311368,19.0034052 22.4554241,18.9215225 22.63,18.77 C22.8655595,18.5841914 23.0021121,18.3000144 23,18 L23,14 C22.9984072,13.4483764 22.5516236,13.0015928 22,13 L18,13 C17.4483764,13.0015928 17.0015928,13.4483764 17,14 Z" id="Shape" fill="#35495E"/><path d="M7,14 L7,18 C7.00159279,18.5516236 7.44837635,18.9984072 8,19 L12,19 C12.2311368,19.0034052 12.4554241,18.9215225 12.63,18.77 C12.8655595,18.5841914 13.0021121,18.3000144 13,18 L13,14 C12.9984072,13.4483764 12.5516236,13.0015928 12,13 L8,13 C7.44837635,13.0015928 7.00159279,13.4483764 7,14 Z" id="Shape" fill="#35495E"/><path d="M26,7 L26,1.0189 C26.004939,0.461509173 25.5573856,0.00549705642 25,0 L23,0 C22.4426144,0.00549705642 21.995061,0.461509173 22,1.0189 L22,4.83 L26,7 Z" id="Shape" fill="#E57E25"/><path d="M-4.915959e-16,10.32 C-0.00281969926,11.0952629 0.402254315,11.8148889 1.06649785,12.2146651 C1.73074139,12.6144413 2.55627446,12.6354584 3.24,12.27 L15,6 L26.76,12.27 C27.4438541,12.6341268 28.2686713,12.6124701 28.9324751,12.2129586 C29.5962788,11.8134471 30.0015828,11.0947531 30,10.32 C29.9990046,10.0635972 29.9515722,9.80949513 29.86,9.57 C29.6766072,9.0590424 29.3093784,8.63476833 28.83,8.38 L15,1 L1.17,8.38 C0.690621582,8.63476833 0.323392761,9.0590424 0.14,9.57 C0.0484278077,9.80949513 0.000995420221,10.0635972 -4.915959e-16,10.32 Z" id="Shape" fill="#C03A2B"/><path d="M0.14,9.57 C0.362481037,10.1645016 0.830723024,10.6340535 1.42460079,10.8581945 C2.01847857,11.0823354 2.68019864,11.0392531 3.24,10.74 L15,4.47 L26.76,10.74 C27.3200887,11.0375478 27.9811234,11.0797276 28.574488,10.8557803 C29.1678527,10.631833 29.6361765,10.1634114 29.86,9.57 C29.6766072,9.0590424 29.3093784,8.63476833 28.83,8.38 L15,1 L1.17,8.38 C0.690621582,8.63476833 0.323392761,9.0590424 0.14,9.57 Z" id="Shape" fill="#D25627"/><path d="M17,14.9 L17,18 C17.0015928,18.5516236 17.4483764,18.9984072 18,19 L22,19 C22.2311368,19.0034052 22.4554241,18.9215225 22.63,18.77 C21.8599955,16.3436812 19.5411308,14.7497191 17,14.9 Z" id="Shape" fill="#2C3E50"/><path d="M7,14.9 L7,18 C7.00159279,18.5516236 7.44837635,18.9984072 8,19 L12,19 C12.2311368,19.0034052 12.4554241,18.9215225 12.63,18.77 C11.8599955,16.3436812 9.5411308,14.7497191 7,14.9 Z" id="Shape" fill="#2C3E50"/><path d="M54,40 L54,58 C54,58.5522847 53.5522847,59 53,59 L33,59 C32.4477153,59 32,58.5522847 32,58 L32,40 L43,36 L54,40 Z" id="Shape" fill="#F0C419"/><path d="M53,40 L53,58 C53.0238867,58.5267459 52.6175325,58.973731 52.0909,59 L33.9091,59 C33.3824675,58.973731 32.9761133,58.5267459 33,58 L33,40 L43,36 L53,40 Z" id="Shape" fill="#F3D55B"/><path d="M43,52 C44.6568542,52 46,53.3431458 46,55 L46,59 L40,59 L40,55 C40,53.3431458 41.3431458,52 43,52 Z" id="Shape" fill="#7F5B53"/><path d="M41,45 L41,49 C40.9984072,49.5516236 40.5516236,49.9984072 40,50 L36,50 C35.7688632,50.0034052 35.5445759,49.9215225 35.37,49.77 C35.1344405,49.5841914 34.9978879,49.3000144 35,49 L35,45 C35.0015928,44.4483764 35.4483764,44.0015928 36,44 L40,44 C40.5516236,44.0015928 40.9984072,44.4483764 41,45 Z" id="Shape" fill="#35495E"/><path d="M51,45 L51,49 C50.9984072,49.5516236 50.5516236,49.9984072 50,50 L46,50 C45.7688632,50.0034052 45.5445759,49.9215225 45.37,49.77 C45.1344405,49.5841914 44.9978879,49.3000144 45,49 L45,45 C45.0015928,44.4483764 45.4483764,44.0015928 46,44 L50,44 C50.5516236,44.0015928 50.9984072,44.4483764 51,45 Z" id="Shape" fill="#35495E"/><path d="M32,38 L32,32.0189 C31.995061,31.4615092 32.4426144,31.0054971 33,31 L35,31 C35.5573856,31.0054971 36.004939,31.4615092 36,32.0189 L36,35.83 L32,38 Z" id="Shape" fill="#E57E25"/><path d="M27.4643,51.6 C27.5905955,51.6943928 27.6649678,51.8428277 27.6649678,52.0005 C27.6649678,52.1581723 27.5905955,52.3066072 27.4643,52.401 L24.91,54.31 L24.68,54.49 L20.8,57.4 C20.6484912,57.5136316 20.4457852,57.5319096 20.2763932,57.4472136 C20.1070012,57.3625176 20,57.189386 20,57 L20,55.28 C19.997719,55.0283835 19.8077099,54.8181881 19.5576,54.7906 C5.8215,53.1444 0.7621,41.6528 0.02,35.35 C-0.168191128,33.7084721 1.00588736,32.2236021 2.64656677,32.0281521 C4.28724618,31.832702 5.77729482,33.0002012 5.98,34.64 C6.0489,35.2106 7.6665,46.7387 19.4135,48.7107 C19.5596463,48.7334922 19.7084709,48.6914811 19.8211265,48.5956325 C19.9337822,48.499784 19.9990889,48.3596101 20,48.2117 L20,47 C20,46.810614 20.1070012,46.6374824 20.2763932,46.5527864 C20.4457852,46.4680904 20.6484912,46.4863684 20.8,46.6 L24.68,49.51 L24.91,49.69 L27.4643,51.6 Z" id="Shape" fill="#FF5364"/><path d="M51.6,28.4643 C51.6943928,28.5905955 51.8428277,28.6649678 52.0005,28.6649678 C52.1581723,28.6649678 52.3066072,28.5905955 52.401,28.4643 L54.31,25.91 L54.49,25.68 L57.4,21.8 C57.5136316,21.6484912 57.5319096,21.4457852 57.4472136,21.2763932 C57.3625176,21.1070012 57.189386,21 57,21 L55.28,21 C55.0283835,20.997719 54.8181881,20.8077099 54.7906,20.5576 C53.1444,6.8215 41.6528,1.7621 35.35,1.02 C33.7084721,0.831808872 32.2236021,2.00588736 32.0281521,3.64656677 C31.832702,5.28724618 33.0002012,6.77729482 34.64,6.98 C35.2106,7.0489 46.7387,8.6665 48.7107,20.4135 C48.7334922,20.5596463 48.6914811,20.7084709 48.5956325,20.8211265 C48.499784,20.9337822 48.3596101,20.9990889 48.2117,21 L47,21 C46.810614,21 46.6374824,21.1070012 46.5527864,21.2763932 C46.4680904,21.4457852 46.4863684,21.6484912 46.6,21.8 L49.51,25.68 L49.69,25.91 L51.6,28.4643 Z" id="Shape" fill="#FF5364"/><path d="M58,41.32 C58.0028197,42.0952629 57.5977457,42.8148889 56.9335021,43.2146651 C56.2692586,43.6144413 55.4437255,43.6354584 54.76,43.27 L43,37 L31.24,43.27 C30.5561459,43.6341268 29.7313287,43.6124701 29.0675249,43.2129586 C28.4037212,42.8134471 27.9984172,42.0947531 28,41.32 C28.0009954,41.0635972 28.0484278,40.8094951 28.14,40.57 C28.3233928,40.0590424 28.6906216,39.6347683 29.17,39.38 L43,32 L56.83,39.38 C57.3093784,39.6347683 57.6766072,40.0590424 57.86,40.57 C57.9515722,40.8094951 57.9990046,41.0635972 58,41.32 Z" id="Shape" fill="#C03A2B"/><path d="M57.86,40.57 C57.637519,41.1645016 57.169277,41.6340535 56.5753992,41.8581945 C55.9815214,42.0823354 55.3198014,42.0392531 54.76,41.74 L43,35.47 L31.24,41.74 C30.6799113,42.0375478 30.0188766,42.0797276 29.425512,41.8557803 C28.8321473,41.631833 28.3638235,41.1634114 28.14,40.57 C28.3233928,40.0590424 28.6906216,39.6347683 29.17,39.38 L43,32 L56.83,39.38 C57.3093784,39.6347683 57.6766072,40.0590424 57.86,40.57 Z" id="Shape" fill="#D25627"/><path d="M41,45.9 L41,49 C40.9984072,49.5516236 40.5516236,49.9984072 40,50 L36,50 C35.7688632,50.0034052 35.5445759,49.9215225 35.37,49.77 C36.1400045,47.3436812 38.4588692,45.7497191 41,45.9 Z" id="Shape" fill="#2C3E50"/><path d="M51,45.9 L51,49 C50.9984072,49.5516236 50.5516236,49.9984072 50,50 L46,50 C45.7688632,50.0034052 45.5445759,49.9215225 45.37,49.77 C46.1400045,47.3436812 48.4588692,45.7497191 51,45.9 Z" id="Shape" fill="#2C3E50"/></g></g></svg>
