<?xml version="1.0" encoding="UTF-8"?>
<svg xmlns="http://www.w3.org/2000/svg" xmlns:xlink="http://www.w3.org/1999/xlink" width="512" height="512" viewBox="0 0 59 51" version="1.1"><!-- Generator: Sketch 51.3 (57544) - http://www.bohemiancoding.com/sketch --><title>005 - Moving Van</title><desc>Created with Sketch.</desc><defs/><g id="Page-1" stroke="none" stroke-width="1" fill="none" fill-rule="evenodd"><g id="005---Moving-Van" fill-rule="nonzero"><path d="M13,51 L6,51 C5.44771525,51 5,50.5522847 5,50 C5,49.4477153 5.44771525,49 6,49 L13,49 C13.5522847,49 14,49.4477153 14,50 C14,50.5522847 13.5522847,51 13,51 Z" id="Shape" fill="#2C3E50"/><path d="M2,51 L1,51 C0.44771525,51 6.76353751e-17,50.5522847 0,50 C-6.76353751e-17,49.4477153 0.44771525,49 1,49 L2,49 C2.55228475,49 3,49.4477153 3,50 C3,50.5522847 2.55228475,51 2,51 Z" id="Shape" fill="#2C3E50"/><path d="M46,51 L39,51 C38.4477153,51 38,50.5522847 38,50 C38,49.4477153 38.4477153,49 39,49 L46,49 C46.5522847,49 47,49.4477153 47,50 C47,50.5522847 46.5522847,51 46,51 Z" id="Shape" fill="#2C3E50"/><path d="M35,51 L34,51 C33.4477153,51 33,50.5522847 33,50 C33,49.4477153 33.4477153,49 34,49 L35,49 C35.5522847,49 36,49.4477153 36,50 C36,50.5522847 35.5522847,51 35,51 Z" id="Shape" fill="#2C3E50"/><path d="M57,28 L57,38 L51.45,39.33 L40.35,42 L39,42 L39,26 L55,26 C56.1032246,26.0032402 56.9967598,26.8967754 57,28 Z" id="Shape" fill="#7F8C8D"/><path d="M51,26 L39,26 L39,16 C39.0032402,14.8967754 39.8967754,14.0032402 41,14 L47,14 L47.67,16 L51,26 Z" id="Shape" fill="#B0D3F0"/><path d="M53,2 L53,12 C52.9967598,13.1032246 52.1032246,13.9967598 51,14 L41,14 C39.8967754,14.0032402 39.0032402,14.8967754 39,16 L39,42 L18.65,42 L8.22,39.33 L3,38 L3,2 C3.0032402,0.896775421 3.89677542,0.00324019568 5,0 L51,0 C52.1032246,0.00324019568 52.9967598,0.896775421 53,2 Z" id="Shape" fill="#C03A2B"/><path d="M57,28 L57,39 L51.45,39.33 L40.35,40 L39,40 L39,26 L55,26 C56.1032246,26.0032402 56.9967598,26.8967754 57,28 Z" id="Shape" fill="#95A5A5"/><path d="M53,2 L53,10 C52.9967598,11.1032246 52.1032246,11.9967598 51,12 L41,12 C39.8967754,12.0032402 39.0032402,12.8967754 39,14 L39,40 L18.65,40 L8.22,39.33 L3,39 L3,2 C3.0032402,0.896775421 3.89677542,0.00324019568 5,0 L51,0 C52.1032246,0.00324019568 52.9967598,0.896775421 53,2 Z" id="Shape" fill="#E64C3C"/><path d="M47.67,16 L43,16 C41.8967754,16.0032402 41.0032402,16.8967754 41,18 L41,26 L39,26 L39,16 C39.0032402,14.8967754 39.8967754,14.0032402 41,14 L47,14 L47.67,16 Z" id="Shape" fill="#90BAE1"/><path d="M31.0328,17 L21,11 L11,17.42 L11,32 C11,32.5522847 11.4477153,33 12,33 L30,33 C30.5522847,33 31,32.5522847 31,32 L31,17.92 L31.0328,17 Z" id="Shape" fill="#F18D46"/><path d="M29,15.5455 L20.9869,9 L13,16.0036 L13,31.9091 C13,32.5116 13.3576,33 13.7987,33 L28.1751,33 C28.6162,33 28.9738,32.5116 28.9738,31.9091 L28.9738,16.5491 L29,15.5455 Z" id="Shape" fill="#FAC176"/><path d="M7.35,42 L3,42 C1.8954305,42 1,41.1045695 1,40 C1,38.8954305 1.8954305,38 3,38 L13,38 L7.35,42 Z" id="Shape" fill="#35495E"/><path d="M51,42 L57,42 C58.1045695,42 59,41.1045695 59,40 C59,38.8954305 58.1045695,38 57,38 L47,38 L51,42 Z" id="Shape" fill="#35495E"/><path d="M53,26 L55,26 C56.1045695,26 57,26.8954305 57,28 L57,30 L54,30 C53.4477153,30 53,29.5522847 53,29 L53,26 Z" id="Shape" fill="#F0C419"/><path d="M43,20 C42.5956041,19.9999137 42.2310659,19.7562725 42.076322,19.3826546 C41.9215781,19.0090366 42.0070921,18.5789943 42.293,18.293 L43.293,17.293 C43.6853789,16.9140278 44.3090848,16.9194476 44.6948186,17.3051814 C45.0805524,17.6909152 45.0859722,18.3146211 44.707,18.707 L43.707,19.707 C43.5197135,19.8948577 43.2652671,20.0003072 43,20 Z" id="Shape" fill="#ECF0F1"/><path d="M44,24 C43.5956041,23.9999137 43.2310659,23.7562725 43.076322,23.3826546 C42.9215781,23.0090366 43.0070921,22.5789943 43.293,22.293 L45.293,20.293 C45.6853789,19.9140278 46.3090848,19.9194476 46.6948186,20.3051814 C47.0805524,20.6909152 47.0859722,21.3146211 46.707,21.707 L44.707,23.707 C44.5197135,23.8948577 44.2652671,24.0003072 44,24 Z" id="Shape" fill="#ECF0F1"/><path d="M18,21 L24,21 C24.5522847,21 25,21.4477153 25,22 L25,33 L17,33 L17,22 C17,21.4477153 17.4477153,21 18,21 Z" id="Shape" fill="#7F5B53"/><path d="M49,5 L40,5 C39.4477153,5 39,4.55228475 39,4 C39,3.44771525 39.4477153,3 40,3 L49,3 C49.5522847,3 50,3.44771525 50,4 C50,4.55228475 49.5522847,5 49,5 Z" id="Shape" fill="#FB7B76"/><path d="M36,5 L35,5 C34.4477153,5 34,4.55228475 34,4 C34,3.44771525 34.4477153,3 35,3 L36,3 C36.5522847,3 37,3.44771525 37,4 C37,4.55228475 36.5522847,5 36,5 Z" id="Shape" fill="#FB7B76"/><path d="M32.4308,18.9136 L21.5692,11.3941 C21.2267598,11.1570321 20.7732402,11.1570321 20.4308,11.3941 L9.5692,18.9136 C9.26338913,19.1253097 8.86534548,19.1498004 8.53588755,18.9771772 C8.20642961,18.804554 7.99999967,18.4633426 8,18.0914 L8,15.524 C7.9999997,15.1958505 8.16099575,14.8885827 8.4308,14.7018 L20.4308,6.3941 C20.7732402,6.15703213 21.2267598,6.15703213 21.5692,6.3941 L33.5692,14.7018 C33.8390042,14.8885827 34.0000003,15.1958505 34,15.524 L34,18.0914 C34.0000003,18.4633426 33.7935704,18.804554 33.4641125,18.9771772 C33.1346545,19.1498004 32.7366109,19.1253097 32.4308,18.9136 Z" id="Shape" fill="#CB9080"/><circle id="Oval" fill="#2C3E50" cx="13" cy="44" r="7"/><circle id="Oval" fill="#35495E" cx="13" cy="44" r="6"/><circle id="Oval" fill="#3F5C6C" cx="13" cy="44" r="3"/><circle id="Oval" fill="#547580" cx="13" cy="44" r="2"/><circle id="Oval" fill="#2C3E50" cx="46" cy="44" r="7"/><circle id="Oval" fill="#35495E" cx="46" cy="44" r="6"/><circle id="Oval" fill="#3F5C6C" cx="46" cy="44" r="3"/><circle id="Oval" fill="#547580" cx="46" cy="44" r="2"/></g></g></svg>
