<?xml version="1.0" encoding="iso-8859-1"?>
<!-- Generator: Adobe Illustrator 19.0.0, SVG Export Plug-In . SVG Version: 6.00 Build 0)  -->
<svg version="1.1" id="Layer_1" xmlns="http://www.w3.org/2000/svg" xmlns:xlink="http://www.w3.org/1999/xlink" x="0px" y="0px"
	 viewBox="0 0 503.322 503.322" style="enable-background:new 0 0 503.322 503.322;" xml:space="preserve">
<g>
	<path style="fill:#E6EEF3;" d="M17.356,73.763h468.61c9.589,0,17.356,7.767,17.356,17.356v173.559
		c0,9.589-7.767,17.356-17.356,17.356H17.356C7.767,282.034,0,274.267,0,264.678V91.119C0,81.529,7.767,73.763,17.356,73.763"/>
	<g>
		<path style="fill:#CAD3DB;" d="M286.373,143.186h-69.424c-4.799,0-8.678-3.879-8.678-8.678s3.879-8.678,8.678-8.678h69.424
			c4.799,0,8.678,3.879,8.678,8.678S291.172,143.186,286.373,143.186"/>
		<path style="fill:#CAD3DB;" d="M468.61,256H34.712c-4.799,0-8.678-3.879-8.678-8.678c0-4.799,3.879-8.678,8.678-8.678H468.61
			c4.799,0,8.678,3.879,8.678,8.678C477.288,252.121,473.409,256,468.61,256"/>
		<path style="fill:#CAD3DB;" d="M468.61,221.288H34.712c-4.799,0-8.678-3.879-8.678-8.678c0-4.799,3.879-8.678,8.678-8.678H468.61
			c4.799,0,8.678,3.879,8.678,8.678C477.288,217.409,473.409,221.288,468.61,221.288"/>
	</g>
	<g>
		<path style="fill:#E6EEF3;" d="M251.67,412.203c-3.141,0-6.17-1.701-7.715-4.686c-2.204-4.252-0.538-9.494,3.714-11.698
			c7.932-4.105,12.67-9.337,12.67-13.989s-4.738-9.884-12.67-13.989c-14.215-7.368-22.042-17.807-22.042-29.401
			s7.828-22.033,22.042-29.401c4.252-2.213,9.494-0.538,11.698,3.714c2.204,4.252,0.538,9.494-3.714,11.698
			c-7.932,4.105-12.67,9.337-12.67,13.989s4.738,9.884,12.67,13.989c14.215,7.368,22.042,17.807,22.042,29.401
			s-7.828,22.033-22.042,29.401C254.377,411.891,253.006,412.203,251.67,412.203"/>
		<path style="fill:#E6EEF3;" d="M156.212,429.559c-3.141,0-6.17-1.701-7.715-4.686c-2.204-4.252-0.538-9.494,3.714-11.698
			c7.932-4.105,12.67-9.337,12.67-13.989c0-4.651-4.738-9.884-12.67-13.989c-14.214-7.368-22.042-17.807-22.042-29.401
			s7.828-22.033,22.042-29.401c4.244-2.222,9.494-0.538,11.698,3.714c2.204,4.252,0.538,9.494-3.714,11.698
			c-7.932,4.105-12.67,9.337-12.67,13.989c0,4.651,4.738,9.884,12.67,13.989c14.215,7.368,22.042,17.807,22.042,29.401
			s-7.828,22.033-22.042,29.401C158.92,429.247,157.548,429.559,156.212,429.559"/>
		<path style="fill:#E6EEF3;" d="M347.127,429.559c-3.141,0-6.17-1.701-7.715-4.686c-2.204-4.252-0.538-9.494,3.714-11.698
			c7.932-4.105,12.67-9.337,12.67-13.989c0-4.651-4.738-9.884-12.67-13.989c-14.215-7.368-22.042-17.807-22.042-29.401
			s7.828-22.033,22.042-29.401c4.244-2.222,9.494-0.538,11.698,3.714c2.204,4.252,0.538,9.494-3.714,11.698
			c-7.932,4.105-12.67,9.337-12.67,13.989c0,4.651,4.738,9.884,12.67,13.989c14.214,7.368,22.042,17.807,22.042,29.401
			s-7.828,22.033-22.042,29.401C349.835,429.247,348.464,429.559,347.127,429.559"/>
	</g>
</g>
<g>
</g>
<g>
</g>
<g>
</g>
<g>
</g>
<g>
</g>
<g>
</g>
<g>
</g>
<g>
</g>
<g>
</g>
<g>
</g>
<g>
</g>
<g>
</g>
<g>
</g>
<g>
</g>
<g>
</g>
</svg>
