<?xml version="1.0" encoding="iso-8859-1"?>
<!-- Generator: Adobe Illustrator 19.0.0, SVG Export Plug-In . SVG Version: 6.00 Build 0)  -->
<svg version="1.1" id="Layer_1" xmlns="http://www.w3.org/2000/svg" xmlns:xlink="http://www.w3.org/1999/xlink" x="0px" y="0px"
	 viewBox="0 0 512 512" style="enable-background:new 0 0 512 512;" xml:space="preserve">
<g>
	<path style="fill:#F3D55B;" d="M141.451,375.467H80.412c-11.418,0-20.676-9.259-20.676-20.685v-9.83
		c0-11.426,9.259-20.685,20.676-20.685h61.039c11.426,0,20.685,9.259,20.685,20.685v9.83
		C162.136,366.208,152.877,375.467,141.451,375.467"/>
	<g>
		<polygon style="fill:#C8C0B9;" points="25.597,179.2 298.663,179.2 298.663,110.933 25.597,110.933 		"/>
		<polygon style="fill:#C8C0B9;" points="418.13,179.2 486.397,179.2 486.397,110.933 418.13,110.933 		"/>
	</g>
	<g>
		<path style="fill:#8697CB;" d="M298.667,324.267h-81.715c-11.426,0-20.685,9.259-20.685,20.685v9.83
			c0,11.426,9.259,20.685,20.685,20.685h81.715V324.267z"/>
		<path style="fill:#8697CB;" d="M431.584,324.267h-13.449v51.2h13.449c11.426,0,20.685-9.259,20.685-20.685v-9.83
			C452.269,333.525,443.011,324.267,431.584,324.267"/>
	</g>
	<g>
		<polygon style="fill:#C8C0B9;" points="25.597,443.733 298.663,443.733 298.663,375.467 25.597,375.467 		"/>
		<polygon style="fill:#C8C0B9;" points="418.13,443.733 486.397,443.733 486.397,375.467 418.13,375.467 		"/>
	</g>
	<g>
		<path style="fill:#CAD3DB;" d="M307.197,494.933h102.4V119.467h-102.4V494.933z M418.13,512H298.663
			c-4.71,0-8.533-3.814-8.533-8.533V110.933c0-4.719,3.823-8.533,8.533-8.533H418.13c4.719,0,8.533,3.814,8.533,8.533v392.533
			C426.663,508.186,422.849,512,418.13,512L418.13,512z"/>
		<path style="fill:#CAD3DB;" d="M418.133,162.133H298.667c-4.71,0-8.533-3.814-8.533-8.533s3.823-8.533,8.533-8.533h119.467
			c4.719,0,8.533,3.814,8.533,8.533S422.852,162.133,418.133,162.133"/>
		<path style="fill:#CAD3DB;" d="M418.133,196.267H298.667c-4.71,0-8.533-3.814-8.533-8.533c0-4.719,3.823-8.533,8.533-8.533
			h119.467c4.719,0,8.533,3.814,8.533,8.533C426.667,192.452,422.852,196.267,418.133,196.267"/>
		<path style="fill:#CAD3DB;" d="M418.133,230.4H298.667c-4.71,0-8.533-3.814-8.533-8.533c0-4.719,3.823-8.533,8.533-8.533h119.467
			c4.719,0,8.533,3.814,8.533,8.533C426.667,226.586,422.852,230.4,418.133,230.4"/>
		<path style="fill:#CAD3DB;" d="M418.133,264.533H298.667c-4.71,0-8.533-3.814-8.533-8.533c0-4.719,3.823-8.533,8.533-8.533
			h119.467c4.719,0,8.533,3.814,8.533,8.533C426.667,260.719,422.852,264.533,418.133,264.533"/>
		<path style="fill:#CAD3DB;" d="M418.133,298.667H298.667c-4.71,0-8.533-3.814-8.533-8.533c0-4.719,3.823-8.533,8.533-8.533
			h119.467c4.719,0,8.533,3.814,8.533,8.533C426.667,294.852,422.852,298.667,418.133,298.667"/>
		<path style="fill:#CAD3DB;" d="M418.133,332.8H298.667c-4.71,0-8.533-3.814-8.533-8.533c0-4.719,3.823-8.533,8.533-8.533h119.467
			c4.719,0,8.533,3.814,8.533,8.533C426.667,328.986,422.852,332.8,418.133,332.8"/>
		<path style="fill:#CAD3DB;" d="M418.133,366.933H298.667c-4.71,0-8.533-3.814-8.533-8.533c0-4.719,3.823-8.533,8.533-8.533
			h119.467c4.719,0,8.533,3.814,8.533,8.533C426.667,363.119,422.852,366.933,418.133,366.933"/>
		<path style="fill:#CAD3DB;" d="M418.133,401.067H298.667c-4.71,0-8.533-3.814-8.533-8.533s3.823-8.533,8.533-8.533h119.467
			c4.719,0,8.533,3.814,8.533,8.533S422.852,401.067,418.133,401.067"/>
		<path style="fill:#CAD3DB;" d="M418.133,435.2H298.667c-4.71,0-8.533-3.814-8.533-8.533s3.823-8.533,8.533-8.533h119.467
			c4.719,0,8.533,3.814,8.533,8.533S422.852,435.2,418.133,435.2"/>
		<path style="fill:#CAD3DB;" d="M418.133,469.333H298.667c-4.71,0-8.533-3.814-8.533-8.533c0-4.719,3.823-8.533,8.533-8.533
			h119.467c4.719,0,8.533,3.814,8.533,8.533C426.667,465.519,422.852,469.333,418.133,469.333"/>
	</g>
	<g>
		<path style="fill:#492B1C;" d="M25.6,512c-4.71,0-8.533-3.814-8.533-8.533V8.533C17.067,3.814,20.89,0,25.6,0
			s8.533,3.814,8.533,8.533v494.933C34.133,508.186,30.31,512,25.6,512"/>
		<path style="fill:#492B1C;" d="M486.4,512c-4.719,0-8.533-3.814-8.533-8.533V8.533c0-4.719,3.814-8.533,8.533-8.533
			c4.719,0,8.533,3.814,8.533,8.533v494.933C494.933,508.186,491.119,512,486.4,512"/>
		<path style="fill:#492B1C;" d="M503.467,512H8.533C3.823,512,0,508.186,0,503.467c0-4.719,3.823-8.533,8.533-8.533h494.933
			c4.719,0,8.533,3.814,8.533,8.533C512,508.186,508.186,512,503.467,512"/>
	</g>
	<path style="fill:#F3D55B;" d="M141.451,110.933H80.412c-11.418,0-20.676-9.259-20.676-20.685v-9.83
		c0-11.426,9.259-20.685,20.676-20.685h61.039c11.426,0,20.685,9.259,20.685,20.685v9.83
		C162.136,101.675,152.877,110.933,141.451,110.933"/>
	<path style="fill:#8697CB;" d="M431.584,110.933H216.946c-11.418,0-20.676-9.259-20.676-20.685v-9.83
		c0-11.426,9.259-20.685,20.676-20.685h214.639c11.426,0,20.685,9.259,20.685,20.685v9.83
		C452.269,101.675,443.011,110.933,431.584,110.933"/>
</g>
<g>
</g>
<g>
</g>
<g>
</g>
<g>
</g>
<g>
</g>
<g>
</g>
<g>
</g>
<g>
</g>
<g>
</g>
<g>
</g>
<g>
</g>
<g>
</g>
<g>
</g>
<g>
</g>
<g>
</g>
</svg>
