<?xml version="1.0" encoding="iso-8859-1"?>
<!-- Generator: Adobe Illustrator 19.0.0, SVG Export Plug-In . SVG Version: 6.00 Build 0)  -->
<svg version="1.1" id="Layer_1" xmlns="http://www.w3.org/2000/svg" xmlns:xlink="http://www.w3.org/1999/xlink" x="0px" y="0px"
	 viewBox="0 0 512.006 512.006" style="enable-background:new 0 0 512.006 512.006;" xml:space="preserve">
<g>
	<path style="fill:#556080;" d="M377.353,9.686c-21.391-2.491-41.975-0.269-60.859,5.771
		c-85.148,27.223-172.961,45.29-262.352,45.29H43.39C19.43,60.747,0,80.177,0,104.137v104.136c0,23.969,19.43,43.39,43.39,43.39
		h45.724c78.076,0,154.962,14.744,229.697,37.315c13.086,3.948,26.954,6.075,41.324,6.075c84.489,0,151.882-73.164,142.275-159.588
		C495.156,70.172,442.602,17.297,377.353,9.686"/>
	<path style="fill:#313D5B;" d="M360.139,295.053c-14.371,0-28.247-2.126-41.324-6.075c-14.64-4.417-29.384-8.435-44.18-12.201
		l-53.213,141.321c-13.512,35.875,4.625,75.924,40.509,89.435c35.883,13.512,75.924-4.625,89.435-40.509l69.953-185.769
		C402.757,290.046,382.042,295.053,360.139,295.053"/>
	<path style="fill:#7A8AB0;" d="M360.139,295.053c-14.371,0-28.247-2.126-41.324-6.075c-3.844-1.163-7.723-2.213-11.585-3.332
		l-18.215,48.371c-2.838,7.55-3.601,15.898-1.224,23.595c3.254,10.518,10.908,18.597,21.001,22.398
		c3.957,1.493,8.062,2.248,12.219,2.248c14.371,0,27.431-9.042,32.499-22.493l24.845-65.979
		C372.375,294.55,366.318,295.053,360.139,295.053"/>
	<path style="fill:#313D5B;" d="M69.427,60.369c-5.094,0.113-10.179,0.382-15.291,0.382H43.393c-23.96,0-43.39,19.421-43.39,43.39
		v104.136c0,23.96,19.43,43.39,43.39,43.39h26.034V60.369z"/>
	<path style="fill:#F38774;" d="M34.715,485.969c-2.222,0-4.443-0.85-6.135-2.543c-3.393-3.393-3.393-8.878,0-12.271L497.19,2.545
		c3.393-3.393,8.878-3.393,12.271,0s3.393,8.878,0,12.271l-468.61,468.61C39.158,485.118,36.937,485.969,34.715,485.969"/>
</g>
<g>
</g>
<g>
</g>
<g>
</g>
<g>
</g>
<g>
</g>
<g>
</g>
<g>
</g>
<g>
</g>
<g>
</g>
<g>
</g>
<g>
</g>
<g>
</g>
<g>
</g>
<g>
</g>
<g>
</g>
</svg>
