<?xml version="1.0" encoding="iso-8859-1"?>
<!-- Generator: Adobe Illustrator 19.0.0, SVG Export Plug-In . SVG Version: 6.00 Build 0)  -->
<svg version="1.1" id="Layer_1" xmlns="http://www.w3.org/2000/svg" xmlns:xlink="http://www.w3.org/1999/xlink" x="0px" y="0px"
	 viewBox="0 0 512 512" style="enable-background:new 0 0 512 512;" xml:space="preserve">
<g transform="translate(0 1)">
	<path style="fill:#BDC3C7;" d="M153.348,207.271h49.091c-3.575-10.101-13.234-17.356-24.541-17.356
		C166.582,189.915,156.932,197.17,153.348,207.271 M212.61,224.627h-69.424c-4.799,0-8.678-3.888-8.678-8.678
		c0-23.925,19.465-43.39,43.39-43.39c23.916,0,43.39,19.465,43.39,43.39C221.288,220.739,217.4,224.627,212.61,224.627"/>
	<g>
		<path style="fill:#7F8C8D;" d="M125.831,484.966c0-14.379-11.655-26.034-26.034-26.034s-26.034,11.655-26.034,26.034
			c0,14.379,11.655,26.034,26.034,26.034S125.831,499.346,125.831,484.966"/>
		<path style="fill:#7F8C8D;" d="M438.237,484.966c0-14.379-11.654-26.034-26.034-26.034c-14.379,0-26.034,11.655-26.034,26.034
			c0,14.379,11.654,26.034,26.034,26.034C426.583,511,438.237,499.346,438.237,484.966"/>
	</g>
	<path style="fill:#667D8C;" d="M464.271,467.61H47.729V181.237c0-62.204,50.61-112.814,112.814-112.814h190.915
		c62.204,0,112.814,50.61,112.814,112.814V467.61z M65.085,450.254h381.831V181.237c0-52.632-42.826-95.458-95.458-95.458H160.542
		c-52.632,0-95.458,42.826-95.458,95.458V450.254z"/>
	<polygon style="fill:#AB6942;" points="99.797,458.932 256,458.932 256,380.831 99.797,380.831 	"/>
	<path style="fill:#596C6C;" d="M412.203,354.797H256v-34.712c0-9.589,7.767-17.356,17.356-17.356h121.492
		c9.589,0,17.356,7.767,17.356,17.356V354.797z"/>
	<path style="fill:#E9866F;" d="M394.847,241.983c0,33.549-27.197,60.746-60.746,60.746s-60.746-27.197-60.746-60.746
		s27.197-60.746,60.746-60.746S394.847,208.434,394.847,241.983"/>
	<polygon style="fill:#CB8252;" points="99.797,380.831 256,380.831 256,276.695 99.797,276.695 	"/>
	<polygon style="fill:#F0C419;" points="125.831,276.695 229.966,276.695 229.966,207.271 125.831,207.271 	"/>
	<polygon style="fill:#7F8C8D;" points="256,458.932 412.203,458.932 412.203,354.797 256,354.797 	"/>
	<g>
		<path style="fill:#D4DFE6;" d="M377.492,380.831c-4.79,0-8.678-3.888-8.678-8.678v-17.356c0-4.79,3.888-8.678,8.678-8.678
			s8.678,3.888,8.678,8.678v17.356C386.169,376.943,382.282,380.831,377.492,380.831"/>
		<path style="fill:#D4DFE6;" d="M134.508,406.864c-4.79,0-8.678-3.888-8.678-8.678v-17.356c0-4.79,3.888-8.678,8.678-8.678
			s8.678,3.888,8.678,8.678v17.356C143.186,402.977,139.299,406.864,134.508,406.864"/>
	</g>
	<g>
		<path style="fill:#667D8C;" d="M325.424,85.78H186.576V51.103c0-9.589,7.801-17.391,17.391-17.391h104.075
			c9.58,0,17.382,7.801,17.382,17.391V85.78z M203.941,68.424h104.127V51.103l-104.101-0.035L203.941,68.424z"/>
		<path style="fill:#667D8C;" d="M290.712,51.068h-69.424V33.712C221.288,14.568,236.856-1,256-1s34.712,15.568,34.712,34.712
			V51.068z M238.644,33.712h34.712c0-9.572-7.784-17.356-17.356-17.356S238.644,24.14,238.644,33.712z"/>
	</g>
	<path style="fill:#CBB292;" d="M490.305,467.61H21.695c-4.79,0-8.678-3.888-8.678-8.678c0-4.79,3.888-8.678,8.678-8.678h468.61
		c4.79,0,8.678,3.888,8.678,8.678C498.983,463.722,495.095,467.61,490.305,467.61"/>
</g>
<g>
</g>
<g>
</g>
<g>
</g>
<g>
</g>
<g>
</g>
<g>
</g>
<g>
</g>
<g>
</g>
<g>
</g>
<g>
</g>
<g>
</g>
<g>
</g>
<g>
</g>
<g>
</g>
<g>
</g>
</svg>
