<?xml version="1.0" encoding="iso-8859-1"?>
<!-- Generator: Adobe Illustrator 19.0.0, SVG Export Plug-In . SVG Version: 6.00 Build 0)  -->
<svg version="1.1" id="Layer_1" xmlns="http://www.w3.org/2000/svg" xmlns:xlink="http://www.w3.org/1999/xlink" x="0px" y="0px"
	 viewBox="0 0 503.322 503.322" style="enable-background:new 0 0 503.322 503.322;" xml:space="preserve">
<g>
	<path style="fill:#ECF1F1;" d="M355.797,485.966H147.525c0-19.17,15.542-34.712,34.712-34.712h138.847
		C340.254,451.254,355.797,466.796,355.797,485.966"/>
	<polygon style="fill:#BDC3C7;" points="312.407,451.254 190.915,451.254 208.271,381.831 295.051,381.831 	"/>
	<path style="fill:#485762;" d="M503.322,312.407H0V47.729c0-16.775,13.598-30.373,30.373-30.373h442.576
		c16.775,0,30.373,13.598,30.373,30.373V312.407z"/>
	<path style="fill:#ECF1F1;" d="M472.949,381.831H30.373C13.598,381.831,0,368.232,0,351.458v-39.051h503.322v39.051
		C503.322,368.232,489.724,381.831,472.949,381.831"/>
	<g>
		<path style="fill:#95ACB9;" d="M375.856,113.5c-2.222,0-4.443-0.85-6.135-2.543c-65.102-65.102-171.017-65.102-236.119,0
			c-3.393,3.393-8.878,3.393-12.271,0c-3.393-3.393-3.393-8.878,0-12.271c71.862-71.862,188.798-71.862,260.66,0
			c3.393,3.393,3.393,8.878,0,12.271C380.299,112.65,378.077,113.5,375.856,113.5"/>
		<path style="fill:#95ACB9;" d="M339.326,150.034c-2.222,0-4.443-0.85-6.135-2.543c-44.961-44.952-118.098-44.952-163.059,0
			c-3.393,3.393-8.886,3.393-12.271,0c-3.393-3.393-3.393-8.878,0-12.271c51.721-51.729,135.88-51.729,187.6,0
			c3.393,3.393,3.393,8.878,0,12.271C343.769,149.184,341.547,150.034,339.326,150.034"/>
		<path style="fill:#95ACB9;" d="M200.521,186.559c-2.222,0-4.443-0.85-6.135-2.543c-3.393-3.393-3.393-8.878,0-12.271
			c15.273-15.282,35.614-23.691,57.275-23.691s42.001,8.409,57.275,23.691c3.393,3.393,3.393,8.878,0,12.271
			c-3.384,3.393-8.878,3.393-12.271,0c-12.002-12.002-27.986-18.614-45.004-18.614s-33.002,6.613-45.004,18.614
			C204.964,185.708,202.742,186.559,200.521,186.559"/>
		<path style="fill:#95ACB9;" d="M251.661,216.949c-14.353,0-26.034,11.681-26.034,26.034s11.681,26.034,26.034,26.034
			c14.353,0,26.034-11.681,26.034-26.034S266.014,216.949,251.661,216.949 M251.661,286.373c-23.925,0-43.39-19.465-43.39-43.39
			s19.465-43.39,43.39-43.39s43.39,19.465,43.39,43.39S275.586,286.373,251.661,286.373"/>
	</g>
</g>
<g>
</g>
<g>
</g>
<g>
</g>
<g>
</g>
<g>
</g>
<g>
</g>
<g>
</g>
<g>
</g>
<g>
</g>
<g>
</g>
<g>
</g>
<g>
</g>
<g>
</g>
<g>
</g>
<g>
</g>
</svg>
