<?xml version="1.0" encoding="iso-8859-1"?>
<!-- Generator: Adobe Illustrator 19.0.0, SVG Export Plug-In . SVG Version: 6.00 Build 0)  -->
<svg version="1.1" id="Layer_1" xmlns="http://www.w3.org/2000/svg" xmlns:xlink="http://www.w3.org/1999/xlink" x="0px" y="0px"
	 viewBox="0 0 512 512" style="enable-background:new 0 0 512 512;" xml:space="preserve">
<g>
	<path style="fill:#8697CB;" d="M70.621,494.345V17.655C70.621,7.901,78.521,0,88.276,0h335.448c9.754,0,17.655,7.901,17.655,17.655
		v476.69c0,9.754-7.901,17.655-17.655,17.655H88.276C78.521,512,70.621,504.099,70.621,494.345"/>
	<g>
		<path style="fill:#F0C419;" d="M256,70.621c-63.276,0-114.759,51.482-114.759,114.759S192.724,300.138,256,300.138
			s114.759-51.482,114.759-114.759S319.276,70.621,256,70.621 M256,317.793c-73.013,0-132.414-59.401-132.414-132.414
			S182.987,52.966,256,52.966s132.414,59.401,132.414,132.414S329.013,317.793,256,317.793"/>
		<path style="fill:#F0C419;" d="M256,70.621c-20.877,0-44.138,47.13-44.138,114.759S235.123,300.138,256,300.138
			s44.138-47.13,44.138-114.759S276.877,70.621,256,70.621 M256,317.793c-35.231,0-61.793-56.92-61.793-132.414
			S220.769,52.966,256,52.966s61.793,56.92,61.793,132.414S291.231,317.793,256,317.793"/>
		<path style="fill:#F0C419;" d="M379.586,194.207H132.414c-4.873,0-8.828-3.946-8.828-8.828c0-4.882,3.955-8.828,8.828-8.828
			h247.172c4.873,0,8.828,3.946,8.828,8.828C388.414,190.261,384.459,194.207,379.586,194.207"/>
		<path style="fill:#F0C419;" d="M256,317.793c-4.873,0-8.828-3.946-8.828-8.828V61.793c0-4.882,3.955-8.828,8.828-8.828
			c4.873,0,8.828,3.946,8.828,8.828v247.172C264.828,313.847,260.873,317.793,256,317.793"/>
	</g>
	<g>
		<path style="fill:#485C88;" d="M291.31,397.241H132.414c-4.873,0-8.828-3.946-8.828-8.828c0-4.882,3.955-8.828,8.828-8.828H291.31
			c4.873,0,8.828,3.946,8.828,8.828C300.138,393.295,296.183,397.241,291.31,397.241"/>
		<path style="fill:#485C88;" d="M273.655,432.552H132.414c-4.873,0-8.828-3.946-8.828-8.828c0-4.882,3.955-8.828,8.828-8.828
			h141.241c4.873,0,8.828,3.946,8.828,8.828C282.483,428.606,278.528,432.552,273.655,432.552"/>
		<path style="fill:#485C88;" d="M256,467.862H132.414c-4.873,0-8.828-3.946-8.828-8.828c0-4.882,3.955-8.828,8.828-8.828H256
			c4.873,0,8.828,3.946,8.828,8.828C264.828,463.916,260.873,467.862,256,467.862"/>
	</g>
</g>
<g>
</g>
<g>
</g>
<g>
</g>
<g>
</g>
<g>
</g>
<g>
</g>
<g>
</g>
<g>
</g>
<g>
</g>
<g>
</g>
<g>
</g>
<g>
</g>
<g>
</g>
<g>
</g>
<g>
</g>
</svg>
