<?xml version="1.0" encoding="iso-8859-1"?>
<!-- Generator: Adobe Illustrator 19.0.0, SVG Export Plug-In . SVG Version: 6.00 Build 0)  -->
<svg version="1.1" id="Layer_1" xmlns="http://www.w3.org/2000/svg" xmlns:xlink="http://www.w3.org/1999/xlink" x="0px" y="0px"
	 viewBox="0 0 503.686 503.686" style="enable-background:new 0 0 503.686 503.686;" xml:space="preserve">
<g>
	<path style="fill:#F0C419;" d="M475.769,434.081H28.281c-15.421,0-27.917-12.496-27.917-27.917V97.523
		c0-15.421,12.496-27.917,27.917-27.917h447.488c15.421,0,27.917,12.496,27.917,27.917v308.641
		C503.686,421.584,491.19,434.081,475.769,434.081"/>
	<polygon style="fill:#7F6E5D;" points="0,208.453 503.322,208.453 503.322,139.03 0,139.03 	"/>
	<g>
		<path style="fill:#FFFFFF;" d="M121.495,277.877c-23.925,0-43.39,19.465-43.39,43.39c0,23.925,19.465,43.39,43.39,43.39
			s43.39-19.465,43.39-43.39C164.885,297.342,145.42,277.877,121.495,277.877 M121.495,382.013
			c-33.488,0-60.746-27.257-60.746-60.746s27.257-60.746,60.746-60.746s60.746,27.258,60.746,60.746
			S154.983,382.013,121.495,382.013"/>
		<path style="fill:#FFFFFF;" d="M286.376,390.691c-4.799,0-8.678-3.879-8.678-8.678v-43.39c0-4.799,3.879-8.678,8.678-8.678
			c4.799,0,8.678,3.879,8.678,8.678v43.39C295.054,386.812,291.175,390.691,286.376,390.691"/>
		<path style="fill:#FFFFFF;" d="M321.088,373.335c-4.799,0-8.678-3.879-8.678-8.678v-26.034c0-4.799,3.879-8.678,8.678-8.678
			c4.799,0,8.678,3.879,8.678,8.678v26.034C329.766,369.456,325.887,373.335,321.088,373.335"/>
		<path style="fill:#FFFFFF;" d="M407.868,373.335c-2.222,0-4.443-0.85-6.135-2.543c-3.393-3.393-3.393-8.878,0-12.271
			l37.255-37.255l-37.255-37.254c-3.393-3.393-3.393-8.878,0-12.271c3.393-3.393,8.878-3.393,12.271,0l43.39,43.39
			c3.393,3.393,3.393,8.878,0,12.271l-43.39,43.39C412.311,372.484,410.089,373.335,407.868,373.335"/>
		<path style="fill:#FFFFFF;" d="M181.605,329.945h156.837c4.79,0,8.678-3.888,8.678-8.678c0-4.79-3.888-8.678-8.678-8.678H181.605
			c0.425,2.881,0.633,5.78,0.633,8.678S182.03,327.064,181.605,329.945 M338.442,347.301H170.54c-2.82,0-5.458-1.362-7.09-3.671
			c-1.623-2.3-2.031-5.241-1.093-7.897c1.684-4.747,2.525-9.615,2.525-14.466s-0.842-9.719-2.525-14.466
			c-0.937-2.655-0.529-5.606,1.093-7.897c1.631-2.308,4.27-3.671,7.09-3.671h167.901c14.362,0,26.034,11.681,26.034,26.034
			C364.475,335.62,352.804,347.301,338.442,347.301"/>
	</g>
</g>
<g>
</g>
<g>
</g>
<g>
</g>
<g>
</g>
<g>
</g>
<g>
</g>
<g>
</g>
<g>
</g>
<g>
</g>
<g>
</g>
<g>
</g>
<g>
</g>
<g>
</g>
<g>
</g>
<g>
</g>
</svg>
