<?xml version="1.0" encoding="iso-8859-1"?>
<!-- Generator: Adobe Illustrator 19.0.0, SVG Export Plug-In . SVG Version: 6.00 Build 0)  -->
<svg version="1.1" id="Layer_1" xmlns="http://www.w3.org/2000/svg" xmlns:xlink="http://www.w3.org/1999/xlink" x="0px" y="0px"
	 viewBox="0 0 504.467 504.467" style="enable-background:new 0 0 504.467 504.467;" xml:space="preserve">
<g>
	<path style="fill:#E6EEF3;" d="M55.467,136.533c0,14.14-11.46,25.6-25.6,25.6s-25.6-11.46-25.6-25.6s11.46-25.6,25.6-25.6
		S55.467,122.394,55.467,136.533"/>
	<path style="fill:#CAD3DB;" d="M98.133,119.467H64H48.819c4.087,4.54,6.647,10.479,6.647,17.067c0,6.588-2.56,12.527-6.647,17.067
		H73.31l16.29,59.733h36.975L98.133,119.467z"/>
	<path style="fill:#25B99A;" d="M469.757,77.676c-2.756-5.871-4.693-12.083-4.693-18.569V17.123c0-4.736-3.84-8.576-8.567-8.576
		H422.44c-4.736,0-8.576,3.84-8.576,8.576v41.984c0,6.485-1.929,12.698-4.685,18.569c-2.534,5.376-3.849,11.247-3.849,17.195
		v109.892c0,4.736,3.84,8.567,8.576,8.567h51.123c4.727,0,8.567-3.831,8.567-8.567V94.87
		C473.597,88.922,472.283,83.052,469.757,77.676"/>
	<path style="fill:#CAD3DB;" d="M302.933,42.667c-4.719,0-8.533-3.814-8.533-8.533v-25.6c0-4.719,3.814-8.533,8.533-8.533
		s8.533,3.814,8.533,8.533v25.6C311.467,38.852,307.652,42.667,302.933,42.667"/>
	<path style="fill:#198D71;" d="M465.067,42.667h-51.2v-25.6c0-4.71,3.823-8.533,8.533-8.533h34.133c4.71,0,8.533,3.823,8.533,8.533
		V42.667z"/>
	<path style="fill:#E6EEF3;" d="M405.333,94.874c0-5.205,1.067-10.334,3.004-15.138c-26.445-28.015-63.829-45.602-105.404-45.602
		c-80.119,0-145.067,64.947-145.067,145.067h247.467V94.874z"/>
	<path style="fill:#CAD3DB;" d="M405.333,204.762v-25.557h-256l17.067,34.133h247.509
		C409.173,213.338,405.333,209.498,405.333,204.762"/>
	<polygon style="fill:#E6EEF3;" points="89.597,409.6 499.197,409.6 499.197,213.333 89.597,213.333 	"/>
	<g>
		<path style="fill:#CAD3DB;" d="M405.333,418.133c-4.719,0-8.533-3.814-8.533-8.533v-59.733c0-4.719,3.814-8.533,8.533-8.533
			c4.719,0,8.533,3.814,8.533,8.533V409.6C413.867,414.319,410.052,418.133,405.333,418.133"/>
		<path style="fill:#CAD3DB;" d="M371.2,418.133c-4.719,0-8.533-3.814-8.533-8.533V384c0-4.719,3.814-8.533,8.533-8.533
			c4.719,0,8.533,3.814,8.533,8.533v25.6C379.733,414.319,375.919,418.133,371.2,418.133"/>
		<path style="fill:#CAD3DB;" d="M439.467,418.133c-4.719,0-8.533-3.814-8.533-8.533v-17.067c0-4.719,3.814-8.533,8.533-8.533
			c4.719,0,8.533,3.814,8.533,8.533V409.6C448,414.319,444.186,418.133,439.467,418.133"/>
		<path style="fill:#CAD3DB;" d="M226.133,418.133c-4.719,0-8.533-3.814-8.533-8.533v-34.133c0-4.719,3.814-8.533,8.533-8.533
			c4.719,0,8.533,3.814,8.533,8.533V409.6C234.667,414.319,230.852,418.133,226.133,418.133"/>
		<path style="fill:#CAD3DB;" d="M157.867,418.133c-4.719,0-8.533-3.814-8.533-8.533v-59.733c0-4.719,3.814-8.533,8.533-8.533
			c4.719,0,8.533,3.814,8.533,8.533V409.6C166.4,414.319,162.586,418.133,157.867,418.133"/>
		<path style="fill:#CAD3DB;" d="M192,418.133c-4.719,0-8.533-3.814-8.533-8.533V384c0-4.719,3.814-8.533,8.533-8.533
			s8.533,3.814,8.533,8.533v25.6C200.533,414.319,196.719,418.133,192,418.133"/>
		<path style="fill:#CAD3DB;" d="M123.733,384c-4.719,0-8.533,3.814-8.533,8.533V409.6h17.067v-17.067
			C132.267,387.814,128.452,384,123.733,384"/>
	</g>
	<path style="fill:#667D8C;" d="M149.333,473.6c0,16.495-13.372,29.867-29.867,29.867S89.6,490.095,89.6,473.6
		c0-16.495,13.372-29.867,29.867-29.867S149.333,457.105,149.333,473.6"/>
	<path style="fill:none;stroke:#BDC3C7;stroke-width:2;" d="M149.333,473.6c0,16.495-13.372,29.867-29.867,29.867
		S89.6,490.095,89.6,473.6c0-16.495,13.372-29.867,29.867-29.867S149.333,457.105,149.333,473.6L149.333,473.6z"/>
	<polygon style="fill:#556080;" points="123.73,443.733 465.063,443.733 465.063,409.6 123.73,409.6 	"/>
	<path style="fill:#667D8C;" d="M499.2,473.6c0,16.495-13.372,29.867-29.867,29.867c-16.495,0-29.867-13.372-29.867-29.867
		c0-16.495,13.372-29.867,29.867-29.867C485.828,443.733,499.2,457.105,499.2,473.6"/>
	<path style="fill:none;stroke:#BDC3C7;stroke-width:2;" d="M499.2,473.6c0,16.495-13.372,29.867-29.867,29.867
		c-16.495,0-29.867-13.372-29.867-29.867c0-16.495,13.372-29.867,29.867-29.867C485.828,443.733,499.2,457.105,499.2,473.6
		L499.2,473.6z"/>
	<polygon style="fill:#198D71;" points="405.33,128 473.597,128 473.597,93.867 405.33,93.867 	"/>
	<path style="fill:#CAD3DB;" d="M197.375,153.6c-0.87,0-1.758-0.137-2.637-0.418c-4.48-1.451-6.929-6.263-5.478-10.752
		c16.026-49.459,61.705-82.697,113.673-82.697c4.719,0,8.533,3.814,8.533,8.533c0,4.719-3.814,8.533-8.533,8.533
		c-44.544,0-83.695,28.493-97.442,70.903C204.321,151.305,200.976,153.6,197.375,153.6"/>
</g>
<g>
</g>
<g>
</g>
<g>
</g>
<g>
</g>
<g>
</g>
<g>
</g>
<g>
</g>
<g>
</g>
<g>
</g>
<g>
</g>
<g>
</g>
<g>
</g>
<g>
</g>
<g>
</g>
<g>
</g>
</svg>
