<?xml version="1.0" encoding="iso-8859-1"?>
<!-- Generator: Adobe Illustrator 19.0.0, SVG Export Plug-In . SVG Version: 6.00 Build 0)  -->
<svg version="1.1" id="Layer_1" xmlns="http://www.w3.org/2000/svg" xmlns:xlink="http://www.w3.org/1999/xlink" x="0px" y="0px"
	 viewBox="0 0 511 511" style="enable-background:new 0 0 511 511;" xml:space="preserve">
<path style="fill:#F3C40F;" d="M511,431c0,44.183-35.817,80-80,80H80c-44.183,0-80-35.817-80-80V104L104,0h327
	c44.183,0,80,35.817,80,80V431z"/>
<path style="fill:#FFD636;" d="M0,104h69.334C88.4,104,104,88.666,104,69.6V0L0,104z"/>
<polygon style="opacity:0.2;fill:#5D5D5D;enable-background:new    ;" points="0,159.733 0,104 55.467,104 "/>
<polygon style="fill:#FFDC52;" points="162.05,376.249 255.796,282 363.04,376.249 511,264.092 511,93.553 345.041,233 255.5,156 
	149.189,256.5 73.555,185.5 0,234.792 0,282.348 60.32,248 "/>
<path style="fill:#DBB10E;" d="M363.04,375.249L255.796,281l-93.746,94.249L60.32,247L0,293v138c0,44.183,35.817,80,80,80h351
	c44.183,0,80-35.817,80-80V263.092L363.04,375.249z"/>
<path style="opacity:0.2;fill:#5D5D5D;enable-background:new    ;" d="M511,286.549v-24.918
	c-8.513,6.452-17.025,12.904-25.537,19.357c-40.64,30.807-81.279,61.611-121.918,92.418c-33.062-29.055-66.123-58.109-99.185-87.165
	c-0.498-0.438-0.995-0.875-1.493-1.313c-4.082-3.587-10.115-4.137-14.143-0.089c-28.611,28.766-57.223,57.797-85.834,86.289
	c-28.72-36.317-57.439-72.307-86.158-108.513c-3.113-3.926-6.228-7.806-9.341-11.731c-2.575-3.246-8.803-3.917-12.118-1.542
	C36.849,262.537,18.425,275.733,0,288.93v24.515c19.477-13.947,38.953-27.895,58.43-41.842
	c29.069,36.647,58.139,73.294,87.208,109.941c3.114,3.925,6.228,7.851,9.341,11.776c3.387,4.27,10.629,3.496,14.143-0.035
	c29.037-29.193,58.075-58.769,87.113-87.684c32.746,28.799,65.494,57.592,98.241,86.371c0.498,0.438,0.995,0.893,1.493,1.33
	c3.09,2.715,8.431,4.368,12.118,1.572c34.007-25.777,68.013-51.551,102.019-77.328C483.737,307.214,497.368,296.881,511,286.549z"/>
<path style="fill:#FFFFFF;" d="M511,276.549v-24.918c-8.513,6.452-17.025,12.904-25.537,19.357
	c-40.64,30.807-81.279,61.611-121.918,92.418c-33.062-29.055-66.123-58.109-99.185-87.165c-0.498-0.438-0.995-0.875-1.493-1.313
	c-4.082-3.587-10.115-4.137-14.143-0.089c-28.611,28.766-57.223,57.797-85.834,86.289c-28.72-36.317-57.439-72.307-86.158-108.513
	c-3.113-3.926-6.228-7.806-9.341-11.731c-2.575-3.246-8.803-3.917-12.118-1.542C36.849,252.537,18.425,265.733,0,278.93v24.515
	c19.477-13.947,38.953-27.895,58.43-41.842c29.069,36.647,58.139,73.294,87.208,109.941c3.114,3.925,6.228,7.851,9.341,11.776
	c3.387,4.27,10.629,3.496,14.143-0.035c29.037-29.193,58.075-58.769,87.113-87.684c32.746,28.799,65.494,57.592,98.241,86.371
	c0.498,0.438,0.995,0.893,1.493,1.33c3.09,2.715,8.431,4.368,12.118,1.572c34.007-25.777,68.013-51.551,102.019-77.328
	C483.737,297.214,497.368,286.881,511,276.549z"/>
<g>
</g>
<g>
</g>
<g>
</g>
<g>
</g>
<g>
</g>
<g>
</g>
<g>
</g>
<g>
</g>
<g>
</g>
<g>
</g>
<g>
</g>
<g>
</g>
<g>
</g>
<g>
</g>
<g>
</g>
</svg>
