<?xml version="1.0" encoding="iso-8859-1"?>
<!-- Generator: Adobe Illustrator 19.0.0, SVG Export Plug-In . SVG Version: 6.00 Build 0)  -->
<svg version="1.1" id="Layer_1" xmlns="http://www.w3.org/2000/svg" xmlns:xlink="http://www.w3.org/1999/xlink" x="0px" y="0px"
	 viewBox="0 0 511 511" style="enable-background:new 0 0 511 511;" xml:space="preserve">
<path style="fill:#8F44AB;" d="M511,431c0,44.183-35.817,80-80,80H80c-44.183,0-80-35.817-80-80V104L104,0h327
	c44.183,0,80,35.817,80,80V431z"/>
<path style="fill:#8F44AB;" d="M511,431c0,44.183-35.817,80-80,80H80c-44.183,0-80-35.817-80-80V104L104,0h327
	c44.183,0,80,35.817,80,80V431z"/>
<path style="opacity:0.2;fill:#5D5D5D;enable-background:new    ;" d="M439.788,141.473L71.95,434.439L93.521,511H431
	c37.037,0,68.183-25.174,77.293-59.342L439.788,141.473z"/>
<path style="fill:#B154D4;" d="M0,104h69.334C88.4,104,104,88.666,104,69.6V0L0,104z"/>
<polygon style="opacity:0.2;fill:#5D5D5D;enable-background:new    ;" points="0,159.733 0,104 55.467,104 "/>
<polygon style="fill:#01AD62;" points="126.814,338.977 90.584,333.801 313.129,111.255 333.834,131.959 "/>
<polygon style="fill:#01AD62;" points="173.395,416.613 168.219,380.383 375.238,173.363 395.941,194.064 "/>
<path style="fill:#E27573;" d="M423.251,165.605c-6.796,6.797-17.917,6.797-24.714,0l-57.522-57.523
	c-6.796-6.797-6.796-17.916,0-24.713l11.516-11.516c6.796-6.797,17.917-6.797,24.714,0l57.521,57.524
	c6.797,6.797,6.797,17.917,0,24.713L423.251,165.605z"/>
<polygon style="fill:#01C26E;" points="375.238,173.363 333.834,131.959 126.814,338.977 128.537,377.508 168.219,380.383 "/>
<polygon style="fill:#FAE8B9;" points="168.219,380.383 128.537,377.508 94.034,412.011 109.776,427.754 173.395,416.613 "/>
<rect x="309.032" y="121.131" transform="matrix(-0.7071 -0.7071 0.7071 -0.7071 528.2246 497.6584)" style="fill:#EBEBEB;" width="116.297" height="36.598"/>
<polygon style="opacity:0.2;fill:#5D5D5D;enable-background:new    ;" points="313.129,111.255 333.834,131.959 339.008,85.376 "/>
<polygon style="fill:#FAE09E;" points="78.722,396.7 90.584,333.801 126.814,338.977 128.537,377.508 109.776,427.754 "/>
<polygon style="fill:#2D3E50;" points="94.034,412.011 78.722,396.7 71.605,434.439 109.776,427.754 "/>
<polygon style="opacity:0.2;fill:#5D5D5D;enable-background:new    ;" points="359.444,105.811 339.008,85.376 352.53,71.854 "/>
<g>
</g>
<g>
</g>
<g>
</g>
<g>
</g>
<g>
</g>
<g>
</g>
<g>
</g>
<g>
</g>
<g>
</g>
<g>
</g>
<g>
</g>
<g>
</g>
<g>
</g>
<g>
</g>
<g>
</g>
</svg>
