<?xml version="1.0" encoding="iso-8859-1"?>
<!-- Generator: Adobe Illustrator 19.0.0, SVG Export Plug-In . SVG Version: 6.00 Build 0)  -->
<svg version="1.1" id="Layer_1" xmlns="http://www.w3.org/2000/svg" xmlns:xlink="http://www.w3.org/1999/xlink" x="0px" y="0px"
	 viewBox="0 0 511 511" style="enable-background:new 0 0 511 511;" xml:space="preserve">
<path style="fill:#2D3E50;" d="M511,431c0,44.183-35.817,80-80,80H80c-44.183,0-80-35.817-80-80V104L104,0h327
	c44.183,0,80,35.818,80,80V431z"/>
<path style="fill:#F0F0F0;" d="M80,482c-27.57,0-50-22.43-50-50V102.427L101.427,31H431c27.57,0,50,22.43,50,50v351
	c0,27.57-22.43,50-50,50H80z"/>
<path style="fill:#6A7E91;" d="M310.254,144c-0.072-10-8.291-18.322-18.422-18.322c-6.438,0-12.101,3.288-15.395,8.289
	c-2.359-0.911-4.919-1.424-7.6-1.424c-3.434,0-6.672,0.822-9.537,2.276c-3.97-6.185-10.901-10.288-18.797-10.288
	c-1.999,0-3.936,0.266-5.779,0.759c-4.07-4.479-9.941-7.29-16.469-7.29c-12.289,0-22.25,9.992-22.25,22.281
	c0,1.256,0.109,2.719,0.311,3.719H310.254z"/>
<path style="fill:#2FDE92;" d="M481,294.635c-16.761-16.423-31.963-24.533-45.526-14.519
	c-45.526,33.618-241.819,82.176-241.819,82.176l39.329,58.519c0,0,134.817,1.07,248.017,1.492L481,294.635L481,294.635z"/>
<path style="fill:#2BC984;" d="M446.487,383.46c-12.173-11-33.513-62.254,0-64.745c24.706-1.836,12.985-28.706,5.119-42.703
	c-5.61-0.879-10.989,0.307-16.133,4.104c-21.613,15.959-77.206,35.286-129.644,51.187c30.455,31.993,76.145,83.284,76.145,83.284
	S458.66,394.459,446.487,383.46z"/>
<path style="fill:#496582;" d="M0,104h69.334C88.4,104,104,88.666,104,69.6V0L0,104z"/>
<polygon style="opacity:0.2;fill:#5D5D5D;enable-background:new    ;" points="0,159.734 0,104 55.467,104 "/>
<path style="fill:#01C26E;" d="M481,432v-34.42C384.464,366.752,241.492,214.774,182.027,213
	C137.062,211.659,68.896,266.898,30,302.258V432c0,27.57,22.43,50,50,50h351C458.57,482,481,459.57,481,432z"/>
<path style="fill:#01A65E;" d="M30,302.258V432c0,27.57,22.43,50,50,50h67.404c-31.584-85.421,34.854-150.938,43.623-186
	c6.209-24.827,0.37-57.292-6.712-82.846c-0.772-0.069-1.542-0.132-2.288-0.154C137.062,211.659,68.896,266.898,30,302.258z"/>
<path style="opacity:0.2;fill:#F3C40F;enable-background:new    ;" d="M431,31h-73.44c-3.612,10.177-5.585,21.123-5.585,32.523
	c0,53.761,43.737,97.499,97.498,97.499c11.028,0,21.634-1.844,31.527-5.234V81C481,53.43,458.57,31,431,31z"/>
<path style="opacity:0.4;fill:#F3C40F;enable-background:new    ;" d="M431,31h-40.65c-5.331,9.652-8.375,20.739-8.375,32.523
	c0,37.22,30.279,67.499,67.498,67.499c11.383,0,22.11-2.844,31.527-7.841V81C481,53.43,458.57,31,431,31z"/>
<path style="fill:#F3C40F;" d="M481,83.814V81c0-27.57-22.43-50-50-50h-0.182c-11.258,6.471-18.844,18.607-18.844,32.523
	c0,20.711,16.788,37.499,37.498,37.499C462.704,101.022,474.325,94.164,481,83.814z"/>
<path style="fill:#8FAAC4;" d="M201.363,132.867c-3.167,0-6.237,0.41-9.164,1.176c-6.635-7.379-16.252-12.021-26.956-12.021
	c-6.71,0-12.989,1.83-18.379,5.009c-6.231-8.491-16.28-14.008-27.62-14.008c-14.001,0-26.032,8.407-31.341,20.446
	c-1.935-0.394-3.938-0.602-5.989-0.602C65.393,132.867,52,146.261,52,162.781c0,0.073,0.005,0.146,0.006,0.219h184.976
	C234.127,145.902,219.271,132.867,201.363,132.867z"/>
<g>
</g>
<g>
</g>
<g>
</g>
<g>
</g>
<g>
</g>
<g>
</g>
<g>
</g>
<g>
</g>
<g>
</g>
<g>
</g>
<g>
</g>
<g>
</g>
<g>
</g>
<g>
</g>
<g>
</g>
</svg>
