<?xml version="1.0" encoding="iso-8859-1"?>
<!-- Generator: Adobe Illustrator 19.0.0, SVG Export Plug-In . SVG Version: 6.00 Build 0)  -->
<svg version="1.1" id="Layer_1" xmlns="http://www.w3.org/2000/svg" xmlns:xlink="http://www.w3.org/1999/xlink" x="0px" y="0px"
	 viewBox="0 0 511 511" style="enable-background:new 0 0 511 511;" xml:space="preserve">
<path style="fill:#2D3E50;" d="M511,431c0,44.183-35.942,80-80.125,80h-351C35.692,511,0,475.183,0,431V104L103.875,0h327
	C475.058,0,511,35.817,511,80V431z"/>
<path style="fill:#FFFFFF;" d="M264,392.667c-107.88,0-195.333,14.626-195.333,32.667S156.12,458.001,264,458.001
	s195.334-14.626,195.334-32.667S371.88,392.667,264,392.667z M264,450.829c-84.196,0-152.451-11.415-152.451-25.495
	S179.804,399.838,264,399.838s152.451,11.416,152.451,25.496S348.196,450.829,264,450.829z"/>
<path style="fill:#FFFFFF;" d="M264,406.547c-62.041,0-112.334,8.412-112.334,18.787S201.959,444.121,264,444.121
	s112.335-8.412,112.335-18.787S326.041,406.547,264,406.547z M264,439.996c-48.42,0-87.673-6.564-87.673-14.662
	S215.58,410.672,264,410.672c48.421,0,87.674,6.564,87.674,14.662S312.421,439.996,264,439.996z"/>
<path style="fill:#FFFFFF;" d="M264,416.727c-28.426,0-51.469,3.854-51.469,8.607s23.043,8.607,51.469,8.607
	s51.47-3.854,51.47-8.607S292.426,416.727,264,416.727z M264,432.052c-22.185,0-40.17-3.008-40.17-6.718s17.985-6.718,40.17-6.718
	c22.186,0,40.171,3.008,40.171,6.718S286.186,432.052,264,432.052z"/>
<path style="fill:#496582;" d="M0,104h69.334C88.4,104,104,88.666,104,69.6l-0.125-69.568L0,104z"/>
<polygon style="opacity:0.2;fill:#5D5D5D;enable-background:new    ;" points="0,159.733 0,104 55.467,104 "/>
<path style="fill:#E24C3F;" d="M375.397,215.528c0-61.528-49.909-111.393-111.412-111.393c-61.523,0-111.383,49.864-111.383,111.393
	c0,21.509,6.369,41.42,16.949,58.44l-0.746,0.02l94.842,149.216l97.099-151.972h-0.837
	C369.483,254.792,375.397,235.929,375.397,215.528z M263.985,268.376c-29.182,0-52.837-23.671-52.837-52.848
	c0-29.207,23.655-52.862,52.837-52.862s52.857,23.655,52.857,52.862C316.843,244.705,293.167,268.376,263.985,268.376z"/>
<g>
</g>
<g>
</g>
<g>
</g>
<g>
</g>
<g>
</g>
<g>
</g>
<g>
</g>
<g>
</g>
<g>
</g>
<g>
</g>
<g>
</g>
<g>
</g>
<g>
</g>
<g>
</g>
<g>
</g>
</svg>
