<?xml version="1.0" encoding="iso-8859-1"?>
<!-- Generator: Adobe Illustrator 19.0.0, SVG Export Plug-In . SVG Version: 6.00 Build 0)  -->
<svg version="1.1" id="Layer_1" xmlns="http://www.w3.org/2000/svg" xmlns:xlink="http://www.w3.org/1999/xlink" x="0px" y="0px"
	 viewBox="0 0 511 511" style="enable-background:new 0 0 511 511;" xml:space="preserve">
<path style="fill:#2D3E50;" d="M511,431c0,44.183-35.817,80-80,80H80c-44.183,0-80-35.817-80-80V104L104,0h327
	c44.183,0,80,35.817,80,80V431z"/>
<path style="fill:#F3C40F;" d="M138.121,293c-0.185-14-4.621-25.218-10.07-25.218c-5.566,0-10.079,11.734-10.079,26.188
	c0,0.53,0.009,1.225,0.021,1.747L117.265,376h20.512l0.394-83H138.121z"/>
<path style="fill:#BC920D;" d="M128,376V267.628c-6,0.032-10.042,11.831-10.042,26.265c0,0.53,0.016,1.264,0.028,1.786L117.265,376
	H128z"/>
<polygon style="fill:#3BB2F4;" points="138.118,304 138.152,297 117.979,297 117.915,304 "/>
<polygon style="fill:#3BB2F4;" points="138.063,316 138.096,309 117.872,309 117.808,316 "/>
<polygon style="fill:#288AB5;" points="128,297 117.979,297 117.915,304 128,304 "/>
<polygon style="fill:#288AB5;" points="128,309 117.872,309 117.808,316 128,316 "/>
<path style="fill:#F3C40F;" d="M398.424,293c-0.185-14-4.622-25.218-10.07-25.218c-5.565,0-10.079,11.734-10.079,26.188
	c0,0.53,0.009,1.225,0.021,1.747L377.568,376h20.512l0.394-83H398.424z"/>
<path style="fill:#BC920D;" d="M388,376V267.628c-5,0.032-9.891,11.831-9.891,26.265c0,0.53,0.091,1.264,0.103,1.786L377.568,376
	H388z"/>
<polygon style="fill:#3BB2F4;" points="398.421,304 398.455,297 378.282,297 378.218,304 "/>
<polygon style="fill:#3BB2F4;" points="398.365,316 398.398,309 378.176,309 378.11,316 "/>
<polygon style="fill:#288AB5;" points="388,297 378.282,297 378.218,304 388,304 "/>
<polygon style="fill:#288AB5;" points="388,309 378.176,309 378.11,316 388,316 "/>
<path style="fill:#496582;" d="M0,104h69.334C88.4,104,104,88.666,104,69.6V0L0,104z"/>
<polygon style="opacity:0.2;fill:#5D5D5D;enable-background:new    ;" points="0,159.733 0,104 55.467,104 "/>
<path style="fill:#FFFFFF;" d="M260.662,59h-0.002c-1.083-1-3.175-3.018-5.581-3.018c-2.488,0-4.638,1.573-5.685,3.654
	c-12.956,22.639-14.061,64.27-14.061,70.515l19.748-0.841l19.772,0.609C274.854,123.672,273.63,82,260.662,59z"/>
<path style="fill:#D6D6D6;" d="M97.43,347.659c-2.031,2.389-4.362,4.385-4.362,7.739c0,4.839,4.068,8.763,8.909,8.763
	c0.207,0,0.481-0.016,0.685-0.029l-0.535,0.028L252,363.87V165.211C252,165.211,135.199,303.25,97.43,347.659z"/>
<path style="fill:#FFFFFF;" d="M413.277,347.659c2.025,2.39,4.215,4.385,4.215,7.739c0,4.839-4.146,8.763-8.984,8.763
	c-0.208,0-0.52-0.016-0.723-0.029l0.812,0.028L259,363.87V165.211C259,165.211,373.92,301.26,413.277,347.659z"/>
<path style="fill:#FFFFFF;" d="M413.277,347.659c2.025,2.39,4.215,4.385,4.215,7.739c0,4.839-4.146,8.763-8.984,8.763
	c-0.208,0-0.52-0.016-0.723-0.029l0.812,0.028L259,363.87V165.211C259,165.211,373.92,301.26,413.277,347.659z"/>
<path style="fill:#B2B2B2;" d="M227.49,194.545l14.144,169.347L252,363.87V165.211C252,165.211,242.49,176.891,227.49,194.545z"/>
<path style="fill:#D6D6D6;" d="M259,363.87l9.727,0.021l14.544-169.761C268.476,176.696,259,165.211,259,165.211V363.87z"/>
<path style="fill:#FFFFFF;" d="M280.239,130.063c0-13.803-11.188-24.991-24.991-24.991c-13.802,0-24.992,11.146-24.992,24.949
	c0,0.682,0.035,0.979,0.088,1.979h-0.024l15.565,240.939l18.696,0.128l15.507-240.295
	C280.186,131.88,280.239,130.982,280.239,130.063z"/>
<path style="fill:#FFFFFF;" d="M279,368.972c0-3.851-3.121-6.972-6.972-6.972h-26.057c-3.851,0-6.972,3.121-6.972,6.972v0.057
	c0,3.851,3.121,6.972,6.972,6.972h26.057c3.851,0,6.972-3.121,6.972-6.972V368.972z"/>
<path style="fill:#566E84;" d="M127.023,382c-5.912,0-10.705,4.602-10.705,10.514L111.218,511h31.819l-5.101-118.486
	c0-5.912-4.792-10.514-10.705-10.514H127.023z"/>
<path style="fill:#566E84;" d="M387.326,382c-5.912,0-10.704,4.602-10.704,10.514L371.521,511h31.82l-5.102-118.486
	c0-5.912-4.792-10.514-10.705-10.514H387.326z"/>
<path style="fill:#566E84;" d="M255.027,383c-9.949,0-18.014,7.824-18.014,17.773L230.226,511h54.106l-6.787-110.227
	c0-9.949-8.065-17.773-18.014-17.773H255.027z"/>
<circle style="fill:#707070;" cx="442.914" cy="324.936" r="4.481"/>
<circle style="fill:#707070;" cx="64.406" cy="243.713" r="4.481"/>
<circle style="fill:#969696;" cx="384.551" cy="167.125" r="4.481"/>
<circle style="fill:#B2B2B2;" cx="181.916" cy="64.768" r="4.481"/>
<path style="fill:#D6D6D6;" d="M255,362h-15.214c-3.85,0-6.786,3.163-6.786,7.014v0.468c0,3.85,2.936,6.519,6.786,6.519H255V362z"/>
<path style="fill:#D6D6D6;" d="M255,105.078c-14,0.121-24.758,11.215-24.758,24.943c0,0.682,0.048,0.979,0.102,1.979h-0.024
	l15.552,240.939l9.128,0.199L255,105.078L255,105.078z"/>
<path style="fill:#D6D6D6;" d="M255,56.188c-2,0.02-4.581,1.482-5.62,3.55c-12.956,22.639-14.067,64.219-14.067,70.464L255,129.339
	V56.188z"/>
<g>
	<path style="fill:#3BB2F4;" d="M255.248,116.551c7.222,0,13.684,1.848,18.028,4.756c-3.25-6.68-10.101-11.283-18.028-11.283
		c-7.927,0-14.779,4.604-18.029,11.283C241.563,118.398,248.026,116.551,255.248,116.551z"/>
</g>
<g>
</g>
<g>
</g>
<g>
</g>
<g>
</g>
<g>
</g>
<g>
</g>
<g>
</g>
<g>
</g>
<g>
</g>
<g>
</g>
<g>
</g>
<g>
</g>
<g>
</g>
<g>
</g>
<g>
</g>
</svg>
