<?xml version="1.0" encoding="iso-8859-1"?>
<!-- Generator: Adobe Illustrator 19.0.0, SVG Export Plug-In . SVG Version: 6.00 Build 0)  -->
<svg version="1.1" id="Layer_1" xmlns="http://www.w3.org/2000/svg" xmlns:xlink="http://www.w3.org/1999/xlink" x="0px" y="0px"
	 viewBox="0 0 511 511" style="enable-background:new 0 0 511 511;" xml:space="preserve">
<path style="fill:#E6E6E6;" d="M511,431c0,44.183-35.817,80-80,80H80c-44.183,0-80-35.817-80-80V104L104,0h327
	c44.183,0,80,35.817,80,80V431z"/>
<path style="fill:#F7F7F7;" d="M0,104h69.334C88.4,104,104,88.666,104,69.6V0L0,104z"/>
<polygon style="opacity:0.2;fill:#5D5D5D;enable-background:new    ;" points="0,159.733 0,104 55.467,104 "/>
<path style="fill:#F7B90F;" d="M448.814,421.752c7.357,7.359,7.357,19.398,0,26.756l-13.377,13.379
	c-7.359,7.357-19.4,7.357-26.758,0l-89.633-89.633c-7.357-7.357-7.357-19.398,0-26.756l13.379-13.379
	c7.357-7.357,19.396-7.357,26.756,0L448.814,421.752z"/>
<polygon style="opacity:0.2;fill:#5D5D5D;enable-background:new    ;" points="420.051,392.99 315.703,368.908 355.836,328.775 "/>
<path style="fill:#2D3E50;" d="M105.025,118.045c-64.479,64.477-64.479,169.018,0,233.496c64.477,64.477,169.018,64.477,233.496,0
	c64.477-64.479,64.477-169.02,0-233.496C274.043,53.566,169.502,53.566,105.025,118.045z M363.23,234.793
	c0,37.785-14.715,73.307-41.432,100.023c-26.719,26.719-62.242,41.434-100.025,41.434c-37.785,0-73.309-14.715-100.025-41.434
	c-26.719-26.717-41.432-62.24-41.432-100.023c0-37.785,14.713-73.309,41.432-100.025c26.717-26.719,62.24-41.432,100.025-41.432
	c37.783,0,73.307,14.713,100.023,41.432C348.516,161.484,363.23,197.008,363.23,234.793z"/>
<path style="fill:#FFFFFF;" d="M321.798,134.767c-26.717-26.718-62.242-41.431-100.025-41.431
	c-37.785,0-73.307,14.713-100.025,41.431s-41.432,62.241-41.432,100.024c0,37.785,14.713,73.309,41.432,100.025
	c26.719,26.719,62.24,41.433,100.025,41.433s73.309-14.714,100.025-41.432c26.719-26.718,41.432-62.241,41.432-100.026
	C363.229,197.008,348.517,161.484,321.798,134.767z"/>
<path style="fill:#01C26E;" d="M292.829,208.777c-14.979,0-29.829,0-44.829,0.002c0-13.355,0-26.713,0-40.068
	c0-1.621,0-3.244,0-4.867c0-14.18-11.976-26.014-26.156-26.014s-26.086,11.834-26.086,26.016
	c-0.002,14.977-0.037,29.955-0.037,44.932c-13.242,0.002-26.689,0.002-40.045,0c-1.623,0.002-3.254,0.002-4.877,0
	c-14.181,0-26.02,11.834-26.02,26.016c0.002,14.182,11.834,26.014,26.015,26.014c14.978,0.002,29.758,0,44.895,0
	c0,13.355-0.003,26.711-0.001,40.068c0,1.621-0.002,3.244-0.002,4.865c0.002,14.182,11.835,26.016,26.016,26.014
	c14.181,0.002,26.016-11.737,26.016-25.917c-0.002-14.979-0.003-29.837-0.002-44.837c13.244,0,26.749,0,40.106,0
	c1.621,0,3.243,0,4.864,0c14.181,0,26.088-11.929,26.086-26.112C318.771,220.708,307.01,208.777,292.829,208.777z"/>
<path style="opacity:0.1;fill:#5D5D5D;enable-background:new    ;" d="M338.52,118.043c-64.479-64.477-169.018-64.477-233.496,0.002
	c-3.826,3.826-7.418,7.798-10.789,11.89l16.811,16.812L309.818,345.52l16.811,16.811c4.092-3.373,8.064-6.965,11.891-10.791
	C402.998,287.061,402.998,182.521,338.52,118.043z"/>
<g>
</g>
<g>
</g>
<g>
</g>
<g>
</g>
<g>
</g>
<g>
</g>
<g>
</g>
<g>
</g>
<g>
</g>
<g>
</g>
<g>
</g>
<g>
</g>
<g>
</g>
<g>
</g>
<g>
</g>
</svg>
