<svg id="Capa_1" enable-background="new 0 0 512 512" height="512" viewBox="0 0 512 512" width="512" xmlns="http://www.w3.org/2000/svg"><path d="m403.722 512h-295.444c-11.377 0-20.6-9.223-20.6-20.6v-26.789h336.642v26.789c.001 11.377-9.222 20.6-20.598 20.6z" fill="#f2cdae"/><path d="m478.396 198.306v127.742c0 18.214-14.763 32.966-32.966 32.966h-58.956v-30.905h54.835c3.41 0 6.181-2.761 6.181-6.181v-119.501c0-3.41-2.771-6.181-6.181-6.181h-54.835v-30.906h58.956c18.203 0 32.966 14.763 32.966 32.966z" fill="#8cf2ff"/><path d="m360.94 453.449h-209.88c-22.835 0-41.346-18.511-41.346-41.346v-276.308c0-2.217 1.797-4.014 4.014-4.014h284.543c2.217 0 4.014 1.797 4.014 4.014v276.308c.001 22.835-18.51 41.346-41.345 41.346z" fill="#bdf9ff"/><path d="m371.38 131.78v280.173c0 22.917-18.444 41.495-41.197 41.495h30.905c22.752 0 41.197-18.578 41.197-41.495v-276.144c0-2.225-1.791-4.029-4-4.029z" fill="#8cf2ff"/><path d="m109.714 248.806v163.148c0 22.917 18.444 41.495 41.197 41.495h210.178c22.752 0 41.197-18.578 41.197-41.495v-163.148z" fill="#d35d3f"/><path d="m371.38 248.806v163.148c0 22.917-18.444 41.495-41.197 41.495h30.905c22.752 0 41.197-18.578 41.197-41.495v-163.148z" fill="#c24b31"/><path d="m471.276 481.095h-430.552c-14.759 0-26.724-11.965-26.724-26.725v-1.181c0-1.657 1.343-2.999 2.999-2.999h478.001c1.657 0 2.999 1.343 2.999 2.999v1.181c.001 14.76-11.964 26.725-26.723 26.725z" fill="#ffe8cf"/><path d="m467.106 450.189v4.176c0 14.763-11.963 26.73-26.719 26.73h30.894c14.757 0 26.719-11.967 26.719-26.73v-1.176c0-1.657-1.343-3-2.999-3z" fill="#f2cdae"/><path d="m245.177 248.806h-55.63v-244.792c0-2.217 1.797-4.014 4.014-4.014h47.601c2.217 0 4.014 1.797 4.014 4.014v244.792z" fill="#bf6724"/><path d="m214.272 0v248.806h30.905v-244.777c0-2.225-1.791-4.029-4-4.029z" fill="#a35418"/></svg>