<svg id="Capa_1" enable-background="new 0 0 512 512" height="512" viewBox="0 0 512 512" width="512" xmlns="http://www.w3.org/2000/svg"><path d="m271.453 300.813h-30.905v-285.36c-.001-8.535 6.918-15.453 15.452-15.453 8.534 0 15.453 6.918 15.453 15.453z" fill="#bf6724"/><path d="m486.245 512h-455.34c-17.068 0-30.905-13.837-30.905-30.905v-36.692c0-2.209 1.791-4 4-4h504c2.209 0 4 1.791 4 4v41.843c0 14.223-11.531 25.754-25.755 25.754z" fill="#f2ac57"/><path d="m481.095 440.402v45.843c0 14.224-11.531 25.755-25.755 25.755h30.905c14.224 0 25.755-11.531 25.755-25.755v-41.843c0-2.209-1.791-4-4-4z" fill="#e39e4b"/><path d="m429.328 320.328c-19.233 19.233-50.248 4.151-54.803 1.774-.375-.196-.673-.494-.868-.868-2.378-4.556-17.467-35.577 1.767-54.811 27.977-27.977 65.764-22.453 73.3-21.006.824.158 1.461.795 1.619 1.619 1.444 7.535 6.962 45.316-21.015 73.292z" fill="#ffca28"/><path d="m450.341 247.036c-.158-.824-.795-1.461-1.619-1.619-4.001-.768-16.532-2.685-31.594-.127.248.044.484.088.689.127.824.158 1.461.795 1.619 1.619 1.445 7.535 6.963 45.316-21.013 73.293-3.264 3.264-6.87 5.52-10.625 7.037 11.942 3.507 29.166 5.327 41.531-7.037 27.976-27.977 22.458-65.758 21.012-73.293z" fill="#ffb300"/><path d="m162.156 118.075c19.233 19.233 4.151 50.248 1.774 54.803-.196.375-.494.673-.868.868-4.556 2.378-35.577 17.467-54.811-1.767-27.977-27.977-22.453-65.764-21.006-73.3.158-.824.795-1.461 1.619-1.619 7.534-1.444 45.315-6.962 73.292 21.015z" fill="#ffca28"/><path d="m162.156 118.075c-27.234-27.234-63.748-22.729-72.618-21.138 13.305 2.26 28.588 8.013 41.713 21.138 19.233 19.233 4.151 50.248 1.774 54.804-.196.375-.494.673-.868.868-1.628.849-6.643 3.319-13.284 5.268 18.378 7.426 40.406-3.294 44.189-5.268.375-.196.673-.494.868-.868 2.377-4.556 17.459-35.571-1.774-54.804z" fill="#ffb300"/><path d="m428.677 267.075c-2.929-2.927-7.677-2.929-10.607 0l-66.177 66.176c-2.929 2.93-2.929 7.678 0 10.607 2.931 2.929 7.678 2.928 10.607 0l66.177-66.176c2.928-2.929 2.928-7.677 0-10.607z" fill="#bf6724"/><path d="m119.509 118.727c-2.929-2.928-7.678-2.928-10.606 0-2.929 2.93-2.929 7.678 0 10.607l66.177 66.177c2.93 2.929 7.678 2.928 10.606 0 2.929-2.93 2.929-7.678 0-10.607z" fill="#bf6724"/><path d="m240.547 228.7h30.905v72.113h-30.905z" fill="#ffe8cf"/><path d="m255.156 440.402c-61.092 0-100.681 0-100.681 0 54.623-38.575 55.167-110.229 55.167-110.229 0-25.603 20.755-46.358 46.358-46.358 25.603 0 46.358 20.755 46.358 46.358 0 0 13.89 110.229-47.202 110.229z" fill="#ffca28"/><path d="m302.358 330.173c0-25.603-20.755-46.358-46.358-46.358-5.42 0-10.618.939-15.453 2.648 18.003 6.365 30.905 23.527 30.905 43.71 0 0 13.89 110.229-47.202 110.229h30.905c61.093 0 47.203-110.229 47.203-110.229z" fill="#ffb300"/></svg>