<svg id="Capa_1" enable-background="new 0 0 512 512" height="512" viewBox="0 0 512 512" width="512" xmlns="http://www.w3.org/2000/svg"><path d="m403.722 512h-295.444c-11.377 0-20.6-9.223-20.6-20.6v-25.758h336.642v25.758c.001 11.377-9.222 20.6-20.598 20.6z" fill="#f2cdae"/><path d="m129.47 465.642h-55.63v-393.196c0-2.209 1.791-4 4-4h47.63c2.209 0 4 1.791 4 4z" fill="#bf6724"/><path d="m98.565 68.446v397.196h30.905v-393.196c0-2.209-1.791-4-4-4z" fill="#a35418"/><path d="m240.73 465.642h-55.63v-417.344c0-2.209 1.791-4 4-4h47.63c2.209 0 4 1.791 4 4z" fill="#bf6724"/><path d="m209.824 44.298v421.344h30.905v-417.344c0-2.209-1.791-4-4-4z" fill="#a35418"/><path d="m185.1 465.642h-55.63v-461.642c0-2.209 1.791-4 4-4h47.63c2.209 0 4 1.791 4 4z" fill="#bf6724"/><path d="m154.194 0v465.642h30.906v-461.642c0-2.209-1.791-4-4-4z" fill="#a35418"/><path d="m247.941 223.803h-181.312c-9.103 0-16.483-7.38-16.483-16.483 0-9.103 7.38-16.483 16.483-16.483h181.312c9.103 0 16.483 7.38 16.483 16.483 0 9.103-7.38 16.483-16.483 16.483z" fill="#f2cdae"/><path d="m247.941 190.837h-30.905c9.103 0 16.483 7.38 16.483 16.483 0 9.103-7.38 16.483-16.483 16.483h30.905c9.103 0 16.483-7.38 16.483-16.483 0-9.103-7.38-16.483-16.483-16.483z" fill="#e6b793"/><path d="m247.941 256.768h-181.312c-9.103 0-16.483-7.38-16.483-16.483 0-9.103 7.38-16.483 16.483-16.483h181.312c9.103 0 16.483 7.38 16.483 16.483 0 9.104-7.38 16.483-16.483 16.483z" fill="#ffe8cf"/><path d="m247.941 223.803h-30.905c9.103 0 16.483 7.38 16.483 16.483 0 9.103-7.38 16.483-16.483 16.483h30.905c9.103 0 16.483-7.38 16.483-16.483 0-9.104-7.38-16.483-16.483-16.483z" fill="#f2cdae"/><path d="m247.941 289.734h-181.312c-9.103 0-16.483-7.38-16.483-16.483 0-9.103 7.38-16.483 16.483-16.483h181.312c9.103 0 16.483 7.38 16.483 16.483 0 9.104-7.38 16.483-16.483 16.483z" fill="#f2cdae"/><path d="m247.941 256.768h-30.905c9.103 0 16.483 7.38 16.483 16.483 0 9.103-7.38 16.483-16.483 16.483h30.905c9.103 0 16.483-7.38 16.483-16.483 0-9.103-7.38-16.483-16.483-16.483z" fill="#e6b793"/><path d="m127.181 454.75s49.925-117.881 170.198-117.881 171.822 117.881 171.822 117.881z" fill="#8c4815"/><path d="m297.38 336.869c-5.287 0-10.431.24-15.448.676 109.241 9.473 156.365 117.205 156.365 117.205h30.905c-.001 0-51.549-117.881-171.822-117.881z" fill="#733a10"/><path d="m471.276 481.095h-430.552c-14.759 0-26.724-11.965-26.724-26.725v-.006c0-2.306 1.869-4.175 4.175-4.175h475.65c2.306 0 4.175 1.869 4.175 4.175v.006c0 14.76-11.965 26.725-26.724 26.725z" fill="#ffe8cf"/><path d="m467.106 450.189v4.176c0 14.763-11.963 26.73-26.719 26.73h30.894c14.757 0 26.719-11.967 26.719-26.73 0-2.306-1.869-4.176-4.174-4.176z" fill="#f2cdae"/></svg>