<svg id="Capa_1" enable-background="new 0 0 512 512" height="512" viewBox="0 0 512 512" width="512" xmlns="http://www.w3.org/2000/svg"><path d="m271.573 512h-31.147c-2.209 0-4-1.791-4-4v-504c0-2.209 1.791-4 4-4h31.147c2.209 0 4 1.791 4 4v504c0 2.209-1.79 4-4 4z" fill="#7cb342"/><path d="m236.427 480.78v-41.606l43.829-43.83 21.208 21.208z" fill="#bf6724"/><path d="m275.573 304.138v-41.607l-43.829-43.83-21.208 21.208z" fill="#bf6724"/><path d="m91.944 213.131c60.406 60.406 103.1 52.499 134.31 21.289s39.118-73.904-21.289-134.31-170.212-111.691-197.462-84.442 24.035 137.056 84.441 197.463z" fill="#ffca28"/><path d="m204.965 100.109c-54.685-54.685-149.855-101.892-187.608-90.125 45.467 8.639 93.398 41.135 136.926 83.737 36.502 35.726 72.276 109.489 41.066 140.699-10.642 10.642-22.62 18.57-36.179 22.009 27.031 6.345 48.988-3.913 67.084-22.009 31.21-31.21 39.118-73.904-21.289-134.311z" fill="#ffb300"/><path d="m420.056 389.773c-60.406 60.406-103.1 52.499-134.31 21.289s-39.118-73.904 21.289-134.31 170.213-111.69 197.462-84.441c27.249 27.25-24.035 137.056-84.441 197.462z" fill="#ffca28"/><g fill="#ffb300"><path d="m504.497 192.311c-7.822-7.822-22.454-9.163-40.759-5.685 3.949 1.231 7.273 3.104 9.854 5.685 27.249 27.249-24.034 137.056-84.441 197.462-25.382 25.382-47.636 38.7-67.226 43.298 26.206 6.647 58.322-3.488 98.131-43.298 60.406-60.406 111.69-170.212 84.441-197.462z"/><path d="m46.507 44.066c-2.929-2.929-7.678-2.929-10.606 0-2.929 2.929-2.929 7.678 0 10.606l179.697 179.698c2.929 2.929 7.678 2.929 10.606 0 2.929-2.929 2.929-7.678 0-10.606z"/><path d="m476.1 220.709c-2.93-2.929-7.678-2.929-10.607 0l-179.79 179.789c-2.929 2.929-2.929 7.678 0 10.606 2.93 2.929 7.678 2.929 10.607 0l179.79-179.789c2.928-2.928 2.928-7.677 0-10.606z"/></g><path d="m285.746 411.062s100.552-126.139 38.041-214.112c-.71-.999-2.151-1.117-3.022-.255-14.876 14.713-122.435 126.951-35.019 214.367z" fill="#9ccc65"/><path d="m320.764 196.695c-2.909 2.878-9.365 9.487-17.213 18.91 28.347 63.434-11.528 139.509-34.479 175.154 4.517 6.875 10.031 13.66 16.673 20.302 0 0 100.552-126.139 38.041-214.112-.709-.998-2.15-1.116-3.022-.254z" fill="#8bc34a"/><path d="m285.746 411.062s126.139-100.552 214.112-38.041c.999.71 1.117 2.151.255 3.022-14.713 14.876-126.951 122.435-214.367 35.019z" fill="#9ccc65"/><path d="m417.2 353.4c17.843 2.064 35.422 8.032 51.696 19.581 1.031.732 1.143 2.222.253 3.121-9.842 9.94-61.791 59.797-121.052 67.77 71.254 10.284 140.642-56.332 152.01-67.823.863-.873.749-2.318-.251-3.029-25.664-18.235-54.576-22.593-82.656-19.62z" fill="#8bc34a"/><path d="m226.254 234.419s-100.552-126.139-38.041-214.112c.71-.999 2.151-1.117 3.022-.255 14.876 14.713 122.435 126.952 35.019 214.367z" fill="#9ccc65"/><path d="m188.212 20.31c-4.301 6.055-7.826 12.291-10.669 18.653 29.229 35.097 77.782 109.244 34.479 175.154 8.195 12.728 14.233 20.303 14.233 20.303 87.413-87.413-20.137-199.647-35.017-214.365-.873-.864-2.316-.745-3.026.255z" fill="#8bc34a"/><path d="m226.254 234.419s-126.139-100.552-214.112-38.041c-.999.71-1.117 2.151-.255 3.022 14.713 14.876 126.951 122.435 214.367 35.019z" fill="#9ccc65"/><path d="m63.895 176.758c68.177 7.22 131.454 57.662 131.454 57.662-19.974 19.974-41.245 29.763-62.351 32.81 30.737 4.135 63.44-2.993 93.257-32.81-.001 0-83.75-66.757-162.36-57.662z" fill="#8bc34a"/></svg>