<svg id="Capa_1" enable-background="new 0 0 512 512" height="512" viewBox="0 0 512 512" width="512" xmlns="http://www.w3.org/2000/svg"><path d="m349.504 230.036c-19.233-19.233-4.151-50.248-1.774-54.803.196-.375.494-.673.868-.868 4.556-2.378 35.577-17.467 54.811 1.767 27.977 27.977 22.453 65.764 21.006 73.3-.158.824-.795 1.461-1.619 1.619-7.534 1.444-45.315 6.962-73.292-21.015z" fill="#ffca28"/><path d="m403.409 176.131c-12.361-12.361-29.583-10.542-41.527-7.035 3.754 1.517 7.359 3.773 10.621 7.035 27.977 27.977 22.453 65.764 21.006 73.3-.158.824-.795 1.461-1.619 1.619-.2.038-.432.081-.674.124 15.056 2.557 27.58.643 31.58-.124.824-.158 1.461-.795 1.619-1.619 1.447-7.536 6.971-45.323-21.006-73.3z" fill="#ffb300"/><path d="m402.758 218.777-69.968-69.967c-2.93-2.929-7.678-2.929-10.607 0s-2.929 7.678 0 10.606l69.968 69.967c2.93 2.929 7.678 2.929 10.607 0 2.929-2.928 2.929-7.677 0-10.606z" fill="#bf6724"/><path d="m105.639 129.631c19.233-19.233 50.248-4.151 54.803-1.774.375.196.673.494.868.868 2.378 4.556 17.467 35.577-1.767 54.811-27.977 27.977-65.764 22.453-73.3 21.006-.824-.158-1.461-.795-1.619-1.619-1.444-7.535-6.962-45.316 21.015-73.292z" fill="#ffca28"/><path d="m161.311 128.725c-.196-.375-.494-.673-.869-.868-3.783-1.974-25.803-12.688-44.178-5.264 6.635 1.948 11.646 4.415 13.273 5.264.375.196.673.494.869.868 2.378 4.556 17.466 35.577-1.767 54.811-13.122 13.122-28.401 18.874-41.706 21.133 8.898 1.595 45.392 6.085 72.611-21.133 19.234-19.234 4.145-50.255 1.767-54.811z" fill="#ffb300"/><path d="m190.353 98.822c-2.929-2.929-7.678-2.929-10.606 0l-73.455 73.455c-2.929 2.929-2.929 7.678 0 10.606 2.929 2.929 7.678 2.929 10.606 0l73.455-73.455c2.929-2.928 2.929-7.678 0-10.606z" fill="#bf6724"/><path d="m249.542 303.5-74.96-57.128c-1.491-1.145-3.654-.666-4.522 1.001l-1.735 3.332c-.555 1.066-.426 2.359.329 3.294l71.399 88.57z" fill="#a35418"/><path d="m259.588 194.849 96.749-81.505c1.354-1.148 3.4-.888 4.424.562.763 1.081.735 2.532-.07 3.582l-85.475 112.338z" fill="#733a10"/><path d="m240.053 128.058c.028-.494-72.663-49.365-86.262-58.409-1.485-.988-3.494-.478-4.335 1.095l-1.414 2.646c-.621 1.162-.417 2.593.503 3.536l86.98 89.566z" fill="#a35418"/><path d="m233.028 3.892-8.634 155.64 8.911 141.228-19.607 153.67h76.903l2.445-169.844-32.199-136.459-11.018-144.324c-.164-2.147-1.901-3.803-3.988-3.803h-8.82c-2.12 0-3.872 1.707-3.993 3.892z" fill="#bf6724"/><path d="m260.846 148.127-11.017-144.324c-.164-2.147-1.901-3.803-3.988-3.803h-8.689c-2.173 0-3.949 1.791-3.999 4.032l-3.147 141.155c-.044 1.951.161 3.9.609 5.797l30.872 130.835c.434 1.837.639 3.724.612 5.615l-2.404 166.997h30.905l2.445-169.844z" fill="#a35418"/><path d="m88.311 316.565c26.431-6.422 45.074 22.592 47.728 26.992.218.362.318.772.29 1.193-.339 5.128-3.588 39.471-30.02 45.893-38.447 9.342-67.846-15.032-73.53-20.187-.621-.564-.834-1.439-.54-2.224 2.686-7.188 17.626-42.325 56.072-51.667z" fill="#d35d3f"/><path d="m136.039 343.557c-2.654-4.4-21.298-33.414-47.728-26.992-2.971.722-5.785 1.614-8.48 2.619 14.173 6.817 23.486 21.361 25.303 24.373.218.362.318.772.29 1.193-.339 5.128-3.588 39.471-30.019 45.893-.724.176-1.438.317-2.156.469 9.828 2.072 20.999 2.462 33.061-.469 26.431-6.422 29.68-40.765 30.019-45.893.028-.421-.071-.831-.29-1.193z" fill="#c24b31"/><path d="m375.225 381.08c-23.23-14.148-15.897-47.847-14.663-52.835.102-.41.321-.77.639-1.049 3.866-3.386 30.447-25.373 53.678-11.224 33.792 20.581 37.345 58.604 37.719 66.268.041.838-.428 1.607-1.191 1.955-6.981 3.183-42.391 17.465-76.182-3.115z" fill="#d35d3f"/><path d="m414.879 315.972c-11.293-6.878-23.371-5.21-33.254-1.297.786.395 1.569.822 2.348 1.297 33.792 20.581 37.345 58.604 37.719 66.268.041.838-.428 1.607-1.191 1.955-2.863 1.306-10.513 4.475-20.866 6.344 24.864 4.841 46.482-3.932 51.772-6.344.763-.348 1.232-1.117 1.191-1.955-.374-7.665-3.928-45.688-37.719-66.268z" fill="#c24b31"/><path d="m156.468 330.605-79.348 18.974c-4.029.963-6.514 5.01-5.55 9.039s5.01 6.514 9.039 5.55l79.348-18.974c4.029-.963 6.514-5.01 5.55-9.039s-5.011-6.512-9.039-5.55z" fill="#733a10"/><path d="m413.998 352.643-67.561-44.561c-3.459-2.28-8.11-1.327-10.391 2.131-2.28 3.458-1.326 8.109 2.131 10.39l67.561 44.561c3.451 2.275 8.104 1.336 10.391-2.131 2.28-3.458 1.326-8.11-2.131-10.39z" fill="#733a10"/><path d="m486.245 512h-455.34c-17.068 0-30.905-13.837-30.905-30.905v-36.692c0-2.209 1.791-4 4-4h504c2.209 0 4 1.791 4 4v41.843c0 14.223-11.531 25.754-25.755 25.754z" fill="#f2ac57"/><path d="m481.095 440.402v45.843c0 14.224-11.531 25.755-25.755 25.755h30.905c14.224 0 25.755-11.531 25.755-25.755v-41.843c0-2.209-1.791-4-4-4z" fill="#e39e4b"/></svg>