<svg id="Capa_1" enable-background="new 0 0 512 512" height="512" viewBox="0 0 512 512" width="512" xmlns="http://www.w3.org/2000/svg"><path d="m459 174.865v159.553c0 34.603-27.752 62.655-61.986 62.655h-207.722c-23.727 0-46.137-11.02-60.783-29.889l-67.023-86.35c-10.214-13.159-11.306-31.333-2.744-45.646 11.881-19.86 37.878-25.465 56.742-12.234l18.29 12.828c7.574 5.313 17.934-.167 17.934-9.486v-132.488c0-51.809 41.551-93.808 92.806-93.808h41.488c95.544 0 172.998 78.29 172.998 174.865z" fill="#ffa000"/><path d="m286.002 0h-30.914c95.544 0 172.998 78.29 172.998 174.865v159.553c0 34.604-27.752 62.655-61.986 62.655h30.914c34.234 0 61.986-28.052 61.986-62.655v-159.553c0-96.575-77.454-174.865-172.998-174.865z" fill="#f57f17"/><path d="m428.82 413.1v78.32c0 11.36-9.21 20.58-20.58 20.58h-214.32c-11.37 0-20.58-9.22-20.58-20.58v-78.32c0-11.37 9.21-20.59 20.58-20.59h214.32c11.37 0 20.58 9.22 20.58 20.59z" fill="#e53935"/><path d="m408.241 392.515h-30.905c11.368 0 20.583 9.215 20.583 20.583v78.319c0 11.368-9.215 20.583-20.583 20.583h30.905c11.368 0 20.583-9.215 20.583-20.583v-78.319c0-11.368-9.216-20.583-20.583-20.583z" fill="#d32f2f"/><path d="m241.93 477.61v34.39h-15v-34.39c0-4.14 3.35-7.5 7.5-7.5 4.14 0 7.5 3.36 7.5 7.5z" fill="#c62828"/><path d="m307.26 477.61v34.39h-15v-34.39c0-4.14 3.36-7.5 7.5-7.5s7.5 3.36 7.5 7.5z" fill="#c62828"/><path d="m372.59 477.61v34.39h-15v-34.39c0-4.14 3.36-7.5 7.5-7.5 4.15 0 7.5 3.36 7.5 7.5z" fill="#c62828"/><path d="m241.41 392.51v35.42c0 4.14-3.36 7.5-7.5 7.5s-7.5-3.36-7.5-7.5v-35.42z" fill="#c62828"/><path d="m308.58 392.51v35.42c0 4.14-3.36 7.5-7.5 7.5s-7.5-3.36-7.5-7.5v-35.42z" fill="#c62828"/><path d="m375.75 392.51v35.42c0 4.14-3.36 7.5-7.5 7.5s-7.5-3.36-7.5-7.5v-35.42z" fill="#c62828"/><path d="m390.66 202.78v83.71c0 9.88-8.01 17.89-17.89 17.89h-131.11c-9.88 0-17.88-8.01-17.88-17.89v-83.71c0-9.87 8-17.88 17.88-17.88h131.11c9.88 0 17.89 8.01 17.89 17.88z" fill="#ffe8cf"/><g fill="#f57f17"><path d="m267.37 184.9v22.66c0 4.14-3.35 7.5-7.5 7.5-4.14 0-7.5-3.36-7.5-7.5v-22.66z"/><path d="m314.72 184.9v22.66c0 4.14-3.36 7.5-7.5 7.5s-7.5-3.36-7.5-7.5v-22.66z"/><path d="m362.06 184.9v22.66c0 4.14-3.35 7.5-7.5 7.5-4.14 0-7.5-3.36-7.5-7.5v-22.66z"/><path d="m267.37 281.72v22.66h-15v-22.66c0-4.14 3.36-7.5 7.5-7.5 4.15 0 7.5 3.36 7.5 7.5z"/><path d="m314.72 281.72v22.66h-15v-22.66c0-4.14 3.36-7.5 7.5-7.5s7.5 3.36 7.5 7.5z"/><path d="m362.06 281.72v22.66h-15v-22.66c0-4.14 3.36-7.5 7.5-7.5 4.15 0 7.5 3.36 7.5 7.5z"/></g></svg>