<svg id="Capa_1" enable-background="new 0 0 512 512" height="512" viewBox="0 0 512 512" width="512" xmlns="http://www.w3.org/2000/svg"><path d="m385.959 512h-259.918c-2.209 0-4-1.791-4-4v-43.388h267.919v43.388c-.001 2.209-1.791 4-4.001 4z" fill="#ffe8cf"/><path d="m359.046 464.612v47.388h26.914c2.209 0 4-1.791 4-4v-43.388z" fill="#f2cdae"/><path d="m345.389 474.913h-178.778c-62.746 0-113.611-50.865-113.611-113.611v-32.795c0-2.209 1.791-4 4-4h398c2.209 0 4 1.791 4 4v32.795c0 62.746-50.865 113.611-113.611 113.611z" fill="#d35d3f"/><path d="m428.086 324.507v36.811c0 62.737-50.872 113.596-113.626 113.596h30.914c62.754 0 113.626-50.859 113.626-113.596v-32.811c0-2.209-1.791-4-4-4z" fill="#c24b31"/><path d="m386.181 196.331 6.79 14.054c2.159 4.469.268 9.892-4.202 12.051l-20.636 9.965 18.878 39.072c.96 1.988.127 4.378-1.861 5.338l-31.771 15.342c-1.988.96-4.379.127-5.339-1.861l-18.878-39.072-20.636 9.965c-4.471 2.159-9.895.268-12.054-4.201l-6.79-14.054c-8.896-18.413-1.106-40.755 17.312-49.649l29.525-14.257c18.418-8.895 40.766-1.106 49.662 17.307z" fill="#ffe8cf"/><path d="m336.519 179.023-27.837 13.442c18.418-8.894 40.766-1.106 49.662 17.308l6.79 14.054c.03.063.06.125.089.188 1.919 4.137.442 9.072-3.348 11.608-7.468 4.997-10.308 14.857-6.287 23.179l10.908 22.577c.96 1.988.127 4.378-1.861 5.338l20.514-9.906c1.988-.96 2.822-3.35 1.861-5.338l-18.878-39.072 20.636-9.965c4.471-2.159 6.362-7.582 4.202-12.051l-6.79-14.054c-8.895-18.413-31.243-26.202-49.661-17.308z" fill="#f2cdae"/><path d="m204.748 149.612-8.682 12.971c-2.761 4.125-8.396 5.242-12.522 2.481l-19.046-12.742-24.138 36.062c-1.228 1.835-3.711 2.327-5.547 1.099l-29.323-19.617c-1.835-1.228-2.327-3.71-1.099-5.545l24.138-36.062-19.046-12.742c-4.126-2.76-5.243-8.394-2.482-12.519l8.682-12.971c11.375-16.995 34.59-21.595 51.59-10.223l27.251 18.23c16.998 11.374 21.599 34.583 10.224 51.578z" fill="#ffe8cf"/><path d="m194.523 98.036-25.693-17.188c16.999 11.372 21.601 34.581 10.226 51.576l-8.682 12.971c-.039.058-.078.115-.117.172-2.596 3.749-7.601 4.976-11.708 2.993-8.093-3.907-18.035-1.361-23.176 6.321l-13.947 20.838c-1.228 1.835-3.711 2.327-5.547 1.099l18.934 12.666c1.835 1.228 4.318.736 5.547-1.099l24.138-36.062 19.046 12.742c4.126 2.76 9.761 1.644 12.522-2.481l8.682-12.971c11.375-16.996 6.774-40.205-10.225-51.577z" fill="#f2cdae"/><path d="m340.297 29.95 3.035 15.309c.965 4.869-2.23 9.642-7.1 10.607l-22.48 4.455 8.439 42.563c.429 2.165-.979 4.269-3.145 4.698l-34.609 6.858c-2.166.429-4.27-.978-4.699-3.144l-8.438-42.563-22.48 4.454c-4.87.965-9.644-2.229-10.61-7.098l-3.035-15.31c-3.977-20.058 9.185-39.722 29.249-43.698l32.164-6.373c20.063-3.975 39.733 9.184 43.709 29.242z" fill="#ffe8cf"/><path d="m296.588.709-30.324 6.009c20.064-3.976 39.733 9.183 43.71 29.241l3.035 15.309c.014.068.026.136.039.204.816 4.486-1.855 8.891-6.162 10.393-8.486 2.958-13.715 11.787-11.917 20.853l4.876 24.594c.429 2.166-.978 4.269-3.145 4.698l22.347-4.428c2.166-.429 3.574-2.533 3.145-4.698l-8.439-42.563 22.48-4.455c4.87-.965 8.065-5.738 7.1-10.607l-3.035-15.31c-3.977-20.057-23.647-33.216-43.71-29.24z" fill="#f2cdae"/><g fill="#ffca28"><ellipse cx="151.667" cy="262.466" rx="21.377" ry="21.371"/><ellipse cx="187.371" cy="38.753" rx="21.377" ry="21.371"/><ellipse cx="238.462" cy="189.17" rx="21.377" ry="21.371"/><ellipse cx="372.957" cy="128.893" rx="19.362" ry="19.357"/></g></svg>