<svg id="Capa_1" enable-background="new 0 0 512 512" height="512" viewBox="0 0 512 512" width="512" xmlns="http://www.w3.org/2000/svg"><path d="m336.622 440.402h-161.244c-58.795 0-106.457-47.662-106.457-106.457v-71.656c0-58.795 47.662-106.457 106.457-106.457h161.243c58.795 0 106.457 47.662 106.457 106.457v71.656c.001 58.795-47.662 106.457-106.456 106.457z" fill="#f57c00"/><path d="m336.622 155.832h-30.905c58.795 0 106.457 47.662 106.457 106.457v71.656c0 58.795-47.662 106.457-106.457 106.457h30.905c58.795 0 106.457-47.662 106.457-106.457v-71.656c0-58.795-47.663-106.457-106.457-106.457z" fill="#ef6c00"/><path d="m260.47 440.402h-8.94c-54.757 0-99.147-44.389-99.147-99.147v-86.277c0-54.757 44.389-99.147 99.147-99.147h8.94c54.757 0 99.147 44.389 99.147 99.147v86.277c-.001 54.758-44.39 99.147-99.147 99.147z" fill="#ff9800"/><path d="m260.47 155.832h-8.94c-3.713 0-7.376.211-10.983.609 49.588 5.466 88.164 47.494 88.164 98.538v86.277c0 51.044-38.576 93.072-88.164 98.538 3.607.398 7.27.609 10.983.609h8.94c54.757 0 99.147-44.389 99.147-99.147v-86.277c-.001-54.758-44.39-99.147-99.147-99.147z" fill="#fb8c00"/><path d="m76.325 439.868c19.233 19.233 4.151 50.248 1.774 54.803-.196.375-.494.673-.868.868-4.556 2.378-35.577 17.467-54.811-1.767-27.977-27.977-22.453-65.764-21.006-73.3.158-.824.795-1.461 1.619-1.619 7.535-1.443 45.316-6.962 73.292 21.015z" fill="#ffca28"/><path d="m76.325 439.868c-27.234-27.234-63.747-22.729-72.618-21.138 13.305 2.26 28.588 8.013 41.713 21.138 19.233 19.233 4.151 50.248 1.774 54.803-.196.375-.494.673-.868.868-1.628.85-6.644 3.319-13.284 5.268 18.378 7.426 40.406-3.294 44.189-5.268.375-.196.673-.494.868-.868 2.377-4.555 17.46-35.57-1.774-54.803z" fill="#ffb300"/><path d="m410.32 400.015c19.233-19.233 50.248-4.151 54.803-1.774.375.196.673.494.868.868 2.378 4.556 17.467 35.577-1.767 54.811-27.977 27.977-65.764 22.453-73.3 21.006-.824-.158-1.461-.795-1.619-1.619-1.443-7.534-6.961-45.315 21.015-73.292z" fill="#ffca28"/><path d="m465.992 399.11c-.195-.375-.494-.673-.868-.868-3.782-1.974-25.803-12.688-44.178-5.264 6.635 1.948 11.646 4.415 13.273 5.264.375.196.673.494.868.868 2.378 4.556 17.467 35.577-1.767 54.811-13.122 13.122-28.401 18.874-41.706 21.133 8.898 1.595 45.393 6.085 72.611-21.133 19.234-19.234 4.145-50.255 1.767-54.811z" fill="#ffb300"/><path d="m33.68 440.521c-2.929-2.929-7.677-2.929-10.607 0-2.929 2.929-2.929 7.678 0 10.606l58.676 58.676c2.929 2.929 7.677 2.929 10.607 0 2.929-2.929 2.929-7.678 0-10.606z" fill="#bf6724"/><path d="m487.756 376.485c-2.929-2.929-7.677-2.93-10.607 0l-66.177 66.176c-2.929 2.929-2.929 7.678 0 10.606 2.929 2.929 7.677 2.929 10.607 0l66.177-66.176c2.929-2.928 2.929-7.677 0-10.606z" fill="#bf6724"/><path d="m44.068 74.412c19.233-19.233 50.248-4.151 54.803-1.774.375.196.673.494.868.868 2.378 4.556 17.467 35.577-1.767 54.811-27.977 27.977-65.764 22.453-73.3 21.006-.824-.158-1.461-.795-1.619-1.619-1.444-7.534-6.962-45.315 21.015-73.292z" fill="#ffca28"/><path d="m99.74 73.507c-.196-.375-.494-.673-.869-.868-3.783-1.974-25.803-12.688-44.178-5.264 6.635 1.948 11.646 4.415 13.273 5.264.375.196.673.494.869.868 2.378 4.556 17.466 35.577-1.767 54.811-13.122 13.122-28.401 18.874-41.706 21.133 8.898 1.595 45.392 6.085 72.611-21.133 19.233-19.234 4.144-50.255 1.767-54.811z" fill="#ffb300"/><path d="m129.818 42.567c-2.93-2.929-7.678-2.929-10.607 0l-74.491 74.492c-2.929 2.929-2.929 7.678 0 10.606 2.93 2.929 7.678 2.929 10.607 0l74.491-74.492c2.929-2.928 2.929-7.677 0-10.606z" fill="#bf6724"/><path d="m414.029 155.748c-19.233-19.233-4.151-50.248-1.774-54.803.196-.375.494-.673.868-.868 4.556-2.378 35.577-17.467 54.811 1.767 27.977 27.977 22.453 65.764 21.006 73.3-.158.824-.795 1.461-1.619 1.619-7.534 1.444-45.315 6.962-73.292-21.015z" fill="#ffca28"/><path d="m467.934 101.843c-12.361-12.361-29.583-10.542-41.527-7.035 3.754 1.517 7.359 3.773 10.621 7.035 27.977 27.977 22.453 65.764 21.006 73.3-.158.824-.795 1.461-1.619 1.619-.2.038-.432.081-.674.124 15.056 2.557 27.58.643 31.58-.124.824-.158 1.461-.795 1.619-1.619 1.447-7.536 6.971-45.323-21.006-73.3z" fill="#ffb300"/><path d="m467.282 144.489-85.096-85.096c-2.93-2.929-7.678-2.929-10.607 0s-2.929 7.678 0 10.606l85.096 85.096c2.93 2.929 7.678 2.929 10.607 0 2.929-2.928 2.929-7.677 0-10.606z" fill="#bf6724"/><path d="m239.517 60.372h32.966v95.46h-32.966z" fill="#a35418"/><path d="m36.491 3.641 77.079 53.652c.555.386 1.199.626 1.871.696l212.509 22.106c.242.025.487.028.73.009l179.636-14.229c2.08-.165 3.684-1.901 3.684-3.988v-33.56c0-2.385-2.073-4.24-4.443-3.975l-174.853 19.496c-.246.027-.493.032-.74.014l-200.144-14.869c-.482-.036-.954-.159-1.392-.363l-61.105-28.443c-.265-.123-.553-.187-.844-.187h-30.846c-1.958 0-2.749 2.523-1.142 3.641z" fill="#bf6724"/><path d="m374.458 76.326c-19.233 19.233-50.248 4.151-54.803 1.774-.375-.196-.673-.494-.868-.868-2.378-4.556-17.467-35.577 1.767-54.811 27.977-27.977 65.764-22.453 73.3-21.006.824.158 1.461.795 1.619 1.619 1.443 7.534 6.961 45.316-21.015 73.292z" fill="#ffca28"/><path d="m395.471 3.034c-.158-.824-.795-1.461-1.619-1.619-4.001-.768-16.532-2.685-31.594-.127.248.044.484.088.689.127.824.158 1.461.795 1.619 1.619 1.445 7.535 6.963 45.316-21.013 73.293-3.264 3.264-6.87 5.52-10.625 7.037 11.943 3.507 29.167 5.327 41.531-7.037 27.975-27.977 22.457-65.759 21.012-73.293z" fill="#ffb300"/><path d="m373.806 23.073c-2.93-2.929-7.678-2.929-10.607 0l-106.389 106.389c-2.929 2.929-2.929 7.678 0 10.606 2.93 2.929 7.678 2.929 10.607 0l106.389-106.388c2.928-2.929 2.928-7.678 0-10.607z" fill="#bf6724"/></svg>