<svg id="Capa_1" enable-background="new 0 0 512 512" height="512" viewBox="0 0 512 512" width="512" xmlns="http://www.w3.org/2000/svg"><path d="m344.839 83.445h-172.454v-79.324c0-2.276 1.845-4.121 4.121-4.121h164.213c2.276 0 4.121 1.845 4.121 4.121v79.324z" fill="#bf6724"/><path d="m340.719 0h-30.905c2.276 0 4.121 1.845 4.121 4.121v79.324h30.905v-79.324c-.001-2.276-1.845-4.121-4.121-4.121z" fill="#a35418"/><path d="m282.916 512h-53.811c-2.209 0-4-1.791-4-4v-135.227h61.811v135.227c0 2.209-1.791 4-4 4z" fill="#bf6724"/><path d="m295.149 222.702h-78.277c-29.59 0-53.578-23.988-53.578-53.578v-38.283c0-29.59 23.988-53.578 53.578-53.578h78.277c29.59 0 53.578 23.988 53.578 53.578v38.283c0 29.59-23.988 53.578-53.578 53.578z" fill="#f57c00"/><path d="m256.957 222.702h-1.894c-22.235 0-40.26-18.025-40.26-40.26v-64.918c0-22.235 18.025-40.26 40.26-40.26h1.894c22.235 0 40.26 18.025 40.26 40.26v64.918c0 22.235-18.025 40.26-40.26 40.26z" fill="#ff9800"/><path d="m387.873 98.897h-263.726c-8.534 0-15.453-6.918-15.453-15.453 0-8.534 6.918-15.453 15.453-15.453h263.726c8.534 0 15.453 6.918 15.453 15.453 0 8.535-6.918 15.453-15.453 15.453z" fill="#a35418"/><path d="m387.873 67.992h-30.905c8.534 0 15.453 6.919 15.453 15.453s-6.919 15.453-15.453 15.453h30.905c8.534 0 15.453-6.919 15.453-15.453s-6.918-15.453-15.453-15.453z" fill="#8c4815"/><path d="m431.654 329.149c-7.638 2.901-31.788 16.049-37.556 67.568-.148 1.321-1.493 2.145-2.741 1.694-9.537-3.45-43.946-11.723-51.933 44.656-.231 1.629-2.168 2.367-3.394 1.273-10.956-9.782-50.788-38.635-78.126 29.716-.687 1.718-3.123 1.718-3.81 0-27.337-68.35-67.161-39.498-78.115-29.716-1.226 1.094-3.163.356-3.394-1.272-7.996-56.379-42.397-48.107-51.933-44.656-1.248.451-2.593-.372-2.741-1.693-5.776-51.519-29.928-64.667-37.566-67.568-1.186-.45-1.706-1.853-1.076-2.956 58.973-103.205 176.731-106.766 176.731-106.766s117.769 3.561 176.73 106.765c.63 1.102.11 2.505-1.076 2.955z" fill="#e6b793"/><g fill="#d49f77"><path d="m79.037 327.559c.122.694.59 1.317 1.309 1.591.034.013.074.03.108.043-.473-.566-.946-1.112-1.417-1.634z"/><path d="m432.73 326.193c-33.072-57.887-84.643-84.423-123.558-96.568 31.577 16.525 67.527 44.282 94.008 90.632.63 1.103.11 2.505-1.076 2.956-7.638 2.9-29.534 21.577-29.088 55.915.017 1.329-1.493 2.145-2.741 1.694-9.537-3.451-46.297-3.834-47.652 38.797-.052 1.644-1.246 2.546-2.472 1.452-10.381-9.269-55.591-11.633-76.679 31.893 3.679 5.695 7.246 12.649 10.623 21.091.687 1.718 3.123 1.718 3.81 0 27.338-68.351 67.17-39.498 78.126-29.716 1.226 1.095 3.163.356 3.394-1.273 7.988-56.379 42.396-48.106 51.933-44.656 1.248.452 2.593-.373 2.741-1.694 5.767-51.519 29.918-64.667 37.555-67.568 1.186-.449 1.706-1.852 1.076-2.955z"/></g></svg>