<svg id="Capa_1" enable-background="new 0 0 512 512" height="512" viewBox="0 0 512 512" width="512" xmlns="http://www.w3.org/2000/svg"><path d="m418.825 450.189h-46.433s-4.865-109.229 58.273-156.777c.77-.58 1.824.119 1.621 1.087-2.817 13.434-14.786 75.58-13.461 155.69z" fill="#ffb300"/><path d="m321.426 450.189h46.433s4.861-166.361-58.199-238.881c-.686-.789-1.939-.188-1.792.866 2.624 18.911 14.899 114.442 13.558 238.015z" fill="#ffa000"/><path d="m287.424 450.189h46.433s4.865-109.229-58.273-156.777c-.77-.58-1.824.119-1.621 1.087 2.816 13.434 14.785 75.58 13.461 155.69z" fill="#ffb300"/><path d="m386.825 450.189h-46.433s-4.861-160.104 58.207-229.885c.696-.77 1.929-.16 1.778.886-2.638 18.302-14.891 110.18-13.552 228.999z" fill="#ffca28"/><path d="m486.245 512h-455.34c-17.068 0-30.905-13.837-30.905-30.905v-36.692c0-2.209 1.791-4 4-4h504c2.209 0 4 1.791 4 4v41.843c0 14.223-11.531 25.754-25.755 25.754z" fill="#f2ac57"/><path d="m481.095 440.402v45.843c0 14.224-11.531 25.755-25.755 25.755h30.905c14.224 0 25.755-11.531 25.755-25.755v-41.843c0-2.209-1.791-4-4-4z" fill="#e39e4b"/><path d="m147.616 69.82c19.233 19.233 4.151 50.248 1.774 54.803-.196.375-.494.673-.868.868-4.556 2.378-35.577 17.467-54.811-1.767-27.977-27.977-22.453-65.764-21.006-73.3.158-.824.795-1.461 1.619-1.619 7.534-1.443 45.315-6.961 73.292 21.015z" fill="#ffca28"/><path d="m147.616 69.82c-27.234-27.234-63.748-22.729-72.618-21.138 13.305 2.26 28.588 8.013 41.713 21.138 19.233 19.233 4.151 50.248 1.774 54.804-.196.375-.494.673-.868.868-1.628.849-6.643 3.319-13.284 5.268 18.378 7.426 40.406-3.294 44.189-5.268.375-.196.673-.494.868-.868 2.377-4.556 17.459-35.57-1.774-54.804z" fill="#ffb300"/><path d="m171.146 136.648-66.177-66.176c-2.929-2.928-7.678-2.928-10.606 0-2.929 2.93-2.929 7.678 0 10.607l66.177 66.176c2.93 2.929 7.678 2.928 10.606 0 2.929-2.929 2.929-7.677 0-10.607z" fill="#bf6724"/><path d="m404.732 26.379-298.664 298.664c-6.035 6.035-15.819 6.035-21.853 0-6.035-6.035-6.035-15.819 0-21.853l298.664-298.664c6.035-6.035 15.819-6.035 21.853 0 6.035 6.035 6.035 15.819 0 21.853z" fill="#a35418"/><path d="m89.331 274.416c17.21 17.78 112.269 109.275 224.853 85.797 2.155-.449 2.192-3.522.05-4.027-27.537-6.49-111.845-33.078-180.145-125.58-1.492-2.021-4.44-2.228-6.216-.452l-38.488 38.488c-1.592 1.591-1.619 4.158-.054 5.774z" fill="#4380a0"/></svg>