<?xml version="1.0" encoding="iso-8859-1"?>
<!-- Generator: Adobe Illustrator 19.0.0, SVG Export Plug-In . SVG Version: 6.00 Build 0)  -->
<svg version="1.1" id="Capa_1" xmlns="http://www.w3.org/2000/svg" xmlns:xlink="http://www.w3.org/1999/xlink" x="0px" y="0px"
	 viewBox="0 0 512.064 512.064" style="enable-background:new 0 0 512.064 512.064;" xml:space="preserve">
<g transform="translate(-1 -1)">
	<path style="fill:#D75E72;" d="M506.914,374.779c0,24.188-17.655,67.708-59.057,67.708c0,0-4.943,62.588-68.943,62.588
		c-12.641,0.936-25.141-3.157-34.781-11.388c-6.772,12.429-20.021,19.927-34.163,19.332c-22.982-1.898-43.158-16.034-52.789-36.988
		c-9.715,21.038-30.039,35.185-53.142,36.988c-14.169,0.614-27.455-6.884-34.251-19.332c-9.598,8.243-22.076,12.339-34.692,11.388
		c-64,0-69.032-62.588-69.032-62.588c-41.313,0-58.968-43.52-58.968-67.708c-0.323-22.422,8.173-44.074,23.658-60.292
		c-19.335-20.202-30.011-47.16-29.749-75.123c0.153-41.108,20.057-79.636,53.495-103.548c0-92.16,104.872-97.81,104.872-97.81
		s10.152-36.988,63.382-36.988c12.368-0.229,24.447,3.756,34.251,11.299c9.811-7.53,21.885-11.514,34.251-11.299
		c53.23,0,63.382,36.988,63.382,36.988s104.872,5.65,104.872,97.81c34.166,19.06,54.813,55.619,53.495,94.72
		c-0.172,30.551-10.69,60.143-29.837,83.95C498.698,330.683,507.228,352.342,506.914,374.779z"/>
	<g>
		<path style="fill:#802D40;" d="M71.634,144.674c1.432-0.001,2.841-0.35,4.108-1.017c37.198-19.599,61.276-9.871,62.409-9.397
			c2.884,1.277,6.229,0.919,8.777-0.939c2.548-1.859,3.911-4.935,3.575-8.071c-0.336-3.136-2.319-5.855-5.202-7.132
			c-1.302-0.578-32.397-14-77.793,9.918c-3.593,1.893-5.432,5.993-4.454,9.935C64.032,141.913,67.573,144.68,71.634,144.674z"/>
		<path style="fill:#802D40;" d="M95.901,299.687c0-4.875-3.952-8.828-8.828-8.828c-17.769-0.808-35.131,5.476-48.267,17.47
			c-2.196,2.264-3.017,5.527-2.155,8.561c0.862,3.034,3.278,5.377,6.336,6.147c3.058,0.77,6.295-0.15,8.491-2.414
			c9.822-8.542,22.602-12.889,35.595-12.108C91.949,308.515,95.901,304.563,95.901,299.687z"/>
		<path style="fill:#802D40;" d="M163.671,373.846c-0.061-0.066-0.078-0.154-0.141-0.219c-6.504-11.423-10.132-24.255-10.573-37.392
			c0-39.513,31.103-42.72,34.711-42.957c4.868-0.268,8.598-4.431,8.33-9.3c-0.268-4.868-4.431-8.598-9.3-8.33
			c-17.776,0.94-51.396,14.81-51.396,60.586c0.204,7.269,1.242,14.491,3.094,21.523c-16.807-9.743-35.403-16.003-54.68-18.407
			c-4.875,0-8.828,3.952-8.828,8.828s3.952,8.828,8.828,8.828c11.14,0,42.071,10.607,67.103,28.864l0.039,0.05
			c0.124,0.128,0.294,0.17,0.425,0.289c19.403,14.267,35.149,33.145,35.149,55.267c0,4.875,3.952,8.828,8.828,8.828
			c4.875,0,8.828-3.952,8.828-8.828C204.087,413.785,186.079,390.894,163.671,373.846z"/>
		<path style="fill:#802D40;" d="M227.074,227.683c4.875,0,8.827-3.952,8.828-8.828c0-37.067-20.938-53.269-37.358-58.531
			c0.377-2.976,0.57-5.973,0.578-8.973c0-46.608-19.974-68.147-20.823-69.039c-3.349-3.521-8.914-3.673-12.45-0.341
			c-3.537,3.333-3.715,8.897-0.399,12.449c0.159,0.172,16.017,17.927,16.017,56.931c0,37.28-38.914,65.328-39.306,65.608
			c-3.954,2.823-4.884,8.309-2.082,12.278c2.802,3.968,8.284,4.927,12.267,2.145c18.639-13.777,33.154-32.39,41.974-53.824
			c9.033,3.227,23.927,12.831,23.927,41.298C218.246,223.731,222.198,227.683,227.074,227.683z"/>
		<path style="fill:#802D40;" d="M285.617,345.368c-11.166,4.583-20.972,11.949-28.484,21.395
			c-7.537-9.514-17.442-16.881-28.723-21.36c-4.602-1.544-9.587,0.917-11.159,5.509c-1.573,4.592,0.857,9.592,5.439,11.193
			c1.422,0.504,34.845,12.888,34.845,60.879c0.238,11.413-2.528,22.688-8.022,32.694c-2.416,4.235-0.942,9.627,3.293,12.043
			c4.235,2.416,9.627,0.942,12.043-3.293c7.025-12.667,10.592-26.961,10.341-41.444c0.238-13.753-2.524-27.392-8.092-39.969
			c5.753-9.268,14.191-16.566,24.191-20.923c2.992-1.01,5.216-3.541,5.834-6.637c0.618-3.096-0.464-6.287-2.838-8.369
			C291.911,345.006,288.606,344.351,285.617,345.368L285.617,345.368z"/>
		<path style="fill:#802D40;" d="M259.44,132.067c4.121,2.604,9.572,1.375,12.177-2.746s1.375-9.572-2.746-12.177
			c-14.491-9.768-23.583-25.747-24.578-43.194c-0.565-14.746,6.123-28.835,17.905-37.72c3.942-2.869,4.813-8.39,1.944-12.332
			c-2.869-3.942-8.39-4.813-12.332-1.944c-16.295,12.25-25.67,31.616-25.172,51.996C227.642,97.455,239.836,119.06,259.44,132.067z"
			/>
		<path style="fill:#802D40;" d="M375.845,134.265c1.017-0.427,25.112-10.267,62.422,9.393c2.791,1.48,6.161,1.355,8.835-0.326
			c2.674-1.682,4.246-4.664,4.122-7.821c-0.124-3.157-1.926-6.007-4.724-7.473c-45.397-23.914-76.491-10.504-77.793-9.918
			c-4.398,2.007-6.363,7.178-4.408,11.6S371.401,136.167,375.845,134.265L375.845,134.265z"/>
		<path style="fill:#802D40;" d="M475.203,308.33c-13.136-11.993-30.498-18.277-48.267-17.47c-4.875,0-8.828,3.952-8.828,8.828
			c0,4.875,3.952,8.828,8.828,8.828c12.993-0.781,25.773,3.566,35.595,12.108c3.395,3.499,8.983,3.584,12.483,0.19
			C478.513,317.418,478.598,311.829,475.203,308.33z"/>
		<path style="fill:#802D40;" d="M430.293,339.351c-19.277,2.404-37.873,8.664-54.68,18.407c1.852-7.032,2.89-14.254,3.094-21.523
			c0-45.776-33.621-59.646-51.397-60.586c-4.847-0.24-8.979,3.478-9.249,8.324c-0.27,4.846,3.423,9.001,8.267,9.301
			c3.552,0.233,34.724,3.405,34.724,42.961c-0.441,13.137-4.069,25.97-10.573,37.392c-0.063,0.065-0.079,0.153-0.141,0.219
			c-22.408,17.048-40.415,39.939-40.415,67.63c0,4.875,3.952,8.828,8.828,8.828s8.828-3.952,8.828-8.828
			c0-22.122,15.746-41,35.149-55.267c0.13-0.119,0.3-0.161,0.425-0.289l0.039-0.05c25.032-18.257,55.963-28.864,67.103-28.864
			c4.875,0,8.828-3.952,8.828-8.828S435.169,339.351,430.293,339.351z"/>
		<path style="fill:#802D40;" d="M361.665,231.381c3.983,2.802,9.482,1.85,12.291-2.128c2.809-3.978,1.867-9.479-2.106-12.295
			c-0.392-0.28-39.306-28.328-39.306-65.608c0-38.754,15.651-56.526,16.013-56.927c3.345-3.547,3.18-9.134-0.367-12.479
			c-3.547-3.345-9.134-3.18-12.479,0.367c-0.849,0.892-20.823,22.431-20.823,69.039c0.008,3,0.201,5.997,0.578,8.973
			c-16.42,5.262-37.358,21.464-37.358,58.531c0,4.875,3.952,8.828,8.828,8.828c4.875,0,8.828-3.952,8.828-8.828
			c0-28.421,14.778-38.046,23.928-41.297C328.511,198.992,343.026,217.605,361.665,231.381z"/>
	</g>
</g>
<g>
</g>
<g>
</g>
<g>
</g>
<g>
</g>
<g>
</g>
<g>
</g>
<g>
</g>
<g>
</g>
<g>
</g>
<g>
</g>
<g>
</g>
<g>
</g>
<g>
</g>
<g>
</g>
<g>
</g>
</svg>
