<?xml version="1.0" encoding="iso-8859-1"?>
<!-- Generator: Adobe Illustrator 19.0.0, SVG Export Plug-In . SVG Version: 6.00 Build 0)  -->
<svg version="1.1" id="Capa_1" xmlns="http://www.w3.org/2000/svg" xmlns:xlink="http://www.w3.org/1999/xlink" x="0px" y="0px"
	 viewBox="0 0 511.621 511.621" style="enable-background:new 0 0 511.621 511.621;" xml:space="preserve">
<g>
	<path style="fill:#D1D4D1;" d="M511.621,255.81c0,217.379-137.048,255.81-237.272,255.81c-112.741,0-167.139-77.601-191.97-102.431
		C63.203,390.014,0,347.397,0,255.81s63.203-134.203,82.379-153.379C107.21,77.601,161.607,0,274.349,0
		C374.573,0,511.621,38.431,511.621,255.81z"/>
	<path style="fill:#4482C3;" d="M147.483,425.83c-9.894-9.142-19.322-18.776-28.248-28.866c-4.502-4.943-8.474-9.269-11.917-12.712
		c-2.825-2.913-6.621-6.268-10.946-10.152c-22.863-20.392-61.087-54.466-61.087-118.29s38.223-97.898,61.087-118.29
		c4.326-3.884,8.121-7.239,10.946-10.152c3.443-3.443,7.415-7.768,11.917-12.712c8.926-10.09,18.354-19.724,28.248-28.866
		c-34.781,35.134-29.131,61.352-29.131,97.898c-28.491,12.388-46.371,41.087-44.932,72.121
		c-1.438,31.035,16.441,59.733,44.932,72.121C118.352,364.478,112.702,390.696,147.483,425.83z"/>
	<path style="fill:#F29C1F;" d="M476.31,255.81c0,3.001,0,5.914-0.088,8.828c-2.56,142.389-68.679,211.686-201.887,211.686
		c-47.026,0.301-92.338-17.641-126.411-50.052l-0.441-0.441c-34.781-35.134-29.131-61.352-29.131-97.898
		c-7.525-3.098-14.432-7.524-20.392-13.065c-16.354-15.198-25.307-36.744-24.541-59.057c-0.767-22.312,8.187-43.859,24.541-59.057
		c5.96-5.541,12.867-9.967,20.392-13.065c0-36.546-5.65-62.764,29.131-97.898l0.441-0.441
		c34.073-32.412,79.385-50.353,126.411-50.052c133.208,0,199.327,69.297,201.887,211.686
		C476.31,249.896,476.31,252.809,476.31,255.81z"/>
	<path style="fill:#D25627;" d="M476.31,255.81c0,3.001,0,5.914-0.088,8.828H211.483c-18.891,0-60.734,28.866-82.626,47.051
		c-2.63,2.159-6.257,2.639-9.357,1.236c-2.751-1.277-4.656-3.874-5.05-6.881c-0.394-3.007,0.779-6.007,3.108-7.949
		c19.675-16.287,41.008-30.459,63.647-42.284c-22.639-11.825-43.972-25.998-63.647-42.284c-2.329-1.943-3.501-4.942-3.107-7.949
		c0.394-3.007,2.299-5.603,5.049-6.881c3.104-1.373,6.716-0.896,9.357,1.236c21.981,18.185,63.823,47.051,82.626,47.051h264.739
		C476.31,249.896,476.31,252.809,476.31,255.81z"/>
	<path style="fill:#E6E7E8;" d="M141.833,255.81c0,51.465-23.481,72.121-23.481,72.121c-28.491-12.388-46.371-41.086-44.932-72.121
		c-1.438-31.035,16.441-59.733,44.932-72.121C118.352,183.689,141.833,204.346,141.833,255.81z"/>
</g>
<g>
</g>
<g>
</g>
<g>
</g>
<g>
</g>
<g>
</g>
<g>
</g>
<g>
</g>
<g>
</g>
<g>
</g>
<g>
</g>
<g>
</g>
<g>
</g>
<g>
</g>
<g>
</g>
<g>
</g>
</svg>
