<?xml version="1.0" encoding="iso-8859-1"?>
<!-- Generator: Adobe Illustrator 19.0.0, SVG Export Plug-In . SVG Version: 6.00 Build 0)  -->
<svg version="1.1" id="Capa_1" xmlns="http://www.w3.org/2000/svg" xmlns:xlink="http://www.w3.org/1999/xlink" x="0px" y="0px"
	 viewBox="0 0 512.001 512.001" style="enable-background:new 0 0 512.001 512.001;" xml:space="preserve">
<g>
	<g>
		<path style="fill:#84B5CB;" d="M97.104,88.277c-0.18,0.245-0.328,0.512-0.441,0.794c-0.794,1.501-1.589,2.913-2.295,4.502
			c-0.271,0.452-0.507,0.925-0.706,1.412c-0.883,1.664-1.679,3.373-2.383,5.12c-0.177,0.353-0.265,0.706-0.441,1.059
			c-0.794,1.942-1.501,3.884-2.207,5.826c-0.794,2.207-1.589,4.326-2.207,6.532c-0.706,2.295-1.324,4.502-1.942,6.797
			c-1.204,4.562-2.147,9.19-2.825,13.859c-0.441,2.295-0.706,4.679-0.971,7.062H68.238c-4.682,0.071-9.231-1.56-12.8-4.59
			c-6.754-5.29-10.799-13.316-11.034-21.892c0.248-8.528,4.255-16.511,10.946-21.804c3.661-3.061,8.293-4.72,13.065-4.679H97.104z"
			/>
		<path style="fill:#84B5CB;" d="M79.979,177.435c0.088,2.383,0.177,4.679,0.265,6.974c-1.766,1.148-3.531,2.383-5.297,3.619
			c-0.133,0.066-0.252,0.156-0.353,0.265h-0.089c-1.854,1.236-3.708,2.56-5.473,3.796l-37.959,6.974
			c-9.514,1.728-18.771-4.103-21.321-13.43c-2.55-9.327,2.452-19.057,11.522-22.41l59.41-21.981
			c-0.353,2.913-0.53,5.826-0.706,8.739c-0.177,3.001-0.265,5.914-0.265,8.916c0,2.737,0,5.385,0.088,8.033
			c0,2.56,0,5.12,0.088,7.503C79.979,175.405,79.979,176.464,79.979,177.435z"/>
	</g>
	<path style="fill:#D75E72;" d="M379.587,194.208c-0.076-0.17-0.135-0.348-0.177-0.53c-0.088-0.088-0.088-0.088-0.088-0.177
		c-0.353-0.794-0.971-2.472-2.207-4.855c-0.007-0.068-0.038-0.131-0.088-0.177c-0.53-1.148-1.236-2.472-2.03-3.972
		c12.805-3.198,25.811-5.528,38.93-6.974c8.936-0.785,16.349-7.236,18.361-15.978c0.176-0.872,0.264-1.759,0.265-2.648
		c-0.644-9.471-8.184-17.012-17.655-17.655c-21.063,0.908-41.893,4.771-61.881,11.476c-0.353-0.441-0.794-0.883-1.148-1.412
		c-0.198-0.187-0.375-0.394-0.53-0.618c-0.706-0.883-1.501-1.766-2.207-2.648c-0.353-0.441-0.794-0.883-1.148-1.324
		c-5.473-6.444-11.829-13.418-19.244-20.921c4.949-3.991,10.138-7.676,15.537-11.034c8.828-8.828,0-35.31-17.655-35.31
		c-15.025,1.08-29.854,4.046-44.138,8.828c0,0,6.179-43.608-44.138-57.556V17.656c-0.006-9.581-7.647-17.411-17.225-17.65
		c-9.578-0.239-17.601,7.199-18.085,16.768c-0.484-9.569-8.508-17.007-18.085-16.768s-17.219,8.07-17.225,17.65V30.28
		c-4.237,0.971-8.21,2.03-12.182,3.266c-1.404-6.267-3.233-12.431-5.473-18.45c-1.934-5.299-5.957-9.573-11.128-11.825
		s-11.04-2.286-16.237-0.093c-0.088,0.088-0.265,0.088-0.353,0.177c-10.135,5.124-14.204,17.489-9.092,27.63
		c3.102,6.439,5.614,13.146,7.503,20.039c-13.477,9.909-24.649,22.618-32.75,37.252c-0.18,0.245-0.328,0.512-0.441,0.794
		c-0.794,1.501-1.589,2.913-2.295,4.502c-0.271,0.452-0.507,0.925-0.706,1.412c-0.883,1.664-1.679,3.373-2.383,5.12
		c-0.177,0.353-0.265,0.706-0.441,1.059c-0.794,1.942-1.501,3.884-2.207,5.826c-0.794,2.207-1.589,4.326-2.207,6.532
		c-0.706,2.295-1.324,4.502-1.942,6.797c-1.204,4.562-2.147,9.19-2.825,13.859c-0.441,2.295-0.706,4.679-0.971,7.062
		c-0.353,2.913-0.53,5.826-0.706,8.739c-0.177,3.001-0.265,5.914-0.265,8.916c0,2.737,0,5.385,0.088,8.033
		c0,2.56,0,5.12,0.088,7.503c0.088,0.971,0.088,2.03,0.088,3.001c0.088,2.383,0.177,4.679,0.265,6.974
		c-1.766,1.148-3.531,2.383-5.297,3.619c-0.133,0.066-0.252,0.156-0.353,0.265h-0.088c-1.854,1.236-3.708,2.56-5.473,3.796
		c-11.882,8.645-23.069,18.208-33.457,28.601C4.414,242.76,0,256.001,0,282.484c-0.002,5.584,0.411,11.161,1.236,16.684
		c0.177,1.501,0.441,3.09,0.706,4.679c0.265,1.501,0.53,3.001,0.883,4.502c0.265,1.236,0.618,2.472,0.971,3.708
		c0.447,2.031,1.007,4.035,1.677,6.003c0.53,1.854,1.148,3.708,1.854,5.561c0.706,1.854,1.412,3.796,2.207,5.65
		c0.794,1.942,1.589,3.796,2.56,5.738c0.883,1.942,1.854,3.884,2.913,5.826c1.059,2.03,2.119,3.972,3.266,5.914
		c3.749,6.263,7.938,12.251,12.535,17.92c1.412,1.854,2.913,3.619,4.502,5.473v97.721c0,15.769,8.413,30.34,22.069,38.225
		c13.656,7.884,30.482,7.884,44.138,0c13.656-7.884,22.069-22.456,22.069-38.225v-27.189
		c51.023,32.221,116.436,62.499,176.552,62.499c14.919,0,33.103,1.589,53.054,3.443c0.791,0.103,1.586,0.161,2.383,0.177
		c5.738,0.53,11.741,1.059,17.743,1.589c2.737,0.265,5.473,0.53,8.21,0.706c2.472,0.265,4.944,0.441,7.503,0.618
		c2.295,0.177,4.679,0.353,6.974,0.53c3.708,0.265,7.503,0.53,11.211,0.706c6.356,0.353,12.8,0.618,19.244,0.794
		c4.943,0.177,9.975,0.265,14.919,0.265c52.966,0,70.621-35.31,70.621-105.931C512,317.794,423.725,194.208,379.587,194.208z
		 M71.327,186.175c0.072,0.167,0.102,0.349,0.088,0.53l-0.088-0.088C71.416,186.528,71.327,186.351,71.327,186.175z"/>
	<path style="fill:#84B5CB;" d="M344.276,114.76c-5.399,3.358-10.587,7.043-15.537,11.034c-4.832,3.809-9.375,7.969-13.595,12.447
		l-0.441,0.53l-0.618,0.53v0.088c-0.667,0.662-1.287,1.37-1.854,2.119l-1.589,1.854c-3.024,3.7-5.574,7.762-7.592,12.094
		c-0.214,0.425-0.392,0.868-0.53,1.324c-0.341,0.645-0.607,1.326-0.794,2.03c-0.177,0.441-0.353,0.971-0.53,1.501
		c0,0.177-0.088,0.353-0.088,0.53c-0.024,0.023-0.038,0.055-0.038,0.088s0.014,0.065,0.038,0.088c-0.068,0.07-0.1,0.168-0.088,0.265
		c-0.596,2.096-0.893,4.265-0.883,6.444c-0.002,4.837,0.263,9.67,0.794,14.477c0.265,2.207,0.53,4.414,0.883,6.532
		c0.265,2.383,0.618,4.678,1.059,6.886c0.088,0.441,0.177,0.794,0.265,1.148c0.009,0.389,0.068,0.774,0.177,1.148l0.265,1.589v0.088
		h0.088c0.265,1.412,0.53,2.737,0.794,3.972v0.088c0.265,1.412,0.618,2.737,0.883,4.061c0.441,1.766,0.883,3.354,1.235,4.855
		c0.441,1.501,0.794,2.913,1.059,3.972c0.202,0.491,0.379,0.992,0.53,1.501c0.091,0.362,0.209,0.716,0.353,1.059
		c0.265,1.059,0.441,1.589,0.441,1.589s-8.828,17.655-70.621,17.655c-32.044,0-49.788-9.446-59.498-18.626
		c0.618-1.324,1.148-2.737,1.677-4.149c0.53-1.412,0.971-2.825,1.412-4.237c0.441-1.412,0.794-2.825,1.148-4.237
		c0.353-1.412,0.618-2.824,0.883-4.326v-0.353c0.53-2.737,0.794-5.473,1.059-8.21c0-0.441,0.088-0.794,0.088-1.236
		c0.088-1.148,0.177-2.295,0.177-3.443c0.088-1.412,0.088-2.825,0.088-4.149c0-0.971,0-1.942-0.088-3.001v-0.794
		c0.015-0.443-0.015-0.887-0.088-1.324c-0.074-0.704-0.103-1.411-0.088-2.119c-0.044-0.233-0.044-0.473,0-0.706
		c-0.072-0.228-0.102-0.467-0.088-0.706c-0.177-2.737-0.353-5.738-0.441-8.915c-0.088-1.148-0.088-2.296-0.088-3.443
		c-0.088-2.56-0.088-5.209,0-7.945c-0.015-0.531,0.015-1.063,0.088-1.589c0-0.971,0.088-2.03,0.177-3.001
		c0.015-0.797,0.074-1.593,0.177-2.383c0.088-0.971,0.177-2.03,0.353-3.09c0-0.265,0.088-0.441,0.088-0.706
		c0.265-1.501,0.53-3.09,0.883-4.59c0.299-1.608,0.682-3.199,1.148-4.767c0.088-0.177,0.088-0.441,0.177-0.618
		c0.197-0.844,0.463-1.671,0.794-2.472c0.077-0.365,0.196-0.721,0.353-1.059c0-0.088,0.088-0.177,0.088-0.265
		c0.353-0.883,0.706-1.766,1.059-2.737c0.53-1.148,1.059-2.295,1.677-3.531c0.265-0.53,0.53-1.059,0.883-1.677
		c0.353-0.618,0.706-1.236,1.059-1.766c0.739-1.366,1.596-2.666,2.56-3.884c0.794-1.148,1.677-2.295,2.648-3.443
		c2.127-2.433,4.461-4.677,6.974-6.709c0.345-0.269,0.67-0.565,0.971-0.883c0.883-0.618,1.766-1.324,2.737-1.942
		c1.501-1.059,3.178-2.119,4.855-3.09c2.112-1.241,4.294-2.361,6.533-3.354l0.088-0.088c1.766-0.794,3.619-1.501,5.561-2.207
		c2.052-0.812,4.144-1.519,6.268-2.119c0.913-0.358,1.859-0.624,2.825-0.794c0.441-0.088,0.883-0.265,1.412-0.353
		c0.883-0.265,1.766-0.53,2.648-0.706c1.501-0.353,3.09-0.706,4.679-0.971c1.589-0.353,3.178-0.618,4.855-0.883
		c3.443-0.618,6.974-1.059,10.681-1.412c1.677-0.177,3.531-0.353,5.385-0.441c0.883-0.088,1.766-0.177,2.648-0.177l4.767-0.265
		c1.589-0.088,3.178-0.088,4.855-0.088c1.589-0.088,3.266-0.088,5.032-0.088c14.284-4.782,29.113-7.748,44.138-8.828
		C344.276,79.449,353.104,105.932,344.276,114.76z"/>
	<g>
		<rect x="303.581" y="199.504" style="fill:#D75E72;" width="8.828" height="8.828"/>
		<path style="fill:#D75E72;" d="M72.563,134.18c-0.353,2.295-0.618,4.679-0.883,7.062h-0.088
			C71.857,138.859,72.122,136.475,72.563,134.18z"/>
	</g>
	<path style="fill:#CC4B4C;" d="M123.587,440.674v27.189c0,24.377-19.761,44.138-44.138,44.138s-44.138-19.761-44.138-44.138
		v-97.721c0.177,0.177,0.353,0.441,0.53,0.618h0.088c1.148,1.324,2.295,2.56,3.443,3.884c1.501,1.677,3.09,3.266,4.767,4.943
		c15.024,14.414,31.073,27.72,48.022,39.812c3.884,2.737,7.857,5.649,12.006,8.475c3.09,2.119,6.268,4.237,9.446,6.356
		c2.56,1.677,5.208,3.443,7.945,5.12C122.174,439.791,122.88,440.233,123.587,440.674z"/>
	<path id="SVGCleanerId_0" style="fill:#D75E72;" d="M71.327,186.175c0,0.177,0.088,0.353,0,0.441
		c-0.088-0.706-0.088-1.412-0.177-2.207c0-0.088,0.088,0,0.088,0C71.31,184.995,71.34,185.585,71.327,186.175z"/>
	<path id="SVGCleanerId_1" style="fill:#D75E72;" d="M78.389,223.427c-1.584-3.382-2.769-6.937-3.531-10.593
		C75.701,216.468,76.883,220.014,78.389,223.427z"/>
	<g>
		<path style="fill:#D75E72;" d="M301.727,158.809c-0.246,0.664-0.452,1.342-0.618,2.03c0-0.177,0.088-0.353,0.088-0.53
			C301.374,159.78,301.551,159.251,301.727,158.809z"/>
		<path style="fill:#D75E72;" d="M303.581,199.504l-0.265-1.589c0.075,0.538,0.193,1.07,0.353,1.589v0.088h-0.088V199.504z"/>
	</g>
	<path style="fill:#802D40;" d="M353.192,506.616c-19.95-1.854-38.135-3.443-53.054-3.443c-60.116,0-125.528-30.279-176.552-62.499
		c-0.706-0.441-1.412-0.883-2.03-1.324c-2.737-1.677-5.385-3.443-7.945-5.12c-3.178-2.119-6.356-4.237-9.446-6.356
		c-4.149-2.825-8.121-5.738-12.006-8.475c-16.949-12.092-32.998-25.398-48.022-39.812c-1.677-1.677-3.266-3.266-4.767-4.943
		c-1.148-1.324-2.295-2.56-3.443-3.884c70.091-0.53,96.486-79.537,96.486-123.586c1.589,0,3.178-0.088,4.679-0.177
		c10.699-0.19,21.035-3.915,29.396-10.593c2.946-2.476,5.558-5.324,7.768-8.475c0.53-0.794,1.148-1.677,1.677-2.648
		c1.144-1.758,2.119-3.62,2.913-5.561c9.71,9.181,27.454,18.626,59.498,18.626c61.793,0,70.621-17.655,70.621-17.655
		s-0.177-0.53-0.441-1.589c-0.144-0.344-0.262-0.698-0.353-1.059c-0.151-0.509-0.327-1.01-0.53-1.501
		c-0.265-1.059-0.618-2.472-1.059-3.972c-0.353-1.501-0.794-3.09-1.235-4.855c-0.265-1.324-0.618-2.648-0.883-4.061h0.088
		c48.551,78.919,75.034,149.539,48.551,299.52C353.045,504.322,353.075,505.472,353.192,506.616z"/>
	<path style="fill:#D75E72;" d="M357.076,157.838c-0.088-0.088-0.088-0.177-0.177-0.177h0.088
		C356.995,157.729,357.026,157.792,357.076,157.838z"/>
	<path id="SVGCleanerId_2" style="fill:#D75E72;" d="M363.874,167.019c-0.088-0.177-0.265-0.353-0.441-0.618h0.088
		C363.619,166.617,363.737,166.824,363.874,167.019z"/>
	<g>
		<path id="SVGCleanerId_3" style="fill:#D75E72;" d="M369.347,175.052c-0.265-0.441-0.618-0.883-0.883-1.324h0.088L369.347,175.052
			z"/>
	</g>
	<path style="fill:#CC4B4C;" d="M379.587,194.208c-12.087,11.039-27.772,17.313-44.138,17.655
		c-10.749-0.615-21.26-3.408-30.897-8.21h-0.088v-0.088c-0.265-1.236-0.53-2.56-0.794-3.972v-0.088
		c-0.16-0.519-0.278-1.051-0.353-1.589c-0.109-0.373-0.168-0.759-0.177-1.148c-0.088-0.353-0.177-0.706-0.265-1.148
		c-0.441-2.207-0.794-4.502-1.059-6.886c-0.353-2.119-0.618-4.326-0.883-6.532c-0.531-4.807-0.796-9.641-0.794-14.477
		c-0.01-2.179,0.287-4.348,0.883-6.444c-0.012-0.097,0.02-0.194,0.088-0.265c-0.024-0.023-0.038-0.055-0.038-0.088
		s0.014-0.065,0.038-0.088c0.166-0.688,0.372-1.366,0.618-2.03c0.187-0.705,0.454-1.386,0.794-2.03
		c0.138-0.456,0.315-0.899,0.53-1.324c2.018-4.331,4.568-8.394,7.592-12.094l1.589-1.854c0.567-0.749,1.187-1.457,1.854-2.119
		c0.159-0.248,0.37-0.458,0.618-0.618l0.441-0.53c4.219-4.478,8.763-8.638,13.595-12.447c7.415,7.503,13.771,14.477,19.244,20.921
		c0.353,0.441,0.794,0.883,1.148,1.324c0.706,0.883,1.501,1.766,2.207,2.648c0.154,0.224,0.332,0.431,0.53,0.618
		c0.353,0.53,0.794,0.971,1.148,1.412c1.059,1.324,2.119,2.648,3.09,3.884c0.088,0.088,0.088,0.177,0.177,0.177
		c0.088,0.177,0.265,0.353,0.353,0.53c0.109,0.101,0.199,0.22,0.265,0.353c0.088,0,0.088,0.088,0.177,0.177
		c2.383,3.001,4.502,5.914,6.356,8.563c0.177,0.265,0.353,0.441,0.441,0.618c1.765,2.383,3.267,4.679,4.59,6.709
		c0.265,0.441,0.618,0.883,0.883,1.324c2.295,3.619,4.237,6.797,5.649,9.446c0.794,1.501,1.501,2.825,2.03,3.972
		c0.05,0.046,0.082,0.109,0.088,0.177c1.236,2.383,1.854,4.061,2.207,4.855c0,0.088,0,0.088,0.088,0.177
		C379.451,193.86,379.51,194.038,379.587,194.208z"/>
	<path style="fill:#D75E72;" d="M314.086,139.3l0.618-0.53c-0.248,0.159-0.458,0.37-0.618,0.618V139.3z"/>
	<g>
		<path id="SVGCleanerId_2_1_" style="fill:#D75E72;" d="M363.874,167.019c-0.088-0.177-0.265-0.353-0.441-0.618h0.088
			C363.619,166.617,363.737,166.824,363.874,167.019z"/>
	</g>
	<g>
		<path id="SVGCleanerId_3_1_" style="fill:#D75E72;" d="M369.347,175.052c-0.265-0.441-0.618-0.883-0.883-1.324h0.088
			L369.347,175.052z"/>
	</g>
	<path style="fill:#802F34;" d="M432.552,158.897c-0.001,0.889-0.089,1.776-0.265,2.648c-2.012,8.742-9.426,15.193-18.361,15.978
		c-13.119,1.446-26.125,3.776-38.93,6.974c-1.412-2.648-3.354-5.826-5.649-9.446l-0.794-1.324h-0.088
		c-1.324-2.03-2.825-4.326-4.59-6.709c-0.136-0.195-0.255-0.402-0.353-0.618h-0.088c-1.854-2.648-3.972-5.561-6.356-8.563
		c-0.05-0.046-0.082-0.109-0.088-0.177H356.9c-0.066-0.133-0.156-0.253-0.265-0.353c-0.088-0.177-0.265-0.353-0.353-0.53
		c-0.088,0-0.088-0.088-0.177-0.177c-0.971-1.236-2.03-2.56-3.09-3.884c19.988-6.704,40.818-10.568,61.881-11.476
		C424.368,141.886,431.909,149.426,432.552,158.897z"/>
	<path style="fill:#D75E72;" d="M363.52,166.401c0.098,0.216,0.217,0.423,0.353,0.618c-0.088-0.177-0.265-0.353-0.441-0.618H363.52z
		"/>
	<g>
		<path id="SVGCleanerId_3_2_" style="fill:#D75E72;" d="M369.347,175.052c-0.265-0.441-0.618-0.883-0.883-1.324h0.088
			L369.347,175.052z"/>
	</g>
	<path style="fill:#CC4B4C;" d="M282.483,88.277c-1.766,0-3.443,0-5.032,0.088c-1.677,0-3.266,0-4.855,0.088l-4.767,0.265
		c-0.883,0-1.766,0.088-2.648,0.177c-1.854,0.088-3.708,0.265-5.385,0.441c-3.708,0.353-7.239,0.794-10.681,1.412
		c-1.677,0.265-3.266,0.53-4.855,0.883c-1.589,0.265-3.178,0.618-4.679,0.971c-0.883,0.177-1.766,0.441-2.648,0.706
		c-0.53,0.088-0.971,0.265-1.412,0.353c-0.966,0.171-1.912,0.437-2.825,0.794c-2.124,0.599-4.216,1.307-6.268,2.119
		c-1.942,0.706-3.796,1.412-5.561,2.207l-0.088,0.088c-2.239,0.993-4.42,2.113-6.532,3.354c-1.677,0.971-3.354,2.03-4.855,3.09
		c-0.971,0.618-1.854,1.324-2.737,1.942c-0.301,0.318-0.626,0.613-0.971,0.883c-2.513,2.032-4.846,4.276-6.974,6.709
		c-0.971,1.148-1.854,2.295-2.648,3.443c-0.964,1.218-1.821,2.518-2.56,3.884c-0.353,0.53-0.706,1.148-1.059,1.766
		c-0.353,0.618-0.618,1.148-0.883,1.677c-0.618,1.236-1.148,2.383-1.677,3.531c-0.353,0.971-0.706,1.854-1.059,2.737
		c0,0.088-0.088,0.177-0.088,0.265c-0.157,0.339-0.276,0.694-0.353,1.059c-0.332,0.801-0.597,1.628-0.794,2.472
		c-0.088,0.177-0.088,0.441-0.177,0.618c-0.466,1.568-0.849,3.159-1.148,4.767c-0.353,1.501-0.617,3.09-0.883,4.59
		c0,0.265-0.088,0.441-0.088,0.706c-0.177,1.059-0.265,2.119-0.353,3.09c-0.103,0.791-0.162,1.586-0.177,2.383
		c-0.088,0.971-0.177,2.03-0.177,3.001c-0.073,0.526-0.102,1.058-0.088,1.589c-0.088,2.737-0.088,5.385,0,7.945
		c0,1.148,0,2.295,0.088,3.443c0.088,3.178,0.265,6.179,0.441,8.915c-0.014,0.239,0.016,0.478,0.088,0.706
		c-0.044,0.233-0.044,0.473,0,0.706c-0.015,0.707,0.015,1.415,0.088,2.119c0.073,0.437,0.103,0.881,0.088,1.324v0.794
		c0.088,1.059,0.088,2.03,0.088,3.001c0,1.324,0,2.737-0.088,4.149c0,1.148-0.088,2.295-0.177,3.443
		c0,0.441-0.088,0.794-0.088,1.236c-0.265,2.737-0.53,5.473-1.059,8.21v0.353c-0.265,1.501-0.53,2.913-0.883,4.326
		s-0.706,2.825-1.148,4.237c-0.441,1.412-0.883,2.825-1.412,4.237c-0.53,1.412-1.059,2.825-1.677,4.149
		c-0.865,1.908-1.837,3.764-2.913,5.561c-0.53,0.971-1.148,1.854-1.677,2.648c-2.211,3.15-4.822,5.999-7.768,8.474
		c-8.361,6.678-18.697,10.403-29.396,10.593c-1.501,0.088-3.09,0.177-4.679,0.177c-2.825,0-5.65-0.088-8.21-0.177
		c-0.971,0-1.942-0.088-2.825-0.088c-4.804-0.288-9.582-0.908-14.301-1.854c-1.148-0.265-2.207-0.442-3.266-0.706
		c-2.161-0.573-4.283-1.281-6.356-2.119c-1.358-0.576-2.683-1.225-3.972-1.942c-0.706-0.353-1.412-0.794-2.119-1.236
		c-0.707-0.441-1.412-0.971-2.119-1.501c-0.719-0.474-1.398-1.005-2.03-1.589l-1.677-1.677c-0.53-0.588-1.06-1.177-1.589-1.766
		c-0.572-0.674-1.102-1.381-1.589-2.119c-0.551-0.65-1.025-1.361-1.412-2.119c-0.325-0.42-0.62-0.863-0.883-1.324
		c-0.088-0.177-0.177-0.441-0.265-0.617c-0.066-0.133-0.156-0.253-0.265-0.353c-0.102-0.3-0.22-0.595-0.353-0.883
		c-0.21-0.304-0.387-0.63-0.53-0.971c-0.088-0.265-0.177-0.441-0.265-0.706c-1.506-3.413-2.688-6.959-3.531-10.593
		c-0.353-1.324-0.618-2.648-0.883-4.061c-0.265-1.235-0.53-2.472-0.706-3.796c-0.441-2.207-0.706-4.502-0.971-6.974
		c0-0.353-0.088-0.706-0.088-1.059c-0.177-1.412-0.353-2.825-0.441-4.326c-0.088-1.501-0.265-3.001-0.353-4.59
		c0.011-0.385-0.018-0.769-0.088-1.148c0.088-0.088,0.088-0.088,0.088-0.177c0.014-0.181-0.016-0.363-0.088-0.53
		c0.013-0.59-0.017-1.18-0.088-1.766v-0.088c-0.177-2.207-0.265-4.502-0.353-6.886c0-0.971,0-2.03-0.088-3.001
		c-0.088-2.383-0.088-4.943-0.088-7.503c-0.088-2.647-0.088-5.296-0.088-8.032c0-3.001,0.088-5.914,0.265-8.916
		c0.265-2.913,0.441-5.826,0.794-8.739c0.265-2.383,0.53-4.767,0.883-7.062c0.678-4.67,1.621-9.297,2.825-13.859
		c0.618-2.295,1.236-4.502,1.942-6.797c0.618-2.207,1.412-4.326,2.207-6.532c0.706-1.942,1.412-3.884,2.207-5.826
		c0.177-0.353,0.265-0.706,0.441-1.059c0.704-1.747,1.5-3.456,2.383-5.12c0.2-0.488,0.436-0.96,0.706-1.412
		c0.706-1.589,1.501-3.001,2.295-4.502c0.113-0.282,0.261-0.549,0.441-0.794c8.101-14.635,19.274-27.343,32.75-37.252
		c-1.89-6.893-4.401-13.6-7.503-20.039c-5.112-10.141-1.043-22.507,9.092-27.63c0.088-0.088,0.265-0.088,0.353-0.177
		c5.197-2.193,11.066-2.16,16.237,0.093s9.194,6.526,11.128,11.825c2.24,6.019,4.069,12.183,5.473,18.45
		c3.972-1.236,7.945-2.295,12.182-3.266V17.656c0.006-9.581,7.647-17.411,17.225-17.65s17.601,7.199,18.085,16.768
		c0.484-9.569,8.508-17.007,18.085-16.768c9.578,0.239,17.219,8.07,17.225,17.65v13.065
		C288.663,44.669,282.483,88.277,282.483,88.277z"/>
	<g>
		<path style="fill:#D75E72;" d="M71.239,184.409c0.071,0.586,0.101,1.176,0.088,1.766l-0.177-1.766
			c-0.088-2.295-0.177-4.59-0.265-6.974c0.088,2.383,0.177,4.679,0.353,6.885V184.409z"/>
		<path style="fill:#D75E72;" d="M71.592,141.242c0.265-2.383,0.53-4.767,0.971-7.062c-0.353,2.295-0.618,4.679-0.883,7.062
			c-0.353,2.913-0.53,5.826-0.794,8.739C71.063,147.069,71.239,144.155,71.592,141.242z"/>
		<path style="fill:#D75E72;" d="M74.858,212.834c0.843,3.634,2.025,7.18,3.531,10.593C76.805,220.045,75.62,216.49,74.858,212.834z
			"/>
		<path style="fill:#D75E72;" d="M71.239,184.321v0.088c0,0-0.088-0.088-0.088,0c-0.088-2.295-0.177-4.59-0.265-6.974
			C70.974,179.819,71.063,182.114,71.239,184.321z"/>
		<path style="fill:#D75E72;" d="M71.68,141.242c-0.353,2.913-0.53,5.826-0.794,8.739c0.177-2.913,0.353-5.826,0.706-8.739H71.68z"
			/>
	</g>
	<g>
		<path id="SVGCleanerId_0_1_" style="fill:#D75E72;" d="M71.327,186.175c0,0.177,0.088,0.353,0,0.441
			c-0.088-0.706-0.088-1.412-0.177-2.207c0-0.088,0.088,0,0.088,0C71.31,184.995,71.34,185.585,71.327,186.175z"/>
	</g>
	<g>
		<path id="SVGCleanerId_1_1_" style="fill:#D75E72;" d="M78.389,223.427c-1.584-3.382-2.769-6.937-3.531-10.593
			C75.701,216.468,76.883,220.014,78.389,223.427z"/>
	</g>
</g>
<g>
</g>
<g>
</g>
<g>
</g>
<g>
</g>
<g>
</g>
<g>
</g>
<g>
</g>
<g>
</g>
<g>
</g>
<g>
</g>
<g>
</g>
<g>
</g>
<g>
</g>
<g>
</g>
<g>
</g>
</svg>
