<?xml version="1.0" encoding="iso-8859-1"?>
<!-- Generator: Adobe Illustrator 19.0.0, SVG Export Plug-In . SVG Version: 6.00 Build 0)  -->
<svg version="1.1" id="Capa_1" xmlns="http://www.w3.org/2000/svg" xmlns:xlink="http://www.w3.org/1999/xlink" x="0px" y="0px"
	 viewBox="0 0 512 512" style="enable-background:new 0 0 512 512;" xml:space="preserve">
<g>
	<path style="fill:#FAC176;" d="M512,211.862V476.69c-0.029,9.739-7.916,17.627-17.655,17.655H17.655
		C7.917,494.316,0.029,486.429,0,476.69V211.862H512z"/>
	<g>
		<path style="fill:#D75E72;" d="M131.266,142.301c-24.893,23.481-89.865,41.666-117.937,48.728
			C5.473,192.987-0.031,200.058,0,208.155l0,56.673c52.966,0,88.276-35.31,123.586-35.31s35.31,17.655,35.31,17.655h194.207
			c0,0,0-17.655,35.31-17.655s70.621,35.31,123.586,35.31l0-56.673c0.031-8.097-5.473-15.168-13.33-17.126
			c-28.071-7.062-93.043-25.247-117.937-48.728H131.266z"/>
		<path style="fill:#D75E72;" d="M301.109,494.345h-18.538c-0.194-1.899,0.207-3.812,1.148-5.473
			c21.098-37.606,18.184-89.335,16.861-103.548c-0.177-2.383-0.353-3.708-0.353-3.796c-0.816-5.008,2.516-9.75,7.503-10.681
			c2.394-0.288,4.803,0.402,6.68,1.914c1.878,1.512,3.066,3.719,3.295,6.119c0.088,0.441,0.353,2.472,0.619,5.738
			C319.824,401.655,322.119,453.12,301.109,494.345z"/>
		<path style="fill:#D75E72;" d="M229.429,494.345h-18.538c-21.01-41.225-18.714-92.69-17.214-109.727
			c0.265-3.266,0.53-5.297,0.619-5.738c0.254-2.39,1.448-4.58,3.32-6.087c1.872-1.507,4.266-2.207,6.655-1.946
			c4.987,0.931,8.319,5.674,7.503,10.681c0,0.088-0.177,1.412-0.353,3.796c-1.323,14.213-4.237,65.942,16.861,103.548
			C229.222,490.533,229.623,492.446,229.429,494.345z"/>
	</g>
	<path style="fill:#D1D4D1;" d="M326.621,17.655c-35.31,0-44.138,17.655-70.621,17.655s-35.31-17.655-70.621-17.655
		c-44.138,0-61.793,44.138-61.793,88.276c0,26.218,12.446,46.168,22.599,71.062c0.265,0.618,0.441,1.148,0.706,1.766
		c1.324,3.354,2.648,6.797,3.796,10.417c0.529,1.324,0.881,2.648,1.323,3.972c2.172,6.869,3.825,13.892,4.943,21.01
		c0.441,2.295,0.706,4.59,0.971,6.974c0.068,0.229,0.098,0.468,0.088,0.706c0.264,2.472,0.529,5.032,0.617,7.68
		c0.177,2.825,0.265,5.826,0.265,8.828c0,61.793,17.655,150.069,44.138,150.069c35.31,0,8.828-123.586,52.966-123.586
		s17.655,123.586,52.966,123.586c26.483,0,44.138-88.276,44.138-150.069c0-3.001,0.088-6.003,0.265-8.828
		c0.088-2.648,0.353-5.208,0.618-7.68c-0.009-0.239,0.021-0.477,0.088-0.706c0.265-2.383,0.529-4.679,0.971-6.974
		c1.119-7.117,2.772-14.14,4.944-21.01c0.442-1.324,0.794-2.648,1.323-3.972c1.149-3.619,2.472-7.062,3.796-10.417
		c0.265-0.618,0.441-1.148,0.706-1.766c10.153-24.894,22.599-44.844,22.599-71.062C388.414,61.793,370.759,17.655,326.621,17.655z"
		/>
	<path style="fill:#CBB292;" d="M370.759,150.069c0.001,9.201-1.674,18.324-4.944,26.924c-0.265,0.618-0.441,1.148-0.706,1.766
		c-1.324,3.354-2.648,6.797-3.796,10.417c-0.529,1.324-0.881,2.648-1.323,3.972c-2.172,6.869-3.825,13.892-4.944,21.01
		c-0.442,2.295-0.706,4.59-0.971,6.974c-0.068,0.229-0.098,0.468-0.088,0.706c-0.264,2.472-0.529,5.032-0.618,7.68
		c-0.177,2.825-0.265,5.826-0.265,8.828c0,61.793-17.655,150.069-44.138,150.069c0,0,8.828-88.276,8.828-150.069
		c0-26.483,17.655-79.448-17.655-79.448c-17.655,0-26.483,8.828-44.138,8.828s-26.483-8.828-44.138-8.828
		c-35.31,0-17.655,52.966-17.655,79.448c0,61.793,8.828,150.069,8.828,150.069c-26.483,0-44.138-88.276-44.138-150.069
		c0-3.001-0.088-6.003-0.265-8.828c-0.088-2.648-0.353-5.208-0.617-7.68c0.009-0.239-0.021-0.477-0.088-0.706
		c-0.265-2.383-0.529-4.679-0.971-6.974c-1.119-7.117-2.772-14.14-4.944-21.01c-0.441-1.324-0.794-2.648-1.323-3.972
		c-1.149-3.619-2.472-7.062-3.796-10.417c-0.265-0.618-0.441-1.148-0.706-1.766c-3.195-8.62-4.868-17.731-4.944-26.924
		c0,0,0-70.621,52.966-70.621c26.483,0,44.138,17.655,61.793,17.655s35.31-17.655,61.793-17.655s39.724,17.655,46.345,35.31
		C368.211,126.101,370.446,138.022,370.759,150.069z"/>
	<path style="fill:#7F6E5D;" d="M317.793,238.345c0,61.793-8.828,150.069-8.828,150.069c-35.31,0-8.828-123.586-52.966-123.586
		s-17.655,123.586-52.966,123.586c0,0-8.828-88.276-8.828-150.069c0-26.483-17.655-79.448,17.655-79.448
		c17.655,0,26.483,8.828,44.138,8.828s26.483-8.828,44.138-8.828C335.448,158.897,317.793,211.862,317.793,238.345z"/>
	<g>
		<circle style="fill:#CBB292;" cx="220.69" cy="247.173" r="8.828"/>
		<circle style="fill:#CBB292;" cx="220.69" cy="194.207" r="8.828"/>
		<circle style="fill:#CBB292;" cx="291.31" cy="247.173" r="8.828"/>
		<circle style="fill:#CBB292;" cx="291.31" cy="194.207" r="8.828"/>
		<circle style="fill:#CBB292;" cx="256" cy="220.69" r="8.828"/>
	</g>
</g>
<g>
</g>
<g>
</g>
<g>
</g>
<g>
</g>
<g>
</g>
<g>
</g>
<g>
</g>
<g>
</g>
<g>
</g>
<g>
</g>
<g>
</g>
<g>
</g>
<g>
</g>
<g>
</g>
<g>
</g>
</svg>
