<?xml version="1.0" encoding="iso-8859-1"?>
<!-- Generator: Adobe Illustrator 19.0.0, SVG Export Plug-In . SVG Version: 6.00 Build 0)  -->
<svg version="1.1" id="Layer_1" xmlns="http://www.w3.org/2000/svg" xmlns:xlink="http://www.w3.org/1999/xlink" x="0px" y="0px"
	 viewBox="0 0 505 505" style="enable-background:new 0 0 505 505;" xml:space="preserve">
<circle style="fill:#FFD05B;" cx="252.5" cy="252.5" r="252.5"/>
<polygon style="fill:#FFFFFF;" points="325.6,86.1 325.6,139.7 379.1,139.7 379.1,418.9 125.9,418.9 125.9,86.1 "/>
<g>
	<polygon style="fill:#E6E9EE;" points="325.6,86.1 379.1,139.7 325.6,139.7 	"/>
	<rect x="155.7" y="112.9" style="fill:#E6E9EE;" width="90" height="11.4"/>
	<rect x="155.7" y="139.7" style="fill:#E6E9EE;" width="62.5" height="11.4"/>
</g>
<path style="fill:#FF7058;" d="M331.5,326.4h-43.6l13.2,13.2c-18,17.5-42.9,27.1-68.6,26.6c-6.8-0.1-7.9,9.8-1.2,11.1
	c28.9,5.7,60.8,0,87.9-19.5l12.2,12.2L331.5,326.4z"/>
<path style="fill:#324A5E;" d="M272.5,212.7c6.8,0.1,7.9-9.8,1.2-11.1c-28.9-5.7-60.8,0-87.9,19.5l-12.3-12.2v43.6h43.6l-13.2-13.2
	C221.9,221.7,246.8,212.2,272.5,212.7z"/>
<path style="fill:#4CDBC4;" d="M202.3,338c-17.5-18-27.1-42.9-26.6-68.6c0.1-6.8-9.8-7.9-11.1-1.2c-5.7,28.9,0,60.8,19.5,87.9
	l-12.2,12.2h43.6v-43.6L202.3,338z"/>
<path style="fill:#84DBFF;" d="M320.8,222.7l12.2-12.2h-43.6v43.6l13.2-13.2c17.5,18,27.1,42.9,26.6,68.6c-0.1,6.8,9.8,7.9,11.1,1.2
	C346.1,281.7,340.3,249.9,320.8,222.7z"/>
<polygon style="fill:#F9B54C;" points="270,270.1 225.9,262.8 233.2,306.9 242.9,297.2 266.1,320.5 283.5,303.1 260.3,279.8 "/>
<g>
</g>
<g>
</g>
<g>
</g>
<g>
</g>
<g>
</g>
<g>
</g>
<g>
</g>
<g>
</g>
<g>
</g>
<g>
</g>
<g>
</g>
<g>
</g>
<g>
</g>
<g>
</g>
<g>
</g>
</svg>
