<?xml version="1.0" encoding="iso-8859-1"?>
<!-- Generator: Adobe Illustrator 19.0.0, SVG Export Plug-In . SVG Version: 6.00 Build 0)  -->
<svg version="1.1" id="Layer_1" xmlns="http://www.w3.org/2000/svg" xmlns:xlink="http://www.w3.org/1999/xlink" x="0px" y="0px"
	 viewBox="0 0 505 505" style="enable-background:new 0 0 505 505;" xml:space="preserve">
<circle style="fill:#90DFAA;" cx="252.5" cy="252.5" r="252.5"/>
<path style="fill:#FFFFFF;" d="M403.8,94.7H101.2c-3.6,0-6.5,2.9-6.5,6.5v302.6c0,3.6,2.9,6.5,6.5,6.5h302.6c3.6,0,6.5-2.9,6.5-6.5
	V101.2C410.3,97.6,407.4,94.7,403.8,94.7z M397.3,170.3h-62.7v-62.7h62.7V170.3z M259,170.3v-62.7h62.7v62.7H259z M321.7,183.3V246
	H259v-62.7H321.7z M246,170.3h-62.7v-62.7H246V170.3z M246,183.3V246h-62.7v-62.7H246z M170.3,246h-62.7v-62.7h62.7V246z M170.3,259
	v62.7h-62.7V259H170.3z M183.3,259H246v62.7h-62.7V259z M246,334.6v62.7h-62.7v-62.7H246z M259,334.6h62.7v62.7H259V334.6z
	 M259,321.7V259h62.7v62.7H259z M334.7,259h62.7v62.7h-62.7V259z M334.7,246v-62.7h62.7V246H334.7z M170.3,107.7v62.7h-62.7v-62.7
	H170.3z M107.7,334.6h62.7v62.7h-62.7V334.6z M334.7,397.3v-62.7h62.7v62.7H334.7z"/>
<path style="fill:#FF7058;" d="M125.4,358.2c-1,0-2.1-0.2-3.2-0.5c-5.2-1.7-7.9-7.3-6.2-12.5l27-80c3.5-10.6,7.4-22.5,16.4-31.6
	c5-5,20.1-20.3,35.9-14.4c18.3,6.9,21.4,35.8,23.2,67.3c0.3,4.3,0.5,8.1,0.7,10.7c0.2,1.8,0.5,4.9,1.2,5.8c0.5,0.7,2.9,1.6,7.6,1.4
	c3.7-0.2,6.4-0.7,8.3-1.7c4.5-2.4,7.5-8.6,9.5-19.7c1.6-8.9,2.8-17.9,3.3-26.8c0.1-1.7,0.2-3.4,0.3-5.1c0.4-7.6,0.8-15.4,2.8-23.3
	c3-12.3,9.5-22.3,18.3-28c8-5.2,18.3-7.4,30.7-6.4c4.3,0.3,9.3,1.1,13.8,4.2c4.8,3.2,7.3,7.9,9.2,11.3c6.6,12.2,15.8,27.9,28.1,41.1
	c11.8,12.6,25.2,21.5,38.9,25.6c5.2,1.6,8.2,7.1,6.6,12.3c-1.6,5.2-7.1,8.2-12.3,6.6c-17-5.1-33.5-15.8-47.7-31.1
	c-13.7-14.7-23.8-31.8-31-45.1c-0.9-1.7-2.1-3.9-2.9-4.4c-0.4-0.3-1.4-0.6-4.3-0.8c-8-0.6-14.2,0.5-18.4,3.3
	c-6.2,4-8.9,11.8-9.9,16.2c-1.5,6.1-1.9,12.7-2.2,19.6c-0.1,1.8-0.2,3.5-0.3,5.3c-0.6,9.7-1.8,19.5-3.6,29.1
	c-2,11-6.3,26.4-19.7,33.5c-6,3.2-12.3,3.8-16.6,4c-13.9,0.6-20.9-4.7-24.3-9.3c-3.9-5.2-4.6-11.4-5-15.5c-0.3-3.1-0.6-7-0.8-11.6
	c-2.3-38.9-7-48.6-10.5-50c-1-0.4-5.9,0.6-14.9,9.8c-5.7,5.8-8.6,14.5-11.6,23.9l-1.4,4.1l-25.7,76
	C133.4,355.6,129.5,358.2,125.4,358.2z"/>
<g>
</g>
<g>
</g>
<g>
</g>
<g>
</g>
<g>
</g>
<g>
</g>
<g>
</g>
<g>
</g>
<g>
</g>
<g>
</g>
<g>
</g>
<g>
</g>
<g>
</g>
<g>
</g>
<g>
</g>
</svg>
