<?xml version="1.0" encoding="iso-8859-1"?>
<!-- Generator: Adobe Illustrator 19.0.0, SVG Export Plug-In . SVG Version: 6.00 Build 0)  -->
<svg version="1.1" id="Layer_1" xmlns="http://www.w3.org/2000/svg" xmlns:xlink="http://www.w3.org/1999/xlink" x="0px" y="0px"
	 viewBox="0 0 505 505" style="enable-background:new 0 0 505 505;" xml:space="preserve">
<circle style="fill:#4CDBC4;" cx="252.5" cy="252.5" r="252.5"/>
<path style="fill:#324A5E;" d="M351.8,426.7h-238c-1.4,0-2.6-1.2-2.6-2.6V80.9c0-1.4,1.2-2.6,2.6-2.6h238c1.4,0,2.6,1.2,2.6,2.6
	v343.2C354.4,425.5,353.2,426.7,351.8,426.7z"/>
<rect x="139.4" y="114.6" style="fill:#FFFFFF;" width="186.8" height="258.4"/>
<g>
	<circle style="fill:#2B3B4E;" cx="232.8" cy="397.5" r="13.1"/>
	<path style="fill:#2B3B4E;" d="M276.5,102.4h-57.7c-3,0-5.5-2.4-5.5-5.5l0,0c0-3,2.4-5.5,5.5-5.5h57.7c3,0,5.5,2.4,5.5,5.5l0,0
		C281.9,100,279.5,102.4,276.5,102.4z"/>
	<path style="fill:#2B3B4E;" d="M198.3,102.4h-9.2c-3,0-5.5-2.4-5.5-5.5l0,0c0-3,2.4-5.5,5.5-5.5h9.2c3,0,5.5,2.4,5.5,5.5l0,0
		C203.8,100,201.3,102.4,198.3,102.4z"/>
</g>
<polygon style="fill:#FF7058;" points="455.7,165.7 383.5,178.5 405.7,200.6 313.7,292.6 258.8,237.7 205.9,290.5 169.5,254.1 
	139.4,284.2 139.4,312.1 169.5,282 205.9,318.4 258.8,265.6 313.7,320.5 419.6,214.6 442.9,237.9 "/>
<g>
</g>
<g>
</g>
<g>
</g>
<g>
</g>
<g>
</g>
<g>
</g>
<g>
</g>
<g>
</g>
<g>
</g>
<g>
</g>
<g>
</g>
<g>
</g>
<g>
</g>
<g>
</g>
<g>
</g>
</svg>
