<svg id="Layer_3" enable-background="new 0 0 64 64" height="512" viewBox="0 0 64 64" width="512" xmlns="http://www.w3.org/2000/svg"><path d="m18 50h-6c-5.514 0-10-4.486-10-10s4.486-10 10-10h27c5.514 0 10-4.486 10-10s-4.486-10-10-10v-2c6.617 0 12 5.383 12 12s-5.383 12-12 12h-27c-4.411 0-8 3.589-8 8s3.589 8 8 8h6z" fill="#4d4d4d"/><circle cx="10" cy="22" fill="#79d6f2" r="2"/><circle cx="56" cy="22" fill="#6292d8" r="2"/><circle cx="58" cy="6" fill="#4a6ea2" r="4"/><ellipse cx="56.5" cy="6" fill="#6292d8" rx="2.5" ry="3.703"/><circle cx="6" cy="6" fill="#4a6ea2" r="4"/><ellipse cx="4.5" cy="6" fill="#6292d8" rx="2.5" ry="3.703"/><path d="m23 25h7v28c-5.523 0-10-4.477-10-10v-2h4l-6-6-6 6h4v2c0 7.732 6.268 14 14 14v3l2 2 2-2v-3c7.732 0 14-6.268 14-14v-2h4l-6-6-6 6h4v2c0 5.523-4.477 10-10 10v-28h7l2-2-2-2h-7v-5.294c2.891-.861 5-3.536 5-6.706 0-3.866-3.134-7-7-7s-7 3.134-7 7c0 3.17 2.109 5.845 5 6.706v5.294h-7l-2 2z" fill="#999"/><circle cx="32" cy="9" fill="#f2f2f2" r="3"/><circle cx="10" cy="22" fill="#6292d8" r="2"/></svg>