<svg id="Layer_3" enable-background="new 0 0 64 64" height="512" viewBox="0 0 64 64" width="512" xmlns="http://www.w3.org/2000/svg"><path d="m32 40h-7v-8h7c.552 0 1 .448 1 1v6c0 .552-.448 1-1 1z" fill="#a5484e"/><path d="m10 40h7v-8h-7c-.552 0-1 .448-1 1v6c0 .552.448 1 1 1z" fill="#a5484e"/><path d="m31.05 40c.184 1.506.866 2.916 1.95 4 1.281 1.281 3.017 2 4.828 2h9.172c4.418 0 8 3.582 8 8v4h-24l-9-6h-11v-12z" fill="#725944"/><path d="m11 26h20v6h-20z" fill="#725944"/><path d="m17 30h8v12h-8z" fill="#dc6068"/><path d="m11 52v10h11v-5l8 5h25c1.105 0 2-.895 2-2 0-1.105-.895-2-2-2h-24l-9-6z" fill="#cb9e78"/><path d="m35 26h-28v-20c0-2.209 1.791-4 4-4h20c2.209 0 4 1.791 4 4z" fill="#98775a"/><path d="m28 2h-17c-2.209 0-4 1.791-4 4v20h25v-20c0-2.209-1.791-4-4-4z" fill="#cb9e78"/><g fill="#98775a"><path d="m20 2h2v24h-2z"/><path d="m24 5h2v2h-2z"/><path d="m24 9h2v2h-2z"/><path d="m24 13h2v2h-2z"/><path d="m24 17h2v2h-2z"/><path d="m24 21h2v2h-2z"/><path d="m16 5h2v2h-2z"/><path d="m16 9h2v2h-2z"/><path d="m16 13h2v2h-2z"/><path d="m16 17h2v2h-2z"/><path d="m16 21h2v2h-2z"/></g><path d="m20 33h2v6h-2z" fill="#a5484e"/></svg>