<svg id="Layer_3" enable-background="new 0 0 64 64" height="512" viewBox="0 0 64 64" width="512" xmlns="http://www.w3.org/2000/svg"><path d="m8 4h48v4h-48z" fill="#725944"/><path d="m56 2h6v8h-6z" fill="#98775a"/><path d="m56 2h3v8h-3z" fill="#cb9e78"/><path d="m2 2h6v8h-6z" fill="#98775a"/><path d="m2 2h3v8h-3z" fill="#cb9e78"/><path d="m52 53-20 9-20-9v-7l4-4-4-4v-8l2-2-2-2 2-2-2-2v-8h40v6l-6 6 6 6z" fill="#cb9e78"/><path d="m42 29.515v-1.515c0-5.523-4.477-10-10-10-5.523 0-10 4.477-10 10v1.515c0 1.591.632 3.117 1.757 4.243l2.243 2.242v2c0 1.105.895 2 2 2h8c1.105 0 2-.895 2-2v-2l2.243-2.243c1.125-1.125 1.757-2.651 1.757-4.242z" fill="#999"/><circle cx="28" cy="26" fill="#575969" r="2"/><circle cx="36" cy="26" fill="#575969" r="2"/><path d="m12 8h2v6h-2z" fill="#725944"/><path d="m50 8h2v6h-2z" fill="#725944"/><path d="m29 36h2v4h-2z" fill="#575969"/><path d="m33 36h2v4h-2z" fill="#575969"/><path d="m33.293 34.707-1.293-1.293-1.293 1.293-1.414-1.414 2-2c.391-.391 1.023-.391 1.414 0l2 2z" fill="#575969"/><g fill="#725944"><path d="m17.757 49h8.485v2h-8.485z" transform="matrix(.707 -.707 .707 .707 -28.912 30.201)"/><path d="m21 45.757h2v8.485h-2z" transform="matrix(.707 -.707 .707 .707 -28.912 30.201)"/><path d="m27.757 49h8.485v2h-8.485z" transform="matrix(.707 -.707 .707 .707 -25.983 37.272)"/><path d="m31 45.757h2v8.485h-2z" transform="matrix(.707 -.707 .707 .707 -25.983 37.272)"/><path d="m37.757 49h8.485v2h-8.485z" transform="matrix(.707 -.707 .707 .707 -23.054 44.343)"/><path d="m41 45.757h2v8.485h-2z" transform="matrix(.707 -.707 .707 .707 -23.054 44.343)"/><path d="m41 40h11v2h-11z"/><path d="m43 38h2v6h-2z"/><path d="m47 38h2v6h-2z"/><path d="m12 34h7v2h-7z"/><path d="m15 32h2v6h-2z"/></g></svg>