<svg id="Layer_3" enable-background="new 0 0 64 64" height="512" viewBox="0 0 64 64" width="512" xmlns="http://www.w3.org/2000/svg"><circle cx="32" cy="32" fill="#cb9e78" r="24"/><circle cx="32" cy="32" fill="#fff" r="20"/><path d="m13.707 54.293c-.453.453-1.067.707-1.707.707-.64 0-1.254-.254-1.707-.707l-.586-.586c-.453-.453-.707-1.067-.707-1.707 0-.64.254-1.254.707-1.707l40.586-40.586c.453-.453 1.067-.707 1.707-.707.64 0 1.254.254 1.707.707l.586.586c.453.453.707 1.067.707 1.707 0 .64-.254 1.254-.707 1.707z" fill="#cb9e78"/><path d="m9.707 13.707c-.453-.453-.707-1.067-.707-1.707 0-.64.254-1.254.707-1.707l.586-.586c.453-.453 1.067-.707 1.707-.707.64 0 1.254.254 1.707.707l40.586 40.586c.453.453.707 1.067.707 1.707 0 .64-.254 1.254-.707 1.707l-.586.586c-.453.453-1.067.707-1.707.707-.64 0-1.254-.254-1.707-.707z" fill="#cb9e78"/><path d="m32 62c-1.657 0-3-1.343-3-3v-54c0-1.657 1.343-3 3-3 1.657 0 3 1.343 3 3v54c0 1.657-1.343 3-3 3z" fill="#cb9e78"/><path d="m2 32c0-1.657 1.343-3 3-3h54c1.657 0 3 1.343 3 3 0 1.657-1.343 3-3 3h-54c-1.657 0-3-1.343-3-3z" fill="#cb9e78"/><circle cx="32" cy="32" fill="#98775a" r="12"/><path d="m38 34v2c0 1.105-.895 2-2 2h-8c-1.105 0-2-.895-2-2v-2c-1.105 0-2-.895-2-2 0-4.418 3.582-8 8-8 4.418 0 8 3.582 8 8 0 1.105-.895 2-2 2z" fill="#999"/><g fill="#fff"><path d="m29 35h2v3h-2z"/><path d="m33 35h2v3h-2z"/><path d="m28.5 31c-.827 0-1.5-.673-1.5-1.5s.673-1.5 1.5-1.5 1.5.673 1.5 1.5-.673 1.5-1.5 1.5z"/><path d="m35.5 31c-.827 0-1.5-.673-1.5-1.5s.673-1.5 1.5-1.5 1.5.673 1.5 1.5-.673 1.5-1.5 1.5z"/><path d="m31 31h2v2h-2z"/></g></svg>