<svg id="Layer_3" enable-background="new 0 0 64 64" height="512" viewBox="0 0 64 64" width="512" xmlns="http://www.w3.org/2000/svg"><path d="m53.379 1.429h4.243v14.142h-4.243z" fill="#737373" transform="matrix(.707 -.707 .707 .707 10.245 41.734)"/><path d="m52.379 1.843h4.243v11.314h-4.243z" fill="#999" transform="matrix(.707 -.707 .707 .707 10.659 40.734)"/><path d="m7.172 45.515h5.657v16.971h-5.657z" fill="#737373" transform="matrix(.707 -.707 .707 .707 -35.255 22.887)"/><path d="m5.672 46.136h5.657v12.728h-5.657z" fill="#999" transform="matrix(.707 -.707 .707 .707 -34.634 21.387)"/><path d="m22.343 27.515h11.314v16.971h-11.314z" fill="#737373" transform="matrix(.707 -.707 .707 .707 -17.255 30.343)"/><path d="m20.843 28.136h11.314v12.728h-11.314z" fill="#999" transform="matrix(.707 -.707 .707 .707 -16.634 28.843)"/><path d="m9.515 41.757h16.971v8.485h-16.971z" fill="#a1a1a1" transform="matrix(.707 -.707 .707 .707 -27.255 26.201)"/><path d="m8.015 42.379h16.971v4.243h-16.971z" fill="#d6d6d6" transform="matrix(.707 -.707 .707 .707 -26.634 24.701)"/><g fill="#f8cf6a"><path d="m54 38c1.889-.63 3.37-2.111 4-4 .63 1.889 2.111 3.37 4 4-1.889.63-3.37 2.111-4 4-.63-1.889-2.111-3.37-4-4z"/><path d="m39 52c1.889-.63 3.37-2.111 4-4 .63 1.889 2.111 3.37 4 4-1.889.63-3.37 2.111-4 4-.63-1.889-2.111-3.37-4-4z"/><path d="m2 26c1.889-.63 3.37-2.111 4-4 .63 1.889 2.111 3.37 4 4-1.889.63-3.37 2.111-4 4-.63-1.889-2.111-3.37-4-4z"/><path d="m12 6c1.889-.63 3.37-2.111 4-4 .63 1.889 2.111 3.37 4 4-1.889.63-3.37 2.111-4 4-.63-1.889-2.111-3.37-4-4z"/></g><path d="m27.444 9.686h31.113v22.627h-31.113z" fill="#a1a1a1" transform="matrix(.707 -.707 .707 .707 -2.255 36.556)"/><path d="m25.944 10.308h31.113v18.385h-31.113z" fill="#d6d6d6" transform="matrix(.707 -.707 .707 .707 -1.634 35.056)"/><path d="m26.686 11.757h22.627v8.485h-22.627z" fill="#98775a" transform="matrix(.707 -.707 .707 .707 -.184 31.556)"/><path d="m25.686 12.172h22.627v5.657h-22.627z" fill="#cb9e78" transform="matrix(.707 -.707 .707 .707 .23 30.556)"/><path d="m26 28.515h2v16.971h-2z" fill="#d6d6d6" transform="matrix(.707 -.707 .707 .707 -18.255 29.929)"/></svg>