<?xml version="1.0" encoding="iso-8859-1"?>
<!-- Generator: Adobe Illustrator 19.0.0, SVG Export Plug-In . SVG Version: 6.00 Build 0)  -->
<svg version="1.1" id="Layer_1" xmlns="http://www.w3.org/2000/svg" xmlns:xlink="http://www.w3.org/1999/xlink" x="0px" y="0px"
	 viewBox="0 0 512 512" style="enable-background:new 0 0 512 512;" xml:space="preserve">
<path style="fill:#876039;" d="M326.621,17.655V8.828c0-5.297-3.531-8.828-8.828-8.828H194.207c-5.297,0-8.828,3.531-8.828,8.828
	v8.828H97.103c-9.71,0-17.655,7.945-17.655,17.655v459.034c0,9.71,7.945,17.655,17.655,17.655h317.793
	c9.71,0,17.655-7.945,17.655-17.655V35.31c0-9.71-7.945-17.655-17.655-17.655H326.621z"/>
<path style="fill:#556080;" d="M317.793,70.621H194.207c-5.297,0-8.828-3.531-8.828-8.828V8.828c0-5.297,3.531-8.828,8.828-8.828
	h123.586c5.297,0,8.828,3.531,8.828,8.828v52.966C326.621,67.09,323.09,70.621,317.793,70.621"/>
<path style="fill:#F0EDE0;" d="M326.621,52.966v8.828c0,5.297-3.531,8.828-8.828,8.828H194.207c-5.297,0-8.828-3.531-8.828-8.828
	v-8.828h-61.793c-5.297,0-8.828,3.531-8.828,8.828v406.069c0,5.297,3.531,8.828,8.828,8.828h264.828
	c5.297,0,8.828-3.531,8.828-8.828V61.793c0-5.297-3.531-8.828-8.828-8.828H326.621z"/>
<g>
	<path style="fill:#D4C3A5;" d="M238.345,176.552h-88.276c-5.297,0-8.828-3.531-8.828-8.828v-52.966
		c0-5.297,3.531-8.828,8.828-8.828h88.276c5.297,0,8.828,3.531,8.828,8.828v52.966C247.172,173.021,243.641,176.552,238.345,176.552
		z M158.897,158.897h70.621v-35.31h-70.621V158.897z"/>
	<path style="fill:#D4C3A5;" d="M361.931,229.517H150.069c-5.297,0-8.828-3.531-8.828-8.828s3.531-8.828,8.828-8.828h211.862
		c5.297,0,8.828,3.531,8.828,8.828S367.228,229.517,361.931,229.517z"/>
	<path style="fill:#D4C3A5;" d="M344.276,264.828H150.069c-5.297,0-8.828-3.531-8.828-8.828c0-5.297,3.531-8.828,8.828-8.828
		h194.207c5.297,0,8.828,3.531,8.828,8.828C353.103,261.297,349.572,264.828,344.276,264.828z"/>
	<path style="fill:#D4C3A5;" d="M335.448,300.138H150.069c-5.297,0-8.828-3.531-8.828-8.828s3.531-8.828,8.828-8.828h185.379
		c5.297,0,8.828,3.531,8.828,8.828S340.745,300.138,335.448,300.138z"/>
	<path style="fill:#D4C3A5;" d="M300.138,441.379c-2.648,0-5.297-0.883-7.062-3.531l-26.483-35.31
		c-2.648-3.531-1.766-9.71,1.766-12.359c3.531-2.648,9.71-1.766,12.359,1.766l26.483,35.31c2.648,3.531,1.766,9.71-1.766,12.359
		C303.669,440.497,301.903,441.379,300.138,441.379z"/>
	<path style="fill:#D4C3A5;" d="M300.138,441.379c-1.766,0-3.531-0.883-5.297-1.766c-3.531-2.648-5.297-7.945-1.766-12.359
		l44.138-61.793c2.648-3.531,7.945-5.297,12.359-1.766c3.531,2.648,5.297,7.945,1.766,12.359L307.2,437.848
		C305.434,440.497,302.786,441.379,300.138,441.379z"/>
</g>
<g>
</g>
<g>
</g>
<g>
</g>
<g>
</g>
<g>
</g>
<g>
</g>
<g>
</g>
<g>
</g>
<g>
</g>
<g>
</g>
<g>
</g>
<g>
</g>
<g>
</g>
<g>
</g>
<g>
</g>
</svg>
