<?xml version="1.0" encoding="iso-8859-1"?>
<!-- Generator: Adobe Illustrator 19.0.0, SVG Export Plug-In . SVG Version: 6.00 Build 0)  -->
<svg version="1.1" id="Layer_1" xmlns="http://www.w3.org/2000/svg" xmlns:xlink="http://www.w3.org/1999/xlink" x="0px" y="0px"
	 viewBox="0 0 512 512" style="enable-background:new 0 0 512 512;" xml:space="preserve">
<g>
	<path style="fill:#876039;" d="M326.621,17.655V8.828c0-4.873-3.955-8.828-8.828-8.828H194.207c-4.873,0-8.828,3.955-8.828,8.828
		v8.828H97.103c-9.754,0-17.655,7.901-17.655,17.655v459.034c0,9.754,7.901,17.655,17.655,17.655h317.793
		c9.754,0,17.655-7.901,17.655-17.655V35.31c0-9.754-7.901-17.655-17.655-17.655H326.621z"/>
	<path style="fill:#556080;" d="M317.792,70.621H194.206c-4.873,0-8.828-3.955-8.828-8.828V8.828c0-4.873,3.955-8.828,8.828-8.828
		h123.586c4.873,0,8.828,3.955,8.828,8.828v52.966C326.62,66.666,322.665,70.621,317.792,70.621"/>
	<path style="fill:#F0EDE0;" d="M326.621,52.966v8.828c0,4.873-3.955,8.828-8.828,8.828H194.207c-4.873,0-8.828-3.955-8.828-8.828
		v-8.828h-61.793c-4.873,0-8.828,3.955-8.828,8.828v406.069c0,4.873,3.955,8.828,8.828,8.828h264.828
		c4.873,0,8.828-3.955,8.828-8.828V61.793c0-4.873-3.955-8.828-8.828-8.828H326.621z"/>
	<g>
		<path style="fill:#D4C3A5;" d="M158.897,158.897h70.621v-35.31h-70.621V158.897z M238.345,176.552h-88.276
			c-4.882,0-8.828-3.955-8.828-8.828v-52.966c0-4.873,3.946-8.828,8.828-8.828h88.276c4.882,0,8.828,3.955,8.828,8.828v52.966
			C247.172,172.597,243.226,176.552,238.345,176.552L238.345,176.552z"/>
		<path style="fill:#D4C3A5;" d="M264.828,229.517H150.069c-4.882,0-8.828-3.955-8.828-8.828c0-4.873,3.946-8.828,8.828-8.828
			h114.759c4.882,0,8.828,3.955,8.828,8.828C273.655,225.562,269.709,229.517,264.828,229.517"/>
		<path style="fill:#D4C3A5;" d="M247.172,264.828h-97.103c-4.882,0-8.828-3.955-8.828-8.828s3.946-8.828,8.828-8.828h97.103
			c4.882,0,8.828,3.955,8.828,8.828S252.054,264.828,247.172,264.828"/>
		<path style="fill:#D4C3A5;" d="M238.345,300.138h-88.276c-4.882,0-8.828-3.955-8.828-8.828c0-4.873,3.946-8.828,8.828-8.828
			h88.276c4.882,0,8.828,3.955,8.828,8.828C247.172,296.183,243.226,300.138,238.345,300.138"/>
		<path style="fill:#D4C3A5;" d="M317.802,300.138c-2.692,0-5.332-1.218-7.071-3.531l-26.483-35.31
			c-2.931-3.902-2.136-9.437,1.766-12.359c3.902-2.94,9.437-2.136,12.359,1.766l26.483,35.31c2.931,3.902,2.136,9.437-1.766,12.359
			C321.501,299.564,319.647,300.138,317.802,300.138"/>
		<path style="fill:#D4C3A5;" d="M317.784,300.138c-1.774,0-3.566-0.539-5.12-1.642c-3.964-2.834-4.89-8.351-2.048-12.314
			l44.129-61.793c2.842-3.964,8.36-4.882,12.314-2.057c3.964,2.834,4.89,8.351,2.048,12.314l-44.138,61.793
			C323.249,298.849,320.538,300.138,317.784,300.138"/>
		<path style="fill:#D4C3A5;" d="M264.828,353.103H150.069c-4.882,0-8.828-3.955-8.828-8.828c0-4.873,3.946-8.828,8.828-8.828
			h114.759c4.882,0,8.828,3.955,8.828,8.828C273.655,349.149,269.709,353.103,264.828,353.103"/>
		<path style="fill:#D4C3A5;" d="M247.172,388.414h-97.103c-4.882,0-8.828-3.955-8.828-8.828s3.946-8.828,8.828-8.828h97.103
			c4.882,0,8.828,3.955,8.828,8.828S252.054,388.414,247.172,388.414"/>
		<path style="fill:#D4C3A5;" d="M238.345,423.724h-88.276c-4.882,0-8.828-3.955-8.828-8.828s3.946-8.828,8.828-8.828h88.276
			c4.882,0,8.828,3.955,8.828,8.828S243.226,423.724,238.345,423.724"/>
		<path style="fill:#D4C3A5;" d="M317.802,423.724c-2.692,0-5.332-1.218-7.071-3.531l-26.483-35.31
			c-2.931-3.902-2.136-9.437,1.766-12.359c3.902-2.94,9.437-2.136,12.359,1.766l26.483,35.31c2.931,3.902,2.136,9.437-1.766,12.359
			C321.501,423.15,319.647,423.724,317.802,423.724"/>
		<path style="fill:#D4C3A5;" d="M317.784,423.724c-1.774,0-3.566-0.538-5.12-1.642c-3.964-2.834-4.89-8.351-2.048-12.314
			l44.129-61.793c2.842-3.964,8.36-4.882,12.314-2.057c3.964,2.834,4.89,8.351,2.048,12.315l-44.138,61.793
			C323.249,422.435,320.538,423.724,317.784,423.724"/>
	</g>
</g>
<g>
</g>
<g>
</g>
<g>
</g>
<g>
</g>
<g>
</g>
<g>
</g>
<g>
</g>
<g>
</g>
<g>
</g>
<g>
</g>
<g>
</g>
<g>
</g>
<g>
</g>
<g>
</g>
<g>
</g>
</svg>
