<?xml version="1.0" encoding="iso-8859-1"?>
<!-- Generator: Adobe Illustrator 19.0.0, SVG Export Plug-In . SVG Version: 6.00 Build 0)  -->
<svg version="1.1" id="Layer_1" xmlns="http://www.w3.org/2000/svg" xmlns:xlink="http://www.w3.org/1999/xlink" x="0px" y="0px"
	 viewBox="0 0 512.003 512.003" style="enable-background:new 0 0 512.003 512.003;" xml:space="preserve">
<g>
	<path style="fill:#C69666;" d="M317.794,17.658V0.003H194.208v17.655H35.312c-19.5,0-35.31,15.81-35.31,35.31v423.724
		c0,19.5,15.81,35.31,35.31,35.31h441.379c19.5,0,35.31-15.81,35.31-35.31V52.968c0-19.5-15.81-35.31-35.31-35.31H317.794z"/>
	<g>
		<polygon style="fill:#E8D5B2;" points="123.588,476.692 388.415,476.692 388.415,370.761 123.588,370.761 		"/>
		<path style="fill:#E8D5B2;" d="M305.607,130.798l-49.602-42.522l-49.611,42.522c-4.785,4.105-12.182,0.706-12.182-5.606V0h123.586
			v125.193C317.798,131.505,310.392,134.903,305.607,130.798"/>
		<path style="fill:#E8D5B2;" d="M388.415,344.279H123.588c-4.873,0-8.828-3.955-8.828-8.828s3.955-8.828,8.828-8.828h264.828
			c4.873,0,8.828,3.955,8.828,8.828S393.288,344.279,388.415,344.279"/>
		<path style="fill:#E8D5B2;" d="M176.553,308.968c-4.873,0-8.828-3.955-8.828-8.828V176.554c0-4.873,3.955-8.828,8.828-8.828
			c4.873,0,8.828,3.955,8.828,8.828v123.586C185.381,305.013,181.426,308.968,176.553,308.968"/>
		<path style="fill:#E8D5B2;" d="M211.863,220.692c-2.26,0-4.52-0.865-6.241-2.586l-29.069-29.069l-29.069,29.069
			c-3.452,3.452-9.031,3.452-12.482,0s-3.452-9.031,0-12.482l35.31-35.31c3.452-3.452,9.031-3.452,12.482,0l35.31,35.31
			c3.452,3.452,3.452,9.031,0,12.482C216.383,219.827,214.123,220.692,211.863,220.692"/>
		<path style="fill:#E8D5B2;" d="M335.45,308.968c-4.873,0-8.828-3.955-8.828-8.828V176.554c0-4.873,3.955-8.828,8.828-8.828
			c4.873,0,8.828,3.955,8.828,8.828v123.586C344.277,305.013,340.322,308.968,335.45,308.968"/>
		<path style="fill:#E8D5B2;" d="M370.76,220.692c-2.26,0-4.52-0.865-6.241-2.586l-29.069-29.069l-29.069,29.069
			c-3.452,3.452-9.031,3.452-12.482,0c-3.452-3.452-3.452-9.031,0-12.482l35.31-35.31c3.452-3.452,9.031-3.452,12.482,0l35.31,35.31
			c3.452,3.452,3.452,9.031,0,12.482C375.28,219.827,373.02,220.692,370.76,220.692"/>
	</g>
	<g>
		<path style="fill:#CBB292;" d="M185.381,414.899h-26.483c-4.873,0-8.828-3.955-8.828-8.828c0-4.873,3.955-8.828,8.828-8.828
			h26.483c4.873,0,8.828,3.955,8.828,8.828C194.208,410.944,190.253,414.899,185.381,414.899"/>
		<path style="fill:#CBB292;" d="M353.105,450.21h-61.793c-4.873,0-8.828-3.955-8.828-8.828s3.955-8.828,8.828-8.828h61.793
			c4.873,0,8.828,3.955,8.828,8.828S357.978,450.21,353.105,450.21"/>
		<path style="fill:#CBB292;" d="M353.105,414.899H220.691c-4.873,0-8.828-3.955-8.828-8.828c0-4.873,3.955-8.828,8.828-8.828
			h132.414c4.873,0,8.828,3.955,8.828,8.828C361.932,410.944,357.978,414.899,353.105,414.899"/>
		<path style="fill:#CBB292;" d="M256.001,450.21h-97.103c-4.873,0-8.828-3.955-8.828-8.828s3.955-8.828,8.828-8.828h97.103
			c4.873,0,8.828,3.955,8.828,8.828S260.874,450.21,256.001,450.21"/>
	</g>
</g>
<g>
</g>
<g>
</g>
<g>
</g>
<g>
</g>
<g>
</g>
<g>
</g>
<g>
</g>
<g>
</g>
<g>
</g>
<g>
</g>
<g>
</g>
<g>
</g>
<g>
</g>
<g>
</g>
<g>
</g>
</svg>
