<?xml version="1.0" encoding="iso-8859-1"?>
<!-- Generator: Adobe Illustrator 19.0.0, SVG Export Plug-In . SVG Version: 6.00 Build 0)  -->
<svg version="1.1" id="Layer_1" xmlns="http://www.w3.org/2000/svg" xmlns:xlink="http://www.w3.org/1999/xlink" x="0px" y="0px"
	 viewBox="0 0 512.003 512.003" style="enable-background:new 0 0 512.003 512.003;" xml:space="preserve">
<g>
	<path style="fill:#C69666;" d="M317.794,17.658V0.003H194.208v17.655H35.312c-19.5,0-35.31,15.81-35.31,35.31v423.724
		c0,19.5,15.81,35.31,35.31,35.31h441.379c19.5,0,35.31-15.81,35.31-35.31V52.968c0-19.5-15.81-35.31-35.31-35.31H317.794z"/>
	<path style="fill:#E8D5B2;" d="M305.607,130.798l-49.602-42.522l-49.611,42.522c-4.785,4.105-12.182,0.706-12.182-5.606V0h123.586
		v125.193C317.798,131.505,310.392,134.903,305.607,130.798"/>
	<g>
		<path style="fill:#D75A4A;" d="M423.725,344.279c0-39-31.62-70.621-70.621-70.621s-70.621,31.62-70.621,70.621
			s31.62,70.621,70.621,70.621S423.725,383.279,423.725,344.279"/>
		<path style="fill:#D75A4A;" d="M161.631,355.854l23.746-16.79v-91.886H97.101v132.414h53.46
			C149.881,370.579,153.713,361.451,161.631,355.854"/>
	</g>
	<path style="fill:#8697CB;" d="M353.105,273.658V194.21H185.381v144.852l48.137-34.039c11.997-8.483,28.593-5.632,37.076,6.365
		l13.303,18.812C290.42,297.943,318.924,273.658,353.105,273.658"/>
	<path style="fill:#F0C419;" d="M282.484,344.279c0-4.82,0.494-9.525,1.412-14.08l-13.303-18.812
		c-8.483-11.997-25.079-14.848-37.076-6.365l-71.883,50.829c-11.997,8.483-14.848,25.088-6.365,37.085l50.829,71.883
		c8.483,11.988,25.079,14.839,37.076,6.356l71.883-50.829c4.29-3.028,7.353-7.124,9.207-11.652
		C299.654,397.659,282.484,372.995,282.484,344.279"/>
</g>
<g>
</g>
<g>
</g>
<g>
</g>
<g>
</g>
<g>
</g>
<g>
</g>
<g>
</g>
<g>
</g>
<g>
</g>
<g>
</g>
<g>
</g>
<g>
</g>
<g>
</g>
<g>
</g>
<g>
</g>
</svg>
