<?xml version="1.0" encoding="iso-8859-1"?>
<!-- Generator: Adobe Illustrator 19.0.0, SVG Export Plug-In . SVG Version: 6.00 Build 0)  -->
<svg version="1.1" id="Layer_1" xmlns="http://www.w3.org/2000/svg" xmlns:xlink="http://www.w3.org/1999/xlink" x="0px" y="0px"
	 viewBox="0 0 512 512" style="enable-background:new 0 0 512 512;" xml:space="preserve">
<g transform="translate(-1)">
	<polygon style="fill:#BDC3C7;" points="115.784,150.069 398.267,150.069 398.267,35.31 115.784,35.31 	"/>
	<g>
		<polygon style="fill:#E6E7E8;" points="221.715,35.31 292.336,35.31 292.336,0 221.715,0 		"/>
		<polygon style="fill:#E6E7E8;" points="230.543,114.759 274.681,114.759 274.681,70.621 230.543,70.621 		"/>
		<polygon style="fill:#E6E7E8;" points="151.095,114.759 195.232,114.759 195.232,70.621 151.095,70.621 		"/>
		<polygon style="fill:#E6E7E8;" points="309.991,114.759 362.957,114.759 362.957,70.621 309.991,70.621 		"/>
	</g>
	<path style="fill:#BDC3C7;" d="M124.612,512h264.828l87.437-152.179c18.803-27.171,9.19-64.689-20.356-79.466l-164.705-86.766
		c-22.925-10.999-48.296-10.461-71.477,0L58.802,281.15c-30.473,14.221-40.819,52.445-21.672,80.093L124.612,512z"/>
	<g>
		<path style="fill:#E6E7E8;" d="M183.58,300.382c5.597,22.051,4.502,41.101-6.524,43.891
			c-11.026,2.798-27.807-11.714-33.404-33.766c-5.597-22.051-4.105-42.884,6.921-45.683
			C161.599,262.035,177.983,278.33,183.58,300.382"/>
		<path style="fill:#E6E7E8;" d="M88.912,264.828l131.425-71.239c23.181-10.461,48.552-10.999,71.477,0l132.626,69.87l17.964-113.39
			H71.645L88.78,264.828H88.912z"/>
		<path style="fill:#E6E7E8;" d="M220.339,352.327L76.652,430.204L124.613,512H389.44l47.784-83.076l-145.408-76.597
			C268.891,341.327,243.52,341.857,220.339,352.327"/>
		<path style="fill:#E6E7E8;" d="M330.296,300.382c-5.597,22.051-5.367,41.101,5.658,43.891
			c11.026,2.798,28.672-11.714,34.269-33.766c5.597-22.051,3.24-42.884-7.786-45.683
			C351.412,262.035,335.893,278.33,330.296,300.382"/>
	</g>
</g>
<g>
</g>
<g>
</g>
<g>
</g>
<g>
</g>
<g>
</g>
<g>
</g>
<g>
</g>
<g>
</g>
<g>
</g>
<g>
</g>
<g>
</g>
<g>
</g>
<g>
</g>
<g>
</g>
<g>
</g>
</svg>
