<?xml version="1.0" encoding="iso-8859-1"?>
<!-- Generator: Adobe Illustrator 19.0.0, SVG Export Plug-In . SVG Version: 6.00 Build 0)  -->
<svg version="1.1" id="Layer_1" xmlns="http://www.w3.org/2000/svg" xmlns:xlink="http://www.w3.org/1999/xlink" x="0px" y="0px"
	 viewBox="0 0 512 512" style="enable-background:new 0 0 512 512;" xml:space="preserve">
<g>
	<path style="fill:#BDC3C7;" d="M195.328,114.759h121.344c-3.919-15.21-17.77-26.483-34.189-26.483h-52.966
		C213.098,88.276,199.247,99.549,195.328,114.759 M326.621,132.414H185.379c-4.882,0-8.828-3.955-8.828-8.828
		c0-29.21,23.755-52.966,52.966-52.966h52.966c29.21,0,52.966,23.755,52.966,52.966
		C335.448,128.459,331.502,132.414,326.621,132.414"/>
	<path style="fill:#556080;" d="M476.69,441.379H35.31c-19.5,0-35.31-15.81-35.31-35.31c0-19.5,15.81-35.31,35.31-35.31H476.69
		c19.5,0,35.31,15.81,35.31,35.31C512,425.569,496.19,441.379,476.69,441.379"/>
	<path style="fill:#876039;" d="M450.207,370.759H61.793V159.382c0-19.774,16.022-35.796,35.796-35.796h316.822
		c19.774,0,35.796,16.022,35.796,35.796V370.759z"/>
	<polygon style="fill:#E8D5B2;" points="308.966,247.172 273.655,211.862 325.932,158.897 361.931,158.897 361.931,198.488 	"/>
	<path style="fill:#BDC3C7;" d="M351.535,178.694c2.277,0,4.555-0.874,6.285-2.622l52.056-52.489H385l-39.751,40.077
		c-3.425,3.469-3.39,9.057,0.079,12.482C347.05,177.847,349.293,178.694,351.535,178.694"/>
	<g>
		<path style="fill:#738CBF;" d="M52.966,406.069c0-4.873-3.955-8.828-8.828-8.828s-8.828,3.955-8.828,8.828
			s3.955,8.828,8.828,8.828S52.966,410.942,52.966,406.069"/>
		<path style="fill:#738CBF;" d="M88.276,406.069c0-4.873-3.955-8.828-8.828-8.828c-4.873,0-8.828,3.955-8.828,8.828
			s3.955,8.828,8.828,8.828C84.321,414.897,88.276,410.942,88.276,406.069"/>
		<path style="fill:#738CBF;" d="M123.586,406.069c0-4.873-3.955-8.828-8.828-8.828s-8.828,3.955-8.828,8.828
			s3.955,8.828,8.828,8.828S123.586,410.942,123.586,406.069"/>
		<path style="fill:#738CBF;" d="M158.897,406.069c0-4.873-3.955-8.828-8.828-8.828c-4.873,0-8.828,3.955-8.828,8.828
			s3.955,8.828,8.828,8.828C154.942,414.897,158.897,410.942,158.897,406.069"/>
		<path style="fill:#738CBF;" d="M194.207,406.069c0-4.873-3.955-8.828-8.828-8.828c-4.873,0-8.828,3.955-8.828,8.828
			s3.955,8.828,8.828,8.828C190.252,414.897,194.207,410.942,194.207,406.069"/>
		<path style="fill:#738CBF;" d="M229.517,406.069c0-4.873-3.955-8.828-8.828-8.828c-4.873,0-8.828,3.955-8.828,8.828
			s3.955,8.828,8.828,8.828C225.562,414.897,229.517,410.942,229.517,406.069"/>
		<path style="fill:#738CBF;" d="M264.828,406.069c0-4.873-3.955-8.828-8.828-8.828s-8.828,3.955-8.828,8.828
			s3.955,8.828,8.828,8.828S264.828,410.942,264.828,406.069"/>
		<path style="fill:#738CBF;" d="M300.138,406.069c0-4.873-3.955-8.828-8.828-8.828c-4.873,0-8.828,3.955-8.828,8.828
			s3.955,8.828,8.828,8.828C296.183,414.897,300.138,410.942,300.138,406.069"/>
		<path style="fill:#738CBF;" d="M335.448,406.069c0-4.873-3.955-8.828-8.828-8.828c-4.873,0-8.828,3.955-8.828,8.828
			s3.955,8.828,8.828,8.828C331.493,414.897,335.448,410.942,335.448,406.069"/>
		<path style="fill:#738CBF;" d="M370.759,406.069c0-4.873-3.955-8.828-8.828-8.828s-8.828,3.955-8.828,8.828
			s3.955,8.828,8.828,8.828S370.759,410.942,370.759,406.069"/>
		<path style="fill:#738CBF;" d="M406.069,406.069c0-4.873-3.955-8.828-8.828-8.828c-4.873,0-8.828,3.955-8.828,8.828
			s3.955,8.828,8.828,8.828C402.114,414.897,406.069,410.942,406.069,406.069"/>
		<path style="fill:#738CBF;" d="M441.379,406.069c0-4.873-3.955-8.828-8.828-8.828s-8.828,3.955-8.828,8.828
			s3.955,8.828,8.828,8.828S441.379,410.942,441.379,406.069"/>
		<path style="fill:#738CBF;" d="M476.69,406.069c0-4.873-3.955-8.828-8.828-8.828s-8.828,3.955-8.828,8.828
			s3.955,8.828,8.828,8.828S476.69,410.942,476.69,406.069"/>
	</g>
</g>
<g>
</g>
<g>
</g>
<g>
</g>
<g>
</g>
<g>
</g>
<g>
</g>
<g>
</g>
<g>
</g>
<g>
</g>
<g>
</g>
<g>
</g>
<g>
</g>
<g>
</g>
<g>
</g>
<g>
</g>
</svg>
