<?xml version="1.0" encoding="iso-8859-1"?>
<!-- Generator: Adobe Illustrator 19.0.0, SVG Export Plug-In . SVG Version: 6.00 Build 0)  -->
<svg version="1.1" id="Layer_1" xmlns="http://www.w3.org/2000/svg" xmlns:xlink="http://www.w3.org/1999/xlink" x="0px" y="0px"
	 viewBox="0 0 512 512" style="enable-background:new 0 0 512 512;" xml:space="preserve">
<g>
	<path style="fill:#42B05C;" d="M88.276,211.862c-2.648,0-4.414-0.883-6.179-2.648c-3.531-3.531-2.648-8.828,0.883-12.359
		L197.738,90.924c3.531-3.531,8.828-2.648,12.359,0.883c3.531,3.531,2.648,8.828-0.883,12.359L94.455,210.097
		C92.69,210.979,90.041,211.862,88.276,211.862"/>
	<path style="fill:#42B05C;" d="M308.966,423.724c-2.648,0-4.414-0.883-6.179-2.648c-3.531-3.531-2.648-8.828,0.883-12.359
		l114.759-105.931c3.531-3.531,8.828-2.648,12.359,0.883c3.531,3.531,2.648,8.828-0.883,12.359L315.145,421.959
		C313.379,422.841,310.731,423.724,308.966,423.724"/>
	<path style="fill:#42B05C;" d="M388.414,264.828H120.055c-5.297,0-8.828-3.531-8.828-8.828c0-5.297,3.531-8.828,8.828-8.828
		h268.359c5.297,0,8.828,3.531,8.828,8.828C397.241,261.297,393.71,264.828,388.414,264.828"/>
</g>
<path style="fill:#DD342E;" d="M317.793,61.793c0,34.428-27.365,61.793-61.793,61.793s-61.793-27.366-61.793-61.793S221.572,0,256,0
	S317.793,27.366,317.793,61.793"/>
<g>
	<path style="fill:#7383BF;" d="M317.793,450.207C317.793,484.634,290.428,512,256,512s-61.793-27.366-61.793-61.793
		s27.366-61.793,61.793-61.793S317.793,415.779,317.793,450.207"/>
	<path style="fill:#7383BF;" d="M123.586,256c0,34.428-27.366,61.793-61.793,61.793S0,290.428,0,256s27.366-61.793,61.793-61.793
		S123.586,221.572,123.586,256"/>
</g>
<path style="fill:#DD342E;" d="M512,256c0,34.428-27.366,61.793-61.793,61.793S388.414,290.428,388.414,256
	s27.366-61.793,61.793-61.793S512,221.572,512,256"/>
<g>
</g>
<g>
</g>
<g>
</g>
<g>
</g>
<g>
</g>
<g>
</g>
<g>
</g>
<g>
</g>
<g>
</g>
<g>
</g>
<g>
</g>
<g>
</g>
<g>
</g>
<g>
</g>
<g>
</g>
</svg>
