<?xml version="1.0" encoding="iso-8859-1"?>
<!-- Generator: Adobe Illustrator 19.0.0, SVG Export Plug-In . SVG Version: 6.00 Build 0)  -->
<svg version="1.1" id="Layer_1" xmlns="http://www.w3.org/2000/svg" xmlns:xlink="http://www.w3.org/1999/xlink" x="0px" y="0px"
	 viewBox="0 0 512 512" style="enable-background:new 0 0 512 512;" xml:space="preserve">
<path style="fill:#ECBA16;" d="M440.889,512H71.111C31.289,512,0,480.711,0,440.889V71.111C0,31.289,31.289,0,71.111,0h370.726
	C480.711,0,512,31.289,512,71.111v370.726C512,480.711,480.711,512,440.889,512L440.889,512z"/>
<path style="fill:#42B05C;" d="M445.63,322.37l-75.852-96.711C365.985,242.726,350.815,256,332.8,256
	c-14.222,0-27.496-8.533-33.185-20.859l-61.63,106.193l-80.593-67.319c-6.637,11.378-18.963,19.911-33.185,19.911
	c-13.274,0-24.652-6.637-31.289-16.119L0,369.778v73.007C0,480.711,31.289,512,69.215,512h374.519
	C481.659,512,512,481.659,512,443.733V141.274L445.63,322.37z"/>
<g>
	<path style="fill:#DD342E;" d="M369.778,218.074c0,20.859-17.067,37.926-37.926,37.926c-20.859,0-37.926-17.067-37.926-37.926
		s17.067-37.926,37.926-37.926C352.711,180.148,369.778,197.215,369.778,218.074"/>
	<path style="fill:#DD342E;" d="M161.185,256c0,20.859-17.067,37.926-37.926,37.926S85.333,276.859,85.333,256
		s17.067-37.926,37.926-37.926S161.185,235.141,161.185,256"/>
</g>
<g>
</g>
<g>
</g>
<g>
</g>
<g>
</g>
<g>
</g>
<g>
</g>
<g>
</g>
<g>
</g>
<g>
</g>
<g>
</g>
<g>
</g>
<g>
</g>
<g>
</g>
<g>
</g>
<g>
</g>
</svg>
