<?xml version="1.0" encoding="iso-8859-1"?>
<!-- Generator: Adobe Illustrator 19.0.0, SVG Export Plug-In . SVG Version: 6.00 Build 0)  -->
<svg version="1.1" id="Layer_1" xmlns="http://www.w3.org/2000/svg" xmlns:xlink="http://www.w3.org/1999/xlink" x="0px" y="0px"
	 viewBox="0 0 512 512" style="enable-background:new 0 0 512 512;" xml:space="preserve">
<path style="fill:#38454F;" d="M185.379,392.828v17.655h141.241v-17.655h167.724V92.69c0-9.71-7.945-17.655-17.655-17.655H35.31
	c-9.71,0-17.655,7.945-17.655,17.655v300.138H185.379z"/>
<path style="fill:#546A79;" d="M35.31,375.172H476.69V92.69H35.31V375.172z"/>
<path style="fill:#B0B6BB;" d="M326.621,392.828v17.655H185.379v-17.655H0v26.483c0,9.71,7.945,17.655,17.655,17.655h476.69
	c9.71,0,17.655-7.945,17.655-17.655v-26.483H326.621z"/>
<path style="fill:#DD342E;" d="M167.724,136.828H52.966c-5.297,0-8.828-3.531-8.828-8.828s3.531-8.828,8.828-8.828h114.759
	c5.297,0,8.828,3.531,8.828,8.828S173.021,136.828,167.724,136.828"/>
<path style="fill:#ECBA16;" d="M220.69,172.138H97.103c-5.297,0-8.828-3.531-8.828-8.828s3.531-8.828,8.828-8.828H220.69
	c5.297,0,8.828,3.531,8.828,8.828S225.986,172.138,220.69,172.138"/>
<path style="fill:#7383BF;" d="M61.793,172.138h-8.828c-5.297,0-8.828-3.531-8.828-8.828s3.531-8.828,8.828-8.828h8.828
	c5.297,0,8.828,3.531,8.828,8.828S67.09,172.138,61.793,172.138"/>
<g>
	<path style="fill:#42B05C;" d="M220.69,136.828h-17.655c-5.297,0-8.828-3.531-8.828-8.828s3.531-8.828,8.828-8.828h17.655
		c5.297,0,8.828,3.531,8.828,8.828S225.986,136.828,220.69,136.828"/>
	<path style="fill:#42B05C;" d="M132.414,207.448H52.966c-5.297,0-8.828-3.531-8.828-8.828c0-5.297,3.531-8.828,8.828-8.828h79.448
		c5.297,0,8.828,3.531,8.828,8.828C141.241,203.917,137.71,207.448,132.414,207.448"/>
</g>
<path style="fill:#DD342E;" d="M220.69,207.448h-52.966c-5.297,0-8.828-3.531-8.828-8.828c0-5.297,3.531-8.828,8.828-8.828h52.966
	c5.297,0,8.828,3.531,8.828,8.828C229.517,203.917,225.986,207.448,220.69,207.448"/>
<path style="fill:#ECBA16;" d="M167.724,242.759H52.966c-5.297,0-8.828-3.531-8.828-8.828s3.531-8.828,8.828-8.828h114.759
	c5.297,0,8.828,3.531,8.828,8.828S173.021,242.759,167.724,242.759"/>
<path style="fill:#42B05C;" d="M220.69,278.069H97.103c-5.297,0-8.828-3.531-8.828-8.828c0-5.297,3.531-8.828,8.828-8.828H220.69
	c5.297,0,8.828,3.531,8.828,8.828C229.517,274.538,225.986,278.069,220.69,278.069"/>
<path style="fill:#DD342E;" d="M61.793,278.069h-8.828c-5.297,0-8.828-3.531-8.828-8.828c0-5.297,3.531-8.828,8.828-8.828h8.828
	c5.297,0,8.828,3.531,8.828,8.828C70.621,274.538,67.09,278.069,61.793,278.069"/>
<path style="fill:#7383BF;" d="M132.414,313.379H52.966c-5.297,0-8.828-3.531-8.828-8.828c0-5.297,3.531-8.828,8.828-8.828h79.448
	c5.297,0,8.828,3.531,8.828,8.828C141.241,309.848,137.71,313.379,132.414,313.379"/>
<path style="fill:#ECBA16;" d="M220.69,313.379h-52.966c-5.297,0-8.828-3.531-8.828-8.828c0-5.297,3.531-8.828,8.828-8.828h52.966
	c5.297,0,8.828,3.531,8.828,8.828C229.517,309.848,225.986,313.379,220.69,313.379"/>
<path style="fill:#42B05C;" d="M167.724,348.69H52.966c-5.297,0-8.828-3.531-8.828-8.828c0-5.297,3.531-8.828,8.828-8.828h114.759
	c5.297,0,8.828,3.531,8.828,8.828C176.552,345.159,173.021,348.69,167.724,348.69"/>
<path style="fill:#7383BF;" d="M220.69,348.69h-17.655c-5.297,0-8.828-3.531-8.828-8.828c0-5.297,3.531-8.828,8.828-8.828h17.655
	c5.297,0,8.828,3.531,8.828,8.828C229.517,345.159,225.986,348.69,220.69,348.69"/>
<path style="fill:#DD342E;" d="M397.241,348.69H282.483c-5.297,0-8.828-3.531-8.828-8.828c0-5.297,3.531-8.828,8.828-8.828h114.759
	c5.297,0,8.828,3.531,8.828,8.828C406.069,345.159,402.538,348.69,397.241,348.69"/>
<g>
	<path style="fill:#7383BF;" d="M450.207,348.69h-17.655c-5.297,0-8.828-3.531-8.828-8.828c0-5.297,3.531-8.828,8.828-8.828h17.655
		c5.297,0,8.828,3.531,8.828,8.828C459.034,345.159,455.503,348.69,450.207,348.69"/>
	<path style="fill:#7383BF;" d="M220.69,242.759h-17.655c-5.297,0-8.828-3.531-8.828-8.828s3.531-8.828,8.828-8.828h17.655
		c5.297,0,8.828,3.531,8.828,8.828S225.986,242.759,220.69,242.759"/>
</g>
<path style="fill:#42B05C;" d="M459.034,207.448c0,48.552-39.724,88.276-88.276,88.276S282.483,256,282.483,207.448
	s39.724-88.276,88.276-88.276S459.034,158.897,459.034,207.448"/>
<path style="fill:#ECBA16;" d="M282.483,207.448c0,2.648,0,6.179,0.883,8.828h87.393v-97.103
	C322.207,119.172,282.483,158.897,282.483,207.448"/>
<g>
</g>
<g>
</g>
<g>
</g>
<g>
</g>
<g>
</g>
<g>
</g>
<g>
</g>
<g>
</g>
<g>
</g>
<g>
</g>
<g>
</g>
<g>
</g>
<g>
</g>
<g>
</g>
<g>
</g>
</svg>
