<?xml version="1.0" encoding="iso-8859-1"?>
<!-- Generator: Adobe Illustrator 19.0.0, SVG Export Plug-In . SVG Version: 6.00 Build 0)  -->
<svg version="1.1" id="Layer_1" xmlns="http://www.w3.org/2000/svg" xmlns:xlink="http://www.w3.org/1999/xlink" x="0px" y="0px"
	 viewBox="0 0 512.883 512.883" style="enable-background:new 0 0 512.883 512.883;" xml:space="preserve">
<path style="fill:#E8EDEE;" d="M0,106.372v386.648c0,10.593,8.828,19.421,19.421,19.421h104.166h264.828h104.166
	c10.593,0,19.421-8.828,19.421-19.421V106.372H0z"/>
<path style="fill:#B1BBBC;" d="M256,512.441H15.89c-8.828,0-15.89-7.062-15.89-15.89V362.372h256V512.441z"/>
<path style="fill:#546A79;" d="M496.993,512.441H256V362.372h256v134.179C512,505.379,504.938,512.441,496.993,512.441"/>
<g>
	<path style="fill:#DD342E;" d="M79.448,468.303c-2.648,0-4.414-0.883-6.179-2.648c-3.531-3.531-3.531-8.828,0-12.359l44.138-44.138
		c3.531-3.531,8.828-3.531,12.359,0c3.531,3.531,3.531,8.828,0,12.359l-44.138,44.138C83.862,467.421,82.097,468.303,79.448,468.303
		"/>
	<path style="fill:#DD342E;" d="M167.724,468.303c-2.648,0-4.414-0.883-6.179-2.648l-44.138-44.138
		c-3.531-3.531-3.531-8.828,0-12.359c3.531-3.531,8.828-3.531,12.359,0l44.138,44.138c3.531,3.531,3.531,8.828,0,12.359
		C172.138,467.421,170.372,468.303,167.724,468.303"/>
</g>
<g>
	<path style="fill:#42B05C;" d="M388.414,468.303c-2.648,0-4.414-0.883-6.179-2.648c-3.531-3.531-3.531-8.828,0-12.359
		l44.138-44.138c3.531-3.531,8.828-3.531,12.359,0c3.531,3.531,3.531,8.828,0,12.359l-44.138,44.138
		C392.828,467.421,391.062,468.303,388.414,468.303"/>
	<path style="fill:#42B05C;" d="M388.414,468.303c-2.648,0-4.414-0.883-6.179-2.648l-44.138-44.138
		c-3.531-3.531-3.531-8.828,0-12.359c3.531-3.531,8.828-3.531,12.359,0l44.138,44.138c3.531,3.531,3.531,8.828,0,12.359
		C392.828,467.421,391.062,468.303,388.414,468.303"/>
</g>
<path style="fill:#7383BF;" d="M158.897,150.51H44.138c-5.297,0-8.828-3.531-8.828-8.828s3.531-8.828,8.828-8.828h114.759
	c5.297,0,8.828,3.531,8.828,8.828S164.193,150.51,158.897,150.51"/>
<path style="fill:#DD342E;" d="M282.483,150.51h-88.276c-5.297,0-8.828-3.531-8.828-8.828s3.531-8.828,8.828-8.828h88.276
	c5.297,0,8.828,3.531,8.828,8.828S287.779,150.51,282.483,150.51"/>
<path style="fill:#42B05C;" d="M467.862,150.51h-97.103c-5.297,0-8.828-3.531-8.828-8.828s3.531-8.828,8.828-8.828h97.103
	c5.297,0,8.828,3.531,8.828,8.828S473.159,150.51,467.862,150.51"/>
<path style="fill:#ECBA16;" d="M335.448,150.51h-17.655c-5.297,0-8.828-3.531-8.828-8.828s3.531-8.828,8.828-8.828h17.655
	c5.297,0,8.828,3.531,8.828,8.828S340.745,150.51,335.448,150.51"/>
<path style="fill:#7383BF;" d="M361.931,185.821H247.172c-5.297,0-8.828-3.531-8.828-8.828s3.531-8.828,8.828-8.828h114.759
	c5.297,0,8.828,3.531,8.828,8.828S367.228,185.821,361.931,185.821"/>
<path style="fill:#42B05C;" d="M211.862,185.821H88.276c-5.297,0-8.828-3.531-8.828-8.828s3.531-8.828,8.828-8.828h123.586
	c5.297,0,8.828,3.531,8.828,8.828S217.159,185.821,211.862,185.821"/>
<path style="fill:#DD342E;" d="M52.966,185.821h-8.828c-5.297,0-8.828-3.531-8.828-8.828s3.531-8.828,8.828-8.828h8.828
	c5.297,0,8.828,3.531,8.828,8.828S58.262,185.821,52.966,185.821"/>
<path style="fill:#ECBA16;" d="M123.586,221.131H44.138c-5.297,0-8.828-3.531-8.828-8.828s3.531-8.828,8.828-8.828h79.448
	c5.297,0,8.828,3.531,8.828,8.828S128.883,221.131,123.586,221.131"/>
<path style="fill:#DD342E;" d="M176.552,221.131h-17.655c-5.297,0-8.828-3.531-8.828-8.828s3.531-8.828,8.828-8.828h17.655
	c5.297,0,8.828,3.531,8.828,8.828S181.848,221.131,176.552,221.131"/>
<g>
	<path style="fill:#42B05C;" d="M335.448,221.131H211.862c-5.297,0-8.828-3.531-8.828-8.828s3.531-8.828,8.828-8.828h123.586
		c5.297,0,8.828,3.531,8.828,8.828S340.745,221.131,335.448,221.131"/>
	<path style="fill:#42B05C;" d="M158.897,256.441H44.138c-5.297,0-8.828-3.531-8.828-8.828s3.531-8.828,8.828-8.828h114.759
		c5.297,0,8.828,3.531,8.828,8.828S164.193,256.441,158.897,256.441"/>
</g>
<path style="fill:#ECBA16;" d="M282.483,256.441h-88.276c-5.297,0-8.828-3.531-8.828-8.828s3.531-8.828,8.828-8.828h88.276
	c5.297,0,8.828,3.531,8.828,8.828S287.779,256.441,282.483,256.441"/>
<path style="fill:#7383BF;" d="M282.483,291.752h-35.31c-5.297,0-8.828-3.531-8.828-8.828s3.531-8.828,8.828-8.828h35.31
	c5.297,0,8.828,3.531,8.828,8.828S287.779,291.752,282.483,291.752"/>
<path style="fill:#DD342E;" d="M211.862,291.752H88.276c-5.297,0-8.828-3.531-8.828-8.828s3.531-8.828,8.828-8.828h123.586
	c5.297,0,8.828,3.531,8.828,8.828S217.159,291.752,211.862,291.752"/>
<path style="fill:#ECBA16;" d="M52.966,291.752h-8.828c-5.297,0-8.828-3.531-8.828-8.828s3.531-8.828,8.828-8.828h8.828
	c5.297,0,8.828,3.531,8.828,8.828S58.262,291.752,52.966,291.752"/>
<path style="fill:#42B05C;" d="M123.586,327.062H44.138c-5.297,0-8.828-3.531-8.828-8.828s3.531-8.828,8.828-8.828h79.448
	c5.297,0,8.828,3.531,8.828,8.828S128.883,327.062,123.586,327.062"/>
<path style="fill:#ECBA16;" d="M176.552,327.062h-17.655c-5.297,0-8.828-3.531-8.828-8.828s3.531-8.828,8.828-8.828h17.655
	c5.297,0,8.828,3.531,8.828,8.828S181.848,327.062,176.552,327.062"/>
<path style="fill:#7383BF;" d="M273.655,327.062h-61.793c-5.297,0-8.828-3.531-8.828-8.828s3.531-8.828,8.828-8.828h61.793
	c5.297,0,8.828,3.531,8.828,8.828S278.952,327.062,273.655,327.062"/>
<path style="fill:#DD342E;" d="M423.724,256.441H317.793c-5.297,0-8.828-3.531-8.828-8.828s3.531-8.828,8.828-8.828h105.931
	c5.297,0,8.828,3.531,8.828,8.828S429.021,256.441,423.724,256.441"/>
<path style="fill:#ECBA16;" d="M467.862,291.752H361.931c-5.297,0-8.828-3.531-8.828-8.828s3.531-8.828,8.828-8.828h105.931
	c5.297,0,8.828,3.531,8.828,8.828S473.159,291.752,467.862,291.752"/>
<path style="fill:#42B05C;" d="M326.621,291.752h-8.828c-5.297,0-8.828-3.531-8.828-8.828s3.531-8.828,8.828-8.828h8.828
	c5.297,0,8.828,3.531,8.828,8.828S331.917,291.752,326.621,291.752"/>
<path style="fill:#DD342E;" d="M467.862,185.821h-26.483c-5.297,0-8.828-3.531-8.828-8.828s3.531-8.828,8.828-8.828h26.483
	c5.297,0,8.828,3.531,8.828,8.828S473.159,185.821,467.862,185.821"/>
<path style="fill:#ECBA16;" d="M406.069,185.821h-8.828c-5.297,0-8.828-3.531-8.828-8.828s3.531-8.828,8.828-8.828h8.828
	c5.297,0,8.828,3.531,8.828,8.828S411.366,185.821,406.069,185.821"/>
<path style="fill:#7383BF;" d="M467.862,256.441h-8.828c-5.297,0-8.828-3.531-8.828-8.828s3.531-8.828,8.828-8.828h8.828
	c5.297,0,8.828,3.531,8.828,8.828S473.159,256.441,467.862,256.441"/>
<path style="fill:#DD342E;" d="M423.724,221.131h-52.966c-5.297,0-8.828-3.531-8.828-8.828s3.531-8.828,8.828-8.828h52.966
	c5.297,0,8.828,3.531,8.828,8.828S429.021,221.131,423.724,221.131"/>
<path style="fill:#ECBA16;" d="M467.862,221.131h-8.828c-5.297,0-8.828-3.531-8.828-8.828s3.531-8.828,8.828-8.828h8.828
	c5.297,0,8.828,3.531,8.828,8.828S473.159,221.131,467.862,221.131"/>
<path style="fill:#DD342E;" d="M397.241,327.062h-97.103c-5.297,0-8.828-3.531-8.828-8.828s3.531-8.828,8.828-8.828h97.103
	c5.297,0,8.828,3.531,8.828,8.828S402.538,327.062,397.241,327.062"/>
<path style="fill:#42B05C;" d="M467.862,327.062h-35.31c-5.297,0-8.828-3.531-8.828-8.828s3.531-8.828,8.828-8.828h35.31
	c5.297,0,8.828,3.531,8.828,8.828S473.159,327.062,467.862,327.062"/>
<path style="fill:#546A79;" d="M512,106.372H0V17.214C0,7.503,7.062,0.441,16.772,0.441H496.11c8.828,0,16.772,7.062,16.772,16.772
	v89.159H512z"/>
<path style="fill:#ED7161;" d="M79.448,53.407c0,15.007-11.476,26.483-26.483,26.483S26.483,68.414,26.483,53.407
	s11.476-26.483,26.483-26.483S79.448,38.4,79.448,53.407"/>
<path style="fill:#ECBA16;" d="M158.897,53.407c0,15.007-11.476,26.483-26.483,26.483c-15.007,0-26.483-11.476-26.483-26.483
	s11.476-26.483,26.483-26.483C147.421,26.924,158.897,38.4,158.897,53.407"/>
<path style="fill:#42B05C;" d="M238.345,53.407c0,15.007-11.476,26.483-26.483,26.483c-15.007,0-26.483-11.476-26.483-26.483
	s11.476-26.483,26.483-26.483C226.869,26.924,238.345,38.4,238.345,53.407"/>
<g>
</g>
<g>
</g>
<g>
</g>
<g>
</g>
<g>
</g>
<g>
</g>
<g>
</g>
<g>
</g>
<g>
</g>
<g>
</g>
<g>
</g>
<g>
</g>
<g>
</g>
<g>
</g>
<g>
</g>
</svg>
