<?xml version="1.0" encoding="iso-8859-1"?>
<!-- Generator: Adobe Illustrator 19.0.0, SVG Export Plug-In . SVG Version: 6.00 Build 0)  -->
<svg version="1.1" id="Layer_1" xmlns="http://www.w3.org/2000/svg" xmlns:xlink="http://www.w3.org/1999/xlink" x="0px" y="0px"
	 viewBox="0 0 512 512" style="enable-background:new 0 0 512 512;" xml:space="preserve">
<g>
	<path style="fill:#DD342E;" d="M85.333,409.6h-76.8c-5.12,0-8.533-3.413-8.533-8.533s3.413-8.533,8.533-8.533h76.8
		c5.12,0,8.533,3.413,8.533,8.533S90.453,409.6,85.333,409.6"/>
	<path style="fill:#DD342E;" d="M358.4,409.6H153.6c-5.12,0-8.533-3.413-8.533-8.533s3.413-8.533,8.533-8.533h204.8
		c5.12,0,8.533,3.413,8.533,8.533S363.52,409.6,358.4,409.6"/>
	<path style="fill:#DD342E;" d="M503.467,409.6h-76.8c-5.12,0-8.533-3.413-8.533-8.533s3.413-8.533,8.533-8.533h76.8
		c5.12,0,8.533,3.413,8.533,8.533S508.587,409.6,503.467,409.6"/>
	<path style="fill:#DD342E;" d="M119.467,375.467c-5.12,0-8.533-3.413-8.533-8.533v-68.267c0-5.12,3.413-8.533,8.533-8.533
		s8.533,3.413,8.533,8.533v68.267C128,372.053,124.587,375.467,119.467,375.467"/>
	<path style="fill:#DD342E;" d="M392.533,375.467c-5.12,0-8.533-3.413-8.533-8.533v-68.267c0-5.12,3.413-8.533,8.533-8.533
		s8.533,3.413,8.533,8.533v68.267C401.067,372.053,397.653,375.467,392.533,375.467"/>
</g>
<path style="fill:#E8EDEE;" d="M216.747,247.467H22.187c-7.68,0-13.653-5.973-13.653-13.653V90.453
	c0-7.68,5.973-13.653,13.653-13.653h194.56c7.68,0,13.653,5.973,13.653,13.653v143.36
	C230.4,241.493,224.427,247.467,216.747,247.467"/>
<path style="fill:#38454F;" d="M42.667,201.387V122.88c0-6.827,5.12-11.947,11.947-11.947H184.32c6.827,0,11.947,5.12,11.947,11.947
	v78.507c0,6.827-5.12,11.947-11.947,11.947H54.613C47.787,213.333,42.667,208.213,42.667,201.387"/>
<path style="fill:#B0B6BB;" d="M159.573,298.667H79.36c-5.973,0-11.093-5.12-11.093-11.093v-40.107h102.4v40.107
	C170.667,293.547,165.547,298.667,159.573,298.667"/>
<path style="fill:#E8EDEE;" d="M489.813,247.467h-194.56c-7.68,0-13.653-5.973-13.653-13.653V90.453
	c0-7.68,5.973-13.653,13.653-13.653h194.56c7.68,0,13.653,5.973,13.653,13.653v143.36
	C503.467,241.493,497.493,247.467,489.813,247.467"/>
<path style="fill:#38454F;" d="M315.733,201.387V122.88c0-6.827,5.12-11.947,11.947-11.947h129.707
	c6.827,0,11.947,5.12,11.947,11.947v78.507c0,6.827-5.12,11.947-11.947,11.947H327.68
	C320.853,213.333,315.733,208.213,315.733,201.387"/>
<path style="fill:#B0B6BB;" d="M432.64,298.667h-81.067c-5.973,0-11.093-5.12-11.093-11.093v-40.107h102.4v40.107
	C443.733,293.547,438.613,298.667,432.64,298.667"/>
<g>
	<path style="fill:#ECBA16;" d="M153.6,401.067c0,18.773-15.36,34.133-34.133,34.133s-34.133-15.36-34.133-34.133
		s15.36-34.133,34.133-34.133S153.6,382.293,153.6,401.067"/>
	<path style="fill:#ECBA16;" d="M426.667,401.067c0,18.773-15.36,34.133-34.133,34.133S358.4,419.84,358.4,401.067
		s15.36-34.133,34.133-34.133S426.667,382.293,426.667,401.067"/>
</g>
<g>
</g>
<g>
</g>
<g>
</g>
<g>
</g>
<g>
</g>
<g>
</g>
<g>
</g>
<g>
</g>
<g>
</g>
<g>
</g>
<g>
</g>
<g>
</g>
<g>
</g>
<g>
</g>
<g>
</g>
</svg>
