<?xml version="1.0" encoding="iso-8859-1"?>
<!-- Generator: Adobe Illustrator 19.0.0, SVG Export Plug-In . SVG Version: 6.00 Build 0)  -->
<svg version="1.1" id="Layer_1" xmlns="http://www.w3.org/2000/svg" xmlns:xlink="http://www.w3.org/1999/xlink" x="0px" y="0px"
	 viewBox="0 0 512 512" style="enable-background:new 0 0 512 512;" xml:space="preserve">
<path style="fill:#38454F;" d="M415.779,512H96.221c-14.124,0-25.6-11.476-25.6-26.483V26.483C70.621,12.359,82.097,0,96.221,0
	h319.559c14.124,0,25.6,11.476,25.6,26.483v459.034C441.379,500.524,429.903,512,415.779,512"/>
<path style="fill:#546A79;" d="M70.621,441.379h370.759V52.966H70.621V441.379z"/>
<path style="fill:#B0B6BB;" d="M291.31,476.69c0,15.007-11.476,26.483-26.483,26.483c-15.007,0-26.483-11.476-26.483-26.483
	c0-15.007,11.476-26.483,26.483-26.483C279.835,450.207,291.31,461.683,291.31,476.69"/>
<g>
	<path style="fill:#7383BF;" d="M238.345,273.655c-0.883,0-2.648,0-3.531-0.883l-61.793-26.483
		c-4.414-1.766-6.179-7.062-4.414-11.476s7.062-6.179,11.476-4.414l61.793,26.483c4.414,1.766,6.179,7.062,4.414,11.476
		C245.407,271.89,241.876,273.655,238.345,273.655"/>
	<path style="fill:#7383BF;" d="M282.483,273.655c-2.648,0-5.297-0.883-7.062-3.531c-2.648-3.531-2.648-9.71,1.766-12.359
		l63.559-56.497c3.531-2.648,9.71-2.648,12.359,1.766c2.648,3.531,2.648,9.71-1.766,12.359l-63.559,56.497
		C286.014,272.772,284.248,273.655,282.483,273.655"/>
</g>
<path style="fill:#ECBA16;" d="M203.034,114.759h-44.138c-5.297,0-8.828-3.531-8.828-8.828c0-5.297,3.531-8.828,8.828-8.828h44.138
	c5.297,0,8.828,3.531,8.828,8.828C211.862,111.228,208.331,114.759,203.034,114.759"/>
<path style="fill:#42B05C;" d="M123.586,114.759h-8.828c-5.297,0-8.828-3.531-8.828-8.828c0-5.297,3.531-8.828,8.828-8.828h8.828
	c5.297,0,8.828,3.531,8.828,8.828C132.414,111.228,128.883,114.759,123.586,114.759"/>
<path style="fill:#DD342E;" d="M150.069,150.069h-35.31c-5.297,0-8.828-3.531-8.828-8.828s3.531-8.828,8.828-8.828h35.31
	c5.297,0,8.828,3.531,8.828,8.828S155.366,150.069,150.069,150.069"/>
<path style="fill:#7383BF;" d="M203.034,150.069h-17.655c-5.297,0-8.828-3.531-8.828-8.828s3.531-8.828,8.828-8.828h17.655
	c5.297,0,8.828,3.531,8.828,8.828S208.331,150.069,203.034,150.069"/>
<path style="fill:#ECBA16;" d="M397.241,361.931h-44.138c-5.297,0-8.828-3.531-8.828-8.828s3.531-8.828,8.828-8.828h44.138
	c5.297,0,8.828,3.531,8.828,8.828S402.538,361.931,397.241,361.931"/>
<path style="fill:#42B05C;" d="M317.793,361.931h-8.828c-5.297,0-8.828-3.531-8.828-8.828s3.531-8.828,8.828-8.828h8.828
	c5.297,0,8.828,3.531,8.828,8.828S323.09,361.931,317.793,361.931"/>
<path style="fill:#DD342E;" d="M344.276,397.241h-35.31c-5.297,0-8.828-3.531-8.828-8.828s3.531-8.828,8.828-8.828h35.31
	c5.297,0,8.828,3.531,8.828,8.828S349.572,397.241,344.276,397.241"/>
<path style="fill:#7383BF;" d="M397.241,397.241h-17.655c-5.297,0-8.828-3.531-8.828-8.828s3.531-8.828,8.828-8.828h17.655
	c5.297,0,8.828,3.531,8.828,8.828S402.538,397.241,397.241,397.241"/>
<path style="fill:#42B05C;" d="M176.552,229.517c0,15.007-11.476,26.483-26.483,26.483s-26.483-11.476-26.483-26.483
	c0-15.007,11.476-26.483,26.483-26.483S176.552,214.51,176.552,229.517"/>
<path style="fill:#DD342E;" d="M291.31,273.655c0,15.007-11.476,26.483-26.483,26.483c-15.007,0-26.483-11.476-26.483-26.483
	c0-15.007,11.476-26.483,26.483-26.483C279.835,247.172,291.31,258.648,291.31,273.655"/>
<path style="fill:#ECBA16;" d="M388.414,203.034c0,15.007-11.476,26.483-26.483,26.483s-26.483-11.476-26.483-26.483
	c0-15.007,11.476-26.483,26.483-26.483S388.414,188.028,388.414,203.034"/>
<g>
</g>
<g>
</g>
<g>
</g>
<g>
</g>
<g>
</g>
<g>
</g>
<g>
</g>
<g>
</g>
<g>
</g>
<g>
</g>
<g>
</g>
<g>
</g>
<g>
</g>
<g>
</g>
<g>
</g>
</svg>
