<?xml version="1.0" encoding="iso-8859-1"?>
<!-- Generator: Adobe Illustrator 19.0.0, SVG Export Plug-In . SVG Version: 6.00 Build 0)  -->
<svg version="1.1" id="Layer_1" xmlns="http://www.w3.org/2000/svg" xmlns:xlink="http://www.w3.org/1999/xlink" x="0px" y="0px"
	 viewBox="0 0 512 512" style="enable-background:new 0 0 512 512;" xml:space="preserve">
<g transform="translate(1 1)">
	<path style="fill:#7383BF;" d="M299.138,405.069c0-58.262,47.669-105.931,105.931-105.931c33.545,0,62.676,15.89,82.097,39.724
		c9.71-26.483,15.007-54.731,15.007-83.862C502.172,118.172,391.828,7.828,255,7.828S7.828,118.172,7.828,255
		S118.172,502.172,255,502.172c29.131,0,57.379-5.297,83.862-15.007C315.028,467.745,299.138,438.614,299.138,405.069"/>
	<g>
		<path style="fill:#434C6D;" d="M255,511C113.759,511-1,396.241-1,255S113.759-1,255-1s256,114.759,256,256
			c0,30.014-5.297,59.145-15.007,86.51l-5.297,15.007l-9.71-12.359c-18.538-22.952-46.786-36.193-75.917-36.193
			c-53.848,0-97.103,43.255-97.103,97.103c0,29.131,13.241,57.379,36.193,75.917l12.359,9.71l-15.007,5.297
			C314.145,505.703,285.014,511,255,511z M255,16.655C123.469,16.655,16.655,123.469,16.655,255S123.469,493.345,255,493.345
			c22.952,0,45.021-3.531,67.09-9.71c-20.303-21.186-31.779-48.552-31.779-78.566c0-63.559,51.2-114.759,114.759-114.759
			c30.014,0,57.379,11.476,78.566,31.779c6.179-21.186,9.71-44.138,9.71-67.09C493.345,123.469,386.531,16.655,255,16.655z"/>
		<path style="fill:#434C6D;" d="M255,511c-5.297,0-8.828-3.531-8.828-8.828V7.828C246.172,2.531,249.703-1,255-1
			c5.297,0,8.828,3.531,8.828,8.828v494.345C263.828,507.469,260.297,511,255,511z"/>
		<path style="fill:#434C6D;" d="M255,511c-0.883,0-2.648,0-3.531,0h-5.297l-2.648-1.766
			C166.724,446.559,122.586,353.869,122.586,255S166.724,63.441,243.524,0.766L246.172-1h5.297c0.883,0,2.648,0,3.531,0
			c5.297,0,8.828,3.531,8.828,8.828s-3.531,8.828-8.828,8.828c-0.883,0-1.766,0-2.648,0C180.848,75.8,140.241,162.31,140.241,255
			s40.607,179.2,112.11,238.345c0.883,0,1.766,0,2.648,0c5.297,0,8.828,3.531,8.828,8.828S260.297,511,255,511z"/>
		<path style="fill:#434C6D;" d="M255,149.069c-66.207,0-129.766-19.421-184.497-56.497c-3.531-3.531-4.414-8.828-1.766-12.359
			c2.648-4.414,7.945-5.297,12.359-2.648c51.2,35.31,112.11,53.848,173.903,53.848s122.703-18.538,173.903-53.848
			c4.414-2.648,9.71-1.766,12.359,2.648c2.648,4.414,1.766,9.71-2.648,12.359C384.766,129.648,321.207,149.069,255,149.069z"/>
		<path style="fill:#434C6D;" d="M70.503,428.903c-2.648,0-5.297-0.883-7.062-3.531c-2.648-3.531-1.766-9.71,1.766-12.359
			c56.497-39.724,121.821-60.91,189.793-60.91c5.297,0,8.828,3.531,8.828,8.828s-3.531,8.828-8.828,8.828
			c-64.441,0-126.234,19.421-179.2,57.379C74.034,428.021,72.269,428.903,70.503,428.903z"/>
		<path style="fill:#434C6D;" d="M375.938,307.966L375.938,307.966c-5.297-0.883-8.828-5.297-8.828-9.71
			c1.766-14.124,2.648-28.248,2.648-43.255c0-92.69-40.607-179.2-112.11-238.345c-0.883,0-1.766,0-2.648,0
			c-5.297,0-8.828-3.531-8.828-8.828S249.703-1,255-1c1.766,0,2.648,0,4.414,0l4.414,0l2.648,1.766
			C343.276,63.441,387.414,156.131,387.414,255c0,15.007-0.883,30.014-3.531,45.021
			C383.883,304.434,379.469,307.966,375.938,307.966z"/>
		<path style="fill:#434C6D;" d="M502.172,263.828H7.828C2.531,263.828-1,260.297-1,255c0-5.297,3.531-8.828,8.828-8.828h494.345
			c5.297,0,8.828,3.531,8.828,8.828C511,260.297,507.469,263.828,502.172,263.828z"/>
	</g>
	<path style="fill:#ED7161;" d="M511,405.069C511,463.331,463.331,511,405.069,511s-105.931-47.669-105.931-105.931
		s47.669-105.931,105.931-105.931S511,346.807,511,405.069"/>
	<path style="fill:#FFFFFF;" d="M417.428,405.069l30.897-30.897c3.531-3.531,3.531-8.828,0-12.359
		c-3.531-3.531-8.828-3.531-12.359,0l-30.897,30.897l-30.897-31.779c-3.531-3.531-8.828-3.531-12.359,0s-3.531,8.828,0,12.359
		l30.897,30.897l-30.897,30.897c-3.531,3.531-3.531,8.828,0,12.359c1.766,1.766,4.414,2.648,6.179,2.648
		c1.766,0,4.414-0.883,6.179-2.648l30.897-30.897l30.897,30.897c1.766,1.766,4.414,2.648,6.179,2.648
		c2.648,0,4.414-0.883,6.179-2.648c3.531-3.531,3.531-8.828,0-12.359L417.428,405.069z"/>
</g>
<g>
</g>
<g>
</g>
<g>
</g>
<g>
</g>
<g>
</g>
<g>
</g>
<g>
</g>
<g>
</g>
<g>
</g>
<g>
</g>
<g>
</g>
<g>
</g>
<g>
</g>
<g>
</g>
<g>
</g>
</svg>
