<?xml version="1.0" encoding="iso-8859-1"?>
<!-- Generator: Adobe Illustrator 19.0.0, SVG Export Plug-In . SVG Version: 6.00 Build 0)  -->
<svg version="1.1" id="Layer_1" xmlns="http://www.w3.org/2000/svg" xmlns:xlink="http://www.w3.org/1999/xlink" x="0px" y="0px"
	 viewBox="0 0 512 512" style="enable-background:new 0 0 512 512;" xml:space="preserve">
<g transform="translate(1 1)">
	<path style="fill:#7383BF;" d="M316.793,413.897c0-53.848,43.255-97.103,97.103-97.103c27.366,0,52.966,11.476,70.621,30.014
		c11.476-28.248,17.655-60.028,17.655-91.807C502.172,118.172,391.828,7.828,255,7.828S7.828,118.172,7.828,255
		S118.172,502.172,255,502.172c32.662,0,63.559-6.179,91.807-17.655C328.269,466.862,316.793,441.262,316.793,413.897"/>
	<g>
		<path style="fill:#434C6D;" d="M255,511C113.759,511-1,396.241-1,255S113.759-1,255-1s256,114.759,256,256
			c0,32.662-6.179,65.324-18.538,95.338c-0.883,2.648-3.531,4.414-6.179,5.297c-2.648,0.883-6.179,0-7.945-2.648
			c-16.772-17.655-39.724-27.366-64.441-27.366c-48.552,0-88.276,39.724-88.276,88.276c0,24.717,9.71,46.786,27.366,64.441
			c1.766,1.766,3.531,5.297,2.648,7.945c-0.883,2.648-2.648,5.297-5.297,6.179C320.324,504.821,287.662,511,255,511z M255,16.655
			C123.469,16.655,16.655,123.469,16.655,255S123.469,493.345,255,493.345c26.483,0,52.083-4.414,76.8-12.359
			c-15.89-19.421-23.835-42.372-23.835-67.09c0-58.262,47.669-105.931,105.931-105.931c24.717,0,47.669,7.945,67.09,23.835
			c8.828-24.717,12.359-50.317,12.359-76.8C493.345,123.469,386.531,16.655,255,16.655z"/>
		<path style="fill:#434C6D;" d="M255,511c-5.297,0-8.828-3.531-8.828-8.828V7.828C246.172,2.531,249.703-1,255-1
			c5.297,0,8.828,3.531,8.828,8.828v494.345C263.828,507.469,260.297,511,255,511z"/>
		<path style="fill:#434C6D;" d="M255,511c-0.883,0-2.648,0-3.531,0h-5.297l-2.648-1.766
			C166.724,446.559,122.586,353.869,122.586,255S166.724,63.441,243.524,0.766L246.172-1h5.297c0.883,0,2.648,0,3.531,0
			c5.297,0,8.828,3.531,8.828,8.828s-3.531,8.828-8.828,8.828c-0.883,0-1.766,0-2.648,0C180.848,75.8,140.241,162.31,140.241,255
			s40.607,179.2,112.11,238.345c0.883,0,1.766,0,2.648,0c5.297,0,8.828,3.531,8.828,8.828S260.297,511,255,511z"/>
		<path style="fill:#434C6D;" d="M255,149.069c-66.207,0-129.766-19.421-184.497-56.497c-3.531-3.531-4.414-8.828-1.766-12.359
			c2.648-4.414,7.945-5.297,12.359-2.648c51.2,35.31,112.11,53.848,173.903,53.848s122.703-18.538,173.903-53.848
			c4.414-2.648,9.71-1.766,12.359,2.648c2.648,4.414,1.766,9.71-2.648,12.359C384.766,129.648,321.207,149.069,255,149.069z"/>
		<path style="fill:#434C6D;" d="M70.503,428.903c-2.648,0-5.297-0.883-7.062-3.531c-2.648-3.531-1.766-9.71,1.766-12.359
			c56.497-39.724,121.821-60.91,189.793-60.91c5.297,0,8.828,3.531,8.828,8.828s-3.531,8.828-8.828,8.828
			c-64.441,0-126.234,19.421-179.2,57.379C74.034,428.021,72.269,428.903,70.503,428.903z"/>
		<path style="fill:#434C6D;" d="M369.759,334.448c-0.883,0-1.766,0-1.766,0c-4.414-0.883-7.945-6.179-6.179-10.593
			c6.179-25.6,8.828-45.021,8.828-68.855c0-92.69-40.607-179.2-112.11-238.345c-0.883,0-1.766,0-2.648,0
			c-5.297,0-8.828-3.531-8.828-8.828S250.586-1,255.883-1c0.883,0,2.648,0,3.531,0h4.414l2.648,1.766
			C343.276,63.441,387.414,156.131,387.414,255c0,24.717-2.648,45.903-8.828,72.386C377.703,331.8,374.172,334.448,369.759,334.448z
			"/>
		<path style="fill:#434C6D;" d="M502.172,263.828H7.828C2.531,263.828-1,260.297-1,255c0-5.297,3.531-8.828,8.828-8.828h494.345
			c5.297,0,8.828,3.531,8.828,8.828C511,260.297,507.469,263.828,502.172,263.828z"/>
	</g>
	<path style="fill:#66BFA1;" d="M511,413.897C511,467.745,467.745,511,413.897,511s-97.103-43.255-97.103-97.103
		s43.255-97.103,97.103-97.103S511,360.048,511,413.897"/>
	<path style="fill:#FFFFFF;" d="M466.862,405.069h-44.138v-44.138c0-5.297-3.531-8.828-8.828-8.828s-8.828,3.531-8.828,8.828v52.966
		c0,5.297,3.531,8.828,8.828,8.828h52.966c5.297,0,8.828-3.531,8.828-8.828S472.159,405.069,466.862,405.069"/>
</g>
<g>
</g>
<g>
</g>
<g>
</g>
<g>
</g>
<g>
</g>
<g>
</g>
<g>
</g>
<g>
</g>
<g>
</g>
<g>
</g>
<g>
</g>
<g>
</g>
<g>
</g>
<g>
</g>
<g>
</g>
</svg>
