<svg id="Capa_1" enable-background="new 0 0 512 512" height="512" viewBox="0 0 512 512" width="512" xmlns="http://www.w3.org/2000/svg"><path d="m191.42 394.109c-17.464 0-31.622-14.157-31.622-31.622v-330.865c.001-17.47 14.162-31.622 31.622-31.622h140.116c24.089 0 151.281 127.191 151.281 151.277v211.211c0 17.464-14.158 31.622-31.622 31.622h-259.775z" fill="#f6f1f1"/><path d="m255.788 91.121h-22.43c-4.267 0-7.726-3.459-7.726-7.726s3.459-7.726 7.726-7.726h22.43c4.267 0 7.726 3.459 7.726 7.726s-3.459 7.726-7.726 7.726z" fill="#da4a54"/><path d="m399.901 93.859h-107.511c-4.267 0-7.726-3.459-7.726-7.726s3.459-7.726 7.726-7.726h107.512c4.267 0 7.726 3.459 7.726 7.726s-3.46 7.726-7.727 7.726z" fill="#665e66"/><path d="m255.788 144.22h-22.43c-4.267 0-7.726-3.459-7.726-7.726s3.459-7.726 7.726-7.726h22.43c4.267 0 7.726 3.459 7.726 7.726s-3.459 7.726-7.726 7.726z" fill="#da4a54"/><path d="m409.258 146.96h-116.873c-4.267 0-7.726-3.459-7.726-7.726s3.459-7.726 7.726-7.726h116.873c4.267 0 7.726 3.459 7.726 7.726s-3.459 7.726-7.726 7.726z" fill="#665e66"/><path d="m255.788 197.319h-22.43c-4.267 0-7.726-3.459-7.726-7.726s3.459-7.726 7.726-7.726h22.43c4.267 0 7.726 3.459 7.726 7.726.001 4.267-3.459 7.726-7.726 7.726z" fill="#da4a54"/><path d="m409.258 200.059h-116.873c-4.267 0-7.726-3.459-7.726-7.726s3.459-7.726 7.726-7.726h116.873c4.267 0 7.726 3.459 7.726 7.726s-3.459 7.726-7.726 7.726z" fill="#665e66"/><path d="m255.788 250.418h-22.43c-4.267 0-7.726-3.459-7.726-7.726s3.459-7.726 7.726-7.726h22.43c4.267 0 7.726 3.459 7.726 7.726.001 4.266-3.459 7.726-7.726 7.726z" fill="#da4a54"/><path d="m409.258 253.158h-116.873c-4.267 0-7.726-3.459-7.726-7.726s3.459-7.726 7.726-7.726h116.873c4.267 0 7.726 3.459 7.726 7.726s-3.459 7.726-7.726 7.726z" fill="#665e66"/><path d="m255.787 303.52h-15.576c-4.267 0-7.726-3.459-7.726-7.726s3.459-7.726 7.726-7.726h15.576c4.267 0 7.726 3.459 7.726 7.726.001 4.267-3.459 7.726-7.726 7.726z" fill="#da4a54"/><path d="m409.258 306.258h-116.873c-4.267 0-7.726-3.459-7.726-7.726s3.459-7.726 7.726-7.726h116.873c4.267 0 7.726 3.459 7.726 7.726 0 4.266-3.459 7.726-7.726 7.726z" fill="#665e66"/><path d="m482.817 151.281v13.376c0-28.162-22.836-50.998-50.998-50.998h-31.039c-17.461 0-31.622-14.161-31.622-31.622v-31.039c0-28.162-22.836-50.998-50.998-50.998h13.376c24.085 0 47.192 9.57 64.222 26.6l60.458 60.458c17.031 17.031 26.601 40.137 26.601 64.223z" fill="#c6beb9"/><path d="m216.138 511.996h-162.884c-13.294 0-24.071-10.777-24.071-24.071v-196.839c0-13.294 10.777-24.071 24.071-24.071h162.884c13.294 0 24.071 10.777 24.071 24.071v196.839c0 13.294-10.777 24.071-24.071 24.071z" fill="#8078bc"/><path d="m64.559 512h-11.311c-13.289 0-24.065-10.776-24.065-24.075v-196.835c0-13.289 10.776-24.075 24.065-24.075h11.311c-13.3 0-24.075 10.786-24.075 24.075v196.835c0 13.299 10.776 24.075 24.075 24.075z" fill="#5e54ac"/><path d="m199.822 475.894h-130.251c-6.034 0-10.926-4.892-10.926-10.926v-152.77c0-6.034 4.892-10.926 10.926-10.926h130.251c6.034 0 10.926 4.892 10.926 10.926v152.77c0 6.034-4.892 10.926-10.926 10.926z" fill="#f6f1f1"/><path d="m215.306 353.58v-16.379h-161.219v16.379h44.825v29.893h-44.825v16.379h44.825v29.893h-44.825v16.379h44.825v38.083h16.379v-38.083h38.814v38.083h16.379v-38.083h44.823v-16.379h-44.823v-29.893h44.823v-16.379h-44.823v-29.893zm-61.202 76.165h-38.814v-29.893h38.814zm0-46.272h-38.814v-29.893h38.814z" fill="#8078bc"/></svg>