<svg id="Capa_1" enable-background="new 0 0 512 512" height="512" viewBox="0 0 512 512" width="512" xmlns="http://www.w3.org/2000/svg"><path d="m512 470.041h-333.34c17.163-17.163 16.642-54.087 16.642-119.622 0-65.025 25.599-134.773 147.129-135.868.959-.011 1.929-.011 2.899-.011 124.022 0 150.028 70.343 150.028 135.878s-.521 102.459 16.642 119.623z" fill="#665e66"/><path d="m257.219 470.041h-78.559c17.163-17.163 16.642-54.087 16.642-119.622 0-65.025 25.599-134.773 147.129-135.868.959-.011 1.929-.011 2.899-.011-46.203 0-89.779 151.864-88.111 255.501z" fill="#454045"/><path d="m452.627 423.274c-1.575 30.959-26.35 55.609-57.329 57.069-24.369 1.147-48.737 1.46-73.116.928-.031 0-.073 0-.104-.01-8.905-.188-17.81-.5-26.715-.918-30.969-1.46-55.744-26.11-57.329-57.069-1.137-22.064-1.251-44.118-.375-66.182h.01s25.453-1.293 57.59-8.53c28.56-6.423 62.397-17.549 88.33-36.631 0 0 27.048 45.161 69.415 45.161.885 22.064.759 44.118-.377 66.182z" fill="#f1d0a5"/><path d="m322.077 481.26c-8.905-.188-17.81-.5-26.715-.918-30.969-1.46-55.744-26.11-57.329-57.069-1.137-22.064-1.251-44.118-.375-66.182h.01s25.453-1.293 57.59-8.53v.01c-7.174 61.523.083 131.584 26.819 132.689z" fill="#f1b986"/><path d="m345.333 435.957c-12.352 0-23.756-7.212-29.053-18.373-1.849-3.894-.19-8.549 3.704-10.397 3.895-1.849 8.55-.189 10.397 3.704 2.727 5.744 8.596 9.456 14.952 9.456s12.225-3.712 14.952-9.456c1.849-3.894 6.503-5.553 10.397-3.704 3.894 1.848 5.553 6.503 3.704 10.397-5.297 11.161-16.701 18.373-29.053 18.373z" fill="#da4a54"/><path d="m295.263 362.955c-5.418 0-9.826 6.553-9.826 14.608s4.408 14.608 9.826 14.608 9.825-6.553 9.825-14.608-4.408-14.608-9.825-14.608z" fill="#454045"/><path d="m395.403 362.955c-5.418 0-9.825 6.553-9.825 14.608s4.408 14.608 9.825 14.608c5.418 0 9.826-6.553 9.826-14.608s-4.408-14.608-9.826-14.608z" fill="#454045"/><ellipse cx="412.255" cy="407.629" fill="#eaac9d" rx="15.951" ry="10.056"/><ellipse cx="278.409" cy="407.629" fill="#eaac9d" rx="15.951" ry="10.056"/><path d="m250.273 359.523-159.717.684-79.311.334c-6.046-55.203-23.595-126.894 40.879-139.671 15.479-3.07 29.419-4.892 41.947-5.747 83.921-5.696 104.796 32.198 104.796 32.198s15.188-13.341 31.702-11.981c5.969.487 12.118 2.908 17.78 8.569 29.863 29.864 1.924 115.614 1.924 115.614z" fill="#aa593d"/><path d="m230.569 235.34c-19.618 13.478-32.455 53.809-38.398 76.797-5.815-23.415 1.291-49.191 6.696-64.815 0-.001 15.189-13.342 31.702-11.982z" fill="#934d36"/><path d="m81.714 300.711 8.843 59.496-79.311.334c-6.047-55.203-23.596-126.894 40.878-139.671 15.479-3.07 29.419-4.892 41.947-5.747 0 .009-.009.009-.009.009-32.283 19.857-22.311 55.228-12.348 85.579z" fill="#934d36"/><path d="m24.018 357.099h97.561v47.027h-98.06c-12.998 0-23.519-10.532-23.519-23.518 0-12.988 10.521-23.519 23.519-23.519.166 0 .333 0 .499.01z" fill="#f1b986"/><path d="m263.368 380.608c0 12.987-10.521 23.518-23.508 23.518h-94.741v-47.027h94.231c.166-.01.333-.01.51-.01 12.987 0 23.508 10.531 23.508 23.519z" fill="#f1d0a5"/><path d="m239.934 386.12c0 12.383-.316 24.775-.949 37.158-1.582 30.958-26.357 55.605-57.332 57.067-21.654 1.026-43.316 1.377-64.969 1.069h-.009c-11.656-.163-23.304-.522-34.96-1.069-30.967-1.462-55.742-26.109-57.332-57.067-1.129-22.064-1.249-44.12-.368-66.184h.009c12.075-4.473 19.259-18.378 23.527-33.84 4.379-15.864 19.575-24.536 34.165-22.543 5.687.778 11.289 3.181 16.112 7.406 9.689 8.484 21.773 12.725 33.857 12.725s24.176-4.242 33.866-12.725c6.003-5.259 13.196-7.688 20.277-7.688 13.213 0 26.032 8.466 30 22.825 4.259 15.462 11.443 29.367 23.527 33.84.391 9.681.579 19.354.579 29.026z" fill="#f1d0a5"/><path d="m116.674 481.415c-11.656-.163-23.304-.522-34.96-1.069-30.967-1.462-55.742-26.109-57.332-57.067-1.129-22.064-1.249-44.12-.368-66.184h.009c12.075-4.473 19.259-18.378 23.527-33.84 4.379-15.864 19.575-24.536 34.165-22.543-11.076 98.886-.001 179.617 34.959 180.703z" fill="#f1b986"/><ellipse cx="81.615" cy="372.35" fill="#454045" rx="9.826" ry="14.608"/><path d="m181.757 357.741c-5.418 0-9.826 6.553-9.826 14.608s4.408 14.608 9.826 14.608 9.825-6.553 9.825-14.608-4.408-14.608-9.825-14.608z" fill="#454045"/><path d="m78.977 442.651h26.174c14.653 0 26.532-11.879 26.532-26.532v-10.224h-26.174c-14.653 0-26.532 11.879-26.532 26.532z" fill="#934d36"/><path d="m184.389 442.651h-26.174c-14.653 0-26.532-11.879-26.532-26.532v-10.224h26.174c14.653 0 26.532 11.879 26.532 26.532z" fill="#aa593d"/><path d="m329.856 96.045c0 45.265-53.659 89.529-100.248 113.344-13.441-6.851-27.445-15.422-40.583-25.224-32.492-24.17-59.665-55.901-59.665-88.121 0-35.891 24.494-65.035 54.858-65.557.271-.011.553-.011.834-.011 24.608 0 44.556 23.493 44.556 52.45 0-28.957 19.947-52.45 44.545-52.45 17.987 0 33.962 10.021 44.139 25.578 7.268 11.076 11.564 24.944 11.564 39.991z" fill="#da4a54"/><path d="m229.608 209.389c-13.441-6.851-27.445-15.422-40.583-25.224-32.492-24.17-59.665-55.901-59.665-88.121 0-35.891 24.494-65.035 54.858-65.557-47.862 1.534-21.564 134.44 45.39 178.902z" fill="#c32430"/></svg>