<svg id="Capa_1" enable-background="new 0 0 512 512" height="512" viewBox="0 0 512 512" width="512" xmlns="http://www.w3.org/2000/svg"><path d="m54.586 418.305s-24.268 7.232-32.594-1.094 0-29.684 0-29.684l41.228-16.871z" fill="#f1b986"/><path d="m355.103 322.21s38.365-33.669 92.492-11.744l-72.654 36.738-13.822-2.552z" fill="#f6e266"/><circle cx="482.321" cy="482.321" fill="#665e66" r="29.679"/><circle cx="324.735" cy="482.321" fill="#665e66" r="29.679"/><circle cx="324.735" cy="482.321" fill="#eadfda" r="19.594"/><circle cx="482.321" cy="482.321" fill="#eadfda" r="19.594"/><path d="m328.432 303.728c0 23.447-28.546 19.656-46.544 1.659l-9.154-7.912 7.444-14.278s35.953-2.174 45.781 12.311c1.566 2.297 2.473 5.016 2.473 8.22z" fill="#f1d0a5"/><path d="m194.208 260.045c41.606 14.279 85.97 23.153 85.97 23.153l1.707 22.187c-26.283 15.815-96.604 8.369-96.604 8.369s15.251 24.286 18.546 56.902l1.347 16.87s5.12 58.381-11.264 100.366h-51.201s12.84-59.522-12.607-84.969c-25.447 25.447-12.607 84.969-12.607 84.969h-51.203c-16.384-41.985-11.264-100.366-11.264-100.366h-33.036c0-92.374 37.505-122.883 44.003-127.479" fill="#b9e4ef"/><path d="m55.033 387.521c0-5.779.544-11.527 1.345-16.865 2.32-15.448 6.846-27.519 6.846-27.519l4.473 40.635" fill="#7ad0df"/><path d="m122.377 318.983h15.453v61.981h-15.453z" fill="#7ad0df"/><path d="m193.913 487.888-3.74 8.181-47.46-8.181s12.831-59.514-12.615-84.97c-25.446 25.456-12.605 84.97-12.605 84.97l-37.287 9.209-13.913-9.209c-16.382-41.982-11.26-100.367-11.26-100.367 0-5.779.544-11.527 1.345-16.865h147.451l1.345 16.865c-.001 0 5.121 58.385-11.261 100.367z" fill="#665e66"/><path d="m83.515 260.045c-15.264 20.601-43.07 66.597-42.341 127.476h-19.185c0-92.371 37.507-122.877 44.004-127.476z" fill="#7ad0df"/><path d="m81.441 487.888-12.534 6.132-2.627-6.132c-16.382-41.982-11.26-100.367-11.26-100.367 0-5.779.544-11.527 1.345-16.865h24.296c-5.153 19.277-11.527 59.299.78 117.232z" fill="#454045"/><path d="m156.065 487.888h-13.365s12.841-59.514-12.605-84.97c25.97 0 39.324 44.713 25.97 84.97z" fill="#454045"/><path d="m146.597 291.167h-32.992l-5.841-39.616h44.674z" fill="#c32430"/><path d="m247.261 143.239-157.795.676-78.357.33c-5.972-54.54-23.31-125.368 40.388-137.991 15.293-3.033 29.065-4.833 41.443-5.678 82.911-5.627 103.535 31.811 103.535 31.811s15.006-13.181 31.321-11.837c5.897.482 11.972 2.873 17.566 8.466 29.502 29.504 1.899 114.223 1.899 114.223z" fill="#aa593d"/><path d="m227.795 20.55c-19.382 13.316-32.064 53.161-37.936 75.873-5.745-23.134 1.276-48.599 6.616-64.035-.001-.001 15.004-13.182 31.32-11.838z" fill="#934d36"/><path d="m80.73 85.134 8.736 58.78-78.357.33c-5.972-54.539-23.31-125.367 40.388-137.99 15.293-3.033 29.065-4.833 41.443-5.678 0 .008-.008.008-.008.008-31.896 19.619-22.045 54.565-12.202 84.55z" fill="#934d36"/><path d="m236.82 187.303h.149c12.833 0 23.232-10.407 23.232-23.232 0-12.833-10.399-23.241-23.232-23.241-.167 0-.334 0-.501.009h-212.735c-.167-.009-.334-.009-.501-.009-12.833 0-23.232 10.407-23.232 23.241 0 12.825 10.399 23.232 23.232 23.232h.149" fill="#f1b986"/><path d="m237.046 169.515c0 12.234-.313 24.477-.938 36.711-1.563 30.586-26.04 54.936-56.642 56.381-21.393 1.014-42.794 1.36-64.188 1.056h-.008c-11.516-.161-23.024-.515-34.54-1.056-30.594-1.445-55.071-25.795-56.642-56.381-1.115-21.799-1.234-43.589-.363-65.387h.008c11.93-4.419 19.027-18.157 23.243-33.433 4.326-15.673 19.34-24.24 33.754-22.272 5.619.769 11.153 3.143 15.918 7.317 9.573 8.381 21.511 12.572 33.45 12.572s23.885-4.191 33.458-12.572c5.931-5.196 13.037-7.596 20.033-7.596 13.054 0 25.719 8.365 29.639 22.551 4.208 15.276 11.305 29.014 23.243 33.433.389 9.564.575 19.12.575 28.676z" fill="#f1d0a5"/><path d="m115.27 263.663c-11.516-.161-23.024-.515-34.54-1.056-30.594-1.445-55.071-25.795-56.642-56.381-1.115-21.799-1.234-43.589-.363-65.387h.008c11.93-4.419 19.027-18.157 23.243-33.433 4.326-15.673 19.34-24.24 33.754-22.272-10.941 97.697 0 177.456 34.54 178.529z" fill="#f1b986"/><path d="m80.633 141.477c-5.352 0-9.707 6.475-9.707 14.433s4.355 14.433 9.707 14.433c5.353 0 9.708-6.475 9.708-14.433s-4.355-14.433-9.708-14.433z" fill="#454045"/><path d="m179.569 141.477c-5.353 0-9.708 6.475-9.708 14.433s4.355 14.433 9.708 14.433c5.352 0 9.707-6.475 9.707-14.433.001-7.958-4.354-14.433-9.707-14.433z" fill="#454045"/><path d="m113.605 291.167h32.992l5.841 39.616-22.337 16.015-22.337-16.015z" fill="#da4a54"/><path d="m50.932 512h66.561v-24.108h-42.453c-13.315 0-24.108 10.794-24.108 24.108z" fill="#aa593d"/><path d="m448.5 439.712c-10.034 15.999-33.378 23.138-55.176 13.197-38.694-17.657-51.55-68.61-45.05-107.592 1.391-8.406 3.688-16.267 6.83-23.107l82.219 103.441z" fill="#f6e266"/><path d="m448.5 439.712c-10.034 15.999-33.378 23.138-55.176 13.197-38.694-17.657-51.55-68.61-45.05-107.592 0 16.802 34.068 97.589 89.049 80.333z" fill="#eab14d"/><path d="m90.41 487.888c-13.313 0-24.112 10.798-24.112 24.112h-15.366c0-13.313 10.788-24.112 24.101-24.112z" fill="#934d36"/><path d="m209.27 512h-66.561v-24.108h42.454c13.313 0 24.107 10.794 24.107 24.108z" fill="#aa593d"/><path d="m324.733 490.047c-1.851 0-3.707-.661-5.187-2.002-3.161-2.866-3.401-7.752-.535-10.913l83.683-92.323c2.864-3.162 7.751-3.402 10.913-.536 3.161 2.866 3.401 7.752.535 10.913l-83.682 92.324c-1.524 1.682-3.622 2.537-5.727 2.537z" fill="#da4a54"/><path d="m78.027 225.366h25.859c14.477 0 26.213-11.736 26.213-26.213v-10.101h-25.859c-14.477 0-26.213 11.736-26.213 26.213z" fill="#934d36"/><path d="m182.17 225.366h-25.859c-14.477 0-26.213-11.736-26.213-26.213v-10.101h25.859c14.477 0 26.213 11.736 26.213 26.213z" fill="#aa593d"/><path d="m281.88 305.39c-26.28 15.813-96.6 8.365-96.6 8.365l-5.903-13.341s54.023 11.95 101.895-2.946z" fill="#7ad0df"/><path d="m328.432 303.728c0 23.447-28.546 19.656-46.544 1.659l-.608-7.912c.68.391 27.125 15.587 44.679-1.968 1.566 2.298 2.473 5.017 2.473 8.221z" fill="#f1b986"/><path d="m482.326 490.048c-2.277 0-4.531-1.002-6.056-2.923l-134.217-169.091c-3.318-4.18-8.281-6.577-13.617-6.577h-10.696c-4.268 0-7.726-3.459-7.726-7.726s3.459-7.726 7.726-7.726h10.696c10.078 0 19.454 4.528 25.719 12.423l134.216 169.091c2.653 3.342 2.095 8.202-1.247 10.855-1.42 1.126-3.115 1.674-4.798 1.674z" fill="#da4a54"/></svg>