<svg id="Capa_1" enable-background="new 0 0 512 512" height="512" viewBox="0 0 512 512" width="512" xmlns="http://www.w3.org/2000/svg"><path d="m459.805 183.514c-4.271 0-7.734-3.463-7.734-7.734s3.463-7.734 7.734-7.734c10.409 0 27.949-6.955 34.354-22.419 7.461-18.012-3.226-42.728-30.093-69.595-9.111-9.11-15.286-17.2-18.878-24.731-3.34-7.001-7.342-20.348 3.381-31.069 3.02-3.02 7.917-3.02 10.937 0 3.021 3.02 3.021 7.917 0 10.937-1.374 1.375-4.593 4.593-.357 13.472 2.783 5.835 8.118 12.716 15.855 20.453 40.475 40.475 40.529 69.353 33.446 86.451-8.601 20.766-31.482 31.969-48.645 31.969z" fill="#665e66"/><path d="m74.212 404.454v23.682c-4.086 2.109-7.708 4.991-10.656 8.467-3.898-2.305-8.443-3.632-13.3-3.632-14.457 0-26.177 11.72-26.177 26.177s11.72 26.177 26.177 26.177c4.857 0 9.401-1.327 13.3-3.633 6.399 7.545 15.942 12.339 26.61 12.339 9.355 0 17.844-3.69 24.108-9.685 4.392 3.331 9.865 5.31 15.802 5.31 14.457 0 26.177-11.72 26.177-26.177s-11.72-26.177-26.177-26.177c-3.909 0-7.615.863-10.946 2.4-3.278-4.872-7.76-8.86-13.009-11.567v-23.682" fill="#f6f1f1"/><path d="m324.616 404.454v23.682c-4.086 2.109-7.708 4.991-10.656 8.467-3.898-2.305-8.443-3.632-13.3-3.632-14.457 0-26.177 11.72-26.177 26.177s11.72 26.177 26.177 26.177c4.857 0 9.401-1.327 13.3-3.633 6.399 7.545 15.942 12.339 26.61 12.339 9.355 0 17.844-3.69 24.108-9.685 4.392 3.331 9.865 5.31 15.802 5.31 14.457 0 26.177-11.72 26.177-26.177s-11.72-26.177-26.177-26.177c-3.909 0-7.615.863-10.946 2.4-3.278-4.872-7.76-8.86-13.009-11.567v-23.682" fill="#f6f1f1"/><path d="m49.101 328.749h365.071v63.943h-365.071z" fill="#c6beb9"/><path d="m57.367 156.654h68.423v36.285h-68.423z" fill="#f6f1f1"/><path d="m57.367 174.796h68.423v18.143h-68.423z" fill="#c6beb9"/><path d="m459.643 94.544c-121.585-37.879-257.282-11.067-294.319-2.432-6.537 1.527-12.543 4.738-17.479 9.29-105.228 96.915-125.004 244.968-125.004 244.968h450.623c6.911-107.701-13.821-251.826-13.821-251.826zm-75.195 85.203c0 19.495-15.806 35.311-35.312 35.311h-120.961c-19.506 0-35.312-15.816-35.312-35.311v-23.372c0-19.506 15.806-35.312 35.312-35.312h120.962c19.506 0 35.312 15.806 35.312 35.312v23.372z" fill="#8078bc"/><path d="m165.324 92.112c-6.536 1.527-12.543 4.738-17.479 9.29-105.228 96.915-125.004 244.968-125.004 244.968h77.014s15.92-154.309 100.635-255.329c2.619-3.118 5.601-5.632 8.844-7.441-19.589 3.108-34.823 6.371-44.01 8.512z" fill="#5e54ac"/><path d="m446.94 411.008h-428.97c-9.924 0-17.97-8.045-17.97-17.97 0-9.924 8.045-17.97 17.97-17.97h428.97c9.924 0 17.97 8.045 17.97 17.97 0 9.924-8.046 17.97-17.97 17.97z" fill="#eadfda"/><path d="m88.331 411.005h-70.364c-9.924 0-17.967-8.043-17.967-17.967 0-4.968 2.016-9.457 5.258-12.71 3.253-3.253 7.752-5.258 12.709-5.258h70.364c-4.967 0-9.457 2.005-12.709 5.258-3.253 3.253-5.258 7.742-5.258 12.71 0 9.924 8.043 17.967 17.967 17.967z" fill="#c6beb9"/><path d="m333.507 182.572h-69.673c-8.97 0-16.242 7.272-16.242 16.242 0 8.97 7.272 16.242 16.242 16.242h69.673c8.97 0 16.242-7.272 16.242-16.242 0-8.971-7.271-16.242-16.242-16.242z" fill="#f6f1f1"/><path d="m284.14 210.297c2.941 2.94 7.004 4.759 11.483 4.759h-31.789c-4.489 0-8.542-1.819-11.483-4.759-2.941-2.941-4.76-6.994-4.76-11.483 0-8.968 7.274-16.242 16.243-16.242h31.789c-8.968 0-16.242 7.274-16.242 16.242 0 4.489 1.819 8.542 4.759 11.483z" fill="#c6beb9"/><path d="m349.136 222.792h-120.961c-23.735 0-43.046-19.31-43.046-43.045v-23.372c0-23.735 19.31-43.045 43.046-43.045h120.961c23.735 0 43.046 19.31 43.046 43.045v23.372c0 23.735-19.311 43.045-43.046 43.045zm-120.961-93.994c-15.206 0-27.578 12.371-27.578 27.577v23.372c0 15.206 12.372 27.577 27.578 27.577h120.961c15.206 0 27.578-12.371 27.578-27.577v-23.372c0-15.206-12.372-27.577-27.578-27.577z" fill="#5e54ac"/></svg>