<svg id="Capa_1" enable-background="new 0 0 512 512" height="512" viewBox="0 0 512 512" width="512" xmlns="http://www.w3.org/2000/svg"><path d="m247.123 418.305s24.268 7.232 32.594-1.094 0-29.684 0-29.684l-43.933-8.685" fill="#f1d0a5"/><path d="m63.5 387.526s-8.326 21.359 0 29.684c8.326 8.326 32.594 1.094 32.594 1.094l28.01-45.63h-47.961z" fill="#f1b986"/><path d="m211.937 447.696-1.936 7.541-8.366 32.657-30.029 12.104-13.413-5.408-16.617-6.696-8.365-32.657-1.937-7.541 20.264-10.868 21.901-11.744z" fill="#f1d0a5"/><g fill="#f1b986"><path d="m158.193 494.59-16.617-6.696-10.302-40.198 20.264-10.868z"/><path d="m171.606 429.085h13.934v62.121h-13.934z"/><path d="m263.467 421.148c-8.375-.464-16.349-2.843-16.349-2.843l-10.013-41.867 20.233 11.085c0 9.694-1.68 24.683 6.129 33.625z"/></g><path d="m336.27 252.425s-28.773 31.73-100.556 24.673h-128.206c-71.794 7.057-100.567-24.673-100.567-24.673 16.957-16.957 16.442-53.435 16.442-118.182s25.693-134.243 148.223-134.243 148.222 69.496 148.222 134.243-.515 101.226 16.442 118.182z" fill="#665e66"/><path d="m122.136 132.409v144.689h-14.629c-71.793 7.057-100.566-24.673-100.566-24.673 16.957-16.957 16.442-53.435 16.442-118.182s25.693-134.243 148.223-134.243c-56.753 0-49.47 75.08-49.47 132.409z" fill="#454045"/><path d="m211.937 447.696-1.936 7.541h-76.79l-1.937-7.541 20.264-10.868 21.901-11.744z" fill="#f1b986"/><path d="m246.685 387.523s2.514 28.608-1.617 60.173h-146.925c-4.121-31.565-1.607-60.173-1.607-60.173h-33.038c0-92.366 37.509-122.88 44.009-127.475h128.206c6.5 4.595 43.999 35.109 43.999 127.475z" fill="#f6e266"/><path d="m146.716 287.029c-23.303 39.744-19.872 117.842-15.442 160.667h-33.131c-4.121-31.565-1.607-60.173-1.607-60.173h-33.038c0-92.366 37.509-122.88 44.009-127.475h42.268c2.607 8.757 2.257 17.915-3.059 26.981z" fill="#eab14d"/><ellipse cx="171.606" cy="263.766" fill="#f1b986" rx="52.411" ry="38.058"/><path d="m277.611 206.222c-1.556 30.586-26.033 54.94-56.639 56.382-24.075 1.133-48.151 1.442-72.236.917-.031 0-.072 0-.103-.01-8.798-.185-17.596-.494-26.393-.907-30.596-1.442-55.074-25.796-56.639-56.382-1.123-21.799-1.236-43.587-.371-65.386h.01s25.147-1.277 56.897-8.427c28.217-6.346 61.646-17.338 87.267-36.19 0 0 26.723 44.617 68.579 44.617.875 21.799.751 43.587-.372 65.386z" fill="#f1d0a5"/><path d="m148.633 263.51c-8.798-.185-17.596-.494-26.393-.907-30.596-1.442-55.074-25.796-56.639-56.382-1.123-21.799-1.236-43.587-.371-65.386h.01s25.147-1.277 56.897-8.427v.01c-7.088 60.782.082 130 26.496 131.092z" fill="#f1b986"/><path d="m171.609 218.768c-12.209 0-23.481-7.129-28.718-18.161-1.83-3.855-.188-8.463 3.667-10.293 3.856-1.829 8.463-.188 10.293 3.667 2.692 5.67 8.484 9.334 14.758 9.334s12.066-3.664 14.757-9.334c1.829-3.855 6.437-5.498 10.293-3.668 3.855 1.829 5.497 6.438 3.668 10.293-5.236 11.033-16.509 18.162-28.718 18.162z" fill="#da4a54"/><path d="m122.141 146.628c-5.353 0-9.708 6.475-9.708 14.433 0 7.959 4.355 14.433 9.708 14.433s9.708-6.475 9.708-14.433-4.355-14.433-9.708-14.433z" fill="#454045"/><path d="m221.076 146.628c-5.353 0-9.708 6.475-9.708 14.433 0 7.959 4.355 14.433 9.708 14.433s9.708-6.475 9.708-14.433c.001-7.958-4.354-14.433-9.708-14.433z" fill="#454045"/><path d="m246.681 387.526c0-22.541-8.192-44.386-8.192-44.386s18.849 19.493 18.849 44.383z" fill="#eab14d"/><path d="m115.346 512h56.259v-24.108h-32.152c-13.313 0-24.107 10.794-24.107 24.108z" fill="#70c6da"/><path d="m154.824 487.888c-13.313 0-24.112 10.798-24.112 24.112h-15.366c0-13.313 10.788-24.112 24.101-24.112z" fill="#63afcb"/><path d="m227.865 512h-56.259v-24.108h32.152c13.314 0 24.107 10.794 24.107 24.108z" fill="#70c6da"/><ellipse cx="237.725" cy="190.766" fill="#eaac9d" rx="15.759" ry="9.935"/><ellipse cx="105.49" cy="190.766" fill="#eaac9d" rx="15.759" ry="9.935"/><path d="m499.549 218.43h-77.687c-3.043 0-5.51-2.467-5.51-5.51s2.467-5.51 5.51-5.51h77.687c3.043 0 5.51 2.467 5.51 5.51s-2.467 5.51-5.51 5.51z" fill="#c32430"/><path d="m457.102 444.406c-2.828 2.828-8.243 3.137-13.135 2.689-5.37-.5-10.109-1.91-10.109-1.91l-14.583-8.11-3.915-30.775-3.416-26.881 15.633 2.703 10.351 1.785 15.964 2.762 3.21 36.563c0 .001 5.936 15.238 0 21.174z" fill="#f1d0a5"/><path d="m443.967 447.094c-5.37-.5-10.109-1.91-10.109-1.91l-14.583-8.11-3.915-30.774 3.423-23.949 8.794-.228 9.771-.257s.22.72.58 2.042c2.263 8.191 10.138 39.362 6.039 63.186z" fill="#f1b986"/><path d="m306.12 386.67-3.209 36.565s-5.937 15.231 0 21.168 23.243.78 23.243.78l21.294-62.833-31.27-5.863z" fill="#f1b986"/><path d="m425.513 494.809-1.238 3.339-35.273-3.339s9.154-42.448-8.992-60.593h-.007c-18.146 18.146-8.992 60.593-8.992 60.593l-11.719 3.706-24.793-3.706c-11.277-36.277-10.043-65.611-7.111-83.602l18.094-5.106 35.681-10.072 51.462 15.178c2.923 17.992 4.165 47.326-7.112 83.602z" fill="#665e66"/><path d="m346.083 494.809-10.245 3.706-1.34-3.706c-11.277-36.277-10.043-65.611-7.111-83.602l18.094-5.106c-4.415 28.108-6.546 61.416.602 88.708z" fill="#454045"/><path d="m427.702 391.578-.044.007s2.872 7.038 4.922 19.622h-105.237c1.983-12.188 4.746-19.174 4.915-19.6.007-.015.007-.022.007-.022l-10.924-2.05-15.266-2.865c7.251-37.79 24.53-51.77 28.173-54.341h91.426c3.644 2.571 20.923 16.551 28.174 54.341l-14.494 2.718z" fill="#b9e4ef"/><path d="m439.353 389.388-11.651 2.189-5.01-15.09c0 .001 14.443 2.918 16.661 12.901z" fill="#7ad0df"/><path d="m346.958 375.019-2.241 36.188h-17.374c1.983-12.188 4.746-19.174 4.915-19.6l.051-.022s2.924-11.674 14.649-16.566z" fill="#7ad0df"/><path d="m351.909 332.329c-26.087 24.118-30.51 57.207-30.51 57.207h-.059l-15.266-2.865c7.251-37.79 24.53-51.77 28.173-54.341h17.662z" fill="#7ad0df"/><ellipse cx="380.007" cy="334.98" fill="#f1b986" rx="28.343" ry="20.581"/><path d="m398.523 494.806h-9.53s9.157-42.441-8.989-60.594c18.519 0 28.042 31.885 18.519 60.594z" fill="#454045"/><path d="m456.111 280.452h.107c9.152 0 16.567-7.422 16.567-16.567 0-9.152-7.415-16.573-16.567-16.573-.119 0-.238 0-.357.006h-151.707c-.119-.006-.238-.006-.357-.006-9.152 0-16.567 7.422-16.567 16.573 0 9.145 7.415 16.567 16.567 16.567h.107" fill="#f1b986"/><path d="m455.604 293.944c-1.117 21.812-18.572 39.178-40.391 40.207-17.543.83-35.079 1.036-52.615.632l-.007-.007c-5.936-.14-11.865-.345-17.793-.624-21.812-1.028-39.267-18.395-40.391-40.207-.345-6.751-.441-21.878-.433-36.835.007-19.483.176-38.679.176-38.679h151.711s.073 8.103.117 19.13c.096 18.96.125 46.553-.374 56.383z" fill="#f1d0a5"/><path d="m362.591 334.775c-5.936-.14-11.865-.345-17.793-.624-21.812-1.028-39.267-18.395-40.391-40.207-.345-6.751-.441-21.878-.433-36.835.007-19.483.176-38.679.176-38.679h39.325c-.543 73.927-4.238 105.524 19.116 116.345z" fill="#f1b986"/><path d="m304.15 218.43h32.714s-1.286 26.3-32.89 38.679c.007-19.483.176-38.679.176-38.679z" fill="#eab14d"/><path d="m455.978 237.56c-73.699 0-111.298-19.13-111.298-19.13h111.181s.073 8.103.117 19.13z" fill="#f6e266"/><path d="m344.731 247.773c-3.817 0-6.923 4.617-6.923 10.292s3.105 10.293 6.923 10.293 6.923-4.617 6.923-10.293c0-5.674-3.106-10.292-6.923-10.292z" fill="#454045"/><path d="m415.284 247.773c-3.817 0-6.922 4.617-6.922 10.292s3.106 10.293 6.922 10.293c3.817 0 6.923-4.617 6.923-10.293 0-5.674-3.106-10.292-6.923-10.292z" fill="#454045"/><path d="m323.55 512h47.466v-17.192h-30.274c-9.495 0-17.192 7.697-17.192 17.192z" fill="#da4a54"/><path d="m351.703 494.806c-9.494 0-17.194 7.7-17.194 17.194h-10.959c0-9.494 7.693-17.194 17.187-17.194z" fill="#c32430"/><path d="m436.464 512h-47.466v-17.192h30.274c9.495 0 17.192 7.697 17.192 17.192z" fill="#da4a54"/><path d="m380.006 302.891c-8.707 0-16.745-5.083-20.48-12.951-1.305-2.749-.134-6.035 2.615-7.34 2.748-1.304 6.035-.135 7.34 2.615 1.919 4.044 6.051 6.656 10.525 6.656s8.605-2.613 10.524-6.656c1.305-2.749 4.593-3.92 7.34-2.615 2.749 1.305 3.92 4.591 2.615 7.34-3.735 7.867-11.773 12.951-20.479 12.951z" fill="#da4a54"/><path d="m348.708 146.883h62.479c24.673 0 44.675 20.002 44.675 44.675v26.868h-151.83v-26.868c0-24.673 20.002-44.675 44.676-44.675z" fill="#da4a54"/><path d="m377.291 146.883c-24.677 0-33.815 20.004-33.815 44.674v26.873h-39.443v-26.873c0-24.669 19.997-44.674 44.674-44.674z" fill="#c32430"/><path d="m369.248 185.202h-13.795c-9.278 0-16.799 7.521-16.799 16.799v5.406h47.394v-5.406c0-9.277-7.522-16.799-16.8-16.799z" fill="#f6e266"/></svg>