<?xml version="1.0" encoding="iso-8859-1"?>
<!-- Generator: Adobe Illustrator 19.0.0, SVG Export Plug-In . SVG Version: 6.00 Build 0)  -->
<svg version="1.1" id="Layer_1" xmlns="http://www.w3.org/2000/svg" xmlns:xlink="http://www.w3.org/1999/xlink" x="0px" y="0px"
	 viewBox="0 0 512.004 512.004" style="enable-background:new 0 0 512.004 512.004;" xml:space="preserve">
<path style="fill:#5E70A0;" d="M316.964,76.467c0,33.676-27.299,60.975-60.975,60.975s-60.975-27.299-60.975-60.975
	s27.299-60.975,60.975-60.975S316.964,42.792,316.964,76.467"/>
<g>
	<path style="fill:#D8DCDC;" d="M135.946,152.93c-2.23,0-4.46-0.854-6.158-2.552c-40.758-40.758-40.758-107.072,0-147.83
		c3.406-3.397,8.911-3.397,12.317,0c3.406,3.406,3.406,8.92,0,12.317c-33.963,33.972-33.963,89.233,0,123.196
		c3.406,3.406,3.406,8.911,0,12.317C140.406,152.076,138.176,152.93,135.946,152.93"/>
	<path style="fill:#D8DCDC;" d="M376.058,152.93c-2.23,0-4.46-0.854-6.159-2.552c-3.406-3.406-3.406-8.911,0-12.317
		c33.963-33.963,33.963-89.224,0-123.196c-3.406-3.397-3.406-8.911,0-12.317c3.406-3.397,8.911-3.397,12.317,0
		c40.758,40.758,40.758,107.072,0,147.83C380.518,152.076,378.288,152.93,376.058,152.93"/>
	<path style="fill:#D8DCDC;" d="M169.335,128.296c-2.23,0-4.46-0.854-6.159-2.552c-27.169-27.169-27.169-71.385,0-98.553
		c3.397-3.406,8.911-3.406,12.317,0c3.406,3.397,3.406,8.911,0,12.317c-20.374,20.374-20.374,53.536,0,73.919
		c3.406,3.406,3.406,8.911,0,12.317C173.795,127.443,171.565,128.296,169.335,128.296"/>
	<path style="fill:#D8DCDC;" d="M342.661,128.296c-2.23,0-4.46-0.854-6.158-2.552c-3.406-3.406-3.406-8.911,0-12.317
		c20.374-20.383,20.374-53.545,0-73.919c-3.406-3.406-3.406-8.92,0-12.317c3.406-3.406,8.911-3.406,12.317,0
		c27.169,27.169,27.169,71.385,0,98.553C347.121,127.443,344.891,128.296,342.661,128.296"/>
</g>
<g>
	<path style="fill:#8697CB;" d="M255.989,111.31c-4.808,0-8.711-3.894-8.711-8.711c0-4.817,3.902-8.711,8.711-8.711
		c9.608,0,17.421-7.814,17.421-17.421c0-4.817,3.902-8.711,8.711-8.711c4.808,0,8.711,3.894,8.711,8.711
		C290.832,95.683,275.205,111.31,255.989,111.31"/>
	<path style="fill:#8697CB;" d="M229.857,85.178c-4.808,0-8.711-3.894-8.711-8.711c0-19.216,15.627-34.843,34.843-34.843
		c4.808,0,8.711,3.894,8.711,8.711s-3.902,8.711-8.711,8.711c-9.608,0-17.421,7.814-17.421,17.421
		C238.568,81.284,234.665,85.178,229.857,85.178"/>
	<polygon style="fill:#8697CB;" points="195.014,512.004 316.964,512.004 316.964,477.161 195.014,477.161 	"/>
	<path style="fill:#8697CB;" d="M285.17,189.707l-2.918-58.275c-7.962,3.815-16.847,6.01-26.263,6.01
		c-9.416,0-18.301-2.195-26.272-6.01l-2.909,58.275H285.17z"/>
</g>
<polygon style="fill:#5E70A0;" points="285.17,189.707 226.808,189.707 212.435,477.161 299.543,477.161 "/>
<g>
	<path style="fill:#8697CB;" d="M215.493,416.099c0.148,0.009,0.279,0.087,0.427,0.087h40.078c4.808,0,8.711-3.894,8.711-8.711
		c0-4.817-3.902-8.711-8.711-8.711h-39.634L215.493,416.099z"/>
	<path style="fill:#8697CB;" d="M213.751,450.994c0.061,0,0.122,0.035,0.183,0.035h24.643c4.808,0,8.711-3.894,8.711-8.711
		c0-4.808-3.902-8.711-8.711-8.711h-23.955L213.751,450.994z"/>
</g>
<g>
</g>
<g>
</g>
<g>
</g>
<g>
</g>
<g>
</g>
<g>
</g>
<g>
</g>
<g>
</g>
<g>
</g>
<g>
</g>
<g>
</g>
<g>
</g>
<g>
</g>
<g>
</g>
<g>
</g>
</svg>
