<?xml version="1.0" encoding="iso-8859-1"?>
<!-- Generator: Adobe Illustrator 19.0.0, SVG Export Plug-In . SVG Version: 6.00 Build 0)  -->
<svg version="1.1" id="Layer_1" xmlns="http://www.w3.org/2000/svg" xmlns:xlink="http://www.w3.org/1999/xlink" x="0px" y="0px"
	 viewBox="0 0 512.002 512.002" style="enable-background:new 0 0 512.002 512.002;" xml:space="preserve">
<g>
	<path style="fill:#D8DCDC;" d="M397.242,52.968c-2.26,0-4.52-0.865-6.241-2.586l-35.31-35.31c-3.452-3.452-3.452-9.031,0-12.482
		c3.452-3.452,9.031-3.452,12.482,0l35.31,35.31c3.452,3.452,3.452,9.031,0,12.482C401.762,52.103,399.502,52.968,397.242,52.968"/>
	<path style="fill:#D8DCDC;" d="M467.863,97.106c0,14.627-11.855,26.483-26.483,26.483c-14.627,0-26.483-11.855-26.483-26.483
		s11.855-26.483,26.483-26.483C456.008,70.623,467.863,82.478,467.863,97.106"/>
</g>
<path style="fill:#97989A;" d="M414.898,96.664c0-14.627,11.855-26.041,26.483-26.041c3.628,0,7.08,0.291,10.231,1.615
	c12.138-23.287,9.322-52.683-10.231-72.236l-88.276,88.276c16.914,16.914,41.172,21.036,62.49,14.248
	C415.171,100.637,414.898,98.686,414.898,96.664"/>
<polygon style="fill:#E6EEF3;" points="0.001,512.002 211.863,512.002 211.863,79.45 0.001,79.45 "/>
<polygon style="fill:#CAD3DB;" points="211.863,512.002 512.001,512.002 512.001,176.554 211.863,176.554 "/>
<g>
	<polygon style="fill:#A7B1B6;" points="70.622,512.002 141.242,512.002 141.242,406.071 70.622,406.071 	"/>
	<polygon style="fill:#A7B1B6;" points="44.139,167.726 79.449,167.726 79.449,114.761 44.139,114.761 	"/>
	<polygon style="fill:#A7B1B6;" points="132.415,167.726 167.725,167.726 167.725,114.761 132.415,114.761 	"/>
	<polygon style="fill:#A7B1B6;" points="44.139,256.002 79.449,256.002 79.449,203.037 44.139,203.037 	"/>
	<polygon style="fill:#A7B1B6;" points="132.415,256.002 167.725,256.002 167.725,203.037 132.415,203.037 	"/>
</g>
<g>
	<polygon style="fill:#E6EEF3;" points="264.829,282.485 300.139,282.485 300.139,211.864 264.829,211.864 	"/>
	<polygon style="fill:#E6EEF3;" points="423.725,282.485 459.036,282.485 459.036,211.864 423.725,211.864 	"/>
	<path style="fill:#E6EEF3;" d="M317.794,291.313h-70.621c-4.882,0-8.828-3.946-8.828-8.828c0-4.882,3.946-8.828,8.828-8.828h70.621
		c4.882,0,8.828,3.946,8.828,8.828C326.622,287.367,322.676,291.313,317.794,291.313"/>
	<path style="fill:#E6EEF3;" d="M476.691,291.313H406.07c-4.882,0-8.828-3.946-8.828-8.828c0-4.882,3.946-8.828,8.828-8.828h70.621
		c4.882,0,8.828,3.946,8.828,8.828C485.518,287.367,481.572,291.313,476.691,291.313"/>
	<polygon style="fill:#E6EEF3;" points="264.829,388.416 300.139,388.416 300.139,317.795 264.829,317.795 	"/>
	<polygon style="fill:#E6EEF3;" points="423.725,388.416 459.036,388.416 459.036,317.795 423.725,317.795 	"/>
	<path style="fill:#E6EEF3;" d="M317.794,397.244h-70.621c-4.882,0-8.828-3.946-8.828-8.828c0-4.882,3.946-8.828,8.828-8.828h70.621
		c4.882,0,8.828,3.946,8.828,8.828C326.622,393.298,322.676,397.244,317.794,397.244"/>
	<path style="fill:#E6EEF3;" d="M476.691,397.244H406.07c-4.882,0-8.828-3.946-8.828-8.828c0-4.882,3.946-8.828,8.828-8.828h70.621
		c4.882,0,8.828,3.946,8.828,8.828C485.518,393.298,481.572,397.244,476.691,397.244"/>
</g>
<polygon style="fill:#A7B1B6;" points="44.139,344.278 167.725,344.278 167.725,291.313 44.139,291.313 "/>
<path style="fill:#97989A;" d="M441.38,123.588c-6.815,0-12.959-2.648-17.655-6.877v59.842h35.31v-59.842
	C454.339,120.94,448.195,123.588,441.38,123.588"/>
<g>
</g>
<g>
</g>
<g>
</g>
<g>
</g>
<g>
</g>
<g>
</g>
<g>
</g>
<g>
</g>
<g>
</g>
<g>
</g>
<g>
</g>
<g>
</g>
<g>
</g>
<g>
</g>
<g>
</g>
</svg>
