<?xml version="1.0" encoding="iso-8859-1"?>
<!-- Generator: Adobe Illustrator 19.0.0, SVG Export Plug-In . SVG Version: 6.00 Build 0)  -->
<svg version="1.1" id="Layer_1" xmlns="http://www.w3.org/2000/svg" xmlns:xlink="http://www.w3.org/1999/xlink" x="0px" y="0px"
	 viewBox="0 0 512 512" style="enable-background:new 0 0 512 512;" xml:space="preserve">
<path style="fill:#485762;" d="M485.517,401.655H273.655c-14.627,0-26.483-11.855-26.483-26.483V216.276
	c0-14.627,11.855-26.483,26.483-26.483h211.862c14.627,0,26.483,11.855,26.483,26.483v158.897
	C512,389.8,500.145,401.655,485.517,401.655"/>
<path style="fill:#63659C;" d="M463.448,384H295.724c-14.627,0-26.483-11.855-26.483-26.483V233.931
	c0-14.627,11.855-26.483,26.483-26.483h167.724c14.627,0,26.483,11.855,26.483,26.483v123.586
	C489.931,372.145,478.076,384,463.448,384"/>
<path style="fill:#FDC693;" d="M414.897,269.241c0,19.5-15.81,35.31-35.31,35.31c-19.5,0-35.31-15.81-35.31-35.31
	c0-19.5,15.81-35.31,35.31-35.31C399.086,233.931,414.897,249.741,414.897,269.241"/>
<path style="fill:#8697CB;" d="M414.535,322.207c-9.322,8.218-21.53,13.241-34.948,13.241s-25.626-5.023-34.957-13.241
	c-11.017,9.71-18.008,23.887-18.008,39.724V384h105.931v-22.069C432.552,346.094,425.56,331.917,414.535,322.207"/>
<polygon style="fill:#667D8C;" points="185.379,357.517 247.172,357.517 247.172,233.931 185.379,233.931 "/>
<path style="fill:#485762;" d="M97.103,269.241C43.476,269.241,0,225.766,0,172.138v220.69c0,24.373,19.765,44.138,44.138,44.138
	h105.931c24.373,0,44.138-19.765,44.138-44.138v-220.69C194.207,225.766,150.731,269.241,97.103,269.241"/>
<g>
	<path style="fill:#667D8C;" d="M44.138,348.69h17.655c4.873,0,8.828,3.955,8.828,8.828v17.655c0,4.873-3.955,8.828-8.828,8.828
		H44.138c-4.873,0-8.828-3.955-8.828-8.828v-17.655C35.31,352.644,39.265,348.69,44.138,348.69"/>
	<path style="fill:#667D8C;" d="M194.207,172.138c0,53.628-43.476,97.103-97.103,97.103S0,225.766,0,172.138
		s43.476-97.103,97.103-97.103S194.207,118.51,194.207,172.138"/>
</g>
<path style="fill:#63659C;" d="M150.069,172.138c0,29.255-23.711,52.966-52.966,52.966s-52.966-23.711-52.966-52.966
	s23.711-52.966,52.966-52.966S150.069,142.883,150.069,172.138"/>
<path style="fill:#E64C3C;" d="M44.138,313.379c0-4.873,3.955-8.828,8.828-8.828s8.828,3.955,8.828,8.828s-3.955,8.828-8.828,8.828
	S44.138,318.252,44.138,313.379"/>
<polygon style="fill:#667D8C;" points="105.931,392.828 158.897,392.828 158.897,304.552 105.931,304.552 "/>
<path style="fill:#8697CB;" d="M105.931,154.483c0,9.754-7.901,17.655-17.655,17.655s-17.655-7.901-17.655-17.655
	c0-9.754,7.901-17.655,17.655-17.655S105.931,144.728,105.931,154.483"/>
<g>
</g>
<g>
</g>
<g>
</g>
<g>
</g>
<g>
</g>
<g>
</g>
<g>
</g>
<g>
</g>
<g>
</g>
<g>
</g>
<g>
</g>
<g>
</g>
<g>
</g>
<g>
</g>
<g>
</g>
</svg>
