<?xml version="1.0" encoding="iso-8859-1"?>
<!-- Generator: Adobe Illustrator 19.0.0, SVG Export Plug-In . SVG Version: 6.00 Build 0)  -->
<svg version="1.1" id="Layer_1" xmlns="http://www.w3.org/2000/svg" xmlns:xlink="http://www.w3.org/1999/xlink" x="0px" y="0px"
	 viewBox="0 0 512 512" style="enable-background:new 0 0 512 512;" xml:space="preserve">
<g>
	<polygon style="fill:#B5C3E8;" points="273.655,176.552 229.517,176.552 150.069,0 194.207,0 	"/>
	<polygon style="fill:#B5C3E8;" points="273.655,141.241 317.793,141.241 388.414,0 344.276,0 	"/>
</g>
<polygon style="fill:#8697CB;" points="257.766,141.241 273.655,176.552 229.517,176.552 213.628,141.241 105.931,141.241 
	105.931,512 406.069,512 406.069,141.241 "/>
<polygon style="fill:#B5C3E8;" points="185.379,379.586 326.621,379.586 326.621,220.69 185.379,220.69 "/>
<g>
	<path style="fill:#F0C419;" d="M187.692,379.586h136.616c-7.857-21.619-35.416-52.966-68.308-52.966
		C223.1,326.621,195.54,357.967,187.692,379.586"/>
	<path style="fill:#F0C419;" d="M291.31,291.31c0,19.5-15.81,35.31-35.31,35.31s-35.31-15.81-35.31-35.31
		c0-19.5,15.81-35.31,35.31-35.31S291.31,271.81,291.31,291.31"/>
</g>
<g>
	<path style="fill:#B5C3E8;" d="M308.966,432.552H203.034c-4.882,0-8.828-3.955-8.828-8.828c0-4.873,3.946-8.828,8.828-8.828
		h105.931c4.882,0,8.828,3.955,8.828,8.828C317.793,428.597,313.847,432.552,308.966,432.552"/>
	<path style="fill:#B5C3E8;" d="M361.931,476.69H150.069c-4.882,0-8.828-3.955-8.828-8.828s3.946-8.828,8.828-8.828h211.862
		c4.882,0,8.828,3.955,8.828,8.828S366.813,476.69,361.931,476.69"/>
	<path style="fill:#B5C3E8;" d="M317.793,185.379H194.207c-4.882,0-8.828-3.955-8.828-8.828c0-4.873,3.946-8.828,8.828-8.828
		h123.586c4.882,0,8.828,3.955,8.828,8.828C326.621,181.425,322.675,185.379,317.793,185.379"/>
</g>
<g>
</g>
<g>
</g>
<g>
</g>
<g>
</g>
<g>
</g>
<g>
</g>
<g>
</g>
<g>
</g>
<g>
</g>
<g>
</g>
<g>
</g>
<g>
</g>
<g>
</g>
<g>
</g>
<g>
</g>
</svg>
