<?xml version="1.0" encoding="iso-8859-1"?>
<!-- Generator: Adobe Illustrator 19.0.0, SVG Export Plug-In . SVG Version: 6.00 Build 0)  -->
<svg version="1.1" id="Layer_1" xmlns="http://www.w3.org/2000/svg" xmlns:xlink="http://www.w3.org/1999/xlink" x="0px" y="0px"
	 viewBox="0 0 512 512" style="enable-background:new 0 0 512 512;" xml:space="preserve">
<path style="fill:#ECF1F1;" d="M494.345,397.241H17.655V70.621c0-14.627,11.855-26.483,26.483-26.483h423.724
	c14.627,0,26.483,11.855,26.483,26.483V397.241z"/>
<polygon style="fill:#485762;" points="52.966,361.931 459.034,361.931 459.034,79.448 52.966,79.448 "/>
<g>
	<polygon style="fill:#BDC3C7;" points="105.931,361.931 123.586,361.931 123.586,282.483 105.931,282.483 	"/>
	<polygon style="fill:#BDC3C7;" points="388.414,361.931 406.069,361.931 406.069,282.483 388.414,282.483 	"/>
	<path style="fill:#BDC3C7;" d="M485.517,467.862H26.483C11.855,467.862,0,456.007,0,441.379v-44.138h512v44.138
		C512,456.007,500.145,467.862,485.517,467.862"/>
</g>
<g>
	<path style="fill:#ECF1F1;" d="M141.241,441.379H52.966c-4.882,0-8.828-3.946-8.828-8.828c0-4.882,3.946-8.828,8.828-8.828h88.276
		c4.882,0,8.828,3.946,8.828,8.828C150.069,437.433,146.123,441.379,141.241,441.379"/>
	<path style="fill:#ECF1F1;" d="M459.034,441.379h-88.276c-4.882,0-8.828-3.946-8.828-8.828c0-4.882,3.946-8.828,8.828-8.828h88.276
		c4.882,0,8.828,3.946,8.828,8.828C467.862,437.433,463.916,441.379,459.034,441.379"/>
	<path style="fill:#ECF1F1;" d="M264.828,441.379h-17.655c-4.882,0-8.828-3.946-8.828-8.828c0-4.882,3.946-8.828,8.828-8.828h17.655
		c4.882,0,8.828,3.946,8.828,8.828C273.655,437.433,269.709,441.379,264.828,441.379"/>
</g>
<path style="fill:#BDC3C7;" d="M97.103,308.966c-2.26,0-4.52-0.865-6.241-2.586c-3.452-3.452-3.452-9.031,0-12.482l40.483-40.483
	c3.452-3.452,9.031-3.452,12.482,0c3.452,3.452,3.452,9.031,0,12.482l-40.483,40.483C101.623,308.1,99.363,308.966,97.103,308.966"
	/>
<path style="fill:#F38774;" d="M142.627,264.704l-10.09-10.09c-4.114-4.105-4.114-10.77,0-14.874l10.09-10.09
	c4.105-4.114,10.77-4.114,14.874,0l10.09,10.09c4.114,4.105,4.114,10.77,0,14.874l-10.09,10.09
	C153.397,268.809,146.732,268.809,142.627,264.704"/>
<path style="fill:#BDC3C7;" d="M414.897,308.966c-2.26,0-4.52-0.865-6.241-2.586l-40.483-40.483c-3.452-3.452-3.452-9.031,0-12.482
	c3.452-3.452,9.031-3.452,12.482,0l40.483,40.483c3.452,3.452,3.452,9.031,0,12.482C419.416,308.1,417.156,308.966,414.897,308.966"
	/>
<path style="fill:#F38774;" d="M369.373,264.704l10.09-10.09c4.114-4.105,4.114-10.77,0-14.874l-10.09-10.09
	c-4.105-4.114-10.77-4.114-14.875,0l-10.09,10.09c-4.114,4.105-4.114,10.77,0,14.874l10.09,10.09
	C358.603,268.809,365.268,268.809,369.373,264.704"/>
<path style="fill:#8697CB;" d="M294.206,248.143C282.474,253.184,269.559,256,256,256c-13.568,0-26.474-2.816-38.215-7.857
	c-24.576,13.506-41.234,39.627-41.234,69.65v44.138h158.897v-44.138C335.448,287.77,318.782,261.65,294.206,248.143"/>
<polygon style="fill:#F0C419;" points="282.483,282.483 256,335.448 229.517,282.483 256,256 "/>
<path style="fill:#FDC693;" d="M308.966,176.552c0,29.255-23.711,52.966-52.966,52.966s-52.966-23.711-52.966-52.966
	s23.711-52.966,52.966-52.966S308.966,147.297,308.966,176.552"/>
<path style="fill:#E64C3C;" d="M158.897,123.586H88.276c-4.882,0-8.828-3.946-8.828-8.828c0-4.882,3.946-8.828,8.828-8.828h70.621
	c4.882,0,8.828,3.946,8.828,8.828S163.778,123.586,158.897,123.586"/>
<path style="fill:#F0C419;" d="M123.586,158.897h-35.31c-4.882,0-8.828-3.946-8.828-8.828s3.946-8.828,8.828-8.828h35.31
	c4.882,0,8.828,3.946,8.828,8.828S128.468,158.897,123.586,158.897"/>
<g>
</g>
<g>
</g>
<g>
</g>
<g>
</g>
<g>
</g>
<g>
</g>
<g>
</g>
<g>
</g>
<g>
</g>
<g>
</g>
<g>
</g>
<g>
</g>
<g>
</g>
<g>
</g>
<g>
</g>
</svg>
