<?xml version="1.0" encoding="iso-8859-1"?>
<!-- Generator: Adobe Illustrator 19.0.0, SVG Export Plug-In . SVG Version: 6.00 Build 0)  -->
<svg version="1.1" id="Layer_1" xmlns="http://www.w3.org/2000/svg" xmlns:xlink="http://www.w3.org/1999/xlink" x="0px" y="0px"
	 viewBox="0 0 512 512" style="enable-background:new 0 0 512 512;" xml:space="preserve">
<g>
	<path style="fill:#8697CB;" d="M229.517,485.517c-4.882,0-8.828-3.946-8.828-8.828v-70.621c0-4.882,3.946-8.828,8.828-8.828
		s8.828,3.946,8.828,8.828v70.621C238.345,481.571,234.399,485.517,229.517,485.517"/>
	<path style="fill:#8697CB;" d="M229.517,414.897c-82.75,0-150.069-67.319-150.069-150.069v-88.276c0-4.882,3.946-8.828,8.828-8.828
		h52.966c4.882,0,8.828,3.946,8.828,8.828s-3.946,8.828-8.828,8.828H97.103v79.448c0,73.013,59.401,132.414,132.414,132.414
		s132.414-59.401,132.414-132.414v-79.448h-44.138c-4.882,0-8.828-3.946-8.828-8.828s3.946-8.828,8.828-8.828h52.966
		c4.882,0,8.828,3.946,8.828,8.828v88.276C379.586,347.577,312.267,414.897,229.517,414.897"/>
</g>
<path style="fill:#D7DDE0;" d="M229.517,353.103L229.517,353.103c-48.755,0-88.276-39.521-88.276-88.276V88.276
	C141.241,39.521,180.762,0,229.517,0s88.276,39.521,88.276,88.276v176.552C317.793,313.582,278.272,353.103,229.517,353.103"/>
<g>
	<path style="fill:#BDC3C7;" d="M317.793,512H141.241c0-19.5,15.81-35.31,35.31-35.31h105.931
		C301.983,476.69,317.793,492.5,317.793,512"/>
	<path style="fill:#BDC3C7;" d="M264.828,176.552c0,19.5-15.81,35.31-35.31,35.31s-35.31-15.81-35.31-35.31s15.81-35.31,35.31-35.31
		S264.828,157.052,264.828,176.552"/>
</g>
<g>
	<path style="fill:#ECF1F1;" d="M229.517,0c-2.984,0-5.923,0.159-8.828,0.441v52.524c0,4.882,3.946,8.828,8.828,8.828
		s8.828-3.946,8.828-8.828V0.441C235.441,0.159,232.501,0,229.517,0"/>
	<path style="fill:#ECF1F1;" d="M264.828,88.276c-4.882,0-8.828,3.946-8.828,8.828s3.946,8.828,8.828,8.828h52.966V88.276H264.828z"
		/>
	<path style="fill:#ECF1F1;" d="M291.31,141.241c-4.882,0-8.828,3.946-8.828,8.828s3.946,8.828,8.828,8.828h26.483v-17.655H291.31z"
		/>
	<path style="fill:#ECF1F1;" d="M291.31,194.207c-4.882,0-8.828,3.946-8.828,8.828s3.946,8.828,8.828,8.828h26.483v-17.655H291.31z"
		/>
	<path style="fill:#ECF1F1;" d="M264.828,247.172c-4.882,0-8.828,3.946-8.828,8.828s3.946,8.828,8.828,8.828h52.966v-17.655H264.828
		z"/>
	<path style="fill:#ECF1F1;" d="M229.517,291.31c-4.882,0-8.828,3.946-8.828,8.828v52.524c2.904,0.283,5.844,0.441,8.828,0.441
		s5.923-0.159,8.828-0.441v-52.524C238.345,295.256,234.399,291.31,229.517,291.31"/>
	<path style="fill:#ECF1F1;" d="M203.034,256c0-4.882-3.946-8.828-8.828-8.828h-52.966v17.655h52.966
		C199.089,264.828,203.034,260.882,203.034,256"/>
	<path style="fill:#ECF1F1;" d="M167.724,211.862c4.882,0,8.828-3.946,8.828-8.828s-3.946-8.828-8.828-8.828h-26.483v17.655H167.724
		z"/>
	<path style="fill:#ECF1F1;" d="M167.724,158.897c4.882,0,8.828-3.946,8.828-8.828s-3.946-8.828-8.828-8.828h-26.483v17.655H167.724
		z"/>
	<path style="fill:#ECF1F1;" d="M194.207,105.931c4.882,0,8.828-3.946,8.828-8.828s-3.946-8.828-8.828-8.828h-52.966v17.655H194.207
		z"/>
</g>
<path style="fill:#F38774;" d="M432.552,370.759c0,48.755-39.521,88.276-88.276,88.276S256,419.513,256,370.759
	s39.521-88.276,88.276-88.276S432.552,322.004,432.552,370.759"/>
<g>
	<path style="fill:#FFFFFF;" d="M306.82,417.033c-2.26,0-4.52-0.865-6.241-2.586c-3.452-3.452-3.452-9.031,0-12.482l74.902-74.893
		c3.452-3.452,9.039-3.452,12.482,0c3.452,3.443,3.452,9.031,0,12.482l-74.902,74.893C311.34,416.168,309.08,417.033,306.82,417.033
		"/>
	<path style="fill:#FFFFFF;" d="M381.731,417.033c-2.26,0-4.52-0.865-6.241-2.586l-74.902-74.893c-3.452-3.452-3.452-9.039,0-12.482
		c3.443-3.452,9.031-3.452,12.482,0l74.902,74.893c3.452,3.452,3.452,9.031,0,12.482
		C386.251,416.168,383.991,417.033,381.731,417.033"/>
</g>
<g>
</g>
<g>
</g>
<g>
</g>
<g>
</g>
<g>
</g>
<g>
</g>
<g>
</g>
<g>
</g>
<g>
</g>
<g>
</g>
<g>
</g>
<g>
</g>
<g>
</g>
<g>
</g>
<g>
</g>
</svg>
