<?xml version="1.0" encoding="iso-8859-1"?>
<!-- Generator: Adobe Illustrator 19.0.0, SVG Export Plug-In . SVG Version: 6.00 Build 0)  -->
<svg version="1.1" id="Layer_1" xmlns="http://www.w3.org/2000/svg" xmlns:xlink="http://www.w3.org/1999/xlink" x="0px" y="0px"
	 viewBox="0 0 512 512" style="enable-background:new 0 0 512 512;" xml:space="preserve">
<path style="fill:#485762;" d="M370.759,114.759L370.759,114.759c0-14.627-11.855-26.483-26.483-26.483H167.724
	c-14.627,0-26.483,11.855-26.483,26.483l0,0c0,14.627-11.855,26.483-26.483,26.483H26.483C11.855,141.241,0,153.097,0,167.724
	v229.517c0,14.627,11.855,26.483,26.483,26.483h459.034c14.627,0,26.483-11.855,26.483-26.483V167.724
	c0-14.627-11.855-26.483-26.483-26.483h-88.276C382.614,141.241,370.759,129.386,370.759,114.759"/>
<path style="fill:#95ACB9;" d="M344.276,291.31c0,48.755-39.521,88.276-88.276,88.276s-88.276-39.521-88.276-88.276
	s39.521-88.276,88.276-88.276S344.276,242.556,344.276,291.31"/>
<g>
	<path style="fill:#667D8C;" d="M307.491,291.31c0,28.443-23.058,51.491-51.491,51.491c-28.442,0-51.5-23.049-51.5-51.491
		c0-28.442,23.058-51.491,51.5-51.491C284.434,239.819,307.491,262.868,307.491,291.31"/>
	<polygon style="fill:#667D8C;" points="344.276,158.897 282.483,158.897 282.483,123.586 317.793,123.586 	"/>
</g>
<path style="fill:#BDC3C7;" d="M105.931,141.241H35.31v-17.655c0-9.754,7.901-17.655,17.655-17.655h35.31
	c9.754,0,17.655,7.901,17.655,17.655V141.241z"/>
<g>
	<path style="fill:#667D8C;" d="M0,167.724v26.483h17.655c29.255,0,52.966-23.711,52.966-52.966l0,0H26.483
		C11.855,141.241,0,153.097,0,167.724"/>
	<path style="fill:#667D8C;" d="M512,167.724v26.483h-17.655c-29.255,0-52.966-23.711-52.966-52.966l0,0h44.138
		C500.145,141.241,512,153.097,512,167.724"/>
	<path style="fill:#667D8C;" d="M318.994,229.517c15.625,15.925,25.282,37.72,25.282,61.793s-9.657,45.868-25.282,61.793h122.386
		c14.627,0,26.483-11.855,26.483-26.483V256c0-14.627-11.855-26.483-26.483-26.483H318.994z"/>
	<path style="fill:#667D8C;" d="M167.724,291.31c0-24.073,9.657-45.868,25.282-61.793H70.621c-14.627,0-26.483,11.855-26.483,26.483
		v70.621c0,14.627,11.855,26.483,26.483,26.483h122.386C177.382,337.178,167.724,315.383,167.724,291.31"/>
</g>
<g>
	<path style="fill:#485762;" d="M114.759,291.31c0,4.873-3.955,8.828-8.828,8.828c-4.873,0-8.828-3.955-8.828-8.828
		c0-4.873,3.955-8.828,8.828-8.828C110.804,282.483,114.759,286.438,114.759,291.31"/>
	<path style="fill:#485762;" d="M414.897,291.31c0,4.873-3.955,8.828-8.828,8.828s-8.828-3.955-8.828-8.828
		c0-4.873,3.955-8.828,8.828-8.828S414.897,286.438,414.897,291.31"/>
</g>
<g>
	<path style="fill:#667D8C;" d="M485.517,388.414c0,4.873-3.955,8.828-8.828,8.828c-4.873,0-8.828-3.955-8.828-8.828
		s3.955-8.828,8.828-8.828C481.562,379.586,485.517,383.541,485.517,388.414"/>
	<path style="fill:#667D8C;" d="M450.207,388.414c0,4.873-3.955,8.828-8.828,8.828s-8.828-3.955-8.828-8.828
		s3.955-8.828,8.828-8.828S450.207,383.541,450.207,388.414"/>
	<path style="fill:#667D8C;" d="M414.897,388.414c0,4.873-3.955,8.828-8.828,8.828s-8.828-3.955-8.828-8.828
		s3.955-8.828,8.828-8.828S414.897,383.541,414.897,388.414"/>
	<polygon style="fill:#667D8C;" points="167.724,158.897 229.517,158.897 229.517,123.586 194.207,123.586 	"/>
</g>
<g>
</g>
<g>
</g>
<g>
</g>
<g>
</g>
<g>
</g>
<g>
</g>
<g>
</g>
<g>
</g>
<g>
</g>
<g>
</g>
<g>
</g>
<g>
</g>
<g>
</g>
<g>
</g>
<g>
</g>
</svg>
