<?xml version="1.0" encoding="iso-8859-1"?>
<!-- Generator: Adobe Illustrator 19.0.0, SVG Export Plug-In . SVG Version: 6.00 Build 0)  -->
<svg version="1.1" id="Layer_1" xmlns="http://www.w3.org/2000/svg" xmlns:xlink="http://www.w3.org/1999/xlink" x="0px" y="0px"
	 viewBox="0 0 512 512" style="enable-background:new 0 0 512 512;" xml:space="preserve">
<g>
	<polygon style="fill:#F3D55B;" points="167.033,222.243 81.122,308.146 0,225.627 104.136,112.814 	"/>
	<polygon style="fill:#F3D55B;" points="399.186,407.864 286.373,512 203.854,430.878 289.757,344.966 	"/>
</g>
<g>
	<polygon style="fill:#556080;" points="179.304,283.605 154.763,308.146 117.942,271.334 142.484,246.784 	"/>
	<polygon style="fill:#556080;" points="265.216,369.516 240.675,394.058 203.854,357.246 228.395,332.696 	"/>
</g>
<path style="fill:#95A5A5;" d="M357.255,154.745c44.058,44.058,71.532,88.012,61.362,98.182
	c-10.162,10.162-54.124-17.313-98.182-61.362c-44.049-44.058-71.524-88.012-61.362-98.183
	C269.243,83.213,313.196,110.687,357.255,154.745"/>
<path style="fill:#E6E7E8;" d="M320.443,200.235c-2.222,0-4.443-0.85-6.135-2.543c-3.393-3.393-3.393-8.878,0-12.271l70.066-70.066
	c3.393-3.393,8.886-3.393,12.271,0c3.393,3.384,3.393,8.878,0,12.271l-70.066,70.066
	C324.886,199.385,322.664,200.235,320.443,200.235"/>
<path style="fill:#95A5A5;" d="M402.779,109.221c6.777,6.777,6.777,17.764,0,24.541c-6.777,6.777-17.764,6.777-24.541,0
	c-6.777-6.777-6.777-17.764,0-24.541C385.015,102.443,396.002,102.443,402.779,109.221"/>
<g>
	<path style="fill:#E6E7E8;" d="M503.322,138.847c-4.79,0-8.678-3.879-8.678-8.678c0-62.204-50.61-112.814-112.814-112.814
		c-4.79,0-8.678-3.879-8.678-8.678S377.04,0,381.831,0C453.606,0,512,58.394,512,130.169
		C512,134.968,508.112,138.847,503.322,138.847"/>
	<path style="fill:#E6E7E8;" d="M451.254,138.847c-4.79,0-8.678-3.879-8.678-8.678c0-33.488-27.249-60.746-60.746-60.746
		c-4.79,0-8.678-3.879-8.678-8.678s3.888-8.678,8.678-8.678c43.06,0,78.102,35.033,78.102,78.102
		C459.932,134.968,456.044,138.847,451.254,138.847"/>
	<path style="fill:#E6E7E8;" d="M320.443,191.557c-44.058-44.058-71.532-88.012-61.362-98.183
		c-33.887,33.896-25.652,97.08,18.406,141.138s107.242,52.293,141.138,18.406C408.455,263.09,364.501,235.615,320.443,191.557"/>
</g>
<g>
	<path style="fill:#556080;" d="M197.71,400.193l-11.698,11.698c-7.099,7.099-18.597,7.099-25.695,0L100.1,351.675
		c-7.09-7.09-7.09-18.597,0-25.687l11.698-11.707L197.71,400.193z"/>
	<path style="fill:#556080;" d="M277.487,234.513c-18.337-18.337-30.364-39.979-35.84-61.449
		c-16.046,21.313-19.473,55.227-0.981,73.719l24.55,24.55c18.493,18.493,52.406,15.065,73.719-0.981
		C317.466,264.878,295.823,252.85,277.487,234.513"/>
</g>
<path style="fill:#E6E7E8;" d="M265.216,271.334l-24.541-24.541c-4.313-4.313-7.385-9.485-9.433-15.117l-101.02,101.02
	l49.091,49.091l101.02-101.02C274.701,278.719,269.529,275.647,265.216,271.334"/>
<g>
	<path style="fill:#CBB292;" d="M131.428,160.299c-0.651,0.373-1.328,0.694-1.883,1.25l-97.089,97.098l12.158,12.366
		c0.017-0.026,0.043-0.026,0.061-0.043l95.484-95.484L131.428,160.299z"/>
	<path style="fill:#CBB292;" d="M241.031,467.326c-0.017,0.017-0.026,0.043-0.043,0.061l12.366,12.158l97.089-97.08
		c0.555-0.564,0.876-1.241,1.25-1.892l-15.178-8.721L241.031,467.326z"/>
</g>
<g>
</g>
<g>
</g>
<g>
</g>
<g>
</g>
<g>
</g>
<g>
</g>
<g>
</g>
<g>
</g>
<g>
</g>
<g>
</g>
<g>
</g>
<g>
</g>
<g>
</g>
<g>
</g>
<g>
</g>
</svg>
