<?xml version="1.0" encoding="iso-8859-1"?>
<!-- Generator: Adobe Illustrator 19.0.0, SVG Export Plug-In . SVG Version: 6.00 Build 0)  -->
<svg version="1.1" id="Layer_1" xmlns="http://www.w3.org/2000/svg" xmlns:xlink="http://www.w3.org/1999/xlink" x="0px" y="0px"
	 viewBox="0 0 512 512" style="enable-background:new 0 0 512 512;" xml:space="preserve">
<g>
	<path style="fill:#BDC3C7;" d="M132.414,132.414h-8.828c-4.873,0-8.828-3.946-8.828-8.828s3.955-8.828,8.828-8.828h8.828
		c4.873,0,8.828,3.946,8.828,8.828S137.287,132.414,132.414,132.414"/>
	<path style="fill:#BDC3C7;" d="M132.414,167.724h-8.828c-4.873,0-8.828-3.946-8.828-8.828c0-4.882,3.955-8.828,8.828-8.828h8.828
		c4.873,0,8.828,3.946,8.828,8.828C141.241,163.778,137.287,167.724,132.414,167.724"/>
	<path style="fill:#BDC3C7;" d="M132.414,88.276h-8.828c-4.873,0-8.828-3.946-8.828-8.828c0-4.882,3.955-8.828,8.828-8.828h8.828
		c4.873,0,8.828,3.946,8.828,8.828C141.241,84.33,137.287,88.276,132.414,88.276"/>
</g>
<path style="fill:#485762;" d="M361.931,494.345H167.724c-19.5,0-35.31-15.81-35.31-35.31V52.966c0-19.5,15.81-35.31,35.31-35.31
	h194.207c19.5,0,35.31,15.81,35.31,35.31v406.069C397.241,478.535,381.431,494.345,361.931,494.345"/>
<g>
	<path style="fill:#ECF1F1;" d="M361.931,512H167.724c-19.5,0-35.31-15.81-35.31-35.31v-52.966h264.828v52.966
		C397.241,496.19,381.431,512,361.931,512"/>
	<path style="fill:#ECF1F1;" d="M397.241,70.621H132.414V35.31c0-19.5,15.81-35.31,35.31-35.31h194.207
		c19.5,0,35.31,15.81,35.31,35.31V70.621z"/>
</g>
<g>
	<path style="fill:#BDC3C7;" d="M282.483,467.862c0,9.754-7.901,17.655-17.655,17.655c-9.754,0-17.655-7.901-17.655-17.655
		s7.901-17.655,17.655-17.655C274.582,450.207,282.483,458.108,282.483,467.862"/>
	<path style="fill:#BDC3C7;" d="M282.483,44.138h-35.31c-4.873,0-8.828-3.946-8.828-8.828s3.955-8.828,8.828-8.828h35.31
		c4.873,0,8.828,3.946,8.828,8.828S287.356,44.138,282.483,44.138"/>
	<path style="fill:#BDC3C7;" d="M220.69,35.31c0,4.873-3.955,8.828-8.828,8.828c-4.873,0-8.828-3.955-8.828-8.828
		s3.955-8.828,8.828-8.828C216.735,26.483,220.69,30.438,220.69,35.31"/>
</g>
<polygon style="fill:#8697CB;" points="176.552,176.552 353.103,176.552 353.103,114.759 176.552,114.759 "/>
<path style="fill:#4FBA6F;" d="M256,238.345h-79.448c-4.873,0-8.828-3.946-8.828-8.828s3.955-8.828,8.828-8.828H256
	c4.873,0,8.828,3.946,8.828,8.828S260.873,238.345,256,238.345"/>
<path style="fill:#E64C3C;" d="M353.103,238.345h-44.138c-4.873,0-8.828-3.946-8.828-8.828s3.955-8.828,8.828-8.828h44.138
	c4.873,0,8.828,3.946,8.828,8.828S357.976,238.345,353.103,238.345"/>
<path style="fill:#8697CB;" d="M203.034,282.483h-26.483c-4.873,0-8.828-3.946-8.828-8.828s3.955-8.828,8.828-8.828h26.483
	c4.873,0,8.828,3.946,8.828,8.828S207.907,282.483,203.034,282.483"/>
<path style="fill:#F0C419;" d="M353.103,282.483H256c-4.873,0-8.828-3.946-8.828-8.828s3.955-8.828,8.828-8.828h97.103
	c4.873,0,8.828,3.946,8.828,8.828S357.976,282.483,353.103,282.483"/>
<path style="fill:#4FBA6F;" d="M256,326.621h-79.448c-4.873,0-8.828-3.946-8.828-8.828c0-4.882,3.955-8.828,8.828-8.828H256
	c4.873,0,8.828,3.946,8.828,8.828C264.828,322.675,260.873,326.621,256,326.621"/>
<path style="fill:#E64C3C;" d="M353.103,326.621h-44.138c-4.873,0-8.828-3.946-8.828-8.828c0-4.882,3.955-8.828,8.828-8.828h44.138
	c4.873,0,8.828,3.946,8.828,8.828C361.931,322.675,357.976,326.621,353.103,326.621"/>
<path style="fill:#8697CB;" d="M203.034,370.759h-26.483c-4.873,0-8.828-3.946-8.828-8.828c0-4.882,3.955-8.828,8.828-8.828h26.483
	c4.873,0,8.828,3.946,8.828,8.828C211.862,366.813,207.907,370.759,203.034,370.759"/>
<path style="fill:#F0C419;" d="M353.103,370.759H256c-4.873,0-8.828-3.946-8.828-8.828c0-4.882,3.955-8.828,8.828-8.828h97.103
	c4.873,0,8.828,3.946,8.828,8.828C361.931,366.813,357.976,370.759,353.103,370.759"/>
<g>
</g>
<g>
</g>
<g>
</g>
<g>
</g>
<g>
</g>
<g>
</g>
<g>
</g>
<g>
</g>
<g>
</g>
<g>
</g>
<g>
</g>
<g>
</g>
<g>
</g>
<g>
</g>
<g>
</g>
</svg>
