<?xml version="1.0" encoding="iso-8859-1"?>
<!-- Generator: Adobe Illustrator 19.0.0, SVG Export Plug-In . SVG Version: 6.00 Build 0)  -->
<svg version="1.1" id="Layer_1" xmlns="http://www.w3.org/2000/svg" xmlns:xlink="http://www.w3.org/1999/xlink" x="0px" y="0px"
	 viewBox="0 0 512 512" style="enable-background:new 0 0 512 512;" xml:space="preserve">
<g>
	<path style="fill:#BDC3C7;" d="M132.414,132.414h-8.828c-4.882,0-8.828-3.946-8.828-8.828s3.946-8.828,8.828-8.828h8.828
		c4.882,0,8.828,3.946,8.828,8.828S137.295,132.414,132.414,132.414"/>
	<path style="fill:#BDC3C7;" d="M132.414,167.724h-8.828c-4.882,0-8.828-3.946-8.828-8.828c0-4.882,3.946-8.828,8.828-8.828h8.828
		c4.882,0,8.828,3.946,8.828,8.828C141.241,163.778,137.295,167.724,132.414,167.724"/>
	<path style="fill:#BDC3C7;" d="M132.414,88.276h-8.828c-4.882,0-8.828-3.946-8.828-8.828c0-4.882,3.946-8.828,8.828-8.828h8.828
		c4.882,0,8.828,3.946,8.828,8.828C141.241,84.33,137.295,88.276,132.414,88.276"/>
</g>
<path style="fill:#667D8C;" d="M361.931,494.345H167.724c-19.5,0-35.31-15.81-35.31-35.31V52.966c0-19.5,15.81-35.31,35.31-35.31
	h194.207c19.5,0,35.31,15.81,35.31,35.31v406.069C397.241,478.535,381.431,494.345,361.931,494.345"/>
<path style="fill:#ECF1F1;" d="M361.931,512H167.724c-19.5,0-35.31-15.81-35.31-35.31v-52.966h264.828v52.966
	C397.241,496.19,381.431,512,361.931,512"/>
<path style="fill:#FDC693;" d="M317.793,238.345c0,29.255-23.711,52.965-52.966,52.965s-52.966-23.711-52.966-52.965
	c0-29.255,23.711-52.966,52.966-52.966S317.793,209.09,317.793,238.345"/>
<path style="fill:#8697CB;" d="M303.033,309.937c-11.732,5.041-24.647,7.857-38.206,7.857c-13.568,0-26.474-2.816-38.215-7.857
	c-24.576,13.506-41.234,39.627-41.234,69.65v44.138h158.897v-44.138C344.276,349.564,327.609,323.443,303.033,309.937"/>
<polygon style="fill:#F0C419;" points="291.31,344.276 264.828,397.241 238.345,344.276 264.828,317.793 "/>
<path style="fill:#BDC3C7;" d="M282.483,467.862c0,9.754-7.901,17.655-17.655,17.655c-9.754,0-17.655-7.901-17.655-17.655
	s7.901-17.655,17.655-17.655C274.582,450.207,282.483,458.108,282.483,467.862"/>
<path style="fill:#ECF1F1;" d="M397.241,70.621H132.414V35.31c0-19.5,15.81-35.31,35.31-35.31h194.207
	c19.5,0,35.31,15.81,35.31,35.31V70.621z"/>
<g>
	<path style="fill:#BDC3C7;" d="M282.483,44.138h-35.31c-4.882,0-8.828-3.946-8.828-8.828s3.946-8.828,8.828-8.828h35.31
		c4.882,0,8.828,3.946,8.828,8.828S287.364,44.138,282.483,44.138"/>
	<path style="fill:#BDC3C7;" d="M220.69,35.31c0,4.873-3.955,8.828-8.828,8.828c-4.873,0-8.828-3.955-8.828-8.828
		s3.955-8.828,8.828-8.828C216.735,26.483,220.69,30.438,220.69,35.31"/>
</g>
<polygon style="fill:#F0C419;" points="167.724,141.241 361.931,141.241 361.931,105.931 167.724,105.931 "/>
<g>
</g>
<g>
</g>
<g>
</g>
<g>
</g>
<g>
</g>
<g>
</g>
<g>
</g>
<g>
</g>
<g>
</g>
<g>
</g>
<g>
</g>
<g>
</g>
<g>
</g>
<g>
</g>
<g>
</g>
</svg>
