<?xml version="1.0" encoding="iso-8859-1"?>
<!-- Generator: Adobe Illustrator 19.0.0, SVG Export Plug-In . SVG Version: 6.00 Build 0)  -->
<svg version="1.1" id="Layer_1" xmlns="http://www.w3.org/2000/svg" xmlns:xlink="http://www.w3.org/1999/xlink" x="0px" y="0px"
	 viewBox="0 0 512 512" style="enable-background:new 0 0 512 512;" xml:space="preserve">
<path style="fill:#485762;" d="M507.661,355.797H4.339V34.712C4.339,15.542,19.881,0,39.051,0h433.898
	c19.17,0,34.712,15.542,34.712,34.712V355.797z"/>
<path style="fill:#ECF1F1;" d="M472.949,425.22H39.051c-19.17,0-34.712-15.542-34.712-34.712v-34.712h503.322v34.712
	C507.661,409.678,492.119,425.22,472.949,425.22"/>
<polygon style="fill:#BDC3C7;" points="334.102,503.322 177.898,503.322 203.932,425.22 308.068,425.22 "/>
<path style="fill:#ECF1F1;" d="M351.458,512H160.542c-4.799,0-8.678-3.879-8.678-8.678c0-4.799,3.879-8.678,8.678-8.678h190.915
	c4.799,0,8.678,3.879,8.678,8.678C360.136,508.121,356.257,512,351.458,512"/>
<path style="fill:#E64C3C;" d="M282.034,60.746c0-14.379-11.655-26.034-26.034-26.034c-14.379,0-26.034,11.655-26.034,26.034
	S241.621,86.78,256,86.78C270.379,86.78,282.034,75.125,282.034,60.746"/>
<path style="fill:#4FBA6F;" d="M464.271,52.068H325.424c-4.799,0-8.678-3.879-8.678-8.678s3.879-8.678,8.678-8.678h138.847
	c4.799,0,8.678,3.879,8.678,8.678S469.07,52.068,464.271,52.068"/>
<path style="fill:#8697CB;" d="M368.814,86.78h-43.39c-4.799,0-8.678-3.879-8.678-8.678s3.879-8.678,8.678-8.678h43.39
	c4.799,0,8.678,3.879,8.678,8.678S373.612,86.78,368.814,86.78"/>
<path style="fill:#E64C3C;" d="M464.271,86.78h-60.746c-4.799,0-8.678-3.879-8.678-8.678s3.879-8.678,8.678-8.678h60.746
	c4.799,0,8.678,3.879,8.678,8.678S469.07,86.78,464.271,86.78"/>
<path style="fill:#F0C419;" d="M177.898,86.78H67.957c-11.169,0-20.228-9.06-20.228-20.228V54.94
	c0-11.169,9.06-20.228,20.228-20.228h109.941c11.169,0,20.228,9.06,20.228,20.228v11.611C198.127,77.72,189.067,86.78,177.898,86.78
	"/>
<path style="fill:#4FBA6F;" d="M464.271,138.847H47.729c-4.799,0-8.678-3.879-8.678-8.678s3.879-8.678,8.678-8.678h416.542
	c4.799,0,8.678,3.879,8.678,8.678S469.07,138.847,464.271,138.847"/>
<g>
	<polygon style="fill:#8697CB;" points="47.729,312.407 186.576,312.407 186.576,173.559 47.729,173.559 	"/>
	<path style="fill:#8697CB;" d="M464.271,182.237H282.034c-4.799,0-8.678-3.879-8.678-8.678c0-4.799,3.879-8.678,8.678-8.678
		h182.237c4.799,0,8.678,3.879,8.678,8.678C472.949,178.358,469.07,182.237,464.271,182.237"/>
</g>
<path style="fill:#F0C419;" d="M247.322,182.237h-26.034c-4.799,0-8.678-3.879-8.678-8.678c0-4.799,3.879-8.678,8.678-8.678h26.034
	c4.799,0,8.678,3.879,8.678,8.678C256,178.358,252.121,182.237,247.322,182.237"/>
<path style="fill:#4FBA6F;" d="M464.271,286.373h-86.78c-4.799,0-8.678-3.879-8.678-8.678s3.879-8.678,8.678-8.678h86.78
	c4.799,0,8.678,3.879,8.678,8.678S469.07,286.373,464.271,286.373"/>
<path style="fill:#E64C3C;" d="M342.78,286.373H221.288c-4.799,0-8.678-3.879-8.678-8.678s3.879-8.678,8.678-8.678H342.78
	c4.799,0,8.678,3.879,8.678,8.678S347.579,286.373,342.78,286.373"/>
<path style="fill:#F0C419;" d="M464.271,321.085H282.034c-4.799,0-8.678-3.879-8.678-8.678c0-4.799,3.879-8.678,8.678-8.678h182.237
	c4.799,0,8.678,3.879,8.678,8.678C472.949,317.206,469.07,321.085,464.271,321.085"/>
<path style="fill:#8697CB;" d="M247.322,321.085h-26.034c-4.799,0-8.678-3.879-8.678-8.678c0-4.799,3.879-8.678,8.678-8.678h26.034
	c4.799,0,8.678,3.879,8.678,8.678C256,317.206,252.121,321.085,247.322,321.085"/>
<path style="fill:#4FBA6F;" d="M386.169,216.949h-17.356c-4.799,0-8.678-3.879-8.678-8.678c0-4.799,3.879-8.678,8.678-8.678h17.356
	c4.799,0,8.678,3.879,8.678,8.678C394.847,213.07,390.968,216.949,386.169,216.949"/>
<path style="fill:#F0C419;" d="M464.271,216.949h-43.39c-4.799,0-8.678-3.879-8.678-8.678c0-4.799,3.879-8.678,8.678-8.678h43.39
	c4.799,0,8.678,3.879,8.678,8.678C472.949,213.07,469.07,216.949,464.271,216.949"/>
<path style="fill:#E64C3C;" d="M334.102,216.949H221.288c-4.799,0-8.678-3.879-8.678-8.678c0-4.799,3.879-8.678,8.678-8.678h112.814
	c4.799,0,8.678,3.879,8.678,8.678C342.78,213.07,338.901,216.949,334.102,216.949"/>
<path style="fill:#F0C419;" d="M464.271,251.661H325.424c-4.799,0-8.678-3.879-8.678-8.678c0-4.799,3.879-8.678,8.678-8.678h138.847
	c4.799,0,8.678,3.879,8.678,8.678C472.949,247.782,469.07,251.661,464.271,251.661"/>
<path style="fill:#8697CB;" d="M290.712,251.661h-69.424c-4.799,0-8.678-3.879-8.678-8.678c0-4.799,3.879-8.678,8.678-8.678h69.424
	c4.799,0,8.678,3.879,8.678,8.678C299.39,247.782,295.511,251.661,290.712,251.661"/>
<path style="fill:#F38774;" d="M151.864,312.407H82.441v-17.356c0-19.17,15.542-34.712,34.712-34.712s34.712,15.542,34.712,34.712
	V312.407z"/>
<path style="fill:#FDC693;" d="M143.186,234.305c0-14.379-11.655-26.034-26.034-26.034s-26.034,11.655-26.034,26.034
	c0,14.379,11.655,26.034,26.034,26.034S143.186,248.684,143.186,234.305"/>
<g>
</g>
<g>
</g>
<g>
</g>
<g>
</g>
<g>
</g>
<g>
</g>
<g>
</g>
<g>
</g>
<g>
</g>
<g>
</g>
<g>
</g>
<g>
</g>
<g>
</g>
<g>
</g>
<g>
</g>
</svg>
