<?xml version="1.0" encoding="iso-8859-1"?>
<!-- Generator: Adobe Illustrator 19.0.0, SVG Export Plug-In . SVG Version: 6.00 Build 0)  -->
<svg version="1.1" id="Layer_1" xmlns="http://www.w3.org/2000/svg" xmlns:xlink="http://www.w3.org/1999/xlink" x="0px" y="0px"
	 viewBox="0 0 512 512" style="enable-background:new 0 0 512 512;" xml:space="preserve">
<polygon style="fill:#BDC3C7;" points="334.102,503.322 177.898,503.322 203.932,416.542 308.068,416.542 "/>
<path style="fill:#ECF1F1;" d="M351.458,512H160.542c-4.79,0-8.678-3.879-8.678-8.678c0-4.799,3.888-8.678,8.678-8.678h190.915
	c4.79,0,8.678,3.879,8.678,8.678C360.136,508.121,356.248,512,351.458,512"/>
<path style="fill:#485762;" d="M507.661,347.119H4.339V34.712C4.339,15.542,19.881,0,39.051,0h433.898
	c19.17,0,34.712,15.542,34.712,34.712V347.119z"/>
<path style="fill:#ECF1F1;" d="M472.949,416.542H39.051c-19.17,0-34.712-15.542-34.712-34.712v-34.712h503.322v34.712
	C507.661,401,492.119,416.542,472.949,416.542"/>
<path style="fill:#26B999;" d="M386.169,173.559c0,71.888-58.281,130.169-130.169,130.169s-130.169-58.281-130.169-130.169
	S184.112,43.39,256,43.39S386.169,101.671,386.169,173.559"/>
<g>
	<path style="fill:#FFFFFF;" d="M325.424,225.627c-4.79,0-8.678-3.879-8.678-8.678c0-57.422-46.713-104.136-104.136-104.136
		c-4.79,0-8.678-3.879-8.678-8.678c0-4.799,3.888-8.678,8.678-8.678c66.994,0,121.492,54.498,121.492,121.492
		C334.102,221.748,330.214,225.627,325.424,225.627"/>
	<path style="fill:#FFFFFF;" d="M290.712,225.627c-4.79,0-8.678-3.879-8.678-8.678c0-38.279-31.145-69.424-69.424-69.424
		c-4.79,0-8.678-3.879-8.678-8.678s3.888-8.678,8.678-8.678c47.85,0,86.78,38.929,86.78,86.78
		C299.39,221.748,295.502,225.627,290.712,225.627"/>
	<path style="fill:#FFFFFF;" d="M256,225.627c-4.79,0-8.678-3.879-8.678-8.678c0-19.144-15.568-34.712-34.712-34.712
		c-4.79,0-8.678-3.879-8.678-8.678c0-4.799,3.888-8.678,8.678-8.678c28.715,0,52.068,23.352,52.068,52.068
		C264.678,221.748,260.79,225.627,256,225.627"/>
	<path style="fill:#FFFFFF;" d="M221.288,216.949c0,4.79-3.888,8.678-8.678,8.678s-8.678-3.888-8.678-8.678s3.888-8.678,8.678-8.678
		S221.288,212.159,221.288,216.949"/>
</g>
<g>
</g>
<g>
</g>
<g>
</g>
<g>
</g>
<g>
</g>
<g>
</g>
<g>
</g>
<g>
</g>
<g>
</g>
<g>
</g>
<g>
</g>
<g>
</g>
<g>
</g>
<g>
</g>
<g>
</g>
</svg>
