<?xml version="1.0" encoding="iso-8859-1"?>
<!-- Generator: Adobe Illustrator 19.0.0, SVG Export Plug-In . SVG Version: 6.00 Build 0)  -->
<svg version="1.1" id="Layer_1" xmlns="http://www.w3.org/2000/svg" xmlns:xlink="http://www.w3.org/1999/xlink" x="0px" y="0px"
	 viewBox="0 0 512 512" style="enable-background:new 0 0 512 512;" xml:space="preserve">
<path style="fill:#97989A;" d="M116.623,85.903c-2.222,0-4.443-0.85-6.135-2.543L78.371,51.252c-3.393-3.393-3.393-8.886,0-12.271
	c3.384-3.393,8.878-3.393,12.271,0l32.117,32.108c3.393,3.393,3.393,8.878,0,12.271C121.066,85.053,118.853,85.903,116.623,85.903"
	/>
<path style="fill:#5B5B5B;" d="M177.898,451.254c0,33.549-27.197,60.746-60.746,60.746s-60.746-27.197-60.746-60.746
	s27.197-60.746,60.746-60.746S177.898,417.705,177.898,451.254"/>
<path style="fill:#B2B2B2;" d="M141.451,451.254c0,13.416-10.882,24.298-24.298,24.298s-24.298-10.882-24.298-24.298
	s10.882-24.298,24.298-24.298S141.451,437.838,141.451,451.254"/>
<path style="fill:#5B5B5B;" d="M455.593,451.254c0,33.549-27.197,60.746-60.746,60.746s-60.746-27.197-60.746-60.746
	s27.197-60.746,60.746-60.746S455.593,417.705,455.593,451.254"/>
<path style="fill:#B2B2B2;" d="M419.146,451.254c0,13.416-10.882,24.298-24.298,24.298c-13.416,0-24.298-10.882-24.298-24.298
	s10.882-24.298,24.298-24.298C408.264,426.956,419.146,437.838,419.146,451.254"/>
<path style="fill:#FFCC5C;" d="M429.559,303.729l-59.921-82.389c-5.97-8.209-15.508-13.069-25.661-13.069H36.074
	c-17.529,0-31.735,14.206-31.735,31.735v179.512c0,17.529,14.206,31.735,31.735,31.735h2.977c0-43.138,34.964-78.102,78.102-78.102
	s78.102,34.964,78.102,78.102h121.492c0-43.138,34.964-78.102,78.102-78.102s78.102,34.964,78.102,78.102h2.977
	c17.529,0,31.735-14.206,31.735-31.735v-58.203c0-13.659-8.739-25.791-21.704-30.113L429.559,303.729z"/>
<polygon style="fill:#94CAEF;" points="377.492,321.085 264.678,321.085 264.678,251.661 334.102,251.661 "/>
<g>
	<path style="fill:#DBA436;" d="M299.39,373.153h-34.712c-4.799,0-8.678-3.879-8.678-8.678s3.879-8.678,8.678-8.678h34.712
		c4.799,0,8.678,3.879,8.678,8.678S304.189,373.153,299.39,373.153"/>
	<polygon style="fill:#DBA436;" points="56.407,321.085 212.61,321.085 212.61,251.661 56.407,251.661 	"/>
</g>
<path style="fill:#FFCC5C;" d="M177.898,295.051h-86.78c-4.799,0-8.678-3.879-8.678-8.678c0-4.799,3.879-8.678,8.678-8.678h86.78
	c4.799,0,8.678,3.879,8.678,8.678C186.576,291.172,182.697,295.051,177.898,295.051"/>
<path style="fill:#D8DCDC;" d="M190.264,3.593L42.999,150.866c40.665,40.665,106.6,40.665,147.265,0
	C230.929,110.193,230.929,44.258,190.264,3.593"/>
<path style="fill:#97989A;" d="M125.831,180.927v27.344h34.712v-36.725C149.487,176.692,137.754,179.877,125.831,180.927"/>
<path style="fill:#D8DCDC;" d="M91.119,26.034c0,14.379-11.655,26.034-26.034,26.034S39.051,40.413,39.051,26.034S50.705,0,65.085,0
	S91.119,11.655,91.119,26.034"/>
<g>
	<path style="fill:#DBA436;" d="M507.661,381.831v-20.515c0-5.051-1.206-9.884-3.367-14.197h-40.023v19.916
		c0,8.175,6.621,14.796,14.796,14.796H507.661z"/>
	<path style="fill:#DBA436;" d="M460.557,409.14c3.211,4.999,5.84,10.388,7.854,16.08h38.678c0.338-1.857,0.573-3.749,0.573-5.71
		v-11.646h-42.834C463.239,407.864,461.833,408.402,460.557,409.14"/>
	<path style="fill:#DBA436;" d="M190.716,425.22h130.569c2.048-5.788,4.729-11.273,8.018-16.341
		c-1.18-0.599-2.465-1.015-3.879-1.015H187.123c-1.588,0-2.985,0.538-4.261,1.276C186.073,414.139,188.702,419.528,190.716,425.22"
		/>
	<path style="fill:#DBA436;" d="M4.912,425.22h38.678c2.013-5.693,4.643-11.082,7.854-16.08c-1.276-0.738-2.673-1.276-4.261-1.276
		H4.339v11.654C4.339,421.471,4.573,423.363,4.912,425.22"/>
</g>
<g>
</g>
<g>
</g>
<g>
</g>
<g>
</g>
<g>
</g>
<g>
</g>
<g>
</g>
<g>
</g>
<g>
</g>
<g>
</g>
<g>
</g>
<g>
</g>
<g>
</g>
<g>
</g>
<g>
</g>
</svg>
