<svg height="512pt" viewBox="0 -94 512 512" width="512pt" xmlns="http://www.w3.org/2000/svg"><path d="m512 41.570312v239.964844c0 22.957032-18.613281 41.570313-41.570312 41.570313h-428.859376c-22.957031.003906-41.570312-18.609375-41.570312-41.570313v-239.964844c0-22.957031 18.613281-41.570312 41.570312-41.570312h428.855469c22.960938 0 41.574219 18.613281 41.574219 41.570312zm0 0" fill="#69ebfc"/><path d="m470.429688 0h-428.859376c-22.957031 0-41.570312 18.613281-41.570312 41.570312v14c0-22.957031 18.613281-41.570312 41.570312-41.570312h428.855469c22.960938 0 41.570313 18.613281 41.570313 41.570312v-14c.003906-22.957031-18.609375-41.570312-41.566406-41.570312zm0 0" fill="#a1f1fc"/><path d="m41.570312 323.109375h428.855469c22.960938 0 41.570313-18.613281 41.570313-41.574219v-14c0 22.960938-18.609375 41.574219-41.570313 41.574219h-428.855469c-22.957031 0-41.570312-18.613281-41.570312-41.574219v14c0 22.960938 18.613281 41.574219 41.570312 41.574219zm0 0" fill="#5fd4e3"/><path d="m492 281.535156c0 11.894532-9.679688 21.574219-21.570312 21.574219h-402.859376c-11.890624 0-21.570312-9.679687-21.570312-21.574219v-239.964844c0-11.890624 9.679688-21.570312 21.570312-21.570312h402.859376c11.890624 0 21.570312 9.679688 21.570312 21.570312zm0 0" fill="#ffefe4"/><path d="m67.570312 303.109375h234.984376l-125.652344-217.640625-122.878906 212.832031c3.707031 3 8.417968 4.808594 13.546874 4.808594zm0 0" fill="#edd4c2"/><path d="m447.285156 303.109375-94.660156-163.960937-94.664062 163.960937zm0 0" fill="#f1ddce"/><path d="m429.761719 83.808594c0 19.484375-15.796875 35.28125-35.28125 35.28125s-35.28125-15.796875-35.28125-35.28125 15.796875-35.277344 35.28125-35.277344 35.28125 15.792969 35.28125 35.277344zm0 0" fill="#fff"/><g fill="#5861c7"><path d="m269 213.578125c-28.6875 0-52.023438-23.339844-52.023438-52.023437 0-28.6875 23.335938-52.023438 52.023438-52.023438s52.023438 23.335938 52.023438 52.023438c0 28.683593-23.335938 52.023437-52.023438 52.023437zm0-80.046875c-15.453125 0-28.023438 12.570312-28.023438 28.023438 0 15.453124 12.574219 28.023437 28.023438 28.023437s28.023438-12.570313 28.023438-28.023437c0-15.453126-12.570313-28.023438-28.023438-28.023438zm0 0"/><path d="m90 112.476562h-24v-60.476562c0-6.625 5.375-12 12-12h60.476562v24h-48.476562zm0 0"/><path d="m138.476562 283.109375h-60.476562c-6.625 0-12-5.375-12-12v-60.480469h24v48.480469h48.476562zm0 0"/><path d="m472 112.476562h-24v-48.476562h-48.476562v-24h60.476562c6.625 0 12 5.375 12 12zm0 0"/><path d="m460 283.109375h-60.476562v-24h48.476562v-48.480469h24v60.480469c0 6.625-5.375 12-12 12zm0 0"/></g><path d="m31.828125 120.28125v112.546875c0 4.96875-4.03125 9-9 9s-9-4.03125-9-9v-112.546875c0-4.972656 4.03125-9 9-9s9 4.027344 9 9zm0 0" fill="#5fd4e3"/><path d="m31.828125 90.28125c0 4.96875-4.03125 9-9 9s-9-4.03125-9-9c0-4.972656 4.03125-9 9-9s9 4.027344 9 9zm0 0" fill="#5fd4e3"/></svg>