<svg height="512pt" viewBox="0 -6 512 511" width="512pt" xmlns="http://www.w3.org/2000/svg"><path d="m9.1875 169.214844h493.621094c5.074218 0 9.1875 4.113281 9.1875 9.1875v311.15625c0 5.074218-4.113282 9.1875-9.1875 9.1875h-493.621094c-5.074219 0-9.1875-4.113282-9.1875-9.1875v-311.152344c0-5.078125 4.113281-9.191406 9.1875-9.191406zm0 0" fill="#ffefe4"/><path d="m9.1875 498.746094h493.625c5.074219 0 9.1875-4.113282 9.1875-9.1875v-14c0 5.074218-4.113281 9.1875-9.1875 9.1875h-493.625c-5.074219 0-9.1875-4.113282-9.1875-9.1875v14c0 5.074218 4.113281 9.1875 9.1875 9.1875zm0 0" fill="#edd4c2"/><path d="m502.8125 169.214844h-493.625c-5.074219 0-9.1875 4.113281-9.1875 9.191406v14c0-5.074219 4.113281-9.1875 9.1875-9.1875h493.625c5.074219 0 9.1875 4.113281 9.1875 9.1875v-14c0-5.078125-4.113281-9.191406-9.1875-9.191406zm0 0" fill="#fff7f2"/><path d="m482 277.496094v184.722656c0 5.074219-4.113281 9.1875-9.1875 9.1875h-433.625c-5.074219 0-9.1875-4.113281-9.1875-9.1875v-184.722656c0-5.070313 4.113281-9.1875 9.1875-9.1875h433.621094c5.078125 0 9.191406 4.117187 9.191406 9.1875zm0 0" fill="#fff7f2"/><path d="m30 413.816406v-43.957031h452v43.957031zm0 0" fill="#ff8354"/><path d="m30 369.859375v-43.957031h452v43.957031zm0 0" fill="#d476e2"/><path d="m429.800781 163.957031-15.839843 58.546875c-1.085938 4.007813-4.722657 6.789063-8.871094 6.789063h-298.179688c-4.148437 0-7.785156-2.78125-8.871094-6.789063l-15.839843-58.546875c-1.171875-4.328125 2.085937-8.582031 6.566406-8.582031h334.464844c4.484375 0 7.742187 4.253906 6.570312 8.582031zm0 0" fill="#edd4c2"/><path d="m84.160156 171.210938c1.203125-1.117188 2.792969-1.835938 4.609375-1.835938h334.464844c1.8125 0 3.40625.71875 4.605469 1.835938l1.960937-7.253907c1.171875-4.328125-2.085937-8.582031-6.566406-8.582031h-334.46875c-4.480469 0-7.738281 4.253906-6.566406 8.582031zm0 0" fill="#ffefe4"/><path d="m94.652344 413.816406v-87.914062h322.695312v87.914062zm0 0" fill="#edd4c2"/><g fill="#8f95e6"><path d="m403.265625 369.859375c0 14.492187-11.75 26.242187-26.242187 26.242187-14.492188 0-26.242188-11.75-26.242188-26.242187s11.75-26.242187 26.242188-26.242187c14.492187 0 26.242187 11.75 26.242187 26.242187zm0 0"/><path d="m161.21875 369.859375c0 14.492187-11.75 26.242187-26.242188 26.242187-14.492187 0-26.242187-11.75-26.242187-26.242187s11.75-26.242187 26.242187-26.242187c14.492188 0 26.242188 11.75 26.242188 26.242187zm0 0"/><path d="m332.203125 396.101562h-152.40625v-52.484374h152.40625zm0 0"/></g><path d="m332.203125 343.617188h-64.40625c-2.015625 8.421874-3.113281 17.203124-3.113281 26.242187s1.097656 17.820313 3.113281 26.242187h64.40625zm0 0" fill="#4e56b0"/><path d="m247.316406 369.859375c0-9.039063-1.097656-17.820313-3.113281-26.242187h-64.40625v52.484374h64.40625c2.015625-8.421874 3.113281-17.203124 3.113281-26.242187zm0 0" fill="#4e56b0"/><path d="m398.765625 183.457031c0 5.535157-4.488281 10.023438-10.027344 10.023438-5.535156 0-10.023437-4.488281-10.023437-10.023438 0-5.539062 4.488281-10.023437 10.023437-10.023437 5.539063 0 10.027344 4.484375 10.027344 10.023437zm0 0" fill="#ffefe4"/><path d="m130.472656 183.457031c0 5.535157-4.488281 10.023438-10.023437 10.023438-5.535157 0-10.023438-4.488281-10.023438-10.023438 0-5.539062 4.488281-10.023437 10.023438-10.023437 5.535156 0 10.023437 4.484375 10.023437 10.023437zm0 0" fill="#ffefe4"/><path d="m398.730469 155.375h-18v-8.59375c0-27.253906 22.175781-49.429688 49.429687-49.429688 17.332032 0 31.433594-14.097656 31.433594-31.429687 0-26.148437-21.273438-47.421875-47.417969-47.421875h-316.351562c-26.144531 0-47.417969 21.273438-47.417969 47.421875 0 17.332031 14.101562 31.429687 31.433594 31.429687 27.253906 0 49.429687 22.175782 49.429687 49.429688v8.59375h-18v-8.59375c0-17.332031-14.101562-31.429688-31.429687-31.429688-27.257813 0-49.433594-22.171874-49.433594-49.429687 0-36.074219 29.347656-65.421875 65.417969-65.421875h316.351562c36.070313 0 65.417969 29.347656 65.417969 65.421875 0 27.253906-22.175781 49.429687-49.433594 49.429687-17.328125 0-31.429687 14.101563-31.429687 31.429688zm0 0" fill="#4e56b0"/></svg>