<svg height="512pt" viewBox="0 0 512 512" width="512pt" xmlns="http://www.w3.org/2000/svg"><path d="m497.769531 395.148438h-483.539062c-7.859375 0-14.230469-6.371094-14.230469-14.234376v-366.683593c0-7.859375 6.371094-14.230469 14.230469-14.230469h483.535156c7.863281 0 14.234375 6.371094 14.234375 14.230469v366.683593c0 7.863282-6.371094 14.234376-14.230469 14.234376zm0 0" fill="#6770e6"/><path d="m497.769531 0h-483.539062c-7.859375 0-14.230469 6.371094-14.230469 14.230469v14c0-7.859375 6.371094-14.230469 14.230469-14.230469h483.539062c7.859375 0 14.230469 6.371094 14.230469 14.230469v-14c0-7.859375-6.371094-14.230469-14.230469-14.230469zm0 0" fill="#8f95e6"/><path d="m30 350.914062v-306.683593c0-7.859375 6.371094-14.230469 14.230469-14.230469h423.535156c7.859375 0 14.230469 6.371094 14.230469 14.230469v306.683593c0 7.863282-6.371094 14.234376-14.230469 14.234376h-423.535156c-7.859375 0-14.230469-6.371094-14.230469-14.234376zm0 0" fill="#ffefe4"/><path d="m173.238281 30h-129.007812c-7.859375 0-14.230469 6.371094-14.230469 14.230469v306.683593c0 7.863282 6.371094 14.234376 14.230469 14.234376h129.007812zm0 0" fill="#b665c2"/><path d="m196.277344 395.148438h121.894531v76.871093h-121.894531zm0 0" fill="#5861c7"/><path d="m375.808594 512h-236.601563c-11.039062 0-19.988281-8.949219-19.988281-19.988281 0-11.042969 8.949219-19.992188 19.988281-19.992188h236.601563c11.042968 0 19.992187 8.949219 19.992187 19.992188 0 11.039062-8.949219 19.988281-19.992187 19.988281zm0 0" fill="#6770e6"/><path d="m375.808594 498h-236.601563c-8.574219 0-15.863281-5.40625-18.703125-12.988281-.820312 2.179687-1.289062 4.53125-1.289062 7 0 11.039062 8.949218 19.988281 19.992187 19.988281h236.601563c11.039062 0 19.988281-8.949219 19.988281-19.988281 0-2.46875-.46875-4.820313-1.285156-7-2.835938 7.582031-10.128907 12.988281-18.703125 12.988281zm0 0" fill="#5861c7"/><path d="m394.78125 111.539062h-134.324219c-18.84375 0-34.121093 15.277344-34.121093 34.121094v100.089844c0 18.847656 15.277343 34.121094 34.121093 34.121094h5.824219v35.976562c0 5.675782 6.859375 8.515625 10.875 4.503906l40.476562-40.476562h77.148438c18.847656 0 34.121094-15.277344 34.121094-34.121094v-100.09375c0-18.84375-15.277344-34.121094-34.121094-34.121094zm0 0" fill="#d476e2"/><path d="m355.523438 170.648438h-92.054688c-4.292969 0-7.773438-3.480469-7.773438-7.773438 0-4.296875 3.480469-7.777344 7.773438-7.777344h92.054688c4.292968 0 7.777343 3.480469 7.777343 7.777344s-3.484375 7.773438-7.777343 7.773438zm0 0" fill="#ffefe4"/><path d="m376.230469 237.964844h-111.945313c-4.296875 0-7.777344-3.484375-7.777344-7.777344s3.480469-7.777344 7.777344-7.777344h111.945313c4.292969 0 7.777343 3.484375 7.777343 7.777344s-3.480468 7.777344-7.777343 7.777344zm0 0" fill="#ffefe4"/><path d="m391.769531 188.757812h-128.296875c-4.292968 0-7.777344 3.480469-7.777344 7.773438s3.484376 7.777344 7.777344 7.777344h128.296875c4.292969 0 7.773438-3.484375 7.773438-7.777344s-3.480469-7.773438-7.773438-7.773438zm0 0" fill="#ffefe4"/><path d="m467.769531 30h-423.539062c-7.859375 0-14.230469 6.371094-14.230469 14.230469v24.390625h452v-24.390625c0-7.859375-6.371094-14.230469-14.230469-14.230469zm0 0" fill="#d476e2"/><g fill="#ea82fa"><path d="m84.589844 118.566406c0 9.339844-7.570313 16.910156-16.910156 16.910156-9.339844 0-16.910157-7.570312-16.910157-16.910156 0-9.335937 7.570313-16.910156 16.910157-16.910156 9.339843 0 16.910156 7.574219 16.910156 16.910156zm0 0"/><path d="m84.589844 184.113281c0 9.335938-7.570313 16.910157-16.910156 16.910157-9.339844 0-16.910157-7.574219-16.910157-16.910157 0-9.339843 7.570313-16.910156 16.910157-16.910156 9.339843 0 16.910156 7.570313 16.910156 16.910156zm0 0"/><path d="m84.589844 249.65625c0 9.339844-7.570313 16.910156-16.910156 16.910156-9.339844 0-16.910157-7.570312-16.910157-16.910156 0-9.335938 7.570313-16.910156 16.910157-16.910156 9.339843 0 16.910156 7.574218 16.910156 16.910156zm0 0"/><path d="m84.589844 315.203125c0 9.339844-7.570313 16.910156-16.910156 16.910156-9.339844 0-16.910157-7.570312-16.910157-16.910156s7.570313-16.910156 16.910157-16.910156c9.339843 0 16.910156 7.570312 16.910156 16.910156zm0 0"/><path d="m146.78125 124.257812h-37.746094c-3.144531 0-5.691406-2.546874-5.691406-5.691406 0-3.140625 2.546875-5.6875 5.691406-5.6875h37.746094c3.140625 0 5.6875 2.546875 5.6875 5.6875 0 3.144532-2.546875 5.691406-5.6875 5.691406zm0 0"/><path d="m146.78125 189.800781h-37.746094c-3.144531 0-5.691406-2.546875-5.691406-5.6875 0-3.144531 2.546875-5.691406 5.691406-5.691406h37.746094c3.140625 0 5.6875 2.546875 5.6875 5.691406s-2.546875 5.6875-5.6875 5.6875zm0 0"/><path d="m146.78125 255.347656h-37.746094c-3.144531 0-5.691406-2.546875-5.691406-5.691406 0-3.140625 2.546875-5.6875 5.691406-5.6875h37.746094c3.140625 0 5.6875 2.546875 5.6875 5.6875 0 3.144531-2.546875 5.691406-5.6875 5.691406zm0 0"/><path d="m146.78125 320.890625h-37.746094c-3.144531 0-5.691406-2.546875-5.691406-5.6875 0-3.144531 2.546875-5.691406 5.691406-5.691406h37.746094c3.140625 0 5.6875 2.546875 5.6875 5.691406s-2.546875 5.6875-5.6875 5.6875zm0 0"/></g></svg>