<svg height="512pt" viewBox="0 0 512 512" width="512pt" xmlns="http://www.w3.org/2000/svg"><path d="m512 256c0 141.386719-114.613281 256-256 256s-256-114.613281-256-256 114.613281-256 256-256 256 114.613281 256 256zm0 0" fill="#6770e6"/><path d="m256 498c-139.042969 0-252.191406-110.851562-255.9023438-249-.0625 2.324219-.0976562 4.65625-.0976562 7 0 141.382812 114.617188 256 256 256s256-114.617188 256-256c0-2.34375-.035156-4.675781-.097656-7-3.710938 138.148438-116.859375 249-255.902344 249zm0 0" fill="#5861c7"/><path d="m256 14c139.042969 0 252.191406 110.851562 255.902344 249 .0625-2.324219.097656-4.65625.097656-7 0-141.382812-114.617188-256-256-256s-256 114.617188-256 256c0 2.34375.0351562 4.675781.0976562 7 3.7109378-138.148438 116.8593748-249 255.9023438-249zm0 0" fill="#8f95e6"/><path d="m467.589844 256c0 116.859375-94.730469 211.589844-211.589844 211.589844s-211.589844-94.730469-211.589844-211.589844 94.730469-211.589844 211.589844-211.589844 211.589844 94.730469 211.589844 211.589844zm0 0" fill="#ffefe4"/><path d="m296.078125 215.917969c-22.132813-22.136719-58.023437-22.136719-80.160156 0-13.75 13.75-18.953125 32.804687-15.621094 50.574219l-67.425781 96.183593c-3.292969 4.695313-2.734375 11.078125 1.320312 15.128907 4.054688 4.054687 10.4375 4.613281 15.132813 1.320312l96.183593-67.425781c17.769532 3.332031 36.824219-1.871094 50.570313-15.621094 22.136719-22.132813 22.136719-58.023437 0-80.160156zm0 0" fill="#fff"/><path d="m377.808594 134.191406c-4.054688-4.054687-10.4375-4.613281-15.132813-1.320312l-96.183593 67.425781c-17.769532-3.332031-36.824219 1.871094-50.570313 15.621094l80.160156 80.160156c13.75-13.75 18.953125-32.800781 15.621094-50.574219l67.425781-96.179687c3.289063-4.695313 2.734375-11.078125-1.320312-15.132813zm0 0" fill="#ff8354"/><g fill="#edd4c2"><path d="m291.917969 256c0 19.835938-16.082031 35.917969-35.917969 35.917969s-35.917969-16.082031-35.917969-35.917969 16.082031-35.917969 35.917969-35.917969 35.917969 16.082031 35.917969 35.917969zm0 0"/><path d="m291.917969 256c0 19.835938-16.082031 35.917969-35.917969 35.917969s-35.917969-16.082031-35.917969-35.917969 16.082031-35.917969 35.917969-35.917969 35.917969 16.082031 35.917969 35.917969zm0 0"/><path d="m273.835938 92.242188c0 9.851562-7.988282 17.835937-17.835938 17.835937s-17.835938-7.984375-17.835938-17.835937c0-9.847657 7.988282-17.832032 17.835938-17.832032s17.835938 7.984375 17.835938 17.832032zm0 0"/><path d="m273.835938 419.757812c0 9.847657-7.988282 17.832032-17.835938 17.832032s-17.835938-7.984375-17.835938-17.832032c0-9.851562 7.988282-17.835937 17.835938-17.835937s17.835938 7.984375 17.835938 17.835937zm0 0"/><path d="m110.078125 256c0 9.847656-7.984375 17.835938-17.835937 17.835938-9.847657 0-17.832032-7.988282-17.832032-17.835938s7.984375-17.835938 17.832032-17.835938c9.851562 0 17.835937 7.988282 17.835937 17.835938zm0 0"/><path d="m437.589844 256c0 9.847656-7.984375 17.835938-17.832032 17.835938-9.851562 0-17.835937-7.988282-17.835937-17.835938s7.984375-17.835938 17.835937-17.835938c9.847657 0 17.832032 7.988282 17.832032 17.835938zm0 0"/></g></svg>