<svg height="512pt" viewBox="0 0 512 512" width="512pt" xmlns="http://www.w3.org/2000/svg"><path d="m329.632812 340.164062h-94.96875v-157.96875h94.96875zm0 0" fill="#b665c2"/><path d="m486.222656 358.144531h-152.738281c-14.234375 0-25.773437-11.53125-25.773437-25.765625 0-39.234375 0-113.523437 0-152.757812 0-14.234375 11.539062-25.765625 25.773437-25.765625h152.738281c14.238282 0 25.777344 11.53125 25.777344 25.765625v152.757812c0 14.234375-11.539062 25.765625-25.777344 25.765625zm0 0" fill="#d476e2"/><path d="m486.222656 153.855469h-152.738281c-14.234375 0-25.773437 11.53125-25.773437 25.765625v14c0-14.234375 11.539062-25.765625 25.773437-25.765625h152.738281c14.238282 0 25.777344 11.53125 25.777344 25.765625 0-5.015625 0-9.726563 0-14 0-14.234375-11.539062-25.765625-25.777344-25.765625zm0 0" fill="#ea82fa"/><path d="m333.484375 358.144531h152.738281c14.238282 0 25.777344-11.53125 25.777344-25.765625 0-4.273437 0-8.984375 0-14 0 14.234375-11.539062 25.765625-25.777344 25.765625h-152.738281c-14.234375 0-25.773437-11.53125-25.773437-25.765625v14c0 14.234375 11.539062 25.765625 25.773437 25.765625zm0 0" fill="#b665c2"/><path d="m334.257812 174.667969c-3.167968 0-5.734374 2.566406-5.734374 5.734375v151.195312c0 3.167969 2.566406 5.734375 5.734374 5.734375h151.195313c3.164063 0 5.734375-2.566406 5.734375-5.734375v-151.195312c0-3.167969-2.570312-5.734375-5.734375-5.734375zm0 0" fill="#69ebfc"/><path d="m328.523438 300.105469v31.492187c0 3.167969 2.566406 5.734375 5.734374 5.734375h105.878907l-66.550781-115.277343zm0 0" fill="#5ed4e3"/><path d="m489.9375 335.164062-43.8125-75.882812-45.0625 78.046875h84.390625c1.816406.003906 3.433594-.84375 4.484375-2.164063zm0 0" fill="#c7fcfe"/><path d="m470.375 211.742188c0 8.980468-7.28125 16.261718-16.261719 16.261718s-16.257812-7.28125-16.257812-16.261718c0-8.980469 7.277343-16.261719 16.257812-16.261719s16.261719 7.28125 16.261719 16.261719zm0 0" fill="#c7fcfe"/><path d="m240.316406 512h-218.8125c-8.945312 0-16.195312-7.25-16.195312-16.195312v-228.816407h251.203125v228.816407c0 8.945312-7.25 16.195312-16.195313 16.195312zm0 0" fill="#b665c2"/><path d="m240.316406 498h-218.8125c-8.945312 0-16.195312-7.25-16.195312-16.195312v14c0 8.945312 7.25 16.195312 16.195312 16.195312h218.8125c8.945313 0 16.195313-7.25 16.195313-16.195312v-14c0 8.945312-7.25 16.195312-16.195313 16.195312zm0 0" fill="#a55cb0"/><path d="m130.910156 0c-72.300781 0-130.910156 58.609375-130.910156 130.910156v135.09375c0 22.320313 5.492188 44.296875 15.988281 63.992188 10.5 19.699218 15.992188 41.675781 15.992188 63.996094v118.007812h197.859375v-118.003906c0-22.320313 5.492187-44.296875 15.988281-63.996094 10.5-19.699219 15.992187-41.675781 15.992187-63.996094v-135.09375c0-72.300781-58.609374-130.910156-130.910156-130.910156zm0 0" fill="#d476e2"/><path d="m130.910156 0c-72.300781 0-130.910156 58.609375-130.910156 130.910156v14c0-72.300781 58.609375-130.910156 130.910156-130.910156 72.300782 0 130.910156 58.609375 130.910156 130.910156v-14c0-72.300781-58.609374-130.910156-130.910156-130.910156zm0 0" fill="#ea82fa"/><path d="m31.980469 498h197.859375v14h-197.859375zm0 0" fill="#b665c2"/><path d="m242.898438 135.285156c0 61.847656-50.136719 111.988282-111.988282 111.988282-61.851562 0-111.988281-50.140626-111.988281-111.988282 0-61.851562 50.136719-111.992187 111.988281-111.992187 61.851563 0 111.988282 50.140625 111.988282 111.992187zm0 0" fill="#ea82fa"/><path d="m220.164062 135.285156c0 49.292969-39.960937 89.253906-89.253906 89.253906-49.292968 0-89.257812-39.960937-89.257812-89.253906 0-49.296875 39.964844-89.257812 89.257812-89.257812 49.292969 0 89.253906 39.960937 89.253906 89.257812zm0 0" fill="#5861c7"/><path d="m184.59375 135.285156c0 29.648438-24.035156 53.679688-53.683594 53.679688-29.648437 0-53.683594-24.03125-53.683594-53.679688 0-29.648437 24.035157-53.683594 53.683594-53.683594 29.648438 0 53.683594 24.035157 53.683594 53.683594zm0 0" fill="#4e56b0"/><path d="m145.878906 444.066406h-29.9375c-3.289062 0-5.957031-2.667968-5.957031-5.957031v-8.148437c0-3.289063 2.667969-5.957032 5.957031-5.957032h29.933594c3.289062 0 5.960938 2.667969 5.960938 5.957032v8.148437c0 3.289063-2.667969 5.957031-5.957032 5.957031zm0 0" fill="#69ebfc"/></svg>