<svg height="512pt" viewBox="0 0 512 512" width="512pt" xmlns="http://www.w3.org/2000/svg"><path d="m417.503906 7.585938v13.660156h-363.007812v-13.660156c0-4.191407-3.394532-7.585938-7.585938-7.585938h-39.324218c-4.191407 0-7.585938 3.394531-7.585938 7.585938v496.828124c0 4.191407 3.394531 7.585938 7.585938 7.585938h496.828124c4.191407 0 7.585938-3.394531 7.585938-7.585938v-461.65625c0-1.78125-.625-3.507812-1.769531-4.871093l-29.453125-35.171875c-1.441406-1.722656-3.574219-2.714844-5.816406-2.714844h-49.871094c-4.191406 0-7.585938 3.394531-7.585938 7.585938zm0 0" fill="#6770e6"/><path d="m504.414062 498h-496.828124c-4.191407 0-7.585938-3.394531-7.585938-7.585938v14c0 4.191407 3.394531 7.585938 7.585938 7.585938h496.828124c4.191407 0 7.585938-3.394531 7.585938-7.585938v-14c0 4.191407-3.394531 7.585938-7.585938 7.585938zm0 0" fill="#5861c7"/><path d="m421.042969 486.363281h-330.085938c-20.136719 0-36.460937-16.320312-36.460937-36.457031v-204.449219c0-20.136719 16.324218-36.457031 36.460937-36.457031h330.085938c20.136719 0 36.460937 16.320312 36.460937 36.457031v204.445313c0 20.136718-16.324218 36.460937-36.460937 36.460937zm0 0" fill="#ffefe4"/><path d="m389.070312 163.753906h-305.699218c-15.945313 0-28.875-12.929687-28.875-28.875v-113.855468h363.449218v113.855468c0 15.945313-12.925781 28.875-28.875 28.875zm0 0" fill="#5861c7"/><path d="m510.230469 37.886719-29.453125-35.171875c-1.441406-1.722656-3.574219-2.714844-5.816406-2.714844h-49.871094c-4.191406 0-7.585938 3.394531-7.585938 7.585938v13.4375h.054688c.292968-3.921876 3.535156-7.023438 7.53125-7.023438h49.871094c2.242187 0 4.375.992188 5.816406 2.714844l29.453125 35.171875c1.144531 1.367187 1.769531 3.089843 1.769531 4.871093v-14c0-1.78125-.625-3.503906-1.769531-4.871093zm0 0" fill="#8f95e6"/><path d="m54.496094 21.246094v-13.660156c0-4.191407-3.394532-7.585938-7.585938-7.585938h-39.324218c-4.191407 0-7.585938 3.394531-7.585938 7.585938v14c0-4.191407 3.394531-7.585938 7.585938-7.585938h39.324218c4.191406 0 7.585938 3.394531 7.585938 7.585938zm0 0" fill="#8f95e6"/><path d="m363.941406 163.753906h-199.296875c-15.945312 0-28.871093-12.929687-28.871093-28.875v-123.808594c0-6.113281 4.953124-11.070312 11.070312-11.070312h234.894531c6.117188 0 11.074219 4.957031 11.074219 11.070312v123.808594c0 15.945313-12.925781 28.875-28.871094 28.875zm0 0" fill="#ffefe4"/><path d="m381.738281 0h-234.894531c-6.113281 0-11.070312 4.957031-11.070312 11.070312v14c0-6.113281 4.957031-11.070312 11.070312-11.070312h234.894531c6.117188 0 11.074219 4.957031 11.074219 11.070312v-14c0-6.113281-4.957031-11.070312-11.074219-11.070312zm0 0" fill="#fff7f2"/><path d="m276.890625 37.546875h67.640625v105.179687h-67.640625zm0 0" fill="#5861c7"/><path d="m421.042969 209h-330.085938c-20.136719 0-36.460937 16.320312-36.460937 36.457031v33.921875h403.007812v-33.921875c0-20.136719-16.324218-36.457031-36.460937-36.457031zm0 0" fill="#ff8354"/><g fill="#edd4c2"><path d="m417.363281 332.976562h-322.726562c-4.804688 0-8.703125-3.894531-8.703125-8.703124 0-4.804688 3.894531-8.703126 8.703125-8.703126h322.726562c4.804688 0 8.703125 3.894532 8.703125 8.703126 0 4.808593-3.894531 8.703124-8.703125 8.703124zm0 0"/><path d="m417.363281 392.578125h-322.726562c-4.804688 0-8.703125-3.894531-8.703125-8.703125s3.894531-8.703125 8.703125-8.703125h322.726562c4.804688 0 8.703125 3.894531 8.703125 8.703125s-3.894531 8.703125-8.703125 8.703125zm0 0"/><path d="m417.363281 452.175781h-322.726562c-4.804688 0-8.703125-3.894531-8.703125-8.703125s3.894531-8.703125 8.703125-8.703125h322.726562c4.804688 0 8.703125 3.894531 8.703125 8.703125s-3.894531 8.703125-8.703125 8.703125zm0 0"/></g></svg>