<svg height="512pt" viewBox="0 0 512 512.046" width="512pt" xmlns="http://www.w3.org/2000/svg"><path d="m.0234375 186.042969 226.4414065-175.136719c17.40625-13.460938 41.710937-13.460938 59.117187 0l226.441407 175.136719v277.6875c0 26.679687-21.628907 48.3125-48.3125 48.3125h-415.375c-26.679688 0-48.3125005-21.628907-48.3125005-48.3125zm0 0" fill="#69ebfc"/><path d="m357.054688 31.789062h-202.566407c-28.421875 0-51.460937 23.035157-51.460937 51.457032v150.9375c0 28.421875 23.039062 51.457031 51.460937 51.457031h8.777344v54.25c0 8.5625 10.347656 12.847656 16.402344 6.796875l61.042969-61.046875h116.34375c28.421874 0 51.457031-23.035156 51.457031-51.457031v-150.9375c0-28.421875-23.035157-51.457032-51.457031-51.457032zm0 0" fill="#d476e2"/><path d="m154.488281 31.789062h202.566407c28.421874 0 51.457031 23.035157 51.457031 51.457032v16.785156c0-28.421875-23.035157-51.460938-51.457031-51.460938h-202.566407c-28.421875 0-51.460937 23.039063-51.460937 51.460938v-16.785156c0-28.421875 23.039062-51.457032 51.460937-51.457032zm0 0" fill="#ea82fa"/><g fill="#ffefe4"><path d="m297.851562 120.929688h-138.820312c-6.476562 0-11.726562-5.25-11.726562-11.726563s5.25-11.726563 11.726562-11.726563h138.820312c6.476563 0 11.726563 5.25 11.726563 11.726563s-5.25 11.726563-11.726563 11.726563zm0 0"/><path d="m329.078125 222.441406h-168.820313c-6.476562 0-11.726562-5.25-11.726562-11.726562 0-6.476563 5.25-11.726563 11.726562-11.726563h168.820313c6.476563 0 11.726563 5.25 11.726563 11.726563 0 6.476562-5.25 11.726562-11.726563 11.726562zm0 0"/><path d="m352.511719 148.230469h-193.480469c-6.476562 0-11.726562 5.25-11.726562 11.726562 0 6.476563 5.25 11.726563 11.726562 11.726563h193.476562c6.476563 0 11.726563-5.25 11.726563-11.726563.003906-6.476562-5.246094-11.726562-11.722656-11.726562zm0 0"/><path d="m512.023438 185.953125v277.777344c0 26.683593-21.628907 48.316406-48.3125 48.316406h-308.027344zm0 0"/></g><path d="m188.46875 482.042969h178.820312l-89.410156-81.820313zm0 0" fill="#edd4c2"/><path d="m.0234375 185.953125v277.777344c0 26.683593 21.6289065 48.316406 48.3125005 48.316406h308.023437zm0 0" fill="#ffefe4"/><path d="m463.710938 482.042969h-415.375c-26.679688 0-48.3125005-21.628907-48.3125005-48.3125v30c0 26.679687 21.6289065 48.3125 48.3125005 48.3125h415.375c26.679687 0 48.3125-21.628907 48.3125-48.3125v-30c0 26.683593-21.628907 48.3125-48.3125 48.3125zm0 0" fill="#edd4c2"/><path d="m458.050781 49.535156c0 27.359375-22.179687 49.535156-49.539062 49.535156-27.355469 0-49.535157-22.175781-49.535157-49.535156 0-27.355468 22.179688-49.535156 49.535157-49.535156 27.359375 0 49.539062 22.179688 49.539062 49.535156zm0 0" fill="#ff8354"/><path d="m408.511719 10c25.671875 0 46.777343 19.527344 49.289062 44.535156.164063-1.644531.25-3.3125.25-5 0-27.355468-22.179687-49.535156-49.539062-49.535156-27.355469 0-49.535157 22.179688-49.535157 49.535156 0 1.6875.085938 3.355469.25 5 2.507813-25.007812 23.617188-44.535156 49.285157-44.535156zm0 0" fill="#ffac8c"/><path d="m407.109375 73.648438v-40.28125l-5.5625 2.347656c-2.683594 1.128906-5.773437-.113282-6.929687-2.78125-1.136719-2.632813.023437-5.691406 2.621093-6.90625l11.28125-5.277344c.886719-.414062 1.847657-.628906 2.824219-.628906h.371094c3.679687 0 6.664062 2.984375 6.664062 6.664062v46.863282c0 2.929687-2.375 5.304687-5.304687 5.304687h-.664063c-2.925781 0-5.300781-2.375-5.300781-5.304687zm0 0" fill="#ffefe4"/></svg>