<svg height="512pt" viewBox="0 0 512.002 512" width="512pt" xmlns="http://www.w3.org/2000/svg"><path d="m495.007812 443.476562h-376.058593v-334.949218h274.105469c65.691406 0 118.945312 53.253906 118.945312 118.945312v199.007813c0 9.386719-7.609375 16.996093-16.992188 16.996093zm0 0" fill="#5fd4e3"/><path d="m393.050781 108.527344h-274.101562v14h274.105469c65.691406 0 118.949218 53.253906 118.949218 118.945312v-14c-.003906-65.691406-53.257812-118.945312-118.953125-118.945312zm0 0" fill="#69ebfc"/><path d="m118.949219 381.785156v61.691406h376.0625c9.382812 0 16.992187-7.609374 16.992187-16.992187v-44.699219zm0 0" fill="#e0734a"/><path d="m237.894531 443.476562h-220.902343c-9.382813 0-16.992188-7.609374-16.992188-16.992187v-199.007813c0-65.695312 53.253906-118.949218 118.945312-118.949218 65.691407 0 118.945313 53.253906 118.945313 118.949218v216zm0 0" fill="#69ebfc"/><path d="m118.949219 108.527344c-65.695313 0-118.949219 53.253906-118.949219 118.949218v14c0-65.695312 53.253906-118.949218 118.949219-118.949218 65.691406 0 118.945312 53.253906 118.945312 118.949218v-14c0-65.695312-53.253906-118.949218-118.945312-118.949218zm0 0" fill="#a1f1fc"/><path d="m395.574219 0h-100.699219v206.355469h33.015625v-143.714844h67.683594zm0 0" fill="#ff8354"/><path d="m327.890625 0h-33.015625v14h100.699219v-14zm0 0" fill="#ffac8c"/><path d="m344.398438 206.355469c0 18.234375-14.78125 33.015625-33.015626 33.015625-18.234374 0-33.015624-14.78125-33.015624-33.015625s14.78125-33.015625 33.015624-33.015625c18.234376 0 33.015626 14.78125 33.015626 33.015625zm0 0" fill="#e0734a"/><path d="m380.117188 476.476562h-248.234376c-9.382812 0-16.992187-7.609374-16.992187-16.992187v-16.011719h282.214844v16.011719c0 9.386719-7.609375 16.992187-16.988281 16.992187zm0 0" fill="#6770e6"/><path d="m380.117188 476.476562h-142.222657v-33.003906h159.214844v16.011719c-.003906 9.386719-7.613281 16.992187-16.992187 16.992187zm0 0" fill="#5861c7"/><path d="m215.753906 476.476562h80.492188v35.523438h-80.492188zm0 0" fill="#4e56b0"/><path d="m182.5625 276h-127.230469c-10.113281 0-18.3125-8.199219-18.3125-18.3125s8.199219-18.316406 18.3125-18.316406h127.230469c10.117188 0 18.316406 8.203125 18.316406 18.316406-.003906 10.113281-8.199218 18.3125-18.316406 18.3125zm0 0" fill="#5fd4e3"/><path d="m0 381.785156v44.699219c0 9.382813 7.609375 16.992187 16.992188 16.992187h220.902343v-61.691406zm0 0" fill="#ff8354"/></svg>