<svg height="512pt" viewBox="0 0 512 512.002" width="512pt" xmlns="http://www.w3.org/2000/svg"><path d="m512 256c0 141.386719-114.613281 256-256 256-141.382812 0-256-114.613281-256-256s114.617188-256 256-256c141.386719 0 256 114.613281 256 256zm0 0" fill="#8f95e6"/><path d="m256 492c-138.03125 0-250.53125-109.253906-255.785156-246-.1289065 3.320312-.214844 6.648438-.214844 10 0 141.382812 114.617188 256 256 256 141.386719 0 256-114.617188 256-256 0-3.351562-.082031-6.679688-.210938-10-5.257812 136.746094-117.753906 246-255.789062 246zm0 0" fill="#6770e6"/><path d="m256 20c138.035156 0 250.53125 109.253906 255.789062 246 .128907-3.320312.210938-6.648438.210938-10 0-141.382812-114.613281-256-256-256-141.382812 0-256 114.617188-256 256 0 3.351562.0859375 6.679688.214844 10 5.253906-136.746094 117.753906-246 255.785156-246zm0 0" fill="#9fa5ff"/><path d="m174.953125 285.976562s-25.195313-37.019531-25.195313-95.117187 28.777344-125.613281 106.222657-125.613281c34.375 0 43.3125 21.640625 43.3125 21.640625s60.136719-7.6875 60.136719 111.355469c0 40.125-26.816407 87.734374-26.816407 87.734374s-75.582031-66.652343-157.660156 0zm0 0" fill="#339"/><path d="m255.980469 77.855469c34.375 0 43.3125 21.640625 43.3125 21.640625s57.304687-7.300782 60.027343 103.105468c.066407-1.460937.109376-2.914062.109376-4.359374 0-119.042969-60.136719-111.359376-60.136719-111.359376s-8.941407-21.640624-43.3125-21.640624c-77.445313 0-106.222657 67.519531-106.222657 125.617187 0 2.191406.046876 4.34375.117188 6.472656 1.96875-56.605469 31.371094-119.476562 106.105469-119.476562zm0 0" fill="#5861c7"/><path d="m370.765625 329.523438-61.054687-17.652344h-107.921876l-61.054687 17.652344c-18.167969 5.25-30.671875 21.882812-30.671875 40.792968v96.015625c40.503906 28.15625 89.523438 44.90625 142.417969 45.621094h7.039062c52.679688-.710937 101.507813-17.328125 141.914063-45.269531v-96.367188c.003906-18.910156-12.503906-35.542968-30.667969-40.792968zm0 0" fill="#d476e2"/><path d="m401.4375 446.695312c-41.300781 28.566407-91.414062 45.304688-145.4375 45.304688-54.242188 0-104.539062-16.878906-145.9375-45.660156v19.996094c5.058594 3.515624 10.25 6.855468 15.566406 10.007812.007813.003906.015625.007812.023438.015625 5.3125 3.148437 10.746094 6.109375 16.296875 8.875.007812.003906.019531.007813.027343.015625 5.546876 2.765625 11.210938 5.335938 16.984376 7.699219.007812.003906.019531.011719.03125.015625 5.773437 2.363281 11.652343 4.523437 17.625 6.472656.003906 0 .003906 0 .007812.003906 23.929688 7.792969 49.40625 12.160156 75.855469 12.519532h7.039062c26.335938-.355469 51.710938-4.6875 75.550781-12.421876.007813 0 .015626-.003906.019532-.007812 5.949218-1.929688 11.800781-4.070312 17.550781-6.417969.015625-.007812.035156-.011719.050781-.019531 5.742188-2.347656 11.382813-4.894531 16.910156-7.632812.015626-.007813.03125-.015626.046876-.023438 5.523437-2.742188 10.9375-5.679688 16.230468-8.800781.011719-.007813.027344-.015625.039063-.023438 5.296875-3.125 10.46875-6.433593 15.511719-9.921875 0 0 .003906 0 .003906-.003906v-19.992188zm0 0" fill="#b665c2"/><g fill="#ffe4d1"><path d="m292.03125 251.480469h-71.828125v111.210937l71.859375-.027344zm0 0"/><path d="m192.4375 192.429688s-6.796875-12.453126-20.398438-12.453126c-13.597656 0-23.226562 59.78125 20.398438 49.816407zm0 0"/><path d="m318.292969 192.429688s6.796875-12.453126 20.394531-12.453126 23.230469 59.78125-20.394531 49.816407zm0 0"/></g><path d="m255.363281 112.320312c-104.175781 0-84.257812 170.855469 0 170.855469 84.257813 0 104.175781-170.855469 0-170.855469zm0 0" fill="#ffefe4"/><path d="m256.132812 386.316406c-30.015624 0-54.34375-24.328125-54.34375-54.34375v-20.101562l18.414063-4.78125h71.847656l18.425781 4.78125v20.101562c0 30.015625-24.332031 54.34375-54.34375 54.34375zm0 0" fill="#ffe4d1"/><path d="m302.722656 309.859375-46.589844 149.796875 84.816407-47.742188-32.042969-35.09375h44.050781l-7.441406-54.597656zm0 0" fill="#ea82fa"/><path d="m209.539062 309.859375 46.59375 149.796875-84.816406-47.742188 32.039063-35.09375h-44.046875l7.441406-54.597656zm0 0" fill="#ea82fa"/><path d="m231.484375 380.402344 24.648437 79.253906 24.648438-79.257812zm0 0" fill="#69ebfc"/><path d="m184.507812 182.429688s51.832032 10.050781 99.71875-46.707032c0 0 10.679688 36.847656 41.699219 47.394532v-9.792969c0-39.050781-31.65625-70.710938-70.707031-70.710938-39.054688 0-70.710938 31.660157-70.710938 70.710938zm0 0" fill="#339"/><path d="m268.539062 507.335938 7.878907-124.871094h-41.339844l7.878906 124.871094c.136719 2.179687 1.667969 3.9375 3.6875 4.476562 3.105469.113281 6.21875.191406 9.355469.191406 2.9375 0 5.859375-.070312 8.777344-.167968 2.054687-.519532 3.625-2.296876 3.761718-4.5zm0 0" fill="#6770e6"/><path d="m256 492c-4.714844 0-9.386719-.175781-14.035156-.425781l.996094 15.761719c.132812 2.125 1.597656 3.84375 3.542968 4.425781 1.988282.074219 3.976563.167969 5.976563.195312h5.871093c.9375-.011719 1.878907-.03125 2.8125-.054687 1.261719-.023438 2.515626-.082032 3.773438-.121094 1.976562-.566406 3.46875-2.300781 3.601562-4.445312l.992188-15.730469c-4.484375.234375-8.988281.394531-13.53125.394531zm0 0" fill="#5861c7"/><path d="m292.972656 366.359375c0 20.558594-16.664062 37.222656-37.222656 37.222656s-37.226562-16.664062-37.226562-37.222656 16.667968-37.226563 37.226562-37.226563 37.222656 16.667969 37.222656 37.226563zm0 0" fill="#69ebfc"/><path d="m292.347656 373.960938h-73.195312c-2.664063 0-4.824219-2.160157-4.824219-4.820313v-5.566406c0-2.664063 2.160156-4.820313 4.824219-4.820313h73.195312c2.664063 0 4.820313 2.160156 4.820313 4.820313v5.566406c0 2.660156-2.15625 4.820313-4.820313 4.820313zm0 0" fill="#5fd4e3"/><path d="m260.558594 445.40625h-9.621094c-1.953125 0-3.535156-1.582031-3.535156-3.535156v-21.957032c0-1.953124 1.582031-3.539062 3.535156-3.539062h9.621094c1.953125 0 3.535156 1.585938 3.535156 3.539062v21.957032c0 1.953125-1.582031 3.535156-3.535156 3.535156zm0 0" fill="#5861c7"/><path d="m264.09375 433.066406h-16.691406v-13.15625c0-1.953125 1.582031-3.535156 3.535156-3.535156h9.621094c1.953125 0 3.535156 1.582031 3.535156 3.535156zm0 0" fill="#b665c2"/><path d="m247.402344 421.863281h16.695312v5.71875h-16.695312zm0 0" fill="#d476e2"/></svg>