<svg height="512pt" viewBox="-74 0 511 512" width="512pt" xmlns="http://www.w3.org/2000/svg"><path d="m301.730469 512h-239.960938c-22.960937 0-41.574219-18.613281-41.574219-41.570312v-428.859376c0-22.957031 18.613282-41.570312 41.574219-41.570312h239.960938c22.960937 0 41.570312 18.613281 41.570312 41.570312v428.855469c.003907 22.960938-18.609375 41.574219-41.570312 41.574219zm0 0" fill="#69ebfc"/><path d="m301.730469 0h-239.960938c-22.960937 0-41.574219 18.613281-41.574219 41.570312v14c0-22.957031 18.613282-41.570312 41.574219-41.570312h239.960938c22.960937 0 41.570312 18.613281 41.570312 41.570312v-14c.003907-22.957031-18.609375-41.570312-41.570312-41.570312zm0 0" fill="#a1f1fc"/><path d="m61.769531 512h239.960938c22.960937 0 41.570312-18.613281 41.570312-41.570312v-14c0 22.957031-18.609375 41.570312-41.570312 41.570312h-239.960938c-22.960937 0-41.574219-18.613281-41.574219-41.570312v14c0 22.957031 18.613282 41.570312 41.574219 41.570312zm0 0" fill="#5fd4e3"/><path d="m61.769531 492c-11.894531 0-21.574219-9.679688-21.574219-21.570312v-402.859376c0-11.890624 9.679688-21.570312 21.574219-21.570312h239.960938c11.894531 0 21.570312 9.679688 21.570312 21.570312v402.859376c0 11.890624-9.675781 21.570312-21.570312 21.570312zm0 0" fill="#ffefe4"/><path d="m223.023438 31.828125h-112.546876c-4.96875 0-9-4.03125-9-9s4.03125-9 9-9h112.546876c4.96875 0 9 4.03125 9 9s-4.03125 9-9 9zm0 0" fill="#5fd4e3"/><path d="m262.023438 22.828125c0 4.96875-4.027344 9-9 9-4.96875 0-9-4.03125-9-9s4.03125-9 9-9c4.972656 0 9 4.03125 9 9zm0 0" fill="#5fd4e3"/><path d="m363 256c0 100.101562-81.148438 181.25-181.25 181.25s-181.25-81.148438-181.25-181.25 81.148438-181.25 181.25-181.25 181.25 81.148438 181.25 181.25zm0 0" fill="#6770e6"/><path d="m128.445312 208.722656c6.710938-4.355468 13.609376-8.496094 19.648438-13.746094 9.105469-7.910156 14.402344-16.574218 3.558594-27.417968 0 0-29.171875-29.171875-29.171875-29.171875-4.480469-4.484375-11.914063-6.492188-17.78125-3.691407-3.152344 1.507813-5.742188 3.949219-8.230469 6.40625-2.457031 2.429688-4.859375 4.890626-7.183594 7.386719-19.570312 21.03125-33.644531 44.746094-29.355468 75.046875 2.21875 15.691406 8.699218 30.519532 16.753906 44.050782 22.230468 37.359374 56.015625 71.183593 93.480468 93.480468 13.535157 8.054688 28.359376 14.535156 44.054688 16.753906 30.300781 4.289063 54.011719-9.785156 75.042969-29.355468 2.5-2.324219 4.960937-4.726563 7.386719-7.183594 2.457031-2.484375 4.902343-5.078125 6.40625-8.230469 2.804687-5.867187.792968-13.296875-3.6875-17.78125 0 0-29.171876-29.171875-29.171876-29.171875-10.84375-10.84375-19.507812-5.546875-27.421874 3.558594-5.246094 6.039062-9.390626 12.9375-13.746094 19.648438-3.273438 5.046874-6.882813 9.316406-13.363282 8.816406-13.886718-1.070313-27.289062-12.886719-37.453124-21.398438-13.742188-11.507812-26.519532-24.3125-37.957032-38.113281-8.257812-9.960937-19.582031-22.992187-20.625-36.523437-.5-6.476563 3.769532-10.089844 8.816406-13.363282zm0 0" fill="#ffefe4"/><path d="m104.699219 134.695312c-3.152344 1.507813-5.742188 3.949219-8.230469 6.40625-.417969.414063-.824219.835938-1.242188 1.25l52.738282 52.738282c.042968-.039063.085937-.070313.128906-.109375 9.101562-7.914063 14.402344-16.578125 3.558594-27.421875 0 0-29.171875-29.171875-29.171875-29.171875-4.480469-4.484375-11.914063-6.492188-17.78125-3.691407zm0 0" fill="#edd4c2"/><path d="m299.363281 315.269531s-29.171875-29.171875-29.171875-29.171875c-10.84375-10.84375-19.507812-5.546875-27.417968 3.558594-.039063.042969-.070313.085938-.109376.128906l52.734376 52.738282c.417968-.417969.835937-.824219 1.25-1.242188 2.457031-2.484375 4.902343-5.078125 6.40625-8.230469 2.800781-5.867187.792968-13.300781-3.691407-17.78125zm0 0" fill="#edd4c2"/><path d="m277.363281 148.457031-76.121093 9.144531c-5.816407.699219-8.269532 7.792969-4.128907 11.9375l20.105469 20.105469-41.175781 41.175781c-7.390625 7.390626-7.390625 19.375 0 26.765626 3.695312 3.691406 8.539062 5.539062 13.382812 5.539062s9.6875-1.847656 13.382813-5.539062l41.175781-41.179688 20.105469 20.109375c4.140625 4.140625 11.234375 1.6875 11.9375-4.128906l9.144531-76.121094c.542969-4.519531-3.289063-8.355469-7.808594-7.808594zm0 0" fill="#69ebfc"/></svg>