<svg height="512pt" viewBox="0 0 512.002 512" width="512pt" xmlns="http://www.w3.org/2000/svg"><path d="m178.960938 0c-15.058594 0-27.257813 12.203125-27.257813 27.261719v79.03125h54.519531v-79.03125c0-15.058594-12.210937-27.261719-27.261718-27.261719zm0 0" fill="#edd4c2"/><path d="m492.816406 481.539062h-473.632812c-10.59375 0-19.183594-8.585937-19.183594-19.179687v-300.585937c0-10.59375 8.589844-19.183594 19.183594-19.183594h473.636718c10.59375 0 19.183594 8.589844 19.183594 19.183594v300.585937c-.003906 10.59375-8.59375 19.179687-19.1875 19.179687zm0 0" fill="#6770e6"/><path d="m492.816406 142.589844h-473.632812c-10.59375 0-19.183594 8.589844-19.183594 19.183594v104.023437h512v-104.023437c0-10.59375-8.589844-19.183594-19.183594-19.183594zm0 0" fill="#5a62c9"/><path d="m492.816406 142.589844h-473.632812c-10.59375 0-19.183594 8.589844-19.183594 19.183594v10.933593c0-10.59375 8.589844-19.183593 19.183594-19.183593h473.636718c10.59375 0 19.183594 8.589843 19.183594 19.183593v-10.933593c-.003906-10.59375-8.59375-19.183594-19.1875-19.183594zm0 0" fill="#6770e6"/><path d="m19.183594 481.539062h473.636718c10.59375 0 19.183594-8.585937 19.183594-19.179687v-10.933594c0 10.59375-8.589844 19.179688-19.183594 19.179688h-473.636718c-10.59375 0-19.183594-8.585938-19.183594-19.179688v10.933594c0 10.59375 8.589844 19.179687 19.183594 19.179687zm0 0" fill="#5a62c9"/><path d="m122.558594 512h-73.578125c-14.039063 0-25.417969-11.378906-25.417969-25.417969v-349.03125c0-14.039062 11.378906-25.417969 25.417969-25.417969h73.578125c14.039062 0 25.417968 11.378907 25.417968 25.417969v349.035157c0 14.035156-11.378906 25.414062-25.417968 25.414062zm0 0" fill="#8f95e6"/><path d="m122.558594 112.132812h-73.578125c-14.039063 0-25.417969 11.378907-25.417969 25.417969v10.933594c0-14.039063 11.378906-25.417969 25.417969-25.417969h73.578125c14.039062 0 25.417968 11.378906 25.417968 25.417969v-10.933594c0-14.039062-11.378906-25.417969-25.417968-25.417969zm0 0" fill="#9ea5ff"/><path d="m48.980469 512h73.578125c14.039062 0 25.417968-11.378906 25.417968-25.417969v-10.933593c0 14.039062-11.378906 25.417968-25.417968 25.417968h-73.578125c-14.039063 0-25.417969-11.378906-25.417969-25.417968v10.933593c0 14.039063 11.378906 25.417969 25.417969 25.417969zm0 0" fill="#6770e6"/><g fill="#69ebfc"><path d="m180.777344 356.316406v-19.53125c0-2.871094 2.328125-5.199218 5.199218-5.199218h21.785157c2.867187 0 5.195312 2.328124 5.195312 5.199218v19.53125c0 2.871094-2.324219 5.199219-5.195312 5.199219h-21.785157c-2.871093 0-5.199218-2.328125-5.199218-5.199219zm0 0"/><path d="m229.386719 356.316406v-19.53125c0-2.871094 2.328125-5.199218 5.199219-5.199218h21.785156c2.871094 0 5.199218 2.328124 5.199218 5.199218v19.53125c0 2.871094-2.328124 5.199219-5.199218 5.199219h-21.785156c-2.871094 0-5.199219-2.328125-5.199219-5.199219zm0 0"/><path d="m277.996094 356.316406v-19.53125c0-2.871094 2.328125-5.199218 5.199218-5.199218h21.785157c2.871093 0 5.199219 2.328124 5.199219 5.199218v19.53125c0 2.871094-2.328126 5.199219-5.199219 5.199219h-21.785157c-2.871093 0-5.199218-2.328125-5.199218-5.199219zm0 0"/><path d="m180.777344 402.671875v-19.53125c0-2.871094 2.328125-5.199219 5.199218-5.199219h21.785157c2.867187 0 5.195312 2.328125 5.195312 5.199219v19.53125c0 2.871094-2.324219 5.199219-5.195312 5.199219h-21.785157c-2.871093 0-5.199218-2.328125-5.199218-5.199219zm0 0"/><path d="m229.386719 402.671875v-19.53125c0-2.871094 2.328125-5.199219 5.199219-5.199219h21.785156c2.871094 0 5.199218 2.328125 5.199218 5.199219v19.53125c0 2.871094-2.328124 5.199219-5.199218 5.199219h-21.785156c-2.871094 0-5.199219-2.328125-5.199219-5.199219zm0 0"/><path d="m277.996094 402.671875v-19.53125c0-2.871094 2.328125-5.199219 5.199218-5.199219h21.785157c2.871093 0 5.199219 2.328125 5.199219 5.199219v19.53125c0 2.871094-2.328126 5.199219-5.199219 5.199219h-21.785157c-2.871093 0-5.199218-2.328125-5.199218-5.199219zm0 0"/><path d="m180.777344 449.03125v-19.53125c0-2.871094 2.328125-5.199219 5.199218-5.199219h21.785157c2.867187 0 5.195312 2.328125 5.195312 5.199219v19.53125c0 2.871094-2.324219 5.199219-5.195312 5.199219h-21.785157c-2.871093 0-5.199218-2.328125-5.199218-5.199219zm0 0"/><path d="m229.386719 449.03125v-19.53125c0-2.871094 2.328125-5.199219 5.199219-5.199219h21.785156c2.871094 0 5.199218 2.328125 5.199218 5.199219v19.53125c0 2.871094-2.328124 5.199219-5.199218 5.199219h-21.785156c-2.871094 0-5.199219-2.328125-5.199219-5.199219zm0 0"/><path d="m277.996094 449.03125v-19.53125c0-2.871094 2.328125-5.199219 5.199218-5.199219h21.785157c2.871093 0 5.199219 2.328125 5.199219 5.199219v19.53125c0 2.871094-2.328126 5.199219-5.199219 5.199219h-21.785157c-2.871093 0-5.199218-2.328125-5.199218-5.199219zm0 0"/><path d="m206.011719 303.351562c0 6.96875-5.648438 12.617188-12.617188 12.617188s-12.617187-5.648438-12.617187-12.617188 5.648437-12.617187 12.617187-12.617187 12.617188 5.648437 12.617188 12.617187zm0 0"/><path d="m240.734375 303.351562c0 6.96875-5.648437 12.617188-12.617187 12.617188s-12.613282-5.648438-12.613282-12.617188 5.644532-12.617187 12.613282-12.617187 12.617187 5.648437 12.617187 12.617187zm0 0"/><path d="m275.457031 303.351562c0 6.96875-5.648437 12.617188-12.617187 12.617188s-12.617188-5.648438-12.617188-12.617188 5.648438-12.617187 12.617188-12.617187 12.617187 5.648437 12.617187 12.617187zm0 0"/><path d="m310.179688 303.351562c0 6.96875-5.648438 12.617188-12.617188 12.617188-6.964844 0-12.613281-5.648438-12.613281-12.617188s5.648437-12.617187 12.613281-12.617187c6.96875 0 12.617188 5.648437 12.617188 12.617187zm0 0"/></g><path d="m235.933594 234.414062v-60.441406c0-3.46875 2.808594-6.28125 6.277344-6.28125h179.148437c3.46875 0 6.28125 2.8125 6.28125 6.28125v60.441406c0 3.46875-2.8125 6.28125-6.28125 6.28125h-179.148437c-3.46875 0-6.277344-2.8125-6.277344-6.28125zm0 0" fill="#ffefe4"/><path d="m318.984375 198.273438h-58.347656c-3.066407 0-5.546875-2.484376-5.546875-5.546876s2.480468-5.546874 5.546875-5.546874h58.347656c3.066406 0 5.550781 2.484374 5.550781 5.546874s-2.484375 5.546876-5.550781 5.546876zm0 0" fill="#6770e6"/><path d="m350.226562 221.210938h-89.589843c-3.0625 0-5.546875-2.484376-5.546875-5.550782 0-3.0625 2.484375-5.546875 5.546875-5.546875h89.589843c3.0625 0 5.546876 2.484375 5.546876 5.546875 0 3.066406-2.484376 5.550782-5.546876 5.550782zm0 0" fill="#6770e6"/><path d="m108.617188 185.738281c0 12.621094-10.230469 22.847657-22.847657 22.847657-12.617187 0-22.847656-10.226563-22.847656-22.847657 0-12.617187 10.230469-22.847656 22.847656-22.847656 12.617188 0 22.847657 10.230469 22.847657 22.847656zm0 0" fill="#6770e6"/><path d="m477.824219 454.230469h-145.578125c-2.742188 0-4.96875-2.226563-4.96875-4.972657v-153.546874c0-2.746094 2.226562-4.972657 4.96875-4.972657h145.578125c2.746093 0 4.972656 2.226563 4.972656 4.972657v153.546874c0 2.746094-2.226563 4.972657-4.972656 4.972657zm0 0" fill="#5a62c9"/><path d="m477.769531 185.691406h-26.730469c-2.773437 0-5.023437-2.25-5.023437-5.027344v-7.945312c0-2.777344 2.25-5.027344 5.023437-5.027344h26.730469c2.777344 0 5.027344 2.25 5.027344 5.027344v7.945312c0 2.777344-2.25 5.027344-5.027344 5.027344zm0 0" fill="#d476e2"/><path d="m477.769531 213.191406h-26.730469c-2.773437 0-5.023437-2.25-5.023437-5.023437v-7.945313c0-2.777344 2.25-5.027344 5.023437-5.027344h26.730469c2.777344 0 5.027344 2.25 5.027344 5.027344v7.945313c0 2.773437-2.25 5.023437-5.027344 5.023437zm0 0" fill="#d476e2"/><path d="m477.769531 240.695312h-26.730469c-2.773437 0-5.023437-2.25-5.023437-5.027343v-7.945313c0-2.777344 2.25-5.027344 5.023437-5.027344h26.730469c2.777344 0 5.027344 2.25 5.027344 5.027344v7.945313c0 2.773437-2.25 5.027343-5.027344 5.027343zm0 0" fill="#d476e2"/><path d="m212.535156 185.691406h-26.730468c-2.773438 0-5.023438-2.25-5.023438-5.027344v-7.945312c0-2.777344 2.25-5.027344 5.023438-5.027344h26.730468c2.777344 0 5.027344 2.25 5.027344 5.027344v7.945312c0 2.777344-2.25 5.027344-5.027344 5.027344zm0 0" fill="#d476e2"/><path d="m212.535156 213.191406h-26.730468c-2.773438 0-5.023438-2.25-5.023438-5.023437v-7.945313c0-2.777344 2.25-5.027344 5.023438-5.027344h26.730468c2.777344 0 5.027344 2.25 5.027344 5.027344v7.945313c0 2.773437-2.25 5.023437-5.027344 5.023437zm0 0" fill="#d476e2"/><path d="m212.535156 240.695312h-26.730468c-2.773438 0-5.023438-2.25-5.023438-5.027343v-7.945313c0-2.777344 2.25-5.027344 5.023438-5.027344h26.730468c2.777344 0 5.027344 2.25 5.027344 5.027344v7.945313c0 2.773437-2.25 5.027343-5.027344 5.027343zm0 0" fill="#d476e2"/><path d="m365.074219 366.882812c0 5.390626-4.371094 9.761719-9.761719 9.761719s-9.757812-4.371093-9.757812-9.761719c0-5.390624 4.367187-9.761718 9.757812-9.761718s9.761719 4.371094 9.761719 9.761718zm0 0" fill="#8f95e6"/><path d="m458.972656 372.429688h-78.351562c-3.0625 0-5.546875-2.484376-5.546875-5.546876s2.484375-5.546874 5.546875-5.546874h78.351562c3.0625 0 5.546875 2.484374 5.546875 5.546874s-2.484375 5.546876-5.546875 5.546876zm0 0" fill="#8f95e6"/><path d="m365.074219 397.46875c0 5.386719-4.371094 9.757812-9.761719 9.757812s-9.757812-4.371093-9.757812-9.757812c0-5.390625 4.367187-9.761719 9.757812-9.761719s9.761719 4.371094 9.761719 9.761719zm0 0" fill="#8f95e6"/><path d="m458.972656 403.015625h-78.351562c-3.0625 0-5.546875-2.484375-5.546875-5.546875 0-3.066406 2.484375-5.550781 5.546875-5.550781h78.351562c3.0625 0 5.546875 2.484375 5.546875 5.550781 0 3.0625-2.484375 5.546875-5.546875 5.546875zm0 0" fill="#8f95e6"/><path d="m365.074219 428.859375c0 5.390625-4.371094 9.757813-9.761719 9.757813s-9.757812-4.367188-9.757812-9.757813 4.367187-9.761719 9.757812-9.761719 9.761719 4.371094 9.761719 9.761719zm0 0" fill="#8f95e6"/><path d="m458.972656 434.410156h-78.351562c-3.0625 0-5.546875-2.484375-5.546875-5.550781 0-3.0625 2.484375-5.546875 5.546875-5.546875h78.351562c3.0625 0 5.546875 2.484375 5.546875 5.546875s-2.484375 5.550781-5.546875 5.550781zm0 0" fill="#8f95e6"/><path d="m447.277344 340.550781h-84.480469c-9.523437 0-17.242187-7.71875-17.242187-17.242187 0-9.523438 7.71875-17.242188 17.242187-17.242188h84.480469c9.523437 0 17.242187 7.71875 17.242187 17.242188 0 9.523437-7.71875 17.242187-17.242187 17.242187zm0 0" fill="#69ebfc"/><path d="m401.484375 306.066406h7.101563v34.484375h-7.101563zm0 0" fill="#5fd4e3"/><path d="m482.796875 142.589844h-302.019531v-57.082032c0-8.570312 6.945312-15.511718 15.511718-15.511718h270.992188c8.570312 0 15.511719 6.945312 15.511719 15.511718v57.082032zm0 0" fill="#5a62c9"/><path d="m430.097656 0h-251.136718c15.054687 0 27.257812 12.203125 27.257812 27.261719v115.328125h251.136719v-115.328125c0-15.058594-12.210938-27.261719-27.257813-27.261719zm0 0" fill="#ffefe4"/><path d="m430.097656 0h-251.136718c10.238281 0 19.148437 5.652344 23.808593 14h227.328125c15.046875 0 27.261719 12.203125 27.261719 27.261719v-14c-.003906-15.058594-12.214844-27.261719-27.261719-27.261719zm0 0" fill="#fff7f2"/><path d="m378.503906 42.003906h-138.351562c-3.0625 0-5.546875-2.484375-5.546875-5.550781 0-3.0625 2.484375-5.546875 5.546875-5.546875h138.351562c3.0625 0 5.546875 2.484375 5.546875 5.546875 0 3.066406-2.484375 5.550781-5.546875 5.550781zm0 0" fill="#edd4c2"/><path d="m409.742188 68.484375h-169.589844c-3.0625 0-5.546875-2.484375-5.546875-5.550781 0-3.0625 2.484375-5.546875 5.546875-5.546875h169.589844c3.0625 0 5.546874 2.484375 5.546874 5.546875 0 3.066406-2.484374 5.550781-5.546874 5.550781zm0 0" fill="#edd4c2"/><path d="m394.503906 94.964844h-154.351562c-3.0625 0-5.546875-2.484375-5.546875-5.550782 0-3.0625 2.484375-5.546874 5.546875-5.546874h154.351562c3.0625 0 5.546875 2.484374 5.546875 5.546874 0 3.066407-2.484375 5.550782-5.546875 5.550782zm0 0" fill="#edd4c2"/><path d="m409.742188 121.441406h-169.589844c-3.0625 0-5.546875-2.480468-5.546875-5.546875 0-3.0625 2.484375-5.546875 5.546875-5.546875h169.589844c3.0625 0 5.546874 2.484375 5.546874 5.546875 0 3.066407-2.484374 5.546875-5.546874 5.546875zm0 0" fill="#edd4c2"/></svg>