<svg height="512pt" viewBox="0 0 512 512" width="512pt" xmlns="http://www.w3.org/2000/svg"><path d="m487.441406 472.996094h-462.882812c-13.5625 0-24.558594-10.992188-24.558594-24.558594v-384.875c0-13.566406 10.996094-24.558594 24.558594-24.558594h462.882812c13.5625 0 24.558594 10.992188 24.558594 24.558594v384.875c0 13.566406-10.996094 24.558594-24.558594 24.558594zm0 0" fill="#6770e6"/><path d="m487.441406 39.003906h-462.882812c-13.5625 0-24.558594 10.992188-24.558594 24.558594v133.191406h512v-133.191406c0-13.566406-10.996094-24.558594-24.558594-24.558594zm0 0" fill="#5a62c9"/><path d="m487.441406 39.003906h-462.882812c-13.5625 0-24.558594 10.992188-24.558594 24.558594v14c0-13.566406 10.996094-24.558594 24.558594-24.558594h462.882812c13.5625 0 24.558594 10.992188 24.558594 24.558594v-14c0-13.566406-10.996094-24.558594-24.558594-24.558594zm0 0" fill="#6770e6"/><path d="m24.558594 472.996094h462.882812c13.5625 0 24.558594-10.992188 24.558594-24.558594v-14c0 13.566406-10.996094 24.558594-24.558594 24.558594h-462.882812c-13.5625 0-24.558594-10.992188-24.558594-24.558594v14c0 13.566406 10.996094 24.558594 24.558594 24.558594zm0 0" fill="#5a62c9"/><path d="m422.953125 229.265625h47.378906c3.648438 0 6.609375 2.957031 6.609375 6.609375v23.214844h-60.597656v-23.214844c0-3.652344 2.960938-6.609375 6.609375-6.609375zm0 0" fill="#ffefe4"/><path d="m416.34375 259.085938h60.597656v29.824218h-60.597656zm0 0" fill="#edd4c2"/><path d="m416.34375 288.910156h60.597656v29.824219h-60.597656zm0 0" fill="#ffefe4"/><path d="m416.34375 318.734375h60.597656v29.824219h-60.597656zm0 0" fill="#edd4c2"/><path d="m416.34375 348.554688h60.597656v29.824218h-60.597656zm0 0" fill="#ffefe4"/><path d="m416.34375 378.378906h60.597656v29.824219h-60.597656zm0 0" fill="#edd4c2"/><path d="m416.34375 408.203125h60.597656v23.214844c0 3.648437-2.960937 6.609375-6.609375 6.609375h-47.378906c-3.648437 0-6.609375-2.960938-6.609375-6.609375zm0 0" fill="#ffefe4"/><path d="m156.929688 512h-94.214844c-17.976563 0-32.542969-14.570312-32.542969-32.542969v-446.914062c0-17.972657 14.566406-32.542969 32.542969-32.542969h94.214844c17.972656 0 32.542968 14.570312 32.542968 32.542969v446.914062c0 17.972657-14.570312 32.542969-32.542968 32.542969zm0 0" fill="#8f95e6"/><path d="m156.929688 0h-94.214844c-17.976563 0-32.542969 14.570312-32.542969 32.542969v14c0-17.972657 14.566406-32.542969 32.542969-32.542969h94.214844c17.972656 0 32.542968 14.570312 32.542968 32.542969v-14c0-17.972657-14.570312-32.542969-32.542968-32.542969zm0 0" fill="#9ea5ff"/><path d="m62.714844 512h94.214844c17.972656 0 32.542968-14.570312 32.542968-32.542969v-14c0 17.972657-14.570312 32.542969-32.542968 32.542969h-94.214844c-17.976563 0-32.542969-14.570312-32.542969-32.542969v14c0 17.972657 14.566406 32.542969 32.542969 32.542969zm0 0" fill="#6770e6"/><g fill="#69ebfc"><path d="m231.472656 312.660156v-25.011718c0-3.675782 2.980469-6.652344 6.652344-6.652344h27.894531c3.675781 0 6.65625 2.980468 6.65625 6.652344v25.011718c0 3.675782-2.980469 6.652344-6.65625 6.652344h-27.894531c-3.671875 0-6.652344-2.976562-6.652344-6.652344zm0 0"/><path d="m293.710938 312.660156v-25.011718c0-3.675782 2.980468-6.652344 6.65625-6.652344h27.894531c3.675781 0 6.652343 2.980468 6.652343 6.652344v25.011718c0 3.675782-2.976562 6.652344-6.652343 6.652344h-27.894531c-3.675782 0-6.65625-2.976562-6.65625-6.652344zm0 0"/><path d="m355.953125 312.660156v-25.011718c0-3.675782 2.980469-6.652344 6.65625-6.652344h27.894531c3.675782 0 6.652344 2.980468 6.652344 6.652344v25.011718c0 3.675782-2.980469 6.652344-6.652344 6.652344h-27.894531c-3.675781 0-6.65625-2.976562-6.65625-6.652344zm0 0"/><path d="m231.472656 372.015625v-25.007813c0-3.679687 2.980469-6.65625 6.652344-6.65625h27.894531c3.675781 0 6.65625 2.980469 6.65625 6.65625v25.007813c0 3.675781-2.980469 6.65625-6.65625 6.65625h-27.894531c-3.671875 0-6.652344-2.980469-6.652344-6.65625zm0 0"/><path d="m293.710938 372.015625v-25.007813c0-3.679687 2.980468-6.65625 6.65625-6.65625h27.894531c3.675781 0 6.652343 2.980469 6.652343 6.65625v25.007813c0 3.675781-2.976562 6.65625-6.652343 6.65625h-27.894531c-3.675782 0-6.65625-2.980469-6.65625-6.65625zm0 0"/><path d="m355.953125 372.015625v-25.007813c0-3.679687 2.980469-6.65625 6.65625-6.65625h27.894531c3.675782 0 6.652344 2.980469 6.652344 6.65625v25.007813c0 3.675781-2.980469 6.65625-6.652344 6.65625h-27.894531c-3.675781 0-6.65625-2.980469-6.65625-6.65625zm0 0"/><path d="m231.472656 431.371094v-25.007813c0-3.675781 2.980469-6.65625 6.652344-6.65625h27.894531c3.675781 0 6.65625 2.980469 6.65625 6.65625v25.007813c0 3.675781-2.980469 6.65625-6.65625 6.65625h-27.894531c-3.671875 0-6.652344-2.980469-6.652344-6.65625zm0 0"/><path d="m293.710938 431.371094v-25.007813c0-3.675781 2.980468-6.65625 6.65625-6.65625h27.894531c3.675781 0 6.652343 2.980469 6.652343 6.65625v25.007813c0 3.675781-2.976562 6.65625-6.652343 6.65625h-27.894531c-3.675782 0-6.65625-2.980469-6.65625-6.65625zm0 0"/><path d="m355.953125 431.371094v-25.007813c0-3.675781 2.980469-6.65625 6.65625-6.65625h27.894531c3.675782 0 6.652344 2.980469 6.652344 6.65625v25.007813c0 3.675781-2.980469 6.65625-6.652344 6.65625h-27.894531c-3.675781 0-6.65625-2.980469-6.65625-6.65625zm0 0"/><path d="m263.777344 244.84375c0 8.917969-7.230469 16.148438-16.152344 16.148438-8.917969 0-16.152344-7.230469-16.152344-16.148438 0-8.921875 7.234375-16.152344 16.152344-16.152344 8.921875 0 16.152344 7.230469 16.152344 16.152344zm0 0"/><path d="m308.238281 244.84375c0 8.917969-7.230469 16.148438-16.152343 16.148438-8.921876 0-16.152344-7.230469-16.152344-16.148438 0-8.921875 7.230468-16.152344 16.152344-16.152344 8.921874 0 16.152343 7.230469 16.152343 16.152344zm0 0"/><path d="m352.699219 244.84375c0 8.917969-7.234375 16.148438-16.152344 16.148438-8.921875 0-16.152344-7.230469-16.152344-16.148438 0-8.921875 7.230469-16.152344 16.152344-16.152344 8.917969 0 16.152344 7.230469 16.152344 16.152344zm0 0"/><path d="m397.15625 244.84375c0 8.917969-7.230469 16.148438-16.148438 16.148438-8.921874 0-16.152343-7.230469-16.152343-16.148438 0-8.921875 7.230469-16.152344 16.152343-16.152344 8.917969 0 16.148438 7.230469 16.148438 16.152344zm0 0"/></g><path d="m231.472656 156.570312v-77.386718c0-4.445313 3.597656-8.042969 8.042969-8.042969h229.382813c4.445312 0 8.042968 3.597656 8.042968 8.042969v77.386718c0 4.445313-3.597656 8.042969-8.042968 8.042969h-229.382813c-4.441406 0-8.042969-3.597656-8.042969-8.042969zm0 0" fill="#ffefe4"/><path d="m337.816406 110.300781h-74.710937c-3.925781 0-7.105469-3.179687-7.105469-7.105469 0-3.921874 3.179688-7.101562 7.105469-7.101562h74.710937c3.921875 0 7.105469 3.179688 7.105469 7.101562 0 3.921876-3.183594 7.105469-7.105469 7.105469zm0 0" fill="#6770e6"/><path d="m377.816406 139.664062h-114.710937c-3.925781 0-7.105469-3.179687-7.105469-7.105468 0-3.921875 3.179688-7.101563 7.105469-7.101563h114.710937c3.921875 0 7.105469 3.179688 7.105469 7.101563s-3.183594 7.105468-7.105469 7.105468zm0 0" fill="#6770e6"/><path d="m139.078125 94.246094c0 16.160156-13.097656 29.257812-29.257813 29.257812-16.15625 0-29.253906-13.097656-29.253906-29.257812 0-16.15625 13.097656-29.253906 29.253906-29.253906 16.160157 0 29.257813 13.097656 29.257813 29.253906zm0 0" fill="#6770e6"/></svg>