<svg height="512pt" viewBox="0 0 512 512" width="512pt" xmlns="http://www.w3.org/2000/svg"><path d="m256 24c61.96875 0 120.230469 24.132812 164.046875 67.953125 43.820313 43.816406 67.953125 102.078125 67.953125 164.046875s-24.132812 120.230469-67.953125 164.046875c-43.816406 43.820313-102.078125 67.953125-164.046875 67.953125s-120.230469-24.132812-164.046875-67.953125c-43.820313-43.816406-67.953125-102.078125-67.953125-164.046875s24.132812-120.230469 67.953125-164.046875c43.816406-43.820313 102.078125-67.953125 164.046875-67.953125zm0-24c-141.382812 0-256 114.617188-256 256s114.617188 256 256 256 256-114.617188 256-256-114.617188-256-256-256zm0 0" fill="#b665c2"/><path d="m256 14c139.042969 0 252.191406 110.851562 255.902344 249 .0625-2.324219.097656-4.65625.097656-7 0-141.382812-114.617188-256-256-256s-256 114.617188-256 256c0 2.34375.0351562 4.675781.0976562 7 3.7109378-138.148438 116.8593748-249 255.9023438-249zm0 0" fill="#d476e2"/><path d="m256 498c-139.042969 0-252.191406-110.851562-255.9023438-249-.0625 2.324219-.0976562 4.65625-.0976562 7 0 141.382812 114.617188 256 256 256s256-114.617188 256-256c0-2.34375-.035156-4.675781-.097656-7-3.710938 138.148438-116.859375 249-255.902344 249zm0 0" fill="#9654a1"/><path d="m454.640625 256.042969c0 109.570312-88.820313 198.390625-198.386719 198.390625-109.570312 0-198.390625-88.820313-198.390625-198.390625 0-109.566407 88.820313-198.390625 198.390625-198.390625 109.566406 0 198.386719 88.824218 198.386719 198.390625zm0 0" fill="#a1f1fc"/><path d="m454.640625 256.042969c0-1.675781-.019531-3.347657-.0625-5.015625-2.621094-105.582032-87.726563-190.691406-193.308594-193.3125-1.667969-.039063-3.339843-.0625-5.019531-.0625s-3.351562.023437-5.019531.0625c-105.582031 2.621094-190.6875 87.730468-193.308594 193.3125-.042969 1.667968-.0625 3.339844-.0625 5.015625 0 1.679687.019531 3.351562.0625 5.019531 1.261719 50.800781 21.625 96.859375 54.171875 131.273438.011719.011718.023438.023437.039062.039062 4.539063 4.796875 9.3125 9.367188 14.304688 13.691406.035156.035156.070312.066406.105469.097656.003906 0 .003906 0 .003906-.003906 33.601563 29.058594 77.058594 47.03125 124.683594 48.210938 1.667969.042968 3.339843.066406 5.019531.066406s3.351562-.023438 5.019531-.066406c47.625-1.179688 91.082031-19.152344 124.683594-48.210938 0 0 0 .003906.003906.003906.035157-.03125.070313-.0625.105469-.097656 4.992188-4.324218 9.765625-8.894531 14.304688-13.691406.011718-.011719.027343-.023438.039062-.039062 0 0 0 0 0-.003907 32.546875-34.414062 52.910156-80.46875 54.171875-131.269531.042969-1.667969.0625-3.339844.0625-5.019531zm-83.292969-136.289063c-11.316406 9.589844-23.644531 17.640625-36.734375 24.050782-8.054687-24.460938-18.660156-44.96875-31.027343-59.828126 24.792968 6.78125 47.847656 18.902344 67.761718 35.777344zm-105.089844-40.183594c13.839844 5.210938 27.6875 20.910157 39.144532 44.832032 4.027344 8.402344 7.605468 17.519531 10.734375 27.191406-15.902344 5.648438-32.664063 9.027344-49.878907 9.96875zm0 102.03125c19.289063-.957031 37.851563-4.671874 55.304688-10.753906 5.636719 23.054688 8.925781 48.554688 9.582031 75.195313h-64.890625v-64.441407zm64.886719 84.445313c-.65625 26.640625-3.945312 52.140625-9.578125 75.199219-17.453125-6.085938-36.019531-9.800782-55.3125-10.757813v-64.441406zm-149.785156 0h64.890625v64.441406c-19.292969.957031-37.859375 4.671875-55.3125 10.757813-5.632812-23.058594-8.921875-48.5625-9.578125-75.199219zm0-20.003906c.65625-26.640625 3.949219-52.136719 9.582031-75.195313 17.453125 6.082032 36.015625 9.796875 55.304688 10.753906v64.441407zm64.890625-166.472657v81.996094c-17.21875-.945312-33.976562-4.320312-49.882812-9.972656 3.128906-9.671875 6.707031-18.785156 10.734374-27.191406 11.457032-23.921875 25.304688-39.621094 39.148438-44.832032zm-37.328125 4.40625c-12.367187 14.859376-22.976563 35.371094-31.03125 59.828126-13.085937-6.410157-25.417969-14.460938-36.734375-24.046876 19.914062-16.878906 42.96875-29 67.765625-35.78125zm-82.367187 49.601563c13.71875 11.867187 29.078124 21.878906 45.695312 29.660156-6.332031 24.921875-10.195312 52.992188-10.90625 82.804688h-83.191406c2.316406-42.195313 19.257812-81.648438 48.402344-112.464844zm34.789062 132.46875c.710938 29.8125 4.578125 57.878906 10.910156 82.804687-16.609375 7.773438-31.960937 17.78125-45.671875 29.632813-29.136719-30.816406-46.113281-70.242187-48.429687-112.4375zm-20.152344 126.300781c11.3125-9.582031 23.628906-17.632812 36.714844-24.039062 8.050781 24.445312 18.652344 44.949218 31.015625 59.800781-24.785156-6.773437-47.820313-18.898437-67.730469-35.761719zm65.910156-4.660156c-4.027343-8.40625-7.605468-17.515625-10.734374-27.1875 15.90625-5.652344 32.667968-9.019531 49.882812-9.964844v81.980469c-13.84375-5.210937-27.691406-20.90625-39.148438-44.828125zm59.15625 44.828125v-81.980469c17.214844.945313 33.976563 4.3125 49.878907 9.964844-3.125 9.671875-6.707031 18.78125-10.730469 27.1875-11.460938 23.921875-25.308594 39.617188-39.148438 44.828125zm68.339844-64.207031c13.085938 6.40625 25.402344 14.457031 36.714844 24.039062-19.910156 16.863282-42.945312 28.988282-67.726562 35.761719 12.359374-14.847656 22.960937-35.355469 31.011718-59.800781zm51.324219 10.175781c-13.710937-11.851563-29.0625-21.859375-45.667969-29.632813 6.328125-24.921874 10.195313-52.992187 10.90625-82.804687h83.195313c-2.320313 42.191406-19.296875 81.621094-48.433594 112.4375zm-34.761719-132.441406c-.707031-29.8125-4.574218-57.882813-10.90625-82.804688 16.617188-7.78125 31.976563-17.792969 45.695313-29.660156 29.140625 30.820313 46.085937 70.269531 48.402343 112.464844zm0 0" fill="#5fd4e3"/><path d="m106.835938 79.570312c0 14.832032-12.023438 26.855469-26.855469 26.855469-14.828125 0-26.851563-12.023437-26.851563-26.855469 0-14.828124 12.023438-26.851562 26.851563-26.851562 14.832031 0 26.855469 12.023438 26.855469 26.851562zm0 0" fill="#d476e2"/><path d="m79.980469 66.722656c12.40625 0 22.816406 8.421875 25.898437 19.851563.605469-2.234375.957032-4.574219.957032-7 0-14.832031-12.023438-26.851563-26.855469-26.851563-14.828125 0-26.847657 12.019532-26.847657 26.851563 0 2.425781.347657 4.765625.953126 7 3.085937-11.429688 13.492187-19.851563 25.894531-19.851563zm0 0" fill="#ea82fa"/><path d="m357.996094 161.566406c0 14.828125-12.023438 26.851563-26.851563 26.851563-14.832031 0-26.851562-12.023438-26.851562-26.851563 0-14.832031 12.019531-26.851562 26.851562-26.851562 14.828125 0 26.851563 12.019531 26.851563 26.851562zm0 0" fill="#d476e2"/><path d="m331.144531 148.714844c12.402344 0 22.8125 8.421875 25.898438 19.851562.601562-2.230468.953125-4.574218.953125-7 0-14.828125-12.023438-26.851562-26.851563-26.851562-14.832031 0-26.851562 12.023437-26.851562 26.851562 0 2.425782.351562 4.769532.953125 7 3.082031-11.429687 13.492187-19.851562 25.898437-19.851562zm0 0" fill="#ea82fa"/><path d="m199.101562 256c0 14.828125-12.023437 26.851562-26.851562 26.851562s-26.851562-12.023437-26.851562-26.851562 12.023437-26.851562 26.851562-26.851562 26.851562 12.023437 26.851562 26.851562zm0 0" fill="#d476e2"/><path d="m172.25 243.148438c12.402344 0 22.8125 8.421874 25.898438 19.851562.605468-2.234375.953124-4.574219.953124-7 0-14.828125-12.023437-26.851562-26.851562-26.851562s-26.851562 12.023437-26.851562 26.851562c0 2.425781.351562 4.765625.957031 7 3.082031-11.429688 13.492187-19.851562 25.894531-19.851562zm0 0" fill="#ea82fa"/><path d="m454.644531 427.585938c0 14.828124-12.023437 26.851562-26.851562 26.851562-14.832031 0-26.851563-12.023438-26.851563-26.851562 0-14.832032 12.019532-26.855469 26.851563-26.855469 14.828125 0 26.851562 12.023437 26.851562 26.855469zm0 0" fill="#d476e2"/><path d="m427.792969 414.734375c12.402343 0 22.8125 8.421875 25.898437 19.851563.601563-2.234376.953125-4.574219.953125-7 0-14.828126-12.023437-26.851563-26.851562-26.851563-14.832031 0-26.851563 12.023437-26.851563 26.851563 0 2.425781.351563 4.765624.953125 7 3.082031-11.429688 13.492188-19.851563 25.898438-19.851563zm0 0" fill="#ea82fa"/></svg>