<svg id="Capa_1" enable-background="new 0 0 512 512" height="512" viewBox="0 0 512 512" width="512" xmlns="http://www.w3.org/2000/svg"><path d="m256.266 0c-64.571 0-117.103 52.532-117.103 117.103v60.984h234.207v-60.984c0-64.571-52.533-117.103-117.104-117.103z" fill="#5a6c76"/><path d="m373.37 117.103c0-64.571-52.533-117.103-117.104-117.103-.124 0-.247.004-.372.005v178.083h117.476z" fill="#3b4a51"/><path d="m139.163 124.944h234.206v53.144h-234.206z" fill="#fc652b"/><path d="m255.895 124.944h117.475v53.144h-117.475z" fill="#e73c2f"/><path d="m218.598 512c-20.619 0-37.333-16.715-37.333-37.333v-302h74.667v302c-.001 20.618-16.715 37.333-37.334 37.333z" fill="#bcdcfd"/><path d="m143.933 512h-13.773c-22.897 0-40.398-20.422-36.893-43.048l45.896-296.285h42.103v302c0 20.618-16.714 37.333-37.333 37.333z" fill="#e0f4fe"/><path d="m293.266 512c-20.619 0-37.333-16.715-37.333-37.333v-302h74.667v302c-.001 20.618-16.715 37.333-37.334 37.333z" fill="#9bbad9"/><path d="m381.84 512h-13.908c-20.619 0-37.333-16.715-37.333-37.333v-302h43.167l44.985 296.398c3.429 22.592-14.06 42.935-36.911 42.935z" fill="#7da0bf"/></svg>