<svg id="Capa_1" enable-background="new 0 0 512 512" height="512" viewBox="0 0 512 512" width="512" xmlns="http://www.w3.org/2000/svg"><path d="m110.857 452.56-51.427-51.426 315.91-373.018c14.837-17.519 36.533-28.117 59.491-28.064 19.773.046 39.529 7.584 54.547 22.602 18.214 18.214 25.432 43.345 21.646 67.04-2.927 18.322-12.723 34.846-26.884 46.835z" fill="#fbbe2c"/><path d="m326.438 436.291c-31.699-31.699-31.699-83.279 0-114.978s83.278-31.699 114.977 0 31.7 83.278 0 114.977-83.277 31.701-114.977.001z" fill="#e0f4fe"/><path d="m326.438 436.291 114.978-114.978c31.7 31.7 31.7 83.278 0 114.977s-83.278 31.701-114.978.001z" fill="#bcdcfd"/><path d="m489.361 22.639-404.213 404.213 25.709 25.708 373.282-316.031c14.161-11.989 23.957-28.513 26.884-46.835 3.785-23.695-3.432-48.826-21.646-67.04-.005-.005-.011-.01-.016-.015z" fill="#fd9025"/><path d="m72.303 385.873-72.303 36.079 89.997 89.996 36.087-72.294z" fill="#fed843"/><path d="m45.024 466.976 44.973 44.972 36.087-72.294-26.869-26.869z" fill="#fbbe2c"/><path d="m404.953 300.308c-9.779-2.602-19.945-3.359-29.952-2.262-1.03 18.328-9.451 36.801-23.5 50.85-13.623 13.623-30.896 21.82-48.554 23.336-.806 10.018.217 20.156 3.101 29.86 24.469-2.238 48.155-13.471 66.666-31.983 19.39-19.391 30.739-44.237 32.239-69.801z" fill="#fc652b"/><path d="m361.942 457.039c9.739 2.719 19.884 3.611 29.888 2.643 1.796-17.185 9.926-33.906 23.239-47.218 13.735-13.735 31.589-22.057 49.457-23.413 1.257-9.976.685-20.138-1.744-29.937-25.127 1.804-50.016 13.226-68.926 32.137-18.334 18.333-29.505 41.638-31.914 65.788z" fill="#e73c2f"/></svg>