<svg id="Capa_1" enable-background="new 0 0 512 512" height="512" viewBox="0 0 512 512" width="512" xmlns="http://www.w3.org/2000/svg"><path d="m72.385 401.958h162.615v110.042h-162.615z" fill="#9edb2c"/><path d="m153 401.958h82v110.042h-82z" fill="#69b921"/><path d="m440 407.396h-165.618l21.393-110.041h144.225z" fill="#497814"/><path d="m340.333 297.355h99.667v110.042h-99.667z" fill="#405e15"/><path d="m478.65 133.83 1.198-40.236.007-.446c-.001-51.362-41.787-93.148-93.149-93.148h-94.663c-51.362 0-93.148 41.786-93.148 93.148l.001.202 1.104 244.009h236.474c20.266 0 39.25-7.962 53.452-22.421 14.154-14.409 21.772-33.451 21.466-53.637l.608-72.496v-.125c0-23.169-13.257-44.314-33.35-54.85z" fill="#405e15"/><path d="m478.65 133.83 1.198-40.236.007-.446c-.001-51.362-41.787-93.148-93.149-93.148h-46.373v337.359h96.14c20.266 0 39.25-7.962 53.452-22.421 14.154-14.409 21.772-33.451 21.466-53.637l.608-72.496.001-.125c0-23.169-13.257-44.314-33.35-54.85z" fill="#2f480f"/><path d="m436.395 337.421h-40.395v-155.273c0-29.857 24.204-54.061 54.061-54.061h7.879c29.857 0 54.061 24.204 54.061 54.061v79.667c-.001 41.756-33.851 75.606-75.606 75.606z" fill="#497814"/><path d="m247.667 243.341-42.167-15.055h-205.5v146.798c0 34.074 36.622 70.695 81.797 70.695h151.284c4.981 0 9.85-.47 14.586-1.323z" fill="#c4e83b"/><path d="m199.203 306.286h-117.406c-45.175 0-81.797-36.622-81.797-81.797v-40.406c0-45.175 36.622-81.797 81.797-81.797h117.406c45.175 0 81.797 36.622 81.797 81.797v40.406c0 45.175-36.622 81.797-81.797 81.797z" fill="#9edb2c"/><path d="m152.859 289.286c-.001.125-.009.248-.009.373 0 34.987 28.842 61.371 67.089 61.371h15.025v94.677c45.856 0 79.914-37.504 79.914-81.725v-74.696z" fill="#fbbe2c"/><path d="m239.667 270.469-86.667-2.183v177.493h80.081c2.219 0 4.411-.114 6.586-.287z" fill="#9edb2c"/><path d="m199.203 102.286h-46.203v204h46.203c45.175 0 81.797-36.622 81.797-81.797v-40.406c0-45.176-36.622-81.797-81.797-81.797z" fill="#69b921"/><path d="m279.197 238.342-64.976-.055c-32.469 0-59.113 25.349-61.221 57.293v8.188c2.165 32.92 30.206 57.261 66.939 57.261h15.025v84.676c45.856 0 79.914-37.504 79.914-81.725v-89.929c0-19.709-15.97-35.692-35.681-35.709z" fill="#c4e83b"/></svg>