<svg id="Capa_1" enable-background="new 0 0 512 512" height="512" viewBox="0 0 512 512" width="512" xmlns="http://www.w3.org/2000/svg"><path d="m165.804 22.454h-22.863v-22.454h-30v22.454h-22.862v30h22.862v42.274h30v-42.274h22.863z" fill="#5a6c76"/><path d="m142.941 22.454v-22.454h-14.733v94.728h14.733v-42.274h22.863v-30z" fill="#475a61"/><path d="m127.941 79.728c-28.949 0-52.501 23.552-52.501 52.501v11.601h105.002v-11.601c.001-28.95-23.552-52.501-52.501-52.501z" fill="#475a61"/><path d="m128.208 79.734v64.095h52.235v-11.601c0-28.859-23.409-52.349-52.235-52.494z" fill="#3b4a51"/><path d="m173.038 224.869 20.153-95.187h-132.737l20.153 95.185-36.798 167.862 12.011 54.448 142.26-.079 11.696-54.408z" fill="#475a61"/><path d="m173.038 224.869 20.153-95.187h-64.983v317.454l69.872-.038 11.696-54.408z" fill="#3b4a51"/><path d="m173.038 224.869 20.153-95.187h-132.737l20.153 95.185-36.798 167.862 165.967-.039z" fill="#5a6c76"/><path d="m128.208 129.682v263.028l81.568-.02-36.738-167.821 20.153-95.187z" fill="#475a61"/><path d="m57.611 209.922h138.661v30h-138.661z" fill="#475a61"/><path d="m128.208 209.922h68.064v30h-68.064z" fill="#3b4a51"/><path d="m197.515 429.023h-141.148c-24.312 0-44.091 20.58-44.091 45.876v22.101h229.331v-22.101c0-25.295-19.78-45.876-44.092-45.876z" fill="#5a6c76"/><path d="m197.515 429.023h-69.308v67.977h113.399v-22.101c.001-25.295-19.779-45.876-44.091-45.876z" fill="#475a61"/><path d="m382.782 236.729c-29.776 0-54-24.225-54-54s24.224-54 54-54 54 24.225 54 54-24.224 54-54 54z" fill="#475a61"/><path d="m382.971 128.733v107.99c29.689-.103 53.811-24.283 53.811-53.995s-24.122-53.892-53.811-53.995z" fill="#3b4a51"/><path d="m428.9 273.627 6.548-48.951h-105.454l6.548 48.948-36.982 118.432 12.159 55.121 142.26-.079 11.84-55.08z" fill="#475a61"/><path d="m428.9 273.627 6.548-48.951h-52.477v222.461l71.008-.039 11.84-55.08z" fill="#3b4a51"/><path d="m428.9 273.627 6.548-48.951h-105.454l6.548 48.948-36.982 118.432 166.259-.038z" fill="#475a61"/><path d="m382.971 224.676v167.361l82.848-.019-36.919-118.391 6.548-48.951z" fill="#3b4a51"/><path d="m428.9 273.627-92.358-.003-36.982 118.432 166.259-.038z" fill="#5a6c76"/><path d="m382.971 392.037 82.848-.019-36.919-118.391-45.929-.002z" fill="#475a61"/><path d="m312.328 207.687h140.788v30h-140.788z" fill="#5a6c76"/><path d="m382.971 207.687h70.144v30h-70.144z" fill="#475a61"/><path d="m453.414 429.023h-141.148c-24.312 0-44.091 20.58-44.091 45.876v22.101h229.331v-22.101c0-25.295-19.78-45.876-44.092-45.876z" fill="#5a6c76"/><path d="m453.414 429.023h-70.443v67.977h114.534v-22.101c.001-25.295-19.779-45.876-44.091-45.876z" fill="#475a61"/><path d="m0 482h256v30h-256z" fill="#475a61"/><path d="m128.208 482h127.792v30h-127.792z" fill="#3b4a51"/><path d="m256 482h256v30h-256z" fill="#475a61"/><path d="m383 482h129v30h-129z" fill="#3b4a51"/></svg>