<svg id="Capa_1" enable-background="new 0 0 512 512" height="512" viewBox="0 0 512 512" width="512" xmlns="http://www.w3.org/2000/svg"><path d="m475.976 502.06-455.43-73.737-18.882-158.57c-5.514-46.308 2.738-92.685 23.864-134.116 21.247-41.67 54.052-75.414 94.869-97.587 33.852-18.389 72.232-28.11 110.991-28.11 51.517 0 100.388 16.528 141.328 47.799 40.941 31.27 69.746 74.069 83.301 123.771l55.983 205.276z" fill="#c4e83b"/><path d="m512 386.786-55.984-205.275c-13.555-49.702-42.36-92.501-83.301-123.771-40.939-31.272-89.81-47.8-141.327-47.8-7.823 0-15.63.403-23.388 1.186v447.547l267.976 43.387z" fill="#9edb2c"/><path d="m262.017 196.841-54.612 66.286c8.364 44.747 42.408 80.448 86.732 90.954l212.353 50.333 5.51-17.628-49.478-181.422-2.855-8.523z" fill="#e0f4fe"/><path d="m208.017 275.269c-33.231 0-60.267-27.035-60.267-60.266s27.035-60.267 60.267-60.267c33.23 0 60.266 27.035 60.266 60.267 0 33.23-27.036 60.266-60.266 60.266z" fill="#fd9025"/><path d="m208.017 154.737c-.012 0-.025.001-.037.001v120.53c.012 0 .025.001.037.001 33.23 0 60.266-27.035 60.266-60.266s-27.036-60.266-60.266-60.266z" fill="#fc652b"/></svg>