<svg id="Capa_1" enable-background="new 0 0 512 512" height="512" viewBox="0 0 512 512" width="512" xmlns="http://www.w3.org/2000/svg"><path d="m424.217 228.771h-223.12l-68.924-228.771h-106.842l124.669 439.142v11.41h225.779c61.145 0 110.891-49.745 110.891-110.891v-48.438c-.001-34.436-28.017-62.452-62.453-62.452z" fill="#64cef2"/><path d="m177.369 150.015-18.078-60.006h-108.407l17.035 60.006z" fill="#fc652b"/><path d="m54.605 405.441h265.725v106.559h-265.725z" fill="#5a6c76"/><path d="m187.647 405.441h132.683v106.559h-132.683z" fill="#475a61"/><path d="m54.605 365.158v37.956c0 26.443 21.513 47.957 47.957 47.957h169.812c26.443 0 47.957-21.513 47.957-47.957v-37.956z" fill="#475a61"/><path d="m187.647 365.158v85.913h84.727c26.443 0 47.957-21.513 47.957-47.957v-37.956z" fill="#3b4a51"/></svg>