<svg id="Capa_1" enable-background="new 0 0 512 512" height="512" viewBox="0 0 512 512" width="512" xmlns="http://www.w3.org/2000/svg"><path d="m55.041 512h-30v-299.419l44-50.005-44-42.851v-119.725h30z" fill="#fbbe2c"/><path d="m486.912 305.08h-369.388l-92.455-92.499v-92.856l92.455-92.475h369.388z" fill="#e0f4fe"/><path d="m256.024 27.25h230.889v277.83h-230.889z" fill="#bcdcfd"/><path d="m25.047 27.248h92.478v92.478h-92.478z" fill="#475a61"/><path d="m209.856 27.248h92.478v92.478h-92.478z" fill="#475a61"/><path d="m394.481 27.248h92.478v92.478h-92.478z" fill="#3b4a51"/><path d="m117.543 119.914h92.478v92.478h-92.478z" fill="#475a61"/><path d="m302.168 119.914h92.478v92.478h-92.478z" fill="#3b4a51"/><path d="m25.047 212.581h92.478v92.478h-92.478z" fill="#475a61"/><path d="m209.856 212.581h92.478v92.478h-92.478z" fill="#475a61"/><g fill="#3b4a51"><path d="m255.991 27.248h46.343v92.478h-46.343z"/><path d="m255.991 212.581h46.343v92.478h-46.343z"/><path d="m394.481 212.581h92.478v92.478h-92.478z"/></g></svg>