<svg id="Capa_1" enable-background="new 0 0 512 512" height="512" viewBox="0 0 512 512" width="512" xmlns="http://www.w3.org/2000/svg"><path d="m138.81 507.712c-53.465 0-99.729-8.761-114.268-23.041-18.114-17.79-24.542-71.954-24.542-112.931 0-51.415 9.807-180.634 100.655-269.867 29.838-29.307 67.208-52.565 111.071-69.127 36.454-13.765 76.522-22.669 119.093-26.466 70.729-6.31 140.483 2.842 158.801 20.834 15.46 15.184 22.38 67.586 22.38 112.783 0 32.989-3.493 83.508-20.134 136.838-16.783 53.785-43.147 98.592-78.359 133.178-29.843 29.312-67.182 52.591-110.979 69.193-36.444 13.814-76.473 22.762-118.973 26.594-15.115 1.363-30.201 2.012-44.745 2.012zm329.563-459.436" fill="#fd9025"/><path d="m487.078 24.927-461.073 461.073c15.988 13.492 61.019 21.712 112.805 21.712 14.545 0 29.631-.649 44.746-2.012 42.5-3.832 82.528-12.779 118.973-26.594 43.797-16.602 81.136-39.882 110.979-69.193 35.212-34.585 61.576-79.393 78.359-133.178 16.64-53.33 20.133-103.849 20.133-136.838 0-45.197-6.92-97.599-22.38-112.784-.758-.744-1.612-1.472-2.542-2.186z" fill="#fc652b"/><path d="m506.475 212.849c1.595-10.456 2.766-20.497 3.607-29.975-87.802-21.326-157.128-90.551-177.077-176.782-.728.062-1.457.123-2.185.188-9.392.838-18.654 1.939-27.791 3.271 9.488 43.783 30.057 84.176 60.085 118.128l-36.436 36.436-24.875-24.875-21.213 21.213 24.875 24.875-25.568 25.568-24.875-24.875-21.213 21.213 24.875 24.875-25.569 25.569-24.875-24.875-21.213 21.213 24.875 24.875-25.568 25.568-24.875-24.875-21.213 21.213 24.875 24.875-39.721 39.72c-33.816-31.735-74.864-53.968-119.775-64.842-1.659 10.618-2.852 20.678-3.701 29.998 41.976 10.814 80.033 32.868 110.615 64.227 30.457 31.233 51.492 69.65 61.288 111.698 3.239-.228 6.483-.481 9.73-.773 6.849-.618 13.627-1.383 20.343-2.265-9.371-43.035-29.14-82.796-57.779-116.336l40.215-40.215 25.693 25.693 21.213-21.213-25.693-25.693 25.568-25.568 25.693 25.693 21.213-21.213-25.693-25.693 25.568-25.568 25.693 25.693 21.213-21.213-25.693-25.693 25.569-25.569 25.693 25.693 21.213-21.213-25.693-25.693 36.3-36.3c34.691 31.503 76.596 53.387 122.282 63.822z" fill="#fc652b"/><path d="m506.475 212.849c1.595-10.456 2.766-20.497 3.607-29.975-44.594-10.832-84.416-34.025-115.43-65.521l-279.817 279.818c29.217 30.793 49.444 68.322 58.991 109.303 3.239-.228 6.483-.481 9.73-.773 6.849-.618 13.627-1.383 20.343-2.265-9.371-43.034-29.147-82.79-57.787-116.329l40.223-40.223 25.693 25.693 21.213-21.213-25.693-25.693 25.568-25.568 25.693 25.693 21.213-21.213-25.693-25.693 25.568-25.568 25.693 25.693 21.213-21.213-25.693-25.693 25.569-25.569 25.693 25.693 21.213-21.213-25.693-25.693 36.3-36.3c34.692 31.503 76.597 53.387 122.283 63.822z" fill="#e73c2f"/></svg>