<svg id="Capa_1" enable-background="new 0 0 512 512" height="512" viewBox="0 0 512 512" width="512" xmlns="http://www.w3.org/2000/svg"><path d="m132.038 512c-33.062 0-64.146-12.875-87.525-36.253l-8.26-8.26c-48.261-48.261-48.261-126.788 0-175.049l256.185-256.184c23.378-23.379 54.461-36.254 87.524-36.254s64.146 12.875 87.525 36.254l8.26 8.259c48.261 48.262 48.261 126.789 0 175.05l-256.185 256.183c-23.378 23.379-54.461 36.254-87.524 36.254z" fill="#32b3e8"/><path d="m471.617 40.383-431.233 431.233 4.13 4.13c23.379 23.379 54.462 36.254 87.524 36.254s64.146-12.875 87.524-36.254l256.184-256.183c48.26-48.261 48.26-126.789 0-175.05z" fill="#1997fc"/><path d="m283.995 192.46h36.83v32.754h-36.83z" fill="#bcdcfd" transform="matrix(.707 -.707 .707 .707 -59.096 275.003)"/><path d="m155.263 321.234h36.746v32.754h-36.746z" fill="#bcdcfd" transform="matrix(.707 -.707 .707 .707 -187.87 221.663)"/><path d="m172.67 262.063h29.925v127.103h-29.925z" fill="#e0f4fe" transform="matrix(.707 -.707 .707 .707 -175.288 228.046)"/><path d="m289.974 206.893h36.83v15.844h-36.83z" fill="#9bbad9" transform="matrix(.707 -.707 .707 .707 -61.572 280.981)"/><path d="m161.241 335.667h36.746v15.844h-36.746z" fill="#9bbad9" transform="matrix(.707 -.707 .707 .707 -190.348 227.645)"/><path d="m194.827 315.555h29.925v64.433h-29.925z" fill="#bcdcfd" transform="matrix(.707 -.707 .707 .707 -184.466 250.204)"/><path d="m331.601 236.427h78.101v29.925h-78.101z" fill="#475a61" transform="matrix(.707 -.707 .707 .707 -69.198 335.72)"/><path d="m203.355 364.673h78.1v29.925h-78.1z" fill="#475a61" transform="matrix(.707 -.707 .707 .707 -197.444 282.599)"/><path d="m301.414 133.318h29.925v127.104h-29.925z" fill="#e0f4fe" transform="matrix(.707 -.707 .707 .707 -46.543 281.373)"/><path d="m221.725 126.55h78.1v29.925h-78.1z" fill="#5a6c76" transform="matrix(.707 -.707 .707 .707 -23.686 225.844)"/><path d="m93.478 254.796h78.1v29.925h-78.1z" fill="#5a6c76" transform="matrix(.707 -.707 .707 .707 -151.932 172.722)"/><path d="m323.572 186.81h29.925v64.433h-29.925z" fill="#bcdcfd" transform="matrix(.707 -.707 .707 .707 -55.721 303.53)"/><g fill="#475a61"><path d="m331.601 236.427h78.101v29.925h-78.101z" transform="matrix(.707 -.707 .707 .707 -69.198 335.72)"/><path d="m203.355 364.673h78.1v29.925h-78.1z" transform="matrix(.707 -.707 .707 .707 -197.444 282.599)"/></g></svg>