<svg id="Capa_1" enable-background="new 0 0 512.333 512.333" height="512" viewBox="0 0 512.333 512.333" width="512" xmlns="http://www.w3.org/2000/svg"><path d="m0 282.121h512v180.902h-512z" fill="#1997fc"/><path d="m256 282.121h256v180.902h-256z" fill="#0085cc"/><path d="m426.663 309.536c-24.055 0-36.742-4.758-47.936-8.955-10.081-3.78-18.787-7.045-37.401-7.045-18.613 0-27.319 3.265-37.4 7.045-11.193 4.197-23.88 8.955-47.933 8.955s-36.739-4.758-47.933-8.955c-10.08-3.78-18.786-7.045-37.398-7.045-18.613 0-27.319 3.265-37.399 7.045-11.193 4.197-23.88 8.955-47.933 8.955s-36.739-4.758-47.932-8.955c-10.08-3.78-18.786-7.045-37.398-7.045v-30c24.053 0 36.739 4.758 47.933 8.955 10.08 3.78 18.786 7.045 37.398 7.045 18.613 0 27.319-3.265 37.399-7.045 11.193-4.197 23.88-8.955 47.933-8.955s36.739 4.758 47.932 8.955c10.08 3.78 18.786 7.045 37.398 7.045 18.613 0 27.318-3.265 37.399-7.045 11.193-4.197 23.88-8.955 47.934-8.955s36.741 4.758 47.935 8.955c10.081 3.78 18.788 7.045 37.402 7.045s27.32-3.265 37.401-7.045c11.193-4.197 23.881-8.955 47.936-8.955v30c-18.614 0-27.321 3.265-37.402 7.045-11.194 4.198-23.881 8.955-47.935 8.955z" fill="#32b3e8"/><path d="m426.663 371.54c-24.055 0-36.742-4.758-47.936-8.955-10.081-3.78-18.787-7.045-37.401-7.045-18.613 0-27.319 3.265-37.4 7.045-11.193 4.197-23.88 8.955-47.933 8.955s-36.739-4.758-47.933-8.955c-10.08-3.78-18.786-7.045-37.398-7.045-18.613 0-27.319 3.265-37.399 7.045-11.193 4.197-23.88 8.955-47.933 8.955s-36.739-4.758-47.932-8.955c-10.08-3.78-18.786-7.045-37.398-7.045v-30c24.053 0 36.739 4.758 47.933 8.955 10.08 3.78 18.786 7.045 37.398 7.045 18.613 0 27.319-3.265 37.399-7.045 11.193-4.197 23.88-8.955 47.933-8.955s36.739 4.758 47.932 8.955c10.08 3.78 18.786 7.045 37.398 7.045 18.613 0 27.318-3.265 37.399-7.045 11.193-4.197 23.88-8.955 47.934-8.955s36.741 4.758 47.935 8.955c10.081 3.78 18.788 7.045 37.402 7.045s27.32-3.265 37.401-7.045c11.193-4.197 23.881-8.955 47.936-8.955v30c-18.614 0-27.321 3.265-37.402 7.045-11.194 4.197-23.881 8.955-47.935 8.955z" fill="#32b3e8"/><path d="m426.663 432.544c-24.055 0-36.742-4.758-47.936-8.955-10.081-3.78-18.787-7.045-37.401-7.045-18.613 0-27.319 3.265-37.4 7.045-11.193 4.197-23.88 8.955-47.933 8.955s-36.739-4.758-47.933-8.955c-10.08-3.78-18.786-7.045-37.398-7.045-18.613 0-27.319 3.265-37.399 7.045-11.193 4.197-23.88 8.955-47.933 8.955s-36.739-4.758-47.932-8.955c-10.08-3.78-18.786-7.045-37.398-7.045v-30c24.053 0 36.739 4.758 47.933 8.955 10.08 3.78 18.786 7.045 37.398 7.045 18.613 0 27.319-3.265 37.399-7.045 11.193-4.197 23.88-8.955 47.933-8.955s36.739 4.758 47.932 8.955c10.08 3.78 18.786 7.045 37.398 7.045 18.613 0 27.318-3.265 37.399-7.045 11.193-4.197 23.88-8.955 47.934-8.955s36.741 4.758 47.935 8.955c10.081 3.78 18.788 7.045 37.402 7.045s27.32-3.265 37.401-7.045c11.193-4.197 23.881-8.955 47.936-8.955v30c-18.614 0-27.321 3.265-37.402 7.045-11.194 4.197-23.881 8.955-47.935 8.955z" fill="#32b3e8"/><g fill="#1997fc"><path d="m341.326 293.536c18.614 0 27.32 3.265 37.401 7.045 11.193 4.197 23.881 8.955 47.936 8.955 24.054 0 36.741-4.758 47.935-8.955 10.081-3.78 18.788-7.045 37.402-7.045v-30c-24.055 0-36.742 4.758-47.936 8.955-10.081 3.78-18.787 7.045-37.401 7.045s-27.321-3.265-37.402-7.045c-11.193-4.197-23.881-8.955-47.935-8.955s-36.74 4.758-47.934 8.955c-10.08 3.78-18.784 7.044-37.393 7.045v30c24.048-.001 36.734-4.758 47.926-8.955 10.082-3.78 18.788-7.045 37.401-7.045z"/><path d="m303.926 362.585c10.081-3.78 18.787-7.045 37.4-7.045 18.614 0 27.32 3.265 37.401 7.045 11.193 4.197 23.881 8.955 47.936 8.955 24.054 0 36.741-4.758 47.935-8.955 10.081-3.78 18.788-7.045 37.402-7.045v-30c-24.055 0-36.742 4.758-47.936 8.955-10.081 3.78-18.787 7.045-37.401 7.045s-27.321-3.265-37.402-7.045c-11.193-4.197-23.881-8.955-47.935-8.955s-36.74 4.758-47.934 8.955c-10.08 3.78-18.784 7.044-37.393 7.045v30c24.049-.001 36.735-4.758 47.927-8.955z"/><path d="m303.926 423.589c10.081-3.78 18.787-7.045 37.4-7.045 18.614 0 27.32 3.265 37.401 7.045 11.193 4.197 23.881 8.955 47.936 8.955 24.054 0 36.741-4.758 47.935-8.955 10.081-3.78 18.788-7.045 37.402-7.045v-30c-24.055 0-36.742 4.758-47.936 8.955-10.081 3.78-18.787 7.045-37.401 7.045s-27.321-3.265-37.402-7.045c-11.193-4.197-23.881-8.955-47.935-8.955s-36.74 4.758-47.934 8.955c-10.08 3.78-18.784 7.044-37.393 7.045v30c24.049-.001 36.735-4.758 47.927-8.955z"/></g><path d="m412.951 156.831c-30.342 0-55.027-24.685-55.027-55.027s24.685-55.027 55.027-55.027 55.027 24.685 55.027 55.027-24.685 55.027-55.027 55.027z" fill="#fed843"/><path d="m412.951 156.831v-110.055c30.342 0 55.027 24.685 55.027 55.027s-24.685 55.028-55.027 55.028z" fill="#fbbe2c"/><path d="m.333 449.862h512v62.162h-512z" fill="#fed843"/><path d="m256 449.862h256.333v62.162h-256.333z" fill="#fbbe2c"/><path d="m154.331 89.589c-21.511-47.231-43.044-73.687-43.95-74.79l-11.902-14.489-11.529 14.788c-.901 1.155-22.306 28.843-43.745 76.616-19.71 43.919-43.205 114.009-43.205 198.515 0 94.553 24.073 176.635 61.331 209.115l13.951 12.163v-19.09c0-13.184 10.688-23.871 23.871-23.871 13.184 0 23.871 10.688 23.871 23.871v18.717l13.892-12.385c36.845-32.85 60.654-114.699 60.654-208.52.001-87.364-23.513-157.33-43.239-200.64z" fill="#fd9025"/><path d="m154.331 89.589c-21.511-47.231-43.044-73.687-43.95-74.79l-11.596-14.117v467.873c.123-.002.245-.009.368-.009 13.184 0 23.871 10.688 23.871 23.871v18.717l13.892-12.385c36.845-32.85 60.654-114.699 60.654-208.52.001-87.364-23.513-157.33-43.239-200.64z" fill="#fc652b"/><path d="m83.778 324.46v149.703c4.154-3.502 9.517-5.617 15.376-5.617 5.519 0 10.596 1.878 14.639 5.023v-149.109z" fill="#fc652b"/><path d="m98.785 324.46v144.096c.123-.002.245-.009.368-.009 5.519 0 10.596 1.878 14.639 5.023v-149.11z" fill="#e73c2f"/></svg>