<svg id="Capa_1" enable-background="new 0 0 512 512" height="512" viewBox="0 0 512 512" width="512" xmlns="http://www.w3.org/2000/svg"><path d="m312.699 54.591h-41.588v-24.579h20.254v-30.012h-70.52v30.012h20.254v24.579h-41.798c-30.024 0-54.451 24.427-54.451 54.451v49.816h222.3v-49.816c0-30.024-24.427-54.451-54.451-54.451z" fill="#475a61"/><path d="m367.15 143.853h-222.195v75.928l23.003 57.257-23.003 60.118v174.844h222.195v-174.844l-23.002-60.118 23.002-57.257z" fill="#32b3e8"/><path d="m312.699 54.591h-41.588v-24.579h20.254v-30.012h-34.26v158.859h110.045v-49.816c0-30.025-24.427-54.452-54.451-54.452z" fill="#3b4a51"/><path d="m367.15 143.853h-110.045v368.147h110.045v-174.844l-23.002-60.118 23.002-57.257z" fill="#0085cc"/><path d="m144.955 448.284h222.195v63.716h-222.195z" fill="#64cef2"/><path d="m257.105 448.284h110.045v63.716h-110.045z" fill="#32b3e8"/></svg>