<?xml version="1.0" encoding="iso-8859-1"?>
<!-- Generator: Adobe Illustrator 19.0.0, SVG Export Plug-In . SVG Version: 6.00 Build 0)  -->
<svg version="1.1" id="Capa_1" xmlns="http://www.w3.org/2000/svg" xmlns:xlink="http://www.w3.org/1999/xlink" x="0px" y="0px"
	 viewBox="0 0 512 512" style="enable-background:new 0 0 512 512;" xml:space="preserve">
<g>
	<circle style="fill:#7F8C8D;" cx="256" cy="256" r="158.897"/>
	<polygon style="fill:#A5A5A4;" points="169.278,214.987 135.097,151.614 115.836,115.836 151.614,135.097 214.987,169.278 
		297.013,169.278 297.101,169.278 396.164,115.836 342.722,214.899 342.722,214.987 342.722,297.013 342.722,297.101 
		396.164,396.164 297.101,342.722 297.013,342.722 214.987,342.722 214.899,342.722 115.836,396.164 169.278,297.101 
		169.278,297.013 	"/>
	<path style="fill:#802F34;" d="M305.876,206.124c-5.106-5.158-10.97-9.504-17.39-12.888h-0.088
		c-20.328-10.476-44.467-10.476-64.794,0h-0.088c-6.415,3.392-12.279,7.738-17.39,12.888l-0.088-0.088l8.916-36.723L256,0
		l41.048,169.313h0.088L305.876,206.124z"/>
	<path style="fill:#B19046;" d="M305.964,305.964L256,512l-49.964-206.036l0.088-0.088c5.112,5.15,10.975,9.496,17.39,12.888h0.088
		c10.009,5.19,21.123,7.886,32.398,7.857c10.219,0.037,20.32-2.194,29.572-6.532h0.088c0.883-0.441,1.854-0.794,2.737-1.324h0.088
		C294.93,315.413,300.824,311.096,305.964,305.964z"/>
	<g>
		<path style="fill:#D1D4D1;" d="M193.236,288.486c3.392,6.415,7.738,12.278,12.888,17.39l-0.088,0.088l-36.723-8.828v-0.088L0,256
			l169.313-41.048l36.723-8.916l0.088,0.088c-5.15,5.112-9.496,10.975-12.888,17.39v0.088c-10.475,20.328-10.475,44.467,0,64.794
			L193.236,288.486z"/>
		<path style="fill:#D1D4D1;" d="M512,256l-169.313,41.048v0.088l-36.723,8.828c1.593-1.593,3.096-3.272,4.502-5.032
			c3.216-3.831,5.999-8.005,8.298-12.447v-0.088c10.475-20.328,10.475-44.466,0-64.794v-0.088
			c-2.534-4.811-5.615-9.313-9.181-13.418c-1.143-1.408-2.382-2.735-3.708-3.972l4.414,0.971l32.397,7.768v0.088L512,256z"/>
	</g>
	<g>
		<path style="fill:#ECF0F1;" d="M194.207,264.828h-44.384c-4.875,0-8.828-3.952-8.828-8.828s3.952-8.828,8.828-8.828h44.384
			c4.875,0,8.828,3.952,8.828,8.828S199.082,264.828,194.207,264.828z"/>
		<path style="fill:#ECF0F1;" d="M362.517,264.828h-44.379c-4.875,0-8.828-3.952-8.828-8.828s3.952-8.828,8.828-8.828h44.379
			c4.875,0,8.828,3.952,8.828,8.828S367.393,264.828,362.517,264.828z"/>
	</g>
	<path style="fill:#CC4B4C;" d="M256,202.69c-4.875,0-8.827-3.952-8.828-8.828v-44.379c0-4.875,3.952-8.828,8.828-8.828
		s8.828,3.952,8.828,8.828v44.379C264.827,198.737,260.875,202.689,256,202.69L256,202.69z"/>
	<path style="fill:#E4C05C;" d="M256,371.345c-4.875,0-8.827-3.952-8.828-8.828v-44.379c0-4.875,3.952-8.828,8.828-8.828
		s8.828,3.952,8.828,8.828v44.379C264.827,367.393,260.875,371.345,256,371.345L256,371.345z"/>
	<path style="fill:#A5A5A4;" d="M326.621,256c0.029,11.274-2.667,22.389-7.857,32.397v0.088c-2.299,4.442-5.082,8.616-8.298,12.447
		c-1.406,1.759-2.909,3.439-4.502,5.032c-5.14,5.132-11.034,9.449-17.479,12.8h-0.088c-0.883,0.53-1.854,0.883-2.737,1.324h-0.088
		c-9.253,4.339-19.353,6.57-29.572,6.532c-11.274,0.029-22.389-2.666-32.397-7.857h-0.088c-12.871-6.868-23.41-17.407-30.279-30.279
		v-0.088c-10.475-20.328-10.475-44.466,0-64.794v-0.088c6.868-12.871,17.407-23.411,30.279-30.279h0.088
		c20.328-10.476,44.467-10.476,64.794,0h0.088c8.029,4.245,15.186,9.965,21.098,16.861c3.566,4.105,6.646,8.607,9.181,13.418v0.088
		C323.954,233.611,326.649,244.726,326.621,256L326.621,256z"/>
	<path style="fill:#ECF0F1;" d="M256,286.266c-4.782,0.03-9.5-1.106-13.744-3.31l-1.429-0.744
		c-4.579-2.724-8.398-6.558-11.103-11.148l-0.68-1.32c-4.414-8.631-4.414-18.857,0-27.488l0.759-1.463
		c2.727-4.57,6.559-8.381,11.143-11.084l1.31-0.67c8.633-4.407,18.855-4.407,27.488,0l1.419,0.734
		c4.576,2.723,8.395,6.553,11.104,11.138l0.69,1.345c4.414,8.631,4.414,18.857,0,27.488l-0.818,1.581
		c-0.753,1.276-1.61,2.489-2.562,3.626c-2.103,2.589-4.6,4.831-7.399,6.645l-2.089,1.158l-1.754,0.818
		C264.475,285.375,260.261,286.295,256,286.266L256,286.266z"/>
</g>
<g>
</g>
<g>
</g>
<g>
</g>
<g>
</g>
<g>
</g>
<g>
</g>
<g>
</g>
<g>
</g>
<g>
</g>
<g>
</g>
<g>
</g>
<g>
</g>
<g>
</g>
<g>
</g>
<g>
</g>
</svg>
