<?xml version="1.0" encoding="iso-8859-1"?>
<!-- Generator: Adobe Illustrator 19.0.0, SVG Export Plug-In . SVG Version: 6.00 Build 0)  -->
<svg version="1.1" id="Capa_1" xmlns="http://www.w3.org/2000/svg" xmlns:xlink="http://www.w3.org/1999/xlink" x="0px" y="0px"
	 viewBox="0 0 512 512" style="enable-background:new 0 0 512 512;" xml:space="preserve">
<g>
	<g>
		<rect x="114.759" y="70.621" style="fill:#ECF0F1;" width="282.483" height="379.586"/>
		<g>
			<path style="fill:#84B5CB;" d="M397.241,35.31v35.31H114.759V35.31c-0.003-9.366,3.717-18.348,10.339-24.971
				S140.703-0.003,150.069,0h211.862c9.366-0.003,18.348,3.717,24.971,10.339S397.244,25.945,397.241,35.31z"/>
			<path style="fill:#84B5CB;" d="M397.241,450.207v26.483c0.002,9.366-3.717,18.348-10.34,24.971
				c-6.622,6.622-15.605,10.342-24.971,10.34H150.069c-9.366,0.002-18.348-3.717-24.971-10.34
				c-6.622-6.622-10.342-15.605-10.34-24.971v-26.483H397.241z"/>
		</g>
		<path style="fill:#4482C3;" d="M397.241,361.931v88.276H256V344.276c6.017,0.049,11.63-3.025,14.83-8.121
			c10.091-16.273,19.257-33.101,27.454-50.406c29.103,4.889,54.854,21.683,71.062,46.345c5.232,8.809,11.648,16.858,19.068,23.923
			L397.241,361.931z"/>
		<path style="fill:#46B29D;" d="M256,344.276v105.931H114.759V70.621h44.138c69.738,0,89.953,44.138,95.25,62.588
			c-38.271,0.938-68.799,32.249-68.767,70.532c0,27.454,35.046,100.017,55.791,132.414C244.37,341.251,249.983,344.325,256,344.276z
			"/>
	</g>
	<g>
		
			<circle style="fill:none;stroke:#020202;stroke-width:2;stroke-linecap:round;stroke-linejoin:round;" cx="256" cy="203.034" r="35.31"/>
		
			<circle style="fill:none;stroke:#020202;stroke-width:2;stroke-linecap:round;stroke-linejoin:round;" cx="256" cy="203.034" r="35.31"/>
	</g>
	<g>
		<path style="fill:#CC4B4C;" d="M326.621,203.741c0,12.535-7.239,34.339-17.125,57.556c-3.444,8.121-7.239,16.419-11.211,24.452
			c-8.198,17.304-17.364,34.133-27.455,50.406c-3.234,5.06-8.825,8.122-14.83,8.122c-6.005,0-11.596-3.062-14.83-8.122
			c-20.746-32.397-55.791-104.96-55.791-132.414c-0.032-38.283,30.495-69.594,68.767-70.532c0.615-0.074,1.235-0.103,1.854-0.088
			c18.731-0.005,36.697,7.434,49.942,20.679C319.187,167.044,326.626,185.009,326.621,203.741L326.621,203.741z"/>
		<g>
			<circle style="fill:#ECF0F1;" cx="256" cy="203.034" r="35.31"/>
			<circle style="fill:#ECF0F1;" cx="256" cy="450.207" r="26.483"/>
		</g>
		<g>
			<path style="fill:#547580;" d="M273.655,44.138h-35.31c-4.875,0-8.828-3.952-8.828-8.828s3.952-8.828,8.828-8.828h35.31
				c4.875,0,8.828,3.952,8.828,8.828S278.531,44.138,273.655,44.138z"/>
			<path style="fill:#547580;" d="M326.621,44.138c-0.593-0.016-1.183-0.075-1.767-0.177c-0.552-0.098-1.086-0.277-1.586-0.53
				c-0.565-0.194-1.101-0.462-1.595-0.797c-0.44-0.35-0.879-0.703-1.319-1.056c-0.378-0.421-0.732-0.862-1.06-1.323
				c-0.336-0.492-0.603-1.027-0.793-1.591c-0.255-0.501-0.435-1.037-0.535-1.59c-0.096-0.583-0.153-1.172-0.172-1.763
				c-0.033-1.159,0.21-2.31,0.707-3.358c0.447-1.068,1.074-2.053,1.853-2.91l1.319-1.06c0.494-0.335,1.03-0.604,1.595-0.797
				c0.499-0.254,1.034-0.431,1.587-0.526c1.131-0.267,2.309-0.267,3.44,0c0.586,0.081,1.154,0.259,1.681,0.526
				c0.562,0.194,1.095,0.462,1.586,0.797c0.44,0.353,0.888,0.707,1.328,1.06c0.779,0.857,1.406,1.841,1.854,2.909
				c0.453,1.062,0.693,2.203,0.707,3.358c-0.018,0.591-0.078,1.18-0.181,1.763c-0.093,0.554-0.27,1.09-0.526,1.59
				c-0.194,0.562-0.461,1.097-0.793,1.591c-0.353,0.44-0.707,0.879-1.06,1.323c-0.44,0.353-0.888,0.707-1.328,1.056
				c-0.491,0.335-1.024,0.603-1.586,0.797c-0.528,0.266-1.096,0.445-1.681,0.53C327.741,44.063,327.182,44.122,326.621,44.138
				L326.621,44.138z"/>
			<path style="fill:#547580;" d="M361.931,44.138c-2.348,0.023-4.607-0.9-6.267-2.56c-1.66-1.66-2.583-3.919-2.56-6.267
				c0.019-0.592,0.076-1.183,0.172-1.767c0.1-0.553,0.28-1.089,0.535-1.59c0.191-0.562,0.458-1.096,0.793-1.586
				c0.326-0.463,0.68-0.905,1.06-1.324c2.124-1.999,5.066-2.882,7.94-2.383c0.586,0.081,1.154,0.259,1.681,0.526
				c0.542,0.177,1.05,0.447,1.5,0.797c0.526,0.353,0.974,0.707,1.414,1.06c1.612,1.693,2.526,3.931,2.561,6.267
				c-0.014,1.153-0.254,2.293-0.707,3.353c-0.427,1.08-1.056,2.069-1.854,2.914c-0.433,0.401-0.907,0.755-1.414,1.056
				c-0.45,0.351-0.958,0.62-1.5,0.797c-0.528,0.266-1.096,0.445-1.681,0.53C363.051,44.063,362.492,44.122,361.931,44.138z"/>
		</g>
	</g>
</g>
<g>
</g>
<g>
</g>
<g>
</g>
<g>
</g>
<g>
</g>
<g>
</g>
<g>
</g>
<g>
</g>
<g>
</g>
<g>
</g>
<g>
</g>
<g>
</g>
<g>
</g>
<g>
</g>
<g>
</g>
</svg>
