<?xml version="1.0" encoding="iso-8859-1"?>
<!-- Generator: Adobe Illustrator 19.0.0, SVG Export Plug-In . SVG Version: 6.00 Build 0)  -->
<svg version="1.1" id="Capa_1" xmlns="http://www.w3.org/2000/svg" xmlns:xlink="http://www.w3.org/1999/xlink" x="0px" y="0px"
	 viewBox="0 0 512.028 512.028" style="enable-background:new 0 0 512.028 512.028;" xml:space="preserve">
<g transform="translate(0 -1)">
	<path style="fill:#BBD1B5;" d="M512.014,45.166V468.89c-0.009,24.373-19.765,44.129-44.138,44.138H44.152
		C19.779,513.02,0.023,493.263,0.014,468.89V45.166c-0.036-11.717,4.603-22.965,12.888-31.25S32.435,0.992,44.152,1.028
		c2.966-0.021,5.925,0.275,8.828,0.883v60.91h406.069V1.911c2.903-0.608,5.862-0.904,8.828-0.883
		C492.249,1.037,512.005,20.793,512.014,45.166z"/>
	<path style="fill:#71C285;" d="M52.98,1.911v423.724c-2.903-0.608-5.862-0.904-8.828-0.883
		c-24.373,0.009-44.129,19.765-44.138,44.138V45.166c-0.036-11.717,4.603-22.965,12.888-31.25S32.435,0.992,44.152,1.028
		C47.118,1.007,50.077,1.303,52.98,1.911z"/>
	<rect x="370.773" y="159.925" style="fill:#4482C3;" width="88.276" height="194.207"/>
	<path style="fill:#46B29D;" d="M512.014,468.89c-0.009,24.373-19.765,44.129-44.138,44.138h-97.103V407.097h88.276v18.538
		c2.903-0.608,5.862-0.904,8.828-0.883C492.249,424.761,512.005,444.517,512.014,468.89L512.014,468.89z"/>
	<g>
		<polygon style="fill:#4482C3;" points="317.807,402.595 317.807,513.028 207.374,513.028 		"/>
		<path style="fill:#4482C3;" d="M317.807,274.684v52.966L132.428,513.028H44.152c-24.377,0-44.138-19.761-44.138-44.138
			c0-24.377,19.761-44.138,44.138-44.138c2.966-0.021,5.925,0.275,8.828,0.883V274.684H317.807z"/>
		<rect x="370.773" y="62.821" style="fill:#4482C3;" width="88.276" height="44.138"/>
	</g>
	<polygon style="fill:#46B29D;" points="370.773,159.925 370.773,354.132 459.049,354.132 459.049,407.097 370.773,407.097 
		370.773,513.028 317.807,513.028 317.807,402.595 207.374,513.028 132.428,513.028 317.807,327.649 317.807,274.684 52.98,274.684 
		52.98,62.821 370.773,62.821 370.773,106.959 459.049,106.959 459.049,159.925 	"/>
	<path style="fill:#71C285;" d="M512.014,45.166V468.89c-0.009-24.373-19.765-44.129-44.138-44.138
		c-2.966-0.021-5.925,0.275-8.828,0.883V1.911c2.903-0.608,5.862-0.904,8.828-0.883C492.249,1.037,512.005,20.793,512.014,45.166z"
		/>
	<polygon style="fill:#ECF0F1;" points="370.773,159.925 370.773,354.132 459.049,354.132 459.049,407.097 370.773,407.097 
		370.773,513.028 317.807,513.028 317.807,402.595 207.374,513.028 132.428,513.028 317.807,327.649 317.807,274.684 52.98,274.684 
		52.98,221.718 317.807,221.718 317.807,62.821 370.773,62.821 370.773,106.959 459.049,106.959 459.049,159.925 	"/>
	<path style="fill:#CC4B4C;" d="M264.842,76.215c0,33.913-52.992,121.963-72.419,150.686c-1.612,2.285-4.233,3.645-7.03,3.645
		s-5.418-1.359-7.03-3.645c-19.427-28.723-72.419-116.773-72.419-150.686c1.209-42.687,36.76-76.331,79.448-75.187
		C228.082-0.116,263.633,33.528,264.842,76.215z"/>
	<circle style="fill:#E6E7E8;" cx="185.394" cy="80.477" r="35.31"/>
	<rect x="317.807" y="62.821" style="fill:#F3D55B;" width="52.966" height="450.207"/>
</g>
<g>
</g>
<g>
</g>
<g>
</g>
<g>
</g>
<g>
</g>
<g>
</g>
<g>
</g>
<g>
</g>
<g>
</g>
<g>
</g>
<g>
</g>
<g>
</g>
<g>
</g>
<g>
</g>
<g>
</g>
</svg>
