<?xml version="1.0" encoding="iso-8859-1"?>
<!-- Generator: Adobe Illustrator 19.0.0, SVG Export Plug-In . SVG Version: 6.00 Build 0)  -->
<svg version="1.1" id="Capa_1" xmlns="http://www.w3.org/2000/svg" xmlns:xlink="http://www.w3.org/1999/xlink" x="0px" y="0px"
	 viewBox="0 0 512 512" style="enable-background:new 0 0 512 512;" xml:space="preserve">
<g>
	<path style="fill:#B0D3F0;" d="M512,44.138v423.724c-0.009,24.373-19.765,44.129-44.138,44.138H44.138
		C19.765,511.991,0.009,492.235,0,467.862V44.138C0,19.761,19.761,0,44.138,0s44.138,19.761,44.138,44.138v8.828h335.448v-8.828
		C423.724,19.761,443.485,0,467.862,0S512,19.761,512,44.138z"/>
	<g>
		<path style="fill:#71C285;" d="M88.276,44.138v423.724c0-24.377-19.761-44.138-44.138-44.138S0,443.485,0,467.862V44.138
			C0,19.761,19.761,0,44.138,0S88.276,19.761,88.276,44.138z"/>
		<path style="fill:#71C285;" d="M512,44.138v423.724c0-24.377-19.761-44.138-44.138-44.138s-44.138,19.761-44.138,44.138V44.138
			C423.724,19.761,443.485,0,467.862,0S512,19.761,512,44.138z"/>
	</g>
	<path style="fill:#4482C3;" d="M141.241,291.31V512H44.138C19.761,512,0,492.239,0,467.862s19.761-44.138,44.138-44.138
		s44.138,19.761,44.138,44.138V291.31H141.241z"/>
	<rect x="185.379" y="291.31" style="fill:#46B29D;" width="141.241" height="220.69"/>
	<path style="fill:#4482C3;" d="M512,467.862c-0.009,24.373-19.765,44.129-44.138,44.138h-97.103V291.31h52.966v176.552
		c0-24.377,19.761-44.138,44.138-44.138S512,443.485,512,467.862z"/>
	<rect x="370.759" y="52.966" style="fill:#46B29D;" width="52.966" height="194.207"/>
	<rect x="185.379" y="52.966" style="fill:#4482C3;" width="141.241" height="194.207"/>
	<rect x="88.276" y="52.966" style="fill:#46B29D;" width="52.966" height="194.207"/>
	<polygon style="fill:#71C285;" points="423.724,247.172 423.724,291.31 370.759,291.31 370.759,512 326.621,512 326.621,291.31 
		185.379,291.31 185.379,512 141.241,512 141.241,291.31 88.276,291.31 88.276,247.172 141.241,247.172 141.241,52.966 
		185.379,52.966 185.379,247.172 326.621,247.172 326.621,52.966 370.759,52.966 370.759,247.172 	"/>
	<polygon style="fill:#ECF0F1;" points="423.724,247.172 423.724,291.31 370.759,291.31 370.759,512 326.621,512 326.621,291.31 
		185.379,291.31 185.379,512 141.241,512 141.241,291.31 88.276,291.31 88.276,247.172 141.241,247.172 141.241,52.966 
		185.379,52.966 185.379,247.172 326.621,247.172 326.621,52.966 370.759,52.966 370.759,247.172 	"/>
	<rect x="88.276" y="247.172" style="fill:#F3D55B;" width="335.448" height="44.138"/>
</g>
<g>
</g>
<g>
</g>
<g>
</g>
<g>
</g>
<g>
</g>
<g>
</g>
<g>
</g>
<g>
</g>
<g>
</g>
<g>
</g>
<g>
</g>
<g>
</g>
<g>
</g>
<g>
</g>
<g>
</g>
</svg>
