<?xml version="1.0" encoding="iso-8859-1"?>
<!-- Generator: Adobe Illustrator 19.0.0, SVG Export Plug-In . SVG Version: 6.00 Build 0)  -->
<svg version="1.1" id="Capa_1" xmlns="http://www.w3.org/2000/svg" xmlns:xlink="http://www.w3.org/1999/xlink" x="0px" y="0px"
	 viewBox="0 0 512 512" style="enable-background:new 0 0 512 512;" xml:space="preserve">
<g>
	<path style="fill:#9BC8C2;" d="M512,44.138v423.724c-0.009,24.373-19.765,44.129-44.138,44.138H44.138
		C19.765,511.991,0.009,492.235,0,467.862V44.138C0,19.761,19.761,0,44.138,0s44.138,19.761,44.138,44.138v8.828h335.448v-8.828
		C423.724,19.761,443.485,0,467.862,0S512,19.761,512,44.138z"/>
	<path style="fill:#67B9CC;" d="M512,467.862c-0.009,24.373-19.765,44.129-44.138,44.138H44.138C19.761,512,0,492.239,0,467.862
		s19.761-44.138,44.138-44.138s44.138,19.761,44.138,44.138V52.966h335.448v414.897c0-24.377,19.761-44.138,44.138-44.138
		S512,443.485,512,467.862z"/>
	<g>
		<path style="fill:#4482C3;" d="M512,44.138v423.724c0-24.377-19.761-44.138-44.138-44.138s-44.138,19.761-44.138,44.138V44.138
			C423.724,19.761,443.485,0,467.862,0S512,19.761,512,44.138z"/>
		<path style="fill:#4482C3;" d="M0,44.138v423.724c0-24.377,19.761-44.138,44.138-44.138s44.138,19.761,44.138,44.138V44.138
			C88.276,19.761,68.515,0,44.138,0S0,19.761,0,44.138z"/>
	</g>
	<g>
		<path style="fill:#24AE5F;" d="M423.724,415.295l-29.749-14.566c-2.68-1.405-5.931-1.129-8.335,0.707s-3.526,4.9-2.876,7.855
			l3.001,12.888c0.349,1.273,0.983,2.45,1.854,3.443l13.065,13.948l12.712,13.418c1.861,1.981,2.525,4.804,1.743,7.406
			c-0.783,2.603-2.894,4.591-5.539,5.217l-46.08,10.858c-3.645,0.855-7.394-0.946-9.004-4.326l-32.75-69.561
			c-0.453-1.03-0.693-2.141-0.706-3.266v-15.801c0.048-3.29-2.014-6.241-5.12-7.327l-14.83-5.208c-1.16-0.454-2.212-1.146-3.09-2.03
			l-4.679-5.032c-1.775-1.953-2.438-4.674-1.76-7.225c0.678-2.551,2.604-4.584,5.115-5.398l34.869-10.505
			c2.484-0.778,5.191-0.283,7.239,1.324l23.57,18.714c1.39,1.149,3.14,1.774,4.943,1.766h13.948c2.638,0.004,5.1-1.326,6.543-3.535
			c1.443-2.209,1.672-4.997,0.608-7.411l-20.303-42.99c-0.926-1.953-0.974-4.209-0.131-6.199c0.843-1.99,2.497-3.525,4.544-4.218
			l6.621-2.295c3.908-1.367,6.048-5.569,4.855-9.534l-6.974-22.422c-3.364-10.658-1.845-22.258,4.149-31.691l2.737-4.414
			c1.445-2.312,3.982-3.714,6.709-3.708h9.445c2.078,0.03,4.08-0.775,5.558-2.236c1.477-1.461,2.306-3.454,2.299-5.532v-8.563
			c0.032-3.929,2.983-7.22,6.886-7.68l8.916-1.148V415.295z"/>
		<path style="fill:#24AE5F;" d="M368.728,52.966l-21.274,8.121c-10.497,9.423-20.319,19.57-29.396,30.367
			c-3.531,6.444-25.865,16.154-25.865,16.154s-68.149,5.12-75.741,10.946c-7.592,5.738-6.974,39.548-6.974,39.548l25.953,54.466
			c0.802,1.792,2.313,3.171,4.171,3.807c1.858,0.636,3.896,0.472,5.629-0.452c3.884-2.207,7.945-4.855,12.006-7.15
			c4.795-3.678,10.897-5.212,16.861-4.237c4.058,1.43,7.072,4.879,7.945,9.092c0.219,4.987-1.747,9.822-5.385,13.241
			c-6.621,7.945-13.241,15.978-19.774,24.188c-6.797,8.651-13.506,17.037-20.303,25.688c-1.324,1.677-2.737,3.354-4.061,5.12
			c-5.219,8.109-7.407,17.801-6.179,27.366l0.971,7.062c1.237,9.697-1.084,19.514-6.532,27.63l-18.714,27.63
			c-1.23,1.813-2.293,3.734-3.178,5.738L178.494,422.4c-1.285,3.131-4.297,5.208-7.68,5.297h-19.068
			c-2.942-0.085-5.564-1.879-6.709-4.59c-1.543-3.69-0.933-7.93,1.589-11.034l1.942-1.942c2.158-2.463,2.981-5.822,2.207-9.004
			l-18.008-79.801c-0.088-0.353-0.088-0.618-0.177-0.971l-12.977-38.047c-0.947-2.755-1.425-5.65-1.412-8.563v-1.854
			c0.241-8.997-4.47-17.402-12.27-21.892l-1.148-0.618c-3.739-2.152-8.08-3.02-12.359-2.472l-4.149,0.53V52.966H368.728z"/>
	</g>
</g>
<g>
</g>
<g>
</g>
<g>
</g>
<g>
</g>
<g>
</g>
<g>
</g>
<g>
</g>
<g>
</g>
<g>
</g>
<g>
</g>
<g>
</g>
<g>
</g>
<g>
</g>
<g>
</g>
<g>
</g>
</svg>
