<?xml version="1.0" encoding="iso-8859-1"?>
<!-- Generator: Adobe Illustrator 19.0.0, SVG Export Plug-In . SVG Version: 6.00 Build 0)  -->
<svg version="1.1" id="Capa_1" xmlns="http://www.w3.org/2000/svg" xmlns:xlink="http://www.w3.org/1999/xlink" x="0px" y="0px"
	 viewBox="0 0 512 512" style="enable-background:new 0 0 512 512;" xml:space="preserve">
<g>
	<path style="fill:#41767F;" d="M512,57.379v344.276c0.003,1.446-0.086,2.891-0.265,4.326c0,0.088,0.088,0.088,0,0.177
		c-2.281,22.515-21.242,39.645-43.873,39.636H88.276v8.828c0,24.377-19.761,44.138-44.138,44.138S0,478.997,0,454.621V110.345
		c0.009-24.373,19.765-44.129,44.138-44.138h379.586v-8.828c0-24.377,19.761-44.138,44.138-44.138S512,33.003,512,57.379z"/>
	<path style="fill:#7F6E5D;" d="M512,57.379v344.276c0.003,1.446-0.086,2.891-0.265,4.326
		c-2.386-23.377-22.677-40.782-46.145-39.581s-41.877,20.585-41.866,44.083V57.379c0-15.769,8.413-30.34,22.069-38.225
		c13.656-7.884,30.482-7.884,44.138,0S512,41.61,512,57.379L512,57.379z"/>
	<path style="fill:#CBB292;" d="M511.735,405.981c0,0.088,0.088,0.088,0,0.177c-2.281,22.515-21.242,39.645-43.873,39.636H0V110.345
		c0.009-24.373,19.765-44.129,44.138-44.138h379.586v344.276c-0.011-23.499,18.397-42.883,41.866-44.083
		S509.349,382.603,511.735,405.981L511.735,405.981z"/>
	<g>
		<path style="fill:#7F6E5D;" d="M88.276,445.793v8.828c0,24.377-19.761,44.138-44.138,44.138S0,478.997,0,454.621v-8.828H88.276z"
			/>
		<path style="fill:#7F6E5D;" d="M388.414,322.207h-9.625c-3.786-22.18-21.16-39.555-43.341-43.341v-9.625
			c0-4.875-3.952-8.828-8.828-8.828s-8.828,3.952-8.828,8.828v9.625c-22.18,3.786-39.555,21.16-43.341,43.341h-9.625
			c-4.875,0-8.828,3.952-8.828,8.828s3.952,8.828,8.828,8.828h9.625c3.786,22.18,21.16,39.555,43.341,43.341v9.625
			c0,4.875,3.952,8.828,8.828,8.828s8.828-3.952,8.828-8.828v-9.625c22.18-3.786,39.555-21.16,43.341-43.341h9.625
			c4.875,0,8.828-3.952,8.828-8.828S393.289,322.207,388.414,322.207z M360.678,322.207h-25.229v-25.229
			C347.807,300.196,357.459,309.848,360.678,322.207L360.678,322.207z M317.793,296.978v25.229h-25.229
			C295.783,309.848,305.434,300.196,317.793,296.978z M292.564,339.862h25.229v25.229
			C305.434,361.873,295.783,352.221,292.564,339.862z M335.448,365.091v-25.229h25.229
			C357.459,352.221,347.807,361.873,335.448,365.091z"/>
		<path style="fill:#7F6E5D;" d="M374.908,66.207L336.86,79.448c-9.809,7.99-19.042,16.662-27.63,25.953
			c-3.267,5.473-24.276,13.771-24.276,13.771s-64,4.414-71.151,9.357c-7.151,4.943-6.532,33.81-6.532,33.81l24.364,46.61
			c1.794,3.268,5.86,4.519,9.181,2.825c3.707-1.854,7.503-4.149,11.299-6.091c4.617-3.169,10.266-4.463,15.802-3.619
			c3.713,1.057,6.576,4.021,7.503,7.768c0.972,4.149-2.383,8.474-5.032,11.299c-6.268,6.797-12.447,13.683-18.626,20.745
			c-6.356,7.327-12.711,14.566-19.068,21.892c-1.236,1.501-2.559,2.913-3.796,4.414c-4.882,6.757-6.968,15.136-5.826,23.393
			l0.883,6.003c1.18,8.381-1.01,16.889-6.092,23.658l-17.567,23.658c-1.165,1.511-2.171,3.138-3.001,4.855l-19.156,38.577
			c-1.344,2.77-4.159,4.521-7.238,4.502h-17.919c-2.653-0.015-5.074-1.515-6.268-3.884c-1.483-3.159-0.888-6.902,1.501-9.445
			l1.766-1.677c2.019-2.003,2.825-4.925,2.119-7.68l-16.948-68.237c-0.088-0.265-0.088-0.53-0.177-0.794l-12.183-32.574
			c-0.88-2.342-1.328-4.825-1.323-7.327v-1.589c0.034-7.91-4.411-15.158-11.476-18.714l-1.147-0.53
			c-3.561-1.832-7.586-2.57-11.565-2.119l-23.923,2.648c-6.823,0.792-13.587-1.894-18.008-7.15l-15.095-17.743
			c-3.184-3.781-4.934-8.563-4.943-13.506V186.88c-0.037-5.516,2.122-10.821,6.002-14.742l19.421-19.509
			c1.174-1.206,2.21-2.538,3.09-3.972l6.268-10.593c3.711-6.264,10.463-10.094,17.743-10.063h25.688
			c5.874-0.029,11.474,2.481,15.36,6.886c3.942,4.317,9.515,6.783,15.361,6.797h9.444l8.211-26.924
			c-6.068-5.498-11.093-12.047-14.832-19.332c-3.884-9.357-25.952-18.185-31.426-18.714c-5.98-2.538-11.475-6.092-16.243-10.505
			H374.908z"/>
	</g>
</g>
<g>
</g>
<g>
</g>
<g>
</g>
<g>
</g>
<g>
</g>
<g>
</g>
<g>
</g>
<g>
</g>
<g>
</g>
<g>
</g>
<g>
</g>
<g>
</g>
<g>
</g>
<g>
</g>
<g>
</g>
</svg>
