<?xml version="1.0" encoding="iso-8859-1"?>
<!-- Generator: Adobe Illustrator 19.0.0, SVG Export Plug-In . SVG Version: 6.00 Build 0)  -->
<svg version="1.1" id="Capa_1" xmlns="http://www.w3.org/2000/svg" xmlns:xlink="http://www.w3.org/1999/xlink" x="0px" y="0px"
	 viewBox="0 0 512 512" style="enable-background:new 0 0 512 512;" xml:space="preserve">
<g>
	<path style="fill:#B0D3F0;" d="M512,44.138v423.724c-0.009,24.373-19.765,44.129-44.138,44.138H44.138
		C19.765,511.991,0.009,492.235,0,467.862V44.138C0,19.761,19.761,0,44.138,0s44.138,19.761,44.138,44.138v8.828h335.448v-8.828
		C423.724,19.761,443.485,0,467.862,0S512,19.761,512,44.138z"/>
	<path style="fill:#90BAE1;" d="M512,467.862c-0.009,24.373-19.765,44.129-44.138,44.138H44.138C19.761,512,0,492.239,0,467.862
		s19.761-44.138,44.138-44.138s44.138,19.761,44.138,44.138V52.966h335.448v414.897c0-24.377,19.761-44.138,44.138-44.138
		S512,443.485,512,467.862z"/>
	<path style="fill:#E6E7E8;" d="M250.828,291.31l20.242-20.242c3.41-3.453,3.392-9.012-0.039-12.443
		c-3.432-3.432-8.99-3.449-12.443-0.039l-20.242,20.241l-20.242-20.242c-3.453-3.41-9.012-3.392-12.443,0.039
		s-3.449,8.99-0.039,12.443l20.241,20.242l-20.242,20.242c-2.253,2.225-3.142,5.487-2.328,8.547c0.813,3.06,3.204,5.451,6.264,6.264
		c3.061,0.813,6.322-0.076,8.547-2.329l20.242-20.241l20.242,20.242c2.225,2.253,5.487,3.142,8.547,2.328
		c3.06-0.813,5.451-3.204,6.264-6.264c0.813-3.061-0.076-6.322-2.329-8.547L250.828,291.31z"/>
	<g>
		<path style="fill:#4482C3;" d="M423.733,382.323c-2.677,0.007-5.212-1.205-6.888-3.293
			c-24.819-30.853-67.716-53.707-127.491-67.922c-4.731-1.138-7.649-5.89-6.523-10.624s5.872-7.663,10.609-6.548
			c63.672,15.142,109.827,40.047,137.164,74.025c2.13,2.646,2.552,6.28,1.086,9.344C430.224,380.37,427.13,382.321,423.733,382.323
			L423.733,382.323z"/>
		<path style="fill:#4482C3;" d="M167.716,283.315c-1.4,0-2.78-0.334-4.025-0.974c-3.802-1.953-7.535-4.099-11.104-6.375
			c-27.071-17.3-48.483-42.149-61.595-71.478c-12.735-28.203-19.663-58.68-20.371-89.616c-0.06-4.875,3.841-8.876,8.715-8.94h0.112
			c4.832-0.001,8.767,3.884,8.828,8.715c0.667,28.514,7.067,56.603,18.819,82.591c11.698,26.195,30.812,48.391,54.983,63.845
			c3.198,2.043,6.431,3.884,9.681,5.552c3.628,1.863,5.507,5.969,4.547,9.932C175.345,280.53,171.795,283.32,167.716,283.315
			L167.716,283.315z"/>
		<path style="fill:#4482C3;" d="M432.287,240.463c-0.554,2.276-1.994,4.236-3.999,5.446c-2.005,1.21-4.411,1.569-6.682,0.998
			C230.93,199.239,179.994,82.538,170.108,52.966h18.891c9.898,23.462,23.488,45.188,40.254,64.353
			c34.428,40.077,93.926,86.334,194.472,111.934l2.119,0.53C430.572,230.953,433.456,235.734,432.287,240.463z"/>
		<path style="fill:#4482C3;" d="M349.043,512h-21.451c-56.596-78.382-143.343-129.579-239.316-141.241h-0.53
			c-4.868-0.308-8.575-4.487-8.298-9.357c0.059-2.275,1.025-4.432,2.683-5.99c1.658-1.559,3.871-2.389,6.145-2.308h0.53
			C194.917,364.58,290.356,422.853,349.043,512L349.043,512z"/>
		<path style="fill:#4482C3;" d="M432.463,142.212c-0.478,4.467-4.247,7.855-8.739,7.857c-0.326,0.015-0.653-0.015-0.971-0.088
			c-72.474-8.033-103.283-75.741-111.228-97.015h19.156c9.887,22.863,37.606,72.651,93.043,79.36
			c0.315,0.101,0.641,0.161,0.971,0.177c2.322,0.249,4.448,1.414,5.907,3.237C432.06,137.563,432.731,139.893,432.463,142.212z"/>
	</g>
	<g>
		<path style="fill:#B0D3F0;" d="M512,44.138v423.724c0-24.377-19.761-44.138-44.138-44.138s-44.138,19.761-44.138,44.138V44.138
			C423.724,19.761,443.485,0,467.862,0S512,19.761,512,44.138z"/>
		<path style="fill:#B0D3F0;" d="M0,44.138v423.724c0-24.377,19.761-44.138,44.138-44.138s44.138,19.761,44.138,44.138V44.138
			C88.276,19.761,68.515,0,44.138,0S0,19.761,0,44.138z"/>
	</g>
</g>
<g>
</g>
<g>
</g>
<g>
</g>
<g>
</g>
<g>
</g>
<g>
</g>
<g>
</g>
<g>
</g>
<g>
</g>
<g>
</g>
<g>
</g>
<g>
</g>
<g>
</g>
<g>
</g>
<g>
</g>
</svg>
