<?xml version="1.0" encoding="iso-8859-1"?>
<!-- Generator: Adobe Illustrator 19.0.0, SVG Export Plug-In . SVG Version: 6.00 Build 0)  -->
<svg version="1.1" id="Capa_1" xmlns="http://www.w3.org/2000/svg" xmlns:xlink="http://www.w3.org/1999/xlink" x="0px" y="0px"
	 viewBox="0 0 512 512" style="enable-background:new 0 0 512 512;" xml:space="preserve">
<g>
	<path style="fill:#46B29D;" d="M81.711,167.724h165.461V97.103H81.711c-2.187-0.01-4.321,0.667-6.102,1.934l-36.632,26.483
		c-2.292,1.545-3.666,4.129-3.666,6.893c0,2.764,1.374,5.348,3.666,6.893l36.632,26.483
		C77.39,167.058,79.524,167.734,81.711,167.724L81.711,167.724z"/>
	<path style="fill:#14A085;" d="M430.289,238.345H264.828v-70.621h165.461c2.187-0.01,4.321,0.667,6.102,1.934l36.632,26.483
		c2.292,1.545,3.666,4.129,3.666,6.893s-1.374,5.348-3.666,6.893l-36.632,26.483C434.61,237.678,432.476,238.355,430.289,238.345z"
		/>
	<path style="fill:#46B29D;" d="M81.711,300.138h165.461v-70.621H81.711c-2.187-0.01-4.321,0.667-6.102,1.934l-36.632,26.483
		c-2.292,1.545-3.666,4.129-3.666,6.893c0,2.764,1.374,5.348,3.666,6.893l36.632,26.483
		C77.39,299.471,79.524,300.148,81.711,300.138L81.711,300.138z"/>
	<g>
		<path style="fill:#26B99A;" d="M423.724,211.862h-61.793c-4.875,0-8.828-3.952-8.828-8.828s3.952-8.828,8.828-8.828h61.793
			c4.875,0,8.828,3.952,8.828,8.828S428.599,211.862,423.724,211.862z"/>
		<path style="fill:#26B99A;" d="M326.621,211.862h-17.655c-4.875,0-8.828-3.952-8.828-8.828s3.952-8.828,8.828-8.828h17.655
			c4.875,0,8.828,3.952,8.828,8.828S331.496,211.862,326.621,211.862z"/>
	</g>
	<g>
		<path style="fill:#81CCB8;" d="M150.069,141.241H88.276c-4.875,0-8.828-3.952-8.828-8.828s3.952-8.828,8.828-8.828h61.793
			c4.875,0,8.828,3.952,8.828,8.828S154.944,141.241,150.069,141.241z"/>
		<path style="fill:#81CCB8;" d="M203.034,141.241h-17.655c-4.875,0-8.828-3.952-8.828-8.828s3.952-8.828,8.828-8.828h17.655
			c4.875,0,8.828,3.952,8.828,8.828S207.91,141.241,203.034,141.241z"/>
		<path style="fill:#81CCB8;" d="M150.069,273.655H88.276c-4.875,0-8.828-3.952-8.828-8.828S83.401,256,88.276,256h61.793
			c4.875,0,8.828,3.952,8.828,8.828S154.944,273.655,150.069,273.655z"/>
		<path style="fill:#81CCB8;" d="M203.034,273.655h-17.655c-4.875,0-8.828-3.952-8.828-8.828s3.952-8.828,8.828-8.828h17.655
			c4.875,0,8.828,3.952,8.828,8.828S207.91,273.655,203.034,273.655z"/>
	</g>
	<rect x="238.345" y="60.319" style="fill:#BDC3C7;" width="35.31" height="377.379"/>
	<circle style="fill:#7F8C8D;" cx="256" cy="35.31" r="35.31"/>
	<path style="fill:#95A5A5;" d="M335.448,406.069H176.552c-29.252,0-52.966,23.713-52.966,52.966l0,0v26.483h264.828v-26.483l0,0
		C388.414,429.782,364.7,406.069,335.448,406.069L335.448,406.069z"/>
	<path style="fill:#7F8C8D;" d="M105.931,459.034h300.138c14.626,0,26.483,11.857,26.483,26.483v17.655
		c0,4.875-3.952,8.828-8.828,8.828H88.276c-4.875,0-8.828-3.952-8.828-8.828v-17.655C79.448,470.891,91.305,459.034,105.931,459.034
		L105.931,459.034z"/>
</g>
<g>
</g>
<g>
</g>
<g>
</g>
<g>
</g>
<g>
</g>
<g>
</g>
<g>
</g>
<g>
</g>
<g>
</g>
<g>
</g>
<g>
</g>
<g>
</g>
<g>
</g>
<g>
</g>
<g>
</g>
</svg>
