<?xml version="1.0" encoding="iso-8859-1"?>
<!-- Generator: Adobe Illustrator 19.0.0, SVG Export Plug-In . SVG Version: 6.00 Build 0)  -->
<svg version="1.1" id="Capa_1" xmlns="http://www.w3.org/2000/svg" xmlns:xlink="http://www.w3.org/1999/xlink" x="0px" y="0px"
	 viewBox="0 0 508.918 508.918" style="enable-background:new 0 0 508.918 508.918;" xml:space="preserve">
<g>
	
		<rect x="315.886" y="197.422" transform="matrix(0.8855 0.4646 -0.4646 0.8855 146.5958 -154.0049)" style="fill:#BDC3C7;" width="139.802" height="46.063"/>
	<path style="fill:#7F8C8D;" d="M397.499,474.469l-38.802-116.456l-0.003-0.027l-0.013-0.023l-48.356-145.129
		c-1.108-3.35-4.138-5.693-7.659-5.922c-3.521-0.229-6.829,1.701-8.362,4.879v-4.855c0.023-2.885-1.4-5.589-3.791-7.203
		c-2.39-1.615-5.431-1.925-8.098-0.826c-0.62-2.931-2.73-5.323-5.56-6.305c-2.183-0.732-4.569-0.565-6.629,0.464
		c-2.06,1.03-3.625,2.837-4.35,5.023L212.6,357.921l-0.037,0.065l-0.01,0.075l-38.8,116.404c-0.981,2.941-0.318,6.183,1.739,8.503
		c2.057,2.32,5.195,3.367,8.233,2.746c3.038-0.621,5.513-2.816,6.494-5.757l36.076-108.232l50.653,16.917V500.24
		c0,4.793,3.885,8.678,8.678,8.678c4.793,0,8.678-3.885,8.678-8.678V388.641l50.667-16.921l36.061,108.232
		c1.523,4.535,6.429,6.983,10.968,5.471C396.54,483.912,398.999,479.012,397.499,474.469L397.499,474.469z M231.785,355.255
		l45.163-135.493v150.579L231.785,355.255z M294.304,370.341v-150.69l45.18,135.599L294.304,370.341z"/>
	<path style="fill:#95A5A5;" d="M319.151,224.552l-135.218-70.948l32.102-61.183l135.218,70.948
		c4.244,2.227,5.879,7.472,3.652,11.716l-24.039,45.815C328.64,225.143,323.395,226.779,319.151,224.552z"/>
	<path style="fill:#BDC3C7;" d="M185.178,167.285L23.728,82.573c-4.244-2.227-5.879-7.472-3.652-11.716L54.815,4.648
		c2.227-4.244,7.472-5.879,11.716-3.652l161.45,84.711c4.244,2.227,5.879,7.472,3.652,11.716l-34.739,66.209
		C194.668,167.876,189.422,169.511,185.178,167.285z"/>
	<path style="fill:#7F8C8D;" d="M442.386,302.181l-22.9-12.015c-4.244-2.227-5.879-7.472-3.652-11.716l34.739-66.209
		c2.227-4.244,7.472-5.879,11.716-3.652l22.9,12.015c4.244,2.227,5.879,7.472,3.652,11.716l-34.739,66.209
		C451.876,302.772,446.63,304.407,442.386,302.181z"/>
</g>
<g>
</g>
<g>
</g>
<g>
</g>
<g>
</g>
<g>
</g>
<g>
</g>
<g>
</g>
<g>
</g>
<g>
</g>
<g>
</g>
<g>
</g>
<g>
</g>
<g>
</g>
<g>
</g>
<g>
</g>
</svg>
