<svg id="Layer_1" enable-background="new 0 0 256 256" height="512" viewBox="0 0 256 256" width="512" xmlns="http://www.w3.org/2000/svg"><g><g><path d="m242.518 156.587h-162.646c-3.028 0-5.482-2.455-5.482-5.482 0-3.028 2.455-5.482 5.482-5.482h162.646c3.028 0 5.482 2.455 5.482 5.482 0 3.027-2.455 5.482-5.482 5.482z" fill="#eaa97d"/></g><g><path d="m196.44 93.561-31.327-41.801c-1.959-2.613-5.878-2.613-7.837 0l-31.327 41.801c-.889 1.186-2.62 1.317-3.677.276l-18.69-18.402c-3.025-3.27-8.491-1.13-8.491 3.325v17.043 19.418 14.246c0 2.704 2.192 4.897 4.897 4.897h122.413c2.704 0 4.897-2.192 4.897-4.897v-14.246-19.418-17.042c0-4.455-5.466-6.595-8.491-3.325l-18.69 18.402c-1.057 1.04-2.788.91-3.677-.277z" fill="#ffea92"/></g><g><ellipse cx="161.195" cy="101.065" fill="#f9a7a7" rx="11.422" ry="20.559"/></g><g><path d="m222.401 136.364h-122.413c-3.803 0-6.896-3.094-6.896-6.896v-50.707c0-2.858 1.72-5.379 4.381-6.422 2.662-1.042 5.636-.36 7.578 1.738l18.625 18.335c.12.119.258.137.348.127.093-.007.225-.043.326-.178l31.327-41.801c1.314-1.754 3.325-2.76 5.518-2.761 2.193 0 4.205 1.006 5.521 2.76l31.326 41.802-.001-.001c.102.135.233.172.327.179.088.009.228-.01.347-.127l18.69-18.403c1.877-2.032 4.853-2.714 7.513-1.671 2.662 1.042 4.382 3.563 4.382 6.422v50.707c-.002 3.803-3.096 6.897-6.899 6.897zm-122.385-60.503c-.497 0-.895.128-1.084.202-.432.169-1.84.863-1.84 2.697v50.707c0 1.597 1.299 2.896 2.896 2.896h122.414c1.597 0 2.896-1.299 2.896-2.896v-50.706c0-1.834-1.408-2.528-1.84-2.697-.433-.169-1.938-.615-3.184.73l-18.754 18.469c-.914.9-2.164 1.362-3.452 1.266-1.28-.096-2.457-.74-3.228-1.767 0 0-.001 0-.001-.001l-31.326-41.801c-.552-.737-1.397-1.159-2.318-1.159s-1.766.423-2.317 1.159l-31.328 41.801c-.771 1.028-1.946 1.672-3.227 1.768-1.278.097-2.539-.365-3.454-1.266l-18.69-18.402c-.734-.792-1.529-1-2.163-1z" fill="#3762cc"/></g><g><path d="m161.194 123.624c-7.526 0-13.422-9.909-13.422-22.559s5.896-22.559 13.422-22.559 13.422 9.909 13.422 22.559-5.895 22.559-13.422 22.559zm0-41.118c-5.107 0-9.422 8.499-9.422 18.559s4.314 18.559 9.422 18.559 9.422-8.499 9.422-18.559-4.314-18.559-9.422-18.559z" fill="#3762cc"/></g><g><path d="m110.603 66.542c-.927 0-1.841-.428-2.428-1.235l-22.999-31.604c-.975-1.34-.679-3.216.661-4.191 1.339-.975 3.215-.68 4.191.661l22.999 31.605c.975 1.34.679 3.216-.661 4.191-.533.387-1.151.573-1.763.573z" fill="#ffea92"/></g><g><path d="m136.167 57.643c-1.252 0-2.42-.79-2.842-2.041l-9.728-28.801c-.53-1.57.313-3.272 1.882-3.802 1.57-.53 3.272.313 3.802 1.882l9.728 28.801c.53 1.57-.313 3.272-1.882 3.802-.318.108-.642.159-.96.159z" fill="#ffea92"/></g><g><path d="m186.223 57.643c-.318 0-.642-.051-.96-.159-1.569-.53-2.412-2.232-1.882-3.802l9.728-28.801c.529-1.57 2.231-2.413 3.802-1.882 1.569.53 2.412 2.232 1.882 3.802l-9.728 28.801c-.422 1.252-1.59 2.041-2.842 2.041z" fill="#ffea92"/></g><g><path d="m211.786 66.542c-.611 0-1.229-.187-1.763-.574-1.339-.975-1.635-2.851-.66-4.191l22.998-31.605c.974-1.338 2.848-1.637 4.191-.661 1.339.975 1.635 2.851.66 4.191l-22.998 31.605c-.586.807-1.5 1.235-2.428 1.235z" fill="#ffea92"/></g><g><path d="m242.518 158.587h-162.646c-4.126 0-7.482-3.356-7.482-7.482s3.356-7.482 7.482-7.482h162.646c4.126 0 7.482 3.356 7.482 7.482s-3.356 7.482-7.482 7.482zm-162.646-10.965c-1.92 0-3.482 1.562-3.482 3.482s1.562 3.482 3.482 3.482h162.646c1.92 0 3.482-1.562 3.482-3.482s-1.563-3.482-3.482-3.482z" fill="#3762cc"/></g><g><path d="m216.479 176.043c-.392.064-.784.14-1.176.229l-49.649 11.23c-.362-8.7-7.509-15.648-16.298-15.648h-19.689c-1.632 0-3.098-1.034-3.606-2.585-3.163-9.656-12.246-16.63-22.959-16.63h-13.176c-6.315 0-12.061 2.427-16.364 6.395-1.408 1.299-3.25 2.023-5.165 2.023h-35.294v54.169h32.667l74.212 8.078c4.263.464 8.576-.119 12.562-1.7l68.72-27.24c10.462-4.148 6.322-20.134-4.785-18.321z" fill="#f9cfcf"/></g><g><path d="m142.813 225.456c-1.018 0-2.035-.055-3.048-.165l-74.104-8.066h-32.557c-1.104 0-2-.896-2-2v-54.168c0-1.104.896-2 2-2h35.293c1.413 0 2.765-.53 3.809-1.493 4.842-4.465 11.135-6.925 17.719-6.925h13.176c11.341 0 21.332 7.237 24.86 18.008.236.722.922 1.207 1.705 1.207h19.688c9.048 0 16.565 6.509 18.048 15.202l47.458-10.734c.432-.098.864-.181 1.295-.251 6.844-1.112 11.381 3.473 12.69 8.213 1.346 4.873-.222 11.314-6.846 13.94l-68.72 27.24c-3.324 1.317-6.893 1.992-10.466 1.992zm-107.709-12.231h30.666c.072 0 .145.004.216.012l74.213 8.078c3.925.428 7.938-.116 11.607-1.571l68.72-27.24c4.354-1.726 5.38-5.842 4.465-9.156-.813-2.942-3.451-6.106-8.19-5.33-.353.057-.705.126-1.058.206l-49.647 11.229c-.579.13-1.186-.001-1.657-.363-.471-.361-.758-.912-.782-1.505-.32-7.7-6.602-13.731-14.301-13.731h-19.688c-2.517 0-4.73-1.592-5.506-3.961-2.988-9.124-11.451-15.253-21.059-15.253h-13.177c-5.577 0-10.906 2.083-15.007 5.865-1.785 1.646-4.101 2.553-6.521 2.553h-33.294z" fill="#3762cc"/></g><g><path d="m160.336 195.54h-42.136c-1.104 0-2-.896-2-2s.896-2 2-2h42.136c1.849 0 3.353-1.504 3.353-3.353l-.031-.585c-.056-1.103.794-2.042 1.897-2.097 1.106-.04 2.043.794 2.097 1.898l.034.685c.002 4.153-3.296 7.452-7.35 7.452z" fill="#3762cc"/></g><g><path d="m59.818 227.669h-23.853c-1.58 0-2.861-1.281-2.861-2.861v-73.334c0-1.58 1.281-2.861 2.861-2.861h23.852c2.107 0 3.815 1.708 3.815 3.815v71.427c.001 2.106-1.707 3.814-3.814 3.814z" fill="#e0ebfc"/></g><g><path d="m59.817 229.669h-23.852c-2.681 0-4.861-2.181-4.861-4.861v-73.334c0-2.681 2.181-4.861 4.861-4.861h23.852c3.207 0 5.815 2.609 5.815 5.815v71.427c.001 3.206-2.608 5.814-5.815 5.814zm-23.852-79.057c-.475 0-.861.386-.861.861v73.334c0 .475.386.861.861.861h23.852c1.001 0 1.815-.814 1.815-1.815v-71.427c0-1.001-.814-1.815-1.815-1.815h-23.852z" fill="#3762cc"/></g><g><path d="m11.815 233.159h34.46c2.107 0 3.815-1.708 3.815-3.815v-82.407c0-2.107-1.708-3.815-3.815-3.815h-34.46c-2.107 0-3.815 1.708-3.815 3.815v82.407c0 2.107 1.708 3.815 3.815 3.815z" fill="#4671c6"/></g><g><path d="m46.275 235.159h-34.46c-3.207 0-5.815-2.608-5.815-5.815v-82.407c0-3.207 2.608-5.815 5.815-5.815h34.46c3.207 0 5.815 2.608 5.815 5.815v82.407c0 3.207-2.608 5.815-5.815 5.815zm-34.46-90.036c-1.001 0-1.815.814-1.815 1.815v82.407c0 1.001.814 1.815 1.815 1.815h34.46c1.001 0 1.815-.814 1.815-1.815v-82.407c0-1.001-.814-1.815-1.815-1.815z" fill="#3762cc"/></g></g></svg>