<svg id="Layer_1" enable-background="new 0 0 256 256" height="512" viewBox="0 0 256 256" width="512" xmlns="http://www.w3.org/2000/svg"><g><g><path d="m204.616 54.582h-191.152c-2.258 0-4.089 1.831-4.089 4.089v25.896c0 2.258 1.831 4.089 4.089 4.089h191.152c2.258 0 4.089-1.831 4.089-4.089v-25.896c0-2.259-1.831-4.089-4.089-4.089z" fill="#4671c6"/></g><g><path d="m17.243 88.655v118.386c0 4.057 3.289 7.345 7.345 7.345h168.902c4.057 0 7.345-3.289 7.345-7.345v-118.386z" fill="#4671c6"/></g><g><path d="m88.596 54.582h40.888v34.074h-40.888z" fill="#f9a7a7"/></g><g><path d="m79.055 14.375h-30.666c-6.21 0-11.244 5.034-11.244 11.244v17.718c0 6.21 5.034 11.244 11.244 11.244h60.651v-10.221c0-16.56-13.425-29.985-29.985-29.985zm19.763 29.985h-44.105c-4.057 0-7.345-3.289-7.345-7.345v-5.072c0-4.057 3.289-7.345 7.345-7.345h24.343c10.914-.001 19.762 8.847 19.762 19.762z" fill="#f9a7a7"/></g><g><path d="m169.691 14.375h-30.666c-16.56 0-29.985 13.425-29.985 29.985v10.222h60.651c6.21 0 11.244-5.034 11.244-11.244v-17.719c0-6.21-5.034-11.244-11.244-11.244zm1.022 22.639c0 4.057-3.289 7.345-7.345 7.345h-44.105c0-10.915 8.848-19.762 19.762-19.762h24.343c4.057 0 7.345 3.289 7.345 7.345z" fill="#f9a7a7"/></g><g><path d="m91.151 88.655h35.777v125.731h-35.777z" fill="#f9a7a7"/></g><g><path d="m109.04 56.582h-60.651c-7.303 0-13.244-5.941-13.244-13.244v-17.719c0-7.303 5.941-13.244 13.244-13.244h30.666c17.637 0 31.985 14.348 31.985 31.984v10.222c0 1.105-.895 2.001-2 2.001zm-60.651-40.207c-5.097 0-9.244 4.147-9.244 9.244v17.718c0 5.097 4.147 9.244 9.244 9.244h58.651v-8.222c0-15.431-12.554-27.984-27.985-27.984zm50.429 29.985h-44.105c-5.153 0-9.346-4.192-9.346-9.346v-5.071c0-5.153 4.192-9.346 9.346-9.346h24.343c12 0 21.762 9.763 21.762 21.763 0 1.104-.896 2-2 2zm-44.105-19.763c-2.948 0-5.346 2.398-5.346 5.346v5.071c0 2.948 2.398 5.346 5.346 5.346h41.993c-.997-8.856-8.532-15.763-17.65-15.763z" fill="#3762cc"/></g><g><path d="m169.69 56.582h-60.65c-1.104 0-2-.896-2-2v-10.223c0-17.636 14.348-31.984 31.984-31.984h30.666c7.303 0 13.245 5.941 13.245 13.245v17.718c0 7.302-5.941 13.244-13.245 13.244zm-58.65-4h58.65c5.098 0 9.245-4.147 9.245-9.244v-17.718c0-5.098-4.147-9.245-9.245-9.245h-30.666c-15.431 0-27.984 12.554-27.984 27.984zm52.327-6.222h-44.105c-1.104 0-2-.896-2-2 0-12 9.763-21.763 21.763-21.763h24.343c5.153 0 9.345 4.192 9.345 9.346v5.071c-.001 5.153-4.193 9.346-9.346 9.346zm-41.993-4h41.994c2.947 0 5.345-2.398 5.345-5.346v-5.071c0-2.948-2.398-5.346-5.345-5.346h-24.343c-9.119 0-16.654 6.906-17.651 15.763z" fill="#3762cc"/></g><g><path d="m119.262 54.582v-29.024c0-3.071-2.49-5.561-5.561-5.561h-9.322c-3.071 0-5.561 2.49-5.561 5.561v29.024z" fill="#f9cfcf"/></g><g><path d="m119.262 56.582h-20.444c-1.104 0-2-.896-2-2v-29.024c0-4.169 3.392-7.561 7.561-7.561h9.322c4.169 0 7.561 3.392 7.561 7.561v29.023c0 1.105-.896 2.001-2 2.001zm-18.444-4h16.444v-27.024c0-1.963-1.598-3.561-3.561-3.561h-9.322c-1.963 0-3.561 1.598-3.561 3.561z" fill="#3762cc"/></g><g><path d="m204.616 90.655h-191.152c-3.357 0-6.089-2.731-6.089-6.089v-25.896c0-3.357 2.731-6.089 6.089-6.089h191.152c3.357 0 6.088 2.731 6.088 6.089v25.896c.001 3.358-2.731 6.089-6.088 6.089zm-191.152-34.073c-1.152 0-2.089.937-2.089 2.089v25.896c0 1.152.937 2.089 2.089 2.089h191.152c1.151 0 2.088-.937 2.088-2.089v-25.897c0-1.152-.937-2.089-2.088-2.089h-191.152z" fill="#3762cc"/></g><g><path d="m193.491 216.386h-168.902c-5.153 0-9.346-4.192-9.346-9.345v-118.386c0-1.104.896-2 2-2h183.593c1.104 0 2 .896 2 2v118.386c0 5.153-4.192 9.345-9.345 9.345zm-174.248-125.731v116.386c0 2.947 2.398 5.345 5.346 5.345h168.902c2.947 0 5.345-2.398 5.345-5.345v-116.386z" fill="#3762cc"/></g><g><path d="m129.484 90.655h-40.888c-1.104 0-2-.896-2-2v-34.073c0-1.104.896-2 2-2h40.888c1.104 0 2 .896 2 2v34.074c0 1.104-.896 1.999-2 1.999zm-38.888-4h36.888v-30.073h-36.888z" fill="#3762cc"/></g><g><path d="m126.929 216.386h-35.778c-1.104 0-2-.896-2-2v-125.731c0-1.104.896-2 2-2h35.777c1.104 0 2 .896 2 2v125.731c.001 1.105-.895 2-1.999 2zm-33.778-4h31.777v-121.731h-31.777z" fill="#3762cc"/></g><g><circle cx="194.375" cy="189.375" fill="#a4c9ff" r="52.25"/></g><g><circle cx="194.375" cy="189.375" fill="#e0ebfc" r="39.9"/></g><g><path d="m197.962 165.827 5.166 10.468c.583 1.181 1.709 1.999 3.012 2.188l11.552 1.679c3.281.477 4.591 4.509 2.217 6.823l-8.359 8.148c-.943.919-1.373 2.243-1.15 3.541l1.973 11.505c.56 3.268-2.869 5.759-5.804 4.217l-10.332-5.432c-1.165-.613-2.557-.613-3.723 0l-10.332 5.432c-2.935 1.543-6.364-.949-5.804-4.217l1.973-11.505c.223-1.298-.208-2.622-1.15-3.541l-8.359-8.148c-2.374-2.314-1.064-6.346 2.217-6.823l11.552-1.679c1.303-.189 2.429-1.008 3.012-2.188l5.166-10.468c1.466-2.973 5.706-2.973 7.173 0z" fill="#f9a7a7"/></g><g><path d="m194.375 243.625c-29.914 0-54.25-24.336-54.25-54.25s24.336-54.25 54.25-54.25 54.25 24.336 54.25 54.25-24.336 54.25-54.25 54.25zm0-104.5c-27.708 0-50.25 22.542-50.25 50.25s22.542 50.25 50.25 50.25 50.25-22.542 50.25-50.25-22.542-50.25-50.25-50.25z" fill="#3762cc"/></g><g><path d="m175.059 148.762h-11.196v-11.196c0-1.302-1.055-2.357-2.357-2.357h-9.429c-1.302 0-2.357 1.055-2.357 2.357v11.196h-11.196c-1.302 0-2.357 1.055-2.357 2.357v9.429c0 1.302 1.055 2.357 2.357 2.357h11.196v11.196c0 1.302 1.055 2.357 2.357 2.357h9.429c1.302 0 2.357-1.055 2.357-2.357v-11.196h11.196c1.302 0 2.357-1.055 2.357-2.357v-9.429c.001-1.302-1.055-2.357-2.357-2.357z" fill="#6bdddd"/></g><g><path d="m161.506 178.458h-9.429c-2.402 0-4.357-1.955-4.357-4.357v-9.196h-9.196c-2.403 0-4.357-1.955-4.357-4.357v-9.428c0-2.403 1.955-4.357 4.357-4.357h9.196v-9.196c0-2.402 1.955-4.357 4.357-4.357h9.429c2.403 0 4.357 1.955 4.357 4.357v9.196h9.196c2.402 0 4.357 1.955 4.357 4.357v9.428c0 2.403-1.955 4.357-4.357 4.357h-9.196v9.196c0 2.402-1.954 4.357-4.357 4.357zm-22.982-27.696c-.197 0-.357.16-.357.357v9.428c0 .197.16.357.357.357h11.196c1.104 0 2 .896 2 2v11.196c0 .197.16.357.357.357h9.429c.197 0 .357-.16.357-.357v-11.196c0-1.104.896-2 2-2h11.196c.197 0 .357-.16.357-.357v-9.428c0-.197-.16-.357-.357-.357h-11.196c-1.104 0-2-.896-2-2v-11.196c0-.197-.16-.357-.357-.357h-9.429c-.197 0-.357.16-.357.357v11.196c0 1.104-.896 2-2 2z" fill="#3762cc"/></g></g></svg>