<svg id="Layer_1" enable-background="new 0 0 256 256" height="512" viewBox="0 0 256 256" width="512" xmlns="http://www.w3.org/2000/svg"><g><g><path d="m224.104 217.277h-206.708c-5.189 0-9.396-4.207-9.396-9.396v-131.542c0-5.189 4.207-9.396 9.396-9.396h206.708c5.189 0 9.396 4.207 9.396 9.396v131.542c0 5.189-4.207 9.396-9.396 9.396z" fill="#e0ebfc"/></g><g><path d="m51.091 66.944h23.49v150.333h-23.49z" fill="#f9cfcf"/></g><g><path d="m224.104 219.277h-206.708c-6.284 0-11.396-5.112-11.396-11.396v-131.542c0-6.284 5.112-11.396 11.396-11.396h206.708c6.284 0 11.396 5.112 11.396 11.396v131.542c0 6.284-5.112 11.396-11.396 11.396zm-206.708-150.333c-4.078 0-7.396 3.317-7.396 7.396v131.542c0 4.078 3.318 7.396 7.396 7.396h206.708c4.078 0 7.396-3.317 7.396-7.396v-131.543c0-4.078-3.318-7.396-7.396-7.396h-206.708z" fill="#3762cc"/></g><g><path d="m74.581 219.277h-23.49c-1.104 0-2-.896-2-2v-150.333c0-1.104.896-2 2-2h23.49c1.104 0 2 .896 2 2v150.333c0 1.104-.896 2-2 2zm-21.49-4h19.49v-146.333h-19.49z" fill="#3762cc"/></g><g><path d="m111.085 2.852h19.331v225.5h-19.331z" fill="#f9cfcf" transform="matrix(0 1 -1 0 236.352 -5.148)"/></g><g><path d="m233.5 127.267h-225.5c-1.104 0-2-.896-2-2v-19.331c0-1.104.896-2 2-2h225.5c1.104 0 2 .896 2 2v19.331c0 1.105-.896 2-2 2zm-223.5-4h221.5v-15.331h-221.5z" fill="#3762cc"/></g><g><path d="m145.3 161.528h-35.709c-1.038 0-1.879-.841-1.879-1.879v-11.275c0-1.038.841-1.879 1.879-1.879h35.709c1.038 0 1.879.841 1.879 1.879v11.275c0 1.038-.841 1.879-1.879 1.879z" fill="#4671c6"/></g><g><path d="m201.67 180.398h-89.26c-2.595 0-4.698-2.103-4.698-4.698 0-2.595 2.103-4.698 4.698-4.698h89.26c2.595 0 4.698 2.103 4.698 4.698 0 2.595-2.103 4.698-4.698 4.698z" fill="#4671c6"/></g><g><path d="m201.67 199.19h-89.26c-2.595 0-4.698-2.103-4.698-4.698 0-2.595 2.103-4.698 4.698-4.698h89.26c2.595 0 4.698 2.103 4.698 4.698 0 2.595-2.103 4.698-4.698 4.698z" fill="#4671c6"/></g><g><path d="m61.208 121.734-3.044-3.011c-.96-.95-2.46-1.085-3.575-.322l-29.751 20.367c-1.515 1.037-1.65 3.222-.275 4.438l13.743 12.15c1.293 1.143 3.299.867 4.235-.583l19.051-29.507c.726-1.119.565-2.594-.384-3.532z" fill="#f9a7a7"/></g><g><path d="m64.463 121.734 3.044-3.011c.96-.95 2.46-1.085 3.575-.322l29.751 20.367c1.515 1.037 1.65 3.222.275 4.438l-13.743 12.15c-1.293 1.143-3.299.867-4.235-.583l-19.051-29.507c-.725-1.119-.564-2.594.384-3.532z" fill="#f9a7a7"/></g><g><path d="m40.173 158.064c-1.168 0-2.303-.425-3.19-1.209l-13.743-12.15c-1.121-.991-1.71-2.416-1.618-3.909.093-1.493.854-2.833 2.088-3.678l29.75-20.367c1.902-1.302 4.472-1.07 6.111.55l3.043 3.011c1.611 1.594 1.889 4.134.66 6.039l-19.052 29.507c-.762 1.181-1.999 1.968-3.391 2.16-.219.031-.439.046-.658.046zm16.009-38.155c-.161 0-.322.047-.462.143l-29.751 20.367c-.287.196-.346.476-.355.625s.014.434.275.665l13.744 12.149c.245.217.515.217.654.198.139-.02.399-.092.576-.367l19.051-29.507c.208-.323.162-.755-.112-1.026l-3.044-3.011c-.157-.155-.366-.236-.576-.236z" fill="#3762cc"/></g><g><path d="m85.498 158.064c-.219 0-.438-.015-.658-.045-1.393-.191-2.629-.979-3.392-2.16l-19.051-29.507c-1.23-1.905-.953-4.445.659-6.04l3.043-3.011c1.639-1.621 4.208-1.854 6.111-.55l29.75 20.367c1.234.845 1.995 2.185 2.087 3.678s-.497 2.917-1.618 3.908l-13.744 12.15c-.884.785-2.019 1.21-3.187 1.21zm-16.009-38.155c-.209 0-.418.08-.576.236l-3.043 3.011c-.274.271-.321.702-.112 1.026l19.051 29.507c.177.275.438.348.576.367.139.02.409.019.653-.198l13.744-12.15c.261-.23.284-.515.275-.664s-.068-.428-.354-.625l-29.751-20.367c-.14-.096-.302-.143-.463-.143zm-5.026 1.825h.01z" fill="#3762cc"/></g><g><path d="m69.161 125.426c8.727 6.461 19.008 9.912 29.527 9.912h.002c3.549 0 6.427-2.877 6.427-6.427v-26.609c0-3.549-2.877-6.427-6.427-6.427h-.002c-10.52 0-20.801 3.451-29.528 9.912z" fill="#f9a7a7"/></g><g><path d="m56.511 105.944h12.65v19.326h-12.65z" fill="#f9a7a7"/></g><g><path d="m56.51 125.426c-8.727 6.461-19.008 9.912-29.527 9.912h-.002c-3.549 0-6.427-2.877-6.427-6.427v-26.609c0-3.549 2.877-6.427 6.427-6.427h.002c10.52 0 20.801 3.451 29.528 9.913z" fill="#f9a7a7"/></g><g><path d="m98.69 137.338c-10.991 0-21.613-3.563-30.719-10.305-.51-.377-.81-.974-.81-1.607v-19.638c0-.634.3-1.23.81-1.607 9.106-6.741 19.728-10.305 30.717-10.305 4.647 0 8.429 3.78 8.429 8.427v26.608c0 4.647-3.781 8.427-8.427 8.427zm-27.529-12.932c8.228 5.847 17.724 8.932 27.527 8.932 2.442 0 4.428-1.986 4.428-4.427v-26.608c0-2.441-1.986-4.427-4.427-4.427-9.804 0-19.301 3.085-27.529 8.932v17.598z" fill="#3762cc"/></g><g><path d="m69.161 127.27h-12.65c-1.104 0-2-.896-2-2v-19.326c0-1.104.896-2 2-2h12.65c1.104 0 2 .896 2 2v19.326c0 1.104-.895 2-2 2zm-10.65-4h8.65v-15.326h-8.65z" fill="#3762cc"/></g><g><path d="m26.983 137.338c-4.647 0-8.428-3.78-8.428-8.427v-26.609c0-4.646 3.78-8.427 8.427-8.427 10.991 0 21.614 3.563 30.719 10.305.51.377.81.974.81 1.607v19.638c0 .634-.3 1.23-.81 1.607-9.107 6.742-19.728 10.306-30.718 10.306zm0-39.463c-2.442 0-4.428 1.986-4.428 4.427v26.609c0 2.441 1.986 4.427 4.427 4.427 9.804 0 19.301-3.085 27.529-8.932v-17.598c-8.228-5.848-17.724-8.933-27.528-8.933zm29.527 27.551h.01z" fill="#3762cc"/></g><g><circle cx="209.561" cy="77.162" fill="#eaa97d" r="38.439"/></g><g><circle cx="209.561" cy="77.162" fill="#ffea92" r="28.744"/></g><g><path d="m211.026 53.653v2.586c1.708.176 3.173.527 4.394 1.054 1.222.527 2.288 1.325 3.198 2.395.718.814 1.272 1.652 1.665 2.515.39.862.586 1.652.586 2.371 0 .798-.292 1.489-.874 2.071-.583.583-1.29.874-2.119.874-1.565 0-2.578-.846-3.042-2.538-.527-1.996-1.796-3.321-3.808-3.975v9.962c1.98.543 3.556 1.038 4.73 1.485s2.223 1.094 3.149 1.94c.989.878 1.752 1.928 2.287 3.149.534 1.221.802 2.559.802 4.011 0 1.82-.427 3.524-1.281 5.113s-2.111 2.886-3.772 3.892c-1.66 1.006-3.632 1.604-5.915 1.796v5.963c0 .942-.092 1.628-.275 2.06-.184.431-.587.647-1.21.647-.575 0-.978-.176-1.21-.527-.231-.351-.347-.894-.347-1.628v-6.466c-1.868-.208-3.501-.647-4.897-1.317-1.397-.671-2.562-1.505-3.497-2.503-.934-.998-1.625-2.036-2.071-3.113-.447-1.078-.671-2.135-.671-3.173 0-.766.3-1.457.898-2.071.599-.614 1.344-.922 2.239-.922.719 0 1.325.168 1.82.503s.839.806 1.03 1.413c.431 1.309.806 2.311 1.125 3.005.319.695.803 1.329 1.449 1.904.647.575 1.504 1.014 2.574 1.317v-11.138c-2.139-.591-3.927-1.249-5.364-1.976-1.437-.726-2.602-1.76-3.496-3.101s-1.341-3.065-1.341-5.173c0-2.746.874-4.997 2.622-6.753 1.749-1.756 4.275-2.778 7.579-3.065v-2.538c0-1.341.503-2.012 1.509-2.012 1.023 0 1.534.655 1.534 1.963zm-3.041 16.429v-9.172c-1.341.399-2.387.926-3.137 1.581-.751.655-1.125 1.645-1.125 2.969 0 1.261.351 2.215 1.054 2.862.701.646 1.771 1.233 3.208 1.76zm3.041 7.112v10.489c1.612-.319 2.858-.966 3.736-1.94s1.317-2.107 1.317-3.401c0-1.389-.427-2.462-1.281-3.221-.854-.757-2.111-1.4-3.772-1.927z" fill="#eaa97d"/></g><g><path d="m209.561 117.602c-22.298 0-40.439-18.141-40.439-40.439s18.141-40.439 40.439-40.439 40.439 18.14 40.439 40.439-18.141 40.439-40.439 40.439zm0-76.879c-20.092 0-36.439 16.347-36.439 36.439s16.347 36.439 36.439 36.439c20.093 0 36.439-16.347 36.439-36.439s-16.347-36.439-36.439-36.439z" fill="#3762cc"/></g></g></svg>