<svg id="Layer_1" enable-background="new 0 0 256 256" height="512" viewBox="0 0 256 256" width="512" xmlns="http://www.w3.org/2000/svg"><g><g><path d="m240 216.542h-224c-4.418 0-8-3.582-8-8v-7c0-2.209 1.791-4 4-4h232c2.209 0 4 1.791 4 4v7c0 4.418-3.582 8-8 8z" fill="#4671c6"/></g><g><path d="m142.343 208.375h-28.685c-1.517 0-2.746-1.23-2.746-2.746v-8.087h34.178v8.087c-.001 1.516-1.23 2.746-2.747 2.746z" fill="#e0ebfc"/></g><g><path d="m235.851 197.542h-215.702v-133.834c0-3.314 2.686-6 6-6h203.702c3.314 0 6 2.686 6 6z" fill="#a4c9ff"/></g><g><path d="m31.149 183.048v-110.847c0-1.657 1.343-3 3-3h187.702c1.657 0 3 1.343 3 3v110.847c0 1.657-1.343 3-3 3h-187.702c-1.657 0-3-1.343-3-3z" fill="#6bdddd"/></g><g><path d="m240 218.542h-224c-5.514 0-10-4.486-10-10v-7c0-3.309 2.691-6 6-6h232c3.309 0 6 2.691 6 6v7c0 5.514-4.486 10-10 10zm-228-19c-1.103 0-2 .897-2 2v7c0 3.309 2.691 6 6 6h224c3.309 0 6-2.691 6-6v-7c0-1.103-.897-2-2-2z" fill="#3762cc"/></g><g><path d="m235.851 199.542h-215.702c-1.104 0-2-.896-2-2v-133.834c0-4.411 3.589-8 8-8h203.702c4.411 0 8 3.589 8 8v133.834c0 1.104-.895 2-2 2zm-213.702-4h211.702v-131.834c0-2.206-1.794-4-4-4h-203.702c-2.206 0-4 1.794-4 4z" fill="#3762cc"/></g><g><path d="m221.851 188.049h-187.702c-2.757 0-5-2.243-5-5v-110.848c0-2.757 2.243-5 5-5h187.702c2.757 0 5 2.243 5 5v110.848c0 2.757-2.243 5-5 5zm-187.702-116.848c-.551 0-1 .448-1 1v110.848c0 .552.449 1 1 1h187.702c.551 0 1-.448 1-1v-110.848c0-.552-.449-1-1-1z" fill="#3762cc"/></g><g><path d="m142.343 210.375h-28.686c-2.617 0-4.747-2.129-4.747-4.746v-8.087c0-1.104.896-2 2-2h34.179c1.104 0 2 .896 2 2v8.087c0 2.617-2.129 4.746-4.746 4.746zm-29.432-10.833v6.087c0 .411.335.746.747.746h28.686c.412 0 .747-.335.747-.746v-6.087z" fill="#3762cc"/></g><g><path d="m108.395 178.562h-58.124v-16.727c0-6.879 5.576-12.455 12.455-12.455h33.214c6.879 0 12.455 5.576 12.455 12.455z" fill="#e0ebfc"/></g><g><path d="m108.396 180.563h-58.125c-1.104 0-2-.896-2-2v-16.728c0-7.971 6.484-14.455 14.455-14.455h33.214c7.971 0 14.455 6.484 14.455 14.455v16.728c.001 1.104-.895 2-1.999 2zm-56.125-4h54.124v-14.728c0-5.765-4.69-10.455-10.455-10.455h-33.213c-5.765 0-10.455 4.69-10.455 10.455v14.728z" fill="#3762cc"/></g><g><path d="m79.328 155.219.024-.017.006-.005 10.772-9.232v-4.101h-21.614v4.096l10.747 9.211z" fill="#f9cfcf"/></g><g><path d="m79.318 157.21c-.409 0-.817-.122-1.161-.369l-.065-.047c-.045-.033-.089-.067-.131-.104l-10.747-9.212c-.443-.38-.698-.935-.698-1.519v-4.097c0-1.104.896-2 2-2h21.613c1.104 0 2 .896 2 2v4.102c0 .584-.255 1.139-.698 1.519l-10.771 9.232c-.077.066-.159.126-.245.18-.332.209-.715.315-1.097.315zm-8.801-12.17 8.809 7.551 8.804-7.546v-1.182h-17.613z" fill="#3762cc"/></g><g><path d="m86.466 132.036h-14.742c-12.219 0-22.125-9.906-22.125-22.125v-7.457c0-6.284 5.094-11.377 11.377-11.377h36.238c6.284 0 11.377 5.094 11.377 11.377v7.457c.001 12.219-9.905 22.125-22.125 22.125z" fill="#4671c6"/></g><g><path d="m86.466 134.035h-14.742c-13.303 0-24.125-10.822-24.125-24.125v-7.456c0-7.377 6.001-13.378 13.377-13.378h36.238c7.376 0 13.377 6.001 13.377 13.378v7.456c.001 13.303-10.822 24.125-24.125 24.125zm-25.49-40.959c-5.171 0-9.377 4.207-9.377 9.378v7.456c0 11.097 9.028 20.125 20.125 20.125h14.743c11.097 0 20.125-9.028 20.125-20.125v-7.456c0-5.171-4.207-9.378-9.377-9.378z" fill="#3762cc"/></g><g><path d="m102.614 113.212v-2.18c0-12.742-10.423-23.071-23.281-23.071-12.858 0-23.281 10.329-23.281 23.071v2.18c-4.043-.082-7.25 3.138-7.25 7.031 0 4.157 3.629 7.445 7.865 6.997 2.403 10.207 11.636 17.812 22.666 17.812 11.031 0 20.263-7.605 22.666-17.812 4.23.447 7.865-2.834 7.865-6.997 0-3.895-3.21-7.113-7.25-7.031z" fill="#f9cfcf"/></g><g><path d="m79.341 135.465c-1.822 0-3.527-.666-4.679-1.827-.897-.904-1.391-2.053-1.391-3.232 0-.828.671-1.5 1.5-1.5s1.5.672 1.5 1.5c0 .491.283.88.521 1.119.584.589 1.537.94 2.549.94 1.014 0 1.935-.343 2.528-.94.237-.239.521-.628.521-1.119 0-.828.671-1.5 1.5-1.5s1.5.672 1.5 1.5c0 1.18-.494 2.328-1.391 3.232-1.152 1.161-2.85 1.827-4.658 1.827z" fill="#3762cc"/></g><g><path d="m91.42 125.538c-1.806 0-3.269-1.464-3.269-3.269v-3.487c0-1.806 1.464-3.269 3.269-3.269 1.806 0 3.269 1.464 3.269 3.269v3.487c0 1.805-1.463 3.269-3.269 3.269z" fill="#3762cc"/></g><g><path d="m67.241 125.538c-1.806 0-3.269-1.464-3.269-3.269v-3.487c0-1.806 1.464-3.269 3.269-3.269 1.806 0 3.269 1.464 3.269 3.269v3.487c.001 1.805-1.463 3.269-3.269 3.269z" fill="#3762cc"/></g><g><path d="m79.333 147.052c-11.267 0-20.997-7.244-24.196-17.806-1.974-.166-3.857-.968-5.343-2.305-1.901-1.711-2.992-4.152-2.992-6.698 0-2.438.962-4.724 2.71-6.437 1.267-1.241 2.834-2.066 4.54-2.412v-.363c0-13.824 11.341-25.07 25.281-25.07s25.281 11.246 25.281 25.07v.363c1.706.346 3.272 1.171 4.54 2.413 1.748 1.712 2.71 3.998 2.71 6.436 0 2.546-1.09 4.987-2.99 6.697-1.486 1.337-3.37 2.139-5.344 2.306-3.2 10.562-12.93 17.806-24.197 17.806zm-22.664-21.813c.918 0 1.731.631 1.945 1.542 2.254 9.58 10.774 16.271 20.719 16.271s18.464-6.69 20.719-16.271c.231-.98 1.153-1.623 2.157-1.531 1.478.158 2.895-.299 3.988-1.283 1.074-.967 1.666-2.289 1.666-3.724 0-1.354-.536-2.625-1.51-3.579-.985-.965-2.303-1.483-3.699-1.452-.545.011-1.056-.195-1.44-.571s-.6-.892-.6-1.429v-2.181c0-11.618-9.546-21.07-21.281-21.07s-21.281 9.452-21.281 21.07v2.181c0 .537-.216 1.053-.6 1.429s-.901.579-1.44.571c-1.395-.047-2.714.487-3.699 1.452-.974.954-1.51 2.226-1.51 3.579 0 1.435.592 2.758 1.667 3.725 1.093.983 2.51 1.443 3.987 1.282.072-.007.143-.011.212-.011z" fill="#3762cc"/></g><g><path d="m58.847 83.48c-3.328 4.127-7.798 6.827-12.77 7.297-.888.084-1.558.847-1.558 1.739v1.68c0 9.674 7.842 17.516 17.516 17.516h26.034c9.338 0 16.907-7.57 16.907-16.907 0-9.821-7.962-17.783-17.783-17.783h-14.764c-5.269-.001-10.275 2.357-13.582 6.458z" fill="#4671c6"/></g><g><path d="m88.069 113.712h-26.033c-10.762 0-19.517-8.755-19.517-19.517v-1.68c0-1.945 1.449-3.549 3.37-3.73 4.266-.403 8.315-2.733 11.402-6.562 3.691-4.577 9.208-7.202 15.138-7.202h14.765c10.909 0 19.783 8.875 19.783 19.783 0 10.426-8.482 18.908-18.908 18.908zm-41.55-20.97v1.453c0 8.556 6.961 15.517 15.517 15.517h26.034c8.22 0 14.907-6.688 14.907-14.907 0-8.703-7.08-15.783-15.783-15.783h-14.765c-4.713 0-9.096 2.082-12.024 5.714-3.711 4.6-8.633 7.436-13.886 8.006zm12.329-9.263h.01z" fill="#3762cc"/></g><g><path d="m90.135 145.96-10.777 9.237-.03.022-.065-.048-10.747-9.211-8.312 3.469c-.638.266-.787 1.102-.281 1.573l11.188 10.396c.774.719 1.986.669 2.698-.112l5.519-6.057 5.519 6.057c.712.781 1.924.831 2.698.112l11.188-10.396c.506-.47.357-1.307-.281-1.573z" fill="#e0ebfc"/></g><g><path d="m86.256 163.906c-.056 0-.111-.001-.167-.003-1.047-.044-2.014-.495-2.72-1.271l-4.041-4.435-4.041 4.435c-.707.775-1.673 1.227-2.721 1.27-1.056.047-2.048-.325-2.816-1.038l-11.188-10.397c-.738-.685-1.073-1.687-.896-2.679.177-.993.838-1.817 1.769-2.205l8.311-3.469c.698-.29 1.499-.165 2.072.327l9.507 8.149 9.507-8.149c.573-.492 1.374-.617 2.072-.327l8.317 3.47c.929.387 1.59 1.211 1.768 2.202.178.993-.157 1.995-.896 2.682l-11.188 10.396c-.727.676-1.662 1.042-2.649 1.042zm-4.064-8.504 4.065 4.462 9.92-9.217-5.676-2.367zm-19.713-4.755 9.919 9.217 4.063-4.459-8.312-7.125z" fill="#3762cc"/></g><g><path d="m238 39.458h-107.333c-5.523 0-10 4.477-10 10v75.665c0 5.523 4.477 10 10 10h24.84l-8.537 17.783c-.818 1.704.965 3.486 2.669 2.669l42.601-20.452h45.76c5.523 0 10-4.477 10-10v-75.665c0-5.523-4.477-10-10-10z" fill="#e0ebfc"/></g><g><path d="m161.161 65.355v42.686c0 3.848 4.165 6.254 7.499 4.331l36.994-21.343c3.335-1.924 3.335-6.738 0-8.662l-36.994-21.343c-3.334-1.923-7.499.482-7.499 4.331z" fill="#f9a7a7"/></g><g><path d="m148.756 157.781c-1.03 0-2.038-.406-2.813-1.182-1.218-1.218-1.523-3.007-.777-4.56l7.162-14.917h-21.662c-6.617 0-12-5.383-12-12v-75.664c0-6.617 5.383-12 12-12h107.334c6.617 0 12 5.383 12 12v75.665c0 6.617-5.383 12-12 12h-45.307l-42.19 20.255c-.564.27-1.159.403-1.747.403zm-18.089-116.323c-4.411 0-8 3.589-8 8v75.665c0 4.411 3.589 8 8 8h24.84c.688 0 1.327.354 1.693.935.366.582.408 1.312.11 1.931l-8.538 17.783 42.601-20.451c.27-.13.566-.197.866-.197h45.761c4.411 0 8-3.589 8-8v-75.666c0-4.411-3.589-8-8-8z" fill="#3762cc"/></g></g></svg>