<svg id="Layer_1" enable-background="new 0 0 256 256" height="512" viewBox="0 0 256 256" width="512" xmlns="http://www.w3.org/2000/svg"><g><g><path d="m240 223.146h-224c-4.418 0-8-3.582-8-8v-7c0-2.209 1.791-4 4-4h232c2.209 0 4 1.791 4 4v7c0 4.418-3.582 8-8 8z" fill="#4671c6"/></g><g><path d="m142.343 214.979h-28.685c-1.517 0-2.746-1.23-2.746-2.746v-8.087h34.178v8.087c-.001 1.517-1.23 2.746-2.747 2.746z" fill="#e0ebfc"/></g><g><path d="m235.851 204.146h-215.702v-133.833c0-3.314 2.686-6 6-6h203.702c3.314 0 6 2.686 6 6z" fill="#a4c9ff"/></g><g><path d="m31.149 189.653v-110.847c0-1.657 1.343-3 3-3h187.702c1.657 0 3 1.343 3 3v110.847c0 1.657-1.343 3-3 3h-187.702c-1.657 0-3-1.343-3-3z" fill="#f9cfcf"/></g><g><path d="m240 225.146h-224c-5.514 0-10-4.486-10-10v-7c0-3.309 2.691-6 6-6h232c3.309 0 6 2.691 6 6v7c0 5.513-4.486 10-10 10zm-228-19c-1.103 0-2 .897-2 2v7c0 3.309 2.691 6 6 6h224c3.309 0 6-2.691 6-6v-7c0-1.103-.897-2-2-2z" fill="#3762cc"/></g><g><path d="m235.851 206.146h-215.702c-1.104 0-2-.896-2-2v-133.833c0-4.411 3.589-8 8-8h203.701c4.411 0 8 3.589 8 8v133.833c.001 1.104-.895 2-1.999 2zm-213.702-4h211.701v-131.833c0-2.206-1.794-4-4-4h-203.701c-2.206 0-4 1.794-4 4z" fill="#3762cc"/></g><g><path d="m221.852 194.652h-187.704c-2.757 0-5-2.243-5-5v-110.846c0-2.757 2.243-5 5-5h187.703c2.757 0 5 2.243 5 5v110.847c.001 2.756-2.243 4.999-4.999 4.999zm-187.704-116.846c-.552 0-1 .448-1 1v110.847c0 .552.448 1 1 1h187.703c.552 0 1-.448 1-1v-110.847c0-.552-.448-1-1-1z" fill="#3762cc"/></g><g><path d="m142.343 216.979h-28.686c-2.617 0-4.746-2.13-4.746-4.747v-8.087c0-1.104.896-2 2-2h34.178c1.104 0 2 .896 2 2v8.087c0 2.618-2.129 4.747-4.746 4.747zm-29.432-10.833v6.087c0 .412.335.747.746.747h28.686c.411 0 .746-.335.746-.747v-6.087z" fill="#3762cc"/></g><g><path d="m54.933 90.943v81.835c0 3.632 2.944 6.576 6.576 6.576h132.983c3.632 0 6.576-2.944 6.576-6.576v-81.835c-6.863 0-139.37 0-146.135 0z" fill="#e0ebfc"/></g><g><path d="m114.288 108.252c.048-1.158 1-2.072 2.159-2.072 1.579 0 47.313 0 45.977 0 1.159 0 2.111.914 2.159 2.072l2.271 55.309c.05 1.227-.931 2.249-2.159 2.249-1.374 0-51.823 0-50.519 0-1.228 0-2.209-1.022-2.159-2.249z" fill="#6bdddd"/></g><g><path d="m128.064 116.808c.957 0 1.734-.776 1.734-1.734v-14.208c0-1.101.895-1.996 1.996-1.996h15.284c1.101 0 1.996.895 1.996 1.996v14.208c0 .958.777 1.734 1.734 1.734s1.734-.776 1.734-1.734v-14.208c0-3.013-2.451-5.464-5.464-5.464h-15.284c-3.013 0-5.464 2.451-5.464 5.464v14.208c0 .957.776 1.734 1.734 1.734z" fill="#4671c6"/></g><g><path d="m91.176 137.036c.069-1.148 1.02-2.043 2.17-2.043 1.591 0 44.036 0 42.775 0 1.15 0 2.101.896 2.17 2.043l2.028 33.716c.075 1.25-.918 2.304-2.17 2.304-2.199 0-47.962 0-46.831 0-1.252 0-2.245-1.055-2.17-2.304z" fill="#4671c6"/></g><g><path d="m122.493 126.432h-15.518c-2.825 0-5.123 2.298-5.123 5.122v11.061c0 1.004.817 1.821 1.821 1.821s1.82-.817 1.82-1.821v-11.061c0-.816.665-1.48 1.481-1.48h15.518c.816 0 1.48.664 1.48 1.48v11.061c0 1.004.816 1.821 1.82 1.821s1.821-.817 1.821-1.821v-11.061c.002-2.824-2.296-5.122-5.12-5.122z" fill="#f9a7a7"/></g><g><path d="m195.528 36.105c-.513-1.917-2.25-3.251-4.235-3.251-7.478 0-55.906 0-63.293 0v58.089h77.917c2.161 0 3.735-2.05 3.176-4.138z" fill="#f9a7a7"/></g><g><path d="m128 32.854v58.089h55.952l-10.579-58.089c-5.872 0-38.934 0-45.373 0z" fill="#4671c6"/></g><g><path d="m149.846 32.854c-8.135 0-13.461 0-21.846 0v58.089h26.94z" fill="#f9a7a7"/></g><g><path d="m60.472 36.105c.513-1.917 2.25-3.251 4.235-3.251h63.293v58.089c-2.7 0-74.676 0-77.917 0-2.161 0-3.735-2.05-3.176-4.138z" fill="#4671c6"/></g><g><path d="m128 32.854v58.089c-5.56 0-48.085 0-55.952 0l10.579-58.089z" fill="#f9a7a7"/></g><g><path d="m106.154 32.854h21.846v58.089c-6.264 0 4.698 0-26.94 0z" fill="#4671c6"/></g><g><path d="m205.917 92.943h-155.834c-1.657 0-3.186-.754-4.195-2.067-1.009-1.314-1.342-2.987-.913-4.588l13.565-50.699c.745-2.787 3.281-4.734 6.167-4.734h126.586c2.886 0 5.422 1.947 6.168 4.734l13.564 50.699c.429 1.601.096 3.273-.913 4.588-1.009 1.313-2.538 2.067-4.195 2.067zm-141.21-58.089c-1.078 0-2.025.727-2.303 1.768l-13.566 50.699c-.143.534.078.931.223 1.118.145.188.47.504 1.022.504h155.834c.553 0 .878-.315 1.022-.504.145-.188.365-.584.223-1.118l-13.565-50.699c-.278-1.041-1.226-1.768-2.304-1.768z" fill="#3762cc"/></g><g><path d="m194.491 181.354h-132.982c-4.729 0-8.576-3.848-8.576-8.576v-81.836c0-1.104.896-2 2-2h146.135c1.104 0 2 .896 2 2v81.836c-.001 4.729-3.848 8.576-8.577 8.576zm-137.558-88.412v79.836c0 2.523 2.053 4.576 4.576 4.576h132.982c2.523 0 4.576-2.053 4.576-4.576v-79.836z" fill="#3762cc"/></g></g></svg>