<svg id="Layer_1" enable-background="new 0 0 256 256" height="512" viewBox="0 0 256 256" width="512" xmlns="http://www.w3.org/2000/svg"><g><g><path d="m232.092 62.873h-208.184c-2.459 0-4.453 1.994-4.453 4.453v28.203c0 2.459 1.994 4.453 4.453 4.453h208.185c2.459 0 4.453-1.994 4.453-4.453v-28.203c0-2.46-1.994-4.453-4.454-4.453z" fill="#4671c6"/></g><g><path d="m28.024 99.982v128.934c0 4.418 3.582 8 8 8h183.952c4.418 0 8-3.582 8-8v-128.934z" fill="#4671c6"/></g><g><path d="m105.734 62.873h44.532v37.11h-44.532z" fill="#f9a7a7"/></g><g><path d="m95.344 19.083h-33.399c-6.763 0-12.246 5.483-12.246 12.246v19.297c0 6.763 5.483 12.246 12.246 12.246h66.055v-11.132c0-18.036-14.621-32.657-32.656-32.657zm21.523 32.657h-48.035c-4.418 0-8-3.582-8-8v-5.523c0-4.418 3.582-8 8-8h26.512c11.887-.001 21.523 9.636 21.523 21.523z" fill="#f9a7a7"/></g><g><path d="m194.055 19.083h-33.399c-18.035 0-32.656 14.621-32.656 32.657v11.133h66.055c6.763 0 12.246-5.483 12.246-12.246v-19.297c0-6.764-5.483-12.247-12.246-12.247zm1.113 24.657c0 4.418-3.582 8-8 8h-48.035c0-11.887 9.636-21.523 21.523-21.523h26.512c4.418 0 8 3.582 8 8z" fill="#f9a7a7"/></g><g><path d="m108.517 99.982h38.965v136.934h-38.965z" fill="#f9a7a7"/></g><g><path d="m128 64.873h-66.055c-7.855 0-14.246-6.391-14.246-14.246v-19.297c0-7.855 6.391-14.246 14.246-14.246h33.398c19.11-.001 34.657 15.546 34.657 34.656v11.133c0 1.104-.896 2-2 2zm-66.055-43.79c-5.649 0-10.246 4.596-10.246 10.246v19.297c0 5.65 4.597 10.246 10.246 10.246h64.055v-9.132c0-16.904-13.752-30.656-30.656-30.656h-33.399zm54.922 32.657h-48.035c-5.514 0-10-4.486-10-10v-5.523c0-5.514 4.486-10 10-10h26.512c12.971 0 23.523 10.553 23.523 23.523 0 1.104-.895 2-2 2zm-48.035-21.524c-3.309 0-6 2.691-6 6v5.523c0 3.309 2.691 6 6 6h45.934c-1.004-9.83-9.331-17.523-19.422-17.523z" fill="#3762cc"/></g><g><path d="m194.055 64.873h-66.055c-1.104 0-2-.896-2-2v-11.133c0-19.109 15.547-34.656 34.656-34.656h33.398c7.855 0 14.246 6.391 14.246 14.246v19.297c.001 7.855-6.39 14.246-14.245 14.246zm-64.055-4h64.055c5.649 0 10.246-4.596 10.246-10.246v-19.297c0-5.65-4.597-10.246-10.246-10.246h-33.398c-16.905-.001-30.657 13.752-30.657 30.656zm57.168-7.133h-48.035c-1.104 0-2-.896-2-2 0-12.971 10.553-23.523 23.523-23.523h26.512c5.514 0 10 4.486 10 10v5.523c0 5.514-4.486 10-10 10zm-45.934-4h45.934c3.309 0 6-2.691 6-6v-5.523c0-3.309-2.691-6-6-6h-26.512c-10.091-.001-18.418 7.693-19.422 17.523z" fill="#3762cc"/></g><g><path d="m139.133 62.873v-31.61c0-3.345-2.712-6.057-6.057-6.057h-10.153c-3.345 0-6.057 2.712-6.057 6.057v31.61z" fill="#f9cfcf"/></g><g><path d="m139.133 64.873h-22.266c-1.104 0-2-.896-2-2v-31.61c0-4.442 3.614-8.057 8.057-8.057h10.152c4.442 0 8.057 3.614 8.057 8.057v31.609c0 1.105-.896 2.001-2 2.001zm-20.266-4h18.266v-29.61c0-2.237-1.819-4.057-4.057-4.057h-10.152c-2.237 0-4.057 1.82-4.057 4.057z" fill="#3762cc"/></g><g><path d="m232.093 101.982h-208.186c-3.559 0-6.453-2.895-6.453-6.453v-28.203c0-3.558 2.895-6.453 6.453-6.453h208.186c3.559 0 6.453 2.895 6.453 6.453v28.204c0 3.557-2.895 6.452-6.453 6.452zm-208.186-37.109c-1.353 0-2.453 1.101-2.453 2.453v28.204c0 1.353 1.101 2.453 2.453 2.453h208.186c1.353 0 2.453-1.101 2.453-2.453v-28.204c0-1.353-1.101-2.453-2.453-2.453z" fill="#3762cc"/></g><g><path d="m219.977 238.917h-183.954c-5.514 0-10-4.486-10-10v-128.935c0-1.104.896-2 2-2h199.953c1.104 0 2 .896 2 2v128.934c.001 5.515-4.486 10.001-9.999 10.001zm-189.954-136.935v126.934c0 3.309 2.691 6 6 6h183.953c3.309 0 6-2.691 6-6v-126.934z" fill="#3762cc"/></g><g><path d="m150.266 101.982h-44.531c-1.104 0-2-.896-2-2v-37.11c0-1.104.896-2 2-2h44.531c1.104 0 2 .896 2 2v37.11c0 1.105-.896 2-2 2zm-42.532-4h40.531v-33.11h-40.531z" fill="#3762cc"/></g><g><path d="m147.482 238.917h-38.965c-1.104 0-2-.896-2-2v-136.935c0-1.104.896-2 2-2h38.965c1.104 0 2 .896 2 2v136.934c0 1.105-.895 2.001-2 2.001zm-36.964-4h34.965v-132.935h-34.965z" fill="#3762cc"/></g></g></svg>