<svg id="Layer_1" enable-background="new 0 0 256 256" height="512" viewBox="0 0 256 256" width="512" xmlns="http://www.w3.org/2000/svg"><g><g><path d="m148.351 248h-116c-6.075 0-11-4.925-11-11v-218c0-6.075 4.925-11 11-11h116c6.075 0 11 4.925 11 11v218c0 6.075-4.925 11-11 11z" fill="#4671c6"/></g><g><path d="m144.72 18.291h-17.961v1.942c0 4.29-3.477 7.767-7.767 7.767h-57.282c-4.29 0-7.767-3.477-7.767-7.767v-1.942h-17.961c-3.217 0-5.825 2.608-5.825 5.825v207.767c0 3.217 2.608 5.825 5.825 5.825h108.738c3.217 0 5.825-2.608 5.825-5.825v-207.766c0-3.218-2.608-5.826-5.825-5.826z" fill="#f9cfcf"/></g><g><path d="m148.351 250h-116c-7.168 0-13-5.832-13-13v-218c0-7.168 5.832-13 13-13h116c7.168 0 13 5.832 13 13v218c0 7.168-5.832 13-13 13zm-116-240c-4.963 0-9 4.037-9 9v218c0 4.963 4.037 9 9 9h116c4.963 0 9-4.037 9-9v-218c0-4.963-4.037-9-9-9z" fill="#3762cc"/></g><g><path d="m144.72 239.709h-108.739c-4.314 0-7.825-3.511-7.825-7.825v-207.768c0-4.314 3.511-7.825 7.825-7.825h17.962c1.104 0 2 .896 2 2v1.942c0 3.18 2.587 5.767 5.767 5.767h57.281c3.181 0 5.768-2.587 5.768-5.767v-1.942c0-1.104.896-2 2-2h17.961c4.314 0 7.825 3.511 7.825 7.825v207.768c0 4.314-3.511 7.825-7.825 7.825zm-108.739-219.418c-2.109 0-3.825 1.716-3.825 3.825v207.768c0 2.109 1.716 3.825 3.825 3.825h108.739c2.109 0 3.825-1.716 3.825-3.825v-207.768c0-2.109-1.716-3.825-3.825-3.825h-15.961c-.031 5.359-4.4 9.709-9.768 9.709h-57.281c-5.366 0-9.735-4.35-9.767-9.709z" fill="#3762cc"/></g><g><circle cx="114.056" cy="19.019" fill="#a4c9ff" r="3.649"/></g><g><circle cx="102.406" cy="19.019" fill="#a4c9ff" r="2.636"/></g><g><path d="m91.598 21.656h-27.737c-1.456 0-2.636-1.18-2.636-2.636 0-1.456 1.18-2.636 2.636-2.636h27.737c1.456 0 2.636 1.18 2.636 2.636 0 1.455-1.18 2.636-2.636 2.636z" fill="#a4c9ff"/></g><g><path d="m41.958 136.841c1.988 0 3.6 1.611 3.6 3.6v28.296c0 2.236 1.819 4.056 4.055 4.056h28.297c1.988 0 3.6 1.611 3.6 3.6s-1.612 3.6-3.6 3.6h-28.296c-6.206 0-11.255-5.05-11.255-11.256v-28.296c-.001-1.989 1.611-3.6 3.599-3.6z" fill="#e0ebfc"/></g><g><path d="m138.743 136.841c1.988 0 3.6 1.611 3.6 3.6v28.296c0 6.206-5.05 11.256-11.256 11.256h-28.296c-1.988 0-3.6-1.611-3.6-3.6s1.612-3.6 3.6-3.6h28.296c2.237 0 4.056-1.82 4.056-4.056v-28.296c0-1.989 1.612-3.6 3.6-3.6z" fill="#e0ebfc"/></g><g><path d="m102.791 76.007h28.296c6.206 0 11.256 5.05 11.256 11.256v28.296c0 1.989-1.612 3.6-3.6 3.6s-3.6-1.611-3.6-3.6v-28.296c0-2.236-1.819-4.056-4.056-4.056h-28.296c-1.988 0-3.6-1.611-3.6-3.6s1.612-3.6 3.6-3.6z" fill="#e0ebfc"/></g><g><path d="m49.614 76.007h28.296c1.988 0 3.6 1.611 3.6 3.6s-1.612 3.6-3.6 3.6h-28.296c-2.236 0-4.055 1.82-4.055 4.056v28.296c0 1.989-1.612 3.6-3.6 3.6s-3.6-1.611-3.6-3.6v-28.296c-.001-6.206 5.048-11.256 11.255-11.256z" fill="#e0ebfc"/></g><g><path d="m56.855 137.737h20.671c1.903 0 3.445 1.542 3.445 3.445v20.671c0 1.903-1.542 3.445-3.445 3.445h-20.671c-1.903 0-3.445-1.542-3.445-3.445v-20.671c0-1.903 1.543-3.445 3.445-3.445zm18.948 3.445h-17.225c-.951 0-1.723.771-1.723 1.723v17.226c0 .951.771 1.723 1.723 1.723h17.226c.951 0 1.723-.771 1.723-1.723v-17.226c-.001-.952-.772-1.723-1.724-1.723z" fill="#4671c6"/></g><g><path d="m73.38 147.222v8.59c0 1.046-.848 1.895-1.895 1.895h-8.59c-1.046 0-1.895-.848-1.895-1.895v-8.59c0-1.046.848-1.895 1.895-1.895h8.59c1.047 0 1.895.849 1.895 1.895z" fill="#4671c6"/></g><g><path d="m56.855 91.228h20.671c1.903 0 3.445 1.542 3.445 3.445v20.671c0 1.903-1.542 3.445-3.445 3.445h-20.671c-1.903 0-3.445-1.542-3.445-3.445v-20.671c0-1.903 1.543-3.445 3.445-3.445zm18.948 3.445h-17.225c-.951 0-1.723.771-1.723 1.723v17.226c0 .951.771 1.723 1.723 1.723h17.226c.951 0 1.723-.771 1.723-1.723v-17.227c-.001-.951-.772-1.722-1.724-1.722z" fill="#4671c6"/></g><g><path d="m73.38 100.713v8.59c0 1.046-.848 1.895-1.895 1.895h-8.59c-1.046 0-1.895-.848-1.895-1.895v-8.59c0-1.046.848-1.895 1.895-1.895h8.59c1.047.001 1.895.849 1.895 1.895z" fill="#4671c6"/></g><g><path d="m96.866 157.654h-1.885c-.49 0-.888.397-.888.888v5.115c0 .49.397.888.888.888h1.885c.49 0 .888-.397.888-.888v-5.115c0-.491-.397-.888-.888-.888z" fill="#4671c6"/></g><g><path d="m96.866 145.596h-1.885c-.49 0-.888.397-.888.888v.835h-3.661v-.835c0-.49-.397-.888-.888-.888h-1.885c-.49 0-.888.397-.888.888v4.28h-2.771c-.49 0-.888.397-.888.888v5.115c0 .49.397.888.888.888h1.885c.49 0 .888-.397.888-.888v-4.28h3.66v.835c0 .49.398.888.888.888h1.885c.49 0 .888-.397.888-.888v-.835h2.773c.49 0 .888-.397.888-.888v-5.115c-.001-.491-.398-.888-.889-.888z" fill="#4671c6"/></g><g><path d="m93.206 145.596c.49 0 .888-.397.888-.888v-5.115c0-.49-.398-.888-.888-.888h-1.885c-.49 0-.888.397-.888.888v5.115c0 .49.398.888.888.888z" fill="#4671c6"/></g><g><path d="m84 138.706c-.49 0-.888.397-.888.888v5.115c0 .49.397.888.888.888h1.885c.49 0 .888-.397.888-.888v-5.115c0-.49-.397-.888-.888-.888z" fill="#4671c6"/></g><g><path d="m84 114.59h2.773v4.28c0 .49.397.888.888.888h1.885c.49 0 .888-.397.888-.888v-5.115c0-.49-.397-.888-.888-.888h-2.773v-1.723h3.66v.835c0 .49.398.888.888.888h1.885c.49 0 .888-.397.888-.888v-4.28h2.773c.49 0 .888-.398.888-.888v-5.115c0-.49-.397-.888-.888-.888h-2.773v-2.557c0-.49-.398-.888-.888-.888h-2.773v-4.28c0-.49-.397-.888-.888-.888h-1.885c-.49 0-.888.397-.888.888v2.557h-2.772c-.49 0-.888.397-.888.888v5.115c0 .49.397.888.888.888h1.885c.49 0 .888-.398.888-.888v-2.557h3.66v4.28c0 .49.398.888.888.888h2.773v1.723h-3.661v-.835c0-.49-.397-.888-.888-.888h-1.885c-.49 0-.888.397-.888.888v2.558h-2.772c-.49 0-.888.397-.888.888v5.115c0 .489.398.887.888.887z" fill="#4671c6"/></g><g><path d="m96.866 112.867h-1.885c-.49 0-.888.397-.888.888v5.115c0 .49.397.888.888.888h1.885c.49 0 .888-.397.888-.888v-5.115c0-.49-.397-.888-.888-.888z" fill="#4671c6"/></g><g><path d="m85.266 133.027v-6.469c0-.524-.425-.949-.949-.949h-2.497v-1.143c0-.524-.425-.949-.949-.949h-1.547c-.524 0-.949.425-.949.949v6.469c0 .524.425.949.949.949h2.496v1.143c0 .524.425.949.949.949h1.547c.525 0 .95-.425.95-.949z" fill="#4671c6"/></g><g><path d="m73.981 125.609h-1.547c-.524 0-.949.425-.949.949v1.143h-2.496c-.524 0-.949.425-.949.949v6.469c0 .524.425.949.949.949h1.547c.524 0 .949-.425.949-.949v-1.143h2.496c.524 0 .949-.425.949-.949v-6.469c0-.524-.425-.949-.949-.949z" fill="#4671c6"/></g><g><path d="m63.646 123.518h-5.941-2.496c-.524 0-.949.425-.949.949v6.469c0 .524.425.949.949.949h2.496v3.234c0 .524.425.949.949.949h1.547c.524 0 .949-.425.949-.949v-7.417h2.496c.524 0 .949-.425.949-.949v-2.285c0-.525-.425-.95-.949-.95z" fill="#4671c6"/></g><g><path d="m125.658 127.701h-2.496v-3.234c0-.524-.425-.949-.949-.949h-1.547c-.524 0-.949.425-.949.949v5.326h-3.445v-3.234c0-.524-.425-.949-.949-.949h-2.496v-3.234c0-.524-.425-.949-.949-.949h-4.992c-.524 0-.949.425-.949.949v2.285c0 .524.425.949.949.949h2.496v3.234c0 .524.425.949.949.949h-4.394v-3.234c0-.524-.425-.949-.949-.949h-4.992c-.524 0-.949.425-.949.949v1.143h-3.445v-3.234c0-.524-.425-.949-.949-.949h-4.993c-.524 0-.949.425-.949.949v2.285c0 .524.425.949.949.949h2.496v3.234c0 .524.425.949.949.949h4.992c.524 0 .949-.425.949-.949v-1.143h5.168v3.234c0 .524.425.949.949.949h4.992c.524 0 .949-.425.949-.949v-3.234h1.723v3.234c0 .524.425.949.949.949h4.992c.524 0 .949-.425.949-.949v-1.143h3.445v3.234c0 .524.425.949.949.949h1.547c.524 0 .949-.425.949-.949v-6.469c0-.523-.425-.948-.949-.948z" fill="#4671c6"/></g><g><path d="m119.865 147.222v8.59c0 1.046-.848 1.895-1.895 1.895h-8.59c-1.046 0-1.895-.848-1.895-1.895v-8.59c0-1.046.848-1.895 1.895-1.895h8.59c1.047 0 1.895.849 1.895 1.895z" fill="#4671c6"/></g><g><path d="m119.865 100.713v8.59c0 1.046-.848 1.895-1.895 1.895h-8.59c-1.046 0-1.895-.848-1.895-1.895v-8.59c0-1.046.848-1.895 1.895-1.895h8.59c1.047.001 1.895.849 1.895 1.895z" fill="#4671c6"/></g><g><path d="m103.34 137.737h20.671c1.903 0 3.445 1.542 3.445 3.445v20.671c0 1.903-1.542 3.445-3.445 3.445h-20.671c-1.903 0-3.445-1.542-3.445-3.445v-20.671c0-1.903 1.543-3.445 3.445-3.445zm19.81 3.445h-18.948c-.476 0-.861.386-.861.861v18.948c0 .476.386.861.861.861h18.948c.476 0 .861-.386.861-.861v-18.948c0-.476-.386-.861-.861-.861z" fill="#4671c6"/></g><g><path d="m102.479 91.228h22.393c1.427 0 2.584 1.157 2.584 2.584v22.393c0 1.427-1.157 2.584-2.584 2.584h-22.393c-1.427 0-2.584-1.157-2.584-2.584v-22.393c0-1.427 1.157-2.584 2.584-2.584zm19.809 3.445h-17.226c-.951 0-1.723.771-1.723 1.723v17.226c0 .951.771 1.723 1.723 1.723h17.226c.951 0 1.723-.771 1.723-1.723v-17.227c0-.951-.771-1.722-1.723-1.722z" fill="#4671c6"/></g><g><path d="m196.785 87.745c-15.205 0-28.309 8.967-34.333 21.896h-11.916v-6.202c0-3.35-3.871-5.216-6.492-3.129l-27.886 22.202c-2.011 1.601-2.011 4.657 0 6.259l27.886 22.202c2.621 2.086 6.492.22 6.492-3.129v-6.202h11.945c6.037 12.896 19.124 21.833 34.304 21.833 20.912 0 37.864-16.952 37.864-37.865 0-20.912-16.952-37.865-37.864-37.865z" fill="#eaa97d"/></g><g><circle cx="196.785" cy="125.61" fill="#ffea92" r="28.892"/></g><g><path d="m198.258 101.98v2.6c1.717.177 3.189.53 4.417 1.059 1.228.53 2.299 1.332 3.214 2.407.722.818 1.279 1.661 1.673 2.528.392.867.589 1.661.589 2.383 0 .803-.293 1.497-.878 2.082-.586.586-1.296.879-2.13.879-1.573 0-2.592-.85-3.057-2.552-.53-2.006-1.805-3.338-3.827-3.996v10.014c1.99.546 3.574 1.043 4.754 1.492s2.235 1.099 3.166 1.95c.994.883 1.761 1.938 2.299 3.165.537 1.228.806 2.572.806 4.032 0 1.829-.429 3.543-1.288 5.139-.859 1.597-2.122 2.901-3.791 3.912s-3.651 1.613-5.945 1.805v5.994c0 .947-.093 1.637-.277 2.07-.185.433-.59.65-1.216.65-.578 0-.983-.177-1.216-.53-.232-.353-.349-.899-.349-1.637v-6.499c-1.878-.209-3.519-.65-4.922-1.324-1.405-.674-2.575-1.512-3.514-2.515-.938-1.003-1.633-2.046-2.082-3.129s-.674-2.146-.674-3.189c0-.77.301-1.464.903-2.082s1.351-.927 2.25-.927c.722 0 1.332.168 1.829.505s.843.81 1.035 1.42c.433 1.316.81 2.323 1.131 3.021s.807 1.336 1.456 1.914c.65.578 1.512 1.019 2.588 1.324v-11.193c-2.15-.594-3.947-1.255-5.392-1.986-1.444-.73-2.616-1.769-3.514-3.117-.899-1.348-1.348-3.081-1.348-5.199 0-2.76.878-5.023 2.635-6.788 1.758-1.765 4.297-2.792 7.618-3.081v-2.552c0-1.348.506-2.022 1.516-2.022 1.027-.001 1.541.657 1.541 1.973zm-3.057 16.512v-9.219c-1.348.401-2.399.931-3.153 1.589s-1.131 1.653-1.131 2.985c0 1.268.353 2.227 1.059 2.877.705.649 1.781 1.239 3.225 1.768zm3.057 7.149v10.543c1.621-.321 2.873-.971 3.755-1.95.883-.979 1.324-2.118 1.324-3.418 0-1.396-.429-2.475-1.288-3.238-.859-.761-2.122-1.407-3.791-1.937z" fill="#eaa97d"/></g><g><path d="m196.785 165.474c-14.976 0-28.791-8.527-35.554-21.832h-8.696v4.202c0 2.324-1.301 4.396-3.396 5.405-2.093 1.006-4.522.735-6.342-.712l-27.886-22.202c-1.438-1.145-2.263-2.855-2.263-4.693 0-1.839.825-3.55 2.263-4.694l27.886-22.202c1.818-1.447 4.246-1.723 6.343-.711 2.094 1.01 3.395 3.081 3.395 5.405v4.202h8.665c6.752-13.344 20.579-21.896 35.585-21.896 21.981 0 39.864 17.883 39.864 39.864s-17.882 39.864-39.864 39.864zm-46.25-25.832h11.945c.776 0 1.482.449 1.812 1.152 5.881 12.563 18.636 20.68 32.493 20.68 19.775 0 35.864-16.089 35.864-35.864s-16.089-35.864-35.864-35.864c-13.886 0-26.65 8.142-32.521 20.741-.328.705-1.035 1.155-1.813 1.155h-11.917c-1.104 0-2-.896-2-2v-6.202c0-.786-.423-1.46-1.132-1.802-.707-.341-1.498-.253-2.113.236l-27.886 22.202c-.479.382-.755.952-.755 1.565 0 .612.275 1.183.755 1.564l27.886 22.202c.615.491 1.406.58 2.113.237.709-.342 1.132-1.016 1.132-1.802v-6.202c.001-1.103.897-1.998 2.001-1.998z" fill="#3762cc"/></g></g></svg>