<svg id="Layer_1" enable-background="new 0 0 256 256" height="512" viewBox="0 0 256 256" width="512" xmlns="http://www.w3.org/2000/svg"><g><g><path d="m44 170.838v72.162c0 2.761 2.239 5 5 5h158c2.761 0 5-2.239 5-5v-72.162z" fill="#a4c9ff"/></g><g><path d="m82.234 236.513h-25.244c-1.105 0-2-.895-2-2v-11.179c0-1.105.895-2 2-2h25.244c1.105 0 2 .895 2 2v11.179c0 1.104-.895 2-2 2z" fill="#f9a7a7"/></g><g><path d="m170.193 50.193c0-23.303-18.891-42.193-42.193-42.193s-42.193 18.89-42.193 42.193c0 19.777 13.61 36.37 31.973 40.94l8.457 15.791c.754 1.408 2.772 1.408 3.526 0l8.457-15.791c18.363-4.57 31.973-21.163 31.973-40.94z" fill="#f9a7a7"/></g><g><path d="m121.794 39.92c0 3.982-.876 6.941-2.627 8.88s-4.148 2.908-7.191 2.908c-1.876 0-3.56-.411-5.05-1.235-1.491-.823-2.653-2.111-3.486-3.862-.834-1.751-1.251-3.887-1.251-6.41 0-2.71.323-4.972.969-6.785s1.693-3.189 3.142-4.127 3.299-1.407 5.55-1.407c1.626 0 3.053.25 4.284.75 1.229.5 2.271 1.266 3.126 2.298.854 1.032 1.49 2.288 1.907 3.768.418 1.48.627 3.221.627 5.222zm-5.848-.313c0-2.731-.292-4.716-.876-5.956-.583-1.24-1.616-1.86-3.095-1.86-1.001 0-1.798.297-2.392.891s-1.001 1.47-1.22 2.626c-.219 1.157-.328 2.632-.328 4.424 0 1.856.109 3.367.328 4.534.219 1.168.62 2.048 1.204 2.642.583.594 1.386.891 2.408.891 1.542 0 2.59-.657 3.142-1.97.553-1.313.829-3.387.829-6.222zm26.703-7.598-26.045 41.992c-.668 1.146-1.418 1.72-2.251 1.72-.48 0-.959-.183-1.438-.547-.48-.365-.719-.839-.719-1.423 0-.438.208-.969.625-1.595l26.202-42.336c.458-.771.859-1.349 1.203-1.735.344-.385.839-.578 1.485-.578.625 0 1.13.183 1.516.547.385.365.578.85.578 1.454 0 .437-.385 1.271-1.156 2.501zm11.162 30.517c0 3.982-.876 6.941-2.627 8.88s-4.148 2.908-7.191 2.908c-1.897 0-3.591-.417-5.081-1.251-1.491-.833-2.657-2.115-3.502-3.846-.844-1.73-1.266-3.866-1.266-6.41 0-4.065.776-7.124 2.329-9.177s4.018-3.08 7.395-3.08c1.626 0 3.048.25 4.268.75 1.219.5 2.261 1.251 3.126 2.251.865 1.001 1.506 2.246 1.923 3.736.417 1.492.626 3.238.626 5.239zm-5.847-.313c0-2.689-.292-4.653-.875-5.894-.584-1.24-1.616-1.86-3.096-1.86-1.043 0-1.856.292-2.439.875-.584.584-.996 1.444-1.235 2.58-.24 1.136-.36 2.611-.36 4.424 0 2.794.297 4.836.891 6.128.594 1.293 1.641 1.939 3.143 1.939 1.521 0 2.564-.662 3.126-1.986.564-1.323.845-3.392.845-6.206z" fill="#ffea92"/></g><g><path d="m216.949 138.719c-.14-.986-.984-1.719-1.98-1.719h-86.969-86.969c-.996 0-1.84.733-1.98 1.719l-3.905 27.557c-.341 2.408 1.528 4.561 3.96 4.561h88.894 88.893c2.432 0 4.302-2.153 3.96-4.561z" fill="#e0ebfc"/></g><g><path d="m216.894 172.838h-177.788c-1.739 0-3.391-.753-4.53-2.067-1.141-1.313-1.654-3.054-1.41-4.776l3.904-27.557c.28-1.961 1.982-3.438 3.961-3.438h173.938c1.979 0 3.681 1.478 3.96 3.437.001 0 .001.001.001.001l3.904 27.557c.244 1.721-.27 3.462-1.41 4.775-1.14 1.314-2.791 2.068-4.53 2.068zm-175.863-33.838-3.904 27.557c-.083.583.084 1.147.47 1.592s.922.689 1.51.689h177.787c.588 0 1.124-.245 1.51-.689s.553-1.009.47-1.591l-3.905-27.558z" fill="#3762cc"/></g><g><path d="m207 250h-158c-3.859 0-7-3.14-7-7v-72.162c0-1.104.896-2 2-2h168c1.104 0 2 .896 2 2v72.162c0 3.86-3.141 7-7 7zm-161-77.162v70.162c0 1.654 1.346 3 3 3h158c1.654 0 3-1.346 3-3v-70.162z" fill="#3762cc"/></g><g><path d="m89.253 126.635c-1.104 0-2.113-.737-2.413-1.854l-13.512-50.427c-.357-1.333.435-2.704 1.768-3.062 1.33-.357 2.704.434 3.063 1.768l13.512 50.427c.357 1.333-.435 2.704-1.768 3.062-.217.059-.435.086-.65.086z" fill="#f9cfcf"/></g><g><path d="m166.747 126.635c-.215 0-.433-.028-.649-.086-1.333-.357-2.125-1.728-1.768-3.062l13.512-50.427c.358-1.334 1.734-2.124 3.063-1.768 1.333.357 2.125 1.728 1.768 3.062l-13.512 50.427c-.301 1.118-1.31 1.854-2.414 1.854z" fill="#f9cfcf"/></g><g><path d="m52.781 131.783c-.863 0-1.704-.448-2.167-1.25l-32.508-56.307c-.69-1.196-.28-2.725.915-3.415 1.192-.689 2.725-.281 3.415.915l32.508 56.306c.69 1.196.28 2.725-.915 3.415-.393.228-.823.336-1.248.336z" fill="#f9cfcf"/></g><g><path d="m203.219 131.783c-.425 0-.854-.108-1.248-.335-1.195-.69-1.605-2.219-.915-3.415l32.508-56.306c.691-1.197 2.222-1.604 3.415-.915 1.195.69 1.605 2.219.915 3.415l-32.508 56.306c-.463.801-1.304 1.25-2.167 1.25z" fill="#f9cfcf"/></g><g><path d="m82.234 238.513h-25.244c-2.206 0-4-1.794-4-4v-11.179c0-2.206 1.794-4 4-4h25.244c2.206 0 4 1.794 4 4v11.179c0 2.205-1.794 4-4 4zm-25.244-15.18v11.179h25.247l-.003-11.179z" fill="#3762cc"/></g><g><path d="m128 109.979c-1.479 0-2.829-.81-3.526-2.112l-8.043-15.018c-19.255-5.201-32.624-22.614-32.624-42.655 0-24.369 19.825-44.194 44.193-44.194s44.193 19.825 44.193 44.193c0 20.042-13.369 37.454-32.624 42.655l-8.044 15.019c-.696 1.302-2.046 2.112-3.525 2.112zm0-99.979c-22.163 0-40.193 18.03-40.193 40.193 0 18.5 12.524 34.537 30.457 38.999.548.137 1.013.499 1.279.997l8.457 15.79 8.457-15.791c.267-.498.731-.86 1.279-.997 17.933-4.462 30.457-20.499 30.457-38.999 0-22.162-18.03-40.192-40.193-40.192z" fill="#3762cc"/></g></g></svg>