<svg id="Layer_1" enable-background="new 0 0 256 256" height="512" viewBox="0 0 256 256" width="512" xmlns="http://www.w3.org/2000/svg"><g><g><path d="m248 128c0 7.397-19.011 12.833-20.394 19.825-1.425 7.204 14.034 19.483 11.285 26.111-2.796 6.744-22.437 4.48-26.45 10.474-4.044 6.04 5.532 23.322.411 28.443s-22.403-4.455-28.443-.411c-5.994 4.013-3.73 23.653-10.474 26.45-6.628 2.748-18.907-12.71-26.111-11.285-6.991 1.382-12.427 20.393-19.824 20.393s-12.833-19.011-19.825-20.394c-7.204-1.425-19.483 14.034-26.111 11.285-6.744-2.796-4.48-22.437-10.474-26.45-6.04-4.044-23.322 5.532-28.443.411s4.455-22.403.411-28.443c-4.013-5.994-23.653-3.73-26.45-10.474-2.748-6.628 12.71-18.907 11.285-26.111-1.382-6.991-20.393-12.427-20.393-19.824s19.011-12.833 20.394-19.825c1.425-7.204-14.034-19.483-11.285-26.111 2.796-6.744 22.437-4.48 26.45-10.474 4.044-6.04-5.532-23.322-.411-28.443s22.403 4.455 28.443.411c5.994-4.013 3.73-23.653 10.474-26.45 6.628-2.748 18.907 12.71 26.111 11.285 6.991-1.382 12.427-20.393 19.824-20.393s12.833 19.011 19.825 20.394c7.204 1.425 19.483-14.034 26.111-11.285 6.744 2.796 4.48 22.437 10.474 26.45 6.04 4.044 23.322-5.532 28.443-.411s-4.455 22.403-.411 28.443c4.013 5.994 23.653 3.73 26.45 10.474 2.748 6.628-12.71 18.907-11.285 26.111 1.382 6.991 20.393 12.427 20.393 19.824z" fill="#f9a7a7"/></g><g><path d="m128 250c-4.971 0-8.647-5.749-12.203-11.309-2.587-4.045-5.519-8.63-8.01-9.123-2.652-.526-7.222 2.667-11.258 5.482-5.551 3.871-10.797 7.525-15.231 5.689-4.525-1.876-5.707-8.544-6.85-14.993-.847-4.778-1.807-10.194-3.971-11.643-2.197-1.472-7.605-.287-12.377.759-6.653 1.458-12.938 2.834-16.368-.596-3.431-3.431-2.054-9.714-.596-16.367 1.046-4.771 2.231-10.18.759-12.377-1.448-2.164-6.864-3.124-11.643-3.971-6.448-1.143-13.116-2.325-14.992-6.85-1.839-4.437 1.817-9.68 5.689-15.231 2.815-4.036 6.005-8.611 5.482-11.258-.493-2.491-5.078-5.423-9.123-8.01-5.559-3.555-11.308-7.231-11.308-12.202s5.749-8.647 11.309-12.203c4.045-2.587 8.63-5.519 9.123-8.01.523-2.647-2.667-7.222-5.482-11.258-3.872-5.551-7.528-10.795-5.689-15.231 1.876-4.525 8.544-5.707 14.993-6.85 4.778-.847 10.194-1.807 11.643-3.971 1.471-2.197.286-7.605-.759-12.377-1.458-6.653-2.835-12.937.596-16.368 3.429-3.432 9.714-2.055 16.367-.596 4.772 1.046 10.18 2.232 12.377.759 2.164-1.448 3.124-6.864 3.971-11.643 1.143-6.448 2.325-13.116 6.85-14.992 4.437-1.838 9.68 1.817 15.231 5.689 4.036 2.814 8.613 6.007 11.258 5.482 2.491-.493 5.423-5.078 8.01-9.123 3.555-5.559 7.231-11.308 12.202-11.308s8.647 5.75 12.203 11.31c2.586 4.045 5.519 8.63 8.009 9.123 2.638.521 7.221-2.667 11.259-5.482 5.551-3.871 10.788-7.527 15.231-5.688 4.525 1.876 5.707 8.544 6.85 14.993.848 4.778 1.808 10.194 3.971 11.643 2.199 1.471 7.607.287 12.378-.759 6.653-1.458 12.938-2.834 16.367.596 3.431 3.431 2.054 9.715.596 16.367-1.046 4.772-2.23 10.18-.76 12.378 1.448 2.163 6.864 3.123 11.643 3.97 6.448 1.143 13.116 2.325 14.993 6.85 1.839 4.437-1.817 9.679-5.688 15.23-2.815 4.037-6.006 8.612-5.482 11.259.493 2.491 5.078 5.423 9.123 8.01 5.558 3.553 11.307 7.229 11.307 12.2s-5.749 8.647-11.309 12.203c-4.045 2.587-8.63 5.519-9.123 8.01-.523 2.647 2.667 7.222 5.482 11.259 3.871 5.551 7.527 10.794 5.688 15.23-1.877 4.525-8.545 5.707-14.993 6.85-4.778.847-10.194 1.807-11.643 3.971-1.472 2.198-.286 7.606.759 12.377 1.458 6.653 2.835 12.937-.596 16.367-3.432 3.432-9.716 2.053-16.367.596-4.771-1.045-10.179-2.232-12.378-.759-2.163 1.448-3.123 6.864-3.971 11.643-1.143 6.448-2.324 13.115-6.85 14.992-4.433 1.839-9.68-1.817-15.23-5.688-4.037-2.816-8.606-6.007-11.259-5.482-2.491.493-5.423 5.078-8.01 9.123-3.554 5.559-7.229 11.308-12.2 11.308zm-20.826-24.489c.469 0 .932.043 1.39.133 4.165.824 7.292 5.714 10.604 10.892 2.837 4.436 6.052 9.464 8.833 9.464 2.78 0 5.995-5.028 8.832-9.464 3.312-5.178 6.438-10.068 10.604-10.892 4.311-.852 9.176 2.536 14.322 6.125 4.218 2.942 9.008 6.273 11.41 5.274 2.501-1.037 3.533-6.858 4.443-11.995 1.083-6.105 2.104-11.873 5.685-14.269 3.615-2.42 9.368-1.158 15.459.176 5.063 1.109 10.799 2.366 12.683.483 1.884-1.884.626-7.621-.483-12.683-1.335-6.092-2.596-11.845-.176-15.459 2.396-3.579 8.163-4.601 14.269-5.684 5.137-.911 10.959-1.942 11.996-4.443 1.001-2.413-2.333-7.193-5.274-11.41-3.589-5.146-6.979-10.007-6.125-14.323.824-4.165 5.714-7.292 10.892-10.604 4.436-2.837 9.464-6.052 9.464-8.833s-5.028-5.996-9.464-8.833c-5.178-3.311-10.067-6.438-10.892-10.604-.854-4.316 2.536-9.177 6.125-14.323 2.941-4.217 6.275-8.997 5.274-11.41-1.037-2.501-6.859-3.533-11.996-4.443-6.105-1.083-11.872-2.104-14.269-5.684-2.419-3.614-1.158-9.368.177-15.459 1.109-5.062 2.366-10.799.483-12.683-1.885-1.883-7.621-.626-12.684.483-6.091 1.334-11.844 2.595-15.458.176-3.58-2.396-4.602-8.163-5.685-14.269-.91-5.137-1.942-10.958-4.443-11.996-2.412-1-7.193 2.333-11.411 5.274-5.146 3.589-10.011 6.979-14.322 6.125-4.166-.824-7.293-5.714-10.604-10.892-2.837-4.433-6.052-9.461-8.833-9.461s-5.996 5.028-8.833 9.464c-3.311 5.178-6.438 10.068-10.604 10.892-4.315.855-9.177-2.536-14.323-6.125-4.217-2.941-8.991-6.277-11.41-5.274-2.501 1.037-3.533 6.858-4.443 11.995-1.083 6.105-2.104 11.872-5.684 14.269-3.614 2.419-9.368 1.159-15.459-.176-5.061-1.109-10.797-2.366-12.683-.483-1.884 1.884-.626 7.621.483 12.683 1.335 6.091 2.596 11.845.176 15.459-2.396 3.579-8.163 4.601-14.269 5.684-5.136.911-10.958 1.942-11.995 4.443-1.001 2.413 2.333 7.193 5.274 11.411 3.589 5.146 6.979 10.006 6.125 14.322-.824 4.165-5.714 7.292-10.892 10.604-4.435 2.836-9.463 6.051-9.463 8.832s5.028 5.996 9.464 8.833c5.178 3.311 10.068 6.438 10.892 10.604.854 4.316-2.536 9.177-6.125 14.323-2.941 4.217-6.275 8.997-5.274 11.41 1.037 2.501 6.858 3.533 11.995 4.443 6.105 1.083 11.872 2.104 14.269 5.684 2.419 3.614 1.159 9.368-.176 15.459-1.109 5.062-2.366 10.799-.483 12.683s7.621.626 12.683-.483c6.091-1.335 11.845-2.596 15.459-.176 3.579 2.396 4.601 8.163 5.684 14.269.911 5.136 1.942 10.958 4.443 11.995 2.41 1 7.193-2.333 11.411-5.274 4.6-3.209 8.973-6.259 12.932-6.259z" fill="#3762cc"/></g><g><path d="m129.598 87.187 9.487-39.847c.277-1.164-.383-2.347-1.52-2.723-1.137-.375-2.371.182-2.842 1.282l-21.637 50.573c-.651 1.521.465 3.212 2.119 3.212h8.68c.636 0 1.095.611.917 1.222l-11.323 38.924c-.333 1.144.261 2.354 1.37 2.789l.022.009c1.109.436 2.368-.046 2.903-1.11l25.037-49.813c.771-1.533-.344-3.34-2.06-3.34h-10.225c-.616-.002-1.071-.578-.928-1.178z" fill="#ffea92"/></g><g><path d="m90.102 97.418 7.916-33.248c.229-.96-.316-1.936-1.253-2.246-.937-.31-1.956.15-2.344 1.057l-17.846 41.712c-.537 1.254.384 2.649 1.748 2.649h7.572c.318 0 .547.305.458.611l-9.455 32.5c-.275.944.215 1.941 1.13 2.301l.018.007c.915.359 1.953-.038 2.394-.916l20.65-41.085c.635-1.264-.284-2.755-1.699-2.755h-8.826c-.307.001-.535-.287-.463-.587z" fill="#ffea92"/></g><g><path d="m168.387 97.418 7.916-33.248c.229-.96-.316-1.936-1.253-2.246-.937-.31-1.956.15-2.344 1.057l-17.846 41.712c-.537 1.254.384 2.649 1.748 2.649h7.572c.318 0 .547.305.458.611l-9.455 32.5c-.275.944.215 1.941 1.13 2.301l.018.007c.915.359 1.953-.038 2.394-.916l20.65-41.085c.635-1.264-.284-2.755-1.699-2.755h-8.826c-.307.001-.535-.287-.463-.587z" fill="#ffea92"/></g><g><g><path d="m83.748 173.833c-1.376-.976-3.06-1.814-5.002-2.491-1.884-.656-4.018-1.265-6.324-1.804-1.808-.456-3.121-.807-3.902-1.044-.726-.219-1.457-.529-2.171-.92-.648-.355-1.158-.776-1.514-1.251-.314-.419-.467-.914-.467-1.512 0-.982.504-1.821 1.542-2.564 1.127-.807 2.667-1.217 4.574-1.217 2.047 0 3.515.357 4.364 1.062.921.765 1.731 1.864 2.425 3.301.628 1.177 1.213 2.018 1.787 2.57.681.656 1.639.988 2.847.988 1.333 0 2.459-.511 3.348-1.52.858-.972 1.293-2.087 1.293-3.316 0-1.223-.315-2.484-.937-3.749-.615-1.249-1.586-2.445-2.889-3.557-1.295-1.105-2.934-2-4.872-2.66-1.921-.653-4.213-.984-6.812-.984-3.245 0-6.121.497-8.545 1.476-2.487 1.005-4.423 2.475-5.752 4.369-1.338 1.905-2.016 4.109-2.016 6.55 0 2.559.649 4.745 1.93 6.496 1.253 1.715 2.963 3.083 5.083 4.069 2.027.942 4.565 1.774 7.55 2.472 2.142.49 3.871.958 5.14 1.389 1.15.392 2.094.958 2.803 1.684.641.655.952 1.504.952 2.594 0 1.383-.619 2.516-1.891 3.465-1.345 1.003-3.15 1.511-5.364 1.511-1.61 0-2.904-.248-3.849-.736-.941-.487-1.675-1.104-2.18-1.835-.557-.805-1.087-1.832-1.572-3.046-.48-1.231-1.084-2.188-1.796-2.845-.791-.729-1.762-1.099-2.888-1.099-1.35 0-2.483.462-3.371 1.372-.88.904-1.326 2.003-1.326 3.269 0 1.908.637 3.879 1.893 5.858 1.238 1.952 2.871 3.534 4.857 4.706 2.755 1.602 6.272 2.415 10.453 2.415 3.481 0 6.547-.591 9.113-1.757 2.611-1.187 4.629-2.863 5.998-4.981 1.37-2.119 2.064-4.537 2.064-7.185 0-2.208-.407-4.116-1.209-5.67s-1.935-2.857-3.367-3.873z" fill="#e0ebfc"/></g><g><path d="m118.247 161.509c-.504-1.326-.919-2.386-1.246-3.18-.35-.849-.786-1.655-1.297-2.397-.557-.807-1.294-1.475-2.193-1.984-.918-.519-2.051-.783-3.369-.783-1.299 0-2.424.263-3.341.783-.901.51-1.642 1.19-2.2 2.022-.51.76-.993 1.718-1.435 2.847l-1.07 2.736-10.419 26.451c-.44 1.091-.749 1.925-.944 2.549-.214.686-.323 1.366-.323 2.022 0 1.244.506 2.357 1.505 3.309.985.939 2.143 1.416 3.441 1.416 1.548 0 2.705-.494 3.439-1.469.601-.798 1.283-2.23 2.083-4.38l1.704-4.574h15.181l1.71 4.495c.262.636.575 1.37.94 2.202.399.911.774 1.583 1.145 2.052.405.513.912.924 1.506 1.22.601.301 1.312.453 2.113.453 1.382 0 2.579-.496 3.557-1.474s1.474-2.091 1.474-3.306c0-1.05-.435-2.604-1.325-4.739zm-12.77 17.17 4.619-12.877 4.704 12.877z" fill="#e0ebfc"/></g><g><path d="m160.088 187.823h-15.732v-28.655c0-1.939-.479-3.436-1.423-4.447-.961-1.032-2.222-1.555-3.747-1.555-1.513 0-2.759.532-3.702 1.582-.917 1.019-1.382 2.506-1.382 4.421v31.378c0 2.044.494 3.58 1.469 4.567.98.99 2.524 1.491 4.59 1.491h19.928c1.596 0 2.855-.397 3.746-1.181.925-.817 1.395-1.887 1.395-3.182 0-1.27-.47-2.341-1.397-3.186-.902-.818-2.161-1.233-3.745-1.233z" fill="#e0ebfc"/></g><g><path d="m200.742 189.212c-.844-.774-2.058-1.166-3.607-1.166h-18.232v-9.59h16.121c1.538 0 2.724-.388 3.524-1.152.814-.777 1.228-1.783 1.228-2.989 0-1.215-.424-2.217-1.259-2.977-.809-.735-1.983-1.108-3.493-1.108h-16.121v-8.006h17.594c1.567 0 2.78-.383 3.606-1.137.852-.779 1.284-1.808 1.284-3.059 0-1.233-.433-2.252-1.284-3.031-.826-.755-2.039-1.137-3.606-1.137h-21.791c-1.306 0-2.413.203-3.29.604-.97.442-1.691 1.157-2.145 2.125-.413.881-.622 2.001-.622 3.329v30.628c0 2.044.494 3.58 1.468 4.566.979.99 2.522 1.492 4.589 1.492h22.43c1.551 0 2.765-.393 3.606-1.165.871-.797 1.313-1.835 1.313-3.086-.001-1.287-.442-2.344-1.313-3.141z" fill="#e0ebfc"/></g><g><path d="m71.149 199.3c-4.539 0-8.394-.904-11.458-2.686-2.272-1.34-4.133-3.143-5.541-5.365-1.462-2.302-2.205-4.634-2.205-6.929 0-1.779.655-3.392 1.893-4.664 1.261-1.294 2.922-1.977 4.804-1.977 1.62 0 3.087.563 4.243 1.628.937.865 1.711 2.072 2.303 3.588.426 1.064.883 1.956 1.354 2.634.318.46.807.863 1.454 1.198.452.233 1.328.512 2.93.512 1.774 0 3.177-.375 4.169-1.115.957-.713 1.085-1.341 1.085-1.861 0-.709-.193-1.003-.382-1.196-.488-.499-1.167-.899-2.018-1.189-1.208-.411-2.871-.859-4.941-1.333-3.126-.732-5.797-1.609-7.947-2.608-2.43-1.13-4.399-2.712-5.854-4.703-1.537-2.1-2.316-4.683-2.316-7.676 0-2.86.801-5.451 2.38-7.7 1.554-2.214 3.788-3.921 6.64-5.074 2.664-1.076 5.791-1.622 9.295-1.622 2.817 0 5.325.367 7.455 1.09 2.179.742 4.038 1.762 5.526 3.033 1.51 1.288 2.649 2.7 3.385 4.195.758 1.541 1.142 3.099 1.142 4.632 0 1.707-.621 3.312-1.794 4.64-1.071 1.215-2.437 1.946-3.986 2.142.77.404 1.484.839 2.14 1.304 1.696 1.203 3.037 2.746 3.987 4.587.95 1.838 1.432 4.055 1.432 6.587 0 3.04-.802 5.822-2.384 8.271-1.581 2.446-3.885 4.369-6.85 5.717-2.828 1.288-6.173 1.94-9.941 1.94zm-12.506-17.62c-.812 0-1.428.244-1.939.768-.517.531-.758 1.126-.758 1.873 0 1.523.532 3.133 1.582 4.786 1.067 1.683 2.475 3.047 4.186 4.056 2.435 1.416 5.614 2.137 9.437 2.137 3.193 0 5.981-.531 8.286-1.578 2.256-1.025 3.987-2.454 5.146-4.247 1.157-1.79 1.743-3.842 1.743-6.099 0-1.887-.332-3.486-.986-4.752-.654-1.268-1.579-2.331-2.748-3.16-1.222-.867-2.736-1.618-4.503-2.233-1.82-.634-3.88-1.221-6.122-1.746-1.872-.472-3.215-.832-4.026-1.077-.857-.259-1.716-.623-2.552-1.081-.9-.493-1.625-1.1-2.153-1.805-.576-.768-.867-1.68-.867-2.713 0-1.135.412-2.782 2.376-4.189 1.476-1.056 3.406-1.591 5.739-1.591 2.562 0 4.407.498 5.641 1.523 1.144.95 2.136 2.285 2.949 3.97.484.903.959 1.6 1.372 1.998.297.285.788.43 1.461.43.754 0 1.341-.268 1.847-.842.535-.605.793-1.256.793-1.994 0-.916-.246-1.88-.731-2.866-.494-1.003-1.298-1.985-2.392-2.918-1.103-.941-2.521-1.711-4.218-2.289-1.713-.582-3.789-.877-6.167-.877-2.988 0-5.611.448-7.797 1.331-2.124.858-3.76 2.09-4.864 3.663-1.098 1.563-1.654 3.38-1.654 5.401 0 2.125.52 3.914 1.545 5.315 1.051 1.439 2.501 2.595 4.311 3.436 1.902.884 4.312 1.671 7.163 2.338 2.193.501 3.989.988 5.328 1.443 1.45.494 2.658 1.227 3.589 2.179 1.01 1.034 1.522 2.377 1.522 3.993 0 2.029-.907 3.734-2.694 5.068-1.7 1.266-3.907 1.908-6.561 1.908-1.932 0-3.536-.323-4.767-.959-1.237-.639-2.215-1.472-2.907-2.475-.64-.923-1.24-2.081-1.783-3.439-.371-.949-.816-1.676-1.295-2.118-.422-.387-.908-.568-1.532-.568zm11.839-18.65c-1.481 0-2.629.284-3.41.843-.705.505-.705.808-.705.938 0 .224.045.284.067.313.181.241.484.482.875.696.593.325 1.195.581 1.789.76.752.228 2.035.571 3.813 1.019 1.43.334 2.804.698 4.102 1.085-.5-.616-.99-1.383-1.507-2.349-.599-1.238-1.239-2.124-1.938-2.705-.17-.141-.893-.6-3.086-.6z" fill="#3762cc"/></g><g><path d="m125.178 199.3c-1.115 0-2.127-.224-3.008-.665-.858-.428-1.592-1.024-2.181-1.77-.477-.604-.938-1.418-1.406-2.488-.371-.847-.69-1.595-.957-2.243l-1.24-3.257h-12.413l-1.218 3.271c-.882 2.366-1.632 3.918-2.361 4.886-.778 1.033-2.284 2.265-5.037 2.265-1.804 0-3.471-.681-4.821-1.968-1.39-1.325-2.125-2.97-2.125-4.756 0-.855.139-1.736.414-2.617.213-.682.54-1.565.999-2.703l11.481-29.167c.493-1.262 1.044-2.35 1.636-3.232.733-1.093 1.701-1.984 2.875-2.648 1.221-.692 2.676-1.042 4.326-1.042 1.667 0 3.132.351 4.354 1.042 1.165.66 2.125 1.531 2.854 2.589.592.86 1.097 1.792 1.5 2.771.33.804.75 1.873 1.258 3.211l10.629 26.252c1.001 2.401 1.471 4.151 1.471 5.489 0 1.739-.712 3.372-2.06 4.72-1.346 1.347-3.065 2.06-4.97 2.06zm-22.595-14.423h15.181c.83 0 1.574.513 1.869 1.289l1.71 4.495c.237.574.544 1.294.902 2.11.326.743.623 1.287.882 1.616.222.281.5.506.829.67.323.161.733.243 1.221.243.856 0 1.537-.282 2.142-.888.598-.598.889-1.217.889-1.892 0-.434-.152-1.526-1.171-3.969l-10.645-26.292c-.005-.013-.01-.027-.016-.04-.496-1.305-.905-2.348-1.226-3.13-.295-.716-.663-1.397-1.094-2.022-.383-.556-.899-1.02-1.532-1.379-.612-.346-1.415-.522-2.383-.522-.95 0-1.743.176-2.355.523-.629.356-1.142.826-1.525 1.397-.43.641-.845 1.469-1.232 2.46l-1.071 2.736-10.42 26.456c-.425 1.053-.716 1.837-.896 2.414-.154.493-.232.973-.232 1.424 0 .694.281 1.286.885 1.861.618.589 1.273.864 2.062.864 1.335 0 1.717-.506 1.842-.672.328-.435.908-1.46 1.807-3.875l1.703-4.573c.291-.785 1.039-1.304 1.874-1.304zm12.216-4.198h-9.323c-.651 0-1.261-.317-1.636-.849s-.467-1.213-.247-1.826l4.619-12.876c.284-.792 1.035-1.322 1.876-1.325h.006c.84 0 1.59.524 1.878 1.314l4.704 12.876c.224.613.135 1.297-.239 1.832-.373.535-.985.854-1.638.854zm-6.48-4h3.621l-1.827-5.001z" fill="#3762cc"/></g><g><path d="m160.088 198.605h-19.928c-2.618 0-4.641-.701-6.011-2.084-1.359-1.376-2.048-3.385-2.048-5.975v-31.378c0-2.423.638-4.361 1.896-5.758 1.318-1.468 3.113-2.244 5.188-2.244 2.074 0 3.876.758 5.211 2.192 1.299 1.391 1.959 3.347 1.959 5.81v26.655h13.732c2.098 0 3.81.59 5.089 1.753 1.343 1.222 2.052 2.834 2.052 4.665 0 1.866-.716 3.484-2.07 4.681-1.269 1.118-2.973 1.683-5.07 1.683zm-20.902-43.439c-.947 0-1.651.292-2.215.919-.577.641-.869 1.679-.869 3.083v31.378c0 1.031.154 2.416.892 3.161.734.742 2.128.897 3.167.897h19.928c1.094 0 1.91-.229 2.425-.683.494-.437.716-.956.716-1.681 0-.703-.236-1.245-.743-1.707-.52-.472-1.326-.712-2.397-.712h-15.732c-1.104 0-2-.896-2-2v-28.655c0-1.417-.298-2.454-.885-3.082-.587-.627-1.313-.918-2.287-.918z" fill="#3762cc"/></g><g><path d="m197.135 198.605h-22.43c-2.62 0-4.644-.702-6.012-2.087-1.356-1.374-2.045-3.382-2.045-5.972v-30.628c0-1.624.273-3.03.812-4.178.65-1.389 1.731-2.46 3.125-3.096 1.138-.52 2.524-.784 4.12-.784h21.791c2.082 0 3.749.559 4.955 1.661 1.267 1.158 1.936 2.717 1.936 4.508 0 1.809-.669 3.377-1.935 4.535-1.207 1.103-2.874 1.661-4.956 1.661h-15.594v4.006h14.121c2.022 0 3.65.548 4.839 1.628 1.252 1.14 1.913 2.681 1.913 4.457 0 1.749-.639 3.282-1.847 4.435-1.186 1.132-2.836 1.706-4.905 1.706h-14.121v5.59h16.232c2.065 0 3.733.569 4.957 1.69 1.284 1.174 1.963 2.771 1.963 4.617 0 1.81-.679 3.387-1.964 4.562-1.219 1.12-2.888 1.689-4.955 1.689zm-22.43-42.745c-1.003 0-1.854.146-2.459.423-.541.248-.911.614-1.164 1.155-.284.605-.434 1.462-.434 2.48v30.628c0 1.031.154 2.416.891 3.16.733.743 2.127.898 3.166.898h22.43c1.034 0 1.792-.215 2.254-.639.461-.422.666-.919.666-1.613 0-.95-.378-1.405-.662-1.666-.001 0-.002-.001-.002-.001-.463-.425-1.222-.64-2.256-.64h-18.232c-1.104 0-2-.896-2-2v-9.59c0-1.104.896-2 2-2h16.121c.691 0 1.625-.104 2.144-.599.415-.396.608-.887.608-1.542s-.187-1.117-.605-1.498c-.533-.485-1.462-.587-2.146-.587h-16.121c-1.104 0-2-.896-2-2v-8.006c0-1.104.896-2 2-2h17.594c.724 0 1.702-.106 2.258-.614.271-.248.633-.683.633-1.582 0-.675-.195-1.154-.634-1.555-.555-.507-1.533-.613-2.257-.613h-21.793z" fill="#3762cc"/></g></g></g></svg>