<svg id="Layer_1" enable-background="new 0 0 256 256" height="512" viewBox="0 0 256 256" width="512" xmlns="http://www.w3.org/2000/svg"><g><g><path d="m128 139.876h-104.65l13.83 98.35c.612 4.35 4.334 7.585 8.727 7.585h82.093 82.093c4.393 0 8.115-3.235 8.727-7.585l13.83-98.35z" fill="#a4c9ff"/></g><g><path d="m239.443 139.876h-222.886c-2.434 0-4.406-1.973-4.406-4.406v-16.891c0-2.434 1.973-4.406 4.406-4.406h222.887c2.434 0 4.406 1.973 4.406 4.406v16.891c0 2.433-1.973 4.406-4.407 4.406z" fill="#4671c6"/></g><g><path d="m107.562 231.399c-4.563 0-8.262-3.699-8.262-8.262v-60.587c0-4.563 3.699-8.262 8.262-8.262 4.563 0 8.262 3.699 8.262 8.262v60.587c0 4.563-3.699 8.262-8.262 8.262z" fill="#4671c6"/></g><g><path d="m148.438 231.399c-4.563 0-8.262-3.699-8.262-8.262v-60.587c0-4.563 3.699-8.262 8.262-8.262 4.563 0 8.262 3.699 8.262 8.262v60.587c0 4.563-3.699 8.262-8.262 8.262z" fill="#4671c6"/></g><g><path d="m64.686 231.399c-4.563 0-8.262-3.699-8.262-8.262v-60.587c0-4.563 3.699-8.262 8.262-8.262 4.563 0 8.262 3.699 8.262 8.262v60.587c0 4.563-3.699 8.262-8.262 8.262z" fill="#4671c6"/></g><g><path d="m191.314 231.399c-4.563 0-8.262-3.699-8.262-8.262v-60.587c0-4.563 3.699-8.262 8.262-8.262 4.563 0 8.262 3.699 8.262 8.262v60.587c0 4.563-3.699 8.262-8.262 8.262z" fill="#4671c6"/></g><g><path d="m210.093 247.812h-164.186c-5.358 0-9.961-4.001-10.707-9.307l-13.831-98.35c-.081-.573.091-1.153.471-1.59s.93-.688 1.509-.688h209.301c.579 0 1.129.251 1.509.688s.552 1.017.471 1.59l-13.831 98.35c-.744 5.306-5.347 9.307-10.706 9.307zm-184.443-105.936 13.51 96.072c.47 3.343 3.37 5.864 6.746 5.864h164.187c3.376 0 6.276-2.521 6.746-5.864l13.51-96.072z" fill="#3762cc"/></g><g><path d="m239.443 141.876h-222.886c-3.532 0-6.406-2.874-6.406-6.406v-16.891c0-3.533 2.874-6.407 6.406-6.407h222.887c3.532 0 6.406 2.874 6.406 6.407v16.891c0 3.532-2.874 6.406-6.407 6.406zm-222.886-25.704c-1.327 0-2.406 1.08-2.406 2.407v16.891c0 1.327 1.08 2.406 2.406 2.406h222.887c1.327 0 2.406-1.08 2.406-2.406v-16.891c0-1.327-1.08-2.407-2.406-2.407z" fill="#3762cc"/></g><g><path d="m107.562 233.399c-5.658 0-10.262-4.604-10.262-10.262v-60.587c0-5.658 4.604-10.262 10.262-10.262s10.262 4.604 10.262 10.262v60.587c0 5.658-4.604 10.262-10.262 10.262zm0-77.11c-3.453 0-6.262 2.809-6.262 6.262v60.587c0 3.453 2.809 6.262 6.262 6.262s6.262-2.809 6.262-6.262v-60.588c0-3.452-2.809-6.261-6.262-6.261z" fill="#3762cc"/></g><g><path d="m148.438 233.399c-5.658 0-10.262-4.604-10.262-10.262v-60.587c0-5.658 4.604-10.262 10.262-10.262s10.262 4.604 10.262 10.262v60.587c0 5.658-4.604 10.262-10.262 10.262zm0-77.11c-3.453 0-6.262 2.809-6.262 6.262v60.587c0 3.453 2.809 6.262 6.262 6.262s6.262-2.809 6.262-6.262v-60.588c0-3.452-2.809-6.261-6.262-6.261z" fill="#3762cc"/></g><g><path d="m64.686 233.399c-5.658 0-10.262-4.604-10.262-10.262v-60.587c0-5.658 4.604-10.262 10.262-10.262 5.659 0 10.262 4.604 10.262 10.262v60.587c0 5.658-4.603 10.262-10.262 10.262zm0-77.11c-3.453 0-6.262 2.809-6.262 6.262v60.587c0 3.453 2.809 6.262 6.262 6.262s6.262-2.809 6.262-6.262v-60.588c0-3.452-2.809-6.261-6.262-6.261z" fill="#3762cc"/></g><g><path d="m191.314 233.399c-5.659 0-10.262-4.604-10.262-10.262v-60.587c0-5.658 4.604-10.262 10.262-10.262s10.262 4.604 10.262 10.262v60.587c0 5.658-4.604 10.262-10.262 10.262zm0-77.11c-3.453 0-6.262 2.809-6.262 6.262v60.587c0 3.453 2.809 6.262 6.262 6.262s6.262-2.809 6.262-6.262v-60.588c0-3.452-2.809-6.261-6.262-6.261z" fill="#3762cc"/></g><g><path d="m162.066 35.38-11.299 6.524c-4.783 2.761-10.899 1.123-13.66-3.66l-3.77-6.529c-2.761-4.783-1.123-10.899 3.66-13.66l11.299-6.524c4.783-2.761 10.899-1.123 13.66 3.66l3.77 6.529c2.761 4.783 1.123 10.898-3.66 13.66z" fill="#f9a7a7"/></g><g><path d="m145.787 45.241c-4.151 0-8.192-2.152-10.413-5.998l-3.77-6.529c-1.603-2.776-2.028-6.01-1.199-9.106s2.815-5.684 5.591-7.286l11.299-6.524c5.729-3.308 13.084-1.338 16.392 4.392l3.77 6.53c1.603 2.776 2.028 6.01 1.199 9.106s-2.815 5.684-5.591 7.286l-11.299 6.523c-1.884 1.089-3.945 1.606-5.979 1.606zm7.495-33.049c-1.356 0-2.729.344-3.986 1.07l-11.299 6.524c-3.82 2.206-5.134 7.108-2.928 10.928l3.77 6.529c2.206 3.82 7.108 5.134 10.929 2.928l11.299-6.523 1 1.732-1-1.732c3.82-2.206 5.134-7.108 2.928-10.928l-3.77-6.53c-1.481-2.564-4.176-3.998-6.943-3.998z" fill="#3762cc"/></g><g><path d="m210.118 131.656c-4.742 2.738-10.805 1.113-13.543-3.629l-50.673-87.767c-2.738-4.742-1.113-10.805 3.629-13.543 4.742-2.738 10.805-1.113 13.543 3.629l50.673 87.768c2.738 4.741 1.113 10.805-3.629 13.542z" fill="#e0ebfc"/></g><g><path d="m205.18 134.99c-1.035 0-2.076-.136-3.103-.411-3.074-.824-5.643-2.795-7.234-5.551l-50.673-87.768c-1.591-2.756-2.014-5.967-1.19-9.041s2.795-5.643 5.551-7.234c2.755-1.591 5.966-2.014 9.041-1.19 3.074.824 5.643 2.795 7.234 5.551l50.673 87.768c1.591 2.756 2.014 5.967 1.19 9.041s-2.795 5.643-5.551 7.234c-1.835 1.059-3.873 1.601-5.938 1.601zm-50.704-107.605c-1.372 0-2.725.359-3.944 1.063-1.831 1.057-3.14 2.764-3.688 4.806-.547 2.042-.266 4.175.791 6.005l50.673 87.768c1.057 1.831 2.764 3.141 4.806 3.688s4.174.267 6.005-.791c1.831-1.057 3.14-2.764 3.688-4.806.547-2.042.266-4.175-.791-6.005l-50.673-87.768c-1.057-1.831-2.764-3.141-4.806-3.688-.682-.181-1.374-.272-2.061-.272z" fill="#3762cc"/></g><g><path d="m93.934 35.38 11.299 6.524c4.783 2.761 10.899 1.123 13.66-3.66l3.77-6.529c2.761-4.783 1.123-10.899-3.66-13.66l-11.299-6.524c-4.783-2.761-10.899-1.123-13.66 3.66l-3.77 6.529c-2.761 4.783-1.123 10.898 3.66 13.66z" fill="#f9a7a7"/></g><g><path d="m110.213 45.241c-2.035 0-4.095-.517-5.98-1.605l-11.299-6.523c-2.776-1.603-4.761-4.19-5.591-7.286s-.404-6.33 1.199-9.106l3.77-6.53c3.308-5.73 10.661-7.7 16.392-4.392l11.299 6.524c2.776 1.603 4.761 4.19 5.591 7.286s.404 6.33-1.199 9.106l-3.77 6.529c-2.219 3.844-6.261 5.997-10.412 5.997zm-15.279-11.593 11.299 6.523c3.818 2.206 8.722.892 10.929-2.928l3.77-6.529c2.206-3.82.892-8.723-2.928-10.928l-11.299-6.524c-3.822-2.205-8.723-.892-10.928 2.928l-3.77 6.53c-2.207 3.82-.893 8.722 2.927 10.928z" fill="#3762cc"/></g><g><path d="m45.882 131.656c4.742 2.738 10.805 1.113 13.543-3.629l50.673-87.768c2.738-4.742 1.113-10.805-3.629-13.543-4.742-2.738-10.805-1.113-13.543 3.629l-50.673 87.768c-2.738 4.742-1.113 10.806 3.629 13.543z" fill="#e0ebfc"/></g><g><path d="m50.82 134.99c-2.065 0-4.102-.542-5.938-1.602-2.756-1.591-4.728-4.16-5.551-7.234-.824-3.074-.401-6.285 1.19-9.041l50.673-87.768c1.591-2.756 4.16-4.728 7.234-5.551 3.075-.824 6.285-.401 9.041 1.19s4.728 4.16 5.551 7.234c.824 3.074.401 6.285-1.19 9.041l-50.673 87.768c-1.591 2.756-4.16 4.728-7.234 5.551-1.027.276-2.069.412-3.103.412zm50.704-107.605c-.688 0-1.379.09-2.061.273-2.042.547-3.749 1.856-4.806 3.688l-50.673 87.768c-1.057 1.831-1.337 3.963-.791 6.005.547 2.042 1.857 3.749 3.688 4.806s3.964 1.338 6.005.791c2.042-.547 3.749-1.856 4.806-3.688l50.673-87.768c1.057-1.831 1.337-3.963.791-6.005-.547-2.042-1.857-3.749-3.688-4.806-1.218-.704-2.572-1.064-3.944-1.064z" fill="#3762cc"/></g></g></svg>