<svg id="Layer_1" enable-background="new 0 0 256 256" height="512" viewBox="0 0 256 256" width="512" xmlns="http://www.w3.org/2000/svg"><g><g><path d="m21.491 51.802c.162-3.946 3.409-7.062 7.358-7.062 5.617 0 159.012 0 156.72 0 3.95 0 7.196 3.116 7.358 7.062l7.742 188.531c.172 4.182-3.172 7.667-7.358 7.667-7.856 0-173.772 0-172.203 0-4.186 0-7.53-3.484-7.358-7.667z" fill="#a4c9ff"/></g><g><path d="m193.311 250h-172.215c-.003 0-.006 0-.009 0-2.567-.006-4.958-1.027-6.736-2.88-1.783-1.857-2.706-4.297-2.601-6.869l7.742-188.531c.207-5.036 4.317-8.98 9.356-8.98h156.746.021c5.019.024 9.104 3.96 9.31 8.98l7.742 188.531c.105 2.572-.818 5.012-2.601 6.869s-4.182 2.88-6.755 2.88zm-172.204-4h172.203c1.475 0 2.849-.586 3.87-1.649 1.021-1.064 1.55-2.462 1.49-3.936l-7.742-188.531c-.118-2.885-2.473-5.145-5.36-5.145h-156.719c-2.887 0-5.241 2.26-5.359 5.145l-7.742 188.531c-.061 1.474.468 2.871 1.489 3.935s2.396 1.65 3.87 1.65z" fill="#3762cc"/></g><g><path d="m68.446 80.966c3.264 0 5.911-2.646 5.911-5.911v-48.431c0-3.751 3.051-6.803 6.803-6.803h52.1c3.752 0 6.803 3.052 6.803 6.803v48.431c0 3.264 2.647 5.911 5.911 5.911s5.911-2.646 5.911-5.911v-48.431c-.003-10.269-8.357-18.624-18.626-18.624h-52.1c-10.269 0-18.624 8.355-18.624 18.624v48.431c0 3.264 2.647 5.911 5.911 5.911z" fill="#e0ebfc"/></g><g><path d="m145.972 82.966c-4.362 0-7.91-3.549-7.91-7.911v-48.431c0-2.648-2.154-4.803-4.803-4.803h-52.1c-2.648 0-4.803 2.154-4.803 4.803v48.431c0 4.362-3.549 7.911-7.911 7.911s-7.911-3.549-7.911-7.911v-48.431c.001-11.372 9.253-20.624 20.625-20.624h52.1c11.372 0 20.624 9.252 20.624 20.624v48.431c-.001 4.362-3.55 7.911-7.911 7.911zm-64.813-65.145h52.1c4.854 0 8.803 3.949 8.803 8.803v48.431c0 2.156 1.754 3.911 3.91 3.911s3.911-1.755 3.911-3.911v-48.431c0-9.167-7.458-16.624-16.624-16.624h-52.1c-9.167 0-16.624 7.457-16.624 16.624v48.431c0 2.156 1.754 3.911 3.911 3.911s3.911-1.755 3.911-3.911v-48.431c-.001-4.853 3.948-8.803 8.802-8.803z" fill="#3762cc"/></g><g><path d="m242.257 146.37c0 3.457-8.885 5.998-9.531 9.265-.666 3.367 6.559 9.106 5.274 12.203-1.307 3.152-10.486 2.094-12.361 4.895-1.89 2.823 2.585 10.9.192 13.293s-10.47-2.082-13.293-.192c-2.801 1.875-1.743 11.055-4.895 12.361-3.098 1.284-8.836-5.94-12.203-5.274-3.267.646-5.808 9.531-9.265 9.531s-5.998-8.885-9.265-9.531c-3.367-.666-9.106 6.559-12.203 5.274-3.152-1.307-2.094-10.486-4.895-12.361-2.823-1.89-10.9 2.585-13.293.192s2.082-10.47.192-13.293c-1.875-2.801-11.055-1.743-12.361-4.895-1.284-3.098 5.94-8.836 5.274-12.203-.646-3.267-9.531-5.808-9.531-9.265s8.885-5.998 9.531-9.265c.666-3.367-6.559-9.106-5.274-12.203 1.307-3.152 10.486-2.094 12.361-4.895 1.89-2.823-2.585-10.9-.192-13.293s10.47 2.082 13.293.192c2.801-1.875 1.743-11.055 4.895-12.361 3.098-1.284 8.836 5.94 12.203 5.274 3.267-.646 5.808-9.531 9.265-9.531s5.998 8.885 9.265 9.531c3.367.666 9.106-6.559 12.203-5.274 3.152 1.307 2.094 10.486 4.895 12.361 2.823 1.89 10.9-2.585 13.293-.192s-2.082 10.47-.192 13.293c1.875 2.801 11.055 1.743 12.361 4.895 1.284 3.098-5.94 8.836-5.274 12.203.646 3.267 9.531 5.808 9.531 9.265z" fill="#f9a7a7"/></g><g><path d="m178.575 132.051c0 4.875-1.072 8.499-3.216 10.873s-5.08 3.561-8.805 3.561c-2.298 0-4.359-.504-6.183-1.512-1.825-1.008-3.248-2.584-4.268-4.728-1.021-2.144-1.532-4.76-1.532-7.848 0-3.318.396-6.087 1.187-8.308s2.073-3.905 3.847-5.054 4.04-1.723 6.796-1.723c1.991 0 3.739.306 5.245.919 1.505.613 2.781 1.551 3.828 2.814 1.046 1.263 1.824 2.801 2.335 4.613s.766 3.943.766 6.393zm-7.159-.383c0-3.343-.358-5.775-1.072-7.293s-1.978-2.278-3.79-2.278c-1.225 0-2.202.364-2.929 1.091s-1.225 1.799-1.493 3.216-.402 3.223-.402 5.417c0 2.272.134 4.122.402 5.551.268 1.43.759 2.508 1.474 3.235.714.727 1.697 1.091 2.948 1.091 1.888 0 3.171-.804 3.847-2.412.676-1.607 1.015-4.146 1.015-7.618zm32.696-9.303-31.892 51.417c-.817 1.403-1.736 2.106-2.757 2.106-.588 0-1.175-.224-1.761-.67-.588-.447-.881-1.028-.881-1.742 0-.536.255-1.187.765-1.953l32.084-51.839c.561-.944 1.052-1.652 1.473-2.125.422-.472 1.028-.708 1.819-.708.766 0 1.384.224 1.857.67.472.447.708 1.04.708 1.78.001.537-.472 1.558-1.415 3.064zm13.667 37.366c0 4.875-1.072 8.499-3.216 10.873s-5.08 3.561-8.805 3.561c-2.323 0-4.397-.51-6.222-1.531s-3.254-2.59-4.288-4.709c-1.034-2.118-1.55-4.734-1.55-7.849 0-4.977.95-8.722 2.852-11.237 1.901-2.514 4.92-3.771 9.055-3.771 1.991 0 3.733.306 5.226.919s2.769 1.531 3.828 2.757c1.059 1.225 1.844 2.751 2.355 4.575.51 1.825.765 3.962.765 6.412zm-7.159-.382c0-3.293-.358-5.698-1.072-7.217-.715-1.518-1.978-2.278-3.79-2.278-1.277 0-2.272.358-2.987 1.072-.715.715-1.219 1.768-1.512 3.159-.294 1.391-.44 3.197-.44 5.417 0 3.421.363 5.922 1.091 7.504.727 1.583 2.01 2.374 3.848 2.374 1.863 0 3.139-.81 3.828-2.431.69-1.621 1.034-4.155 1.034-7.6z" fill="#ffea92"/></g><g><path d="m186.175 204.452c-2.906 0-4.785-2.937-6.601-5.777-.816-1.275-2.334-3.649-3.053-3.792-.795-.149-3.08 1.439-4.446 2.391-2.716 1.894-5.524 3.853-8.135 2.77-2.654-1.101-3.258-4.509-3.842-7.806-.268-1.509-.765-4.317-1.399-4.741-.653-.438-3.351.156-4.964.511-3.253.712-6.616 1.448-8.631-.566-2.016-2.016-1.278-5.379-.566-8.631.354-1.613.945-4.313.51-4.964-.424-.634-3.233-1.132-4.743-1.399-3.296-.585-6.704-1.188-7.804-3.843-1.083-2.612.875-5.42 2.769-8.135.953-1.366 2.548-3.653 2.391-4.446-.142-.718-2.517-2.236-3.792-3.052-2.84-1.816-5.777-3.694-5.777-6.601s2.937-4.784 5.776-6.601c1.276-.815 3.651-2.335 3.793-3.053.157-.793-1.438-3.079-2.391-4.445-1.894-2.716-3.853-5.523-2.77-8.137 1.101-2.653 4.509-3.258 7.805-3.842 1.509-.268 4.317-.766 4.742-1.399.435-.649-.157-3.351-.51-4.964-.713-3.252-1.45-6.615.566-8.631 2.014-2.016 5.377-1.277 8.63-.565 1.614.354 4.315.946 4.964.51.634-.424 1.132-3.232 1.399-4.741.584-3.297 1.188-6.705 3.842-7.806 2.614-1.08 5.42.876 8.135 2.77 1.367.952 3.65 2.543 4.446 2.391.718-.143 2.237-2.517 3.053-3.792 1.816-2.841 3.694-5.777 6.601-5.777s4.784 2.937 6.6 5.776c.816 1.276 2.334 3.65 3.053 3.793.797.157 3.08-1.438 4.446-2.391 2.715-1.894 5.522-3.854 8.135-2.77 2.654 1.101 3.258 4.509 3.842 7.806.268 1.509.765 4.317 1.399 4.741.65.437 3.351-.156 4.965-.51 3.253-.712 6.615-1.448 8.63.566 2.016 2.015 1.279 5.378.566 8.63-.354 1.613-.945 4.314-.51 4.965.424.634 3.233 1.131 4.742 1.398 3.296.584 6.704 1.188 7.805 3.842 1.083 2.613-.875 5.421-2.769 8.137-.953 1.366-2.547 3.652-2.391 4.445.142.718 2.517 2.237 3.793 3.053 2.84 1.816 5.776 3.694 5.776 6.601s-2.937 4.784-5.777 6.601c-1.275.815-3.65 2.334-3.792 3.052-.157.793 1.438 3.08 2.391 4.446 1.894 2.715 3.852 5.522 2.769 8.135-1.101 2.654-4.509 3.259-7.805 3.843-1.509.268-4.317.766-4.742 1.399-.436.65.156 3.351.51 4.964.713 3.252 1.45 6.615-.566 8.631-2.015 2.015-5.378 1.277-8.631.566-1.614-.354-4.314-.946-4.963-.511-.634.425-1.132 3.233-1.399 4.742-.584 3.296-1.188 6.704-3.842 7.805-2.612 1.084-5.42-.874-8.136-2.77-1.366-.953-3.654-2.542-4.445-2.391-.719.143-2.237 2.517-3.053 3.793-1.815 2.84-3.693 5.776-6.599 5.776zm-9.719-13.574c.282 0 .563.025.842.081 2.392.474 3.973 2.944 5.646 5.562.752 1.177 2.515 3.932 3.231 3.932s2.478-2.755 3.23-3.932c1.673-2.616 3.254-5.088 5.646-5.562 2.462-.494 5.028 1.303 7.51 3.034 1.265.883 3.608 2.529 4.324 2.352.633-.329 1.169-3.352 1.427-4.805.546-3.083 1.063-5.995 3.112-7.368 2.066-1.385 4.97-.747 8.045-.072 1.421.312 4.379.96 4.949.51.444-.564-.205-3.522-.516-4.943-.674-3.075-1.31-5.979.074-8.046 1.372-2.05 4.284-2.565 7.367-3.112 1.454-.258 4.478-.793 4.809-1.438.169-.693-1.473-3.048-2.355-4.313-1.731-2.481-3.521-5.048-3.034-7.51.473-2.394 2.945-3.974 5.562-5.646 1.177-.753 3.932-2.515 3.932-3.23 0-.717-2.755-2.479-3.932-3.23-2.617-1.674-5.088-3.254-5.562-5.647-.487-2.461 1.303-5.027 3.034-7.509.883-1.266 2.525-3.621 2.352-4.325-.328-.633-3.352-1.169-4.805-1.427-3.083-.546-5.995-1.063-7.367-3.111-1.384-2.067-.747-4.972-.073-8.047.312-1.421.959-4.378.51-4.948-.563-.443-3.521.204-4.943.516-3.075.674-5.979 1.31-8.046-.073-2.05-1.372-2.566-4.284-3.112-7.368-.258-1.453-.793-4.477-1.438-4.809-.696-.152-3.048 1.474-4.313 2.355-2.482 1.73-5.042 3.523-7.51 3.034-2.393-.474-3.973-2.945-5.646-5.562-.752-1.177-2.514-3.932-3.23-3.932s-2.479 2.755-3.231 3.932c-1.673 2.617-3.254 5.088-5.646 5.562-2.462.487-5.029-1.303-7.51-3.034-1.265-.882-3.609-2.538-4.324-2.352-.633.328-1.169 3.352-1.427 4.805-.546 3.084-1.063 5.996-3.113 7.368-2.066 1.383-4.971.745-8.045.073-1.421-.312-4.378-.962-4.949-.51-.443.563.205 3.521.517 4.942.674 3.075 1.31 5.979-.073 8.046-1.373 2.05-4.285 2.566-7.368 3.112-1.453.258-4.477.794-4.809 1.438-.169.693 1.473 3.049 2.356 4.314 1.73 2.481 3.521 5.048 3.034 7.509-.473 2.394-2.945 3.974-5.562 5.647-1.176.752-3.932 2.514-3.932 3.23s2.755 2.478 3.932 3.23c2.617 1.673 5.088 3.253 5.562 5.646.487 2.462-1.303 5.027-3.034 7.51-.882 1.265-2.525 3.62-2.352 4.324.329.633 3.352 1.169 4.804 1.427 3.083.547 5.996 1.063 7.369 3.113 1.383 2.065.747 4.97.073 8.045-.312 1.421-.959 4.379-.51 4.949.563.446 3.521-.204 4.943-.516 3.075-.675 5.978-1.312 8.045.072 2.05 1.372 2.566 4.284 3.113 7.368.258 1.453.793 4.477 1.438 4.809.694.155 3.048-1.474 4.313-2.355 2.198-1.534 4.464-3.115 6.666-3.115z" fill="#3762cc"/></g></g></svg>