<svg id="Layer_1" enable-background="new 0 0 256 256" height="512" viewBox="0 0 256 256" width="512" xmlns="http://www.w3.org/2000/svg"><g><g><path d="m107.767 23.667h28v39.333h-28z" fill="#e0ebfc"/></g><g><path d="m135.768 65h-28c-1.104 0-2-.896-2-2v-39.333c0-1.104.896-2 2-2h28c1.104 0 2 .896 2 2v39.333c0 1.104-.896 2-2 2zm-26-4h24v-35.333h-24z" fill="#3762cc"/></g><g><path d="m141.434 31.667h-39c-2.209 0-4-1.791-4-4v-12.667c0-2.209 1.791-4 4-4h39c2.209 0 4 1.791 4 4v12.667c0 2.209-1.791 4-4 4z" fill="#a4c9ff"/></g><g><path d="m141.434 33.667h-39c-3.309 0-6-2.691-6-6v-12.667c0-3.309 2.691-6 6-6h39c3.309 0 6 2.691 6 6v12.667c0 3.308-2.692 6-6 6zm-39-20.667c-1.103 0-2 .897-2 2v12.667c0 1.103.897 2 2 2h39c1.103 0 2-.897 2-2v-12.667c0-1.103-.897-2-2-2z" fill="#3762cc"/></g><g><circle cx="121.767" cy="125" fill="#a4c9ff" r="84.46"/></g><g><circle cx="121.767" cy="125" fill="#4671c6" r="67.98"/></g><g><path d="m121.768 211.46c-47.674 0-86.46-38.786-86.46-86.46s38.786-86.46 86.46-86.46 86.46 38.786 86.46 86.46-38.787 86.46-86.46 86.46zm0-168.92c-45.469 0-82.46 36.991-82.46 82.46s36.991 82.46 82.46 82.46 82.46-36.991 82.46-82.46-36.992-82.46-82.46-82.46z" fill="#3762cc"/></g><g><path d="m121.768 194.98c-38.587 0-69.98-31.393-69.98-69.98s31.393-69.98 69.98-69.98 69.979 31.393 69.979 69.98-31.392 69.98-69.979 69.98zm0-135.96c-36.381 0-65.98 29.599-65.98 65.98s29.599 65.98 65.98 65.98 65.979-29.599 65.979-65.98-29.599-65.98-65.979-65.98z" fill="#3762cc"/></g><g><path d="m183.235 234.667h-122.936c-13.653 0-24.721-11.068-24.721-24.721 0-13.653 11.068-24.721 24.721-24.721h122.936c13.653 0 24.721 11.068 24.721 24.721 0 13.653-11.068 24.721-24.721 24.721z" fill="#f9cfcf"/></g><g><path d="m121.881 91.02c-1.657 0-3-1.343-3-3v-14.995c0-1.657 1.343-3 3-3s3 1.343 3 3v14.995c0 1.656-1.343 3-3 3z" fill="#ffea92"/></g><g><path d="m95.862 101.818c-.768 0-1.536-.293-2.121-.879l-10.602-10.603c-1.172-1.171-1.172-3.071 0-4.242 1.171-1.172 3.071-1.172 4.242 0l10.603 10.603c1.172 1.171 1.172 3.071 0 4.242-.586.586-1.354.879-2.122.879z" fill="#ffea92"/></g><g><path d="m86.396 121.671h-14.994c-1.657 0-3-1.343-3-3s1.343-3 3-3h14.994c1.657 0 3 1.343 3 3s-1.343 3-3 3z" fill="#ffea92"/></g><g><path d="m147.37 101.818c-.768 0-1.535-.293-2.121-.879-1.172-1.171-1.172-3.071 0-4.242l10.603-10.603c1.172-1.172 3.07-1.172 4.242 0 1.172 1.171 1.172 3.071 0 4.242l-10.603 10.603c-.586.586-1.353.879-2.121.879z" fill="#ffea92"/></g><g><path d="m171.83 121.671h-14.994c-1.657 0-3-1.343-3-3s1.343-3 3-3h14.994c1.657 0 3 1.343 3 3s-1.343 3-3 3z" fill="#ffea92"/></g><g><path d="m80.367 209.861c-.924-.654-2.052-1.216-3.353-1.669-1.263-.44-2.693-.848-4.24-1.21-1.217-.307-2.089-.54-2.616-.699-.491-.149-.981-.356-1.457-.618-.436-.239-.777-.521-1.017-.84-.211-.281-.313-.613-.313-1.015 0-.659.339-1.221 1.035-1.721.756-.542 1.788-.816 3.068-.816 1.373 0 2.357.239 2.927.713.618.513 1.161 1.249 1.627 2.213.421.79.813 1.353 1.197 1.723.456.44 1.098.662 1.908.662.893 0 1.647-.343 2.243-1.017.574-.651.865-1.398.865-2.222 0-.822-.211-1.668-.627-2.513-.413-.837-1.064-1.639-1.937-2.384-.866-.74-1.965-1.34-3.264-1.782-1.288-.438-2.825-.66-4.567-.66-2.175 0-4.102.333-5.729.99-1.666.673-2.964 1.659-3.855 2.928-.897 1.277-1.352 2.754-1.352 4.39 0 1.715.435 3.179 1.294 4.354.84 1.15 1.987 2.067 3.407 2.728 1.36.632 3.062 1.189 5.061 1.657 1.437.329 2.596.643 3.446.932.771.263 1.404.643 1.88 1.129.43.44.639 1.011.639 1.742 0 .928-.415 1.689-1.268 2.325-.902.673-2.112 1.013-3.598 1.013-1.079 0-1.947-.166-2.581-.494-.631-.326-1.123-.74-1.462-1.23-.373-.54-.729-1.23-1.055-2.044-.322-.824-.726-1.465-1.203-1.907-.53-.488-1.18-.735-1.934-.735-.905 0-1.664.309-2.259.919-.59.606-.889 1.343-.889 2.19 0 1.278.427 2.599 1.269 3.927.83 1.308 1.924 2.369 3.256 3.154 1.847 1.074 4.205 1.619 7.008 1.619 2.333 0 4.389-.397 6.108-1.178 1.75-.795 3.103-1.918 4.021-3.338s1.383-3.041 1.383-4.817c0-1.48-.273-2.759-.81-3.801-.537-1.044-1.297-1.917-2.256-2.598z" fill="#f9a7a7"/></g><g><path d="m108.703 199.431c0-.876-.309-1.601-.919-2.154-.591-.535-1.46-.806-2.582-.806h-17.591c-1.067 0-1.912.261-2.512.775-.632.541-.951 1.276-.951 2.185 0 .877.306 1.599.908 2.144.584.529 1.444.797 2.555.797h5.37v19.177c0 1.298.32 2.304.949 2.987.645.699 1.484 1.054 2.494 1.054.997 0 1.827-.351 2.467-1.045.624-.677.94-1.685.94-2.996v-19.177h5.37c1.107 0 1.97-.266 2.566-.791.621-.545.936-1.269.936-2.15z" fill="#f9a7a7"/></g><g><path d="m124.945 201.598c-.337-.889-.616-1.599-.835-2.135-.236-.568-.529-1.108-.869-1.604-.374-.541-.868-.988-1.47-1.329-.615-.348-1.375-.525-2.258-.525-.871 0-1.625.176-2.24.525-.604.343-1.1.799-1.475 1.356-.344.513-.667 1.156-.961 1.908l-7.703 19.569c-.294.729-.505 1.299-.633 1.709-.144.462-.217.918-.217 1.355 0 .833.339 1.578 1.009 2.217.66.629 1.437.948 2.306.948 1.035 0 1.811-.331 2.305-.983.403-.534.859-1.495 1.396-2.937l1.142-3.068h10.181l1.147 3.012c.174.428.385.921.63 1.48.269.611.521 1.062.766 1.372.269.344.608.62 1.009.82.403.202.88.303 1.418.303.924 0 1.725-.332 2.383-.988.655-.656.987-1.4.987-2.214 0-.705-.291-1.745-.886-3.176zm-8.563 11.513 3.099-8.643 3.158 8.643z" fill="#f9a7a7"/></g><g><path d="m157.399 217.335c-.72-1.178-1.549-2.303-2.464-3.344-.544-.62-1.111-1.159-1.695-1.61 1.745-.556 3.118-1.357 4.092-2.391 1.264-1.34 1.905-3.137 1.905-5.341 0-1.074-.187-2.104-.556-3.063-.373-.968-.926-1.831-1.647-2.567-.719-.732-1.557-1.302-2.473-1.686-.766-.35-1.635-.585-2.584-.699-.904-.108-2.003-.163-3.266-.163h-8.999c-1.37 0-2.401.335-3.065.998-.66.664-.996 1.694-.996 3.062v21.019c0 1.264.299 2.256.886 2.947.613.726 1.475 1.094 2.559 1.094 1.01 0 1.845-.348 2.483-1.033.626-.672.943-1.684.943-3.008v-8.109h1.268c.891 0 1.629.115 2.192.343.545.221 1.105.651 1.661 1.278.592.669 1.284 1.675 2.059 2.994l2.218 3.689c.531.884.95 1.554 1.259 2.006.348.515.774.947 1.262 1.284.535.369 1.19.556 1.946.556.628 0 1.194-.129 1.683-.381.501-.257.903-.617 1.198-1.069.299-.463.452-.945.452-1.435 0-.282-.067-.814-.639-2.17-.404-.958-.97-2.034-1.682-3.201zm-14.875-15.372h4.437c2.245 0 3.175.194 3.564.358.562.235.989.579 1.304 1.049.312.471.465 1.005.465 1.633 0 .801-.187 1.422-.555 1.846-.385.445-.97.769-1.737.963-.848.215-1.921.324-3.189.324h-4.288v-6.173z" fill="#f9a7a7"/></g><g><path d="m182.226 197.277c-.591-.534-1.46-.806-2.582-.806h-17.591c-1.067 0-1.913.261-2.513.776-.63.542-.95 1.277-.95 2.184 0 .877.305 1.599.908 2.144.585.529 1.443.797 2.555.797h5.371v19.177c0 1.3.32 2.306.949 2.986.643.699 1.482 1.054 2.494 1.054.998 0 1.828-.352 2.468-1.045.624-.679.941-1.687.941-2.996v-19.177h5.369c1.107 0 1.97-.266 2.566-.791.622-.547.937-1.27.937-2.151-.002-.873-.311-1.597-.922-2.152z" fill="#f9a7a7"/></g><g><path d="m183.235 236.667h-122.936c-14.734 0-26.721-11.987-26.721-26.721s11.987-26.721 26.721-26.721h122.936c14.733 0 26.721 11.987 26.721 26.721s-11.987 26.721-26.721 26.721zm-122.936-49.442c-12.528 0-22.721 10.192-22.721 22.721s10.192 22.721 22.721 22.721h122.936c12.528 0 22.721-10.192 22.721-22.721s-10.192-22.721-22.721-22.721z" fill="#3762cc"/></g><g><path d="m149.282 125c.039-.596.065-1.196.065-1.802 0-15.22-12.382-27.602-27.602-27.602s-27.602 12.382-27.602 27.602c0 .606.027 1.205.065 1.802z" fill="#ffea92"/></g><g><circle cx="121.881" cy="125" fill="#f9a7a7" r="11.48"/></g><g><path d="m88.534 163.234c-1.28 0-2.559-.488-3.536-1.464-1.953-1.953-1.953-5.119 0-7.071l33.234-33.234c1.953-1.952 5.12-1.953 7.071 0 1.953 1.953 1.953 5.119 0 7.071l-33.234 33.234c-.976.976-2.256 1.464-3.535 1.464z" fill="#e0ebfc"/></g><g><path d="m209.262 216.067-20.755-5.49c-1.521-.402-2.91.987-2.508 2.508l5.49 20.755c.405 1.529 2.315 2.045 3.434.926l3.45-3.45 10.724 12.941c.771.931 2.176.996 3.03.142l2.578-2.578 2.539-2.539 2.578-2.578c.855-.855.789-2.259-.142-3.03l-12.941-10.724 3.45-3.45c1.118-1.118.602-3.028-.927-3.433z" fill="#e0ebfc"/></g><path d="m220.955 232.135-11.251-9.322 1.897-1.897c1.037-1.037 1.43-2.502 1.048-3.919s-1.457-2.487-2.876-2.863l-20.755-5.49c-1.417-.375-2.87.021-3.901 1.052-1.031 1.032-1.425 2.49-1.052 3.9l5.489 20.756c.376 1.418 1.446 2.493 2.863 2.875 1.419.381 2.883-.01 3.919-1.047l1.897-1.897 9.321 11.25c.726.876 1.794 1.41 2.931 1.463.063.003.126.004.188.004 1.071 0 2.106-.427 2.866-1.187l7.693-7.694c.805-.804 1.235-1.917 1.183-3.054-.052-1.136-.584-2.204-1.46-2.93zm-7.665 8.272-2.653 2.574-10.724-12.941c-.359-.434-.885-.696-1.446-.722-.031-.001-.063-.002-.094-.002-.529 0-1.038.21-1.414.586l-3.537 3.427-5.427-20.818c.186.049 20.658 5.462 20.842 5.517-.099.092-3.418 3.414-3.514 3.51-.398.398-.61.945-.584 1.507.026.563.288 1.087.722 1.447l12.945 10.8z" fill="#3762cc"/></g></svg>