<svg id="Layer_1" enable-background="new 0 0 256 256" height="512" viewBox="0 0 256 256" width="512" xmlns="http://www.w3.org/2000/svg"><g><g><path d="m248 128c0 7.397-19.011 12.833-20.394 19.825-1.425 7.204 14.034 19.483 11.285 26.111-2.796 6.744-22.437 4.48-26.45 10.474-4.044 6.04 5.532 23.322.411 28.443s-22.403-4.455-28.443-.411c-5.994 4.013-3.73 23.653-10.474 26.45-6.628 2.748-18.907-12.71-26.111-11.285-6.991 1.382-12.427 20.393-19.824 20.393s-12.833-19.011-19.825-20.394c-7.204-1.425-19.483 14.034-26.111 11.285-6.744-2.796-4.48-22.437-10.474-26.45-6.04-4.044-23.322 5.532-28.443.411s4.455-22.403.411-28.443c-4.013-5.994-23.653-3.73-26.45-10.474-2.748-6.628 12.71-18.907 11.285-26.111-1.382-6.991-20.393-12.427-20.393-19.824s19.011-12.833 20.394-19.825c1.425-7.204-14.034-19.483-11.285-26.111 2.796-6.744 22.437-4.48 26.45-10.474 4.044-6.04-5.532-23.322-.411-28.443s22.403 4.455 28.443.411c5.994-4.013 3.73-23.653 10.474-26.45 6.628-2.748 18.907 12.71 26.111 11.285 6.991-1.382 12.427-20.393 19.824-20.393s12.833 19.011 19.825 20.394c7.204 1.425 19.483-14.034 26.111-11.285 6.744 2.796 4.48 22.437 10.474 26.45 6.04 4.044 23.322-5.532 28.443-.411s-4.455 22.403-.411 28.443c4.013 5.994 23.653 3.73 26.45 10.474 2.748 6.628-12.71 18.907-11.285 26.111 1.382 6.991 20.393 12.427 20.393 19.824z" fill="#f9a7a7"/></g><g><path d="m128 250c-4.971 0-8.647-5.749-12.203-11.309-2.587-4.045-5.519-8.63-8.01-9.123-2.652-.528-7.222 2.667-11.258 5.482-5.551 3.871-10.797 7.527-15.231 5.689-4.525-1.876-5.707-8.544-6.85-14.993-.847-4.778-1.807-10.194-3.971-11.643-2.197-1.471-7.605-.287-12.377.759-6.653 1.458-12.938 2.834-16.368-.596-3.431-3.431-2.054-9.714-.596-16.367 1.046-4.771 2.231-10.18.759-12.377-1.448-2.164-6.864-3.124-11.643-3.971-6.448-1.143-13.116-2.325-14.992-6.85-1.839-4.437 1.817-9.68 5.689-15.231 2.815-4.036 6.005-8.611 5.482-11.258-.493-2.491-5.078-5.423-9.123-8.01-5.559-3.555-11.308-7.231-11.308-12.202s5.749-8.647 11.309-12.203c4.045-2.587 8.63-5.519 9.123-8.01.523-2.647-2.667-7.222-5.482-11.258-3.872-5.551-7.528-10.795-5.689-15.231 1.876-4.525 8.544-5.707 14.993-6.85 4.778-.847 10.194-1.807 11.643-3.971 1.471-2.197.286-7.605-.759-12.377-1.458-6.653-2.835-12.937.596-16.368 3.429-3.431 9.714-2.055 16.367-.596 4.772 1.046 10.18 2.232 12.377.759 2.164-1.448 3.124-6.864 3.971-11.643 1.143-6.448 2.325-13.116 6.85-14.992 4.437-1.838 9.68 1.817 15.231 5.689 4.036 2.815 8.613 6.005 11.258 5.482 2.491-.493 5.423-5.078 8.01-9.123 3.555-5.559 7.231-11.308 12.202-11.308s8.647 5.75 12.203 11.31c2.586 4.045 5.519 8.63 8.009 9.123 2.638.524 7.221-2.667 11.259-5.482 5.551-3.871 10.788-7.526 15.231-5.688 4.525 1.876 5.707 8.544 6.85 14.993.848 4.778 1.808 10.194 3.971 11.643 2.199 1.472 7.607.287 12.378-.759 6.653-1.458 12.938-2.834 16.367.596 3.431 3.431 2.054 9.715.596 16.367-1.046 4.772-2.23 10.18-.76 12.378 1.448 2.163 6.864 3.123 11.643 3.97 6.448 1.143 13.116 2.325 14.993 6.85 1.839 4.437-1.817 9.679-5.688 15.23-2.815 4.037-6.006 8.612-5.482 11.259.493 2.491 5.078 5.423 9.123 8.01 5.558 3.553 11.307 7.229 11.307 12.2s-5.749 8.647-11.309 12.203c-4.045 2.587-8.63 5.519-9.123 8.01-.523 2.647 2.667 7.222 5.482 11.259 3.871 5.551 7.527 10.794 5.688 15.23-1.877 4.525-8.545 5.707-14.993 6.85-4.778.847-10.194 1.807-11.643 3.971-1.472 2.198-.286 7.606.759 12.377 1.458 6.653 2.835 12.937-.596 16.367-3.432 3.432-9.716 2.053-16.367.596-4.771-1.046-10.179-2.232-12.378-.759-2.163 1.448-3.123 6.864-3.971 11.643-1.143 6.448-2.324 13.115-6.85 14.992-4.433 1.839-9.68-1.818-15.23-5.688-4.037-2.815-8.606-6.004-11.259-5.482-2.491.493-5.423 5.078-8.01 9.123-3.554 5.559-7.229 11.308-12.2 11.308zm-20.826-24.489c.469 0 .932.043 1.39.133 4.165.824 7.292 5.714 10.604 10.892 2.837 4.436 6.052 9.464 8.833 9.464 2.78 0 5.995-5.028 8.832-9.464 3.312-5.178 6.438-10.068 10.604-10.892 4.311-.851 9.176 2.536 14.322 6.125 4.218 2.942 9.008 6.275 11.41 5.274 2.501-1.037 3.533-6.858 4.443-11.995 1.083-6.105 2.104-11.873 5.685-14.269 3.615-2.42 9.368-1.158 15.459.176 5.063 1.109 10.799 2.366 12.683.483 1.884-1.884.626-7.621-.483-12.683-1.335-6.092-2.596-11.845-.176-15.459 2.396-3.579 8.163-4.601 14.269-5.684 5.137-.911 10.959-1.942 11.996-4.443 1.001-2.413-2.333-7.193-5.274-11.41-3.589-5.146-6.979-10.007-6.125-14.323.824-4.165 5.714-7.292 10.892-10.604 4.436-2.837 9.464-6.052 9.464-8.833s-5.028-5.996-9.464-8.833c-5.178-3.311-10.067-6.438-10.892-10.604-.854-4.316 2.536-9.177 6.125-14.323 2.941-4.217 6.275-8.997 5.274-11.41-1.037-2.501-6.859-3.533-11.996-4.443-6.105-1.083-11.872-2.104-14.269-5.684-2.419-3.614-1.158-9.368.177-15.459 1.109-5.062 2.366-10.799.483-12.683-1.885-1.884-7.621-.626-12.684.483-6.091 1.334-11.844 2.595-15.458.176-3.58-2.396-4.602-8.163-5.685-14.269-.91-5.137-1.942-10.958-4.443-11.996-2.412-1.001-7.193 2.333-11.411 5.274-5.146 3.589-10.011 6.979-14.322 6.125-4.166-.824-7.293-5.714-10.604-10.892-2.837-4.433-6.052-9.461-8.833-9.461s-5.996 5.028-8.833 9.464c-3.311 5.178-6.438 10.068-10.604 10.892-4.315.853-9.177-2.536-14.323-6.125-4.217-2.941-8.991-6.278-11.41-5.274-2.501 1.037-3.533 6.858-4.443 11.995-1.083 6.105-2.104 11.872-5.684 14.269-3.614 2.419-9.368 1.158-15.459-.176-5.061-1.109-10.797-2.367-12.683-.483-1.884 1.884-.626 7.621.483 12.683 1.335 6.091 2.596 11.845.176 15.459-2.396 3.579-8.163 4.601-14.269 5.684-5.136.911-10.958 1.942-11.995 4.443-1.001 2.413 2.333 7.193 5.274 11.411 3.589 5.146 6.979 10.006 6.125 14.322-.824 4.165-5.714 7.292-10.892 10.604-4.435 2.836-9.463 6.051-9.463 8.832s5.028 5.996 9.464 8.833c5.178 3.311 10.068 6.438 10.892 10.604.854 4.316-2.536 9.177-6.125 14.323-2.941 4.217-6.275 8.997-5.274 11.41 1.037 2.501 6.858 3.533 11.995 4.443 6.105 1.083 11.872 2.104 14.269 5.684 2.419 3.614 1.159 9.368-.176 15.459-1.109 5.062-2.366 10.799-.483 12.683s7.621.626 12.683-.483c6.091-1.335 11.845-2.596 15.459-.176 3.579 2.396 4.601 8.163 5.684 14.269.911 5.136 1.942 10.958 4.443 11.995 2.41 1.002 7.193-2.333 11.411-5.274 4.6-3.209 8.973-6.259 12.932-6.259z" fill="#3762cc"/></g><g><path d="m55.398 119.686c-1.476 0-2.573-.227-3.353-.693-.804-.48-1.336-1.168-1.582-2.045-.227-.805-.337-1.808-.337-3.066v-27.285c0-1.754.417-3.06 1.238-3.881.822-.821 2.127-1.238 3.881-1.238h9.823c2.584 0 4.838.245 6.699.727 1.895.492 3.637 1.424 5.178 2.773 3.971 3.4 5.982 8.615 5.982 15.503 0 2.257-.2 4.35-.595 6.22-.397 1.883-1.02 3.607-1.853 5.125-.833 1.52-1.917 2.899-3.222 4.099-1.032.928-2.179 1.684-3.404 2.245-1.219.557-2.547.955-3.948 1.181-1.38.223-2.958.336-4.687.336h-9.82zm3.267-6.991h5.212c1.234 0 2.209-.033 2.896-.099.667-.063 1.37-.225 2.088-.48.695-.247 1.307-.599 1.816-1.046 2.395-2.025 3.612-5.607 3.612-10.64 0-3.562-.535-6.25-1.59-7.989-1.051-1.735-2.3-2.805-3.817-3.271-1.568-.482-3.5-.727-5.742-.727h-4.475z" fill="#e0ebfc"/></g><g><path d="m105.576 120.32c-2.962 0-5.656-.486-8.006-1.446-2.361-.963-4.361-2.343-5.944-4.1-1.579-1.753-2.788-3.889-3.592-6.347-.801-2.439-1.207-5.113-1.207-7.947 0-2.9.423-5.602 1.259-8.03.84-2.442 2.075-4.552 3.672-6.27 1.601-1.722 3.576-3.058 5.868-3.969 2.283-.908 4.907-1.368 7.798-1.368 3.927 0 7.353.812 10.183 2.413 2.841 1.607 5.023 3.925 6.484 6.89 1.448 2.94 2.183 6.435 2.183 10.386 0 2.919-.401 5.61-1.192 8-.796 2.408-2.01 4.525-3.605 6.294-1.6 1.774-3.592 3.15-5.92 4.088-2.319.933-5.003 1.406-7.981 1.406zm-.152-32.487c-1.429 0-2.765.271-3.972.807-1.202.534-2.252 1.321-3.121 2.341-.875 1.026-1.577 2.364-2.088 3.977-.515 1.625-.775 3.482-.775 5.521 0 2.056.261 3.936.777 5.587.509 1.635 1.236 3.005 2.159 4.074.92 1.063 1.988 1.869 3.175 2.395 1.19.527 2.518.795 3.948.795 1.828 0 3.53-.463 5.06-1.376 1.521-.908 2.753-2.338 3.663-4.251.919-1.939 1.385-4.369 1.385-7.222 0-2.643-.43-4.958-1.277-6.88-.835-1.894-2.039-3.343-3.578-4.308-1.544-.969-3.346-1.46-5.356-1.46z" fill="#e0ebfc"/></g><g><path d="m157.402 120.32c-.73 0-1.402-.108-1.996-.321-.6-.215-1.167-.56-1.687-1.024-.499-.445-.968-.972-1.394-1.566-.409-.57-.817-1.152-1.224-1.748l-13.225-20.275v20.12c0 1.543-.377 2.74-1.12 3.56-.756.833-1.734 1.255-2.908 1.255-1.211 0-2.2-.429-2.94-1.275-.722-.827-1.087-2.018-1.087-3.54v-28.706c0-1.294.144-2.292.44-3.05.362-.856.967-1.568 1.793-2.104.823-.533 1.726-.803 2.683-.803.744 0 1.398.126 1.945.375.535.244 1.014.579 1.42.994.384.394.781.907 1.181 1.525.38.595.774 1.213 1.182 1.857l13.569 20.532v-20.468c0-1.554.353-2.752 1.047-3.562.713-.832 1.682-1.253 2.879-1.253 1.229 0 2.218.421 2.94 1.25.705.81 1.063 2.009 1.063 3.564v29.264c.001 4.462-2.48 5.399-4.561 5.399z" fill="#e0ebfc"/></g><g><path d="m171.692 97.071c-.65 0-1.216-.222-1.636-.642-.42-.419-.642-.958-.642-1.559 0-.948.454-1.681 1.313-2.12.821-.481 1.485-1.029 1.946-1.596.236-.293.421-.643.549-1.041l.175-.542-.56-.104c-.804-.149-1.552-.565-2.224-1.238-.863-.862-1.301-1.898-1.301-3.081 0-1.222.441-2.258 1.312-3.079.862-.815 1.938-1.229 3.198-1.229.873 0 1.7.254 2.459.756.754.5 1.345 1.231 1.755 2.171.398.915.601 2.037.601 3.335 0 1.744-.376 3.401-1.117 4.926-.738 1.521-1.656 2.746-2.729 3.643-1.126.943-2.14 1.4-3.099 1.4z" fill="#e0ebfc"/></g><g><path d="m198.189 120.32c-1.259 0-2.3-.438-3.096-1.303-.787-.854-1.187-2.128-1.187-3.791v-26.53h-7.723c-1.408 0-2.486-.33-3.203-.979-.732-.662-1.104-1.542-1.104-2.617 0-1.114.388-2.01 1.151-2.664.741-.636 1.803-.958 3.155-.958h23.959c1.425 0 2.515.334 3.241.993.741.672 1.117 1.557 1.117 2.629 0 1.076-.382 1.958-1.135 2.621-.733.647-1.818.975-3.224.975h-7.723v26.53c0 1.679-.396 2.958-1.174 3.803-.786.857-1.814 1.291-3.054 1.291z" fill="#e0ebfc"/></g><g><path d="m93.471 182.695c-1.142 0-2.095-.414-2.834-1.23-.725-.802-1.092-1.991-1.092-3.534v-17.612l-.985-.122-3.995 15.877c-.399 1.577-.714 2.698-.964 3.428-.272.798-.775 1.53-1.497 2.177-.752.674-1.787 1.016-3.075 1.016-.97 0-1.811-.218-2.499-.647-.677-.423-1.212-.973-1.59-1.635-.358-.628-.643-1.33-.847-2.085-.195-.719-.394-1.469-.599-2.249l-3.995-15.881-.985.122v17.611c0 1.541-.363 2.729-1.079 3.531-.729.818-1.705 1.233-2.898 1.233-1.157 0-2.118-.409-2.855-1.216-.727-.793-1.096-1.987-1.096-3.548v-29.441c0-1.794.501-3.04 1.49-3.702.926-.621 2.172-.935 3.705-.935h2.335c1.482 0 2.543.136 3.244.417.754.302 1.318.849 1.677 1.625.319.693.67 1.774 1.071 3.307l4.921 18.557 4.923-18.558c.401-1.532.751-2.612 1.07-3.305.357-.776.921-1.323 1.676-1.625.701-.28 1.763-.417 3.245-.417h2.334c1.531 0 2.778.314 3.706.935.989.663 1.491 1.909 1.491 3.702v29.441c0 1.542-.363 2.731-1.08 3.532-.73.816-1.713 1.231-2.923 1.231z" fill="#e0ebfc"/></g><g><path d="m108.749 182.695c-1.225 0-2.25-.443-3.047-1.318-.785-.862-1.183-2.133-1.183-3.776v-29.314c0-1.644.394-2.91 1.17-3.763.79-.867 1.819-1.306 3.06-1.306 1.272 0 2.321.434 3.12 1.289.788.845 1.188 2.117 1.188 3.78v29.314c0 1.663-.399 2.939-1.187 3.791-.797.865-1.848 1.303-3.121 1.303z" fill="#e0ebfc"/></g><g><path d="m134.484 182.695c-3.744 0-6.886-.723-9.337-2.149-1.753-1.034-3.199-2.435-4.295-4.162-1.104-1.739-1.665-3.464-1.665-5.128 0-1.044.368-1.951 1.094-2.696.729-.749 1.666-1.128 2.782-1.128.92 0 1.713.301 2.357.894.603.557 1.12 1.38 1.535 2.445.458 1.144.955 2.107 1.48 2.867.5.723 1.22 1.331 2.141 1.807.922.477 2.168.718 3.705.718 2.113 0 3.844-.492 5.146-1.462 1.256-.936 1.893-2.112 1.893-3.495 0-1.109-.323-1.979-.987-2.658-.695-.71-1.611-1.262-2.723-1.64-1.173-.399-2.766-.83-4.734-1.28-2.695-.631-4.988-1.381-6.813-2.23-1.873-.87-3.38-2.076-4.482-3.584-1.117-1.526-1.683-3.44-1.683-5.688 0-2.141.594-4.074 1.766-5.744 1.169-1.664 2.875-2.957 5.071-3.844 2.165-.875 4.738-1.318 7.648-1.318 2.327 0 4.375.295 6.087.877 1.72.585 3.171 1.376 4.313 2.352 1.147.981 2.001 2.029 2.534 3.117.54 1.097.813 2.188.813 3.241 0 1.02-.362 1.947-1.077 2.755-.729.828-1.653 1.248-2.748 1.248-.993 0-1.771-.265-2.313-.787-.491-.472-.999-1.206-1.554-2.245-.646-1.338-1.428-2.4-2.314-3.137-.852-.707-2.281-1.065-4.249-1.065-1.83 0-3.316.4-4.417 1.188-1.049.752-1.581 1.652-1.581 2.677 0 .639.167 1.172.509 1.629.361.481.871.904 1.515 1.258.677.371 1.371.665 2.062.874.722.218 1.928.541 3.583.958 2.099.491 4.027 1.042 5.74 1.637 1.736.606 3.238 1.354 4.464 2.222 1.254.89 2.245 2.03 2.946 3.389.702 1.359 1.059 3.038 1.059 4.988 0 2.338-.611 4.471-1.818 6.337-1.206 1.867-2.989 3.346-5.302 4.397-2.288 1.037-5.031 1.565-8.151 1.565z" fill="#e0ebfc"/></g><g><path d="m169.155 182.695c-3.745 0-6.887-.723-9.339-2.149-1.752-1.034-3.198-2.435-4.295-4.162-1.104-1.74-1.663-3.465-1.663-5.128 0-1.044.367-1.951 1.093-2.696.729-.749 1.666-1.128 2.783-1.128.92 0 1.713.301 2.356.894.611.564 1.113 1.365 1.535 2.445.457 1.143.954 2.106 1.481 2.867.498.722 1.218 1.331 2.14 1.808.923.477 2.169.718 3.705.718 2.112 0 3.844-.492 5.146-1.462 1.256-.936 1.893-2.112 1.893-3.495 0-1.109-.323-1.979-.987-2.658-.693-.709-1.609-1.261-2.723-1.64-1.173-.399-2.766-.83-4.734-1.28-2.691-.63-4.984-1.38-6.813-2.23-1.872-.87-3.38-2.076-4.482-3.584-1.116-1.527-1.682-3.441-1.682-5.688 0-2.141.594-4.074 1.766-5.744 1.167-1.663 2.873-2.956 5.069-3.844 2.165-.875 4.739-1.318 7.649-1.318 2.328 0 4.376.295 6.087.877 1.722.586 3.173 1.377 4.314 2.352 1.146.979 1.998 2.027 2.535 3.116.538 1.097.812 2.188.812 3.241 0 1.02-.362 1.947-1.077 2.755-.729.828-1.653 1.248-2.747 1.248-.994 0-1.772-.265-2.314-.787-.489-.471-.997-1.204-1.553-2.244-.646-1.339-1.429-2.401-2.315-3.138-.851-.707-2.28-1.065-4.249-1.065-1.83 0-3.316.4-4.417 1.188-1.049.752-1.581 1.652-1.581 2.677 0 .639.167 1.172.511 1.629.359.48.869.904 1.515 1.257.678.372 1.371.666 2.062.874.712.216 1.917.539 3.582.959 2.104.492 4.033 1.042 5.74 1.637 1.736.605 3.238 1.353 4.464 2.221 1.255.891 2.246 2.032 2.947 3.39.702 1.359 1.059 3.037 1.059 4.988 0 2.338-.612 4.47-1.819 6.337-1.206 1.867-2.989 3.346-5.302 4.397-2.29 1.037-5.033 1.565-8.152 1.565z" fill="#e0ebfc"/></g><g><path d="m194.789 170.614c-1.105 0-1.921-.5-2.357-1.445-.383-.83-.646-2.033-.805-3.677l-.814-12.172c-.151-2.359-.229-4.087-.229-5.135 0-1.53.417-2.75 1.238-3.628.831-.889 1.932-1.339 3.271-1.339 2.062 0 2.97.974 3.368 1.791.529 1.086.786 2.582.786 4.572 0 1.125-.061 2.287-.18 3.452l-1.091 12.504c-.124 1.566-.39 2.744-.811 3.604-.469.963-1.291 1.473-2.376 1.473z" fill="#e0ebfc"/></g><g><path d="m194.941 182.644c-1.151 0-2.171-.378-3.03-1.125-.881-.763-1.327-1.833-1.327-3.182 0-1.182.421-2.202 1.25-3.031.831-.83 1.859-1.25 3.057-1.25 1.195 0 2.23.419 3.077 1.247.85.83 1.28 1.852 1.28 3.035 0 1.328-.44 2.393-1.309 3.166-.853.756-1.862 1.14-2.998 1.14z" fill="#e0ebfc"/></g><g><path d="m65.221 121.686h-9.822c-1.848 0-3.28-.319-4.379-.976-1.241-.741-2.099-1.855-2.481-3.223-.276-.982-.411-2.163-.411-3.606v-27.284c0-2.304.614-4.085 1.824-5.295 1.211-1.21 2.992-1.824 5.295-1.824h9.823c2.752 0 5.175.266 7.2.791 2.201.571 4.217 1.649 5.994 3.204 4.417 3.781 6.665 9.509 6.665 17.008 0 2.396-.214 4.627-.638 6.633-.438 2.075-1.129 3.984-2.056 5.673-.938 1.711-2.157 3.262-3.622 4.609-1.201 1.08-2.516 1.946-3.926 2.591-1.384.632-2.885 1.082-4.461 1.336-1.485.241-3.169.363-5.005.363zm-9.975-38.208c-1.17 0-2.046.232-2.467.652-.42.42-.652 1.296-.652 2.467v27.284c0 1.057.088 1.906.262 2.525.108.385.318.652.682.87.313.187.97.41 2.327.41h9.822c1.623 0 3.092-.104 4.368-.311 1.223-.197 2.379-.542 3.436-1.025 1.04-.476 2.015-1.12 2.898-1.913 1.127-1.037 2.077-2.244 2.805-3.573.738-1.345 1.293-2.885 1.649-4.576.366-1.735.552-3.689.552-5.808 0-6.277-1.777-10.982-5.283-13.984-1.32-1.155-2.789-1.943-4.38-2.356-1.697-.439-3.782-.663-6.196-.663h-9.823zm8.631 31.217h-5.212c-1.104 0-2-.896-2-2v-24.253c0-1.104.896-2 2-2h4.475c2.44 0 4.57.274 6.329.815 2.009.618 3.625 1.974 4.94 4.147 1.247 2.056 1.88 5.092 1.88 9.025 0 5.649-1.454 9.742-4.32 12.167-.673.591-1.503 1.072-2.438 1.404-.872.31-1.736.508-2.568.587-.748.072-1.786.108-3.086.108zm-3.212-4h3.212c1.173 0 2.083-.03 2.705-.09.505-.048 1.046-.174 1.608-.374.457-.162.849-.386 1.168-.666 1.954-1.653 2.931-4.719 2.931-9.137 0-3.975-.707-5.974-1.3-6.952-.796-1.315-1.653-2.077-2.695-2.397-1.378-.423-3.112-.638-5.154-.638h-2.475z" fill="#3762cc"/></g><g><path d="m105.576 122.32c-3.223 0-6.171-.536-8.762-1.594-2.642-1.078-4.887-2.63-6.674-4.613-1.768-1.962-3.115-4.339-4.007-7.063-.866-2.639-1.306-5.522-1.306-8.569 0-3.123.46-6.043 1.368-8.681.931-2.708 2.31-5.057 4.098-6.98 1.805-1.941 4.023-3.443 6.594-4.466 2.52-1.002 5.392-1.51 8.537-1.51 4.276 0 8.034.899 11.167 2.672 3.197 1.809 5.651 4.415 7.293 7.746 1.585 3.218 2.389 7.01 2.389 11.27 0 3.132-.435 6.035-1.294 8.628-.883 2.671-2.236 5.029-4.019 7.005-1.805 2.002-4.045 3.551-6.658 4.604-2.554 1.029-5.49 1.551-8.726 1.551zm-.152-39.477c-2.637 0-5.012.413-7.059 1.227-2.015.801-3.745 1.97-5.142 3.473-1.405 1.512-2.497 3.381-3.246 5.558-.763 2.218-1.15 4.701-1.15 7.38 0 2.622.373 5.086 1.107 7.323.717 2.193 1.786 4.087 3.178 5.632 1.38 1.531 3.134 2.738 5.213 3.586 2.109.861 4.549 1.298 7.251 1.298 2.721 0 5.154-.424 7.231-1.262 2.044-.824 3.788-2.026 5.183-3.573 1.41-1.563 2.483-3.441 3.192-5.583.724-2.188 1.091-4.667 1.091-7.372 0-3.642-.665-6.839-1.977-9.502-1.28-2.597-3.19-4.626-5.675-6.033-2.525-1.428-5.62-2.152-9.197-2.152zm.102 32.487c-1.71 0-3.311-.325-4.758-.966-1.458-.646-2.762-1.626-3.877-2.915-1.105-1.278-1.964-2.889-2.556-4.788-.575-1.842-.867-3.922-.867-6.182 0-2.244.292-4.305.869-6.125.592-1.868 1.423-3.44 2.473-4.67 1.063-1.249 2.353-2.216 3.831-2.872 1.464-.649 3.074-.979 4.784-.979 2.392 0 4.552.594 6.419 1.765 1.884 1.181 3.345 2.929 4.345 5.195.96 2.179 1.447 4.765 1.447 7.687 0 3.152-.531 5.871-1.578 8.079-1.083 2.278-2.579 3.998-4.445 5.112-1.845 1.101-3.893 1.659-6.087 1.659zm-.102-25.497c-1.147 0-2.211.214-3.161.635-.926.411-1.736 1.02-2.409 1.81-.701.823-1.274 1.927-1.704 3.284-.453 1.429-.682 3.084-.682 4.918 0 1.854.231 3.534.686 4.991.427 1.372 1.021 2.503 1.763 3.362.725.838 1.557 1.468 2.471 1.873.934.414 1.99.624 3.138.624 1.462 0 2.819-.368 4.035-1.094 1.176-.702 2.146-1.843 2.882-3.393.79-1.667 1.191-3.808 1.191-6.363 0-2.363-.373-4.407-1.107-6.073-.671-1.521-1.616-2.672-2.81-3.42-1.219-.766-2.664-1.154-4.293-1.154z" fill="#3762cc"/></g><g><path d="m157.402 122.32c-.963 0-1.861-.148-2.673-.439-.841-.302-1.629-.778-2.342-1.415-.608-.542-1.176-1.179-1.688-1.894-.417-.58-.834-1.176-1.25-1.784l-9.572-14.676v13.393c0 2.055-.552 3.705-1.639 4.903-1.135 1.25-2.652 1.912-4.39 1.912-1.789 0-3.326-.677-4.445-1.959-1.05-1.201-1.582-2.834-1.582-4.856v-28.705c0-1.546.189-2.782.577-3.777.544-1.288 1.401-2.298 2.568-3.055 1.154-.747 2.422-1.125 3.771-1.125 1.032 0 1.966.187 2.774.555.762.348 1.441.824 2.021 1.415.479.491.959 1.109 1.431 1.839.388.606.783 1.227 1.192 1.875l9.879 14.947v-13.816c0-2.045.515-3.681 1.528-4.864 1.095-1.276 2.615-1.951 4.397-1.951 1.807 0 3.345.67 4.448 1.937 1.032 1.185 1.555 2.826 1.555 4.878v29.264c.002 4.632-2.451 7.398-6.56 7.398zm-19.524-28.935c.663 0 1.299.331 1.675.907l13.225 20.275c.374.547.773 1.117 1.174 1.674.341.477.711.893 1.1 1.24.328.294.675.507 1.031.635.376.135.82.204 1.32.204 1.239 0 2.562-.263 2.562-3.398v-29.264c0-1.043-.197-1.822-.571-2.251-.229-.262-.598-.563-1.432-.563-.784 0-1.139.296-1.36.555-.37.431-.565 1.213-.565 2.26v20.469c0 .883-.579 1.661-1.424 1.916-.847.253-1.758-.077-2.245-.813l-13.569-20.532c-.428-.676-.82-1.292-1.198-1.883-.317-.492-.64-.912-.927-1.206-.23-.236-.507-.428-.818-.57-.279-.127-.665-.195-1.115-.195-.572 0-1.095.158-1.596.482-.489.317-.829.711-1.038 1.204-.18.463-.282 1.245-.282 2.271v28.705c0 .705.103 1.663.594 2.224.24.275.621.591 1.434.591.61 0 1.051-.185 1.427-.599.497-.548.602-1.507.602-2.216v-20.12c0-.885.582-1.665 1.43-1.917.184-.058.376-.085.566-.085z" fill="#3762cc"/></g><g><path d="m171.692 99.071c-1.176 0-2.259-.436-3.05-1.228-.791-.789-1.228-1.845-1.228-2.973 0-1.676.853-3.083 2.343-3.87.236-.14.438-.277.612-.407-.409-.262-.8-.579-1.17-.95-1.233-1.231-1.886-2.786-1.886-4.495 0-1.769.67-3.336 1.938-4.534 1.228-1.16 2.809-1.774 4.571-1.774 1.271 0 2.47.366 3.562 1.087 1.084.719 1.919 1.741 2.485 3.04.51 1.17.768 2.561.768 4.135 0 2.049-.443 4.001-1.318 5.801-.862 1.775-1.953 3.223-3.244 4.302-1.504 1.257-2.937 1.866-4.383 1.866zm2.132-16.228c-.753 0-1.332.217-1.824.682-.468.442-.686.958-.686 1.626 0 .65.227 1.18.714 1.666.382.383.777.613 1.175.687l.56.103c.565.105 1.059.448 1.354.942s.362 1.091.186 1.639l-.175.542c-.202.629-.504 1.195-.895 1.681-.625.77-1.462 1.463-2.492 2.067-.033.019-.067.038-.102.055-.214.109-.224.168-.224.339 0 .08.018.106.054.143.039.039.113.058.224.058.458 0 1.087-.323 1.82-.934.852-.712 1.596-1.715 2.21-2.98.607-1.251.916-2.614.916-4.053 0-1.021-.146-1.875-.435-2.537-.253-.58-.599-1.019-1.027-1.303-.429-.285-.872-.423-1.353-.423z" fill="#3762cc"/></g><g><path d="m198.189 122.32c-1.814 0-3.394-.674-4.567-1.949-1.138-1.233-1.715-2.965-1.715-5.145v-24.53h-5.723c-1.921 0-3.45-.504-4.547-1.498-1.15-1.039-1.76-2.457-1.76-4.098 0-1.7.64-3.147 1.851-4.183 1.112-.955 2.612-1.439 4.456-1.439h23.959c1.937 0 3.479.508 4.585 1.511 1.16 1.052 1.773 2.474 1.773 4.111 0 1.651-.627 3.077-1.813 4.122-1.108.978-2.639 1.475-4.546 1.475h-5.723v24.53c0 2.196-.573 3.932-1.703 5.158-1.166 1.266-2.732 1.935-4.527 1.935zm-12.004-38.842c-.85 0-1.49.165-1.854.476-.225.192-.453.478-.453 1.146 0 .648.237.946.444 1.133.33.3.991.463 1.862.463h7.723c1.104 0 2 .896 2 2v26.53c0 .786.114 1.846.657 2.435.414.45.93.659 1.625.659.686 0 1.175-.199 1.588-.646.421-.457.644-1.304.644-2.447v-26.53c0-1.104.896-2 2-2h7.723c.879 0 1.554-.168 1.9-.475.227-.2.458-.489.458-1.121 0-.647-.246-.953-.46-1.147-.338-.306-1.012-.475-1.898-.475h-23.959z" fill="#3762cc"/></g><g><path d="m93.471 184.695c-1.706 0-3.199-.653-4.317-1.888-1.069-1.183-1.61-2.823-1.61-4.876v-5.504l-1.041 4.135c-.413 1.631-.743 2.804-1.011 3.587-.383 1.125-1.075 2.141-2.054 3.019-1.13 1.014-2.614 1.527-4.411 1.527-1.351 0-2.548-.32-3.559-.951-.96-.6-1.723-1.387-2.267-2.339-.443-.776-.793-1.636-1.042-2.557-.196-.721-.396-1.476-.602-2.261l-1.045-4.155v5.499c0 2.047-.534 3.683-1.587 4.863-1.108 1.244-2.627 1.901-4.391 1.901-1.718 0-3.216-.646-4.332-1.867-1.074-1.172-1.62-2.82-1.62-4.897v-29.441c0-3.117 1.293-4.637 2.377-5.363 1.26-.845 2.881-1.273 4.818-1.273h2.335c1.766 0 3.033.178 3.987.56 1.228.491 2.178 1.405 2.75 2.644.375.815.753 1.971 1.19 3.639l2.986 11.262 2.99-11.27c.435-1.662.813-2.817 1.187-3.629.569-1.238 1.52-2.153 2.75-2.645.956-.382 2.223-.56 3.988-.56h2.334c1.934 0 3.554.428 4.817 1.272 1.087.729 2.379 2.25 2.379 5.365v29.441c0 2.05-.535 3.687-1.589 4.865-1.105 1.24-2.631 1.897-4.41 1.897zm-4.913-26.499c.082 0 .165.005.248.015l.985.122c1.001.124 1.754.976 1.754 1.985v17.612c0 1.017.199 1.775.577 2.193.357.394.774.571 1.35.571.822 0 1.196-.301 1.43-.563.375-.419.572-1.18.572-2.201v-29.441c0-.611-.079-1.688-.604-2.041-.582-.389-1.479-.596-2.592-.596h-2.334c-1.582 0-2.247.171-2.502.273-.278.111-.458.292-.601.604-.267.58-.587 1.58-.953 2.976l-4.925 18.564c-.232.877-1.026 1.487-1.933 1.487-.907 0-1.701-.61-1.933-1.487l-4.921-18.557c-.367-1.402-.688-2.404-.954-2.982-.144-.312-.325-.494-.604-.605-.255-.102-.919-.273-2.501-.273h-2.337c-1.113 0-2.009.206-2.591.596-.526.352-.604 1.43-.604 2.041v29.441c0 1.03.197 1.79.57 2.197.359.393.784.567 1.381.567.8 0 1.171-.301 1.405-.564.375-.419.572-1.18.572-2.2v-17.611c0-1.009.752-1.861 1.754-1.985l.985-.122c1.005-.125 1.939.519 2.186 1.497l3.995 15.881c.198.753.396 1.499.59 2.213.161.595.38 1.138.653 1.618.215.376.514.681.913.93.365.228.85.344 1.439.344.781 0 1.366-.17 1.74-.505.463-.416.779-.864.939-1.334.229-.671.538-1.772.918-3.273l3.995-15.875c.225-.897 1.032-1.512 1.938-1.512z" fill="#3762cc"/></g><g><path d="m108.749 184.695c-1.785 0-3.35-.681-4.525-1.97-1.132-1.243-1.705-2.967-1.705-5.124v-29.314c0-2.158.569-3.877 1.692-5.11 1.167-1.281 2.737-1.959 4.539-1.959 1.822 0 3.406.665 4.582 1.923 1.146 1.229 1.726 2.96 1.726 5.146v29.314c0 2.183-.578 3.915-1.717 5.148-1.175 1.272-2.763 1.946-4.592 1.946zm0-39.477c-.683 0-1.17.201-1.582.653-.425.466-.649 1.301-.649 2.416v29.314c0 .777.115 1.829.662 2.429.418.459.902.665 1.568.665.712 0 1.236-.209 1.651-.659.43-.465.657-1.307.657-2.435v-29.314c0-1.124-.225-1.96-.651-2.417-.414-.444-.941-.652-1.656-.652z" fill="#3762cc"/></g><g><path d="m134.484 184.695c-4.102 0-7.582-.814-10.343-2.42-2.041-1.204-3.712-2.823-4.979-4.819-1.311-2.063-1.976-4.15-1.976-6.2 0-1.562.575-2.977 1.662-4.092 1.104-1.133 2.562-1.732 4.214-1.732 1.417 0 2.701.492 3.712 1.422.831.768 1.517 1.839 2.044 3.189.395.987.821 1.819 1.263 2.457.312.451.787.844 1.414 1.168.437.226 1.274.495 2.786.495 1.672 0 3.001-.359 3.95-1.066.964-.719 1.088-1.388 1.088-1.891 0-.734-.211-1.049-.418-1.261-.473-.482-1.124-.868-1.937-1.145-1.108-.377-2.635-.789-4.536-1.223-2.842-.666-5.264-1.461-7.209-2.366-2.182-1.013-3.95-2.433-5.254-4.219-1.372-1.875-2.068-4.186-2.068-6.868 0-2.56.716-4.879 2.128-6.893 1.396-1.986 3.401-3.516 5.96-4.55 2.403-.971 5.229-1.463 8.397-1.463 2.548 0 4.813.331 6.731.984 1.96.667 3.632 1.583 4.968 2.724 1.358 1.162 2.378 2.425 3.031 3.757.675 1.371 1.018 2.758 1.018 4.121 0 1.501-.546 2.912-1.579 4.08-1.139 1.292-2.7 1.966-4.388 1.921 1.01.473 1.927 1.001 2.742 1.579 1.519 1.078 2.719 2.458 3.567 4.104.85 1.646 1.281 3.633 1.281 5.905 0 2.731-.72 5.229-2.139 7.423-1.417 2.193-3.487 3.919-6.153 5.132-2.549 1.159-5.569 1.747-8.977 1.747zm-11.421-15.264c-.58 0-.996.162-1.349.524-.364.374-.527.775-.527 1.301 0 1.278.455 2.643 1.353 4.056.925 1.458 2.144 2.638 3.623 3.511 2.132 1.24 4.936 1.872 8.321 1.872 2.832 0 5.297-.467 7.324-1.388 1.957-.89 3.454-2.122 4.449-3.662.994-1.538 1.498-3.304 1.498-5.252 0-1.627-.281-2.997-.836-4.07-.553-1.073-1.336-1.973-2.327-2.676-1.07-.759-2.405-1.42-3.965-1.964-1.646-.572-3.509-1.104-5.537-1.578-1.723-.434-2.959-.765-3.706-.991-.825-.25-1.647-.598-2.444-1.035-.895-.491-1.62-1.1-2.153-1.811-.604-.804-.91-1.756-.91-2.83 0-1.173.419-2.872 2.416-4.303 1.449-1.037 3.327-1.563 5.582-1.563 2.482 0 4.29.499 5.526 1.526 1.11.923 2.065 2.204 2.839 3.807.521.972.909 1.452 1.137 1.671.152.146.49.229.929.229.522 0 .896-.17 1.247-.569.396-.447.578-.901.578-1.433 0-.745-.204-1.538-.607-2.357-.413-.842-1.099-1.676-2.04-2.48-.947-.809-2.179-1.475-3.658-1.978-1.503-.512-3.334-.771-5.442-.771-2.652 0-4.974.395-6.899 1.172-1.832.74-3.24 1.797-4.184 3.14-.93 1.326-1.402 2.872-1.402 4.594 0 1.814.437 3.331 1.297 4.507.901 1.234 2.148 2.227 3.71 2.952 1.699.791 3.861 1.496 6.426 2.097 2.024.463 3.684.912 4.922 1.333 1.412.48 2.592 1.199 3.508 2.134 1.035 1.059 1.559 2.424 1.559 4.058 0 2.02-.933 3.783-2.697 5.098-1.655 1.233-3.788 1.859-6.341 1.859-1.859 0-3.415-.317-4.623-.941-1.215-.629-2.179-1.452-2.867-2.446-.611-.885-1.181-1.982-1.693-3.263-.385-.987-.775-1.478-1.036-1.718-.272-.249-.581-.362-1.001-.362zm10.813-17.858c-1.403 0-2.498.274-3.253.814-.745.534-.745.909-.745 1.051 0 .283.07.377.108.428.188.249.49.493.878.705.554.303 1.118.543 1.679.712.688.208 1.863.522 3.493.933 1.611.377 3.148.795 4.571 1.245-.001 0-.001-.001-.002-.001-.651-.625-1.265-1.498-1.93-2.743-.553-1.142-1.173-1.996-1.829-2.542-.217-.179-.945-.602-2.97-.602z" fill="#3762cc"/></g><g><path d="m169.155 184.695c-4.103 0-7.582-.814-10.344-2.42-2.04-1.204-3.711-2.823-4.979-4.818-1.311-2.066-1.975-4.152-1.975-6.201 0-1.562.574-2.977 1.66-4.092 1.104-1.134 2.563-1.733 4.216-1.733 1.418 0 2.701.492 3.712 1.422.84.776 1.508 1.818 2.043 3.188.396.99.822 1.821 1.262 2.454.313.455.788.847 1.415 1.171.437.225 1.275.495 2.786.495 1.672 0 3.001-.359 3.95-1.066.964-.719 1.088-1.388 1.088-1.891 0-.734-.211-1.049-.418-1.261-.472-.482-1.123-.867-1.937-1.144-1.107-.377-2.634-.789-4.536-1.224-2.837-.665-5.26-1.46-7.209-2.366-2.182-1.014-3.949-2.433-5.254-4.218-1.372-1.877-2.067-4.188-2.067-6.869 0-2.561.716-4.88 2.128-6.893 1.393-1.984 3.396-3.515 5.957-4.55 2.405-.972 5.23-1.464 8.399-1.464 2.548 0 4.813.331 6.731.983 1.961.667 3.633 1.584 4.969 2.725 1.353 1.156 2.372 2.418 3.03 3.753.676 1.378 1.018 2.765 1.018 4.125 0 1.501-.546 2.912-1.579 4.08-1.107 1.256-2.576 1.922-4.245 1.922-.048 0-.095 0-.141-.001 1.008.473 1.925 1 2.74 1.578 1.519 1.079 2.719 2.459 3.568 4.104s1.281 3.632 1.281 5.905c0 2.729-.72 5.227-2.14 7.423-1.417 2.193-3.487 3.919-6.153 5.132-2.549 1.163-5.569 1.751-8.976 1.751zm-11.421-15.264c-.581 0-.997.162-1.351.524-.363.373-.525.774-.525 1.3 0 1.278.455 2.643 1.352 4.057.926 1.456 2.145 2.638 3.623 3.511 2.132 1.239 4.936 1.871 8.322 1.871 2.832 0 5.296-.467 7.323-1.388 1.957-.89 3.454-2.122 4.449-3.662.995-1.539 1.499-3.306 1.499-5.252 0-1.627-.281-2.997-.835-4.07-.555-1.073-1.338-1.974-2.329-2.677-1.071-.76-2.405-1.42-3.964-1.963-1.643-.572-3.506-1.103-5.537-1.578-1.728-.436-2.963-.767-3.707-.992-.819-.247-1.643-.595-2.443-1.034-.896-.49-1.622-1.101-2.154-1.813-.603-.802-.909-1.754-.909-2.827 0-1.173.419-2.871 2.416-4.303 1.448-1.037 3.326-1.563 5.582-1.563 2.482 0 4.29.5 5.527 1.526 1.108.921 2.063 2.202 2.838 3.807.521.972.911 1.452 1.139 1.671.151.146.488.229.928.229.521 0 .895-.17 1.246-.569.396-.447.578-.901.578-1.433 0-.745-.204-1.539-.607-2.36-.414-.841-1.101-1.676-2.038-2.477-.948-.81-2.18-1.476-3.66-1.979-1.502-.511-3.334-.771-5.442-.771-2.653 0-4.975.395-6.9 1.172-1.833.741-3.239 1.797-4.182 3.139-.931 1.327-1.402 2.873-1.402 4.595 0 1.814.437 3.332 1.296 4.508.901 1.232 2.149 2.225 3.711 2.951 1.702.791 3.864 1.496 6.426 2.096 2.026.463 3.686.913 4.923 1.334 1.413.48 2.593 1.199 3.508 2.134 1.034 1.058 1.558 2.423 1.558 4.057 0 2.02-.933 3.783-2.697 5.098-1.655 1.233-3.788 1.859-6.341 1.859-1.858 0-3.413-.317-4.623-.941-1.217-.63-2.182-1.454-2.868-2.449-.608-.876-1.179-1.975-1.692-3.259-.311-.796-.657-1.37-1.034-1.718-.276-.249-.585-.361-1.004-.361zm10.812-17.858c-1.404 0-2.498.274-3.253.814-.745.535-.745.91-.745 1.051 0 .282.068.374.109.428.188.25.489.492.876.703.558.306 1.122.546 1.679.713.688.208 1.862.523 3.494.935 1.614.377 3.15.795 4.571 1.244-.001-.001-.001-.001-.002-.002-.651-.626-1.265-1.497-1.929-2.741-.554-1.144-1.174-1.998-1.829-2.542-.17-.141-.888-.603-2.971-.603z" fill="#3762cc"/></g><g><path d="m194.789 172.614c-1.888 0-3.408-.95-4.173-2.606-.486-1.054-.798-2.428-.98-4.324l-.818-12.23c-.155-2.411-.233-4.182-.233-5.269 0-2.053.598-3.734 1.777-4.995 1.207-1.291 2.844-1.973 4.732-1.973 3.258 0 4.635 1.826 5.166 2.914.665 1.365.988 3.147.988 5.449 0 1.192-.063 2.422-.19 3.656l-1.088 12.475c-.143 1.803-.473 3.218-1.007 4.309-.805 1.648-2.326 2.594-4.174 2.594zm.305-27.396c-.785 0-1.361.224-1.811.705-.464.496-.699 1.257-.699 2.262 0 1.002.075 2.687.225 5.007l.813 12.167c.13 1.337.342 2.357.626 2.973.072.157.13.282.541.282.353 0 .46-.104.581-.351.306-.624.512-1.593.613-2.883l1.093-12.521c.115-1.129.172-2.222.172-3.278 0-1.658-.196-2.901-.584-3.696-.089-.182-.325-.667-1.57-.667z" fill="#3762cc"/></g><g><path d="m194.941 184.644c-1.624 0-3.126-.559-4.342-1.615-1.318-1.142-2.016-2.765-2.016-4.692 0-1.707.635-3.245 1.836-4.445 1.204-1.202 2.749-1.836 4.471-1.836 1.711 0 3.259.628 4.475 1.816 1.231 1.204 1.883 2.748 1.883 4.466 0 1.896-.685 3.507-1.979 4.659-1.215 1.078-2.711 1.647-4.328 1.647zm-.05-8.589c-.666 0-1.188.211-1.644.666-.452.452-.663.966-.663 1.616 0 1.003.363 1.434.637 1.67.501.435 1.047.637 1.721.637.649 0 1.181-.203 1.671-.638.271-.242.636-.681.636-1.669 0-.643-.216-1.153-.678-1.604-.473-.462-1.008-.678-1.68-.678z" fill="#3762cc"/></g></g></svg>