<svg id="Layer_3" enable-background="new 0 0 64 64" height="512" viewBox="0 0 64 64" width="512" xmlns="http://www.w3.org/2000/svg"><path d="m26 17h12v29h-12z" fill="#a8b0bc"/><path d="m31 2h2v8h-2z" fill="#a8b0bc"/><path d="m30 17v-6c0-1.105.895-2 2-2 1.105 0 2 .895 2 2v6" fill="#758190"/><path d="m36 54h16v8h-16z" fill="#c1c8d1"/><path d="m28 54h8v8h-8z" fill="#758190"/><path d="m12 54h16v8h-16z" fill="#c1c8d1"/><path d="m16 46h32v8h-32z" fill="#a8b0bc"/><path d="m22 29h6v17h-6z" fill="#c1c8d1"/><path d="m36 29h6v17h-6z" fill="#c1c8d1"/><path d="m20 40h4v14h-4z" fill="#758190"/><path d="m40 40h4v14h-4z" fill="#758190"/><path d="m24 21h4v8h-4z" fill="#758190"/><path d="m36 21h4v8h-4z" fill="#758190"/><path d="m15 6c-.034 0-.066.009-.1.01-.459-2.287-2.478-4.01-4.9-4.01s-4.441 1.723-4.9 4.01c-.034-.001-.066-.01-.1-.01-1.657 0-3 1.343-3 3s1.343 3 3 3c.841 0 1.598-.348 2.143-.905.811.567 1.793.905 2.857.905s2.046-.338 2.857-.905c.545.557 1.302.905 2.143.905 1.657 0 3-1.343 3-3s-1.343-3-3-3z" fill="#a1cdfb"/><path d="m59 6c-.034 0-.066.009-.1.01-.459-2.287-2.478-4.01-4.9-4.01s-4.441 1.723-4.9 4.01c-.034-.001-.066-.01-.1-.01-1.657 0-3 1.343-3 3s1.343 3 3 3c.841 0 1.598-.348 2.143-.905.811.567 1.793.905 2.857.905s2.046-.338 2.857-.905c.545.557 1.302.905 2.143.905 1.657 0 3-1.343 3-3s-1.343-3-3-3z" fill="#a1cdfb"/><path d="m2 60h60v2h-60z" fill="#a8b0bc"/><g fill="#fff"><path d="m31 20h2v2h-2z"/><path d="m31 24h2v2h-2z"/><path d="m31 28h2v2h-2z"/><path d="m31 32h2v2h-2z"/><path d="m31 36h2v2h-2z"/><path d="m31 40h2v2h-2z"/></g></svg>