<svg id="Layer_3" enable-background="new 0 0 64 64" height="512" viewBox="0 0 64 64" width="512" xmlns="http://www.w3.org/2000/svg"><path d="m4 2h56v52h-56z" fill="#8892a0"/><path d="m4 44.71c4.206 2.099 8.961 3.29 14 3.29 17.121 0 31-13.655 31-30.5 0-5.66-1.573-10.957-4.304-15.5h-40.696z" fill="#c1c8d1"/><path d="m22 54v-16h14v16" fill="#f5b953"/><path d="m32.282 52.121c-1.514-3.534-2.282-7.275-2.282-11.121h-2c0 3.846-.768 7.587-2.282 11.121l-.637 1.485 1.838.788.637-1.485c.588-1.372 1.068-2.774 1.444-4.199.377 1.425.856 2.827 1.444 4.199l.637 1.485 1.838-.788z" fill="#976947"/><g fill="#f5b953"><path d="m4 16h56v8h-56z"/><path d="m22 28h12v6h-12z"/><path d="m60 28h-12v6h12"/></g><path d="m4 54h56v8h-56z" fill="#c18e59"/><path d="m17 2h2v60h-2z" fill="#a8b0bc"/><path d="m12 27h-2c0 1.654-1.346 3-3 3v2c1.654 0 3 1.346 3 3h2c0-1.654 1.346-3 3-3v-2c-1.654 0-3-1.346-3-3zm-1 5.031c-.292-.393-.638-.739-1.031-1.031.393-.292.739-.638 1.031-1.031.292.393.638.739 1.031 1.031-.393.292-.739.638-1.031 1.031z" fill="#976947"/><path d="m42 27h-2c0 1.654-1.346 3-3 3v2c1.654 0 3 1.346 3 3h2c0-1.654 1.346-3 3-3v-2c-1.654 0-3-1.346-3-3zm-1 5.031c-.292-.393-.638-.739-1.031-1.031.393-.292.739-.638 1.031-1.031.292.393.638.739 1.031 1.031-.393.292-.739.638-1.031 1.031z" fill="#976947"/><path d="m60 55v-2h-56v2h3v2h-3v2h7v3h2v-3h14v3h2v-3h8v3h2v-3h8v3h2v-3h11v-2h-7v-2zm-27 0h8v2h-8zm-2 2h-8v-2h8zm-22-2h12v2h-12zm42 2h-8v-2h8z" fill="#976947"/></svg>