<svg id="Layer_3" enable-background="new 0 0 64 64" height="512" viewBox="0 0 64 64" width="512" xmlns="http://www.w3.org/2000/svg"><g fill="#c18e59"><path d="m5 22h2v16h-2z"/><path d="m57 22h2v16h-2z"/><path d="m23 2h2v16h-2z"/><path d="m15 2h2v16h-2z"/><path d="m39 2h2v16h-2z"/><path d="m47 2h2v16h-2z"/></g><path d="m4 43v19h56v-19h-4l-24-31-24 31z" fill="#8892a0"/><path d="m22 17 2-10 2 10v45h-4z" fill="#c1c8d1"/><path d="m14 17 2-10 2 10v45h-4z" fill="#c1c8d1"/><path d="m4 37 2-10 2 10v25h-4z" fill="#c1c8d1"/><path d="m42 17-2-10-2 10v45h4z" fill="#c1c8d1"/><path d="m50 17-2-10-2 10v45h4z" fill="#c1c8d1"/><path d="m60 37-2-10-2 10v25h4z" fill="#c1c8d1"/><path d="m4 54h4v4h-4z" fill="#c18e59"/><path d="m14 54h4v4h-4z" fill="#c18e59"/><path d="m22 54h4v4h-4z" fill="#c18e59"/><path d="m38 54h4v4h-4z" fill="#c18e59"/><path d="m46 54h4v4h-4z" fill="#c18e59"/><path d="m56 54h4v4h-4z" fill="#c18e59"/><path d="m34 31h-4v-4c0-1.105.895-2 2-2 1.105 0 2 .895 2 2z" fill="#fff"/><path d="m34 41h-4v-4c0-1.105.895-2 2-2 1.105 0 2 .895 2 2z" fill="#fff"/><path d="m34 62v-12c0-1.105-.895-2-2-2-1.105 0-2 .895-2 2v12" fill="#fff"/><path d="m11 22h18v2h-18z" fill="#4d5d7a"/><path d="m35 22h18v2h-18z" fill="#4d5d7a"/><path d="m56 42h4v2h-4z" fill="#c18e59"/><path d="m4 42h4v2h-4z" fill="#c18e59"/><path d="m29 19h6v2h-6z" fill="#4d5d7a"/></svg>