<svg id="Layer_3" enable-background="new 0 0 64 64" height="512" viewBox="0 0 64 64" width="512" xmlns="http://www.w3.org/2000/svg"><g fill="#78b75b"><circle cx="6" cy="54" r="4"/><circle cx="16" cy="54" r="4"/><circle cx="48" cy="54" r="4"/><circle cx="58" cy="54" r="4"/></g><path d="m5 53h2v9h-2z" fill="#c18e59"/><path d="m15 53h2v9h-2z" fill="#c18e59"/><path d="m47 53h2v9h-2z" fill="#c18e59"/><path d="m57 53h2v9h-2z" fill="#c18e59"/><path d="m21 24h-2c-1.657 0-3 1.343-3 3v14c0 1.657 1.343 3 3 3h2c1.657 0 3-1.343 3-3v-14c0-1.657-1.343-3-3-3z" fill="#c1c8d1"/><path d="m45 24h-2c-1.657 0-3 1.343-3 3v14c0 1.657 1.343 3 3 3h2c1.657 0 3-1.343 3-3v-14c0-1.657-1.343-3-3-3z" fill="#c1c8d1"/><path d="m33 24h-2c-1.657 0-3 1.343-3 3v14c0 1.657 1.343 3 3 3h2c1.657 0 3-1.343 3-3v-14c0-1.657-1.343-3-3-3z" fill="#a8b0bc"/><path d="m54 24c-1.105 0-2 .895-2 2v16c0 1.105.895 2 2 2h4c1.105 0 2-.895 2-2v-12c0-3.314-2.686-6-6-6z" fill="#a8b0bc"/><path d="m6 24c-1.105 0-2 .895-2 2v16c0 1.105.895 2 2 2h4c1.105 0 2-.895 2-2v-12c0-3.314-2.686-6-6-6z" fill="#a8b0bc"/><path d="m17 18v4c0 1.105.895 2 2 2h26c1.105 0 2-.895 2-2v-4c0-1.105-.895-2-2-2h-26c-1.105 0-2 .895-2 2z" fill="#a8b0bc"/><path d="m19 16c-1.105 0-2 .895-2 2v1.35c2.74 1.03 6.214 1.65 10 1.65 6.964 0 12.871-2.089 15.07-5z" fill="#c1c8d1"/><circle cx="32" cy="7" fill="#c16b3f" r="5"/><path d="m27 7c0 .305.037.601.09.891.789.682 1.804 1.109 2.929 1.109 2.485 0 4.5-2.015 4.5-4.5 0-.758-.205-1.461-.536-2.087-.608-.264-1.278-.413-1.983-.413-2.761 0-5 2.239-5 5z" fill="#e39854"/><path d="m15 6c-.034 0-.066.009-.1.01-.459-2.287-2.478-4.01-4.9-4.01s-4.441 1.723-4.9 4.01c-.034-.001-.066-.01-.1-.01-1.657 0-3 1.343-3 3s1.343 3 3 3c.841 0 1.598-.348 2.143-.905.811.567 1.793.905 2.857.905s2.046-.338 2.857-.905c.545.557 1.302.905 2.143.905 1.657 0 3-1.343 3-3s-1.343-3-3-3z" fill="#a1cdfb"/><path d="m59 6c-.034 0-.066.009-.1.01-.459-2.287-2.478-4.01-4.9-4.01s-4.441 1.723-4.9 4.01c-.034-.001-.066-.01-.1-.01-1.657 0-3 1.343-3 3s1.343 3 3 3c.841 0 1.598-.348 2.143-.905.811.567 1.793.905 2.857.905s2.046-.338 2.857-.905c.545.557 1.302.905 2.143.905 1.657 0 3-1.343 3-3s-1.343-3-3-3z" fill="#a1cdfb"/><path d="m2 60h60v2h-60z" fill="#976947"/><path d="m2 43h60v2h-60z" fill="#c18e59"/></svg>