<svg id="Layer_3" enable-background="new 0 0 64 64" height="512" viewBox="0 0 64 64" width="512" xmlns="http://www.w3.org/2000/svg"><g fill="#c1c8d1"><path d="m12 2h2v10h-2z"/><path d="m50 2h2v10h-2z"/><path d="m5 4h2v11h-2z"/><path d="m3 6h6v2h-6z"/><path d="m19 4h2v11h-2z"/><path d="m17 6h6v2h-6z"/><path d="m43 4h2v11h-2z"/><path d="m41 6h6v2h-6z"/><path d="m57 4h2v11h-2z"/><path d="m55 6h6v2h-6z"/><path d="m22 49v13h20v-13zm2 12c0-4.418 3.582-8 8-8s8 3.582 8 8z"/></g><path d="m22 24h20v4h-20z" fill="#8892a0"/><path d="m2 53h22v9h-22z" fill="#4d5d7a"/><path d="m2 53h22v4h-22z" fill="#8892a0"/><path d="m8 53v-33l5-14 5 14v33" fill="#3d98f7"/><path d="m8 22h10v31h-10z" fill="#c66b60"/><path d="m8 32h10v4h-10z" fill="#78b75b"/><path d="m8 22h10v4h-10z" fill="#f5b953"/><path d="m4 16 2-7 2 7v37h-4z" fill="#78b75b"/><path d="m18 16 2-7 2 7v37h-4z" fill="#78b75b"/><path d="m4 32h4v4h-4z" fill="#f5b953"/><path d="m18 32h4v4h-4z" fill="#f5b953"/><path d="m8 20h-4l-2-4h7" fill="#f5b953"/><path d="m18 20h4l2-4h-7" fill="#f5b953"/><path d="m40 53h22v9h-22z" fill="#4d5d7a"/><path d="m40 53h22v4h-22z" fill="#8892a0"/><path d="m46 53v-33l5-14 5 14v33" fill="#3d98f7"/><path d="m46 22h10v31h-10z" fill="#c66b60"/><path d="m46 32h10v4h-10z" fill="#78b75b"/><path d="m46 22h10v4h-10z" fill="#f5b953"/><path d="m42 16 2-7 2 7v37h-4z" fill="#78b75b"/><path d="m56 16 2-7 2 7v37h-4z" fill="#78b75b"/><path d="m42 32h4v4h-4z" fill="#f5b953"/><path d="m56 32h4v4h-4z" fill="#f5b953"/><path d="m46 20h-4l-2-4h7" fill="#f5b953"/><path d="m56 20h4l2-4h-7" fill="#f5b953"/><path d="m12 39h2v14h-2z" fill="#e47c6e"/><path d="m12 17h2v5h-2z" fill="#2b74ca"/><path d="m50 39h2v14h-2z" fill="#e47c6e"/><path d="m50 17h2v5h-2z" fill="#2b74ca"/><path d="m35 28h-2v-7h-2v7h-2v-8c0-.553.447-1 1-1h4c.553 0 1 .447 1 1z" fill="#4d5d7a"/><path d="m25 24h2v4h-2z" fill="#4d5d7a"/><path d="m37 24h2v4h-2z" fill="#4d5d7a"/><path d="m22 31h20v2h-20z" fill="#4d5d7a"/><path d="m22 44h20v2h-20z" fill="#4d5d7a"/><path d="m32 53c.339 0 .672.028 1 .069v-4.069h-2v4.069c.328-.041.661-.069 1-.069z" fill="#8892a0"/><path d="m37 54.76v-5.76h-2v4.587c.726.294 1.398.691 2 1.173z" fill="#8892a0"/><path d="m29 53.587v-4.587h-2v5.76c.602-.482 1.274-.879 2-1.173z" fill="#8892a0"/><path d="m22 48h20v2h-20z" fill="#4d5d7a"/></svg>