<svg id="Capa_1" enable-background="new 0 0 512 512" height="512" viewBox="0 0 512 512" width="512" xmlns="http://www.w3.org/2000/svg"><path d="m256 479.086c-10.354 0-18.747-8.422-18.747-18.811v-380.851c0-10.389 8.394-18.811 18.747-18.811 10.354 0 18.747 8.422 18.747 18.811v380.852c0 10.388-8.393 18.81-18.747 18.81z" fill="#452123"/><path d="m257.18 60.673v418.354c9.801-.614 17.567-8.762 17.567-18.751v-380.852c0-9.989-7.766-18.137-17.567-18.751z" fill="#2b1314"/><path d="m402.717 10.254c-3.053-5.996-9.067-9.896-15.77-10.228-6.723-.35-13.07 2.955-16.697 8.62-14.187 22.159-32.162 42.245-53.426 59.7-18.277 15.008-38.708 27.84-60.824 38.233-22.118-10.394-42.549-23.227-60.826-38.234-21.264-17.456-39.238-37.541-53.423-59.697-3.626-5.665-9.98-8.968-16.697-8.622-6.702.332-12.717 4.232-15.77 10.228-19.107 37.521-28.794 76.956-28.794 117.211s9.688 79.69 28.794 117.211c3.053 5.996 9.068 9.896 15.77 10.228.31.016.618.023.926.023 6.358 0 12.312-3.242 15.771-8.645 14.184-22.156 32.158-42.241 53.426-59.698 18.273-15.007 38.703-27.838 60.823-38.233 22.119 10.394 42.55 23.227 60.827 38.235 21.261 17.454 39.236 37.54 53.423 59.699 3.459 5.403 9.411 8.644 15.77 8.644.308 0 .618-.007.926-.023 6.703-.332 12.718-4.232 15.77-10.228 19.106-37.521 28.793-76.956 28.793-117.211.001-40.257-9.686-79.692-28.792-117.213z" fill="#fddb8d"/><path d="m80.49 127.463v.001c0 40.255 9.688 79.69 28.794 117.211 3.053 5.996 9.068 9.896 15.77 10.228.31.016.618.023.926.023 6.358 0 12.312-3.242 15.771-8.645 14.184-22.156 32.158-42.241 53.426-59.698 18.273-15.007 38.703-27.838 60.823-38.233 22.119 10.394 42.55 23.227 60.827 38.235 21.261 17.454 39.236 37.54 53.423 59.699 3.459 5.403 9.411 8.644 15.77 8.644.308 0 .618-.007.926-.023 6.703-.332 12.718-4.232 15.77-10.228 19.106-37.521 28.793-76.956 28.793-117.211v-.001h-351.019z" fill="#fbac5b"/><path d="m237.253 96.547h37.494v61.835h-37.494z" fill="#fd8f32"/><path d="m257.18 96.547h17.567v61.835h-17.567z" fill="#fb6f44"/><path d="m256 512c-31.012 0-56.241-25.315-56.241-56.432v-150.06c0-10.389 8.393-18.811 18.747-18.811h74.989c10.354 0 18.747 8.422 18.747 18.811v150.06c-.001 31.117-25.23 56.432-56.242 56.432z" fill="#6b312e"/><path d="m293.494 286.697h-36.314v225.273c30.467-.635 55.061-25.682 55.061-56.402v-150.06c0-10.389-8.393-18.811-18.747-18.811z" fill="#452123"/><path d="m199.759 309.909v53.317l109.524 110.364c1.908-5.664 2.958-11.721 2.958-18.022v-32.314z" fill="#f5997a"/><path d="m257.18 367.771v53.317l52.103 52.502c1.908-5.664 2.958-11.721 2.958-18.022v-32.314z" fill="#b45d4a"/></svg>