<svg id="Capa_1" enable-background="new 0 0 512.004 512.004" height="512" viewBox="0 0 512.004 512.004" width="512" xmlns="http://www.w3.org/2000/svg"><path d="m467.004 378.686h-152.004c-19.767 0-38.35 7.697-52.325 21.674-2.429 2.429-4.655 5.005-6.697 7.694-13.526-17.828-34.928-29.369-58.978-29.369h-152c-8.284 0-15 6.716-15 15v63.439c0 8.284 6.716 15 15 15h211.006 210.998c8.284 0 15-6.716 15-15v-63.439c0-8.283-6.716-14.999-15-14.999z" fill="#fde4c3"/><path d="m467.004 378.686h-152.004c-19.767 0-38.35 7.697-52.325 21.674-2.42 2.42-4.637 4.986-6.673 7.664v64.101h.004 210.998c8.284 0 15-6.716 15-15v-63.439c0-8.284-6.716-15-15-15z" fill="#f3a871"/><path d="m497.004 472.125h-482.004c-8.284 0-15-6.716-15-15s6.716-15 15-15h482.004c8.284 0 15 6.716 15 15s-6.716 15-15 15z" fill="#26ab6f"/><path d="m497.004 442.125h-241.002v30h241.002c8.284 0 15-6.716 15-15s-6.716-15-15-15z" fill="#084e41"/><path d="m422.002 295.879c0-91.533-74.468-166-166-166s-166 74.467-166 166h-90c0-68.38 26.629-132.668 74.98-181.02 48.353-48.352 112.64-74.98 181.02-74.98s132.667 26.629 181.02 74.98c48.352 48.352 74.98 112.64 74.98 181.02z" fill="#26ab6f"/><path d="m437.022 114.86c-48.353-48.352-112.64-74.98-181.02-74.98v90c91.532 0 166 74.467 166 166h90c0-68.381-26.629-132.668-74.98-181.02z" fill="#084e41"/><path d="m256.002 99.879c-108.075 0-196 87.925-196 196h90c0-58.449 47.552-106 106-106s106 47.551 106 106h90c0-108.074-87.925-196-196-196z" fill="#fddb8d"/><path d="m256.002 99.879v90c58.448 0 106 47.551 106 106h90c0-108.074-87.925-196-196-196z" fill="#fd8f32"/><path d="m256.002 159.879c-74.99 0-136 61.009-136 136h90c0-25.364 20.636-46 46-46s46 20.636 46 46h90c0-74.99-61.01-136-136-136z" fill="#fa676d"/><path d="m256.002 159.879v90c25.364 0 46 20.636 46 46h90c0-74.99-61.01-136-136-136z" fill="#f92f3e"/></svg>