<svg id="Capa_1" enable-background="new 0 0 511.53 511.53" height="512" viewBox="0 0 511.53 511.53" width="512" xmlns="http://www.w3.org/2000/svg"><path d="m203.275 366.583c-13.154 0-24.999-5.188-35.279-15.469-46.057-46.057-78.63-82.837-78.256-136.91.21-30.137 11.991-58.433 33.177-79.674 21.263-21.32 49.553-33.062 79.657-33.062 18.679 0 36.897 4.59 53.192 13.339 16.296-8.75 34.512-13.339 53.192-13.339 30.104 0 58.394 11.742 79.656 33.062 21.186 21.241 32.967 49.537 33.177 79.674.374 54.072-32.198 90.852-78.256 136.91-11.689 11.69-25.407 16.797-40.76 15.176-12.224-1.288-23.638-6.533-34.675-11.606-4.25-1.953-8.331-3.828-12.335-5.431-4.003 1.603-8.084 3.478-12.334 5.431-11.037 5.073-22.452 10.318-34.676 11.607-1.85.194-3.679.292-5.48.292z" fill="#fa676d"/><path d="m388.614 134.531c-21.263-21.32-49.553-33.062-79.656-33.062-18.68 0-36.896 4.589-53.192 13.339v234.445c4.003 1.603 8.084 3.478 12.335 5.431 11.038 5.072 22.451 10.317 34.675 11.606 15.353 1.621 29.071-3.486 40.76-15.176 46.057-46.057 78.629-82.837 78.256-136.91-.211-30.136-11.993-58.432-33.178-79.673z" fill="#f92f3e"/><path d="m269.913 119.521c-.534 9.668-8.995 16.99-18.64 16.13-16.628-1.483-41.823-6.741-57.021-24.304-24.187-27.951-13.895-76.483-13.895-76.483s49.507-3.214 73.694 24.737c15.199 17.562 16.784 43.251 15.862 59.92z" fill="#acf455"/><path d="m180.358 34.864c0 .001-10.292 48.532 13.895 76.483 15.198 17.563 40.392 22.821 57.021 24.304 4.296.383 8.352-.865 11.582-3.212z" fill="#6ed664"/><path d="m255.745 136.897c-7.78 0-14.472-5.861-15.334-13.772-.356-3.266-8.053-80.453 49.437-120.366 7.008-4.864 16.63-3.127 21.493 3.878 4.864 7.006 3.128 16.629-3.878 21.494-17.59 12.212-29.058 31.224-34.086 56.506-3.827 19.245-2.277 34.989-2.26 35.142.923 8.479-5.201 16.102-13.681 17.025-.567.062-1.133.093-1.691.093z" fill="#8f7972"/><path d="m311.341 6.637c-4.863-7.005-14.485-8.742-21.493-3.878-15.769 10.948-26.626 24.702-34.082 38.964v95.173c.551-.001 1.111-.03 1.671-.091 8.48-.924 14.604-8.546 13.681-17.025-.017-.153-1.566-15.898 2.26-35.142 5.027-25.282 16.495-44.294 34.086-56.506 7.005-4.865 8.741-14.489 3.877-21.495z" fill="#53433f"/><path d="m113.152 380c-53.437 0-77.159 26.219-77.159 58.265 0 32.046 23.721 58.265 77.159 58.265h346.512c-55.513-52.867 0-116.53 0-116.53z" fill="#fde4c3"/><path d="m435.056 440h-399.022c.847 31.25 24.651 56.53 77.118 56.53h346.512c-19.518-18.589-25.301-38.509-24.608-56.53z" fill="#fcbc89"/><path d="m475.536 511.53h-362.383c-28.953 0-51.915-6.936-68.249-20.615-15.419-12.913-23.91-31.611-23.91-52.65s8.491-39.737 23.91-52.65c16.334-13.679 39.296-20.615 68.249-20.615h362.384c8.284 0 15 6.716 15 15s-6.716 15-15 15h-362.384c-39.503 0-62.159 15.77-62.159 43.265s22.656 43.265 62.159 43.265h362.384c8.284 0 15 6.716 15 15-.001 8.284-6.716 15-15.001 15z" fill="#26ab6f"/><path d="m475.536 481.53h-362.383c-38.661 0-61.171-15.112-62.114-41.53h-30.002c.456 20.328 8.874 38.36 23.866 50.915 16.334 13.679 39.296 20.615 68.249 20.615h362.384c8.284 0 15-6.716 15-15s-6.715-15-15-15z" fill="#084e41"/></svg>