<svg id="Capa_1" enable-background="new 0 0 512 512" height="512" viewBox="0 0 512 512" width="512" xmlns="http://www.w3.org/2000/svg"><path d="m377.084 70.502c-3.042-2.645-4.907-6.401-5.181-10.436-.275-4.054 1.082-8.05 3.766-11.09l29.393-33.295c16.806-19.038 46.144-21.019 65.398-4.416l25.558 22.041c.049.043.098.085.148.129 9.307 8.093 14.889 19.326 15.725 31.652.838 12.36-3.207 24.271-11.388 33.54l-29.394 33.296c-5.469 6.194-14.872 6.837-21.127 1.445l-72.852-62.824c-.015-.015-.03-.028-.046-.042zm82.732 51.359.007.006z" fill="#f5997a"/><path d="m511.892 65.086c-.836-12.327-6.418-23.56-15.725-31.652-.05-.043-.099-.086-.148-.129l-13.215-11.395-69.092 80.179 36.271 31.278c6.254 5.393 15.658 4.75 21.127-1.444l29.394-33.296c8.181-9.269 12.226-21.18 11.388-33.541z" fill="#b45d4a"/><path d="m274.33 183.591c-5.693-4.95-6.885-13.36-2.786-19.712l73.28-113.564c.412-.638.87-1.244 1.373-1.813 12.326-13.963 35.074-14.355 50.709-.873l73.378 63.275c.043.037.088.076.13.113 8.029 6.981 13.017 16.723 13.698 26.756.6 8.846-2.164 17.223-7.783 23.588-.506.573-1.056 1.107-1.642 1.598l-104.111 86.977c-5.662 4.731-13.897 4.666-19.485-.153l-76.711-66.151c-.018-.013-.035-.028-.05-.041z" fill="#6b312e"/><path d="m484.11 137.773c-.68-10.033-5.669-19.774-13.698-26.756-.042-.037-.087-.076-.13-.113l-36.812-31.744-119.47 138.64 37.089 31.983c5.588 4.819 13.823 4.884 19.485.153l104.111-86.977c.586-.49 1.136-1.024 1.642-1.598 5.619-6.365 8.383-14.743 7.783-23.588z" fill="#452123"/><path d="m484.11 137.773c-.296-4.368-1.411-8.681-3.235-12.735l-191.589 11.345-17.743 27.496c-.76 1.177-1.335 2.426-1.737 3.71l210.618-12.146c2.818-5.279 4.115-11.353 3.686-17.67z" fill="#f5997a"/><path d="m361.843 162.281 118.582-6.839c2.818-5.278 4.114-11.352 3.686-17.669-.296-4.368-1.411-8.681-3.236-12.735l-91.613 5.425z" fill="#b45d4a"/><path d="m5.216 498.846c-3.042-2.645-4.908-6.401-5.181-10.435-.274-4.055 1.083-8.051 3.767-11.091l215.826-244.482c5.469-6.194 14.872-6.837 21.127-1.444l73.461 63.348c.016.014.031.027.047.041 3.042 2.645 4.907 6.401 5.181 10.436.275 4.054-1.082 8.05-3.766 11.091l-52.374 59.327c-40.293 45.643-90.394 86.175-137.459 111.206-24.317 12.931-46.402 20.976-65.641 23.909-23.221 3.541-41.704-.451-54.939-11.864-.018-.015-.033-.028-.049-.042z" fill="#efebe9"/><path d="m319.443 305.217c-.273-4.035-2.139-7.79-5.181-10.436-.016-.014-.031-.027-.047-.041l-38.16-32.907-214.27 248.652c18.866-3.123 40.402-11.064 64.058-23.644 47.064-25.031 97.166-65.563 137.459-111.206l52.374-59.327c2.684-3.041 4.041-7.037 3.767-11.091z" fill="#b5a8a3"/><path d="m166.086 183.21c-1.228-1.067-2.081-2.489-2.283-3.802-.103-.671-.018-1.258.221-1.528l24.403-27.52c16.612-18.732 49.091-17.597 72.4 2.529l164.438 141.988c1.251 1.087 2.097 2.487 2.303 3.821.103.669.018 1.256-.221 1.526l-24.403 27.519c-16.612 18.732-49.091 17.597-72.4-2.529l-164.426-141.976z" fill="#b45d4a"/><path d="m427.569 298.699c-.206-1.335-1.052-2.734-2.303-3.821l-101.879-87.97-55.4 64.29 62.559 54.018c23.31 20.127 55.788 21.261 72.4 2.529l24.403-27.519c.238-.27.323-.857.22-1.527z" fill="#94443f"/></svg>