<svg id="Capa_1" enable-background="new 0 0 512 512" height="512" viewBox="0 0 512 512" width="512" xmlns="http://www.w3.org/2000/svg"><path d="m226.259 442.989c-2.757 0-5-2.243-5-5v-172.646c0-2.757 2.243-5 5-5h59.481c2.757 0 5 2.243 5 5v172.646c0 2.757-2.243 5-5 5z" fill="#bcaaa4"/><path d="m285.741 260.343h-29.77v182.646h29.77c2.757 0 5-2.243 5-5v-172.646c0-2.757-2.243-5-5-5z" fill="#8f7972"/><path d="m221.259 336.666h69.481v30h-69.481z" fill="#d7ccc8"/><path d="m256 336.666h34.741v30h-34.741z" fill="#bcaaa4"/><path d="m211.986 275.343c-5.514 0-10-4.486-10-10v-58.59c0-5.514 4.486-10 10-10h88.028c5.514 0 10 4.486 10 10v58.59c0 5.514-4.486 10-10 10z" fill="#d7ccc8"/><path d="m300.014 196.753h-44.044v78.59h44.044c5.514 0 10-4.486 10-10v-58.59c0-5.514-4.486-10-10-10z" fill="#bcaaa4"/><path d="m78.116 442.989c-2.757 0-5-2.243-5-5v-172.646c0-2.757 2.243-5 5-5h59.482c2.757 0 5 2.243 5 5v172.646c0 2.757-2.243 5-5 5z" fill="#bcaaa4"/><path d="m137.598 260.343h-29.741v182.646h29.741c2.757 0 5-2.243 5-5v-172.646c0-2.757-2.244-5-5-5z" fill="#8f7972"/><path d="m73.116 336.666h69.482v30h-69.482z" fill="#efebe9"/><path d="m107.857 336.666h34.741v30h-34.741z" fill="#d7ccc8"/><path d="m63.843 275.343c-5.514 0-10-4.486-10-10v-58.59c0-5.514 4.486-10 10-10h88.028c5.514 0 10 4.486 10 10v58.59c0 5.514-4.486 10-10 10z" fill="#d7ccc8"/><path d="m151.871 196.753h-44.014v78.59h44.014c5.514 0 10-4.486 10-10v-58.59c0-5.514-4.486-10-10-10z" fill="#bcaaa4"/><path d="m374.402 442.989c-2.757 0-5-2.243-5-5v-172.646c0-2.757 2.243-5 5-5h59.482c2.757 0 5 2.243 5 5v172.646c0 2.757-2.243 5-5 5z" fill="#8f7972"/><path d="m433.884 260.343h-29.741v182.646h29.741c2.757 0 5-2.243 5-5v-172.646c0-2.757-2.243-5-5-5z" fill="#68544f"/><path d="m369.402 336.666h69.482v30h-69.482z" fill="#bcaaa4"/><path d="m404.143 336.666h34.741v30h-34.741z" fill="#8f7972"/><path d="m360.129 275.343c-5.514 0-10-4.486-10-10v-58.59c0-5.514 4.486-10 10-10h88.028c5.514 0 10 4.486 10 10v58.59c0 5.514-4.486 10-10 10z" fill="#bcaaa4"/><path d="m448.157 196.753h-44.014v78.59h44.014c5.514 0 10-4.486 10-10v-58.59c0-5.514-4.486-10-10-10z" fill="#8f7972"/><path d="m10.199 215.929c-5.624 0-10.199-4.575-10.199-10.199v-48.68c0-3.57 1.904-6.925 4.969-8.755l245.8-146.851c1.581-.944 3.39-1.444 5.231-1.444s3.65.5 5.231 1.444l245.8 146.851c3.065 1.831 4.969 5.186 4.969 8.755v48.68c0 5.624-4.575 10.199-10.199 10.199z" fill="#efebe9"/><path d="m507.031 148.295-245.8-146.851c-1.581-.944-3.39-1.444-5.231-1.444-.01 0-.02.002-.029.002v215.927h245.83c5.624 0 10.199-4.575 10.199-10.199v-48.68c0-3.569-1.904-6.924-4.969-8.755z" fill="#d7ccc8"/><ellipse cx="256" cy="121.463" fill="#bcaaa4" rx="41.462" ry="41.213"/><path d="m256 80.25c-.01 0-.02.001-.029.001v82.424c.01 0 .02.001.029.001 22.862 0 41.462-18.488 41.462-41.213s-18.6-41.213-41.462-41.213z" fill="#8f7972"/><path d="m0 191.711h512v30h-512z" fill="#bcaaa4"/><path d="m256.029 191.711h255.971v30h-255.971z" fill="#8f7972"/><path d="m10 512c-5.514 0-10-4.011-10-8.941v-57.233c0-4.93 4.486-8.941 10-8.941h492c5.514 0 10 4.011 10 8.941v57.233c0 4.93-4.486 8.941-10 8.941z" fill="#d7ccc8"/><path d="m502 436.885h-246.029v75.115h246.029c5.514 0 10-4.011 10-8.941v-57.233c0-4.93-4.486-8.941-10-8.941z" fill="#bcaaa4"/><path d="m450 494.11c0-8.284-6.716-15-15-15s-15 6.716-15 15v17.89h30z" fill="#d7ccc8"/><path d="m375 479.11c-8.284 0-15 6.716-15 15v17.89h30v-17.89c0-8.284-6.716-15-15-15z" fill="#d7ccc8"/><path d="m315 479.11c-8.284 0-15 6.716-15 15v17.89h30v-17.89c0-8.284-6.716-15-15-15z" fill="#d7ccc8"/><g fill="#efebe9"><path d="m195 479.11c-8.284 0-15 6.716-15 15v17.89h30v-17.89c0-8.284-6.716-15-15-15z"/><path d="m135 479.11c-8.284 0-15 6.716-15 15v17.89h30v-17.89c0-8.284-6.716-15-15-15z"/><path d="m75 479.11c-8.284 0-15 6.716-15 15v17.89h30v-17.89c0-8.284-6.716-15-15-15z"/><path d="m255 479.11c-8.284 0-15 6.716-15 15v17.89h30v-17.89c0-8.284-6.716-15-15-15z"/></g><path d="m255.971 479.159v32.841h14.029v-17.89c0-7.957-6.2-14.449-14.029-14.951z" fill="#d7ccc8"/></svg>