<svg id="Capa_1" enable-background="new 0 0 512 512" height="512" viewBox="0 0 512 512" width="512" xmlns="http://www.w3.org/2000/svg"><path d="m256 358.995c-30.987 0-59.967-16.754-81.603-47.173-21.162-29.754-32.817-69.201-32.817-111.075s11.655-81.321 32.817-111.075c21.636-30.42 50.616-47.173 81.603-47.173s59.967 16.753 81.603 47.173c21.162 29.754 32.817 69.201 32.817 111.075s-11.655 81.321-32.817 111.075c-21.636 30.419-50.616 47.173-81.603 47.173z" fill="#a1e3f9"/><path d="m337.603 89.671c-21.629-30.41-50.598-47.162-81.572-47.173v316.495c30.975-.011 59.943-16.763 81.572-47.173 21.162-29.754 32.817-69.201 32.817-111.075s-11.655-81.32-32.817-111.074z" fill="#2fc1e0"/><path d="m348.128 82.186c-9.753-13.713-20.912-24.932-33.075-33.437 2.66-4.659 3.4-10.385 1.531-15.861-3.456-10.123-14.466-15.534-24.592-12.073l-16.619 5.674v-7.118c-.001-10.698-8.674-19.371-19.373-19.371s-19.372 8.673-19.372 19.372v6.608l-15.126-5.164c-10.126-3.461-21.137 1.95-24.592 12.073-1.772 5.188-1.203 10.603 1.122 15.12-12.584 8.59-24.118 20.058-34.16 34.177-22.703 31.92-35.207 74.025-35.207 118.56s12.504 86.639 35.207 118.56c19.642 27.616 44.978 45.128 72.756 50.685v107.166c-4.697 3.535-7.749 9.14-7.749 15.471 0 10.699 8.673 19.372 19.372 19.372h15.498c10.699 0 19.372-8.673 19.372-19.372 0-6.331-3.051-11.936-7.749-15.471v-107.165c27.778-5.557 53.114-23.069 72.756-50.685 22.703-31.921 35.207-74.025 35.207-118.56s-12.504-86.64-35.207-118.561zm-31.573 214.665c-16.656 23.418-38.162 36.314-60.555 36.314s-43.899-12.897-60.555-36.314c-18.08-25.418-28.036-59.549-28.036-96.105s9.956-70.687 28.036-96.105c16.656-23.417 38.162-36.314 60.555-36.314s43.899 12.897 60.555 36.314c18.08 25.418 28.036 59.549 28.036 96.105s-9.957 70.687-28.036 96.105z" fill="#fa676d"/><path d="m348.128 82.186c-9.753-13.713-20.912-24.932-33.075-33.437 2.66-4.659 3.4-10.385 1.531-15.861-3.456-10.123-14.466-15.534-24.592-12.073l-16.619 5.674v-7.118c0-10.688-8.657-19.353-19.341-19.37v68.326c22.382.012 43.876 12.907 60.524 36.314 18.08 25.418 28.036 59.549 28.036 96.105s-9.956 70.687-28.036 96.105c-16.648 23.407-38.142 36.302-60.524 36.314v178.835h7.718c10.699 0 19.372-8.673 19.372-19.372 0-6.331-3.051-11.936-7.749-15.471v-107.165c27.778-5.557 53.114-23.069 72.756-50.685 22.703-31.921 35.207-74.025 35.207-118.56s-12.505-86.64-35.208-118.561z" fill="#f92f3e"/></svg>