<svg id="Capa_1" enable-background="new 0 0 512 512" height="512" viewBox="0 0 512 512" width="512" xmlns="http://www.w3.org/2000/svg"><path d="m199.263 501.792c-9.595 0-17.4-7.785-17.4-17.354v-5.641c0-30.892 25.2-56.025 56.175-56.025h73.644c30.975 0 56.175 25.132 56.175 56.025v5.641c0 9.569-7.806 17.354-17.4 17.354z" fill="#fbac5b"/><path d="m311.681 422.772h-36.753v79.02h75.528c9.595 0 17.4-7.785 17.4-17.354v-5.641c0-30.892-25.2-56.025-56.175-56.025z" fill="#fd8f32"/><path d="m388.572 512h-227.425c-8.479 0-15.353-6.856-15.353-15.312s6.874-15.312 15.353-15.312h227.425c8.479 0 15.353 6.856 15.353 15.312s-6.874 15.312-15.353 15.312z" fill="#fd8f32"/><path d="m388.572 481.376h-113.644v30.624h113.644c8.479 0 15.353-6.856 15.353-15.312 0-8.457-6.874-15.312-15.353-15.312z" fill="#fb6f44"/><path d="m456.594 427.81c-8.479 0-15.353-6.728-15.353-15.027v-19.574c0-8.299 6.874-15.027 15.353-15.027 13.62 0 24.7-10.846 24.7-24.177s-11.08-24.177-24.7-24.177h-63.035c-8.479 0-15.353-6.728-15.353-15.027s6.874-15.027 15.353-15.027h63.035c30.551 0 55.406 24.328 55.406 54.232 0 24.692-16.945 45.583-40.053 52.115v6.663c0 8.298-6.874 15.026-15.353 15.026z" fill="#fd8f32"/><path d="m274.86 432.98c-36.306 0-71.574-8.999-96.762-24.689l-2.131-1.328-2.505-.192c-22.701-1.745-47.255-7.915-71.01-17.844-29.071-12.152-54.338-28.636-73.067-47.672-18.934-19.245-29.096-38.938-29.384-56.952-.022-1.359.514-2.694 1.469-3.663.955-.968 2.285-1.523 3.647-1.523h50.122c1.347 0 2.621.518 3.583 1.461 18.447 18.038 52.811 30.82 91.926 34.191l.422.036 242.435.836c1.61.006 3.143.781 4.1 2.074 7.828 10.578 11.799 21.899 11.799 33.65 0 21.286-13.221 41.389-37.228 56.605-25.448 16.128-60.044 25.01-97.416 25.01z" fill="#fddb8d"/><path d="m397.705 317.715c-.958-1.293-2.49-2.068-4.1-2.074l-118.677-.409v117.747c37.346-.011 71.915-8.891 97.347-25.01 24.007-15.216 37.228-35.319 37.228-56.605 0-11.75-3.97-23.071-11.798-33.649z" fill="#fbac5b"/><path d="m274.86 257.224c-23.565 0-42.738-19.12-42.738-42.623s19.172-42.624 42.738-42.624 42.737 19.121 42.737 42.624-19.172 42.623-42.737 42.623z" fill="#fddb8d"/><path d="m274.928 171.979v85.243c23.534-.037 42.669-19.141 42.669-42.621s-19.135-42.585-42.669-42.622z" fill="#fbac5b"/><path d="m184.268 325.627c-21.193 0-38.436-17.196-38.436-38.334 0-21.137 17.242-38.333 38.436-38.333h181.184c21.193 0 38.436 17.196 38.436 38.333 0 21.138-17.242 38.334-38.436 38.334z" fill="#fbac5b"/><path d="m365.451 248.96h-90.523v76.667h90.523c21.193 0 38.436-17.196 38.436-38.334 0-21.137-17.242-38.333-38.436-38.333z" fill="#fd8f32"/><path d="m276.751 329.769 2.478-24.343-3.724-26.264c-8.306 0-15.04 6.716-15.04 15v5.607h-30.08v-5.607c0-8.284-6.734-15-15.04-15s-15.04 6.716-15.04 15v5.607h-49.555c-8.306 0-15.04 6.716-15.04 15s6.734 15 15.04 15z" fill="#fd8f32"/><path d="m397.704 299.769h-47v-5.607c0-8.284-6.734-15-15.04-15s-15.04 6.716-15.04 15v5.607h-30.08v-5.607c0-8.284-6.734-15-15.04-15-.195 0-.383.022-.576.029v50.002h.002v.576h122.775c8.306 0 15.04-6.716 15.04-15 0-8.285-6.734-15-15.041-15z" fill="#fb6f44"/><g fill="#efebe9"><path d="m16.704 246.949c-3.979 0-7.809-1.574-10.636-4.396-2.999-2.992-4.592-7.109-4.386-11.336.025-.496.62-12.32 2.781-25.812 3.33-20.798 8.365-33.947 15.847-41.379 17.833-17.719 46.851-17.719 64.685 0 8.658 8.601 13.425 20.04 13.425 32.212 0 12.171-4.768 23.61-13.425 32.211-7.471 7.423-20.69 12.418-41.599 15.722-13.571 2.145-25.464 2.735-25.965 2.76-.243.012-.485.018-.727.018z"/><path d="m150.401 171.265c-17.348 0-31.461-14.04-31.461-31.298s14.114-31.297 31.461-31.297c17.348 0 31.462 14.039 31.462 31.297s-14.114 31.298-31.462 31.298z"/><path d="m437.61 139.967h-172.781c-29.588 0-53.66-21.366-53.66-47.63 0-15.001 8.078-29.013 21.266-37.923 0-.061 0-.122 0-.183 0-28.454 26.124-51.602 58.236-51.602 14.143 0 27.474 4.44 37.932 12.427 4.791-1.258 9.785-1.907 14.81-1.907 5.842 0 11.571.856 16.997 2.517 11.003-9.965 26.063-15.666 42.308-15.666 31.731 0 57.725 22.178 59.264 49.953 17.533 8.029 29.288 24.367 29.288 42.385 0 26.263-24.072 47.629-53.66 47.629z"/></g><path d="m461.981 49.953c-1.538-27.775-27.532-49.953-59.263-49.953-16.245 0-31.304 5.701-42.308 15.666-5.426-1.661-11.155-2.517-16.997-2.517-5.025 0-10.019.649-14.81 1.907-10.459-7.986-23.789-12.426-37.932-12.426-5.455 0-10.731.683-15.742 1.931v135.406h162.681c29.588 0 53.66-21.366 53.66-47.63 0-18.017-11.755-34.355-29.289-42.384z" fill="#d7ccc8"/></svg>