<svg id="Capa_1" enable-background="new 0 0 512 512" height="512" viewBox="0 0 512 512" width="512" xmlns="http://www.w3.org/2000/svg"><path d="m457.789 396.832h-124.812c-6.119 0-11.625-3.717-13.912-9.392l-7.907-19.616-10.142 20.627c-2.523 5.131-7.743 8.382-13.461 8.382h-233.317c-8.284 0-15-6.716-15-15v-244.46c0-8.284 6.716-15 15-15h130.554c6.72 0 12.62 4.469 14.439 10.938l5.817 20.676 16.31-24.845c2.773-4.225 7.486-6.769 12.54-6.769h223.891c8.284 0 15 6.716 15 15v244.459c0 8.284-6.716 15-15 15z" fill="#fff2de"/><path d="m457.789 122.373h-201.789v274.459h31.556c5.718 0 10.938-3.251 13.461-8.382l10.142-20.627 7.907 19.616c2.287 5.676 7.793 9.392 13.912 9.392h124.812c8.284 0 15-6.716 15-15v-244.458c-.001-8.284-6.717-15-15.001-15z" fill="#fde4c3"/><path d="m448.653 512c-8.284 0-15-6.761-15-15.102v-481.796c0-8.34 6.716-15.102 15-15.102s15 6.761 15 15.102v481.797c0 8.34-6.716 15.101-15 15.101z" fill="#b45d4a"/><path d="m448.693.002v511.996c8.266-.022 14.96-6.773 14.96-15.1v-481.796c0-8.327-6.694-15.078-14.96-15.1z" fill="#94443f"/><path d="m402.226 443.199v-46.367l7.317-14.04-7.317-15.102v-216.076l8.737-15.102-8.737-14.139v-46.268h92.935v46.268l-7.159 14.139 7.159 15.102v216.076l-9.999 15.102 9.999 14.04v46.367z" fill="#fcd1a6"/><path d="m495.161 76.105h-46.468v367.094h46.468v-46.367l-10-14.04 10-15.102v-216.076l-7.159-15.102 7.159-14.139z" fill="#fcbc89"/><path d="m402.226 122.373h92.935v29.241h-92.935z" fill="#fd8f32"/><path d="m448.693 122.373h46.467v29.241h-46.467z" fill="#fb6f44"/><path d="m402.226 367.69h92.935v29.142h-92.935z" fill="#fd8f32"/><path d="m448.693 367.69h46.467v29.142h-46.467z" fill="#fb6f44"/><path d="m499.12 458.683h-100.934c-7.113 0-12.88-6.761-12.88-15.102 0-8.34 5.767-15.102 12.88-15.102h100.934c7.113 0 12.88 6.761 12.88 15.102 0 8.34-5.767 15.102-12.88 15.102z" fill="#b45d4a"/><path d="m499.12 428.479h-50.427v30.203h50.427c7.113 0 12.88-6.761 12.88-15.102 0-8.339-5.767-15.101-12.88-15.101z" fill="#94443f"/><path d="m499.12 91.207h-100.934c-7.113 0-12.88-6.761-12.88-15.102 0-8.34 5.767-15.102 12.88-15.102h100.934c7.113 0 12.88 6.761 12.88 15.102s-5.767 15.102-12.88 15.102z" fill="#b45d4a"/><path d="m499.12 61.004h-50.427v30.203h50.427c7.113 0 12.88-6.761 12.88-15.102 0-8.34-5.767-15.101-12.88-15.101z" fill="#94443f"/><path d="m63.347 512c-8.284 0-15-6.761-15-15.102v-481.796c0-8.34 6.716-15.102 15-15.102s15 6.761 15 15.102v481.797c0 8.34-6.716 15.101-15 15.101z" fill="#b45d4a"/><path d="m63.387.002v511.996c8.266-.022 14.96-6.773 14.96-15.1v-481.796c0-8.327-6.694-15.078-14.96-15.1z" fill="#94443f"/><path d="m16.919 443.199v-45.305l7.317-15.102-7.317-15.102v-216.076l8.737-15.102-8.737-15.102v-45.305h92.935v45.305l-7.159 15.102 7.159 15.102v216.076l-9.999 15.102 9.999 15.102v45.305z" fill="#fde4c3"/><path d="m109.854 76.105h-46.467v367.098l46.467-.004v-45.306l-9.999-15.101 9.999-15.102v-216.076l-7.159-15.102 7.159-15.101z" fill="#fcd1a6"/><path d="m16.919 122.373h92.935v29.241h-92.935z" fill="#fbac5b"/><path d="m63.387 122.373h46.467v29.241h-46.467z" fill="#fd8f32"/><path d="m16.919 367.69h92.935v29.142h-92.935z" fill="#fbac5b"/><path d="m63.387 367.69h46.467v29.142h-46.467z" fill="#fd8f32"/><path d="m113.814 458.683h-100.934c-7.114 0-12.88-6.761-12.88-15.102 0-8.34 5.767-15.102 12.88-15.102h100.933c7.113 0 12.88 6.761 12.88 15.102.001 8.34-5.766 15.102-12.879 15.102z" fill="#b45d4a"/><path d="m113.814 428.479h-50.427v30.203h50.427c7.113 0 12.88-6.761 12.88-15.102 0-8.339-5.767-15.101-12.88-15.101z" fill="#94443f"/><path d="m113.814 91.207h-100.934c-7.113 0-12.88-6.761-12.88-15.102 0-8.34 5.767-15.102 12.88-15.102h100.933c7.113 0 12.88 6.761 12.88 15.102.001 8.341-5.766 15.102-12.879 15.102z" fill="#b45d4a"/><path d="m113.814 61.004h-50.427v30.203h50.427c7.113 0 12.88-6.761 12.88-15.102 0-8.34-5.767-15.101-12.88-15.101z" fill="#94443f"/></svg>