<svg id="Capa_1" enable-background="new 0 0 512.022 512.022" height="512" viewBox="0 0 512.022 512.022" width="512" xmlns="http://www.w3.org/2000/svg"><path d="m298.595 492.476h-81.73c-34.273 0-66.791-6.709-96.652-19.941-28.731-12.731-53.639-30.848-74.031-53.848-19.46-21.948-33.506-48.364-40.62-76.394-7.047-27.77-7.355-57.321-.889-85.459 6.62-28.809 13.68-73.272 9.719-121.491-.343-4.177 1.077-8.308 3.918-11.391 2.84-3.083 6.84-4.837 11.032-4.837h453.338c4.192 0 8.192 1.754 11.032 4.837s4.261 7.214 3.918 11.391c-3.962 48.219 3.099 92.682 9.719 121.491 6.466 28.138 6.159 57.689-.889 85.459-7.114 28.029-21.16 54.446-40.62 76.394-41.577 46.894-102.536 73.789-167.245 73.789z" fill="#efebe9"/><path d="m507.348 256.835c-6.62-28.809-13.68-73.272-9.719-121.491.343-4.177-1.077-8.308-3.918-11.391-2.84-3.083-6.84-4.837-11.032-4.837h-226.639v373.36h42.555c64.71 0 125.668-26.895 167.245-73.789 19.46-21.948 33.506-48.364 40.62-76.394 7.047-27.769 7.355-57.32.888-85.458z" fill="#b5a8a3"/><path d="m336.011 301.434c-8.284 0-15-6.716-15-15v-.396c0-8.284 6.716-15 15-15s15 6.716 15 15v.396c0 8.284-6.716 15-15 15z" fill="#fd8f32"/><ellipse cx="336.011" cy="286.236" fill="#fd8f32" rx="80.029" ry="80.03" transform="matrix(1 -.009 .009 1 -2.465 2.919)"/><path d="m336.011 206.206v160.059c44.128 0 80.029-35.901 80.029-80.029s-35.901-80.03-80.029-80.03z" fill="#fb6f44"/><path d="m336.011 376.265c-49.642 0-90.029-40.387-90.029-90.029 0-49.643 40.387-90.03 90.029-90.03s90.029 40.387 90.029 90.03c0 49.642-40.387 90.029-90.029 90.029zm0-150.059c-33.1 0-60.029 26.929-60.029 60.03 0 33.1 26.929 60.029 60.029 60.029s60.029-26.929 60.029-60.029c0-33.101-26.929-60.03-60.029-60.03z" fill="#53433f"/><path d="m336.011 196.206v30c33.1 0 60.029 26.929 60.029 60.03 0 33.1-26.929 60.029-60.029 60.029v30c49.642 0 90.029-40.387 90.029-90.029s-40.387-90.03-90.029-90.03z" fill="#3b2f2d"/><path d="m336.011 271.038v30.396c-8.284 0-15-6.716-15-15v-.396c0-8.284 6.716-15 15-15z" fill="#6b312e"/><path d="m336.011 271.038v30.396c8.284 0 15-6.716 15-15v-.396c0-8.284-6.716-15-15-15z" fill="#452123"/><ellipse cx="176.011" cy="286.236" fill="#fbac5b" rx="80.029" ry="80.03" transform="matrix(1 -.006 .006 1 -1.685 1.043)"/><path d="m176.011 206.206v160.059c44.128 0 80.029-35.901 80.029-80.029s-35.901-80.03-80.029-80.03z" fill="#fd8f32"/><path d="m176.011 301.434c-8.284 0-15-6.716-15-15v-.396c0-8.284 6.716-15 15-15s15 6.716 15 15v.396c0 8.284-6.716 15-15 15z" fill="#6b312e"/><path d="m176.011 271.038v30.396c8.284 0 15-6.716 15-15v-.396c0-8.284-6.716-15-15-15z" fill="#2b1314"/><path d="m176.011 376.265c-49.642 0-90.029-40.387-90.029-90.029 0-49.643 40.387-90.03 90.029-90.03s90.029 40.387 90.029 90.03c0 49.642-40.387 90.029-90.029 90.029zm0-150.059c-33.1 0-60.029 26.929-60.029 60.03 0 33.1 26.929 60.029 60.029 60.029s60.029-26.929 60.029-60.029c0-33.101-26.929-60.03-60.029-60.03z" fill="#bcaaa4"/><path d="m176.011 196.206v30c33.1 0 60.029 26.929 60.029 60.03 0 33.1-26.929 60.029-60.029 60.029v30c49.642 0 90.029-40.387 90.029-90.029s-40.387-90.03-90.029-90.03z" fill="#8f7972"/><path d="m374.892 139.803c-6.207 0-11.853-3.852-14.053-9.778l-11.298-30.423c-1.613-4.343-1.128-9.187 1.312-13.125.5-.807 12.523-19.956 36.653-37.463 22.239-16.134 59.58-34.15 111.178-28.361 7.408.831 13.082 6.977 13.319 14.428.086 2.694 1.499 66.299-51.131 94.279-1.679.892-3.511 1.458-5.4 1.666l-78.93 8.687c-.553.06-1.104.09-1.65.09z" fill="#7d655c"/><path d="m507.322 24.679-145.424 107.594c2.658 4.632 7.613 7.53 12.995 7.53.546 0 1.097-.03 1.65-.09l78.93-8.687c1.889-.208 3.722-.773 5.4-1.666 52.63-27.98 51.217-91.585 51.131-94.279-.131-4.081-1.899-7.763-4.682-10.402z" fill="#68544f"/><path d="m137.13 139.803c-.546 0-1.097-.03-1.649-.09l-78.93-8.687c-1.889-.208-3.722-.773-5.4-1.666-52.636-27.983-51.218-90.619-51.132-93.272.242-7.448 5.915-13.589 13.319-14.42 51.545-5.785 88.859 11.918 111.085 27.787 24.15 17.243 36.192 36.142 36.693 36.938 2.485 3.951 2.99 8.834 1.365 13.209l-11.298 30.423c-2.201 5.926-7.847 9.778-14.053 9.778z" fill="#866d67"/><path d="m3.746 26.687c-2.225 2.534-3.611 5.812-3.728 9.401-.086 2.653-1.504 65.29 51.131 93.272 1.679.892 3.511 1.458 5.4 1.666l78.93 8.687c.553.061 1.103.09 1.649.09 2.808 0 5.497-.795 7.808-2.207z" fill="#725d57"/><path d="m255.476 394.339c-.138 0-.276-.002-.415-.005-7.948-.216-14.347-6.598-14.585-14.545-2.157-71.997-23.893-112.02-41.747-132.918-17.241-20.18-33.525-26.229-34.956-26.729-57.751-16.169-106.23-41.329-144.103-74.785-3.444-3.042-5.303-7.495-5.046-12.082.257-4.588 2.604-8.804 6.366-11.442 1.258-.882 31.328-21.723 76.104-32.259 56.428-13.277 111.026-4.186 158.561 26.266 47.545-30.449 102.26-39.54 158.903-26.268 44.938 10.529 75.173 31.355 76.438 32.236 3.776 2.631 6.136 6.85 6.4 11.445.265 4.595-1.595 9.057-5.044 12.104-37.602 33.217-86.234 58.352-144.563 74.714-2.043.808-17.363 7.367-33.747 28.097-30.013 37.973-40.29 92.978-43.626 132.435-.658 7.785-7.174 13.736-14.94 13.736z" fill="#7d655c"/><path d="m497.396 133.253c-.265-4.595-2.624-8.814-6.4-11.445-1.265-.881-31.5-21.707-76.438-32.236-56.491-13.236-111.062-4.224-158.518 26.029v278.711c7.514-.282 13.733-6.115 14.376-13.709 3.336-39.457 13.613-94.462 43.626-132.435 16.384-20.73 31.704-27.289 33.747-28.097 58.329-16.362 106.961-41.497 144.563-74.714 3.449-3.046 5.309-7.509 5.044-12.104z" fill="#68544f"/><path d="m245.136 321.169c-6.57 0-12.6-4.349-14.444-10.988-8.529-30.696-22.869-56.013-41.468-73.214-13.065-12.083-24.096-16.323-25.534-16.843-57.962-16.239-106.502-41.391-144.279-74.761-6.209-5.485-6.796-14.964-1.312-21.173s14.964-6.796 21.173-1.312c34.438 30.421 79.145 53.454 132.881 68.461.138.039.275.079.412.122 2.515.78 61.876 20.155 87.032 110.689 2.218 7.981-2.455 16.25-10.437 18.468-1.343.373-2.695.551-4.024.551z" fill="#68544f"/><path d="m268.252 322.971c-1.404 0-2.831-.199-4.247-.616-7.946-2.343-12.489-10.683-10.146-18.629 27.276-92.535 82.355-111.441 84.687-112.201.203-.066.407-.128.612-.185 54.426-15.2 99.373-38.233 133.592-68.461 6.208-5.485 15.689-4.896 21.173 1.312 5.484 6.209 4.897 15.688-1.311 21.173-37.524 33.146-86.247 58.282-144.824 74.714-1.625.641-11.575 4.877-23.711 16.852-12.385 12.22-29.628 35.199-41.442 75.278-1.926 6.53-7.903 10.763-14.383 10.763z" fill="#3b2f2d"/><path d="m255.655 413.21c-1.244 0-2.436-.46-3.357-1.295-.322-.292-32.242-29.641-32.242-65.65s31.919-65.358 32.242-65.651c.921-.835 2.114-1.294 3.357-1.294 1.244 0 2.436.46 3.357 1.295.322.292 32.242 29.641 32.242 65.65s-31.919 65.358-32.242 65.65c-.92.835-2.113 1.295-3.357 1.295z" fill="#68544f"/><path d="m259.013 280.615c-.825-.748-1.871-1.174-2.973-1.26v133.82c1.102-.085 2.148-.512 2.973-1.259.322-.292 32.242-29.642 32.242-65.65 0-36.01-31.92-65.359-32.242-65.651z" fill="#3b2f2d"/></svg>