<svg id="Capa_1" enable-background="new 0 0 512 512" height="512" viewBox="0 0 512 512" width="512" xmlns="http://www.w3.org/2000/svg"><path d="m152.44 408.099-18.278 12.582 4.998 65.55c0 14.209 13.298 25.77 29.643 25.77h174.396c16.345 0 29.643-11.56 29.643-25.77l4.998-65.55-18.278-12.582z" fill="#acf455"/><path d="m359.56 408.099h-102.882v103.901h86.52c16.345 0 29.643-11.56 29.643-25.77l4.998-65.55z" fill="#6ed664"/><path d="m392.841 223.914c0-14.209-13.298-25.77-29.643-25.77h-40.823v-98.357c0-2.757-2.243-5-5-5h-122.749c-2.757 0-5 2.243-5 5v98.357h-40.824c-16.345 0-29.643 11.561-29.643 25.77l15.002 196.766h243.677z" fill="#d7f2f9"/><path d="m363.198 198.145h-40.823v-98.358c0-2.757-2.243-5-5-5h-60.697v325.893h121.161l15.002-196.766c0-14.209-13.298-25.769-29.643-25.769z" fill="#a1e3f9"/><path d="m256 368.099c-49.564 0-84.975-53.819-86.458-56.11-3.211-4.96-3.211-11.343 0-16.303 1.483-2.291 36.893-56.11 86.458-56.11s84.975 53.819 86.457 56.11c3.211 4.96 3.211 11.343 0 16.303-1.482 2.29-36.892 56.11-86.457 56.11zm-55.233-64.261c11.33 13.905 32.782 34.261 55.233 34.261 22.445 0 43.891-20.343 55.232-34.262-11.342-13.919-32.788-34.262-55.232-34.262-22.447 0-43.893 20.345-55.233 34.263z" fill="#2fc1e0"/><path d="m342.457 295.685c-1.476-2.28-36.572-55.61-85.78-56.099v30.008c22.198.403 43.327 20.464 54.555 34.243-11.227 13.779-32.357 33.839-54.555 34.243v30.008c49.208-.488 84.304-53.818 85.78-56.099 3.211-4.961 3.211-11.343 0-16.304z" fill="#186fa2"/><path d="m256 318.84c-6.285 0-11.981-4.065-14.115-9.952-2.128-5.871-.24-12.702 4.605-16.647 4.882-3.975 11.805-4.464 17.217-1.267 5.376 3.176 8.24 9.685 7.004 15.796-1.4 6.916-7.639 12.07-14.711 12.07z" fill="#2fc1e0"/><path d="m270.93 302.359c-.763-7.344-6.88-13.143-14.252-13.49v26.224 3.709c8.429-.441 15.122-7.956 14.252-16.443z" fill="#186fa2"/><path d="m298.232 104.787h-84.464c-8.284 0-15-6.716-15-15v-62.787c0-14.888 12.112-27 27-27h60.464c14.888 0 27 12.112 27 27v62.787c0 8.284-6.716 15-15 15z" fill="#f5997a"/><path d="m286.232 0h-29.554v104.787h41.554c8.284 0 15-6.716 15-15v-62.787c0-14.888-12.112-27-27-27z" fill="#b45d4a"/><path d="m328.103 114.787h-144.206c-8.284 0-15-6.716-15-15s6.716-15 15-15h144.206c8.284 0 15 6.716 15 15s-6.716 15-15 15z" fill="#94443f"/><path d="m328.103 84.787h-71.425v30h71.425c8.284 0 15-6.716 15-15s-6.716-15-15-15z" fill="#6b312e"/></svg>