<svg id="Capa_1" enable-background="new 0 0 512 512" height="512" viewBox="0 0 512 512" width="512" xmlns="http://www.w3.org/2000/svg"><path d="m296.434 480.602h-80.868l-130.91-86.964 48.513-194.03 122.108-77.411 114.52 69.263 57.547 202.178z" fill="#b5a8a3"/><path d="m369.797 191.46-113.768-68.809v357.951h40.406l130.909-86.964z" fill="#53433f"/><path d="m229.717 86.562c-79.784 0-145.061 67.437-145.061 149.861v193.271l130.408 82.306 1.872-117.114-52.411-58.013v-92.399l59.899 40.8 31.579 48.168 31.575-48.168 59.899-40.8v92.399l-52.411 58.013 1.87 117.114 130.408-82.306v-193.271c0-82.423-65.277-149.861-145.061-149.861z" fill="#efebe9"/><path d="m282.283 86.562h-26.254v246.838l31.548-48.126 59.898-40.8v92.399l-52.411 58.013 1.872 117.114 130.408-82.306v-193.271c0-82.424-65.277-149.861-145.061-149.861z" fill="#bcaaa4"/><path d="m221.532 169.392c-3.434 0-6.272-2.896-6.601-6.738l-13.264-154.483c-.18-2.088.437-4.176 1.692-5.729 1.254-1.552 3.043-2.442 4.909-2.442h95.464c1.867 0 3.655.89 4.909 2.442 1.255 1.553 1.872 3.64 1.692 5.728l-13.264 154.484c-.329 3.841-3.167 6.738-6.601 6.738z" fill="#fa676d"/><path d="m308.641 2.442c-1.254-1.552-3.042-2.442-4.909-2.442h-47.703v169.392h34.439c3.434 0 6.272-2.896 6.601-6.738l13.264-154.483c.18-2.088-.437-4.176-1.692-5.729z" fill="#f92f3e"/></svg>