<svg height="498pt" viewBox="0 -27 498 497" width="498pt" xmlns="http://www.w3.org/2000/svg"><g fill="#ccc033"><path d="m496.457031 384.078125c0-18.566406-14.550781-33.621094-32.496093-33.621094-17.949219 0-32.496094 15.054688-32.496094 33.621094s14.546875 33.617187 32.496094 33.617187c17.945312 0 32.496093-15.050781 32.496093-33.617187zm0 0"/><path d="m457.460938 361.890625c0-18.570313-14.550782-33.621094-32.496094-33.621094-17.949219 0-32.496094 15.050781-32.496094 33.621094 0 18.566406 14.546875 33.617187 32.496094 33.617187 17.945312 0 32.496094-15.050781 32.496094-33.617187zm0 0"/><path d="m411.964844 382.058594c0-14.851563-11.636719-26.894532-25.996094-26.894532s-26 12.042969-26 26.894532c0 14.851562 11.640625 26.894531 26 26.894531s25.996094-12.042969 25.996094-26.894531zm0 0"/><path d="m352.136719 417.929688h114.203125v-29.585938h-114.203125c-8 0-14.484375 6.488281-14.484375 14.488281v.613281c0 7.996094 6.484375 14.484376 14.484375 14.484376zm0 0"/><path d="m64.992188 384.078125c0-18.566406-14.550782-33.621094-32.496094-33.621094-17.945313 0-32.496094 15.054688-32.496094 33.621094s14.550781 33.617187 32.496094 33.617187c17.945312 0 32.496094-15.050781 32.496094-33.617187zm0 0"/><path d="m103.988281 361.890625c0-18.570313-14.550781-33.621094-32.496093-33.621094-17.945313 0-32.496094 15.050781-32.496094 33.621094 0 18.566406 14.550781 33.617187 32.496094 33.617187 17.945312 0 32.496093-15.050781 32.496093-33.617187zm0 0"/><path d="m136.484375 382.058594c0-14.851563-11.636719-26.894532-25.996094-26.894532s-26 12.042969-26 26.894532c0 14.851562 11.640625 26.894531 26 26.894531s25.996094-12.042969 25.996094-26.894531zm0 0"/><path d="m144.316406 417.929688h-114.199218v-29.585938h114.199218c8 0 14.488282 6.488281 14.488282 14.488281v.613281c0 7.996094-6.488282 14.484376-14.488282 14.484376zm0 0"/></g><path d="m164.996094 410.648438c0-18.566407-14.550782-33.617188-32.496094-33.617188s-32.496094 15.050781-32.496094 33.617188c0 18.566406 14.550782 33.617187 32.496094 33.617187s32.496094-15.050781 32.496094-33.617187zm0 0" fill="#eacf32"/><path d="m126 388.460938c0-18.566407-14.550781-33.617188-32.496094-33.617188-17.945312 0-32.496094 15.050781-32.496094 33.617188 0 18.566406 14.550782 33.617187 32.496094 33.617187 17.945313 0 32.496094-15.050781 32.496094-33.617187zm0 0" fill="#eacf32"/><path d="m80.507812 408.632812c0-14.855468-11.640624-26.894531-26-26.894531-14.359374 0-25.996093 12.039063-25.996093 26.894531 0 14.851563 11.636719 26.890626 25.996093 26.890626 14.359376 0 26-12.039063 26-26.890626zm0 0" fill="#eacf32"/><path d="m20.679688 444.5h114.199218v-29.582031h-114.199218c-8 0-14.488282 6.484375-14.488282 14.484375v.613281c0 8 6.488282 14.484375 14.488282 14.484375zm0 0" fill="#eacf32"/><path d="m404.191406 410.648438c0-18.566407-14.550781-33.617188-32.496094-33.617188-17.949218 0-32.496093 15.050781-32.496093 33.617188 0 18.566406 14.546875 33.617187 32.496093 33.617187 17.945313 0 32.496094-15.050781 32.496094-33.617187zm0 0" fill="#eacf32"/><path d="m443.1875 388.460938c0-18.566407-14.550781-33.617188-32.496094-33.617188-17.949218 0-32.496094 15.050781-32.496094 33.617188 0 18.566406 14.546876 33.617187 32.496094 33.617187 17.945313 0 32.496094-15.050781 32.496094-33.617187zm0 0" fill="#eacf32"/><path d="m475.683594 408.632812c0-14.855468-11.640625-26.894531-25.996094-26.894531-14.359375 0-26 12.039063-26 26.894531 0 14.851563 11.640625 26.890626 26 26.890626 14.355469 0 25.996094-12.039063 25.996094-26.890626zm0 0" fill="#eacf32"/><path d="m483.515625 444.5h-114.203125v-29.582031h114.203125c8 0 14.484375 6.484375 14.484375 14.484375v.613281c0 8-6.484375 14.484375-14.484375 14.484375zm0 0" fill="#eacf32"/><path d="m158.210938 443.695312h-39.6875c-2.34375 0-4.246094-1.902343-4.246094-4.246093v-369.753907h48.175781v369.753907c0 2.34375-1.898437 4.246093-4.242187 4.246093zm0 0" fill="#bf6c0d"/><path d="m382.03125 443.695312h-39.6875c-2.34375 0-4.242188-1.902343-4.242188-4.246093v-369.753907h48.175782v369.753907c0 2.34375-1.898438 4.246093-4.246094 4.246093zm0 0" fill="#bf6c0d"/><path d="m142.070312 439.628906v-369.933594h-27.792968v369.933594c0 2.246094 1.984375 4.066406 4.433594 4.066406h27.792968c-2.449218 0-4.433594-1.820312-4.433594-4.066406zm0 0" fill="#a56021"/><path d="m365.894531 439.628906v-369.933594h-27.792969v369.933594c0 2.246094 1.984376 4.066406 4.429688 4.066406h27.792969c-2.445313 0-4.429688-1.820312-4.429688-4.066406zm0 0" fill="#a56021"/><path d="m44.796875 32.0625h398.152344c3.152343 0 5.097656 4.277344 3.472656 7.636719l-19.105469 39.464843c-.730468 1.515626-2.050781 2.441407-3.472656 2.441407h-360.007812c-1.527344 0-2.925782-1.066407-3.613282-2.753907l-16.144531-39.464843c-1.371094-3.355469.585937-7.324219 3.613281-7.324219h398.710938zm0 0" fill="#ffa730"/><path d="m173.320312 56.835938c0 9.664062-7.832031 17.5-17.5 17.5-9.664062 0-17.5-7.835938-17.5-17.5 0-9.667969 7.835938-17.5 17.5-17.5 9.667969 0 17.5 7.832031 17.5 17.5zm0 0" fill="#e58d23"/><path d="m115.476562 78.851562-16.140624-39.464843c-1.375-3.355469.585937-7.324219 3.609374-7.324219h-55.253906c-3.027344 0-4.984375 3.96875-3.613281 7.324219l16.144531 39.464843c.691406 1.6875 2.085938 2.753907 3.613282 2.753907h55.257812c-1.527344 0-2.925781-1.066407-3.617188-2.753907zm0 0" fill="#e58d23"/><path d="m408.269531 70.457031h-121.347656c-3.316406 0-6-2.6875-6-6s2.683594-6 6-6h121.347656c3.316407 0 6 2.6875 6 6s-2.683593 6-6 6zm0 0" fill="#ffb74b"/><path d="m428.230469 40.566406c-9.273438 0-14.144531-4.878906-18.0625-8.796875-3.601563-3.601562-6.445313-6.449219-12.40625-6.449219-5.960938 0-8.804688 2.847657-12.40625 6.449219-3.914063 3.917969-8.789063 8.796875-18.0625 8.796875-9.273438 0-14.148438-4.878906-18.0625-8.796875-3.601563-3.601562-6.445313-6.449219-12.40625-6.449219-5.957031 0-8.800781 2.847657-12.402344 6.449219-3.914063 3.917969-8.789063 8.796875-18.0625 8.796875s-14.144531-4.878906-18.0625-8.796875c-3.597656-3.601562-6.445313-6.449219-12.402344-6.449219s-8.800781 2.847657-12.40625 6.449219c-3.914062 3.917969-8.785156 8.796875-18.058593 8.796875-9.277344 0-14.148438-4.878906-18.0625-8.796875-3.597657-3.601562-6.441407-6.449219-12.398438-6.449219s-8.800781 2.847657-12.402344 6.449219c-3.914062 3.917969-8.785156 8.796875-18.058594 8.796875-9.273437 0-14.144531-4.878906-18.0625-8.796875-3.597656-3.601562-6.441406-6.449219-12.402343-6.449219-5.957031 0-8.800781 2.847657-12.402344 6.449219-3.917969 3.917969-8.789063 8.796875-18.0625 8.796875s-14.144531-4.878906-18.0625-8.796875c-3.601563-3.601562-6.445313-6.449219-12.398437-6.449219-5.960938 0-8.804688 2.847657-12.402344 6.449219-3.914063 3.917969-8.785156 8.796875-18.0625 8.796875-2.207032 0-4-1.792968-4-4 0-2.210937 1.792968-4 4-4 5.960937 0 8.800781-2.847656 12.402344-6.453125 3.914062-3.917969 8.789062-8.792969 18.0625-8.792969 9.273437 0 14.144531 4.875 18.058593 8.792969 3.601563 3.605469 6.445313 6.453125 12.402344 6.453125s8.800781-2.847656 12.402344-6.453125c3.917969-3.917969 8.789062-8.792969 18.0625-8.792969 9.273437 0 14.148437 4.875 18.0625 8.792969 3.597656 3.605469 6.441406 6.453125 12.402343 6.453125 5.957032 0 8.800782-2.847656 12.398438-6.453125 3.917969-3.917969 8.789062-8.792969 18.0625-8.792969s14.144531 4.875 18.058594 8.792969c3.601562 3.605469 6.445312 6.453125 12.402344 6.453125 5.957031 0 8.800781-2.847656 12.402343-6.453125 3.914063-3.917969 8.789063-8.792969 18.0625-8.792969 9.273438 0 14.144531 4.875 18.0625 8.792969 3.597657 3.605469 6.445313 6.453125 12.402344 6.453125s8.800781-2.847656 12.40625-6.453125c3.914063-3.917969 8.785156-8.792969 18.058594-8.792969 9.277343 0 14.148437 4.875 18.0625 8.792969 3.601562 3.605469 6.449219 6.453125 12.40625 6.453125 5.960937 0 8.804687-2.847656 12.40625-6.453125 3.914062-3.917969 8.789062-8.792969 18.0625-8.792969 9.277343 0 14.148437 4.875 18.0625 8.792969 3.605469 3.605469 6.449219 6.453125 12.40625 6.453125 2.210937 0 4 1.789063 4 4 0 2.207032-1.789063 4-4 4zm0 0" fill="#99af17"/><path d="m188.308594 38.175781c2.96875 27.175781 25.277344 21.78125 32.238281 19.402344 1.175781-.402344 1.648437-1.914063 1.042969-3.339844-3.65625-8.613281-16.660156-35.125-32.394532-19.011719-.6875.703126-1.011718 1.785157-.886718 2.949219zm0 0" fill="#eacf32"/><path d="m300.753906 35.816406c-10.054687 16.121094 4.417969 23.414063 9.234375 25.308594.8125.320312 1.71875-.285156 2-1.335938 1.707031-6.351562 6.003907-26.710937-9.488281-25.171874-.679688.066406-1.316406.507812-1.746094 1.199218zm0 0" fill="#eacf32"/><path d="m345.59375 21.984375c2.964844-27.175781 25.277344-21.78125 32.238281-19.402344 1.175781.402344 1.648438 1.914063 1.042969 3.339844-3.65625 8.609375-16.660156 35.121094-32.398438 19.011719-.6875-.703125-1.011718-1.785156-.882812-2.949219zm0 0" fill="#eacf32"/><path d="m101.335938 30.804688c-6.441407 26.527343 16.28125 29.570312 23.605468 29.875 1.238282.050781 2.191406-1.195313 2.109375-2.75-.5-9.390626-3.6875-38.9375-23.886719-29.566407-.882812.410157-1.554687 1.308594-1.828124 2.441407zm0 0" fill="#ccc033"/><path d="m143.589844 20.46875c1.953125-21.046875 16.640625-16.871094 21.222656-15.027344.777344.308594 1.085938 1.484375.6875 2.585938-2.40625 6.667968-10.96875 27.203125-21.328125 14.726562-.453125-.546875-.664063-1.386718-.582031-2.285156zm0 0" fill="#fcda4f"/><path d="m239.96875 28.472656c1.953125-21.046875 16.640625-16.871094 21.226562-15.027344.773438.308594 1.082032 1.484376.683594 2.585938-2.40625 6.667969-10.96875 27.203125-21.328125 14.726562-.453125-.546874-.667969-1.386718-.582031-2.285156zm0 0" fill="#ccc033"/><path d="m75.03125 20.46875c1.953125-21.046875 16.644531-16.871094 21.226562-15.027344.773438.308594 1.085938 1.484375.6875 2.585938-2.40625 6.667968-10.96875 27.203125-21.328124 14.726562-.457032-.546875-.667969-1.386718-.585938-2.285156zm0 0" fill="#fcda4f"/><path d="m374.324219 35.816406c-10.054688 16.121094 4.417969 23.414063 9.234375 25.308594.816406.320312 1.722656-.285156 2.003906-1.335938 1.707031-6.351562 6.003906-26.710937-9.488281-25.171874-.679688.066406-1.320313.507812-1.75 1.199218zm0 0" fill="#eacf32"/><path d="m113.390625 423.679688c-2.207031 0-4-1.789063-4-4 0-9.457032 4.683594-14.460938 8.445313-18.488282 3.515624-3.757812 6.289062-6.722656 6.289062-13.023437s-2.773438-9.269531-6.289062-13.023438c-3.761719-4.027343-8.445313-9.035156-8.445313-18.492187 0-9.457032 4.683594-14.464844 8.445313-18.488282 3.515624-3.757812 6.289062-6.726562 6.289062-13.027343s-2.773438-9.269531-6.289062-13.027344c-3.765626-4.023437-8.445313-9.03125-8.445313-18.488281 0-9.457032 4.683594-14.464844 8.445313-18.488282 3.515624-3.757812 6.289062-6.722656 6.289062-13.023437s-2.773438-9.269531-6.289062-13.023437c-3.761719-4.023438-8.445313-9.03125-8.445313-18.488282 0-9.457031 4.679687-14.464844 8.445313-18.492187 3.515624-3.757813 6.289062-6.722657 6.289062-13.023438s-2.773438-9.269531-6.289062-13.027343c-3.761719-4.023438-8.445313-9.035157-8.445313-18.492188s4.679687-14.464844 8.445313-18.488281c3.515624-3.757813 6.289062-6.730469 6.289062-13.03125 0-6.296875-2.773438-9.265625-6.289062-13.023438-3.765626-4.023437-8.445313-9.035156-8.445313-18.492187 0-9.457032 4.679687-14.46875 8.445313-18.492188 3.515624-3.757812 6.289062-6.726562 6.289062-13.03125 0-6.300781-2.773438-9.269531-6.289062-13.027344-3.761719-4.027343-8.445313-9.035156-8.445313-18.492187 0-2.210937 1.792969-4 4-4s4 1.789063 4 4c0 6.300781 2.773437 9.269531 6.289063 13.027344 3.761718 4.023437 8.445312 9.035156 8.445312 18.492187 0 9.457032-4.679688 14.46875-8.445312 18.492188-3.515626 3.757812-6.289063 6.730468-6.289063 13.03125 0 6.300781 2.773437 9.265625 6.289063 13.027344 3.765624 4.023437 8.445312 9.03125 8.445312 18.488281 0 9.460937-4.683594 14.46875-8.445312 18.492187-3.515626 3.757813-6.289063 6.726563-6.289063 13.027344s2.773437 9.269531 6.289063 13.027344c3.765624 4.023437 8.445312 9.03125 8.445312 18.492187 0 9.457031-4.683594 14.464844-8.445312 18.492188-3.515626 3.757812-6.289063 6.726562-6.289063 13.023437 0 6.300782 2.773437 9.265625 6.289063 13.023438 3.761718 4.027344 8.445312 9.035156 8.445312 18.492187s-4.683594 14.464844-8.445312 18.488281c-3.515626 3.753907-6.289063 6.722657-6.289063 13.023438s2.773437 9.269531 6.289063 13.027344c3.761718 4.023437 8.445312 9.03125 8.445312 18.492187 0 9.457031-4.683594 14.464844-8.445312 18.488281-3.515626 3.757813-6.289063 6.726563-6.289063 13.027344 0 6.296875 2.773437 9.265625 6.289063 13.023438 3.765624 4.023437 8.445312 9.035156 8.445312 18.492187s-4.683594 14.464844-8.445312 18.488281c-3.515626 3.757813-6.289063 6.726563-6.289063 13.023438 0 2.203125-1.792969 3.992188-4 3.992188zm0 0" fill="#99af17"/><path d="m111.835938 289.691406c-26.269532-3.070312-21.054688-26.148437-18.761719-33.351562.390625-1.214844 1.855469-1.703125 3.230469-1.078125 8.324218 3.78125 33.949218 17.238281 18.378906 33.515625-.679688.710937-1.726563 1.046875-2.847656.914062zm0 0" fill="#eacf32"/><path d="m114.117188 173.367188c-15.585938 10.398437-22.632813-4.574219-24.46875-9.554688-.308594-.839844.277343-1.78125 1.292968-2.070312 6.140625-1.765626 25.820313-6.214844 24.332032 9.816406-.066407.699218-.492188 1.363281-1.15625 1.808594zm0 0" fill="#eacf32"/><path d="m127.484375 126.976562c26.269531-3.070312 21.054687-26.148437 18.757813-33.351562-.386719-1.214844-1.851563-1.703125-3.230469-1.078125-8.320313 3.78125-33.949219 17.234375-18.378907 33.515625.679688.710938 1.726563 1.046875 2.851563.914062zm0 0" fill="#eacf32"/><path d="m118.957031 379.671875c-25.640625 6.660156-28.585937-16.84375-28.875-24.425781-.050781-1.277344 1.15625-2.265625 2.65625-2.179688 9.078125.519532 37.636719 3.816406 28.578125 24.710938-.394531.914062-1.261718 1.609375-2.359375 1.894531zm0 0" fill="#fcda4f"/><path d="m128.949219 335.957031c20.34375-2.023437 16.304687-17.214843 14.527343-21.957031-.300781-.800781-1.433593-1.125-2.503906-.710938-6.445312 2.488282-26.292968 11.347657-14.234375 22.066407.53125.46875 1.339844.6875 2.210938.601562zm0 0" fill="#fcda4f"/><path d="m121.214844 236.25c20.34375-2.023438 16.304687-17.21875 14.527344-21.960938-.300782-.796874-1.433594-1.121093-2.503907-.707031-6.445312 2.488281-26.292969 11.347657-14.230469 22.066407.523438.464843 1.335938.6875 2.207032.601562zm0 0" fill="#ccc033"/><path d="m128.949219 406.882812c20.34375-2.023437 16.304687-17.21875 14.527343-21.960937-.300781-.800781-1.433593-1.121094-2.503906-.710937-6.445312 2.492187-26.292968 11.351562-14.234375 22.066406.53125.46875 1.339844.691406 2.210938.605468zm0 0" fill="#fcda4f"/><path d="m114.117188 97.253906c-15.585938 10.398438-22.632813-4.574218-24.46875-9.554687-.308594-.84375.277343-1.78125 1.292968-2.074219 6.140625-1.761719 25.820313-6.210938 24.332032 9.816406-.066407.703125-.492188 1.367188-1.15625 1.8125zm0 0" fill="#eacf32"/><path d="m384.984375 417.121094c-2.207031 0-4-1.792969-4-4 0-6.300782-2.777344-9.269532-6.289063-13.023438-3.761718-4.023437-8.449218-9.03125-8.449218-18.492187 0-9.457031 4.683594-14.460938 8.449218-18.488281 3.511719-3.757813 6.289063-6.726563 6.289063-13.027344 0-6.300782-2.777344-9.265625-6.289063-13.023438-3.761718-4.027344-8.449218-9.035156-8.449218-18.492187s4.683594-14.464844 8.449218-18.488281c3.511719-3.757813 6.289063-6.726563 6.289063-13.027344 0-6.300782-2.777344-9.269532-6.289063-13.027344-3.761718-4.023438-8.449218-9.03125-8.449218-18.488281 0-9.453125 4.6875-14.460938 8.449218-18.484375 3.511719-3.757813 6.289063-6.726563 6.289063-13.027344 0-6.296875-2.777344-9.265625-6.289063-13.023438-3.761718-4.023437-8.449218-9.035156-8.449218-18.492187s4.683594-14.464844 8.449218-18.492187c3.511719-3.757813 6.289063-6.722657 6.289063-13.027344 0-6.300782-2.777344-9.265625-6.289063-13.023438-3.761718-4.027344-8.449218-9.035156-8.449218-18.492187 0-9.460938 4.683594-14.46875 8.449218-18.492188 3.511719-3.757812 6.289063-6.726562 6.289063-13.027343 0-6.300782-2.777344-9.269532-6.289063-13.03125-3.761718-4.023438-8.449218-9.03125-8.449218-18.492188 0-9.457031 4.683594-14.464844 8.449218-18.492188 3.511719-3.757812 6.289063-6.726562 6.289063-13.027343 0-2.210938 1.792969-4 4-4s4 1.789062 4 4c0 9.457031-4.683594 14.46875-8.445313 18.492187-3.515624 3.757813-6.292968 6.726563-6.292968 13.027344 0 6.304688 2.777344 9.269531 6.292968 13.03125 3.761719 4.023438 8.445313 9.035156 8.445313 18.492188 0 9.457031-4.683594 14.464843-8.445313 18.492187-3.515624 3.757813-6.292968 6.726563-6.292968 13.027344 0 6.296875 2.777344 9.269531 6.292968 13.027343 3.761719 4.023438 8.445313 9.03125 8.445313 18.488282 0 9.457031-4.683594 14.464844-8.445313 18.492187-3.515624 3.757813-6.292968 6.726563-6.292968 13.027344s2.777344 9.265625 6.292968 13.023437c3.761719 4.027344 8.445313 9.035157 8.445313 18.492188s-4.683594 14.464844-8.445313 18.488281c-3.515624 3.757813-6.292968 6.726563-6.292968 13.023438 0 6.300781 2.777344 9.269531 6.292968 13.027343 3.761719 4.023438 8.445313 9.03125 8.445313 18.488282 0 9.457031-4.683594 14.464844-8.445313 18.492187-3.515624 3.757813-6.292968 6.722657-6.292968 13.023438s2.777344 9.269531 6.292968 13.027343c3.761719 4.023438 8.445313 9.03125 8.445313 18.488282 0 9.460937-4.683594 14.46875-8.445313 18.492187-3.515624 3.753907-6.292968 6.722657-6.292968 13.023438s2.777344 9.265625 6.292968 13.023437c3.761719 4.023438 8.445313 9.03125 8.445313 18.488282 0 2.214843-1.789063 4.003906-4 4.003906zm0 0" fill="#99af17"/><path d="m386.539062 283.132812c26.269532-3.070312 21.054688-26.148437 18.757813-33.351562-.386719-1.214844-1.851563-1.703125-3.230469-1.078125-8.320312 3.78125-33.945312 17.234375-18.375 33.515625.679688.710938 1.722656 1.042969 2.847656.914062zm0 0" fill="#eacf32"/><path d="m384.257812 166.808594c15.585938 10.398437 22.632813-4.574219 24.464844-9.554688.3125-.84375-.273437-1.78125-1.289062-2.074218-6.140625-1.761719-25.820313-6.210938-24.332032 9.816406.0625.703125.492188 1.363281 1.15625 1.8125zm0 0" fill="#eacf32"/><path d="m370.890625 120.417969c-26.269531-3.070313-21.054687-26.152344-18.757813-33.351563.386719-1.21875 1.851563-1.707031 3.230469-1.078125 8.320313 3.78125 33.945313 17.234375 18.375 33.515625-.679687.707032-1.722656 1.046875-2.847656.914063zm0 0" fill="#eacf32"/><path d="m379.414062 373.109375c25.640626 6.660156 28.589844-16.84375 28.878907-24.425781.050781-1.277344-1.15625-2.265625-2.660157-2.179688-9.074218.519532-37.636718 3.816406-28.574218 24.714844.394531.914062 1.257812 1.605469 2.355468 1.890625zm0 0" fill="#ccc033"/><path d="m369.425781 329.398438c-20.34375-2.023438-16.304687-17.21875-14.527343-21.960938.300781-.796875 1.433593-1.121094 2.5-.707031 6.449218 2.488281 26.296874 11.347656 14.234374 22.0625-.527343.46875-1.335937.691406-2.207031.605469zm0 0" fill="#fcda4f"/><path d="m377.160156 229.6875c-20.34375-2.019531-16.304687-17.214844-14.527344-21.957031.300782-.800781 1.433594-1.121094 2.5-.710938 6.445313 2.492188 26.296876 11.347657 14.234376 22.066407-.523438.46875-1.335938.6875-2.207032.601562zm0 0" fill="#ccc033"/><path d="m369.425781 400.320312c-20.34375-2.019531-16.304687-17.214843-14.527343-21.957031.300781-.800781 1.433593-1.121093 2.5-.710937 6.449218 2.492187 26.296874 11.347656 14.234374 22.066406-.527343.46875-1.335937.6875-2.207031.601562zm0 0" fill="#fcda4f"/><path d="m384.257812 90.691406c15.585938 10.402344 22.632813-4.570312 24.464844-9.550781.3125-.84375-.273437-1.78125-1.289062-2.074219-6.140625-1.761718-25.820313-6.210937-24.332032 9.816406.0625.703126.492188 1.367188 1.15625 1.808594zm0 0" fill="#eacf32"/></svg>