<svg height="464pt" viewBox="-83 0 464 464.16852" width="464pt" xmlns="http://www.w3.org/2000/svg"><path d="m161.773438 6.078125c-9.242188-8.230469-23.574219-8.085937-32.574219.332031-98.054688 91.679688-93.5 164.777344-93.5 164.777344l.347656-.003906c-.175781 3.359375-.242187 6.753906-.1875 10.175781 1.125 71.351563 52.363281 128.734375 114.4375 128.171875 62.074219-.566406 111.480469-58.863281 110.355469-130.214844-.054688-3.425781-.226563-6.816406-.507813-10.167968l.347657-.007813c-.003907.003906 2.246093-73.175781-98.71875-163.0625zm0 0" fill="#ccc033"/><path d="m95.855469 181.363281c-.050781-3.425781.011719-6.820312.1875-10.175781l-.347657.003906s-4.132812-66.359375 80.289063-151.921875c-4.496094-4.351562-9.222656-8.75-14.210937-13.1875-9.242188-8.230469-23.574219-8.085937-32.574219.328125-98.054688 91.683594-93.5 164.78125-93.5 164.78125l.347656-.003906c-.175781 3.359375-.242187 6.75-.1875 10.175781 1.125 71.347657 52.363281 128.734375 114.4375 128.167969 10.070313-.089844 19.808594-1.710938 29.050781-4.652344-47.308594-14.992187-82.558594-64.46875-83.492187-123.515625zm0 0" fill="#99af17"/><path d="m156.65625 41.582031c-5.976562-5.320312-15.242188-5.226562-21.0625.210938-63.394531 59.277343-60.449219 106.539062-60.449219 106.539062l.222657-.003906c-.109376 2.171875-.152344 4.367187-.117188 6.582031.726562 46.128906 33.851562 83.226563 73.984375 82.863282 40.132813-.363282 72.078125-38.058594 71.347656-84.1875-.03125-2.214844-.144531-4.40625-.328125-6.574219l.226563-.003907s1.449219-47.308593-63.824219-105.425781zm0 0" fill="#eacf32"/><path d="m135.246094 154.90625c-.03125-2.214844.007812-4.40625.121094-6.578125h-.222657s-2.316406-37.261719 41.542969-87.109375c-5.859375-6.363281-12.496094-12.929688-20.03125-19.636719-5.980469-5.320312-15.242188-5.226562-21.0625.210938-63.394531 59.277343-60.449219 106.539062-60.449219 106.539062l.222657-.003906c-.109376 2.171875-.152344 4.367187-.117188 6.582031.726562 46.128906 33.851562 83.226563 73.984375 82.863282 10.496094-.09375 20.421875-2.761719 29.359375-7.445313-25.09375-13.035156-42.816406-41.824219-43.347656-75.421875zm0 0" fill="#ccc033"/><path d="m192.222656 464.167969h-88.109375c-11.566406 0-20.945312-9.378907-20.945312-20.945313v-99.054687h130v99.054687c0 11.566406-9.378907 20.945313-20.945313 20.945313zm0 0" fill="#ccc033"/><path d="m143.167969 443.222656v-99.054687h-60v99.054687c0 11.566406 9.378906 20.945313 20.945312 20.945313h60c-11.566406 0-20.945312-9.378907-20.945312-20.945313zm0 0" fill="#99af17"/><path d="m238.878906 81.953125c7.417969-3.84375 16.339844-1.746094 20.277344 4.769531 42.914062 70.992188 25.460938 116.003906 25.460938 116.003906l-.214844-.046874c-.5625 2.121093-1.199219 4.25-1.917969 6.378906-14.960937 44.402344-58.421875 73.058594-97.074219 64.007812-38.652344-9.050781-57.859375-52.378906-42.898437-96.78125.71875-2.128906 1.503906-4.222656 2.347656-6.277344l-.214844-.050781c.003907-.003906 13.222657-46.015625 94.234375-88.003906zm0 0" fill="#fcda4f"/><path d="m184.511719 176.285156c.71875-2.128906 1.503906-4.226562 2.347656-6.28125l-.214844-.050781s11.164063-38.820313 75.765625-77.6875c-1.046875-1.832031-2.125-3.675781-3.253906-5.542969-3.941406-6.515625-12.859375-8.613281-20.277344-4.769531-81.011718 41.988281-94.230468 88-94.230468 88l.214843.050781c-.847656 2.054688-1.628906 4.152344-2.347656 6.28125-14.960937 44.398438 4.242187 87.730469 42.894531 96.78125 11.894532 2.78125 24.242188 1.984375 36.078125-1.730468-34.644531-11.902344-51.148437-52.988282-36.976562-95.050782zm0 0" fill="#eacf32"/><path d="m54.457031 81.953125c-7.417969-3.84375-16.339843-1.746094-20.277343 4.769531-42.917969 70.992188-25.464844 116.003906-25.464844 116.003906l.214844-.046874c.5625 2.121093 1.203124 4.25 1.917968 6.378906 14.964844 44.402344 58.425782 73.058594 97.078125 64.007812 38.652344-9.050781 57.855469-52.378906 42.894531-96.78125-.71875-2.128906-1.503906-4.222656-2.347656-6.277344l.214844-.050781c0-.003906-13.21875-46.015625-94.230469-88.003906zm0 0" fill="#fcda4f"/><path d="m52.847656 209.058594c-.71875-2.128906-1.355468-4.261719-1.917968-6.382813l-.214844.050781s-16.539063-42.679687 22.207031-110.460937c-5.730469-3.445313-11.867187-6.894531-18.46875-10.316406-7.417969-3.84375-16.339844-1.746094-20.277344 4.769531-42.914062 70.996094-25.460937 116.007812-25.460937 116.007812l.214844-.050781c.5625 2.121094 1.199218 4.25 1.917968 6.382813 14.960938 44.398437 58.421875 73.054687 97.074219 64.007812 2.035156-.476562 4-1.070312 5.925781-1.730468-26.625-8.359376-50.640625-31.539063-61-62.277344zm0 0" fill="#eacf32"/><path d="m49.335938 139.515625c-7.417969-3.84375-16.335938-1.746094-20.273438 4.769531-42.917969 70.996094-25.464844 116.007813-25.464844 116.007813l.214844-.050781c.5625 2.121093 1.199219 4.25 1.917969 6.382812 14.960937 44.398438 58.425781 73.054688 97.078125 64.003906 38.652344-9.046875 57.855468-52.378906 42.894531-96.777344-.71875-2.132812-1.503906-4.226562-2.347656-6.28125l.214843-.050781s-13.222656-46.015625-94.234374-88.003906zm0 0" fill="#eacf32"/><path d="m248.761719 139.515625c7.417969-3.84375 16.335937-1.746094 20.277343 4.769531 42.914063 70.996094 25.460938 116.007813 25.460938 116.007813l-.214844-.050781c-.5625 2.121093-1.199218 4.25-1.917968 6.382812-14.960938 44.398438-58.425782 73.054688-97.074219 64.003906-38.652344-9.046875-57.859375-52.378906-42.898438-96.777344.71875-2.132812 1.503907-4.226562 2.347657-6.28125l-.214844-.050781s13.222656-46.015625 94.234375-88.003906zm0 0" fill="#eacf32"/><g fill="#ccc033"><path d="m44.730469 266.625c-.71875-2.128906-1.355469-4.261719-1.917969-6.382812l-.21875.050781s-16.753906-43.238281 22.976562-111.792969c-5.085937-3.003906-10.484374-6.003906-16.234374-8.984375-7.417969-3.84375-16.339844-1.746094-20.277344 4.769531-42.914063 70.996094-25.464844 116.007813-25.464844 116.007813l.21875-.050781c.5625 2.121093 1.199219 4.25 1.917969 6.382812 14.960937 44.398438 58.421875 73.054688 97.074219 64.003906 1.539062-.359375 3.035156-.792968 4.507812-1.257812-27.25-7.925782-52.019531-31.402344-62.582031-62.746094zm0 0"/><path d="m188.394531 233.851562c.71875-2.132812 1.503907-4.226562 2.347657-6.28125l-.214844-.050781s11.667968-40.601562 80.234375-80.328125c-.566407-.964844-1.136719-1.929687-1.722657-2.902344-3.941406-6.515624-12.859374-8.613281-20.277343-4.769531-81.011719 41.988281-94.234375 88-94.234375 88l.21875.050781c-.847656 2.054688-1.632813 4.148438-2.347656 6.28125-14.964844 44.398438 4.242187 87.730469 42.894531 96.777344 10.851562 2.542969 22.082031 2.109375 32.957031-.808594-36.605469-10.566406-54.417969-52.753906-39.855469-95.96875zm0 0"/><path d="m191.085938 99.304688c0 9.664062-7.832032 17.5-17.5 17.5-9.664063 0-17.5-7.835938-17.5-17.5 0-9.664063 7.835937-17.5 17.5-17.5 9.667968 0 17.5 7.835937 17.5 17.5zm0 0"/><path d="m269.074219 207.078125c8.355469-2.109375 16.320312 1.851563 18.113281 9 19.507812 77.875-11.261719 117.574219-11.261719 117.574219l-.191406-.097656c-1.199219 1.929687-2.472656 3.847656-3.824219 5.746093-28.175781 39.644531-79.011718 57.90625-113.550781 40.789063-34.539063-17.121094-39.695313-63.136719-11.523437-102.78125 1.351562-1.902344 2.757812-3.753906 4.210937-5.558594l-.191406-.09375c-.003907 0 26.992187-41.578125 118.21875-64.578125zm0 0"/></g><path d="m199.914062 373.238281c-2.804687 0-5.3125-1.980469-5.875-4.835937-.644531-3.253906 1.46875-6.410156 4.71875-7.050782 20.125-3.976562 40.65625-17.75 53.589844-35.949218 1.042969-1.46875 2.054688-2.992188 3.007813-4.527344l5.152343-8.28125c1.75-2.808594 5.449219-3.675781 8.265626-1.921875 2.8125 1.75 3.671874 5.449219 1.921874 8.261719l-5.148437 8.28125c-1.085937 1.742187-2.234375 3.46875-3.417969 5.136718-14.640625 20.601563-38.03125 36.222657-61.042968 40.769532-.394532.078125-.785157.117187-1.171876.117187zm0 0" fill="#eacf32"/><path d="m194.835938 283.308594c1.351562-1.898438 2.757812-3.753906 4.210937-5.554688l-.191406-.097656s21.226562-32.6875 89.625-56.128906c-.40625-1.796875-.828125-3.609375-1.292969-5.449219-1.789062-7.148437-9.757812-11.109375-18.109375-9-91.230469 23-118.222656 64.578125-118.222656 64.578125l.191406.097656c-1.453125 1.800782-2.859375 3.652344-4.210937 5.554688-28.175782 39.644531-23.015626 85.660156 11.519531 102.78125 13.476562 6.679687 29.433593 7.949218 45.558593 4.691406-32.3125-18.054688-36.570312-62.789062-9.078124-101.472656zm0 0" fill="#99af17"/><path d="m27.257812 207.078125c-8.355468-2.109375-16.320312 1.851563-18.113281 9-19.507812 77.875 11.261719 117.574219 11.261719 117.574219l.191406-.097656c1.199219 1.929687 2.472656 3.847656 3.824219 5.746093 28.175781 39.644531 79.011719 57.90625 113.550781 40.789063 34.539063-17.121094 39.695313-63.136719 11.523438-102.78125-1.351563-1.902344-2.757813-3.753906-4.210938-5.558594l.191406-.09375c.003907 0-26.988281-41.578125-118.21875-64.578125zm0 0" fill="#ccc033"/><path d="m60.421875 339.300781c-1.351563-1.898437-2.625-3.816406-3.824219-5.746093l-.191406.097656s-30.769531-39.699219-11.257812-117.574219c.324218-1.292969.851562-2.476563 1.546874-3.542969-6.128906-1.90625-12.601562-3.734375-19.4375-5.457031-8.351562-2.109375-16.320312 1.851563-18.109374 9-19.511719 77.875 11.257812 117.574219 11.257812 117.574219l.191406-.097656c1.203125 1.929687 2.472656 3.847656 3.824219 5.746093 25.164063 35.40625 68.390625 53.730469 101.949219 45.058594-24.535156-5.539063-49.230469-21.535156-65.949219-45.058594zm0 0" fill="#99af17"/><path d="m138.085938 353.777344c0 9.664062-7.832032 17.5-17.5 17.5-9.664063 0-17.5-7.835938-17.5-17.5 0-9.664063 7.835937-17.5 17.5-17.5 9.667968 0 17.5 7.835937 17.5 17.5zm0 0" fill="#99af17"/></svg>