<svg height="452pt" viewBox="0 -5 452.11528 452" width="452pt" xmlns="http://www.w3.org/2000/svg"><path d="m13.796875.40625c-4.78125-1.375-8.871094 1.429688-9.296875 6.386719-4.628906 53.960937 15.503906 81.09375 15.503906 81.09375l.097656-.066407c.8125 1.320313 1.667969 2.632813 2.566407 3.933594 18.699219 27.121094 48.226562 39.265625 65.960937 27.125 17.726563-12.140625 16.945313-43.96875-1.75-71.089844-.898437-1.300781-1.820312-2.566406-2.761718-3.800781l.097656-.066406s-18.199219-28.46875-70.417969-43.515625zm0 0" fill="#99af17"/><g fill="#ccc033"><path d="m18.996094 11.179688c-2.722656-.582032-5.203125 1.121093-5.636719 3.871093-4.722656 29.921875 5.9375 44.125 5.9375 44.125l.058594-.042969c.421875.699219.871093 1.390626 1.34375 2.074219 9.824219 14.246094 26.503906 19.832031 37.25 12.46875 10.746093-7.359375 11.492187-24.878906 1.667969-39.125-.472657-.683593-.960938-1.347656-1.460938-1.992187l.0625-.042969c-.003906 0-9.488281-15.007813-39.222656-21.335937zm0 0"/><path d="m18.996094 11.179688c-2.722656-.582032-5.203125 1.121093-5.636719 3.871093-4.722656 29.921875 5.9375 44.125 5.9375 44.125l.058594-.042969c.421875.699219.871093 1.390626 1.34375 2.074219 9.824219 14.246094 26.503906 19.832031 37.25 12.46875 10.746093-7.359375 11.492187-24.878906 1.667969-39.125-.472657-.683593-.960938-1.347656-1.460938-1.992187l.0625-.042969c-.003906 0-9.488281-15.007813-39.222656-21.335937zm0 0"/><path d="m266.40625 405.542969 18.273438-12.234375c7.808593-5.230469 9.96875-15.636719 4.796874-23.121094l-198.128906-286.777344c-6.855468-9.921875-20.679687-12.324218-31.03125-5.394531-10.355468 6.933594-13.398437 20.632813-6.832031 30.75l189.71875 292.410156c4.949219 7.632813 15.390625 9.597657 23.203125 4.367188zm0 0"/></g><path d="m268.128906 384.480469-189.71875-292.410157c-3.539062-5.453124-4.28125-11.949218-2.59375-17.863281-5.222656-.59375-10.730468.613281-15.5 3.808594-10.355468 6.933594-13.398437 20.628906-6.832031 30.746094l189.71875 292.410156c4.949219 7.632813 15.390625 9.601563 23.203125 4.371094l18.273438-12.238281c1.148437-.769532 2.160156-1.660157 3.058593-2.628907-7.171875 2.6875-15.386719.316407-19.609375-6.195312zm0 0" fill="#99af17"/><path d="m56.214844 94.441406c-10.542969 0-22.085938-6.320312-29.734375-17.410156-.363281-.527344-.714844-1.058594-1.050781-1.597656-.089844-.097656-.175782-.199219-.253907-.300782-.476562-.636718-11.621093-15.914062-6.691406-47.152343.382813-2.421875 1.675781-4.5 3.640625-5.851563 1.964844-1.351562 4.378906-1.824218 6.777344-1.308594 31.027344 6.605469 41.34375 22.445313 41.769531 23.117188.070313.117188.136719.230469.199219.351562.378906.503907.753906 1.019532 1.117187 1.546876 6.238281 9.050781 8.824219 19.601562 7.09375 28.949218-1.257812 6.773438-4.644531 12.21875-9.792969 15.75-3.871093 2.644532-8.375 3.90625-13.074218 3.90625zm-24.914063-24.53125c.207031.207032.390625.445313.546875.699219.382813.628906.789063 1.257813 1.214844 1.875 8.5625 12.425781 22.785156 17.558594 31.699219 11.449219 3.363281-2.300782 5.589843-5.96875 6.453125-10.609375 1.328125-7.164063-.847656-15.742188-5.816406-22.949219-.429688-.621094-.871094-1.222656-1.324219-1.804688-.191407-.246093-.351563-.511718-.480469-.789062-1.808594-2.375-11.707031-13.886719-36.355469-19.132812h.003907c-.171876-.035157-.40625-.050782-.582032.074218-.179687.121094-.246094.339844-.273437.503906-3.917969 24.839844 3.347656 38.164063 4.914062 40.683594zm0 0"/><path d="m18.996094 11.179688c-2.722656-.582032-5.203125 1.121093-5.636719 3.871093-4.722656 29.921875 5.9375 44.125 5.9375 44.125l.058594-.042969c.421875.699219.871093 1.390626 1.34375 2.074219 9.824219 14.246094 26.503906 19.832031 37.25 12.46875 10.746093-7.359375 11.492187-24.878906 1.667969-39.125-.472657-.683593-.960938-1.347656-1.460938-1.992187l.0625-.042969c-.003906 0-9.488281-15.007813-39.222656-21.335937zm0 0" fill="#ccc033"/><path d="m111.691406 152.90625c-1.171875-.238281-2.242187.5-2.4375 1.675781-2.136718 12.828125 2.410156 18.871094 2.410156 18.871094l.023438-.015625c.183594.296875.371094.589844.570312.878906 4.1875 6.066406 11.351563 8.402344 16.007813 5.214844 4.652344-3.1875 5.035156-10.6875.851563-16.753906-.203126-.292969-.410157-.574219-.625-.851563l.027343-.015625c-.003906 0-4.039062-6.394531-16.828125-9.003906zm0 0" fill="#fcda4f"/><path d="m120.527344 215.957031c-1.203125.070313-2.054688 1.050781-1.9375 2.230469 1.285156 12.835938 7.292968 17.464844 7.292968 17.464844l.019532-.023438c.253906.238282.515625.46875.789062.699219 5.664063 4.742187 13.253906 5.144531 16.953125.902344 3.695313-4.246094 2.097657-11.527344-3.566406-16.269531-.273437-.230469-.550781-.445313-.828125-.652344l.019531-.023438c0-.003906-5.605469-5.097656-18.742187-4.328125zm0 0" fill="#ffd551"/><path d="m188.058594 223.347656c.523437-1.085937 1.753906-1.5 2.796875-.941406 11.382812 6.074219 13.371093 13.394531 13.371093 13.394531l-.03125.007813c.125.324218.242188.65625.351563.996094 2.226563 7.042968-.292969 14.214843-5.625 16.015624-5.332031 1.804688-11.457031-2.445312-13.683594-9.492187-.105469-.339844-.203125-.675781-.289062-1.015625l-.03125.011719s-2.574219-7.121094 3.140625-18.976563zm0 0" fill="#fcda4f"/><path d="m200.636719 285.730469c-1.171875-.238281-2.242188.5-2.441407 1.675781-2.132812 12.828125 2.410157 18.871094 2.410157 18.871094l.027343-.019532c.179688.300782.371094.59375.570313.882813 4.1875 6.066406 11.351563 8.402344 16.007813 5.214844 4.652343-3.1875 5.03125-10.6875.847656-16.757813-.199219-.289062-.40625-.570312-.621094-.847656l.027344-.015625s-4.039063-6.394531-16.828125-9.003906zm0 0" fill="#fcda4f"/><path d="m209.472656 348.78125c-1.203125.070312-2.058594 1.050781-1.9375 2.230469 1.28125 12.835937 7.292969 17.464843 7.292969 17.464843l.019531-.023437c.253906.238281.515625.46875.789063.699219 5.664062 4.742187 13.253906 5.144531 16.949219.902344 3.699218-4.246094 2.101562-11.527344-3.566407-16.269532-.269531-.230468-.546875-.445312-.828125-.652344l.023438-.023437c0-.003906-5.605469-5.097656-18.742188-4.328125zm0 0" fill="#ffd551"/><path d="m52.117188 17.414062c1.199218-2.535156 4.042968-3.492187 6.464843-2.171874 26.394531 14.382812 31.082031 31.5625 31.082031 31.5625l-.070312.023437c.292969.765625.566406 1.542969.816406 2.335937 5.234375 16.542969-.507812 33.324219-12.820312 37.484376-12.3125 4.160156-26.535156-5.878907-31.769532-22.421876-.25-.796874-.476562-1.589843-.675781-2.382812l-.070312.023438s-6.039063-16.730469 7.042969-44.453126zm0 0" fill="#eacf32"/><path d="m69.59375 25.34375c1.199219-2.539062 4.042969-3.496094 6.464844-2.175781 26.394531 14.382812 31.082031 31.566406 31.082031 31.566406l-.066406.023437c.292969.765626.5625 1.542969.8125 2.335938 5.234375 16.542969-.503907 33.324219-12.816407 37.484375-12.3125 4.15625-26.539062-5.878906-31.769531-22.425781-.253906-.792969-.476562-1.585938-.679687-2.378906l-.066406.023437c0-.003906-6.042969-16.734375 7.039062-44.453125zm0 0" fill="#ccc033"/><path d="m87.804688 28.445312c2.175781-2.597656 5.746093-2.84375 8.117187-.558593 25.824219 24.910156 25.8125 46.433593 25.8125 46.433593l-.085937.003907c.09375.984375.164062 1.976562.199218 2.980469.816406 20.941406-11.066406 38.792968-26.535156 39.875-15.46875 1.078124-28.667969-15.019532-29.480469-35.960938-.039062-1.003906-.046875-2-.03125-2.992188l-.085937.007813c.003906 0-1.679688-21.410156 22.089844-49.789063zm0 0" fill="#eacf32"/><path d="m100.4375 105.179688c-1.933594 0-3.832031-.933594-4.988281-2.660157-1.847657-2.753906-1.109375-6.480469 1.644531-8.324219 1.6875-1.128906 5.269531-6.511718 4.933594-15.144531-.019532-.527343-.054688-1.058593-.109375-1.585937l-.292969-3.199219c-.609375-2.78125-2.65625-9.539063-9.167969-18.167969-1.996093-2.644531-1.46875-6.40625 1.175781-8.402344 2.644532-1.996093 6.40625-1.472656 8.402344 1.175782 7.941406 10.523437 10.558594 19.113281 11.410156 23.296875.042969.214843.078126.433593.097657.648437l.324219 3.519532c.070312.742187.125 1.511718.152343 2.257812.421875 10.898438-3.695312 21.183594-10.246093 25.570312-1.023438.6875-2.183594 1.015626-3.335938 1.015626zm0 0" fill="#fcda4f"/><path d="m7.238281 47.46875c-2.804687.144531-4.769531 2.40625-4.472656 5.148438 3.246094 29.882812 17.347656 40.761718 17.347656 40.761718l.046875-.054687c.59375.5625 1.210938 1.109375 1.851563 1.644531 13.304687 11.140625 31.003906 12.222656 39.539062 2.421875 8.535157-9.804687 4.667969-26.777344-8.632812-37.917969-.640625-.53125-1.289063-1.046875-1.945313-1.53125l.046875-.054687s-13.171875-11.957031-43.78125-10.417969zm0 0" fill="#eacf32"/><path d="m7.910156 66.648438c-2.800781.144531-4.769531 2.40625-4.472656 5.148437 3.246094 29.882813 17.351562 40.761719 17.351562 40.761719l.046876-.054688c.59375.5625 1.210937 1.109375 1.847656 1.644532 13.304687 11.140624 31.007812 12.222656 39.542968 2.421874 8.53125-9.804687 4.667969-26.777343-8.636718-37.917968-.636719-.53125-1.285156-1.042969-1.941406-1.53125l.046874-.054688s-13.171874-11.957031-43.785156-10.417968zm0 0" fill="#ccc033"/><path d="m53.589844 78.652344c-.261719-.214844-.53125-.417969-.792969-.625-6.433594-2.109375-22.886719-5.636719-48.179687 1.675781 4.589843 23.917969 16.171874 32.855469 16.171874 32.855469l.046876-.054688c.59375.558594 1.210937 1.109375 1.847656 1.640625 13.304687 11.140625 31.007812 12.226563 39.542968 2.421875 8.535157-9.800781 4.667969-26.773437-8.636718-37.914062zm0 0" fill="#99af17"/><path d="m4.011719 84.554688c-3.230469 1.019531-4.816407 4.230468-3.605469 7.292968 13.195312 33.367188 33.101562 41.550782 33.101562 41.550782l.039063-.078126c.871094.460938 1.761719.902344 2.675781 1.320313 19.054688 8.726563 40.085938 4.539063 46.972656-9.351563 6.890626-13.890624-2.96875-32.226562-22.019531-40.953124-.914062-.417969-1.835937-.808594-2.757812-1.167969l.039062-.078125c.003907.003906-19.152343-9.703125-54.445312 1.464844zm0 0" fill="#eacf32"/><path d="m72.015625 102.855469c0 9.664062-7.832031 17.5-17.5 17.5-9.664063 0-17.5-7.835938-17.5-17.5 0-9.667969 7.835937-17.5 17.5-17.5 9.667969 0 17.5 7.832031 17.5 17.5zm0 0" fill="#ccc033"/><path d="m49.511719 122.132812c-.914063-.417968-1.804688-.859374-2.679688-1.320312l-.035156.078125s-18.960937-7.808594-32.140625-39.203125c-3.367188.75-6.910156 1.683594-10.644531 2.867188-3.230469 1.019531-4.816407 4.230468-3.605469 7.292968 13.195312 33.367188 33.101562 41.550782 33.101562 41.550782l.039063-.078126c.871094.460938 1.761719.902344 2.675781 1.320313 19.054688 8.726563 40.085938 4.539063 46.972656-9.351563.199219-.394531.375-.796874.546876-1.199218-9.53125 3.910156-22.269532 3.523437-34.230469-1.957032zm0 0" fill="#ccc033"/><path d="m200.632812 306.257812c.179688.296876.371094.59375.570313.882813 4.1875 6.070313 11.351563 8.402344 16.007813 5.214844 1.007812-.691407 1.804687-1.597657 2.410156-2.636719l-14.878906-22.933594c-1.257813-.390625-2.617188-.746094-4.105469-1.054687-1.171875-.238281-2.246094.5-2.441407 1.675781-2.132812 12.828125 2.410157 18.871094 2.410157 18.871094zm0 0" fill="#ffd551"/><path d="m111.6875 173.433594c.183594.296875.371094.59375.570312.882812 4.1875 6.066406 11.351563 8.402344 16.007813 5.214844 1.796875-1.230469 2.949219-3.109375 3.457031-5.292969l-12.289062-18.941406c-2.125-.917969-4.675782-1.765625-7.742188-2.390625-1.167968-.238281-2.242187.5-2.4375 1.675781-2.132812 12.828125 2.410156 18.871094 2.410156 18.871094zm0 0" fill="#ffd551"/><path d="m173.621094 34.195312c-4.78125-1.378906-8.871094 1.429688-9.296875 6.382813-4.632813 53.964844 15.503906 81.09375 15.503906 81.09375l.097656-.066406c.8125 1.320312 1.667969 2.632812 2.566407 3.933593 18.695312 27.121094 48.226562 39.265626 65.960937 27.125 17.726563-12.136718 16.945313-43.964843-1.75-71.089843-.898437-1.300781-1.820313-2.566407-2.765625-3.796875l.101562-.070313c0 .003907-18.199218-28.46875-70.417968-43.511719zm0 0" fill="#99af17"/><path d="m178.820312 44.964844c-2.722656-.578125-5.203124 1.121094-5.636718 3.871094-4.722656 29.925781 5.9375 44.125 5.9375 44.125l.058594-.042969c.421874.699219.871093 1.390625 1.34375 2.074219 9.824218 14.246093 26.503906 19.832031 37.25 12.472656 10.746093-7.363282 11.492187-24.882813 1.667968-39.128906-.472656-.683594-.960937-1.347657-1.460937-1.992188l.0625-.039062c-.003907 0-9.488281-15.011719-39.222657-21.339844zm0 0" fill="#ccc033"/><path d="m178.820312 44.964844c-2.722656-.578125-5.203124 1.121094-5.636718 3.871094-4.722656 29.925781 5.9375 44.125 5.9375 44.125l.058594-.042969c.421874.699219.871093 1.390625 1.34375 2.074219 9.824218 14.246093 26.503906 19.832031 37.25 12.472656 10.746093-7.363282 11.492187-24.882813 1.667968-39.128906-.472656-.683594-.960937-1.347657-1.460937-1.992188l.0625-.039062c-.003907 0-9.488281-15.011719-39.222657-21.339844zm0 0" fill="#ccc033"/><path d="m426.230469 439.328125 18.273437-12.234375c7.808594-5.230469 9.96875-15.632812 4.796875-23.121094l-198.128906-286.777344c-6.855469-9.921874-20.679687-12.324218-31.03125-5.390624-10.355469 6.929687-13.398437 20.628906-6.832031 30.746093l189.714844 292.410157c4.953124 7.632812 15.394531 9.597656 23.207031 4.367187zm0 0" fill="#ccc033"/><path d="m427.953125 418.265625-189.71875-292.40625c-3.539063-5.457031-4.28125-11.953125-2.59375-17.867187-5.222656-.59375-10.730469.617187-15.5 3.808593-10.355469 6.933594-13.398437 20.628907-6.832031 30.75l189.714844 292.410157c4.953124 7.628906 15.394531 9.597656 23.207031 4.367187l18.273437-12.238281c1.148438-.769532 2.160156-1.660156 3.058594-2.625-7.171875 2.683594-15.386719.3125-19.609375-6.199219zm0 0" fill="#99af17"/><path d="m216.035156 128.222656c-10.542968 0-22.082031-6.316406-29.730468-17.40625-.367188-.527344-.714844-1.058594-1.050782-1.59375-.089844-.097656-.175781-.199218-.257812-.308594-.476563-.632812-11.617188-15.910156-6.6875-47.148437.382812-2.425781 1.675781-4.503906 3.644531-5.855469 1.964844-1.351562 4.378906-1.816406 6.773437-1.300781 31.027344 6.601563 41.34375 22.441406 41.769532 23.113281.074218.117188.140625.234375.199218.355469.378907.503906.75 1.019531 1.117188 1.546875 6.238281 9.042969 8.824219 19.597656 7.09375 28.941406-1.257812 6.777344-4.644531 12.222656-9.796875 15.753906-3.871094 2.644532-8.375 3.902344-13.074219 3.902344zm-24.941406-24.558594c.222656.21875.421875.46875.585938.738282.382812.632812.789062 1.257812 1.210937 1.878906 8.5625 12.414062 22.78125 17.542969 31.695313 11.4375 3.359374-2.300781 5.589843-5.96875 6.453124-10.609375 1.328126-7.164063-.847656-15.742187-5.816406-22.949219-.425781-.621094-.871094-1.21875-1.324218-1.804687-.191407-.246094-.355469-.519531-.484376-.796875-1.824218-2.386719-11.722656-13.882813-36.347656-19.128906h-.003906c-.164062-.035157-.398438-.046876-.578125.074218-.175781.121094-.246094.34375-.269531.507813-3.960938 25.070312 3.285156 38.144531 4.878906 40.652343zm0 0"/><path d="m178.820312 44.964844c-2.722656-.578125-5.203124 1.121094-5.636718 3.871094-4.722656 29.925781 5.9375 44.125 5.9375 44.125l.058594-.042969c.421874.699219.871093 1.390625 1.34375 2.074219 9.824218 14.246093 26.503906 19.832031 37.25 12.472656 10.746093-7.363282 11.492187-24.882813 1.667968-39.128906-.472656-.683594-.960937-1.347657-1.460937-1.992188l.0625-.039062c-.003907 0-9.488281-15.011719-39.222657-21.339844zm0 0" fill="#ccc033"/><path d="m271.515625 186.695312c-1.171875-.238281-2.242187.496094-2.4375 1.675782-2.136719 12.824218 2.410156 18.867187 2.410156 18.867187l.023438-.015625c.179687.296875.371093.589844.570312.882813 4.1875 6.0625 11.351563 8.398437 16.007813 5.210937 4.652344-3.1875 5.035156-10.6875.847656-16.753906-.199219-.292969-.40625-.574219-.621094-.847656l.027344-.019532c-.003906 0-4.039062-6.394531-16.828125-9zm0 0" fill="#fcda4f"/><path d="m280.351562 249.742188c-1.203124.070312-2.054687 1.054687-1.9375 2.230468 1.28125 12.835938 7.292969 17.464844 7.292969 17.464844l.019531-.023438c.253907.238282.515626.472657.789063.699219 5.664063 4.742188 13.253906 5.144531 16.953125.902344 3.695312-4.242187 2.097656-11.527344-3.566406-16.269531-.273438-.230469-.550782-.445313-.828125-.652344l.019531-.023438c0-.003906-5.605469-5.097656-18.742188-4.328124zm0 0" fill="#ffd551"/><path d="m347.882812 257.132812c.523438-1.085937 1.753907-1.5 2.796876-.941406 11.382812 6.074219 13.371093 13.394532 13.371093 13.394532l-.03125.007812c.125.324219.242188.65625.351563.996094 2.226562 7.042968-.292969 14.214844-5.625 16.019531-5.332032 1.800781-11.457032-2.449219-13.683594-9.496094-.105469-.335937-.203125-.675781-.289062-1.015625l-.03125.011719c0 .003906-2.578126-7.121094 3.140624-18.976563zm0 0" fill="#fcda4f"/><path d="m360.460938 319.515625c-1.171876-.234375-2.242188.5-2.441407 1.679687-2.132812 12.824219 2.410157 18.867188 2.410157 18.867188l.027343-.015625c.179688.296875.371094.589844.570313.878906 4.1875 6.066407 11.351562 8.402344 16.007812 5.214844 4.652344-3.1875 5.03125-10.6875.847656-16.753906-.199218-.292969-.40625-.574219-.621093-.847657l.027343-.019531c-.003906.003907-4.039062-6.390625-16.828124-9.003906zm0 0" fill="#fcda4f"/><path d="m369.296875 382.566406c-1.203125.070313-2.058594 1.054688-1.941406 2.230469 1.285156 12.835937 7.296875 17.464844 7.296875 17.464844l.019531-.023438c.253906.238281.515625.472657.789063.699219 5.664062 4.742188 13.253906 5.144531 16.949218.902344 3.695313-4.246094 2.101563-11.527344-3.566406-16.269532-.269531-.230468-.546875-.445312-.828125-.652343l.023437-.023438c0-.003906-5.605468-5.097656-18.742187-4.328125zm0 0" fill="#ffd551"/><path d="m211.941406 51.203125c1.199219-2.539063 4.042969-3.496094 6.464844-2.175781 26.394531 14.382812 31.082031 31.5625 31.082031 31.5625l-.070312.027344c.292969.761718.566406 1.539062.816406 2.335937 5.234375 16.539063-.507813 33.324219-12.820313 37.484375-12.3125 4.15625-26.535156-5.882812-31.769531-22.425781-.25-.792969-.476562-1.589844-.675781-2.382813l-.070312.023438s-6.039063-16.730469 7.042968-44.449219zm0 0" fill="#eacf32"/><path d="m229.417969 59.128906c1.199219-2.539062 4.042969-3.492187 6.464843-2.171875 26.394532 14.378907 31.082032 31.5625 31.082032 31.5625l-.066406.023438c.289062.765625.5625 1.542969.8125 2.335937 5.234374 16.542969-.503907 33.324219-12.816407 37.484375-12.3125 4.160157-26.539062-5.878906-31.769531-22.421875-.253906-.796875-.476562-1.589844-.679688-2.382812l-.066406.023437c0-.003906-6.042968-16.734375 7.039063-44.453125zm0 0" fill="#ccc033"/><path d="m247.625 62.230469c2.175781-2.597657 5.75-2.84375 8.117188-.558594 25.828124 24.910156 25.816406 46.433594 25.816406 46.433594l-.085938.007812c.09375.980469.164063 1.972657.199219 2.976563.816406 20.941406-11.066406 38.792968-26.535156 39.875-15.46875 1.082031-28.667969-15.015625-29.480469-35.960938-.039062-1.003906-.050781-2-.03125-2.992187l-.085938.007812s-1.679687-21.40625 22.085938-49.789062zm0 0" fill="#eacf32"/><path d="m260.265625 138.964844c-1.9375 0-3.835937-.933594-4.992187-2.664063-1.84375-2.753906-1.105469-6.480469 1.648437-8.324219 1.683594-1.125 5.265625-6.507812 4.929687-15.144531-.019531-.507812-.050781-1.046875-.105468-1.582031l-.292969-3.195312c-.613281-2.78125-2.65625-9.542969-9.171875-18.171876-1.996094-2.644531-1.46875-6.40625 1.175781-8.402343 2.636719-1.996094 6.402344-1.476563 8.402344 1.171875 7.945313 10.527344 10.558594 19.121094 11.414063 23.304687.042968.210938.074218.429688.097656.648438l.320312 3.515625c.070313.738281.125 1.5.152344 2.238281.421875 10.925781-3.695312 21.203125-10.246094 25.589844-1.027344.6875-2.1875 1.015625-3.332031 1.015625zm0 0" fill="#fcda4f"/><path d="m167.0625 81.253906c-2.804688.144532-4.769531 2.40625-4.472656 5.148438 3.246094 29.882812 17.347656 40.761718 17.347656 40.761718l.046875-.050781c.59375.558594 1.210937 1.105469 1.851563 1.640625 13.304687 11.140625 31.003906 12.222656 39.539062 2.421875s4.667969-26.777343-8.632812-37.917969c-.640626-.53125-1.289063-1.042968-1.945313-1.53125l.046875-.054687s-13.171875-11.957031-43.78125-10.417969zm0 0" fill="#eacf32"/><path d="m167.734375 100.4375c-2.800781.140625-4.769531 2.402344-4.472656 5.144531 3.246093 29.882813 17.347656 40.761719 17.347656 40.761719l.050781-.050781c.59375.558593 1.210938 1.105469 1.847656 1.640625 13.304688 11.140625 31.007813 12.222656 39.542969 2.421875 8.53125-9.800781 4.667969-26.777344-8.636719-37.914063-.636718-.535156-1.285156-1.046875-1.941406-1.535156l.046875-.054688c-.003906 0-13.171875-11.957031-43.785156-10.414062zm0 0" fill="#ccc033"/><path d="m213.414062 112.441406c-.261718-.21875-.53125-.417968-.796874-.628906-6.433594-2.109375-22.886719-5.636719-48.179688 1.675781 4.589844 23.917969 16.171875 32.855469 16.171875 32.855469l.046875-.054688c.59375.558594 1.214844 1.109376 1.851562 1.640626 13.304688 11.140624 31.003907 12.226562 39.539063 2.425781s4.671875-26.777344-8.632813-37.914063zm0 0" fill="#99af17"/><path d="m163.835938 118.339844c-3.234376 1.023437-4.820313 4.230468-3.605469 7.292968 13.195312 33.367188 33.101562 41.550782 33.101562 41.550782l.039063-.078125c.871094.460937 1.761718.902343 2.675781 1.320312 19.050781 8.726563 40.085937 4.542969 46.972656-9.351562 6.890625-13.890625-2.96875-32.226563-22.019531-40.953125-.914062-.417969-1.835938-.808594-2.757812-1.164063l.039062-.078125c.003906 0-19.152344-9.707031-54.445312 1.460938zm0 0" fill="#eacf32"/><path d="m231.839844 136.640625c0 9.664063-7.832032 17.5-17.5 17.5-9.664063 0-17.5-7.835937-17.5-17.5 0-9.667969 7.835937-17.5 17.5-17.5 9.667968 0 17.5 7.832031 17.5 17.5zm0 0" fill="#ccc033"/><path d="m209.335938 155.917969c-.914063-.417969-1.808594-.859375-2.679688-1.320313l-.035156.078125s-18.960938-7.808593-32.140625-39.203125c-3.371094.75-6.910157 1.683594-10.644531 2.867188-3.230469 1.023437-4.816407 4.230468-3.605469 7.292968 13.195312 33.367188 33.101562 41.550782 33.101562 41.550782l.039063-.078125c.871094.460937 1.761718.902343 2.675781 1.320312 19.054687 8.726563 40.085937 4.542969 46.972656-9.351562.199219-.394531.375-.792969.546875-1.195313-9.53125 3.90625-22.269531 3.519532-34.230468-1.960937zm0 0" fill="#ccc033"/><path d="m360.457031 340.046875c.179688.292969.367188.589844.566407.878906 4.1875 6.070313 11.355468 8.402344 16.007812 5.214844 1.011719-.691406 1.808594-1.59375 2.410156-2.636719l-14.878906-22.933594c-1.257812-.390624-2.617188-.746093-4.105469-1.054687-1.167969-.234375-2.242187.5-2.441406 1.679687-2.132813 12.824219 2.410156 18.867188 2.410156 18.867188zm0 0" fill="#ffd551"/><path d="m271.511719 207.21875c.179687.296875.371093.59375.570312.882812 4.183594 6.066407 11.351563 8.402344 16.003907 5.214844 1.796874-1.230468 2.953124-3.109375 3.457031-5.292968l-12.289063-18.941407c-2.121094-.921875-4.671875-1.765625-7.738281-2.390625-1.171875-.238281-2.246094.5-2.441406 1.675782-2.132813 12.828124 2.410156 18.871093 2.410156 18.871093zm0 0" fill="#ffd551"/></svg>