<svg height="481pt" viewBox="-54 0 481 481.17446" width="481pt" xmlns="http://www.w3.org/2000/svg"><path d="m163.207031 357.847656c-1.210937 0-2.410156-.546875-3.195312-1.589844l-59.75-79.121093c-1.332031-1.761719-.984375-4.273438.78125-5.601563 1.765625-1.335937 4.273437-.980468 5.601562.78125l59.753907 79.121094c1.332031 1.761719.980468 4.273438-.785157 5.601562-.71875.546876-1.566406.808594-2.40625.808594zm0 0" fill="#eacf32"/><path d="m104.980469 269.578125c-8.359375-4.828125-27.160157 12.078125-41.992188 37.765625-14.828125 25.683594-20.070312 50.417969-11.707031 55.246094 8.359375 4.828125 27.160156-12.078125 41.992188-37.761719 14.828124-25.6875 20.070312-50.421875 11.707031-55.25zm0 0" fill="#ccc033"/><path d="m83.996094 307.339844c7.820312-13.546875 16.746094-24.644532 24.660156-31.40625-.523438-3.03125-1.722656-5.238282-3.664062-6.359375-8.363282-4.828125-27.164063 12.082031-41.992188 37.765625-14.832031 25.683594-20.074219 50.417968-11.710938 55.246094 3.953126 2.28125 10.238282-.296876 17.332032-6.359376-1.734375-10.019531 3.992187-29.167968 15.375-48.886718zm0 0" fill="#99af17"/><path d="m235.292969 481.171875h-96.90625c-6.378907 0-11.546875-5.167969-11.546875-11.546875v-456.90625c0-6.375 5.167968-11.546875 11.546875-11.546875h96.90625c6.378906 0 11.546875 5.171875 11.546875 11.546875v456.90625c0 6.378906-5.171875 11.546875-11.546875 11.546875zm0 0" fill="#eacf32"/><path d="m186.839844 469.625v-456.90625c0-6.375 5.167968-11.542969 11.546875-11.542969h-60c-6.378907 0-11.546875 5.167969-11.546875 11.542969v456.90625c0 6.378906 5.167968 11.550781 11.546875 11.550781h60c-6.378907-.003906-11.546875-5.171875-11.546875-11.550781zm0 0" fill="#ccc033"/><path d="m222.085938 258.847656c-.839844 0-1.6875-.261718-2.40625-.808594-1.765626-1.328124-2.113282-3.839843-.78125-5.601562l59.75-79.121094c1.328124-1.761718 3.839843-2.117187 5.601562-.78125 1.765625 1.328125 2.113281 3.839844.78125 5.601563l-59.75 79.121093c-.785156 1.039063-1.984375 1.589844-3.195312 1.589844zm0 0" fill="#ccc033"/><path d="m338.210938 187.773438c-24.246094-17.078126-48.410157-24.527344-53.972657-16.632813-5.558593 7.894531 9.585938 28.140625 33.832031 45.21875 24.246094 17.082031 48.410157 24.53125 53.972657 16.636719 5.558593-7.894532-9.585938-28.140625-33.832031-45.222656zm0 0" fill="#eacf32"/><path d="m310.488281 237.503906c-13.71875-26.296875-31.777343-43.992187-40.339843-39.527344-8.5625 4.46875-4.382813 29.402344 9.335937 55.699219s31.777344 43.992188 40.339844 39.527344c8.558593-4.46875 4.378906-29.402344-9.335938-55.699219zm0 0" fill="#ccc033"/><path d="m151.207031 90.847656c-1.210937 0-2.410156-.546875-3.195312-1.589844l-59.75-79.121093c-1.332031-1.761719-.980469-4.273438.78125-5.601563 1.765625-1.335937 4.277343-.980468 5.605469.78125l59.75 79.121094c1.332031 1.761719.980468 4.273438-.78125 5.601562-.722657.546876-1.570313.808594-2.410157.808594zm0 0" fill="#eacf32"/><path d="m89.039062 3.160156c-5.558593-7.894531-29.722656-.449218-53.96875 16.632813-24.246093 17.078125-39.394531 37.324219-33.832031 45.21875 5.558594 7.894531 29.722657.449219 53.96875-16.632813 24.246094-17.082031 39.394531-37.328125 33.832031-45.21875zm0 0" fill="#fcda4f"/><path d="m103.136719 29.988281c-8.5625-4.464843-26.621094 13.230469-40.339844 39.527344-13.714844 26.292969-17.894531 51.230469-9.335937 55.699219 8.5625 4.464844 26.621093-13.230469 40.339843-39.527344 13.714844-26.296875 17.894531-51.234375 9.335938-55.699219zm0 0" fill="#eacf32"/><path d="m245.613281 146.171875h-117.546875c-6.203125 0-11.226562-5.027344-11.226562-11.222656v-7.550781c0-6.199219 5.027344-11.222657 11.226562-11.222657h117.546875c6.203125 0 11.226563 5.023438 11.226563 11.222657v7.550781c0 6.199219-5.027344 11.222656-11.226563 11.222656zm0 0" fill="#ccc033"/><path d="m245.613281 404.171875h-117.546875c-6.203125 0-11.226562-5.027344-11.226562-11.222656v-7.550781c0-6.199219 5.027344-11.222657 11.226562-11.222657h117.546875c6.203125 0 11.226563 5.023438 11.226563 11.222657v7.550781c0 6.199219-5.027344 11.222656-11.226563 11.222656zm0 0" fill="#ccc033"/><path d="m186.839844 135.78125v-9.214844c0-5.742187 5.425781-10.394531 12.121094-10.394531h-70c-6.695313 0-12.121094 4.652344-12.121094 10.394531v9.214844c0 5.738281 5.425781 10.390625 12.121094 10.390625h70c-6.695313 0-12.121094-4.652344-12.121094-10.390625zm0 0" fill="#99af17"/><path d="m186.839844 393.78125v-9.214844c0-5.742187 5.425781-10.394531 12.121094-10.394531h-70c-6.695313 0-12.121094 4.652344-12.121094 10.394531v9.214844c0 5.738281 5.425781 10.390625 12.121094 10.390625h70c-6.695313 0-12.121094-4.652344-12.121094-10.390625zm0 0" fill="#99af17"/><path d="m59.070312 19.785156c10.570313-7.445312 21.121094-13.058594 30.125-16.371094-.054687-.085937-.097656-.179687-.15625-.261718-5.558593-7.894532-29.722656-.449219-53.96875 16.632812-24.246093 17.082032-39.394531 37.328125-33.832031 45.222656 3.136719 4.453126 12.191407 4.023438 23.84375-.261718-5.070312-8.066406 10-28.058594 33.988281-44.960938zm0 0" fill="#eacf32"/><path d="m83.796875 69.511719c7.277344-13.953125 15.777344-25.480469 23.433594-32.566407-.589844-3.414062-1.9375-5.835937-4.089844-6.960937-8.5625-4.464844-26.625 13.230469-40.339844 39.527344-13.71875 26.292969-17.894531 51.234375-9.335937 55.699219 4.023437 2.09375 10.132812-.691407 16.90625-6.960938-1.757813-10.148438 3.164062-29.0625 13.425781-48.738281zm0 0" fill="#ccc033"/><path d="m297.492188 253.683594c-11.046876-21.175782-15.902344-41.460938-12.90625-50.894532-5.773438-4.71875-10.90625-6.644531-14.429688-4.804687-8.5625 4.464844-4.382812 29.402344 9.335938 55.699219 13.714843 26.296875 31.777343 43.992187 40.335937 39.527344 1.667969-.871094 2.847656-2.523438 3.570313-4.804688-8.257813-6.753906-17.835938-19.246094-25.90625-34.722656zm0 0" fill="#99af17"/><g fill="#ccc033"><path d="m342.085938 216.371094c-23.988282-16.898438-39.058594-36.890625-33.988282-44.957032-11.652344-4.289062-20.707031-4.71875-23.84375-.261718-5.5625 7.890625 9.585938 28.136718 33.832032 45.21875 24.246093 17.082031 48.410156 24.53125 53.972656 16.636718.058594-.082031.101562-.175781.152344-.261718-9.003907-3.3125-19.554688-8.925782-30.125-16.375zm0 0"/><path d="m230.839844 31.082031c0 9.664063-7.835938 17.5-17.5 17.5-9.667969 0-17.5-7.835937-17.5-17.5 0-9.667969 7.832031-17.5 17.5-17.5 9.664062 0 17.5 7.832031 17.5 17.5zm0 0"/><path d="m230.839844 347.847656c0 9.664063-7.835938 17.5-17.5 17.5-9.667969 0-17.5-7.835937-17.5-17.5 0-9.664062 7.832031-17.5 17.5-17.5 9.664062 0 17.5 7.835938 17.5 17.5zm0 0"/></g></svg>