<svg height="486pt" viewBox="-53 0 486 486.00001" width="486pt" xmlns="http://www.w3.org/2000/svg"><path d="m239.378906 125.589844h-128.582031c-3.25 0-5.882813-2.636719-5.882813-5.886719v-23.933594c0-3.25 2.632813-5.886719 5.882813-5.886719h128.582031c3.25 0 5.882813 2.636719 5.882813 5.886719v23.933594c.003906 3.25-2.632813 5.886719-5.882813 5.886719zm0 0" fill="#e58d23"/><path d="m270.71875 482.246094c-8 2.070312-16.234375-2.496094-18.367188-10.191406l-60.726562-218.914063 28.925781-7.488281 60.746094 218.988281c2.128906 7.667969-2.605469 15.542969-10.578125 17.605469zm0 0" fill="#a56021"/><path d="m72.023438 453.445312 28.929687 7.480469 57.597656-207.789062-28.925781-7.480469zm0 0" fill="#a56021"/><path d="m235.117188 319.148438v19.230468h-120.058594v-19.230468zm0 0" fill="#a56021"/><path d="m90.03125 453.445312 56.398438-203.441406-16.804688-4.347656-57.601562 207.789062 28.929687 7.484376 1.203125-4.351563zm0 0" fill="#8c4c17"/><path d="m270.359375 472.054688-60.722656-218.910157 12.125-3.136719-1.207031-4.351562-28.925782 7.488281 60.722656 218.914063c2.132813 7.695312 10.363282 12.261718 18.367188 10.191406 1.910156-.492188 3.628906-1.328125 5.117188-2.40625-2.59375-1.875-4.578126-4.546875-5.476563-7.789062zm0 0" fill="#8c4c17"/><path d="m133.9375 338.378906h31l5.332031-19.230468h-31.003906zm0 0" fill="#8c4c17"/><path d="m20.203125 128.757812v22.980469c0 81.085938 69.34375 146.816407 154.886719 146.816407 85.539062 0 154.882812-65.730469 154.882812-146.816407v-22.980469zm0 0" fill="#ff624b"/><path d="m132.066406 443.699219c0-23.359375-19.710937-42.300781-44.023437-42.300781s-44.019531 18.941406-44.019531 42.300781c0 23.363281 19.707031 42.300781 44.019531 42.300781s44.023437-18.9375 44.023437-42.300781zm0 0" fill="#ffd551"/><path d="m112.054688 443.699219c0-12.742188-10.75-23.074219-24.011719-23.074219s-24.011719 10.332031-24.011719 23.074219c0 12.746093 10.75 23.074219 24.011719 23.074219s24.011719-10.328126 24.011719-23.074219zm0 0" fill="#fff4c1"/><path d="m80.230469 151.738281v-22.980469h-60.027344v22.980469c0 81.085938 69.34375 146.816407 154.886719 146.816407 10.269531 0 20.300781-.953126 30.015625-2.761719-71.175781-13.253907-124.875-72.703125-124.875-144.054688zm0 0" fill="#ff4b34"/><path d="m340.371094 157.347656h-330.5625c-5.417969 0-9.808594-4.390625-9.808594-9.808594v-31.453124c0-5.414063 4.390625-9.808594 9.808594-9.808594h330.5625c5.414062 0 9.808594 4.390625 9.808594 9.808594v31.453124c0 5.414063-4.394532 9.808594-9.808594 9.808594zm0 0" fill="#a56021"/><path d="m332.167969 146.042969h-120.488281c-3.316407 0-6-2.6875-6-6 0-3.316407 2.683593-6 6-6h120.488281c3.3125 0 6 2.683593 6 6 0 3.3125-2.6875 6-6 6zm0 0" fill="#bf6c0d"/><path d="m60.03125 147.730469v-31.839844c0-5.308594 4.480469-9.613281 10.003906-9.613281h-60.027344c-5.527343 0-10.007812 4.304687-10.007812 9.613281v31.839844c0 5.3125 4.480469 9.617187 10.007812 9.617187h60.027344c-5.523437 0-10.003906-4.304687-10.003906-9.617187zm0 0" fill="#8c4c17"/><path d="m325.90625 185.292969h-53.960938c-5.527343 0-10.007812 4.304687-10.007812 9.613281v9.613281c0 5.308594 4.480469 9.613281 10.007812 9.613281h43.371094c4.539063-9.140624 8.113282-18.789062 10.589844-28.839843zm0 0" fill="#ff4b34"/><path d="m370.191406 205.480469h-80.433594c-5.417968 0-9.808593-4.390625-9.808593-9.808594v-9.226563c0-5.414062 4.390625-9.808593 9.808593-9.808593h80.433594c5.417969 0 9.808594 4.390625 9.808594 9.808593v9.226563c0 5.417969-4.390625 9.808594-9.808594 9.808594zm0 0" fill="#a56021"/><g fill="#ffc34c"><path d="m81.042969 75.695312c-3.316407 0-6-2.683593-6-6 0-7.3125 3.011719-11.308593 5.207031-14.222656 1.796875-2.386718 2.792969-3.703125 2.792969-7 0-3.300781-.992188-4.617187-2.792969-7.007812-2.199219-2.914063-5.207031-6.910156-5.207031-14.230469 0-7.3125 3.007812-11.308594 5.207031-14.226563 1.800781-2.390624 2.792969-3.707031 2.792969-7.007812 0-3.3125 2.683593-6 6-6 3.3125 0 6 2.6875 6 6 0 7.316406-3.011719 11.3125-5.207031 14.226562-1.800782 2.390626-2.792969 3.707032-2.792969 7.007813 0 3.304687.992187 4.621094 2.792969 7.007813 2.195312 2.917968 5.207031 6.914062 5.207031 14.230468 0 7.3125-3.011719 11.304688-5.207031 14.222656-1.800782 2.382813-2.792969 3.699219-2.792969 7 0 3.3125-2.683594 6-6 6zm0 0"/><path d="m141.074219 75.695312c-3.3125 0-6-2.683593-6-6 0-7.3125 3.011719-11.308593 5.207031-14.222656 1.796875-2.386718 2.792969-3.703125 2.792969-7 0-3.300781-.992188-4.617187-2.792969-7.007812-2.195312-2.914063-5.207031-6.910156-5.207031-14.230469 0-7.3125 3.011719-11.308594 5.207031-14.226563 1.800781-2.390624 2.792969-3.707031 2.792969-7.007812 0-3.3125 2.6875-6 6-6s6 2.6875 6 6c0 7.316406-3.011719 11.3125-5.207031 14.226562-1.800782 2.390626-2.792969 3.707032-2.792969 7.007813 0 3.304687.992187 4.621094 2.792969 7.007813 2.195312 2.917968 5.207031 6.914062 5.207031 14.230468 0 7.3125-3.011719 11.304688-5.207031 14.222656-1.800782 2.382813-2.792969 3.699219-2.792969 7 0 3.3125-2.6875 6-6 6zm0 0"/><path d="m201.105469 75.695312c-3.316407 0-6-2.683593-6-6 0-7.3125 3.011719-11.308593 5.207031-14.222656 1.796875-2.386718 2.792969-3.703125 2.792969-7 0-3.300781-.992188-4.617187-2.792969-7.007812-2.199219-2.914063-5.207031-6.910156-5.207031-14.230469 0-7.3125 3.007812-11.308594 5.207031-14.226563 1.800781-2.390624 2.792969-3.707031 2.792969-7.007812 0-3.3125 2.683593-6 6-6 3.3125 0 6 2.6875 6 6 0 7.316406-3.011719 11.3125-5.210938 14.226562-1.796875 2.390626-2.789062 3.707032-2.789062 7.007813 0 3.304687.992187 4.621094 2.789062 7.007813 2.199219 2.917968 5.210938 6.914062 5.210938 14.230468 0 7.3125-3.011719 11.304688-5.210938 14.222656-1.796875 2.382813-2.789062 3.699219-2.789062 7 0 3.3125-2.6875 6-6 6zm0 0"/><path d="m261.132812 75.695312c-3.3125 0-6-2.683593-6-6 0-7.3125 3.011719-11.308593 5.210938-14.222656 1.796875-2.386718 2.789062-3.703125 2.789062-7 0-3.300781-.992187-4.617187-2.789062-7.007812-2.199219-2.914063-5.210938-6.910156-5.210938-14.230469 0-7.3125 3.011719-11.308594 5.210938-14.226563 1.796875-2.390624 2.789062-3.707031 2.789062-7.007812 0-3.3125 2.6875-6 6-6 3.316407 0 6 2.6875 6 6 0 7.316406-3.007812 11.3125-5.207031 14.226562-1.800781 2.390626-2.792969 3.707032-2.792969 7.007813 0 3.304687.992188 4.621094 2.792969 7.007813 2.199219 2.917968 5.207031 6.914062 5.207031 14.230468 0 7.3125-3.007812 11.304688-5.207031 14.222656-1.796875 2.382813-2.792969 3.699219-2.792969 7 0 3.3125-2.683593 6-6 6zm0 0"/></g><path d="m103.613281 131.8125c0 9.664062-7.835937 17.5-17.5 17.5-9.664062 0-17.5-7.835938-17.5-17.5s7.835938-17.5 17.5-17.5c9.664063 0 17.5 7.835938 17.5 17.5zm0 0" fill="#8c4c17"/><path d="m211.671875 267.367188c0 9.664062-7.835937 17.5-17.5 17.5-9.667969 0-17.5-7.835938-17.5-17.5 0-9.667969 7.832031-17.5 17.5-17.5 9.664063 0 17.5 7.832031 17.5 17.5zm0 0" fill="#ff4b34"/></svg>