<svg height="487pt" viewBox="-123 0 487 487.19567" width="487pt" xmlns="http://www.w3.org/2000/svg"><path d="m98.769531 150.964844c-1.421875.589844-2.886719-.488282-2.617187-1.9375.066406-.351563.128906-.710938.1875-1.066406 2.925781-17.515626-2.496094-34.636719-12.109375-38.234376-8.269531-3.09375-16.945313 4.820313-21.074219 18.242188-.546875 1.789062-3.09375 2.039062-3.753906.371094-1.257813-3.1875-2.816406-6.433594-4.675782-9.652344-10.351562-17.929688-26.011718-28.273438-34.980468-23.09375-8.964844 5.175781-7.839844 23.910156 2.511718 41.84375 1.746094 3.027344 3.648438 5.839844 5.640626 8.398438 1.085937 1.390624-.363282 3.441406-2.164063 3.0625-13.296875-2.800782-24.054687.789062-25.480469 9.3125-1.6875 10.128906 10.421875 23.382812 27.054688 29.605468.527344.199219 1.058594.386719 1.582031.566406 1.488281.507813 1.636719 2.492188.234375 3.355469-2.816406 1.734375-4.671875 4.242188-5.210938 7.453125-1.6875 10.125 10.421876 23.378906 27.054688 29.605469 9.328125 3.492187 18.09375 4.027344 24.292969 2.042969 4.992187 7.308594 15.371093 9.363281 23.796875 4.5l2.058594-1.191406c8.144531-4.699219 11.601562-14.21875 8.359374-22.050782 5.476563-4.175781 9.75-12.992187 10.949219-24.144531 1.898438-17.578125-4.546875-34.304687-14.398437-37.359375-2.476563-.769531-4.9375-.597656-7.257813.371094zm0 0" fill="#99af17"/><path d="m55.527344 179.324219c-10.261719 0-19.917969-5.988281-21.300782-6.886719-2.785156-1.800781-3.582031-5.515625-1.78125-8.296875 1.796876-2.777344 5.5-3.578125 8.285157-1.785156 3.175781 2.03125 13.558593 7.109375 19.398437 3.9375 5.164063-2.804688 6.296875-11.949219 6.335938-19.125.019531-3.300781 2.703125-5.964844 6-5.964844h.035156c3.316406.019531 5.984375 2.71875 5.96875 6.03125-.085938 15.167969-4.339844 25.136719-12.648438 29.625-3.304687 1.78125-6.835937 2.464844-10.292968 2.464844zm0 0" fill="#fce575"/><path d="m78.828125 219.683594c-10.261719 0-19.914063-5.988282-21.300781-6.886719-2.785156-1.800781-3.582032-5.515625-1.78125-8.292969 1.796875-2.78125 5.5-3.582031 8.289062-1.789062 3.175782 2.03125 13.554688 7.109375 19.394532 3.9375 5.164062-2.804688 6.296874-11.949219 6.335937-19.125.019531-3.300782 2.703125-5.964844 6-5.964844h.039063c3.3125.019531 5.984374 2.71875 5.964843 6.035156-.085937 15.167969-4.339843 25.132813-12.644531 29.621094-3.308594 1.785156-6.835938 2.464844-10.296875 2.464844zm0 0" fill="#fce575"/><path d="m121.285156 277.453125c-2.074218 0-4.09375-1.074219-5.203125-3l-67.535156-116.976563c-1.65625-2.871093-.675781-6.539062 2.195313-8.195312 2.867187-1.660156 6.539062-.675781 8.195312 2.195312l67.535156 116.972657c1.65625 2.871093.675782 6.539062-2.195312 8.195312-.945313.550781-1.976563.808594-2.992188.808594zm0 0" fill="#fcda4f"/><path d="m135.347656 150.59375c-9.847656 3.054688-16.292968 19.78125-14.398437 37.359375 1.203125 11.152344 5.476562 19.96875 10.953125 24.144531-3.246094 7.832032.214844 17.351563 8.359375 22.050782l2.058593 1.191406c8.421876 4.863281 18.800782 2.808594 23.792969-4.5 6.199219 1.984375 14.96875 1.445312 24.292969-2.042969 16.632812-6.226563 28.746094-19.480469 27.054688-29.605469-.535157-3.210937-2.390626-5.71875-5.207032-7.453125-1.40625-.863281-1.257812-2.851562.234375-3.355469.523438-.179687 1.050781-.367187 1.578125-.566406 16.632813-6.222656 28.746094-19.476562 27.054688-29.605468-1.425782-8.527344-12.183594-12.113282-25.480469-9.3125-1.800781.378906-3.246094-1.671876-2.164063-3.0625 1.996094-2.558594 3.894532-5.371094 5.644532-8.398438 10.351562-17.933594 11.472656-36.664062 2.507812-41.84375s-24.628906 5.164062-34.980468 23.09375c-1.855469 3.21875-3.417969 6.460938-4.675782 9.652344-.660156 1.667968-3.207031 1.417968-3.753906-.371094-4.125-13.421875-12.800781-21.335938-21.070312-18.242188-9.613282 3.597657-15.039063 20.71875-12.113282 38.234376.058594.355468.121094.714843.1875 1.066406.269532 1.445312-1.195312 2.527344-2.617187 1.9375-2.320313-.96875-4.78125-1.140625-7.257813-.371094zm0 0" fill="#ccc033"/><path d="m185.847656 179.324219c-3.460937 0-6.988281-.679688-10.292968-2.464844-8.304688-4.488281-12.558594-14.457031-12.644532-29.625-.019531-3.3125 2.652344-6.015625 5.964844-6.035156h.035156c3.300782 0 5.980469 2.664062 6 5.964843.042969 7.1875 1.175782 16.339844 6.351563 19.132813 6.003906 3.242187 16.808593-2.28125 19.375-3.941406 2.78125-1.796875 6.5-1 8.296875 1.78125 1.800781 2.785156 1 6.496093-1.78125 8.296875-1.390625.902344-11.042969 6.890625-21.304688 6.890625zm0 0" fill="#fce575"/><path d="m162.546875 219.683594c-3.460937 0-6.988281-.679688-10.292969-2.464844-8.304687-4.488281-12.5625-14.457031-12.648437-29.625-.015625-3.3125 2.652343-6.015625 5.96875-6.035156h.035156c3.296875 0 5.980469 2.664062 6 5.96875.042969 7.183594 1.175781 16.335937 6.351563 19.128906 6.003906 3.238281 16.808593-2.28125 19.375-3.941406 2.785156-1.796875 6.496093-1 8.296874 1.78125 1.796876 2.785156 1 6.496094-1.78125 8.296875-1.390624.902343-11.042968 6.890625-21.304687 6.890625zm0 0" fill="#fce575"/><path d="m120.089844 277.453125c-1.015625 0-2.046875-.257813-2.992188-.804687-2.871094-1.65625-3.851562-5.328126-2.195312-8.195313l67.535156-116.976563c1.65625-2.867187 5.324219-3.855468 8.195312-2.195312 2.871094 1.65625 3.851563 5.328125 2.195313 8.195312l-67.535156 116.976563c-1.109375 1.921875-3.128907 3-5.203125 3zm0 0" fill="#fcda4f"/><path d="m175.710938 116.617188c-2.039063-.261719-3.007813-2.488282-1.734376-3.976563.3125-.363281.621094-.734375.929688-1.109375 15.054688-18.273438 20.203125-41.65625 11.503906-52.222656-7.488281-9.085938-22.78125-5.730469-36.492187 7.015625-1.824219 1.699219-4.933594.289062-4.582031-2.078125.671874-4.515625 1.035156-9.304688 1.035156-14.257813 0-27.609375-11.191406-49.988281-24.996094-49.988281s-24.996094 22.378906-24.996094 49.988281c0 4.660157.316406 9.175781.914063 13.457031.328125 2.332032-2.714844 3.734376-4.539063 2.097657-13.488281-12.097657-28.304687-15.132813-35.632812-6.234375-8.703125 10.566406-3.550782 33.945312 11.503906 52.222656.476562.582031.957031 1.152344 1.445312 1.707031 1.382813 1.578125.230469 3.972657-1.96875 4.035157-4.40625.121093-8.222656 1.78125-10.980468 5.128906-8.703125 10.5625-3.550782 33.945312 11.503906 52.222656 8.441406 10.25 18.203125 16.714844 26.6875 18.558594.894531 11.765625 11.507812 21.054687 24.476562 21.054687h3.167969c12.539063 0 22.878907-8.683593 24.355469-19.894531 9.109375-1.167969 19.917969-8.5 28.742188-20.574219 13.910156-19.035156 17.617187-42.644531 8.28125-52.738281-2.347657-2.542969-5.300782-3.984375-8.625-4.414062zm0 0" fill="#eacf32"/><path d="m121.132812 122.5625c-.226562 0-.453124-.003906-.675781-.011719-19.03125-.53125-31.296875-24.078125-31.808593-25.078125-1.511719-2.949218-.34375-6.566406 2.605468-8.078125 2.949219-1.503906 6.5625-.339843 8.070313 2.601563 2.625 5.078125 11.59375 18.300781 21.492187 18.5625.09375 0 .191406.003906.289063.003906 8.699219 0 16.515625-10.222656 21.5625-18.855469 1.671875-2.859375 5.347656-3.824219 8.210937-2.148437 2.859375 1.671875 3.824219 5.347656 2.148438 8.207031-9.628906 16.457031-20.355469 24.796875-31.894532 24.796875zm0 0" fill="#fce575"/><path d="m121.132812 184.699219c-.226562 0-.453124 0-.675781-.007813-19.03125-.535156-31.296875-24.078125-31.808593-25.082031-1.511719-2.949219-.34375-6.5625 2.605468-8.074219 2.953125-1.503906 6.5625-.34375 8.070313 2.601563 2.625 5.078125 11.59375 18.300781 21.492187 18.558593.09375.003907.191406.003907.289063.003907 8.699219 0 16.515625-10.222657 21.5625-18.851563 1.671875-2.863281 5.347656-3.824218 8.210937-2.152344 2.859375 1.675782 3.824219 5.347657 2.148438 8.207032-9.628906 16.460937-20.355469 24.796875-31.894532 24.796875zm0 0" fill="#fce575"/><path d="m74.625 142.285156c2.753906-3.347656 6.570312-5.003906 10.976562-5.128906 2.199219-.0625 3.351563-2.453125 1.972657-4.035156-.488281-.554688-.972657-1.125-1.449219-1.707032-15.054688-18.273437-20.203125-41.652343-11.5-52.21875 7.328125-8.898437 22.144531-5.867187 35.628906 6.230469 1.828125 1.636719 4.867188.234375 4.542969-2.097656-.601563-4.28125-.917969-8.792969-.917969-13.457031 0-27.605469 11.191406-49.988282 24.996094-49.988282.863281 0 1.714844.089844 2.550781.257813-4.554687-12.222656-11.839843-20.140625-20.050781-20.140625-13.804688 0-24.996094 22.378906-24.996094 49.988281 0 4.660157.320313 9.175781.917969 13.457031.324219 2.332032-2.714844 3.734376-4.542969 2.097657-13.484375-12.097657-28.300781-15.132813-35.628906-6.234375-8.703125 10.566406-3.554688 33.945312 11.5 52.222656.476562.582031.960938 1.152344 1.449219 1.707031 1.382812 1.578125.226562 3.972657-1.972657 4.035157-4.40625.121093-8.222656 1.78125-10.976562 5.128906-8.703125 10.5625-3.554688 33.945312 11.5 52.222656 3.515625 4.265625 7.257812 7.871094 11.039062 10.765625-9.886718-16.332031-12.347656-34.234375-5.039062-43.105469zm0 0" fill="#ccc033"/><path d="m121.375 276.75c-3.3125 0-6-2.6875-6-6v-180.09375c0-3.3125 2.6875-6 6-6s6 2.6875 6 6v180.09375c0 3.3125-2.6875 6-6 6zm0 0" fill="#fcda4f"/><path d="m161.300781 402.730469h-81.226562l31.644531 80.246093c2.183594 5.539063 12.148438 5.652344 14.539062.167969zm0 0" fill="#ff4b34"/><path d="m240.136719 342.875c0-62.582031-53.480469-113.320312-119.449219-113.320312s-119.449219 50.738281-119.449219 113.320312c0 62.585938 53.480469 113.320312 119.449219 113.320312s119.449219-50.734374 119.449219-113.320312zm0 0" fill="#ff624b"/><g fill="#ff4b34"><path d="m61.238281 342.875c0-52.753906 38-97.085938 89.449219-109.714844-9.585938-2.351562-19.636719-3.605468-30-3.605468-65.96875 0-119.449219 50.734374-119.449219 113.320312s53.480469 113.320312 119.449219 113.320312c10.363281 0 20.414062-1.253906 30-3.605468-51.449219-12.625-89.449219-56.960938-89.449219-109.714844zm0 0"/><path d="m145.6875 331.847656h-50c-3.3125 0-6-2.6875-6-6s2.6875-6 6-6h50c3.3125 0 6 2.6875 6 6s-2.6875 6-6 6zm0 0"/><path d="m145.6875 391.847656h-50c-3.3125 0-6-2.6875-6-6s2.6875-6 6-6h50c3.3125 0 6 2.6875 6 6s-2.6875 6-6 6zm0 0"/><path d="m221.078125 301.847656h-50c-3.3125 0-6-2.6875-6-6s2.6875-6 6-6h50c3.316406 0 6 2.6875 6 6s-2.683594 6-6 6zm0 0"/><path d="m233.078125 361.847656h-50c-3.3125 0-6-2.6875-6-6s2.6875-6 6-6h50c3.316406 0 6 2.6875 6 6s-2.683594 6-6 6zm0 0"/><path d="m163.105469 263.535156c0 9.664063-7.832031 17.5-17.5 17.5-9.664063 0-17.5-7.835937-17.5-17.5 0-9.664062 7.835937-17.5 17.5-17.5 9.667969 0 17.5 7.835938 17.5 17.5zm0 0"/></g><path d="m145.683594 441.269531c-2.710938 0-5.171875-1.855469-5.832032-4.609375-.769531-3.222656 1.21875-6.460937 4.441407-7.230468 24.4375-5.835938 45.835937-20.921876 58.710937-41.382813 1.765625-2.804687 5.46875-3.648437 8.273438-1.882813 2.804687 1.765626 3.648437 5.46875 1.882812 8.273438-14.535156 23.097656-38.617187 40.105469-66.078125 46.667969-.46875.109375-.9375.164062-1.398437.164062zm0 0" fill="#ff9079"/></svg>