<svg height="495pt" viewBox="-137 0 495 495.6" width="495pt" xmlns="http://www.w3.org/2000/svg"><path d="m100.632812 425.816406h25.359376c12.847656 0 23.261718 10.414063 23.261718 23.261719v46.523437h-25.363281c-25.691406 0-46.519531-20.828124-46.519531-46.523437 0-12.847656 10.414062-23.261719 23.261718-23.261719zm0 0" fill="#ffc34c"/><path d="m94.960938 425.871094h14.386718c13.042969 0 23.617188 10.574218 23.617188 23.617187 0 25.441407-20.621094 46.0625-46.058594 46.0625h-14.386719c-.648437 0-1.175781-.527343-1.175781-1.175781v-44.886719c0-13.042969 10.574219-23.617187 23.617188-23.617187zm0 0" fill="#ffdf74"/><path d="m101.34375 449.488281c0-10.304687 6.605469-19.066406 15.808594-22.289062-2.441406-.855469-5.066406-1.328125-7.804688-1.328125h-14.386718c-13.042969 0-23.617188 10.574218-23.617188 23.617187v44.882813c0 .648437.527344 1.175781 1.175781 1.175781h14.386719c5.042969 0 9.894531-.820313 14.4375-2.320313zm0 0" fill="#ffd551"/><path d="m220.300781 218.0625h-220v-61.398438c0-60.753906 49.246094-110 110-110 60.75 0 110 49.246094 110 110zm0 0" fill="#ffd551"/><path d="m140.300781 50.804688c-9.535156-2.695313-19.601562-4.140626-30-4.140626-60.753906 0-110 49.246094-110 110v61.398438h60v-61.398438c0-50.351562 33.828125-92.800781 80-105.859374zm0 0" fill="#ffc34c"/><path d="m110.949219 270.859375c-5.476563 0-9.945313-4.417969-9.996094-9.90625l-1.304687-140.097656c-.050782-5.523438 4.382812-10.042969 9.90625-10.09375h.09375c5.480468 0 9.949218 4.417969 10 9.90625l1.304687 140.097656c.050781 5.523437-4.386719 10.039063-9.90625 10.09375-.035156 0-.066406 0-.097656 0zm0 0" fill="#ccc033"/><path d="m110.6875 126.066406c-13.117188.125-23.851562-10.410156-23.972656-23.527344l-.117188-12.511718c0-.214844.167969-.386719.378906-.386719l46.734376-.4375c.214843 0 .386718.167969.386718.382813l.117188 12.511718c.121094 13.117188-10.414063 23.847656-23.527344 23.96875zm0 0" fill="#ccc033"/><path d="m99.925781 102.800781-.121093-12.898437c0-.210938-.175782-.378906-.382813-.378906l-12.445313.117187c-.210937 0-.378906.175781-.378906.386719l.117188 12.511718c.121094 13.117188 10.851562 23.652344 23.972656 23.527344l.382812-.003906c1.667969-.015625 3.292969-.207031 4.859376-.554688.378906-.085937.402343-.617187.035156-.738281-9.238282-3.050781-15.941406-11.703125-16.039063-21.96875zm0 0" fill="#99af17"/><path d="m74.511719 73.566406v-52.730468c0-6.015626 4.875-10.890626 10.890625-10.890626h49.796875c6.011719 0 10.890625 4.875 10.890625 10.890626v52.730468c0 19.765625-16.023438 35.789063-35.789063 35.789063s-35.789062-16.023438-35.789062-35.789063zm0 0" fill="#ff624b"/><path d="m91.214844 73.566406v-52.730468c0-6.015626 4.875-10.890626 10.890625-10.890626h-16.703125c-6.011719 0-10.886719 4.875-10.886719 10.890626v52.730468c0 19.765625 16.019531 35.789063 35.785156 35.789063 2.878907 0 5.671875-.34375 8.351563-.984375-15.738282-3.757813-27.4375-17.914063-27.4375-34.804688zm0 0" fill="#ff4b34"/><path d="m134.15625.00390625h-23.855469c-6.589843 0-11.929687 5.33984375-11.929687 11.92968775v7.160156h11.929687c6.585938 0 11.929688 5.339844 11.929688 11.929688v15.90625c0 6.585937-5.339844 11.929687-11.929688 11.929687h23.855469c6.589844 0 11.933594-5.339844 11.933594-11.929687v-34.996094c0-6.589844-5.34375-11.92968775-11.933594-11.92968775zm0 0" fill="#ffeacf"/><path d="m86.441406 58.855469h23.859375c6.585938 0 11.929688-5.339844 11.929688-11.929688v-7.160156h-11.929688c-6.589843 0-11.929687-5.339844-11.929687-11.929687v-15.90625c0-6.585938 5.339844-11.929688 11.929687-11.929688h-23.859375c-6.585937 0-11.929687 5.339844-11.929687 11.929688v34.992187c0 6.59375 5.34375 11.933594 11.929687 11.933594zm0 0" fill="#ff9079"/><path d="m122.230469 31.019531c0-6.585937-5.339844-11.929687-11.929688-11.929687h-11.929687v11.132812c0 6.589844 5.339844 11.929688 11.929687 11.929688h11.929688zm0 0" fill="#ff624b"/><path d="m103.140625 27.441406h-4.769531v2.78125c0 6.589844 5.339844 11.929688 11.929687 11.929688h4.769531v-2.78125c0-6.589844-5.339843-11.929688-11.929687-11.929688zm0 0" fill="#ff4b34"/><path d="m91.214844 46.925781v-34.992187c0-6.589844 5.339844-11.92968775 11.929687-11.92968775h-16.699219c-6.589843 0-11.929687 5.33984375-11.929687 11.92968775v34.992187c0 6.585938 5.339844 11.929688 11.929687 11.929688h16.699219c-6.589843 0-11.929687-5.339844-11.929687-11.929688zm0 0" fill="#ff624b"/><path d="m121.035156.00390625h-10.734375c-6.589843 0-11.929687 5.33984375-11.929687 11.92968775v7.160156h10.734375v-7.160156c.003906-6.589844 5.34375-11.92968775 11.929687-11.92968775zm0 0" fill="#ffd59a"/><path d="m132.964844 46.925781v-15.90625c0-6.585937-5.339844-11.929687-11.929688-11.929687h-10.734375c6.585938 0 11.929688 5.339844 11.929688 11.929687v15.90625c0 6.589844-5.339844 11.929688-11.929688 11.929688h10.734375c6.589844 0 11.929688-5.339844 11.929688-11.929688zm0 0" fill="#ffd59a"/><path d="m56.3125 310.796875c-5.476562 0-9.945312-4.417969-9.996094-9.90625l-1.304687-140.097656c-.050781-5.523438 4.382812-10.039063 9.902343-10.09375h.097657c5.476562 0 9.949219 4.417969 10 9.90625l1.304687 140.097656c.050782 5.523437-4.382812 10.039063-9.90625 10.09375-.03125 0-.066406 0-.097656 0zm0 0" fill="#ccc033"/><path d="m56.046875 166.007812c-13.117187.121094-23.851563-10.414062-23.972656-23.53125l-.117188-12.511718c0-.210938.167969-.386719.382813-.386719l46.730468-.4375c.214844 0 .386719.167969.386719.382813l.117188 12.511718c.125 13.113282-10.410157 23.847656-23.527344 23.972656zm0 0" fill="#ccc033"/><path d="m45.289062 142.738281-.121093-12.894531c-.003907-.214844-.175781-.382812-.386719-.382812l-12.441406.117187c-.210938 0-.382813.175781-.378906.386719l.113281 12.511718c.125 13.117188 10.855469 23.652344 23.972656 23.53125l.386719-.003906c1.667968-.019531 3.292968-.210937 4.859375-.558594.378906-.085937.402343-.617187.03125-.738281-9.234375-3.050781-15.941407-11.703125-16.035157-21.96875zm0 0" fill="#99af17"/><path d="m19.875 113.503906v-52.730468c0-6.015626 4.875-10.890626 10.890625-10.890626h49.792969c6.015625 0 10.890625 4.875 10.890625 10.890626v52.730468c0 19.765625-16.019531 35.789063-35.789063 35.789063-19.765625 0-35.785156-16.023438-35.785156-35.789063zm0 0" fill="#ff624b"/><path d="m36.574219 113.503906v-52.730468c0-6.015626 4.875-10.890626 10.890625-10.890626h-16.699219c-6.015625 0-10.890625 4.875-10.890625 10.890626v52.730468c0 19.765625 16.019531 35.789063 35.785156 35.789063 2.878906 0 5.675782-.34375 8.351563-.984375-15.734375-3.761719-27.4375-17.914063-27.4375-34.804688zm0 0" fill="#ff4b34"/><path d="m79.519531 39.941406h-23.859375c-6.585937 0-11.929687 5.339844-11.929687 11.929688v7.15625h11.929687c6.589844 0 11.933594 5.339844 11.933594 11.929687v15.90625c0 6.589844-5.339844 11.929688-11.933594 11.929688h23.859375c6.589844 0 11.929688-5.339844 11.929688-11.929688v-34.992187c0-6.589844-5.339844-11.929688-11.929688-11.929688zm0 0" fill="#ffeacf"/><path d="m31.804688 98.792969h23.855468c6.589844 0 11.933594-5.339844 11.933594-11.929688v-7.160156h-11.933594c-6.585937 0-11.929687-5.339844-11.929687-11.929687v-15.90625c0-6.585938 5.339843-11.929688 11.929687-11.929688h-23.855468c-6.589844 0-11.929688 5.339844-11.929688 11.929688v34.996093c0 6.589844 5.339844 11.929688 11.929688 11.929688zm0 0" fill="#ff9079"/><path d="m67.589844 70.957031c0-6.585937-5.339844-11.929687-11.929688-11.929687h-11.929687v11.132812c0 6.589844 5.339843 11.933594 11.929687 11.933594h11.929688zm0 0" fill="#ff624b"/><path d="m48.503906 67.378906h-4.773437v2.78125c0 6.589844 5.339843 11.933594 11.929687 11.933594h4.773438v-2.785156c0-6.589844-5.339844-11.929688-11.929688-11.929688zm0 0" fill="#ff4b34"/><path d="m36.574219 86.863281v-34.992187c0-6.589844 5.339843-11.929688 11.929687-11.929688h-16.699218c-6.589844 0-11.929688 5.339844-11.929688 11.929688v34.992187c0 6.585938 5.339844 11.929688 11.929688 11.929688h16.699218c-6.589844 0-11.929687-5.339844-11.929687-11.929688zm0 0" fill="#ff624b"/><path d="m66.398438 39.941406h-10.738282c-6.585937 0-11.929687 5.339844-11.929687 11.929688v7.15625h10.738281v-7.15625c0-6.589844 5.339844-11.929688 11.929688-11.929688zm0 0" fill="#ffd59a"/><path d="m78.328125 86.863281v-15.90625c0-6.589843-5.339844-11.929687-11.929687-11.929687h-10.738282c6.589844 0 11.933594 5.339844 11.933594 11.929687v15.90625c0 6.585938-5.339844 11.929688-11.933594 11.929688h10.738282c6.585937 0 11.929687-5.339844 11.929687-11.929688zm0 0" fill="#ffd59a"/><path d="m165.589844 310.796875c-5.476563 0-9.949219-4.417969-9.996094-9.90625l-1.308594-140.097656c-.050781-5.523438 4.386719-10.039063 9.90625-10.09375 5.597656-.089844 10.042969 4.386719 10.09375 9.90625l1.308594 140.097656c.046875 5.523437-4.386719 10.039063-9.90625 10.09375-.035156 0-.066406 0-.097656 0zm0 0" fill="#ccc033"/><path d="m165.324219 166.007812c-13.117188.121094-23.851563-10.414062-23.972657-23.53125l-.117187-12.511718c0-.210938.167969-.386719.382813-.386719l46.734374-.4375c.210938 0 .382813.167969.382813.382813l.117187 12.511718c.121094 13.113282-10.410156 23.847656-23.527343 23.972656zm0 0" fill="#ccc033"/><path d="m154.5625 142.738281-.117188-12.894531c-.003906-.214844-.175781-.382812-.386718-.382812l-12.441406.117187c-.214844 0-.382813.175781-.382813.386719l.117187 12.511718c.121094 13.117188 10.855469 23.652344 23.972657 23.53125l.382812-.003906c1.667969-.019531 3.296875-.210937 4.859375-.558594.378906-.085937.402344-.617187.035156-.738281-9.234374-3.050781-15.941406-11.703125-16.039062-21.96875zm0 0" fill="#99af17"/><path d="m129.148438 113.503906v-52.730468c0-6.015626 4.878906-10.890626 10.890624-10.890626h49.796876c6.015624 0 10.890624 4.875 10.890624 10.890626v52.730468c0 19.765625-16.023437 35.789063-35.789062 35.789063-19.761719 0-35.789062-16.023438-35.789062-35.789063zm0 0" fill="#ff624b"/><path d="m145.851562 113.503906v-52.730468c0-6.015626 4.875-10.890626 10.890626-10.890626h-16.699219c-6.015625 0-10.890625 4.875-10.890625 10.890626v52.730468c0 19.765625 16.023437 35.789063 35.789062 35.789063 2.875 0 5.671875-.34375 8.347656-.984375-15.738281-3.761719-27.4375-17.914063-27.4375-34.804688zm0 0" fill="#ff4b34"/><path d="m188.796875 39.941406h-23.855469c-6.589844 0-11.929687 5.339844-11.929687 11.929688v7.15625h11.929687c6.585938 0 11.929688 5.339844 11.929688 11.929687v15.90625c0 6.589844-5.339844 11.929688-11.929688 11.929688h23.855469c6.589844 0 11.929687-5.339844 11.929687-11.929688v-34.992187c0-6.589844-5.339843-11.929688-11.929687-11.929688zm0 0" fill="#ffeacf"/><path d="m141.078125 98.792969h23.859375c6.589844 0 11.929688-5.339844 11.929688-11.929688v-7.160156h-11.929688c-6.585938 0-11.929688-5.339844-11.929688-11.929687v-15.90625c0-6.585938 5.339844-11.929688 11.929688-11.929688h-23.859375c-6.585937 0-11.929687 5.339844-11.929687 11.929688v34.996093c0 6.589844 5.34375 11.929688 11.929687 11.929688zm0 0" fill="#ff9079"/><path d="m176.867188 70.957031c0-6.585937-5.339844-11.929687-11.929688-11.929687h-11.929688v11.132812c0 6.589844 5.339844 11.933594 11.929688 11.933594h11.929688zm0 0" fill="#ff624b"/><path d="m157.78125 67.378906h-4.773438v2.78125c0 6.589844 5.339844 11.933594 11.929688 11.933594h4.773438v-2.785156c0-6.589844-5.339844-11.929688-11.929688-11.929688zm0 0" fill="#ff4b34"/><path d="m145.851562 86.863281v-34.992187c0-6.589844 5.339844-11.929688 11.929688-11.929688h-16.699219c-6.589843 0-11.929687 5.339844-11.929687 11.929688v34.992187c0 6.585938 5.339844 11.929688 11.929687 11.929688h16.699219c-6.589844 0-11.929688-5.339844-11.929688-11.929688zm0 0" fill="#ff624b"/><path d="m175.675781 39.941406h-10.738281c-6.585938 0-11.929688 5.339844-11.929688 11.929688v7.15625h10.734376v-7.15625c.003906-6.589844 5.34375-11.929688 11.933593-11.929688zm0 0" fill="#ffd59a"/><path d="m187.605469 86.863281v-15.90625c0-6.589843-5.339844-11.929687-11.929688-11.929687h-10.738281c6.589844 0 11.929688 5.339844 11.929688 11.929687v15.90625c0 6.585938-5.339844 11.929688-11.929688 11.929688h10.738281c6.589844 0 11.929688-5.339844 11.929688-11.929688zm0 0" fill="#ffd59a"/><path d="m134.792969 409.644531h-20.289063c-47.222656 0-85.507812-38.28125-85.507812-85.507812 0-94.449219 76.566406-171.015625 171.015625-171.015625h20.289062v171.015625c0 47.226562-38.285156 85.507812-85.507812 85.507812zm0 0" fill="#ffc34c"/><path d="m220.300781 324.136719v-20.824219c-7.207031-57.550781-43.898437-106.289062-95-131.582031-51.101562 25.292969-87.792969 74.03125-95 131.582031v20.824219c0 47.226562 39.488281 85.507812 88.203125 85.507812h13.59375c48.710938 0 88.203125-38.28125 88.203125-85.507812zm0 0" fill="#f9bb32"/><path d="m106.097656 409.644531h-20.289062c-47.222656 0-85.507813-38.28125-85.507813-85.507812v-171.015625h20.289063c94.449218 0 171.015625 76.566406 171.015625 171.015625 0 47.226562-38.285157 85.507812-85.507813 85.507812zm0 0" fill="#ffdf74"/><path d="m173.605469 330.136719c-3.316407 0-6-2.683594-6-6 0-52.867188-28.691407-101.9375-74.871094-128.0625-2.878906-1.628907-3.894531-5.289063-2.265625-8.175781 1.628906-2.878907 5.289062-3.898438 8.175781-2.269532 49.9375 28.25 80.960938 81.324219 80.960938 138.507813 0 3.316406-2.683594 6-6 6zm0 0" fill="#fff4c1"/><path d="m60.300781 324.136719v-165.363281c-14.398437-3.679688-29.511719-5.652344-45.105469-5.652344h-14.894531v171.015625c0 47.226562 39.488281 85.507812 88.203125 85.507812h14.894532c7.796874 0 15.355468-.984375 22.554687-2.824219-37.789063-9.660156-65.652344-43.015624-65.652344-82.683593zm0 0" fill="#ffd551"/><path d="m138.0625 431.816406h-55.523438c-9.476562 0-17.15625-7.679687-17.15625-17.15625 0-9.476562 7.679688-17.15625 17.15625-17.15625h55.523438c9.476562 0 17.15625 7.679688 17.15625 17.15625 0 9.476563-7.679688 17.15625-17.15625 17.15625zm0 0" fill="#ff624b"/><path d="m95.378906 414.660156c0-9.476562 7.683594-17.160156 17.160156-17.160156h-30c-9.476562 0-17.160156 7.683594-17.160156 17.160156 0 9.476563 7.683594 17.15625 17.160156 17.15625h30c-9.476562 0-17.160156-7.679687-17.160156-17.15625zm0 0" fill="#ff4b34"/><g fill="#ffd551"><path d="m104.097656 329.179688c0 9.664062-7.835937 17.5-17.5 17.5-9.664062 0-17.5-7.835938-17.5-17.5 0-9.664063 7.835938-17.5 17.5-17.5 9.664063 0 17.5 7.835937 17.5 17.5zm0 0"/><path d="m134.097656 371.179688c0 9.664062-7.835937 17.5-17.5 17.5-9.664062 0-17.5-7.835938-17.5-17.5 0-9.664063 7.835938-17.5 17.5-17.5 9.664063 0 17.5 7.835937 17.5 17.5zm0 0"/></g></svg>