<svg height="480pt" viewBox="-35 0 479 480" width="480pt" xmlns="http://www.w3.org/2000/svg"><path d="m193.835938 295.628906h-60c-60.65625 0-110-49.34375-110-110v-105.988281c0-16.570313 13.429687-30 30-30 16.566406 0 30 13.429687 30 30v105.988281c0 27.570313 22.429687 50 50 50h60c16.566406 0 30 13.433594 30 30 0 16.570313-13.433594 30-30 30zm0 0" fill="#eacf32"/><path d="m278.878906 480h-150v-405c0-41.421875 33.578125-75 75-75s75 33.578125 75 75zm0 0" fill="#ccc033"/><path d="m256.738281 39.820312c-1.726562 0-3.460937-.59375-4.878906-1.804687-3.144531-2.695313-3.507813-7.429687-.8125-10.574219l14.945313-17.445312c2.691406-3.148438 7.425781-3.515625 10.574218-.816406 3.148438 2.695312 3.511719 7.429687.816406 10.574218l-14.949218 17.445313c-1.480469 1.734375-3.582032 2.621093-5.695313 2.621093zm0 0" fill="#ffd551"/><path d="m135.320312 175.097656h-22.972656c-4.140625 0-7.5-3.359375-7.5-7.5s3.359375-7.5 7.5-7.5h22.972656c4.144532 0 7.5 3.359375 7.5 7.5s-3.355468 7.5-7.5 7.5zm0 0" fill="#ffa730"/><path d="m140.367188 114.164062h-22.972657c-4.144531 0-7.5-3.355468-7.5-7.5 0-4.140624 3.355469-7.5 7.5-7.5h22.972657c4.140624 0 7.5 3.359376 7.5 7.5 0 4.144532-3.359376 7.5-7.5 7.5zm0 0" fill="#ffa730"/><path d="m271.355469 75.402344c-2.890625 0-5.648438-1.683594-6.878907-4.503906-1.65625-3.796876.082032-8.214844 3.875-9.875l21.058594-9.179688c3.796875-1.660156 8.214844.078125 9.875 3.875 1.652344 3.796875-.082031 8.214844-3.878906 9.875l-21.054688 9.179688c-.976562.429687-1.996093.628906-2.996093.628906zm0 0" fill="#ffd551"/><path d="m290.367188 135.5h-22.972657c-4.140625 0-7.5-3.359375-7.5-7.5s3.359375-7.5 7.5-7.5h22.972657c4.140624 0 7.5 3.359375 7.5 7.5s-3.359376 7.5-7.5 7.5zm0 0" fill="#ffd551"/><path d="m299.367188 225.5h-22.972657c-4.140625 0-7.5-3.359375-7.5-7.5s3.359375-7.5 7.5-7.5h22.972657c4.140624 0 7.5 3.359375 7.5 7.5s-3.359376 7.5-7.5 7.5zm0 0" fill="#ffd551"/><path d="m148.488281 42.585938c-1.917969 0-3.835937-.734376-5.304687-2.199219l-16.242188-16.246094c-2.929687-2.925781-2.929687-7.675781 0-10.605469 2.929688-2.929687 7.679688-2.929687 10.609375 0l16.242188 16.246094c2.929687 2.925781 2.929687 7.675781 0 10.605469-1.464844 1.464843-3.386719 2.199219-5.304688 2.199219zm0 0" fill="#ffa730"/><path d="m397.320312 250.835938h-22.972656c-4.140625 0-7.5-3.359376-7.5-7.5 0-4.144532 3.359375-7.5 7.5-7.5h22.972656c4.144532 0 7.5 3.355468 7.5 7.5 0 4.140624-3.355468 7.5-7.5 7.5zm0 0" fill="#ffd551"/><path d="m367.996094 159.21875c-1.726563 0-3.457032-.59375-4.875-1.804688-3.144532-2.695312-3.511719-7.429687-.816406-10.574218l14.945312-17.445313c2.691406-3.148437 7.425781-3.515625 10.578125-.816406 3.144531 2.695313 3.507813 7.429687.816406 10.574219l-14.945312 17.445312c-1.484375 1.730469-3.589844 2.621094-5.703125 2.621094zm0 0" fill="#ffd551"/><path d="m382.617188 188.800781c-2.894532 0-5.648438-1.683593-6.878907-4.503906-1.65625-3.796875.078125-8.21875 3.875-9.875l21.058594-9.183594c3.796875-1.65625 8.214844.082031 9.875 3.878907 1.65625 3.792968-.082031 8.214843-3.878906 9.871093l-21.058594 9.183594c-.976563.429687-1.992187.628906-2.992187.628906zm0 0" fill="#ffd551"/><g fill="#ffa730"><path d="m37.320312 160.835938h-22.972656c-4.140625 0-7.5-3.359376-7.5-7.5 0-4.144532 3.359375-7.5 7.5-7.5h22.972656c4.144532 0 7.5 3.355468 7.5 7.5 0 4.140624-3.355468 7.5-7.5 7.5zm0 0"/><path d="m43.671875 69.21875c-2.113281 0-4.214844-.890625-5.699219-2.621094l-14.945312-17.449218c-2.695313-3.140626-2.328125-7.875.816406-10.574219 3.144531-2.695313 7.878906-2.332031 10.574219.816406l14.949219 17.449219c2.695312 3.140625 2.328124 7.875-.816407 10.570312-1.414062 1.214844-3.152343 1.808594-4.878906 1.808594zm0 0"/><path d="m29.054688 98.800781c-1 0-2.015626-.203125-2.992188-.625l-21.058594-9.183593c-3.796875-1.65625-5.53125-6.078126-3.875-9.875 1.65625-3.792969 6.074219-5.53125 9.871094-3.875l21.058594 9.183593c3.796875 1.652344 5.53125 6.074219 3.875 9.871094-1.230469 2.820313-3.984375 4.503906-6.878906 4.503906zm0 0"/><path d="m135.320312 355.097656h-22.972656c-4.140625 0-7.5-3.359375-7.5-7.5s3.359375-7.5 7.5-7.5h22.972656c4.144532 0 7.5 3.359375 7.5 7.5s-3.355468 7.5-7.5 7.5zm0 0"/></g><path d="m299.367188 405.5h-22.972657c-4.140625 0-7.5-3.359375-7.5-7.5s3.359375-7.5 7.5-7.5h22.972657c4.140624 0 7.5 3.359375 7.5 7.5s-3.359376 7.5-7.5 7.5zm0 0" fill="#ffd551"/><path d="m205.878906 202.773438c-4.140625 0-7.5-3.359376-7.5-7.5v-22.976563c0-4.140625 3.359375-7.5 7.5-7.5s7.5 3.359375 7.5 7.5v22.972656c0 4.144531-3.355468 7.503907-7.5 7.503907zm0 0" fill="#ffd551"/><path d="m229.878906 137.136719c-4.140625 0-7.5-3.355469-7.5-7.5v-22.972657c0-4.140624 3.359375-7.5 7.5-7.5s7.5 3.359376 7.5 7.5v22.972657c0 4.144531-3.355468 7.5-7.5 7.5zm0 0" fill="#ffd551"/><path d="m163.835938 271.628906c-60.65625 0-110-49.34375-110-110v-105.988281c0-2.050781.207031-4.050781.597656-5.984375-.199219-.007812-.398438-.015625-.597656-.015625-16.570313 0-30 13.429687-30 30v105.988281c0 60.65625 49.34375 110 110 110h60c14.511718 0 26.621093-10.304687 29.398437-24zm0 0" fill="#ccc033"/><path d="m233.878906 6.257812c-9.1875-4.015624-19.328125-6.257812-30-6.257812-41.421875 0-75 33.578125-75 75v405h60v-405c0-30.753906 18.515625-57.164062 45-68.742188zm0 0" fill="#99af17"/><path d="m355.835938 139.640625c-16.570313 0-30 13.429687-30 30v105.988281c0 26.546875-20.796876 48.320313-46.957032 49.898438v60.058594c59.253906-1.617188 106.957032-50.320313 106.957032-109.957032v-105.988281c0-16.570313-13.433594-30-30-30zm0 0" fill="#ccc033"/><path d="m367.835938 281.628906c-3.316407 0-6-2.6875-6-6v-82.964844c0-3.3125 2.683593-6 6-6 3.3125 0 6 2.6875 6 6v82.964844c0 3.316406-2.6875 6-6 6zm0 0" fill="#eacf32"/><path d="m355.835938 139.640625c-16.570313 0-30 13.429687-30 30v105.988281c0 26.546875-20.796876 48.320313-46.957032 49.898438v18.101562h20.957032c27.570312 0 50-22.429687 50-50v-105.988281c0-16.570313 13.429687-30 30-30 1.21875 0 2.414062.082031 3.597656.222656-4.582032-10.714843-15.210938-18.222656-27.597656-18.222656zm0 0" fill="#99af17"/><path d="m235.878906 331.773438c-4.140625 0-7.5-3.359376-7.5-7.5v-22.972657c0-4.144531 3.359375-7.5 7.5-7.5s7.5 3.355469 7.5 7.5v22.972657c0 4.140624-3.355468 7.5-7.5 7.5zm0 0" fill="#ffd551"/><path d="m166.878906 289.773438c-4.140625 0-7.5-3.359376-7.5-7.5v-22.972657c0-4.144531 3.359375-7.5 7.5-7.5s7.5 3.355469 7.5 7.5v22.972657c0 4.140624-3.355468 7.5-7.5 7.5zm0 0" fill="#ffa730"/><path d="m160.878906 421.773438c-4.140625 0-7.5-3.359376-7.5-7.5v-22.972657c0-4.144531 3.359375-7.5 7.5-7.5s7.5 3.355469 7.5 7.5v22.972657c0 4.140624-3.355468 7.5-7.5 7.5zm0 0" fill="#ffa730"/><path d="m229.878906 453.800781c0 9.664063-7.835937 17.5-17.5 17.5-9.664062 0-17.5-7.835937-17.5-17.5 0-9.664062 7.835938-17.5 17.5-17.5 9.664063 0 17.5 7.835938 17.5 17.5zm0 0" fill="#99af17"/><path d="m241.878906 54.800781c0 9.664063-7.835937 17.5-17.5 17.5-9.664062 0-17.5-7.835937-17.5-17.5 0-9.664062 7.835938-17.5 17.5-17.5 9.664063 0 17.5 7.835938 17.5 17.5zm0 0" fill="#99af17"/></svg>