<svg height="481pt" viewBox="-66 0 481 481.768" width="481pt" xmlns="http://www.w3.org/2000/svg"><path d="m348.949219 264.945312c1.375-3.234374-1.757813-6.539062-5.0625-5.335937-72.496094 26.367187-113.777344 67.332031-113.777344 67.332031l.070313.078125c-1.925782 1.75-3.847657 3.539063-5.761719 5.371094-39.921875 38.214844-62.175781 80.429687-49.707031 94.292969 12.472656 13.867187 54.945312-5.871094 94.867187-44.082032 1.917969-1.832031 3.789063-3.675781 5.621094-5.527343l.070312.078125c.003907 0 42.761719-39.476563 73.679688-112.207032zm0 0" fill="#ccc033"/><path d="m241.425781 348.210938c1.914063-1.832032 3.835938-3.621094 5.761719-5.367188l-.070312-.078125s33.574218-33.308594 93.328124-59.191406c2.902344-5.941407 5.75-12.152344 8.503907-18.625 1.375-3.238281-1.757813-6.542969-5.0625-5.339844-72.492188 26.371094-113.777344 67.335937-113.777344 67.335937l.070313.074219c-1.921876 1.75-3.84375 3.539063-5.761719 5.371094-39.921875 38.210937-62.171875 80.425781-49.703125 94.292969 2.96875 3.296875 7.648437 4.671875 13.574218 4.371094.570313-19.125 21.179688-52.257813 53.136719-82.84375zm0 0" fill="#99af17"/><path d="m348.949219 264.945312c1.375-3.234374-1.757813-6.539062-5.0625-5.335937-72.496094 26.367187-113.777344 67.332031-113.777344 67.332031l.070313.078125c-1.925782 1.75-3.847657 3.539063-5.761719 5.371094-39.921875 38.214844-62.175781 80.429687-49.707031 94.292969 12.472656 13.867187 54.945312-5.871094 94.867187-44.082032 1.917969-1.832031 3.789063-3.675781 5.621094-5.527343l.070312.078125c.003907 0 42.761719-39.476563 73.679688-112.207032zm0 0" fill="#ccc033"/><path d="m241.425781 348.210938c1.914063-1.832032 3.835938-3.621094 5.761719-5.367188l-.070312-.078125s33.574218-33.308594 93.328124-59.191406c2.902344-5.941407 5.75-12.152344 8.503907-18.625 1.375-3.238281-1.757813-6.542969-5.0625-5.339844-72.492188 26.371094-113.777344 67.335937-113.777344 67.335937l.070313.074219c-1.921876 1.75-3.84375 3.539063-5.761719 5.371094-39.921875 38.210937-62.171875 80.425781-49.703125 94.292969 2.96875 3.296875 7.648437 4.671875 13.574218 4.371094.570313-19.125 21.179688-52.257813 53.136719-82.84375zm0 0" fill="#99af17"/><path d="m348.949219 264.945312c1.375-3.234374-1.757813-6.539062-5.0625-5.335937-72.496094 26.367187-113.777344 67.332031-113.777344 67.332031l.070313.078125c-1.925782 1.75-3.847657 3.539063-5.761719 5.371094-39.921875 38.214844-62.175781 80.429687-49.707031 94.292969 12.472656 13.867187 54.945312-5.871094 94.867187-44.082032 1.917969-1.832031 3.789063-3.675781 5.621094-5.527343l.070312.078125c.003907 0 42.761719-39.476563 73.679688-112.207032zm0 0" fill="#ccc033"/><path d="m241.425781 348.210938c1.914063-1.832032 3.835938-3.621094 5.761719-5.367188l-.070312-.078125s33.574218-33.308594 93.328124-59.191406c2.902344-5.941407 5.75-12.152344 8.503907-18.625 1.375-3.238281-1.757813-6.542969-5.0625-5.339844-72.492188 26.371094-113.777344 67.335937-113.777344 67.335937l.070313.074219c-1.921876 1.75-3.84375 3.539063-5.761719 5.371094-39.921875 38.210937-62.171875 80.425781-49.703125 94.292969 2.96875 3.296875 7.648437 4.671875 13.574218 4.371094.570313-19.125 21.179688-52.257813 53.136719-82.84375zm0 0" fill="#99af17"/><path d="m348.949219 264.945312c1.375-3.234374-1.757813-6.539062-5.0625-5.335937-72.496094 26.367187-113.777344 67.332031-113.777344 67.332031l.070313.078125c-1.925782 1.75-3.847657 3.539063-5.761719 5.371094-39.921875 38.214844-62.175781 80.429687-49.707031 94.292969 12.472656 13.867187 54.945312-5.871094 94.867187-44.082032 1.917969-1.832031 3.789063-3.675781 5.621094-5.527343l.070312.078125c.003907 0 42.761719-39.476563 73.679688-112.207032zm0 0" fill="#ccc033"/><path d="m241.425781 348.210938c1.914063-1.832032 3.835938-3.621094 5.761719-5.367188l-.070312-.078125s33.574218-33.308594 93.328124-59.191406c2.902344-5.941407 5.75-12.152344 8.503907-18.625 1.375-3.238281-1.757813-6.542969-5.0625-5.339844-72.492188 26.371094-113.777344 67.335937-113.777344 67.335937l.070313.074219c-1.921876 1.75-3.84375 3.539063-5.761719 5.371094-39.921875 38.210937-62.171875 80.425781-49.703125 94.292969 2.96875 3.296875 7.648437 4.671875 13.574218 4.371094.570313-19.125 21.179688-52.257813 53.136719-82.84375zm0 0" fill="#99af17"/><path d="m348.949219 264.945312c1.375-3.234374-1.757813-6.539062-5.0625-5.335937-72.496094 26.367187-113.777344 67.332031-113.777344 67.332031l.070313.078125c-1.925782 1.75-3.847657 3.539063-5.761719 5.371094-39.921875 38.214844-62.175781 80.429687-49.707031 94.292969 12.472656 13.867187 54.945312-5.871094 94.867187-44.082032 1.917969-1.832031 3.789063-3.675781 5.621094-5.527343l.070312.078125c.003907 0 42.761719-39.476563 73.679688-112.207032zm0 0" fill="#ccc033"/><path d="m241.425781 348.210938c1.914063-1.832032 3.835938-3.621094 5.761719-5.367188l-.070312-.078125s33.574218-33.308594 93.328124-59.191406c2.902344-5.941407 5.75-12.152344 8.503907-18.625 1.375-3.238281-1.757813-6.542969-5.0625-5.339844-72.492188 26.371094-113.777344 67.335937-113.777344 67.335937l.070313.074219c-1.921876 1.75-3.84375 3.539063-5.761719 5.371094-39.921875 38.210937-62.171875 80.425781-49.703125 94.292969 2.96875 3.296875 7.648437 4.671875 13.574218 4.371094.570313-19.125 21.179688-52.257813 53.136719-82.84375zm0 0" fill="#99af17"/><path d="m348.949219 264.945312c1.375-3.234374-1.757813-6.539062-5.0625-5.335937-72.496094 26.367187-113.777344 67.332031-113.777344 67.332031l.070313.078125c-1.925782 1.75-3.847657 3.539063-5.761719 5.371094-39.921875 38.214844-62.175781 80.429687-49.707031 94.292969 12.472656 13.867187 54.945312-5.871094 94.867187-44.082032 1.917969-1.832031 3.789063-3.675781 5.621094-5.527343l.070312.078125c.003907 0 42.761719-39.476563 73.679688-112.207032zm0 0" fill="#ccc033"/><path d="m241.425781 348.210938c1.914063-1.832032 3.835938-3.621094 5.761719-5.367188l-.070312-.078125s33.574218-33.308594 93.328124-59.191406c2.902344-5.941407 5.75-12.152344 8.503907-18.625 1.375-3.238281-1.757813-6.542969-5.0625-5.339844-72.492188 26.371094-113.777344 67.335937-113.777344 67.335937l.070313.074219c-1.921876 1.75-3.84375 3.539063-5.761719 5.371094-39.921875 38.210937-62.171875 80.425781-49.703125 94.292969 2.96875 3.296875 7.648437 4.671875 13.574218 4.371094.570313-19.125 21.179688-52.257813 53.136719-82.84375zm0 0" fill="#99af17"/><path d="m348.949219 264.945312c1.375-3.234374-1.757813-6.539062-5.0625-5.335937-72.496094 26.367187-113.777344 67.332031-113.777344 67.332031l.070313.078125c-1.925782 1.75-3.847657 3.539063-5.761719 5.371094-39.921875 38.214844-62.175781 80.429687-49.707031 94.292969 12.472656 13.867187 54.945312-5.871094 94.867187-44.082032 1.917969-1.832031 3.789063-3.675781 5.621094-5.527343l.070312.078125c.003907 0 42.761719-39.476563 73.679688-112.207032zm0 0" fill="#ccc033"/><path d="m241.425781 348.210938c1.914063-1.832032 3.835938-3.621094 5.761719-5.367188l-.070312-.078125s33.574218-33.308594 93.328124-59.191406c2.902344-5.941407 5.75-12.152344 8.503907-18.625 1.375-3.238281-1.757813-6.542969-5.0625-5.339844-72.492188 26.371094-113.777344 67.335937-113.777344 67.335937l.070313.074219c-1.921876 1.75-3.84375 3.539063-5.761719 5.371094-39.921875 38.210937-62.171875 80.425781-49.703125 94.292969 2.96875 3.296875 7.648437 4.671875 13.574218 4.371094.570313-19.125 21.179688-52.257813 53.136719-82.84375zm0 0" fill="#99af17"/><path d="m348.949219 264.945312c1.375-3.234374-1.757813-6.539062-5.0625-5.335937-72.496094 26.367187-113.777344 67.332031-113.777344 67.332031l.070313.078125c-1.925782 1.75-3.847657 3.539063-5.761719 5.371094-39.921875 38.214844-62.175781 80.429687-49.707031 94.292969 12.472656 13.867187 54.945312-5.871094 94.867187-44.082032 1.917969-1.832031 3.789063-3.675781 5.621094-5.527343l.070312.078125c.003907 0 42.761719-39.476563 73.679688-112.207032zm0 0" fill="#ccc033"/><path d="m241.425781 348.210938c1.914063-1.832032 3.835938-3.621094 5.761719-5.367188l-.070312-.078125s33.574218-33.308594 93.328124-59.191406c2.902344-5.941407 5.75-12.152344 8.503907-18.625 1.375-3.238281-1.757813-6.542969-5.0625-5.339844-72.492188 26.371094-113.777344 67.335937-113.777344 67.335937l.070313.074219c-1.921876 1.75-3.84375 3.539063-5.761719 5.371094-39.921875 38.210937-62.171875 80.425781-49.703125 94.292969 2.96875 3.296875 7.648437 4.671875 13.574218 4.371094.570313-19.125 21.179688-52.257813 53.136719-82.84375zm0 0" fill="#99af17"/><path d="m174.523438 481.769531c-5.519532 0-9.996094-4.476562-10-9.996093l-.109376-351.121094c-.003906-5.519532 4.472657-10 9.996094-10h.003906c5.519532 0 9.996094 4.476562 10 9.996094l.109376 351.117187c.003906 5.519531-4.472657 10-9.996094 10.003906 0 0 0 0-.003906 0zm0 0" fill="#ccc033"/><path d="m176.523438 471.769531-.109376-351.117187c0-3.269532 1.574219-6.164063 4-7.988282-1.671874-1.257812-3.746093-2.015624-6-2.015624h-.003906c-5.523437.003906-10 4.480468-9.996094 10.003906l.109376 351.117187c.003906 5.519531 4.480468 9.996094 10 9.996094h.003906c2.253906 0 4.324218-.757813 5.996094-2.015625-2.421876-1.820312-3.996094-4.710938-4-7.980469zm0 0" fill="#99af17"/><path d="m277.175781 0c-9.765625 0-9.765625 13.613281-19.527343 13.617188-9.761719-.003907-9.765626-13.617188-19.53125-13.617188h-.003907c-9.761719 0-9.761719 13.617188-19.527343 13.617188-9.765626 0-9.765626-13.617188-19.535157-13.617188-9.765625 0-9.765625 13.617188-19.53125 13.617188s-9.765625-13.617188-19.53125-13.617188-9.765625 13.617188-19.53125 13.617188-9.765625-13.617188-19.53125-13.617188h-.003906c-9.765625 0-9.765625 13.613281-19.527344 13.617188-9.761719-.003907-9.765625-13.617188-19.527343-13.617188v57.535156c0 56.40625 43.722656 102.132813 97.652343 102.132813 53.933594 0 97.65625-45.726563 97.65625-102.132813zm0 0" fill="#ff9079"/><path d="m347.488281 21.429688c-9.765625 0-9.769531 13.613281-19.527343 13.617187-9.761719-.003906-9.765626-13.617187-19.53125-13.617187h-.003907c-9.761719 0-9.761719 13.617187-19.527343 13.617187-9.769532 0-9.769532-13.617187-19.535157-13.617187s-9.765625 13.617187-19.53125 13.617187-9.765625-13.617187-19.53125-13.617187-9.765625 13.617187-19.53125 13.617187-9.765625-13.617187-19.53125-13.617187h-.003906c-9.765625 0-9.769531 13.613281-19.53125 13.617187-9.757813-.003906-9.761719-13.617187-19.523437-13.617187v57.535156c0 56.40625 43.722656 102.132812 97.652343 102.132812 53.933594 0 97.65625-45.726562 97.65625-102.132812zm0 0" fill="#ff624b"/><path d="m269.363281 42.539062v-21.109374c-9.71875.003906-9.769531 13.484374-19.402343 13.613281-.042969 0-.082032.003906-.125.003906 0 0 0 0-.003907 0-9.765625 0-9.765625-13.613281-19.53125-13.617187-9.761719 0-9.761719 13.617187-19.527343 13.617187h-.003907c-9.761719 0-9.765625-13.613281-19.527343-13.617187-9.761719.003906-9.765626 13.617187-19.53125 13.617187 0 0 0 0-.003907 0-.050781 0-.101562-.003906-.152343-.003906-.25-.003907-.5-.011719-.734376-.03125-.03125-.003907-.054687-.007813-.082031-.011719-.257812-.027344-.507812-.058594-.75-.105469-.019531-.003906-.03125-.007812-.050781-.011719-8.03125-1.535156-8.621094-13.449218-17.757812-13.449218v57.53125c0 41.878906 24.105468 77.863281 58.59375 93.625 34.488281-15.761719 58.589843-51.746094 58.589843-93.625zm0 0" fill="#ff4b34"/><path d="m206.863281 21.429688c-9.765625 0-9.765625 13.613281-19.527343 13.617187-9.761719-.003906-9.761719-13.617187-19.53125-13.617187h-.003907c-9.761719 0-9.761719 13.617187-19.527343 13.617187-9.765626 0-9.765626-13.617187-19.53125-13.617187-9.765626 0-9.765626 13.617187-19.535157 13.617187-9.765625 0-9.765625-13.617187-19.53125-13.617187s-9.765625 13.617187-19.53125 13.617187-9.765625-13.617187-19.53125-13.617187h-.003906c-9.765625 0-9.765625 13.613281-19.527344 13.617187-9.761719-.003906-9.761719-13.617187-19.527343-13.617187v57.535156c0 56.40625 43.722656 102.132812 97.652343 102.132812 53.9375 0 97.65625-45.726562 97.65625-102.132812zm0 0" fill="#ff624b"/><g fill="#ff4b34"><path d="m148.53125 35.046875c9.722656 0 9.765625-13.488281 19.402344-13.609375-.042969 0-.082032-.007812-.128906-.007812 0 0 0 0-.003907 0-9.71875 0-9.769531 13.492187-19.398437 13.613281.042968 0 .085937.003906.128906.003906zm0 0"/><path d="m187.59375 35.046875c9.675781 0 9.769531-13.359375 19.269531-13.605469v-.011718c-9.71875 0-9.769531 13.484374-19.402343 13.613281.046874 0 .089843.003906.132812.003906zm0 0"/><path d="m70.402344 35.046875c9.71875-.003906 9.765625-13.488281 19.402344-13.609375-.042969 0-.085938-.007812-.128907-.007812-9.71875 0-9.769531 13.484374-19.398437 13.613281.042968 0 .082031.003906.125.003906zm0 0"/><path d="m50.875 78.964844v-57.523438c-.085938 0-.171875-.011718-.261719-.011718h-.003906c-9.765625 0-9.765625 13.613281-19.527344 13.617187-9.761719-.003906-9.761719-13.617187-19.527343-13.617187v57.535156c0 56.40625 43.722656 102.132812 97.652343 102.132812 6.734375 0 13.3125-.714844 19.664063-2.074218-44.511719-9.511719-77.996094-50.695313-77.996094-100.058594zm0 0"/><path d="m109.464844 35.046875c9.722656 0 9.769531-13.488281 19.40625-13.609375-.042969 0-.085938-.007812-.128906-.007812-9.722657 0-9.769532 13.488281-19.402344 13.613281.039062 0 .082031.003906.125.003906zm0 0"/></g><path d="m315.847656 60.960938c-9.765625 0-9.765625 13.609374-19.527344 13.617187-9.761718-.007813-9.765624-13.617187-19.53125-13.617187h-.003906c-9.761718 0-9.761718 13.617187-19.527344 13.617187-9.765624 0-9.765624-13.617187-19.53125-13.617187-9.769531 0-9.769531 13.613281-19.535156 13.617187-9.765625 0-9.765625-13.617187-19.53125-13.617187s-9.765625 13.617187-19.53125 13.617187-9.765625-13.617187-19.53125-13.617187h-.003906c-9.765625 0-9.765625 13.609374-19.527344 13.617187-9.761718-.007813-9.765625-13.617187-19.527344-13.617187v57.535156c0 56.40625 43.722657 102.132812 97.652344 102.132812 53.933594 0 97.65625-45.726562 97.65625-102.132812zm0 0" fill="#ff9079"/><path d="m276.636719 118.492188v-57.527344c-9.613281.140625-9.667969 13.613281-19.378907 13.613281-.027343 0-.050781-.003906-.074218-.003906-.023438 0-.046875.003906-.070313.003906-9.738281-.007813-9.765625-13.546875-19.460937-13.613281-9.695313.066406-9.71875 13.613281-19.460938 13.613281-.023437 0-.046875-.003906-.074218-.003906-.023438 0-.046876.003906-.070313.003906-9.742187 0-9.769531-13.546875-19.460937-13.613281-9.691407.066406-9.71875 13.613281-19.460938 13.613281-.023438 0-.042969-.003906-.070312-.003906-.023438 0-.046876.003906-.070313.003906-9.742187 0-9.769531-13.546875-19.464844-13.613281-9.691406.066406-9.722656 13.605468-19.457031 13.613281-.023438 0-.046875-.003906-.070312-.003906-.027344 0-.050782.003906-.074219.003906-9.714844 0-9.765625-13.472656-19.382813-13.613281v57.527344c0 49.386718 33.515625 90.582031 78.050782 100.074218 44.539062-9.492187 78.050781-50.6875 78.050781-100.074218zm0 0" fill="#ff624b"/><path d="m237.671875 60.960938c-9.761719 0-9.765625 13.609374-19.523437 13.617187-9.765626-.007813-9.765626-13.617187-19.53125-13.617187h-.003907c-9.765625 0-9.765625 13.617187-19.53125 13.617187s-9.765625-13.617187-19.53125-13.617187-9.765625 13.613281-19.53125 13.617187c-9.765625 0-9.765625-13.617187-19.53125-13.617187-9.769531 0-9.769531 13.617187-19.535156 13.617187-9.761719 0-9.761719-13.617187-19.527344-13.617187h-.003906c-9.765625 0-9.769531 13.609374-19.53125 13.617187-9.761719-.007813-9.761719-13.617187-19.527344-13.617187v57.535156c0 56.40625 43.722657 102.132812 97.65625 102.132812 53.933594 0 97.652344-45.726562 97.652344-102.132812zm0 0" fill="#ff9079"/><path d="m204.738281 173.480469c-1.160156 0-2.335937-.335938-3.371093-1.039063-2.738282-1.863281-3.449219-5.59375-1.585938-8.335937 9.089844-13.355469 13.890625-29.128907 13.890625-45.613281v-25.957032c0-3.3125 2.6875-6 6-6 3.316406 0 6 2.6875 6 6v25.957032c0 18.902343-5.519531 37.011718-15.96875 52.367187-1.160156 1.703125-3.042969 2.621094-4.964844 2.621094zm0 0" fill="#ffd59a"/><path d="m82.207031 118.492188v-57.5c-.253906-.019532-.515625-.03125-.78125-.03125h-.003906c-9.765625 0-9.769531 13.609374-19.53125 13.617187-9.761719-.007813-9.761719-13.617187-19.527344-13.617187v57.535156c0 56.40625 43.722657 102.132812 97.65625 102.132812 6.828125 0 13.488281-.738281 19.921875-2.132812-44.378906-9.621094-77.734375-50.734375-77.734375-100.003906zm0 0" fill="#ff624b"/><path d="m184.804688 253.523438h12.199218c16.03125 0 29.027344-12.996094 29.027344-29.03125v-35.917969c0-2.40625-1.949219-4.359375-4.359375-4.359375h-31.328125c-19.089844 0-34.566406 15.476562-34.566406 34.570312v5.707032c0 16.035156 12.996094 29.03125 29.027344 29.03125zm0 0" fill="#ccc033"/><path d="m179.140625 186.148438c-15.621094 4.144531-26.699219 14.5-26.699219 26.632812v16.75c0 11.265625 11.371094 20.710938 26.699219 23.292969 15.328125-2.582031 26.699219-12.027344 26.699219-23.292969v-16.75c0-12.132812-11.078125-22.488281-26.699219-26.632812zm0 0" fill="#99af17"/><path d="m165.566406 253.523438h-12.195312c-16.035156 0-29.03125-12.996094-29.03125-29.03125v-35.917969c0-2.40625 1.953125-4.359375 4.359375-4.359375h31.328125c19.09375 0 34.570312 15.476562 34.570312 34.570312v5.707032c0 16.035156-13 29.03125-29.03125 29.03125zm0 0" fill="#eacf32"/><path d="m154.339844 224.492188v-35.917969c0-2.410157 1.953125-4.359375 4.359375-4.359375h-30c-2.410157 0-4.359375 1.949218-4.359375 4.359375v35.917969c0 16.035156 13 29.03125 29.03125 29.03125h12.195312c3.105469 0 6.097656-.496094 8.902344-1.398438-11.675781-3.757812-20.128906-14.703125-20.128906-27.632812zm0 0" fill="#ccc033"/><path d="m124.339844 97.011719c0 9.664062-7.835938 17.5-17.5 17.5-9.664063 0-17.5-7.835938-17.5-17.5 0-9.667969 7.835937-17.5 17.5-17.5 9.664062 0 17.5 7.832031 17.5 17.5zm0 0" fill="#ff624b"/><path d="m5.976562 256.550781c-3.238281-1.375-6.542968 1.757813-5.339843 5.0625 26.371093 72.496094 67.332031 113.777344 67.332031 113.777344l.078125-.070313c1.75 1.925782 3.539063 3.847657 5.375 5.765626 38.210937 39.921874 80.425781 62.171874 94.289063 49.703124 13.867187-12.472656-5.871094-54.945312-44.082032-94.867187-1.832031-1.914063-3.675781-3.789063-5.523437-5.621094l.078125-.070312c-.003906-.003907-39.480469-42.765625-112.207032-73.679688zm0 0" fill="#ccc033"/><path d="m89.242188 364.074219c-1.835938-1.914063-3.625-3.835938-5.371094-5.761719l-.078125.070312s-33.304688-33.574218-59.1875-93.328124c-5.945313-2.902344-12.15625-5.75-18.628907-8.503907-3.234374-1.375-6.539062 1.757813-5.339843 5.0625 26.371093 72.496094 67.335937 113.777344 67.335937 113.777344l.074219-.070313c1.75 1.921876 3.539063 3.84375 5.371094 5.761719 38.210937 39.921875 80.429687 62.175781 94.292969 49.703125 3.296874-2.96875 4.671874-7.648437 4.375-13.574218-19.125-.570313-52.261719-21.179688-82.84375-53.136719zm0 0" fill="#99af17"/><path d="m5.976562 256.550781c-3.238281-1.375-6.542968 1.757813-5.339843 5.0625 26.371093 72.496094 67.332031 113.777344 67.332031 113.777344l.078125-.070313c1.75 1.925782 3.539063 3.847657 5.375 5.765626 38.210937 39.921874 80.425781 62.171874 94.289063 49.703124 13.867187-12.472656-5.871094-54.945312-44.082032-94.867187-1.832031-1.914063-3.675781-3.789063-5.523437-5.621094l.078125-.070312c-.003906-.003907-39.480469-42.765625-112.207032-73.679688zm0 0" fill="#ccc033"/><path d="m89.242188 364.074219c-1.835938-1.914063-3.625-3.835938-5.371094-5.761719l-.078125.070312s-33.304688-33.574218-59.1875-93.328124c-5.945313-2.902344-12.15625-5.75-18.628907-8.503907-3.234374-1.375-6.539062 1.757813-5.339843 5.0625 26.371093 72.496094 67.335937 113.777344 67.335937 113.777344l.074219-.070313c1.75 1.921876 3.539063 3.84375 5.371094 5.761719 38.210937 39.921875 80.429687 62.175781 94.292969 49.703125 3.296874-2.96875 4.671874-7.648437 4.375-13.574218-19.125-.570313-52.261719-21.179688-82.84375-53.136719zm0 0" fill="#99af17"/><path d="m5.976562 256.550781c-3.238281-1.375-6.542968 1.757813-5.339843 5.0625 26.371093 72.496094 67.332031 113.777344 67.332031 113.777344l.078125-.070313c1.75 1.925782 3.539063 3.847657 5.375 5.765626 38.210937 39.921874 80.425781 62.171874 94.289063 49.703124 13.867187-12.472656-5.871094-54.945312-44.082032-94.867187-1.832031-1.914063-3.675781-3.789063-5.523437-5.621094l.078125-.070312c-.003906-.003907-39.480469-42.765625-112.207032-73.679688zm0 0" fill="#ccc033"/><path d="m89.242188 364.074219c-1.835938-1.914063-3.625-3.835938-5.371094-5.761719l-.078125.070312s-33.304688-33.574218-59.1875-93.328124c-5.945313-2.902344-12.15625-5.75-18.628907-8.503907-3.234374-1.375-6.539062 1.757813-5.339843 5.0625 26.371093 72.496094 67.335937 113.777344 67.335937 113.777344l.074219-.070313c1.75 1.921876 3.539063 3.84375 5.371094 5.761719 38.210937 39.921875 80.429687 62.175781 94.292969 49.703125 3.296874-2.96875 4.671874-7.648437 4.375-13.574218-19.125-.570313-52.261719-21.179688-82.84375-53.136719zm0 0" fill="#99af17"/><path d="m5.976562 256.550781c-3.238281-1.375-6.542968 1.757813-5.339843 5.0625 26.371093 72.496094 67.332031 113.777344 67.332031 113.777344l.078125-.070313c1.75 1.925782 3.539063 3.847657 5.375 5.765626 38.210937 39.921874 80.425781 62.171874 94.289063 49.703124 13.867187-12.472656-5.871094-54.945312-44.082032-94.867187-1.832031-1.914063-3.675781-3.789063-5.523437-5.621094l.078125-.070312c-.003906-.003907-39.480469-42.765625-112.207032-73.679688zm0 0" fill="#ccc033"/><path d="m89.242188 364.074219c-1.835938-1.914063-3.625-3.835938-5.371094-5.761719l-.078125.070312s-33.304688-33.574218-59.1875-93.328124c-5.945313-2.902344-12.15625-5.75-18.628907-8.503907-3.234374-1.375-6.539062 1.757813-5.339843 5.0625 26.371093 72.496094 67.335937 113.777344 67.335937 113.777344l.074219-.070313c1.75 1.921876 3.539063 3.84375 5.371094 5.761719 38.210937 39.921875 80.429687 62.175781 94.292969 49.703125 3.296874-2.96875 4.671874-7.648437 4.375-13.574218-19.125-.570313-52.261719-21.179688-82.84375-53.136719zm0 0" fill="#99af17"/><path d="m5.976562 256.550781c-3.238281-1.375-6.542968 1.757813-5.339843 5.0625 26.371093 72.496094 67.332031 113.777344 67.332031 113.777344l.078125-.070313c1.75 1.925782 3.539063 3.847657 5.375 5.765626 38.210937 39.921874 80.425781 62.171874 94.289063 49.703124 13.867187-12.472656-5.871094-54.945312-44.082032-94.867187-1.832031-1.914063-3.675781-3.789063-5.523437-5.621094l.078125-.070312c-.003906-.003907-39.480469-42.765625-112.207032-73.679688zm0 0" fill="#ccc033"/><path d="m89.242188 364.074219c-1.835938-1.914063-3.625-3.835938-5.371094-5.761719l-.078125.070312s-33.304688-33.574218-59.1875-93.328124c-5.945313-2.902344-12.15625-5.75-18.628907-8.503907-3.234374-1.375-6.539062 1.757813-5.339843 5.0625 26.371093 72.496094 67.335937 113.777344 67.335937 113.777344l.074219-.070313c1.75 1.921876 3.539063 3.84375 5.371094 5.761719 38.210937 39.921875 80.429687 62.175781 94.292969 49.703125 3.296874-2.96875 4.671874-7.648437 4.375-13.574218-19.125-.570313-52.261719-21.179688-82.84375-53.136719zm0 0" fill="#99af17"/><path d="m5.976562 256.550781c-3.238281-1.375-6.542968 1.757813-5.339843 5.0625 26.371093 72.496094 67.332031 113.777344 67.332031 113.777344l.078125-.070313c1.75 1.925782 3.539063 3.847657 5.375 5.765626 38.210937 39.921874 80.425781 62.171874 94.289063 49.703124 13.867187-12.472656-5.871094-54.945312-44.082032-94.867187-1.832031-1.914063-3.675781-3.789063-5.523437-5.621094l.078125-.070312c-.003906-.003907-39.480469-42.765625-112.207032-73.679688zm0 0" fill="#ccc033"/><path d="m89.242188 364.074219c-1.835938-1.914063-3.625-3.835938-5.371094-5.761719l-.078125.070312s-33.304688-33.574218-59.1875-93.328124c-5.945313-2.902344-12.15625-5.75-18.628907-8.503907-3.234374-1.375-6.539062 1.757813-5.339843 5.0625 26.371093 72.496094 67.335937 113.777344 67.335937 113.777344l.074219-.070313c1.75 1.921876 3.539063 3.84375 5.371094 5.761719 38.210937 39.921875 80.429687 62.175781 94.292969 49.703125 3.296874-2.96875 4.671874-7.648437 4.375-13.574218-19.125-.570313-52.261719-21.179688-82.84375-53.136719zm0 0" fill="#99af17"/><path d="m5.976562 256.550781c-3.238281-1.375-6.542968 1.757813-5.339843 5.0625 26.371093 72.496094 67.332031 113.777344 67.332031 113.777344l.078125-.070313c1.75 1.925782 3.539063 3.847657 5.375 5.765626 38.210937 39.921874 80.425781 62.171874 94.289063 49.703124 13.867187-12.472656-5.871094-54.945312-44.082032-94.867187-1.832031-1.914063-3.675781-3.789063-5.523437-5.621094l.078125-.070312c-.003906-.003907-39.480469-42.765625-112.207032-73.679688zm0 0" fill="#ccc033"/><path d="m89.242188 364.074219c-1.835938-1.914063-3.625-3.835938-5.371094-5.761719l-.078125.070312s-33.304688-33.574218-59.1875-93.328124c-5.945313-2.902344-12.15625-5.75-18.628907-8.503907-3.234374-1.375-6.539062 1.757813-5.339843 5.0625 26.371093 72.496094 67.335937 113.777344 67.335937 113.777344l.074219-.070313c1.75 1.921876 3.539063 3.84375 5.371094 5.761719 38.210937 39.921875 80.429687 62.175781 94.292969 49.703125 3.296874-2.96875 4.671874-7.648437 4.375-13.574218-19.125-.570313-52.261719-21.179688-82.84375-53.136719zm0 0" fill="#99af17"/><path d="m5.976562 256.550781c-3.238281-1.375-6.542968 1.757813-5.339843 5.0625 26.371093 72.496094 67.332031 113.777344 67.332031 113.777344l.078125-.070313c1.75 1.925782 3.539063 3.847657 5.375 5.765626 38.210937 39.921874 80.425781 62.171874 94.289063 49.703124 13.867187-12.472656-5.871094-54.945312-44.082032-94.867187-1.832031-1.914063-3.675781-3.789063-5.523437-5.621094l.078125-.070312c-.003906-.003907-39.480469-42.765625-112.207032-73.679688zm0 0" fill="#eacf32"/><path d="m89.242188 364.074219c-1.835938-1.914063-3.625-3.835938-5.371094-5.761719l-.078125.070312s-33.304688-33.574218-59.1875-93.328124c-5.945313-2.902344-12.15625-5.75-18.628907-8.503907-3.234374-1.375-6.539062 1.757813-5.339843 5.0625 26.371093 72.496094 67.335937 113.777344 67.335937 113.777344l.074219-.070313c1.75 1.921876 3.539063 3.84375 5.371094 5.761719 38.210937 39.921875 80.429687 62.175781 94.292969 49.703125 3.296874-2.96875 4.671874-7.648437 4.375-13.574218-19.125-.570313-52.261719-21.179688-82.84375-53.136719zm0 0" fill="#ccc033"/><path d="m141.628906 369.433594c0 9.664062-7.835937 17.5-17.5 17.5-9.664062 0-17.5-7.835938-17.5-17.5 0-9.667969 7.835938-17.5 17.5-17.5 9.664063 0 17.5 7.832031 17.5 17.5zm0 0" fill="#ccc033"/></svg>