<svg height="480pt" viewBox="-3 0 480 480.40103" width="480pt" xmlns="http://www.w3.org/2000/svg"><path d="m466.386719 419.800781-7.359375-62.675781-8.710938-8.710938-90.171875 90.175782 37.945313 37.945312c5.152344 5.152344 13.507812 5.152344 18.660156 0l45.863281-45.867187c2.855469-2.851563 4.246094-6.859375 3.773438-10.867188zm-53.992188 29.988281c-2.75 2.746094-7.203125 2.746094-9.953125 0l-6.21875-6.222656c-2.75-2.746094-2.75-7.203125 0-9.949218l39.292969-39.292969c2.078125-2.082031 5.636719-.84375 5.980469 2.078125l2.152344 18.34375c.253906 2.140625-.488282 4.277344-2.011719 5.800781zm0 0" fill="#a56021"/><path d="m440.515625 434.109375-6.222656-6.222656-21.898438 21.902343c-2.75 2.746094-7.203125 2.746094-9.953125 0l-6.21875-6.222656c-2.75-2.746094-2.75-7.203125 0-9.949218l21.898438-21.902344-15.550782-15.550782-42.425781 42.425782 37.945313 37.945312c5.152344 5.15625 13.507812 5.15625 18.664062 0l42.425782-42.425781c-5.15625 5.152344-13.511719 5.152344-18.664063 0zm0 0" fill="#8c4c17"/><path d="m57.191406 45.441406 18.105469 17.867188-1.546875-54.757813c-.140625-4.855469-4.1875-8.683593-9.042969-8.54687475-4.855469.13671875-8.683593 4.18749975-8.546875 9.04296875zm0 0" fill="#f9bb32"/><path d="m80.042969 67.992188 15.007812 14.808593 13.707031-69.355469c.941407-4.765624-2.15625-9.394531-6.921874-10.335937-4.769532-.941406-9.394532 2.15625-10.335938 6.925781zm0 0" fill="#f9bb32"/><path d="m45.640625 56.988281-36.394531-1.027343c-4.855469-.140626-8.902344 3.6875-9.042969 8.542968-.1367188 4.859375 3.6875 8.90625 8.546875 9.042969l54.757812 1.546875zm0 0" fill="#db9c2e"/><path d="m10.234375 91.296875c-4.765625.941406-7.867187 5.570313-6.925781 10.335937.945312 4.765626 5.570312 7.863282 10.335937 6.921876l69.359375-13.707032-14.8125-15.007812zm0 0" fill="#db9c2e"/><path d="m88.132812 76.394531-.019531-.015625-.078125.015625zm0 0" fill="#f9bb32"/><path d="m65.675781 45.441406-1.027343-36.394531c-.097657-3.40625 1.757812-6.40625 4.546874-7.949219-1.328124-.734375-2.859374-1.1406248-4.488281-1.09374975-4.855469.13671875-8.679687 4.18749975-8.542969 9.04296875l1.027344 36.394531 18.105469 17.867188-.246094-8.613282zm0 0" fill="#db9c2e"/><path d="m299.492188 187.597656c-3.433594-3.4375-9.003907-3.4375-12.4375 0l-100.171876 100.171875c-3.4375 3.4375-3.4375 9.007813 0 12.441407 3.433594 3.433593 9.003907 3.433593 12.4375 0l31.105469-31.101563 37.964844-37.96875 31.101563-31.101563c3.4375-3.433593 3.4375-9.003906 0-12.441406zm0 0" fill="#f9bb32"/><path d="m322.621094 210.726562c-3.433594-3.4375-9.003906-3.4375-12.4375 0l-100.171875 100.171876c-3.4375 3.433593-3.4375 9.003906 0 12.4375 3.433593 3.4375 9.003906 3.4375 12.4375 0l100.171875-100.171876c3.4375-3.433593 3.4375-9.003906 0-12.4375zm0 0" fill="#f9bb32"/><path d="m253.519531 266.03125-230.152343-230.15625c-3.4375-3.433594-3.4375-9.003906 0-12.441406 3.433593-3.433594 9.003906-3.433594 12.4375 0l230.15625 230.15625zm0 0" fill="#db9c2e"/><path d="m137.453125 25.558594c-3.433594-3.4375-9.003906-3.4375-12.4375 0l-31.105469 31.101562-69.070312 69.070313c-3.4375 3.433593-3.4375 9.003906 0 12.4375 3.4375 3.4375 9.007812 3.4375 12.441406 0l100.171875-100.171875c3.4375-3.433594 3.4375-9.003906 0-12.4375zm0 0" fill="#f9bb32"/><path d="m160.582031 48.683594c-3.4375-3.4375-9.007812-3.4375-12.441406 0l-100.171875 100.171875c-3.4375 3.4375-3.4375 9.007812 0 12.441406 3.433594 3.433594 9.003906 3.433594 12.4375 0l31.105469-31.101563 37.964843-37.96875 31.105469-31.101562c3.433594-3.433594 3.433594-9.003906 0-12.441406zm0 0" fill="#f9bb32"/><path d="m183.707031 71.8125c-3.433593-3.4375-9.003906-3.4375-12.4375 0l-31.101562 31.101562-37.972657 37.96875-31.101562 31.101563c-3.4375 3.433594-3.4375 9.003906 0 12.4375 3.4375 3.4375 9.007812 3.4375 12.441406 0l31.101563-31.101563 37.96875-37.964843 31.101562-31.105469c3.4375-3.433594 3.4375-9.003906 0-12.4375zm0 0" fill="#f9bb32"/><path d="m206.835938 94.9375c-3.4375-3.4375-9.007813-3.4375-12.441407 0l-69.070312 69.070312-31.101563 31.105469c-3.4375 3.433594-3.4375 9.003907 0 12.4375 3.433594 3.4375 9.003906 3.4375 12.441406 0l31.101563-31.101562 37.964844-37.96875 31.105469-31.101563c3.433593-3.433594 3.433593-9.003906 0-12.441406zm0 0" fill="#f9bb32"/><path d="m229.960938 118.066406c-3.433594-3.4375-9.003907-3.4375-12.4375 0l-100.171876 100.171875c-3.4375 3.433594-3.4375 9.003907 0 12.4375 3.433594 3.4375 9.003907 3.4375 12.4375 0l31.101563-31.101562 37.96875-37.964844 31.101563-31.105469c3.4375-3.433594 3.4375-9.003906 0-12.4375zm0 0" fill="#f9bb32"/><path d="m253.089844 141.191406c-3.4375-3.4375-9.007813-3.4375-12.441406 0l-100.171876 100.171875c-3.4375 3.4375-3.4375 9.007813 0 12.441407 3.4375 3.433593 9.003907 3.433593 12.441407 0l31.101562-31.101563 37.964844-37.96875 31.105469-31.101563c3.433594-3.433593 3.433594-9.003906 0-12.441406zm0 0" fill="#f9bb32"/><path d="m276.214844 164.320312c-3.433594-3.4375-9.003906-3.4375-12.4375 0l-100.171875 100.171876c-3.4375 3.433593-3.4375 9.003906 0 12.4375 3.433593 3.4375 9.003906 3.4375 12.4375 0l31.101562-31.101563 37.96875-37.964844 31.101563-31.105469c3.4375-3.433593 3.4375-9.003906 0-12.4375zm0 0" fill="#f9bb32"/><path d="m235.617188 314.0625-199.8125-199.808594c-21.640626-21.644531-21.640626-56.734375 0-78.375 21.644531-21.644531 56.734374-21.644531 78.378906 0l199.808594 199.808594zm0 0" fill="#ffd551"/><path d="m232.003906 316.671875 80.863282-80.867187c13.742187-13.742188 36.023437-13.742188 49.765624 0l102.636719 102.636718c3.433594 3.4375 3.433594 9.007813 0 12.441406l-99.527343 99.523438c-3.4375 3.4375-9.007813 3.4375-12.441407 0l-121.296875-121.296875c-3.4375-3.433594-3.4375-9 0-12.4375zm0 0" fill="#ff624b"/><path d="m446.128906 318.734375c24.058594-21.070313 33.46875-40.199219 26.496094-53.855469-12.898438-25.273437-70.101562-12.734375-119.953125 12.699219-9.046875 4.617187-17.785156 9.617187-25.972656 14.855469-3.488281 2.230468-4.503907 6.871094-2.273438 10.359375.296875.464843.640625.890625 1.019531 1.265625 2.433594 2.4375 6.320313 2.941406 9.339844 1.007812 7.78125-4.980468 16.09375-9.730468 24.703125-14.125 24.300781-12.398437 48.679688-20.824218 68.636719-23.726562 19.828125-2.882813 29.167969.609375 31.144531 4.484375 2.648438 5.1875-3.425781 18.59375-23.019531 35.757812-.359375.308594-.675781.652344-.957031 1.011719l10.519531 10.519531zm0 0" fill="#8c4c17"/><g fill="#db9c2e"><path d="m186.882812 287.769531c-3.4375 3.4375-3.4375 9.007813 0 12.441407 3.433594 3.433593 9.003907 3.433593 12.4375 0l11.222657-11.222657-12.4375-12.441406zm0 0"/><path d="m210.007812 310.898438c-3.4375 3.433593-3.4375 9.003906 0 12.4375 3.4375 3.4375 9.007813 3.4375 12.441407 0l11.222656-11.21875-12.441406-12.441407zm0 0"/><path d="m24.839844 125.730469c-3.4375 3.433593-3.4375 9.003906 0 12.4375 3.4375 3.4375 9.007812 3.4375 12.441406 0l11.222656-11.21875-12.441406-12.441407zm0 0"/><path d="m47.96875 148.855469c-3.4375 3.4375-3.4375 9.007812 0 12.441406 3.433594 3.433594 9.003906 3.433594 12.4375 0l11.222656-11.222656-12.4375-12.441407zm0 0"/><path d="m71.09375 171.984375c-3.4375 3.433594-3.4375 9.003906 0 12.4375 3.4375 3.4375 9.007812 3.4375 12.441406 0l11.222656-11.21875-12.441406-12.441406zm0 0"/><path d="m94.222656 195.113281c-3.4375 3.433594-3.4375 9.003907 0 12.4375 3.433594 3.4375 9.003906 3.4375 12.441406 0l11.21875-11.222656-12.4375-12.4375zm0 0"/><path d="m117.347656 218.238281c-3.433594 3.433594-3.433594 9.003907 0 12.4375 3.4375 3.4375 9.007813 3.4375 12.441406 0l11.222657-11.21875-12.441407-12.441406zm0 0"/><path d="m140.476562 241.367188c-3.4375 3.433593-3.4375 9.003906 0 12.4375 3.4375 3.4375 9.003907 3.4375 12.441407 0l11.21875-11.222657-12.4375-12.4375zm0 0"/><path d="m163.601562 264.492188c-3.433593 3.433593-3.433593 9.003906 0 12.4375 3.4375 3.4375 9.007813 3.4375 12.441407 0l11.222656-11.21875-12.441406-12.441407zm0 0"/></g><path d="m62.761719 20.40625c-10.0625 2.167969-19.640625 7.148438-27.457031 14.96875-21.644532 21.640625-21.644532 56.734375 0 78.375l199.808593 199.808594 42.425781-42.425782-199.808593-199.808593c-13.824219-13.824219-18.804688-33.128907-14.96875-50.917969zm0 0" fill="#ffc34c"/><path d="m56.796875 97.921875c-12.488281-12.488281-13.441406-31.859375-2.121094-43.175781 11.316407-11.320313 30.6875-10.367188 43.175781 2.121094l196.976563 196.976562-41.054687 41.054688zm0 0" fill="#fff4c1"/><path d="m64.34375 48.582031c-3.566406 1.3125-6.863281 3.359375-9.667969 6.164063-11.316406 11.316406-10.367187 30.6875 2.121094 43.175781l196.980469 196.976563 23.765625-23.765626-199.355469-199.351562c-6.707031-6.703125-11.3125-14.707031-13.84375-23.199219zm0 0" fill="#fce575"/><path d="m395.726562 407.984375-121.296874-121.300781c-3.4375-3.433594-3.4375-9.003906 0-12.441406l-42.425782 42.425781c-3.4375 3.4375-3.4375 9.007812 0 12.445312l121.296875 121.296875c3.433594 3.433594 9.003907 3.433594 12.4375 0l42.429688-42.425781c-3.4375 3.433594-9.003907 3.433594-12.441407 0zm0 0" fill="#ff4b34"/><path d="m92.875 75.195312c0 9.664063-7.832031 17.5-17.5 17.5-9.664062 0-17.5-7.835937-17.5-17.5 0-9.667968 7.835938-17.5 17.5-17.5 9.667969 0 17.5 7.832032 17.5 17.5zm0 0" fill="#ffc34c"/><path d="m378.140625 417.039062c-1.921875 0-3.839844-.734374-5.300781-2.199218l-35.628906-35.625c-2.929688-2.929688-2.929688-7.679688 0-10.609375 2.929687-2.929688 7.675781-2.929688 10.605468 0l35.628906 35.628906c2.929688 2.929687 2.929688 7.675781 0 10.605469-1.46875 1.464844-3.386718 2.199218-5.304687 2.199218zm0 0" fill="#ffa730"/><path d="m359.046875 436.128906c-1.917969 0-3.835937-.730468-5.300781-2.195312l-35.628906-35.628906c-2.929688-2.929688-2.929688-7.675782 0-10.605469 2.929687-2.929688 7.675781-2.929688 10.605468 0l35.628906 35.625c2.929688 2.929687 2.929688 7.679687 0 10.609375-1.464843 1.464844-3.382812 2.195312-5.304687 2.195312zm0 0" fill="#ffa730"/><path d="m409.902344 386.792969c-1.535156 0-3.066406-.585938-4.238282-1.757813-2.347656-2.34375-2.347656-6.144531 0-8.488281l36.394532-36.394531c2.34375-2.339844 6.140625-2.339844 8.484375 0 2.34375 2.34375 2.34375 6.144531 0 8.488281l-36.398438 36.394531c-1.171875 1.171875-2.707031 1.757813-4.242187 1.757813zm0 0" fill="#ff9079"/><path d="m359.699219 254.253906c0 9.667969-7.835938 17.5-17.5 17.5-9.664063 0-17.5-7.832031-17.5-17.5 0-9.664062 7.835937-17.5 17.5-17.5 9.664062 0 17.5 7.835938 17.5 17.5zm0 0" fill="#ff4b34"/></svg>