<svg height="480pt" viewBox="-150 0 479 480" width="480pt" xmlns="http://www.w3.org/2000/svg"><path d="m103.78125 480h-34.546875c-5.308594 0-9.613281-4.304688-9.613281-9.613281v-155.367188h53.773437v155.367188c0 5.308593-4.304687 9.613281-9.613281 9.613281zm0 0" fill="#a56021"/><path d="m90.644531 470.398438v-155.378907h-31.023437v155.378907c0 5.304687 4.3125 9.601562 9.628906 9.601562h31.019531c-5.316406 0-9.625-4.296875-9.625-9.601562zm0 0" fill="#8c4c17"/><path d="m125.367188 397.285156h-69.734376c-33.472656 0-59.21875-34.101562-54.59375-72.308594l32.425782-267.777343c3.96875-32.796875 28.304687-57.199219 57.035156-57.199219s53.066406 24.402344 57.035156 57.199219l32.425782 267.777343c4.628906 38.207032-21.121094 72.308594-54.59375 72.308594zm0 0" fill="#ccc033"/><path d="m125.367188 384.722656c-3.3125 0-6-2.683594-6-6 0-3.3125 2.6875-6 6-6 7.335937 0 14.460937-3.46875 20.0625-9.769531 7.902343-8.886719 11.675781-21.984375 10.097656-35.03125-.398438-3.292969 1.945312-6.28125 5.234375-6.679687 3.273437-.398438 6.277343 1.945312 6.675781 5.234374 1.988281 16.410157-2.886719 33.03125-13.039062 44.449219-7.910157 8.898438-18.21875 13.796875-29.03125 13.796875zm0 0" fill="#eacf32"/><g fill="#99af17"><path d="m63.082031 324.976562 32.425781-267.777343c2.402344-19.828125 12.253907-36.578125 26.015626-46.734375-9-6.640625-19.664063-10.464844-31.023438-10.464844-28.730469 0-53.066406 24.402344-57.035156 57.199219l-32.425782 267.777343c-4.625 38.207032 21.121094 72.308594 54.59375 72.308594h62.042969c-33.472656 0-59.21875-34.101562-54.59375-72.308594zm0 0"/><path d="m139.023438 95c0 9.664062-7.835938 17.5-17.5 17.5-9.664063 0-17.5-7.835938-17.5-17.5s7.835937-17.5 17.5-17.5c9.664062 0 17.5 7.835938 17.5 17.5zm0 0"/></g></svg>