<svg height="480pt" viewBox="0 -5 480 479" width="480pt" xmlns="http://www.w3.org/2000/svg"><path d="m0 180.875v-6.75c0-12.667969 10.273438-22.941406 22.941406-22.941406h434.117188c12.667968 0 22.941406 10.273437 22.941406 22.941406v6.75c0 12.667969-10.273438 22.941406-22.941406 22.941406h-434.117188c-12.667968 0-22.941406-10.273437-22.941406-22.941406zm0 0" fill="#ffb74b"/><path d="m0 330.875v-6.75c0-12.667969 10.273438-22.941406 22.941406-22.941406h434.117188c12.667968 0 22.941406 10.273437 22.941406 22.941406v6.75c0 12.667969-10.273438 22.941406-22.941406 22.941406h-434.117188c-12.667968 0-22.941406-10.273437-22.941406-22.941406zm0 0" fill="#ffb74b"/><g fill="#ffa730"><path d="m60 330.875v-6.75c0-12.667969 10.273438-22.941406 22.941406-22.941406h-60c-12.667968 0-22.941406 10.273437-22.941406 22.941406v6.75c0 12.667969 10.273438 22.941406 22.941406 22.941406h60c-12.667968 0-22.941406-10.273437-22.941406-22.941406zm0 0"/><path d="m60 180.875v-6.75c0-12.667969 10.273438-22.941406 22.941406-22.941406h-60c-12.667968 0-22.941406 10.273437-22.941406 22.941406v6.75c0 12.667969 10.273438 22.941406 22.941406 22.941406h60c-12.667968 0-22.941406-10.273437-22.941406-22.941406zm0 0"/><path d="m61 301.183594h100v52.632812h-100zm0 0"/><path d="m61 151.183594h100v52.632812h-100zm0 0"/><path d="m220 301.183594h100v52.632812h-100zm0 0"/><path d="m220 151.183594h100v52.632812h-100zm0 0"/></g><path d="m123 468.5h-84c-4.417969 0-8-3.582031-8-8v-414.75c0-24.992188 20.257812-45.25 45.25-45.25h9.503906c24.988282 0 45.246094 20.257812 45.246094 45.25v414.75c0 4.417969-3.582031 8-8 8zm0 0" fill="#e58d23"/><path d="m282 468.5h-84c-4.417969 0-8-3.582031-8-8v-414.75c0-24.992188 20.257812-45.25 45.25-45.25h9.503906c24.988282 0 45.246094 20.257812 45.246094 45.25v414.75c0 4.417969-3.582031 8-8 8zm0 0" fill="#bf6c0d"/><path d="m441 468.5h-84c-4.417969 0-8-3.582031-8-8v-414.75c0-24.992188 20.257812-45.25 45.25-45.25h9.503906c24.988282 0 45.25 20.257812 45.25 45.25v414.75c-.003906 4.417969-3.585937 8-8.003906 8zm0 0" fill="#a56021"/><path d="m79 460.5v-414.75c0-18.105469 10.636719-33.71875 26-40.953125-5.84375-2.753906-12.363281-4.296875-19.25-4.296875h-9.503906c-24.988282 0-45.246094 20.257812-45.246094 45.25v414.75c0 4.417969 3.582031 8 8 8h48c-4.417969 0-8-3.582031-8-8zm0 0" fill="#bf6c0d"/><path d="m238 460.5v-414.75c0-18.105469 10.636719-33.71875 26-40.953125-5.84375-2.75-12.363281-4.296875-19.25-4.296875h-9.503906c-24.988282 0-45.246094 20.257812-45.246094 45.25v414.75c0 4.417969 3.582031 8 8 8h48c-4.417969 0-8-3.582031-8-8zm0 0" fill="#a56021"/><path d="m397 460.5v-414.75c0-18.105469 10.636719-33.71875 26-40.953125-5.84375-2.75-12.363281-4.296875-19.25-4.296875h-9.503906c-24.988282 0-45.246094 20.257812-45.246094 45.25v414.75c0 4.417969 3.582031 8 8 8h48c-4.417969 0-8-3.582031-8-8zm0 0" fill="#8c4c17"/><path d="m91 177.5c0 5.523438-4.476562 10-10 10s-10-4.476562-10-10 4.476562-10 10-10 10 4.476562 10 10zm0 0" fill="#ffc34c"/><path d="m91 327.5c0 5.523438-4.476562 10-10 10s-10-4.476562-10-10 4.476562-10 10-10 10 4.476562 10 10zm0 0" fill="#ffc34c"/><path d="m250 177.5c0 5.523438-4.476562 10-10 10s-10-4.476562-10-10 4.476562-10 10-10 10 4.476562 10 10zm0 0" fill="#f9bb32"/><path d="m250 327.5c0 5.523438-4.476562 10-10 10s-10-4.476562-10-10 4.476562-10 10-10 10 4.476562 10 10zm0 0" fill="#f9bb32"/><path d="m410 177.5c0 5.523438-4.476562 10-10 10s-10-4.476562-10-10 4.476562-10 10-10 10 4.476562 10 10zm0 0" fill="#db9c2e"/><path d="m410 327.5c0 5.523438-4.476562 10-10 10s-10-4.476562-10-10 4.476562-10 10-10 10 4.476562 10 10zm0 0" fill="#db9c2e"/><path d="m113 449.164062c-3.3125 0-6-2.683593-6-6v-154c0-3.3125 2.6875-6 6-6s6 2.6875 6 6v154c0 3.316407-2.6875 6-6 6zm0 0" fill="#ffa730"/><path d="m431 449.164062c-3.3125 0-6-2.683593-6-6v-154c0-3.3125 2.6875-6 6-6s6 2.6875 6 6v154c0 3.316407-2.6875 6-6 6zm0 0" fill="#bf6c0d"/><path d="m272 239.164062c-3.3125 0-6-2.683593-6-6v-154c0-3.3125 2.6875-6 6-6s6 2.6875 6 6v154c0 3.316407-2.6875 6-6 6zm0 0" fill="#e58d23"/><path d="m119.5 48.761719c0 9.664062-7.835938 17.5-17.5 17.5s-17.5-7.835938-17.5-17.5c0-9.667969 7.835938-17.5 17.5-17.5s17.5 7.832031 17.5 17.5zm0 0" fill="#bf6c0d"/><path d="m437.5 108.761719c0 9.664062-7.835938 17.5-17.5 17.5s-17.5-7.835938-17.5-17.5c0-9.667969 7.835938-17.5 17.5-17.5s17.5 7.832031 17.5 17.5zm0 0" fill="#8c4c17"/></svg>