<svg height="489pt" viewBox="-28 0 489 489.042" width="489pt" xmlns="http://www.w3.org/2000/svg"><path d="m187.21875 353.132812 20.164062-250.792968c.4375-5.449219 5.25-5.695313 5.882813-.296875l29.53125 251.246093zm0 0" fill="#fcda4f"/><path d="m213.351562 313.449219s44.40625-131.539063 130.027344-169.914063c2.597656-1.164062 2.363282 4.488282-.324218 7.707032-22.703126 27.203124-76.324219 98.613281-85.792969 176.304687zm0 0" fill="#ccc033"/><path d="m234.351562 313.449219s34.226563-101.359375 100.507813-152.085938c3.019531-3.839843 5.78125-7.234375 8.195313-10.125 2.6875-3.214843 2.921874-8.867187.324218-7.703125-85.621094 38.371094-130.027344 169.914063-130.027344 169.914063l43.910157 14.09375c.261719-2.15625.566406-4.308594.894531-6.453125zm0 0" fill="#99af17"/><path d="m213.433594 312.722656s89.164062-110.933594 183.820312-121.496094c2.871094-.320312.617188 4.945313-3.074218 7.179688-31.210938 18.886719-107.496094 70.253906-144.328126 140.800781zm0 0" fill="#eacf32"/><path d="m237.433594 312.722656s74.339844-92.472656 159.320312-116.589844c1.949219-2.375 2.605469-5.140624.5-4.90625-94.652344 10.5625-183.820312 121.496094-183.820312 121.496094l36.421875 26.488282c2.191406-4.195313 4.523437-8.320313 6.976562-12.378907zm0 0" fill="#ccc033"/><path d="m215 312.378906s123.46875-78.800781 216.808594-60.957031c2.832031.542969-1.15625 4.867187-5.4375 5.894531-36.199219 8.699219-126.503906 34.894532-186.210938 90.855469zm0 0" fill="#eacf32"/><path d="m248 312.378906s87.320312-55.722656 170.605469-62.835937c-91.351563-8.804688-203.605469 62.835937-203.605469 62.835937l25.164062 35.792969c6.578126-6.167969 13.53125-11.972656 20.742188-17.433594zm0 0" fill="#99af17"/><path d="m219.433594 313.449219s-44.410156-131.539063-130.03125-169.914063c-2.597656-1.164062-2.359375 4.488282.324218 7.707032 22.707032 27.203124 76.324219 98.613281 85.796876 176.304687zm0 0" fill="#ccc033"/><path d="m118.921875 161.363281c-9.222656-7.058593-19.0625-13.140625-29.523437-17.828125-2.597657-1.164062-2.359376 4.488282.328124 7.707032 22.703126 27.203124 76.324219 98.613281 85.792969 176.304687l20.105469-6.453125c-10.273438-66.960938-52.089844-128.410156-76.703125-159.730469zm0 0" fill="#99af17"/><path d="m217.78125 312.378906s-123.472656-78.800781-216.808594-60.957031c-2.832031.542969 1.15625 4.867187 5.4375 5.894531 36.199219 8.699219 126.503906 34.894532 186.210938 90.855469zm0 0" fill="#ccc033"/><path d="m36.410156 257.316406c-4.28125-1.03125-8.269531-5.355468-5.4375-5.894531 4.824219-.921875 9.734375-1.574219 14.699219-2.003906-15.242187-1.195313-30.328125-.742188-44.699219 2.003906-2.832031.542969 1.15625 4.867187 5.4375 5.894531 36.199219 8.699219 126.503906 34.894532 186.207032 90.855469l11.207031-15.9375c-58.472657-45.09375-134.84375-67.089844-167.414063-74.917969zm0 0" fill="#99af17"/><path d="m219.351562 312.722656s-89.167968-110.933594-183.820312-121.496094c-2.871094-.320312-.617188 4.945313 3.074219 7.179688 31.207031 18.886719 107.492187 70.253906 144.324219 140.800781zm0 0" fill="#eacf32"/><path d="m70.070312 199.300781c-11.328124-3.945312-22.894531-6.773437-34.542968-8.074219-2.871094-.320312-.617188 4.949219 3.074218 7.179688 31.210938 18.886719 107.496094 70.253906 144.328126 140.804688l21.167968-15.398438c-38.441406-61.566406-104.375-106.417969-134.027344-124.511719zm0 0" fill="#ccc033"/><path d="m214.59375 312.503906s-5.335938-137.574218 61.738281-199.539062c2.03125-1.878906 3.839844 3.527344 2.460938 7.375-11.664063 32.515625-36.644531 116.0625-17.660157 192.285156zm0 0" fill="#eacf32"/><path d="m218.1875 312.503906s5.335938-137.574218-61.738281-199.539062c-2.03125-1.878906-3.839844 3.527344-2.460938 7.375 11.664063 32.515625 36.640625 116.0625 17.660157 192.285156zm0 0" fill="#eacf32"/><path d="m230.597656 489.042969h-24.089844c-80.230468 0-145.265624-65.039063-145.265624-145.265625v-25.035156h314.621093v25.035156c0 80.230468-65.035156 145.265625-145.265625 145.265625zm0 0" fill="#ffa730"/><path d="m230.597656 477.042969c-3.3125 0-6-2.683594-6-6 0-3.3125 2.6875-6 6-6 46.15625 0 89.023438-26.914063 109.207032-68.574219 1.445312-2.980469 5.035156-4.222656 8.019531-2.78125 2.976562 1.445312 4.222656 5.035156 2.78125 8.015625-22.175781 45.769531-69.28125 75.339844-120.007813 75.339844zm0 0" fill="#ffb74b"/><path d="m214.890625 52c-14.335937 0-26-11.664062-26-26s11.664063-26 26-26 26 11.664062 26 26-11.664063 26-26 26zm0-40c-7.71875 0-14 6.28125-14 14s6.28125 14 14 14 14-6.28125 14-14-6.28125-14-14-14zm0 0" fill="#8c4c17"/><path d="m375.863281 324.742188h-314.621093c-2.132813 0-4.109376-1.132813-5.183594-2.976563-1.078125-1.847656-1.089844-4.125-.039063-5.980469l153.996094-271.742187c1.054687-1.863281 3.023437-3.023438 5.164063-3.042969 2.117187-.070312 4.128906 1.105469 5.21875 2.949219l160.628906 271.742187c1.097656 1.851563 1.113281 4.152344.046875 6.023438-1.066407 1.875-3.058594 3.027344-5.210938 3.027344zm-304.324219-12h293.808594l-150.003906-253.765626zm0 0" fill="#8c4c17"/><path d="m121.242188 343.777344v-25.035156h-60v25.035156c0 80.226562 65.039062 145.265625 145.265624 145.265625h24.089844c6.082032 0 12.070313-.382813 17.953125-1.105469-71.753906-8.84375-127.308593-70.011719-127.308593-144.160156zm0 0" fill="#e58d23"/><path d="m378.75 347.339844h-321.835938c-5.980468 0-10.824218-4.847656-10.824218-10.824219v-21.648437c0-5.976563 4.84375-10.824219 10.824218-10.824219h321.835938c5.976562 0 10.824219 4.847656 10.824219 10.824219v21.648437c0 5.976563-4.847657 10.824219-10.824219 10.824219zm0 0" fill="#ffc34c"/><path d="m106.089844 336.515625v-21.648437c0-5.976563 4.84375-10.824219 10.824218-10.824219h-60c-5.980468 0-10.824218 4.847656-10.824218 10.824219v21.648437c0 5.976563 4.84375 10.824219 10.824218 10.824219h60c-5.980468.003906-10.824218-4.847656-10.824218-10.824219zm0 0" fill="#f9bb32"/><path d="m218.496094 265.210938s144.964844 37.242187 189.105468 114.515624c1.339844 2.34375-4.847656 2.269532-8.433593-.101562-30.324219-20.058594-109.773438-67.246094-194.96875-73.921875zm0 0" fill="#eacf32"/><path d="m214.285156 265.210938s-144.964844 37.242187-189.105468 114.515624c-1.339844 2.34375 4.847656 2.269532 8.433593-.101562 30.324219-20.058594 109.773438-67.246094 194.96875-73.921875zm0 0" fill="#eacf32"/><path d="m217.207031 273.484375-2.921875-8.273437s-144.964844 37.242187-189.105468 114.515624c-1.335938 2.34375 4.847656 2.269532 8.433593-.101562 9-5.949219 22.324219-14.289062 38.839844-23.253906 39.105469-42.792969 107.085937-70.195313 144.753906-82.886719zm0 0" fill="#ccc033"/><path d="m221.496094 265.210938s144.964844 37.242187 189.105468 114.515624c1.339844 2.34375-4.847656 2.269532-8.433593-.101562-30.324219-20.058594-109.773438-67.246094-194.96875-73.921875zm0 0" fill="#fcda4f"/><path d="m215.234375 327.285156c-3.3125 0-6-2.683594-6-6v-274.285156c0-3.3125 2.6875-6 6-6s6 2.6875 6 6v274.285156c0 3.316406-2.6875 6-6 6zm0 0" fill="#a56021"/><g fill="#e58d23"><path d="m167.894531 374.976562c0 9.667969-7.835937 17.5-17.5 17.5-9.664062 0-17.5-7.832031-17.5-17.5 0-9.664062 7.835938-17.5 17.5-17.5 9.664063 0 17.5 7.835938 17.5 17.5zm0 0"/><path d="m194.894531 413.976562c0 9.667969-7.835937 17.5-17.5 17.5-9.664062 0-17.5-7.832031-17.5-17.5 0-9.664062 7.835938-17.5 17.5-17.5 9.664063 0 17.5 7.835938 17.5 17.5zm0 0"/></g></svg>