<svg height="471pt" viewBox="0 -44 471.06923 471" width="471pt" xmlns="http://www.w3.org/2000/svg"><path d="m465.054688 376.859375c-8.019532 8.019531-21.023438 8.019531-29.042969 0l-337.179688-337.183594c-8.023437-8.019531-8.023437-21.023437 0-29.042969 8.019531-8.019531 21.019531-8.019531 29.039063 0l337.183594 337.183594c8.019531 8.019532 8.019531 21.023438 0 29.042969zm0 0" fill="#a56021"/><path d="m453.4375 359.433594-337.183594-337.183594c-4.746094-4.746094-6.660156-11.234375-5.789062-17.40625-4.253906.601562-8.363282 2.515625-11.632813 5.789062-8.023437 8.019532-8.023437 21.019532 0 29.042969l337.179688 337.179688c8.019531 8.019531 21.023437 8.019531 29.042969 0 3.273437-3.273438 5.1875-7.378907 5.789062-11.636719-6.171875.875-12.660156-1.039062-17.40625-5.785156zm0 0" fill="#8c4c17"/><path d="m292.582031 124.195312-87.453125 87.449219-121.152344-121.152343 87.453126-87.449219c4.007812-4.011719 10.511718-4.011719 14.519531 0l106.632812 106.632812c4.007813 4.007813 4.007813 10.511719 0 14.519531zm0 0" fill="#fce575"/><path d="m.0351562 145.355469c2.3124998 17.011719 22.1132818 126.683593 149.9804688 149.933593 1.410156.257813 2.773437-.328124 3.496094-1.480468l51.386719-82.398438-120.839844-120.839844-82.519532 51.460938c-1.109374.691406-1.6875 1.96875-1.5039058 3.324219zm0 0" fill="#fce575"/><path d="m271.933594 121.167969c-1.535156 0-3.070313-.585938-4.242188-1.761719l-91.121094-91.117188c-2.34375-2.34375-2.34375-6.144531 0-8.484374 2.34375-2.34375 6.144532-2.34375 8.484376 0l91.121093 91.121093c2.34375 2.339844 2.34375 6.140625 0 8.480469-1.171875 1.175781-2.707031 1.761719-4.242187 1.761719zm0 0" fill="#fff4c1"/><g fill="#ffd551"><path d="m102.609375 124.679688c0 9.925781-8.046875 17.96875-17.96875 17.96875-9.925781 0-17.96875-8.042969-17.96875-17.96875 0-9.921876 8.042969-17.96875 17.96875-17.96875 9.921875 0 17.96875 8.046874 17.96875 17.96875zm0 0"/><path d="m150.527344 120.324219c0 9.921875-8.042969 17.96875-17.96875 17.96875-9.921875 0-17.964844-8.046875-17.964844-17.96875s8.042969-17.96875 17.964844-17.96875c9.925781 0 17.96875 8.046875 17.96875 17.96875zm0 0"/><path d="m49.105469 112.371094-47.570313 29.664062c-1.105468.6875-1.6875 1.964844-1.4999998 3.324219 2.3124998 17.011719 22.1132818 126.679687 149.9804688 149.933594 1.410156.253906 2.773437-.328125 3.496094-1.480469l29.816406-47.8125c-97.832031-23.710938-126.347656-100.320312-134.222656-133.628906zm0 0"/></g><path d="m25.777344 126.917969-24.238282 15.117187c-1.105468.6875-1.6875 1.964844-1.5039058 3.324219 2.3164058 17.011719 22.1132818 126.679687 149.9843748 149.933594 1.410157.253906 2.773438-.328125 3.492188-1.480469l15.21875-24.402344c-111.886719-23.324218-137.601563-114.175781-142.953125-142.492187zm0 0" fill="#ffc34c"/></svg>