<svg height="480pt" viewBox="-67 0 480 480.00179" width="480pt" xmlns="http://www.w3.org/2000/svg"><g fill="#ffdf74"><path d="m164.6875 474.402344s2.320312 4.851562 6.269531 5.414062h-.007812c1.964843.425782 3.707031-.019531 3.707031-.019531h-.007812c3.9375-.613281 6.195312-5.492187 6.195312-5.492187s17.625-40.519532-.453125-72.296876l-8.078125.046876-8.078125.050781c-17.675781 31.996093.453125 72.296875.453125 72.296875zm0 0"/><path d="m232.246094 464.101562s5.132812 1.820313 8.332031-.523437l-.007813.007813c1.695313-1.066407 2.605469-2.59375 2.605469-2.59375l-.007812.007812c2.34375-3.171875.429687-8.1875.429687-8.1875s-16.703125-40.890625-52.363281-50.804688l-5.675781 5.644532-5.675782 5.648437c10.53125 34.898438 52.363282 50.800781 52.363282 50.800781zm0 0"/><path d="m163.335938 413.296875-5.675782-5.648437-5.675781-5.644532c-35.660156 9.914063-52.367187 50.804688-52.367187 50.804688s-1.914063 5.015625.433593 8.1875l-.007812-.007813s.90625 1.527344 2.605469 2.589844l-.007813-.003906c3.199219 2.339843 8.332031.523437 8.332031.523437 0 .003906 41.832032-15.898437 52.363282-50.800781zm0 0"/></g><path d="m180.246094 475.378906c-.359375-.578125-.554688-.980468-.554688-.980468s-18.132812-40.296876-.457031-72.296876l1.203125-.007812c-.015625-.03125-.03125-.0625-.046875-.089844l-8.078125.046875-8.078125.050781c-17.675781 31.996094.457031 72.296876.457031 72.296876s2.320313 4.855468 6.265625 5.417968h-.007812c1.964843.425782 3.707031-.023437 3.707031-.023437h-.003906c2.75-.425781 4.679687-2.9375 5.59375-4.414063zm0 0" fill="#ffc34c"/><path d="m194.882812 413.296875 5.675782-5.648437 1.484375-1.476563c-3.386719-1.6875-6.988281-3.105469-10.808594-4.167969l-5.675781 5.644532-5.675782 5.648437c10.53125 34.902344 52.363282 50.804687 52.363282 50.804687s5.132812 1.820313 8.332031-.523437l-.007813.007813c.796876-.5 1.414063-1.101563 1.851563-1.601563-11.308594-5.367187-39.210937-21.085937-47.539063-48.6875zm0 0" fill="#ffc34c"/><path d="m115.039062 460.992188.003907.003906c-2.34375-3.167969-.429688-8.1875-.429688-8.1875s13.320313-32.597656 41.558594-46.636719l-4.191406-4.164063c-35.660157 9.914063-52.367188 50.804688-52.367188 50.804688s-1.914062 5.015625.429688 8.1875l-.003907-.003906s.910157 1.527344 2.605469 2.589844l-.003906-.007813c3.195313 2.34375 8.332031.527344 8.332031.527344s1.832032-.699219 4.820313-2.121094c-.488281-.558594-.753907-.992187-.753907-.992187zm0 0" fill="#ffc34c"/><path d="m209.144531 50.71875v-11.792969c.078125-1.832031.164063-2.855469.164063-2.855469h-.164063v-36.070312h-.332031c-18.5 0-33.832031 13.542969-36.636719 31.257812-1.542969-9.753906-6.871093-18.246093-14.453125-23.90625v28.71875h-.082031s.035156.421876.082031 1.214844v15.34375c-1.058594 21.953125-7.203125 59.949219-35.75 77.503906h123c-29.394531-18.074218-35.035156-57.824218-35.828125-79.414062zm0 0" fill="#ffa730"/><path d="m157.6875 7.324219c.011719.011719.023438.019531.035156.027343-.011718-.007812-.023437-.015624-.035156-.027343zm0 0" fill="#ffa730"/><path d="m188.015625 7.351562s-.011719-.007812 0 0v28.71875h-.082031s.039062.421876.082031 1.214844v15.34375c-1.058594 21.953125-7.199219 59.949219-35.75 77.503906h-52.5c28.550781-17.554687 34.691406-55.554687 35.75-77.503906v-15.34375c-.042969-.792968-.082031-1.214844-.082031-1.214844h.082031v-36.070312h.335937c8.308594 0 15.980469 2.734375 22.164063 7.351562 7.582031 5.660157 12.914063 14.152344 14.457031 23.90625 1.617188-10.210937 7.394532-19.039062 15.546875-24.683593zm0 0" fill="#e58d23"/><path d="m345.035156 274.519531c0-88.167969-77.238281-159.640625-172.515625-159.640625-95.28125 0-172.519531 71.472656-172.519531 159.640625 0 88.164063 77.238281 159.636719 172.519531 159.636719 95.277344 0 172.515625-71.472656 172.515625-159.636719zm0 0" fill="#e58d23"/><path d="m288.609375 274.519531c0-88.167969-51.976563-159.640625-116.089844-159.640625-64.117187 0-116.09375 71.472656-116.09375 159.640625 0 88.164063 51.976563 159.636719 116.09375 159.636719 64.113281 0 116.089844-71.472656 116.089844-159.636719zm0 0" fill="#ffa730"/><path d="m212.332031 409.8125c-1.964843 0-3.886719-.960938-5.039062-2.730469-1.804688-2.777343-1.019531-6.492187 1.761719-8.300781 9.5625-6.214844 18.359374-14.796875 26.140624-25.496094 18.96875-26.082031 29.414063-61.15625 29.414063-98.765625 0-37.613281-10.445313-72.6875-29.414063-98.765625-1.949218-2.683594-1.355468-6.4375 1.324219-8.382812 2.683594-1.949219 6.433594-1.355469 8.378907 1.324218 20.449218 28.113282 31.707031 65.695313 31.707031 105.824219 0 40.125-11.261719 77.707031-31.707031 105.824219-8.644532 11.886719-18.507813 21.476562-29.304688 28.5-1.007812.65625-2.140625.96875-3.261719.96875zm0 0" fill="#ffb74b"/><path d="m158.015625 52.628906v-15.34375c-.042969-.792968-.082031-1.214844-.082031-1.214844h.082031v-28.71875c-6.183594-4.617187-13.855469-7.351562-22.164063-7.351562h-.335937v36.070312h-.082031s.039062.421876.082031 1.214844v15.34375c-1.058594 21.953125-7.199219 59.949219-35.75 77.503906h22.5c28.550781-17.554687 34.691406-55.550781 35.75-77.503906zm0 0" fill="#e58d23"/><path d="m158.015625 52.628906v-15.34375c-.042969-.792968-.082031-1.214844-.082031-1.214844h.082031v-28.71875c-6.183594-4.617187-13.855469-7.351562-22.164063-7.351562h-.335937v36.070312h-.082031s.039062.421876.082031 1.214844v15.34375c-1.058594 21.953125-7.199219 59.949219-35.75 77.503906h22.5c28.550781-17.554687 34.691406-55.550781 35.75-77.503906zm0 0" fill="#a56021"/><path d="m86.425781 274.519531c0-81.175781 44.0625-148.199219 101.09375-158.316406-4.910156-.875-9.917969-1.324219-15-1.324219-64.117187 0-116.09375 71.472656-116.09375 159.640625 0 88.164063 51.976563 159.636719 116.09375 159.636719 5.082031 0 10.089844-.453125 15-1.324219-57.03125-10.117187-101.09375-77.136719-101.09375-158.3125zm0 0" fill="#e58d23"/><path d="m191.382812 148.71875c0 9.664062-7.835937 17.5-17.5 17.5-9.667968 0-17.5-7.835938-17.5-17.5s7.832032-17.5 17.5-17.5c9.664063 0 17.5 7.835938 17.5 17.5zm0 0" fill="#e58d23"/><path d="m154.5625 186.71875c0 9.664062-7.835938 17.5-17.5 17.5s-17.5-7.835938-17.5-17.5 7.835938-17.5 17.5-17.5 17.5 7.835938 17.5 17.5zm0 0" fill="#e58d23"/><path d="m56.425781 274.519531c0-33.863281 7.671875-65.25 20.746094-91.082031 10.765625-20.507812 33.78125-41.929688 33.820313-41.96875 12.699218-9.886719 24.964843-22.996094 24.964843-22.996094-77.714843 15.519532-135.957031 79.484375-135.957031 156.042969 0 88.007813 76.964844 159.378906 172.007812 159.632813v-.003907c-63.878906-.375-115.582031-71.695312-115.582031-159.625zm0 0" fill="#a56021"/></svg>