<svg height="507pt" viewBox="0 -25 507.724 507" width="507pt" xmlns="http://www.w3.org/2000/svg"><path d="m507.722656 223.460938c-60.15625 78.914062-111.285156 77.101562-111.285156 77.101562l-.003906-.234375c-2.117188.183594-4.257813.292969-6.417969.324219-45.058594.628906-82.125-32.671875-82.792969-74.382813-.667968-41.714843 35.3125-76.039062 80.371094-76.667969 2.160156-.03125 4.304688.019532 6.425781.140626l-.003906-.230469c.003906-.003907 51.046875-3.246094 113.707031 73.949219zm0 0" fill="#ccc033"/><path d="m405.386719 236.582031c-.089844 0-.179688-.003906-.269531-.007812l-98.15625-4.3125c-3.3125-.144531-5.875-2.949219-5.730469-6.257813s2.917969-5.871094 6.257812-5.730468l98.15625 4.316406c3.3125.140625 5.878907 2.945312 5.730469 6.257812-.140625 3.21875-2.796875 5.734375-5.988281 5.734375zm0 0" fill="#fcda4f"/><path d="m368.460938 264.601562c2.164062-.03125 4.304687-.140624 6.421874-.320312l.003907.234375s48.128906 1.699219 105.9375-70.273437c8.628906 8.164062 17.636719 17.808593 26.898437 29.21875-60.15625 78.914062-111.28125 77.101562-111.28125 77.101562l-.003906-.234375c-2.121094.183594-4.257812.292969-6.421875.324219-39.113281.546875-72.191406-24.484375-80.675781-58.382813 15.066406 14.058594 36.039062 22.65625 59.121094 22.332031zm0 0" fill="#99af17"/><path d="m420.273438 429.386719c-98.339844 13.261719-133.210938-24.171875-133.210938-24.171875l.160156-.167969c-1.625-1.367187-3.214844-2.804687-4.765625-4.3125-32.308593-31.414063-34.96875-81.171875-5.945312-111.136719 29.019531-29.96875 78.734375-28.796875 111.042969 2.617188 1.550781 1.507812 3.03125 3.058594 4.441406 4.644531l.164062-.164063c0-.003906 38.390625 33.796876 28.113282 132.691407zm0 0" fill="#ccc033"/><path d="m342.871094 368.054688c-1.625 0-3.242188-.65625-4.425782-1.949219l-66.359374-72.457031c-2.238282-2.445313-2.070313-6.242188.371093-8.476563 2.449219-2.238281 6.246094-2.066406 8.476563.371094l66.359375 72.460937c2.238281 2.441406 2.074219 6.238282-.371094 8.472656-1.152344 1.054688-2.601563 1.578126-4.050781 1.578126zm0 0" fill="#fcda4f"/><path d="m292.707031 360.007812c1.550781 1.507813 3.140625 2.941407 4.765625 4.308594l-.160156.167969s32.828125 35.238281 124.601562 25.222656c.324219 11.875-.121093 25.058594-1.640624 39.679688-98.339844 13.261719-133.210938-24.171875-133.210938-24.171875l.160156-.167969c-1.625-1.367187-3.214844-2.804687-4.765625-4.3125-28.046875-27.269531-33.734375-68.359375-15.765625-98.332031.714844 20.601562 9.464844 41.507812 26.015625 57.605468zm0 0" fill="#99af17"/><path d="m382.769531 3.363281c36.863281 92.125 9.070313 135.078125 9.070313 135.078125l-.203125-.117187c-.929688 1.914062-1.933594 3.804687-3.015625 5.679687-22.582032 38.992188-70.183594 53.71875-106.328125 32.886719-36.144531-20.828125-47.144531-69.328125-24.5625-108.324219 1.082031-1.871094 2.226562-3.683594 3.417969-5.441406l-.199219-.117188s23.410156-45.476562 121.820312-59.644531zm0 0" fill="#ccc033"/><path d="m282.285156 182.890625c-1.132812 0-2.277344-.320313-3.296875-.988281-2.765625-1.824219-3.53125-5.542969-1.707031-8.3125l54.074219-82.035156c1.828125-2.765626 5.546875-3.527344 8.3125-1.707032 2.765625 1.824219 3.53125 5.542969 1.707031 8.308594l-54.074219 82.039062c-1.152343 1.75-3.066406 2.695313-5.015625 2.695313zm0 0" fill="#fcda4f"/><path d="m346.621094 144.003906c1.082031-1.875 2.085937-3.769531 3.015625-5.679687l.203125.117187s26.15625-40.4375-5.953125-126.988281c11.4375-3.214844 24.335937-5.996094 38.882812-8.089844 36.863281 92.125 9.070313 135.078125 9.070313 135.078125l-.203125-.117187c-.929688 1.914062-1.933594 3.804687-3.015625 5.679687-19.601563 33.851563-58.058594 49.394532-91.507813 39.285156 19.796875-5.722656 37.9375-19.308593 49.507813-39.285156zm0 0" fill="#99af17"/><path d="m0 220.460938c60.15625 78.914062 111.285156 77.101562 111.285156 77.101562l.003906-.234375c2.117188.183594 4.257813.292969 6.421876.324219 45.054687.628906 82.125-32.671875 82.792968-74.382813.667969-41.714843-35.316406-76.039062-80.371094-76.667969-2.164062-.03125-4.308593.019532-6.429687.140626l.003906-.230469c0-.003907-51.046875-3.246094-113.707031 73.949219zm0 0" fill="#ccc033"/><path d="m102.335938 233.582031c-3.191407 0-5.847657-2.515625-5.988282-5.734375-.148437-3.3125 2.417969-6.117187 5.726563-6.257812l98.160156-4.316406c3.308594-.164063 6.113281 2.421874 6.257813 5.730468.148437 3.308594-2.417969 6.113282-5.726563 6.257813l-98.160156 4.3125c-.089844.003906-.179688.007812-.269531.007812zm0 0" fill="#fcda4f"/><path d="m139.261719 261.601562c-2.160157-.03125-4.304688-.140624-6.417969-.320312l-.003906.234375s-48.132813 1.699219-105.941406-70.273437c-8.628907 8.164062-17.632813 17.808593-26.898438 29.21875 60.15625 78.914062 111.285156 77.101562 111.285156 77.101562l.003906-.234375c2.117188.183594 4.257813.292969 6.417969.324219 39.113281.546875 72.191407-24.484375 80.675781-58.382813-15.066406 14.058594-36.039062 22.65625-59.121093 22.332031zm0 0" fill="#99af17"/><path d="m87.453125 426.386719c98.335937 13.261719 133.207031-24.171875 133.207031-24.171875l-.160156-.167969c1.625-1.367187 3.21875-2.804687 4.769531-4.3125 32.304688-31.414063 34.964844-81.171875 5.945313-111.136719-29.023438-29.96875-78.738282-28.796875-111.042969 2.617188-1.550781 1.507812-3.03125 3.058594-4.445313 4.644531l-.164062-.164063c0-.003906-38.386719 33.796876-28.109375 132.691407zm0 0" fill="#ccc033"/><path d="m164.851562 365.054688c-1.449218 0-2.898437-.523438-4.050781-1.574219-2.441406-2.238281-2.609375-6.035157-.371093-8.476563l66.359374-72.460937c2.238282-2.441407 6.03125-2.605469 8.476563-.371094s2.609375 6.035156.371094 8.476563l-66.355469 72.457031c-1.183594 1.292969-2.804688 1.949219-4.429688 1.949219zm0 0" fill="#fcda4f"/><path d="m215.019531 357.007812c-1.550781 1.507813-3.144531 2.941407-4.769531 4.308594l.160156.167969s-32.828125 35.238281-124.601562 25.222656c-.324219 11.875.125 25.058594 1.644531 39.679688 98.335937 13.261719 133.207031-24.171875 133.207031-24.171875l-.160156-.167969c1.625-1.367187 3.21875-2.804687 4.769531-4.3125 28.042969-27.269531 33.734375-68.359375 15.761719-98.332031-.714844 20.601562-9.464844 41.507812-26.011719 57.605468zm0 0" fill="#99af17"/><path d="m124.953125.363281c-36.863281 92.125-9.070313 135.078125-9.070313 135.078125l.203126-.117187c.929687 1.914062 1.933593 3.804687 3.015624 5.679687 22.582032 38.992188 70.183594 53.71875 106.328126 32.886719 36.144531-20.828125 47.140624-69.328125 24.5625-108.324219-1.085938-1.871094-2.226563-3.683594-3.421876-5.441406l.203126-.117188s-23.410157-45.476562-121.820313-59.644531zm0 0" fill="#ccc033"/><path d="m225.4375 179.890625c-1.949219 0-3.863281-.945313-5.015625-2.695313l-54.070313-82.035156c-1.824218-2.769531-1.058593-6.488281 1.707032-8.3125 2.765625-1.824218 6.488281-1.058594 8.3125 1.707032l54.070312 82.035156c1.824219 2.765625 1.058594 6.484375-1.707031 8.308594-1.015625.671874-2.164063.992187-3.296875.992187zm0 0" fill="#fcda4f"/><path d="m161.105469 141.003906c-1.085938-1.875-2.089844-3.769531-3.019531-5.679687l-.203126.117187s-26.15625-40.4375 5.953126-126.988281c-11.4375-3.214844-24.332032-5.996094-38.882813-8.089844-36.859375 92.125-9.070313 135.078125-9.070313 135.078125l.203126-.117187c.929687 1.914062 1.933593 3.804687 3.019531 5.679687 19.601562 33.851563 58.054687 49.394532 91.507812 39.285156-19.800781-5.722656-37.941406-19.308593-49.507812-39.285156zm0 0" fill="#99af17"/><path d="m446.988281 123.179688c-85.628906-17.066407-132.945312 11.566406-132.945312 11.566406l.082031.148437c-2.054688 1.023438-4.101562 2.109375-6.144531 3.25-42.515625 23.839844-64.996094 64.632813-50.203125 91.113281 14.792968 26.480469 61.25 28.625 103.769531 4.789063 2.042969-1.144531 4.035156-2.328125 5.980469-3.546875l.082031.148438c0-.003907 49.105469-25.425782 79.378906-107.46875zm0 0" fill="#ff624b"/><path d="m261.828125 230.042969c-2.167969 0-4.257813-1.175781-5.324219-3.226563-1.535156-2.9375-.394531-6.5625 2.542969-8.097656l96.109375-50.136719c2.945312-1.53125 6.5625-.386719 8.097656 2.542969 1.53125 2.9375.390625 6.5625-2.546875 8.097656l-96.109375 50.136719c-.886718.460937-1.835937.683594-2.769531.683594zm0 0" fill="#ff9079"/><path d="m299.777344 229.257812c-14.792969-26.484374 7.683594-67.277343 50.203125-91.113281 2.042969-1.144531 4.089843-2.226562 6.144531-3.253906l-.082031-.148437s20.703125-12.519532 59.488281-16.0625c-65.679688-5.59375-101.488281 16.0625-101.488281 16.0625l.082031.148437c-2.054688 1.023437-4.101562 2.109375-6.144531 3.253906-42.519531 23.835938-64.996094 64.628907-50.207031 91.113281 10.625 19.019532 37.582031 25.480469 67.679687 18.785157-11.417969-3.230469-20.496094-9.511719-25.675781-18.785157zm0 0" fill="#ff4b34"/><path d="m59.488281 110.410156c29.960938 83.5625 78.96875 111.460938 78.96875 111.460938l.082031-.144532c1.941407 1.316407 3.929688 2.597657 5.964844 3.847657 42.425782 25.976562 88.886719 26.171875 103.773438.441406 14.886718-25.738281-7.433594-67.660156-49.855469-93.636719-2.039063-1.246094-4.082031-2.433594-6.132813-3.5625l.082032-.140625s-47.203125-31.019531-132.882813-18.265625zm0 0" fill="#ff624b"/><path d="m243.789062 228.074219c-1.101562 0-2.214843-.300781-3.214843-.9375l-91.476563-58.164063c-2.796875-1.777344-3.625-5.488281-1.84375-8.28125 1.777344-2.800781 5.484375-3.628906 8.28125-1.84375l91.480469 58.164063c2.792969 1.777343 3.621094 5.484375 1.84375 8.28125-1.144531 1.800781-3.085937 2.78125-5.070313 2.78125zm0 0" fill="#ff9079"/><path d="m186.503906 225.574219c-2.035156-1.246094-4.023437-2.53125-5.964844-3.847657l-.085937.144532s-49.003906-27.898438-78.96875-111.460938c6.601563-.980468 12.96875-1.703125 19.105469-2.199218-17.414063-1.496094-37.835938-1.261719-61.105469 2.199218 29.964844 83.5625 78.96875 111.460938 78.96875 111.460938l.085937-.144532c1.941407 1.316407 3.929688 2.597657 5.964844 3.847657 29.355469 17.972656 60.628906 23.597656 82.054688 16.835937-13.015625-3.066406-26.734375-8.679687-40.054688-16.835937zm0 0" fill="#ff4b34"/><path d="m247.085938 457.894531c-55.414063-69.296875-53.511719-125.734375-53.511719-125.734375l.164062.003906c-.101562-2.347656-.152343-4.714843-.148437-7.109374.089844-49.816407 24.226562-89.59375 53.90625-88.84375 29.679687.746093 53.664062 41.738281 53.570312 91.554687-.003906 2.386719-.0625 4.757813-.175781 7.097656l.164063.003907s1.695312 56.53125-53.96875 123.027343zm0 0" fill="#ff624b"/><path d="m246.601562 356.414062c-.085937 0-.171874-.003906-.261718-.007812-3.308594-.136719-5.878906-2.9375-5.738282-6.25l4.632813-108.300781c.144531-3.3125 2.914063-5.886719 6.253906-5.738281 3.308594.140624 5.878907 2.9375 5.738281 6.25l-4.632812 108.304687c-.140625 3.222656-2.796875 5.742187-5.992188 5.742187zm0 0" fill="#ff9079"/><path d="m232.574219 332.15625.167969.003906c-.105469-2.34375-.15625-4.714844-.152344-7.105468.070312-37.792969 13.976562-69.800782 33.644531-82.726563-5.832031-3.796875-12.140625-5.953125-18.738281-6.121094-29.679688-.746093-53.8125 39.03125-53.90625 88.84375-.003906 2.394531.046875 4.761719.152344 7.109375l-.167969-.003906s-1.902344 56.441406 53.511719 125.734375c7.65625-9.152344 14.226562-18.109375 19.867187-26.757813-35.800781-56.496093-34.378906-98.976562-34.378906-98.976562zm0 0" fill="#ff4b34"/><path d="m248.734375 2.515625c-54.734375 68.027344-51.230469 123.21875-51.230469 123.21875l.167969-.003906c-.042969 2.296875-.03125 4.617187.039063 6.953125 1.46875 48.722656 27.238281 87.519531 57.558593 86.65625 30.320313-.867188 53.710938-41.066406 52.242188-89.789063-.070313-2.339843-.199219-4.652343-.378907-6.941406l.167969-.003906c.003907-.003907.175781-55.300781-58.566406-120.089844zm0 0" fill="#ff624b"/><path d="m289.519531 136.089844c-3.230469 0-5.894531-2.570313-5.996093-5.820313-.054688-1.910156-.164063-3.859375-.3125-5.785156l-.691407-8.792969c-1.433593-9.097656-5.703125-27.585937-18.230469-50.660156-1.582031-2.910156-.503906-6.554688 2.410157-8.136719 2.914062-1.582031 6.554687-.5 8.136719 2.410157 13.492187 24.855468 18.054687 44.984374 19.574218 54.769531.027344.148437.042969.300781.054688.453125l.707031 9.019531c.167969 2.117187.285156 4.257813.347656 6.359375.101563 3.3125-2.503906 6.078125-5.816406 6.183594-.0625 0-.125 0-.183594 0zm0 0" fill="#ff9079"/><path d="m239.710938 132.683594c-.070313-2.339844-.082032-4.65625-.039063-6.953125l-.167969.003906s-2.589844-40.792969 31.464844-95.460937c-6.269531-8.953126-13.609375-18.25-22.230469-27.757813-54.734375 68.027344-51.234375 123.21875-51.234375 123.21875l.167969-.003906c-.042969 2.296875-.03125 4.617187.039063 6.953125 1.46875 48.722656 27.242187 87.519531 57.5625 86.65625 7.089843-.203125 13.796874-2.558594 19.902343-6.667969-19.84375-13.03125-34.371093-43.761719-35.464843-79.988281zm0 0" fill="#ff4b34"/><path d="m252.519531 219.335938c-3.316406 0-6-2.6875-6-6v-108.402344c0-3.3125 2.683594-6 6-6 3.3125 0 6 2.6875 6 6v108.402344c0 3.316406-2.6875 6-6 6zm0 0" fill="#ff9079"/><path d="m58.1875 340.171875c87.945312 12.085937 135.347656-18.460937 135.347656-18.460937l-.089844-.140626c2.066407-1.109374 4.125-2.28125 6.171876-3.507812 42.652343-25.597656 64.316406-66.699219 48.386718-91.804688-15.933594-25.105468-63.425781-24.703124-106.078125.894532-2.050781 1.230468-4.046875 2.496094-5.996093 3.792968l-.085938-.140624s-49.332031 27.503906-77.65625 109.367187zm0 0" fill="#ff624b"/><path d="m148.5625 288.617188c-2.074219 0-4.089844-1.078126-5.199219-3.003907-1.65625-2.871093-.675781-6.539062 2.195313-8.195312l93.878906-54.203125c2.871094-1.660156 6.542969-.671875 8.195312 2.195312 1.65625 2.871094.675782 6.539063-2.195312 8.195313l-93.878906 54.203125c-.945313.546875-1.980469.808594-2.996094.808594zm0 0" fill="#ff9079"/><path d="m177.84375 236.804688.085938.140624c1.949218-1.296874 3.945312-2.5625 5.992187-3.792968 17.164063-10.296875 35.109375-16.511719 51.464844-18.632813-21.609375-12.246093-59.101563-7.988281-93.464844 12.632813-2.046875 1.230468-4.042969 2.496094-5.992187 3.792968l-.085938-.140624s-49.332031 27.503906-77.65625 109.367187c15.679688 2.152344 30.066406 2.949219 43.128906 2.808594 28.484375-79.382813 76.527344-106.175781 76.527344-106.175781zm0 0" fill="#ff4b34"/><path d="m453.039062 334.566406c-87.070312 17.078125-136.226562-10.714844-136.226562-10.714844l.078125-.144531c-2.125-.992187-4.253906-2.042969-6.371094-3.152343-44.125-23.121094-68.226562-62.917969-53.835937-88.886719 14.386718-25.96875 61.824218-28.277344 105.949218-5.152344 2.117188 1.109375 4.1875 2.257813 6.210938 3.441406l.082031-.144531s50.902344 24.644531 84.113281 104.753906zm0 0" fill="#ff624b"/><path d="m358.8125 323.851562.078125-.144531c-2.125-.992187-4.253906-2.042969-6.371094-3.152343-44.125-23.121094-68.226562-62.917969-53.835937-88.886719 5.15625-9.308594 14.574218-15.558594 26.546875-18.703125-30.90625-6.371094-58.226563.078125-68.546875 18.703125-14.390625 25.96875 9.710937 65.765625 53.835937 88.886719 2.117188 1.109374 4.242188 2.160156 6.371094 3.152343l-.078125.144531s36.605469 20.6875 102.582031 15.390626c-39.320312-3.371094-60.582031-15.390626-60.582031-15.390626zm0 0" fill="#ff4b34"/><path d="m357.511719 291.289062c-1.019531 0-2.046875-.261718-2.992188-.808593l-93.878906-54.203125c-2.871094-1.65625-3.855469-5.324219-2.195313-8.195313 1.65625-2.871093 5.324219-3.859375 8.195313-2.195312l93.878906 54.203125c2.867188 1.65625 3.851563 5.324218 2.195313 8.195312-1.113282 1.925782-3.128906 3.003906-5.203125 3.003906zm0 0" fill="#ff9079"/><path d="m253.191406 211.824219c0 13.808593-11.191406 25-25 25-13.804687 0-25-11.191407-25-25 0-13.808594 11.195313-25 25-25 13.808594 0 25 11.191406 25 25zm0 0" fill="#ffd59a"/><path d="m222.691406 211.824219c0-10.347657 6.289063-19.226563 15.25-23.027344-2.996094-1.269531-6.289062-1.972656-9.75-1.972656-13.808594 0-25 11.191406-25 25 0 13.808593 11.191406 25 25 25 3.460938 0 6.753906-.703125 9.75-1.972657-8.960937-3.800781-15.25-12.679687-15.25-23.027343zm0 0" fill="#ffb74b"/><path d="m298.191406 211.824219c0 13.808593-11.191406 25-25 25-13.804687 0-25-11.191407-25-25 0-13.808594 11.195313-25 25-25 13.808594 0 25 11.191406 25 25zm0 0" fill="#ffd59a"/><path d="m267.691406 211.824219c0-10.347657 6.289063-19.226563 15.25-23.027344-2.996094-1.269531-6.289062-1.972656-9.75-1.972656-13.808594 0-25 11.191406-25 25 0 13.808593 11.191406 25 25 25 3.460938 0 6.753906-.703125 9.75-1.972657-8.960937-3.800781-15.25-12.679687-15.25-23.027343zm0 0" fill="#ffb74b"/><path d="m274.191406 244.824219c0 13.808593-11.191406 25-25 25-13.804687 0-25-11.191407-25-25 0-13.808594 11.195313-25 25-25 13.808594 0 25 11.191406 25 25zm0 0" fill="#ffd59a"/><path d="m243.691406 244.824219c0-10.347657 6.289063-19.226563 15.25-23.027344-2.996094-1.269531-6.289062-1.972656-9.75-1.972656-13.808594 0-25 11.191406-25 25 0 13.808593 11.191406 25 25 25 3.460938 0 6.753906-.703125 9.75-1.972657-8.960937-3.800781-15.25-12.679687-15.25-23.027343zm0 0" fill="#ffb74b"/><path d="m195.496094 43.488281c0 9.664063-7.832032 17.5-17.5 17.5-9.664063 0-17.5-7.835937-17.5-17.5 0-9.664062 7.835937-17.5 17.5-17.5 9.667968 0 17.5 7.835938 17.5 17.5zm0 0" fill="#99af17"/><path d="m422.882812 311.578125c0 9.664063-7.835937 17.5-17.5 17.5-9.664062 0-17.5-7.835937-17.5-17.5s7.835938-17.5 17.5-17.5c9.664063 0 17.5 7.835937 17.5 17.5zm0 0" fill="#ff4b34"/></svg>