<svg height="487pt" viewBox="-114 0 487 487.292" width="487pt" xmlns="http://www.w3.org/2000/svg"><path d="m74.640625 123.867188h28.996094v250.789062h-28.996094zm0 0" fill="#bf6c0d"/><path d="m74.640625 123.867188h18v250.792968h-18zm0 0" fill="#a56021"/><path d="m152.800781 91.472656h28.996094v250.792969h-28.996094zm0 0" fill="#bf6c0d"/><path d="m152.800781 91.472656h18v250.792969h-18zm0 0" fill="#a56021"/><path d="m259.558594 97.4375c0 53.8125-43.621094 97.433594-97.433594 97.433594s-97.4375-43.621094-97.4375-97.433594 43.625-97.4375 97.4375-97.4375 97.433594 43.625 97.433594 97.4375zm0 0" fill="#ccc033"/><path d="m241.558594 103.4375c-3.3125 0-6-2.6875-6-6 0-32.195312-20.636719-60.34375-51.355469-70.046875-3.160156-1-4.914063-4.371094-3.914063-7.527344.996094-3.160156 4.371094-4.921875 7.527344-3.914062 35.734375 11.289062 59.742188 44.035156 59.742188 81.488281 0 3.3125-2.683594 6-6 6zm0 0" fill="#eacf32"/><path d="m124.6875 97.4375c0-43.34375 28.304688-80.070312 67.4375-92.722656-9.453125-3.058594-19.53125-4.714844-30-4.714844-53.8125 0-97.4375 43.625-97.4375 97.4375 0 53.808594 43.625 97.433594 97.4375 97.433594 10.46875 0 20.546875-1.65625 30-4.714844-39.132812-12.648438-67.4375-49.375-67.4375-92.71875zm0 0" fill="#99af17"/><path d="m163.804688 162.109375c0 41.238281-33.429688 74.667969-74.667969 74.667969s-74.667969-33.429688-74.667969-74.667969 33.429688-74.667969 74.667969-74.667969 74.667969 33.429688 74.667969 74.667969zm0 0" fill="#eacf32"/><path d="m95.84375 487.292969h-16.714844c-3.449218 0-6.246094-2.796875-6.246094-6.246094v-34.175781h29.207032v34.175781c-.003906 3.449219-2.800782 6.246094-6.246094 6.246094zm0 0" fill="#a56021"/><path d="m167.945312 487.292969h-16.714843c-3.449219 0-6.242188-2.796875-6.242188-6.246094v-34.175781h29.203125v34.175781c0 3.449219-2.796875 6.246094-6.246094 6.246094zm0 0" fill="#a56021"/><path d="m86.933594 481.046875v-34.175781h-14.050782v34.175781c0 3.449219 2.796876 6.242187 6.242188 6.242187h14.054688c-3.449219.003907-6.246094-2.792968-6.246094-6.242187zm0 0" fill="#8c4c17"/><path d="m159.039062 481.046875v-34.175781h-14.050781v34.175781c0 3.449219 2.796875 6.242187 6.242188 6.242187h14.054687c-3.449218.003907-6.246094-2.792968-6.246094-6.242187zm0 0" fill="#8c4c17"/><path d="m193.527344 467.082031h-136.351563c-7.824219 0-14.441406-5.789062-15.476562-13.542969l-20.835938-155.710937h207.199219l-19.039062 155.539063c-.960938 7.828124-7.609376 13.714843-15.496094 13.714843zm0 0" fill="#e58d23"/><path d="m88.539062 453.539062-20.835937-155.710937h-46.839844l20.835938 155.710937c1.039062 7.753907 7.652343 13.542969 15.476562 13.542969h46.835938c-7.820313 0-14.4375-5.789062-15.472657-13.542969zm0 0" fill="#bf6c0d"/><path d="m24.851562 327.617188h199.5625l3.648438-29.789063h-207.199219zm0 0" fill="#bf6c0d"/><path d="m240.976562 313.566406h-233.023437c-4.3125 0-7.808594-3.492187-7.808594-7.804687v-18.238281c0-4.3125 3.496094-7.804688 7.808594-7.804688h233.023437c4.3125 0 7.808594 3.492188 7.808594 7.804688v18.238281c-.003906 4.308593-3.496094 7.804687-7.808594 7.804687zm0 0" fill="#a56021"/><path d="m46.980469 305.761719v-18.238281c0-4.3125 3.496093-7.808594 7.808593-7.808594h-46.835937c-4.3125 0-7.808594 3.496094-7.808594 7.808594v18.238281c0 4.308593 3.496094 7.804687 7.808594 7.804687h46.835937c-4.3125 0-7.808593-3.496094-7.808593-7.804687zm0 0" fill="#8c4c17"/><path d="m74.46875 162.109375c0-30.566406 18.375-56.824219 44.667969-68.378906-9.183594-4.035157-19.324219-6.289063-30-6.289063-41.238281 0-74.667969 33.429688-74.667969 74.667969s33.429688 74.667969 74.667969 74.667969c10.675781 0 20.816406-2.257813 30-6.292969-26.292969-11.554687-44.667969-37.8125-44.667969-68.375zm0 0" fill="#ccc033"/><path d="m195.125 451.074219c-.246094 0-.488281-.015625-.738281-.042969-3.289063-.402344-5.625-3.394531-5.226563-6.683594l12.425782-101.484375c.402343-3.292969 3.402343-5.644531 6.683593-5.226562 3.289063.402343 5.628907 3.394531 5.226563 6.683593l-12.425782 101.484376c-.371093 3.042968-2.957031 5.269531-5.945312 5.269531zm0 0" fill="#ffa730"/><path d="m128.109375 443.539062c0 9.664063-7.835937 17.5-17.5 17.5-9.667969 0-17.5-7.835937-17.5-17.5 0-9.664062 7.832031-17.5 17.5-17.5 9.664063 0 17.5 7.835938 17.5 17.5zm0 0" fill="#bf6c0d"/><path d="m136.460938 200.8125c0 9.667969-7.832032 17.5-17.5 17.5-9.664063 0-17.5-7.832031-17.5-17.5 0-9.664062 7.835937-17.5 17.5-17.5 9.667968 0 17.5 7.835938 17.5 17.5zm0 0" fill="#ccc033"/></svg>