<svg height="470.877pt" viewBox="0 0 470.877 470.877" width="470.877pt" xmlns="http://www.w3.org/2000/svg"><g fill="#8c4c17"><path d="m294.570312 445.328125-26.878906-26.878906 10.519532-10.519531 26.878906 26.878906c2.902344 2.90625 2.902344 7.613281 0 10.519531-2.90625 2.902344-7.613282 2.902344-10.519532 0zm0 0"/><path d="m271.199219 468.699219-26.878907-26.878907 10.519532-10.515624 26.878906 26.875c2.902344 2.90625 2.902344 7.617187 0 10.519531-2.90625 2.902343-7.617188 2.902343-10.519531 0zm0 0"/><path d="m458.179688 281.71875-26.875-26.878906 10.515624-10.519532 26.878907 26.878907c2.902343 2.902343 2.902343 7.613281 0 10.519531-2.902344 2.902344-7.613281 2.902344-10.519531 0zm0 0"/><path d="m434.808594 305.089844-26.878906-26.878906 10.519531-10.519532 26.878906 26.878906c2.902344 2.90625 2.902344 7.613282 0 10.519532-2.90625 2.902344-7.613281 2.902344-10.519531 0zm0 0"/><path d="m411.433594 328.460938-26.875-26.878907 10.515625-10.515625 26.878906 26.875c2.902344 2.90625 2.902344 7.617188 0 10.519532-2.902344 2.90625-7.613281 2.90625-10.519531 0zm0 0"/><path d="m388.0625 351.835938-26.878906-26.878907 10.519531-10.519531 26.878906 26.878906c2.902344 2.90625 2.902344 7.613282 0 10.519532-2.90625 2.902343-7.613281 2.902343-10.519531 0zm0 0"/><path d="m364.6875 375.207031-26.875-26.878906 10.515625-10.515625 26.878906 26.875c2.902344 2.90625 2.902344 7.617188 0 10.519531-2.902343 2.902344-7.613281 2.902344-10.519531 0zm0 0"/><path d="m341.316406 398.582031-26.878906-26.882812 10.519531-10.515625 26.878907 26.878906c2.902343 2.902344 2.902343 7.613281 0 10.515625-2.90625 2.90625-7.613282 2.90625-10.519532.003906zm0 0"/><path d="m317.945312 421.953125-26.878906-26.878906 10.519532-10.515625 26.878906 26.875c2.902344 2.90625 2.902344 7.617187 0 10.519531-2.90625 2.902344-7.617188 2.902344-10.519532 0zm0 0"/></g><path d="m269.15625 287.851562-265.285156-265.28125c-5.160156-5.164062-5.160156-13.535156 0-18.699218 5.164062-5.160156 13.535156-5.160156 18.699218 0l265.28125 265.285156zm0 0" fill="#a56021"/><path d="m10.832031.222656c-2.550781.464844-4.988281 1.679688-6.957031 3.648438-5.164062 5.164062-5.164062 13.535156 0 18.699218l265.28125 265.28125 10.605469-10.605468-265.28125-265.28125c-3.195313-3.195313-4.40625-7.613282-3.648438-11.742188zm0 0" fill="#8c4c17"/><path d="m278.964844 257.929688-21.039063 21.035156c-2.582031 2.582031-2.582031 6.769531 0 9.351562l52.589844 52.585938 30.382813-30.382813-52.585938-52.589843c-2.582031-2.582032-6.765625-2.582032-9.347656 0zm0 0" fill="#e58d23"/><path d="m270.65625 266.234375-12.726562 12.730469c-2.582032 2.582031-2.582032 6.765625 0 9.347656l52.585937 52.589844 12.730469-12.730469-52.589844-52.585937c-2.582031-2.582032-2.582031-6.769532 0-9.351563zm0 0" fill="#bf6c0d"/><path d="m398.75 217.609375-181.140625 181.140625c-6.453125 6.453125-6.453125 16.917969 0 23.371094l17.53125 17.53125 11.648437 11.652344c1.5625 1.5625 4.097657 1.5625 5.65625 0l198.859376-198.855469c1.558593-1.5625 1.558593-4.09375 0-5.65625l-29.183594-29.183594c-6.453125-6.453125-16.917969-6.453125-23.371094 0zm0 0" fill="#e58d23"/><path d="m266.960938 429.046875-17.53125-17.53125c-6.453126-6.453125-6.453126-16.917969 0-23.371094l171.558593-171.558593c-6.492187-5.402344-16.148437-5.066407-22.238281 1.023437l-181.140625 181.140625c-6.453125 6.453125-6.453125 16.917969 0 23.371094l17.53125 17.53125 11.648437 11.652344c1.5625 1.5625 4.097657 1.5625 5.65625 0l18.386719-18.382813zm0 0" fill="#bf6c0d"/><path d="m289.058594 396.667969c0 9.664062-7.835938 17.5-17.5 17.5-9.667969 0-17.5-7.835938-17.5-17.5 0-9.664063 7.832031-17.5 17.5-17.5 9.664062 0 17.5 7.835937 17.5 17.5zm0 0" fill="#bf6c0d"/><path d="m360.628906 331.128906c-1.539062 0-3.070312-.589844-4.242187-1.761718-2.347657-2.34375-2.347657-6.140626 0-8.484376l67.5-67.5c2.34375-2.34375 6.136719-2.34375 8.480469 0 2.347656 2.34375 2.347656 6.140626 0 8.484376l-67.5 67.5c-1.171876 1.171874-2.707032 1.761718-4.238282 1.761718zm0 0" fill="#ffa730"/></svg>