<svg height="496pt" viewBox="0 -60 496.296 496" width="496pt" xmlns="http://www.w3.org/2000/svg"><path d="m465.613281 203.390625c0-.109375.007813-.21875.007813-.332031 0-27.648438-21.09375-50.0625-47.117188-50.0625-.054687 0-.109375 0-.164062 0-1.746094.011718-3.324219-1.050782-3.875-2.703125-6.261719-18.785157-19.363282-34.136719-36.121094-42.671875-1.574219-.804688-2.410156-2.535156-2.097656-4.269532.550781-3.0625.84375-6.222656.84375-9.457031 0-27.648437-21.097656-50.058593-47.121094-50.058593-5.910156 0-11.5625 1.160156-16.773438 3.273437-2.449218.992187-5.175781-.589844-5.484374-3.203125-2.917969-24.671875-22.726563-43.757812-46.738282-43.757812-19.125 0-35.582031 12.117187-42.960937 29.511718-.875 2.0625-3.316407 3-5.347657 2.035156-8.796874-4.179687-18.539062-6.515624-28.796874-6.515624-39.035157 0-70.675782 33.621093-70.675782 75.09375 0 4.191406.332032 8.304687.957032 12.308593.3125 1.988281-.886719 3.925781-2.839844 4.457031-20.332032 5.546876-35.359375 25.140626-35.359375 48.472657 0 2.71875.207031 5.390625.605469 7.992187.386718 2.527344-1.617188 4.800782-4.179688 4.625-.980469-.066406-1.964844-.101562-2.960938-.101562-26.023437 0-47.117187 22.410156-47.117187 50.058594 0 27.648437 21.09375 50.058593 47.117187 50.058593 1.191407 0 2.367188-.058593 3.53125-.152343.355469.09375.71875.152343 1.101563.152343h386.910156c19.515625 0 35.339844-16.808593 35.339844-37.542969 0-19.054687-13.367187-34.789062-30.683594-37.210937zm0 0" fill="#eacf32"/><path d="m460.957031 266.195312c-3.3125 0-6-2.683593-6-6 0-3.3125 2.6875-6 6-6 6.238281 0 11.308594-6.097656 11.308594-13.589843 0-6.894531-4.296875-12.695313-9.992187-13.492188l-12.179688-1.703125c-4.957031-.695312-8.660156-4.984375-8.621094-9.980468l.121094-12.621094c-.125-14.265625-10.464844-25.859375-23.089844-25.859375-.402344 0-.867187.023437-1.457031.066406-3.292969.21875-6.175781-2.261719-6.40625-5.566406-.234375-3.304688 2.257813-6.171875 5.5625-6.40625.929687-.066407 1.664063-.09375 2.300781-.09375 19.214844 0 34.957032 16.976562 35.089844 37.847656 0 .070313 0 .140625-.003906.210937l-.003906.3125-.097657 10.445313 10.449219 1.460937c11.589844 1.625 20.328125 12.53125 20.328125 25.375.003906 14.113282-10.457031 25.59375-23.308594 25.59375zm0 0" fill="#fcda4f"/><path d="m82.390625 258.011719c0-27.648438 21.09375-50.0625 47.117187-50.0625 2.808594 0 5.554688.277343 8.226563.777343-1.09375-4.234374-1.691406-8.6875-1.691406-13.292968 0-24.652344 16.777343-45.128906 38.859375-49.28125-1.046875-5.144532-1.617188-10.480469-1.617188-15.960938 0-41.472656 31.644532-75.089844 70.675782-75.089844 11.777343 0 22.871093 3.078126 32.636718 8.488282 4.691406-14.234375 15.261719-25.527344 28.613282-30.605469-6.605469-19.160156-23.910157-32.835937-44.234376-32.835937-19.125 0-35.582031 12.113281-42.960937 29.507812-.875 2.0625-3.316406 3-5.347656 2.039062-8.796875-4.179687-18.539063-6.515624-28.796875-6.515624-39.035156 0-70.675782 33.617187-70.675782 75.089843 0 4.195313.332032 8.304688.957032 12.308594.3125 1.992187-.886719 3.925781-2.839844 4.457031-20.335938 5.550782-35.363281 25.144532-35.363281 48.476563 0 2.71875.207031 5.390625.601562 7.992187.386719 2.527344-1.617187 4.800782-4.179687 4.625-.976563-.066406-1.964844-.101562-2.960938-.101562-26.019531 0-47.117187 22.414062-47.117187 50.0625 0 27.644531 21.097656 50.058594 47.117187 50.058594 1.191406 0 2.367188-.0625 3.535156-.15625.351563.09375.714844.15625 1.097657.15625h12.324219c-2.550782-6.164063-3.976563-12.972657-3.976563-20.136719zm0 0" fill="#ccc033"/><path d="m360.078125 320.929688c0-.082032.007813-.164063.007813-.246094 0-20.386719-17.136719-36.914063-38.273438-36.914063h-.023438c-1.488281 0-2.828124-.84375-3.300781-2.121093-5.09375-13.773438-15.6875-25.027344-29.226562-31.3125-1.316407-.609376-2.015625-1.933594-1.753907-3.246094.4375-2.234375.667969-4.542969.667969-6.90625 0-20.386719-17.132812-36.914063-38.269531-36.914063-6.421875 0-12.46875 1.53125-17.78125 4.226563-.265625-20.167969-17.285156-36.441406-38.257812-36.441406-15.503907 0-28.84375 8.894531-34.859376 21.675781-.75 1.597656-2.855468 2.238281-4.589843 1.496093-7.089844-3.023437-14.929688-4.714843-23.179688-4.714843-31.703125 0-57.40625 24.792969-57.40625 55.371093 0 3.0625.265625 6.0625.765625 8.988282.261719 1.554687-.816406 3.003906-2.488281 3.425781-16.414063 4.15625-28.527344 18.558594-28.527344 35.695313 0 1.972656.164063 3.902343.472657 5.789062.320312 1.945312-1.417969 3.625-3.589844 3.503906-.726563-.039062-1.453125-.0625-2.191406-.0625-21.136719 0-38.26953175 16.53125-38.26953175 36.917969s17.13281275 36.914063 38.26953175 36.914063c.964843 0 1.921874-.042969 2.871093-.113282.289063.070313.582031.113282.894531.113282h314.261719c15.851563 0 28.703125-12.394532 28.703125-27.683594-.003906-14.054688-10.863281-25.65625-24.925781-27.441406zm0 0" fill="#ccc033"/><path d="m356.296875 364.007812c-3.316406 0-6-2.6875-6-6s2.683594-6 6-6c1.265625 0 2.742187-1.589843 2.742187-3.636718 0-1.945313-1.316406-3.46875-2.496093-3.617188l-13.363281-1.699218c-5.167969-.65625-9.0625-4.921876-9.0625-9.921876l.003906-12.628906c-.089844-7-5.605469-12.6875-12.308594-12.6875-.191406 0-.441406.011719-.765625.035156-3.292969.214844-6.160156-2.296874-6.371094-5.605468-.210937-3.304688 2.296875-6.160156 5.605469-6.371094.648438-.039062 1.148438-.058594 1.53125-.058594 13.273438 0 24.175781 11.042969 24.308594 24.613282v.21875l-.003906.28125v10.402343l11.9375 1.519531c7.402343.9375 12.984374 7.609376 12.984374 15.519532 0 8.476562-6.753906 15.636718-14.742187 15.636718zm0 0" fill="#eacf32"/><path d="m66.539062 369.21875c0-20.386719 17.136719-36.914062 38.269532-36.914062 2.28125 0 4.511718.203124 6.683594.570312-.890626-3.121094-1.375-6.40625-1.375-9.800781 0-18.179688 13.628906-33.277344 31.566406-36.339844-.855469-3.792969-1.3125-7.726563-1.3125-11.769531 0-30.582032 25.699218-55.371094 57.40625-55.371094 9.566406 0 18.574218 2.269531 26.507812 6.257812 3.78125-10.425781 12.28125-18.71875 23.027344-22.496093-5.457031.355469-10.597656 1.808593-15.1875 4.140625-.265625-20.167969-17.285156-36.441406-38.257812-36.441406-15.152344 0-28.238282 8.492187-34.4375 20.8125-1.015626 2.011718-3.617188 2.921874-5.84375 2.011718-6.871094-2.808594-14.421876-4.363281-22.347657-4.363281-31.703125 0-57.40625 24.789063-57.40625 55.371094 0 2.777343.21875 5.503906.628907 8.171875.304687 1.960937-.957032 3.851562-3.054688 4.425781-16.058594 4.382813-27.828125 18.617187-27.828125 35.511719 0 1.632812.113281 3.242187.328125 4.816406.328125 2.40625-1.835938 4.503906-4.515625 4.425781-.371094-.007812-.746094-.015625-1.121094-.015625-21.136719 0-38.269531 16.53125-38.269531 36.917969s17.132812 36.914063 38.269531 36.914063c.964844 0 1.921875-.042969 2.871094-.113282.289063.070313.582031.113282.894531.113282h25.171875c-.429687-2.214844-.667969-4.5-.667969-6.835938zm0 0" fill="#99af17"/><path d="m235.792969 91.039062c0 9.664063-7.835938 17.5-17.5 17.5-9.664063 0-17.5-7.835937-17.5-17.5 0-9.664062 7.835937-17.5 17.5-17.5 9.664062 0 17.5 7.835938 17.5 17.5zm0 0" fill="#ccc033"/><path d="m188.007812 258.761719c0 9.664062-7.835937 17.5-17.5 17.5-9.664062 0-17.5-7.835938-17.5-17.5 0-9.667969 7.835938-17.5 17.5-17.5 9.664063 0 17.5 7.832031 17.5 17.5zm0 0" fill="#99af17"/></svg>