<svg height="457pt" viewBox="-36 0 457 457.76232" width="457pt" xmlns="http://www.w3.org/2000/svg"><path d="m157.769531 70.289062h19.5625v318.105469h-19.5625zm0 0" fill="#ccc033"/><path d="m157.769531 70.289062h12.441407v318.105469h-12.441407zm0 0" fill="#99af17"/><path d="m177.1875 151.230469c107.824219-9.722657 98.84375-92.609375 93.328125-118.507813-.929687-4.375-6.59375-6.191406-12.492187-4.019531-35.632813 13.136719-146.304688 60.070313-91.882813 119.109375 2.382813 2.582031 6.4375 3.832031 11.046875 3.417969zm0 0" fill="#ccc033"/><path d="m271.796875 39.640625c-.410156-2.601563-.855469-4.929687-1.277344-6.917969-.933593-4.375-6.597656-6.191406-12.496093-4.015625-16.183594 5.96875-47.855469 18.910157-72.503907 36.789063-.445312.324218-.886719.652344-1.332031.976562-.058594.046875-.117188.089844-.175781.132813-.382813.285156-.765625.574219-1.148438.859375-.082031.0625-.164062.125-.246093.1875-.355469.269531-.710938.542968-1.058594.8125-.097656.078125-.199219.152344-.296875.230468-.335938.261719-.671875.523438-1.003907.785157-.101562.082031-.203124.164062-.304687.242187-.332031.265625-.660156.53125-.988281.796875-.101563.078125-.195313.160157-.292969.238281-.335937.269532-.667969.546876-1 .820313-.085937.070313-.171875.140625-.257813.214844-.351562.292969-.695312.582031-1.039062.878906-.066406.054687-.132812.109375-.199219.167969-.398437.339844-.792969.679687-1.183593 1.023437-.007813.007813-.015626.015625-.023438.023438-1.230469 1.078125-2.429688 2.171875-3.589844 3.277343-.046875.046876-.09375.09375-.140625.136719-.328125.316407-.652343.628907-.976562.945313-.082031.082031-.164063.164062-.246094.246094-.285156.28125-.570313.5625-.851563.847656-.097656.097656-.191406.199218-.289062.296875-.265625.265625-.523438.535156-.78125.804687-.105469.109375-.207031.21875-.3125.328125-.25.261719-.492188.523438-.734375.785157-.109375.113281-.214844.230468-.320313.34375-.238281.261718-.476562.527343-.710937.789062-.101563.113281-.203125.222656-.304687.339844-.238282.265625-.472657.535156-.707032.808594-.09375.109374-.191406.21875-.28125.328124-.242187.285157-.484375.566407-.722656.855469-.078125.09375-.160156.1875-.238281.28125-.269531.332031-.539063.664063-.804688.996094-.039062.050781-.078125.097656-.117187.148437-.621094.785157-1.226563 1.578126-1.804688 2.371094-.007812.011719-.015625.027344-.027344.039063-.269531.371093-.539062.75-.800781 1.128906-.0625.089844-.125.183594-.1875.277344-.207031.296875-.410156.597656-.609375.894531-.078125.121094-.15625.242188-.234375.363281-.179687.273438-.359375.550781-.53125.824219-.082031.132812-.164062.269531-.25.402344-.164062.265625-.324219.527344-.480469.789062-.085937.144532-.171874.285156-.253906.429688-.152344.257812-.300781.515625-.449218.773437-.082032.148438-.164063.296875-.246094.441407-.144532.257812-.285156.519531-.421875.777343-.078125.148438-.15625.292969-.230469.441407-.140625.265624-.273438.53125-.40625.800781-.070312.140625-.144531.28125-.210938.421875-.136718.277344-.269531.558594-.398437.839844-.058594.132812-.121094.257812-.179687.390624-.140626.3125-.277344.625-.414063.941407-.042969.097656-.082031.191406-.125.289062-.351563.832031-.675781 1.671875-.972656 2.515625-.027344.082032-.050781.160156-.078125.242188-.117188.335937-.230469.671875-.335938 1.011718-.042968.128907-.082031.265626-.121094.394532-.085937.289062-.171874.578125-.253906.867187-.046875.152344-.082031.304688-.125.457031-.070312.269532-.144531.539063-.210937.808594-.039063.167969-.078125.332032-.117188.496094-.058593.261719-.121093.519531-.175781.78125-.035156.171875-.070312.339844-.105469.515625-.050781.257813-.097656.511719-.144531.769531-.03125.175782-.058594.347656-.089844.523438-.042968.257812-.082031.515625-.117187.777344-.023438.171874-.050781.347656-.074219.523437-.03125.261719-.0625.527344-.089844.789063-.015625.171874-.035156.339843-.050781.511718-.027344.277344-.042969.554688-.066406.832032-.007813.15625-.023438.316406-.03125.476562-.015625.308594-.027344.613281-.035157.921875-.003906.128906-.007812.257813-.011718.386719-.019532.878906-.003906 1.765625.042968 2.65625.007813.121094.019532.246094.027344.371094.019532.316406.042969.636718.070313.957031.015625.164062.035156.328125.054687.492187.027344.28125.058594.5625.09375.847656.023438.179688.050782.359376.078125.539063.035157.265625.078125.535156.121094.804687.03125.1875.066406.375.101563.5625.046874.261719.097656.527344.148437.789063.039063.191406.078125.382813.121094.574219.058593.261718.117187.523437.179687.785156.046875.195312.09375.386719.144532.578125.070312.265625.140624.53125.214843.792969.054688.191406.109375.386718.164063.578125.078125.269531.164062.535156.25.804687.058594.191406.121094.378906.183594.570313.09375.277343.191406.558593.292968.835937.066406.179688.128906.363282.195313.542969.117187.308594.238281.617187.363281.929687.058594.152344.117188.300782.179688.449219.183593.449219.375.898438.582031 1.347657.003906.015624.011719.027343.015625.042968.210937.460938.429687.925782.660156 1.394532.074219.148437.152344.296874.226562.445312.160157.316406.320313.632812.488282.949219.097656.183593.199218.367187.296875.546875.15625.285156.316406.574218.480469.859375.109374.195312.226562.390625.339843.585937.164063.273438.324219.550782.492188.824219.125.203125.253906.40625.378906.609375.171875.269531.34375.539062.519531.808594.132813.207031.273438.414062.410156.621094.179688.269531.363282.539062.550782.808593.144531.207031.289062.410157.433594.621094.195312.269531.394531.542969.597656.816406.148437.203125.296875.410157.453125.613281.207031.277344.421875.558594.640625.835938.15625.199219.308594.402344.46875.601562.230468.292969.46875.582032.707031.871094.15625.191406.304687.378906.464844.566406.269531.324219.546875.644532.828125.96875.136718.160157.269531.316407.410156.476563.421875.480469.855469.960937 1.300781 1.445313.210938.230468.441407.441406.679688.648437.105469.09375.21875.179687.332031.269531.121094.097656.25.191406.378906.285156.152344.109376.308594.21875.472656.320313.070313.042969.144532.085937.21875.128906.503907.300781 1.027344.574219 1.59375.804688 2.445313.246093 4.9375.460937 7.492188.640625 1.144531.078125 2.246094.054687 3.316406-.03125.347656-.039063.707032-.070313 1.050782-.109375 3.628906-.488281 6.703124-1.933594 8.707031-4.199219 22.832031-25.816406 20.171875-49.234375 5.429687-69.324219 24.640625-17.871093 56.289063-30.804687 72.472656-36.773437 1.1875-.429688 2.367188-.695313 3.507813-.824219zm0 0" fill="#99af17"/><path d="m158.027344 154.429688c-127.183594-21.316407-109.007813-118.949219-100.113282-149.210938 1.503907-5.109375 8.398438-6.757812 15.207032-3.640625 41.128906 18.828125 168.328125 84.597656 98.339844 149.792969-3.0625 2.851562-7.992188 3.96875-13.433594 3.058594zm0 0" fill="#eacf32"/><path d="m81.378906 5.457031c-3.023437-1.453125-5.796875-2.75-8.261718-3.878906-6.808594-3.117187-13.703126-1.46875-15.203126 3.640625-8.894531 30.261719-27.070312 127.894531 100.113282 149.210938 5.441406.914062 10.371094-.207032 13.433594-3.054688 2.921874-2.722656 5.488281-5.445312 7.746093-8.164062-109.75-20.75-106.050781-100.40625-97.828125-137.753907zm0 0" fill="#ccc033"/><path d="m168.800781 136.886719c-1.714843 0-3.417969-.730469-4.609375-2.152344l-33.4375-39.996094c-2.125-2.539062-1.785156-6.324219.757813-8.449219 2.542969-2.128906 6.324219-1.785156 8.453125.753907l33.4375 39.996093c2.125 2.542969 1.785156 6.328126-.757813 8.453126-1.125.9375-2.488281 1.394531-3.84375 1.394531zm0 0" fill="#fcda4f"/><path d="m16.359375 457.761719h283.78125c.683594-5.191407 1.035156-10.476563 1.035156-15.839844 0-8.074219-.804687-15.972656-2.332031-23.636719 3.632812-5.335937 5.757812-11.785156 5.757812-18.730468 0-16.160157-11.5-29.632813-26.765624-32.683594 1.445312-3.738282 2.25-7.792969 2.25-12.042969 0-18.410156-14.925782-33.335937-33.335938-33.335937-1.628906 0-3.226562.121093-4.792969.347656-2.066406-16.429688-16.074219-29.140625-33.0625-29.140625-13.488281 0-25.09375 8.011719-30.34375 19.53125-5.25-11.519531-16.855469-19.53125-30.339843-19.53125-13.675782 0-25.421876 8.234375-30.5625 20.015625-4.292969-2.007813-9.074219-3.136719-14.125-3.136719-18.410157 0-33.335938 14.925781-33.335938 33.335937 0 1.742188.136719 3.453126.394531 5.125-1.074219.933594-2.132812 1.882813-3.171875 2.847657-16.277344 2.203125-28.824218 16.144531-28.824218 33.023437 0 1.777344.140624 3.523438.410156 5.222656-1.097656 2.265626-2.113282 4.574219-3.070313 6.90625-.730469-.046874-1.460937-.078124-2.203125-.078124-18.414062 0-33.339844 14.925781-33.339844 33.335937 0 12.054687 6.394532 22.605469 15.976563 28.464844zm0 0" fill="#bf6c0d"/><path d="m16.359375 457.761719h31.390625c0-.015625-.003906-.03125-.003906-.042969 0-18.414062 14.925781-33.339844 33.339844-33.339844.742187 0 1.472656.03125 2.203124.082032.957032-2.335938 1.972657-4.640626 3.070313-6.90625-.269531-1.703126-.410156-3.445313-.410156-5.226563 0-16.878906 12.546875-30.816406 28.824219-33.023437 1.039062-.964844 2.101562-1.910157 3.171874-2.847657-.257812-1.667969-.390624-3.382812-.390624-5.121093 0-18.414063 14.925781-33.339844 33.335937-33.339844 5.046875 0 9.832031 1.128906 14.121094 3.140625 5.140625-11.78125 16.886719-20.019531 30.5625-20.019531 13.484375 0 25.089843 8.011718 30.339843 19.53125 4.453126-9.769532 13.488282-16.996094 24.351563-18.96875-1.15625-.125-2.328125-.1875-3.519531-.1875-1.625 0-3.226563.121093-4.789063.347656-2.066406-16.429688-16.078125-29.140625-33.066406-29.140625-13.484375 0-25.089844 8.011719-30.339844 19.53125-5.25-11.519531-16.859375-19.53125-30.34375-19.53125-13.675781 0-25.417969 8.234375-30.5625 20.015625-4.289062-2.007813-9.070312-3.136719-14.121093-3.136719-18.414063 0-33.335938 14.925781-33.335938 33.335937 0 1.742188.132812 3.453126.390625 5.125-1.070313.933594-2.132813 1.882813-3.171875 2.847657-16.273438 2.203125-28.824219 16.144531-28.824219 33.023437 0 1.777344.144531 3.523438.410157 5.222656-1.09375 2.265626-2.113282 4.574219-3.070313 6.90625-.730469-.046874-1.460937-.078124-2.203125-.078124-18.410156 0-33.335938 14.925781-33.335938 33.335937 0 12.054687 6.394532 22.605469 15.976563 28.464844zm0 0" fill="#a56021"/><path d="m147.628906 414.234375c0 10.632813-8.621094 19.25-19.25 19.25-10.632812 0-19.25-8.617187-19.25-19.25 0-10.628906 8.617188-19.25 19.25-19.25 10.628906 0 19.25 8.621094 19.25 19.25zm0 0" fill="#a56021"/><path d="m183.925781 374.636719c0 10.628906-8.617187 19.25-19.25 19.25-10.628906 0-19.25-8.621094-19.25-19.25 0-10.632813 8.621094-19.25 19.25-19.25 10.632813 0 19.25 8.617187 19.25 19.25zm0 0" fill="#a56021"/><path d="m350.433594 317.027344v-183.632813c0-23.664062-19.179688-42.84375-42.84375-42.84375-23.660156 0-42.84375 19.179688-42.84375 42.84375v183.636719c-20.246094 13.632812-33.683594 36.632812-34.050782 62.742188-.589843 42.476562 33.8125 77.660156 76.296876 77.988281 42.675781.328125 77.5-34.296875 77.5-76.898438 0-26.558593-13.53125-50.011719-34.058594-63.835937zm0 0" fill="#fff4c1"/><path d="m276.898438 379.769531c.363281-26.105469 13.800781-49.109375 34.046874-62.738281v-183.636719c0-15.152343 7.875-28.457031 19.742188-36.078125-6.664062-4.277344-14.589844-6.769531-23.097656-6.769531-23.664063 0-42.84375 19.183594-42.84375 42.84375v183.636719c-20.246094 13.632812-33.683594 36.636718-34.050782 62.742187-.59375 42.476563 33.8125 77.660157 76.292969 77.988281 8.269531.0625 16.238281-1.203124 23.722657-3.566406-31.484376-9.976562-54.296876-39.765625-53.8125-74.421875zm0 0" fill="#fce575"/><path d="m307.589844 434.144531c-29.378906 0-53.285156-23.90625-53.285156-53.285156 0-19.507813 10.648437-37.4375 27.789062-46.800781l6.265625-3.421875v-192.972657c0-10.308593 8.390625-18.699218 18.699219-18.699218h1.0625c10.308594 0 18.699218 8.386718 18.699218 18.699218v192.972657l6.265626 3.421875c17.140624 9.363281 27.789062 27.292968 27.789062 46.800781.003906 29.378906-23.902344 53.285156-53.285156 53.285156zm0 0" fill="#ff624b"/><path d="m307.589844 420.34375c-3.316406 0-6-2.6875-6-6s2.683594-6 6-6c15.15625 0 27.488281-12.328125 27.488281-27.484375 0-3.316406 2.683594-6 6-6 3.3125 0 6 2.683594 6 6 0 21.769531-17.714844 39.484375-39.488281 39.484375zm0 0" fill="#ff9079"/><g fill="#ff4b34"><path d="m326.820312 270.25h-14.40625c-3.316406 0-6-2.6875-6-6s2.683594-6 6-6h14.40625c3.3125 0 6 2.6875 6 6s-2.683593 6-6 6zm0 0"/><path d="m336.613281 303.25h-24.199219c-3.316406 0-6-2.6875-6-6s2.683594-6 6-6h24.199219c3.316407 0 6 2.6875 6 6s-2.683593 6-6 6zm0 0"/><path d="m326.820312 171.25h-14.40625c-3.316406 0-6-2.6875-6-6s2.683594-6 6-6h14.40625c3.3125 0 6 2.6875 6 6s-2.683593 6-6 6zm0 0"/><path d="m326.820312 204.25h-14.40625c-3.316406 0-6-2.6875-6-6s2.683594-6 6-6h14.40625c3.3125 0 6 2.6875 6 6s-2.683593 6-6 6zm0 0"/><path d="m336.613281 237.25h-24.199219c-3.316406 0-6-2.6875-6-6s2.683594-6 6-6h24.199219c3.316407 0 6 2.6875 6 6s-2.683593 6-6 6zm0 0"/><path d="m280.707031 380.859375c0-19.507813 10.644531-37.4375 27.789063-46.800781l6.265625-3.425782v-192.96875c0-5.421874 2.332031-10.292968 6.03125-13.710937-3.335938-3.085937-7.78125-4.988281-12.667969-4.988281h-1.0625c-10.3125 0-18.699219 8.390625-18.699219 18.699218v192.96875l-6.265625 3.425782c-17.140625 9.363281-27.789062 27.296875-27.789062 46.800781 0 29.378906 23.902344 53.285156 53.285156 53.285156 4.554688 0 8.976562-.578125 13.199219-1.65625-23.019531-5.886719-40.085938-26.800781-40.085938-51.628906zm0 0"/></g></svg>