<svg height="479pt" viewBox="0 -27 479.76 479" width="479pt" xmlns="http://www.w3.org/2000/svg"><path d="m4.417969 425.394531h471.3125c2.226562 0 4.03125-1.800781 4.03125-4.027343v-18.496094c0-2.226563-1.804688-4.03125-4.03125-4.03125h-471.3125c-2.441407 0-4.417969 1.976562-4.417969 4.417968v17.722657c0 2.4375 1.976562 4.414062 4.417969 4.414062zm0 0" fill="#8c4c17"/><path d="m225.824219 148.132812h138.726562c5.164063 0 10.097657 2.316407 13.609375 6.398438l85.539063 99.339844c3.183593 3.699218 4.953125 8.558594 4.953125 13.601562v39.484375c0 8.285157-6.234375 15-13.925782 15h-273.269531v-173.824219zm0 0" fill="#ff624b"/><path d="m454.203125 321.957031h-272.746094v-34.765625h287.195313v20.316406c0 7.980469-6.46875 14.449219-14.449219 14.449219zm0 0" fill="#ffa730"/><path d="m296.324219 287.191406h-114.867188v34.765625h115.683594c.519531-4.710937.796875-9.492187.796875-14.339843-.003906-6.945313-.558594-13.769532-1.613281-20.425782zm0 0" fill="#e58d23"/><path d="m225.824219 148.132812h-44.367188v173.824219h85.195313v-173.824219zm0 0" fill="#ff4b34"/><path d="m46.699219 35.144531h195.925781v286.8125h-195.925781zm0 0" fill="#ff624b"/><path d="m46.703125 35.144531h61.757813v286.8125h-61.757813zm0 0" fill="#ff4b34"/><path d="m73.433594 154.53125v-88.128906c0-6.476563 5.25-11.726563 11.726562-11.726563h116.160156c6.476563 0 11.726563 5.25 11.726563 11.726563v88.125c0 6.476562-5.25 11.726562-11.726563 11.726562h-116.160156c-6.476562 0-11.726562-5.25-11.726562-11.722656zm0 0" fill="#fff4c1"/><path d="m108.457031 54.679688h-23.128906c-6.566406 0-11.894531 5.171874-11.894531 11.554687v88.464844c0 6.378906 5.328125 11.558593 11.894531 11.558593h23.128906zm0 0" fill="#fce575"/><path d="m248.371094 35.144531h-207.417969c-4.480469 0-8.113281-3.632812-8.113281-8.117187v-18.53125c0-4.480469 3.632812-8.117188 8.113281-8.117188h207.417969c4.480468 0 8.113281 3.636719 8.113281 8.117188v18.53125c0 4.484375-3.632813 8.117187-8.113281 8.117187zm0 0" fill="#ccc033"/><path d="m324.160156 85.40625h29.550782v62.726562h-29.550782zm0 0" fill="#ffc34c"/><path d="m381.164062 85.40625h-57.003906v-8.796875c0-9.941406 8.058594-18 18-18h39.003906c7.398438 0 13.398438 6 13.398438 13.398437 0 7.398438-6 13.398438-13.398438 13.398438zm0 0" fill="#ffc34c"/><path d="m437.484375 338.472656c0 33.601563-27.238281 60.839844-60.839844 60.839844-33.601562 0-60.839843-27.238281-60.839843-60.839844 0-33.601562 27.238281-60.839844 60.839843-60.839844 33.601563 0 60.839844 27.238282 60.839844 60.839844zm0 0" fill="#bf6c0d"/><path d="m407.0625 338.472656c0 16.800782-13.617188 30.417969-30.417969 30.417969s-30.421875-13.617187-30.421875-30.417969c0-16.800781 13.621094-30.421875 30.421875-30.421875s30.417969 13.621094 30.417969 30.421875zm0 0" fill="#ffc34c"/><path d="m220.132812 321.957031h-189.027343c-11.046875 0-20-8.953125-20-20v-66.03125c0-11.046875 8.953125-20 20-20h189.027343zm0 0" fill="#e58d23"/><path d="m138 177.683594c-35.753906 0-68.175781 14.515625-91.695312 37.960937v106.3125h220.835937c.519531-4.710937.796875-9.492187.796875-14.339843-.003906-71.644532-58.292969-129.933594-129.9375-129.933594zm0 0" fill="#ffa730"/><path d="m168.003906 181.1875c-9.636718-2.289062-19.679687-3.503906-30.003906-3.503906-35.753906 0-68.175781 14.515625-91.695312 37.960937v106.316407h60v-106.316407c16.730468-16.675781 37.964843-28.828125 61.699218-34.457031zm0 0" fill="#e58d23"/><path d="m229.695312 307.617188c0 50.640624-41.054687 91.695312-91.695312 91.695312s-91.695312-41.054688-91.695312-91.695312c0-50.640626 41.054687-91.691407 91.695312-91.691407s91.695312 41.050781 91.695312 91.691407zm0 0" fill="#bf6c0d"/><path d="m194.035156 307.617188c0 30.949218-25.089844 56.035156-56.035156 56.035156s-56.035156-25.085938-56.035156-56.035156c0-30.945313 25.089844-56.03125 56.035156-56.03125s56.035156 25.085937 56.035156 56.03125zm0 0" fill="#ffc34c"/><path d="m342.160156 76.613281c0-9.941406 8.058594-18 18-18h-18c-9.941406 0-18 8.058594-18 18v71.519531h18zm0 0" fill="#f9bb32"/><path d="m94.597656 27.144531v-18.765625c0-4.417968 3.683594-8 8.230469-8h-61.757813c-4.546874 0-8.230468 3.582032-8.230468 8v18.765625c0 4.417969 3.683594 8 8.230468 8h61.757813c-4.546875 0-8.230469-3.582031-8.230469-8zm0 0" fill="#99af17"/><path d="m364.226562 338.472656c0-13.644531 9.027344-25.214844 21.417969-29.0625-2.84375-.878906-5.867187-1.359375-9-1.359375-16.773437 0-30.417969 13.648438-30.417969 30.421875 0 16.769532 13.644532 30.417969 30.417969 30.417969 3.132813 0 6.15625-.476563 9-1.359375-12.390625-3.84375-21.417969-15.417969-21.417969-29.058594zm0 0" fill="#db9c2e"/><path d="m99.964844 307.617188c0-27.832032 20.402344-50.980469 47.03125-55.300782-2.929688-.476562-5.933594-.730468-9-.730468-30.894532 0-56.03125 25.136718-56.03125 56.03125 0 30.898437 25.136718 56.035156 56.03125 56.035156 3.066406 0 6.070312-.257813 9-.730469-26.628906-4.320313-47.03125-27.46875-47.03125-55.304687zm0 0" fill="#db9c2e"/><path d="m345.804688 338.472656c0-28.425781 19.496093-52.289062 45.839843-58.972656-4.796875-1.214844-9.820312-1.867188-15-1.867188-33.597656 0-60.839843 27.238282-60.839843 60.839844 0 33.601563 27.238281 60.835938 60.839843 60.835938 5.179688 0 10.203125-.648438 15-1.867188-26.34375-6.679687-45.839843-30.546875-45.839843-58.96875zm0 0" fill="#a56021"/><path d="m76.304688 307.617188c0-45.53125 33.1875-83.304688 76.695312-90.464844-4.882812-.800782-9.890625-1.226563-15-1.226563-50.640625 0-91.695312 41.050781-91.695312 91.691407 0 50.644531 41.054687 91.695312 91.695312 91.695312 5.109375 0 10.117188-.425781 15-1.226562-43.503906-7.164063-76.695312-44.9375-76.695312-90.46875zm0 0" fill="#a56021"/><path d="m430.96875 242.761719c-1.6875 0-3.363281-.707031-4.546875-2.082031l-46.289063-53.753907c-2.160156-2.511719-1.875-6.300781.632813-8.464843 2.511719-2.160157 6.292969-1.878907 8.460937.632812l46.285157 53.753906c2.164062 2.511719 1.878906 6.300782-.632813 8.460938-1.132812.976562-2.523437 1.453125-3.910156 1.453125zm0 0" fill="#ff9079"/><path d="m194.519531 154.132812c-3.3125 0-6-2.6875-6-6v-72.621093c0-3.3125 2.6875-6 6-6 3.316407 0 6 2.6875 6 6v72.621093c0 3.3125-2.683593 6-6 6zm0 0" fill="#fcf9de"/><path d="m150.484375 81.011719c0 9.664062-7.832031 17.5-17.5 17.5-9.664063 0-17.5-7.835938-17.5-17.5 0-9.667969 7.835937-17.5 17.5-17.5 9.667969 0 17.5 7.832031 17.5 17.5zm0 0" fill="#fce575"/><path d="m310.652344 259.941406c0 9.664063-7.832032 17.5-17.5 17.5-9.664063 0-17.5-7.835937-17.5-17.5 0-9.664062 7.835937-17.5 17.5-17.5 9.667968 0 17.5 7.835938 17.5 17.5zm0 0" fill="#ff4b34"/></svg>