<svg height="472pt" viewBox="0 -11 472.8659 472" width="472pt" xmlns="http://www.w3.org/2000/svg"><path d="m470.039062 31.867188-265.609374 265.613281-30.265626-30.265625 265.609376-265.609375c1.5625-1.5625002 4.09375-1.5625002 5.65625 0l24.609374 24.605469c1.5625 1.5625 1.5625 4.09375 0 5.65625zm0 0" fill="#a56021"/><path d="m207.476562 267.214844 251.785157-251.78125-13.828125-13.828125c-1.5625-1.5625002-4.09375-1.5625002-5.65625 0l-265.613282 265.609375 30.265626 30.265625 16.652343-16.65625zm0 0" fill="#8c4c17"/><path d="m381.292969 375.300781-35.847657-64.558593c-4.984374-8.976563-14.445312-14.546876-24.710937-14.546876h-132.929687v56.527344h103.820312c7.699219 0 14.792969 4.179688 18.53125 10.910156l15.675781 28.230469v8.910157h56.527344v-21.355469c0-1.441407-.367187-2.859375-1.066406-4.117188zm0 0" fill="#ffa730"/><path d="m364.359375 388.773438c-3.0625 0-5.589844-2.289063-5.957031-5.253907l-33.9375-61.128906c-.75-1.351563-2.179688-2.191406-3.730469-2.191406-3.3125 0-6-2.6875-6-6 0-3.316407 2.6875-6 6-6 5.90625 0 11.355469 3.207031 14.222656 8.371093l34.648438 62.402344c.496093.890625.753906 1.894532.753906 2.914063v.890625c0 3.308594-2.6875 5.996094-6 5.996094zm0 0" fill="#ffb74b"/><path d="m262.527344 296.195312h-74.722656v56.527344h103.816406c7.699218 0 14.796875 4.179688 18.535156 10.910156l15.554688 28.015626c-.605469-42.648438-26.402344-79.203126-63.183594-95.453126zm0 0" fill="#e58d23"/><path d="m190.679688 280.527344h-62.277344v-24.785156c0-15.972657 12.945312-28.917969 28.914062-28.917969h4.449219c15.96875 0 28.914063 12.945312 28.914063 28.917969zm0 0" fill="#f9bb32"/><path d="m176.9375 231.402344c-4.96875-2.890625-10.953125-4.578125-17.398438-4.578125-17.195312 0-31.136718 12.023437-31.136718 26.851562v26.851563h34.789062v-26.851563c0-9.273437 5.453125-17.449219 13.746094-22.273437zm0 0" fill="#db9c2e"/><path d="m220.074219 338.46875h-121.066407v-50.875c0-18.734375 15.1875-33.917969 33.917969-33.917969h53.230469c18.734375 0 33.917969 15.183594 33.917969 33.917969zm0 0" fill="#ff9079"/><path d="m189.542969 253.84375c-1.113281-.109375-2.242188-.167969-3.386719-.167969h-53.230469c-18.730469 0-33.917969 15.1875-33.917969 33.917969v50.875h60v-50.875c0-17.589844 13.390626-32.050781 30.535157-33.75zm0 0" fill="#ff624b"/><path d="m272.597656 428.519531h-226.113281c-7.804687 0-14.132813-6.328125-14.132813-14.132812v-21.199219c0-58.535156 47.453126-105.992188 105.992188-105.992188h42.394531c58.539063 0 105.992188 47.457032 105.992188 105.992188v21.199219c0 7.804687-6.328125 14.132812-14.132813 14.132812zm0 0" fill="#ff624b"/><path d="m268.730469 399.1875c-3.316407 0-6-2.6875-6-6 0-45.210938-36.78125-81.992188-81.992188-81.992188-3.3125 0-6-2.6875-6-6 0-3.316406 2.6875-6 6-6 51.828125 0 93.992188 42.164063 93.992188 93.992188 0 3.3125-2.6875 6-6 6zm0 0" fill="#ff9079"/><path d="m387.191406 337.335938s27.648438-32.582032 70.515625-18.445313c1.949219.644531 1.769531 3.476563-.246093 3.863281-13.441407 2.585938-41.152344 10.820313-49.386719 35.46875zm0 0" fill="#99af17"/><path d="m401.40625 395.246094s26.609375-19.15625 56.304688-1.617188c1.792968 1.058594 1.007812 3.800782-1.074219 3.734375-11.34375-.375-32.632813 1.351563-43.152344 17.925781zm0 0" fill="#ccc033"/><path d="m468.867188 449.738281h-389.382813v-26.558593h389.382813c2.207031 0 4 1.789062 4 4v18.558593c0 2.207031-1.792969 4-4 4zm0 0" fill="#99af17"/><path d="m435.019531 350.273438s24.910157.976562 35.320313 24.925781c.820312 1.890625-1.464844 3.636719-3.078125 2.355469-7.261719-5.769532-20.640625-13.796876-34.480469-8.867188zm0 0" fill="#eacf32"/><path d="m92.351562 414.386719v-21.199219c0-55.570312 42.769532-101.148438 97.191407-105.625-2.902344-.238281-5.839844-.367188-8.804688-.367188h-42.394531c-58.539062 0-105.992188 47.457032-105.992188 105.992188v21.199219c0 7.804687 6.328126 14.132812 14.128907 14.132812h60c-7.800781 0-14.128907-6.328125-14.128907-14.132812zm0 0" fill="#ff4b34"/><g fill="#ccc033"><path d="m98.167969 449.734375s-5.363281-65.535156 58.007812-94.957031c1.863281-.863282 3.683594 1.300781 2.484375 2.972656-10.679687 14.929688-34.992187 55.277344-16.667968 91.984375zm0 0"/><path d="m71.613281 449.734375s-5.394531-83.730469 58.5-120.984375c1.773438-1.039062 3.785157.921875 2.761719 2.707031-10.214844 17.777344-36.21875 70.460938-17.441406 118.28125h-43.820313zm0 0"/><path d="m60.875 449.734375s5.363281-65.535156-58.003906-94.957031c-1.863282-.863282-3.683594 1.300781-2.488282 2.972656 10.679688 14.929688 34.992188 55.277344 16.671876 91.984375zm0 0"/><path d="m87.433594 449.734375s5.390625-83.730469-58.5-120.984375c-1.777344-1.039062-3.789063.921875-2.765625 2.707031 10.214843 17.777344 36.222656 70.460938 17.445312 118.28125h43.820313zm0 0"/></g><path d="m57.875 449.734375 13.152344-117.171875c.257812-2.300781 3.566406-2.398438 3.957031-.117188l20.183594 117.289063zm0 0" fill="#eacf32"/><path d="m20.070312 364.726562c-5.082031-3.613281-10.785156-6.960937-17.195312-9.941406-1.867188-.867187-3.6875 1.289063-2.492188 2.964844 10.679688 14.929688 34.996094 55.277344 16.671876 91.988281h15c15.964843-31.980469-.433594-66.71875-11.984376-85.011719zm0 0" fill="#99af17"/><path d="m46.628906 341.683594c-5.222656-4.71875-11.097656-9.085938-17.722656-12.949219-1.757812-1.027344-3.746094.957031-2.730469 2.722656 10.214844 17.785157 36.214844 70.460938 17.4375 118.277344h15c15.960938-40.648437-.429687-84.800781-11.984375-108.050781zm0 0" fill="#99af17"/><path d="m190.667969 395.972656c0 9.664063-7.832031 17.5-17.5 17.5-9.664063 0-17.5-7.835937-17.5-17.5 0-9.664062 7.835937-17.5 17.5-17.5 9.667969 0 17.5 7.835938 17.5 17.5zm0 0" fill="#ff4b34"/></svg>