<svg height="480pt" viewBox="-40 0 480 480" width="480pt" xmlns="http://www.w3.org/2000/svg"><path d="m279.488281 149.503906-.933593-9.292968v-.171876c0-1.125-.125-2.238281-.351563-3.328124l-.007813-.085938-.007812.011719c-.574219-2.722657-1.816406-5.273438-3.65625-7.398438l-70.402344-81.160156c-1.042968-1.203125-2.554687-1.890625-4.140625-1.890625-1.585937 0-3.09375.6875-4.136719 1.890625l-70.402343 81.160156c-2.59375 2.992188-4.023438 6.832031-4.023438 10.800781v3.667969l-34.371093 336.292969h226.210937zm0 0" fill="#ffa730"/><path d="m278.410156 322.089844c-3.039062 0-5.640625-2.300782-5.957031-5.390625l-8.796875-86.066407c-.335938-3.292968 2.0625-6.242187 5.363281-6.578124 3.28125-.332032 6.242188 2.0625 6.578125 5.355468l8.792969 86.066406c.335937 3.296876-2.0625 6.242188-5.359375 6.578126-.210938.023437-.414062.035156-.621094.035156zm0 0" fill="#ffb74b"/><path d="m188.320312 140.039062c0-3.972656 1.429688-7.808593 4.027344-10.800781l41.089844-47.367187-29.308594-33.792969c-1.042968-1.199219-2.554687-1.890625-4.140625-1.890625-1.585937 0-3.09375.6875-4.136719 1.890625l-70.402343 81.160156c-2.59375 2.992188-4.023438 6.832031-4.023438 10.800781v3.667969l-34.371093 336.292969h66.898437l34.367187-336.289062zm0 0" fill="#e58d23"/><path d="m315.765625 480h-231.210937c-5.425782 0-9.828126-4.398438-9.828126-9.828125v-127.554687c0-5.429688 4.402344-9.828126 9.828126-9.828126h231.210937c5.425781 0 9.828125 4.398438 9.828125 9.828126v127.554687c0 5.429687-4.402344 9.828125-9.828125 9.828125zm0 0" fill="#ffc34c"/><path d="m244.640625 480h-88.957031v-67.421875c0-10.855469 8.796875-19.65625 19.65625-19.65625h49.644531c10.859375 0 19.65625 8.800781 19.65625 19.65625zm0 0" fill="#e58d23"/><path d="m170.378906 425.777344c0-10.886719 8.777344-19.714844 19.597656-19.714844h49.761719c1.339844 0 2.644531.140625 3.90625.394531-2.578125-7.855469-9.925781-13.535156-18.601562-13.535156h-49.761719c-10.824219 0-19.597656 8.824219-19.597656 19.714844v67.363281h14.695312zm0 0" fill="#bf6c0d"/><path d="m177.207031 272.65625c-1.386719 6.539062-1.484375 13.183594-.285156 19.753906l13.910156 76.398438c.332031 1.820312 1.183594 3.449218 2.386719 4.761718-1.910156 2.074219-4.722656 3.394532-7.855469 3.394532h-7.320312c-5.089844 0-9.40625-3.429688-10.265625-8.15625l-13.910156-76.398438c-1.195313-6.570312-1.101563-13.214844.28125-19.753906l14.355468-67.710938 3.6875-16.683593h23.054688l-3.6875 16.683593zm0 0" fill="#e58d23"/><path d="m184.273438 332.789062 6.558593 36.015626c.328125 1.824218 1.183594 3.453124 2.386719 4.765624-1.910156 2.074219-4.722656 3.394532-7.855469 3.394532h-7.320312c-5.089844 0-9.40625-3.433594-10.265625-8.160156l-6.558594-36.015626zm0 0" fill="#ffb74b"/><path d="m167.199219 365.644531-5.980469-33.796875h23.054688l5.984374 33.796875zm0 0" fill="#ffa730"/><path d="m208.257812 188.707031 3.6875-16.6875 14.351563-67.710937c1.386719-6.535156 1.480469-13.183594.28125-19.753906l-13.90625-76.398438c-.863281-4.722656-5.179687-8.15625-10.269531-8.15625h-7.316406c-5.742188 0-10.414063 4.40625-10.414063 9.820312v178.886719zm0 0" fill="#fff4c1"/><path d="m203.238281 104.304688c1.386719-6.535157 1.484375-13.179688.285157-19.75l-13.910157-76.398438c-.332031-1.820312-1.179687-3.449219-2.386719-4.765625 1.910157-2.070313 4.722657-3.390625 7.859376-3.390625h7.320312c5.085938 0 9.40625 3.433594 10.265625 8.15625l13.910156 76.398438c1.195313 6.570312 1.101563 13.214843-.285156 19.753906l-14.351563 67.710937-3.6875 16.6875h-23.058593l3.6875-16.6875zm0 0" fill="#fce575"/><path d="m200.160156 177.65625-17.699218-3.476562-71.824219-13.53125c-6.929688-1.304688-13.980469-1.394532-20.949219-.269532l-81.035156 13.113282c-5.011719.8125-8.652344 4.882812-8.652344 9.679687v6.898437c0 5.414063 4.671875 9.820313 10.414062 9.820313h189.746094zm0 0" fill="#fff4c1"/><path d="m110.636719 182.382812c-6.933594-1.304687-13.980469-1.394531-20.949219-.265624l-81.035156 13.113281c-1.933594.3125-3.65625 1.113281-5.050782 2.25-2.203124-1.800781-3.601562-4.453125-3.601562-7.410157v-6.898437c0-4.796875 3.640625-8.867187 8.652344-9.679687l81.035156-13.113282c6.96875-1.125 14.015625-1.035156 20.949219.269532l71.824219 13.53125 17.699218 3.476562v21.734375l-17.699218-3.476563zm0 0" fill="#fce575"/><path d="m185.257812 188.261719-3.691406 16.683593-14.351562 67.710938c-1.386719 6.539062-1.480469 13.183594-.28125 19.753906l13.910156 76.398438c.859375 4.726562 5.175781 8.15625 10.265625 8.15625h7.316406c5.746094 0 10.417969-4.40625 10.417969-9.820313v-178.882812zm0 0" fill="#fff4c1"/><path d="m190.273438 272.65625c-1.386719 6.539062-1.484376 13.183594-.285157 19.753906l13.910157 76.398438c.332031 1.820312 1.179687 3.449218 2.386718 4.761718-1.910156 2.074219-4.722656 3.394532-7.855468 3.394532h-7.320313c-5.089844 0-9.40625-3.429688-10.265625-8.15625l-13.910156-76.398438c-1.199219-6.570312-1.101563-13.214844.28125-19.753906l14.351562-67.710938 3.691406-16.683593h23.054688l-3.6875 16.683593zm0 0" fill="#fce575"/><path d="m199.839844 199.308594 17.699218 3.480468 71.824219 13.527344c6.929688 1.308594 13.980469 1.398438 20.949219.269532l81.035156-13.113282c5.011719-.8125 8.652344-4.882812 8.652344-9.679687v-6.898438c0-5.414062-4.671875-9.820312-10.414062-9.820312h-189.746094zm0 0" fill="#fff4c1"/><path d="m289.363281 194.582031c6.933594 1.304688 13.980469 1.394531 20.949219.269531l81.035156-13.117187c1.933594-.308594 3.65625-1.113281 5.050782-2.25 2.203124 1.804687 3.601562 4.453125 3.601562 7.410156v6.898438c0 4.800781-3.640625 8.867187-8.652344 9.679687l-81.035156 13.113282c-6.96875 1.128906-14.015625 1.039062-20.949219-.269532l-71.824219-13.527344-17.699218-3.480468v-21.734375l17.699218 3.476562zm0 0" fill="#fce575"/><path d="m222.46875 188.707031c0-12.574219-10.128906-22.765625-22.628906-22.765625s-22.628906 10.191406-22.628906 22.765625c0 12.570313 10.128906 22.761719 22.628906 22.761719s22.628906-10.191406 22.628906-22.761719zm0 0" fill="#bf6c0d"/><path d="m135.542969 470.144531v-127.5c0-5.441406 4.390625-9.855469 9.800781-9.855469h-60.816406c-5.414063 0-9.800782 4.414063-9.800782 9.855469v127.5c0 5.445313 4.390626 9.855469 9.800782 9.855469h60.816406c-5.414062 0-9.800781-4.414062-9.800781-9.855469zm0 0" fill="#f9bb32"/><path d="m261.144531 306.925781c0 9.664063-7.835937 17.5-17.5 17.5-9.664062 0-17.5-7.835937-17.5-17.5 0-9.667969 7.835938-17.5 17.5-17.5 9.664063 0 17.5 7.832031 17.5 17.5zm0 0" fill="#e58d23"/><path d="m313.851562 453.328125c0 9.664063-7.835937 17.5-17.5 17.5-9.667968 0-17.5-7.835937-17.5-17.5s7.832032-17.5 17.5-17.5c9.664063 0 17.5 7.835937 17.5 17.5zm0 0" fill="#f9bb32"/></svg>