<svg height="512" viewBox="0 0 58 59" width="512" xmlns="http://www.w3.org/2000/svg"><g id="026---Analytics" fill="none"><path id="Shape" d="m40 58h-22l3-10 8-2 8 2z" fill="#95a5a5"/><path id="Shape" d="m43 59h-28c-.5522847 0-1-.4477153-1-1s.4477153-1 1-1h28c.5522847 0 1 .4477153 1 1s-.4477153 1-1 1z" fill="#bdc3c7"/><path id="Shape" d="m56.38 5c-9.38.36-56.38 3.6-56.38 36v-34c0-1.1045695.8954305-2 2-2h54c.1262054-.01528754.2537946-.01528754.38 0z" fill="#67b9cc"/><path id="Shape" d="m58 7 .000335 36h-58.000335v-2c0-32.4 47-35.64 56.38-36 .9542164.18449825 1.6376728 1.02827152 1.62 2z" fill="#2fa8cc"/><path id="Shape" d="m58 41v5c0 1.1045695-.8954305 2-2 2h-54c-1.1045695 0-2-.8954305-2-2v-5z" fill="#bdc3c7"/><path id="Shape" d="m32 14c.0000153 5.4594579-3.1736075 10.4209273-8.13 12.71l-5.87-12.71z" fill="#4fba6f"/><path id="Shape" d="m23.87 26.71c-6.339111 2.9244456-13.863975.7318265-17.64-5.14l11.77-7.57z" fill="#955ba5"/><path id="Shape" d="m18 0v14l-11.77 7.57c-2.76842294-4.3069217-2.96498384-9.7815568-.51256187-14.27592737 2.45242196-4.49437058 7.16262687-7.29155388 12.28256187-7.29407263z" fill="#e64c3c"/><path id="Shape" d="m32 14h-14v-14c3.7130309 0 7.2739856 1.47499577 9.8994949 4.10050506 2.6255093 2.6255093 4.1005051 6.18646404 4.1005051 9.89949494z" fill="#f3d55b"/><path id="Shape" d="m42 31v4c0 1.1-2.69 2-6 2s-6-.9-6-2v-4c0 1.1 2.69 2 6 2s6-.9 6-2z" fill="#f0c419"/><path id="Shape" d="m42 27v4c0 1.1-2.69 2-6 2s-6-.9-6-2v-4c0 1.1 2.69 2 6 2s6-.9 6-2z" fill="#f3d55b"/><ellipse id="Oval" cx="48" cy="15" fill="#f0c419" rx="6" ry="2"/><path id="Shape" d="m54 31v4c0 1.1-2.69 2-6 2s-6-.9-6-2v-4c0 1.1 2.69 2 6 2s6-.9 6-2z" fill="#f3d55b"/><path id="Shape" d="m54 27v4c0 1.1-2.69 2-6 2s-6-.9-6-2v-4c0 1.1 2.69 2 6 2s6-.9 6-2z" fill="#f0c419"/><ellipse id="Oval" cx="36" cy="27" fill="#f0c419" rx="6" ry="2"/><path id="Shape" d="m54 23v4c0 1.1-2.69 2-6 2s-6-.9-6-2v-4c0 1.1 2.69 2 6 2s6-.9 6-2z" fill="#f3d55b"/><path id="Shape" d="m54 19v4c0 1.1-2.69 2-6 2s-6-.9-6-2v-4c0 1.1 2.69 2 6 2s6-.9 6-2z" fill="#f0c419"/><path id="Shape" d="m54 15v4c0 1.1-2.69 2-6 2s-6-.9-6-2v-4c0 1.1 2.69 2 6 2s6-.9 6-2z" fill="#f3d55b"/><g fill="#9fc9d3"><path id="Shape" d="m26 37h-7c-.5522847 0-1-.4477153-1-1s.4477153-1 1-1h7c.5522847 0 1 .4477153 1 1s-.4477153 1-1 1z"/><path id="Shape" d="m13 37h-8c-.55228475 0-1-.4477153-1-1s.44771525-1 1-1h8c.5522847 0 1 .4477153 1 1s-.4477153 1-1 1z"/><path id="Shape" d="m26 33h-21c-.55228475 0-1-.4477153-1-1s.44771525-1 1-1h21c.5522847 0 1 .4477153 1 1s-.4477153 1-1 1z"/></g></g></svg>