<svg height="512" viewBox="0 0 58 58" width="512" xmlns="http://www.w3.org/2000/svg"><g id="056---Law" fill="none"><path id="Shape" d="m33.56 7h18.44c2.209139 0 4 1.790861 4 4v39h-54v-39c0-2.209139 1.790861-4 4-4h12.07" fill="#547580"/><path id="Shape" d="m51.2 11c-6.05.2-44.48 2.53-45.2 32.16-.01050749-.0528158-.01050749-.1071842 0-.16v-31c0-.5522847.44771525-1 1-1h44z" fill="#67b9cc"/><path id="Shape" d="m52 12v31c0 .5522847-.4477153 1-1 1h-44c-.2430724-.0003498-.47769576-.0892223-.66-.25-.17111388-.1406225-.29070168-.3340733-.34-.55.72-29.67 39.15-32 45.2-32.2.1692248.0395977.326787.1183788.46.23.2210959.1941467.3454678.4758122.34.77z" fill="#2fa8cc"/><path id="Shape" d="m29.35 21.18-2.83-2.83.48-2.48 2.35-.35 2.83 2.83-.41 1.92z" fill="#805333"/><path id="Shape" d="m47.41 33.59-2.82 2.82c-.3751365.3755541-.8841815.5865733-1.415.5865733s-1.0398635-.2110192-1.415-.5865733l-10.29-10.28 2-3.46 3.71-2.2 10.23 10.29c.3755541.3751365.5865733.8841815.5865733 1.415s-.2110192 1.0398635-.5865733 1.415z" fill="#a56a43"/><path id="Shape" d="m28 33-9 2-9-2c0-2.209139 1.790861-4 4-4h10c2.209139 0 4 1.790861 4 4z" fill="#a56a43"/><path id="Shape" d="m28 33v3c0 .5522847-.4477153 1-1 1h-16c-.5522847 0-1-.4477153-1-1v-3z" fill="#805333"/><path id="Shape" d="m52 58h-46c-3.3137085 0-6-2.6862915-6-6v-3c0-.5522847.44771525-1 1-1h56c.5522847 0 1 .4477153 1 1v3c0 3.3137085-2.6862915 6-6 6z" fill="#3f5c6c"/><path id="Shape" d="m19 48h20v2c0 1.6568542-1.3431458 3-3 3h-14c-1.6568542 0-3-1.3431458-3-3z" fill="#35495e"/><path id="Shape" d="m5 53c-.55228475 0-1-.4477153-1-1s.44771525-1 1-1 1 .4477153 1 1-.44771525 1-1 1z" fill="#4fba6f"/><path id="Shape" d="m8 53c-.55228475 0-1-.4477153-1-1s.44771525-1 1-1 1 .4477153 1 1-.44771525 1-1 1z" fill="#e64c3c"/><path id="Shape" d="m14 53h-3c-.5522847 0-1-.4477153-1-1s.4477153-1 1-1h3c.5522847 0 1 .4477153 1 1s-.4477153 1-1 1z" fill="#35495e"/><path id="Shape" d="m23.69 21.18-2.12 2.12c-.3751365.3755541-.8841815.5865733-1.415.5865733s-1.0398635-.2110192-1.415-.5865733l-7.07-7.07c-.3755541-.3751365-.5865733-.8841815-.5865733-1.415s.2110192-1.0398635.5865733-1.415l2.13-2.12 4.65 2.66 2.83 2.83z" fill="#805333"/><path id="Shape" d="m34.3 10.57-2.12 2.12-6.18-4.15-3.72-5.74 2.12-2.13c.3751365-.37555409.8841815-.58657331 1.415-.58657331s1.0398635.21101922 1.415.58657331l7.07 7.07c.3755541.37513651.5865733.8841815.5865733 1.415s-.2110192 1.0398635-.5865733 1.415z" fill="#805333"/><path id="Shape" d="m32.18 12.69-8.49 8.49-1.41-1.41-2.83-2.83-5.65-5.66 8.48-8.48 4.24 4.24z" fill="#a56a43"/><path id="Shape" d="m37.13 20.47-5.66 5.66-2.12-2.13c-.3755541-.3751365-.5865733-.8841815-.5865733-1.415s.2110192-1.0398635.5865733-1.415l2.83-2.83c.3751365-.3755541.8841815-.5865733 1.415-.5865733s1.0398635.2110192 1.415.5865733z" fill="#f0c419"/></g></svg>