<svg height="512" viewBox="0 0 58 58" width="512" xmlns="http://www.w3.org/2000/svg"><g id="005---Dollar" fill="none"><rect id="Rectangle-path" fill="#24ae5f" height="58" rx="8" width="58"/><path id="Shape" d="m47.83 0h-37.66c-3.96 0-7.17 3.58-7.17 8v42c0 4.42 3.21 8 7.17 8h37.66c4 0 7.17-3.58 7.17-8v-42c0-4.42-3.21-8-7.17-8z" fill="#4fba6f"/><g fill="#fff"><path id="Shape" d="m31 26.17v-10.85c2.315973.6759507 3.9317374 2.7683656 4 5.18 0 1.6568542 1.3431458 3 3 3s3-1.3431458 3-3c-.1037383-5.7179873-4.3391899-10.51675392-10-11.33v-1.17c0-1.1045695-.8954305-2-2-2s-2 .8954305-2 2v1.17c-5.6608101.81324608-9.8962617 5.6120127-10 11.33.1037383 5.7179873 4.3391899 10.5167539 10 11.33v10.85c-2.315973-.6759507-3.9317374-2.7683656-4-5.18 0-1.6568542-1.3431458-2.9999999-3-2.9999999s-3 1.3431457-3 2.9999999c.1037383 5.7179873 4.3391899 10.5167539 10 11.33v1.17c0 1.1045695.8954305 2 2 2s2-.8954305 2-2v-1.17c5.6608101-.8132461 9.8962617-5.6120127 10-11.33-.1037383-5.7179873-4.3391899-10.5167539-10-11.33zm-8-5.67c.0682626-2.4116344 1.684027-4.5040493 4-5.18v10.36c-2.315973-.6759507-3.9317374-2.7683656-4-5.18zm8 22.18v-10.36c2.361905.6100583 4.0120538 2.7405808 4.0120538 5.18s-1.6501488 4.5699417-4.0120538 5.18z"/><path id="Shape" d="m4 19c-.55228475 0-1-.4477153-1-1v-11c0-.55228475.44771525-1 1-1s1 .44771525 1 1v11c0 .5522847-.44771525 1-1 1z"/><path id="Shape" d="m4 28c-.55228475 0-1-.4477153-1-1v-4c0-.5522847.44771525-1 1-1s1 .4477153 1 1v4c0 .5522847-.44771525 1-1 1z"/><path id="Shape" d="m54 51c-.5522847 0-1-.4477153-1-1v-11c0-.5522847.4477153-1 1-1s1 .4477153 1 1v11c0 .5522847-.4477153 1-1 1z"/><path id="Shape" d="m54 35c-.5522847 0-1-.4477153-1-1v-4c0-.5522847.4477153-1 1-1s1 .4477153 1 1v4c0 .5522847-.4477153 1-1 1z"/></g></g></svg>