<svg height="512" viewBox="0 0 58 58" width="512" xmlns="http://www.w3.org/2000/svg"><g id="008---Money-Increase" fill="none"><rect id="Rectangle-path" fill="#e64c3c" height="7" rx=".5" width="10" x="8" y="17"/><rect id="Rectangle-path" fill="#e64c3c" height="11" rx=".5" width="10" x="24" y="13"/><path id="Shape" d="m44.63.42-6.89 7.75c-.1289507.14675739-.1606165.35517644-.0810734.53361103s.2557244.29419889.4510734.29638897h1.39c.2761424 0 .5.22385763.5.5v14c0 .2761424.2238576.5.5.5h9c.2761424 0 .5-.2238576.5-.5v-14c0-.27614237.2238576-.5.5-.5h1.39c.195349-.00219008.3715303-.11795438.4510734-.29638897s.0478773-.38685364-.0810734-.53361103l-6.89-7.75c-.0947622-.10425712-.229112-.16369657-.37-.16369657s-.2752378.05943945-.37.16369657z" fill="#e64c3c"/><rect id="Rectangle-path" fill="#24ae5f" height="30" rx="2" width="58" y="28"/><path id="Shape" d="m49 55h-40c-.55228475 0-1-.4477153-1-1 0-2.209139-1.790861-4-4-4-.55228475 0-1-.4477153-1-1v-12c0-.5522847.44771525-1 1-1 2.209139 0 4-1.790861 4-4 0-.5522847.44771525-1 1-1h40c.5522847 0 1 .4477153 1 1 0 2.209139 1.790861 4 4 4 .5522847 0 1 .4477153 1 1v12c0 .5522847-.4477153 1-1 1-2.209139 0-4 1.790861-4 4 0 .5522847-.4477153 1-1 1zm-39.08-2h38.16c.4245846-2.520571 2.399429-4.4954154 4.92-4.92v-10.16c-2.520571-.4245846-4.4954154-2.399429-4.92-4.92h-38.16c-.42458456 2.520571-2.399429 4.4954154-4.92 4.92v10.16c2.520571.4245846 4.49541544 2.399429 4.92 4.92z" fill="#7ed09e"/><circle id="Oval" cx="29" cy="43" fill="#7ed09e" r="11"/><g fill="#4c8056"><path id="Shape" d="m29 44c-2.209139 0-4-1.790861-4-4s1.790861-4 4-4 4 1.790861 4 4c0 .5522847-.4477153 1-1 1s-1-.4477153-1-1c0-1.1045695-.8954305-2-2-2s-2 .8954305-2 2 .8954305 2 2 2c.5522847 0 1 .4477153 1 1s-.4477153 1-1 1z"/><path id="Shape" d="m29 50c-2.209139 0-4-1.790861-4-4 0-.5522847.4477153-1 1-1s1 .4477153 1 1c0 1.1045695.8954305 2 2 2s2-.8954305 2-2-.8954305-2-2-2c-.5522847 0-1-.4477153-1-1s.4477153-1 1-1c2.209139 0 4 1.790861 4 4s-1.790861 4-4 4z"/><path id="Shape" d="m29 38c-.5522847 0-1-.4477153-1-1v-2c0-.5522847.4477153-1 1-1s1 .4477153 1 1v2c0 .5522847-.4477153 1-1 1z"/><path id="Shape" d="m29 52c-.5522847 0-1-.4477153-1-1v-2c0-.5522847.4477153-1 1-1s1 .4477153 1 1v2c0 .5522847-.4477153 1-1 1z"/></g></g></svg>