<svg height="512" viewBox="0 0 59 59" width="512" xmlns="http://www.w3.org/2000/svg"><g id="092---Limited-Sale" fill="none"><path id="Shape" d="m26 43h31c1.1045695 0 2-.8954305 2-2v-20c0-1.1045695-.8954305-2-2-2h-22z" fill="#4c8056"/><path id="Shape" d="m26 39h29v-16h-20.74z" fill="#24ae5f"/><path id="Shape" d="m13 51h36c1.1045695 0 2-.8954305 2-2v-20c0-1.1045695-.8954305-2-2-2h-16.58z" fill="#4fba6f"/><path id="Shape" d="m3 47h44v-16h-18.05z" fill="#71c285"/><path id="Shape" d="m26.69 3.39c-9 2.17-21.14 7.72-24 21.92-2.50569329-5.2609212-2.14222522-11.4386424.96310074-16.36943758 3.10532597-4.93079518 8.51975416-7.92751274 14.34689926-7.94056242 3.0598765-.00665794 6.0638793.81952924 8.69 2.39z" fill="#67b9cc"/><path id="Shape" d="m35 18c-.0054436 7.0705815-4.386791 13.3996012-11.0027891 15.8939392-6.615998 2.494338-14.0851821.6331598-18.7572109-4.6739392-1.04180082-1.1759028-1.91361731-2.4920427-2.59-3.91 2.9-14.2 15-19.75 24-21.92 1.6644072.98107617 3.1518444 2.23525618 4.4 3.71 2.5531934 3.0582528 3.9512094 6.9160691 3.95 10.9z" fill="#2fa8cc"/><rect id="Rectangle-path" fill="#24ae5f" height="24" rx="2" width="42" x="1" y="35"/><path id="Shape" d="m39 51v-8c-2.209139 0-4-1.790861-4-4h-26c0 2.209139-1.790861 4-4 4v8c2.209139 0 4 1.790861 4 4h26c0-2.209139 1.790861-4 4-4z" fill="#7ed09e"/><path id="Shape" d="m22 48c-1.2133867 0-2.3072956-.7309265-2.7716386-1.8519497s-.2076757-2.4113767.6503183-3.2693706c.8579939-.857994 2.1483474-1.1146613 3.2693706-.6503183s1.8519497 1.5582519 1.8519497 2.7716386c0 .5522847-.4477153 1-1 1s-1-.4477153-1-1-.4477153-1-1-1-1 .4477153-1 1 .4477153 1 1 1 1 .4477153 1 1-.4477153 1-1 1z" fill="#4c8056"/><path id="Shape" d="m22 52c-1.6568542 0-3-1.3431458-3-3 0-.5522847.4477153-1 1-1s1 .4477153 1 1 .4477153 1 1 1 1-.4477153 1-1-.4477153-1-1-1-1-.4477153-1-1 .4477153-1 1-1c1.6568542 0 3 1.3431458 3 3s-1.3431458 3-3 3z" fill="#4c8056"/><path id="Shape" d="m22 44c-.5522847 0-1-.4477153-1-1v-1c0-.5522847.4477153-1 1-1s1 .4477153 1 1v1c0 .5522847-.4477153 1-1 1z" fill="#4c8056"/><path id="Shape" d="m22 53c-.5522847 0-1-.4477153-1-1v-1c0-.5522847.4477153-1 1-1s1 .4477153 1 1v1c0 .5522847-.4477153 1-1 1z" fill="#4c8056"/><g fill="#35495e"><path id="Shape" d="m18 4c-.5522847 0-1-.44771525-1-1v-2c0-.55228475.4477153-1 1-1s1 .44771525 1 1v2c0 .55228475-.4477153 1-1 1z"/><path id="Shape" d="m18 36c-.5522847 0-1-.4477153-1-1v-2c0-.5522847.4477153-1 1-1s1 .4477153 1 1v2c0 .5522847-.4477153 1-1 1z"/><path id="Shape" d="m10.5 6c-.3586848.00142401-.69065903-.18936581-.87-.5l-1-1.73c-.27614235-.48048773-.11048771-1.0938576.37000001-1.36999997.48048773-.27614237 1.09385759-.11048774 1.36999999.36999997l1 1.73c.1789919.31001652.1786145.69206376-.0009896 1.00172601-.1796041.30966224-.5110351.49969844-.8690104.49827399z"/><path id="Shape" d="m26.5 33.72c-.3586848.001424-.690659-.1893658-.87-.5l-1-1.73c-.1786328-.3108211-.1778753-.693331.0019873-1.0034421.1798625-.3101111.5115047-.50071.87-.5s.6893799.192621.8680127.5034421l1 1.73c.1789919.3100165.1786145.6920638-.0009896 1.001726-.1796041.3096623-.5110351.4996985-.8690104.498274z"/><path id="Shape" d="m5 11.5c-.17517638.0012098-.34759709-.0436196-.5-.13l-1.73-1c-.31082107-.1786328-.50273213-.50951737-.50344213-.86801271-.00070999-.35849534.18988893-.69013747.50000001-.87000001s.69262106-.18062009 1.00344212-.00198728l1.73 1c.39621266.22451811.5906881.688381.47305464 1.1283301-.11763345.4399491-.51766172.7448538-.97305464.7416699z"/><path id="Shape" d="m32.72 27.5c-.1751764.0012098-.3475971-.0436196-.5-.13l-1.73-1c-.4804877-.2761424-.6461423-.8895123-.37-1.37.2761424-.4804877.8895123-.6461424 1.37-.37l1.73 1c.3962127.2245181.5906881.688381.4730546 1.1283301-.1176334.4399491-.5176617.7448538-.9730546.7416699z"/><path id="Shape" d="m3 19h-2c-.55228475 0-1-.4477153-1-1s.44771525-1 1-1h2c.55228475 0 1 .4477153 1 1s-.44771525 1-1 1z"/><path id="Shape" d="m35 19h-2c-.5522847 0-1-.4477153-1-1s.4477153-1 1-1h2c.5522847 0 1 .4477153 1 1s-.4477153 1-1 1z"/><path id="Shape" d="m3.28 27.5c-.45539292.0031839-.85542119-.3017208-.97305464-.7416699-.11763346-.4399491.07684198-.903812.47305464-1.1283301l1.73-1c.48048773-.2761423 1.0938576-.1104877 1.36999997.37.27614236.4804877.11048774 1.0938576-.36999997 1.37l-1.73 1c-.15240291.0863804-.32482362.1312098-.5.13z"/><path id="Shape" d="m31 11.5c-.4553929.0031839-.8554212-.3017208-.9730546-.7416699-.1176335-.4399491.0768419-.90381199.4730546-1.1283301l1.73-1c.4804877-.27614237 1.0938576-.11048773 1.37.37s.1104877 1.0938576-.37 1.37l-1.73 1c-.1524029.0863804-.3248236.1312098-.5.13z"/><path id="Shape" d="m9.5 33.72c-.3579753.0014245-.68940625-.1886117-.86901036-.498274-.1796041-.3096622-.17998154-.6917095-.00098964-1.001726l1-1.73c.17863279-.3108211.5095174-.5027321.8680127-.5034421s.6901375.1898889.87.5c.1798626.3101111.1806201.692621.0019873 1.0034421l-1 1.73c-.179341.3106342-.51131524.501424-.87.5z"/><path id="Shape" d="m25.5 6c-.3579753.00142445-.6894063-.18861175-.8690104-.49827399-.1796041-.30966225-.1799815-.69170949-.0009896-1.00172601l1-1.73c.2761424-.48048773.8895123-.64614237 1.37-.37s.6461424.88951227.37 1.37l-1 1.73c-.179341.31063419-.5113152.50142401-.87.5z"/><path id="Shape" d="m25 26c-.265803.0015368-.5212812-.1028135-.71-.29l-4.88-4.88c-.2536586-.2536586-.3527236-.623374-.2598781-.9698781.0928455-.346504.363496-.6171545.71-.71.3465041-.0928455.7162195.0062195.9698781.2598781l4.88 4.88c.1893127.1877666.2957983.4433625.2957983.71s-.1064856.5222334-.2957983.71c-.1887188.1871865-.444197.2915368-.71.29z"/><path id="Shape" d="m18 16c-.5522847 0-1-.4477153-1-1v-8c0-.55228475.4477153-1 1-1s1 .44771525 1 1v8c0 .5522847-.4477153 1-1 1z"/></g><path id="Shape" d="m18 36c-9.9411255 0-18-8.0588745-18-18s8.0588745-18 18-18 18 8.0588745 18 18c0 4.7738968-1.8964231 9.3522672-5.2720779 12.7279221-3.3756549 3.3756548-7.9540253 5.2720779-12.7279221 5.2720779zm0-34c-8.836556 0-16 7.163444-16 16s7.163444 16 16 16 16-7.163444 16-16c0-4.2434638-1.6857094-8.31312644-4.6862915-11.3137085-3.0005821-3.00058205-7.0702447-4.6862915-11.3137085-4.6862915z" fill="#4482c3"/><circle id="Oval" cx="18" cy="18" fill="#fff" r="3"/><path id="Shape" d="m22 56c-3.6401602 0-6.9218868-2.1927796-8.3149158-5.5558491s-.6230272-7.23413 1.9509548-9.8081119c2.5739819-2.573982 6.4450424-3.3439838 9.8081119-1.9509548s5.5558491 4.6747556 5.5558491 8.3149158c0 4.9705627-4.0294373 9-9 9zm0-16c-3.8659932 0-7 3.1340068-7 7s3.1340068 7 7 7 7-3.1340068 7-7-3.1340068-7-7-7z" fill="#4c8056"/></g></svg>