<svg height="512" viewBox="0 0 58 59" width="512" xmlns="http://www.w3.org/2000/svg"><g id="087---Marketing" fill="none" transform="translate(0 -1)"><path id="Shape" d="m37 49 3 10h-11-11l3-10 8-2z" fill="#95a5a5"/><path id="Shape" d="m43 60h-28c-.5522847 0-1-.4477153-1-1s.4477153-1 1-1h28c.5522847 0 1 .4477153 1 1s-.4477153 1-1 1z" fill="#bdc3c7"/><path id="Shape" d="m58 43v4c0 1.1045695-.8954305 2-2 2h-54c-1.1045695 0-2-.8954305-2-2v-4z" fill="#bdc3c7"/><path id="Shape" d="m56.39 1c-9.39.42-56.39 4.18-56.39 42v-40c0-1.1045695.8954305-2 2-2h54c.1295538-.01523174.2604462-.01523174.39 0z" fill="#67b9cc"/><path id="Shape" d="m58 3 .0001007 40h-58.0001007c0-37.82 47-41.58 56.39-42 .3392488.06851279.6536705.22745124.91.46.449626.38453035.7059298.94839884.7 1.54z" fill="#2fa8cc"/><path id="Shape" d="m40 25c2.7614237 0 5-2.2385763 5-5s-2.2385763-5-5-5l-3 5z" fill="#f5efca"/><path id="Shape" d="m21 33h-4c-.5522847 0-1-.4477153-1-1s.4477153-1 1-1h4c.5522847 0 1-.4477153 1-1v-4c0-.5522847.4477153-1 1-1s1 .4477153 1 1v4c0 1.6568542-1.3431458 3-3 3z" fill="#802f34"/><path id="Shape" d="m49.83 30.38c-.265803.0015368-.5212812-.1028135-.71-.29-.3877236-.3900375-.3877236-1.0199625 0-1.41 2.2594542-2.2516225 3.5294628-5.3101823 3.5294628-8.5s-1.2700086-6.2483775-3.5294628-8.5c-.3921221-.3921222-.3921221-1.0278778 0-1.42.3921222-.39212212 1.0278778-.39212214 1.42 0 2.6258183 2.6255504 4.1010102 6.1867216 4.1010102 9.9s-1.4751919 7.2744496-4.1010102 9.9c-.1837018.1982262-.4398153.3136577-.71.32z" fill="#e64c3c"/><path id="Shape" d="m47 27.56c-.4062651.0023626-.77358-.2413038-.929371-.6165185-.1557909-.3752147-.0690889-.807391.219371-1.0934815 3.1217228-3.1237697 3.1217228-8.1862303 0-11.31-.2536586-.2536586-.3527236-.623374-.2598781-.9698781.0928455-.346504.363496-.6171545.71-.71.3465041-.0928455.7162195.0062195.9698781.2598781 3.9038194 3.9049985 3.9038194 10.2350015 0 14.14-.1870714.1908556-.4427541.2988906-.71.3z" fill="#c03a2b"/><path id="Shape" d="m19.69 38h-3.93c-.4648688.0159235-.8793359-.2907821-1-.74l-2.76-10.26 3-3 3 3 2.66 9.74c.0810915.3011519.0170347.6228947-.1732159.8700243-.1902505.2471296-.4849084.3913461-.7967841.3899757z" fill="#c03a2b"/><path id="Shape" d="m6 16h5v8h-5c-1.1045695 0-2-.8954305-2-2v-4c0-1.1045695.8954305-2 2-2z" fill="#f3d55b"/><path id="Shape" d="m29 27h-17l-4-3v-8l3.47-2.6c.3461923-.2596443.7672596-.4 1.2-.4h16.33z" fill="#e64c3c"/><rect id="Rectangle-path" fill="#fb7b76" height="6" rx="1" width="8" x="13" y="17.04"/><path id="Shape" d="m26 27s4.59 7.35 12.9 8c.28207.0283527.5629188-.0643492.7726854-.2550461s.328736-.4614661.3273146-.7449539v-27.92c.0014214-.28348778-.117548-.55425698-.3273146-.7449539-.2097666-.19069691-.4906154-.2833988-.7726854-.2550461-8.31.61-12.9 7.92-12.9 7.92z" fill="#c03a2b"/></g></svg>