<svg height="512" viewBox="0 0 57 59" width="512" xmlns="http://www.w3.org/2000/svg"><g id="043---Limited-Sale" fill="none"><circle id="Oval" cx="48" cy="9" fill="#f9eab0" r="8"/><path id="Shape" d="m48 23c-3.31 0-6 .9-6 2v32c0 1.1 2.69 2 6 2s6-.9 6-2v-32c0-1.1-2.69-2-6-2z" fill="#f3d55b"/><path id="Shape" d="m2.57 22.27c-1.688365-2.796796-2.5772775-6.0031068-2.57-9.27l18-2 18 2c.008466 3.2625513-.8769024 6.4650948-2.56 9.26z" fill="#90bae1"/><path id="Shape" d="m36 9v4h-36v-4c0-1.1045695.8954305-2 2-2h32c1.1045695 0 2 .8954305 2 2z" fill="#2980ba"/><path id="Shape" d="m22 30v3.94c.0020422.867829.563518 1.6353138 1.39 1.9 7.4989558 2.353512 12.6038656 9.3003995 12.61 17.16l-5 3h-26l-5-3c.00613442-7.8596005 5.11104418-14.806488 12.61-17.16.826482-.2646862 1.3879578-1.032171 1.39-1.9v-3.94z" fill="#90bae1"/><path id="Shape" d="m33.44 22.26c-2.2626158 3.7609997-5.8174393 6.5693103-10 7.9-.8462676.2467801-1.431172 1.0185289-1.44 1.9l-1.89 1.87c-1.1689364 1.1565592-3.0510636 1.1565592-4.22 0l-1.89-1.87c-.0020422-.867829-.563518-1.6353138-1.39-1.9-4.18358722-1.3232382-7.73976038-4.1290589-10-7.89l.39-.27h30z" fill="#f3d55b"/><path id="Shape" d="m31 53h-26c0-7.1797017 5.8202983-13 13-13s13 5.8202983 13 13z" fill="#f3d55b"/><path id="Shape" d="m18 41c-.5522847 0-1-.4477153-1-1v-2c0-.5522847.4477153-1 1-1s1 .4477153 1 1v2c0 .5522847-.4477153 1-1 1z" fill="#f3d55b"/><ellipse id="Oval" cx="48" cy="25" fill="#f9eab0" rx="6" ry="2"/><g fill="#f0c419"><path id="Shape" d="m54 53v4c0 1.1-2.69 2-6 2s-6-.9-6-2v-4c0 1.1 2.69 2 6 2s6-.9 6-2z"/><path id="Shape" d="m54 45v4c0 1.1-2.69 2-6 2s-6-.9-6-2v-4c0 1.1 2.69 2 6 2s6-.9 6-2z"/><path id="Shape" d="m54 37v4c0 1.1-2.69 2-6 2s-6-.9-6-2v-4c0 1.1 2.69 2 6 2s6-.9 6-2z"/><path id="Shape" d="m54 29v4c0 1.1-2.69 2-6 2s-6-.9-6-2v-4c0 1.1 2.69 2 6 2s6-.9 6-2z"/><path id="Shape" d="m48 18c-4.9705627 0-9-4.0294373-9-9 0-4.97056275 4.0294373-9 9-9s9 4.02943725 9 9c0 2.3869484-.9482116 4.6761336-2.636039 6.363961s-3.9770126 2.636039-6.363961 2.636039zm0-16c-2.8312357 0-5.3836897 1.70549525-6.4671567 4.32121597-1.083467 2.61572073-.4845767 5.62654553 1.5174092 7.62853153 2.001986 2.0019859 5.0128108 2.6008762 7.6285315 1.5174092 2.6157208-1.083467 4.321216-3.635921 4.321216-6.4671567 0-3.86599325-3.1340068-7-7-7z"/><path id="Shape" d="m48 10c-1.6568542 0-3-1.34314575-3-3s1.3431458-3 3-3 3 1.34314575 3 3c0 .55228475-.4477153 1-1 1s-1-.44771525-1-1-.4477153-1-1-1-1 .44771525-1 1 .4477153 1 1 1 1 .44771525 1 1-.4477153 1-1 1z"/><path id="Shape" d="m48 14c-1.6568542 0-3-1.3431458-3-3 0-.5522847.4477153-1 1-1s1 .4477153 1 1 .4477153 1 1 1 1-.4477153 1-1-.4477153-1-1-1-1-.44771525-1-1 .4477153-1 1-1c1.6568542.00000003 2.9999999 1.34314578 2.9999999 3 0 1.6568542-1.3431457 3-2.9999999 3z"/></g><path id="Shape" d="m36 53v4c0 1.1045695-.8954305 2-2 2h-32c-1.1045695 0-2-.8954305-2-2v-4z" fill="#2980ba"/><path id="Shape" d="m34 9v4h-32v-4c-.0569368-1.04248831.73794523-1.93561419 1.78-2h28.44c1.0420548.06438581 1.8369368.95751169 1.78 2z" fill="#3b97d3"/><path id="Shape" d="m34 53v4c.0569368 1.0424883-.7379452 1.9356142-1.78 2h-28.44c-1.04205477-.0643858-1.8369368-.9575117-1.78-2v-4z" fill="#3b97d3"/></g></svg>