<svg height="512" viewBox="0 0 58 58" width="512" xmlns="http://www.w3.org/2000/svg"><g id="046---Sale-Sign" fill="none"><path id="Shape" d="m58 8v41.5c0-1.93-1.85-3.5-4.14-3.5s-4.15 1.57-4.15 3.5c0-1.93-1.85-3.5-4.14-3.5s-4.14 1.57-4.14 3.5c0-1.93-1.86-3.5-4.14-3.5s-4.15 1.57-4.15 3.5c0-1.93-1.85-3.5-4.14-3.5s-4.14 1.57-4.14 3.5c0-1.93-1.86-3.5-4.15-3.5s-4.14 1.57-4.14 3.5c0-1.93-1.85-3.5-4.14-3.5s-4.14 1.57-4.14 3.5c0-1.93-1.86-3.5-4.15-3.5s-4.14 1.57-4.14 3.5v-41.5c0-4.418278 3.581722-8 8-8h42c4.418278 0 8 3.581722 8 8z" fill="#f3d55b"/><path id="Shape" d="m2 52v-44c-.14623185-4.26429083 3.18610534-7.84263948 7.45-8h39.1c4.2638947.15736052 7.5962318 3.73570917 7.45 8v44z" fill="#f9eab0"/><path id="Shape" d="m58 49.5v.5c0 4.418278-3.581722 8-8 8h-42c-4.418278 0-8-3.581722-8-8v-.5c.04259607-1.2987495.81753738-2.4611615 2-3 .66204413-.3382538 1.3966156-.5098826 2.14-.5 2.29 0 4.15 1.57 4.15 3.5 0-1.93 1.85-3.5 4.14-3.5s4.14 1.57 4.14 3.5c0-1.93 1.86-3.5 4.14-3.5s4.15 1.57 4.15 3.5c0-1.93 1.85-3.5 4.14-3.5s4.14 1.57 4.14 3.5c0-1.93 1.86-3.5 4.15-3.5s4.14 1.57 4.14 3.5c0-1.93 1.85-3.5 4.14-3.5s4.14 1.57 4.14 3.5c0-1.93 1.86-3.5 4.15-3.5.7442196-.0067918 1.4788368.1682806 2.14.51 1.1793154.5372449 1.9536701 1.6949053 2 2.99z" fill="#24ae5f"/><path id="Shape" d="m24 9h27c1.6568542 0 3 1.3431458 3 3s-1.3431458 3-3 3h-27z" fill="#a56a43"/><path id="Shape" d="m7 15h-7v-6h7 6 10v6h-10z" fill="#a56a43"/><path id="Shape" d="m13 50v-42c0-1.65685422-1.3431458-2.99999994-3-2.99999994-1.65685422 0-2.99999997 1.34314572-3 2.99999994v42.93z" fill="#cf976a"/><rect id="Rectangle-path" fill="#e64c3c" height="16" rx="2" width="36" x="17" y="20"/><path id="Shape" d="m25 8v12h-4v-12c0-1.1045695.8954305-2 2-2s2 .8954305 2 2z" fill="#bdc3c7"/><path id="Shape" d="m56 46.51v3.49c.1462318 4.2642908-3.1861053 7.8426395-7.45 8h-39.1c-4.26389466-.1573605-7.59623185-3.7357092-7.45-8v-3.49c.66116318-.3417194 1.39578041-.5167918 2.14-.51 2.29 0 4.15 1.57 4.15 3.5 0-1.93 1.85-3.5 4.14-3.5s4.14 1.57 4.14 3.5c0-1.93 1.86-3.5 4.14-3.5s4.15 1.57 4.15 3.5c0-1.93 1.85-3.5 4.14-3.5s4.14 1.57 4.14 3.5c0-1.93 1.86-3.5 4.15-3.5s4.14 1.57 4.14 3.5c0-1.93 1.85-3.5 4.14-3.5s4.14 1.57 4.14 3.5c0-1.93 1.86-3.5 4.15-3.5.7442196-.0067918 1.4788368.1682806 2.14.51z" fill="#4fba6f"/><path id="Shape" d="m49 8v12h-4v-12c0-1.1045695.8954305-2 2-2s2 .8954305 2 2z" fill="#bdc3c7"/><g fill="#fff"><path id="Shape" d="m23.8 29c-2.13 0-3.8-1.32-3.8-3s1.67-3 3.8-3 3.8 1.32 3.8 3c0 .5522847-.4477153 1-1 1s-1-.4477153-1-1c0-.47-.77-1-1.8-1s-1.8.53-1.8 1 .77 1 1.8 1c.5522847 0 1 .4477153 1 1s-.4477153 1-1 1z"/><path id="Shape" d="m23.8 33c-2.13 0-3.8-1.32-3.8-3 0-.5522847.4477153-1 1-1s1 .4477153 1 1c0 .47.77 1 1.8 1s1.8-.53 1.8-1-.77-1-1.8-1c-.5522847 0-1-.4477153-1-1s.4477153-1 1-1c2.13 0 3.8 1.32 3.8 3s-1.67 3-3.8 3z"/><path id="Shape" d="m35 33c-.4184725.0013593-.7935361-.2579931-.94-.65l-2.06-5.5-2.06 5.5c-.125043.3358297-.4197504.5794394-.7731089.6390639-.3533585.0596244-.7116845-.0737948-.94-.35s-.2919341-.6532342-.1668911-.9890639l3-8c.1435417-.3954845.5192718-.6588256.94-.6588256s.7964583.2633411.94.6588256l3 8c.0936734.2492527.0840711.5255717-.0266791.7677204s-.3135015.4301283-.5633209.5222796c-.1121529.0407202-.2306881.0610405-.35.06z"/><path id="Shape" d="m34.25 31h-4.5c-.5522847 0-1-.4477153-1-1s.4477153-1 1-1h4.5c.5522847 0 1 .4477153 1 1s-.4477153 1-1 1z"/><path id="Shape" d="m42 33h-4c-.5522847 0-1-.4477153-1-1v-8c0-.5522847.4477153-1 1-1s1 .4477153 1 1v7h3c.5522847 0 1 .4477153 1 1s-.4477153 1-1 1z"/><path id="Shape" d="m49 33h-4c-.5522847 0-1-.4477153-1-1v-8c0-.5522847.4477153-1 1-1h4c.5522847 0 1 .4477153 1 1s-.4477153 1-1 1h-3v6h3c.5522847 0 1 .4477153 1 1s-.4477153 1-1 1z"/><path id="Shape" d="m48 29h-3c-.5522847 0-1-.4477153-1-1s.4477153-1 1-1h3c.5522847 0 1 .4477153 1 1s-.4477153 1-1 1z"/></g></g></svg>