<svg height="512" viewBox="0 0 58 59" width="512" xmlns="http://www.w3.org/2000/svg"><g id="033---Sale" fill="none"><circle id="Oval" cx="28" cy="28" fill="#f3d55b" r="27"/><path id="Shape" d="m28 56c-15.463973 0-28-12.536027-28-28s12.536027-28 28-28 28 12.536027 28 28c.0044517 2.1345537-.240543 4.262316-.73 6.34-.1599762.4966174-.6748777.7867811-1.1825497.6664053-.5076721-.1203758-.8374783-.6108311-.7574503-1.1264053 2.5007699-10.771336-2.0850466-21.9459848-11.4312849-27.85558368-9.3462384-5.90959883-21.4078253-5.26105386-30.0664968 1.61665918-8.65867156 6.877713-12.0198026 18.4796649-8.37845275 28.9207425 3.64134986 10.4410776 13.48840795 17.4366431 24.54623445 17.438182 1.0395934.0008768 2.0782448-.0625778 3.11-.19.5463206-.0646967 1.0422995.3240435 1.11.87.0646967.5463206-.3240435 1.0422995-.87 1.11-1.1112667.1390263-2.2300709.2091602-3.35.21z" fill="#f0c419"/><g fill="#f29c1f"><path id="Shape" d="m50.2 35c-.086388.0098286-.173612.0098286-.26 0-.2578875-.067951-.4779489-.2360982-.6112738-.4670696s-.1688668-.5056298-.0987262-.7629304c.0933333-.3133333.1733333-.6233333.24-.93.1195113-.5379393.6516869-.8778162 1.19-.76.2605186.0572809.4873554.2162702.630076.4416185.1427207.2253483.1894952.498377.129924.7583815-.08.34-.16.68-.25 1-.1254639.4302451-.5218572.7244751-.97.72z"/><path id="Shape" d="m27.25 52c-.69 0-1.38-.08-2.06-.16-.5522847-.0662742-.9462742-.5677153-.88-1.12s.5677153-.9462742 1.12-.88c.62.07 1.25.12 1.88.14.5522847 0 1 .4477153 1 1s-.4477153 1-1 1zm-5.84-1c-.0927618.0146074-.1872382.0146074-.28 0-.65-.19-1.31-.42-1.95-.67-.2468077-.0979351-.4445322-.2900079-.5495816-.5338726-.1050493-.2438646-.1087976-.5194964-.0104184-.7661274.2039592-.5085605.779197-.7582761 1.29-.56.59.23 1.19.44 1.79.61.5522847.0800813.9350812.5927153.8549999 1.145-.0800812.5522847-.5927152.9350813-1.1449999.855zm-5.41-2.37c-.1824342-.0015721-.3614366-.049765-.52-.14-.59-.36-1.16-.75-1.71-1.16-.4388029-.327666-.532421-.947329-.21-1.39.1561269-.2152922.3915809-.3595264.6543011-.400811.2627203-.0412846.5310643.0237813.7456989.180811.5.38 1 .73 1.56 1.06.3787443.234702.5565162.6916707.4359473 1.1206176-.1205688.4289469-.5103878.7263766-.9559473.7293824zm-4.6-3.71c-.2721876-.0010388-.5321912-.1129847-.72-.31-.47-.49-.93-1-1.36-1.54-.34793939-.4307821-.2807821-1.0620606.15-1.41s1.0620606-.2807821 1.41.15c.39.49.81 1 1.24 1.42.3877236.3900375.3877236 1.0199625 0 1.41-.1928038.1860113-.4521826.2868808-.72.28zm-3.51-4.76c-.36790301.0066913-.70975856-.1892035-.89-.51-.33-.6-.64-1.22-.92-1.85-.16579093-.330607-.13556892-.725725.07857452-1.0272714.21414343-.3015463.57723661-.4602756.94400962-.4126818s.67732832.2937382.80741586.6399532c.26.57.55 1.14.85 1.69.23527645.4712334.06470437 1.0441807-.39 1.31-.14363919.0935979-.30892989.1486948-.48.16zm-2.19-5.5c-.46776644.0148006-.88323396-.2968001-1-.75-.16-.66-.31-1.34-.42-2-.0571625-.3572656.08061609-.7178885.36143592-.9460254.28081984-.228137.66201769-.2891287 1.00000002-.16.33798233.1291286.58140157.4287598.63856406.7860254.1.62.23 1.24.38 1.85.12540991.5082755-.16242283 1.0272467-.66 1.19-.09808287.0241091-.19908529.0342093-.3.03zm45.3-4.55c-.2741113.0003429-.5363464-.1118495-.7253888-.310344-.1890423-.1984946-.288317-.4658874-.2746112-.739656 0-.35 0-.7 0-1.06s0-.55 0-.83c-.01933-.5522847.4127153-1.01567.965-1.035s1.01567.4127153 1.035.965v.9 1.16c-.0266663.5326668-.4666665.9506671-1 .95zm-46-1.32c-.55228475 0-1-.4477153-1-1 0-.69 0-1.38.11-2.06.05246705-.5522847.54271525-.9574671 1.095-.905s.95746705.5427153.905 1.095c-.11.61-.11 1.25-.11 1.88-.00548403.5483755-.45159704.9900274-1 .99zm45.5-4.57c-.4827608.0097357-.9035264-.3268768-1-.8-.13-.61-.29-1.23-.47-1.83-.1053933-.3519066-.0150409-.7333084.2370225-1.000535s.6275433-.37968.985-.295.6425842.3536284.7479775.705535c.19.65.37 1.33.51 2 .1110699.5380725-.2327584 1.0649782-.77 1.18-.0773327.0261357-.158371.0396421-.24.04zm-44.69-1.29c-.08600574.0151368-.17399426.0151368-.26 0-.52823186-.1461291-.84041562-.6902208-.7-1.22.18-.67.39-1.33.62-2 .09215126-.2498194.28013089-.4525707.5222796-.5633209s.51846774-.1203525.7677204-.0266791c.51502146.192012.77853122.7636942.59 1.28-.22.59-.41 1.2-.58 1.8-.12075303.4306304-.51276161.7287202-.96.73zm42.73-4.3c-.3801569.0026457-.7289345-.2104962-.9-.55-.28-.55-.59-1.11-.92-1.64-.2927109-.469442-.149442-1.0872891.32-1.38s1.0872891-.149442 1.38.32c.36.59.7 1.19 1 1.8.2566488.4887869.0686457 1.0930824-.42 1.35-.1431912.069463-.3008938.1037462-.46.1zm-40.45-1.16c-.17517638.0012098-.34759709-.0436196-.5-.13-.46076224-.2772247-.61979822-.8691919-.36-1.34.34-.59.72-1.18 1.11-1.74.31206536-.4555974.93435583-.571997 1.39-.26.4528266.308376.5732166.9237025.27 1.38-.36.52-.71 1-1 1.6-.18887271.3195765-.53923098.5082309-.91.49zm37.12-3.73c-.2872272-.0003637-.5604302-.1242157-.75-.34-.42-.46-.86-.92-1.31-1.36-.2899145-.2369523-.4231677-.6160105-.3452988-.9822525.0778689-.3662419.353812-.6582985.7150504-.7568051.3612384-.0985067.7472414.0130427 1.0002484.2890576.5.48 1 1 1.44 1.49.2590557.2948776.3216481.7140403.1600393 1.0717346-.1616089.3576943-.5175315.5877689-.9100393.5882654zm-33.52-1c-.4018897-.0016616-.7637369-.2437563-.918621-.6146054-.154884-.3708491-.0727076-.7983888.208621-1.0853946.49-.49 1-1 1.52-1.4.2665979-.26567184.6597868-.3591526 1.0174266-.24189345s.6191507.42539592.6766927.79734335c.0575421.3719474-.0986316.7447019-.4041193.9645501-.48.41-.95.84-1.39 1.29-.1819783.2019271-.4383183.321071-.71.33zm29.06-2.89c-.198407.00341014-.3933428-.05228581-.56-.16-.52-.35-1.07-.68-1.61-1-.3143937-.17863279-.509606-.51142336-.5121024-.8730127-.0024963-.36158935.1881026-.69704345.5-.88s.6977087-.18562009 1.0121024-.0069873c.6.33 1.19.69 1.76 1.07.2220203.14673157.3763952.3759089.4289477.63679471.0525525.2608858-.0010525.53195838-.1489477.75320529-.189262.29529536-.5193971.46984955-.87.46zm-24.38-.7c-.3530673-.00006158-.6799357-.18630055-.86-.49-.2815765-.47497762-.1248931-1.08828104.35-1.37.6-.35 1.21-.67 1.83-1 .5026495-.21738541 1.0866484.00997294 1.31.51.2359653.49713581.0259259 1.09150242-.47 1.33-.57.27-1.13.57-1.67.89-.1494557.08470231-.3182117.12947433-.49.13zm19.08-1.92c-.1120243.00193779-.2235778-.01496425-.33-.05-.59-.2-1.2-.38-1.81-.53-.5384776-.13254835-.8675483-.67652237-.735-1.21499999.1325484-.53847762.6765224-.86754833 1.215-.73500001.67.17 1.33.36 2 .59.4528977.16406124.7244736.62768605.6460777 1.10296126-.0783959.47527522-.4844823.82712069-.9660777.83703874zm-13.63-.39c-.5522847.07455844-1.0604416-.31271525-1.135-.865s.3127153-1.06044156.865-1.135c.66-.19 1.33-.34 2-.47.3572656-.06609413.7226534.06343129.9585254.3397853s.3063936.65755186.185 1-.4162598.59412057-.7735254.6602147c-.62.11-1.24.26-1.85.42-.0798691.03081227-.1644238.04772322-.25.05zm7.83-.78h-.07c-.52-.06-1.05-.06-1.58-.06h-.31c-.5522847 0-1-.44771525-1-1s.4477153-1 1-1h.31c.58 0 1.15 0 1.72.06.5522847.01932997.98433.48271526.965 1.035s-.4827153.98432996-1.035.965z"/><path id="Shape" d="m31.27 51.76c-.4986434.0056372-.9252306-.3569619-1-.85-.0399817-.2641226.0273741-.5332626.1870513-.7474179s.3984004-.3555214.6629487-.3925821c.32 0 .63-.09.94-.15.3572656-.0678805.7236064.0599943.9610254.3354552.237419.2754608.3098466.6566587.19 1s-.4137598.5966643-.7710254.6645448c-.35.07-.69.12-1 .17z"/></g><path id="Shape" d="m33.16 40c-1.0194374-.1708103-1.988933-.5633878-2.84-1.15-.3455047-.2223031-.7103084-.413072-1.09-.57-1.398599-.3328502-2.8687544-.1812514-4.17.43-.4607286.1869856-.9055219.4110545-1.33.67l-.25.13c-.3760219.3390162-.8637204.5276879-1.37.53-.7375679.0085621-1.4199756-.389542-1.7755276-1.0358101-.355552-.646268-.3265237-1.4357771.0755276-2.0541899.63-1.16 1.24-2.39 1.82-3.65l.14-.3c.4712848-.9724892.8788118-1.9746049 1.22-3h-2.1c-.5847262.0061847-1.1428705-.2438434-1.5275283-.6842766s-.5572944-1.0271492-.4724717-1.6057234c.2010612-1.0238963 1.1172875-1.7492421 2.16-1.71h2c-.17-.59-.37-1.19-.59-1.79-.8605506-1.9571538-1.0125922-4.1529184-.43-6.21.8034517-2.1685674 2.6261154-3.8003566 4.87-4.36 2.5739952-.7656673 5.358733-.2607015 7.5 1.36 2.0005538 1.7466495 3.0232594 4.3594008 2.74 7-.0445582.5765226-.3364585 1.105544-.8004287 1.4506458-.4639703.3451019-1.0545954.4725043-1.6195713.3493542-.9973735-.233549-1.6762272-1.1584872-1.6-2.18.1414899-1.3054914-.3184873-2.604467-1.25-3.53-1.1191539-.763482-2.5246649-.9768842-3.82-.58-.9713686.2228421-1.7756267.900504-2.16 1.82-.2748869 1.1825538-.1409363 2.4233589.38 3.52.3674544 1.0278689.6615258 2.0805112.88 3.15h3c.5847262-.0061847 1.1428705.2438434 1.5275283.6842766s.5572944 1.0271492.4724717 1.6057234c-.1948911 1.0108489-1.0908032 1.733495-2.12 1.71h-2.87c-.3447452 1.4566219-.8547161 2.8691071-1.52 4.21 1.3993012-.2529174 2.8386181-.1706707 4.2.24.7064341.2470335 1.3785127.5830729 2 1 .26.15.51.3.74.42z" fill="#fff"/><path id="Shape" d="m55.45 59h-22.9c-.6795497.0019818-1.3136133-.3412263-1.6835351-.9112698-.3699218-.5700434-.4250843-1.2889214-.1464649-1.9087302 2.63-6.21 2.53-17.49 2.42-21.06-.034494-.2853097.0554286-.5716689.2468331-.7860419s.4657871-.3360357.7531669-.3339581h19.72c.2873798-.0020776.5617624.1195851.7531669.3339581s.2813271.5007322.2468331.7860419c-.11 3.57-.21 14.85 2.42 21.06.2786194.6198088.2234569 1.3386868-.1464649 1.9087302-.3699218.5700435-1.0039854.9132516-1.6835351.9112698z" fill="#c03a2b"/><path id="Shape" d="m53.37 59h-18.74c-1.19 0-2-1.48-1.49-2.82 2.14-6.21 2.06-17.49 2-21.06 0-.62.36-1.12.82-1.12h16.11c.46 0 .83.5.82 1.12-.09 3.57-.17 14.85 2 21.06.44 1.34-.33 2.82-1.52 2.82z" fill="#e64c3c"/><circle id="Oval" cx="39" cy="39" fill="#802f34" r="2"/><circle id="Oval" cx="49" cy="39" fill="#802f34" r="2"/><path id="Shape" d="m49 38c-.5522847 0-1-.4477153-1-1v-3c0-2.209139-1.790861-4-4-4s-4 1.790861-4 4v3c0 .5522847-.4477153 1-1 1s-1-.4477153-1-1v-3c.0000001-3.3137084 2.6862916-5.9999998 6-5.9999998s5.9999999 2.6862914 6 5.9999998v3c0 .5522847-.4477153 1-1 1z" fill="#fff"/></g></svg>