<svg id="Capa_1" enable-background="new 0 0 50 58" height="512" viewBox="0 0 50 58" width="512" xmlns="http://www.w3.org/2000/svg"><path id="Shape" d="m42 46v9c0 1.7-1.3 3-3 3h-28c-1.7 0-3-1.3-3-3v-9c0 1.7 1.3 3 3 3h28c1.7 0 3-1.3 3-3z" fill="#464f5d"/><path d="m41.3 1.1c-.3-.4-.8-.8-1.3-.9-.3-.1-.7-.2-1-.2h-28c-1.7 0-3 1.3-3 3v47 .4c.1.6.3 1.1.7 1.6.5.6 1.4 1 2.3 1h28c1.7 0 3-1.3 3-3v-47c0-.7-.2-1.4-.7-1.9z" fill="#2fa8cc"/><path d="m40 .2c-7.2 1-31 7.4-32 50.2 0-.1 0-.2 0-.4v-47c0-1.7 1.3-3 3-3h28c.3 0 .7.1 1 .2z" fill="#67b9cc"/><path d="m35 0-2.9 3c-.5.6-1.3 1-2.1 1h-9.9c-.8 0-1.6-.4-2.2-1l-2.9-3z" fill="#464f5d"/><path d="m18 49h-5c-.6 0-1-.4-1-1s.4-1 1-1h5c.6 0 1 .4 1 1s-.4 1-1 1z" fill="#65ddb9"/><path d="m37 49h-5c-.6 0-1-.4-1-1s.4-1 1-1h5c.6 0 1 .4 1 1s-.4 1-1 1z" fill="#65ddb9"/><path d="m46 8h-42c-2.2 0-4 1.8-4 4v24c0 2.2 1.8 4 4 4h14l6.2 8c.2.2.5.4.8.4s.6-.1.8-.4l6.2-8h14c2.2 0 4-1.8 4-4v-24c0-2.2-1.8-4-4-4z" fill="#f29c1f"/><g fill="#fff"><circle id="Oval" cx="18.8" cy="16.3" r="2.8"/><circle cx="32.5" cy="32.5" r="2.5"/><path d="m18 35c-.8 0-1.5-.4-1.8-1.1s-.2-1.5.3-2.1l15-18c.7-.9 2-1 2.8-.3.9.7 1 2 .3 2.8l-15 18c-.4.4-1 .7-1.6.7z"/></g></svg>