<svg height="512" viewBox="0 0 58 59" width="512" xmlns="http://www.w3.org/2000/svg"><g id="018---Sale-Tag" fill="none"><rect id="Rectangle-path" fill="#e57e25" height="58" rx="2" width="38"/><rect id="Rectangle-path" fill="#f29c1f" height="58" rx="2" width="34" x="2"/><path id="Shape" d="m30 38c-.0018393 4.8796367-3.2181451 9.1748299-7.9 10.55-4.5450315 1.3349819-9.4342683-.3896728-12.13579938-4.2808445-2.70153105-3.8911718-2.60854896-9.0748409.23079508-12.8666232 2.8393441-3.7917822 7.7872878-5.3399824 12.2815184-3.8428587 4.4942305 1.4971236 7.5252715 5.7032931 7.5234859 10.4403264z" fill="#e64c3c"/><path id="Shape" d="m31 38c-.0018404 5.3240806-3.5114787 10.0103842-8.62 11.51-1.0967892.3270777-2.2354818.4921545-3.38.49-4.8535469 0-9.22918239-2.9237061-11.08655439-7.4077988s-.83070294-9.6455066 2.60127299-13.0774826c3.431976-3.4319759 8.5933899-4.458645 13.0774826-2.601273s7.4077988 6.2330075 7.4077988 11.0865544z" fill="#f0c419"/><g fill="#f9eab0"><rect id="Rectangle-path" height="4" rx="2" width="26" x="6" y="5"/><path id="Shape" d="m15 14h-7c-.55228475 0-1-.4477153-1-1s.44771525-1 1-1h7c.5522847 0 1 .4477153 1 1s-.4477153 1-1 1z"/><path id="Shape" d="m30 14h-11c-.5522847 0-1-.4477153-1-1s.4477153-1 1-1h11c.5522847 0 1 .4477153 1 1s-.4477153 1-1 1z"/><path id="Shape" d="m30 18h-22c-.55228475 0-1-.4477153-1-1s.44771525-1 1-1h22c.5522847 0 1 .4477153 1 1s-.4477153 1-1 1z"/></g><path id="Shape" d="m56 10h-16c-1.1045695 0-2 .8954305-2 2v25.28c-.000913.4673043.1618377.9201759.46 1.28l7.24 8.67c.5700046.6806427 1.4122051 1.073864 2.3 1.073864s1.7299954-.3932213 2.3-1.073864l7.24-8.67c.2981623-.3598241.460913-.8126957.46-1.28v-25.28c0-1.1045695-.8954305-2-2-2zm-8 34c-1.1045695 0-2-.8954305-2-2s.8954305-2 2-2 2 .8954305 2 2-.8954305 2-2 2z" fill="#e64c3c"/><path id="Shape" d="m43 59c-3.3137085 0-6-2.6862915-6-6v-3c0-.5522847.4477153-1 1-1s1 .4477153 1 1v3c0 2.209139 1.790861 4 4 4s4-1.790861 4-4v-9c0-.5522847.4477153-1 1-1s1 .4477153 1 1v9c0 3.3137085-2.6862915 6-6 6z" fill="#bdc3c7"/><path id="Shape" d="m42 31c-.2243737.0015399-.4427458-.0724249-.62-.21-.2104929-.1637561-.3468544-.404808-.3787773-.66958-.0319229-.2647721.0432379-.5313267.2087773-.74042l11-14c.3424165-.436305.973695-.5124165 1.41-.17s.5124165.973695.17 1.41l-11 14c-.1908221.241492-.4822197.381658-.79.38z" fill="#fff"/><circle id="Oval" cx="52" cy="28" fill="#fff" r="2"/><circle id="Oval" cx="44" cy="18" fill="#fff" r="2"/><path id="Shape" d="m19 23v4c-4.4502192-.0014774-8.4628971 2.6786039-10.16612212 6.7899877-1.70322505 4.1113839-.76139695 8.8439709 2.38612212 11.9900123l-2.82 2.82c-4.28440605-4.2897364-5.56516391-10.7368416-3.24573952-16.3384703 2.31942438-5.6016287 7.78290642-9.256197 13.84573952-9.2615297z" fill="#e64c3c"/><path id="Shape" d="m29.6 27.4-2.82 2.82c-2.0636463-2.0626781-4.8622481-3.2209683-7.78-3.22v-4.0000134c3.978667-.0053214 7.7946675 1.5786788 10.6 4.4000134z" fill="#f3d55b"/><path id="Shape" d="m34 38c-.0005395 6.6546408-4.3854417 12.5133913-10.77 14.39l-1.13-3.83c3.7249883-1.0942629 6.5972743-4.0711021 7.5577125-7.8328181.9604381-3.761716-.1332279-7.7511387-2.8777125-10.4971819l2.82-2.83c2.8213346 2.8053325 4.4053348 6.621333 4.4 10.6z" fill="#4fba6f"/><path id="Shape" d="m23.23 52.39c-1.3729702.4073313-2.7978834.6128153-4.23.61-3.978667.0053348-7.7946675-1.5786654-10.6-4.4l2.82-2.82c2.8448901 2.8474721 7.0178552 3.913726 10.88 2.78z" fill="#955ba5"/><path id="Shape" d="m22 45c-.8618388-.0229996-1.7055287-.2527851-2.46-.67-.4984486-.2849663-1.0566613-.449348-1.63-.48-.8164153.0076727-1.617741.220901-2.33.62-.3842392.2386454-.8808282.189657-1.2110299-.119468s-.4117904-.8014093-.1989701-1.200532c.4739117-.8870912.9011605-1.7983328 1.28-2.73l.06-.13c.2254383-.5365315.3898051-1.0967204.49-1.67.085951-.8847178-.0162885-1.7776099-.3-2.62-.4346538-1.0937773-.5219426-2.2948712-.25-3.44.6683654-1.6884708 2.3722199-2.7319798 4.18-2.56 1.1914761-.0240939 2.3430395.4296491 3.1978354 1.2600223.854796.8303733 1.3417201 1.9683037 1.3521646 3.1599777 0 .5522847-.4477153 1-1 1s-1-.4477153-1-1c-.0206738-.6703775-.3098439-1.304334-.8025296-1.7594101s-1.1475627-.693102-1.8174704-.6605899c-.9063778-.1260676-1.7919883.3408907-2.2 1.16-.1252989.7661419-.0352852 1.5520307.26 2.27.3787719 1.1288042.5084139 2.3262868.38 3.51-.1449757.7303128-.3731295 1.4416157-.68 2.12l-.06.12c-.1.25-.2.49-.31.74.3047077-.0443209.6120944-.067709.92-.07.8642862.0278606 1.7101053.2572933 2.47.67.5073925.2894869 1.076412.4540227 1.66.48.4312282.0545323.8671121-.0562251 1.22-.31.2734449-.4586445.8589852-.6215392 1.33-.37.2386495.1301913.4140092.3519327.4856977.6141618.0716886.2622291.0335267.5423432-.1056977.7758382-.16.21-.85 1.29-2.93 1.29z" fill="#f29c1f"/><path id="Shape" d="m20.48 39h-5.48c-.5522847 0-1-.4477153-1-1s.4477153-1 1-1h5.48c.5522847 0 1 .4477153 1 1s-.4477153 1-1 1z" fill="#f29c1f"/></g></svg>