<svg id="Layer_1" enable-background="new 0 0 512 512" height="512" viewBox="0 0 512 512" width="512" xmlns="http://www.w3.org/2000/svg"><path d="m328.687 185.2-4.893 23.579c-1.268 6.112-1.914 12.337-1.926 18.579l5.088 17.658-1.847 8.898 38.392 7.059 1.666-8.027 11.703-14.186c2.471-5.724 4.355-11.683 5.625-17.786l4.907-23.589z" fill="#ffd3b3"/><path d="m340.019 204.376-14.685-3.018-1.54 7.421c-.39 1.879-.7 3.771-.972 5.668.665.275 1.362.499 2.093.651l16.102 3.341c4.05.841 8.048-.544 10.741-3.308.507-.188 1.002-.403 1.476-.659 1.641 2.081 3.991 3.621 6.783 4.201 2.793.58 5.561.101 7.895-1.155 1.642 2.081 3.991 3.622 6.784 4.201 2.787.578 5.55.104 7.882-1.147l4.824-23.189-44.036-9.139z" fill="#fcb98b"/><path d="m343.366 188.247-14.679-3.046 9.135-44.017c.713-3.436 4.076-5.643 7.512-4.93l2.236.464c3.436.713 5.643 4.076 4.93 7.512z" fill="#ffd3b3"/><path d="m347.307 211.764-2.236-.464c-3.436-.713-5.643-4.076-4.93-7.512l5.718-27.555c.713-3.436 4.076-5.643 7.512-4.93l2.236.464c3.436.713 5.643 4.076 4.93 7.512l-5.718 27.555c-.712 3.436-4.076 5.643-7.512 4.93z" fill="#ffd3b3"/><path d="m319.916 202.301.067-.322c.823-3.964 4.703-6.511 8.668-5.689l16.424 3.408c3.964.823 6.511 4.703 5.689 8.668l-.067.322c-.823 3.964-4.703 6.511-8.668 5.689l-16.424-3.408c-3.965-.823-6.512-4.704-5.689-8.668z" fill="#ffd3b3"/><path d="m361.986 214.81-2.236-.464c-3.436-.713-5.643-4.076-4.93-7.512l5.081-24.482c.713-3.436 4.076-5.643 7.512-4.93l2.236.464c3.436.713 5.643 4.076 4.93 7.512l-5.081 24.482c-.713 3.436-4.076 5.643-7.512 4.93z" fill="#ffd3b3"/><path d="m376.665 217.856-2.236-.464c-3.436-.713-5.643-4.076-4.93-7.512l3.806-18.338c.713-3.436 4.076-5.643 7.512-4.93l2.236.464c3.436.713 5.643 4.076 4.93 7.512l-3.806 18.338c-.713 3.436-4.076 5.643-7.512 4.93z" fill="#ffd3b3"/><path d="m347.544 249.215-2.964-.467c.119-.754 3.065-18.521 16.661-23.601l1.05 2.81c-11.973 4.474-14.721 21.09-14.747 21.258z" fill="#fcb98b"/><path d="m288.304 249.363-61.978-13.764h-27.87-27.87l-61.978 13.764c-29.944 6.65-51.25 33.207-51.25 63.88v193.606l235.164.051v-115.623l47.033-.051v-77.983c-.001-30.673-21.307-57.23-51.251-63.88z" fill="#ffe352"/><path d="m226.325 235.598h-27.87-27.87l-16.13 3.582c2.27 22.275 21.137 39.712 44 39.712 22.918 0 41.817-17.523 44.012-39.874z" fill="#ffb236"/><path d="m199.068 262.534h-1.224c-15.054 0-27.258-12.204-27.258-27.258v-38.933h55.74v38.933c-.001 15.054-12.204 27.258-27.258 27.258z" fill="#ffd3b3"/><path d="m170.586 211.306c8.129 3.805 17.948 5.939 27.87 5.939s19.741-2.134 27.87-5.939v-14.964h-55.74z" fill="#fcb98b"/><path d="m257.679 148.837c0 32.65-26.574 59.118-59.224 59.118s-59.224-26.468-59.224-59.118v-76.53h118.447v76.53z" fill="#ffd3b3"/><path d="m257.679 109.249h4.36c6.951 0 12.345 6.066 11.533 12.969l-1.627 13.827c-.851 7.234-6.982 12.686-14.266 12.686z" fill="#ffd3b3"/><path d="m139.232 109.249h-4.36c-6.951 0-12.345 6.066-11.533 12.969l1.627 13.827c.851 7.234 6.982 12.686 14.266 12.686z" fill="#ffd3b3"/><path d="m204.262 164.505h-13.712l1.432-17.184 5.979.498-.89 10.686h7.191z" fill="#fcb98b"/><circle cx="175.231" cy="137.119" fill="#6e83b7" r="5.806"/><circle cx="221.68" cy="137.119" fill="#6e83b7" r="5.806"/><path d="m184.521 189.375c0-7.696 6.239-13.935 13.935-13.935s13.935 6.239 13.935 13.935z" fill="#edeff1"/><path d="m189.166 127.829 3.483-4.645-18.58-12.774-19.741 3.484 16.258 1.161z" fill="#6e83b7"/><path d="m207.745 127.829-3.483-4.645 18.58-12.774 19.741 3.484-16.258 1.161z" fill="#6e83b7"/><path d="m104.39 316.775h6.135v190.074h-6.135z" fill="#ffb236"/><path d="m310.56 258.9-23.63 128.518c-1.668 9.074.605 17.972 5.591 24.942v-21.083l47.033-.051v-77.983c0-22.329-11.299-42.468-28.994-54.343z" fill="#ffb236"/><path d="m314.876 419.586-1.148-.211c-14.123-2.597-23.466-16.15-20.87-30.273l25.098-136.502 52.291 9.614-25.098 136.502c-2.596 14.123-16.15 23.466-30.273 20.87z" fill="#ffe352"/><path d="m237.785 42.144h-2.521c0-13.552-10.986-24.539-24.539-24.539h-20.943c-30.483 0-55.195 24.712-55.195 55.195v36.449h4.645v17.419l2.789-2.324c2.648-2.206 4.178-5.475 4.178-8.921v-13.141c70.949 0 89.064-24.863 89.064-24.863s1.756 17.895 15.448 24.863v13.141c0 3.446 1.531 6.715 4.178 8.921l2.789 2.324v-17.419h4.645v-42.566c.001-13.552-10.985-24.539-24.538-24.539z" fill="#6e83b7"/><path d="m390.612 5.958h-48.56c-9.084 0-16.797 6.654-18.129 15.639l-9.365 63.166h103.546l-9.365-63.166c-1.331-8.985-9.044-15.639-18.127-15.639z" fill="#ffb0aa"/><path d="m379.39 84.763h-25.658v-47.65c0-7.085 5.744-12.829 12.829-12.829 7.085 0 12.829 5.744 12.829 12.829z" fill="#ff7b7b"/><path d="m421.514 103.09h-110.364c-4.95 0-8.962-4.013-8.962-8.962v-.402c0-4.95 4.013-8.962 8.962-8.962h110.363c4.95 0 8.962 4.013 8.962 8.962v.402c.001 4.95-4.012 8.962-8.961 8.962z" fill="#6e83b7"/><g fill="#ffb0aa"><path d="m430.476 42.361h24.567v6h-24.567z"/><path d="m429.702 16.993h24.568v6h-24.568z" transform="matrix(.937 -.349 .349 .937 20.855 155.639)"/><path d="m438.986 58.444h6v24.568h-6z" transform="matrix(.349 -.937 .937 .349 221.301 460.154)"/><path d="m278.079 42.361h24.568v6h-24.568z"/><path d="m288.137 7.71h6v24.568h-6z" transform="matrix(.349 -.937 .937 .349 170.691 285.8)"/><path d="m278.853 67.728h24.568v6h-24.568z" transform="matrix(.937 -.349 .349 .937 -6.367 106.145)"/></g></svg>