<svg id="Layer_1" enable-background="new 0 0 512 512" height="512" viewBox="0 0 512 512" width="512" xmlns="http://www.w3.org/2000/svg"><path d="m332 170c-11.5-14.25-12.016-40-12.016-40h-63.984-63.984s-.516 25.75-12.016 40-7 37.5 13 37 34.75-7 63-7 43 6.5 63 7 24.5-22.75 13-37z" fill="#6e83b7"/><path d="m85.157 255.681 2.733-.885-13.941-47.806c-1.38-4.73-3.727-9.12-6.881-12.91l-10.007-12.014c-2.079-2.491-4.471-4.686-7.131-6.522l-13.887-9.613c-2.966-2.052-7.042-1.272-9.049 1.729-.735 1.102-1.084 2.347-1.084 3.575 0 1.016.241 2.022.702 2.932-.182.208-.356.425-.514.661-.735 1.102-1.084 2.347-1.084 3.575 0 .91.203 1.809.574 2.641-.384.85-.574 1.751-.574 2.645 0 2.052.977 4.058 2.786 5.313l18.071 12.516 8.063 17.022 9.855 42.108.582 1.756 1.593-.516.002.005 2.965-.959v.001l3.852-1.247 12.373-4.003z" fill="#fcb98b"/><path d="m94 261.543-16.723-57.336c-1.379-4.729-3.719-9.123-6.873-12.908l-10.015-12.018c-2.072-2.486-4.471-4.68-7.132-6.523l-13.879-9.609c-2.97-2.056-7.048-1.277-9.052 1.728-1.954 2.932-1.199 6.889 1.698 8.894l18.076 12.514 8.063 17.023 9.855 42.109 7.167 21.502z" fill="#ffd3b3"/><path d="m54.239 195.029 3.924 8.278 3.987 17.049 3.745-1.236-7.911-20.122c-.708-1.81-2.061-3.198-3.745-3.969z" fill="#fcb98b"/><path d="m65.992 269.887-5.617-15.446c-1.012-2.782-2.812-5.21-5.18-6.986-4.4-3.3-6.681-8.714-5.97-14.168l1.144-8.772c.259-1.985.124-4.002-.396-5.935l-4.161-15.456c-.748-2.777.754-5.665 3.457-6.648 2.824-1.027 5.952.384 7.051 3.181l7.88 20.059 14.238 46.274z" fill="#ffd3b3"/><path d="m485 178.401c0-1.227-.349-2.473-1.084-3.575-.158-.236-.332-.453-.514-.661.461-.91.702-1.916.702-2.932 0-1.227-.349-2.473-1.084-3.575-2.007-3.001-6.083-3.781-9.049-1.729l-13.887 9.613c-2.661 1.837-5.053 4.031-7.131 6.522l-10.007 12.014c-3.154 3.79-5.501 8.18-6.881 12.91l-13.941 47.807 2.733.885-.001.002 12.373 4.003 3.852 1.247v-.001l2.965.959.002-.005 1.593.516.582-1.756 9.855-42.108 8.063-17.022 18.073-12.515c1.81-1.254 2.786-3.261 2.786-5.313 0-.893-.191-1.795-.574-2.645.371-.832.574-1.731.574-2.641z" fill="#fcb98b"/><path d="m416.014 261.543 16.723-57.336c1.379-4.729 3.719-9.123 6.873-12.908l10.015-12.018c2.072-2.486 4.471-4.68 7.132-6.523l13.879-9.609c2.97-2.056 7.048-1.277 9.052 1.728 1.954 2.932 1.199 6.889-1.698 8.894l-18.075 12.514-8.063 17.023-9.855 42.109-7.167 21.502z" fill="#ffd3b3"/><path d="m455.775 195.029-3.924 8.278-3.987 17.049-3.745-1.236 7.911-20.122c.708-1.81 2.061-3.198 3.745-3.969z" fill="#fcb98b"/><path d="m444.022 269.887 5.617-15.446c1.012-2.782 2.812-5.21 5.18-6.986 4.4-3.3 6.681-8.714 5.97-14.168l-1.144-8.772c-.259-1.985-.124-4.002.396-5.935l4.161-15.456c.748-2.777-.754-5.665-3.457-6.648-2.824-1.027-5.952.384-7.051 3.181l-7.88 20.059-14.238 46.274z" fill="#ffd3b3"/><path d="m411 241-14.564 47.547-7.837-21.061c-6.663-17.908-21.457-31.571-39.837-36.792l-58.762-16.694h-34-34l-58.763 16.694c-18.38 5.221-33.174 18.884-39.837 36.792l-7.837 21.061-14.563-47.547-48 15 33 112 4.847 15.994c7.882 26.01 44.469 26.67 53.283.961l19.87-57.955s-1.167 17 5 36c3.468 10.685 9 25.721 9 42 0 18.372-8.101 39.404-13 59-4.667 18.667-4 43-4 43h95 95s.667-24.333-4-43c-4.899-19.596-13-40.628-13-59 0-16.279 5.532-31.315 9-42 6.167-19 5-36 5-36l19.87 57.955c8.815 25.709 45.401 25.049 53.283-.961l4.847-15.994 33-112z" fill="#edeff1"/><path d="m136.61 331.346-17.042-53.56-4.004 10.761 19.436 63.453c3.206-6.412 3.784-13.822 1.61-20.654z" fill="#d3d3d3"/><g fill="#ffd3b3"><path d="m283 195v-14h-54v14l27 61z"/><path d="m314 92h6.598c6.041 0 10.703 5.315 9.915 11.305l-2.597 19.739c-.524 3.981-3.917 6.956-7.932 6.956h-5.984z"/><path d="m198 92h-6.598c-6.041 0-10.703 5.315-9.915 11.305l2.597 19.739c.524 3.981 3.917 6.956 7.932 6.956h5.984z"/></g><path d="m229 194.396c8.282 3.598 17.41 5.604 27 5.604s18.718-2.006 27-5.604v-13.396h-54z" fill="#fcb98b"/><path d="m314 132c0 32.033-25.967 58-58 58s-58-25.967-58-58v-76h116z" fill="#ffd3b3"/><path d="m314 92h7v-22c0-35.898-29.101-65-65-65-35.898 0-65 29.101-65 65v22h7v38l4.849-13.427c4.891-13.546 17.749-22.573 32.151-22.573 35 0 41-24 41-24s.667 14.5 24 26c0 0 14 7.333 14 20z" fill="#6e83b7"/><path d="m375.39 331.346 17.042-53.56 4.004 10.761-19.436 63.453c-3.206-6.412-3.784-13.822-1.61-20.654z" fill="#d3d3d3"/><path d="m416.052 266.08 36.827 10.692 6.121-20.772-48-15-3.076 10.041c-1.961 6.403 1.698 13.172 8.128 15.039z" fill="#d3d3d3"/><circle cx="417" cy="253" fill="#ffe352" r="5"/><path d="m95.948 266.08-36.828 10.691-6.12-20.771 48-15 3.076 10.041c1.961 6.403-1.698 13.172-8.128 15.039z" fill="#d3d3d3"/><circle cx="95" cy="253" fill="#ffe352" r="5"/><path d="m256 256-27.428 27.999c-7.523 7.68-20.572 2.353-20.572-8.397v-57.602l21-23z" fill="#d3d3d3"/><path d="m256 256 27.428 27.999c7.523 7.68 20.572 2.353 20.572-8.397v-57.602l-21-23z" fill="#d3d3d3"/><path d="m259 146.53h-9.842l3.931-15.727 5.821 1.455-2.068 8.272h2.158z" fill="#fcb98b"/><path d="m266 101.53s16.939-7.347 33 3c0 0-13.75-3.375-30 3z" fill="#6e83b7"/><path d="m246 101.53s-16.939-7.347-33 3c0 0 13.75-3.375 30 3z" fill="#6e83b7"/><path d="m256 165.53c-6.188 0-10.306-2.292-10.479-2.39l2.957-5.221c.011.006 2.996 1.61 7.521 1.61 4.551 0 7.493-1.595 7.521-1.61l2.957 5.221c-.17.098-4.289 2.39-10.477 2.39z" fill="#fcb98b"/><path d="m284 139.53h-10c-2.209 0-4-1.791-4-4 0-2.209 1.791-4 4-4h10c2.209 0 4 1.791 4 4 0 2.209-1.791 4-4 4z" fill="#ffc69f"/><path d="m228 139.53h10c2.209 0 4-1.791 4-4 0-2.209-1.791-4-4-4h-10c-2.209 0-4 1.791-4 4 0 2.209 1.791 4 4 4z" fill="#ffc69f"/><path d="m236 115.53c-.022 0-.044.003-.067.003-.62.028-5.516.18-7.933-2.003 0 0 .619 2.919 2.817 4.987-.516.886-.817 1.913-.817 3.013 0 3.314 2.686 6 6 6s6-2.686 6-6-2.686-6-6-6z" fill="#6e83b7"/><path d="m276 115.53c.022 0 .044.003.067.003.62.028 5.516.18 7.933-2.003 0 0-.619 2.919-2.817 4.987.516.886.817 1.913.817 3.013 0 3.314-2.686 6-6 6s-6-2.686-6-6 2.686-6 6-6z" fill="#6e83b7"/><path d="m253 264.574h6v242.426h-6z" fill="#d3d3d3"/><path d="m292 336h40v6h-40z" fill="#d3d3d3"/><path d="m180 336h40v6h-40z" fill="#d3d3d3"/></svg>