<svg id="Layer_1" enable-background="new 0 0 512 512" height="512" viewBox="0 0 512 512" width="512" xmlns="http://www.w3.org/2000/svg"><path d="m321 94v118s-25.167-22-65-22-65 22-65 22v-118z" fill="#466089"/><path d="m198 206.932c-4.56 2.936-7 5.068-7 5.068v-83h7z" fill="#6e83b7"/><path d="m314 206.932c4.56 2.936 7 5.068 7 5.068v-83h-7z" fill="#6e83b7"/><path d="m283 203v-22h-54v22l27 53z" fill="#ffd3b3"/><path d="m256 507h34v-251h-34-34v251z" fill="#edeff1"/><path d="m253 256h6v251h-6z" fill="#d3d3d3"/><path d="m314 92h6.598c6.041 0 10.703 5.315 9.915 11.305l-2.597 19.739c-.524 3.981-3.917 6.956-7.932 6.956h-5.984z" fill="#ffd3b3"/><path d="m198 92h-6.598c-6.041 0-10.703 5.315-9.915 11.305l2.597 19.739c.524 3.981 3.917 6.956 7.932 6.956h5.984z" fill="#ffd3b3"/><path d="m229 194.396c8.282 3.598 17.41 5.604 27 5.604s18.718-2.006 27-5.604v-13.396h-54z" fill="#fcb98b"/><path d="m314 132c0 32.033-25.967 58-58 58s-58-25.967-58-58v-76h116z" fill="#ffd3b3"/><path d="m221.94 212.98-67.535 18.958c-23.301 6.541-39.405 27.788-39.405 51.99v136.072c0 15.464 12.536 28 28 28h22v-116l9 52-14 123h76v-170z" fill="#6e83b7"/><path d="m197.838 219.747-9.838 35.253 28 40-9 24 29 62.529v-44.529l-14.058-124.019z" fill="#859cc1"/><path d="m290.06 212.98 67.535 18.958c23.302 6.541 39.405 27.788 39.405 51.99v136.072c0 15.464-12.536 28-28 28h-22v-116l-9 52 14 123h-76v-170z" fill="#6e83b7"/><path d="m314.162 219.747 9.838 35.253-28 40 9 24-29 62.529v-44.529l14.058-124.019z" fill="#859cc1"/><path d="m287 16h-3c-7.043-7.043-16.596-11-26.556-11h-6.444c-33.137 0-60 26.863-60 60v27h7v27l11.693-27.284c51.786-2.559 66.307-21.716 66.307-21.716s12.404 14.615 27.462 20.02l10.538 28.98v-27h7v-42c0-18.778-15.222-34-34-34z" fill="#6e83b7"/><path d="m259 149h-9.843l3.933-15.728 5.82 1.456-2.067 8.272h2.157z" fill="#fcb98b"/><path d="m266 104s16.939-7.347 33 3c0 0-13.75-3.375-30 3z" fill="#6e83b7"/><path d="m246 104s-16.939-7.347-33 3c0 0 13.75-3.375 30 3z" fill="#6e83b7"/><path d="m256 168c-6.188 0-10.307-2.292-10.479-2.39l2.957-5.221c.011.006 2.995 1.61 7.521 1.61 4.551 0 7.493-1.595 7.521-1.61l2.957 5.221c-.17.098-4.289 2.39-10.477 2.39z" fill="#fcb98b"/><path d="m284 142h-10c-2.209 0-4-1.791-4-4 0-2.209 1.791-4 4-4h10c2.209 0 4 1.791 4 4 0 2.209-1.791 4-4 4z" fill="#ffc69f"/><path d="m228 142h10c2.209 0 4-1.791 4-4 0-2.209-1.791-4-4-4h-10c-2.209 0-4 1.791-4 4 0 2.209 1.791 4 4 4z" fill="#ffc69f"/><path d="m236 118c-.022 0-.044.003-.067.003-.62.028-5.516.18-7.933-2.003 0 0 .619 2.919 2.817 4.987-.516.887-.817 1.914-.817 3.013 0 3.314 2.686 6 6 6s6-2.686 6-6-2.686-6-6-6z" fill="#6e83b7"/><path d="m276 118c.022 0 .044.003.067.003.62.028 5.516.18 7.933-2.003 0 0-.619 2.919-2.817 4.987.516.886.817 1.913.817 3.013 0 3.314-2.686 6-6 6s-6-2.686-6-6 2.686-6 6-6z" fill="#6e83b7"/><path d="m341.624 464.334h-47.124v-14h47.124c1.654 0 3-1.346 3-3v-80.333c0-1.654-1.346-3-3-3h-23.284v-14h23.284c9.374 0 17 7.626 17 17v80.333c0 9.374-7.626 17-17 17z" fill="#ffe352"/><path d="m217.5 464.334h-47.124c-9.374 0-17-7.626-17-17v-80.333c0-9.374 7.626-17 17-17h23.284v14h-23.284c-1.654 0-3 1.346-3 3v80.333c0 1.654 1.346 3 3 3h47.124z" fill="#ffe352"/><path d="m186 332h140v18h-140z" fill="#ffe352"/><path d="m242.267 475.001h27.466v32h-27.466z" fill="#ffb236"/><path d="m256 483.001c-34.429 0-62.34-27.91-62.34-62.34v-70.724h124.68v70.724c0 34.429-27.911 62.34-62.34 62.34z" fill="#ffe352"/><path d="m193.66 350h124.68v7.437h-124.68z" fill="#ffb236"/><g fill="#ffd3b3"><path d="m170 399h-32c-3.866 0-7-3.134-7-7 0-3.866 3.134-7 7-7h32c3.866 0 7 3.134 7 7 0 3.866-3.134 7-7 7z"/><path d="m168 427h-30c-3.866 0-7-3.134-7-7 0-3.866 3.134-7 7-7h30c3.866 0 7 3.134 7 7 0 3.866-3.134 7-7 7z"/><path d="m165 441h-24c-3.866 0-7-3.134-7-7 0-3.866 3.134-7 7-7h24c3.866 0 7 3.134 7 7 0 3.866-3.134 7-7 7z"/><path d="m172 413h-36c-3.866 0-7-3.134-7-7 0-3.866 3.134-7 7-7h36c3.866 0 7 3.134 7 7 0 3.866-3.134 7-7 7z"/><path d="m342 399h32c3.866 0 7-3.134 7-7 0-3.866-3.134-7-7-7h-32c-3.866 0-7 3.134-7 7 0 3.866 3.134 7 7 7z"/><path d="m344 427h30c3.866 0 7-3.134 7-7 0-3.866-3.134-7-7-7h-30c-3.866 0-7 3.134-7 7 0 3.866 3.134 7 7 7z"/><path d="m347 441h24c3.866 0 7-3.134 7-7 0-3.866-3.134-7-7-7h-24c-3.866 0-7 3.134-7 7 0 3.866 3.134 7 7 7z"/><path d="m340 413h36c3.866 0 7-3.134 7-7 0-3.866-3.134-7-7-7h-36c-3.866 0-7 3.134-7 7 0 3.866 3.134 7 7 7z"/></g><path d="m229 203 27 53-27 25-7.058-68.019z" fill="#d3d3d3"/><path d="m283 203-27 53 27 25 7.058-68.019z" fill="#d3d3d3"/></svg>