<svg id="Layer_1" enable-background="new 0 0 512 512" height="512" viewBox="0 0 512 512" width="512" xmlns="http://www.w3.org/2000/svg"><path d="m411 241-14.564 47.547-7.837-21.061c-6.663-17.908-21.457-31.571-39.837-36.792l-58.762-16.694h-34-34l-62.842 18.378c-25.579 7.481-43.158 30.937-43.158 57.588v217.034h235s.667-24.333-4-43c-4.899-19.595-13-40.628-13-59 0-16.279 5.532-31.315 9-42 6.167-19 5-36 5-36l19.87 57.955c8.815 25.709 45.401 25.049 53.283-.961l4.847-15.994 33-112zm-246 223c-.366 1.466-.696 2.969-1 4.49v-133.908c.281 6.739 1.369 17.229 5 28.418 3.468 10.685 9 25.721 9 42 0 18.372-8.101 39.405-13 59z" fill="#80d6fb"/><g fill="#466089"><path d="m340.933 222c-55.718-13.932-73.933-78.791-73.933-78.791l12.257-8.646 12.257-8.646c.001 0 54.989 38.921 49.419 96.083z"/><path d="m171.067 222c55.718-13.932 73.933-78.791 73.933-78.791l-12.257-8.646-12.257-8.646c-.001 0-54.989 38.921-49.419 96.083z"/><path d="m321 129c0 33.689-27.311 61-61 61h-4-4c-33.689 0-61-27.311-61-61z"/></g><path d="m252 252h8v69h-8z" fill="#46bee8"/><path d="m417.283 245.732 3.71-11.641c.87-2.731.504-5.705-1.003-8.143l-.001-.002c-.846-1.369-1.342-2.924-1.446-4.529l-1.889-29.283c-.202-3.13 2.016-5.897 5.114-6.381 3.396-.531 6.553 1.864 6.958 5.277l.862 11.029c.196 2.504 1.76 4.694 4.066 5.692 2.021.874 4.342.712 6.221-.436l5.952-3.634c2.334-1.425 3.583-4.113 3.166-6.816l-2.737-17.751c-.295-1.885-1.292-3.588-2.791-4.767l-3.824-3.008c-2.2-1.73-2.566-4.923-.815-7.107l.083-.103c1.836-2.29 5.166-2.621 7.396-.752 3.479 2.915 7.933 6.643 7.933 6.643 1.157.968 1.998 2.261 2.414 3.711l4.915 20.169 11.17 10.165c2.186 1.989 3.011 5.069 2.114 7.885l-7.911 24.819c-.923 2.896-2.903 5.339-5.546 6.841l-4.945 2.81c-1.652.939-2.889 2.465-3.466 4.275l-1.857 5.825z" fill="#ffd3b3"/><path d="m465 132.783c0-17.153-14.5-30.919-31.911-29.709-14.817 1.029-26.754 13.127-27.605 27.955-.579 10.107 3.886 19.196 11.109 24.99 4.143 3.323 6.666 8.257 6.666 13.568v1.96h23.915v-1.841c0-5.256 2.34-10.275 6.468-13.529 6.917-5.453 11.358-13.903 11.358-23.394z" fill="#ffe352"/><path d="m423.259 171.546h23.915v14.344h-23.915z" fill="#edeff1"/><path d="m425.631 185.891h19.171v7.172h-19.171z" fill="#6e83b7"/><path d="m432.217 139.242h6v32.305h-6z" fill="#ffb236"/><path d="m452.184 139.242h-6c0-2.197-1.787-3.984-3.983-3.984s-3.983 1.787-3.983 3.984h-6c0-5.506 4.479-9.984 9.983-9.984s9.983 4.478 9.983 9.984z" fill="#ffb236"/><path d="m438.217 139.242h-6c0-2.197-1.787-3.984-3.983-3.984s-3.983 1.787-3.983 3.984h-6c0-5.506 4.479-9.984 9.983-9.984s9.983 4.478 9.983 9.984z" fill="#ffb236"/><path d="m461.567 193.898-.732-3.004-12.04-.09c-.223 0-.443.01-.667.03-.021.001-.042.005-.063.007l.928 6.023c.417 2.703-.832 5.391-3.166 6.816l-5.952 3.634c-1.289.787-2.784 1.099-4.248.943-.933 3.825.336 7.871 3.347 10.478l11.467 9.919c1.915 1.665 4.376 2.582 6.931 2.582l1.148-.014c3.247-.044 6.091-2.152 7.077-5.245l1.771-5.556c.097-.304.351-.535.662-.605l4.644-1.034 2.178-6.833c.897-2.815.072-5.896-2.114-7.885z" fill="#fcb98b"/><path d="m474.85 211.951-1.122 3.521-6.351 1.415c-1.355.302-2.447 1.301-2.868 2.623l-1.771 5.555c-.593 1.859-2.308 3.13-4.259 3.156l-1.027.014c-1.854.02-3.646-.631-5.044-1.846l-11.472-9.923c-2.287-1.982-3.172-5.128-2.254-8.008l2.993-9.39c.948-2.974 3.624-5.048 6.693-5.244.189-.019.373-.024.561-.019l12.638.094 11.172 10.168c2.184 1.982 3.009 5.069 2.111 7.884z" fill="#ffd3b3"/><path d="m443.932 219.324-2.857-.91 5.232-16.416c.768-2.408 2.979-4.095 5.506-4.197l5.666-.228.121 2.998-5.666.228c-1.271.051-2.383.899-2.77 2.11z" fill="#fcb98b"/><path d="m451.915 226.628-2.857-.91 5.116-16.051c.699-2.192 2.545-3.774 4.816-4.131l3.911-.611.463 2.965-3.91.611c-1.143.179-2.07.975-2.423 2.077z" fill="#fcb98b"/><path d="m427.155 242.803h12.524v2.999h-12.524z" fill="#fcb98b" transform="matrix(.304 -.953 .953 .304 69.096 583.13)"/><path d="m222 214h34v42l-23.419 24.175c-4.333 4.472-11.694 3.97-15.295-1.11-5.632-7.945-12.286-20.954-12.286-38.065 0 0 .625-22.5 17-27z" fill="#edeff1"/><path d="m290 214h-34v42l23.419 24.175c4.333 4.472 11.694 3.97 15.295-1.11 5.632-7.945 12.286-20.954 12.286-38.065 0 0-.625-22.5-17-27z" fill="#edeff1"/><path d="m290 222v-8l-7-3v-36h-54v36l-7 3v8c0 18.778 15.222 34 34 34 18.778 0 34-15.222 34-34z" fill="#ffd3b3"/><path d="m314 92h6.598c6.041 0 10.703 5.315 9.915 11.305l-2.597 19.739c-.524 3.981-3.917 6.956-7.932 6.956h-5.984z" fill="#ffd3b3"/><path d="m198 92h-6.598c-6.041 0-10.703 5.315-9.915 11.305l2.597 19.739c.524 3.981 3.917 6.956 7.932 6.956h5.984z" fill="#ffd3b3"/><path d="m229 194.396c8.282 3.598 17.41 5.604 27 5.604s18.718-2.006 27-5.604v-13.396h-54z" fill="#fcb98b"/><path d="m314 132c0 32.033-25.967 58-58 58s-58-25.967-58-58v-76h116z" fill="#ffd3b3"/><path d="m256 5c-35.899 0-65 29.101-65 65v22h7v24c2.083-18.583 14-20 14-20 36.667-7.333 44-29 44-29s7.333 21.667 44 29c0 0 11.917 1.417 14 20v-24h7v-22c0-35.899-29.101-65-65-65z" fill="#6e83b7"/><path d="m259 149h-9.842l3.931-15.728 5.821 1.456-2.068 8.272h2.158z" fill="#fcb98b"/><path d="m284 142h-10c-2.209 0-4-1.791-4-4 0-2.209 1.791-4 4-4h10c2.209 0 4 1.791 4 4 0 2.209-1.791 4-4 4z" fill="#ffc69f"/><path d="m228 142h10c2.209 0 4-1.791 4-4 0-2.209-1.791-4-4-4h-10c-2.209 0-4 1.791-4 4 0 2.209 1.791 4 4 4z" fill="#ffc69f"/><path d="m375.39 331.346 17.042-53.56 4.004 10.761-19.436 63.453c-3.206-6.412-3.784-13.822-1.61-20.654z" fill="#46bee8"/><path d="m416.052 266.08 36.827 10.692 6.121-20.772-48-15-3.076 10.041c-1.961 6.403 1.698 13.172 8.128 15.039z" fill="#edeff1"/><circle cx="417" cy="253" fill="#ffe352" r="5"/><path d="m265.879 168.121-2.121-2.121h-15.515l-2.122 2.121-4.242-4.242 3.878-3.879h20.485l3.879 3.879z" fill="#fcb98b"/><path d="m198 97v8h8v18c0 4.418 3.582 8 8 8h26c4.418 0 8-3.582 8-8v-18h8 8v18c0 4.418 3.582 8 8 8h26c4.418 0 8-3.582 8-8v-18h8v-8z" fill="#ffb0aa"/><path d="m272 125c-1.103 0-2-.897-2-2v-20h30v20c0 1.103-.897 2-2 2z" fill="#80d6fb"/><path d="m242 123v-20h-30v20c0 1.105.895 2 2 2h26c1.105 0 2-.895 2-2z" fill="#80d6fb"/></svg>