<svg id="Layer_1" enable-background="new 0 0 512 512" height="512" viewBox="0 0 512 512" width="512" xmlns="http://www.w3.org/2000/svg"><path d="m344 507h-176l72-134-28.441-130 88.932.114-28.491 129.886z" fill="#edeff1"/><path d="m124.497 110.182c2.011-2.816 1.542-6.7-1.08-8.958-2.874-2.474-7.227-2.067-9.593.896 0 0-4.328 5.891-7.282 9.876-.181.244-.38.47-.586.687-1.411 1.487-3.374 2.319-5.429 2.311l7.68 17.802 8.101-11.148z" fill="#ffd3b3"/><path d="m97.878 113.197.002.002c2.514 2.514 6.63 2.384 8.979-.285l92.268-105.491c.509-.578.481-1.452-.063-1.996-.57-.57-1.494-.57-2.064 0l-99.122 99.059c-2.406 2.406-2.406 6.306 0 8.711z" fill="#466089"/><path d="m101.713 139.955.001-.002c1.906-.516 2.948-1.97 3.98-3.414l2.576-3.688-7.712-17.829c-.356-.001-.729-.034-1.088-.087l-.11-.022c-2.286-.34-4.27-1.767-5.321-3.825l-3.604-7.061c-1.358-2.694-.965-5.941.999-8.232l12.043-11.153 4.235 2.145-.345 2.726c-.394 3.114 1.669 6.008 4.741 6.652 3.36.704 6.628-1.536 7.182-4.924l.774-4.73c.628-3.838-1.223-7.657-4.624-9.543l-8.57-4.752c-3.223-1.787-7.2-1.481-10.112.777l-4.479 3.474-10.905 9.231-16.386 3.026c-3.206.592-5.773 2.999-6.571 6.16l-7.03 27.868c-.82 3.252-.386 6.693 1.217 9.64l2.999 5.512c1.002 1.841 1.273 3.992.761 6.025l-.655 2.595 37.627 10.854 2.686-10.382c.773-3.068 2.947-5.557 5.691-7.041z" fill="#ffd3b3"/><path d="m97.04 114.14c-1.271-.681-2.328-1.735-3-3.052l-3.604-7.062c-1.358-2.694-.965-5.941.999-8.232l4.762-4.411c-.201-.168-.408-.332-.622-.486-.252-.191-.507-.359-.738-.494l-11.052-6.749-2.412 2.042-16.386 3.026c-3.206.592-5.773 2.999-6.571 6.16l-1.848 7.324 3.879 3.798c.331.324.466.804.353 1.252l-1.573 6.236c-.844 3.345.542 6.841 3.447 8.699l.961.614c1.831 1.164 3.938 1.779 6.093 1.779.6 0 1.204-.048 1.788-.143l16.531-2.624c4.229-.673 7.681-3.651 8.993-7.677z" fill="#fcb98b"/><path d="m58.416 94.885-.997 3.953 5.129 5.023c1.094 1.071 1.536 2.643 1.162 4.128l-1.573 6.237c-.527 2.087.342 4.278 2.155 5.437l.954.61c1.727 1.098 3.785 1.531 5.802 1.206l16.528-2.624c3.298-.527 5.958-2.96 6.774-6.194l2.66-10.543c.842-3.339-.459-6.84-3.221-8.81-.166-.128-.335-.239-.515-.345l-11.9-7.268-16.389 3.029c-3.202.587-5.772 3-6.569 6.161z" fill="#ffd3b3"/><path d="m86.163 120.563-2.909-.734 4.65-18.432c.359-1.423-.216-2.932-1.43-3.756l-5.177-3.511 1.684-2.482 5.177 3.511c2.255 1.528 3.322 4.331 2.656 6.973z" fill="#fcb98b"/><path d="m74.429 122.763-2.909-.734 4.546-18.022c.327-1.295-.099-2.641-1.111-3.512l-3.309-2.849 1.957-2.273 3.309 2.849c1.879 1.617 2.669 4.115 2.063 6.52z" fill="#fcb98b"/><path d="m73.633 146.241h10.52v3h-10.52z" fill="#fcb98b" transform="matrix(.232 -.973 .973 .232 -83.111 190.239)"/><path d="m333 177.165c-2.159-11.226-8.606-19.65-15.236-25.605 2.09-6.376 3.236-13.18 3.236-20.255v-40h-130v40c0 35.898 29.101 65 65 65 5.91 0 11.629-.803 17.071-2.281l-.071.141c20.333-7 36 10 36 10 26.333 30.333 65 14 65 14-26.333-.334-37.272-21.613-41-41z" fill="#6e83b7"/><path d="m475.555 207.695-6.458 20.799c-2.747 8.848-7.622 16.887-14.197 23.413l-5.091 5.054-31.447-9.764-1.334-7.048c-1.722-9.103-1.186-18.489 1.561-27.336l6.458-20.799z" fill="#ffd3b3"/><path d="m434.594 205.855-12.627-3.921-3.378 10.878c-.544 1.751-.975 3.527-1.345 5.313.475.232.966.442 1.486.604l14.431 4.481c3.425 1.064 6.992.257 9.598-1.837.328-.099.651-.213.968-.343 1.276 1.953 3.211 3.49 5.607 4.234s4.862.573 7.02-.314c1.276 1.953 3.211 3.49 5.607 4.234 2.391.742 4.851.574 7.005-.308.041-.129.092-.254.132-.383l6.458-20.799-37.881-11.762z" fill="#fcb98b"/><path d="m437.521 253.009-3.874-.995c.179-.697 4.527-17.112 17.815-20.689l1.039 3.863c-11.017 2.965-14.941 17.672-14.98 17.821z" fill="#fcb98b"/><path d="m437.674 195.933-12.627-3.921 12.042-38.782c1.083-3.487 4.787-5.436 8.274-4.353 3.487 1.083 5.436 4.787 4.353 8.274z" fill="#ffd3b3"/><path d="m437.826 217.736c-3.487-1.083-5.436-4.787-4.353-8.274l7.281-23.45c1.083-3.487 4.787-5.436 8.274-4.353 3.487 1.083 5.436 4.787 4.353 8.274l-7.281 23.45c-1.082 3.487-4.787 5.436-8.274 4.353z" fill="#ffd3b3"/><path d="m446.1 213.383.436-1.403c-.503-3.91-3.21-7.369-7.215-8.613l-3.608-1.12-2.24 7.215c-1.083 3.487.866 7.191 4.353 8.274s7.192-.866 8.274-4.353z" fill="#fcb98b"/><g fill="#ffd3b3"><path d="m442.554 215.248c-1.083 3.487-4.787 5.436-8.274 4.353l-14.431-4.481c-3.487-1.083-5.436-4.787-4.353-8.274 1.083-3.487 4.787-5.436 8.274-4.353l14.431 4.481c3.487 1.083 5.436 4.788 4.353 8.274z"/><path d="m450.453 221.657c-3.487-1.083-5.436-4.787-4.353-8.274l6.441-20.744c1.083-3.487 4.787-5.436 8.274-4.353 3.487 1.083 5.436 4.787 4.353 8.274l-6.441 20.744c-1.083 3.486-4.787 5.435-8.274 4.353z"/><path d="m463.08 225.577c-3.487-1.083-5.436-4.787-4.353-8.274l4.761-15.333c1.083-3.487 4.787-5.436 8.274-4.353 3.487 1.083 5.436 4.787 4.353 8.274l-4.761 15.333c-1.083 3.487-4.787 5.436-8.274 4.353z"/></g><path d="m459 256.527-48-15-14.564 47.547-7.837-21.061c-6.663-17.908-21.457-31.571-39.837-36.792l-.762-.216v-.005l-42-13-34 155v81.582c0 17.34 11.173 32.706 27.668 38.052l44.332 14.366-12-97 16-81v-1.473l19.87 57.955c8.815 25.709 45.401 25.049 53.283-.96z" fill="#6e83b7"/><path d="m375.39 331.873 17.042-53.56 4.004 10.761-19.436 63.453c-3.206-6.412-3.784-13.822-1.61-20.654z" fill="#466089"/><path d="m213.452 279.976 23.029-27.133 16.331 10.24h6.376l16.266-10.2 22.933 27.825 6.699-30.54v-7.168h-98.172v7.17z" fill="#d3d3d3"/><path d="m306 218 28 34-20 27 5 53-47 41z" fill="#859cc1"/><path d="m206 218-42 13-85.019 14.004 20-86-52-15-29.537 116.635c-4.801 18.957 9.527 37.365 29.082 37.365l117.474-.004v31l16 81-12 97 44.332-14.367c16.495-5.345 27.668-20.711 27.668-38.051v-81.582z" fill="#6e83b7"/><path d="m206 218-28 34 20 27-5 53 47 41z" fill="#859cc1"/><path d="m256 258 33.1-41-5.1-6v-36h-28-28v36l-5.1 6z" fill="#ffd3b3"/><path d="m256 258-20.732-13-18.551 21.857-10.717-48.857 22-24v17l-5 6z" fill="#edeff1"/><path d="m256 258 20.732-13 18.438 22.371 10.83-49.371-22-24v17l5 6z" fill="#edeff1"/><path d="m198.2 92h-6.598c-6.041 0-10.703 5.315-9.915 11.305l2.597 19.739c.524 3.981 3.917 6.956 7.932 6.956h5.984z" fill="#ffd3b3"/><path d="m228 175v18.852c8.598 3.936 18.143 6.148 28.2 6.148 9.902 0 19.306-2.145 27.8-5.967v-19.033h-28z" fill="#fcb98b"/><path d="m314.2 132c0 32.033-25.967 58-58 58s-58-25.967-58-58v-56.5h116z" fill="#ffd3b3"/><path d="m321.2 70v22h-26.29l-5.71-15-5.71 15h-21.58l-5.71-15-5.71 15h-21.58l-5.71-15-5.71 15h-26.29v-22c0-35.898 29.101-65 65-65 35.899 0 65 29.101 65 65z" fill="#6e83b7"/><path d="m198.2 131 10-39h-10z" fill="#6e83b7"/><path d="m259.2 149h-9.842l3.932-15.728 5.82 1.456-2.067 8.272h2.157z" fill="#fcb98b"/><path d="m247.955 103.594s-17.411-6.146-32.71 5.298c0 0 13.481-4.327 30.136.897z" fill="#6e83b7"/><path d="m264.045 103.594s17.411-6.146 32.71 5.298c0 0-13.481-4.327-30.136.897z" fill="#6e83b7"/><path d="m256.2 168c-6.188 0-10.306-2.292-10.479-2.39l2.957-5.221c.011.006 2.996 1.61 7.521 1.61 4.551 0 7.493-1.595 7.521-1.61l2.957 5.221c-.17.098-4.288 2.39-10.477 2.39z" fill="#fcb98b"/><path d="m284.2 142h-10c-2.209 0-4-1.791-4-4 0-2.209 1.791-4 4-4h10c2.209 0 4 1.791 4 4 0 2.209-1.79 4-4 4z" fill="#ffc69f"/><path d="m228.2 142h10c2.209 0 4-1.791 4-4 0-2.209-1.791-4-4-4h-10c-2.209 0-4 1.791-4 4 0 2.209 1.791 4 4 4z" fill="#ffc69f"/><path d="m236.2 118c-.022 0-.044.003-.067.003-.62.028-5.516.18-7.933-2.003 0 0 .619 2.919 2.817 4.987-.516.886-.817 1.913-.817 3.013 0 3.314 2.686 6 6 6s6-2.686 6-6-2.686-6-6-6z" fill="#6e83b7"/><path d="m276.2 118c.022 0 .044.003.067.003.62.028 5.516.18 7.933-2.003 0 0-.619 2.919-2.817 4.987.516.886.817 1.913.817 3.013 0 3.314-2.686 6-6 6s-6-2.686-6-6 2.687-6 6-6z" fill="#6e83b7"/><path d="m314.2 92h6.598c6.041 0 10.703 5.315 9.915 11.305l-2.597 19.739c-.524 3.981-3.917 6.956-7.932 6.956h-5.984z" fill="#ffd3b3"/><path d="m314.2 131-10-39h10z" fill="#6e83b7"/><path d="m261 280.807h-10c-2.209 0-4-1.791-4-4v-18c0-2.209 1.791-4 4-4h10c2.209 0 4 1.791 4 4v18c0 2.209-1.791 4-4 4z" fill="#ffb0aa"/><path d="m265 276.807 29.844 8.937c3.849 1.153 7.721-1.73 7.721-5.748v-2.671c0-1.681-.424-3.336-1.233-4.81l-2.583-4.708 2.583-4.708c.809-1.474 1.233-3.128 1.233-4.81v-2.671c0-4.018-3.872-6.9-7.721-5.748l-29.844 8.937z" fill="#ffb0aa"/><path d="m265 276.807 3.905 1.169c.057-.383.095-.771.095-1.169v-18c0-.398-.039-.786-.095-1.169l-3.905 1.169z" fill="#ff7b7b"/><path d="m247 276.807-29.844 8.937c-3.849 1.153-7.721-1.73-7.721-5.748v-2.671c0-1.681.424-3.336 1.233-4.81l2.583-4.708-2.583-4.708c-.809-1.474-1.233-3.128-1.233-4.81v-2.671c0-4.018 3.872-6.9 7.721-5.748l29.844 8.937z" fill="#ffb0aa"/><path d="m247 276.807-3.905 1.169c-.057-.383-.095-.771-.095-1.169v-18c0-.398.039-.786.095-1.169l3.905 1.169z" fill="#ff7b7b"/></svg>