<svg id="Layer_1" enable-background="new 0 0 512 512" height="512" viewBox="0 0 512 512" width="512" xmlns="http://www.w3.org/2000/svg"><path d="m366.737 236.698-13.344-4.448-48.184-15.378-49.209 157.879-49.209-157.879-48.184 15.378-13.344 4.448c-15.908 5.302-26.638 20.19-26.638 36.958v233.344h274.75v-233.344c0-16.768-10.73-31.656-26.638-36.958z" fill="#edeff1"/><path d="m165.859 352.197h6v154.803h-6z" fill="#d3d3d3"/><path d="m182.424 253.119 24.367-36.247 49.209 157.879-55.702-76.547 5.258-22.896z" fill="#d3d3d3"/><path d="m340.141 352.197h6v154.803h-6z" fill="#d3d3d3"/><path d="m329.576 253.119-24.367-36.247-49.209 157.879 55.702-76.547-5.258-22.896z" fill="#d3d3d3"/><path d="m253 369.554h6v137.446h-6z" fill="#d3d3d3"/><path d="m206.791 216.872 49.209 157.879 49.209-157.879-20.504-15.378h-57.41z" fill="#80d6fb"/><path d="m284.705 201.494-28.705 28.706-28.705-28.706-20.504 15.378 4.281 13.734 22.307 33.229 19.23-27.355 3.391-1.696 3.391 1.696 19.23 27.355 22.307-33.229 4.281-13.734z" fill="#46bee8"/><path d="m227.295 201.494-20.504 15.378 26.666 39.722 16.392-23.319 6.151-3.075z" fill="#80d6fb"/><path d="m284.705 201.494 20.504 15.378-26.666 39.722-16.392-23.319-6.151-3.075z" fill="#80d6fb"/><path d="m256 173.814h-28.705v27.68l28.705 28.706 28.705-28.706v-27.68z" fill="#ffd3b3"/><path d="m227.295 188.167c8.544 3.815 18.757 6.151 28.705 6.151s20.161-2.336 28.705-6.151v-14.353h-57.41z" fill="#fcb98b"/><path d="m256 43.957h-61.511v80.648c0 33.972 27.54 61.511 61.511 61.511s61.511-27.54 61.511-61.511v-80.648z" fill="#ffd3b3"/><path d="m256.66 167.587c-8.659 0-14.94-7.064-15.203-7.365l4.509-3.958c.047.053 4.792 5.323 10.694 5.323h.034c3.379-.012 6.652-1.8 9.728-5.316l4.516 3.951c-4.276 4.887-9.08 7.365-14.278 7.365z" fill="#fcb98b"/><circle cx="233.651" cy="110.349" fill="#6e83b7" r="6.151"/><circle cx="278.76" cy="110.349" fill="#6e83b7" r="6.151"/><path d="m262.652 140.382h-14.209l1.487-17.846 5.98.498-.946 11.348h7.688z" fill="#fcb98b"/><path d="m245.621 87.612s-19.058-7.907-35.277 6.082c0 0 18.855-4.866 31.628 1.216z" fill="#6e83b7"/><path d="m264.126 87.612s19.058-7.907 35.277 6.082c0 0-18.855-4.866-31.628 1.216z" fill="#6e83b7"/><path d="m194.489 82.573h-7.125c-6.065 0-10.805 5.237-10.201 11.272l2.05 20.504c.524 5.241 4.934 9.232 10.201 9.232h5.075z" fill="#ffd3b3"/><path d="m317.511 82.573h7.125c6.065 0 10.805 5.237 10.201 11.272l-2.05 20.504c-.524 5.241-4.934 9.232-10.201 9.232h-5.075z" fill="#ffd3b3"/><path d="m277.221 70.383 6.823-2.515c6.004-2.213 12.747-.133 16.46 5.079l1.015 1.424 16.403 28.705v-20.503h7.176v-21.871c0-30.763-24.938-55.702-55.701-55.702h-26.382c-30.763 0-55.702 24.939-55.702 55.702v21.871h7.176v20.504l16.403-28.705 1.015-1.424c3.713-5.211 10.456-7.292 16.46-5.079 0 0 2.895 1.067 6.818 2.513 13.564 4.999 28.472 5.001 42.036.001z" fill="#6e83b7"/><path d="m171.859 300.938h-6v-48.15c0-15.362 5.954-29.833 16.765-40.748l3.532-3.565c10.799-10.903 25.794-17.156 41.14-17.156v6c-13.756 0-27.197 5.605-36.877 15.378l-3.532 3.565c-9.69 9.784-15.027 22.756-15.027 36.526v48.15z" fill="#6e83b7"/><circle cx="168.859" cy="319.476" fill="#d3d3d3" r="19.479"/><g fill="#6e83b7"><circle cx="168.859" cy="319.476" r="10.252"/><path d="m346.141 263.835h-6v-11.047c0-13.77-5.337-26.742-15.027-36.525l-3.532-3.566c-9.68-9.773-23.121-15.378-36.877-15.378v-6c15.346 0 30.341 6.253 41.14 17.156l3.532 3.566c10.811 10.915 16.765 25.386 16.765 40.748v11.046z"/><path d="m382.838 348.704h-13.726v-6h7.726v-42.172c0-18.581-15.117-33.697-33.697-33.697-18.581 0-33.698 15.117-33.698 33.697v42.172h7.726v6h-13.726v-48.172c0-21.889 17.808-39.697 39.697-39.697 21.89 0 39.698 17.808 39.698 39.697z"/><path d="m382.838 316.765h-6c0-18.581-15.117-33.698-33.697-33.698-18.581 0-33.698 15.117-33.698 33.698h-6c0-21.89 17.808-39.698 39.697-39.698 21.89 0 39.698 17.808 39.698 39.698z"/><path d="m317.163 352.88h-.202c-2.209 0-4-1.791-4-4v-6.353c0-2.209 1.791-4 4-4h.202c2.209 0 4 1.791 4 4v6.353c0 2.209-1.79 4-4 4z"/><path d="m369.118 352.88h.202c2.209 0 4-1.791 4-4v-6.353c0-2.209-1.791-4-4-4h-.202c-2.209 0-4 1.791-4 4v6.353c0 2.209 1.791 4 4 4z"/></g></svg>