<svg id="Layer_1" enable-background="new 0 0 512 512" height="512" viewBox="0 0 512 512" width="512" xmlns="http://www.w3.org/2000/svg"><path d="m319.984 130s.35 97.667 49.683 123h-113.667-113.667c49.333-25.333 49.683-123 49.683-123z" fill="#ffb236"/><path d="m393.67 372.55-9.47-109.02c-1.05-11.98-8.7-22.36-19.84-26.88l-81.102-24.944h-27.258l-27.258-.166-81.102 25.11c-11.14 4.52-18.79 14.9-19.84 26.88l-9.47 109.02c-.55 6.27.615 12.58 2.965 18.41l37.705 93.04v23h97 97v-23l37.705-93.04c2.35-5.83 3.515-12.14 2.965-18.41z" fill="#6e83b7"/><path d="m336.866 292.853h6.001v76.981h-6.001z" fill="#466089" transform="matrix(.996 -.093 .093 .996 -29.391 33.104)"/><path d="m347.277 368.739-4.889-3.479c.261-.367 6.528-8.99 17.944-8.99v6c-8.355.001-13.009 6.405-13.055 6.469z" fill="#466089"/><path d="m364.361 384.732c-5.533-14.563-19.388-14.732-19.528-14.732v-6c.738 0 18.149.212 25.138 18.602z" fill="#466089"/><path d="m133.642 328.343h76.981v6.001h-76.981z" fill="#466089" transform="matrix(.093 -.996 .996 .093 -173.796 471.885)"/><path d="m164.73 368.752c-.192-.265-4.809-6.481-13.064-6.481v-6c11.416 0 17.684 8.623 17.944 8.99z" fill="#466089"/><path d="m147.638 384.732-5.609-2.131c6.988-18.39 24.399-18.602 25.138-18.602l.014 6c-.574.006-14.056.292-19.543 14.733z" fill="#466089"/><path d="m167.166 354v40.978 73.105h177.667v-73.105-40.978z" fill="#ffb0aa"/><g fill="#ffd3b3"><path d="m354.256 484c-3.774 0-6.833-3.059-6.833-6.833v-19.833c0-3.774 3.059-6.833 6.833-6.833 3.774 0 6.833 3.059 6.833 6.833v19.833c0 3.774-3.059 6.833-6.833 6.833z"/><path d="m340.589 484c-3.774 0-6.833-3.059-6.833-6.833v-23.583c0-3.774 3.059-6.833 6.833-6.833 3.774 0 6.833 3.059 6.833 6.833v23.583c.001 3.774-3.059 6.833-6.833 6.833z"/><path d="m326.923 484c-3.774 0-6.833-3.059-6.833-6.833v-27.958c0-3.774 3.059-6.833 6.833-6.833 3.774 0 6.833 3.059 6.833 6.833v27.958c0 3.774-3.059 6.833-6.833 6.833z"/><path d="m313.256 484c-3.774 0-6.833-3.059-6.833-6.833v-23.583c0-3.774 3.059-6.833 6.833-6.833 3.774 0 6.833 3.059 6.833 6.833v23.583c0 3.774-3.059 6.833-6.833 6.833z"/><path d="m157.743 484c3.774 0 6.833-3.059 6.833-6.833v-19.833c0-3.774-3.059-6.833-6.833-6.833-3.774 0-6.833 3.059-6.833 6.833v19.833c0 3.774 3.059 6.833 6.833 6.833z"/><path d="m171.41 484c3.774 0 6.833-3.059 6.833-6.833v-23.583c0-3.774-3.059-6.833-6.833-6.833-3.774 0-6.833 3.059-6.833 6.833v23.583c0 3.774 3.059 6.833 6.833 6.833z"/><path d="m185.077 484c3.774 0 6.833-3.059 6.833-6.833v-27.958c0-3.774-3.059-6.833-6.833-6.833-3.774 0-6.833 3.059-6.833 6.833v27.958c-.001 3.774 3.059 6.833 6.833 6.833z"/><path d="m198.743 484c3.774 0 6.833-3.059 6.833-6.833v-23.583c0-3.774-3.059-6.833-6.833-6.833-3.774 0-6.833 3.059-6.833 6.833v23.583c0 3.774 3.059 6.833 6.833 6.833z"/></g><path d="m167.166 321.873h177.667v32.127h-177.667z" fill="#ffb0aa"/><path d="m232.666 321.873h46.667v32.127h-46.667z" fill="#ffe352"/><path d="m235.666 359.27h40.667v108.813h-40.667z" fill="#ffe352"/><path d="m167.166 354h177.667v5.27h-177.667z" fill="#f76161"/><path d="m235.75 354h40.5v5.27h-40.5z" fill="#ffb236"/><path d="m256 304.75 38.041-13.882c7.146-2.608 14.709 2.683 14.709 10.29v20.715h-52.75z" fill="#ffe352"/><path d="m256 304.75-38.041-13.882c-7.146-2.608-14.709 2.683-14.709 10.29v20.715h52.75z" fill="#ffe352"/><path d="m268.75 301c0-.299-.015-.595-.045-.886l-12.705 4.636v17.123h12.75z" fill="#ffb236"/><path d="m243.25 301c0-.299.015-.595.045-.886l12.705 4.636v17.123h-12.75z" fill="#ffb236"/><path d="m266.75 321.873h-21.5v-20.873c0-3.728 3.022-6.75 6.75-6.75h8c3.728 0 6.75 3.022 6.75 6.75z" fill="#ffe352"/><path d="m283.258 211.706h-27.258l-27.258-.166-14.742 4.564v5.896c0 23.159 18.841 42 42 42s42-18.841 42-42v-5.76z" fill="#466089"/><path d="m290 222v-8l-7-3v-36h-54v36l-7 3v8c0 18.778 15.222 34 34 34 18.778 0 34-15.222 34-34z" fill="#ffd3b3"/><path d="m314 92h6.598c6.041 0 10.703 5.315 9.915 11.305l-2.597 19.739c-.524 3.981-3.917 6.956-7.932 6.956h-5.984z" fill="#ffd3b3"/><path d="m198 92h-6.598c-6.041 0-10.703 5.315-9.915 11.305l2.597 19.739c.524 3.981 3.917 6.956 7.932 6.956h5.984z" fill="#ffd3b3"/><path d="m229 194.396c8.282 3.598 17.41 5.604 27 5.604s18.718-2.006 27-5.604v-13.396h-54z" fill="#fcb98b"/><path d="m314 132c0 32.033-25.967 58-58 58s-58-25.967-58-58v-76h116z" fill="#ffd3b3"/><path d="m245.937 103.078s-17.793-7.382-32.937 5.679c0 0 17.604-4.543 29.529 1.136z" fill="#ffb236"/><path d="m266.063 103.078s17.793-7.382 32.937 5.679c0 0-17.604-4.543-29.529 1.136z" fill="#ffb236"/><path d="m256 70s3 20.667 35.333 26.333c0 0 11.917 1.792 17.818 20.24l4.849 13.427v-38h7v-22c0-35.898-29.101-65-65-65-35.898 0-65 29.101-65 65v22h7v38l4.849-13.427c5.901-18.448 17.818-20.24 17.818-20.24 32.333-5.666 35.333-26.333 35.333-26.333z" fill="#ffb236"/><path d="m259 149h-9.843l3.933-15.728 5.82 1.456-2.067 8.272h2.157z" fill="#fcb98b"/><path d="m284 142h-10c-2.209 0-4-1.791-4-4 0-2.209 1.791-4 4-4h10c2.209 0 4 1.791 4 4 0 2.209-1.791 4-4 4z" fill="#ffc69f"/><path d="m228 142h10c2.209 0 4-1.791 4-4 0-2.209-1.791-4-4-4h-10c-2.209 0-4 1.791-4 4 0 2.209 1.791 4 4 4z" fill="#ffc69f"/><path d="m236 116c-.022 0-.044.003-.067.003-.62.028-5.516.18-7.933-2.003 0 0 .619 2.919 2.817 4.987-.516.887-.817 1.914-.817 3.013 0 3.314 2.686 6 6 6s6-2.686 6-6-2.686-6-6-6z" fill="#6e83b7"/><path d="m276 116c.022 0 .044.003.067.003.62.028 5.516.18 7.933-2.003 0 0-.619 2.919-2.817 4.987.516.886.817 1.913.817 3.013 0 3.314-2.686 6-6 6s-6-2.686-6-6 2.686-6 6-6z" fill="#6e83b7"/><path d="m246 158h20l-.106.425c-1.113 4.452-5.113 7.575-9.701 7.575h-.384c-4.589 0-8.589-3.123-9.701-7.575z" fill="#edeff1"/></svg>