<svg id="Layer_1" enable-background="new 0 0 512 512" height="512" viewBox="0 0 512 512" width="512" xmlns="http://www.w3.org/2000/svg"><path d="m352.71 236.664-49.944-14.864h-46.566-46.566l-49.944 14.864c-26.969 8.027-45.459 32.821-45.459 60.959v93.57h49.969v115.9h92 92v-115.9h49.968v-93.57c.001-28.138-18.489-52.932-45.458-60.959z" fill="#edeff1"/><path d="m164.2 291.194v13.518l-7.809-7.809-4.243 4.243 12.051 12.051v110.633c3.768-5.131 6-11.457 6-18.297v-114.34h-5.999z" fill="#d3d3d3"/><path d="m139.216 430.518c13.798 0 24.984-11.186 24.984-24.984v-90.764h-49.968v90.763c0 13.799 11.186 24.985 24.984 24.985z" fill="#edeff1"/><path d="m157.75 293.921-17.319-18.026c-2.873-2.99-6.985-4.456-11.102-3.958l-6.794.823-10.847-12.613c-1.998-2.323-5.404-2.816-7.979-1.155-3.101 2.001-3.747 6.267-1.377 9.096l8.662 10.339 4.871 4.871z" fill="#fcb98b"/><path d="m149.44 304.003v-15.615l-10.224-2.461-28.224-7.5-23.552-6.847-8.816-11.637c-2.107-2.782-5.952-3.568-8.982-1.836-3.604 2.059-4.609 6.798-2.151 10.143l8.214 11.178c2.118 2.882 4.969 5.143 8.257 6.548l21.052 8.997c2.101.898 4.341 1.429 6.621 1.571l12.554.779v6.681h25.251z" fill="#ffd3b3"/><path d="m67.916 259.5c.737-.193 1.497-.294 2.262-.294 2.786 0 5.453 1.325 7.134 3.544l8.373 11.051 19.319 4.293h4.843l1.146.333 28.224 7.5 6.141 1.478 3.176 4.344v12.254h-24.344v-6.681l-12.554-.779c-2.281-.141-4.52-.673-6.621-1.571l-21.052-8.997c-3.288-1.405-6.14-3.667-8.257-6.548l-8.214-11.178c-2.003-2.725-1.705-6.376.424-8.749z" fill="#fcb98b"/><path d="m146.534 308.018v-15.615l-9-12.309h-32.75l-20.25-4.5-8.816-11.637c-2.107-2.782-5.952-3.568-8.982-1.836-3.604 2.059-4.609 6.798-2.151 10.143l8.214 11.178c2.118 2.882 4.969 5.143 8.257 6.548l21.052 8.997c2.101.898 4.341 1.429 6.621 1.571l12.554.779v6.681z" fill="#ffd3b3"/><path d="m64.319 264.442c1.113-.478 2.312-.736 3.526-.736 2.786 0 5.454 1.325 7.135 3.544l8.372 11.051 19.124 4.25 12.458-2.457h22.601l9 12.309v15.615h-25.25v-6.681l-12.554-.779c-2.281-.141-4.52-.673-6.621-1.571l-21.052-8.997c-3.288-1.405-6.14-3.666-8.257-6.548l-8.214-11.178c-1.76-2.392-1.738-5.494-.268-7.822z" fill="#fcb98b"/><path d="m161.083 314.77v-13.396c0-2.846-1.212-5.556-3.333-7.454l-11.107-9.934c-4.677-4.183-11.046-5.929-17.203-4.715l-26.99 5.322-20.25-4.5-8.816-11.637c-2.107-2.782-5.952-3.568-8.982-1.836-3.604 2.059-4.609 6.798-2.151 10.143l8.214 11.178c2.118 2.882 4.969 5.143 8.257 6.548l21.052 8.997c2.101.898 4.341 1.429 6.621 1.571l7.33.455c2.936.182 5.223 2.616 5.223 5.557v3.701z" fill="#ffd3b3"/><path d="m348.2 313.197 12.051-12.051-4.243-4.243-7.809 7.808v-13.518h-6v114.34c0 6.84 2.232 13.166 6 18.297v-110.633z" fill="#d3d3d3"/><path d="m164.2 491.194v15.9h92 92v-15.9h-92z" fill="#7c93bf"/><path d="m245.434 491.194h21.532v15.9h-21.532z" fill="#d3d3d3"/><path d="m302.766 221.8-24.986 37.48-3.408-4.543-4.422 5.405 8.109 11.004 31.353-47.368z" fill="#d3d3d3"/><path d="m209.635 221.8 24.986 37.48 3.407-4.543 4.423 5.405-8.109 11.004-31.353-47.368z" fill="#d3d3d3"/><path d="m264.151 267.23 10.221 192.864-18.172 15.711-18.172-15.711 9.086-192.864z" fill="#ffb0aa"/><path d="m261.743 275.18h-2c0-7.164-3.834-9.246-3.998-9.331l.902-1.785c.208.104 5.096 2.645 5.096 11.116z" fill="#ff7b7b"/><path d="m252.657 275.18h-2c0-8.471 4.888-11.012 5.096-11.116l.902 1.785c-.163.085-3.998 2.168-3.998 9.331z" fill="#ff7b7b"/><path d="m228.942 208.171-19.307 13.629 24.986 37.48 15.901-21.579 5.678-2.272z" fill="#edeff1"/><path d="m283.458 208.171 19.308 13.629-24.986 37.48-15.901-21.579-5.679-2.272z" fill="#edeff1"/><path d="m259.458 235.429h-6.516c-13.255 0-24-10.745-24-24v-39.38h54.516v39.38c0 13.255-10.745 24-24 24z" fill="#ffd3b3"/><path d="m228.942 186.684c8.334 3.721 17.554 5.809 27.258 5.809s18.924-2.087 27.258-5.809v-14.635h-54.516z" fill="#fcb98b"/><path d="m314.123 125.587c0 31.933-25.99 57.82-57.923 57.82s-57.923-25.887-57.923-57.82v-56.891h115.846z" fill="#ffd3b3"/><g fill="#6e83b7"><path d="m244.385 90.868s-19.215-1.378-29.451 15.801c0 0 15.265-9.876 28.374-8.259z"/><path d="m268.182 90.868s19.215-1.378 29.451 15.801c0 0-15.265-9.876-28.374-8.259z"/><circle cx="233.485" cy="106.176" r="5.679"/><circle cx="278.915" cy="106.176" r="5.679"/></g><path d="m314.123 86.868h4.264c6.799 0 12.074 5.933 11.28 12.684l-1.591 13.523c-.832 7.075-6.829 12.408-13.953 12.408z" fill="#ffd3b3"/><path d="m198.277 86.868h-4.264c-6.798 0-12.074 5.933-11.28 12.684l1.591 13.523c.832 7.075 6.829 12.408 13.953 12.408z" fill="#ffd3b3"/><path d="m261.879 237.701-5.679-2.272-5.678 2.272-12.494 17.036 9.086 12.493h9.086 7.951l10.221-12.493z" fill="#ffb0aa"/><path d="m269.185 257.67c-3.186 3.895-7.953 6.153-12.985 6.153h-.543c-5.368 0-10.411-2.568-13.568-6.909l-2.817-3.873-1.244 1.697 9.086 12.493h9.086 7.95l10.222-12.493-1.318-1.797z" fill="#ff7b7b"/><path d="m261.879 140.977h-13.482l1.406-16.878 5.98.498-.866 10.38h6.962z" fill="#fcb98b"/><path d="m298.666 30.094h-.892c-1.681-3.904-5.56-6.639-10.08-6.639-1.787 0-3.469.436-4.96 1.194-3.498-6.545-10.393-11.001-18.333-11.001-.304 0-.601.033-.902.046-5.232-5.119-12.388-8.279-20.286-8.279-14.551 0-26.598 10.712-28.69 24.68h-.79c-11.046 0-19.534 8.954-19.534 20v18.602 18.398h4v13.389l2.82-2.273c2.59-2.158 4.18-5.355 4.18-8.726v-20.789s25 7.648 51 7.648 51-7.648 51-7.648v20.789c0 3.371 1.59 6.568 4.18 8.726l2.82 2.273v-13.39h4v-18.398-18.602c.001-11.046-8.487-20-19.533-20z" fill="#6e83b7"/><path d="m266.118 164.712c-.046-.052-4.653-5.168-10.376-5.168-.012 0-.022 0-.034 0-3.274.011-6.448 1.748-9.434 5.16l-4.516-3.951c4.186-4.783 8.891-7.209 13.983-7.209 8.479 0 14.627 6.915 14.885 7.209l-4.516 3.951 2.258-1.976z" fill="#fcb98b"/><path d="m373.185 430.518c-13.798 0-24.984-11.186-24.984-24.984v-90.764h49.968v90.763c0 13.799-11.186 24.985-24.984 24.985z" fill="#edeff1"/><path d="m354.651 293.921 17.319-18.026c2.873-2.99 6.985-4.456 11.102-3.958l6.794.823 10.847-12.613c1.998-2.323 5.404-2.816 7.978-1.155 3.101 2.001 3.747 6.267 1.377 9.096l-8.662 10.339-4.871 4.871z" fill="#fcb98b"/><path d="m362.961 304.003v-15.615l10.224-2.461 28.224-7.5 23.552-6.848 8.816-11.637c2.107-2.782 5.952-3.568 8.982-1.836 3.604 2.059 4.609 6.798 2.151 10.143l-8.214 11.178c-2.117 2.882-4.969 5.143-8.257 6.548l-21.052 8.997c-2.101.898-4.341 1.429-6.621 1.571l-12.554.779v6.681z" fill="#ffd3b3"/><path d="m444.484 259.5c-.737-.193-1.497-.294-2.262-.294-2.786 0-5.453 1.325-7.134 3.544l-8.373 11.051-19.319 4.293h-4.843l-1.146.333-28.224 7.5-6.141 1.478-3.176 4.344v12.254h24.344v-6.681l12.554-.779c2.281-.141 4.52-.673 6.621-1.571l21.052-8.997c3.288-1.405 6.14-3.667 8.257-6.548l8.214-11.178c2.004-2.725 1.706-6.376-.424-8.749z" fill="#fcb98b"/><path d="m365.867 308.018v-15.615l9-12.309h32.75l20.25-4.5 8.816-11.637c2.107-2.782 5.952-3.568 8.982-1.836 3.604 2.059 4.609 6.798 2.151 10.143l-8.214 11.178c-2.118 2.882-4.969 5.143-8.257 6.548l-21.052 8.997c-2.101.898-4.341 1.429-6.621 1.571l-12.554.779v6.681z" fill="#ffd3b3"/><path d="m448.082 264.442c-1.113-.478-2.312-.736-3.526-.736-2.786 0-5.454 1.325-7.135 3.544l-8.372 11.051-19.124 4.25-12.458-2.457h-22.601l-9 12.309v15.615h25.25v-6.681l12.554-.779c2.281-.141 4.52-.673 6.621-1.571l21.052-8.997c3.288-1.405 6.14-3.666 8.257-6.548l8.214-11.178c1.76-2.392 1.737-5.494.268-7.822z" fill="#fcb98b"/><path d="m351.318 314.77v-13.396c0-2.846 1.212-5.556 3.333-7.454l11.107-9.934c4.677-4.183 11.046-5.929 17.203-4.715l26.99 5.322 20.25-4.5 8.816-11.637c2.107-2.782 5.952-3.568 8.982-1.836 3.604 2.059 4.609 6.798 2.151 10.143l-8.214 11.178c-2.117 2.882-4.969 5.143-8.257 6.548l-21.052 8.997c-2.101.898-4.341 1.429-6.621 1.571l-7.331.455c-2.936.182-5.223 2.616-5.223 5.557v3.701z" fill="#ffd3b3"/><path d="m312.964 356.428 14.927-7.759c2.648-1.377 4.31-4.113 4.31-7.098v-35.733h-19.237-19.237v35.733c0 2.985 1.658 5.72 4.306 7.096 5.671 2.947 14.931 7.761 14.931 7.761z" fill="#d3d3d3"/></svg>