<svg id="Layer_1" enable-background="new 0 0 512 512" height="512" viewBox="0 0 512 512" width="512" xmlns="http://www.w3.org/2000/svg"><path d="m321 150v13c0 26.51-21.49 48-48 48h-17-17c-26.51 0-48-21.49-48-48v-13z" fill="#466089"/><path d="m256 19c18.038 0 33.743 8.295 41.945 20.554.033-.514.055-1.032.055-1.554 0-9.888-5.981-18.376-14.521-22.052-7.167-6.781-16.833-10.948-27.479-10.948s-20.312 4.167-27.479 10.948c-8.54 3.676-14.521 12.164-14.521 22.052 0 .522.022 1.04.055 1.554 8.202-12.259 23.907-20.554 41.945-20.554z" fill="#6e83b7"/><path d="m191 113v87s4.667-41.667 27-53v-34z" fill="#6e83b7"/><path d="m216 467h80v40h-80z" fill="#d3d3d3"/><path d="m256 238h47l-47 126-47-126z" fill="#d3d3d3"/><path d="m426.633 205.462-9.252 32.542 2.341 18.075 31.714 10.207 11.947-13.682 11.206-31.923z" fill="#fcb98b"/><path d="m423.38 253.414h18.677v33.316h-18.677z" fill="#ffd3b3" transform="matrix(.306 -.952 .952 .306 43.059 599.237)"/><path d="m399 134h80v110h-80z" fill="#edeff1"/><path d="m405 145h68v6h-68z" fill="#d3d3d3"/><path d="m405 160h68v6h-68z" fill="#d3d3d3"/><path d="m405 175h68v6h-68z" fill="#d3d3d3"/><path d="m405 190h68v6h-68z" fill="#d3d3d3"/><path d="m405 205h68v6h-68z" fill="#d3d3d3"/><g fill="#6e83b7"><path d="m480.211 126.854h25.87v8h-25.87z" transform="matrix(.707 -.707 .707 .707 51.89 386.995)"/><path d="m507 136h-8v-11h-11v-8h19z"/><path d="m489.147 186.211h8v25.87h-8z" transform="matrix(.707 -.707 .707 .707 3.621 407.036)"/><path d="m507 213h-19v-8h11v-11h8z"/><path d="m380.854 117.918h8v25.87h-8z" transform="matrix(.707 -.707 .707 .707 20.194 310.459)"/><path d="m379 136h-8v-19h19v8h-11z"/><path d="m371.918 195.147h25.87v8h-25.87z" transform="matrix(.707 -.707 .707 .707 -28.108 330.426)"/><path d="m390 213h-19v-19h8v11h11z"/></g><path d="m443.957 220.651-14.359-4.544c-5.51-1.744-11.393 1.293-13.164 6.794-.474 1.473-.617 3.032-.418 4.566l3.706 28.612 16.768 5.397 2.98-7.721c1.909-4.946 1.399-10.499-1.379-15.014l-4.911-7.982 6.944 2.147c3.36 1.039 6.93-.819 8.008-4.167 1.09-3.387-.783-7.014-4.175-8.088z" fill="#ffd3b3"/><path d="m85.367 205.462 9.252 32.542-2.341 18.075-31.714 10.207-11.947-13.682-11.206-31.923z" fill="#fcb98b"/><path d="m62.624 260.734h33.316v18.677h-33.316z" fill="#ffd3b3" transform="matrix(.952 -.306 .306 .952 -78.931 37.278)"/><path d="m33 134h80v110h-80z" fill="#edeff1"/><path d="m39 145h68v6h-68z" fill="#d3d3d3"/><path d="m39 160h68v6h-68z" fill="#d3d3d3"/><path d="m39 175h68v6h-68z" fill="#d3d3d3"/><path d="m39 190h68v6h-68z" fill="#d3d3d3"/><path d="m39 205h68v6h-68z" fill="#d3d3d3"/><path d="m14.854 117.918h8v25.87h-8z" fill="#6e83b7" transform="matrix(.707 -.707 .707 .707 -87.005 51.658)"/><path d="m13 136h-8v-19h19v8h-11z" fill="#6e83b7"/><path d="m5.918 195.147h25.87v8h-25.87z" fill="#6e83b7" transform="matrix(.707 -.707 .707 .707 -135.285 71.647)"/><path d="m24 213h-19v-19h8v11h11z" fill="#6e83b7"/><path d="m114.211 126.854h25.87v8h-25.87z" fill="#6e83b7" transform="matrix(.707 -.707 .707 .707 -55.287 128.217)"/><path d="m141 136h-8v-11h-11v-8h19z" fill="#6e83b7"/><path d="m123.147 186.211h8v25.87h-8z" fill="#6e83b7" transform="matrix(.707 -.707 .707 .707 -103.578 148.235)"/><path d="m141 213h-19v-8h11v-11h8z" fill="#6e83b7"/><path d="m68.043 220.651 14.359-4.544c5.51-1.744 11.393 1.293 13.164 6.794.474 1.473.617 3.032.418 4.566l-3.706 28.612-16.768 5.397-2.98-7.721c-1.909-4.946-1.399-10.499 1.379-15.014l4.911-7.982-6.944 2.147c-3.36 1.039-6.93-.819-8.008-4.167-1.09-3.387.783-7.014 4.175-8.088z" fill="#ffd3b3"/><path d="m411 262-14.564 47.547-7.948-21.361c-6.6-17.739-21.183-31.323-39.345-36.65l-46.143-13.536-47 126-47-126-46.143 13.535c-18.161 5.327-32.745 18.912-39.345 36.65l-7.948 21.361-14.564-47.546-48 15 33 112 4.847 15.994c7.882 26.01 44.469 26.67 53.283.96l19.87-57.954 16 48-16 111h72c11.046 0 20-8.954 20-20 0 11.046 8.954 20 20 20h72l-16-111 16-48 19.87 57.955c8.815 25.709 45.401 25.049 53.283-.96l4.847-15.995 33-112z" fill="#6e83b7"/><path d="m216 302-3 13 43 49-47-126-33.418 9.803z" fill="#859cc1"/><path d="m296 302 3 13-43 49 47-126 33.418 9.803z" fill="#859cc1"/><path d="m136.61 352.346-17.042-53.56-4.004 10.761 19.436 63.453c3.206-6.412 3.784-13.822 1.61-20.654z" fill="#466089"/><path d="m256 307 34-72-7-3v-30h-54v30l-7 3z" fill="#ffd3b3"/><path d="m314 113h6.598c6.041 0 10.703 5.315 9.915 11.305l-2.597 19.739c-.524 3.981-3.917 6.956-7.932 6.956h-5.984z" fill="#ffd3b3"/><path d="m198 113h-6.598c-6.041 0-10.703 5.315-9.915 11.305l2.597 19.739c.524 3.981 3.917 6.956 7.932 6.956h5.984z" fill="#ffd3b3"/><path d="m229 215.396c8.282 3.598 17.41 5.604 27 5.604s18.718-2.006 27-5.604v-13.396h-54z" fill="#fcb98b"/><path d="m314 153c0 32.033-25.967 58-58 58s-58-25.967-58-58v-76h116z" fill="#ffd3b3"/><path d="m245.437 124.578s-17.793-7.382-32.937 5.679c0 0 17.604-4.543 29.529 1.136z" fill="#6e83b7"/><path d="m265.563 124.578s17.793-7.382 32.937 5.679c0 0-17.604-4.543-29.529 1.136z" fill="#6e83b7"/><path d="m256 26c17.062 0 32.58 6.583 44.177 17.336-7.314-14.306-24.339-24.336-44.177-24.336s-36.863 10.03-44.177 24.336c11.597-10.753 27.115-17.336 44.177-17.336z" fill="#ffe352"/><path d="m259 170h-9.843l3.933-15.728 5.82 1.456-2.067 8.272h2.157z" fill="#fcb98b"/><path d="m284 163h-10c-2.209 0-4-1.791-4-4 0-2.209 1.791-4 4-4h10c2.209 0 4 1.791 4 4 0 2.209-1.791 4-4 4z" fill="#ffc69f"/><path d="m228 163h10c2.209 0 4-1.791 4-4 0-2.209-1.791-4-4-4h-10c-2.209 0-4 1.791-4 4 0 2.209 1.791 4 4 4z" fill="#ffc69f"/><path d="m235.5 139.5c-.022 0-.044.003-.067.003-.62.028-5.516.18-7.933-2.003 0 0 .619 2.919 2.817 4.987-.516.886-.817 1.913-.817 3.013 0 3.314 2.686 6 6 6s6-2.686 6-6-2.686-6-6-6z" fill="#6e83b7"/><path d="m275.5 139.5c.022 0 .044.003.067.003.62.028 5.516.18 7.933-2.003 0 0-.619 2.919-2.817 4.987.516.886.817 1.913.817 3.013 0 3.314-2.686 6-6 6s-6-2.686-6-6 2.686-6 6-6z" fill="#6e83b7"/><path d="m256 307-32-29-21 14 6-54 20-23v17l-7 3z" fill="#edeff1"/><path d="m375.39 352.346 17.042-53.56 4.004 10.761-19.436 63.453c-3.206-6.412-3.784-13.822-1.61-20.654z" fill="#466089"/><path d="m256 307 32-29 21 14-6-54-20-23v17l7 3z" fill="#edeff1"/><path d="m246 181h20l-.106.425c-1.113 4.452-5.113 7.575-9.701 7.575h-.384c-4.589 0-8.589-3.123-9.701-7.575z" fill="#edeff1"/><path d="m256 26c-35.899 0-65 29.102-65 65v22h7v51c8.85-41.746 28.407-59.984 45.723-67.793-7.231 7.606-10.723 14.793-10.723 14.793 14.667-18.667 43-20 43-20s6.667 22 28 22l10 27v-27h7v-22c0-35.898-29.101-65-65-65z" fill="#6e83b7"/><path d="m277 443h50v8h-50z" fill="#466089"/><path d="m185 443h50v8h-50z" fill="#466089"/><circle cx="264" cy="379" fill="#ffe352" r="5"/><circle cx="264" cy="407" fill="#ffe352" r="5"/><circle cx="264" cy="435" fill="#ffe352" r="5"/><circle cx="264" cy="463" fill="#ffe352" r="5"/></svg>