<svg id="Layer_1" enable-background="new 0 0 512 512" height="512" viewBox="0 0 512 512" width="512" xmlns="http://www.w3.org/2000/svg"><path d="m321 150v119h-65-65v-119z" fill="#466089"/><path d="m474.061 222.748-11.14-10.198-4.855-20.183c-.412-1.452-1.249-2.747-2.403-3.718 0 0-4.443-3.741-7.914-6.667-2.225-1.875-5.556-1.555-7.398.73l-.083.103c-1.757 2.179-1.4 5.373.794 7.109l3.815 3.019c1.496 1.184 2.488 2.89 2.777 4.775l2.684 17.759c.409 2.704-.848 5.389-3.186 6.807l-5.963 3.617c-1.883 1.142-4.204 1.297-6.222.417-2.302-1.004-3.86-3.199-4.049-5.703l-.829-11.031c-.395-3.414-3.545-5.818-6.942-5.297-3.1.475-5.326 3.236-5.133 6.366l1.802 29.289c.099 1.606.591 3.163 1.433 4.534l.001.002c1.5 2.442 1.857 5.418.979 8.146l-3.745 11.629-19.693 51.624-10.721-28.814c-6.33-17.012-20.384-29.992-37.845-34.952l-60.225-17.111-7-3v-36h-54v36l-7 3-64.147 19.13c-25.426 7.583-42.853 30.965-42.853 57.498v195.372h49v-159l16 79-16 80h92 92l-16-80 16-79 17.861 52.094c9.444 27.546 48.644 26.839 57.089-1.029l3.05-10.065 26.295-113.86 1.874-5.82c.582-1.808 1.824-3.331 3.479-4.265l4.953-2.796c2.647-1.494 4.635-3.931 5.566-6.824l7.984-24.795c.907-2.814.09-5.896-2.09-7.892z" fill="#ffd3b3"/><path d="m314 113h6.598c6.041 0 10.703 5.315 9.915 11.305l-2.597 19.739c-.524 3.981-3.917 6.956-7.932 6.956h-5.984z" fill="#ffd3b3"/><path d="m198 113h-6.598c-6.041 0-10.703 5.315-9.915 11.305l2.597 19.739c.524 3.981 3.917 6.956 7.932 6.956h5.984z" fill="#ffd3b3"/><path d="m229 215.396c8.282 3.598 17.41 5.604 27 5.604s18.718-2.006 27-5.604v-13.396h-54z" fill="#fcb98b"/><path d="m314 153c0 32.033-25.967 58-58 58s-58-25.967-58-58v-47h116z" fill="#ffd3b3"/><g fill="#6e83b7"><path d="m301 106 13 34v-27h7v-7z"/><path d="m211 106-13 34v-27h-7v-7z"/><path d="m245.437 124.578s-17.793-7.382-32.937 5.679c0 0 17.604-4.543 29.529 1.136z"/><path d="m265.563 124.578s17.793-7.382 32.937 5.679c0 0-17.604-4.543-29.529 1.136z"/></g><path d="m259 170h-9.843l3.933-15.728 5.82 1.456-2.067 8.272h2.157z" fill="#fcb98b"/><path d="m284 163h-10c-2.209 0-4-1.791-4-4 0-2.209 1.791-4 4-4h10c2.209 0 4 1.791 4 4 0 2.209-1.791 4-4 4z" fill="#ffc69f"/><path d="m228 163h10c2.209 0 4-1.791 4-4 0-2.209-1.791-4-4-4h-10c-2.209 0-4 1.791-4 4 0 2.209 1.791 4 4 4z" fill="#ffc69f"/><path d="m235.5 139.5c-.022 0-.044.003-.067.003-.62.028-5.516.18-7.933-2.003 0 0 .619 2.919 2.817 4.987-.516.886-.817 1.913-.817 3.013 0 3.314 2.686 6 6 6s6-2.686 6-6-2.686-6-6-6z" fill="#6e83b7"/><path d="m275.5 139.5c.022 0 .044.003.067.003.62.028 5.516.18 7.933-2.003 0 0-.619 2.919-2.817 4.987.516.886.817 1.913.817 3.013 0 3.314-2.686 6-6 6s-6-2.686-6-6 2.686-6 6-6z" fill="#6e83b7"/><path d="m375.144 354.781 19.325-50.52 4.322 11.615-21.791 57.124-1.065-2.129c-2.507-5.015-2.794-10.853-.791-16.09z" fill="#fcb98b"/><path d="m474.061 222.748-11.242-10.231-.496-2.256-11.887-.134c-.28-.008-.674.026-.676.01v.003l.689 5.32c.409 2.704-.904 5.398-3.242 6.816l-5.991 3.621c-1.071.65-2.298.971-3.516.973-.943 3.596.211 7.43 3.042 9.897l11.434 9.954c1.007.881 2.163 1.536 3.439 1.947 1.003.323 2.048.483 3.113.475l.855-.065c2.931-.03 5.334-1.98 6.233-4.771l1.787-5.55c.177-.551.605-.982 1.17-1.106l5.506-1.198 1.872-5.812c.907-2.815.09-5.897-2.09-7.893z" fill="#fcb98b"/><path d="m476.151 230.642-1.133 3.518-6.355 1.397c-1.355.298-2.451 1.293-2.876 2.614l-1.787 5.549c-.598 1.857-2.318 3.124-4.269 3.144l-1.027.011c-1.855.014-3.644-.642-5.038-1.861l-11.443-9.957c-2.281-1.989-3.157-5.137-2.231-8.015l3.021-9.381c.957-2.971 3.639-5.037 6.708-5.224.189-.019.373-.023.561-.018l12.637.131 11.142 10.201c2.18 1.989 2.996 5.078 2.09 7.891z" fill="#ffd3b3"/><path d="m445.211 237.925-2.855-.92 5.281-16.4c.773-2.406 2.992-4.086 5.52-4.181l5.666-.211.111 2.998-5.666.211c-1.271.048-2.386.893-2.775 2.102z" fill="#fcb98b"/><path d="m453.173 245.252-2.855-.92 5.164-16.036c.705-2.189 2.556-3.767 4.829-4.115l3.912-.6.455 2.965-3.912.6c-1.144.176-2.074.969-2.429 2.07z" fill="#fcb98b"/><path d="m428.36 261.371h12.524v3h-12.524z" fill="#fcb98b" transform="matrix(.307 -.952 .952 .307 51.142 595.947)"/><path d="m426.272 71.697h16.699v143.929h-16.699z" fill="#6e83b7"/><path d="m426.272 71.697h16.699v26.699h-16.699z" fill="#edeff1" transform="matrix(-1 0 0 -1 869.243 170.092)"/><path d="m416.294 83.253 5.206-1.973-5.206-1.973c-2.085-.79-3.671-2.523-4.272-4.67l-2.272-8.107-2.272 8.107c-.602 2.147-2.187 3.88-4.272 4.67l-5.206 1.973 5.206 1.973c2.085.79 3.671 2.523 4.272 4.67l2.272 8.107 2.272-8.107c.602-2.147 2.188-3.88 4.272-4.67z" fill="#ffe352"/><path d="m454.862 61.518 4.147-1.571-4.147-1.571c-1.661-.629-2.924-2.01-3.403-3.72l-1.81-6.458-1.81 6.458c-.479 1.71-1.742 3.091-3.403 3.72l-4.147 1.571 4.147 1.571c1.661.629 2.924 2.01 3.403 3.72l1.81 6.458 1.81-6.458c.479-1.71 1.742-3.091 3.403-3.72z" fill="#ffe352"/><path d="m429.711 46.786 2.735-1.036-2.735-1.036c-1.095-.415-1.929-1.326-2.245-2.454l-1.194-4.26-1.194 4.26c-.316 1.128-1.149 2.039-2.245 2.454l-2.735 1.036 2.735 1.036c1.095.415 1.929 1.326 2.245 2.454l1.194 4.26 1.194-4.26c.316-1.128 1.15-2.038 2.245-2.454z" fill="#ffe352"/><path d="m246 181h20l-.106.425c-1.113 4.452-5.113 7.575-9.701 7.575h-.384c-4.589 0-8.589-3.123-9.701-7.575z" fill="#edeff1"/><path d="m256 507h92l-16-80 16-79v-6.339c0-27.062-21.938-49-49-49-18.543 0-34.678 10.303-43 25.494-8.322-15.192-24.457-25.494-43-25.494-27.062 0-49 21.938-49 49v6.339l16 79-16 80z" fill="#6e83b7"/><path d="m256 507h92l-16-80 16-79v-6.339c0-27.062-21.938-49-49-49-18.543 0-34.678 10.303-43 25.494-8.322-15.192-24.457-25.494-43-25.494-27.062 0-49 21.938-49 49v6.339l16 79-16 80z" fill="#6e83b7"/><path d="m164.017 341c5.262 0 9.789-3.649 10.986-8.772 4.003-17.139 19.52-29.566 37.997-29.566 14.255 0 27.371 7.778 34.229 20.299l8.771 16.008 8.771-16.009c6.858-12.521 19.975-20.299 34.229-20.299 18.477 0 33.993 12.427 37.997 29.566 1.197 5.124 5.725 8.772 10.986 8.772-.356-26.756-22.143-48.339-48.983-48.339-18.543 0-34.678 10.303-43 25.494-8.322-15.192-24.457-25.494-43-25.494-26.84.001-48.628 21.584-48.983 48.34z" fill="#ffb0aa"/><path d="m179 94h154v12h-154z" fill="#6e83b7"/><path d="m190 5h132v89h-132z" fill="#6e83b7"/><path d="m190 76h132v18h-132z" fill="#ffb0aa"/><path d="m259 312h-6c-.004-.352-.191-9.037-8.395-13.344l2.789-5.312c4.212 2.212 6.896 5.244 8.605 8.224 1.71-2.979 4.394-6.012 8.605-8.224l2.789 5.312c-8.297 4.357-8.393 13.254-8.393 13.344z" fill="#fcb98b"/><path d="m177.468 414.5 2.532 12.5-3.5 17.5h159l-3.5-17.5 2.532-12.5z" fill="#ffb0aa"/><path d="m261 260.193h-10c-2.209 0-4-1.791-4-4v-18c0-2.209 1.791-4 4-4h10c2.209 0 4 1.791 4 4v18c0 2.21-1.791 4-4 4z" fill="#ffb0aa"/><path d="m265 256.193 29.844 8.937c3.849 1.153 7.721-1.73 7.721-5.748v-2.671c0-1.681-.424-3.336-1.233-4.81l-2.583-4.708 2.583-4.709c.809-1.474 1.233-3.128 1.233-4.81v-2.671c0-4.018-3.872-6.9-7.721-5.748l-29.844 8.938z" fill="#ffb0aa"/><path d="m265 256.193 3.905 1.169c.057-.383.095-.771.095-1.169v-18c0-.398-.039-.786-.095-1.169l-3.905 1.169z" fill="#ff7b7b"/><path d="m247 256.193-29.844 8.937c-3.849 1.153-7.721-1.73-7.721-5.748v-2.671c0-1.681.424-3.336 1.233-4.81l2.583-4.708-2.583-4.709c-.809-1.474-1.233-3.128-1.233-4.81v-2.671c0-4.018 3.872-6.9 7.721-5.748l29.844 8.938z" fill="#ffb0aa"/><path d="m247 256.193-3.905 1.169c-.057-.383-.095-.771-.095-1.169v-18c0-.398.039-.786.095-1.169l3.905 1.169z" fill="#ff7b7b"/></svg>