<svg id="Layer_1" enable-background="new 0 0 512 512" height="512" viewBox="0 0 512 512" width="512" xmlns="http://www.w3.org/2000/svg"><path d="m419.39 271.668 3.745-11.63c.878-2.728.521-5.704-.979-8.146l-.001-.002c-.842-1.371-1.334-2.928-1.433-4.534l-1.803-29.289c-.193-3.13 2.033-5.891 5.133-6.366 3.397-.521 6.547 1.883 6.942 5.297l.829 11.031c.188 2.505 1.746 4.7 4.049 5.704 2.019.88 4.339.725 6.222-.418l5.963-3.616c2.338-1.418 3.595-4.103 3.186-6.807l-2.684-17.759c-.289-1.885-1.281-3.592-2.777-4.775l-3.815-3.019c-2.195-1.737-2.552-4.931-.794-7.109l.083-.103c1.843-2.285 5.174-2.605 7.398-.73 3.471 2.926 7.914 6.667 7.914 6.667 1.154.972 1.991 2.267 2.403 3.718l4.855 20.183 11.14 10.198c2.18 1.995 2.996 5.078 2.091 7.891l-7.984 24.796c-.932 2.894-2.919 5.33-5.566 6.824l-4.953 2.796c-1.655.934-2.897 2.457-3.479 4.265l-1.874 5.82z" fill="#ffd3b3"/><path d="m463.827 219.966-.723-3.007s-12.751-.092-12.771-.09l.911 6.026c.409 2.704-.848 5.389-3.186 6.807l-5.963 3.616c-1.291.783-2.787 1.09-4.251.93-.945 3.822.313 7.87 3.316 10.489l11.438 9.952c1.919 1.678 4.389 2.603 6.954 2.603l1.117-.011c3.246-.033 6.097-2.132 7.093-5.224l1.788-5.551c.097-.303.352-.534.663-.603l4.647-1.021 2.198-6.826c.906-2.813.089-5.896-2.091-7.891z" fill="#fcb98b"/><path d="m477.057 238.057-1.133 3.518-6.355 1.397c-1.355.298-2.451 1.293-2.876 2.614l-1.787 5.55c-.598 1.857-2.317 3.124-4.269 3.144l-1.027.011c-1.854.014-3.644-.642-5.038-1.861l-11.443-9.957c-2.281-1.989-3.157-5.137-2.231-8.015l3.021-9.381c.957-2.971 3.639-5.037 6.708-5.224.189-.019.373-.023.561-.018l12.637.131 11.142 10.201c2.18 1.989 2.996 5.078 2.09 7.89z" fill="#ffd3b3"/><path d="m446.117 245.34-2.855-.919 5.28-16.4c.775-2.407 2.993-4.087 5.52-4.181l5.666-.211.111 2.998-5.666.211c-1.27.047-2.386.892-2.775 2.103z" fill="#fcb98b"/><path d="m454.079 252.667-2.855-.919 5.164-16.036c.705-2.19 2.556-3.767 4.829-4.115l3.911-.6.455 2.965-3.911.6c-1.144.175-2.074.968-2.429 2.069z" fill="#fcb98b"/><path d="m429.266 268.786h12.524v3h-12.524z" fill="#fcb98b" transform="matrix(.307 -.952 .952 .307 44.763 602.012)"/><path d="m459.763 281.67-47.772-14.651-14.706 47.95-8.215-22.317c-6.528-17.735-21.03-31.357-39.137-36.765l-66.475-19.792h-27.258-27.258l-72.889 21.442c-25.488 7.498-43.01 30.865-43.067 57.433l-.453 192.125h143.667 92v-95.901-58.766l19.783 48.372c11.222 27.437 51.2 23.709 57.156-5.329z" fill="#6e83b7"/><path d="m397.345 315.132-20.884 68.335-.001-3.025c-.004-11.94 1.773-23.813 5.274-35.228l12.128-39.545z" fill="#466089"/><path d="m252.2 333.194h8v173.9h-8z" fill="#466089"/><path d="m299.359 240.772-15.901-13.011-27.258 28.333-27.258-28.333-15.9 13.011-14.765 4.343 57.923 165.104 57.923-165.104z" fill="#edeff1"/><path d="m259.2 407.188-3 3.031-3-3.031v-124.263h6z" fill="#d3d3d3"/><path d="m299.36 240.774-15.9-13.01-27.26 28.33-27.26-28.33-15.9 13.01-7.72 2.27 28.84 68.1 22.04-38.84 22.04 38.84 28.84-68.1z" fill="#d3d3d3"/><path d="m283.458 256.094h-27.258-27.258v-64.045h54.516z" fill="#ffd3b3"/><path d="m228.942 206.684c8.334 3.721 17.554 5.809 27.258 5.809s18.924-2.087 27.258-5.809v-14.635h-54.516z" fill="#fcb98b"/><g fill="#ffd3b3"><path d="m314.123 145.587c0 31.933-25.99 57.82-57.923 57.82s-57.923-25.887-57.923-57.82v-38.5h115.846z"/><path d="m314.123 107.087h4.264c6.799 0 12.074 5.933 11.28 12.684l-1.591 13.523c-.832 7.075-6.829 12.408-13.953 12.408z"/><path d="m198.277 107.087h-4.264c-6.798 0-12.074 5.933-11.28 12.684l1.591 13.523c.832 7.075 6.829 12.408 13.953 12.408z"/></g><path d="m179.2 91.087h154v16h-154z" fill="#6e83b7"/><path d="m193.2 75.087h126v16h-126z" fill="#466089"/><path d="m193.2 5.094h126v69.993h-126z" fill="#6e83b7"/><path d="m198.2 107.087v13.397l2.82-2.273c2.59-2.158 4.18-5.355 4.18-8.725v-2.398h-7z" fill="#6e83b7"/><path d="m307.2 107.087v2.398c0 3.371 1.59 6.568 4.18 8.725l2.82 2.273v-13.397h-7z" fill="#6e83b7"/><path d="m164.2 367.094h8v140h-8z" fill="#466089"/><path d="m228.942 227.761 27.258 28.333-21 37-22.158-52.322z" fill="#edeff1"/><path d="m283.458 227.761-27.258 28.333 21 37 22.159-52.322z" fill="#edeff1"/><path d="m198.277 245.115-26.077 7.671 26.077 58.358-.077 40.617 58 58.458z" fill="#859cc1"/><path d="m314.123 245.115 26.077 7.671-26.077 58.358.077 40.617-58 58.458z" fill="#859cc1"/><path d="m261.2 295.925h-10c-2.209 0-4-1.791-4-4v-18c0-2.209 1.791-4 4-4h10c2.209 0 4 1.791 4 4v18c0 2.209-1.791 4-4 4z" fill="#ffb0aa"/><path d="m265.2 291.925 29.844 8.937c3.849 1.153 7.721-1.73 7.721-5.748v-2.671c0-1.681-.424-3.336-1.233-4.81l-2.583-4.708 2.583-4.708c.809-1.474 1.233-3.128 1.233-4.81v-2.671c0-4.018-3.872-6.9-7.721-5.748l-29.844 8.937z" fill="#ffb0aa"/><path d="m265.2 291.925 3.905 1.169c.057-.383.095-.771.095-1.169v-18c0-.398-.039-.786-.095-1.169l-3.905 1.169z" fill="#ff7b7b"/><path d="m247.2 291.925-29.844 8.937c-3.849 1.153-7.721-1.73-7.721-5.748v-2.671c0-1.681.424-3.336 1.233-4.81l2.583-4.708-2.583-4.708c-.809-1.474-1.233-3.128-1.233-4.81v-2.671c0-4.018 3.872-6.9 7.721-5.748l29.844 8.937z" fill="#ffb0aa"/><path d="m247.2 291.925-3.905 1.169c-.057-.383-.095-.771-.095-1.169v-18c0-.398.039-.786.095-1.169l3.905 1.169z" fill="#ff7b7b"/><path d="m427.178 79.112h16.699v143.929h-16.699z" fill="#6e83b7"/><path d="m427.178 79.112h16.699v26.699h-16.699z" fill="#edeff1" transform="matrix(-1 0 0 -1 871.055 184.923)"/><path d="m261.879 161.882h-14.158l4.587-16.678 5.785 1.592-2.499 9.086h6.285z" fill="#fcb98b"/><path d="m246.2 116s-7.726-2.893-17.259-1.55c-5.36.755-11.291 2.849-16.741 7.55 0 0 19.625-5 31 2z" fill="#6e83b7"/><circle cx="234.2" cy="135" fill="#6e83b7" r="6"/><path d="m266.2 116s18.857-7.061 34 6c0 0-19.625-5-31 2z" fill="#6e83b7"/><path d="m246.2 177h20l-.106.425c-1.113 4.452-5.113 7.575-9.701 7.575h-.384c-4.589 0-8.589-3.123-9.701-7.575z" fill="#edeff1"/><circle cx="278.2" cy="135" fill="#6e83b7" r="6"/><path d="m417.2 90.669 5.206-1.973-5.206-1.973c-2.085-.79-3.671-2.523-4.272-4.67l-2.272-8.107-2.272 8.107c-.602 2.147-2.187 3.88-4.272 4.67l-5.206 1.973 5.206 1.973c2.085.79 3.671 2.523 4.272 4.67l2.272 8.107 2.272-8.107c.602-2.147 2.187-3.88 4.272-4.67z" fill="#ffe352"/><path d="m455.768 68.934 4.147-1.571-4.147-1.571c-1.661-.629-2.924-2.01-3.403-3.72l-1.81-6.458-1.81 6.458c-.479 1.71-1.742 3.091-3.403 3.72l-4.147 1.571 4.147 1.571c1.661.629 2.924 2.01 3.403 3.72l1.81 6.458 1.81-6.458c.479-1.71 1.742-3.091 3.403-3.72z" fill="#ffe352"/><path d="m430.617 54.202 2.735-1.036-2.735-1.036c-1.095-.415-1.929-1.326-2.245-2.454l-1.194-4.26-1.194 4.26c-.316 1.128-1.149 2.039-2.245 2.454l-2.735 1.036 2.735 1.036c1.095.415 1.929 1.326 2.245 2.454l1.194 4.26 1.194-4.26c.316-1.128 1.15-2.039 2.245-2.454z" fill="#ffe352"/></svg>