<svg id="Layer_1" enable-background="new 0 0 512 512" height="512" viewBox="0 0 512 512" width="512" xmlns="http://www.w3.org/2000/svg"><path d="m352.709 226.664-49.943-14.864h-46.566-46.566l-49.944 14.864c-26.969 8.027-45.459 32.821-45.459 60.959v219.377l49.968.094h92 92v-125.9h49.968v-93.57c.002-28.139-18.488-52.933-45.458-60.96z" fill="#edeff1"/><path d="m202.989 213.778 53.011 148.866 53.412-148.866-6.646-1.978h-93.131z" fill="#80d6fb"/><g fill="#d3d3d3"><path d="m164.2 281.194h6v225.806h-6z"/><path d="m252.868 281.194h6v225.806h-6z"/><path d="m270.368 453h60v6h-60z"/><path d="m181.632 453h60v6h-60z"/><path d="m348.2 303.197 12.051-12.051-4.243-4.243-7.808 7.808v-13.517h-6v114.34c0 6.84 2.232 13.166 6 18.297z"/></g><path d="m302.766 211.8-24.986 37.48-3.408-4.543-4.422 5.405 8.109 11.004 31.353-47.368z" fill="#46bee8"/><path d="m209.635 211.8 24.986 37.48 3.407-4.543 4.423 5.405-8.109 11.004-31.353-47.368z" fill="#46bee8"/><path d="m256 362.644 11.969-33.361-3.818-72.053h-17.037l-3.347 71.06z" fill="#ffb0aa"/><path d="m261.743 265.18h-2c0-7.164-3.834-9.246-3.998-9.331l.902-1.785c.208.104 5.096 2.645 5.096 11.116z" fill="#ff7b7b"/><path d="m252.657 265.18h-2c0-8.471 4.888-11.012 5.096-11.116l.902 1.785c-.164.085-3.998 2.168-3.998 9.331z" fill="#ff7b7b"/><path d="m228.942 198.171-19.307 13.629 24.986 37.48 15.901-21.579 5.678-2.272z" fill="#80d6fb"/><path d="m283.458 198.171 19.308 13.629-24.986 37.48-15.901-21.579-5.679-2.272z" fill="#80d6fb"/><path d="m256.2 225.429c-15.054 0-27.258-12.204-27.258-27.258v-36.122h54.516v36.122c0 15.054-12.203 27.258-27.258 27.258z" fill="#ffd3b3"/><path d="m228.942 176.684c8.334 3.721 17.554 5.809 27.258 5.809s18.924-2.087 27.258-5.809v-14.635h-54.516z" fill="#fcb98b"/><path d="m256.2 5c-31.933 0-57.923 25.887-57.923 57.82v52.767c0 31.933 25.99 57.82 57.923 57.82s57.923-25.887 57.923-57.82v-52.767c.001-31.933-25.99-57.82-57.923-57.82z" fill="#ffd3b3"/><path d="m267.539 71.184s19.026-3.019 30.697 13.22c0 0-16.055-8.532-28.977-5.798z" fill="#6e83b7"/><path d="m245.517 80.777s-18.078-6.654-32.679 7.011c0 0 17.405-5.254 29.551-.064z" fill="#6e83b7"/><circle cx="233.485" cy="96.176" fill="#6e83b7" r="5.679"/><circle cx="278.915" cy="96.176" fill="#6e83b7" r="5.679"/><path d="m314.123 76.868h4.264c6.799 0 12.074 5.933 11.28 12.684l-1.591 13.523c-.832 7.075-6.829 12.408-13.953 12.408z" fill="#ffd3b3"/><path d="m198.277 76.868h-4.264c-6.798 0-12.074 5.933-11.28 12.684l1.591 13.523c.832 7.075 6.829 12.408 13.953 12.408z" fill="#ffd3b3"/><path d="m261.879 227.701-5.679-2.272-5.678 2.272-12.494 17.036 9.086 12.493h9.086 7.951l10.221-12.493z" fill="#ffb0aa"/><path d="m269.185 247.67c-3.186 3.895-7.953 6.153-12.985 6.153h-.543c-5.368 0-10.411-2.568-13.568-6.909l-2.817-3.873-1.244 1.697 9.086 12.493h9.086 7.95l10.222-12.493-1.318-1.797z" fill="#ff7b7b"/><path d="m261.879 130.977h-13.483l1.408-16.878 5.978.498-.864 10.38h6.961z" fill="#fcb98b"/><path d="m245.229 144.375h21.541v6h-21.541z" fill="#fcb98b"/><path d="m373.185 420.518c-13.798 0-24.984-11.186-24.984-24.984v-90.764h49.968v90.763c0 13.799-11.186 24.985-24.984 24.985z" fill="#edeff1"/><path d="m354.651 283.921 17.319-18.026c2.873-2.99 6.985-4.456 11.102-3.958l6.794.823 10.847-12.613c1.998-2.323 5.404-2.816 7.978-1.155 3.101 2.001 3.747 6.267 1.377 9.096l-8.662 10.339-4.871 4.871z" fill="#fcb98b"/><path d="m362.961 294.003v-15.615l10.224-2.461 28.224-7.5 23.552-6.848 8.816-11.637c2.107-2.782 5.952-3.568 8.982-1.836 3.604 2.059 4.609 6.798 2.151 10.143l-8.214 11.178c-2.117 2.882-4.969 5.143-8.257 6.548l-21.052 8.997c-2.101.898-4.341 1.429-6.621 1.571l-12.554.779v6.681z" fill="#ffd3b3"/><path d="m444.484 249.5c-.737-.193-1.497-.294-2.262-.294-2.786 0-5.453 1.325-7.134 3.544l-8.373 11.051-19.319 4.293h-4.843l-1.146.333-28.224 7.5-6.141 1.478-3.176 4.344v12.254h24.344v-6.681l12.554-.779c2.281-.141 4.52-.673 6.621-1.571l21.052-8.997c3.288-1.405 6.14-3.667 8.257-6.548l8.214-11.178c2.004-2.725 1.706-6.376-.424-8.749z" fill="#fcb98b"/><path d="m365.867 298.018v-15.615l9-12.309h32.75l20.25-4.5 8.816-11.637c2.107-2.782 5.952-3.568 8.982-1.836 3.604 2.059 4.609 6.798 2.151 10.143l-8.214 11.178c-2.118 2.882-4.969 5.143-8.257 6.548l-21.052 8.997c-2.101.898-4.341 1.429-6.621 1.571l-12.554.779v6.681z" fill="#ffd3b3"/><path d="m448.082 254.442c-1.113-.478-2.312-.736-3.526-.736-2.786 0-5.454 1.325-7.135 3.544l-8.372 11.051-19.124 4.25-12.458-2.457h-22.601l-9 12.309v15.615h25.25v-6.681l12.554-.779c2.281-.141 4.52-.673 6.621-1.571l21.052-8.997c3.288-1.405 6.14-3.666 8.257-6.548l8.214-11.178c1.76-2.392 1.737-5.494.268-7.822z" fill="#fcb98b"/><path d="m368.17 233.632-14.343 21.515c-1.587 2.38-2.426 5.151-2.426 8.013 0 7.965 6.479 14.445 14.444 14.445h31.526c-2.908-18.283-13.664-34.303-29.201-43.973z" fill="#d3d3d3"/><path d="m417.911 178.09v41.257l26.086 39.129c.925 1.387 1.418 3.017 1.418 4.684 0 4.664-3.781 8.445-8.445 8.445h-35.562-35.562c-4.664 0-8.445-3.781-8.445-8.445 0-1.667.493-3.297 1.418-4.684l26.086-39.129v-41.257z" fill="#edeff1"/><path d="m412.41 224.847 24.654 36.98c1.219 1.828-.092 4.276-2.289 4.276h-66.734c-2.197 0-3.507-2.448-2.289-4.276l24.654-36.98z" fill="#ffe352"/><path d="m422.412 178.09h-42.007c-.552 0-1-.448-1-1v-9.002c0-.552.448-1 1-1h42.007c.552 0 1 .448 1 1v9.002c0 .552-.448 1-1 1z" fill="#edeff1"/><path d="m384.905 178.09h33.005v2.75h-33.005z" fill="#d3d3d3"/><circle cx="398.658" cy="213.845" fill="#ffe352" r="5.501"/><circle cx="401.408" cy="238.599" fill="#ffb236" r="2.75"/><circle cx="406.909" cy="197.343" fill="#ffe352" r="2.75"/><circle cx="384.905" cy="249.601" fill="#ffb236" r="2.75"/><circle cx="417.911" cy="255.102" fill="#ffb236" r="2.75"/><path d="m351.318 304.77v-13.396c0-2.846 1.212-5.556 3.333-7.454l11.107-9.934c4.677-4.183 11.046-5.929 17.203-4.715l26.99 5.322 20.25-4.5 8.816-11.637c2.107-2.782 5.952-3.568 8.982-1.836 3.604 2.059 4.609 6.798 2.151 10.143l-8.214 11.178c-2.117 2.882-4.969 5.143-8.257 6.548l-21.052 8.997c-2.101.898-4.341 1.429-6.621 1.571l-7.331.455c-2.936.182-5.223 2.616-5.223 5.557v3.701z" fill="#ffd3b3"/><path d="m202.989 213.778-17.773 5.392 14.451 41.976-3.667 60.854 60 40.644z" fill="#d3d3d3"/><path d="m309.011 213.778 17.773 5.392-14.451 41.976 3.667 60.854-60 40.644z" fill="#d3d3d3"/><path d="m210.838 54.5h-20.372c-3.241 0-5.869 2.627-5.869 5.869 0 .609.093 1.196.265 1.748-1.498 1.459-2.431 3.496-2.431 5.752 0 2.83 1.467 5.314 3.678 6.745-.937 1.04-1.511 2.412-1.511 3.921 0 3.241 2.628 5.869 5.869 5.869 1.502 0 2.868-.569 3.906-1.497 1.038.928 2.404 1.497 3.906 1.497v22.596z" fill="#edeff1"/><path d="m329.57 67.869c0-2.257-.933-4.293-2.431-5.752.172-.552.265-1.139.265-1.748 0-3.241-2.628-5.869-5.869-5.869h-20.372l12.56 52.5v-22.596c1.502 0 2.868-.569 3.906-1.497 1.038.928 2.404 1.497 3.906 1.497 3.241 0 5.869-2.627 5.869-5.869 0-1.51-.575-2.882-1.511-3.922 2.21-1.431 3.677-3.914 3.677-6.744z" fill="#edeff1"/><path d="m256 147 5.75 1.875-1.407-2.625 11.532 2.625-1.625-2.875 10.083 1.25c-6.895-11.011-24.333-11.002-24.333-11.002s-17.438-.009-24.333 11.002l10.083-1.25-1.625 2.875 11.532-2.625-1.407 2.625z" fill="#edeff1"/></svg>