<svg id="Layer_1" enable-background="new 0 0 512 512" height="512" viewBox="0 0 512 512" width="512" xmlns="http://www.w3.org/2000/svg"><path d="m165.2 187.937h182v92.49h-182z" fill="#ffe352"/><path d="m345.867 198.159h-179.333c-8.837 0-16-7.163-16-16v-19.065c0-8.837 7.163-16 16-16h179.333c8.837 0 16 7.163 16 16v19.065c0 8.837-7.163 16-16 16z" fill="#6e83b7"/><path d="m451.895 325.518-92.252-93.884c-3.57-3.633-8.006-6.297-12.89-7.742l-63.553-18.798h-27-27l-63.553 18.797c-4.884 1.445-9.32 4.109-12.89 7.742l-92.252 93.884c-9.123 9.285-11.218 23.393-5.186 34.928l24.214 45.685 43-24-12.333-25.036 48-43v193h98 98v-193l48 43-12.333 25.036 43 24 24.214-45.685c6.032-11.534 3.937-25.643-5.186-34.927z" fill="#6e83b7"/><path d="m252.2 226.094h8v281h-8z" fill="#466089"/><path d="m353.157 462.9 8.043-6.806 38-83.5 37.75 21.25-45.75 74.25-7 39h-36v-33.507c0-4.118 1.813-8.027 4.957-10.687z" fill="#ffd3b3"/><path d="m448.969 384.836-10.169 20.897c-.993 2.041-3.483 2.847-5.484 1.777l-44.19-23.644c-1.915-1.025-2.663-3.391-1.684-5.33l10.129-20.061c1.002-1.984 3.429-2.771 5.404-1.752l44.229 22.808c1.932.995 2.715 3.351 1.765 5.305z" fill="#859cc1"/><path d="m285.2 296.094h48v8h-48z" fill="#466089"/><path d="m283.2 198.094 22 13.507-19 52.493-30-38z" fill="#859cc1"/><path d="m361.2 482.094h6v25h-6z" fill="#fcb98b"/><path d="m362.782 489.344h11.336v6h-11.336z" fill="#fcb98b" transform="matrix(.75 -.662 .662 .75 -233.573 366.941)"/><path d="m159.244 462.9-8.043-6.806-38-83.5-37.75 21.25 45.75 74.25 7 39h36v-33.507c-.001-4.118-1.814-8.027-4.957-10.687z" fill="#ffd3b3"/><path d="m63.432 384.836 10.168 20.897c.993 2.041 3.483 2.847 5.484 1.777l44.19-23.644c1.915-1.025 2.663-3.391 1.684-5.33l-10.129-20.061c-1.002-1.984-3.429-2.771-5.404-1.752l-44.229 22.807c-1.932.996-2.715 3.352-1.764 5.306z" fill="#859cc1"/><path d="m179.2 296.094h48v8h-48z" fill="#466089"/><path d="m229.2 198.094-22 13.507 19 52.493 30-38z" fill="#859cc1"/><path d="m256.2 226.094c-14.912 0-27-12.088-27-27v-28h54v28c0 14.912-12.088 27-27 27z" fill="#ffd3b3"/><path d="m229.2 185.791c8.267 3.651 17.395 5.701 27 5.701s18.733-2.051 27-5.701v-14.697h-54z" fill="#fcb98b"/><path d="m314.2 124.632c0 31.735-26.025 57.462-58 57.462s-58-25.727-58-57.462v-56.538h116z" fill="#ffd3b3"/><path d="m198.2 86.094h-5.918c-5.941 0-10.572 5.149-9.944 11.056l1.722 16.211c.648 6.102 5.796 10.733 11.933 10.733h2.207z" fill="#ffd3b3"/><path d="m314.2 86.094h5.918c5.941 0 10.572 5.149 9.944 11.056l-1.722 16.211c-.648 6.102-5.796 10.733-11.933 10.733h-2.207z" fill="#ffd3b3"/><path d="m261.879 139.977h-14.158l4.587-16.678 5.785 1.591-2.499 9.087h6.285z" fill="#fcb98b"/><g fill="#6e83b7"><path d="m246.2 94.094s-18.857-7.061-34 6c0 0 19.625-5 31 2z"/><circle cx="234.2" cy="113.094" r="6"/><path d="m266.2 94.094s18.857-7.061 34 6c0 0-19.625-5-31 2z"/><circle cx="278.2" cy="113.094" r="6"/></g><path d="m145.2 482.094h6v25h-6z" fill="#fcb98b"/><path d="m140.95 486.676h6v11.336h-6z" fill="#fcb98b" transform="matrix(.662 -.75 .75 .662 -320.469 274.538)"/><path d="m333.2 86.094h-154l12-13h130z" fill="#6e83b7"/><path d="m321.2 73.094h-130l10-68h110z" fill="#6e83b7"/><path d="m193.809 55.094-2.609 18h130l-2.608-18z" fill="#466089"/><path d="m314.2 86.094v20l-10-20z" fill="#466089"/><path d="m198.2 86.094v20l10-20z" fill="#466089"/><path d="m246.2 155.094h20l-.106.425c-1.113 4.452-5.113 7.575-9.701 7.575h-.384c-4.589 0-8.589-3.123-9.701-7.575z" fill="#edeff1"/><path d="m179.2 211.094v172.524c0 7.17-3.167 13.974-8.654 18.59l-12.346 10.386v22.167l24.518-22.381c7.527-6.871 11.816-16.592 11.816-26.784v-174.502z" fill="#ffb236"/><path d="m333.2 211.094v172.524c0 7.17 3.167 13.974 8.654 18.59l12.346 10.386v22.167l-24.518-22.381c-7.527-6.871-11.816-16.592-11.816-26.784v-174.502z" fill="#ffb236"/></svg>