<?xml version="1.0" encoding="iso-8859-1"?>
<!-- Generator: Adobe Illustrator 19.0.0, SVG Export Plug-In . SVG Version: 6.00 Build 0)  -->
<svg version="1.1" id="Capa_1" xmlns="http://www.w3.org/2000/svg" xmlns:xlink="http://www.w3.org/1999/xlink" x="0px" y="0px"
	 viewBox="0 0 512 512" style="enable-background:new 0 0 512 512;" xml:space="preserve">
<g>
	<path style="fill:#DF4D60;" d="M426.667,119.467L384,93.867l-51.968,30.208c20.648,28.5,23.626,66.152,7.715,97.544
		s-48.039,51.25-83.232,51.446c-35.193,0.196-67.541-19.303-83.8-50.515l-2.048,1.963L128,264.533l-42.667-25.6L8.533,358.4v145.067
		h494.933V8.533L426.667,119.467z"/>
	<polygon style="fill:#F0C419;" points="85.333,238.933 85.333,503.467 8.533,503.467 8.533,358.4 	"/>
	<path style="fill:#2FA8CC;" d="M256,273.067v230.4h-85.333V224.512l2.048-1.963C188.857,253.627,220.98,273.112,256,273.067z"/>
	<path style="fill:#71C285;" d="M341.333,218.368v285.099H256v-230.4C292.697,273.103,326.043,251.728,341.333,218.368z"/>
	<path style="fill:#CC66A1;" d="M426.667,119.467v384h-85.333V218.368c14.098-30.814,10.546-66.828-9.301-94.293L384,93.867
		L426.667,119.467z"/>
	<path style="fill:#F3D55B;" d="M349.867,179.2c-0.057,46.115-33.644,85.34-79.2,92.497s-89.553-19.88-103.748-63.756
		c-14.195-43.876,5.627-91.56,46.742-112.444s91.313-8.765,118.371,28.577C343.66,140.1,349.904,159.401,349.867,179.2z"/>
	<g>
		<path style="fill:#B19046;" d="M256,238.933c-23.525,0-42.667-15.312-42.667-34.133c0-4.713,3.821-8.533,8.533-8.533
			c4.713,0,8.533,3.821,8.533,8.533c0,9.25,11.725,17.067,25.6,17.067c13.875,0,25.6-7.817,25.6-17.067
			c0-9.25-11.725-17.067-25.6-17.067c-23.525,0-42.667-15.312-42.667-34.133s19.142-34.133,42.667-34.133
			c23.525,0,42.667,15.312,42.667,34.133c0,4.713-3.821,8.533-8.533,8.533c-4.713,0-8.533-3.821-8.533-8.533
			c0-9.25-11.725-17.067-25.6-17.067c-13.875,0-25.6,7.817-25.6,17.067c0,9.25,11.725,17.067,25.6,17.067
			c23.525,0,42.667,15.312,42.667,34.133S279.525,238.933,256,238.933z"/>
		<path style="fill:#B19046;" d="M256,247.467c-4.713,0-8.533-3.821-8.533-8.533V119.467c0-4.713,3.821-8.533,8.533-8.533
			c4.713,0,8.533,3.821,8.533,8.533v119.467C264.533,243.646,260.713,247.467,256,247.467z"/>
	</g>
	<g>
		<path style="fill:#2C3E50;" d="M503.467,512H8.533C3.821,512,0,508.18,0,503.467V8.533C0,3.821,3.821,0,8.533,0
			s8.533,3.821,8.533,8.533v486.4h486.4c4.713,0,8.533,3.821,8.533,8.533C512,508.18,508.18,512,503.467,512z"/>
		<path style="fill:#2C3E50;" d="M42.667,51.2c-2.264,0.003-4.435-0.897-6.033-2.5L2.5,14.566C-0.78,11.226-0.756,5.865,2.555,2.555
			S11.226-0.78,14.566,2.5L48.7,36.634c2.44,2.44,3.169,6.11,1.849,9.298C49.228,49.12,46.118,51.199,42.667,51.2z"/>
		<path style="fill:#2C3E50;" d="M34.133,93.867h-25.6C3.821,93.867,0,90.046,0,85.333S3.821,76.8,8.533,76.8h25.6
			c4.713,0,8.533,3.821,8.533,8.533S38.846,93.867,34.133,93.867z"/>
		<path style="fill:#2C3E50;" d="M34.133,128h-25.6C3.821,128,0,124.179,0,119.467c0-4.713,3.821-8.533,8.533-8.533h25.6
			c4.713,0,8.533,3.821,8.533,8.533C42.667,124.179,38.846,128,34.133,128z"/>
		<path style="fill:#2C3E50;" d="M34.133,162.133h-25.6C3.821,162.133,0,158.313,0,153.6s3.821-8.533,8.533-8.533h25.6
			c4.713,0,8.533,3.82,8.533,8.533S38.846,162.133,34.133,162.133z"/>
		<path style="fill:#2C3E50;" d="M34.133,196.267h-25.6c-4.713,0-8.533-3.821-8.533-8.533c0-4.713,3.821-8.533,8.533-8.533h25.6
			c4.713,0,8.533,3.821,8.533,8.533C42.667,192.446,38.846,196.267,34.133,196.267z"/>
		<path style="fill:#2C3E50;" d="M34.133,230.4h-25.6C3.821,230.4,0,226.579,0,221.867c0-4.713,3.821-8.533,8.533-8.533h25.6
			c4.713,0,8.533,3.821,8.533,8.533C42.667,226.579,38.846,230.4,34.133,230.4z"/>
	</g>
</g>
<g>
</g>
<g>
</g>
<g>
</g>
<g>
</g>
<g>
</g>
<g>
</g>
<g>
</g>
<g>
</g>
<g>
</g>
<g>
</g>
<g>
</g>
<g>
</g>
<g>
</g>
<g>
</g>
<g>
</g>
</svg>
