<?xml version="1.0" encoding="iso-8859-1"?>
<!-- Generator: Adobe Illustrator 19.0.0, SVG Export Plug-In . SVG Version: 6.00 Build 0)  -->
<svg version="1.1" id="Capa_1" xmlns="http://www.w3.org/2000/svg" xmlns:xlink="http://www.w3.org/1999/xlink" x="0px" y="0px"
	 viewBox="0 0 512 512" style="enable-background:new 0 0 512 512;" xml:space="preserve">
<g>
	<g>
		<path style="fill:#3F5C6C;" d="M17.655,467.862h105.931v35.31c0,4.875-3.952,8.828-8.828,8.828H26.483
			c-4.875,0-8.828-3.952-8.828-8.828V467.862z"/>
		<path style="fill:#3F5C6C;" d="M485.517,512h-88.276c-4.875,0-8.828-3.952-8.828-8.828v-35.31h105.931v35.31
			C494.345,508.048,490.393,512,485.517,512z"/>
	</g>
	<path style="fill:#95A5A5;" d="M17.655,0h476.69C504.095,0,512,7.904,512,17.655v441.379c0,9.751-7.905,17.655-17.655,17.655
		H17.655C7.904,476.69,0,468.785,0,459.034V17.655C0,7.904,7.904,0,17.655,0z"/>
	<path style="fill:#7F8C8D;" d="M476.69,150.069v282.483c-0.014,4.869-3.958,8.813-8.828,8.828H44.138
		c-4.869-0.014-8.813-3.958-8.828-8.828V44.138c0.014-4.869,3.958-8.813,8.828-8.828h423.724c4.869,0.014,8.813,3.958,8.828,8.828
		V150.069z"/>
	<path style="fill:#F3D55B;" d="M260.205,386.261c117.934-61.814,121.231-186.222,119.916-219.192
		c-0.239-4.597-3.952-8.249-8.552-8.414c-56.715-3.431-94.124-42.534-108.7-60.926c-1.657-2.107-4.189-3.337-6.869-3.337
		s-5.212,1.23-6.869,3.337c-14.576,18.391-51.985,57.495-108.7,60.926c-4.6,0.165-8.312,3.817-8.552,8.414
		c-1.315,32.97,1.982,157.378,119.916,219.192C254.434,387.62,257.566,387.62,260.205,386.261z"/>
	<g>
		<path style="fill:#B19046;" d="M256,300.138c-24.336,0-44.138-15.84-44.138-35.31c0-4.875,3.952-8.828,8.828-8.828
			s8.828,3.952,8.828,8.828c0,9.569,12.129,17.655,26.483,17.655c14.354,0,26.483-8.086,26.483-17.655
			c0-9.569-12.129-17.655-26.483-17.655c-24.336,0-44.138-15.84-44.138-35.31s19.802-35.31,44.138-35.31s44.138,15.84,44.138,35.31
			c0,4.875-3.952,8.828-8.828,8.828s-8.828-3.952-8.828-8.828c0-9.569-12.129-17.655-26.483-17.655
			c-14.354,0-26.483,8.086-26.483,17.655c0,9.569,12.129,17.655,26.483,17.655c24.336,0,44.138,15.84,44.138,35.31
			C300.138,284.297,280.336,300.138,256,300.138z"/>
		<path style="fill:#B19046;" d="M256,308.966c-4.875,0-8.828-3.952-8.828-8.828V176.552c0-4.875,3.952-8.828,8.828-8.828
			s8.828,3.952,8.828,8.828v123.586C264.828,305.013,260.875,308.966,256,308.966z"/>
	</g>
	<g>
		<path style="fill:#3F5C6C;" d="M88.276,282.483c-14.626,0-26.483-11.857-26.483-26.483c0-14.626,11.857-26.483,26.483-26.483
			s26.483,11.857,26.483,26.483C114.743,270.619,102.895,282.467,88.276,282.483z M88.276,247.172c-4.875,0-8.828,3.952-8.828,8.828
			s3.952,8.828,8.828,8.828c4.875,0,8.828-3.952,8.828-8.828C97.097,251.127,93.149,247.179,88.276,247.172z"/>
		<path style="fill:#3F5C6C;" d="M88.276,326.621c-4.875,0-8.828-3.952-8.828-8.828v-44.138c0-4.875,3.952-8.828,8.828-8.828
			c4.875,0,8.828,3.952,8.828,8.828v44.138C97.103,322.668,93.151,326.621,88.276,326.621z"/>
		<path style="fill:#3F5C6C;" d="M467.862,79.448H512v70.621h-44.138c-9.751,0-17.655-7.904-17.655-17.655v-35.31
			C450.207,87.353,458.111,79.448,467.862,79.448z"/>
		<path style="fill:#3F5C6C;" d="M467.862,326.621H512v70.621h-44.138c-9.751,0-17.655-7.904-17.655-17.655v-35.31
			C450.207,334.525,458.111,326.621,467.862,326.621z"/>
	</g>
</g>
<g>
</g>
<g>
</g>
<g>
</g>
<g>
</g>
<g>
</g>
<g>
</g>
<g>
</g>
<g>
</g>
<g>
</g>
<g>
</g>
<g>
</g>
<g>
</g>
<g>
</g>
<g>
</g>
<g>
</g>
</svg>
