<?xml version="1.0" encoding="iso-8859-1"?>
<!-- Generator: Adobe Illustrator 19.0.0, SVG Export Plug-In . SVG Version: 6.00 Build 0)  -->
<svg version="1.1" id="Capa_1" xmlns="http://www.w3.org/2000/svg" xmlns:xlink="http://www.w3.org/1999/xlink" x="0px" y="0px"
	 viewBox="0 0 511.993 511.993" style="enable-background:new 0 0 511.993 511.993;" xml:space="preserve">
<g>
	<path style="fill:#CC4B4C;" d="M397.233,163.059c-1.382,0.002-2.745-0.326-3.974-0.957c-4.329-2.18-6.08-7.452-3.914-11.789
		c6.663-13.068,19.738-21.639,34.379-22.534c4.875,0,8.828,3.952,8.828,8.828c0,4.875-3.952,8.828-8.828,8.828
		c-7.95,0.916-14.926,5.724-18.612,12.828C403.589,161.207,400.549,163.058,397.233,163.059z"/>
	<path style="fill:#FB7B76;" d="M397.241,154.262c0.046-30.45-12.03-59.666-33.561-81.197
		c-21.531-21.531-50.747-33.607-81.197-33.561c-8.828,0-8.828,3.354-8.828,8.828v8.828c0,4.875-3.952,8.828-8.828,8.828h-17.655
		c-4.875,0-8.828-3.952-8.828-8.828v-8.828c0-5.466,0-8.828-8.828-8.828s-16.634,1.323-22.464-3.559
		c-8.131-6.757-17.005-12.567-26.45-17.317c-2.738-1.407-6.011-1.288-8.639,0.314c-2.629,1.602-4.235,4.456-4.24,7.534
		l-0.001,24.808c-0.048,8.169-3.835,15.867-10.279,20.889c-7.638,5.998-14.54,12.877-20.564,20.495
		c-11.544,15.777-29.635,25.449-49.167,26.285c-9.442,0.007-17.093,7.664-17.093,17.106v36.41
		c-0.105,9.332,7.366,16.987,16.697,17.108c18.984,0.009,36.833,9.048,48.075,24.345c9.726,12.741,21.762,23.537,35.48,31.827
		c6.531,4.009,9.708,11.79,7.85,19.224l-0.188,0.752c-1.119,4.475,1.396,9.057,5.772,10.516l14.172,4.724
		c2.841,0.947,5.968,0.389,8.306-1.481l10.763-8.61c3.943-3.089,8.992-4.402,13.941-3.625c8.117,1.178,16.309,1.772,24.511,1.775
		c16.982,0.02,33.87-2.521,50.094-7.537c5.497-1.641,11.449-0.454,15.897,3.169l17.244,13.796c3.002,2.401,7.213,2.584,10.411,0.452
		l15.75-10.5c3.194-2.129,4.646-6.079,3.591-9.77l-5.083-17.789c-1.714-5.921-0.178-12.308,4.043-16.801
		C386.374,205.448,396.874,180.436,397.241,154.262z"/>
	<path style="fill:#DF4D60;" d="M194.216,136.606c-3.347,0.005-6.409-1.885-7.905-4.879c-2.621-5.237-6.268-8.362-9.759-8.362
		c-3.491,0-7.138,3.125-9.759,8.362c-2.181,4.361-7.484,6.129-11.845,3.948s-6.129-7.484-3.948-11.845
		c4.271-10.494,14.236-17.561,25.552-18.121c11.315,0.56,21.281,7.627,25.552,18.121c1.368,2.735,1.223,5.984-0.383,8.586
		S197.274,136.604,194.216,136.606z"/>
	<path style="fill:#41767F;" d="M79.448,291.309v185.379c0,4.682-1.86,9.173-5.171,12.484c-3.311,3.311-7.802,5.171-12.484,5.171
		H17.655C7.916,494.314,0.029,486.427,0,476.688V291.309c0.028-9.739,7.916-17.627,17.655-17.655h44.138
		C71.532,273.682,79.42,281.57,79.448,291.309z"/>
	<path style="fill:#FDD7AD;" d="M507.145,340.655v-0.088c-6.263-8.314-17.123-11.721-27.012-8.475l-163.399,54.466
		c-3.61,1.229-7.398,1.856-11.211,1.854h-20.745c10.38-10.351,12.381-26.439,4.855-39.018l-0.794-1.324
		c-7.961-13.325-22.349-21.474-37.87-21.451H204.8c-18.286-0.026-36.024-6.249-50.317-17.655
		c-14.293-11.406-32.031-17.63-50.317-17.655H79.448v185.379c-0.01,2.927-0.738,5.806-2.119,8.386l2.119,0.441h223.338
		c11.334,0.004,22.451-3.111,32.132-9.004l165.429-100.723c5.839-3.525,9.911-9.36,11.207-16.056
		C512.85,353.036,511.248,346.104,507.145,340.655z"/>
	<path style="fill:#CBB292;" d="M500.348,375.789L334.919,476.511c-9.682,5.893-20.798,9.008-32.132,9.004H79.448l97.103-79.448
		l6.444-4.326c13.059-8.665,28.377-13.3,44.05-13.33h78.477c3.813,0.002,7.601-0.624,11.211-1.854l163.399-54.466
		c9.89-3.247,20.75,0.16,27.012,8.475v0.088c4.103,5.449,5.705,12.381,4.41,19.078C510.259,366.429,506.187,372.263,500.348,375.789
		z"/>
</g>
<g>
</g>
<g>
</g>
<g>
</g>
<g>
</g>
<g>
</g>
<g>
</g>
<g>
</g>
<g>
</g>
<g>
</g>
<g>
</g>
<g>
</g>
<g>
</g>
<g>
</g>
<g>
</g>
<g>
</g>
</svg>
