<svg id="Capa_1" enable-background="new 0 0 512 512" height="512" viewBox="0 0 512 512" width="512" xmlns="http://www.w3.org/2000/svg"><path d="m256 164.2c-53.101 27.001-75 67.8-75 106.8 0 13.801 3.9 24.6 11.4 32.1 12.6 12.299 27.6 13.2 63.6 12.9 43.5-.901 52.8-2.1 63.6-12.9 7.5-7.5 11.4-18.3 11.4-32.1 0-39-21.899-79.799-75-106.8z" fill="#8de06a"/><path d="m331 271c0 13.801-3.9 24.6-11.4 32.1-10.8 10.8-20.1 11.999-63.6 12.9v-151.8c53.101 27.001 75 67.8 75 106.8z" fill="#00c9b0"/><path d="m241 256h30v90h-30z" fill="#00c9b0"/><path d="m256 0c-75.601 0-135 112.899-135 256s59.399 256 135 256 135-112.899 135-256-59.399-256-135-256zm0 482c-57.001 0-105-103.9-105-226s47.999-226 105-226 105 103.9 105 226-47.999 226-105 226z" fill="#76e2f8"/><path d="m256 256h15v90h-15z" fill="#19a690"/><path d="m391 256c0 143.101-59.399 256-135 256v-30c57.001 0 105-103.9 105-226s-47.999-226-105-226v-30c75.601 0 135 112.899 135 256z" fill="#4bb9ec"/><path d="m476.8 128.5c-18.9-32.999-60.599-49.2-117.299-45.901-32.401 2.1-67.801 10.501-103.501 24.302-22.5 8.399-45.3 19.199-67.5 32.098-123.9 71.701-191.1 178.801-153.3 244.501 17.399 30 53.399 46.199 102.599 46.199 4.799 0 9.6 0 14.7-.298 32.401-2.1 67.8-10.501 103.5-24.302 22.5-8.399 45.3-19.199 67.5-32.098 123.901-71.701 191.101-178.801 153.301-244.501zm-168.3 218.401c-17.401 9.899-35.099 18.898-52.5 25.8-36.599 15.599-72.599 24.6-105.3 26.7-44.099 2.399-76.8-8.701-89.7-30.901-28.2-49.2 36.899-142.5 142.5-203.401 17.401-9.899 35.099-18.898 52.5-25.8 36.599-15.599 72.599-24.6 105.3-26.7 4.499-.298 8.399-.298 12.599-.298 37.5 0 65.4 11.1 77.1 31.199 4.501 7.8 6.599 16.8 6.599 26.4.001 51.599-60.297 125.7-149.098 177.001z" fill="#ffda2d"/><path d="m323.5 373.001c-22.2 12.9-45 23.699-67.5 32.098v-32.399c17.401-6.901 35.099-15.901 52.5-25.8 88.801-51.3 149.099-125.401 149.099-177 0-9.6-2.098-18.6-6.599-26.4-11.7-20.099-39.6-31.199-77.1-31.199-4.2 0-8.101 0-12.599.298-32.701 2.1-68.701 11.102-105.3 26.7v-32.399c35.7-13.801 71.1-22.202 103.5-24.302 56.7-3.3 98.399 12.902 117.299 45.901 37.8 65.701-29.4 172.801-153.3 244.502z" fill="#fdbf00"/><path d="m452.8 408.999c-19.799 13.801-47.1 20.7-78.9 20.7-35.4 0-76.199-8.399-117.9-24.6-22.5-8.399-45-19.199-67.5-32.098-101.4-58.801-167.401-142.5-163.801-208.501l30 1.5c-2.999 53.401 59.702 129.6 148.801 180.901 17.401 10.199 35.099 18.898 52.5 25.8 73.5 30.899 144 36.299 180 11.7z" fill="#ff7b4a"/><path d="m487.301 347.5-30-1.5c2.999-53.401-59.702-129.6-148.801-180.901-17.401-10.199-35.099-18.898-52.5-25.8-73.5-30.899-144-36.299-180-11.7l-16.8-24.598c42.001-29.101 117.299-26.7 196.8 3.9 22.5 8.399 45 19.199 67.5 32.098 101.4 58.801 167.401 142.5 163.801 208.501z" fill="#ff7b4a"/><path d="m436 384.401 16.8 24.598c-19.799 13.801-47.1 20.7-78.9 20.7-35.4 0-76.199-8.399-117.9-24.6v-32.399c73.5 30.899 144 36.299 180 11.701z" fill="#ff435b"/><path d="m487.301 347.5-30-1.5c2.999-53.401-59.702-129.6-148.801-180.901-17.401-10.199-35.099-18.898-52.5-25.8v-32.399c22.5 8.399 45 19.199 67.5 32.098 101.4 58.802 167.401 142.501 163.801 208.502z" fill="#ff435b"/><path d="m467 421c-24.814 0-45-20.186-45-45s20.186-45 45-45 45 20.186 45 45-20.186 45-45 45z" fill="#474f54"/><path d="m45 181c-24.814 0-45-20.186-45-45s20.186-45 45-45 45 20.186 45 45-20.186 45-45 45z" fill="#575f64"/></svg>