<svg id="Capa_1" enable-background="new 0 0 512 512" height="512" viewBox="0 0 512 512" width="512" xmlns="http://www.w3.org/2000/svg"><path d="m416.499 306.7c-16.8 24.3-39.3 45-65.4 59.399l-3.3 2.1h-183.599l-3.3-2.1c-61.799-34.5-99.9-99.6-99.9-170.099h30c0 58.5 30.901 112.5 81.301 142.2h167.699c20.4-12.301 38.401-28.801 51.901-48.6z" fill="#ff7b4a"/><path d="m451 196h-30c0-90.901-74.099-166-165-166-54.3 0-105 27.7-135.901 72.4l-24.598-17.1c36.299-52.8 96.299-85.3 160.499-85.3 107.401 0 195 88.599 195 196z" fill="#76e2f8"/><path d="m368.5 361-26.1 30h-176.7l-22.2-30 37.5-50.101v-84.3h150v84.3z" fill="#e7e7f2"/><path d="m391.901 289.6 24.598 17.1c-16.8 24.3-39.3 45-65.4 59.399l-3.3 2.1h-91.799v-30h84c20.399-12.3 38.401-28.8 51.901-48.599z" fill="#ff435b"/><path d="m451 196h-30c0-90.901-74.099-166-165-166v-30c107.401 0 195 88.599 195 196z" fill="#4bb9ec"/><path d="m368.5 361-26.1 30h-86.4v-164.401h75v84.3z" fill="#cecee6"/><path d="m151 211h210v30h-210z" fill="#f2f2f2"/><path d="m256 211h105v30h-105z" fill="#e7e7f2"/><path d="m408.999 416-40.499-55h-225l-40.499 55.3c-7.801 10.199-12.001 23.099-12.001 35.7 0 32.999 27.001 60 60 60h210c32.999 0 60-27.001 60-60 0-12.601-4.2-25.501-12.001-36z" fill="#8de06a"/><g fill="#00c9b0"><path d="m421 452c0 32.999-27.001 60-60 60h-105v-151h112.5l40.499 55c7.801 10.499 12.001 23.399 12.001 36z"/><path d="m241 166h30v286h-30z"/><path d="m331 91v30c0 32.999-27.001 60-60 60h-30c-32.999 0-60-27.001-60-60v-30h30c17.999 0 33.9 8.101 45 20.7 11.1-12.599 27.001-20.7 45-20.7z"/></g><path d="m271 181h-15v-69.3c11.1-12.599 27.001-20.7 45-20.7h30v30c0 32.999-27.001 60-60 60z" fill="#19a690"/><path d="m256 166h15v286h-15z" fill="#19a690"/><path d="m92.831 164.945c-6.475 0-12.935-1.406-18.984-4.233-10.884-5.083-19.16-14.092-23.262-25.4-4.116-11.294-3.589-23.511 1.494-34.409 5.083-10.884 14.106-19.146 25.4-23.262 11.338-4.102 23.525-3.56 34.409 1.509 10.884 5.083 19.146 14.092 23.262 25.386 4.102 11.294 3.574 23.511-1.509 34.409-5.083 10.884-14.092 19.146-25.386 23.262-5.024 1.83-10.224 2.738-15.424 2.738z" fill="#76e2f8"/><path d="m419.11 317.099c-6.489 0-12.949-1.421-18.999-4.248-10.884-5.083-19.146-14.092-23.262-25.386-4.102-11.294-3.574-23.511 1.509-34.409 5.083-10.884 14.092-19.146 25.386-23.262 11.265-4.102 23.511-3.604 34.409 1.494 10.884 5.083 19.16 14.092 23.262 25.4 4.116 11.294 3.589 23.511-1.494 34.409-5.083 10.884-14.106 19.146-25.4 23.262-5.025 1.831-10.225 2.74-15.411 2.74z" fill="#ff435b"/></svg>