<svg id="Capa_1" enable-background="new 0 0 511.601 511.601" height="512" viewBox="0 0 511.601 511.601" width="512" xmlns="http://www.w3.org/2000/svg"><path d="m477.85 17.401c-27.599-11.401-58.5-17.401-91.199-17.401-37.5 0-77.401 8.101-117.001 25.499-23.401 10.501-46.8 24.001-69.3 41.4-111.601 84.601-179.399 227.101-127.2 355.201 29.399 12.299 60 17.401 91.8 17.401 30 0 65.7-4.801 104.7-20.4 32.701-12.601 67.5-33.001 102.599-63.9 121.5-108.302 143.702-243.9 105.601-337.8z" fill="#8de06a"/><path d="m372.249 355.201c-35.099 30.899-69.899 51.299-102.599 63.9v-393.602c39.6-17.398 79.501-25.499 117.001-25.499 32.699 0 63.6 6 91.199 17.401 38.101 93.9 15.899 229.498-105.601 337.8z" fill="#00c9b0"/><path d="m434.65 150.601v30h-98.699l-66.301 66.299-23.699 23.701h86.699v30h-116.699l-154.501 154.498c-17.999 18.001-25.499 35.2-25.499 56.501h-30c0-29.401 10.499-54.101 34.199-77.8l124.5-124.5v-113.699h30v83.699l60-60v-128.699h30v98.699l96.899-96.599 21 20.999-36.599 36.901z" fill="#00c9b0"/><path d="m269.65 270.601h62.999v30h-62.999z" fill="#19a690"/><path d="m355.297 451.959c-23.239 0-46.479-8.846-64.173-26.538-35.385-35.385-35.385-92.961 0-128.345 17.146-17.146 39.928-26.592 64.149-26.6h.03c24.228 0 47.012 9.445 64.165 26.6 17.146 17.145 26.593 39.928 26.6 64.152.007 24.237-9.439 47.034-26.6 64.194-17.69 17.691-40.93 26.537-64.171 26.537z" fill="#474f54"/><path d="m312.337 404.208c23.688 23.688 62.231 23.687 85.919 0 11.491-11.491 17.817-26.752 17.813-42.972-.004-16.213-6.33-31.466-17.813-42.947-11.486-11.487-26.74-17.813-42.952-17.813-.007 0-.014 0-.021 0-16.212.005-31.465 6.331-42.946 17.813-23.687 23.687-23.687 62.231 0 85.919z" fill="#76e2f8"/><path d="m436.953 396.966h30v121.877h-30z" fill="#474f54" transform="matrix(.707 -.707 .707 .707 -191.413 453.7)"/><path d="m434.65 150.601v30h-98.699l-66.301 66.298v-156.298h15v98.699l96.899-96.599 21.001 20.998-36.599 36.902z" fill="#19a690"/></svg>