<svg id="Capa_1" enable-background="new 0 0 512 512" height="512" viewBox="0 0 512 512" width="512" xmlns="http://www.w3.org/2000/svg"><path d="m180.972 240v208.7l75 19.799 75 19.501v-248z" fill="#f2f2f2"/><path d="m330.972 240v248l-75-19.5v-228.5z" fill="#e7e7f2"/><path d="m195.972 422c-41.353 0-75 33.647-75 75v15h120l25.102-40.935c-10.609-28.557-37.901-49.065-70.102-49.065z" fill="#8de06a"/><path d="m480.972 225c0 24.899-20.099 45-45 45h-360c-24.901 0-45-20.101-45-45 0-124.2 100.8-225 225-225 33.6 0 53.401 6.899 76.199 13.2l.3.3 8.101 33.898c-6 7.8-9.6 17.401-9.6 27.601 0 24.899 20.099 45 45 45l36.599-20.7 33.301 4.799c38.1 68.102 35.1 114.601 35.1 120.902z" fill="#ff7b4a"/><path d="m480.972 225c0 24.899-20.099 45-45 45h-180v-270c33.6 0 53.401 6.899 76.199 13.2l.3.3 8.101 33.898c-6 7.8-9.6 17.401-9.6 27.601 0 24.899 20.099 45 45 45l36.599-20.7 33.301 4.799c38.1 68.102 35.1 114.601 35.1 120.902z" fill="#ff435b"/><path d="m330.972 392c-31.199 0-58.801 16.199-75 40.199-9.3 14.401-15 31.501-15 49.801v30h180v-30c0-49.501-40.499-90-90-90z" fill="#00c9b0"/><path d="m420.972 482v30h-165v-79.801c16.199-24 43.801-40.199 75-40.199 49.501 0 90 40.499 90 90z" fill="#19a690"/><path d="m156.392 120c-24.814 0-45-20.186-45-45s20.186-45 45-45 45 20.186 45 45-20.185 45-45 45z" fill="#ff8e8e"/><path d="m300.972 165c0 24.899-20.099 45-45 45s-45-20.101-45-45h30c0 8.399 6.599 15 15 15s15-6.601 15-15c0-8.401-6.599-15-15-15v-30c24.901 0 45 20.099 45 45z" fill="#ff8e8e"/><path d="m375.972 150c-41.353 0-75-33.647-75-75 0-21.226 8.628-40.898 24.302-55.415l7.017-6.475 8.848 3.604c40.034 16.333 74.385 43.784 99.331 79.395l5.508 7.866-4.849 8.291c-13.58 23.276-38.555 37.734-65.157 37.734z" fill="#ff7b4a"/><path d="m120.972 150h30v30h-30z" fill="#ff8e8e"/><path d="m300.972 165c0 24.899-20.099 45-45 45v-30c8.401 0 15-6.601 15-15 0-8.401-6.599-15-15-15v-30c24.901 0 45 20.099 45 45z" fill="#ff7b4a"/></svg>