<svg id="Capa_1" enable-background="new 0 0 512 512" height="512" viewBox="0 0 512 512" width="512" xmlns="http://www.w3.org/2000/svg"><path d="m391 0h30v512h-30z" fill="#474f54"/><path d="m346 151h60v30h-60z" fill="#474f54"/><path d="m361 437c0 24.899-20.099 45-45 45h-180c-8.401 0-15 6.599-15 15v15h-30v-15c0-24.901 20.099-45 45-45h180c8.401 0 15-6.601 15-15 0-8.401-6.599-15-15-15h-60c-11.7 0-22.2-4.501-30-11.7-9.3-8.101-15-20.099-15-33.3v-30h30v30c0 8.399 6.599 15 15 15h60c24.901 0 45 20.099 45 45z" fill="#ff435b"/><path d="m361 437c0 24.899-20.099 45-45 45h-90v-30h90c8.401 0 15-6.601 15-15 0-8.401-6.599-15-15-15h-60c-11.7 0-22.2-4.501-30-11.7v-63.3h15v30c0 8.399 6.599 15 15 15h60c24.901 0 45 20.099 45 45z" fill="#cd0000"/><path d="m361 0v60l-47.1 30h-15.601c-22.798 0-45.298 9.3-61.8 25.499l-10.499 10.8-10.499-10.8c-16.502-16.199-39.002-25.499-61.8-25.499h-29.401l-33.3-30v-60z" fill="#f2f2f2"/><path d="m361 0v60l-47.1 30h-15.601c-22.798 0-45.298 9.3-61.8 25.499l-10.499 10.8v-126.299z" fill="#e7e7f2"/><path d="m309 151 52-31v-60h-62.695c-30.835 0-61.055 12.539-82.91 34.395l-10.606 10.605 10.605 10.605c21.856 21.856 52.076 35.395 82.911 35.395z" fill="#cd0000"/><path d="m298.299 120c-22.798 0-45.298-9.3-61.8-25.501-3.3-3.3-6.899-6.299-10.499-9.3-20.4-16.199-45.901-25.199-72.299-25.199h-62.701v271h90v31h90v-31h90v-211z" fill="#ff7b4a"/><path d="m361 120v211h-90v31h-45v-276.801c3.6 3.001 7.2 6 10.499 9.3 16.502 16.201 39.002 25.501 61.8 25.501z" fill="#ff435b"/><path d="m151 181v90h150v-90z" fill="#f2f2f2"/><path d="m226 181h75v90h-75z" fill="#e7e7f2"/></svg>