<svg id="Capa_1" enable-background="new 0 0 511.117 511.117" height="512" viewBox="0 0 511.117 511.117" width="512" xmlns="http://www.w3.org/2000/svg"><path d="m-5.185 447.387h107.828v30h-107.828z" fill="#f2f2f2" transform="matrix(.707 -.707 .707 .707 -312.685 169.887)"/><path d="m.119 460.19h107.828v15h-107.828z" fill="#cecee6" transform="matrix(.707 -.707 .707 .707 -314.881 175.191)"/><path d="m108.066 339.411-63.64 63.64 63.64 63.64 63.64-63.64z" fill="#e7e7f2"/><path d="m288.378 328.805-116.672 116.672-106.066-106.066 63.639-63.639 21.213 1.696v-22.91l31.82-31.819 67.458 25.031 4.455 9.122z" fill="#8de06a"/><path d="m78.976 396.461h90v45h-90z" fill="#cecee6" transform="matrix(.707 -.707 .707 .707 -259.938 210.375)"/><path d="m288.378 328.805-116.672 116.672-53.033-53.033 135.552-135.552z" fill="#00c9b0"/><path d="m319.444 101.673h150v30h-150z" fill="#e7e7f2" transform="matrix(.707 -.707 .707 .707 33.03 313.087)"/><path d="m324.748 114.476h150v15h-150z" fill="#cecee6" transform="matrix(.707 -.707 .707 .707 30.833 318.39)"/><path d="m156.706 251.985h30v90h-30z" fill="#00c9b0" transform="matrix(.707 -.707 .707 .707 -159.709 208.399)"/><path d="m245.952 137.886c-17.546-17.546-17.546-46.093 0-63.64s46.093-17.546 63.64 0 17.546 46.093 0 63.64-46.094 17.546-63.64 0zm42.426-42.427c-5.852-5.852-15.361-5.852-21.213 0s-5.852 15.361 0 21.213 15.361 5.852 21.213 0 5.852-15.36 0-21.213z" fill="#f2f2f2"/><path d="m373.231 265.165c-17.546-17.546-17.546-46.093 0-63.64 17.546-17.546 46.093-17.546 63.64 0 17.546 17.546 17.546 46.093 0 63.64-17.547 17.547-46.094 17.547-63.64 0zm42.426-42.426c-5.852-5.852-15.361-5.852-21.213 0s-5.852 15.361 0 21.213 15.361 5.852 21.213 0c5.853-5.852 5.853-15.361 0-21.213z" fill="#e7e7f2"/><path d="m405.051 212.132-116.673 116.673-106.066-106.066 31.82-31.82 19.728 1.06 1.485-22.273 63.64-63.64z" fill="#f2f2f2"/><path d="m183.222 316.001h30v15h-30z" fill="#19a690" transform="matrix(.707 -.707 .707 .707 -170.692 234.916)"/><path d="m237.698 206.452h165v75h-165z" fill="#e7e7f2" transform="matrix(.707 -.707 .707 .707 -78.716 297.866)"/><path d="m241.558 167.132h30v90h-30z" fill="#e7e7f2" transform="matrix(.707 -.707 .707 .707 -74.856 243.546)"/><path d="m268.075 231.149h30v15h-30z" fill="#cecee6" transform="matrix(.707 -.707 .707 .707 -85.839 270.063)"/><path d="m432.477-11.36h30v150h-30z" fill="#f2f2f2" transform="matrix(.707 -.707 .707 .707 86.063 335.054)"/><path d="m458.994 52.656h30v75h-30z" fill="#e7e7f2" transform="matrix(.707 -.707 .707 .707 75.08 361.57)"/></svg>