<svg id="Capa_1" enable-background="new 0 0 512 512" height="512" viewBox="0 0 512 512" width="512" xmlns="http://www.w3.org/2000/svg"><path d="m255.521 106.086c-29.248 0-53.043-23.795-53.043-53.043s23.795-53.043 53.043-53.043 53.043 23.795 53.043 53.043-23.794 53.043-53.043 53.043z" fill="#fdd0a7"/><path d="m208.013 331.732h30v180.268h-30z" fill="#fdd0a7"/><path d="m272.772 331.732h30v180.268h-30z" fill="#fcbc8a"/><path d="m302.771 303.526.001-171.723-94.695.026-.055 171.697z" fill="#fd9025"/><path d="m308.564 53.043c0-29.088-23.537-52.772-52.564-53.031v106.062c29.027-.259 52.564-23.944 52.564-53.031z" fill="#fcbc8a"/><path d="m302.771 303.526.001-171.723-46.772.013v171.71z" fill="#fc652c"/><path d="m302.771 346.732h-94.763l.069-48.182 94.695-.006z" fill="#50baea"/><path d="m256 298.545h46.771v48.187h-46.771z" fill="#1897fc"/><path d="m0 254.685h512v30h-512z" fill="#d9effc"/><path d="m27.884 212.644h30v111.809h-30z" fill="#475a60"/><path d="m256 254.685h256v30h-256z" fill="#cddefe"/><path d="m454.116 212.644h30v111.809h-30z" fill="#3a4a51"/><path d="m208.057 131.803c-38.823 10.854-67.385 46.545-67.385 88.785v64.057h30v-64.057c0-25.475 15.406-47.409 37.385-57.005z" fill="#fdd0a7"/><path d="m302.772 178.184v-46.381l-94.695.02-.02 46.361z" fill="#fd9025"/><path d="m302.772 131.803v31.728c22.136 9.528 37.678 31.548 37.678 57.137v64.057h30v-64.057c0-42.346-28.706-78.109-67.678-88.865z" fill="#fcbc8a"/><path d="m302.772 131.803-46.772.01v46.37h46.772z" fill="#fc652c"/></svg>