<svg id="Capa_1" enable-background="new 0 0 512 512" height="512" viewBox="0 0 512 512" width="512" xmlns="http://www.w3.org/2000/svg"><path d="m306.838 140.16c-27.95 21.171-58.765 48.402-89.112 78.75-29.846 29.846-56.735 60.209-77.76 87.808l63.693 63.563c27.24-21.035 57.12-47.635 86.41-76.926 30.818-30.818 58.468-62.069 79.959-90.373z" fill="#fd9025"/><path d="m172.658 339.342 31.001 30.938c27.24-21.035 57.12-47.635 86.41-76.926 30.818-30.818 58.468-62.069 79.959-90.373l-30.595-30.416z" fill="#fc652c"/><path d="m157.535 512c-21.432 0-42.864-8.158-59.18-24.474l-73.862-73.862c-32.632-32.632-32.632-85.728 0-118.359 15.807-15.808 36.825-24.514 59.18-24.514s43.373 8.706 59.18 24.513l73.862 73.862c32.632 32.632 32.632 85.728 0 118.36-16.316 16.316-37.748 24.474-59.18 24.474z" fill="#5b6c76"/><path d="m216.715 487.526c3.695-3.695 6.949-7.662 9.807-11.822l-190.219-190.219c-4.181 2.883-8.141 6.152-11.809 9.82-3.524 3.524-6.644 7.299-9.407 11.249l190.38 190.38c3.95-2.764 7.724-5.884 11.248-9.408z" fill="#475a60"/><path d="m98.355 487.526c16.317 16.316 37.748 24.474 59.18 24.474s42.864-8.158 59.18-24.474c32.631-32.632 32.631-85.728 0-118.36l-36.941-36.941-118.36 118.36z" fill="#475a60"/><path d="m205.467 496.933c3.95-2.763 7.724-5.883 11.249-9.407 3.694-3.695 6.948-7.662 9.806-11.822l-95.113-95.113-21.142 21.142z" fill="#3a4a51"/><path d="m428.326 241.209c-21.431 0-42.864-8.158-59.179-24.474l-73.863-73.862c-32.632-32.632-32.632-85.728 0-118.36 15.808-15.807 36.825-24.513 59.18-24.513 22.356 0 43.373 8.706 59.18 24.514l73.862 73.862c32.632 32.632 32.632 85.728 0 118.36-16.315 16.315-37.748 24.473-59.18 24.473z" fill="#5b6c76"/><path d="m487.506 216.735c3.695-3.695 6.948-7.662 9.807-11.822l-190.22-190.219c-4.181 2.883-8.14 6.152-11.809 9.82-3.524 3.524-6.644 7.299-9.407 11.249l190.38 190.38c3.951-2.764 7.725-5.884 11.249-9.408z" fill="#475a60"/><path d="m450.565 61.435-118.36 118.36 36.941 36.941c16.316 16.316 37.748 24.474 59.179 24.474 21.432 0 42.865-8.158 59.18-24.474 32.632-32.632 32.632-85.728 0-118.36z" fill="#475a60"/><path d="m381.058 130.942 95.2 95.2c3.95-2.763 7.724-5.883 11.249-9.407 3.695-3.695 6.948-7.662 9.807-11.822l-95.114-95.113z" fill="#3a4a51"/></svg>