<svg id="Capa_1" enable-background="new 0 0 512.01 512.01" height="512" viewBox="0 0 512.01 512.01" width="512" xmlns="http://www.w3.org/2000/svg"><path d="m72.748 163.195h216.142v29.978h-216.142z" fill="#cddefe" transform="matrix(.171 -.985 .985 .171 -25.664 325.865)"/><path d="m316.202 70.112h29.978v216.142h-29.978z" fill="#b3c1fd" transform="matrix(.985 -.171 .171 .985 -25.591 59.258)"/><path d="m256.005 143.389c-39.532 0-71.694-32.162-71.694-71.694s32.162-71.695 71.694-71.695 71.694 32.162 71.694 71.694-32.162 71.695-71.694 71.695zm0-113.412c-23.003 0-41.717 18.714-41.717 41.717s18.714 41.717 41.717 41.717 41.717-18.714 41.717-41.717-18.714-41.717-41.717-41.717z" fill="#d9effc"/><path d="m139.704 512.01c-2.463 0-4.949-.166-7.457-.507-30.026-4.093-51.125-31.85-47.033-61.876l25.502-187.126 108.908 14.842-25.501 187.126c-3.751 27.519-27.384 47.541-54.419 47.541z" fill="#fee46f"/><path d="m372.306 512.01c-27.037 0-50.667-20.02-54.418-47.541l-25.501-187.126 108.908-14.842 25.502 187.126c4.092 30.026-17.008 57.783-47.033 61.876-2.507.341-4.997.507-7.458.507z" fill="#fed330"/><path d="m110.715 262.501-11.281 82.776 108.818 15.51 11.372-83.444z" fill="#fed330"/><path d="m401.294 262.501-108.908 14.842 11.264 82.655 108.738-16.092z" fill="#f8b233"/><path d="m327.699 71.694c0-39.449-32.029-71.554-71.447-71.688v29.977c22.889.134 41.47 18.791 41.47 41.711s-18.581 41.577-41.47 41.711v29.977c39.418-.134 71.447-32.238 71.447-71.688z" fill="#cddefe"/></svg>