<svg id="Capa_1" enable-background="new 0 0 512 512" height="512" viewBox="0 0 512 512" width="512" xmlns="http://www.w3.org/2000/svg"><path d="m255.909 512-11.008-12.009c-1.761-1.921-43.631-47.767-86.175-109.178-58.111-83.882-87.576-153.178-87.576-205.963 0-101.926 82.924-184.85 184.85-184.85s184.85 82.924 184.85 184.85c0 54.05-29.473 123.738-87.601 207.129-42.568 61.07-84.47 106.212-86.234 108.104z" fill="#50baea"/><path d="m256 0v511.903l11.015-11.82c1.763-1.892 43.665-47.034 86.234-108.104 58.128-83.391 87.601-153.079 87.601-207.129 0-101.926-82.924-184.85-184.85-184.85z" fill="#1897fc"/><path d="m256 309.237c-68.142 0-123.579-55.438-123.579-123.579s55.437-123.578 123.579-123.578c68.141 0 123.579 55.438 123.579 123.579s-55.438 123.578-123.579 123.578z" fill="#7be2f5"/><path d="m256 62.08v247.157c68.141 0 123.579-55.438 123.579-123.579s-55.438-123.578-123.579-123.578z" fill="#50baea"/><path d="m182.727 173.725h146.545v30.112h-146.545z" fill="#d9effc"/><path d="m200.846 149.668h30.112v76.756h-30.112z" fill="#5b6c76"/><path d="m256 173.725h73.272v30.112h-73.272z" fill="#cddefe"/><path d="m280.818 149.668h30.112v76.756h-30.112z" fill="#475a60"/></svg>