<svg id="Capa_1" enable-background="new 0 0 512 512" height="512" viewBox="0 0 512 512" width="512" xmlns="http://www.w3.org/2000/svg"><g fill="#fdd0a7"><path d="m256.133 108.36c-29.897 0-54.221-24.305-54.221-54.179 0-29.875 24.323-54.18 54.221-54.18s54.221 24.305 54.221 54.18c0 29.874-24.324 54.179-54.221 54.179z"/><path d="m207.612 136.174c-40.534 10.658-70.518 47.591-70.518 91.394v76.066h30v-76.066c0-27.083 16.795-50.306 40.518-59.857z"/><path d="m134.517 512h-30v-144.621l111.009-59.519 14.184 26.416-95.193 51.039z"/></g><path d="m407.483 512h-30v-126.685l-95.193-51.039 14.184-26.416 111.009 59.519z" fill="#fcbc8a"/><path d="m310.354 54.18c0-29.716-24.067-53.911-53.746-54.168v108.336c29.678-.257 53.746-24.453 53.746-54.168z" fill="#fcbc8a"/><path d="m304.382 136.174v31.531c23.75 9.538 40.569 32.775 40.569 59.877v76.066h30v-76.066c-.001-43.822-30.009-80.768-70.569-91.408z" fill="#fcbc8a"/><path d="m304.381 336.057h-96.769l.073-199.857 96.697-.026z" fill="#7be2f5"/><path d="m256.607 336.057h47.774l.001-199.883-47.775.013z" fill="#50baea"/><path d="m256.626 511.464c-56.667 0-102.769-46.067-102.769-102.692s46.102-102.692 102.769-102.692 102.769 46.067 102.769 102.692-46.102 102.692-102.769 102.692z" fill="#fc652c"/><path d="m256.626 511.464c56.667 0 102.769-46.067 102.769-102.692s-46.102-102.692-102.769-102.692c-.006 0-.012 0-.019 0v205.384c.007-.001.013 0 .019 0z" fill="#ed3a19"/></svg>