<svg id="Capa_1" enable-background="new 0 0 512 512" height="512" viewBox="0 0 512 512" width="512" xmlns="http://www.w3.org/2000/svg"><path d="m340.88 0h-169.76c-59.951 0-108.724 48.773-108.724 108.724 0 19.307 5.159 38.315 14.92 54.971l56.949 97.178 85.933-47.728-52.309-87.287c-1.826-3.138-2.791-6.714-2.791-10.345 0-11.342 9.228-20.57 20.57-20.57h140.664c11.342 0 20.569 9.228 20.569 20.57 0 3.653-.976 7.249-2.822 10.4l-50.08 88.278 83.736 46.682 56.948-97.178c9.762-16.657 14.921-35.666 14.921-54.971 0-59.951-48.773-108.724-108.724-108.724z" fill="#d9effc"/><path d="m340.88 0h-84.88v94.942h70.332c11.342 0 20.569 9.228 20.569 20.57 0 3.653-.976 7.249-2.822 10.4l-50.08 88.278 83.736 46.682 56.948-97.178c9.762-16.657 14.921-35.666 14.921-54.971 0-59.95-48.773-108.723-108.724-108.723z" fill="#cddefe"/><path d="m388.375 512h-264.75l-4.466-4.935c-30.747-33.972-47.68-77.931-47.68-123.78 0-101.745 82.776-184.521 184.521-184.521s184.521 82.776 184.521 184.521c0 45.85-16.934 89.809-47.681 123.78z" fill="#cddefe"/><path d="m256 198.764v313.236h132.375l4.466-4.935c30.747-33.972 47.681-77.931 47.681-123.78-.001-101.745-82.777-184.521-184.522-184.521z" fill="#b3c1fd"/><path d="m299.104 512h-86.459v-121.195h-47.381l90.736-119.93 90.735 120.727h-47.631z" fill="#d9effc"/><path d="m299.104 512v-120.397h47.631l-90.735-120.728v241.125z" fill="#cddefe"/></svg>