<?xml version="1.0" encoding="iso-8859-1"?>
<!-- Generator: Adobe Illustrator 21.0.0, SVG Export Plug-In . SVG Version: 6.00 Build 0)  -->
<svg version="1.1" id="Capa_1" xmlns="http://www.w3.org/2000/svg" xmlns:xlink="http://www.w3.org/1999/xlink" x="0px" y="0px"
	 viewBox="0 0 512 512" style="enable-background:new 0 0 512 512;" xml:space="preserve">
<g>
	<rect x="388.414" y="291.31" style="fill:#BDC3C7;" width="79.448" height="70.621"/>
	<path style="fill:#A5A5A4;" d="M370.759,273.655H476.69c4.875,0,8.828,3.952,8.828,8.828v17.655c0,4.875-3.952,8.828-8.828,8.828
		H370.759V273.655z"/>
	<path style="fill:#BDC3C7;" d="M44.138,344.276l21.601-43.202c2.99-5.983,9.104-9.763,15.793-9.763h42.055v61.793L44.138,344.276z"
		/>
	<path style="fill:#14A085;" d="M408.188,105.931h15.537c19.501,0,35.31-15.809,35.31-35.31V52.966
		c0-19.501-15.809-35.31-35.31-35.31H88.276c-19.501,0-35.31,15.809-35.31,35.31v17.655c0,19.501,15.809,35.31,35.31,35.31H408.188z
		"/>
	<path style="fill:#805333;" d="M397.241,344.276h83.862c2.438,0,4.414,1.976,4.414,4.414v128c0,19.501-15.809,35.31-35.31,35.31
		H61.793c-19.501,0-35.31-15.809-35.31-35.31v-128c0-2.438,1.976-4.414,4.414-4.414H397.241z"/>
	<path style="fill:#14A085;" d="M353.103,229.517h44.138V476.69c0,19.501-15.809,35.31-35.31,35.31H150.069
		c-19.501,0-35.31-15.809-35.31-35.31V229.517H353.103z"/>
	<path style="fill:#46B29D;" d="M158.897,247.172h-44.138c-9.736-0.518-17.228-8.799-16.772-18.538l6.356-133.208
		c0.894-18.809,16.392-33.607,35.222-33.633h232.872c18.831,0.026,34.328,14.824,35.222,33.633l6.356,133.208
		c0.455,9.739-7.036,18.02-16.772,18.538H158.897z"/>
	<g>
		<path style="fill:#805333;" d="M158.897,0h17.655c9.751,0,17.655,7.904,17.655,17.655v44.138h-52.966V17.655
			C141.241,7.904,149.146,0,158.897,0z"/>
		<path style="fill:#805333;" d="M335.448,0h17.655c9.751,0,17.655,7.904,17.655,17.655v44.138h-52.966V17.655
			C317.793,7.904,325.698,0,335.448,0z"/>
	</g>
	<path style="fill:#46B29D;" d="M326.621,450.207v-52.966H185.379v52.966c0,9.751,7.904,17.655,17.655,17.655h105.931
		C318.716,467.862,326.621,459.958,326.621,450.207z"/>
	<g>
		<path style="fill:#805333;" d="M158.897,167.724l0,98.542c-0.004,1.987,0.613,3.925,1.766,5.544l17.655,24.629
			c1.604,2.317,4.243,3.7,7.062,3.7c2.819,0,5.458-1.383,7.062-3.7l17.655-24.629c1.152-1.619,1.77-3.557,1.766-5.544l0-98.542
			H158.897z"/>
		<path style="fill:#805333;" d="M300.138,167.724l0,98.542c-0.004,1.987,0.613,3.925,1.766,5.544l17.655,24.629
			c1.604,2.317,4.243,3.7,7.062,3.7c2.819,0,5.458-1.383,7.062-3.7l17.655-24.629c1.152-1.619,1.77-3.557,1.766-5.544l0-98.542
			H300.138z"/>
	</g>
	<path style="fill:#65DDB9;" d="M353.103,105.931H158.897c-4.875,0-8.828-3.952-8.828-8.828s3.952-8.828,8.828-8.828h194.207
		c4.875,0,8.828,3.952,8.828,8.828S357.979,105.931,353.103,105.931z"/>
	<g>
		<path style="fill:#59474E;" d="M220.69,176.552h-70.621c-4.875,0-8.828-3.952-8.828-8.828s3.952-8.828,8.828-8.828h70.621
			c4.875,0,8.828,3.952,8.828,8.828S225.565,176.552,220.69,176.552z"/>
		<path style="fill:#59474E;" d="M361.931,176.552H291.31c-4.875,0-8.828-3.952-8.828-8.828s3.952-8.828,8.828-8.828h70.621
			c4.875,0,8.828,3.952,8.828,8.828S366.806,176.552,361.931,176.552z"/>
	</g>
	<path style="fill:#805333;" d="M185.379,335.448h141.241c9.751,0,17.655,7.905,17.655,17.655v48.552
		c0,2.438-1.976,4.414-4.414,4.414H172.138c-2.438,0-4.414-1.976-4.414-4.414v-48.552
		C167.724,343.353,175.629,335.448,185.379,335.448z"/>
	<path style="fill:#59474E;" d="M273.655,379.586h-35.31c-4.875,0-8.828-3.952-8.828-8.828s3.952-8.828,8.828-8.828h35.31
		c4.875,0,8.828,3.952,8.828,8.828S278.531,379.586,273.655,379.586z"/>
</g>
<g>
</g>
<g>
</g>
<g>
</g>
<g>
</g>
<g>
</g>
<g>
</g>
<g>
</g>
<g>
</g>
<g>
</g>
<g>
</g>
<g>
</g>
<g>
</g>
<g>
</g>
<g>
</g>
<g>
</g>
</svg>
