<?xml version="1.0" encoding="iso-8859-1"?>
<!-- Generator: Adobe Illustrator 21.0.0, SVG Export Plug-In . SVG Version: 6.00 Build 0)  -->
<svg version="1.1" id="Capa_1" xmlns="http://www.w3.org/2000/svg" xmlns:xlink="http://www.w3.org/1999/xlink" x="0px" y="0px"
	 viewBox="0 0 512 512" style="enable-background:new 0 0 512 512;" xml:space="preserve">
<g>
	<g>
		<polygon style="fill:#BDC3C7;" points="324.267,162.117 313.617,152.158 158.396,153.583 162.133,162.117 128,230.383 128,247.45 
			418.133,247.45 418.133,230.383 		"/>
		<path style="fill:#A5A5A4;" d="M230.4,85.317h-93.867c-4.713,0-8.533,3.821-8.533,8.533s3.821,8.533,8.533,8.533h28.86
			l14.703,29.414c2.107,4.218,7.234,5.93,11.452,3.823c4.218-2.107,5.93-7.234,3.823-11.452l-10.897-21.786H230.4
			c4.713,0,8.533-3.821,8.533-8.533S235.113,85.317,230.4,85.317z"/>
		<path style="fill:#D1D4D1;" d="M501.419,244.463L400.896,365.381c-7.005,1.045-14.08,1.558-21.163,1.536
			c-61.952,0-61.952-34.133-123.819-34.133s-61.781,34.133-123.648,34.133c-56.917,0-61.44-28.928-110.08-33.536l44.203-68.864
			h22.502l209.775-34.133h196.267c3.331,0,6.358,1.938,7.751,4.963C504.078,238.372,503.584,241.932,501.419,244.463z"/>
	</g>
	<path style="fill:none;stroke:#000000;stroke-width:2;stroke-linecap:round;stroke-linejoin:round;" d="M181.845,356.335h-0.085"/>
	<g>
		<g>
			<path style="fill:#4482C3;" d="M298.667,230.383v17.067c-0.028,9.414-7.653,17.039-17.067,17.067H85.333l23.04-30.72
				c1.624-2.134,4.145-3.395,6.827-3.413H298.667z"/>
			<path style="fill:#4482C3;" d="M324.267,162.117l-5.274-10.547c-7.227-14.455-22-23.586-38.161-23.586H136.533
				c-9.426,0-17.067,7.641-17.067,17.067s7.641,17.067,17.067,17.067H324.267z"/>
		</g>
		<g>
			<path style="fill:#A5A5A4;" d="M349.867,230.383v34.133c0,4.713-3.821,8.533-8.533,8.533s-8.533-3.82-8.533-8.533v-34.133
				H349.867z"/>
			<path style="fill:#A5A5A4;" d="M384,230.383v34.133c0,4.713-3.821,8.533-8.533,8.533c-4.713,0-8.533-3.82-8.533-8.533v-34.133
				H384z"/>
			<path style="fill:#A5A5A4;" d="M418.133,230.383v34.133c0,4.713-3.821,8.533-8.533,8.533c-4.713,0-8.533-3.82-8.533-8.533
				v-34.133H418.133z"/>
		</g>
		<g>
			<path style="fill:#2FA8CC;" d="M503.467,375.45c-23.301-0.547-46.251,5.755-66.005,18.125
				c-17.238,10.924-37.326,16.494-57.728,16.009c-20.413,0.493-40.515-5.078-57.762-16.009
				c-19.764-12.376-42.727-18.678-66.039-18.125c-23.288-0.546-46.224,5.756-65.963,18.125
				c-17.227,10.926-37.308,16.498-57.702,16.009c-20.408,0.492-40.504-5.079-57.745-16.009
				c-19.747-12.371-42.692-18.674-65.988-18.125c-4.713,0-8.533,3.82-8.533,8.533s3.821,8.533,8.533,8.533
				c20.405-0.491,40.498,5.08,57.737,16.009c19.75,12.373,42.698,18.675,65.997,18.125c23.289,0.548,46.226-5.757,65.963-18.133
				c17.229-10.921,37.309-16.489,57.702-16c20.413-0.493,40.515,5.078,57.762,16.009c19.764,12.376,42.727,18.678,66.039,18.125
				c23.301,0.547,46.251-5.755,66.005-18.125c17.238-10.924,37.326-16.494,57.728-16.009c4.713,0,8.533-3.82,8.533-8.533
				S508.18,375.45,503.467,375.45z"/>
			<path style="fill:#2FA8CC;" d="M8.533,341.317c20.405-0.491,40.498,5.08,57.737,16.009c19.75,12.373,42.698,18.675,65.997,18.125
				c23.289,0.548,46.226-5.757,65.963-18.133c17.229-10.921,37.309-16.489,57.702-16c20.413-0.493,40.515,5.078,57.762,16.009
				c19.764,12.376,42.727,18.678,66.039,18.125c23.301,0.547,46.251-5.755,66.005-18.125c17.238-10.924,37.326-16.494,57.728-16.009
				c4.713,0,8.533-3.821,8.533-8.533s-3.82-8.533-8.533-8.533c-23.301-0.547-46.251,5.755-66.005,18.125
				c-17.238,10.924-37.326,16.494-57.728,16.009c-20.413,0.493-40.515-5.078-57.762-16.009
				c-19.764-12.376-42.727-18.678-66.039-18.125c-23.288-0.546-46.224,5.756-65.963,18.125
				c-17.227,10.926-37.308,16.498-57.702,16.009c-20.408,0.492-40.504-5.079-57.745-16.009
				c-19.747-12.371-42.692-18.674-65.988-18.125c-4.713,0-8.533,3.82-8.533,8.533S3.821,341.317,8.533,341.317z"/>
		</g>
		<path style="fill:#67B9CC;" d="M371.2,196.25H247.467c-9.414-0.028-17.039-7.653-17.067-17.067v-17.067h93.867L371.2,196.25z"/>
	</g>
</g>
<g>
</g>
<g>
</g>
<g>
</g>
<g>
</g>
<g>
</g>
<g>
</g>
<g>
</g>
<g>
</g>
<g>
</g>
<g>
</g>
<g>
</g>
<g>
</g>
<g>
</g>
<g>
</g>
<g>
</g>
</svg>
