<?xml version="1.0" encoding="iso-8859-1"?>
<!-- Generator: Adobe Illustrator 21.0.0, SVG Export Plug-In . SVG Version: 6.00 Build 0)  -->
<svg version="1.1" id="Capa_1" xmlns="http://www.w3.org/2000/svg" xmlns:xlink="http://www.w3.org/1999/xlink" x="0px" y="0px"
	 viewBox="0 0 512.09 512.09" style="enable-background:new 0 0 512.09 512.09;" xml:space="preserve">
<g transform="translate(0 -1)">
	<path style="fill:#BDC3C7;" d="M503.217,513.09H302.266c-1.37,0.001-2.722-0.32-3.946-0.936L4.927,365.457
		c-2.99-1.494-4.88-4.549-4.882-7.892v-92.381h512v239.078C512.045,509.138,508.093,513.09,503.217,513.09z"/>
	<g>
		<path style="fill:#E57E25;" d="M406.114,426.147c-1.403-0.003-2.786-0.339-4.034-0.98l-88.276-45.48
			c-2.804-1.444-4.624-4.275-4.775-7.425c-0.151-3.15,1.39-6.142,4.043-7.848c2.653-1.706,6.014-1.867,8.818-0.422l88.276,45.471
			c3.634,1.862,5.517,5.972,4.553,9.94C413.756,423.37,410.197,426.16,406.114,426.147z"/>
		<path style="fill:#E57E25;" d="M485.562,467.072c-1.403,0.001-2.786-0.331-4.034-0.971l-44.138-22.74
			c-2.804-1.444-4.624-4.275-4.775-7.425c-0.151-3.15,1.39-6.142,4.043-7.848c2.653-1.706,6.014-1.867,8.818-0.422l44.138,22.731
			c3.624,1.866,5.498,5.971,4.536,9.932S489.638,467.076,485.562,467.072z"/>
	</g>
	<path style="fill:#285680;" d="M248.895,380.5l-20.127-5.12l-32.486-9.622l-46.521-13.859c0.252-2.168,0.37-4.35,0.353-6.532
		c0-24.364-11.829-44.138-26.483-44.138c-12.977,0-23.746,15.537-26.041,36.105L0.045,310.056V71.711l79.448-23.57
		c2.03-0.618,4.149-1.236,6.179-1.854c5.561-1.589,11.034-3.266,16.508-4.855c7.857-2.383,15.713-4.679,23.57-6.974
		c9.181-2.737,18.273-5.473,27.454-8.121c9.357-2.825,18.714-5.561,28.072-8.298c12.27-3.708,24.541-7.327,36.811-11.034
		c5.473-1.677,10.946-3.354,16.596-4.679c1.236-0.265,2.472-0.53,3.796-0.706c1.324-0.177,2.472-0.353,3.708-0.441
		c1.67-0.203,3.356-0.233,5.032-0.088L248.895,380.5z"/>
	<path style="fill:#4482C3;" d="M247.217,1.09h229.517c19.501,0,35.31,15.809,35.31,35.31v308.966
		c0,19.501-15.809,35.31-35.31,35.31H247.217c-19.501,0-35.31-15.809-35.31-35.31V36.4C211.907,16.899,227.716,1.09,247.217,1.09z"
		/>
	<path style="fill:#90BAE1;" d="M476.735,1.09v211.862c0,49.17-33.81,52.966-44.138,52.966H291.355
		c-10.328,0-44.138-3.796-44.138-52.966V1.09H476.735z"/>
	<path style="fill:#2C3E50;" d="M123.878,301.104c-12.977-0.071-23.834,15.404-26.244,35.955c-0.296,2.668-0.458,5.349-0.486,8.033
		c-0.132,24.364,11.591,44.2,26.244,44.288c1.804,0.023,3.598-0.276,5.297-0.883c9.19-1.448,18.379-2.904,27.569-4.414
		c7.424-1.192,14.751-2.127,22.069-3.407c7.8-1.677,14.347-6.944,17.655-14.204l0.177-0.441L123.878,301.104z"/>
	<path style="fill:#35495E;" d="M150.114,345.366c0.017,2.183-0.101,4.364-0.353,6.532c-1.589,18.361-9.975,33.015-20.833,36.723
		c-1.699,0.607-3.493,0.906-5.297,0.883c-14.654,0-26.483-19.774-26.483-44.138c0.013-2.683,0.16-5.364,0.441-8.033
		c2.295-20.568,13.065-36.105,26.041-36.105C138.285,301.228,150.114,321.002,150.114,345.366z"/>
	<g>
		<path style="fill:#B0D3F0;" d="M399.114,78.711c-3.447-3.446-9.035-3.446-12.482,0L285.114,180.228
			c-2.295,2.216-3.215,5.499-2.407,8.585c0.808,3.086,3.218,5.497,6.305,6.305c3.086,0.808,6.368-0.112,8.585-2.407L399.114,91.193
			C402.56,87.746,402.56,82.158,399.114,78.711z"/>
		<path style="fill:#B0D3F0;" d="M438.838,114.021c-3.447-3.446-9.035-3.446-12.482,0L324.838,215.539
			c-2.295,2.216-3.215,5.499-2.407,8.585c0.808,3.086,3.218,5.497,6.305,6.305c3.086,0.808,6.368-0.112,8.585-2.407l101.517-101.517
			C442.284,123.056,442.284,117.468,438.838,114.021z"/>
	</g>
	<path style="fill:#2C3E50;" d="M309.011,1.09V36.4c0,4.875,3.952,8.828,8.828,8.828h88.276c4.875,0,8.828-3.952,8.828-8.828V1.09
		H309.011z"/>
	<g>
		<circle style="fill:#F0C419;" cx="286.942" cy="323.297" r="22.069"/>
		<circle style="fill:#F0C419;" cx="437.011" cy="323.297" r="22.069"/>
	</g>
	<g>
		<path style="fill:#90BAE1;" d="M176.597,19.363v165.782c0,2.557-1.109,4.987-3.039,6.664c-1.93,1.676-4.493,2.433-7.024,2.076
			l-44.138-6.356c-4.354-0.616-7.591-4.342-7.592-8.739V37.724L176.597,19.363z"/>
		<path style="fill:#90BAE1;" d="M79.493,48.141l0,119.172c0.003,2.574-1.117,5.022-3.068,6.702
			c-1.951,1.68-4.538,2.424-7.083,2.038L0.045,165.46V71.711L79.493,48.141z"/>
	</g>
</g>
<g>
</g>
<g>
</g>
<g>
</g>
<g>
</g>
<g>
</g>
<g>
</g>
<g>
</g>
<g>
</g>
<g>
</g>
<g>
</g>
<g>
</g>
<g>
</g>
<g>
</g>
<g>
</g>
<g>
</g>
</svg>
