<?xml version="1.0" encoding="iso-8859-1"?>
<!-- Generator: Adobe Illustrator 21.0.0, SVG Export Plug-In . SVG Version: 6.00 Build 0)  -->
<svg version="1.1" id="Capa_1" xmlns="http://www.w3.org/2000/svg" xmlns:xlink="http://www.w3.org/1999/xlink" x="0px" y="0px"
	 viewBox="0 0 512 512" style="enable-background:new 0 0 512 512;" xml:space="preserve">
<g>
	<circle style="fill:#F29C1F;" cx="112.814" cy="112.814" r="52.068"/>
	<g>
		<path style="fill:#F0C419;" d="M112.814,0c-4.793,0-8.678,3.885-8.678,8.678v17.356c0,4.793,3.885,8.678,8.678,8.678
			s8.678-3.885,8.678-8.678V8.678C121.492,3.885,117.606,0,112.814,0z"/>
		<path style="fill:#F0C419;" d="M68.261,18.284c-2.413-4.115-7.694-5.512-11.825-3.126s-5.563,7.658-3.205,11.804l8.678,15.039
			c1.539,2.707,4.411,4.382,7.525,4.389c3.114,0.007,5.993-1.655,7.544-4.356c1.551-2.7,1.536-6.025-0.039-8.711L68.261,18.284z"/>
		<path style="fill:#F0C419;" d="M42.001,61.909l-15.03-8.678c-2.686-1.575-6.011-1.59-8.711-0.039s-4.363,4.43-4.356,7.544
			c0.007,3.114,1.682,5.986,4.389,7.525l15.03,8.678c4.147,2.358,9.419,0.926,11.804-3.205
			C47.513,69.603,46.117,64.321,42.001,61.909z"/>
		<path style="fill:#F0C419;" d="M34.712,112.814c0-4.793-3.885-8.678-8.678-8.678H8.678c-4.793,0-8.678,3.885-8.678,8.678
			s3.885,8.678,8.678,8.678h17.356C30.827,121.492,34.712,117.606,34.712,112.814z"/>
		<path style="fill:#F0C419;" d="M33.323,148.688l-15.03,8.678c-2.707,1.539-4.382,4.411-4.389,7.525s1.655,5.993,4.356,7.544
			c2.7,1.551,6.025,1.536,8.711-0.039l15.03-8.678c2.707-1.539,4.382-4.411,4.389-7.525c0.007-3.114-1.655-5.993-4.356-7.544
			C39.334,147.099,36.01,147.113,33.323,148.688z"/>
		<path style="fill:#F0C419;" d="M73.763,180.45c-4.15-2.396-9.458-0.974-11.854,3.176l-8.678,15.039
			c-1.575,2.686-1.59,6.011-0.039,8.711c1.551,2.7,4.43,4.363,7.544,4.356c3.114-0.007,5.986-1.682,7.525-4.389l8.678-15.039
			C79.335,188.153,77.913,182.846,73.763,180.45z"/>
		<path style="fill:#F0C419;" d="M112.814,190.915c-4.793,0-8.678,3.885-8.678,8.678v17.356c0,4.793,3.885,8.678,8.678,8.678
			s8.678-3.885,8.678-8.678v-17.356C121.492,194.801,117.606,190.915,112.814,190.915z"/>
		<path style="fill:#F0C419;" d="M163.719,183.626c-2.413-4.115-7.694-5.512-11.825-3.126c-4.131,2.385-5.563,7.658-3.205,11.804
			l8.678,15.039c1.539,2.707,4.411,4.382,7.525,4.389c3.114,0.007,5.993-1.655,7.544-4.356c1.551-2.7,1.536-6.025-0.039-8.711
			L163.719,183.626z"/>
		<path style="fill:#F0C419;" d="M207.334,157.366l-15.03-8.678c-4.147-2.358-9.419-0.926-11.804,3.205
			c-2.385,4.131-0.989,9.413,3.126,11.825l15.03,8.678c2.686,1.575,6.011,1.59,8.711,0.039c2.7-1.551,4.363-4.43,4.356-7.544
			C211.716,161.777,210.041,158.905,207.334,157.366z"/>
		<path style="fill:#F0C419;" d="M216.949,104.136h-17.356c-4.793,0-8.678,3.885-8.678,8.678s3.885,8.678,8.678,8.678h17.356
			c4.793,0,8.678-3.885,8.678-8.678S221.742,104.136,216.949,104.136z"/>
		<path style="fill:#F0C419;" d="M187.973,78.102c1.524,0.003,3.021-0.398,4.339-1.163l15.03-8.678
			c2.707-1.539,4.382-4.411,4.389-7.525c0.007-3.114-1.655-5.993-4.356-7.544c-2.7-1.551-6.025-1.536-8.711,0.039l-15.03,8.678
			c-3.401,1.964-5.059,5.967-4.043,9.761C180.608,75.463,184.046,78.102,187.973,78.102z"/>
		<path style="fill:#F0C419;" d="M169.22,15.108c-4.15-2.396-9.458-0.974-11.854,3.176l-8.678,15.039
			c-1.575,2.686-1.59,6.011-0.039,8.711c1.551,2.7,4.43,4.363,7.544,4.356c3.114-0.007,5.986-1.682,7.525-4.389l8.678-15.039
			C174.793,22.812,173.371,17.505,169.22,15.108z"/>
	</g>
	<g>
		<path style="fill:#71C285;" d="M494.644,260.339c-4.793,0-8.678,3.885-8.678,8.678v17.356c0,4.793-3.885,8.678-8.678,8.678h-8.678
			v-60.746c0-4.793-3.885-8.678-8.678-8.678c-4.793,0-8.678,3.885-8.678,8.678v104.136h-8.678c-4.793,0-8.678-3.885-8.678-8.678
			v-17.356c0-4.793-3.885-8.678-8.678-8.678s-8.678,3.885-8.678,8.678v17.356c0,14.378,11.656,26.034,26.034,26.034h8.678v52.068
			c0,4.793,3.885,8.678,8.678,8.678c4.793,0,8.678-3.885,8.678-8.678v-95.458h8.678c14.378,0,26.034-11.656,26.034-26.034v-17.356
			C503.322,264.224,499.437,260.339,494.644,260.339z"/>
		<path style="fill:#71C285;" d="M112.814,286.373c-4.793,0-8.678,3.885-8.678,8.678v8.678c0,4.793-3.885,8.678-8.678,8.678H86.78
			v-43.39c0-4.793-3.885-8.678-8.678-8.678c-4.793,0-8.678,3.885-8.678,8.678v86.78h-8.678c-4.793,0-8.678-3.885-8.678-8.678
			v-17.356c0-4.793-3.885-8.678-8.678-8.678s-8.678,3.885-8.678,8.678v17.356c0,14.378,11.656,26.034,26.034,26.034h8.678v34.712
			c0,4.793,3.885,8.678,8.678,8.678c4.793,0,8.678-3.885,8.678-8.678v-78.102h8.678c14.378,0,26.034-11.656,26.034-26.034v-8.678
			C121.492,290.258,117.606,286.373,112.814,286.373z"/>
	</g>
	<path style="fill:#59474E;" d="M379.487,355.797l-21.261-38.877c-1.497-2.776-4.396-4.508-7.55-4.513h-70.205
		c-1.809,0.012-3.568,0.588-5.033,1.649l-56.233,40.092c-1.465,1.061-3.225,1.637-5.033,1.649h-51.721
		c-3.719,0.027-7.019,2.389-8.244,5.901l-15.36,46.167v26.034h269.017v-26.034L379.487,355.797z"/>
	<path style="fill:#7F5B53;" d="M407.864,407.864H138.847l15.36-46.167c1.225-3.512,4.525-5.874,8.244-5.901h51.721
		c1.809-0.012,3.568-0.588,5.033-1.649v1.649h160.282L407.864,407.864z"/>
	<path style="fill:#A5A5A4;" d="M17.356,407.864h485.966c4.793,0,8.678,3.885,8.678,8.678v86.78c0,4.793-3.885,8.678-8.678,8.678
		H17.356c-4.793,0-8.678-3.885-8.678-8.678v-86.78C8.678,411.75,12.563,407.864,17.356,407.864z"/>
	<g>
		<path style="fill:#F0C419;" d="M43.39,459.932c0,4.793-3.885,8.678-8.678,8.678H8.678v-17.356h26.034
			C39.505,451.254,43.39,455.139,43.39,459.932z"/>
		<path style="fill:#F0C419;" d="M104.136,451.254H78.102c-4.793,0-8.678,3.885-8.678,8.678c0,4.793,3.885,8.678,8.678,8.678h26.034
			c4.793,0,8.678-3.885,8.678-8.678C112.814,455.139,108.928,451.254,104.136,451.254z"/>
		<path style="fill:#F0C419;" d="M173.559,451.254h-26.034c-4.793,0-8.678,3.885-8.678,8.678c0,4.793,3.885,8.678,8.678,8.678
			h26.034c4.793,0,8.678-3.885,8.678-8.678C182.237,455.139,178.352,451.254,173.559,451.254z"/>
		<path style="fill:#F0C419;" d="M242.983,451.254h-26.034c-4.793,0-8.678,3.885-8.678,8.678c0,4.793,3.885,8.678,8.678,8.678
			h26.034c4.793,0,8.678-3.885,8.678-8.678C251.661,455.139,247.776,451.254,242.983,451.254z"/>
		<path style="fill:#F0C419;" d="M312.407,451.254h-26.034c-4.793,0-8.678,3.885-8.678,8.678c0,4.793,3.885,8.678,8.678,8.678
			h26.034c4.793,0,8.678-3.885,8.678-8.678C321.085,455.139,317.199,451.254,312.407,451.254z"/>
		<path style="fill:#F0C419;" d="M381.831,451.254h-26.034c-4.793,0-8.678,3.885-8.678,8.678c0,4.793,3.885,8.678,8.678,8.678
			h26.034c4.793,0,8.678-3.885,8.678-8.678C390.508,455.139,386.623,451.254,381.831,451.254z"/>
		<path style="fill:#F0C419;" d="M451.254,451.254H425.22c-4.793,0-8.678,3.885-8.678,8.678c0,4.793,3.885,8.678,8.678,8.678h26.034
			c4.793,0,8.678-3.885,8.678-8.678C459.932,455.139,456.047,451.254,451.254,451.254z"/>
		<path style="fill:#F0C419;" d="M512,451.254v17.356h-26.034c-4.793,0-8.678-3.885-8.678-8.678c0-4.793,3.885-8.678,8.678-8.678
			H512z"/>
	</g>
</g>
<g>
</g>
<g>
</g>
<g>
</g>
<g>
</g>
<g>
</g>
<g>
</g>
<g>
</g>
<g>
</g>
<g>
</g>
<g>
</g>
<g>
</g>
<g>
</g>
<g>
</g>
<g>
</g>
<g>
</g>
</svg>
