<?xml version="1.0" encoding="iso-8859-1"?>
<!-- Generator: Adobe Illustrator 21.0.0, SVG Export Plug-In . SVG Version: 6.00 Build 0)  -->
<svg version="1.1" id="Capa_1" xmlns="http://www.w3.org/2000/svg" xmlns:xlink="http://www.w3.org/1999/xlink" x="0px" y="0px"
	 viewBox="0 0 512 512" style="enable-background:new 0 0 512 512;" xml:space="preserve">
<g>
	<path style="fill:#41767F;" d="M406.069,414.897v79.448c-0.029,9.739-7.917,17.626-17.655,17.655H123.586
		c-9.739-0.029-17.626-7.917-17.655-17.655v-79.448H406.069z"/>
	<path style="fill:#2FA8CC;" d="M406.069,17.655v414.897H105.931V17.655C105.96,7.917,113.848,0.029,123.586,0h264.828
		C398.152,0.029,406.04,7.917,406.069,17.655z"/>
	<path style="fill:#35495E;" d="M264.828,485.517h-17.655c-4.875,0-8.828-3.952-8.828-8.828s3.952-8.828,8.828-8.828h17.655
		c4.875,0,8.828,3.952,8.828,8.828S269.703,485.517,264.828,485.517z"/>
	<polygon style="fill:#4FBA6F;" points="150.069,35.31 150.069,344.276 44.138,397.241 44.138,88.276 	"/>
	<g>
		<polygon style="fill:#24AE5F;" points="259.531,395.476 256,397.241 150.069,344.276 150.069,35.31 256,88.276 256,388.414 		"/>
		<polygon style="fill:#24AE5F;" points="467.862,88.276 467.862,397.241 361.931,344.276 361.931,35.31 		"/>
	</g>
	<polygon style="fill:#4FBA6F;" points="361.931,35.31 361.931,344.276 259.531,395.476 256,388.414 256,88.276 	"/>
	<path style="fill:#F0C419;" d="M388.414,317.793H216.276c-17.064,0-30.897-13.833-30.897-30.897S199.212,256,216.276,256h70.621
		c7.313,0,13.241-5.928,13.241-13.241s-5.928-13.241-13.241-13.241h-163.31c-4.875,0-8.828-3.952-8.828-8.828
		s3.952-8.828,8.828-8.828h163.31c17.064,0,30.897,13.833,30.897,30.897s-13.833,30.897-30.897,30.897h-70.621
		c-7.313,0-13.241,5.928-13.241,13.241c0,7.313,5.928,13.241,13.241,13.241h172.138c4.875,0,8.828,3.952,8.828,8.828
		S393.289,317.793,388.414,317.793z"/>
	<g>
		<path style="fill:#E64C3C;" d="M167.724,141.241c0,18.185-24.576,53.469-37.076,70.206c-1.665,2.244-4.294,3.567-7.089,3.567
			c-2.794,0-5.423-1.323-7.089-3.567c-12.447-16.737-37.023-52.021-37.023-70.206c0-24.377,19.761-44.138,44.138-44.138
			S167.724,116.865,167.724,141.241z"/>
		<path style="fill:#E64C3C;" d="M432.552,229.517c0,18.185-24.576,53.469-37.076,70.206c-1.665,2.244-4.294,3.567-7.089,3.567
			c-2.794,0-5.423-1.323-7.089-3.567c-12.447-16.737-37.023-52.021-37.023-70.206c0-24.377,19.761-44.138,44.138-44.138
			S432.552,205.141,432.552,229.517z"/>
	</g>
	<g>
		<path style="fill:#C03A2B;" d="M123.586,150.069c-2.348,0.024-4.608-0.899-6.268-2.559c-1.661-1.661-2.583-3.92-2.559-6.268
			c0.014-1.154,0.254-2.293,0.706-3.354c0.427-1.08,1.056-2.069,1.854-2.913c2.829-2.806,7.187-3.369,10.636-1.374
			c3.449,1.995,5.134,6.053,4.112,9.905C131.046,147.356,127.571,150.046,123.586,150.069z"/>
		<path style="fill:#C03A2B;" d="M388.414,238.345c-2.348,0.024-4.608-0.899-6.268-2.559c-1.661-1.661-2.583-3.92-2.559-6.268
			c0.014-1.154,0.254-2.293,0.706-3.354c0.427-1.08,1.056-2.069,1.854-2.913c2.829-2.806,7.187-3.369,10.636-1.374
			c3.449,1.995,5.134,6.053,4.112,9.905C395.873,235.632,392.398,238.322,388.414,238.345z"/>
	</g>
</g>
<g>
</g>
<g>
</g>
<g>
</g>
<g>
</g>
<g>
</g>
<g>
</g>
<g>
</g>
<g>
</g>
<g>
</g>
<g>
</g>
<g>
</g>
<g>
</g>
<g>
</g>
<g>
</g>
<g>
</g>
</svg>
