<?xml version="1.0" encoding="iso-8859-1"?>
<!-- Generator: Adobe Illustrator 21.0.0, SVG Export Plug-In . SVG Version: 6.00 Build 0)  -->
<svg version="1.1" id="Capa_1" xmlns="http://www.w3.org/2000/svg" xmlns:xlink="http://www.w3.org/1999/xlink" x="0px" y="0px"
	 viewBox="0 0 512.044 512.044" style="enable-background:new 0 0 512.044 512.044;" xml:space="preserve">
<g transform="translate(0 -1)">
	<path style="fill:#41767F;" d="M503.36,491.856c-1.312,6.09-4.678,11.545-9.534,15.448c-4.697,3.722-10.515,5.744-16.508,5.738
		H34.704c-1.96,0.022-3.915-0.185-5.826-0.618c-7.068-1.578-13.182-5.981-16.918-12.186c-3.736-6.204-4.768-13.668-2.856-20.653
		l40.254-147.597l6.797-24.629l18.008-66.119c3.141-11.506,13.585-19.493,25.512-19.509h29.572
		c27.366,81.214,226.074,81.214,253.528,0h29.572c11.927,0.016,22.371,8.003,25.512,19.509l9.799,35.752l6.974,25.6l48.287,176.993
		C504.028,483.584,504.179,487.788,503.36,491.856z"/>
	<path style="fill:#67B9CC;" d="M503.36,491.856c-1.312,6.09-4.678,11.545-9.534,15.448l-94.19-94.19l-13.683,27.454
		c-5.935,11.972-18.153,19.535-31.514,19.509h-50.847l17.92,52.966h-18.626l-17.92-52.966H132.69
		c-3.928,0.014-7.742,1.316-10.858,3.708l-64.618,49.258h-22.51c-1.96,0.022-3.915-0.185-5.826-0.618l82.185-62.588
		c0.441-0.353,0.883-0.53,1.324-0.883L49.358,331.988l6.797-24.629l72.916,135.327c1.148-0.088,2.383-0.265,3.619-0.265h114.494
		v-75.034c0-4.875,3.952-8.828,8.828-8.828c4.875,0,8.828,3.952,8.828,8.828v75.034h89.6c6.688,0.032,12.799-3.779,15.713-9.799
		l77.506-155.63l6.974,25.6l-46.698,93.837L503.36,491.856z"/>
	<path style="fill:#4482C3;" d="M258.412,1.042c-73.135-1.78-135.372,52.912-143.007,125.67
		c-9.807,110.963,90.094,239.395,127.117,282.809c3.33,3.954,8.23,6.244,13.4,6.263s10.086-2.236,13.445-6.166
		c35.257-41.295,127.885-160.106,127.885-267.335C397.264,65.206,335.479,2.353,258.412,1.042z"/>
	<path style="fill:#F0C419;" d="M256.011,124.628c-3.179-0.004-6.111-1.717-7.675-4.485c-1.564-2.768-1.519-6.163,0.119-8.889
		l18.45-30.764h-19.721c-4.875,0-8.828-3.952-8.828-8.828s3.952-8.828,8.828-8.828h35.31c3.181,0.001,6.116,1.713,7.682,4.481
		c1.566,2.769,1.522,6.166-0.117,8.893l-26.483,44.138C261.981,123.003,259.11,124.628,256.011,124.628z"/>
	<path style="fill:#ECF0F1;" d="M316.542,252.505l-26.483-44.138c-2.511-4.181-7.935-5.534-12.116-3.023s-5.534,7.935-3.023,12.116
		l13.162,21.928h-64.15l13.162-21.937c1.623-2.704,1.679-6.069,0.148-8.826c-1.531-2.757-4.416-4.489-7.57-4.542
		s-6.096,1.58-7.718,4.285l-26.483,44.138c-1.623,2.704-1.679,6.069-0.148,8.826c1.531,2.757,4.416,4.489,7.57,4.542
		s6.096-1.58,7.718-4.285l2.728-4.546h85.336l2.728,4.555c1.599,2.655,4.474,4.277,7.574,4.273c3.179-0.004,6.111-1.717,7.675-4.485
		c1.564-2.768,1.519-6.163-0.119-8.889L316.542,252.505z"/>
	<path style="fill:#F29C1F;" d="M300.149,168.766l0,40.077c0.012,3.422-1.342,6.707-3.762,9.126c-2.42,2.42-5.705,3.774-9.126,3.762
		h-62.499c-3.422,0.012-6.707-1.342-9.126-3.762c-2.42-2.42-3.774-5.705-3.762-9.126l0-40.077H300.149z"/>
	<path style="fill:#9FC9D3;" d="M300.149,139.9v28.866h-88.276l0-28.866c-0.007-6.394,2.53-12.528,7.051-17.049
		c4.521-4.521,10.655-7.058,17.049-7.051h40.077c6.394-0.007,12.528,2.53,17.049,7.051
		C297.62,127.373,300.156,133.506,300.149,139.9z"/>
	<g>
		<circle style="fill:#FFFFFF;" cx="238.356" cy="195.249" r="8.828"/>
		<circle style="fill:#FFFFFF;" cx="273.667" cy="195.249" r="8.828"/>
	</g>
</g>
<g>
</g>
<g>
</g>
<g>
</g>
<g>
</g>
<g>
</g>
<g>
</g>
<g>
</g>
<g>
</g>
<g>
</g>
<g>
</g>
<g>
</g>
<g>
</g>
<g>
</g>
<g>
</g>
<g>
</g>
</svg>
