<svg id="Capa_1" enable-background="new 0 0 497 497" height="512" viewBox="0 0 497 497" width="512" xmlns="http://www.w3.org/2000/svg"><path d="m320.328 295.403c-11.953-5.507-17.227-19.793-11.72-31.746l25.488-55.321c5.507-11.953 19.793-17.227 31.746-11.72 11.953 5.507 17.227 19.793 11.72 31.746l-25.488 55.321c-5.507 11.953-19.793 17.227-31.746 11.72z" fill="#17d9bf"/><path d="m103.329 224.096c-9.288 0-17.189-7.115-17.996-16.541-4.404-51.426-15.879-101.986-34.107-150.275-3.527-9.343 1.189-19.777 10.531-23.303 9.344-3.526 19.777 1.188 23.303 10.531 19.403 51.402 31.618 105.22 36.305 159.961.852 9.95-6.523 18.707-16.474 19.559-.523.046-1.045.068-1.562.068z" fill="#ffd6dc"/><path d="m142.052 164.64s-43.968-.245-63.078 0c-22.174.284-40.153 17.977-40.153 40.153 0 18.428 12.418 33.945 29.34 38.668v71.486h173.061v-49.928c0-54.772-44.4-100.379-99.17-100.379z" fill="#fff2cf"/><path d="m156.873 314.946v-149.174c-4.835-.743-9.784-1.132-14.821-1.132 0 0-43.968-.245-63.078 0-22.174.284-40.153 17.977-40.153 40.153 0 18.428 12.418 33.945 29.34 38.668v71.486h88.712z" fill="#ffe1bd"/><path d="m102.322 101.01c-26.543 9.186-52.498 16.304-83.819 11.637-16.635-2.48-23.359-16.416-14.744-30.86l.144-.24c14.576-24.303 36.905-43.86 62.865-55.204 5.915-2.585 14.281-.932 18.692 3.781 3.617 3.865 6.183 8.56 8.598 13.262 7.697 14.987 10.96 29.157 15.149 44.68 1.471 5.449-1.551 11.098-6.885 12.944z" fill="#ffa1ac"/><path d="m68.16 319.088v105.523h393.865v-14.833c0-31.848-10.122-61.331-27.322-85.412-88.468-27.85-296.073-30.183-366.543-5.278z" fill="#fff18f"/><path d="m156.873 336.24v-31.915c-36.843 2.698-68.451 7.603-88.713 14.763v105.523h393.865v-14.833c0-14.895-2.215-29.272-6.331-42.822h-268.105c-16.964 0-30.716-13.752-30.716-30.716z" fill="#ffde83"/><path d="m314.901 262.654h-246.741v56.434c16.905 4.551 19.549 23.108 41.087 23.108 24.547 0 24.547-24.11 49.093-24.11 24.548 0 24.548 24.11 49.095 24.11 24.546 0 24.546-24.11 49.093-24.11s24.547 24.11 49.093 24.11c24.548 0 24.548-24.11 49.096-24.11 24.547 0 24.547 24.11 49.094 24.11 16.349 0 21.816-10.687 30.891-17.83-26.68-37.357-70.395-61.712-119.801-61.712z" fill="#6be3d3"/><path d="m156.873 262.654h-88.713v56.434c16.905 4.551 19.549 23.108 41.087 23.108 24.042 0 24.552-23.113 47.625-24.064v-55.478z" fill="#17d9bf"/><path d="m71.626 471.875c-21.23 0-38.441-17.211-38.441-38.441 0-21.23 17.211-38.441 38.441-38.441h386.933c21.23 0 38.441 17.211 38.441 38.441 0 21.23-17.211 38.441-38.441 38.441z" fill="#e7886e"/><path d="m101.155 235.414c-2.406 0-4.769-1.156-6.219-3.298-2.321-3.431-1.421-8.093 2.009-10.415 3.167-2.142 5.539-5.653 6.345-9.39s.092-7.913-1.91-11.17c-2.168-3.529-1.065-8.148 2.463-10.317 3.531-2.168 8.149-1.064 10.317 2.463 4.035 6.567 5.417 14.654 3.792 22.188-1.626 7.534-6.22 14.332-12.603 18.65-1.287.871-2.748 1.289-4.194 1.289z" fill="#fff2cf"/><path d="m199.599 436.186h297.292c-1.412 19.944-18.028 35.689-38.332 35.689h-386.933c-21.23 0-38.441-17.211-38.441-38.441 0-21.23 17.211-38.441 38.441-38.441h86.78c0 22.75 18.443 41.193 41.193 41.193z" fill="#dc6646"/><path d="m52.759 85.74c8.567-9 18.59-17.031 29.168-23.528 5.252-3.226 10.92-6.208 16.798-8.607-1.365-3.383-2.899-6.777-4.667-10.22-2.415-4.702-4.981-9.397-8.598-13.262-4.411-4.713-12.777-6.366-18.692-3.781-25.961 11.346-48.289 30.902-62.865 55.205-.048.08-.096.16-.144.24-8.616 14.443-1.891 28.38 14.743 30.859 8.583 1.279 16.761 1.668 24.66 1.378-.981-10.135 2.499-20.827 9.597-28.284z" fill="#ff91a3"/></svg>