<svg id="Capa_1" enable-background="new 0 0 497 497" height="512" viewBox="0 0 497 497" width="512" xmlns="http://www.w3.org/2000/svg"><path d="m450.728 497h-49.378l-6.849-125.949 6.849-125.949h61.161v240.115c0 6.508-5.276 11.783-11.783 11.783z" fill="#ffd6dc"/><path d="m462.511 338.063v-92.961h-61.161l-5.055 92.961z" fill="#ffbfca"/><path d="m119.071 228.146h258.858v226.324h-258.858z" fill="#fe5b70"/><path d="m203.374 435.989c.206 37.345-10.436 55.702-29.897 55.857-27.561.22-43.188-53.675-26.399-90.827 26.915-59.557 56.057-8.309 56.296 34.97z" fill="#ffbfca"/><path d="m140.786 446.14c2.901 24.841 15.465 45.844 32.691 45.706 19.461-.156 30.113-18.508 29.907-55.853-.063-11.476-2.171-23.523-5.718-33.905-7.783 9.664-27.058 35.266-56.88 44.052z" fill="#ffd6dc"/><path d="m231.556 314.343c14.33-50.763-20.083-88.053-68.13-67.622-38.875 16.531-54.789 80.564-55.709 118.282-2.916 119.51 106.062 12.319 123.839-50.66z" fill="#ffd6dc"/><path d="m221.774 338.063c4.31-8.226 7.683-16.281 9.783-23.72 14.33-50.763-20.083-88.053-68.13-67.622-30.604 13.014-46.975 55.464-53.006 91.342z" fill="#ffbfca"/><path d="m293.626 435.989c-.206 37.345 10.436 55.702 29.897 55.857 27.561.22 43.188-53.675 26.399-90.827-26.915-59.557-56.057-8.309-56.296 34.97z" fill="#ffbfca"/><path d="m356.214 446.14c-2.901 24.841-15.465 45.844-32.691 45.706-19.461-.156-30.103-18.513-29.897-55.857.063-11.476 2.148-23.511 5.695-33.893 7.783 9.663 27.071 35.258 56.893 44.044z" fill="#ffd6dc"/><path d="m265.444 314.343c-14.33-50.763 20.083-88.053 68.13-67.622 38.875 16.531 54.789 80.564 55.709 118.282 2.916 119.51-106.062 12.319-123.839-50.66z" fill="#ffd6dc"/><path d="m275.226 338.063h111.354c-6.031-35.877-22.402-78.328-53.006-91.342-48.047-20.431-82.46 16.859-68.13 67.622 2.099 7.438 5.473 15.494 9.782 23.72z" fill="#ffbfca"/><path d="m401.367 497h-49.378c-6.507 0-11.783-5.275-11.783-11.783v-240.115h61.161z" fill="#ff7591"/><path d="m340.207 245.102h61.161v92.96h-61.161z" fill="#fe5b70"/><path d="m34.489 245.102h61.161l12.01 124.342-12.01 127.556h-49.378c-6.507 0-11.783-5.275-11.783-11.783z" fill="#ffd6dc"/><path d="m104.629 338.063-8.979-92.961h-61.161v92.961z" fill="#ffbfca"/><path d="m145.011 497h-49.378v-251.898h61.161v240.115c-.001 6.508-5.276 11.783-11.783 11.783z" fill="#ff7591"/><path d="m95.633 245.102h61.161v92.96h-61.161z" fill="#fe5b70"/><path d="m290.788 205.943c-37.394-42.613-53.903-102.743-43.511-158.476 3.961-21.242 20.559-35.365 39.114-19.328 45.779 39.566 91.557 79.131 137.336 118.697 20.777 17.957 42.498 37.316 50.643 63.542 15.434 49.696-22.127 63.728-62.218 58.401-46.529-6.183-90.152-27.268-121.364-62.836z" fill="#ffd6dc"/><path d="m206.212 205.943c37.394-42.613 53.903-102.743 43.511-158.476-3.961-21.242-20.559-35.365-39.114-19.328-45.779 39.566-91.557 79.131-137.336 118.697-20.777 17.957-42.498 37.316-50.643 63.542-15.434 49.696 22.127 63.728 62.218 58.401 46.529-6.183 90.152-27.268 121.364-62.836z" fill="#ffd6dc"/><path d="m99.719 204.005c-8.393 21.055-15.968 44.12-5.378 64.161 11.856 22.438 40.635 28.023 65.872 30.686 58.592 6.181 117.853 6.539 176.406 0 24.546-2.741 52.213-9.387 64.718-30.686 10.906-18.575 6.105-43.476.096-64.161-12.798-44.054-29.665-83.295-50.317-124.259-56.156-111.39-138.234-101.141-194.196 0-21.56 38.963-40.711 82.892-57.201 124.259z" fill="#ff7591"/><path d="m379.723 213.038h-262.446c-30.753 0-55.684-24.93-55.684-55.684v-22.799c0-30.753 24.93-55.684 55.684-55.684h262.447c30.753 0 55.684 24.93 55.684 55.684v22.799c-.001 30.753-24.931 55.684-55.685 55.684z" fill="#fff18f"/><g fill="#ffbe6b"><circle cx="141.497" cy="80.236" r="29.111"/><circle cx="248.5" cy="80.236" r="29.111"/><circle cx="355.503" cy="80.236" r="29.111"/></g><ellipse cx="147.741" cy="167.571" fill="#ffb6c1" rx="25.79" ry="19.019"/><ellipse cx="349.259" cy="167.571" fill="#ffb6c1" rx="25.79" ry="19.019"/><path d="m166.032 167.571c-4.142 0-7.5-3.357-7.5-7.5v-13.03c0-4.143 3.358-7.5 7.5-7.5s7.5 3.357 7.5 7.5v13.03c0 4.143-3.358 7.5-7.5 7.5z" fill="#333942"/><path d="m330.968 167.571c-4.142 0-7.5-3.357-7.5-7.5v-13.03c0-4.143 3.358-7.5 7.5-7.5s7.5 3.357 7.5 7.5v13.03c0 4.143-3.358 7.5-7.5 7.5z" fill="#333942"/><path d="m248.429 175.566c-9.187 0-18.349-3.084-27.617-9.251-3.449-2.295-4.384-6.95-2.089-10.399 2.294-3.448 6.951-4.383 10.399-2.089 13.505 8.988 25.107 8.98 38.792-.021 3.459-2.277 8.112-1.316 10.388 2.144 2.277 3.461 1.317 8.111-2.144 10.388-9.353 6.151-18.554 9.228-27.729 9.228z" fill="#333942"/></svg>