<svg id="Capa_1" enable-background="new 0 0 497.03 497.03" height="512" viewBox="0 0 497.03 497.03" width="512" xmlns="http://www.w3.org/2000/svg"><path d="m189.455 45.045c-9.025-57.374 46.749-59.274 56.389-7.283 7.99 43.087-5.491 92.507-37.228 122.724-5.932 5.648-19.109 7.445-22.502-3.25-2.684-8.461 3.385-23.775 5.552-41.112 3.301-26.403 1.924-44.791-2.211-71.079z" fill="#d9c9f4"/><path d="m452.305 307.895c57.374 9.025 59.274-46.749 7.283-56.389-43.087-7.99-92.507 5.491-122.724 37.228-5.648 5.932-7.445 19.109 3.25 22.502 8.461 2.684 23.775-3.385 41.112-5.552 26.403-3.301 44.791-1.924 71.079 2.211z" fill="#ff7591"/><circle cx="319.321" cy="102.873" fill="#fff18f" r="24.014"/><circle cx="414.28" cy="173.935" fill="#d9c9f4" r="24.014"/><circle cx="312.319" cy="207.436" fill="#6be3d3" r="24.014"/><path d="m1.66 461.302c-7.604 21 12.705 41.356 33.723 33.799l53.901-19.38c3.479-22.29 2.054-47.471-5.406-66.14-8.703-21.78-15.469-29.439-43.602-54.923z" fill="#fff18f"/><path d="m11.356 491.917c19.159-20.618 66.102-68.32 74.604-76.427-.684-2.235-1.249-3.824-2.082-5.91-8.703-21.78-15.469-29.439-43.602-54.923l-38.615 106.645c-4.422 12.211.386 24.408 9.695 30.615z" fill="#ffde83"/><path d="m304.186 364.745c-17.015-66.722-82.593-134.887-148.948-162.824 10.14 43.952 19.544 83.156 33.995 122.373 12.751 34.603 27.536 58.976 49.101 97.835l43.333-15.58c16.512-5.937 26.855-24.801 22.519-41.804z" fill="#fff18f"/><path d="m222.655 274.551c4.982-5.545 10.107-10.948 15.044-16.529-24.691-24.053-53.501-43.909-82.461-56.101 9.335 40.463 18.057 76.9 30.657 113.03 12.417-13.308 24.566-26.829 36.76-40.4z" fill="#ffde83"/><path d="m40.277 354.657c18.663 39.361 35.032 79.807 49.008 121.063l149.05-53.591c-18.044-76.563-46.126-150.757-83.097-220.208-7.271-3.061-14.55-5.647-21.777-7.687-17.943-5.065-36.752 4.577-43.1 22.107z" fill="#6be3d3"/><path d="m200.101 299.533c-13.041-33.37-28.027-65.984-44.863-97.611-7.271-3.061-14.55-5.647-21.777-7.687-17.942-5.065-36.752 4.577-43.1 22.107l-50.085 138.315c11.572 24.407 22.259 49.233 32.044 74.409 33.131-34.172 117.795-118.573 127.781-129.533z" fill="#17d9bf"/><g fill="#333942"><path d="m105.502 324.294c-1.977 0-3.951-.777-5.424-2.319-2.861-2.995-2.752-7.743.243-10.604l6.054-5.783c2.995-2.862 7.742-2.752 10.604.242 2.861 2.995 2.752 7.743-.243 10.604l-6.054 5.783c-1.453 1.388-3.318 2.077-5.18 2.077z"/><path d="m178.709 400.926c-1.977 0-3.95-.776-5.424-2.318-2.861-2.995-2.753-7.743.242-10.604l6.054-5.784c2.994-2.861 7.742-2.754 10.604.241 2.861 2.995 2.753 7.743-.242 10.604l-6.054 5.784c-1.452 1.388-3.317 2.077-5.18 2.077z"/><path d="m152.558 373.547c-.558 0-1.124-.063-1.69-.193-14.98-3.45-23.927-12.827-26.593-27.869-.723-4.078 1.998-7.971 6.076-8.693 4.083-.719 7.971 1.997 8.693 6.076 1.624 9.16 6.024 13.758 15.19 15.869 4.036.93 6.555 4.955 5.625 8.992-.799 3.47-3.886 5.818-7.301 5.818z"/></g><path d="m186.115 157.237c1.401 4.417 4.473 6.699 8.013 7.462.218-.12.393-.216.611-.336 13.858-35.126 25.552-62.192 29.592-107.832 1.014-11.454 7.666-21.823 18-26.864.435-.212.876-.416 1.32-.61-13.863-42.857-62.684-37.97-54.196 15.988 4.135 26.287 5.512 44.676 2.212 71.08-2.168 17.337-8.236 32.651-5.552 41.112z" fill="#cabaf7"/><path d="m459.588 251.506c-43.087-7.99-92.507 5.491-122.724 37.228-4.016 4.218-6.08 12.097-3.095 17.519.298-.187.593-.377.898-.554 27.295-15.814 60.078-33.082 92.605-26.09 15.688 3.372 28.267 14.94 34.773 29.231 47.662 1.536 46.408-48.273-2.457-57.334z" fill="#fe5b70"/></svg>