<svg id="Capa_1" enable-background="new 0 0 497 497" height="512" viewBox="0 0 497 497" width="512" xmlns="http://www.w3.org/2000/svg"><path d="m8.295 448.488c-11.06 11.06-11.06 29.157 0 40.217 11.06 11.06 29.157 11.06 40.217 0l211.709-211.709c11.06-11.06 11.06-29.157 0-40.217-11.06-11.06-29.157-11.06-40.217 0z" fill="#ff7591"/><path d="m154.461 382.756 105.76-105.76c11.06-11.06 11.06-29.157 0-40.217-11.06-11.06-29.157-11.06-40.217 0l-103.714 103.713z" fill="#fe5b70"/><path d="m447.282 204.156c-1.085-8.15 2.363-16.163 8.948-21.085 3.833-2.865 7.51-6.036 10.993-9.52 39.702-39.702 39.702-104.072 0-143.775-39.702-39.702-104.072-39.702-143.775 0-3.484 3.484-6.654 7.16-9.52 10.993-4.922 6.585-12.935 10.034-21.085 8.948-30.304-4.036-62.073 5.571-85.36 28.858-5.459 5.459-10.166 11.386-14.122 17.651-4.248 6.728-11.743 10.647-19.695 10.377-27.39-.928-55.08 9.139-75.869 30.238-37.515 38.076-38.992 99.532-3.227 139.255 39.286 43.634 106.559 44.958 147.544 3.973 5.215-5.215 9.726-10.863 13.57-16.817 4.757 9.469 11.06 18.359 18.963 26.262 39.702 39.702 104.072 39.702 143.775 0 23.289-23.285 32.896-55.055 28.86-85.358z" fill="#ffd6dc"/><path d="m197.106 259.141c-48.82.095-104.761-15.247-125.979-28.514 3.674 16.465 11.48 32.181 23.445 45.471 26.264 29.17 65.028 39.402 100.09 30.753.186-5.69 6.26-17.86 13.004-28.803 5.101-8.277-.838-18.926-10.56-18.907z" fill="#ffbfca"/><path d="m331.96 234.685c10.404 4.873 20.152 11.606 28.745 20.199 39.702 39.702 39.702 104.072 0 143.775s-104.072 39.702-143.775 0-39.702-104.072 0-143.775" fill="#ffd6dc"/></svg>