<svg id="Capa_1" enable-background="new 0 0 497 497" height="512" viewBox="0 0 497 497" width="512" xmlns="http://www.w3.org/2000/svg"><path d="m326.962 170.038c-8.337-8.337-8.337-21.853 0-30.19l133.596-133.595c8.337-8.337 21.853-8.337 30.19 0s8.337 21.853 0 30.19l-133.596 133.595c-8.336 8.336-21.853 8.337-30.19 0z" fill="#90aecf"/><path d="m387.205 75.369c-8.935-8.935-23.374-8.96-32.405-.122-.672.658-1.342 1.321-2.011 1.989-43.293 43.293-63.397 93.382-44.903 111.877s68.583-1.609 111.877-44.903c.669-.669 1.332-1.339 1.989-2.011 8.838-9.03 8.813-23.47-.122-32.405z" fill="#516980"/><path d="m93.555 234.609c38.646-13.744 136.384-48.831 125.218 22.615-9.212 58.944-68.791 131.044-130.087 137.319-71.783 7.349-127.759-93.652-53.839-133.309 6.111-3.279 45.039-21.764 58.708-26.625z" fill="#6be3d3"/><path d="m102.043 231.607c-7.65 26.239-38.041 92.594-84.568 130.637 16.355 20.852 42.514 35.237 71.21 32.299 61.297-6.275 120.875-78.375 130.087-137.319 10.421-66.676-73.998-40.572-116.729-25.617z" fill="#17d9bf"/><path d="m235.766 462.153c-39.657 73.92-140.658 17.944-133.309-53.839 6.275-61.297 78.375-120.876 137.319-130.087 91.48-14.297 15.576 147.418-4.01 183.926z" fill="#6be3d3"/><path d="m268.698 387.19c19.716-55.845 29.309-118.063-28.923-108.963-58.944 9.212-131.044 68.791-137.319 130.087-3.22 31.453 14.364 59.87 38.473 75.655 45.446-57.76 98.35-87.804 127.769-96.779z" fill="#17d9bf"/><path d="m327.001 292.255c-66.038 46.839-175.513 108.814-203.292 81.035-28.627-28.627 38.068-144.013 85.284-209.214 36.689-35.077 147.711 49.729 118.008 128.179z" fill="#fff18f"/><path d="m252.962 221.174c3.607-18.523 8.11-36.763 14.068-54.508-22.295-12.341-44.917-15.132-58.036-2.589-47.216 65.2-113.911 180.586-85.284 209.214 17.367 17.367 66.67-.35 117.326-27.516-.049-4.044 4.724-87.618 11.926-124.601z" fill="#ffde83"/><path d="m371.816 256.534c36.272-36.272 36.272-95.079 0-131.351-36.271-36.271-95.079-36.271-131.351 0-7.643 7.643-18.866 21.487-31.472 38.894l2.085-.313c35.93-5.444 114.852 48.673 115.94 125.977l-.018 2.514c20.192-14.321 36.323-27.227 44.816-35.721z" fill="#90aecf"/><path d="m286.352 121.513c4.353-8.105 9.163-15.849 14.286-23.351-21.903 1.292-43.438 10.287-60.173 27.022-7.643 7.643-18.866 21.487-31.472 38.894l2.085-.313c13.342-2.022 32.612 4.176 51.624 16.718 5.921-20.328 13.512-40.094 23.65-58.97z" fill="#7c96b3"/><ellipse cx="116.417" cy="380.583" fill="#6be3d3" rx="110.86" ry="47.358" transform="matrix(.707 -.707 .707 .707 -235.015 193.789)"/></svg>