<svg id="Capa_1" enable-background="new 0 0 497 497" height="512" viewBox="0 0 497 497" width="512" xmlns="http://www.w3.org/2000/svg"><path d="m155.716 220.432c-40.627 0-73.68-33.052-73.68-73.68s33.053-73.68 73.68-73.68 73.68 33.052 73.68 73.68-33.053 73.68-73.68 73.68zm0-108.642c-19.278 0-34.963 15.684-34.963 34.963s15.684 34.963 34.963 34.963 34.963-15.684 34.963-34.963-15.685-34.963-34.963-34.963z" fill="#6be3d3"/><path d="m189.724 138.665c.618 2.598.954 5.303.954 8.087 0 19.278-15.684 34.963-34.963 34.963-19.278 0-34.963-15.684-34.963-34.963 0-7.008 2.08-13.536 5.645-19.013-1.067.097-41.812 7.346-43.493 7.704-.57 3.688-.869 7.464-.869 11.309 0 40.627 33.053 73.68 73.68 73.68 36.845 0 67.459-27.186 72.839-62.553-10.889-6.306-37.082-18.551-38.83-19.214z" fill="#17d9bf"/><path d="m480.225 270.202c-8.259 19.849-44.141 23.796-63.99 15.537s-29.245-31.045-20.986-50.895c8.259-19.849 31.045-29.245 50.895-20.986 19.849 8.26 42.34 36.495 34.081 56.344z" fill="#ffbe6b"/><path d="m68.898 277.496c6.049 53.952 32.646 98.696 124.361 136.857 116.827 48.61 191.476-52.661 231.891-140.798 32.83-71.596 31.283-111.756-25.148-135.236l-18.25-8.243c-31.115-12.947-66.834 1.782-79.78 32.897l-8.165 19.622c-8.239 19.8-30.969 29.173-50.769 20.934l-82.67-34.398c-44.562-18.542-89.905 11.971-92.763 62.943-.454 15.197.518 30.251 1.293 45.422z" fill="#fff18f"/><path d="m380.88 326.361c-42.532 1.084-88.164-9.331-122.093-36.16-31.945-25.261-55.334-68.412-65.473-107.359l-32.947-13.709c-44.562-18.542-89.905 11.971-92.763 62.943-.454 15.195.518 30.25 1.293 45.421 6.049 53.952 32.646 98.696 124.361 136.857 94.083 39.147 160.805-18.913 204.329-89.034-5.52.547-11.088.897-16.707 1.041z" fill="#ffde83"/><ellipse cx="355.224" cy="214.822" fill="#ffb6c1" rx="20.825" ry="29.345" transform="matrix(.271 -.963 .963 .271 52.188 498.551)"/><path d="m388.246 217.102c-2.329 0-4.663-.307-6.935-.939-9.861-2.752-17.541-11.396-19.113-21.511-.636-4.093 2.167-7.927 6.259-8.563 4.094-.635 7.927 2.167 8.563 6.26.663 4.266 4.163 8.204 8.321 9.365 4.158 1.155 9.191-.398 11.967-3.705 2.662-3.172 7.393-3.585 10.566-.922 3.172 2.663 3.585 7.394.922 10.566-5.063 6.034-12.773 9.449-20.55 9.449z" fill="#333942"/><path d="m230.798 336.726c-19.229.001-37.77-6.228-51.895-17.84-20.325-16.71-29.915-44.15-23.865-68.284 1.007-4.018 5.082-6.465 9.099-5.45 4.018 1.007 6.458 5.08 5.451 9.099-4.597 18.335 3.151 40.149 18.841 53.048 15.134 12.442 36.71 17.236 57.717 12.832 19.331-4.056 37.929-15.681 52.369-32.734 2.676-3.161 7.409-3.554 10.57-.877s3.554 7.409.877 10.57c-16.585 19.587-38.155 32.983-60.736 37.721-6.131 1.286-12.316 1.915-18.428 1.915z" fill="#ffbe6b"/><path d="m155.63 121.455c-10.691-.028-19.336-8.718-19.308-19.409l.07-82.738c.029-10.691 8.718-19.336 19.41-19.308 10.691.028 19.336 8.718 19.308 19.409l-.07 82.738c-.029 10.691-8.719 19.336-19.41 19.308z" fill="#90aecf"/><path d="m13.534 386.792c0-11.346 10.876-19.643 21.764-16.454 19.468 5.702 26.405 18.095 56.555 18.095 39.158 0 39.158-20.905 78.317-20.905 39.16 0 39.16 20.905 78.32 20.905 39.161 0 39.161-20.905 78.323-20.905 39.163 0 39.163 20.905 78.326 20.905 30.154 0 37.091-12.393 56.562-18.095 10.888-3.189 21.764 5.109 21.764 16.454v89.148c0 11.632-9.429 21.061-21.061 21.061h-427.809c-11.632 0-21.061-9.429-21.061-21.061z" fill="#e7faff"/><path d="m461.702 397.837c-19.472 5.702-26.408 18.095-56.562 18.095-39.163 0-39.163-20.905-78.326-20.905-39.161 0-39.161 20.905-78.323 20.905-39.16 0-39.16-20.905-78.32-20.905-39.158 0-39.158 20.905-78.317 20.905-30.15 0-37.087-12.392-56.555-18.095-10.888-3.189-21.764 5.108-21.764 16.454v61.647c0 11.632 9.429 21.061 21.061 21.061h427.81c11.632 0 21.061-9.429 21.061-21.061v-61.648c-.001-11.344-10.877-19.641-21.765-16.453z" fill="#c1f1ff"/><g fill="#e7faff"><path d="m134.938 464.521c-21.457 0-32.738-6.022-42.692-11.336-9.618-5.135-17.924-9.569-35.628-9.569-4.142 0-7.5-3.357-7.5-7.5s3.358-7.5 7.5-7.5c21.457 0 32.738 6.022 42.692 11.336 9.618 5.135 17.924 9.569 35.628 9.569s26.011-4.435 35.629-9.569c9.954-5.313 21.236-11.336 42.693-11.336 4.142 0 7.5 3.357 7.5 7.5s-3.358 7.5-7.5 7.5c-17.705 0-26.011 4.435-35.63 9.569-9.953 5.314-21.235 11.336-42.692 11.336z"/><path d="m362.06 464.521c-21.457 0-32.738-6.022-42.692-11.336-9.618-5.135-17.924-9.569-35.628-9.569-4.142 0-7.5-3.357-7.5-7.5s3.358-7.5 7.5-7.5c21.457 0 32.738 6.022 42.692 11.336 9.618 5.135 17.924 9.569 35.628 9.569 17.705 0 26.011-4.435 35.63-9.569 9.954-5.313 21.236-11.336 42.693-11.336 4.142 0 7.5 3.357 7.5 7.5s-3.358 7.5-7.5 7.5c-17.704 0-26.011 4.435-35.629 9.569-9.955 5.314-21.237 11.336-42.694 11.336z"/></g></svg>