<svg id="Capa_1" enable-background="new 0 0 497.001 497.001" height="512" viewBox="0 0 497.001 497.001" width="512" xmlns="http://www.w3.org/2000/svg"><path d="m76.246 472.82c0 13.3 10.882 24.182 24.182 24.182h.139c13.3 0 24.182-10.882 24.182-24.182v-313.804c0-13.3-10.882-24.182-24.182-24.182h-.139c-13.3 0-24.182 10.882-24.182 24.182z" fill="#ffd3a3"/><path d="m124.749 258.388v-99.372c0-13.3-10.882-24.182-24.182-24.182h-.139c-13.3 0-24.182 10.882-24.182 24.182v99.372z" fill="#f9c290"/><path d="m308.011 446.763c-17.8 0-35.595-8.571-47.152-20.308-15.938-16.186-23.995-40.92-21.553-66.162.939-9.697 9.563-16.802 19.257-15.859 9.697.938 16.797 9.56 15.859 19.257-1.449 14.969 2.878 29.178 11.575 38.011 15.073 15.308 29.34 9.086 43.052-3.171 12.85-11.488 28.85-25.786 48.651-23.308 12.037 1.505 22.618 8.916 31.45 22.029 5.442 8.081 3.303 19.043-4.778 24.485-8.079 5.443-19.043 3.303-24.485-4.778-8.833-13.117-18.64.111-27.324 7.874-13.034 11.653-26.325 21.93-44.552 21.93z" fill="#e7886e"/><path d="m281.003 395.254c-5.288-8.575-7.715-19.829-6.579-31.563.938-9.697-6.162-18.319-15.859-19.257-9.694-.944-18.318 6.162-19.257 15.859-1.167 12.064.056 24.007 3.4 34.96z" fill="#dc6646"/><path d="m188.269 370.274h97.259c7.839 0 14.193-6.354 14.193-14.193v-56.329l-61.543-10.362-64.102 10.362v56.329c0 7.838 6.355 14.193 14.193 14.193z" fill="#e7faff"/><path d="m213.091 293.446-39.015 6.306v56.329c0 7.839 6.354 14.193 14.193 14.193h24.822z" fill="#c1f1ff"/><path d="m174.076 88.929h125.645v210.823h-125.645z" fill="#fff18f"/><path d="m255.787 257.056h43.934v-168.127h-125.645v210.823h39.015c0-23.58 19.115-42.696 42.696-42.696z" fill="#ffde83"/><path d="m305.692 225.992h-249.427c-11.817 0-21.485-9.668-21.485-21.485 0-11.817 9.668-21.485 21.485-21.485h249.428c11.817 0 21.485 9.668 21.485 21.485 0 11.816-9.669 21.485-21.486 21.485z" fill="#ffd3a3"/><path d="m412.766 481.491c-3.691 0-6.907-2.726-7.421-6.485l-2.342-17.143c-.561-4.104 2.312-7.885 6.416-8.446 4.1-.562 7.886 2.312 8.445 6.417l2.342 17.14c.562 4.104-2.311 7.886-6.415 8.447-.343.047-.686.07-1.025.07z" fill="#fff18f"/><path d="m454.715 453.64c-1.593 0-3.198-.505-4.56-1.55l-13.726-10.532c-3.286-2.521-3.906-7.23-1.385-10.516s7.229-3.907 10.516-1.384l13.726 10.532c3.286 2.521 3.906 7.229 1.385 10.516-1.476 1.924-3.704 2.934-5.956 2.934z" fill="#fff18f"/><path d="m260.06 11.507 54.038 71.279c6.077 8.016.36 19.526-9.7 19.526h-135c-10.06 0-15.777-11.51-9.7-19.526l54.038-71.279c11.631-15.341 34.694-15.341 46.324 0z" fill="#ff7591"/><path d="m309.672 76.947c-4.252 1.296-8.539 1.979-13.227 2.288-14.866.978-29.459-5.696-38.496-17.393-8.569-11.091-10.974-25.83-6.809-39.273 1.629-5.257 3.757-9.792 6.321-14.055-12.2-12.275-32.906-11.275-43.724 2.994l-54.038 71.279c-6.077 8.016-.36 19.526 9.7 19.526h135.001c10.06 0 15.777-11.51 9.7-19.526z" fill="#fe5b70"/></svg>