<svg id="Capa_1" enable-background="new 0 0 497 497" height="512" viewBox="0 0 497 497" width="512" xmlns="http://www.w3.org/2000/svg"><path d="m53.865 249.023h389.27v143.861h-389.27z" fill="#cabaf7"/><path d="m149.775 339.231h200.624v53.653h-200.624z" fill="#bdaff2"/><path d="m248.5 50.497c60.272 0 112.954 20.359 141.543 64.96l30.416-22.813c-35.971-52.584-99.534-87.525-171.959-87.525-62.587 0-118.554 26.095-155.82 67.117l23.973 29.771c29.949-37.064 77.855-51.51 131.847-51.51z" fill="#ffd6dc"/><path d="m361.392 36.675c-2.925 4.694-17.02 27.332-21.13 33.951 20.262 10.549 37.314 25.382 49.781 44.831l30.416-22.813c-15.222-22.252-35.381-41.348-59.067-55.969z" fill="#ffbfca"/><path d="m136.88 35.9c-16.592 10.078-31.483 22.337-44.2 36.336l23.973 29.771c11.958-14.798 26.784-25.981 43.711-34.088-7.983-10.558-15.864-21.202-23.484-32.019z" fill="#ffbfca"/><path d="m248.5 71.432c-45.464 0-90.19 26.822-107.244 61.128l18.03 22.39 13.724-.24c14.527-24.687 42.88-41.452 75.49-41.452 31.443 0 58.923 15.591 73.872 38.837l19.274-.338 17.72-13.291c-14.611-38.904-62.773-67.034-110.866-67.034z" fill="#e7faff"/><path d="m324.641 95.71c-7.346 11.756-14.719 23.47-22.163 35.164 7.921 5.91 14.671 13.098 19.894 21.22l19.274-.338 17.72-13.291c-6.272-16.701-18.743-31.401-34.725-42.755z" fill="#c1f1ff"/><path d="m179.025 92.323c-16.601 10.675-30.035 24.681-37.768 40.237l18.03 22.39 13.724-.24c7.222-12.274 17.865-22.586 30.746-29.857-.295-.396-16.731-22.122-24.732-32.53z" fill="#c1f1ff"/><path d="m248.5 76.851c48.093 0 89.852 24.973 110.867 61.615l30.676-23.008c-28.589-44.602-81.271-74.523-141.543-74.523-53.992 0-101.898 24.008-131.847 61.072l24.603 30.553c21.97-33.395 61.78-55.709 107.244-55.709z" fill="#fff18f"/><path d="m341.997 67.832c-6.48 10.441-12.982 20.884-19.5 31.302 15.294 10.328 27.949 23.779 36.87 39.332l30.676-23.008c-12.111-18.895-28.54-35.163-48.046-47.626z" fill="#ffde83"/><path d="m158.614 65.587c-16.201 9.78-30.416 22.133-41.961 36.42l24.603 30.553c9.974-15.16 23.958-27.794 39.803-37.574-3.127-4.071-18.114-23.652-22.445-29.399z" fill="#ffde83"/><path d="m36.876 159.295h124.647v235.326h-124.647z" fill="#d9c9f4"/><path d="m75.574 276.298v-117.003h-38.699v235.326h124.647v-55.39h-23.016c-34.756 0-62.932-28.176-62.932-62.933z" fill="#cabaf7"/><path d="m122.177 75.702 53.609 70.713c6.029 7.953.357 19.371-9.623 19.371h-133.928c-9.98 0-15.652-11.418-9.623-19.371l53.609-70.713c11.539-15.22 34.418-15.22 45.956 0z" fill="#cabaf7"/><path d="m75.574 76.555-52.963 69.86c-6.029 7.953-.357 19.371 9.623 19.371h43.34z" fill="#bdaff2"/><path d="m335.477 159.295h124.647v235.326h-124.647z" fill="#d9c9f4"/><path d="m335.477 339.231h124.647v55.39h-124.647z" fill="#cabaf7"/><path d="m420.779 75.702 53.609 70.713c6.029 7.953.357 19.371-9.623 19.371h-133.929c-9.98 0-15.652-11.418-9.623-19.371l53.609-70.713c11.539-15.22 34.418-15.22 45.957 0z" fill="#cabaf7"/><path d="m40.586 363.504c-13.441 0-24.438 10.997-24.438 24.438 0 13.441 10.997 24.438 24.438 24.438h415.829c13.441 0 24.438-10.997 24.438-24.438 0-13.441-10.997-24.438-24.438-24.438z" fill="#fff18f"/><path d="m472.562 455.48h-448.124c-13.441 0-24.438-10.997-24.438-24.437 0-13.441 10.997-24.438 24.438-24.438h448.125c13.441 0 24.438 10.997 24.438 24.438-.001 13.44-10.998 24.437-24.439 24.437z" fill="#ffde83"/><g fill="#333942"><path d="m196.22 319.48c-4.143 0-7.5-3.358-7.5-7.5v-9.881c0-4.142 3.357-7.5 7.5-7.5s7.5 3.358 7.5 7.5v9.881c0 4.143-3.358 7.5-7.5 7.5z"/><path d="m300.78 319.48c-4.143 0-7.5-3.358-7.5-7.5v-9.881c0-4.142 3.357-7.5 7.5-7.5s7.5 3.358 7.5 7.5v9.881c0 4.143-3.357 7.5-7.5 7.5z"/><path d="m248.446 325.475c-7.352 0-14.684-2.417-21.947-7.25-3.448-2.294-4.384-6.95-2.089-10.399 2.296-3.448 6.951-4.384 10.399-2.088 9.542 6.35 17.741 6.343 27.416-.022 3.46-2.276 8.111-1.318 10.388 2.144 2.276 3.46 1.316 8.111-2.144 10.388-7.323 4.816-14.683 7.227-22.023 7.227z"/></g><path d="m318.533 491.881h-140.066c-13.194 0-23.99-10.795-23.99-23.99v-.251c0-13.194 10.795-23.99 23.99-23.99h140.066c13.194 0 23.99 10.795 23.99 23.99v.251c0 13.194-10.796 23.99-23.99 23.99z" fill="#fff18f"/></svg>