<svg id="Capa_1" enable-background="new 0 0 504.496 504.496" height="512" viewBox="0 0 504.496 504.496" width="512" xmlns="http://www.w3.org/2000/svg"><path d="m69.429 61.003h112.042v394.08h-112.042z" fill="#90aecf"/><path d="m69.429 61.003h112.042v139.578h-112.042z" fill="#7c96b3"/><path d="m386.816 270.692c-10.471 4.626-22.709-.112-27.334-10.583l-83.085-188.06c-4.626-10.471.112-22.709 10.583-27.334s22.709.112 27.334 10.583l83.084 188.059c4.626 10.471-.112 22.709-10.582 27.335z" fill="#90aecf"/><path d="m308.723 145.218h45.318l-39.727-89.92c-4.626-10.47-16.864-15.208-27.334-10.583-10.471 4.626-15.209 16.864-10.583 27.334z" fill="#7c96b3"/><path d="m464.171 103.502h-451.196c-7.166 0-12.975-5.809-12.975-12.975v-12.785c0-40.184 32.576-72.76 72.76-72.76h331.626c40.184 0 72.76 32.576 72.76 72.76v12.785c0 7.166-5.809 12.975-12.975 12.975z" fill="#fff18f"/><path d="m205.886 4.982h-133.126c-40.184 0-72.76 32.576-72.76 72.76v12.785c0 7.166 5.809 12.975 12.975 12.975h242.675c-15.028-17.615-40.736-71.508-49.764-98.52z" fill="#ffde83"/><circle cx="387.856" cy="273.046" fill="#ff7591" r="58.937"/><path d="m191.079 168.578h-131.259c-11.137 0-20.165-9.028-20.165-20.165v-51.905c0-11.137 9.028-20.165 20.165-20.165h131.259c11.137 0 20.165 9.028 20.165 20.165v51.906c0 11.136-9.028 20.164-20.165 20.164z" fill="#e7faff"/><path d="m79.42 134.894c-4.142 0-7.5-3.357-7.5-7.5v-9.867c0-4.143 3.358-7.5 7.5-7.5s7.5 3.357 7.5 7.5v9.867c0 4.142-3.358 7.5-7.5 7.5z" fill="#c1f1ff"/><path d="m114.673 134.894c-4.142 0-7.5-3.357-7.5-7.5v-9.867c0-4.143 3.358-7.5 7.5-7.5s7.5 3.357 7.5 7.5v9.867c0 4.142-3.358 7.5-7.5 7.5z" fill="#c1f1ff"/><path d="m217.011 499.514h-183.122c-9.978 0-18.067-8.089-18.067-18.067v-10.63c0-25.226 20.45-45.676 45.676-45.676h127.904c25.226 0 45.676 20.45 45.676 45.676v10.63c0 9.978-8.089 18.067-18.067 18.067z" fill="#e7faff"/><path d="m308.748 354.839c-1.582 0-3.177-.498-4.534-1.53-13.61-10.351-24.142-25.494-29.653-42.642-5.511-17.147-5.775-35.591-.745-51.933 1.219-3.961 5.421-6.18 9.374-4.962 3.959 1.219 6.181 5.416 4.962 9.374-8.542 27.75 2.032 60.647 25.143 78.223 3.297 2.507 3.938 7.213 1.43 10.51-1.477 1.94-3.714 2.96-5.977 2.96z" fill="#fff18f"/><path d="m494.486 293.003c-.59 0-1.189-.07-1.789-.217-4.023-.985-6.486-5.045-5.502-9.068 4.015-16.403 2.759-34.068-3.538-49.74-6.297-15.671-17.611-29.295-31.859-38.362-3.495-2.224-4.524-6.859-2.301-10.354s6.861-4.525 10.354-2.301c16.872 10.736 30.27 26.868 37.725 45.425 7.456 18.557 8.944 39.474 4.19 58.898-.838 3.424-3.905 5.719-7.28 5.719z" fill="#fff18f"/><path d="m280.564 61.074c-.058 0-.115-.001-.174-.002-4.141-.094-7.421-3.527-7.327-7.669l.19-8.371c.093-4.083 3.432-7.329 7.495-7.329.058 0 .115.001.174.002 4.141.094 7.421 3.527 7.327 7.669l-.19 8.371c-.092 4.083-3.431 7.329-7.495 7.329z" fill="#333942"/><path d="m386.516 63.495c-.058 0-.116-.001-.175-.002-4.141-.095-7.421-3.528-7.326-7.67l.191-8.37c.094-4.082 3.433-7.328 7.495-7.328.058 0 .116.001.175.002 4.141.095 7.421 3.528 7.326 7.67l-.191 8.37c-.094 4.082-3.433 7.328-7.495 7.328z" fill="#333942"/><path d="m333.874 67.385c-6.667 0-13.268-2.267-19.751-6.798-3.395-2.373-4.224-7.049-1.851-10.444 2.375-3.395 7.05-4.222 10.444-1.851 7.624 5.329 13.986 5.468 21.961.479 3.511-2.197 8.138-1.132 10.336 2.381 2.196 3.511 1.131 8.139-2.381 10.336-6.282 3.932-12.549 5.897-18.758 5.897z" fill="#333942"/><path d="m15.862 469.248c-.018.522-.04 1.042-.04 1.569v10.63c0 9.978 8.089 18.067 18.067 18.067h183.122c9.978 0 18.067-8.089 18.067-18.067v-10.63c0-.526-.022-1.047-.04-1.569z" fill="#c1f1ff"/><g fill="#7c96b3"><path d="m142.463 223.393c-4.142 0-7.5 3.357-7.5 7.5s3.358 7.5 7.5 7.5h39.008v-15z"/><path d="m134.963 298.582c0 4.143 3.358 7.5 7.5 7.5h39.008v-15h-39.008c-4.142 0-7.5 3.358-7.5 7.5z"/><path d="m181.471 358.772h-39.008c-4.142 0-7.5 3.357-7.5 7.5s3.358 7.5 7.5 7.5h39.008z"/></g><path d="m364.038 219.136c-29.774 13.154-43.247 47.954-30.093 77.728s47.954 43.247 77.728 30.093c14.887-6.577 25.699-18.566 31.144-32.632-59.896 4.257-82.313-52.432-78.779-75.189z" fill="#fe5b70"/></svg>