<svg id="Capa_1" enable-background="new 0 0 497 497" height="512" viewBox="0 0 497 497" width="512" xmlns="http://www.w3.org/2000/svg"><path d="m338.294 239.61c-5.182-1.263-9.766-4.775-12.208-9.98l-69.351-147.818c-2.414-5.145-8.184-7.952-13.722-6.675-.083.019-.167.037-.25.055l-178.265 38.065c-9.846 2.124-19.554-4.138-21.68-13.987-2.124-9.849 4.138-19.555 13.987-21.68l178.158-38.04c22.13-5.029 45.16 6.208 54.804 26.765l69.351 147.818c4.279 9.122.354 19.985-8.767 24.265-3.918 1.837-8.157 2.161-12.057 1.212z" fill="#6be3d3"/><path d="m345.643 304.534c-.367 8.129.185 17.436-5.711 23.045-3.76 3.577-9.386 4.616-14.532 3.94s-9.956-2.854-14.679-5.006c-6.478-2.952-13.032-5.951-18.583-10.409s-10.082-10.605-11.124-17.647c-1.749-11.813 6.386-22.712 14.917-31.07 9.435-9.244 20.683-17.674 33.794-19.282 9.178-1.126 29.009 3.8 28.682 16.002-.141 5.276-5.575 11.519-7.501 16.308-3.082 7.668-4.89 15.86-5.263 24.119z" fill="#f9c290"/><path d="m35.382 112.802c24.146 13.909 23.836 45.777 28.757 69.609 8.819 42.705 37.751 80.182 75.324 102.314s83.068 29.368 126.238 23.212c41.066-5.856 80.004-23.391 113.474-47.946 9.712-7.125 11.465-21 3.712-30.219-6.426-7.642-15.802-12.035-24.872-16.2-75.232-34.552-263.065-120.821-281.749-129.402-8.173-3.754-16.588-7.57-25.567-8.086-20.179-1.16-37.271 24.073-15.317 36.718z" fill="#e7886e"/><path d="m336.33 203.613c-40.941-18.803-99.2-45.561-150.356-69.056v169.229c25.874 6.655 53.237 7.93 79.727 4.152 24.541-3.5 48.438-8.948 70.629-22.009z" fill="#dc6646"/><path d="m261.324 233.89c-1.068 0-2.151-.229-3.182-.713l-154.978-72.743c-3.75-1.76-5.362-6.227-3.603-9.976 1.761-3.751 6.227-5.361 9.977-3.603l154.978 72.743c3.75 1.76 5.362 6.227 3.603 9.976-1.278 2.72-3.978 4.316-6.795 4.316z" fill="#dc6646"/><path d="m221.922 406.174h90.298v-361.025c-.001-24.935-20.214-45.149-45.149-45.149-24.935 0-45.149 20.214-45.149 45.149z" fill="#fff2cf"/><path d="m221.922 361.913h90.298v44.261h-90.298z" fill="#ffe1bd"/><path d="m438.357 474.449h-342.573c-10.996 0-19.91-8.914-19.91-19.91 0-34.104 27.647-61.751 61.751-61.751h258.89c34.104 0 61.751 27.647 61.751 61.751 0 10.996-8.914 19.91-19.909 19.91z" fill="#e7886e"/><ellipse cx="137.334" cy="444.081" fill="#fff" rx="18.535" ry="13.339"/><ellipse cx="268.831" cy="444.081" fill="#fff" rx="18.535" ry="13.339"/><path d="m396.515 392.788h-45.348v81.661h87.189c10.996 0 19.91-8.914 19.91-19.91 0-34.104-27.647-61.751-61.751-61.751z" fill="#dc6646"/><path d="m266.36 64.187c-4.142 0-7.5-3.357-7.5-7.5v-11.33c0-4.143 3.358-7.5 7.5-7.5s7.5 3.357 7.5 7.5v11.329c0 4.143-3.358 7.501-7.5 7.501z" fill="#e7886e"/><g fill="#333942"><path d="m148.588 442.605c-4.142 0-7.5-3.357-7.5-7.5v-8.728c0-4.143 3.358-7.5 7.5-7.5s7.5 3.357 7.5 7.5v8.728c0 4.143-3.358 7.5-7.5 7.5z"/><path d="m259.062 442.605c-4.142 0-7.5-3.357-7.5-7.5v-8.728c0-4.143 3.358-7.5 7.5-7.5s7.5 3.357 7.5 7.5v8.728c0 4.143-3.358 7.5-7.5 7.5z"/><path d="m203.777 447.913c-6.655 0-13.293-2.188-19.87-6.563-3.448-2.295-4.384-6.95-2.089-10.399 2.295-3.447 6.951-4.382 10.399-2.089 8.198 5.455 14.934 5.447 23.25-.021 3.459-2.278 8.111-1.317 10.388 2.144 2.276 3.461 1.316 8.111-2.145 10.388-6.629 4.359-13.29 6.54-19.933 6.54z"/></g><path d="m471.889 454.425-43.458 4.653-43.457-4.653v-42.406l43.457-5.845 43.458 5.845z" fill="#fff2cf"/><path d="m412.949 408.256-27.975 3.763v42.406l27.975 2.995z" fill="#ffe1bd"/><path d="m457.229 497h-57.595c-8.096 0-14.66-6.563-14.66-14.66v-27.915h86.915v27.915c0 8.097-6.564 14.66-14.66 14.66z" fill="#fdd3a6"/><path d="m412.949 454.425h-27.975v27.915c0 8.096 6.563 14.66 14.66 14.66h13.316v-42.575z" fill="#f9c290"/><path d="m471.889 412.019h-86.915v-27.915c0-8.096 6.563-14.66 14.66-14.66h57.595c8.096 0 14.66 6.563 14.66 14.66z" fill="#fdd3a6"/><path d="m432.403 389.388h39.486v-5.284c0-8.096-6.563-14.66-14.66-14.66h-57.595c-8.096 0-14.66 6.563-14.66 14.66v27.915h27.975v-3.178c0-10.744 8.71-19.453 19.454-19.453z" fill="#f9c290"/></svg>