<svg id="Capa_1" enable-background="new 0 0 497 497" height="512" viewBox="0 0 497 497" width="512" xmlns="http://www.w3.org/2000/svg"><circle cx="248.5" cy="268.126" fill="#6be3d3" r="114.144"/><path d="m134.368 269.066c.506 62.606 51.406 113.204 114.132 113.204s113.626-50.598 114.132-113.204z" fill="#17d9bf"/><circle cx="248.5" cy="268.126" fill="#fff" r="63.271"/><path d="m185.253 269.066c.505 34.508 28.619 62.331 63.247 62.331s62.743-27.823 63.247-62.331z" fill="#ffedf0"/><path d="m262.181 260.626h-6.181v-6.181c0-4.142-3.358-7.5-7.5-7.5s-7.5 3.358-7.5 7.5v6.181h-6.181c-4.142 0-7.5 3.358-7.5 7.5s3.358 7.5 7.5 7.5h6.181v6.181c0 4.142 3.358 7.5 7.5 7.5s7.5-3.358 7.5-7.5v-6.181h6.181c4.142 0 7.5-3.358 7.5-7.5s-3.358-7.5-7.5-7.5z" fill="#6be3d3"/><path d="m24.017 40.787h56.121v386.234h-56.121z" fill="#e7886e"/><path d="m416.862 40.787h56.121v386.234h-56.121z" fill="#e7886e"/><path d="m120.207 318.154-9.868 89.362 9.868 81.038h128.293l8.115-81.788-8.115-88.612z" fill="#fdd3a6"/><path d="m254.188 380.269-5.688-62.115h-128.293l-6.859 62.115z" fill="#f9c290"/><path d="m497 467.287v-127.866c0-11.745-9.521-21.267-21.267-21.267h-102.868l-9.731 84.861 9.731 85.539h102.868c11.746 0 21.267-9.521 21.267-21.267z" fill="#fdd3a6"/><path d="m497 380.269v-40.848c0-11.745-9.521-21.267-21.267-21.267h-102.868l-7.123 62.115z" fill="#f9c290"/><path d="m0 339.421v127.866c0 11.745 9.521 21.267 21.267 21.267h98.94v-170.4h-98.94c-11.746 0-21.267 9.522-21.267 21.267z" fill="#fff2cf"/><path d="m93.833 380.269h26.373v-62.115h-98.94c-11.745 0-21.266 9.522-21.266 21.267v127.866c0 11.745 9.521 21.267 21.267 21.267h30.852v-66.57c-.001-23.039 18.676-41.715 41.714-41.715z" fill="#ffe1bd"/><path d="m248.5 318.154h124.365v170.4h-124.365z" fill="#fff2cf"/><path d="m248.5 318.154h124.365v62.115h-124.365z" fill="#ffe1bd"/><path d="m24.017 40.787h56.121v84.133h-56.121z" fill="#dc6646"/><path d="m416.862 40.787h56.121v84.133h-56.121z" fill="#dc6646"/><path d="m248.5 8.446h-128.293l-6.117 33.006 6.117 39.285h128.293l5.864-39.285z" fill="#fdd3a6"/><path d="m493.433 59.47v-29.757c0-11.745-9.521-21.267-21.267-21.267h-99.302l-7.481 36.007 7.481 36.284h99.302c11.746 0 21.267-9.522 21.267-21.267z" fill="#fdd3a6"/><path d="m248.5 8.446h124.365v72.291h-124.365z" fill="#fff2cf"/><path d="m302.854 111.393h-108.708c-8.656 0-15.673-7.017-15.673-15.673v-24.834c0-8.656 7.017-15.673 15.673-15.673h108.707c8.656 0 15.673 7.017 15.673 15.673v24.833c.001 8.656-7.016 15.674-15.672 15.674z" fill="#fff18f"/><path d="m3.567 29.713v29.757c0 11.745 9.521 21.267 21.267 21.267h95.373v-72.291h-95.374c-11.745 0-21.266 9.521-21.266 21.267z" fill="#fff2cf"/><path d="m178.473 81.159v14.56c0 8.656 7.017 15.673 15.673 15.673h108.707c8.656 0 15.673-7.017 15.673-15.673v-14.56z" fill="#ffde83"/></svg>