<?xml version="1.0" encoding="iso-8859-1"?>
<!-- Generator: Adobe Illustrator 19.0.0, SVG Export Plug-In . SVG Version: 6.00 Build 0)  -->
<svg version="1.1" id="Capa_1" xmlns="http://www.w3.org/2000/svg" xmlns:xlink="http://www.w3.org/1999/xlink" x="0px" y="0px"
	 viewBox="0 0 504.771 504.771" style="enable-background:new 0 0 504.771 504.771;" xml:space="preserve">
<g>
	<path style="fill:#285680;" d="M190.915,313.132C85.478,313.132,0,336.476,0,365.2v74.457c0,28.811,85.478,55.713,190.915,55.713
		s190.915-26.902,190.915-55.713V365.2C381.831,336.476,296.353,313.132,190.915,313.132z"/>
	<ellipse style="fill:#4482C3;" cx="190.915" cy="365.2" rx="190.915" ry="52.068"/>
	<path style="fill:#285680;" d="M190.915,182.963C85.478,182.963,0,206.307,0,235.031v74.457C0,338.299,85.478,365.2,190.915,365.2
		s190.915-26.902,190.915-55.713v-74.457C381.831,206.307,296.353,182.963,190.915,182.963z"/>
	<ellipse style="fill:#4482C3;" cx="190.915" cy="235.031" rx="190.915" ry="52.068"/>
	<path style="fill:#285680;" d="M190.915,44.116C85.478,44.116,0,67.459,0,96.183v74.457c0,28.811,85.478,55.713,190.915,55.713
		s190.915-26.902,190.915-55.713V96.183C381.831,67.459,296.353,44.116,190.915,44.116z"/>
	<ellipse style="fill:#4482C3;" cx="190.915" cy="96.183" rx="190.915" ry="52.068"/>
	<path style="fill:#F29C1F;" d="M444.026,298.12l0-260.339c0.012-5.368-2.375-10.46-6.508-13.885L413.939,4.631
		c-3.529-2.914-8.081-4.289-12.633-3.816c-4.552,0.473-8.724,2.755-11.578,6.332l-28.464,34.885
		c-2.582,3.163-3.992,7.12-3.992,11.203v15.117c0,1.149,0.456,2.25,1.267,3.063l21.695,21.695c0.816,0.814,1.275,1.919,1.275,3.072
		c0,1.153-0.459,2.258-1.275,3.072l-19.925,19.89c-0.816,0.814-1.275,1.919-1.275,3.072s0.459,2.258,1.275,3.072l19.899,19.89
		c0.816,0.814,1.275,1.919,1.275,3.072s-0.459,2.258-1.275,3.072l-19.899,19.89c-0.816,0.814-1.275,1.919-1.275,3.072
		c0,1.153,0.459,2.258,1.275,3.072l19.899,19.89c0.816,0.814,1.275,1.919,1.275,3.072s-0.459,2.258-1.275,3.072l-21.695,21.695
		c-0.811,0.813-1.267,1.915-1.267,3.063v66.239"/>
	<g>
		<path style="fill:#F0C419;" d="M409.314,217.675c4.793,0,8.678,3.885,8.678,8.678v26.034c0,4.793-3.885,8.678-8.678,8.678
			s-8.678-3.885-8.678-8.678v-26.034C400.636,221.56,404.521,217.675,409.314,217.675z"/>
		<path style="fill:#F0C419;" d="M409.314,156.929c4.793,0,8.678,3.885,8.678,8.678v17.356c0,4.793-3.885,8.678-8.678,8.678
			s-8.678-3.885-8.678-8.678v-17.356C400.636,160.814,404.521,156.929,409.314,156.929z"/>
		<path style="fill:#F0C419;" d="M409.314,104.861c4.793,0,8.678,3.885,8.678,8.678v17.356c0,4.793-3.885,8.678-8.678,8.678
			s-8.678-3.885-8.678-8.678v-17.356C400.636,108.747,404.521,104.861,409.314,104.861z"/>
		<path style="fill:#F0C419;" d="M409.314,44.116c4.793,0,8.678,3.885,8.678,8.678v17.356c0,4.793-3.885,8.678-8.678,8.678
			s-8.678-3.885-8.678-8.678V52.794C400.636,48.001,404.521,44.116,409.314,44.116z"/>
	</g>
	<path id="SVGCleanerId_0" style="fill:#F0C419;" d="M396.297,504.048c59.909,0,108.475-48.566,108.475-108.475
		s-48.566-108.475-108.475-108.475s-108.475,48.566-108.475,108.475S336.388,504.048,396.297,504.048z M396.297,408.59
		c16.774,0,30.373,13.598,30.373,30.373c0,16.774-13.598,30.373-30.373,30.373s-30.373-13.598-30.373-30.373
		C365.924,422.189,379.522,408.59,396.297,408.59z"/>
	<g>
		<path id="SVGCleanerId_0_1_" style="fill:#F0C419;" d="M396.297,504.048c59.909,0,108.475-48.566,108.475-108.475
			s-48.566-108.475-108.475-108.475s-108.475,48.566-108.475,108.475S336.388,504.048,396.297,504.048z M396.297,408.59
			c16.774,0,30.373,13.598,30.373,30.373c0,16.774-13.598,30.373-30.373,30.373s-30.373-13.598-30.373-30.373
			C365.924,422.189,379.522,408.59,396.297,408.59z"/>
	</g>
</g>
<g>
</g>
<g>
</g>
<g>
</g>
<g>
</g>
<g>
</g>
<g>
</g>
<g>
</g>
<g>
</g>
<g>
</g>
<g>
</g>
<g>
</g>
<g>
</g>
<g>
</g>
<g>
</g>
<g>
</g>
</svg>
