<?xml version="1.0" encoding="iso-8859-1"?>
<!-- Generator: Adobe Illustrator 19.0.0, SVG Export Plug-In . SVG Version: 6.00 Build 0)  -->
<svg version="1.1" id="Capa_1" xmlns="http://www.w3.org/2000/svg" xmlns:xlink="http://www.w3.org/1999/xlink" x="0px" y="0px"
	 viewBox="0 0 512 512" style="enable-background:new 0 0 512 512;" xml:space="preserve">
<g>
	<path style="fill:#F3D55B;" d="M452.267,59.733v341.333H204.8c-9.414,0.028-17.039,7.653-17.067,17.067v34.133
		c0,28.277-22.923,51.2-51.2,51.2H128c-28.277,0-51.2-22.923-51.2-51.2V110.933H42.667c-9.414-0.028-17.039-7.653-17.067-17.067
		V59.733c0-28.277,22.923-51.2,51.2-51.2h324.267C429.344,8.533,452.267,31.456,452.267,59.733z"/>
	<path style="fill:#B19046;" d="M136.533,512H128c-32.974-0.038-59.696-26.759-59.733-59.733v-332.8h-25.6
		c-14.138,0-25.6-11.462-25.6-25.6V59.733C17.104,26.759,43.826,0.038,76.8,0h324.267c32.974,0.038,59.696,26.759,59.733,59.733
		v341.333c0,4.713-3.82,8.533-8.533,8.533H204.8c-4.713,0-8.533,3.82-8.533,8.533v34.133
		C196.229,485.241,169.508,511.962,136.533,512z M76.8,17.067c-23.552,0.028-42.638,19.114-42.667,42.667v34.133
		c0,4.713,3.821,8.533,8.533,8.533H76.8c4.713,0,8.533,3.821,8.533,8.533v341.333c0.028,23.552,19.114,42.638,42.667,42.667h8.533
		c23.552-0.028,42.638-19.114,42.667-42.667v-34.133c0-14.138,11.462-25.6,25.6-25.6h238.933v-332.8
		c-0.028-23.552-19.114-42.638-42.667-42.667H76.8z"/>
	<path style="fill:#F3D55B;" d="M486.4,418.133v34.133c0,28.277-22.923,51.2-51.2,51.2H136.533c28.277,0,51.2-22.923,51.2-51.2
		v-34.133c0.028-9.414,7.653-17.039,17.067-17.067h264.533C478.747,401.095,486.372,408.719,486.4,418.133z"/>
	<g>
		<path style="fill:#B19046;" d="M76.8,119.467c-4.713,0-8.533-3.821-8.533-8.533v-51.2c0-4.713,3.821-8.533,8.533-8.533
			s8.533,3.821,8.533,8.533v51.2C85.333,115.646,81.513,119.467,76.8,119.467z"/>
		<path style="fill:#B19046;" d="M435.2,512H136.533c-4.713,0-8.533-3.82-8.533-8.533c0-4.713,3.821-8.533,8.533-8.533
			c23.552-0.028,42.638-19.114,42.667-42.667v-34.133c0-14.138,11.462-25.6,25.6-25.6h264.533c14.138,0,25.6,11.462,25.6,25.6
			v34.133C494.896,485.241,468.174,511.962,435.2,512z M178.347,494.933H435.2c23.552-0.028,42.638-19.114,42.667-42.667v-34.133
			c0-4.713-3.821-8.533-8.533-8.533H204.8c-4.713,0-8.533,3.82-8.533,8.533v34.133C196.288,468.323,189.827,483.708,178.347,494.933
			z"/>
	</g>
	<path style="fill:#E6E7E8;" d="M102.4,204.8h324.267c28.277,0,51.2,22.923,51.2,51.2l0,0c0,28.277-22.923,51.2-51.2,51.2H102.4
		c-28.277,0-51.2-22.923-51.2-51.2l0,0C51.2,227.723,74.123,204.8,102.4,204.8z"/>
	<path style="fill:#A5A5A4;" d="M426.667,315.733H102.4c-32.99,0-59.733-26.743-59.733-59.733s26.744-59.733,59.733-59.733h324.267
		c32.99,0,59.733,26.744,59.733,59.733S459.656,315.733,426.667,315.733z M102.4,213.333c-23.564,0-42.667,19.103-42.667,42.667
		c0,23.564,19.103,42.667,42.667,42.667h324.267c23.564,0,42.667-19.103,42.667-42.667c0-23.564-19.102-42.667-42.667-42.667H102.4z
		"/>
	<g>
		<path style="fill:#2C3E50;" d="M145.067,281.6c-2.263,0-4.433-0.9-6.033-2.5L104.9,244.966c-3.234-3.348-3.188-8.671,0.104-11.962
			s8.614-3.338,11.962-0.104l34.133,34.133c2.44,2.44,3.169,6.11,1.849,9.298S148.518,281.599,145.067,281.6z"/>
		<path style="fill:#2C3E50;" d="M110.933,281.6c-3.451-0.001-6.562-2.08-7.882-5.268s-0.591-6.858,1.849-9.298l34.133-34.133
			c3.348-3.234,8.671-3.188,11.962,0.104c3.292,3.292,3.338,8.614,0.104,11.962L116.966,279.1
			C115.366,280.7,113.196,281.6,110.933,281.6z"/>
		<path style="fill:#2C3E50;" d="M213.333,281.6c-2.263,0-4.433-0.9-6.033-2.5l-34.133-34.133
			c-3.234-3.348-3.188-8.671,0.104-11.962c3.292-3.292,8.614-3.338,11.962-0.104l34.133,34.133c2.44,2.44,3.169,6.11,1.849,9.298
			C219.895,279.52,216.784,281.599,213.333,281.6z"/>
		<path style="fill:#2C3E50;" d="M179.2,281.6c-3.451-0.001-6.562-2.08-7.882-5.268c-1.32-3.188-0.591-6.858,1.849-9.298
			L207.3,232.9c3.348-3.234,8.671-3.188,11.962,0.104c3.292,3.292,3.338,8.614,0.104,11.962L185.233,279.1
			C183.633,280.7,181.463,281.6,179.2,281.6z"/>
		<path style="fill:#2C3E50;" d="M281.6,281.6c-2.263,0-4.433-0.9-6.033-2.5l-34.133-34.133c-3.234-3.348-3.188-8.671,0.104-11.962
			c3.292-3.292,8.614-3.338,11.962-0.104l34.133,34.133c2.44,2.44,3.169,6.11,1.849,9.298
			C288.162,279.52,285.051,281.599,281.6,281.6z"/>
		<path style="fill:#2C3E50;" d="M247.467,281.6c-3.451-0.001-6.562-2.08-7.882-5.268s-0.591-6.858,1.849-9.298l34.133-34.133
			c3.348-3.234,8.671-3.188,11.962,0.104c3.292,3.292,3.338,8.614,0.104,11.962L253.5,279.1C251.9,280.7,249.73,281.6,247.467,281.6
			z"/>
		<path style="fill:#2C3E50;" d="M349.867,281.6c-2.263,0-4.433-0.9-6.033-2.5L309.7,244.966c-3.234-3.348-3.188-8.671,0.104-11.962
			s8.614-3.338,11.962-0.104l34.133,34.133c2.44,2.44,3.169,6.11,1.849,9.298C356.428,279.52,353.318,281.599,349.867,281.6z"/>
		<path style="fill:#2C3E50;" d="M315.733,281.6c-3.451-0.001-6.562-2.08-7.882-5.268c-1.32-3.188-0.591-6.858,1.849-9.298
			l34.133-34.133c3.348-3.234,8.671-3.188,11.962,0.104s3.338,8.614,0.104,11.962L321.766,279.1
			C320.166,280.7,317.996,281.6,315.733,281.6z"/>
		<path style="fill:#2C3E50;" d="M418.133,281.6H384c-4.713,0-8.533-3.82-8.533-8.533s3.821-8.533,8.533-8.533h34.133
			c4.713,0,8.533,3.82,8.533,8.533S422.846,281.6,418.133,281.6z"/>
	</g>
</g>
<g>
</g>
<g>
</g>
<g>
</g>
<g>
</g>
<g>
</g>
<g>
</g>
<g>
</g>
<g>
</g>
<g>
</g>
<g>
</g>
<g>
</g>
<g>
</g>
<g>
</g>
<g>
</g>
<g>
</g>
</svg>
