<?xml version="1.0" encoding="iso-8859-1"?>
<!-- Generator: Adobe Illustrator 19.0.0, SVG Export Plug-In . SVG Version: 6.00 Build 0)  -->
<svg version="1.1" id="Capa_1" xmlns="http://www.w3.org/2000/svg" xmlns:xlink="http://www.w3.org/1999/xlink" x="0px" y="0px"
	 viewBox="0 0 512 512" style="enable-background:new 0 0 512 512;" xml:space="preserve">
<g>
	<path style="fill:#2FA8CC;" d="M0,467.862c0-4.875,3.952-8.828,8.828-8.828h494.345c4.875,0,8.828,3.952,8.828,8.828v17.655
		c0,4.875-3.952,8.828-8.828,8.828H8.828c-4.875,0-8.828-3.952-8.828-8.828V467.862z"/>
	<path style="fill:#3D324C;" d="M211.862,441.38h87.543c9.751,0,17.655,7.905,17.655,17.655v35.31
		c0,9.751-7.904,17.655-17.655,17.655h-87.543c-9.751,0-17.655-7.905-17.655-17.655v-35.31
		C194.207,449.284,202.111,441.38,211.862,441.38z"/>
	<rect x="238.345" y="361.931" style="fill:#2FA8CC;" width="35.31" height="79.448"/>
	<path style="fill:#F29C1F;" d="M379.586,114.759h97.103V61.793c-0.029-9.739-7.917-17.626-17.655-17.655H292.281
		c-5.255,0.027-10.245-2.306-13.594-6.356L252.469,6.356C249.12,2.306,244.13-0.027,238.875,0H70.621
		c-9.739,0.029-17.626,7.917-17.655,17.655v97.103H379.586z"/>
	<path style="fill:#F0C419;" d="M462.018,105.931h14.124c10.049-0.084,19.662,4.093,26.457,11.497
		c6.795,7.404,10.134,17.34,9.189,27.344L492.085,338.98c-1.973,18.157-17.356,31.882-35.619,31.779H55.534
		c-18.274,0.116-33.672-13.612-35.646-31.779L0.185,144.773c-0.945-10.004,2.394-19.941,9.189-27.344
		c6.795-7.404,16.408-11.581,26.457-11.497H462.018z"/>
	<path style="fill:#E6E7E8;" d="M105.931,176.552h300.138c29.252,0,52.966,23.713,52.966,52.966l0,0
		c0,29.252-23.713,52.966-52.966,52.966H105.931c-29.252,0-52.966-23.713-52.966-52.966l0,0
		C52.966,200.265,76.679,176.552,105.931,176.552z"/>
	<path style="fill:#A5A5A4;" d="M406.069,291.311H105.931c-34.127,0-61.793-27.666-61.793-61.793s27.666-61.793,61.793-61.793
		h300.138c34.127,0,61.793,27.666,61.793,61.793S440.196,291.311,406.069,291.311z M105.931,185.38
		c-24.377,0-44.138,19.761-44.138,44.138s19.761,44.138,44.138,44.138h300.138c24.377,0,44.138-19.761,44.138-44.138
		s-19.761-44.138-44.138-44.138H105.931z"/>
	<g>
		<path style="fill:#2C3E50;" d="M132.414,256c-2.341-0.001-4.586-0.931-6.241-2.586l-35.31-35.31
			c-3.345-3.464-3.298-8.97,0.108-12.375s8.911-3.453,12.375-0.108l35.31,35.31c2.524,2.525,3.279,6.321,1.913,9.619
			C139.202,253.849,135.984,255.999,132.414,256z"/>
		<path style="fill:#2C3E50;" d="M97.104,256c-3.57-0.001-6.788-2.152-8.154-5.45c-1.366-3.298-0.611-7.094,1.913-9.619l35.31-35.31
			c3.464-3.345,8.97-3.298,12.375,0.108s3.453,8.911,0.108,12.375l-35.31,35.31C101.69,255.069,99.445,256,97.104,256z"/>
		<path style="fill:#2C3E50;" d="M203.035,256c-2.341-0.001-4.586-0.931-6.241-2.586l-35.31-35.31
			c-3.345-3.464-3.298-8.97,0.108-12.375s8.911-3.453,12.375-0.108l35.31,35.31c2.524,2.525,3.279,6.321,1.913,9.619
			C209.822,253.849,206.604,255.999,203.035,256z"/>
		<path style="fill:#2C3E50;" d="M167.724,256c-3.57-0.001-6.788-2.152-8.154-5.45c-1.366-3.298-0.611-7.094,1.913-9.619
			l35.31-35.31c3.464-3.345,8.97-3.298,12.375,0.108s3.453,8.911,0.108,12.375l-35.31,35.31C172.31,255.069,170.065,256,167.724,256
			z"/>
		<path style="fill:#2C3E50;" d="M273.655,256c-2.341-0.001-4.586-0.931-6.241-2.586l-35.31-35.31
			c-3.345-3.464-3.298-8.97,0.108-12.375s8.911-3.453,12.375-0.108l35.31,35.31c2.524,2.525,3.279,6.321,1.913,9.619
			S277.225,255.999,273.655,256z"/>
		<path style="fill:#2C3E50;" d="M238.345,256c-3.57-0.001-6.788-2.152-8.154-5.45c-1.366-3.298-0.611-7.094,1.913-9.619
			l35.31-35.31c3.464-3.345,8.97-3.298,12.375,0.108s3.453,8.911,0.108,12.375l-35.31,35.31
			C242.931,255.069,240.686,256,238.345,256z"/>
		<path style="fill:#2C3E50;" d="M344.276,256c-2.341-0.001-4.586-0.931-6.241-2.586l-35.31-35.31
			c-3.345-3.464-3.298-8.97,0.108-12.375s8.911-3.453,12.375-0.108l35.31,35.31c2.524,2.525,3.279,6.321,1.913,9.619
			C351.064,253.849,347.846,255.999,344.276,256z"/>
		<path style="fill:#2C3E50;" d="M308.966,256c-3.57-0.001-6.788-2.152-8.154-5.45c-1.366-3.298-0.611-7.094,1.913-9.619
			l35.31-35.31c3.464-3.345,8.97-3.298,12.375,0.108c3.405,3.405,3.453,8.911,0.108,12.375l-35.31,35.31
			C313.552,255.069,311.307,256,308.966,256z"/>
		<path style="fill:#2C3E50;" d="M414.897,256h-35.31c-4.875,0-8.828-3.952-8.828-8.828s3.952-8.828,8.828-8.828h35.31
			c4.875,0,8.828,3.952,8.828,8.828S419.772,256,414.897,256z"/>
	</g>
</g>
<g>
</g>
<g>
</g>
<g>
</g>
<g>
</g>
<g>
</g>
<g>
</g>
<g>
</g>
<g>
</g>
<g>
</g>
<g>
</g>
<g>
</g>
<g>
</g>
<g>
</g>
<g>
</g>
<g>
</g>
</svg>
