<?xml version="1.0" encoding="iso-8859-1"?>
<!-- Generator: Adobe Illustrator 19.0.0, SVG Export Plug-In . SVG Version: 6.00 Build 0)  -->
<svg version="1.1" id="Capa_1" xmlns="http://www.w3.org/2000/svg" xmlns:xlink="http://www.w3.org/1999/xlink" x="0px" y="0px"
	 viewBox="0 0 512 512" style="enable-background:new 0 0 512 512;" xml:space="preserve">
<g>
	<path style="fill:#2FA8CC;" d="M0,467.862c0-4.875,3.952-8.828,8.828-8.828h494.345c4.875,0,8.828,3.952,8.828,8.828v17.655
		c0,4.875-3.952,8.828-8.828,8.828H8.828c-4.875,0-8.828-3.952-8.828-8.828V467.862z"/>
	<path style="fill:#3D324C;" d="M211.862,441.38h87.543c9.751,0,17.655,7.905,17.655,17.655v35.31
		c0,9.751-7.904,17.655-17.655,17.655h-87.543c-9.751,0-17.655-7.905-17.655-17.655v-35.31
		C194.207,449.284,202.111,441.38,211.862,441.38z"/>
	<rect x="238.345" y="361.931" style="fill:#2FA8CC;" width="35.31" height="79.448"/>
	<path style="fill:#F29C1F;" d="M379.586,114.759h97.103V61.793c-0.029-9.739-7.917-17.626-17.655-17.655H292.281
		c-5.255,0.027-10.245-2.306-13.594-6.356L252.469,6.356C249.12,2.306,244.13-0.027,238.875,0H70.621
		c-9.739,0.029-17.626,7.917-17.655,17.655v97.103H379.586z"/>
	<path style="fill:#F0C419;" d="M462.018,105.931h14.124c10.049-0.084,19.662,4.093,26.457,11.497
		c6.795,7.404,10.134,17.34,9.189,27.344L492.085,338.98c-1.973,18.157-17.356,31.882-35.619,31.779H55.534
		c-18.274,0.116-33.672-13.612-35.646-31.779L0.185,144.773c-0.945-10.004,2.394-19.941,9.189-27.344
		c6.795-7.404,16.408-11.581,26.457-11.497H462.018z"/>
	<path style="fill:#E6E7E8;" d="M317.793,194.207H194.207c-4.875,0-8.828-3.952-8.828-8.828v-35.31
		c0-39.003,31.618-70.621,70.621-70.621s70.621,31.618,70.621,70.621v35.31c0,2.341-0.93,4.587-2.586,6.242
		C322.38,193.277,320.134,194.207,317.793,194.207z M203.035,176.552h105.931v-26.483c0-29.252-23.713-52.966-52.966-52.966
		s-52.966,23.713-52.966,52.966V176.552z"/>
	<path style="fill:#2FA8CC;" d="M176.552,176.552h158.897c4.875,0,8.828,3.952,8.828,8.828v97.103
		c0,29.252-23.713,52.966-52.966,52.966H220.69c-29.252,0-52.966-23.713-52.966-52.966V185.38
		C167.724,180.504,171.676,176.552,176.552,176.552z"/>
	<g>
		<path style="fill:#2C3E50;" d="M256,264.828c-14.626,0-26.483-11.857-26.483-26.483s11.857-26.483,26.483-26.483
			c14.626,0,26.483,11.857,26.483,26.483S270.626,264.828,256,264.828z M256,229.517c-4.875,0-8.828,3.952-8.828,8.828
			s3.952,8.828,8.828,8.828s8.828-3.952,8.828-8.828S260.875,229.517,256,229.517z"/>
		<path style="fill:#2C3E50;" d="M256,291.311c-4.875,0-8.828-3.952-8.828-8.828V256c0-4.875,3.952-8.828,8.828-8.828
			s8.828,3.952,8.828,8.828v26.483C264.828,287.358,260.875,291.311,256,291.311z"/>
		<path style="fill:#2C3E50;" d="M194.207,220.69h-26.483c-4.875,0-8.828-3.952-8.828-8.828s3.952-8.828,8.828-8.828h26.483
			c4.875,0,8.828,3.952,8.828,8.828S199.082,220.69,194.207,220.69z"/>
		<path style="fill:#2C3E50;" d="M194.207,256h-26.483c-4.875,0-8.828-3.952-8.828-8.828s3.952-8.828,8.828-8.828h26.483
			c4.875,0,8.828,3.952,8.828,8.828S199.082,256,194.207,256z"/>
		<path style="fill:#2C3E50;" d="M194.207,291.311h-26.483c-4.875,0-8.828-3.952-8.828-8.828s3.952-8.828,8.828-8.828h26.483
			c4.875,0,8.828,3.952,8.828,8.828S199.082,291.311,194.207,291.311z"/>
		<path style="fill:#2C3E50;" d="M344.276,220.69h-26.483c-4.875,0-8.828-3.952-8.828-8.828s3.952-8.828,8.828-8.828h26.483
			c4.875,0,8.828,3.952,8.828,8.828S349.151,220.69,344.276,220.69z"/>
		<path style="fill:#2C3E50;" d="M344.276,256h-26.483c-4.875,0-8.828-3.952-8.828-8.828s3.952-8.828,8.828-8.828h26.483
			c4.875,0,8.828,3.952,8.828,8.828S349.151,256,344.276,256z"/>
		<path style="fill:#2C3E50;" d="M344.276,291.311h-26.483c-4.875,0-8.828-3.952-8.828-8.828s3.952-8.828,8.828-8.828h26.483
			c4.875,0,8.828,3.952,8.828,8.828S349.151,291.311,344.276,291.311z"/>
	</g>
</g>
<g>
</g>
<g>
</g>
<g>
</g>
<g>
</g>
<g>
</g>
<g>
</g>
<g>
</g>
<g>
</g>
<g>
</g>
<g>
</g>
<g>
</g>
<g>
</g>
<g>
</g>
<g>
</g>
<g>
</g>
</svg>
