<?xml version="1.0" encoding="iso-8859-1"?>
<!-- Generator: Adobe Illustrator 19.0.0, SVG Export Plug-In . SVG Version: 6.00 Build 0)  -->
<svg version="1.1" id="Capa_1" xmlns="http://www.w3.org/2000/svg" xmlns:xlink="http://www.w3.org/1999/xlink" x="0px" y="0px"
	 viewBox="0 0 512 512" style="enable-background:new 0 0 512 512;" xml:space="preserve">
<g>
	<path style="fill:#2C3E50;" d="M322.56,512H74.681c-14.419-0.029-26.101-11.711-26.13-26.13V26.13
		C48.581,11.711,60.262,0.029,74.681,0H322.56c14.419,0.029,26.101,11.711,26.13,26.13V150.51"/>
	<rect x="48.552" y="70.621" style="fill:#556080;" width="300.138" height="370.759"/>
	<path style="fill:#35495E;" d="M198.621,485.517h-35.31c-4.875,0-8.828-3.952-8.828-8.828s3.952-8.828,8.828-8.828h35.31
		c4.875,0,8.828,3.952,8.828,8.828S203.496,485.517,198.621,485.517z"/>
	<g>
		<path style="fill:#8697CB;" d="M92.69,114.759h-8.828c-4.875,0-8.828-3.952-8.828-8.828c0-4.875,3.952-8.828,8.828-8.828h8.828
			c4.875,0,8.828,3.952,8.828,8.828C101.517,110.806,97.565,114.759,92.69,114.759z"/>
		<path style="fill:#8697CB;" d="M216.276,114.759H128c-4.875,0-8.828-3.952-8.828-8.828c0-4.875,3.952-8.828,8.828-8.828h88.276
			c4.875,0,8.828,3.952,8.828,8.828C225.103,110.806,221.151,114.759,216.276,114.759z"/>
	</g>
	<path style="fill:#B0D3F0;" d="M428.138,335.448H251.586c-4.875,0-8.828-3.952-8.828-8.828v-79.448
		c0-53.629,43.475-97.103,97.103-97.103s97.103,43.475,97.103,97.103v79.448C436.966,331.496,433.013,335.448,428.138,335.448z
		 M260.414,317.793H419.31v-70.621c0-43.878-35.57-79.448-79.448-79.448s-79.448,35.57-79.448,79.448V317.793z"/>
	<path style="fill:#F0C419;" d="M233.931,317.793h211.862c4.875,0,8.828,3.952,8.828,8.828v132.414
		c0,29.252-23.713,52.966-52.966,52.966H278.069c-29.252,0-52.966-23.713-52.966-52.966V326.621
		C225.103,321.745,229.056,317.793,233.931,317.793z"/>
	<g>
		<path style="fill:#E57E25;" d="M339.862,423.724c-14.626,0-26.483-11.857-26.483-26.483c0-14.626,11.857-26.483,26.483-26.483
			s26.483,11.857,26.483,26.483C366.345,411.867,354.488,423.724,339.862,423.724z M339.862,388.414
			c-4.875,0-8.828,3.952-8.828,8.828c0,4.875,3.952,8.828,8.828,8.828s8.828-3.952,8.828-8.828
			C348.69,392.366,344.737,388.414,339.862,388.414z"/>
		<path style="fill:#E57E25;" d="M339.862,450.207c-4.875,0-8.828-3.952-8.828-8.828v-26.483c0-4.875,3.952-8.828,8.828-8.828
			s8.828,3.952,8.828,8.828v26.483C348.69,446.255,344.737,450.207,339.862,450.207z"/>
		<path style="fill:#E57E25;" d="M260.414,361.931h-35.31c-4.875,0-8.828-3.952-8.828-8.828s3.952-8.828,8.828-8.828h35.31
			c4.875,0,8.828,3.952,8.828,8.828S265.289,361.931,260.414,361.931z"/>
		<path style="fill:#E57E25;" d="M260.414,397.241h-35.31c-4.875,0-8.828-3.952-8.828-8.828s3.952-8.828,8.828-8.828h35.31
			c4.875,0,8.828,3.952,8.828,8.828S265.289,397.241,260.414,397.241z"/>
		<path style="fill:#E57E25;" d="M260.414,432.552h-35.31c-4.875,0-8.828-3.952-8.828-8.828c0-4.875,3.952-8.828,8.828-8.828h35.31
			c4.875,0,8.828,3.952,8.828,8.828C269.241,428.599,265.289,432.552,260.414,432.552z"/>
		<path style="fill:#E57E25;" d="M260.414,467.862h-35.31c-4.875,0-8.828-3.952-8.828-8.828s3.952-8.828,8.828-8.828h35.31
			c4.875,0,8.828,3.952,8.828,8.828S265.289,467.862,260.414,467.862z"/>
		<path style="fill:#E57E25;" d="M454.621,361.931h-35.31c-4.875,0-8.828-3.952-8.828-8.828s3.952-8.828,8.828-8.828h35.31
			c4.875,0,8.828,3.952,8.828,8.828S459.496,361.931,454.621,361.931z"/>
		<path style="fill:#E57E25;" d="M454.621,397.241h-35.31c-4.875,0-8.828-3.952-8.828-8.828s3.952-8.828,8.828-8.828h35.31
			c4.875,0,8.828,3.952,8.828,8.828S459.496,397.241,454.621,397.241z"/>
		<path style="fill:#E57E25;" d="M454.621,432.552h-35.31c-4.875,0-8.828-3.952-8.828-8.828c0-4.875,3.952-8.828,8.828-8.828h35.31
			c4.875,0,8.828,3.952,8.828,8.828C463.448,428.599,459.496,432.552,454.621,432.552z"/>
		<path style="fill:#E57E25;" d="M454.621,467.862h-35.31c-4.875,0-8.828-3.952-8.828-8.828s3.952-8.828,8.828-8.828h35.31
			c4.875,0,8.828,3.952,8.828,8.828S459.496,467.862,454.621,467.862z"/>
	</g>
</g>
<g>
</g>
<g>
</g>
<g>
</g>
<g>
</g>
<g>
</g>
<g>
</g>
<g>
</g>
<g>
</g>
<g>
</g>
<g>
</g>
<g>
</g>
<g>
</g>
<g>
</g>
<g>
</g>
<g>
</g>
</svg>
