<?xml version="1.0" encoding="iso-8859-1"?>
<!-- Generator: Adobe Illustrator 19.0.0, SVG Export Plug-In . SVG Version: 6.00 Build 0)  -->
<svg version="1.1" id="Capa_1" xmlns="http://www.w3.org/2000/svg" xmlns:xlink="http://www.w3.org/1999/xlink" x="0px" y="0px"
	 viewBox="0 0 512 512" style="enable-background:new 0 0 512 512;" xml:space="preserve">
<g>
	<rect x="190.915" y="412.203" style="fill:#7F8C8D;" width="34.712" height="69.424"/>
	<polygon style="fill:#35495E;" points="364.475,319.176 364.475,256 52.068,256 52.068,325.424 	"/>
	<path style="fill:#95A5A5;" d="M17.356,316.746h381.831c9.585,0,17.356,7.771,17.356,17.356v69.424
		c0,9.585-7.771,17.356-17.356,17.356H17.356C7.771,420.881,0,413.111,0,403.525v-69.424C0,324.516,7.771,316.746,17.356,316.746z"
		/>
	<circle style="fill:#FF5364;" cx="52.068" cy="368.814" r="17.356"/>
	<g>
		<path style="fill:#F0C419;" d="M121.492,377.492h-17.356c-4.793,0-8.678-3.885-8.678-8.678c0-4.793,3.885-8.678,8.678-8.678
			h17.356c4.793,0,8.678,3.885,8.678,8.678C130.169,373.606,126.284,377.492,121.492,377.492z"/>
		<path style="fill:#F0C419;" d="M173.559,377.492h-17.356c-4.793,0-8.678-3.885-8.678-8.678c0-4.793,3.885-8.678,8.678-8.678
			h17.356c4.793,0,8.678,3.885,8.678,8.678C182.237,373.606,178.352,377.492,173.559,377.492z"/>
	</g>
	<polygon style="fill:#35495E;" points="364.475,162.972 364.475,99.797 52.068,99.797 52.068,169.22 	"/>
	<path style="fill:#95A5A5;" d="M17.356,160.542h381.831c9.585,0,17.356,7.771,17.356,17.356v69.424
		c0,9.585-7.771,17.356-17.356,17.356H17.356C7.771,264.678,0,256.907,0,247.322v-69.424C0,168.313,7.771,160.542,17.356,160.542z"
		/>
	<circle style="fill:#FF5364;" cx="52.068" cy="212.61" r="17.356"/>
	<g>
		<path style="fill:#F0C419;" d="M121.492,221.288h-17.356c-4.793,0-8.678-3.885-8.678-8.678s3.885-8.678,8.678-8.678h17.356
			c4.793,0,8.678,3.885,8.678,8.678S126.284,221.288,121.492,221.288z"/>
		<path style="fill:#F0C419;" d="M173.559,221.288h-17.356c-4.793,0-8.678-3.885-8.678-8.678s3.885-8.678,8.678-8.678h17.356
			c4.793,0,8.678,3.885,8.678,8.678S178.352,221.288,173.559,221.288z"/>
	</g>
	<path style="fill:#95A5A5;" d="M17.356,4.339h381.831c9.585,0,17.356,7.771,17.356,17.356v69.424
		c0,9.585-7.771,17.356-17.356,17.356H17.356C7.771,108.475,0,100.704,0,91.119V21.695C0,12.109,7.771,4.339,17.356,4.339z"/>
	<circle style="fill:#FF5364;" cx="52.068" cy="56.407" r="17.356"/>
	<g>
		<path style="fill:#F0C419;" d="M121.492,65.085h-17.356c-4.793,0-8.678-3.885-8.678-8.678s3.885-8.678,8.678-8.678h17.356
			c4.793,0,8.678,3.885,8.678,8.678S126.284,65.085,121.492,65.085z"/>
		<path style="fill:#F0C419;" d="M173.559,65.085h-17.356c-4.793,0-8.678-3.885-8.678-8.678s3.885-8.678,8.678-8.678h17.356
			c4.793,0,8.678,3.885,8.678,8.678S178.352,65.085,173.559,65.085z"/>
	</g>
	<g>
		<path style="fill:#B0D3F0;" d="M407.864,507.661H8.678c-4.793,0-8.678-3.885-8.678-8.678v-17.356c0-4.793,3.885-8.678,8.678-8.678
			h399.186V507.661z"/>
		<path style="fill:#B0D3F0;" d="M477.288,334.102H303.729c-4.793,0-8.678-3.885-8.678-8.678v-78.102
			c0-52.72,42.738-95.458,95.458-95.458s95.458,42.738,95.458,95.458v78.102C485.966,330.216,482.081,334.102,477.288,334.102z
			 M312.407,316.746H468.61v-69.424c0-43.134-34.967-78.102-78.102-78.102s-78.102,34.967-78.102,78.102V316.746z"/>
	</g>
	<path style="fill:#F0C419;" d="M286.373,316.746h208.271c4.793,0,8.678,3.885,8.678,8.678v130.169
		c0,28.756-23.312,52.068-52.068,52.068H329.763c-28.756,0-52.068-23.312-52.068-52.068V325.424
		C277.695,320.631,281.58,316.746,286.373,316.746z"/>
	<g>
		<path style="fill:#E57E25;" d="M390.508,420.881c-14.378,0-26.034-11.656-26.034-26.034c0-14.378,11.656-26.034,26.034-26.034
			s26.034,11.656,26.034,26.034C416.542,409.226,404.887,420.881,390.508,420.881z M390.508,386.169
			c-4.793,0-8.678,3.885-8.678,8.678c0,4.793,3.885,8.678,8.678,8.678c4.793,0,8.678-3.885,8.678-8.678
			C399.186,390.055,395.301,386.169,390.508,386.169z"/>
		<path style="fill:#E57E25;" d="M390.508,446.915c-4.793,0-8.678-3.885-8.678-8.678v-26.034c0-4.793,3.885-8.678,8.678-8.678
			c4.793,0,8.678,3.885,8.678,8.678v26.034C399.186,443.03,395.301,446.915,390.508,446.915z"/>
		<path style="fill:#E57E25;" d="M312.407,360.136h-34.712c-4.793,0-8.678-3.885-8.678-8.678c0-4.793,3.885-8.678,8.678-8.678
			h34.712c4.793,0,8.678,3.885,8.678,8.678C321.085,356.25,317.199,360.136,312.407,360.136z"/>
		<path style="fill:#E57E25;" d="M312.407,394.847h-34.712c-4.793,0-8.678-3.885-8.678-8.678s3.885-8.678,8.678-8.678h34.712
			c4.793,0,8.678,3.885,8.678,8.678S317.199,394.847,312.407,394.847z"/>
		<path style="fill:#E57E25;" d="M312.407,429.559h-34.712c-4.793,0-8.678-3.885-8.678-8.678c0-4.793,3.885-8.678,8.678-8.678
			h34.712c4.793,0,8.678,3.885,8.678,8.678C321.085,425.674,317.199,429.559,312.407,429.559z"/>
		<path style="fill:#E57E25;" d="M312.407,464.271h-34.712c-4.793,0-8.678-3.885-8.678-8.678c0-4.793,3.885-8.678,8.678-8.678
			h34.712c4.793,0,8.678,3.885,8.678,8.678C321.085,460.386,317.199,464.271,312.407,464.271z"/>
		<path style="fill:#E57E25;" d="M503.322,360.136H468.61c-4.793,0-8.678-3.885-8.678-8.678c0-4.793,3.885-8.678,8.678-8.678h34.712
			c4.793,0,8.678,3.885,8.678,8.678C512,356.25,508.115,360.136,503.322,360.136z"/>
		<path style="fill:#E57E25;" d="M503.322,394.847H468.61c-4.793,0-8.678-3.885-8.678-8.678s3.885-8.678,8.678-8.678h34.712
			c4.793,0,8.678,3.885,8.678,8.678S508.115,394.847,503.322,394.847z"/>
		<path style="fill:#E57E25;" d="M503.322,429.559H468.61c-4.793,0-8.678-3.885-8.678-8.678c0-4.793,3.885-8.678,8.678-8.678h34.712
			c4.793,0,8.678,3.885,8.678,8.678C512,425.674,508.115,429.559,503.322,429.559z"/>
		<path style="fill:#E57E25;" d="M503.322,464.271H468.61c-4.793,0-8.678-3.885-8.678-8.678c0-4.793,3.885-8.678,8.678-8.678h34.712
			c4.793,0,8.678,3.885,8.678,8.678C512,460.386,508.115,464.271,503.322,464.271z"/>
	</g>
</g>
<g>
</g>
<g>
</g>
<g>
</g>
<g>
</g>
<g>
</g>
<g>
</g>
<g>
</g>
<g>
</g>
<g>
</g>
<g>
</g>
<g>
</g>
<g>
</g>
<g>
</g>
<g>
</g>
<g>
</g>
</svg>
