<?xml version="1.0" encoding="iso-8859-1"?>
<!-- Generator: Adobe Illustrator 19.0.0, SVG Export Plug-In . SVG Version: 6.00 Build 0)  -->
<svg version="1.1" id="Capa_1" xmlns="http://www.w3.org/2000/svg" xmlns:xlink="http://www.w3.org/1999/xlink" x="0px" y="0px"
	 viewBox="0 0 512 512" style="enable-background:new 0 0 512 512;" xml:space="preserve">
<g>
	<path style="fill:#7ED09E;" d="M303.228,476.69H44.138c-9.739-0.029-17.626-7.917-17.655-17.655V17.655
		C26.512,7.917,34.399,0.029,44.138,0h353.103c9.739,0.029,17.626,7.917,17.655,17.655v379.586L303.228,476.69z"/>
	<path style="fill:#95A5A5;" d="M450.207,370.759H326.621c-4.875,0-8.828-3.952-8.828-8.828v-35.31
		c0-39.003,31.618-70.621,70.621-70.621s70.621,31.618,70.621,70.621v35.31C459.034,366.806,455.082,370.759,450.207,370.759z
		 M335.448,353.103h105.931v-26.483c0-29.252-23.713-52.966-52.966-52.966s-52.966,23.713-52.966,52.966V353.103z"/>
	<circle style="fill:#F0C419;" cx="220.69" cy="158.897" r="114.759"/>
	<path style="fill:#F29C1F;" d="M308.966,353.103h158.897c4.875,0,8.828,3.952,8.828,8.828v97.103
		c0,29.252-23.713,52.966-52.966,52.966h-70.621c-29.252,0-52.966-23.713-52.966-52.966v-97.103
		C300.138,357.056,304.09,353.103,308.966,353.103z"/>
	<g>
		<path style="fill:#D25627;" d="M388.414,441.379c-14.626,0-26.483-11.857-26.483-26.483s11.857-26.483,26.483-26.483
			s26.483,11.857,26.483,26.483S403.04,441.379,388.414,441.379z M388.414,406.069c-4.875,0-8.828,3.952-8.828,8.828
			s3.952,8.828,8.828,8.828s8.828-3.952,8.828-8.828S393.289,406.069,388.414,406.069z"/>
		<path style="fill:#D25627;" d="M388.414,467.862c-4.875,0-8.828-3.952-8.828-8.828v-26.483c0-4.875,3.952-8.828,8.828-8.828
			s8.828,3.952,8.828,8.828v26.483C397.241,463.91,393.289,467.862,388.414,467.862z"/>
		<path style="fill:#D25627;" d="M326.621,397.241h-26.483c-4.875,0-8.828-3.952-8.828-8.828s3.952-8.828,8.828-8.828h26.483
			c4.875,0,8.828,3.952,8.828,8.828S331.496,397.241,326.621,397.241z"/>
		<path style="fill:#D25627;" d="M326.621,432.552h-26.483c-4.875,0-8.828-3.952-8.828-8.828c0-4.875,3.952-8.828,8.828-8.828
			h26.483c4.875,0,8.828,3.952,8.828,8.828C335.448,428.599,331.496,432.552,326.621,432.552z"/>
		<path style="fill:#D25627;" d="M326.621,467.862h-26.483c-4.875,0-8.828-3.952-8.828-8.828s3.952-8.828,8.828-8.828h26.483
			c4.875,0,8.828,3.952,8.828,8.828S331.496,467.862,326.621,467.862z"/>
		<path style="fill:#D25627;" d="M476.69,397.241h-26.483c-4.875,0-8.828-3.952-8.828-8.828s3.952-8.828,8.828-8.828h26.483
			c4.875,0,8.828,3.952,8.828,8.828S481.565,397.241,476.69,397.241z"/>
		<path style="fill:#D25627;" d="M476.69,432.552h-26.483c-4.875,0-8.828-3.952-8.828-8.828c0-4.875,3.952-8.828,8.828-8.828h26.483
			c4.875,0,8.828,3.952,8.828,8.828C485.517,428.599,481.565,432.552,476.69,432.552z"/>
		<path style="fill:#D25627;" d="M476.69,467.862h-26.483c-4.875,0-8.828-3.952-8.828-8.828s3.952-8.828,8.828-8.828h26.483
			c4.875,0,8.828,3.952,8.828,8.828S481.565,467.862,476.69,467.862z"/>
	</g>
	<g>
		<path style="fill:#2C3E50;" d="M273.655,326.621H167.724c-4.875,0-8.828-3.952-8.828-8.828s3.952-8.828,8.828-8.828h105.931
			c4.875,0,8.828,3.952,8.828,8.828S278.531,326.621,273.655,326.621z"/>
		<path style="fill:#2C3E50;" d="M264.828,414.897h-97.103c-4.875,0-8.828-3.952-8.828-8.828s3.952-8.828,8.828-8.828h97.103
			c4.875,0,8.828,3.952,8.828,8.828S269.703,414.897,264.828,414.897z"/>
		<path style="fill:#2C3E50;" d="M264.828,370.759H88.276c-4.875,0-8.828-3.952-8.828-8.828s3.952-8.828,8.828-8.828h176.552
			c4.875,0,8.828,3.952,8.828,8.828S269.703,370.759,264.828,370.759z"/>
	</g>
	<path style="fill:#46B29D;" d="M285.308,253.705c-39.1,26.67-90.562,26.6-129.589-0.177c1.885-5.812,5.93-10.679,11.299-13.594
		l28.337-13.948c2.825-1.401,4.63-4.262,4.679-7.415v-3.354c-0.031-1.587-0.953-3.021-2.383-3.708
		c-12.729-6.324-22.052-17.905-25.512-31.691c-5.882-1.988-9.712-7.66-9.357-13.859v-7.327c-0.357-5.259,2.316-10.261,6.886-12.888
		c0.702-7.562,2.547-14.973,5.473-21.981c3.223-6.911,4.27-14.638,3.001-22.157c-0.495-2.42-0.849-4.866-1.059-7.327
		c-0.076-0.64,0.283-1.253,0.879-1.5c0.596-0.247,1.283-0.067,1.681,0.44c2.451,2.811,5.272,5.275,8.386,7.327
		c8.46,5.343,18.475,7.676,28.425,6.621c1.236-0.088,2.56-0.088,3.884-0.088c29.219,0,47.492,11.123,50.67,38.665
		c4.761,2.519,7.697,7.504,7.592,12.888v7.327c0.095,6.342-4.004,11.986-10.063,13.859c-3.179,13.711-12.26,25.312-24.806,31.691
		c-1.431,0.687-2.353,2.121-2.383,3.708v3.708c0.015,3.091,1.751,5.916,4.502,7.327l27.101,13.859
		C278.635,242.922,283.049,247.777,285.308,253.705z"/>
</g>
<g>
</g>
<g>
</g>
<g>
</g>
<g>
</g>
<g>
</g>
<g>
</g>
<g>
</g>
<g>
</g>
<g>
</g>
<g>
</g>
<g>
</g>
<g>
</g>
<g>
</g>
<g>
</g>
<g>
</g>
</svg>
