<?xml version="1.0" encoding="iso-8859-1"?>
<!-- Generator: Adobe Illustrator 19.0.0, SVG Export Plug-In . SVG Version: 6.00 Build 0)  -->
<svg version="1.1" id="Capa_1" xmlns="http://www.w3.org/2000/svg" xmlns:xlink="http://www.w3.org/1999/xlink" x="0px" y="0px"
	 viewBox="0 0 512.076 512.076" style="enable-background:new 0 0 512.076 512.076;" xml:space="preserve">
<g transform="translate(-1)">
	<rect x="186.417" y="389.512" style="fill:#95A5A5;" width="141.241" height="88.276"/>
	<path style="fill:#3D324C;" d="M513.038,55.379v281.212h-512V55.379c-0.919-20.447,14.867-37.788,35.31-38.788h441.379
		C498.171,17.591,513.957,34.933,513.038,55.379z"/>
	<g>
		<path style="fill:#BDC3C7;" d="M513.038,327.763v35.31c0,19.501-15.809,35.31-35.31,35.31H36.349
			c-19.501,0-35.31-15.809-35.31-35.31v-35.31H513.038z"/>
		<path style="fill:#BDC3C7;" d="M133.452,460.177h247.172c9.751,0,17.655,7.905,17.655,17.655v17.655H115.797v-17.655
			C115.797,468.082,123.701,460.177,133.452,460.177z"/>
	</g>
	<circle style="fill:#F0C419;" cx="115.797" cy="124.685" r="70.621"/>
	<circle style="fill:#F3D55B;" cx="115.797" cy="115.857" r="26.483"/>
	<g>
		<path style="fill:#CC66A1;" d="M257.038,239.488H36.349c-4.875,0-8.828-3.952-8.828-8.828s3.952-8.828,8.828-8.828h220.69
			c4.875,0,8.828,3.952,8.828,8.828S261.914,239.488,257.038,239.488z"/>
		<path style="fill:#CC66A1;" d="M477.728,89.419h-256c-4.875,0-8.828-3.952-8.828-8.828s3.952-8.828,8.828-8.828h256
			c4.875,0,8.828,3.952,8.828,8.828S482.603,89.419,477.728,89.419z"/>
		<path style="fill:#CC66A1;" d="M477.728,124.729h-256c-4.875,0-8.828-3.952-8.828-8.828c0-4.875,3.952-8.828,8.828-8.828h256
			c4.875,0,8.828,3.952,8.828,8.828C486.555,120.777,482.603,124.729,477.728,124.729z"/>
		<path style="fill:#CC66A1;" d="M310.004,160.039h-88.276c-4.875,0-8.828-3.952-8.828-8.828s3.952-8.828,8.828-8.828h88.276
			c4.875,0,8.828,3.952,8.828,8.828S314.879,160.039,310.004,160.039z"/>
	</g>
	<g>
		<path style="fill:#F3D55B;" d="M45.176,265.97h70.621c4.875,0,8.828,3.952,8.828,8.828v52.966H36.349v-52.966
			C36.349,269.923,40.301,265.97,45.176,265.97z"/>
		<path style="fill:#F3D55B;" d="M168.762,265.97h70.621c4.875,0,8.828,3.952,8.828,8.828v52.966h-88.276v-52.966
			C159.935,269.923,163.887,265.97,168.762,265.97z"/>
		<path style="fill:#F3D55B;" d="M292.349,265.97h70.621c4.875,0,8.828,3.952,8.828,8.828v52.966h-88.276v-52.966
			C283.521,269.923,287.473,265.97,292.349,265.97z"/>
	</g>
	<path style="fill:#E57E25;" d="M159.935,177.694c0.015,0.737-0.015,1.474-0.088,2.207c-25.754,20.599-62.345,20.599-88.099,0
		c-0.073-0.733-0.103-1.47-0.088-2.207c0.051-18.041,11.003-34.261,27.719-41.048h0.088c9.544,7.65,23.118,7.65,32.662,0h0.088
		C148.931,143.434,159.884,159.654,159.935,177.694z"/>
	<g>
		<path style="fill:#CC66A1;" d="M477.728,158.936h-26.483c-4.875,0-8.828-3.952-8.828-8.828c0-4.875,3.952-8.828,8.828-8.828
			h26.483c4.875,0,8.828,3.952,8.828,8.828C486.555,154.984,482.603,158.936,477.728,158.936z"/>
		<path style="fill:#CC66A1;" d="M477.728,238.384h-26.483c-4.875,0-8.828-3.952-8.828-8.828s3.952-8.828,8.828-8.828h26.483
			c4.875,0,8.828,3.952,8.828,8.828S482.603,238.384,477.728,238.384z"/>
	</g>
	<path style="fill:#F29C1F;" d="M451.245,302.561l0-264.828c0.012-5.46-2.416-10.64-6.621-14.124L420.613,4.012
		c-3.59-2.964-8.22-4.363-12.851-3.882c-4.631,0.481-8.874,2.802-11.778,6.442L367.03,42.059c-2.627,3.217-4.061,7.243-4.061,11.396
		v15.378c0,1.168,0.464,2.289,1.289,3.116l22.069,22.069c0.83,0.828,1.297,1.952,1.297,3.125c0,1.173-0.467,2.297-1.297,3.125
		l-20.233,20.233c-0.83,0.828-1.297,1.952-1.297,3.125s0.467,2.297,1.297,3.125l20.233,20.233c0.83,0.828,1.297,1.952,1.297,3.125
		c0,1.173-0.467,2.297-1.297,3.125l-20.233,20.233c-0.83,0.828-1.297,1.952-1.297,3.125c0,1.173,0.467,2.297,1.297,3.125
		l20.233,20.233c0.83,0.828,1.297,1.952,1.297,3.125c0,1.173-0.467,2.297-1.297,3.125l-22.069,22.069
		c-0.825,0.827-1.289,1.948-1.289,3.116v67.381"/>
	<g>
		<path style="fill:#F0C419;" d="M415.935,220.729c4.875,0,8.828,3.952,8.828,8.828v26.483c0,4.875-3.952,8.828-8.828,8.828
			s-8.828-3.952-8.828-8.828v-26.483C407.107,224.681,411.059,220.729,415.935,220.729z"/>
		<path style="fill:#F0C419;" d="M415.935,158.936c4.875,0,8.828,3.952,8.828,8.828v17.655c0,4.875-3.952,8.828-8.828,8.828
			s-8.828-3.952-8.828-8.828v-17.655C407.107,162.888,411.059,158.936,415.935,158.936z"/>
		<path style="fill:#F0C419;" d="M415.935,105.97c4.875,0,8.828,3.952,8.828,8.828v17.655c0,4.875-3.952,8.828-8.828,8.828
			s-8.828-3.952-8.828-8.828v-17.655C407.107,109.923,411.059,105.97,415.935,105.97z"/>
		<path style="fill:#F0C419;" d="M415.935,44.177c4.875,0,8.828,3.952,8.828,8.828V70.66c0,4.875-3.952,8.828-8.828,8.828
			s-8.828-3.952-8.828-8.828V53.005C407.107,48.129,411.059,44.177,415.935,44.177z"/>
	</g>
	<path id="SVGCleanerId_0" style="fill:#F0C419;" d="M402.693,512.039c60.942,0,110.345-49.403,110.345-110.345
		S463.635,291.35,402.693,291.35s-110.345,49.403-110.345,110.345S341.752,512.039,402.693,512.039z M402.693,414.936
		c17.064,0,30.897,13.833,30.897,30.897c0,17.064-13.833,30.897-30.897,30.897c-17.064,0-30.897-13.833-30.897-30.897
		C371.797,428.769,385.63,414.936,402.693,414.936z"/>
	<g>
		<path id="SVGCleanerId_0_1_" style="fill:#F0C419;" d="M402.693,512.039c60.942,0,110.345-49.403,110.345-110.345
			S463.635,291.35,402.693,291.35s-110.345,49.403-110.345,110.345S341.752,512.039,402.693,512.039z M402.693,414.936
			c17.064,0,30.897,13.833,30.897,30.897c0,17.064-13.833,30.897-30.897,30.897c-17.064,0-30.897-13.833-30.897-30.897
			C371.797,428.769,385.63,414.936,402.693,414.936z"/>
	</g>
</g>
<g>
</g>
<g>
</g>
<g>
</g>
<g>
</g>
<g>
</g>
<g>
</g>
<g>
</g>
<g>
</g>
<g>
</g>
<g>
</g>
<g>
</g>
<g>
</g>
<g>
</g>
<g>
</g>
<g>
</g>
</svg>
