<?xml version="1.0" encoding="iso-8859-1"?>
<!-- Generator: Adobe Illustrator 19.0.0, SVG Export Plug-In . SVG Version: 6.00 Build 0)  -->
<svg version="1.1" id="Capa_1" xmlns="http://www.w3.org/2000/svg" xmlns:xlink="http://www.w3.org/1999/xlink" x="0px" y="0px"
	 viewBox="0 0 511.941 511.941" style="enable-background:new 0 0 511.941 511.941;" xml:space="preserve">
<g>
	<path style="fill:#FF5364;" d="M468.609,12.988v95.111c0,0,0,3.298-0.521,9.025c-2.864,28.637-19.873,118.975-120.971,177.031
		C246.019,236.098,229.011,145.76,226.147,117.123c-0.521-5.727-0.521-9.025-0.521-9.025V12.988c0-4.793,3.885-8.678,8.678-8.678
		h225.627C464.724,4.31,468.609,8.195,468.609,12.988z"/>
	<g>
		<path style="fill:#F0C419;" d="M355.796,4.31v234.305c0,4.793-3.885,8.678-8.678,8.678c-4.793,0-8.678-3.885-8.678-8.678V4.31
			H355.796z"/>
		<path style="fill:#F0C419;" d="M468.609,99.767v8.331c0,0,0,3.298-0.521,9.025H226.147c-0.521-5.727-0.521-9.025-0.521-9.025
			v-8.331H468.609z"/>
	</g>
	<path style="fill:#FDD7AD;" d="M279.976,403.496c10.192-10.196,12.139-26.02,4.721-38.383l-0.772-1.284
		c-7.834-13.068-21.949-21.069-37.185-21.079h-45.412c-17.981-0.001-35.425-6.122-49.464-17.356
		c-14.04-11.233-31.484-17.354-49.464-17.356H78.101v190.915h219.553c11.14,0.001,22.065-3.065,31.579-8.86l162.677-99.007
		c5.729-3.487,9.719-9.231,10.986-15.817c1.268-6.586-0.305-13.4-4.33-18.765v-0.043c-6.138-8.189-16.83-11.528-26.537-8.287
		L311.356,401.76c-3.542,1.164-7.249,1.75-10.978,1.736h-77.13c-15.422,0-30.498,4.565-43.329,13.121l-6.361,4.235"/>
	<g>
		<path style="fill:#F09372;" d="M297.653,507.632H78.101c-4.793,0-8.678-3.885-8.678-8.678c0-4.793,3.885-8.678,8.678-8.678
			h219.553c9.551,0.004,18.919-2.624,27.075-7.593l162.668-99.016c3.638-2.213,6.173-5.86,6.978-10.041
			c0.805-4.182-0.194-8.509-2.751-11.914c-3.892-5.23-10.702-7.372-16.887-5.311l-160.594,53.552
			c-4.438,1.478-9.086,2.228-13.763,2.222h-77.13c-13.71-0.013-27.114,4.046-38.513,11.663l-6.361,4.235
			c-3.984,2.556-9.282,1.447-11.907-2.492c-2.625-3.939-1.609-9.255,2.283-11.949l6.361-4.235
			c14.246-9.523,31.001-14.598,48.137-14.579h77.13c2.799,0,5.58-0.451,8.235-1.336l160.629-53.543
			c15.671-5.19,32.743,2.2,39.683,17.178c6.941,14.978,1.543,32.78-12.547,41.381l-162.625,99.007
			C322.878,504.131,310.388,507.634,297.653,507.632z"/>
		<path style="fill:#F09372;" d="M279.985,412.174c-3.507-0.001-6.669-2.112-8.013-5.352c-1.344-3.239-0.607-6.969,1.869-9.453
			c7.395-7.362,8.826-18.814,3.471-27.769l-0.772-1.276c-6.293-10.458-17.595-16.866-29.8-16.896h-45.412
			c-19.95-0.026-39.302-6.815-54.897-19.256c-12.508-9.982-28.029-15.43-44.032-15.455H78.101c-4.793,0-8.678-3.885-8.678-8.678
			c0-4.793,3.885-8.678,8.678-8.678h24.298c19.95,0.024,39.303,6.812,54.897,19.256c12.508,9.982,28.029,15.43,44.032,15.455h45.394
			c18.276,0.049,35.201,9.637,44.639,25.288l0.772,1.276c9.492,15.772,7.007,35.984-6.022,48.987
			C284.488,411.251,282.285,412.169,279.985,412.174z"/>
	</g>
	<path style="fill:#4482C3;" d="M34.711,290.682h43.39c9.585,0,17.356,7.771,17.356,17.356v182.237
		c0,9.585-7.771,17.356-17.356,17.356h-43.39c-9.585,0-17.356-7.771-17.356-17.356V308.038
		C17.355,298.453,25.126,290.682,34.711,290.682z"/>
	<path style="fill:#3B97D3;" d="M17.356,290.682h43.39c9.585,0,17.356,7.771,17.356,17.356v182.237
		c0,9.585-7.771,17.356-17.356,17.356h-43.39C7.771,507.632,0,499.861,0,490.276V308.038C0,298.453,7.771,290.682,17.356,290.682z"
		/>
</g>
<g>
</g>
<g>
</g>
<g>
</g>
<g>
</g>
<g>
</g>
<g>
</g>
<g>
</g>
<g>
</g>
<g>
</g>
<g>
</g>
<g>
</g>
<g>
</g>
<g>
</g>
<g>
</g>
<g>
</g>
</svg>
