<?xml version="1.0" encoding="iso-8859-1"?>
<!-- Generator: Adobe Illustrator 19.0.0, SVG Export Plug-In . SVG Version: 6.00 Build 0)  -->
<svg version="1.1" id="Capa_1" xmlns="http://www.w3.org/2000/svg" xmlns:xlink="http://www.w3.org/1999/xlink" x="0px" y="0px"
	 viewBox="0 0 512 512" style="enable-background:new 0 0 512 512;" xml:space="preserve">
<g>
	<path style="fill:#547580;" d="M203.917,452.149v0.088l21.01,49.081c2.816,6.467,9.189,10.658,16.243,10.681h29.661
		c7.054-0.023,13.427-4.214,16.243-10.681l21.01-49.081v-0.088l0.883-0.177l42.814,31.956c5.611,4.258,13.225,4.745,19.332,1.236
		L384,477.661l12.888-7.415c6.1-3.504,9.508-10.32,8.651-17.302l-6.268-53.142l0.53-0.53l53.142,6.268
		c6.982,0.857,13.798-2.551,17.302-8.651L477.661,384l7.503-12.888c3.509-6.107,3.022-13.722-1.236-19.332l-31.956-42.814
		l0.177-0.883h0.088l49.081-21.01c6.467-2.816,10.658-9.189,10.681-16.243V241.17c-0.023-7.054-4.214-13.427-10.681-16.243
		l-49.081-21.01h-0.088l-0.177-0.883l31.956-42.814c4.258-5.611,4.745-13.225,1.236-19.332L477.661,128l-7.415-12.888
		c-3.504-6.1-10.32-9.508-17.302-8.651l-53.142,6.268l-0.53-0.53l6.268-53.142c0.857-6.982-2.551-13.798-8.651-17.302L384,34.339
		l-12.888-7.503c-6.107-3.509-13.722-3.022-19.332,1.236l-42.814,31.956l-0.883-0.177v-0.088l-21.01-49.081
		C284.257,4.214,277.884,0.023,270.83,0H241.17c-7.054,0.023-13.427,4.214-16.243,10.681l-21.01,49.081v0.088l-0.883,0.177
		l-42.814-31.956c-5.611-4.258-13.225-4.745-19.332-1.236L128,34.339l-12.888,7.415c-6.1,3.504-9.508,10.32-8.651,17.302
		l6.268,53.142l-0.53,0.53l-53.142-6.268c-6.982-0.857-13.798,2.551-17.302,8.651L34.339,128l-7.503,12.888
		c-3.509,6.107-3.022,13.722,1.236,19.332l31.956,42.814l-0.177,0.883h-0.088l-49.081,21.01C4.214,227.743,0.023,234.116,0,241.17
		v29.661c0.023,7.054,4.214,13.427,10.681,16.243l49.081,21.01h0.088l0.177,0.883l-31.956,42.814
		c-4.258,5.611-4.745,13.225-1.236,19.332L34.339,384l7.415,12.888c3.504,6.1,10.32,9.508,17.302,8.651l53.142-6.268l0.53,0.53
		l-6.268,53.142c-0.857,6.982,2.551,13.798,8.651,17.302L128,477.661l12.888,7.503c6.107,3.509,13.722,3.022,19.332-1.236
		l42.814-31.956L203.917,452.149z"/>
	<circle style="fill:#95A5A5;" cx="256" cy="256" r="203.034"/>
	<circle style="fill:#2FA8CC;" cx="256" cy="256" r="167.724"/>
	<path style="fill:#FFFFFF;" d="M317.793,256H194.207c-4.875,0-8.828-3.952-8.828-8.828v-44.138
		c0-39.003,31.618-70.621,70.621-70.621s70.621,31.618,70.621,70.621v44.138c0,2.341-0.93,4.587-2.586,6.242
		C322.38,255.07,320.134,256,317.793,256z M203.034,238.345h105.931v-35.31c0-29.252-23.713-52.966-52.966-52.966
		s-52.966,23.713-52.966,52.966V238.345z"/>
	<path style="fill:#F0C419;" d="M185.379,238.345h141.241c4.875,0,8.828,3.952,8.828,8.828v70.621
		c0,29.252-23.713,52.966-52.966,52.966h-52.966c-29.252,0-52.966-23.713-52.966-52.966v-70.621
		C176.552,242.297,180.504,238.345,185.379,238.345z"/>
	<g>
		<path style="fill:#E57E25;" d="M256,317.793c-14.626,0-26.483-11.857-26.483-26.483s11.857-26.483,26.483-26.483
			c14.626,0,26.483,11.857,26.483,26.483S270.626,317.793,256,317.793z M256,282.483c-4.875,0-8.828,3.952-8.828,8.828
			s3.952,8.828,8.828,8.828s8.828-3.952,8.828-8.828S260.875,282.483,256,282.483z"/>
		<path style="fill:#E57E25;" d="M256,344.276c-4.875,0-8.828-3.952-8.828-8.828v-26.483c0-4.875,3.952-8.828,8.828-8.828
			s8.828,3.952,8.828,8.828v26.483C264.828,340.324,260.875,344.276,256,344.276z"/>
		<path style="fill:#E57E25;" d="M194.207,282.483h-17.655c-4.875,0-8.828-3.952-8.828-8.828s3.952-8.828,8.828-8.828h17.655
			c4.875,0,8.828,3.952,8.828,8.828S199.082,282.483,194.207,282.483z"/>
		<path style="fill:#E57E25;" d="M194.207,317.793h-17.655c-4.875,0-8.828-3.952-8.828-8.828s3.952-8.828,8.828-8.828h17.655
			c4.875,0,8.828,3.952,8.828,8.828S199.082,317.793,194.207,317.793z"/>
		<path style="fill:#E57E25;" d="M335.448,282.483h-17.655c-4.875,0-8.828-3.952-8.828-8.828s3.952-8.828,8.828-8.828h17.655
			c4.875,0,8.828,3.952,8.828,8.828S340.324,282.483,335.448,282.483z"/>
		<path style="fill:#E57E25;" d="M335.448,317.793h-17.655c-4.875,0-8.828-3.952-8.828-8.828s3.952-8.828,8.828-8.828h17.655
			c4.875,0,8.828,3.952,8.828,8.828S340.324,317.793,335.448,317.793z"/>
	</g>
</g>
<g>
</g>
<g>
</g>
<g>
</g>
<g>
</g>
<g>
</g>
<g>
</g>
<g>
</g>
<g>
</g>
<g>
</g>
<g>
</g>
<g>
</g>
<g>
</g>
<g>
</g>
<g>
</g>
<g>
</g>
</svg>
