<?xml version="1.0" encoding="iso-8859-1"?>
<!-- Generator: Adobe Illustrator 19.0.0, SVG Export Plug-In . SVG Version: 6.00 Build 0)  -->
<svg version="1.1" id="Capa_1" xmlns="http://www.w3.org/2000/svg" xmlns:xlink="http://www.w3.org/1999/xlink" x="0px" y="0px"
	 viewBox="0 0 512 512" style="enable-background:new 0 0 512 512;" xml:space="preserve">
<g>
	<g>
		<path style="fill:#285680;" d="M47.729,468.61h69.424v33.688c0,5.358-4.344,9.702-9.702,9.702h-50.02
			c-2.573,0-5.041-1.022-6.86-2.842s-2.842-4.287-2.842-6.86V468.61z"/>
		<path style="fill:#285680;" d="M394.847,468.61h69.424v33.688c0,5.358-4.344,9.702-9.702,9.702h-50.02
			c-5.358,0-9.702-4.344-9.702-9.702V468.61z"/>
	</g>
	<path style="fill:#4482C3;" d="M21.695,269.017h468.61c9.585,0,17.356,7.771,17.356,17.356v173.559
		c0,9.585-7.771,17.356-17.356,17.356H21.695c-9.585,0-17.356-7.771-17.356-17.356V286.373
		C4.339,276.787,12.109,269.017,21.695,269.017z"/>
	<path style="fill:#B0D3F0;" d="M160.542,303.729h303.729c4.793,0,8.678,3.885,8.678,8.678v121.492c0,4.793-3.885,8.678-8.678,8.678
		H47.729c-4.793,0-8.678-3.885-8.678-8.678V312.407c0-4.793,3.885-8.678,8.678-8.678H160.542z"/>
	<g>
		<path style="fill:#285680;" d="M316.746,347.119h-26.034c-4.793,0-8.678-3.885-8.678-8.678s3.885-8.678,8.678-8.678h26.034
			c4.793,0,8.678,3.885,8.678,8.678S321.538,347.119,316.746,347.119z"/>
		<path style="fill:#285680;" d="M316.746,381.831h-26.034c-4.793,0-8.678-3.885-8.678-8.678c0-4.793,3.885-8.678,8.678-8.678
			h26.034c4.793,0,8.678,3.885,8.678,8.678C325.424,377.945,321.538,381.831,316.746,381.831z"/>
		<path style="fill:#285680;" d="M316.746,416.542h-26.034c-4.793,0-8.678-3.885-8.678-8.678s3.885-8.678,8.678-8.678h26.034
			c4.793,0,8.678,3.885,8.678,8.678S321.538,416.542,316.746,416.542z"/>
		<path style="fill:#285680;" d="M377.492,347.119h-26.034c-4.793,0-8.678-3.885-8.678-8.678s3.885-8.678,8.678-8.678h26.034
			c4.793,0,8.678,3.885,8.678,8.678S382.284,347.119,377.492,347.119z"/>
		<path style="fill:#285680;" d="M377.492,381.831h-26.034c-4.793,0-8.678-3.885-8.678-8.678c0-4.793,3.885-8.678,8.678-8.678
			h26.034c4.793,0,8.678,3.885,8.678,8.678C386.169,377.945,382.284,381.831,377.492,381.831z"/>
		<path style="fill:#285680;" d="M377.492,416.542h-26.034c-4.793,0-8.678-3.885-8.678-8.678s3.885-8.678,8.678-8.678h26.034
			c4.793,0,8.678,3.885,8.678,8.678S382.284,416.542,377.492,416.542z"/>
		<path style="fill:#285680;" d="M438.237,347.119h-26.034c-4.793,0-8.678-3.885-8.678-8.678s3.885-8.678,8.678-8.678h26.034
			c4.793,0,8.678,3.885,8.678,8.678S443.03,347.119,438.237,347.119z"/>
		<path style="fill:#285680;" d="M438.237,381.831h-26.034c-4.793,0-8.678-3.885-8.678-8.678c0-4.793,3.885-8.678,8.678-8.678
			h26.034c4.793,0,8.678,3.885,8.678,8.678C446.915,377.945,443.03,381.831,438.237,381.831z"/>
		<path style="fill:#285680;" d="M438.237,416.542h-26.034c-4.793,0-8.678-3.885-8.678-8.678s3.885-8.678,8.678-8.678h26.034
			c4.793,0,8.678,3.885,8.678,8.678S443.03,416.542,438.237,416.542z"/>
	</g>
	<circle style="fill:#A5A5A4;" cx="125.831" cy="373.153" r="34.712"/>
	<path style="fill:#5E5F62;" d="M177.898,364.475h-9.546c-1.118-5.433-3.275-10.598-6.352-15.212l6.795-6.795
		c2.256-2.179,3.161-5.405,2.366-8.439c-0.794-3.034-3.164-5.404-6.198-6.198c-3.034-0.794-6.261,0.111-8.439,2.366l-6.795,6.795
		c-4.616-3.082-9.785-5.242-15.221-6.361v-9.546c0-4.793-3.885-8.678-8.678-8.678c-4.793,0-8.678,3.885-8.678,8.678v9.546
		c-5.433,1.118-10.598,3.275-15.212,6.352l-6.795-6.795c-3.405-3.289-8.818-3.242-12.165,0.106s-3.394,8.76-0.106,12.165
		l6.795,6.795c-3.082,4.616-5.242,9.785-6.361,15.221h-9.546c-4.793,0-8.678,3.885-8.678,8.678c0,4.793,3.885,8.678,8.678,8.678
		h9.546c1.118,5.433,3.275,10.598,6.352,15.212l-6.795,6.795c-2.256,2.179-3.161,5.405-2.366,8.439
		c0.794,3.034,3.164,5.404,6.198,6.198c3.034,0.794,6.261-0.111,8.439-2.366l6.795-6.795c4.616,3.082,9.785,5.242,15.221,6.361
		v9.546c0,4.793,3.885,8.678,8.678,8.678c4.793,0,8.678-3.885,8.678-8.678v-9.546c5.433-1.118,10.598-3.275,15.212-6.352
		l6.795,6.795c2.179,2.256,5.405,3.161,8.439,2.366s5.404-3.164,6.198-6.198c0.794-3.034-0.111-6.261-2.366-8.439l-6.795-6.795
		c3.082-4.616,5.242-9.785,6.361-15.221h9.546c4.793,0,8.678-3.885,8.678-8.678C186.576,368.36,182.691,364.475,177.898,364.475z
		 M125.831,399.186c-14.378,0-26.034-11.656-26.034-26.034c0-14.378,11.656-26.034,26.034-26.034s26.034,11.656,26.034,26.034
		C151.864,387.531,140.209,399.186,125.831,399.186z"/>
	<circle style="fill:#F3D55B;" cx="256" cy="138.847" r="130.169"/>
	<path style="fill:#F0C419;" d="M256,277.695c-76.683,0-138.847-62.164-138.847-138.847S179.317,0,256,0
		s138.847,62.164,138.847,138.847C394.757,215.493,332.646,277.604,256,277.695z M256,17.356
		c-67.098,0-121.492,54.394-121.492,121.492S188.902,260.339,256,260.339s121.492-54.394,121.492-121.492
		C377.42,71.779,323.068,17.428,256,17.356z"/>
	<g>
		<path style="fill:#E57E25;" d="M299.39,190.915c-2.301,0-4.508-0.915-6.135-2.543l-43.39-43.39
			c-1.628-1.627-2.542-3.834-2.543-6.135V78.102c0-4.793,3.885-8.678,8.678-8.678c4.793,0,8.678,3.885,8.678,8.678v57.153
			l40.847,40.847c2.481,2.482,3.223,6.214,1.88,9.456C306.063,188.8,302.899,190.915,299.39,190.915z"/>
		<path style="fill:#E57E25;" d="M264.678,52.068h-17.356c-4.793,0-8.678-3.885-8.678-8.678s3.885-8.678,8.678-8.678h17.356
			c4.793,0,8.678,3.885,8.678,8.678S269.471,52.068,264.678,52.068z"/>
		<path style="fill:#E57E25;" d="M264.678,242.983h-17.356c-4.793,0-8.678-3.885-8.678-8.678s3.885-8.678,8.678-8.678h17.356
			c4.793,0,8.678,3.885,8.678,8.678S269.471,242.983,264.678,242.983z"/>
		<path style="fill:#E57E25;" d="M182.367,86.164c-3.509-0.001-6.673-2.115-8.016-5.357c-1.343-3.242-0.601-6.974,1.88-9.456
			l12.271-12.271c2.179-2.256,5.405-3.161,8.439-2.366c3.034,0.794,5.404,3.164,6.198,6.198s-0.111,6.261-2.366,8.439
			l-12.271,12.271C186.876,85.248,184.669,86.163,182.367,86.164z"/>
		<path style="fill:#E57E25;" d="M317.362,221.158c-3.509-0.001-6.673-2.115-8.016-5.357s-0.601-6.974,1.88-9.456l12.271-12.271
			c2.179-2.256,5.405-3.161,8.439-2.366s5.404,3.164,6.198,6.198c0.794,3.034-0.111,6.261-2.366,8.439l-12.271,12.271
			C321.874,220.249,319.665,221.164,317.362,221.158z"/>
		<path style="fill:#E57E25;" d="M160.542,164.881c-4.793,0-8.678-3.885-8.678-8.678v-17.356c0-4.793,3.885-8.678,8.678-8.678
			s8.678,3.885,8.678,8.678v17.356C169.22,160.996,165.335,164.881,160.542,164.881z"/>
		<path style="fill:#E57E25;" d="M351.458,156.203c-4.793,0-8.678-3.885-8.678-8.678v-17.356c0-4.793,3.885-8.678,8.678-8.678
			c4.793,0,8.678,3.885,8.678,8.678v17.356C360.136,152.318,356.25,156.203,351.458,156.203z"/>
		<path style="fill:#E57E25;" d="M194.638,221.158c-2.303,0.006-4.512-0.909-6.135-2.543l-12.271-12.271
			c-2.256-2.179-3.161-5.405-2.366-8.439c0.794-3.034,3.164-5.404,6.198-6.198c3.034-0.794,6.261,0.111,8.439,2.366l12.271,12.271
			c2.481,2.482,3.223,6.214,1.88,9.456S198.147,221.157,194.638,221.158z"/>
		<path style="fill:#E57E25;" d="M329.633,86.164c-2.301,0-4.508-0.915-6.135-2.543L311.227,71.35
			c-3.289-3.405-3.242-8.818,0.106-12.165c3.347-3.347,8.76-3.394,12.165-0.106l12.271,12.271c2.481,2.482,3.223,6.214,1.88,9.456
			C336.305,84.048,333.142,86.163,329.633,86.164z"/>
	</g>
</g>
<g>
</g>
<g>
</g>
<g>
</g>
<g>
</g>
<g>
</g>
<g>
</g>
<g>
</g>
<g>
</g>
<g>
</g>
<g>
</g>
<g>
</g>
<g>
</g>
<g>
</g>
<g>
</g>
<g>
</g>
</svg>
