<svg id="Capa_1" enable-background="new 0 0 512 512" height="512" viewBox="0 0 512 512" width="512" xmlns="http://www.w3.org/2000/svg"><circle cx="256" cy="256" fill="#ffce00" r="256"/><path d="m512 256c0-10.428-.624-20.71-1.835-30.811l-128.167-128.166-72.878-2.42-44.543 40.734-70.214-1.708 124.292 124.292-188.208 145.198 108.309 108.309c5.699.379 11.449.572 17.244.572 141.385 0 256-114.615 256-256z" fill="#ffa300"/><path d="m343.027 211.752-21.213-21.213 33.329-33.329c6.069-6.069 9.412-14.139 9.412-22.722s-3.343-16.653-9.412-22.722c-12.53-12.53-32.917-12.528-45.445 0l-24.664 24.664c-11.734 11.735-27.338 18.199-43.935 18.199-16.598 0-32.201-6.463-43.936-18.199l-2.801-2.799 21.211-21.216 2.802 2.801c6.07 6.071 14.14 9.413 22.724 9.413 8.583 0 16.652-3.342 22.722-9.412l24.664-24.664c24.226-24.226 63.646-24.226 87.871 0 11.735 11.736 18.199 27.339 18.199 43.936s-6.464 32.2-18.199 43.936z" fill="#fff"/><path d="m331.804 200.529 11.223 11.223 33.329-33.329c10.933-10.934 17.285-25.225 18.103-40.549z" fill="#f2f6fc"/><path d="m351.902 254.51 25.898-25.898-72.847-72.847-25.898 25.898c-51.911-24.328-113.769-16.588-154.525 24.168-52.846 52.846-50.197 141.175 5.916 197.288s144.442 58.762 197.288 5.916c40.756-40.756 48.496-102.613 24.168-154.525z" fill="#555a66"/><path d="m340.76 191.573-210.922 210.923c.205.207.403.418.609.624 56.113 56.113 144.442 58.762 197.288 5.916 40.756-40.756 48.495-102.614 24.168-154.525l25.898-25.898z" fill="#333940"/></svg>