<svg id="Capa_1" enable-background="new 0 0 512 512" height="512" viewBox="0 0 512 512" width="512" xmlns="http://www.w3.org/2000/svg"><circle cx="256" cy="256" fill="#4a7aff" r="256"/><path d="m512 256c0-8.15-.381-16.211-1.126-24.166l-111.835-111.834-96.361 132.178-167.178-167.178-2.748 52.766-57.252 7.234 184.807 184.807-4.307 109.193 64.742 64.742c110.038-28.676 191.258-128.724 191.258-247.742z" fill="#0053bf"/><path d="m455.801 221.253-199.801 217.747-199.801-217.747 56.762-101.253h286.078z" fill="#dbeeff"/><path d="m399.039 120h-143.039v319l199.801-217.747z" fill="#a3d4ff"/><path d="m56.199 221.253 113.801 20h172l113.801-20-56.762-101.253h-286.078z" fill="#a3d4ff"/><path d="m455.801 221.253-56.762-101.253h-143.039v121.253h86z" fill="#65b1fc"/><path d="m342 241.253-86 197.747-86-197.747 24.432-121.253h123.136z" fill="#bfe1ff"/><path d="m317.568 120h-61.568v319l86-197.747z" fill="#87c7ff"/><path d="m170 241.253 24.432-121.253h123.136l24.432 121.253z" fill="#87c7ff"/><path d="m317.568 120h-61.568v121.253h86z" fill="#4a98f7"/><path d="m165.5 115h-30v-30h-30v30h-30v30h30v30h30v-30h30z" fill="#fff"/><path d="m135.5 115v-30h-16.5v90h16.5v-30h30v-30z" fill="#f2f6fc"/></svg>