<svg id="Capa_1" enable-background="new 0 0 512 512" height="512" viewBox="0 0 512 512" width="512" xmlns="http://www.w3.org/2000/svg"><circle cx="256" cy="256" fill="#ffce00" r="256"/><path d="m512 256c0-29.448-4.972-57.734-14.123-84.066l-53.445-53.445-376.864 275.021 104.367 104.367c26.331 9.151 54.617 14.123 84.065 14.123 141.385 0 256-114.615 256-256z" fill="#ffa300"/><path d="m67.568 118.49h376.865v275.021h-376.865z" fill="#00d65b"/><path d="m255.595 118.49h188.837v275.021h-188.837z" fill="#06bf51"/><path d="m393.825 135.224h-275.65c-17.466 0-31.675 14.209-31.675 31.675v178.201c0 17.466 14.209 31.675 31.675 31.675h275.65c17.466 0 31.675-14.209 31.675-31.675v-178.201c0-17.465-14.209-31.675-31.675-31.675zm-152.825 146.644c-8.91-5.187-14.917-14.836-14.917-25.868s6.007-20.681 14.917-25.868zm30-51.736c8.91 5.187 14.917 14.836 14.917 25.868s-6.007 20.681-14.917 25.868zm-154.5-7.132h26.833v66h-26.833zm0 122.101v-26.101h56.833v-126h-56.833v-26.101c0-.924.751-1.675 1.675-1.675h122.825v32.761c-25.803 6.676-44.917 30.155-44.917 58.015s19.114 51.339 44.917 58.015v32.761h-122.825c-.924 0-1.675-.752-1.675-1.675zm279 0c0 .924-.751 1.675-1.675 1.675h-122.825v-32.761c25.803-6.676 44.917-30.155 44.917-58.015s-19.114-51.339-44.917-58.015v-32.761h122.825c.924 0 1.675.751 1.675 1.675z" fill="#fff"/><path d="m393.825 135.224h-138.23v241.552h138.23c17.466 0 31.675-14.209 31.675-31.675v-178.202c0-17.465-14.209-31.675-31.675-31.675zm-122.825 94.908c8.91 5.187 14.917 14.836 14.917 25.868s-6.007 20.681-14.917 25.868zm124.5 58.868h-26.833v-66h26.833zm-56.833-96v126h56.833v26.101c0 .924-.751 1.675-1.675 1.675h-122.825v-32.761c25.803-6.676 44.917-30.155 44.917-58.015s-19.114-51.339-44.917-58.015v-32.761h122.825c.924 0 1.675.751 1.675 1.675v26.101z" fill="#e9edf5"/></svg>