<svg id="Capa_1" enable-background="new 0 0 512 512" height="512" viewBox="0 0 512 512" width="512" xmlns="http://www.w3.org/2000/svg"><circle cx="256" cy="256" fill="#ffce00" r="256"/><path d="m508.118 211.34-93.086-93.086-20.808 227.255-227.255-227.255-15.988 294.551 99.128 99.128c1.958.044 3.922.066 5.891.066 141.385 0 256-114.615 256-256 0-15.233-1.331-30.156-3.882-44.659z" fill="#ffa300"/><path d="m256 452.521c-87.69 0-159.031-71.341-159.031-159.032v-175.235h70v175.235c0 49.092 39.939 89.032 89.031 89.032s89.031-39.939 89.031-89.032v-175.235h70v175.235c0 87.691-71.341 159.032-159.031 159.032z" fill="#ff6c52"/><path d="m345.031 118.254h70v137.651h-70z" fill="#ff6c52"/><path d="m345.031 255.905v37.584c0 49.092-39.939 89.032-89.031 89.032s-89.031-39.939-89.031-89.032v-37.584h-70v37.584c0 87.69 71.341 159.032 159.031 159.032s159.031-71.341 159.031-159.032v-37.584z" fill="#ff432e"/><path d="m256 452.521v-70c49.092 0 89.031-39.939 89.031-89.032v-175.235h70v175.235c0 87.691-71.341 159.032-159.031 159.032z" fill="#4a7aff"/><path d="m345.031 255.905v37.584c0 49.092-39.939 89.032-89.031 89.032v70c87.69 0 159.031-71.341 159.031-159.032v-37.584z" fill="#0053bf"/><g fill="#fff"><path d="m96.969 118.254h70v63.404h-70z"/><path d="m345.031 118.254h70v63.404h-70z"/></g></svg>