<svg id="Capa_1" enable-background="new 0 0 512 512" height="512" viewBox="0 0 512 512" width="512" xmlns="http://www.w3.org/2000/svg"><circle cx="256" cy="256" fill="#4a7aff" r="256"/><path d="m512 256c0-23.859-3.264-46.957-9.37-68.869l-110.131-110.131-199.945 77.241 14.105 235.432-87.097 55.994 52.125 52.125c26.402 9.205 54.773 14.208 84.313 14.208 141.385 0 256-114.615 256-256z" fill="#0053bf"/><path d="m162.564 97.24h53.997v312.76h-53.997z" fill="#fff"/><path d="m189 97.24h27.562v312.76h-27.562z" fill="#e9edf5"/><path d="m392.499 214h-229.935v-137h229.935l-42.348 68.5z" fill="#ffce00"/><path d="m162.564 145.5v68.5h229.935l-42.348-68.5z" fill="#fdba12"/><path d="m259.563 445.667h-140v-44.408c0-22.234 18.025-40.259 40.259-40.259h59.482c22.234 0 40.259 18.025 40.259 40.259z" fill="#ff6c52"/><path d="m259.563 401.259c0-22.234-18.025-40.259-40.259-40.259h-30.304v84.667h70.563z" fill="#ff432e"/></svg>