<svg id="Capa_1" enable-background="new 0 0 512 512" height="512" viewBox="0 0 512 512" width="512" xmlns="http://www.w3.org/2000/svg"><circle cx="256" cy="256" fill="#ffce00" r="256"/><path d="m510.935 279.505-145.377-145.378-140.915-32.389-56.988 53.601 82.097 82.097-183.058 115.564 34.086 34.085-5.232 5.46 115.524 115.525c14.587 2.582 29.6 3.93 44.928 3.93 133.461 0 243.068-102.127 254.935-232.495z" fill="#ffa300"/><path d="m290.183 287.858 39.402-76.532 59.593 40.032 11.999 77.518z" fill="#414952"/><path d="m200.956 302.37c-8.229-3.886-11.749-13.708-7.863-21.937l28.347-60.017c3.886-8.229 13.707-11.749 21.936-7.862 8.229 3.886 11.749 13.708 7.863 21.937l-28.347 60.017c-3.887 8.228-13.708 11.748-21.936 7.862z" fill="#fff"/><path d="m433.094 353h-366.4l-7.037-33.54c48.577-43.31 113.385-63.727 178.015-56.084l144.485 17.086 70.186 32.998z" fill="#ff6c52"/><path d="m452.343 313.46-70.186-32.998-126.562-14.966v87.504h177.499z" fill="#ff432e"/><circle cx="382.157" cy="353" fill="#414952" r="52.571"/><circle cx="382.157" cy="353" fill="#23272b" r="24.125"/><circle cx="130.168" cy="353" fill="#555a66" r="52.571"/><circle cx="130.168" cy="353" fill="#333940" r="24.125"/><path d="m333.295 307.401h-36.033c-5.397 0-9.772-4.375-9.772-9.772 0-5.397 4.375-9.772 9.772-9.772h36.033c5.397 0 9.772 4.375 9.772 9.772-.001 5.397-4.376 9.772-9.772 9.772z" fill="#db0404"/><path d="m312.961 336.401h-36.033c-5.397 0-9.772-4.375-9.772-9.772 0-5.397 4.375-9.772 9.772-9.772h36.033c5.397 0 9.772 4.375 9.772 9.772 0 5.397-4.375 9.772-9.772 9.772z" fill="#db0404"/><path d="m344.345 155.34c-48.713-48.713-127.977-48.714-176.689-.001l-21.213-21.213c60.409-60.409 158.704-60.41 219.115.001z" fill="#4a7aff"/><path d="m255.595 88.824v29.986c32.129-.103 64.29 12.071 88.75 36.53l21.213-21.213c-30.308-30.308-70.152-45.406-109.963-45.303z" fill="#0053bf"/><path d="m297.958 201.734c-23.136-23.139-60.782-23.144-83.918-.012l-21.211-21.215c34.833-34.826 91.511-34.82 126.344.015z" fill="#4a7aff"/><path d="m255.595 154.401v29.985c15.33-.101 30.692 5.676 42.363 17.348l21.215-21.213c-17.52-17.52-40.565-26.221-63.578-26.12z" fill="#0053bf"/></svg>