<svg id="Capa_1" enable-background="new 0 0 512 512" height="512" viewBox="0 0 512 512" width="512" xmlns="http://www.w3.org/2000/svg"><circle cx="256" cy="256" fill="#00d65b" r="256"/><path d="m183.671 407.422 102.785 102.785c127.029-15.058 225.544-123.128 225.544-254.207 0-19.753-2.238-38.984-6.472-57.452l-101.399-101.399z" fill="#09af4c"/><path d="m334.893 381.723-78.893 69.147-78.893-69.147c-34.469-30.211-54.236-73.82-54.236-119.656v-153.78l133.129-40.206 133.129 40.207v153.78c0 45.835-19.767 89.444-54.236 119.655z" fill="#ffce00"/><path d="m256 68.081v382.79l78.893-69.147c34.469-30.211 54.236-73.82 54.236-119.656v-153.78z" fill="#ffb600"/><path d="m389.129 117.449-266.258 132.102v12.516c0 19.83 3.707 39.241 10.696 57.333l255.562-126.796z" fill="#fa0"/><path d="m389.129 117.449-133.129 66.051v75.156l133.129-66.051z" fill="#ff9500"/><path d="m177.107 381.723 12.423 10.888 196.079-97.283c2.318-10.842 3.521-21.983 3.521-33.26v-43.643l-245.674 121.89c8.716 15.433 20.03 29.469 33.651 41.408z" fill="#fa0"/><path d="m256 284.476v75.156l129.608-64.305c2.318-10.842 3.521-21.983 3.521-33.26v-43.643z" fill="#ff9500"/><path d="m256 470.816-88.779-77.813c-37.718-33.058-59.35-80.782-59.35-130.936v-164.918l148.129-44.738 148.129 44.738v164.918c0 50.154-21.632 97.878-59.35 130.936zm-118.129-351.389v142.641c0 41.512 17.904 81.013 49.123 108.375l69.006 60.481 69.006-60.482c31.219-27.362 49.123-66.863 49.123-108.375v-142.64l-118.129-35.677z" fill="#fff4c5"/><path d="m256 52.411v31.339l118.129 35.677v142.641c0 41.512-17.904 81.013-49.123 108.375l-69.006 60.481v39.892l88.779-77.813c37.718-33.058 59.35-80.782 59.35-130.936v-164.918z" fill="#ffe89c"/></svg>