<svg id="Capa_1" enable-background="new 0 0 512 512" height="512" viewBox="0 0 512 512" width="512" xmlns="http://www.w3.org/2000/svg"><circle cx="256" cy="256" fill="#4a7aff" r="256"/><path d="m512 256c0-18.013-1.861-35.591-5.4-52.553l-115.542-115.542-291.109 322.095 94.569 94.569c19.695 4.855 40.288 7.431 61.482 7.431 141.385 0 256-114.615 256-256z" fill="#0053bf"/><path d="m109.884 124.905h292.233v178.191h-292.233z" fill="#ff6c52"/><path d="m255.595 124.905h146.521v178.19h-146.521z" fill="#ff432e"/><path d="m131.878 148.937h248.245v140.012h-248.245z" fill="#f92814"/><path d="m255.595 148.937h124.527v140.011h-124.527z" fill="#c10000"/><ellipse cx="256" cy="266.664" fill="#ffce00" rx="138.5" ry="85.336"/><path d="m256 181.328c-.135 0-.27.003-.405.003v170.666c.135 0 .27.003.405.003 76.491 0 138.5-38.206 138.5-85.336s-62.009-85.336-138.5-85.336z" fill="#ffb600"/><path d="m99.949 231.809h312.102v178.191h-312.102z" fill="#ff9b87"/><path d="m255.595 231.81h156.456v178.19h-156.456z" fill="#ff6c52"/><path d="m256 337.361c-8.008 0-14.5-6.492-14.5-14.5v-25.241c0-8.008 6.492-14.5 14.5-14.5 8.008 0 14.5 6.492 14.5 14.5v25.241c0 8.008-6.492 14.5-14.5 14.5z" fill="#db0404"/><path d="m256 283.12c-.137 0-.269.017-.405.02v54.2c.136.004.268.02.405.02 8.008 0 14.5-6.492 14.5-14.5v-25.24c0-8.008-6.492-14.5-14.5-14.5z" fill="#a10000"/><path d="m131.878 231.809h39.122v178.191h-39.122z" fill="#ff583e"/><path d="m341 231.809h39.122v178.191h-39.122z" fill="#f92814"/><path d="m421.058 117.905h-30v-30h-30v30h-30v30h30v30h30v-30h30z" fill="#e9edf5"/><path d="m205.042 171.328h-20v-20h-20v20h-20v20h20v20h20v-20h20z" fill="#fff"/><path d="m99.949 231.809h312.102v34.855h-312.102z" fill="#ff432e"/><path d="m255.595 231.81h156.456v34.854h-156.456z" fill="#db0404"/></svg>