<svg id="Capa_1" enable-background="new 0 0 512 512" height="512" viewBox="0 0 512 512" width="512" xmlns="http://www.w3.org/2000/svg"><circle cx="256" cy="256" fill="#de78f0" r="256"/><path d="m512 256c0-5.073-.148-10.113-.439-15.113l-40.215-40.215-10.398 8.59-59.039-59.039 3.508 41.252-61.084-61.084-15.159 8.996-73.174-73.173-49.941 160.991-26.532-26.533-12.098 6.89-57.338-57.339-42.915 132.077 43.003 43.003-33.673 9.522 37.297 37.297-22.418 29.195 103.291 103.291c19.647 4.83 40.186 7.392 61.324 7.392 141.385 0 256-114.615 256-256z" fill="#bf4cd9"/><path d="m439.149 329.551c-23.039-7.53-46.426-13.212-69.991-17.075l-15.766 72.991c22.644 3.354 45.119 8.625 67.225 15.85 3.332-12.903-20.603-31.517-17.271-44.421 2.845-11.018 32.958-16.327 35.803-27.345z" fill="#cdd2e1"/><path d="m256 66.214 27.296 55.309 61.037 8.869-44.166 43.052 10.426 60.79-54.593-28.701-54.593 28.701 10.426-60.79-44.166-43.052 61.037-8.869z" fill="#ffce00"/><path d="m344.333 130.392-61.037-8.869-27.296-55.309v139.318l54.593 28.702-10.426-60.79z" fill="#fdba12"/><path d="m382.34 372.014-28.948 13.453 4.616-21.37c0-.001 5.394-3.737 24.332 7.917z" fill="#9196aa"/><path d="m72.851 329.551c23.039-7.53 46.426-13.212 69.992-17.075l15.766 72.991c-22.644 3.354-45.119 8.625-67.225 15.85-3.332-12.903 20.603-31.517 17.271-44.421-2.846-11.018-32.959-16.327-35.804-27.345z" fill="#e9edf5"/><path d="m129.66 372.014 28.948 13.453-4.616-21.37c0-.001-5.394-3.737-24.332 7.917z" fill="#bec3d2"/><path d="m401.91 150.224 21.457 43.477 47.979 6.972-34.718 33.841 8.196 47.786-42.914-22.561-42.914 22.561 8.196-47.786-34.718-33.841 47.979-6.972z" fill="#fdba12"/><path d="m110.09 150.224 21.457 43.477 47.979 6.972-34.718 33.841 8.196 47.786-42.914-22.561-42.914 22.561 8.196-47.786-34.718-33.841 47.979-6.972z" fill="#ffce00"/><path d="m382.34 372.014c-82.52-26.972-170.159-26.972-252.679 0-6.178-23.922-12.355-47.844-18.533-71.766 94.625-30.928 195.119-30.928 289.745 0-6.178 23.921-12.356 47.844-18.533 71.766z" fill="#fff"/><path d="m256 277.051v74.733c42.54 0 85.079 6.743 126.34 20.229 6.177-23.922 12.355-47.844 18.533-71.766-47.313-15.464-96.093-23.196-144.873-23.196z" fill="#e9edf5"/></svg>