<svg height="512pt" viewBox="-115 0 512 512" width="512pt" xmlns="http://www.w3.org/2000/svg"><path d="m35.308594 26.484375h211.863281v459.03125h-211.863281zm0 0" fill="#b0d3f0"/><path d="m35.308594 264.828125h211.863281v211.863281h-211.863281zm0 0" fill="#4482c3"/><path d="m35.308594 476.691406h211.863281c19.5 0 35.3125 15.808594 35.3125 35.308594h-282.484375c0-19.5 15.808594-35.308594 35.308594-35.308594zm0 0" fill="#b0d3f0"/><path d="m0 0h282.484375c0 19.5-15.8125 35.308594-35.3125 35.308594h-211.863281c-19.5 0-35.308594-15.808594-35.308594-35.308594zm0 0" fill="#b0d3f0"/><g fill="#2c2f38"><path d="m70.621094 450.207031c-4.875 0-8.828125-3.953125-8.828125-8.828125v-370.757812c0-4.875 3.953125-8.828125 8.828125-8.828125s8.828125 3.953125 8.828125 8.828125v370.757812c0 4.875-3.953125 8.828125-8.828125 8.828125zm0 0"/><path d="m97.101562 97.101562h-26.480468c-4.875 0-8.828125-3.949218-8.828125-8.824218s3.953125-8.828125 8.828125-8.828125h26.480468c4.878907 0 8.828126 3.953125 8.828126 8.828125s-3.949219 8.824218-8.828126 8.824218zm0 0"/><path d="m97.101562 141.242188h-26.480468c-4.875 0-8.828125-3.953126-8.828125-8.828126s3.953125-8.828124 8.828125-8.828124h26.480468c4.878907 0 8.828126 3.953124 8.828126 8.828124s-3.949219 8.828126-8.828126 8.828126zm0 0"/><path d="m97.101562 185.378906h-26.480468c-4.875 0-8.828125-3.953125-8.828125-8.828125s3.953125-8.828125 8.828125-8.828125h26.480468c4.878907 0 8.828126 3.953125 8.828126 8.828125s-3.949219 8.828125-8.828126 8.828125zm0 0"/><path d="m97.101562 229.515625h-26.480468c-4.875 0-8.828125-3.949219-8.828125-8.824219 0-4.878906 3.953125-8.828125 8.828125-8.828125h26.480468c4.878907 0 8.828126 3.949219 8.828126 8.828125 0 4.875-3.949219 8.824219-8.828126 8.824219zm0 0"/><path d="m97.101562 273.65625h-26.480468c-4.875 0-8.828125-3.953125-8.828125-8.828125s3.953125-8.828125 8.828125-8.828125h26.480468c4.878907 0 8.828126 3.953125 8.828126 8.828125s-3.949219 8.828125-8.828126 8.828125zm0 0"/><path d="m97.101562 317.792969h-26.480468c-4.875 0-8.828125-3.953125-8.828125-8.828125s3.953125-8.828125 8.828125-8.828125h26.480468c4.878907 0 8.828126 3.953125 8.828126 8.828125s-3.949219 8.828125-8.828126 8.828125zm0 0"/><path d="m97.101562 361.929688h-26.480468c-4.875 0-8.828125-3.949219-8.828125-8.828126 0-4.875 3.953125-8.824218 8.828125-8.824218h26.480468c4.878907 0 8.828126 3.949218 8.828126 8.824218 0 4.878907-3.949219 8.828126-8.828126 8.828126zm0 0"/><path d="m97.101562 406.070312h-26.480468c-4.875 0-8.828125-3.953124-8.828125-8.828124s3.953125-8.828126 8.828125-8.828126h26.480468c4.878907 0 8.828126 3.953126 8.828126 8.828126s-3.949219 8.828124-8.828126 8.828124zm0 0"/><path d="m97.101562 450.207031h-26.480468c-4.875 0-8.828125-3.953125-8.828125-8.828125s3.953125-8.828125 8.828125-8.828125h26.480468c4.878907 0 8.828126 3.953125 8.828126 8.828125s-3.949219 8.828125-8.828126 8.828125zm0 0"/></g><path d="m211.863281 88.277344c-4.875 0-8.828125-3.953125-8.828125-8.828125v-8.828125c0-4.875 3.953125-8.828125 8.828125-8.828125s8.828125 3.953125 8.828125 8.828125v8.828125c0 4.875-3.953125 8.828125-8.828125 8.828125zm0 0" fill="#fff"/><path d="m211.863281 238.34375c-4.875 0-8.828125-3.949219-8.828125-8.828125v-114.757813c0-4.875 3.953125-8.828124 8.828125-8.828124s8.828125 3.953124 8.828125 8.828124v114.757813c0 4.878906-3.953125 8.828125-8.828125 8.828125zm0 0" fill="#fff"/><path d="m176.550781 388.414062c-14.625 0-26.480469-11.855468-26.480469-26.484374 0-14.625 11.855469-26.480469 26.480469-26.480469 14.628907 0 26.484375 11.855469 26.484375 26.480469 0 14.628906-11.855468 26.484374-26.484375 26.484374zm0-35.3125c-4.875 0-8.828125 3.953126-8.828125 8.828126s3.953125 8.828124 8.828125 8.828124 8.828125-3.953124 8.828125-8.828124-3.953125-8.828126-8.828125-8.828126zm0 0" fill="#285680"/><path d="m203.035156 326.515625c-.59375-.019531-1.183594-.078125-1.765625-.175781-.554687-.105469-1.089843-.285156-1.589843-.539063-.5625-.195312-1.101563-.460937-1.597657-.796875l-1.316406-1.03125c-1.613281-1.691406-2.527344-3.929687-2.558594-6.269531-.03125-1.160156.210938-2.3125.707031-3.363281.421876-1.078125 1.054688-2.0625 1.851563-2.902344 3.539063-3.273438 9-3.273438 12.535156 0 .800781.839844 1.429688 1.824219 1.855469 2.902344.453125 1.066406.691406 2.207031.707031 3.363281-.035156 2.339844-.949219 4.578125-2.5625 6.269531-.441406.351563-.882812.707032-1.410156 1.050782-.453125.347656-.960937.617187-1.5.792968-.53125.269532-1.101563.449219-1.6875.539063-.550781.09375-1.109375.144531-1.667969.160156zm0 0" fill="#285680"/><path d="m150.070312 423.722656c-.59375-.011718-1.183593-.074218-1.765624-.175781-.554688-.09375-1.089844-.273437-1.589844-.527344-.566406-.195312-1.101563-.464843-1.597656-.796875l-1.316407-1.058594c-1.613281-1.691406-2.53125-3.929687-2.558593-6.265624-.03125-1.160157.210937-2.308594.707031-3.355469.425781-1.082031 1.054687-2.070313 1.851562-2.914063 3.539063-3.265625 8.996094-3.265625 12.535157 0 .796874.84375 1.429687 1.832032 1.855468 2.914063.453125 1.058593.691406 2.199219.707032 3.355469-.035157 2.335937-.949219 4.574218-2.5625 6.265624-.441407.351563-.882813.707032-1.410157 1.058594-.453125.347656-.960937.617188-1.503906.796875-.527344.265625-1.097656.445313-1.683594.527344-.550781.105469-1.109375.164063-1.667969.175781zm0 0" fill="#285680"/><path d="m203.035156 441.273438c-.59375-.019532-1.183594-.078126-1.765625-.175782-.554687-.105468-1.089843-.285156-1.589843-.539062-.5625-.195313-1.101563-.460938-1.597657-.792969l-1.316406-1.035156c-1.613281-1.691407-2.527344-3.929688-2.558594-6.265625-.03125-1.164063.210938-2.3125.707031-3.363282.421876-1.082031 1.054688-2.066406 1.851563-2.90625 3.539063-3.273437 9-3.273437 12.535156 0 .800781.839844 1.429688 1.824219 1.855469 2.90625.453125 1.0625.691406 2.207032.707031 3.363282-.035156 2.335937-.949219 4.574218-2.5625 6.265625-.441406.355469-.882812.707031-1.410156 1.050781-.453125.347656-.960937.617188-1.5.792969-.53125.269531-1.101563.449219-1.6875.539062-.550781.09375-1.109375.148438-1.667969.160157zm0 0" fill="#285680"/><path d="m158.898438 308.859375c-.59375-.019531-1.183594-.078125-1.765626-.175781-.554687-.105469-1.089843-.285156-1.589843-.539063-.566407-.195312-1.101563-.460937-1.597657-.792969l-1.316406-1.035156c-1.613281-1.691406-2.527344-3.929687-2.558594-6.265625-.03125-1.160156.210938-2.3125.703126-3.363281.425781-1.078125 1.054687-2.066406 1.855468-2.90625 3.535156-3.273438 9-3.273438 12.535156 0 .800782.839844 1.429688 1.828125 1.855469 2.90625.453125 1.0625.691407 2.207031.703125 3.363281-.035156 2.335938-.949218 4.574219-2.558594 6.265625-.441406.355469-.882812.707032-1.414062 1.050782-.449219.347656-.957031.617187-1.5.796874-.527344.265626-1.097656.445313-1.683594.535157-.554687.09375-1.109375.148437-1.667968.160156zm0 0" fill="#285680"/></svg>