<svg height="512pt" viewBox="0 -55 512.00003 512" width="512pt" xmlns="http://www.w3.org/2000/svg"><path d="m68.949219 341.332031h-43.347657c-9.414062-.027343-17.039062-7.652343-17.066406-17.066406v-110.933594c.027344-9.414062 7.652344-17.039062 17.066406-17.066406h40.019532zm0 0" fill="#7f8c8d"/><path d="m446.378906 196.265625h40.019532c9.414062.027344 17.039062 7.652344 17.066406 17.066406v110.933594c-.027344 9.414063-7.652344 17.039063-17.066406 17.066406h-43.347657zm0 0" fill="#7f8c8d"/><path d="m452.265625 230.398438v68.269531c0 56.550781-45.84375 102.398437-102.398437 102.398437-28.277344 0-51.199219-22.921875-51.199219-51.199218 0-9.425782-7.640625-17.066407-17.066407-17.066407h-51.203124c-9.425782 0-17.066407 7.640625-17.066407 17.066407 0 28.277343-22.921875 51.199218-51.199219 51.199218-56.554687 0-102.398437-45.847656-102.398437-102.398437v-68.269531c0-56.550782 45.84375-102.398438 102.398437-102.398438h187.734376c56.554687 0 102.398437 45.847656 102.398437 102.398438zm0 0" fill="#bdc3c7"/><path d="m349.867188 366.933594c-9.425782 0-17.066407-7.640625-17.066407-17.066406-.027343-28.265626-22.933593-51.171876-51.199219-51.199219h-51.203124c-28.265626.027343-51.171876 22.933593-51.199219 51.199219 0 9.425781-7.640625 17.066406-17.066407 17.066406-37.683593-.042969-68.222656-30.582032-68.265624-68.265625v-68.269531c.042968-37.683594 30.582031-68.222657 68.265624-68.265626h187.734376c37.683593.042969 68.222656 30.582032 68.265624 68.265626v68.269531c-.042968 37.683593-30.582031 68.222656-68.265624 68.265625zm0 0" fill="#b0d3f0"/><path d="m153.601562 213.332031h-8.535156c-4.710937 0-8.53125-3.820312-8.53125-8.53125 0-4.714843 3.820313-8.535156 8.53125-8.535156h8.535156c4.710938 0 8.53125 3.820313 8.53125 8.535156 0 4.710938-3.820312 8.53125-8.53125 8.53125zm0 0" fill="#fff"/><path d="m298.667969 213.332031h-110.933594c-4.714844 0-8.535156-3.820312-8.535156-8.53125 0-4.714843 3.820312-8.535156 8.535156-8.535156h110.933594c4.710937 0 8.53125 3.820313 8.53125 8.535156 0 4.710938-3.820313 8.53125-8.53125 8.53125zm0 0" fill="#fff"/><g fill="#84b5cb"><path d="m85.332031 119.464844c-14.136719 0-25.597656-11.460938-25.597656-25.597656 0-14.140626 11.460937-25.601563 25.597656-25.601563 14.140625 0 25.601563 11.460937 25.601563 25.601563 0 6.789062-2.699219 13.300781-7.5 18.101562-4.800782 4.800781-11.3125 7.496094-18.101563 7.496094zm0-34.132813c-4.710937 0-8.53125 3.820313-8.53125 8.535157 0 4.710937 3.820313 8.53125 8.53125 8.53125 4.714844 0 8.535157-3.820313 8.535157-8.53125 0-4.714844-3.820313-8.535157-8.535157-8.535157zm0 0"/><path d="m128 59.734375c-14.136719 0-25.601562-11.460937-25.601562-25.601563 0-14.136718 11.464843-25.597656 25.601562-25.597656s25.601562 11.460938 25.601562 25.597656c0 6.789063-2.699218 13.300782-7.5 18.101563-4.800781 4.800781-11.3125 7.5-18.101562 7.5zm0-34.132813c-4.710938 0-8.535156 3.820313-8.535156 8.53125 0 4.714844 3.824218 8.535157 8.535156 8.535157s8.535156-3.820313 8.535156-8.535157c0-4.710937-3.824218-8.53125-8.535156-8.53125zm0 0"/><path d="m34.132812 25.601562c-4.710937 0-8.53125-3.820312-8.53125-8.535156v-8.53125c0-4.714844 3.820313-8.535156 8.53125-8.535156 4.714844 0 8.535157 3.820312 8.535157 8.535156v8.53125c0 4.714844-3.820313 8.535156-8.535157 8.535156zm0 0"/><path d="m34.132812 68.265625c-4.710937 0-8.53125-3.820313-8.53125-8.53125v-8.535156c0-4.710938 3.820313-8.53125 8.53125-8.53125 4.714844 0 8.535157 3.820312 8.535157 8.53125v8.535156c0 4.710937-3.820313 8.53125-8.535157 8.53125zm0 0"/><path d="m17.066406 42.667969h-8.53125c-4.714844 0-8.535156-3.820313-8.535156-8.535157 0-4.710937 3.820312-8.53125 8.535156-8.53125h8.53125c4.714844 0 8.535156 3.820313 8.535156 8.53125 0 4.714844-3.820312 8.535157-8.535156 8.535157zm0 0"/><path d="m59.734375 42.667969h-8.535156c-4.710938 0-8.53125-3.820313-8.53125-8.535157 0-4.710937 3.820312-8.53125 8.53125-8.53125h8.535156c4.710937 0 8.53125 3.820313 8.53125 8.53125 0 4.714844-3.820313 8.535157-8.53125 8.535157zm0 0"/><path d="m426.667969 119.464844c-14.140625 0-25.601563-11.460938-25.601563-25.597656 0-14.140626 11.460938-25.601563 25.601563-25.601563 14.136719 0 25.597656 11.460937 25.597656 25.601563 0 6.789062-2.695313 13.300781-7.496094 18.101562s-11.3125 7.496094-18.101562 7.496094zm0-34.132813c-4.714844 0-8.535157 3.820313-8.535157 8.535157 0 4.710937 3.820313 8.53125 8.535157 8.53125 4.710937 0 8.53125-3.820313 8.53125-8.53125 0-4.714844-3.820313-8.535157-8.53125-8.535157zm0 0"/><path d="m384 59.734375c-14.136719 0-25.601562-11.460937-25.601562-25.601563 0-14.136718 11.464843-25.597656 25.601562-25.597656s25.601562 11.460938 25.601562 25.597656c0 6.789063-2.699218 13.300782-7.5 18.101563-4.800781 4.800781-11.3125 7.5-18.101562 7.5zm0-34.132813c-4.710938 0-8.535156 3.820313-8.535156 8.53125 0 4.714844 3.824218 8.535157 8.535156 8.535157s8.535156-3.820313 8.535156-8.535157c0-4.710937-3.824218-8.53125-8.535156-8.53125zm0 0"/><path d="m477.867188 25.601562c-4.714844 0-8.535157-3.820312-8.535157-8.535156v-8.53125c0-4.714844 3.820313-8.535156 8.535157-8.535156 4.710937 0 8.53125 3.820312 8.53125 8.535156v8.53125c0 4.714844-3.820313 8.535156-8.53125 8.535156zm0 0"/><path d="m477.867188 68.265625c-4.714844 0-8.535157-3.820313-8.535157-8.53125v-8.535156c0-4.710938 3.820313-8.53125 8.535157-8.53125 4.710937 0 8.53125 3.820312 8.53125 8.53125v8.535156c0 4.710937-3.820313 8.53125-8.53125 8.53125zm0 0"/><path d="m503.464844 42.667969h-8.53125c-4.714844 0-8.535156-3.820313-8.535156-8.535157 0-4.710937 3.820312-8.53125 8.535156-8.53125h8.53125c4.714844 0 8.535156 3.820313 8.535156 8.53125 0 4.714844-3.820312 8.535157-8.535156 8.535157zm0 0"/><path d="m460.800781 42.667969h-8.535156c-4.710937 0-8.53125-3.820313-8.53125-8.535157 0-4.710937 3.820313-8.53125 8.53125-8.53125h8.535156c4.710938 0 8.53125 3.820313 8.53125 8.53125 0 4.714844-3.820312 8.535157-8.53125 8.535157zm0 0"/></g></svg>