<svg height="512" viewBox="0 0 58 58" width="512" xmlns="http://www.w3.org/2000/svg"><g id="017---CPU-Home" fill="none"><rect id="Rectangle-path" fill="#4fba6f" height="44" rx="3" width="44" x="7" y="7"/><path id="Shape" d="m15 7h-4v-5c0-1.1045695.8954305-2 2-2s2 .8954305 2 2z" fill="#e4c05c"/><path id="Shape" d="m23 7h-4v-5c0-1.1045695.8954305-2 2-2s2 .8954305 2 2z" fill="#f3d55b"/><path id="Shape" d="m31 7h-4v-5c0-1.1045695.8954305-2 2-2s2 .8954305 2 2z" fill="#e4c05c"/><path id="Shape" d="m39 7h-4v-5c0-1.1045695.8954305-2 2-2s2 .8954305 2 2z" fill="#f3d55b"/><path id="Shape" d="m47 7h-4v-5c0-1.1045695.8954305-2 2-2s2 .8954305 2 2z" fill="#e4c05c"/><path id="Shape" d="m15 51h-4v5c0 1.1045695.8954305 2 2 2s2-.8954305 2-2z" fill="#e4c05c"/><path id="Shape" d="m23 51h-4v5c0 1.1045695.8954305 2 2 2s2-.8954305 2-2z" fill="#f3d55b"/><path id="Shape" d="m31 51h-4v5c0 1.1045695.8954305 2 2 2s2-.8954305 2-2z" fill="#e4c05c"/><path id="Shape" d="m39 51h-4v5c0 1.1045695.8954305 2 2 2s2-.8954305 2-2z" fill="#f3d55b"/><path id="Shape" d="m47 51h-4v5c0 1.1045695.8954305 2 2 2s2-.8954305 2-2z" fill="#e4c05c"/><path id="Shape" d="m7 43v4h-5c-1.1045695 0-2-.8954305-2-2s.8954305-2 2-2z" fill="#e4c05c"/><path id="Shape" d="m7 35v4h-5c-1.1045695 0-2-.8954305-2-2s.8954305-2 2-2z" fill="#f3d55b"/><path id="Shape" d="m7 27v4h-5c-1.1045695 0-2-.8954305-2-2s.8954305-2 2-2z" fill="#e4c05c"/><path id="Shape" d="m7 19v4h-5c-1.1045695 0-2-.8954305-2-2s.8954305-2 2-2z" fill="#f3d55b"/><path id="Shape" d="m7 11v4h-5c-1.1045695 0-2-.8954305-2-2s.8954305-2 2-2z" fill="#e4c05c"/><path id="Shape" d="m51 43v4h5c1.1045695 0 2-.8954305 2-2s-.8954305-2-2-2z" fill="#e4c05c"/><path id="Shape" d="m51 35v4h5c1.1045695 0 2-.8954305 2-2s-.8954305-2-2-2z" fill="#f3d55b"/><path id="Shape" d="m51 27v4h5c1.1045695 0 2-.8954305 2-2s-.8954305-2-2-2z" fill="#e4c05c"/><path id="Shape" d="m51 19v4h5c1.1045695 0 2-.8954305 2-2s-.8954305-2-2-2z" fill="#f3d55b"/><path id="Shape" d="m51 11v4h5c1.1045695 0 2-.8954305 2-2s-.8954305-2-2-2z" fill="#e4c05c"/><path id="Shape" d="m42 27v16c0 1.1045695-.8954305 2-2 2h-5c-.5522847 0-1-.4477153-1-1v-10c0-.5522847-.4477153-1-1-1h-8c-.5522847 0-1 .4477153-1 1v10c0 .5522847-.4477153 1-1 1h-5c-1.1045695 0-2-.8954305-2-2v-16h-1.95c-.4475306.0349134-.8634878-.2326663-1.0172671-.6543943-.1537792-.421728-.0076939-.8942515.3572671-1.1556057l14.94-12c.3926727-.310595.9473273-.310595 1.34 0l14.94 12c.3549438.2567099.5014959.7145478.3615981 1.1296546-.1398979.4151068-.5336771.6908441-.9715981.6803454z" fill="#4c8056"/><circle id="Oval" cx="11" cy="11" fill="#7ed09e" r="1"/><path id="Shape" d="m24 12h-9c-.5522847 0-1-.4477153-1-1s.4477153-1 1-1h9c.5522847 0 1 .4477153 1 1s-.4477153 1-1 1z" fill="#7ed09e"/><path id="Shape" d="m48 52h-38c-2.209139 0-4-1.790861-4-4v-38c0-2.209139 1.790861-4 4-4h38c2.209139 0 4 1.790861 4 4v38c0 2.209139-1.790861 4-4 4zm-38-44c-1.1045695 0-2 .8954305-2 2v38c0 1.1045695.8954305 2 2 2h38c1.1045695 0 2-.8954305 2-2v-38c0-1.1045695-.8954305-2-2-2z" fill="#4c8056"/></g></svg>