<svg height="512" viewBox="0 0 52 58" width="512" xmlns="http://www.w3.org/2000/svg"><g id="010---Smart-Fridge" fill="none"><path id="Shape" d="m27 2.76v-.76c0-1.1045695-.8954305-2-2-2h-23c-1.1045695 0-2 .8954305-2 2v11c0 1.1045695.8954305 2 2 2-1.1045695 0-2 .8954305-2 2v35c0 1.1045695.8954305 2 2 2v3c0 .5522847.44771525 1 1 1h21c.5522847 0 1-.4477153 1-1v-3c1.1045695 0 2-.8954305 2-2v-22.76c-4.3886093-2.9777084-7.0165485-7.9365447-7.0165485-13.24s2.6279392-10.26229165 7.0165485-13.24z" fill="#2980ba"/><circle id="Oval" cx="36" cy="16" fill="#f0c419" r="16"/><path id="Shape" d="m36 0v32c-8.836556 0-16-7.163444-16-16s7.163444-16 16-16z" fill="#f3d55b"/><g fill="#e64c3c"><path id="Shape" d="m24.8 14.6c-.3787721 0-.7250352-.2140024-.8944272-.5527864s-.132836-.744196.0944272-1.0472136c2.8328157-3.77708764 7.2786405-6 12-6s9.1671843 2.22291236 12 6c.3313708.4418278.2418278 1.0686292-.2 1.4s-1.0686292.2418278-1.4-.2c-2.455107-3.273476-6.3081551-5.2-10.4-5.2s-7.944893 1.926524-10.4 5.2c-.1888544.2518058-.4852427.4-.8.4z"/><path id="Shape" d="m44 17c-.3147573 0-.6111456-.1481942-.8-.4-1.6996894-2.2662526-4.3671843-3.6-7.2-3.6s-5.5003106 1.3337474-7.2 3.6c-.2143594.2858125-.5649147.4355547-.9196152.3928203-.3547006-.0427344-.6596589-.2714531-.8-.6-.1403412-.3285469-.0947442-.7070078.1196152-.9928203 2.0773982-2.7698643 5.3376697-4.4 8.8-4.4s6.7226018 1.6301357 8.8 4.4c.2272632.3030176.2638192.7084296.0944272 1.0472136s-.5156551.5527864-.8944272.5527864z"/><path id="Shape" d="m40.8 19.4c-.3147573 0-.6111456-.1481942-.8-.4-.9442719-1.2590292-2.4262135-2-4-2s-3.0557281.7409708-4 2c-.3313708.4418278-.9581722.5313708-1.4.2s-.5313708-.9581722-.2-1.4c1.3219807-1.7626409 3.3966989-2.8 5.6-2.8s4.2780193 1.0373591 5.6 2.8c.2272632.3030176.2638192.7084296.0944272 1.0472136s-.5156551.5527864-.8944272.5527864z"/><circle id="Oval" cx="36" cy="22" r="2"/></g><path id="Shape" d="m25 29.24v22.76c.0695511 1.0173964-.6846884 1.9047369-1.7 2h-19.6c-1.01531164-.0952631-1.76955107-.9826036-1.7-2v-35c-.06955107-1.0173964.68468836-1.9047369 1.7-2h15.36c-.3989379 5.4214748 1.8067053 10.7090772 5.94 14.24z" fill="#3b97d3"/><path id="Shape" d="m27 2v.76c-4.1022438 2.77645224-6.6871782 7.2963946-7 12.24h-18c-1.1045695 0-2-.8954305-2-2v-11c0-1.1045695.8954305-2 2-2h23c1.1045695 0 2 .8954305 2 2z" fill="#95a5a5"/><path id="Shape" d="m25 2v.76c-3.6163794 3.06064397-5.7733155 7.5052394-5.94 12.24h-15.36c-1.01531164-.0952631-1.76955107-.9826036-1.7-2v-11c-.06955107-1.0173964.68468836-1.9047369 1.7-2h19.6c1.0153116.0952631 1.7695511.9826036 1.7 2z" fill="#bdc3c7"/><path id="Shape" d="m2 54h23v3c0 .5522847-.4477153 1-1 1h-21c-.55228475 0-1-.4477153-1-1z" fill="#35495e"/><path id="Shape" d="m4 54h19v3c0 .5522847-.4477153 1-1 1h-17c-.55228475 0-1-.4477153-1-1z" fill="#3f5c6c"/><path id="Shape" d="m6 12h-1c-1.1045695 0-2-.8954305-2-2v-5c0-1.1045695.8954305-2 2-2h1c.55228475 0 1 .44771525 1 1s-.44771525 1-1 1h-1v5h1c.55228475 0 1 .4477153 1 1s-.44771525 1-1 1z" fill="#56595e"/><path id="Shape" d="m6 38h-1c-1.1045695 0-2-.8954305-2-2v-15c0-1.1045695.8954305-2 2-2h1c.55228475 0 1 .4477153 1 1s-.44771525 1-1 1h-1v15h1c.55228475 0 1 .4477153 1 1s-.44771525 1-1 1z" fill="#56595e"/></g></svg>