<svg height="512" viewBox="0 0 56 58" width="512" xmlns="http://www.w3.org/2000/svg"><g id="001---Power-Home" fill="none" transform="translate(0 -1)"><path id="Shape" d="m15 10v6l-8 8v-14c0-.55228475.44771525-1 1-1h6c.5522847 0 1 .44771525 1 1z" fill="#3f5c6c"/><path id="Shape" d="m50 31.08v26.92c0 .5522847-.4477153 1-1 1h-42c-.55228475 0-1-.4477153-1-1v-26.92l21.82-21.84c.0471208-.04888797.1121-.07650648.18-.07650648s.1328792.02761851.18.07650648z" fill="#14a085"/><path id="Shape" d="m48 27.63v30.25c.03361.2702913-.044487.5425973-.2162434.7539898-.1717563.2113924-.4223089.3435783-.6937566.3660102h-38.18c-.27144765-.0224319-.52200026-.1546178-.69375663-.3660102-.17175637-.2113925-.24985341-.4836985-.21624337-.7539898v-30.25l19.84-24.55c.0377709-.05036117.0970485-.08.16-.08s.1222291.02963883.16.08z" fill="#26b99a"/><path id="Shape" d="m55.57 29.57-2.82 2.84c-.1877666.1893127-.4433625.2957983-.71.2957983s-.5222334-.1064856-.71-.2957983c-1.9-1.9 1.83 1.82-23.15-23.17-.0471208-.04888797-.1121-.07650648-.18-.07650648s-.1328792.02761851-.18.07650648c-25.46 25.47-21.21 21.23-23.15 23.17-.1877666.1893127-.44336246.2957983-.71.2957983s-.5222334-.1064856-.71-.2957983l-2.82-2.84c-.38772359-.3900375-.38772359-1.0199625 0-1.41 26.9-26.9 22.19-22.16 26.86-26.87.1877666-.18931265.4433625-.29579832.71-.29579832s.5222334.10648567.71.29579832c4.57 4.57-.57-.56 26.86 26.87.3877236.3900375.3877236 1.0199625 0 1.41z" fill="#547580"/><g fill="#f5efca"><path id="Shape" d="m28 55c-6.0352392.0143998-11.400412-3.8404607-13.3123333-9.5648712-1.9119214-5.7244106.0598001-12.0297529 4.8923333-15.6451288.886417-.6682645 2.1467354-.491417 2.815.395.6682645.886417.491417 2.1467354-.395 2.815-3.4434433 2.5825824-4.8479734 7.0788563-3.486833 11.1622777 1.3611405 4.0834214 5.1825289 6.8377223 9.486833 6.8377223s8.1256925-2.7543009 9.486833-6.8377223c1.3611404-4.0834214-.0433897-8.5796953-3.486833-11.1622777-.5716249-.4322914-.8692035-1.1367033-.7806406-1.8478907.0885628-.7111874.5498122-1.321104 1.21-1.6.6601877-.2788961 1.4190157-.1844007 1.9906406.2478907 4.8237778 3.6178205 6.789268 9.9177601 4.8784203 15.6366865-1.9108476 5.7189264-7.2687119 9.5719356-13.2984203 9.5633135z"/><path id="Shape" d="m28 43c-1.1045695 0-2-.8954305-2-2v-15c0-1.1045695.8954305-2 2-2s2 .8954305 2 2v15c0 1.1045695-.8954305 2-2 2z"/></g></g></svg>