<svg id="Layer_3" enable-background="new 0 0 64 64" height="512" viewBox="0 0 64 64" width="512" xmlns="http://www.w3.org/2000/svg"><path d="m52 14v-6l-10 3v3z" fill="#4a6ea2"/><path d="m12 14v-6l10 3v3z" fill="#4a6ea2"/><path d="m48 50h-32v-20c0-8.837 7.163-16 16-16 8.837 0 16 7.163 16 16z" fill="#d6d6d6"/><path d="m38 34v2c0 1.105-.895 2-2 2h-8c-1.105 0-2-.895-2-2v-2c-1.105 0-2-.895-2-2 0-4.418 3.582-8 8-8 4.418 0 8 3.582 8 8 0 1.105-.895 2-2 2z" fill="#999"/><path d="m20 42h24v4h-24z" fill="#98775a"/><path d="m20 42h21v4h-21z" fill="#cb9e78"/><path d="m52 14v6h-40v-6h9c.552 0 1-.448 1-1v-1c0-5.523 4.477-10 10-10 5.523 0 10 4.477 10 10v1c0 .552.448 1 1 1z" fill="#6292d8"/><path d="m62 62h-60v-8h1.871c1.061 0 2.078.421 2.828 1.172l2.829 2.828 2.894-5.789c.678-1.355 2.063-2.211 3.578-2.211h32c1.515 0 2.9.856 3.578 2.211l2.894 5.789 2.828-2.828c.75-.75 1.768-1.172 2.828-1.172h1.872z" fill="#cb9e78"/><g fill="#6b6b6b"><path d="m29 35h2v3h-2z"/><path d="m33 35h2v3h-2z"/><path d="m28.5 31c-.827 0-1.5-.673-1.5-1.5s.673-1.5 1.5-1.5 1.5.673 1.5 1.5-.673 1.5-1.5 1.5z"/><path d="m35.5 31c-.827 0-1.5-.673-1.5-1.5s.673-1.5 1.5-1.5 1.5.673 1.5 1.5-.673 1.5-1.5 1.5z"/><path d="m31 31h2v2h-2z"/></g><path d="m41 55.414 5.414-5.414h-2.828l-4.293 4.293c-.188.187-.293.441-.293.707v4h2z" fill="#98775a"/><path d="m47 57h-2c-.266 0-.52-.105-.707-.293l-3-3 1.414-1.414 2.707 2.707h1.586z" fill="#98775a"/><path d="m11.028 55h6.558l1.414 1.414v2.586h2v-3c0-.266-.105-.52-.293-.707l-2-2c-.187-.188-.441-.293-.707-.293h-5.972z" fill="#98775a"/><path d="m23 57h-3v-2h2.586l1.707-1.707 1.414 1.414-2 2c-.187.188-.441.293-.707.293z" fill="#98775a"/></svg>