<svg id="Layer_3" enable-background="new 0 0 64 64" height="512" viewBox="0 0 64 64" width="512" xmlns="http://www.w3.org/2000/svg"><path d="m62 33v-8l-13 5v3z" fill="#6292d8"/><path d="m2 33v-8l13 5v3z" fill="#6292d8"/><path d="m62 33v14c0 1.105-.895 2-2 2h-56c-1.105 0-2-.895-2-2v-14h12c0-9.941 8.059-18 18-18 9.941 0 18 8.059 18 18z" fill="#6292d8"/><path d="m38 41v2c0 1.105-.895 2-2 2h-8c-1.105 0-2-.895-2-2v-2c-1.105 0-2-.895-2-2 0-4.418 3.582-8 8-8 4.418 0 8 3.582 8 8 0 1.105-.895 2-2 2z" fill="#999"/><path d="m62 37h-16v-4c0-7.732-6.268-14-14-14-7.732 0-14 6.268-14 14v4h-16v-4h12c0-9.941 8.059-18 18-18 9.941 0 18 8.059 18 18h12z" fill="#31496c"/><g fill="#d6d6d6"><path d="m29 42h2v3h-2z"/><path d="m33 42h2v3h-2z"/><path d="m28.5 38c-.827 0-1.5-.673-1.5-1.5s.673-1.5 1.5-1.5 1.5.673 1.5 1.5-.673 1.5-1.5 1.5z"/><path d="m35.5 38c-.827 0-1.5-.673-1.5-1.5s.673-1.5 1.5-1.5 1.5.673 1.5 1.5-.673 1.5-1.5 1.5z"/><path d="m31 38h2v2h-2z"/></g></svg>