<svg id="Layer_3" enable-background="new 0 0 64 64" height="512" viewBox="0 0 64 64" width="512" xmlns="http://www.w3.org/2000/svg"><circle cx="54" cy="54" fill="#7c6835" r="8"/><circle cx="54" cy="54" fill="#f8cf6a" r="4"/><circle cx="10" cy="10" fill="#7c6835" r="8"/><circle cx="10" cy="10" fill="#f8cf6a" r="4"/><circle cx="23" cy="41" fill="#7c6835" r="21"/><circle cx="23" cy="41" fill="#f8cf6a" r="17"/><path d="m33 41.515v-1.515c0-5.523-4.477-10-10-10-5.523 0-10 4.477-10 10v1.515c0 1.591.632 3.117 1.757 4.243l2.243 2.242v2c0 1.105.895 2 2 2h8c1.105 0 2-.895 2-2v-2l2.243-2.243c1.125-1.125 1.757-2.651 1.757-4.242z" fill="#999"/><circle cx="41" cy="23" fill="#7c6835" r="21"/><circle cx="41" cy="23" fill="#f8cf6a" r="17"/><path d="m51 23.515v-1.515c0-5.523-4.477-10-10-10-5.523 0-10 4.477-10 10v1.515c0 1.591.632 3.117 1.757 4.243l2.243 2.242v2c0 1.105.895 2 2 2h8c1.105 0 2-.895 2-2v-2l2.243-2.243c1.125-1.125 1.757-2.651 1.757-4.242z" fill="#999"/><g fill="#d6d6d6"><circle cx="37" cy="20" r="2"/><circle cx="45" cy="20" r="2"/><circle cx="19" cy="38" r="2"/><path d="m38 30h2v4h-2z"/><path d="m42 30h2v4h-2z"/><path d="m42.293 28.707-1.293-1.293-1.293 1.293-1.414-1.414 2-2c.391-.391 1.023-.391 1.414 0l2 2z"/><path d="m20 48h2v4h-2z"/><path d="m24 48h2v4h-2z"/><path d="m24.293 46.707-1.293-1.293-1.293 1.293-1.414-1.414 2-2c.391-.391 1.023-.391 1.414 0l2 2z"/></g></svg>