<svg enable-background="new 0 0 110.039 93.28" height="512" viewBox="0 0 110.039 93.28" width="512" xmlns="http://www.w3.org/2000/svg"><path d="m98.74 19.02h-5.746-5.674-65.63-1.62-8.77c-1.06 0-1.92.9-1.92 2v61.58h3.932.598 81.77 2.1 2.88v-61.58c0-1.1-.86-2-1.92-2z" fill="#7c86bb"/><path d="m21.69 23.66h-7.78v58.94h7.78 73.99v-58.94z" fill="#dee1e9"/><path d="m100.66 82.6h8.38c0 6.47-5.25 9.68-11.72 9.68h-84.6c-6.47 0-11.72-3.21-11.72-9.68h8.38 4.53 7.78 20.7c.76 2.24 2.88 3.85 5.38 3.85h14.5c2.5 0 4.62-1.61 5.38-3.85h19.67 8.36z" fill="#7c86bb"/><path d="m87.32 19.02v4.64 58.94h-19.67c-.76 2.24-2.88 3.85-5.38 3.85h-14.5c-2.5 0-4.62-1.61-5.38-3.85h-20.7v-58.94-4.64-18.02h65.63z" fill="#f6f8f9"/><path d="m79.42 29.38c1.79 1.81 1.77 4.74-.05 6.53-1.81 1.79-4.74 1.76-6.53-.05-.12-.12-.24-.26-.35-.4l-4.53 4.47c-1.09-2.03-2.6-3.8-4.41-5.19l4.17-4.11c-.14-.11-.27-.23-.4-.36-1.78-1.81-1.76-4.74.05-6.53.03-.03.06-.06.09-.08 1.78-1.66 4.53-1.66 6.3 0 .05.04.1.08.14.13 1.17 1.18 1.56 2.83 1.2 4.33 1.5-.34 3.15.08 4.32 1.26z" fill="#8087a0"/><path d="m79.19 62.26c1.8 1.81 1.78 4.73-.04 6.53-1.18 1.16-2.84 1.56-4.34 1.19.34 1.51-.07 3.15-1.25 4.32-1.82 1.79-4.74 1.77-6.53-.05-1.79-1.81-1.77-4.73.05-6.53.12-.12.25-.23.39-.35l-5.79-5.87c2.01-1.12 3.74-2.67 5.08-4.52l5.55 5.63c.11-.14.23-.28.35-.4 1.82-1.8 4.75-1.77 6.53.05z" fill="#8087a0"/><path d="m69.86 47.51c0 3.54-1.15 6.82-3.1 9.47-1.34 1.85-3.07 3.4-5.08 4.52-.4.24-.82.45-1.24.64v3.34c0 1.67-1.36 3.02-3.02 3.02h-7.29c-1.67 0-3.02-1.35-3.02-3.02v-3.34c-.38-.17-.74-.36-1.1-.55-2.02-1.12-3.77-2.65-5.13-4.48-1.96-2.62-3.14-5.85-3.19-9.36-.04-3.01.77-5.87 2.22-8.32 1.16-1.97 2.73-3.69 4.59-5.01 2.4-1.72 5.28-2.8 8.4-2.97 4.01-.21 7.73 1.05 10.65 3.29 1.81 1.39 3.32 3.16 4.41 5.19 1.21 2.25 1.9 4.84 1.9 7.58z" fill="#8087a0"/><path d="m65.71 47.33c0 2.36-1.9 4.27-4.24 4.29h-.04c-2.37 0-4.29-1.92-4.29-4.29s1.92-4.29 4.29-4.29c.94 0 1.82.31 2.53.84 1.06.77 1.75 2.03 1.75 3.45z" fill="#f6f8f9"/><path d="m47.17 43.04c2.37 0 4.29 1.92 4.29 4.29s-1.92 4.29-4.29 4.29c-.22 0-.45-.02-.66-.06-2.06-.31-3.63-2.08-3.63-4.23 0-1.33.61-2.52 1.56-3.31.74-.61 1.69-.98 2.73-.98z" fill="#f6f8f9"/><path d="m46.01 61.59-5.69 5.6c.15.11.28.23.4.36 1.8 1.82 1.78 4.73-.03 6.53-1.82 1.79-4.75 1.77-6.53-.05-1.17-1.18-1.56-2.84-1.2-4.34-1.51.35-3.16-.07-4.32-1.25-1.79-1.82-1.77-4.74.04-6.53 1.82-1.79 4.74-1.77 6.53.04.12.13.24.26.35.4l5.32-5.24c1.36 1.83 3.11 3.36 5.13 4.48z" fill="#8087a0"/><path d="m40.57 30.44 3.93 3.98c-1.86 1.32-3.43 3.04-4.59 5.01l-4.16-4.22c-.11.14-.22.28-.36.4-1.81 1.79-4.74 1.77-6.53-.05-1.79-1.81-1.77-4.73.04-6.52 1.19-1.17 2.84-1.56 4.34-1.19-.33-1.45.04-3.04 1.13-4.19.04-.05.08-.1.13-.14 1.81-1.79 4.73-1.77 6.53.04.03.03.06.06.09.1 1.69 1.82 1.64 4.67-.14 6.43-.13.13-.27.25-.41.35z" fill="#8087a0"/><path d="m26.377 8.344h20.812c.553 0 1-.448 1-1s-.447-1-1-1h-20.812c-.553 0-1 .448-1 1s.447 1 1 1z" fill="#2c3656"/><path d="m26.377 12.656h33.562c.553 0 1-.448 1-1s-.447-1-1-1h-33.562c-.553 0-1 .448-1 1s.447 1 1 1z" fill="#2c3656"/><g fill="#18273d"><path d="m109.039 81.6h-7.38v-60.58c0-1.654-1.31-3-2.92-3h-10.42v-17.02c0-.552-.447-1-1-1h-65.63c-.553 0-1 .448-1 1v17.02h-9.389c-1.61 0-2.92 1.346-2.92 3v60.58h-7.38c-.553 0-1 .448-1 1 0 6.488 4.993 10.68 12.72 10.68h84.6c7.727 0 12.72-4.192 12.72-10.68-.001-.552-.448-1-1.001-1zm-10.3-61.58c.507 0 .92.449.92 1v60.58h-2.979v-57.94c0-.552-.447-1-1-1h-7.36v-2.64zm-10.42 61.58v-56.94h6.36v56.94zm-65.63-79.6h63.63v17.02 4.64 57.94h-18.67c-.429 0-.81.273-.947.679-.643 1.897-2.425 3.171-4.433 3.171h-14.5c-2.008 0-3.79-1.274-4.433-3.171-.138-.406-.519-.679-.947-.679h-19.7v-57.94-4.64zm-7.78 79.6v-56.94h5.78v56.94zm-4.529-60.58c0-.551.413-1 .92-1h9.39v2.64h-6.78c-.553 0-1 .448-1 1v57.94h-2.53zm86.939 70.26h-84.6c-4.902 0-10.123-2.041-10.672-7.68h7.333 4.529 7.78 20.025c1.086 2.33 3.436 3.85 6.055 3.85h14.5c2.619 0 4.969-1.521 6.055-3.85h18.995 8.36 4.979 7.332c-.548 5.639-5.768 7.68-10.671 7.68z"/><path d="m26.377 8.344h20.812c.553 0 1-.448 1-1s-.447-1-1-1h-20.812c-.553 0-1 .448-1 1s.447 1 1 1z"/><path d="m26.377 12.656h33.562c.553 0 1-.448 1-1s-.447-1-1-1h-33.562c-.553 0-1 .448-1 1s.447 1 1 1z"/><path d="m63.439 33.445c-3.088-2.124-6.811-3.192-10.595-2.993-2.92.159-5.74 1.088-8.212 2.68l-2.635-2.668c1.85-2.146 1.826-5.327-.115-7.45-.047-.059-.095-.108-.145-.158-2.175-2.188-5.715-2.217-7.911-.076-.109.095-.18.183-.184.193-.968 1.021-1.499 2.356-1.521 3.741-.001 0-.002 0-.003 0-1.45 0-2.853.564-3.923 1.616-2.2 2.177-2.222 5.736-.05 7.932 1.054 1.071 2.462 1.667 3.965 1.677 1.334.026 2.654-.463 3.64-1.303l2.925 2.968c-1.334 2.511-2.024 5.313-1.987 8.161.048 3.317 1.051 6.484 2.891 9.222l-4.003 3.942c-2.19-1.876-5.507-1.789-7.602.271-2.197 2.173-2.22 5.735-.05 7.942 1.05 1.068 2.445 1.653 3.9 1.671.003 1.458.569 2.86 1.617 3.917 1.045 1.068 2.446 1.665 3.944 1.679h.057c1.485 0 2.885-.573 3.949-1.62 2.083-2.07 2.203-5.387.35-7.598l4.365-4.296v2.585c0 2.217 1.804 4.02 4.021 4.02h7.29c2.217 0 4.02-1.803 4.02-4.02v-2.708c.021-.011.037-.021.058-.032l4.555 4.617c-1.88 2.198-1.797 5.511.264 7.594 1.053 1.071 2.459 1.667 3.959 1.678h.043c1.483 0 2.882-.573 3.945-1.619 1.059-1.05 1.64-2.444 1.662-3.898 1.449-.007 2.874-.576 3.925-1.609.001 0 .001-.001.002-.002 1.073-1.061 1.668-2.474 1.675-3.977.006-1.497-.572-2.906-1.623-3.963-1.049-1.073-2.455-1.671-3.957-1.684-1.356.022-2.62.448-3.642 1.304l-4.259-4.32c1.836-2.775 2.812-5.986 2.812-9.351 0-2.559-.584-5.091-1.682-7.377l3.294-3.251c1.007.864 2.274 1.341 3.617 1.352 1.504.059 2.918-.56 3.982-1.613 1.071-1.054 1.667-2.462 1.677-3.965.011-1.501-.563-2.915-1.618-3.981-1.054-1.062-2.448-1.647-3.898-1.672-.003-1.442-.561-2.832-1.594-3.889-.094-.107-.18-.176-.194-.184-2.132-2-5.475-2.012-7.63-.035-.051.041-.101.086-.147.133-2.088 2.065-2.218 5.378-.369 7.599zm-27.689.765c-.019 0-.037 0-.056.001-.286.016-.553.154-.73.38-.07.09-.137.184-.277.308-.686.678-1.585 1.065-2.561 1.04-.969-.007-1.875-.391-2.556-1.082-1.398-1.415-1.384-3.705.03-5.104.9-.886 2.171-1.236 3.399-.933.337.083.692-.013.939-.257.248-.243.352-.597.274-.936-.27-1.187.06-2.413.905-3.323.029-.023.058-.048.084-.074 1.414-1.397 3.709-1.381 5.109.02.022.032.048.062.074.09 1.338 1.441 1.29 3.654-.114 5.042-.089.089-.185.172-.281.241-.239.169-.393.436-.418.729s.078.581.284.79l3.134 3.172c-.111.091-.214.191-.323.284-.101.087-.2.174-.299.264-.395.358-.779.728-1.141 1.122-.026.028-.049.058-.075.087-.339.374-.659.767-.965 1.169-.079.104-.158.208-.234.314-.069.095-.144.186-.211.282l-3.281-3.329c-.187-.19-.443-.297-.71-.297zm3.868 32.267c-.209.206-.317.493-.296.785s.169.561.405.734c.097.071.18.148.257.232.008.008.016.017.024.025 1.4 1.416 1.39 3.712-.021 5.114-.685.673-1.586 1.042-2.544 1.042-.012 0-.024 0-.036 0-.963-.009-1.863-.392-2.539-1.083-.884-.892-1.234-2.164-.937-3.403.081-.337-.019-.691-.263-.938-.19-.191-.446-.296-.71-.296-.075 0-.15.008-.226.026-1.235.284-2.499-.079-3.382-.977-1.398-1.422-1.386-3.718.028-5.116 1.424-1.398 3.719-1.385 5.109.022.097.105.194.21.283.324.177.224.439.361.724.379.283.023.562-.086.765-.286l4.529-4.461c.099.116.208.225.311.339.087.096.174.192.263.287.369.39.752.768 1.158 1.123.033.029.068.054.1.083.386.333.79.646 1.205.945.096.069.19.138.288.205.093.064.182.134.276.197zm32.747-2.868c.286-.016.553-.154.73-.38.085-.109.177-.219.267-.308.689-.681 1.595-1.029 2.568-1.043.966.008 1.869.393 2.55 1.088.679.683 1.051 1.588 1.047 2.55-.005.968-.388 1.878-1.08 2.563-.889.872-2.191 1.228-3.398.931-.333-.082-.69.014-.939.256-.247.243-.352.596-.275.934.278 1.238-.087 2.506-.976 3.388-1.422 1.399-3.718 1.384-5.118-.041-1.398-1.414-1.38-3.709.046-5.12.096-.095.199-.182.333-.297.211-.18.338-.44.35-.718.012-.277-.092-.547-.287-.745l-4.905-4.973c.093-.062.181-.132.273-.196.108-.075.214-.153.321-.231.401-.294.792-.601 1.166-.93.035-.031.073-.059.108-.09.398-.355.773-.734 1.136-1.125.092-.1.182-.2.272-.302.097-.11.2-.215.295-.327l4.75 4.819c.201.205.484.307.766.297zm-6.415-7.215c-1.257 1.735-2.902 3.199-4.785 4.249-.327.196-.699.388-1.138.586-.358.162-.588.519-.588.911v3.34c0 1.114-.906 2.02-2.02 2.02h-.578v-4.514c0-.552-.447-1-1-1s-1 .448-1 1v4.514h-2.381v-4.514c0-.552-.447-1-1-1s-1 .448-1 1v4.514h-.33c-1.114 0-2.021-.906-2.021-2.02v-3.34c0-.395-.231-.752-.592-.913-.359-.161-.7-.341-1.023-.512-1.88-1.042-3.544-2.495-4.813-4.205-1.912-2.556-2.946-5.59-2.991-8.774-.036-2.739.683-5.435 2.081-7.799 1.089-1.849 2.578-3.475 4.312-4.705 2.326-1.668 5.048-2.63 7.869-2.784.266-.014.531-.021.797-.021 3.326 0 6.563 1.089 9.191 3.105 1.695 1.302 3.126 2.986 4.139 4.87 1.165 2.166 1.78 4.623 1.78 7.106 0 3.227-1.005 6.297-2.909 8.886zm2.472-25.052c.205-.202.312-.482.296-.77-.017-.287-.155-.553-.383-.73-.108-.085-.208-.178-.303-.273-1.396-1.419-1.378-3.715-.021-5.075.046-.03.09-.065.131-.103 1.388-1.294 3.556-1.294 4.978.025.021.027.045.053.069.078.884.891 1.234 2.16.938 3.393-.08.336.019.69.261.936.243.246.597.351.933.272 1.232-.278 2.499.091 3.389.988.677.685 1.046 1.594 1.039 2.56-.006.968-.39 1.875-1.08 2.554-.001 0-.001.001-.002.002-1.414 1.4-3.709 1.38-5.119-.046-.094-.093-.187-.203-.271-.312-.177-.224-.439-.362-.724-.379-.283-.019-.562.087-.765.286l-3.617 3.57c-.058-.091-.124-.176-.184-.266-.073-.109-.148-.216-.223-.323-.286-.408-.587-.806-.908-1.189-.03-.035-.057-.073-.087-.108-.35-.411-.724-.8-1.111-1.177-.09-.088-.181-.173-.273-.259-.115-.107-.225-.22-.342-.324z"/><path d="m47.17 42.04c-1.226 0-2.421.429-3.37 1.211-1.22 1.015-1.92 2.501-1.92 4.079 0 2.633 1.885 4.828 4.442 5.212.267.051.56.078.848.078 2.917 0 5.29-2.373 5.29-5.29s-2.373-5.29-5.29-5.29zm0 8.58c-.158 0-.322-.014-.512-.049-1.609-.242-2.778-1.605-2.778-3.241 0-.981.437-1.908 1.195-2.538.597-.492 1.321-.752 2.095-.752 1.814 0 3.29 1.476 3.29 3.29s-1.476 3.29-3.29 3.29z"/><path d="m64.558 43.079c-.91-.68-1.992-1.039-3.128-1.039-2.917 0-5.29 2.373-5.29 5.29s2.373 5.29 5.29 5.29h.04.009c2.885-.025 5.231-2.398 5.231-5.29 0-1.683-.809-3.275-2.152-4.251zm-3.097 7.541.009 1-.04-1c-1.814 0-3.29-1.476-3.29-3.29s1.476-3.29 3.29-3.29c.702 0 1.37.222 1.942.649.838.609 1.338 1.596 1.338 2.641 0 1.799-1.457 3.275-3.249 3.29z"/></g></svg>