<svg id="Capa_1" enable-background="new 0 0 118.369 114.875" height="512" viewBox="0 0 118.369 114.875" width="512" xmlns="http://www.w3.org/2000/svg"><path d="m117.365 46.737c0 12.09-9.34 22-21.21 22.88-1.05 8.29-8.11 14.7-16.68 14.7-3.93 0-7.54-1.35-10.4-3.61-5.41 2.14-11.54 3.35-18.04 3.35-.9 0-1.79-.03-2.67-.08-4.34 3.56-10.97 4.69-17.36 2.42-7.25-2.57-11.98-8.74-12.22-15.06-10.04-1.18-17.78-8.39-17.78-17.14 0-8.05 6.56-14.8 15.44-16.74-1.05-1.67-1.67-3.64-1.67-5.76 0-6.01 4.88-10.89 10.89-10.89h.01c1.33-11.16 10.82-19.81 22.34-19.81 10.47 0 19.27 7.15 21.78 16.84 2.74-1.94 6.07-3.08 9.68-3.08 6.48 0 12.09 3.67 14.89 9.04h.07c12.67.001 22.93 10.271 22.93 22.94z" fill="#dee1e9"/><path d="m85.995 70.137v6.52h-25.14l6.38-6.39c1.16-1.16 1.74-2.68 1.74-4.21 0-1.52-.58-3.05-1.74-4.21-.9-.9-2.01-1.45-3.17-1.64 1.74-1.53 3.88-2.61 6.26-3.05v.99c0 1.12.91 2.03 2.04 2.03.35 0 .68-.09.97-.25.11-.06.22-.13.31-.22.01.01.01 0 .01 0 .45-.37.74-.93.74-1.56v-1.12c3 .36 5.69 1.73 7.72 3.76 2.4 2.401 3.88 5.701 3.88 9.35z" fill="#8087a0"/><path d="m57.415 61.327c-1.06-.82-2.33-1.23-3.61-1.23-1.52 0-3.05.59-4.21 1.75-2.33 2.33-2.33 6.1 0 8.42l6.38 6.39h-24.67v-12.36c0-6.46 4.64-11.84 10.77-12.99v1c0 .57.23 1.08.61 1.43.36.37.87.6 1.43.6 1.12 0 2.03-.91 2.03-2.04v-1.11c3.01.36 5.7 1.73 7.74 3.76 1.72 1.731 2.97 3.921 3.53 6.38z" fill="#2c3656"/><path d="m11.355 105.027c2.44 0 4.42 1.98 4.42 4.42 0 2.45-1.98 4.43-4.42 4.43-2.45 0-4.43-1.98-4.43-4.43 0-2.44 1.98-4.42 4.43-4.42z" fill="#a7b4cc"/><circle cx="17.895" cy="93.717" fill="#8087a0" r="6.54"/><path d="m58.015 61.847.4.39.39-.39c1.43-1.43 3.41-1.98 5.26-1.64 1.16.19 2.27.74 3.17 1.64 1.16 1.16 1.74 2.69 1.74 4.21 0 1.53-.58 3.05-1.74 4.21l-6.38 6.39-2.44 2.44-2.44-2.44-6.38-6.39c-2.33-2.32-2.33-6.09 0-8.42 1.16-1.16 2.69-1.75 4.21-1.75 1.28 0 2.55.41 3.61 1.23.2.151.41.331.6.52z" fill="#f7bd76"/><path d="m70.325 55.458c.66.14 1.34.22 2.03.22.7 0 1.37-.08 2.03-.22v2.69c0 .63-.28 1.18-.73 1.56 0 0 0 .01-.01 0-.1.08-.2.15-.31.22-.29.16-.62.25-.97.25-1.13 0-2.04-.91-2.04-2.03v-.99z" fill="#f6f8f9"/><path d="m46.145 49.607v1.58 1.11c0 1.13-.91 2.04-2.03 2.04-.56 0-1.07-.23-1.43-.6-.37-.36-.6-.88-.6-1.44v-.99h-.01v-1.7c.66.15 1.34.23 2.04.23.69.001 1.37-.08 2.03-.23z" fill="#f6f8f9"/><path d="m53.465 33.618v5.52 1.34c0 4.47-3.13 8.21-7.32 9.13-.66.15-1.34.23-2.03.23-.7 0-1.38-.08-2.04-.23-4.18-.92-7.32-4.66-7.32-9.13v-1.34-5.52-4.84s12.11-.58 13.79-4.01c1.5 3.18 4.92 4.84 4.92 4.84s0 4.01 0 4.01z" fill="#f6f8f9"/><path d="m32.865 34.377c.49-.47 1.16-.76 1.89-.76v5.52c-1.53 0-2.76-1.24-2.76-2.75 0-.799.33-1.51.87-2.01z" fill="#f6f8f9"/><path d="m55.545 34.568v.01c.43.48.68 1.11.68 1.81 0 1.51-1.23 2.75-2.76 2.75v-5.52c.83 0 1.57.369 2.08.95z" fill="#f6f8f9"/><path d="m62.995 41.248v5.07.45c-1.52 0-2.75-1.24-2.75-2.76 0-.54.15-1.05.44-1.48.11-.19.25-.36.42-.52.49-.471 1.16-.76 1.89-.76z" fill="#f6f8f9"/><path d="m83.795 42.197c.11.14.22.28.31.44.23.4.36.87.36 1.37 0 1.52-1.23 2.76-2.75 2.76v-.45-5.07c.83 0 1.57.37 2.08.94z" fill="#f6f8f9"/><path d="m62.995 36.397s12.12-.58 13.79-4.01c1.51 3.18 4.93 4.85 4.93 4.85v4.01 5.07c0 4.48-3.14 8.21-7.33 9.14-.66.14-1.33.22-2.03.22-.69 0-1.37-.08-2.03-.22-4.19-.93-7.33-4.66-7.33-9.14v-5.07z" fill="#f6f8f9"/><path d="m55.795 26.167-.25 8.4c-.51-.58-1.25-.95-2.08-.95v-4.01s-3.42-1.66-4.92-4.84c-1.68 3.43-13.79 4.01-13.79 4.01v4.84c-.73 0-1.4.29-1.89.76l-.44-8.21c0-6.45 5.23-11.68 11.69-11.68 3.22 0 6.15 1.31 8.26 3.42s3.42 5.041 3.42 8.26z" fill="#636e9e"/><path d="m85.265 23.778c2.38 0 4.3 1.94 4.3 4.31 0 2.38-1.92 4.3-4.3 4.3-.24 0-.48-.02-.72-.06-.69-2.15-1.86-4.05-3.37-5.57.56-1.73 2.17-2.98 4.09-2.98z" fill="#636e9e"/><path d="m62.995 36.397v4.85c-.73 0-1.4.29-1.89.76-.17.16-.31.33-.42.52-.73-1.73-1.13-3.63-1.13-5.65 0-7.64 5.76-13.85 12.86-13.85 3.38 0 6.48 1.42 8.76 3.73 1.51 1.52 2.68 3.42 3.37 5.57.47 1.42.72 2.96.72 4.55 0 2.06-.42 4-1.16 5.76-.09-.16-.2-.3-.31-.44v-.01c-.51-.57-1.25-.94-2.08-.94v-4.01s-3.42-1.67-4.93-4.85c-1.67 3.431-13.79 4.01-13.79 4.01z" fill="#7c86bb"/><circle cx="40.101" cy="35.839" fill="#2c3656" r="1.044"/><path d="m48.457 34.794c-.577 0-1.044.468-1.044 1.044s.468 1.044 1.044 1.044 1.044-.468 1.044-1.044-.468-1.044-1.044-1.044z" fill="#2c3656"/><path d="m40.142 33.422c.533.137 1.08-.181 1.22-.716.139-.534-.182-1.081-.716-1.219-2.307-.6-3.738 1.119-4.175 2.111-.222.502.006 1.084.506 1.31.133.06.271.088.407.088.38 0 .744-.218.914-.584.1-.219.674-1.294 1.844-.99z" fill="#2c3656"/><path d="m47.676 33.422c.232-.061 1.422-.312 1.936.794.17.365.531.579.908.579.141 0 .284-.03.421-.093.501-.233.718-.828.485-1.328-1.005-2.16-3.244-2.173-4.285-1.878-.528.149-.833.695-.688 1.224s.687.844 1.223.702z" fill="#2c3656"/><path d="m47.012 45.42c.502-.231.721-.826.489-1.327-.231-.501-.825-.721-1.327-.488-1.131.523-2.332.583-3.573.179-.523-.172-1.09.116-1.261.641s.116 1.089.642 1.26c.736.24 1.479.36 2.212.36.967-.001 1.918-.21 2.818-.625z" fill="#2c3656"/><circle cx="68.504" cy="43.635" fill="#2c3656" r="1.044"/><path d="m76.338 42.731c-.5.288-.671.927-.382 1.427.288.5.927.671 1.427.382.5-.288.671-.927.382-1.427s-.928-.671-1.427-.382z" fill="#2c3656"/><path d="m75.238 48.318c-2.771 1.593-5.438.071-5.551.006-.473-.28-1.085-.125-1.367.348-.283.474-.129 1.088.346 1.371.101.06 1.71 1 3.889 1 1.119 0 2.39-.248 3.681-.991.479-.275.645-.887.369-1.365-.276-.479-.886-.645-1.367-.369z" fill="#2c3656"/><path d="m48.236 42.528c.542.105 1.065-.255 1.167-.798.103-.542-.255-1.065-.798-1.167l-4.105-.772c-.14-.025-.284-.022-.424.012l-3.853.948c-.536.132-.863.674-.731 1.21.112.456.521.761.97.761.079 0 .16-.009.24-.029l3.642-.896z" fill="#2c3656"/><g fill="#18273d"><circle cx="40.101" cy="35.839" r="1.044"/><path d="m48.457 34.794c-.577 0-1.044.468-1.044 1.044s.468 1.044 1.044 1.044 1.044-.468 1.044-1.044-.468-1.044-1.044-1.044z"/><path d="m40.142 33.422c.533.137 1.08-.181 1.22-.716.139-.534-.182-1.081-.716-1.219-2.307-.6-3.738 1.119-4.175 2.111-.222.502.006 1.084.506 1.31.133.06.271.088.407.088.38 0 .744-.218.914-.584.1-.219.674-1.294 1.844-.99z"/><path d="m47.676 33.422c.232-.061 1.422-.312 1.936.794.17.365.531.579.908.579.141 0 .284-.03.421-.093.501-.233.718-.828.485-1.328-1.005-2.16-3.244-2.173-4.285-1.878-.528.149-.833.695-.688 1.224s.687.844 1.223.702z"/><path d="m47.012 45.42c.502-.231.721-.826.489-1.327-.231-.501-.825-.721-1.327-.488-1.131.523-2.332.583-3.573.179-.523-.172-1.09.116-1.261.641s.116 1.089.642 1.26c.736.24 1.479.36 2.212.36.967-.001 1.918-.21 2.818-.625z"/><circle cx="68.504" cy="43.635" r="1.044"/><path d="m76.338 42.731c-.5.288-.671.927-.382 1.427.288.5.927.671 1.427.382.5-.288.671-.927.382-1.427s-.928-.671-1.427-.382z"/><path d="m85.262 22.779c-1.8 0-3.421.908-4.388 2.349-2.408-2.006-5.366-3.097-8.464-3.097-7.638 0-13.852 6.662-13.852 14.85 0 1.927.356 3.792 1.028 5.562-.225.482-.343 1.016-.343 1.569 0 1.757 1.217 3.224 2.85 3.631.523 3.988 3.361 7.389 7.229 8.578v.136c-2.034.504-3.936 1.467-5.568 2.81-1.938-.215-3.885.386-5.35 1.682-.042-.037-.075-.059-.115-.093-.623-2.446-1.893-4.693-3.706-6.515-2.011-2.001-4.595-3.355-7.357-3.886 4.245-1.343 7.242-5.362 7.242-9.879v-.489c1.583-.441 2.754-1.88 2.754-3.602 0-.775-.235-1.519-.667-2.138l.24-8.046c0-.01 0-.02 0-.03 0-3.388-1.319-6.573-3.716-8.969-2.396-2.396-5.581-3.715-8.969-3.715-6.994 0-12.685 5.69-12.684 12.738l.415 7.813c-.532.66-.844 1.485-.844 2.348 0 1.721 1.171 3.161 2.754 3.602v.489c0 4.545 3.035 8.583 7.326 9.901v.14c-6.286 1.557-10.77 7.218-10.77 13.783v12.36c0 .553.447 1 1 1h24.249l2.144 2.146c.195.195.451.293.707.293s.512-.098.707-.293l2.144-2.146h24.729c.553 0 1-.447 1-1v-6.521c0-3.791-1.478-7.362-4.165-10.059-2.009-2-4.589-3.355-7.344-3.885 3.821-1.212 6.62-4.594 7.139-8.553 1.633-.407 2.85-1.875 2.85-3.631 0-.495-.098-.984-.281-1.43.702-1.817 1.074-3.729 1.074-5.7 0-1.21-.139-2.399-.404-3.552 2.643-.301 4.71-2.524 4.71-5.245.001-2.926-2.378-5.306-5.304-5.306zm-23.264 22.672c-.455-.317-.754-.845-.754-1.44 0-.341.093-.661.297-.97.062-.105.144-.203.263-.316.06-.058.127-.106.194-.154zm-6.774-9.066c0 .596-.299 1.123-.754 1.44v-2.885c.008.006.018.009.026.015.022.016.042.035.063.052.066.053.129.112.189.175l.05.057c.278.314.426.71.426 1.146zm-21.471 1.441c-.455-.317-.754-.845-.754-1.44 0-.493.194-.945.559-1.286.06-.058.128-.107.195-.155zm0-9.052v3.511l-.326-6.113c0-5.892 4.793-10.685 10.685-10.685 2.854 0 5.536 1.111 7.555 3.129 2.015 2.015 3.126 4.692 3.13 7.541l-.197 6.64c-.043-.014-.086-.026-.129-.038v-3.147c0-.383-.219-.731-.562-.899-.031-.015-3.122-1.545-4.462-4.377-.165-.348-.514-.57-.898-.572-.404.013-.735.216-.904.561-.976 1.998-8.153 3.221-12.938 3.451-.535.025-.954.464-.954.998zm2 11.702v-.337-6.517-1-2.905c2.884-.198 9.723-.904 12.622-3.245 1.328 1.943 3.175 3.19 4.095 3.73v2.419 1 6.517.337c0 3.889-2.751 7.32-6.537 8.158-.925.2-1.823.249-2.728.15-.302-.033-.605-.083-.911-.149-3.791-.839-6.541-4.27-6.541-8.158zm9.391 10.305v.39c0 .006-.004.012-.004.018v1.11c0 .304-.135.572-.343.763-.183.165-.42.273-.686.273-.415 0-.768-.249-.932-.602-.005-.011-.015-.018-.019-.029-.005-.012-.003-.026-.008-.038-.043-.115-.073-.236-.073-.366v-.99-.529c.692.073 1.368.072 2.065 0zm1.995 1.588c2.28.487 4.349 1.611 6.032 3.286 1.077 1.083 1.936 2.341 2.539 3.71-.166-.048-.339-.073-.51-.108-.113-.023-.223-.054-.338-.072-.348-.053-.702-.085-1.062-.085-1.854 0-3.6.726-4.917 2.043-.33.33-.622.686-.875 1.065-.76 1.136-1.167 2.469-1.166 3.864.001.792.142 1.56.395 2.286.341.975.892 1.87 1.645 2.618l.007.007 4.67 4.677h-21.249v-11.36c0-5.479 3.628-10.233 8.781-11.729.274 1.465 1.552 2.529 3.001 2.532 1.529.004 2.859-1.171 3.047-2.734zm11.27 25.317-8.101-8.111-.011-.011c-.001-.001-.002-.002-.003-.003-.234-.233-.442-.485-.621-.752-.54-.803-.83-1.749-.831-2.739-.002-1.325.515-2.573 1.454-3.513s2.184-1.457 3.504-1.457c1.098 0 2.135.354 3.029 1.045.167.119.324.264.481.42l.399.391c.392.384 1.019.38 1.406-.008l.391-.391c1.146-1.146 2.78-1.657 4.392-1.359.987.161 1.895.631 2.624 1.359.934.934 1.447 2.178 1.447 3.503 0 1.326-.514 2.57-1.448 3.504zm16.979-19.475c2.259.493 4.367 1.637 6.023 3.285 2.308 2.315 3.578 5.386 3.578 8.644v5.521h-21.728l4.676-4.684c1.312-1.31 2.033-3.056 2.033-4.917 0-1.859-.722-3.606-2.033-4.917-.26-.26-.538-.496-.828-.708-.077-.056-.163-.097-.242-.15-.22-.147-.44-.293-.672-.412-.006-.003-.012-.008-.018-.011.979-.63 2.042-1.115 3.155-1.44.324 1.462 1.661 2.487 3.146 2.42 1.463-.065 2.692-1.172 2.91-2.631zm-4.065-.064v-1.521c.693.07 1.371.07 2.064 0v1.521c0 .569-.463 1.032-1.032 1.032s-1.032-.463-1.032-1.032zm9.392-16.899v5.071c0 3.889-2.751 7.32-6.537 8.158-1.228.265-2.416.265-3.638.001-3.791-.839-6.542-4.271-6.542-8.159v-5.071-3.905c2.884-.198 9.723-.904 12.622-3.245 1.328 1.943 3.175 3.19 4.095 3.73zm2 4.203v-2.891c.096.067.186.144.27.231.016.021.032.042.05.062.087.101.149.186.203.284.151.262.231.564.231.873 0 .596-.299 1.124-.754 1.441zm.981-4.637c-.121-.075-.248-.137-.376-.198-.025-.012-.047-.027-.072-.038-.173-.077-.35-.144-.533-.194v-3.147c0-.383-.219-.731-.562-.899-.006-.003-.119-.059-.309-.167-.82-.468-3.065-1.91-4.153-4.21-.165-.348-.514-.57-.898-.572-.002 0-.004 0-.006 0-.382 0-.73.218-.898.561-.976 1.998-8.153 3.221-12.938 3.451-.533.026-.952.465-.952.999v3.982c-.108.03-.212.07-.317.11-.034.013-.069.022-.103.036-.161.066-.318.141-.468.229-.366-1.247-.552-2.545-.552-3.875 0-7.085 5.316-12.85 11.852-12.85 3.006 0 5.864 1.218 8.052 3.431 1.417 1.425 2.501 3.214 3.136 5.175.44 1.354.664 2.782.664 4.245-.001 1.345-.191 2.662-.567 3.931zm1.585-9.425c-.088-.235-.196-.46-.295-.689-.066-.153-.125-.308-.196-.458-.23-.49-.479-.971-.758-1.432-.007-.011-.015-.021-.022-.032-.273-.448-.574-.877-.891-1.292-.104-.136-.216-.262-.324-.394-.151-.184-.293-.375-.452-.551.564-1.072 1.677-1.761 2.918-1.761 1.822 0 3.306 1.482 3.306 3.305 0 1.814-1.472 3.293-3.286 3.304z"/><path d="m75.238 48.318c-2.771 1.593-5.438.071-5.551.006-.473-.28-1.085-.125-1.367.348-.283.474-.129 1.088.346 1.371.101.06 1.71 1 3.889 1 1.119 0 2.39-.248 3.681-.991.479-.275.645-.887.369-1.365-.276-.479-.886-.645-1.367-.369z"/><path d="m48.236 42.528c.542.105 1.065-.255 1.167-.798.103-.542-.255-1.065-.798-1.167l-4.105-.772c-.14-.025-.284-.022-.424.012l-3.853.948c-.536.132-.863.674-.731 1.21.112.456.521.761.97.761.079 0 .16-.009.24-.029l3.642-.896z"/><path d="m94.967 22.806c-3.169-5.595-9.052-9.046-15.497-9.046-3.23 0-6.348.863-9.096 2.506-3.109-9.644-12.116-16.266-22.364-16.266-11.608 0-21.44 8.47-23.216 19.841-6.153.445-11.024 5.594-11.024 11.859 0 1.768.4 3.508 1.166 5.102-8.86 2.436-14.936 9.434-14.936 17.398 0 8.851 7.611 16.476 17.837 18.022.633 6.585 5.688 12.59 12.828 15.12 2.337.83 4.735 1.236 7.072 1.236 4.057 0 7.925-1.225 10.948-3.579.806.04 1.593.061 2.344.061 6.278 0 12.29-1.081 17.879-3.214 3.074 2.275 6.713 3.475 10.562 3.475 8.68 0 16.087-6.297 17.552-14.775 12.034-1.301 21.348-11.605 21.348-23.805-.001-13.022-10.451-23.648-23.403-23.935zm1.108 45.817c-.475.035-.858.399-.918.871-.998 7.883-7.742 13.826-15.687 13.826-3.587 0-6.969-1.174-9.78-3.395-.28-.223-.656-.276-.988-.146-5.502 2.176-11.448 3.279-17.672 3.279-.832 0-1.711-.026-2.612-.078-.251-.013-.497.065-.691.225-4.236 3.477-10.517 4.339-16.392 2.251-6.68-2.367-11.323-8.056-11.556-14.155-.019-.492-.393-.897-.883-.955-9.632-1.131-16.896-8.073-16.896-16.146 0-7.396 6.025-13.878 14.653-15.763.317-.07.582-.29.708-.59s.098-.643-.075-.919c-.992-1.578-1.517-3.386-1.517-5.228 0-5.453 4.437-9.89 9.9-9.89.507 0 .933-.379.993-.882 1.287-10.791 10.464-18.928 21.348-18.928 9.799 0 18.357 6.617 20.812 16.091.082.318.315.575.624.688.311.114.653.067.922-.123 2.675-1.895 5.822-2.896 9.102-2.896 5.899 0 11.27 3.258 14.014 8.503.172.33.514.537.886.537h.061c12.098 0 21.939 9.842 21.939 21.94-.001 11.427-8.915 21.039-20.295 21.883z"/><path d="m17.893 86.176c-4.158 0-7.541 3.383-7.541 7.541s3.383 7.541 7.541 7.541 7.541-3.383 7.541-7.541-3.383-7.541-7.541-7.541zm0 13.082c-3.056 0-5.541-2.485-5.541-5.541s2.485-5.541 5.541-5.541 5.541 2.485 5.541 5.541-2.486 5.541-5.541 5.541z"/><path d="m11.352 104.025c-2.991 0-5.425 2.434-5.425 5.425s2.434 5.425 5.425 5.425 5.425-2.434 5.425-5.425-2.434-5.425-5.425-5.425zm0 8.85c-1.889 0-3.425-1.536-3.425-3.425s1.536-3.425 3.425-3.425 3.425 1.536 3.425 3.425-1.537 3.425-3.425 3.425z"/></g></svg>