<svg id="Capa_1" enable-background="new 0 0 122.248 123.208" height="512" viewBox="0 0 122.248 123.208" width="512" xmlns="http://www.w3.org/2000/svg"><path d="m113.115 72.024c13.36 6.21 2.437 17.088 1.997 17.468.12-.19 3.32-5.39-.93-7.89-4.32-2.54-1.067-9.578-1.067-9.578z" fill="#6f7bad"/><path d="m37.322 74.502c.02-4.72.86-9.96 2.51-15.3-.1-14.56-13.46-17.27-13.46-17.27-28.58-3.86-23.95 24.05-23.17 27.51.05.2.08.41.11.62.52 3.49-.62 8.73-.62 8.73s-4.8 14.52 1.8 20.38l.02.01c2.51-4.04 6.79-6.89 11.82-7.41.28-.02.43-.03.43-.03v-.049c3.589-.078 8.47.049 8.47.049s.16.01.44.03c5.09.47 9.42 3.38 11.92 7.51 0 0 0 .01.01.01 2.74-2.28 3.56-5.97 3.58-9.54l.4-.35c-2.87-3.38-4.28-8.69-4.26-14.9z" fill="#6f7bad"/><path d="m81.952 69.042c-.26-2.36-.62-4.72-1.14-7.04-.53-2.41-1.23-4.79-2.15-7.09-2.08-5.17-5.62-8.1-11.24-9.56-3.47-.89-9.01.92-9.01.92s-13.63-3.03-18.58 12.93c-1.65 5.34-2.49 10.58-2.51 15.3-.02 6.21 1.39 11.52 4.26 14.9 1.08 1.28 2.37 2.28 3.87 2.96 0 0 4.628 1.569 8.906-1.877 4.387.719 10.916-.036 12.197-.197 3.561 2.513 7.987 1.355 7.987 1.355 4.66-2.14 6.64-7.22 7.34-11.99.25-1.72.37-3.46.38-5.21 0-1.801-.11-3.611-.31-5.401z" fill="#7c86bb"/><path d="m110.622 117.272h-25.29-5.95v-9.8c0-8.1 6.13-14.94 14.2-15.7.28-.03.44-.03.44-.03v.44c0 2.34 1.9 4.24 4.24 4.24s4.23-1.9 4.23-4.24v-.44s.16 0 .44.03c8.09.83 14.21 7.72 14.21 15.86v9.64z" fill="#202a42"/><path d="m115.262 66.842c.31.41.54.9.68 1.43.52 2.15-.77 4.3-2.92 4.83-.31.08-.63.12-.95.12v-7.98c1.27 0 2.44.61 3.19 1.6z" fill="#dedee0"/><path d="m103.532 46.642c.02 0 14.26-.12 11.73 20.2-.75-.99-1.92-1.6-3.19-1.6v-1.39c0-.11 0-.22-.01-.33l.01-6.58-8.54 3.41-2.02-3.04c-2.65 2.94-8.4 3.04-8.4 3.04v-3.04l-8.83 3.07c-.29 1.11-.44 2.27-.44 3.47v10.01c0 .2.761 4.419.771 4.619l-2-3.436c-.23-.396-.35-.843-.357-1.301-.024-1.569-.13-3.144-.305-4.702-.26-2.36-.62-4.72-1.14-7.04l.19-.04c-.07-5.15.04-8.97 4.19-13.03 3.99-3.89 10.79-4.19 16.14-2.92.621.14 1.571.64 2.201.63z" fill="#6f7bad"/><path d="m112.072 56.942-8.54 3.41-2.02-3.04c-2.65 2.94-8.4 3.04-8.4 3.04v-3.04l-8.83 3.07c-.29 1.11-.44 2.27-.44 3.47v10.01c0 .2 0 .4.01.6.06 1.4.32 2.75.76 4.02 1.49 4.31 5 7.67 9.41 8.94 1.25.37 2.57.56 3.94.56 1.59 0 3.11-.26 4.53-.75 5.57-1.88 9.58-7.16 9.58-13.37v-10.01c0-.11 0-.22-.01-.33z" fill="#dedee0"/><path d="m102.492 91.742v.44c0 2.34-1.89 4.24-4.23 4.24s-4.24-1.9-4.24-4.24v-.44-4.32c1.25.37 2.57.56 3.94.56 1.59 0 3.11-.26 4.53-.75z" fill="#d1d1d3"/><path d="m99.472 19.142c0 5.06-2.07 9.62-5.4 12.91l1.6 7.68-5.72-4.62c-2.57 1.39-5.5 2.18-8.62 2.18h-16.85l-3.46 5.52-3.21-5.52h-16.74l-6.26 4.56v-5.67l.12.02c-3.5-1.26-6.5-3.56-8.62-6.53-2.13-2.97-3.38-6.6-3.38-10.53 0-10.02 8.12-18.14 18.14-18.14h40.26c10.02 0 18.14 8.12 18.14 18.14z" fill="#8087a0"/><path d="m79.382 122.212h-37.91v-11.46c0-8.11 6.13-14.95 14.2-15.7.28-.03.44-.04.44-.04v.44c0 2.35 1.9 4.25 4.24 4.25s4.23-1.9 4.23-4.25v-.44s.16.01.44.04c8.09.83 14.21 7.72 14.21 15.85l.08 6.37z" fill="#f7bd76"/><path d="m78.032 71.552c.52 2.14-.77 4.3-2.92 4.83-.31.07-.63.11-.95.11v-7.97c1.8 0 3.42 1.22 3.87 3.03z" fill="#dedee0"/><path d="m74.152 66.802c-1.93-.09-3.74-.44-5.46-.98h-.01c-7.37-2.33-12.66-8.15-15.07-11.24-4.56 2.32-7.68 7.07-7.68 12.55v10.01c0 5.9 3.62 10.96 8.77 13.07.44.18.89.34 1.35.47.02.01.04.01.06.02 1.25.36 2.57.56 3.94.56 1.59 0 3.11-.26 4.53-.75.01 0 .01 0 .02-.01.5-.17.99-.36 1.45-.59 4.79-2.24 8.11-7.12 8.11-12.77v-10.01c0-.11 0-.22-.01-.33z" fill="#dedee0"/><path d="m64.582 95.012v.44c0 2.35-1.89 4.25-4.23 4.25s-4.24-1.9-4.24-4.25v-.44-4.31c1.25.36 2.57.56 3.94.56 1.59 0 3.11-.26 4.53-.75z" fill="#d1d1d3"/><path d="m45.932 68.522v7.97c-1.8 0-3.42-1.22-3.87-3.03-.52-2.14.78-4.3 2.91-4.83.33-.08.65-.11.96-.11z" fill="#dedee0"/><path d="m39.872 107.472v9.8h-37.76v-9.64c0-3.07.88-5.96 2.39-8.43 0-.01.01-.01.01-.02 2.51-4.04 6.79-6.89 11.82-7.41.28-.02.43-.03.43-.03v.43c0 2.35 1.9 4.25 4.24 4.25 2.33 0 4.23-1.9 4.23-4.25v-.43s.16.01.44.03c5.09.47 9.42 3.38 11.92 7.51 0 0 0 .01.01.01 1.45 2.4 2.27 5.2 2.27 8.18z" fill="#202a42"/><path d="m32.092 57.432c-21.66 5.91-24.9 1.04-24.9 1.04v5.05c-.01.11-.01.22-.01.33v10.01c0 6.21 4.01 11.49 9.58 13.37 1.42.49 2.94.75 4.54.75 1.37 0 2.69-.2 3.93-.56 5.7-1.64 9.91-6.79 10.17-12.96.01-.2.01-.4.01-.6v-14.52s-2.32-2.18-3.32-1.91z" fill="#dedee0"/><path d="m25.232 91.742v.43c0 2.35-1.9 4.25-4.23 4.25-2.34 0-4.24-1.9-4.24-4.25v-.43-4.51c1.42.49 2.94.75 4.54.75 1.37 0 2.69-.2 3.93-.56z" fill="#d1d1d3"/><path d="m6.382 67.032c-.15 0-.31.01-.45.04-1.04.18-1.93.95-2.2 2.04-.07.31-.09.62-.06.92.11 1.12.9 2.09 2.06 2.39.07.02.14.03.2.03.15.03.3.04.45.04h.8v-5.46z" fill="#d1d1d3"/><path d="m54.522 79.012c3.062-1.264 6.07-1.405 9.21-.338 3.053 1.037 4.364-3.79 1.329-4.821-3.875-1.316-8.081-1.226-11.869.338-2.932 1.211-1.647 6.05 1.33 4.821z" fill="#f7bd76"/><path d="m91.874 76.721c3.238-1.233 6.484-1.488 9.848-.616 3.117.808 4.447-4.013 1.329-4.821-4.166-1.08-8.475-.919-12.506.616-2.977 1.134-1.686 5.969 1.329 4.821z" fill="#f7bd76"/><path d="m17.531 78.366c3.341-1.216 6.675-1.655 10.216-1.349 3.205.277 3.187-4.725 0-5-3.933-.339-7.836.178-11.545 1.528-3 1.091-1.704 5.925 1.329 4.821z" fill="#f7bd76"/><path d="m56.113 67.902c.201 0 .39-.122.466-.32.1-.257-.029-.547-.287-.646l-6.133-2.364c-.256-.099-.547.028-.646.287-.1.257.029.547.287.646l6.133 2.364c.059.023.12.033.18.033z" fill="#2c3656"/><path d="m64.589 67.902c-.201 0-.39-.122-.466-.32-.1-.257.029-.547.287-.646l6.133-2.364c.256-.099.547.028.646.287.1.257-.029.547-.287.646l-6.133 2.364c-.059.023-.12.033-.18.033z" fill="#2c3656"/><path d="m55.204 72.023c0-.839-.676-1.515-1.515-1.515s-1.515.676-1.515 1.515c0 .831.676 1.515 1.515 1.515s1.515-.684 1.515-1.515z" fill="#2c3656"/><path d="m67.135 73.538c.839 0 1.515-.684 1.515-1.515 0-.839-.676-1.515-1.515-1.515-.831 0-1.515.676-1.515 1.515 0 .831.684 1.515 1.515 1.515z" fill="#2c3656"/><path d="m59.804 80.563c.108 0 .221-.005.337-.016.55-.051.954-.539.903-1.088s-.531-.95-1.088-.903c-.478.044-.603-.122-.671-.212-1.054-1.388.359-6.964 1.699-10.481.196-.516-.062-1.094-.579-1.291-.516-.196-1.093.062-1.291.578-.605 1.587-3.518 9.644-1.422 12.403.36.475 1.011 1.01 2.112 1.01z" fill="#2c3656"/><path d="m53.996 85.11c-.356.422-.302 1.053.121 1.409.188.158.416.235.644.235.285 0 .567-.121.765-.356.17-.201 4.234-4.899 10.223-1.058.465.297 1.083.162 1.382-.302.298-.465.163-1.083-.302-1.382-7.453-4.779-12.781 1.391-12.833 1.454z" fill="#2c3656"/><path d="m93.878 65.185-5.461-2.105c-.257-.101-.547.028-.646.287-.1.257.029.547.287.646l5.461 2.105c.059.023.12.034.18.034.201 0 .39-.122.466-.32.1-.259-.029-.548-.287-.647z" fill="#2c3656"/><path d="m106.528 63.079-5.461 2.105c-.258.099-.386.389-.287.646.076.199.266.32.466.32.06 0 .121-.011.18-.034l5.461-2.105c.258-.099.386-.389.287-.646-.099-.258-.389-.386-.646-.286z" fill="#2c3656"/><path d="m91.54 68.417c-.747 0-1.349.602-1.349 1.349 0 .74.602 1.349 1.349 1.349s1.349-.609 1.349-1.349c0-.748-.602-1.349-1.349-1.349z" fill="#2c3656"/><path d="m103.513 68.417c-.74 0-1.349.602-1.349 1.349 0 .74.609 1.349 1.349 1.349.747 0 1.349-.609 1.349-1.349 0-.748-.602-1.349-1.349-1.349z" fill="#2c3656"/><path d="m97.724 77.53c-1.814 0-3.29 1.665-3.29 3.71s1.476 3.71 3.29 3.71 3.291-1.665 3.291-3.71-1.477-3.71-3.291-3.71zm0 5.421c-.699 0-1.29-.783-1.29-1.71s.591-1.71 1.29-1.71c.7 0 1.291.783 1.291 1.71s-.592 1.71-1.291 1.71z" fill="#2c3656"/><path d="m97.064 76.597c.066 0 .134-.002.202-.006.551-.034.97-.509.936-1.06-.034-.552-.517-.973-1.06-.936-.319.021-.387-.067-.417-.109-.558-.804.269-4.042 1.392-6.562.225-.504-.001-1.096-.506-1.32-.505-.226-1.095.001-1.32.505-.654 1.465-2.672 6.407-1.209 8.517.438.63 1.136.971 1.982.971z" fill="#2c3656"/><path d="m25.558 66.151c.06 0 .121-.011.18-.034l5.461-2.105c.258-.099.386-.389.287-.646-.099-.258-.39-.387-.646-.287l-5.461 2.105c-.258.099-.386.389-.287.646.076.199.265.321.466.321z" fill="#2c3656"/><path d="m12.37 64.012 5.461 2.105c.059.023.12.034.18.034.201 0 .39-.122.466-.32.1-.257-.029-.547-.287-.646l-5.461-2.105c-.256-.101-.547.028-.646.287-.1.256.029.546.287.645z" fill="#2c3656"/><path d="m27.716 68.417c-.747 0-1.349.602-1.349 1.349 0 .74.602 1.349 1.349 1.349s1.349-.609 1.349-1.349c0-.748-.602-1.349-1.349-1.349z" fill="#2c3656"/><path d="m15.743 68.417c-.747 0-1.349.602-1.349 1.349 0 .74.602 1.349 1.349 1.349.74 0 1.349-.609 1.349-1.349 0-.748-.609-1.349-1.349-1.349z" fill="#2c3656"/><path d="m22.532 74.485c-.029.042-.092.131-.417.109-.539-.033-1.026.384-1.06.936-.034.551.385 1.026.936 1.06.068.004.136.006.202.006.845 0 1.544-.34 1.981-.971 1.464-2.11-.555-7.053-1.208-8.518-.225-.504-.817-.732-1.32-.505-.504.225-.731.816-.506 1.32 1.123 2.521 1.95 5.76 1.392 6.563z" fill="#2c3656"/><path d="m74.492 86.289c-.523-.184-1.091.095-1.273.616-.601 1.727-2.924 3.068-3.769 3.44-.505.222-.736.812-.515 1.317.165.375.531.599.917.599.133 0 .269-.027.398-.083.157-.068 3.845-1.704 4.857-4.615.183-.523-.093-1.093-.615-1.274z" fill="#6f7bad"/><path d="m49.697 92.261c.386 0 .753-.225.917-.601.221-.506-.011-1.096-.517-1.316-.843-.368-3.163-1.702-3.767-3.439-.182-.521-.75-.8-1.273-.616-.521.181-.797.751-.616 1.273 1.012 2.912 4.7 4.547 4.857 4.615.13.057.266.084.399.084z" fill="#6f7bad"/><path d="m22.169 78.755c-2.465-.28-4.717 1.646-4.812 1.729-.418.361-.464.993-.103 1.41.36.418.992.464 1.41.103.017-.015 1.706-1.44 3.275-1.255.654.075 1.204.431 1.681 1.087.196.269.5.412.81.412.204 0 .41-.062.587-.191.446-.325.545-.95.22-1.397-.812-1.118-1.845-1.757-3.068-1.898z" fill="#2c3656"/><path d="m113.16 47.054c.14 0 .282-.029.417-.091 1.435-.659 2.286-1.574 2.53-2.721.369-1.735-.855-3.188-.996-3.349-.365-.414-.997-.455-1.412-.09s-.455.997-.09 1.412c.15.171.683.945.542 1.612-.105.494-.579.938-1.408 1.319-.502.23-.722.824-.491 1.326.167.366.529.582.908.582z" fill="#2c3656"/><path d="m121.076 43.911c-.302.05-1.192.085-1.673-.367-.366-.345-.501-.978-.403-1.881.06-.549-.336-1.043-.885-1.103-.548-.054-1.042.337-1.103.885-.171 1.57.177 2.771 1.035 3.568.833.774 1.902.927 2.618.927.401 0 .691-.048.767-.062.541-.1.896-.616.8-1.157s-.616-.903-1.156-.81z" fill="#2c3656"/><path d="m114.048 47.857c-.327.445-.231 1.071.213 1.398.445.328 1.071.231 1.398-.213.135-.183.778-.869 1.459-.873h.006c.503 0 1.036.368 1.583 1.094.197.261.496.398.8.398.209 0 .42-.065.601-.201.441-.333.529-.959.197-1.4-.945-1.255-2.015-1.891-3.179-1.891-.006 0-.013 0-.019 0-1.773.01-2.932 1.516-3.059 1.688z" fill="#2c3656"/><path d="m4.019 35.873c.232-.021 1.166.044 1.603.566.325.387.382 1.034.171 1.921-.127.537.205 1.076.742 1.204.078.018.155.027.232.027.453 0 .863-.309.972-.769.365-1.537.168-2.771-.585-3.668-1.141-1.36-3.04-1.29-3.252-1.278-.551.032-.972.505-.94 1.057.033.551.507.968 1.057.94z" fill="#2c3656"/><path d="m8.463 34.139c.165 0 .33-.013.495-.04 1.751-.28 2.667-1.945 2.766-2.134.254-.487.066-1.085-.419-1.343s-1.09-.072-1.351.412c-.146.27-.667.992-1.319 1.092-.498.077-1.08-.207-1.73-.841-.395-.386-1.028-.377-1.414.019-.385.396-.377 1.028.019 1.414.97.945 1.961 1.421 2.953 1.421z" fill="#2c3656"/><path d="m8.734 39.001c.124.441.525.73.962.73.089 0 .18-.012.271-.038.532-.149.842-.701.693-1.233-.062-.219-.206-1.147.211-1.687.309-.4.944-.601 1.841-.578.535-.009 1.008-.43 1.018-.982s-.43-1.008-.982-1.018c-1.59-.011-2.743.428-3.46 1.355-1.084 1.406-.611 3.245-.554 3.451z" fill="#2c3656"/><path d="m8.562 117.272v-7.25c0-.54.44-.98.99-.98.54 0 .98.44.98.98v7.25z" fill="#151e30"/><path d="m32.022 110.022v7.25h-1.97v-7.25c0-.54.44-.98.99-.98.54 0 .98.44.98.98z" fill="#151e30"/><path d="m84.352 117.272v-7c0-.54.44-.98.98-.98.55 0 .99.44.99.98v7z" fill="#151e30"/><path d="m109.692 117.272v-7c0-.54.44-.98.98-.98.55 0 .99.44.99.98v7z" fill="#151e30"/><g fill="#18273d"><path d="m56.113 67.902c.201 0 .39-.122.466-.32.1-.257-.029-.547-.287-.646l-6.133-2.364c-.256-.099-.547.028-.646.287-.1.257.029.547.287.646l6.133 2.364c.059.023.12.033.18.033z"/><path d="m55.204 72.023c0-.839-.676-1.515-1.515-1.515s-1.515.676-1.515 1.515c0 .831.676 1.515 1.515 1.515s1.515-.684 1.515-1.515z"/><path d="m67.135 73.538c.839 0 1.515-.684 1.515-1.515 0-.839-.676-1.515-1.515-1.515-.831 0-1.515.676-1.515 1.515 0 .831.684 1.515 1.515 1.515z"/><path d="m59.804 80.563c.108 0 .221-.005.337-.016.55-.051.954-.539.903-1.088s-.531-.95-1.088-.903c-.478.044-.603-.122-.671-.212-1.054-1.388.359-6.964 1.699-10.481.196-.516-.062-1.094-.579-1.291-.516-.196-1.093.062-1.291.578-.605 1.587-3.518 9.644-1.422 12.403.36.475 1.011 1.01 2.112 1.01z"/><path d="m53.996 85.11c-.356.422-.302 1.053.121 1.409.188.158.416.235.644.235.285 0 .567-.121.765-.356.17-.201 4.234-4.899 10.223-1.058.465.297 1.083.162 1.382-.302.298-.465.163-1.083-.302-1.382-7.453-4.779-12.781 1.391-12.833 1.454z"/><path d="m93.878 65.185-5.461-2.105c-.257-.101-.547.028-.646.287-.1.257.029.547.287.646l5.461 2.105c.059.023.12.034.18.034.201 0 .39-.122.466-.32.1-.259-.029-.548-.287-.647z"/><path d="m106.528 63.079-5.461 2.105c-.258.099-.386.389-.287.646.076.199.266.32.466.32.06 0 .121-.011.18-.034l5.461-2.105c.258-.099.386-.389.287-.646-.099-.258-.389-.386-.646-.286z"/><path d="m91.54 68.417c-.747 0-1.349.602-1.349 1.349 0 .74.602 1.349 1.349 1.349s1.349-.609 1.349-1.349c0-.748-.602-1.349-1.349-1.349z"/><path d="m103.513 68.417c-.74 0-1.349.602-1.349 1.349 0 .74.609 1.349 1.349 1.349.747 0 1.349-.609 1.349-1.349 0-.748-.602-1.349-1.349-1.349z"/><path d="m97.724 77.53c-1.814 0-3.29 1.665-3.29 3.71s1.476 3.71 3.29 3.71 3.291-1.665 3.291-3.71-1.477-3.71-3.291-3.71zm0 5.421c-.699 0-1.29-.783-1.29-1.71s.591-1.71 1.29-1.71c.7 0 1.291.783 1.291 1.71s-.592 1.71-1.291 1.71z"/><path d="m97.064 76.597c.066 0 .134-.002.202-.006.551-.034.97-.509.936-1.06-.034-.552-.517-.973-1.06-.936-.319.021-.387-.067-.417-.109-.558-.804.269-4.042 1.392-6.562.225-.504-.001-1.096-.506-1.32-.505-.226-1.095.001-1.32.505-.654 1.465-2.672 6.407-1.209 8.517.438.63 1.136.971 1.982.971z"/><path d="m25.558 66.151c.06 0 .121-.011.18-.034l5.461-2.105c.258-.099.386-.389.287-.646-.099-.258-.39-.387-.646-.287l-5.461 2.105c-.258.099-.386.389-.287.646.076.199.265.321.466.321z"/><path d="m12.37 64.012 5.461 2.105c.059.023.12.034.18.034.201 0 .39-.122.466-.32.1-.257-.029-.547-.287-.646l-5.461-2.105c-.256-.101-.547.028-.646.287-.1.256.029.546.287.645z"/><path d="m27.716 68.417c-.747 0-1.349.602-1.349 1.349 0 .74.602 1.349 1.349 1.349s1.349-.609 1.349-1.349c0-.748-.602-1.349-1.349-1.349z"/><path d="m15.743 68.417c-.747 0-1.349.602-1.349 1.349 0 .74.602 1.349 1.349 1.349.74 0 1.349-.609 1.349-1.349 0-.748-.609-1.349-1.349-1.349z"/><path d="m22.532 74.485c-.029.042-.092.131-.417.109-.539-.033-1.026.384-1.06.936-.034.551.385 1.026.936 1.06.068.004.136.006.202.006.845 0 1.544-.34 1.981-.971 1.464-2.11-.555-7.053-1.208-8.518-.225-.504-.817-.732-1.32-.505-.504.225-.731.816-.506 1.32 1.123 2.521 1.95 5.76 1.392 6.563z"/><path d="m74.492 86.289c-.523-.184-1.091.095-1.273.616-.601 1.727-2.924 3.068-3.769 3.44-.505.222-.736.812-.515 1.317.165.375.531.599.917.599.133 0 .269-.027.398-.083.157-.068 3.845-1.704 4.857-4.615.183-.523-.093-1.093-.615-1.274z"/><path d="m49.697 92.261c.386 0 .753-.225.917-.601.221-.506-.011-1.096-.517-1.316-.843-.368-3.163-1.702-3.767-3.439-.182-.521-.75-.8-1.273-.616-.521.181-.797.751-.616 1.273 1.012 2.912 4.7 4.547 4.857 4.615.13.057.266.084.399.084z"/><path d="m114.445 90.251c.188.165.423.247.658.247.229 0 .459-.079.646-.237.232-.196 5.68-4.875 4.964-10.208-.365-2.717-2.235-5.037-5.563-6.915 1.482-1.176 2.24-3.145 1.763-5.104-.131-.527-.347-1.013-.623-1.454.852-7.372-.359-12.983-3.624-16.661-3.733-4.204-8.794-4.278-9.138-4.278-.007 0-.01-.001-.016 0-.208 0-.697-.181-1.021-.301-.34-.126-.667-.243-.927-.302-5.37-1.275-12.673-1.109-17.07 3.178-2.743 2.684-3.829 5.359-4.25 8.084-.209-.599-.426-1.188-.657-1.763-2.158-5.379-5.944-8.604-11.916-10.15-3.303-.854-8.127.494-9.309.854-4.567-.9-13.238.267-17.946 9.792-2.333-11.597-13.729-14.053-13.915-14.088-8.976-1.212-15.688.524-19.947 5.169-7.645 8.34-4.47 22.926-4.331 23.543.684 3.041-.38 8.316-.497 8.872-.361 1.117-4.516 14.479 1.535 20.837-1.402 2.535-2.148 5.374-2.148 8.266v9.639c0 .552.448 1 1 1h37.759c.23 0 .431-.091.6-.221v4.158c0 .552.448 1 1 1h37.91c.268 0 .524-.107.712-.298s.292-.448.288-.716l-.053-3.924h36.81c.552 0 1-.448 1-1v-9.643c0-8.558-6.258-15.678-14.643-16.781v-2.926c3.636-1.426 6.495-4.167 8.11-7.572.426.806 1.087 1.537 2.073 2.116.873.513 1.397 1.174 1.603 2.02.495 2.042-1.008 4.453-1.022 4.475-.266.418-.187.967.185 1.292zm.526-21.739c.366 1.504-.474 3.028-1.897 3.535v-5.63c.924.328 1.651 1.1 1.897 2.095zm-29.081-18.865c3.815-3.719 10.359-3.814 15.222-2.66.198.044.435.136.683.228.54.2 1.15.426 1.711.426.012 0 .038.002.032 0 .066 0 4.466.035 7.638 3.613 2.65 2.99 3.735 7.566 3.269 13.59-.424-.229-.887-.39-1.371-.489v-.504c0-.13-.001-.27-.008-.325l.008-6.582c0-.332-.164-.642-.438-.828-.275-.187-.624-.225-.932-.102l-7.789 3.102-1.566-2.358c-.171-.257-.451-.421-.759-.444-.315-.022-.609.098-.816.327-1.703 1.888-4.994 2.46-6.658 2.632v-1.962c0-.324-.157-.627-.42-.815-.265-.188-.603-.236-.908-.13l-8.837 3.064c-.318.11-.559.373-.642.699-.307 1.21-.462 2.462-.462 3.721v4.27c-.244-2.03-.555-3.945-.936-5.755.058-.129.094-.269.092-.419-.072-5.197.079-8.572 3.887-12.299zm-77.861-2.181c3.789-4.134 9.913-5.659 18.14-4.55.125.025 12.484 2.688 12.66 16.155-1.345 4.378-2.141 8.595-2.419 12.5v-12.225c0-.275-.113-.538-.313-.727-1.017-.959-2.915-2.512-4.265-2.149-20.179 5.504-23.807 1.449-23.812 1.448-.245-.368-.701-.529-1.122-.402-.422.128-.71.517-.71.958l.006 4.975c-.01.131-.011.273-.011.404v2.2c-.907.049-1.735.421-2.363 1.02-.563-4.244-1.104-13.811 4.209-19.607zm29.733 50.267c-2.704-3.802-6.903-6.329-11.531-6.902v-2.689c5.506-1.898 9.437-6.868 10.077-12.628.123 5.697 1.475 10.506 3.956 13.839-.052.12-.081.252-.082.391-.015 3.511-.83 6.188-2.42 7.989zm-29.573-37.403c2.737 1.18 9.242 2.135 24.119-1.917.353.045 1.281.658 2.103 1.375v14.073c0 5.81-3.883 10.987-9.45 12.596-.005.001-.01-.001-.014.001-2.511.746-5.35.687-7.858-.172-.007-.003-.015-.002-.023-.005-5.314-1.802-8.884-6.791-8.884-12.42v-10.008c0-.081-.001-.167.008-.327zm9.576 31.408v-3.174c.03.007.061.01.091.017.453.106.912.188 1.375.252.098.013.195.025.293.036.441.052.886.085 1.334.098.066.002.131.007.197.008.081.001.161.01.242.01.432 0 .861-.024 1.288-.061.043-.004.084-.01.127-.014.473-.044.942-.111 1.406-.2.037-.007.076-.009.114-.016v3.044.437c0 1.788-1.451 3.243-3.233 3.243s-3.233-1.455-3.233-3.243v-.437zm-12.381-23.384v2.823c-.56-.401-.851-1.118-.678-1.826.103-.416.349-.764.678-.997zm-1.74 10.749c.011-.033.02-.067.027-.102.038-.174.662-3.095.762-6.078.323.201.67.369 1.058.465.006.001.012.003.017.004.231.053.453.067.674.08v.39c0 6.251 3.827 11.808 9.583 14.062v2.924c-4.587.605-8.643 3.033-11.372 6.775-4.857-5.808-.793-18.388-.749-18.52zm22.548 13.729c4.338.596 8.247 3.166 10.546 6.967 1.397 2.302 2.136 4.956 2.136 7.676v8.796h-.001-6.854v-6.091c0-.552-.448-1-1-1s-1 .448-1 1v6.091h-19.434v-6.091c0-.552-.448-1-1-1s-1 .448-1 1v6.091h-5.471v-8.639c0-2.784.775-5.518 2.238-7.899 2.348-3.781 6.145-6.27 10.455-6.894.282 2.664 2.561 4.7 5.226 4.683 2.642-.017 4.883-2.048 5.159-4.69zm14.67 14.337c-.049-2.703-.741-5.338-2.015-7.691 1.902-1.893 3.005-4.602 3.269-8.102.879.777 1.853 1.416 2.921 1.899.134.061.274.089.412.089.381 0 .745-.219.912-.588.228-.503.004-1.096-.499-1.323-7.615-3.444-9.749-16.884-5.073-31.957 4.607-14.855 16.885-12.36 17.405-12.247.175.039.357.031.528-.026.053-.017 5.303-1.711 8.447-.899 5.376 1.392 8.633 4.155 10.56 8.958 1.581 3.94 2.636 8.476 3.227 13.867.42 3.824.4 7.213-.062 10.359-.583 3.967-2.23 9.133-6.769 11.222-.502.23-.721.825-.491 1.326.231.502.827.721 1.327.491 5.353-2.463 7.256-8.292 7.911-12.748.139-.948.23-1.923.294-2.914 1.066 5.169 4.798 9.513 9.86 11.255v2.7c-7.201.878-12.832 6.217-14.273 13.132-2.322-5.234-7.2-9.066-13.167-9.85v-2.925c5.678-2.227 9.467-7.664 9.568-13.81.063-.012.125-.018.188-.033.005-.001.01-.002.015-.004 2.661-.658 4.297-3.366 3.646-6.041-.417-1.682-1.652-2.98-3.218-3.517.44-.014.883-.02 1.313-.06.55-.051.955-.538.903-1.088-.051-.55-.538-.952-1.088-.903-.881.081-1.792.101-2.712.062-1.045-.049-2.093-.191-3.135-.404.142-.135.198-.347.122-.541-.099-.258-.39-.385-.646-.287l-1.106.426c-.151-.044-.302-.079-.452-.126-7.046-2.227-12.158-7.789-14.578-10.907-.894-1.156-1.376-1.932-1.38-1.94-.291-.47-.906-.615-1.376-.325s-.616.906-.326 1.375c.016.025.293.473.811 1.19-4.467 2.726-7.198 7.551-7.198 12.863v.499c-.067.014-.135.021-.202.037-2.661.66-4.297 3.365-3.645 6.036.479 1.904 2 3.308 3.857 3.685.105 6.345 4.222 11.984 10.17 14.033v2.7c-7.174.875-12.786 6.176-14.255 13.052zm55.613-18.267c.081.008.16.019.241.026.413.034.827.056 1.244.056.068 0 .134-.007.202-.008.118-.002.235-.01.353-.014.386-.014.77-.042 1.151-.085.142-.016.283-.032.424-.052.398-.056.791-.129 1.181-.217.074-.017.151-.023.225-.041v3.172.44c0 1.788-1.451 3.243-3.235 3.243s-3.235-1.455-3.235-3.243v-.44-3.042c.062.012.127.015.19.027.416.077.836.137 1.259.178zm-49.539-12.407v-7.973-1.393c0-4.679 2.44-8.926 6.421-11.269 2.498 3.079 7.051 7.751 13.196 10.249l-2.144.826c-.258.099-.386.389-.287.646.076.199.266.32.466.32.06 0 .121-.011.18-.034l3.199-1.233c.14.047.275.1.416.145 1.574.492 3.177.813 4.78.958v.784 7.973.644c0 5.635-3.576 10.628-8.902 12.427-1.565.535-3.252.762-4.918.673-1-.053-1.994-.22-2.951-.502-5.568-1.604-9.457-6.785-9.457-12.599zm28.228-6.802c.924.328 1.65 1.1 1.897 2.095.366 1.505-.475 3.029-1.897 3.536zm-18.048 25.322v-3.042c.063.013.128.015.191.027.413.076.829.136 1.248.177.085.008.169.02.255.027.411.034.824.055 1.24.055.067 0 .133-.007.199-.008.12-.002.239-.01.359-.015.386-.014.77-.042 1.151-.085.14-.016.279-.032.418-.051.402-.057.801-.13 1.196-.219.071-.016.144-.022.214-.039v3.172.44c0 1.788-1.451 3.243-3.235 3.243s-3.235-1.455-3.235-3.243v-.439zm-12.18-19.693c-.925-.329-1.655-1.105-1.905-2.103-.367-1.5.477-3.022 1.905-3.529zm20.606 20.797c7.276 1.057 12.686 7.304 12.686 14.784v.014l.14 10.291h-5.361v-6.041c0-.552-.448-1-1-1s-1 .448-1 1v6.041h-21.734v-6.041c0-.552-.448-1-1-1s-1 .448-1 1v6.041h-4.801v-10.458c0-7.466 5.413-13.654 12.684-14.637.344 2.715 2.708 4.724 5.366 4.637 2.533-.083 4.692-2.047 5.02-4.631zm37.914-3.277c7.274 1.059 12.684 7.306 12.684 14.786v8.643h-4.513v-6.091c0-.552-.448-1-1-1s-1 .448-1 1v6.091h-23.296v-6.091c0-.552-.448-1-1-1s-1 .448-1 1v6.091h-3.948v-8.798c0-7.467 5.413-13.655 12.685-14.637.226 2.681 2.482 4.768 5.158 4.787 2.7.019 4.999-2.075 5.23-4.781zm-1.284-6.553c-2.186.749-4.611.892-6.882.419-.006-.001-.011-.002-.017-.003-.179-.037-.354-.088-.531-.133-.146-.037-.294-.068-.439-.11-5.568-1.604-9.458-6.785-9.458-12.599v-10.01c0-.915.094-1.824.281-2.711l6.988-2.423v1.629c0 .268.107.525.298.713s.47.3.717.287c.228-.004 5.109-.111 8.199-2.507l1.369 2.061c.262.395.763.552 1.203.376l7.172-2.856-.004 5.18c.006.082.005.17.005.252v1.393 7.973.644c.001 5.632-3.575 10.626-8.901 12.425zm12.521-5.548c-2.593-1.524-1.692-4.642-1.055-6.149 3.084 1.609 4.796 3.532 5.092 5.722.24 1.771-.456 3.522-1.351 4.965-.005-.415-.05-.836-.151-1.254-.333-1.386-1.186-2.49-2.535-3.284z"/><path d="m22.169 78.755c-2.465-.28-4.717 1.646-4.812 1.729-.418.361-.464.993-.103 1.41.36.418.992.464 1.41.103.017-.015 1.706-1.44 3.275-1.255.654.075 1.204.431 1.681 1.087.196.269.5.412.81.412.204 0 .41-.062.587-.191.446-.325.545-.95.22-1.397-.812-1.118-1.845-1.757-3.068-1.898z"/><path d="m33.808 36.84v5.015c0 .376.211.721.546.891.335.171.738.139 1.042-.083l6.005-4.373h15.833l2.927 5.021c.176.303.498.491.848.497h.016c.344 0 .664-.177.847-.469l3.166-5.049h16.29c2.95 0 5.875-.686 8.502-1.988l5.212 4.208c.328.265.788.295 1.149.075s.544-.643.458-1.057l-1.486-7.156c3.429-3.58 5.311-8.256 5.311-13.228 0-10.555-8.589-19.144-19.146-19.144h-40.252c-10.557 0-19.146 8.589-19.146 19.146 0 7.753 4.74 14.76 11.878 17.694zm7.268-34.84h40.252c9.454 0 17.146 7.691 17.146 17.146 0 4.616-1.812 8.947-5.101 12.196-.241.238-.345.583-.276.915l1.026 4.942-3.544-2.861c-.314-.253-.75-.293-1.104-.101-2.486 1.345-5.303 2.056-8.146 2.056h-16.844c-.344 0-.665.177-.847.469l-2.581 4.117-2.384-4.089c-.179-.308-.508-.497-.864-.497h-16.733c-.211 0-.417.067-.589.191l-4.679 3.407v-3.211c.037-.068.067-.142.088-.221.134-.501-.139-1.022-.627-1.198-6.782-2.445-11.339-8.921-11.339-16.115 0-9.455 7.692-17.146 17.146-17.146z"/><path d="m36.564 12.012h48c.552 0 1-.448 1-1s-.448-1-1-1h-48c-.552 0-1 .448-1 1s.448 1 1 1z"/><path d="m36.564 20.11h42.844c.552 0 1-.448 1-1s-.448-1-1-1h-42.844c-.552 0-1 .448-1 1s.448 1 1 1z"/><path d="m36.564 28.043h42.844c.552 0 1-.448 1-1s-.448-1-1-1h-42.844c-.552 0-1 .448-1 1s.448 1 1 1z"/></g></svg>