<svg enable-background="new 0 0 92.91 120.7" height="512" viewBox="0 0 92.91 120.7" width="512" xmlns="http://www.w3.org/2000/svg"><path d="m71.539 45.843h-.019v-42.673c0-1.2-.96-2.17-2.16-2.17h-66.2c-1.2 0-2.16.97-2.16 2.17v114.36c0 1.2.96 2.17 2.16 2.17h66.2c1.2 0 2.16-.97 2.16-2.17v-17.627h.019z" fill="#202a42"/><path d="m66.013 104.03c0 1.16-.94 2.1-2.1 2.1h-55.15c-1.15 0-2.09-.94-2.09-2.09v-94.27c0-1.16.94-2.1 2.09-2.1h55.16c1.15 0 2.09.94 2.09 2.1v36.073h-.022v54.059h.022z" fill="#f6f8f9"/><path d="m49.141 58.513c-.209-.616-.786-1.063-1.471-1.063h-14.94-14.01c-.86 0-1.56.7-1.56 1.56v25.04l-3.91 3.62h8.523 5.157 11.35 8.425.965.02c-.036-.055-.068-.112-.103-.167.958-.359 1.643-1.275 1.643-2.358v-25.855-.28-.497z" fill="#dee1e9"/><path d="m71.52 50.75c11.55 1.77 20.39 11.74 20.39 23.78s-8.84 22.01-20.39 23.77c-.25.04-.5.08-.76.11-.96.12-1.93.18-2.92.18-.64 0-1.28-.03-1.91-.09-.26-.01-.51-.03-.76-.06-1.66-.18-3.27-.53-4.81-1.04-5.25-1.71-9.71-5.19-12.67-9.73-.95-1.45-1.75-3.02-2.37-4.67-.57-1.49-.99-3.06-1.24-4.68-.2-1.23-.3-2.5-.3-3.79 0-4.9 1.46-9.46 3.99-13.27.45-.68.94-1.34 1.46-1.97 1.13-1.39 2.42-2.66 3.84-3.76 2.17-1.69 4.63-3.01 7.29-3.88 1.54-.51 3.15-.86 4.81-1.04.25-.03.5-.05.76-.06.63-.06 1.27-.09 1.91-.09.99 0 1.96.06 2.92.18.26.03.51.07.76.11z" fill="#7c86bb"/><path d="m67.84 85.96c1.36 0 2.47 1.1 2.47 2.46s-1.11 2.47-2.47 2.47-2.46-1.11-2.46-2.47 1.1-2.46 2.46-2.46z" fill="#f7bd76"/><path d="m69.62 59.94v21.17c0 .98-.8 1.78-1.78 1.78s-1.77-.8-1.77-1.78v-21.17c0-.98.79-1.78 1.77-1.78s1.78.8 1.78 1.78z" fill="#f7bd76"/><path d="m44.21 36.66c3.34 0 6.04 2.71 6.04 6.04 0 3.34-2.7 6.04-6.04 6.04h-22.44-6.45l2.76-3.04c-.5-.88-.8-1.91-.8-3 0-3.33 2.71-6.04 6.04-6.04z" fill="#8087a0"/><path d="m44.01 110.34c1.34 0 2.43 1.09 2.43 2.43 0 .68-.27 1.28-.71 1.73-.44.44-1.05.71-1.72.71h-15.5c-1.34 0-2.43-1.09-2.43-2.44 0-.67.27-1.28.71-1.72s1.05-.71 1.72-.71z" fill="#f6f8f9"/><path d="m32.65 17.09c3.34 0 6.04 2.7 6.04 6.04 0 3.33-2.7 6.04-6.04 6.04h-10.88-6.45l2.76-3.05c-.5-.89-.8-1.9-.8-2.99 0-3.34 2.71-6.04 6.04-6.04z" fill="#8087a0"/><path d="m44.608 41.701h-21.078c-.552 0-1 .448-1 1s.448 1 1 1h21.078c.552 0 1-.448 1-1s-.447-1-1-1z" fill="#2c3656"/><path d="m23.53 24.127h9.518c.552 0 1-.448 1-1s-.448-1-1-1h-9.518c-.552 0-1 .448-1 1s.448 1 1 1z" fill="#2c3656"/><path d="m38.08 64.95h2.92v3.45h-2.92z" fill="#231f20"/><path d="m38 73.79c.27.31 1.15 1.55.47 3.99l-1.85 5.19-.07.08c-.1-.11-.2-.2-.29-.3-.89-.91 0-2.75 0-2.75l-.06-.09c.53-.32.88-.87.88-1.58 0-1.21-.02-2.03-1.21-2.18-.06-.01-.12-.02-.18-.01l.01-.16c.28-1.69.64-2.91.64-2.91l.11-.28c.56.2 1.06.52 1.48.92 0 0 .03.03.07.08z" fill="#f6f8f9"/><path d="m38.08 68.4v5.46c-.03-.03-.05-.05-.08-.07-.04-.05-.07-.08-.07-.08-.42-.4-.92-.72-1.48-.92-.46-.18-.95-.27-1.47-.27h-1.17v-1.38c-.27.06-.55.09-.83.09.22 0 .43-.03.64-.09.05-.01.09-.02.13-.03 1.26-.33 2.27-1.27 2.67-2.5.13.06.27.09.42.09.29 0 .55-.11.75-.3z" fill="#7c86bb"/><path d="m38.08 64.95v3.45h-.49c.23-.2.38-.5.38-.84 0-.63-.51-1.14-1.14-1.14-.07 0-.15.01-.22.02v-1.49z" fill="#231f20"/><path d="m38.08 64.7v.25h-1.47v-.97c-1.19-.31-1.78-.57-2.17-1.14-1.02 1.56-5.48 1.15-5.48 1.15v.96h-1.59v-.25c0-2.96 2.4-5.36 5.36-5.36 1.48 0 2.82.6 3.79 1.57.96.97 1.56 2.31 1.56 3.79z" fill="#7c86bb"/><path d="m37.97 67.56c0 .34-.15.64-.38.84h-1.1c.08-.32.13-.65.13-1l-.01-.96c.07-.01.15-.02.22-.02.63 0 1.14.51 1.14 1.14z" fill="#231f20"/><path d="m36.61 66.44.01.96c0 .35-.05.68-.13 1h-7.39c-.09-.31-.13-.64-.13-.98l-.01-.98v-1.49h7.65z" fill="#231f20"/><path d="m36.61 63.98v.97h-7.65v-.96s4.46.41 5.48-1.15c.39.57.98.83 2.17 1.14z" fill="#f6f8f9"/><path d="m36.49 68.4c-.02.07-.05.14-.07.21-.4 1.23-1.41 2.17-2.67 2.5-.04.01-.08.02-.13.03-.21.06-.42.09-.64.09-.02 0-.03 0-.05 0-.05 0-.09 0-.13 0-.32 0-.64-.04-.94-.11-.06-.02-.13-.03-.19-.05-1.17-.36-2.1-1.26-2.49-2.41-.03-.08-.06-.17-.08-.26z" fill="#f6f8f9"/><path d="m36.55 83.05c-.1-.11-.2-.2-.29-.3-.89-.91 0-2.75 0-2.75l-.06-.09c-.36.22-.81.34-1.3.34-1.2 0-2.17-.72-2.17-1.92 0-1.16 1.47-2.29 2.96-2.19l.01-.16c.28-1.69.64-2.91.64-2.91l.11-.28c-.46-.18-.95-.27-1.47-.27h-1.17v-1.38c-.27.06-.55.09-.83.09-.02 0-.03 0-.05 0-.05 0-.09 0-.13 0-.32 0-.64-.04-.94-.11v1.4h-1.26c-.75 0-1.46.2-2.08.55 0 0 .44 1.22.72 2.91l.01.16c1.51-.13 3.02 1.01 3.02 2.19 0 1.2-.98 1.92-2.18 1.92-.42 0-.8-.09-1.13-.25 0 0 .89 1.84 0 2.75-.11.11-.22.22-.33.34-.84.86-1.8 1.96-1.7 3.91v.67h11.35v-.67c.11-1.98-.89-3.09-1.73-3.95z" fill="#f6f8f9"/><path d="m31.86 71.12v1.4h-1.26c-.75 0-1.46.2-2.08.55-.44.24-.83.56-1.15.93v-5.6h.68c.21.19.49.31.79.31.12 0 .23-.01.34-.05.39 1.15 1.32 2.05 2.49 2.41.06.02.13.03.19.05z" fill="#7c86bb"/><path d="m29.24 75.98.01.16c-.04 0-.09 0-.13.01-1.19.15-1.2.97-1.2 2.18 0 .78.41 1.36 1.04 1.67 0 0 .89 1.84 0 2.75-.11.11-.22.22-.33.34l-.19-.12-1.61-4.9c-.79-2.84.54-4.07.54-4.07.32-.37.71-.69 1.15-.93 0 0 .44 1.22.72 2.91z" fill="#f6f8f9"/><path d="m29.1 68.4h-1.05c-.21-.21-.35-.5-.35-.82 0-.62.51-1.14 1.13-1.14h.13l.01.98c0 .34.04.67.13.98z" fill="#231f20"/><path d="m28.96 64.95v1.49c-.04 0-.08 0-.13 0-.62 0-1.13.52-1.13 1.14 0 .32.14.61.35.82h-.68v-3.45z" fill="#231f20"/><path d="m25.21 64.95h2.16v3.45h-2.16z" fill="#231f20"/><path d="m25.21 64.95h15.79v3.45h-15.79z" fill="#2c3656"/><path d="m35.87 76.15c-.027-.004-.053-.002-.08-.004l.781-3.327-.243-.057-.795 3.383c-1.434-.014-2.804 1.066-2.804 2.185 0 1.2.97 1.92 2.17 1.92.49 0 .94-.12 1.3-.34.53-.32.88-.87.88-1.58.001-1.21-.019-2.03-1.209-2.18z" fill="#f7bd76"/><path d="m29.25 76.14.121-.029-.73-3.07-.243.059.726 3.051c-.001 0-.003 0-.004 0-1.19.15-1.2.97-1.2 2.18 0 .78.41 1.36 1.04 1.67.33.16.71.25 1.13.25 1.2 0 2.18-.72 2.18-1.92 0-1.181-1.51-2.321-3.02-2.191z" fill="#f7bd76"/><g fill="#18273d"><path d="m44.214 35.662h-20.893c-3.881 0-7.039 3.158-7.039 7.04 0 .975.206 1.94.598 2.832l-2.298 2.536c-.265.293-.333.715-.173 1.077s.519.595.914.595h28.892c3.881 0 7.039-3.158 7.039-7.04s-3.158-7.04-7.04-7.04zm0 12.079h-26.635l1.177-1.298c.346-.312.432-.828.196-1.239-.438-.763-.669-1.628-.669-2.502 0-2.779 2.261-5.04 5.039-5.04h20.894c2.778 0 5.039 2.261 5.039 5.04s-2.262 5.039-5.041 5.039z"/><path d="m44.608 41.701h-21.078c-.552 0-1 .448-1 1s.448 1 1 1h21.078c.552 0 1-.448 1-1s-.447-1-1-1z"/><path d="m15.323 30.167h17.331c3.881 0 7.039-3.158 7.039-7.04 0-3.881-3.158-7.039-7.039-7.039h-9.333c-3.881 0-7.039 3.158-7.039 7.039 0 .975.206 1.94.599 2.833l-2.298 2.536c-.266.293-.334.715-.173 1.077.159.36.517.594.913.594zm3.628-4.538c-.438-.763-.669-1.628-.669-2.502 0-2.778 2.261-5.039 5.039-5.039h9.333c2.778 0 5.039 2.261 5.039 5.039 0 2.779-2.261 5.04-5.039 5.04h-15.075l1.179-1.301c.345-.314.428-.828.193-1.237z"/><path d="m23.53 24.127h9.518c.552 0 1-.448 1-1s-.448-1-1-1h-9.518c-.552 0-1 .448-1 1s.448 1 1 1z"/><path d="m92.91 74.53c0-11.976-8.714-22.386-20.39-24.598v-46.762c0-1.748-1.417-3.17-3.16-3.17h-66.2c-1.743 0-3.16 1.422-3.16 3.17v114.36c0 1.748 1.417 3.17 3.16 3.17h66.2c1.742 0 3.16-1.422 3.16-3.17v-18.412c11.679-2.205 20.39-12.609 20.39-24.588zm-22.39 43c0 .646-.52 1.17-1.16 1.17h-66.2c-.64 0-1.16-.524-1.16-1.17v-114.36c0-.645.52-1.17 1.16-1.17h66.2c.64 0 1.16.525 1.16 1.17v46.435c-.181-.02-.369-.031-.553-.047-.155-.013-.307-.029-.463-.039-.266-.018-.532-.027-.8-.037-.148-.005-.296-.014-.444-.016-.28-.005-.554 0-.828.005-.13.002-.262 0-.389.005-.038.001-.075.003-.113.005v-39.711c0-1.709-1.386-3.1-3.09-3.1h-55.16c-1.704 0-3.09 1.391-3.09 3.1v94.271c0 1.704 1.386 3.09 3.09 3.09h55.15c1.709 0 3.1-1.391 3.1-3.101v-4.461c.247.01.494.011.741.014.057 0 .113.008.169.008.045 0 .09-.004.135-.004.857-.003 1.712-.05 2.545-.141zm-6.784-67.733c-.269.044-.535.099-.802.151-.149.029-.299.054-.448.086-.292.063-.58.138-.869.212-.12.031-.243.057-.362.089-.406.111-.809.232-1.206.363-2.75.9-5.305 2.26-7.591 4.041-1.014.785-1.966 1.664-2.854 2.612-.47-.547-1.158-.902-1.933-.902h-28.951c-1.412 0-2.56 1.148-2.56 2.56v24.604l-3.589 3.323c-.302.279-.402.715-.252 1.099.15.383.52.635.931.635h33.927c3.112 4.547 7.654 7.98 12.869 9.679.398.132.801.253 1.207.364.159.043.32.078.479.118.25.063.498.128.75.183.189.041.38.073.57.11.225.044.449.091.676.128.203.033.408.057.612.085.197.027.393.06.59.082v4.61c0 .606-.494 1.101-1.1 1.101h-55.15c-.601 0-1.09-.489-1.09-1.09v-94.27c0-.606.489-1.1 1.09-1.1h55.16c.601 0 1.09.494 1.09 1.1v39.86c-.23.026-.458.063-.686.096-.17.024-.34.044-.508.071zm-16.799 10.91c-2.719 4.095-4.157 8.875-4.157 13.823 0 1.344.105 2.673.312 3.942.257 1.669.693 3.312 1.292 4.88.193.513.408 1.017.634 1.516.068.15.141.298.212.447.174.365.357.725.549 1.08.049.091.09.186.14.276h-6.645c-.019-1.787-.794-2.976-1.55-3.826l1.709-4.798c.627-2.262.109-3.709-.347-4.461v-5.191h1.912v-3.447h-1.912v-.248c0-1.694-.66-3.29-1.862-4.498-.927-.922-2.086-1.522-3.342-1.751h13.788c.285 0 .521.214.555.49-.043.054-.078.111-.12.165-.412.523-.809 1.057-1.168 1.601zm-12.065 24.264c-.362-.417-.994-.459-1.411-.099l-.685.596-.646-.583c-.411-.371-1.043-.339-1.413.072-.369.41-.337 1.043.073 1.413l.333.301h-3.186c.022-1.458.807-2.273 1.577-3.055l.163-.165c.628-.645.726-1.481.649-2.216.894-.053 1.649-.399 2.172-.952.566.599 1.401.967 2.392.97-.073.731.028 1.558.651 2.197l.162.165c.77.781 1.554 1.596 1.577 3.055h-2.837l.331-.288c.415-.362.46-.994.098-1.411zm2.845-8.737c-.183-.343-.466-.636-.894-.835.082-.423.164-.797.237-1.108.077.065.157.126.229.198.119.155.466.715.428 1.745zm-3.177-1.516c-.134-.536-.678-.859-1.213-.727-.3.075-.548.207-.753.37-.158-.125-.312-.223-.443-.29-.487-.249-1.076-.06-1.333.424-.149.28-.134.594-.015.866-.218-.075-.442-.121-.668-.159-.12-.61-.253-1.14-.368-1.552.276-.075.558-.126.85-.126h1.26c.475 0 .872-.331.975-.774.102.443.5.774.974.774h1.178c.067 0 .131.016.198.02-.105.422-.235.992-.361 1.67-.108.019-.215.038-.322.066.061-.177.09-.366.041-.562zm-4.249-3.184c-.671.039-1.322.206-1.92.485v-2.359c.057.013.116.018.174.026.051.096.102.193.159.284.006.01.011.021.018.032.119.187.255.362.399.53.044.051.091.098.136.148.109.117.222.229.342.334.054.048.108.096.165.141.14.113.286.217.439.315.03.02.057.045.088.064zm3.213-1.394.011.043c-.036.008-.073.014-.111.02l-.013-.033c-.163.038-.32.058-.481.061-.032.001-.082.001-.113.005-.223 0-.466-.03-.72-.093l-.109-.027c-.844-.262-1.515-.904-1.817-1.719h5.276c-.318.848-1.039 1.516-1.923 1.743zm-5.52 4.687c.045.187.09.386.134.6-.189.094-.349.206-.483.335.086-.486.248-.79.349-.935zm9.1-2.863c-.562-.245-1.168-.393-1.787-.43.051-.031.095-.069.144-.101.103-.067.204-.137.301-.211.071-.054.138-.111.206-.17.093-.081.183-.164.269-.252.062-.062.122-.125.18-.191.083-.094.161-.192.236-.292.052-.069.104-.137.153-.209.072-.107.137-.22.201-.334.019-.034.042-.066.061-.101.012-.001.024-.002.035-.004v2.295zm-1.475-7.233.001.218h-3.702c.89-.111 1.804-.331 2.505-.758.334.221.727.389 1.196.54zm-6.69 13.595c0-.371 0-.991.083-1.118.001-.001.058-.041.247-.064.07-.009.142-.014.215-.014.491 0 1.023.199 1.404.535.247.217.399.471.399.661 0 .884-.978.929-1.174.929s-1.174-.046-1.174-.929zm5.206-.661c.381-.336.913-.535 1.404-.535.073 0 .145.005.215.014.188.024.238.059.238.056.092.14.092.758.092 1.127 0 .884-.978.929-1.174.929s-1.175-.045-1.175-.929c.001-.192.154-.446.4-.662zm1.139-15.391c-.188-.276-.47-.431-.836-.437-.334.004-.645.174-.827.453-.404.621-2.723.871-4.551.708-.015-.001-.029.006-.044.005-.016-.001-.029-.009-.045-.009 0 0-.001 0-.002 0-.088 0-.173.012-.254.033.657-1.575 2.213-2.686 4.023-2.686 1.162 0 2.257.453 3.081 1.273.396.397.706.859.921 1.358-1.011-.269-1.297-.45-1.466-.698zm-8.893 2.426v.249h-1.159v3.447h1.159v5.248c-.474.66-1.202 2.18-.491 4.742l1.504 4.581c-.721.839-1.423 2.004-1.441 3.704h-10.141l2.037-1.887c.205-.188.321-.455.321-.733v-25.041c0-.309.251-.56.56-.56h12.869c-2.963.539-5.218 3.134-5.218 6.25zm44.99 32.613c-.235.037-.47.075-.726.104-1.213.151-2.419.206-3.706.145v-.022l-.958-.039c-.233-.01-.457-.027-.694-.056-1.574-.171-3.123-.505-4.608-.997-4.963-1.616-9.275-4.928-12.143-9.326-.917-1.398-1.68-2.904-2.272-4.479-.551-1.44-.95-2.946-1.187-4.483-.19-1.172-.287-2.394-.287-3.63 0-4.553 1.322-8.95 3.824-12.718.426-.643.896-1.277 1.402-1.891 1.097-1.349 2.334-2.56 3.679-3.602 2.106-1.64 4.457-2.892 6.99-3.72 1.478-.489 3.027-.824 4.614-.996.224-.027.447-.045.679-.053l.962-.037v-.01c.248-.012.494-.033.743-.035.117-.001.233-.003.349-.002.337.003.673.014 1.009.031.1.005.2.008.3.014.441.029.88.068 1.316.123.245.028.48.066.715.104l.01.002c11.138 1.708 19.538 11.505 19.538 22.79 0 11.291-8.401 21.085-19.549 22.783z"/><path d="m67.843 83.886c1.53 0 2.775-1.245 2.775-2.775v-21.174c0-1.53-1.245-2.775-2.775-2.775s-2.775 1.245-2.775 2.775v21.174c0 1.53 1.245 2.775 2.775 2.775zm-.775-23.949c0-.427.348-.775.775-.775s.775.348.775.775v21.174c0 .428-.348.775-.775.775s-.775-.348-.775-.775z"/><path d="m67.843 84.961c-1.909 0-3.462 1.553-3.462 3.462s1.553 3.462 3.462 3.462 3.462-1.553 3.462-3.462-1.553-3.462-3.462-3.462zm0 4.924c-.806 0-1.462-.656-1.462-1.462s.656-1.462 1.462-1.462 1.462.656 1.462 1.462-.656 1.462-1.462 1.462z"/></g></svg>