<svg id="Capa_1" enable-background="new 0 0 72.53 120.707" height="512" viewBox="0 0 72.53 120.707" width="512" xmlns="http://www.w3.org/2000/svg"><path d="m66.065 39.633v-19.31-10.55c0-1.16-.93-2.1-2.09-2.1h-55.16c-1.15 0-2.09.94-2.09 2.1v94.27c0 1.15.94 2.09 2.09 2.09h9.13 37.37 8.65c1.16 0 2.1-.94 2.1-2.1" fill="#f6f8f9"/><path d="m71.525 39.633v77.9c0 1.2-.96 2.17-2.16 2.17h-66.2c-1.2 0-2.16-.97-2.16-2.17v-114.36c0-1.2.96-2.17 2.16-2.17h66.2c1.2 0 2.16.97 2.16 2.17v17.15z" fill="#202a42"/><path d="m44.011 115.217h-15.491c-1.347 0-2.439-1.092-2.439-2.439 0-1.347 1.092-2.439 2.439-2.439h15.491c1.347 0 2.439 1.092 2.439 2.439 0 1.347-1.092 2.439-2.439 2.439z" fill="#fff"/><path d="m66.065 39.633v-19.31-10.55c0-1.16-.93-2.1-2.09-2.1h-55.16c-1.15 0-2.09.94-2.09 2.1v94.27c0 1.15.94 2.09 2.09 2.09h9.13 37.37 8.65c1.16 0 2.1-.94 2.1-2.1" fill="#dedee0"/><path d="m54.112 61.749c.67.72 4.02 4.82 1.67 13.3l-6.09 17.09-.38.11c-.28-.29-.55-.56-.81-.83-2.93-3 0-9.05 0-9.05l-.18-.31c1.75-1.07 2.88-2.87 2.88-5.21 0-3.96-.04-6.67-3.97-7.16-.38-.05-.77-.07-1.15-.07l.59-.5c.92-5.56 2.12-9.6 2.12-9.6l.33-.93c1.84.67 3.5 1.71 4.88 3.05 0 0 .01.01.03.03s.05.05.08.08z" fill="#f6f8f9"/><path d="m50.392 37.649c-.25 0-.49.03-.72.07l.02 3.15c0 1.22-.17 2.39-.49 3.5-.05.16-.11.33-.16.49.42.19.89.27 1.37.27.84-.01 1.61-.29 2.24-.76.91-.67 1.5-1.76 1.5-2.99 0-2.06-1.7-3.75-3.76-3.73z" fill="#f6f8f9"/><path d="m47.232 69.689c3.93.49 3.97 3.2 3.97 7.16 0 2.34-1.13 4.14-2.88 5.21-1.19.74-2.67 1.14-4.28 1.14-3.96 0-7.16-2.4-7.16-6.35 0-3.66 4.49-7.23 9.2-7.23.38 0 .77.02 1.15.07z" fill="#f7bd76"/><path d="m49.692 40.868c0 1.22-.17 2.39-.49 3.5-.05.16-.11.33-.16.49-.16.5-.36.98-.58 1.44-.34.72-.74 1.41-1.21 2.04-.15.21-.31.41-.48.61-.32.4-.68.78-1.06 1.13-.19.18-.38.35-.58.51-.65.54-1.35 1.01-2.09 1.4-.18.1-.36.19-.54.28-.3.14-.59.27-.9.37-.18.08-.36.15-.55.2-.2.07-.4.13-.61.19-.06.02-.12.03-.18.05-.14.04-.29.08-.44.11-.74.17-1.5.27-2.28.29-.15.01-.29.01-.43.01-1.06 0-2.11-.14-3.1-.38-.2-.05-.41-.1-.61-.16-3.85-1.2-6.92-4.15-8.22-7.93-.07-.21-.14-.43-.2-.65-.31-1.1-.48-2.26-.48-3.44l-.01-3.21-.01-2.91-.01-5.16s14.69 1.32 18.04-3.81c1.29 1.88 3.25 2.74 7.15 3.75l.01 5.22v2.91z" fill="#f6f8f9"/><path d="m49.312 92.248c-.28-.29-.55-.56-.81-.83-2.93-3 0-9.05 0-9.05l-.18-.31c-1.19.74-2.67 1.14-4.28 1.14-3.96 0-7.16-2.4-7.16-6.35 0-3.66 4.49-7.23 9.2-7.23l.59-.5c.92-5.56 2.12-9.6 2.12-9.6l.33-.93c-1.5-.55-3.11-.85-4.81-.85h-3.88l.01-4.71c-.87.2-1.09.356-2.72.46-.06.004-.13 0-.18-.01-.15.01-.29.01-.43.01-1.06 0-2.11-.14-3.1-.38v4.63h-4.15c-2.47 0-4.81.65-6.83 1.79.08.24 1.48 4.2 2.36 9.59l.05.53c4.96-.39 9.92 3.35 9.92 7.2 0 3.95-3.2 6.35-7.16 6.35-1.37 0-2.65-.29-3.73-.83 0 0 2.93 6.05 0 9.05-.35.36-.71.73-1.09 1.11-2.75 2.83-5.91 7.195-5.58 13.604h37.37c.35-6.629-3.05-11.014-5.86-13.884z" fill="#f6f8f9"/><path d="m44.159 110.342c1.34 0 2.43 1.09 2.43 2.43 0 .68-.27 1.28-.71 1.73-.44.44-1.05.71-1.72.71h-15.5c-1.34 0-2.43-1.09-2.43-2.44 0-.67.27-1.28.71-1.72s1.05-.71 1.72-.71z" fill="#f6f8f9"/><path d="m35.362 76.849c0 3.95-3.2 6.35-7.16 6.35-1.37 0-2.65-.29-3.73-.83-2.06-1.02-3.43-2.94-3.43-5.52 0-3.96.04-6.67 3.97-7.16.14-.02.29-.03.43-.04 4.96-.39 9.92 3.35 9.92 7.2z" fill="#f7bd76"/><path d="m25.392 69.119.05.53c-.14.01-.29.02-.43.04-3.93.49-3.97 3.2-3.97 7.16 0 2.58 1.37 4.5 3.43 5.52 0 0 2.93 6.05 0 9.05-.35.36-.71.73-1.09 1.11l-.63-.39-5.29-16.12c-2.6-9.38 1.78-13.41 1.78-13.41 1.07-1.24 2.36-2.29 3.79-3.08.08.24 1.48 4.2 2.36 9.59z" fill="#f6f8f9"/><path d="m24.982 44.369c-.31-1.1-.48-2.26-.48-3.44l-.01-3.21c-.15 0-.29-.02-.43-.02-2.07.02-3.74 1.7-3.74 3.77 0 1.18.55 2.22 1.4 2.9.65.52 1.48.83 2.37.82.38 0 .75-.06 1.09-.17-.07-.21-.14-.43-.2-.65z" fill="#f6f8f9"/><path d="m54.522 31.968v30.18c-.13-.14-.27-.28-.41-.4-.03-.03-.06-.06-.08-.08-.01-.02-.02-.03-.03-.03-1.38-1.34-3.04-2.38-4.88-3.05-1.5-.55-3.11-.85-4.81-.85h-3.88v-2.33h.01v-2.38c.21-.06.41-.12.61-.19.19-.05.37-.12.55-.2.31-.1.6-.23.9-.37.18-.09.36-.18.54-.28.74-.39 1.44-.86 2.09-1.4.2-.16.39-.33.58-.51.38-.35.74-.73 1.06-1.13.17-.2.33-.4.48-.61.47-.63.87-1.32 1.21-2.04.22-.46.42-.94.58-1.44.42.19.89.27 1.37.27.84-.01 1.61-.29 2.24-.76.91-.67 1.5-1.76 1.5-2.99 0-2.06-1.7-3.75-3.76-3.73-.25 0-.49.03-.72.07v-2.91l-.01-5.22c-3.9-1.01-5.86-1.87-7.15-3.75-3.35 5.13-18.04 3.81-18.04 3.81l.01 5.16.01 2.91c-.15 0-.29-.02-.43-.02-2.07.02-3.74 1.7-3.74 3.77 0 1.18.55 2.22 1.4 2.9.65.52 1.48.83 2.37.82.38 0 .75-.06 1.09-.17 1.3 3.78 4.37 6.73 8.22 7.93.2.06.41.11.61.16v4.63h-4.15c-2.47 0-4.81.65-6.83 1.79-1.43.79-2.72 1.84-3.79 3.08v-30.64c0-9.74 7.9-17.64 17.64-17.64 4.88 0 9.28 1.98 12.48 5.16 3.18 3.2 5.16 7.601 5.16 12.48z" fill="#7c86bb"/><path d="m37.142 106.133c-.24 0-.48-.086-.67-.258l-4.293-3.875c-.41-.37-.442-1.002-.072-1.412.369-.41 1.002-.443 1.412-.072l3.635 3.281 3.789-3.294c.417-.361 1.049-.318 1.411.099s.318 1.049-.099 1.411l-4.457 3.875c-.188.163-.422.245-.656.245z" fill="#ededed"/><path d="m36.677 72.127c-.017 0-.034-.001-.051-.002-.532-.026-.95-.465-.95-.997 0-2.408-2.554-3.744-2.58-3.758-.491-.251-.686-.854-.434-1.346.252-.491.853-.688 1.346-.434.096.049 1.583.827 2.633 2.337.576-1.056 1.486-2.061 2.915-2.417.535-.133 1.079.19 1.213.728.134.535-.192 1.078-.728 1.212-2.018.505-2.368 3.743-2.371 3.775-.05.515-.482.902-.993.902z" fill="#ededed"/><g fill="#18273d"><path d="m69.362 120.707h-66.194c-1.747 0-3.168-1.422-3.168-3.169v-114.37c0-1.747 1.421-3.168 3.168-3.168h66.193c1.747 0 3.168 1.421 3.168 3.168v114.37c.001 1.747-1.42 3.169-3.167 3.169zm-66.194-118.707c-.644 0-1.168.524-1.168 1.168v114.37c0 .645.524 1.169 1.168 1.169h66.193c.644 0 1.168-.524 1.168-1.169v-114.37c.001-.644-.523-1.168-1.167-1.168z"/><path d="m63.964 107.133h-55.147c-1.705 0-3.092-1.387-3.092-3.092v-94.271c0-1.705 1.387-3.092 3.092-3.092h55.158c1.705 0 3.092 1.387 3.092 3.092v94.261c0 1.711-1.392 3.102-3.103 3.102zm-55.147-98.455c-.602 0-1.092.49-1.092 1.092v94.271c0 .602.49 1.092 1.092 1.092h55.146c.608 0 1.104-.494 1.104-1.103v-94.26c0-.602-.49-1.092-1.092-1.092z"/><path d="m44.011 116.216h-15.491c-1.896 0-3.439-1.543-3.439-3.438 0-1.896 1.542-3.439 3.439-3.439h15.491c1.896 0 3.439 1.543 3.439 3.439 0 1.895-1.543 3.438-3.439 3.438zm-15.491-4.878c-.793 0-1.439.646-1.439 1.439s.646 1.438 1.439 1.438h15.491c.793 0 1.439-.646 1.439-1.438 0-.794-.646-1.439-1.439-1.439z"/><path d="m39.775 66.718c.536-.134.861-.677.728-1.212-.134-.537-.678-.86-1.213-.728-1.429.356-2.339 1.361-2.915 2.417-1.051-1.51-2.537-2.288-2.633-2.337-.494-.254-1.094-.058-1.346.434-.251.492-.057 1.095.434 1.346.026.014 2.58 1.35 2.58 3.758 0 .532.418.971.95.997.017.001.034.002.051.002.51 0 .943-.388.995-.901.001-.033.351-3.271 2.369-3.776z"/><path d="m40.675 100.117-3.789 3.294-3.635-3.281c-.41-.371-1.043-.338-1.412.072-.37.41-.338 1.042.072 1.412l4.293 3.875c.19.172.43.258.67.258.234 0 .468-.082.656-.245l4.457-3.875c.417-.362.461-.994.099-1.411s-.994-.46-1.411-.099z"/><path d="m58.231 44.354v-9.562h-2.833v-2.84c0-4.97-1.937-9.652-5.458-13.188-3.533-3.517-8.215-5.454-13.185-5.454-10.279 0-18.642 8.363-18.642 18.642v2.84h-4.133v9.562h4.133v17.842c-1.038 1.202-4.084 5.624-1.73 14.115l5.296 16.124c.023.069.061.126.096.186-2.615 2.801-5.421 6.618-5.1 12.832.027.534.469.948.998.948.018 0 .035 0 .052-.001.552-.028.976-.499.947-1.051-.33-6.417 3.104-9.905 5.862-12.708l.529-.539c2.235-2.294 1.647-5.888.958-8.139.653.137 1.338.216 2.059.216 4.002 0 7.066-2.218 7.916-5.481.851 3.263 3.915 5.481 7.916 5.481 1.019 0 1.972-.151 2.85-.419-.714 2.233-1.404 5.98.897 8.342l.529.539c2.759 2.803 6.192 6.291 5.862 12.708-.028.552.396 1.022.947 1.051.018.001.035.001.052.001.528 0 .97-.415.998-.948.335-6.502-2.753-10.382-5.463-13.217l6.04-16.939c2.02-7.294.026-11.582-1.227-13.394v-17.549zm-8.711 1.686c.251.041.505.074.776.074 1.191-.008 2.268-.472 3.101-1.205v14.959c-2.616-2.042-5.814-3.145-9.21-3.145h-2.879v-2.967c.983-.217 3.342-.877 5.431-2.973 1.797-1.803 2.503-3.773 2.781-4.743zm-15.422 6.069c-.178-.038-.368-.089-.524-.134-3.547-1.104-6.376-3.833-7.567-7.3-.037-.106-.063-.215-.096-.322h22.112c-.018.059-.031.119-.051.177-1.236 3.748-4.259 6.574-8.125 7.571-.108.033-.215.066-.378.097-.705.163-1.383.248-2.156.265-.084.008-.169.009-.253.009-.959.005-1.946-.113-2.962-.363zm14.439-21.767.011 4.449h-23.187l-.01-4.084c3.438.208 13.1.427 17.026-3.327 1.374 1.403 3.291 2.18 6.16 2.962zm-28.423 1.609c0-9.176 7.466-16.642 16.642-16.642 4.437 0 8.618 1.73 11.771 4.868 3.142 3.156 4.872 7.337 4.872 11.774v2.84h-2.85l-.013-5.184c0-.012.007-.022.007-.034 0-.066-.026-.124-.038-.186-.01-.053-.014-.107-.032-.157-.021-.057-.054-.106-.085-.158-.031-.053-.062-.105-.103-.151-.035-.04-.073-.073-.115-.107-.054-.045-.11-.083-.173-.116-.044-.023-.087-.043-.134-.06-.026-.009-.048-.026-.075-.034-3.994-1.038-5.529-1.821-6.572-3.35-.188-.276-.531-.403-.836-.437-.334.003-.645.173-.828.454-2.477 3.794-13.193 3.715-17.114 3.361-.015-.001-.029.006-.044.005-.016-.001-.029-.009-.046-.009 0 0-.001 0-.002 0-.065 0-.121.025-.182.037-.056.011-.111.014-.164.034-.084.031-.155.081-.226.133-.032.023-.072.032-.101.059-.005.005-.007.013-.013.018-.073.07-.127.156-.176.246-.015.028-.04.049-.053.079-.053.122-.083.256-.083.397l.013 5.159h-3.247zm12.776 21.904v2.866h-3.15c-3.541 0-6.938 1.249-9.625 3.486v-15.853h.113c.118.149.227.303.364.439.896.891 2.083 1.379 3.338 1.379.181 0 .349-.02.519-.038.355 1.049 1.307 3.387 3.654 5.333 1.85 1.534 3.737 2.136 4.787 2.388zm-9.258 36.85-.311.317-5.023-15.29c-2.377-8.582 1.327-12.251 1.499-12.415.014-.013.02-.032.033-.046.012-.012.029-.017.04-.03.734-.848 1.575-1.575 2.479-2.198.467 1.5 1.255 4.3 1.849 7.73-4.267.825-4.279 4.337-4.279 8.055 0 2.72 1.402 4.958 3.644 6.225.473 1.118 2.137 5.53.069 7.652zm4.449-8.526c-2.967 0-6.161-1.675-6.161-5.353 0-4.365.24-5.808 3.091-6.169.331-.042.667-.062 1.005-.062 2.175 0 4.451.852 6.133 2.334 1.33 1.172 2.093 2.592 2.093 3.897 0 3.678-3.194 5.353-6.161 5.353zm7.916-6.979c-.391-1.347-1.249-2.648-2.526-3.773-1.991-1.754-4.673-2.766-7.271-2.817-.681-4.007-1.614-7.166-2.079-8.603 1.737-.831 3.65-1.285 5.618-1.285h4.15c.552 0 1-.448 1-1v-3.435c.702.11 3.858.149 4.418.078v3.357c0 .552.448 1 1 1h3.879c1.212 0 2.391.176 3.521.491-.001.003-.003.004-.004.007-.049.164-1.182 4.01-2.087 9.398-2.54.093-5.149 1.096-7.095 2.81-1.275 1.125-2.133 2.426-2.524 3.772zm1.755 1.626c0-1.306.763-2.726 2.093-3.897 1.683-1.483 3.958-2.334 6.133-2.334.338 0 .674.021 1.005.062 2.852.361 3.091 1.804 3.091 6.169 0 3.678-3.194 5.353-6.162 5.353-2.966 0-6.16-1.675-6.16-5.353zm16.967-2.133-5.686 15.94c-1.893-2.069-.475-6.353.243-7.846.056-.117.083-.24.092-.362 1.686-1.316 2.706-3.282 2.706-5.599 0-3.766-.014-7.321-4.45-8.085.802-4.703 1.789-8.231 1.966-8.847 1.375.627 2.637 1.503 3.743 2.598.648.722 3.525 4.474 1.386 12.201z"/></g></svg>