<svg enable-background="new 0 0 116.657 123.518" height="512" viewBox="0 0 116.657 123.518" width="512" xmlns="http://www.w3.org/2000/svg"><path d="m103.499.999 12.16 49.31-50.83 12.54v-.01l-3.06.76-.88.22-47.73 11.77-12.16-49.31zm-37.77 36.32c5.22-1.43 8.28-6.81 6.85-12.03s-6.82-8.28-12.03-6.85c-5.22 1.43-8.29 6.82-6.85 12.03 1.43 5.22 6.81 8.29 12.03 6.85z" fill="#7c86bb"/><path d="m73.409 95.439 6.29 25.12-3.94.96-5.92-23.56c.26-.12.51-.27.75-.45.76-.41 1.48-.9 2.08-1.4.23-.19.45-.4.67-.62z" fill="#2c3656"/><path d="m79.329 86.229c.55.88.45 2.05-.29 2.83l-2.62 2.79-1.12 1.2c-.9.94-2.4 1-3.34.1-.17-.15-.3-.33-.41-.5-.54-.89-.44-2.05.31-2.85l2.36-2.53 1.26-1.35.1-.1c.9-.95 2.39-1 3.36-.1.15.14.29.32.39.51z" fill="#e5e5e5"/><path d="m76.609 81.689c.53.89.43 2.06-.3 2.85l-1.09 1.16-1.17 1.25-1.48 1.57c-.79.85-2.07.97-3 .36.9-.45 1.5-1.41 1.47-2.48-.01-.84-.4-1.6-1.02-2.1l1.64-1.75.19-.18 1-1.09c.9-.94 2.4-.99 3.35-.1.16.16.31.34.41.51z" fill="#e5e5e5"/><path d="m66.019 83.759.66-.03 1.58-.02c.64-.03 1.22.19 1.69.54.02.02.05.04.07.05.62.5 1.01 1.26 1.02 2.1.03 1.07-.57 2.03-1.47 2.48.116.076.238.141.364.195" fill="#dedee0"/><path d="m69.932 89.073c.879.374 1.945.189 2.636-.555l1.48-1.57.17.32-2.36 2.53c-.75.8-.85 1.96-.31 2.85.11.17.24.35.41.5.94.9 2.44.84 3.34-.1l1.12-1.2.06.11-2.74 3.11c-.13.15-.26.29-.4.42l-2.52 1.86c-.08.06-.15.11-.23.16-1.33.73-2.82 1.25-4.11 1.33-1.68 1.35-5.54 6.99-7.38 9.63-2.26 3.25-7.53 10.16-10.51 14.05l-13.58-.9s18.23-24.93 19.5-26.24c.73-.76 1.72-2.66 2.44-4.13-.87-3.09-.2-6.55 2.08-9.15l3.62-4.09c-.2.63-.12 1.33.24 1.91.1.19.24.36.4.5.58.53 1.36.74 2.08.6.03-.01.04-.01.07-.02.01 0 .01 0 .02-.01.07 0 .14-.02.21-.05.35-.1.68-.32.97-.62l1.12-1.2.29.25-1.64 1.73c-.25.28-.44.6-.54.93-.17.56-.12 1.17.14 1.71l.01.02" fill="#dedee0"/><path d="m73.909 77.509c.53.9.44 2.05-.3 2.84l-1.81 1.94-.21.21-1.64 1.75c-.47-.35-1.05-.57-1.69-.54l-1.58.02-.66.03-.01-.02c-.26-.54-.31-1.15-.14-1.71.1-.33.29-.65.54-.93l1.64-1.73 1.54-1.66.56-.6c.91-.94 2.39-.99 3.35-.1.16.16.29.32.41.5z" fill="#e5e5e5"/><path d="m72.579 25.289c1.43 5.22-1.63 10.6-6.85 12.03-5.22 1.44-10.6-1.63-12.03-6.85-1.44-5.21 1.63-10.6 6.85-12.03 5.21-1.43 10.6 1.63 12.03 6.85z" fill="#f7bd76"/><path d="m70.669 73.489c.53.89.45 2.05-.29 2.85l-.96 1.01-.82.87-.45.49-.39.41-1.12 1.2c-.29.3-.62.52-.97.62-.07.03-.14.05-.21.05-.01.01-.01.01-.02.01-.03.01-.04.01-.07.02-.72.14-1.5-.07-2.08-.6-.16-.14-.3-.31-.4-.5-.36-.58-.44-1.28-.24-1.91.1-.33.27-.66.52-.93l.2-.21.57-.61 2.97-3.16c.09-.1.2-.2.33-.28.01-.01.03-.02.04-.02.89-.66 2.14-.59 2.98.19.17.15.29.32.41.5z" fill="#e5e5e5"/><path d="m64.829 62.849 2.45 9.95c-.01 0-.03.01-.04.02-.13.08-.24.18-.33.28l-2.97 3.16-3.05-12.44.88-.22z" fill="#2c3656"/><g fill="#18273d"><path d="m116.628 50.067-12.161-49.306c-.063-.258-.227-.479-.454-.617-.228-.137-.502-.179-.756-.115l-102.496 25.28c-.537.132-.864.674-.731 1.21l12.16 49.306c.063.258.227.479.454.616.157.096.336.145.517.145.08 0 .161-.01.239-.029l46.759-11.532 2.682 10.945-.403.43c-.281.302-.483.664-.637 1.056l-3.524 3.989c-2.346 2.669-3.225 6.269-2.388 9.701-1.207 2.427-1.831 3.257-2.1 3.537-1.276 1.328-17.719 23.794-19.589 26.351-.215.295-.253.684-.099 1.014.154.331.477.551.84.575l13.581.895c.022.001.044.002.066.002.31 0 .604-.144.793-.392 2.96-3.856 8.266-10.815 10.541-14.086l.378-.545c1.654-2.384 5.013-7.224 6.588-8.683.741-.081 1.503-.284 2.249-.555l5.652 22.508c.114.454.521.757.969.757.079 0 .159-.009.239-.028l3.944-.967c.258-.063.481-.228.618-.455.137-.229.178-.502.113-.76l-6.168-24.597 2.721-3.094s0-.001.001-.001l2.537-2.868.002-.002s.001-.001.001-.001l.02-.023c.002-.003.003-.006.005-.009 1.015-1.101 1.179-2.744.424-3.957-.146-.277-.346-.536-.596-.771-.546-.51-1.217-.795-1.905-.879.357-.95.291-2.035-.247-2.929-.138-.235-.327-.473-.583-.729-.502-.47-1.113-.755-1.749-.859.224-.856.104-1.795-.391-2.633-.16-.24-.336-.456-.564-.683-.631-.591-1.438-.88-2.247-.892.159-.807.029-1.672-.432-2.451-.141-.21-.312-.454-.556-.683-.826-.767-1.942-1.041-2.976-.823l-1.926-7.855 49.855-12.296c.535-.133.862-.675.73-1.212zm-46.551 46.584c-1.194.648-2.461 1.083-3.508 1.177-1.35-.388-3.371-1.271-3.768-2.082-.243-.495-.841-.703-1.337-.459-.496.242-.702.842-.459 1.338.617 1.263 2.317 2.143 3.634 2.659-1.636 1.861-3.902 5.073-5.982 8.071l-.377.543c-2.171 3.121-7.162 9.677-10.161 13.587l-11.231-.739c7.288-9.954 17.49-23.791 18.342-24.678.653-.68 1.509-2.111 2.618-4.376.108-.221.131-.474.064-.711-.814-2.889-.117-5.961 1.864-8.215l2.178-2.465c.016.027.032.055.048.081.155.294.367.561.616.779.154.141.32.265.495.374.055.034.115.057.171.087.124.068.248.137.38.189.069.027.143.042.214.065.125.04.25.082.38.108.08.016.163.018.245.028.109.013.216.035.327.038-.012.057-.012.115-.02.172-.012.078-.022.156-.028.235-.007.098-.009.196-.007.295l-3.038.043c-.552.008-.994.462-.986 1.015.008.547.454.985 1 .985h.015l4.084-.058c.07.011.14.023.214.017l2.225-.051c.484.007.837.179 1.054.344.002.001.004.002.006.003.016.012.032.024.049.036.064.051.116.112.171.171.033.035.071.066.101.103.054.068.095.143.137.217.02.035.046.066.063.102.039.08.063.166.089.251.011.036.028.069.037.106.029.124.045.252.047.382.013.661-.353 1.277-.931 1.569-.011.006-.02.015-.031.021-.007.003-.016.003-.023.006-.002.001-.004.004-.006.005l-.001-.002c-.033.018-.065.037-.157.066-.184.067-.359.101-.552.101l-6.374.101c-.552.009-.993.464-.984 1.016.009.547.455.984 1 .984h.016l6.358-.101c.404 0 .809-.074 1.158-.202.037.016.074.027.111.042.048.019.096.037.144.054.209.072.42.127.635.156.005.001.01.003.015.004-.013.034-.015.07-.026.104-.058.171-.103.344-.132.521-.008.049-.021.098-.027.147-.027.22-.032.443-.014.666.004.05.015.1.021.15.022.18.06.358.112.535.018.062.036.124.058.186.078.22.172.438.298.647.174.267.356.489.553.674.192.184.404.331.625.459.066.039.134.069.202.102.167.082.338.15.514.203.043.013.082.039.126.049-.016.017-.03.029-.046.045l-2.453 1.819c-.057.042-.102.07-.155.106zm8.411 23.173-2.002.49-5.491-21.866c.05-.033.105-.073.157-.108.615-.342 1.179-.715 1.674-1.091zm-2.175-33.319c.267-.285.63-.43.995-.43.338 0 .678.124.944.374.084.079.154.166.23.305.318.514.249 1.181-.17 1.621-.001.002-.002.003-.004.004l-3.731 3.975c-.264.275-.612.421-.962.434-.175.006-.351-.021-.516-.083-.166-.061-.321-.157-.457-.287-.085-.08-.167-.182-.234-.283-.32-.531-.249-1.193.179-1.65l3.603-3.854zm-.82-4.616c.149.149.221.256.256.314.314.521.244 1.2-.169 1.651l-3.739 3.981c-.033.036-.068.069-.105.102.209-.482.318-1.01.308-1.55-.003-.249-.039-.492-.09-.731-.013-.061-.028-.121-.044-.182-.059-.223-.133-.441-.232-.648-.005-.012-.009-.024-.014-.035-.082-.167-.176-.328-.282-.481l1.01-1.078c0-.001.001-.001.001-.002l1.176-1.257c.525-.548 1.398-.576 1.924-.084zm-2.705-4.175c.113.113.205.227.262.309.316.535.247 1.196-.173 1.645 0 .001-.001.001-.001.002l-2.009 2.141c-.002.002-.004.003-.006.004l-1.052 1.123-.051.055c-.042-.018-.086-.024-.129-.04-.137-.052-.274-.094-.415-.13-.079-.02-.157-.041-.237-.055-.151-.027-.302-.04-.455-.047-.056-.003-.112-.017-.168-.017-.037 0-.073.001-.11.002l-1.478.02c-.002-.135.017-.27.057-.4.057-.186.172-.378.319-.537l1.631-1.732c.007-.008.01-.019.017-.027l2.085-2.227c.522-.549 1.392-.576 1.913-.089zm-5.06-4.02c.051-.026.1-.057.146-.092.508-.382 1.225-.331 1.706.113.086.081.171.203.227.284.318.538.252 1.204-.165 1.657l-2.59 2.758c-.007.007-.017.01-.024.017l-1.113 1.193c-.172.178-.359.303-.528.352-.023.006-.046.014-.068.021-.066.01-.132.026-.194.048-.408.068-.838-.07-1.172-.376-.078-.068-.141-.146-.213-.278-.05-.082-.091-.168-.122-.257-.094-.267-.101-.559-.017-.835.065-.213.167-.396.312-.552l3.742-3.985c.034-.035.06-.058.073-.068zm-1.572-1.255-1.129 1.202-.552.588-2.373-9.682 1.999-.493zm-52.264 1.937-11.681-47.365 100.555-24.8 11.682 47.365z"/><path d="m29.378 60.46c.417-.731.563-1.617.333-2.493-.226-.86-.772-1.58-1.54-2.029-.767-.448-1.664-.57-2.524-.346l-3.061.803c-.534.14-.854.687-.713 1.221l1.182 4.504 1.182 4.504c.067.257.234.476.463.609.154.091.329.137.504.137.085 0 .17-.011.254-.033l3.061-.803c.86-.226 1.58-.772 2.029-1.54.448-.768.571-1.664.346-2.524-.224-.848-.762-1.56-1.516-2.01zm-4.643.186-.674-2.57 2.094-.549c.343-.09.701-.042 1.007.138.307.179.525.466.615.81.09.343.041.701-.138 1.007-.179.307-.467.525-.81.615l-.805.211zm3.276 3.955-2.094.549-.674-2.569 2.094-.549c.343-.09.701-.041 1.007.138s.524.467.615.81c.186.708-.239 1.434-.948 1.621z"/><path d="m39.167 53.082c-.14-.534-.689-.856-1.221-.713-.534.14-.854.687-.713 1.221l1.685 6.419c.113.432.052.881-.173 1.267-.225.385-.587.659-1.019.772-.43.114-.881.052-1.266-.173s-.66-.587-.773-1.019l-1.685-6.42c-.14-.534-.688-.854-1.221-.713-.534.14-.854.687-.713 1.221l1.685 6.42c.249.948.852 1.743 1.699 2.238.569.332 1.202.502 1.844.502.313 0 .628-.04.938-.121.949-.249 1.743-.853 2.238-1.699s.63-1.834.381-2.783z"/><path d="m49.65 58.762-3.534.927-2.031-7.74c-.14-.535-.688-.855-1.221-.713-.534.14-.854.687-.713 1.221l2.285 8.708c.067.256.234.476.463.609.154.09.329.137.504.137.085 0 .17-.011.254-.033l4.501-1.181c.534-.14.854-.687.713-1.221-.14-.535-.686-.855-1.221-.714z"/><path d="m59.031 56.301-3.534.927-2.031-7.74c-.14-.535-.688-.855-1.221-.713-.534.14-.854.687-.713 1.221l2.285 8.708c.067.256.234.476.463.609.154.09.329.137.504.137.085 0 .17-.011.254-.033l4.501-1.181c.534-.14.854-.687.713-1.221-.14-.535-.689-.855-1.221-.714z"/><path d="m65.101 45.449c-.506-.218-1.095.017-1.313.524l-1.372 3.192-2.699-2.113c-.435-.341-1.064-.265-1.404.17-.341.435-.264 1.063.17 1.404l3.457 2.707 1.29 4.917c.118.449.523.746.967.746.084 0 .169-.01.254-.033.534-.14.854-.687.713-1.221l-1.288-4.909 1.749-4.07c.218-.508-.016-1.095-.524-1.314z"/><path d="m76.052 51.818-1.145.301-1.83-6.974 1.146-.301c.534-.14.854-.687.713-1.221-.14-.534-.689-.854-1.221-.713l-2.112.554s-.001 0-.002 0-.001.001-.001.001l-2.111.554c-.534.14-.854.687-.713 1.221.118.449.523.746.967.746.084 0 .169-.01.254-.033l1.145-.301 1.83 6.974-1.146.301c-.534.14-.854.687-.713 1.221.118.449.523.746.967.746.084 0 .169-.01.254-.033l2.111-.554h.002s.001-.001.001-.001l2.111-.554c.534-.14.854-.687.713-1.221-.139-.534-.686-.854-1.22-.713z"/><path d="m85.094 40.895c-.14-.535-.689-.855-1.221-.713-.534.14-.854.687-.713 1.221l1.513 5.768c-2.606-2.392-5.255-4.827-5.428-4.995l-.003.003c-.063-.081-.125-.116-.199-.16-.44-.259-1.006-.144-1.311.268-.23.312-.362.49-.076.926l-.055.018c.136.409 1.469 5.559 2.278 8.708.116.452.522.751.968.751.082 0 .166-.01.249-.031.535-.138.857-.683.72-1.217-.615-2.395-1.069-4.165-1.413-5.477.42.388.897.825 1.436 1.32l3.987 3.659c.326.299.812.348 1.192.12.38-.229.564-.681.451-1.11z"/><path d="m99.21 42.511c-.242-.173-.549-.229-.835-.154l-3.772.99c-.534.14-.854.687-.713 1.221.14.534.688.854 1.221.713l2.452-.644c-.321 1.496-1.5 1.996-2.441 2.243-.948.249-1.936.113-2.781-.381-.846-.494-1.449-1.288-1.697-2.236s-.113-1.935.381-2.781 1.288-1.449 2.236-1.697c1.426-.373 2.929.137 3.831 1.301.339.437.967.515 1.403.178.437-.338.516-.967.178-1.403-1.396-1.799-3.719-2.586-5.92-2.01-3.022.793-4.836 3.897-4.043 6.92.384 1.464 1.316 2.691 2.623 3.455.879.514 1.857.776 2.85.776.482 0 .969-.062 1.448-.188 3.76-.987 4.119-3.91 3.998-5.565-.025-.294-.178-.565-.419-.738z"/><path d="m23.101 38.429c.877.512 1.853.774 2.842.774.481 0 .966-.062 1.444-.188.943-.249 1.927-.113 2.77.379.842.493 1.442 1.283 1.69 2.227.248.943.113 1.927-.379 2.77-.492.842-1.283 1.442-2.227 1.69-.944.247-1.927.112-2.77-.379-.842-.493-1.442-1.283-1.69-2.227-.14-.535-.685-.855-1.221-.713-.534.14-.854.687-.713 1.221.383 1.46 1.312 2.684 2.616 3.446.877.512 1.853.774 2.842.774.481 0 .966-.062 1.444-.188 1.46-.383 2.684-1.312 3.446-2.616.762-1.303.97-2.826.587-4.286s-1.312-2.684-2.616-3.446-2.826-.971-4.286-.587c-1.948.509-3.949-.659-4.459-2.606-.248-.943-.113-1.927.379-2.77.492-.842 1.283-1.442 2.227-1.69 1.761-.461 3.606.455 4.3 2.13.211.511.796.752 1.306.542.51-.211.753-.796.542-1.306-1.074-2.595-3.932-4.015-6.655-3.3-1.46.383-2.684 1.312-3.446 2.616-.762 1.303-.97 2.826-.587 4.286.381 1.461 1.31 2.686 2.614 3.447z"/><path d="m33.633 28.162c.084 0 .169-.011.254-.033l4.866-1.277 4.288 16.34c.118.449.523.746.967.746.084 0 .169-.01.254-.033.534-.14.854-.687.713-1.221l-4.288-16.339 4.867-1.277c.534-.14.854-.687.713-1.221s-.687-.856-1.221-.713l-5.832 1.53s-.001 0-.002 0-.001.001-.001.001l-5.832 1.53c-.534.14-.854.687-.713 1.221.118.448.524.746.967.746z"/><path d="m79.711 25.073 2.019 7.696c.118.449.523.747.967.747.084 0 .169-.011.254-.033.534-.14.854-.687.713-1.221l-1.765-6.728 5.524-1.449c3.167-.831 5.067-4.083 4.236-7.25-.831-3.166-4.08-5.065-7.25-4.236l-6.491 1.701c-.256.067-.476.234-.609.463s-.171.501-.104.758zm5.206-10.541c2.1-.551 4.257.709 4.808 2.81.551 2.1-.709 4.257-2.81 4.808l-5.524 1.449-1.999-7.617z"/><path d="m73.545 25.024c-.763-2.78-2.563-5.097-5.068-6.523-.544-.31-1.111-.56-1.688-.769-.005-.002-.008-.007-.013-.009-.007-.003-.014-.002-.021-.004-2.07-.742-4.31-.84-6.473-.246-2.78.763-5.097 2.562-6.523 5.068s-1.792 5.416-1.029 8.196 2.562 5.097 5.068 6.523c.167.095.344.165.515.251.018.009.03.025.049.033.011.005.023.003.034.007 1.49.732 3.095 1.127 4.725 1.127.959 0 1.924-.129 2.874-.39 5.737-1.575 9.125-7.525 7.55-13.264zm-15.273 10.17c-1.77-1.174-3.047-2.919-3.614-4.987-.622-2.265-.324-4.636.838-6.677s3.049-3.507 5.314-4.129c.776-.213 1.557-.314 2.325-.314.641 0 1.271.077 1.885.213zm7.192 1.165c-1.81.496-3.685.397-5.407-.252l6.859-16.154c2.226 1.062 3.999 3.041 4.701 5.6 1.282 4.676-1.477 9.523-6.153 10.806z"/></g></svg>