<svg enable-background="new 0 0 122.891 110.548" height="512" viewBox="0 0 122.891 110.548" width="512" xmlns="http://www.w3.org/2000/svg"><path d="m32.028 67.766c2.796-.43 5.434-1.712 8.257-1.907" fill="none"/><path d="m102.264 44.502.598 2.464 1.795 8.512-8.869 1.704-15.301 3.131-21.3 4.775-2.37-10.6 15.1-3.39c-.01.01-.01.01-.01.01s.01 0 .03-.01c.06-.01.2-.05.42-.1l.53-.12 16.1-3.61c.17-.04.35-.07.53-.11 2.68-.54 4.85-1.01 5.71-1.28.02 0 .03-.01.04-.01s.01 0 .02 0c3.071-.698 5.899-1.366 6.977-1.366z" fill="#202a42"/><path d="m50.897 67.767-.93-3.13-.004.01-1.928-6.448-1.018-3.412c.87-1.52 1.45-3.19 1.7-4.93l-.01-.01c.19-1.21.23-2.42.1-3.66-.05-.41-.15-.79-.25-1.19l-4.39-15.78-4.78-16.79c-.48-1.67-2.3-2.63-4.03-2.13l-.65.17c-1.77.51-2.78 2.26-2.3 3.94l2.74 9.67c-.09 0-.12.09-.19.06l-5.32-18.68c-.26-.93-.9-1.65-1.7-2.06-.8-.44-1.8-.56-2.77-.28-1.93.54-3.06 2.48-2.54 4.33l5.31 18.67-.24.07-6.44-22.68c-.26-.91-.9-1.65-1.71-2.07-.8-.43-1.78-.57-2.75-.29-1.92.55-3.07 2.49-2.54 4.34l6.44 22.69c-.11.12-.28.01-.38.11l-4.39-15.4c-.46-1.66-2.28-2.61-4.02-2.12l-.66.18c-1.76.5-2.79 2.27-2.32 3.94l7.23 25.42v.01l-8.15-7.62c-1.06-1.01-2.6-1.32-3.96-.93-.69.19-1.33.56-1.85 1.08-1.62 1.59-1.59 4.09.02 5.61l19.34 18.08c1.26 1.33 2.88 2.62 4.72 3.66l11.79 49.35 23.42-6.27z" fill="#dedee0"/><path d="m121.887 41.087-.14 29.03-1.37.3c-18.11.38-21.92-8.11-21.92-8.11h-12.58c-1.66 0-3.09-.97-3.76-2.36-.24-.51-.39-1.09-.4-1.7v-.09c0-.19.01-.38.04-.56 0 0 0 0 0-.01.12-.92.55-1.73 1.18-2.35.38-.38.82-.68 1.32-.9.5-.2 1.04-.32 1.62-.32h9 2.84.01l.07-.02c.72-.07 5.77-.57 5.77-1.29-.01-.74-.14-1.71-.56-2.69-.27-.63-.67-1.27-1.25-1.84-.19-.2-.4-.38-.64-.56-.22-.17-.46-.33-.72-.47-1.21-.7-2.86-1.18-5.11-1.28-.01 0-.01 0-.02 0s-.02.01-.04.01l-.29.07-.06-.25s-3.96-1.71-4.9-1.43-3.6 3.35-3.6 3.35l.04.18c-5.21 1.11-11.21 2.52-13.53 3.08-.21.04-.39.09-.53.12-.22.05-.36.09-.42.1h-.02c.31-.41 9.48-12.6 14.59-14.38l13.84-2.7c1.67-.32 3.39-.17 4.98.44 5 1.92 16.03 6.18 16.56 6.63z" fill="#dedee0"/><path d="m100.587 47.747 1.2 5.36-3.99.89c-.05.01-.08.01-.08.01h-2.84l-1.07-4.75z" fill="#7c86bb"/><path d="m94.877 54.007v.01h-9c-.58 0-1.12.12-1.62.32.5-.22 1.04-.33 1.62-.33z" fill="#231f20"/><path d="m93.807 49.257 1.07 4.75h-9c-.58 0-1.12.11-1.62.33-.5.2-.94.51-1.32.89v.01c-.63.62-1.06 1.43-1.18 2.35v.01l-2.54.57-1.2-5.36z" fill="#202a42"/><path d="m90.037 49.467-12.16 2.74v-.01z" fill="#231f20"/><path d="m82.937 55.227c.38-.38.82-.69 1.32-.89-.5.22-.94.52-1.32.9z" fill="#231f20"/><path d="m82.117 59.947-22.93 5.14-.51-2.31 17.32-3.89 3.22-.72.14.61 2.36-.53c.01.61.16 1.19.4 1.7z" fill="#202a42"/><path d="m78.017 52.807 1.2 5.36-3.22.72-17.32 3.88v.01l-2.15.48-1.62-1.63-.77 2.16-1.84.42-1.61-1.63-.72 2.06-.04.1-8.07 1.81 4.28-6.59 2.27-.51zm-1.43 4.35c.51-.12.84-.63.72-1.14-.11-.52-.62-.83-1.14-.71-.51.1-.83.61-.72 1.13.12.51.63.83 1.14.72z" fill="#7c86bb"/><path d="m77.307 56.017c.12.51-.21 1.02-.72 1.14-.51.11-1.02-.21-1.14-.72-.11-.52.21-1.03.72-1.13.52-.12 1.03.19 1.14.71z" fill="#202a42"/><path d="m48.907 76.537c0 2.48-2.01 4.5-4.49 4.5s-4.49-2.02-4.49-4.5 4.49-7.86 4.49-7.86 4.49 5.38 4.49 7.86z" fill="#f7bd76"/><path d="m38.567 58.741c-.243 0-.488-.008-.735-.026-.551-.039-.965-.518-.926-1.068.04-.551.52-.966 1.069-.926 4.448.315 8.345-3.089 8.383-3.124.413-.367 1.044-.329 1.412.084.367.413.329 1.045-.084 1.412-.177.156-4.173 3.648-9.119 3.648z" fill="#f7bd76"/><path d="m33.709 69.678c-1.286 0-1.892-.26-2.082-.362-.485-.263-.666-.87-.403-1.355.255-.472.836-.655 1.315-.424.117.045 2.249.759 8.615-1.617.52-.193 1.094.069 1.287.587s-.07 1.093-.587 1.286c-4.026 1.503-6.585 1.885-8.145 1.885z" fill="#f7bd76"/><path d="m35.371 65.848c-.229 0-.401-.01-.527-.017l-.068-.004c-.462.066-.919-.215-1.073-.676-.175-.524.108-1.091.632-1.265.225-.075.417-.063.62-.053 1.687.089 4.437-.506 8.203-1.785.524-.176 1.091.103 1.268.626.178.522-.103 1.091-.625 1.269-4.984 1.692-7.349 1.905-8.43 1.905z" fill="#f7bd76"/><g fill="#18273d"><path d="m38.071 110.548c-.179 0-.355-.048-.512-.141-.232-.139-.398-.364-.461-.627l-11.694-48.934c-1.694-1.004-3.268-2.248-4.574-3.615l-19.293-18.045c-.977-.923-1.522-2.156-1.537-3.476-.015-1.34.517-2.61 1.497-3.579.632-.632 1.424-1.094 2.285-1.331 1.737-.499 3.625-.053 4.917 1.166l5.519 5.161-6.249-21.967c-.619-2.198.728-4.52 3-5.178l.674-.184c.936-.264 1.945-.204 2.838.157l-1.19-4.192c-.676-2.375.775-4.878 3.235-5.579 1.175-.338 2.417-.208 3.493.371 1.064.551 1.869 1.528 2.196 2.674l.18.633c.612-.827 1.483-1.426 2.504-1.711 1.187-.343 2.472-.209 3.518.367 1.052.539 1.855 1.519 2.179 2.674l1.641 5.758c.542-.669 1.294-1.188 2.192-1.447l.672-.176c1.099-.316 2.273-.185 3.285.376.968.537 1.666 1.409 1.965 2.454l4.774 16.789 4.428 15.913c.095.379.193.771.246 1.208.132 1.261.104 2.532-.083 3.798 0 .046-.003.093-.01.14-.246 1.716-.787 3.362-1.609 4.898l1.269 4.262c.158.529-.144 1.086-.673 1.243s-1.086-.143-1.244-.673l-1.388-4.664c-.078-.262-.045-.544.09-.782.792-1.385 1.316-2.877 1.556-4.437 0-.052.003-.104.012-.156.179-1.141.211-2.286.093-3.405-.036-.296-.111-.597-.199-.946l-.026-.104-4.387-15.755-4.772-16.782c-.151-.53-.511-.975-1.012-1.253-.544-.303-1.179-.371-1.785-.197l-.671.176c-1.213.35-1.921 1.54-1.589 2.703l2.737 9.669c.085.302.024.625-.165.875-.129.171-.308.293-.508.354-.272.113-.618.13-.871.023-.277-.119-.486-.356-.569-.646l-5.324-18.674c-.175-.625-.609-1.152-1.192-1.452-.612-.336-1.343-.408-2.033-.208-.708.198-1.283.646-1.629 1.265-.319.571-.398 1.222-.223 1.833l5.303 18.677c.15.528-.155 1.08-.682 1.233l-.24.07c-.256.074-.531.044-.764-.085s-.405-.346-.478-.602l-6.441-22.689c-.176-.617-.616-1.146-1.206-1.453-.627-.336-1.335-.411-2.009-.216-1.402.4-2.236 1.794-1.862 3.109l6.441 22.69c.095.333.01.692-.224.948-.205.225-.472.352-.794.381-.183.062-.382.071-.575.021-.343-.089-.613-.353-.71-.694l-4.384-15.399c-.143-.521-.489-.954-.976-1.229-.542-.306-1.205-.381-1.815-.21l-.667.182c-1.207.35-1.939 1.567-1.618 2.708l7.23 25.413c.025.089.038.181.038.273 0 .398-.236.764-.602.922-.366.159-.79.09-1.081-.182l-8.149-7.62c-.783-.739-1.934-1.006-3.006-.698-.538.148-1.024.432-1.416.824-.595.591-.915 1.349-.907 2.141.009.773.331 1.498.906 2.042l19.33 18.082c1.309 1.369 2.863 2.571 4.533 3.516.242.137.416.367.48.638l11.555 48.354 21.432-5.74-11.23-37.651c-.157-.529.144-1.086.674-1.244.529-.153 1.086.146 1.243.674l11.524 38.636c.077.259.046.538-.085.774-.132.235-.354.408-.614.478l-23.418 6.271c-.086.019-.172.031-.259.031z"/><path d="m31.005 48.843c-.363 0-.714-.198-.891-.544-4.828-9.418-13.591-7.052-13.678-7.027-.533.15-1.084-.157-1.235-.688s.157-1.084.688-1.235c.105-.029 10.438-2.82 16.004 8.039.252.491.058 1.094-.434 1.346-.145.073-.301.109-.454.109z"/><path d="m38.567 58.741c-.243 0-.488-.008-.735-.026-.551-.039-.965-.518-.926-1.068.04-.551.52-.966 1.069-.926 4.448.315 8.345-3.089 8.383-3.124.413-.367 1.044-.329 1.412.084.367.413.329 1.045-.084 1.412-.177.156-4.173 3.648-9.119 3.648z"/><path d="m33.709 69.678c-1.286 0-1.892-.26-2.082-.362-.485-.263-.666-.87-.403-1.355.255-.472.836-.655 1.315-.424.117.045 2.249.759 8.615-1.617.52-.193 1.094.069 1.287.587s-.07 1.093-.587 1.286c-4.026 1.503-6.585 1.885-8.145 1.885z"/><path d="m35.371 65.848c-.229 0-.401-.01-.527-.017l-.068-.004c-.462.066-.919-.215-1.073-.676-.175-.524.108-1.091.632-1.265.225-.075.417-.063.62-.053 1.687.089 4.437-.506 8.203-1.785.524-.176 1.091.103 1.268.626.178.522-.103 1.091-.625 1.269-4.984 1.692-7.349 1.905-8.43 1.905z"/><path d="m59.191 66.089c-.458 0-.87-.315-.975-.78l-.519-2.308c-.016-.072-.024-.146-.024-.22 0-.468.325-.883.781-.985l23.089-5.173c.325-.074.664.021.905.249s.354.562.299.89c-.021.128-.026.263-.026.396.007.508.112.953.304 1.361.129.274.127.593-.007.865-.133.272-.383.47-.679.536l-22.929 5.144c-.073.017-.146.025-.219.025zm.676-2.559.082.365 20.88-4.685c-.025-.12-.046-.242-.062-.364z"/><path d="m57.335 57.808c-.188 0-.374-.053-.536-.155-.224-.143-.382-.367-.44-.626l-.519-2.317c-.121-.539.218-1.074.757-1.194l32.176-7.22c.095-.023.206-.045.318-.067l.215-.044 5.697-1.288c.003 0 .006-.001.009-.002.083-.021.17-.032.251-.032 2.3.1 4.174.578 5.634 1.422.356.207.55.61.487 1.017-.062.407-.368.734-.77.824l-43.062 9.657c-.071.017-.144.025-.217.025zm.675-2.561.082.366 38.496-8.634c-.392-.053-.802-.09-1.23-.112z"/><path d="m41.856 67.547c-.323 0-.632-.156-.821-.43-.232-.333-.239-.774-.017-1.115l4.284-6.591c.142-.219.364-.373.619-.431l31.877-7.151c.258-.06.53-.012.754.131s.382.368.44.626l1.198 5.363c.12.538-.219 1.073-.757 1.193l-20.411 4.574c-.042.017-.086.029-.132.039l-2.147.479c-.335.076-.687-.027-.929-.272l-.498-.504-.236.664c-.114.323-.386.564-.72.641l-1.837.42c-.336.081-.69-.024-.934-.271l-.489-.496-.247.691c-.122.308-.388.534-.71.606l-8.069 1.808c-.072.018-.146.026-.218.026zm4.901-6.704-2.725 4.192 5.138-1.151.57-1.64c.113-.326.387-.571.724-.647.336-.075.689.027.932.272l1.227 1.242.758-.174.585-1.648c.115-.325.389-.567.725-.643.336-.073.687.028.929.273l1.229 1.244 1.476-.329c.042-.017.086-.029.13-.039l17.06-3.823c-.504-.252-.899-.717-1.037-1.303-.229-1.077.438-2.12 1.48-2.346.485-.109.992-.032 1.425.225l-.124-.548zm31.243-3.525c-.027.04-.055.079-.085.117l.106-.023zm-1.641-1.132c-.031.008-.027.052-.025.063l.254.91z"/><path d="m76.396 58.178c-.898 0-1.708-.613-1.919-1.508-.002-.008-.003-.015-.005-.022-.223-1.055.443-2.097 1.486-2.323.504-.115 1.033-.025 1.476.257.441.281.744.718.853 1.231.24 1.022-.416 2.072-1.468 2.32-.142.03-.284.045-.423.045zm-.009-1.997c-.003 0-.006 0-.01.001l-.927.259.973-.229c-.004-.02-.018-.031-.036-.031z"/><path d="m58.673 63.781c-.225 0-.446-.076-.625-.22-.237-.189-.375-.477-.375-.78 0-.468.325-.883.781-.985l20.542-4.604c.54-.121 1.074.218 1.194.757.121.539-.218 1.073-.756 1.194l-20.542 4.613c-.072.018-.146.025-.219.025z"/><path d="m79.215 59.168c-.188 0-.375-.053-.536-.155-.224-.143-.382-.368-.44-.627l-1.198-5.362c-.12-.539.219-1.073.757-1.194l23.097-5.183c.288-.063.588.001.823.178.985.744 1.727 1.686 2.205 2.801.518 1.181.64 2.32.65 3.066.006.473-.32.886-.782.99l-5.842 1.308c-.072.016-.145.024-.219.024h-11.854c-.848 0-1.638.327-2.224.921-.5.493-.807 1.103-.897 1.773-.05.418-.357.773-.775.866l-2.546.569c-.073.017-.146.025-.219.025zm-.004-5.606.762 3.412.939-.21c.237-.843.694-1.622 1.326-2.244.955-.968 2.25-1.506 3.638-1.506h11.743l4.89-1.095c-.065-.452-.19-.97-.422-1.498-.283-.662-.695-1.235-1.228-1.715z"/><path d="m94.874 54.014h-8.998c-1.148 0-2.187.459-2.936 1.218-.629.619-1.059 1.438-1.178 2.357v.01c-.03.18-.04.37-.04.559v.09l-2.367.529-.14-.609-1.198-5.363-.14-.599v-.01l15.789-3.535.14.599z"/><path d="m101.786 54.103c-.458 0-.871-.316-.975-.781l-1.203-5.359c-.121-.539.218-1.074.757-1.194.535-.122 1.074.217 1.194.757l1.203 5.359c.121.539-.218 1.074-.757 1.194-.073.016-.146.024-.219.024z"/><path d="m119.245 71.431c-15.088 0-20.139-6.146-21.372-8.121h-11.997c-1.976 0-3.804-1.151-4.657-2.935-.315-.669-.486-1.398-.498-2.114 0-.005 0-.101 0-.105 0-.227.012-.453.045-.669 0-.011.002-.021.003-.03.145-1.106.667-2.15 1.469-2.939.955-.967 2.25-1.505 3.637-1.505h11.845c1.771-.16 3.965-.489 4.827-.774-.047-.521-.171-1.162-.459-1.819-.342-.798-.871-1.469-1.575-2.001-.198-.152-.394-.281-.591-.387-1.18-.682-2.707-1.068-4.564-1.163l-6.136 1.376c-6.875 1.375-16.977 3.808-17.078 3.832-.412.097-.837-.07-1.069-.422s-.218-.812.034-1.149c.392-.524 9.648-12.849 15.068-14.734.045-.016.091-.028.138-.037l13.843-2.696c1.853-.361 3.766-.194 5.529.482 16.133 6.191 16.619 6.604 16.852 6.802.225.191.354.472.353.767l-.14 29.031v-.001c-.005 1.188-1.513 1.261-2.324 1.3-.401.007-.796.011-1.183.011zm1.506-1.323v.003zm-37.994-12.422c-.002.025-.005.051-.009.074-.021.128-.026.262-.026.396.007.508.112.954.304 1.362.52 1.086 1.64 1.792 2.85 1.792h12.583c.394 0 .751.231.913.591.034.072 3.877 7.883 20.987 7.52.124-.006.264-.018.396-.032l.133-27.712c-1.31-.587-6.032-2.494-15.919-6.288-1.413-.542-2.943-.676-4.43-.387l-13.769 2.68c-3.336 1.218-9.015 7.664-12.327 11.792 3.515-.827 9.684-2.25 14.353-3.184.073-.018.183-.04.295-.062l.215-.044 5.697-1.288c.003 0 .006-.001.009-.002.083-.021.17-.032.251-.032 2.3.1 4.174.578 5.634 1.422.266.143.554.331.829.543.977.739 1.718 1.681 2.196 2.795.519 1.181.64 2.32.65 3.067.019.757.043 1.715-6.764 2.317l-11.932.004c-.848 0-1.638.327-2.224.92-.496.49-.801 1.093-.895 1.756zm19.815-4.975v.018c.001-.006 0-.012 0-.018z"/><path d="m76.589 57.16c-.509.11-1.019-.21-1.138-.719-.11-.519.21-1.029.719-1.138.519-.12 1.029.2 1.138.719.12.509-.21 1.018-.719 1.138z"/><path d="m89.52 48.161c-.462 0-.876-.322-.977-.791-.114-.536.223-1.063.758-1.185l5.702-1.289c.518-.118 1.046.198 1.186.715.14.518-.154 1.054-.666 1.214-1.065.334-3.744.899-5.804 1.315-.067.015-.133.021-.199.021z"/><path d="m86.375 48.62c-.232 0-.466-.081-.655-.245-.417-.362-.461-.994-.099-1.411 1.066-1.228 3.013-3.335 4.069-3.652 1.06-.321 3.62.621 5.58 1.465.507.219.741.807.523 1.314-.219.507-.807.741-1.314.523-1.811-.78-3.796-1.418-4.267-1.375-.394.172-1.934 1.715-3.082 3.036-.198.228-.475.345-.755.345z"/><path d="m44.418 82.033c-3.029 0-5.494-2.465-5.494-5.494 0-2.708 3.938-7.56 4.727-8.505.38-.455 1.155-.455 1.535 0 .789.945 4.727 5.797 4.727 8.505-.001 3.03-2.466 5.494-5.495 5.494zm0-11.759c-1.584 2.047-3.494 4.947-3.494 6.266 0 1.927 1.567 3.494 3.494 3.494s3.494-1.567 3.494-3.494c0-1.319-1.91-4.219-3.494-6.266z"/></g></svg>