<?xml version="1.0" encoding="iso-8859-1"?>
<!-- Generator: Adobe Illustrator 19.0.0, SVG Export Plug-In . SVG Version: 6.00 Build 0)  -->
<svg version="1.1" id="Capa_1" xmlns="http://www.w3.org/2000/svg" xmlns:xlink="http://www.w3.org/1999/xlink" x="0px" y="0px"
	 viewBox="0 0 512 512" style="enable-background:new 0 0 512 512;" xml:space="preserve">
<g>
	<polygon style="fill:#46B29D;" points="512,185.379 512,512 344.276,478.455 335.448,476.69 326.621,478.543 226.428,499.641 
		208.508,503.437 176.552,510.146 167.724,512 158.897,510.146 0,476.69 0,150.069 158.897,183.526 167.724,185.379 
		176.552,183.526 186.968,181.319 329.71,159.603 338.891,158.19 338.979,158.19 360.077,155.012 	"/>
	<path style="fill:#F9EAB0;" d="M344.276,242.141V415.25c98.428,4.855,154.483-30.455,167.724-39.989v21.274
		c-22.775,13.859-72.298,36.988-148.921,36.988c-6.003,0-12.359-0.177-18.803-0.53v45.462l-8.828-1.766l-8.828,1.854v-46.786
		c-78.389-7.857-96.839-42.726-117.937-82.979c-8.92-18.376-19.686-35.798-32.132-51.994v133.65
		c20.187,20.281,37.022,43.642,49.876,69.208l-17.92,3.796c-8.929-16.869-19.642-32.732-31.956-47.316v54.025L167.724,512
		l-8.828-1.854v-72.033C105.666,390.532,34.428,366.345,0,356.723V338.45c31.514,8.386,102.047,31.073,158.897,76.623V277.451
		C102.047,224.309,17.743,262.091,0,271.007v-19.509c27.983-12.535,101.429-38.312,158.897,3.178v-71.15l8.828,1.854l8.828-1.854
		v86.599c19.422,20.924,35.555,44.676,47.846,70.444c19.95,38.312,34.781,66.295,102.223,73.445V166.312
		c0.034-2.573,1.157-5.01,3.09-6.709c2.542-2.179,6.101-2.727,9.181-1.412h0.088c3.202,1.438,5.272,4.611,5.297,8.121v43.52
		c33.342,61.442,97.82,99.518,167.724,99.046v17.655C445.919,326.398,383.766,295.125,344.276,242.141L344.276,242.141z"/>
	<path style="fill:#CC4B4C;" d="M375.059,101.213c0,45.652-71.712,164.18-98.002,202.846c-2.191,3.078-5.735,4.906-9.513,4.906
		s-7.323-1.828-9.513-4.906c-26.29-38.666-98.002-157.195-98.002-202.846C160.028,45.315,208.165,0,267.544,0
		S375.059,45.315,375.059,101.213z"/>
	<circle style="fill:#E6E7E8;" cx="267.564" cy="102.329" r="44.138"/>
</g>
<g>
</g>
<g>
</g>
<g>
</g>
<g>
</g>
<g>
</g>
<g>
</g>
<g>
</g>
<g>
</g>
<g>
</g>
<g>
</g>
<g>
</g>
<g>
</g>
<g>
</g>
<g>
</g>
<g>
</g>
</svg>
