<?xml version="1.0" encoding="iso-8859-1"?>
<!-- Generator: Adobe Illustrator 19.0.0, SVG Export Plug-In . SVG Version: 6.00 Build 0)  -->
<svg version="1.1" id="Capa_1" xmlns="http://www.w3.org/2000/svg" xmlns:xlink="http://www.w3.org/1999/xlink" x="0px" y="0px"
	 viewBox="0 0 512 512" style="enable-background:new 0 0 512 512;" xml:space="preserve">
<g>
	<polygon style="fill:#CBB292;" points="512,308.501 512,511.535 432.552,432.087 423.724,440.032 353.103,503.591 344.276,511.535 
		335.448,503.591 272.154,446.653 239.846,446.653 176.552,503.591 167.724,511.535 158.897,503.591 88.276,440.032 79.448,432.087 
		0,511.535 0,308.501 79.448,229.053 88.276,236.997 158.19,299.938 158.897,300.556 167.724,308.413 344.276,308.413 
		353.103,300.556 353.81,299.938 423.724,236.997 432.552,229.053 	"/>
	<g>
		<polygon style="fill:#7F6E5D;" points="176.552,308.413 176.552,503.591 167.724,511.535 158.897,503.591 158.897,300.556 
			167.724,308.413 		"/>
		<polygon style="fill:#7F6E5D;" points="353.103,300.556 353.103,503.591 344.276,511.535 335.448,503.591 335.448,308.413 
			344.276,308.413 		"/>
		<polygon style="fill:#7F6E5D;" points="441.379,237.88 441.379,440.915 432.552,432.087 423.724,440.032 423.724,236.997 
			432.552,229.053 		"/>
		<polygon style="fill:#7F6E5D;" points="88.276,236.997 88.276,440.032 79.448,432.087 70.621,440.915 70.621,237.88 
			79.448,229.053 		"/>
	</g>
	<path style="fill:#CC4B4C;" d="M406.069,150.534c0,67.689-100.095,243.432-136.791,300.762c-2.895,4.532-7.901,7.275-13.278,7.275
		s-10.384-2.743-13.278-7.275c-36.695-57.33-136.791-233.073-136.791-300.762C105.931,67.653,173.119,0.465,256,0.465
		S406.069,67.653,406.069,150.534z"/>
	<circle style="fill:#802F34;" cx="256" cy="152.191" r="78.98"/>
	<circle style="fill:#ECF0F1;" cx="256" cy="152.2" r="47.386"/>
</g>
<g>
</g>
<g>
</g>
<g>
</g>
<g>
</g>
<g>
</g>
<g>
</g>
<g>
</g>
<g>
</g>
<g>
</g>
<g>
</g>
<g>
</g>
<g>
</g>
<g>
</g>
<g>
</g>
<g>
</g>
</svg>
