<?xml version="1.0" encoding="UTF-8"?>
<svg xmlns="http://www.w3.org/2000/svg" xmlns:xlink="http://www.w3.org/1999/xlink" width="512" height="512" viewBox="0 0 42 58" version="1.1"><!-- Generator: Sketch 51.3 (57544) - http://www.bohemiancoding.com/sketch --><title>096 - Folder Deviders</title><desc>Created with Sketch.</desc><defs/><g id="Page-1" stroke="none" stroke-width="1" fill="none" fill-rule="evenodd"><g id="096---Folder-Deviders" fill-rule="nonzero"><path d="M42,12 L42,18 C41.9967052,19.1032019 41.1032019,19.9967052 40,20 L36,20 L36,10 L40,10 C41.1032019,10.0032948 41.9967052,10.8967981 42,12 Z" id="Shape" fill="#FF5364"/><path d="M42,22 L42,28 C41.9967052,29.1032019 41.1032019,29.9967052 40,30 L36,30 L36,20 L40,20 C41.1032019,20.0032948 41.9967052,20.8967981 42,22 Z" id="Shape" fill="#F0C419"/><path d="M42,32 L42,38 C41.9967052,39.1032019 41.1032019,39.9967052 40,40 L36,40 L36,30 L40,30 C41.1032019,30.0032948 41.9967052,30.8967981 42,32 Z" id="Shape" fill="#7ED09E"/><path d="M40,2.22044605e-16 L1,2.22044605e-16 C0.44771525,2.22044605e-16 0,0.44771525 0,1 L0,57 C0,57.5522847 0.44771525,58 1,58 L36,58 C37.1032019,57.9967052 37.9967052,57.1032019 38,56 L38,10 L40,10 C41.1032019,9.9967052 41.9967052,9.10320187 42,8 L42,2 C41.9967052,0.896798134 41.1032019,0.00329480111 40,2.22044605e-16 Z M5,55 C5,55.5522847 4.55228475,56 4,56 C3.44771525,56 3,55.5522847 3,55 L3,54 C3,53.4477153 3.44771525,53 4,53 C4.55228475,53 5,53.4477153 5,54 L5,55 Z M5,49 C5,49.5522847 4.55228475,50 4,50 C3.44771525,50 3,49.5522847 3,49 L3,48 C3,47.4477153 3.44771525,47 4,47 C4.55228475,47 5,47.4477153 5,48 L5,49 Z M5,44 C5,44.5522847 4.55228475,45 4,45 C3.44771525,45 3,44.5522847 3,44 L3,43 C3,42.4477153 3.44771525,42 4,42 C4.55228475,42 5,42.4477153 5,43 L5,44 Z M5,38 C5,38.5522847 4.55228475,39 4,39 C3.44771525,39 3,38.5522847 3,38 L3,37 C3,36.4477153 3.44771525,36 4,36 C4.55228475,36 5,36.4477153 5,37 L5,38 Z M5,33 C5,33.5522847 4.55228475,34 4,34 C3.44771525,34 3,33.5522847 3,33 L3,32 C3,31.4477153 3.44771525,31 4,31 C4.55228475,31 5,31.4477153 5,32 L5,33 Z M5,27 C5,27.5522847 4.55228475,28 4,28 C3.44771525,28 3,27.5522847 3,27 L3,26 C3,25.4477153 3.44771525,25 4,25 C4.55228475,25 5,25.4477153 5,26 L5,27 Z M5,22 C5,22.5522847 4.55228475,23 4,23 C3.44771525,23 3,22.5522847 3,22 L3,21 C3,20.4477153 3.44771525,20 4,20 C4.55228475,20 5,20.4477153 5,21 L5,22 Z M5,16 C5,16.5522847 4.55228475,17 4,17 C3.44771525,17 3,16.5522847 3,16 L3,15 C3,14.4477153 3.44771525,14 4,14 C4.55228475,14 5,14.4477153 5,15 L5,16 Z M5,11 C5,11.5522847 4.55228475,12 4,12 C3.44771525,12 3,11.5522847 3,11 L3,10 C3,9.44771525 3.44771525,9 4,9 C4.55228475,9 5,9.44771525 5,10 L5,11 Z M5,5 C5,5.55228475 4.55228475,6 4,6 C3.44771525,6 3,5.55228475 3,5 L3,4 C3,3.44771525 3.44771525,3 4,3 C4.55228475,3 5,3.44771525 5,4 L5,5 Z" id="Shape" fill="#2980BA"/><rect id="Rectangle-path" fill="#802D40" x="38" y="10" width="1" height="10"/><rect id="Rectangle-path" fill="#F29C1F" x="38" y="20" width="1" height="10"/><rect id="Rectangle-path" fill="#24AE5F" x="38" y="30" width="1" height="10"/></g></g></svg>
