<?xml version="1.0" encoding="UTF-8"?>
<svg xmlns="http://www.w3.org/2000/svg" xmlns:xlink="http://www.w3.org/1999/xlink" width="512" height="512" viewBox="0 0 55 58" version="1.1"><!-- Generator: Sketch 51.3 (57544) - http://www.bohemiancoding.com/sketch --><title>023 - Compass</title><desc>Created with Sketch.</desc><defs/><g id="Page-1" stroke="none" stroke-width="1" fill="none" fill-rule="evenodd"><g id="023---Compass" fill-rule="nonzero"><path d="M16.788,50.4 L15.717,50.948 L16.79,50.398 L12.09,41.218 L10.26,37.658 L8.01,33.248 L5.79,28.92 C5.27858874,27.9166428 4.24616785,27.2863633 3.12,27.29 C2.64333845,27.2873518 2.17317609,27.4006025 1.75,27.62 C1.04062398,27.979363 0.504233259,28.6072587 0.260102122,29.3640652 C0.0159709849,30.1208717 0.0843377239,30.9438504 0.45,31.65 L2.67,35.99 L4.93,40.4 L6.76,43.97 L11.448,53.137 L16.408,57.252 C16.5619357,57.3796523 16.7771267,57.4033047 16.9551139,57.3121353 C17.1331011,57.2209658 17.2396461,57.0325122 17.226,56.833 L16.788,50.4 Z" id="Shape" fill="#F9EAB0"/><path d="M6.76,43.97 L11.45,53.14 L16.79,50.4 L12.09,41.22 L10.26,37.66 L8.01,33.25 L5.79,28.92 C5.27858874,27.9166428 4.24616785,27.2863633 3.12,27.29 C2.64333845,27.2873518 2.17317609,27.4006025 1.75,27.62 C1.04062398,27.979363 0.504233259,28.6072587 0.260102122,29.3640652 C0.0159709849,30.1208717 0.0843377239,30.9438504 0.45,31.65 L2.67,35.99 L4.93,40.4 L6.76,43.97 Z" id="Shape" fill="#F29C1F"/><polygon id="Shape" fill="#F0C419" points="14.18 51.74 11.45 53.14 6.76 43.97 4.93 40.4 2.67 35.99 5.4 34.59 5.89 35.55 8.14 39.96 9.97 43.52"/><path d="M8.01,33.25 L8,33.26 L2.67,35.99 L0.45,31.65 C0.0843377239,30.9438504 0.0159709849,30.1208717 0.260102122,29.3640652 C0.504233259,28.6072587 1.04062398,27.979363 1.75,27.62 C2.17317609,27.4006025 2.64333845,27.2873518 3.12,27.29 C4.24616785,27.2863633 5.27858874,27.9166428 5.79,28.92 L8.01,33.25 Z" id="Shape" fill="#FF5364"/><path d="M30.37,19.95 L19.33,43.62 L13.09,40.71 L5.74,44.49 C5.24811843,44.7398446 4.64676779,44.5483033 4.39,44.06 L3.48,42.28 C3.2301554,41.7881184 3.42169671,41.1867678 3.91,40.93 L12.99,36.25 L17.4,38.31 L26.91,17.88 L30.37,19.95 Z" id="Shape" fill="#90BAE1"/><polygon id="Shape" fill="#90BAE1" points="35.63 19.95 53.37 58 53.375 58 54.917 51.833 54.92 51.84 39.09 17.88"/><path d="M27,8 L39,8 C39.5522847,8 40,8.44771525 40,9 L40,15 C40,17.7614237 37.7614237,20 35,20 L31,20 C28.2385763,20 26,17.7614237 26,15 L26,9 C26,8.44771525 26.4477153,8 27,8 Z" id="Shape" fill="#E64C3C"/><path d="M33,2.22044605e-16 C34.6568542,2.22044605e-16 36,1.34314575 36,3 L36,8 L30,8 L30,3 C30,1.34314575 31.3431458,2.22044605e-16 33,2.22044605e-16 Z" id="Shape" fill="#C03A2B"/><circle id="Oval" fill="#BDC3C7" cx="33" cy="14" r="2"/><path d="M5.4,34.59 L2.67,35.99 L0.45,31.65 C0.140509842,31.0533285 0.0451994564,30.3685058 0.18,29.71 C0.446199749,29.6310441 0.722338444,29.5906336 1,29.59 C2.12616785,29.5863633 3.15858874,30.2166428 3.67,31.22 L5.4,34.59 Z" id="Shape" fill="#FB7B76"/></g></g></svg>
