<?xml version="1.0" encoding="UTF-8"?>
<svg xmlns="http://www.w3.org/2000/svg" xmlns:xlink="http://www.w3.org/1999/xlink" width="512" height="512" viewBox="0 0 58 58" version="1.1"><!-- Generator: Sketch 51.3 (57544) - http://www.bohemiancoding.com/sketch --><title>049 - Knife</title><desc>Created with Sketch.</desc><defs/><g id="Page-1" stroke="none" stroke-width="1" fill="none" fill-rule="evenodd"><g id="049---Knife" transform="translate(0.000000, -1.000000)" fill-rule="nonzero"><path d="M14.635,43.83 L14.623,43.836 L15.086,44.005 L55.345,58.658 C55.5945564,58.7486832 55.8699323,58.736394 56.1104189,58.6238418 C56.3509055,58.5112895 56.5367567,58.3077158 56.627,58.058 L57.387,55.968 C57.5455286,55.5329929 57.5455286,55.0560071 57.387,54.621 L44.448,19.044 L14.635,43.83 Z" id="Shape" fill="#4C8056"/><path d="M30.25,2.34 C18.747009,-1.8437251 6.0302098,4.08824236 1.84416003,15.5903876 C-2.34188973,27.0925328 3.58750754,39.8105306 15.0888066,43.9989049 C26.5901056,48.1872792 39.3093014,42.2604523 43.5,30.76 C45.5124204,25.2342534 45.246946,19.1353435 42.7619955,13.8053592 C40.2770451,8.47537495 35.77624,4.35106503 30.25,2.34 Z M18.5,21.66 C19.1127568,19.9754012 20.6799571,18.8257961 22.4708155,18.7472454 C24.2616739,18.6686948 25.9235099,19.6766679 26.6814095,21.301147 C27.439309,22.925626 27.1440161,24.8466963 25.9332259,26.1685627 C24.7224356,27.4904292 22.8345934,27.9527717 21.15,27.34 C18.850952,26.5019593 17.6650897,23.9601867 18.5,21.66 Z" id="Shape" fill="#46B29D"/><path d="M16.434,41.3 C16.3173142,41.2997757 16.201568,41.2791309 16.092,41.239 C6.12425773,37.5981302 0.983686556,26.5766776 4.6,16.6 C4.71128615,16.2502999 5.00517698,15.9896499 5.36566695,15.9209347 C5.72615693,15.8522195 6.09532404,15.98648 6.32744945,16.2707203 C6.55957486,16.5549607 6.61736164,16.9435105 6.478,17.283 C3.23682665,26.2242346 7.84439073,36.1018678 16.778,39.364 C17.2343048,39.5296165 17.5057638,39.9990182 17.4217265,40.4771192 C17.3376891,40.9552202 16.9224306,41.3039153 16.437,41.304 L16.434,41.3 Z" id="Shape" fill="#65DDB9"/><path d="M39.8,30.408 C39.4736862,30.4080979 39.167849,30.2489787 38.9806401,29.9817081 C38.7934312,29.7144376 38.7484007,29.3726371 38.86,29.066 C42.1017681,20.124739 37.4940117,10.2466934 28.56,6.985 C28.0558888,6.78631674 27.8017287,6.22228052 27.9868374,5.71302819 C28.1719462,5.20377586 28.728972,4.9345986 29.243,5.106 C39.2126124,8.74768989 44.3531033,19.7721661 40.734,29.75 C40.5909405,30.1431001 40.2183157,30.4056131 39.8,30.408 Z" id="Shape" fill="#65DDB9"/><path d="M25.87,14.38 C21.0136735,12.6113399 15.6430073,15.1140003 13.8737342,19.9701034 C12.1044611,24.8262066 14.6064436,30.1971887 19.4623233,31.9670748 C24.3182031,33.7369608 29.689501,31.2356563 31.46,26.38 C33.2245712,21.522895 30.7236216,16.1541302 25.87,14.38 Z M26.83,24.69 C26.2172432,26.3745988 24.6500429,27.5242039 22.8591845,27.6027546 C21.0683261,27.6813052 19.4064901,26.6733321 18.6485905,25.048853 C17.890691,23.424374 18.1859839,21.5033037 19.3967741,20.1814373 C20.6075644,18.8595708 22.4954066,18.3972283 24.18,19.01 C25.28546,19.4106977 26.1860965,20.2347186 26.6832396,21.3002931 C27.1803827,22.3658677 27.2331853,23.5854449 26.83,24.69 Z" id="Shape" fill="#527F72"/><path d="M36.339,48.547 C36.2233224,48.5464273 36.1086212,48.5257879 36,48.486 L33.22,47.475 C32.8589659,47.373631 32.5849888,47.0787939 32.5103367,46.7113046 C32.4356846,46.3438153 32.5729062,45.965447 32.865772,45.7312442 C33.1586377,45.4970413 33.5579183,45.4463724 33.9,45.6 L36.678,46.611 C37.1344827,46.7766806 37.4059499,47.2463667 37.3216407,47.7246119 C37.2373315,48.2028571 36.8216195,48.5514014 36.336,48.551 L36.339,48.547 Z" id="Shape" fill="#71C285"/><path d="M52.078,54.274 C51.9613734,54.2740962 51.845629,54.2537901 51.736,54.214 L39.7,49.834 C39.1918387,49.6377803 38.9342059,49.0709358 39.1205384,48.5590664 C39.3068708,48.047197 39.8686149,47.7786248 40.384,47.955 L52.42,52.335 C52.8749959,52.5016436 53.1450528,52.9705133 53.0608867,53.4477002 C52.9767207,53.9248872 52.5625518,54.2730735 52.078,54.274 Z" id="Shape" fill="#71C285"/></g></g></svg>
