<?xml version="1.0" encoding="UTF-8"?>
<svg xmlns="http://www.w3.org/2000/svg" xmlns:xlink="http://www.w3.org/1999/xlink" width="512" height="512" viewBox="0 0 58 58" version="1.1"><!-- Generator: Sketch 51.3 (57544) - http://www.bohemiancoding.com/sketch --><title>062 - Knife</title><desc>Created with Sketch.</desc><defs/><g id="Page-1" stroke="none" stroke-width="1" fill="none" fill-rule="evenodd"><g id="062---Knife" fill-rule="nonzero"><path d="M42.535,34 L53.288,46.147 C53.4971426,46.3856101 53.6675485,46.6555599 53.793,46.947 L57.947,56.674 C58.0668391,57.0354095 57.9723654,57.433507 57.7029158,57.7025333 C57.4334662,57.9715595 57.0352206,58.0654072 56.674,57.945 L46.934,53.8 C46.6425547,53.6767175 46.3725277,53.5079507 46.134,53.3 L34,42.523" id="Shape" fill="#95A5A5"/><path d="M56.67,57.95 L46.93,53.8 C46.7661061,53.7270946 46.6088493,53.6401014 46.46,53.54 L53.53,46.47 C53.6322429,46.6210592 53.7193314,46.7818381 53.79,46.95 L57.95,56.68 C58.0676592,57.0424964 57.9712514,57.4403564 57.7007088,57.7087853 C57.4301663,57.9772142 57.0315625,58.0704986 56.67,57.95 Z" id="Shape" fill="#BDC3C7"/><path d="M37.957,40.826 L44.357,47.218 C45.1459326,47.9765083 46.3967136,47.9644338 47.1708559,47.1908361 C47.9449982,46.4172384 47.957953,45.1664662 47.2,44.377 L40.8,37.985 L43.794,34.995 C43.9168713,34.8736663 43.9684376,34.6975192 43.9303961,34.529079 C43.8923547,34.3606389 43.7700908,34.2237505 43.607,34.167 L36.907,31.783 C35.738285,31.1992387 34.7907613,30.251715 34.207,29.083 L31.867,24.4 C31.1896834,23.0456321 30.2978423,21.8096843 29.226,20.74 L10.218,1.761 C7.90100273,-0.540975361 4.17529199,-0.588774928 1.8,1.653 C0.638509629,2.82933547 -0.0071060188,4.41953391 0.00565180765,6.07261051 C0.0184096341,7.72568711 0.688492029,9.30573148 1.868,10.464 L20.697,29.264 C21.7672622,30.3338239 23.0031478,31.2239317 24.357,31.9 L29.045,34.239 C30.213501,34.8230582 31.1609418,35.770499 31.745,36.939 L34.132,43.63 C34.1888302,43.7933327 34.3260275,43.9157021 34.4947695,43.9535622 C34.6635115,43.9914222 34.8398372,43.939397 34.961,43.816" id="Shape" fill="#3D324C"/><path d="M35.823,38.274 C35.4187861,38.2735098 35.0546176,38.0297205 34.90013,37.6561931 C34.7456424,37.2826657 34.8312202,36.8528655 35.117,36.567 L36.539,35.146 C36.7902596,34.8862271 37.1621337,34.7822388 37.5116946,34.8740022 C37.8612554,34.9657657 38.1341043,35.2390008 38.2253733,35.5886911 C38.3166423,35.9383814 38.212128,36.3101081 37.952,36.561 L36.53,37.981 C36.3429469,38.1692061 36.0883486,38.2747185 35.823,38.274 Z" id="Shape" fill="#7D6599"/><path d="M5.24,6.312 C4.97509192,6.31247416 4.7208197,6.20781615 4.533,6.021 L3.822,5.311 C3.56905596,5.05859186 3.46998416,4.69041308 3.562104,4.34515305 C3.65422384,3.99989301 3.92354012,3.73000493 4.26860401,3.63715304 C4.61366789,3.54430115 4.98205596,3.64259185 5.235,3.895 L5.946,4.604 C6.23249479,4.88977143 6.3185276,5.32003588 6.16394938,5.69400132 C6.00937115,6.06796676 5.64465364,6.31191405 5.24,6.312 Z" id="Shape" fill="#7D6599"/><path d="M18.753,19.808 C18.4882951,19.8079438 18.2344111,19.7029379 18.047,19.516 L7.378,8.861 C6.98698241,8.47081082 6.98631084,7.83751761 7.37650001,7.44650001 C7.76668918,7.05548241 8.3999824,7.05481083 8.791,7.445 L19.46,18.1 C19.7466239,18.3859 19.8325934,18.8164072 19.6777586,19.1904636 C19.5229237,19.56452 19.1578357,19.808319 18.753,19.808 Z" id="Shape" fill="#7D6599"/><path d="M49.337,51.77 C48.9321643,51.770319 48.5670763,51.52652 48.4122414,51.1524636 C48.2574066,50.7784072 48.3433761,50.3479 48.63,50.062 L50.053,48.642 C50.3027527,48.3760422 50.677527,48.2672091 51.0308857,48.3580255 C51.3842443,48.4488418 51.6601,48.7248927 51.7506663,49.0783155 C51.8412326,49.4317383 51.7321344,49.8064355 51.466,50.056 L50.043,51.477 C49.856191,51.6649594 49.6020021,51.7704513 49.337,51.77 Z" id="Shape" fill="#7F8C8D"/></g></g></svg>
