<?xml version="1.0" encoding="UTF-8"?>
<svg xmlns="http://www.w3.org/2000/svg" xmlns:xlink="http://www.w3.org/1999/xlink" width="512" height="512" viewBox="0 0 38 58" version="1.1"><!-- Generator: Sketch 51.3 (57544) - http://www.bohemiancoding.com/sketch --><title>003 - Glue</title><desc>Created with Sketch.</desc><defs/><g id="Page-1" stroke="none" stroke-width="1" fill="none" fill-rule="evenodd"><g id="003---Glue" fill-rule="nonzero"><path d="M20.789,1.106 C20.4502739,0.428271848 19.7576614,0.000135895712 19,0.000135895712 C18.2423386,0.000135895712 17.5497261,0.428271848 17.211,1.106 L13,12 L13,17 L25,17 L25,12 L20.789,1.106 Z" id="Shape" fill="#FF5364"/><path d="M28,14 L28,20 L10,20 L10,14 C10.0032948,12.8967981 10.8967981,12.0032948 12,12 L26,12 C27.1032019,12.0032948 27.9967052,12.8967981 28,14 Z" id="Shape" fill="#C03A2B"/><path d="M29.378,58 L8.622,58 C6.39609755,57.9998697 4.27088728,57.0723677 2.75715772,55.4404166 C1.24342816,53.8084654 0.478057312,51.6196333 0.645,49.4 L2.445,25.4 C2.75890088,21.2264428 6.23665488,18.000245 10.422,18 L27.578,18 C31.7633451,18.000245 35.2410991,21.2264428 35.555,25.4 L37.355,49.4 C37.5219427,51.6196333 36.7565718,53.8084654 35.2428423,55.4404166 C33.7291127,57.0723677 31.6039024,57.9998697 29.378,58 Z" id="Shape" fill="#90BAE1"/><path d="M28.035,58 L9.965,58 C5.913,58 2.717,54.043 3.02,49.4 L4.587,25.4 C4.86,21.225 7.887,18 11.532,18 L26.468,18 C30.112,18 33.14,21.227 33.413,25.4 L34.98,49.4 C35.283,54.043 32.087,58 28.035,58 Z" id="Shape" fill="#B0D3F0"/><rect id="Rectangle-path" fill="#FFFFFF" x="8" y="28" width="22" height="14" rx="2"/><path d="M11,55 L10,55 C9.44771525,55 9,54.5522847 9,54 C9,53.4477153 9.44771525,53 10,53 L11,53 C11.5522847,53 12,53.4477153 12,54 C12,54.5522847 11.5522847,55 11,55 Z" id="Shape" fill="#FFFFFF"/><path d="M28,55 L15,55 C14.4477153,55 14,54.5522847 14,54 C14,53.4477153 14.4477153,53 15,53 L28,53 C28.5522847,53 29,53.4477153 29,54 C29,54.5522847 28.5522847,55 28,55 Z" id="Shape" fill="#FFFFFF"/><path d="M13,34 L12,34 C11.4477153,34 11,33.5522847 11,33 C11,32.4477153 11.4477153,32 12,32 L13,32 C13.5522847,32 14,32.4477153 14,33 C14,33.5522847 13.5522847,34 13,34 Z" id="Shape" fill="#C03A2B"/><path d="M26,34 L17,34 C16.4477153,34 16,33.5522847 16,33 C16,32.4477153 16.4477153,32 17,32 L26,32 C26.5522847,32 27,32.4477153 27,33 C27,33.5522847 26.5522847,34 26,34 Z" id="Shape" fill="#C03A2B"/><path d="M26,38 L25,38 C24.4477153,38 24,37.5522847 24,37 C24,36.4477153 24.4477153,36 25,36 L26,36 C26.5522847,36 27,36.4477153 27,37 C27,37.5522847 26.5522847,38 26,38 Z" id="Shape" fill="#C03A2B"/><path d="M21,38 L12,38 C11.4477153,38 11,37.5522847 11,37 C11,36.4477153 11.4477153,36 12,36 L21,36 C21.5522847,36 22,36.4477153 22,37 C22,37.5522847 21.5522847,38 21,38 Z" id="Shape" fill="#C03A2B"/><rect id="Rectangle-path" fill="#E64C3C" x="14" y="12" width="2" height="6"/><rect id="Rectangle-path" fill="#E64C3C" x="18" y="12" width="2" height="6"/><rect id="Rectangle-path" fill="#E64C3C" x="22" y="12" width="2" height="6"/></g></g></svg>
