<?xml version="1.0" encoding="UTF-8"?>
<svg xmlns="http://www.w3.org/2000/svg" xmlns:xlink="http://www.w3.org/1999/xlink" width="512" height="512" viewBox="0 0 58 58" version="1.1"><!-- Generator: Sketch 51.3 (57544) - http://www.bohemiancoding.com/sketch --><title>063 - Gluestick</title><desc>Created with Sketch.</desc><defs/><g id="Page-1" stroke="none" stroke-width="1" fill="none" fill-rule="evenodd"><g id="063---Gluestick" transform="translate(-1.000000, 0.000000)" fill-rule="nonzero"><path d="M46.18,57.845 L33.517,45.181 L1.155,12.819 C0.381,12.045 2.583,8.577 6.079,5.08 C9.575,1.583 13.044,-0.62 13.818,0.156 L46.18,32.518 L58.844,45.181 L46.18,57.845 Z" id="Shape" fill="#BDC3C7"/><path d="M58.84,45.18 L46.18,57.84 L33.52,45.18 C32.74,44.41 34.95,40.94 38.44,37.44 C41.93,33.94 45.41,31.74 46.18,32.52 L58.84,45.18 Z" id="Shape" fill="#2C3E50"/><path d="M21.54,7.88 C20.73,7.15 17.29,9.34 13.82,12.82 C10.33,16.31 8.13,19.76 8.89,20.55 L1.15,12.82 C0.38,12.05 2.58,8.58 6.08,5.08 C9.58,1.58 13.04,-0.62 13.82,0.16 L21.54,7.88 Z" id="Shape" fill="#2C3E50"/><path d="M46.18,32.52 C45.41,31.74 41.94,33.95 38.44,37.44 L33.52,32.52 C35.07,30.96 34.44,27.81 32.11,25.48 C29.78,23.15 26.64,22.52 25.08,24.08 L25.07,24.08 L13.82,12.82 C17.29,9.34 20.73,7.15 21.54,7.88 L46.18,32.52 Z" id="Shape" fill="#95A5A5"/><path d="M58.84,45.18 L52.51,51.51 L38.44,37.44 C41.94,33.95 45.41,31.74 46.18,32.52 L58.84,45.18 Z" id="Shape" fill="#35495E"/><path d="M21.54,7.88 C20.73,7.15 17.29,9.34 13.82,12.82 L6.08,5.08 C9.58,1.58 13.04,-0.62 13.82,0.16 L21.54,7.88 Z" id="Shape" fill="#35495E"/><path d="M15.929,7.487 C15.6636514,7.48771853 15.4090531,7.38220607 15.222,7.194 L12.408,4.38 C12.1480434,4.12892553 12.0437874,3.75712211 12.1353028,3.40749268 C12.2268183,3.05786324 12.4998632,2.78481828 12.8494927,2.69330284 C13.1991221,2.6017874 13.5709255,2.70604342 13.822,2.966 L16.636,5.78 C16.9219079,6.06599425 17.0074219,6.49603662 16.852678,6.86965456 C16.6979341,7.2432725 16.3333959,7.48691365 15.929,7.487 Z" id="Shape" fill="#2C2F38"/><path d="M12.411,9.6 C12.1458052,9.59994336 11.8914927,9.49454937 11.704,9.307 L8.89,6.491 C8.53583772,6.09594747 8.55184998,5.49307018 8.92648311,5.11737425 C9.30111625,4.74167832 9.90394576,4.72395827 10.3,5.077 L13.114,7.891 C13.3999079,8.17699425 13.4854219,8.60703662 13.330678,8.98065456 C13.1759341,9.3542725 12.8113959,9.59791365 12.407,9.598 L12.411,9.6 Z" id="Shape" fill="#2C2F38"/><path d="M9.6,12.412 C9.33480519,12.4119434 9.08049273,12.3065494 8.893,12.119 L6.076,9.305 C5.81604342,9.05392553 5.7117874,8.68212211 5.80330284,8.33249268 C5.89481828,7.98286324 6.16786324,7.70981828 6.51749268,7.61830284 C6.86712211,7.5267874 7.23892553,7.63104342 7.49,7.891 L10.3,10.705 C10.5850259,10.9900911 10.6709938,11.4184493 10.5180394,11.7914394 C10.3650851,12.1644296 10.0031232,12.4091024 9.6,12.412 Z" id="Shape" fill="#2C2F38"/><path d="M7.486,15.93 C7.22080519,15.9299434 6.96649273,15.8245494 6.779,15.637 L3.965,12.822 C3.70504342,12.5709255 3.6007874,12.1991221 3.69230284,11.8494927 C3.78381828,11.4998632 4.05686324,11.2268183 4.40649268,11.1353028 C4.75612211,11.0437874 5.12792553,11.1480434 5.379,11.408 L8.193,14.223 C8.47890792,14.5089943 8.56442191,14.9390366 8.40967798,15.3126546 C8.25493405,15.6862725 7.8903959,15.9299137 7.486,15.93 Z" id="Shape" fill="#2C2F38"/><path d="M33.52,32.52 L25.08,24.08 C26.64,22.52 29.78,23.15 32.11,25.48 C34.44,27.81 35.07,30.96 33.52,32.52 Z" id="Shape" fill="#285680"/><path d="M33.52,32.52 C31.96,34.07 28.81,33.44 26.48,31.11 C24.15,28.78 23.52,25.63 25.07,24.08 L25.08,24.08 L33.52,32.52 Z" id="Shape" fill="#2980BA"/><rect id="Rectangle-path" fill="#2C3E50" transform="translate(20.501560, 19.502354) rotate(-45.000000) translate(-20.501560, -19.502354) " x="17.51656" y="17.0148536" width="5.97" height="4.975" rx="1.99"/><path d="M52.512,45.478 C52.2468052,45.4779434 51.9924927,45.3725494 51.805,45.185 L51.105,44.485 C50.8450434,44.2339255 50.7407874,43.8621221 50.8323028,43.5124927 C50.9238183,43.1628632 51.1968632,42.8898183 51.5464927,42.7983028 C51.8961221,42.7067874 52.2679255,42.8110434 52.519,43.071 L53.219,43.771 C53.5049079,44.0569943 53.5904219,44.4870366 53.435678,44.8606546 C53.2809341,45.2342725 52.9163959,45.4779137 52.512,45.478 Z" id="Shape" fill="#35495E"/><path d="M49,41.96 C48.7348052,41.9599434 48.4804927,41.8545494 48.293,41.667 L44.071,37.446 C43.8110434,37.1949255 43.7067874,36.8231221 43.7983028,36.4734927 C43.8898183,36.1238632 44.1628632,35.8508183 44.5124927,35.7593028 C44.8621221,35.6677874 45.2339255,35.7720434 45.485,36.032 L49.7,40.253 C49.9850259,40.5380911 50.0709938,40.9664493 49.9180394,41.3394394 C49.7650851,41.7124296 49.4031232,41.9571024 49,41.96 Z" id="Shape" fill="#35495E"/><ellipse id="Oval" fill="#556080" transform="translate(52.511890, 51.512707) rotate(-45.000000) translate(-52.511890, -51.512707) " cx="52.5118897" cy="51.5127071" rx="8.954" ry="1.99"/></g></g></svg>
