<?xml version="1.0" encoding="UTF-8"?>
<svg xmlns="http://www.w3.org/2000/svg" xmlns:xlink="http://www.w3.org/1999/xlink" width="512" height="512" viewBox="0 0 56 58" version="1.1"><!-- Generator: Sketch 51.3 (57544) - http://www.bohemiancoding.com/sketch --><title>048 - Highlighter</title><desc>Created with Sketch.</desc><defs/><g id="Page-1" stroke="none" stroke-width="1" fill="none" fill-rule="evenodd"><g id="048---Highlighter" transform="translate(0.000000, -1.000000)" fill-rule="nonzero"><path d="M53.436,49.725 L53.469,49.693 C53.8342396,49.3323242 53.8670823,48.7536874 53.545,48.354 C49.4,43.452 51.98,37.2 53.4,34.567 C53.8172067,33.7848077 53.6721132,32.8215821 53.043,32.197 L50.582,29.736 L18.449,3.192 C18.0479042,2.86002028 17.4600707,2.88774419 17.092,3.256 L17.027,3.321 L15.579,1.873 C15.0163763,1.31028095 14.2532375,0.994140672 13.4575,0.994140672 C12.6617625,0.994140672 11.8986237,1.31028095 11.336,1.873 L1.3,11.908 C0.737280954,12.4706237 0.421140672,13.2337625 0.421140672,14.0295 C0.421140672,14.8252375 0.737280954,15.5883763 1.3,16.151 L2.749,17.6 L2.684,17.665 C2.31574419,18.0330707 2.28802028,18.6209042 2.62,19.022 L29.163,51.153 L31.625,53.614 C32.2492687,54.2437311 33.2129252,54.3888895 33.995,53.971 C36.63,52.552 42.88,49.971 47.781,54.117 C48.1808579,54.4396918 48.7601928,54.406834 49.121,54.041 L49.153,54.009 L54.153,59.009 L55.581,51.87 L53.436,49.725 Z" id="Shape" fill="#DF4D60"/><path d="M50.581,29.736 L29.163,51.153 L2.62,19.021 C2.28802028,18.6199042 2.31574419,18.0320707 2.684,17.664 L17.092,3.256 C17.4600707,2.88774419 18.0479042,2.86002028 18.449,3.192 L50.581,29.736 Z" id="Shape" fill="#285680"/><path d="M50.581,29.736 L53.042,32.2 C53.6711132,32.8245821 53.8162067,33.7878077 53.399,34.57 C51.98,37.206 49.399,43.455 53.545,48.357 C53.8670823,48.7566874 53.8342396,49.3353242 53.469,49.696 L51.3,51.867 L49.126,54.041 C48.7651928,54.406834 48.1858579,54.4396918 47.786,54.117 C42.886,49.974 36.635,52.552 34,53.971 C33.2175595,54.38871 32.2537492,54.2435897 31.629,53.614 L29.168,51.153 L50.581,29.736 Z" id="Shape" fill="#2C3E50"/><path d="M17.03,3.32 L10.17,10.17 L6.61,6.61 L11.34,1.87 C12.5112702,0.700186488 14.4087298,0.700186488 15.58,1.87 L17.03,3.32 Z" id="Shape" fill="#FF5364"/><path d="M50.58,29.74 L40.16,40.16 L10.17,10.17 L17.03,3.32 L17.09,3.26 C17.4578956,2.89043987 18.0461061,2.86016433 18.45,3.19 L50.58,29.74 Z" id="Shape" fill="#4482C3"/><path d="M53.47,49.69 L53.44,49.73 L51.58,51.58 L40.16,40.16 L50.58,29.74 L53.04,32.2 C53.6726008,32.8225964 53.8191894,33.787638 53.4,34.57 C51.98,37.2 49.4,43.45 53.54,48.35 C53.8700722,48.7464454 53.8395826,49.3301037 53.47,49.69 Z" id="Shape" fill="#35495E"/><rect id="Rectangle-path" fill="#2980BA" transform="translate(23.451815, 24.024252) rotate(-45.000000) translate(-23.451815, -24.024252) " x="18.4038151" y="10.8992515" width="10.096" height="26.25" rx="2"/><path d="M29.163,37.045 C28.3678459,37.045626 27.604969,36.7305481 27.042,36.169 L11.309,20.435 C10.1403755,19.261677 10.1403755,17.364323 11.309,16.191 L15.621,11.881 C16.8080572,10.7480444 18.6759428,10.7480444 19.863,11.881 L35.6,27.614 C36.7711458,28.7854996 36.7711458,30.6845004 35.6,31.856 L31.289,36.168 C30.7253445,36.7317038 29.96016,37.0473514 29.163,37.045 Z M17.741,13 C17.4758648,12.998876 17.2214266,13.1044714 17.035,13.293 L12.723,17.603 C12.5349166,17.7906085 12.4292124,18.0453455 12.4292124,18.311 C12.4292124,18.5766545 12.5349166,18.8313915 12.723,19.019 L28.456,34.754 C28.6435683,34.941777 28.8980908,35.0472867 29.1635,35.0472867 C29.4289092,35.0472867 29.6834317,34.941777 29.871,34.754 L34.182,30.443 C34.5723819,30.0525001 34.5723819,29.4194999 34.182,29.029 L18.448,13.3 C18.2621087,13.1092229 18.0073648,13.0011279 17.741,13 Z" id="Shape" fill="#2C3E50"/><path d="M29.877,45.728 C29.4726041,45.7279137 29.1080659,45.4842725 28.953322,45.1106546 C28.7985781,44.7370366 28.8840921,44.3069943 29.17,44.021 L30.6,42.593 C30.8510745,42.3330434 31.2228779,42.2287874 31.5725073,42.3203028 C31.9221368,42.4118183 32.1951817,42.6848632 32.2866972,43.0344927 C32.3782126,43.3841221 32.2739566,43.7559255 32.014,44.007 L30.585,45.435 C30.3972623,45.6227946 30.1425413,45.7282088 29.877,45.728 Z" id="Shape" fill="#2C3E50"/><path d="M34.161,41.444 C33.7566041,41.4439137 33.3920659,41.2002725 33.237322,40.8266546 C33.0825781,40.4530366 33.1680921,40.0229943 33.454,39.737 L43.448,29.737 C43.6990745,29.4770434 44.0708779,29.3727874 44.4205073,29.4643028 C44.7701368,29.5558183 45.0431817,29.8288632 45.1346972,30.1784927 C45.2262126,30.5281221 45.1219566,30.8999255 44.862,31.151 L34.868,41.151 C34.6809469,41.3392061 34.4263486,41.4447185 34.161,41.444 Z" id="Shape" fill="#2C3E50"/></g></g></svg>
