<?xml version="1.0" encoding="UTF-8"?>
<svg xmlns="http://www.w3.org/2000/svg" xmlns:xlink="http://www.w3.org/1999/xlink" width="512" height="512" viewBox="0 0 46 58" version="1.1"><!-- Generator: Sketch 51.3 (57544) - http://www.bohemiancoding.com/sketch --><title>035 - Notes</title><desc>Created with Sketch.</desc><defs/><g id="Page-1" stroke="none" stroke-width="1" fill="none" fill-rule="evenodd"><g id="035---Notes" fill-rule="nonzero"><path d="M4,0 C6.209139,2.22044605e-16 8,1.790861 8,4 L8,48 L0,48 L0,4 C0,1.790861 1.790861,4.4408921e-16 4,0 Z" id="Shape" fill="#894B9D"/><rect id="Rectangle-path" fill="#F9EAB0" x="18" y="22" width="28" height="36" rx="2"/><path d="M24,34 L22,34 C21.4477153,34 21,33.5522847 21,33 C21,32.4477153 21.4477153,32 22,32 L24,32 C24.5522847,32 25,32.4477153 25,33 C25,33.5522847 24.5522847,34 24,34 Z" id="Shape" fill="#2C3E50"/><path d="M30,34 L28,34 C27.4477153,34 27,33.5522847 27,33 C27,32.4477153 27.4477153,32 28,32 L30,32 C30.5522847,32 31,32.4477153 31,33 C31,33.5522847 30.5522847,34 30,34 Z" id="Shape" fill="#2C3E50"/><path d="M36,34 L34,34 C33.4477153,34 33,33.5522847 33,33 C33,32.4477153 33.4477153,32 34,32 L36,32 C36.5522847,32 37,32.4477153 37,33 C37,33.5522847 36.5522847,34 36,34 Z" id="Shape" fill="#2C3E50"/><path d="M42,34 L40,34 C39.4477153,34 39,33.5522847 39,33 C39,32.4477153 39.4477153,32 40,32 L42,32 C42.5522847,32 43,32.4477153 43,33 C43,33.5522847 42.5522847,34 42,34 Z" id="Shape" fill="#2C3E50"/><path d="M24,39 L22,39 C21.4477153,39 21,38.5522847 21,38 C21,37.4477153 21.4477153,37 22,37 L24,37 C24.5522847,37 25,37.4477153 25,38 C25,38.5522847 24.5522847,39 24,39 Z" id="Shape" fill="#2C3E50"/><path d="M30,39 L28,39 C27.4477153,39 27,38.5522847 27,38 C27,37.4477153 27.4477153,37 28,37 L30,37 C30.5522847,37 31,37.4477153 31,38 C31,38.5522847 30.5522847,39 30,39 Z" id="Shape" fill="#2C3E50"/><path d="M36,39 L34,39 C33.4477153,39 33,38.5522847 33,38 C33,37.4477153 33.4477153,37 34,37 L36,37 C36.5522847,37 37,37.4477153 37,38 C37,38.5522847 36.5522847,39 36,39 Z" id="Shape" fill="#2C3E50"/><path d="M42,39 L40,39 C39.4477153,39 39,38.5522847 39,38 C39,37.4477153 39.4477153,37 40,37 L42,37 C42.5522847,37 43,37.4477153 43,38 C43,38.5522847 42.5522847,39 42,39 Z" id="Shape" fill="#2C3E50"/><path d="M24,44 L22,44 C21.4477153,44 21,43.5522847 21,43 C21,42.4477153 21.4477153,42 22,42 L24,42 C24.5522847,42 25,42.4477153 25,43 C25,43.5522847 24.5522847,44 24,44 Z" id="Shape" fill="#2C3E50"/><path d="M30,44 L28,44 C27.4477153,44 27,43.5522847 27,43 C27,42.4477153 27.4477153,42 28,42 L30,42 C30.5522847,42 31,42.4477153 31,43 C31,43.5522847 30.5522847,44 30,44 Z" id="Shape" fill="#2C3E50"/><path d="M36,44 L34,44 C33.4477153,44 33,43.5522847 33,43 C33,42.4477153 33.4477153,42 34,42 L36,42 C36.5522847,42 37,42.4477153 37,43 C37,43.5522847 36.5522847,44 36,44 Z" id="Shape" fill="#2C3E50"/><path d="M42,44 L40,44 C39.4477153,44 39,43.5522847 39,43 C39,42.4477153 39.4477153,42 40,42 L42,42 C42.5522847,42 43,42.4477153 43,43 C43,43.5522847 42.5522847,44 42,44 Z" id="Shape" fill="#2C3E50"/><path d="M24,49 L22,49 C21.4477153,49 21,48.5522847 21,48 C21,47.4477153 21.4477153,47 22,47 L24,47 C24.5522847,47 25,47.4477153 25,48 C25,48.5522847 24.5522847,49 24,49 Z" id="Shape" fill="#2C3E50"/><path d="M30,49 L28,49 C27.4477153,49 27,48.5522847 27,48 C27,47.4477153 27.4477153,47 28,47 L30,47 C30.5522847,47 31,47.4477153 31,48 C31,48.5522847 30.5522847,49 30,49 Z" id="Shape" fill="#2C3E50"/><path d="M36,49 L34,49 C33.4477153,49 33,48.5522847 33,48 C33,47.4477153 33.4477153,47 34,47 L36,47 C36.5522847,47 37,47.4477153 37,48 C37,48.5522847 36.5522847,49 36,49 Z" id="Shape" fill="#2C3E50"/><path d="M42,49 L40,49 C39.4477153,49 39,48.5522847 39,48 C39,47.4477153 39.4477153,47 40,47 L42,47 C42.5522847,47 43,47.4477153 43,48 C43,48.5522847 42.5522847,49 42,49 Z" id="Shape" fill="#2C3E50"/><path d="M24,54 L22,54 C21.4477153,54 21,53.5522847 21,53 C21,52.4477153 21.4477153,52 22,52 L24,52 C24.5522847,52 25,52.4477153 25,53 C25,53.5522847 24.5522847,54 24,54 Z" id="Shape" fill="#2C3E50"/><path d="M30,54 L28,54 C27.4477153,54 27,53.5522847 27,53 C27,52.4477153 27.4477153,52 28,52 L30,52 C30.5522847,52 31,52.4477153 31,53 C31,53.5522847 30.5522847,54 30,54 Z" id="Shape" fill="#2C3E50"/><path d="M36,54 L34,54 C33.4477153,54 33,53.5522847 33,53 C33,52.4477153 33.4477153,52 34,52 L36,52 C36.5522847,52 37,52.4477153 37,53 C37,53.5522847 36.5522847,54 36,54 Z" id="Shape" fill="#2C3E50"/><path d="M42,54 L40,54 C39.4477153,54 39,53.5522847 39,53 C39,52.4477153 39.4477153,52 40,52 L42,52 C42.5522847,52 43,52.4477153 43,53 C43,53.5522847 42.5522847,54 42,54 Z" id="Shape" fill="#2C3E50"/><path d="M5,4 L5,48 L-5.78751924e-06,48 L-3.41743913e-17,4 C-0.00276824469,2.37115065 0.987747812,0.905186891 2.5,0.3 C2.99597839,0.500201273 3.44784943,0.795786089 3.83,1.17 C4.57763915,1.92233113 4.99810582,2.93935734 5,4 Z" id="Shape" fill="#955BA5"/><rect id="Rectangle-path" fill="#7F8C8D" x="0" y="17" width="8" height="4"/><rect id="Rectangle-path" fill="#95A5A5" x="0" y="17" width="5" height="4"/><path d="M0,48 L3.072,57.371 C3.22417565,57.7500298 3.5915627,57.9984198 4,57.9984198 C4.4084373,57.9984198 4.77582435,57.7500298 4.928,57.371 L8,48 L0,48 Z" id="Shape" fill="#95A5A5"/><path d="M12,31 L11,31 C10.4477153,31 10,30.5522847 10,30 C10,29.4477153 10.4477153,29 11,29 L11,8 C11,7.44771525 10.5522847,7 10,7 L5,7 C4.44771525,7 4,6.55228475 4,6 C4,5.44771525 4.44771525,5 5,5 L10,5 C11.6568542,5 13,6.34314575 13,8 L13,30 C13,30.5522847 12.5522847,31 12,31 Z" id="Shape" fill="#C03A2B"/><circle id="Oval" fill="#2C3E50" cx="22" cy="25" r="2"/><circle id="Oval" fill="#2C3E50" cx="27" cy="25" r="2"/><circle id="Oval" fill="#2C3E50" cx="32" cy="25" r="2"/><circle id="Oval" fill="#2C3E50" cx="37" cy="25" r="2"/><circle id="Oval" fill="#2C3E50" cx="42" cy="25" r="2"/><path d="M27,26 C26.4477153,26 26,25.5522847 26,25 L26,19 C26,18.4477153 26.4477153,18 27,18 C27.5522847,18 28,18.4477153 28,19 L28,25 C28,25.5522847 27.5522847,26 27,26 Z" id="Shape" fill="#95A5A5"/><path d="M32,26 C31.4477153,26 31,25.5522847 31,25 L31,19 C31,18.4477153 31.4477153,18 32,18 C32.5522847,18 33,18.4477153 33,19 L33,25 C33,25.5522847 32.5522847,26 32,26 Z" id="Shape" fill="#95A5A5"/><path d="M37,26 C36.4477153,26 36,25.5522847 36,25 L36,19 C36,18.4477153 36.4477153,18 37,18 C37.5522847,18 38,18.4477153 38,19 L38,25 C38,25.5522847 37.5522847,26 37,26 Z" id="Shape" fill="#95A5A5"/><path d="M42,26 C41.4477153,26 41,25.5522847 41,25 L41,19 C41,18.4477153 41.4477153,18 42,18 C42.5522847,18 43,18.4477153 43,19 L43,25 C43,25.5522847 42.5522847,26 42,26 Z" id="Shape" fill="#95A5A5"/><path d="M22,26 C21.4477153,26 21,25.5522847 21,25 L21,19 C21,18.4477153 21.4477153,18 22,18 C22.5522847,18 23,18.4477153 23,19 L23,25 C23,25.5522847 22.5522847,26 22,26 Z" id="Shape" fill="#95A5A5"/><rect id="Rectangle-path" fill="#FB7B76" x="18" y="35" width="28" height="1"/><rect id="Rectangle-path" fill="#FB7B76" x="18" y="40" width="28" height="1"/><rect id="Rectangle-path" fill="#FB7B76" x="18" y="45" width="28" height="1"/><rect id="Rectangle-path" fill="#FB7B76" x="18" y="50" width="28" height="1"/><path d="M8,4 L8,17 L0,17 L0,4 C0,1.790861 1.790861,4.4408921e-16 4,0 C6.209139,-4.4408921e-16 8,1.790861 8,4 Z" id="Shape" fill="#DF4D60"/><path d="M6.03,54.01 L4.93,57.37 C4.77915041,57.75168 4.41040862,58.0024405 4,58.0024405 C3.58959138,58.0024405 3.22084959,57.75168 3.07,57.37 L1.97,54.01 L2,54 L6,54 L6.03,54.01 Z" id="Shape" fill="#7F8C8D"/><path d="M5,4 L5,17 L-5.78751924e-06,17 L-3.41743913e-17,4 C-0.00276824469,2.37115065 0.987747812,0.905186891 2.5,0.3 C2.99597839,0.500201273 3.44784943,0.795786089 3.83,1.17 C4.57763915,1.92233113 4.99810582,2.93935734 5,4 Z" id="Shape" fill="#FF5364"/></g></g></svg>
