<?xml version="1.0" encoding="UTF-8"?>
<svg xmlns="http://www.w3.org/2000/svg" xmlns:xlink="http://www.w3.org/1999/xlink" width="512" height="512" viewBox="0 0 46 58" version="1.1"><!-- Generator: Sketch 51.3 (57544) - http://www.bohemiancoding.com/sketch --><title>020 - Paint</title><desc>Created with Sketch.</desc><defs/><g id="Page-1" stroke="none" stroke-width="1" fill="none" fill-rule="evenodd"><g id="020---Paint"><path d="M37,37 L45,37 L45,41 C45,41.5522847 44.5522847,42 44,42 L38,42 C37.4477153,42 37,41.5522847 37,41 L37,37 Z" id="Shape" fill="#7F8C8D" fill-rule="nonzero"/><path d="M39,37 L43,37 L43,41 C43,41.5522847 42.5522847,42 42,42 L40,42 C39.4477153,42 39,41.5522847 39,41 L39,37 Z" id="Shape" fill="#D1D4D1" fill-rule="nonzero"/><path d="M45.95,36.98 C45.9587592,37.2496289 45.856884,37.5111136 45.6680249,37.7037499 C45.4791658,37.8963862 45.2197495,38.0034188 44.95,38 L37.05,38 C36.7802505,38.0034188 36.5208342,37.8963862 36.3319751,37.7037499 C36.143116,37.5111136 36.0412408,37.2496289 36.05,36.98 L37.85,2.92 C37.9567629,1.26402839 39.3406975,-0.0188570669 41,-1.77635684e-15 C41.8029872,-0.00154327648 42.5773372,0.298205106 43.17,0.84 C43.7530891,1.38070936 44.104285,2.12610476 44.15,2.92 L44.52,10 L44.63,12 L44.84,16 L44.95,18 L45.21,23 L45.32,25 L45.63,31 L45.74,33 L45.95,36.98 Z" id="Shape" fill="#7F5B53" fill-rule="nonzero"/><path d="M44.63,12 L43.31,12 C42.7577153,12 42.31,11.5522847 42.31,11 C42.31,10.4477153 42.7577153,10 43.31,10 L44.52,10 L44.63,12 Z" id="Shape" fill="#59474E" fill-rule="nonzero"/><path d="M44.95,18 L43.31,18 C42.7577153,18 42.31,17.5522847 42.31,17 C42.31,16.4477153 42.7577153,16 43.31,16 L44.84,16 L44.95,18 Z" id="Shape" fill="#59474E" fill-rule="nonzero"/><path d="M45.32,25 L43.31,25 C42.7577153,25 42.31,24.5522847 42.31,24 C42.31,23.4477153 42.7577153,23 43.31,23 L45.21,23 L45.32,25 Z" id="Shape" fill="#59474E" fill-rule="nonzero"/><path d="M45.74,33 L43.31,33 C42.7577153,33 42.31,32.5522847 42.31,32 C42.31,31.4477153 42.7577153,31 43.31,31 L45.63,31 L45.74,33 Z" id="Shape" fill="#59474E" fill-rule="nonzero"/><path d="M46,46.41 C46,49.81 42.76,54.1 39.06,57.82 C38.8561487,58.0129058 38.5496136,58.0485499 38.3069375,57.9075666 C38.0642614,57.7665834 37.9433925,57.4826379 38.01,57.21 C38.1314221,56.6773058 38.2083536,56.1354401 38.24,55.59 C38.43,51.71 36,49.44 36,46.4 C35.991449,44.5826561 36.9619633,42.9014502 38.54,42 L42.68,42.01 L43.45,42.01 C45.0286736,42.9121171 46.0020991,44.5917533 46,46.41 Z" id="Shape" fill="#C03A2B"/><path d="M38.24,55.59 C38.43,51.71 36,49.44 36,46.4 C35.991449,44.5826561 36.9619633,42.9014502 38.54,42 L42.68,42.01 C43.5301165,42.938126 44.001146,44.1513838 44,45.41 C44,48.44 41.42,52.18 38.24,55.59 Z" id="Shape" fill="#FF5364"/><path d="M29.561,4.684 L28.228,0.684 C28.0919281,0.275457246 27.7096074,-0.000103690554 27.279,-1.11022302e-16 L2.721,-1.11022302e-16 C2.29039259,-0.000103690554 1.90807193,0.275457246 1.772,0.684 L0.439,4.684 C0.337479438,4.98880528 0.388584491,5.32382554 0.57636511,5.58449991 C0.764145729,5.84517427 1.06573278,5.99975613 1.387,6 L2,6 L7,42 C6.99583022,44.8990885 8.56582826,47.5719144 11.1,48.98 L11.2,50 L10,50 C9.44771525,50 9,50.4477153 9,51 C9,51.5522847 9.44771525,52 10,52 L11.4,52 L11.6,54 L11,54 C10.4477153,54 10,54.4477153 10,55 C10,55.5522847 10.4477153,56 11,56 L11.8,56 L11.909,57.1 C11.960542,57.6129013 12.3935219,58.0025832 12.909,58 L17.1,58 C17.6154781,58.0025832 18.048458,57.6129013 18.1,57.1 L18.2,56 L19,56 C19.5522847,56 20,55.5522847 20,55 C20,54.4477153 19.5522847,54 19,54 L18.4,54 L18.6,52 L20,52 C20.5522847,52 21,51.5522847 21,51 C21,50.4477153 20.5522847,50 20,50 L18.8,50 L18.9,48.98 C21.4341717,47.5719144 23.0041698,44.8990885 23,42 L23.42,39 L23.69,37 L28,6 L28.613,6 C28.9342672,5.99975613 29.2358543,5.84517427 29.4236349,5.58449991 C29.6114155,5.32382554 29.6625206,4.98880528 29.561,4.684 Z" id="Shape" fill="#95A5A5" fill-rule="nonzero"/><path d="M5,7 C4.44771525,7 4,6.55228475 4,6 L4,4 C4,3.44771525 4.44771525,3 5,3 C5.55228475,3 6,3.44771525 6,4 L6,6 C6,6.55228475 5.55228475,7 5,7 Z" id="Shape" fill="#5E5F62" fill-rule="nonzero"/><path d="M9,7 C8.44771525,7 8,6.55228475 8,6 L8,4 C8,3.44771525 8.44771525,3 9,3 C9.55228475,3 10,3.44771525 10,4 L10,6 C10,6.55228475 9.55228475,7 9,7 Z" id="Shape" fill="#5E5F62" fill-rule="nonzero"/><path d="M13,7 C12.4477153,7 12,6.55228475 12,6 L12,4 C12,3.44771525 12.4477153,3 13,3 C13.5522847,3 14,3.44771525 14,4 L14,6 C14,6.55228475 13.5522847,7 13,7 Z" id="Shape" fill="#5E5F62" fill-rule="nonzero"/><path d="M17,7 C16.4477153,7 16,6.55228475 16,6 L16,4 C16,3.44771525 16.4477153,3 17,3 C17.5522847,3 18,3.44771525 18,4 L18,6 C18,6.55228475 17.5522847,7 17,7 Z" id="Shape" fill="#5E5F62" fill-rule="nonzero"/><path d="M21,7 C20.4477153,7 20,6.55228475 20,6 L20,4 C20,3.44771525 20.4477153,3 21,3 C21.5522847,3 22,3.44771525 22,4 L22,6 C22,6.55228475 21.5522847,7 21,7 Z" id="Shape" fill="#5E5F62" fill-rule="nonzero"/><path d="M25,7 C24.4477153,7 24,6.55228475 24,6 L24,4 C24,3.44771525 24.4477153,3 25,3 C25.5522847,3 26,3.44771525 26,4 L26,6 C26,6.55228475 25.5522847,7 25,7 Z" id="Shape" fill="#5E5F62" fill-rule="nonzero"/><polygon id="Shape" fill="#D1D4D1" fill-rule="nonzero" points="28 6 23.69 37 23.42 39 23 42 7 42 2 6"/><path d="M12,39 L11,39 C10.4477153,39 10,38.5522847 10,38 C10,37.4477153 10.4477153,37 11,37 L12,37 C12.5522847,37 13,37.4477153 13,38 C13,38.5522847 12.5522847,39 12,39 Z" id="Shape" fill="#95A5A5" fill-rule="nonzero"/><path d="M23.69,37 L23.42,39 L16,39 C15.4477153,39 15,38.5522847 15,38 C15,37.4477153 15.4477153,37 16,37 L23.69,37 Z" id="Shape" fill="#95A5A5" fill-rule="nonzero"/><path d="M18.9,48.98 L18.09,57.1 C18.038458,57.6129013 17.6054781,58.0025832 17.09,58 L12.9,58 C12.3845219,58.0025832 11.951542,57.6129013 11.9,57.1 L11.1,48.98 L18.9,48.98 Z" id="Shape" fill="#BDC3C7" fill-rule="nonzero"/><path d="M14,52 L10,52 C9.44771525,52 9,51.5522847 9,51 C9,50.4477153 9.44771525,50 10,50 L14,50 C14.5522847,50 15,50.4477153 15,51 C15,51.5522847 14.5522847,52 14,52 Z" id="Shape" fill="#95A5A5" fill-rule="nonzero"/><path d="M20,52 L18,52 C17.4477153,52 17,51.5522847 17,51 C17,50.4477153 17.4477153,50 18,50 L20,50 C20.5522847,50 21,50.4477153 21,51 C21,51.5522847 20.5522847,52 20,52 Z" id="Shape" fill="#95A5A5" fill-rule="nonzero"/><path d="M19,56 L16,56 C15.4477153,56 15,55.5522847 15,55 C15,54.4477153 15.4477153,54 16,54 L19,54 C19.5522847,54 20,54.4477153 20,55 C20,55.5522847 19.5522847,56 19,56 Z" id="Shape" fill="#95A5A5" fill-rule="nonzero"/><path d="M13,56 L11,56 C10.4477153,56 10,55.5522847 10,55 C10,54.4477153 10.4477153,54 11,54 L13,54 C13.5522847,54 14,54.4477153 14,55 C14,55.5522847 13.5522847,56 13,56 Z" id="Shape" fill="#95A5A5" fill-rule="nonzero"/><ellipse id="Oval" fill="#FF5364" fill-rule="nonzero" cx="15" cy="22.5" rx="6" ry="9.5"/><path d="M15,33 C11.075,33 8,28.388 8,22.5 C8,16.612 11.075,12 15,12 C18.925,12 22,16.612 22,22.5 C22,28.388 18.925,33 15,33 Z M15,14 C12.29,14 10,17.893 10,22.5 C10,27.107 12.29,31 15,31 C17.71,31 20,27.107 20,22.5 C20,17.893 17.71,14 15,14 Z" id="Shape" fill="#C03A2B" fill-rule="nonzero"/><path d="M41,-0.000205227113 L41,38.0000795 L37.05,38 C36.7802505,38.0034188 36.5208342,37.8963862 36.3319751,37.7037499 C36.143116,37.5111136 36.0412408,37.2496289 36.05,36.98 L37.85,2.92 C37.9567629,1.26402839 39.3406975,-0.0188570669 41,-0.000205227113 Z" id="Shape" fill="#59474E" fill-rule="nonzero"/></g></g></svg>
