<?xml version="1.0" encoding="UTF-8"?>
<svg xmlns="http://www.w3.org/2000/svg" xmlns:xlink="http://www.w3.org/1999/xlink" width="512" height="512" viewBox="0 0 58 58" version="1.1"><!-- Generator: Sketch 51.3 (57544) - http://www.bohemiancoding.com/sketch --><title>024 - Pen</title><desc>Created with Sketch.</desc><defs/><g id="Page-1" stroke="none" stroke-width="1" fill="none" fill-rule="evenodd"><g id="024---Pen" transform="translate(-1.000000, -1.000000)" fill-rule="nonzero"><rect id="Rectangle-path" fill="#3D324C" transform="translate(43.444094, 43.444000) rotate(-45.000000) translate(-43.444094, -43.444000) " x="36.444094" y="41.444" width="14" height="4" rx="2"/><path d="M47.686,42.029 L49.808,44.151 C51.3747802,43.7997543 53.0073233,44.3439353 54.05,45.565 C56.172,47.686 56.172,53.343 57.586,54.757 L58.293,55.464 C58.480777,55.6515683 58.5862867,55.9060908 58.5862867,56.1715 C58.5862867,56.4369092 58.480777,56.6914317 58.293,56.879 L57.586,57.586 L56.879,58.293 C56.6914317,58.480777 56.4369092,58.5862867 56.1715,58.5862867 C55.9060908,58.5862867 55.6515683,58.480777 55.464,58.293 L54.757,57.586 C53.343,56.172 47.686,56.172 45.565,54.05 C44.3439353,53.0073233 43.7997543,51.3747802 44.151,49.808 L42.029,47.686 L47.686,42.029 Z" id="Shape" fill="#F0C419"/><path d="M46.858,42.858 L48.979,44.979 C48.979,44.979 50.686,44.686 52.808,46.808 C54.93,48.93 55.757,53.757 57.172,55.172 L57.879,55.879 C58.2564475,56.1632153 58.3471786,56.6922606 58.086,57.086 L57.586,57.586 L57.086,58.086 C56.6922606,58.3471786 56.1632153,58.2564475 55.879,57.879 L55.172,57.172 C53.757,55.757 48.929,54.929 46.808,52.808 C44.687,50.687 44.979,48.979 44.979,48.979 L42.858,46.858 L46.858,42.858 Z" id="Shape" fill="#F3D55B"/><path d="M51.929,51.929 C51.7395618,52.1145252 51.4870523,52.2216721 51.222,52.229 C51.158,52.222 51.094,52.215 51.022,52.201 C50.9577139,52.1933326 50.8953625,52.1740173 50.838,52.144 C50.7771771,52.124879 50.7197906,52.0961857 50.668,52.059 C50.613089,52.0207887 50.5612631,51.9783249 50.513,51.932 C50.3273071,51.7426737 50.2201309,51.4900952 50.213,51.225 C50.2164993,50.8893641 50.3857022,50.5771623 50.665,50.391 C50.7169875,50.3538947 50.7743074,50.3248976 50.835,50.305 C50.8925992,50.2757481 50.9548707,50.2567959 51.019,50.249 C51.089,50.235 51.153,50.228 51.219,50.221 C51.4840523,50.2283279 51.7365618,50.3354748 51.926,50.521 C51.9720845,50.5694758 52.0145329,50.6212829 52.053,50.676 C52.0895855,50.7281507 52.1182307,50.7854412 52.138,50.846 C52.1671196,50.9036523 52.1860647,50.9659003 52.194,51.03 C52.207219,51.0961031 52.2168995,51.1628648 52.223,51.23 C52.2168255,51.2971265 52.2071456,51.3638843 52.194,51.43 C52.1859096,51.4940667 52.1669725,51.5562887 52.138,51.614 C52.1180172,51.6744709 52.0893871,51.7317312 52.053,51.784 C52.0151095,51.8351745 51.9736744,51.8836269 51.929,51.929 Z" id="Shape" fill="#2C3E50"/><path d="M45.565,38.494 C45.565,38.494 39.342,25.537 6.6,1.669 C5.19452485,0.6309701 3.2423792,0.771439711 2,2 C0.771439711,3.2423792 0.6309701,5.19452485 1.669,6.6 C25.537,39.342 38.494,45.565 38.494,45.565 L45.565,38.494 Z" id="Shape" fill="#894B9D"/><path d="M44.258,39.8 C44.258,39.8 36.791,28.088 5.687,2.579 C4.34,1.475 2.773,1.227 2,2 C1.227,2.773 1.475,4.34 2.579,5.687 C28.088,36.791 39.8,44.258 39.8,44.258 L44.258,39.8 Z" id="Shape" fill="#955BA5"/></g></g></svg>
