<?xml version="1.0" encoding="UTF-8"?>
<svg xmlns="http://www.w3.org/2000/svg" xmlns:xlink="http://www.w3.org/1999/xlink" width="512" height="512" viewBox="0 0 30 58" version="1.1"><!-- Generator: Sketch 51.3 (57544) - http://www.bohemiancoding.com/sketch --><title>055 - Pencil and Ruler</title><desc>Created with Sketch.</desc><defs/><g id="Page-1" stroke="none" stroke-width="1" fill="none" fill-rule="evenodd"><g id="055---Pencil-and-Ruler" transform="translate(0.000000, -1.000000)" fill-rule="nonzero"><path d="M7,1 C3.13400675,1 0,4.13400675 0,8 L0,58 C0,58.5522847 0.44771525,59 1,59 L13,59 C13.5522847,59 14,58.5522847 14,58 L14,8 C14,4.13400675 10.8659932,1 7,1 Z M7,6 C8.1045695,6 9,6.8954305 9,8 C9,9.1045695 8.1045695,10 7,10 C5.8954305,10 5,9.1045695 5,8 C5.0032948,6.89679813 5.89679813,6.0032948 7,6 Z" id="Shape" fill="#547580"/><path d="M14,28 L14,30 L6,30 C5.44771525,30 5,29.5522847 5,29 C5,28.4477153 5.44771525,28 6,28 L14,28 Z" id="Shape" fill="#2C3E50"/><path d="M14,18 L14,20 L11,20 C10.4477153,20 10,19.5522847 10,19 C10,18.4477153 10.4477153,18 11,18 L14,18 Z" id="Shape" fill="#2C3E50"/><path d="M7,20 C6.73523302,19.9963165 6.48163379,19.8927337 6.29,19.71 C6.2469872,19.6624865 6.20691278,19.6123935 6.17,19.56 C6.13212275,19.5042729 6.10185535,19.4437381 6.08,19.38 C6.05111232,19.3233376 6.03088731,19.2626625 6.02,19.2 C6.00839112,19.1339204 6.00170607,19.0670699 6,19 C5.99654528,18.8688167 6.02394763,18.7386555 6.08,18.62 C6.13072915,18.4988607 6.20174734,18.3872607 6.29,18.29 C6.6910198,17.9199816 7.3089802,17.9199816 7.71,18.29 C7.79825266,18.3872607 7.86927085,18.4988607 7.92,18.62 C7.97124097,18.7402223 7.99842001,18.8693227 8,19 C7.99802571,19.2651121 7.89419577,19.5193164 7.71,19.71 C7.51825702,19.892565 7.26472686,19.9961196 7,20 Z" id="Shape" fill="#2C3E50"/><path d="M14,23 L14,25 L11,25 C10.4477153,25 10,24.5522847 10,24 C10,23.4477153 10.4477153,23 11,23 L14,23 Z" id="Shape" fill="#2C3E50"/><path d="M7,25 C6.5286597,24.9952962 6.12599909,24.6589249 6.03748917,24.1959457 C5.94897926,23.7329664 6.19916831,23.2717868 6.63553546,23.0935523 C7.0719026,22.9153179 7.57342108,23.069462 7.83435392,23.462015 C8.09528676,23.854568 8.04326405,24.376655 7.71,24.71 C7.51836621,24.8927337 7.26476698,24.9963165 7,25 Z" id="Shape" fill="#2C3E50"/><path d="M14,48 L14,50 L6,50 C5.44771525,50 5,49.5522847 5,49 C5,48.4477153 5.44771525,48 6,48 L14,48 Z" id="Shape" fill="#2C3E50"/><path d="M14,33 L14,35 L11,35 C10.4477153,35 10,34.5522847 10,34 C10,33.4477153 10.4477153,33 11,33 L14,33 Z" id="Shape" fill="#2C3E50"/><path d="M7,35 C6.73523302,34.9963165 6.48163379,34.8927337 6.29,34.71 C6.2469872,34.6624865 6.20691278,34.6123935 6.17,34.56 C6.13212275,34.5042729 6.10185535,34.4437381 6.08,34.38 C6.05111232,34.3233376 6.03088731,34.2626625 6.02,34.2 C6.00839112,34.1339204 6.00170607,34.0670699 6,34 C5.99654528,33.8688167 6.02394763,33.7386555 6.08,33.62 C6.13072915,33.4988607 6.20174734,33.3872607 6.29,33.29 C6.6910198,32.9199816 7.3089802,32.9199816 7.71,33.29 C7.79825266,33.3872607 7.86927085,33.4988607 7.92,33.62 C7.97124097,33.7402223 7.99842001,33.8693227 8,34 C7.99802571,34.2651121 7.89419577,34.5193164 7.71,34.71 C7.51825702,34.892565 7.26472686,34.9961196 7,35 Z" id="Shape" fill="#2C3E50"/><path d="M14,38 L14,40 L11,40 C10.4477153,40 10,39.5522847 10,39 C10,38.4477153 10.4477153,38 11,38 L14,38 Z" id="Shape" fill="#2C3E50"/><path d="M7,40 C6.73396466,40.0027011 6.47803835,39.8982118 6.28991326,39.7100867 C6.10178817,39.5219616 5.99729892,39.2660353 6,39 C5.99654528,38.8688167 6.02394763,38.7386555 6.08,38.62 C6.12832305,38.4976187 6.19960316,38.3856071 6.29,38.29 C6.6910198,37.9199816 7.3089802,37.9199816 7.71,38.29 C7.80039684,38.3856071 7.87167695,38.4976187 7.92,38.62 C7.97124097,38.7402223 7.99842001,38.8693227 8,39 C8.00270108,39.2660353 7.89821183,39.5219616 7.71008674,39.7100867 C7.52196165,39.8982118 7.26603534,40.0027011 7,40 Z" id="Shape" fill="#2C3E50"/><path d="M14,43 L14,45 L11,45 C10.4477153,45 10,44.5522847 10,44 C10,43.4477153 10.4477153,43 11,43 L14,43 Z" id="Shape" fill="#2C3E50"/><path d="M7,45 C6.73523302,44.9963165 6.48163379,44.8927337 6.29,44.71 C6.19960316,44.6143929 6.12832305,44.5023813 6.08,44.38 C6.02394763,44.2613445 5.99654528,44.1311833 6,44 C6,43.4477153 6.44771525,43 7,43 C7.55228475,43 8,43.4477153 8,44 C7.99842001,44.1306773 7.97124097,44.2597777 7.92,44.38 C7.87167695,44.5023813 7.80039684,44.6143929 7.71,44.71 C7.51825702,44.892565 7.26472686,44.9961196 7,45 Z" id="Shape" fill="#2C3E50"/><path d="M14,53 L14,55 L11,55 C10.4477153,55 10,54.5522847 10,54 C10,53.4477153 10.4477153,53 11,53 L14,53 Z" id="Shape" fill="#2C3E50"/><path d="M7,55 C6.73523302,54.9963165 6.48163379,54.8927337 6.29,54.71 C6.2469872,54.6624865 6.20691278,54.6123935 6.17,54.56 C6.13212275,54.5042729 6.10185535,54.4437381 6.08,54.38 C6.05111232,54.3233376 6.03088731,54.2626625 6.02,54.2 C6.00839112,54.1339204 6.00170607,54.0670699 6,54 C5.99654528,53.8688167 6.02394763,53.7386555 6.08,53.62 C6.13072915,53.4988607 6.20174734,53.3872607 6.29,53.29 C6.6910198,52.9199816 7.3089802,52.9199816 7.71,53.29 C7.79825266,53.3872607 7.86927085,53.4988607 7.92,53.62 C7.97124097,53.7402223 7.99842001,53.8693227 8,54 C7.99802571,54.2651121 7.89419577,54.5193164 7.71,54.71 C7.51825702,54.892565 7.26472686,54.9961196 7,55 Z" id="Shape" fill="#2C3E50"/><path d="M7,5 C5.78661327,5 4.6927044,5.73092653 4.2283614,6.8519497 C3.7640184,7.97297287 4.02068567,9.26332636 4.87867966,10.1213203 C5.73667364,10.9793143 7.02702713,11.2359816 8.1480503,10.7716386 C9.26907347,10.3072956 10,9.21338673 10,8 C9.9950578,6.3451972 8.6548028,5.0049422 7,5 Z M7,9 C6.44771525,9 6,8.55228475 6,8 C6,7.44771525 6.44771525,7 7,7 C7.55228475,7 8,7.44771525 8,8 C8,8.55228475 7.55228475,9 7,9 Z" id="Shape" fill="#2C3E50"/><rect id="Rectangle-path" fill="#BDC3C7" x="22" y="44" width="6" height="4"/><rect id="Rectangle-path" fill="#E57E25" x="22" y="10" width="8" height="34"/><rect id="Rectangle-path" fill="#F0C419" x="22" y="10" width="5" height="34"/><path d="M26,10 C26,11.1045695 25.1045695,12 24,12 C22.8954305,12 22,11.1045695 22,10 L25.072,1.629 C25.2241756,1.24997019 25.5915627,1.00158019 26,1.00158019 C26.4084373,1.00158019 26.7758244,1.24997019 26.928,1.629 L30,10 C30,11.1045695 29.1045695,12 28,12 C26.8954305,12 26,11.1045695 26,10" id="Shape" fill="#CBB292"/><rect id="Rectangle-path" fill="#95A5A5" x="27" y="44" width="3" height="4"/><path d="M26,38 C25.4477153,38 25,38.4477153 25,39 L25,40 C25,40.5522847 25.4477153,41 26,41 C26.5522847,41 27,40.5522847 27,40 L27,39 C27,38.4477153 26.5522847,38 26,38 Z" id="Shape" fill="#F3D55B"/><path d="M26,15 C25.4477153,15 25,15.4477153 25,16 L25,35 C25,35.5522847 25.4477153,36 26,36 C26.5522847,36 27,35.5522847 27,35 L27,16 C27,15.4477153 26.5522847,15 26,15 Z" id="Shape" fill="#F3D55B"/><path d="M30,56 L30,48 L22,48 L22,56 C22,56.1 22.01,56.21 22.02,56.31 C22.0238098,56.3906527 22.0338395,56.4708911 22.05,56.55 C22.0737444,56.6648975 22.1037898,56.7784023 22.14,56.89 C22.1672781,56.9853864 22.2006808,57.078914 22.24,57.17 C22.27,57.25 22.31,57.33 22.34,57.4 C22.37,57.44 22.39,57.49 22.42,57.53 C22.46,57.6 22.51,57.67 22.56,57.74 C22.652634,57.8778487 22.7599263,58.0052584 22.88,58.12 C22.94,58.18 23.01,58.25 23.08,58.31 C23.2145381,58.4191078 23.3584278,58.5161497 23.51,58.6 C23.5732606,58.6425449 23.6401929,58.6793577 23.71,58.71 C23.8904206,58.7930085 24.077814,58.8599347 24.27,58.91 C24.34,58.92 24.42,58.94 24.5,58.95 C24.561231,58.9704692 24.6254411,58.9806077 24.69,58.98 C24.79,58.99 24.9,59 25,59 L27,59 C28.6568542,59 30,57.6568542 30,56 Z" id="Shape" fill="#FF5364"/><path d="M27,56 L27.0000088,48 L22,48 L22,56 C22,56.1 22.01,56.21 22.02,56.31 C22.0238098,56.3906527 22.0338395,56.4708911 22.05,56.55 C22.0737444,56.6648975 22.1037898,56.7784023 22.14,56.89 C22.1672781,56.9853864 22.2006808,57.078914 22.24,57.17 C22.27,57.25 22.31,57.33 22.34,57.4 C22.37,57.44 22.39,57.49 22.42,57.53 C22.46,57.6 22.51,57.67 22.56,57.74 C22.652634,57.8778487 22.7599263,58.0052584 22.88,58.12 C22.94,58.18 23.01,58.25 23.08,58.31 C23.2145381,58.4191078 23.3584278,58.5161497 23.51,58.6 C23.5732606,58.6425449 23.6401929,58.6793577 23.71,58.71 C23.8904206,58.7930085 24.077814,58.8599347 24.27,58.91 C24.34,58.92 24.42,58.94 24.5,58.95 C25.9443632,58.7134318 27.0035392,57.4636042 27,56 Z" id="Shape" fill="#FB7B76"/><path d="M28.32,5.43 L26.93,1.63 C26.7791504,1.24831999 26.4104086,0.997559519 26,0.997559519 C25.5895914,0.997559519 25.2208496,1.24831999 25.07,1.63 L23.68,5.43 C25.1332876,6.19006913 26.8667124,6.19006913 28.32,5.43 Z" id="Shape" fill="#2C3E50"/></g></g></svg>
