<?xml version="1.0" encoding="UTF-8"?>
<svg xmlns="http://www.w3.org/2000/svg" xmlns:xlink="http://www.w3.org/1999/xlink" width="512" height="512" viewBox="0 0 58 58" version="1.1"><!-- Generator: Sketch 51.3 (57544) - http://www.bohemiancoding.com/sketch --><title>034 - Ruler</title><desc>Created with Sketch.</desc><defs/><g id="Page-1" stroke="none" stroke-width="1" fill="none" fill-rule="evenodd"><g id="034---Ruler" transform="translate(-1.000000, -1.000000)" fill-rule="nonzero"><path d="M56.17,46.26 L54.75,44.84 L49.09,39.18 L47.67,37.76 L45.55,35.64 L44.13,34.22 L38.46,28.55 L37.05,27.14 L34.92,25.01 L33.51,23.6 L31.38,21.47 L29.97,20.06 L27.84,17.93 L26.43,16.52 L24.3,14.39 L22.89,12.98 L12.96,3.05 C11.6486608,1.73438854 9.86753707,0.994925516 8.01,0.994925516 C6.15246293,0.994925516 4.37133918,1.73438854 3.06,3.05 L3.05,3.06 C1.73438854,4.37133918 0.994925516,6.15246293 0.994925516,8.01 C0.994925516,9.86753707 1.73438854,11.6486608 3.05,12.96 L48.383,58.293 C48.7734999,58.6833819 49.4065001,58.6833819 49.797,58.293 L58.297,49.793 C58.6873819,49.4025001 58.6873819,48.7694999 58.297,48.379 L56.17,46.26 Z M9.43,9.43 C8.64872199,10.2104093 7.38279655,10.2099399 6.60209756,9.42895132 C5.82139857,8.64796277 5.82139857,7.38203723 6.60209756,6.60104868 C7.38279655,5.82006013 8.64872199,5.81959068 9.43,6.6 C9.80555409,6.97513651 10.0165733,7.4841815 10.0165733,8.015 C10.0165733,8.5458185 9.80555409,9.05486349 9.43,9.43 Z" id="Shape" fill="#3F5C6C"/><path d="M58.29,49.8 L54.05,54.05 L9.43,9.43 C10.2114829,8.64851708 10.2114829,7.38148293 9.42999998,6.60000002 C8.64851707,5.81851711 7.38148292,5.8185171 6.6,6.6 L3.06,3.06 L3.06,3.05 C4.37133918,1.73438854 6.15246293,0.994925516 8.01,0.994925516 C9.86753707,0.994925516 11.6486608,1.73438854 12.96,3.05 L22.89,12.98 L24.3,14.39 L26.43,16.52 L27.84,17.93 L29.97,20.06 L31.38,21.47 L33.51,23.6 L34.92,25.01 L37.05,27.14 L38.46,28.55 L44.13,34.22 L45.55,35.64 L47.67,37.76 L49.09,39.18 L54.75,44.84 L56.17,46.26 L58.29,48.38 C58.6799779,48.7730079 58.6799779,49.4069921 58.29,49.8 Z" id="Shape" fill="#547580"/><path d="M8.013,11.015 C6.58194764,11.0143517 5.35058725,10.0030222 5.07182661,8.59938272 C4.79306597,7.19574324 5.54452434,5.79062898 6.86672711,5.24318846 C8.18892988,4.69574794 9.71371742,5.15841276 10.5087677,6.34828935 C11.303818,7.53816594 11.147754,9.12394013 10.136,10.136 C9.5736579,10.7000746 8.80949648,11.0164655 8.013,11.015 Z M8.013,7.015 C7.53610864,7.01585119 7.12617548,7.35333425 7.03374673,7.8211836 C6.94131797,8.28903295 7.19211566,8.75705061 7.63285526,8.93918983 C8.07359486,9.12132904 8.58162278,8.96690222 8.84643848,8.57029316 C9.11125417,8.17368411 9.05916197,7.64526532 8.722,7.308 C8.53467576,7.11849218 8.27946434,7.01158415 8.013,7.011 L8.013,7.015 Z" id="Shape" fill="#2C3E50"/><path d="M20.76,10.85 L14.39,17.22 C14.1988084,17.4034154 13.9449285,17.5071128 13.68,17.51 C13.4147023,17.5089572 13.160164,17.4049909 12.97,17.22 C12.5800221,16.8269921 12.5800221,16.1930079 12.97,15.8 L19.34,9.43 L20.76,10.85 Z" id="Shape" fill="#2C3E50"/><path d="M31.38,21.47 L25.01,27.84 C24.8224259,28.0289094 24.5661918,28.1335684 24.3,28.13 C23.8981103,28.1283384 23.5362631,27.8862437 23.381379,27.5153946 C23.226495,27.1445455 23.3086714,26.7170058 23.59,26.43 L29.97,20.06 L31.38,21.47 Z" id="Shape" fill="#2C3E50"/><path d="M18.64,19.64 C18.3727541,19.6388906 18.1170714,19.5308556 17.93,19.34 C17.8367744,19.2484703 17.7620769,19.1398194 17.71,19.02 C17.6618331,18.8991897 17.638043,18.7700437 17.64,18.64 C17.6353827,18.3736106 17.7402033,18.1169808 17.93,17.93 C18.1673683,17.697118 18.5024098,17.5928829 18.83,17.65 C18.9,17.67 18.96,17.69 19.02,17.71 C19.08,17.73 19.14,17.77 19.19,17.8 C19.2464662,17.8352556 19.2970767,17.879118 19.34,17.93 C19.5325832,18.1158908 19.6409413,18.3723383 19.64,18.64 C19.63842,18.7706773 19.611241,18.8997777 19.56,19.02 C19.5115608,19.1417985 19.4363761,19.2511581 19.34,19.34 C19.2970767,19.390882 19.2464662,19.4347444 19.19,19.47 C19.14,19.5 19.08,19.53 19.02,19.56 C18.96,19.59 18.9,19.6 18.83,19.62 C18.7672839,19.6316027 18.7037574,19.6382897 18.64,19.64 Z" id="Shape" fill="#2C3E50"/><path d="M24.3,14.39 L22.18,16.51 C21.9912812,16.6971865 21.735803,16.8015368 21.47,16.8 C21.2038082,16.8035684 20.9475741,16.6989094 20.76,16.51 C20.3722764,16.1199625 20.3722764,15.4900375 20.76,15.1 L22.89,12.98 L24.3,14.39 Z" id="Shape" fill="#2C3E50"/><path d="M22.18,23.18 C22.0461835,23.1775704 21.9139664,23.1504489 21.79,23.1 C21.6682015,23.0515608 21.5588419,22.9763761 21.47,22.88 C21.3767744,22.7884703 21.3020769,22.6798194 21.25,22.56 C21.2018331,22.4391897 21.178043,22.3100437 21.18,22.18 C21.1753827,21.9136106 21.2802033,21.6569808 21.47,21.47 C21.5641488,21.379944 21.6722021,21.3056574 21.79,21.25 C22.0369332,21.1500351 22.3130668,21.1500351 22.56,21.25 C22.6777979,21.3056574 22.7858512,21.379944 22.88,21.47 C22.9261555,21.5174826 22.9695596,21.5675643 23.01,21.62 C23.043862,21.6745363 23.073933,21.731337 23.1,21.79 C23.1289574,21.8501484 23.1491621,21.9141297 23.16,21.98 C23.1716089,22.0460796 23.1782939,22.1129301 23.18,22.18 C23.17842,22.3106773 23.151241,22.4397777 23.1,22.56 C22.9928647,22.8005111 22.8005111,22.9928647 22.56,23.1 C22.4397777,23.151241 22.3106773,23.17842 22.18,23.18 Z" id="Shape" fill="#2C3E50"/><path d="M27.84,17.93 L25.72,20.05 C25.3256639,20.4367403 24.6943361,20.4367403 24.3,20.05 C23.9122764,19.6599625 23.9122764,19.0300375 24.3,18.64 L26.43,16.52 L27.84,17.93 Z" id="Shape" fill="#2C3E50"/><path d="M42,32.09 L35.63,38.46 C35.4456089,38.651781 35.1910451,38.7601659 34.925,38.7601659 C34.6589549,38.7601659 34.4043911,38.651781 34.22,38.46 C33.8322764,38.0699625 33.8322764,37.4400375 34.22,37.05 L40.59,30.68 L42,32.09 Z" id="Shape" fill="#2C3E50"/><path d="M29.26,30.26 C28.9948879,30.2580257 28.7406836,30.1541958 28.55,29.97 C28.4617473,29.8727393 28.3907291,29.7611393 28.34,29.64 C28.2839476,29.5213445 28.2565453,29.3911833 28.26,29.26 C28.2619743,28.9948879 28.3658042,28.7406836 28.55,28.55 C28.8360905,28.2615401 29.2682668,28.1748381 29.6434815,28.330629 C30.0186962,28.48642 30.2623626,28.8537349 30.26,29.26 C30.25842,29.3906773 30.231241,29.5197777 30.18,29.64 C30.1292709,29.7611393 30.0582527,29.8727393 29.97,29.97 C29.778257,30.152565 29.5247269,30.2561196 29.26,30.26 Z" id="Shape" fill="#2C3E50"/><path d="M34.92,25.01 L32.8,27.13 C32.6134464,27.3216151 32.3574295,27.4297912 32.09,27.43 C31.822981,27.4277883 31.5677037,27.3199246 31.38,27.13 C30.9922764,26.7399625 30.9922764,26.1100375 31.38,25.72 L33.51,23.6 L34.92,25.01 Z" id="Shape" fill="#2C3E50"/><path d="M32.8,33.8 C32.5339647,33.8027011 32.2780384,33.6982118 32.0899133,33.5100867 C31.9017882,33.3219616 31.7972989,33.0660353 31.8,32.8 C31.7965453,32.6688167 31.8239476,32.5386555 31.88,32.42 C31.9709238,32.1687697 32.1687697,31.9709238 32.42,31.88 C32.661381,31.769947 32.938619,31.769947 33.18,31.88 C33.3011393,31.9307291 33.4127393,32.0017473 33.51,32.09 C33.6003968,32.1856071 33.671677,32.2976187 33.72,32.42 C33.771241,32.5402223 33.79842,32.6693227 33.8,32.8 C33.8027011,33.0660353 33.6982118,33.3219616 33.5100867,33.5100867 C33.3219616,33.6982118 33.0660353,33.8027011 32.8,33.8 Z" id="Shape" fill="#2C3E50"/><path d="M38.46,28.55 L36.34,30.67 C36.1534464,30.8616151 35.8974295,30.9697912 35.63,30.97 C35.2279096,30.9635525 34.8683739,30.7180337 34.716025,30.345867 C34.563676,29.9737002 34.6478486,29.5465465 34.93,29.26 L37.05,27.14 L38.46,28.55 Z" id="Shape" fill="#2C3E50"/><path d="M52.63,42.72 L46.25,49.09 C46.0637394,49.2747442 45.8123399,49.3788954 45.55,49.38 C45.2847023,49.3789572 45.030164,49.2749909 44.84,49.09 C44.4500221,48.6969921 44.4500221,48.0630079 44.84,47.67 L51.21,41.3 L52.63,42.72 Z" id="Shape" fill="#2C3E50"/><path d="M39.88,40.88 C39.7493227,40.87842 39.6202223,40.851241 39.5,40.8 C39.3788607,40.7492709 39.2672607,40.6782527 39.17,40.59 C38.7832597,40.1956639 38.7832597,39.5643361 39.17,39.17 C39.2672607,39.0817473 39.3788607,39.0107291 39.5,38.96 C39.8733673,38.8132746 40.297871,38.8950597 40.59,39.17 C40.8784599,39.4560905 40.9651619,39.8882668 40.809371,40.2634815 C40.65358,40.6386962 40.2862651,40.8823626 39.88,40.88 Z" id="Shape" fill="#2C3E50"/><path d="M45.55,35.64 L43.42,37.76 C43.0278778,38.1493607 42.3943608,38.1471221 42.005,37.755 C41.6156393,37.3628778 41.6178779,36.7293608 42.01,36.34 L44.13,34.22 L45.55,35.64 Z" id="Shape" fill="#2C3E50"/><path d="M43.42,44.42 C43.2899563,44.421957 43.1608103,44.3981669 43.04,44.35 C42.9184679,44.2956428 42.806919,44.2212768 42.71,44.13 C42.5258042,43.9393164 42.4219743,43.6851121 42.42,43.42 C42.4220151,43.0162981 42.6665745,42.6534036 43.04,42.5 C43.2869332,42.4000351 43.5630668,42.4000351 43.81,42.5 C43.9317985,42.5484392 44.0411581,42.6236239 44.13,42.72 C44.2232256,42.8115297 44.2979231,42.9201806 44.35,43.04 C44.4959383,43.4151095 44.4100068,43.8408611 44.13,44.13 C44.0384703,44.2232256 43.9298194,44.2979231 43.81,44.35 C43.6854791,44.3973646 43.5532203,44.4211034 43.42,44.42 Z" id="Shape" fill="#2C3E50"/><path d="M49.09,39.18 L46.96,41.3 C46.7063414,41.5518723 46.337579,41.6492866 45.9926219,41.5555479 C45.6476649,41.4618093 45.3789204,41.1911588 45.2876219,40.8455479 C45.1963235,40.499937 45.2963414,40.1318722 45.55,39.88 L47.67,37.76 L49.09,39.18 Z" id="Shape" fill="#2C3E50"/><path d="M50.5,51.5 C50.4360115,51.5032713 50.3719048,51.4965233 50.31,51.48 C50.2455222,51.4680332 50.1820161,51.4513211 50.12,51.43 C50.0600173,51.4026552 50.0030436,51.3691413 49.95,51.33 C49.891825,51.3014524 49.8406214,51.2604895 49.8,51.21 C49.7036239,51.1211581 49.6284392,51.0117985 49.58,50.89 C49.5286113,50.7663205 49.5014528,50.6339228 49.5,50.5 C49.5010824,50.235669 49.6093343,49.9830811 49.8,49.8 C49.8429233,49.749118 49.8935338,49.7052556 49.95,49.67 C50,49.64 50.06,49.61 50.12,49.58 C50.18,49.55 50.25,49.54 50.31,49.52 C50.6376883,49.461338 50.9734274,49.5657902 51.21,49.8 C51.3978623,49.9841704 51.5025781,50.2369328 51.5,50.5 C51.5019756,50.6332929 51.4782077,50.7657144 51.43,50.89 C51.3779231,51.0098194 51.3032256,51.1184703 51.21,51.21 C51.0219104,51.3981353 50.7660179,51.5026547 50.5,51.5 Z" id="Shape" fill="#2C3E50"/><path d="M56.17,46.26 L54.04,48.38 C53.8537394,48.5647442 53.6023399,48.6688954 53.34,48.67 C53.0747023,48.6689572 52.820164,48.5649909 52.63,48.38 C52.2400221,47.9869921 52.2400221,47.3530079 52.63,46.96 L54.75,44.84 L56.17,46.26 Z" id="Shape" fill="#2C3E50"/></g></g></svg>
