<?xml version="1.0" encoding="UTF-8"?>
<svg xmlns="http://www.w3.org/2000/svg" xmlns:xlink="http://www.w3.org/1999/xlink" width="512" height="512" viewBox="0 0 58 58" version="1.1"><!-- Generator: Sketch 51.3 (57544) - http://www.bohemiancoding.com/sketch --><title>045 - Scissors</title><desc>Created with Sketch.</desc><defs/><g id="Page-1" stroke="none" stroke-width="1" fill="none" fill-rule="evenodd"><g id="045---Scissors" fill-rule="nonzero"><path d="M33.62,26.32 L44.21,7.98 C44.6168909,7.30042608 44.6941049,6.47313353 44.42,5.73 L42.46,1.12 C41.81,-0.42 39.74,-0.28 38.79,1.36 L29,18.32 L24.38,26.32 L20.46,33.12 L24.81,41.58 L29,34.32 L33.62,26.32 Z" id="Shape" fill="#547580"/><path d="M33.192,41.58 L13.792,7.98 C13.3753601,7.3036507 13.2977177,6.47176871 13.582,5.73 L15.532,1.12 C16.182,-0.42 18.262,-0.28 19.212,1.36 L37.552,33.12" id="Shape" fill="#95A5A5"/><polygon id="Shape" fill="#3F5C6C" points="29 34.32 26.69 38.32 22.07 30.32 24.38 26.32"/><path d="M45,30 C38.49,30 33,36.41 33,44 C33,51.59 38.49,58 45,58 C51.51,58 57,51.59 57,44 C57,36.41 51.51,30 45,30 Z M45,54 C40.74,54 37,49.33 37,44 C37,38.67 40.74,34 45,34 C49.26,34 53,38.67 53,44 C53,49.33 49.26,54 45,54 Z" id="Shape" fill="#DF4D60"/><path d="M45,32 C39.48,32 35,37.37 35,44 C35,50.63 39.48,56 45,56 C50.52,56 55,50.63 55,44 C55,37.37 50.52,32 45,32 Z M45,52 C41.75,52 39,48.34 39,44 C39,39.66 41.75,36 45,36 C48.25,36 51,39.66 51,44 C51,48.34 48.25,52 45,52 Z" id="Shape" fill="#FF5364"/><path d="M45,34 C40.74,34 37,38.67 37,44 C37,49.33 40.74,54 45,54 C49.26,54 53,49.33 53,44 C53,38.67 49.26,34 45,34 Z M45,52 C41.75,52 39,48.34 39,44 C39,39.66 41.75,36 45,36 C48.25,36 51,39.66 51,44 C51,48.34 48.25,52 45,52 Z" id="Shape" fill="#DF4D60"/><path d="M13,30 C6.49,30 1,36.41 1,44 C1,51.59 6.49,58 13,58 C19.51,58 25,51.59 25,44 C25,36.41 19.51,30 13,30 Z M13,54 C8.74,54 5,49.33 5,44 C5,38.67 8.74,34 13,34 C17.26,34 21,38.67 21,44 C21,49.33 17.26,54 13,54 Z" id="Shape" fill="#DF4D60"/><path d="M13,32 C7.48,32 3,37.37 3,44 C3,50.63 7.48,56 13,56 C18.52,56 23,50.63 23,44 C23,37.37 18.52,32 13,32 Z M13,52 C9.75,52 7,48.34 7,44 C7,39.66 9.75,36 13,36 C16.25,36 19,39.66 19,44 C19,48.34 16.25,52 13,52 Z" id="Shape" fill="#FF5364"/><path d="M13,34 C8.74,34 5,38.67 5,44 C5,49.33 8.74,54 13,54 C17.26,54 21,49.33 21,44 C21,38.67 17.26,34 13,34 Z M13,52 C9.75,52 7,48.34 7,44 C7,39.66 9.75,36 13,36 C16.25,36 19,39.66 19,44 C19,48.34 16.25,52 13,52 Z" id="Shape" fill="#DF4D60"/><circle id="Oval" fill="#7F8C8D" cx="28.75" cy="26" r="3"/><circle id="Oval" fill="#547580" cx="28.75" cy="26" r="1.25"/><polygon id="Shape" fill="#90BAE1" points="32 4 24 18 0 18 3 14.5 0 11 3 7.5 0 4"/><polygon id="Shape" fill="#90BAE1" points="58 11 55 14.5 58 18 44 18 52 4 58 4 55 7.5"/></g></g></svg>
