<svg enable-background="new 0 0 109.279 87.514" height="512" viewBox="0 0 109.279 87.514" width="512" xmlns="http://www.w3.org/2000/svg"><path d="m104.14 27.187.26-.26c2.19-2.76 3.2-5.9 3.2-9.69 0-4.48-1.81-8.54-4.75-11.48s-7-4.76-11.48-4.76h-40.8c-8.97 0-16.24 7.27-16.24 16.24 0 4.49 1.82 8.55 4.76 11.49 2.93 2.94 6.99 4.75 11.48 4.75l57.23-.25z" fill="#7c86bb"/><path d="m86.9 43.727h-64.24c-5.91 0-11.26 2.39-15.13 6.26-3.88 3.88-6.27 9.23-6.27 15.13 0 5 1.34 9.13 4.22 12.77l.34.34-4.82 7.95 85.9.34c5.9 0 11.25-2.4 15.12-6.27s6.26-9.22 6.26-15.13c0-11.81-9.57-21.39-21.38-21.39z" fill="#f7bd76"/><g fill="#18273d"><path d="m29.692 63.435c.553 0 1-.448 1-1s-.447-1-1-1h-2.138l1.041-3.371c.163-.527-.132-1.087-.66-1.25-.533-.163-1.088.133-1.25.661l-1.223 3.961h-3.081l1.041-3.371c.163-.527-.132-1.087-.66-1.25-.533-.163-1.088.133-1.25.661l-1.223 3.961h-4.494c-.553 0-1 .448-1 1s.447 1 1 1h3.876l-.98 3.173h-2.896c-.553 0-1 .448-1 1s.447 1 1 1h2.278l-1.104 3.574c-.163.527.132 1.087.66 1.25.099.03.197.045.295.045.428 0 .823-.276.955-.706l1.286-4.164h3.081l-1.104 3.574c-.163.527.132 1.087.66 1.25.099.03.197.045.295.045.428 0 .823-.276.955-.706l1.286-4.164h4.353c.553 0 1-.448 1-1s-.447-1-1-1h-3.735l.98-3.173zm-5.827 3.173h-3.081l.98-3.173h3.081z"/><path d="m47.244 62.139c.009-1.048-.392-2.038-1.127-2.785-.734-.748-1.717-1.165-2.766-1.173l-3.976-.033c-.003 0-.006 0-.009 0-.549 0-.995.442-1 .992l-.05 5.851-.049 5.851c-.005.552.439 1.003.991 1.008l3.977.033h.034c1.036 0 2.012-.399 2.751-1.126.748-.735 1.165-1.717 1.174-2.766.009-1.048-.392-2.038-1.127-2.785-.056-.057-.123-.099-.182-.153.818-.714 1.349-1.747 1.359-2.914zm-2.624 7.191c-.363.356-.842.552-1.35.552-.006 0-.012 0-.017 0l-2.977-.025.031-3.851 2.977.025c.515.004.997.208 1.357.575.361.367.557.852.553 1.366s-.208.997-.574 1.358zm-4.294-5.324.032-3.851 2.976.025c.515.004.997.208 1.357.576.361.367.557.852.553 1.366-.009 1.056-.871 1.909-1.925 1.909-.006 0-.012 0-.017 0z"/><path d="m59.326 58.318c-.003 0-.006 0-.009 0-.549 0-.995.442-1 .992l-.07 8.34c-.005.629-.255 1.218-.703 1.659s-1.014.675-1.672.676c-1.298-.011-2.346-1.076-2.335-2.375l.07-8.339c.005-.552-.439-1.003-.991-1.008-.003 0-.006 0-.009 0-.549 0-.995.442-1 .992l-.07 8.34c-.019 2.401 1.919 4.371 4.318 4.391h.038c1.149 0 2.232-.443 3.053-1.25.83-.816 1.292-1.906 1.301-3.069l.07-8.339c.005-.554-.439-1.005-.991-1.01z"/><path d="m71.416 69.922-4.848-.041.086-10.311c.005-.552-.439-1.003-.991-1.008-.003 0-.006 0-.009 0-.549 0-.995.442-1 .992l-.094 11.311c-.002.265.101.521.287.709.186.189.439.296.704.299l5.848.049h.009c.549 0 .995-.442 1-.992.004-.552-.44-1.003-.992-1.008z"/><path d="m83.602 70.024-4.847-.041.086-10.311c.005-.552-.439-1.003-.991-1.008-.003 0-.006 0-.009 0-.549 0-.995.442-1 .992l-.095 11.311c-.002.265.101.521.287.709.186.189.439.296.704.299l5.847.049h.009c.549 0 .995-.442 1-.992.005-.552-.44-1.003-.991-1.008z"/><path d="m92.972 58.969-2.921 3.681-2.778-3.719c-.331-.442-.956-.534-1.399-.203-.442.331-.533.957-.202 1.4l3.353 4.489-.055 6.473c-.005.552.439 1.004.991 1.008h.009c.549 0 .995-.442 1-.992l.054-6.466 3.515-4.429c.344-.433.271-1.062-.161-1.405-.436-.342-1.064-.27-1.406.163z"/><path d="m86.897 42.728h-64.242c-5.984 0-11.608 2.329-15.836 6.557-4.229 4.227-6.557 9.851-6.557 15.836 0 5.163 1.411 9.494 4.313 13.236l-4.431 7.303c-.188.308-.194.693-.018 1.007s.508.51.868.511l85.9.336c5.989 0 11.609-2.329 15.826-6.557 4.229-4.229 6.557-9.853 6.557-15.836.002-12.348-10.039-22.393-22.38-22.393zm14.411 36.816c-3.84 3.85-8.957 5.97-14.407 5.97l-84.129-.329 3.904-6.435c.239-.394.179-.899-.146-1.225l-.303-.303c-2.705-3.445-3.965-7.292-3.965-12.101 0-5.451 2.12-10.572 5.971-14.422 3.85-3.85 8.972-5.971 14.422-5.971h64.241c11.239 0 20.383 9.148 20.383 20.393 0 5.449-2.12 10.571-5.971 14.423z"/><path d="m45.565 18.127c-.553 0-1 .448-1 1s.447 1 1 1h1.403l-.741 2.401c-.163.527.133 1.087.66 1.25.099.03.197.045.295.045.428 0 .823-.276.955-.706l.923-2.991h1.834l-.741 2.401c-.163.527.133 1.087.66 1.25.099.03.197.045.295.045.428 0 .823-.276.955-.706l.923-2.991h3.125c.553 0 1-.448 1-1s-.447-1-1-1h-2.508l.597-1.925h1.913c.553 0 1-.448 1-1s-.447-1-1-1h-1.295l.694-2.247c.163-.527-.133-1.087-.66-1.25-.531-.164-1.088.132-1.25.661l-.876 2.836h-1.834l.694-2.247c.163-.527-.133-1.087-.66-1.25-.531-.164-1.089.132-1.25.661l-.877 2.836h-3.234c-.553 0-1 .448-1 1s.447 1 1 1h2.616l-.595 1.927zm4.709-1.927h1.834l-.595 1.927h-1.834z"/><path d="m50.57 34.478 57.238-.255c.36-.001.691-.197.867-.511.177-.314.17-.7-.018-1.008l-3.278-5.402c2.17-2.855 3.225-6.15 3.225-10.063 0-4.606-1.793-8.936-5.048-12.191-3.254-3.256-7.583-5.048-12.191-5.048h-40.8c-9.501 0-17.231 7.733-17.231 17.239 0 4.606 1.793 8.937 5.047 12.19 3.246 3.256 7.573 5.049 12.189 5.049zm-.005-32.478h40.8c4.073 0 7.9 1.584 10.777 4.462s4.462 6.705 4.462 10.777c0 3.587-.938 6.457-2.949 9.025l-.219.219c-.327.326-.388.833-.148 1.227l2.744 4.521-55.467.247c-4.075 0-7.899-1.584-10.77-4.462-2.877-2.877-4.462-6.705-4.462-10.777.001-8.403 6.834-15.239 15.232-15.239z"/><path d="m61.487 22.739c.553 0 1-.448 1-1v-3.327h3.35v3.327c0 .552.447 1 1 1s1-.448 1-1v-9.047c0-.552-.447-1-1-1s-1 .448-1 1v3.72h-3.35v-3.72c0-.552-.447-1-1-1s-1 .448-1 1v9.047c0 .553.448 1 1 1z"/><path d="m70.14 22.607c.516.17 1.088-.107 1.265-.63.033-.096.38-1.062.862-2.403l3.08-.082 1.026 2.542c.157.39.532.626.928.626.125 0 .252-.023.374-.073.513-.207.76-.79.554-1.301l-3.619-8.968c-.155-.384-.531-.62-.946-.626-.415.008-.781.271-.922.661-.323.895-3.153 8.751-3.233 8.993-.175.524.108 1.086.631 1.261zm3.593-7.111.814 2.017-1.555.041c.242-.671.493-1.368.741-2.058z"/><path d="m78.051 13.657h2.519v8.096c0 .552.447 1 1 1s1-.448 1-1v-8.096h2.743c.553 0 1-.448 1-1s-.447-1-1-1h-7.262c-.553 0-1 .448-1 1s.447 1 1 1z"/><path d="m88.345 22.441h4.753c.553 0 1-.448 1-1s-.447-1-1-1h-3.753v-2.294h3.753c.553 0 1-.448 1-1s-.447-1-1-1h-3.753v-2.491h3.753c.553 0 1-.448 1-1s-.447-1-1-1h-4.753c-.553 0-1 .448-1 1v8.785c0 .553.447 1 1 1z"/></g></svg>