<svg id="Capa_1" enable-background="new 0 0 93.745 120.706" height="512" viewBox="0 0 93.745 120.706" width="512" xmlns="http://www.w3.org/2000/svg"><path d="m69.363 1.003h-66.19c-1.21 0-2.17.97-2.17 2.17v114.36c0 1.2.96 2.17 2.17 2.17h66.19c1.2 0 2.17-.97 2.17-2.17v-114.36c0-1.2-.97-2.17-2.17-2.17zm-32.14 61.88-1.7-4.57-.94-2.52v-3.81c.81.2 1.68.32 2.54.32.12 0 .24 0 .35-.01.05.01.11.01.16.01.27 0 .53-.03.8-.08.11 0 .22-.02.33-.05.2-.04.39-.08.59-.12.12-.02.24-.06.36-.09.05-.01.09-.02.14-.04v3.87l-.94 2.52-1.65 4.46z" fill="#202a42"/><path d="m65.935 104.033v-64.4-19.31-10.55c0-1.16-.94-2.1-2.09-2.1h-55.16c-1.15 0-2.09.94-2.09 2.1v94.27c0 1.15.94 2.09 2.09 2.09h55.15c1.16 0 2.1-.94 2.1-2.1z" fill="#f6f8f9"/><path d="m92.743 22.723v14.5c0 1.33-1.08 2.41-2.41 2.41h-18.8-5.6-.05l-8 4.92-.03.01c-.26.07-.54-.18-.44-.46l1.79-4.75c-.78-.4-1.31-1.2-1.31-2.13v-14.5c0-1.32 1.07-2.4 2.41-2.4h5.63 5.6 18.8c1.33 0 2.41 1.08 2.41 2.4z" fill="#a7b4cc"/><path d="m55.643 89.243c2.78 0 5.03 2.25 5.03 5.02 0 2.78-2.25 5.03-5.03 5.03-2.77 0-5.02-2.25-5.02-5.03 0-2.77 2.25-5.02 5.02-5.02z" fill="#f7bd76"/><path d="m58.663 92.163c.14.55-.09 1.15-.61 1.43-.53.28-1.15.13-1.53-.29z"/><path d="m52.633 92.173 2.14 1.12c-.37.42-.99.57-1.52.3-.53-.28-.76-.87-.62-1.42z"/><path d="m37.473 52.293c.32 0 .64-.03.96-.07-.27.05-.53.08-.8.08-.05 0-.11 0-.16-.01z" fill="#7c86bb"/><path d="m51.113 42.363c0 1.7-1.37 3.07-3.07 3.08-.4 0-.78-.07-1.12-.22.34-1.03.52-2.13.52-3.28l-.01-2.58c.19-.04.39-.06.59-.06 1.69-.01 3.09 1.37 3.09 3.06z" fill="#dedee0"/><path d="m47.433 39.363-.01-6.67c-3.2-.83-4.81-1.53-5.86-3.08-2.75 4.21-14.8 3.13-14.8 3.13l.01 6.62.01 2.63c0 1.17.2 2.31.56 3.36 1.07 3.1 3.58 5.52 6.74 6.5.16.05.34.1.5.13.81.2 1.68.32 2.54.32.12 0 .24 0 .35-.01.32 0 .64-.03.96-.07.11 0 .22-.02.33-.05.2-.04.39-.08.59-.12.12-.02.24-.06.36-.09.05-.01.09-.02.14-.04 3.34-.91 6-3.45 7.07-6.7.34-1.03.52-2.13.52-3.28zm-15.44 6.23c-.54 0-.98-.45-.98-.99s.98-2.23.98-2.23.99 1.69.99 2.23-.44.99-.99.99zm0-4.18c-.64 0-1.17-.53-1.17-1.17 0-.65.53-1.17 1.17-1.17.65 0 1.17.52 1.17 1.17 0 .64-.52 1.17-1.17 1.17zm10.62 4.18c-.54 0-.99-.45-.99-.99s.99-2.23.99-2.23.99 1.69.99 2.23-.44.99-.99.99z" fill="#dedee0"/><path d="m51.011 76.299h-27.497c-2.203 0-3.989-1.786-3.989-3.989v-4.695c0-6.529 5.292-11.821 11.821-11.821h11.834c6.529 0 11.821 5.292 11.821 11.821v4.695c0 2.203-1.786 3.989-3.99 3.989z" fill="#2c3656"/><path d="m44.013 110.343c1.34 0 2.44 1.09 2.44 2.43 0 .68-.28 1.28-.72 1.73-.44.44-1.05.71-1.72.71h-15.49c-1.35 0-2.44-1.09-2.44-2.44 0-.67.27-1.28.71-1.72s1.06-.71 1.73-.71z" fill="#f6f8f9"/><path d="m43.613 59.783-6.05 3.1-.3-.11 1.65-4.46.94-2.52h.34z" fill="#7c86bb"/><path d="m42.613 42.373s.99 1.69.99 2.23-.44.99-.99.99c-.54 0-.99-.45-.99-.99s.99-2.23.99-2.23z" fill="#7c86bb"/><path d="m43.113 86.833v12.24c0 1.19-.97 2.16-2.16 2.16h-28.38c-1.2 0-2.17-.97-2.17-2.16v-12.24c0-1.2.97-2.17 2.17-2.17h28.38c1.19 0 2.16.97 2.16 2.17z" fill="#8087a0"/><path d="m39.853 51.923v3.87l-.94 2.52-1.65 4.46-.04.11-1.7-4.57-.94-2.52v-3.81c.81.2 1.68.32 2.54.32.12 0 .24 0 .35-.01.05.01.11.01.16.01.27 0 .53-.03.8-.08.11 0 .22-.02.33-.05.2-.04.39-.08.59-.12.12-.02.24-.06.36-.09.05-.01.09-.02.14-.04z" fill="#d1d1d3"/><path d="m39.853 51.923c-.05.02-.09.03-.14.04-.12.03-.24.07-.36.09-.2.04-.39.08-.59.12.37-.07.73-.16 1.09-.25z" fill="#f6f8f9"/><path d="m37.223 62.883-6.05-3.1 3.41-3.99.94 2.52z" fill="#7c86bb"/><path d="m47.173 24.403c-2.62-2.61-6.23-4.23-10.23-4.23-8 0-14.48 6.48-14.48 14.47v7.8 17.34c2.12-2.45 5.24-3.99 8.72-3.99h3.4v-3.81c-.16-.03-.34-.08-.5-.13-3.16-.98-5.67-3.4-6.74-6.5-.28.09-.58.14-.9.14-1.7.01-3.09-1.36-3.09-3.05 0-1.7 1.37-3.08 3.07-3.09.11 0 .23.01.35.01l-.01-6.62s12.05 1.08 14.8-3.13c1.05 1.55 2.66 2.25 5.86 3.08l.01 6.67c.19-.04.39-.06.59-.06 1.69-.01 3.09 1.37 3.09 3.06 0 1.7-1.37 3.07-3.07 3.08-.4 0-.78-.07-1.12-.22-1.07 3.25-3.73 5.79-7.07 6.7v3.87h3.18c3.31 0 6.29 1.39 8.38 3.61v-17.04-7.72c0-4-1.63-7.61-4.24-10.24z" fill="#7c86bb"/><path d="m31.993 42.373s.99 1.69.99 2.23-.44.99-.99.99c-.54 0-.98-.45-.98-.99s.98-2.23.98-2.23z" fill="#7c86bb"/><path d="m27.833 72.383c2.24 0 4.06 1.81 4.06 4.05 0 1.12-.46 2.14-1.19 2.87s-1.75 1.19-2.87 1.19h-13.88c-2.24 0-4.05-1.82-4.05-4.06 0-1.12.45-2.13 1.19-2.86.73-.74 1.74-1.19 2.86-1.19h5.72z" fill="#8087a0"/><path d="m27.343 45.353c-.28.09-.58.14-.9.14-1.7.01-3.09-1.36-3.09-3.05 0-1.7 1.37-3.08 3.07-3.09.11 0 .23.01.35.01l.01 2.63c0 1.17.2 2.31.56 3.36z" fill="#dedee0"/><path d="m56.513 72.383c2.78 0 5.03 2.25 5.03 5.02s-2.25 5.02-5.03 5.02c-2.77 0-5.02-2.25-5.02-5.02s2.25-5.02 5.02-5.02z" fill="#f7bd76"/><path d="m59.533 75.303c.14.55-.09 1.14-.61 1.42-.53.28-1.15.14-1.53-.29z"/><path d="m53.503 75.303 2.14 1.12c-.37.43-.99.58-1.52.3-.53-.27-.76-.86-.62-1.42z"/><path d="m16.435 16.1h1.541c.276 0 .5-.224.5-.5s-.224-.5-.5-.5h-1.041v-2.155c0-.276-.224-.5-.5-.5s-.5.224-.5.5v2.655c0 .276.223.5.5.5z" fill="#2c3656"/><path d="m19.668 16.189h.005c.276-.002.498-.229.495-.505l-.026-2.745c-.002-.274-.226-.495-.5-.495-.001 0-.003 0-.005 0-.276.002-.498.229-.495.505l.026 2.745c.002.275.226.495.5.495z" fill="#2c3656"/><path d="m22.096 15.857c.07.198.257.331.467.333h.004c.208 0 .396-.129.468-.325l1.025-2.745c.097-.259-.035-.547-.293-.643-.258-.097-.547.035-.643.293l-.545 1.46-.517-1.453c-.092-.261-.379-.397-.639-.304s-.396.378-.304.639z" fill="#2c3656"/><path d="m25.398 16.058h1.543c.276 0 .5-.224.5-.5s-.224-.5-.5-.5h-1.043v-.279h.987c.276 0 .5-.224.5-.5s-.224-.5-.5-.5h-.987v-.203h1.043c.276 0 .5-.224.5-.5s-.224-.5-.5-.5h-1.543c-.276 0-.5.224-.5.5v2.482c0 .277.224.5.5.5z" fill="#2c3656"/><path d="m13.223 15.433c.62 0 1.12-.5 1.12-1.12 0-.61-.5-1.11-1.12-1.11s-1.12.5-1.12 1.11c0 .62.5 1.12 1.12 1.12z" fill="#2c3656"/><path d="m54.775 93.288-2.147-1.116c-.132.554.098 1.145.626 1.419s1.144.124 1.521-.303z" fill="#2c3656"/><path d="m58.049 93.589c.526-.28.75-.872.613-1.425l-2.137 1.136c.381.423.999.568 1.524.289z" fill="#2c3656"/><path d="m55.995 95.134c-.885-.052-1.742.197-2.278.666-.208.182-.229.498-.047.706.099.113.237.171.376.171.117 0 .234-.041.329-.124.338-.296.937-.457 1.561-.42.497.029.969.182 1.295.419.224.162.536.111.699-.111.162-.224.112-.536-.111-.699-.484-.351-1.132-.567-1.824-.608z" fill="#2c3656"/><path d="m54.125 76.726c.528.275 1.144.124 1.521-.303l-2.147-1.116c-.133.554.098 1.145.626 1.419z" fill="#2c3656"/><path d="m58.92 76.724c.526-.28.75-.872.613-1.425l-2.137 1.137c.382.423.999.568 1.524.288z" fill="#2c3656"/><path d="m54.541 79.641c.099.113.237.17.376.17.117 0 .235-.041.33-.124.338-.296.936-.457 1.56-.42.497.029.969.182 1.295.419.224.162.535.112.699-.111.162-.224.112-.536-.111-.699-.484-.351-1.132-.567-1.824-.608-.891-.056-1.743.196-2.278.667-.208.183-.229.499-.047.706z" fill="#2c3656"/><path d="m39.599 88.038h-25.442c-.552 0-1 .448-1 1s.448 1 1 1h25.442c.552 0 1-.448 1-1s-.448-1-1-1z" fill="#2c3656"/><path d="m36.682 92.255h-22.525c-.552 0-1 .448-1 1s.448 1 1 1h22.525c.552 0 1-.448 1-1s-.448-1-1-1z" fill="#2c3656"/><path d="m26.824 95.863h-12.667c-.552 0-1 .448-1 1s.448 1 1 1h12.667c.552 0 1-.448 1-1s-.448-1-1-1z" fill="#2c3656"/><path d="m17.124 75.437h-3.15c-.552 0-1 .448-1 1s.448 1 1 1h3.15c.552 0 1-.448 1-1s-.448-1-1-1z" fill="#2c3656"/><path d="m20.376 77.437h7.128c.552 0 1-.448 1-1s-.448-1-1-1h-7.128c-.552 0-1 .448-1 1s.448 1 1 1z" fill="#2c3656"/><path d="m88.081 24.362h-26.026c-.552 0-1 .448-1 1s.448 1 1 1h26.026c.552 0 1-.448 1-1s-.448-1-1-1z" fill="#2c3656"/><path d="m84.625 29.376h-22.57c-.552 0-1 .448-1 1s.448 1 1 1h22.57c.552 0 1-.448 1-1s-.448-1-1-1z" fill="#2c3656"/><path d="m84.625 33.916h-22.57c-.552 0-1 .448-1 1s.448 1 1 1h22.57c.552 0 1-.448 1-1s-.448-1-1-1z" fill="#2c3656"/><path d="m32.757 35.907c-1.047 1.486-3.423 1.192-3.448 1.188-.282-.039-.525.156-.562.429s.155.525.428.562c.034.004.285.037.66.037.96 0 2.733-.211 3.739-1.64.159-.226.105-.538-.121-.697s-.538-.104-.696.121z" fill="#2c3656"/><path d="m40.536 47.471c-3.18-1.965-6.484-.088-6.622-.007-.239.138-.319.443-.182.682.138.239.443.319.683.183.029-.017 2.933-1.651 5.595-.008.082.051.172.075.262.075.167 0 .332-.084.426-.237.146-.235.073-.543-.162-.688z" fill="#2c3656"/><path d="m33.165 40.241c0-.646-.524-1.17-1.17-1.17s-1.17.524-1.17 1.17.524 1.17 1.17 1.17 1.17-.523 1.17-1.17z" fill="#2c3656"/><path d="m43.604 38.123c.374 0 .625-.032.66-.037.273-.037.465-.289.428-.563-.038-.273-.284-.462-.563-.428-.024.003-2.394.307-3.446-1.188-.159-.226-.47-.28-.697-.121-.226.159-.28.471-.121.697 1.006 1.429 2.778 1.64 3.739 1.64z" fill="#2c3656"/><path d="m40.273 40.241c0 .646.524 1.17 1.17 1.17s1.17-.524 1.17-1.17-.524-1.17-1.17-1.17-1.17.524-1.17 1.17z" fill="#2c3656"/><path d="m37.174 44.644c.019.002.039.003.057.003.251 0 .467-.188.496-.443.031-.274-.166-.522-.44-.553-.322-.037-.441-.182-.509-.304-.476-.856.302-3.188.904-4.456.118-.249.012-.547-.237-.666-.25-.117-.547-.012-.666.237-.182.383-1.753 3.788-.875 5.371.259.465.698.746 1.27.811z" fill="#2c3656"/><g fill="#18273d"><path d="m44.01 109.338h-15.49c-1.896 0-3.439 1.542-3.439 3.439s1.543 3.439 3.439 3.439h15.49c1.896 0 3.439-1.543 3.439-3.439s-1.542-3.439-3.439-3.439zm0 4.879h-15.49c-.794 0-1.439-.646-1.439-1.439s.646-1.439 1.439-1.439h15.49c.794 0 1.439.646 1.439 1.439.001.793-.645 1.439-1.439 1.439z"/><path d="m16.435 16.1h1.541c.276 0 .5-.224.5-.5s-.224-.5-.5-.5h-1.041v-2.155c0-.276-.224-.5-.5-.5s-.5.224-.5.5v2.655c0 .276.223.5.5.5z"/><path d="m19.668 16.189h.005c.276-.002.498-.229.495-.505l-.026-2.745c-.002-.274-.226-.495-.5-.495-.001 0-.003 0-.005 0-.276.002-.498.229-.495.505l.026 2.745c.002.275.226.495.5.495z"/><path d="m22.096 15.857c.07.198.257.331.467.333h.004c.208 0 .396-.129.468-.325l1.025-2.745c.097-.259-.035-.547-.293-.643-.258-.097-.547.035-.643.293l-.545 1.46-.517-1.453c-.092-.261-.379-.397-.639-.304s-.396.378-.304.639z"/><path d="m25.398 16.058h1.543c.276 0 .5-.224.5-.5s-.224-.5-.5-.5h-1.043v-.279h.987c.276 0 .5-.224.5-.5s-.224-.5-.5-.5h-.987v-.203h1.043c.276 0 .5-.224.5-.5s-.224-.5-.5-.5h-1.543c-.276 0-.5.224-.5.5v2.482c0 .276.224.5.5.5z"/><path d="m13.223 15.433c.62 0 1.12-.5 1.12-1.12 0-.61-.5-1.11-1.12-1.11s-1.12.5-1.12 1.11c0 .62.5 1.12 1.12 1.12z"/><path d="m55.646 88.245c-3.321 0-6.022 2.702-6.022 6.022s2.702 6.022 6.022 6.022c3.321 0 6.023-2.702 6.023-6.022s-2.702-6.022-6.023-6.022zm0 10.045c-2.218 0-4.022-1.805-4.022-4.022s1.805-4.022 4.022-4.022c2.218 0 4.023 1.805 4.023 4.022s-1.805 4.022-4.023 4.022z"/><path d="m54.775 93.288-2.147-1.116c-.132.554.098 1.145.626 1.419s1.144.124 1.521-.303z"/><path d="m58.049 93.589c.526-.28.75-.872.613-1.425l-2.137 1.136c.381.423.999.568 1.524.289z"/><path d="m55.995 95.134c-.885-.052-1.742.197-2.278.666-.208.182-.229.498-.047.706.099.113.237.171.376.171.117 0 .234-.041.329-.124.338-.296.937-.457 1.561-.42.497.029.969.182 1.295.419.224.162.536.111.699-.111.162-.224.112-.536-.111-.699-.484-.351-1.132-.567-1.824-.608z"/><path d="m54.125 76.726c.528.275 1.144.124 1.521-.303l-2.147-1.116c-.133.554.098 1.145.626 1.419z"/><path d="m58.92 76.724c.526-.28.75-.872.613-1.425l-2.137 1.137c.382.423.999.568 1.524.288z"/><path d="m54.541 79.641c.099.113.237.17.376.17.117 0 .235-.041.33-.124.338-.296.936-.457 1.56-.42.497.029.969.182 1.295.419.224.162.535.112.699-.111.162-.224.112-.536-.111-.699-.484-.351-1.132-.567-1.824-.608-.891-.056-1.743.196-2.278.667-.208.183-.229.499-.047.706z"/><path d="m40.948 83.664h-28.379c-1.747 0-3.168 1.421-3.168 3.168v12.237c0 1.747 1.421 3.168 3.168 3.168h28.378c1.747 0 3.168-1.421 3.168-3.168v-12.237c.001-1.747-1.42-3.168-3.167-3.168zm1.168 15.405c0 .644-.524 1.168-1.168 1.168h-28.379c-.644 0-1.168-.524-1.168-1.168v-12.237c0-.645.524-1.168 1.168-1.168h28.378c.644 0 1.168.524 1.168 1.168v12.237z"/><path d="m39.599 88.038h-25.442c-.552 0-1 .448-1 1s.448 1 1 1h25.442c.552 0 1-.448 1-1s-.448-1-1-1z"/><path d="m36.682 92.255h-22.525c-.552 0-1 .448-1 1s.448 1 1 1h22.525c.552 0 1-.448 1-1s-.448-1-1-1z"/><path d="m26.824 95.863h-12.667c-.552 0-1 .448-1 1s.448 1 1 1h12.667c.552 0 1-.448 1-1s-.448-1-1-1z"/><path d="m17.124 75.437h-3.15c-.552 0-1 .448-1 1s.448 1 1 1h3.15c.552 0 1-.448 1-1s-.448-1-1-1z"/><path d="m20.376 77.437h7.128c.552 0 1-.448 1-1s-.448-1-1-1h-7.128c-.552 0-1 .448-1 1s.448 1 1 1z"/><path d="m90.328 19.318h-17.798v-16.15c0-1.747-1.421-3.168-3.168-3.168h-66.194c-1.747 0-3.168 1.421-3.168 3.168v114.37c0 1.747 1.421 3.168 3.168 3.168h66.194c1.747 0 3.168-1.421 3.168-3.168v-76.902h17.798c1.884 0 3.417-1.533 3.417-3.417v-14.494c0-1.879-1.533-3.407-3.417-3.407zm-19.798 98.22c0 .644-.524 1.168-1.168 1.168h-66.194c-.644 0-1.168-.524-1.168-1.168v-114.37c0-.644.524-1.168 1.168-1.168h66.194c.644 0 1.168.524 1.168 1.168v16.15h-3.594v-9.548c0-1.705-1.387-3.092-3.092-3.092h-55.158c-1.705 0-3.092 1.387-3.092 3.092v94.271c0 1.705 1.387 3.092 3.092 3.092h55.147c1.711 0 3.103-1.392 3.103-3.103v-63.394h3.594zm-12.534-77.815-1.749 4.629c-.043.113-.066.23-.071.347-.016.35.131.696.412.926.099.081.21.141.325.184.04.015.081.017.121.027.079.02.156.038.237.041.012 0 .024.006.036.006.059 0 .118-.015.177-.024.036-.006.072-.005.107-.015.107-.028.211-.069.308-.129l.561-.345c.001 0 .001 0 .002-.001l6.473-3.979v62.639c0 .608-.495 1.103-1.103 1.103h-55.146c-.602 0-1.092-.49-1.092-1.092v-94.27c0-.602.49-1.092 1.092-1.092h55.158c.602 0 1.092.49 1.092 1.092v9.548h-4.637c-1.878 0-3.407 1.528-3.407 3.406v14.494c0 .97.408 1.87 1.104 2.505zm33.749-2.504c0 .782-.636 1.417-1.417 1.417h-17.798-5.648-1-.283l-.241.148-6.342 3.899 1.124-2.975.315-.835-.794-.408c-.474-.244-.769-.721-.769-1.246v-14.494c0-.775.631-1.406 1.407-1.406h6.637 5.594 17.798c.782 0 1.417.631 1.417 1.406z"/><path d="m88.081 24.362h-26.026c-.552 0-1 .448-1 1s.448 1 1 1h26.026c.552 0 1-.448 1-1s-.448-1-1-1z"/><path d="m84.625 29.376h-22.57c-.552 0-1 .448-1 1s.448 1 1 1h22.57c.552 0 1-.448 1-1s-.448-1-1-1z"/><path d="m84.625 33.916h-22.57c-.552 0-1 .448-1 1s.448 1 1 1h22.57c.552 0 1-.448 1-1s-.448-1-1-1z"/><path d="m55.548 67.302c0-3.065-1.118-5.98-3.136-8.266v-24.39c0-4.125-1.607-8.012-4.53-10.947-2.933-2.919-6.819-4.527-10.944-4.527-8.532 0-15.474 6.942-15.474 15.474v24.787c-1.8 2.217-2.796 4.991-2.796 7.869v4.078h-4.713c-2.788 0-5.056 2.268-5.056 5.056s2.268 5.056 5.056 5.056h13.877c2.788 0 5.056-2.268 5.056-5.056 0-.056-.015-.107-.016-.163.042.005.08.025.123.025h15.178c.552 0 1-.448 1-1s-.448-1-1-1h-15.178c-.191 0-.359.068-.511.161-.771-1.808-2.566-3.079-4.652-3.079h-7.164v-4.078c0-2.529.906-4.969 2.552-6.869 2.006-2.316 4.908-3.645 7.961-3.645h1.232l-2.003 2.34c-.199.232-.281.543-.221.844.059.3.252.557.525.697l5.505 2.822v6.677c0 .552.448 1 1 1s1-.448 1-1v-6.502l5.846-2.996c.272-.14.466-.396.525-.697.06-.3-.022-.611-.221-.844l-2.003-2.34h.669c1.098 0 2.166.165 3.178.483 1.687.531 3.218 1.488 4.472 2.819 1.847 1.958 2.864 4.519 2.864 7.212v4.867c-1.821 1.037-3.054 2.992-3.054 5.233 0 3.321 2.702 6.022 6.023 6.022s6.022-2.702 6.022-6.022-2.702-6.022-6.022-6.022c-.331 0-.653.034-.969.085zm-24.66 9.135c0 1.685-1.371 3.056-3.056 3.056h-13.877c-1.685 0-3.056-1.371-3.056-3.056s1.371-3.056 3.056-3.056h13.877c1.685-.001 3.056 1.37 3.056 3.056zm6.05-55.266c3.592 0 6.978 1.401 9.53 3.941 2.543 2.555 3.944 5.94 3.944 9.533v4.437c-.583-.423-1.26-.673-1.975-.742l-.014-5.617c0-.01.006-.019.006-.029 0-.057-.023-.106-.033-.16-.01-.063-.016-.127-.038-.186-.021-.055-.052-.1-.081-.15-.032-.056-.065-.109-.107-.158-.034-.039-.072-.071-.112-.104-.054-.045-.111-.084-.175-.117-.044-.023-.086-.043-.133-.06-.026-.009-.048-.026-.075-.034-3.227-.839-4.462-1.464-5.289-2.676-.188-.276-.473-.415-.836-.437-.334.003-.645.173-.827.454-1.984 3.038-10.686 2.963-13.874 2.677-.015-.001-.029.006-.043.005-.016-.001-.03-.009-.046-.009 0 0-.001 0-.002 0-.067 0-.125.026-.188.038-.053.011-.107.013-.158.032-.084.031-.155.081-.227.133-.032.023-.071.032-.101.059-.005.005-.007.013-.013.018-.073.07-.127.156-.176.246-.015.028-.04.049-.053.079-.053.122-.083.256-.083.397l.014 5.675c-.905.151-1.707.595-2.309 1.238v-5.011c0-7.427 6.045-13.472 13.474-13.472zm.281 38.839-.619-1.668-1.014-2.733v-2.414c.033.005.066.006.1.01.059.008.117.011.176.018.369.043.737.066 1.104.069.053.001.107.01.16.01.114 0 .216-.002.295-.007.009 0 .017.001.026 0h.01c.071.006.132.006.173.006.413 0 .821-.022 1.223-.066v2.373l-1.014 2.733zm2.202-9.005c-.082.024-.162.051-.297.077-.563.13-1.107.198-1.747.213-.06.006-.12.007-.179.007-.788-.002-1.574-.091-2.401-.293-.143-.031-.297-.072-.416-.106-2.855-.888-5.132-3.085-6.091-5.876-.336-.977-.507-1.997-.507-3.037l-.021-8.175c2.949.166 10.497.268 13.782-2.671 1.121 1.081 2.65 1.704 4.88 2.32l.013 5.068-.007.001.016 3.412v.003c0 .251-.01.502-.03.751v.001c-.013.163-.037.324-.058.486-.011.087-.018.175-.031.261-.005.031-.013.062-.019.093-.079.463-.19.921-.338 1.37-.995 3.016-3.428 5.29-6.549 6.095zm-13.367-6.545c-.412-.073-.791-.27-1.094-.57-.391-.389-.606-.904-.606-1.452 0-.918.599-1.702 1.422-1.981l.007 1.537c0 .375.024.748.061 1.12.011.111.027.22.041.331.035.273.08.545.135.814.014.066.019.134.034.201zm22.148-.207c.059-.289.108-.579.145-.871.013-.103.027-.206.037-.31.037-.374.062-.749.062-1.126 0-.001 0-.003 0-.004l-.004-1.6c.395.078.76.271 1.054.563.395.392.612.912.612 1.463 0 1.095-.86 1.999-1.937 2.073.014-.062.018-.126.031-.188zm-24.737 13.2v-12.248c.031.033.054.072.086.104.77.764 1.788 1.184 2.864 1.184.108.002.207-.014.31-.021.302.84 1.002 2.432 2.547 3.887 1.665 1.568 3.444 2.16 4.316 2.388v2.042h-2.405c-1.01-.055-2.795-.015-4.781.82-1.322.555-2.295 1.279-2.937 1.844zm10.775.277 1.146 3.086-2.633-1.349zm4.732 3.301 1.329-3.578 1.724 2.014zm4.059-6.243h-2.179v.001-2.126c.869-.219 2.897-.858 4.626-2.728 1.229-1.328 1.789-2.718 2.049-3.54.171.021.338.05.52.05.883-.006 1.696-.303 2.363-.787v11.53c-.598-.475-1.391-1.006-2.388-1.449-2.023-.899-3.878-.99-4.991-.951zm17.509 22.615c0 2.218-1.805 4.022-4.022 4.022-2.218 0-4.023-1.805-4.023-4.022s1.805-4.022 4.023-4.022c2.217-.001 4.022 1.804 4.022 4.022z"/><path d="m32.757 35.907c-1.047 1.486-3.423 1.192-3.448 1.188-.282-.039-.525.156-.562.429s.155.525.428.562c.034.004.285.037.66.037.96 0 2.733-.211 3.739-1.64.159-.226.105-.538-.121-.697s-.538-.104-.696.121z"/><path d="m40.536 47.471c-3.18-1.965-6.484-.088-6.622-.007-.239.138-.319.443-.182.682.138.239.443.319.683.183.029-.017 2.933-1.651 5.595-.008.082.051.172.075.262.075.167 0 .332-.084.426-.237.146-.235.073-.543-.162-.688z"/><path d="m44.1 44.603c0-.614-.738-1.94-1.055-2.482-.18-.307-.684-.307-.863 0-.317.542-1.055 1.868-1.055 2.482 0 .819.667 1.486 1.486 1.486s1.487-.667 1.487-1.486zm-1.487.486c-.268 0-.486-.218-.486-.486.004-.155.205-.635.486-1.188.281.552.482 1.032.486 1.188 0 .269-.218.486-.486.486z"/><path d="m31.563 42.121c-.317.542-1.055 1.868-1.055 2.482 0 .819.667 1.486 1.486 1.486s1.486-.667 1.486-1.486c0-.614-.738-1.94-1.055-2.482-.178-.307-.682-.307-.862 0zm.432 2.968c-.268 0-.486-.218-.486-.486.004-.155.205-.635.486-1.188.281.552.482 1.032.486 1.188 0 .269-.218.486-.486.486z"/><path d="m33.165 40.241c0-.646-.524-1.17-1.17-1.17s-1.17.524-1.17 1.17.524 1.17 1.17 1.17 1.17-.523 1.17-1.17z"/><path d="m43.604 38.123c.374 0 .625-.032.66-.037.273-.037.465-.289.428-.563-.038-.273-.284-.462-.563-.428-.024.003-2.394.307-3.446-1.188-.159-.226-.47-.28-.697-.121-.226.159-.28.471-.121.697 1.006 1.429 2.778 1.64 3.739 1.64z"/><path d="m40.273 40.241c0 .646.524 1.17 1.17 1.17s1.17-.524 1.17-1.17-.524-1.17-1.17-1.17-1.17.524-1.17 1.17z"/><path d="m37.174 44.644c.019.002.039.003.057.003.251 0 .467-.188.496-.443.031-.274-.166-.522-.44-.553-.322-.037-.441-.182-.509-.304-.476-.856.302-3.188.904-4.456.118-.249.012-.547-.237-.666-.25-.117-.547-.012-.666.237-.182.383-1.753 3.788-.875 5.371.259.465.698.746 1.27.811z"/></g></svg>