<svg id="Capa_1" enable-background="new 0 0 117.836 121.248" height="512" viewBox="0 0 117.836 121.248" width="512" xmlns="http://www.w3.org/2000/svg"><path d="m106.775 116.599c1.504-1.686 2.397-3.905 2.314-6.409-.14-4.61-.72-8.49-1.56-11.77-3.95-15.32-13.83-17.33-13.83-17.33l-.29-.34c-.8.69-1.67 1.3-2.59 1.83l-21.021.38-.029-.05s-3.34.26-7.19 4.18c-1.4 1.42-2.87 3.33-4.27 5.89l3.36 24.02.75.12z" fill="#f7bd76"/><path d="m100.919 37.83c-4.08-4.08-9.72-6.61-15.95-6.61-12.45 0-22.56 10.09-22.56 22.56v33.14l.17.17c2.406-2.45 4.613-3.47 5.93-3.891 0 0 .32-.088.893-.232.235-.046.367-.057.367-.057l-.018-.03c4.001-.985 16.798-3.792 24.704-1.567 2.38.821 9.783 4.343 13.073 17.107v-44.64c.001-6.23-2.529-11.87-6.609-15.95z" fill="#7c86bb"/><path d="m90.819 82.58c1.33 3.55-4.34 7.66-4.58 7.28l-2.35-3.67c.32-.49.57-1.02.74-1.58 2.23-.26 4.32-.96 6.19-2.03z" fill="#d1d1d3"/><path d="m59.018 107.922c-.401-.401-.401-1.051 0-1.452l6.744-6.744c.401-.401 1.051-.401 1.452 0 .401.401.401 1.051 0 1.452l-6.744 6.744c-.4.401-1.05.401-1.452 0z" fill="#f4c676"/><path d="m61.669 117h-51.23s0 0-.24-.73h-.06c-.01-.19 0-.38-.01-.57-.1-.9-.1-1.88-.01-2.93.16-9.41 2.14-15.94 4.65-20.44 2.17-3.91 4.75-6.29 6.87-7.72l26.52-2.58.58.31c3.28 1.22 7.45 3.86 9.39 9.61.11.32.17.67.18 1.01v.02z" fill="#202a42"/><path d="m48.619 82.29c-.951-.733-3.807-.948-4.359-.984-.032-.002-.038-.003-.054-.003-.029-.002-.047-.003-.047-.003l-2.58-.45-12.695.45-4.137 1.657c-.045.017-.09.036-.137.055l-.128.051s-.393.14-1.106.516c-.09.046-.186.102-.279.152-.094.052-.185.101-.288.16-.372.21-.758.441-1.17.719 0 0 .014.058.044.162 1.969 8.219 12.681 6.633 19.203 4.783.74-.174 1.631-.431 2.548-.796.031-.011.066-.022.097-.033 5.73-1.978 5.67-6.374 5.088-6.436z" fill="#d1d1d3"/><path d="m50.709 40.93c-4.58-8.73-17.23-11.78-26.28-9.74-.01 0-16.27 3.66-18.53 21.17-1.9 14.89 3.26 18.61 12.15 24.11.801.493 1.634 1.002 2.495 1.536.816.506 1.659 1.035 2.525 1.594-.086-.086-.161-.182-.244-.27.183.144.363.291.531.453.367.352.693.751 1.1 1.056.915.687 2.122.824 3.265.85 4.364.099 9.075-1.324 11.566-4.908.838-1.206 1.381-2.587 1.916-3.954 1.557-3.976 3.114-7.953 4.671-11.929.158-.403.32-.813.589-1.152.432-.542 1.088-.844 1.654-1.244 2.293-1.621 3.21-4.278 3.054-6.945 3.09-2.431 1.021-7.806-.462-10.627z" fill="#7c86bb"/><path d="m40.679 46.8s-11.98 11.91-22.39 11.23v2.24 7.8c0 4.49 1.84 8.58 4.78 11.53.01.01.02.01.03.02.21.21.425.413.644.611.206.185.427.352.642.527l-.002.018s.157.134.45.349c.059.044.12.086.18.129.127.09.274.19.436.297.219.15.432.309.66.449.004-.01.009-.019.012-.029 3.148 1.87 10.207 4.73 18.07-.728l-.032.057c.203-.146.402-.297.597-.451 3.77-2.987 6.193-7.616 6.193-12.779v-16.33c-4.7 3.24-10.03-4.59-10.27-4.94z" fill="#dedee0"/><path d="m99.109 60.58c2.72 0 4.92 2.2 4.92 4.92s-2.2 4.92-4.92 4.92v-2.03z" fill="#dedee0"/><path d="m86.938 51.402c-1.82 3.42-9.58 2.93-9.58 2.93s.64-1.08.54-3.91c-4.99 3.33-11.02 1.9-11.02 1.9v16.33c0 .617.035 1.226.104 1.827.053.464.117.923.212 1.381.215 1.043.532 2.065.938 3.049.553 1.341 1.278 2.612 2.17 3.757 1.082 1.389 2.409 2.579 3.906 3.506 1.875 1.161 3.985 1.897 6.149 2.296.78.144 1.567.245 2.357.31.672.055 1.381.15 2.072.128.692-.022 1.38-.205 2.053-.357.53-.12 1.054-.266 1.57-.438.984-.328 1.941-.75 2.84-1.268.92-.53 1.79-1.14 2.59-1.83.31-.26.6-.54.89-.82.01-.01.02-.01.03-.02 2.94-2.95 4.78-7.03 4.78-11.52v-7.81-2.24c-9.491-.721-9.501-5.931-12.601-7.201z" fill="#dedee0"/><path d="m82.35 57.905c-.244.13-.336.433-.207.676.13.244.433.337.676.207 3.58-1.906 5.237 1.039 5.306 1.166.091.167.263.261.44.261.08 0 .161-.019.237-.06.242-.131.333-.432.204-.675-.021-.041-2.186-3.956-6.656-1.575z" fill="#2c3656"/><path d="m68.511 57.371c-.226.159-.279.471-.12.697.159.225.471.28.697.12 3.312-2.339 5.327.372 5.41.489.098.136.251.208.407.208.101 0 .202-.03.29-.093.224-.16.276-.471.117-.695-.025-.039-2.663-3.652-6.801-.726z" fill="#2c3656"/><path d="m87.17 62.57c-.202-.514-.781-.768-1.296-.566l-4.766 1.867c-.346.136-.588.452-.629.821s.126.731.435.938l4.766 3.217c.171.116.366.171.559.171.321 0 .637-.154.83-.44.309-.458.188-1.08-.269-1.388l-3.188-2.152 2.993-1.172c.512-.202.766-.782.565-1.296z" fill="#2c3656"/><path d="m73.954 62.523-3.927-2.304c-.475-.28-1.089-.12-1.368.356-.28.476-.12 1.089.356 1.368l2.285 1.341-2.91 1.357c-.5.233-.717.829-.483 1.329.166.354.512.563.878.573-.003.001-.007.003-.01.005.133-.003.357-.046.74-.225l4.356-2.032c.337-.157.559-.488.576-.859s-.172-.721-.493-.909z" fill="#2c3656"/><path d="m89.269 94.59-3.03-4.73-2.35-3.67c.32-.49.57-1.02.74-1.58.54-1.68.39-3.57-.57-5.21l-4.03-6.91c-.39-.69-1.26-.91-1.93-.51-.34.2-.55.51-.65.84-.1.34-.05.72.12 1.05l-.21-.36-2.71-4.67c-.4-.67-1.26-.9-1.92-.51-.35.19-.58.52-.67.86-.08.34-.05.71.13 1.02l-1.26-2.15c-.39-.68-1.27-.9-1.93-.52-.34.2-.57.51-.66.86s-.05.74.15 1.08l1.23 2.15c-.39-.62-1.22-.83-1.89-.46-.33.19-.55.52-.65.87-.09.35-.05.73.15 1.06l4.05 6.95-2.39-4.07c-.22-.38-.58-.62-.99-.68-.31-.06-.65-.01-.94.17-.34.18-.54.51-.64.86-.09.34-.06.73.14 1.06l2.94 5.06.27.46 1.25 2.14 1.06 1.83c1.16 1.98 3.3 3.07 5.45 2.98l2.49 4.25 6.52 11.16 6.82-4.27z" fill="#e5e5e5"/><path d="m51.999 1c3.24 0 6.18 1.33 8.31 3.48-5.06 1.31-8.82 5.92-8.82 11.36 0 2.87 1.05 5.51 2.79 7.56.2.23.4.45.61.67-.93.23-1.89.36-2.89.36h-1.05l-4.55 8.03-1.07-8.03h-17.78c-6.45 0-11.72-5.27-11.72-11.71 0-6.45 5.27-11.72 11.72-11.72h24.45z" fill="#8087a0"/><path d="m18.289 68.07v2.04c-2.72 0-4.92-2.21-4.92-4.92 0-2.72 2.2-4.92 4.92-4.92z" fill="#dedee0"/><path d="" fill="#202a42"/><path d="m29.239 99.96c.79.45 1.52.81 2.13 1.05-4.39 6.5-6.98 12.13-9.88 15.59-2.07 2.48-4.3 3.84-7.44 3.62-.06 0-.11-.01-.16-.02-.02.01-.03 0-.03 0-2.29-.24-3.44-1.92-3.63-4.42-.42-5.46 3.75-14.83 10.78-21.67 0 0 .54.44 1.39 1.1 1.66 1.27 4.49 3.38 6.84 4.75z" fill="#2c3656"/><path d="m51.199 103.02v13.98h-2v-13.98c0-.55.45-1 1-1s1 .45 1 1z" fill="#151e30"/><path d="m19.17 76.007c-.328.178-2.769.247-2.769.247-3.083-.256-9.731.696-12.013 12.955-2.77 14.93-3.31 16.37-3.38 16.51.36-.18 8.62-4.41 13.5-13.53 1.723-3.223 3.012-7.062 3.398-11.541.387-1.633 1.546-4.794 1.264-4.641z" fill="#7c86bb"/><path d="m35.048 57.592c-4.472-2.381-6.634 1.535-6.656 1.575-.13.243-.039.546.205.677.075.04.156.059.235.059.179 0 .351-.096.441-.264.068-.126 1.703-3.082 5.305-1.164.244.13.546.038.676-.207.13-.244.038-.546-.206-.676z" fill="#2c3656"/><circle cx="32.753" cy="61.779" fill="#2c3656" r="1.867"/><path d="m41.88 58.283c-.175.214-.144.529.069.704.093.076.206.113.317.113.145 0 .288-.062.387-.183.091-.112 2.269-2.692 5.43-.112.213.175.528.143.703-.071s.143-.529-.071-.703c-3.923-3.203-6.806.217-6.835.252z" fill="#2c3656"/><circle cx="45.333" cy="61.552" fill="#2c3656" r="1.867"/><path d="m41.24 67.183-1.129-3.762s-.43-.777.207-.959.581.217.83.959 1.083 3.599 1.083 3.599z" fill="#2c3656"/><path d="m74.64 69.08 1.78-5.74s.08-.885.709-.678c.629.206.36.506.15 1.26s-1.726 5.578-1.726 5.578z" fill="#2c3656"/><path d="m105.169 118.04-.01.01c-1.44 1.02-3.19 1.67-5.08 1.82-3.89.32-6.77-.38-9.14-2.75-.63-.63-1.22-1.39-1.79-2.28-1.72-2.67-3.04-5.66-4.07-8.66l1.46-.91 6.82-4.27 2.63-1.48s14.19 13.65 9.18 18.52z" fill="#f4c676"/><path d="m33.629 92.45-4.39 7.51c-2.35-1.37-5.18-3.48-6.84-4.75l3.51-5.48.82-1.28c-1.12-1.72-1.44-3.87-.82-5.87.06-.2.13-.39.2-.58.12-.31.26-.61.44-.91l4.37-7.51c.43-.73 1.36-.99 2.1-.55.36.21.6.56.7.92.11.37.06.77-.12 1.13l.23-.39 2.93-5.07c.44-.72 1.37-.98 2.1-.55.36.2.62.56.71.94.1.36.07.76-.13 1.1l1.36-2.34c.26-.44.7-.7 1.17-.75.32-.04.64.02.93.19.38.22.63.55.72.93.09.39.04.81-.17 1.17l-1.39 2.4c.42-.72 1.36-.98 2.1-.55.37.2.62.55.71.94.1.37.07.79-.15 1.14l-4.67 8.01 2.86-4.87c.42-.73 1.36-1 2.09-.57.36.21.6.56.71.94.09.37.06.8-.16 1.15l-1.39 2.4-1.8 3.1-1.64 2.82-1.16 1.99c-.14.24-.29.47-.46.68-1.32 1.73-3.38 2.64-5.46 2.55z" fill="#e5e5e5"/><path d="m22.318 9.735c0 .552.448 1 1 1h29.501c.552 0 1-.448 1-1s-.448-1-1-1h-29.501c-.552 0-1 .448-1 1z" fill="#2c3656"/><path d="m23.318 17.184h22.438c.552 0 1-.448 1-1s-.448-1-1-1h-22.438c-.552 0-1 .448-1 1s.448 1 1 1z" fill="#2c3656"/><path d="m111.912 99.986c-.18 0-.362-.048-.526-.15-.469-.291-.614-.908-.322-1.377 1.632-2.63 1.436-6.024-.489-8.446-.344-.432-.272-1.062.161-1.405.431-.344 1.061-.272 1.405.161 2.449 3.081 2.699 7.399.623 10.745-.191.304-.517.472-.852.472z" fill="#2c3656"/><path d="m115.916 99.239c-.163 0-.328-.04-.48-.124-.484-.266-.661-.874-.395-1.358 1.312-2.386.981-5.357-.822-7.395-.366-.413-.328-1.045.086-1.411.414-.365 1.047-.328 1.411.086 2.362 2.668 2.795 6.559 1.078 9.683-.183.332-.525.519-.878.519z" fill="#2c3656"/><path d="m53.091 73.986c-.404 0-.784-.247-.936-.647-.195-.517.065-1.093.582-1.289l5.411-2.043c.515-.194 1.093.065 1.289.583.195.517-.065 1.093-.582 1.289l-5.411 2.043c-.116.043-.235.064-.353.064z" fill="#2c3656"/><path d="m58.681 77.131c-.025 0-.051-.001-.077-.003l-5.767-.44c-.551-.042-.963-.522-.921-1.073s.52-.969 1.073-.921l5.767.44c.551.042.963.522.921 1.073-.04.525-.479.924-.996.924z" fill="#2c3656"/><path d="m95.929 7.57c2.12 2.12 3.44 5.05 3.44 8.27 0 6.45-5.27 11.72-11.72 11.72h-20.09l1.05 5.75-7.47-5.94c-2.42-.44-4.59-1.62-6.25-3.3-.21-.22-.41-.44-.61-.67-1.74-2.05-2.79-4.69-2.79-7.56 0-5.44 3.76-10.05 8.82-11.36.93-.23 1.9-.36 2.9-.36h24.44c3.23 0 6.15 1.32 8.28 3.45z" fill="#a7b4cc"/><path d="m86.443 18.715c0 .552.448 1 1 1h5.914c.552 0 1-.448 1-1s-.448-1-1-1h-5.914c-.552 0-1 .448-1 1z" fill="#2c3656"/><path d="m59.397 13.184c0 .552.448 1 1 1h29.501c.552 0 1-.448 1-1s-.448-1-1-1h-29.501c-.553 0-1 .448-1 1z" fill="#2c3656"/><path d="m83.273 17.715h-22.876c-.552 0-1 .448-1 1s.448 1 1 1h22.876c.552 0 1-.448 1-1s-.448-1-1-1z" fill="#2c3656"/><g fill="#18273d"><path d="m35.048 57.592c-4.472-2.381-6.634 1.535-6.656 1.575-.13.243-.039.546.205.677.075.04.156.059.235.059.179 0 .351-.096.441-.264.068-.126 1.703-3.082 5.305-1.164.244.13.546.038.676-.207.13-.244.038-.546-.206-.676z"/><circle cx="32.753" cy="61.779" r="1.867"/><path d="m41.88 58.283c-.175.214-.144.529.069.704.093.076.206.113.317.113.145 0 .288-.062.387-.183.091-.112 2.269-2.692 5.43-.112.213.175.528.143.703-.071s.143-.529-.071-.703c-3.923-3.203-6.806.217-6.835.252z"/><circle cx="45.333" cy="61.552" r="1.867"/><path d="m82.35 57.905c-.244.13-.336.433-.207.676.13.244.433.337.676.207 3.58-1.906 5.237 1.039 5.306 1.166.091.167.263.261.44.261.08 0 .161-.019.237-.06.242-.131.333-.432.204-.675-.021-.041-2.186-3.956-6.656-1.575z"/><path d="m68.511 57.371c-.226.159-.279.471-.12.697.159.225.471.28.697.12 3.312-2.339 5.327.372 5.41.489.098.136.251.208.407.208.101 0 .202-.03.29-.093.224-.16.276-.471.117-.695-.025-.039-2.663-3.652-6.801-.726z"/><path d="m108.525 98.274v-44.493c0-6.293-2.451-12.21-6.902-16.66-4.45-4.451-10.363-6.902-16.649-6.902-12.992 0-23.562 10.57-23.562 23.562v33.086c-.917.99-1.85 2.18-2.77 3.606-2.832-6.824-8.834-9.083-12.14-9.819 3.441-3.254 5.446-7.81 5.446-12.58v-15.859c3.614-3.065.996-9.185-.351-11.75-4.761-9.067-17.922-12.384-27.38-10.254-.169.037-16.971 3.893-19.305 22.026-1.74 13.567 2.432 18.394 9.444 23.062-1.201.142-2.564.512-3.939 1.325-3.507 2.073-5.865 6.246-7.007 12.402-2.573 13.868-3.209 15.982-3.306 16.257-.155.313-.14.697.066 1.002.191.285.507.442.831.442.15 0 .301-.034.443-.104.095-.047 4.957-2.526 9.546-7.74-1.296 4.54-2.063 10.237-1.853 17.416.048 1.125.769 2.977 1.881 4.026.625.588 1.478.893 2.484.893.107 0 .217-.007.327-.014.056.009.116.019.154.017.245.017.485.025.72.025 5.699 0 8.584-4.917 12.517-11.619 1.42-2.42 3.029-5.164 4.981-8.055.17-.252.216-.567.126-.857s-.308-.523-.591-.634c-.322-.125-.702-.307-1.107-.513l3.583-6.128c2.099-.085 4.038-1.045 5.393-2.615 1.829-.277 9.238-1.735 9.762-7.177 2.88 1.278 6.184 3.762 7.818 8.619.073.215.114.465.122.722.001.038.004.075.009.111l3.359 24.033c.07.5.498.862.989.862.046 0 .093-.003.14-.01.547-.076.929-.582.852-1.128l-1.364-9.757 5.792-5.91c.386-.394.38-1.027-.014-1.414-.395-.386-1.028-.38-1.415.015l-4.713 4.809-1.596-11.419c3.925-7.005 8.351-8.748 9.918-9.154l1.952 3.354c1.21 2.071 3.37 3.366 5.738 3.478l8.231 14.078-.635.394c-.021.013-.031.034-.051.048-.069.049-.126.105-.179.168-.031.037-.061.073-.086.114-.041.067-.07.137-.095.212-.016.048-.03.094-.038.144-.012.073-.013.145-.008.22.003.058.009.113.023.171.008.032.002.065.013.097 1.175 3.397 2.58 6.384 4.176 8.877 2.457 3.839 5.543 5.558 10.127 5.558.554 0 1.131-.025 1.731-.075 5.84-.483 10.109-5.087 9.929-10.71-.149-4.636-.725-8.552-1.567-11.881zm-89.235-30.202v-7.808-1.208c8.938-.079 18.4-8.137 21.248-10.762 1.215 1.563 3.872 4.535 6.903 5.125.333.065.66.091.983.097.052.001.105.004.157.003.311-.003.616-.035.915-.094.052-.01.103-.023.155-.035.099-.023.199-.039.297-.067v14.751c0 3.444-1.181 6.764-3.271 9.434-.001-.006-.003-.011-.004-.017-.18-.667-.6-1.216-1.17-1.541-.158-.093-.324-.167-.494-.223l.558-.958c.347-.561.445-1.242.278-1.911-.161-.66-.593-1.232-1.182-1.569-.16-.092-.326-.165-.495-.219l.148-.256c.333-.567.434-1.264.275-1.919-.163-.648-.584-1.198-1.189-1.551-.368-.214-.769-.311-1.168-.326-.546-2.054-1.272-4.219-1.28-4.244-.088-.261-.372-.401-.633-.315-.262.088-.403.372-.315.633.008.024.703 2.098 1.236 4.088-.528.2-.998.564-1.305 1.089l-.142.245c-.131-.12-.275-.225-.43-.313-1.183-.693-2.735-.292-3.47.916l-1.945 3.365c-.128-.118-.268-.223-.417-.311-.586-.346-1.268-.445-1.922-.275-.654.169-1.205.586-1.55 1.176l-4.343 7.463c-1.067-.689-2.507-1.816-3.767-3.562-2.598-3.601-2.699-7.437-2.661-8.901zm2.862 25.675c-.318-.25-.516-.41-.519-.412-.394-.318-.963-.292-1.326.061-3.645 3.547-6.694 7.972-8.674 12.269 1.5-11.117 5.922-16.733 9.498-19.51.514 1.16 1.525 2.827 3.35 3.949zm3.387-5.34c-1.587-.978-2.387-2.55-2.723-3.413.685-.411 1.296-.708 1.808-.925-.11 1.494.198 2.996.915 4.338zm-8.249-20.333v.903c-1.679-.443-2.92-1.975-2.92-3.791s1.241-3.348 2.92-3.791zm-10.395-15.583c2.135-16.592 17.117-20.183 17.753-20.327 1.731-.389 3.594-.585 5.502-.585 7.732 0 16.21 3.217 19.676 9.817.897 1.71 3.591 7.45.557 9.524 0 0-.001.001-.002.001-.592.407-1.21.607-1.874.606-.222 0-.448-.023-.681-.068-3.241-.629-6.288-5.178-6.318-5.224-.166-.25-.435-.413-.733-.443-.299-.032-.594.075-.807.286-.117.116-11.771 11.602-21.614 10.955-.273-.018-.547.08-.749.268-.202.189-.316.454-.316.73v1.327c-2.789.477-4.92 2.906-4.92 5.829 0 3.013 2.264 5.503 5.18 5.869.018.104.039.207.059.311.017.09.038.178.057.267.098.47.212.935.349 1.393.01.033.017.067.028.1.146.477.317.945.504 1.407.037.092.074.185.113.276.172.405.354.807.557 1.199-9.169-5.651-14.194-8.91-12.321-23.518zm-4.322 51.129c.519-2.28 1.362-6.463 2.803-14.228 1.029-5.544 3.057-9.255 6.028-11.029 1.511-.902 3.031-1.135 4.199-1.135.575 0 1.065.057 1.425.118.253 14.894-10.001 23.322-14.455 26.274zm16.454-25.378c1.106.682 2.252 1.393 3.453 2.167.59.582 1.234 1.107 1.902 1.602-1.47.559-3.957 1.803-6.506 4.374.694-2.473 1.12-5.181 1.151-8.143zm-7.801 37.456c-.362-4.739 3.218-13.484 9.854-20.252.202.158.442.345.714.554 2.79 2.141 5.126 3.763 6.944 4.821h.001c.002.001.003.002.005.003.402.23.783.435 1.141.614-1.693 2.58-3.117 5.008-4.391 7.178-4.008 6.83-6.422 10.955-11.418 10.606-.377-.114-1.028-.369-1.63-.95-1.017-.981-1.184-2.204-1.22-2.574zm22.451-24.255c-.003 0-.005.001-.008.001-.249-.034-1.516-.246-2.714-1.2-.432-.344-1.061-.272-1.405.16s-.272 1.062.16 1.405c.837.666 1.69 1.055 2.384 1.291l-3.202 5.476c-.047-.03-5.113-3.579-5.147-3.605l3.825-5.977c.211-.331.21-.754-.003-1.083-.974-1.503-1.229-3.338-.685-5.082.042-.16.103-.311.169-.482.092-.251.211-.498.364-.75l4.373-7.514c.073-.125.188-.214.324-.249.097-.024.243-.035.404.062.113.066.205.19.245.332.035.122.018.262-.047.384-.001.002-.004.004-.005.006l-1.671 2.862c-.278.477-.117 1.089.359 1.368.159.092.332.136.503.136.344 0 .679-.177.865-.496l1.685-2.887.004-.007c.001-.002.003-.003.004-.004l3.158-5.451c.16-.262.491-.356.748-.205.113.065.204.185.245.347.024.085.039.212-.03.333-.001.001 0 .002-.001.003l-.2.341c-.001.001-.001.003-.001.004l-4.595 7.891c-.278.477-.116 1.089.361 1.367.158.092.331.136.502.136.344 0 .68-.178.865-.497l4.796-8.235c.001-.003.001-.005.003-.008 0-.001.001-.001.002-.002l1.355-2.335c.15-.254.486-.346.731-.205.134.078.224.188.253.301.035.146.014.306-.061.433l-1.385 2.396-.001.001-4.889 8.383c-.278.477-.117 1.089.36 1.368.159.092.332.136.503.136.344 0 .679-.178.865-.496l4.888-8.382c0-.001.001-.001.001-.001.147-.252.477-.337.737-.187.118.067.204.18.236.314.021.085.045.248-.05.403l-4.657 7.99c-.001.002-.004.003-.005.006l-.144.24c-.284.474-.131 1.088.342 1.373.161.097.339.143.514.143.339 0 .67-.173.858-.485l.144-.24c0-.001 0-.001.001-.002.002-.003.004-.004.006-.007l2.867-4.886c.07-.123.186-.211.324-.248.078-.021.232-.042.401.057.146.084.211.227.237.32.027.106.031.259-.054.398l-5.99 10.301c-1.041 1.773-2.967 2.832-5.021 2.74zm13.722-8.509c.071 3.32-3.733 4.863-6.25 5.523l3.55-6.105c.579.067 1.547.225 2.702.569.001.005-.002.009-.002.013zm16.013 2.036v-31.189c0-11.889 9.673-21.562 21.562-21.562 5.752 0 11.163 2.243 15.235 6.316s6.316 9.487 6.316 15.246v38.605c-3.607-8.145-8.954-10.991-11.373-11.894 2.485-2.542 4.091-5.703 4.686-9.123 2.921-.361 5.191-2.853 5.191-5.871 0-2.922-2.131-5.351-4.919-5.829v-1.327c0-.523-.403-.958-.924-.997-5.985-.455-7.817-2.682-9.433-4.647-.836-1.016-1.625-1.976-2.864-2.485-.477-.198-1.022.001-1.263.456-1.026 1.935-4.92 2.398-7.354 2.431.14-.706.243-1.684.195-2.98-.014-.362-.222-.688-.544-.853-.322-.166-.709-.143-1.01.058-4.553 3.039-10.175 1.772-10.23 1.759-.3-.071-.611 0-.85.19-.239.189-.379.478-.379.783v16.329c0 2.143.408 4.212 1.17 6.181-.017.01-.037.016-.054.026-.546.307-.942.833-1.11 1.468-.177.63-.087 1.303.234 1.827l2.534 4.354c-1.153.363-2.875 1.13-4.816 2.728zm23.204 3.63-1.554-2.431c.116-.217.217-.438.309-.662 1.592-.243 3.143-.707 4.604-1.38-.05.321-.144.656-.306 1.01-.707 1.542-2.219 2.874-3.053 3.463zm-.716-5.206c.035-.346.036-.691.023-1.036-.003-.086-.008-.17-.015-.256-.026-.342-.066-.683-.139-1.019 0-.002 0-.004-.001-.005-.073-.337-.179-.667-.299-.993-.03-.081-.061-.161-.094-.242-.132-.323-.279-.64-.457-.945l-4.022-6.896c-.079-.142-.171-.273-.274-.393-.309-.361-.718-.619-1.186-.745-.188-.05-.377-.07-.566-.075-.02 0-.039-.008-.059-.008-.034 0-.067.012-.101.014-.144.006-.285.025-.425.057-.052.012-.103.022-.154.037-.182.055-.36.125-.526.224-.122.07-.236.149-.342.238l-1.524-2.627c.085-.067.149-.161.176-.275.532-2.217 1.47-5.013 1.479-5.042.088-.262-.053-.545-.315-.633-.26-.086-.545.054-.633.315-.009.027-.845 2.518-1.396 4.691-.292-.267-.64-.468-1.035-.567-.621-.155-1.261-.061-1.768.245-.13.071-.253.155-.367.249l-.086-.148c-.328-.561-.856-.96-1.487-1.125-.299-.078-.603-.095-.898-.06l4.462-2.082c.337-.157.559-.488.576-.859s-.172-.721-.493-.909l-3.927-2.304c-.475-.28-1.089-.12-1.368.356-.28.476-.12 1.089.356 1.368l2.285 1.341-2.91 1.357c-.5.233-.717.829-.483 1.329.166.354.512.563.878.573-.096.04-.194.078-.285.131-.133.077-.255.167-.37.265-.038.033-.07.069-.106.104-.073.07-.142.142-.205.219-.035.044-.066.09-.098.136-.053.076-.102.154-.145.235-.027.05-.051.1-.073.152-.016.036-.038.07-.052.107v-14.655c1.842.225 5.466.354 8.976-1.338-.111 1.163-.363 1.661-.362 1.661-.179.299-.188.67-.026.979.163.308.474.51.822.532.792.05 7.296.363 9.936-2.61.474.37.906.895 1.411 1.509 1.605 1.952 3.778 4.592 9.902 5.284v1.318c0 .003-.001.005-.001.007v7.838c-.008 4.028-1.575 7.829-4.433 10.734-.03.024-.059.049-.084.075-2.119 2.109-4.81 3.56-7.692 4.167zm-18.343-13.199c-.017-.141-.031-.281-.044-.423.033.072.069.142.109.211l.087.151c-.051.019-.101.039-.152.061zm32.551-1.778c0-.01.001-.02.001-.03v-6.678c1.678.443 2.919 1.975 2.919 3.79 0 1.816-1.241 3.348-2.92 3.791zm-27.165 17.957-5.534-9.509c-.041-.065-.051-.173-.022-.276.019-.07.065-.197.19-.268.087-.053.17-.052.268-.034.119.019.218.087.282.197l2.391 4.072c.278.476.891.635 1.367.357.476-.279.637-.89.359-1.367l-4.063-6.973c-.046-.076-.059-.176-.032-.275.015-.055.061-.189.17-.251.053-.029.108-.047.163-.055.11-.015.219.011.305.074.022.016.038.042.057.063.018.02.039.035.053.059.005.009.015.014.02.023l4.49 7.699c.186.318.521.496.865.496.171 0 .344-.044.503-.136.477-.278.638-.891.36-1.368l-4.502-7.72c-.005-.009-.015-.014-.02-.022l-1.257-2.174c-.076-.131-.067-.252-.041-.351.021-.087.089-.17.192-.229.115-.069.235-.052.296-.035.065.017.188.066.265.198l1.25 2.146c.002.004.002.009.004.013l4.417 7.584c.186.319.521.497.865.497.171 0 .344-.043.502-.136.478-.278.639-.89.361-1.367l-4.232-7.269c-.001-.001-.001-.002-.001-.003l-.175-.299c-.002-.004-.002-.008-.004-.011-.042-.073-.051-.184-.03-.268.028-.104.097-.194.219-.262.112-.067.227-.054.285-.039.064.016.183.063.256.186l2.926 5.038c.007.012.019.018.026.03l-.01.007 1.539 2.635c.186.318.521.496.865.496.171 0 .345-.044.503-.136.477-.279.638-.891.359-1.368l-1.54-2.638c-.002-.004-.002-.009-.004-.013-.056-.101-.06-.219-.047-.264.061-.196.167-.257.214-.284.126-.075.245-.059.304-.043.07.019.167.066.242.199l4.031 6.913c.098.167.186.337.264.512.55 1.22.633 2.609.215 3.904-.139.461-.347.904-.619 1.315-.217.33-.22.757-.007 1.09l8.926 13.964-5.089 3.188-7.818-13.372c.631-.223 1.387-.579 2.13-1.17.432-.344.504-.973.16-1.405-.343-.433-.973-.503-1.405-.16-1.141.907-2.346 1.074-2.483 1.091-1.842.052-3.588-.894-4.524-2.496zm27.055 32.499c-4.84.4-7.648-.879-10.008-4.568-1.391-2.174-2.626-4.774-3.69-7.704l.768-.477c.001 0 .001-.001.001-.001s.001 0 .002-.001l6.817-4.271h.001l.091-.057 2.428 2.782-.096 2.569c-.021.552.41 1.016.962 1.037h.038c.535 0 .979-.423.999-.962l.231-6.171c.021-.552-.41-1.016-.962-1.037-.539-.027-1.016.41-1.037.962l-.026.687-1.592-1.824c-.317-.363-.843-.442-1.257-.201l-5.975-9.348c1.675-1.154 4.768-4.138 4.271-7.242.497-.312.978-.65 1.443-1.012.034.011.06.033.096.041.138.028 13.787 3.094 14.589 28.149.146 4.536-3.334 8.255-8.094 8.649z"/><path d="m50.201 102.019c-.552 0-1 .448-1 1v13.978c0 .552.448 1 1 1s1-.448 1-1v-13.978c0-.552-.448-1-1-1z"/><path d="m87.17 62.57c-.202-.514-.781-.768-1.296-.566l-4.766 1.867c-.346.136-.588.452-.629.821s.126.731.435.938l4.766 3.217c.171.116.366.171.559.171.321 0 .637-.154.83-.44.309-.458.188-1.08-.269-1.388l-3.188-2.152 2.993-1.172c.512-.202.766-.782.565-1.296z"/><path d="m27.548 25.43h16.905l.954 7.162c.057.426.379.768.801.85.064.012.127.018.191.018.355 0 .69-.189.87-.507l4.263-7.523h.467c.85 0 1.713-.111 2.574-.286 1.723 1.603 3.826 2.694 6.136 3.161l7.277 5.787c.181.144.401.217.623.217.177 0 .355-.047.514-.142.357-.214.544-.627.47-1.038l-.834-4.57h18.891c7.014 0 12.72-5.706 12.72-12.72 0-3.381-1.326-6.569-3.733-8.977-2.415-2.413-5.607-3.742-8.988-3.742h-24.44c-.855 0-1.723.111-2.592.288-2.362-2.194-5.396-3.408-8.618-3.408h-24.45c-7.014 0-12.72 5.706-12.72 12.72 0 7.009 5.706 12.71 12.719 12.71zm24.98-10.497c.382-4.5 3.575-8.327 8.027-9.482.885-.218 1.778-.33 2.654-.33h24.44v-.001c2.847 0 5.537 1.121 7.573 3.157 2.029 2.03 3.147 4.716 3.147 7.563 0 5.911-4.809 10.72-10.72 10.72h-20.09c-.297 0-.578.132-.768.359-.19.228-.269.528-.216.82l.572 3.13-5.385-4.282c-.129-.103-.282-.172-.444-.201-2.181-.396-4.158-1.44-5.705-3.006-.663-.636-1.876-1.969-2.591-4.048-.645-1.876-.59-3.504-.494-4.399zm.173-6.249h-29.383c-.552 0-1 .448-1 1s.448 1 1 1h28.266c-.474 1.019-1.338 3.237-1.117 6.126.252 3.285 1.763 5.549 2.436 6.445.031.043.057.088.089.13-.33.031-.66.046-.992.046h-1.05c-.36 0-.692.194-.87.507l-3.082 5.439-.677-5.078c-.066-.497-.49-.868-.991-.868h-17.78c-5.911 0-10.72-4.805-10.72-10.71-.001-5.912 4.808-10.721 10.718-10.721h24.45c2.308 0 4.507.733 6.338 2.09-.836.29-2.127.855-3.418 1.959-1.097.939-1.796 1.927-2.217 2.635z"/><path d="m59.397 13.184c0 .552.448 1 1 1h29.501c.552 0 1-.448 1-1s-.448-1-1-1h-29.501c-.553 0-1 .448-1 1z"/><path d="m23.318 17.184h22.438c.552 0 1-.448 1-1s-.448-1-1-1h-22.438c-.552 0-1 .448-1 1s.448 1 1 1z"/><path d="m83.273 17.715h-22.876c-.552 0-1 .448-1 1s.448 1 1 1h22.876c.552 0 1-.448 1-1s-.448-1-1-1z"/><path d="m86.443 18.715c0 .552.448 1 1 1h5.914c.552 0 1-.448 1-1s-.448-1-1-1h-5.914c-.552 0-1 .448-1 1z"/></g></svg>