<?xml version="1.0" encoding="iso-8859-1"?>
<!-- Generator: Adobe Illustrator 21.0.0, SVG Export Plug-In . SVG Version: 6.00 Build 0)  -->
<svg version="1.1" id="Capa_1" xmlns="http://www.w3.org/2000/svg" xmlns:xlink="http://www.w3.org/1999/xlink" x="0px" y="0px"
	 viewBox="0 0 512 512" style="enable-background:new 0 0 512 512;" xml:space="preserve">
<g>
	<path style="fill:#C03A2B;" d="M256,132.267H8.533c-4.713,0-8.533,3.82-8.533,8.533s3.821,8.533,8.533,8.533h8.533v34.133
		c0,4.713,3.821,8.533,8.533,8.533s8.533-3.821,8.533-8.533v-34.133h59.733v34.133c0,4.713,3.821,8.533,8.533,8.533
		c4.713,0,8.533-3.821,8.533-8.533v-34.133H179.2v34.133c0,4.713,3.821,8.533,8.533,8.533c4.713,0,8.533-3.821,8.533-8.533v-34.133
		H256c4.713,0,8.533-3.821,8.533-8.533S260.713,132.267,256,132.267z"/>
	<path style="fill:#E64C3C;" d="M469.333,379.733h25.6c4.713,0,8.533-3.821,8.533-8.533v-61.611
		c-0.003-3.922-2.678-7.336-6.485-8.277l-10.752-2.645l-2.816-72.533l-4.267-112.213c-0.728-18.332-15.787-32.827-34.133-32.853
		H273.067c-9.426,0-17.067,7.641-17.067,17.067v76.8c0,4.713-3.82,8.533-8.533,8.533h-230.4c-4.713,0-8.533,3.821-8.533,8.533
		v170.667c0.028,9.414,7.653,17.039,17.067,17.067h85.333"/>
	<g>
		<path style="fill:#90BAE1;" d="M358.4,277.333h-42.667c-4.713,0-8.533-3.82-8.533-8.533v-34.133c0-4.713,3.821-8.533,8.533-8.533
			H358.4c4.713,0,8.533,3.821,8.533,8.533V268.8C366.933,273.513,363.113,277.333,358.4,277.333z"/>
		<path style="fill:#90BAE1;" d="M435.2,166.4h-42.667c-4.713,0-8.533-3.821-8.533-8.533v-34.133c0-4.713,3.82-8.533,8.533-8.533
			H435.2c4.713,0,8.533,3.821,8.533,8.533v34.133C443.733,162.579,439.913,166.4,435.2,166.4z"/>
		<path style="fill:#90BAE1;" d="M341.333,166.4h-42.667c-4.713,0-8.533-3.821-8.533-8.533v-34.133c0-4.713,3.82-8.533,8.533-8.533
			h42.667c4.713,0,8.533,3.821,8.533,8.533v34.133C349.867,162.579,346.046,166.4,341.333,166.4z"/>
		<path style="fill:#90BAE1;" d="M264.533,277.333h-42.667c-4.713,0-8.533-3.82-8.533-8.533v-34.133
			c0-4.713,3.821-8.533,8.533-8.533h42.667c4.713,0,8.533,3.821,8.533,8.533V268.8C273.067,273.513,269.246,277.333,264.533,277.333
			z"/>
		<path style="fill:#90BAE1;" d="M170.667,277.333H128c-4.713,0-8.533-3.82-8.533-8.533v-34.133c0-4.713,3.821-8.533,8.533-8.533
			h42.667c4.713,0,8.533,3.821,8.533,8.533V268.8C179.2,273.513,175.38,277.333,170.667,277.333z"/>
	</g>
	<g>
		<circle style="fill:#2C3E50;" cx="426.667" cy="379.733" r="42.667"/>
		<circle style="fill:#2C3E50;" cx="153.6" cy="379.733" r="42.667"/>
	</g>
	<path style="fill:#A5A5A4;" d="M503.467,430.933H8.533c-4.713,0-8.533-3.82-8.533-8.533s3.821-8.533,8.533-8.533h494.933
		c4.713,0,8.533,3.82,8.533,8.533S508.18,430.933,503.467,430.933z"/>
	<path style="fill:#C03A2B;" d="M358.4,354.133H221.867c-4.713,0-8.533-3.821-8.533-8.533c0-4.713,3.821-8.533,8.533-8.533H358.4
		c4.713,0,8.533,3.821,8.533,8.533C366.933,350.313,363.113,354.133,358.4,354.133z"/>
	<path style="fill:#90BAE1;" d="M486.229,298.667l-78.677-19.712c-3.807-0.941-6.482-4.356-6.485-8.277v-36.011
		c0-4.713,3.821-8.533,8.533-8.533h73.813L486.229,298.667z"/>
	<path style="fill:#C03A2B;" d="M85.333,234.667v145.067H25.6c-9.414-0.028-17.039-7.653-17.067-17.067V226.133H76.8
		C81.513,226.133,85.333,229.954,85.333,234.667z"/>
	<path style="fill:#D1D4D1;" d="M59.733,226.133V345.6c0,4.713-3.821,8.533-8.533,8.533s-8.533-3.821-8.533-8.533V226.133H59.733z"
		/>
</g>
<g>
</g>
<g>
</g>
<g>
</g>
<g>
</g>
<g>
</g>
<g>
</g>
<g>
</g>
<g>
</g>
<g>
</g>
<g>
</g>
<g>
</g>
<g>
</g>
<g>
</g>
<g>
</g>
<g>
</g>
</svg>
