<?xml version="1.0" encoding="iso-8859-1"?>
<!-- Generator: Adobe Illustrator 21.0.0, SVG Export Plug-In . SVG Version: 6.00 Build 0)  -->
<svg version="1.1" id="Capa_1" xmlns="http://www.w3.org/2000/svg" xmlns:xlink="http://www.w3.org/1999/xlink" x="0px" y="0px"
	 viewBox="0 0 512.003 512.003" style="enable-background:new 0 0 512.003 512.003;" xml:space="preserve">
<g>
	<path style="fill:#7F6E5D;" d="M469.335,384.002h-25.6c-4.713,0-8.533-3.82-8.533-8.533s3.82-8.533,8.533-8.533h25.6
		c14.363-0.262,25.809-12.09,25.6-26.453v-59.187c0-146.526-94.413-223.659-154.607-238.285H172.093
		C95.652,69.668,17.068,165.642,17.068,281.294v59.187c-0.209,14.364,11.237,26.192,25.6,26.453h34.133
		c4.713,0,8.533,3.82,8.533,8.533s-3.821,8.533-8.533,8.533H42.668c-23.784-0.272-42.866-19.735-42.667-43.52v-59.187
		c0-97.357,62.814-219.324,167.927-254.899c0.882-0.299,1.808-0.452,2.739-0.452h170.667c0.655,0.001,1.307,0.076,1.946,0.222
		c109.585,25.591,168.721,150.554,168.721,255.13v59.187C512.201,364.267,493.119,383.73,469.335,384.002z"/>
	<path style="fill:#CBB292;" d="M179.202,8.535h153.6c9.426,0,17.067,7.641,17.067,17.067v17.067
		c0,9.426-7.641,17.067-17.067,17.067h-153.6c-9.426,0-17.067-7.641-17.067-17.067V25.602
		C162.135,16.176,169.776,8.535,179.202,8.535z"/>
	<path style="fill:#804169;" d="M426.668,247.468v51.2c-0.028-9.414-7.653-17.039-17.067-17.067H220.418
		c-4.548,0.002-8.907,1.814-12.117,5.035l-15.531,15.531c-3.21,3.221-7.57,5.033-12.117,5.035h-78.251
		c-9.414,0.028-17.039,7.653-17.067,17.067v-51.2c0.028-9.414,7.653-17.039,17.067-17.067h69.717
		c4.548-0.002,8.907-1.814,12.117-5.035l15.531-15.531c3.21-3.221,7.57-5.033,12.117-5.035h197.717
		C419.016,230.43,426.64,238.054,426.668,247.468z"/>
	<path style="fill:#35495E;" d="M426.668,341.335c18.851,0,34.133,15.282,34.133,34.133s-15.282,34.133-34.133,34.133H85.335
		c-18.851,0-34.133-15.282-34.133-34.133s15.282-34.133,34.133-34.133H426.668z"/>
	<path style="fill:#804169;" d="M426.668,315.735v136.533c-0.028,9.414-7.653,17.039-17.067,17.067h-307.2
		c-9.414-0.028-17.039-7.653-17.067-17.067V315.735H426.668z"/>
	<path style="fill:#CC66A1;" d="M426.668,281.602v51.2H85.335v-25.6c0.028-9.414,7.653-17.039,17.067-17.067h78.251
		c4.548-0.002,8.907-1.814,12.117-5.035L208.3,269.57c3.21-3.221,7.57-5.033,12.117-5.035h189.184
		C419.016,264.563,426.64,272.188,426.668,281.602z"/>
	<path style="fill:#BDC3C7;" d="M426.668,375.468h-25.6c-4.713,0-8.533,3.82-8.533,8.533v42.667c0,4.713,3.82,8.533,8.533,8.533
		h25.6V375.468z"/>
	<path style="fill:#2C3E50;" d="M187.735,426.668v-34.133c0-42.415,34.385-76.8,76.8-76.8s76.8,34.385,76.8,76.8v34.133H187.735z"/>
	<circle style="fill:#35495E;" cx="264.535" cy="426.668" r="76.8"/>
	<circle style="fill:#67B9CC;" cx="264.535" cy="426.668" r="42.667"/>
	<g>
		<path style="fill:#9FC9D3;" d="M238.935,435.202c-4.713,0-8.533-3.82-8.533-8.533c-0.005-14.756,8.935-28.042,22.605-33.596
			c4.406-1.673,9.335,0.543,11.008,4.949c1.673,4.406-0.543,9.335-4.949,11.008c-7.085,2.983-11.666,9.951-11.597,17.638
			C247.468,431.381,243.648,435.202,238.935,435.202z"/>
		<circle style="fill:#9FC9D3;" cx="256.002" cy="452.268" r="8.533"/>
	</g>
</g>
<g>
</g>
<g>
</g>
<g>
</g>
<g>
</g>
<g>
</g>
<g>
</g>
<g>
</g>
<g>
</g>
<g>
</g>
<g>
</g>
<g>
</g>
<g>
</g>
<g>
</g>
<g>
</g>
<g>
</g>
</svg>
