<?xml version="1.0" encoding="iso-8859-1"?>
<!-- Generator: Adobe Illustrator 21.0.0, SVG Export Plug-In . SVG Version: 6.00 Build 0)  -->
<svg version="1.1" id="Capa_1" xmlns="http://www.w3.org/2000/svg" xmlns:xlink="http://www.w3.org/1999/xlink" x="0px" y="0px"
	 viewBox="0 0 512 512" style="enable-background:new 0 0 512 512;" xml:space="preserve">
<g>
	<path style="fill:#41767F;" d="M52.966,414.897h406.069v88.276c0,4.875-3.952,8.828-8.828,8.828H61.793
		c-4.875,0-8.828-3.952-8.828-8.828V414.897z"/>
	<path style="fill:#67B9CC;" d="M388.414,485.517H123.586c-4.875,0-8.828-3.952-8.828-8.828s3.952-8.828,8.828-8.828h264.828
		c4.875,0,8.828,3.952,8.828,8.828S393.289,485.517,388.414,485.517z"/>
	<path style="fill:#D25627;" d="M423.724,203.034c-4.875,0-8.828-3.952-8.828-8.828v-26.483c0-9.751-7.904-17.655-17.655-17.655
		h-35.31c-9.751,0-17.655,7.904-17.655,17.655v26.483c0,4.875-3.952,8.828-8.828,8.828s-8.828-3.952-8.828-8.828v-26.483
		c0-19.501,15.809-35.31,35.31-35.31h35.31c19.501,0,35.31,15.809,35.31,35.31v26.483
		C432.552,199.082,428.599,203.034,423.724,203.034z"/>
	<g>
		<path style="fill:#D1D4D1;" d="M97.103,150.069c-4.875,0-8.828-3.952-8.828-8.828V17.655c0-4.875,3.952-8.828,8.828-8.828
			s8.828,3.952,8.828,8.828v123.586C105.931,146.117,101.979,150.069,97.103,150.069z"/>
		<path style="fill:#D1D4D1;" d="M185.379,150.069c-4.875,0-8.828-3.952-8.828-8.828V17.655c0-4.875,3.952-8.828,8.828-8.828
			c4.875,0,8.828,3.952,8.828,8.828v123.586C194.207,146.117,190.255,150.069,185.379,150.069z"/>
	</g>
	<path style="fill:#FF5364;" d="M70.621,123.586h141.241c14.626,0,26.483,11.857,26.483,26.483v158.897
		c0,14.626-11.857,26.483-26.483,26.483H70.621c-14.626,0-26.483-11.857-26.483-26.483V150.069
		C44.138,135.443,55.995,123.586,70.621,123.586z"/>
	<path style="fill:#802D40;" d="M88.276,0h105.931c9.751,0,17.655,7.904,17.655,17.655l0,0c0,9.751-7.904,17.655-17.655,17.655
		H88.276c-9.751,0-17.655-7.904-17.655-17.655l0,0C70.621,7.904,78.525,0,88.276,0z"/>
	<path style="fill:#DF4D60;" d="M203.034,185.379v44.138H79.448v-44.138c0-14.626,11.857-26.483,26.483-26.483h70.621
		C191.178,158.897,203.034,170.753,203.034,185.379z"/>
	<g>
		<path style="fill:#802D40;" d="M203.034,229.517v35.31c0,14.626-11.857,26.483-26.483,26.483h-70.621
			c-14.626,0-26.483-11.857-26.483-26.483v-35.31H203.034z"/>
		<path style="fill:#802D40;" d="M141.241,203.034c-1.154-0.014-2.293-0.254-3.354-0.706c-2.218-0.803-3.964-2.549-4.767-4.767
			c-0.452-1.061-0.692-2.201-0.706-3.354c0.019-0.592,0.078-1.182,0.177-1.766c0.096-0.553,0.275-1.089,0.53-1.589
			c0.193-0.563,0.46-1.097,0.794-1.589c0.326-0.463,0.68-0.905,1.059-1.324c0.859-0.779,1.844-1.406,2.913-1.854
			c1.61-0.705,3.4-0.891,5.12-0.53c0.553,0.096,1.089,0.275,1.589,0.53c0.563,0.193,1.097,0.46,1.589,0.794l1.324,1.059
			c0.38,0.419,0.733,0.862,1.059,1.324c0.334,0.492,0.602,1.026,0.794,1.589c0.255,0.5,0.434,1.036,0.53,1.589
			c0.098,0.584,0.157,1.174,0.177,1.766c-0.014,1.154-0.254,2.293-0.706,3.354c-0.448,1.069-1.075,2.055-1.854,2.913l-1.324,1.059
			c-0.492,0.334-1.026,0.602-1.589,0.794c-0.5,0.255-1.036,0.434-1.589,0.53C142.424,202.96,141.833,203.019,141.241,203.034z"/>
	</g>
	<path style="fill:#E57E25;" d="M467.862,247.172v52.966c0,19.501-15.809,35.31-35.31,35.31H326.621
		c-19.501,0-35.31-15.809-35.31-35.31v-52.966H467.862z"/>
	<path style="fill:#F29C1F;" d="M467.862,220.69V256H291.31v-35.31c0-19.501,15.809-35.31,35.31-35.31h105.931
		C452.053,185.379,467.862,201.188,467.862,220.69z"/>
	<path style="fill:#E57E25;" d="M344.276,220.69V256h-17.655v-35.31c0-4.875,3.952-8.828,8.828-8.828
		S344.276,215.814,344.276,220.69z"/>
	<g>
		<path style="fill:#D25627;" d="M326.621,256h17.655v26.483c0,4.875-3.952,8.828-8.828,8.828s-8.828-3.952-8.828-8.828V256z"/>
		<path style="fill:#D25627;" d="M432.552,256v26.483c0,4.875-3.952,8.828-8.828,8.828c-4.875,0-8.828-3.952-8.828-8.828V256
			H432.552z"/>
	</g>
	<path style="fill:#E57E25;" d="M432.552,220.69V256h-17.655v-35.31c0-4.875,3.952-8.828,8.828-8.828
		C428.599,211.862,432.552,215.814,432.552,220.69z"/>
	<path style="fill:#2C3E50;" d="M52.966,335.448h406.069c29.252,0,52.966,23.713,52.966,52.966l0,0
		c0,29.252-23.713,52.966-52.966,52.966H52.966C23.713,441.379,0,417.666,0,388.414l0,0C0,359.162,23.713,335.448,52.966,335.448z"
		/>
	<g>
		<circle style="fill:#3F5C6C;" cx="220.69" cy="388.414" r="17.655"/>
		<circle style="fill:#3F5C6C;" cx="150.069" cy="388.414" r="17.655"/>
		<circle style="fill:#3F5C6C;" cx="79.448" cy="388.414" r="17.655"/>
		<circle style="fill:#3F5C6C;" cx="291.31" cy="388.414" r="17.655"/>
		<circle style="fill:#3F5C6C;" cx="361.931" cy="388.414" r="17.655"/>
		<circle style="fill:#3F5C6C;" cx="432.552" cy="388.414" r="17.655"/>
	</g>
</g>
<g>
</g>
<g>
</g>
<g>
</g>
<g>
</g>
<g>
</g>
<g>
</g>
<g>
</g>
<g>
</g>
<g>
</g>
<g>
</g>
<g>
</g>
<g>
</g>
<g>
</g>
<g>
</g>
<g>
</g>
</svg>
