<svg id="Layer_3" enable-background="new 0 0 64 64" height="512" viewBox="0 0 64 64" width="512" xmlns="http://www.w3.org/2000/svg"><path d="m26 34v28h-24v-28l.274-.411c5.038-7.557 7.726-16.435 7.726-25.517v-2.072h8v2.072c0 9.082 2.688 17.96 7.726 25.516z" fill="#a8a8a8"/><path d="m21.726 33.589c-5.038-7.557-7.726-16.435-7.726-25.517v-2.072h-4v2.072c0 9.082-2.688 17.96-7.726 25.516l-.274.412v28h20v-28z" fill="#e0e0e0"/><path d="m2 36h24v20h-24z" fill="#ba9a52"/><path d="m2 36h20v20h-20z" fill="#f8cd6d"/><path d="m15 43c.64-.64 1.509-1 2.414-1h2.586v2.586c0 .906-.36 1.774-1 2.414-.64.64-1.509 1-2.414 1h-2.586v-2.586c0-.905.36-1.774 1-2.414z" fill="#7ecb92"/><path d="m13 43c-.64-.64-1.509-1-2.414-1h-2.586v2.586c0 .905.36 1.774 1 2.414.64.64 1.509 1 2.414 1h2.586v-2.586c0-.905-.36-1.774-1-2.414z" fill="#7ecb92"/><path d="m8 6h12v-3c0-.552-.448-1-1-1h-10c-.552 0-1 .448-1 1z" fill="#806e5c"/><path d="m16 2h-7c-.552 0-1 .448-1 1v3h9v-3c0-.552-.448-1-1-1z" fill="#ab927a"/><path d="m48 8c1.889-.63 3.37-2.111 4-4 .63 1.889 2.111 3.37 4 4-1.889.63-3.37 2.111-4 4-.63-1.889-2.111-3.37-4-4z" fill="#f8cd6d"/><path d="m26 14c1.889-.63 3.37-2.111 4-4 .63 1.889 2.111 3.37 4 4-1.889.63-3.37 2.111-4 4-.63-1.889-2.111-3.37-4-4z" fill="#f8cd6d"/><path d="m54 42h3c.552 0 1 .448 1 1v8c0 .552-.448 1-1 1h-3v4h4c2.209 0 4-1.791 4-4v-10c0-2.209-1.791-4-4-4h-4z" fill="#a8a8a8"/><path d="m51 62h-18c-1.657 0-3-1.343-3-3v-26h24v26c0 1.657-1.343 3-3 3z" fill="#f8cd6d"/><path d="m50.828 34c2.089 0 3.955-1.527 4.153-3.607.228-2.386-1.642-4.393-3.981-4.393-.035 0-.068.009-.102.01.131-.637.141-1.318.003-2.019-.397-2.008-2.068-3.608-4.09-3.927-1.681-.265-3.233.313-4.311 1.371-.902-.885-2.135-1.435-3.499-1.435-1.225 0-2.382.585-3.245 1.455-1.889 1.903-1.928 3.389-1.597 4.736-1.086-.331-2.3-.366-3.829 1.022-.804.73-1.342 1.749-1.329 2.835.025 2.187 1.806 3.952 3.999 3.952h4v6c0 1.105.895 2 2 2 1.105 0 2-.895 2-2v-6h4v12c0 1.105.895 2 2 2 1.105 0 2-.895 2-2v-12z" fill="#e0e0e0"/><g fill="#a8a8a8"><path d="m30 37h7v2h-7z"/><path d="m41 37h4v2h-4z"/><path d="m49 37h5v2h-5z"/></g><path d="m13 48h2v5h-2z" fill="#ab927a"/></svg>