<svg id="Layer_3" enable-background="new 0 0 64 64" height="512" viewBox="0 0 64 64" width="512" xmlns="http://www.w3.org/2000/svg"><circle cx="54" cy="10" fill="#ba9a52" r="8"/><ellipse cx="52.5" cy="10" fill="#f8cd6d" rx="6.5" ry="7.855"/><circle cx="54" cy="32" fill="#ba9a52" r="8"/><ellipse cx="52.5" cy="32" fill="#f8cd6d" rx="6.5" ry="7.855"/><circle cx="54" cy="54" fill="#ba9a52" r="8"/><ellipse cx="52.5" cy="54" fill="#f8cd6d" rx="6.5" ry="7.855"/><path d="m18 16-6-14h6l2 4 2-4h10l-6 14z" fill="#ab927a"/><path d="m16 21v-3c0-1.105.895-2 2-2h8c1.105 0 2 .895 2 2v3" fill="#605345"/><path d="m40 53.023v-15.023c0-9.941-8.059-18-18-18-9.941 0-18 8.059-18 18v15.023c-1.316.994-2.138 2.607-1.981 4.419.228 2.618 2.559 4.558 5.188 4.558h29.587c2.629 0 4.96-1.94 5.188-4.559.156-1.811-.666-3.424-1.982-4.418z" fill="#806e5c"/><path d="m37.981 57.441c.157-1.811-.665-3.424-1.981-4.419v-15.022c0-9.264-7.001-16.887-16-17.883-8.999.996-16 8.619-16 17.883v15.023c-1.316.994-2.138 2.607-1.981 4.419.228 2.618 2.559 4.558 5.188 4.558h25.586c2.629 0 4.96-1.94 5.188-4.559z" fill="#ab927a"/><circle cx="22" cy="42" fill="#ba9a52" r="12"/><ellipse cx="20.5" cy="42" fill="#f8cd6d" rx="10.5" ry="11.896"/><g fill="#fff"><path d="m23 49h-6v-2h6c1.103 0 2-.897 2-2s-.897-2-2-2h-2c-2.206 0-4-1.794-4-4s1.794-4 4-4h6v2h-6c-1.103 0-2 .897-2 2s.897 2 2 2h2c2.206 0 4 1.794 4 4s-1.794 4-4 4z"/><path d="m23 30.05c-.331-.027-.662-.05-1-.05s-.669.023-1 .05v5.95h2z"/><path d="m21 53.95c.331.027.662.05 1 .05s.669-.023 1-.05v-5.95h-2z"/><path d="m54 7h3v-2h-2v-2.931c-.328-.041-.661-.069-1-.069s-.672.028-1 .069v3.115c-1.161.414-2 1.514-2 2.816 0 1.654 1.346 3 3 3 .552 0 1 .448 1 1s-.448 1-1 1h-3v2h2v2.931c.328.041.661.069 1 .069s.672-.028 1-.069v-3.115c1.161-.414 2-1.514 2-2.816 0-1.654-1.346-3-3-3-.552 0-1-.448-1-1s.448-1 1-1z"/><path d="m55 24.069c-.328-.041-.661-.069-1-.069s-.672.028-1 .069v3.115c-1.161.414-2 1.514-2 2.816 0 1.654 1.346 3 3 3 .552 0 1 .448 1 1s-.448 1-1 1h-3v2h2v2.931c.328.041.661.069 1 .069s.672-.028 1-.069v-3.115c1.161-.414 2-1.514 2-2.816 0-1.654-1.346-3-3-3-.552 0-1-.448-1-1s.448-1 1-1h3v-2h-2z"/><path d="m55 46.069c-.328-.041-.661-.069-1-.069s-.672.028-1 .069v3.115c-1.161.414-2 1.514-2 2.816 0 1.654 1.346 3 3 3 .552 0 1 .448 1 1s-.448 1-1 1h-3v2h2v2.931c.328.041.661.069 1 .069s.672-.028 1-.069v-3.115c1.161-.414 2-1.514 2-2.816 0-1.654-1.346-3-3-3-.552 0-1-.448-1-1s.448-1 1-1h3v-2h-2z"/></g></svg>