<svg id="Layer_3" enable-background="new 0 0 64 64" height="512" viewBox="0 0 64 64" width="512" xmlns="http://www.w3.org/2000/svg"><path d="m20 2h24v36h-24z" fill="#ccc"/><path d="m20 2h21v36h-21z" fill="#e6e6e6"/><path d="m2 26h24v36h-24z" fill="#ccc"/><path d="m2 26h21v36h-21z" fill="#e6e6e6"/><path d="m38 26h24v36h-24z" fill="#ccc"/><path d="m38 26h21v36h-21z" fill="#e6e6e6"/><path d="m50 34-6 10 6 10 6-10z" fill="#b13947"/><path d="m44 44 4.5 7.5 4.5-7.5-4.5-7.5z" fill="#ec4c5f"/><path d="m14 34-6 10 6 10 6-10z" fill="#b13947"/><path d="m8 44 4.5 7.5 4.5-7.5-4.5-7.5z" fill="#ec4c5f"/><path d="m32 10-6 10 6 10 6-10z" fill="#b13947"/><path d="m26 20 4.5 7.5 4.5-7.5-4.5-7.5z" fill="#ec4c5f"/><g fill="#666"><path d="m5 29h2v2h-2z"/><path d="m21 29h2v2h-2z"/><path d="m21 57h2v2h-2z"/><path d="m5 57h2v2h-2z"/><path d="m41 29h2v2h-2z"/><path d="m57 29h2v2h-2z"/><path d="m57 57h2v2h-2z"/><path d="m41 57h2v2h-2z"/><path d="m23 5h2v2h-2z"/><path d="m39 5h2v2h-2z"/></g></svg>