<svg id="Capa_1" enable-background="new 0 0 512 512" height="512" viewBox="0 0 512 512" width="512" xmlns="http://www.w3.org/2000/svg"><path d="m512 303-256-14-10.667 127 10.667 96h256z" fill="#ea9b58"/><path d="m0 303v209h256v-223z" fill="#ffa960"/><path d="m0 273h227v30h-227z" fill="#c57a44"/><path d="m277 273h235v30h-235z" fill="#ae6f41"/><g fill="#fdc673"><path d="m96 337h30v30h-30z"/><path d="m21.333 390.333h30v30h-30z"/><path d="m119.333 443.667h30v30h-30z"/><path d="m386 337h30v30h-30z"/><path d="m460.667 390.333h30v30h-30z"/><path d="m362.667 443.667h30v30h-30z"/></g><path d="m296 0c-15.75 0-29.964 6.665-40 17.31l-10.667 57.357 10.667 120.333h15v-75h35c30.327 0 55-24.673 55-55v-65z" fill="#52d15f"/><path d="m216 0h-65v65c0 30.327 24.673 55 55 55h35v75h15v-177.69c-10.036-10.645-24.25-17.31-40-17.31z" fill="#7fe680"/><path d="m320 256 12.928-15c.875-20.501-6.525-40.716-20.535-55.774-14.521-15.608-35.076-24.559-56.394-24.559l-21.333 148.666 21.334 202.654c.19.002.378.013.569.013 29.126 0 53.139-21.869 55.855-50.869l2.822-30.131-5.913-15 8.722-15 12.173-130z" fill="#fc712f"/><path d="m199.606 185.226c-14.52 15.607-21.968 36.753-20.432 58.015l.015.198 7.669 77.561 15.809 9.667-12.843 20.333 10.918 110.421c2.833 28.645 26.54 50.282 55.258 50.565v-351.32c-21.317.001-41.872 8.952-56.394 24.56z" fill="#fd8c01"/><path d="m224 321h-37.142l2.966 30h34.176z" fill="#fc712f"/><path d="m298.667 271h31.562l2.57-27.441.026-.318c.054-.748.071-1.494.103-2.241h-34.262v30z" fill="#d45105"/><path d="m288 431h27.246l2.81-30h-30.056z" fill="#d45105"/></svg>