<svg id="Capa_1" enable-background="new 0 0 512 512" height="512" viewBox="0 0 512 512" width="512" xmlns="http://www.w3.org/2000/svg"><path d="m441.667 476.667v35.333h-51.697l-5.97-53.333 5.97-45.626c29.482 6.156 51.697 32.343 51.697 63.626z" fill="#fdc673"/><path d="m359.97 411.667 13.363 47-13.363 53.333h-103.97l-10.667-53.333 10.667-47z" fill="#fdc673"/><path d="m376.667 411.667c4.559 0 9.007.477 13.303 1.374v98.959h-30v-100.333z" fill="#db3400"/><path d="m70.334 476.667v35.333h51.697l5.97-53.333-5.97-45.626c-29.482 6.156-51.697 32.343-51.697 63.626z" fill="#ffdf8e"/><path d="m152.03 411.667-13.363 47 13.363 53.333h103.97v-100.333z" fill="#ffdf8e"/><path d="m135.333 411.667c-4.558 0-9.007.477-13.303 1.374v98.959h30v-100.333z" fill="#fd4b00"/><path d="m399 223.01v-99.343h-143l-21.333 145 21.333 209.97 73.667-66.97v-24.669c38.629-6.962 68.2-40.319 69.302-80.661 16.486-6.742 28.032-22.985 28.032-41.67-.001-18.673-11.532-34.907-28.001-41.657z" fill="#ae6f41"/><path d="m113 123.666v99.343c-16.469 6.75-28 22.984-28 41.657 0 18.685 11.545 34.928 28.032 41.67 1.102 40.342 30.672 73.699 69.302 80.661v24.669l73.666 66.971v-354.97h-143z" fill="#c57a44"/><path d="m202.167 219.667h30v30h-30z" fill="#444"/><path d="m279.833 219.667h30v30h-30z" fill="#292929"/><path d="m88.334 134.333v115.334h52.744l18.922-115.334z" fill="#444"/><path d="m423.667 134.333v115.334h-52.745l-18.922-115.334z" fill="#292929"/><path d="m394.667 132.333-41.381-132.333h-97.286l-10.667 64 10.667 68.333z" fill="#fdc673"/><path d="m117.333 132.333h138.667v-132.333h-97.286z" fill="#ffdf8e"/><path d="m452.333 142.308-73.569-61.308h-122.764l-10.667 47 10.667 47h196.333z" fill="#f90"/><path d="m133.236 81-73.569 61.308v32.692h196.333v-94z" fill="#fdae02"/><path d="m271 288c0 8.271-6.729 15-15 15l-10.667 17 10.667 13c24.813 0 45-20.187 45-45z" fill="#ffe5c2"/><path d="m241 288h-30c0 24.813 20.187 45 45 45v-30c-8.271 0-15-6.729-15-15z" fill="#fffbf5"/></svg>