<svg id="Capa_1" enable-background="new 0 0 512 512" height="512" viewBox="0 0 512 512" width="512" xmlns="http://www.w3.org/2000/svg"><path d="m371.741 109.182v-23.848h-30v23.848c-25.215 11.493-90.074 46.778-90.074 105.633 0 50.274 45.172 88.185 105.074 88.185s105.074-37.911 105.074-88.185c0-58.855-64.859-94.14-90.074-105.633z" fill="#fdc673"/><path d="m105.989 135.784-6.272-15.276c-8.911-21.704-2.959-46.578 14.813-61.896l19.587 22.724c-7.976 6.875-10.648 18.038-6.648 27.778l6.272 15.275z" fill="#06a646"/><path d="m243.482 152.005c-3.08-15.031-12.363-28.23-25.466-36.214-13.103-7.983-29.089-10.179-43.859-6.023-4.772 1.342-9.264 3.272-13.435 5.768-14.961-5.683-31.465-5.522-46.555.674-15.091 6.197-26.945 17.679-33.595 32.235-4.722 1.155-9.274 2.939-13.611 5.337-13.429 7.423-23.26 20.218-26.972 35.107-3.713 14.888-1.041 30.801 7.331 43.661l65.802 101.08 154.577-63.469z" fill="#52e161"/><path d="m296 0c-15.75 0-29.964 6.665-40 17.31l-10.667 36.025 10.667 89.665h15v-49h9c30.327 0 55-24.673 55-55v-39z" fill="#52e161"/><path d="m216 0h-39v39c0 30.327 24.673 55 55 55h9v49h15v-125.691c-10.036-10.644-24.25-17.309-40-17.309z" fill="#7fe680"/><path d="m299.274 136.179c-11.143-11.976-26.915-18.845-43.273-18.845l-10.667 117.333 10.667 126h45.956l12.997-179.969c1.178-16.316-4.538-32.543-15.68-44.519z" fill="#fc712f"/><path d="m212.726 136.179c-11.143 11.977-16.857 28.203-15.679 44.52l12.997 179.969h45.956v-243.334c-16.358 0-32.131 6.868-43.274 18.845z" fill="#fd8c01"/><path d="m256 143v-64" fill="#fff"/><path d="m452.333 350.351h-196.333l-10.667 33.649 10.667 35.649h196.333z" fill="#ae6f41"/><path d="m59.667 350.351h196.333v69.298h-196.333z" fill="#c57a44"/><path d="m473.667 512v-111h-217.667l-10.667 57.667 10.667 53.333z" fill="#d88a55"/><path d="m473.667 367v-111h-217.667l-10.667 64 10.667 47z" fill="#d88a55"/><g fill="#ea9b58"><path d="m38.333 401h217.667v111h-217.667z"/><path d="m38.333 256h217.667v111h-217.667z"/></g></svg>