<svg id="Capa_1" enable-background="new 0 0 512 512" height="512" viewBox="0 0 512 512" width="512" xmlns="http://www.w3.org/2000/svg"><path d="m233.234 495.751h209.566c12.405-11.343 20.2-27.649 20.2-45.743v-14.177l22.894 3.739 4.836-29.607-27.73-4.529v-11.944c0-26.414-16.613-49.01-39.933-57.922l7.163-21.491-28.461-9.486-8.969 26.907h-117.774c-34.183 0-61.993 27.81-61.993 61.992v56.519c.001 18.093 7.796 34.399 20.201 45.742z" fill="#fdc673"/><g fill="#ae6f41"><path d="m288 89.666v-29.999h-85.333l-10.667 14.584 10.667 15.415z"/><path d="m288 180.333v-30h-85.333l-10.667 9.667 10.667 20.333z"/><path d="m288 271v-30h-85.333l-10.667 15 10.667 15z"/><path d="m288 361.667v-30h-85.333l-10.667 20.333 10.667 9.667z"/><path d="m288 452.333v-30h-85.333l-10.667 15 10.667 15z"/></g><path d="m117.334 59.667h85.333v30h-85.333z" fill="#c57a44"/><path d="m117.334 150.333h85.333v30h-85.333z" fill="#c57a44"/><path d="m117.334 241h85.333v30h-85.333z" fill="#c57a44"/><path d="m117.334 331.667h85.333v30h-85.333z" fill="#c57a44"/><path d="m117.334 422.333h85.333v30h-85.333z" fill="#c57a44"/><path d="m132.333 501.751v-454.751c0-25.916-21.084-47-47-47s-47 21.084-47 47v454.751z" fill="#ea9b58"/><path d="m367 501.751v-454.751c0-25.916-21.084-47-47-47s-47 21.084-47 47v454.751z" fill="#d88a55"/><path d="m501.333 482h-298.666l-10.667 8.667 10.667 21.333h298.666z" fill="#f90"/><path d="m10.667 482h192v30h-192z" fill="#fdae02"/></svg>