<svg id="Capa_1" enable-background="new 0 0 512 512" height="512" viewBox="0 0 512 512" width="512" xmlns="http://www.w3.org/2000/svg"><path d="m440.039 207v-40.181c0-52.962-25.507-103.268-68.229-134.568-28.798-21.099-62.89-32.251-98.59-32.251h-156.905l-6.533 42.5 210.218 74.833 77.421 89.66.01.007z" fill="#e7e7e7"/><path d="m329.226 74.751c-28.798-21.099-62.89-32.251-98.59-32.251h-120.854l-13.782 89.656h141.523c37.781 0 73.86 11.802 104.337 34.131l55.56 40.706c-.735-52.105-26.098-101.4-68.194-132.242z" fill="#cecece"/><path d="m122.134 301.79-35.819-168.211v-133.579h30v130.42l35.161 165.123z" fill="#9c9c9c"/><path d="m201.648 283.667h-64.844l-10.666 25.666 10.666 64 64.844-25.666z" fill="#cecece"/><path d="m71.961 283.667v64l64.843 25.666v-89.666z" fill="#e7e7e7"/><path d="m136.804 347.667-10.667 89.667 10.667 74.666c35.755 0 64.844-29.089 64.844-64.844v-99.49h-64.844z" fill="#db3400"/><path d="m71.961 347.667v99.49c0 35.755 29.089 64.844 64.843 64.844v-164.334z" fill="#fd4b00"/></svg>