<svg id="Capa_1" enable-background="new 0 0 512 512" height="512" viewBox="0 0 512 512" width="512" xmlns="http://www.w3.org/2000/svg"><path d="m512 418.158-117.333-12.824-122.667 76.842h240z" fill="#ea9b58"/><path d="m0 418v64.176h272l-122.667-76.842z" fill="#ffa960"/><path d="m512 388.158-130.168.019-10.899 14.532c-23.23 30.975-60.215 49.467-98.933 49.467l-16 15.824 16 14.175c48.11 0 94.067-22.979 122.933-61.466l1.9-2.535 115.167-.016z" fill="#ae6f41"/><path d="m173.067 402.709-10.9-14.533h-162.167v30h147.167l1.9 2.533c28.867 38.489 74.823 61.467 122.933 61.467v-30c-38.717 0-75.702-18.493-98.933-49.467z" fill="#c57a44"/><path d="m344.667 327.163c35.841 0 65-29.159 65-65v-149.77l-116.904-82.568h-20.763l-26.667 162.175 26.667 135.163z" fill="#d88a55"/><path d="m74.667 129.759 19.333 98.574h40.333v33.83c0 35.841 29.159 65 65 65h72.667v-297.338h-178z" fill="#ea9b58"/><path d="m272 190.496-14.646 76.17 14.646 60.497h57.666v-79.001c.001-31.848-25.817-57.666-57.666-57.666z" fill="#c57a44"/><path d="m214.334 248.163v79.001h57.666v-136.668c-31.848 0-57.666 25.818-57.666 57.667z" fill="#d88a55"/><path d="m0 29.825h94v198.351h-94z" fill="#9ccefd"/><path d="m272 265.163-16 65.503 16 49.83c31.797 0 57.666-25.869 57.666-57.667.001-31.796-25.869-57.666-57.666-57.666z" fill="#996037"/><path d="m214.333 322.83c0 31.797 25.869 57.667 57.667 57.667v-115.334c-31.798 0-57.667 25.87-57.667 57.667z" fill="#ae6f41"/></svg>