<svg id="Capa_1" enable-background="new 0 0 492.667 492.667" height="512" viewBox="0 0 492.667 492.667" width="512" xmlns="http://www.w3.org/2000/svg"><path d="m441.667 188.667h-120.401l-25.077-108.667h27.811v-30h-29.667l-17 164.333 17 153.667h147.334z" fill="#44ba50"/><path d="m102.333 50v318h15 177v-126l-8.142-17.467 8.142-20.866v-153.667z" fill="#52d15f"/><path d="m388.333 214.333h-30v-93.361l38.68-25.786 16.64 24.961-25.32 16.881z" fill="#d3d3d8"/><ellipse cx="409.5" cy="359.5" fill="#e7e7e7" rx="68.167" ry="68.167" transform="matrix(.16 -.987 .987 .16 -10.953 706.127)"/><path d="m409.5 442.667c-45.858 0-83.167-37.308-83.167-83.167 0-45.858 37.309-83.167 83.167-83.167s83.167 37.308 83.167 83.167c0 45.858-37.309 83.167-83.167 83.167zm0-136.334c-29.316 0-53.167 23.851-53.167 53.167s23.851 53.167 53.167 53.167 53.167-23.85 53.167-53.167c0-29.316-23.851-53.167-53.167-53.167z" fill="#292929"/><path d="m394.5 344.5h30v30h-30z" fill="#444"/><path d="m265.4 80h-69.067v98.121l3.167 18.212-3.167 26.5v19.167h98v-36.625z" fill="#9ccefd"/><path d="m196.333 220.547 48.94-48.94-21.212-21.213-27.728 27.727z" fill="#dfeffe"/><circle cx="127" cy="315.667" fill="#fcfcfc" r="112"/><path d="m127 442.667c-70.028 0-127-56.972-127-127s56.972-127 127-127 127 56.972 127 127-56.972 127-127 127zm0-224c-53.486 0-97 43.514-97 97s43.514 97 97 97 97-43.514 97-97-43.514-97-97-97z" fill="#444"/><path d="m179.797 300.667h-37.797v-37.798h-30v37.798h-37.797v30h37.797v37.797h30v-37.797h37.797z" fill="#838383"/></svg>