<svg id="Capa_1" enable-background="new 0 0 512 512" height="512" viewBox="0 0 512 512" width="512" xmlns="http://www.w3.org/2000/svg"><path d="m293.92 348.976h90v141.69h-90z" fill="#ae6f41"/><ellipse cx="338.92" cy="231.746" fill="#06a646" rx="150.746" ry="150.747" transform="matrix(.707 -.707 .707 .707 -64.602 307.53)"/><path d="m422.697 227.834c-6.276-10.873-16.411-18.649-28.538-21.899-12.124-3.249-24.792-1.583-35.664 4.695-10.872 6.277-18.649 16.412-21.898 28.538-3.25 12.126-1.582 24.793 4.695 35.664 6.276 10.873 16.411 18.649 28.538 21.899 4.05 1.085 8.158 1.622 12.241 1.622 8.143 0 16.182-2.136 23.424-6.317 10.872-6.277 18.648-16.412 21.898-28.539 3.249-12.126 1.581-24.792-4.696-35.663z" fill="#e36705"/><path d="m247.5 332.666h-47l-19.167 83.334 19.167 74.666h47z" fill="#d88a55"/><path d="m153.5 332.666h47v158h-47z" fill="#ea9b58"/><path d="m200.5 0-19.167 178.167 19.167 178.166c98.241 0 178.167-79.925 178.167-178.167 0-98.241-79.926-178.166-178.167-178.166z" fill="#52d15f"/><path d="m22.333 178.167c0 98.241 79.926 178.167 178.167 178.167v-356.334c-98.241 0-178.167 79.925-178.167 178.167z" fill="#7fe680"/><path d="m415 482h-214.5l-13.667 15 13.667 15h214.5z" fill="#44ba50"/><path d="m124.333 482h76.167v30h-76.167z" fill="#52d15f"/><path d="m263.943 188.574c-16.256 0-32.086-8.429-40.782-23.49-6.277-10.873-7.945-23.539-4.695-35.665 3.249-12.126 11.026-22.262 21.898-28.539 22.441-12.957 51.244-5.24 64.203 17.203 12.958 22.445 5.24 51.246-17.203 64.203-7.382 4.263-15.453 6.288-23.421 6.288z" fill="#fc712f"/><path d="m137.057 188.574c-7.97 0-16.037-2.025-23.421-6.288-10.872-6.277-18.649-16.412-21.898-28.539-3.25-12.126-1.582-24.792 4.695-35.665 12.959-22.444 41.759-30.16 64.203-17.203 10.872 6.277 18.649 16.412 21.898 28.539 3.25 12.126 1.582 24.792-4.695 35.665-8.696 15.06-24.528 23.491-40.782 23.491z" fill="#fd8c01"/><path d="m200.5 204.333-8.5 47 8.5 47c25.916 0 47-21.084 47-47s-21.084-47-47-47z" fill="#fc712f"/><path d="m153.5 251.333c0 25.916 21.084 47 47 47v-94c-25.916 0-47 21.084-47 47z" fill="#fd8c01"/></svg>