<?xml version="1.0" encoding="iso-8859-1"?>
<!-- Generator: Adobe Illustrator 19.0.0, SVG Export Plug-In . SVG Version: 6.00 Build 0)  -->
<svg version="1.1" id="Layer_1" xmlns="http://www.w3.org/2000/svg" xmlns:xlink="http://www.w3.org/1999/xlink" x="0px" y="0px"
	 viewBox="0 0 512 512" style="enable-background:new 0 0 512 512;" xml:space="preserve">
<path style="fill:#48A0DC;" d="M476.69,512H35.31C15.89,512,0,496.11,0,476.69V35.31C0,15.89,15.89,0,35.31,0H476.69
	C496.11,0,512,15.89,512,35.31V476.69C512,496.11,496.11,512,476.69,512"/>
<path style="fill:#FFFFFF;" d="M476.69,256c0,121.821-98.869,220.69-220.69,220.69S35.31,377.821,35.31,256S134.179,35.31,256,35.31
	S476.69,134.179,476.69,256"/>
<g>
	<polygon style="fill:#7383BF;" points="247.172,88.276 264.828,88.276 264.828,35.31 247.172,35.31 	"/>
	<polygon style="fill:#7383BF;" points="247.172,476.69 264.828,476.69 264.828,423.724 247.172,423.724 	"/>
	<polygon style="fill:#7383BF;" points="423.724,264.828 476.69,264.828 476.69,247.172 423.724,247.172 	"/>
	<polygon style="fill:#7383BF;" points="35.31,264.828 88.276,264.828 88.276,247.172 35.31,247.172 	"/>
	<polygon style="fill:#7383BF;" points="131.531,143.89 93.572,105.931 105.931,93.572 143.89,131.531 	"/>
	<polygon style="fill:#7383BF;" points="406.069,418.428 368.11,380.469 380.469,368.11 418.428,406.069 	"/>
	<polygon style="fill:#7383BF;" points="380.469,143.89 368.11,131.531 406.069,93.572 418.428,105.931 	"/>
	<polygon style="fill:#7383BF;" points="105.931,418.428 93.572,406.069 131.531,368.11 143.89,380.469 	"/>
</g>
<g>
	<path style="fill:#EA7F5F;" d="M278.069,270.124l-45.021-28.248l75.034-88.276c3.531-3.531,8.828-4.414,13.241-1.766
		s6.179,7.945,3.531,12.359L278.069,270.124z"/>
	<path style="fill:#EA7F5F;" d="M233.931,241.876l45.021,28.248L203.917,358.4c-3.531,3.531-8.828,4.414-13.241,1.766l0,0
		c-4.414-2.648-6.179-7.945-3.531-12.359L233.931,241.876z"/>
</g>
<g>
</g>
<g>
</g>
<g>
</g>
<g>
</g>
<g>
</g>
<g>
</g>
<g>
</g>
<g>
</g>
<g>
</g>
<g>
</g>
<g>
</g>
<g>
</g>
<g>
</g>
<g>
</g>
<g>
</g>
</svg>
