<?xml version="1.0" encoding="iso-8859-1"?>
<!-- Generator: Adobe Illustrator 19.0.0, SVG Export Plug-In . SVG Version: 6.00 Build 0)  -->
<svg version="1.1" id="Layer_1" xmlns="http://www.w3.org/2000/svg" xmlns:xlink="http://www.w3.org/1999/xlink" x="0px" y="0px"
	 viewBox="0 0 512 512" style="enable-background:new 0 0 512 512;" xml:space="preserve">
<path style="fill:#43B05B;" d="M260.339,381.831c0-66.82,54.671-121.492,121.492-121.492c33.844,0,65.085,13.885,86.78,36.447V0H0
	v468.61h296.786C274.224,446.915,260.339,415.675,260.339,381.831"/>
<path style="fill:#F0CE49;" d="M380.963,260.339C380.963,260.339,381.831,260.339,380.963,260.339
	c34.712,0,65.953,13.885,87.647,36.447v-62.481l-91.119-88.515l91.119-90.251V0h-55.539L173.559,239.512V0h-69.424v104.136H0v69.424
	h104.136v135.376l-13.017,13.017L0,413.071v55.539h55.539l266.414-266.414L380.963,260.339z"/>
<path style="fill:#7FABD9;" d="M503.322,381.831c0-66.82-54.671-121.492-121.492-121.492S260.339,315.01,260.339,381.831
	s54.671,121.492,121.492,121.492S503.322,448.651,503.322,381.831"/>
<path style="fill:#7383BF;" d="M381.831,512c-72.027,0-130.169-58.142-130.169-130.169s58.142-130.169,130.169-130.169
	S512,309.803,512,381.831S453.858,512,381.831,512z M381.831,269.017c-62.481,0-112.814,50.332-112.814,112.814
	s50.332,112.814,112.814,112.814s112.814-50.332,112.814-112.814S444.312,269.017,381.831,269.017z"/>
<path style="fill:#FFFFFF;" d="M430.427,369.681c0-21.695-17.356-39.919-39.051-39.919c-14.753,0-26.902,7.81-33.844,19.959
	c-2.603-0.868-5.207-0.868-7.81-0.868c-11.281,0-20.827,8.678-23.431,19.959c-9.546,5.207-16.488,15.62-16.488,26.902
	c0,16.488,13.017,30.373,29.505,30.373h60.746h0.868h0.868h23.431c14.753,0,26.902-13.017,26.902-27.77
	S442.576,372.285,430.427,369.681"/>
<g>
</g>
<g>
</g>
<g>
</g>
<g>
</g>
<g>
</g>
<g>
</g>
<g>
</g>
<g>
</g>
<g>
</g>
<g>
</g>
<g>
</g>
<g>
</g>
<g>
</g>
<g>
</g>
<g>
</g>
</svg>
