<?xml version="1.0" encoding="iso-8859-1"?>
<!-- Generator: Adobe Illustrator 19.0.0, SVG Export Plug-In . SVG Version: 6.00 Build 0)  -->
<svg version="1.1" id="Layer_1" xmlns="http://www.w3.org/2000/svg" xmlns:xlink="http://www.w3.org/1999/xlink" x="0px" y="0px"
	 viewBox="0 0 512 512" style="enable-background:new 0 0 512 512;" xml:space="preserve">
<path style="fill:#43B05B;" d="M264.828,388.414c0-67.972,55.614-123.586,123.586-123.586c34.428,0,66.207,14.124,88.276,37.076V0H0
	v476.69h301.903C278.952,454.621,264.828,422.841,264.828,388.414"/>
<g>
	<path style="fill:#F0CE49;" d="M387.531,264.828C387.531,264.828,388.414,264.828,387.531,264.828
		c35.31,0,67.09,14.124,89.159,37.076v-63.559L384,148.303l92.69-91.807V0h-56.497L176.552,243.641V0h-70.621v105.931H0v70.621
		h105.931v137.71L92.69,327.503L0,420.193v56.497h56.497l271.007-271.007L387.531,264.828z"/>
	<path style="fill:#F0CE49;" d="M512,388.414c0-67.972-55.614-123.586-123.586-123.586s-123.586,55.614-123.586,123.586
		S320.441,512,388.414,512S512,456.386,512,388.414"/>
</g>
<polygon style="fill:#FFFFFF;" points="388.414,300.138 408.717,361.931 467.862,361.931 421.076,398.124 441.379,459.034 
	388.414,425.49 335.448,459.034 355.752,398.124 308.966,361.931 368.993,361.931 "/>
<g>
</g>
<g>
</g>
<g>
</g>
<g>
</g>
<g>
</g>
<g>
</g>
<g>
</g>
<g>
</g>
<g>
</g>
<g>
</g>
<g>
</g>
<g>
</g>
<g>
</g>
<g>
</g>
<g>
</g>
</svg>
