<?xml version="1.0" encoding="iso-8859-1"?>
<!-- Generator: Adobe Illustrator 19.0.0, SVG Export Plug-In . SVG Version: 6.00 Build 0)  -->
<svg version="1.1" id="Layer_1" xmlns="http://www.w3.org/2000/svg" xmlns:xlink="http://www.w3.org/1999/xlink" x="0px" y="0px"
	 viewBox="0 0 512 512" style="enable-background:new 0 0 512 512;" xml:space="preserve">
<g transform="translate(0 -1)">
	<path style="fill:#43B05B;" d="M264.828,389.414c0-67.972,55.614-123.586,123.586-123.586c34.428,0,66.207,14.124,88.276,37.076V1
		H0v476.69h301.903C278.952,455.621,264.828,423.841,264.828,389.414"/>
	<path style="fill:#F0CE49;" d="M385.766,265.828c0.883,0,1.766,0,2.648,0c34.428,0,66.207,14.124,88.276,37.076v-63.559
		L384,149.303l92.69-91.807V1h-56.497L176.552,244.641V1h-70.621v105.931H0v70.621h105.931v137.71L92.69,328.503L0,421.193v56.497
		h56.497l271.007-271.007L385.766,265.828z"/>
	<path style="fill:#48A0DC;" d="M512,389.414c0-67.972-55.614-123.586-123.586-123.586s-123.586,55.614-123.586,123.586
		S320.441,513,388.414,513S512,457.386,512,389.414"/>
	<g>
		<path style="fill:#FFFFFF;" d="M450.207,398.241H326.621c-5.297,0-8.828-3.531-8.828-8.828s3.531-8.828,8.828-8.828h123.586
			c5.297,0,8.828,3.531,8.828,8.828S455.503,398.241,450.207,398.241z"/>
		<path style="fill:#FFFFFF;" d="M414.897,433.552c-2.648,0-4.414-0.883-6.179-2.648c-3.531-3.531-3.531-8.828,0-12.359
			l29.131-29.131l-29.131-29.131c-3.531-3.531-3.531-8.828,0-12.359c3.531-3.531,8.828-3.531,12.359,0l35.31,35.31
			c3.531,3.531,3.531,8.828,0,12.359l-35.31,35.31C419.31,432.669,417.545,433.552,414.897,433.552z"/>
	</g>
</g>
<g>
</g>
<g>
</g>
<g>
</g>
<g>
</g>
<g>
</g>
<g>
</g>
<g>
</g>
<g>
</g>
<g>
</g>
<g>
</g>
<g>
</g>
<g>
</g>
<g>
</g>
<g>
</g>
<g>
</g>
</svg>
