<?xml version="1.0" encoding="iso-8859-1"?>
<!-- Generator: Adobe Illustrator 19.0.0, SVG Export Plug-In . SVG Version: 6.00 Build 0)  -->
<svg version="1.1" id="Layer_1" xmlns="http://www.w3.org/2000/svg" xmlns:xlink="http://www.w3.org/1999/xlink" x="0px" y="0px"
	 viewBox="0 0 503.322 503.322" style="enable-background:new 0 0 503.322 503.322;" xml:space="preserve">
<path style="fill:#D8D8D8;" d="M251.661,260.339c-12.149,0-23.43-1.736-33.844-4.339l16.488,229.966
	c0.868,9.546,7.81,17.356,17.356,17.356c9.546,0,16.488-7.81,17.356-17.356L285.505,256
	C275.092,259.471,263.81,260.339,251.661,260.339"/>
<path style="fill:#48A0DC;" d="M381.831,130.169C381.831,58.142,323.688,0,251.661,0S121.492,58.142,121.492,130.169
	s58.142,130.169,130.169,130.169S381.831,202.197,381.831,130.169"/>
<polygon style="fill:#FFFFFF;" points="277.695,60.746 277.695,112.814 225.627,112.814 225.627,60.746 190.915,60.746 
	190.915,112.814 190.915,147.525 190.915,199.593 225.627,199.593 225.627,147.525 277.695,147.525 277.695,199.593 
	312.407,199.593 312.407,147.525 312.407,112.814 312.407,60.746 "/>
<g>
</g>
<g>
</g>
<g>
</g>
<g>
</g>
<g>
</g>
<g>
</g>
<g>
</g>
<g>
</g>
<g>
</g>
<g>
</g>
<g>
</g>
<g>
</g>
<g>
</g>
<g>
</g>
<g>
</g>
</svg>
