<?xml version="1.0" encoding="iso-8859-1"?>
<!-- Generator: Adobe Illustrator 19.0.0, SVG Export Plug-In . SVG Version: 6.00 Build 0)  -->
<svg version="1.1" id="Layer_1" xmlns="http://www.w3.org/2000/svg" xmlns:xlink="http://www.w3.org/1999/xlink" x="0px" y="0px"
	 viewBox="0 0 512 512" style="enable-background:new 0 0 512 512;" xml:space="preserve">
<path style="fill:#D8D8D8;" d="M256,264.828c-11.476,0-23.834-1.766-34.428-4.414l16.772,233.931
	C239.228,504.055,246.29,512,256,512c9.71,0,16.772-7.945,17.655-17.655l16.772-233.931
	C279.835,263.945,267.476,264.828,256,264.828"/>
<path style="fill:#EA7F5F;" d="M388.414,132.414C388.414,59.145,329.269,0,256,0S123.586,59.145,123.586,132.414
	S182.731,264.828,256,264.828S388.414,205.683,388.414,132.414"/>
<path style="fill:#FFFFFF;" d="M256,97.103c5.297-12.359,15.89-26.483,30.014-26.483c19.421,0,34.428,15.007,36.193,34.428
	c0,0,0.883,4.414-0.883,13.241c-2.648,11.476-9.71,22.069-18.538,30.014L256,194.207l-48.552-46.786
	c-8.828-7.945-15.89-18.538-18.538-30.014c-1.766-8.828-0.883-13.241-0.883-13.241c0.883-18.538,14.124-33.545,33.545-33.545
	C236.579,70.621,250.703,84.745,256,97.103"/>
<g>
</g>
<g>
</g>
<g>
</g>
<g>
</g>
<g>
</g>
<g>
</g>
<g>
</g>
<g>
</g>
<g>
</g>
<g>
</g>
<g>
</g>
<g>
</g>
<g>
</g>
<g>
</g>
<g>
</g>
</svg>
