<?xml version="1.0" encoding="iso-8859-1"?>
<!-- Generator: Adobe Illustrator 19.0.0, SVG Export Plug-In . SVG Version: 6.00 Build 0)  -->
<svg version="1.1" id="Layer_1" xmlns="http://www.w3.org/2000/svg" xmlns:xlink="http://www.w3.org/1999/xlink" x="0px" y="0px"
	 viewBox="0 0 511.837 511.837" style="enable-background:new 0 0 511.837 511.837;" xml:space="preserve">
<path style="fill:#444C6D;" d="M256.527,195.332c-8.533,0-17.067-0.853-34.133-3.413v37.547h68.267v-37.547
	C273.593,193.625,265.06,195.332,256.527,195.332"/>
<path style="fill:#D8D8D8;" d="M230.927,229.465h51.2l-7.68,128c-0.853,9.387-8.533,17.067-17.92,17.067
	c-9.387,0-17.92-7.68-17.92-17.067L230.927,229.465z"/>
<path style="fill:#EA7F5F;" d="M358.927,106.585c0-56.32-46.08-102.4-102.4-102.4s-102.4,46.08-102.4,102.4s46.08,102.4,102.4,102.4
	S358.927,162.905,358.927,106.585"/>
<path d="M188.26,115.118c-5.12,0-8.533-3.413-8.533-8.533c0-42.667,34.133-76.8,76.8-76.8c5.12,0,8.533,3.413,8.533,8.533
	s-3.413,8.533-8.533,8.533c-33.28,0-59.733,26.453-59.733,59.733C196.793,111.705,193.38,115.118,188.26,115.118z"/>
<path style="fill:#DD342E;" d="M358.927,106.585c0-56.32-46.08-102.4-102.4-102.4s-102.4,46.08-102.4,102.4s46.08,102.4,102.4,102.4
	S358.927,162.905,358.927,106.585"/>
<path style="fill:#F86363;" d="M188.26,115.118c-5.12,0-8.533-3.413-8.533-8.533c0-42.667,34.133-76.8,76.8-76.8
	c5.12,0,8.533,3.413,8.533,8.533s-3.413,8.533-8.533,8.533c-33.28,0-59.733,26.453-59.733,59.733
	C196.793,111.705,193.38,115.118,188.26,115.118"/>
<g>
	<path style="fill:#F0CE49;" d="M503.993,507.652c-0.853,0-1.707,0-2.56,0L57.7,371.118c-4.267-1.707-6.827-5.973-5.973-10.24
		c1.707-4.267,5.973-6.827,10.24-5.973L505.7,491.438c4.267,1.707,6.827,5.973,5.973,10.24
		C510.82,505.092,507.407,507.652,503.993,507.652"/>
	<path style="fill:#F0CE49;" d="M9.06,507.652c-3.413,0-6.827-2.56-8.533-5.973c-1.707-4.267,0.853-9.387,5.973-10.24
		l443.733-136.533c4.267-1.707,9.387,0.853,10.24,5.973c1.707,4.267-0.853,9.387-5.973,10.24L10.767,507.652
		C10.767,507.652,9.913,507.652,9.06,507.652"/>
</g>
<g>
</g>
<g>
</g>
<g>
</g>
<g>
</g>
<g>
</g>
<g>
</g>
<g>
</g>
<g>
</g>
<g>
</g>
<g>
</g>
<g>
</g>
<g>
</g>
<g>
</g>
<g>
</g>
<g>
</g>
</svg>
