<svg id="study" enable-background="new 0 0 300 300" height="512" viewBox="0 0 300 300" width="512" xmlns="http://www.w3.org/2000/svg"><path d="m265.9 237.62-68.037-68.037c9.1-14.267 14.38-31.196 14.38-49.336 0-50.729-41.271-92-92-92s-92 41.271-92 92 41.271 92 92 92c18.14 0 35.069-5.28 49.336-14.38l68.036 68.036c3.899 3.899 9.021 5.849 14.143 5.849 5.121 0 10.243-1.95 14.142-5.848 3.778-3.777 5.858-8.8 5.858-14.143-.001-5.341-2.081-10.364-5.858-14.141zm-221.657-117.373c0-41.907 34.094-76 76-76s76 34.093 76 76-34.094 76-76 76-76-34.093-76-76zm210.342 134.344c-1.559 1.56-4.098 1.56-5.656 0l-66.555-66.555c1.966-1.803 3.853-3.691 5.657-5.657l66.556 66.556c1.019 1.019 1.171 2.209 1.171 2.828-.001.618-.153 1.808-1.173 2.828z"/><path d="m100.243 164.247c-3.443 0-6.501-2.204-7.59-5.47l-10.827-32.482-6.927 10.39c-1.483 2.226-3.981 3.562-6.656 3.562h-8c-4.418 0-8-3.582-8-8s3.582-8 8-8h3.719l13.625-20.438c1.695-2.543 4.701-3.898 7.718-3.492 3.028.406 5.562 2.5 6.528 5.399l8.41 25.231 8.41-25.231c1.023-3.07 3.795-5.221 7.022-5.45 3.234-.227 6.275 1.509 7.723 4.402l7.363 14.725 9.892-29.677c1.089-3.267 4.146-5.47 7.59-5.47h24c4.418 0 8 3.582 8 8s-3.582 8-8 8h-18.234l-14.176 42.53c-1.023 3.07-3.795 5.221-7.022 5.45-3.235.22-6.275-1.509-7.723-4.402l-7.363-14.725-9.892 29.677c-1.089 3.268-4.147 5.471-7.59 5.471z" fill="#0faa00"/></svg>