<svg id="travel-protection" enable-background="new 0 0 300 300" height="512" viewBox="0 0 300 300" width="512" xmlns="http://www.w3.org/2000/svg"><path d="m68.632 114.033c-1.236 0-2.489-.287-3.663-.893-3.926-2.026-5.466-6.852-3.439-10.778 8.748-16.948 21.981-31.173 38.269-41.137 3.769-2.307 8.693-1.119 10.999 2.649 2.306 3.769 1.12 8.693-2.649 10.999-13.792 8.437-24.996 20.48-32.401 34.828-1.422 2.752-4.219 4.332-7.116 4.332z" fill="#0faa00"/><path d="m150 22c-68.374 0-124 55.626-124 124 0 5.957.539 12.284 1.649 19.344.582 3.707 3.662 6.51 7.407 6.743 3.738.243 7.148-2.168 8.185-5.774 3.437-11.96 14.441-20.313 26.759-20.313 10.709 0 20.317 6.063 25.074 15.824 1.301 2.67 3.974 4.399 6.942 4.491 2.97.087 5.744-1.468 7.208-4.051 4.289-7.565 12.25-12.264 20.776-12.264 6.055 0 11.704 2.262 16.157 6.42-.102.511-.157 1.039-.157 1.58v8h-16c-4.418 0-8 3.582-8 8v16h-32c-4.418 0-8 3.582-8 8v72c0 4.418 3.582 8 8 8h128c4.418 0 8-3.582 8-8v-72c0-4.418-3.582-8-8-8h-32v-16c0-4.418-3.582-8-8-8h-16v-8c0-.541-.055-1.069-.157-1.58 4.454-4.158 10.103-6.42 16.157-6.42 6.68 0 12.912 2.758 17.548 7.766 1.606 1.736 3.901 2.673 6.26 2.557 2.362-.115 4.552-1.269 5.982-3.152 5.392-7.099 13.487-11.171 22.21-11.171 12.318 0 23.322 8.353 26.76 20.312.99 3.444 4.14 5.79 7.685 5.79.166 0 .333-.005.5-.016 3.745-.232 6.825-3.036 7.407-6.743 1.11-7.06 1.649-13.387 1.649-19.344-.001-68.373-55.627-123.999-124.001-123.999zm-12 160h8v8h-8zm-40 80v-24h16c0 4.418 3.582 8 8 8s8-3.582 8-8h48c0 4.418 3.582 8 8 8s8-3.582 8-8h16v24zm112-40h-16c0-4.418-3.582-8-8-8s-8 3.582-8 8h-48c0-4.418-3.582-8-8-8s-8 3.582-8 8h-16v-16h112zm-40-40v8h-8v-8zm60-52c-10.918 0-21.19 4.01-29.186 11.214-6.65-4.694-14.516-7.214-22.814-7.214-8.693 0-17.104 2.904-24 8.144-6.896-5.24-15.307-8.144-24-8.144-10.189 0-19.877 3.976-27.179 10.821-8.204-9.339-20.006-14.821-32.821-14.821-10.377 0-20.159 3.748-27.841 10.105 3.07-56.821 50.267-102.105 107.841-102.105s104.771 45.284 107.841 102.105c-7.682-6.357-17.464-10.105-27.841-10.105z"/></svg>