<svg id="globe-dollar" enable-background="new 0 0 300 300" height="512" viewBox="0 0 300 300" width="512" xmlns="http://www.w3.org/2000/svg"><path d="m126 142h-16v-8h16c4.418 0 8-3.582 8-8s-3.582-8-8-8h-16v-8c0-4.418-3.582-8-8-8s-8 3.582-8 8v8h-16c-4.418 0-8 3.582-8 8v24c0 4.418 3.582 8 8 8h16v8h-16c-4.418 0-8 3.582-8 8s3.582 8 8 8h16v8c0 4.418 3.582 8 8 8s8-3.582 8-8v-8h16c4.418 0 8-3.582 8-8v-24c0-4.418-3.582-8-8-8zm-40 0v-8h8v8zm32 24h-8v-8h8z" fill="#0faa00"/><path d="m270 150c0-63.151-49.036-115.063-111.032-119.666-.308-.037-.617-.058-.926-.059-2.659-.176-5.339-.275-8.042-.275-66.168 0-120 53.832-120 120s53.832 120 120 120c2.676 0 5.33-.097 7.963-.271.014 0 .027.002.041.002.326 0 .652-.027.977-.067 61.989-4.608 111.019-56.517 111.019-119.664zm-46.312 73.317c-6.447-5.02-13.368-9.344-20.643-12.925 6.281-16.321 10.041-34.074 10.891-52.393h39.76c-1.942 25.4-13.049 48.273-30.008 65.318zm-12.421 10.665c-9.066 6.632-19.237 11.837-30.187 15.273 5.879-7.43 11.057-15.56 15.465-24.239 5.135 2.567 10.058 5.565 14.722 8.966zm42.428-91.982h-39.76c-.792-17.061-4.108-33.632-9.634-49.013 7.64-3.871 14.88-8.568 21.572-14.035 15.724 16.781 25.966 38.759 27.822 63.048zm-55.579-63.831c-4.732-9.878-10.442-19.092-17.034-27.424 12.024 3.774 23.114 9.677 32.827 17.265-4.964 3.871-10.251 7.27-15.793 10.159zm-152.116 71.831c0-57.346 46.654-104 104-104 1.618 0 3.227.042 4.828.116 11.716 10.394 21.38 23.487 28.583 38.326-10.696 3.628-21.982 5.546-33.411 5.546-4.418 0-8 3.582-8 8s3.582 8 8 8c13.549 0 26.93-2.327 39.572-6.742 4.721 13.419 7.594 27.86 8.352 42.753h-47.924c-4.418 0-8 3.582-8 8s3.582 8 8 8h47.924c-.826 16.217-4.157 31.898-9.655 46.306-12.258-4.123-25.183-6.305-38.269-6.305-4.418 0-8 3.582-8 8s3.582 8 8 8c10.818 0 21.511 1.714 31.695 4.973-6.995 13.437-16.058 25.323-26.867 34.911-1.601.074-3.21.116-4.828.116-57.346 0-104-46.654-104-104z"/></svg>