<svg id="gem-day" enable-background="new 0 0 300 300" height="512" viewBox="0 0 300 300" width="512" xmlns="http://www.w3.org/2000/svg"><path d="m231.134 54h-162.268c-12.608 0-22.866 10.257-22.866 22.865v33.135 121.988c0 16.549 13.463 30.012 30.011 30.012h147.979c16.547 0 30.01-13.463 30.01-30.012v-121.988-33.135c0-12.608-10.258-22.865-22.866-22.865zm6.866 177.988c0 7.727-6.285 14.012-14.011 14.012h-147.978c-7.726 0-14.011-6.285-14.011-14.012v-113.988h149.335c4.418 0 8-3.582 8-8s-3.582-8-8-8h-149.335v-25.135c0-3.785 3.08-6.865 6.866-6.865h162.268c3.786 0 6.866 3.08 6.866 6.865v33.135z"/><path d="m213.928 164.949c-.006-.045-.016-.09-.023-.135-.046-.304-.111-.607-.192-.907-.018-.064-.033-.129-.052-.193-.1-.334-.219-.666-.365-.991-.004-.009-.006-.019-.01-.028-.015-.032-.035-.06-.05-.092-.088-.186-.176-.373-.279-.555l-18.182-32c-1.422-2.502-4.078-4.048-6.956-4.048h-75.637c-2.878 0-5.534 1.546-6.956 4.048l-18.182 32c-.104.182-.191.368-.279.555-.015.032-.035.06-.05.092-.004.009-.006.019-.01.028-.147.325-.265.656-.365.991-.019.064-.035.128-.052.193-.082.301-.146.603-.192.907-.007.045-.017.09-.023.135-.045.344-.067.688-.068 1.032 0 .06.004.119.005.179.006.293.029.584.066.874.009.068.015.136.026.204.052.331.123.657.216.979.017.06.039.117.058.177.087.277.189.548.305.813.029.066.056.133.086.198.146.312.311.615.498.908.019.029.04.057.06.086.18.274.38.537.595.79.022.026.038.054.06.08l56 64c1.519 1.736 3.714 2.732 6.021 2.732s4.502-.996 6.021-2.732l56-64c.022-.025.038-.054.06-.08.215-.252.415-.515.595-.79.019-.029.041-.057.06-.086.187-.292.352-.596.498-.908.031-.065.057-.132.086-.198.116-.266.218-.537.305-.813.019-.059.041-.117.058-.177.093-.321.164-.648.216-.979.01-.068.017-.135.026-.204.038-.29.06-.581.066-.874.001-.06.005-.119.005-.179-.001-.344-.023-.688-.069-1.032zm-97.091-22.949h66.326l9.09 16h-84.507zm33.163 75.852-38.37-43.852h76.74z"/><g fill="#0faa00"><path d="m118 86c-4.418 0-8-3.582-8-8v-32c0-4.418 3.582-8 8-8s8 3.582 8 8v32c0 4.418-3.582 8-8 8z"/><path d="m182 86c-4.418 0-8-3.582-8-8v-32c0-4.418 3.582-8 8-8s8 3.582 8 8v32c0 4.418-3.582 8-8 8z"/></g></svg>