<svg id="cec" enable-background="new 0 0 300 300" height="512" viewBox="0 0 300 300" width="512" xmlns="http://www.w3.org/2000/svg"><path d="m107.884 129.413h-16v-8h16c4.418 0 8-3.582 8-8s-3.582-8-8-8h-16v-8c0-4.418-3.582-8-8-8s-8 3.582-8 8v8h-16c-4.418 0-8 3.582-8 8v24c0 4.418 3.582 8 8 8h16v8h-16c-4.418 0-8 3.582-8 8s3.582 8 8 8h16v8c0 4.418 3.582 8 8 8s8-3.582 8-8v-8h16c4.418 0 8-3.582 8-8v-24c0-4.418-3.582-8-8-8zm-40 0v-8h8v8zm32 24h-8v-8h8z" fill="#0faa00"/><path d="m280.116 81.883c-.008-3.049-1.721-5.693-4.233-7.037v-9.455c-.055-21.738-16.266-39.388-36.156-39.388-.028 0-.057 0-.085 0-17.6.045-31.829 13.32-35.066 31.408h-176.692c-4.418 0-8 3.582-8 8v152c0 4.418 3.582 8 8 8h180.21l25.552 44.562c1.426 2.487 4.074 4.021 6.94 4.021h.021c2.874-.008 5.523-1.556 6.939-4.056l27.239-48.069c.571-1.008.894-2.109.995-3.225.062-.403.105-.812.105-1.233v-128.452c2.523-1.351 4.239-4.013 4.231-7.076zm-20.232 127.53h-40v-56.14c0-.009 0-.018 0-.027v-63.209l40-.102zm-20.201-167.409h.044c11.085 0 20.123 10.499 20.156 23.408v8.522l-40 .102v-8.645c-.033-13.085 8.665-23.358 19.8-23.387zm-203.799 31.409h168v1.876c-2.265 1.418-3.774 3.93-3.767 6.799.007 2.854 1.513 5.349 3.767 6.759v58.8l-11.374 3.792-13.199-32.996c-1.289-3.223-4.51-5.243-7.969-5.011-3.462.234-6.378 2.675-7.22 6.041l-8 32c-1.071 4.286 1.535 8.63 5.821 9.701 4.288 1.074 8.63-1.534 9.702-5.82l2-7.998 6.812 17.028c1.245 3.113 4.24 5.031 7.428 5.031.839 0 1.692-.133 2.53-.412l13.47-4.49v44.9h-168v-136zm204.66 176.428-13.653-23.812 27.185-.068z"/><path d="m139.884 81.413c-4.418 0-8 3.582-8 8v24c0 4.418 3.582 8 8 8s8-3.582 8-8v-24c0-4.418-3.582-8-8-8z"/><path d="m139.884 129.413c-4.418 0-8 3.582-8 8v16c0 4.418 3.582 8 8 8s8-3.582 8-8v-16c0-4.418-3.582-8-8-8z"/><path d="m139.884 169.413c-4.418 0-8 3.582-8 8v16c0 4.418 3.582 8 8 8s8-3.582 8-8v-16c0-4.418-3.582-8-8-8z"/></svg>