<svg id="shine" enable-background="new 0 0 300 300" height="512" viewBox="0 0 300 300" width="512" xmlns="http://www.w3.org/2000/svg"><path d="m174 142h-16v-8h16c4.418 0 8-3.582 8-8s-3.582-8-8-8h-16v-8c0-4.418-3.582-8-8-8s-8 3.582-8 8v8h-16c-4.418 0-8 3.582-8 8v24c0 4.418 3.582 8 8 8h16v8h-16c-4.418 0-8 3.582-8 8s3.582 8 8 8h16v8c0 4.418 3.582 8 8 8s8-3.582 8-8v-8h16c4.418 0 8-3.582 8-8v-24c0-4.418-3.582-8-8-8zm-40 0v-8h8v8zm32 24h-8v-8h8z" fill="#0faa00"/><path d="m150 54c-52.935 0-96 43.065-96 96s43.065 96 96 96 96-43.065 96-96-43.065-96-96-96zm0 176c-44.112 0-80-35.888-80-80s35.888-80 80-80 80 35.888 80 80-35.888 80-80 80z"/><path d="m150 78c-39.701 0-72 32.299-72 72s32.299 72 72 72c12.34 0 24.519-3.178 35.219-9.189 3.852-2.164 5.22-7.041 3.056-10.894-2.164-3.851-7.041-5.221-10.893-3.056-8.312 4.67-17.78 7.139-27.382 7.139-30.878 0-56-25.121-56-56s25.122-56 56-56 56 25.121 56 56c0 8.075-1.679 15.861-4.99 23.145-1.829 4.021-.05 8.765 3.972 10.593s8.765.052 10.594-3.972c4.262-9.376 6.424-19.391 6.424-29.766 0-39.701-32.299-72-72-72z"/><path d="m150 46c4.418 0 8-3.582 8-8v-8c0-4.418-3.582-8-8-8s-8 3.582-8 8v8c0 4.418 3.582 8 8 8z"/><path d="m150 254c-4.418 0-8 3.582-8 8v8c0 4.418 3.582 8 8 8s8-3.582 8-8v-8c0-4.418-3.582-8-8-8z"/><path d="m38 142h-8c-4.418 0-8 3.582-8 8s3.582 8 8 8h8c4.418 0 8-3.582 8-8s-3.582-8-8-8z"/><path d="m270 142h-8c-4.418 0-8 3.582-8 8s3.582 8 8 8h8c4.418 0 8-3.582 8-8s-3.582-8-8-8z"/><path d="m229.196 78.804c2.047 0 4.095-.781 5.657-2.343l5.657-5.657c3.125-3.125 3.125-8.189 0-11.314-3.124-3.123-8.189-3.123-11.313 0l-5.657 5.657c-3.125 3.125-3.125 8.189 0 11.314 1.561 1.561 3.608 2.343 5.656 2.343z"/><path d="m65.147 223.538-5.657 5.657c-3.125 3.125-3.125 8.189 0 11.314 1.562 1.562 3.609 2.343 5.657 2.343s4.095-.781 5.657-2.343l5.657-5.657c3.125-3.125 3.125-8.189 0-11.314-3.124-3.123-8.19-3.123-11.314 0z"/><path d="m65.147 76.461c1.562 1.562 3.609 2.343 5.657 2.343s4.095-.781 5.657-2.343c3.125-3.125 3.125-8.189 0-11.314l-5.657-5.657c-3.124-3.123-8.189-3.123-11.313 0-3.125 3.125-3.125 8.189 0 11.314z"/><path d="m234.853 223.538c-3.124-3.123-8.189-3.123-11.313 0-3.125 3.125-3.125 8.189 0 11.314l5.657 5.657c1.562 1.562 3.609 2.343 5.657 2.343s4.095-.781 5.657-2.343c3.125-3.125 3.125-8.189 0-11.314z"/></svg>