<svg id="eye" enable-background="new 0 0 300 300" height="512" viewBox="0 0 300 300" width="512" xmlns="http://www.w3.org/2000/svg"><path d="m174 150h-16v-8h16c4.418 0 8-3.582 8-8s-3.582-8-8-8h-16v-8c0-4.418-3.582-8-8-8s-8 3.582-8 8v8h-16c-4.418 0-8 3.582-8 8v24c0 4.418 3.582 8 8 8h16v8h-16c-4.418 0-8 3.582-8 8s3.582 8 8 8h16v8c0 4.418 3.582 8 8 8s8-3.582 8-8v-8h16c4.418 0 8-3.582 8-8v-24c0-4.418-3.582-8-8-8zm-40 0v-8h8v8zm32 24h-8v-8h8z" fill="#0faa00"/><path d="m254 150c-2.047 0-4.095-.781-5.657-2.343-3.125-3.124-3.125-8.189 0-11.313l8-8c3.124-3.124 8.189-3.124 11.313 0 3.125 3.124 3.125 8.189 0 11.313l-8 8c-1.561 1.562-3.609 2.343-5.656 2.343z"/><path d="m275.773 152.461c-1.47-1.532-24.485-25.179-58.998-41.923l2.882-2.882c3.125-3.124 3.125-8.189 0-11.313-3.124-3.124-8.189-3.124-11.313 0l-7.392 7.392c-13.224-4.955-27.687-8.527-42.951-9.476v-8.259c0-4.418-3.582-8-8-8s-8 3.582-8 8v8.259c-15.264.949-29.727 4.522-42.951 9.476l-7.392-7.392c-3.124-3.124-8.189-3.124-11.313 0-3.125 3.124-3.125 8.189 0 11.313l2.882 2.882c-13.967 6.776-26.045 14.68-35.58 21.794l-3.989-3.989c-3.124-3.124-8.189-3.124-11.313 0-3.125 3.124-3.125 8.189 0 11.313l2.733 2.733c-6.466 5.555-10.279 9.477-10.849 10.072-2.969 3.095-2.969 7.982 0 11.077 2.288 2.387 56.877 58.462 125.771 58.462s123.483-56.075 125.773-58.461c2.969-3.096 2.969-7.982 0-11.078zm-77.773 5.539c0 26.467-21.533 48-48 48s-48-21.533-48-48 21.533-48 48-48 48 21.533 48 48zm-100.736-36.206c-7.097 10.305-11.264 22.776-11.264 36.206 0 13.409 4.153 25.861 11.229 36.156-25.9-11.253-46.136-27.676-55.599-36.164 9.459-8.503 29.689-24.95 55.634-36.198zm105.472 72.412c7.097-10.305 11.264-22.776 11.264-36.206 0-13.408-4.153-25.861-11.228-36.156 25.898 11.252 46.132 27.673 55.598 36.164-9.459 8.504-29.689 24.95-55.634 36.198z"/></svg>