<svg id="plant" enable-background="new 0 0 300 300" height="512" viewBox="0 0 300 300" width="512" xmlns="http://www.w3.org/2000/svg"><path d="m150 102c-17.645 0-32-14.355-32-32s14.355-32 32-32 32 14.355 32 32-14.355 32-32 32zm0-48c-8.822 0-16 7.178-16 16s7.178 16 16 16 16-7.178 16-16-7.178-16-16-16z" fill="#0faa00"/><path d="m238 22h-176c-4.418 0-8 3.582-8 8v80c0 4.418 3.582 8 8 8h79.643c-.748 2.626-1.869 7.015-2.562 11.869-.475 3.326-.67 6.39-.605 9.206-.178-.14-.348-.287-.529-.425-8.983-6.865-20.121-9.761-31.357-8.155-4.317.617-7.345 4.579-6.807 8.907 1.302 10.463 6.333 19.818 14.241 26.598h-20.024c-4.418 0-8 3.582-8 8v24c0 4.418 3.582 8 8 8h1.583l14.608 65.735c.813 3.66 4.06 6.265 7.81 6.265h104c4.418 0 8-3.582 8-8s-3.582-8-8-8h-30.027l12.445-56h1.581c4.418 0 8-3.582 8-8v-24c0-4.418-3.582-8-8-8h-29.569c4.148-2.011 7.975-4.716 11.331-8.072 7.995-7.995 12.341-18.649 12.237-30-.04-4.361-3.565-7.887-7.927-7.927-11.384-.113-22.006 4.243-30 12.238-2.956 2.956-5.41 6.278-7.328 9.862-.816-4.217.011-13.005 2.848-21.578.278-.836.404-1.686.404-2.521h80.004c4.418 0 8-3.582 8-8v-80.002c0-4.418-3.582-8-8-8zm-109.768 129.362c2.882 2.202 5.22 4.928 6.922 8.016-3.427-.832-6.67-2.372-9.552-4.574-2.882-2.203-5.219-4.927-6.922-8.016 3.426.832 6.67 2.372 9.552 4.574zm47.351 110.638h-51.165l-12.445-56h76.054zm22.417-72h-96v-8h96zm-24.614-46.448c2.565-2.565 5.575-4.521 8.862-5.799-1.278 3.287-3.234 6.297-5.799 8.862s-5.576 4.521-8.862 5.799c1.278-3.287 3.234-6.297 5.799-8.862zm33.627-41.552h-114.026c-2.9-11.229-11.758-20.087-22.987-22.987v-18.026c11.229-2.9 20.087-11.758 22.987-22.987h114.025c2.901 11.229 11.759 20.087 22.987 22.987v18.025c-11.228 2.901-20.086 11.759-22.986 22.988zm22.987-64v5.853c-2.424-1.405-4.447-3.428-5.853-5.853zm-160 0h5.853c-1.405 2.424-3.428 4.447-5.853 5.853zm0 64v-5.853c2.424 1.405 4.447 3.428 5.853 5.853zm160 0h-5.853c1.405-2.424 3.428-4.447 5.853-5.853z"/></svg>