<svg id="economy-protection" enable-background="new 0 0 300 300" height="512" viewBox="0 0 300 300" width="512" xmlns="http://www.w3.org/2000/svg"><path d="m198 262h-40c-4.418 0-8-3.582-8-8v-9.305c-10.773 1.734-21.227 1.734-32 0v9.305c0 4.418-3.582 8-8 8h-40c-4.418 0-8-3.582-8-8v-37.089c-20.393-19.598-32-46.645-32-74.911 0-57.346 46.654-104 104-104 15.701 0 30.776 3.442 44.864 10.238l24.164-9.666c2.726-1.091 5.83-.601 8.088 1.277 2.257 1.877 3.304 4.841 2.729 7.72l-4.572 22.861c10.765 11.34 18.816 24.855 23.583 39.569h22.821c7.897 0 14.323 6.426 14.323 14.323v35.353c0 7.898-6.426 14.324-14.323 14.324h-22.843c-5.288 16.35-14.457 31.018-26.834 42.911v37.09c0 4.418-3.582 8-8 8zm-32-16h24v-28.845c-.047-.108-.091-.219-.133-.33-1.176-3.113-.301-6.63 2.197-8.829 13.236-11.656 22.582-26.872 27.026-44.005.916-3.528 4.1-5.991 7.744-5.991h27.166v-32h-27.146c-3.648 0-6.836-2.469-7.747-6.003-4.021-15.599-12.349-29.853-24.08-41.22-1.953-1.893-2.811-4.647-2.277-7.314l2.51-12.55-13.801 5.521c-2.176.87-4.623.742-6.697-.348-12.719-6.692-26.433-10.086-40.762-10.086-48.523 0-88 39.477-88 88 0 25.188 10.911 49.243 29.936 65.996 2.498 2.199 3.373 5.716 2.197 8.829-.042.111-.086.222-.133.33v28.845h24v-11.146c0-2.474 1.145-4.809 3.101-6.324s4.503-2.044 6.898-1.422c7.439 1.919 14.842 2.892 22.001 2.892s14.562-.974 22.001-2.893c2.394-.622 4.941-.094 6.898 1.422 1.956 1.516 3.101 3.851 3.101 6.324zm89.677-120h.01z"/><path d="m118 198c-17.201 0-32.12-10.377-39.908-27.758-2.587-5.775-4.185-12.407-4.75-19.713l-3.043-39.361c-.164-2.122.524-4.222 1.914-5.835 1.389-1.613 3.362-2.607 5.486-2.761 11.06-.799 21.618-4.706 30.533-11.299l5.011-3.706c2.879-2.128 6.818-2.087 9.65.104l3.66 2.83c9.14 7.068 20.063 11.239 31.591 12.061l.157.011c2.123.154 4.098 1.147 5.486 2.761s2.077 3.713 1.913 5.835l-3.043 39.361c-.565 7.306-2.163 13.938-4.75 19.712-7.787 17.381-22.706 27.758-39.907 27.758zm-31.161-80.48 2.456 31.777c.422 5.466 1.565 10.312 3.398 14.403 2.465 5.502 9.867 18.3 25.307 18.3s22.842-12.798 25.307-18.301c1.833-4.09 2.977-8.937 3.398-14.402l2.455-31.752c-11.306-2.019-21.971-6.62-31.257-13.524l-.157.117c-9.188 6.795-19.748 11.35-30.907 13.382z" fill="#0faa00"/><circle cx="190" cy="110" r="8"/></svg>