<svg id="key" enable-background="new 0 0 300 300" height="512" viewBox="0 0 300 300" width="512" xmlns="http://www.w3.org/2000/svg"><path d="m86 186.75 7.554 23.25h24.446l-19.777 14.369 7.554 23.249-19.777-14.369-19.777 14.369 7.554-23.249-19.777-14.369h24.446z" fill="#0faa00"/><path d="m258 106c11.028 0 20-8.972 20-20s-8.972-20-20-20h-112.687c-9.515-23.429-32.509-40-59.313-40-35.29 0-64 28.71-64 64 0 26.081 15.974 49.622 40 59.344v12.656h-24c-4.418 0-8 3.582-8 8v96c0 4.418 3.582 8 8 8h96c4.418 0 8-3.582 8-8v-96c0-4.418-3.582-8-8-8h-24v-12.662c18.958-7.676 32.907-23.992 37.94-43.338h74.06v8h-16c-4.418 0-8 3.582-8 8v16c0 4.418 3.582 8 8 8s8-3.582 8-8v-8h8v8c0 4.418 3.582 8 8 8s8-3.582 8-8v-8h8v8c0 4.418 3.582 8 8 8s8-3.582 8-8v-16c0-4.418-3.582-8-8-8h-16v-8zm-196-16c0-13.233 10.767-24 24-24s24 10.767 24 24c0 4.284-1.148 8.406-3.227 12.003-4.156-7.168-11.908-12.003-20.773-12.003-8.866 0-16.619 4.836-20.775 12.006-2.078-3.595-3.225-7.714-3.225-12.006zm32 72c0 4.411-3.589 8-8 8s-8-3.589-8-8v-48c0-4.411 3.589-8 8-8s8 3.589 8 8zm32 16v80h-80v-80h22.131c4.397 4.906 10.778 8 17.869 8s13.472-3.094 17.869-8zm-16-46.432v-9.581c10.05-7.544 16-19.351 16-31.987 0-22.056-17.944-40-40-40s-40 17.944-40 40c0 12.662 5.941 24.453 16 31.997v9.573c-14.627-8.469-24-24.271-24-41.57 0-26.468 21.533-48 48-48s48 21.532 48 48c0 17.271-9.38 33.094-24 41.568zm39.482-49.568h108.518c2.206 0 4 1.794 4 4s-1.794 4-4 4h-108c0-2.711-.189-5.377-.518-8z"/></svg>