<svg id="business-option" enable-background="new 0 0 300 300" height="512" viewBox="0 0 300 300" width="512" xmlns="http://www.w3.org/2000/svg"><path d="m209.999 242c-2.107 0-4.146-.833-5.656-2.343l-16-16c-3.124-3.124-3.124-8.189 0-11.313 3.125-3.124 8.189-3.124 11.314 0l8.755 8.755 18.728-31.214c2.272-3.788 7.185-5.019 10.977-2.744 3.788 2.273 5.017 7.187 2.744 10.976l-24 40c-1.268 2.112-3.438 3.523-5.883 3.824-.327.039-.654.059-.979.059z" fill="#0faa00"/><path d="m90 66c-13.233 0-24 10.767-24 24s10.767 24 24 24 24-10.767 24-24-10.767-24-24-24zm0 32c-4.411 0-8-3.589-8-8s3.589-8 8-8 8 3.589 8 8-3.589 8-8 8z"/><path d="m154 82c0-4.418-3.582-8-8-8h-2.371c-1.092-3.69-2.558-7.234-4.39-10.612l1.673-1.672c3.124-3.124 3.124-8.189 0-11.313l-11.313-11.313c-3.124-3.124-8.189-3.125-11.313 0l-1.673 1.672c-3.378-1.831-6.923-3.297-10.612-4.39v-2.372c0-4.418-3.582-8-8-8h-16.001c-4.418 0-8 3.582-8 8v2.371c-3.689 1.092-7.234 2.559-10.612 4.39l-1.673-1.672c-3.123-3.124-8.188-3.124-11.313 0l-11.314 11.313c-3.124 3.124-3.124 8.189 0 11.313l1.673 1.672c-1.832 3.378-3.298 6.922-4.39 10.612h-2.371c-4.418 0-8 3.582-8 8v16c0 4.418 3.582 8 8 8h2.371c1.092 3.689 2.558 7.234 4.39 10.612l-1.673 1.673c-3.124 3.124-3.124 8.189 0 11.313l11.313 11.313c3.125 3.124 8.189 3.124 11.314 0l1.672-1.672c3.379 1.832 6.923 3.297 10.612 4.39v2.372c0 4.418 3.582 8 8 8h16c4.418 0 8-3.582 8-8v-2.371c3.689-1.092 7.233-2.558 10.612-4.39l1.672 1.672c3.125 3.124 8.189 3.124 11.314 0l11.313-11.313c3.124-3.124 3.124-8.189 0-11.313l-1.673-1.673c1.832-3.378 3.298-6.923 4.39-10.612h2.373c4.418 0 8-3.582 8-8zm-24.608 14.673c-1.009 5.995-3.301 11.536-6.812 16.469-2.266 3.182-1.902 7.534.859 10.296l.503.503-.502-.502c-2.762-2.762-7.113-3.125-10.297-.861-4.934 3.512-10.475 5.805-16.47 6.813-3.852.648-6.673 3.983-6.673 7.889 0-3.906-2.821-7.241-6.673-7.889-5.995-1.008-11.536-3.301-16.47-6.813-3.185-2.266-7.535-1.901-10.297.861l-.502.502.503-.504c2.762-2.762 3.125-7.114.859-10.296-3.512-4.933-5.804-10.474-6.812-16.469-.647-3.851-3.982-6.672-7.888-6.672 3.906 0 7.241-2.821 7.889-6.673 1.009-5.995 3.301-11.536 6.813-16.47 2.265-3.182 1.901-7.534-.86-10.296l-.503-.502.504.503c2.762 2.761 7.113 3.125 10.296.86 4.933-3.512 10.474-5.804 16.469-6.812 3.851-.649 6.672-3.984 6.672-7.89 0 3.906 2.821 7.241 6.673 7.889 5.995 1.009 11.536 3.301 16.469 6.812 3.183 2.266 7.536 1.901 10.296-.86l.504-.503-.503.502c-2.762 2.762-3.125 7.114-.86 10.296 3.513 4.934 5.805 10.475 6.813 16.47.647 3.852 3.982 6.673 7.889 6.673-3.907.001-7.242 2.822-7.889 6.674z"/><path d="m214 154c-33.084 0-60 26.916-60 60s26.916 60 60 60 60-26.916 60-60-26.916-60-60-60zm0 104c-24.262 0-44-19.738-44-44s19.738-44 44-44 44 19.738 44 44-19.738 44-44 44z"/><path d="m54.949 185.801c-3.018-9.408-4.672-19.229-4.917-29.19-.107-4.35-3.667-7.803-7.994-7.803-.066 0-.134.001-.201.002-4.417.109-7.909 3.778-7.801 8.195.283 11.488 2.193 22.82 5.678 33.683 1.09 3.395 4.232 5.558 7.616 5.558.81 0 1.634-.124 2.445-.384 4.207-1.349 6.524-5.853 5.174-10.061z"/><path d="m141.774 257.29c-9.865-1.154-19.485-3.712-28.596-7.604-4.062-1.737-8.764.152-10.499 4.214-1.736 4.063.15 8.764 4.214 10.5 10.521 4.495 21.632 7.45 33.021 8.782.316.037.629.055.939.055 4.003 0 7.46-2.999 7.937-7.071.514-4.389-2.628-8.363-7.016-8.876z"/><path d="m87.892 234.288c-7.665-6.318-14.38-13.683-19.959-21.888-2.484-3.655-7.461-4.6-11.113-2.118-3.654 2.484-4.602 7.46-2.117 11.114 6.433 9.461 14.175 17.953 23.012 25.237 1.49 1.229 3.293 1.827 5.084 1.827 2.307 0 4.596-.993 6.178-2.911 2.809-3.409 2.324-8.451-1.085-11.261z"/><path d="m257.466 143.384c.417 4.122 3.894 7.194 7.949 7.194.27 0 .542-.014.816-.041 4.396-.445 7.598-4.37 7.152-8.766-1.156-11.415-3.938-22.572-8.268-33.164-1.672-4.089-6.339-6.049-10.433-4.378-4.09 1.672-6.05 6.343-4.378 10.433 3.751 9.171 6.16 18.835 7.162 28.722z"/><path d="m164.078 50.482c7.924.762 15.749 2.436 23.258 4.974.85.287 1.714.423 2.563.423 3.336 0 6.45-2.104 7.577-5.439 1.416-4.186-.83-8.726-5.016-10.141-8.672-2.932-17.705-4.864-26.852-5.744-4.393-.418-8.307 2.799-8.729 7.198-.421 4.398 2.801 8.306 7.199 8.729z"/><path d="m213.723 68.847c8.12 5.706 15.38 12.533 21.578 20.291 1.58 1.978 3.906 3.007 6.255 3.007 1.751 0 3.515-.572 4.988-1.75 3.452-2.758 4.015-7.792 1.257-11.244-7.146-8.945-15.517-16.816-24.879-23.396-3.613-2.54-8.604-1.669-11.146 1.946-2.54 3.616-1.669 8.606 1.947 11.146z"/></svg>