<svg id="table" enable-background="new 0 0 300 300" height="512" viewBox="0 0 300 300" width="512" xmlns="http://www.w3.org/2000/svg"><path d="m222 194h-16v-8h16c4.418 0 8-3.582 8-8s-3.582-8-8-8h-16v-8c0-4.418-3.582-8-8-8s-8 3.582-8 8v8h-16c-4.418 0-8 3.582-8 8v24c0 4.418 3.582 8 8 8h16v8h-16c-4.418 0-8 3.582-8 8s3.582 8 8 8h16v8c0 4.418 3.582 8 8 8s8-3.582 8-8v-8h16c4.418 0 8-3.582 8-8v-24c0-4.418-3.582-8-8-8zm-40 0v-8h8v8zm32 24h-8v-8h8z" fill="#0faa00"/><path d="m198 130c-5.5 0-10.85.641-16 1.814v-9.814h32c4.418 0 8-3.582 8-8s-3.582-8-8-8h-32v-24h32c4.418 0 8-3.582 8-8s-3.582-8-8-8h-32v-8c0-4.418-3.582-8-8-8s-8 3.582-8 8v8h-80v-8c0-4.418-3.582-8-8-8s-8 3.582-8 8v8h-32c-4.418 0-8 3.582-8 8s3.582 8 8 8h32v24h-32c-4.418 0-8 3.582-8 8s3.582 8 8 8h32v24h-32c-4.418 0-8 3.582-8 8s3.582 8 8 8h32v8c0 4.418 3.582 8 8 8s8-3.582 8-8v-8h52.167c-7.679 11.449-12.167 25.209-12.167 40 0 39.701 32.299 72 72 72s72-32.299 72-72-32.299-72-72-72zm-112-48h80v24h-80zm0 40h80v15.528c-4.884 2.434-9.459 5.395-13.637 8.828-.747-.231-1.54-.356-2.363-.356h-64zm112 136c-30.879 0-56-25.121-56-56s25.121-56 56-56 56 25.121 56 56-25.121 56-56 56z"/><path d="m38 202h40c4.418 0 8-3.582 8-8s-3.582-8-8-8h-40c-4.418 0-8 3.582-8 8s3.582 8 8 8z"/><path d="m110 210h-72c-4.418 0-8 3.582-8 8s3.582 8 8 8h72c4.418 0 8-3.582 8-8s-3.582-8-8-8z"/><path d="m38 42h72c4.418 0 8-3.582 8-8s-3.582-8-8-8h-72c-4.418 0-8 3.582-8 8s3.582 8 8 8z"/></svg>