<svg id="wallet" enable-background="new 0 0 300 300" height="512" viewBox="0 0 300 300" width="512" xmlns="http://www.w3.org/2000/svg"><g fill="#0faa00"><path d="m78 131.924c-4.418 0-8-3.582-8-8v-8c0-4.418 3.582-8 8-8s8 3.582 8 8v8c0 4.418-3.582 8-8 8z"/><path d="m78 163.924c-4.418 0-8-3.582-8-8v-8c0-4.418 3.582-8 8-8s8 3.582 8 8v8c0 4.418-3.582 8-8 8z"/><path d="m78 195.924c-4.418 0-8-3.582-8-8v-8c0-4.418 3.582-8 8-8s8 3.582 8 8v8c0 4.418-3.582 8-8 8z"/><path d="m78 227.924c-4.418 0-8-3.582-8-8v-8c0-4.418 3.582-8 8-8s8 3.582 8 8v8c0 4.418-3.582 8-8 8z"/></g><path d="m238 84.038v-12.308c0-7.279-3.276-14.042-8.988-18.554-5.684-4.49-12.976-6.119-20.025-4.474l-144.122 30.509c-.065.014-.131.028-.196.044-9.015 2.146-16.463 7.64-21.177 14.981-3.439 4.459-5.492 10.039-5.492 16.093v115.188c0 14.561 11.846 26.406 26.406 26.406h171.188c14.561 0 26.406-11.846 26.406-26.406v-115.188c0-13.748-10.564-25.07-24-26.291zm8 95.886h-24c-8.822 0-16-7.178-16-16s7.178-16 16-16h24zm-33.612-115.587c.065-.014.131-.028.196-.044 2.289-.542 4.663-.021 6.51 1.438s2.906 3.646 2.906 5.999v12.193h-102.142zm23.206 171.587h-171.188c-5.738 0-10.406-4.668-10.406-10.406v-112.499c0-3.493.966-6.781 2.654-9.606 1.907-2.135 4.671-3.489 7.752-3.489h171.188c5.738 0 10.406 4.668 10.406 10.405v21.595h-24c-17.645 0-32 14.355-32 32s14.355 32 32 32h24v29.594c0 5.738-4.668 10.406-10.406 10.406z"/><circle cx="230" cy="163.923" r="8"/></svg>