<?xml version="1.0" encoding="iso-8859-1"?>
<!-- Generator: Adobe Illustrator 19.0.0, SVG Export Plug-In . SVG Version: 6.00 Build 0)  -->
<svg version="1.1" id="Layer_1" xmlns="http://www.w3.org/2000/svg" xmlns:xlink="http://www.w3.org/1999/xlink" x="0px" y="0px"
	 viewBox="0 0 512 512" style="enable-background:new 0 0 512 512;" xml:space="preserve">
<g>
	<path style="fill:#DD342E;" d="M153.6,110.933c-2.56,0-5.973-1.707-6.827-4.267c-2.56-4.267-1.707-9.387,2.56-11.947L243.2,34.987
		c4.267-2.56,9.387-1.707,11.947,2.56c2.56,4.267,1.707,9.387-2.56,11.947l-93.867,59.733
		C157.013,110.08,155.307,110.933,153.6,110.933"/>
	<path style="fill:#DD342E;" d="M418.133,68.267c-0.853,0-0.853,0-1.707,0L314.027,51.2c-4.267-0.853-7.68-5.12-6.827-10.24
		c0.853-4.267,5.12-7.68,10.24-6.827L419.84,51.2c4.267,0.853,7.68,5.12,6.827,10.24C425.813,65.707,422.4,68.267,418.133,68.267"/>
</g>
<g>
	<path style="fill:#ECBA16;" d="M153.6,110.933c0,18.773-15.36,34.133-34.133,34.133s-34.133-15.36-34.133-34.133
		S100.693,76.8,119.467,76.8S153.6,92.16,153.6,110.933"/>
	<path style="fill:#ECBA16;" d="M315.733,42.667c0,18.773-15.36,34.133-34.133,34.133s-34.133-15.36-34.133-34.133
		S262.827,8.533,281.6,8.533S315.733,23.893,315.733,42.667"/>
	<path style="fill:#ECBA16;" d="M486.4,68.267c0,18.773-15.36,34.133-34.133,34.133s-34.133-15.36-34.133-34.133
		s15.36-34.133,34.133-34.133S486.4,49.493,486.4,68.267"/>
</g>
<g>
	<path style="fill:#7383BF;" d="M25.6,494.933c-5.12,0-8.533-3.413-8.533-8.533V8.533C17.067,3.413,20.48,0,25.6,0
		s8.533,3.413,8.533,8.533V486.4C34.133,491.52,30.72,494.933,25.6,494.933"/>
	<path style="fill:#7383BF;" d="M503.467,494.933H25.6c-5.12,0-8.533-3.413-8.533-8.533s3.413-8.533,8.533-8.533h477.867
		c5.12,0,8.533,3.413,8.533,8.533S508.587,494.933,503.467,494.933"/>
	<path style="fill:#7383BF;" d="M42.667,42.667H8.533C3.413,42.667,0,39.253,0,34.133S3.413,25.6,8.533,25.6h34.133
		c5.12,0,8.533,3.413,8.533,8.533S47.787,42.667,42.667,42.667"/>
	<path style="fill:#7383BF;" d="M42.667,85.333H8.533C3.413,85.333,0,81.92,0,76.8s3.413-8.533,8.533-8.533h34.133
		c5.12,0,8.533,3.413,8.533,8.533S47.787,85.333,42.667,85.333"/>
	<path style="fill:#7383BF;" d="M42.667,128H8.533C3.413,128,0,124.587,0,119.467s3.413-8.533,8.533-8.533h34.133
		c5.12,0,8.533,3.413,8.533,8.533S47.787,128,42.667,128"/>
	<path style="fill:#7383BF;" d="M42.667,170.667H8.533c-5.12,0-8.533-3.413-8.533-8.533c0-5.12,3.413-8.533,8.533-8.533h34.133
		c5.12,0,8.533,3.413,8.533,8.533C51.2,167.253,47.787,170.667,42.667,170.667"/>
	<path style="fill:#7383BF;" d="M42.667,213.333H8.533C3.413,213.333,0,209.92,0,204.8c0-5.12,3.413-8.533,8.533-8.533h34.133
		c5.12,0,8.533,3.413,8.533,8.533C51.2,209.92,47.787,213.333,42.667,213.333"/>
	<path style="fill:#7383BF;" d="M42.667,256H8.533C3.413,256,0,252.587,0,247.467c0-5.12,3.413-8.533,8.533-8.533h34.133
		c5.12,0,8.533,3.413,8.533,8.533C51.2,252.587,47.787,256,42.667,256"/>
	<path style="fill:#7383BF;" d="M42.667,298.667H8.533c-5.12,0-8.533-3.413-8.533-8.533c0-5.12,3.413-8.533,8.533-8.533h34.133
		c5.12,0,8.533,3.413,8.533,8.533C51.2,295.253,47.787,298.667,42.667,298.667"/>
	<path style="fill:#7383BF;" d="M42.667,341.333H8.533C3.413,341.333,0,337.92,0,332.8s3.413-8.533,8.533-8.533h34.133
		c5.12,0,8.533,3.413,8.533,8.533S47.787,341.333,42.667,341.333"/>
	<path style="fill:#7383BF;" d="M42.667,384H8.533C3.413,384,0,380.587,0,375.467c0-5.12,3.413-8.533,8.533-8.533h34.133
		c5.12,0,8.533,3.413,8.533,8.533C51.2,380.587,47.787,384,42.667,384"/>
	<path style="fill:#7383BF;" d="M42.667,426.667H8.533c-5.12,0-8.533-3.413-8.533-8.533s3.413-8.533,8.533-8.533h34.133
		c5.12,0,8.533,3.413,8.533,8.533S47.787,426.667,42.667,426.667"/>
	<path style="fill:#7383BF;" d="M25.6,469.333H8.533C3.413,469.333,0,465.92,0,460.8s3.413-8.533,8.533-8.533H25.6
		c5.12,0,8.533,3.413,8.533,8.533S30.72,469.333,25.6,469.333"/>
	<path style="fill:#7383BF;" d="M59.733,512c-5.12,0-8.533-3.413-8.533-8.533v-34.133c0-5.12,3.413-8.533,8.533-8.533
		s8.533,3.413,8.533,8.533v34.133C68.267,508.587,64.853,512,59.733,512"/>
	<path style="fill:#7383BF;" d="M102.4,512c-5.12,0-8.533-3.413-8.533-8.533v-34.133c0-5.12,3.413-8.533,8.533-8.533
		c5.12,0,8.533,3.413,8.533,8.533v34.133C110.933,508.587,107.52,512,102.4,512"/>
	<path style="fill:#7383BF;" d="M145.067,512c-5.12,0-8.533-3.413-8.533-8.533v-34.133c0-5.12,3.413-8.533,8.533-8.533
		c5.12,0,8.533,3.413,8.533,8.533v34.133C153.6,508.587,150.187,512,145.067,512"/>
	<path style="fill:#7383BF;" d="M187.733,512c-5.12,0-8.533-3.413-8.533-8.533v-34.133c0-5.12,3.413-8.533,8.533-8.533
		c5.12,0,8.533,3.413,8.533,8.533v34.133C196.267,508.587,192.853,512,187.733,512"/>
	<path style="fill:#7383BF;" d="M230.4,512c-5.12,0-8.533-3.413-8.533-8.533v-34.133c0-5.12,3.413-8.533,8.533-8.533
		c5.12,0,8.533,3.413,8.533,8.533v34.133C238.933,508.587,235.52,512,230.4,512"/>
	<path style="fill:#7383BF;" d="M273.067,512c-5.12,0-8.533-3.413-8.533-8.533v-34.133c0-5.12,3.413-8.533,8.533-8.533
		s8.533,3.413,8.533,8.533v34.133C281.6,508.587,278.187,512,273.067,512"/>
	<path style="fill:#7383BF;" d="M315.733,512c-5.12,0-8.533-3.413-8.533-8.533v-34.133c0-5.12,3.413-8.533,8.533-8.533
		c5.12,0,8.533,3.413,8.533,8.533v34.133C324.267,508.587,320.853,512,315.733,512"/>
	<path style="fill:#7383BF;" d="M358.4,512c-5.12,0-8.533-3.413-8.533-8.533v-34.133c0-5.12,3.413-8.533,8.533-8.533
		s8.533,3.413,8.533,8.533v34.133C366.933,508.587,363.52,512,358.4,512"/>
	<path style="fill:#7383BF;" d="M401.067,512c-5.12,0-8.533-3.413-8.533-8.533v-34.133c0-5.12,3.413-8.533,8.533-8.533
		s8.533,3.413,8.533,8.533v34.133C409.6,508.587,406.187,512,401.067,512"/>
	<path style="fill:#7383BF;" d="M443.733,512c-5.12,0-8.533-3.413-8.533-8.533v-34.133c0-5.12,3.413-8.533,8.533-8.533
		c5.12,0,8.533,3.413,8.533,8.533v34.133C452.267,508.587,448.853,512,443.733,512"/>
	<path style="fill:#7383BF;" d="M486.4,512c-5.12,0-8.533-3.413-8.533-8.533v-34.133c0-5.12,3.413-8.533,8.533-8.533
		s8.533,3.413,8.533,8.533v34.133C494.933,508.587,491.52,512,486.4,512"/>
</g>
<path style="fill:#DD342E;" d="M145.067,426.667H76.8v-95.573c0-3.413,3.413-6.827,6.827-6.827h54.613
	c3.413,0,6.827,3.413,6.827,6.827V426.667z"/>
<path style="fill:#ECBA16;" d="M256,426.667h-68.267V177.493c0-3.413,3.413-6.827,6.827-6.827h54.613
	c3.413,0,6.827,3.413,6.827,6.827C256,177.493,256,426.667,256,426.667z"/>
<path style="fill:#42B05C;" d="M366.933,426.667h-68.267v-163.84c0-3.413,3.413-6.827,6.827-6.827h54.613
	c3.413,0,6.827,3.413,6.827,6.827V426.667z"/>
<path style="fill:#DD342E;" d="M477.867,426.667H409.6v-266.24c0-3.413,3.413-6.827,6.827-6.827h54.613
	c3.413,0,6.827,3.413,6.827,6.827V426.667z"/>
<g>
</g>
<g>
</g>
<g>
</g>
<g>
</g>
<g>
</g>
<g>
</g>
<g>
</g>
<g>
</g>
<g>
</g>
<g>
</g>
<g>
</g>
<g>
</g>
<g>
</g>
<g>
</g>
<g>
</g>
</svg>
