<?xml version="1.0" encoding="iso-8859-1"?>
<!-- Generator: Adobe Illustrator 19.0.0, SVG Export Plug-In . SVG Version: 6.00 Build 0)  -->
<svg version="1.1" id="Layer_1" xmlns="http://www.w3.org/2000/svg" xmlns:xlink="http://www.w3.org/1999/xlink" x="0px" y="0px"
	 viewBox="0 0 512 512" style="enable-background:new 0 0 512 512;" xml:space="preserve">
<g>
	<path style="fill:#7383BF;" d="M52.966,211.862c-5.297,0-8.828-3.531-8.828-8.828v-97.103c0-5.297,3.531-8.828,8.828-8.828
		s8.828,3.531,8.828,8.828v97.103C61.793,208.331,58.262,211.862,52.966,211.862"/>
	<path style="fill:#7383BF;" d="M256,308.966c-5.297,0-8.828-3.531-8.828-8.828v-97.103c0-5.297,3.531-8.828,8.828-8.828
		c5.297,0,8.828,3.531,8.828,8.828v97.103C264.828,305.434,261.297,308.966,256,308.966"/>
	<path style="fill:#7383BF;" d="M52.966,414.897c-5.297,0-8.828-3.531-8.828-8.828v-97.103c0-5.297,3.531-8.828,8.828-8.828
		s8.828,3.531,8.828,8.828v97.103C61.793,411.366,58.262,414.897,52.966,414.897"/>
	<path style="fill:#7383BF;" d="M97.103,229.517c-3.531,0-7.062-1.766-7.945-5.297c-1.766-4.414,0-9.71,5.297-11.476l132.414-52.966
		c4.414-1.766,9.71,0,11.476,5.297c1.766,4.414,0,9.71-5.297,11.476l-132.414,52.966C98.869,229.517,97.986,229.517,97.103,229.517"
		/>
	<path style="fill:#7383BF;" d="M238.345,150.069c-0.883,0-2.648,0-3.531-0.883L102.4,87.393c-4.414-1.766-6.179-7.062-4.414-11.476
		c1.766-4.414,7.062-6.179,11.476-4.414l132.414,61.793c4.414,1.766,6.179,7.062,4.414,11.476
		C244.524,148.303,241.876,150.069,238.345,150.069"/>
	<path style="fill:#7383BF;" d="M105.931,441.379c-2.648,0-6.179-1.766-7.945-4.414c-2.648-4.414-0.883-9.71,3.531-12.359
		l123.586-70.621c4.414-2.648,9.71-0.883,12.359,3.531s0.883,9.71-3.531,12.359l-123.586,70.621
		C108.579,441.379,107.697,441.379,105.931,441.379"/>
	<path style="fill:#7383BF;" d="M229.517,353.103c-0.883,0-2.648,0-3.531-0.883L93.572,290.428
		c-4.414-1.766-6.179-7.062-4.414-11.476s7.062-6.179,11.476-4.414l132.414,61.793c4.414,1.766,6.179,7.062,4.414,11.476
		C235.697,351.338,233.048,353.103,229.517,353.103"/>
	<path style="fill:#7383BF;" d="M282.483,353.103c-3.531,0-6.179-1.766-7.945-5.297c-1.766-4.414,0-9.71,4.414-11.476
		l132.414-61.793c4.414-1.766,9.71,0,11.476,4.414c1.766,4.414,0,9.71-4.414,11.476l-132.414,61.793
		C285.131,353.103,283.366,353.103,282.483,353.103"/>
	<path style="fill:#7383BF;" d="M414.897,229.517c-0.883,0-1.766,0-3.531-0.883l-132.414-52.966
		c-4.414-1.766-7.062-7.062-5.297-11.476c1.766-4.414,7.062-7.062,11.476-5.297l132.414,52.966
		c4.414,1.766,7.062,7.062,5.297,11.476C421.959,227.752,418.428,229.517,414.897,229.517"/>
</g>
<path style="fill:#ECBA16;" d="M105.931,52.966c0,29.131-23.834,52.966-52.966,52.966S0,82.097,0,52.966S23.834,0,52.966,0
	S105.931,23.834,105.931,52.966"/>
<path style="fill:#42B05C;" d="M105.931,459.034c0,29.131-23.834,52.966-52.966,52.966S0,488.165,0,459.034
	c0-29.131,23.834-52.966,52.966-52.966S105.931,429.903,105.931,459.034"/>
<path style="fill:#DD342E;" d="M105.931,256c0,29.131-23.834,52.966-52.966,52.966S0,285.131,0,256s23.834-52.966,52.966-52.966
	S105.931,226.869,105.931,256"/>
<path style="fill:#42B05C;" d="M512,256c0,29.131-23.835,52.966-52.966,52.966c-29.131,0-52.966-23.835-52.966-52.966
	s23.834-52.966,52.966-52.966C488.165,203.034,512,226.869,512,256"/>
<path style="fill:#DD342E;" d="M308.966,150.069c0,29.131-23.835,52.966-52.966,52.966s-52.966-23.834-52.966-52.966
	S226.869,97.103,256,97.103S308.966,120.938,308.966,150.069"/>
<path style="fill:#ECBA16;" d="M308.966,353.103c0,29.131-23.835,52.966-52.966,52.966s-52.966-23.835-52.966-52.966
	c0-29.131,23.834-52.966,52.966-52.966S308.966,323.972,308.966,353.103"/>
<g>
</g>
<g>
</g>
<g>
</g>
<g>
</g>
<g>
</g>
<g>
</g>
<g>
</g>
<g>
</g>
<g>
</g>
<g>
</g>
<g>
</g>
<g>
</g>
<g>
</g>
<g>
</g>
<g>
</g>
</svg>
