<?xml version="1.0" encoding="iso-8859-1"?>
<!-- Generator: Adobe Illustrator 19.0.0, SVG Export Plug-In . SVG Version: 6.00 Build 0)  -->
<svg version="1.1" id="Layer_1" xmlns="http://www.w3.org/2000/svg" xmlns:xlink="http://www.w3.org/1999/xlink" x="0px" y="0px"
	 viewBox="0 0 510.234 510.234" style="enable-background:new 0 0 510.234 510.234;" xml:space="preserve">
<path style="fill:#A2C9EC;" d="M318.619,158.897c0,87.393-71.503,158.897-158.897,158.897S0.826,246.29,0.826,158.897
	S72.33,0,159.723,0S318.619,71.503,318.619,158.897"/>
<path style="fill:#434C6D;" d="M498.702,499.641L498.702,499.641c-14.124,14.124-36.193,14.124-50.317,0L315.971,364.579
	l50.317-50.317l133.297,135.062C512.826,463.448,512.826,485.517,498.702,499.641"/>
<path style="fill:#7383BF;" d="M284.192,257.766c-7.062,8.828-15.89,17.655-24.717,24.717l69.738,69.738l24.717-24.717
	L284.192,257.766z"/>
<g>
	<path style="fill:#FFFFFF;" d="M200.33,219.807L94.399,175.669l7.062-15.89l105.931,44.138L200.33,219.807z"/>
	<path style="fill:#FFFFFF;" d="M102.343,158.014l-8.828-15.007l105.931-61.793l8.828,15.007L102.343,158.014z"/>
</g>
<g>
	<path style="fill:#7383BF;" d="M366.288,414.897l-12.359-13.241l48.552-48.552l12.359,12.359L366.288,414.897z"/>
	<path style="fill:#7383BF;" d="M419.254,467.862l-12.359-13.241l48.552-48.552l12.359,12.359L419.254,467.862z"/>
</g>
<g>
	<path style="fill:#42B05C;" d="M115.585,158.897c0,15.007-11.476,26.483-26.483,26.483s-26.483-11.476-26.483-26.483
		c0-15.007,11.476-26.483,26.483-26.483S115.585,143.89,115.585,158.897"/>
	<path style="fill:#42B05C;" d="M239.171,88.276c0,15.007-11.476,26.483-26.483,26.483c-15.007,0-26.483-11.476-26.483-26.483
		s11.476-26.483,26.483-26.483C227.695,61.793,239.171,73.269,239.171,88.276"/>
	<path style="fill:#42B05C;" d="M239.171,220.69c0,15.007-11.476,26.483-26.483,26.483c-15.007,0-26.483-11.476-26.483-26.483
		c0-15.007,11.476-26.483,26.483-26.483C227.695,194.207,239.171,205.683,239.171,220.69"/>
</g>
<g>
</g>
<g>
</g>
<g>
</g>
<g>
</g>
<g>
</g>
<g>
</g>
<g>
</g>
<g>
</g>
<g>
</g>
<g>
</g>
<g>
</g>
<g>
</g>
<g>
</g>
<g>
</g>
<g>
</g>
</svg>
