<?xml version="1.0" encoding="iso-8859-1"?>
<!-- Generator: Adobe Illustrator 19.0.0, SVG Export Plug-In . SVG Version: 6.00 Build 0)  -->
<svg version="1.1" id="Layer_1" xmlns="http://www.w3.org/2000/svg" xmlns:xlink="http://www.w3.org/1999/xlink" x="0px" y="0px"
	 viewBox="0 0 512.883 512.883" style="enable-background:new 0 0 512.883 512.883;" xml:space="preserve">
<path style="fill:#E8EDEE;" d="M0,106.372v386.648c0,10.593,8.828,19.421,19.421,19.421h104.166h264.828h104.166
	c10.593,0,19.421-8.828,19.421-19.421V106.372H0z"/>
<path style="fill:#FFFFFF;" d="M194.207,282.924h123.586v-26.483c0-34.428-27.365-61.793-61.793-61.793
	s-61.793,27.366-61.793,61.793V282.924z M335.448,300.579H176.552v-44.138c0-44.138,35.31-79.448,79.448-79.448
	s79.448,35.31,79.448,79.448V300.579z"/>
<path style="fill:#546A79;" d="M512,106.372H0V17.214C0,7.503,7.062,0.441,16.772,0.441H496.11c8.828,0,16.772,7.062,16.772,16.772
	v89.159H512z"/>
<path style="fill:#ED7161;" d="M79.448,53.407c0,15.007-11.476,26.483-26.483,26.483S26.483,68.414,26.483,53.407
	s11.476-26.483,26.483-26.483S79.448,38.4,79.448,53.407"/>
<path style="fill:#ECBA16;" d="M158.897,53.407c0,15.007-11.476,26.483-26.483,26.483c-15.007,0-26.483-11.476-26.483-26.483
	s11.476-26.483,26.483-26.483C147.421,26.924,158.897,38.4,158.897,53.407"/>
<path style="fill:#42B05C;" d="M238.345,53.407c0,15.007-11.476,26.483-26.483,26.483c-15.007,0-26.483-11.476-26.483-26.483
	s11.476-26.483,26.483-26.483C226.869,26.924,238.345,38.4,238.345,53.407"/>
<path style="fill:#A2C9EC;" d="M334.566,441.821H177.434c-5.297,0-9.71-4.414-9.71-9.71V292.634c0-5.297,4.414-9.71,9.71-9.71
	h157.131c5.297,0,9.71,4.414,9.71,9.71V432.11C344.276,437.407,339.862,441.821,334.566,441.821"/>
<g>
	<path style="fill:#FFFFFF;" d="M256,335.89c-9.71,0-17.655,7.945-17.655,17.655S246.29,371.2,256,371.2
		c9.71,0,17.655-7.945,17.655-17.655S265.71,335.89,256,335.89 M256,388.855c-19.421,0-35.31-15.89-35.31-35.31
		c0-19.421,15.89-35.31,35.31-35.31s35.31,15.89,35.31,35.31C291.31,372.966,275.421,388.855,256,388.855"/>
	<path style="fill:#FFFFFF;" d="M256,414.455c-5.297,0-8.828-3.531-8.828-8.828v-25.6c0-5.297,3.531-8.828,8.828-8.828
		c5.297,0,8.828,3.531,8.828,8.828v25.6C264.828,410.924,261.297,414.455,256,414.455"/>
</g>
<g>
</g>
<g>
</g>
<g>
</g>
<g>
</g>
<g>
</g>
<g>
</g>
<g>
</g>
<g>
</g>
<g>
</g>
<g>
</g>
<g>
</g>
<g>
</g>
<g>
</g>
<g>
</g>
<g>
</g>
</svg>
