<?xml version="1.0" encoding="iso-8859-1"?>
<!-- Generator: Adobe Illustrator 19.0.0, SVG Export Plug-In . SVG Version: 6.00 Build 0)  -->
<svg version="1.1" id="Layer_1" xmlns="http://www.w3.org/2000/svg" xmlns:xlink="http://www.w3.org/1999/xlink" x="0px" y="0px"
	 viewBox="0 0 512.883 512.883" style="enable-background:new 0 0 512.883 512.883;" xml:space="preserve">
<path style="fill:#E8EDEE;" d="M0,106.372v386.648c0,10.593,8.828,19.421,19.421,19.421h104.166h264.828h104.166
	c10.593,0,19.421-8.828,19.421-19.421V106.372H0z"/>
<path style="fill:#546A79;" d="M512,106.372H0V17.214C0,7.503,7.062,0.441,16.772,0.441H496.11c8.828,0,16.772,7.062,16.772,16.772
	v89.159H512z"/>
<path style="fill:#ED7161;" d="M79.448,53.407c0,15.007-11.476,26.483-26.483,26.483S26.483,68.414,26.483,53.407
	s11.476-26.483,26.483-26.483S79.448,38.4,79.448,53.407"/>
<path style="fill:#ECBA16;" d="M158.897,53.407c0,15.007-11.476,26.483-26.483,26.483c-15.007,0-26.483-11.476-26.483-26.483
	s11.476-26.483,26.483-26.483C147.421,26.924,158.897,38.4,158.897,53.407"/>
<path style="fill:#42B05C;" d="M238.345,53.407c0,15.007-11.476,26.483-26.483,26.483c-15.007,0-26.483-11.476-26.483-26.483
	s11.476-26.483,26.483-26.483C226.869,26.924,238.345,38.4,238.345,53.407"/>
<path style="fill:#7383BF;" d="M158.897,176.993H44.138c-5.297,0-8.828-3.531-8.828-8.828s3.531-8.828,8.828-8.828h114.759
	c5.297,0,8.828,3.531,8.828,8.828S164.193,176.993,158.897,176.993"/>
<path style="fill:#ECBA16;" d="M282.483,176.993h-88.276c-5.297,0-8.828-3.531-8.828-8.828s3.531-8.828,8.828-8.828h88.276
	c5.297,0,8.828,3.531,8.828,8.828S287.779,176.993,282.483,176.993"/>
<path style="fill:#42B05C;" d="M335.448,176.993h-17.655c-5.297,0-8.828-3.531-8.828-8.828s3.531-8.828,8.828-8.828h17.655
	c5.297,0,8.828,3.531,8.828,8.828S340.745,176.993,335.448,176.993"/>
<path style="fill:#7383BF;" d="M379.586,212.303H247.172c-5.297,0-8.828-3.531-8.828-8.828s3.531-8.828,8.828-8.828h132.414
	c5.297,0,8.828,3.531,8.828,8.828S384.883,212.303,379.586,212.303"/>
<g>
	<path style="fill:#DD342E;" d="M211.862,212.303H88.276c-5.297,0-8.828-3.531-8.828-8.828s3.531-8.828,8.828-8.828h123.586
		c5.297,0,8.828,3.531,8.828,8.828S217.159,212.303,211.862,212.303"/>
	<path style="fill:#DD342E;" d="M52.966,212.303h-8.828c-5.297,0-8.828-3.531-8.828-8.828s3.531-8.828,8.828-8.828h8.828
		c5.297,0,8.828,3.531,8.828,8.828S58.262,212.303,52.966,212.303"/>
</g>
<path style="fill:#7383BF;" d="M123.586,247.614H44.138c-5.297,0-8.828-3.531-8.828-8.828s3.531-8.828,8.828-8.828h79.448
	c5.297,0,8.828,3.531,8.828,8.828S128.883,247.614,123.586,247.614"/>
<path style="fill:#ECBA16;" d="M176.552,247.614h-17.655c-5.297,0-8.828-3.531-8.828-8.828s3.531-8.828,8.828-8.828h17.655
	c5.297,0,8.828,3.531,8.828,8.828S181.848,247.614,176.552,247.614"/>
<path style="fill:#42B05C;" d="M335.448,247.614H211.862c-5.297,0-8.828-3.531-8.828-8.828s3.531-8.828,8.828-8.828h123.586
	c5.297,0,8.828,3.531,8.828,8.828S340.745,247.614,335.448,247.614"/>
<path style="fill:#DD342E;" d="M158.897,282.924H44.138c-5.297,0-8.828-3.531-8.828-8.828c0-5.297,3.531-8.828,8.828-8.828h114.759
	c5.297,0,8.828,3.531,8.828,8.828C167.724,279.393,164.193,282.924,158.897,282.924"/>
<path style="fill:#7383BF;" d="M282.483,282.924h-88.276c-5.297,0-8.828-3.531-8.828-8.828c0-5.297,3.531-8.828,8.828-8.828h88.276
	c5.297,0,8.828,3.531,8.828,8.828C291.31,279.393,287.779,282.924,282.483,282.924"/>
<path style="fill:#ECBA16;" d="M282.483,318.234h-35.31c-5.297,0-8.828-3.531-8.828-8.828c0-5.297,3.531-8.828,8.828-8.828h35.31
	c5.297,0,8.828,3.531,8.828,8.828C291.31,314.703,287.779,318.234,282.483,318.234"/>
<path style="fill:#42B05C;" d="M211.862,318.234H88.276c-5.297,0-8.828-3.531-8.828-8.828c0-5.297,3.531-8.828,8.828-8.828h123.586
	c5.297,0,8.828,3.531,8.828,8.828C220.69,314.703,217.159,318.234,211.862,318.234"/>
<path style="fill:#ECBA16;" d="M52.966,318.234h-8.828c-5.297,0-8.828-3.531-8.828-8.828c0-5.297,3.531-8.828,8.828-8.828h8.828
	c5.297,0,8.828,3.531,8.828,8.828C61.793,314.703,58.262,318.234,52.966,318.234"/>
<path style="fill:#DD342E;" d="M123.586,353.545H44.138c-5.297,0-8.828-3.531-8.828-8.828s3.531-8.828,8.828-8.828h79.448
	c5.297,0,8.828,3.531,8.828,8.828S128.883,353.545,123.586,353.545"/>
<path style="fill:#ECBA16;" d="M176.552,353.545h-17.655c-5.297,0-8.828-3.531-8.828-8.828s3.531-8.828,8.828-8.828h17.655
	c5.297,0,8.828,3.531,8.828,8.828S181.848,353.545,176.552,353.545"/>
<path style="fill:#7383BF;" d="M273.655,353.545h-61.793c-5.297,0-8.828-3.531-8.828-8.828s3.531-8.828,8.828-8.828h61.793
	c5.297,0,8.828,3.531,8.828,8.828S278.952,353.545,273.655,353.545"/>
<path style="fill:#42B05C;" d="M158.897,388.855H44.138c-5.297,0-8.828-3.531-8.828-8.828s3.531-8.828,8.828-8.828h114.759
	c5.297,0,8.828,3.531,8.828,8.828S164.193,388.855,158.897,388.855"/>
<path style="fill:#ECBA16;" d="M238.345,388.855h-44.138c-5.297,0-8.828-3.531-8.828-8.828s3.531-8.828,8.828-8.828h44.138
	c5.297,0,8.828,3.531,8.828,8.828S243.641,388.855,238.345,388.855"/>
<path style="fill:#DD342E;" d="M211.862,424.166H88.276c-5.297,0-8.828-3.531-8.828-8.828s3.531-8.828,8.828-8.828h123.586
	c5.297,0,8.828,3.531,8.828,8.828S217.159,424.166,211.862,424.166"/>
<path style="fill:#7383BF;" d="M52.966,424.166h-8.828c-5.297,0-8.828-3.531-8.828-8.828s3.531-8.828,8.828-8.828h8.828
	c5.297,0,8.828,3.531,8.828,8.828S58.262,424.166,52.966,424.166"/>
<path style="fill:#42B05C;" d="M123.586,459.476H44.138c-5.297,0-8.828-3.531-8.828-8.828s3.531-8.828,8.828-8.828h79.448
	c5.297,0,8.828,3.531,8.828,8.828S128.883,459.476,123.586,459.476"/>
<path style="fill:#ECBA16;" d="M176.552,459.476h-17.655c-5.297,0-8.828-3.531-8.828-8.828s3.531-8.828,8.828-8.828h17.655
	c5.297,0,8.828,3.531,8.828,8.828S181.848,459.476,176.552,459.476"/>
<path style="fill:#7383BF;" d="M256,459.476h-44.138c-5.297,0-8.828-3.531-8.828-8.828s3.531-8.828,8.828-8.828H256
	c5.297,0,8.828,3.531,8.828,8.828S261.297,459.476,256,459.476"/>
<path style="fill:#C6E3F8;" d="M473.159,378.262c0,47.669-38.841,86.51-86.51,86.51s-86.51-38.841-86.51-86.51
	s38.841-86.51,86.51-86.51S473.159,330.593,473.159,378.262"/>
<path style="fill:#E4F3FB;" d="M417.545,297.931L306.317,409.159c6.179,15.89,16.772,30.014,30.897,39.724l120.055-120.055
	C447.559,314.703,433.434,304.11,417.545,297.931"/>
<path style="fill:#A2C9EC;" d="M308.966,378.262c0-42.372,34.428-77.683,77.683-77.683s77.683,34.428,77.683,77.683
	s-34.428,77.683-77.683,77.683S308.966,420.634,308.966,378.262 M509.352,497.434l-52.966-54.731
	c15.007-16.772,24.717-39.724,24.717-64.441c0-52.966-42.372-95.338-95.338-95.338s-94.455,42.372-94.455,95.338
	s42.372,95.338,95.338,95.338c21.186,0,41.49-7.062,57.379-19.421l52.966,55.614c1.766,1.766,4.414,2.648,6.179,2.648
	c1.766,0,4.414-0.883,6.179-2.648C512.883,506.262,512.883,500.966,509.352,497.434"/>
<g>
</g>
<g>
</g>
<g>
</g>
<g>
</g>
<g>
</g>
<g>
</g>
<g>
</g>
<g>
</g>
<g>
</g>
<g>
</g>
<g>
</g>
<g>
</g>
<g>
</g>
<g>
</g>
<g>
</g>
</svg>
