<?xml version="1.0" encoding="iso-8859-1"?>
<!-- Generator: Adobe Illustrator 19.0.0, SVG Export Plug-In . SVG Version: 6.00 Build 0)  -->
<svg version="1.1" id="Layer_1" xmlns="http://www.w3.org/2000/svg" xmlns:xlink="http://www.w3.org/1999/xlink" x="0px" y="0px"
	 viewBox="0 0 512.883 512.883" style="enable-background:new 0 0 512.883 512.883;" xml:space="preserve">
<path style="fill:#E8EDEE;" d="M0,106.372v254.234c0,10.593,8.828,19.421,19.421,19.421h104.166h29.131
	c-1.766-8.828-2.648-17.655-2.648-26.483v-88.276c47.669-6.179,84.745-20.303,105.931-35.31
	c21.186,15.007,58.262,29.131,105.931,35.31v88.276c0,8.828-0.883,17.655-2.648,26.483h29.131h104.166
	c10.593,0,19.421-8.828,19.421-19.421V106.372H0z"/>
<path style="fill:#546A79;" d="M512,106.372H0V17.214C0,7.503,7.062,0.441,16.772,0.441H496.11c8.828,0,16.772,7.062,16.772,16.772
	v89.159H512z"/>
<path style="fill:#ED7161;" d="M79.448,53.407c0,15.007-11.476,26.483-26.483,26.483S26.483,68.414,26.483,53.407
	s11.476-26.483,26.483-26.483S79.448,38.4,79.448,53.407"/>
<path style="fill:#ECBA16;" d="M158.897,53.407c0,15.007-11.476,26.483-26.483,26.483c-15.007,0-26.483-11.476-26.483-26.483
	s11.476-26.483,26.483-26.483C147.421,26.924,158.897,38.4,158.897,53.407"/>
<g>
	<path style="fill:#42B05C;" d="M238.345,53.407c0,15.007-11.476,26.483-26.483,26.483c-15.007,0-26.483-11.476-26.483-26.483
		s11.476-26.483,26.483-26.483C226.869,26.924,238.345,38.4,238.345,53.407"/>
	<path style="fill:#42B05C;" d="M256,512.441c-13.241-5.297-26.483-10.593-39.724-20.303
		c-38.841-31.779-66.207-85.628-66.207-138.593v-88.276c47.669-6.179,84.745-20.303,105.931-35.31
		c21.186,15.007,58.262,29.131,105.931,35.31v88.276c0,52.966-27.366,106.814-66.207,138.593
		C282.483,501.848,269.241,507.145,256,512.441"/>
</g>
<path style="fill:#FFFFFF;" d="M317.793,362.372c0,34.428-27.365,61.793-61.793,61.793s-61.793-27.366-61.793-61.793
	s27.366-61.793,61.793-61.793S317.793,327.945,317.793,362.372"/>
<path style="fill:#7383BF;" d="M282.483,371.2h-52.966c-5.297,0-8.828-3.531-8.828-8.828s3.531-8.828,8.828-8.828h52.966
	c5.297,0,8.828,3.531,8.828,8.828S287.779,371.2,282.483,371.2"/>
<g>
</g>
<g>
</g>
<g>
</g>
<g>
</g>
<g>
</g>
<g>
</g>
<g>
</g>
<g>
</g>
<g>
</g>
<g>
</g>
<g>
</g>
<g>
</g>
<g>
</g>
<g>
</g>
<g>
</g>
</svg>
