<?xml version="1.0" encoding="iso-8859-1"?>
<!-- Generator: Adobe Illustrator 19.0.0, SVG Export Plug-In . SVG Version: 6.00 Build 0)  -->
<svg version="1.1" id="Layer_1" xmlns="http://www.w3.org/2000/svg" xmlns:xlink="http://www.w3.org/1999/xlink" x="0px" y="0px"
	 viewBox="0 0 512.883 512.883" style="enable-background:new 0 0 512.883 512.883;" xml:space="preserve">
<path style="fill:#546A79;" d="M512,106.372H0V17.214C0,7.503,7.062,0.441,16.772,0.441H496.11c8.828,0,16.772,7.062,16.772,16.772
	v89.159H512z"/>
<path style="fill:#ED7161;" d="M79.448,53.407c0,15.007-11.476,26.483-26.483,26.483S26.483,68.414,26.483,53.407
	s11.476-26.483,26.483-26.483S79.448,38.4,79.448,53.407"/>
<path style="fill:#ECBA16;" d="M158.897,53.407c0,15.007-11.476,26.483-26.483,26.483c-15.007,0-26.483-11.476-26.483-26.483
	s11.476-26.483,26.483-26.483C147.421,26.924,158.897,38.4,158.897,53.407"/>
<path style="fill:#42B05C;" d="M238.345,53.407c0,15.007-11.476,26.483-26.483,26.483c-15.007,0-26.483-11.476-26.483-26.483
	s11.476-26.483,26.483-26.483C226.869,26.924,238.345,38.4,238.345,53.407"/>
<path style="fill:#E8EDEE;" d="M0,106.372v386.648c0,10.593,8.828,19.421,19.421,19.421h104.166h264.828h104.166
	c10.593,0,19.421-8.828,19.421-19.421V106.372H0z"/>
<path style="fill:#ECBA16;" d="M392.828,222.014c-34.428-6.179-65.324,12.359-77.683,41.49c-2.648,6.179-8.828,10.593-15.89,10.593
	H74.152c-7.062,0-12.359,5.297-12.359,12.359v22.952v42.372c0,6.179,4.414,10.593,10.593,10.593H86.51
	c6.179,0,10.593-4.414,10.593-10.593v-5.297c0-6.179,4.414-10.593,10.593-10.593h49.434c6.179,0,10.593,4.414,10.593,10.593v14.124
	c0,6.179,4.414,10.593,10.593,10.593h14.124c6.179,0,10.593-4.414,10.593-10.593V320c0-6.179,4.414-10.593,10.593-10.593h85.628
	c7.062,0,12.359,4.414,15.89,10.593c10.593,24.717,35.31,42.372,64.441,42.372c43.255,0,77.683-39.724,68.855-84.745
	C443.145,249.379,420.193,227.31,392.828,222.014"/>
<g>
	<path style="fill:#C69817;" d="M414.897,291.752c0,19.421-15.89,35.31-35.31,35.31c-19.421,0-35.31-15.89-35.31-35.31
		c0-19.421,15.89-35.31,35.31-35.31C399.007,256.441,414.897,272.331,414.897,291.752"/>
	<path style="fill:#C69817;" d="M123.586,335.89h17.655v-61.793h-17.655V335.89z"/>
</g>
<g>
</g>
<g>
</g>
<g>
</g>
<g>
</g>
<g>
</g>
<g>
</g>
<g>
</g>
<g>
</g>
<g>
</g>
<g>
</g>
<g>
</g>
<g>
</g>
<g>
</g>
<g>
</g>
<g>
</g>
</svg>
