<?xml version="1.0" encoding="iso-8859-1"?>
<!-- Generator: Adobe Illustrator 19.0.0, SVG Export Plug-In . SVG Version: 6.00 Build 0)  -->
<svg version="1.1" id="Layer_1" xmlns="http://www.w3.org/2000/svg" xmlns:xlink="http://www.w3.org/1999/xlink" x="0px" y="0px"
	 viewBox="0 0 512.883 512.883" style="enable-background:new 0 0 512.883 512.883;" xml:space="preserve">
<path style="fill:#E8EDEE;" d="M0,106.372v386.648c0,10.593,8.828,19.421,19.421,19.421h104.166h264.828h104.166
	c10.593,0,19.421-8.828,19.421-19.421V106.372H0z"/>
<path style="fill:#7383BF;" d="M123.586,150.51H79.448c-5.297,0-8.828-3.531-8.828-8.828s3.531-8.828,8.828-8.828h44.138
	c5.297,0,8.828,3.531,8.828,8.828S128.883,150.51,123.586,150.51"/>
<path style="fill:#42B05C;" d="M44.138,150.51H35.31c-5.297,0-8.828-3.531-8.828-8.828s3.531-8.828,8.828-8.828h8.828
	c5.297,0,8.828,3.531,8.828,8.828S49.434,150.51,44.138,150.51"/>
<path style="fill:#ED7161;" d="M70.621,185.821H35.31c-5.297,0-8.828-3.531-8.828-8.828s3.531-8.828,8.828-8.828h35.31
	c5.297,0,8.828,3.531,8.828,8.828S75.917,185.821,70.621,185.821"/>
<path style="fill:#ECBA16;" d="M123.586,185.821h-17.655c-5.297,0-8.828-3.531-8.828-8.828s3.531-8.828,8.828-8.828h17.655
	c5.297,0,8.828,3.531,8.828,8.828S128.883,185.821,123.586,185.821"/>
<path style="fill:#7383BF;" d="M476.69,291.752h-44.138c-5.297,0-8.828-3.531-8.828-8.828s3.531-8.828,8.828-8.828h44.138
	c5.297,0,8.828,3.531,8.828,8.828S481.986,291.752,476.69,291.752"/>
<path style="fill:#42B05C;" d="M397.241,291.752h-8.828c-5.297,0-8.828-3.531-8.828-8.828s3.531-8.828,8.828-8.828h8.828
	c5.297,0,8.828,3.531,8.828,8.828S402.538,291.752,397.241,291.752"/>
<path style="fill:#ED7161;" d="M423.724,327.062h-35.31c-5.297,0-8.828-3.531-8.828-8.828s3.531-8.828,8.828-8.828h35.31
	c5.297,0,8.828,3.531,8.828,8.828S429.021,327.062,423.724,327.062"/>
<path style="fill:#ECBA16;" d="M476.69,327.062h-17.655c-5.297,0-8.828-3.531-8.828-8.828s3.531-8.828,8.828-8.828h17.655
	c5.297,0,8.828,3.531,8.828,8.828S481.986,327.062,476.69,327.062"/>
<g>
	<path style="fill:#42B05C;" d="M432.552,203.476c-5.297,0-8.828-3.531-8.828-8.828v-52.966c0-5.297,3.531-8.828,8.828-8.828
		s8.828,3.531,8.828,8.828v52.966C441.379,199.945,437.848,203.476,432.552,203.476"/>
	<path style="fill:#42B05C;" d="M459.034,176.993h-52.966c-5.297,0-8.828-3.531-8.828-8.828s3.531-8.828,8.828-8.828h52.966
		c5.297,0,8.828,3.531,8.828,8.828S464.331,176.993,459.034,176.993"/>
</g>
<g>
	<path style="fill:#DD342E;" d="M52.966,327.062c-2.648,0-4.414-0.883-6.179-2.648c-3.531-3.531-3.531-8.828,0-12.359l52.966-52.966
		c3.531-3.531,8.828-3.531,12.359,0s3.531,8.828,0,12.359l-52.966,52.966C57.379,326.179,55.614,327.062,52.966,327.062"/>
	<path style="fill:#DD342E;" d="M105.931,327.062c-2.648,0-4.414-0.883-6.179-2.648l-52.966-52.966
		c-3.531-3.531-3.531-8.828,0-12.359c3.531-3.531,8.828-3.531,12.359,0l52.966,52.966c3.531,3.531,3.531,8.828,0,12.359
		C110.345,326.179,108.579,327.062,105.931,327.062"/>
</g>
<path style="fill:#ECBA16;" d="M335.448,309.407H176.552l-26.483-88.276h211.862L335.448,309.407z"/>
<path style="fill:#B78B11;" d="M344.276,221.131H167.724V150.51h61.793L256,176.993h88.276V221.131z"/>
<path style="fill:#FFFFFF;" d="M291.31,274.097H220.69c-5.297,0-8.828-3.531-8.828-8.828c0-5.297,3.531-8.828,8.828-8.828h70.621
	c5.297,0,8.828,3.531,8.828,8.828C300.138,270.566,296.607,274.097,291.31,274.097"/>
<path style="fill:#546A79;" d="M512,106.372H0V17.214C0,7.503,7.062,0.441,16.772,0.441H496.11c8.828,0,16.772,7.062,16.772,16.772
	v89.159H512z"/>
<path style="fill:#ED7161;" d="M79.448,53.407c0,15.007-11.476,26.483-26.483,26.483S26.483,68.414,26.483,53.407
	s11.476-26.483,26.483-26.483S79.448,38.4,79.448,53.407"/>
<path style="fill:#ECBA16;" d="M158.897,53.407c0,15.007-11.476,26.483-26.483,26.483c-15.007,0-26.483-11.476-26.483-26.483
	s11.476-26.483,26.483-26.483C147.421,26.924,158.897,38.4,158.897,53.407"/>
<path style="fill:#42B05C;" d="M238.345,53.407c0,15.007-11.476,26.483-26.483,26.483c-15.007,0-26.483-11.476-26.483-26.483
	s11.476-26.483,26.483-26.483C226.869,26.924,238.345,38.4,238.345,53.407"/>
<path style="fill:#B1BBBC;" d="M256,512.441H15.89c-8.828,0-15.89-7.062-15.89-15.89V353.545h256V512.441z"/>
<path style="fill:#546A79;" d="M496.993,512.441H256V353.545h256v143.007C512,505.379,504.938,512.441,496.993,512.441"/>
<path style="fill:#7383BF;" d="M158.897,406.51H44.138c-5.297,0-8.828-3.531-8.828-8.828s3.531-8.828,8.828-8.828h114.759
	c5.297,0,8.828,3.531,8.828,8.828S164.193,406.51,158.897,406.51"/>
<path style="fill:#DD342E;" d="M211.862,406.51h-17.655c-5.297,0-8.828-3.531-8.828-8.828s3.531-8.828,8.828-8.828h17.655
	c5.297,0,8.828,3.531,8.828,8.828S217.159,406.51,211.862,406.51"/>
<path style="fill:#42B05C;" d="M211.862,441.821h-44.138c-5.297,0-8.828-3.531-8.828-8.828s3.531-8.828,8.828-8.828h44.138
	c5.297,0,8.828,3.531,8.828,8.828S217.159,441.821,211.862,441.821"/>
<path style="fill:#DD342E;" d="M52.966,441.821h-8.828c-5.297,0-8.828-3.531-8.828-8.828s3.531-8.828,8.828-8.828h8.828
	c5.297,0,8.828,3.531,8.828,8.828S58.262,441.821,52.966,441.821"/>
<g>
	<path style="fill:#ECBA16;" d="M132.414,441.821h-35.31c-5.297,0-8.828-3.531-8.828-8.828s3.531-8.828,8.828-8.828h35.31
		c5.297,0,8.828,3.531,8.828,8.828S137.71,441.821,132.414,441.821"/>
	<path style="fill:#ECBA16;" d="M61.793,477.131H44.138c-5.297,0-8.828-3.531-8.828-8.828s3.531-8.828,8.828-8.828h17.655
		c5.297,0,8.828,3.531,8.828,8.828S67.09,477.131,61.793,477.131"/>
</g>
<path style="fill:#7383BF;" d="M114.759,477.131H97.103c-5.297,0-8.828-3.531-8.828-8.828s3.531-8.828,8.828-8.828h17.655
	c5.297,0,8.828,3.531,8.828,8.828S120.055,477.131,114.759,477.131"/>
<g>
	<path style="fill:#DD342E;" d="M211.862,477.131h-61.793c-5.297,0-8.828-3.531-8.828-8.828s3.531-8.828,8.828-8.828h61.793
		c5.297,0,8.828,3.531,8.828,8.828S217.159,477.131,211.862,477.131"/>
	<path style="fill:#DD342E;" d="M467.862,406.51H353.103c-5.297,0-8.828-3.531-8.828-8.828s3.531-8.828,8.828-8.828h114.759
		c5.297,0,8.828,3.531,8.828,8.828S473.159,406.51,467.862,406.51"/>
</g>
<path style="fill:#7383BF;" d="M317.793,406.51h-17.655c-5.297,0-8.828-3.531-8.828-8.828s3.531-8.828,8.828-8.828h17.655
	c5.297,0,8.828,3.531,8.828,8.828S323.09,406.51,317.793,406.51"/>
<path style="fill:#42B05C;" d="M344.276,441.821h-44.138c-5.297,0-8.828-3.531-8.828-8.828s3.531-8.828,8.828-8.828h44.138
	c5.297,0,8.828,3.531,8.828,8.828S349.572,441.821,344.276,441.821"/>
<path style="fill:#7383BF;" d="M467.862,441.821h-8.828c-5.297,0-8.828-3.531-8.828-8.828s3.531-8.828,8.828-8.828h8.828
	c5.297,0,8.828,3.531,8.828,8.828S473.159,441.821,467.862,441.821"/>
<g>
	<path style="fill:#ECBA16;" d="M414.897,441.821h-35.31c-5.297,0-8.828-3.531-8.828-8.828s3.531-8.828,8.828-8.828h35.31
		c5.297,0,8.828,3.531,8.828,8.828S420.193,441.821,414.897,441.821"/>
	<path style="fill:#ECBA16;" d="M467.862,477.131h-17.655c-5.297,0-8.828-3.531-8.828-8.828s3.531-8.828,8.828-8.828h17.655
		c5.297,0,8.828,3.531,8.828,8.828S473.159,477.131,467.862,477.131"/>
</g>
<path style="fill:#42B05C;" d="M414.897,477.131h-17.655c-5.297,0-8.828-3.531-8.828-8.828s3.531-8.828,8.828-8.828h17.655
	c5.297,0,8.828,3.531,8.828,8.828S420.193,477.131,414.897,477.131"/>
<path style="fill:#DD342E;" d="M361.931,477.131h-61.793c-5.297,0-8.828-3.531-8.828-8.828s3.531-8.828,8.828-8.828h61.793
	c5.297,0,8.828,3.531,8.828,8.828S367.228,477.131,361.931,477.131"/>
<g>
</g>
<g>
</g>
<g>
</g>
<g>
</g>
<g>
</g>
<g>
</g>
<g>
</g>
<g>
</g>
<g>
</g>
<g>
</g>
<g>
</g>
<g>
</g>
<g>
</g>
<g>
</g>
<g>
</g>
</svg>
