<?xml version="1.0" encoding="iso-8859-1"?>
<!-- Generator: Adobe Illustrator 19.0.0, SVG Export Plug-In . SVG Version: 6.00 Build 0)  -->
<svg version="1.1" id="Layer_1" xmlns="http://www.w3.org/2000/svg" xmlns:xlink="http://www.w3.org/1999/xlink" x="0px" y="0px"
	 viewBox="0 0 512.883 512.883" style="enable-background:new 0 0 512.883 512.883;" xml:space="preserve">
<path style="fill:#546A79;" d="M512,106.372H0V17.214C0,7.503,7.062,0.441,16.772,0.441H496.11c8.828,0,16.772,7.062,16.772,16.772
	v89.159H512z"/>
<path style="fill:#ED7161;" d="M79.448,53.407c0,15.007-11.476,26.483-26.483,26.483S26.483,68.414,26.483,53.407
	s11.476-26.483,26.483-26.483S79.448,38.4,79.448,53.407"/>
<path style="fill:#ECBA16;" d="M158.897,53.407c0,15.007-11.476,26.483-26.483,26.483c-15.007,0-26.483-11.476-26.483-26.483
	s11.476-26.483,26.483-26.483C147.421,26.924,158.897,38.4,158.897,53.407"/>
<path style="fill:#42B05C;" d="M238.345,53.407c0,15.007-11.476,26.483-26.483,26.483c-15.007,0-26.483-11.476-26.483-26.483
	s11.476-26.483,26.483-26.483C226.869,26.924,238.345,38.4,238.345,53.407"/>
<path style="fill:#E8EDEE;" d="M0,106.372v386.648c0,10.593,8.828,19.421,19.421,19.421h104.166h264.828h104.166
	c10.593,0,19.421-8.828,19.421-19.421V106.372H0z"/>
<g>
	<path style="fill:#ED7161;" d="M141.241,415.338c0,24.717-19.421,44.138-44.138,44.138s-44.138-19.421-44.138-44.138
		c0-24.717,19.421-44.138,44.138-44.138S141.241,390.621,141.241,415.338"/>
	<path style="fill:#ED7161;" d="M300.138,415.338c0,24.717-19.421,44.138-44.138,44.138s-44.138-19.421-44.138-44.138
		c0-24.717,19.421-44.138,44.138-44.138S300.138,390.621,300.138,415.338"/>
	<path style="fill:#ED7161;" d="M300.138,203.476c0,24.717-19.421,44.138-44.138,44.138s-44.138-19.421-44.138-44.138
		s19.421-44.138,44.138-44.138S300.138,178.759,300.138,203.476"/>
	<path style="fill:#ED7161;" d="M459.034,415.338c0,24.717-19.421,44.138-44.138,44.138s-44.138-19.421-44.138-44.138
		c0-24.717,19.421-44.138,44.138-44.138S459.034,390.621,459.034,415.338"/>
</g>
<g>
	<path style="fill:#7383BF;" d="M247.172,371.2h17.655V247.614h-17.655V371.2z"/>
	<path style="fill:#7383BF;" d="M423.724,371.2h-17.655v-61.793H105.931V371.2H88.276v-79.448h335.448V371.2z"/>
</g>
<g>
</g>
<g>
</g>
<g>
</g>
<g>
</g>
<g>
</g>
<g>
</g>
<g>
</g>
<g>
</g>
<g>
</g>
<g>
</g>
<g>
</g>
<g>
</g>
<g>
</g>
<g>
</g>
<g>
</g>
</svg>
