<?xml version="1.0" encoding="iso-8859-1"?>
<!-- Generator: Adobe Illustrator 19.0.0, SVG Export Plug-In . SVG Version: 6.00 Build 0)  -->
<svg version="1.1" id="Layer_1" xmlns="http://www.w3.org/2000/svg" xmlns:xlink="http://www.w3.org/1999/xlink" x="0px" y="0px"
	 viewBox="0 0 512.883 512.883" style="enable-background:new 0 0 512.883 512.883;" xml:space="preserve">
<g transform="translate(1 1)">
	<path style="fill:#7383BF;" d="M285.897,463.772c0-18.538,10.593-35.31,26.483-42.372c3.531-17.655,18.538-30.897,37.076-30.897
		c4.414,0,7.945,0.883,11.476,1.766c10.593-18.538,30.897-30.897,52.966-30.897c20.303,0,38.841,10.593,49.434,25.6
		c24.717-37.959,38.841-82.979,38.841-131.531C502.172,118.614,391.828,8.269,255,8.269S7.828,118.614,7.828,255.441
		S118.172,502.614,255,502.614c15.89,0,30.897-1.766,45.021-4.414C291.193,489.372,285.897,477.897,285.897,463.772"/>
	<g>
		<path style="fill:#434C6D;" d="M255,511.441c-141.241,0-256-114.759-256-256s114.759-256,256-256s256,114.759,256,256
			c0,48.552-13.241,95.338-39.724,136.828c-1.766,2.648-4.414,4.414-7.062,4.414c-2.648,0-5.297-0.883-7.062-3.531
			c-10.593-15.007-25.6-22.952-43.255-22.952c-18.538,0-36.193,9.71-45.903,26.483c-1.766,3.531-6.179,5.297-10.593,3.531
			c-2.648-0.883-6.179-1.766-8.828-1.766c-13.241,0-25.6,9.71-28.248,23.835c-0.883,2.648-2.648,5.297-4.414,6.179
			c-13.241,6.179-21.186,20.303-21.186,34.428c0,10.593,4.414,20.303,11.476,28.248c2.648,2.648,3.531,5.297,2.648,8.828
			s-3.531,5.297-7.062,6.179C285.897,509.676,270.89,511.441,255,511.441z M255,17.097c-131.531,0-238.345,106.814-238.345,238.345
			S123.469,493.786,255,493.786c9.71,0,19.421-0.883,29.131-1.766c-4.414-8.828-7.062-17.655-7.062-27.365
			c0-20.303,10.593-38.841,27.366-48.552c6.179-19.421,23.834-33.545,45.021-33.545c2.648,0,5.297,0,7.945,0.883
			c13.241-18.538,34.428-30.014,57.379-30.014c17.655,0,35.31,7.062,48.552,19.421c20.303-35.31,30.897-75.917,30.897-116.524
			C493.345,123.91,386.531,17.097,255,17.097z"/>
		<path style="fill:#434C6D;" d="M255,511.441c-5.297,0-8.828-3.531-8.828-8.828V8.269c0-5.297,3.531-8.828,8.828-8.828
			c5.297,0,8.828,3.531,8.828,8.828v494.345C263.828,507.91,260.297,511.441,255,511.441z"/>
		<path style="fill:#434C6D;" d="M255,511.441c-0.883,0-2.648,0-3.531,0h-5.297l-2.648-1.766
			C166.724,447,122.586,354.31,122.586,255.441S166.724,63.883,243.524,1.207l2.648-1.766h5.297c0.883,0,2.648,0,3.531,0
			c5.297,0,8.828,3.531,8.828,8.828s-3.531,8.828-8.828,8.828c-0.883,0-1.766,0-2.648,0
			c-71.503,59.145-112.11,145.655-112.11,238.345s40.607,179.2,112.11,238.345c0.883,0,1.766,0,2.648,0
			c5.297,0,8.828,3.531,8.828,8.828C263.828,507.91,260.297,511.441,255,511.441z"/>
		<path style="fill:#434C6D;" d="M255,149.51c-66.207,0-129.766-19.421-184.497-56.497c-3.531-3.531-4.414-8.828-1.766-12.359
			c2.648-4.414,7.945-5.297,12.359-2.648c51.2,35.31,112.11,53.848,173.903,53.848s122.703-18.538,173.903-53.848
			c4.414-2.648,9.71-1.766,12.359,2.648c2.648,4.414,1.766,9.71-2.648,12.359C384.766,130.09,321.207,149.51,255,149.51z"/>
		<path style="fill:#434C6D;" d="M70.503,429.345c-2.648,0-5.297-0.883-7.062-3.531c-2.648-3.531-1.766-9.71,1.766-12.359
			c56.497-39.724,121.821-60.91,189.793-60.91c5.297,0,8.828,3.531,8.828,8.828S260.297,370.2,255,370.2
			c-64.441,0-126.234,19.421-179.2,57.379C74.034,428.462,72.269,429.345,70.503,429.345z"/>
		<path style="fill:#434C6D;" d="M378.586,264.269c-5.297,0-8.828-3.531-8.828-8.828c0-92.69-40.607-179.2-112.11-238.345
			c-0.883,0-1.766,0-2.648,0c-5.297,0-8.828-3.531-8.828-8.828s3.531-8.828,8.828-8.828c0.883,0,2.648,0,3.531,0h5.297l2.648,1.766
			c76.8,62.676,120.938,155.366,120.938,254.234C387.414,260.738,383.883,264.269,378.586,264.269z"/>
		<path style="fill:#434C6D;" d="M502.172,264.269H7.828c-5.297,0-8.828-3.531-8.828-8.828c0-5.297,3.531-8.828,8.828-8.828h494.345
			c5.297,0,8.828,3.531,8.828,8.828C511,260.738,507.469,264.269,502.172,264.269z"/>
	</g>
	<path style="fill:#48A0DC;" d="M466.862,415.221c0-34.428-27.366-62.676-61.793-62.676c-22.952,0-42.372,12.359-52.966,30.897
		c-3.531-0.883-7.945-1.766-11.476-1.766c-18.538,0-33.545,13.241-37.076,30.897c-15.89,7.945-26.483,23.835-26.483,42.372
		c0,25.6,20.303,47.669,45.903,47.669h95.338c0.883,0,0.883,0,1.766,0c0.883,0,0.883,0,1.766,0H459.8
		c23.834,0,42.372-19.421,42.372-44.138C502.172,437.29,487.165,418.752,466.862,415.221"/>
	<path style="fill:#A2C9EC;" d="M459.8,511.441h-37.959c-0.883,0-0.883,0-1.766,0c-0.883,0-0.883,0-1.766,0h-95.338
		c-30.014,0-54.731-25.6-54.731-56.497c0-20.303,10.593-38.841,27.366-48.552c6.179-19.421,23.835-33.545,45.021-33.545
		c2.648,0,5.297,0,7.945,0.883c13.241-18.538,34.428-30.014,57.379-30.014c36.193,0,66.207,28.248,70.621,64.441
		c21.186,7.062,35.31,27.366,35.31,50.317C511,487.607,488.048,511.441,459.8,511.441z M419.193,493.786h1.766h37.959
		c18.538,0,33.545-15.89,33.545-35.31c0-16.772-11.476-31.779-27.365-34.428l-7.062-1.765v-7.062
		c0-30.014-23.835-53.848-52.966-53.848c-18.538,0-36.193,9.71-45.903,26.483l-3.531,6.179l-7.062-2.648
		c-2.648-0.883-6.179-1.766-8.828-1.766c-13.241,0-25.6,9.71-28.248,23.834l-0.883,4.414l-3.531,1.766
		c-13.241,6.179-21.186,20.303-21.186,34.428c0,21.186,16.772,38.841,37.076,38.841L419.193,493.786z"/>
</g>
<g>
</g>
<g>
</g>
<g>
</g>
<g>
</g>
<g>
</g>
<g>
</g>
<g>
</g>
<g>
</g>
<g>
</g>
<g>
</g>
<g>
</g>
<g>
</g>
<g>
</g>
<g>
</g>
<g>
</g>
</svg>
