<svg height="512pt" viewBox="-26 0 512 512.06541" width="512pt" xmlns="http://www.w3.org/2000/svg"><path d="m344.308594 79.453125c.019531 3.015625-.519532 6.007813-1.589844 8.828125l-69.03125 17.929688c3.003906-5.207032 16.550781-29.132813 16.550781-35.585938 0-3.265625 9.492188-6.53125 8.609375-9.53125 4.921875-5.230469 11.796875-8.171875 18.976563-8.121094 14.628906 0 26.484375 11.855469 26.484375 26.480469zm0 0" fill="#7d6599"/><path d="m192.03125 78.351562c0 1.765626 5.164062 6.046876 5.519531 7.722657v4.972656c-1.148437 1.410156-1.988281 5.558594-3.3125 6.617187l-57.105469-2.761718c-1.585937-1.324219-29.570312-4.941406-30.894531-6.621094 6.355469-8.648438 35.035157-23.832031 35.035157-35.308594.027343-6.585937-1.199219-13.117187-3.617188-19.246094 6.085938-4.710937 13.574219-7.257812 21.273438-7.238281 18.753906-.035156 34.242187 14.640625 35.222656 33.367188-5.386719 4.769531-2.121094 10.726562-2.121094 18.496093zm0 0" fill="#804169"/><path d="m158.753906 465.484375c.144532.785156.203125 1.585937.175782 2.382813.027343 21.246093-15.085938 39.496093-35.964844 43.429687s-41.597656-7.5625-49.304688-27.363281c-7.707031-19.796875-.214844-42.277344 17.828125-53.496094zm0 0" fill="#464f5d"/><path d="m367.613281 430.4375c18.042969 11.21875 25.535157 33.699219 17.828125 53.496094-7.707031 19.800781-28.425781 31.296875-49.304687 27.363281-20.878907-3.933594-35.992188-22.183594-35.964844-43.429687-.03125-.796876.027344-1.597657.175781-2.382813zm0 0" fill="#464f5d"/><path d="m382.691406 123.59375 50.421875 17.652344c44.015625 84.511718 31.234375 187.421875-32.109375 258.601562-63.34375 71.179688-164.074218 95.816406-253.121094 61.914063-89.046874-33.90625-147.88671825-119.300781-147.851562-214.582031-.0585938-36.894532 8.847656-73.246094 25.953125-105.933594l137.648437-20.53125zm0 0" fill="#2c2f38"/><path d="m379.621094 141.246094h52.964844c14.625 0 26.480468-11.855469 26.480468-26.480469s-11.855468-26.484375-26.480468-26.484375h-406.070313c-14.625 0-26.484375 11.859375-26.484375 26.484375s11.859375 26.480469 26.484375 26.480469zm0 0" fill="#464f5d"/><path d="m432.585938 88.28125c-29.253907 0-52.964844 23.714844-52.964844 52.964844v88.277344c0 19.5-15.8125 35.308593-35.3125 35.308593s-35.308594-15.808593-35.308594-35.308593-15.808594-35.308594-35.3125-35.308594c-19.5 0-35.308594 15.808594-35.308594 35.308594v35.308593c0 19.503907-15.808594 35.3125-35.3125 35.3125-19.5 0-35.308594-15.808593-35.308594-35.3125v-123.585937c-.042968-29.234375-23.730468-52.921875-52.964843-52.964844zm0 0" fill="#cc66a1"/><g fill="#894b9d"><path d="m344.308594 185.386719c-4.875 0-8.828125-3.953125-8.828125-8.828125v-44.136719c0-4.878906 3.953125-8.828125 8.828125-8.828125s8.828125 3.949219 8.828125 8.828125v44.136719c0 4.875-3.953125 8.828125-8.828125 8.828125zm0 0"/><path d="m203.066406 194.214844c-4.875 0-8.828125-3.953125-8.828125-8.828125v-52.964844c0-4.878906 3.953125-8.828125 8.828125-8.828125s8.828125 3.949219 8.828125 8.828125v52.964844c0 4.875-3.953125 8.828125-8.828125 8.828125zm0 0"/><path d="m273.6875 150.074219c-4.875 0-8.828125-3.953125-8.828125-8.828125v-17.652344c0-4.875 3.953125-8.828125 8.828125-8.828125s8.828125 3.953125 8.828125 8.828125v17.652344c0 4.875-3.953125 8.828125-8.828125 8.828125zm0 0"/></g><path d="m141.273438 52.972656c.050781 11.070313-3.441407 21.867188-9.972657 30.808594-1.082031 1.597656-2.292969 3.101562-3.621093 4.5h-78.742188c-8.773438-9.664062-13.621094-22.257812-13.59375-35.308594 0-25.476562 18.136719-47.34375 43.175781-52.054687 25.035157-4.710938 49.878907 9.074219 59.136719 32.808593 2.417969 6.128907 3.644531 12.660157 3.617188 19.246094zm0 0" fill="#cc66a1"/><path d="m300.171875 70.625c-.007813 6.203125-1.652344 12.292969-4.769531 17.65625l-30.542969 13.242188-28.070313-13.242188c1.058594-2.734375-3.929687-5.191406-3.929687-8.269531 0-7.152344 2.648437-14.125-1.984375-18.917969v-.089844c4.308594-15.210937 18.207031-25.707031 34.019531-25.6875 15.8125.023438 29.683594 10.550782 33.953125 25.777344.890625 3.097656 1.335938 6.308594 1.324219 9.53125zm0 0" fill="#cc66a1"/><path d="m238.378906 79.453125c.019532 3.015625-.519531 6.007813-1.589844 8.828125h-49.789062c-.523438-1.179688-.882812-2.425781-1.058594-3.707031v-.089844c-.355468-1.652344-.53125-3.339844-.527344-5.03125.007813-10.773437 6.539063-20.464844 16.523438-24.519531 9.980469-4.050782 21.421875-1.648438 28.9375 6.070312v.089844c4.824219 4.890625 7.523438 11.488281 7.503906 18.359375zm0 0" fill="#7d6599"/><path d="m35.34375 256.007812c-4.875 0-8.828125-3.953124-8.828125-8.828124 0-6.425782.292969-12.84375.882813-19.085938.589843-6.242188 1.449218-12.492188 2.605468-18.6875 1.15625-6.199219 2.648438-12.359375 4.34375-18.28125 1.691406-5.925781 3.757813-11.953125 6.046875-17.796875 1.78125-4.539063 6.910157-6.773437 11.449219-4.988281s6.769531 6.910156 4.984375 11.449218c-2.097656 5.296876-3.953125 10.785157-5.515625 16.226563-1.5625 5.4375-2.90625 11.023437-3.964844 16.65625s-1.851562 11.378906-2.363281 17.046875-.8125 11.582031-.8125 17.460938c0 4.875-3.953125 8.828124-8.828125 8.828124zm0 0" fill="#bdc3c7"/><path d="m92.289062 393.265625c-2.339843 0-4.585937-.929687-6.238281-2.585937-18.550781-18.496094-33.339843-40.414063-43.546875-64.539063-1.320312-2.917969-.957031-6.324219.953125-8.898437 1.910157-2.574219 5.0625-3.910157 8.242188-3.492188 3.175781.417969 5.875 2.527344 7.054687 5.503906 9.332032 22.03125 22.839844 42.046875 39.777344 58.945313 2.523438 2.523437 3.277344 6.320312 1.914062 9.617187-1.367187 3.296875-4.585937 5.449219-8.15625 5.449219zm0 0" fill="#bdc3c7"/><path d="m123.621094 406.074219c0 4.875-3.953125 8.828125-8.828125 8.828125s-8.828125-3.953125-8.828125-8.828125 3.953125-8.828125 8.828125-8.828125 8.828125 3.953125 8.828125 8.828125zm0 0" fill="#bdc3c7"/></svg>