<svg height="512pt" viewBox="0 0 512 512" width="512pt" xmlns="http://www.w3.org/2000/svg"><path d="m512 401.742188v101.429687c0 4.875-3.953125 8.828125-8.828125 8.828125h-494.34375c-4.875 0-8.828125-3.953125-8.828125-8.828125v-101.429687c0-28.539063 19.5625-53.363282 47.316406-60.027344l59.234375-14.386719c22.492188 15.878906 46.71875 29.15625 72.207031 39.574219 17.832032 7.667968 32.925782 22.746094 48.816407 12.683594 8.183593-5.507813 14.859375-12.972657 19.421875-21.714844l9.003906 4.058594 9.179688-3.792969c4.558593 8.644531 11.207031 16.019531 19.332031 21.449219 15.890625 10.0625 42.488281-10.761719 60.320312-18.441407 21.730469-8.292969 42.144531-19.683593 60.617188-33.816406l17.039062 4.148437 42.195313 10.238282c27.753906 6.664062 47.316406 31.488281 47.316406 60.027344zm0 0" fill="#464f5d"/><path d="m114.757812 450.207031v61.792969h-17.65625v-61.792969c0-4.875 3.953126-8.828125 8.828126-8.828125s8.828124 3.953125 8.828124 8.828125zm0 0" fill="#2c2f38"/><path d="m414.898438 450.207031v61.792969h-17.65625v-61.792969c0-4.875 3.953124-8.828125 8.828124-8.828125s8.828126 3.953125 8.828126 8.828125zm0 0" fill="#2c2f38"/><path d="m361.929688 365.636719s-26.480469 126.855469-105.929688 146.363281c-79.449219-19.507812-105.929688-146.363281-105.929688-146.363281h91.980469c-6.578125 9.753906-16.554687 16.707031-27.980469 19.511719-3.507812.777343-7.089843 1.164062-10.683593 1.148437 2.648437 8.296875 20.214843 58.964844 52.613281 76.886719 23.382812-21.078125 41.394531-47.441406 52.523438-76.886719-3.589844.019531-7.175782-.367187-10.679688-1.148437-11.402344-2.808594-21.347656-9.761719-27.894531-19.511719zm0 0" fill="#3d324c"/><g fill="#fff"><path d="m308.523438 386.296875c-11.128907 29.445313-29.140626 55.808594-52.523438 76.886719-32.398438-17.921875-49.964844-68.589844-52.613281-76.886719 3.59375.015625 7.175781-.371094 10.683593-1.148437 10.148438-2.296876 5.03125-9.800782 13.238282-21.011719 1.679687-2.292969 18.097656-3.441407 19.6875-6.265625l9.003906-4.246094 9.179688 4.511719c1.5 2.734375 15.714843 3.707031 17.304687 6 8.207031 11.210937 5.207031 18.714843 15.359375 21.011719 3.503906.78125 7.089844 1.167968 10.679688 1.148437zm0 0"/><path d="m214.070312 385.148438c-3.507812.777343-7.089843 1.164062-10.683593 1.148437-.144531-.375-.261719-.757813-.351563-1.148437zm0 0"/><path d="m308.964844 385.148438c-.175782.351562-.265625.792968-.441406 1.148437-3.589844.019531-7.175782-.367187-10.679688-1.148437zm0 0"/></g><path d="m246.996094 357.871094c-1.496094 2.683594-3.144532 5.277344-4.945313 7.765625-6.578125 9.753906-16.554687 16.707031-27.980469 19.511719-3.507812.777343-7.089843 1.164062-10.683593 1.148437-19.316407-1.695313-37.75-8.859375-53.140625-20.660156-15.910156-11.148438-30.5625-23.996094-43.695313-38.308594l36.28125-8.742187c3.402344-.792969 6.695313-2.007813 9.796875-3.617188l53.167969 11.652344zm0 0" fill="#7d6599"/><path d="m405.449219 327.328125c-13.132813 14.3125-27.785157 27.160156-43.695313 38.308594-15.410156 11.824219-33.878906 18.992187-53.230468 20.660156-3.589844.019531-7.175782-.367187-10.679688-1.148437-11.402344-2.808594-21.347656-9.761719-27.894531-19.511719-1.722657-2.414063-3.3125-4.917969-4.769531-7.5l38.222656-34.269531 60.648437-6.957032c1.660157.691406 3.371094 1.25 5.117188 1.675782l1.0625.265624zm0 0" fill="#7d6599"/><path d="m361.929688 174.257812c33.707031-6.59375 66.367187-17.699218 97.105468-33.015624 0 0-26.484375 123.585937-114.757812 158.894531h-176.554688c-88.273437-35.308594-114.757812-158.894531-114.757812-158.894531 30.738281 15.316406 63.398437 26.421874 97.105468 33.015624zm0 0" fill="#e64c3c"/><path d="m364.050781 316.910156-98.871093 41.226563-5.65625 2.335937c-2.25.929688-4.785157.886719-7-.113281l-5.527344-2.488281-94.367188-42.902344c14.675782-7.609375 23.898438-22.75 23.921875-39.285156v-59.496094h158.898438v59.234375c-.027344 18.433594 11.363281 34.953125 28.601562 41.488281zm0 0" fill="#a5a5a4"/><path d="m220.691406 326.621094c-3.570312 0-6.789062-2.152344-8.15625-5.449219-1.367187-3.300781-.609375-7.09375 1.914063-9.621094 4.140625-5.929687 6.324219-13.007812 6.242187-20.242187 0-4.875 3.949219-8.824219 8.824219-8.824219 4.878906 0 8.828125 3.949219 8.828125 8.824219.128906 11.90625-3.910156 23.480468-11.414062 32.726562-1.652344 1.65625-3.898438 2.585938-6.238282 2.585938zm0 0" fill="#5e5f62"/><path d="m361.929688 123.585938v63.558593c.03125 36.789063-20.753907 70.429688-53.671876 86.863281l-28.601562 14.300782c-14.898438 7.414062-32.414062 7.414062-47.3125 0l-28.601562-14.300782c-32.917969-16.433593-53.703126-50.074218-53.671876-86.863281v-63.558593s70.621094-153.148438 105.929688-82.527344c35.308594-70.621094 105.929688 82.527344 105.929688 82.527344zm0 0" fill="#d1d4d1"/><path d="m220.691406 158.898438c-4.878906 0-8.828125-3.953126-8.828125-8.828126v-17.65625c0-4.875 3.949219-8.828124 8.828125-8.828124 4.875 0 8.824219 3.953124 8.824219 8.828124v17.65625c0 4.875-3.949219 8.828126-8.824219 8.828126zm0 0" fill="#2c2f38"/><path d="m291.308594 158.898438c-4.875 0-8.824219-3.953126-8.824219-8.828126v-17.65625c0-4.875 3.949219-8.828124 8.824219-8.828124 4.878906 0 8.828125 3.953124 8.828125 8.828124v17.65625c0 4.875-3.949219 8.828126-8.828125 8.828126zm0 0" fill="#2c2f38"/><path d="m238.34375 141.242188c-1.367188 0-2.714844-.316407-3.9375-.925782l-35.308594-17.65625c-4.363281-2.179687-6.132812-7.484375-3.953125-11.847656 2.175781-4.363281 7.480469-6.132812 11.84375-3.953125l35.3125 17.652344c3.667969 1.828125 5.59375 5.945312 4.652344 9.933593-.945313 3.988282-4.507813 6.804688-8.609375 6.796876zm0 0" fill="#5e5f62"/><path d="m273.65625 141.242188c-4.101562.007812-7.664062-2.808594-8.609375-6.796876-.941406-3.988281.984375-8.105468 4.652344-9.933593l35.3125-17.652344c2.820312-1.410156 6.183593-1.207031 8.8125.53125 2.632812 1.738281 4.136719 4.75 3.949219 7.902344-.191407 3.148437-2.046876 5.957031-4.871094 7.367187l-35.308594 17.65625c-1.222656.609375-2.570312.925782-3.9375.925782zm0 0" fill="#5e5f62"/><path d="m238.34375 238.34375c-4.875 0-8.828125-3.949219-8.828125-8.828125v-17.652344c0-4.875 3.953125-8.828125 8.828125-8.828125s8.828125 3.953125 8.828125 8.828125v17.652344c0 4.878906-3.953125 8.828125-8.828125 8.828125zm0 0" fill="#e64c3c"/><path d="m273.65625 238.34375c-4.875 0-8.828125-3.949219-8.828125-8.828125v-17.652344c0-4.875 3.953125-8.828125 8.828125-8.828125s8.828125 3.953125 8.828125 8.828125v17.652344c0 4.878906-3.953125 8.828125-8.828125 8.828125zm0 0" fill="#e64c3c"/><path d="m291.308594 220.691406h-70.617188c-4.878906 0-8.828125-3.953125-8.828125-8.828125s3.949219-8.828125 8.828125-8.828125h70.617188c4.878906 0 8.828125 3.953125 8.828125 8.828125s-3.949219 8.828125-8.828125 8.828125zm0 0" fill="#2c2f38"/><path d="m361.929688 61.792969v61.792969s-70.621094-132.414063-105.929688-61.792969c-35.308594-70.621094-105.929688 61.792969-105.929688 61.792969v-61.792969c0-34.128907 27.664063-61.792969 61.792969-61.792969h88.273438c34.128906 0 61.792969 27.664062 61.792969 61.792969zm0 0" fill="#2c2f38"/></svg>