<svg height="512pt" viewBox="0 -4 512 511" width="512pt" xmlns="http://www.w3.org/2000/svg"><path d="m503.464844 503.964844h-494.929688c-4.714844 0-8.535156-3.820313-8.535156-8.53125 0-4.714844 3.820312-8.535156 8.535156-8.535156h494.929688c4.714844 0 8.535156 3.820312 8.535156 8.535156 0 4.710937-3.820312 8.53125-8.535156 8.53125zm0 0" fill="#7f5b53"/><path d="m204.800781 375.710938v85.589843h-51.199219v-121.941406zm0 0" fill="#fac176"/><path d="m307.199219 339.359375v117.675781h-51.199219v-81.324218zm0 0" fill="#fac176"/><path d="m358.398438 191.5625v54.101562c.007812 9.054688-3.582032 17.742188-9.984376 24.148438l-1.449218 1.449219c-.007813.066406-.039063.125-.085938.171875l-23.039062 22.953125c-.042969.632812-.128906 1.257812-.253906 1.878906-1.371094 12.613281-5.386719 24.796875-11.777344 35.753906l-.085938.085938c-1.375 2.496093-2.886718 4.917969-4.523437 7.253906-12.363281 17.660156-30.449219 30.5-51.199219 36.351563-16.730469 4.777343-34.46875 4.777343-51.199219 0-20.75-5.851563-38.835937-18.691407-51.199219-36.351563-1.636718-2.335937-3.148437-4.757813-4.523437-7.253906l-.085937-.085938c-6.394532-10.957031-10.40625-23.140625-11.777344-35.753906-.125-.621094-.210938-1.246094-.253906-1.878906l-23.039063-22.953125c-.046875-.046875-.078125-.105469-.085937-.171875l-1.453126-1.449219c-6.398437-6.40625-9.988281-15.09375-9.984374-24.148438v-54.101562c-.050782-9.757812 2.769531-19.3125 8.109374-27.476562 9.324219-14.800782 25.601563-23.761719 43.09375-23.722657h153.597657c17.339843-.050781 33.5 8.769531 42.839843 23.378907.167969.085937.253907.171874.253907.34375 5.339843 8.164062 8.160156 17.71875 8.105469 27.476562zm0 0" fill="#fdd7ad"/><path d="m409.601562 503.964844c-4.714843 0-8.535156-3.820313-8.535156-8.53125v-136.535156c0-4.710938 3.820313-8.53125 8.535156-8.53125 4.710938 0 8.53125 3.820312 8.53125 8.53125v136.535156c0 4.710937-3.820312 8.53125-8.53125 8.53125zm0 0" fill="#59474e"/><path d="m373.863281 393.707031c-3.027343.03125-6.046875-.28125-9.003906-.929687-4.550781-1.148438-7.316406-5.757813-6.195313-10.3125 1.121094-4.554688 5.710938-7.351563 10.273438-6.257813 6.402344 1.195313 13.019531.007813 18.605469-3.339843 7.664062-5.871094 12.605469-14.613282 13.695312-24.207032.503907-3.078125 2.648438-5.632812 5.59375-6.667968 2.941407-1.03125 6.214844-.378907 8.53125 1.707031 2.320313 2.085937 3.316407 5.269531 2.597657 8.304687-1.886719 14.269532-9.671876 27.097656-21.460938 35.355469-6.792969 4.214844-14.644531 6.417969-22.636719 6.347656zm0 0" fill="#71c285"/><path d="m376.234375 428.242188c-3.832031.011718-7.648437-.433594-11.375-1.332032-4.5-1.195312-7.210937-5.777344-6.089844-10.296875 1.121094-4.519531 5.65625-7.308593 10.195313-6.265625 6.875 2.121094 14.328125 1.21875 20.5-2.480468 6.175781-3.695313 10.484375-9.84375 11.859375-16.90625.722656-2.976563 2.984375-5.339844 5.929687-6.1875 2.941406-.847657 6.113282-.050782 8.308594 2.082031 2.199219 2.136719 3.082031 5.285156 2.316406 8.25-3.742187 19.84375-21.464844 33.949219-41.644531 33.136719zm0 0" fill="#4c8056"/><path d="m375.464844 461.300781c-4.710938 0-8.53125-3.820312-8.53125-8.535156 0-4.710937 3.820312-8.53125 8.53125-8.53125.394531 0 20.617187-.53125 26.523437-12.347656 2.105469-4.21875 7.234375-5.929688 11.453125-3.824219 4.214844 2.105469 5.929688 7.234375 3.820313 11.453125-10.800781 21.535156-40.53125 21.785156-41.796875 21.785156zm0 0" fill="#4c8056"/><path d="m445.335938 393.707031c-7.988282.078125-15.839844-2.109375-22.636719-6.3125-11.78125-8.253906-19.566407-21.0625-21.460938-35.320312-.71875-3.035157.277344-6.21875 2.597657-8.304688 2.320312-2.085937 5.589843-2.742187 8.535156-1.707031 2.941406 1.03125 5.085937 3.589844 5.589844 6.664062 1.09375 9.636719 6.089843 18.398438 13.824218 24.246094 5.523438 3.285156 12.058594 4.441406 18.375 3.25 4.554688-1.105468 9.152344 1.671875 10.289063 6.21875 1.140625 4.546875-1.601563 9.164063-6.144531 10.335938-2.945313.644531-5.953126.957031-8.96875.929687zm0 0" fill="#71c285"/><path d="m442.964844 428.242188c-20.175782.8125-37.898438-13.292969-41.640625-33.136719-1.109375-4.554688 1.667969-9.152344 6.21875-10.289063 4.546875-1.140625 9.164062 1.601563 10.335937 6.144532 1.402344 7.039062 5.710938 13.15625 11.863282 16.851562 6.152343 3.691406 13.578124 4.617188 20.449218 2.542969 4.558594-1.105469 9.152344 1.671875 10.292969 6.21875s-1.605469 9.164062-6.144531 10.335937c-3.722656.898438-7.542969 1.34375-11.375 1.332032zm0 0" fill="#4c8056"/><path d="m443.734375 461.300781c-1.265625 0-30.992187-.25-41.8125-21.785156-1.363281-2.730469-1.167969-5.976563.511719-8.523437 1.683594-2.542969 4.59375-3.996094 7.640625-3.8125 3.042969.183593 5.757812 1.976562 7.121093 4.707031 6.058594 12.003906 26.332032 12.347656 26.539063 12.347656 4.710937 0 8.53125 3.820313 8.53125 8.53125 0 4.714844-3.820313 8.535156-8.53125 8.535156zm0 0" fill="#4c8056"/><path d="m59.734375 503.964844c-4.714844 0-8.535156-3.820313-8.535156-8.53125v-136.535156c0-4.710938 3.820312-8.53125 8.535156-8.53125 4.710937 0 8.53125 3.820312 8.53125 8.53125v136.535156c0 4.710937-3.820313 8.53125-8.53125 8.53125zm0 0" fill="#59474e"/><path d="m23.996094 393.707031c-3.027344.03125-6.046875-.28125-9.003906-.929687-4.546876-1.148438-7.316407-5.757813-6.195313-10.3125 1.121094-4.554688 5.710937-7.351563 10.273437-6.257813 6.402344 1.195313 13.019532.007813 18.605469-3.339843 7.664063-5.871094 12.609375-14.613282 13.695313-24.207032.503906-3.078125 2.648437-5.632812 5.59375-6.667968 2.941406-1.03125 6.214844-.378907 8.53125 1.707031 2.320312 2.085937 3.316406 5.269531 2.601562 8.304687-1.886718 14.269532-9.671875 27.097656-21.464844 35.355469-6.792968 4.214844-14.640624 6.417969-22.636718 6.347656zm0 0" fill="#71c285"/><path d="m26.367188 428.242188c-3.832032.011718-7.648438-.433594-11.375-1.332032-4.5-1.195312-7.207032-5.777344-6.089844-10.296875 1.121094-4.519531 5.65625-7.308593 10.195312-6.265625 6.875 2.121094 14.328125 1.21875 20.503906-2.480468 6.171876-3.695313 10.480469-9.84375 11.855469-16.90625 1.171875-4.542969 5.785157-7.285157 10.335938-6.144532 4.546875 1.136719 7.324219 5.734375 6.21875 10.289063-3.742188 19.84375-21.464844 33.949219-41.644531 33.136719zm0 0" fill="#4c8056"/><path d="m25.601562 461.300781c-4.714843 0-8.535156-3.820312-8.535156-8.535156 0-4.710937 3.820313-8.53125 8.535156-8.53125.390626 0 20.613282-.53125 26.519532-12.347656 2.105468-4.21875 7.234375-5.929688 11.453125-3.824219s5.929687 7.234375 3.820312 11.453125c-10.800781 21.535156-40.53125 21.785156-41.792969 21.785156zm0 0" fill="#4c8056"/><path d="m97.28125 397.019531c-7.996094.082031-15.851562-2.109375-22.648438-6.316406-11.785156-8.261719-19.566406-21.085937-21.460937-35.351563-.851563-4.589843 2.144531-9.007812 6.71875-9.921874 4.574219-.914063 9.035156 2.015624 10.015625 6.574218 1.085938 9.65625 6.097656 18.433594 13.855469 24.277344 5.523437 3.289062 12.058593 4.445312 18.375 3.253906 2.976562-.800781 6.15625.070313 8.3125 2.273438 2.152343 2.203125 2.953125 5.402344 2.089843 8.359375-.867187 2.960937-3.261718 5.222656-6.265624 5.921875-2.953126.648437-5.96875.957031-8.992188.929687zm0 0" fill="#71c285"/><path d="m93.097656 428.242188c-20.175781.8125-37.898437-13.292969-41.640625-33.136719-.765625-2.964844.117188-6.113281 2.3125-8.25 2.195313-2.132813 5.367188-2.929688 8.3125-2.082031 2.941407.847656 5.207031 3.210937 5.929688 6.1875 1.402343 7.039062 5.710937 13.15625 11.863281 16.851562 6.152344 3.691406 13.582031 4.617188 20.453125 2.542969 2.964844-.765625 6.113281.117187 8.25 2.3125 2.132813 2.199219 2.929687 5.371093 2.082031 8.3125-.847656 2.945312-3.210937 5.207031-6.1875 5.929687-3.722656.898438-7.542968 1.34375-11.375 1.332032zm0 0" fill="#4c8056"/><path d="m93.867188 461.300781c-1.261719 0-30.992188-.25-41.769532-21.785156-1.363281-2.730469-1.167968-5.976563.511719-8.523437 1.683594-2.542969 4.59375-3.996094 7.640625-3.8125 3.042969.183593 5.757812 1.976562 7.121094 4.707031 6.015625 12.003906 26.289062 12.347656 26.496094 12.347656 4.710937 0 8.53125 3.820313 8.53125 8.53125 0 4.714844-3.820313 8.535156-8.53125 8.535156zm0 0" fill="#4c8056"/><path d="m290.132812 38.046875v49.835937c.003907 2.171876-.167968 4.339844-.511718 6.484376.085937.171874.085937.253906 0 .339843l-59.222656 33.792969-59.21875-33.792969v-.339843c-.34375-2.144532-.515626-4.3125-.511719-6.484376v-49.835937c-.898438-19.777344 14.359375-36.5625 34.132812-37.546875h51.199219c19.773438.984375 35.03125 17.769531 34.132812 37.546875zm0 0" fill="#fdd7ad"/><g fill="#af8066"><path d="m204.800781 305.652344c.003907 13.183594-7.585937 25.195312-19.496093 30.851562-11.910157 5.652344-26.015626 3.941406-36.226563-4.398437l-.085937-.085938c-6.394532-10.957031-10.40625-23.140625-11.777344-35.753906l21.417968 21.417969c6.710938 6.484375 17.355469 6.484375 24.066407 0 3.21875-3.175782 5.035156-7.507813 5.035156-12.03125 0-4.523438-1.816406-8.855469-5.035156-12.03125l-25.175781-25.175782c-8-8.011718-12.484376-18.882812-12.457032-30.207031v-32.9375c0-4.714843 3.820313-8.535156 8.535156-8.535156 4.710938 0 8.53125 3.820313 8.53125 8.535156v32.9375c-.035156 6.796875 2.671876 13.320313 7.511719 18.089844l25.171875 25.175781c6.398438 6.40625 9.992188 15.09375 9.984375 24.148438zm0 0"/><path d="m302.164062 317.683594 21.421876-21.417969c-1.371094 12.613281-5.386719 24.796875-11.777344 35.753906l-.085938.085938c-14.074218 11.71875-34.882812 10.242187-47.164062-3.34375-12.277344-13.582031-11.648438-34.4375 1.425781-47.257813l25.171875-25.175781c4.839844-4.769531 7.546875-11.292969 7.511719-18.089844v-32.9375c0-4.714843 3.820312-8.535156 8.53125-8.535156 4.714843 0 8.535156 3.820313 8.535156 8.535156v32.9375c.023437 11.324219-4.457031 22.195313-12.460937 30.207031l-25.171876 25.175782c-3.222656 3.175781-5.035156 7.507812-5.035156 12.03125 0 4.523437 1.8125 8.855468 5.035156 12.03125 6.710938 6.484375 17.351563 6.484375 24.0625 0zm0 0"/><path d="m193.125 224.738281c-2.300781.019531-4.597656-.269531-6.824219-.851562-6.273437-1.636719-11.601562-5.769531-14.746093-11.4375-1.398438-2.707031-1.246094-5.960938.402343-8.527344 1.644531-2.566406 4.539063-4.058594 7.585938-3.914063 3.046875.140626 5.785156 1.898438 7.183593 4.609376.972657 1.460937 2.484376 2.480468 4.207032 2.832031 6.417968.316406 12.722656-1.796875 17.65625-5.914063 2.535156-1.691406 5.78125-1.902344 8.515625-.550781s4.539062 4.058594 4.734375 7.101563c.199218 3.042968-1.242188 5.957031-3.777344 7.648437-7.25 5.386719-15.921875 8.515625-24.9375 9.003906zm0 0"/><path d="m267.671875 224.738281c-9.019531-.492187-17.691406-3.628906-24.941406-9.019531-3.921875-2.613281-4.980469-7.914062-2.363281-11.835938 2.617187-3.921874 7.914062-4.980468 11.835937-2.363281 4.933594 4.117188 11.234375 6.230469 17.65625 5.914063 1.746094-.347656 3.28125-1.375 4.265625-2.859375 2.34375-3.992188 7.402344-5.449219 11.511719-3.320313 4.050781 2.117188 5.671875 7.082032 3.644531 11.179688-3.144531 5.667968-8.476562 9.800781-14.746094 11.433594-2.238281.59375-4.546875.886718-6.863281.871093zm0 0"/><path d="m230.398438 353.6875c-4.710938 0-8.53125-3.820312-8.53125-8.535156v-17.066406c0-4.710938 3.820312-8.53125 8.53125-8.53125 4.714843 0 8.535156 3.820312 8.535156 8.53125v17.066406c0 4.714844-3.820313 8.535156-8.535156 8.535156zm0 0"/><path d="m238.933594 345.152344h-17.066406c-4.714844 0-8.535157-3.820313-8.535157-8.53125 0-4.714844 3.820313-8.535156 8.535157-8.535156h17.066406c4.710937 0 8.53125 3.820312 8.53125 8.535156 0 4.710937-3.820313 8.53125-8.53125 8.53125zm0 0"/></g><path d="m213.332031 60.234375c-4.710937 0-8.53125-3.820313-8.53125-8.535156v-8.53125c0-4.714844 3.820313-8.535157 8.53125-8.535157 4.714844 0 8.535157 3.820313 8.535157 8.535157v8.53125c0 4.714843-3.820313 8.535156-8.535157 8.535156zm0 0" fill="#2c2f38"/><path d="m247.464844 60.234375c-4.710938 0-8.53125-3.820313-8.53125-8.535156v-8.53125c0-4.714844 3.820312-8.535157 8.53125-8.535157 4.714844 0 8.535156 3.820313 8.535156 8.535157v8.53125c0 4.714843-3.820312 8.535156-8.535156 8.535156zm0 0" fill="#2c2f38"/><path d="m261.589844 94.367188c-6.824219-10.144532-18.035156-16.46875-30.242188-17.066407-12.609375.988281-24.246094 7.167969-32.121094 17.066407h-28.046874v.339843c1.664062 12.472657 7.859374 23.894531 17.40625 32.085938l36.265624 31.0625c3.195313 2.730469 7.902344 2.730469 11.09375 0l36.269532-31.0625c9.546875-8.191407 15.742187-19.613281 17.40625-32.085938.085937-.085937.085937-.167969 0-.339843zm-31.191406 17.066406-14.582032-9.71875c4.152344-4.199219 9.652344-6.800782 15.53125-7.347656 5.410156.398437 10.425782 2.992187 13.882813 7.175781zm0 0" fill="#7f5b53"/><path d="m204.800781 452.765625v25.601563c-.027343 9.414062-7.652343 17.039062-17.066406 17.066406h-17.066406c-9.414063-.027344-17.039063-7.652344-17.066407-17.066406v-25.601563zm0 0" fill="#cb8252"/><path d="m307.199219 452.765625v25.601563c-.027344 9.414062-7.652344 17.039062-17.066407 17.066406h-17.066406c-9.414062-.027344-17.039062-7.652344-17.066406-17.066406v-25.601563zm0 0" fill="#cb8252"/></svg>