<svg height="512pt" viewBox="0 0 512.00282 512" width="512pt" xmlns="http://www.w3.org/2000/svg"><path d="m481.105469 414.898438c-4.875 0-8.828125-3.953126-8.828125-8.828126v-13.242187c0-7.3125-5.929688-13.242187-13.242188-13.242187-17.0625 0-30.894531-13.832032-30.894531-30.894532v-8.828125c0-17.0625 13.832031-30.894531 30.894531-30.894531h8.828125c12.1875 0 22.070313-9.882812 22.070313-22.070312s-9.882813-22.070313-22.070313-22.070313h-92.691406c-4.875 0-8.824219-3.953125-8.824219-8.828125s3.949219-8.828125 8.824219-8.828125h92.691406c21.9375 0 39.722657 17.785156 39.722657 39.726563 0 21.9375-17.785157 39.722656-39.722657 39.722656h-8.828125c-7.3125 0-13.242187 5.929687-13.242187 13.242187v8.828125c0 7.3125 5.929687 13.242188 13.242187 13.242188 17.0625 0 30.898438 13.832031 30.898438 30.894531v13.242187c0 4.875-3.953125 8.828126-8.828125 8.828126zm0 0" fill="#f29c1f"/><path d="m498.757812 423.726562c0 9.710938-17.652343 35.308594-17.652343 35.308594s-17.65625-25.597656-17.65625-35.308594c0-9.75 7.90625-17.65625 17.65625-17.65625s17.652343 7.90625 17.652343 17.65625zm0 0" fill="#bdc3c7"/><path d="m102.046875 325.914062-20.039063 20.039063c-1.621093 1.648437-2.539062 3.867187-2.558593 6.179687v27.71875c-.023438 2.324219.902343 4.554688 2.558593 6.179688l11.652344 11.652344c3.402344 3.488281 3.402344 9.050781 0 12.535156l-57.644531 57.644531c-1.257813 1.269531-2.976563 1.984375-4.765625 1.984375s-3.503906-.714844-4.765625-1.984375c-5.230469-5.777343-7.933594-13.40625-7.503906-21.1875.332031-15.066406 6.136719-29.503906 16.332031-40.605469v-78.742187c.015625-7.175781 2.910156-14.042969 8.03125-19.066406l44.933594-43.433594zm0 0" fill="#f29c1f"/><path d="m252.824219 379.585938h-49.789063l-52.964844-9.53125c-20.203124-9.367188-36.988281-24.792969-48.023437-44.140626-9.074219-15.917968-13.820313-33.933593-13.769531-52.257812v-35.308594c-.042969-11.984375-.839844-23.957031-2.382813-35.839844 0 0 26.851563-9.800781 55.347657-16.773437 19.421874-4.742187 38.789062-2.058594 54.023437-17.9375 7.085937 16.414063 19.042969 30.257813 34.253906 39.652344l1.585938.265625c-15.003907 20.832031-17.832031 65.5 21.71875 171.871094zm0 0" fill="#805333"/><path d="m406.070312 317.792969v61.792969h-153.246093c-91.71875-83.128907-36.722657-151.039063-21.71875-171.871094l5.386719-1.765625 96.371093 17.789062c30.765625 5.425781 56.277344 26.90625 66.859375 56.300781 4.21875 12.140626 6.363282 24.902344 6.347656 37.753907zm0 0" fill="#e57e25"/><path d="m203.035156 353.105469v150.066406c0 4.878906-3.953125 8.828125-8.828125 8.828125h-79.449219c-4.875 0-8.824218-3.949219-8.824218-8.828125 0-19.5 15.808594-35.308594 35.308594-35.308594h8.828124v-114.757812c0-14.625 11.855469-26.484375 26.480469-26.484375 14.628907 0 26.484375 11.859375 26.484375 26.484375zm0 0" fill="#f29c1f"/><path d="m406.070312 361.933594v141.238281c0 4.878906-3.953124 8.828125-8.828124 8.828125h-79.449219c-4.875 0-8.828125-3.949219-8.828125-8.828125 0-19.5 15.8125-35.308594 35.3125-35.308594h1.851562c3.851563 0 6.976563-3.121093 6.976563-6.972656v-30.226563c-.03125-1.894531-.824219-3.695312-2.195313-5-1.375-1.304687-3.214844-2.003906-5.105468-1.9375h-.523438c-26.746094.785157-50.882812-15.957031-59.515625-41.289062-6.558594-18.9375-3.558594-39.882812 8.054687-56.21875 11.617188-16.339844 30.410157-26.054688 50.457032-26.078125 34.125 0 61.792968 27.664063 61.792968 61.792969zm0 0" fill="#f29c1f"/><path d="m503.171875 25.691406c.25 15.8125-6.003906 31.035156-17.300781 42.105469.140625 23.910156-13.847656 45.652344-35.664063 55.4375v.089844c0 28.421875-19.332031 44.488281-44.136719 53.316406-.089843 70.53125-141.242187 52.878906-141.242187 52.878906-14.527344-.789062-28.597656 5.226563-38.0625 16.277344-4.472656 5.492187-12.15625 7.148437-18.496094 3.988281-4.546875-2.238281-7.660156-6.613281-8.289062-11.644531-.628907-5.027344 1.3125-10.035156 5.164062-13.328125 25.972657-21.925781 69.863281-74.460938 82.980469-185.378906 2.484375-22.375 21.347656-39.3359378 43.863281-39.433594h160.273438c5.980469.00390625 11.402343 3.523438 13.835937 8.984375 2.4375 5.464844 1.433594 11.847656-2.5625 16.300781zm0 0" fill="#f9eab0"/><g fill="#e4c05c"><path d="m346.722656 114.972656c-6.640625 0-10.867187-.1875-11.6875-.222656-4.875-.226562-8.644531-4.367188-8.414062-9.242188.230468-4.875 4.367187-8.640624 9.242187-8.410156 1.050781.042969 104.167969 4.414063 143.730469-35.523437 3.429688-3.464844 9.019531-3.496094 12.488281-.066407 3.464844 3.429688 3.496094 9.019532.066407 12.488282-36.875 37.234375-115.554688 40.976562-145.425782 40.976562zm0 0"/><path d="m352.097656 151.050781c-14.917968 0-25.160156-.882812-26.296875-1.015625-3.148437-.292968-5.898437-2.242187-7.21875-5.117187-1.320312-2.871094-1.007812-6.230469.820313-8.808594s4.894531-3.988281 8.039062-3.695313c.734375.082032 74.585938 6.59375 118.609375-16.914062 4.300781-2.292969 9.652344-.667969 11.949219 3.632812 2.292969 4.304688.667969 9.652344-3.632812 11.949219-31.523438 16.886719-74.832032 19.96875-102.269532 19.96875zm0 0"/><path d="m333.285156 195.839844c-11.410156.042968-22.8125-.523438-34.160156-1.691406-3.199219-.285157-5.992188-2.28125-7.292969-5.21875-1.300781-2.933594-.90625-6.34375 1.03125-8.902344 1.9375-2.5625 5.113281-3.867188 8.289063-3.414063.59375.074219 60.222656 6.710938 101.933594-8.277343 2.984374-1.128907 6.34375-.558594 8.789062 1.484374 2.445312 2.046876 3.59375 5.253907 3.011719 8.390626-.585938 3.132812-2.816407 5.710937-5.832031 6.738281-24.488282 7.753906-50.085938 11.433593-75.769532 10.890625zm0 0"/><path d="m344.277344 70.621094c-4.875 0-8.828125-3.953125-8.828125-8.828125s3.953125-8.824219 8.828125-8.824219c106.230468 0 141.0625-20.816406 152.371094-33.230469 2.125-2.328125 5.335937-3.347656 8.414062-2.671875 3.082031.675782 5.570312 2.941406 6.523438 5.949219.957031 3.003906.238281 6.292969-1.890626 8.625-23.578124 25.863281-79.234374 38.980469-165.417968 38.980469zm0 0"/><path d="m406.070312 185.425781c-4.859374 0-8.804687-3.925781-8.828124-8.785156v-.085937c0-4.875 3.953124-8.828126 8.828124-8.828126s8.828126 3.953126 8.828126 8.828126-3.953126 8.824218-8.828126 8.824218zm0 0"/></g><path d="m59.058594 106.109375c-23.289063 1.144531-43.0625 17.4375-48.640625 40.078125-6.824219-9.050781-10.4843752-20.09375-10.417969-31.425781 0-14.050781 5.582031-27.519531 15.515625-37.453125 9.929687-9.933594 23.402344-15.515625 37.449219-15.515625.855468-.015625 1.710937.015625 2.5625.089843" fill="#f3d55b"/><path d="m177.613281 88.277344c78.210938-.792969 60.734375-88.277344 60.734375-88.277344-14.832031 22.160156-91.457031 19.597656-115.996094 18.1875-.347656-.074219-.703124-.105469-1.058593-.089844-1.414063-.089844-2.5625-.175781-3.53125-.265625-1.941407-.085937-3.003907-.175781-3.003907-.175781" fill="#bdc3c7"/><path d="m195.265625 167.8125c-37.605469 39.195312-109.371094 34.695312-109.371094 34.695312-.882812-7.59375-2.03125-15.097656-3.355469-22.601562-1.675781-9.621094-3.53125-19.242188-5.5625-28.863281-1.332031-8.355469-3.523437-16.546875-6.53125-24.453125-2.914062-6.535156-7.59375-11.917969-10.769531-18.1875-4.460937-8.996094-6.757812-18.910156-6.710937-28.953125 0-34.125 27.667968-61.792969 61.792968-61.792969 0 0 1.0625.089844 3.003907.175781 1.535156-.015625 3.074219.101563 4.589843.355469 16.792969 2.09375 32.003907 10.960938 42.105469 24.539062 11.917969 16.066407 11.742188 36.195313 14.300781 55.085938 2.507813 20.828125 7.003907 41.375 13.417969 61.351562.882813 2.734376 1.945313 5.648438 3.003907 8.648438zm0 0" fill="#d1d4d1"/><path d="m105.933594 70.621094c0 4.875-3.953125 8.828125-8.828125 8.828125s-8.828125-3.953125-8.828125-8.828125 3.953125-8.828125 8.828125-8.828125 8.828125 3.953125 8.828125 8.828125zm0 0" fill="#2c2f38"/></svg>