<svg height="511pt" viewBox="1 1 511.38257 511" width="511pt" xmlns="http://www.w3.org/2000/svg"><path d="m17.039062 263.703125c-4.875 0-8.828124-3.949219-8.828124-8.824219v-48.554687c0-4.875 3.953124-8.828125 8.828124-8.828125s8.828126 3.953125 8.828126 8.828125v48.554687c0 4.875-3.953126 8.824219-8.828126 8.824219zm0 0" fill="#f0c419"/><path d="m449.589844 510.878906h-88.277344v-35.3125l83.308594-13.789062zm0 0" fill="#71c285"/><path d="m423.105469 220.097656v-71.152344c0-14.625-11.855469-26.480468-26.480469-26.480468h-35.3125l73.445312-88.277344h14.832032c16.386718 0 32.105468 6.511719 43.695312 18.097656 11.585938 11.589844 18.097656 27.308594 18.097656 43.695313v353.101562h-1.941406l-86.335937-29.792969zm0 0" fill="#4c8056"/><path d="m238.699219 184.257812h104.960937c58.503906 0 105.929688 47.425782 105.929688 105.929688v107.871094l-88.277344-1.941406v-52.964844c0-39.003906-31.617188-70.621094-70.621094-70.621094h-85.800781zm0 0" fill="#71c285"/><path d="m311.171875 387.289062h120.761719c5.9375.011719 11.859375.664063 17.65625 1.945313 29.746094 6.878906 52.96875 30.105469 59.851562 59.847656 1.277344 5.800781 1.929688 11.71875 1.941406 17.65625v44.140625h-88.277343c.011719-9.371094-3.703125-18.359375-10.328125-24.984375s-15.613282-10.339843-24.980469-10.328125h-123.585937" fill="#4fba6f"/><path d="m36.680142 9.999939h-10.680298" fill="none" stroke="#000" stroke-linecap="round" stroke-linejoin="round" stroke-width="2" transform="matrix(8.827586 0 0 8.827586 -.61743 -1.122977)"/><path d="m432.417969 90.773438c-5.523438 18.796874-22.777344 31.703124-42.371094 31.691406h-125.835937c-19.503907 0-35.3125-15.8125-35.3125-35.3125h-8.828126c-9.75 0-17.652343-7.902344-17.652343-17.65625v-61.792969c0-1.671875.945312-3.199219 2.4375-3.945313 1.496093-.75 3.285156-.585937 4.625.414063l23.222656 26.484375c3.960937 2.972656 8.984375 4.144531 13.851563 3.230469 28.648437-6.265625 56.839843-14.445313 84.390624-24.488281 8.253907-2.789063 16.691407-4.992188 25.257813-6.585938 17.546875-3.183594 37.074219-5.046875 53.140625 4.019531 19.175781 10.78125 31.144531 30.96875 31.410156 52.964844.003906 1.765625-.253906 3.523437-.769531 5.214844zm0 0" fill="#4fba6f"/><path d="m323.179688 95.980469h-94.28125c-4.875 0-8.828126-3.953125-8.828126-8.828125s3.953126-8.828125 8.828126-8.828125h94.28125c4.875 0 8.828124 3.953125 8.828124 8.828125s-3.953124 8.828125-8.828124 8.828125zm0 0" fill="#4c8056"/><path d="m361.3125 60.671875c-4.875 0-8.828125-3.953125-8.828125-8.828125v-8.828125c0-4.875 3.953125-8.828125 8.828125-8.828125s8.828125 3.953125 8.828125 8.828125v8.828125c0 4.875-3.953125 8.828125-8.828125 8.828125zm0 0" fill="#c03a2b"/><path d="m22.680173 50.000168h-10.680298" fill="none" stroke="#000" stroke-linecap="round" stroke-linejoin="round" stroke-width="2" transform="matrix(8.827586 0 0 8.827586 -.61743 -1.122977)"/><path d="m313.882812 437.835938c-3.179687 21.671874-21.769531 37.730468-43.667968 37.730468h-129.589844c-19.503906 0-35.3125-15.808594-35.3125-35.308594h-8.828125c-9.75 0-17.652344-7.90625-17.652344-17.65625v-61.792968c0-1.671875.945313-3.199219 2.4375-3.949219 1.496094-.746094 3.285157-.585937 4.625.417969l23.222657 26.484375c3.960937 2.96875 8.984374 4.140625 13.851562 3.230469 28.648438-6.265626 56.839844-14.449219 84.390625-24.488282 8.253906-2.792968 16.691406-4.992187 25.257813-6.585937 17.546874-3.1875 37.074218-5.050781 53.140624 4.015625 20.023438 11.257812 32.128907 32.707031 31.417969 55.667968zm0 0" fill="#71c285"/><path d="m199.59375 449.082031h-94.28125c-4.875 0-8.828125-3.949219-8.828125-8.824219s3.953125-8.828124 8.828125-8.828124h94.28125c4.875 0 8.824219 3.953124 8.824219 8.828124s-3.949219 8.824219-8.824219 8.824219zm0 0" fill="#4c8056"/><path d="m237.726562 413.773438c-4.875 0-8.828124-3.953126-8.828124-8.828126v-8.828124c0-4.875 3.953124-8.828126 8.828124-8.828126s8.828126 3.953126 8.828126 8.828126v8.828124c0 4.875-3.953126 8.828126-8.828126 8.828126zm0 0" fill="#c03a2b"/><path d="m246.457031 231.316406c.046875 23.316406-18.046875 42.644532-41.3125 44.136719-12.457031.804687-23.375 1.597656-25.449219 2.191406-5.667968 1.640625-11.132812 4.21875-16.773437 6.089844-7.949219 2.773437-15.894531 5.550781-23.832031 8.332031-15.679688 5.496094-31.351563 11.011719-47.019532 16.542969-4.542968 1.609375-9.117187 3.171875-13.65625 4.820313-18.320312 6.644531-38.558593-2.808594-45.222656-21.125 0 0 104.34375-37.957032 104.28125-38.027344-4.445312-5.195313-10.628906-8.59375-17.398437-9.5625l-116.277344-16.578125c-1.160156-.164063-2.207031-.78125-2.914063-1.71875-.703124-.9375-1.003906-2.117188-.8398432-3.277344l10.5937502-74.292969c.234375-1.652344 1.382812-3.035156 2.96875-3.566406 1.585937-.527344 3.335937-.121094 4.519531 1.0625l19.214844 28.671875c4.023437 5.984375 11.28125 8.925781 18.335937 7.421875 1.652344-.34375 102.472657-23.984375 112.605469-26.589844 9.890625-2.910156 20.328125-3.457031 30.472656-1.597656 13.859375 3.035156 26.214844 10.847656 34.894532 22.070312 7.550781 9.824219 12.003906 21.675782 12.792968 34.039063zm0 0" fill="#7ed09e"/><path d="m167.105469 219.566406c-4.875 0-8.828125-3.953125-8.828125-8.828125v-8.828125c0-4.875 3.953125-8.828125 8.828125-8.828125s8.828125 3.953125 8.828125 8.828125v8.828125c0 4.875-3.953125 8.828125-8.828125 8.828125zm0 0" fill="#c03a2b"/><g fill="#4c8056"><path d="m343.660156 51.84375c-4.535156.003906-8.335937-3.429688-8.792968-7.941406-.457032-4.511719 2.582031-8.636719 7.027343-9.539063l44.136719-8.828125c3.089844-.628906 6.28125.4375 8.375 2.796875 2.089844 2.363281 2.765625 5.660157 1.765625 8.652344s-3.519531 5.222656-6.609375 5.855469l-44.136719 8.824218c-.582031.125-1.175781.183594-1.765625.179688zm0 0"/><path d="m220.070312 404.945312c-4.535156.003907-8.335937-3.425781-8.789062-7.941406-.457031-4.511718 2.582031-8.632812 7.027344-9.535156l44.136718-8.828125c3.140626-.742187 6.433594.289063 8.589844 2.6875 2.160156 2.398437 2.835938 5.785156 1.765625 8.828125-1.066406 3.042969-3.710937 5.261719-6.894531 5.785156l-44.140625 8.828125c-.554687.117188-1.125.175781-1.695313.175781zm0 0"/><path d="m149.453125 210.738281c-4.535156.003907-8.335937-3.425781-8.792969-7.941406-.457031-4.511719 2.582032-8.632813 7.027344-9.535156l44.136719-8.828125c4.695312-.773438 9.15625 2.3125 10.089843 6.980468.929688 4.664063-2 9.226563-6.628906 10.320313l-44.140625 8.828125c-.554687.117188-1.125.175781-1.691406.175781zm0 0"/></g></svg>