<svg height="512pt" viewBox="0 -9 512 512" width="512pt" xmlns="http://www.w3.org/2000/svg"><path d="m503.464844 110.933594h-59.730469c-4.714844 0-8.535156-3.820313-8.535156-8.535156 0-4.710938 3.820312-8.53125 8.535156-8.53125h59.730469c4.714844 0 8.535156 3.820312 8.535156 8.53125 0 4.714843-3.820312 8.535156-8.535156 8.535156zm0 0" fill="#cc4b4c"/><path d="m59.734375 110.933594h-51.199219c-4.714844 0-8.535156-3.820313-8.535156-8.535156 0-4.710938 3.820312-8.53125 8.535156-8.53125h51.199219c4.710937 0 8.53125 3.820312 8.53125 8.53125 0 4.714843-3.820313 8.535156-8.53125 8.535156zm0 0" fill="#cc4b4c"/><path d="m89.601562 119.464844h-38.402343c-9.984375.019531-19.566407-3.941406-26.625-11.007813-3.296875-3.363281-3.296875-8.75 0-12.117187 7.058593-7.0625 16.640625-11.023438 26.625-11.007813h38.402343zm0 0" fill="#4fba6f"/><path d="m422.398438 119.464844h38.402343c9.984375.019531 19.566407-3.941406 26.625-11.007813 3.296875-3.363281 3.296875-8.75 0-12.117187-7.058593-7.0625-16.640625-11.023438-26.625-11.007813h-38.402343zm0 0" fill="#4fba6f"/><path d="m375.125 310.355469c-1.621094 14.851562 14.566406 91.25 14.566406 121.285156 0 0-99.558594-30.574219-133.691406 29.160156-34.132812-59.734375-124.441406-23.46875-124.441406-23.46875 0-30.035156 6.9375-112.125 5.316406-126.976562l9.726562-2.386719c19.125-4.660156 32.585938-21.789062 32.597657-41.472656v-14.847656h153.601562v14.589843c-.007812 19.746094 13.4375 36.957031 32.597657 41.730469l1.023437.253906zm0 0" fill="#f0785a"/><path d="m204.800781 341.332031c-3.453125 0-6.5625-2.078125-7.882812-5.265625-1.320313-3.1875-.589844-6.859375 1.847656-9.300781 11.949219-11.945313 14.566406-36.632813 14.566406-45.164063 0-4.714843 3.820313-8.535156 8.535157-8.535156 4.710937 0 8.53125 3.820313 8.53125 8.535156 0 1.535157-.21875 37.886719-19.566407 57.230469-1.597656 1.601563-3.769531 2.5-6.03125 2.5zm0 0" fill="#cc6f56"/><g fill="#cc4b4c"><path d="m93.867188 238.933594h-68.265626c-4.714843 0-8.535156-3.820313-8.535156-8.535156 0-4.710938 3.820313-8.53125 8.535156-8.53125h68.265626c4.710937 0 8.53125 3.820312 8.53125 8.53125 0 4.714843-3.820313 8.535156-8.53125 8.535156zm0 0"/><path d="m59.734375 307.199219h-51.199219c-4.714844 0-8.535156-3.820313-8.535156-8.53125 0-4.714844 3.820312-8.535157 8.535156-8.535157h51.199219c4.710937 0 8.53125 3.820313 8.53125 8.535157 0 4.710937-3.820313 8.53125-8.53125 8.53125zm0 0"/><path d="m486.398438 238.933594h-68.265626c-4.710937 0-8.53125-3.820313-8.53125-8.535156 0-4.710938 3.820313-8.53125 8.53125-8.53125h68.265626c4.714843 0 8.535156 3.820312 8.535156 8.53125 0 4.714843-3.820313 8.535156-8.535156 8.535156zm0 0"/><path d="m503.464844 307.199219h-51.199219c-4.710937 0-8.53125-3.820313-8.53125-8.53125 0-4.714844 3.820313-8.535157 8.53125-8.535157h51.199219c4.714844 0 8.535156 3.820313 8.535156 8.535157 0 4.710937-3.820312 8.53125-8.535156 8.53125zm0 0"/></g><path d="m369.066406 164.265625 23.46875-113.066406c9.054688-.011719 17.742188 3.582031 24.148438 9.984375 6.402344 6.40625 9.996094 15.09375 9.984375 24.148437v170.667969c0 14.136719 11.460937 25.601562 25.597656 25.601562h11.4375c9.054687-.007812 17.742187 3.582032 24.148437 9.984376l1.023438 1.023437c3.328125 3.351563 3.328125 8.761719 0 12.117187l-1.023438 1.023438c-6.40625 6.398438-15.09375 9.992188-24.148437 9.984375h-28.503906c-23.5625 0-42.664063-19.105469-42.664063-42.667969v-26.453125zm0 0" fill="#4c8056"/><path d="m119.464844 246.613281v26.453125c0 11.316406-4.492188 22.167969-12.496094 30.171875-8 8-18.851562 12.496094-30.167969 12.496094h-28.503906c-9.054687.007813-17.742187-3.585937-24.148437-9.984375l-1.023438-1.023438c-3.328125-3.355468-3.328125-8.765624 0-12.117187l1.023438-1.023437c6.40625-6.402344 15.09375-9.992188 24.148437-9.984376h11.4375c14.136719 0 25.597656-11.464843 25.597656-25.601562v-170.667969c0-18.851562 15.285157-34.132812 34.132813-34.132812v8.535156l15.644531 123.730469zm0 0" fill="#4c8056"/><path d="m119.464844 439.464844-8.53125 55.46875h-93.867188c-4.710937 0-8.53125-3.820313-8.53125-8.535156v-98.046876c-.003906-27.589843 18.910156-51.582031 45.738282-58.027343l48.894531-11.859375c10.039062 39.578125 15.507812 80.175781 16.296875 121zm0 0" fill="#f0785a"/><path d="m503.464844 388.351562v98.046876c0 4.714843-3.820313 8.535156-8.53125 8.535156h-93.867188l-19.199218-58.308594s10.921874-59.367188 26.964843-118.160156l8.105469 1.960937 40.789062 9.898438c26.828126 6.445312 45.742188 30.4375 45.738282 58.027343zm0 0" fill="#f0785a"/><path d="m330.09375 253.082031-51.199219 25.597657c-14.414062 7.207031-31.375 7.207031-45.789062 0l-51.199219-25.597657c-17.347656-8.671875-28.304688-26.398437-28.304688-45.789062l-22.042968-136.183594c0-32.992187 49.390625-50.484375 82.378906-50.484375h88.996094c32.988281 0 78.933594 40.25 78.933594 73.242188l-23.46875 113.425781c0 19.390625-10.957032 37.117187-28.304688 45.789062zm0 0" fill="#f09372"/><path d="m453.734375 223.335938 1.03125 1.03125c3.332031 3.332031 3.332031 8.734374 0 12.066406l-1.03125 1.03125c-6.402344 6.40625-15.085937 10.003906-24.140625 10h-28.527344c-23.5625 0-42.667968-19.101563-42.667968-42.664063v-110.933593c0-32.992188-26.742188-59.734376-59.730469-59.734376h-85.335938c-32.988281 0-59.730469 26.742188-59.730469 59.734376v110.933593c0 23.5625-19.105468 42.664063-42.667968 42.664063h-28.527344c-9.054688.003906-17.738281-3.59375-24.140625-10l-1.03125-1.03125c-3.332031-3.332032-3.332031-8.734375 0-12.066406l1.03125-1.03125c6.402344-6.40625 15.085937-10.003907 24.140625-10.003907h11.460938c14.136718 0 25.597656-11.460937 25.597656-25.597656v-128c0-32.992187 26.746094-59.734375 59.734375-59.734375h170.667969c11.316406 0 22.167968 4.496094 30.167968 12.496094 8.003906 8.003906 12.5 18.855468 12.5 30.171875v145.066406c0 14.136719 11.460938 25.597656 25.597656 25.597656h11.460938c9.054688 0 17.738281 3.597657 24.140625 10.003907zm0 0" fill="#4fba6f"/><path d="m213.332031 145.066406c-4.710937 0-8.53125-3.820312-8.53125-8.53125v-17.070312c0-4.710938 3.820313-8.53125 8.53125-8.53125 4.714844 0 8.535157 3.820312 8.535157 8.53125v17.070312c0 4.710938-3.820313 8.53125-8.535157 8.53125zm0 0" fill="#2c2f38"/><path d="m298.667969 145.066406c-4.714844 0-8.535157-3.820312-8.535157-8.53125v-17.070312c0-4.710938 3.820313-8.53125 8.535157-8.53125 4.710937 0 8.53125 3.820312 8.53125 8.53125v17.070312c0 4.710938-3.820313 8.53125-8.53125 8.53125zm0 0" fill="#2c2f38"/><path d="m290.132812 230.398438h-68.265624c-4.714844 0-8.535157-3.820313-8.535157-8.53125 0-4.714844 3.820313-8.535157 8.535157-8.535157h68.265624c4.714844 0 8.535157 3.820313 8.535157 8.535157 0 4.710937-3.820313 8.53125-8.535157 8.53125zm0 0" fill="#e64c3c"/><path d="m256 460.800781c-4.710938 0-8.535156-3.820312-8.535156-8.535156v-51.199219c0-4.710937 3.824218-8.53125 8.535156-8.53125s8.535156 3.820313 8.535156 8.53125v51.199219c0 4.714844-3.824218 8.535156-8.535156 8.535156zm0 0" fill="#cc6f56"/><path d="m221.867188 128h-25.601563c-4.710937 0-8.53125-3.820312-8.53125-8.535156 0-4.710938 3.820313-8.53125 8.53125-8.53125h25.601563c4.710937 0 8.53125 3.820312 8.53125 8.53125 0 4.714844-3.820313 8.535156-8.53125 8.535156zm0 0" fill="#7f5b53"/><path d="m315.734375 128h-25.601563c-4.710937 0-8.53125-3.820312-8.53125-8.535156 0-4.710938 3.820313-8.53125 8.53125-8.53125h25.601563c4.710937 0 8.53125 3.820312 8.53125 8.53125 0 4.714844-3.820313 8.535156-8.53125 8.535156zm0 0" fill="#7f5b53"/><path d="m401.066406 435.199219v59.734375h-290.132812v-59.734375c4.5-39.058594 1.871094-78.613281-7.765625-116.734375l33.707031-8.109375c1.621094 14.851562 8.191406 77.742187 8.191406 107.777343 0 0 76.800782-17.066406 110.933594 42.667969 34.132812-59.734375 110.933594-42.667969 110.933594-42.667969 0-30.035156 6.570312-92.925781 8.191406-107.777343l33.707031 8.109375c-9.636719 38.121094-12.265625 77.675781-7.765625 116.734375zm0 0" fill="#f9eab0"/></svg>