<svg height="511pt" viewBox="0 0 511.98418 511" width="511pt" xmlns="http://www.w3.org/2000/svg"><path d="m439.730469 70.472656-44.34375-28.425781-39.105469 39.015625 37.253906 37.253906 37.78125 37.695313 39.105469-39.019531zm0 0" fill="#804537"/><path d="m462.902344 48.957031-42.53125-31.894531-24.984375 24.984375 37.253906 37.164063 37.78125 37.78125 24.984375-24.980469zm0 0" fill="#cb8252"/><path d="m501.671875 85.742188-6.265625 6.269531-46.460938-46.460938 39.839844-22.484375 12.886719 12.800782c13.75 13.78125 13.75 36.09375 0 49.875zm0 0" fill="#f0c419"/><path d="m367.492188 194.761719-274.183594 273.832031c-1.65625 1.636719-3.457032 3.113281-5.386719 4.414062l-13.859375-43.960937 258.648438-258.648437c9.003906 9.09375 21.1875 23.746093 34.78125 24.363281zm0 0" fill="#95a5a5"/><path d="m88.964844 417.917969-27.171875 49.792969-60.46875 42.816406c-1.3515628-1.273438-1.710938-3.28125-.882813-4.945313l35.839844-76.800781c.976562-2.230469 2.222656-4.335938 3.707031-6.265625zm0 0" fill="#ecf0f1"/><path d="m87.921875 473.007812c-1.507813.96875-3.070313 1.851563-4.675781 2.648438l-76.976563 35.753906c-1.664062.828125-3.671875.46875-4.945312-.882812l81.566406-81.480469zm0 0" fill="#bdc3c7"/><path d="m332.710938 179.226562-249.820313 249.820313-42.902344-6.53125c.992188-1.34375 2.085938-2.613281 3.265625-3.796875l274.273438-273.917969c.5625 12.972657 5.980468 25.261719 15.183594 34.425781zm0 0" fill="#bdc3c7"/><path d="m488.785156 23.066406-31.164062 31.160156-37.25-37.164062 6.265625-6.175781c6.613281-6.652344 15.605469-10.394531 24.984375-10.394531s18.371094 3.742187 24.980468 10.394531zm0 0" fill="#f3d55b"/><path d="m367.226562 89.203125-10.875-8.121094-35.9375-26.484375c-1.65625-1.660156-3.902343-2.59375-6.25-2.59375-2.34375 0-4.59375.933594-6.25 2.59375l-25.007812 24.976563c-3.445312 3.445312-3.445312 9.03125 0 12.480469l34.632812 47.808593zm0 0" fill="#f0c419"/><path d="m372.523438 194.753906 47.863281 34.613282c1.65625 1.660156 3.90625 2.59375 6.25 2.59375 2.347656 0 4.59375-.933594 6.25-2.59375l25-24.964844c1.667969-1.648438 2.609375-3.894532 2.609375-6.238282 0-2.347656-.941406-4.59375-2.609375-6.242187l-26.5625-35.894531-8.121094-10.867188zm0 0" fill="#f0c419"/><path d="m423.460938 141.972656c.03125 1.09375-.027344 2.1875-.175782 3.269532v.085937c-.011718.828125-.074218 1.652344-.179687 2.472656-2.898438 26.003907-24.351563 45.992188-50.492188 47.050781-.734375.074219-1.46875.105469-2.207031.089844-.972656.027344-1.949219-.03125-2.914062-.179687-10.644532-.476563-20.882813-4.238281-29.308594-10.769531 3.785156 1.148437 7.703125 1.800781 11.652344 1.945312.964843.144531 1.941406.203125 2.914062.175781.738281.015625 1.476562-.015625 2.207031-.089843 26.144531-1.058594 47.59375-21.046876 50.496094-47.050782.105469-.820312.164063-1.644531.175781-2.472656v-.085938c.148438-1.082031.207032-2.175781.175782-3.265624.070312-16.574219-7.722657-32.199219-21.007813-42.109376 22.867187 6.363282 38.683594 27.199219 38.664063 50.933594zm0 0" fill="#802f34"/><path d="m405.804688 133.148438c.03125 1.089843-.027344 2.183593-.175782 3.265624v.085938c-.011718.828125-.070312 1.652344-.175781 2.472656-2.902344 26.003906-24.351563 45.992188-50.496094 47.050782-.730469.074218-1.46875.105468-2.207031.089843-.972656.027344-1.949219-.03125-2.914062-.175781-3.949219-.144531-7.867188-.796875-11.652344-1.945312-1.941406-1.445313-3.773438-3.039063-5.472656-4.765626-9.203126-9.164062-14.621094-21.453124-15.183594-34.425781-.148438-.933593-.207032-1.882812-.175782-2.828125-.015624-.734375.015626-1.472656.089844-2.203125 1.074219-26.152343 21.117188-47.585937 47.136719-50.40625.878906-.109375 1.765625-.167969 2.648437-.175781 1.054688-.148438 2.117188-.207031 3.179688-.179688 4.867188-.003906 9.710938.679688 14.390625 2.03125 13.285156 9.910157 21.078125 25.535157 21.007813 42.109376zm0 0" fill="#e64c3c"/><path d="m460.269531 196.085938c10.949219 4.496093 17.585938 15.703124 16.261719 27.464843-1.320312 11.757813-10.285156 21.214844-21.960938 23.160157-11.671874 1.945312-23.21875-4.089844-28.285156-14.785157zm0 0" fill="#e57e25"/><path d="m331.40625 154.429688c-5.953125-5.953126-6.875-15.285157-2.195312-22.289063 4.679687-7.003906 13.652343-9.726563 21.433593-6.507813 7.78125 3.222657 12.203125 11.488282 10.566407 19.75-1.640626 8.261719-8.882813 14.214844-17.304688 14.21875-4.691406.019532-9.195312-1.84375-12.5-5.171874zm0 0" fill="#fb7b76"/><path d="m361.585938 138.921875c-4.203126-4.195313-4.863282-10.777344-1.570313-15.722656 3.292969-4.945313 9.621094-6.878907 15.113281-4.613281 5.492188 2.261718 8.621094 8.089843 7.476563 13.917968s-6.25 10.039063-12.191407 10.054688c-3.308593.019531-6.492187-1.292969-8.828124-3.636719zm0 0" fill="#802f34"/><path d="m280.363281 85.742188c-10.953125-4.894532-17.25-16.542969-15.339843-28.386719 1.90625-11.847657 11.539062-20.929688 23.476562-22.140625 11.9375-1.207032 23.195312 5.761718 27.441406 16.984375zm0 0" fill="#e57e25"/></svg>