<svg height="512pt" viewBox="0 0 512 512" width="512pt" xmlns="http://www.w3.org/2000/svg"><path d="m361.929688 98.867188c17.585937-3.605469 35.792968-2.753907 52.96875 2.472656 15.222656 5.296875 32.121093 1.917968 44.136718-8.828125 0 0 17.65625 97.105469-97.105468 70.621093h-211.859376c-114.761718 26.484376-97.105468-70.621093-97.105468-70.621093 12.015625 10.746093 28.914062 14.125 44.136718 8.828125 17.175782-5.226563 35.382813-6.078125 52.96875-2.472656zm0 0" fill="#4fba6f"/><path d="m375.878906 377.203125c.875 1.132813 1.140625 2.621094.722656 3.992187-.421874 1.367188-1.480468 2.445313-2.839843 2.894532l-37.34375 6.53125c-.632813.214844-1.210938.578125-1.675781 1.058594l-12.976563 12.886718c-.953125.960938-2.292969 1.429688-3.636719 1.273438-1.339844-.15625-2.539062-.914063-3.25-2.066406l-12.09375-20.304688c-1.164062-1.878906-3.523437-2.625-5.558594-1.765625l-23.484374 10.328125c-11.3125 4.945312-24.171876 4.945312-35.484376 0l-48.113281-21.097656h-.085937l-15.980469 7.945312c-1.351563.695313-2.96875.636719-4.265625-.15625-1.300781-.792968-2.089844-2.207031-2.089844-3.726562v-10.945313c-.007812-1.734375-1.046875-3.296875-2.648437-3.972656l-49.433594-34.871094 27.191406-6.621093c19.78125-4.820313 33.707031-22.539063 33.71875-42.902344v-15.359375l83.863281-13.238281 75.035157 13.238281v15.359375c.003906 20.261718 13.800781 37.914062 33.457031 42.816406l1.324219.351562 26.128906 6.269532-27.894531 33.101562c-1.242188.539063-2.167969 1.617188-2.511719 2.925782-.347656 1.308593-.070313 2.703124.746094 3.785156zm0 0" fill="#4fba6f"/><path d="m220.691406 339.863281c-3.570312-.003906-6.789062-2.152343-8.15625-5.449219-1.367187-3.300781-.609375-7.097656 1.914063-9.621093 3.308593-3.320313 6.230469-21.027344 6.242187-37.894531 0-4.878907 3.949219-8.828126 8.824219-8.828126 4.878906 0 8.828125 3.949219 8.828125 8.828126 0 9.144531-.820312 39.785156-11.414062 50.378906-1.652344 1.652344-3.898438 2.585937-6.238282 2.585937zm0 0" fill="#4c8056"/><path d="m512 401.742188v101.429687c0 4.875-3.953125 8.828125-8.828125 8.828125h-494.34375c-4.875 0-8.828125-3.953125-8.828125-8.828125v-101.429687c0-28.539063 19.5625-53.363282 47.316406-60.027344l68.324219-16.507813 49.433594 21.628907c1.601562.675781 2.640625 2.238281 2.648437 3.972656v10.945312c0 1.523438.789063 2.933594 2.089844 3.726563 1.296875.792969 2.914062.855469 4.265625.15625l15.980469-7.941407h.085937l48.113281 21.097657c11.3125 4.941406 24.171876 4.941406 35.484376 0l23.484374-10.328125c2.035157-.863282 4.394532-.113282 5.558594 1.765625l12.09375 20.300781c.710938 1.152344 1.910156 1.914062 3.25 2.066406 1.34375.15625 2.683594-.3125 3.636719-1.269531l12.976563-12.890625c.464843-.480469 1.042968-.84375 1.675781-1.058594l19.6875-6.53125c1.359375-.449218 2.417969-1.527344 2.839843-2.894531.421876-1.371094.152344-2.855469-.722656-3.992187l-9.179687-12.269532c-.816407-1.082031-1.089844-2.476562-.746094-3.785156s1.269531-2.386719 2.511719-2.925781l45.550781-19.859375 26.128906 6.355468 42.195313 10.238282c27.753906 6.664062 47.316406 31.488281 47.316406 60.027344zm0 0" fill="#af8066"/><path d="m332.648438 261.808594-52.964844 26.484375c-14.910156 7.453125-32.457032 7.453125-47.367188 0l-52.964844-26.484375c-17.945312-8.96875-29.28125-27.308594-29.28125-47.367188v-152.648437c0-34.128907 27.664063-61.792969 61.792969-61.792969h88.273438c34.128906 0 61.792969 27.664062 61.792969 61.792969v152.648437c0 20.058594-11.335938 38.398438-29.28125 47.367188zm0 0" fill="#71c285"/><path d="m308.964844 229.515625h-105.929688c-4.875 0-8.828125-3.949219-8.828125-8.824219 0-4.878906 3.953125-8.828125 8.828125-8.828125h105.929688c4.875 0 8.828125 3.949219 8.828125 8.828125 0 4.875-3.953125 8.824219-8.828125 8.824219zm0 0" fill="#2c2f38"/><path d="m229.515625 229.515625c-4.875 0-8.824219-3.949219-8.824219-8.824219v-17.65625c0-4.875 3.949219-8.828125 8.824219-8.828125 4.878906 0 8.828125 3.953125 8.828125 8.828125v17.65625c0 4.875-3.949219 8.824219-8.828125 8.824219zm0 0" fill="#f9eab0"/><path d="m282.484375 229.515625c-4.878906 0-8.828125-3.949219-8.828125-8.824219v-17.65625c0-4.875 3.949219-8.828125 8.828125-8.828125 4.875 0 8.824219 3.953125 8.824219 8.828125v17.65625c0 4.875-3.949219 8.824219-8.824219 8.824219zm0 0" fill="#f9eab0"/><path d="m114.757812 450.207031v61.792969h-17.65625v-61.792969c0-4.875 3.953126-8.828125 8.828126-8.828125s8.828124 3.953125 8.828124 8.828125zm0 0" fill="#805333"/><path d="m414.898438 450.207031v61.792969h-17.65625v-61.792969c0-4.875 3.953124-8.828125 8.828124-8.828125s8.828126 3.953125 8.828126 8.828125zm0 0" fill="#805333"/><path d="m211.863281 132.414062c-4.875 0-8.828125-3.953124-8.828125-8.828124v-17.65625c0-4.875 3.953125-8.828126 8.828125-8.828126s8.828125 3.953126 8.828125 8.828126v17.65625c0 4.875-3.953125 8.828124-8.828125 8.828124zm0 0" fill="#2c2f38"/><path d="m300.136719 132.414062c-4.875 0-8.828125-3.953124-8.828125-8.828124v-17.65625c0-4.875 3.953125-8.828126 8.828125-8.828126s8.828125 3.953126 8.828125 8.828126v17.65625c0 4.875-3.953125 8.828124-8.828125 8.828124zm0 0" fill="#2c2f38"/><path d="m229.515625 105.929688h-44.136719c-4.875 0-8.828125-3.949219-8.828125-8.828126 0-4.875 3.953125-8.824218 8.828125-8.824218h44.136719c4.878906 0 8.828125 3.949218 8.828125 8.824218 0 4.878907-3.949219 8.828126-8.828125 8.828126zm0 0" fill="#4c8056"/><path d="m326.621094 105.929688h-44.136719c-4.878906 0-8.828125-3.949219-8.828125-8.828126 0-4.875 3.949219-8.824218 8.828125-8.824218h44.136719c4.875 0 8.828125 3.949218 8.828125 8.824218 0 4.878907-3.953125 8.828126-8.828125 8.828126zm0 0" fill="#4c8056"/><g fill="#805333"><path d="m220.691406 44.136719c-4.878906 0-8.828125-3.949219-8.828125-8.828125v-8.824219c0-4.878906 3.949219-8.828125 8.828125-8.828125 4.875 0 8.824219 3.949219 8.824219 8.828125v8.824219c0 4.878906-3.949219 8.828125-8.824219 8.828125zm0 0"/><path d="m256 44.136719c-4.875 0-8.828125-3.949219-8.828125-8.828125v-8.824219c0-4.878906 3.953125-8.828125 8.828125-8.828125s8.828125 3.949219 8.828125 8.828125v8.824219c0 4.878906-3.953125 8.828125-8.828125 8.828125zm0 0"/><path d="m291.308594 44.136719c-4.875 0-8.824219-3.949219-8.824219-8.828125v-8.824219c0-4.878906 3.949219-8.828125 8.824219-8.828125 4.878906 0 8.828125 3.949219 8.828125 8.828125v8.824219c0 4.878906-3.949219 8.828125-8.828125 8.828125zm0 0"/></g><path d="m185.378906 467.863281 8.828125-35.3125h17.65625l26.480469-17.652343-8.828125 44.136718zm0 0" fill="#4fba6f"/></svg>