<svg height="511pt" viewBox="-26 0 511 511.86641" width="511pt" xmlns="http://www.w3.org/2000/svg"><path d="m458.976562 414.789062-.265624 3.972657c-2.585938 25.90625-17.289063 49.058593-39.636719 62.410156-16.671875 9.679687-35.148438 15.835937-54.289063 18.097656-5.5625.796875-11.121094 1.414063-16.597656 1.855469-4.589844.351562-9.355469.703125-14.210938.703125-14.566406.8125-29.132812-1.632813-42.636718-7.148437-2.824219-1.234376-13.453125.589843-16.101563-1.175782-8.804687-4.800781-14.726562-13.578125-15.890625-23.542968-3.628906-19.949219-5.816406-50.84375 5.128906-68.414063 10.964844-16.453125 24.953126-30.683594 41.214844-41.929687 31.691406-23.128907 52.375-41.664063 56.261719-83.863282 1.714844-23.695312-3.246094-47.398437-14.328125-68.414062-15.359375-34.25-30.898438-79.269532-65.792969-95.425782-1.234375-.617187-2.558593-1.144531-3.796875-1.675781l17.65625-17.65625 2.824219.796875c21.097656 6.089844 152.363281 48.199219 160.484375 153.6875 2.167969 33.160156-6.507812 66.125-24.714844 93.925782-7.445312 11.46875-15.675781 22.414062-24.628906 32.75-10.242188 12.09375-23.835938 22.773437-28.957031 38.3125-1.074219 2.871093-1.46875 5.953124-1.144531 9.003906 1.621093 6.132812 5.941406 11.199218 11.738281 13.769531 14.707031 7.742187 32.289062 7.707031 46.964843-.085937 6.242188-3.445313 20.539063-11.832032 20.71875-19.953126zm0 0" fill="#e4c05c"/><path d="m305.667969 209.546875c.085937 38.667969-42.222657 84.304687-93.863281 108.140625-6.421876 2.980469-12.644532 6.371094-18.628907 10.152344 20.65625-29.132813-5.648437-68.769532-7.679687-71.769532 2.824218-.089843-2.304688-11.792968-.589844-14.125 76.949219-105.976562 105.488281-9.886718 120.761719-32.398437zm0 0" fill="#804169"/><path d="m379.085938 275.136719c-3.882813 42.195312-33.367188 63.914062-65.058594 87.039062-15.796875 10.546875-29.355469 24.105469-39.902344 39.902344-9.753906 17.8125-12.464844 38.636719-7.589844 58.351563 1.273438 11.753906 7.261719 22.488281 16.59375 29.746093 2.601563 1.742188 5.347656 3.246094 8.210938 4.503907-9.554688 5.71875-20.09375 9.613281-31.074219 11.476562-10.125 2.441406-20.425781 4.09375-30.808594 4.941406-.441406 0-.792969.089844-1.234375.089844-6.894531.664062-13.828125.839844-20.746094.53125-16.328124.085938-32.277343-4.914062-45.636718-14.300781-30.984375-23.746094-36.898438-69.210938-24.363282-103.019531 10.738282-27.710938 30.316407-51.105469 55.699219-66.558594 5.984375-3.78125 12.207031-7.171875 18.628907-10.152344 51.640624-23.835938 65.765624-65.5 65.675781-104.167969-.089844-47.226562-47.582031-85.625-47.582031-85.625 10.945312-3.089843 45.464843-11.476562 51.90625-15.980469 36.492187 18.65625 65.722656 48.941407 83.070312 86.070313 11.097656 24.128906 15.984375 50.652344 14.210938 77.152344zm0 0" fill="#b19046"/><path d="m228.046875 510.921875c.085937.089844.085937.175781.175781.265625-6.894531.664062-13.828125.839844-20.746094.53125-14.917968-24.453125-45.8125-89.777344 7.328126-142.921875 3.460937-3.460937 9.074218-3.460937 12.535156 0 3.460937 3.460937 3.460937 9.074219 0 12.535156-55.703125 55.613281-1.589844 126.589844.707031 129.589844zm0 0" fill="#e4c05c"/><path d="m300.519531 317.6875c-3.957031.007812-7.4375-2.625-8.511719-6.4375-1.074218-3.808594.523438-7.871094 3.90625-9.929688 1.703126-1.066406 37.515626-24.71875 13.875-95.601562-1.539062-4.632812.964844-9.636719 5.597657-11.175781 4.628906-1.542969 9.632812.964843 11.175781 5.59375 28.398438 85.1875-19.421875 115.058593-21.488281 116.289062-1.375.828125-2.949219 1.265625-4.554688 1.261719zm0 0" fill="#e4c05c"/><path d="m364.785156 499.269531c-5.5625.796875-11.121094 1.414063-16.597656 1.855469-4.589844.351562-9.355469.703125-14.210938.703125-13.769531-15.359375-17.476562-40.78125-11.210937-75.386719.320313-3.316406 2.484375-6.171875 5.59375-7.375 3.105469-1.207031 6.628906-.558594 9.101563 1.671875 2.476562 2.230469 3.484374 5.667969 2.605468 8.882813-5.472656 30.191406-2.46875 51.730468 8.742188 62.234375 4.457031 4.019531 10.027344 6.605469 15.976562 7.414062zm0 0" fill="#f9eab0"/><path d="m298.488281 93.378906c-3.753906 7.59375-9.523437 14.007813-16.683593 18.535156-7.917969 5.269532-16.660157 9.175782-25.863282 11.566407 13.25 28.226562 20.578125 58.871093 21.539063 90.039062-20.351563 25.5-50.738281 40.949219-83.332031 42.375-2.914063 0-5.828126.085938-8.652344.175781-31.160156 1.5-56.054688 11.5625-88.453125 43.960938-35.308594 35.308594-61.792969-17.65625-70.621094-35.308594-8.824219-17.65625-17.652344-26.484375 26.484375-52.96875 32.75-19.683594 41.226562-48.992187 61.441406-73.707031 11.210938 15.269531-3.410156-24.128906 16.972656 1.613281-1.675781-.351562 3.949219-8.96875 3.683594-10.292968-1.855468-7.589844 6.515625-10.300782 9.867188-17.453126 13.59375-28.6875 15.007812-23.769531 42.417968-22.269531 1.058594 0 32.722657-4.503906 33.78125-4.414062 9.5625-3.515625 18.570313-8.382813 26.75-14.453125 10.503907-7.414063 26.921876-12.710938 52.257813-9.089844 3.566406 10.375 3 21.722656-1.589844 31.691406zm0 0" fill="#cc66a1"/><path d="m110.445312 111.121094-108.605468-103.476563c-1.585938-1.476562-1.8671878-3.886719-.660156-5.6875 1.210937-1.800781 3.546874-2.457031 5.515624-1.550781l138.175782 67.707031zm0 0" fill="#f3d55b"/><path d="m247.820312 70.777344c-9.015624 6.304687-15.519531 15.589844-18.363281 26.21875-1.058593-.085938-2.117187-.175782-3.175781-.175782-27.453125-1.5-64.441406.53125-78.035156 29.21875-3.261719 7.105469-3.976563 15.117188-2.03125 22.6875.265625 1.324219 2.117187 9.710938 3.796875 10.0625-13.730469-3.113281-26.171875-10.351562-35.664063-20.742187-5.742187-7.75-7.203125-17.871094-3.886718-26.925781.050781 0 .089843-.039063.089843-.089844 4.707031-12.113281 12.171875-22.960938 21.804688-31.691406 3.894531-3.894532 8.019531-7.550782 12.359375-10.945313l.175781-.175781c30.027344-25.269531 74.191406-24.171875 102.929687 2.558594zm0 0" fill="#f0c419"/><path d="m61.714844 264.722656c-3.792969 0-15.351563 0-18.96875-8.742187-1.875-5.375-.335938-11.351563 3.902344-15.15625 2.523437-2.523438 6.320312-3.277344 9.617187-1.914063 3.300781 1.367188 5.449219 4.585938 5.449219 8.15625 4.875 0 8.828125 3.953125 8.828125 8.828125s-3.953125 8.828125-8.828125 8.828125zm0 0" fill="#3d324c"/><path d="m226.355469 157.109375c-4.269531-9.777344-20.183594-12.261719-35.542969-5.550781-15.359375 6.710937-24.347656 20.074218-20.078125 29.847656 4.269531 9.777344 20.183594 12.261719 35.542969 5.550781 15.359375-6.710937 24.351562-20.074219 20.078125-29.847656zm0 0" fill="#fff"/><path d="m213.859375 168.898438c0 8.378906-6.792969 15.171874-15.175781 15.171874-8.378906 0-15.171875-6.792968-15.171875-15.171874 0-8.382813 6.792969-15.175782 15.171875-15.175782 8.382812 0 15.175781 6.792969 15.175781 15.175782zm0 0" fill="#2c2f38"/><path d="m213.066406 175.402344c0 4.875-3.953125 8.828125-8.828125 8.828125s-8.828125-3.953125-8.828125-8.828125 3.953125-8.828125 8.828125-8.828125 8.828125 3.953125 8.828125 8.828125zm0 0" fill="#fff"/></svg>