<svg height="512pt" viewBox="0 -4 512.0001 512" width="512pt" xmlns="http://www.w3.org/2000/svg"><path d="m152.585938 52.066406h213.960937v269.019532h-213.960937zm0 0" fill="#fdd7ad"/><path d="m512 394.933594v99.710937c0 4.792969-3.886719 8.675781-8.679688 8.675781h-485.964843c-4.792969 0-8.675781-3.882812-8.675781-8.675781v-99.710937c-.003907-28.058594 19.230468-52.457032 46.511718-59.007813l14.230469-3.472656 34.714844-8.417969 44.949219-10.847656c1.070312-.226562 2.113281-.546875 3.125-.953125.140624.015625.277343-.050781.347656-.175781 1.128906-.347656 2.257812-.78125 3.382812-1.214844.667969-.214844 1.308594-.507812 1.910156-.867188.726563-.277343 1.425782-.625 2.082032-1.039062 1.363281-.707031 2.667968-1.519531 3.90625-2.433594 1.460937-1 2.855468-2.101562 4.164062-3.296875h184.667969c1.3125 1.195313 2.703125 2.296875 4.167969 3.296875 1.097656.855469 2.292968 1.585938 3.554687 2.171875.617188.457031 1.285157.835938 1.996094 1.128907 1.355469.679687 2.746094 1.285156 4.167969 1.820312 1.648437.613281 3.328125 1.132812 5.03125 1.5625l1.042968.261719 43.910157 10.585937 7.460937 1.824219 20.566406 5.03125 10.414063 2.515625 10.5 2.519531c2.152344.503907 4.265625 1.140625 6.335937 1.90625 1.816407.625 3.585938 1.378907 5.292969 2.257813 21.316407 9.929687 34.929688 31.328125 34.886719 54.84375zm0 0" fill="#4482c3"/><path d="m416.542969 442.578125v60.742187h-17.355469v-60.742187c0-4.792969 3.882812-8.679687 8.675781-8.679687s8.679688 3.886718 8.679688 8.679687zm0 0" fill="#285680"/><path d="m416.542969 156.203125v167.832031l-43.910157-10.585937-1.042968-.261719c-7.039063-1.691406-13.546875-5.121094-18.917969-9.980469 7.796875-17.628906 11.816406-36.695312 11.800781-55.972656v-99.796875c-54.496094-31.5-104.132812-95.371094-104.132812-95.371094s-15.359375 30.808594-104.136719 77.84375v117.324219c-.015625 19.277344 4.007813 38.34375 11.800781 55.972656-5.371094 4.859375-11.875 8.289063-18.917968 9.980469l-44.949219 10.847656v-167.832031c0-86.269531 69.933593-156.203125 156.203125-156.203125 86.269531 0 156.203125 69.933594 156.203125 156.203125zm0 0" fill="#bdc3c7"/><path d="m364.476562 199.59375-.003906 47.640625c.015625 19.277344-4.003906 38.34375-11.800781 55.972656-.265625.746094-.582031 1.472657-.953125 2.171875l-13.277344 28.722656-17.355468 37.574219-37.144532 80.445313c-4.269531 9.179687-13.476562 15.050781-23.601562 15.050781s-19.332032-5.871094-23.605469-15.050781l-28.464844-61.613282-17.355469-37.574218-21.953124-47.554688c-.371094-.699218-.691407-1.425781-.957032-2.171875-7.792968-17.628906-11.816406-36.695312-11.800781-55.972656v-47.640625h16.75c11.484375.003906 22.5 4.558594 30.632813 12.667969l26.03125 26.035156c8.140624 8.160156 19.195312 12.746094 30.722656 12.746094s22.578125-4.585938 30.71875-12.746094l26.035156-26.035156c8.132812-8.109375 19.148438-12.664063 30.632812-12.667969zm0 0" fill="#ecf0f1"/><path d="m312.40625 225.628906c-1.34375 0-2.667969-.3125-3.871094-.914062-47.390625-23.691406-95.898437-.234375-96.394531 0-4.289063 2.140625-9.503906.390625-11.640625-3.898438-2.136719-4.292968-.390625-9.503906 3.902344-11.644531 2.28125-1.144531 56.570312-27.664063 111.890625 0 3.617187 1.792969 5.523437 5.84375 4.59375 9.773437-.929688 3.929688-4.441407 6.699219-8.480469 6.683594zm0 0" fill="#ecf0f1"/><path d="m216.949219 164.882812c-4.792969 0-8.679688-3.886718-8.679688-8.679687v-17.355469c0-4.792968 3.886719-8.679687 8.679688-8.679687s8.679687 3.886719 8.679687 8.679687v17.355469c0 4.792969-3.886718 8.679687-8.679687 8.679687zm0 0" fill="#2c2f38"/><path d="m303.730469 164.882812c-4.792969 0-8.679688-3.886718-8.679688-8.679687v-17.355469c0-4.792968 3.886719-8.679687 8.679688-8.679687s8.675781 3.886719 8.675781 8.679687v17.355469c0 4.792969-3.882812 8.679687-8.675781 8.679687zm0 0" fill="#2c2f38"/><path d="m104.136719 78.101562v425.21875h-34.714844v-425.21875c.03125-9.574218 7.785156-17.328124 17.359375-17.355468 9.554688.070312 17.285156 7.800781 17.355469 17.355468zm0 0" fill="#cb8252"/><path d="m121.492188 69.421875c0 19.171875-15.542969 34.714844-34.710938 34.714844-19.171875 0-34.714844-15.542969-34.714844-34.714844 0-19.167969 15.542969-34.710937 34.714844-34.710937 19.167969 0 34.710938 15.542968 34.710938 34.710937zm0 0" fill="#9bc8c2"/><g fill="#f3d55b"><path d="m43.390625 34.710938c-4.792969 0-8.679687-3.882813-8.679687-8.675782v-8.679687c0-4.792969 3.886718-8.675781 8.679687-8.675781s8.675781 3.882812 8.675781 8.675781v8.679687c0 4.792969-3.882812 8.675782-8.675781 8.675782zm0 0"/><path d="m17.355469 52.066406h-8.675781c-4.792969 0-8.679688-3.882812-8.679688-8.675781s3.886719-8.679687 8.679688-8.679687h8.675781c4.792969 0 8.679687 3.886718 8.679687 8.679687s-3.886718 8.675781-8.679687 8.675781zm0 0"/><path d="m43.390625 130.167969c-4.792969 0-8.679687-3.882813-8.679687-8.675781v-8.679688c0-4.792969 3.886718-8.675781 8.679687-8.675781s8.675781 3.882812 8.675781 8.675781v8.679688c0 4.792968-3.882812 8.675781-8.675781 8.675781zm0 0"/><path d="m17.355469 104.136719h-8.675781c-4.792969 0-8.679688-3.886719-8.679688-8.679688s3.886719-8.675781 8.679688-8.675781h8.675781c4.792969 0 8.679687 3.882812 8.679687 8.675781s-3.886718 8.679688-8.679687 8.679688zm0 0"/></g><path d="m471.820312 337.832031c-.96875.378907-1.996093.582031-3.035156.609375-1.128906.085938-21.003906 1.648438-35.496094 37.921875-1.3125 3.304688-4.511718 5.472657-8.070312 5.46875-1.097656.007813-2.1875-.199219-3.210938-.609375-4.417968-1.808594-6.578124-6.824218-4.859374-11.28125 5.328124-15.316406 14.824218-28.839844 27.421874-39.050781l10.414063 2.515625 10.5 2.519531c2.152344.503907 4.265625 1.140625 6.335937 1.90625zm0 0" fill="#285680"/><path d="m208.269531 303.730469v86.777343l-17.355469-37.574218v-49.203125c0-4.792969 3.886719-8.679688 8.679688-8.679688s8.675781 3.886719 8.675781 8.679688zm0 0" fill="#bdc3c7"/><path d="m338.441406 295.050781v39.050781l-17.355468 37.574219v-76.625c0-4.792969 3.882812-8.679687 8.675781-8.679687s8.679687 3.886718 8.679687 8.679687zm0 0" fill="#bdc3c7"/><path d="m260.339844 407.863281c-4.792969 0-8.679688-3.882812-8.679688-8.675781v-78.101562c0-4.792969 3.886719-8.679688 8.679688-8.679688 4.792968 0 8.675781 3.886719 8.675781 8.679688v78.101562c0 4.792969-3.882813 8.675781-8.675781 8.675781zm0 0" fill="#bdc3c7"/><path d="m95.457031 69.421875c0 4.792969-3.882812 8.679687-8.675781 8.679687s-8.679688-3.886718-8.679688-8.679687c0-4.789063 3.886719-8.675781 8.679688-8.675781s8.675781 3.886718 8.675781 8.675781zm0 0" fill="#ecf0f1"/></svg>