<?xml version="1.0" encoding="iso-8859-1"?>
<!-- Generator: Adobe Illustrator 19.0.0, SVG Export Plug-In . SVG Version: 6.00 Build 0)  -->
<svg version="1.1" id="Layer_1" xmlns="http://www.w3.org/2000/svg" xmlns:xlink="http://www.w3.org/1999/xlink" x="0px" y="0px"
	 viewBox="0 0 512 512" style="enable-background:new 0 0 512 512;" xml:space="preserve">
<g>
	<path style="fill:#25B99A;" d="M481.103,512H145.655V0h335.448c9.754,0,17.655,7.901,17.655,17.655v476.69
		C498.759,504.099,490.858,512,481.103,512"/>
	<g>
		<path style="fill:#129979;" d="M236.879,61.775c-3.566,0-7.071,1.395-9.737,4.061l-14.592,14.592
			c-19.562,19.562-26.421,40.554-20.957,64.177c4.873,21.071,19.588,43.997,43.741,68.158l68.317,68.317
			c24.161,24.152,47.086,38.868,68.158,43.75c23.605,5.464,44.615-1.395,64.177-20.966l14.592-14.592
			c4.308-4.317,5.297-10.823,2.436-16.207c-7.98-15.078-37.244-34.542-47.854-40.766c-3.681-2.092-7.618-2.957-10.196-2.269
			c-0.856,0.238-1.969,0.742-2.94,2.472l-0.918,1.333c-6.338,7.601-14.636,17.161-18.247,19.606
			c-19.244,13.021-38.153,11.167-54.696-5.385l-49.805-49.805c-16.552-16.543-18.414-35.469-5.376-54.696
			c2.436-3.61,12.006-11.908,19.606-18.247l1.324-0.909c1.739-0.98,2.242-2.092,2.472-2.948c0.715-2.578-0.177-6.524-2.33-10.293
			c-6.17-10.514-25.626-39.777-40.704-47.757C241.293,62.314,239.078,61.775,236.879,61.775 M387.134,344.302
			c-6.303,0-12.738-0.759-19.306-2.278c-24.338-5.632-50.132-21.928-76.659-48.463l-68.317-68.317
			c-26.527-26.536-42.831-52.33-48.463-76.668c-6.85-29.617,1.792-56.753,25.679-80.631l14.592-14.592
			c9.816-9.825,24.682-12.067,36.952-5.561c22.219,11.758,45.18,50.185,47.722,54.528c4.652,8.148,6.073,16.587,4.07,23.834
			c-1.545,5.561-5.014,10.108-10.063,13.18c-6.647,5.561-14.451,12.482-15.854,14.265c-8.227,12.156-7.292,21.522,3.354,32.168
			l49.805,49.796c10.664,10.664,20.021,11.591,32.309,3.257c1.642-1.306,8.563-9.101,14.124-15.74
			c3.072-5.049,7.609-8.519,13.171-10.063c7.247-2.013,15.678-0.6,23.746,3.999c4.44,2.604,42.867,25.565,54.625,47.784
			c6.497,12.288,4.264,27.136-5.561,36.961l-14.592,14.583C429.868,334.936,409.309,344.302,387.134,344.302"/>
		<path style="fill:#129979;" d="M389.048,281c-0.3,0-0.609-0.018-0.918-0.044c-40.722-4.228-67.443-30.155-68.564-31.258
			c-3.469-3.425-3.513-9.004-0.088-12.482c3.416-3.469,8.987-3.513,12.465-0.106c0.238,0.23,23.631,22.713,58.015,26.28
			c4.846,0.512,8.369,4.846,7.865,9.702C397.346,277.619,393.514,281,389.048,281"/>
		<path style="fill:#129979;" d="M278.741,205.233c-1.977,0-3.955-0.662-5.597-2.022c-1.368-1.112-33.404-27.948-37.685-69.164
			c-0.503-4.855,3.019-9.19,7.865-9.702c4.935-0.371,9.198,3.037,9.693,7.874c3.522,33.88,31.082,57.15,31.364,57.379
			c3.743,3.116,4.273,8.678,1.165,12.429C283.799,204.138,281.283,205.233,278.741,205.233"/>
		<path style="fill:#129979;" d="M145.655,512H75.034c-9.754,0-17.655-7.901-17.655-17.655V17.655C57.379,7.901,65.28,0,75.034,0
			h70.621V512z"/>
	</g>
	<g>
		<path style="fill:#E6EEF3;" d="M57.379,105.931c-24.338,0-44.138-19.8-44.138-44.138s19.8-44.138,44.138-44.138
			s44.138,19.8,44.138,44.138c0,4.882-3.955,8.828-8.828,8.828s-8.828-3.946-8.828-8.828c0-14.601-11.882-26.483-26.483-26.483
			S30.897,47.192,30.897,61.793s11.882,26.483,26.483,26.483c4.873,0,8.828,3.946,8.828,8.828S62.252,105.931,57.379,105.931"/>
		<path style="fill:#E6EEF3;" d="M57.379,203.034c-24.338,0-44.138-19.8-44.138-44.138s19.8-44.138,44.138-44.138
			s44.138,19.8,44.138,44.138c0,4.882-3.955,8.828-8.828,8.828s-8.828-3.946-8.828-8.828c0-14.601-11.882-26.483-26.483-26.483
			s-26.483,11.882-26.483,26.483c0,14.601,11.882,26.483,26.483,26.483c4.873,0,8.828,3.946,8.828,8.828
			S62.252,203.034,57.379,203.034"/>
		<path style="fill:#E6EEF3;" d="M57.379,300.138c-24.338,0-44.138-19.8-44.138-44.138s19.8-44.138,44.138-44.138
			s44.138,19.8,44.138,44.138c0,4.882-3.955,8.828-8.828,8.828s-8.828-3.946-8.828-8.828c0-14.601-11.882-26.483-26.483-26.483
			S30.897,241.399,30.897,256s11.882,26.483,26.483,26.483c4.873,0,8.828,3.946,8.828,8.828
			C66.207,296.192,62.252,300.138,57.379,300.138"/>
		<path style="fill:#E6EEF3;" d="M57.379,397.241c-24.338,0-44.138-19.8-44.138-44.138c0-24.338,19.8-44.138,44.138-44.138
			s44.138,19.8,44.138,44.138c0,4.882-3.955,8.828-8.828,8.828s-8.828-3.946-8.828-8.828c0-14.601-11.882-26.483-26.483-26.483
			s-26.483,11.882-26.483,26.483c0,14.601,11.882,26.483,26.483,26.483c4.873,0,8.828,3.946,8.828,8.828
			C66.207,393.295,62.252,397.241,57.379,397.241"/>
		<path style="fill:#E6EEF3;" d="M57.379,494.345c-24.338,0-44.138-19.8-44.138-44.138c0-24.338,19.8-44.138,44.138-44.138
			s44.138,19.8,44.138,44.138c0,4.882-3.955,8.828-8.828,8.828s-8.828-3.946-8.828-8.828c0-14.601-11.882-26.483-26.483-26.483
			s-26.483,11.882-26.483,26.483c0,14.601,11.882,26.483,26.483,26.483c4.873,0,8.828,3.946,8.828,8.828
			C66.207,490.399,62.252,494.345,57.379,494.345"/>
	</g>
	<g>
		<path style="fill:#129979;" d="M269.241,397.241h-70.621c-4.873,0-8.828-3.946-8.828-8.828c0-4.882,3.955-8.828,8.828-8.828
			h70.621c4.873,0,8.828,3.946,8.828,8.828C278.069,393.295,274.114,397.241,269.241,397.241"/>
		<path style="fill:#129979;" d="M445.793,397.241H304.552c-4.873,0-8.828-3.946-8.828-8.828c0-4.882,3.955-8.828,8.828-8.828
			h141.241c4.882,0,8.828,3.946,8.828,8.828C454.621,393.295,450.675,397.241,445.793,397.241"/>
		<path style="fill:#129979;" d="M445.793,432.552h-44.138c-4.873,0-8.828-3.946-8.828-8.828c0-4.882,3.955-8.828,8.828-8.828
			h44.138c4.882,0,8.828,3.946,8.828,8.828C454.621,428.606,450.675,432.552,445.793,432.552"/>
		<path style="fill:#129979;" d="M366.345,432.552H260.414c-4.873,0-8.828-3.946-8.828-8.828c0-4.882,3.955-8.828,8.828-8.828
			h105.931c4.873,0,8.828,3.946,8.828,8.828C375.172,428.606,371.218,432.552,366.345,432.552"/>
		<path style="fill:#129979;" d="M445.793,467.862h-88.276c-4.873,0-8.828-3.946-8.828-8.828c0-4.882,3.955-8.828,8.828-8.828
			h88.276c4.882,0,8.828,3.946,8.828,8.828C454.621,463.916,450.675,467.862,445.793,467.862"/>
		<path style="fill:#129979;" d="M322.207,467.862H198.621c-4.873,0-8.828-3.946-8.828-8.828c0-4.882,3.955-8.828,8.828-8.828
			h123.586c4.873,0,8.828,3.946,8.828,8.828C331.034,463.916,327.08,467.862,322.207,467.862"/>
		<path style="fill:#129979;" d="M225.103,432.552h-26.483c-4.873,0-8.828-3.946-8.828-8.828c0-4.882,3.955-8.828,8.828-8.828
			h26.483c4.873,0,8.828,3.946,8.828,8.828C233.931,428.606,229.976,432.552,225.103,432.552"/>
	</g>
</g>
<g>
</g>
<g>
</g>
<g>
</g>
<g>
</g>
<g>
</g>
<g>
</g>
<g>
</g>
<g>
</g>
<g>
</g>
<g>
</g>
<g>
</g>
<g>
</g>
<g>
</g>
<g>
</g>
<g>
</g>
</svg>
