<?xml version="1.0" encoding="iso-8859-1"?>
<!-- Generator: Adobe Illustrator 19.0.0, SVG Export Plug-In . SVG Version: 6.00 Build 0)  -->
<svg version="1.1" id="Layer_1" xmlns="http://www.w3.org/2000/svg" xmlns:xlink="http://www.w3.org/1999/xlink" x="0px" y="0px"
	 viewBox="0 0 512 512" style="enable-background:new 0 0 512 512;" xml:space="preserve">
<g>
	<path style="fill:#556080;" d="M176.555,70.621c-4.873,0-8.828-3.955-8.828-8.828V8.828c0-4.873,3.955-8.828,8.828-8.828
		s8.828,3.955,8.828,8.828v52.966C185.383,66.666,181.428,70.621,176.555,70.621"/>
	<polygon style="fill:#BFC7C8;" points="141.241,512 370.759,512 370.759,476.69 141.241,476.69 	"/>
	<path style="fill:#ECF1F1;" d="M344.279,476.69H167.728V52.966c24.099,8.033,47.069,19.465,67.169,35.01
		c64.609,49.982,105.657,126.376,121.256,208.278c3.849,20.197,5.782,40.713,5.782,61.281c0,26.395-2.887,52.71-8.616,78.468
		L344.279,476.69z"/>
	<path style="fill:#556080;" d="M311.954,300.252c-10.284-50.715-30.967-95.956-59.595-132.529h-40.492v264.828v44.138h88.276
		l12.447-62.261c3.46-17.302,5.208-34.904,5.208-52.542C317.798,344.787,315.352,317.007,311.954,300.252"/>
	<g>
		<path style="fill:#7887AC;" d="M280.822,220.69c1.395,0,2.675-0.397,3.849-0.971c-2.79-5.694-5.729-11.255-8.819-16.684h-63.991
			v17.655H280.822z"/>
		<path style="fill:#7887AC;" d="M299.787,264.828c0.997,0,1.924-0.265,2.825-0.574c-1.845-5.791-3.84-11.476-5.959-17.081h-84.789
			v17.655H299.787z"/>
		<path style="fill:#7887AC;" d="M311.943,309.078h0.009c0.53,0,0.989-0.212,1.492-0.3c-0.477-3.028-0.962-5.941-1.492-8.527
			c-0.6-2.984-1.368-5.879-2.039-8.828l-98.039-0.115l0,0l-0.009,17.655L311.943,309.078z"/>
		<path style="fill:#7887AC;" d="M317.18,353.103c0.15,0,0.274-0.079,0.424-0.088c-0.203-5.473-0.574-11.449-1.077-17.567h-104.66
			v17.655H317.18z"/>
		<path style="fill:#7887AC;" d="M315.381,397.241c0.777-5.817,1.359-11.661,1.748-17.523c-0.23-0.018-0.424-0.132-0.653-0.132
			H211.869v17.655H315.381z"/>
		<path style="fill:#7887AC;" d="M211.866,441.379h95.338l3.46-17.311c-0.565-0.115-1.095-0.344-1.695-0.344h-97.103v8.828V441.379z
			"/>
	</g>
</g>
<g>
</g>
<g>
</g>
<g>
</g>
<g>
</g>
<g>
</g>
<g>
</g>
<g>
</g>
<g>
</g>
<g>
</g>
<g>
</g>
<g>
</g>
<g>
</g>
<g>
</g>
<g>
</g>
<g>
</g>
</svg>
