<?xml version="1.0" encoding="iso-8859-1"?>
<!-- Generator: Adobe Illustrator 19.0.0, SVG Export Plug-In . SVG Version: 6.00 Build 0)  -->
<svg version="1.1" id="Layer_1" xmlns="http://www.w3.org/2000/svg" xmlns:xlink="http://www.w3.org/1999/xlink" x="0px" y="0px"
	 viewBox="0 0 512 512" style="enable-background:new 0 0 512 512;" xml:space="preserve">
<g>
	<path style="fill:#E1705C;" d="M256,512L256,512C114.617,512,0,397.383,0,256l0,0C0,114.617,114.617,0,256,0l0,0
		c141.383,0,256,114.617,256,256l0,0C512,397.383,397.383,512,256,512"/>
	<path style="fill:#F0C419;" d="M423.724,229.517h-4.396c-7.857,0-14.769-5.191-16.958-12.729l-31.179-107.352
		c-5.623-12.853-18.326-21.16-32.353-21.16H173.162c-14.027,0-26.73,8.307-32.353,21.16L109.63,216.788
		c-2.189,7.539-9.101,12.729-16.958,12.729h-4.396c-9.754,0-17.655,7.901-17.655,17.655v97.103c0,9.754,7.901,17.655,17.655,17.655
		h335.448c9.754,0,17.655-7.901,17.655-17.655v-97.103C441.379,237.418,433.479,229.517,423.724,229.517"/>
	<g>
		<path style="fill:#485762;" d="M132.414,432.552h-17.655c-9.754,0-17.655-7.901-17.655-17.655v-52.966h52.966v52.966
			C150.069,424.651,142.168,432.552,132.414,432.552"/>
		<path style="fill:#485762;" d="M397.241,432.552h-17.655c-9.754,0-17.655-7.901-17.655-17.655v-52.966h52.966v52.966
			C414.897,424.651,406.996,432.552,397.241,432.552"/>
	</g>
	<g>
		<path style="fill:#FFFFFF;" d="M167.724,291.31c0,14.627-11.855,26.483-26.483,26.483c-14.627,0-26.483-11.855-26.483-26.483
			c0-14.627,11.855-26.483,26.483-26.483C155.869,264.828,167.724,276.683,167.724,291.31"/>
		<path style="fill:#FFFFFF;" d="M397.241,291.31c0,14.627-11.855,26.483-26.483,26.483c-14.627,0-26.483-11.855-26.483-26.483
			c0-14.627,11.855-26.483,26.483-26.483C385.386,264.828,397.241,276.683,397.241,291.31"/>
	</g>
	<g>
		<path style="fill:#485762;" d="M273.655,317.793h-35.31c-4.882,0-8.828-3.946-8.828-8.828c0-4.882,3.946-8.828,8.828-8.828h35.31
			c4.882,0,8.828,3.946,8.828,8.828C282.483,313.847,278.537,317.793,273.655,317.793"/>
		<path style="fill:#485762;" d="M291.31,282.483H220.69c-4.882,0-8.828-3.946-8.828-8.828s3.946-8.828,8.828-8.828h70.621
			c4.882,0,8.828,3.946,8.828,8.828S296.192,282.483,291.31,282.483"/>
	</g>
	<path style="fill:#D0E8F9;" d="M341.238,211.862H170.76c-5.914,0-10.152-5.703-8.457-11.361l21.186-70.621
		c1.121-3.734,4.555-6.294,8.457-6.294h128.106c3.902,0,7.336,2.56,8.457,6.294l21.186,70.621
		C351.39,206.159,347.153,211.862,341.238,211.862"/>
	<path style="fill:#FFFFFF;" d="M443.112,81.371c-4.017-4.308-8.183-8.466-12.482-12.482L68.884,430.626
		c4.017,4.308,8.183,8.466,12.482,12.491L443.112,81.371z"/>
</g>
<g>
</g>
<g>
</g>
<g>
</g>
<g>
</g>
<g>
</g>
<g>
</g>
<g>
</g>
<g>
</g>
<g>
</g>
<g>
</g>
<g>
</g>
<g>
</g>
<g>
</g>
<g>
</g>
<g>
</g>
</svg>
