<?xml version="1.0" encoding="iso-8859-1"?>
<!-- Generator: Adobe Illustrator 19.0.0, SVG Export Plug-In . SVG Version: 6.00 Build 0)  -->
<svg version="1.1" id="Layer_1" xmlns="http://www.w3.org/2000/svg" xmlns:xlink="http://www.w3.org/1999/xlink" x="0px" y="0px"
	 viewBox="0 0 503.32 503.32" style="enable-background:new 0 0 503.32 503.32;" xml:space="preserve">
<g>
	<path style="fill:#CBAC40;" d="M503.32,442.576h-17.356c-9.589,0-17.356-7.767-17.356-17.356V267.064
		c0-9.58,7.767-17.356,17.356-17.356h17.356V442.576z"/>
	<g>
		<path style="fill:#ECF1F1;" d="M347.117,347.118c0-23.96-19.43-43.39-43.39-43.39s-43.39,19.43-43.39,43.39
			c0,23.96,19.43,43.39,43.39,43.39S347.117,371.078,347.117,347.118"/>
		<polygon style="fill:#ECF1F1;" points="363.09,157.33 119.95,400.469 21.768,302.296 269.012,60.744 		"/>
	</g>
	<polygon style="fill:#C3CFD1;" points="107.674,388.201 84.521,411.354 10.88,337.722 34.041,314.569 	"/>
	<polygon style="fill:#ECF1F1;" points="72.244,399.085 49.091,422.238 0,373.156 23.153,349.994 	"/>
	<g>
		<path style="fill:#C3CFD1;" d="M338.242,321.084c5.493,7.272,8.878,16.219,8.878,26.034c0,9.815-3.384,18.762-8.878,26.034
			h130.369v-52.068H338.242z"/>
		<path style="fill:#C3CFD1;" d="M295.843,304.523l-39.971-39.971l-36.821,36.812l41.698,41.698
			C262.572,323.667,276.977,307.994,295.843,304.523"/>
		<path style="fill:#C3CFD1;" d="M301.727,178.279c2.222,0,4.443-0.85,6.135-2.543l36.812-36.812c0.087-0.087,0.113-0.208,0.2-0.295
			l-11.984-12.305c-0.148,0.139-0.338,0.182-0.486,0.33l-36.812,36.812c-3.393,3.393-3.393,8.878,0,12.271
			C297.284,177.428,299.505,178.279,301.727,178.279"/>
		<path style="fill:#C3CFD1;" d="M289.455,141.466c2.222,0,4.443-0.85,6.135-2.543l25.105-25.114l-12.088-12.418
			c-0.035,0.026-0.069,0.035-0.104,0.069l-25.183,25.192c-3.393,3.393-3.393,8.878,0,12.271
			C285.012,140.616,287.234,141.466,289.455,141.466"/>
	</g>
</g>
<g>
</g>
<g>
</g>
<g>
</g>
<g>
</g>
<g>
</g>
<g>
</g>
<g>
</g>
<g>
</g>
<g>
</g>
<g>
</g>
<g>
</g>
<g>
</g>
<g>
</g>
<g>
</g>
<g>
</g>
</svg>
