<?xml version="1.0" encoding="iso-8859-1"?>
<!-- Generator: Adobe Illustrator 19.0.0, SVG Export Plug-In . SVG Version: 6.00 Build 0)  -->
<svg version="1.1" id="Layer_1" xmlns="http://www.w3.org/2000/svg" xmlns:xlink="http://www.w3.org/1999/xlink" x="0px" y="0px"
	 viewBox="0 0 512 512" style="enable-background:new 0 0 512 512;" xml:space="preserve">
<g>
	<g>
		<path style="fill:#E1705C;" d="M256.002,53.598c2.083-0.3,4.202-0.494,6.347-0.574C260.203,53.051,258.076,53.218,256.002,53.598"
			/>
		<path style="fill:#E1705C;" d="M379.586,476.689c0,19.5-15.81,35.31-35.31,35.31H167.724c-19.5,0-35.31-15.81-35.31-35.31V291.31
			c0-1.96,0.079-3.911,0.238-5.844c1.951-23.455,17.567-43.573,38.841-53.619c31.153-14.707,97.739-46.716,126.358-64.883
			c20.145-12.782,32.415-36.899,27.798-63.303c-4.317-24.62-23.887-44.685-48.419-49.479c-39.486-7.724-74.196,22.449-74.196,60.575
			c0,16.234-14.601,29.052-31.382,26.041c-13.241-2.375-21.822-14.848-21.566-28.292C151.349,47.28,207.024-4.617,273.602,0.326
			c58.447,4.343,105.984,59.065,105.984,117.672V476.689z"/>
	</g>
	<path style="fill:#FFFFFF;" d="M344.276,370.758c0-48.755-39.521-88.276-88.276-88.276s-88.276,39.521-88.276,88.276
		s39.521,88.276,88.276,88.276S344.276,419.513,344.276,370.758"/>
	<path style="fill:#CAD3DB;" d="M324.339,314.902c-3.734-4.564-7.918-8.748-12.482-12.482L187.661,426.615
		c3.734,4.564,7.918,8.748,12.482,12.482L324.339,314.902z"/>
</g>
<g>
</g>
<g>
</g>
<g>
</g>
<g>
</g>
<g>
</g>
<g>
</g>
<g>
</g>
<g>
</g>
<g>
</g>
<g>
</g>
<g>
</g>
<g>
</g>
<g>
</g>
<g>
</g>
<g>
</g>
</svg>
