<?xml version="1.0" encoding="iso-8859-1"?>
<!-- Generator: Adobe Illustrator 19.0.0, SVG Export Plug-In . SVG Version: 6.00 Build 0)  -->
<svg version="1.1" id="Layer_1" xmlns="http://www.w3.org/2000/svg" xmlns:xlink="http://www.w3.org/1999/xlink" x="0px" y="0px"
	 viewBox="0 0 512 512" style="enable-background:new 0 0 512 512;" xml:space="preserve">
<g>
	<polygon style="fill:#F0EDE0;" points="141.241,512 370.759,512 370.759,88.276 141.241,88.276 	"/>
	<g>
		<polygon style="fill:#D5D0BA;" points="326.624,88.276 141.245,88.276 326.624,0 		"/>
		<path style="fill:#D5D0BA;" d="M317.797,467.862H194.21c-4.873,0-8.828-3.946-8.828-8.828c0-4.882,3.955-8.828,8.828-8.828
			h123.586c4.873,0,8.828,3.946,8.828,8.828C326.624,463.916,322.669,467.862,317.797,467.862"/>
		<path style="fill:#D5D0BA;" d="M282.486,432.552h-52.966c-4.873,0-8.828-3.946-8.828-8.828c0-4.882,3.955-8.828,8.828-8.828
			h52.966c4.873,0,8.828,3.946,8.828,8.828C291.314,428.606,287.359,432.552,282.486,432.552"/>
	</g>
	<path style="fill:#25B99A;" d="M273.659,190.536V150.07c0-4.873-3.955-8.828-8.828-8.828h-17.655c-4.873,0-8.828,3.955-8.828,8.828
		v40.483c0,3.805-10.337,7.45-13.03,10.143c-2.966,2.966-4.626,6.983-4.626,11.167v150.069c0,4.873,3.955,8.828,8.828,8.828h52.966
		c4.873,0,8.828-3.955,8.828-8.828V211.845c0-4.175-1.66-8.183-4.617-11.132C284.005,198.012,273.659,194.349,273.659,190.536"/>
	<polygon style="fill:#18997A;" points="220.69,308.966 291.31,308.966 291.31,256 220.69,256 	"/>
</g>
<g>
</g>
<g>
</g>
<g>
</g>
<g>
</g>
<g>
</g>
<g>
</g>
<g>
</g>
<g>
</g>
<g>
</g>
<g>
</g>
<g>
</g>
<g>
</g>
<g>
</g>
<g>
</g>
<g>
</g>
</svg>
