<?xml version="1.0" encoding="iso-8859-1"?>
<!-- Generator: Adobe Illustrator 19.0.0, SVG Export Plug-In . SVG Version: 6.00 Build 0)  -->
<svg version="1.1" id="Layer_1" xmlns="http://www.w3.org/2000/svg" xmlns:xlink="http://www.w3.org/1999/xlink" x="0px" y="0px"
	 viewBox="0 0 512 512" style="enable-background:new 0 0 512 512;" xml:space="preserve">
<g>
	<polygon style="fill:#F0EDE0;" points="141.241,512 370.759,512 370.759,88.276 141.241,88.276 	"/>
	<g>
		<polygon style="fill:#D5D0BA;" points="326.624,88.276 141.245,88.276 326.624,0 		"/>
		<path style="fill:#D5D0BA;" d="M202.771,220.69h106.47c-4.167-25.353-26.059-44.138-53.239-44.138S206.937,195.337,202.771,220.69
			 M318.783,238.345H193.228c-4.873,0-8.828-3.946-8.828-8.828c0-39.601,31.453-70.621,71.601-70.621
			c40.157,0,71.609,31.02,71.609,70.621C327.61,234.399,323.656,238.345,318.783,238.345"/>
		<path style="fill:#D5D0BA;" d="M326.624,273.655H185.383c-4.873,0-8.828-3.946-8.828-8.828S180.51,256,185.383,256h141.241
			c4.873,0,8.828,3.946,8.828,8.828S331.497,273.655,326.624,273.655"/>
		<path style="fill:#D5D0BA;" d="M317.797,467.862H194.21c-4.873,0-8.828-3.946-8.828-8.828c0-4.882,3.955-8.828,8.828-8.828
			h123.586c4.873,0,8.828,3.946,8.828,8.828C326.624,463.916,322.669,467.862,317.797,467.862"/>
		<path style="fill:#D5D0BA;" d="M282.486,432.552h-52.966c-4.873,0-8.828-3.946-8.828-8.828c0-4.882,3.955-8.828,8.828-8.828
			h52.966c4.873,0,8.828,3.946,8.828,8.828C291.314,428.606,287.359,432.552,282.486,432.552"/>
		<path style="fill:#D5D0BA;" d="M256.004,175.431c-4.873,0-8.828-3.946-8.828-8.828v-16.534c0-4.882,3.955-8.828,8.828-8.828
			c4.873,0,8.828,3.946,8.828,8.828v16.534C264.831,171.485,260.876,175.431,256.004,175.431"/>
	</g>
</g>
<g>
</g>
<g>
</g>
<g>
</g>
<g>
</g>
<g>
</g>
<g>
</g>
<g>
</g>
<g>
</g>
<g>
</g>
<g>
</g>
<g>
</g>
<g>
</g>
<g>
</g>
<g>
</g>
<g>
</g>
</svg>
