<?xml version="1.0" encoding="iso-8859-1"?>
<!-- Generator: Adobe Illustrator 19.0.0, SVG Export Plug-In . SVG Version: 6.00 Build 0)  -->
<svg version="1.1" id="Layer_1" xmlns="http://www.w3.org/2000/svg" xmlns:xlink="http://www.w3.org/1999/xlink" x="0px" y="0px"
	 viewBox="0 0 512 512" style="enable-background:new 0 0 512 512;" xml:space="preserve">
<g>
	<polygon style="fill:#F0EDE0;" points="141.241,512 370.759,512 370.759,88.276 141.241,88.276 	"/>
	<g>
		<polygon style="fill:#D5D0BA;" points="326.624,88.276 141.245,88.276 326.624,0 		"/>
		<path style="fill:#D5D0BA;" d="M317.797,467.862H194.21c-4.882,0-8.828-3.946-8.828-8.828c0-4.882,3.946-8.828,8.828-8.828
			h123.586c4.882,0,8.828,3.946,8.828,8.828C326.624,463.916,322.678,467.862,317.797,467.862"/>
		<path style="fill:#D5D0BA;" d="M282.486,432.552h-52.966c-4.882,0-8.828-3.946-8.828-8.828c0-4.882,3.946-8.828,8.828-8.828
			h52.966c4.882,0,8.828,3.946,8.828,8.828C291.314,428.606,287.368,432.552,282.486,432.552"/>
	</g>
	<path style="fill:#18997A;" d="M294.495,370.695H217.51c-8.413,0-15.66-5.941-17.311-14.195l-14.813-74.081h141.241L311.806,356.5
		C310.155,364.754,302.908,370.695,294.495,370.695"/>
	<path style="fill:#E1705C;" d="M203.038,282.419c-9.754,0-17.655-7.91-17.655-17.655c0-9.137,6.965-16.561,15.854-17.47
		c-4.326-4.714-7.027-10.946-7.027-17.841c0-14.627,11.855-26.483,26.483-26.483c0.892,0,1.721,0.177,2.586,0.265
		c-1.607-2.666-2.586-5.756-2.586-9.092c0-9.754,7.901-17.655,17.655-17.655c0,0-4.043-86.069,35.31-17.655
		c4.864,8.448,17.655,7.901,17.655,17.655c0,3.531-1.059,6.806-2.851,9.56c11.741,2.728,20.506,13.188,20.506,25.75
		c0,1.589-0.203,3.125-0.468,4.643c10.761,6.047,18.123,17.443,18.123,30.667c0,19.5-15.81,35.31-35.31,35.31H203.038z"/>
	<g>
		<path style="fill:#FFFFFF;" d="M264.831,220.63c-2.26,0-4.52-0.865-6.241-2.586l-8.828-8.828c-3.452-3.452-3.452-9.031,0-12.482
			s9.031-3.452,12.482,0l8.828,8.828c3.452,3.452,3.452,9.031,0,12.482C269.351,219.765,267.091,220.63,264.831,220.63"/>
		<path style="fill:#FFFFFF;" d="M273.659,264.768c-2.26,0-4.52-0.865-6.241-2.586l-8.828-8.828c-3.452-3.452-3.452-9.031,0-12.482
			c3.452-3.452,9.031-3.452,12.482,0l8.828,8.828c3.452,3.452,3.452,9.031,0,12.482
			C278.178,263.902,275.919,264.768,273.659,264.768"/>
		<path style="fill:#FFFFFF;" d="M238.348,238.281c0,4.873-3.955,8.828-8.828,8.828s-8.828-3.955-8.828-8.828
			s3.955-8.828,8.828-8.828S238.348,233.408,238.348,238.281"/>
	</g>
	<path style="fill:#25B99A;" d="M335.452,291.25H176.555c-4.882,0-8.828-3.946-8.828-8.828s3.946-8.828,8.828-8.828h158.897
		c4.882,0,8.828,3.946,8.828,8.828S340.333,291.25,335.452,291.25"/>
</g>
<g>
</g>
<g>
</g>
<g>
</g>
<g>
</g>
<g>
</g>
<g>
</g>
<g>
</g>
<g>
</g>
<g>
</g>
<g>
</g>
<g>
</g>
<g>
</g>
<g>
</g>
<g>
</g>
<g>
</g>
</svg>
