<?xml version="1.0" encoding="iso-8859-1"?>
<!-- Generator: Adobe Illustrator 19.0.0, SVG Export Plug-In . SVG Version: 6.00 Build 0)  -->
<svg version="1.1" id="Layer_1" xmlns="http://www.w3.org/2000/svg" xmlns:xlink="http://www.w3.org/1999/xlink" x="0px" y="0px"
	 viewBox="0 0 507.818 507.818" style="enable-background:new 0 0 507.818 507.818;" xml:space="preserve">
<g>
	<polygon style="fill:#ECF1F1;" points="2.925,317.073 364.337,317.073 364.337,256.838 2.925,256.838 	"/>
	<polygon style="fill:#CB8252;" points="364.337,317.073 504.886,317.073 504.886,256.838 364.337,256.838 	"/>
	<g>
		<path style="fill:#C0C6C7;" d="M12.969,230.906c-5.542,0-10.039-4.498-10.039-10.039c0-59.613,30.208-104.579,70.275-104.579
			h28.11c-5.23-9.025-8.031-19.325-8.031-30.118c0-33.22,27.016-60.235,60.235-60.235c5.542,0,10.039,4.498,10.039,10.039
			s-4.498,10.039-10.039,10.039c-22.146,0-40.157,18.01-40.157,40.157c0,12.74,5.853,24.445,16.043,32.105
			c3.443,2.6,4.869,7.128,3.504,11.224c-1.365,4.096-5.19,6.867-9.507,6.867H73.204c-28.15,0-50.196,37.115-50.196,84.5
			C23.008,226.409,18.51,230.906,12.969,230.906"/>
		<path style="fill:#C0C6C7;" d="M53.125,230.906c-5.542,0-10.039-4.498-10.039-10.039c0-37.326,21.112-64.422,50.196-64.422h60.235
			c11.073,0,20.078-9.005,20.078-20.078c0-8.754-5.642-17.639-12.92-20.49c-4.136-1.245-7.158-5.08-7.158-9.628
			c0-5.532,4.477-10.019,10.009-10.039h0.03c22.146,0,40.157-18.01,40.157-40.157c0-15.962-9.447-30.409-24.084-36.814
			c-5.08-2.219-7.399-8.142-5.17-13.222c2.219-5.08,8.142-7.399,13.222-5.17c21.936,9.597,36.111,31.262,36.111,55.206
			c0,25.279-15.651,46.973-37.778,55.888c4.809,7.068,7.66,15.641,7.66,24.425c0,22.147-18.01,40.157-40.157,40.157H93.282
			c-17.739,0-30.118,18.231-30.118,44.343C63.165,226.409,58.667,230.906,53.125,230.906"/>
	</g>
	<path style="fill:#E9866F;" d="M12.969,507.818c-2.57,0-5.14-0.984-7.098-2.941c-3.925-3.925-3.925-10.27,0-14.195L487.753,8.799
		c3.925-3.925,10.27-3.925,14.195,0s3.925,10.27,0,14.195L20.066,504.876C18.109,506.834,15.539,507.818,12.969,507.818"/>
</g>
<g>
</g>
<g>
</g>
<g>
</g>
<g>
</g>
<g>
</g>
<g>
</g>
<g>
</g>
<g>
</g>
<g>
</g>
<g>
</g>
<g>
</g>
<g>
</g>
<g>
</g>
<g>
</g>
<g>
</g>
</svg>
