<?xml version="1.0" encoding="iso-8859-1"?>
<!-- Generator: Adobe Illustrator 19.0.0, SVG Export Plug-In . SVG Version: 6.00 Build 0)  -->
<svg version="1.1" id="Layer_1" xmlns="http://www.w3.org/2000/svg" xmlns:xlink="http://www.w3.org/1999/xlink" x="0px" y="0px"
	 viewBox="0 0 496.389 496.389" style="enable-background:new 0 0 496.389 496.389;" xml:space="preserve">
<g>
	<g>
		<path style="fill:#CAD3DB;" d="M277.572,42.143c-4.642,0-8.393-3.752-8.393-8.393V8.57c0-4.642,3.752-8.393,8.393-8.393
			c4.642,0,8.393,3.752,8.393,8.393v25.18C285.965,38.392,282.213,42.143,277.572,42.143"/>
		<path style="fill:#CAD3DB;" d="M302.752,16.963h-0.034l-50.361-0.176c-4.633-0.008-8.377-3.785-8.36-8.41
			C244.015,3.743,247.767,0,252.391,0h0.034l50.361,0.176c4.633,0.017,8.377,3.785,8.36,8.419
			C311.129,13.228,307.377,16.963,302.752,16.963"/>
		<path style="fill:#CAD3DB;" d="M92.916,302.34H50.949c-4.642,0-8.393-3.752-8.393-8.393c0-4.642,3.752-8.393,8.393-8.393h41.967
			c4.642,0,8.393,3.752,8.393,8.393C101.309,298.588,97.558,302.34,92.916,302.34"/>
		<path style="fill:#CAD3DB;" d="M50.94,302.34c-3.92,0-7.428-2.753-8.217-6.748l-16.787-83.934c-0.915-4.549,2.04-8.964,6.58-9.871
			c4.583-0.94,8.964,2.04,9.871,6.58l16.787,83.934c0.915,4.549-2.04,8.964-6.58,9.871C52.04,302.29,51.478,302.34,50.94,302.34"/>
		<path style="fill:#CAD3DB;" d="M34.162,218.406H17.375c-4.642,0-8.393-3.752-8.393-8.393s3.752-8.393,8.393-8.393h16.787
			c4.642,0,8.393,3.752,8.393,8.393S38.803,218.406,34.162,218.406"/>
	</g>
	<path style="fill:#556080;" d="M487.408,461.816H67.736L91.489,225.23c0.806-8.62,8.049-15.217,16.711-15.217h338.743
		c8.662,0,15.906,6.597,16.711,15.217L487.408,461.816z"/>
	<polygon style="fill:#CAD3DB;" points="428.654,176.439 126.49,176.439 143.277,210.012 411.867,210.012 	"/>
	<path style="fill:#E6EEF3;" d="M420.26,176.439c0-78.806-63.882-142.689-142.689-142.689S134.883,97.633,134.883,176.439H420.26z"
		/>
	<path style="fill:#CAD3DB;" d="M173.744,151.258c-0.856,0-1.729-0.134-2.594-0.411c-4.407-1.427-6.815-6.161-5.389-10.576
		c15.763-48.648,60.693-81.341,111.809-81.341c4.642,0,8.393,3.752,8.393,8.393s-3.752,8.393-8.393,8.393
		c-43.814,0-82.323,28.026-95.845,69.741C180.576,149,177.286,151.258,173.744,151.258"/>
	<g>
		<path style="fill:#384462;" d="M436.982,460.775L420.195,326.48c-0.571-4.591-4.751-7.781-9.367-7.285
			c-4.6,0.571-7.865,4.767-7.286,9.367l16.653,133.254h16.711C436.906,461.463,437.024,461.136,436.982,460.775"/>
		<path style="fill:#384462;" d="M361.489,461.291l-8.393-134.295c-0.294-4.642-4.289-8.041-8.905-7.856
			c-4.616,0.294-8.133,4.272-7.848,8.905l8.36,133.766h16.711C361.414,461.635,361.498,461.476,361.489,461.291"/>
		<path style="fill:#384462;" d="M277.572,319.127c-4.642,0-8.393,3.752-8.393,8.393v134.295h16.787V327.521
			C285.965,322.879,282.213,319.127,277.572,319.127"/>
		<path style="fill:#384462;" d="M218.801,328.045c0.285-4.633-3.231-8.612-7.856-8.905c-4.541-0.176-8.612,3.215-8.897,7.856
			l-8.393,134.295c-0.008,0.185,0.067,0.344,0.067,0.529h16.72L218.801,328.045z"/>
		<path style="fill:#384462;" d="M151.605,328.561c0.571-4.6-2.686-8.796-7.286-9.367c-4.642-0.495-8.796,2.694-9.367,7.285
			l-16.787,134.295c-0.05,0.361,0.076,0.688,0.076,1.041h16.711L151.605,328.561z"/>
	</g>
	<path style="fill:#667D8C;" d="M126.49,478.602c0-9.275-7.512-16.787-16.787-16.787s-16.787,7.512-16.787,16.787
		s7.512,16.787,16.787,16.787S126.49,487.877,126.49,478.602"/>
	<path style="fill:none;stroke:#BDC3C7;stroke-width:2;" d="M126.49,478.602c0-9.275-7.512-16.787-16.787-16.787
		s-16.787,7.512-16.787,16.787s7.512,16.787,16.787,16.787S126.49,487.877,126.49,478.602L126.49,478.602z"/>
	<path style="fill:#667D8C;" d="M462.227,478.602c0-9.275-7.512-16.787-16.787-16.787s-16.787,7.512-16.787,16.787
		s7.512,16.787,16.787,16.787S462.227,487.877,462.227,478.602"/>
	<path style="fill:none;stroke:#BDC3C7;stroke-width:2;" d="M462.227,478.602c0-9.275-7.512-16.787-16.787-16.787
		s-16.787,7.512-16.787,16.787s7.512,16.787,16.787,16.787S462.227,487.877,462.227,478.602L462.227,478.602z"/>
</g>
<g>
</g>
<g>
</g>
<g>
</g>
<g>
</g>
<g>
</g>
<g>
</g>
<g>
</g>
<g>
</g>
<g>
</g>
<g>
</g>
<g>
</g>
<g>
</g>
<g>
</g>
<g>
</g>
<g>
</g>
</svg>
