<?xml version="1.0" encoding="iso-8859-1"?>
<!-- Generator: Adobe Illustrator 19.0.0, SVG Export Plug-In . SVG Version: 6.00 Build 0)  -->
<svg version="1.1" id="Layer_1" xmlns="http://www.w3.org/2000/svg" xmlns:xlink="http://www.w3.org/1999/xlink" x="0px" y="0px"
	 viewBox="0 0 503.322 503.322" style="enable-background:new 0 0 503.322 503.322;" xml:space="preserve">
<g>
	<path style="fill:#8697CB;" d="M17.356,121.492h468.61c9.589,0,17.356,7.767,17.356,17.356v225.627
		c0,9.589-7.767,17.356-17.356,17.356H17.356C7.767,381.831,0,374.064,0,364.475V138.847C0,129.258,7.767,121.492,17.356,121.492"/>
	<path style="fill:#6074A4;" d="M303.727,321.085H78.1c-9.589,0-17.356-7.767-17.356-17.356V199.593
		c0-9.589,7.767-17.356,17.356-17.356h225.627c9.589,0,17.356,7.767,17.356,17.356v104.136
		C321.083,313.318,313.316,321.085,303.727,321.085"/>
	<polygon style="fill:#76A944;" points="95.452,286.373 147.52,286.373 147.52,216.949 95.452,216.949 	"/>
	<g>
		<path style="fill:#445A85;" d="M199.591,225.627h-17.356c-4.79,0-8.678-3.879-8.678-8.678s3.888-8.678,8.678-8.678h17.356
			c4.79,0,8.678,3.879,8.678,8.678S204.382,225.627,199.591,225.627"/>
		<path style="fill:#445A85;" d="M242.981,225.627h-17.356c-4.79,0-8.678-3.879-8.678-8.678s3.888-8.678,8.678-8.678h17.356
			c4.79,0,8.678,3.879,8.678,8.678S247.772,225.627,242.981,225.627"/>
		<path style="fill:#445A85;" d="M286.371,225.627h-17.356c-4.79,0-8.678-3.879-8.678-8.678s3.888-8.678,8.678-8.678h17.356
			c4.79,0,8.678,3.879,8.678,8.678S291.161,225.627,286.371,225.627"/>
		<path style="fill:#445A85;" d="M199.591,260.339h-17.356c-4.79,0-8.678-3.879-8.678-8.678c0-4.799,3.888-8.678,8.678-8.678h17.356
			c4.79,0,8.678,3.879,8.678,8.678C208.269,256.46,204.382,260.339,199.591,260.339"/>
		<path style="fill:#445A85;" d="M242.981,260.339h-17.356c-4.79,0-8.678-3.879-8.678-8.678c0-4.799,3.888-8.678,8.678-8.678h17.356
			c4.79,0,8.678,3.879,8.678,8.678C251.659,256.46,247.772,260.339,242.981,260.339"/>
		<path style="fill:#445A85;" d="M286.371,260.339h-17.356c-4.79,0-8.678-3.879-8.678-8.678c0-4.799,3.888-8.678,8.678-8.678h17.356
			c4.79,0,8.678,3.879,8.678,8.678C295.049,256.46,291.161,260.339,286.371,260.339"/>
		<path style="fill:#445A85;" d="M199.591,295.051h-17.356c-4.79,0-8.678-3.879-8.678-8.678c0-4.799,3.888-8.678,8.678-8.678h17.356
			c4.79,0,8.678,3.879,8.678,8.678C208.269,291.172,204.382,295.051,199.591,295.051"/>
		<path style="fill:#445A85;" d="M242.981,295.051h-17.356c-4.79,0-8.678-3.879-8.678-8.678c0-4.799,3.888-8.678,8.678-8.678h17.356
			c4.79,0,8.678,3.879,8.678,8.678C251.659,291.172,247.772,295.051,242.981,295.051"/>
		<path style="fill:#445A85;" d="M286.371,295.051h-17.356c-4.79,0-8.678-3.879-8.678-8.678c0-4.799,3.888-8.678,8.678-8.678h17.356
			c4.79,0,8.678,3.879,8.678,8.678C295.049,291.172,291.161,295.051,286.371,295.051"/>
	</g>
	<g>
		<path style="fill:#6074A4;" d="M477.286,156.203c-19.17,0-34.712,15.542-34.712,34.712s15.542,34.712,34.712,34.712h26.034
			v-69.424H477.286z"/>
		<path style="fill:#6074A4;" d="M477.286,277.695c-19.17,0-34.712,15.542-34.712,34.712c0,19.17,15.542,34.712,34.712,34.712
			h26.034v-69.424H477.286z"/>
	</g>
	<g>
		<path style="fill:#CAD3DB;" d="M477.286,182.237c-4.79,0-8.678,3.879-8.678,8.678c0,4.799,3.888,8.678,8.678,8.678h26.034v-17.356
			H477.286z"/>
		<path style="fill:#CAD3DB;" d="M477.286,303.729c-4.79,0-8.678,3.879-8.678,8.678c0,4.799,3.888,8.678,8.678,8.678h26.034v-17.356
			H477.286z"/>
		<path style="fill:#CAD3DB;" d="M477.286,208.271c-4.79,0-8.678-3.879-8.678-8.678v-17.356c0-4.799,3.888-8.678,8.678-8.678
			c4.79,0,8.678,3.879,8.678,8.678v17.356C485.964,204.392,482.077,208.271,477.286,208.271"/>
		<path style="fill:#CAD3DB;" d="M477.286,329.763c-4.79,0-8.678-3.879-8.678-8.678v-17.356c0-4.799,3.888-8.678,8.678-8.678
			c4.79,0,8.678,3.879,8.678,8.678v17.356C485.964,325.884,482.077,329.763,477.286,329.763"/>
	</g>
</g>
<g>
</g>
<g>
</g>
<g>
</g>
<g>
</g>
<g>
</g>
<g>
</g>
<g>
</g>
<g>
</g>
<g>
</g>
<g>
</g>
<g>
</g>
<g>
</g>
<g>
</g>
<g>
</g>
<g>
</g>
</svg>
