<?xml version="1.0" encoding="iso-8859-1"?>
<!-- Generator: Adobe Illustrator 19.0.0, SVG Export Plug-In . SVG Version: 6.00 Build 0)  -->
<svg version="1.1" id="Layer_1" xmlns="http://www.w3.org/2000/svg" xmlns:xlink="http://www.w3.org/1999/xlink" x="0px" y="0px"
	 viewBox="0 0 512.001 512.001" style="enable-background:new 0 0 512.001 512.001;" xml:space="preserve">
<g>
	<path style="fill:#485762;" d="M300.139,467.862l17.655-8.828v-44.138c0-9.754-7.91-17.655-17.655-17.655h-17.655v70.621
		C287.127,466.22,294.86,467.862,300.139,467.862"/>
	<path style="fill:#E17585;" d="M282.484,465.916V282.478c0-39.521-25.98-72.969-61.793-84.215v3.275
		c0,14.336-10.734,27.189-25.062,27.939c-15.272,0.803-27.904-11.343-27.904-26.447v-4.767
		c-35.814,11.246-61.793,44.694-61.793,84.215V494.34c0,9.754,7.91,17.655,17.655,17.655h141.241V496.68
		C264.829,483.941,271.829,472.73,282.484,465.916"/>
	<path style="fill:#485762;" d="M105.932,494.345H88.277c-9.754,0-17.655-7.901-17.655-17.655v-61.793
		c0-9.754,7.901-17.655,17.655-17.655h17.655V494.345z"/>
	<g>
		<path style="fill:#A13A4F;" d="M194.208,229.517L194.208,229.517c-14.627,0-26.483-11.855-26.483-26.483v-44.138h52.966v44.138
			C220.691,217.662,208.836,229.517,194.208,229.517"/>
		<path style="fill:#A13A4F;" d="M229.519,512h-70.621v-19.253c0-8.872,7.186-16.057,16.057-16.057h38.506
			c8.872,0,16.057,7.186,16.057,16.057V512z"/>
		<path style="fill:#A13A4F;" d="M209.519,423.724h-30.623c-10.62,0-18.838-9.304-17.514-19.844l4.414-35.31
			c1.103-8.836,8.616-15.466,17.514-15.466h21.795c8.907,0,16.41,6.63,17.523,15.466l4.414,35.31
			C228.357,414.42,220.138,423.724,209.519,423.724"/>
		<path style="fill:#A13A4F;" d="M194.208,282.483H150.07c-4.882,0-8.828-3.946-8.828-8.828s3.946-8.828,8.828-8.828h44.138
			c4.882,0,8.828,3.946,8.828,8.828S199.09,282.483,194.208,282.483"/>
		<path style="fill:#A13A4F;" d="M238.346,282.483h-8.828c-4.882,0-8.828-3.946-8.828-8.828s3.946-8.828,8.828-8.828h8.828
			c4.882,0,8.828,3.946,8.828,8.828S243.228,282.483,238.346,282.483"/>
	</g>
	<path style="fill:#D1D4D1;" d="M370.76,423.724h-35.31V97.103c0-34.066-27.727-61.793-61.793-61.793s-61.793,27.727-61.793,61.793
		v61.793h-35.31V97.103C176.553,43.564,220.117,0,273.656,0s97.103,43.564,97.103,97.103V423.724z"/>
	<path style="fill:#A13A4F;" d="M317.794,423.722h70.621v17.655c0,19.5-15.81,35.31-35.31,35.31s-35.31-15.81-35.31-35.31V423.722z"
		/>
	<path style="fill:#7D263C;" d="M399.969,459.035h-16.455c-6.118,10.505-17.373,17.655-30.411,17.655s-24.294-7.15-30.411-17.655
		h-16.455c-22.863,0-41.41,16.852-41.41,37.65v15.316h176.552v-15.316C441.379,475.887,422.841,459.035,399.969,459.035"/>
</g>
<g>
</g>
<g>
</g>
<g>
</g>
<g>
</g>
<g>
</g>
<g>
</g>
<g>
</g>
<g>
</g>
<g>
</g>
<g>
</g>
<g>
</g>
<g>
</g>
<g>
</g>
<g>
</g>
<g>
</g>
</svg>
