<svg enable-background="new 0 0 32 32" height="512" viewBox="0 0 32 32" width="512" xmlns="http://www.w3.org/2000/svg"><path d="m26 32h-20c-3.314 0-6-2.686-6-6v-20c0-3.314 2.686-6 6-6h20c3.314 0 6 2.686 6 6v20c0 3.314-2.686 6-6 6z" fill="#f5e6fe"/><path d="m8.867 15.353v7.847c0 .44.36.8.8.8h12.667c.447 0 .8-.36.8-.8v-7.847zm9.079 2.512h-3.892c-.358 0-.649-.291-.649-.649s.291-.649.649-.649h3.892c.358 0 .649.291.649.649s-.291.649-.649.649z" fill="#be63f9"/><path d="m23.5 14.022h-15c-.276 0-.5-.224-.5-.5v-2.527h16v2.527c0 .276-.224.5-.5.5z" fill="#be63f9"/><path d="m21.622 8h-11.244l-2.378 2.995h16z" fill="#d9a4fc"/></svg>