<svg enable-background="new 0 0 32 32" height="512" viewBox="0 0 32 32" width="512" xmlns="http://www.w3.org/2000/svg"><path d="m26 32h-20c-3.314 0-6-2.686-6-6v-20c0-3.314 2.686-6 6-6h20c3.314 0 6 2.686 6 6v20c0 3.314-2.686 6-6 6z" fill="#ffe6e2"/><path d="m22.667 12.513v-4.013c0-.276-.224-.5-.5-.5h-1.667c-.276 0-.5.224-.5.5v1.56c-1.178-.67-2.542-1.06-4-1.06-4.417 0-8.009 3.523-8 7.849.001.269.231.484.5.484h.833v6c0 .369.299.667.667.667h1.333v-8h9.333v8h1.334c.368 0 .667-.298.667-.667v-6h.833c.269 0 .499-.215.5-.484.003-1.602-.49-3.093-1.333-4.336z" fill="#fc573b"/><g fill="#fd907e"><path d="m12.333 22.333h7.333v1.667h-7.333z"/><path d="m12.333 19.667h7.333v1.667h-7.333z"/><path d="m12.333 17h7.333v1.667h-7.333z"/></g></svg>