<svg enable-background="new 0 0 32 32" height="512" viewBox="0 0 32 32" width="512" xmlns="http://www.w3.org/2000/svg"><path d="m26 32h-20c-3.314 0-6-2.686-6-6v-20c0-3.314 2.686-6 6-6h20c3.314 0 6 2.686 6 6v20c0 3.314-2.686 6-6 6z" fill="#fff9dd"/><path d="m22.167 20.5h-2.333c-.276 0-.5-.224-.5-.5v-1.667c0-.919.747-1.667 1.667-1.667s1.667.748 1.667 1.667v1.667c-.001.276-.225.5-.501.5zm-1.834-1h1.333v-1.167c0-.368-.299-.667-.667-.667s-.667.299-.667.667v1.167z" fill="#ffe777"/><path d="m22.833 24h-3.667c-.643 0-1.166-.523-1.166-1.166v-2.334c0-.643.523-1.167 1.167-1.167h3.667c.643 0 1.167.523 1.167 1.167v2.333c-.001.644-.524 1.167-1.168 1.167z" fill="#ffe777"/><g fill="#ffd200"><path d="m19.84 11.94-5.627-3.873c-.127-.087-.3-.087-.427 0l-5.626 3.873c-.1.067-.16.187-.16.307v6.88c0 .48.393.873.873.873h1.627v-6.127c0-.207.173-.373.373-.373h6.253c.2 0 .373.167.373.373v4.773c.147-.14.313-.26.5-.36.02-1.28.847-2.373 2-2.78v-3.26c.001-.119-.059-.239-.159-.306z"/><path d="m11.253 14.247h5.493v1h-5.493z"/><path d="m11.253 16h5.493v1.247h-5.493z"/><path d="m11.253 14.247h5.493v1h-5.493z"/><path d="m11.253 16h5.493v1.247h-5.493z"/><path d="m11.25 18h5.5v1.25h-5.5z"/></g></svg>