<svg enable-background="new 0 0 32 32" height="512" viewBox="0 0 32 32" width="512" xmlns="http://www.w3.org/2000/svg"><path d="m26 32h-20c-3.314 0-6-2.686-6-6v-20c0-3.314 2.686-6 6-6h20c3.314 0 6 2.686 6 6v20c0 3.314-2.686 6-6 6z" fill="#f5e6fe"/><path d="m19.667 15.334c-2.389 0-4.333 1.944-4.333 4.333s1.943 4.333 4.333 4.333 4.333-1.944 4.333-4.333-1.944-4.333-4.333-4.333zm1.728 6.14c-.098.127-.246.193-.395.193-.107 0-.215-.035-.307-.105l-1.5-1.167c-.122-.095-.193-.24-.193-.395v-2.167c0-.276.224-.5.5-.5s.5.224.5.5v1.922l1.307 1.017c.218.17.257.484.088.702z" fill="#d9a4fc"/><g fill="#be63f9"><path d="m19.84 11.94-5.627-3.873c-.127-.087-.3-.087-.427 0l-5.626 3.873c-.1.067-.16.187-.16.307v6.88c0 .48.393.873.873.873h1.627v-6.127c0-.207.173-.373.373-.373h6.253c.2 0 .373.167.373.373v.56c.668-.279 1.401-.433 2.168-.433.113 0 .22 0 .333.007v-1.76c0-.12-.06-.24-.16-.307z"/><path d="m11.253 14.247v1h4.867c.2-.16.407-.307.627-.433v-.567z"/><path d="m11.253 16v1.247h3.293c.207-.453.48-.873.8-1.247z"/><path d="m11.253 14.247v1h4.867c.2-.16.407-.307.627-.433v-.567z"/><path d="m11.253 16v1.247h3.293c.207-.453.48-.873.8-1.247z"/><path d="m14.247 18c-.12.4-.2.813-.233 1.247h-2.76v-1.247z"/></g></svg>