<svg enable-background="new 0 0 32 32" height="512" viewBox="0 0 32 32" width="512" xmlns="http://www.w3.org/2000/svg"><path d="m26 32h-20c-3.314 0-6-2.686-6-6v-20c0-3.314 2.686-6 6-6h20c3.314 0 6 2.686 6 6v20c0 3.314-2.686 6-6 6z" fill="#f5e6fe"/><g fill="#be63f9"><path d="m16.833 20h-4.333c-.276 0-.5-.224-.5-.5v-11c0-.276.224-.5.5-.5h4.333c.276 0 .5.224.5.5v11c0 .276-.224.5-.5.5z"/><path d="m23.5 20h-4.667c-.276 0-.5-.224-.5-.5v-4c0-.276.224-.5.5-.5h4.667c.276 0 .5.224.5.5v4c0 .276-.224.5-.5.5z"/><path d="m22.833 14h-3c-.276 0-.5-.224-.5-.5v-2.333c0-.276.224-.5.5-.5h3c.276 0 .5.224.5.5v2.333c0 .276-.224.5-.5.5z"/></g><g fill="#d9a4fc"><path d="m23.286 22-11.62-.002c-1.103 0-2-.897-2-2v-6.665h-1c-.368 0-.666-.298-.666-.666s.298-.667.667-.667h1c.735 0 1.333.598 1.333 1.333v6.665c0 .368.299.667.667.667l11.62.002c.368 0 .667.299.667.667s-.3.666-.668.666z"/><circle cx="14" cy="22.667" r=".833"/><path d="m14 24c-.735 0-1.333-.598-1.333-1.333s.598-1.333 1.333-1.333 1.333.598 1.333 1.333-.598 1.333-1.333 1.333zm0-1.667c-.184 0-.333.149-.333.333s.149.334.333.334.333-.149.333-.333-.149-.334-.333-.334z"/><circle cx="20.667" cy="22.667" r=".833"/><path d="m20.667 24c-.735 0-1.333-.598-1.333-1.333s.598-1.333 1.333-1.333 1.333.598 1.333 1.333-.598 1.333-1.333 1.333zm0-1.667c-.184 0-.333.149-.333.333s.149.334.333.334c.183 0 .333-.149.333-.333s-.15-.334-.333-.334z"/></g></svg>