<svg enable-background="new 0 0 32 32" height="512" viewBox="0 0 32 32" width="512" xmlns="http://www.w3.org/2000/svg"><path d="m26 32h-20c-3.314 0-6-2.686-6-6v-20c0-3.314 2.686-6 6-6h20c3.314 0 6 2.686 6 6v20c0 3.314-2.686 6-6 6z" fill="#e3f8fa"/><path d="m10.5 20.667c-.723 0-1.333-.643-1.333-1.405 0-.455.21-.884.563-1.146.169-.127.27-.345.27-.583v-3.7c0-.276.224-.5.5-.5s.5.224.5.5v3.7c0 .551-.251 1.069-.672 1.383-.102.076-.161.204-.161.345 0 .232.176.405.333.405.184 0 .333-.182.333-.405 0-.276.224-.5.5-.5s.5.224.5.5c0 .775-.598 1.406-1.333 1.406z" fill="#26c6da"/><g fill="#8ce1eb"><path d="m19.5 24c-.276 0-.5-.224-.5-.5v-10c0-.276.224-.5.5-.5s.5.224.5.5v10c0 .276-.224.5-.5.5z"/><path d="m17.167 24c-.276 0-.5-.224-.5-.5v-10c0-.276.224-.5.5-.5s.5.224.5.5v10c0 .276-.224.5-.5.5z"/><path d="m19.5 22.833c-.139 0-.277-.058-.376-.171l-2.333-2.667c-.182-.208-.161-.523.047-.705s.523-.162.706.047l2.333 2.667c.182.208.161.523-.047.705-.096.084-.213.124-.33.124z"/><path d="m19.5 19.833c-.139 0-.277-.058-.376-.171l-2.333-2.667c-.182-.208-.161-.523.047-.705.208-.181.523-.162.706.047l2.333 2.667c.182.208.161.523-.047.705-.096.084-.213.124-.33.124z"/><path d="m19.5 16.833c-.139 0-.277-.058-.376-.171l-2.333-2.667c-.182-.208-.161-.523.047-.705.208-.181.523-.161.706.047l2.333 2.667c.182.208.161.523-.047.705-.096.084-.213.124-.33.124z"/></g><g fill="#26c6da"><path d="m23.64 11.853-4-1.167c-.018-.005-.037 0-.056-.003-.028-.005-.054-.017-.084-.017h-2.333c-.012 0-.023.006-.035.007-.011.001-.021-.004-.031-.002l-8.667 1.167c-.249.033-.434.245-.434.495v1.167c0 .276.224.5.5.5h8.667 2.333 4c.276 0 .5-.224.5-.5v-1.167c0-.222-.146-.417-.36-.48z"/><path d="m18.333 11.5c-.276 0-.5-.224-.5-.5v-2.5c0-.276.224-.5.5-.5s.5.224.5.5v2.5c0 .276-.224.5-.5.5z"/><path d="m23.5 16h-1.833c-.276 0-.5-.224-.5-.5v-2c0-.276.224-.5.5-.5h1.833c.276 0 .5.224.5.5v2c0 .276-.224.5-.5.5z"/><path d="m9.333 12.679c-.197 0-.383-.117-.463-.311-.104-.256.018-.548.273-.652l9-3.679c.169-.069.362-.041.504.074l4.333 3.5c.215.174.248.488.074.703-.173.215-.487.248-.703.075l-4.103-3.314-8.727 3.568c-.061.025-.125.036-.188.036z"/></g></svg>