<svg enable-background="new 0 0 32 32" height="512" viewBox="0 0 32 32" width="512" xmlns="http://www.w3.org/2000/svg"><path d="m26 32h-20c-3.314 0-6-2.686-6-6v-20c0-3.314 2.686-6 6-6h20c3.314 0 6 2.686 6 6v20c0 3.314-2.686 6-6 6z" fill="#fff9dd"/><path d="m22.5 10v.5c0 .276-.224.5-.5.5s-.5-.224-.5-.5v-.5h-1.167c-.184 0-.333.149-.333.333v2.667c0 .184.149.333.333.333h3.333c.185 0 .334-.149.334-.333v-2.667c0-.184-.149-.333-.333-.333z" fill="#ffe777"/><path d="m23.5 14.333h-4.5v-3.833c0-.276-.224-.5-.5-.5s-.5.224-.5.5v5.833h-.685l-1.568-4.443c-.258-.732-.952-1.223-1.729-1.223h-2.184c-.276 0-.5.224-.5.5v3.5h-1.5c-1.012 0-1.834.822-1.834 1.833v3c0 .643.523 1.167 1.167 1.167h.2c.155.76.828 1.333 1.633 1.333s1.478-.574 1.633-1.333h1.401c.155.76.828 1.333 1.633 1.333s1.478-.574 1.633-1.333h1.2c.276 0 .5-.224.5-.5v-3.333-1.5h4.5c.276 0 .5-.224.5-.5s-.224-.501-.5-.501zm-11.167-2.666h1.684c.353 0 .669.223.786.556l1.451 4.111h-3.087c-.46 0-.833-.374-.833-.833v-.333-3.501zm-1.333 9.333c-.368 0-.667-.299-.667-.667s.299-.667.667-.667.667.299.667.667-.299.667-.667.667zm4.667 0c-.368 0-.667-.299-.667-.667s.299-.667.667-.667.667.299.667.667-.299.667-.667.667z" fill="#ffd200"/></svg>