<svg enable-background="new 0 0 32 32" height="512" viewBox="0 0 32 32" width="512" xmlns="http://www.w3.org/2000/svg"><path d="m26 32h-20c-3.314 0-6-2.686-6-6v-20c0-3.314 2.686-6 6-6h20c3.314 0 6 2.686 6 6v20c0 3.314-2.686 6-6 6z" fill="#ffe6e2"/><path d="m26 32h-20c-3.314 0-6-2.686-6-6v-20c0-3.314 2.686-6 6-6h20c3.314 0 6 2.686 6 6v20c0 3.314-2.686 6-6 6z" fill="#ffe6e2"/><path d="m16 13c-1.379 0-2.5-1.121-2.5-2.5s1.121-2.5 2.5-2.5 2.5 1.121 2.5 2.5-1.121 2.5-2.5 2.5zm0-3.667c-.643 0-1.167.523-1.167 1.167s.523 1.167 1.167 1.167 1.167-.523 1.167-1.167-.524-1.167-1.167-1.167z" fill="#fd907e"/><path d="m23.849 22.625-1.757-9.667c-.101-.555-.584-.958-1.148-.958h-9.887c-.564 0-1.047.403-1.148.958l-1.757 9.667c-.062.341.03.69.252.956.221.266.548.419.895.419h13.402c.347 0 .674-.153.896-.419.222-.267.314-.615.252-.956zm-8.652-2.073c-.098.104-.231.156-.363.156-.123 0-.247-.045-.344-.137l-1.49-1.409v1.005c0 .276-.224.5-.5.5s-.5-.224-.5-.5v-2.169-2.164c0-.276.224-.5.5-.5s.5.224.5.5v1.02l1.493-1.387c.202-.188.519-.176.707.026s.176.519-.026.707l-1.942 1.804 1.946 1.841c.2.19.208.507.019.707zm4.803-3.385c0 .276-.224.5-.5.5s-.5-.224-.5-.5v-.167c0-.368-.299-.667-.667-.667s-.667.299-.667.667v2c0 .368.299.667.667.667s.667-.299.667-.667h-.5c-.276 0-.5-.224-.5-.5s.224-.5.5-.5h1c.276 0 .5.224.5.5v.5c0 .919-.748 1.667-1.667 1.667s-1.667-.748-1.667-1.667v-2c0-.919.748-1.667 1.667-1.667s1.667.748 1.667 1.667z" fill="#fc573b"/></svg>