<svg enable-background="new 0 0 32 32" height="512" viewBox="0 0 32 32" width="512" xmlns="http://www.w3.org/2000/svg"><path d="m26 32h-20c-3.314 0-6-2.686-6-6v-20c0-3.314 2.686-6 6-6h20c3.314 0 6 2.686 6 6v20c0 3.314-2.686 6-6 6z" fill="#f5e6fe"/><path d="m23.5 24h-2.667c-.276 0-.5-.224-.5-.5v-.833h-2v.833c0 .276-.224.5-.5.5h-3.667c-.276 0-.5-.224-.5-.5v-.833h-2v.833c0 .276-.224.5-.5.5h-2.666c-.276 0-.5-.224-.5-.5v-2.167h16v2.167c0 .276-.224.5-.5.5z" fill="#d9a4fc"/><g fill="#be63f9"><path d="m18.667 8h-2v1.333c0 .369-.299.667-.667.667s-.667-.298-.667-.667v-1.333h-2c-.368 0-.667.298-.667.667v4c0 .368.298.667.667.667h5.333c.368 0 .667-.298.667-.667v-4c0-.369-.298-.667-.666-.667z"/><path d="m14.667 14.667h-2v1.333c0 .368-.298.667-.667.667s-.667-.299-.667-.667v-1.333h-2c-.368 0-.667.298-.667.667v4c.001.368.299.666.667.666h5.333c.368 0 .667-.298.667-.667v-4c0-.368-.298-.666-.666-.666z"/><path d="m22.667 14.667h-2v1.333c0 .368-.298.667-.667.667-.368 0-.667-.298-.667-.667v-1.333h-2c-.368 0-.667.298-.667.667v4c0 .368.298.667.667.667h5.333c.368 0 .667-.298.667-.667v-4c0-.369-.298-.667-.666-.667z"/></g></svg>