<svg enable-background="new 0 0 32 32" height="512" viewBox="0 0 32 32" width="512" xmlns="http://www.w3.org/2000/svg"><path d="m26 32h-20c-3.314 0-6-2.686-6-6v-20c0-3.314 2.686-6 6-6h20c3.314 0 6 2.686 6 6v20c0 3.314-2.686 6-6 6z" fill="#fff9dd"/><path d="m23.5 24h-2.333c-.276 0-.5-.224-.5-.5v-.833h-9.333v.833c0 .276-.224.5-.5.5h-2.334c-.276 0-.5-.224-.5-.5v-2.833c0-.276.224-.5.5-.5h15c.276 0 .5.224.5.5v2.833c0 .276-.224.5-.5.5z" fill="#ffe777"/><g fill="#ffd200"><path d="m15.623 13.71c0-.61.494-1.105 1.102-1.105h.609v-4.105c0-.276-.224-.5-.5-.5h-2.167v2.833c0 .276-.224.5-.5.5h-1.667c-.276 0-.5-.224-.5-.5v-2.833h-2.167c-.276 0-.5.224-.5.5v10.229c0 .276.224.5.5.5h5.881c-.058-.135-.091-.283-.091-.439z"/><path d="m22.232 13.271h-1.884v1.423c0 .24-.197.439-.435.439h-.87c-.238 0-.435-.199-.435-.439v-1.423h-1.884c-.238 0-.435.199-.435.439v5.08c0 .24.197.439.435.439h5.507c.238 0 .435-.199.435-.439v-5.08c.001-.24-.196-.439-.434-.439z"/></g></svg>