<svg enable-background="new 0 0 32 32" height="512" viewBox="0 0 32 32" width="512" xmlns="http://www.w3.org/2000/svg"><path d="m26 32h-20c-3.314 0-6-2.686-6-6v-20c0-3.314 2.686-6 6-6h20c3.314 0 6 2.686 6 6v20c0 3.314-2.686 6-6 6z" fill="#ffe6e2"/><path d="m26 32h-20c-3.314 0-6-2.686-6-6v-20c0-3.314 2.686-6 6-6h20c3.314 0 6 2.686 6 6v20c0 3.314-2.686 6-6 6z" fill="#ffe6e2"/><path d="m23.5 24.5h-2.333c-.276 0-.5-.224-.5-.5v-.833h-2.333v.833c0 .276-.224.5-.5.5h-3.667c-.276 0-.5-.224-.5-.5v-.833h-2.333v.833c0 .276-.224.5-.5.5h-2.334c-.276 0-.5-.224-.5-.5v-3c0-.276.224-.5.5-.5h15c.276 0 .5.224.5.5v3c0 .276-.224.5-.5.5z" fill="#fc573b"/><g fill="#fd907e"><path d="m16 17.167c-.368 0-.667-.299-.667-.667v-5.167c0-.368.299-.667.667-.667s.667.299.667.667v5.167c0 .368-.299.667-.667.667z"/><path d="m18.5 14.167c-.163 0-.326-.059-.455-.179l-2.045-1.91-2.045 1.909c-.268.252-.69.237-.942-.033-.251-.269-.237-.691.033-.942l2.5-2.333c.256-.239.654-.239.91 0l2.5 2.333c.269.251.284.673.033.942-.133.142-.311.213-.489.213z"/></g></svg>