<svg enable-background="new 0 0 32 32" height="512" viewBox="0 0 32 32" width="512" xmlns="http://www.w3.org/2000/svg"><path d="m26 32h-20c-3.314 0-6-2.686-6-6v-20c0-3.314 2.686-6 6-6h20c3.314 0 6 2.686 6 6v20c0 3.314-2.686 6-6 6z" fill="#ffe6e2"/><path d="m22.833 8h-2.231-1.269-6.667-1.269-2.23c-.64 0-1.167.527-1.167 1.167v13.667c0 .639.527 1.166 1.167 1.166h13.667c.639 0 1.166-.527 1.166-1.167v-13.666c0-.64-.527-1.167-1.167-1.167zm-6.926 6.18-2.453 1.727c-.153.107-.353.12-.52.04-.16-.087-.267-.26-.267-.447v-6.5h6.667v6.5c0 .187-.107.36-.267.447-.074.033-.154.053-.234.053-.1 0-.2-.033-.287-.093l-2.453-1.727c-.053-.04-.133-.04-.186 0zm6.093 7.32c0 .273-.227.5-.5.5h-4.333c-.273 0-.5-.227-.5-.5v-2.333c0-.273.227-.5.5-.5h4.333c.273 0 .5.227.5.5z" fill="#fc573b"/></svg>