<svg enable-background="new 0 0 32 32" height="512" viewBox="0 0 32 32" width="512" xmlns="http://www.w3.org/2000/svg"><path d="m26 32h-20c-3.314 0-6-2.686-6-6v-20c0-3.314 2.686-6 6-6h20c3.314 0 6 2.686 6 6v20c0 3.314-2.686 6-6 6z" fill="#ffe6e2"/><path d="m23.777 13.084-7.5-5c-.168-.112-.387-.112-.555 0l-7.5 5c-.183.122-.265.35-.201.561s.259.355.479.355h.833v9.333c0 .369.299.667.667.667h.667v-7.5c0-.275.225-.5.5-.5h9.667c.275 0 .5.225.5.5v7.5h.666c.368 0 .667-.298.667-.667v-9.333h.833c.22 0 .415-.144.479-.355s-.018-.439-.202-.561z" fill="#fc573b"/><g fill="#fd907e"><path d="m14.167 20.667v.5c0 .276-.224.5-.5.5s-.5-.224-.5-.5v-.5h-1.167c-.184 0-.333.149-.333.333v2.667c0 .184.149.333.333.333h3.333c.184 0 .333-.149.333-.333v-2.667c0-.184-.149-.333-.333-.333z"/><path d="m18.833 20.667v.5c0 .276-.224.5-.5.5s-.5-.224-.5-.5v-.5h-1.167c-.184 0-.333.149-.333.333v2.667c0 .184.149.333.333.333h3.334c.184 0 .333-.149.333-.333v-2.667c0-.184-.149-.333-.333-.333z"/><path d="m16.5 16.667v.5c0 .276-.224.5-.5.5s-.5-.224-.5-.5v-.5h-1.167c-.184 0-.333.149-.333.333v2.667c0 .184.149.333.333.333h3.333c.185 0 .334-.149.334-.333v-2.667c0-.184-.149-.333-.333-.333z"/></g></svg>