<svg enable-background="new 0 0 32 32" height="512" viewBox="0 0 32 32" width="512" xmlns="http://www.w3.org/2000/svg"><path d="m26 32h-20c-3.314 0-6-2.686-6-6v-20c0-3.314 2.686-6 6-6h20c3.314 0 6 2.686 6 6v20c0 3.314-2.686 6-6 6z" fill="#fff9dd"/><path d="m23.593 19.274c-.327-.387-.807-.607-1.313-.607h-1.14c.067-.273.12-.607.12-.947 0-1.18-.653-1.72-1.26-1.72-.953 0-.953.993-.953 1.413 0 .36-.267.707-.56.973.113.227.18.48.18.747v3.867c0 .187-.033.36-.087.527.56.233 1.466.473 2.786.473h.56c.847 0 1.553-.607 1.693-1.427l.353-1.907c.088-.499-.052-1.006-.379-1.392z" fill="#ffe777"/><path d="m17 24c-.552 0-1-.448-1-1v-3.869c0-.552.448-1 1-1s1 .448 1 1v3.869c0 .553-.448 1-1 1z" fill="#ffe777"/><g fill="#ffd200"><path d="m19.84 11.94-5.627-3.873c-.127-.087-.3-.087-.427 0l-5.626 3.873c-.1.067-.16.187-.16.307v6.88c0 .48.393.873.873.873h1.627v-6.127c0-.207.173-.373.373-.373h6.253c.2 0 .373.167.373.373v2.98c.08.02.16.04.24.073.207-2.087 1.76-2.26 2.26-2.26v-2.42c.001-.119-.059-.239-.159-.306z"/><path d="m11.253 14.247h5.493v1h-5.493z"/><path d="m11.253 16v1.247h4.387c.32-.24.7-.387 1.107-.433v-.814z"/><path d="m11.253 14.247h5.493v1h-5.493z"/><path d="m11.253 16v1.247h4.387c.32-.24.7-.387 1.107-.433v-.814z"/><path d="m14.96 18c-.187.333-.293.727-.293 1.133v.113h-3.413v-1.246z"/></g></svg>