<svg height="512" viewBox="0 0 64 64" width="512" xmlns="http://www.w3.org/2000/svg"><path d="m7 13h50v22h4v-26h-54z" fill="#ff5023"/><path d="m3 13h54v26h-54z" fill="#ffdaaa"/><path d="m7 28v-15h-4v26h54v-3h-42a8 8 0 0 1 -8-8z" fill="#ffc477"/><path d="m23 17h28v6h-28z" fill="#ff5023"/><path d="m10 45h22v6h-22z" fill="#2488ff"/><path d="m3 48 7 3v-6z" fill="#004fac"/><path d="m58 45h-5v6h5a3 3 0 0 0 0-6z" fill="#d80027"/><path d="m49 46h4v4h-4z" fill="#005ece"/><path d="m32 45h3v6h-3z" fill="#004fac"/><path d="m13 26a1 1 0 0 1 -1-1 1 1 0 0 0 -2 0 3 3 0 0 0 2 2.816v1.184a1 1 0 0 0 2 0v-1.184a2.993 2.993 0 0 0 -1-5.816 1 1 0 1 1 1-1 1 1 0 0 0 2 0 3 3 0 0 0 -2-2.816v-1.184a1 1 0 0 0 -2 0v1.184a2.993 2.993 0 0 0 1 5.816 1 1 0 0 1 0 2z" fill="#ff5023"/><path d="m48 55h-14a1 1 0 0 1 0-2h13v-3a1 1 0 0 1 2 0v4a1 1 0 0 1 -1 1z" fill="#808285"/><g fill="#ff9811"><path d="m19 34h-12a1 1 0 0 0 0 2h12a1 1 0 0 0 0-2z"/><path d="m51 26h-20a1 1 0 0 0 0 2h20a1 1 0 0 0 0-2z"/><path d="m51 30h-20a1 1 0 0 0 0 2h20a1 1 0 0 0 0-2z"/></g><path d="m49 45h-14v6h14v-1-4z" fill="#2488ff"/></svg>