<svg height="512" viewBox="0 0 64 64" width="512" xmlns="http://www.w3.org/2000/svg"><path d="" fill="#ffb655"/><path d="" fill="none"/><path d="m19.56 35.93a2.014 2.014 0 0 0 .73-2.57l-6.13-12.62a2 2 0 0 0 -2.72-.9c-.532.265-1.136.6-1.769.982l8 16.294z" fill="#ffcd00"/><path d="m25.18 49.03a2.009 2.009 0 0 1 -2.58.74 20.966 20.966 0 0 1 -4.93-3.44 20.966 20.966 0 0 1 -3.44-4.93 2.009 2.009 0 0 1 .74-2.58l2.706-1.7-8-16.294c-3.003 1.817-6.676 4.874-6.676 8.174v1a31.564 31.564 0 0 0 31 31h1c3.3 0 6.357-3.673 8.178-6.671l-16.294-8.005z" fill="#7ed63e"/><path d="m43.26 49.84-12.62-6.13a2.014 2.014 0 0 0 -2.57.73l-1.186 1.884 16.294 8.005c.384-.633.717-1.238.982-1.769a2 2 0 0 0 -.9-2.72z" fill="#ffcd00"/><path d="m61 21a17.986 17.986 0 0 1 -27.67 15.17l-7.33 1.83 1.83-7.33a18 18 0 1 1 33.17-9.67z" fill="#3d9ae2"/><circle cx="43" cy="21" fill="#ffb655" r="14"/><circle cx="43" cy="21" fill="#ffc477" r="10"/><path d="m43 16a2.006 2.006 0 0 1 2 2h3a5.029 5.029 0 0 0 -3-4.59v-2.41h-3v2.1a5 5 0 0 0 1 9.9 2 2 0 1 1 -2 2h-3a5.029 5.029 0 0 0 3 4.59v2.41h3v-2.1a5 5 0 0 0 -1-9.9 2 2 0 0 1 0-4z" fill="#ff5023"/></svg>