<svg height="512" viewBox="0 0 64 64" width="512" xmlns="http://www.w3.org/2000/svg"><g id="Save_box" data-name="Save box"><rect fill="#6d6e71" height="52" rx="4" width="58" x="3" y="3"/><path d="m5 51v-44a4 4 0 0 1 4-4h-2a4 4 0 0 0 -4 4v44a4 4 0 0 0 4 4h2a4 4 0 0 1 -4-4z" fill="#58595b"/><path d="m9 9h44v40h-44z" fill="#a7a9ac"/><path d="m9 55h8v6h-8z" fill="#414042"/><path d="m47 55h8v6h-8z" fill="#414042"/><path d="m54 16h-2a1 1 0 0 0 -1 1v5a1 1 0 0 0 1 1h2a1 1 0 0 0 1-1v-5a1 1 0 0 0 -1-1z" fill="#58595b"/><path d="m51 36v5a1 1 0 0 0 1 1h2a1 1 0 0 0 1-1v-5a1 1 0 0 0 -1-1h-2a1 1 0 0 0 -1 1z" fill="#58595b"/><circle cx="21" cy="29" fill="#d1e7f8" r="8"/><circle cx="21" cy="29" fill="#7ed63e" r="2"/><g fill="#939598"><path d="m21 20a9 9 0 1 0 9 9 9.01 9.01 0 0 0 -9-9zm4.326 14.492-.96-1.662-1.732 1 .961 1.665a6.919 6.919 0 0 1 -1.595.425v-1.92h-2v1.92a6.919 6.919 0 0 1 -1.595-.425l.961-1.665-1.732-1-.96 1.662a7.067 7.067 0 0 1 -1.166-1.166l1.662-.96-1-1.732-1.67.966a6.968 6.968 0 0 1 -.42-1.6h1.92v-2h-1.92a6.968 6.968 0 0 1 .424-1.595l1.666.961 1-1.732-1.662-.96a7.067 7.067 0 0 1 1.166-1.166l.96 1.662 1.732-1-.961-1.665a6.919 6.919 0 0 1 1.595-.425v1.92h2v-1.92a6.919 6.919 0 0 1 1.595.425l-.961 1.665 1.732 1 .96-1.662a7.029 7.029 0 0 1 1.166 1.166l-1.662.96 1 1.732 1.666-.961a6.968 6.968 0 0 1 .424 1.595h-1.92v2h1.92a6.968 6.968 0 0 1 -.42 1.6l-1.666-.961-1 1.732 1.662.96a7.029 7.029 0 0 1 -1.17 1.161z"/><path d="m21 26a3 3 0 1 0 3 3 3 3 0 0 0 -3-3zm0 4a1 1 0 1 1 1-1 1 1 0 0 1 -1 1z"/></g></g></svg>