<svg height="512pt" viewBox="-22 0 512 512.32446" width="512pt" xmlns="http://www.w3.org/2000/svg"><path d="m141.410156 17.980469h52.964844v52.613281h-52.964844zm0 0" fill="#b0d3f0"/><path d="m131.097656 397.566406-100.808594 108.773438c-3.148437 3.582031-7.683593 5.632812-12.449218 5.632812s-9.300782-2.050781-12.445313-5.632812c-6.976562-7.601563-6.976562-19.277344 0-26.878906l75.738281-81.894532zm0 0" fill="#bdc3c7"/><path d="m252.832031 397.566406 76.09375 82.175782c6.886719 7.679687 6.886719 19.3125 0 26.988281-2.402343 2.660156-5.585937 4.496093-9.09375 5.242187-2.210937.46875-4.496093.46875-6.707031 0-3.535156-.742187-6.746094-2.578125-9.183594-5.242187l-101.074218-109.164063zm0 0" fill="#bdc3c7"/><path d="m44.304688 362.257812h247.171874c4.875 0 8.828126 3.953126 8.828126 8.828126v26.480468c0 4.875-3.953126 8.828125-8.828126 8.828125h-247.171874c-4.875 0-8.828126-3.953125-8.828126-8.828125v-26.480468c0-4.875 3.953126-8.828126 8.828126-8.828126zm0 0" fill="#af8066"/><path d="m194.375 79.773438v55.703124c56.648438 13.4375 94.261719 67.164063 87.5 124.992188-6.765625 57.828125-55.761719 101.429688-113.984375 101.429688s-107.214844-43.601563-113.980469-101.429688c-6.761718-57.828125 30.847656-111.554688 87.5-124.992188v-55.703124zm0 0" fill="#e57e25"/><path d="m459.203125 106.257812c-4.875 0-8.828125-3.953124-8.828125-8.828124v-17.65625h-26.484375c-4.875 0-8.828125-3.949219-8.828125-8.824219 0-4.878907 3.953125-8.828125 8.828125-8.828125h26.484375v-17.65625c0-4.875 3.953125-8.828125 8.828125-8.828125s8.828125 3.953125 8.828125 8.828125v52.964844c0 4.875-3.953125 8.828124-8.828125 8.828124zm0 0" fill="#804537"/><path d="m53.132812 70.949219c-4.875 0-8.828124-3.953125-8.828124-8.828125v-35.3125c0-4.875 3.953124-8.828125 8.828124-8.828125s8.828126 3.953125 8.828126 8.828125v35.3125c0 4.875-3.953126 8.828125-8.828126 8.828125zm0 0" fill="#804537"/><path d="m70.789062 35.636719h-35.3125c-4.875 0-8.824218-3.953125-8.824218-8.828125s3.949218-8.828125 8.824218-8.828125h35.3125c4.875 0 8.828126 3.953125 8.828126 8.828125s-3.953126 8.828125-8.828126 8.828125zm0 0" fill="#804537"/><path d="m406.238281 0c9.75 0 17.652344 7.90625 17.652344 17.65625v485.515625c0 4.875-3.949219 8.828125-8.828125 8.828125h-17.652344c-4.875 0-8.828125-3.953125-8.828125-8.828125v-485.515625c0-9.75 7.902344-17.65625 17.65625-17.65625zm0 0" fill="#af8066"/><path d="m388.582031 61.785156h-353.105469c-4.875 0-8.824218 3.953125-8.824218 8.828125v17.988281c0 4.875 3.949218 8.828126 8.824218 8.828126h353.105469" fill="#af8066"/><path d="m123.753906.328125h88.277344v17.652344c0 4.875-3.953125 8.828125-8.828125 8.828125h-70.621094c-4.875 0-8.828125-3.953125-8.828125-8.828125zm0 0" fill="#b0d3f0"/><g fill="#d25627"><path d="m150.238281 318.121094c-14.628906 0-26.484375-11.859375-26.484375-26.484375s11.855469-26.484375 26.484375-26.484375c14.625 0 26.480469 11.859375 26.480469 26.484375s-11.855469 26.484375-26.480469 26.484375zm0-35.3125c-4.875 0-8.828125 3.953125-8.828125 8.828125s3.953125 8.828125 8.828125 8.828125 8.824219-3.953125 8.824219-8.828125-3.949219-8.828125-8.824219-8.828125zm0 0"/><path d="m114.925781 212.1875c-1.15625.03125-2.304687-.210938-3.355469-.703125-1.078124-.429687-2.066406-1.058594-2.910156-1.855469-.402344-.433594-.757812-.90625-1.0625-1.414062-.347656-.449219-.617187-.957032-.792968-1.5-.253907-.5-.433594-1.035156-.527344-1.589844-.238282-1.164062-.238282-2.363281 0-3.53125.09375-.550781.273437-1.085938.527344-1.585938.175781-.542968.445312-1.050781.792968-1.5.304688-.507812.660156-.980468 1.0625-1.414062.84375-.796875 1.832032-1.425781 2.910156-1.855469 3.292969-1.339843 7.066407-.613281 9.625 1.855469 3.414063 3.480469 3.414063 9.054688 0 12.535156l-1.324218 1.058594c-.492188.335938-1.027344.601562-1.589844.796875-.5.253906-1.035156.433594-1.589844.527344-.582031.101562-1.171875.160156-1.765625.175781zm0 0"/><path d="m159.0625 176.878906c-1.15625.03125-2.304688-.210937-3.351562-.707031-1.082032-.425781-2.070313-1.054687-2.914063-1.855469-.402344-.429687-.757813-.902344-1.058594-1.410156-.351562-.449219-.621093-.957031-.796875-1.5-.253906-.5-.433594-1.035156-.527344-1.589844-.234374-1.164062-.234374-2.367187 0-3.53125.09375-.554687.273438-1.089844.527344-1.589844.175782-.542968.445313-1.050781.796875-1.5.300781-.507812.65625-.980468 1.058594-1.414062.84375-.796875 1.832031-1.425781 2.914063-1.851562 3.289062-1.339844 7.0625-.613282 9.621093 1.851562 3.414063 3.484375 3.414063 9.054688 0 12.535156l-1.324219 1.0625c-.492187.332032-1.027343.601563-1.589843.792969-.5.253906-1.035157.433594-1.589844.53125-.582031.101563-1.171875.160156-1.765625.175781zm0 0"/><path d="m141.410156 238.671875c-1.160156.03125-2.308594-.210937-3.355468-.707031-1.082032-.425782-2.070313-1.054688-2.914063-1.851563-.402344-.433593-.753906-.90625-1.058594-1.414062-.351562-.449219-.617187-.957031-.792969-1.5-.257812-.5-.433593-1.035157-.53125-1.589844-.234374-1.164063-.234374-2.367187 0-3.53125.097657-.554687.273438-1.089844.53125-1.589844.175782-.542969.441407-1.050781.792969-1.5.304688-.507812.65625-.980469 1.058594-1.410156.84375-.800781 1.832031-1.429687 2.914063-1.855469 3.292968-1.339844 7.066406-.613281 9.621093 1.855469 3.414063 3.480469 3.414063 9.050781 0 12.535156l-1.324219 1.058594c-.492187.332031-1.023437.601563-1.585937.792969-.503906.253906-1.039063.433594-1.589844.53125-.585937.101562-1.175781.160156-1.765625.175781zm0 0"/><path d="m106.097656 256.328125c-1.15625.027344-2.304687-.214844-3.351562-.707031-1.082032-.425782-2.070313-1.054688-2.914063-1.855469-.402343-.429687-.757812-.90625-1.058593-1.410156-.351563-.453125-.621094-.960938-.796876-1.5-.253906-.503907-.433593-1.039063-.527343-1.589844-.238281-1.167969-.238281-2.367187 0-3.53125.09375-.554687.273437-1.089844.527343-1.589844.175782-.542969.445313-1.050781.796876-1.5.300781-.507812.65625-.980469 1.058593-1.414062.84375-.796875 1.832031-1.425781 2.914063-1.851563 3.289062-1.34375 7.0625-.617187 9.621094 1.851563 3.414062 3.480469 3.414062 9.054687 0 12.535156l-1.324219 1.058594c-.492188.335937-1.027344.601562-1.589844.796875-.5.253906-1.035156.433594-1.589844.527344-.582031.105468-1.171875.164062-1.765625.179687zm0 0"/><path d="m247.339844 256.328125c-4.875 0-8.828125-3.953125-8.828125-8.828125.003906-2.414062-.121094-4.828125-.371094-7.230469-.230469-2.371093-.589844-4.730469-1.066406-7.0625-.976563-4.777343 2.105469-9.441406 6.886719-10.417969 4.777343-.972656 9.441406 2.109376 10.414062 6.886719.59375 2.894531 1.039062 5.816407 1.332031 8.757813.308594 3.011718.460938 6.039062.460938 9.066406 0 4.875-3.953125 8.828125-8.828125 8.828125zm0 0"/><path d="m229.199219 205.789062c-2.636719.003907-5.136719-1.171874-6.816407-3.203124-1.4375-1.765626-2.957031-3.425782-4.554687-5.023438s-3.265625-3.117188-5.019531-4.554688c-1.757813-1.441406-3.53125-2.808593-5.429688-4.070312-1.898437-1.261719-3.824218-2.453125-5.828125-3.53125-2.003906-1.078125-4.070312-2.082031-6.179687-2.984375-2.957032-1.195313-5.039063-3.898437-5.445313-7.0625-.40625-3.167969.929688-6.304687 3.492188-8.207031s5.953125-2.277344 8.867187-.972656c2.628906 1.125 5.195313 2.363281 7.695313 3.714843 2.503906 1.355469 4.925781 2.824219 7.273437 4.414063 2.355469 1.589844 4.625 3.285156 6.808594 5.085937s4.269531 3.699219 6.257812 5.695313c1.996094 1.992187 3.894532 4.082031 5.695313 6.265625 2.171875 2.636719 2.628906 6.289062 1.171875 9.378906s-4.5625 5.0625-7.980469 5.0625zm0 0"/></g></svg>