<svg height="512pt" viewBox="-75 0 512 512" width="512pt" xmlns="http://www.w3.org/2000/svg"><path d="m52.964844 17.65625h70.621094v70.621094h-70.621094zm0 0" fill="#a5a5a4"/><path d="m344.277344 467.863281v44.136719h-335.449219v-44.136719c0-14.65625 11.828125-17.65625 26.480469-17.65625h282.484375c14.652343 0 26.484375 3 26.484375 17.65625zm0 0" fill="#2c2f38"/><path d="m243.640625 131c69.550781 21.457031 117.328125 85.316406 118.273437 158.09375.945313 72.777344-45.15625 137.859375-114.125 161.113281h-124.203124v-52.964843h70.621093c51.851563-.074219 96.027344-37.671876 104.394531-88.84375 8.363282-51.171876-21.542968-100.878907-70.671874-117.457032zm0 0" fill="#d1d4d1"/><path d="m247.171875 150.070312c-.03125 27.332032-20.878906 50.136719-48.097656 52.621094-27.21875 2.480469-51.847657-16.179687-56.824219-43.054687-4.976562-26.871094 11.335938-53.113281 37.640625-60.542969 26.300781-7.429688 53.933594 6.398438 63.75 31.90625 2.339844 6.085938 3.539063 12.550781 3.53125 19.070312zm0 0" fill="#5e5f62"/><path d="m194.207031 167.722656c-9.75 0-17.65625-7.902344-17.65625-17.652344 0-9.753906 7.90625-17.65625 17.65625-17.65625 7.308594.054688 13.847657 4.554688 16.507813 11.359376.773437 2.007812 1.164062 4.144531 1.148437 6.296874.007813 5.285157-2.355469 10.296876-6.4375 13.65625-3.148437 2.613282-7.125 4.03125-11.21875 3.996094zm0 0" fill="#a5a5a4"/><path d="m176.550781 370.757812v26.484376h-167.722656c-4.875 0-8.828125-3.953126-8.828125-8.828126v-17.65625c0-4.875 3.953125-8.828124 8.828125-8.828124h158.894531c4.875 0 8.828125 3.953124 8.828125 8.828124zm0 0" fill="#a5a5a4"/><path d="m52.964844 70.621094h70.621094c9.75 0 17.65625 7.902344 17.65625 17.65625v141.238281h-105.933594v-141.238281c0-9.753906 7.90625-17.65625 17.65625-17.65625zm0 0" fill="#2c2f38"/><path d="m123.585938 264.828125h-70.621094l-17.65625-35.3125h105.933594zm0 0" fill="#5e5f62"/><path d="m52.964844 264.828125h70.621094v8.828125c0 19.5-15.808594 35.308594-35.308594 35.308594-19.503906 0-35.3125-15.808594-35.3125-35.308594zm0 0" fill="#a5a5a4"/><path d="m35.308594 0h105.933594v17.65625c0 9.75-7.90625 17.652344-17.65625 17.652344h-70.621094c-9.75 0-17.65625-7.902344-17.65625-17.652344zm0 0" fill="#2c2f38"/><g fill="#fff"><path d="m70.621094 158.898438c-4.875 0-8.828125-3.953126-8.828125-8.828126v-44.140624c0-4.875 3.953125-8.828126 8.828125-8.828126s8.828125 3.953126 8.828125 8.828126v44.140624c0 4.875-3.953125 8.828126-8.828125 8.828126zm0 0"/><path d="m70.621094 203.035156c-4.875 0-8.828125-3.953125-8.828125-8.828125v-8.828125c0-4.875 3.953125-8.828125 8.828125-8.828125s8.828125 3.953125 8.828125 8.828125v8.828125c0 4.875-3.953125 8.828125-8.828125 8.828125zm0 0"/></g></svg>