<svg height="512pt" viewBox="-44 0 512 512" width="512pt" xmlns="http://www.w3.org/2000/svg"><path d="m26.484375 26.484375h370.757813v459.03125h-370.757813zm0 0" fill="#f0c419"/><path d="m17.65625 0h388.414062c9.75 0 17.652344 7.90625 17.652344 17.65625s-7.902344 17.652344-17.652344 17.652344h-388.414062c-9.75 0-17.65625-7.902344-17.65625-17.652344s7.90625-17.65625 17.65625-17.65625zm0 0" fill="#f29c1f"/><path d="m136.914062 194.207031h-119.257812c-9.738281-.027343-17.6289062-7.917969-17.65625-17.65625.0703125-9.71875 7.933594-17.582031 17.65625-17.652343h388.414062c9.738282.027343 17.625 7.914062 17.652344 17.652343-.070312 9.722657-7.933594 17.585938-17.652344 17.65625h-119.261718" fill="#f29c1f"/><path d="m136.914062 317.792969h-119.257812c-9.722656.070312-17.5859375 7.933593-17.65625 17.65625.0273438 9.738281 7.917969 17.625 17.65625 17.652343h388.414062c9.71875-.070312 17.582032-7.933593 17.652344-17.652343-.027344-9.738281-7.914062-17.628907-17.652344-17.65625h-119.261718" fill="#f29c1f"/><path d="m17.65625 476.691406h388.414062c9.75 0 17.652344 7.902344 17.652344 17.652344s-7.902344 17.65625-17.652344 17.65625h-388.414062c-9.75 0-17.65625-7.90625-17.65625-17.65625s7.90625-17.652344 17.65625-17.652344zm0 0" fill="#f29c1f"/><path d="m61.792969 79.449219c-2.335938-.035157-4.574219-.949219-6.265625-2.5625-3.414063-3.480469-3.414063-9.050781 0-12.535157 3.460937-3.460937 9.070312-3.460937 12.535156 0 3.460938 3.464844 3.460938 9.074219 0 12.535157-1.695312 1.613281-3.933594 2.527343-6.269531 2.5625zm0 0" fill="#fff"/><path d="m61.792969 132.414062c-4.875 0-8.828125-3.953124-8.828125-8.828124v-26.484376c0-4.875 3.953125-8.824218 8.828125-8.824218s8.828125 3.949218 8.828125 8.824218v26.484376c0 4.875-3.953125 8.828124-8.828125 8.828124zm0 0" fill="#fff"/><path d="m61.792969 238.34375c-2.335938-.03125-4.574219-.945312-6.265625-2.558594-3.414063-3.480468-3.414063-9.054687 0-12.535156 2.828125-2.804688 7.183594-3.367188 10.632812-1.375 3.449219 1.996094 5.136719 6.054688 4.113282 9.90625-1.019532 3.851562-4.496094 6.539062-8.480469 6.5625zm0 0" fill="#fff"/><path d="m61.792969 291.308594c-4.875 0-8.828125-3.949219-8.828125-8.824219v-26.484375c0-4.875 3.953125-8.828125 8.828125-8.828125s8.828125 3.953125 8.828125 8.828125v26.484375c0 4.875-3.953125 8.824219-8.828125 8.824219zm0 0" fill="#fff"/><path d="m61.792969 397.242188c-3.585938.019531-6.828125-2.132813-8.203125-5.441407-1.375-3.3125-.609375-7.128906 1.9375-9.65625 2.113281-2.019531 5.066406-2.90625 7.941406-2.382812.589844.082031 1.160156.261719 1.6875.53125.542969.175781 1.050781.445312 1.5.792969.523438.355468.972656.707031 1.414062 1.058593 2.546876 2.527344 3.3125 6.34375 1.933594 9.660157-1.378906 3.3125-4.621094 5.460937-8.210937 5.4375zm0 0" fill="#fff"/><path d="m61.792969 450.207031c-4.875 0-8.828125-3.953125-8.828125-8.828125v-26.480468c0-4.878907 3.953125-8.828126 8.828125-8.828126s8.828125 3.949219 8.828125 8.828126v26.480468c0 4.875-3.953125 8.828125-8.828125 8.828125zm0 0" fill="#fff"/><path d="m308.964844 256c0 53.628906-43.472656 97.101562-97.101563 97.101562-53.628906 0-97.105469-43.472656-97.105469-97.101562s43.476563-97.101562 97.105469-97.101562c53.628907 0 97.101563 43.472656 97.101563 97.101562zm0 0" fill="#2c2f38"/><g fill="#f0c419"><path d="m211.863281 291.308594c-19.503906 0-35.3125-15.808594-35.3125-35.308594s15.808594-35.308594 35.3125-35.308594c19.5 0 35.308594 15.808594 35.308594 35.308594s-15.808594 35.308594-35.308594 35.308594zm0-52.964844c-9.75 0-17.65625 7.90625-17.65625 17.65625s7.90625 17.65625 17.65625 17.65625 17.652344-7.90625 17.652344-17.65625-7.902344-17.65625-17.652344-17.65625zm0 0"/><path d="m272.15625 282.484375c-3.742188 0-7.078125-2.359375-8.328125-5.890625-2.496094-7.054688-9.171875-11.773438-16.65625-11.765625-1.949219-.023437-3.890625.308594-5.71875.988281-2.960937 1.238282-6.359375.773438-8.878906-1.214844-2.519531-1.988281-3.761719-5.1875-3.242188-8.355468.519531-3.167969 2.714844-5.804688 5.738281-6.882813 3.863282-1.476562 7.96875-2.222656 12.101563-2.191406 14.964844.007813 28.308594 9.4375 33.308594 23.542969.777343 2.210937.648437 4.636718-.363281 6.75-1.011719 2.113281-2.824219 3.738281-5.03125 4.515625-.941407.332031-1.933594.503906-2.929688.503906zm0 0"/><path d="m238.34375 316.300781c-.996094-.003906-1.988281-.175781-2.929688-.511719-14.117187-4.984374-23.558593-18.332031-23.550781-33.304687-.015625-1.007813.050781-2.015625.191407-3.011719.734374-4.820312 5.234374-8.136718 10.054687-7.40625 4.824219.730469 8.140625 5.234375 7.40625 10.054688-.121094 7.609375 4.601563 14.457031 11.761719 17.046875 4.027344 1.445312 6.433594 5.574219 5.710937 9.792969-.71875 4.21875-4.363281 7.3125-8.644531 7.339843zm0 0"/><path d="m151.570312 282.484375c-1 0-1.992187-.171875-2.929687-.503906-2.210937-.777344-4.019531-2.402344-5.03125-4.515625-1.011719-2.113282-1.144531-4.539063-.363281-6.75 5-14.105469 18.339844-23.535156 33.304687-23.542969 4.136719-.03125 8.242188.714844 12.105469 2.191406 3.019531 1.078125 5.214844 3.714844 5.734375 6.882813.519531 3.167968-.722656 6.367187-3.238281 8.355468-2.519532 1.988282-5.917969 2.453126-8.878906 1.214844-1.832032-.679687-3.769532-1.011718-5.722657-.988281-7.484375-.007813-14.160156 4.710937-16.65625 11.765625-1.246093 3.53125-4.582031 5.890625-8.324219 5.890625zm0 0"/><path d="m185.378906 316.300781c-4.308594.007813-7.992187-3.09375-8.71875-7.339843-.726562-4.25 1.722656-8.398438 5.789063-9.820313 7.054687-2.5 11.765625-9.175781 11.757812-16.65625-.78125-4.835937 2.480469-9.394531 7.308594-10.214844 4.789063-.800781 9.324219 2.417969 10.152344 7.203125.144531.996094.207031 2.003906.195312 3.011719.003907 14.972656-9.433593 28.320313-23.554687 33.304687-.9375.335938-1.929688.507813-2.929688.511719zm0 0"/><path d="m192.175781 247.171875c-2.503906.003906-4.890625-1.058594-6.566406-2.921875-5.839844-6.457031-9.066406-14.855469-9.058594-23.558594-.007812-4.726562.933594-9.402344 2.765625-13.753906 1.894532-4.496094 7.078125-6.601562 11.570313-4.707031 4.496093 1.898437 6.601562 7.078125 4.707031 11.574219-.921875 2.179687-1.390625 4.519531-1.386719 6.886718.003907 1.117188.105469 2.234375.308594 3.335938.203125 1.039062.5 2.058594.882813 3.042968.382812.988282.855468 1.9375 1.421874 2.835938.558594.898438 1.195313 1.746094 1.90625 2.53125 2.332032 2.589844 2.921876 6.308594 1.503907 9.492188-1.414063 3.183593-4.570313 5.238281-8.054688 5.242187zm0 0"/><path d="m231.546875 247.171875c-3.484375 0-6.644531-2.050781-8.0625-5.238281-1.417969-3.183594-.828125-6.902344 1.503906-9.496094.710938-.785156 1.347657-1.632812 1.90625-2.53125.5625-.894531 1.039063-1.839844 1.421875-2.824219.382813-1.003906.679688-2.039062.882813-3.089843.203125-1.089844.308593-2.195313.316406-3.300782.007813-2.367187-.464844-4.707031-1.382813-6.886718-1.898437-4.496094.207032-9.675782 4.703126-11.574219 4.496093-1.894531 9.675781.210937 11.574218 4.707031 2.691406 6.429688 3.4375 13.507812 2.144532 20.355469-.402344 2.132812-.992188 4.230469-1.765626 6.257812-1.558593 3.933594-3.804687 7.558594-6.636718 10.699219-1.683594 1.871094-4.085938 2.933594-6.605469 2.921875zm0 0"/></g></svg>