<svg height="445pt" viewBox="0 -44 445.15 445" width="445pt" xmlns="http://www.w3.org/2000/svg"><path d="m101.675781 52.574219h-46.585937v-44.5c0-4.417969 3.582031-8.0000002 8-8.0000002h30.585937c4.417969 0 8 3.5820312 8 8.0000002zm0 0" fill="#ccc033"/><path d="m388.953125 52.574219h-46.585937v-44.5c0-4.417969 3.582031-8.0000002 8-8.0000002h30.585937c4.417969 0 8 3.5820312 8 8.0000002zm0 0" fill="#ff624b"/><path d="m377.367188.0742188h-27c-4.417969 0-8 3.5820312-8 8.0000002v44.5h27v-44.5c0-4.417969 3.582031-8.0000002 8-8.0000002zm0 0" fill="#ff4b34"/><path d="m101.675781 52.574219h-46.585937v-44.5c0-4.417969 3.582031-8.0000002 8-8.0000002h30.585937c4.417969 0 8 3.5820312 8 8.0000002zm0 0" fill="#ccc033"/><path d="m93.089844.0742188h-30c-4.417969 0-8 3.5820312-8 8.0000002v44.5h30v-44.5c0-4.417969 3.582031-8.0000002 8-8.0000002zm0 0" fill="#99af17"/><path d="m390.589844 357.625h-336.027344c-8.285156 0-15-6.714844-15-15v-223.84375h366.027344v223.84375c0 8.285156-6.714844 15-15 15zm0 0" fill="#ffc34c"/><path d="m109.5625 148.78125h296.027344v-30h-366.027344v223.84375c0 8.285156 6.714844 15 15 15h35v-188.84375c0-11.046875 8.953125-20 20-20zm0 0" fill="#ffa730"/><path d="m435.148438 118.78125h-425.148438c-5.523438 0-10-4.476562-10-10v-53.207031c0-5.519531 4.476562-10 10-10h425.148438c5.523437 0 10 4.480469 10 10v53.207031c0 5.523438-4.476563 10-10 10zm0 0" fill="#fff4c1"/><path d="m293.378906 45.574219h-141.605468v-25.695313c0-5.523437 4.476562-10 10-10h121.605468c5.519532 0 10 4.476563 10 10zm0 0" fill="#fce575"/><path d="m306.558594 243.203125c0 46.382813-37.601563 83.984375-83.984375 83.984375-46.382813 0-83.980469-37.601562-83.980469-83.984375s37.597656-83.984375 83.980469-83.984375c46.382812 0 83.984375 37.601562 83.984375 83.984375zm0 0" fill="#fff4c1"/><path d="m206.046875 336.742188c-1.566406 0-3.15625-.367188-4.640625-1.148438-4.886719-2.566406-6.769531-8.609375-4.203125-13.5l39-74.296875-28.804687 8.972656c-5.441407 1.699219-11.207032.132813-15.046876-4.082031-3.839843-4.214844-4.863281-10.101562-2.667968-15.367188l34.640625-83.046874c2.128906-5.097657 7.984375-7.503907 13.078125-5.378907 5.097656 2.125 7.507812 7.980469 5.382812 13.078125l-30.121094 72.210938 30.230469-9.417969c5.625-1.753906 11.699219.039063 15.46875 4.566406 3.773438 4.527344 4.441407 10.824219 1.703125 16.039063l-45.15625 86.019531c-1.789062 3.40625-5.265625 5.351563-8.863281 5.351563zm0 0" fill="#ffdf74"/><path d="m94.28125 149.921875h-34.015625c-3.3125 0-6-2.683594-6-6 0-3.3125 2.6875-6 6-6h34.015625c3.3125 0 6 2.6875 6 6 0 3.316406-2.6875 6-6 6zm0 0" fill="#99af17"/><path d="m76.164062 166.449219c-3.3125 0-6-2.6875-6-6v-31.058594c0-3.3125 2.6875-6 6-6s6 2.6875 6 6v31.058594c0 3.3125-2.6875 6-6 6zm0 0" fill="#99af17"/><path d="m387.101562 149.921875h-34.011718c-3.316406 0-6-2.683594-6-6 0-3.3125 2.683594-6 6-6h34.011718c3.3125 0 6 2.6875 6 6 0 3.316406-2.683593 6-6 6zm0 0" fill="#ff624b"/><path d="m40 108.78125v-53.207031c0-5.519531 4.476562-10 10-10h-40c-5.523438 0-10 4.480469-10 10v53.207031c0 5.523438 4.476562 10 10 10h40c-5.523438 0-10-4.476562-10-10zm0 0" fill="#fce575"/><path d="m201.773438 9.878906h-40c-5.523438 0-10 3.046875-10 6.800782v28.894531h40v-28.894531c0-3.753907 4.476562-6.800782 10-6.800782zm0 0" fill="#ffdf74"/><path d="m131.675781 176.546875c0 8.285156-6.714843 15-15 15-8.285156 0-15-6.714844-15-15s6.714844-15 15-15c8.285157 0 15 6.714844 15 15zm0 0" fill="#ffa730"/><path d="m78.546875 72.609375c0 8.28125-6.714844 15-15 15s-15-6.71875-15-15c0-8.285156 6.714844-15 15-15s15 6.714844 15 15zm0 0" fill="#fce575"/><path d="m387.101562 220.460938c-3.3125 0-6-2.6875-6-6v-22.914063c0-3.3125 2.6875-6 6-6s6 2.6875 6 6v22.914063c0 3.3125-2.683593 6-6 6zm0 0" fill="#ffd551"/><path d="m387.101562 334.214844c-3.3125 0-6-2.6875-6-6v-91.699219c0-3.3125 2.6875-6 6-6s6 2.6875 6 6v91.699219c0 3.3125-2.683593 6-6 6zm0 0" fill="#ffd551"/><g fill="#fcf9de"><path d="m417.574219 107.234375c-3.3125 0-6-2.6875-6-6v-43.625c0-3.3125 2.6875-6 6-6s6 2.6875 6 6v43.625c0 3.3125-2.6875 6-6 6zm0 0"/><path d="m275.574219 27.277344h-38.742188c-3.3125 0-6-2.6875-6-6 0-3.316406 2.6875-6 6-6h38.742188c3.3125 0 6 2.683594 6 6 0 3.3125-2.6875 6-6 6zm0 0"/></g></svg>