<svg height="456pt" viewBox="-128 0 456 456.556" width="456pt" xmlns="http://www.w3.org/2000/svg"><path d="m155.277344 100.191406h-109.835938v-90.191406c0-5.523438 4.476563-10 10-10h89.835938c5.523437 0 10 4.476562 10 10zm0 0" fill="#ffc34c"/><path d="m118.898438 0h-63.457032c-5.523437 0-10 4.476562-10 10v90.191406h54.128906v-80.859375c0-10.675781 8.652344-19.332031 19.328126-19.332031zm0 0" fill="#ffb74b"/><path d="m185.441406 456.554688h-170.164062c-8.285156 0-15-6.714844-15-15v-384.421876c0-8.285156 6.714844-15 15-15h170.164062c8.28125 0 15 6.714844 15 15v384.421876c0 8.285156-6.71875 15-15 15zm0 0" fill="#ff9079"/><path d="m64.070312 427.558594v-356.429688c0-16.015625 12.984376-28.996094 28.996094-28.996094h-73.683594c-10.550781 0-19.105468 8.550782-19.105468 19.101563v376.214844c0 10.554687 8.554687 19.105469 19.105468 19.105469h73.683594c-16.011718 0-28.996094-12.980469-28.996094-28.996094zm0 0" fill="#ff624b"/><path d="m28.359375 423.472656v-348.257812c0-2.761719 2.242187-5 5-5h133.996094c2.761719 0 5 2.238281 5 5v348.257812c0 2.761719-2.238281 5-5 5h-133.996094c-2.757813 0-5-2.238281-5-5zm0 0" fill="#fff4c1"/><path d="m64.09375 70.214844h-30.425781c-2.929688 0-5.308594 2.375-5.308594 5.304687v347.644531c0 2.933594 2.378906 5.308594 5.308594 5.308594h30.425781c-.007812-.304687-.023438-.609375-.023438-.914062v-356.429688c0-.308594.015626-.609375.023438-.914062zm0 0" fill="#fce575"/><path d="m158.476562 420.742188h-115.230468c-4.417969 0-8-3.582032-8-8v-28.019532c0-4.417968 3.582031-8 8-8h115.230468c4.417969 0 8 3.582032 8 8v28.019532c0 4.417968-3.582031 8-8 8zm0 0" fill="#ffc34c"/><path d="m158.476562 358h-115.230468c-4.417969 0-8-3.582031-8-8v-28.019531c0-4.417969 3.582031-8 8-8h115.230468c4.417969 0 8 3.582031 8 8v28.019531c0 4.417969-3.582031 8-8 8zm0 0" fill="#ffc34c"/><path d="m158.476562 295.304688h-115.230468c-4.417969 0-8-3.582032-8-8v-28.832032h131.230468v28.832032c0 4.417968-3.582031 8-8 8zm0 0" fill="#ffc34c"/><path d="m111.847656 237.507812c84.332032-7.601562 77.308594-72.429687 72.996094-92.6875-.730469-3.421874-5.160156-4.839843-9.773438-3.140624-27.867187 10.273437-114.425781 46.980468-71.863281 93.15625 1.863281 2.019531 5.035157 3 8.640625 2.671874zm0 0" fill="#ccc033"/><path d="m185.84375 150.234375c-.324219-2.035156-.667969-3.855469-1-5.414063-.730469-3.421874-5.160156-4.839843-9.773438-3.140624-12.660156 4.667968-37.429687 14.789062-56.707031 28.773437-.347656.253906-.695312.511719-1.042969.765625-.046874.035156-.09375.070312-.140624.105469-.300782.222656-.597657.445312-.894532.671875-.066406.050781-.128906.097656-.191406.144531-.28125.210937-.558594.425781-.832031.636719-.078125.058594-.152344.121094-.230469.179687-.261719.203125-.523438.410157-.785156.617188-.078125.0625-.15625.125-.238282.1875-.261718.207031-.519531.414062-.773437.621093-.078125.0625-.152344.125-.230469.1875-.261718.210938-.523437.425782-.78125.640626-.066406.058593-.132812.113281-.203125.167968-.273437.226563-.542969.457032-.8125.6875-.050781.042969-.101562.085938-.15625.128906-.308593.265626-.617187.53125-.921875.800782-.007812.007812-.015625.011718-.023437.019531-.960938.84375-1.894531 1.699219-2.804688 2.5625-.035156.035156-.074219.070313-.109375.105469-.257812.246094-.511718.492187-.761718.742187-.066407.0625-.128907.125-.195313.191407-.222656.21875-.445313.441406-.664063.664062-.078124.074219-.152343.152344-.226562.230469-.207031.210937-.410156.417969-.609375.628906-.082031.085937-.164063.171875-.246094.257813-.195312.207031-.386719.410156-.578125.617187-.082031.089844-.167968.179687-.25.269531-.1875.203125-.371094.410156-.554687.613282-.082031.089843-.160157.179687-.238281.269531-.1875.210937-.371094.421875-.554688.632812-.074219.085938-.148438.171875-.21875.253907-.191406.222656-.378906.445312-.5625.671874-.0625.074219-.125.144532-.1875.222657-.210938.257812-.421875.515625-.628906.777343-.03125.039063-.0625.074219-.09375.113282-.484375.613281-.957032 1.234375-1.410156 1.859375-.007813.007812-.015626.015625-.019532.027343-.214844.292969-.421875.585938-.628906.882813-.050781.070313-.097656.144531-.148438.214844-.160156.234375-.320312.46875-.476562.703125-.0625.09375-.121094.1875-.183594.28125-.140625.214844-.28125.429687-.414062.644531-.066406.105469-.132813.210937-.199219.316406-.125.207031-.253906.410157-.375.617188-.070313.113281-.132813.226562-.199219.335937-.121094.203125-.234375.40625-.351562.605469-.0625.117187-.128906.230469-.191406.347656-.113282.203125-.222657.402344-.332032.609375-.058594.113282-.121094.226563-.179687.34375-.109375.207032-.214844.417969-.316407.625-.054687.109375-.109374.21875-.164062.328125-.105469.21875-.210938.4375-.3125.660157-.046875.101562-.09375.199218-.140625.304687-.109375.242187-.21875.488281-.324219.734375-.03125.078125-.066406.152344-.097656.226562-.273438.652344-.527344 1.308594-.757812 1.96875-.023438.0625-.042969.125-.0625.1875-.09375.265626-.179688.527344-.265626.792969-.03125.105469-.0625.207031-.09375.3125-.070312.222657-.136718.449219-.199218.675781-.035156.121094-.066406.238282-.097656.359376-.058594.210937-.113282.421874-.164063.632812-.035156.128906-.0625.257812-.09375.386719-.046875.203125-.09375.40625-.136719.609375-.027344.136718-.054687.269531-.082031.402344-.039063.203124-.078125.402343-.113281.605468-.023438.136719-.050782.273438-.070313.410156-.035156.199219-.0625.402344-.09375.605469-.019531.136719-.039062.273438-.054687.40625-.027344.207031-.050782.414063-.070313.621094-.015625.132813-.03125.265625-.042969.398437-.019531.214844-.035156.433594-.046874.648438-.011719.125-.019532.25-.027344.375-.011719.242188-.023438.480469-.027344.722656-.003906.101563-.007812.199219-.011719.304688-.011719.6875 0 1.378906.035157 2.074218.007812.097657.015624.195313.019531.292969.019531.246094.035156.496094.058593.746094.011719.128906.027344.257813.039063.386719.023437.21875.046875.441406.074219.660156.019531.140625.039062.28125.0625.421875.027344.210937.058594.417969.09375.628906.023437.148438.050781.292969.078125.441407.039062.207031.078125.410156.117187.617187.03125.148437.0625.300781.097656.449219.042969.207031.089844.410156.140626.617187.035156.148438.074218.300781.113281.453125.054687.207032.109375.410156.167969.617188.039062.152344.082031.300781.128906.453125.0625.210937.125.417969.195312.628906.046875.148437.09375.296875.144532.445313.070312.21875.148437.4375.226562.65625.050781.140624.097656.28125.152344.421874.089844.242188.1875.484376.285156.730469.046875.113281.089844.230469.136719.347657.144531.351562.296875.703124.457031 1.054687.003906.011719.007812.023437.011719.03125.164062.363281.335937.726563.515625 1.089844.058594.117187.121094.234375.179687.351562.125.25.25.496094.382813.746094.074218.140625.15625.28125.234375.425781.121093.222656.242187.449219.371093.671875.089844.152344.179688.304688.269532.457031.125.214844.253906.429688.386718.644532.09375.160156.195313.320312.296876.476562.132812.210938.265624.421875.40625.636719.105468.160156.210937.320313.320312.480469.140625.210937.285156.421875.429688.632812.113281.164063.226562.324219.339843.484375.152344.214844.308594.429688.464844.640625.117187.160156.234375.320313.355469.480469.164062.21875.332031.433594.5.652344.125.15625.246094.3125.371094.472656.179687.226563.363281.453125.550781.679687.121093.148438.242187.296876.363281.445313.210938.25.429688.503906.648438.753906.109374.125.210937.25.320312.375.332031.375.671875.753907 1.019531 1.132813.164063.179687.34375.34375.53125.507812.082031.070313.171875.140625.257813.210938.097656.074218.195312.148437.296875.222656.121093.085938.242187.167969.371093.25.054688.035156.113282.066406.171876.101562.390624.234376.804687.449219 1.246093.628907 1.914063.191406 3.863281.363281 5.859375.5.894532.0625 1.753906.042969 2.59375-.023438.273438-.03125.550782-.054687.824219-.085937 2.832031-.382813 5.238281-1.511719 6.804687-3.285156 17.859376-20.191407 15.777344-38.507813 4.246094-54.21875 19.273438-13.976563 44.027344-24.09375 56.683594-28.761719.933594-.347657 1.859375-.558594 2.75-.652344zm0 0" fill="#99af17"/><path d="m96.863281 240.011719c-99.472656-16.671875-85.257812-93.035157-78.300781-116.703125 1.171875-3.996094 6.566406-5.285156 11.890625-2.847656 32.167969 14.726562 131.652344 66.167968 76.914063 117.160156-2.394532 2.230468-6.25 3.101562-10.503907 2.390625zm0 0" fill="#eacf32"/><path d="m36.910156 123.496094c-2.359375-1.136719-4.53125-2.152344-6.460937-3.035156-5.320313-2.4375-10.714844-1.148438-11.890625 2.847656-6.957032 23.667968-21.171875 100.03125 78.304687 116.703125 4.253907.710937 8.109375-.164063 10.503907-2.394531 2.285156-2.128907 4.292968-4.257813 6.058593-6.382813-85.839843-16.226563-82.945312-78.53125-76.515625-107.738281zm0 0" fill="#ccc033"/><path d="m105.289062 227.597656c-1.71875 0-3.421874-.730468-4.605468-2.152344l-26.15625-31.28125c-2.125-2.542968-1.785156-6.324218.753906-8.449218 2.542969-2.128906 6.328125-1.789063 8.453125.753906l26.152344 31.28125c2.125 2.542969 1.789062 6.324219-.753907 8.453125-1.121093.9375-2.488281 1.394531-3.84375 1.394531zm0 0" fill="#fcda4f"/><path d="m106.097656 153.894531c-.480468 0-.96875-.070312-1.453125-.21875-2.644531-.800781-4.136719-3.59375-3.335937-6.234375l9.222656-30.398437c.019531-.0625.03125-.109375.035156-.152344-.222656-.089844-.777344-.125-1.496094.335937-4.027343 2.578126-8.992187 2.613282-12.644531.09375-3.324219-2.292968-4.859375-6.238281-4.011719-10.300781l6.015626-28.773437c.566406-2.703125 3.214843-4.4375 5.917968-3.871094 2.703125.5625 4.4375 3.214844 3.871094 5.914062l-6.015625 28.777344c-.007813.023438-.011719.046875-.011719.066406.230469.089844.785156.121094 1.492188-.332031 4.210937-2.695312 9.3125-2.628906 13.007812.164063 3.378906 2.5625 4.6875 6.769531 3.410156 10.980468l-9.222656 30.398438c-.652344 2.160156-2.636718 3.550781-4.78125 3.550781zm-3.914062-44.644531h.007812zm0 0" fill="#ffa730"/><g fill="#f9bb32"><path d="m43.738281 376.722656c-4.691406 0-8.492187 3.800782-8.492187 8.488282v27.039062c0 4.6875 3.800781 8.492188 8.492187 8.492188h20.332031v-44.019532zm0 0"/><path d="m43.738281 313.980469c-4.691406 0-8.492187 3.800781-8.492187 8.488281v27.039062c0 4.6875 3.800781 8.492188 8.492187 8.492188h20.332031v-44.019531zm0 0"/><path d="m35.246094 258.472656v28.339844c0 4.691406 3.800781 8.492188 8.492187 8.492188h20.332031v-36.832032zm0 0"/><path d="m107.5625 398.730469c0 8.792969-7.128906 15.921875-15.921875 15.921875s-15.921875-7.128906-15.921875-15.921875 7.128906-15.921875 15.921875-15.921875 15.921875 7.128906 15.921875 15.921875zm0 0"/></g><path d="m183.953125 388.808594c-3.3125 0-6-2.683594-6-6v-87.503906c0-3.316407 2.6875-6 6-6s6 2.683593 6 6v87.503906c0 3.316406-2.6875 6-6 6zm0 0" fill="#ffeacf"/><path d="m134.324219 39.199219c-3.3125 0-6-2.6875-6-6v-21.230469c0-3.3125 2.6875-6 6-6s6 2.6875 6 6v21.230469c0 3.3125-2.6875 6-6 6zm0 0" fill="#ffd551"/></svg>