<svg height="456pt" viewBox="-60 0 456 456.992" width="456pt" xmlns="http://www.w3.org/2000/svg"><path d="m204.242188 437.453125c95.773437 37.382813 124.65625-35.980469 131.382812-60.046875 1.136719-4.0625-2.871094-7.984375-8.832031-8.648438-36.019531-4.027343-150.597657-11.378906-130.421875 61.164063.886718 3.171875 3.777344 5.933594 7.871094 7.53125zm0 0" fill="#ccc033"/><path d="m333.660156 383.753906c.800782-2.359375 1.449219-4.5 1.964844-6.347656 1.136719-4.0625-2.871094-7.984375-8.832031-8.648438-16.363281-1.828124-48.9375-4.34375-77.726563.257813-.519531.082031-1.042968.167969-1.558594.253906-.070312.011719-.140624.027344-.210937.039063-.453125.078125-.902344.15625-1.351563.234375-.097656.019531-.195312.035156-.292968.054687-.417969.074219-.839844.15625-1.257813.234375-.117187.019531-.234375.042969-.351562.066407-.398438.078124-.800781.15625-1.199219.238281-.121094.023437-.242188.046875-.363281.074219-.398438.078124-.796875.164062-1.191407.246093-.117187.027344-.234374.050781-.351562.074219-.40625.089844-.808594.179688-1.210938.269531-.105468.023438-.207031.046875-.3125.070313-.425781.097656-.847656.195312-1.269531.296875-.082031.019531-.160156.039062-.242187.058593-.484375.117188-.96875.234376-1.453125.359376-.011719.003906-.023438.003906-.035157.007812-1.515624.386719-3.015624.796875-4.488281 1.234375-.058593.019531-.117187.039063-.179687.058594-.414063.125-.828125.25-1.242188.378906-.105468.035156-.210937.070313-.316406.101563-.367188.117187-.734375.234374-1.09375.355468-.128906.039063-.253906.082032-.378906.125-.339844.113282-.679688.226563-1.015625.34375-.136719.046875-.273438.097656-.410157.144532-.324218.117187-.648437.230468-.972656.347656-.140625.050781-.28125.105468-.421875.15625-.316406.117187-.632812.238281-.949219.359375-.136718.050781-.273437.105469-.410156.15625-.320312.125-.636718.253906-.957031.378906-.125.054687-.253906.105469-.382813.15625-.332031.136719-.660156.273437-.984374.414063-.109376.046874-.222657.09375-.328126.140624-.378906.160157-.75.328126-1.121093.492188-.058594.027344-.113281.050781-.167969.074219-.871094.394531-1.734375.804687-2.574219 1.230469-.011719.007812-.027343.015624-.039062.019531-.394531.199219-.789063.402343-1.175781.609375-.097657.050781-.191407.101562-.285157.152344-.304687.164062-.609375.328124-.910156.496093-.121094.066407-.238281.136719-.359375.203125-.273438.15625-.546875.308594-.8125.46875-.132812.078125-.261719.152344-.390625.230469-.253906.152344-.507813.304687-.757813.460937-.136718.085938-.269531.167969-.402343.253907-.242188.152343-.484375.304687-.722657.460937-.136718.089844-.269531.175782-.402343.265625-.238281.160157-.472657.316407-.703125.476563-.128906.089844-.261719.179687-.390625.269531-.234375.167969-.464844.332031-.695313.5-.121094.089844-.246094.179687-.363281.269531-.242187.175782-.476563.355469-.710937.535156-.105469.082032-.214844.167969-.324219.25-.257813.203126-.511719.410157-.765625.617188-.078125.066406-.15625.125-.234375.191406-.664063.550782-1.304688 1.117188-1.929688 1.703125-.058593.054688-.117187.109375-.175781.167969-.246094.230469-.492188.46875-.730469.707031-.09375.09375-.183593.1875-.277343.28125-.199219.207031-.402344.410157-.597657.617188-.105469.109375-.207031.222656-.308593.332031-.179688.195312-.359376.394531-.535157.589844-.105469.121094-.210937.246094-.320312.367187-.164063.191407-.328125.386719-.488281.582031-.109376.128907-.214844.257813-.316407.386719-.15625.195313-.3125.390625-.464843.585938-.101563.132812-.203126.269531-.304688.402343-.148438.199219-.296875.398438-.441406.601563-.097656.136719-.195313.273437-.289063.410156-.144531.203125-.285156.414063-.425781.625-.089844.136719-.179688.269531-.269531.40625-.144531.222657-.28125.445313-.421875.667969-.078125.128906-.160156.257812-.238282.386719-.148437.253906-.292968.507812-.4375.761719-.058593.105468-.121093.210937-.179687.320312-.402344.730469-.78125 1.480469-1.128906 2.246094-.050781.105468-.09375.214844-.144531.324218-.121094.273438-.242188.550782-.359376.832032-.058593.144531-.113281.289062-.171874.4375-.101563.246094-.199219.496094-.292969.75-.058594.15625-.113281.320312-.171875.484375-.085938.238281-.171875.480469-.25.726562-.058594.171875-.113282.34375-.164063.515625-.078125.242188-.148437.480469-.21875.726563-.050781.175781-.101562.355469-.152343.535156-.066407.242187-.128907.488281-.191407.734375-.046875.183594-.089843.367188-.132812.550781-.058594.25-.113281.5-.167969.753907-.039062.183593-.078125.367187-.113281.554687-.050781.257813-.097657.519531-.144531.78125-.03125.183594-.066407.367187-.09375.554687-.042969.273438-.082032.550782-.121094.828126-.023438.175781-.050782.355468-.074219.53125-.035156.3125-.066406.625-.101563.9375-.011718.152343-.03125.300781-.046874.453124-.039063.453126-.074219.914063-.097657 1.375-.003906.015626-.003906.027344-.003906.042969-.027344.476563-.042969.960938-.054687 1.445313-.003907.15625-.003907.316406-.003907.476562-.003906.332032-.007812.664063-.003906 1 0 .195313.007813.390625.011719.585938.007812.304687.015625.613281.027344.921875.007812.210937.019531.425781.035156.636719.015625.296874.03125.597656.054687.898437.015625.222656.035157.449219.050781.671875.027344.300781.054688.597656.085938.902344.023438.226562.046875.457031.074219.6875.035156.304687.070312.609375.113281.914062.027344.234375.058594.46875.09375.703125.046875.3125.09375.625.144531.9375.035157.234375.074219.472657.113281.707031.058594.324219.117188.648438.175782.972657.046875.234375.089844.46875.136718.707031.066407.339844.140626.683594.214844 1.027344.046875.222656.09375.445312.144532.671875.089843.386719.183593.773437.277343 1.160156.046875.195313.089844.382813.136719.574219.148438.585937.304688 1.171875.46875 1.765625.078125.28125.179688.558593.289062.832031.050782.121094.109376.246094.164063.367188.0625.132812.128906.265624.199219.398437.082031.15625.167968.3125.257812.46875.042969.070313.089844.132813.128906.203125.296876.460938.621094.914062 1 1.347656 1.96875 1.238282 3.984376 2.472656 6.074219 3.699219.933594.550781 1.882813.996094 2.828125 1.375.3125.117187.628906.242187.941406.355469 3.289063 1.121094 6.535157 1.207031 9.234376.152344 30.742187-12.027344 38.796874-32.804688 35.136718-55.894532 28.777344-4.59375 61.332032-2.082031 77.6875-.253906 1.203125.136719 2.324219.410156 3.34375.785156zm0 0" fill="#99af17"/><path d="m173.492188 422.535156c-71.707032-98.460937 6.734374-151.144531 33.257812-165.3125 4.476562-2.394531 10.261719 1.085938 12.761719 7.667969 15.105469 39.753906 56.714843 167.699219-34.851563 164.523437-4.003906-.140624-8.101562-2.667968-11.167968-6.878906zm0 0" fill="#eacf32"/><path d="m222.476562 272.9375c-1.058593-2.96875-2.058593-5.667969-2.964843-8.050781-2.5-6.578125-8.285157-10.058594-12.761719-7.664063-26.523438 14.167969-104.964844 66.851563-33.257812 165.3125 3.070312 4.210938 7.164062 6.738282 11.167968 6.878906 3.824219.132813 7.410156.03125 10.777344-.277343-60.285156-86.527344-3.824219-136.890625 27.039062-156.199219zm0 0" fill="#ccc033"/><path d="m196.738281 420.066406c-.179687 0-.363281-.007812-.550781-.027344-3.300781-.300781-5.730469-3.21875-5.429688-6.519531l4.441407-48.691406c.300781-3.296875 3.214843-5.734375 6.519531-5.429687 3.300781.300781 5.730469 3.222656 5.433594 6.523437l-4.441406 48.6875c-.285157 3.117187-2.902344 5.457031-5.972657 5.457031zm0 0" fill="#fcda4f"/><path d="m147.734375 225.457031v-179.300781h-66.578125v179.300781s-8.253906 104.816407-32.753906 115.789063h32.753906v29.082031h66.578125v-29.082031h32.753906c-24.5-10.96875-32.753906-115.789063-32.753906-115.789063zm0 0" fill="#ffdf74"/><path d="m113.113281 225.457031v-179.300781h-31.957031v179.300781s-8.253906 104.816407-32.753906 115.789063h31.957031c24.5-10.96875 32.753906-115.789063 32.753906-115.789063zm0 0" fill="#fcda4f"/><path d="m40.722656 19.566406h147.445313v188.097656h-147.445313zm0 0" fill="#bf6c0d"/><path d="m171.003906 456.992188h-113.117187c-8.285157 0-15-6.714844-15-15v-90.75c0-8.285157 6.714843-15 15-15h113.117187c8.285156 0 15 6.714843 15 15v90.75c0 8.285156-6.714844 15-15 15zm0 0" fill="#ffc34c"/><path d="m69.515625 420.359375v-47.488281c0-5.519532 4.476563-10 10-10h69.859375c5.523438 0 10 4.480468 10 10v47.488281c0 5.523437-4.476562 10-10 10h-69.859375c-5.523437 0-10-4.476563-10-10zm0 0" fill="#ffa730"/><path d="m40.722656 19.566406h53.261719v188.097656h-53.261719zm0 0" fill="#a56021"/><path d="m218.265625 229.347656h-207.636719c-4.417968 0-8-3.582031-8-8v-28.257812c0-4.417969 3.582032-8 8-8h207.636719c4.417969 0 8 3.582031 8 8v28.257812c0 4.421875-3.582031 8-8 8zm0 0" fill="#f9bb32"/><path d="m45.234375 220.828125v-27.21875c0-4.703125 3.816406-8.519531 8.523437-8.519531h-42.609374c-4.707032 0-8.523438 3.816406-8.523438 8.519531v27.21875c0 4.707031 3.816406 8.519531 8.523438 8.519531h42.609374c-4.707031 0-8.523437-3.8125-8.523437-8.519531zm0 0" fill="#ffa730"/><path d="m85.496094 441.011719v-88.792969c0-8.824219 7.152344-15.976562 15.976562-15.976562h-42.609375c-8.824219 0-15.976562 7.152343-15.976562 15.976562v88.792969c0 8.828125 7.152343 15.980469 15.976562 15.980469h42.609375c-8.824218 0-15.976562-7.152344-15.976562-15.980469zm0 0" fill="#ffb74b"/><path d="m80.167969 362.871094c-5.882813 0-10.652344 4.769531-10.652344 10.652344v46.1875c0 5.882812 4.769531 10.648437 10.652344 10.648437h5.328125v-67.488281zm0 0" fill="#e58d23"/><path d="m40.722656 23.828125h147.445313v35.347656h-147.445313zm0 0" fill="#a56021"/><path d="m218.265625 44.261719h-207.636719c-4.417968 0-8-3.582031-8-8v-28.261719c0-4.417969 3.582032-8 8-8h207.636719c4.417969 0 8 3.582031 8 8v28.261719c0 4.417969-3.582031 8-8 8zm0 0" fill="#f9bb32"/><path d="m45.234375 35.738281v-27.214843c0-4.707032 3.816406-8.523438 8.523437-8.523438h-42.609374c-4.707032 0-8.523438 3.816406-8.523438 8.523438v27.214843c0 4.707031 3.816406 8.523438 8.523438 8.523438h42.609374c-4.707031 0-8.523437-3.816407-8.523437-8.523438zm0 0" fill="#ffa730"/><path d="m40.722656 119.699219h147.445313v35.34375h-147.445313zm0 0" fill="#a56021"/><path d="m216.132812 140.765625h-207.636718c-4.417969 0-8-3.582031-8-8v-28.261719c0-4.417968 3.582031-8 8-8h207.636718c4.417969 0 8 3.582032 8 8v28.261719c0 4.417969-3.582031 8-8 8zm0 0" fill="#f9bb32"/><path d="m85.496094 207.21875c0 8.824219-7.15625 15.976562-15.980469 15.976562s-15.976563-7.152343-15.976563-15.976562 7.152344-15.976562 15.976563-15.976562 15.980469 7.152343 15.980469 15.976562zm0 0" fill="#ffa730"/><path d="m45.234375 132.242188v-27.214844c0-4.707032 3.816406-8.523438 8.523437-8.523438h-42.609374c-4.707032 0-8.523438 3.816406-8.523438 8.523438v27.214844c0 4.707031 3.816406 8.523437 8.523438 8.523437h42.609374c-4.707031 0-8.523437-3.816406-8.523437-8.523437zm0 0" fill="#ffa730"/><g fill="#ffd551"><path d="m209.25 38.964844c-3.3125 0-6-2.683594-6-6v-22.867188c0-3.316406 2.6875-6 6-6s6 2.683594 6 6v22.867188c0 3.316406-2.6875 6-6 6zm0 0"/><path d="m209.25 134.835938c-3.3125 0-6-2.683594-6-6v-22.867188c0-3.316406 2.6875-6 6-6s6 2.683594 6 6v22.867188c0 3.3125-2.6875 6-6 6zm0 0"/><path d="m209.25 224.316406c-3.3125 0-6-2.6875-6-6v-22.871094c0-3.3125 2.6875-6 6-6s6 2.6875 6 6v22.871094c0 3.3125-2.6875 6-6 6zm0 0"/></g><path d="m152.8125 327.425781c-1.621094 0-3.238281-.65625-4.421875-1.945312-16.484375-17.949219-16.71875-65.335938-16.691406-70.679688.015625-3.300781 2.699219-5.964843 5.996093-5.964843h.03125c3.3125.015624 5.988282 2.714843 5.972657 6.027343-.0625 13.21875 2.246093 50.214844 13.53125 62.503907 2.238281 2.441406 2.078125 6.234374-.363281 8.476562-1.148438 1.058594-2.605469 1.582031-4.054688 1.582031zm0 0" fill="#fff4c1"/><path d="m292.828125 407.140625c0 8.824219-7.152344 15.976563-15.976563 15.976563-8.824218 0-15.980468-7.152344-15.980468-15.976563s7.15625-15.976563 15.980468-15.976563c8.824219 0 15.976563 7.152344 15.976563 15.976563zm0 0" fill="#99af17"/></svg>