<svg height="452pt" viewBox="0 -14 452.8248 452" width="452pt" xmlns="http://www.w3.org/2000/svg"><path d="m331.683594 424.996094h-289.179688c-8.285156 0-15-6.714844-15-15v-180.992188h304.179688zm0 0" fill="#ffd551"/><path d="m421.574219 424.996094h-126.859375v-195.992188h141.859375v180.992188c0 8.285156-6.714844 15-15 15zm0 0" fill="#db9c2e"/><path d="m436.574219 398.023438h-42.070313c-2.210937 0-4-1.789063-4-4v-26.464844c0-2.207032 1.789063-4 4-4h42.070313zm0 0" fill="#a56021"/><path d="m77.453125 410.011719v-181.007813h-49.949219v181.007813c0 8.277343 6.707032 14.984375 14.984375 14.984375h49.949219c-8.273438 0-14.984375-6.707032-14.984375-14.984375zm0 0" fill="#f9bb32"/><path d="m294.785156 133.113281h-21.945312v-124.707031c0-4.414062-3.578125-7.992188-7.992188-7.992188h-70.929687c-4.414063 0-7.992188 3.578126-7.992188 7.992188v124.707031h-22.195312c-2.605469 0-3.96875 3.085938-2.21875 5.011719l66.3125 72.960938c.367187.402343.886719.632812 1.433593.632812.542969 0 1.0625-.230469 1.429688-.632812l66.316406-72.960938c1.75-1.925781.382813-5.011719-2.21875-5.011719zm0 0" fill="#ff624b"/><path d="m193.480469 138.125c-1.75-1.925781-.386719-5.011719 2.214843-5.011719h22.199219v-124.707031c0-4.414062 3.578125-7.992188 7.992188-7.992188h-31.96875c-4.414063 0-7.992188 3.578126-7.992188 7.992188v124.707031h-22.195312c-2.605469 0-3.96875 3.085938-2.21875 5.011719l66.3125 72.960938c.367187.402343.886719.632812 1.433593.632812.542969 0 1.0625-.230469 1.429688-.632812l14.554688-16.011719zm0 0" fill="#ff4b34"/><path d="m27.503906 306.121094h238.164063c3.269531 0 6.316406-1.953125 8.089843-5.191406l39.398438-71.925782h-285.652344zm0 0" fill="#f9bb32"/><g fill="#ffdf74"><path d="m27.375 229.003906-26.070312 46.222656c-3.761719 6.664063 1.058593 14.910157 8.710937 14.910157h239.78125c3.398437 0 6.558594-1.722657 8.402344-4.574219l36.515625-56.558594zm0 0"/><path d="m273.710938 349.28125c-3.3125 0-6-2.6875-6-6v-16.285156c0-3.316406 2.6875-6 6-6 3.316406 0 6 2.683594 6 6v16.285156c0 3.3125-2.683594 6-6 6zm0 0"/><path d="m273.710938 419c-3.3125 0-6-2.6875-6-6v-49.441406c0-3.3125 2.6875-6 6-6 3.316406 0 6 2.6875 6 6v49.441406c0 3.3125-2.683594 6-6 6zm0 0"/></g><path d="m114.363281 333c0 8.277344-6.710937 14.984375-14.984375 14.984375-8.277344 0-14.988281-6.707031-14.988281-14.984375s6.710937-14.984375 14.988281-14.984375c8.273438 0 14.984375 6.707031 14.984375 14.984375zm0 0" fill="#f9bb32"/><path d="m144.332031 363.5625c0 8.273438-6.707031 14.984375-14.984375 14.984375s-14.984375-6.710937-14.984375-14.984375c0-8.277344 6.707031-14.984375 14.984375-14.984375s14.984375 6.707031 14.984375 14.984375zm0 0" fill="#f9bb32"/><path d="m254.730469 49.246094c-3.3125 0-6-2.6875-6-6v-15.371094c0-3.316406 2.6875-6 6-6s6 2.683594 6 6v15.371094c0 3.3125-2.6875 6-6 6zm0 0" fill="#ff9079"/><path d="m254.730469 129.867188c-3.3125 0-6-2.6875-6-6v-54.523438c0-3.3125 2.6875-6 6-6s6 2.6875 6 6v54.523438c0 3.3125-2.6875 6-6 6zm0 0" fill="#ff9079"/><path d="m434.148438 229.003906h-139.433594v33.222656l1.675781-2.277343 10.554687 37.664062c1.40625 5.015625 6.351563 8.523438 12.011719 8.523438h117.617188v-67.226563zm0 0" fill="#e58d23"/><path d="m437.421875 229.003906 15.105469 50.179688c1.691406 5.617187-4.054688 10.953125-11.792969 10.953125h-115.570313c-5.519531 0-10.335937-2.78125-11.707031-6.757813l-18.742187-54.375zm0 0" fill="#ffd551"/><path d="m44.304688 275.226562 26.070312-46.226562h-43l-26.070312 46.226562c-3.761719 6.664063 1.058593 14.910157 8.710937 14.910157h43c-7.652344 0-12.46875-8.246094-8.710937-14.910157zm0 0" fill="#ffd551"/></svg>