<svg height="477pt" viewBox="0 -115 477.619 477" width="477pt" xmlns="http://www.w3.org/2000/svg"><path d="m337.8125 126.640625h-18.46875c-7.65625-25.808594-31.535156-44.640625-59.828125-44.640625-8.679687 0-16.941406 1.777344-24.453125 4.976562.445312-3.332031.675781-6.730468.675781-10.183593 0-42.242188-34.242187-76.484375-76.480469-76.484375-40.542968 0-73.714843 31.550781-76.3125 71.4375-4.75-1.046875-9.679687-1.613282-14.742187-1.613282-37.667969 0-68.203125 30.535157-68.203125 68.199219 0 37.546875 30.34375 68 67.847656 68.195313v.292968h269.964844c22.140625 0 40.089844-17.949218 40.089844-40.089843-.003906-22.140625-17.949219-40.089844-40.089844-40.089844zm0 0" fill="#ffeacf"/><path d="m361.992188 135.167969h.523437c-.234375-.179688-.460937-.371094-.699219-.550781.054688.1875.121094.367187.175782.550781zm0 0" fill="#ffd59a"/><path d="m78.339844 206.820312c-21.257813-11.546874-35.691406-34.0625-35.691406-59.957031 0-37.667969 30.535156-68.199219 68.203124-68.199219 5.0625 0 9.992188.566407 14.742188 1.613282 2.445312-37.59375 32.054688-67.769532 69.394531-71.117188-10.664062-5.644531-22.824219-8.847656-35.730469-8.847656-40.546874 0-73.714843 31.550781-76.316406 71.4375-4.746094-1.046875-9.675781-1.617188-14.742187-1.617188-37.664063 0-68.199219 30.535157-68.199219 68.203126 0 37.546874 30.34375 68 67.847656 68.191406v.292968zm0 0" fill="#ffd59a"/><path d="m437.53125 166.503906h-18.46875c-7.65625-25.808594-31.535156-44.640625-59.828125-44.640625-8.679687 0-16.941406 1.773438-24.453125 4.976563.445312-3.332032.679688-6.730469.679688-10.183594 0-42.242188-34.242188-76.484375-76.484376-76.484375-40.542968 0-73.714843 31.550781-76.3125 71.4375-4.75-1.046875-9.679687-1.617187-14.742187-1.617187-37.667969 0-68.203125 30.535156-68.203125 68.203124 0 37.546876 30.34375 68 67.847656 68.191407v.292969h269.964844c22.140625 0 40.085938-17.949219 40.085938-40.089844s-17.945313-40.085938-40.085938-40.085938zm0 0" fill="#ffeacf"/><path d="m461.710938 175.03125h.523437c-.234375-.183594-.460937-.371094-.699219-.550781.054688.183593.121094.367187.175782.550781zm0 0" fill="#ffd59a"/><path d="m178.058594 246.679688c-21.257813-11.546876-35.691406-34.0625-35.691406-59.953126 0-37.667968 30.535156-68.203124 68.203124-68.203124 5.0625 0 9.992188.570312 14.742188 1.617187 2.449219-37.59375 32.054688-67.769531 69.398438-71.117187-10.667969-5.648438-22.828126-8.851563-35.734376-8.851563-40.546874 0-73.714843 31.550781-76.316406 71.441406-4.746094-1.046875-9.675781-1.617187-14.738281-1.617187-37.667969 0-68.203125 30.535156-68.203125 68.199218 0 37.550782 30.34375 68 67.847656 68.195313v.292969h10.492188zm0 0" fill="#ffd59a"/><path d="m311.457031 154.882812h-23.699219v-23.703124c0-2.261719-1.832031-4.09375-4.09375-4.09375h-16.222656c-2.257812 0-4.089844 1.832031-4.089844 4.09375v23.703124h-23.703124c-2.257813 0-4.089844 1.832032-4.089844 4.089844v16.222656c0 2.261719 1.832031 4.09375 4.089844 4.09375h23.703124v23.699219c0 2.261719 1.832032 4.09375 4.089844 4.09375h16.222656c2.261719 0 4.09375-1.832031 4.09375-4.09375v-23.699219h23.699219c2.261719 0 4.09375-1.832031 4.09375-4.09375v-16.222656c0-2.257812-1.832031-4.089844-4.09375-4.089844zm0 0" fill="#ff624b"/><path d="m278.03125 202.433594c-3.3125 0-6-2.6875-6-6v-13.964844c0-3.3125 2.6875-6 6-6 3.316406 0 6 2.6875 6 6v13.964844c0 3.3125-2.683594 6-6 6zm0 0" fill="#ff9079"/><path d="m181.5 189.46875c0 8.433594-6.835938 15.269531-15.269531 15.269531-8.433594 0-15.269531-6.835937-15.269531-15.269531s6.835937-15.269531 15.269531-15.269531c8.433593 0 15.269531 6.835937 15.269531 15.269531zm0 0" fill="#ffd59a"/><path d="m211.71875 220.613281c0 8.433594-6.839844 15.269531-15.269531 15.269531-8.433594 0-15.269531-6.835937-15.269531-15.269531 0-8.433593 6.835937-15.269531 15.269531-15.269531 8.429687 0 15.269531 6.835938 15.269531 15.269531zm0 0" fill="#ffd59a"/><path d="m403.503906 178.070312c-2.519531 0-4.863281-1.597656-5.695312-4.117187-10.382813-31.398437-49.757813-28.035156-51.425782-27.875-3.296874.308594-6.226562-2.101563-6.542968-5.398437-.320313-3.292969 2.082031-6.222657 5.375-6.546876 17.445312-1.714843 53.253906 3.601563 63.984375 36.050782 1.039062 3.144531-.667969 6.539062-3.8125 7.578125-.625.210937-1.261719.308593-1.882813.308593zm0 0" fill="#fcf9de"/><path d="m461.710938 175.03125h.523437c-.234375-.183594-.460937-.371094-.699219-.550781.054688.183593.121094.367187.175782.550781zm0 0" fill="#ffd59a"/><path d="m178.058594 246.679688c-21.257813-11.546876-35.691406-34.0625-35.691406-59.953126 0-37.667968 30.535156-68.203124 68.203124-68.203124 5.0625 0 9.992188.570312 14.742188 1.617187 2.449219-37.59375 32.054688-67.769531 69.398438-71.117187-10.667969-5.648438-22.828126-8.851563-35.734376-8.851563-40.546874 0-73.714843 31.550781-76.316406 71.441406-4.746094-1.046875-9.675781-1.617187-14.738281-1.617187-37.667969 0-68.203125 30.535156-68.203125 68.199218 0 37.550782 30.34375 68 67.847656 68.195313v.292969h10.492188zm0 0" fill="#ffd59a"/><path d="m311.457031 154.882812h-23.699219v-23.703124c0-2.261719-1.832031-4.09375-4.09375-4.09375h-16.222656c-2.257812 0-4.089844 1.832031-4.089844 4.09375v23.703124h-23.703124c-2.257813 0-4.089844 1.832032-4.089844 4.089844v16.222656c0 2.261719 1.832031 4.09375 4.089844 4.09375h23.703124v23.699219c0 2.261719 1.832032 4.09375 4.089844 4.09375h16.222656c2.261719 0 4.09375-1.832031 4.09375-4.09375v-23.699219h23.699219c2.261719 0 4.09375-1.832031 4.09375-4.09375v-16.222656c0-2.257812-1.832031-4.089844-4.09375-4.089844zm0 0" fill="#ff624b"/><path d="m278.03125 202.433594c-3.3125 0-6-2.6875-6-6v-13.964844c0-3.3125 2.6875-6 6-6 3.316406 0 6 2.6875 6 6v13.964844c0 3.3125-2.683594 6-6 6zm0 0" fill="#ff9079"/><path d="m403.503906 178.070312c-2.519531 0-4.863281-1.597656-5.695312-4.117187-10.382813-31.398437-49.757813-28.035156-51.425782-27.875-3.296874.308594-6.226562-2.101563-6.542968-5.398437-.320313-3.292969 2.082031-6.222657 5.375-6.546876 17.445312-1.714843 53.253906 3.601563 63.984375 36.050782 1.039062 3.144531-.667969 6.539062-3.8125 7.578125-.625.210937-1.261719.308593-1.882813.308593zm0 0" fill="#fcf9de"/><path d="m99.71875 111.820312c0 8.429688-6.835938 15.265626-15.269531 15.265626-8.433594 0-15.269531-6.835938-15.269531-15.265626 0-8.433593 6.835937-15.269531 15.269531-15.269531 8.433593 0 15.269531 6.835938 15.269531 15.269531zm0 0" fill="#ffd59a"/></svg>