<svg height="457pt" viewBox="0 -23 457.4713 457" width="457pt" xmlns="http://www.w3.org/2000/svg"><path d="m191.015625 112.167969c-50.894531 0-92.300781 41.40625-92.300781 92.300781 0 50.898438 41.40625 92.304688 92.300781 92.304688s92.300781-41.40625 92.300781-92.304688c0-50.894531-41.40625-92.300781-92.300781-92.300781zm0 156.632812c-35.472656 0-64.332031-28.859375-64.332031-64.332031 0-35.46875 28.859375-64.328125 64.332031-64.328125s64.332031 28.859375 64.332031 64.328125c0 35.472656-28.859375 64.332031-64.332031 64.332031zm0 0" fill="#e58d23"/><path d="m393.714844 161.519531h-45.609375c2.5 8.402344 0 0 0 0-.113281-.378906-.234375-.75-.347657-1.125h.007813c-.128906-.417969-.269531-.832031-.398437-1.246093-.199219-.628907-.394532-1.257813-.601563-1.882813-.210937-.640625-.429687-1.277344-.652344-1.910156-.199219-.574219-.394531-1.152344-.597656-1.722657-.234375-.648437-.476563-1.296874-.71875-1.941406-.210937-.5625-.421875-1.128906-.640625-1.6875-.242188-.625-.492188-1.246094-.742188-1.867187-.238281-.582031-.46875-1.167969-.714843-1.746094-.246094-.585937-.5-1.171875-.753907-1.757813-.261718-.605468-.523437-1.210937-.792968-1.808593-.253906-.5625-.515625-1.121094-.773438-1.679688-.285156-.613281-.570312-1.226562-.863281-1.832031-.269531-.558594-.546875-1.117188-.820313-1.671875-.296874-.589844-.589843-1.183594-.890624-1.769531-.308594-.601563-.625-1.195313-.941407-1.792969-.199219-.375-.386719-.753906-.589843-1.125l-.007813.007813c-.1875-.347657-.363281-.695313-.554687-1.039063-1.703126-3.089844-1.703126-3.089844 0 0l32-32.5c5.546874-5.636719 5.476562-14.699219-.160157-20.246094l-40.808593-40.175781c-5.636719-5.550781-14.699219-5.480469-20.246094.15625l-32 32.5c3.121094 1.65625 3.121094 1.65625 0 0-.359375-.191406-2.347656-1.214844-2.984375-1.535156-.5-.253906-2.824219-1.386719-3.488281-1.699219-.515626-.242187-2.84375-1.304687-3.496094-1.589844-.558594-.246093-12.058594-4.691406-12.753906-4.921875-.535157-.179687-1.066407-.359375-1.605469-.53125-.675781-.21875-1.351563-.425781-2.027344-.632812-.394531-.121094-1.605469-.492188-1.171875-.367188v-45.609375c0-7.445312-5.6875-13.558593-12.953125-14.246093-.957031-.195313-1.945313-.296876-2.957031-.289063l-27.84375.21875h-27.832032c-1.015624 0-2 .109375-2.957031.308594-7.257812.746093-12.894531 6.902343-12.835937 14.347656l.355468 45.609375c-.394531.121094-.785156.253906-1.175781.375-.667969.210938-1.335937.421875-2 .640625-.617187.203125-1.230469.417969-1.84375.628906-.605469.207031-1.207031.414063-1.808593.628907-.632813.230468-1.261719.464843-1.894532.699218-.585937.222656-1.171875.441406-1.757812.667969-.621094.242187-1.238282.492187-1.859375.742187-.589844.238282-1.179688.476563-1.765625.722657-.601563.253906-1.199219.515625-1.796875.773437-.601563.261719-1.199219.523438-1.792969.789063-.585938.265625-1.167969.535156-1.75.804687-.597656.28125-1.191406.558594-1.785156.84375-.585938.285156-1.167969.574219-1.75.863282-.570313.285156-1.144532.574218-1.710938.867187-.613281.3125-1.222656.636719-1.832031.960937-.304687.164063-.613281.316407-.917969.484376l-32.25-32.25c-5.265625-5.265626-13.609375-5.570313-19.234375-.917969-.8125.539062-1.582031 1.167969-2.292969 1.890625l-19.53125 19.835937-19.6875 19.6875c-.71875.714844-1.339843 1.492188-1.871093 2.308594-4.609375 5.660156-4.238281 14 1.066406 19.222656l32.5 32c.035156-.066406.066406-.125.101563-.1875-.0625.117188-.101563.1875-.101563.1875-.207031.386719-.398437.777344-.601563 1.167969-.316406.609375-.632812 1.21875-.941406 1.832031-.261718.523438-.519531 1.050781-.777344 1.578125-.316406.644532-.628906 1.292969-.9375 1.945313-.25.527343-.488281 1.058593-.730468 1.589843-.296875.648438-.59375 1.292969-.878906 1.945313-.246094.5625-.484376 1.128906-.722657 1.691406-.265625.625-.53125 1.246094-.785156 1.871094-.25.609375-.488281 1.222656-.730469 1.835937-.230468.585938-.464844 1.175782-.6875 1.765626-.25.65625-.488281 1.316406-.726562 1.976562-.203125.558594-.40625 1.117188-.605469 1.675781-.234375.679688-.460937 1.363281-.6875 2.042969-.1875.558594-.375 1.113281-.554687 1.675781-.207032.648438-.402344 1.300781-.601563 1.953125-.152344.492188-.308594.980469-.457031 1.476563.050781-.164063.089844-.328125.136718-.492188h-45.597656c-7.90625 0-14.316406 6.410157-14.316406 14.316407v57.269531c0 7.90625 6.410156 14.316406 14.316406 14.316406h45.609375c-.023437-.074219-.039062-.136719-.0625-.203125.039063.128906.0625.203125.0625.203125.113281.375.234375.75.351563 1.125h-.011719c.128906.414063.265625.828125.398437 1.242187.199219.628907.398438 1.261719.605469 1.886719.207031.636719.429688 1.273438.648438 1.90625.199219.574219.394531 1.152344.601562 1.726563.230469.648437.472657 1.292968.714844 1.9375.210937.5625.421875 1.132812.640625 1.691406.242188.625.492188 1.242188.742188 1.863281.238281.582031.472656 1.167969.714843 1.746094.246094.585937.5 1.167969.753907 1.75.261718.609375.523437 1.214844.796874 1.820313.25.558593.511719 1.117187.769532 1.675781.285156.613281.570312 1.226562.863281 1.835937.269531.558594.546875 1.113282.824219 1.667969.292968.59375.585937 1.183594.886718 1.773437.308594.597657.625 1.191407.9375 1.785157.199219.375.394532.757812.597657 1.128906l.003906-.003906c.1875.34375.367187.691406.554687 1.035156 1.707032 3.09375 1.707032 3.09375 0 0l-31.996093 32.5c-5.546875 5.636719-5.476563 14.699219.15625 20.246094l40.808593 40.179687c5.636719 5.546875 14.699219 5.476563 20.25-.160156 0 0 28.878907-34.15625 31.996094-32.5.363282.191406.730469.375 1.09375.5625.628906.328125 1.257813.65625 1.890625.972656.503907.253906 1.011719.5 1.519531.746094.652344.320312 1.308594.640625 1.964844.949219.519532.246093 1.042969.484375 1.566406.722656.644532.292969 1.285157.585937 1.933594.871094.558594.246093 1.121094.484375 1.683594.726562.613281.257813 1.222656.515625 1.835938.769531.613281.25 1.226562.492188 1.839843.734376.570313.226562 1.140625.449218 1.714844.667968.664063.253906 1.332031.496094 2 .738282.53125.195312 1.066406.390624 1.601563.578124.695312.242188 1.390624.476563 2.085937.710938.53125.179688 1.0625.355469 1.59375.527344.675781.21875 1.359375.429687 2.039063.636718.390624.121094.777343.246094 1.167968.363282.429688.128906.804688.242187 1.125.335937-.320312-.09375-.695312-.207031-1.125-.335937v45.609375c0 7.449219 5.683594 13.5625 12.949219 14.25.957031.191406 1.945313.292969 2.960937.285156l27.84375-.21875h27.832032c1.011718 0 2-.105469 2.953125-.308594 7.261719-.742187 12.898437-6.902343 12.839843-14.347656l-.355468-45.605469c.394531-.121094.78125-.253906 1.175781-.378906.667969-.210938 1.335937-.417969 2-.640625.613281-.203125 1.226563-.414063 1.839844-.625.605469-.210937 1.210937-.417969 1.8125-.632813.632812-.226562 1.261719-.464843 1.886719-.699218.589843-.222656 1.179687-.441406 1.765624-.667969.617188-.242187 1.234376-.492187 1.851563-.738281.59375-.242188 1.1875-.480469 1.78125-.730469s1.183594-.507813 1.773437-.761719c.609376-.265625 1.214844-.53125 1.816407-.800781.578125-.261719 1.152343-.527344 1.726562-.796875.605469-.28125 1.207031-.5625 1.808594-.855469.578125-.277343 1.152344-.5625 1.726563-.847656.582031-.292969 1.160156-.582031 1.734374-.878906.609376-.3125 1.210938-.632813 1.816407-.953125.308593-.164063.621093-.320313.925781-.488282l32.253906 32.25c5.265625 5.265626 13.605469 5.570313 19.230469.917969.8125-.539062 1.585937-1.164062 2.296875-1.886719l19.523438-19.832031 19.691406-19.691406c.714844-.714844 1.335937-1.492187 1.871094-2.308594 4.605468-5.660156 4.238281-14-1.066407-19.226562l-32.503906-31.996094c-.195313.367187-.371094.703125-.550781 1.035156h-.003906c.1875-.347656.363281-.695312.546874-1.042969l.007813.007813c.207031-.386719.402344-.777344.601563-1.167969.316406-.609375.636718-1.214844.945312-1.832031.261719-.523437.519531-1.050781.773438-1.574219.316406-.648437.632812-1.296875.941406-1.949218.246094-.527344.488281-1.058594.730468-1.589844.292969-.648438.589844-1.292969.875-1.945313.246094-.558593.484376-1.121093.722657-1.683593.265625-.625.53125-1.253907.789062-1.886719.246094-.601563.484375-1.210938.726563-1.820313.230468-.589844.464844-1.179687.691406-1.777344.246094-.652343.484375-1.308593.722656-1.96875.203125-.558593.410156-1.117187.605469-1.683593.238281-.675781.460937-1.355469.6875-2.039063.1875-.558594.375-1.113281.554687-1.675781.210938-.648437.40625-1.300781.605469-1.953125.148438-.492188.308594-.980469.453125-1.476562-.046875.164062-.089844.328124-.136718.492187h45.597656c7.90625 0 14.316406-6.410156 14.316406-14.316406v-57.269531c0-7.90625-6.410156-14.316407-14.316406-14.316407zm-101.074219 68.679688c-.34375 1.199219-.726563 2.390625-1.121094 3.578125-.117187.355468-.238281.710937-.359375 1.0625-.316406.917968-.65625 1.828125-1.007812 2.734375-.242188.628906-.484375 1.257812-.738282 1.878906-.253906.621094-.519531 1.238281-.789062 1.855469-.390625.890625-.785156 1.777344-1.199219 2.652344-.160156.339843-.328125.675781-.492187 1.015624-.550782 1.121094-1.113282 2.234376-1.707032 3.328126-.050781.089843-.097656.179687-.148437.269531-9.757813 17.863281-25.253906 32.144531-43.988281 40.398437-.472656.207032-.945313.429688-1.421875.628906-.476563.199219-.960938.378907-1.441407.570313-19.023437 7.5625-40.078124 8.582031-59.65625 3.003906-.09375-.027343-.191406-.054687-.285156-.082031-1.199218-.34375-2.390625-.726562-3.578125-1.121094-.355469-.117187-.710937-.238281-1.0625-.359375-.914062-.316406-1.824219-.65625-2.734375-1.003906-.628906-.242187-1.253906-.488281-1.878906-.742187-.621094-.253907-1.238281-.519532-1.851562-.789063-.894532-.386719-1.78125-.785156-2.65625-1.199219-.339844-.160156-.675782-.328125-1.011719-.492187-1.125-.550781-2.238281-1.113281-3.332031-1.707031-.089844-.050782-.175782-.097657-.265626-.148438-17.863281-9.757812-32.152343-25.257812-40.402343-43.992188-.207031-.472656-.429688-.941406-.625-1.414062-.203125-.480469-.378907-.96875-.574219-1.449219-7.558594-19.023437-8.582031-40.074219-3.003906-59.652343.027344-.09375.054687-.191407.082031-.285157.347656-1.199219.726563-2.390625 1.121094-3.578125.121093-.355468.238281-.710937.363281-1.0625.316406-.914062.65625-1.824218 1.003906-2.734375.242188-.628906.488282-1.257812.742188-1.878906s.519531-1.234375.785156-1.851563c.390625-.894531.789062-1.78125 1.203125-2.65625.160156-.339843.328125-.675781.492187-1.011718.546876-1.121094 1.113282-2.234375 1.707032-3.332032.046875-.089843.097656-.175781.144531-.265624 9.757813-17.863282 25.257813-32.148438 43.992187-40.402344.476563-.203125.941407-.429688 1.417969-.625.476563-.203125.964844-.378906 1.449219-.574219 19.019531-7.558594 40.070312-8.582031 59.644531-3 .097657.027344.195313.054687.292969.082031 1.195312.34375 2.386719.722656 3.570312 1.117188.359376.121094.714844.242187 1.070313.363281.914063.320313 1.824219.660156 2.730469 1.007813.628906.238281 1.253906.484374 1.875.738281.621094.257812 1.242187.523437 1.859375.789062.890625.390625 1.777343.785157 2.65625 1.203125.335937.160156.671875.324219 1.007812.488282 1.125.550781 2.238281 1.117187 3.335938 1.710937.085937.046875.171875.09375.261719.140625 17.863281 9.761719 32.148437 25.257812 40.402343 43.992188.207031.476562.429688.945312.628907 1.421874.199218.476563.378906.964844.570312 1.441407 7.5625 19.023437 8.582031 40.078125 3.003906 59.65625-.027344.09375-.054687.1875-.082031.28125zm0 0" fill="#ffd551"/><path d="m204.015625 112.167969c-50.894531 0-92.300781 41.40625-92.300781 92.300781 0 50.898438 41.40625 92.304688 92.300781 92.304688s92.300781-41.40625 92.300781-92.304688c0-50.894531-41.40625-92.300781-92.300781-92.300781zm0 156.632812c-35.472656 0-64.332031-28.859375-64.332031-64.332031 0-35.46875 28.859375-64.328125 64.332031-64.328125s64.332031 28.859375 64.332031 64.328125c0 35.472656-28.859375 64.332031-64.332031 64.332031zm0 0" fill="#f9bb32"/><path d="m316.386719 406.007812c126 20.25 139.84375-77.046874 141.078125-108.234374.210937-5.265626-5.734375-8.992188-13.101563-8.222657-44.523437 4.644531-184.601562 26.070313-139.601562 109.34375 1.96875 3.640625 6.238281 6.246094 11.625 7.113281zm0 0" fill="#ccc033"/><path d="m456.910156 306.050781c.289063-3.09375.460938-5.882812.554688-8.277343.210937-5.265626-5.734375-8.992188-13.101563-8.222657-20.226562 2.109375-60.171875 7.683594-93.527343 20.941407-.605469.242187-1.207032.484374-1.804688.730468-.082031.03125-.164062.066406-.246094.097656-.519531.214844-1.042968.433594-1.558594.652344-.113281.046875-.222656.09375-.335937.140625-.484375.203125-.964844.410157-1.449219.621094-.132812.058594-.265625.117187-.402344.175781-.460937.199219-.917968.402344-1.375.605469-.140624.0625-.28125.125-.417968.1875-.457032.207031-.910156.414063-1.363282.621094-.136718.0625-.269531.125-.402343.1875-.460938.210937-.921875.429687-1.378907.644531-.121093.058594-.238281.113281-.359374.171875-.480469.230469-.964844.464844-1.441407.699219-.089843.042968-.183593.089844-.277343.132812-.550782.273438-1.101563.546875-1.644532.824219-.015625.007813-.027344.015625-.039062.019531-1.71875.875-3.40625 1.777344-5.054688 2.703125-.066406.039063-.132812.078125-.199218.113281-.464844.265626-.929688.527344-1.390626.796876-.117187.070312-.234374.140624-.351562.207031-.410156.238281-.816406.480469-1.21875.722656-.140625.085937-.277344.171875-.417969.253906-.378906.230469-.753906.460938-1.125.691407-.152343.097656-.304687.191406-.453125.285156-.359375.226562-.714844.453125-1.070312.683594-.15625.101562-.308594.199218-.464844.300781-.347656.230469-.695312.460937-1.042969.695312-.148437.097657-.296875.199219-.445312.300781-.351563.234376-.699219.476563-1.042969.71875-.140625.097657-.28125.191407-.417969.289063-.359375.253906-.714843.511719-1.070312.769531-.121094.082032-.238281.167969-.355469.253906-.40625.300782-.808594.601563-1.207031.902344-.0625.046875-.121094.089844-.179688.132813-.9375.71875-1.855469 1.445312-2.75 2.191406-.015625.007813-.027343.019531-.039062.03125-.421875.347656-.835938.703125-1.246094 1.054687-.101563.085938-.195313.175782-.296875.261719-.320312.28125-.640625.566407-.957031.851563-.125.113281-.25.226562-.375.34375-.285157.261718-.566407.523437-.84375.789062-.136719.125-.269531.253906-.402344.382813-.265625.253906-.527344.507812-.785156.765625-.136719.136718-.277344.277344-.414063.414062-.246094.25-.492187.503906-.734375.757813-.136719.144531-.273437.289062-.410156.429687-.238281.253906-.476563.511719-.710937.765625-.128907.144531-.261719.289063-.390626.4375-.234374.261719-.46875.527344-.695312.792969-.121094.140625-.246094.28125-.363281.421875-.238281.28125-.46875.5625-.699219.84375-.105469.132813-.214844.261719-.320312.394531-.253907.316406-.5.636719-.746094.957032-.074219.097656-.152344.195312-.226563.292968-.640625.851563-1.253906 1.714844-1.839843 2.59375-.054688.082032-.105469.167969-.160157.25-.230469.351563-.460937.703125-.679687 1.058594-.085938.140625-.171875.28125-.253906.417969-.183594.304687-.367188.609375-.542969.914062-.09375.164063-.183594.328125-.277344.488281-.160156.285157-.320313.574219-.476563.863282-.09375.175781-.183593.355468-.277343.53125-.144531.28125-.289063.558594-.425781.84375-.09375.183594-.183594.371094-.269532.554687-.132812.28125-.261718.558594-.390625.839844-.085937.191406-.171875.382813-.253906.574219-.125.28125-.242187.566406-.359375.851562-.078125.191406-.160156.382813-.234375.574219-.117187.292969-.222656.585937-.332031.878906-.070313.1875-.140625.378907-.210938.566407-.109375.308593-.210937.621093-.3125.929687-.058594.179687-.121094.355469-.175781.535156-.109375.347657-.210937.699219-.3125 1.046875-.042969.148438-.085937.292969-.128906.4375-.273438 1-.515625 2.015625-.71875 3.046875-.027344.140625-.050781.289063-.078125.429688-.066406.371093-.136719.742187-.195313 1.117187-.03125.191406-.054687.382813-.085937.578125-.046875.328125-.09375.660157-.136719.992188-.023437.214843-.046875.425781-.070313.640625-.03125.316406-.066406.632812-.09375.953125-.019531.222656-.03125.449219-.046874.671875-.023438.316406-.042969.628906-.058594.945312-.011719.230469-.019532.464844-.027344.695313-.011719.316406-.019531.632812-.023438.949219-.003906.234374-.003906.46875-.003906.707031 0 .320312.007813.640625.015625.964843.003907.234376.007813.472657.019531.707032.011719.328125.03125.660156.050782.992187.011718.234375.027344.46875.042968.707031.027344.34375.058594.691407.089844 1.039063.023438.222656.042969.449219.066406.671875.042969.386719.09375.78125.144532 1.171875.023437.1875.046875.375.074218.5625.078126.566406.167969 1.136719.269532 1.710937.003906.015626.007812.03125.007812.050782.105469.589844.222656 1.183594.347656 1.78125.039063.191406.089844.386718.128907.582031.089843.40625.183593.8125.28125 1.226563.058593.234374.125.472656.183593.710937.09375.371094.191407.746094.296876 1.121094.070312.253906.144531.511719.21875.769531.105468.359375.210937.71875.324218 1.082031.082032.269531.167969.539063.257813.808594.113281.359375.230469.714844.355469 1.074219.09375.273437.191406.550781.289062.828125.125.359375.257812.71875.394531 1.082031.101563.277344.207031.554688.316407.835938.140624.367187.289062.734374.4375 1.105468.113281.277344.226562.554688.34375.832032.15625.378906.320312.757812.488281 1.140624.117187.273438.238281.550782.363281.824219.179688.398438.363281.800781.554688 1.199219.121093.261719.238281.523438.367187.785156.210937.449219.4375.894532.664063 1.347656.109374.222657.214843.441407.328124.660157.34375.675781.699219 1.351562 1.066407 2.035156.175781.324219.375.632813.585937.9375.097656.136719.199219.269531.304688.402344.113281.148437.230468.292969.351562.4375.140625.171875.289063.339843.445313.503906.066406.070313.140625.140625.210937.210937.488282.488282 1.007813.957032 1.585938 1.382813 2.722656.992187 5.507812 1.964844 8.375 2.910156 1.28125.421875 2.546875.714844 3.792968.925781.410157.058594.828126.128907 1.238282.183594 4.28125.496094 8.214844-.257812 11.164062-2.261718 33.589844-22.851563 37.359375-50.378907 26.363282-77.613282 33.34375-13.25 73.261718-18.824218 93.480468-20.933594 1.488282-.152343 2.917969-.117187 4.25.074219zm0 0" fill="#99af17"/><path d="m279.910156 404.851562c-105.074218-109.851562-19.035156-189.238281 10.710938-211.542968 5.027344-3.765625 12.695312-.457032 16.929687 7.289062 25.558594 46.796875 99.289063 198.640625-12.800781 210.839844-4.902344.535156-10.347656-1.890625-14.839844-6.585938zm0 0" fill="#eacf32"/><path d="m312.609375 210.089844c-1.824219-3.503906-3.53125-6.691406-5.0625-9.492188-4.230469-7.746094-11.902344-11.054687-16.925781-7.289062-29.75 22.304687-115.785156 101.691406-10.710938 211.542968 4.492188 4.695313 9.9375 7.121094 14.839844 6.585938 4.679688-.507812 9.027344-1.265625 13.074219-2.246094-89.011719-97.019531-29.324219-169.632812 4.785156-199.101562zm0 0" fill="#ccc033"/><path d="m306.683594 396.214844c-3.164063 0-5.8125-2.476563-5.988282-5.671875l-3.363281-61.363281c-.183593-3.308594 2.355469-6.136719 5.664063-6.316407 3.304687-.164062 6.136718 2.351563 6.316406 5.660157l3.367188 61.363281c.179687 3.308593-2.355469 6.136719-5.664063 6.320312-.113281.003907-.222656.007813-.332031.007813zm0 0" fill="#fcda4f"/><path d="m310.308594 183.898438c-3.117188 0-5.753906-2.414063-5.976563-5.574219-3.84375-53.933594-52.539062-68.585938-53.03125-68.726563-3.183593-.917968-5.019531-4.246094-4.105469-7.429687.921876-3.183594 4.242188-5.019531 7.429688-4.101563.589844.167969 14.628906 4.304688 29.21875 16.105469 13.527344 10.945313 30.144531 30.808594 32.457031 63.300781.234375 3.304688-2.253906 6.175782-5.558593 6.410156-.144532.011719-.289063.015626-.433594.015626zm0 0" fill="#fce575"/><path d="m391.128906 230.515625h-36.082031c-3.3125 0-6-2.6875-6-6s2.6875-6 6-6h36.082031c3.3125 0 6 2.6875 6 6s-2.6875 6-6 6zm0 0" fill="#fce575"/><g fill="#f9bb32"><path d="m98.445312 277.015625c1.707032 3.089844 1.707032 3.089844 0 0zm0 0"/><path d="m66.605469 329.761719c-5.632813-5.546875-5.703125-14.609375-.15625-20.246094l31.996093-32.5c-.1875-.34375-.367187-.691406-.554687-1.035156l-.003906.003906c-.203125-.371094-.394531-.753906-.597657-1.128906-.3125-.59375-.628906-1.1875-.9375-1.785157-.300781-.589843-.59375-1.179687-.886718-1.773437-.277344-.554687-.554688-1.113281-.824219-1.667969-.292969-.609375-.578125-1.222656-.863281-1.835937-.257813-.558594-.519532-1.117188-.769532-1.675781-.273437-.605469-.535156-1.210938-.796874-1.820313-.253907-.582031-.507813-1.164063-.753907-1.746094-.242187-.582031-.476562-1.164062-.714843-1.75-.25-.621093-.5-1.238281-.742188-1.863281-.21875-.558594-.429688-1.125-.640625-1.691406-.242187-.648438-.484375-1.289063-.714844-1.9375-.207031-.574219-.402343-1.152344-.601562-1.722656-.21875-.636719-.441407-1.273438-.648438-1.910157-.207031-.625-.40625-1.253906-.605469-1.886719-.132812-.414062-.269531-.828124-.398437-1.242187h.011719c-.117188-.375-.238282-.75-.351563-1.125h-26.125c.113281.375.234375.75.351563 1.125h-.011719c.128906.414063.265625.828125.398437 1.242187.199219.628907.394532 1.261719.605469 1.886719.207031.636719.429688 1.273438.648438 1.910157.199219.574218.394531 1.148437.601562 1.722656.230469.648437.472657 1.292968.714844 1.9375.210937.5625.421875 1.128906.640625 1.691406.242188.625.492188 1.242188.742188 1.863281.238281.585938.472656 1.167969.714843 1.75.246094.582031.5 1.164063.753907 1.746094.261718.609375.523437 1.21875.796874 1.820313.25.558593.511719 1.117187.769532 1.675781.285156.613281.570312 1.226562.863281 1.835937.269531.554688.546875 1.113282.824219 1.667969.292968.59375.585937 1.183594.886718 1.773437.308594.597657.625 1.191407.9375 1.785157.203126.375.394532.757812.597657 1.128906l.003906-.003906c.1875.34375.367187.691406.554687 1.035156 1.707032 3.09375 1.707032 3.09375 0 0l-31.996093 32.5c-5.546875 5.636719-5.476563 14.699219.15625 20.246094l40.808593 40.179687c5.636719 5.546875 14.699219 5.476563 20.25-.160156 0 0 .988282-1.167969 2.613282-3.058594zm0 0"/><path d="m71.203125 133.988281c.035156-.066406.066406-.125.101563-.191406-.0625.121094-.101563.191406-.101563.191406-.207031.386719-.398437.777344-.601563 1.164063-.316406.613281-.632812 1.21875-.941406 1.835937-.261718.523438-.519531 1.046875-.777344 1.574219-.316406.648438-.628906 1.296875-.9375 1.949219-.25.527343-.488281 1.058593-.730468 1.589843-.296875.644532-.59375 1.292969-.878906 1.945313-.246094.5625-.484376 1.128906-.722657 1.691406-.265625.621094-.53125 1.246094-.785156 1.871094-.25.609375-.488281 1.222656-.730469 1.835937-.230468.585938-.464844 1.171876-.6875 1.765626-.25.65625-.488281 1.316406-.726562 1.976562-.203125.558594-.40625 1.117188-.605469 1.675781-.234375.679688-.460937 1.359375-.6875 2.042969-.183594.558594-.375 1.113281-.554687 1.675781-.207032.648438-.402344 1.300781-.601563 1.953125-.101563.328125-.203125.65625-.304687.984375h26.113281c-.050781.164063-.089844.328125-.136719.492188.144531-.496094.304688-.984375.453125-1.476563.199219-.652344.394531-1.304687.601563-1.953125.179687-.5625.371093-1.117187.554687-1.675781.226563-.683594.453125-1.363281.691406-2.042969.195313-.5625.402344-1.121093.601563-1.675781.242187-.660156.476562-1.320312.726562-1.976562.222656-.589844.457032-1.179688.6875-1.765626.242188-.613281.480469-1.226562.730469-1.835937.257813-.625.519531-1.25.785156-1.871094.242188-.5625.476563-1.128906.726563-1.691406.285156-.652344.582031-1.300781.875-1.945313.242187-.53125.480468-1.0625.730468-1.589843.308594-.652344.625-1.300781.941407-1.949219.253906-.527344.511719-1.050781.773437-1.574219.308594-.617187.625-1.222656.945313-1.835937.199219-.386719.394531-.777344.597656-1.164063l-32.5-32c-5.304687-5.222656-5.671875-13.5625-1.066406-19.222656.535156-.816406 1.15625-1.59375 1.871093-2.308594l19.6875-19.691406 17.730469-18.003906-2.800781-2.800781c-5.265625-5.265626-13.609375-5.566407-19.230469-.917969-.816406.539062-1.585937 1.167969-2.296875 1.890625l-19.527344 19.832031-19.6875 19.691406c-.71875.714844-1.339843 1.492188-1.871093 2.308594-4.609375 5.660156-4.238281 14 1.066406 19.222656zm0 0"/><path d="m97.332031 133.988281s.035157-.070312.097657-.191406c-.03125.066406-.0625.125-.097657.191406zm0 0"/><path d="m26.128906 233.101562v-57.265624c0-7.90625 6.40625-14.316407 14.316406-14.316407h-26.128906c-7.90625 0-14.316406 6.410157-14.316406 14.316407v57.265624c0 7.910157 6.410156 14.320313 14.316406 14.320313h26.128906c-7.910156 0-14.316406-6.410156-14.316406-14.320313zm0 0"/><path d="m86.054688 247.421875s-.023438-.078125-.0625-.207031c.019531.070312.039062.132812.0625.207031zm0 0"/><path d="m117.996094 320.589844c0 8.28125-6.714844 15-15 15s-15-6.71875-15-15c0-8.285156 6.714844-15 15-15s15 6.714844 15 15zm0 0"/></g><path d="m399.128906 343.621094c0 8.285156-6.71875 15-15 15-8.285156 0-15-6.714844-15-15s6.714844-15 15-15c8.28125 0 15 6.714844 15 15zm0 0" fill="#99af17"/><path d="m160.257812 60.71875c.003907 0 .003907 0 .007813-.003906 3.347656-1.003906 6.742187-1.890625 10.179687-2.660156.046876-.011719.09375-.023438.140626-.03125 3.390624-.753907 6.824218-1.390626 10.296874-1.910157.132813-.019531.269532-.039062.40625-.058593 1.519532-.21875 3.046876-.414063 4.578126-.589844.054687-.007813.109374-.015625.160156-.019532l-.3125-40.335937c-.058594-7.445313 5.578125-13.601563 12.839844-14.347656.953124-.199219 1.941406-.308594 2.953124-.308594h-26.125c-1.015624 0-2.003906.109375-2.957031.308594-7.261719.746093-12.898437 6.902343-12.839843 14.347656l.355468 45.609375zm0 0" fill="#f9bb32"/><path d="m200.144531 408.417969c-7.265625-.691407-12.953125-6.804688-12.953125-14.25v-40.785157c-.175781-.019531-.355468-.03125-.535156-.050781-.261719-.027343-.523438-.0625-.789062-.089843-1.53125-.175782-3.058594-.371094-4.582032-.59375-.132812-.019532-.269531-.039063-.402344-.058594-3.472656-.515625-6.90625-1.152344-10.296874-1.910156-.046876-.007813-.09375-.019532-.140626-.027344-1.074218-.242188-2.140624-.507813-3.203124-.773438v.011719l-6.175782-1.332031v45.609375c0 7.445312 5.683594 13.5625 12.949219 14.25.957031.191406 1.945313.292969 2.960937.285156l23.835938-.1875c-.222656-.035156-.449219-.054687-.667969-.097656zm0 0" fill="#f9bb32"/></svg>