<svg height="488pt" viewBox="0 -99 488.334 488" width="488pt" xmlns="http://www.w3.org/2000/svg"><path d="m482.570312 214.277344h-446.71875v-34.917969h438.71875c4.417969 0 8 3.582031 8 8zm0 0" fill="#ffc34c"/><path d="m75.378906 191.21875h407.191406v-3.953125c0-4.367187-3.539062-7.90625-7.90625-7.90625h-438.8125v34.914063h39.527344zm0 0" fill="#ffa730"/><path d="m72.542969 30.988281-54.734375 54.019531c-3.382813 3.339844-5.292969 7.902344-5.292969 12.660157v73.785156c0 4.367187 3.539063 7.90625 7.90625 7.90625h263.519531c4.367188 0 7.90625-3.539063 7.90625-7.90625v-145.59375h-206.808594c-4.679687 0-9.167968 1.84375-12.496093 5.128906zm0 0" fill="#ccc033"/><path d="m52.046875 171.453125v-73.789063c0-4.757812 1.902344-9.316406 5.292969-12.65625l54.730468-54.019531c3.328126-3.285156 7.820313-5.128906 12.496094-5.128906h-39.527344c-4.679687 0-9.167968 1.84375-12.496093 5.128906l-54.734375 54.019531c-3.382813 3.339844-5.292969 7.902344-5.292969 12.65625v73.789063c0 4.367187 3.539063 7.90625 7.90625 7.90625h39.527344c-4.363281 0-7.902344-3.539063-7.902344-7.90625zm0 0" fill="#99af17"/><path d="m474.570312 237.992188h-466.570312c-4.417969 0-8-3.582032-8-8v-17.597657c0-4.417969 3.582031-8 8-8h474.570312v25.597657c0 4.417968-3.582031 8-8 8zm0 0" fill="#db9c2e"/><path d="m413.273438 37.71875h-85.769532c-4.503906 0-8.152344 4.375-8.152344 9.769531v147.132813c0 5.398437 3.648438 9.773437 8.152344 9.773437h137.195313c4.503906 0 8.152343-4.375 8.152343-9.773437v-82.738282c0-5.542968-1.746093-10.882812-4.890624-14.949218l-39.746094-51.394532c-3.855469-4.988281-9.269532-7.820312-14.941406-7.820312zm0 0" fill="#ff624b"/><path d="m250.664062 2.480469-23.707031 23.707031 26.023438-.328125h77.078125c6.546875 0 11.855468-5.308594 11.855468-11.855469v-8.894531c0-2.730469-2.210937-4.941406-4.9375-4.941406h-80.722656c-2.097656 0-4.109375.832031-5.589844 2.3125zm0 0" fill="#ccc033"/><g fill="#a56021"><path d="m151.726562 239.308594c0 27.675781-22.433593 50.109375-50.109374 50.109375-27.671876 0-50.109376-22.433594-50.109376-50.109375 0-27.671875 22.4375-50.109375 50.109376-50.109375 27.675781 0 50.109374 22.4375 50.109374 50.109375zm0 0"/><path d="m277.683594 239.308594c0 27.675781-22.433594 50.109375-50.109375 50.109375s-50.109375-22.433594-50.109375-50.109375c0-27.671875 22.433594-50.109375 50.109375-50.109375s50.109375 22.4375 50.109375 50.109375zm0 0"/><path d="m454.28125 237.992188c0 27.675781-22.433594 50.109374-50.109375 50.109374s-50.109375-22.433593-50.109375-50.109374c0-27.675782 22.433594-50.109376 50.109375-50.109376s50.109375 22.433594 50.109375 50.109376zm0 0"/></g><path d="m34.257812 159.59375h17.628907c.523437 0 1.027343-.207031 1.398437-.578125l110.019532-110.019531c1.242187-1.242188.359374-3.375-1.398438-3.375h-75.246094c-.519531 0-1.019531.207031-1.386718.570312l-52.402344 51.71875c-.378906.371094-.589844.878906-.589844 1.40625v58.300782c0 1.09375.882812 1.976562 1.976562 1.976562zm0 0" fill="#fce575"/><path d="m272.085938 78.402344v-29.808594c0-1.113281-.921876-2.007812-2.035157-1.976562l-4.921875.136718c-.503906.015625-.984375.222656-1.34375.578125l-108.886718 108.890625c-1.246094 1.246094-.363282 3.375 1.398437 3.375h34.597656c.523438 0 1.027344-.210937 1.394531-.582031l79.21875-79.214844c.367188-.371093.578126-.871093.578126-1.398437zm0 0" fill="#fce575"/><path d="m272.085938 147.578125v-34.597656c0-1.761719-2.132813-2.640625-3.375-1.398438l-44.640626 44.640625c-1.242187 1.242188-.359374 3.371094 1.398438 3.371094h34.597656c.523438 0 1.027344-.207031 1.398438-.578125l10.042968-10.039063c.367188-.371093.578126-.875.578126-1.398437zm0 0" fill="#fce575"/><path d="m480.335938 205.050781h-38.777344v-39.835937h38.777344c4.417968 0 8 3.582031 8 8v23.835937c0 4.421875-3.582032 8-8 8zm0 0" fill="#ff624b"/><path d="m195.402344 46.449219-.234375.328125-109.445313 109.445312c-1.242187 1.246094-.363281 3.375 1.398438 3.375h34.597656c.523438 0 1.027344-.210937 1.398438-.582031l110.019531-110.019531c1.246093-1.242188.363281-3.371094-1.398438-3.371094h-34.726562c-.640625 0-1.238281.308594-1.609375.824219zm0 0" fill="#fce575"/><path d="m358.878906 194.621094v-147.132813c0-5.394531 3.648438-9.769531 8.152344-9.769531h-39.527344c-4.503906 0-8.152344 4.375-8.152344 9.769531v147.132813c0 5.398437 3.648438 9.773437 8.152344 9.773437h39.527344c-4.503906 0-8.152344-4.375-8.152344-9.773437zm0 0" fill="#ff4b34"/><path d="m442.355469 120.066406c4.367187 0 7.90625-3.539062 7.90625-7.90625v-18.617187c0-.875-.3125-1.699219-.878907-2.320313l-33.808593-37.152344c-.882813-.972656-2.117188-1.53125-3.382813-1.53125h-59.378906c-4.363281 0-7.90625 3.539063-7.90625 7.90625v51.714844c0 4.367188 3.539062 7.90625 7.90625 7.90625zm0 0" fill="#ffc34c"/><path d="m39.527344 230.085938v-17.785157c0-4.367187 3.539062-7.90625 7.90625-7.90625h-39.527344c-4.367188 0-7.90625 3.539063-7.90625 7.90625v17.785157c0 4.367187 3.539062 7.90625 7.90625 7.90625h39.527344c-4.367188 0-7.90625-3.539063-7.90625-7.90625zm0 0" fill="#bf6c0d"/><path d="m81.152344 239.308594c0-22.511719 14.851562-41.558594 35.289062-47.878906-4.6875-1.449219-9.664062-2.230469-14.824218-2.230469-27.675782 0-50.109376 22.4375-50.109376 50.109375 0 27.675781 22.433594 50.109375 50.109376 50.109375 5.160156 0 10.136718-.78125 14.824218-2.230469-20.4375-6.320312-35.289062-25.363281-35.289062-47.878906zm0 0" fill="#8c4c17"/><path d="m207.109375 239.308594c0-22.511719 14.851563-41.558594 35.289063-47.878906-4.6875-1.449219-9.664063-2.230469-14.824219-2.230469-27.675781 0-50.109375 22.4375-50.109375 50.109375 0 27.675781 22.433594 50.109375 50.109375 50.109375 5.160156 0 10.136719-.78125 14.824219-2.230469-20.4375-6.320312-35.289063-25.363281-35.289063-47.878906zm0 0" fill="#8c4c17"/><path d="m383.710938 237.992188c0-22.515626 14.847656-41.558594 35.285156-47.878907-4.6875-1.449219-9.664063-2.230469-14.824219-2.230469-27.675781 0-50.109375 22.433594-50.109375 50.109376 0 27.671874 22.433594 50.109374 50.109375 50.109374 5.160156 0 10.136719-.78125 14.824219-2.230468-20.4375-6.320313-35.285156-25.363282-35.285156-47.878906zm0 0" fill="#8c4c17"/><path d="m101.617188 269.65625c-16.730469 0-30.34375-13.613281-30.34375-30.347656 0-16.730469 13.613281-30.34375 30.34375-30.34375 16.734374 0 30.347656 13.613281 30.347656 30.34375 0 16.734375-13.613282 30.347656-30.347656 30.347656zm0 0" fill="#ffd59a"/><path d="m86.09375 239.308594c0-14.175782 9.773438-26.109375 22.933594-29.425782-2.371094-.597656-4.851563-.917968-7.410156-.917968-16.730469 0-30.34375 13.613281-30.34375 30.34375 0 16.734375 13.613281 30.347656 30.34375 30.347656 2.558593 0 5.039062-.320312 7.410156-.921875-13.160156-3.316406-22.933594-15.25-22.933594-29.425781zm0 0" fill="#ffc34c"/><path d="m227.574219 269.65625c-16.734375 0-30.347657-13.613281-30.347657-30.347656 0-16.730469 13.613282-30.34375 30.347657-30.34375 16.730469 0 30.34375 13.613281 30.34375 30.34375 0 16.734375-13.613281 30.347656-30.34375 30.347656zm0 0" fill="#ffd59a"/><path d="m212.050781 239.308594c0-14.175782 9.773438-26.109375 22.933594-29.425782-2.371094-.597656-4.851563-.917968-7.410156-.917968-16.730469 0-30.34375 13.613281-30.34375 30.34375 0 16.734375 13.613281 30.347656 30.34375 30.347656 2.558593 0 5.039062-.320312 7.410156-.921875-13.160156-3.316406-22.933594-15.25-22.933594-29.425781zm0 0" fill="#ffc34c"/><path d="m404.171875 268.335938c-16.730469 0-30.34375-13.613282-30.34375-30.34375 0-16.734376 13.613281-30.347657 30.34375-30.347657 16.734375 0 30.347656 13.613281 30.347656 30.347657 0 16.734374-13.613281 30.34375-30.347656 30.34375zm0 0" fill="#ffd59a"/><path d="m388.648438 237.992188c0-14.175782 9.773437-26.109376 22.9375-29.425782-2.375-.597656-4.855469-.917968-7.414063-.917968-16.730469 0-30.34375 13.613281-30.34375 30.34375 0 16.734374 13.613281 30.347656 30.34375 30.347656 2.554687 0 5.039063-.324219 7.414063-.921875-13.164063-3.316407-22.9375-15.25-22.9375-29.425781zm0 0" fill="#ffc34c"/><path d="m424.074219 63.410156-8.5-9.339844c-.882813-.972656-2.117188-1.53125-3.382813-1.53125h-59.378906c-4.367188 0-7.90625 3.539063-7.90625 7.90625v51.71875c0 4.363282 3.539062 7.90625 7.90625 7.90625h6.066406v-52.703124c0-2.183594 1.769532-3.953126 3.953125-3.953126h61.242188zm0 0" fill="#ffa730"/><path d="m280.308594 13.351562c1.484375-1.480468 3.492187-2.316406 5.589844-2.316406h56.015624v-5.925781c0-2.730469-2.210937-4.941406-4.9375-4.941406h-80.722656c-2.097656 0-4.109375.832031-5.589844 2.3125l-23.707031 23.707031 26.023438-.328125h14.820312zm0 0" fill="#99af17"/><path d="m34.257812 159.597656h17.628907c.054687 0 .105469-.011718.160156-.015625v-61.914062c0-4.757813 1.90625-9.316407 5.292969-12.660157l39.902344-39.382812h-10.582032c-.519531 0-1.019531.203125-1.386718.570312l-52.402344 51.714844c-.378906.375-.589844.878906-.589844 1.410156v58.300782c0 1.089844.882812 1.976562 1.976562 1.976562zm0 0" fill="#fcda4f"/><path d="m345.167969 232.21875h-45.578125c-3.316406 0-6-2.6875-6-6s2.683594-6 6-6h45.578125c3.3125 0 6 2.6875 6 6s-2.683594 6-6 6zm0 0" fill="#f9bb32"/><path d="m457.011719 165.597656c-3.316407 0-6-2.6875-6-6v-30.769531c0-3.3125 2.683593-6 6-6 3.3125 0 6 2.6875 6 6v30.769531c0 3.3125-2.6875 6-6 6zm0 0" fill="#ff9079"/><path d="m392.542969 144.792969c0 8.113281-6.578125 14.6875-14.691407 14.6875-8.109374 0-14.6875-6.574219-14.6875-14.6875s6.578126-14.691407 14.6875-14.691407c8.113282 0 14.691407 6.578126 14.691407 14.691407zm0 0" fill="#ff4b34"/><path d="m433.683594 165.214844c0 8.113281-6.574219 14.691406-14.6875 14.691406-8.113282 0-14.691406-6.578125-14.691406-14.691406 0-8.113282 6.578124-14.6875 14.691406-14.6875 8.113281 0 14.6875 6.574218 14.6875 14.6875zm0 0" fill="#ff4b34"/><path d="m436.617188 115.878906c-3.3125 0-6-2.6875-6-6v-12.96875l-17.96875-17.671875c-2.363282-2.324219-2.394532-6.121093-.074219-8.484375 2.324219-2.363281 6.125-2.394531 8.488281-.070312l19.761719 19.433594c1.148437 1.128906 1.792969 2.667968 1.792969 4.277343v15.484375c0 3.3125-2.683594 6-6 6zm0 0" fill="#ffd551"/><path d="m103.722656 156.222656 109.445313-109.445312.234375-.324219c.371094-.519531.96875-.828125 1.605468-.828125h-18c-.636718 0-1.234374.308594-1.605468.828125l-.234375.324219-109.445313 109.445312c-1.242187 1.246094-.363281 3.375 1.398438 3.375h18c-1.761719 0-2.640625-2.128906-1.398438-3.375zm0 0" fill="#fcda4f"/><path d="m172.898438 156.222656 99.1875-99.1875v-8.441406c0-1.113281-.921876-2.007812-2.035157-1.976562l-4.921875.136718c-.503906.015625-.984375.222656-1.34375.578125l-108.886718 108.890625c-1.246094 1.246094-.363282 3.375 1.398437 3.375h18c-1.761719 0-2.644531-2.128906-1.398437-3.375zm0 0" fill="#fcda4f"/><path d="m239.070312 156.222656 33.011719-33.011718v-10.230469c0-1.761719-2.128906-2.644531-3.371093-1.398438l-44.640626 44.640625c-1.246093 1.246094-.363281 3.375 1.398438 3.375h15c-1.761719 0-2.644531-2.128906-1.398438-3.375zm0 0" fill="#fcda4f"/></svg>