<svg height="474pt" viewBox="0 -28 474.38168 474" width="474pt" xmlns="http://www.w3.org/2000/svg"><path d="m223.738281 104-128.792969 109.1875c-4.507812 3.824219-7.109374 9.4375-7.109374 15.351562v177.152344c0 7.410156 6.007812 13.417969 13.414062 13.417969h271.003906c7.410156 0 13.414063-6.007813 13.414063-13.417969v-177.152344c0-5.914062-2.597657-11.527343-7.109375-15.351562l-128.792969-109.1875c-7.507813-6.363281-18.519531-6.363281-26.027344 0zm0 0" fill="#fce575"/><path d="m469.574219 218.832031c7.210937-8.460937 6.195312-21.160156-2.265625-28.367187l-197.601563-168.363282-19.589843-16.988281c-7.644532-6.628906-19.019532-6.554687-26.574219.175781l-18.867188 16.816407-197.601562 168.359375c-8.460938 7.207031-9.476563 19.90625-2.269531 28.367187l6.855468 8.042969c7.207032 8.460938 19.90625 9.476562 28.367188 2.265625l184.113281-156.867187c7.519531-6.40625 18.578125-6.40625 26.101563 0l184.109374 156.867187c8.460938 7.210937 21.160157 6.195313 28.371094-2.265625zm0 0" fill="#ff624b"/><path d="m44.808594 218.832031c-7.210938-8.457031-6.195313-21.160156 2.265625-28.367187l197.601562-168.363282 12.347657-11-6.90625-5.988281c-7.644532-6.628906-19.019532-6.554687-26.574219.175781l-18.867188 16.8125-197.601562 168.363282c-8.460938 7.207031-9.476563 19.910156-2.269531 28.367187l6.855468 8.042969c7.207032 8.460938 19.90625 9.476562 28.367188 2.269531l7.859375-6.695312zm0 0" fill="#ff4b34"/><path d="m137.835938 405.691406v-177.152344c0-5.914062 2.597656-11.527343 7.109374-15.351562l116.808594-99.023438-11.988281-10.164062c-7.507813-6.363281-18.519531-6.363281-26.027344 0l-128.792969 109.1875c-4.507812 3.824219-7.109374 9.4375-7.109374 15.351562v177.152344c0 7.410156 6.003906 13.417969 13.414062 13.417969h50c-7.40625 0-13.414062-6.007813-13.414062-13.417969zm0 0" fill="#ffd551"/><path d="m251.324219 389.621094c103.730469-9.355469 95.089843-89.09375 89.789062-114.011719-.898437-4.207031-6.347656-5.957031-12.023437-3.863281-34.277344 12.636718-140.75 57.785156-88.394532 114.589844 2.289063 2.480468 6.191407 3.683593 10.628907 3.285156zm0 0" fill="#ccc033"/><path d="m342.339844 282.265625c-.394532-2.503906-.820313-4.742187-1.226563-6.65625-.898437-4.207031-6.347656-5.957031-12.023437-3.863281-15.570313 5.738281-46.042969 18.191406-69.753906 35.394531-.429688.3125-.855469.625-1.28125.941406-.054688.042969-.113282.082031-.171876.125-.367187.277344-.738281.550781-1.101562.828125-.078125.058594-.160156.121094-.238281.179688-.339844.261718-.679688.519531-1.019531.78125-.097657.074218-.191407.148437-.285157.222656-.324219.25-.644531.503906-.964843.753906-.097657.078125-.195313.15625-.292969.234375-.320313.253907-.636719.507813-.953125.765625-.09375.074219-.1875.152344-.28125.226563-.324219.261719-.644532.527343-.960938.792969-.082031.066406-.167968.136718-.25.203124-.335937.28125-.667968.5625-1 .84375-.0625.054688-.125.105469-.191406.164063-.378906.324219-.757812.652344-1.136719.980469-.007812.007812-.015625.015625-.023437.023437-1.183594 1.039063-2.335938 2.089844-3.453125 3.15625-.046875.042969-.089844.085938-.136719.132813-.3125.300781-.628906.601562-.9375.90625-.078125.078125-.15625.15625-.238281.238281-.273438.269531-.546875.542969-.816407.816406-.09375.09375-.1875.1875-.277343.285157-.253907.257812-.503907.511718-.75.769531-.101563.109375-.203125.214843-.304688.320312-.238281.25-.472656.503907-.707031.753907-.101562.109374-.207031.222656-.308594.332031-.230468.253906-.457031.503906-.683594.757812-.097656.109375-.195312.21875-.292968.328125-.230469.257813-.457032.515625-.683594.777344-.089844.105469-.179688.210938-.269531.316406-.234375.273438-.464844.546875-.691407.820313-.078124.089843-.15625.183593-.230468.273437-.261719.320313-.519532.636719-.773438.957032-.039062.050781-.078125.097656-.113281.144531-.601563.753906-1.179687 1.515625-1.738281 2.285156-.007813.007813-.015625.019531-.023438.03125-.261718.363281-.519531.722656-.773437 1.085937-.058594.089844-.121094.179688-.179688.265626-.199219.289062-.394531.578124-.585937.867187-.078125.113281-.152344.230469-.226563.347656-.175781.261719-.347656.527344-.511719.792969-.082031.128906-.164062.257812-.242187.386719-.15625.25-.3125.503906-.464844.761719-.082031.136718-.164062.273437-.242187.410156-.148438.25-.289063.496094-.433594.746094-.078125.144531-.15625.285156-.234375.425781-.140625.25-.273437.5-.40625.75-.074219.140625-.152344.28125-.226563.421875-.132812.257812-.261718.511718-.390624.769531-.066407.136719-.132813.269531-.199219.40625-.132813.269531-.257813.539063-.382813.808594-.058594.125-.117187.25-.175781.375-.136719.300781-.269531.605469-.398437.90625-.039063.09375-.082032.1875-.121094.277343-.335938.804688-.644532 1.609376-.929688 2.421876-.027344.078124-.050781.15625-.078125.230468-.113281.324219-.222656.648438-.324219.976563-.042968.125-.078124.253906-.117187.378906-.085937.277344-.167969.554687-.246094.832031-.042969.148438-.082031.296875-.121093.445313-.070313.257812-.136719.515625-.203126.777343-.039062.15625-.074218.316407-.113281.476563-.054687.25-.113281.5-.167969.75-.035156.167969-.066406.332031-.097656.496094-.050781.25-.097656.496093-.140625.742187-.03125.167969-.058593.335938-.085937.503906-.042969.246094-.078125.496094-.113282.746094-.023437.167969-.046874.335938-.070312.503906-.03125.253907-.058594.503907-.085938.757813-.019531.164063-.035156.328125-.050781.492187-.023437.265626-.042969.53125-.0625.800782-.007812.152344-.023437.304687-.03125.457031-.015625.296875-.023437.59375-.035156.890625-.003906.125-.007813.246094-.011719.371094-.015625.847656-.003906 1.699218.042969 2.554687.007813.117188.019531.238281.027344.355469.019531.308594.039062.613281.070312.921875.011719.160156.03125.316406.046875.472656.027344.273438.058594.542969.09375.816407.019532.171874.046875.34375.074219.515624.035156.257813.074219.519532.117187.777344.027344.179688.0625.359375.09375.542969.046876.25.09375.503906.144532.757813.039062.183593.078125.371093.121094.554687.054687.25.113281.503906.171874.753906.046876.1875.089844.371094.140626.558594.0625.253906.132812.507813.207031.761719.050781.1875.101562.371094.15625.558594.078125.257812.160156.515624.242187.773437.058594.183594.113282.363281.175782.546875.089843.269531.1875.539062.28125.804688.0625.175781.121093.347656.1875.519531.109374.296875.230468.597656.347656.898437.058594.144532.113281.289063.171875.429688.179687.433594.363281.863281.558593 1.296875.007813.011719.011719.027343.019532.039062.199218.445313.414062.894531.632812 1.339844.070313.144531.148438.289063.21875.433594.152344.304687.308594.609375.46875.914062.09375.175781.191406.351563.289063.523438.148437.277343.300781.554687.460937.828125.105469.1875.21875.375.328125.5625.152344.265625.3125.53125.472657.796875.121093.191406.242187.390625.367187.585937.164063.257813.328125.519532.5.777344.128906.199219.257813.398438.390625.59375.175781.261719.351562.519531.53125.78125.140625.195312.277344.394531.417969.59375.1875.261719.378906.527344.574219.789062.144531.195313.289062.394532.4375.589844.199218.265625.40625.535156.613281.800782.152343.195312.300781.386718.453125.582031.222656.277343.453125.558593.679687.835937.152344.183594.296875.367188.449219.546875.257812.3125.527344.621094.796875.929688.132813.15625.257813.308593.394531.460937.40625.460938.824219.925782 1.253906 1.390625.203126.222657.421876.425781.652344.625.101563.089844.210938.175781.320313.257813.117187.09375.238281.1875.363281.277344.148438.105468.300781.207031.457031.308593.066407.042969.140625.082031.210938.121094.480469.289063.988281.554687 1.53125.773437 2.351562.238282 4.75.445313 7.207031.617188 1.097656.078125 2.160156.054688 3.1875-.03125.335938-.035156.679688-.066406 1.015625-.105469 3.488281-.46875 6.445313-1.855469 8.371094-4.035156 21.96875-24.839844 19.40625-47.367187 5.226562-66.695313 23.703125-17.191406 54.152344-29.640624 69.71875-35.378906 1.152344-.421875 2.289063-.679687 3.382813-.800781zm0 0" fill="#99af17"/><path d="m232.890625 392.699219c-122.359375-20.507813-104.875-114.4375-96.316406-143.550781 1.445312-4.917969 8.078125-6.5 14.628906-3.503907 39.570313 18.117188 161.941406 81.390625 94.609375 144.113281-2.945312 2.742188-7.6875 3.816407-12.921875 2.941407zm0 0" fill="#eacf32"/><path d="m159.148438 249.378906c-2.90625-1.398437-5.578126-2.648437-7.945313-3.734375-6.550781-2.996093-13.183594-1.414062-14.628906 3.503907-8.558594 29.113281-26.042969 123.042968 96.316406 143.550781 5.234375.875 9.976563-.199219 12.921875-2.941407 2.808594-2.617187 5.28125-5.238281 7.453125-7.855468-105.589844-19.960938-102.027344-96.59375-94.117187-132.523438zm0 0" fill="#ccc033"/><path d="m243.253906 376.050781c-1.714844 0-3.417968-.734375-4.605468-2.152343l-32.171876-38.480469c-2.125-2.539063-1.785156-6.324219.757813-8.449219 2.539063-2.125 6.324219-1.789062 8.449219.753906l32.171875 38.476563c2.125 2.542969 1.785156 6.328125-.757813 8.453125-1.121094.9375-2.488281 1.398437-3.84375 1.398437zm0 0" fill="#fcda4f"/><path d="m272.023438 155.117188c0 8.28125-6.71875 15-15 15-8.285157 0-15-6.71875-15-15 0-8.285157 6.714843-15 15-15 8.28125 0 15 6.714843 15 15zm0 0" fill="#ffd551"/><path d="m180.058594 393.03125c0 8.285156-6.714844 15-15 15-8.28125 0-15-6.714844-15-15s6.71875-15 15-15c8.285156 0 15 6.714844 15 15zm0 0" fill="#ffd551"/><path d="m364.195312 394.230469c-3.3125 0-6-2.6875-6-6v-106.726563c0-3.316406 2.6875-6 6-6s6 2.683594 6 6v106.726563c0 3.3125-2.6875 6-6 6zm0 0" fill="#fff4c1"/><path d="m452.855469 200.316406c-1.390625 0-2.789063-.480468-3.921875-1.460937l-45.335938-39.203125c-2.503906-2.164063-2.78125-5.953125-.609375-8.460938 2.164063-2.507812 5.953125-2.78125 8.460938-.613281l45.335937 39.199219c2.503906 2.167968 2.777344 5.957031.609375 8.464844-1.183593 1.371093-2.855469 2.074218-4.539062 2.074218zm0 0" fill="#ff9079"/></svg>