<svg height="457pt" viewBox="-71 0 457 457.106" width="457pt" xmlns="http://www.w3.org/2000/svg"><path d="m214.027344 195.289062v-184.8125c0-5.785156-4.730469-10.476562-10.566406-10.476562h-91.136719c-5.835938 0-10.566407 4.691406-10.566407 10.476562v184.8125l-101.7031245 234.3125v6.546876c0 11.574218 9.4609375 20.957031 21.1328125 20.957031h273.410156c11.671875 0 21.132813-9.382813 21.132813-20.957031v-6.546876zm0 0" fill="#fff4c1"/><path d="m50.054688 436.148438v-6.546876l101.703124-234.3125v-184.8125c0-5.785156 4.730469-10.476562 10.566407-10.476562h-50c-5.835938 0-10.566407 4.691406-10.566407 10.476562v184.8125l-101.7031245 234.3125v6.546876c0 11.574218 9.4609375 20.957031 21.1328125 20.957031h50c-11.671875 0-21.132812-9.382813-21.132812-20.957031zm0 0" fill="#fce575"/><path d="m99.507812 250.164062-79.382812 182.886719c-.171875.394531-.257812.820313-.257812 1.253907v.003906c0 1.730468 1.414062 3.152344 3.148437 3.152344h269.753906c1.742188 0 3.152344-1.410157 3.152344-3.152344v-.003906c0-.433594-.089844-.859376-.261719-1.253907l-79.382812-182.886719zm0 0" fill="#ffc34c"/><path d="m210.695312 350.722656c0-28.917968-23.640624-52.359375-52.800781-52.359375-29.164062 0-52.804687 23.441407-52.804687 52.359375 0 28.917969 23.640625 52.359375 52.804687 52.359375 29.160157 0 52.800781-23.441406 52.800781-52.359375zm0 0" fill="#fcda4f"/><g fill="#8c4c17"><path d="m171.34375 350.722656c0-7.367187-6.023438-13.339844-13.449219-13.339844-7.429687 0-13.453125 5.972657-13.453125 13.339844 0 7.367188 6.023438 13.335938 13.453125 13.335938 7.425781 0 13.449219-5.96875 13.449219-13.335938zm0 0"/><path d="m221.382812 345.425781c-5.664062.472657-20.9375 1.746094-35.605468 2.96875-1.191406.101563-2.066406 1.109375-2.066406 2.304688v.023437c0 10.605469-6.539063 19.722656-15.828126 23.601563-1.09375.453125-1.65625 1.660156-1.285156 2.785156l11.8125 35.828125.003906.011719c26.410157-8.558594 45.492188-33.179688 45.492188-62.226563 0-1.054687-.027344-2.105468-.078125-3.144531-.0625-1.28125-1.167969-2.257813-2.445313-2.152344zm0 0"/><path d="m157.894531 285.265625c-15.476562 0-29.707031 5.28125-40.960937 14.125 0 0 12.109375 15.175781 23.613281 29.589844.734375.921875 2.046875 1.109375 3.027344.453125 4.101562-2.71875 9.027343-4.3125 14.320312-4.3125s10.21875 1.59375 14.316407 4.3125c.984374.65625 2.296874.46875 3.03125-.453125l23.613281-29.589844c-11.257813-8.84375-25.488281-14.125-40.960938-14.125zm0 0"/><path d="m132.074219 350.722656c0-.007812 0-.015625 0-.023437 0-1.195313-.875-2.203125-2.066407-2.304688-18.460937-1.539062-37.890624-3.160156-37.890624-3.160156h-.003907c-.148437 1.8125-.230469 3.640625-.230469 5.488281 0 29.046875 19.085938 53.671875 45.496094 62.230469l.003906-.015625 11.8125-35.828125c.371094-1.121094-.191406-2.328125-1.28125-2.785156-9.296874-3.875-15.839843-12.992188-15.839843-23.601563zm0 0"/></g><path d="m50.054688 429.601562 77.882812-179.4375h-28.429688l-79.382812 182.886719c-.171875.394531-.257812.820313-.257812 1.253907v.003906c0 1.730468 1.414062 3.152344 3.148437 3.152344h27.105469c-.027344-.4375-.066406-.871094-.066406-1.3125zm0 0" fill="#f9bb32"/><path d="m154.851562 242.789062c0-14.949218-12.21875-27.066406-27.292968-27.066406-15.070313 0-27.292969 12.117188-27.292969 27.066406 0 14.945313 12.222656 27.0625 27.292969 27.0625 15.074218 0 27.292968-12.117187 27.292968-27.0625zm0 0" fill="#ffd551"/><path d="m215.121094 250.164062c0-14.945312-12.21875-27.0625-27.292969-27.0625s-27.292969 12.117188-27.292969 27.0625c0 14.945313 12.21875 27.0625 27.292969 27.0625s27.292969-12.117187 27.292969-27.0625zm0 0" fill="#ffd551"/><path d="m187.828125 223.101562c0-14.949218-12.21875-27.066406-27.292969-27.066406-15.074218 0-27.292968 12.117188-27.292968 27.066406 0 14.945313 12.21875 27.0625 27.292968 27.0625 15.074219 0 27.292969-12.117187 27.292969-27.0625zm0 0" fill="#ffc34c"/><path d="m192.191406 159.339844c0-8.238282-6.738281-14.917969-15.046875-14.917969-8.308593 0-15.046875 6.679687-15.046875 14.917969 0 8.242187 6.738282 14.921875 15.046875 14.921875 8.308594 0 15.046875-6.679688 15.046875-14.921875zm0 0" fill="#ffd551"/><path d="m127.558594 215.722656c-15.074219 0-27.292969 12.117188-27.292969 27.066406 0 12.296876 8.277344 22.671876 19.605469 25.96875l21.421875-49.355468c-4.035157-2.335938-8.726563-3.679688-13.734375-3.679688zm0 0" fill="#ffc34c"/><path d="m133.242188 223.101562c0 3.609376.71875 7.054688 2.015624 10.207032l15.375-35.429688c-10.175781 3.933594-17.390624 13.738282-17.390624 25.222656zm0 0" fill="#f9bb32"/><path d="m236.601562 349.519531c-2.390624 0-4.652343-1.441406-5.582031-3.800781l-42.480469-107.585938c-1.214843-3.082031.296876-6.566406 3.378907-7.785156s6.566406.296875 7.785156 3.378906l42.476563 107.585938c1.21875 3.082031-.292969 6.566406-3.375 7.785156-.722657.285156-1.46875.421875-2.203126.421875zm0 0" fill="#fff4c1"/><path d="m189.476562 145.496094c-3.3125 0-6-2.6875-6-6v-89.828125c0-3.316407 2.6875-6 6-6s6 2.683593 6 6v89.828125c0 3.3125-2.6875 6-6 6zm0 0" fill="#fcf9de"/><path d="m99.699219 412.953125c0 8.28125-6.71875 15-15 15-8.285157 0-15-6.71875-15-15 0-8.285156 6.714843-15 15-15 8.28125 0 15 6.714844 15 15zm0 0" fill="#f9bb32"/></svg>