<svg height="474pt" viewBox="0 -43 474.292 474" width="474pt" xmlns="http://www.w3.org/2000/svg"><path d="m439.292969 323.992188h-401.007813c-13.804687 0-25-11.195313-25-25v-78.320313c0-13.808594 11.195313-25 25-25h401.007813c13.804687 0 25 11.191406 25 25v78.320313c0 13.804687-11.195313 25-25 25zm0 0" fill="#fce575"/><path d="m432.390625 214.910156-64.875-77.070312-.011719.011718c-8.101562-40.023437-43.429687-70.160156-85.839844-70.160156h-165.417968c-24.195313 0-43.8125 19.613282-43.8125 43.8125-37.105469 62.070313-34.503906 104.304688-34.503906 104.304688h396.335937c-.617187-.273438-1.246094-.578125-1.875-.898438zm0 0" fill="#fce575"/><path d="m63.285156 298.992188v-78.320313c0-13.808594 11.195313-25 25-25h1.3125c2.988282-18.242187 11.09375-47.796875 32.835938-84.167969 0-24.195312 19.613281-43.8125 43.8125-43.8125h-50c-24.199219 0-43.8125 19.617188-43.8125 43.8125-21.742188 36.371094-29.847656 65.925782-32.835938 84.167969h-1.3125c-13.804687 0-25 11.191406-25 25v78.320313c0 13.804687 11.195313 25 25 25h50c-13.804687 0-25-11.195313-25-25zm0 0" fill="#ffd551"/><path d="m325.6875 122.839844c-10.027344-13.535156-26.113281-22.289063-44.023438-22.289063h-165.417968c-3.921875 0-7.355469 2.070313-9.289063 5.171875 0 0-20.8125 21.582032-18.8125 76.75l28.101563.472656h236.238281c3.515625 0 5.914063-3.523437 4.664063-6.808593-10.136719-26.628907-31.460938-53.296875-31.460938-53.296875zm0 0" fill="#f9bb32"/><path d="m464.292969 257.632812h-454.292969c-5.5 0-10 4.5-10 10v46.542969c0 5.5 4.5 10 10 10h454.292969c5.5 0 10-4.5 10-10v-46.542969c0-5.5-4.5-10-10-10zm0 0" fill="#fce575"/><path d="m40 294.175781c0 5.5 4.5 10 10 10h424.292969v10c0 5.5-4.5 10-10 10h-454.292969c-5.5 0-10-4.5-10-10v-46.542969c0-5.5 4.5-10 10-10h30zm0 0" fill="#ffd551"/><path d="m277.679688 251.695312c0 23.644532-19.171876 42.816407-42.816407 42.816407-23.648437 0-42.816406-19.171875-42.816406-42.816407 0-23.648437 19.167969-42.816406 42.816406-42.816406 23.644531 0 42.816407 19.167969 42.816407 42.816406zm0 0" fill="#ff9079"/><path d="m209.0625 302.554688c-1.277344 0-2.558594-.488282-3.535156-1.460938-1.953125-1.953125-1.953125-5.121094 0-7.074219l37.328125-37.324219h-20.53125c-3.027344 0-5.703125-1.707031-6.984375-4.449218-1.28125-2.746094-.871094-5.890625 1.074218-8.214844l34.679688-41.410156c1.769531-2.113282 4.925781-2.394532 7.042969-.621094 2.117187 1.773438 2.394531 4.925781.621093 7.042969l-31.53125 37.652343h21.152344c3.132813 0 5.929688 1.867188 7.125 4.757813 1.199219 2.894531.542969 6.191406-1.671875 8.40625l-41.230469 41.230469c-.976562.976562-2.257812 1.464844-3.539062 1.464844zm0 0" fill="#fff4c1"/><path d="m171.007812 323.992188c0 34.933593-28.320312 63.253906-63.253906 63.253906-34.9375 0-63.257812-28.320313-63.257812-63.253906 0-34.9375 28.320312-63.257813 63.257812-63.257813 34.933594 0 63.253906 28.320313 63.253906 63.257813zm0 0" fill="#e58d23"/><path d="m418.703125 323.992188c0 34.933593-28.320313 63.253906-63.257813 63.253906s-63.257812-28.320313-63.257812-63.253906c0-34.9375 28.320312-63.257813 63.257812-63.257813s63.257813 28.320313 63.257813 63.257813zm0 0" fill="#e58d23"/><path d="m463.8125 251.695312h-30.667969c-2.757812 0-5-2.238281-5-5v-25.886718c0-2.761719 2.242188-5 5-5h30.667969c2.761719 0 5 2.238281 5 5v25.886718c0 2.761719-2.238281 5-5 5zm0 0" fill="#ffa730"/><path d="m243.160156 100.550781h16.601563v82.398438h-16.601563zm0 0" fill="#db9c2e"/><path d="m127.753906 377.246094c-34.9375 0-63.257812-28.320313-63.257812-63.253906 0-20.742188 9.980468-39.148438 25.402344-50.6875-26.242188 7.710937-45.402344 31.953124-45.402344 60.6875 0 34.933593 28.320312 63.253906 63.257812 63.253906 14.195313 0 27.296875-4.675782 37.851563-12.570313-5.664063 1.664063-11.652344 2.570313-17.851563 2.570313zm0 0" fill="#bf6c0d"/><path d="m375.445312 377.246094c-34.9375 0-63.257812-28.320313-63.257812-63.253906 0-20.742188 9.980469-39.148438 25.402344-50.6875-26.238282 7.710937-45.402344 31.953124-45.402344 60.6875 0 34.933593 28.320312 63.253906 63.257812 63.253906 14.195313 0 27.296876-4.675782 37.855469-12.570313-5.664062 1.664063-11.652343 2.570313-17.855469 2.570313zm0 0" fill="#bf6c0d"/><path d="m124.316406 284.214844c-22.074218-9.140625-47.378906 1.339844-56.519531 23.410156-9.144531 22.074219 1.339844 47.378906 23.410156 56.519531 22.070313 9.144531 47.375-1.335937 56.519531-23.410156 9.144532-22.070313-1.339843-47.375-23.410156-56.519531zm0 0" fill="#fcda4f"/><path d="m372.015625 284.023438c-22.074219-9.140626-47.378906 1.339843-56.519531 23.410156-9.144532 22.074218 1.335937 47.378906 23.410156 56.519531 22.070312 9.144531 47.375-1.335937 56.519531-23.410156 9.140625-22.070313-1.339843-47.375-23.410156-56.519531zm0 0" fill="#fcda4f"/><path d="m84.496094 324.175781c0-20.410156 14.210937-37.550781 33.257812-42.074219-3.214844-.765624-6.558594-1.183593-10-1.183593-23.855468 0-43.257812 19.40625-43.257812 43.257812 0 23.851563 19.402344 43.257813 43.257812 43.257813 3.441406 0 6.785156-.414063 10-1.179688-19.046875-4.527344-33.257812-21.667968-33.257812-42.078125zm0 0" fill="#ffc34c"/><path d="m332.1875 323.992188c0-20.410157 14.210938-37.550782 33.257812-42.078126-3.210937-.765624-6.558593-1.179687-10-1.179687-23.851562 0-43.257812 19.402344-43.257812 43.253906 0 23.855469 19.40625 43.257813 43.257812 43.257813 3.441407 0 6.789063-.414063 10-1.179688-19.046874-4.523437-33.257812-21.664062-33.257812-42.074218zm0 0" fill="#ffc34c"/><path d="m132.75 210.671875c0 8.285156-6.714844 15-15 15s-15-6.714844-15-15 6.714844-15 15-15 15 6.714844 15 15zm0 0" fill="#ffd551"/><path d="m160.605469 242.632812c0 8.285157-6.714844 15-15 15-8.285157 0-15-6.714843-15-15 0-8.28125 6.714843-15 15-15 8.285156 0 15 6.71875 15 15zm0 0" fill="#ffd551"/><path d="m150.605469 136.695312c0 8.285157-6.714844 15-15 15-8.285157 0-15-6.714843-15-15 0-8.28125 6.714843-15 15-15 8.285156 0 15 6.71875 15 15zm0 0" fill="#db9c2e"/><path d="m455.144531 300.511719c-3.3125 0-6-2.6875-6-6v-25.875c0-3.3125 2.6875-6 6-6 3.316407 0 6 2.6875 6 6v25.875c0 3.3125-2.683593 6-6 6zm0 0" fill="#fff4c1"/><path d="m400.617188 101.09375 7.894531.304688c1.757812.066406 3.121093-1.34375 2.964843-3.105469-2.875-32.519531-29.988281-59.632813-62.507812-62.507813-1.757812-.152344-3.171875 1.207032-3.105469 2.964844l.304688 7.894531c.0625 1.644531 1.402343 3.039063 3.050781 3.195313 24.988281 2.421875 45.78125 23.214844 48.203125 48.203125.15625 1.648437 1.550781 2.988281 3.195313 3.050781zm0 0" fill="#ff9079"/><path d="m369.5 99.902344 9.546875.367187c2.566406.097657 4.445313-2.097656 4-4.65625-2.738281-15.746093-15.652344-28.660156-31.398437-31.398437-2.558594-.445313-4.753907 1.433594-4.65625 4.003906l.367187 9.542969c11.777344.453125 21.6875 10.363281 22.140625 22.140625zm0 0" fill="#ffa730"/><path d="m430.136719 102.210938 12.328125.472656c2.746094.105468 4.875-2.101563 4.632812-4.851563-4.488281-50.8125-46.855468-93.179687-97.667968-97.667969-2.75-.242187-4.957032 1.886719-4.851563 4.632813l.472656 12.328125c.097657 2.574219 2.195313 4.75 4.769531 5 39.046876 3.78125 71.535157 36.269531 75.316407 75.316406.25 2.574219 2.425781 4.671875 5 4.769532zm0 0" fill="#ff624b"/><path d="m118.957031 116.722656c1.933594-3.101562 5.367188-5.171875 9.289063-5.171875h165.417968c11.234376 0 21.746094 3.445313 30.5 9.355469-10.089843-12.421875-25.460937-20.355469-42.5-20.355469h-165.417968c-3.921875 0-7.355469 2.070313-9.289063 5.171875 0 0-20.8125 21.585938-18.8125 76.75l11.90625.199219c.84375-47.191406 18.90625-65.949219 18.90625-65.949219zm0 0" fill="#db9c2e"/><path d="m253.160156 100.550781h16.601563v82.398438h-16.601563zm0 0" fill="#fce575"/><path d="m332.140625 175.625c-2.800781 0-5.308594-1.972656-5.878906-4.824219-8.125-40.648437-31.054688-45.832031-31.285157-45.882812-3.246093-.667969-5.332031-3.84375-4.664062-7.085938.671875-3.246093 3.847656-5.332031 7.089844-4.664062 1.257812.261719 30.960937 6.925781 40.628906 55.277343.648438 3.25-1.457031 6.410157-4.707031 7.0625-.398438.078126-.796875.117188-1.183594.117188zm0 0" fill="#ffd551"/></svg>