<svg height="445pt" viewBox="-13 0 445 445.91829" width="445pt" xmlns="http://www.w3.org/2000/svg"><path d="m176.707031 278.328125h66.035157v138.324219h-66.035157zm0 0" fill="#ffc34c"/><path d="m176.707031 278.328125h30v138.328125h-30zm0 0" fill="#f9bb32"/><path d="m260.125 445.917969h-100.800781c-5.523438 0-10-4.476563-10-10v-21.226563c0-5.523437 4.476562-10 10-10h100.800781c5.523438 0 10 4.476563 10 10v21.226563c0 5.523437-4.476562 10-10 10zm0 0" fill="#ff9079"/><path d="m277.25 116.53125c0 37.304688-30.238281 67.542969-67.539062 67.542969-37.304688 0-67.542969-30.238281-67.542969-67.542969 0-37.300781 30.238281-67.539062 67.542969-67.539062 37.300781 0 67.539062 30.238281 67.539062 67.539062zm0 0" fill="#fce575"/><g fill="#ffea63"><path d="m141.878906 177.28125-14.480468 14.480469c-2.019532 2.019531-2.128907 5.441406-.011719 7.363281.945312.851562 2.136719 1.28125 3.324219 1.28125 1.269531 0 2.535156-.484375 3.503906-1.453125l14.667968-14.664063c1.898438-1.898437 1.851563-4.957031-.046874-6.855468-.035157-.035156-.066407-.066406-.097657-.097656-1.898437-1.90625-4.960937-1.953126-6.859375-.054688zm0 0"/><path d="m170.34375 198.667969-7.804688 18.855469c-1.023437 2.46875-.070312 5.429687 2.339844 6.582031.695313.335937 1.425782.492187 2.144532.492187 1.941406 0 3.789062-1.152344 4.578124-3.0625l7.898438-19.078125c1.03125-2.488281-.195312-5.300781-2.683594-6.320312-.039062-.019531-.082031-.035157-.125-.050781-2.480468-1.023438-5.320312.101562-6.347656 2.582031zm0 0"/><path d="m209.707031 202.648438c-.015625 0-.035156 0-.054687 0-2.691406-.003907-4.898438 2.121093-4.898438 4.8125v20.453124c0 2.585938 1.894532 4.898438 4.46875 5.144532 2.953125.28125 5.4375-2.035156 5.4375-4.929688v-20.667968c0-2.691407-2.203125-4.816407-4.894531-4.8125-.019531 0-.035156 0-.058594 0zm0 0"/><path d="m242.738281 196.074219c-.042969.015625-.085937.03125-.125.050781-2.488281 1.019531-3.710937 3.832031-2.683593 6.320312l7.90625 19.089844c.789062 1.910156 2.632812 3.0625 4.578124 3.0625.71875 0 1.453126-.160156 2.15625-.496094 2.402344-1.15625 3.347657-4.113281 2.328126-6.578124l-7.8125-18.867188c-1.027344-2.480469-3.867188-3.605469-6.347657-2.582031zm0 0"/><path d="m270.636719 177.371094c-.03125.03125-.066407.0625-.097657.09375-1.902343 1.898437-1.949218 4.960937-.050781 6.859375l14.625 14.621093c.964844.96875 2.234375 1.453126 3.5 1.453126 1.191407 0 2.382813-.429688 3.324219-1.28125 2.121094-1.921876 2.011719-5.34375-.011719-7.363282l-14.429687-14.433594c-1.902344-1.898437-4.960938-1.851562-6.859375.050782zm0 0"/><path d="m314.496094 154.605469-18.878906-7.820313c-2.488282-1.03125-5.300782.1875-6.324219 2.675782-.015625.042968-.035157.085937-.050781.125-1.023438 2.480468.101562 5.320312 2.582031 6.347656l19.085937 7.910156c.617188.257812 1.261719.378906 1.890625.378906 2.078125 0 4.039063-1.3125 4.726563-3.457031.796875-2.488281-.617188-5.160156-3.03125-6.160156zm0 0"/><path d="m321.085938 111.589844h-20.445313c-2.6875 0-4.816406 2.207031-4.8125 4.898437v.050781.0625c-.003906 2.691407 2.125 4.898438 4.8125 4.898438h20.660156c2.894531 0 5.210938-2.488281 4.929688-5.441406-.246094-2.574219-2.554688-4.46875-5.144531-4.46875zm0 0"/><path d="m317.554688 72.421875c-.871094-2.835937-3.957032-4.246094-6.636719-3.136719l-19.074219 7.894532c-2.476562 1.027343-3.605469 3.867187-2.582031 6.347656.015625.039062.03125.082031.050781.121094 1.019531 2.492187 3.835938 3.714843 6.320312 2.683593l18.878907-7.816406c2.390625-.988281 3.800781-3.617187 3.042969-6.09375zm0 0"/><path d="m277.503906 55.753906 14.417969-14.417968c1.898437-1.894532 2.175781-5.015626.378906-7.007813-1.914062-2.125-5.1875-2.191406-7.1875-.195313l-14.613281 14.617188c-1.902344 1.898438-1.851562 4.960938.046875 6.859375.035156.03125.066406.0625.097656.09375 1.898438 1.902344 4.960938 1.953125 6.859375.050781zm0 0"/><path d="m249.105469 34.421875 7.851562-18.945313c.90625-2.183593.25-4.78125-1.707031-6.101562-2.695312-1.820312-6.214844-.660156-7.394531 2.183594l-7.902344 19.070312c-1.03125 2.484375.191406 5.296875 2.679687 6.320313.039063.019531.082032.035156.125.050781 2.480469 1.023438 5.320313-.101562 6.347657-2.578125zm0 0"/><path d="m209.707031 30.417969h.058594c2.691406.003906 4.898437-2.125 4.898437-4.816407v-20.433593c0-2.589844-1.890624-4.898438-4.46875-5.1445315-2.953124-.2812495-5.4375 2.0351565-5.4375 4.9296875v20.648437c0 2.691407 2.203126 4.820313 4.894532 4.816407zm0 0"/><path d="m123.589844 116.535156c0-.015625 0-.03125 0-.050781.003906-2.6875-2.125-4.894531-4.8125-4.894531h-20.535156c-2.585938 0-4.898438 1.890625-5.144532 4.46875-.28125 2.953125 2.035156 5.4375 4.933594 5.4375h20.746094c2.6875 0 4.816406-2.203125 4.8125-4.894532 0-.019531 0-.042968 0-.066406zm0 0"/><path d="m123.800781 146.78125-18.859375 7.816406c-2.414062 1-3.828125 3.671875-3.03125 6.160156.6875 2.144532 2.648438 3.457032 4.722656 3.457032.632813 0 1.277344-.121094 1.894532-.378906l19.066406-7.902344c2.480469-1.027344 3.605469-3.867188 2.582031-6.347656-.019531-.042969-.035156-.085938-.050781-.125-1.023438-2.488282-3.835938-3.707032-6.324219-2.679688zm0 0"/><path d="m176.679688 36.996094c.039062-.019532.082031-.035156.121093-.054688 2.492188-1.019531 3.714844-3.835937 2.683594-6.320312l-7.824219-18.875c-.988281-2.390625-3.621094-3.796875-6.09375-3.039063-2.835937.871094-4.246094 3.960938-3.140625 6.636719l7.902344 19.070312c1.03125 2.476563 3.871094 3.601563 6.351563 2.582032zm0 0"/><path d="m148.734375 55.746094c.03125-.03125.0625-.066406.09375-.097656 1.898437-1.898438 1.945313-4.957032.046875-6.855469l-14.566406-14.566407c-1.671875-1.671874-4.324219-2.054687-6.292969-.75-2.710937 1.800782-2.976563 5.492188-.804687 7.664063l14.660156 14.660156c1.902344 1.898438 4.964844 1.847657 6.863281-.054687zm0 0"/><path d="m130.164062 83.515625c1.023438-2.480469-.105468-5.324219-2.585937-6.347656l-19.0625-7.890625c-2.671875-1.109375-5.765625.300781-6.632813 3.140625-.757812 2.472656.65625 5.105469 3.046876 6.09375l18.859374 7.808593c2.488282 1.027344 5.300782-.191406 6.324219-2.683593.015625-.039063.035157-.082031.050781-.121094zm0 0"/></g><path d="m182.167969 116.53125c0-30.28125 20.03125-55.972656 47.542969-64.515625-6.324219-1.964844-13.042969-3.023437-20-3.023437-37.242188 0-67.542969 30.296874-67.542969 67.539062s30.300781 67.542969 67.542969 67.542969c6.957031 0 13.675781-1.0625 20-3.023438-27.511719-8.546875-47.542969-34.238281-47.542969-64.519531zm0 0" fill="#fcda4f"/><path d="m399.652344 331.320312h-379.851563c-12.925781 0-22.210937-12.441406-18.527343-24.832031l48.113281-162.015625c2.433593-8.199218 9.972656-13.824218 18.527343-13.824218h283.621094c8.558594 0 16.09375 5.625 18.53125 13.824218l48.113282 162.015625c3.679687 12.390625-5.601563 24.832031-18.527344 24.832031zm0 0" fill="#ccc033"/><path d="m59.800781 311.320312c-12.925781 0-22.210937-12.441406-18.527343-24.832031l46.277343-155.839843h-19.636719c-8.554687 0-16.089843 5.625-18.527343 13.824218l-48.113281 162.015625c-3.683594 12.390625 5.601562 24.832031 18.527343 24.832031h379.851563c11.234375 0 19.714844-9.402343 19.320312-20zm0 0" fill="#99af17"/><path d="m26.777344 296.046875 40.457031-136.242187c1.355469-4.554688 5.542969-7.679688 10.296875-7.679688h264.390625c4.753906 0 8.941406 3.125 10.292969 7.679688l40.460937 136.242187c2.042969 6.882813-3.113281 13.796875-10.296875 13.796875h-345.308594c-7.183593 0-12.339843-6.914062-10.292968-13.796875zm0 0" fill="#fcda4f"/><path d="m37.070312 309.84375h15.304688c-8.765625-3.644531-14.027344-13.511719-11.105469-23.355469l39.902344-134.363281h-3.644531c-4.75 0-8.941406 3.125-10.292969 7.679688l-40.457031 136.242187c-2.046875 6.882813 3.109375 13.796875 10.292968 13.796875zm0 0" fill="#ffd551"/><path d="m319.167969 299.5-10.074219-53.683594c-.246094-1.320312.769531-2.542968 2.113281-2.542968h55.234375c.949219 0 1.785156.625 2.058594 1.535156l15.941406 53.683594c.253906.851562-.042968 1.5-.335937 1.894531-.296875.394531-.832031.863281-1.722657.863281h-61.101562c-1.035156 0-1.921875-.734375-2.113281-1.75zm0 0" fill="#ccc033"/><path d="m64.773438 197.804688 10.695312-36.027344c.273438-.910156 1.109375-1.535156 2.0625-1.535156h53.492188c1.34375 0 2.359374 1.222656 2.109374 2.546874l-6.757812 36.023438c-.191406 1.015625-1.078125 1.753906-2.109375 1.753906h-57.433594c-1.4375-.003906-2.46875-1.386718-2.058593-2.761718zm0 0" fill="#ccc033"/><path d="m300.367188 199.285156-6.761719-36.023437c-.246094-1.324219.765625-2.546875 2.109375-2.546875h46.207031c.953125 0 1.789063.625 2.058594 1.539062l10.699219 36.023438c.410156 1.378906-.621094 2.761718-2.058594 2.761718h-50.144532c-1.035156 0-1.921874-.738281-2.109374-1.753906zm0 0" fill="#ccc033"/><path d="m169.496094 198.492188 6.761718-36.023438c.191407-1.015625 1.078126-1.753906 2.109376-1.753906h70.003906c1.03125 0 1.917968.738281 2.109375 1.753906l6.761719 36.023438c.246093 1.324218-.769532 2.546874-2.113282 2.546874h-83.519531c-1.347656 0-2.359375-1.222656-2.113281-2.546874zm0 0" fill="#ccc033"/><path d="m37.070312 300.777344c-.890624 0-1.429687-.46875-1.722656-.863282-.292968-.394531-.589844-1.042968-.339844-1.894531l15.945313-53.679687c.269531-.914063 1.105469-1.539063 2.058594-1.539063h62.519531c1.347656 0 2.359375 1.222657 2.113281 2.546875l-10.074219 53.679688c-.191406 1.015625-1.074218 1.753906-2.109374 1.753906h-68.390626zm0 0" fill="#ccc033"/><path d="m150.695312 298.707031 10.070313-53.679687c.191406-1.015625 1.078125-1.753906 2.113281-1.753906h100.984375c1.03125 0 1.917969.738281 2.109375 1.753906l10.074219 53.679687c.246094 1.324219-.765625 2.546875-2.113281 2.546875h-121.128906c-1.34375-.003906-2.359376-1.226562-2.109376-2.546875zm0 0" fill="#ccc033"/><path d="m114.371094 309.84375h25.496094l29.589843-157.71875h-25.492187zm0 0" fill="#eacf32"/><path d="m286.875 309.84375h25.492188l-29.589844-157.71875h-25.496094zm0 0" fill="#eacf32"/><path d="m44.9375 232.511719h329.453125l-7.441406-25.054688h-314.570313zm0 0" fill="#eacf32"/><path d="m52.378906 207.457031-7.441406 25.054688h10l7.441406-25.054688zm0 0" fill="#ccc033"/><path d="m114.371094 309.84375h25.496094l29.589843-157.71875h-25.492187zm0 0" fill="#eacf32"/><path d="m189.324219 428.691406c0-5.523437 4.476562-10 10-10h70.800781v-4c0-5.523437-4.476562-10-10-10h-100.800781c-5.523438 0-10 4.476563-10 10v21.226563c0 5.523437 4.476562 10 10 10h30zm0 0" fill="#ff624b"/><path d="m78.445312 279.640625c0 8.285156-6.71875 15-15 15-8.285156 0-15-6.714844-15-15s6.714844-15 15-15c8.28125 0 15 6.714844 15 15zm0 0" fill="#99af17"/><path d="m374.386719 201.710938c-2.636719 0-5.054688-1.753907-5.78125-4.417969l-10.726563-39.203125c-.875-3.199219 1.007813-6.496094 4.203125-7.371094 3.191407-.875 6.496094 1.003906 7.371094 4.203125l10.726563 39.203125c.875 3.195312-1.007813 6.496094-4.207032 7.371094-.527344.144531-1.058594.214844-1.585937.214844zm0 0" fill="#eacf32"/><path d="m229.707031 389.574219c-3.3125 0-6-2.6875-6-6v-30.617188c0-3.316406 2.6875-6 6-6 3.316407 0 6 2.683594 6 6v30.617188c0 3.3125-2.683593 6-6 6zm0 0" fill="#ffd551"/><path d="m262.300781 124.277344c-.214843 0-.429687-.011719-.648437-.035156-3.292969-.355469-5.679688-3.3125-5.324219-6.605469 3.214844-29.925781-24.863281-39.285157-26.058594-39.667969-3.148437-1.007812-4.898437-4.375-3.898437-7.527344.996094-3.152344 4.347656-4.902344 7.5-3.917968 13.390625 4.1875 37.8125 20.527343 34.390625 52.394531-.332031 3.078125-2.933594 5.359375-5.960938 5.359375zm0 0" fill="#fff4c1"/></svg>