<svg height="460pt" viewBox="-70 0 460 460.749" width="460pt" xmlns="http://www.w3.org/2000/svg"><path d="m126.351562 260.46875h105.308594v178.210938h-105.308594zm0 0" fill="#ffeacf"/><path d="m126.351562 260.46875h46.707032v178.210938h-46.707032zm0 0" fill="#ffd59a"/><path d="m167.226562 327.261719c-72.03125 0-130.429687-58.398438-130.429687-130.429688v-66.402343c0-72.035157 58.398437-130.429688 130.429687-130.429688 72.035157 0 130.429688 58.394531 130.429688 130.429688v66.402343c.003906 72.035157-58.394531 130.429688-130.429688 130.429688zm0 0" fill="#ffeacf"/><path d="m50.578125 135.0625-47.144531 56.847656c-1.976563 2.386719-3.058594 5.386719-3.058594 8.484375v1.113281c0 7.339844 5.949219 13.289063 13.289062 13.289063h36.914063zm0 0" fill="#ffd59a"/><path d="m273.074219 102.226562c-.1875-.445312-.382813-.878906-.582031-1.316406-23.445313-54.269531-62.804688-64.484375-62.804688-64.484375l-.011719.015625c-13.890625-7.359375-30.890625-11.703125-49.269531-11.703125-46.867188 0-84.859375 28.152344-84.859375 62.875 0 31.300781 30.875 57.246094 71.285156 62.0625 0 0 37.894531 6.5 55.507813 12.5 5.644531 3.539063 12.058594 5.949219 18.9375 6.921875.800781.3125 5.042968.488282 6.867187.488282 26.871094 0 48.65625-21.785157 48.65625-48.65625.003907-6.628907-1.328125-12.945313-3.726562-18.703126zm0 0" fill="#ff9079"/><path d="m312.027344 460.75c5.160156 0 9.34375-3.195312 9.34375-7.136719v-17.355469c0-33.398437-64.285156-60.472656-143.582032-60.472656-79.296874 0-143.578124 27.074219-143.578124 60.472656v17.355469c0 3.941407 4.183593 7.136719 9.339843 7.136719zm0 0" fill="#ccc033"/><path d="m83.503906 196.832031v-66.402343c0-64.0625 46.1875-117.335938 107.078125-128.339844-7.578125-1.371094-15.382812-2.089844-23.355469-2.089844-72.035156 0-130.429687 58.394531-130.429687 130.429688v66.402343c0 72.035157 58.398437 130.429688 130.429687 130.429688 7.972657 0 15.777344-.71875 23.355469-2.089844-60.890625-11.007813-107.078125-64.277344-107.078125-128.339844zm0 0" fill="#ffd59a"/><path d="m133.078125 28.089844c-33.453125 8.429687-57.53125 31.882812-57.53125 59.523437 0 10.019531 3.175781 19.484375 8.804687 27.886719 4.027344-35.363281 22.207032-66.429688 48.726563-87.410156zm0 0" fill="#ff624b"/><path d="m80.917969 453.210938c0-33.398438 64.285156-60.476563 143.578125-60.476563 24.667968 0 47.878906 2.621094 68.160156 7.238281-26.195312-14.6875-67.894531-24.1875-114.863281-24.1875-79.296875 0-143.582031 27.074219-143.582031 60.472656v17.355469c0 3.941407 4.183593 7.136719 9.34375 7.136719h37.363281zm0 0" fill="#99af17"/><path d="m191.035156 143.710938c65.058594-5.863282 59.640625-55.878907 56.316406-71.503907-.5625-2.640625-3.980468-3.738281-7.539062-2.425781-21.5 7.925781-88.277344 36.246094-55.441406 71.871094 1.4375 1.558594 3.882812 2.3125 6.664062 2.058594zm0 0" fill="#ccc033"/><path d="m248.121094 76.382812c-.246094-1.570312-.515625-2.976562-.769532-4.175781-.5625-2.640625-3.980468-3.738281-7.539062-2.425781-9.769531 3.601562-28.878906 11.410156-43.75 22.199219-.269531.195312-.535156.394531-.804688.589843-.035156.027344-.070312.054688-.105468.082032-.234375.171875-.464844.34375-.695313.519531-.046875.035156-.097656.074219-.148437.109375-.210938.164062-.425782.328125-.636719.492188-.058594.046874-.121094.09375-.179687.136718-.203126.160156-.40625.316406-.605469.476563-.0625.050781-.125.097656-.183594.144531-.199219.160156-.398437.320312-.597656.480469-.058594.046875-.117188.097656-.175781.144531-.203126.164062-.402344.328125-.605469.496094-.050781.042968-.101563.085937-.152344.128906-.210937.175781-.421875.351562-.628906.527344-.039063.035156-.082031.070312-.121094.101562-.238281.207032-.476563.410156-.710937.617188-.003907.003906-.011719.007812-.015626.015625-.742187.648437-1.464843 1.308593-2.164062 1.976562-.03125.027344-.058594.054688-.085938.082031-.199218.191407-.394531.378907-.589843.570313-.050781.050781-.101563.101563-.148438.148437-.171875.171876-.34375.339844-.511719.511719-.058593.0625-.117187.121094-.175781.179688-.160156.160156-.316406.324219-.472656.484375-.0625.066406-.125.132812-.1875.199218-.148437.15625-.296875.316407-.445313.472657-.0625.070312-.128906.140625-.191406.210937-.144531.15625-.289062.3125-.429687.472656-.0625.070313-.125.136719-.183594.207032-.144531.160156-.285156.324218-.429687.488281-.054688.066406-.113282.132813-.167969.195313-.148438.171874-.292969.34375-.433594.519531-.050781.054687-.097656.113281-.144531.171875-.164063.199218-.324219.398437-.484375.597656-.027344.03125-.050781.0625-.074219.089844-.375.476562-.738281.953125-1.085938 1.433594-.007812.007812-.011718.015624-.015624.019531-.164063.226562-.328126.453125-.484376.683593-.039062.054688-.078124.109376-.113281.167969-.125.179688-.25.359375-.367187.539063-.050782.074218-.097656.144531-.144532.21875-.105468.167968-.214843.332031-.320312.5-.050781.078125-.097656.160156-.148438.242187-.097656.160157-.195312.316407-.292968.476563-.050782.085937-.101563.171875-.152344.257812-.089844.15625-.179688.3125-.269531.46875-.050781.089844-.101563.175782-.148438.265625-.085937.15625-.171875.3125-.253906.46875-.046875.089844-.09375.179688-.140625.265625-.082031.160156-.164062.320313-.246094.484375-.039062.082031-.082031.167969-.125.253907-.082031.167968-.160156.335937-.242187.507812-.035157.078125-.074219.15625-.109375.234375-.085938.1875-.167969.378906-.25.570313-.023438.054687-.050782.113281-.074219.171874-.210937.503907-.40625 1.007813-.585937 1.519532-.015626.046875-.03125.097656-.046876.144531-.070312.203125-.140624.40625-.203124.613281-.027344.078125-.050782.15625-.074219.238282-.054688.171874-.105469.347656-.15625.523437-.023438.089844-.046875.183594-.074219.273437-.042969.164063-.085938.328126-.125.488282-.027344.101562-.050781.203125-.074219.300781-.035156.15625-.070312.316406-.105469.472656-.019531.101563-.042968.207031-.0625.308594-.03125.15625-.058593.3125-.085937.464844-.019531.105469-.039063.210937-.054687.316406-.027344.15625-.050782.3125-.070313.46875-.015625.105469-.03125.210937-.042969.316406-.019531.160157-.039062.316407-.054687.476563-.011719.101562-.023438.207031-.03125.308594-.015625.167968-.027344.335937-.039063.5-.007812.097656-.015625.191406-.019531.289062-.011719.183594-.015625.371094-.023437.558594 0 .078125-.007813.152344-.007813.230468-.007813.53125 0 1.066407.027344 1.601563.003906.074219.011719.148437.015625.222656.011718.195313.027344.386719.042968.578125.011719.101563.023438.199219.03125.296875.019532.171875.039063.339844.058594.511719.015625.109375.03125.21875.046875.324219.023438.164062.046875.324219.074219.488281.019531.113281.039062.226562.058594.339844.03125.15625.058594.316406.09375.476562.023437.113282.046875.230469.070312.347656.035156.15625.074219.3125.109375.472657.03125.117187.058594.234375.089844.351562.039063.160157.082031.316407.128906.476563.03125.117187.0625.234375.097657.351562.046874.160156.097656.320313.148437.484375.039063.113281.074219.230469.113281.34375.054688.167969.117188.335938.175782.503907.039062.109374.078124.21875.117187.324218.070313.1875.144531.375.21875.5625.039063.089844.070313.179688.109375.273438.109375.269531.226562.539062.351562.8125.003907.007812.003907.015625.007813.023437.125.28125.261719.558594.398437.839844.042969.089844.089844.183594.136719.273437.097657.191407.195313.378907.292969.570313.058594.113281.121094.222656.183594.332031.09375.171875.1875.34375.285156.515625.066406.117188.136719.238281.207031.355469.097657.164062.195313.332031.296875.496094.074219.121094.152344.246094.230469.367187.101563.164063.207031.328125.3125.488281.082031.125.164063.25.246094.375.109375.164063.222656.324219.335937.488282.085938.125.171875.25.261719.375.117187.164062.234375.328125.355469.492187.09375.125.183594.246094.273437.371094.128907.167969.257813.335937.386719.503906.097656.121094.191406.242188.285156.363281.140625.175782.28125.347657.425782.523438.09375.113281.1875.230469.28125.34375.164062.195312.332031.390625.5.582031.082031.097657.164062.191407.246093.289063.257813.289062.519531.582031.789063.871094.125.140624.261718.269531.40625.390624.066406.058594.132812.109376.203125.164063.074219.058594.148437.117187.226562.171875.09375.066406.1875.132812.285157.195312.042968.027344.089843.050782.132812.078126.304688.179687.621094.347656.960938.484374 1.476562.148438 2.980468.28125 4.523437.386719.6875.046875 1.351563.035157 2-.019531.210937-.023438.425781-.042969.632813-.066406 2.1875-.292969 4.042968-1.164063 5.253906-2.53125 13.777344-15.578125 12.171875-29.707032 3.277344-41.828125 14.867187-10.785157 33.964843-18.589844 43.726562-22.191407.722656-.265624 1.433594-.425781 2.121094-.5zm0 0" fill="#99af17"/><path d="m179.476562 145.640625c-76.742187-12.859375-65.777343-71.773437-60.410156-90.03125.90625-3.085937 5.066406-4.078125 9.175782-2.195313 24.816406 11.359376 101.566406 51.046876 59.335937 90.382813-1.84375 1.722656-4.820313 2.394531-8.101563 1.84375zm0 0" fill="#eacf32"/><path d="m133.222656 55.753906c-1.820312-.875-3.496094-1.660156-4.980468-2.339844-4.109376-1.878906-8.269532-.886718-9.175782 2.195313-5.367187 18.261719-16.332031 77.171875 60.410156 90.035156 3.28125.546875 6.257813-.125 8.101563-1.84375 1.765625-1.644531 3.316406-3.285156 4.675781-4.929687-66.222656-12.519532-63.992187-60.582032-59.03125-83.117188zm0 0" fill="#ccc033"/><path d="m185.976562 135.4375c-1.144531 0-2.28125-.488281-3.070312-1.433594l-20.179688-24.136718c-1.414062-1.691407-1.1875-4.214844.503907-5.632813 1.695312-1.417969 4.21875-1.191406 5.636719.503906l20.175781 24.132813c1.414062 1.695312 1.191406 4.21875-.503907 5.636718-.75.625-1.660156.929688-2.5625.929688zm0 0" fill="#fcda4f"/><path d="m294.371094 448.410156c-.054688 0-.113282 0-.167969 0-3.3125-.089844-5.921875-2.847656-5.835937-6.160156.449218-16.515625-18.199219-23.414062-18.996094-23.699219-3.109375-1.121093-4.738282-4.546875-3.628906-7.664062 1.105468-3.113281 4.515624-4.746094 7.632812-3.648438 1.132812.398438 27.675781 10.03125 26.988281 35.335938-.085937 3.257812-2.753906 5.835937-5.992187 5.835937zm0 0" fill="#eacf32"/><path d="m135.046875 440.824219c0 8.210937-6.65625 14.867187-14.867187 14.867187-8.207032 0-14.863282-6.65625-14.863282-14.867187 0-8.207031 6.65625-14.863281 14.863282-14.863281 8.210937 0 14.867187 6.65625 14.867187 14.863281zm0 0" fill="#99af17"/><path d="m178.296875 42.597656c0 8.210938-6.652344 14.863282-14.863281 14.863282-8.210938 0-14.863282-6.652344-14.863282-14.863282 0-8.210937 6.652344-14.867187 14.863282-14.867187 8.210937 0 14.863281 6.65625 14.863281 14.867187zm0 0" fill="#ff624b"/></svg>