<svg height="452pt" viewBox="-39 0 452 452.514" width="452pt" xmlns="http://www.w3.org/2000/svg"><path d="m304.570312 116.910156c0 64.566406-52.34375 116.90625-116.910156 116.90625s-116.90625-52.339844-116.90625-116.90625 52.339844-116.910156 116.90625-116.910156 116.910156 52.34375 116.910156 116.910156zm0 0" fill="#ffc34c"/><path d="m255.738281 48.832031c-37.601562-37.597656-98.558593-37.597656-136.15625 0-37.601562 37.597657-37.601562 98.558594 0 136.15625 37.597657 37.597657 98.554688 37.597657 136.15625 0 37.597657-37.597656 37.597657-98.558593 0-136.15625zm0 0" fill="#db9c2e"/><path d="m110.773438 116.910156c0-57.746094 41.867187-105.703125 96.898437-115.195312-6.503906-1.125-13.1875-1.714844-20.011719-1.714844-64.566406 0-116.90625 52.34375-116.90625 116.910156s52.339844 116.90625 116.90625 116.90625c6.824219 0 13.507813-.589844 20.011719-1.710937-55.03125-9.496094-96.898437-57.453125-96.898437-115.195313zm0 0" fill="#f9bb32"/><path d="m152.730469 27.191406c-35.871094 14.011719-61.347657 48.945313-61.347657 89.71875 0 40.773438 25.476563 75.703125 61.347657 89.71875-25.644531-21.445312-41.957031-53.675781-41.957031-89.71875 0-36.046875 16.3125-68.277344 41.957031-89.71875zm0 0" fill="#bf6c0d"/><path d="m100.835938 133.414062h177.945312v245.289063h-177.945312zm0 0" fill="#bf6c0d"/><path d="m136.632812 329.308594c-3.3125 0-6-2.6875-6-6v-91.316406c0-3.3125 2.6875-6 6-6s6 2.6875 6 6v91.316406c0 3.3125-2.6875 6-6 6zm0 0" fill="#e58d23"/><path d="m256.699219 342.925781c-3.3125 0-6-2.6875-6-6v-91.3125c0-3.3125 2.6875-6 6-6s6 2.6875 6 6v91.3125c0 3.3125-2.6875 6-6 6zm0 0" fill="#e58d23"/><path d="m181.402344 367.628906c-3.3125 0-6-2.6875-6-6v-91.3125c0-3.3125 2.6875-6 6-6s6 2.6875 6 6v91.3125c0 3.3125-2.6875 6-6 6zm0 0" fill="#e58d23"/><path d="m92.804688 133.414062c7.847656 45.25 47.394531 79.773438 94.859374 79.773438 47.460938 0 87.003907-34.523438 94.855469-79.773438zm0 0" fill="#a56021"/><path d="m278.78125 148.011719c-12.964844 37.871093-48.910156 65.175781-91.121094 65.175781-38.203125 0-71.277344-22.367188-86.824218-54.695312v36.699218c21.398437 23.714844 52.367187 38.625 86.824218 38.625 36.839844 0 69.691406-17.042968 91.121094-43.671875zm0 0" fill="#e58d23"/><path d="m122.421875 260.328125h-1.257813c-11.019531 0-19.949218-8.929687-19.949218-19.945313v-106.96875h41.152344v106.96875c.003906 11.015626-8.929688 19.945313-19.945313 19.945313zm0 0" fill="#a56021"/><path d="m175.691406 291.269531h-1.261718c-11.015626 0-19.945313-8.929687-19.945313-19.945312v-86.335938h41.152344v86.335938c0 11.015625-8.929688 19.945312-19.945313 19.945312zm0 0" fill="#a56021"/><path d="m258.835938 260.328125h-1.261719c-11.015625 0-19.945313-8.929687-19.945313-19.945313v-106.96875h41.152344v106.96875c0 11.015626-8.929688 19.945313-19.945312 19.945313zm0 0" fill="#a56021"/><path d="m221.421875 317.601562c-3.3125 0-6-2.6875-6-6v-91.3125c0-3.3125 2.6875-6 6-6s6 2.6875 6 6v91.3125c0 3.3125-2.6875 6-6 6zm0 0" fill="#e58d23"/><path d="m123.226562 240.371094v-106.957032h-22.011718v106.957032c0 11.023437 8.9375 19.957031 19.960937 19.957031h1.234375c3.8125 0 7.359375-1.085937 10.390625-2.9375-5.734375-3.507813-9.574219-9.804687-9.574219-17.019531zm0 0" fill="#8c4c17"/><path d="m92.816406 133.414062c.035156.207032.074219.417969.109375.625.179688.996094.375 1.984376.585938 2.96875.078125.359376.152343.722657.234375 1.082032.230468 1.023437.480468 2.039062.742187 3.050781.078125.292969.148438.589844.226563.882813.335937 1.230468.6875 2.453124 1.070312 3.667968.019532.058594.035156.117188.050782.171875.421874 1.335938.875 2.660157 1.351562 3.96875 0 .007813.003906.011719.003906.015625.453125 1.238282.933594 2.457032 1.433594 3.667969.113281.285156.242188.566406.359375.851563.398437.933593.804687 1.859374 1.230469 2.777343.160156.351563.328125.699219.492187 1.046875.164063.34375.339844.683594.507813 1.027344v-25.804688zm0 0" fill="#8c4c17"/><path d="m264.703125 236.632812c-3.3125 0-6-2.6875-6-6v-57.332031c0-3.3125 2.6875-6 6-6s6 2.6875 6 6v57.332031c0 3.3125-2.6875 6-6 6zm0 0" fill="#bf6c0d"/><path d="m220.339844 134.320312c0-16.253906-13.285156-29.429687-29.675782-29.429687-16.390624 0-29.679687 13.175781-29.679687 29.429687 0 16.253907 13.289063 29.429688 29.679687 29.429688 16.390626 0 29.675782-13.175781 29.675782-29.429688zm0 0" fill="#fcda4f"/><g fill="#8c4c17"><path d="m198.222656 134.320312c0-4.140624-3.382812-7.496093-7.558594-7.496093-4.175781 0-7.5625 3.355469-7.5625 7.496093 0 4.140626 3.386719 7.496094 7.5625 7.496094 4.175782 0 7.558594-3.355468 7.558594-7.496094zm0 0"/><path d="m226.347656 131.34375c-3.183594.265625-11.769531.980469-20.011718 1.667969-.667969.058593-1.164063.625-1.160157 1.296875v.011718c0 5.960938-3.675781 11.085938-8.898437 13.265626-.613282.257812-.929688.933593-.722656 1.566406l6.640624 20.136718v.007813c14.84375-4.8125 25.570313-18.652344 25.570313-34.976563 0-.59375-.015625-1.183593-.042969-1.765624-.035156-.722657-.65625-1.269532-1.375-1.210938zm0 0"/><path d="m190.664062 97.53125c-8.699218 0-16.695312 2.96875-23.023437 7.9375 0 0 6.808594 8.53125 13.273437 16.632812.414063.519532 1.148438.621094 1.703126.253907 2.304687-1.527344 5.070312-2.421875 8.046874-2.421875 2.972657 0 5.742188.894531 8.046876 2.421875.550781.367187 1.289062.265625 1.703124-.253907l13.269532-16.632812c-6.324219-4.972656-14.324219-7.9375-23.019532-7.9375zm0 0"/><path d="m176.152344 134.320312c0-.003906 0-.007812 0-.011718 0-.671875-.492188-1.238282-1.160156-1.296875-10.378907-.863281-21.296876-1.773438-21.296876-1.773438h-.003906c-.082031 1.015625-.128906 2.042969-.128906 3.082031 0 16.328126 10.726562 30.167969 25.570312 34.976563l.003907-.007813 6.640625-20.136718c.207031-.628906-.109375-1.308594-.722656-1.5625-5.222657-2.183594-8.902344-7.304688-8.902344-13.269532zm0 0"/></g><path d="m342.125 310.03125c-3.871094-4.609375-10.929688-4.535156-14.808594.070312-12.683594 15.058594-31.671875 24.628907-52.902344 24.628907-21.230468 0-40.214843-9.570313-52.902343-24.625-3.902344-4.632813-10.964844-4.632813-14.871094 0-12.683594 15.054687-31.671875 24.625-52.902344 24.625-21.226562 0-40.214843-9.570313-52.898437-24.625-3.90625-4.632813-10.96875-4.632813-14.871094 0-12.6875 15.054687-31.671875 24.625-52.902344 24.625-7.015625 0-13.789062-1.046875-20.167968-2.992188-8.429688-2.570312-15.738282 6.402344-11.300782 14.015625 37.207032 63.792969 106.378906 106.757813 185.40625 106.757813 80.042969 0 149.972656-44.078125 186.820313-109.226563 2.855469-5.042968.585937-11.453125-4.777344-13.636718-10.511719-4.277344-19.734375-11.0625-26.921875-19.617188zm0 0" fill="#fcda4f"/><path d="m342.535156 358.300781c-3.875-4.609375-10.929687-4.535156-14.808594.070313-12.683593 15.058594-31.671874 24.632812-52.902343 24.632812s-40.21875-9.570312-52.902344-24.628906c-3.902344-4.632812-10.96875-4.632812-14.871094 0-12.6875 15.058594-31.671875 24.628906-52.902343 24.628906-21.230469 0-40.214844-9.570312-52.898438-24.628906-3.90625-4.632812-10.96875-4.632812-14.875 0-12.683594 15.058594-31.667969 24.628906-52.898438 24.628906-1.371093 0-2.726562-.054687-4.074218-.132812 39.234375 42.773437 95.535156 69.644531 158.011718 69.644531 68.296876 0 129.210938-32.105469 168.511719-81.992187-4.976562-3.484376-9.492187-7.582032-13.390625-12.222657zm0 0" fill="#eacf32"/><path d="m227.027344 442.507812c-79.027344 0-148.199219-42.96875-185.40625-106.761718-.28125-.480469-.511719-.96875-.703125-1.457032-2.578125.292969-5.199219.441407-7.851563.441407-7.019531 0-13.789062-1.046875-20.167968-2.992188-8.429688-2.570312-15.742188 6.398438-11.300782 14.015625 37.207032 63.792969 106.378906 106.757813 185.40625 106.757813 25.164063 0 49.332032-4.359375 71.78125-12.359375-10.363281 1.546875-20.96875 2.355468-31.757812 2.355468zm0 0" fill="#eacf32"/><path d="m227.027344 442.507812c-62.386719 0-118.628906-26.78125-157.851563-69.445312-10.421875 6.300781-22.632812 9.9375-35.703125 9.9375-1.367187 0-2.722656-.050781-4.070312-.128906 39.195312 42.730468 95.421875 69.585937 157.828125 69.640625.445312 0 .886719-.011719 1.332031-.015625 1.28125-.007813 2.554688-.027344 3.828125-.058594 1.1875-.027344 2.371094-.066406 3.554687-.113281.320313-.011719.640626-.027344.960938-.042969 21.609375-.988281 42.390625-5.183594 61.882812-12.128906-10.367187 1.546875-20.972656 2.355468-31.761718 2.355468zm0 0" fill="#ccc033"/><path d="m182.972656 409.933594c0 8.46875-6.863281 15.332031-15.332031 15.332031-8.464844 0-15.332031-6.863281-15.332031-15.332031 0-8.464844 6.867187-15.332032 15.332031-15.332032 8.46875 0 15.332031 6.867188 15.332031 15.332032zm0 0" fill="#ccc033"/><path d="m154.542969 357.445312c0 8.46875-6.863281 15.332032-15.332031 15.332032-8.464844 0-15.328126-6.863282-15.328126-15.332032 0-8.464843 6.863282-15.332031 15.328126-15.332031 8.46875 0 15.332031 6.867188 15.332031 15.332031zm0 0" fill="#eacf32"/></svg>