<svg id="Capa_1" enable-background="new 0 0 512 512" height="512" viewBox="0 0 512 512" width="512" xmlns="http://www.w3.org/2000/svg"><circle cx="256" cy="256" fill="#00d65b" r="256"/><path d="m512 256c0-13.439-1.036-26.637-3.032-39.517l-80.477-80.477-344.982 239.988 132.974 132.974c12.88 1.996 26.078 3.032 39.517 3.032 141.385 0 256-114.615 256-256z" fill="#09af4c"/><path d="m83.509 136.006h344.983v239.988h-344.983z" fill="#414952"/><path d="m255.595 136.006h172.896v239.988h-172.896z" fill="#23272b"/><path d="m238.167 136.006h35.666v239.988h-35.666z" fill="#707789"/><path d="m255.595 136.006h18.238v239.988h-18.238z" fill="#555a66"/><path d="m109 156.5h31v88.5h-31z" fill="#9196aa"/><path d="m375 267.5h31v88.5h-31z" fill="#707789"/><circle cx="178.25" cy="233.25" fill="#bec3d2" r="22.25"/></svg>