<svg id="Capa_1" enable-background="new 0 0 512 512" height="512" viewBox="0 0 512 512" width="512" xmlns="http://www.w3.org/2000/svg"><circle cx="256" cy="256" fill="#de78f0" r="256"/><path d="m511.121 277.362-210.7-210.7-112.115 131.888 64.942 64.942-31.14 129.931-68.858 50.243 65.667 65.667c12.108 1.757 24.489 2.667 37.083 2.667 134.191 0 244.267-103.249 255.121-234.638z" fill="#bf4cd9"/><path d="m328.154 392.076h-144.308l25.38-223.915h93.548z" fill="#fff"/><path d="m302.774 168.161h-47.179v223.915h72.559z" fill="#e9edf5"/><circle cx="256" cy="107.918" fill="#fff" r="60.629"/><path d="m256 47.29c-.136 0-.269.009-.405.01v121.237c.136.001.269.01.405.01 33.484 0 60.629-27.144 60.629-60.628 0-33.485-27.145-60.629-60.629-60.629z" fill="#e9edf5"/><path d="m188.306 137.773h135.389v60.777h-135.389z" fill="#e6e6e6"/><path d="m255.595 137.772h68.099v60.777h-68.099z" fill="#cdcdcd"/><path d="m153.251 365.964h205.499v77.703h-205.499z" fill="#e6e6e6"/><path d="m255.595 365.964h103.154v77.702h-103.154z" fill="#cdcdcd"/></svg>