<svg id="Capa_1" enable-background="new 0 0 512 512" height="512" viewBox="0 0 512 512" width="512" xmlns="http://www.w3.org/2000/svg"><circle cx="256" cy="256" fill="#ff6c52" r="256"/><path d="m512 256c0-8.64-.428-17.179-1.264-25.599l-113.177-113.177-279.861 280.806 112.706 112.706c8.419.836 16.957 1.264 25.596 1.264 141.385 0 256-114.615 256-256z" fill="#f93728"/><circle cx="256" cy="256" fill="#ffce00" r="198.25"/><path d="m256 57.75c-.135 0-.27.005-.405.005v396.49c.135 0 .27.005.405.005 109.49 0 198.25-88.76 198.25-198.25s-88.76-198.25-198.25-198.25z" fill="#ffb600"/><path d="m239.57 436.954c-11.149-1-22.242-3.042-32.974-6.067l8.143-28.874c8.949 2.524 18.206 4.227 27.511 5.062zm33.482-.058-2.783-29.87c9.302-.867 18.552-2.602 27.493-5.157l8.242 28.846c-10.721 3.063-21.808 5.143-32.952 6.181zm-97.754-18.075c-9.992-4.961-19.588-10.889-28.521-17.618l18.049-23.963c7.462 5.62 15.475 10.57 23.814 14.711zm161.958-.276-13.434-26.824c8.326-4.17 16.32-9.146 23.76-14.789l18.131 23.901c-8.908 6.758-18.483 12.717-28.457 17.712zm-215.282-39.877c-7.545-8.24-14.363-17.219-20.267-26.688l25.459-15.87c4.931 7.91 10.628 15.413 16.933 22.298zm268.463-.45-22.191-20.187c6.283-6.908 11.956-14.43 16.859-22.355l25.512 15.783c-5.87 9.489-12.66 18.492-20.18 26.759zm-303.757-56.207c-4.06-10.408-7.167-21.256-9.232-32.242l29.482-5.545c1.724 9.161 4.313 18.206 7.699 26.883zm338.865-.582-27.986-10.806c3.355-8.689 5.914-17.743 7.605-26.91l29.502 5.443c-2.028 10.993-5.097 21.851-9.121 32.273zm-321.232-65.049h-30v-.38c0-11.203 1.029-22.427 3.059-33.358l29.496 5.476c-1.695 9.13-2.555 18.511-2.555 27.882zm303.375-.553c-.011-9.371-.881-18.752-2.587-27.881l29.49-5.51c2.042 10.931 3.084 22.154 3.097 33.358zm-293.185-54.611-27.975-10.838c4.033-10.409 9.067-20.507 14.964-30.014l25.494 15.813c-4.92 7.933-9.12 16.358-12.483 25.039zm282.931-.164c-3.372-8.673-7.58-17.09-12.509-25.017l25.477-15.84c5.907 9.5 10.951 19.589 14.993 29.988zm-253.562-47.212-22.17-20.211c7.525-8.254 15.853-15.854 24.751-22.588l18.104 23.922c-7.436 5.627-14.396 11.978-20.685 18.877zm224.147-.12c-6.298-6.892-13.265-13.237-20.707-18.856l18.078-23.941c8.905 6.725 17.241 14.315 24.775 22.561zm-179.687-33.519-13.402-26.839c10.004-4.996 20.523-9.079 31.266-12.135l8.209 28.855c-8.958 2.548-17.729 5.953-26.073 10.119zm135.184-.076c-8.35-4.158-17.127-7.553-26.088-10.091l8.174-28.865c10.748 3.044 21.274 7.115 31.287 12.101zm-81.613-15.167-2.75-29.874c11.053-1.017 22.426-1.024 33.482-.019l-2.715 29.877c-9.248-.841-18.775-.835-28.017.016z" fill="#fa0"/><g fill="#fe8205"><path d="m397.434 201.052 27.961-10.87c-4.042-10.398-9.086-20.488-14.993-29.988l-25.477 15.84c4.929 7.929 9.137 16.346 12.509 25.018z"/><path d="m407.688 255.827 30-.034c-.013-11.204-1.055-22.427-3.097-33.358l-29.49 5.51c1.706 9.13 2.576 18.51 2.587 27.882z"/><path d="m368.245 358.031 22.191 20.187c7.521-8.267 14.311-17.27 20.18-26.759l-25.512-15.783c-4.903 7.926-10.576 15.447-16.859 22.355z"/><path d="m365.39 110.922-18.078 23.941c7.442 5.62 14.409 11.964 20.707 18.856l22.146-20.237c-7.534-8.244-15.87-15.835-24.775-22.56z"/><path d="m397.559 310.622 27.986 10.806c4.024-10.421 7.093-21.28 9.121-32.274l-29.502-5.443c-1.691 9.168-4.25 18.222-7.605 26.911z"/><path d="m323.822 391.721 13.434 26.824c9.975-4.995 19.549-10.954 28.457-17.711l-18.131-23.901c-7.439 5.643-15.434 10.618-23.76 14.788z"/><path d="m255.595 74.32v29.999c4.798-.012 9.598.193 14.326.623l2.715-29.877c-5.626-.511-11.334-.758-17.041-.745z"/><path d="m305.602 81.17-8.174 28.865c8.961 2.538 17.738 5.933 26.088 10.091l13.373-26.854c-10.013-4.987-20.539-9.058-31.287-12.102z"/><path d="m270.269 407.026 2.783 29.87c11.145-1.038 22.231-3.118 32.952-6.181l-8.242-28.846c-8.942 2.555-18.192 4.29-27.493 5.157z"/></g><circle cx="256" cy="256" fill="#fa0" r="129.75"/><path d="m256 126.25c-.135 0-.27.005-.405.005v259.49c.135 0 .27.005.405.005 71.659 0 129.75-58.091 129.75-129.75s-58.091-129.75-129.75-129.75z" fill="#fe8205"/><path d="m353 313h-194v-102.701l48.5 30 48.095-59.833 48.905 59.833 48.5-30z" fill="#ffdc4a"/><path d="m353 210.299-48.5 30-48.905-59.833v132.534h97.405z" fill="#ffce00"/></svg>