<svg id="Capa_1" enable-background="new 0 0 512 512" height="512" viewBox="0 0 512 512" width="512" xmlns="http://www.w3.org/2000/svg"><circle cx="256" cy="256" fill="#00d65b" r="256"/><path d="m170.619 418.724 93.16 93.16c137.786-4.113 248.221-117.101 248.221-255.884 0-8.647-.429-17.194-1.266-25.621l-139.273-139.272z" fill="#09af4c"/><path d="m140.539 91.107v141.462l-22.726 76.696 17.267 54.126c16.788 52.624 65.683 88.348 120.92 88.348 55.237 0 104.132-35.724 120.92-88.348l17.267-54.126-22.726-76.696v-141.462l-83.807-30.847h-63.633z" fill="#555a66"/><path d="m371.461 232.569v-141.462l-83.807-30.846h-32.059v391.471c.135 0 .269.008.405.008 55.237 0 104.132-35.724 120.92-88.348l17.267-54.125z" fill="#414952"/><path d="m256 206.275c-17.617 0-32.147-14.281-31.976-31.898v-114.117h63.624v114.117c0 17.617-14.032 31.898-31.648 31.898z" fill="#333940"/><path d="m255.595 60.261v146.004c.135.002.269.01.405.01 17.616 0 31.648-14.281 31.648-31.897v-114.117z" fill="#23272b"/><path d="m256 176.163c-10.669 0-19.317-8.649-19.317-19.317v-52.27c0-10.669 8.649-19.317 19.317-19.317 10.669 0 19.317 8.649 19.317 19.317v52.27c0 10.668-8.648 19.317-19.317 19.317z" fill="#ff6c52"/><path d="m256 85.259c-.137 0-.269.018-.405.02v90.863c.136.003.268.021.405.021 10.668 0 19.317-8.648 19.317-19.317v-52.27c0-10.668-8.649-19.317-19.317-19.317z" fill="#ff432e"/><path d="m335.162 273.127v-136.365c0-21.227-17.208-38.436-38.436-38.436v151.876c0 22.493-18.234 40.727-40.727 40.727-22.493 0-40.727-18.234-40.727-40.727v-151.875c-21.227 0-38.436 17.208-38.436 38.436v136.365c0 9.832-7.97 17.802-17.802 17.802l27.123 84.086h139.683l27.123-84.086c-9.831-.001-17.801-7.971-17.801-17.803z" fill="#333940"/><path d="m352.964 290.929c-9.832 0-17.802-7.97-17.802-17.802v-136.365c0-21.228-17.208-38.436-38.436-38.436v151.876c0 22.493-18.234 40.727-40.727 40.727-.136 0-.269-.009-.405-.01v84.097h70.246z" fill="#23272b"/></svg>