<svg id="Capa_1" enable-background="new 0 0 512 512" height="512" viewBox="0 0 512 512" width="512" xmlns="http://www.w3.org/2000/svg"><circle cx="256" cy="256" fill="#00d65b" r="256"/><path d="m512 256c0-5.242-.157-10.447-.468-15.611l-118.379-118.38-274.746 267.53 121.993 121.993c5.16.31 10.362.468 15.6.468 141.385 0 256-114.615 256-256z" fill="#09af4c"/><circle cx="256" cy="256" fill="#fff" r="191.754"/><path d="m256 64.246v383.508c105.903 0 191.754-85.851 191.754-191.754s-85.851-191.754-191.754-191.754z" fill="#e9edf5"/><path d="m332 79.91c-23.305-10.072-48.998-15.664-76-15.664s-52.695 5.592-76 15.664v100.09h-100.09c-10.072 23.305-15.664 48.998-15.664 76s5.592 52.695 15.664 76h100.09v100.09c23.305 10.072 48.998 15.664 76 15.664s52.695-5.592 76-15.664v-100.09h100.09c10.072-23.305 15.664-48.998 15.664-76s-5.592-52.695-15.664-76h-100.09z" fill="#dce1eb"/><path d="m432.09 180h-100.09v-100.09c-23.305-10.072-48.998-15.664-76-15.664v383.508c27.002 0 52.695-5.592 76-15.664v-100.09h100.09c10.072-23.305 15.664-48.998 15.664-76s-5.592-52.695-15.664-76z" fill="#bec3d2"/><path d="m223.539 162.023-21.213-21.212 53.674-53.677 53.675 53.675-21.213 21.213-32.462-32.461z" fill="#9196aa"/><path d="m256 87.134v42.427l32.462 32.461 21.213-21.213z" fill="#707789"/><path d="m256 424.866-53.675-53.676 21.213-21.212 32.462 32.461 32.461-32.462 21.213 21.212z" fill="#9196aa"/><path d="m288.461 349.977-32.461 32.462v42.427l53.674-53.677z" fill="#707789"/><path d="m371.19 309.675-21.212-21.214 32.46-32.461-32.461-32.461 21.212-21.213 53.677 53.674z" fill="#707789"/><path d="m140.811 309.674-53.677-53.674 53.676-53.675 21.212 21.214-32.46 32.461 32.461 32.461z" fill="#9196aa"/></svg>