<svg id="Capa_1" enable-background="new 0 0 512 512" height="512" viewBox="0 0 512 512" width="512" xmlns="http://www.w3.org/2000/svg"><circle cx="256" cy="256" fill="#ffce00" r="256"/><path d="m512 256c0-9.83-.554-19.53-1.633-29.072l-116.45-116.45-60.334 21.473 15.815 15.815-72.347 60.595-93.515-93.515-63.304 16.994 40.292 40.292-62.193 214.069 123.829 123.582c11.072 1.462 22.368 2.217 33.84 2.217 141.385 0 256-114.615 256-256z" fill="#ffa300"/><path d="m122.392 120.225h52.01v39.401h-52.01z" fill="#555a66"/><path d="m336.593 120.225h52.01v39.401h-52.01z" fill="#333940"/><path d="m170.366 134.45h-41.927c-7.856 0-14.225-6.369-14.225-14.225 0-7.856 6.369-14.225 14.225-14.225h41.927c7.856 0 14.225 6.369 14.225 14.225 0 7.857-6.369 14.225-14.225 14.225z" fill="#414952"/><path d="m383.561 134.45h-41.927c-7.856 0-14.225-6.369-14.225-14.225 0-7.856 6.369-14.225 14.225-14.225h41.927c7.856 0 14.225 6.369 14.225 14.225 0 7.857-6.369 14.225-14.225 14.225z" fill="#23272b"/><path d="m144.985 396.147h-22.632c-18.769 0-33.984-15.215-33.984-33.984v-166.1h119.035l-28.907 171.74c-2.753 16.362-16.92 28.344-33.512 28.344z" fill="#636978"/><path d="m378.571 396.147h22.632c18.769 0 33.984-15.215 33.984-33.984v-166.1h-119.035l28.907 171.74c2.754 16.362 16.92 28.344 33.512 28.344z" fill="#414952"/><path d="m168.394 160.918h155.193v123.487h-155.193z" fill="#555a66"/><path d="m262 160.918h61.586v123.487h-61.586z" fill="#414952"/><circle cx="164.407" cy="229.381" fill="#414952" r="87.407"/><circle cx="359.149" cy="229.381" fill="#23272b" r="87.407"/><circle cx="359.149" cy="185.703" fill="#ff6c52" r="16.799"/><circle cx="359.149" cy="273.059" fill="#4a7aff" r="16.799"/><circle cx="402.827" cy="229.381" fill="#00d65b" r="16.799"/><circle cx="315.471" cy="229.381" fill="#ffce00" r="16.799"/><path d="m201.399 210.885h-18.496v-18.495c0-10.215-8.281-18.496-18.496-18.496-10.215 0-18.496 8.281-18.496 18.496v18.496h-18.496c-10.215 0-18.496 8.281-18.496 18.496 0 10.215 8.281 18.496 18.496 18.496h18.496v18.496c0 10.215 8.281 18.496 18.496 18.496 10.215 0 18.496-8.281 18.496-18.496v-18.496h18.496c10.215 0 18.496-8.281 18.496-18.496-.001-10.216-8.282-18.497-18.496-18.497z" fill="#afb4c8"/></svg>