<svg id="Capa_1" enable-background="new 0 0 512 512" height="512" viewBox="0 0 512 512" width="512" xmlns="http://www.w3.org/2000/svg"><circle cx="256" cy="256" fill="#ffce00" r="256"/><path d="m512 256c0-6.59-.249-13.121-.738-19.586l-112.016-112.016-300.135 257.358 128.71 128.71c9.254 1.014 18.656 1.534 28.179 1.534 141.385 0 256-114.615 256-256z" fill="#ffa300"/><circle cx="293.345" cy="218.466" fill="#ff6c52" r="141.655"/><path d="m435 218.466c0-78.169-63.316-141.547-141.46-141.653v283.306c78.144-.106 141.46-63.484 141.46-141.653z" fill="#ff432e"/><circle cx="201.067" cy="293.933" fill="#555a66" r="134.567"/><path d="m201.067 159.367c-.055 0-.11.002-.165.002v269.129c.055 0 .11.002.165.002 74.319 0 134.567-60.248 134.567-134.567s-60.248-134.566-134.567-134.566z" fill="#333940"/><circle cx="201.067" cy="282.011" fill="#fff" r="86.489"/><path d="m201.067 195.522c-.055 0-.11.004-.165.004v172.97c.055 0 .11.004.165.004 47.766 0 86.489-38.722 86.489-86.489s-38.723-86.489-86.489-86.489z" fill="#e9edf5"/><path d="m234.041 272.906c4.117-5.871 6.522-12.893 6.522-20.438 0-20.522-17.748-37.219-39.563-37.219s-39.563 16.696-39.563 37.219c0 7.544 2.405 14.567 6.522 20.438-8.865 8.06-14.387 19.316-14.387 31.761 0 24.446 21.276 44.333 47.428 44.333s47.428-19.887 47.428-44.333c0-12.445-5.522-23.701-14.387-31.761zm-33.041-27.656c5.184 0 9.563 3.306 9.563 7.219s-4.379 7.219-9.563 7.219-9.563-3.306-9.563-7.219 4.379-7.219 9.563-7.219zm0 73.75c-9.61 0-17.428-6.429-17.428-14.333s7.818-14.333 17.428-14.333 17.428 6.429 17.428 14.333-7.818 14.333-17.428 14.333z" fill="#555a66"/><path d="m234.041 272.906c4.117-5.871 6.522-12.893 6.522-20.438 0-20.522-17.748-37.219-39.563-37.219-.033 0-.065.002-.098.002v30.002c.033 0 .065-.004.098-.004 5.184 0 9.563 3.306 9.563 7.219s-4.379 7.219-9.563 7.219c-.033 0-.065-.004-.098-.004v.654 29.347.654c.033 0 .065-.004.098-.004 9.61 0 17.428 6.429 17.428 14.333s-7.818 14.333-17.428 14.333c-.033 0-.065-.004-.098-.004v30.002c.033 0 .065.002.098.002 26.152 0 47.428-19.887 47.428-44.333 0-12.445-5.522-23.701-14.387-31.761z" fill="#333940"/></svg>