<svg id="Capa_1" enable-background="new 0 0 512 512" height="512" viewBox="0 0 512 512" width="512" xmlns="http://www.w3.org/2000/svg"><circle cx="256" cy="256" fill="#4a7aff" r="256"/><path d="m512 256c0-20.417-2.39-40.277-6.906-59.313l-97.549-97.549-300.956 305.224 103.539 103.539c14.883 2.693 30.213 4.099 45.872 4.099 141.385 0 256-114.615 256-256z" fill="#0053bf"/><path d="m110.877 312.605h61.403v105h-61.403z" fill="#fa0" transform="matrix(.707 .707 -.707 .707 299.636 6.826)"/><path d="m99.887 360.498h105v30.831h-105z" fill="#ff9500" transform="matrix(.707 -.707 .707 .707 -221.178 217.857)"/><path d="m191.361 352.662-37.34-37.34 172.228-186.37 81.296-29.814-29.814 81.296z" fill="#e9edf5"/><path d="m172.599 333.901 18.762 18.761 186.37-172.228 29.814-81.296z" fill="#cdd2e1"/><path d="m128.477 298.971h111.469v47h-111.469z" fill="#ffce00" transform="matrix(.707 .707 -.707 .707 281.976 -35.808)"/><path d="m180.371 314.199h47v55.864h-47z" fill="#ffb600" transform="matrix(.707 -.707 .707 .707 -182.21 244.366)"/></svg>