<svg id="Capa_1" enable-background="new 0 0 512 512" height="512" viewBox="0 0 512 512" width="512" xmlns="http://www.w3.org/2000/svg"><circle cx="256" cy="256" fill="#4a7aff" r="256"/><path d="m512 256c0-10.437-.625-20.729-1.839-30.839l-144.161-144.161-168 168 103.078 103.077-187.078 65.923 88.374 88.374c17.293 3.686 35.233 5.626 53.626 5.626 141.385 0 256-114.615 256-256z" fill="#0053bf"/><path d="m262 81h104v84h-104z" fill="#fa0"/><path d="m198 138.848h84v110.152h-84z" fill="#fa0"/><path d="m175.82 334h128.359v84h-128.359z" fill="#ff8fb8"/><path d="m114 334h84v84h-84z" fill="#ff6c52"/><path d="m282 250h84v102.004h-84z" fill="#ff8fb8"/><path d="m282 334h84v84h-84z" fill="#ff6c52"/><path d="m198 81h84v84h-84z" fill="#ffce00"/></svg>