<svg id="Capa_1" enable-background="new 0 0 512 512" height="512" viewBox="0 0 512 512" width="512" xmlns="http://www.w3.org/2000/svg"><circle cx="256" cy="256" fill="#ffce00" r="256"/><path d="m512 256c0-8.167-.383-16.244-1.131-24.215l-154.785-154.785-200.168 358 75.87 75.87c7.971.748 16.048 1.13 24.215 1.13 141.384 0 255.999-114.615 255.999-256z" fill="#ffa300"/><path d="m344.012 439.41h-176.024c-10.351 0-18.742-8.391-18.742-18.742v-329.336c0-10.351 8.391-18.742 18.742-18.742h176.024c10.351 0 18.742 8.391 18.742 18.742v329.335c0 10.352-8.391 18.743-18.742 18.743z" fill="#414952"/><path d="m344.012 72.59h-88.417v366.82h88.417c10.351 0 18.742-8.392 18.742-18.742v-329.336c0-10.351-8.391-18.742-18.742-18.742z" fill="#23272b"/><path d="m170.667 98.333h170.667v315.333h-170.667z" fill="#f2f6fc"/><path d="m255.595 98.333h85.738v315.333h-85.738z" fill="#dce1eb"/><circle cx="209.181" cy="215.227" fill="#ff6c52" r="18.169"/><circle cx="256" cy="177" fill="#ff6c52" r="18.169"/><path d="m256 158.831c-.137 0-.269.018-.405.021v36.297c.136.003.268.021.405.021 10.034 0 18.169-8.135 18.169-18.169 0-10.036-8.135-18.17-18.169-18.17z" fill="#ff432e"/><circle cx="198.529" cy="136.063" fill="#ff6c52" r="18.169"/><circle cx="306.032" cy="145.725" fill="#ff432e" r="18.169"/><circle cx="274.529" cy="355.831" fill="#ff432e" r="18.169"/><path d="m209.773 374h92.453v30h-92.453z" fill="#4a7aff"/><path d="m255.595 374h46.631v30h-46.631z" fill="#0053bf"/></svg>