<svg height="512" viewBox="0 0 512 512" width="512" xmlns="http://www.w3.org/2000/svg"><path d="m472 184h-48v-40h16a32 32 0 0 1 32 32z" fill="#744630"/><path d="m440 280h-336v-104a32 32 0 0 1 32-32h304z" fill="#8f563b"/><path d="m104 240h336v32h-336z" fill="#744630"/><path d="m104 296h32v104h-32z" fill="#744630"/><path d="m368 336h56v32h-56z" fill="#5b3726"/><path d="m104 176h336v32h-336z" fill="#744630"/><path d="m176 280h-32v-152a16 16 0 0 1 16-16 16 16 0 0 1 16 16z" fill="#5d3827"/><path d="m408 280h-32v-152a16 16 0 0 1 16-16 16 16 0 0 1 16 16z" fill="#5d3827"/><path d="m408 296h32v104h-32z" fill="#744630"/><path d="m40 272a16 16 0 0 0 -16 16 16 16 0 0 0 16 16v96h32v-32h272v32h32v-128zm304 64h-272v-32h272z" fill="#8f563b"/><path d="m376 272h64a0 0 0 0 1 0 0v32a0 0 0 0 1 0 0h-64a16 16 0 0 1 -16-16 16 16 0 0 1 16-16z" fill="#aa6646"/></svg>