<svg height="512" viewBox="0 0 512 512" width="512" xmlns="http://www.w3.org/2000/svg"><path d="m443.71 352.41a78.436 78.436 0 0 0 -77.17-64.41l1.46-8h-128l-93.94-1-.6 9a78.26 78.26 0 0 0 -71.72 109.91l6.07 13.66a61.336 61.336 0 0 0 106.48 10.01l14.04-20.27 39.67-57.31 14.222-28.444 17.778 28.444 39.57 57.15 14.14 20.43a61.341 61.341 0 0 0 106.48-10.01l6.07-13.66a77.682 77.682 0 0 0 5.45-45.5z" fill="#ea9d2d"/><g fill="#da922a"><path d="m346.081 397.381-87.82-96.601 11.839-10.762 92.712 101.982z"/><path d="m328.544 261.432h16v134.225h-16z" transform="matrix(.707 -.707 .707 .707 -133.744 334.201)"/><path d="m366.878 260.722h16v116.311h-16z" transform="matrix(.707 -.707 .707 .707 -115.681 358.476)"/><path d="m158.647 405.381-11.839-10.762 96.926-106.619 2.185 21.381z"/><path d="m107.706 319.006h138.576v16h-138.576z" transform="matrix(.707 -.707 .707 .707 -179.388 220.932)"/><path d="m79.02 311.006h115.949v16h-115.949z" transform="matrix(.707 -.707 .707 .707 -185.447 190.304)"/></g><path d="m200.33 401.31-14.04 20.27a61.341 61.341 0 0 1 -106.48-10.01l-6.07-13.66a78.073 78.073 0 0 1 7.64-76.71l.12.22a152.252 152.252 0 0 0 118.5 78.58z" fill="#fbb540"/><circle cx="112" cy="400" fill="#ebebeb" r="8"/><circle cx="144" cy="416" fill="#ebebeb" r="8"/><circle cx="88" cy="376" fill="#ebebeb" r="8"/><path d="m240 256v32h-93.04a89.992 89.992 0 0 1 -84.81-59.9c-.5-1.4-.96-2.81-1.39-4.24l-4.76-15.86a109.253 109.253 0 0 1 -32-77.25v-1.39a25.353 25.353 0 0 1 37.79-22.1l90.86 51.11a158.064 158.064 0 0 1 49.82 44.1c.74.99 1.45 1.99 2.16 3l29.63 42.32z" fill="#c38325"/><path d="m272 256v32h93.04a89.992 89.992 0 0 0 84.81-59.9c.5-1.4.96-2.81 1.39-4.24l4.76-15.86a109.253 109.253 0 0 0 32-77.25v-1.39a25.353 25.353 0 0 0 -37.79-22.1l-90.86 51.11a158.064 158.064 0 0 0 -49.82 44.1c-.74.99-1.45 1.99-2.16 3l-29.63 42.32z" fill="#c38325"/><path d="m449.85 228.1c-.47 1.32-.96 2.62-1.49 3.9a88.863 88.863 0 0 1 -8.48 16 90.036 90.036 0 0 1 -74.84 40h-218.08a90.036 90.036 0 0 1 -74.84-40 88.863 88.863 0 0 1 -8.48-16c-.53-1.28-1.02-2.58-1.49-3.9a92.414 92.414 0 0 1 78.78-44.1h45.62a157.611 157.611 0 0 1 15.92 18.47c.74.99 1.45 1.99 2.16 3l29.63 42.32 5.74 8.21 3.36 1.12 12.64 4.21 13.27-4.42 2.73-.91 5.74-8.21 29.63-42.32c.71-1.01 1.42-2.01 2.16-3a157.611 157.611 0 0 1 15.92-18.47h45.62a91.5 91.5 0 0 1 12.21.81 92.453 92.453 0 0 1 66.57 43.29z" fill="#fbb540"/><circle cx="96" cy="160" fill="#ebebeb" r="8"/><circle cx="64" cy="144" fill="#ebebeb" r="8"/><circle cx="64" cy="176" fill="#ebebeb" r="8"/><path d="m232 248 10 16h-156.23a89.866 89.866 0 0 1 -13.65-16z" fill="#ea9d2d"/><path d="m176 216v16h-112.36c-.53-1.28-1.02-2.58-1.49-3.9a91.594 91.594 0 0 1 8.85-12.1z" fill="#ea9d2d"/><path d="m244 255.8-.64 1.32-3.36 6.88a137.829 137.829 0 0 1 -80.33-44.37l-30.95-34.82a91.5 91.5 0 0 1 12.21-.81h45.62a157.611 157.611 0 0 1 15.92 18.47c.74.99 1.45 1.99 2.16 3l29.63 42.32 5.74 8.21z" fill="#da922a"/><circle cx="416" cy="160" fill="#ebebeb" r="8"/><circle cx="448" cy="144" fill="#ebebeb" r="8"/><circle cx="448" cy="176" fill="#ebebeb" r="8"/><path d="m280 248-9 16h155.23a89.866 89.866 0 0 0 13.65-16z" fill="#ea9d2d"/><path d="m336 216v16h112.36c.53-1.28 1.02-2.58 1.49-3.9a91.594 91.594 0 0 0 -8.85-12.1z" fill="#ea9d2d"/><path d="m383.28 184.81-30.95 34.82a137.829 137.829 0 0 1 -80.33 44.37l-2.73-7.09-.27-.69 3-.22 5.74-8.21 29.63-42.32c.71-1.01 1.42-2.01 2.16-3a157.611 157.611 0 0 1 15.92-18.47h45.62a91.5 91.5 0 0 1 12.21.81z" fill="#da922a"/><path d="m257.106 393.19-1.106 1.66-1.106-1.66a88.672 88.672 0 0 1 -14.894-49.19v-78.111a75.779 75.779 0 0 1 8-33.889l1.253-3 13.291.342 1.456 2.658a75.779 75.779 0 0 1 8 33.889v78.111a88.672 88.672 0 0 1 -14.894 49.19z" fill="#da922a"/><path d="m263.155 211.578a115.421 115.421 0 0 1 34.233-40.831 36.8 36.8 0 0 0 14.574-25.973 8 8 0 1 0 -15.924-1.548 20.777 20.777 0 0 1 -8.192 14.678 131.538 131.538 0 0 0 -31.846 34.022 131.538 131.538 0 0 0 -31.846-34.026 20.777 20.777 0 0 1 -8.192-14.678 8 8 0 1 0 -15.924 1.548 36.8 36.8 0 0 0 14.574 25.973 115.421 115.421 0 0 1 34.233 40.831z" fill="#ea9d2d"/><rect fill="#da922a" height="32" rx="16" width="32" x="240" y="200"/><path d="m438.26 397.91-6.07 13.66a61.336 61.336 0 0 1 -106.48 10.01l-14.14-20.43.43-1.15a152.252 152.252 0 0 0 118.5-78.58l.12-.22a78.073 78.073 0 0 1 7.64 76.71z" fill="#fbb540"/><circle cx="368" cy="416" fill="#ebebeb" r="8"/><circle cx="400" cy="400" fill="#ebebeb" r="8"/><circle cx="424" cy="376" fill="#ebebeb" r="8"/></svg>