<svg height="512" viewBox="0 0 512 512" width="512" xmlns="http://www.w3.org/2000/svg"><path d="m24 24h464v464h-464z" fill="#fbd699"/><path d="m24 328h464v160h-464z" fill="#6b9777"/><path d="m24 328h184v64h-184z" fill="#bd9070"/><path d="m24 328h184v16h-184z" fill="#cd9c7a"/><path d="m24 392h176v16h-176z" fill="#55785f"/><path d="m312 384h32v104h-32z" fill="#bd9070"/><path d="m412 411.122h16v73.756h-16z" fill="#c3c3c3" transform="matrix(.651 -.759 .759 .651 -193.479 475.333)"/><path d="m383.97 440h72.06v16h-72.06z" fill="#dbdbdb" transform="matrix(.746 -.666 .666 .746 -191.677 393.638)"/><path d="m228 411.97h16v72.06h-16z" fill="#c3c3c3" transform="matrix(.666 -.746 .746 .666 -255.344 325.603)"/><path d="m199.122 440h73.756v16h-73.756z" fill="#dbdbdb" transform="matrix(.759 -.651 .651 .759 -234.732 261.421)"/><path d="m24 136h256v192h-256z" fill="#fbb540"/><path d="m160 256h120v72h-120z" fill="#e4e4e2"/><path d="m168 264h112v64h-112z" fill="#dbdbdb"/><path d="m116 312h-12a8 8 0 0 1 0-16h12a4 4 0 0 0 0-8h-12a8 8 0 0 1 0-16h12a20 20 0 0 1 0 40z" fill="#a8a8a8"/><path d="m208 256h-32v-16a16 16 0 0 1 16-16 16 16 0 0 1 16 16z" fill="#e4e4e2"/><path d="m240 256h-32v-16a16 16 0 0 1 16-16 16 16 0 0 1 16 16z" fill="#dbdbdb"/><path d="m280 184h208v144h-208z" fill="#bd9070"/><path d="m312 216h144v80h-144z" fill="#eaeae8"/><path d="m368 216-48 80h40l48-80z" fill="#f9f9f9"/><path d="m456 216v2.22l-46.67 77.78h-18.66l48-80z" fill="#f9f9f9"/><path d="m56 184a32 32 0 0 1 -32-32v-40l8-8h48l8 8v40a32 32 0 0 1 -32 32z" fill="#c38325"/><path d="m120 184a32 32 0 0 1 -32-32v-40l8-8h40l16 8v40a32 32 0 0 1 -32 32z" fill="#744630"/><path d="m184 184a32 32 0 0 1 -32-32v-40l16-8h32l16 8v40a32 32 0 0 1 -32 32z" fill="#c38325"/><path d="m248 184a32 32 0 0 1 -32-32v-40l16-8h32l16 8v40a32 32 0 0 1 -32 32z" fill="#744630"/><path d="m184 280h16v16h-16z" fill="#e06661"/><path d="m216 280h64v16h-64z" fill="#e06661"/><path d="m64 264a8 8 0 0 1 -7.589-5.472 84.43 84.43 0 0 1 0-53.06 8 8 0 0 1 15.18 5.06 68.305 68.305 0 0 0 0 42.94 8 8 0 0 1 -7.591 10.532z" fill="#fbedbf"/><path d="m92.538 232a8.18 8.18 0 0 1 -.852-.046 8 8 0 0 1 -7.113-8.8 83.943 83.943 0 0 1 3.838-17.687 8 8 0 1 1 15.178 5.06 68.032 68.032 0 0 0 -3.106 14.313 8 8 0 0 1 -7.945 7.16z" fill="#fbedbf"/><path d="m96 264a8 8 0 0 1 -7.589-5.473 84.515 84.515 0 0 1 -2.419-8.84 8 8 0 0 1 15.639-3.378 68.293 68.293 0 0 0 1.96 7.16 8.005 8.005 0 0 1 -7.591 10.531z" fill="#fbedbf"/><path d="m80 328a24 24 0 0 1 -24-24v-32h48v32a24 24 0 0 1 -24 24z" fill="#e4e4e2"/><path d="m176 248h32v8h-32z" fill="#dbdbdb"/><path d="m208 248h32v8h-32z" fill="#cbcbcb"/><path d="m312 296h144v7.956h-144z" fill="#a67e62"/><path d="m456 216h8.044v87.956h-8.044z" fill="#a67e62"/><g fill="#bd9070"><path d="m400 416v72h-16v-72a8 8 0 0 1 16 0z"/><path d="m456 416v72h-16v-72a8 8 0 0 1 16 0z"/><path d="m272 416v72h-16v-72a8 8 0 0 1 16 0z"/><path d="m216 416v72h-16v-72a8 8 0 0 1 16 0z"/></g><path d="m424 336v56h-32a16 16 0 0 0 -16 16v16h80v-88a16 16 0 0 0 -16-16 16 16 0 0 0 -16 16z" fill="#6cbae5"/><path d="m232 336v56h32a16 16 0 0 1 16 16v16h-80v-88a16 16 0 0 1 16-16 16 16 0 0 1 16 16z" fill="#6cbae5"/><path d="m312 392h32v16h-32z" fill="#a67e62"/><path d="m264 360h128v32h-128z" fill="#744630"/><path d="m264 360h128v16h-128z" fill="#8f563b"/><path d="m200 424h16v8h-16z" fill="#a67e62"/><path d="m256 424h16v8h-16z" fill="#a67e62"/><path d="m384 424h16v8h-16z" fill="#a67e62"/><path d="m440 424h16v8h-16z" fill="#a67e62"/><rect fill="#d3b481" height="80" rx="32" width="144" x="312" y="80"/><path d="m344 24h16v56h-16z" fill="#d18d28"/><path d="m408 24h16v56h-16z" fill="#d18d28"/><rect fill="#ea9d2d" height="80" rx="32" width="144" x="312" y="72"/><path d="m336 104h16v16h-16z" fill="#fbb540"/><path d="m400 104h32v16h-32z" fill="#fbb540"/><path d="m368 104h16v16h-16z" fill="#fbb540"/><path d="m88 112h-64l16-32h64z" fill="#f3af3e"/><path d="m152 80h56l8 32h-64z" fill="#f3af3e"/><path d="m104 80-16 32h64v-32z" fill="#8f563b"/><path d="m208 80 8 32h64l-16-32z" fill="#8f563b"/></svg>