<svg height="512" viewBox="0 0 512 512" width="512" xmlns="http://www.w3.org/2000/svg"><path d="m304 64a55.823 55.823 0 0 0 -40 16.861v-16.861a8 8 0 0 0 -16 0v16.861a55.964 55.964 0 0 0 -96 39.139v8a8 8 0 0 0 16 0v-8a40 40 0 0 1 80 0v88a8 8 0 0 0 16 0v-88a40 40 0 0 1 80 0v8a8 8 0 0 0 16 0v-8a56.063 56.063 0 0 0 -56-56z" fill="#6cbae5"/><path d="m208 96a24.028 24.028 0 0 0 -24 24v8a8 8 0 0 0 16 0v-8a8 8 0 0 1 16 0v40a8 8 0 0 0 16 0v-40a24.028 24.028 0 0 0 -24-24z" fill="#61a7cd"/><path d="m304 96a24.028 24.028 0 0 0 -24 24v40a8 8 0 0 0 16 0v-40a8 8 0 0 1 16 0v8a8 8 0 0 0 16 0v-8a24.028 24.028 0 0 0 -24-24z" fill="#61a7cd"/><path d="m256 40a8 8 0 0 0 8-8v-8a8 8 0 0 0 -16 0v8a8 8 0 0 0 8 8z" fill="#61a7cd"/><path d="m160 152a8 8 0 0 0 -8 8v8a8 8 0 0 0 16 0v-8a8 8 0 0 0 -8-8z" fill="#6cbae5"/><path d="m192 152a8 8 0 0 0 -8 8v16a8 8 0 0 0 16 0v-16a8 8 0 0 0 -8-8z" fill="#6cbae5"/><path d="m320 152a8 8 0 0 0 -8 8v16a8 8 0 0 0 16 0v-16a8 8 0 0 0 -8-8z" fill="#6cbae5"/><path d="m352 152a8 8 0 0 0 -8 8v8a8 8 0 0 0 16 0v-8a8 8 0 0 0 -8-8z" fill="#6cbae5"/><path d="m160 192a8 8 0 0 0 -8 8v16a8 8 0 0 0 16 0v-16a8 8 0 0 0 -8-8z" fill="#61a7cd"/><path d="m352 192a8 8 0 0 0 -8 8v16a8 8 0 0 0 16 0v-16a8 8 0 0 0 -8-8z" fill="#61a7cd"/><path d="m296 232a40 40 0 0 1 -80 0 40.571 40.571 0 0 1 .8-8 40.01 40.01 0 0 1 78.4 0 40.571 40.571 0 0 1 .8 8z" fill="#99d8aa"/><path d="m295.2 224a40.01 40.01 0 0 1 -78.4 0 40.571 40.571 0 0 0 -.8 8 40 40 0 0 0 80 0 40.571 40.571 0 0 0 -.8-8z" fill="#8dc79d"/><path d="m278.4 360 2.72-6.79a50.644 50.644 0 0 0 1.02-34.79l-2.14-6.42v-16l7.03-7.03a57.939 57.939 0 0 0 16.97-40.97h-96a57.939 57.939 0 0 0 16.97 40.97l7.03 7.03v16l-2.14 6.42a50.644 50.644 0 0 0 1.02 34.79l2.72 6.79 6.4 16h-32v40h96v-40h-32z" fill="#aae5c8"/><path d="m208 392h96v16h-96z" fill="#99d8aa"/><g fill="#6cbae5"><path d="m184 304.292a8 8 0 0 1 -.572-15.979c2.85-.208 5.736-.313 8.576-.313a8 8 0 0 1 0 16c-2.453 0-4.947.091-7.414.271-.201.014-.399.021-.59.021z"/><path d="m76.06 378.3a8 8 0 0 1 -7.122-11.633 137.457 137.457 0 0 1 7.307-12.618 8 8 0 1 1 13.4 8.736 121.584 121.584 0 0 0 -6.455 11.144 8 8 0 0 1 -7.13 4.371zm27.122-36.277a8 8 0 0 1 -5.552-13.761c3.466-3.34 7.134-6.552 10.9-9.547a8 8 0 1 1 9.959 12.523c-3.371 2.681-6.654 5.556-9.757 8.545a7.969 7.969 0 0 1 -5.55 2.235zm37.178-25.88a8 8 0 0 1 -3.453-15.222 139.294 139.294 0 0 1 13.454-5.582 8 8 0 0 1 5.34 15.082 123 123 0 0 0 -11.9 4.939 7.974 7.974 0 0 1 -3.441.778z"/><path d="m64.008 416a8.01 8.01 0 0 1 -7.83-9.678l1.676-7.822a8 8 0 1 1 15.646 3.354l-1.676 7.822a8 8 0 0 1 -7.816 6.324z"/><path d="m328 304.292c-.195 0-.393-.007-.59-.021-2.467-.18-4.961-.271-7.414-.271a8 8 0 0 1 0-16c2.84 0 5.726.105 8.576.313a8 8 0 0 1 -.572 15.979z"/><path d="m435.941 378.3a8 8 0 0 1 -7.134-4.371 121.584 121.584 0 0 0 -6.455-11.144 8 8 0 0 1 13.4-8.736 137.216 137.216 0 0 1 7.306 12.618 8 8 0 0 1 -7.121 11.633zm-27.123-36.277a7.969 7.969 0 0 1 -5.549-2.24c-3.1-2.989-6.386-5.864-9.757-8.545a8 8 0 1 1 9.959-12.523c3.765 3 7.433 6.207 10.9 9.547a8 8 0 0 1 -5.552 13.761zm-37.178-25.88a7.977 7.977 0 0 1 -3.442-.783 123 123 0 0 0 -11.9-4.939 8 8 0 0 1 5.34-15.082 139.294 139.294 0 0 1 13.454 5.582 8 8 0 0 1 -3.453 15.222z"/><path d="m447.992 416a8 8 0 0 1 -7.814-6.326l-1.676-7.822a8 8 0 1 1 15.644-3.352l1.676 7.822a8.01 8.01 0 0 1 -7.83 9.678z"/><path d="m91.282 396.165a8 8 0 0 1 -4.712-14.471l12.939-9.411a8 8 0 0 1 9.412 12.94l-12.94 9.411a7.966 7.966 0 0 1 -4.699 1.531zm43.81-29.745a8 8 0 0 1 -3.841-15.024c4.849-2.647 9.855-5.133 14.881-7.391a8 8 0 1 1 6.556 14.594c-4.649 2.089-9.283 4.391-13.769 6.84a7.963 7.963 0 0 1 -3.827.981zm49.237-19.179a8 8 0 0 1 -1.916-15.767c5.351-1.325 10.825-2.457 16.272-3.365a8 8 0 0 1 2.63 15.782c-5.04.84-10.106 1.888-15.058 3.114a8 8 0 0 1 -1.928.236z"/><path d="m420.718 396.165a7.964 7.964 0 0 1 -4.7-1.531l-12.94-9.411a8 8 0 0 1 9.412-12.94l12.939 9.411a8 8 0 0 1 -4.712 14.471zm-43.81-29.745a7.963 7.963 0 0 1 -3.827-.981c-4.486-2.449-9.12-4.751-13.769-6.84a8 8 0 1 1 6.556-14.594c5.026 2.258 10.032 4.744 14.881 7.391a8 8 0 0 1 -3.841 15.024zm-49.237-19.179a8.008 8.008 0 0 1 -1.928-.236c-4.952-1.226-10.018-2.274-15.058-3.114a8 8 0 1 1 2.63-15.782c5.447.908 10.921 2.04 16.272 3.365a8 8 0 0 1 -1.916 15.767z"/></g><path d="m488 408a79.668 79.668 0 0 1 -3.67 24 78.453 78.453 0 0 1 -7.04 16 80.031 80.031 0 0 1 -69.29 40h-304a79.959 79.959 0 0 1 -69.29-40 78.453 78.453 0 0 1 -7.04-16 79.668 79.668 0 0 1 -3.67-24z" fill="#aae5c8"/><path d="m104 432v16h-69.29a78.453 78.453 0 0 1 -7.04-16z" fill="#99d8aa"/><path d="m136 432h16v16h-16z" fill="#99d8aa"/><path d="m484.33 432a78.453 78.453 0 0 1 -7.04 16h-293.29v-16z" fill="#99d8aa"/><path d="m232 296h48v16h-48z" fill="#99d8aa"/><path d="m278.4 360-6.4 16h-32l-6.4-16z" fill="#99d8aa"/></svg>