<svg height="512" viewBox="0 0 512 512" width="512" xmlns="http://www.w3.org/2000/svg"><path d="m408 400v32l40 24h16v-56z" fill="#6cbae5"/><path d="m408 408h56v16h-56z" fill="#4799cf"/><path d="m320 80h168v176h-168z" fill="#ebebeb"/><circle cx="120" cy="144" fill="#ea9d2d" r="16"/><circle cx="152" cy="136" fill="#fbb540" r="24"/><circle cx="216" cy="144" fill="#ea9d2d" r="16"/><circle cx="248" cy="136" fill="#fbb540" r="24"/><path d="m168 152-8 64v8h-48v-8l-8-64z" fill="#f55648"/><path d="m128 152h16v64h-16z" fill="#f9f9f9"/><path d="m264 152-8 64v8h-48v-8l-8-64z" fill="#f55648"/><path d="m288 251-192-1v-34h192z" fill="#6cbae5"/><path d="m63.029 116.8a8 8 0 0 1 -5.657-13.657l4.321-4.321a36.744 36.744 0 0 1 37.807-8.922 8 8 0 1 1 -5.061 15.179 20.83 20.83 0 0 0 -21.433 5.06l-4.32 4.321a7.978 7.978 0 0 1 -5.657 2.34z" fill="#fbedbf"/><path d="m248 101.023h-.154a8 8 0 0 1 -7.846-8.151 20.826 20.826 0 0 0 -11.221-18.949l-5.413-2.837a8 8 0 1 1 7.426-14.172l5.408 2.836a36.742 36.742 0 0 1 19.793 33.425 8 8 0 0 1 -7.993 7.848z" fill="#fbedbf"/><path d="m120 88a8 8 0 0 1 -8-8v-6.111a36.742 36.742 0 0 1 20.422-33.044 8 8 0 0 1 7.156 14.31 20.832 20.832 0 0 0 -11.578 18.734v6.111a8 8 0 0 1 -8 8z" fill="#fbedbf"/><path d="m96.977 307.961a7.993 7.993 0 0 1 -6.407-3.2l-30.57-40.761h-4a8 8 0 0 1 0-16h8a8 8 0 0 1 6.4 3.2l32.971 43.961a8 8 0 0 1 -6.394 12.8z" fill="#c3c3c3"/><path d="m88 248h400v160h-400z" fill="#dc4d41"/><path d="m432 376h-288a24 24 0 0 0 -24-24v-48a24 24 0 0 0 24-24h288a24 24 0 0 0 24 24v48a24 24 0 0 0 -24 24z" fill="#b94137"/><circle cx="464" cy="464" fill="#878787" r="24"/><path d="m224 152h16v64h-16z" fill="#f9f9f9"/><path d="m376 88h48v40h-48z" fill="#a8a8a8"/><path d="m440 144a8 8 0 0 1 0-16 16.019 16.019 0 0 0 16-16v-32a8 8 0 0 1 16 0v32a32.036 32.036 0 0 1 -32 32z" fill="#a8a8a8"/><path d="m360 120h80a0 0 0 0 1 0 0v32a16 16 0 0 1 -16 16h-48a16 16 0 0 1 -16-16v-32a0 0 0 0 1 0 0z" fill="#c3c3c3"/><path d="m488 222.111a24 24 0 0 0 -32.076.071 23.989 23.989 0 0 0 -41.969-14 16 16 0 0 0 -28.724 1.657 24 24 0 0 0 -28.284 7.569 19.989 19.989 0 0 0 -36.547 6.592l-.4 24h168z" fill="#fbb540"/><circle cx="432" cy="224" fill="#ea9d2d" r="8"/><circle cx="376" cy="232" fill="#ea9d2d" r="8"/><path d="m96 232h192v16h-192z" fill="#4799cf"/><circle cx="40" cy="256" fill="#bd9070" r="16"/><g fill="#dc4d41"><circle cx="400" cy="328" r="16"/><path d="m280 304h40v16h-40z"/><path d="m336 304h24v16h-24z"/><path d="m312 336h48v16h-48z"/></g><circle cx="212.564" cy="64" fill="#fbb540" r="16"/><circle cx="48" cy="120" fill="#fbb540" r="16"/><circle cx="144" cy="40" fill="#fbb540" r="16"/><path d="m312 24h184v64h-184z" fill="#dc4d41"/><path d="m336 48h136v16h-136z" fill="#b94137"/><path d="m271.5 392.25h-44.436l31.421-31.421-8.442-14.186-34.293 34.293v-52.936h-16v52.936l-34.343-34.343-12.085 10.542 35.114 35.115h-45.436v16h45.436l-31.421 31.421 11.314 11.314 31.421-31.421v44.436h16v-44.436l31.421 31.421 11.314-11.314-31.421-31.421h44.436z" fill="#bd9070"/><circle cx="209" cy="399" fill="#c3c3c3" r="16"/><path d="m207 310a89 89 0 1 0 89 89 89 89 0 0 0 -89-89zm0 152.5a63.5 63.5 0 1 1 63.5-63.5 63.5 63.5 0 0 1 -63.5 63.5z" fill="#878787"/><circle cx="464" cy="464" fill="#c3c3c3" r="13.5"/><path d="m376 88h48v16h-48z" fill="#878787"/><path d="m456 88h16v16h-16z" fill="#878787"/></svg>