<svg height="512" viewBox="0 0 512 512" width="512" xmlns="http://www.w3.org/2000/svg"><path d="m272 328 32 32-8 96h32l20.655-89.5a32 32 0 0 0 -5.58-26.4l-15.075-20.1z" fill="#fdc9a6"/><path d="m296 456h40a16 16 0 0 1 16 16v16a0 0 0 0 1 0 0h-56a0 0 0 0 1 0 0v-32a0 0 0 0 1 0 0z" fill="#85bc94"/><path d="m232 288-24 80-72 24 16 32 67.54-20.262a32 32 0 0 0 18.778-15.11l33.682-60.628z" fill="#f6bb92"/><path d="m104 400 32-8 16 32v8a32 32 0 0 1 -32 32z" fill="#85bc94"/><path d="m213.713 343.085 42.287 16.915 16-32-39.188-42.447z" fill="#3775a4"/><path d="m383.994 368a8 8 0 0 1 -7.149-11.58 16.8 16.8 0 0 0 -3.151-19.414l-3.351-3.352a8 8 0 1 1 11.314-11.312l3.351 3.351a32.775 32.775 0 0 1 6.147 37.883 8 8 0 0 1 -7.161 4.424z" fill="#c0f5f9"/><path d="m136 368a8 8 0 0 1 -2.529-15.591l24-8a8 8 0 1 1 5.06 15.178l-24 8a7.992 7.992 0 0 1 -2.531.413z" fill="#c0f5f9"/><path d="m298.67 424h36.72l-7.39 32h-32z" fill="#f55648"/><path d="m136 392 16 32 31.43-9.43-13.55-33.86z" fill="#f55648"/><path d="m328 320-56 8-40-40v-25h72v25z" fill="#428dc5"/><path d="m328 56h-56v-4a28 28 0 0 1 28-28 28 28 0 0 1 28 28z" fill="#85bc94"/><path d="m328 112h-32l-24-16v-40h56z" fill="#fdc9a6"/><path d="m204 176 20-16v104h88v-68.931a154.888 154.888 0 0 0 -4.625-37.569l-3.375-13.5h-16l-24-24h-48l-40 32z" fill="#f3af3e"/><g fill="#fdc9a6"><path d="m176 152-24 24-8 88 24 16 16-16-8-24 8-48 20-16z"/><path d="m312 112-8 32h-16l-24-24 8-24 24 16z"/><path d="m312 192 32-16v-16l24-8 8 24-8 16-56 40z"/></g><path d="m256 184h56v32h-56z" fill="#eaeae8"/><path d="m120 184a8 8 0 0 1 -8-8 46.32 46.32 0 0 1 13.657-32.971l4.686-4.686a8 8 0 0 1 11.314 11.314l-4.686 4.686a30.425 30.425 0 0 0 -8.971 21.657 8 8 0 0 1 -8 8z" fill="#c0f5f9"/><path d="m296 56a23.428 23.428 0 0 1 -16.543 30.136l-7.457 1.864v-32z" fill="#8f563b"/><path d="m352 64h-80a8 8 0 0 1 0-16h80a8 8 0 0 1 0 16z" fill="#5e8569"/><path d="m312 112-2 8h-22l-16-24 16 16z" fill="#cd9c7a"/></svg>