<svg height="512" viewBox="0 0 512 512" width="512" xmlns="http://www.w3.org/2000/svg"><path d="m402.623 183.441 23.526-4.747-4.658-23.083c-1.7-8.445 3.319-17.021 11.674-19.121a16 16 0 0 1 19.6 12.348l7.912 39.21a16 16 0 0 1 -12.515 18.852l-2.342 4.359-31.789 6.326-5.078-2.773a16 16 0 0 1 -18.853-12.522 16 16 0 0 1 12.523-18.849z" fill="#ea9d2d"/><path d="m105.289 243.442-23.525 4.748-4.658-23.082c-1.711-8.476-9.719-14.438-18.259-13.085-9.047 1.433-14.975 10.077-13.847 19.177l7.908 39.19a16 16 0 0 0 18.872 12.51l4.22 3.144 34.316-5.507 1.3-5.727a16 16 0 0 0 12.519-18.849 16 16 0 0 0 -18.846-12.519z" fill="#ea9d2d"/><path d="m158.663 273.317a8 8 0 0 1 -7.834-6.42l-9.5-47.051c-.874-4.331 1.929-7.55 6.26-8.424s8.55.928 9.424 5.26l9.5 47.051a8.009 8.009 0 0 1 -7.85 9.584z" fill="#c3c3c3"/><path d="m361.893 232.306a8 8 0 0 1 -7.833-6.42l-9.5-47.052c-.874-4.33 1.929-7.55 6.26-8.424s8.55.928 9.424 5.26l9.5 47.052a8 8 0 0 1 -6.259 9.424 8.1 8.1 0 0 1 -1.592.16z" fill="#c3c3c3"/><path d="m39.121 244.56h448v32h-448z" fill="#cd9c7a" transform="matrix(.98 -.198 .198 .98 -46.342 57.197)"/><path d="m312 326.553-112-1v-58.06a56 56 0 0 1 56-56 56 56 0 0 1 56 56z" fill="#6cbae5"/><circle cx="256" cy="261.271" fill="#428dc5" r="16"/><path d="m184 320.553h144v31.447h-144z" fill="#428dc5"/><g fill="#eaeae8"><path d="m133.484 229.431a8 8 0 0 1 -1.574-15.844l31.367-6.33a8 8 0 1 1 3.165 15.683l-31.367 6.331a8.1 8.1 0 0 1 -1.591.16z"/><path d="m336.714 188.419a8 8 0 0 1 -1.574-15.844l31.368-6.33a8 8 0 0 1 3.165 15.684l-31.368 6.33a8.093 8.093 0 0 1 -1.591.16z"/></g></svg>