<?xml version="1.0" encoding="iso-8859-1"?>
<!-- Generator: Adobe Illustrator 19.0.0, SVG Export Plug-In . SVG Version: 6.00 Build 0)  -->
<svg version="1.1" id="Layer_1" xmlns="http://www.w3.org/2000/svg" xmlns:xlink="http://www.w3.org/1999/xlink" x="0px" y="0px"
	 viewBox="0 0 512 512" style="enable-background:new 0 0 512 512;" xml:space="preserve">
<g transform="translate(0 -1)">
	<path style="fill:#2F3744;" d="M128,466.067H8.533c0-18.85,15.283-34.133,34.133-34.133h51.2
		C112.717,431.933,128,447.217,128,466.067"/>
	<path style="fill:#464F5D;" d="M51.2,99.133v332.8h34.133v-332.8c0-12.109,17.527-25.6,42.667-25.6s42.667,13.491,42.667,25.6
		H204.8c0-33.493-42.266-59.733-85.333-59.733c-8.559,0-17.792,1.502-26.786,4.036C67.951,50.399,51.2,73.448,51.2,99.133"/>
	<polygon style="fill:#2F3744;" points="247.467,167.4 128,167.4 170.667,99.133 204.8,99.133 	"/>
	<path style="fill:#F3D55B;" d="M153.6,167.4c0,18.85,15.283,34.133,34.133,34.133s34.133-15.283,34.133-34.133H153.6z"/>
	<g>
		<path style="fill:#464F5D;" d="M247.467,372.2c-23.526,0-42.667,19.14-42.667,42.667c0,23.526,19.14,42.667,42.667,42.667
			s42.667-19.14,42.667-42.667C290.133,391.34,270.993,372.2,247.467,372.2 M247.467,474.6c-32.93,0-59.733-26.803-59.733-59.733
			c0-32.93,26.803-59.733,59.733-59.733s59.733,26.803,59.733,59.733C307.2,447.797,280.397,474.6,247.467,474.6"/>
		<path style="fill:#464F5D;" d="M435.2,372.2c-23.526,0-42.667,19.14-42.667,42.667c0,23.526,19.14,42.667,42.667,42.667
			s42.667-19.14,42.667-42.667C477.867,391.34,458.726,372.2,435.2,372.2 M435.2,474.6c-32.93,0-59.733-26.803-59.733-59.733
			c0-32.93,26.803-59.733,59.733-59.733s59.733,26.803,59.733,59.733C494.933,447.797,468.13,474.6,435.2,474.6"/>
		<path style="fill:#464F5D;" d="M247.458,423.4c-1.382,0-2.782-0.333-4.079-1.041c-4.139-2.261-5.666-7.441-3.405-11.58
			l51.2-93.867c2.261-4.139,7.458-5.658,11.571-3.405c4.147,2.261,5.675,7.441,3.413,11.58l-51.2,93.867
			C253.406,421.796,250.479,423.4,247.458,423.4"/>
		<path style="fill:#464F5D;" d="M341.333,423.4h-93.867c-4.719,0-8.533-3.814-8.533-8.533c0-4.719,3.814-8.533,8.533-8.533h93.867
			c4.719,0,8.533,3.814,8.533,8.533C349.867,419.586,346.052,423.4,341.333,423.4"/>
		<path style="fill:#464F5D;" d="M341.342,423.4c-3.251,0-6.349-1.86-7.774-5.001l-42.667-93.867
			c-1.954-4.292-0.06-9.353,4.233-11.298c4.326-1.98,9.361-0.051,11.298,4.233l42.667,93.867c1.954,4.292,0.06,9.353-4.233,11.298
			C343.714,423.161,342.519,423.4,341.342,423.4"/>
		<path style="fill:#464F5D;" d="M435.2,423.4c-3.482,0-6.758-2.15-8.013-5.615l-34.133-93.867
			c-1.621-4.437,0.674-9.327,5.094-10.931c4.446-1.613,9.327,0.666,10.931,5.094l34.133,93.867
			c1.621,4.437-0.674,9.327-5.094,10.931C437.154,423.229,436.164,423.4,435.2,423.4"/>
		<path style="fill:#464F5D;" d="M401.067,329.533h-102.4c-4.719,0-8.533-3.814-8.533-8.533c0-4.719,3.814-8.533,8.533-8.533h102.4
			c4.719,0,8.533,3.814,8.533,8.533C409.6,325.719,405.786,329.533,401.067,329.533"/>
		<path style="fill:#464F5D;" d="M401.067,329.533c-4.719,0-8.533-3.814-8.533-8.533c0-18.825-15.309-34.133-34.133-34.133
			c-4.719,0-8.533-3.814-8.533-8.533s3.814-8.533,8.533-8.533c28.237,0,51.2,22.963,51.2,51.2
			C409.6,325.719,405.786,329.533,401.067,329.533"/>
		<path style="fill:#464F5D;" d="M298.675,329.533c-2.756,0-5.47-1.331-7.108-3.797l-17.067-25.6
			c-2.62-3.925-1.562-9.216,2.364-11.836c3.925-2.62,9.216-1.562,11.836,2.364l17.067,25.6c2.62,3.925,1.562,9.216-2.364,11.836
			C301.943,329.064,300.297,329.533,298.675,329.533"/>
		<path style="fill:#464F5D;" d="M307.2,303.933h-42.667c-4.719,0-8.533-3.814-8.533-8.533s3.814-8.533,8.533-8.533H307.2
			c4.719,0,8.533,3.814,8.533,8.533S311.919,303.933,307.2,303.933"/>
		<path style="fill:#464F5D;" d="M341.325,423.4c-1.57,0-3.149-0.435-4.574-1.331c-3.977-2.534-5.154-7.808-2.62-11.785
			l59.733-93.867c2.534-3.968,7.799-5.129,11.785-2.62c3.977,2.534,5.154,7.808,2.62,11.785l-59.733,93.867
			C346.906,422.001,344.141,423.4,341.325,423.4"/>
		<path style="fill:#464F5D;" d="M341.333,423.4h-93.867c-4.719,0-8.533-3.814-8.533-8.533c0-4.719,3.814-8.533,8.533-8.533h89.182
			l57.216-89.916c2.534-3.968,7.799-5.129,11.785-2.62c3.977,2.534,5.154,7.808,2.62,11.785l-59.733,93.867
			C346.965,421.907,344.252,423.4,341.333,423.4"/>
	</g>
	<path style="fill:#95A5A5;" d="M503.467,474.6H8.533C3.814,474.6,0,470.786,0,466.067c0-4.719,3.814-8.533,8.533-8.533h494.933
		c4.719,0,8.533,3.814,8.533,8.533C512,470.786,508.186,474.6,503.467,474.6"/>
</g>
<g>
</g>
<g>
</g>
<g>
</g>
<g>
</g>
<g>
</g>
<g>
</g>
<g>
</g>
<g>
</g>
<g>
</g>
<g>
</g>
<g>
</g>
<g>
</g>
<g>
</g>
<g>
</g>
<g>
</g>
</svg>
