<?xml version="1.0" encoding="iso-8859-1"?>
<!-- Generator: Adobe Illustrator 19.0.0, SVG Export Plug-In . SVG Version: 6.00 Build 0)  -->
<svg version="1.1" id="Layer_1" xmlns="http://www.w3.org/2000/svg" xmlns:xlink="http://www.w3.org/1999/xlink" x="0px" y="0px"
	 viewBox="0 0 512 512" style="enable-background:new 0 0 512 512;" xml:space="preserve">
<g transform="translate(0 -1)">
	<g>
		<path style="fill:#7F8C8D;" d="M110.933,376.459H93.867c0-52.634,75.998-93.867,162.133-93.867v17.067
			C180.719,299.659,110.933,334.117,110.933,376.459"/>
		<path style="fill:#7F8C8D;" d="M418.133,376.459h-17.067c0-42.342-69.786-76.8-145.067-76.8v-17.067
			C342.135,282.593,418.133,323.826,418.133,376.459"/>
	</g>
	<g>
		<path style="fill:#BDC3C7;" d="M469.333,427.668h-68.267V52.201c0-18.85,15.283-34.133,34.133-34.133s34.133,15.283,34.133,34.133
			V427.668z"/>
		<path style="fill:#BDC3C7;" d="M110.933,427.668H42.667V52.201c0-18.85,15.283-34.133,34.133-34.133s34.133,15.283,34.133,34.133
			V427.668z"/>
	</g>
	<path style="fill:#7F8C8D;" d="M503.467,239.935H8.533c-4.719,0-8.533-3.823-8.533-8.533s3.814-8.533,8.533-8.533h494.933
		c4.719,0,8.533,3.823,8.533,8.533S508.186,239.935,503.467,239.935"/>
	<polygon style="fill:#BDC3C7;" points="375.467,495.932 494.933,495.932 494.933,461.799 375.467,461.799 	"/>
	<polygon style="fill:#7F8C8D;" points="392.533,461.799 477.867,461.799 477.867,427.665 392.533,427.665 	"/>
	<g>
		<path style="fill:#4482C3;" d="M179.2,436.201c-14.114,0-25.6-11.486-25.6-25.6c0-4.71,3.814-8.533,8.533-8.533
			c4.719,0,8.533,3.823,8.533,8.533c0,4.702,3.823,8.533,8.533,8.533s8.533-3.831,8.533-8.533c0-4.71,3.814-8.533,8.533-8.533
			s8.533,3.823,8.533,8.533C204.8,424.715,193.314,436.201,179.2,436.201"/>
		<path style="fill:#4482C3;" d="M332.8,436.201c-14.114,0-25.6-11.486-25.6-25.6c0-4.71,3.814-8.533,8.533-8.533
			c4.719,0,8.533,3.823,8.533,8.533c0,4.702,3.823,8.533,8.533,8.533s8.533-3.831,8.533-8.533c0-4.71,3.814-8.533,8.533-8.533
			c4.719,0,8.533,3.823,8.533,8.533C358.4,424.715,346.914,436.201,332.8,436.201"/>
		<path style="fill:#4482C3;" d="M256,478.868c-14.114,0-25.6-11.486-25.6-25.6c0-4.71,3.814-8.533,8.533-8.533
			c4.719,0,8.533,3.823,8.533,8.533c0,4.702,3.823,8.533,8.533,8.533c4.71,0,8.533-3.831,8.533-8.533
			c0-4.71,3.814-8.533,8.533-8.533s8.533,3.823,8.533,8.533C281.6,467.382,270.114,478.868,256,478.868"/>
	</g>
	<g>
		<polygon style="fill:#7F8C8D;" points="247.467,291.124 264.533,291.124 264.533,232.73 247.467,232.73 		"/>
		<polygon style="fill:#7F8C8D;" points="213.333,291.124 230.4,291.124 230.4,232.73 213.333,232.73 		"/>
		<polygon style="fill:#7F8C8D;" points="179.2,299.665 196.267,299.665 196.267,231.399 179.2,231.399 		"/>
		<polygon style="fill:#7F8C8D;" points="145.067,316.732 162.133,316.732 162.133,231.399 145.067,231.399 		"/>
		<polygon style="fill:#7F8C8D;" points="281.6,291.124 298.667,291.124 298.667,232.73 281.6,232.73 		"/>
		<polygon style="fill:#7F8C8D;" points="315.733,299.665 332.8,299.665 332.8,231.399 315.733,231.399 		"/>
		<polygon style="fill:#7F8C8D;" points="349.867,316.732 366.933,316.732 366.933,231.399 349.867,231.399 		"/>
		<polygon style="fill:#7F8C8D;" points="110.933,111.932 401.067,111.932 401.067,77.799 110.933,77.799 		"/>
	</g>
	<polygon style="fill:#BDC3C7;" points="17.067,495.932 136.533,495.932 136.533,461.799 17.067,461.799 	"/>
	<polygon style="fill:#7F8C8D;" points="34.133,461.799 119.467,461.799 119.467,427.665 34.133,427.665 	"/>
</g>
<g>
</g>
<g>
</g>
<g>
</g>
<g>
</g>
<g>
</g>
<g>
</g>
<g>
</g>
<g>
</g>
<g>
</g>
<g>
</g>
<g>
</g>
<g>
</g>
<g>
</g>
<g>
</g>
<g>
</g>
</svg>
