<?xml version="1.0" encoding="iso-8859-1"?>
<!-- Generator: Adobe Illustrator 19.0.0, SVG Export Plug-In . SVG Version: 6.00 Build 0)  -->
<svg version="1.1" id="Layer_1" xmlns="http://www.w3.org/2000/svg" xmlns:xlink="http://www.w3.org/1999/xlink" x="0px" y="0px"
	 viewBox="0 0 512 512" style="enable-background:new 0 0 512 512;" xml:space="preserve">
<g transform="translate(0 -1)">
	<g>
		<path style="fill:#BDC3C7;" d="M423.724,159.905H88.276c-4.882,0-8.828-3.955-8.828-8.828c0-4.873,3.946-8.828,8.828-8.828
			h335.448c4.882,0,8.828,3.955,8.828,8.828C432.552,155.951,428.606,159.905,423.724,159.905"/>
		<path style="fill:#BDC3C7;" d="M123.586,248.181c-4.882,0-8.828-3.955-8.828-8.828v-88.276c0-4.873,3.946-8.828,8.828-8.828
			s8.828,3.955,8.828,8.828v88.276C132.414,244.226,128.468,248.181,123.586,248.181"/>
		<path style="fill:#BDC3C7;" d="M167.724,248.181c-4.882,0-8.828-3.955-8.828-8.828v-88.276c0-4.873,3.946-8.828,8.828-8.828
			s8.828,3.955,8.828,8.828v88.276C176.552,244.226,172.606,248.181,167.724,248.181"/>
		<path style="fill:#BDC3C7;" d="M211.862,248.181c-4.882,0-8.828-3.955-8.828-8.828v-88.276c0-4.873,3.946-8.828,8.828-8.828
			c4.882,0,8.828,3.955,8.828,8.828v88.276C220.69,244.226,216.744,248.181,211.862,248.181"/>
		<path style="fill:#BDC3C7;" d="M256,248.181c-4.882,0-8.828-3.955-8.828-8.828v-88.276c0-4.873,3.946-8.828,8.828-8.828
			s8.828,3.955,8.828,8.828v88.276C264.828,244.226,260.882,248.181,256,248.181"/>
		<path style="fill:#BDC3C7;" d="M300.138,248.181c-4.882,0-8.828-3.955-8.828-8.828v-88.276c0-4.873,3.946-8.828,8.828-8.828
			c4.882,0,8.828,3.955,8.828,8.828v88.276C308.966,244.226,305.02,248.181,300.138,248.181"/>
		<path style="fill:#BDC3C7;" d="M344.276,248.181c-4.882,0-8.828-3.955-8.828-8.828v-88.276c0-4.873,3.946-8.828,8.828-8.828
			c4.882,0,8.828,3.955,8.828,8.828v88.276C353.103,244.226,349.158,248.181,344.276,248.181"/>
		<path style="fill:#BDC3C7;" d="M388.414,248.181c-4.882,0-8.828-3.955-8.828-8.828v-88.276c0-4.873,3.946-8.828,8.828-8.828
			c4.882,0,8.828,3.955,8.828,8.828v88.276C397.241,244.226,393.295,248.181,388.414,248.181"/>
	</g>
	<path style="fill:#7F8C8D;" d="M256,239.355H8.828v194.198c0-48.79,40.642-88.267,123.586-88.267S256,384.763,256,433.553
		c0-48.79,40.642-88.267,123.586-88.267s123.586,39.477,123.586,88.267V239.355H256z"/>
	<g>
		<polygon style="fill:#C03A2B;" points="17.655,239.351 70.621,239.351 70.621,168.73 17.655,168.73 		"/>
		<polygon style="fill:#C03A2B;" points="70.621,133.424 17.655,133.424 35.31,62.803 52.966,62.803 		"/>
	</g>
	<g>
		<polygon style="fill:#9E2C23;" points="0,168.73 88.276,168.73 88.276,133.42 0,133.42 		"/>
		<path style="fill:#9E2C23;" d="M70.621,45.138c0,14.627-11.855,26.483-26.483,26.483S17.655,59.765,17.655,45.138
			s11.855-26.483,26.483-26.483S70.621,30.511,70.621,45.138"/>
	</g>
	<g>
		<polygon style="fill:#C03A2B;" points="441.379,239.351 494.345,239.351 494.345,168.73 441.379,168.73 		"/>
		<polygon style="fill:#C03A2B;" points="494.345,133.424 441.379,133.424 459.034,62.803 476.69,62.803 		"/>
	</g>
	<g>
		<polygon style="fill:#9E2C23;" points="423.724,168.73 512,168.73 512,133.42 423.724,133.42 		"/>
		<path style="fill:#9E2C23;" d="M494.345,45.138c0,14.627-11.855,26.483-26.483,26.483s-26.483-11.855-26.483-26.483
			s11.855-26.483,26.483-26.483S494.345,30.511,494.345,45.138"/>
	</g>
	<g>
		<path style="fill:#BDC3C7;" d="M256,442.379c-4.882,0-8.828-3.955-8.828-8.828v-192.75c0-4.873,3.946-8.828,8.828-8.828
			s8.828,3.955,8.828,8.828v192.75C264.828,438.425,260.882,442.379,256,442.379"/>
		<path style="fill:#BDC3C7;" d="M70.621,283.483H52.966c-4.882,0-8.828-3.955-8.828-8.828s3.946-8.828,8.828-8.828h17.655
			c4.882,0,8.828,3.955,8.828,8.828S75.502,283.483,70.621,283.483"/>
		<path style="fill:#BDC3C7;" d="M211.862,283.483h-17.655c-4.882,0-8.828-3.955-8.828-8.828s3.946-8.828,8.828-8.828h17.655
			c4.882,0,8.828,3.955,8.828,8.828S216.744,283.483,211.862,283.483"/>
		<path style="fill:#BDC3C7;" d="M141.241,309.966h-17.655c-4.882,0-8.828-3.955-8.828-8.828c0-4.873,3.946-8.828,8.828-8.828
			h17.655c4.882,0,8.828,3.955,8.828,8.828C150.069,306.011,146.123,309.966,141.241,309.966"/>
		<path style="fill:#BDC3C7;" d="M317.793,283.483h-17.655c-4.882,0-8.828-3.955-8.828-8.828s3.946-8.828,8.828-8.828h17.655
			c4.882,0,8.828,3.955,8.828,8.828S322.675,283.483,317.793,283.483"/>
		<path style="fill:#BDC3C7;" d="M459.034,283.483h-17.655c-4.882,0-8.828-3.955-8.828-8.828s3.946-8.828,8.828-8.828h17.655
			c4.882,0,8.828,3.955,8.828,8.828S463.916,283.483,459.034,283.483"/>
		<path style="fill:#BDC3C7;" d="M388.414,309.966h-17.655c-4.882,0-8.828-3.955-8.828-8.828c0-4.873,3.946-8.828,8.828-8.828
			h17.655c4.882,0,8.828,3.955,8.828,8.828C397.241,306.011,393.295,309.966,388.414,309.966"/>
	</g>
	<g>
		<path style="fill:#4482C3;" d="M61.793,495.345c-14.601,0-26.483-11.882-26.483-26.483c0-4.873,3.946-8.828,8.828-8.828
			s8.828,3.955,8.828,8.828c0,4.864,3.955,8.828,8.828,8.828s8.828-3.964,8.828-8.828c0-4.873,3.946-8.828,8.828-8.828
			c4.882,0,8.828,3.955,8.828,8.828C88.276,483.463,76.394,495.345,61.793,495.345"/>
		<path style="fill:#4482C3;" d="M203.034,495.345c-14.601,0-26.483-11.882-26.483-26.483c0-4.873,3.946-8.828,8.828-8.828
			c4.882,0,8.828,3.955,8.828,8.828c0,4.864,3.955,8.828,8.828,8.828c4.873,0,8.828-3.964,8.828-8.828
			c0-4.873,3.946-8.828,8.828-8.828s8.828,3.955,8.828,8.828C229.517,483.463,217.635,495.345,203.034,495.345"/>
		<path style="fill:#4482C3;" d="M132.414,451.207c-14.601,0-26.483-11.882-26.483-26.483c0-4.873,3.946-8.828,8.828-8.828
			s8.828,3.955,8.828,8.828c0,4.864,3.955,8.828,8.828,8.828c4.873,0,8.828-3.964,8.828-8.828c0-4.873,3.946-8.828,8.828-8.828
			s8.828,3.955,8.828,8.828C158.897,439.325,147.015,451.207,132.414,451.207"/>
		<path style="fill:#4482C3;" d="M308.966,495.345c-14.601,0-26.483-11.882-26.483-26.483c0-4.873,3.946-8.828,8.828-8.828
			c4.882,0,8.828,3.955,8.828,8.828c0,4.864,3.955,8.828,8.828,8.828s8.828-3.964,8.828-8.828c0-4.873,3.946-8.828,8.828-8.828
			c4.882,0,8.828,3.955,8.828,8.828C335.448,483.463,323.566,495.345,308.966,495.345"/>
		<path style="fill:#4482C3;" d="M450.207,495.345c-14.601,0-26.483-11.882-26.483-26.483c0-4.873,3.946-8.828,8.828-8.828
			c4.882,0,8.828,3.955,8.828,8.828c0,4.864,3.955,8.828,8.828,8.828c4.873,0,8.828-3.964,8.828-8.828
			c0-4.873,3.946-8.828,8.828-8.828c4.882,0,8.828,3.955,8.828,8.828C476.69,483.463,464.808,495.345,450.207,495.345"/>
		<path style="fill:#4482C3;" d="M379.586,451.207c-14.601,0-26.483-11.882-26.483-26.483c0-4.873,3.946-8.828,8.828-8.828
			c4.882,0,8.828,3.955,8.828,8.828c0,4.864,3.955,8.828,8.828,8.828s8.828-3.964,8.828-8.828c0-4.873,3.946-8.828,8.828-8.828
			c4.882,0,8.828,3.955,8.828,8.828C406.069,439.325,394.187,451.207,379.586,451.207"/>
	</g>
</g>
<g>
</g>
<g>
</g>
<g>
</g>
<g>
</g>
<g>
</g>
<g>
</g>
<g>
</g>
<g>
</g>
<g>
</g>
<g>
</g>
<g>
</g>
<g>
</g>
<g>
</g>
<g>
</g>
<g>
</g>
</svg>
