<?xml version="1.0" encoding="iso-8859-1"?>
<!-- Generator: Adobe Illustrator 19.0.0, SVG Export Plug-In . SVG Version: 6.00 Build 0)  -->
<svg version="1.1" id="Layer_1" xmlns="http://www.w3.org/2000/svg" xmlns:xlink="http://www.w3.org/1999/xlink" x="0px" y="0px"
	 viewBox="0 0 512 512" style="enable-background:new 0 0 512 512;" xml:space="preserve">
<g transform="translate(0 -1)">
	<g>
		<path style="fill:#E64C3C;" d="M25.591,316.733c-4.71,0-8.533-3.823-8.533-8.533c0-4.71,3.823-8.533,8.533-8.533
			c88.764,0,196.804-148.557,197.879-150.05c2.756-3.814,8.098-4.693,11.913-1.946c3.823,2.756,4.693,8.09,1.937,11.913
			C232.704,166.001,123.068,316.733,25.591,316.733"/>
		<polygon style="fill:#E64C3C;" points="187.733,316.731 204.8,316.731 204.8,197.264 187.733,197.264 		"/>
		<polygon style="fill:#E64C3C;" points="145.067,316.731 162.133,316.731 162.133,239.931 145.067,239.931 		"/>
		<path style="fill:#E64C3C;" d="M486.409,316.733c-97.476,0-207.113-150.733-211.729-157.15c-2.756-3.823-1.886-9.156,1.937-11.913
			c3.823-2.748,9.156-1.877,11.913,1.946c1.075,1.493,109.116,150.05,197.879,150.05c4.71,0,8.533,3.823,8.533,8.533
			C494.942,312.91,491.119,316.733,486.409,316.733"/>
		<polygon style="fill:#E64C3C;" points="349.867,316.731 366.933,316.731 366.933,239.931 349.867,239.931 		"/>
	</g>
	<path style="fill:#C03A2B;" d="M281.6,308.2h-51.2V120.467c0-14.14,11.46-25.6,25.6-25.6c14.14,0,25.6,11.46,25.6,25.6V308.2z"/>
	<polygon style="fill:#BDC3C7;" points="42.667,393.531 76.8,393.531 76.8,308.197 42.667,308.197 	"/>
	<path style="fill:#7F8C8D;" d="M93.867,419.133H25.6C25.6,400.283,40.883,385,59.733,385l0,0
		C78.583,385,93.867,400.283,93.867,419.133"/>
	<polygon style="fill:#BDC3C7;" points="435.2,393.531 469.333,393.531 469.333,308.197 435.2,308.197 	"/>
	<path style="fill:#7F8C8D;" d="M486.4,419.133h-68.267c0-18.85,15.283-34.133,34.133-34.133S486.4,400.283,486.4,419.133"/>
	<g>
		<polygon style="fill:#E64C3C;" points="307.2,316.731 324.267,316.731 324.267,197.264 307.2,197.264 		"/>
		<path style="fill:#E64C3C;" d="M503.467,316.733H8.533C3.823,316.733,0,312.91,0,308.2c0-4.71,3.823-8.533,8.533-8.533h494.933
			c4.71,0,8.533,3.823,8.533,8.533C512,312.91,508.177,316.733,503.467,316.733"/>
	</g>
</g>
<g>
</g>
<g>
</g>
<g>
</g>
<g>
</g>
<g>
</g>
<g>
</g>
<g>
</g>
<g>
</g>
<g>
</g>
<g>
</g>
<g>
</g>
<g>
</g>
<g>
</g>
<g>
</g>
<g>
</g>
</svg>
