<?xml version="1.0" encoding="iso-8859-1"?>
<!-- Generator: Adobe Illustrator 19.0.0, SVG Export Plug-In . SVG Version: 6.00 Build 0)  -->
<svg version="1.1" id="Layer_1" xmlns="http://www.w3.org/2000/svg" xmlns:xlink="http://www.w3.org/1999/xlink" x="0px" y="0px"
	 viewBox="0 0 512 512" style="enable-background:new 0 0 512 512;" xml:space="preserve">
<g transform="translate(0 -1)">
	<polygon style="fill:#BDC3C7;" points="42.667,342.331 76.8,342.331 76.8,256.997 42.667,256.997 	"/>
	<path style="fill:#7F8C8D;" d="M93.867,367.933H25.6c0-18.85,15.283-34.133,34.133-34.133S93.867,349.083,93.867,367.933"/>
	<polygon style="fill:#BDC3C7;" points="435.2,342.331 469.333,342.331 469.333,256.997 435.2,256.997 	"/>
	<path style="fill:#7F8C8D;" d="M486.4,367.933h-68.267c0-18.85,15.283-34.133,34.133-34.133S486.4,349.083,486.4,367.933"/>
	<g>
		<path style="fill:#E64C3C;" d="M102.4,265.533c-4.71,0-8.533-3.823-8.533-8.533c0-47.053-38.281-85.333-85.333-85.333
			c-4.71,0-8.533-3.823-8.533-8.533c0-4.71,3.823-8.533,8.533-8.533c56.465,0,102.4,45.935,102.4,102.4
			C110.933,261.71,107.11,265.533,102.4,265.533"/>
		<path style="fill:#E64C3C;" d="M409.6,265.533c-4.71,0-8.533-3.823-8.533-8.533c0-51.755-65.075-93.867-145.067-93.867
			S110.933,205.245,110.933,257c0,4.71-3.823,8.533-8.533,8.533c-4.71,0-8.533-3.823-8.533-8.533
			c0-61.167,72.73-110.933,162.133-110.933S418.133,195.833,418.133,257C418.133,261.71,414.31,265.533,409.6,265.533"/>
		<path style="fill:#E64C3C;" d="M409.6,265.533c-4.71,0-8.533-3.823-8.533-8.533c0-56.465,45.935-102.4,102.4-102.4
			c4.71,0,8.533,3.823,8.533,8.533c0,4.71-3.823,8.533-8.533,8.533c-47.053,0-85.333,38.281-85.333,85.333
			C418.133,261.71,414.31,265.533,409.6,265.533"/>
		<polygon style="fill:#E64C3C;" points="0,256.997 17.067,256.997 17.067,163.131 0,163.131 		"/>
		<polygon style="fill:#E64C3C;" points="42.667,256.997 59.733,256.997 59.733,171.664 42.667,171.664 		"/>
		<polygon style="fill:#E64C3C;" points="494.933,256.997 512,256.997 512,163.131 494.933,163.131 		"/>
		<polygon style="fill:#E64C3C;" points="452.267,256.997 469.333,256.997 469.333,171.664 452.267,171.664 		"/>
		<polygon style="fill:#E64C3C;" points="247.467,256.997 264.533,256.997 264.533,154.597 247.467,154.597 		"/>
		<polygon style="fill:#E64C3C;" points="281.6,256.997 298.667,256.997 298.667,154.597 281.6,154.597 		"/>
		<polygon style="fill:#E64C3C;" points="315.733,256.997 332.8,256.997 332.8,163.131 315.733,163.131 		"/>
		<polygon style="fill:#E64C3C;" points="179.2,256.997 196.267,256.997 196.267,163.131 179.2,163.131 		"/>
		<polygon style="fill:#E64C3C;" points="213.333,256.997 230.4,256.997 230.4,154.597 213.333,154.597 		"/>
		<polygon style="fill:#E64C3C;" points="349.867,256.997 366.933,256.997 366.933,180.197 349.867,180.197 		"/>
		<polygon style="fill:#E64C3C;" points="145.067,256.997 162.133,256.997 162.133,180.197 145.067,180.197 		"/>
	</g>
	<path style="fill:#C03A2B;" d="M503.467,265.533H8.533C3.823,265.533,0,261.71,0,257c0-4.71,3.823-8.533,8.533-8.533h494.933
		c4.71,0,8.533,3.823,8.533,8.533C512,261.71,508.177,265.533,503.467,265.533"/>
</g>
<g>
</g>
<g>
</g>
<g>
</g>
<g>
</g>
<g>
</g>
<g>
</g>
<g>
</g>
<g>
</g>
<g>
</g>
<g>
</g>
<g>
</g>
<g>
</g>
<g>
</g>
<g>
</g>
<g>
</g>
</svg>
