<?xml version="1.0" encoding="iso-8859-1"?>
<!-- Generator: Adobe Illustrator 19.0.0, SVG Export Plug-In . SVG Version: 6.00 Build 0)  -->
<svg version="1.1" id="Layer_1" xmlns="http://www.w3.org/2000/svg" xmlns:xlink="http://www.w3.org/1999/xlink" x="0px" y="0px"
	 viewBox="0 0 512 512" style="enable-background:new 0 0 512 512;" xml:space="preserve">
<g transform="translate(0 -1)">
	<path style="fill:#C03A2B;" d="M370.759,513H141.241c-9.754,0-17.655-7.901-17.655-17.655s7.901-17.655,17.655-17.655h229.517
		c9.754,0,17.655,7.901,17.655,17.655S380.513,513,370.759,513"/>
	<g>
		<path style="fill:#9E2D25;" d="M353.103,477.69H158.897c-9.754,0-17.655-7.901-17.655-17.655c0-9.754,7.901-17.655,17.655-17.655
			h194.207c9.754,0,17.655,7.901,17.655,17.655C370.759,469.789,362.858,477.69,353.103,477.69"/>
		<path style="fill:#9E2D25;" d="M353.103,301.138H158.897c-9.754,0-17.655-7.901-17.655-17.655c0-9.754,7.901-17.655,17.655-17.655
			h194.207c9.754,0,17.655,7.901,17.655,17.655C370.759,293.237,362.858,301.138,353.103,301.138"/>
		<path style="fill:#9E2D25;" d="M353.103,124.586H158.897c-9.754,0-17.655-7.901-17.655-17.655s7.901-17.655,17.655-17.655h194.207
			c9.754,0,17.655,7.901,17.655,17.655S362.858,124.586,353.103,124.586"/>
	</g>
	<g>
		<polygon style="fill:#C03A2B;" points="167.724,442.377 344.276,442.377 344.276,301.135 167.724,301.135 		"/>
		<polygon style="fill:#C03A2B;" points="167.724,265.825 344.276,265.825 344.276,124.584 167.724,124.584 		"/>
		<path style="fill:#C03A2B;" d="M256,1c-48.755,0-88.276,39.521-88.276,88.276h176.552C344.276,40.521,304.755,1,256,1"/>
	</g>
	<g>
		<path style="fill:#9E2D25;" d="M291.31,195.207c0,19.5-15.81,35.31-35.31,35.31s-35.31-15.81-35.31-35.31s15.81-35.31,35.31-35.31
			S291.31,175.707,291.31,195.207"/>
		<polygon style="fill:#9E2D25;" points="114.759,221.687 167.724,221.687 167.724,168.721 114.759,168.721 		"/>
	</g>
	<path style="fill:#C03A2B;" d="M107.907,239.345H68.642c-3.778,0-6.85-3.072-6.85-6.85v-74.575c0-3.778,3.072-6.85,6.85-6.85
		h39.265c3.787,0,6.85,3.072,6.85,6.85v74.575C114.757,236.273,111.694,239.345,107.907,239.345"/>
	<polygon style="fill:#9E2D25;" points="344.276,221.687 397.241,221.687 397.241,168.721 344.276,168.721 	"/>
	<path style="fill:#C03A2B;" d="M404.093,239.345h39.265c3.778,0,6.85-3.072,6.85-6.85v-74.575c0-3.778-3.072-6.85-6.85-6.85
		h-39.265c-3.787,0-6.85,3.072-6.85,6.85v74.575C397.243,236.273,400.306,239.345,404.093,239.345"/>
	<g>
		<path style="fill:#9E2D25;" d="M211.862,407.069c-4.882,0-8.828-3.946-8.828-8.828v-52.966c0-4.882,3.946-8.828,8.828-8.828
			c4.882,0,8.828,3.946,8.828,8.828v52.966C220.69,403.123,216.744,407.069,211.862,407.069"/>
		<path style="fill:#9E2D25;" d="M256,407.069c-4.882,0-8.828-3.946-8.828-8.828v-52.966c0-4.882,3.946-8.828,8.828-8.828
			s8.828,3.946,8.828,8.828v52.966C264.828,403.123,260.882,407.069,256,407.069"/>
		<path style="fill:#9E2D25;" d="M300.138,407.069c-4.882,0-8.828-3.946-8.828-8.828v-52.966c0-4.882,3.946-8.828,8.828-8.828
			s8.828,3.946,8.828,8.828v52.966C308.966,403.123,305.02,407.069,300.138,407.069"/>
	</g>
</g>
<g>
</g>
<g>
</g>
<g>
</g>
<g>
</g>
<g>
</g>
<g>
</g>
<g>
</g>
<g>
</g>
<g>
</g>
<g>
</g>
<g>
</g>
<g>
</g>
<g>
</g>
<g>
</g>
<g>
</g>
</svg>
