<?xml version="1.0" encoding="iso-8859-1"?>
<!-- Generator: Adobe Illustrator 19.0.0, SVG Export Plug-In . SVG Version: 6.00 Build 0)  -->
<svg version="1.1" id="Layer_1" xmlns="http://www.w3.org/2000/svg" xmlns:xlink="http://www.w3.org/1999/xlink" x="0px" y="0px"
	 viewBox="0 0 512 512" style="enable-background:new 0 0 512 512;" xml:space="preserve">
<g transform="translate(0 -1)">
	<path style="fill:#4482C3;" d="M483.531,513H28.469C12.747,513,0,500.253,0,484.531V29.469C0,13.747,12.747,1,28.469,1h455.062
		C499.253,1,512,13.747,512,29.469v455.062C512,500.253,499.253,513,483.531,513"/>
	<path style="fill:#FFFFFF;" d="M52.966,431.565V82.434c0-15.722,12.747-28.469,28.469-28.469h349.131
		c15.722,0,28.469,12.747,28.469,28.469v349.131c0,15.722-12.747,28.469-28.469,28.469H81.435
		C65.713,460.034,52.966,447.287,52.966,431.565"/>
	<g>
		<path style="fill:#4482C3;" d="M220.691,407.069c-4.882,0-8.828-3.946-8.828-8.828V124.586c0-4.882,3.946-8.828,8.828-8.828
			s8.828,3.946,8.828,8.828v273.655C229.518,403.123,225.572,407.069,220.691,407.069"/>
		<path style="fill:#4482C3;" d="M256.001,309.966h-35.31c-4.882,0-8.828-3.946-8.828-8.828s3.946-8.828,8.828-8.828h35.31
			c43.811,0,79.448-35.637,79.448-79.448s-35.637-79.448-79.448-79.448h-35.31c-4.882,0-8.828-3.946-8.828-8.828
			s3.946-8.828,8.828-8.828h35.31c53.539,0,97.103,43.564,97.103,97.103S309.54,309.966,256.001,309.966"/>
	</g>
</g>
<g>
</g>
<g>
</g>
<g>
</g>
<g>
</g>
<g>
</g>
<g>
</g>
<g>
</g>
<g>
</g>
<g>
</g>
<g>
</g>
<g>
</g>
<g>
</g>
<g>
</g>
<g>
</g>
<g>
</g>
</svg>
