<?xml version="1.0" encoding="iso-8859-1"?>
<!-- Generator: Adobe Illustrator 19.0.0, SVG Export Plug-In . SVG Version: 6.00 Build 0)  -->
<svg version="1.1" id="Layer_1" xmlns="http://www.w3.org/2000/svg" xmlns:xlink="http://www.w3.org/1999/xlink" x="0px" y="0px"
	 viewBox="0 0 512.003 512.003" style="enable-background:new 0 0 512.003 512.003;" xml:space="preserve">
<g transform="translate(0 -1)">
	<polygon style="fill:#464F5D;" points="238.346,442.379 273.656,442.379 273.656,283.483 238.346,283.483 	"/>
	<polygon style="fill:#4482C3;" points="114.76,283.483 397.243,283.483 397.243,1 114.76,1 	"/>
	<path style="fill:#FFFFFF;" d="M346.622,191.21c-6.453-12.2-30.252-26.147-30.252-26.147c-5.385-3.063-11.882-3.407-14.954,2.066
		c0,0-7.733,9.269-9.702,10.602c-8.986,6.091-17.302,5.853-25.706-2.542l-19.527-19.527l-19.527-19.527
		c-8.395-8.404-8.633-16.719-2.542-25.706c1.333-1.969,10.602-9.702,10.602-9.702c5.473-3.072,5.129-9.569,2.057-14.954
		c0,0-13.948-23.799-26.138-30.252c-5.191-2.745-11.555-1.783-15.713,2.366l-8.616,8.625
		c-27.357,27.348-13.886,58.227,13.462,85.575l24.991,25l25,24.991c27.348,27.348,58.227,40.819,85.575,13.462l8.625-8.616
		C348.405,202.765,349.367,196.4,346.622,191.21"/>
	<path style="fill:#464F5D;" d="M317.794,513.003H194.208v-30.067c0-2.895,2.348-5.244,5.244-5.244h113.099
		c2.895,0,5.244,2.348,5.244,5.244V513.003z"/>
	<path style="fill:#2F3744;" d="M300.139,477.692h-88.276v-30.067c0-2.895,2.348-5.244,5.244-5.244h77.789
		c2.895,0,5.244,2.348,5.244,5.244V477.692z"/>
</g>
<g>
</g>
<g>
</g>
<g>
</g>
<g>
</g>
<g>
</g>
<g>
</g>
<g>
</g>
<g>
</g>
<g>
</g>
<g>
</g>
<g>
</g>
<g>
</g>
<g>
</g>
<g>
</g>
<g>
</g>
</svg>
