<?xml version="1.0" encoding="iso-8859-1"?>
<!-- Generator: Adobe Illustrator 19.0.0, SVG Export Plug-In . SVG Version: 6.00 Build 0)  -->
<svg version="1.1" id="Layer_1" xmlns="http://www.w3.org/2000/svg" xmlns:xlink="http://www.w3.org/1999/xlink" x="0px" y="0px"
	 viewBox="0 0 511.997 511.997" style="enable-background:new 0 0 511.997 511.997;" xml:space="preserve">
<g transform="translate(0 -1)">
	<g>
		<polygon style="fill:#464F5D;" points="255.999,80.448 370.757,80.448 370.757,1 141.24,1 141.24,80.448 		"/>
		<polygon style="fill:#464F5D;" points="370.757,398.241 370.757,115.759 255.999,115.759 141.24,115.759 141.24,398.241 		"/>
		<polygon style="fill:#464F5D;" points="141.24,512.997 370.757,512.997 370.757,433.549 141.24,433.549 		"/>
	</g>
	<g>
		<path style="fill:#ECF0F1;" d="M414.895,115.759H97.102v-35.31h317.793c9.754,0,17.655,7.901,17.655,17.655l0,0
			C432.55,107.858,424.65,115.759,414.895,115.759"/>
		<path style="fill:#ECF0F1;" d="M97.102,433.552h317.793v-35.31H97.102c-9.754,0-17.655,7.901-17.655,17.655l0,0
			C79.447,425.651,87.348,433.552,97.102,433.552"/>
	</g>
	<g>
		<polygon style="fill:#95A5A5;" points="44.137,133.411 97.102,133.411 97.102,62.79 44.137,62.79 		"/>
		<polygon style="fill:#95A5A5;" points="414.895,451.204 467.861,451.204 467.861,380.584 414.895,380.584 		"/>
		<path style="fill:#95A5A5;" d="M476.688,212.862H35.309c-4.873,0-8.828-3.946-8.828-8.828c0-4.882,3.955-8.828,8.828-8.828
			h441.379c4.882,0,8.828,3.946,8.828,8.828C485.516,208.916,481.57,212.862,476.688,212.862"/>
		<path style="fill:#95A5A5;" d="M476.688,318.793H35.309c-4.873,0-8.828-3.946-8.828-8.828s3.955-8.828,8.828-8.828h441.379
			c4.882,0,8.828,3.946,8.828,8.828S481.57,318.793,476.688,318.793"/>
		<path style="fill:#95A5A5;" d="M70.619,336.448c-4.873,0-8.828-3.946-8.828-8.828V186.379c0-4.882,3.955-8.828,8.828-8.828
			s8.828,3.946,8.828,8.828v141.241C79.447,332.502,75.492,336.448,70.619,336.448"/>
		<path style="fill:#95A5A5;" d="M105.93,336.448c-4.873,0-8.828-3.946-8.828-8.828V186.379c0-4.882,3.955-8.828,8.828-8.828
			c4.873,0,8.828,3.946,8.828,8.828v141.241C114.757,332.502,110.803,336.448,105.93,336.448"/>
		<path style="fill:#95A5A5;" d="M406.068,336.448c-4.873,0-8.828-3.946-8.828-8.828V186.379c0-4.882,3.955-8.828,8.828-8.828
			c4.882,0,8.828,3.946,8.828,8.828v141.241C414.895,332.502,410.949,336.448,406.068,336.448"/>
		<path style="fill:#95A5A5;" d="M441.378,336.448c-4.882,0-8.828-3.946-8.828-8.828V186.379c0-4.882,3.946-8.828,8.828-8.828
			c4.882,0,8.828,3.946,8.828,8.828v141.241C450.206,332.502,446.26,336.448,441.378,336.448"/>
		<path style="fill:#95A5A5;" d="M176.55,336.448c-4.873,0-8.828-3.946-8.828-8.828V186.379c0-4.882,3.955-8.828,8.828-8.828
			c4.873,0,8.828,3.946,8.828,8.828v141.241C185.378,332.502,181.423,336.448,176.55,336.448"/>
		<path style="fill:#95A5A5;" d="M211.861,336.448c-4.873,0-8.828-3.946-8.828-8.828V186.379c0-4.882,3.955-8.828,8.828-8.828
			s8.828,3.946,8.828,8.828v141.241C220.688,332.502,216.734,336.448,211.861,336.448"/>
		<path style="fill:#95A5A5;" d="M255.999,336.448c-4.873,0-8.828-3.946-8.828-8.828V186.379c0-4.882,3.955-8.828,8.828-8.828
			c4.873,0,8.828,3.946,8.828,8.828v141.241C264.826,332.502,260.872,336.448,255.999,336.448"/>
		<path style="fill:#95A5A5;" d="M300.137,336.448c-4.873,0-8.828-3.946-8.828-8.828V186.379c0-4.882,3.955-8.828,8.828-8.828
			c4.873,0,8.828,3.946,8.828,8.828v141.241C308.964,332.502,305.009,336.448,300.137,336.448"/>
		<path style="fill:#95A5A5;" d="M335.447,336.448c-4.873,0-8.828-3.946-8.828-8.828V186.379c0-4.882,3.955-8.828,8.828-8.828
			s8.828,3.946,8.828,8.828v141.241C344.275,332.502,340.32,336.448,335.447,336.448"/>
	</g>
	<g>
		<path style="fill:#C03A2B;" d="M380.516,111.81c-0.636,1.271-0.847,2.613-0.847,3.946h18.617L413.964,84.4
			c0.636-1.28,0.847-2.622,0.847-3.955h-18.617L380.516,111.81z"/>
		<path style="fill:#C03A2B;" d="M336.378,111.81c-0.636,1.271-0.847,2.613-0.847,3.946h18.617L369.826,84.4
			c0.636-1.28,0.847-2.622,0.847-3.955h-18.617L336.378,111.81z"/>
		<path style="fill:#C03A2B;" d="M292.24,111.81c-0.636,1.271-0.847,2.613-0.847,3.946h18.617L325.688,84.4
			c0.636-1.28,0.847-2.622,0.847-3.955h-18.617L292.24,111.81z"/>
		<path style="fill:#C03A2B;" d="M248.102,111.81c-0.636,1.271-0.847,2.613-0.847,3.946h18.617L281.55,84.4
			c0.636-1.28,0.847-2.622,0.847-3.955H263.78L248.102,111.81z"/>
		<path style="fill:#C03A2B;" d="M203.964,111.81c-0.636,1.271-0.847,2.613-0.847,3.946h18.617L237.412,84.4
			c0.636-1.28,0.847-2.622,0.847-3.955h-18.617L203.964,111.81z"/>
		<path style="fill:#C03A2B;" d="M159.827,111.81c-0.636,1.271-0.847,2.613-0.847,3.946h18.617L193.274,84.4
			c0.636-1.28,0.847-2.622,0.847-3.955h-18.617L159.827,111.81z"/>
		<path style="fill:#C03A2B;" d="M115.689,111.81c-0.636,1.271-0.847,2.613-0.847,3.946h18.617L149.136,84.4
			c0.636-1.28,0.847-2.622,0.847-3.955h-18.617L115.689,111.81z"/>
		<path style="fill:#C03A2B;" d="M98.033,402.189l15.678,31.364h18.617c0-1.333-0.212-2.675-0.847-3.955l-15.678-31.356H97.186
			C97.186,399.576,97.398,400.918,98.033,402.189"/>
		<path style="fill:#C03A2B;" d="M142.171,402.189l15.678,31.364h18.617c0-1.333-0.212-2.675-0.847-3.955l-15.678-31.356h-18.617
			C141.324,399.576,141.536,400.918,142.171,402.189"/>
		<path style="fill:#C03A2B;" d="M186.309,402.189l15.678,31.364h18.617c0-1.333-0.212-2.675-0.847-3.955l-15.678-31.356h-18.617
			C185.462,399.576,185.674,400.918,186.309,402.189"/>
		<path style="fill:#C03A2B;" d="M230.447,402.189l15.678,31.364h18.617c0-1.333-0.212-2.675-0.847-3.955l-15.678-31.356H229.6
			C229.6,399.576,229.812,400.918,230.447,402.189"/>
		<path style="fill:#C03A2B;" d="M274.585,402.189l15.678,31.364h18.617c0-1.333-0.212-2.675-0.847-3.955l-15.678-31.356h-18.617
			C273.738,399.576,273.95,400.918,274.585,402.189"/>
		<path style="fill:#C03A2B;" d="M318.723,402.189l15.678,31.364h18.617c0-1.333-0.212-2.675-0.847-3.955l-15.678-31.356h-18.617
			C317.876,399.576,318.088,400.918,318.723,402.189"/>
		<path style="fill:#C03A2B;" d="M362.861,402.189l15.678,31.364h18.617c0-1.333-0.212-2.675-0.847-3.955l-15.678-31.356h-18.617
			C362.014,399.576,362.225,400.918,362.861,402.189"/>
	</g>
</g>
<g>
</g>
<g>
</g>
<g>
</g>
<g>
</g>
<g>
</g>
<g>
</g>
<g>
</g>
<g>
</g>
<g>
</g>
<g>
</g>
<g>
</g>
<g>
</g>
<g>
</g>
<g>
</g>
<g>
</g>
</svg>
