<?xml version="1.0" encoding="iso-8859-1"?>
<!-- Generator: Adobe Illustrator 19.0.0, SVG Export Plug-In . SVG Version: 6.00 Build 0)  -->
<svg version="1.1" id="Layer_1" xmlns="http://www.w3.org/2000/svg" xmlns:xlink="http://www.w3.org/1999/xlink" x="0px" y="0px"
	 viewBox="0 0 512 512" style="enable-background:new 0 0 512 512;" xml:space="preserve">
<g transform="translate(0 -1)">
	<path style="fill:#46656D;" d="M317.793,513H194.207c0-19.5,15.81-35.31,35.31-35.31h52.966
		C301.983,477.69,317.793,493.5,317.793,513"/>
	<path style="fill:#F3D55B;" d="M176.552,142.241c0,24.373-19.765,44.138-44.138,44.138s-44.138-19.765-44.138-44.138
		s19.765-44.138,44.138-44.138S176.552,117.868,176.552,142.241"/>
	<path style="fill:#46656D;" d="M132.414,98.103c9.869,0,18.891,3.354,26.244,8.828h0.238l-8.828-44.138h-35.31l-8.828,44.138h0.238
		C113.523,101.458,122.545,98.103,132.414,98.103"/>
	<path style="fill:#F3D55B;" d="M335.448,142.241c0,24.373,19.765,44.138,44.138,44.138c24.373,0,44.138-19.765,44.138-44.138
		s-19.765-44.138-44.138-44.138C355.213,98.103,335.448,117.868,335.448,142.241"/>
	<path style="fill:#547580;" d="M317.793,1C292.564,1,270.451,9.713,256,23.554C241.549,9.713,219.436,1,194.207,1
		c-44.553,0-79.448,27.145-79.448,61.793h35.31c0-12.526,18.132-26.483,44.138-26.483s44.138,13.956,44.138,26.483V477.69h35.31
		V62.793c0-12.526,18.132-26.483,44.138-26.483c26.006,0,44.138,13.956,44.138,26.483h35.31C397.241,28.145,362.346,1,317.793,1"/>
	<path style="fill:#46656D;" d="M379.586,98.103c-9.869,0-18.891,3.354-26.244,8.828h-0.238l8.828-44.138h35.31l8.828,44.138h-0.238
		C398.477,101.458,389.455,98.103,379.586,98.103"/>
</g>
<g>
</g>
<g>
</g>
<g>
</g>
<g>
</g>
<g>
</g>
<g>
</g>
<g>
</g>
<g>
</g>
<g>
</g>
<g>
</g>
<g>
</g>
<g>
</g>
<g>
</g>
<g>
</g>
<g>
</g>
</svg>
