<?xml version="1.0" encoding="iso-8859-1"?>
<!-- Generator: Adobe Illustrator 19.0.0, SVG Export Plug-In . SVG Version: 6.00 Build 0)  -->
<svg version="1.1" id="Layer_1" xmlns="http://www.w3.org/2000/svg" xmlns:xlink="http://www.w3.org/1999/xlink" x="0px" y="0px"
	 viewBox="0 0 512.003 512.003" style="enable-background:new 0 0 512.003 512.003;" xml:space="preserve">
<g transform="translate(0 -1)">
	<polygon style="fill:#35495E;" points="238.346,142.241 273.656,142.241 273.656,1 238.346,1 	"/>
	<path style="fill:#F3D55B;" d="M423.725,345.279c0,92.628-75.096,167.724-167.724,167.724S88.277,437.906,88.277,345.279
		s75.096-167.724,167.724-167.724S423.725,252.651,423.725,345.279"/>
	<path style="fill:#243442;" d="M256.001,177.554c21.734,0,42.434,4.273,61.502,11.794c-2.957-31.373-29.352-55.932-61.502-55.932
		s-58.545,24.558-61.502,55.932C213.567,181.827,234.268,177.554,256.001,177.554"/>
	<path style="fill:#FFFFFF;" d="M256.001,477.692c-73.013,0-132.414-59.401-132.414-132.414c0-4.873,3.946-8.828,8.828-8.828
		c4.882,0,8.828,3.955,8.828,8.828c0,63.276,51.482,114.759,114.759,114.759c4.882,0,8.828,3.955,8.828,8.828
		S260.883,477.692,256.001,477.692"/>
</g>
<g>
</g>
<g>
</g>
<g>
</g>
<g>
</g>
<g>
</g>
<g>
</g>
<g>
</g>
<g>
</g>
<g>
</g>
<g>
</g>
<g>
</g>
<g>
</g>
<g>
</g>
<g>
</g>
<g>
</g>
</svg>
