<?xml version="1.0" encoding="iso-8859-1"?>
<!-- Generator: Adobe Illustrator 19.0.0, SVG Export Plug-In . SVG Version: 6.00 Build 0)  -->
<svg version="1.1" id="Layer_1" xmlns="http://www.w3.org/2000/svg" xmlns:xlink="http://www.w3.org/1999/xlink" x="0px" y="0px"
	 viewBox="0 0 511.997 511.997" style="enable-background:new 0 0 511.997 511.997;" xml:space="preserve">
<g transform="translate(0 -1)">
	<g>
		<path style="fill:#2F3744;" d="M361.93,106.931c-4.873,0-8.828-3.955-8.828-8.828c0-38.938,31.682-70.621,70.621-70.621
			c4.873,0,8.828,3.955,8.828,8.828s-3.955,8.828-8.828,8.828c-29.21,0-52.966,23.755-52.966,52.966
			C370.757,102.976,366.803,106.931,361.93,106.931"/>
		<path style="fill:#2F3744;" d="M361.93,230.517c-4.873,0-8.828-3.955-8.828-8.828c0-38.938,31.682-70.621,70.621-70.621
			c4.873,0,8.828,3.955,8.828,8.828c0,4.873-3.955,8.828-8.828,8.828c-29.21,0-52.966,23.755-52.966,52.966
			C370.757,226.562,366.803,230.517,361.93,230.517"/>
		<path style="fill:#2F3744;" d="M361.93,354.103c-4.873,0-8.828-3.955-8.828-8.828c0-38.938,31.682-70.621,70.621-70.621
			c4.873,0,8.828,3.955,8.828,8.828s-3.955,8.828-8.828,8.828c-29.21,0-52.966,23.755-52.966,52.966
			C370.757,350.149,366.803,354.103,361.93,354.103"/>
		<path style="fill:#2F3744;" d="M150.068,106.931c-4.873,0-8.828-3.955-8.828-8.828c0-29.21-23.755-52.966-52.966-52.966
			c-4.873,0-8.828-3.955-8.828-8.828s3.955-8.828,8.828-8.828c38.938,0,70.621,31.682,70.621,70.621
			C158.895,102.976,154.94,106.931,150.068,106.931"/>
		<path style="fill:#2F3744;" d="M150.068,230.517c-4.873,0-8.828-3.955-8.828-8.828c0-29.21-23.755-52.966-52.966-52.966
			c-4.873,0-8.828-3.955-8.828-8.828c0-4.873,3.955-8.828,8.828-8.828c38.938,0,70.621,31.682,70.621,70.621
			C158.895,226.562,154.94,230.517,150.068,230.517"/>
		<path style="fill:#2F3744;" d="M150.068,354.103c-4.873,0-8.828-3.955-8.828-8.828c0-29.21-23.755-52.966-52.966-52.966
			c-4.873,0-8.828-3.955-8.828-8.828s3.955-8.828,8.828-8.828c38.938,0,70.621,31.682,70.621,70.621
			C158.895,350.149,154.94,354.103,150.068,354.103"/>
	</g>
	<path style="fill:#464F5D;" d="M355.159,407.069H156.838c-8.616,0-15.598-6.983-15.598-15.598V16.598
		C141.24,7.983,148.223,1,156.838,1h198.321c8.616,0,15.598,6.983,15.598,15.598v374.872
		C370.757,400.086,363.775,407.069,355.159,407.069"/>
	<polygon style="fill:#2F3744;" points="211.861,512.997 300.137,512.997 300.137,407.066 211.861,407.066 	"/>
	<path style="fill:#E64C3C;" d="M300.137,80.448c0,24.373-19.765,44.138-44.138,44.138s-44.138-19.765-44.138-44.138
		s19.765-44.138,44.138-44.138S300.137,56.075,300.137,80.448"/>
	<path style="fill:#F3D55B;" d="M300.137,204.034c0,24.373-19.765,44.138-44.138,44.138s-44.138-19.765-44.138-44.138
		s19.765-44.138,44.138-44.138S300.137,179.662,300.137,204.034"/>
	<path style="fill:#4FBA6F;" d="M300.137,327.621c0,24.373-19.765,44.138-44.138,44.138s-44.138-19.765-44.138-44.138
		c0-24.373,19.765-44.138,44.138-44.138S300.137,303.248,300.137,327.621"/>
</g>
<g>
</g>
<g>
</g>
<g>
</g>
<g>
</g>
<g>
</g>
<g>
</g>
<g>
</g>
<g>
</g>
<g>
</g>
<g>
</g>
<g>
</g>
<g>
</g>
<g>
</g>
<g>
</g>
<g>
</g>
</svg>
