<svg id="Capa_1" enable-background="new 0 0 512 512" height="512" viewBox="0 0 512 512" width="512" xmlns="http://www.w3.org/2000/svg"><path d="m319.591 285.746-215.282-107.641c-3.523-1.761-5.712-5.303-5.712-9.242 0-5.697 4.635-10.333 10.333-10.333h171.17v-83.597h-171.17c-51.793 0-93.93 42.137-93.93 93.93 0 35.807 19.895 67.999 51.923 84.013l65.74 32.87z" fill="#44ba50"/><path d="m256 469.746h206.365c27.413 0 49.635-22.223 49.635-49.635 0-27.413-22.222-49.635-49.635-49.635l-206.365-18.397-10.667 64z" fill="#44ba50"/><path d="m512 320.84c0-27.413-22.222-49.635-49.635-49.635h-206.365l-10.667 48.874 10.667 50.396h206.365c27.413 0 49.635-22.222 49.635-49.635z" fill="#52d15f"/><path d="m49.635 370.475c-27.413 0-49.635 22.223-49.635 49.635 0 27.413 22.222 49.635 49.635 49.635h206.365v-117.666z" fill="#52d15f"/><path d="m49.635 370.475h206.365v-99.271h-206.365c-27.413 0-49.635 22.223-49.635 49.636 0 27.413 22.222 49.635 49.635 49.635z" fill="#7fe680"/><path d="m317.583 63.989v107.031l194.417-26.717v-53.598z" fill="#fdae02"/><path d="m253.05 42.254h91.633v150.5h-91.633z" fill="#ffdf8e"/></svg>