<svg id="Capa_1" enable-background="new 0 0 512 512" height="512" viewBox="0 0 512 512" width="512" xmlns="http://www.w3.org/2000/svg"><path d="m210.122 11.106h-27.157l-7.298 59.03 7.298 59.031 146.368-22.692z" fill="#9c9c9c"/><path d="m155.809 11.106-119.212 95.369 146.368 22.692v-118.061z" fill="#acacac"/><path d="m329.333 106.475h-146.368l-7.298 168.689 7.298 204.836h146.368z" fill="#838383"/><path d="m36.597 106.475v373.525h156.368l-10-292.446v-81.079z" fill="#9c9c9c"/><path d="m356.489 92.185h-27.157l-7.298 59.03 7.298 59.031 146.369-22.692z" fill="#cecece"/><path d="m302.176 92.185-119.212 95.369 146.368 22.692v-118.061z" fill="#d8d8d8"/><path d="m475.701 187.554h-116.368l-30.001 292.446h146.369z" fill="#acacac"/><path d="m182.964 187.554v292.446h146.368l10-160-10-132.446h-66l-15.332 2.446-14.668-2.446z" fill="#bfbfbf"/><path d="m266.667 212.895v266.667" fill="#fff"/><path d="m362.667 212.895v266.667" fill="#fff"/><path d="m333.667 291.895v-30h-70.334v-74.341h-30v292.008h30v-49h70.334v-30h-70.334v-39.334h70.334v-30h-70.334v-39.333z" fill="#fffbf5"/><path d="m329.333 187.554h30v292.008h-30z" fill="#fff3e2"/><path d="m512 470.895h-329.035l-10.667 9.105 10.667 20.895h329.035z" fill="#f90"/><path d="m0 470.895h182.965v30h-182.965z" fill="#fdae02"/></svg>