<svg id="Capa_1" enable-background="new 0 0 512 512" height="512" viewBox="0 0 512 512" width="512" xmlns="http://www.w3.org/2000/svg"><path d="m132.229 365.682-46.695-44.899c-15.313-14.724-24.096-35.354-24.096-56.599 0-40.688 31.11-74.24 70.791-78.134v-30.106c-56.245 3.976-100.791 51.001-100.791 108.24 0 29.362 12.139 57.873 33.303 78.223l67.488 64.893z" fill="#44ba50"/><path d="m249.595 0-14.366 21.333 14.366 8.667c32.735 0 59.366 26.631 59.366 59.366v38.3h30v-38.3c0-49.277-40.089-89.366-89.366-89.366z" fill="#06a646"/><path d="m160.229 89.366v38.3h30v-38.3c0-32.735 26.631-59.366 59.366-59.366v-30c-49.277 0-89.366 40.089-89.366 89.366z" fill="#44ba50"/><path d="m377.104 219.578v-100.245h-127.509l-14.366 196.334 14.366 196.333h127.509v-137.427l18.125-97.24z" fill="#52d15f"/><path d="m123.104 119.333h126.491v392.667h-126.491z" fill="#7fe680"/><path d="m448.886 150.546-71.782 69.032v154.996l103.458-197.642z" fill="#06a646"/></svg>