<svg id="Capa_1" enable-background="new 0 0 512 512" height="512" viewBox="0 0 512 512" width="512" xmlns="http://www.w3.org/2000/svg"><path d="m300.545 308.333h-30.923l23.166 92.667h-36.788l-10.667 15 10.667 15h44.288l15.826 63.305 29.105-7.276z" fill="#bfbfbf"/><path d="m219.212 401 23.166-92.667h-30.923l-44.674 178.696 29.104 7.276 15.827-63.305h44.288v-30z" fill="#cecece"/><path d="m242.147 130.92-20.133 34.873 137.88 140.756 73.092-126.598z" fill="#5a5a5a"/><path d="m359.894 17.784-137.88 140.756 20.133 34.873 190.839-49.03z" fill="#838383"/><path d="m152.106 17.784-73.093 126.599 190.84 49.03 20.133-34.873z" fill="#bfbfbf"/><path d="m269.853 130.92-190.839 49.031 73.092 126.598 137.88-140.756z" fill="#838383"/><path d="m389.333 482h-133.333l-10.667 19.333 10.667 10.667h133.333z" fill="#f90"/><path d="m122.667 482h133.333v30h-133.333z" fill="#fdae02"/><path d="m329.092 324.333-52.958-189.786h-20.134l-10.667 100.119 10.667 89.667z" fill="#444"/><path d="m182.908 324.333h73.092v-189.786h-20.134z" fill="#5a5a5a"/><path d="m329.092 0h-73.092l-10.667 74.666 10.667 115.12h20.134z" fill="#bfbfbf"/><path d="m182.908 0 52.958 189.786h20.134v-189.786z" fill="#d8d8d8"/><path d="m299.876 162.167c0-24.232-19.644-43.876-43.876-43.876l-10.667 41.709 10.667 46.042c24.232 0 43.876-19.643 43.876-43.875z" fill="#acacac"/><path d="m256 118.291c-24.232 0-43.876 19.644-43.876 43.876s19.644 43.876 43.876 43.876z" fill="#bfbfbf"/><path d="m256 103.291-10.667 14.042 10.667 15.958c15.922 0 28.875 12.954 28.875 28.876s-12.954 28.876-28.875 28.876l-10.667 11.624 10.667 18.375c32.464 0 58.875-26.412 58.875-58.876.001-32.464-26.411-58.875-58.875-58.875z" fill="#e7e7e7"/><path d="m227.124 162.167c0-15.922 12.953-28.876 28.876-28.876v-30c-32.464 0-58.876 26.412-58.876 58.876s26.411 58.875 58.876 58.876v-30c-15.922-.001-28.876-12.954-28.876-28.876z" fill="#fcfcfc"/></svg>