<svg height="512" viewBox="0 0 58 58" width="512" xmlns="http://www.w3.org/2000/svg"><g id="089---Account-Blocked" fill="none" fill-rule="evenodd"><g fill-rule="nonzero"><circle id="Oval" cx="29" cy="29" fill="#2c3e50" r="29"/><path id="Shape" d="m41.32 50.74c-7.6556566 4.3751966-17.0543434 4.3751966-24.71 0 1.5151212-1.1610511 2.9609308-2.4098566 4.33-3.74v-6.68h16v6.68c1.3845912 1.332367 2.8471716 2.581237 4.38 3.74z" fill="#fdd7ad"/><path id="Shape" d="m36.94 40.32v1.8c-2.94 2.88-3.07 5.68-6.3 5.68h-3.4c-3.23 0-3.4-2.76-6.3-5.68v-1.8z" fill="#f9c795"/><path id="Shape" d="m44.11 13.31c-1.011848-2.4501403-3.3517747-4.09198883-6-4.21-2.1524966-3.24759174-5.8144827-5.17098301-9.71-5.1-1.4610625-.15528654-2.9384212.00848533-4.33.48-5.81 1.6-10.13 6.9-10.13 12.41.0287629 2.4281851.4752821 4.8333002 1.32 7.11l.74 4 29-9z" fill="#805333"/><path id="Shape" d="m42.17 13.31c-.7132624-2.3198007-2.7538086-3.98144469-5.17-4.21-1.7537998-3.04322605-4.9499941-4.97000985-8.46-5.1-1.259491-.08589175-2.5235641.07721446-3.72.48-5.2563689 1.87715323-8.7797487 6.8386473-8.82 12.42.0242943 2.4102329.4085353 4.8033128 1.14 7.1l.65 4 25.15-9z" fill="#a56a43"/></g><path id="Shape" d="m40.32 25.81v-.02" stroke="#000" stroke-linecap="round" stroke-linejoin="round" stroke-width="2"/><path id="Shape" d="m42.9 24c1.52.14 1.2 3.57.9 5.06-.2117094 2.1960681-1.6489904 4.0827417-3.71 4.87l-23.76-.79c-1.2689898-1.001377-2.0802341-2.4724333-2.25-4.08-.35-1.75-.59-5.33 1.18-5.06 1.8 0 2.1 1.2 2.14 1.5 0 .1-2.01.18 25.5-1.5z" fill="#f9c795" fill-rule="nonzero"/><path id="Shape" d="m38.64 17.22c-.4097777-1.1957802-1.1692504-2.2409261-2.18-3-2.94 4.8-9.79 5.4-9.79 5.4h-5.22c-2.35 0-4 .94-4.12 3.09s.44 7 .35 6.22c.1836452 1.0123227.2440847 2.0431524.18 3.07l2.69 7.9c3.27 3.1 3.31 6.1 6.69 6.1h3.4c3.44 0 3.5-3.2 6.81-6.17 1.7817315-1.4288728 2.7647527-3.6294998 2.64-5.91 0-2.59-.34-2.67.28-5.88 0-2.65.1-1.47-1.73-10.82z" fill="#fdd7ad" fill-rule="nonzero"/><path id="Shape" d="m54.7 15.57c-46.87 33.43-46.7 33.27-46.76 33.37-1.84743916-1.93908-3.40974511-4.1310222-4.64-6.51 46.87-33.43 46.7-33.27 46.76-33.37 1.8474392 1.93908 3.4097451 4.1310222 4.64 6.51z" fill="#e64c3c" fill-rule="nonzero"/></g></svg>