<svg height="512" viewBox="0 0 52 58" width="512" xmlns="http://www.w3.org/2000/svg"><g id="001---Male-User" fill="none" transform="translate(0 -1)"><path id="Shape" d="m51.93 54c-10.57 6.64-41.33 6.61-51.86 0 .88-.44 3.54-1.9 4.75-2.59 6.41-3.71 5.53-.05 13.18-7.41v-6.68h16v6.68c1.5824611 1.5479168 3.2954752 2.9564694 5.12 4.21.9308568.54601 1.9439588.9377428 3 1.16 3.16.56 5.78 2.63 9.81 4.63z" fill="#fdd7ad"/><path id="Shape" d="m34 32v7.8c-2.9 2.92-3.07 5.68-6.3 5.68h-3.4c-3.23 0-3.4-2.76-6.3-5.68v-8.8z" fill="#f9c795"/><path id="Shape" d="m11 13.9c0-6.6 6.2-12.9 13.71-12.9s10.44 5.1 10.44 5.1h.32s6.53.3 6.53 8.7c-.0100465 2.2100266-.5629177 4.3837377-1.61 6.33l-1.39 1.87h-26c-1.06-3.12-2-5.55-2-9.1z" fill="#805333"/><path id="Shape" d="m13 13.9c0-6.6 5.4-12.9 11.94-12.9 3.7220642-.07141309 7.1902306 1.88086601 9.06 5.1h.28s5.72.3 5.72 8.7c-.0054032 2.1861956-.4829591 4.3454304-1.4 6.33l-1.21 1.87h-22.65c-.93-3.16-1.74-5.57-1.74-9.1z" fill="#a56a43"/><path id="Shape" d="m37.38 22.81c.1355426-1.1348145 1.1651271-1.9450527 2.3-1.81 1.78-.27 1.53 3.32 1.18 5.06-.2117094 2.1960681-1.6489904 4.0827417-3.71 4.87h-22.3c-2.0580884-.7911584-3.4937549-2.6757125-3.71-4.87-.35-1.75-.59-5.33 1.18-5.06 2.06 0 2.15 1.57 2.15 1.57z" fill="#f9c795"/><path id="Shape" d="m18.68 58.71c-5.53-.45-13.91-1.71-18.61-4.71.88-.44 3.54-1.9 4.75-2.59 4.39-2.56 4.54-1.52 7.25-2.8.24 2.06 1.43 8.49 6.61 10.1z" fill="#26b99a"/><path id="Shape" d="m51.93 54c-4.7 2.94-13.08 4.24-18.61 4.69 5.18-1.61 6.37-8 6.61-10.08.6928161.3369715 1.4252155.5855841 2.18.74 3.17.58 5.79 2.65 9.82 4.65z" fill="#26b99a"/><path id="Shape" d="m14.39 19.69c.1-2.15 1.77-3.09 4.12-3.09h5.22s6.85-.6 9.79-5.4c0 0 3.22 1.78 3.82 10.91.1 1.57.09 3.17.09 2.9-.2069031.9879113-.3306694 1.9914214-.37 3 0 3.09.85 5.73-2.55 8.81s-3.4 6.18-6.81 6.18h-3.4c-3.41 0-3.41-3.08-6.81-6.17-4-3.67-2-6.53-2.75-10.92.09.85-.45-4.37-.35-6.22z" fill="#fdd7ad"/></g></svg>