<svg height="512" viewBox="0 0 58 58" width="512" xmlns="http://www.w3.org/2000/svg"><g id="028---Male-User-Account-Rating" fill="none"><circle id="Oval" cx="29" cy="29" fill="#3d324c" r="29"/><path id="Shape" d="m15.32 24c-.8435909-2.273544-1.2900922-4.6751797-1.32-7.1 0-6.6 6.2-12.9 13.71-12.9s10.44 5.1 10.44 5.1h.32s6.53.3 6.53 8.7c-.0100465 2.2100266-.5629177 4.3837377-1.61 6.33l-2.39 1.87h-24z" fill="#805333"/><path id="Shape" d="m18.06 24c-.6832416-2.3055355-1.0400441-4.6954388-1.06-7.1 0-6.6 5-12.9 11.06-12.9 3.5366363.0021108 6.7799829 1.96660817 8.42 5.1h.25s5.27.3 5.27 8.7c-.0008023 2.1762021-.4430535 4.3296253-1.3 6.33l-1.93 1.87h-19.35z" fill="#a56a43"/><path id="Shape" d="m35 40 3 12-3 1.27c-6.2072344 1.5400752-12.7693018.626687-18.32-2.55 1.5106912-1.1554591 2.953112-2.3975437 4.32-3.72v-8z" fill="#fdd7ad"/><path id="Shape" d="m35 40v3.88l-3 4.71c-.71.26-1 .21-4.73.21-3.23 0-3.4-2.76-6.3-5.68v-4.12z" fill="#f9c795"/><path id="Shape" d="m42.56 32.23c.7228076-.9172105 1.1732697-2.0191101 1.3-3.18.36-1.75.59-5.33-1.18-5.06-1.1298259-.1296538-2.1543248.672128-2.3 1.8 0 .1.48 0-22.91-.23 0 0-.09-1.57-2.15-1.57-1.78-.27-1.53 3.32-1.18 5.06.1963891 2.220622 1.6337162 4.1383496 3.71 4.95h24.15z" fill="#f9c795"/><path id="Shape" d="m40.12 38c0-.63-.06-6.32-.06-7 .0175971-1.0102216.1416154-2.0157755.37-3 0-1.13 0-2.15-.09-2.93-.6-9.07-3.82-10.87-3.82-10.87-2.94 4.8-9.79 5.4-9.79 5.4h-5.22c-2.35 0-4 .94-4.12 3.09-.1 1.87.36 6.21.36 6.31.73 4.22-1.35 7.16 2.74 10.83 3.28 3 3.37 6.17 6.81 6.17 3.12 0 3.92.09 4.73-.21z" fill="#fdd7ad"/><path id="Shape" d="m46.06 32.28 2.53 5.19c.3328569.6802139.9804696 1.1518855 1.73 1.26l5.73.84c.8520075.1238734 1.5606054.7190929 1.8296864 1.5369296s.0523266 1.7175115-.5596864 2.3230704l-4.19 4.13c-.53103.5200483-.7738291 1.2671225-.65 2l1 5.79c.1383949.857267-.2199982 1.7190617-.9254699 2.2253912-.7054717.5063296-1.6366389.5700752-2.4045301.1646088l-5.07-2.74c-.6752214-.3591134-1.4847786-.3591134-2.16 0l-5.06 2.69c-.7678912.4054664-1.6990584.3417208-2.4045301-.1646088-.7054717-.5063295-1.0638648-1.3681242-.9254699-2.2253912l1-5.79c.1238291-.7328775-.11897-1.4799517-.65-2l-4.19-4.13c-.5840152-.6137668-.7776326-1.5016831-.5021595-2.3028685.2754732-.8011853.974187-1.3822896 1.8121595-1.5071315l5.73-.84c.7495304-.1081145 1.3971431-.5797861 1.73-1.26l2.53-5.19c.3978285-.7553406 1.1812981-1.2281908 2.035-1.2281908s1.6371715.4728502 2.035 1.2281908z" fill="#f0c419"/></g></svg>