<svg height="512" viewBox="0 0 58 58" width="512" xmlns="http://www.w3.org/2000/svg"><g id="055---Search-Male-User" fill="none"><path id="Rectangle-path" d="m39.825 40.585h6.07v4.53h-6.07z" fill="#35495e" transform="matrix(.707 -.707 .707 .707 -17.746 42.857)"/><path id="Shape" d="m57.12 55.67-1.45 1.45c-.5636839.5710251-1.3326228.8924481-2.135.8924481s-1.5713161-.321423-2.135-.8924481l-8.58-8.58c-.5054432-.508506-.7000212-1.2486657-.51-1.94.15-.72.44-.85 3.37-3.78.376281-.3848255.8917826-.6017511 1.43-.6017511s1.053719.2169256 1.43.6017511l.72.72 6.43 6.46 1.41 1.4c.5736735.5610049.8987038 1.3284398.902462 2.1308198.0037583.8023801-.3140688 1.5728261-.882462 2.1391802z" fill="#f0c419"/><path id="Shape" d="m50.67 44.95-5.71 5.72h-.01l-1.41-1.41 5.72-5.71z" fill="#f29c1f"/><path id="Shape" d="m57.1 51.38v.01l-5.71 5.71h-.01l-1.41-1.41 5.72-5.71z" fill="#f29c1f"/><circle id="Oval" cx="24.25" cy="24.25" fill="#547580" r="24.25"/><path id="Shape" d="m38.53 38.53c-7.558877 7.5513883-19.690979 7.9103399-27.6830875.8190573-7.99210854-7.0912826-9.07969006-19.1798686-2.48164866-27.5837926 6.59804136-8.40392387 18.59939106-10.21620199 27.38473616-4.1352647 4.9207216 3.4145996 8.074423 8.8350208 8.6111082 14.800334.5366851 5.9653131-1.5988791 11.8615971-5.8311082 16.099666z" fill="#2fa8cc"/><path id="Shape" d="m37.42 39.56c-7.6678059 6.5917716-19.0272639 6.502058-26.59-.21.79-.59.75-.51 7.5-3.06 1.0052669-.3758375 1.6711441-1.336774 1.67-2.41 0-1.23.16-2.35-.86-3.21-1.5993135-1.3335317-2.4804221-3.34009-2.38-5.42-.0049885-.0832587-.0049885-.1667413 0-.25h-.76c-1.070356.0010843-1.9518345-.8407277-2-1.91v-1.92c.0086093-.7809131.4917621-1.4779204 1.22-1.76-1.76-5.29.65-11 6.11-11.59 3.52-.41 8.16 1.27 8.89 4.68.1056993.0211519.2094068.0512605.31.09 2.61 1 3.23 4 2.55 6.67l-.15.22c.4249797.2041741.7571494.5613458.93 1 .19.46.14.59.14 2.62-.0533326 1.0653337-.933333 1.9013341-2 1.9h-.77c.0049885.0832587.0049885.1667413 0 .25.1004221 2.07991-.7806865 4.0864683-2.38 5.42-1 .85-.86 2-.86 3.21-.0011441 1.073226.6647331 2.0341625 1.67 2.41 6.77 2.56 6.9 2.51 7.76 3.27z" fill="#2c3e50"/><path id="Shape" d="m33.86 20.47c-.1728506-.4386542-.5050203-.7958259-.93-1l.15-.22c.68-2.69.06-5.66-2.55-6.67-.1005932-.0387395-.2043007-.0688481-.31-.09-.026093-.1403585-.0662971-.2777224-.12-.41-.82-2.49-3.83-4.31-8-4.31-5.93 0-8.79 6-6.91 11.63-.7198215.2929583-1.1903679.9928466-1.19 1.77v1.92c.0481655 1.0692723.929644 1.9110843 2 1.91h.77c-.0049885.0832587-.0049885.1667413 0 .25-.1004221 2.07991.7806865 4.0864683 2.38 5.42.4599999.3811646.7627577.9190049.85 1.51-4.8630722 1.3614249-10.04647526 1.008332-14.68-1-2.98849272-8.2530747-.30814687-17.4915849 6.6333842-22.86368663 6.941531-5.37210173 16.5570091-5.64941979 23.7966158-.68631337.6754963 4.3726769.0168291 8.8474317-1.89 12.84z" fill="#67b9cc"/><path id="Shape" d="m33.86 20.47c-2.7202788 5.7154643-7.7705379 9.9823137-13.86 11.71-.0794231-.5866928-.3711609-1.1239173-.82-1.51-1.5993135-1.3335317-2.4804221-3.34009-2.38-5.42-.0049885-.0832587-.0049885-.1667413 0-.25h-.8c-1.070356.0010843-1.9518345-.8407277-2-1.91v-1.92c.0086093-.7809131.4917621-1.4779204 1.22-1.76-1.87-5.6 1-11.63 6.91-11.63 4.14 0 7.15 1.82 8 4.31.0537029.1322776.093907.2696415.12.41.1056993.0211519.2094068.0512605.31.09 2.61 1 3.23 4 2.55 6.67l-.15.22c.4118276.2077122.7323606.5602985.9.99z" fill="#35495e"/></g></svg>