<svg id="Capa_1" enable-background="new 0 0 58 58" height="512" viewBox="0 0 58 58" width="512" xmlns="http://www.w3.org/2000/svg"><path id="Shape" d="m43.7 49.7c1.5 1.4 2.3 3.3 2.3 5.3v3h-46v-3c0-3 1.9-5.7 4.7-6.8l9.8-3.7c1.6-.6 2.6-2.1 2.6-3.7v-2c0-1.1-.5-2.2-1.3-3-2.5-2.1-3.8-5.2-3.7-8.4 0-.1 0-.3 0-.4h-1c-1.7 0-3-1.3-3-3v-3c0-1.2.7-2.3 1.8-2.8-.6-1.8-.9-3.6-.9-5.5 0-7.4 4.7-12.7 11.2-12.7 5.3 0 10.9 2.3 12.1 7.4 3.2.7 5.7 5 4.3 10.6l-.2.4c1 .5 1.6 1.5 1.6 2.6v3c0 1.7-1.3 3-3 3h-1v.4c.2 3.2-1.2 6.3-3.7 8.4-.9.8-1.3 1.9-1.3 3v2c0 1.7 1 3.2 2.6 3.7 3.7 1.4 1.1.3 12.1 5.2z" fill="#955ba5"/><path d="m54 35v-7.7c.1-4.3-3.2-7.9-7.5-8.3-2.2-.2-4.4.6-6 2.1s-2.5 3.7-2.5 5.9v2c0 1.1.9 2 2 2s2-.9 2-2v-1.8c0-2.1 1.5-3.9 3.6-4.2 1.1-.1 2.2.3 3.1 1s1.3 1.8 1.3 3v8z" fill="#547580"/><path id="Rectangle-path" d="m38 35h16c2.2 0 4 1.8 4 4v15c0 2.2-1.8 4-4 4h-16c-2.2 0-4-1.8-4-4v-15c0-2.2 1.8-4 4-4z" fill="#84b5cb"/><path d="m40 35h12c2.2 0 4 1.8 4 4v15c0 2.2-1.8 4-4 4h-12c-2.2 0-4-1.8-4-4v-15c0-2.2 1.8-4 4-4z" fill="#9fc9d3"/><path d="m48.8 50.2c.3.6.2 1.3-.2 1.9s-1 .9-1.7.9h-2c-.7 0-1.3-.3-1.7-.9s-.4-1.3-.2-1.9l1.2-3.7c-1.1-.7-1.6-2.1-1.2-3.4s1.6-2.1 3-2.1c1.3 0 2.5.9 2.9 2.1s-.1 2.6-1.2 3.4z" fill="#2c3e50"/></svg>