<svg height="512" viewBox="0 0 52 59" width="512" xmlns="http://www.w3.org/2000/svg"><g id="009---Male-User" fill="none"><path id="Shape" d="m18 37.32v6.68c-7.67 7.38-6.77 3.7-13.18 7.43-.82.46-4.65 2.57-4.76 2.57 10.57 6.62 41.33 6.59 51.86 0 .1 0-.31-.05-4.75-2.59-6.4-3.71-5.52-.05-13.17-7.41v-6.68z" fill="#fdd7ad"/><path id="Shape" d="m34 36v4c-2.9 2.94-3.07 5.72-6.3 5.72h-3.4c-3.23 0-3.4-2.78-6.3-5.72v-4z" fill="#f9c795"/><path id="Shape" d="m51.93 54c-4.7 2.94-13.08 4.24-18.61 4.69 5.18-1.61 6.37-8 6.61-10.08.6928161.3369715 1.4252155.5855841 2.18.74 3.17.58 5.79 2.65 9.82 4.65z" fill="#35495e"/><path id="Shape" d="m18.68 58.71c-5.53-.45-13.91-1.71-18.61-4.71.88-.44 3.54-1.9 4.75-2.59 4.39-2.56 4.54-1.52 7.25-2.8.24 2.06 1.43 8.49 6.61 10.1z" fill="#35495e"/><path id="Shape" d="m37.87 21.7c.4705368-.4889051 1.1329474-.745086 1.81-.7 1.77-.27 1.53 3.3 1.18 5.06-.2117094 2.1960681-1.6489904 4.0827417-3.71 4.87h-22.3c-2.0580884-.7911584-3.4937549-2.6757125-3.71-4.87-.35-1.75-.59-5.33 1.18-5.06.6783799-.0603426 1.3454865.2027939 1.8.71z" fill="#f9c795"/><path id="Shape" d="m17.3 8.81c-1.9647925 1.5539677-3.1313538 3.9054325-3.18 6.41-.43 8.81.85 9.69.85 12.77s-.85 5.73 2.55 8.81 3.37 6.2 6.78 6.2h3.4c3.41 0 3.41-3.08 6.81-6.17s2.55-5.72 2.55-8.81 1.28-4 .85-12.77c-.0477887-1.8116514-.6673327-3.5617757-1.77-5l-15.14-5.25z" fill="#fdd7ad"/><path id="Shape" d="m31 10c-.4317233 1.4384082-1.1083074 2.7915764-2 4-.48-1.77-1.4-4.09-3-5-2.92-1.46-6.26-1.83-9 0 0 0-4.86-7.78 7.47-8h2.07c14.19.73 10.29 11.2 5.46 17 .46-2.25.42-5.88-1-8z" fill="#df4d60"/><path id="Shape" d="m32.24 15.76c.1707849-2.0007251-.2610746-4.006782-1.24-5.76 0 0-.17.5-.43 1.15-.1270661-.3962636-.2876463-.7809869-.48-1.15-.3152986 1.1758891-.7370406 2.3206175-1.26 3.42-.4044536-1.7559986-1.4044273-3.3177949-2.83-4.42-1.2474645-.83956937-2.7270361-1.2663016-4.23-1.22-.0331398-.00507983-.0668602-.00507983-.1 0-1.1046395-.08204525-2.2138619.07836538-3.25.47-1.91-5.5 2.25-7.64 8.12-7.25 10.05.68 8.8 8.86 5.7 14.76z" fill="#ff5364"/></g></svg>