<svg height="512" viewBox="0 0 58 58" width="512" xmlns="http://www.w3.org/2000/svg"><g id="023---Male-User-Location" fill="none"><circle id="Oval" cx="29" cy="29" fill="#3d324c" r="29"/><path id="Shape" d="m15.32 24c-.8435909-2.273544-1.2900922-4.6751797-1.32-7.1 0-6.6 6.2-12.9 13.71-12.9s10.44 5.1 10.44 5.1h.32s6.53.3 6.53 8.7c-.0100465 2.2100266-.5629177 4.3837377-1.61 6.33l-2.39 1.87h-24z" fill="#805333"/><path id="Shape" d="m18.06 24c-.6832416-2.3055355-1.0400441-4.6954388-1.06-7.1 0-6.6 5-12.9 11.06-12.9 3.5366363.0021108 6.7799829 1.96660817 8.42 5.1h.25s5.27.3 5.27 8.7c-.0008023 2.1762021-.4430535 4.3296253-1.3 6.33l-1.93 1.87h-19.35z" fill="#a56a43"/><path id="Shape" d="m41.35 50.72c-7.6530996 4.3713877-17.0469004 4.3713877-24.7 0 1.5209606-1.1545345 2.9734178-2.3966359 4.35-3.72v-8l8 .57 8-.57v8c1.3765822 1.3233641 2.8290394 2.5654655 4.35 3.72z" fill="#fdd7ad"/><path id="Shape" d="m35 40v3.88l-3 4.71c-.71.26-1 .21-4.73.21-3.23 0-3.4-2.76-6.3-5.68v-4.12z" fill="#f9c795"/><path id="Shape" d="m44.1 25c-1.78.4-4.1 3.1-4.1 5v4c-4.09 0-.16 0-22.15-.08-2.0580884-.7911584-3.4937549-2.6757125-3.71-4.87-.35-1.75-.59-5.33 1.18-5.06 2.06 0 2.15 1.57 2.15 1.57l22.91.25c0-.21.24-.81 2.3-.81.2023095-.0600159.4176905-.0600159.62 0 0 0 .06-.89.08-.86.48.35.67.02.72.86z" fill="#f9c795"/><path id="Shape" d="m40.12 33c-.1776761-1.6722605-.0728816-3.3624941.31-5 0-1.13 0-2.15-.09-2.93-.6-9.07-3.82-10.87-3.82-10.87-2.94 4.8-9.79 5.4-9.79 5.4h-5.22c-2.35 0-4 .94-4.12 3.09-.11 2 .44 7.06.35 6.22.74 4.45-1.33 7.26 2.75 10.92 3.28 3 3.37 6.17 6.81 6.17 3.12 0 3.92.09 4.73-.21z" fill="#fdd7ad"/><path id="Shape" d="m58 36.9c0 7.1-13 21.1-13 21.1s-13-14-13-21.1c.0000002-7.1797016 5.8202984-12.9999997 13-12.9999997s12.9999998 5.8202981 13 12.9999997z" fill="#c03a2b"/><path id="Shape" d="m56.09 35c0 6.08-11.09 18-11.09 18s-11.09-11.92-11.09-18c0-6.1248379 4.9651621-11.09 11.09-11.09s11.09 4.9651621 11.09 11.09z" fill="#e64c3c"/><circle id="Oval" cx="45" cy="37" fill="#fff" r="6"/></g></svg>