<svg height="512" viewBox="0 0 52 59" width="512" xmlns="http://www.w3.org/2000/svg"><g id="008---Male-User" fill="none"><path id="Shape" d="m18 37.32v6.68c-7.67 7.38-6.77 3.7-13.18 7.43-.82.46-4.65 2.57-4.76 2.57 10.57 6.62 41.34 6.59 51.87 0 .1 0-.31-.05-4.75-2.59-6.41-3.71-5.53-.05-13.18-7.41v-6.68z" fill="#fdd7ad"/><path id="Shape" d="m34 36v4c-2.9 2.94-3.07 5.72-6.3 5.72h-3.4c-3.23 0-3.4-2.78-6.3-5.72v-4z" fill="#f9c795"/><path id="Shape" d="m51.93 54c-4.7 2.94-13.08 4.24-18.61 4.69 5.18-1.61 6.37-8 6.61-10.08.6928161.3369715 1.4252155.5855841 2.18.74 3.17.58 5.79 2.65 9.82 4.65z" fill="#26b99a"/><path id="Shape" d="m18.68 58.71c-5.53-.45-13.91-1.71-18.61-4.71.88-.44 3.54-1.9 4.75-2.59 4.39-2.56 4.54-1.52 7.25-2.8.24 2.06 1.43 8.49 6.61 10.1z" fill="#26b99a"/><path id="Shape" d="m40 21c1.47.15 1.15 3.6.86 5.05-.2117094 2.1960681-1.6489904 4.0827417-3.71 4.87h-22.3c-2.0580884-.7911584-3.4937549-2.6757125-3.71-4.87-.35-1.75-.59-5.33 1.18-5.06 2.85.01-9.88.01 27.68.01z" fill="#f9c795"/><path id="Shape" d="m37.06 28c0 3.12.83 5.74-2.55 8.81s-3.4 6.19-6.81 6.19h-3.4c-3.41 0-3.41-3.08-6.81-6.17s-2.55-5.72-2.55-8.83c0-2-.54-3.08-.8-6 3.1489534-.2855853 6.1853282-1.3137032 8.86-3 2.488349-1.4382186 4.8324908-3.1126056 7-5 2 1 4 2 5 6 1.24 4.95 2.61 4 2.61 4-.3044548 1.3138588-.4885493 2.6527282-.55 4z" fill="#fdd7ad"/><path id="Shape" d="m40 21c-1.92 2.87-2.39 3-2.39 3s-.7.47-1.55-1.07c-.4744422-.9285087-.8305547-1.9128576-1.06-2.93-1-4-3-5-5-6l-.35.31c-3.93 3.31-10.57 7.69-15.65 7.69 0 0-3-1-4-6s3-15 12-15c3.85 0 8.32.32 11 3 0 0 6.39 1.16 8 6 1 3 1 8-1 11z" fill="#805333"/><path id="Shape" d="m37.18 21c-.48.89-.84 1.52-1.12 2-.4799838-.9506356-.8362162-1.9588404-1.06-3-1-4-3-5-5-6l-.35.31c-2.17 1.83-3.5 2.6-3.83 2.88-2.9200289 2.1955262-6.2745948 3.7432629-9.84 4.54-.71-.52-2.22-2-2.82-5.77-.79-5 2.36-14.85 9.46-15 1.1193323-.01012476 2.2381971.04999335 3.35.18 2.78.37 4.43 1.31 5.63 2.81 0 0 5.13 1.16 6.42 6 .76 3.05.76 8.05-.84 11.05z" fill="#a56a43"/></g></svg>