<svg height="512" viewBox="0 0 58 58" width="512" xmlns="http://www.w3.org/2000/svg"><g id="022---Male-User-Account-Locked" fill="none"><path id="Shape" d="m38.66 56.35c-12.7725699 4.5098822-26.9658164-.4227989-34.18860164-11.8818107-7.22278521-11.4590119-5.55096359-26.3916809 4.02707323-35.96971771 9.57803681-9.57803682 24.51070581-11.24985844 35.96971771-4.02707323 11.4590118 7.22278524 16.3916929 21.41603174 11.8818107 34.18860164z" fill="#3d324c"/><path id="Shape" d="m15.32 24c-.8435909-2.273544-1.2900922-4.6751797-1.32-7.1 0-6.6 6.2-12.9 13.71-12.9s10.44 5.1 10.44 5.1h.32s6.53.3 6.53 8.7c-.0100465 2.2100266-.5629177 4.3837377-1.61 6.33l-2.39 1.87h-24z" fill="#805333"/><path id="Shape" d="m18.06 24c-.6832416-2.3055355-1.0400441-4.6954388-1.06-7.1 0-6.6 5-12.9 11.06-12.9 3.5366363.0021108 6.7799829 1.96660817 8.42 5.1h.25s5.27.3 5.27 8.7c-.0008023 2.1762021-.4430535 4.3296253-1.3 6.33l-1.93 1.87h-19.35z" fill="#a56a43"/><path id="Shape" d="m35 40v13.27c-6.2072344 1.5400752-12.7693018.626687-18.32-2.55 1.5106912-1.1554591 2.953112-2.3975437 4.32-3.72v-8z" fill="#fdd7ad"/><path id="Shape" d="m35 40v3.88l-3 4.71c-.71.26-1 .21-4.73.21-3.23 0-3.4-2.76-6.3-5.68v-4.12z" fill="#f9c795"/><path id="Shape" d="m44.1 25c-1.78.4-4.1 3.1-4.1 5v4c-4.09 0-.16 0-22.15-.08-2.0580884-.7911584-3.4937549-2.6757125-3.71-4.87-.35-1.75-.59-5.33 1.18-5.06 2.06 0 2.15 1.57 2.15 1.57l22.91.25c.1355426-1.1348145 1.1651271-1.9450527 2.3-1.81.2438489-.0380956.4931721.0153308.7.15.48.34.67.01.72.85z" fill="#f9c795"/><path id="Shape" d="m40.12 33c-.1776761-1.6722605-.0728816-3.3624941.31-5 0-1.13 0-2.15-.09-2.93-.6-9.07-3.82-10.87-3.82-10.87-2.94 4.8-9.79 5.4-9.79 5.4h-5.22c-2.35 0-4 .94-4.12 3.09-.11 2 .44 7.06.35 6.22.74 4.45-1.33 7.26 2.75 10.92 3.28 3 3.37 6.17 6.81 6.17 3.12 0 3.92.09 4.73-.21z" fill="#fdd7ad"/><rect id="Rectangle-path" fill="#84b5cb" height="24" rx="4" width="26" x="32" y="34"/><path id="Shape" d="m56 38v16c0 2.21-1.51 4-3.38 4h-15.24c-1.87 0-3.38-1.79-3.38-4v-16c0-2.21 1.51-4 3.38-4h15.24c1.87 0 3.38 1.79 3.38 4z" fill="#9fc9d3"/><path id="Shape" d="m53 30v4h-4v-4c0-2.209139-1.790861-4-4-4s-4 1.790861-4 4v4h-4c0-3.92-.29-5.84 1.21-8.21 1.886311-3.0276956 5.5492999-4.4406561 8.9802355-3.4640342 3.4309357.976622 5.8007068 4.1068185 5.8097645 7.6740342z" fill="#547580"/><path id="Shape" d="m47.81 49.21c.2638844.6135645.204072 1.3183615-.1594339 1.8786827-.3635058.5603212-.9827238.9022063-1.6505661.9113173h-2c-.6731706.0008881-1.3016277-.3369329-1.6722424-.8988975-.3706146-.5619646-.4336608-1.2726731-.1677576-1.8911025l1.16-3.7c-1.1067013-.7288212-1.60414-2.0973999-1.2237155-3.3667483s1.548586-2.1387457 2.8737155-2.1387457 2.493291.8693973 2.8737155 2.1387457-.1170142 2.6379271-1.2237155 3.3667483z" fill="#2c3e50"/></g></svg>