<svg id="Capa_1" enable-background="new 0 0 58 58" height="512" viewBox="0 0 58 58" width="512" xmlns="http://www.w3.org/2000/svg"><path id="Shape" d="m43.7 49.7c1.5 1.4 2.3 3.3 2.3 5.3v3h-46v-3c0-3 1.9-5.7 4.7-6.8l9.8-3.7c1.6-.6 2.6-2.1 2.6-3.7v-2c0-1.1-.5-2.2-1.3-3-2.5-2.1-3.8-5.2-3.7-8.4 0-.1 0-.3 0-.4h-1c-1.7 0-3-1.3-3-3v-3c0-1.2.7-2.3 1.8-2.8-.6-1.8-.9-3.6-.9-5.5 0-7.4 4.7-12.7 11.2-12.7 5.3 0 10.9 2.3 12.1 7.4 3.2.7 5.7 5 4.3 10.6l-.2.4c1 .5 1.6 1.5 1.6 2.6v3c0 1.7-1.3 3-3 3h-1v.4c.2 3.2-1.2 6.3-3.7 8.4-.9.8-1.3 1.9-1.3 3v2c0 1.7 1 3.2 2.6 3.7 3.7 1.4 1.1.3 12.1 5.2z" fill="#955ba5"/><circle id="Oval" cx="45" cy="45" fill="#4fba6f" r="13"/><path d="m41.6 52.4-4-4c-.7-.8-.6-2 .1-2.7s1.9-.8 2.7-.1l2.4 2.4 6.6-8.3c.7-.8 1.9-.9 2.8-.3s1 1.9.3 2.8l-8 10c-.4.4-.9.7-1.4.7-.6.1-1.1-.1-1.5-.5z" fill="#fff"/></svg>