<svg height="512" viewBox="0 0 44 58" width="512" xmlns="http://www.w3.org/2000/svg"><g id="077---Male-User-Rating" fill="none" transform="translate(-1)"><path id="Shape" d="m39.78 47h2.2201907c.0196485-2.5381781-1.5096266-4.8320907-3.8601907-5.79l-8.06-3.21c-1.2692052-.540469-2.0894435-1.7905438-2.08-3.17 0-1.65-.2-3.13 1.09-4.25 2.0409528-1.8075437 3.1455751-4.447591 3-7.17 0-.12 0-.23 0-.34h.84c.6683727-.0105249 1.3051796-.286172 1.7702878-.7662837.4651082-.4801116.7204055-1.1253463.7097122-1.7937163v-2.51c.0089398-.9413111-.4974719-1.8121857-1.32-2.27l.18-.3c.88-3.62 0-8.06-3.54-9.06 0-.18-.09-.36-.15-.53-1.1-3.38-4.76-5.84-9.89-5.84-7.58 0-10.81 8.28-8.58 15.59-.9461659.4220053-1.5429659 1.3745138-1.51 2.41v2.56c-.0106933.66837.244604 1.3136047.7097122 1.7937163.4651082.4801117 1.1019151.7557588 1.7702878.7662837h.84v.34c-.1455751 2.722409.9590472 5.3624563 3 7.17 1.3 1.13 1.09 2.63 1.09 4.25-.0123024 1.3636795-.8335884 2.5897141-2.09 3.12l-8.06 3.18c-2.3608226.9619434-3.89220935 3.2709255-3.86 5.82z" fill="#26b99a"/><path id="Shape" d="m7.51 46.36 1.32 3.08c.08062748.1915759.25466182.3277767.46.36l3.2.34c.2333126.0407012.4230556.2107634.4889615.4382448.0659058.2274814-.0035407.472636-.1789615.6317552l-2.36 2.2c-.1622255.1538852-.2307286.3822286-.18.6l.67 3.25c.0577354.222005-.0207964.4571798-.2003409.5999501-.1795444.1427703-.426365.1663093-.6296591.0600499l-2.82-1.7c-.1732646-.1000344-.3867354-.1000344-.56 0l-2.82 1.7c-.20329414.1062594-.45011468.0827204-.62965914-.0600499-.17954447-.1427703-.25807622-.3779451-.20034086-.5999501l.67-3.26c.05072857-.2177714-.01777445-.4461148-.18-.6l-2.36-2.19c-.17542075-.1591192-.2448673-.4042738-.17896147-.6317552s.25564883-.3975436.48896147-.4382448l3.2-.34c.20533818-.0322233.37937252-.1684241.46-.36l1.32-3.08c.07553597-.2170545.28017762-.3625176.51-.3625176s.43446403.1454631.51.3625176z" fill="#f29c1f"/><path id="Shape" d="m39.51 46.36 1.32 3.08c.0806275.1915759.2546618.3277767.46.36l3.2.34c.2333126.0407012.4230556.2107634.4889615.4382448.0659058.2274814-.0035407.472636-.1789615.6317552l-2.36 2.2c-.1622255.1538852-.2307286.3822286-.18.6l.67 3.25c.0577354.222005-.0207964.4571798-.2003409.5999501-.1795444.1427703-.426365.1663093-.6296591.0600499l-2.82-1.7c-.1732646-.1000344-.3867354-.1000344-.56 0l-2.82 1.7c-.2032941.1062594-.4501147.0827204-.6296591-.0600499-.1795445-.1427703-.2580763-.3779451-.2003409-.5999501l.67-3.26c.0507286-.2177714-.0177745-.4461148-.18-.6l-2.36-2.2c-.1754208-.1591192-.2448673-.4042738-.1789615-.6317552.0659059-.2274814.2556489-.3975436.4889615-.4382448l3.2-.34c.2053382-.0322233.3793725-.1684241.46-.36l1.32-3.08c.0776396-.21634.2837159-.3598239.5135546-.3575706s.4330623.14975.5064454.3675706z" fill="#f29c1f"/><path id="Shape" d="m23.51 46.36 1.32 3.08c.0806275.1915759.2546618.3277767.46.36l3.2.34c.2333126.0407012.4230556.2107634.4889615.4382448.0659058.2274814-.0035407.472636-.1789615.6317552l-2.36 2.2c-.1622255.1538852-.2307286.3822286-.18.6l.67 3.25c.0577354.222005-.0207964.4571798-.2003409.5999501-.1795444.1427703-.426365.1663093-.6296591.0600499l-2.82-1.7c-.1732646-.1000344-.3867354-.1000344-.56 0l-2.82 1.7c-.2032941.1062594-.4501147.0827204-.6296591-.0600499-.1795445-.1427703-.2580763-.3779451-.2003409-.5999501l.67-3.26c.0507286-.2177714-.0177745-.4461148-.18-.6l-2.36-2.2c-.1754208-.1591192-.2448673-.4042738-.1789615-.6317552.0659059-.2274814.2556489-.3975436.4889615-.4382448l3.2-.34c.2053382-.0322233.3793725-.1684241.46-.36l1.32-3.08c.0776396-.21634.2837159-.3598239.5135546-.3575706s.4330623.14975.5064454.3675706z" fill="#f0c419"/></g></svg>