<svg id="Capa_1" enable-background="new 0 0 58 58" height="512" viewBox="0 0 58 58" width="512" xmlns="http://www.w3.org/2000/svg"><g transform="translate(0 -1)"><path id="Shape" d="m35 19c1.7 0 3 1.3 3 3v3c0 1.7-1.3 3-3 3h-1v.4c0 4.1-1.3 7.8-5.6 10.6-.8 1.6-1.2 3.3-1.1 5.1 0 .8.4 1.6 1 2.2 1.5 1.3 3.2 2.4 5 3.1 3.2 1.1 12.7 1.1 12.7 6.6v3h-46v-3c0-5.5 9.5-5.5 12.7-6.6 1.8-.7 3.5-1.8 5-3.1.6-.5 1-1.3 1-2.2 0-1.8-.3-3.5-1.1-5.1-2.4-1.5-4.2-3.8-5-6.5-1.4 4.7-3.7 7.2-9.6 7.5 6.9-8.5 3-16.5 4.3-24.5 1.1-6.3 4.1-12.4 10.9-14.1 3.4-.9 7-.5 10.1 1 .8.4 1.5 1 2.1 1.8 0 .1.4.9.4.9 6.7.1 8.3 9.8 4.2 13.9z" fill="#ff5364"/><path d="m46.5 59 5.9-3.4c2.9-1.7 4.8-4.8 5-8.1l.6-10.5c-7.7 0-11.5-4-11.5-4s-3.8 4-11.5 4l.6 10.5c.2 3.4 2.1 6.5 5 8.1z" fill="#285680"/><path d="m42.6 52.2c-1.8-1-2.9-2.9-3-4.9l-.4-6.6c2.6-.4 5.1-1.3 7.3-2.6 2.2 1.3 4.7 2.2 7.3 2.7l-.4 6.6c-.1 2-1.2 3.9-3 4.9l-3.9 2.2z" fill="#3b97d3"/></g></svg>