<svg height="512" viewBox="0 0 52 58" width="512" xmlns="http://www.w3.org/2000/svg"><g id="017---Female-User" fill="none"><path id="Shape" d="m51.88 53c-2.3977636 1.410854-5.0082404 2.4239757-7.73 3-10.57 2.66-25.78 2.68-36.42 0-5.81-1.45-7.56-3-7.73-3 0 0 .88-4 4.88-4 7.22 0 11.32-3.14 13-4.88.3327216-.3335529.5288707-.7793465.55-1.25.0517801-1.6215103-.1506722-3.2411282-.6-4.8h16.11c-.470472 1.5310785-.6866742 3.1289482-.64 4.73.0174648.4872031.2215375.9490517.57 1.29 1.7 1.73 5.85 4.91 13.13 4.91 4 0 4.88 4 4.88 4z" fill="#fdd7ad"/><path id="Shape" d="m41.79 48.39c0 .19-2.95 1.63-3 8.65-2.5511011.426799-5.1258998.6973032-7.71.81 4.83-2.72 5.44-11.34 5.58-11.56 1.5855336.9721258 3.3179217 1.6812905 5.13 2.1z" fill="#2fa8cc"/><path id="Shape" d="m33.94 38.07c-.2849996.9114501-.4759942 1.849669-.57 2.8-1.47 1.77-3.58 3.94-5.84 4.82-1.0617851.4100556-2.2382149.4100556-3.3 0-2.27-.88-4.38-3.06-5.84-4.83-.0975575-.9432988-.2748582-1.8766366-.53-2.79z" fill="#f9c795"/><path id="Shape" d="m20.67 57.85c-2.5693528-.153949-5.1292842-.4376442-7.67-.85-.07-6.9-2.94-8.52-3-8.62 1.8159729-.41633 3.5520271-1.1256129 5.14-2.1 0 0 .75 8.88 5.53 11.57z" fill="#2fa8cc"/><path id="Shape" d="m17.4 37.54c-4.2508081-.4056122-8.44720104-1.2569571-12.52-2.54-6-2-4-7-1-10s3-7 3-13c0-8.06 6-12 12-12s7 3 7 3 1-3 7-3 12 3.94 12 12c0 6 0 10 3 13s5 8-1 10c-4.072799 1.2830429-8.2691919 2.1343878-12.52 2.54z" fill="#805333"/><path id="Shape" d="m18.42 37.54c-3.7540964-.4093612-7.4464877-1.2619679-11-2.54-5.28-2-3.52-7-.88-10s2.63-7 2.63-13c0-8.06 5.28-12 10.56-12s6.15 3 6.15 3 .88-3 6.12-3 10.59 3.94 10.59 12c0 6 0 10 2.63 13s4.4 8-.88 10c-3.5535123 1.2780321-7.2459036 2.1306388-11 2.54z" fill="#a56a43"/><path id="Shape" d="m37.55 27.72c.65 3.18-.29 6-3.16 9.78-1.39 1.82-4 5-6.86 6.11-3.74 1.5-7.71-2.9-10.16-6.11-2.87-3.75-3.81-6.6-3.16-9.78.79-3.72-.21-3.18-.36-8.06 2.7082767-2.1449463 4.4964735-5.2421033 5-8.66 0 0 0 2 3 3-.0043858-1.0825582.3469564-2.1365849 1-3 0 0 3.59 7.18 15 8.78-.13 4.75-1.06 4.22-.3 7.94z" fill="#fdd7ad"/><path id="Shape" d="m11.88 22c-.4608398-.0027311-.8601381-.3200462-.96688-.7683619-.1067418-.4483157.1067173-.9115255.51688-1.1216381 3.4338598-1.956005 5.8059791-5.3526156 6.46-9.25.03866-.5522847.5177153-.96865988 1.07-.92999994.5522847.03865993.9686599.51771524.93 1.06999994.1369312.6614355.5675486 1.2245505 1.17 1.53.24-1 .92-2.68 2-2.52.3157393.0527803.5871257.2535319.73.54.16.31 4 7.51 16.19 8.45.265544.0203885.5119851.1458604.6846882.3485989.1727032.2027385.2573994.465993.2353118.7314011-.0201777.2693518-.1484582.519086-.3556507.6923742-.2071924.1732883-.4756736.2553912-.7443493.2276258-10-.77-14.87-5.49-16.8-8-.0716533.3287683-.1118346.6636132-.12 1 .0008335.3226006-.154014.6257891-.4158539.8142345-.26184.1884454-.598508.2389991-.9041461.1357655-.8432774-.2596362-1.6231911-.6921648-2.29-1.27-1.2245429 3.4972521-3.6954269 6.4203007-6.94 8.21-.1383204.0740366-.2931229.1118772-.45.11z" fill="#805333"/></g></svg>