<svg height="512" viewBox="0 0 52 58" width="512" xmlns="http://www.w3.org/2000/svg"><g id="011---Female-User" fill="none"><path id="Shape" d="m41.39 48.26c-.09-1.26-.64-9.59-.39-10.92.634376-2.9880253 1.8508426-5.8219168 3.58-8.34 1.4-2.24 3.57-4.68 3.41-7.46-.12-2.17-1.4-4.19-2.46-6-3.46-6.17-8.53-11.72-15.22-14.54-9.07-3.93-17.11 4.8-21.63 11.3-1.83 2.62-4.42 6-4.59 9.24-.29411121 3.1071146 1.02282822 6.1485278 3.49 8.06 3.1353125 2.6825921 4.6724422 6.7878991 4.07 10.87-.36 3.14-3 6.88-4.11 8.39z" fill="#805333"/><path id="Shape" d="m39.34 48.26c-.08-1.32-.55-9.59-.37-10.92.5387407-2.9456181 1.602301-5.7704885 3.14-8.34 1.21-2.24 3.09-4.68 3-7.46-.1-2.17-1.21-4.19-2.13-6-3.05-6.17-7.46-11.72-13.24-14.54-7.86-3.93-14.83 4.8-18.74 11.3-1.59 2.62-3.84 6-4 9.24-.29219584 3.0049902.81414563 5.977361 3 8.06 2.7916848 2.8840684 4.0945491 6.8960047 3.53 10.87-.27 3.14-2.53 6.88-3.53 8.39z" fill="#a56a43"/><path id="Shape" d="m52 53c-2.3977636 1.410854-5.0082404 2.4239757-7.73 3-10.57 2.66-25.78 2.68-36.42 0-5.85-1.45-7.56-3-7.73-3 0 0 .88-4 4.88-4 7.22 0 11.32-3.14 13-4.88.3327216-.3335529.5288707-.7793465.55-1.25.0517801-1.6215103-.1506722-3.2411282-.6-4.8h16.11c-.470472 1.5310785-.6866742 3.1289482-.64 4.73.0201154.4886182.2278575.9506653.58 1.29 1.69 1.73 5.84 4.91 13.12 4.91 4 0 4.88 4 4.88 4z" fill="#fdd7ad"/><path id="Shape" d="m41.91 48.39c0 .19-2.95 1.63-3 8.65-2.5511011.426799-5.1258998.6973032-7.71.81 4.83-2.72 5.44-11.34 5.58-11.56 1.5855336.9721258 3.3179217 1.6812905 5.13 2.1z" fill="#2fa8cc"/><path id="Shape" d="m20.79 57.85c-2.5827345-.1526034-5.1560502-.4363022-7.71-.85-.07-6.9-2.94-8.52-3-8.62 1.8159729-.41633 3.5520271-1.1256129 5.14-2.1 0 0 .78 8.88 5.57 11.57z" fill="#2fa8cc"/><path id="Shape" d="m34.06 38.07c-.2849996.9114501-.4759942 1.849669-.57 2.8-1.47 1.77-3.58 3.94-5.84 4.82-1.0617851.4100556-2.2382149.4100556-3.3 0-2.27-.88-4.38-3.06-5.84-4.83-.0910056-.9427197-.2616141-1.8760488-.51-2.79z" fill="#f9c795"/><path id="Shape" d="m34.51 37.5c-2.54 3.22-6.34 7.64-10.16 6.11-2.55-1-4.91-3.7-6.37-5.54-2.53-3.24-4.48-6.31-3.65-10.35.4086911-1.570514.4086911-3.219486 0-4.79 5.81-.93 9.29-3.2 11.36-5.48 1.3944339-1.5486748 2.3778164-3.422603 2.86-5.45.14-.68.07-.81.09 0 .0052132 2.9647715 1.0691124 5.8302067 3 8.08 1.6052278 1.6352609 3.7233715 2.6696211 6 2.93-.4059557 1.543758-.4059557 3.166242 0 4.71.68 3.18-.26 6.03-3.13 9.78z" fill="#fdd7ad"/><path id="Shape" d="m37.61 23.53c-.1566621.6550188-.2338845 1.3265183-.23 2-4.5129196-.569595-8.186456-3.9033592-9.19-8.34-1.73 3.06-5.48 6.92-13.57 8.26-.0091006-.6738615-.092947-1.3446325-.25-2 6.2-1 9.51-3.65 11.27-6 1.4125072-1.5433096 2.413322-3.417688 2.91-5.45h.09c.0052132 2.9647715 1.0691124 5.8302067 3 8.08 1.4378572 1.9142049 3.5935551 3.15996 5.97 3.45z" fill="#f9c795"/><path id="Shape" d="m12.27 24.18c-.5522847.0276142-1.0223857-.3977153-1.05-.95-.0276142-.5522847.3977153-1.0223858.95-1.05 1.9-.2 1.84-.25 2-.26 13.4-2.18 13.52-11.52 13.47-10.52 0-.5522847.4477153-1 1-1s1 .4477153 1 1c0 6.53 3.61 10.73 10.4 10.73.5522847 0 1 .4477153 1 1s-.4477153 1-1 1c-6.4 0-10.39-3.19-11.85-8.55-1.74 3.08-5.53 7-13.74 8.29-.2.13-1.91.31-2.18.31z" fill="#805333"/></g></svg>