<svg height="512" viewBox="0 0 52 58" width="512" xmlns="http://www.w3.org/2000/svg"><g id="015---Female-User" fill="none" transform="translate(0 -1)"><path id="Shape" d="m46.88 44c-3.0871425 1.5732516-6.3499113 2.774971-9.72 3.58h-22.51c-3.3871011-.8017077-6.66681007-2.0034843-9.77-3.58 7-8 1-23 3-32 1.38-6.22 5.12-6.71 7.35-6.41.5654364.06462529 1.1200793.20244565 1.65.41 0 0 .08-.13.25-.36.3764011.07605941.7423397.19691986 1.09.36 0 0 2-3.82 7.56-4.79.9285559-.1234259 1.8634216-.19354083 2.8-.21 7.87 0 13.42 3.27 15.3 11 2.24 8.94-4 24 3 32z" fill="#805333"/><path id="Shape" d="m43.76 44c-2.590198 1.5529608-5.3743119 2.7567202-8.28 3.58h-19.16c-2.9190789-.8211906-5.7166846-2.024968-8.32-3.58 6-8 .85-23 2.55-32 .74-3.91 2.7-7.18 6.58-6.36.3764011.07605941.7423397.19691986 1.09.36 0 0 2-3.82 7.56-4.79.9249099-.1557884 1.8621996-.22608512 2.8-.21 9.25 0 11.77 7 12.63 11 1.9 8.94-3.41 24 2.55 32z" fill="#a56a43"/><path id="Shape" d="m51.88 54c-2.3977636 1.410854-5.0082404 2.4239757-7.73 3-10.57 2.66-25.78 2.68-36.42 0-5.81-1.45-7.56-3-7.73-3 0 0 .88-4 4.88-4 7.22 0 11.32-3.14 13-4.88.3327216-.3335529.5288707-.7793465.55-1.25.0517801-1.6215103-.1506722-3.2411282-.6-4.8h16.11c-.470472 1.5310785-.6866742 3.1289482-.64 4.73.0174648.4872031.2215375.9490517.57 1.29 1.7 1.73 5.85 4.91 13.13 4.91 4 0 4.88 4 4.88 4z" fill="#fdd7ad"/><path id="Shape" d="m41.79 49.39c0 .19-2.95 1.63-3 8.65-2.5511011.426799-5.1258998.6973032-7.71.81 4.83-2.72 5.44-11.34 5.58-11.56 1.5855336.9721258 3.3179217 1.6812905 5.13 2.1z" fill="#955ba5"/><path id="Shape" d="m20.67 58.85c-2.5693528-.153949-5.1292842-.4376442-7.67-.85-.07-6.9-2.94-8.52-3-8.62 1.8159729-.41633 3.5520271-1.1256129 5.14-2.1 0 0 .75 8.88 5.53 11.57z" fill="#955ba5"/><path id="Shape" d="m33.94 39.07c-.2849996.9114501-.4759942 1.849669-.57 2.8-1.47 1.77-3.58 3.94-5.84 4.82-1.0617851.4100556-2.2382149.4100556-3.3 0-2.27-.88-4.38-3.06-5.84-4.83-.0975575-.9432988-.2748582-1.8766366-.53-2.79z" fill="#f9c795"/><path id="Shape" d="m37.55 28.72c.65 3.18-.29 6-3.16 9.78-1.39 1.82-4 5-6.86 6.11-3.74 1.5-7.71-2.9-10.16-6.11-2.87-3.75-3.81-6.6-3.16-9.78s0-3.25-.27-6.5c1.5305388-2.510726 2.5310652-5.3081163 2.94-8.22.1481525 2.0488519 1.2619083 3.9051116 3 5 .0528112-1.8510688.7616434-3.6231494 2-5 3.8004232 5.0643535 9.5572474 8.2948538 15.86 8.9-.3 2.59-.82 2.81-.19 5.82z" fill="#fdd7ad"/><path id="Shape" d="m11.88 26c-.4062651.0023626-.77358-.2413038-.929371-.6165185-.1557909-.3752147-.0690889-.807391.219371-1.0934815 2.5620065-2.9386381 4.2034119-6.5657267 4.72-10.43.0726705-.5419159.5671101-.9249952 1.11-.86.5247754.036823.9312903.4739358.93 1 .0917686 1.1100459.536869 2.1614642 1.27 3 .3228256-1.4050532 1.0130178-2.6991636 2-3.75.2115214-.2124022.5071702-.3187136.8055182-.2896538.298348.0290599.5679244.1904257.7344818.4396538 4.0670223 5.3737799 10.4008712 8.5517905 17.14 8.6.5522847 0 1 .4477153 1 1s-.4477153 1-1 1c-6.9457977.0140544-13.5395099-3.0556849-18-8.38-.6063112 1.0272469-.9497956 2.1882244-1 3.38-.0018915.3668574-.2045104.7032263-.5279231.8764086-.3234128.1731823-.7156897.1553705-1.0220769-.0464086-.8880007-.5781463-1.6499337-1.3298749-2.24-2.21-.8738781 3.0001988-2.4118925 5.7652069-4.5 8.09-.1887188.1871865-.444197.2915368-.71.29z" fill="#805333"/></g></svg>