<svg height="512" viewBox="0 0 59 58" width="512" xmlns="http://www.w3.org/2000/svg"><g id="035---Female-User-Account-Settings" fill="none"><circle id="Oval" cx="29" cy="29" fill="#3d324c" r="29"/><path id="Shape" d="m44 41.34c-.0530926.3070392-.0765338.6184728-.07.93 0 1.93.16 4.41.28 6.6-1.9222172 1.463917-4.0436289 2.6458464-6.3 3.51l-16.9.3c-2.7803041-.9367039-5.3709755-2.3624198-7.65-4.21.6655083-1.2488866 1.115173-2.6012619 1.33-4 .5928406-4.0892893-.9599019-8.1959341-4.11-10.87-2.46717178-1.9114722-3.78411121-4.9528854-3.49-8.06.17-3.26 2.76-6.62 4.59-9.24 3.63-5.22 9.52-11.86 16.38-12.3h.26c.331554-.04870824.668446-.04870824 1 0 1.3840844.08060108 2.7408191.41978475 4 1 6.68 2.82 11.75 8.37 15.21 14.44 1.06 1.86 2.34 3.88 2.46 6 .16 2.78-2 5.22-3.41 7.46-1.58 2.63-3.17 5.43-3.58 8.44z" fill="#805333"/><path id="Shape" d="m42 41.34c-.16 1.24.19 7.64.26 8.88-1.3583456.8522813-2.7989199 1.5658682-4.3 2.13l-16.96.35c-2.1835909-.737957-4.2560969-1.7708455-6.16-3.07.8599736-1.6091028 1.4351194-3.3548394 1.7-5.16.5619382-3.9755866-.7446932-7.9877572-3.54-10.87-2.1858544-2.082639-3.29219584-5.0550098-3-8.06.14-3.26 2.39-6.62 4-9.24 3.13-5.21 8.22-11.83 14.16-12.3h.16c.0997521-.0099584.2002479-.0099584.3 0h.69c1.1989723.09914855 2.3655987.43927289 3.43 1 5.78 2.86 10.19 8.41 13.19 14.48.92 1.86 2 3.88 2.13 6 .14 2.78-1.74 5.22-3 7.46-1.5202211 2.5916121-2.5570504 5.4378104-3.06 8.4z" fill="#a56a43"/><path id="Shape" d="m41 51c-7.456006 4.061932-16.463994 4.061932-23.92 0 1.4822806-.721394 2.8340989-1.6845645 4-2.85.3327216-.3335529.5288707-.7793465.55-1.25.0517801-1.6215103-.1506722-3.2411282-.6-4.8h16.03c-.4681928 1.5315785-.6843441 3.1290719-.64 4.73.0276374.4780846.2347877.9281006.58 1.26 1.1638306 1.1838362 2.5153909 2.1670964 4 2.91z" fill="#fdd7ad"/><path id="Shape" d="m37.06 42.07c-.2849996.9114501-.4759942 1.849669-.57 2.8-1.47 1.77-3.58 3.94-5.84 4.82-1.0617851.4100556-2.2382149.4100556-3.3 0-2.27-.88-4.38-3.06-5.84-4.83-.0919886-.9425824-.2625821-1.8758294-.51-2.79z" fill="#f9c795"/><path id="Shape" d="m37.51 41.5c-2.54 3.22-6.34 7.64-10.16 6.11-2.55-1-4.91-3.69-6.37-5.54-2.53-3.24-4.48-6.3-3.65-10.35.4086911-1.570514.4086911-3.219486 0-4.79 5.81-.93 9.29-3.2 11.36-5.48 1.3944339-1.5486748 2.3778164-3.422603 2.86-5.45.14-.68.07-.8.09 0 .0052132 2.9647715 1.0691124 5.8302067 3 8.08 1.6052278 1.6352609 3.7233715 2.6696211 6 2.93-.4059557 1.543758-.4059557 3.166242 0 4.71.68 3.18-.26 6.03-3.13 9.78z" fill="#fdd7ad"/><path id="Shape" d="m40.61 27.53c-.1566621.6550188-.2338845 1.3265183-.23 2-4.5129196-.569595-8.186456-3.9033592-9.19-8.34-1.73 3.06-5.48 6.92-13.57 8.26-.0091006-.6738615-.092947-1.3446325-.25-2 6.2-1 9.51-3.65 11.27-6 1.4125072-1.5433096 2.413322-3.417688 2.91-5.45h.09c.0052132 2.9647715 1.0691124 5.8302067 3 8.08 1.4378572 1.9142049 3.5935551 3.15996 5.97 3.45z" fill="#f9c795"/><path id="Shape" d="m15.27 28.18c-.5522847.0276142-1.0223857-.3977153-1.05-.95-.0276142-.5522847.3977153-1.0223858.95-1.05 1.9-.19 1.84-.25 2-.26 13.4-2.18 13.52-11.51 13.47-10.52.0266663-.5326668.4666665-.9506671 1-.95.5522847 0 1 .4477153 1 1 0 6.54 3.61 10.73 10.4 10.73.5522847 0 1 .4477153 1 1s-.4477153 1-1 1c-6.4 0-10.39-3.19-11.85-8.55-1.74 3.09-5.53 7-13.74 8.29-.2.08-1.91.26-2.18.26z" fill="#805333"/><path id="Shape" d="m53.06 46.69c-.0986784.2791821-.2121729.552904-.34.82-.1666864.3464377-.1440353.754158.06 1.08l1.85 2.78c.2838091.4235073.2294089.9884322-.13 1.35l-1.78 1.78c-.3615678.3594089-.9264927.4138091-1.35.13l-2.78-1.85c-.325842-.2040353-.7335623-.2266864-1.08-.06-.267096.1278271-.5408179.2413216-.82.34-.360799.1263189-.6322529.4279344-.72.8l-.65 3.28c-.0960191.4824523-.5086104.8372809-1 .86h-2.59c-.4913896-.0227191-.9039809-.3775477-1-.86l-.73-3.28c-.0877471-.3720656-.359201-.6736811-.72-.8-.2791821-.0986784-.552904-.2121729-.82-.34-.3464377-.1666864-.754158-.1440353-1.08.06l-2.78 1.85c-.4235073.2838091-.9884322.2294089-1.35-.13l-1.75-1.78c-.3594089-.3615678-.4138091-.9264927-.13-1.35l1.85-2.78c.2040353-.325842.2266864-.7335623.06-1.08-.1278271-.267096-.2413216-.5408179-.34-.82-.1263189-.360799-.4279344-.6322529-.8-.72l-3.28-.65c-.4824523-.0960191-.8372809-.5086104-.86-1v-2.59c.0227191-.4913896.3775477-.9039809.86-1l3.28-.73c.3720656-.0877471.6736811-.359201.8-.72.0986784-.2791821.2121729-.552904.34-.82.1666864-.3464377.1440353-.754158-.06-1.08l-1.85-2.78c-.2838091-.4235073-.2294089-.9884322.13-1.35l1.78-1.78c.3615678-.3594089.9264927-.4138091 1.35-.13l2.78 1.85c.325842.2040353.7335623.2266864 1.08.06.267096-.1278271.5408179-.2413216.82-.34.360799-.1263189.6322529-.4279344.72-.8l.65-3.28c.0960191-.4824523.5086104-.8372809 1-.86h2.54c.4913896.0227191.9039809.3775477 1 .86l.78 3.31c.0877471.3720656.359201.6736811.72.8.2791821.0986784.552904.2121729.82.34.3464377.1666864.754158.1440353 1.08-.06l2.78-1.85c.4235073-.2838091.9884322-.2294089 1.35.13l1.78 1.78c.3594089.3615678.4138091.9264927.13 1.35l-1.85 2.78c-.2040353.325842-.2266864.7335623-.06 1.08.1278271.267096.2413216.5408179.34.82.1263189.360799.4279344.6322529.8.72l3.28.65c.4824523.0960191.8372809.5086104.86 1v2.54c-.0227191.4913896-.3775477.9039809-.86 1l-3.31.78c-.3652053.0818838-.6653733.3407787-.8.69z" fill="#547580"/><circle id="Oval" cx="43" cy="43" fill="#2c3e50" r="3"/></g></svg>