<svg id="Capa_1" enable-background="new 0 0 58 58" height="512" viewBox="0 0 58 58" width="512" xmlns="http://www.w3.org/2000/svg"><g transform="translate(0 -1)"><path id="Shape" d="m35 19c1.7 0 3 1.3 3 3v3c0 1.7-1.3 3-3 3h-1v.4c0 4.1-1.3 7.8-5.6 10.6-.8 1.6-1.2 3.3-1.1 5.1 0 .8.4 1.6 1 2.2 1.5 1.3 3.2 2.4 5 3.1 3.2 1.1 12.7 1.1 12.7 6.6l-1 3h-45v-3c0-5.5 9.5-5.5 12.7-6.6 1.8-.7 3.5-1.8 5-3.1.6-.5 1-1.3 1-2.2 0-1.8-.3-3.5-1.1-5.1-2.4-1.5-4.2-3.8-5-6.5-1.4 4.7-3.7 7.2-9.6 7.5 6.9-8.5 3-16.5 4.3-24.5 1.1-6.3 4.1-12.4 10.9-14.1 3.4-.9 7-.5 10.1 1 .8.4 1.5 1 2.1 1.8 0 .1.4.9.4.9 6.7.1 8.3 9.8 4.2 13.9z" fill="#ff5364"/><circle id="Oval" cx="45" cy="46" fill="#35495e" r="13"/><path d="m53 45v2c0 .6-.4 1-1 1h-4c-.6 0-1 .4-1 1v4c0 .6-.4 1-1 1h-2c-.6 0-1-.4-1-1v-4c0-.6-.4-1-1-1h-4c-.6 0-1-.4-1-1v-2c0-.6.4-1 1-1h4c.6 0 1-.4 1-1v-4c0-.6.4-1 1-1h2c.6 0 1 .4 1 1v4c0 .6.4 1 1 1h4c.6 0 1 .4 1 1z" fill="#e64c3c"/></g></svg>