<?xml version="1.0" encoding="iso-8859-1"?>
<!-- Generator: Adobe Illustrator 19.0.0, SVG Export Plug-In . SVG Version: 6.00 Build 0)  -->
<svg version="1.1" id="Capa_1" xmlns="http://www.w3.org/2000/svg" xmlns:xlink="http://www.w3.org/1999/xlink" x="0px" y="0px"
	 viewBox="0 0 512.008 512.008" style="enable-background:new 0 0 512.008 512.008;" xml:space="preserve">
<g>
	<rect x="185.383" y="432.556" style="fill:#95A5A5;" width="141.241" height="61.793"/>
	<path style="fill:#3D324C;" d="M512.004,115.831l0.004,263.759H0l0.004-263.759c-0.295-19.796,15.514-36.083,35.31-36.378h441.379
		C496.49,79.748,512.299,96.035,512.004,115.831z"/>
	<g>
		<path style="fill:#BDC3C7;" d="M512.004,370.763v35.31c0,19.501-15.809,35.31-35.31,35.31H35.314
			c-19.501,0-35.31-15.809-35.31-35.31v-35.31H512.004z"/>
		<path style="fill:#BDC3C7;" d="M132.418,476.694H379.59c9.751,0,17.655,7.905,17.655,17.655v17.655H114.763v-17.655
			C114.763,484.598,122.667,476.694,132.418,476.694z"/>
	</g>
	<g>
		<path style="fill:#FF5364;" d="M44.142,247.176h-8.828c-4.875,0-8.828-3.952-8.828-8.828s3.952-8.828,8.828-8.828h8.828
			c4.875,0,8.828,3.952,8.828,8.828S49.017,247.176,44.142,247.176z"/>
		<path style="fill:#FF5364;" d="M105.935,247.176H79.452c-4.875,0-8.828-3.952-8.828-8.828s3.952-8.828,8.828-8.828h26.483
			c4.875,0,8.828,3.952,8.828,8.828S110.81,247.176,105.935,247.176z"/>
		<path style="fill:#FF5364;" d="M105.935,282.487H35.314c-4.875,0-8.828-3.952-8.828-8.828c0-4.875,3.952-8.828,8.828-8.828h70.621
			c4.875,0,8.828,3.952,8.828,8.828C114.763,278.535,110.81,282.487,105.935,282.487z"/>
		<path style="fill:#FF5364;" d="M476.694,247.176h-8.828c-4.875,0-8.828-3.952-8.828-8.828s3.952-8.828,8.828-8.828h8.828
			c4.875,0,8.828,3.952,8.828,8.828S481.569,247.176,476.694,247.176z"/>
		<path style="fill:#FF5364;" d="M432.556,247.176h-26.483c-4.875,0-8.828-3.952-8.828-8.828s3.952-8.828,8.828-8.828h26.483
			c4.875,0,8.828,3.952,8.828,8.828S437.431,247.176,432.556,247.176z"/>
		<path style="fill:#FF5364;" d="M476.694,282.487h-70.621c-4.875,0-8.828-3.952-8.828-8.828c0-4.875,3.952-8.828,8.828-8.828
			h70.621c4.875,0,8.828,3.952,8.828,8.828C485.521,278.535,481.569,282.487,476.694,282.487z"/>
		<path style="fill:#FF5364;" d="M397.245,0.004c4.875,0,8.828,3.952,8.828,8.828v94.27c0,0,0,145.223-150.069,232.351
			c-150.069-87.128-150.069-232.351-150.069-232.351V8.832c0-4.875,3.952-8.828,8.828-8.828H397.245z"/>
	</g>
	<g>
		<path style="fill:#F0C419;" d="M256.004,282.487c-4.875,0-8.828-3.952-8.828-8.828V35.314c0-4.875,3.952-8.828,8.828-8.828
			s8.828,3.952,8.828,8.828v238.345C264.832,278.535,260.879,282.487,256.004,282.487z"/>
		<path style="fill:#F0C419;" d="M370.763,141.245H141.245c-4.875,0-8.828-3.952-8.828-8.828s3.952-8.828,8.828-8.828h229.517
			c4.875,0,8.828,3.952,8.828,8.828S375.638,141.245,370.763,141.245z"/>
	</g>
	<path style="fill:#F29C1F;" d="M308.97,344.28H203.039c-4.875,0-8.828-3.952-8.828-8.828s3.952-8.828,8.828-8.828H308.97
		c4.875,0,8.828,3.952,8.828,8.828S313.845,344.28,308.97,344.28z"/>
</g>
<g>
</g>
<g>
</g>
<g>
</g>
<g>
</g>
<g>
</g>
<g>
</g>
<g>
</g>
<g>
</g>
<g>
</g>
<g>
</g>
<g>
</g>
<g>
</g>
<g>
</g>
<g>
</g>
<g>
</g>
</svg>
