<?xml version="1.0" encoding="iso-8859-1"?>
<!-- Generator: Adobe Illustrator 19.0.0, SVG Export Plug-In . SVG Version: 6.00 Build 0)  -->
<svg version="1.1" id="Capa_1" xmlns="http://www.w3.org/2000/svg" xmlns:xlink="http://www.w3.org/1999/xlink" x="0px" y="0px"
	 viewBox="0 0 512 512" style="enable-background:new 0 0 512 512;" xml:space="preserve">
<g>
	<path style="fill:#F3D55B;" d="M452.267,59.733v341.333H204.8c-9.414,0.028-17.039,7.653-17.067,17.067v34.133
		c0,28.277-22.923,51.2-51.2,51.2H128c-28.277,0-51.2-22.923-51.2-51.2V110.933H42.667c-9.414-0.028-17.039-7.653-17.067-17.067
		V59.733c0-28.277,22.923-51.2,51.2-51.2h324.267C429.344,8.533,452.267,31.456,452.267,59.733z"/>
	<path style="fill:#B19046;" d="M136.533,512H128c-32.974-0.038-59.696-26.759-59.733-59.733v-332.8h-25.6
		c-14.138,0-25.6-11.462-25.6-25.6V59.733C17.104,26.759,43.826,0.038,76.8,0h324.267c32.974,0.038,59.696,26.759,59.733,59.733
		v341.333c0,4.713-3.82,8.533-8.533,8.533H204.8c-4.713,0-8.533,3.82-8.533,8.533v34.133
		C196.229,485.241,169.508,511.962,136.533,512z M76.8,17.067c-23.552,0.028-42.638,19.114-42.667,42.667v34.133
		c0,4.713,3.821,8.533,8.533,8.533H76.8c4.713,0,8.533,3.821,8.533,8.533v341.333c0.028,23.552,19.114,42.638,42.667,42.667h8.533
		c23.552-0.028,42.638-19.114,42.667-42.667v-34.133c0-14.138,11.462-25.6,25.6-25.6h238.933v-332.8
		c-0.028-23.552-19.114-42.638-42.667-42.667H76.8z"/>
	<path style="fill:#7F5B53;" d="M151.979,282.88v-0.085c14.042-9.534,21.099-26.484,17.97-43.166
		c-3.129-16.682-15.848-29.923-32.391-33.72c2.23-18.075,8.343-35.453,17.92-50.944c13.094,8.759,29.949,9.59,43.841,2.162
		c13.892-7.428,22.561-21.907,22.548-37.661c-0.005-5.839-1.196-11.616-3.499-16.981c63.96-24.717,136.037,5.357,163.459,68.205
		s0.449,136.141-61.172,166.219C259.034,366.986,184.656,343.162,151.979,282.88z"/>
	<path style="fill:#F3D55B;" d="M486.4,418.133v34.133c0,28.277-22.923,51.2-51.2,51.2H136.533c28.277,0,51.2-22.923,51.2-51.2
		v-34.133c0.028-9.414,7.653-17.039,17.067-17.067h264.533C478.747,401.095,486.372,408.719,486.4,418.133z"/>
	<g>
		<path style="fill:#B19046;" d="M76.8,119.467c-4.713,0-8.533-3.821-8.533-8.533v-51.2c0-4.713,3.821-8.533,8.533-8.533
			s8.533,3.821,8.533,8.533v51.2C85.333,115.646,81.513,119.467,76.8,119.467z"/>
		<path style="fill:#B19046;" d="M435.2,512H136.533c-4.713,0-8.533-3.82-8.533-8.533c0-4.713,3.821-8.533,8.533-8.533
			c23.552-0.028,42.638-19.114,42.667-42.667v-34.133c0-14.138,11.462-25.6,25.6-25.6h264.533c14.138,0,25.6,11.462,25.6,25.6
			v34.133C494.896,485.241,468.174,511.962,435.2,512z M178.347,494.933H435.2c23.552-0.028,42.638-19.114,42.667-42.667v-34.133
			c0-4.713-3.821-8.533-8.533-8.533H204.8c-4.713,0-8.533,3.82-8.533,8.533v34.133C196.288,468.323,189.827,483.708,178.347,494.933
			z"/>
	</g>
	<g>
		<circle style="fill:#CB8252;" cx="273.067" cy="162.133" r="25.6"/>
		<circle style="fill:#CB8252;" cx="341.333" cy="213.333" r="17.067"/>
		<circle style="fill:#CB8252;" cx="221.867" cy="290.133" r="17.067"/>
		<path style="fill:#CB8252;" d="M298.667,298.667c-3.852-0.022-7.211-2.622-8.198-6.345c-0.988-3.723,0.641-7.646,3.975-9.575
			c3.334-1.929,7.547-1.384,10.282,1.328c0.341,0.427,0.683,0.853,1.024,1.365c0.335,0.437,0.595,0.928,0.768,1.451
			c0.248,0.482,0.418,1.001,0.503,1.536c0.106,0.563,0.166,1.134,0.179,1.707c0.023,2.27-0.869,4.454-2.474,6.059
			C303.121,297.798,300.937,298.69,298.667,298.667z"/>
		<path style="fill:#CB8252;" d="M204.8,230.4c-4.713,0-8.533-3.821-8.533-8.533c0-4.713,3.821-8.533,8.533-8.533
			c4.713,0,8.533,3.821,8.533,8.533c-0.013,0.573-0.073,1.144-0.179,1.707c-0.085,0.535-0.255,1.054-0.503,1.536
			c-0.173,0.523-0.433,1.013-0.768,1.451c-0.341,0.512-0.683,0.939-1.024,1.365C209.222,229.483,207.059,230.367,204.8,230.4z"/>
		<path style="fill:#CB8252;" d="M264.533,238.933c-4.713,0-8.533-3.821-8.533-8.533s3.821-8.533,8.533-8.533
			s8.533,3.82,8.533,8.533c-0.013,0.573-0.073,1.144-0.179,1.707c-0.085,0.535-0.255,1.054-0.503,1.536
			c-0.173,0.523-0.433,1.013-0.768,1.451c-0.341,0.512-0.683,0.939-1.024,1.365C268.956,238.017,266.792,238.9,264.533,238.933z"/>
	</g>
</g>
<g>
</g>
<g>
</g>
<g>
</g>
<g>
</g>
<g>
</g>
<g>
</g>
<g>
</g>
<g>
</g>
<g>
</g>
<g>
</g>
<g>
</g>
<g>
</g>
<g>
</g>
<g>
</g>
<g>
</g>
</svg>
