<?xml version="1.0" encoding="iso-8859-1"?>
<!-- Generator: Adobe Illustrator 19.0.0, SVG Export Plug-In . SVG Version: 6.00 Build 0)  -->
<svg version="1.1" id="Capa_1" xmlns="http://www.w3.org/2000/svg" xmlns:xlink="http://www.w3.org/1999/xlink" x="0px" y="0px"
	 viewBox="0 0 512 512" style="enable-background:new 0 0 512 512;" xml:space="preserve">
<g>
	<path style="fill:#B0D3F0;" d="M452.267,59.733v341.333H204.8c-9.414,0.028-17.039,7.653-17.067,17.067v34.133
		c0,28.277-22.923,51.2-51.2,51.2H128c-28.277,0-51.2-22.923-51.2-51.2V110.933H42.667c-9.414-0.028-17.039-7.653-17.067-17.067
		V59.733c0-28.277,22.923-51.2,51.2-51.2h324.267C429.344,8.533,452.267,31.456,452.267,59.733z"/>
	<path style="fill:#90BAE1;" d="M136.533,512H128c-32.974-0.038-59.696-26.759-59.733-59.733v-332.8h-25.6
		c-14.138,0-25.6-11.462-25.6-25.6V59.733C17.104,26.759,43.826,0.038,76.8,0h324.267c32.974,0.038,59.696,26.759,59.733,59.733
		v341.333c0,4.713-3.82,8.533-8.533,8.533H204.8c-4.713,0-8.533,3.82-8.533,8.533v34.133
		C196.229,485.241,169.508,511.962,136.533,512z M76.8,17.067c-23.552,0.028-42.638,19.114-42.667,42.667v34.133
		c0,4.713,3.821,8.533,8.533,8.533H76.8c4.713,0,8.533,3.821,8.533,8.533v341.333c0.028,23.552,19.114,42.638,42.667,42.667h8.533
		c23.552-0.028,42.638-19.114,42.667-42.667v-34.133c0-14.138,11.462-25.6,25.6-25.6h238.933v-332.8
		c-0.028-23.552-19.114-42.638-42.667-42.667H76.8z"/>
	<path style="fill:#B0D3F0;" d="M486.4,418.133v34.133c0,28.277-22.923,51.2-51.2,51.2H136.533c28.277,0,51.2-22.923,51.2-51.2
		v-34.133c0.028-9.414,7.653-17.039,17.067-17.067h264.533C478.747,401.095,486.372,408.719,486.4,418.133z"/>
	<g>
		<path style="fill:#90BAE1;" d="M76.8,119.467c-4.713,0-8.533-3.821-8.533-8.533v-51.2c0-4.713,3.821-8.533,8.533-8.533
			s8.533,3.821,8.533,8.533v51.2C85.333,115.646,81.513,119.467,76.8,119.467z"/>
		<path style="fill:#90BAE1;" d="M435.2,512H136.533c-4.713,0-8.533-3.82-8.533-8.533c0-4.713,3.821-8.533,8.533-8.533
			c23.552-0.028,42.638-19.114,42.667-42.667v-34.133c0-14.138,11.462-25.6,25.6-25.6h264.533c14.138,0,25.6,11.462,25.6,25.6
			v34.133C494.896,485.241,468.174,511.962,435.2,512z M178.347,494.933H435.2c23.552-0.028,42.638-19.114,42.667-42.667v-34.133
			c0-4.713-3.821-8.533-8.533-8.533H204.8c-4.713,0-8.533,3.82-8.533,8.533v34.133C196.288,468.323,189.827,483.708,178.347,494.933
			z"/>
	</g>
	<path style="fill:#FFFFFF;" d="M324.267,221.867H204.8c-4.713,0-8.533-3.821-8.533-8.533V179.2
		c0-37.703,30.564-68.267,68.267-68.267S332.8,141.497,332.8,179.2v34.133c0,2.263-0.899,4.434-2.499,6.034
		S326.53,221.867,324.267,221.867z M213.333,204.8h102.4v-25.6c0-28.277-22.923-51.2-51.2-51.2s-51.2,22.923-51.2,51.2V204.8z"/>
	<path style="fill:#F0C419;" d="M187.733,204.8h153.6c4.713,0,8.533,3.82,8.533,8.533V307.2c0,28.277-22.923,51.2-51.2,51.2H230.4
		c-28.277,0-51.2-22.923-51.2-51.2v-93.867C179.2,208.621,183.021,204.8,187.733,204.8z"/>
	<g>
		<path style="fill:#E57E25;" d="M264.533,290.133c-14.139,0-25.6-11.462-25.6-25.6c0-14.139,11.462-25.6,25.6-25.6
			c14.138,0,25.6,11.462,25.6,25.6C290.133,278.672,278.672,290.133,264.533,290.133z M264.533,256
			c-4.713,0-8.533,3.821-8.533,8.533s3.821,8.533,8.533,8.533s8.533-3.82,8.533-8.533S269.246,256,264.533,256z"/>
		<path style="fill:#E57E25;" d="M264.533,315.733c-4.713,0-8.533-3.82-8.533-8.533v-25.6c0-4.713,3.821-8.533,8.533-8.533
			s8.533,3.82,8.533,8.533v25.6C273.067,311.913,269.246,315.733,264.533,315.733z"/>
		<path style="fill:#E57E25;" d="M204.8,247.467h-25.6c-4.713,0-8.533-3.821-8.533-8.533c0-4.713,3.821-8.533,8.533-8.533h25.6
			c4.713,0,8.533,3.821,8.533,8.533C213.333,243.646,209.513,247.467,204.8,247.467z"/>
		<path style="fill:#E57E25;" d="M204.8,281.6h-25.6c-4.713,0-8.533-3.82-8.533-8.533s3.821-8.533,8.533-8.533h25.6
			c4.713,0,8.533,3.82,8.533,8.533S209.513,281.6,204.8,281.6z"/>
		<path style="fill:#E57E25;" d="M204.8,315.733h-25.6c-4.713,0-8.533-3.82-8.533-8.533s3.821-8.533,8.533-8.533h25.6
			c4.713,0,8.533,3.82,8.533,8.533S209.513,315.733,204.8,315.733z"/>
		<path style="fill:#E57E25;" d="M349.867,247.467h-25.6c-4.713,0-8.533-3.821-8.533-8.533c0-4.713,3.821-8.533,8.533-8.533h25.6
			c4.713,0,8.533,3.821,8.533,8.533C358.4,243.646,354.579,247.467,349.867,247.467z"/>
		<path style="fill:#E57E25;" d="M349.867,281.6h-25.6c-4.713,0-8.533-3.82-8.533-8.533s3.821-8.533,8.533-8.533h25.6
			c4.713,0,8.533,3.82,8.533,8.533S354.579,281.6,349.867,281.6z"/>
		<path style="fill:#E57E25;" d="M349.867,315.733h-25.6c-4.713,0-8.533-3.82-8.533-8.533s3.821-8.533,8.533-8.533h25.6
			c4.713,0,8.533,3.82,8.533,8.533S354.579,315.733,349.867,315.733z"/>
	</g>
</g>
<g>
</g>
<g>
</g>
<g>
</g>
<g>
</g>
<g>
</g>
<g>
</g>
<g>
</g>
<g>
</g>
<g>
</g>
<g>
</g>
<g>
</g>
<g>
</g>
<g>
</g>
<g>
</g>
<g>
</g>
</svg>
