<?xml version="1.0" encoding="iso-8859-1"?>
<!-- Generator: Adobe Illustrator 19.0.0, SVG Export Plug-In . SVG Version: 6.00 Build 0)  -->
<svg version="1.1" id="Capa_1" xmlns="http://www.w3.org/2000/svg" xmlns:xlink="http://www.w3.org/1999/xlink" x="0px" y="0px"
	 viewBox="0 0 512.001 512.001" style="enable-background:new 0 0 512.001 512.001;" xml:space="preserve">
<g>
	<circle style="fill:#F3D55B;" cx="388.414" cy="441.379" r="70.621"/>
	<circle style="fill:#F9EAB0;" cx="388.414" cy="432.552" r="26.483"/>
	<path style="fill:#F0C419;" d="M423.724,494.345c0.027,2.981-0.359,5.952-1.148,8.828c-21.254,11.771-47.071,11.771-68.325,0
		c-0.788-2.875-1.175-5.846-1.148-8.828c0-19.501,15.809-35.31,35.31-35.31C407.915,459.034,423.724,474.843,423.724,494.345z"/>
	<circle style="fill:#F3D55B;" cx="388.414" cy="70.621" r="70.621"/>
	<circle style="fill:#F9EAB0;" cx="388.414" cy="61.793" r="26.483"/>
	<path style="fill:#F0C419;" d="M423.724,123.586c0.027,2.981-0.359,5.952-1.148,8.828c-21.254,11.771-47.071,11.771-68.325,0
		c-0.788-2.875-1.175-5.846-1.148-8.828c0-19.501,15.809-35.31,35.31-35.31C407.915,88.276,423.724,104.085,423.724,123.586z"/>
	<circle style="fill:#F3D55B;" cx="123.586" cy="70.621" r="70.621"/>
	<circle style="fill:#F9EAB0;" cx="123.586" cy="61.793" r="26.483"/>
	<path style="fill:#F0C419;" d="M158.897,123.586c0.027,2.981-0.359,5.952-1.148,8.828c-21.254,11.771-47.071,11.771-68.326,0
		c-0.788-2.875-1.175-5.846-1.148-8.828c0-19.501,15.809-35.31,35.31-35.31S158.897,104.085,158.897,123.586z"/>
	<circle style="fill:#F3D55B;" cx="123.586" cy="441.379" r="70.621"/>
	<circle style="fill:#F9EAB0;" cx="123.586" cy="432.552" r="26.483"/>
	<path style="fill:#F0C419;" d="M158.897,494.345c0.027,2.981-0.359,5.952-1.148,8.828c-21.254,11.771-47.071,11.771-68.326,0
		c-0.788-2.875-1.175-5.846-1.148-8.828c0-19.501,15.809-35.31,35.31-35.31S158.897,474.843,158.897,494.345z"/>
	<circle style="fill:#F3D55B;" cx="441.38" cy="256" r="70.621"/>
	<circle style="fill:#F9EAB0;" cx="441.38" cy="247.172" r="26.483"/>
	<path style="fill:#F0C419;" d="M476.69,308.966c0.027,2.981-0.359,5.952-1.148,8.828c-21.254,11.771-47.071,11.771-68.326,0
		c-0.788-2.875-1.175-5.846-1.148-8.828c0-19.501,15.809-35.31,35.31-35.31C460.881,273.655,476.69,289.464,476.69,308.966z"/>
	<circle style="fill:#F3D55B;" cx="70.621" cy="256" r="70.621"/>
	<circle style="fill:#F9EAB0;" cx="70.621" cy="247.172" r="26.483"/>
	<path style="fill:#F0C419;" d="M105.931,308.966c0.027,2.981-0.359,5.952-1.148,8.828c-21.254,11.771-47.071,11.771-68.326,0
		c-0.788-2.875-1.175-5.846-1.148-8.828c0-19.501,15.809-35.31,35.31-35.31S105.931,289.464,105.931,308.966z"/>
	<path style="fill:#4482C3;" d="M414.897,256c0.032,11.854-1.301,23.673-3.972,35.222c-1.255,5.747-2.877,11.409-4.855,16.949v0.088
		c-0.794,2.472-1.766,4.855-2.737,7.239c-24.26,60.064-82.554,99.388-147.332,99.388s-123.072-39.324-147.332-99.388
		c-0.971-2.383-1.942-4.767-2.737-7.239v-0.088c-1.978-5.54-3.6-11.202-4.855-16.949c-2.672-11.549-4.005-23.368-3.972-35.222
		c0-2.737,0.088-5.473,0.177-8.21c2.311-43.914,22.699-84.913,56.32-113.258c1.412-1.236,2.913-2.472,4.414-3.619
		c5.195-4.087,10.65-7.832,16.331-11.211c50.267-30.132,113.043-30.132,163.31,0c5.681,3.379,11.136,7.124,16.331,11.211
		c1.501,1.148,3.001,2.383,4.414,3.619c33.621,28.345,54.009,69.343,56.32,113.258C414.809,250.527,414.897,253.263,414.897,256z"/>
	<path style="fill:#FFFFFF;" d="M317.793,256H194.207c-4.875,0-8.828-3.952-8.828-8.828v-44.138
		c0-39.003,31.618-70.621,70.621-70.621s70.621,31.618,70.621,70.621v44.138c0,2.341-0.93,4.587-2.586,6.242
		C322.38,255.07,320.135,256,317.793,256z M203.035,238.345h105.931v-35.31c0-29.252-23.713-52.966-52.966-52.966
		c-29.252,0-52.965,23.713-52.965,52.966V238.345z"/>
	<path style="fill:#F0C419;" d="M185.38,238.345h141.241c4.875,0,8.828,3.952,8.828,8.828v70.621
		c0,29.252-23.713,52.966-52.966,52.966h-52.965c-29.252,0-52.966-23.713-52.966-52.966v-70.621
		C176.552,242.297,180.504,238.345,185.38,238.345z"/>
	<g>
		<path style="fill:#E57E25;" d="M256,317.793c-14.626,0-26.483-11.857-26.483-26.483s11.857-26.483,26.483-26.483
			c14.626,0,26.483,11.857,26.483,26.483S270.626,317.793,256,317.793z M256,282.483c-4.875,0-8.828,3.952-8.828,8.828
			s3.952,8.828,8.828,8.828c4.875,0,8.828-3.952,8.828-8.828S260.876,282.483,256,282.483z"/>
		<path style="fill:#E57E25;" d="M256,344.276c-4.875,0-8.828-3.952-8.828-8.828v-26.483c0-4.875,3.952-8.828,8.828-8.828
			c4.875,0,8.828,3.952,8.828,8.828v26.483C264.828,340.324,260.876,344.276,256,344.276z"/>
		<path style="fill:#E57E25;" d="M194.207,282.483h-17.655c-4.875,0-8.828-3.952-8.828-8.828s3.952-8.828,8.828-8.828h17.655
			c4.875,0,8.828,3.952,8.828,8.828S199.083,282.483,194.207,282.483z"/>
		<path style="fill:#E57E25;" d="M194.207,317.793h-17.655c-4.875,0-8.828-3.952-8.828-8.828s3.952-8.828,8.828-8.828h17.655
			c4.875,0,8.828,3.952,8.828,8.828S199.083,317.793,194.207,317.793z"/>
		<path style="fill:#E57E25;" d="M335.449,282.483h-17.655c-4.875,0-8.828-3.952-8.828-8.828s3.952-8.828,8.828-8.828h17.655
			c4.875,0,8.828,3.952,8.828,8.828S340.324,282.483,335.449,282.483z"/>
		<path style="fill:#E57E25;" d="M335.449,317.793h-17.655c-4.875,0-8.828-3.952-8.828-8.828s3.952-8.828,8.828-8.828h17.655
			c4.875,0,8.828,3.952,8.828,8.828S340.324,317.793,335.449,317.793z"/>
	</g>
</g>
<g>
</g>
<g>
</g>
<g>
</g>
<g>
</g>
<g>
</g>
<g>
</g>
<g>
</g>
<g>
</g>
<g>
</g>
<g>
</g>
<g>
</g>
<g>
</g>
<g>
</g>
<g>
</g>
<g>
</g>
</svg>
