<?xml version="1.0" encoding="iso-8859-1"?>
<!-- Generator: Adobe Illustrator 19.0.0, SVG Export Plug-In . SVG Version: 6.00 Build 0)  -->
<svg version="1.1" id="Capa_1" xmlns="http://www.w3.org/2000/svg" xmlns:xlink="http://www.w3.org/1999/xlink" x="0px" y="0px"
	 viewBox="0 0 512 512" style="enable-background:new 0 0 512 512;" xml:space="preserve">
<g>
	<path style="fill:#285680;" d="M381.831,498.983V30.373c0-14.378-11.656-26.034-26.034-26.034H95.458
		c-14.378,0-26.034,11.656-26.034,26.034v126.178L0,212.61v251.661c0.067,14.351,11.683,25.967,26.034,26.034h265.025
		L381.831,498.983z M171.911,351.458L69.424,268.67l150.745,121.769L171.911,351.458z"/>
	<path style="fill:#BDC3C7;" d="M477.288,334.102H303.729c-4.793,0-8.678-3.885-8.678-8.678v-78.102
		c0-52.72,42.738-95.458,95.458-95.458s95.458,42.738,95.458,95.458v78.102C485.966,330.216,482.081,334.102,477.288,334.102z
		 M312.407,316.746H468.61v-69.424c0-43.134-34.967-78.102-78.102-78.102s-78.102,34.967-78.102,78.102V316.746z"/>
	<path style="fill:#E4C05C;" d="M171.911,351.458L8.504,483.45c-5.43-4.895-8.522-11.868-8.504-19.178L0,212.61l69.424,56.06
		L171.911,351.458z"/>
	<g>
		<path style="fill:#B19046;" d="M291.059,490.305l-265.025,0c-6.499,0.01-12.761-2.439-17.529-6.856l163.406-131.992l48.258,38.981
			c3.182,2.571,7.727,2.571,10.908,0l46.618-37.68v102.834C277.667,468.425,282.433,480.805,291.059,490.305z"/>
		<polygon style="fill:#B19046;" points="69.424,156.551 69.424,268.67 0,212.61 		"/>
	</g>
	<path style="fill:#F0C419;" d="M503.322,325.424v130.169c0,28.756-23.312,52.068-52.068,52.068H329.763
		c-28.713-0.105-51.963-23.355-52.068-52.068V325.424c0-4.793,3.885-8.678,8.678-8.678h208.271
		C499.437,316.746,503.322,320.631,503.322,325.424z"/>
	<g>
		<path style="fill:#E57E25;" d="M390.509,420.881c-14.378,0-26.034-11.656-26.034-26.034s11.656-26.034,26.034-26.034
			s26.034,11.656,26.034,26.034S404.887,420.881,390.509,420.881z M390.509,386.17c-4.793,0-8.678,3.885-8.678,8.678
			c0,4.793,3.885,8.678,8.678,8.678s8.678-3.885,8.678-8.678C399.187,390.055,395.301,386.17,390.509,386.17z"/>
		<path style="fill:#E57E25;" d="M390.509,446.915c-4.793,0-8.678-3.885-8.678-8.678v-26.034c0-4.793,3.885-8.678,8.678-8.678
			s8.678,3.885,8.678,8.678v26.034C399.187,443.03,395.301,446.915,390.509,446.915z"/>
		<path style="fill:#E57E25;" d="M312.407,360.136h-34.712c-4.793,0-8.678-3.885-8.678-8.678c0-4.793,3.885-8.678,8.678-8.678
			h34.712c4.793,0,8.678,3.885,8.678,8.678C321.085,356.25,317.2,360.136,312.407,360.136z"/>
		<path style="fill:#E57E25;" d="M312.407,394.848h-34.712c-4.793,0-8.678-3.885-8.678-8.678s3.885-8.678,8.678-8.678h34.712
			c4.793,0,8.678,3.885,8.678,8.678S317.2,394.848,312.407,394.848z"/>
		<path style="fill:#E57E25;" d="M312.407,429.559h-34.712c-4.793,0-8.678-3.885-8.678-8.678c0-4.793,3.885-8.678,8.678-8.678
			h34.712c4.793,0,8.678,3.885,8.678,8.678C321.085,425.674,317.2,429.559,312.407,429.559z"/>
		<path style="fill:#E57E25;" d="M312.407,464.271h-34.712c-4.793,0-8.678-3.885-8.678-8.678s3.885-8.678,8.678-8.678h34.712
			c4.793,0,8.678,3.885,8.678,8.678S317.2,464.271,312.407,464.271z"/>
		<path style="fill:#E57E25;" d="M503.322,360.136H468.61c-4.793,0-8.678-3.885-8.678-8.678c0-4.793,3.885-8.678,8.678-8.678h34.712
			c4.793,0,8.678,3.885,8.678,8.678C512,356.25,508.115,360.136,503.322,360.136z"/>
		<path style="fill:#E57E25;" d="M503.322,394.848H468.61c-4.793,0-8.678-3.885-8.678-8.678s3.885-8.678,8.678-8.678h34.712
			c4.793,0,8.678,3.885,8.678,8.678S508.115,394.848,503.322,394.848z"/>
		<path style="fill:#E57E25;" d="M503.322,429.559H468.61c-4.793,0-8.678-3.885-8.678-8.678c0-4.793,3.885-8.678,8.678-8.678h34.712
			c4.793,0,8.678,3.885,8.678,8.678C512,425.674,508.115,429.559,503.322,429.559z"/>
		<path style="fill:#E57E25;" d="M503.322,464.271H468.61c-4.793,0-8.678-3.885-8.678-8.678s3.885-8.678,8.678-8.678h34.712
			c4.793,0,8.678,3.885,8.678,8.678S508.115,464.271,503.322,464.271z"/>
	</g>
	<g>
		<path style="fill:#F0C419;" d="M329.763,65.085H121.492c-4.793,0-8.678-3.885-8.678-8.678s3.885-8.678,8.678-8.678h208.271
			c4.793,0,8.678,3.885,8.678,8.678S334.555,65.085,329.763,65.085z"/>
		<path style="fill:#F0C419;" d="M329.763,108.475H121.492c-4.793,0-8.678-3.885-8.678-8.678s3.885-8.678,8.678-8.678h208.271
			c4.793,0,8.678,3.885,8.678,8.678S334.555,108.475,329.763,108.475z"/>
		<path style="fill:#F0C419;" d="M312.407,151.864H121.492c-4.793,0-8.678-3.885-8.678-8.678s3.885-8.678,8.678-8.678h190.915
			c4.793,0,8.678,3.885,8.678,8.678S317.2,151.864,312.407,151.864z"/>
		<path style="fill:#F0C419;" d="M277.695,195.254H121.492c-4.793,0-8.678-3.885-8.678-8.678s3.885-8.678,8.678-8.678h156.203
			c4.793,0,8.678,3.885,8.678,8.678S282.488,195.254,277.695,195.254z"/>
	</g>
</g>
<g>
</g>
<g>
</g>
<g>
</g>
<g>
</g>
<g>
</g>
<g>
</g>
<g>
</g>
<g>
</g>
<g>
</g>
<g>
</g>
<g>
</g>
<g>
</g>
<g>
</g>
<g>
</g>
<g>
</g>
</svg>
