<?xml version="1.0" encoding="iso-8859-1"?>
<!-- Generator: Adobe Illustrator 19.0.0, SVG Export Plug-In . SVG Version: 6.00 Build 0)  -->
<svg version="1.1" id="Capa_1" xmlns="http://www.w3.org/2000/svg" xmlns:xlink="http://www.w3.org/1999/xlink" x="0px" y="0px"
	 viewBox="0 0 512 512" style="enable-background:new 0 0 512 512;" xml:space="preserve">
<g>
	<path style="fill:#2C3E50;" d="M344.276,476.69c0,19.501-15.809,35.31-35.31,35.31H70.268c-14.413-0.044-26.086-11.717-26.13-26.13
		V26.13C44.182,11.717,55.855,0.044,70.268,0h247.879c14.413,0.044,26.086,11.717,26.13,26.13V476.69z"/>
	<rect x="44.138" y="70.621" style="fill:#556080;" width="300.138" height="370.759"/>
	<path style="fill:#35495E;" d="M194.207,485.517h-35.31c-4.875,0-8.828-3.952-8.828-8.828s3.952-8.828,8.828-8.828h35.31
		c4.875,0,8.828,3.952,8.828,8.828S199.082,485.517,194.207,485.517z"/>
	<g>
		<path style="fill:#8697CB;" d="M88.276,114.759h-8.828c-4.875,0-8.828-3.952-8.828-8.828c0-4.875,3.952-8.828,8.828-8.828h8.828
			c4.875,0,8.828,3.952,8.828,8.828C97.103,110.806,93.151,114.759,88.276,114.759z"/>
		<path style="fill:#8697CB;" d="M211.862,114.759h-88.276c-4.875,0-8.828-3.952-8.828-8.828c0-4.875,3.952-8.828,8.828-8.828
			h88.276c4.875,0,8.828,3.952,8.828,8.828C220.69,110.806,216.737,114.759,211.862,114.759z"/>
	</g>
	<path style="fill:#F29C1F;" d="M406.069,302.53l0-264.828c0.012-5.46-2.416-10.64-6.621-14.124L375.437,3.981
		c-3.59-2.964-8.22-4.363-12.851-3.882c-4.631,0.481-8.874,2.802-11.778,6.442l-28.954,35.487
		c-2.629,3.216-4.064,7.243-4.061,11.396v15.369c-0.002,1.171,0.462,2.296,1.289,3.125l22.069,22.069
		c1.723,1.724,1.723,4.518,0,6.241l-20.233,20.242c-1.723,1.724-1.723,4.518,0,6.241l20.233,20.242c1.723,1.724,1.723,4.518,0,6.241
		l-20.233,20.242c-1.723,1.724-1.723,4.518,0,6.241l20.233,20.242c1.723,1.724,1.723,4.518,0,6.241l-22.069,22.069
		c-0.827,0.829-1.291,1.954-1.289,3.125v67.381"/>
	<g>
		<path style="fill:#F0C419;" d="M370.759,220.69c4.875,0,8.828,3.952,8.828,8.828V256c0,4.875-3.952,8.828-8.828,8.828
			s-8.828-3.952-8.828-8.828v-26.483C361.931,224.642,365.883,220.69,370.759,220.69z"/>
		<path style="fill:#F0C419;" d="M370.759,158.897c4.875,0,8.828,3.952,8.828,8.828v17.655c0,4.875-3.952,8.828-8.828,8.828
			s-8.828-3.952-8.828-8.828v-17.655C361.931,162.849,365.883,158.897,370.759,158.897z"/>
		<path style="fill:#F0C419;" d="M370.759,105.931c4.875,0,8.828,3.952,8.828,8.828v17.655c0,4.875-3.952,8.828-8.828,8.828
			s-8.828-3.952-8.828-8.828v-17.655C361.931,109.883,365.883,105.931,370.759,105.931z"/>
		<path style="fill:#F0C419;" d="M370.759,44.138c4.875,0,8.828,3.952,8.828,8.828v17.655c0,4.875-3.952,8.828-8.828,8.828
			s-8.828-3.952-8.828-8.828V52.966C361.931,48.09,365.883,44.138,370.759,44.138z"/>
	</g>
	<path id="SVGCleanerId_0" style="fill:#F0C419;" d="M357.517,512c60.942,0,110.345-49.403,110.345-110.345
		S418.459,291.31,357.517,291.31s-110.345,49.403-110.345,110.345S296.575,512,357.517,512z M357.517,414.897
		c17.064,0,30.897,13.833,30.897,30.897c0,17.064-13.833,30.897-30.897,30.897s-30.897-13.833-30.897-30.897
		C326.621,428.729,340.454,414.897,357.517,414.897z"/>
	<g>
		<path id="SVGCleanerId_0_1_" style="fill:#F0C419;" d="M357.517,512c60.942,0,110.345-49.403,110.345-110.345
			S418.459,291.31,357.517,291.31s-110.345,49.403-110.345,110.345S296.575,512,357.517,512z M357.517,414.897
			c17.064,0,30.897,13.833,30.897,30.897c0,17.064-13.833,30.897-30.897,30.897s-30.897-13.833-30.897-30.897
			C326.621,428.729,340.454,414.897,357.517,414.897z"/>
	</g>
</g>
<g>
</g>
<g>
</g>
<g>
</g>
<g>
</g>
<g>
</g>
<g>
</g>
<g>
</g>
<g>
</g>
<g>
</g>
<g>
</g>
<g>
</g>
<g>
</g>
<g>
</g>
<g>
</g>
<g>
</g>
</svg>
