<?xml version="1.0" encoding="iso-8859-1"?>
<!-- Generator: Adobe Illustrator 19.0.0, SVG Export Plug-In . SVG Version: 6.00 Build 0)  -->
<svg version="1.1" id="Capa_1" xmlns="http://www.w3.org/2000/svg" xmlns:xlink="http://www.w3.org/1999/xlink" x="0px" y="0px"
	 viewBox="0 0 512 512" style="enable-background:new 0 0 512 512;" xml:space="preserve">
<g>
	<rect x="105.931" y="61.793" style="fill:#556080;" width="300.138" height="379.586"/>
	<g>
		<path style="fill:#2C3E50;" d="M406.069,17.655v52.966H105.931V17.655C105.96,7.917,113.848,0.029,123.586,0h264.828
			C398.152,0.029,406.04,7.917,406.069,17.655z"/>
		<path style="fill:#2C3E50;" d="M406.069,432.552v61.793c-0.029,9.739-7.917,17.626-17.655,17.655H123.586
			c-9.739-0.029-17.626-7.917-17.655-17.655v-61.793H406.069z"/>
	</g>
	<path style="fill:#35495E;" d="M264.828,485.517h-17.655c-4.875,0-8.828-3.952-8.828-8.828s3.952-8.828,8.828-8.828h17.655
		c4.875,0,8.828,3.952,8.828,8.828S269.703,485.517,264.828,485.517z"/>
	<g>
		<path style="fill:#8697CB;" d="M150.069,114.759h-8.828c-4.875,0-8.828-3.952-8.828-8.828c0-4.875,3.952-8.828,8.828-8.828h8.828
			c4.875,0,8.828,3.952,8.828,8.828C158.897,110.806,154.944,114.759,150.069,114.759z"/>
		<path style="fill:#8697CB;" d="M273.655,114.759h-88.276c-4.875,0-8.828-3.952-8.828-8.828c0-4.875,3.952-8.828,8.828-8.828
			h88.276c4.875,0,8.828,3.952,8.828,8.828C282.483,110.806,278.531,114.759,273.655,114.759z"/>
	</g>
	<g>
		<path style="fill:#F0C419;" d="M167.724,278.069c-4.875,0-8.828-3.952-8.828-8.828v-39.724
			c-0.001-6.571,0.662-13.124,1.977-19.562c3.835-18.604,13.043-35.675,26.483-49.099c8.863-8.86,19.354-15.925,30.897-20.807
			c5.877-2.485,11.986-4.38,18.238-5.658c12.91-2.622,26.214-2.622,39.124,0c12.428,2.541,24.232,7.508,34.737,14.618
			c2.668,1.744,4.188,4.791,3.977,7.972c-0.211,3.18-2.12,6-4.994,7.378c-2.875,1.377-6.268,1.098-8.879-0.731
			c-24.359-16.446-55.808-18.1-81.758-4.301s-42.162,40.798-42.146,70.19v39.724C176.552,274.117,172.599,278.069,167.724,278.069z"
			/>
		<path style="fill:#F0C419;" d="M256,406.069c-6.571,0.001-13.124-0.662-19.562-1.977c-18.604-3.835-35.675-13.043-49.099-26.483
			c-8.86-8.863-15.925-19.354-20.807-30.897c-2.485-5.877-4.38-11.986-5.658-18.238c-1.312-6.42-1.974-12.956-1.977-19.509
			c0-4.875,3.952-8.828,8.828-8.828s8.828,3.952,8.828,8.828c0.002,5.381,0.543,10.749,1.615,16.022
			c6.402,31.093,30.7,55.391,61.793,61.793c10.574,2.145,21.47,2.145,32.044,0c31.093-6.402,55.391-30.7,61.793-61.793
			c1.084-5.272,1.637-10.64,1.651-16.022c0-4.875,3.952-8.828,8.828-8.828s8.828,3.952,8.828,8.828
			c0.001,6.571-0.662,13.124-1.977,19.562c-3.835,18.604-13.043,35.675-26.483,49.099c-8.863,8.86-19.354,15.925-30.897,20.807
			c-5.877,2.485-11.986,4.38-18.238,5.659C269.089,405.404,262.553,406.066,256,406.069z"/>
		<path style="fill:#F0C419;" d="M344.276,278.069c-4.875,0-8.828-3.952-8.828-8.828v-39.724
			c-0.002-5.381-0.543-10.749-1.615-16.022c-2.079-10.153-6.137-19.797-11.944-28.381c-1.829-2.611-2.108-6.004-0.731-8.879
			c1.377-2.875,4.197-4.783,7.378-4.994c3.18-0.211,6.228,1.31,7.972,3.977c7.11,10.505,12.078,22.309,14.618,34.737
			c1.315,6.438,1.978,12.991,1.977,19.562v39.724C353.103,274.117,349.151,278.069,344.276,278.069z"/>
		<path style="fill:#F0C419;" d="M256,370.759c-34.127,0-61.793-27.666-61.793-61.793v-39.724c0-4.875,3.952-8.828,8.828-8.828
			s8.828,3.952,8.828,8.828v39.724c-0.015,5.891,1.168,11.724,3.478,17.143c9.473,22.451,35.347,32.978,57.803,23.517
			c2.905-1.233,6.247-0.823,8.767,1.076c2.52,1.899,3.836,4.998,3.452,8.13c-0.384,3.132-2.411,5.821-5.315,7.054
			C272.441,369.114,264.262,370.771,256,370.759z"/>
		<path style="fill:#F0C419;" d="M304.79,338.388c-2.963,0.002-5.73-1.483-7.366-3.954s-1.923-5.598-0.764-8.325
			c2.31-5.419,3.493-11.252,3.478-17.143v-79.448c0.015-5.891-1.168-11.724-3.478-17.143c-8.168-19.339-28.829-30.249-49.406-26.089
			c-20.577,4.16-35.377,22.239-35.392,43.232c0,4.875-3.952,8.828-8.828,8.828s-8.828-3.952-8.828-8.828
			c0.047-24.823,14.905-47.223,37.756-56.92c23.16-9.816,49.96-4.575,67.716,13.241c11.605,11.572,18.124,27.29,18.114,43.679
			v79.448c0.013,8.262-1.645,16.441-4.873,24.046C311.535,336.273,308.333,338.39,304.79,338.388z"/>
		<path style="fill:#F0C419;" d="M256,335.448c-1.803,0.002-3.602-0.182-5.367-0.547c-3.366-0.691-6.564-2.038-9.41-3.964
			c-1.429-0.964-2.76-2.067-3.972-3.293c-1.186-1.178-2.254-2.47-3.187-3.858c-1.954-2.871-3.317-6.103-4.008-9.507
			c-0.361-1.748-0.541-3.529-0.538-5.314c0-4.875,3.952-8.828,8.828-8.828c4.875,0,8.828,3.952,8.828,8.828
			c0.007,1.166,0.238,2.32,0.68,3.399c0.244,0.545,0.54,1.065,0.883,1.554c0.305,0.446,0.651,0.863,1.033,1.245
			c0.417,0.421,0.872,0.802,1.359,1.139c0.47,0.31,0.966,0.579,1.483,0.803c0.527,0.221,1.074,0.389,1.633,0.503
			c1.164,0.244,2.367,0.244,3.531,0c0.572-0.11,1.131-0.278,1.668-0.503c0.545-0.244,1.065-0.54,1.554-0.883
			c0.446-0.305,0.863-0.651,1.245-1.033c0.421-0.417,0.802-0.872,1.139-1.359c0.31-0.47,0.579-0.966,0.803-1.483
			c0.431-1.075,0.65-2.223,0.644-3.381v-39.724c0-4.875,3.952-8.828,8.828-8.828s8.828,3.952,8.828,8.828v39.724
			c-0.01,3.547-0.721,7.057-2.092,10.328c-0.666,1.544-1.476,3.022-2.419,4.414c-0.964,1.429-2.067,2.76-3.293,3.972
			c-1.178,1.186-2.47,2.254-3.858,3.187c-2.871,1.954-6.103,3.317-9.507,4.008C259.567,335.247,257.786,335.44,256,335.448z"/>
		<path style="fill:#F0C419;" d="M238.345,278.069c-4.875,0-8.828-3.952-8.828-8.828v-39.724c-0.002-1.803,0.182-3.602,0.547-5.367
			c0.691-3.366,2.038-6.564,3.964-9.41c0.964-1.429,2.067-2.76,3.293-3.972c1.178-1.186,2.47-2.254,3.858-3.187
			c2.871-1.954,6.103-3.317,9.507-4.008c3.525-0.715,7.157-0.715,10.681,0c1.701,0.345,3.363,0.859,4.961,1.536
			c1.544,0.666,3.022,1.476,4.414,2.419c1.429,0.964,2.76,2.067,3.972,3.293c1.186,1.178,2.254,2.47,3.187,3.858
			c1.954,2.871,3.317,6.103,4.008,9.507c0.374,1.753,0.566,3.54,0.574,5.332c0,4.875-3.952,8.828-8.828,8.828
			s-8.828-3.952-8.828-8.828c-0.007-1.166-0.238-2.32-0.68-3.399c-0.244-0.545-0.54-1.065-0.883-1.554
			c-0.305-0.446-0.651-0.863-1.033-1.245c-0.417-0.421-0.872-0.802-1.359-1.139c-0.47-0.31-0.966-0.579-1.483-0.803
			c-0.527-0.221-1.074-0.389-1.633-0.503c-1.164-0.244-2.367-0.244-3.531,0c-0.572,0.11-1.131,0.278-1.668,0.503
			c-0.545,0.244-1.065,0.54-1.554,0.883c-0.446,0.305-0.863,0.651-1.245,1.033c-0.421,0.417-0.802,0.872-1.139,1.359
			c-0.31,0.47-0.579,0.967-0.803,1.483c-0.431,1.075-0.65,2.223-0.644,3.381v39.724C247.172,274.117,243.22,278.069,238.345,278.069
			z"/>
	</g>
</g>
<g>
</g>
<g>
</g>
<g>
</g>
<g>
</g>
<g>
</g>
<g>
</g>
<g>
</g>
<g>
</g>
<g>
</g>
<g>
</g>
<g>
</g>
<g>
</g>
<g>
</g>
<g>
</g>
<g>
</g>
</svg>
