<?xml version="1.0" encoding="iso-8859-1"?>
<!-- Generator: Adobe Illustrator 19.0.0, SVG Export Plug-In . SVG Version: 6.00 Build 0)  -->
<svg version="1.1" id="Capa_1" xmlns="http://www.w3.org/2000/svg" xmlns:xlink="http://www.w3.org/1999/xlink" x="0px" y="0px"
	 viewBox="0 0 512 512" style="enable-background:new 0 0 512 512;" xml:space="preserve">
<g>
	<path style="fill:#F3D55B;" d="M452.267,59.733v341.333H204.8c-9.414,0.028-17.039,7.653-17.067,17.067v34.133
		c0,28.277-22.923,51.2-51.2,51.2H128c-28.277,0-51.2-22.923-51.2-51.2V110.933H42.667c-9.414-0.028-17.039-7.653-17.067-17.067
		V59.733c0-28.277,22.923-51.2,51.2-51.2h324.267C429.344,8.533,452.267,31.456,452.267,59.733z"/>
	<path style="fill:#B19046;" d="M136.533,512H128c-32.974-0.038-59.696-26.759-59.733-59.733v-332.8h-25.6
		c-14.138,0-25.6-11.462-25.6-25.6V59.733C17.104,26.759,43.826,0.038,76.8,0h324.267c32.974,0.038,59.696,26.759,59.733,59.733
		v341.333c0,4.713-3.82,8.533-8.533,8.533H204.8c-4.713,0-8.533,3.82-8.533,8.533v34.133
		C196.229,485.241,169.508,511.962,136.533,512z M76.8,17.067c-23.552,0.028-42.638,19.114-42.667,42.667v34.133
		c0,4.713,3.821,8.533,8.533,8.533H76.8c4.713,0,8.533,3.821,8.533,8.533v341.333c0.028,23.552,19.114,42.638,42.667,42.667h8.533
		c23.552-0.028,42.638-19.114,42.667-42.667v-34.133c0-14.138,11.462-25.6,25.6-25.6h238.933v-332.8
		c-0.028-23.552-19.114-42.638-42.667-42.667H76.8z"/>
	<path style="fill:#F3D55B;" d="M486.4,418.133v34.133c0,28.277-22.923,51.2-51.2,51.2H136.533c28.277,0,51.2-22.923,51.2-51.2
		v-34.133c0.028-9.414,7.653-17.039,17.067-17.067h264.533C478.747,401.095,486.372,408.719,486.4,418.133z"/>
	<g>
		<path style="fill:#B19046;" d="M76.8,119.467c-4.713,0-8.533-3.821-8.533-8.533v-51.2c0-4.713,3.821-8.533,8.533-8.533
			s8.533,3.821,8.533,8.533v51.2C85.333,115.646,81.513,119.467,76.8,119.467z"/>
		<path style="fill:#B19046;" d="M435.2,512H136.533c-4.713,0-8.533-3.82-8.533-8.533c0-4.713,3.821-8.533,8.533-8.533
			c23.552-0.028,42.638-19.114,42.667-42.667v-34.133c0-14.138,11.462-25.6,25.6-25.6h264.533c14.138,0,25.6,11.462,25.6,25.6
			v34.133C494.896,485.241,468.174,511.962,435.2,512z M178.347,494.933H435.2c23.552-0.028,42.638-19.114,42.667-42.667v-34.133
			c0-4.713-3.821-8.533-8.533-8.533H204.8c-4.713,0-8.533,3.82-8.533,8.533v34.133C196.288,468.323,189.827,483.708,178.347,494.933
			z"/>
	</g>
	<g>
		<path style="fill:#FF5364;" d="M179.2,243.2c-4.713,0-8.533-3.821-8.533-8.533v-38.4c-0.001-6.352,0.64-12.687,1.911-18.91
			c3.707-17.984,12.608-34.486,25.6-47.462c8.567-8.565,18.709-15.395,29.867-20.113c5.681-2.402,11.587-4.234,17.63-5.47
			c12.479-2.534,25.341-2.534,37.82,0c12.013,2.456,23.424,7.258,33.579,14.131c2.579,1.686,4.048,4.632,3.845,7.706
			c-0.204,3.074-2.049,5.8-4.828,7.132c-2.779,1.331-6.059,1.061-8.583-0.707c-23.547-15.898-53.948-17.497-79.033-4.157
			s-40.756,39.439-40.741,67.85v38.4c0,2.263-0.899,4.434-2.499,6.034S181.463,243.2,179.2,243.2z"/>
		<path style="fill:#FF5364;" d="M264.533,366.933c-6.352,0.001-12.687-0.64-18.91-1.911c-17.984-3.707-34.486-12.608-47.462-25.6
			c-8.565-8.568-15.395-18.709-20.113-29.867c-2.402-5.681-4.234-11.587-5.47-17.63c-1.268-6.206-1.909-12.524-1.911-18.859
			c0-4.713,3.821-8.533,8.533-8.533s8.533,3.82,8.533,8.533c0.002,5.202,0.525,10.39,1.562,15.488
			c6.189,30.057,29.676,53.544,59.733,59.733c10.221,2.074,20.755,2.074,30.976,0c30.057-6.189,53.544-29.676,59.733-59.733
			c1.048-5.096,1.583-10.285,1.596-15.488c0-4.713,3.821-8.533,8.533-8.533c4.713,0,8.533,3.82,8.533,8.533
			c0.001,6.352-0.64,12.687-1.911,18.91c-3.707,17.984-12.608,34.486-25.6,47.462c-8.567,8.565-18.709,15.395-29.867,20.113
			c-5.681,2.402-11.587,4.234-17.63,5.47C277.186,366.29,270.868,366.931,264.533,366.933z"/>
		<path style="fill:#FF5364;" d="M349.867,243.2c-4.713,0-8.533-3.821-8.533-8.533v-38.4c-0.002-5.202-0.525-10.39-1.562-15.488
			c-2.009-9.814-5.933-19.137-11.546-27.435c-1.768-2.524-2.038-5.804-0.707-8.583c1.331-2.779,4.057-4.624,7.132-4.828
			c3.074-0.204,6.02,1.266,7.706,3.845c6.873,10.155,11.675,21.565,14.131,33.579c1.272,6.223,1.912,12.558,1.911,18.91v38.4
			C358.4,239.38,354.579,243.2,349.867,243.2z"/>
		<path style="fill:#FF5364;" d="M264.533,332.8c-32.99,0-59.733-26.744-59.733-59.733v-38.4c0-4.713,3.82-8.533,8.533-8.533
			s8.533,3.821,8.533,8.533v38.4c-0.015,5.695,1.129,11.333,3.362,16.572c9.157,21.702,34.169,31.878,55.876,22.733
			c4.341-1.843,9.353,0.182,11.196,4.523c1.843,4.341-0.182,9.353-4.523,11.196C280.426,331.21,272.52,332.812,264.533,332.8z"/>
		<path style="fill:#FF5364;" d="M311.697,301.508c-2.865,0.002-5.539-1.434-7.12-3.822s-1.859-5.411-0.739-8.048
			c2.233-5.239,3.377-10.877,3.362-16.572v-76.8c0.015-5.695-1.129-11.333-3.362-16.572c-7.896-18.695-27.868-29.241-47.759-25.219
			c-19.892,4.021-34.198,21.497-34.212,41.791c0,4.713-3.821,8.533-8.533,8.533s-8.533-3.821-8.533-8.533
			c0.036-23.999,14.402-45.656,36.497-55.023c14.863-6.251,31.618-6.251,46.481,0c22.115,9.342,36.488,31.016,36.489,55.023v76.8
			c0.012,7.987-1.59,15.893-4.71,23.245C318.217,299.464,315.122,301.51,311.697,301.508z"/>
		<path style="fill:#FF5364;" d="M264.533,298.667c-1.743,0.002-3.482-0.176-5.188-0.529c-3.254-0.668-6.345-1.97-9.097-3.831
			c-1.381-0.932-2.668-1.998-3.84-3.183c-1.147-1.139-2.179-2.388-3.081-3.729c-1.889-2.776-3.206-5.9-3.874-9.19
			c-0.349-1.69-0.523-3.411-0.521-5.137c0-4.713,3.821-8.533,8.533-8.533c4.713,0,8.533,3.82,8.533,8.533
			c0.007,1.127,0.23,2.242,0.657,3.285c0.236,0.527,0.522,1.03,0.853,1.502c0.295,0.431,0.629,0.834,0.998,1.203
			c0.403,0.407,0.843,0.775,1.314,1.101c0.455,0.3,0.934,0.559,1.434,0.777c0.509,0.213,1.038,0.376,1.579,0.486
			c1.126,0.236,2.288,0.236,3.413,0c0.553-0.106,1.093-0.269,1.613-0.486c0.527-0.236,1.03-0.522,1.502-0.853
			c0.431-0.295,0.834-0.629,1.203-0.998c0.407-0.403,0.775-0.843,1.101-1.314c0.3-0.455,0.559-0.934,0.777-1.434
			c0.416-1.039,0.628-2.149,0.623-3.268v-38.4c0-4.713,3.82-8.533,8.533-8.533s8.533,3.821,8.533,8.533v38.4
			c0.002,1.743-0.176,3.481-0.529,5.188c-0.668,3.254-1.97,6.345-3.831,9.096c-0.932,1.381-1.998,2.668-3.183,3.84
			c-1.139,1.147-2.388,2.179-3.729,3.081c-2.776,1.889-5.9,3.206-9.19,3.874C267.98,298.495,266.259,298.669,264.533,298.667z"/>
		<path style="fill:#FF5364;" d="M247.467,243.2c-4.713,0-8.533-3.821-8.533-8.533v-38.4c0.01-3.429,0.697-6.822,2.022-9.984
			c0.644-1.492,1.427-2.921,2.338-4.267c0.932-1.381,1.998-2.668,3.183-3.84c1.139-1.147,2.388-2.179,3.729-3.081
			c2.776-1.889,5.9-3.206,9.19-3.874c3.407-0.691,6.918-0.691,10.325,0c1.644,0.333,3.251,0.831,4.796,1.485
			c1.492,0.644,2.921,1.427,4.267,2.338c1.381,0.932,2.668,1.998,3.84,3.183c1.147,1.139,2.179,2.388,3.081,3.729
			c1.889,2.776,3.206,5.9,3.874,9.19c0.359,1.683,0.545,3.399,0.555,5.12c0,4.713-3.821,8.533-8.533,8.533s-8.533-3.821-8.533-8.533
			c-0.007-1.127-0.23-2.242-0.657-3.285c-0.236-0.527-0.522-1.03-0.853-1.502c-0.295-0.431-0.629-0.834-0.998-1.203
			c-0.403-0.407-0.843-0.775-1.314-1.101c-0.455-0.3-0.934-0.559-1.434-0.777c-0.509-0.213-1.038-0.376-1.579-0.486
			c-1.126-0.236-2.288-0.236-3.413,0c-0.553,0.106-1.093,0.269-1.613,0.486c-0.527,0.236-1.03,0.522-1.502,0.853
			c-0.431,0.295-0.834,0.629-1.203,0.998c-0.407,0.403-0.775,0.843-1.101,1.314c-0.3,0.455-0.559,0.934-0.777,1.434
			c-0.417,1.039-0.628,2.149-0.623,3.268v38.4C256,239.38,252.18,243.2,247.467,243.2z"/>
	</g>
</g>
<g>
</g>
<g>
</g>
<g>
</g>
<g>
</g>
<g>
</g>
<g>
</g>
<g>
</g>
<g>
</g>
<g>
</g>
<g>
</g>
<g>
</g>
<g>
</g>
<g>
</g>
<g>
</g>
<g>
</g>
</svg>
