<?xml version="1.0" encoding="iso-8859-1"?>
<!-- Generator: Adobe Illustrator 19.0.0, SVG Export Plug-In . SVG Version: 6.00 Build 0)  -->
<svg version="1.1" id="Capa_1" xmlns="http://www.w3.org/2000/svg" xmlns:xlink="http://www.w3.org/1999/xlink" x="0px" y="0px"
	 viewBox="0 0 512 512" style="enable-background:new 0 0 512 512;" xml:space="preserve">
<g>
	<path style="fill:#90BAE1;" d="M47.729,416.542H13.017c-4.793,0-8.678-3.885-8.678-8.678v-78.102h503.322v78.102
		c0,4.793-3.885,8.678-8.678,8.678H47.729z"/>
	<path style="fill:#4482C3;" d="M438.237,251.661h60.746c4.793,0,8.678,3.885,8.678,8.678v78.102H4.339v-78.102
		c0-4.793,3.885-8.678,8.678-8.678H438.237z"/>
	<path style="fill:#CBB292;" d="M438.237,104.136v190.915H73.763V17.356C73.791,7.782,81.545,0.029,91.119,0h242.983"/>
	<path style="fill:#7F6E5D;" d="M438.237,104.136h-86.78c-9.574-0.029-17.327-7.782-17.356-17.356V0L438.237,104.136z"/>
	<path style="fill:#2C3E50;" d="M472.949,303.729H39.051c-4.793,0-8.678-3.885-8.678-8.678c0-4.793,3.885-8.678,8.678-8.678h433.898
		c4.793,0,8.678,3.885,8.678,8.678C481.627,299.844,477.742,303.729,472.949,303.729z"/>
	<path style="fill:#2C2F38;" d="M472.949,390.508H39.051c-4.793,0-8.678-3.885-8.678-8.678s3.885-8.678,8.678-8.678h433.898
		c4.793,0,8.678,3.885,8.678,8.678S477.742,390.508,472.949,390.508z"/>
	<g>
		<path style="fill:#59474E;" d="M117.153,512c-4.793,0-8.678-3.885-8.678-8.678V381.831c0-4.793,3.885-8.678,8.678-8.678
			s8.678,3.885,8.678,8.678v121.492C125.831,508.115,121.945,512,117.153,512z"/>
		<path style="fill:#59474E;" d="M82.441,494.644c-4.793,0-8.678-3.885-8.678-8.678V381.831c0-4.793,3.885-8.678,8.678-8.678
			c4.793,0,8.678,3.885,8.678,8.678v104.136C91.119,490.759,87.233,494.644,82.441,494.644z"/>
		<path style="fill:#59474E;" d="M186.576,512c-4.793,0-8.678-3.885-8.678-8.678V381.831c0-4.793,3.885-8.678,8.678-8.678
			c4.793,0,8.678,3.885,8.678,8.678v121.492C195.254,508.115,191.369,512,186.576,512z"/>
		<path style="fill:#59474E;" d="M151.864,494.644c-4.793,0-8.678-3.885-8.678-8.678V381.831c0-4.793,3.885-8.678,8.678-8.678
			c4.793,0,8.678,3.885,8.678,8.678v104.136C160.542,490.759,156.657,494.644,151.864,494.644z"/>
		<path style="fill:#59474E;" d="M256,512c-4.793,0-8.678-3.885-8.678-8.678V381.831c0-4.793,3.885-8.678,8.678-8.678
			c4.793,0,8.678,3.885,8.678,8.678v121.492C264.678,508.115,260.793,512,256,512z"/>
		<path style="fill:#59474E;" d="M221.288,494.644c-4.793,0-8.678-3.885-8.678-8.678V381.831c0-4.793,3.885-8.678,8.678-8.678
			c4.793,0,8.678,3.885,8.678,8.678v104.136C229.966,490.759,226.081,494.644,221.288,494.644z"/>
		<path style="fill:#59474E;" d="M325.424,512c-4.793,0-8.678-3.885-8.678-8.678V381.831c0-4.793,3.885-8.678,8.678-8.678
			c4.793,0,8.678,3.885,8.678,8.678v121.492C334.102,508.115,330.216,512,325.424,512z"/>
		<path style="fill:#59474E;" d="M290.712,494.644c-4.793,0-8.678-3.885-8.678-8.678V381.831c0-4.793,3.885-8.678,8.678-8.678
			c4.793,0,8.678,3.885,8.678,8.678v104.136C299.39,490.759,295.505,494.644,290.712,494.644z"/>
		<path style="fill:#59474E;" d="M394.847,512c-4.793,0-8.678-3.885-8.678-8.678V381.831c0-4.793,3.885-8.678,8.678-8.678
			c4.793,0,8.678,3.885,8.678,8.678v121.492C403.525,508.115,399.64,512,394.847,512z"/>
		<path style="fill:#59474E;" d="M360.136,494.644c-4.793,0-8.678-3.885-8.678-8.678V381.831c0-4.793,3.885-8.678,8.678-8.678
			s8.678,3.885,8.678,8.678v104.136C368.814,490.759,364.928,494.644,360.136,494.644z"/>
		<path style="fill:#59474E;" d="M429.559,494.644c-4.793,0-8.678-3.885-8.678-8.678V381.831c0-4.793,3.885-8.678,8.678-8.678
			s8.678,3.885,8.678,8.678v104.136C438.237,490.759,434.352,494.644,429.559,494.644z"/>
		<path style="fill:#59474E;" d="M282.034,95.458H125.831c-4.793,0-8.678-3.885-8.678-8.678c0-4.793,3.885-8.678,8.678-8.678
			h156.203c4.793,0,8.678,3.885,8.678,8.678C290.712,91.572,286.827,95.458,282.034,95.458z"/>
		<path style="fill:#59474E;" d="M282.034,130.169H125.831c-4.793,0-8.678-3.885-8.678-8.678c0-4.793,3.885-8.678,8.678-8.678
			h156.203c4.793,0,8.678,3.885,8.678,8.678C290.712,126.284,286.827,130.169,282.034,130.169z"/>
		<path style="fill:#59474E;" d="M386.169,164.881H125.831c-4.793,0-8.678-3.885-8.678-8.678c0-4.793,3.885-8.678,8.678-8.678
			h260.339c4.793,0,8.678,3.885,8.678,8.678C394.847,160.996,390.962,164.881,386.169,164.881z"/>
		<path style="fill:#59474E;" d="M386.169,199.593H125.831c-4.793,0-8.678-3.885-8.678-8.678s3.885-8.678,8.678-8.678h260.339
			c4.793,0,8.678,3.885,8.678,8.678S390.962,199.593,386.169,199.593z"/>
		<path style="fill:#59474E;" d="M386.169,234.305H125.831c-4.793,0-8.678-3.885-8.678-8.678s3.885-8.678,8.678-8.678h260.339
			c4.793,0,8.678,3.885,8.678,8.678S390.962,234.305,386.169,234.305z"/>
	</g>
	<g>
		<path style="fill:#35495E;" d="M39.051,312.407c-4.793,0-8.678-3.885-8.678-8.678v-17.356c0-4.793,3.885-8.678,8.678-8.678
			s8.678,3.885,8.678,8.678v17.356C47.729,308.522,43.844,312.407,39.051,312.407z"/>
		<path style="fill:#35495E;" d="M472.949,312.407c-4.793,0-8.678-3.885-8.678-8.678v-17.356c0-4.793,3.885-8.678,8.678-8.678
			s8.678,3.885,8.678,8.678v17.356C481.627,308.522,477.742,312.407,472.949,312.407z"/>
	</g>
</g>
<g>
</g>
<g>
</g>
<g>
</g>
<g>
</g>
<g>
</g>
<g>
</g>
<g>
</g>
<g>
</g>
<g>
</g>
<g>
</g>
<g>
</g>
<g>
</g>
<g>
</g>
<g>
</g>
<g>
</g>
</svg>
