<?xml version="1.0" encoding="iso-8859-1"?>
<!-- Generator: Adobe Illustrator 19.0.0, SVG Export Plug-In . SVG Version: 6.00 Build 0)  -->
<svg version="1.1" id="Capa_1" xmlns="http://www.w3.org/2000/svg" xmlns:xlink="http://www.w3.org/1999/xlink" x="0px" y="0px"
	 viewBox="0 0 512 512" style="enable-background:new 0 0 512 512;" xml:space="preserve">
<g>
	<g>
		<path style="fill:#285680;" d="M44.138,467.862h70.621v34.269c0,5.451-4.419,9.869-9.869,9.869H54.007
			c-2.617,0-5.128-1.04-6.979-2.891c-1.851-1.851-2.891-4.361-2.891-6.979V467.862z"/>
		<path style="fill:#285680;" d="M397.241,467.862h70.621v34.269c0,5.451-4.419,9.869-9.869,9.869h-50.882
			c-5.451,0-9.869-4.419-9.869-9.869V467.862z"/>
	</g>
	<path style="fill:#7ED09E;" d="M338.538,476.69H79.448c-9.739-0.029-17.626-7.917-17.655-17.655V17.655
		C61.822,7.917,69.71,0.029,79.448,0h353.103c9.739,0.029,17.626,7.917,17.655,17.655v379.586L338.538,476.69z"/>
	<circle style="fill:#F0C419;" cx="256" cy="158.897" r="114.759"/>
	<path style="fill:#46B29D;" d="M320.618,253.705c-39.1,26.67-90.562,26.6-129.589-0.177c1.885-5.812,5.93-10.679,11.299-13.594
		l28.337-13.948c2.825-1.401,4.63-4.262,4.679-7.415v-3.354c-0.031-1.587-0.953-3.021-2.383-3.708
		c-12.729-6.324-22.052-17.905-25.512-31.691c-5.882-1.988-9.712-7.66-9.357-13.859v-7.327c-0.357-5.259,2.316-10.261,6.886-12.888
		c0.702-7.562,2.547-14.973,5.473-21.981c3.223-6.911,4.27-14.638,3.001-22.157c-0.495-2.42-0.849-4.866-1.059-7.327
		c-0.076-0.64,0.283-1.253,0.879-1.5c0.596-0.247,1.283-0.067,1.681,0.44c2.451,2.811,5.272,5.275,8.386,7.327
		c8.46,5.343,18.475,7.676,28.425,6.621c1.236-0.088,2.56-0.088,3.884-0.088c29.219,0,47.492,11.123,50.67,38.665
		c4.761,2.519,7.697,7.504,7.592,12.888v7.327c0.095,6.342-4.004,11.986-10.063,13.859c-3.179,13.711-12.26,25.312-24.805,31.691
		c-1.431,0.687-2.353,2.121-2.383,3.708v3.708c0.015,3.091,1.751,5.916,4.502,7.327l27.101,13.859
		C313.945,242.922,318.359,247.777,320.618,253.705z"/>
	<path style="fill:#4482C3;" d="M17.655,264.828h476.69c9.751,0,17.655,7.904,17.655,17.655v176.552
		c0,9.751-7.905,17.655-17.655,17.655H17.655C7.904,476.69,0,468.785,0,459.034V282.483C0,272.732,7.904,264.828,17.655,264.828z"/>
	<path style="fill:#B0D3F0;" d="M158.897,300.138h308.966c4.875,0,8.828,3.952,8.828,8.828v123.586c0,4.875-3.952,8.828-8.828,8.828
		H44.138c-4.875,0-8.828-3.952-8.828-8.828V308.966c0-4.875,3.952-8.828,8.828-8.828H158.897z"/>
	<g>
		<path style="fill:#285680;" d="M317.793,344.276H291.31c-4.875,0-8.828-3.952-8.828-8.828s3.952-8.828,8.828-8.828h26.483
			c4.875,0,8.828,3.952,8.828,8.828S322.668,344.276,317.793,344.276z"/>
		<path style="fill:#285680;" d="M317.793,379.586H291.31c-4.875,0-8.828-3.952-8.828-8.828s3.952-8.828,8.828-8.828h26.483
			c4.875,0,8.828,3.952,8.828,8.828S322.668,379.586,317.793,379.586z"/>
		<path style="fill:#285680;" d="M317.793,414.897H291.31c-4.875,0-8.828-3.952-8.828-8.828s3.952-8.828,8.828-8.828h26.483
			c4.875,0,8.828,3.952,8.828,8.828S322.668,414.897,317.793,414.897z"/>
		<path style="fill:#285680;" d="M379.586,344.276h-26.483c-4.875,0-8.828-3.952-8.828-8.828s3.952-8.828,8.828-8.828h26.483
			c4.875,0,8.828,3.952,8.828,8.828S384.462,344.276,379.586,344.276z"/>
		<path style="fill:#285680;" d="M379.586,379.586h-26.483c-4.875,0-8.828-3.952-8.828-8.828s3.952-8.828,8.828-8.828h26.483
			c4.875,0,8.828,3.952,8.828,8.828S384.462,379.586,379.586,379.586z"/>
		<path style="fill:#285680;" d="M379.586,414.897h-26.483c-4.875,0-8.828-3.952-8.828-8.828s3.952-8.828,8.828-8.828h26.483
			c4.875,0,8.828,3.952,8.828,8.828S384.462,414.897,379.586,414.897z"/>
		<path style="fill:#285680;" d="M441.379,344.276h-26.483c-4.875,0-8.828-3.952-8.828-8.828s3.952-8.828,8.828-8.828h26.483
			c4.875,0,8.828,3.952,8.828,8.828S446.255,344.276,441.379,344.276z"/>
		<path style="fill:#285680;" d="M441.379,379.586h-26.483c-4.875,0-8.828-3.952-8.828-8.828s3.952-8.828,8.828-8.828h26.483
			c4.875,0,8.828,3.952,8.828,8.828S446.255,379.586,441.379,379.586z"/>
		<path style="fill:#285680;" d="M441.379,414.897h-26.483c-4.875,0-8.828-3.952-8.828-8.828s3.952-8.828,8.828-8.828h26.483
			c4.875,0,8.828,3.952,8.828,8.828S446.255,414.897,441.379,414.897z"/>
	</g>
	<circle style="fill:#A5A5A4;" cx="123.586" cy="370.759" r="35.31"/>
	<path style="fill:#5E5F62;" d="M176.552,361.931h-9.71c-1.137-5.526-3.331-10.781-6.462-15.475l6.912-6.912
		c2.295-2.216,3.215-5.499,2.407-8.585c-0.808-3.086-3.218-5.497-6.305-6.305s-6.369,0.112-8.585,2.407l-6.912,6.912
		c-4.696-3.135-9.954-5.332-15.484-6.471v-9.71c0-4.875-3.952-8.828-8.828-8.828c-4.875,0-8.828,3.952-8.828,8.828v9.71
		c-5.526,1.137-10.781,3.331-15.475,6.462l-6.912-6.912c-3.464-3.345-8.97-3.298-12.375,0.108
		c-3.405,3.405-3.453,8.911-0.108,12.375l6.912,6.912c-3.135,4.696-5.332,9.954-6.471,15.484h-9.71
		c-4.875,0-8.828,3.952-8.828,8.828s3.952,8.828,8.828,8.828h9.71c1.137,5.526,3.331,10.781,6.462,15.475l-6.912,6.912
		c-2.295,2.216-3.215,5.499-2.407,8.585c0.808,3.086,3.218,5.497,6.305,6.305c3.086,0.808,6.369-0.112,8.585-2.407l6.912-6.912
		c4.696,3.135,9.954,5.332,15.484,6.471v9.71c0,4.875,3.952,8.828,8.828,8.828c4.875,0,8.828-3.952,8.828-8.828v-9.71
		c5.526-1.137,10.781-3.331,15.475-6.462l6.912,6.912c2.216,2.295,5.499,3.215,8.585,2.407c3.086-0.808,5.497-3.218,6.305-6.305
		c0.808-3.086-0.112-6.368-2.407-8.585l-6.912-6.912c3.135-4.696,5.332-9.954,6.471-15.484h9.71c4.875,0,8.828-3.952,8.828-8.828
		S181.427,361.931,176.552,361.931z M123.586,397.241c-14.626,0-26.483-11.857-26.483-26.483c0-14.626,11.857-26.483,26.483-26.483
		s26.483,11.857,26.483,26.483C150.069,385.385,138.212,397.241,123.586,397.241z"/>
</g>
<g>
</g>
<g>
</g>
<g>
</g>
<g>
</g>
<g>
</g>
<g>
</g>
<g>
</g>
<g>
</g>
<g>
</g>
<g>
</g>
<g>
</g>
<g>
</g>
<g>
</g>
<g>
</g>
<g>
</g>
</svg>
