<?xml version="1.0" encoding="iso-8859-1"?>
<!-- Generator: Adobe Illustrator 19.0.0, SVG Export Plug-In . SVG Version: 6.00 Build 0)  -->
<svg version="1.1" id="Capa_1" xmlns="http://www.w3.org/2000/svg" xmlns:xlink="http://www.w3.org/1999/xlink" x="0px" y="0px"
	 viewBox="0 0 512 512" style="enable-background:new 0 0 512 512;" xml:space="preserve">
<g>
	<path style="fill:#805333;" d="M442.576,160.629v-112.9c0-19.171-15.541-34.712-34.712-34.712H60.746
		c-19.171,0-34.712,15.541-34.712,34.712V342.78c0,19.171,15.541,34.712,34.712,34.712h347.119
		c19.171,0,34.712-15.541,34.712-34.712V160.629z"/>
	<g>
		<path style="fill:#CB8252;" d="M60.746,264.678c-4.793,0-8.678-3.885-8.678-8.678v-8.678c0-4.793,3.885-8.678,8.678-8.678
			s8.678,3.885,8.678,8.678V256C69.424,260.793,65.538,264.678,60.746,264.678z"/>
		<path style="fill:#CB8252;" d="M235.173,351.458h-16.922c-4.793,0-8.678-3.885-8.678-8.678s3.885-8.678,8.678-8.678h16.922
			c4.793,0,8.678,3.885,8.678,8.678S239.966,351.458,235.173,351.458z M184.424,351.458h-16.939c-4.793,0-8.678-3.885-8.678-8.678
			s3.885-8.678,8.678-8.678h16.913c4.793,0,8.678,3.885,8.678,8.678s-3.885,8.678-8.678,8.678H184.424z M133.641,351.458h-16.905
			c-4.793,0-8.678-3.885-8.678-8.678s3.885-8.678,8.678-8.678h16.905c4.793,0,8.678,3.885,8.678,8.678
			S138.433,351.458,133.641,351.458z M82.901,351.458h-4.799c-6.115,0.002-12.035-2.149-16.722-6.075
			c-2.466-1.967-3.671-5.117-3.146-8.227c0.524-3.111,2.695-5.691,5.67-6.741c2.975-1.049,6.285-0.402,8.645,1.691
			c1.556,1.303,3.524,2.01,5.554,1.996h4.799c4.793,0,8.678,3.885,8.678,8.678S87.693,351.458,82.901,351.458z M60.746,315.427
			c-4.793,0-8.678-3.885-8.678-8.678v-16.905c0-4.793,3.885-8.678,8.678-8.678s8.678,3.885,8.678,8.678v16.922
			C69.414,311.552,65.532,315.427,60.746,315.427z"/>
		<path style="fill:#CB8252;" d="M277.695,351.458h-8.678c-4.793,0-8.678-3.885-8.678-8.678s3.885-8.678,8.678-8.678h8.678
			c4.793,0,8.678,3.885,8.678,8.678S282.488,351.458,277.695,351.458z"/>
		<path style="fill:#CB8252;" d="M60.746,151.864c-4.793,0-8.678-3.885-8.678-8.678v-8.678c0-4.793,3.885-8.678,8.678-8.678
			s8.678,3.885,8.678,8.678v8.678C69.424,147.979,65.538,151.864,60.746,151.864z"/>
		<path style="fill:#CB8252;" d="M407.864,109.828c-4.793,0-8.678-3.885-8.678-8.678V83.656c0-4.793,3.885-8.678,8.678-8.678
			s8.678,3.885,8.678,8.678v17.495C416.542,105.943,412.657,109.828,407.864,109.828z M60.746,108.197
			c-4.793,0-8.678-3.885-8.678-8.678V82.024c0-4.793,3.885-8.678,8.678-8.678s8.678,3.885,8.678,8.678v17.495
			C69.424,104.312,65.538,108.197,60.746,108.197z M400.627,59.687c-1.822,0-3.599-0.574-5.077-1.64
			c-1.464-1.068-3.23-1.642-5.042-1.64h-6.673c-4.793,0-8.678-3.885-8.678-8.678s3.885-8.678,8.678-8.678h6.673
			c5.465-0.01,10.792,1.716,15.212,4.929c3.048,2.207,4.327,6.127,3.166,9.706C407.726,57.266,404.39,59.689,400.627,59.687z
			 M69.337,58.793c-3.914,0.005-7.347-2.61-8.381-6.384c-1.034-3.775,0.586-7.775,3.956-9.765c3.996-2.356,8.551-3.597,13.191-3.593
			h8.322c4.793,0,8.678,3.885,8.678,8.678s-3.885,8.678-8.678,8.678h-8.322c-1.527-0.003-3.026,0.408-4.339,1.189
			C72.421,58.384,70.893,58.798,69.337,58.793z M348.854,56.407h-17.495c-4.793,0-8.678-3.885-8.678-8.678s3.885-8.678,8.678-8.678
			h17.495c4.793,0,8.678,3.885,8.678,8.678S353.647,56.407,348.854,56.407z M296.353,56.407h-17.486
			c-4.793,0-8.678-3.885-8.678-8.678s3.885-8.678,8.678-8.678h17.486c4.793,0,8.678,3.885,8.678,8.678
			S301.145,56.407,296.353,56.407z M243.851,56.407h-17.477c-4.793,0-8.678-3.885-8.678-8.678s3.885-8.678,8.678-8.678h17.477
			c4.793,0,8.678,3.885,8.678,8.678S248.644,56.407,243.851,56.407z M191.384,56.407H173.88c-4.793,0-8.678-3.885-8.678-8.678
			s3.885-8.678,8.678-8.678h17.503c4.793,0,8.678,3.885,8.678,8.678S196.177,56.407,191.384,56.407z M138.891,56.407h-17.503
			c-4.793,0-8.678-3.885-8.678-8.678s3.885-8.678,8.678-8.678h17.503c4.793,0,8.678,3.885,8.678,8.678
			S143.684,56.407,138.891,56.407z"/>
		<path style="fill:#CB8252;" d="M407.864,153.6c-4.793,0-8.678-3.885-8.678-8.678v-8.678c0-4.793,3.885-8.678,8.678-8.678
			s8.678,3.885,8.678,8.678v8.678C416.542,149.715,412.657,153.6,407.864,153.6z"/>
	</g>
	<path style="fill:#59474E;" d="M26.034,143.186h104.136c14.378,0,26.034,11.656,26.034,26.034v52.068
		c0,14.378-11.656,26.034-26.034,26.034H26.034C11.656,247.322,0,235.666,0,221.288V169.22C0,154.842,11.656,143.186,26.034,143.186
		z"/>
	<circle style="fill:#F3D55B;" cx="104.136" cy="195.254" r="17.356"/>
	<path style="fill:#B0D3F0;" d="M477.288,325.424H303.729c-4.793,0-8.678-3.885-8.678-8.678v-78.102
		c0-52.72,42.738-95.458,95.458-95.458s95.458,42.738,95.458,95.458v78.102C485.966,321.538,482.081,325.424,477.288,325.424z
		 M312.407,308.068H468.61v-69.424c0-43.134-34.967-78.102-78.102-78.102s-78.102,34.967-78.102,78.102V308.068z"/>
	<path style="fill:#F0C419;" d="M286.373,308.068h208.271c4.793,0,8.678,3.885,8.678,8.678v130.169
		c0,28.756-23.312,52.068-52.068,52.068H329.763c-28.756,0-52.068-23.312-52.068-52.068V316.746
		C277.695,311.953,281.58,308.068,286.373,308.068z"/>
	<g>
		<path style="fill:#E57E25;" d="M390.508,412.203c-14.378,0-26.034-11.656-26.034-26.034s11.656-26.034,26.034-26.034
			s26.034,11.656,26.034,26.034S404.887,412.203,390.508,412.203z M390.508,377.492c-4.793,0-8.678,3.885-8.678,8.678
			s3.885,8.678,8.678,8.678c4.793,0,8.678-3.885,8.678-8.678S395.301,377.492,390.508,377.492z"/>
		<path style="fill:#E57E25;" d="M390.508,438.237c-4.793,0-8.678-3.885-8.678-8.678v-26.034c0-4.793,3.885-8.678,8.678-8.678
			c4.793,0,8.678,3.885,8.678,8.678v26.034C399.186,434.352,395.301,438.237,390.508,438.237z"/>
		<path style="fill:#E57E25;" d="M312.407,351.458h-34.712c-4.793,0-8.678-3.885-8.678-8.678s3.885-8.678,8.678-8.678h34.712
			c4.793,0,8.678,3.885,8.678,8.678S317.199,351.458,312.407,351.458z"/>
		<path style="fill:#E57E25;" d="M312.407,386.169h-34.712c-4.793,0-8.678-3.885-8.678-8.678c0-4.793,3.885-8.678,8.678-8.678
			h34.712c4.793,0,8.678,3.885,8.678,8.678C321.085,382.284,317.199,386.169,312.407,386.169z"/>
		<path style="fill:#E57E25;" d="M312.407,420.881h-34.712c-4.793,0-8.678-3.885-8.678-8.678c0-4.793,3.885-8.678,8.678-8.678
			h34.712c4.793,0,8.678,3.885,8.678,8.678C321.085,416.996,317.199,420.881,312.407,420.881z"/>
		<path style="fill:#E57E25;" d="M312.407,455.593h-34.712c-4.793,0-8.678-3.885-8.678-8.678s3.885-8.678,8.678-8.678h34.712
			c4.793,0,8.678,3.885,8.678,8.678S317.199,455.593,312.407,455.593z"/>
		<path style="fill:#E57E25;" d="M503.322,351.458H468.61c-4.793,0-8.678-3.885-8.678-8.678s3.885-8.678,8.678-8.678h34.712
			c4.793,0,8.678,3.885,8.678,8.678S508.115,351.458,503.322,351.458z"/>
		<path style="fill:#E57E25;" d="M503.322,386.169H468.61c-4.793,0-8.678-3.885-8.678-8.678c0-4.793,3.885-8.678,8.678-8.678h34.712
			c4.793,0,8.678,3.885,8.678,8.678C512,382.284,508.115,386.169,503.322,386.169z"/>
		<path style="fill:#E57E25;" d="M503.322,420.881H468.61c-4.793,0-8.678-3.885-8.678-8.678c0-4.793,3.885-8.678,8.678-8.678h34.712
			c4.793,0,8.678,3.885,8.678,8.678C512,416.996,508.115,420.881,503.322,420.881z"/>
		<path style="fill:#E57E25;" d="M503.322,455.593H468.61c-4.793,0-8.678-3.885-8.678-8.678s3.885-8.678,8.678-8.678h34.712
			c4.793,0,8.678,3.885,8.678,8.678S508.115,455.593,503.322,455.593z"/>
	</g>
</g>
<g>
</g>
<g>
</g>
<g>
</g>
<g>
</g>
<g>
</g>
<g>
</g>
<g>
</g>
<g>
</g>
<g>
</g>
<g>
</g>
<g>
</g>
<g>
</g>
<g>
</g>
<g>
</g>
<g>
</g>
</svg>
