<?xml version="1.0" encoding="iso-8859-1"?>
<!-- Generator: Adobe Illustrator 19.0.0, SVG Export Plug-In . SVG Version: 6.00 Build 0)  -->
<svg version="1.1" id="Layer_1" xmlns="http://www.w3.org/2000/svg" xmlns:xlink="http://www.w3.org/1999/xlink" x="0px" y="0px"
	 viewBox="0 0 512.004 512.004" style="enable-background:new 0 0 512.004 512.004;" xml:space="preserve">
<g>
	<path style="fill:#3B97D3;" d="M93.869,418.137V33.795c0-13.952,11.307-25.259,25.259-25.259H478.21
		c13.952,0,25.259,11.307,25.259,25.259v359.083c0,13.952-11.307,25.259-25.259,25.259H93.869z"/>
	<g>
		<path style="fill:#2980BA;" d="M247.469,221.87H102.402c-4.719,0-8.533-3.823-8.533-8.533V17.07c0-4.71,3.814-8.533,8.533-8.533
			h145.067c4.719,0,8.533,3.823,8.533,8.533v59.733c0,4.71-3.814,8.533-8.533,8.533s-8.533-3.823-8.533-8.533v-51.2h-128v179.2h128
			V145.07c0-4.71,3.814-8.533,8.533-8.533s8.533,3.823,8.533,8.533v68.267C256.002,218.047,252.188,221.87,247.469,221.87"/>
		<path style="fill:#2980BA;" d="M264.535,85.337h-34.133c-4.719,0-8.533-3.823-8.533-8.533c0-4.71,3.814-8.533,8.533-8.533h34.133
			c4.719,0,8.533,3.823,8.533,8.533C273.069,81.514,269.254,85.337,264.535,85.337"/>
		<path style="fill:#2980BA;" d="M264.535,153.603h-34.133c-4.719,0-8.533-3.823-8.533-8.533s3.814-8.533,8.533-8.533h34.133
			c4.719,0,8.533,3.823,8.533,8.533S269.254,153.603,264.535,153.603"/>
		<path style="fill:#2980BA;" d="M384.002,136.532c-4.719,0-8.533-3.823-8.533-8.533V93.866c0-4.71,3.814-8.533,8.533-8.533
			c4.719,0,8.533,3.823,8.533,8.533v34.133C392.535,132.709,388.721,136.532,384.002,136.532"/>
		<path style="fill:#2980BA;" d="M452.269,136.532c-4.719,0-8.533-3.823-8.533-8.533V93.866c0-4.71,3.814-8.533,8.533-8.533
			c4.719,0,8.533,3.823,8.533,8.533v34.133C460.802,132.709,456.988,136.532,452.269,136.532"/>
		<path style="fill:#2980BA;" d="M494.935,418.137H298.669c-4.719,0-8.533-3.823-8.533-8.533V264.537
			c0-4.71,3.814-8.533,8.533-8.533h68.267c4.719,0,8.533,3.823,8.533,8.533c0,4.71-3.814,8.533-8.533,8.533h-59.733v128h179.2v-128
			h-51.2c-4.719,0-8.533-3.823-8.533-8.533c0-4.71,3.814-8.533,8.533-8.533h59.733c4.719,0,8.533,3.823,8.533,8.533v145.067
			C503.469,414.314,499.654,418.137,494.935,418.137"/>
		<path style="fill:#2980BA;" d="M366.935,290.137c-4.719,0-8.533-3.823-8.533-8.533V247.47c0-4.71,3.814-8.533,8.533-8.533
			s8.533,3.823,8.533,8.533v34.133C375.469,286.314,371.654,290.137,366.935,290.137"/>
		<path style="fill:#2980BA;" d="M435.202,290.137c-4.719,0-8.533-3.823-8.533-8.533V247.47c0-4.71,3.814-8.533,8.533-8.533
			c4.719,0,8.533,3.823,8.533,8.533v34.133C443.736,286.314,439.921,290.137,435.202,290.137"/>
	</g>
	<g>
		<path style="fill:#F3D55B;" d="M59.735,42.67c-2.185,0-4.369-0.836-6.033-2.5L34.135,20.603L14.569,40.17
			c-3.337,3.337-8.73,3.337-12.066,0s-3.337-8.73,0-12.066l25.6-25.6c3.337-3.337,8.73-3.337,12.066,0l25.6,25.6
			c3.337,3.337,3.337,8.73,0,12.066C64.105,41.834,61.92,42.67,59.735,42.67"/>
		<path style="fill:#F3D55B;" d="M34.135,452.27c-4.719,0-8.533-3.823-8.533-8.533V8.537c0-4.71,3.814-8.533,8.533-8.533
			s8.533,3.823,8.533,8.533v435.2C42.669,448.447,38.854,452.27,34.135,452.27"/>
		<path style="fill:#F3D55B;" d="M34.135,452.27c-2.185,0-4.369-0.836-6.033-2.5l-25.6-25.6c-3.337-3.337-3.337-8.73,0-12.066
			s8.73-3.337,12.066,0l19.567,19.567l19.567-19.567c3.337-3.337,8.73-3.337,12.066,0c3.337,3.337,3.337,8.73,0,12.066l-25.6,25.6
			C38.505,451.434,36.32,452.27,34.135,452.27"/>
		<path style="fill:#F3D55B;" d="M503.469,486.403h-435.2c-4.719,0-8.533-3.823-8.533-8.533c0-4.71,3.814-8.533,8.533-8.533h435.2
			c4.719,0,8.533,3.823,8.533,8.533C512.002,482.58,508.188,486.403,503.469,486.403"/>
		<path style="fill:#F3D55B;" d="M477.869,512.003c-2.185,0-4.369-0.836-6.033-2.5c-3.337-3.337-3.337-8.73,0-12.066l19.567-19.567
			l-19.567-19.567c-3.337-3.337-3.337-8.73,0-12.066s8.73-3.337,12.066,0l25.6,25.6c3.337,3.337,3.337,8.73,0,12.066l-25.6,25.6
			C482.238,511.167,480.053,512.003,477.869,512.003"/>
		<path style="fill:#F3D55B;" d="M93.869,512.003c-2.185,0-4.369-0.836-6.033-2.5l-25.6-25.6c-3.337-3.337-3.337-8.73,0-12.066
			l25.6-25.6c3.337-3.337,8.73-3.337,12.066,0s3.337,8.73,0,12.066L80.335,477.87l19.567,19.567c3.337,3.337,3.337,8.73,0,12.066
			C98.238,511.167,96.053,512.003,93.869,512.003"/>
	</g>
	<g>
		<path style="fill:#2980BA;" d="M494.935,119.47h-42.667c-4.719,0-8.533-3.823-8.533-8.533s3.814-8.533,8.533-8.533h34.133v-76.8
			H349.869v76.8h34.133c4.719,0,8.533,3.823,8.533,8.533s-3.814,8.533-8.533,8.533h-42.667c-4.719,0-8.533-3.823-8.533-8.533V17.07
			c0-4.71,3.814-8.533,8.533-8.533h153.6c4.719,0,8.533,3.823,8.533,8.533v93.867C503.469,115.647,499.654,119.47,494.935,119.47"/>
		<path style="fill:#2980BA;" d="M93.869,384.003c56.602,0,102.4-45.798,102.4-102.4h-102.4V384.003z"/>
	</g>
</g>
<g>
</g>
<g>
</g>
<g>
</g>
<g>
</g>
<g>
</g>
<g>
</g>
<g>
</g>
<g>
</g>
<g>
</g>
<g>
</g>
<g>
</g>
<g>
</g>
<g>
</g>
<g>
</g>
<g>
</g>
</svg>
