<?xml version="1.0" encoding="iso-8859-1"?>
<!-- Generator: Adobe Illustrator 19.0.0, SVG Export Plug-In . SVG Version: 6.00 Build 0)  -->
<svg version="1.1" id="Layer_1" xmlns="http://www.w3.org/2000/svg" xmlns:xlink="http://www.w3.org/1999/xlink" x="0px" y="0px"
	 viewBox="0 0 512 512" style="enable-background:new 0 0 512 512;" xml:space="preserve">
<g>
	<g>
		<path style="fill:#D75A4A;" d="M434.836,313.026c-0.759,0-1.536-0.097-2.304-0.3c-4.705-1.271-7.495-6.117-6.232-10.823
			c4.149-15.431,6.25-30.87,6.25-45.903c0-57.229-27.577-109.294-75.67-142.83c-3.999-2.79-4.979-8.289-2.189-12.288
			c2.772-3.99,8.271-4.979,12.288-2.189c52.895,36.873,83.227,94.217,83.227,157.308c0,16.578-2.313,33.571-6.85,50.494
			C442.296,310.431,438.72,313.026,434.836,313.026"/>
		<path style="fill:#D75A4A;" d="M256,450.207c-16.578,0-33.571-2.313-50.494-6.85c-4.705-1.271-7.495-6.118-6.232-10.823
			c1.271-4.705,6.135-7.486,10.823-6.232c30.861,8.289,60.946,8.289,91.807,0c4.696-1.271,9.551,1.527,10.823,6.232
			c1.262,4.705-1.527,9.551-6.232,10.823C289.571,447.894,272.578,450.207,256,450.207"/>
		<path style="fill:#D75A4A;" d="M77.164,313.026c-3.884,0-7.459-2.595-8.519-6.532c-4.537-16.922-6.85-33.916-6.85-50.494
			c0-63.091,30.332-120.435,83.226-157.308c4.025-2.781,9.507-1.801,12.288,2.189c2.79,3.999,1.81,9.498-2.189,12.288
			C107.027,146.706,79.45,198.771,79.45,256c0,15.033,2.101,30.473,6.25,45.903c1.262,4.705-1.527,9.551-6.232,10.823
			C78.7,312.929,77.923,313.026,77.164,313.026"/>
	</g>
	<path style="fill:#F0C419;" d="M211.862,406.069c0-58.5-47.431-105.931-105.931-105.931S0,347.569,0,406.069
		S47.431,512,105.931,512S211.862,464.569,211.862,406.069"/>
	<path style="fill:#48A0DC;" d="M512,406.069c0-58.5-47.431-105.931-105.931-105.931s-105.931,47.431-105.931,105.931
		S347.569,512,406.069,512S512,464.569,512,406.069"/>
	<g>
		<path style="fill:#FFFFFF;" d="M105.931,485.517c-4.882,0-8.828-3.946-8.828-8.828V335.448c0-4.882,3.946-8.828,8.828-8.828
			c4.882,0,8.828,3.946,8.828,8.828V476.69C114.759,481.571,110.813,485.517,105.931,485.517"/>
		<path style="fill:#FFFFFF;" d="M105.931,473.75c-12.606,0-23.834-6.065-33.377-18.035c-3.046-3.814-2.428-9.366,1.386-12.403
			c3.814-3.046,9.366-2.419,12.403,1.386c6.206,7.777,12.429,11.396,19.588,11.396c12.729,0,26.483-7.883,26.483-20.604
			c0-12.314-13.692-20.595-26.483-20.595c-21.222,0-44.138-14.618-44.138-38.25c0-23.631,22.916-38.259,44.138-38.259
			c17.028,0,27.207,10.293,33.377,18.035c3.046,3.814,2.428,9.375-1.386,12.403c-3.822,3.054-9.366,2.428-12.403-1.386
			c-6.462-8.095-12.138-11.396-19.588-11.396c-12.791,0-26.483,8.28-26.483,20.604c0,12.323,13.692,20.595,26.483,20.595
			c21.222,0,44.138,14.618,44.138,38.25C150.069,459.123,127.153,473.75,105.931,473.75"/>
		<path style="fill:#FFFFFF;" d="M79.448,476.69c-4.882,0-8.828-3.946-8.828-8.828v-35.31c0-4.882,3.946-8.828,8.828-8.828
			c4.882,0,8.828,3.946,8.828,8.828v35.31C88.276,472.744,84.33,476.69,79.448,476.69"/>
		<path style="fill:#FFFFFF;" d="M132.414,388.414c-4.882,0-8.828-3.946-8.828-8.828v-35.31c0-4.882,3.946-8.828,8.828-8.828
			c4.882,0,8.828,3.946,8.828,8.828v35.31C141.241,384.468,137.295,388.414,132.414,388.414"/>
		<path style="fill:#FFFFFF;" d="M406.069,485.517c-4.882,0-8.828-3.946-8.828-8.828V335.448c0-4.882,3.946-8.828,8.828-8.828
			c4.882,0,8.828,3.946,8.828,8.828V476.69C414.897,481.571,410.951,485.517,406.069,485.517"/>
		<path style="fill:#FFFFFF;" d="M406.069,473.75c-12.606,0-23.835-6.065-33.377-18.035c-3.046-3.814-2.428-9.366,1.386-12.403
			c3.822-3.046,9.366-2.419,12.403,1.386c6.206,7.777,12.429,11.396,19.588,11.396c12.729,0,26.483-7.883,26.483-20.604
			c0-12.314-13.692-20.595-26.483-20.595c-21.222,0-44.138-14.618-44.138-38.25c0-23.631,22.916-38.259,44.138-38.259
			c17.028,0,27.207,10.293,33.377,18.035c3.046,3.814,2.428,9.375-1.386,12.403c-3.814,3.054-9.366,2.428-12.403-1.386
			c-6.462-8.095-12.138-11.396-19.588-11.396c-12.791,0-26.483,8.28-26.483,20.604c0,12.323,13.692,20.595,26.483,20.595
			c21.221,0,44.138,14.618,44.138,38.25C450.207,459.123,427.29,473.75,406.069,473.75"/>
		<path style="fill:#FFFFFF;" d="M379.586,476.69c-4.882,0-8.828-3.946-8.828-8.828v-35.31c0-4.882,3.946-8.828,8.828-8.828
			c4.882,0,8.828,3.946,8.828,8.828v35.31C388.414,472.744,384.468,476.69,379.586,476.69"/>
		<path style="fill:#FFFFFF;" d="M432.552,388.414c-4.882,0-8.828-3.946-8.828-8.828v-35.31c0-4.882,3.946-8.828,8.828-8.828
			c4.882,0,8.828,3.946,8.828,8.828v35.31C441.379,384.468,437.433,388.414,432.552,388.414"/>
	</g>
	<path style="fill:#24AE5F;" d="M361.931,105.931C361.931,47.431,314.5,0,256,0S150.069,47.431,150.069,105.931
		S197.5,211.862,256,211.862S361.931,164.431,361.931,105.931"/>
	<g>
		<path style="fill:#FFFFFF;" d="M229.517,158.897c-4.882,0-8.828-3.946-8.828-8.828V88.276c0-4.882,3.946-8.828,8.828-8.828
			s8.828,3.946,8.828,8.828v61.793C238.345,154.951,234.399,158.897,229.517,158.897"/>
		<path style="fill:#FFFFFF;" d="M282.483,158.897c-4.882,0-8.828-3.946-8.828-8.828V88.276c0-4.882,3.946-8.828,8.828-8.828
			s8.828,3.946,8.828,8.828v61.793C291.31,154.951,287.364,158.897,282.483,158.897"/>
		<path style="fill:#FFFFFF;" d="M308.966,123.586c-2.26,0-4.52-0.865-6.241-2.586L256,74.275L209.276,121
			c-3.452,3.452-9.031,3.452-12.482,0c-3.452-3.452-3.452-9.031,0-12.482l52.966-52.966c3.452-3.452,9.031-3.452,12.482,0
			l52.966,52.966c3.452,3.452,3.452,9.031,0,12.482C313.485,122.721,311.225,123.586,308.966,123.586"/>
	</g>
</g>
<g>
</g>
<g>
</g>
<g>
</g>
<g>
</g>
<g>
</g>
<g>
</g>
<g>
</g>
<g>
</g>
<g>
</g>
<g>
</g>
<g>
</g>
<g>
</g>
<g>
</g>
<g>
</g>
<g>
</g>
</svg>
