<?xml version="1.0" encoding="iso-8859-1"?>
<!-- Generator: Adobe Illustrator 19.0.0, SVG Export Plug-In . SVG Version: 6.00 Build 0)  -->
<svg version="1.1" id="Layer_1" xmlns="http://www.w3.org/2000/svg" xmlns:xlink="http://www.w3.org/1999/xlink" x="0px" y="0px"
	 viewBox="0 0 512 512" style="enable-background:new 0 0 512 512;" xml:space="preserve">
<g>
	<path style="fill:#AFB6BB;" d="M467.862,428.138L467.862,428.138c-24.373,0-44.138-19.765-44.138-44.138V198.621h70.621
		c9.754,0,17.655,7.901,17.655,17.655V384C512,408.373,492.235,428.138,467.862,428.138"/>
	<g>
		<path style="fill:#849096;" d="M459.034,322.207h-35.31c-4.882,0-8.828-3.946-8.828-8.828s3.946-8.828,8.828-8.828h35.31
			c4.882,0,8.828,3.946,8.828,8.828S463.916,322.207,459.034,322.207"/>
		<path style="fill:#849096;" d="M476.69,286.897h-52.966c-4.882,0-8.828-3.946-8.828-8.828s3.946-8.828,8.828-8.828h52.966
			c4.882,0,8.828,3.946,8.828,8.828S481.571,286.897,476.69,286.897"/>
		<path style="fill:#849096;" d="M459.034,392.828h-35.31c-4.882,0-8.828-3.946-8.828-8.828c0-4.882,3.946-8.828,8.828-8.828h35.31
			c4.882,0,8.828,3.946,8.828,8.828C467.862,388.882,463.916,392.828,459.034,392.828"/>
		<path style="fill:#849096;" d="M476.69,357.517h-52.966c-4.882,0-8.828-3.946-8.828-8.828s3.946-8.828,8.828-8.828h52.966
			c4.882,0,8.828,3.946,8.828,8.828S481.571,357.517,476.69,357.517"/>
	</g>
	<path style="fill:#E8EDEE;" d="M423.724,384v-44.138V101.517c0-9.754-7.901-17.655-17.655-17.655H17.655
		C7.901,83.862,0,91.763,0,101.517V384c0,24.373,19.765,44.138,44.138,44.138h423.724C443.489,428.138,423.724,408.373,423.724,384"
		/>
	<polygon style="fill:#434C6D;" points="141.05,207.448 44.141,304.552 70.623,331.034 141.05,260.414 141.244,260.608 
		141.429,260.414 211.865,331.034 238.347,304.552 	"/>
	<polygon style="fill:#899ABF;" points="141.14,260.414 88.271,313.379 88.271,384 194.202,384 194.202,313.379 	"/>
	<polygon style="fill:#D75A4A;" points="44.138,163.31 379.586,163.31 379.586,128 44.138,128 	"/>
	<g>
		<path style="fill:#AFB6BB;" d="M291.31,251.586h-17.655c-4.882,0-8.828-3.946-8.828-8.828s3.946-8.828,8.828-8.828h17.655
			c4.882,0,8.828,3.946,8.828,8.828S296.192,251.586,291.31,251.586"/>
		<path style="fill:#AFB6BB;" d="M379.586,251.586h-52.966c-4.882,0-8.828-3.946-8.828-8.828s3.946-8.828,8.828-8.828h52.966
			c4.882,0,8.828,3.946,8.828,8.828S384.468,251.586,379.586,251.586"/>
		<path style="fill:#AFB6BB;" d="M379.586,286.897h-17.655c-4.882,0-8.828-3.946-8.828-8.828s3.946-8.828,8.828-8.828h17.655
			c4.882,0,8.828,3.946,8.828,8.828S384.468,286.897,379.586,286.897"/>
		<path style="fill:#AFB6BB;" d="M326.621,286.897h-52.966c-4.882,0-8.828-3.946-8.828-8.828s3.946-8.828,8.828-8.828h52.966
			c4.882,0,8.828,3.946,8.828,8.828S331.502,286.897,326.621,286.897"/>
		<path style="fill:#AFB6BB;" d="M291.31,322.207h-17.655c-4.882,0-8.828-3.946-8.828-8.828s3.946-8.828,8.828-8.828h17.655
			c4.882,0,8.828,3.946,8.828,8.828S296.192,322.207,291.31,322.207"/>
		<path style="fill:#AFB6BB;" d="M379.586,322.207h-52.966c-4.882,0-8.828-3.946-8.828-8.828s3.946-8.828,8.828-8.828h52.966
			c4.882,0,8.828,3.946,8.828,8.828S384.468,322.207,379.586,322.207"/>
		<path style="fill:#AFB6BB;" d="M379.586,357.517h-17.655c-4.882,0-8.828-3.946-8.828-8.828s3.946-8.828,8.828-8.828h17.655
			c4.882,0,8.828,3.946,8.828,8.828S384.468,357.517,379.586,357.517"/>
		<path style="fill:#AFB6BB;" d="M326.621,357.517h-52.966c-4.882,0-8.828-3.946-8.828-8.828s3.946-8.828,8.828-8.828h52.966
			c4.882,0,8.828,3.946,8.828,8.828S331.502,357.517,326.621,357.517"/>
		<path style="fill:#AFB6BB;" d="M379.586,392.828h-35.31c-4.882,0-8.828-3.946-8.828-8.828c0-4.882,3.946-8.828,8.828-8.828h35.31
			c4.882,0,8.828,3.946,8.828,8.828C388.414,388.882,384.468,392.828,379.586,392.828"/>
		<path style="fill:#AFB6BB;" d="M308.966,392.828h-35.31c-4.882,0-8.828-3.946-8.828-8.828c0-4.882,3.946-8.828,8.828-8.828h35.31
			c4.882,0,8.828,3.946,8.828,8.828C317.793,388.882,313.847,392.828,308.966,392.828"/>
	</g>
</g>
<g>
</g>
<g>
</g>
<g>
</g>
<g>
</g>
<g>
</g>
<g>
</g>
<g>
</g>
<g>
</g>
<g>
</g>
<g>
</g>
<g>
</g>
<g>
</g>
<g>
</g>
<g>
</g>
<g>
</g>
</svg>
