<?xml version="1.0" encoding="iso-8859-1"?>
<!-- Generator: Adobe Illustrator 19.0.0, SVG Export Plug-In . SVG Version: 6.00 Build 0)  -->
<svg version="1.1" id="Layer_1" xmlns="http://www.w3.org/2000/svg" xmlns:xlink="http://www.w3.org/1999/xlink" x="0px" y="0px"
	 viewBox="0 0 512 512" style="enable-background:new 0 0 512 512;" xml:space="preserve">
<g>
	<path style="fill:#24AE5F;" d="M256,0c0,0-58.854,70.621-194.207,70.621v168.474c0,87.976,38.206,172.818,107.379,227.178
		C193.66,485.517,222.526,502.069,256,512c33.474-9.931,62.34-26.483,86.828-45.727c69.173-54.36,107.379-139.202,107.379-227.178
		V70.621C314.854,70.621,256,0,256,0"/>
	<polygon style="fill:#F0C419;" points="255.751,123.586 123.584,247.172 158.895,282.483 255.751,194.207 353.102,282.483 
		388.412,247.172 	"/>
	<polygon style="fill:#C49B1A;" points="255.75,194.207 185.377,258.348 185.377,353.103 326.618,353.103 326.618,258.472 	"/>
</g>
<g>
</g>
<g>
</g>
<g>
</g>
<g>
</g>
<g>
</g>
<g>
</g>
<g>
</g>
<g>
</g>
<g>
</g>
<g>
</g>
<g>
</g>
<g>
</g>
<g>
</g>
<g>
</g>
<g>
</g>
</svg>
