<?xml version="1.0" encoding="iso-8859-1"?>
<!-- Generator: Adobe Illustrator 19.0.0, SVG Export Plug-In . SVG Version: 6.00 Build 0)  -->
<svg version="1.1" id="Layer_1" xmlns="http://www.w3.org/2000/svg" xmlns:xlink="http://www.w3.org/1999/xlink" x="0px" y="0px"
	 viewBox="0 0 512 512" style="enable-background:new 0 0 512 512;" xml:space="preserve">
<g>
	<path style="fill:#24AE5F;" d="M255.999,0c0,0-58.854,70.621-194.207,70.621v168.474c0,87.976,38.206,172.818,107.379,227.178
		c24.488,19.244,53.354,35.796,86.828,45.727c33.474-9.931,62.34-26.483,86.828-45.727C412,411.913,450.206,327.071,450.206,239.095
		V70.621C314.852,70.621,255.999,0,255.999,0"/>
	<polygon style="fill:#F0C419;" points="255.749,123.586 123.582,247.172 158.893,282.483 255.749,194.207 353.099,282.483 
		388.41,247.172 	"/>
	<polygon style="fill:#C49B1A;" points="255.749,194.207 185.375,258.348 185.375,353.103 326.617,353.103 326.617,258.472 	"/>
	<path style="fill:#D75A4A;" d="M115.166,409.316L450.208,74.274v-3.655c-7.133,0-13.939-0.291-20.648-0.671L105.2,394.318
		C108.342,399.429,111.697,404.416,115.166,409.316"/>
</g>
<g>
</g>
<g>
</g>
<g>
</g>
<g>
</g>
<g>
</g>
<g>
</g>
<g>
</g>
<g>
</g>
<g>
</g>
<g>
</g>
<g>
</g>
<g>
</g>
<g>
</g>
<g>
</g>
<g>
</g>
</svg>
