<svg height="512" viewBox="0 0 60 54" width="512" xmlns="http://www.w3.org/2000/svg"><g id="048---Electrocution" fill="none" transform="translate(-1 -1)"><path id="Shape" d="m27.15 4.252-24.543 42.962c-.80501772 1.3890835-.8127723 3.100947-.02037219 4.4972667s2.26601976 2.2675153 3.87137219 2.2887333h49.084c1.6053524-.021218 3.0789721-.8924136 3.8713722-2.2887333s.7846455-3.1081832-.0203722-4.4972667l-24.543-42.962c-.7822602-1.39106185-2.2540727-2.25196213-3.85-2.25196213s-3.0677398.86090028-3.85 2.25196213z" fill="#f0c419"/><g fill="#464f5d"><path id="Shape" d="m60.26 46.72-24.54-42.96c-.9589765-1.70547628-2.7633996-2.76097946-4.72-2.76097946s-3.7610235 1.05550318-4.72 2.76097946l-24.54 42.96c-.98278783 1.6983152-.98958172 3.7908241-.01784256 5.4954851.97173916 1.7046611 2.77576145 2.7649173 4.73784256 2.7845149h49.08c1.9620811-.0195976 3.7661034-1.0798538 4.7378426-2.7845149.9717391-1.704661.9649452-3.7971699-.0178426-5.4954851zm-4.72 6.28h-49.08c-1.24896271-.0208951-2.39318394-.7025106-3.00627126-1.7908434-.61308731-1.0883329-.60308817-2.4201519.02627126-3.4991566l24.54-42.96c.6025444-1.0805505 1.7428059-1.75027078 2.98-1.75027078s2.3774556.66972028 2.98 1.75027078l24.54 42.96c.6293594 1.0790047.6393586 2.4108237.0262713 3.4991566-.6130874 1.0883328-1.7573086 1.7699483-3.0062713 1.7908434z"/><path id="Shape" d="m37.707 26.293c-.3904999-.3903819-1.0235001-.3903819-1.414 0l-1.293 1.293v-8.586c-.0000863-.4043959-.2437275-.7689341-.6173454-.923678-.373618-.1547439-.8036603-.0692299-1.0896546.216678l-6.293 6.293v-8.586c0-.5522847-.4477153-1-1-1s-1 .4477153-1 1v11c.0000863.4043959.2437275.7689341.6173454.923678.373618.1547439.8036603.0692299 1.0896546-.216678l6.293-6.293v6.172l-1.293-1.293c-.3923789-.3789722-1.0160848-.3735524-1.4018186.0121814s-.3911536 1.0094397-.0121814 1.4018186l3 3c.3904999.3903819 1.0235001.3903819 1.414 0l3-3c.3903819-.3904999.3903819-1.0235001 0-1.414z"/><path id="Shape" d="m43.24 42.32-2.087-3.412c1.4329557-.3181395 2.4228475-1.6296878 2.3359217-3.0949586s-1.2249414-2.6505831-2.6854606-2.79707c-1.4605191-.146487-2.8112672.7892077-3.1874611 2.2080286-.1.037.086.048-8.166-2.434-.6899124-.2247179-1.4474192-.0581499-1.9794239.4352548-.5320046.4934048-.7550507 1.2362452-.5828366 1.9410995.172214.7048542.7126728 1.2611507 1.4122605 1.4536457l2.92.88-1.41.5c-6.358 0-6.471-.109-7.32.33-.691.357.09-.033-4.6 2.35-.9487512.4584852-1.4075102 1.5517894-1.07 2.55.2058262.5280935.6253484.9445378 1.1549432 1.1464696.5295949.2019319 1.1198814.1705226 1.6250568-.0864696l5.44-2.51c-.6635883.4283494-1.1198269 1.1127072-1.26 1.89l-.89 4.21c-.1111743.5539995.0164532 1.1291951.3515071 1.584183.3350539.454988.8464588.7475693 1.4084929.805817 1.0505382.0724736 1.9883563-.6545505 2.18-1.69l.79-3.89c3.2074362-1.5481743 6.4954773-2.9234768 9.85-4.12l2.15 3.51-1.39 1.79c-.6367584.7802304-.6241287 1.9042739.03 2.67.3973529.4333956.9652853.6699843 1.5528112.6468685s1.1351147-.3035939 1.4971888-.7668685l1.71-2.19c.8847112-1.1287332.9725094-2.6891469.22-3.91z"/></g></g></svg>