<svg height="512" viewBox="0 0 46 60" width="512" xmlns="http://www.w3.org/2000/svg"><g id="029---Fire-Exit" fill="none"><rect id="Rectangle-path" fill="#e64c3c" height="58" rx="4" width="44" x="1" y="1"/><path id="Shape" d="m41 0h-36c-2.76142375 0-5 2.23857625-5 5v50c0 2.7614237 2.23857625 5 5 5h36c2.7614237 0 5-2.2385763 5-5v-50c0-2.76142375-2.2385763-5-5-5zm3 55c-.0049422 1.6548028-1.3451972 2.9950578-3 3h-36c-1.6548028-.0049422-2.9950578-1.3451972-3-3v-50c.0049422-1.6548028 1.3451972-2.9950578 3-3h36c1.6548028.0049422 2.9950578 1.3451972 3 3z" fill="#ecf0f1"/><g fill="#fff"><circle id="Oval" cx="33.477" cy="14.001" r="3"/><path id="Shape" d="m41 51h-5v-2c0-1.1045695-.8954305-2-2-2h-4v-2c0-1.1045695-.8954305-2-2-2h-4v-2c-.0023249-.7779861-.4555946-1.4840258-1.162-1.81.165-.235-.215.482 3.1-6.02.0602916-.1181977.1650923-.2075836.2913218-.2484722s.2635352-.0299265.3816782.0304722l1.781.909c.2455641.1255414.3431032.4262123.218.672l-.682 1.337c-.3247544.6364686-.2852879 1.3978444.1035329 1.9973243s1.0679248.9459887 1.7815.909c.7135752-.0369888 1.3532127-.4518557 1.6779671-1.0883243l1.818-3.563c.2412781-.4724719.2849538-1.0214485.1214162-1.5261269-.1635375-.5046784-.520888-.9237052-.9934162-1.1648731l-4.454-2.272 2.666-5.226c.0871245-.1708075.2642559-.2767464.4559575-.2726993.1917017.004047.3642043.117367.4440425.2916993l1.28 2.8c.4605227 1.0029955 1.6464731 1.4433634 2.65.984 2.293-1.053 1.315-.605 4.35-1.994.6742398-.2817777 1.1411274-.9088478 1.2177698-1.6355691s-.2491629-1.4373914-.8497886-1.8536205-1.3804453-.4717488-2.0339812-.1448104l-2.343 1.076c-.0483921.0219579-.1035333.0237542-.1532519.0049925-.0497186-.0187618-.0899264-.0565389-.1117481-.1049925l-1.825-3.987c-.187575-.4087836-.5074614-.7424096-.908-.947l-7.4-3.775c-.9839057-.5016188-2.1881634-.1107946-2.69.873l-1.362 2.676c-.3428268.6382869-.3136423 1.4120721.0762899 2.022722.3899323.6106498 1.0796296.9626626 1.8029109.920183.7232814-.0424796 1.3670303-.4728081 1.6827992-1.124905l.228-.446c.1255414-.2455641.4262123-.3431032.672-.218l1.782.909c.1181977.0602916.2075836.1650923.2484722.2913218s.0299265.2635352-.0304722.3816782l-8.408 16.479c-.2979634.5855199-.2893661 1.2800353.023 1.858h-.447c-.5522847 0-1 .4477153-1 1s.4477153 1 1 1h3v2c0 1.1045695.8954305 2 2 2h4v2c0 1.1045695.8954305 2 2 2h4v2c0 1.1045695.8954305 2 2 2h5c.5522847 0 1-.4477153 1-1s-.4477153-1-1-1z"/><path id="Shape" d="m5.261 14.664c-.588-.633-.159-1.78 1.088-1.632 2.40185363.4414817 4.603474 1.6287192 6.292 3.393 1.1097677 1.1177535 2.1393219 2.3123839 3.081 3.575.1629572.2381343.3510374.458064.561.656.44903.5352895 1.0464594.9256889 1.717 1.122-1.255 1.217-3.684.693-5.278-.076-3.88-1.873-6.048-5.517-7.461-7.038z"/><path id="Shape" d="m5.261 24.664c-.588-.633-.159-1.78 1.088-1.632 2.40185363.4414817 4.603474 1.6287192 6.292 3.393 1.1097677 1.1177535 2.1393219 2.3123839 3.081 3.575.1629572.2381343.3510374.458064.561.656.44903.5352895 1.0464594.9256889 1.717 1.122-1.255 1.217-3.684.693-5.278-.076-3.88-1.873-6.048-5.517-7.461-7.038z"/><path id="Shape" d="m5.261 34.664c-.588-.633-.159-1.78 1.088-1.632 2.40185363.4414817 4.603474 1.6287192 6.292 3.393 1.1097677 1.1177535 2.1393219 2.3123839 3.081 3.575.1629572.2381343.3510374.458064.561.656.44903.5352895 1.0464594.9256889 1.717 1.122-1.255 1.217-3.684.693-5.278-.076-3.88-1.873-6.048-5.517-7.461-7.038z"/><path id="Shape" d="m5.261 44.664c-.588-.633-.159-1.78 1.088-1.632 2.40185363.4414817 4.603474 1.6287192 6.292 3.393 1.1097677 1.1177535 2.1393219 2.3123839 3.081 3.575.1629572.2381343.3510374.458064.561.656.44903.5352895 1.0464594.9256889 1.717 1.122-1.255 1.217-3.684.693-5.278-.076-3.88-1.873-6.048-5.517-7.461-7.038z"/></g></g></svg>