<svg height="512" viewBox="0 0 46 60" width="512" xmlns="http://www.w3.org/2000/svg"><g id="024---Fire-Extinguisher" fill="none" fill-rule="evenodd"><rect id="Rectangle-path" fill="#e64c3c" fill-rule="nonzero" height="58" rx="4" width="44" x="1" y="1"/><path id="Shape" d="m41 0h-36c-2.76142375 0-5 2.23857625-5 5v50c0 2.7614237 2.23857625 5 5 5h36c2.7614237 0 5-2.2385763 5-5v-50c0-2.76142375-2.2385763-5-5-5zm3 55c-.0049422 1.6548028-1.3451972 2.9950578-3 3h-36c-1.6548028-.0049422-2.9950578-1.3451972-3-3v-50c.0049422-1.6548028 1.3451972-2.9950578 3-3h36c1.6548028.0049422 2.9950578 1.3451972 3 3z" fill="#ecf0f1" fill-rule="nonzero"/><g fill="#fff"><path id="Shape" d="m38 12h-3c0-.5522847-.4477153-1-1-1h-1.584c2.4247863-1.96890537 5.4606552-3.02990337 8.584-3 .5522847 0 1-.44771525 1-1s-.4477153-1-1-1c-4.5529802-.08413031-8.8973098 1.90608558-11.807 5.409-.0181606.0344596-.0345161.0698408-.049.106-.06929.1145338-.1110523.2435862-.122.377-.0093453.0355607-.0166902.0716172-.022.108h-3c-.5522847 0-1 .4477153-1 1v2c0 .5522847.4477153 1 1 1h3v1.1c.3288153-.0688868.6640549-.1024107 1-.1 3.843 0 4.341-.044 5 .1v-3.1h3c.9102648.0668036 1.7134051.6202056 2.1 1.447.2468713.4942949.8477051.6948713 1.342.448s.6948713-.8477051.448-1.342c-.7316004-1.4988906-2.2237716-2.4781999-3.89-2.553z" fill-rule="nonzero"/><path id="Shape" d="m24 15-15.059 2c-.66153113-.8557109-.99528804-1.9197605-.941-3-.05428804-1.0802395.27946887-2.1442891.941-3l15.059 2z" fill-rule="nonzero"/><path id="Shape" d="m21.04 40.98-.04.02c-.9795498 1.1588389-2.5903554 1.5615403-4 1 .8091887-1.1073156 1.207338-2.4619426 1.126-3.831-.0635293-1.4438187-.4423998-2.8562207-1.11-4.138l-.016-.031c-1.7871021-2.2021323-3.7978677-4.2128979-6-6 2.95 8.86-6 11.54-6 17.73.03301661 3.529638 2.2971687 6.6513749 5.642 7.779-.4173196-.586806-.6416926-1.2889327-.642-2.009 0-2.618 3.686-3.75 2.472-7.5 2.681 2.368 5.936 6.6 3.886 9.509 3.3448313-1.1276251 5.6089834-4.249362 5.642-7.779-.0280108-1.6285895-.3533531-3.2383559-.96-4.75z"/><path id="Shape" d="m26 44v6c0 2.209139 1.790861 4 4 4h4c2.209139 0 4-1.790861 4-4v-6z" fill-rule="nonzero"/><path id="Shape" d="m38 26v-4c0-2.209139-1.790861-4-4-4h-4c-2.209139 0-4 1.790861-4 4v4z" fill-rule="nonzero"/><path id="Rectangle-path" d="m26 28h12v14h-12z" fill-rule="nonzero"/></g></g></svg>