<svg height="512" viewBox="0 0 46 60" width="512" xmlns="http://www.w3.org/2000/svg"><g id="027---Fire-Alarm" fill="none"><rect id="Rectangle-path" fill="#e64c3c" height="58" rx="4" width="44" x="1" y="1"/><path id="Shape" d="m41 0h-36c-2.76142375 0-5 2.23857625-5 5v50c0 2.7614237 2.23857625 5 5 5h36c2.7614237 0 5-2.2385763 5-5v-50c0-2.76142375-2.2385763-5-5-5zm3 55c-.0049422 1.6548028-1.3451972 2.9950578-3 3h-36c-1.6548028-.0049422-2.9950578-1.3451972-3-3v-50c.0049422-1.6548028 1.3451972-2.9950578 3-3h36c1.6548028.0049422 2.9950578 1.3451972 3 3z" fill="#ecf0f1"/><circle id="Oval" cx="16" cy="39" fill="#fff" r="11"/><circle id="Oval" cx="16" cy="39" fill="#e64c3c" r="2"/><g fill="#fff"><path id="Shape" d="m26.47 25.04c-1.2555256.1610665-2.358866.9114865-2.97 2.02l-4.16-4.16c1.7661005-.2669442 3.4127236-1.0537028 4.73-2.26z"/><circle id="Oval" cx="27" cy="29" r="3"/><path id="Shape" d="m18 22h-12c-.55228475 0-1-.4477153-1-1v-7c0-.5522847.44771525-1 1-1h19c.5522847 0 1 .4477153 1 1 0 4.418278-3.581722 8-8 8z"/><path id="Shape" d="m38.778 39c-.551 0-.569-.155-2.828-2.414l-.708.707c-.7809997.7807639-2.0470003.7807639-2.828 0l-2.121-2.122c-.3789722-.3923789-.3735524-1.0160848.0121814-1.4018186s1.0094397-.3911536 1.4018186-.0121814l2.121 2.122.707-.707c.375096-.375248.8839266-.5860729 1.4145-.5860729s1.039404.2108249 1.4145.5860729l2.121 2.121c.2859079.2859943.3714219.7160366.216678 1.0896546-.1547439.3736179-.5192821.6172591-.923678.6173454z"/><path id="Shape" d="m36 32h-3c-.5522847 0-1-.4477153-1-1s.4477153-1 1-1h3v-1c0-1.1045695.8954305-2 2-2h3c.5522847 0 1 .4477153 1 1s-.4477153 1-1 1h-3v1c0 1.1045695-.8954305 2-2 2z"/><path id="Shape" d="m33 27.072c-.4705026.0010394-.8780906-.3260498-.9789588-.7856141s.1322698-.9272843.5599588-1.1233859l2.725-1.255-.417-.908c-.4621573-1.002688-.0243928-2.1902027.978-2.653l2.727-1.255c.4978471-.212208 1.074176.0101482 1.3004843.5017462.2263084.4915979.0204652 1.074029-.4644843 1.3142538l-2.73 1.255.419.909c.4618973 1.0032287.0231599 2.1909534-.98 2.653-3.022 1.394-2.848 1.347-3.139 1.347z"/><path id="Shape" d="m29.967 23.667c-.3750721.000198-.7187175-.2095046-.8900703-.5431471-.1713527-.3336425-.1415968-.7351173.0770703-1.0398529l1.746-2.439-.813-.582c-.4316189-.3086267-.7229059-.7761206-.809742-1.2995752-.086836-.5234547.0378968-1.0599622.346742-1.4914248l1.746-2.439c.3222582-.4501121.9483879-.5537581 1.3985-.2315.450112.3222582.5537581.9483879.2315 1.3985l-1.746 2.44.813.581c.8981941.6426438 1.1054719 1.891683.463 2.79l-1.746 2.441c-.1891984.2623133-.4935799.4169257-.817.415z"/></g><path id="Shape" d="m9 39c-.55228475 0-1-.4477153-1-1 0-3.495 3.305-5.738 3.445-5.832.4592248-.3070703 1.0804297-.1837247 1.3875.2755.3070703.4592248.1837248 1.0804297-.2755 1.3875.107 0-2.557 1.6-2.557 4.169 0 .2652165-.10535684.5195704-.29289322.7071068s-.44189029.2928932-.70710678.2928932z" fill="#e64c3c"/></g></svg>