<svg height="512" viewBox="0 0 60 54" width="512" xmlns="http://www.w3.org/2000/svg"><g id="035---Fragile" fill="none" transform="translate(-1 -1)"><path id="Shape" d="m27.15 4.252-24.543 42.962c-.80501772 1.3890835-.8127723 3.100947-.02037219 4.4972667s2.26601976 2.2675153 3.87137219 2.2887333h49.084c1.6053524-.021218 3.0789721-.8924136 3.8713722-2.2887333s.7846455-3.1081832-.0203722-4.4972667l-24.543-42.962c-.7822602-1.39106185-2.2540727-2.25196213-3.85-2.25196213s-3.0677398.86090028-3.85 2.25196213z" fill="#f0c419"/><g fill="#464f5d"><path id="Shape" d="m60.26 46.72-24.54-42.96c-.9589765-1.70547628-2.7633996-2.76097946-4.72-2.76097946s-3.7610235 1.05550318-4.72 2.76097946l-24.54 42.96c-.98278783 1.6983152-.98958172 3.7908241-.01784256 5.4954851.97173916 1.7046611 2.77576145 2.7649173 4.73784256 2.7845149h49.08c1.9620811-.0195976 3.7661034-1.0798538 4.7378426-2.7845149.9717391-1.704661.9649452-3.7971699-.0178426-5.4954851zm-4.72 6.28h-49.08c-1.24896271-.0208951-2.39318394-.7025106-3.00627126-1.7908434-.61308731-1.0883329-.60308817-2.4201519.02627126-3.4991566l24.54-42.96c.6025444-1.0805505 1.7428059-1.75027078 2.98-1.75027078s2.3774556.66972028 2.98 1.75027078l24.54 42.96c.6293594 1.0790047.6393586 2.4108237.0262713 3.4991566-.6130874 1.0883328-1.7573086 1.7699483-3.0062713 1.7908434z"/><path id="Shape" d="m33 35.548v7.552c2.89.31 5 1.27 5 2.4 0 1.38-3.13 2.5-7 2.5s-7-1.12-7-2.5c0-1.13 2.11-2.09 5-2.4v-7.552c-.00749-.4497815-.307096-.8422289-.739-.968-3.7291385-1.1964117-6.2592456-4.6636404-6.261-8.58v-4c0-.5522847.4477153-1 1-1h7c.5522847 0 1 .4477153 1 1v7l5.7-7.6c.1888544-.2518058.4852427-.4.8-.4h1.5c.5522847 0 1 .4477153 1 1v4c-.0017544 3.9163596-2.5318615 7.3835883-6.261 8.58-.431904.1257711-.73151.5182185-.739.968z"/></g></g></svg>