<svg height="512" viewBox="0 0 60 54" width="512" xmlns="http://www.w3.org/2000/svg"><g id="049---Machinery-" fill="none" transform="translate(-1 -1)"><path id="Shape" d="m27.15 4.252-24.543 42.962c-.80501772 1.3890835-.8127723 3.100947-.02037219 4.4972667s2.26601976 2.2675153 3.87137219 2.2887333h49.084c1.6053524-.021218 3.0789721-.8924136 3.8713722-2.2887333s.7846455-3.1081832-.0203722-4.4972667l-24.543-42.962c-.7822602-1.39106185-2.2540727-2.25196213-3.85-2.25196213s-3.0677398.86090028-3.85 2.25196213z" fill="#f0c419"/><g fill="#464f5d"><path id="Shape" d="m60.26 46.72-24.54-42.96c-.9589765-1.70547628-2.7633996-2.76097946-4.72-2.76097946s-3.7610235 1.05550318-4.72 2.76097946l-24.54 42.96c-.98278783 1.6983152-.98958172 3.7908241-.01784256 5.4954851.97173916 1.7046611 2.77576145 2.7649173 4.73784256 2.7845149h49.08c1.9620811-.0195976 3.7661034-1.0798538 4.7378426-2.7845149.9717391-1.704661.9649452-3.7971699-.0178426-5.4954851zm-4.72 6.28h-49.08c-1.24896271-.0208951-2.39318394-.7025106-3.00627126-1.7908434-.61308731-1.0883329-.60308817-2.4201519.02627126-3.4991566l24.54-42.96c.6025444-1.0805505 1.7428059-1.75027078 2.98-1.75027078s2.3774556.66972028 2.98 1.75027078l24.54 42.96c.6293594 1.0790047.6393586 2.4108237.0262713 3.4991566-.6130874 1.0883328-1.7573086 1.7699483-3.0062713 1.7908434z"/><path id="Shape" d="m44.97 42.46c-6.312-8.083-6.24-8.117-7.506-9.107-.376009.4109629-.9069799.6456202-1.464.647h-2c-1.1045695 0-2-.8954305-2-2v-.8l-.7.4c-.9575089.5492299-2.1788407.2216645-2.733-.733l-1-1.732c-.3455591-.604735-.3516201-1.345693-.016-1.956-1.9-1.423-2.389-2.9-3.355-5.408-.1339082-.3644648-.4679623-.617445-.8550791-.6475541s-.7562695.1681773-.9449209.5075541l-3.97 7.05c-.121815.2191785-.1574736.4759203-.1.72.556 2.275.967 4.667 2.374 6.6h1.8c1.1045695 0 2 .8954305 2 2v.8l.7-.4c.9575089-.5492299 2.1788407-.2216645 2.733.733l.312.541c1.4503512.4822192 2.8626205 1.0721968 4.225 1.765 1.1108315.5406857 2.4222842.4684366 3.467-.191-1.041-.972-.966-.844-7.056-4.566-.471375-.2880165-.6200164-.903625-.3319999-1.375.2880164-.471375.9036249-.6200164 1.3749999-.332 8.405 5.131 6.638 3.5 11.576 10.144.4751632.6198558 1.2449213.9391296 2.0193138.8375541s1.4357708-.6085687 1.735-1.33c.2992293-.7214313.1908494-1.5476983-.2843138-2.1675541z"/><path id="Shape" d="m41.2 27.268-1.221-.705-.038.067c.0854944-.4156492.0854944-.8443508 0-1.26l.038.067 1.221-.705c.4782682-.2761504.6421293-.8877197.366-1.366l-1-1.732c-.2761504-.4782682-.8877197-.6421293-1.366-.366l-1.221.7c.111.193-.2-.219-1-.563h.021v-1.405c0-.5522847-.4477153-1-1-1h-2c-.5522847 0-1 .4477153-1 1v1.41c-.3517767.1788993-.6885372.385905-1.007.619l.032-.056-1.221-.7c-.4782803-.2761293-1.0898496-.1122682-1.366.366l-1 1.732c-.2761293.4782803-.1122682 1.0898496.366 1.366l1.221.705c.109-.189-.025.03-.025.563s.134.751.025.563l-1.221.705c-.4782682.2761504-.6421293.8877197-.366 1.366l1 1.732c.2761504.4782682.8877197.6421293 1.366.366l1.221-.7-.032-.056c.3188091.2296503.65556.4333059 1.007.609v1.41c0 .5522847.4477153 1 1 1h2c.5522847 0 1-.4477153 1-1v-1.41c.3517767-.1788993.6885372-.385905 1.007-.619l-.032.056 1.221.7c.4782803.2761293 1.0898496.1122682 1.366-.366l1-1.732c.2734151-.476118.1118274-1.0836342-.362-1.361z"/></g><circle id="Oval" cx="35" cy="26" fill="#f0c419" r="2"/><path id="Shape" d="m27.7 45.268-1.221-.7-.038.067c.0854944-.4156492.0854944-.8443508 0-1.26l.038.067 1.221-.7c.4782682-.2761504.6421293-.8877197.366-1.366l-1-1.732c-.2761504-.4782682-.8877197-.6421293-1.366-.366l-1.221.7c.111.193-.2-.219-1-.563h.021v-1.415c0-.5522847-.4477153-1-1-1h-2c-.5522847 0-1 .4477153-1 1v1.41c-.3517767.1788993-.6885372.385905-1.007.619l.032-.056-1.221-.7c-.4782803-.2761293-1.0898496-.1122682-1.366.366l-1 1.732c-.2761293.4782803-.1122682 1.0898496.366 1.366l1.221.7c.109-.189-.025.03-.025.563s.134.751.025.563l-1.221.7c-.4782682.2761504-.6421293.8877197-.366 1.366l1 1.732c.2761504.4782682.8877197.6421293 1.366.366l1.221-.7-.032-.056c.3184628.233095.6552233.4401007 1.007.619v1.41c0 .5522847.4477153 1 1 1h2c.5522847 0 1-.4477153 1-1v-1.41c.3517767-.1788993.6885372-.385905 1.007-.619l-.032.056 1.221.7c.4782803.2761293 1.0898496.1122682 1.366-.366l1-1.732c.2734151-.476118.1118274-1.0836342-.362-1.361z" fill="#464f5d"/><circle id="Oval" cx="21.5" cy="44" fill="#f0c419" r="2"/></g></svg>