<svg height="512" viewBox="0 0 58 58" width="512" xmlns="http://www.w3.org/2000/svg"><g id="019---No-Lighting-Matches" fill="none" fill-rule="evenodd"><g fill-rule="nonzero"><circle id="Oval" cx="29" cy="29" fill="#e64c3c" r="29"/><circle id="Oval" cx="29" cy="29" fill="#fff" r="25"/><path id="Shape" d="m20.707 10.644c.0475091-.2152271-.0515174-.4361768-.2437856-.5439391-.1922683-.10776232-.4324214-.0769156-.5912144.0759391-1.1 1.052-2.172 2.113-3.192 3.264l5.28 5.28c-1.3827547-2.4511343-1.8280349-5.3211126-1.253-8.076z" fill="#464f5d"/><path id="Shape" d="m31.5 36.743-3.8 3.8c-.2147153-.6721506-.5405619-1.3035629-.964-1.868l3.35-3.35c.3789722-.3923789.3735524-1.0160848-.0121814-1.4018186s-1.0094397-.3911536-1.4018186-.0121814l-3.35 3.35c-.5557202-.4220655-1.1802603-.7448235-1.846-.954l3.774-3.807h.01v-.01c.1881616-.1869842.2931358-.4418383.2912545-.7071011s-.1104597-.5186023-.3012545-.7028989c-.1849872-.1880975-.4383034-.2932016-.7021166-.2913173-.2638131.0018844-.515602.1105965-.6978834.3013173-.1 0 .256.256-12.27-12.27-.7048219 2.3161974-.3652623 4.8245564.93 6.87 0 0-2.2 1.19-4.41-1.19l-.04-.02c-.67096748 1.81312-1.02938882 3.7269547-1.06 5.66-.06265969 4.2719486 2.6475208 8.0928986 6.7 9.446-1.1712265 2.3332802-.8313004 5.1410895.8628839 7.1274701 1.6941843 1.9863805 4.4131875 2.7650747 6.9020406 1.9766724s4.2635913-2.9905938 4.5050755-5.5901425l4.947-4.947c.368549-.3946195.3572689-1.0105484-.0254822-1.3914087-.382751-.3808603-.9987282-.38909-1.3915178-.0185913zm-15.52 2.347c-.9437986-.8189327-1.4810945-2.0104867-1.47-3.26 0-3.12 2.5-6.56 4.99-8.95-1.19 3.99 1.91 5.5 2.6 7.99l-1.142 1.15c-2.0507224.180741-3.8958787 1.3186738-4.978 3.07z" fill="#464f5d"/><path id="Shape" d="m49.034 20.469-1.056-3.179c-.2006591-.5977682-.6700737-1.0668126-1.268-1.267l-3.18-1.058c-.7179495-.2401861-1.5099949-.0526372-2.044.484l-11.4 11.393c-.2527654.2525868-.3515769.6208353-.259213.96603.0923638.3451946.3618707.6148921.707.7075s.7134476-.0059432.966213-.25853l11.4-11.394 2.118.705-12.105 12.1c-.2599566.2510745-.3642126.6228779-.2726972.9725073.0915155.3496295.3645604.6226744.7141899.7141899.3496294.0915154.7214328-.0127406.9725073-.2726972l12.105-12.1.7 2.118-11.389 11.4c-.2599566.2510745-.3642126.6228779-.2726972.9725073.0915155.3496295.3645604.6226744.7141899.7141899.3496294.0915154.7214328-.0127406.9725073-.2726972l11.394-11.4c.537531-.5339364.7248384-1.3269876.483-2.045z" fill="#464f5d"/><path id="Shape" d="m19 44c-.5522847 0-1-.4477153-1-1-.0312983-1.0701541.3800703-2.1058561 1.1371071-2.8628929s1.7927388-1.1684054 2.8628929-1.1371071c.3572656-.0010718.6879644.1885367.8675254.4974019s.1807046.690063.003 1-.5072598.5015263-.8645254.5025981c-.5411723-.035899-1.0715853.1630423-1.4556669.5459751s-.5846109.9127475-.5503331 1.4540249c0 .5522847-.4477153 1-1 1z" fill="#fff"/></g><path id="Shape" d="m48.22 44.98c-.047.078-.4.59-1.87 2.74l-2.48 1.38c-.1 0 .977.987-34.97-34.96.1-.1-.315.557 1.5-2.61 2.619-1.735 2.438-1.617 2.63-1.74z" fill="#e64c3c"/></g></svg>