<svg height="512" viewBox="0 0 58 58" width="512" xmlns="http://www.w3.org/2000/svg"><g id="018---No-Photography" fill="none" fill-rule="evenodd"><g fill-rule="nonzero"><circle id="Oval" cx="29" cy="29" fill="#e64c3c" r="29"/><circle id="Oval" cx="29" cy="29" fill="#fff" r="25"/><path id="Shape" d="m43 23c1.1032019.0032948 1.9967052.8967981 2 2 0 17.521.047 16.2-.11 16.65l-7.13 1.35h-22.76c-1.1032019-.0032948-1.9967052-.8967981-2-2v-16c.0032948-1.1032019.8967981-1.9967052 2-2z" fill="#464f5d"/><path id="Shape" d="m41 23-4 2-4-2 .839-4.2c.0951286-.4660347.5053558-.8005727.981-.8h4.36c.4756442-.0005727.8858714.3339653.981.8z" fill="#464f5d"/><path id="Shape" d="m25 41c-3.6506801-.0026948-6.8372046-2.4746963-7.7473143-6.0101133-.9101096-3.5354169.6867134-7.2387784 3.8823143-9.0038867.3131993-.1862966.7029451-.1874681 1.0172586-.0030576.3143136.1844104.5034262.525203.4935946.8894879-.0098315.364285-.2170505.6943812-.5408532.8615697-2.2342939 1.2343717-3.4444756 3.7459805-3.0175516 6.2626208.4269241 2.5166403 2.3977054 4.4886291 4.9140838 4.9170944 2.5163784.4284654 5.0287279-.7801777 6.2644678-3.0137152.1671885-.3238027.4972847-.5310217.8615697-.5408532.3642849-.0098316.7050775.179281.8894879.4935946.1844105.3143135.183239.7040593-.0030576 1.0172586-1.4152101 2.5475736-4.0997337 4.1282811-7.014 4.13z" fill="#fff"/><path id="Shape" d="m28.067 32.233c2.048.16.512 4.767-3.067 4.767-2.1511281.0008352-3.9164953-1.7021451-3.9930225-3.8519117s1.5632799-3.9739639 3.7090225-4.1260883c.2646893-.0169874.5252847.0718754.7244514.247037.1991667.1751617.3205877.422272.3375486.686963z" fill="#fff"/><circle id="Oval" cx="41" cy="30" fill="#fff" r="1"/><path id="Shape" d="m41 28h-5c-.5522847 0-1-.4477153-1-1s.4477153-1 1-1h5c.5522847 0 1 .4477153 1 1s-.4477153 1-1 1z" fill="#fff"/></g><path id="Shape" d="m43.86 49.1-34.96-34.96 1.5-2.61 2.627-1.74 35.193 35.19-1.874 2.743z" fill="#e64c3c"/></g></svg>