<svg height="512" viewBox="0 0 58 58" width="512" xmlns="http://www.w3.org/2000/svg"><g id="005---Railway" fill="none"><circle id="Oval" cx="29" cy="29" fill="#e64c3c" r="29"/><circle id="Oval" cx="29" cy="29" fill="#fff" r="25"/><path id="Shape" d="m42 21c.5522847 0 1-.4477153 1-1v-4c0-.5522847-.4477153-1-1-1h-3v-3c0-.5522847-.4477153-1-1-1h-2c-.5522847 0-1 .4477153-1 1v3h-12v-3c0-.5522847-.4477153-1-1-1h-2c-.5522847 0-1 .4477153-1 1v3h-3c-.5522847 0-1 .4477153-1 1v4c0 .5522847.4477153 1 1 1h3v5h-3c-.5522847 0-1 .4477153-1 1v4c0 .5522847.4477153 1 1 1h3v5h-3c-.5522847 0-1 .4477153-1 1v4c0 .5522847.4477153 1 1 1h3v3c0 .5522847.4477153 1 1 1h2c.5522847 0 1-.4477153 1-1v-3h12v3c0 .5522847.4477153 1 1 1h2c.5522847 0 1-.4477153 1-1v-3h3c.5522847 0 1-.4477153 1-1v-4c0-.5522847-.4477153-1-1-1h-3v-5h3c.5522847 0 1-.4477153 1-1v-4c0-.5522847-.4477153-1-1-1h-3v-5zm-7 16h-12v-5h12zm0-11h-12v-5h12z" fill="#464f5d"/></g></svg>