<svg height="512" viewBox="0 0 60 54" width="512" xmlns="http://www.w3.org/2000/svg"><g id="043---Wet-Floor" fill="none" transform="translate(-1 -1)"><path id="Shape" d="m27.15 4.252-24.543 42.962c-.80501772 1.3890835-.8127723 3.100947-.02037219 4.4972667s2.26601976 2.2675153 3.87137219 2.2887333h49.084c1.6053524-.021218 3.0789721-.8924136 3.8713722-2.2887333s.7846455-3.1081832-.0203722-4.4972667l-24.543-42.962c-.7822602-1.39106185-2.2540727-2.25196213-3.85-2.25196213s-3.0677398.86090028-3.85 2.25196213z" fill="#f0c419"/><g fill="#464f5d"><path id="Shape" d="m60.26 46.72-24.54-42.96c-.9589765-1.70547628-2.7633996-2.76097946-4.72-2.76097946s-3.7610235 1.05550318-4.72 2.76097946l-24.54 42.96c-.98278783 1.6983152-.98958172 3.7908241-.01784256 5.4954851.97173916 1.7046611 2.77576145 2.7649173 4.73784256 2.7845149h49.08c1.9620811-.0195976 3.7661034-1.0798538 4.7378426-2.7845149.9717391-1.704661.9649452-3.7971699-.0178426-5.4954851zm-4.72 6.28h-49.08c-1.24896271-.0208951-2.39318394-.7025106-3.00627126-1.7908434-.61308731-1.0883329-.60308817-2.4201519.02627126-3.4991566l24.54-42.96c.6025444-1.0805505 1.7428059-1.75027078 2.98-1.75027078s2.3774556.66972028 2.98 1.75027078l24.54 42.96c.6293594 1.0790047.6393586 2.4108237.0262713 3.4991566-.6130874 1.0883328-1.7573086 1.7699483-3.0062713 1.7908434z"/><path id="Shape" d="m45.95 30.55c-.1206137-.518533-.4423053-.9678998-.8942852-1.2492151-.4519799-.2813152-.9972118-.3715274-1.5157148-.2507849l-5.8 1.36c-1.982.477-1.488.38-1.59.38-1.724 1-.243.141-6.93 4.04l-2.37-2.83c3.857 0 3.283.187 7.23-3.76.7814829-.7814829.7814829-2.0485171 0-2.83s-2.0485171-.7814829-2.83 0l-2.59 2.59h-4.43c.8957553-.9954086 1.0233282-2.4639445.3126397-3.5989061-.7106885-1.1349615-2.0875174-1.6614735-3.3741618-1.2903104-1.2866443.3711631-2.1714932 1.5501098-2.1684779 2.8892165-.0074987 1.3455278.891405 2.5276477 2.19 2.88-.629.419.037-.034-4.45 3.038-1.0888571.74562-1.73988 1.9803187-1.74 3.3v3.782c.0000427.5611829.2358534 1.0965305.649871 1.4753651.4140176.3788347.9681481.5662996 1.527129.5166349 1.0577818-.1291746 1.8457514-1.038603 1.823-2.104v-3.668l2.11-1.45 5.333 6.4c.7191077.8600261 1.7661157 1.3788139 2.886 1.43l5.331.248 5.62 3.99c.5948472.3965648 1.3560735.4456586 1.9969323.1287882s1.0639885-.9515648 1.11-1.665c.0460116-.7134352-.2920851-1.3972234-.8869323-1.7937882-5.266-3.752-3.877-2.756-6.49-4.61-1.374-.063-.538-.024-3.8-.18 5.535-3.224 5.37-3.18 5.47-3.18l6.78-1.59c1.0723594-.2525235 1.738568-1.3247168 1.49-2.398z"/><path id="Shape" d="m25.74 49.384c-.1906293-.2764507-.4569352-.4920647-.767-.621-.907-.362-1.593.35-3.125-.266-.6739933-.2753245-1.253236-.7409425-1.667-1.34-.3170114-.4523212-.2073212-1.0759885.245-1.393.4523212-.3170114 1.0759885-.2073212 1.393.245.3845611.5822801 1.0893483.8657878 1.77.712 1.4589195-.3089793 2.9599797.2938148 3.8 1.526.3835905.5767578 1.0805994.8606363 1.758.716.5404106-.1143229 1.0711771.2310894 1.1855.7715s-.2310894 1.0711771-.7715 1.1855c-1.4677633.3155862-2.9800396-.2923322-3.821-1.536z"/><path id="Shape" d="m33.39 47.384c-.1906713-.2764118-.4569645-.4920156-.767-.621-.891-.357-1.617.34-3.125-.266-.6743908-.2751412-1.2537665-.7412136-1.667-1.341-.3100468-.4525461-.1976392-1.0703863.2519328-1.38473.449572-.3143438 1.0684549-.207827 1.3870672.23873.1907461.2817314.4598179.5014387.774.632.9.357 1.611-.344 3.125.265.6736092.2759762 1.2526821.7414577 1.667 1.34.3830711.5768187 1.0798708.8607735 1.757.716.5404106-.1143229 1.0711771.2310894 1.1855.7715s-.2310894 1.0711771-.7715 1.1855c-1.4664732.3138192-2.9766484-.2938908-3.817-1.536z"/></g></g></svg>