<svg id="Capa_1" enable-background="new 0 0 512.149 512.149" height="512" viewBox="0 0 512.149 512.149" width="512" xmlns="http://www.w3.org/2000/svg"><g><path d="m102.194 126.186 147.494-125.192c1.561-1.325 3.852-1.325 5.414 0l147.494 125.192-150.201 54.612z" fill="#dd636e"/><path d="m249.688.994-11.126 9.443 136.368 115.748-136.368 49.582 13.833 5.03 150.201-54.612-147.494-125.191c-1.561-1.325-3.852-1.325-5.414 0z" fill="#c63d4f"/><g><path d="m119.497 483.081h-99.551c-7.131 0-12.912-5.781-12.912-12.912v-14.772c0-7.131 5.781-12.912 12.912-12.912h99.551c7.131 0 12.912 5.781 12.912 12.912v14.772c0 7.131-5.781 12.912-12.912 12.912z" fill="#eab14d"/><path d="m119.497 442.485h-38.951v40.596h38.951c7.131 0 12.912-5.781 12.912-12.913v-14.772c0-7.13-5.781-12.911-12.912-12.911z" fill="#e49542"/><path d="m136.014 401.888h-99.551c-7.131 0-12.912-5.781-12.912-12.912v-14.772c0-7.131 5.781-12.912 12.912-12.912h99.551c7.131 0 12.912 5.781 12.912 12.912v14.772c0 7.131-5.781 12.912-12.912 12.912z" fill="#eab14d"/><path d="m136.014 361.292h-55.468v40.596h55.468c7.131 0 12.912-5.781 12.912-12.912v-14.772c0-7.131-5.781-12.912-12.912-12.912z" fill="#e49542"/><path d="m119.497 442.485h-99.551c-7.131 0-12.912-5.781-12.912-12.912v-14.772c0-7.131 5.781-12.912 12.912-12.912h99.551c7.131 0 12.912 5.781 12.912 12.912v14.772c0 7.131-5.781 12.912-12.912 12.912z" fill="#f6e266"/><path d="m119.497 401.888h-38.951v40.597h38.951c7.131 0 12.912-5.781 12.912-12.913v-14.772c0-7.131-5.781-12.912-12.912-12.912z" fill="#ecbe6b"/><path d="m119.497 361.292h-99.551c-7.131 0-12.912-5.781-12.912-12.912v-14.772c0-7.131 5.781-12.912 12.912-12.912h99.551c7.131 0 12.912 5.781 12.912 12.912v14.772c0 7.131-5.781 12.912-12.912 12.912z" fill="#f6e266"/><path d="m119.497 320.695h-38.943c-.001.109-.008.217-.008.326v40.27h38.951c7.131 0 12.912-5.781 12.912-12.912v-14.772c0-7.131-5.781-12.912-12.912-12.912z" fill="#ecbe6b"/></g><g><path d="m475.686 483.081h-99.551c-7.131 0-12.912-5.781-12.912-12.912v-14.772c0-7.131 5.781-12.912 12.912-12.912h99.551c7.131 0 12.912 5.781 12.912 12.912v14.772c.001 7.131-5.781 12.912-12.912 12.912z" fill="#eab14d"/><path d="m475.686 442.485h-20.642c7.131 0 12.912 5.781 12.912 12.912v14.772c0 7.131-5.781 12.912-12.912 12.912h20.642c7.131 0 12.912-5.781 12.912-12.912v-14.772c.001-7.131-5.781-12.912-12.912-12.912z" fill="#e49542"/><path d="m492.203 401.888h-99.551c-7.131 0-12.912-5.781-12.912-12.912v-14.772c0-7.131 5.781-12.912 12.912-12.912h99.551c7.131 0 12.912 5.781 12.912 12.912v14.772c.001 7.131-5.78 12.912-12.912 12.912z" fill="#eab14d"/><path d="m492.203 361.292h-20.642c7.131 0 12.912 5.781 12.912 12.912v14.772c0 7.131-5.781 12.912-12.912 12.912h20.642c7.131 0 12.912-5.781 12.912-12.912v-14.772c.001-7.131-5.78-12.912-12.912-12.912z" fill="#e49542"/><path d="m461.234 320.695h-99.551c-7.131 0-12.912-5.781-12.912-12.912v-14.772c0-7.131 5.781-12.912 12.912-12.912h99.551c7.131 0 12.912 5.781 12.912 12.912v14.772c0 7.131-5.781 12.912-12.912 12.912z" fill="#eab14d"/><path d="m461.234 280.099h-20.642c7.131 0 12.912 5.781 12.912 12.912v14.772c0 7.131-5.781 12.912-12.912 12.912h20.642c7.131 0 12.912-5.781 12.912-12.912v-14.772c0-7.131-5.781-12.912-12.912-12.912z" fill="#e49542"/><path d="m475.686 442.485h-99.551c-7.131 0-12.912-5.781-12.912-12.912v-14.772c0-7.131 5.781-12.912 12.912-12.912h99.551c7.131 0 12.912 5.781 12.912 12.912v14.772c.001 7.131-5.781 12.912-12.912 12.912z" fill="#f6e266"/><path d="m475.686 401.888h-20.642c7.131 0 12.912 5.781 12.912 12.912v14.772c0 7.131-5.781 12.912-12.912 12.912h20.642c7.131 0 12.912-5.781 12.912-12.912v-14.772c.001-7.131-5.781-12.912-12.912-12.912z" fill="#ecbe6b"/><path d="m475.686 361.292h-99.551c-7.131 0-12.912-5.781-12.912-12.912v-14.772c0-7.131 5.781-12.912 12.912-12.912h99.551c7.131 0 12.912 5.781 12.912 12.912v14.772c.001 7.131-5.781 12.912-12.912 12.912z" fill="#f6e266"/><path d="m475.686 320.695h-20.642c7.131 0 12.912 5.781 12.912 12.912v14.772c0 7.131-5.781 12.912-12.912 12.912h20.642c7.131 0 12.912-5.781 12.912-12.912v-14.772c.001-7.131-5.781-12.912-12.912-12.912z" fill="#ecbe6b"/><path d="m475.686 280.099h-99.551c-7.131 0-12.912-5.781-12.912-12.912v-14.772c0-7.131 5.781-12.912 12.912-12.912h99.551c7.131 0 12.912 5.781 12.912 12.912v14.772c.001 7.131-5.781 12.912-12.912 12.912z" fill="#f6e266"/><path d="m475.686 239.502h-20.642c7.131 0 12.912 5.781 12.912 12.912v14.772c0 7.131-5.781 12.912-12.912 12.912h20.642c7.131 0 12.912-5.781 12.912-12.912v-14.772c.001-7.131-5.781-12.912-12.912-12.912z" fill="#ecbe6b"/></g><path d="m329.922 202.677c-5.529 5.819-13.204 9.114-21.23 9.114h-112.593c-8.027 0-15.702-3.295-21.23-9.114l-72.674-76.491h300.402z" fill="#ddeafb"/><g><g><circle cx="287.107" cy="152.743" fill="#f6e266" r="49.669"/><path d="m336.776 152.743c0-27.432-22.238-49.669-49.669-49.669-3.483 0-6.881.362-10.162 1.044 22.557 4.69 39.508 24.677 39.508 48.625 0 23.949-16.95 43.935-39.508 48.625 3.281.682 6.679 1.044 10.162 1.044 27.432 0 49.669-22.238 49.669-49.669z" fill="#ecbe6b"/></g><g><circle cx="217.684" cy="152.743" fill="#f6e266" r="49.669"/><path d="m267.353 152.743c0-27.432-22.238-49.669-49.669-49.669-3.483 0-6.881.362-10.162 1.044 22.557 4.69 39.508 24.677 39.508 48.625 0 23.949-16.95 43.935-39.508 48.625 3.281.682 6.679 1.044 10.162 1.044 27.431 0 49.669-22.238 49.669-49.669z" fill="#ecbe6b"/></g></g><path d="m328.668 175.825c-4.827 3.241-10.51 4.972-16.325 4.972h-119.896c-5.815 0-11.497-1.731-16.325-4.972l-73.928-49.64v368.165c0 9.829 7.968 17.798 17.798 17.798h264.806c9.83 0 17.798-7.969 17.798-17.798v-368.164z" fill="#dd636e"/><g><path d="m384.418 138.391v355.96c0 9.829-7.968 17.798-17.798 17.798h18.178c9.83 0 17.798-7.969 17.798-17.798v-368.165z" fill="#c63d4f"/></g><path d="m242.902 365.949-37.289-37.289c-5.243-5.243-5.243-13.743 0-18.986l37.289-37.289c5.243-5.243 13.743-5.243 18.986 0l37.289 37.289c5.243 5.243 5.243 13.743 0 18.986l-37.289 37.289c-5.242 5.243-13.743 5.243-18.986 0z" fill="#f6e266"/><path d="m299.177 309.674-37.289-37.289c-5.243-5.243-13.743-5.243-18.986 0l-1.317 1.317 35.972 35.971c5.243 5.243 5.243 13.743 0 18.986l-35.972 35.971 1.317 1.317c5.243 5.243 13.743 5.243 18.986 0l37.289-37.289c5.243-5.241 5.243-13.741 0-18.984z" fill="#ecbe6b"/><g><path d="m256.405 326.915h-8.018c-4.279 0-7.748-3.469-7.748-7.748 0-4.28 3.469-7.748 7.748-7.748h8.018c4.279 0 7.749 3.469 7.749 7.748-.001 4.28-3.47 7.748-7.749 7.748z" fill="#ecbe6b"/></g><g><path d="m257.8 73.992h-10.81c-4.279 0-7.748-3.469-7.748-7.748s3.469-7.748 7.748-7.748h10.81c4.28 0 7.748 3.469 7.748 7.748s-3.468 7.748-7.748 7.748z" fill="#ecf4ff"/></g><g><path d="m345.072 482.825h-185.354c-14.683 0-26.63-11.946-26.63-26.63v-220.334c0-14.683 11.946-26.63 26.63-26.63h185.354c14.683 0 26.63 11.946 26.63 26.63v220.335c0 14.683-11.946 26.629-26.63 26.629zm-185.354-258.097c-6.139 0-11.133 4.994-11.133 11.133v220.335c0 6.139 4.995 11.133 11.133 11.133h185.354c6.139 0 11.133-4.994 11.133-11.133v-220.335c0-6.139-4.994-11.133-11.133-11.133z" fill="#ecf4ff"/></g></g></svg>