<svg id="Capa_1" enable-background="new 0 0 512 512" height="512" viewBox="0 0 512 512" width="512" xmlns="http://www.w3.org/2000/svg"><g><path d="m499.124 290.718h-99.27c-7.111 0-12.876-5.765-12.876-12.876v-14.73c0-7.111 5.765-12.876 12.876-12.876h99.27c7.111 0 12.876 5.765 12.876 12.876v14.73c0 7.111-5.765 12.876-12.876 12.876z" fill="#eab14d"/><path d="m499.124 250.236h-20.583c7.111 0 12.876 5.765 12.876 12.876v14.73c0 7.111-5.765 12.876-12.876 12.876h20.583c7.111 0 12.876-5.765 12.876-12.876v-14.73c0-7.111-5.765-12.876-12.876-12.876z" fill="#e49542"/><path d="m475.77 452.645h-99.27c-7.111 0-12.876-5.765-12.876-12.876v-14.73c0-7.111 5.765-12.876 12.876-12.876h99.27c7.111 0 12.876 5.765 12.876 12.876v14.73c0 7.111-5.765 12.876-12.876 12.876z" fill="#eab14d"/><path d="m475.77 412.163h-20.583c7.111 0 12.876 5.765 12.876 12.876v14.73c0 7.111-5.765 12.876-12.876 12.876h20.583c7.111 0 12.876-5.765 12.876-12.876v-14.73c0-7.111-5.765-12.876-12.876-12.876z" fill="#e49542"/><path d="m492.24 371.681h-99.27c-7.111 0-12.876-5.765-12.876-12.876v-14.73c0-7.111 5.765-12.876 12.876-12.876h99.27c7.111 0 12.876 5.765 12.876 12.876v14.73c0 7.112-5.765 12.876-12.876 12.876z" fill="#eab14d"/><path d="m492.24 331.2h-20.583c7.111 0 12.876 5.765 12.876 12.876v14.73c0 7.111-5.765 12.876-12.876 12.876h20.583c7.111 0 12.876-5.765 12.876-12.876v-14.73c0-7.112-5.765-12.876-12.876-12.876z" fill="#e49542"/><path d="m475.77 412.163h-99.27c-7.111 0-12.876-5.765-12.876-12.876v-14.73c0-7.111 5.765-12.876 12.876-12.876h99.27c7.111 0 12.876 5.765 12.876 12.876v14.73c0 7.111-5.765 12.876-12.876 12.876z" fill="#f6e266"/><path d="m475.77 371.681h-20.583c7.111 0 12.876 5.765 12.876 12.876v14.73c0 7.111-5.765 12.876-12.876 12.876h20.583c7.111 0 12.876-5.765 12.876-12.876v-14.73c0-7.111-5.765-12.876-12.876-12.876z" fill="#ecbe6b"/><path d="m475.77 331.2h-99.27c-7.111 0-12.876-5.765-12.876-12.876v-14.73c0-7.111 5.765-12.876 12.876-12.876h99.27c7.111 0 12.876 5.765 12.876 12.876v14.73c0 7.111-5.765 12.876-12.876 12.876z" fill="#f6e266"/><path d="m475.77 290.718h-20.583c7.111 0 12.876 5.765 12.876 12.876v14.73c0 7.111-5.765 12.876-12.876 12.876h20.583c7.111 0 12.876-5.765 12.876-12.876v-14.73c0-7.111-5.765-12.876-12.876-12.876z" fill="#ecbe6b"/><circle cx="339.252" cy="163.721" fill="#f6e266" r="56.173"/><path d="m339.252 107.548c-3.939 0-7.782.409-11.492 1.181 25.511 5.304 44.681 27.908 44.681 54.992 0 27.085-19.17 49.688-44.681 54.992 3.71.771 7.553 1.181 11.492 1.181 31.024 0 56.173-25.15 56.173-56.173 0-31.024-25.15-56.173-56.173-56.173z" fill="#ecbe6b"/><circle cx="205.23" cy="209.422" fill="#f6e266" r="56.173"/><path d="m205.23 153.249c-3.939 0-7.782.409-11.492 1.181 25.511 5.304 44.681 27.908 44.681 54.992 0 27.085-19.17 49.688-44.681 54.992 3.71.771 7.553 1.181 11.492 1.181 31.024 0 56.173-25.15 56.173-56.173 0-31.024-25.149-56.173-56.173-56.173z" fill="#ecbe6b"/><circle cx="315.765" cy="211.271" fill="#eab14d" r="56.173"/><path d="m315.765 155.097c-3.939 0-7.782.409-11.492 1.181 25.511 5.304 44.681 27.908 44.681 54.992 0 27.085-19.17 49.688-44.681 54.992 3.71.771 7.553 1.181 11.492 1.181 31.024 0 56.173-25.15 56.173-56.173s-25.149-56.173-56.173-56.173z" fill="#e49542"/><path d="m396.818 452.645h-281.636c-14.031 0-25.406-11.375-25.406-25.406v-226.27h325.001c4.113 0 7.448 3.334 7.448 7.448v218.822c-.001 14.031-11.375 25.406-25.407 25.406z" fill="#dd636e"/><path d="m399.907 200.969v226.27c0 14.031-11.375 25.406-25.406 25.406h22.318c14.031 0 25.406-11.375 25.406-25.406v-218.823c0-4.113-3.334-7.448-7.448-7.448h-14.87z" fill="#c63d4f"/><path d="m224.801 200.969h62.398v251.676h-62.398z" fill="#ecf4ff"/><path d="m269.421 200.969h17.778v251.676h-17.778z" fill="#ddeafb"/><path d="m289.803 60.382-282.27 121.958c-6.327 2.734-9.24 10.079-6.506 16.405l17.165 39.728c1.088 2.518 4.011 3.677 6.528 2.589l299.592-129.442c.569-.246.831-.907.585-1.476l-18.689-43.255c-2.733-6.328-10.078-9.241-16.405-6.507z" fill="#dd636e"/><path d="m289.803 60.382-20.487 8.852c6.327-2.734 13.672.179 16.405 6.506l19.134 44.286 19.456-8.406c.569-.246.831-.907.585-1.476l-18.689-43.255c-2.732-6.328-10.077-9.241-16.404-6.507z" fill="#c63d4f"/><g><path d="m70.344 205.151c-2.515 0-4.981-1.226-6.465-3.485-2.343-3.566-1.351-8.357 2.215-10.7l18.35-12.055c9.016-5.923 11.685-17.78 6.078-26.994-7.945-13.055-5.508-29.997 5.794-40.285 15.178-13.816 38.051-13.799 53.208.047.061.055.121.113.181.17l14.655 14.28c3.056 2.978 3.121 7.87.143 10.927-2.978 3.054-7.869 3.12-10.927.142l-14.56-14.187c-9.224-8.348-23.09-8.334-32.298.05-5.843 5.317-7.103 14.074-2.995 20.823 9.958 16.366 5.216 37.425-10.795 47.943l-18.35 12.055c-1.307.857-2.778 1.269-4.234 1.269z" fill="#2b4d66"/></g><g><path d="m148.669 139.389c-.015 0-.028 0-.043 0-4.267-.023-7.707-3.501-7.684-7.769l.089-16.199c.308-20.596 15.971-37.266 36.435-38.849 15.218-1.189 29.242 8.656 33.306 23.39 2.866 10.397 13.327 16.584 23.822 14.075l21.356-5.101c4.151-.99 8.318 1.569 9.31 5.72.991 4.15-1.569 8.319-5.72 9.31l-21.356 5.101c-18.631 4.449-37.216-6.531-42.309-24.999-2.1-7.617-9.378-12.708-17.216-12.091-12.455.964-21.988 11.11-22.175 23.601l-.088 16.126c-.025 4.254-3.481 7.685-7.727 7.685z" fill="#2b4d66"/></g><path d="m129.511 118.871h62.398v60.723h-62.398z" fill="#ecf4ff" transform="matrix(.918 -.397 .397 .918 -46.008 75.981)"/><path d="m172.301 110.022h17.778v60.722h-17.778z" fill="#ddeafb" transform="matrix(.918 -.397 .397 .918 -40.818 83.378)"/></g></svg>