<svg id="Capa_1" enable-background="new 0 0 512 512" height="512" viewBox="0 0 512 512" width="512" xmlns="http://www.w3.org/2000/svg"><g><g><path d="m479.89 384.055h-447.78v-262.563c0-14.061 11.399-25.46 25.46-25.46h396.859c14.061 0 25.46 11.399 25.46 25.46v262.563z" fill="#365e7d"/><path d="m479.89 121.492c0-14.061-11.399-25.46-25.46-25.46h-19.312c14.061 0 25.46 11.399 25.46 25.46v184.716c0 21.249-17.226 38.474-38.475 38.474h-389.993v39.373h428.468 19.312v-39.373z" fill="#2b4d66"/></g><g><path d="m63.016 384.055v-254.785c0-1.288 1.044-2.333 2.333-2.333h381.303c1.288 0 2.333 1.044 2.333 2.333v254.786h-385.969z" fill="#e4f6ff"/><path d="m426.287 126.937v195.834c0 12.101-9.81 21.911-21.911 21.911h-341.36v39.373h363.272 22.697v-39.373-215.412c0-1.288-1.044-2.333-2.333-2.333z" fill="#d3effb"/></g><path d="m498.248 363.452h-484.496c-7.595 0-13.752 6.157-13.752 13.752v25.012c0 7.595 6.157 13.752 13.752 13.752h484.496c7.595 0 13.752-6.157 13.752-13.752v-25.012c0-7.595-6.157-13.752-13.752-13.752z" fill="#365e7d"/><path d="m498.248 363.452h-21.163c7.595 0 13.752 6.157 13.752 13.752v25.012c0 7.595-6.157 13.752-13.752 13.752h21.163c7.595 0 13.752-6.157 13.752-13.752v-25.012c0-7.595-6.157-13.752-13.752-13.752z" fill="#2b4d66"/><path d="m414.361 363.452h-99.27c-7.111 0-12.876-5.765-12.876-12.876v-14.73c0-7.111 5.765-12.876 12.876-12.876h99.27c7.111 0 12.876 5.765 12.876 12.876v14.73c0 7.111-5.764 12.876-12.876 12.876z" fill="#eab14d"/><path d="m414.361 322.97h-20.583c7.111 0 12.876 5.765 12.876 12.876v14.73c0 7.111-5.765 12.876-12.876 12.876h20.583c7.111 0 12.876-5.765 12.876-12.876v-14.73c0-7.111-5.764-12.876-12.876-12.876z" fill="#e49542"/><path d="m384.474 282.488h-99.27c-7.111 0-12.876-5.765-12.876-12.876v-14.73c0-7.111 5.765-12.876 12.876-12.876h99.27c7.111 0 12.876 5.765 12.876 12.876v14.73c0 7.112-5.765 12.876-12.876 12.876z" fill="#eab14d"/><path d="m384.474 242.007h-20.584c7.111 0 12.876 5.765 12.876 12.876v14.73c0 7.111-5.765 12.876-12.876 12.876h20.583c7.111 0 12.876-5.765 12.876-12.876v-14.73c.001-7.112-5.764-12.876-12.875-12.876z" fill="#e49542"/><path d="m414.361 322.97h-99.27c-7.111 0-12.876-5.765-12.876-12.876v-14.73c0-7.111 5.765-12.876 12.876-12.876h99.27c7.111 0 12.876 5.765 12.876 12.876v14.73c0 7.111-5.764 12.876-12.876 12.876z" fill="#f6e266"/><path d="m414.361 282.488h-20.583c7.111 0 12.876 5.765 12.876 12.876v14.73c0 7.111-5.765 12.876-12.876 12.876h20.583c7.111 0 12.876-5.765 12.876-12.876v-14.73c0-7.111-5.764-12.876-12.876-12.876z" fill="#ecbe6b"/><path d="m198.993 363.452h-99.27c-7.111 0-12.876-5.765-12.876-12.876v-14.73c0-7.111 5.765-12.876 12.876-12.876h99.27c7.111 0 12.876 5.765 12.876 12.876v14.73c0 7.111-5.764 12.876-12.876 12.876z" fill="#eab14d"/><path d="m198.993 322.97h-20.583c7.111 0 12.876 5.765 12.876 12.876v14.73c0 7.111-5.765 12.876-12.876 12.876h20.583c7.111 0 12.876-5.765 12.876-12.876v-14.73c0-7.111-5.764-12.876-12.876-12.876z" fill="#e49542"/><path d="m198.993 282.488h-99.27c-7.111 0-12.876-5.765-12.876-12.876v-14.73c0-7.111 5.765-12.876 12.876-12.876h99.27c7.111 0 12.876 5.765 12.876 12.876v14.73c0 7.112-5.764 12.876-12.876 12.876z" fill="#eab14d"/><path d="m198.993 242.007h-20.583c7.111 0 12.876 5.765 12.876 12.876v14.73c0 7.111-5.765 12.876-12.876 12.876h20.583c7.111 0 12.876-5.765 12.876-12.876v-14.73c0-7.112-5.764-12.876-12.876-12.876z" fill="#e49542"/><path d="m231.959 322.97h-99.27c-7.111 0-12.876-5.765-12.876-12.876v-14.73c0-7.111 5.765-12.876 12.876-12.876h99.27c7.111 0 12.876 5.765 12.876 12.876v14.73c0 7.111-5.765 12.876-12.876 12.876z" fill="#f6e266"/><path d="m231.959 282.488h-20.583c7.111 0 12.876 5.765 12.876 12.876v14.73c0 7.111-5.765 12.876-12.876 12.876h20.583c7.111 0 12.876-5.765 12.876-12.876v-14.73c0-7.111-5.765-12.876-12.876-12.876z" fill="#ecbe6b"/><g><path d="m272.858 397.436h-33.715c-4.268 0-7.726-3.459-7.726-7.726s3.459-7.726 7.726-7.726h33.715c4.268 0 7.726 3.459 7.726 7.726s-3.459 7.726-7.726 7.726z" fill="#2b4d66"/></g></g></svg>