<svg id="Capa_1" enable-background="new 0 0 511.783 511.783" height="512" viewBox="0 0 511.783 511.783" width="512" xmlns="http://www.w3.org/2000/svg"><g><g><path d="m469.067 282.358c-7.265 0-14.438-2.868-19.86-8.403l-33.337-34.805c-2.909-3.037-2.805-7.857.232-10.766 3.037-2.91 7.858-2.805 10.766.232l33.278 34.744c4.099 4.185 10.535 4.965 15.586 1.846 5.021-3.1 7.235-9.387 5.267-14.948-3.949-11.157-10.116-21.136-18.328-29.658l-6.958-7.221c-8.966-9.304-9.999-23.672-2.457-34.165 8.527-11.859 25.177-14.661 37.115-6.247l18.183 12.813c3.438 2.423 4.261 7.174 1.838 10.611-2.423 3.438-7.174 4.259-10.611 1.838l-18.183-12.814c-5.138-3.622-12.306-2.417-15.976 2.688-3.247 4.516-2.802 10.702 1.057 14.707l6.958 7.221c9.732 10.098 17.038 21.922 21.719 35.143 4.344 12.274-.543 26.147-11.622 32.989-4.562 2.819-9.637 4.195-14.667 4.195z" fill="#eaaadd"/></g><path d="m323.086 136.652h-159.721c-8.567 0-17.02.792-25.274 2.314-.896.165-1.721-.539-1.662-1.448 1.247-19.08-10.199-37.432-29.119-44.101l-19.204-6.768c-1.378-.486-2.888.238-3.374 1.615l-6.768 19.204c-6.15 17.448-.572 36.176 12.604 47.606.714.62.6 1.75-.206 2.245-19.458 11.963-36.015 28.709-47.802 49.192-4.348 8.695-7.263 17.896-8.755 27.271-.784 4.925-4.571 8.834-9.441 9.906l-17.77 3.909c-4.443.977-7.3 5.315-6.443 9.783l7.643 39.858c.927 4.832 5.791 7.836 10.527 6.501l18.964-5.349c4.959-1.399 10.24.471 13.265 4.642 19.776 27.271 48.672 46.309 81.119 53.886 2.967.693 5.295 2.985 6.008 5.947l10.385 43.15c.885 3.678 4.175 6.27 7.958 6.27h21.399c3.783 0 7.073-2.592 7.958-6.27l9.452-39.274c.87-3.616 4.105-6.165 7.825-6.165h61.05c3.72 0 6.955 2.549 7.825 6.165l9.452 39.274c.885 3.678 4.175 6.27 7.958 6.27h21.399c3.783 0 7.073-2.592 7.958-6.27l9.612-39.939c.79-3.282 3.54-5.762 6.898-6.111 56.326-5.86 100.241-53.475 100.241-111.351.001-61.835-50.126-111.962-111.961-111.962z" fill="#eaaadd"/><g fill="#e490d0"><path d="m104.562 117.329c5.161 11.942 17.157 19.349 30.166 19.324h.276 1.463c.851-18.767-10.524-36.667-29.157-43.234l-19.204-6.768c-1.378-.486-2.888.238-3.374 1.615l-2.308 6.547c10.235 4.611 17.936 12.792 22.138 22.516z"/><path d="m166.469 366.741-9.452 39.274c-.596 2.476-2.284 4.456-4.477 5.488 1.064.501 2.245.782 3.481.782h21.399c3.783 0 7.073-2.592 7.958-6.27l9.452-39.274c.87-3.616 4.105-6.165 7.825-6.165h-28.361c-3.72-.001-6.955 2.548-7.825 6.165z"/><path d="m323.086 136.652h-28.361c61.835 0 111.962 50.127 111.962 111.962 0 57.876-43.915 105.491-100.241 111.351-3.358.349-6.108 2.829-6.898 6.111l-9.612 39.939c-.596 2.476-2.285 4.456-4.477 5.488 1.064.501 2.245.782 3.481.782h21.399c3.783 0 7.073-2.592 7.958-6.27l9.612-39.939c.79-3.282 3.54-5.762 6.898-6.111 56.326-5.86 100.241-53.475 100.241-111.351 0-61.835-50.127-111.962-111.962-111.962z"/></g><g><path d="m96.396 224.085c-4.206 0-7.615-3.409-7.615-7.615v-13.215c0-4.206 3.409-7.615 7.615-7.615s7.615 3.409 7.615 7.615v13.215c-.001 4.206-3.409 7.615-7.615 7.615z" fill="#2b4d66"/></g><path d="m222.294 169.101h53.555c8.413-7.422 13.727-18.276 13.727-30.377 0-22.37-18.134-40.504-40.504-40.504s-40.504 18.134-40.504 40.504c-.001 12.101 5.312 22.955 13.726 30.377z" fill="#f6e266"/><path d="m249.071 98.219c-3.653 0-7.19.492-10.556 1.398 17.249 4.645 29.948 20.389 29.948 39.106 0 12.101-5.313 22.955-13.727 30.377h21.112c8.413-7.422 13.727-18.276 13.727-30.377 0-22.369-18.134-40.504-40.504-40.504z" fill="#ecbe6b"/><path d="m411.166 403.964h-67.608c-5.635 0-10.203-4.568-10.203-10.203v-8.561c0-5.635 4.568-10.203 10.203-10.203h67.608c5.635 0 10.203 4.568 10.203 10.203v8.561c0 5.635-4.568 10.203-10.203 10.203z" fill="#eab14d"/><path d="m410.501 374.997h-18.722c6.003 0 10.869 4.288 10.869 9.578v9.811c0 5.29-4.866 9.578-10.869 9.578h18.722c6.003 0 10.869-4.288 10.869-9.578v-9.811c-.001-5.29-4.867-9.578-10.869-9.578z" fill="#e49542"/><path d="m411.166 374.997h-67.608c-5.635 0-10.203-4.568-10.203-10.203v-8.561c0-5.635 4.568-10.203 10.203-10.203h67.608c5.635 0 10.203 4.568 10.203 10.203v8.561c0 5.635-4.568 10.203-10.203 10.203z" fill="#f6e266"/><path d="m410.501 346.031h-18.722c6.003 0 10.869 4.288 10.869 9.578v9.811c0 5.29-4.866 9.578-10.869 9.578h18.722c6.003 0 10.869-4.288 10.869-9.578v-9.811c-.001-5.29-4.867-9.578-10.869-9.578z" fill="#ecbe6b"/><path d="m411.166 346.031h-67.608c-5.635 0-10.203-4.568-10.203-10.203v-8.561c0-5.635 4.568-10.203 10.203-10.203h67.608c5.635 0 10.203 4.568 10.203 10.203v8.561c0 5.635-4.568 10.203-10.203 10.203z" fill="#eab14d"/><path d="m410.501 317.064h-18.722c6.003 0 10.869 4.288 10.869 9.578v9.811c0 5.29-4.866 9.578-10.869 9.578h18.722c6.003 0 10.869-4.288 10.869-9.578v-9.811c-.001-5.29-4.867-9.578-10.869-9.578z" fill="#e49542"/><path d="m352.744 425.285h-67.608c-5.635 0-10.203-4.568-10.203-10.203v-8.561c0-5.635 4.568-10.203 10.203-10.203h67.608c5.635 0 10.203 4.568 10.203 10.203v8.561c0 5.635-4.568 10.203-10.203 10.203z" fill="#eab14d"/><path d="m352.079 396.319h-18.722c6.003 0 10.869 4.288 10.869 9.578v9.811c0 5.29-4.866 9.578-10.869 9.578h18.722c6.003 0 10.869-4.288 10.869-9.578v-9.811c-.001-5.29-4.867-9.578-10.869-9.578z" fill="#e49542"/><path d="m352.744 396.319h-67.608c-5.635 0-10.203-4.568-10.203-10.203v-8.561c0-5.635 4.568-10.203 10.203-10.203h67.608c5.635 0 10.203 4.568 10.203 10.203v8.561c0 5.635-4.568 10.203-10.203 10.203z" fill="#f6e266"/><path d="m352.079 367.352h-18.722c6.003 0 10.869 4.288 10.869 9.578v9.811c0 5.29-4.866 9.578-10.869 9.578h18.722c6.003 0 10.869-4.288 10.869-9.578v-9.811c-.001-5.29-4.867-9.578-10.869-9.578z" fill="#ecbe6b"/><path d="m352.744 367.352h-67.608c-5.635 0-10.203-4.568-10.203-10.203v-8.561c0-5.635 4.568-10.203 10.203-10.203h67.608c5.635 0 10.203 4.568 10.203 10.203v8.561c0 5.635-4.568 10.203-10.203 10.203z" fill="#eab14d"/><path d="m352.079 338.386h-18.722c6.003 0 10.869 4.288 10.869 9.578v9.811c0 5.29-4.866 9.578-10.869 9.578h18.722c6.003 0 10.869-4.288 10.869-9.578v-9.811c-.001-5.29-4.867-9.578-10.869-9.578z" fill="#e49542"/><path d="m332.438 338.386h-67.608c-5.635 0-10.203-4.568-10.203-10.203v-8.561c0-5.635 4.568-10.203 10.203-10.203h67.608c5.635 0 10.203 4.568 10.203 10.203v8.561c0 5.635-4.568 10.203-10.203 10.203z" fill="#f6e266"/><path d="m331.772 309.419h-18.722c6.003 0 10.869 4.288 10.869 9.578v9.811c0 5.29-4.866 9.578-10.869 9.578h18.722c6.003 0 10.869-4.288 10.869-9.578v-9.811c0-5.29-4.866-9.578-10.869-9.578z" fill="#ecbe6b"/><circle cx="271.07" cy="384.781" fill="#f6e266" r="40.504"/><path d="m271.07 344.277c-3.31 0-6.523.406-9.603 1.155 17.733 4.313 30.901 20.289 30.901 39.349s-13.168 35.036-30.901 39.349c3.079.749 6.293 1.155 9.603 1.155 22.37 0 40.504-18.134 40.504-40.504 0-22.369-18.134-40.504-40.504-40.504z" fill="#ecbe6b"/><g><path d="m292.801 176.716h-87.461c-4.206 0-7.615-3.409-7.615-7.615s3.409-7.615 7.615-7.615h87.461c4.206 0 7.615 3.409 7.615 7.615s-3.409 7.615-7.615 7.615z" fill="#e490d0"/></g></g></svg>