<svg height="494pt" viewBox="0 -17 494.11003 494" width="494pt" xmlns="http://www.w3.org/2000/svg"><path d="m484.101562 461.152344c-1.625 0-3.269531-.398438-4.796874-1.234375l-93.355469-51.128907c-10.179688-5.578124-19.5-12.5625-27.707031-20.769531l-188.128907-188.128906c-3.90625-3.90625-3.90625-10.238281 0-14.140625 3.90625-3.90625 10.238281-3.90625 14.144531 0l188.125 188.128906c6.863282 6.859375 14.660157 12.703125 23.171876 17.367188l93.359374 51.132812c4.84375 2.652344 6.617188 8.730469 3.964844 13.574219-1.816406 3.316406-5.242187 5.199219-8.777344 5.199219zm0 0" fill="#ccc033"/><path d="m490.101562 452.152344c-1.625 0-3.269531-.398438-4.796874-1.234375l-93.355469-51.128907c-10.179688-5.578124-19.5-12.5625-27.707031-20.769531l-188.128907-188.128906c-1.992187-1.992187-2.964843-4.621094-2.921875-7.230469-1.117187.484375-2.164062 1.175782-3.078125 2.089844-3.90625 3.90625-3.90625 10.238281 0 14.140625l188.128907 188.128906c8.207031 8.207031 17.527343 15.195313 27.707031 20.769531l93.355469 51.128907c1.527343.835937 3.171874 1.234375 4.796874 1.234375 3.535157 0 6.960938-1.878906 8.777344-5.199219.8125-1.476563 1.203125-3.070313 1.226563-4.644531-1.257813.542968-2.625.84375-4.003907.84375zm0 0" fill="#99af17"/><path d="m450.292969 224.976562c-.113281-2.867187-1.929688-4.601562-3.957031-3.800781-74.835938 29.53125-91.492188 87.300781-91.492188 87.300781-4.046875 11.515626-5.953125 24.328126-4.996094 37.011719 2.542969 33.632813 24.265625 53.644531 48.511719 44.691407 1.226563-.449219 2.429687-.96875 3.621094-1.546876 50.988281-20.171874 49.335937-137.386718 48.3125-163.65625zm0 0" fill="#ccc033"/><path d="m409.59375 361.125c-1.480469 0-2.964844-.542969-4.125-1.644531-2.40625-2.28125-2.507812-6.078125-.230469-8.480469 9.828125-10.367188 17.003907-36.738281 19.695313-72.351562.246094-3.304688 3.132812-5.785157 6.433594-5.535157 3.304687.25 5.78125 3.128907 5.53125 6.4375-2.078126 27.503907-7.742188 63.660157-22.945313 79.703125-1.183594 1.242188-2.769531 1.871094-4.359375 1.871094zm0 0" fill="#eacf32"/><path d="m376.507812 354.003906c-.960937-12.683594.945313-25.492187 4.992188-37.011718 0 0 13.234375-45.894532 69.109375-76.78125-.027344-6.433594-.175781-11.671876-.316406-15.230469-.113281-2.867188-1.929688-4.601563-3.957031-3.804688-74.835938 29.535157-91.492188 87.300781-91.492188 87.300781-4.046875 11.519532-5.953125 24.328126-4.996094 37.011719 2.324219 30.726563 20.65625 50.066407 42.292969 46.359375-8.515625-8.128906-14.386719-21.339844-15.632813-37.84375zm0 0" fill="#99af17"/><path d="m224.195312 15.957031s6.113282-7.210937 13.683594-8.398437c1.308594-.207032 2.433594.953125 2.25 2.269531l-1.222656 8.601563-.019531.066406c-.074219.285156-.105469.574218-.113281.855468l-.003907.050782.007813.003906c-.015625 1.613281 1.042968 3.09375 2.671875 3.53125 1.933593.519531 3.921875-.628906 4.441406-2.5625l3.363281-8.121094c.503906-1.214844 2.042969-1.644531 3.070313-.824218 6.089843 4.851562 7.667969 14.4375 7.667969 14.4375s14.371093 102.117187-45.15625 163.078124l-35.796876-9.914062c-19.695312-82.894531 45.15625-163.074219 45.15625-163.074219zm0 0" fill="#ffc34c"/><path d="m209.039062 179.03125c-19.695312-82.894531 45.15625-163.078125 45.15625-163.078125s.429688-.503906 1.1875-1.257813c-.863281-1.199218-1.871093-2.324218-3.058593-3.269531-1.027344-.820312-2.566407-.390625-3.070313.824219l-3.363281 8.125c-.519531 1.933594-2.507813 3.082031-4.441406 2.5625-1.628907-.4375-2.6875-1.921875-2.671875-3.535156h-.007813l.003907-.050782c.007812-.285156.035156-.570312.113281-.855468l.019531-.070313 1.21875-8.601562c.1875-1.316407-.9375-2.472657-2.25-2.269531-7.570312 1.1875-13.683594 8.394531-13.683594 8.394531s-64.851562 80.183593-45.15625 163.078125l35.796875 9.914062c2.109375-2.160156 4.117188-4.375 6.042969-6.632812zm0 0" fill="#ffb74b"/><path d="m272.292969 32.253906s7.773437-5.378906 15.390625-4.566406c1.320312.140625 2.105468 1.550781 1.585937 2.773438l-3.40625 7.992187-.035156.0625c-.148437.253906-.25.527344-.328125.796875l-.023438.046875.007813.003906c-.429687 1.554688.207031 3.261719 1.667969 4.105469 1.734375 1 3.953125.40625 4.953125-1.324219l5.351562-6.976562c.804688-1.042969 2.398438-1.058594 3.179688 0 4.625 6.261719 3.667969 15.929687 3.667969 15.929687s-12.546876 102.363282-85.824219 145.835938l-16.003907-9.421875-16.007812-9.417969c2.429688-85.175781 85.824219-145.839844 85.824219-145.839844zm0 0" fill="#ffc34c"/><path d="m272.292969 32.253906s7.773437-5.378906 15.390625-4.566406c1.320312.140625 2.105468 1.550781 1.585937 2.773438l-3.40625 7.992187-.035156.0625c-.148437.253906-.25.527344-.328125.796875l-.023438.046875.007813.003906c-.429687 1.554688.207031 3.261719 1.667969 4.105469 1.734375 1 3.953125.40625 4.953125-1.324219l5.351562-6.976562c.804688-1.042969 2.398438-1.058594 3.179688 0 4.625 6.261719 3.667969 15.929687 3.667969 15.929687s-12.546876 102.363282-85.824219 145.835938l-16.003907-9.421875-16.007812-9.417969c2.429688-85.175781 85.824219-145.839844 85.824219-145.839844zm0 0" fill="#ffc34c"/><path d="m216.46875 178.085938c1.800781-63.074219 48-112.699219 71.851562-134.207032-.394531-.070312-.792968-.199218-1.164062-.414062-1.460938-.84375-2.101562-2.550782-1.667969-4.105469l-.007812-.003906.019531-.042969c.082031-.273438.183594-.542969.332031-.800781l.035157-.0625 3.40625-7.992188c.519531-1.21875-.265626-2.632812-1.585938-2.773437-7.621094-.8125-15.390625 4.570312-15.390625 4.570312s-83.394531 60.664063-85.828125 145.832032l16.007812 9.421874 16.003907 9.417969c4.902343-2.90625 9.527343-6.085937 13.898437-9.476562zm0 0" fill="#ffb74b"/><path d="m313.089844 59.933594s8.898437-3.1875 16.046875-.429688c1.238281.476563 1.632812 2.042969.8125 3.085938l-5.359375 6.839844-.050782.050781c-.207031.210937-.375.441406-.523437.683593l-.03125.042969.007813.003907c-.816407 1.390624-.644532 3.203124.550781 4.398437 1.414062 1.414063 3.710937 1.414063 5.125 0l6.972656-5.351563c1.046875-.800781 2.59375-.402343 3.074219.820313 2.84375 7.246094-.582032 16.335937-.582032 16.335937s-38.609374 95.625-120.644531 118.652344l-13.019531-13.242187-13.023438-13.242188c24.386719-81.636719 120.644532-118.648437 120.644532-118.648437zm0 0" fill="#ffc34c"/><path d="m235.464844 191.828125-13.019532-13.242187c17.882813-59.859376 74.402344-95.726563 103.28125-110.601563l4.222657-5.390625c.820312-1.042969.425781-2.609375-.8125-3.089844-7.152344-2.757812-16.046875.429688-16.046875.429688s-96.253906 37.011718-120.644532 118.652344l13.019532 13.242187 13.023437 13.242187c7.679688-2.15625 14.976563-4.949218 21.898438-8.238281zm0 0" fill="#ffb74b"/><path d="m342.085938 98.402344s9.421874-.773438 15.613281 3.738281c1.070312.78125 1.046875 2.394531-.011719 3.191406l-6.949219 5.222657-.058593.035156c-.257813.148437-.480469.328125-.6875.523437l-.039063.03125.007813.007813c-1.152344 1.128906-1.453126 2.929687-.609376 4.390625 1 1.734375 3.21875 2.328125 4.953126 1.324219l8.121093-3.363282c1.214844-.503906 2.605469.285156 2.753907 1.589844.875 7.734375-4.789063 15.632812-4.789063 15.632812s-62.046875 82.371094-147.242187 83.378907l-18.304688-32.320313c44.6875-72.542968 147.242188-83.382812 147.242188-83.382812zm0 0" fill="#ffc34c"/><path d="m233.992188 197.945312-9.148438-16.160156c33.757812-54.800781 100.527344-74.386718 131.171875-80.691406-6.078125-3.324219-13.929687-2.691406-13.929687-2.691406s-102.554688 10.839844-147.246094 83.378906l18.304687 32.320312c9.703125-.113281 19.097657-1.292968 28.144531-3.277343zm0 0" fill="#ffb74b"/><path d="m357.9375 143.425781s9.300781 1.6875 14.113281 7.652344c.835938 1.03125.394531 2.585937-.839843 3.082031l-8.0625 3.242188-.066407.019531c-.285156.074219-.546875.191406-.796875.328125l-.046875.019531.003907.007813c-1.402344.792968-2.160157 2.453125-1.722657 4.082031.519531 1.933594 2.507813 3.082031 4.441407 2.5625l8.714843-1.148437c1.304688-.171876 2.445313.949218 2.25 2.25-1.15625 7.695312-8.671875 13.859374-8.671875 13.859374s-81.25 63.503907-163.804687 42.429688l-4.660157-17.980469-4.65625-17.976562c61.9375-58.503907 163.804688-42.429688 163.804688-42.429688zm0 0" fill="#ffc34c"/><path d="m233.445312 221.816406-4.65625-17.980468-4.660156-17.980469c34.679688-32.753907 81.871094-42.128907 116.695313-44.039063-31.65625-1.757812-100.347657.265625-146.695313 44.039063l4.660156 17.980469 4.65625 17.980468c17.011719 4.339844 33.96875 5.085938 50.167969 3.542969-6.683593-.675781-13.421875-1.820313-20.167969-3.542969zm0 0" fill="#ffb74b"/><path d="m365.890625 187.667969s8.546875 4.039062 11.652344 11.042969c.539062 1.210937-.289063 2.601562-1.605469 2.761718l-8.628906 1.042969h-.070313c-.296875 0-.582031.046875-.855469.113281l-.050781.007813.003907.007812c-1.5625.402344-2.722657 1.808594-2.722657 3.496094 0 2.003906 1.625 3.625 3.625 3.625l8.71875 1.148437c1.304688.171876 2.113281 1.546876 1.589844 2.753907-3.109375 7.132812-11.960937 11.140625-11.960937 11.140625s-94.921876 40.316406-169.210938-1.410156l.15625-18.570313.152344-18.574219c74.972656-40.476562 169.207031 1.414063 169.207031 1.414063zm0 0" fill="#ffc34c"/><path d="m226.375 223.402344.15625-18.574219.152344-18.570313c19.613281-10.589843 40.539062-15.535156 60.753906-17.078124-28.605469-2.039063-61.175781 1.109374-90.753906 17.078124l-.152344 18.570313-.15625 18.574219c30.484375 17.121094 64.441406 20.421875 93.890625 18.367187-21.246094-1.578125-43.359375-6.835937-63.890625-18.367187zm0 0" fill="#ffb74b"/><path d="m360.628906 231.363281s7.210938 6.117188 8.394532 13.6875c.207031 1.308594-.953126 2.433594-2.265626 2.25l-8.605468-1.222656-.066406-.019531c-.285157-.074219-.570313-.105469-.855469-.113282l-.050781-.003906v.007813c-1.617188-.015625-3.097657 1.042969-3.535157 2.675781-.519531 1.933594.628907 3.921875 2.5625 4.4375l8.125 3.363281c1.214844.503907 1.640625 2.042969.820313 3.074219-4.851563 6.085938-14.4375 7.664062-14.4375 7.664062s-102.117188 14.375-163.078125-45.15625l4.957031-17.898437 4.957031-17.894531c82.898438-19.703125 163.078125 45.148437 163.078125 45.148437zm0 0" fill="#ffc34c"/><path d="m218.824219 223.324219 4.957031-17.898438 4.953125-17.898437c5.921875-1.40625 11.824219-2.367188 17.691406-2.96875-15.410156-1.492188-31.496093-.878906-47.691406 2.96875l-4.953125 17.898437-4.957031 17.898438c47.921875 46.796875 121.273437 47.921875 150.457031 46.261719-35.144531-1.925782-84.828125-11.46875-120.457031-46.261719zm0 0" fill="#ffb74b"/><path d="m345.515625 277.78125s5.378906 7.773438 4.566406 15.390625c-.140625 1.320313-1.550781 2.105469-2.773437 1.585937l-7.992188-3.40625-.0625-.035156c-.253906-.148437-.527344-.25-.796875-.328125l-.046875-.019531-.003906.007812c-1.554688-.433593-3.261719.203126-4.105469 1.667969-1 1.734375-.40625 3.949219 1.324219 4.949219l6.976562 5.351562c1.042969.804688 1.058594 2.398438 0 3.183594-6.261718 4.621094-15.929687 3.667969-15.929687 3.667969s-102.363281-12.550781-145.835937-85.824219l9.421874-16.007812 9.417969-16.003906c85.171875 2.425781 145.839844 85.820312 145.839844 85.820312zm0 0" fill="#ffc34c"/><path d="m210.839844 223.96875 9.421875-16.003906 7.25-12.320313c-8.929688-2.097656-18.222657-3.410156-27.832031-3.6875l-9.417969 16.007813-9.421875 16.003906c43.472656 73.277344 145.835937 85.824219 145.835937 85.824219s8.414063.828125 14.628907-2.816407c-30.234376-6.664062-97.386719-27.253906-130.464844-83.007812zm0 0" fill="#ffb74b"/><path d="m317.835938 318.574219s3.1875 8.902343.429687 16.050781c-.480469 1.234375-2.046875 1.628906-3.089844.8125l-6.839843-5.359375-.050782-.050781c-.210937-.210938-.441406-.378906-.683594-.527344l-.039062-.027344-.007812.007813c-1.386719-.820313-3.203126-.644531-4.398438.546875-1.414062 1.417968-1.414062 3.710937 0 5.128906l5.355469 6.972656c.800781 1.042969.402343 2.59375-.824219 3.070313-7.242188 2.847656-16.335938-.578125-16.335938-.578125s-95.625-38.613282-118.652343-120.644532l13.242187-13.019531 13.242188-13.023437c81.636718 24.386718 118.652344 120.640625 118.652344 120.640625zm0 0" fill="#ffc34c"/><path d="m303.953125 336.1875c-28.683594-15.410156-84.402344-52.183594-101.253906-112.210938l13.242187-13.023437 4.664063-4.585937c-6.765625-3.332032-13.902344-6.191407-21.421875-8.4375l-26.484375 26.046874c23.027343 82.03125 118.652343 120.640626 118.652343 120.640626s9.09375 3.429687 16.335938.582031c1.226562-.480469 1.625-2.027344.824219-3.070313zm0 0" fill="#ffb74b"/><path d="m282.367188 347.574219s.773437 9.421875-3.738282 15.609375c-.78125 1.074218-2.398437 1.050781-3.195312-.011719l-5.21875-6.945313-.035156-.0625c-.148438-.253906-.332032-.480468-.527344-.683593l-.03125-.039063-.003906.003906c-1.132813-1.148437-2.929688-1.449218-4.390626-.605468-1.734374 1-2.328124 3.21875-1.328124 4.953125l3.367187 8.121093c.503906 1.214844-.285156 2.605469-1.589844 2.753907-7.734375.875-15.632812-4.789063-15.632812-4.789063s-82.371094-62.046875-83.378907-147.242187l32.320313-18.304688c72.542969 44.6875 83.382813 147.242188 83.382813 147.242188zm0 0" fill="#ffc34c"/><path d="m263.898438 359.789062c-1-1.734374-.40625-3.953124 1.328124-4.953124.457032-.261719.945313-.402344 1.433594-.449219-23.375-21.707031-69.242187-72.304688-69.996094-135.753907l15.699219-8.890624c-4.210937-3.351563-8.660156-6.503907-13.378906-9.414063l-32.320313 18.304687c1.007813 85.199219 83.378907 147.242188 83.378907 147.242188s7.898437 5.664062 15.632812 4.789062c1.304688-.148437 2.09375-1.535156 1.589844-2.753906zm0 0" fill="#ffb74b"/><path d="m273.304688 360.339844 2.128906 2.832031c.515625.6875 1.371094.933594 2.125.734375-1.101563-.894531-2.535156-2.085938-4.253906-3.566406zm0 0" fill="#ffb74b"/><path d="m243.34375 366.425781s-1.691406 9.300781-7.652344 14.113281c-1.035156.835938-2.585937.390626-3.082031-.839843l-3.246094-8.0625-.015625-.066407c-.078125-.289062-.195312-.550781-.332031-.800781l-.015625-.042969-.011719.003907c-.792969-1.40625-2.449219-2.160157-4.082031-1.726563-1.933594.519532-3.082031 2.507813-2.5625 4.441406l1.148438 8.714844c.171874 1.308594-.945313 2.445313-2.25 2.25-7.695313-1.15625-13.855469-8.671875-13.855469-8.671875s-63.507813-81.25-42.433594-163.804687l17.980469-4.660156 17.980468-4.65625c58.5 61.945312 42.429688 163.808593 42.429688 163.808593zm0 0" fill="#ffc34c"/><path d="m237.386719 375.742188s-63.507813-81.25-42.433594-163.808594l11.554687-2.992188c-1.789062-2.144531-3.648437-4.257812-5.59375-6.324218l-17.980468 4.660156-17.976563 4.65625c-21.074219 82.558594 42.429688 163.808594 42.429688 163.808594s6.164062 7.511718 13.859375 8.671874c1.300781.195313 2.421875-.945312 2.246094-2.25l-1.144532-8.71875c-.519531-1.933593.625-3.921874 2.558594-4.4375 1.632812-.4375 3.292969.320313 4.085938 1.722657l.007812-.003907.019531.046876c.136719.246093.253907.511718.332031.796874l.015626.070313 3.246093 8.058594c.496094 1.230469 2.046875 1.675781 3.082031.839843 1.1875-.960937 2.203126-2.101562 3.074219-3.308593-.882812-.882813-1.382812-1.488281-1.382812-1.488281zm0 0" fill="#ffb74b"/><path d="m178.609375 374.378906s4.039063 8.542969 11.042969 11.648438c1.214844.539062 2.601562-.289063 2.761718-1.605469l1.046876-8.625v-.074219c0-.296875.046874-.578125.109374-.855468l.007813-.050782.007813.003906c.402343-1.5625 1.808593-2.722656 3.5-2.722656 2 0 3.625 1.625 3.625 3.628906l1.144531 8.714844c.171875 1.304688 1.546875 2.117188 2.753906 1.589844 7.132813-3.109375 11.144531-11.960938 11.144531-11.960938s40.3125-94.921874-1.410156-169.210937l-18.574219.15625-18.570312.152344c-40.480469 74.976562 1.410156 169.210937 1.410156 169.210937zm0 0" fill="#ffc34c"/><path d="m202.609375 374.378906s-41.890625-94.234375-1.410156-169.210937l13.25-.109375c-.035157-.066406-.070313-.132813-.105469-.199219l-18.574219.152344-18.570312.15625c-40.480469 74.972656 1.410156 169.207031 1.410156 169.207031s4.039063 8.546875 11.042969 11.652344c1.210937.539062 2.601562-.292969 2.757812-1.609375l1.046875-8.625v-.070313c0-.296875.046875-.582031.109375-.859375l.007813-.046875h.007812c.402344-1.5625 1.808594-2.722656 3.5-2.722656 2 0 3.625 1.625 3.625 3.628906l1.148438 8.714844c.167969 1.304688 1.542969 2.117188 2.753906 1.589844 1.691406-.738282 3.199219-1.800782 4.527344-2.988282-4.1875-3.730468-6.527344-8.660156-6.527344-8.660156zm0 0" fill="#ffb74b"/><path d="m134.367188 366.421875s1.691406 9.304687 7.652343 14.117187c1.03125.832032 2.585938.390626 3.082031-.84375l3.246094-8.058593.015625-.070313c.078125-.285156.195313-.546875.332031-.796875l.015626-.046875.007812.003906c.796875-1.402343 2.453125-2.160156 4.082031-1.722656 1.933594.519532 3.082031 2.507813 2.566407 4.441406l-1.148438 8.714844c-.171875 1.308594.945312 2.445313 2.246094 2.25 7.699218-1.15625 13.859375-8.671875 13.859375-8.671875s63.507812-81.25 42.433593-163.804687l-17.980468-4.660156-17.980469-4.65625c-58.5 61.941406-42.429687 163.804687-42.429687 163.804687zm0 0" fill="#ffc34c"/><path d="m158.371094 366.421875s-15.21875-96.496094 37.914062-158.757813l-1.503906-.390624-17.980469-4.660157c-58.503906 61.945313-42.429687 163.808594-42.429687 163.808594s1.6875 9.300781 7.652344 14.117187c1.03125.832032 2.585937.390626 3.082031-.84375l3.242187-8.058593.019532-.070313c.074218-.285156.191406-.546875.328124-.796875l.019532-.046875.007812.003906c.796875-1.402343 2.453125-2.160156 4.085938-1.722656 1.933594.519532 3.082031 2.507813 2.5625 4.441406l-1.148438 8.714844c-.171875 1.304688.949219 2.445313 2.25 2.25 3.515625-.527344 6.703125-2.382812 9.136719-4.242187-5.621094-4.902344-7.238281-13.746094-7.238281-13.746094zm0 0" fill="#ffb74b"/><path d="m95.34375 347.570312s-.773438 9.421876 3.738281 15.613282c.78125 1.070312 2.394531 1.046875 3.195313-.011719l5.21875-6.945313.035156-.0625c.148438-.257812.332031-.480468.527344-.683593l.03125-.042969.007812.007812c1.128906-1.148437 2.925782-1.453124 4.386719-.609374 1.734375 1 2.328125 3.21875 1.328125 4.953124l-3.363281 8.121094c-.503907 1.21875.28125 2.605469 1.589843 2.753906 7.734376.875 15.628907-4.789062 15.628907-4.789062s82.371093-62.046875 83.382812-147.242188l-16.164062-9.152343-16.160157-9.152344c-72.542968 44.6875-83.382812 147.242187-83.382812 147.242187zm0 0" fill="#ffc34c"/><path d="m139.484375 354.835938c-1.460937-.84375-3.257813-.542969-4.390625.605468l-.003906-.003906-.035156.039062c-.195313.207032-.375.429688-.523438.6875l-.039062.0625-5.21875 6.945313c-.796876 1.0625-2.410157 1.085937-3.191407.011719-4.515625-6.191406-3.742187-15.609375-3.742187-15.609375s9.613281-90.882813 71.265625-138.816407l-14.882813-8.425781c-72.539062 44.6875-83.378906 147.242188-83.378906 147.242188s-.777344 9.421875 3.738281 15.613281c.78125 1.070312 2.394531 1.046875 3.195313-.011719l5.21875-6.949219.035156-.0625c.148438-.253906.332031-.480468.527344-.683593l.03125-.042969.003906.007812c1.128906-1.148437 2.929688-1.453124 4.390625-.609374 1.734375 1 2.328125 3.21875 1.328125 4.953124l-3.367188 8.121094c-.503906 1.21875.28125 2.609375 1.589844 2.753906 7.734375.875 15.632813-4.789062 15.632813-4.789062s4.945312-3.730469 12.421875-10.601562c-.183594-.164063-.386719-.308594-.605469-.4375zm0 0" fill="#ffb74b"/><path d="m59.878906 318.574219s-3.1875 8.898437-.429687 16.046875c.476562 1.238281 2.042969 1.632812 3.085937.8125l6.839844-5.359375.050781-.050781c.210938-.207032.441407-.375.683594-.523438l.039063-.03125.007812.007812c1.390625-.816406 3.203125-.644531 4.398438.550782 1.414062 1.414062 1.414062 3.710937 0 5.125l-5.351563 6.976562c-.804687 1.042969-.402344 2.589844.820313 3.070313 7.246093 2.847656 16.335937-.582031 16.335937-.582031s95.625-38.609376 118.652344-120.640626l-26.484375-26.046874c-81.636719 24.386718-118.648438 120.644531-118.648438 120.644531zm0 0" fill="#ffc34c"/><path d="m104.554688 335.152344c1.414062-1.417969 1.414062-3.710938 0-5.128906-1.195313-1.191407-3.007813-1.367188-4.398438-.546876l-.007812-.007812-.039063.03125c-.242187.148438-.472656.316406-.683594.523438l-.050781.050781-6.835938 5.359375c-1.046874.816406-2.613281.421875-3.089843-.816406-2.757813-7.144532.429687-16.046876.429687-16.046876s30.515625-79.339843 97.230469-112.207031l-8.578125-8.4375c-81.640625 24.390625-118.652344 120.644531-118.652344 120.644531s-3.1875 8.902344-.429687 16.046876c.480469 1.238281 2.042969 1.632812 3.089843.816406l6.835938-5.359375.050781-.050781c.210938-.207032.441407-.375.683594-.523438l.039063-.03125.007812.007812c1.390625-.816406 3.203125-.644531 4.398438.546876 1.414062 1.417968 1.414062 3.710937 0 5.128906l-5.351563 6.972656c-.804687 1.042969-.40625 2.589844.820313 3.070312 7.246093 2.847657 16.335937-.582031 16.335937-.582031s6.886719-2.78125 17.402344-8.429687zm0 0" fill="#ffb74b"/><path d="m32.199219 277.777344s-5.382813 7.773437-4.570313 15.390625c.140625 1.320312 1.554688 2.105469 2.773438 1.585937l7.992187-3.40625.0625-.035156c.257813-.148438.527344-.25.800781-.328125l.042969-.019531.003907.007812c1.554687-.433594 3.261718.203125 4.109374 1.667969 1 1.734375.402344 3.949219-1.328124 4.949219l-6.972657 5.351562c-1.046875.804688-1.0625 2.398438 0 3.183594 6.261719 4.621094 15.929688 3.667969 15.929688 3.667969s102.359375-12.550781 145.832031-85.824219l-9.417969-16.007812-9.421875-16.003907c-85.171875 2.429688-145.835937 85.820313-145.835937 85.820313zm0 0" fill="#ffc34c"/><path d="m71.105469 302.941406 6.976562-5.347656c1.730469-1 2.324219-3.21875 1.324219-4.953125-.84375-1.460937-2.546875-2.097656-4.105469-1.667969v-.007812l-.046875.019531c-.273437.082031-.542968.183594-.796875.332031l-.0625.035156-7.996093 3.40625c-1.21875.519532-2.628907-.265624-2.769532-1.585937-.816406-7.617187 4.566406-15.390625 4.566406-15.390625s45.402344-62.394531 112.785157-80.8125l-2.949219-5.011719c-85.167969 2.429688-145.835938 85.824219-145.835938 85.824219s-5.382812 7.773438-4.566406 15.390625c.140625 1.316406 1.550782 2.105469 2.769532 1.585937l7.996093-3.40625.0625-.035156c.253907-.148437.523438-.25.796875-.332031l.046875-.019531v.007812c1.554688-.429687 3.261719.207032 4.105469 1.667969 1 1.734375.410156 3.953125-1.324219 4.953125l-6.976562 5.347656c-1.042969.804688-1.058594 2.398438 0 3.183594 6.261719 4.621094 15.929687 3.667969 15.929687 3.667969s7.75-.957031 19.878906-3.855469c-.847656-.824219-.777343-2.25.191407-2.996094zm0 0" fill="#ffb74b"/><path d="m15.898438 232.679688s-7.210938 6.113281-8.394532 13.683593c-.207031 1.308594.953125 2.4375 2.265625 2.25l8.601563-1.222656.070312-.015625c.285156-.078125.570313-.109375.855469-.117188l.050781-.003906v.007813c1.613282-.015625 3.097656 1.042969 3.535156 2.671875.515626 1.933594-.628906 3.921875-2.566406 4.441406l-8.121094 3.363281c-1.214843.503907-1.644531 2.042969-.824218 3.074219 4.851562 6.085938 14.4375 7.664062 14.4375 7.664062s102.121094 14.371094 163.078125-45.15625l-4.953125-17.898437-4.957032-17.898437c-82.894531-19.695313-163.078124 45.15625-163.078124 45.15625zm0 0" fill="#ffc34c"/><path d="m61.808594 268.476562s-9.585938-1.578124-14.4375-7.664062c-.820313-1.03125-.390625-2.570312.824218-3.074219l8.121094-3.363281c1.9375-.519531 3.082032-2.507812 2.5625-4.441406-.433594-1.628906-1.917968-2.6875-3.53125-2.671875v-.007813l-.050781.003906c-.285156.007813-.570313.039063-.855469.117188l-.070312.015625-8.601563 1.222656c-1.3125.1875-2.472656-.9375-2.265625-2.25 1.183594-7.570312 8.394532-13.683593 8.394532-13.683593s50.25-40.632813 112.3125-47.796876c-77.398438-9.554687-148.3125 47.796876-148.3125 47.796876s-7.210938 6.113281-8.394532 13.683593c-.207031 1.308594.953125 2.4375 2.265625 2.25l8.601563-1.222656.070312-.015625c.285156-.078125.570313-.109375.855469-.117188l.050781-.003906v.007813c1.613282-.015625 3.09375 1.042969 3.53125 2.671875.519532 1.933594-.625 3.921875-2.5625 4.441406l-8.121094 3.363281c-1.214843.503907-1.644531 2.042969-.824218 3.074219 4.851562 6.085938 14.4375 7.664062 14.4375 7.664062s19.085937 2.683594 45.675781.925782c-6.136719-.429688-9.675781-.925782-9.675781-.925782zm0 0" fill="#ffb74b"/><path d="m11.816406 187.664062s-8.542968 4.042969-11.648437 11.046876c-.539063 1.210937.289062 2.597656 1.605469 2.757812l8.625 1.046875h.074218c.296875 0 .578125.046875.855469.113281l.050781.003906-.003906.007813c1.5625.40625 2.722656 1.808594 2.722656 3.5 0 2-1.625 3.625-3.628906 3.625l-8.714844 1.144531c-1.304687.171875-2.117187 1.550782-1.589844 2.753906 3.109376 7.136719 11.960938 11.144532 11.960938 11.144532s94.921875 40.3125 169.210938-1.410156l-.15625-18.574219-.152344-18.570313c-74.972656-40.480468-169.210938 1.410156-169.210938 1.410156zm0 0" fill="#ffc34c"/><path d="m48.128906 224.808594s-8.851562-4.007813-11.960937-11.144532c-.527344-1.207031.285156-2.582031 1.589843-2.753906l8.714844-1.144531c2 0 3.625-1.625 3.625-3.625 0-1.691406-1.160156-3.09375-2.722656-3.5l.003906-.007813-.050781-.003906c-.277344-.066406-.558594-.113281-.855469-.113281h-.074218l-8.625-1.046875c-1.316407-.160156-2.144532-1.546875-1.605469-2.757812 3.101562-7.003907 11.648437-11.046876 11.648437-11.046876s32.945313-14.640624 75.367188-18.242187c-58.222656-5.375-111.367188 18.242187-111.367188 18.242187s-8.542968 4.042969-11.648437 11.046876c-.539063 1.210937.289062 2.597656 1.605469 2.757812l8.625 1.046875h.074218c.296875 0 .578125.046875.855469.113281l.050781.003906-.003906.007813c1.5625.40625 2.722656 1.808594 2.722656 3.5 0 2-1.625 3.625-3.625 3.625l-8.714844 1.144531c-1.308593.171875-2.121093 1.550782-1.589843 2.753906 3.109375 7.136719 11.960937 11.144532 11.960937 11.144532s51.441406 21.84375 108.222656 16.722656c-40.816406-3.390625-72.222656-16.722656-72.222656-16.722656zm0 0" fill="#ffb74b"/><path d="m19.773438 143.421875s-9.304688 1.691406-14.117188 7.652344c-.832031 1.03125-.390625 2.585937.84375 3.082031l8.058594 3.246094.070312.015625c.285156.078125.546875.195312.796875.332031l.046875.015625-.003906.007813c1.402344.796874 2.160156 2.453124 1.722656 4.082031-.519531 1.9375-2.507812 3.082031-4.441406 2.566406l-8.714844-1.148437c-1.304687-.171876-2.445312.949218-2.25 2.25 1.160156 7.695312 8.671875 13.859374 8.671875 13.859374s81.25 63.503907 163.808594 42.429688l4.65625-17.980469 4.660156-17.976562c-61.945312-58.503907-163.808593-42.433594-163.808593-42.433594zm0 0" fill="#ffc34c"/><path d="m43.457031 179.382812s-7.511719-6.164062-8.671875-13.859374c-.195312-1.300782.945313-2.421876 2.25-2.25l8.714844 1.148437c1.933594.519531 3.921875-.628906 4.441406-2.5625.433594-1.628906-.320312-3.285156-1.726562-4.082031l.003906-.007813-.042969-.019531c-.25-.136719-.511719-.253906-.800781-.332031l-.070312-.015625-8.058594-3.246094c-1.230469-.496094-1.671875-2.050781-.839844-3.082031 4.8125-5.960938 14.113281-7.652344 14.113281-7.652344s5.867188-.921875 15.621094-1.519531c-28.15625-1.703125-48.621094 1.519531-48.621094 1.519531s-9.300781 1.691406-14.113281 7.652344c-.832031 1.03125-.390625 2.585937.839844 3.082031l8.058594 3.246094.070312.015625c.289062.078125.550781.195312.800781.332031l.042969.019531-.003906.007813c1.40625.792968 2.160156 2.453125 1.726562 4.082031-.519531 1.9375-2.507812 3.082031-4.441406 2.5625l-8.714844-1.148437c-1.304687-.171876-2.445312.949218-2.25 2.25 1.160156 7.695312 8.671875 13.859374 8.671875 13.859374s69.421875 54.25 145.125 45.816407c-61.734375-6.445313-112.125-45.816407-112.125-45.816407zm0 0" fill="#ffb74b"/><path d="m35.625 98.398438s-9.421875-.773438-15.609375 3.738281c-1.074219.78125-1.050781 2.394531.011719 3.195312l6.945312 5.21875.0625.035157c.253906.148437.480469.332031.683594.527343l.039062.03125-.003906.007813c1.148438 1.128906 1.449219 2.925781.605469 4.390625-1 1.730469-3.21875 2.324219-4.953125 1.324219l-8.121094-3.363282c-1.214844-.503906-2.605468.28125-2.753906 1.589844-.875 7.734375 4.789062 15.628906 4.789062 15.628906s62.046876 82.371094 147.242188 83.382813l9.152344-16.164063 9.152344-16.160156c-44.6875-72.542969-147.242188-83.382812-147.242188-83.382812zm0 0" fill="#ffc34c"/><path d="m41.320312 130.71875s-5.664062-7.894531-4.789062-15.628906c.148438-1.308594 1.539062-2.09375 2.753906-1.589844l8.121094 3.363281c1.734375 1 3.953125.40625 4.953125-1.328125.84375-1.460937.542969-3.257812-.605469-4.390625l.003906-.007812-.039062-.03125c-.207031-.195313-.429688-.375-.6875-.523438l-.0625-.035156-6.945312-5.21875c-1.058594-.796875-1.082032-2.414063-.011719-3.195313 1.066406-.777343 2.230469-1.386718 3.425781-1.882812-7.394531-1.386719-11.8125-1.855469-11.8125-1.855469s-9.421875-.777343-15.613281 3.738281c-1.074219.78125-1.046875 2.394532.011719 3.195313l6.945312 5.21875.0625.035156c.257812.148438.480469.332031.6875.523438l.039062.03125-.003906.007812c1.148438 1.128907 1.449219 2.929688.605469 4.390625-1 1.734375-3.21875 2.328125-4.953125 1.328125l-8.121094-3.363281c-1.214844-.503906-2.605468.28125-2.753906 1.589844-.875 7.734375 4.789062 15.628906 4.789062 15.628906s62.046876 82.371094 147.242188 83.382812l1.246094-2.199218c-73.265625-13.1875-124.488282-81.183594-124.488282-81.183594zm0 0" fill="#ffb74b"/><path d="m64.625 59.929688s-8.902344-3.1875-16.050781-.429688c-1.234375.480469-1.628907 2.046875-.8125 3.089844l5.359375 6.839844.050781.050781c.210937.207031.378906.441406.527344.683593l.027343.039063-.007812.007813c.820312 1.386718.644531 3.203124-.546875 4.394531-1.417969 1.417969-3.710937 1.417969-5.128906 0l-6.972657-5.351563c-1.042968-.800781-2.59375-.402344-3.070312.824219-2.847656 7.242187.578125 16.335937.578125 16.335937s38.613281 95.625 120.644531 118.648438l13.019532-13.242188 13.023437-13.242187c-24.386719-81.632813-120.640625-118.648437-120.640625-118.648437zm0 0" fill="#ffc34c"/><path d="m62.578125 86.414062s-3.425781-9.089843-.578125-16.335937c.476562-1.226563 2.027344-1.621094 3.070312-.820313l6.972657 5.351563c1.417969 1.414063 3.710937 1.414063 5.128906 0 1.191406-1.195313 1.367187-3.007813.546875-4.394531l.007812-.007813-.03125-.039062c-.148437-.242188-.316406-.476563-.523437-.683594l-.050781-.050781-4.855469-6.195313c-4.8125-2.214843-7.640625-3.304687-7.640625-3.304687s-8.902344-3.1875-16.050781-.429688c-1.234375.480469-1.628907 2.046875-.8125 3.089844l5.359375 6.839844.050781.050781c.210937.207031.378906.441406.527344.683594l.027343.039062-.003906.007813c.816406 1.386718.644532 3.203125-.550781 4.394531-1.414063 1.414063-3.710937 1.414063-5.125 0l-6.976563-5.351563c-1.042968-.800781-2.589843-.402343-3.070312.820313-2.847656 7.246094.582031 16.335937.582031 16.335937s38.609375 95.625 120.640625 118.652344l6.25-6.351562c-69.859375-30.511719-102.894531-112.300782-102.894531-112.300782zm0 0" fill="#ffb74b"/><path d="m105.417969 32.25s-7.773438-5.382812-15.390625-4.566406c-1.320313.140625-2.105469 1.550781-1.585938 2.773437l3.40625 7.992188.035156.0625c.148438.253906.25.527343.328126.796875l.019531.046875-.007813.003906c.433594 1.554687-.203125 3.261719-1.667968 4.105469-1.734376 1-3.949219.40625-4.949219-1.324219l-5.351563-6.976563c-.804687-1.042968-2.398437-1.058593-3.183594 0-4.621093 6.261719-3.667968 15.929688-3.667968 15.929688s12.550781 102.363281 85.824218 145.835938l16.007813-9.421876 16.003906-9.417968c-2.425781-85.171875-85.820312-145.839844-85.820312-145.839844zm0 0" fill="#ffc34c"/><path d="m97.402344 51.089844s-.953125-9.667969 3.667968-15.929688c.785157-1.058594 2.378907-1.042968 3.183594 0l5.351563 6.976563c1 1.730469 3.214843 2.328125 4.949219 1.324219.917968-.53125 1.507812-1.394532 1.71875-2.355469-6.601563-5.757813-10.855469-8.855469-10.855469-8.855469s-7.773438-5.382812-15.390625-4.570312c-1.320313.140624-2.105469 1.554687-1.585938 2.773437l3.40625 7.992187.035156.0625c.148438.257813.25.523438.328126.800782l.019531.042968-.007813.003907c.433594 1.554687-.203125 3.261719-1.667968 4.109375-1.734376 1-3.949219.402344-4.949219-1.328125l-5.351563-6.972657c-.804687-1.046874-2.398437-1.0625-3.183594 0-4.621093 6.261719-3.667968 15.929688-3.667968 15.929688s12.546875 102.359375 85.824218 145.832031l12.730469-7.492187c-63.304687-46.683594-74.554687-138.34375-74.554687-138.34375zm0 0" fill="#ffb74b"/><path d="m153.515625 15.953125s-6.113281-7.210937-13.683594-8.394531c-1.308593-.207032-2.4375.953125-2.25 2.265625l1.222657 8.601562.015624.070313c.078126.285156.109376.570312.113282.855468l.007812.050782h-.007812c.011718 1.613281-1.046875 3.097656-2.675782 3.535156-1.933593.519531-3.921874-.628906-4.441406-2.5625l-3.359375-8.125c-.503906-1.21875-2.042969-1.644531-3.074219-.824219-6.085937 4.851563-7.664062 14.4375-7.664062 14.4375s-14.371094 102.121094 45.15625 163.078125l35.796875-9.914062c19.695313-82.894532-45.15625-163.074219-45.15625-163.074219zm0 0" fill="#ffc34c"/><path d="m138.71875 25.863281s1.582031-9.585937 7.667969-14.4375c.460937-.367187 1.027343-.472656 1.554687-.378906-2.269531-1.5625-5.066406-3.015625-8.105468-3.488281-1.3125-.207032-2.4375.953125-2.25 2.265625l1.21875 8.605469.019531.066406c.074219.285156.105469.574218.113281.855468l.003906.050782-.007812.003906c.015625 1.613281-1.042969 3.09375-2.671875 3.53125-1.9375.519531-3.921875-.628906-4.441407-2.5625l-3.363281-8.125c-.503906-1.21875-2.042969-1.644531-3.074219-.824219-6.085937 4.851563-7.664062 14.4375-7.664062 14.4375s-14.371094 102.117188 45.15625 163.078125l16.707031-4.625c-54.519531-61.351562-40.863281-158.453125-40.863281-158.453125zm0 0" fill="#ffb74b"/><path d="m207.53125 11.875s-4.042969-8.546875-11.046875-11.652344c-1.210937-.539062-2.597656.289063-2.757813 1.605469l-1.046874 8.628906v.070313c0 .296875-.046876.578125-.113282.855468l-.003906.050782-.007812-.003906c-.40625 1.5625-1.8125 2.722656-3.5 2.722656-2 0-3.625-1.625-3.625-3.628906l-1.144532-8.714844c-.171875-1.304688-1.550781-2.117188-2.753906-1.589844-7.136719 3.109375-11.144531 11.960938-11.144531 11.960938s-40.3125 94.921874 1.410156 169.210937l18.574219-.15625 18.570312-.152344c40.480469-74.976562-1.410156-169.207031-1.410156-169.207031zm0 0" fill="#ffc34c"/><path d="m190.769531 13.71875c-.507812.273438-1.089843.433594-1.714843.433594-2 0-3.625-1.625-3.625-3.625l-1.144532-8.714844c-.171875-1.308594-1.546875-2.121094-2.753906-1.589844-7.136719 3.109375-11.144531 11.960938-11.144531 11.960938s-40.3125 94.917968 1.410156 169.207031l18.574219-.152344 2.332031-.019531c-38.476563-68.75-6.847656-155.058594-1.933594-167.5zm0 0" fill="#ffb74b"/><path d="m216.253906 249.429688c-27.664062 11.335937-59.28125-1.902344-70.617187-29.566407-11.335938-27.664062 1.902343-59.277343 29.566406-70.613281s59.277344 1.898438 70.613281 29.5625c11.335938 27.664062-1.898437 59.28125-29.5625 70.617188zm0 0" fill="#ffa730"/><path d="m190.550781 238.144531c-12.386719-1.632812-23.371093-9.207031-29.269531-20.222656-11.117188-20.757813-1.617188-46.09375 19.605469-54.792969 6.371093-2.609375 13.15625-3.496094 20.015625-2.59375 12.390625 1.628906 23.371094 9.207032 29.269531 20.21875 11.117187 20.761719 1.621094 46.097656-19.605469 54.796875-6.371094 2.609375-13.152344 3.496094-20.015625 2.59375zm0 0" fill="#bf6c0d"/><path d="m184.636719 219.863281c-11.335938-27.664062 1.902343-59.277343 29.566406-70.613281.339844-.140625.683594-.257812 1.027344-.394531-12.453125-4.8125-26.699219-5.070313-40.027344.394531-27.664063 11.335938-40.902344 42.949219-29.566406 70.613281 11.199219 27.324219 42.171875 40.554688 69.589843 29.957031-13.390624-5.175781-24.714843-15.621093-30.589843-29.957031zm0 0" fill="#e58d23"/><g fill="#a56021"><path d="m197.28125 160.25c-.523438-.019531-1.046875-.058594-1.574219-.058594-5.078125 0-10.066406.988282-14.820312 2.9375-19.964844 8.183594-29.550781 31.082032-21.371094 51.046875 6.050781 14.765625 20.273437 24.308594 36.230469 24.308594.519531 0 1.035156-.015625 1.550781-.039063-5.320313-5.082031-9.6875-11.332031-12.660156-18.582031-8.679688-21.183593-2.9375-44.675781 12.644531-59.613281zm0 0"/><path d="m220.972656 207.890625c0 9.664063-7.832031 17.5-17.5 17.5-9.664062 0-17.5-7.835937-17.5-17.5s7.835938-17.5 17.5-17.5c9.667969 0 17.5 7.835937 17.5 17.5zm0 0"/></g></svg>