<svg height="495pt" viewBox="0 -20 495.28 495" width="495pt" xmlns="http://www.w3.org/2000/svg"><path d="m485.269531 454.605469c-1.625 0-3.269531-.398438-4.792969-1.234375l-93.359374-51.132813c-10.179688-5.574219-19.5-12.558593-27.707032-20.765625l-188.125-188.128906c-3.90625-3.90625-3.90625-10.238281 0-14.140625 3.90625-3.90625 10.234375-3.90625 14.140625 0l188.128907 188.128906c6.863281 6.859375 14.65625 12.703125 23.167968 17.367188l93.359375 51.132812c4.84375 2.652344 6.621094 8.730469 3.964844 13.574219-1.816406 3.316406-5.242187 5.199219-8.777344 5.199219zm0 0" fill="#ccc033"/><path d="m491.269531 445.605469c-1.625 0-3.269531-.398438-4.792969-1.234375l-93.359374-51.132813c-10.179688-5.574219-19.5-12.558593-27.707032-20.765625l-188.125-188.128906c-1.996094-1.992188-2.964844-4.621094-2.921875-7.230469-1.117187.484375-2.167969 1.175781-3.078125 2.089844-3.90625 3.90625-3.90625 10.238281 0 14.140625l188.125 188.128906c8.207032 8.207032 17.527344 15.195313 27.707032 20.765625l93.355468 51.132813c1.527344.835937 3.171875 1.234375 4.796875 1.234375 3.535157 0 6.960938-1.878907 8.777344-5.199219.8125-1.476562 1.203125-3.070312 1.226563-4.644531-1.257813.546875-2.621094.84375-4.003907.84375zm0 0" fill="#99af17"/><path d="m451.460938 218.433594c-.113282-2.867188-1.929688-4.601563-3.957032-3.804688-74.835937 29.53125-91.492187 87.300782-91.492187 87.300782-4.046875 11.519531-5.953125 24.328124-4.996094 37.015624 2.542969 33.628907 24.265625 53.640626 48.511719 44.691407 1.226562-.453125 2.429687-.972657 3.621094-1.550781 50.992187-20.171876 49.339843-137.386719 48.3125-163.652344zm0 0" fill="#ccc033"/><path d="m410.765625 354.578125c-1.480469 0-2.964844-.542969-4.128906-1.644531-2.40625-2.28125-2.507813-6.074219-.226563-8.480469 9.824219-10.367187 17-36.738281 19.691406-72.351563.246094-3.304687 3.125-5.785156 6.433594-5.535156 3.304688.25 5.78125 3.128906 5.53125 6.4375-2.078125 27.503906-7.742187 63.65625-22.945312 79.703125-1.179688 1.242188-2.769532 1.871094-4.355469 1.871094zm0 0" fill="#eacf32"/><path d="m377.675781 347.457031c-.960937-12.683593.945313-25.492187 4.996094-37.011719 0 0 13.234375-45.894531 69.109375-76.785156-.03125-6.429687-.179688-11.667968-.320312-15.226562-.109376-2.867188-1.929688-4.601563-3.953126-3.804688-74.835937 29.53125-91.496093 87.300782-91.496093 87.300782-4.046875 11.519531-5.953125 24.328124-4.992188 37.011718 2.324219 30.726563 20.652344 50.066406 42.289063 46.359375-8.511719-8.128906-14.382813-21.339843-15.632813-37.84375zm0 0" fill="#99af17"/><path d="m20.957031 91.007812s-12.535156.457032-17.304687 8.289063l.003906-.015625c-2.683594 3.761719-3.289062 7.855469-3.289062 7.855469l.007812-.015625c-2.230469 8.894531 6.238281 18.148437 6.238281 18.148437s71.367188 74.4375 156.085938 65.347657l14.34375-34.265626c-52.96875-66.734374-156.085938-65.34375-156.085938-65.34375zm0 0" fill="#ffdf74"/><path d="m42.613281 143.269531s-8.46875-9.25-6.238281-18.144531l-.003906.015625s.601562-4.09375 3.289062-7.859375l-.007812.015625c4.773437-7.828125 17.308594-8.289063 17.308594-8.289063s41.394531-.550781 85.199218 16.015626c-53.808594-34.914063-121.199218-34.015626-121.199218-34.015626s-12.535157.457032-17.308594 8.289063l.007812-.015625c-2.6875 3.765625-3.289062 7.859375-3.289062 7.859375l.003906-.015625c-2.230469 8.894531 6.238281 18.144531 6.238281 18.144531s33.929688 35.382813 82.765625 54.378907c-28.714844-17.558594-46.765625-36.378907-46.765625-36.378907zm0 0" fill="#ffd551"/><path d="m128.21875 13.992188s-9.1875-8.539063-18.097656-6.375l.015625-.003907c-4.5625.761719-7.882813 3.230469-7.882813 3.230469l.015625-.007812c-7.867187 4.710937-8.417969 17.246093-8.417969 17.246093s-2.171874 103.101563 64.160157 156.574219l17.1875-7.039062 17.183593-7.042969c9.730469-84.648438-64.164062-156.582031-64.164062-156.582031zm0 0" fill="#ffdf74"/><path d="m123.847656 28.078125s.363282-8.179687 4.652344-13.804687c-.179688-.179688-.28125-.28125-.28125-.28125s-9.1875-8.539063-18.097656-6.375l.015625-.003907c-4.5625.761719-7.882813 3.230469-7.882813 3.230469l.015625-.007812c-7.867187 4.710937-8.417969 17.246093-8.417969 17.246093s-2.171874 103.101563 64.160157 156.574219l17.1875-7.039062 3.34375-1.371094c-56.648438-55.160156-54.695313-148.167969-54.695313-148.167969zm0 0" fill="#ffd551"/><path d="m259.300781 21.097656s-.457031-12.535156-8.289062-17.304687l.015625.003906c-3.761719-2.683594-7.855469-3.289063-7.855469-3.289063l.015625.007813c-8.894531-2.230469-18.148438 6.238281-18.148438 6.238281s-74.4375 71.367188-65.347656 156.085938l34.265625 14.34375c66.734375-52.96875 65.34375-156.085938 65.34375-156.085938zm0 0" fill="#ffdf74"/><path d="m249.039062 18.753906s3.761719-3.441406 8.792969-5.359375c-1.152343-3.519531-3.195312-7.394531-6.820312-9.601562l.015625.003906c-3.761719-2.683594-7.855469-3.289063-7.855469-3.289063l.015625.007813c-8.894531-2.230469-18.148438 6.238281-18.148438 6.238281s-74.4375 71.371094-65.347656 156.085938l17.132813 7.171875 6.683593 2.796875c-7.707031-83.824219 65.53125-154.054688 65.53125-154.054688zm0 0" fill="#ffd551"/><path d="m341.90625 135.46875s8.539062-9.1875 6.375-18.097656l.007812.015625c-.761718-4.558594-3.230468-7.878907-3.230468-7.878907l.003906.015626c-4.710938-7.867188-17.242188-8.421876-17.242188-8.421876s-103.101562-2.171874-156.578124 64.164063l7.042968 17.183594 7.039063 17.1875c84.648437 9.730469 156.582031-64.167969 156.582031-64.167969zm0 0" fill="#ffdf74"/><path d="m179.65625 185.789062c55.15625-56.640624 148.164062-54.6875 148.164062-54.6875s8.183594.363282 13.808594 4.652344c.175782-.179687.277344-.28125.277344-.28125s8.539062-9.1875 6.375-18.097656l.007812.015625c-.761718-4.558594-3.230468-7.882813-3.230468-7.882813l.003906.015626c-4.710938-7.867188-17.242188-8.417969-17.242188-8.417969s-103.101562-2.171875-156.578124 64.160156l7.042968 17.1875zm0 0" fill="#ffd551"/><path d="m335.75 276.929688s12.535156-.460938 17.304688-8.289063l-.007813.015625c2.6875-3.765625 3.292969-7.859375 3.292969-7.859375l-.007813.015625c2.230469-8.890625-6.238281-18.144531-6.238281-18.144531s-71.371094-74.441407-156.085938-65.347657l-14.34375 34.265626c52.96875 66.730468 156.085938 65.34375 156.085938 65.34375zm0 0" fill="#ffdf74"/><path d="m194.007812 207.316406c81.21875-8.714844 150.160157 59.332032 155.710938 64.964844 1.292969-.988281 2.449219-2.1875 3.335938-3.644531l-.007813.015625c2.6875-3.765625 3.292969-7.859375 3.292969-7.859375l-.007813.015625c2.230469-8.890625-6.238281-18.144532-6.238281-18.144532s-71.371094-74.441406-156.085938-65.347656l-14.34375 34.265625c2.707032 3.40625 5.550782 6.632813 8.5 9.695313zm0 0" fill="#ffd551"/><path d="m228.488281 353.941406s9.191407 8.539063 18.101563 6.375l-.019532.007813c4.5625-.761719 7.882813-3.230469 7.882813-3.230469l-.015625.007812c7.867188-4.714843 8.421875-17.246093 8.421875-17.246093s2.171875-103.101563-64.164063-156.578125l-17.183593 7.042968-17.1875 7.042969c-9.730469 84.648438 64.164062 156.578125 64.164062 156.578125zm0 0" fill="#ffdf74"/><path d="m258.207031 353.664062c-4.855469-4.84375-73.269531-74.652343-63.878906-156.300781l13.84375-5.671875c-2.996094-2.914062-6.144531-5.726562-9.472656-8.410156l-17.1875 7.039062-17.1875 7.042969c-9.730469 84.648438 64.164062 156.578125 64.164062 156.578125s9.1875 8.539063 18.097657 6.375l-.015626.007813c4.558594-.761719 7.882813-3.230469 7.882813-3.230469l-.015625.007812c1.511719-.90625 2.753906-2.101562 3.769531-3.4375zm0 0" fill="#ffd551"/><path d="m97.40625 346.835938s.457031 12.535156 8.289062 17.304687l-.015624-.003906c3.761718 2.683593 7.855468 3.289062 7.855468 3.289062l-.015625-.003906c8.894531 2.226563 18.148438-6.238281 18.148438-6.238281s74.4375-71.371094 65.347656-156.085938l-34.265625-14.34375c-66.734375 52.964844-65.34375 156.082032-65.34375 156.082032zm0 0" fill="#ffdf74"/><path d="m127.40625 346.835938s-1.242188-92.839844 55.648438-147.585938l-3.167969-1.328125-17.132813-7.171875c-66.734375 52.96875-65.347656 156.085938-65.347656 156.085938s.457031 12.535156 8.289062 17.304687l-.015624-.003906c3.765624 2.683593 7.859374 3.289062 7.859374 3.289062l-.015624-.003906c8.894531 2.226563 18.144531-6.238281 18.144531-6.238281s.136719-.136719.382812-.375c-4.339843-5.664063-4.644531-13.972656-4.644531-13.972656zm0 0" fill="#ffd551"/><path d="m14.421875 229.523438s-8.542969 9.1875-6.378906 18.097656l-.003907-.015625c.761719 4.5625 3.230469 7.882812 3.230469 7.882812l-.007812-.015625c4.710937 7.867188 17.246093 8.417969 17.246093 8.417969s103.101563 2.171875 156.578126-64.160156l-7.042969-17.1875-7.042969-17.183594c-84.648438-9.730469-156.578125 64.164063-156.578125 64.164063zm0 0" fill="#ffdf74"/><path d="m64.503906 248.894531s-12.53125-.554687-17.242187-8.421875l.003906.015625s-2.46875-3.320312-3.230469-7.878906l.007813.015625c-2.164063-8.910156 6.375-18.097656 6.375-18.097656s23.390625-24.019532 59.179687-42.867188c-55.304687 16.914063-95.179687 57.867188-95.179687 57.867188s-8.539063 9.1875-6.375 18.097656l-.007813-.015625c.761719 4.558594 3.230469 7.878906 3.230469 7.878906l-.003906-.015625c4.710937 7.867188 17.242187 8.421875 17.242187 8.421875s58.75 1.230469 110.554688-26.699219c-39.691406 12.429688-74.554688 11.699219-74.554688 11.699219zm0 0" fill="#ffd551"/><path d="m197.859375 232.925781c-27.664063 11.335938-59.277344-1.898437-70.617187-29.5625-11.335938-27.664062 1.902343-59.28125 29.566406-70.617187 27.664062-11.335938 59.28125 1.898437 70.617187 29.5625 11.335938 27.664062-1.902343 59.28125-29.566406 70.617187zm0 0" fill="#ffa730"/><path d="m177.355469 221.984375c-15.960938 0-30.179688-9.542969-36.230469-24.308594-8.183594-19.964843 1.40625-42.867187 21.371094-51.046875 4.753906-1.949218 9.742187-2.9375 14.816406-2.9375 15.960938 0 30.179688 9.542969 36.230469 24.308594 8.183593 19.964844-1.40625 42.867188-21.371094 51.046875-4.753906 1.949219-9.738281 2.9375-14.816406 2.9375zm0 0" fill="#bf6c0d"/><path d="m166.242188 203.363281c-11.335938-27.664062 1.902343-59.28125 29.566406-70.617187.339844-.140625.683594-.257813 1.027344-.390625-12.453126-4.816407-26.699219-5.074219-40.027344.390625-27.664063 11.335937-40.902344 42.953125-29.566406 70.617187 11.199218 27.320313 42.175781 40.554688 69.589843 29.953125-13.390625-5.175781-24.714843-15.621094-30.589843-29.953125zm0 0" fill="#e58d23"/><g fill="#a56021"><path d="m178.886719 143.75c-.523438-.023438-1.042969-.058594-1.574219-.058594-5.078125 0-10.0625.988282-14.816406 2.933594-19.964844 8.183594-29.554688 31.082031-21.371094 51.050781 6.050781 14.765625 20.269531 24.304688 36.230469 24.304688.515625 0 1.035156-.015625 1.550781-.035157-5.320312-5.082031-9.691406-11.335937-12.664062-18.585937-8.679688-21.179687-2.9375-44.671875 12.644531-59.609375zm0 0"/><path d="m202.582031 191.386719c0 9.667969-7.835937 17.5-17.5 17.5-9.664062 0-17.5-7.832031-17.5-17.5 0-9.664063 7.835938-17.5 17.5-17.5 9.664063 0 17.5 7.835937 17.5 17.5zm0 0"/></g></svg>