<svg height="489pt" viewBox="-27 0 489 489.61002" width="489pt" xmlns="http://www.w3.org/2000/svg"><path d="m355.058594 309.507812c-2.640625.007813-3.785156-3.34375-1.679688-4.941406 4.019532-3.050781 8.019532-6.539062 11.898438-10.417968 21.589844-21.617188 31.011718-47.234376 21.042968-57.210938-9.964843-9.980469-35.546874-.546875-57.136718 21.074219-3.648438 3.648437-6.949219 7.414062-9.867188 11.199219-1.585937 2.0625-4.878906.960937-4.914062-1.640626-.277344-19.222656-8.605469-32.308593-20.855469-30.636718-14.542969 1.980468-29.109375 24.011718-32.535156 49.203125-.109375.800781-.203125 1.59375-.289063 2.382812-.238281 2.238281-2.941406 3.277344-4.578125 1.738281-3.277343-3.089843-7.332031-4.550781-11.9375-3.921874-14.542969 1.980468-29.109375 24.011718-32.535156 49.207031-1.917969 14.128906.074219 26.25 4.757813 33.824219-8.558594 9.859374-8.160157 24.808593 1.203124 34.183593l2.289063 2.289063c9.054687 9.066406 23.308594 9.738281 33.144531 2.027344 7.492188 5.667968 21.027344 7.746093 36.839844 4.667968 24.929688-4.847656 46.074219-20.65625 47.226562-35.308594.289063-3.6875-.714843-6.953124-2.777343-9.691406-1.265625-1.679687-.226563-4.125 1.859375-4.371094.511718-.058593 1.023437-.121093 1.539062-.191406 25.164063-3.429687 47.167969-18.015625 49.144532-32.578125 1.699218-12.527343-11.96875-20.957031-31.839844-20.886719zm0 0" fill="#ccc033"/><path d="m311.480469 337.65625c-8.5625 0-15.160157-2.398438-19.703125-7.1875-12.613282-13.300781-3.480469-39.390625-3.085938-40.496094.742188-2.082031 3.027344-3.160156 5.109375-2.417968 2.078125.742187 3.164063 3.03125 2.425781 5.109374-2.21875 6.246094-6.304687 24.234376 1.367188 32.304688 6.851562 7.210938 21.511719 4.773438 32.605469 1.453125 2.121093-.636719 4.347656.566406 4.976562 2.6875.632813 2.117187-.570312 4.34375-2.6875 4.976563-7.960937 2.382812-14.972656 3.570312-21.007812 3.570312zm0 0" fill="#fce575"/><path d="m262.886719 386.316406c-8.566407 0-15.160157-2.402344-19.703125-7.191406-12.617188-13.300781-3.484375-39.390625-3.085938-40.496094.742188-2.082031 3.023438-3.160156 5.109375-2.417968 2.078125.742187 3.164063 3.027343 2.421875 5.109374-2.21875 6.246094-6.304687 24.234376 1.367188 32.308594 6.855468 7.210938 21.515625 4.769532 32.605468 1.449219 2.117188-.632813 4.347657.570313 4.980469 2.6875.628907 2.117187-.570312 4.347656-2.6875 4.976563-7.960937 2.382812-14.972656 3.574218-21.007812 3.574218zm0 0" fill="#fce575"/><path d="m241.292969 314.554688c4.605469-.628907 8.660156.832031 11.9375 3.921874 1.636719 1.539063 4.339843.5 4.578125-1.738281.082031-.785156.179687-1.582031.289062-2.378906 3.421875-25.195313 17.988282-47.226563 32.535156-49.207031 12.25-1.671875 20.574219 11.414062 20.851563 30.636718.039063 2.601563 3.332031 3.703126 4.917969 1.644532 2.917968-3.785156 6.21875-7.550782 9.867187-11.203125 21.589844-21.617188 47.171875-31.050781 57.136719-21.074219.625.625 1.171875 1.308594 1.644531 2.050781 6.269531-12.867187 7.203125-24.332031 1.273438-30.269531-9.96875-9.980469-35.550781-.542969-57.140625 21.074219-3.644532 3.648437-6.945313 7.414062-9.863282 11.199219-1.589843 2.0625-4.878906.964843-4.917968-1.640626-.277344-19.222656-8.601563-32.308593-20.855469-30.636718-14.542969 1.980468-29.109375 24.011718-32.535156 49.203125-.109375.800781-.203125 1.59375-.289063 2.382812-.238281 2.238281-2.941406 3.277344-4.574218 1.738281-3.277344-3.089843-7.332032-4.550781-11.941407-3.921874-14.542969 1.980468-29.109375 24.011718-32.535156 49.203124-.800781 5.882813-.917969 11.410157-.449219 16.414063 5.636719-19.9375 17.859375-35.734375 30.070313-37.398437zm0 0" fill="#99af17"/><path d="m218.863281 412.105469c-1.917969 0-3.835937-.730469-5.300781-2.195313-2.929688-2.925781-2.933594-7.675781-.003906-10.605468l96.558594-96.683594c2.925781-2.929688 7.675781-2.929688 10.605468-.003906 2.929688 2.925781 2.933594 7.675781.007813 10.605468l-96.558594 96.683594c-1.464844 1.464844-3.386719 2.199219-5.308594 2.199219zm0 0" fill="#fcda4f"/><path d="m211.703125 489.609375c-5.523437 0-10-4.476563-10-9.996094l-.113281-351.117187c0-5.523438 4.472656-10 10-10.003906 5.523437 0 10 4.476562 10 10l.113281 351.117187c0 5.519531-4.476563 10-10 10zm0 0" fill="#ccc033"/><path d="m213.703125 479.613281-.113281-351.117187c0-3.269532 1.574218-6.164063 4-7.988282-1.671875-1.261718-3.746094-2.015624-6-2.015624-5.527344 0-10 4.480468-10 10l.113281 351.117187c0 5.523437 4.476563 9.996094 10 9.996094 2.253906 0 4.328125-.753907 6-2.011719-2.425781-1.824219-4-4.714844-4-7.980469zm0 0" fill="#99af17"/><path d="m337.847656 129.765625c0 69.667969-56.476562 126.144531-126.144531 126.144531s-126.144531-56.476562-126.144531-126.144531 56.476562-126.144531 126.144531-126.144531 126.144531 56.476562 126.144531 126.144531zm0 0" fill="#fff4c1"/><path d="m382.902344 95.957031c-.679688 0-1.367188-.171875-1.996094-.535156-1.914062-1.105469-2.566406-3.550781-1.464844-5.464844l28.75-49.792969c1.105469-1.914062 3.542969-2.570312 5.464844-1.464843 1.914062 1.105469 2.566406 3.550781 1.464844 5.464843l-28.75 49.792969c-.742188 1.28125-2.085938 2-3.46875 2zm0 0" fill="#ffdf74"/><path d="m419.121094 48.167969c-3.21875 0-6.480469-.816407-9.464844-2.542969-9.074219-5.238281-12.195312-16.882812-6.957031-25.953125 1.105469-1.914063 3.550781-2.574219 5.464843-1.464844 1.914063 1.105469 2.566407 3.550781 1.464844 5.464844-3.035156 5.25-1.226562 11.988281 4.023438 15.023437 5.253906 3.039063 11.996094 1.226563 15.027344-4.023437 1.105468-1.914063 3.550781-2.574219 5.464843-1.464844 1.914063 1.105469 2.566407 3.550781 1.464844 5.464844-3.511719 6.089844-9.914063 9.496094-16.488281 9.496094zm0 0" fill="#ffdf74"/><path d="m364.90625 123.136719c-5.976562-3.453125-8.027344-11.097657-4.574219-17.078125l5.5-9.523438c3.449219-5.980468 11.09375-8.027344 17.074219-4.578125 5.976562 3.453125 8.027344 11.097657 4.574219 17.078125l-5.5 9.523438c-3.449219 5.980468-11.097657 8.03125-17.074219 4.578125zm0 0" fill="#f9bb32"/><path d="m364.90625 123.136719c-5.976562-3.453125-8.027344-11.097657-4.574219-17.078125l5.5-9.523438c3.449219-5.980468 11.09375-8.027344 17.074219-4.578125 5.976562 3.453125 8.027344 11.097657 4.574219 17.078125l-5.5 9.523438c-3.449219 5.980468-11.097657 8.03125-17.074219 4.578125zm0 0" fill="#f9bb32"/><path d="m373.777344 121.5625c-1.015625 0-2.046875-.257812-2.992188-.804688-2.871094-1.65625-3.855468-5.324218-2.199218-8.195312l5.5-9.527344c1.660156-2.871094 5.328124-3.855468 8.199218-2.195312 2.867188 1.652344 3.851563 5.324218 2.195313 8.195312l-5.5 9.527344c-1.109375 1.921875-3.128907 3-5.203125 3zm0 0" fill="#ffc34c"/><g fill="#ffdf74"><path d="m179.023438 27.066406c-3.316407 0-6.585938-.871094-9.539063-2.570312-4.425781-2.554688-7.59375-6.683594-8.914063-11.621094-.570312-2.132812.695313-4.328125 2.828126-4.898438 2.128906-.582031 4.328124.695313 4.898437 2.828126.769531 2.875 2.613281 5.273437 5.1875 6.761718 2.578125 1.488282 5.578125 1.882813 8.453125 1.113282 5.933594-1.589844 9.464844-7.707032 7.875-13.640626-.570312-2.132812.695312-4.324218 2.828125-4.898437s4.328125.695313 4.898437 2.828125c2.734376 10.191406-3.335937 20.710938-13.53125 23.4375-1.648437.441406-3.324218.660156-4.984374.660156zm0 0"/><path d="m229.726562 259.535156c-1.765624 0-3.378906-1.179687-3.859374-2.96875-1.324219-4.9375-.644532-10.09375 1.910156-14.523437 2.558594-4.425781 6.683594-7.59375 11.621094-8.914063 10.210937-2.734375 20.710937 3.34375 23.441406 13.53125.570312 2.132813-.695313 4.328125-2.828125 4.898438-2.132813.582031-4.328125-.695313-4.898438-2.828125-1.589843-5.933594-7.726562-9.460938-13.640625-7.875-2.875.773437-5.277344 2.613281-6.765625 5.191406s-1.878906 5.578125-1.113281 8.453125c.574219 2.132812-.695312 4.324219-2.828125 4.898438-.34375.089843-.695313.136718-1.039063.136718zm0 0"/><path d="m290.195312 212.261719c-1.023437 0-2.046874-.390625-2.828124-1.171875l-156.984376-156.988282c-1.5625-1.5625-1.5625-4.09375 0-5.65625 1.558594-1.5625 4.09375-1.5625 5.65625 0l156.988282 156.988282c1.5625 1.558594 1.5625 4.09375 0 5.65625-.78125.78125-1.808594 1.171875-2.832032 1.171875zm0 0"/><path d="m122.507812 59.707031c-5.113281 0-9.917968-1.992187-13.535156-5.605469-1.558594-1.5625-1.558594-4.097656 0-5.65625 1.5625-1.5625 4.09375-1.5625 5.660156 0 2.101563 2.101563 4.898438 3.261719 7.875 3.261719 2.972657 0 5.769532-1.160156 7.875-3.261719 2.101563-2.105468 3.261719-4.902343 3.261719-7.878906 0-2.972656-1.160156-5.769531-3.261719-7.875-1.5625-1.5625-1.5625-4.09375 0-5.65625s4.09375-1.5625 5.65625 0c3.613282 3.617188 5.605469 8.421875 5.605469 13.53125 0 5.117188-1.992187 9.917969-5.605469 13.535156-3.613281 3.613282-8.421874 5.605469-13.53125 5.605469zm0 0"/><path d="m290.195312 233.667969c-1.023437 0-2.046874-.390625-2.828124-1.171875-7.457032-7.460938-7.457032-19.605469 0-27.0625 7.460937-7.460938 19.605468-7.460938 27.066406 0 1.5625 1.558594 1.5625 4.09375 0 5.65625-1.558594 1.558594-4.09375 1.558594-5.65625 0-4.347656-4.34375-11.410156-4.34375-15.753906 0-4.339844 4.339844-4.339844 11.40625 0 15.75 1.5625 1.5625 1.5625 4.097656 0 5.65625-.777344.78125-1.804688 1.171875-2.828126 1.171875zm0 0"/><path d="m318.929688 162.5c-.339844 0-.691407-.042969-1.039063-.136719l-214.699219-57.53125c-2.132812-.570312-3.398437-2.765625-2.828125-4.898437.574219-2.132813 2.761719-3.410156 4.898438-2.828125l214.699219 57.53125c2.136718.570312 3.402343 2.765625 2.828124 4.898437-.476562 1.785156-2.09375 2.964844-3.859374 2.964844zm0 0"/><path d="m89.851562 116.257812c-1.636718 0-3.296874-.210937-4.949218-.652343-2.132813-.570313-3.398438-2.765625-2.828125-4.898438.570312-2.136719 2.761719-3.40625 4.898437-2.828125 5.933594 1.582032 12.050782-1.945312 13.640625-7.875.769531-2.875.375-5.878906-1.113281-8.453125-1.488281-2.578125-3.890625-4.421875-6.761719-5.191406-2.132812-.570313-3.398437-2.765625-2.828125-4.898437.570313-2.132813 2.761719-3.40625 4.898438-2.828126 4.9375 1.324219 9.0625 4.492188 11.621094 8.917969 2.554687 4.425781 3.234374 9.582031 1.910156 14.519531-2.285156 8.542969-10.039063 14.1875-18.488282 14.1875zm0 0"/><path d="m329.632812 181.039062c-.339843 0-.6875-.042968-1.035156-.136718-10.195312-2.730469-16.265625-13.246094-13.535156-23.4375 1.320312-4.9375 4.488281-9.066406 8.914062-11.621094 4.429688-2.558594 9.585938-3.234375 14.527344-1.914062 2.132813.574218 3.398438 2.765624 2.828125 4.898437-.570312 2.132813-2.757812 3.402344-4.898437 2.828125-2.878906-.769531-5.878906-.375-8.457032 1.113281-2.574218 1.488281-4.417968 3.890625-5.1875 6.765625-1.589843 5.929688 1.945313 12.050782 7.875 13.640625 2.132813.570313 3.398438 2.765625 2.828126 4.894531-.472657 1.789063-2.09375 2.96875-3.859376 2.96875zm0 0"/><path d="m104.476562 162.496094c-1.765624 0-3.382812-1.179688-3.859374-2.964844-.574219-2.132812.691406-4.324219 2.828124-4.898438l214.449219-57.457031c2.128907-.578125 4.328125.695313 4.898438 2.828125.570312 2.128906-.695313 4.324219-2.828125 4.894532l-214.449219 57.460937c-.347656.09375-.699219.136719-1.039063.136719zm0 0"/><path d="m93.773438 181.039062c-1.765626 0-3.382813-1.179687-3.859376-2.964843-.574218-2.132813.691407-4.328125 2.824219-4.898438 2.875-.769531 5.277344-2.613281 6.765625-5.191406 1.484375-2.574219 1.878906-5.578125 1.109375-8.449219-.769531-2.878906-2.613281-5.277344-5.1875-6.765625-2.578125-1.484375-5.578125-1.878906-8.453125-1.113281-2.128906.574219-4.328125-.695312-4.898437-2.828125-.570313-2.132813.695312-4.324219 2.828125-4.898437 4.9375-1.320313 10.09375-.644532 14.523437 1.914062 4.425781 2.554688 7.59375 6.683594 8.914063 11.621094 1.324218 4.9375.644531 10.09375-1.910156 14.519531-2.558594 4.425781-6.683594 7.59375-11.621094 8.917969-.34375.089844-.695313.136718-1.035156.136718zm0 0"/><path d="m333.554688 116.257812c-8.449219 0-16.203126-5.644531-18.492188-14.1875-2.726562-10.195312 3.34375-20.707031 13.535156-23.4375 2.128906-.578124 4.328125.695313 4.898438 2.828126.570312 2.132812-.695313 4.324218-2.828125 4.898437-5.933594 1.589844-9.464844 7.707031-7.875 13.636719 1.589843 5.933594 7.714843 9.46875 13.640625 7.878906 2.148437-.582031 4.328125.695312 4.898437 2.828125.570313 2.132813-.695312 4.328125-2.828125 4.898437-1.652344.445313-3.3125.65625-4.949218.65625zm0 0"/><path d="m133.210938 212.261719c-1.023438 0-2.046876-.390625-2.828126-1.171875-1.5625-1.5625-1.5625-4.097656 0-5.65625l156.988282-156.988282c1.5625-1.5625 4.09375-1.5625 5.65625 0s1.5625 4.09375 0 5.65625l-156.988282 156.988282c-.78125.78125-1.808593 1.171875-2.828124 1.171875zm0 0"/><path d="m133.210938 233.667969c-1.023438 0-2.046876-.390625-2.828126-1.171875-1.5625-1.558594-1.5625-4.09375 0-5.65625 4.339844-4.34375 4.339844-11.40625 0-15.75-4.339843-4.339844-11.40625-4.339844-15.75 0-1.5625 1.558594-4.09375 1.558594-5.660156 0-1.558594-1.5625-1.558594-4.097656 0-5.65625 7.460938-7.460938 19.601563-7.460938 27.066406 0 7.460938 7.457031 7.460938 19.601562 0 27.0625-.78125.78125-1.808593 1.171875-2.828124 1.171875zm0 0"/><path d="m300.898438 59.699219c-4.898438 0-9.796876-1.871094-13.53125-5.597657-7.460938-7.460937-7.460938-19.601562 0-27.0625 1.558593-1.5625 4.09375-1.5625 5.65625 0 1.5625 1.558594 1.5625 4.09375 0 5.65625-4.339844 4.34375-4.339844 11.40625 0 15.75 2.105468 2.101563 4.902343 3.261719 7.875 3.261719 2.976562 0 5.773437-1.160156 7.878906-3.261719 1.5625-1.5625 4.09375-1.5625 5.65625 0s1.5625 4.09375 0 5.65625c-3.730469 3.726563-8.632813 5.597657-13.535156 5.597657zm0 0"/><path d="m182.976562 240.992188c-.34375 0-.691406-.042969-1.039062-.136719-2.132812-.574219-3.398438-2.765625-2.828125-4.898438l57.460937-214.449219c.570313-2.132812 2.753907-3.410156 4.898438-2.828124 2.136719.570312 3.402344 2.765624 2.828125 4.894531l-57.460937 214.453125c-.480469 1.785156-2.097657 2.964844-3.859376 2.964844zm0 0"/><path d="m193.679688 259.535156c-.339844 0-.691407-.046875-1.039063-.140625-2.132813-.570312-3.398437-2.765625-2.828125-4.898437 1.589844-5.929688-1.941406-12.050782-7.875-13.640625-5.933594-1.589844-12.050781 1.945312-13.640625 7.875-.570313 2.132812-2.769531 3.402343-4.898437 2.828125-2.132813-.570313-3.398438-2.765625-2.828126-4.898438 2.730469-10.191406 13.25-16.269531 23.4375-13.53125 10.195313 2.730469 16.265626 13.246094 13.535157 23.4375-.484375 1.789063-2.097657 2.964844-3.863281 2.96875zm0 0"/><path d="m244.382812 27.066406c-1.660156 0-3.335937-.214844-4.984374-.660156-4.9375-1.320312-9.0625-4.488281-11.621094-8.917969-2.554688-4.425781-3.234375-9.582031-1.910156-14.519531.570312-2.132812 2.753906-3.410156 4.898437-2.828125 2.132813.570313 3.398437 2.765625 2.828125 4.898437-.773438 2.871094-.378906 5.875 1.113281 8.449219 1.488281 2.578125 3.886719 4.417969 6.761719 5.191407 2.871094.761718 5.875.375 8.453125-1.113282 2.578125-1.488281 4.421875-3.886718 5.191406-6.761718.570313-2.132813 2.753907-3.40625 4.898438-2.828126 2.132812.570313 3.398437 2.765626 2.828125 4.898438-1.324219 4.9375-4.492188 9.0625-8.917969 11.621094-2.949219 1.699218-6.222656 2.570312-9.539063 2.570312zm0 0"/><path d="m240.433594 240.992188c-1.765625 0-3.382813-1.179688-3.863282-2.964844l-57.460937-214.453125c-.574219-2.128907.691406-4.324219 2.828125-4.894531 2.128906-.578126 4.328125.691406 4.898438 2.828124l57.460937 214.449219c.570313 2.132813-.695313 4.324219-2.828125 4.898438-.34375.09375-.695312.136719-1.035156.136719zm0 0"/></g><path d="m236.933594 129.765625c0 13.933594-11.296875 25.226563-25.230469 25.226563s-25.226563-11.292969-25.226563-25.226563 11.292969-25.226563 25.226563-25.226563 25.230469 11.292969 25.230469 25.226563zm0 0" fill="#f9bb32"/><path d="m210.640625 385.421875c-5.679687-29.359375-24.195313-54.261719-41.355469-55.621094-4.320312-.339843-8.144531.84375-11.351562 3.273438-1.96875 1.488281-4.832032.265625-5.117188-2.191407-.070312-.601562-.144531-1.203124-.226562-1.8125-4.019532-29.632812-21.101563-55.546874-38.15625-57.878906-14.671875-2.007812-24.546875 14.089844-24.464844 37.492188.007812 3.113281-3.914062 4.460937-5.785156 1.980468-3.578125-4.734374-7.660156-9.449218-12.207032-14.015624-25.320312-25.425782-55.320312-36.523438-67.007812-24.785157s-.636719 41.867188 24.679688 67.296875c4.277343 4.292969 8.6875 8.179688 13.121093 11.617188 2.414063 1.867187 1.125 5.746094-1.921875 5.789062-22.511718.328125-37.839844 10.132813-35.886718 24.5625 2.324218 17.128906 28.128906 34.285156 57.636718 38.320313.9375.125 1.867188.242187 2.789063.339843 2.617187.277344 3.835937 3.464844 2.03125 5.390626-3.617188 3.859374-5.328125 8.632812-4.589844 14.058593 2.320313 17.132813 28.125 34.289063 57.632813 38.320313 16.546874 2.261718 30.746093-.082032 39.617187-5.601563 11.546875 10.078125 29.054687 9.609375 40.039063-1.417969l2.679687-2.695312c10.621094-10.664062 11.40625-27.453125 2.378906-39.035156 6.636719-8.820313 9.066407-24.761719 5.464844-43.386719zm0 0" fill="#eacf32"/><path d="m192.960938 394.84375c-2.816407 0-5.332032-1.996094-5.882813-4.867188-4.511719-23.316406-17.304687-35.355468-20.167969-36.328124-3.242187-.6875-5.253906-3.855469-4.566406-7.097657.6875-3.242187 3.929688-5.300781 7.175781-4.609375 8.730469 1.847656 24.203125 19.207032 29.339844 45.757813.628906 3.253906-1.5 6.402343-4.75 7.03125-.386719.074219-.769531.113281-1.148437.113281zm0 0" fill="#fcda4f"/><path d="m91.171875 390.347656c-12.042969 0-23.101563-3.894531-23.859375-4.167968-2.078125-.746094-3.15625-3.035157-2.410156-5.113282s3.035156-3.152344 5.113281-2.417968c.265625.097656 26.75 9.398437 38.480469-1.707032 7.035156-6.664062 7.691406-19.847656 1.9375-39.183594-.628906-2.117187.578125-4.347656 2.695312-4.972656 2.113282-.632812 4.34375.574219 4.972656 2.691406 6.683594 22.472657 5.296876 38.382813-4.121093 47.289063-6.15625 5.820313-14.707031 7.582031-22.808594 7.582031zm0 0" fill="#fce575"/><path d="m148.160156 447.582031c-12.039062 0-23.097656-3.894531-23.859375-4.167969-2.078125-.746093-3.15625-3.035156-2.410156-5.113281s3.039063-3.152343 5.117187-2.417969c.265626.097657 26.75 9.398438 38.476563-1.707031 7.039063-6.664062 7.691406-19.847656 1.941406-39.183593-.628906-2.117188.578125-4.347657 2.695313-4.972657 2.113281-.628906 4.34375.574219 4.972656 2.691407 6.683594 22.472656 5.296875 38.382812-4.125 47.289062-6.15625 5.816406-14.703125 7.582031-22.808594 7.582031zm0 0" fill="#fce575"/><path d="m95.878906 442.679688c-.738281-5.429688.972656-10.203126 4.589844-14.0625 1.804688-1.925782.585938-5.109376-2.03125-5.390626-.921875-.097656-1.851562-.210937-2.789062-.339843-29.511719-4.03125-55.3125-21.191407-57.632813-38.320313-1.957031-14.429687 13.371094-24.234375 35.882813-24.558594 3.050781-.046874 4.335937-3.921874 1.921874-5.792968-4.429687-3.4375-8.839843-7.324219-13.117187-11.617188-25.320313-25.425781-36.371094-55.558594-24.683594-67.296875.730469-.734375 1.53125-1.375 2.398438-1.933593-15.070313-7.386719-28.5-8.484376-35.453125-1.5-11.6875 11.738281-.636719 41.867187 24.683594 67.296874 4.277343 4.292969 8.6875 8.179688 13.121093 11.617188 2.414063 1.867188 1.125 5.746094-1.921875 5.789062-22.515625.328126-37.839844 10.132813-35.886718 24.5625 2.320312 17.128907 28.125 34.285157 57.632812 38.320313.9375.125 1.867188.242187 2.789062.339844 2.621094.277343 3.839844 3.464843 2.035157 5.390625-3.621094 3.859375-5.328125 8.632812-4.59375 14.058594 2.320312 17.132812 28.125 34.289062 57.632812 38.320312 6.886719.945312 13.363281 1.082031 19.222657.53125-23.347657-6.636719-41.851563-21.035156-43.800782-35.414062zm0 0" fill="#ccc033"/><path d="m201.355469 476.59375c-1.925781 0-3.847657-.734375-5.316407-2.207031l-113.238281-113.726563c-2.921875-2.933594-2.914062-7.683594.019531-10.605468 2.933594-2.921876 7.683594-2.914063 10.609376.023437l113.238281 113.726563c2.921875 2.933593 2.914062 7.683593-.023438 10.605468-1.460937 1.457032-3.375 2.183594-5.289062 2.183594zm0 0" fill="#fcda4f"/><path d="m132.777344 302.121094c0 9.664062-7.835938 17.5-17.5 17.5-9.664063 0-17.5-7.835938-17.5-17.5 0-9.667969 7.835937-17.5 17.5-17.5 9.664062 0 17.5 7.832031 17.5 17.5zm0 0" fill="#ccc033"/></svg>