<svg height="480pt" viewBox="-10 0 480 480.002" width="480pt" xmlns="http://www.w3.org/2000/svg"><path d="m358.285156 480h-256.5625c-8.683594 0-15.726562-7.042969-15.726562-15.726562v-45.429688h288.019531v45.429688c0 8.683593-7.042969 15.726562-15.730469 15.726562zm0 0" fill="#e58d23"/><path d="m85.992188 357.6875h288.019531v61.15625h-288.019531zm0 0" fill="#bf6c0d"/><path d="m85.992188 296.53125h288.019531v61.15625h-288.019531zm0 0" fill="#e58d23"/><path d="m85.992188 235.375h288.019531v61.15625h-288.019531zm0 0" fill="#bf6c0d"/><path d="m284.917969 113.058594-42.292969-33.878906c-7.28125-5.832032-17.957031-5.832032-25.238281 0l-42.292969 33.878906zm0 0" fill="#e58d23"/><path d="m98.746094 174.214844h262.515625l-76.34375-61.15625h-109.828125zm0 0" fill="#bf6c0d"/><path d="m367.511719 179.222656-6.246094-5.007812h-262.519531l-6.246094 5.007812c-3.390625 2.714844-5.648438 6.417969-6.503906 10.46875v45.679688h288.019531v-45.679688c-.855469-4.050781-3.117187-7.753906-6.503906-10.46875zm0 0" fill="#e58d23"/><path d="m85.992188 418.84375v45.867188c0 8.445312 7.246093 15.292968 16.183593 15.292968h48.539063v-61.15625h-64.722656zm0 0" fill="#bf6c0d"/><path d="m85.992188 357.6875h64.726562v61.15625h-64.726562zm0 0" fill="#a56021"/><path d="m85.992188 296.53125h64.726562v61.15625h-64.726562zm0 0" fill="#bf6c0d"/><path d="m85.992188 235.375h64.726562v61.15625h-64.726562zm0 0" fill="#a56021"/><path d="m242.621094 79.179688c-7.277344-5.832032-17.957032-5.832032-25.238282 0l-42.292968 33.878906h64.722656l22.554688-18.066406zm0 0" fill="#8c4c17"/><path d="m175.089844 113.058594-76.34375 61.15625h64.722656l76.34375-61.15625zm0 0" fill="#8c4c17"/><path d="m157.21875 179.222656 6.25-5.007812h-64.722656l-6.246094 5.007812c-3.390625 2.714844-5.648438 6.417969-6.503906 10.46875v45.679688h64.722656v-45.679688c.851562-4.050781 3.113281-7.753906 6.5-10.46875zm0 0" fill="#bf6c0d"/><path d="m455.34375 225.507812c6.992188-7.753906 6.007812-19.390624-2.199219-25.996093l-191.609375-154.257813-18.996094-15.570312c-7.410156-6.074219-18.441406-6.003906-25.765624.164062l-18.296876 15.40625-191.609374 154.257813c-8.203126 6.605469-9.1875 18.242187-2.199219 25.996093l6.644531 7.367188c6.988281 7.753906 19.304688 8.683594 27.507812 2.078125l178.53125-143.730469c7.292969-5.871094 18.019532-5.871094 25.3125 0l178.53125 143.730469c8.203126 6.601563 20.519532 5.671875 27.507813-2.078125zm0 0" fill="#a56021"/><path d="m37.027344 225.507812c-6.992188-7.753906-6.007813-19.390624 2.195312-25.996093l191.613282-154.257813 15.140624-12.75-3.441406-2.820312c-7.410156-6.074219-18.441406-6.003906-25.765625.164062l-18.300781 15.40625-191.609375 154.261719c-8.203125 6.601563-9.1875 18.242187-2.195313 25.992187l6.640626 7.371094c6.992187 7.75 19.308593 8.679688 27.511718 2.074219l3.894532-3.136719zm0 0" fill="#8c4c17"/><path d="m229.882812 86.816406h-1.21875c-8.722656 0-15.792968-7.070312-15.792968-15.789062v-55.234375c0-8.722657 7.070312-15.792969 15.792968-15.792969h1.21875c8.722657 0 15.792969 7.070312 15.792969 15.792969v55.234375c0 8.71875-7.070312 15.789062-15.792969 15.789062zm0 0" fill="#e58d23"/><path d="m289.820312 480h-119.632812v-183.695312c0-11.132813 9.023438-20.160157 20.160156-20.160157h79.316406c11.132813 0 20.160157 9.027344 20.160157 20.160157v183.695312zm0 0" fill="#ffc34c"/><path d="m200.09375 314.875c0-11.257812 8.929688-20.386719 19.941406-20.386719h69.6875c-1-10.300781-9.5-18.347656-19.839844-18.347656h-79.757812c-11.011719 0-19.9375 9.128906-19.9375 20.386719v183.472656h29.910156v-165.125zm0 0" fill="#f9bb32"/><path d="m270.304688 467.394531c-.003907 0-.003907 0-.007813 0-3.3125-.003906-5.996094-2.691406-5.992187-6.007812l.097656-103.707031c.003906-3.3125 2.691406-5.992188 6-5.992188h.007812c3.3125 0 5.996094 2.691406 5.992188 6.003906l-.097656 103.707032c-.003907 3.3125-2.6875 5.996093-6 5.996093zm0 0" fill="#ffdf74"/><path d="m246.773438 324.386719c0 9.667969-7.835938 17.5-17.5 17.5-9.664063 0-17.5-7.832031-17.5-17.5 0-9.664063 7.835937-17.5 17.5-17.5 9.664062 0 17.5 7.835937 17.5 17.5zm0 0" fill="#f9bb32"/><path d="m263.175781 140.578125c0 9.667969-7.835937 17.5-17.5 17.5-9.664062 0-17.5-7.832031-17.5-17.5 0-9.664063 7.835938-17.5 17.5-17.5 9.664063 0 17.5 7.835937 17.5 17.5zm0 0" fill="#8c4c17"/></svg>