<svg height="473pt" viewBox="-54 0 473 473.158" width="473pt" xmlns="http://www.w3.org/2000/svg"><path d="m226.707031 256.660156v-7.140625c0-19.722656-14.964843-35.710937-33.421875-35.710937h-22.113281c-18.457031 0-33.421875 15.988281-33.421875 35.710937v7.140625c0 32.242188-6.445312 63.984375-17.808594 93.851563-4.242187 11.136719-6.613281 23.59375-6.613281 36.746093 0 47.441407 30.847656 85.898438 68.898437 85.898438 38.054688 0 68.902344-38.457031 68.902344-85.898438 0-13.152343-2.375-25.609374-6.613281-36.746093-11.363281-29.867188-17.808594-61.609375-17.808594-93.851563zm0 0" fill="#ffeacf"/><path d="m173.328125 387.257812c0-13.152343 2.375-25.609374 6.613281-36.746093 11.367188-29.867188 17.8125-61.609375 17.8125-93.851563v-7.140625c0-12.207031 5.734375-22.976562 14.476563-29.414062-5.382813-3.96875-11.910157-6.296875-18.945313-6.296875h-22.109375c-18.457031 0-33.421875 15.988281-33.421875 35.710937v7.140625c0 32.242188-6.445312 63.984375-17.8125 93.851563-4.238281 11.136719-6.613281 23.59375-6.613281 36.746093 0 47.441407 30.851563 85.898438 68.902344 85.898438 10.753906 0 20.929687-3.074219 30-8.550781-23.023438-13.90625-38.902344-43.316407-38.902344-77.347657zm0 0" fill="#ffd59a"/><path d="m360.460938 152.894531c-4.933594-21.601562-20.910157-62.796875-72.550782-108.707031-23.246094-26.703125-61.90625-44.18359375-105.679687-44.18359375-38.671875 0-73.351563 13.64062475-96.941407 35.23046875-86.351562 71.1875-85.210937 133.589844-85.210937 133.589844h.160156c-.097656 1.269531-.160156 2.539062-.160156 3.820312 0 52.695313 81.554687 95.410157 182.152344 95.410157 100.597656 0 182.148437-42.714844 182.148437-95.410157 0-6.769531-1.355468-13.375-3.917968-19.75zm0 0" fill="#a56021"/><path d="m346.378906 178.644531c-3.3125 0-6-2.6875-6-6 0-3.554687-.734375-7.191406-2.183594-10.796875l-.535156-1.320312c-.117187-.292969-.207031-.59375-.28125-.902344l-.316406-1.382812c-4.09375-17.921876-17.996094-54.238282-65.097656-96.117188l-.863282-.765625c-.191406-.167969-.371093-.347656-.535156-.542969l-.757812-.867187c-2.179688-2.5-1.921875-6.289063.578125-8.464844 2.496093-2.179687 6.289062-1.921875 8.464843.578125l1.082032 1.09375c49.601562 44.097656 64.414062 83.089844 68.824218 102.410156l.210938.925782.355469.878906c2.023437 5.035156 3.050781 10.175781 3.050781 15.273437.003906 3.3125-2.679688 6-5.996094 6zm0 0" fill="#bf6c0d"/><g fill="#8c4c17"><path d="m60.078125 172.644531c0-1.277343.0625-2.550781.160156-3.820312h-.160156s-1.144531-62.402344 85.210937-133.589844c17.285157-15.820313 40.53125-27.363281 66.933594-32.410156-9.625-1.839844-19.664062-2.824219-29.992187-2.824219-38.671875 0-73.351563 13.640625-96.941407 35.230469-86.351562 71.191406-85.210937 133.59375-85.210937 133.59375h.160156c-.097656 1.269531-.160156 2.542969-.160156 3.820312 0 52.695313 81.554687 95.410157 182.152344 95.410157 10.21875 0 20.238281-.449219 30-1.292969-86.324219-7.496094-152.152344-46.777344-152.152344-94.117188zm0 0"/><path d="m106.15625 172.644531c0 9.667969-7.835938 17.5-17.5 17.5s-17.5-7.832031-17.5-17.5c0-9.664062 7.835938-17.5 17.5-17.5s17.5 7.835938 17.5 17.5zm0 0"/><path d="m143.085938 213.804688c0 9.667968-7.835938 17.5-17.5 17.5-9.664063 0-17.5-7.832032-17.5-17.5 0-9.664063 7.835937-17.5 17.5-17.5 9.664062 0 17.5 7.835937 17.5 17.5zm0 0"/></g></svg>