<svg height="480pt" viewBox="0 0 480 480.82804" width="480pt" xmlns="http://www.w3.org/2000/svg"><path d="m293.773438 122.109375c-3.664063 2.761719-8.988282.492187-9.523438-4.0625-.128906-1.113281-.269531-2.230469-.421875-3.355469-7.472656-54.917968-39.269531-102.945312-71.015625-107.261718-27.304688-3.71875-45.679688 26.113281-45.527344 69.480468.019532 5.769532-7.28125 8.269532-10.765625 3.671875-6.65625-8.773437-14.257812-17.511719-22.714843-25.96875-47.125-47.125-102.960938-67.691406-124.714844-45.9375-21.753906 21.753907-1.1875 77.59375 45.9375 124.714844 7.957031 7.960937 16.164062 15.160156 24.417968 21.53125 4.492188 3.464844 2.09375 10.648437-3.578124 10.730469-41.902344.605468-70.425782 18.777344-66.789063 45.515625 4.320313 31.742187 52.34375 63.539062 107.261719 71.011719 1.746094.238281 3.476562.449218 5.195312.628906 4.871094.519531 7.140625 6.421875 3.78125 9.992187-6.734375 7.152344-9.914062 16-8.546875 26.058594 4.320313 31.746094 52.34375 63.539063 107.265625 71.011719 30.796875 4.191406 57.222656-.15625 73.734375-10.382813 21.484375 18.679688 54.070313 17.8125 74.511719-2.628906l4.992188-4.992187c19.761718-19.761719 21.226562-50.875 4.425781-72.335938 12.355469-16.351562 16.878906-45.894531 10.171875-80.410156-10.570313-54.410156-45.03125-100.558594-76.96875-103.074219-8.042969-.636719-15.15625 1.558594-21.128906 6.0625zm-102.273438 151.324219c-1.367188-.050782-2.722656-.082032-4.070312-.097656.863281-.472657 1.695312-.960938 2.511718-1.460938zm81.0625-83.632813c.289062-.429687.566406-.867187.84375-1.3125.050781.769531.105469 1.542969.164062 2.320313zm0 0" fill="#ccc033"/><g fill="#fcda4f"><path d="m471.242188 480.828125c-2.558594 0-5.121094-.976563-7.070313-2.929687l-307.410156-307.40625c-3.902344-3.90625-3.902344-10.238282 0-14.140626 3.902343-3.90625 10.238281-3.90625 14.140625 0l307.410156 307.40625c3.90625 3.90625 3.90625 10.238282 0 14.140626-1.949219 1.953124-4.511719 2.929687-7.070312 2.929687zm0 0"/><path d="m169.539062 226.855469c-22.121093 0-42.519531-7.160157-43.921874-7.660157-3.121094-1.121093-4.742188-4.554687-3.628907-7.671874 1.117188-3.121094 4.542969-4.746094 7.667969-3.628907.503906.179688 50.738281 17.757813 73.179688-3.542969 13.453124-12.761718 14.773437-37.648437 3.925781-73.960937-.949219-3.175781.855469-6.519531 4.03125-7.464844 3.171875-.953125 6.519531.855469 7.464843 4.03125 12.25 41.015625 9.835938 69.992188-7.183593 86.117188-11.148438 10.566406-26.726563 13.78125-41.535157 13.78125zm0 0"/><path d="m275.605469 332.921875c-22.121094 0-42.523438-7.160156-43.921875-7.660156-3.121094-1.121094-4.742188-4.554688-3.628906-7.671875 1.117187-3.121094 4.542968-4.746094 7.667968-3.628906.507813.179687 50.734375 17.757812 73.179688-3.542969 13.453125-12.765625 14.773437-37.648438 3.925781-73.960938-.949219-3.171875.859375-6.515625 4.035156-7.464843 3.175781-.949219 6.515625.855468 7.460938 4.03125 12.253906 41.015624 9.835937 69.992187-7.179688 86.117187-11.152343 10.566406-26.734375 13.78125-41.539062 13.78125zm0 0"/></g><path d="m372.96875 225.675781c-2.734375 0-5.203125-1.878906-5.839844-4.65625-5.230468-22.671875-15.261718-44.078125-28.25-60.269531-10.347656-12.898438-21.8125-21.128906-29.917968-21.488281-3.3125-.144531-5.878907-2.949219-5.730469-6.257813.144531-3.308594 2.933593-5.867187 6.257812-5.730468 11.804688.519531 25.925781 9.984374 38.75 25.964843 14.097657 17.574219 24.957031 40.6875 30.582031 65.085938.746094 3.226562-1.269531 6.449219-4.5 7.195312-.449218.105469-.90625.15625-1.351562.15625zm0 0" fill="#eacf32"/><path d="m122.214844 78.917969c0 9.664062-7.835938 17.5-17.5 17.5-9.664063 0-17.5-7.835938-17.5-17.5 0-9.664063 7.835937-17.5 17.5-17.5 9.664062 0 17.5 7.835937 17.5 17.5zm0 0" fill="#99af17"/><path d="m196.789062 263.207031c0 9.664063-7.835937 17.5-17.5 17.5-9.667968 0-17.5-7.835937-17.5-17.5 0-9.664062 7.832032-17.5 17.5-17.5 9.664063 0 17.5 7.835938 17.5 17.5zm0 0" fill="#99af17"/><path d="m178.285156 325.21875c-1.367187-10.058594 1.816406-18.902344 8.546875-26.058594 3.359375-3.566406 1.089844-9.46875-3.78125-9.988281-1.71875-.183594-3.445312-.390625-5.191406-.628906-54.921875-7.476563-102.945313-39.269531-107.265625-71.015625-3.636719-26.734375 24.886719-44.910156 66.789062-45.511719 5.671876-.082031 8.070313-7.269531 3.578126-10.734375-8.25-6.367188-16.460938-13.566406-24.417969-21.527344-47.125-47.125-67.6875-102.960937-45.933594-124.714844 1.355469-1.355468 2.847656-2.550781 4.460937-3.582031-28.046874-13.6875-53.042968-15.722656-65.980468-2.78125-21.753906 21.753907-1.1875 77.589844 45.9375 124.714844 7.957031 7.960937 16.164062 15.160156 24.414062 21.527344 4.492188 3.464843 2.097656 10.648437-3.578125 10.730469-41.902343.605468-70.425781 18.78125-66.789062 45.515624 4.320312 31.746094 52.34375 63.539063 107.265625 71.015626 1.742187.238281 3.476562.445312 5.191406.628906 4.875.515625 7.140625 6.417968 3.785156 9.988281-6.734375 7.15625-9.917968 16.003906-8.546875 26.058594 4.316407 31.746093 52.34375 63.539062 107.261719 71.015625 12.816406 1.742187 24.871094 2.003906 35.773438.980468-43.453126-12.300781-77.890626-38.976562-81.519532-65.632812zm0 0" fill="#99af17"/></svg>