<svg height="483pt" viewBox="-1 0 483 483.99816" width="483pt" xmlns="http://www.w3.org/2000/svg"><path d="m69.058594 76.386719c-7.519532-10.695313-23.996094-8.035157-27.890625 4.445312-20.367188 65.273438-11.417969 138.992188 30.726562 198.929688l75.871094 107.898437c42.148437 59.941406 108.527344 93.339844 176.886719 96.320313 13.070312.570312 21.160156-14.015625 13.640625-24.710938zm0 0" fill="#ccc033"/><path d="m202.085938 397.140625-75.875-107.898437c-38.503907-54.757813-49.28125-121.011719-35.332032-181.824219l-21.820312-31.03125c-7.519532-10.695313-23.996094-8.035157-27.890625 4.445312-20.367188 65.273438-11.417969 138.992188 30.726562 198.929688l75.871094 107.898437c41.679687 59.277344 107.0625 92.578125 174.625 96.191406-47.121094-14.207031-89.984375-43.589843-120.304687-86.710937zm0 0" fill="#99af17"/><path d="m190.351562 277.863281c-13.625-19.246093-38.644531-24.957031-55.882812-12.757812-17.242188 12.203125-20.171875 37.699219-6.546875 56.945312 13.621094 19.25 38.640625 24.960938 55.882813 12.757813 17.238281-12.199219 20.167968-37.695313 6.546874-56.945313zm0 0" fill="#fcda4f"/><path d="m130.933594 193.355469c-11.699219-16.527344-33.183594-21.433594-47.988282-10.953125-14.804687 10.476562-17.324218 32.371094-5.625 48.898437 11.699219 16.527344 33.183594 21.433594 47.988282 10.953125 14.804687-10.476562 17.320312-32.371094 5.625-48.898437zm0 0" fill="#fcda4f"/><path d="m85.394531 128.59375c-7.488281-10.578125-21.238281-13.71875-30.714843-7.011719-9.472657 6.703125-11.082032 20.714844-3.597657 31.292969 7.488281 10.578125 21.238281 13.71875 30.710938 7.011719 9.476562-6.707031 11.085937-20.71875 3.601562-31.292969zm0 0" fill="#eacf32"/><path d="m248.972656 361.234375c-11.699218-16.527344-33.183594-21.429687-47.988281-10.953125-14.804687 10.480469-17.320313 32.371094-5.625 48.898438 11.699219 16.53125 33.183594 21.433593 47.988281 10.957031 14.804688-10.480469 17.324219-32.375 5.625-48.902344zm0 0" fill="#fcda4f"/><path d="m294.5625 426.074219c-7.484375-10.578125-21.234375-13.714844-30.710938-7.007813-9.472656 6.703125-11.085937 20.714844-3.597656 31.292969 7.488282 10.578125 21.238282 13.71875 30.710938 7.011719 9.476562-6.707032 11.085937-20.71875 3.597656-31.296875zm0 0" fill="#fcda4f"/><g fill="#eacf32"><path d="m148.21875 325.492188c-13.5625-19.289063-10.546875-44.765626 6.742188-56.902344 5.113281-3.589844 10.902343-5.597656 16.871093-6.164063-12.269531-5.558593-26.300781-5.070312-37.242187 2.609375-17.289063 12.136719-20.304688 37.613282-6.742188 56.90625 9.554688 13.582032 24.78125 20.464844 38.992188 19.113282-7.117188-3.226563-13.640625-8.480469-18.621094-15.5625zm0 0"/><path d="m97.625 234.757812c-11.644531-16.5625-9.054688-38.441406 5.789062-48.863281 3.972657-2.789062 8.421876-4.464843 13.027344-5.121093-10.859375-5.476563-23.578125-5.328126-33.394531 1.566406-14.847656 10.421875-17.4375 32.296875-5.789063 48.863281 8.53125 12.132813 22.335938 18.039063 34.945313 16.246094-5.5625-2.808594-10.632813-7.082031-14.578125-12.691407zm0 0"/><path d="m215.675781 402.636719c-11.648437-16.566407-9.058593-38.441407 5.785157-48.863281 3.972656-2.789063 8.421874-4.464844 13.027343-5.121094-10.859375-5.476563-23.574219-5.328125-33.394531 1.566406-14.84375 10.421875-17.433594 32.296875-5.789062 48.863281 8.535156 12.132813 22.335937 18.039063 34.945312 16.242188-5.558594-2.800781-10.632812-7.078125-14.574219-12.6875zm0 0"/><path d="m280.597656 453.851562c-7.457031-10.601562-5.796875-24.601562 3.703125-31.273437 1.4375-1.007813 2.976563-1.761719 4.566407-2.328125-7.570313-5.613281-17.535157-6.421875-24.9375-1.226562-9.5 6.671874-11.160157 20.671874-3.703126 31.273437 6.328126 9 17.183594 12.628906 26.132813 9.449219-2.148437-1.59375-4.113281-3.550782-5.761719-5.894532zm0 0"/></g><path d="m43.730469 67.753906c-11.992188-5.222656-24.679688 5.621094-21.5 18.300782 16.613281 66.324218 62.65625 124.621093 129.871093 153.875l120.992188 52.667968c67.210938 29.253906 141.289062 23.25 201.210938-9.761718 11.460937-6.3125 10.769531-22.972657-1.226563-28.195313zm0 0" fill="#fcda4f"/><path d="m433.75 266.058594c-.800781 0-1.613281-.160156-2.390625-.5l-192.21875-83.667969c-3.039063-1.320313-4.429687-4.855469-3.105469-7.894531 1.320313-3.039063 4.859375-4.433594 7.894532-3.109375l192.21875 83.667969c3.039062 1.324218 4.429687 4.859374 3.105468 7.898437-.984375 2.257813-3.1875 3.605469-5.503906 3.605469zm0 0" fill="#fff4c1"/><path d="m312.972656 264.597656-120.992187-52.667968c-60.234375-26.21875-103.453125-75.765626-123.738281-133.503907l-24.511719-10.671875c-11.992188-5.222656-24.679688 5.617188-21.5 18.300782 16.613281 66.324218 62.65625 124.617187 129.871093 153.871093l120.992188 52.667969c67.210938 29.257812 141.289062 23.25 201.210938-9.761719 5.410156-2.976562 8.109374-8.265625 8.191406-13.5625-53.226563 19.582031-113.738282 19.613281-169.523438-4.671875zm0 0" fill="#eacf32"/><path d="m189.199219 292.980469c0-11.09375-9-20.085938-20.101563-20.085938-11.105468 0-20.105468 8.992188-20.105468 20.085938s9 20.085937 20.105468 20.085937c11.101563 0 20.101563-8.992187 20.101563-20.085937zm0 0" fill="#fce575"/><path d="m50.171875 55.085938-22.464844 11.722656-25.714843-48.1875c-3.3125-6.210938-.921876-13.925782 5.316406-17.179688 6.164062-3.21875 13.773437-.867187 17.046875 5.265625zm0 0" fill="#ccc033"/><path d="m15.574219 20.988281c-3.3125-6.207031-.925781-13.925781 5.3125-17.179687.300781-.15625.601562-.285156.90625-.417969-3.824219-3.546875-9.601563-4.5-14.484375-1.953125-6.242188 3.257812-8.628906 10.972656-5.316406 17.179688l25.710937 48.1875 9.636719-5.023438zm0 0" fill="#99af17"/><path d="m115.140625 70.671875c-15.5625-29.171875-52.007813-40.386719-81.398437-25.050781-29.390626 15.332031-40.601563 51.410156-25.035157 80.578125l11.152344 20.902343c29.390625-15.332031 40.601563-51.410156 25.039063-80.578124 15.5625 29.167968 52.003906 40.382812 81.394531 25.050781zm0 0" fill="#ccc033"/><path d="m29.078125 129.75c-15.566406-29.167969-4.359375-65.242188 25.035156-80.574219 8.976563-4.6875 18.609375-6.878906 28.105469-6.855469-15.371094-5.492187-32.910156-4.820312-48.472656 3.300782-29.394532 15.332031-40.605469 51.410156-25.039063 80.578125l11.152344 20.902343c5.011719-2.613281 9.480469-5.839843 13.390625-9.527343zm0 0" fill="#99af17"/><path d="m100.96875 68.542969c0-11.09375-9-20.085938-20.105469-20.085938-11.101562 0-20.101562 8.992188-20.101562 20.085938s9 20.085937 20.101562 20.085937c11.105469 0 20.105469-8.992187 20.105469-20.085937zm0 0" fill="#99af17"/><path d="m151.59375 137.097656c0-11.09375-9-20.085937-20.101562-20.085937-11.105469 0-20.105469 8.992187-20.105469 20.085937s9 20.085938 20.105469 20.085938c11.101562 0 20.101562-8.992188 20.101562-20.085938zm0 0" fill="#ccc033"/></svg>