<svg height="472pt" viewBox="-105 0 472 472.55325" width="472pt" xmlns="http://www.w3.org/2000/svg"><path d="m54.128906 241.351562c-11.441406-9.308593-13.164062-26.128906-3.855468-37.566406l137.570312-169.015625c17.230469-21.171875 48.367188-24.363281 69.539062-7.132812 1.703126 1.386719 1.960938 3.894531.574219 5.601562l-166.261719 204.261719c-9.308593 11.4375-26.128906 13.164062-37.566406 3.851562zm0 0" fill="#fce575"/><path d="m50.273438 233.785156 137.570312-169.015625c13.941406-17.128906 36.976562-22.484375 56.476562-14.78125l13.636719-16.75c1.386719-1.707031 1.128907-4.214843-.574219-5.601562-21.171874-17.230469-52.304687-14.039063-69.539062 7.132812l-137.570312 169.015625c-7.628907 9.371094-7.84375 22.355469-1.378907 31.863282.429688-.632813.882813-1.257813 1.378907-1.863282zm0 0" fill="#ffd551"/><path d="m209.855469 240.933594-.597657.507812c-11.050781 9.4375-27.660156 8.125-37.09375-2.925781l-143.355468-167.921875c-17.613282-20.628906-15.167969-51.632812 5.460937-69.242188l.601563-.511718c1.472656-1.257813 3.6875-1.082032 4.945312.390625l172.964844 202.605469c9.4375 11.050781 8.125 27.660156-2.925781 37.097656zm0 0" fill="#fce575"/><path d="m202.164062 238.515625-143.355468-167.921875c-13.355469-15.644531-15.167969-37.25-6.269532-54.460938l-12.726562-14.902343c-1.257812-1.472657-3.472656-1.648438-4.945312-.390625l-.597657.511718c-20.628906 17.609376-23.078125 48.613282-5.464843 69.242188l143.355468 167.921875c8.859375 10.375 24.042969 12.164063 35.007813 4.535156-1.816407-1.261719-3.5-2.773437-5.003907-4.535156zm0 0" fill="#ffd551"/><path d="m130.058594 181.882812c-18.648438 0-33.820313-15.171874-33.820313-33.816406 0-18.644531 15.171875-33.816406 33.820313-33.816406 18.644531 0 33.816406 15.171875 33.816406 33.816406 0 18.644532-15.171875 33.816406-33.816406 33.816406zm0 0" fill="#db9c2e"/><path d="m130.058594 169.882812c-12.03125 0-21.820313-9.789062-21.820313-21.816406s9.789063-21.816406 21.820313-21.816406c12.027344 0 21.816406 9.789062 21.816406 21.816406s-9.789062 21.816406-21.816406 21.816406zm0 0" fill="#ffd551"/><path d="m76.355469 197.613281c-15.976563-2.691406-31.210938 7.507813-34.03125 22.78125l-41.734375 226.320313c-1.953125 10.585937 5.4375 20.675781 16.507812 22.542968l17.773438 2.996094c11.066406 1.867188 21.621094-5.199218 23.574218-15.785156l41.738282-226.316406c2.816406-15.277344-7.851563-29.84375-23.828125-32.539063zm0 0" fill="#ff624b"/><path d="m186.445312 197.613281c15.976563-2.691406 31.214844 7.507813 34.03125 22.78125l41.738282 226.320313c1.953125 10.585937-5.441406 20.675781-16.507813 22.542968l-17.773437 2.996094c-11.066406 1.867188-21.621094-5.199218-23.574219-15.785156l-41.738281-226.316406c-2.820313-15.277344 7.847656-29.84375 23.824218-32.539063zm0 0" fill="#ff624b"/><path d="m27.589844 467.714844 41.738281-226.320313c2.597656-14.097656 15.78125-23.867187 30.359375-23.167969-2.800781-10.308593-11.640625-18.640624-23.332031-20.609374-15.976563-2.695313-31.210938 7.503906-34.03125 22.78125l-41.734375 226.316406c-1.953125 10.585937 5.4375 20.675781 16.507812 22.542968l10.203125 1.71875c.007813-1.074218.085938-2.164062.289063-3.261718zm0 0" fill="#ff4b34"/><path d="m249.011719 439.429688c0 9.664062-7.832031 17.5-17.5 17.5-9.664063 0-17.5-7.835938-17.5-17.5 0-9.664063 7.835937-17.5 17.5-17.5 9.667969 0 17.5 7.835937 17.5 17.5zm0 0" fill="#ff4b34"/><path d="m237.167969 398.289062c-2.835938 0-5.359375-2.023437-5.894531-4.914062l-21.839844-118.429688c-.601563-3.257812 1.554687-6.386718 4.8125-6.988281 3.25-.597656 6.386718 1.554688 6.988281 4.8125l21.839844 118.429688c.601562 3.257812-1.554688 6.390625-4.8125 6.988281-.363281.066406-.730469.101562-1.09375.101562zm0 0" fill="#ff9079"/><path d="m112.484375 113.863281c-1.695313 0-3.378906-.714843-4.566406-2.105469l-48.808594-57.167968c-2.148437-2.519532-1.851563-6.308594.667969-8.457032 2.523437-2.152343 6.308594-1.855468 8.460937.667969l48.804688 57.164063c2.148437 2.523437 1.851562 6.308594-.667969 8.460937-1.128906.964844-2.515625 1.4375-3.890625 1.4375zm0 0" fill="#fff4c1"/><path d="m123.238281 148.066406c0-9.394531 5.972657-17.425781 14.320313-20.488281-2.339844-.859375-4.867188-1.328125-7.5-1.328125-12.03125 0-21.820313 9.789062-21.820313 21.816406s9.789063 21.816406 21.820313 21.816406c2.632812 0 5.160156-.46875 7.5-1.328124-8.347656-3.0625-14.320313-11.09375-14.320313-20.488282zm0 0" fill="#ffc34c"/></svg>