<svg height="439.999pt" viewBox="1 1 439.999 439.999" width="439.999pt" xmlns="http://www.w3.org/2000/svg"><path d="m45.242188 263.691406 131.066406 131.066406c60.324218 60.320313 158.125 60.320313 218.449218 0 60.320313-60.324218 60.320313-158.125 0-218.449218l-131.066406-131.066406c-60.324218-60.324219-158.125-60.324219-218.449218 0-60.324219 60.320312-60.324219 158.125 0 218.449218zm0 0" fill="#ffa730"/><path d="m382.03125 195.039062c-1.535156 0-3.070312-.585937-4.242188-1.757812l-131.070312-131.070312c-2.34375-2.34375-2.34375-6.144532 0-8.484376 2.34375-2.34375 6.140625-2.34375 8.484375 0l131.070313 131.070313c2.34375 2.339844 2.34375 6.140625 0 8.484375-1.171876 1.171875-2.707032 1.757812-4.242188 1.757812zm0 0" fill="#ffb74b"/><path d="m19.027344 185.046875 131.066406 131.070313c60.324219 60.320312 158.125 60.320312 218.449219 0 32.136719-32.140626 47.152343-74.917969 45.042969-116.996094 40.644531 60.085937 34.375 142.433594-18.828126 195.636718-60.324218 60.320313-158.125 60.320313-218.449218 0l-131.066406-131.066406c-28.183594-28.1875-43.195313-64.550781-45.042969-101.453125 5.4375 8.042969 11.707031 15.6875 18.828125 22.808594zm0 0" fill="#e58d23"/><g fill="#a56021"><path d="m265.894531 181.597656c-1.023437 0-2.046875-.386718-2.828125-1.171875-1.5625-1.558593-1.5625-4.09375 0-5.652343l33.207032-33.207032c1.558593-1.5625 4.09375-1.5625 5.652343 0 1.5625 1.5625 1.5625 4.09375 0 5.65625l-33.203125 33.203125c-.777344.78125-1.804687 1.171875-2.828125 1.171875zm0 0"/><path d="m187.253906 155.382812c-1.023437 0-2.046875-.390624-2.828125-1.171874-1.5625-1.5625-1.5625-4.09375 0-5.65625l33.203125-33.203126c1.5625-1.5625 4.09375-1.5625 5.65625 0s1.5625 4.09375 0 5.65625l-33.203125 33.203126c-.78125.78125-1.804687 1.171874-2.828125 1.171874zm0 0"/><path d="m161.042969 76.742188c-1.027344 0-2.046875-.390626-2.828125-1.171876-1.5625-1.5625-1.5625-4.09375 0-5.65625l33.203125-33.203124c1.558593-1.5625 4.09375-1.5625 5.65625 0s1.5625 4.09375 0 5.65625l-33.203125 33.203124c-.78125.78125-1.804688 1.171876-2.828125 1.171876zm0 0"/><path d="m82.398438 207.8125c-1.023438 0-2.046876-.390625-2.828126-1.171875-1.5625-1.5625-1.5625-4.09375 0-5.65625l33.207032-33.203125c1.558594-1.5625 4.09375-1.5625 5.652344 0 1.5625 1.558594 1.5625 4.09375 0 5.652344l-33.203126 33.207031c-.777343.78125-1.804687 1.171875-2.828124 1.171875zm0 0"/><path d="m108.613281 286.453125c-1.023437 0-2.046875-.390625-2.828125-1.171875-1.5625-1.5625-1.5625-4.09375 0-5.65625l33.203125-33.203125c1.5625-1.5625 4.09375-1.5625 5.65625 0s1.5625 4.09375 0 5.65625l-33.203125 33.203125c-.78125.78125-1.804687 1.171875-2.828125 1.171875zm0 0"/><path d="m213.46875 286.453125c-1.023438 0-2.050781-.390625-2.828125-1.171875-1.5625-1.5625-1.5625-4.09375 0-5.65625l33.203125-33.203125c1.5625-1.5625 4.097656-1.5625 5.65625 0 1.5625 1.5625 1.5625 4.09375 0 5.65625l-33.203125 33.203125c-.78125.78125-1.804687 1.171875-2.828125 1.171875zm0 0"/><path d="m213.46875 391.308594c-1.023438 0-2.050781-.390625-2.828125-1.171875-1.5625-1.5625-1.5625-4.09375 0-5.65625l33.203125-33.207031c1.5625-1.5625 4.097656-1.5625 5.65625 0 1.5625 1.5625 1.5625 4.09375 0 5.65625l-33.203125 33.207031c-.78125.78125-1.804687 1.171875-2.828125 1.171875zm0 0"/><path d="m357.644531 247.132812c-1.023437 0-2.046875-.390624-2.828125-1.171874-1.5625-1.5625-1.5625-4.09375 0-5.65625l33.203125-33.207032c1.5625-1.558594 4.09375-1.558594 5.65625 0 1.5625 1.5625 1.5625 4.097656 0 5.65625l-33.203125 33.207032c-.78125.78125-1.804687 1.171874-2.828125 1.171874zm0 0"/><path d="m331.429688 378.203125c-1.023438 0-2.046876-.390625-2.828126-1.171875-1.5625-1.5625-1.5625-4.097656 0-5.65625l33.207032-33.207031c1.5625-1.558594 4.09375-1.558594 5.65625 0 1.5625 1.5625 1.5625 4.09375 0 5.65625l-33.207032 33.207031c-.78125.777344-1.804687 1.171875-2.828124 1.171875zm0 0"/><path d="m64.050781 110.820312c-1.023437 0-2.046875-.390624-2.828125-1.171874-1.5625-1.5625-1.5625-4.09375 0-5.65625l33.203125-33.203126c1.558594-1.5625 4.09375-1.5625 5.65625 0 1.5625 1.558594 1.5625 4.09375 0 5.65625l-33.203125 33.203126c-.78125.78125-1.804687 1.171874-2.828125 1.171874zm0 0"/></g><path d="m49.316406 152.386719c0 9.664062-7.835937 17.5-17.5 17.5-9.664062 0-17.5-7.835938-17.5-17.5 0-9.667969 7.835938-17.5 17.5-17.5 9.664063 0 17.5 7.832031 17.5 17.5zm0 0" fill="#e58d23"/><path d="m310.316406 328.222656c0 9.664063-7.835937 17.5-17.5 17.5-9.664062 0-17.5-7.835937-17.5-17.5 0-9.664062 7.835938-17.5 17.5-17.5 9.664063 0 17.5 7.835938 17.5 17.5zm0 0" fill="#e58d23"/></svg>