<svg height="479pt" viewBox="-90 0 479 479.99973" width="479pt" xmlns="http://www.w3.org/2000/svg"><path d="m151.148438 136.675781-5.671876 91.953125c-.300781 4.9375 6.613282 8.105469 11.96875 5.484375l98.367188-48.191406c13.097656.257813 25.960938-4.953125 32.972656-14.457031 8.828125-11.960938 5.484375-26.796875-7.015625-35.757813 4.539063-3 8.507813-6.652343 11.648438-10.910156 14.984375-20.304687 5.433593-46.421875-21.457031-57.339844-23.917969-9.714843-53.726563-3.589843-68.457032 14.0625-4.023437 4.824219-6.582031 10.027344-7.796875 15.316407-16.167969-3.988282-34.269531 1.164062-43.097656 13.125-6.269531 8.496093-6.394531 18.449218-1.460937 26.714843zm0 0" fill="#ccc033"/><path d="m229.195312 67.5625c.359376-.773438.691407-1.558594 1.003907-2.351562-10.648438 2.914062-20.15625 8.472656-26.695313 16.308593-4.023437 4.824219-6.582031 10.027344-7.796875 15.316407-16.167969-3.988282-34.269531 1.164062-43.097656 13.125-6.273437 8.5-6.394531 18.449218-1.460937 26.714843l-4.386719 71.183594 15.734375 23.207031c.097656.148438.21875.273438.328125.410156l24.035156-11.773437 58.371094-88.703125c11.667969-6.386719 19.308593-16.96875 19.308593-28.957031 0-16.871094-15.121093-30.972657-35.34375-34.480469zm0 0" fill="#99af17"/><path d="m148.394531 109.960938c-8.828125-11.960938-26.929687-17.113282-43.097656-13.125-1.214844-5.289063-3.773437-10.496094-7.796875-15.316407-14.730469-17.652343-44.542969-23.777343-68.457031-14.0625-26.894531 10.917969-36.445313 37.035157-21.457031 57.339844 3.140624 4.257813 7.109374 7.910156 11.648437 10.910156-12.5 8.960938-15.847656 23.800781-7.019531 35.757813 7.011718 9.5 19.875 14.710937 32.972656 14.457031l98.371094 48.191406c5.355468 2.621094 12.269531-.546875 11.964844-5.484375l-5.667969-91.953125c4.933593-8.265625 4.8125-18.21875-1.460938-26.714843zm0 0" fill="#99af17"/><path d="m246.539062 102.042969c0-16.871094-15.121093-30.972657-35.34375-34.476563 2.84375-6.175781 4.203126-12.90625 3.710938-19.929687-1.800781-25.707031-28.554688-46.429688-61.4375-47.5820315-36.972656-1.2968755-67.46875 21.7656245-67.46875 50.4062505 0 6.003906 1.347656 11.761718 3.808594 17.101562-20.21875 3.507812-35.34375 17.609375-35.34375 34.476562 0 13.402344 9.539062 25.058594 23.59375 31.046876l66.4375 97.980468c3.617187 5.332032 13.40625 5.285156 16.9375-.082031l65.796875-99.984375c11.667969-6.386719 19.308593-16.972656 19.308593-28.957031zm0 0" fill="#eacf32"/><path d="m114.058594 133.085938c-14.054688-5.984376-23.59375-17.640626-23.59375-31.042969 0-16.871094 15.125-30.972657 35.34375-34.476563-2.460938-5.34375-3.808594-11.101562-3.808594-17.105468 0-22.980469 19.644531-42.355469 46.507812-48.453126-4.8125-1.101562-9.847656-1.773437-15.039062-1.9570308-36.972656-1.2929692-67.46875 21.7695308-67.46875 50.4101568 0 6.003906 1.347656 11.761718 3.808594 17.101562-20.21875 3.507812-35.34375 17.609375-35.34375 34.476562 0 13.402344 9.539062 25.058594 23.59375 31.046876l66.4375 97.980468c3.617187 5.332032 13.40625 5.285156 16.9375-.082031l9.363281-14.222656zm0 0" fill="#ccc033"/><path d="m211.941406 115.734375c-2.765625-1.828125-6.488281-1.066406-8.3125 1.699219-9.566406 14.472656-26.683594 23.984375-45.625 25.652344v-37.15625c17-1.773438 32.394532-10.550782 41.167969-23.828126 1.828125-2.765624 1.0625-6.488281-1.699219-8.316406-2.765625-1.824218-6.488281-1.066406-8.3125 1.699219-6.601562 9.984375-18.183594 16.703125-31.160156 18.375v-19.5625c0-4.144531-3.359375-7.5-7.5-7.5s-7.5 3.355469-7.5 7.5v19.210937c-13.519531-2.382812-25.121094-10.246093-30.820312-21.386718-1.507813-2.949219-5.125-4.117188-8.074219-2.609375-2.953125 1.507812-4.121094 5.125-2.609375 8.074219 7.703125 15.0625 23.457031 25.515624 41.503906 28.074218v37.082032c-19.808594-2.632813-37.023438-13.816407-45.292969-29.980469-1.507812-2.949219-5.121093-4.121094-8.074219-2.609375-2.949218 1.507812-4.117187 5.125-2.609374 8.074218 10.277343 20.089844 31.660156 33.835938 55.976562 36.597657v91.972656c0 4.140625 3.355469 7.5 7.5 7.5 4.140625 0 7.5-3.359375 7.5-7.5v-91.683594c22.949219-1.722656 43.890625-13.292969 55.636719-31.066406 1.828125-2.761719 1.070312-6.488281-1.695313-8.3125zm0 0" fill="#fce575"/><path d="m158.003906 233.90625v-36.015625l-15-22.121094v53.09375l1.492188 2.203125c2.753906 4.0625 9.082031 4.992188 13.507812 2.839844zm0 0" fill="#fcda4f"/><path d="m104.105469 69.511719c-2.949219 1.507812-4.117188 5.125-2.609375 8.074219.15625.304687.335937.59375.496094.890624 2.925781-2.546874 6.3125-4.761718 10.066406-6.5625-1.566406-2.789062-5.074219-3.875-7.953125-2.402343zm0 0" fill="#fcda4f"/><path d="m126.230469 151.035156-12.171875-17.949218c-11.347656-4.832032-19.742188-13.367188-22.558594-23.523438-.632812.089844-1.261719.285156-1.863281.589844-2.949219 1.507812-4.117188 5.125-2.609375 8.074218 7.828125 15.304688 22.101562 26.917969 39.203125 32.808594zm0 0" fill="#fcda4f"/><path d="m61.605469 469.433594c-2.945313 0-5.515625-2.167969-5.933594-5.167969-.460937-3.285156 1.828125-6.316406 5.109375-6.777344 3.242188-.453125 4.59375-2.238281 7.359375-6.851562 2.851563-4.761719 6.753906-11.28125 15.988281-12.570313 8.714844-1.222656 15.019532 4.117188 19.628906 8.011719 5.304688 4.480469 6.703126 5.132813 8.792969 4.050781.183594-.097656.277344-.171875.292969-.191406.53125-.933594-.316406-5.046875-.773438-7.253906-1.25-6.058594-2.804687-13.601563 2.183594-19.722656 5.394532-6.625 12.777344-5.921876 18.160156-5.410157 4.867188.464844 6.558594.378907 7.71875-1.039062 2.089844-2.570313 5.871094-2.957031 8.4375-.867188 2.570313 2.09375 2.960938 5.875.867188 8.441407-5.390625 6.625-12.773438 5.929687-18.160156 5.410156-4.863282-.464844-6.5625-.378906-7.71875 1.039062-1.386719 1.707032-.511719 5.964844.265625 9.722656 1.300781 6.320313 3.273437 15.871094-5.777344 20.535157-9.597656 4.945312-17.085937-1.367188-22.035156-5.550781-4.25-3.589844-7.054688-5.738282-10.222657-5.292969-3.242187.457031-4.59375 2.242187-7.359374 6.855469-2.851563 4.757812-6.753907 11.28125-15.988282 12.570312-.28125.039062-.5625.058594-.835937.058594zm0 0" fill="#ffd59a"/><path d="m191.113281 395.535156h-81.226562l31.644531 80.246094c2.183594 5.539062 12.152344 5.652344 14.542969.167969zm0 0" fill="#ff9079"/><path d="m139.890625 395.535156h-30l31.644531 80.246094c2.183594 5.539062 12.148438 5.652344 14.542969.167969l8.148437-18.707031zm0 0" fill="#ff624b"/><path d="m204.589844 473.667969c-.65625 0-1.332032-.042969-2.039063-.144531-8.753906-1.222657-11.179687-7.90625-12.78125-12.328126-1.160156-3.203124-1.910156-5.058593-3.804687-6.035156-1.042969-.535156-2.851563 0-5.492188.878906-3.902344 1.304688-11.175781 3.722657-16.523437-2.847656-4.890625-6.003906-1.796875-12.964844.246093-17.570312.707032-1.59375 1.878907-4.226563 1.839844-5.214844-1.910156-2.601562-1.476562-6.320312 1.0625-8.328125 2.574219-2.027344 6.246094-1.695313 8.316406.851563 4.886719 6.003906 1.792969 12.960937-.25 17.566406-.683593 1.535156-1.792968 4.035156-1.835937 5.101562.777344-.082031 2.296875-.589844 3.355469-.941406 3.652344-1.214844 9.175781-3.050781 14.78125-.160156 6.167968 3.179687 8.140625 8.625 9.585937 12.605468 1.5625 4.316407 1.902344 4.363282 3.164063 4.539063 1.332031.183594 2.542968-1.003906 5.371094-4.433594 3.226562-3.917969 8.109374-9.835937 16.292968-8.6875 3.28125.457031 5.570313 3.492188 5.109375 6.773438-.460937 3.28125-3.484375 5.578125-6.773437 5.109375-1.332032-.179688-2.542969 1.007812-5.371094 4.4375-2.949219 3.578125-7.28125 8.828125-14.253906 8.828125zm-38.480469-43.160157h.023437zm0 0" fill="#fff4c1"/><path d="m269.953125 321.804688c0-51.605469-53.480469-93.441407-119.449219-93.441407-65.972656 0-119.453125 41.835938-119.453125 93.441407 0 51.609374 53.480469 93.445312 119.453125 93.445312 65.96875 0 119.449219-41.835938 119.449219-93.445312zm0 0" fill="#ff624b"/><g fill="#ff4b34"><path d="m91.050781 321.804688c0-43.5 38-80.058594 89.453125-90.46875-9.585937-1.941407-19.640625-2.972657-30-2.972657-65.972656 0-119.453125 41.835938-119.453125 93.441407 0 51.609374 53.480469 93.449218 119.453125 93.449218 10.359375 0 20.414063-1.035156 30-2.976562-51.453125-10.410156-89.453125-46.96875-89.453125-90.472656zm0 0"/><path d="m155.535156 269.847656h-68c-3.3125 0-6-2.6875-6-6 0-3.316406 2.6875-6 6-6h68c3.316406 0 6 2.683594 6 6 0 3.3125-2.683594 6-6 6zm0 0"/><path d="m122.535156 323.847656h-68c-3.3125 0-6-2.6875-6-6 0-3.316406 2.6875-6 6-6h68c3.316406 0 6 2.683594 6 6 0 3.3125-2.683594 6-6 6zm0 0"/><path d="m155.535156 392.847656h-68c-3.3125 0-6-2.6875-6-6 0-3.316406 2.6875-6 6-6h68c3.316406 0 6 2.683594 6 6 0 3.3125-2.683594 6-6 6zm0 0"/><path d="m239.535156 299.847656h-68c-3.3125 0-6-2.6875-6-6 0-3.316406 2.6875-6 6-6h68c3.316406 0 6 2.683594 6 6 0 3.3125-2.683594 6-6 6zm0 0"/><path d="m242.535156 356.847656h-68c-3.3125 0-6-2.6875-6-6 0-3.316406 2.6875-6 6-6h68c3.316406 0 6 2.683594 6 6 0 3.3125-2.683594 6-6 6zm0 0"/></g><path d="m251.953125 327.804688c-3.316406 0-6-2.683594-6-6 0-17.417969-9.152344-34.167969-25.773437-47.171876-11.371094-8.894531-25.558594-15.484374-41.03125-19.0625-3.226563-.746093-5.238282-3.96875-4.492188-7.199218.746094-3.226563 3.964844-5.242188 7.199219-4.492188 17.167969 3.96875 32.976562 11.335938 45.714843 21.300782 19.59375 15.328124 30.378907 35.4375 30.378907 56.625.003906 3.316406-2.683594 6-5.996094 6zm0 0" fill="#ff9079"/><path d="m175.503906 30.6875c0 9.664062-7.835937 17.5-17.5 17.5-9.667968 0-17.5-7.835938-17.5-17.5 0-9.667969 7.832032-17.5 17.5-17.5 9.664063 0 17.5 7.832031 17.5 17.5zm0 0" fill="#ccc033"/><path d="m143.730469 350.847656c0 9.664063-7.832031 17.5-17.5 17.5-9.664063 0-17.5-7.835937-17.5-17.5 0-9.667968 7.835937-17.5 17.5-17.5 9.667969 0 17.5 7.832032 17.5 17.5zm0 0" fill="#ff4b34"/></svg>