<svg height="480pt" viewBox="-15 0 480 480" width="480pt" xmlns="http://www.w3.org/2000/svg"><path d="m119.636719 41.292969h305.894531v397.414062h-305.894531zm0 0" fill="#e58d23"/><path d="m407.179688 419.609375c-3.316407 0-6-2.6875-6-6v-120.265625c0-3.316406 2.683593-6 6-6 3.3125 0 6 2.683594 6 6v120.265625c0 3.3125-2.6875 6-6 6zm0 0" fill="#ffa730"/><path d="m429.328125 0h-313.488281c-7.605469 0-12.535156 8.226562-9.097656 15.183594l12.894531 26.109375h305.894531l12.894531-26.109375c3.4375-6.957032-1.492187-15.183594-9.097656-15.183594zm0 0" fill="#ffa730"/><path d="m394.941406 230.589844c0-69.3125-54.78125-125.5-122.355468-125.5-67.578126 0-122.359376 56.1875-122.359376 125.5 0 69.308594 54.78125 125.5 122.359376 125.5 67.574218 0 122.355468-56.191406 122.355468-125.5zm0 0" fill="#ccc033"/><path d="m364.355469 230.589844c0-51.984375-41.089844-94.125-91.769531-94.125-50.683594 0-91.773438 42.140625-91.773438 94.125 0 51.980468 41.089844 94.121094 91.773438 94.121094 50.679687 0 91.769531-42.140626 91.769531-94.121094zm0 0" fill="#ffd551"/><path d="m338.609375 240.945312h-19.402344c-1.535156-4.488281-5.480469-7.769531-10.203125-8.136718-.445312-6.070313-4.722656-11.015625-10.300781-12.183594.5625-1.515625.871094-3.15625.871094-4.878906 0-7.457032-5.765625-13.5-12.878907-13.5-.628906 0-1.246093.050781-1.851562.140625-.796875-6.65625-6.210938-11.800781-12.773438-11.800781-5.210937 0-9.695312 3.242187-11.722656 7.910156-2.027344-4.667969-6.511718-7.910156-11.722656-7.910156-5.28125 0-9.820312 3.335937-11.804688 8.105468-1.65625-.8125-3.503906-1.269531-5.457031-1.269531-7.109375 0-12.878906 6.042969-12.878906 13.503906 0 .703125.054687 1.398438.152344 2.074219-.414063.378906-.824219.761719-1.226563 1.152344-6.285156.894531-11.132812 6.542968-11.132812 13.378906 0 .71875.054687 1.425781.160156 2.113281-.425781.917969-.816406 1.851563-1.1875 2.800781-.28125-.019531-.5625-.035156-.851562-.035156-7.113282 0-12.878907 6.046875-12.878907 13.503906 0 4.882813 2.472657 9.15625 6.171875 11.527344h108.429688v.078125h32.484375c4.363281 0 7.902343-3.710937 7.902343-8.285156.003907-4.578125-3.535156-8.289063-7.898437-8.289063zm0 0" fill="#a56021"/><path d="m197.695312 257.4375h12.125c0-.003906 0-.011719 0-.015625 0-7.457031 5.769532-13.5 12.878907-13.5.285156 0 .570312.011719.851562.03125.371094-.945313.761719-1.882813 1.1875-2.800781-.105469-.6875-.160156-1.394532-.160156-2.113282 0-6.835937 4.851563-12.484374 11.136719-13.378906.402344-.390625.8125-.773437 1.226562-1.152344-.101562-.675781-.152344-1.371093-.152344-2.074218 0-7.460938 5.765626-13.503906 12.875-13.503906 1.953126 0 3.800782.457031 5.457032 1.269531 1.988281-4.769531 6.523437-8.105469 11.808594-8.105469 5.207031 0 9.691406 3.246094 11.71875 7.910156 1.722656-3.957031 5.210937-6.882812 9.410156-7.683594-.445313-.050781-.902344-.078124-1.359375-.078124-.628907 0-1.246094.050781-1.851563.140624-.800781-6.652343-6.210937-11.804687-12.777344-11.804687-5.207031 0-9.691406 3.246094-11.71875 7.914063-2.03125-4.667969-6.511718-7.914063-11.722656-7.914063-5.28125 0-9.820312 3.335937-11.808594 8.109375-1.65625-.8125-3.503906-1.269531-5.453124-1.269531-7.113282 0-12.878907 6.046875-12.878907 13.503906 0 .703125.050781 1.394531.152344 2.074219-.414063.378906-.824219.761718-1.226563 1.152344-6.289062.894531-11.132812 6.542968-11.132812 13.378906 0 .71875.054688 1.425781.15625 2.113281-.421875.917969-.816406 1.851563-1.183594 2.800781-.285156-.019531-.566406-.035156-.855468-.035156-7.109376 0-12.875 6.046875-12.875 13.503906 0 4.882813 2.472656 9.15625 6.171874 11.527344zm0 0" fill="#8c4c17"/><path d="m119.636719 41.292969h61.179687v397.414062h-61.179687zm0 0" fill="#bf6c0d"/><path d="m177.015625 0h-61.179687c-7.605469 0-12.53125 8.226562-9.097657 15.183594l12.894531 26.109375h61.179688l-12.890625-26.109375c-3.4375-6.957032 1.492187-15.183594 9.09375-15.183594zm0 0" fill="#e58d23"/><path d="m180.8125 147.589844c-19.03125 22.121094-30.589844 51.171875-30.589844 83 0 31.820312 11.558594 60.875 30.589844 83zm0 0" fill="#99af17"/><path d="m115.839844 480h313.488281c7.605469 0 12.535156-8.226562 9.097656-15.183594l-12.894531-26.109375h-305.894531l-12.894531 26.109375c-3.4375 6.957032 1.492187 15.183594 9.097656 15.183594zm0 0" fill="#ffa730"/><path d="m427.0625 432.9375h-56.339844c-4.453125-12.75-15.910156-22.074219-29.617187-23.109375-1.300781-17.242187-13.710938-31.292969-29.90625-34.609375 1.625-4.296875 2.523437-8.964844 2.523437-13.851562 0-21.179688-16.738281-38.351563-37.390625-38.351563-1.824219 0-3.621093.140625-5.375.398437-2.316406-18.898437-18.03125-33.523437-37.085937-33.523437-15.128906 0-28.144532 9.21875-34.03125 22.472656-5.890625-13.253906-18.90625-22.472656-34.035156-22.472656-15.335938 0-28.511719 9.476563-34.277344 23.03125-4.8125-2.3125-10.175782-3.613281-15.839844-3.613281-20.652344 0-37.394531 17.171875-37.394531 38.351562 0 2.003906.152343 3.972656.441406 5.894532-1.203125 1.078124-2.390625 2.167968-3.558594 3.277343-18.253906 2.535157-32.328125 18.570313-32.328125 37.988281 0 2.046876.160156 4.054688.460938 6.011719-1.230469 2.609375-2.371094 5.261719-3.445313 7.945313-.816406-.054688-1.640625-.089844-2.472656-.089844-20.648437 0-37.390625 17.167969-37.390625 38.351562 0 13.863282 7.175781 26.003907 17.921875 32.742188h314.820313v.21875h94.320312c12.667969 0 22.941406-10.535156 22.941406-23.53125s-10.273437-23.53125-22.941406-23.53125zm0 0" fill="#a56021"/><path d="m17.925781 479.777344h35.207031c0-.015625-.003906-.03125-.003906-.046875 0-21.179688 16.742188-38.351563 37.394532-38.351563.832031 0 1.652343.035156 2.46875.089844 1.074218-2.683594 2.214843-5.335938 3.445312-7.945312-.300781-1.957032-.460938-3.964844-.460938-6.007813 0-19.417969 14.074219-35.457031 32.328126-37.992187 1.167968-1.113282 2.355468-2.203126 3.558593-3.277344-.289062-1.921875-.4375-3.890625-.4375-5.894532 0-21.179687 16.738281-38.347656 37.390625-38.347656 5.664063 0 11.03125 1.296875 15.839844 3.609375 5.765625-13.554687 18.941406-23.027343 34.277344-23.027343 15.125 0 28.144531 9.214843 34.03125 22.46875 4.996094-11.242188 15.128906-19.554688 27.316406-21.828126-1.300781-.136718-2.617188-.210937-3.949219-.210937-1.824219 0-3.621093.136719-5.375.398437-2.316406-18.898437-18.027343-33.523437-37.085937-33.523437-15.125 0-28.144532 9.21875-34.03125 22.46875-5.886719-13.25-18.90625-22.46875-34.03125-22.46875-15.339844 0-28.511719 9.476563-34.277344 23.027344-4.8125-2.3125-10.175781-3.609375-15.839844-3.609375-20.652344 0-37.394531 17.167968-37.394531 38.347656 0 2.003906.152344 3.972656.441406 5.894531-1.203125 1.074219-2.390625 2.164063-3.558593 3.277344-18.253907 2.535156-32.328126 18.574219-32.328126 37.992187 0 2.042969.160157 4.050782.460938 6.007813-1.226562 2.609375-2.371094 5.261719-3.445312 7.949219-.816407-.054688-1.640626-.09375-2.472657-.09375-20.648437 0-37.39062475 17.171875-37.39062475 38.351562 0 13.863282 7.17578175 26.007813 17.92187475 32.742188zm0 0" fill="#8c4c17"/><path d="m150.777344 424.046875c0 9.667969-7.835938 17.5-17.5 17.5-9.667969 0-17.5-7.832031-17.5-17.5 0-9.664063 7.832031-17.5 17.5-17.5 9.664062 0 17.5 7.835937 17.5 17.5zm0 0" fill="#8c4c17"/><path d="m225.335938 70.054688c0 9.667968-7.835938 17.5-17.5 17.5-9.664063 0-17.5-7.832032-17.5-17.5 0-9.664063 7.835937-17.5 17.5-17.5 9.664062 0 17.5 7.835937 17.5 17.5zm0 0" fill="#bf6c0d"/></svg>