<svg height="481pt" viewBox="-84 0 481 481.1319" width="481pt" xmlns="http://www.w3.org/2000/svg"><path d="m209.488281 436.304688c-1.3125 0-2.703125-.09375-4.175781-.296876-11.863281-1.664062-16.300781-6.867187-20.214844-11.457031-2.675781-3.132812-5.203125-6.089843-10.667968-8.910156-4.183594-2.160156-7.414063-2.285156-10.832032-2.417969-5.320312-.207031-11.933594-.46875-18.726562-8.808594-6.15625-7.5625-4.882813-15.183593-3.949219-20.75.882813-5.289062 1.195313-7.976562-1.421875-11.191406-2.09375-2.570312-1.707031-6.347656.863281-8.441406 2.570313-2.09375 6.351563-1.707031 8.441407.863281 6.160156 7.566407 4.882812 15.1875 3.953124 20.75-.882812 5.292969-1.195312 7.980469 1.421876 11.195313 3.367187 4.136718 5.277343 4.210937 9.886718 4.390625 3.929688.15625 9.3125.367187 15.863282 3.746093 7.566406 3.898438 11.296874 8.273438 14.296874 11.789063 3.480469 4.082031 5.398438 6.328125 12.75 7.355469 6.085938.855468 9.273438-1.402344 13.6875-4.519532 5.117188-3.617187 11.480469-8.117187 22.273438-6.605468 3.28125.460937 5.570312 3.492187 5.109375 6.777344-.457031 3.28125-3.5 5.566406-6.773437 5.109374-6.078126-.847656-9.269532 1.402344-13.683594 4.519532-4.421875 3.121094-9.777344 6.902344-18.101563 6.902344zm0 0" fill="#fff4c1"/><path d="m6.070312 456.601562c-.117187 0-.234374-.003906-.351562-.011718-3.308594-.195313-5.835938-3.03125-5.640625-6.339844.5625-9.691406 6.660156-14.414062 11.113281-17.863281 4.207032-3.261719 6.246094-5.011719 6.480469-9.074219.214844-3.703125-2.277344-6.714844-6.40625-11.238281-4.679687-5.125-11.757813-12.875-6.390625-23.203125 5.832031-11.214844 16.109375-11.21875 23.613281-11.222656 5.839844 0 10.878907-.003907 14.933594-3.75 4.433594-4.097657 4.683594-7.960938 5.035156-13.308594.410157-6.230469.917969-13.984375 8.863281-21.332032 2.4375-2.25 6.230469-2.105468 8.480469.332032 2.25 2.429687 2.101563 6.226562-.332031 8.476562-4.433594 4.097656-4.6875 7.960938-5.039062 13.308594-.40625 6.234375-.914063 13.988281-8.863282 21.335938-7.5 6.933593-16.132812 6.9375-23.070312 6.9375-7.9375.003906-10.695313.375-12.972656 4.753906-1.261719 2.433594-.535157 3.957031 4.601562 9.578125 4.480469 4.90625 10.054688 11.007812 9.527344 20.03125-.5625 9.691406-6.664063 14.414062-11.113282 17.863281-4.210937 3.261719-6.246093 5.011719-6.484374 9.074219-.183594 3.1875-2.832032 5.652343-5.984376 5.652343zm0 0" fill="#ffdf74"/><path d="m233.1875 276.003906c-16.796875-30.671875-70.039062-33.835937-118.921875-7.066406-48.878906 26.765625-74.890625 73.328125-58.09375 104 16.792969 30.671875 70.035156 33.839844 118.917969 7.070312 48.882812-26.765624 74.894531-73.332031 58.097656-104.003906zm0 0" fill="#ffc34c"/><path d="m168.050781 369.328125c-2.09375 0-4.125-1.097656-5.230469-3.050781-1.628906-2.886719-.609374-6.546875 2.277344-8.175782 24.5625-13.863281 42.945313-34.140624 47.976563-52.917968.859375-3.203125 4.144531-5.097656 7.347656-4.246094 3.199219.859375 5.101563 4.148438 4.246094 7.347656-5.835938 21.78125-26.402344 44.875-53.671875 60.265625-.933594.527344-1.945313.777344-2.945313.777344zm0 0" fill="#ffd551"/><path d="m142.671875 299.449219c33.28125-18.785157 69.023437-23.640625 93.933594-15.121094-.941407-3.289063-2.285157-6.453125-4.054688-9.449219-17.789062-30.121094-71.546875-32.335937-120.078125-4.945312-48.527344 27.386718-73.445312 74.007812-55.65625 104.125 5.585938 9.464844 14.730469 16.167968 26.140625 20.070312-8.53125-29.765625 16.015625-70.015625 59.714844-94.679687zm0 0" fill="#ffb74b"/><path d="m222.101562 277.894531c-3.21875-5.714843-29.257812 2.851563-58.15625 19.128907-28.902343 16.28125-49.722656 34.109374-46.503906 39.824218 3.21875 5.710938 29.257813-2.851562 58.15625-19.132812 28.902344-16.277344 49.71875-34.109375 46.503906-39.820313zm0 0" fill="#db9c2e"/><path d="m143.28125 481.132812c-1.804688 0-3.585938-.808593-4.765625-2.351562-3.652344-4.757812-7.464844-5.355469-12.738281-6.183594-6.164063-.96875-13.832032-2.171875-20.402344-10.742187-7.246094-9.449219-6.707031-16.214844-6.234375-22.1875.324219-4.035157.625-7.851563-1.191406-13.597657-1.402344-4.425781-3.550781-6.789062-5.828125-9.289062-3.566406-3.921875-8-8.800781-6.761719-19.460938 1.121094-9.640624 7.480469-14.007812 12.125-17.195312 4.390625-3.015625 6.527344-4.648438 6.996094-8.691406.382812-3.292969 3.375-5.644532 6.652343-5.269532 3.292969.382813 5.652344 3.363282 5.265626 6.65625-1.121094 9.644532-7.476563 14.007813-12.121094 17.199219-4.394532 3.015625-6.523438 4.644531-6.996094 8.6875-.609375 5.238281.65625 6.632813 3.71875 10 2.613281 2.871094 6.195312 6.808594 8.386719 13.746094 2.527343 7.980469 2.078125 13.628906 1.714843 18.167969-.414062 5.25-.644531 8.144531 3.792969 13.933594 3.648438 4.761718 7.460938 5.359374 12.738281 6.1875 6.160157.964843 13.832032 2.167968 20.402344 10.738281 2.015625 2.628906 1.515625 6.398437-1.113281 8.414062-1.082031.832031-2.367187 1.238281-3.640625 1.238281zm0 0" fill="#fff4c1"/><path d="m200.753906 299.5625h-7.851562c-3.667969 0-6.640625-2.972656-6.640625-6.644531v-183.5c0-3.667969 2.972656-6.640625 6.640625-6.640625h7.851562c3.667969 0 6.640625 2.972656 6.640625 6.640625v183.5c0 3.671875-2.972656 6.644531-6.640625 6.644531zm0 0" fill="#ccc033"/><path d="m186.257812 109.34375v183.648438c0 3.628906 3.007813 6.570312 6.71875 6.570312 3.714844 0 6.722657-2.941406 6.722657-6.570312v-183.648438c0-3.628906-3.007813-6.570312-6.722657-6.570312-3.710937.003906-6.71875 2.941406-6.71875 6.570312zm0 0" fill="#99af17"/><path d="m207.496094 163.683594c119.382812-10.523438 109.441406-100.234375 103.335937-128.265625-1.03125-4.734375-7.304687-6.699219-13.832031-4.347657-39.453125 14.214844-161.992188 65.011719-101.734375 128.914063 2.632813 2.796875 7.125 4.148437 12.230469 3.699219zm0 0" fill="#ccc033"/><path d="m312.246094 42.90625c-.453125-2.816406-.945313-5.335938-1.414063-7.492188-1.03125-4.730468-7.304687-6.699218-13.832031-4.347656-17.921875 6.460938-52.992188 20.46875-80.28125 39.824219-.492188.347656-.984375.703125-1.472656 1.058594-.066406.046875-.132813.09375-.199219.144531-.425781.308594-.847656.617188-1.269531.929688-.089844.066406-.179688.132812-.269532.199218-.394531.292969-.789062.585938-1.175781.882813-.109375.082031-.21875.164062-.324219.246093-.375.28125-.746093.566407-1.113281.851563-.113281.089844-.226562.175781-.339843.261719-.367188.285156-.734376.574218-1.09375.859375-.109376.085937-.214844.171875-.324219.257812-.371094.296875-.738281.59375-1.105469.890625-.09375.078125-.1875.152344-.285156.230469-.386719.316406-.769532.632813-1.152344.949219-.070312.0625-.144531.121094-.21875.183594-.4375.367187-.875.734374-1.308594 1.109374-.007812.007813-.019531.015626-.027344.023438-1.363281 1.167969-2.6875 2.351562-3.972656 3.550781-.050781.046875-.105468.097657-.15625.148438-.363281.339843-.722656.679687-1.078125 1.023437-.09375.085938-.183593.175782-.277343.265625-.316407.304688-.628907.609375-.9375.917969-.109376.105469-.21875.214844-.324219.320312-.289063.289063-.578125.578126-.859375.871094-.117188.117188-.234375.238282-.347656.359375-.277344.28125-.546876.5625-.816407.847657-.121093.125-.238281.25-.351562.375-.269531.28125-.53125.566406-.792969.851562-.109375.121094-.226562.246094-.335938.367188-.265624.292968-.523437.585937-.785156.875-.105468.121093-.210937.238281-.3125.355468-.265625.304688-.53125.617188-.796875.925782-.085937.101562-.175781.207031-.261719.308593-.300781.359375-.597656.71875-.894531 1.078125-.042969.050782-.085937.105469-.128906.15625-.6875.851563-1.355469 1.707032-1.996094 2.570313-.011719.011719-.019531.027343-.027343.039062-.304688.40625-.601563.8125-.890626 1.222657-.070312.097656-.140624.199218-.210937.300781-.226563.324219-.453125.648437-.671875.96875-.089844.132812-.175781.261719-.261719.390625-.199219.296875-.398437.59375-.589843.894531-.09375.144531-.183594.289063-.273438.433594-.179688.285156-.359375.570312-.535156.855469-.09375.15625-.1875.3125-.28125.464843-.167969.28125-.332032.5625-.496094.839844-.089844.160156-.179688.320313-.269531.476563-.160157.28125-.316407.558593-.46875.84375-.085938.15625-.171875.316406-.257813.476562-.152344.285156-.300781.574219-.449218.863281-.078126.152344-.15625.304688-.230469.457031-.152344.304688-.296875.609376-.441407.910157-.066406.140625-.132812.28125-.199218.421875-.160156.339844-.308594.679687-.457032 1.023437-.046874.101563-.09375.207031-.140624.308594-.386719.902344-.746094 1.8125-1.074219 2.726563-.027344.085937-.054688.171874-.089844.257812-.125.367188-.253906.730469-.371094 1.097656-.046875.144532-.085937.289063-.132812.429688-.097657.3125-.195313.625-.285157.9375-.046874.164062-.089843.332031-.136718.496094-.082032.289062-.160156.582031-.234375.871093-.046875.179688-.089844.359375-.128907.539063-.070312.28125-.132812.5625-.195312.84375-.039062.1875-.078125.371094-.117188.554687-.054687.28125-.109374.558594-.160156.835938-.03125.191406-.066406.378906-.097656.566406-.046875.28125-.089844.558594-.128906.839844-.027344.1875-.054688.378906-.082032.566406-.035156.285156-.066406.570313-.097656.851563-.019531.1875-.039062.371093-.058594.554687-.027343.300781-.050781.597656-.070312.898437-.011719.171876-.027344.34375-.035156.515626-.019532.332031-.03125.667968-.039063 1-.003906.140624-.011719.277343-.015625.417968-.019531.953125 0 1.910156.050782 2.871094.007812.136719.019531.269531.027343.402344.023438.34375.046875.691406.082031 1.039062.015626.175782.039063.355469.058594.53125.03125.304688.066406.609375.105469.914063.027344.195312.054687.390625.082031.585937.042969.289063.085938.578125.136719.871094.035156.203125.074219.402344.109375.609375.054688.28125.109375.566406.167969.851563.042969.210937.089843.417968.136719.625.0625.28125.128906.566406.199218.851562.050782.207031.105469.417969.160156.625.074219.285156.152344.570312.234376.859375.0625.207031.121093.414063.183593.625.085938.289063.183594.578125.277344.871094.066406.203125.128906.410156.203125.617187.101562.300782.214844.601563.324219.90625.070312.191406.140625.386719.214843.582032.125.335937.265626.671874.402344 1.007812.066406.164062.128906.324219.199219.488281.203125.484375.417969.96875.644531 1.457031.003906.011719.011719.027344.019532.042969.230468.503907.472656 1.003907.730468 1.507813.078125.164062.167969.324218.25.488281.175782.339844.355469.683594.539063 1.027344.105469.195312.222656.394531.332031.589843.171875.308594.347656.621094.527344.929688.125.210938.253906.421875.378906.636719.179688.296875.359375.59375.546875.890625.136719.21875.28125.441406.421875.660156.1875.292969.378906.585938.574219.875.148437.222656.300781.445312.453125.667969.199218.292969.40625.585937.613281.878906.15625.222656.316406.445313.480469.667969.210937.292968.433594.589844.65625.886718.167968.222657.332031.441407.503906.664063.234375.300781.472656.601563.710938.902344.171874.21875.34375.433593.523437.652343.253906.316407.515625.628907.78125.941407.171875.207031.339844.410156.515625.617187.296875.347656.605469.699219.914062 1.046875.152344.171875.300782.34375.457032.515625.46875.523438.945312 1.042969 1.441406 1.566406.234375.25.488281.480469.75.703126.117188.101562.242188.195312.367188.292968.136718.105469.277343.207032.417968.308594.171875.117188.347656.234375.527344.347656.078125.046875.160156.089844.242188.140625.554687.324219 1.136718.621094 1.761718.867188 2.707032.269531 5.46875.503906 8.292969.695312 1.269531.085938 2.488281.058594 3.671875-.035156.386719-.039063.78125-.074219 1.164062-.117187 4.015626-.53125 7.417969-2.089844 9.640626-4.546876 25.28125-27.941406 22.332031-53.285156 6.011718-75.03125 27.285156-19.34375 62.324219-33.34375 80.242188-39.800781 1.308594-.46875 2.617187-.757812 3.875-.894531zm0 0" fill="#99af17"/><path d="m186.28125 167.144531c-140.820312-23.070312-120.695312-128.742187-110.847656-161.496093 1.664062-5.53125 9.296875-7.3125 16.835937-3.941407 45.539063 20.382813 186.375 91.566407 108.882813 162.128907-3.386719 3.085937-8.847656 4.292968-14.871094 3.308593zm0 0" fill="#eacf32"/><path d="m101.414062 5.90625c-3.347656-1.574219-6.417968-2.976562-9.144531-4.199219-7.539062-3.371093-15.171875-1.589843-16.835937 3.941407-9.847656 32.753906-29.972656 138.425781 110.851562 161.496093 6.019532.984375 11.480469-.222656 14.867188-3.308593 3.238281-2.945313 6.082031-5.890626 8.578125-8.835938-121.519531-22.457031-117.421875-108.671875-108.316407-149.09375zm0 0" fill="#ccc033"/><path d="m198.207031 147.664062c-1.691406 0-3.375-.710937-4.5625-2.097656l-37.023437-43.289062c-2.152344-2.519532-1.855469-6.308594.660156-8.460938s6.308594-1.855468 8.457031.660156l37.027344 43.292969c2.152344 2.515625 1.855469 6.304688-.660156 8.457031-1.132813.964844-2.515625 1.4375-3.898438 1.4375zm0 0" fill="#fcda4f"/><path d="m138.011719 46.152344c0-9.507813-7.886719-17.21875-17.617188-17.21875-9.726562 0-17.613281 7.710937-17.613281 17.21875 0 9.507812 7.886719 17.21875 17.613281 17.21875 9.730469 0 17.617188-7.710938 17.617188-17.21875zm0 0" fill="#ccc033"/></svg>