<svg height="468pt" viewBox="-54 0 468 468.002" width="468pt" xmlns="http://www.w3.org/2000/svg"><path d="m152.90625 408.761719c-5.453125 0-9.875-4.417969-9.875-9.875v-135.265625h19.746094v135.265625c.003906 5.457031-4.417969 9.875-9.871094 9.875zm0 0" fill="#ffdf74"/><path d="m194.378906 408.761719c-5.453125 0-9.875-4.417969-9.875-9.875v-135.265625h19.746094v135.265625c0 5.457031-4.421875 9.875-9.871094 9.875zm0 0" fill="#ffdf74"/><path d="m172.785156.00390625c-62.433594 0-113.046875 50.61328175-113.046875 113.04687475 0 9.148438 1.578125 18.226563 4.667969 26.835938l62.335938 173.730469c1.140624 3.175781 4.152343 5.296874 7.527343 5.296874h77.035157c3.375 0 6.386718-2.121093 7.527343-5.296874l62.335938-173.730469c3.089843-8.609375 4.667969-17.6875 4.667969-26.835938 0-62.433593-50.613282-113.04687475-113.050782-113.04687475zm0 0" fill="#ccc033"/><path d="m204.265625 306.914062c-.671875 0-1.355469-.113281-2.023437-.351562-3.121094-1.121094-4.742188-4.554688-3.625-7.675781l38.472656-107.210938c1.121094-3.121093 4.550781-4.742187 7.671875-3.621093 3.121093 1.121093 4.742187 4.554687 3.625 7.671874l-38.472657 107.214844c-.878906 2.445313-3.1875 3.972656-5.648437 3.972656zm0 0" fill="#eacf32"/><path d="m119.734375 113.050781c0-52.046875 35.175781-95.871093 83.050781-109.019531-9.554687-2.625-19.613281-4.03125-30-4.03125-62.4375 0-113.050781 50.613281-113.050781 113.050781 0 9.144531 1.582031 18.222657 4.667969 26.832031l62.335937 173.730469c1.140625 3.179688 4.15625 5.296875 7.53125 5.296875h54.371094l-64.234375-179.027344c-3.089844-8.605468-4.671875-17.683593-4.671875-26.832031zm0 0" fill="#99af17"/><path d="m247.578125 126.875c1.9375 0 3.605469-1.382812 3.945313-3.289062.804687-4.542969 1.238281-9.214844 1.238281-13.988282 0-44.171875-35.808594-79.976562-79.976563-79.976562-44.167968 0-79.972656 35.808594-79.972656 79.976562 0 4.773438.429688 9.445313 1.238281 13.988282.335938 1.902343 2.007813 3.289062 3.941407 3.289062zm0 0" fill="#fce575"/><path d="m154.203125 31.816406c-35.203125 8.378906-61.390625 40.011719-61.390625 77.78125 0 4.773438.429688 9.445313 1.238281 13.988282.335938 1.902343 2.007813 3.289062 3.941407 3.289062h22.957031c-.800781-4.554688-1.214844-9.179688-1.214844-13.820312 0-31.898438 13.226563-60.6875 34.46875-81.238282zm0 0" fill="#ffdf74"/><path d="m121.65625 109.597656h16.757812c2.042969 0 3.734376-1.542968 3.972657-3.570312 1.085937-9.320313 6.382812-17.371094 13.929687-22.210938l-13.28125-20.789062c-14.199218 9.105468-23.992187 24.507812-25.371094 42.242187-.183593 2.332031 1.65625 4.328125 3.992188 4.328125zm0 0" fill="#99af17"/><path d="m201.753906 62.527344-13.285156 20.796875c7.964844 4.777343 13.597656 13.066406 14.71875 22.71875.234375 2.019531 1.929688 3.554687 3.96875 3.554687h16.757812c2.339844 0 4.175782-2 3.996094-4.332031-1.40625-18.058594-11.53125-33.707031-26.15625-42.738281zm0 0" fill="#ff4b34"/><path d="m172.785156 54.304688c-10.949218 0-21.152344 3.214843-29.753906 8.726562l13.285156 20.789062c4.757813-3.050781 10.40625-4.832031 16.46875-4.832031 5.726563 0 11.09375 1.585938 15.683594 4.335938l13.285156-20.796875c-8.429687-5.207032-18.351562-8.222656-28.96875-8.222656zm0 0" fill="#fcda4f"/><path d="m172.394531 120.203125c-3.3125 0-6-2.683594-6-6v-48.707031c0-3.3125 2.6875-6 6-6 3.316407 0 6 2.6875 6 6v48.707031c0 3.316406-2.6875 6-6 6zm0 0" fill="#8c4c17"/><path d="m200.761719 181.179688h-52c-4.417969 0-8-3.582032-8-8v-12c0-4.417969 3.582031-8 8-8h52c4.417969 0 8 3.582031 8 8v12c0 4.417968-3.582031 8-8 8zm0 0" fill="#ffd551"/><path d="m298.179688 405.800781h-5.425782c-6.738281-12.351562-19.84375-20.734375-34.90625-20.734375-13.519531 0-25.457031 6.757813-32.636718 17.074219-6.535157-17.671875-23.53125-30.273437-43.472657-30.273437-13.765625 0-26.125 6.007812-34.609375 15.535156-8.777344-17.203125-26.648437-28.996094-47.289062-28.996094-28.039063 0-50.980469 21.75-52.921875 49.292969-26.960938 6.8125-46.917969 31.226562-46.917969 60.304687h360.382812c0-34.355468-27.851562-62.203125-62.203124-62.203125zm0 0" fill="#bf6c0d"/><path d="m76.917969 437.699219c1.9375-27.546875 24.882812-49.292969 52.917969-49.292969 20.640624 0 38.515624 11.792969 47.292968 28.996094 8.484375-9.527344 20.84375-15.535156 34.605469-15.535156 19.945313 0 36.941406 12.601562 43.476563 30.273437 7.175781-10.316406 19.113281-17.074219 32.632812-17.074219 15.066406 0 28.167969 8.378906 34.910156 20.734375h5.421875c9.421875 0 18.347657 2.105469 26.347657 5.851563-9.917969-21.175782-31.414063-35.851563-56.347657-35.851563h-5.421875c-6.742187-12.355469-19.84375-20.734375-34.910156-20.734375-13.519531 0-25.453125 6.757813-32.632812 17.074219-6.535157-17.671875-23.535157-30.273437-43.476563-30.273437-13.761719 0-26.121094 6.007812-34.605469 15.535156-8.777344-17.203125-26.652344-28.996094-47.292968-28.996094-28.035157 0-50.980469 21.75-52.917969 49.292969-26.960938 6.8125-46.917969 31.226562-46.917969 60.304687h37.703125c8.210937-14.882812 22.339844-26.042968 39.214844-30.304687zm0 0" fill="#a56021"/><path d="m203.761719 230.816406c0 9.664063-7.832031 17.5-17.5 17.5-9.664063 0-17.5-7.835937-17.5-17.5 0-9.664062 7.835937-17.5 17.5-17.5 9.667969 0 17.5 7.835938 17.5 17.5zm0 0" fill="#99af17"/><path d="m135.152344 426.261719c0 9.664062-7.835938 17.5-17.5 17.5-9.667969 0-17.5-7.835938-17.5-17.5 0-9.664063 7.832031-17.5 17.5-17.5 9.664062 0 17.5 7.835937 17.5 17.5zm0 0" fill="#a56021"/></svg>