<svg height="480pt" viewBox="-10 0 480 480.0007" width="480pt" xmlns="http://www.w3.org/2000/svg"><path d="m190.773438 78.835938h22.425781v356.796874h-22.425781zm0 0" fill="#ccc033"/><path d="m190.773438 78.835938h14.261718v356.796874h-14.261718zm0 0" fill="#99af17"/><path d="m213.035156 169.625c123.625-10.90625 113.328125-103.871094 107.007813-132.921875-1.070313-4.90625-7.566407-6.941406-14.324219-4.503906-40.855469 14.730469-167.746094 67.371093-105.347656 133.59375 2.730468 2.894531 7.378906 4.296875 12.664062 3.832031zm0 0" fill="#ccc033"/><path d="m259.414062 146.074219c-2.300781 0-4.496093-1.332031-5.488281-3.570313-1.34375-3.03125.023438-6.574218 3.050781-7.917968 11.992188-5.3125 21.457032-12.488282 28.121094-21.332032 7.773438-10.308594 12.242188-23.378906 13.28125-38.847656.222656-3.304688 3.070313-5.832031 6.386719-5.582031 3.304687.21875 5.808594 3.082031 5.585937 6.386719-1.195312 17.832031-6.46875 33.066406-15.671874 45.273437-7.910157 10.488281-18.960938 18.925781-32.835938 25.074219-.792969.351562-1.621094.515625-2.429688.515625zm0 0" fill="#eacf32"/><path d="m321.507812 44.464844c-.472656-2.921875-.980468-5.53125-1.464843-7.761719-1.070313-4.90625-7.566407-6.941406-14.328125-4.503906-18.554688 6.691406-54.871094 21.207031-83.128906 41.265625-.511719.363281-1.019532.726562-1.527344 1.097656-.066406.046875-.136719.097656-.207032.148438-.4375.320312-.878906.640624-1.316406.964843-.09375.070313-.1875.140625-.28125.207031-.40625.304688-.8125.609376-1.214844.914063-.113281.082031-.226562.167969-.339843.253906-.386719.296875-.769531.589844-1.152344.882813-.113281.089844-.234375.179687-.347656.273437-.382813.296875-.761719.59375-1.136719.890625-.113281.089844-.222656.175782-.335938.265625-.382812.304688-.765624.613281-1.144531.921875-.097656.078125-.199219.160156-.296875.238282-.398437.328124-.796875.65625-1.191406.984374-.074219.066407-.152344.125-.226562.1875-.453126.382813-.90625.765626-1.355469 1.148438-.007813.007812-.019531.019531-.03125.027344-1.40625 1.210937-2.78125 2.4375-4.113281 3.675781-.054688.050781-.105469.105469-.160157.152344-.375.351562-.75.707031-1.117187 1.0625-.097656.089843-.191406.183593-.285156.273437-.328126.316406-.652344.632813-.972657.953125-.113281.109375-.222656.21875-.335937.332031-.300782.300782-.597656.601563-.890625.898438-.121094.125-.242188.25-.359375.371094-.285156.292968-.566406.585937-.847656.878906-.121094.128906-.242188.261719-.363282.390625-.277344.292969-.546875.585937-.820312.882813-.113282.125-.234375.253906-.347656.378906-.273438.304687-.542969.605468-.8125.910156-.109376.121094-.214844.242188-.324219.367188-.277344.316406-.550781.636718-.824219.957031-.089844.105469-.183594.214843-.273438.320312-.308593.371094-.617187.746094-.921874 1.117188-.042969.054687-.089844.109375-.136719.164062-.714844.882813-1.402344 1.769531-2.070313 2.664063-.007812.011718-.019531.027344-.03125.039062-.308594.421875-.617187.84375-.917968 1.265625-.074219.101563-.144532.207031-.214844.3125-.238282.332031-.472656.667969-.699219 1.007813-.09375.132812-.179687.269531-.269531.40625-.207032.304687-.410156.613281-.609375.921875-.09375.152343-.191407.300781-.285157.449219-.1875.296874-.371093.589843-.554687.890624-.097656.160157-.195313.320313-.289063.480469-.175781.289063-.34375.582031-.515624.871094-.09375.164063-.1875.328125-.28125.492187-.164063.289063-.324219.582032-.484376.871094-.089843.164063-.179687.328125-.265624.496094-.15625.296875-.3125.597656-.464844.894531-.082032.160157-.164063.316407-.242188.476563-.15625.3125-.304687.625-.453125.941406-.070312.148438-.140625.292969-.210937.4375-.164063.351562-.320313.707031-.472656 1.058594-.046876.105468-.097657.214844-.144532.324218-.402344.933594-.769531 1.875-1.109375 2.824219-.035156.089844-.0625.179688-.09375.269531-.132812.378907-.265625.753907-.386719 1.136719-.046874.144531-.089843.296875-.136718.445313-.101563.324218-.199219.644531-.292969.96875-.050781.171875-.097656.34375-.144531.515625-.082032.300781-.164063.601562-.242188.90625-.046875.183593-.089844.371093-.136718.554687-.066407.292969-.136719.585938-.199219.878906-.042969.191407-.082031.382813-.117188.574219-.058593.289063-.117187.578125-.167969.867188-.035156.195312-.070312.390625-.101562.585937-.046875.289063-.09375.578125-.132812.871094-.03125.195312-.058594.390625-.082032.585938-.039062.292968-.074218.589843-.105468.882812-.019532.195312-.042969.382812-.058594.574219-.03125.3125-.054688.621093-.074219.933593-.011719.179688-.027344.355469-.039063.535157-.019531.34375-.03125.691406-.042968 1.035156-.003906.144531-.011719.289063-.015625.4375-.019531.984375 0 1.976563.054687 2.972656.007813.140625.019532.28125.03125.417969.023438.359375.046875.714844.082032 1.074219.015624.183593.039062.367187.058593.550781.035157.316406.066407.632812.109375.949219.027344.203125.058594.402343.089844.601562.042969.300781.089844.605469.136719.902344.039062.210937.078125.421875.117187.632813.050782.292968.109375.589843.171875.882812.042969.21875.089844.433594.140625.648438.0625.292968.132813.585937.207032.878906.054687.21875.105468.433594.164062.652344.078125.296874.160156.59375.246094.886718.0625.21875.125.433594.191406.648438.089844.300781.1875.601562.285156.902344.070313.214843.136719.425781.210938.640624.105468.3125.222656.625.335937.9375.074219.203126.144531.40625.222657.605469.132812.347657.273437.695313.417968 1.042969.066406.171875.132813.339844.203125.507812.210938.5.433594 1.003907.664063 1.511719.007812.011719.015625.027344.023437.042969.238281.519531.492188 1.042969.753907 1.566406.085937.167969.175781.335938.261718.503906.183594.351563.367188.710938.5625 1.066407.109375.203125.226563.40625.339844.609375.179688.324218.359375.644531.546875.96875.128906.214844.261719.4375.394531.65625.183594.304687.371094.613281.5625.921875.140625.226562.289063.457031.4375.683593.191406.304688.390625.605469.59375.910157.152344.230469.308594.460937.46875.691406.207032.300781.417969.601563.632813.90625.164062.234375.332031.464844.5.695313.222656.304687.449219.613281.679687.917968.171875.230469.34375.457032.523438.6875.238281.3125.484375.625.734375.9375.179687.226563.355469.449219.539062.675782.261719.324218.535157.648437.808594.976562.179687.210938.351563.421875.535156.636719.308594.359375.628907.722656.949219 1.082031.15625.179688.308594.359375.46875.535156.488281.539063.984375 1.082032 1.496094 1.625.242187.253906.503906.496094.777344.726563.121093.105469.25.203125.382812.304687.140625.109375.285156.214844.433594.316406.175781.125.359375.246094.542968.363282.082032.046875.167969.09375.253907.144531.574219.335937 1.175781.640625 1.828125.898437 2.800781.28125 5.660156.523438 8.589844.722657 1.308593.089843 2.574218.058593 3.796874-.035157.402344-.042968.8125-.078124 1.210938-.125 4.15625-.546874 7.679688-2.164062 9.980469-4.707031 26.179687-28.957031 23.125-55.222656 6.222656-77.753906 28.25-20.046875 64.539063-34.554687 83.089844-41.246094 1.367187-.488281 2.722656-.789062 4.027343-.929687zm0 0" fill="#99af17"/><path d="m191.066406 173.210938c-145.820312-23.90625-124.980468-133.414063-114.785156-167.359376 1.722656-5.730468 9.628906-7.578124 17.433594-4.082031 47.15625 21.121094 192.996094 94.886719 112.75 168.011719-3.507813 3.199219-9.160156 4.453125-15.398438 3.429688zm0 0" fill="#eacf32"/><path d="m103.183594 6.121094c-3.460938-1.628906-6.644532-3.085938-9.46875-4.351563-7.804688-3.496093-15.710938-1.648437-17.433594 4.082031-10.195312 33.941407-31.035156 143.453126 114.785156 167.359376 6.238282 1.023437 11.890625-.230469 15.398438-3.429688 3.351562-3.050781 6.300781-6.105469 8.882812-9.15625-125.832031-23.273438-121.589844-112.613281-112.164062-154.503906zm0 0" fill="#ccc033"/><path d="m203.417969 152.808594c-1.695313 0-3.378907-.714844-4.566407-2.105469l-38.335937-44.859375c-2.152344-2.519531-1.855469-6.304688.664063-8.460938 2.519531-2.148437 6.304687-1.855468 8.457031.664063l38.339843 44.863281c2.152344 2.519532 1.855469 6.304688-.664062 8.457032-1.128906.96875-2.515625 1.441406-3.894531 1.441406zm0 0" fill="#fcda4f"/><path d="m436.546875 434.117188h-57.589844c-4.554687-12.429688-16.261719-21.523438-30.277343-22.53125-1.324219-16.8125-14.011719-30.507813-30.570313-33.746094 1.660156-4.1875 2.582031-8.738282 2.582031-13.503906 0-20.648438-17.113281-37.390626-38.222656-37.390626-1.867188 0-3.699219.136719-5.496094.390626-2.367187-18.425782-18.429687-32.683594-37.910156-32.683594-15.460938 0-28.769531 8.988281-34.789062 21.910156-6.019532-12.921875-19.328126-21.910156-34.789063-21.910156-15.679687 0-29.144531 9.242187-35.039063 22.453125-4.917968-2.253907-10.402343-3.519531-16.191406-3.519531-21.113281 0-38.222656 16.738281-38.222656 37.390624 0 1.953126.152344 3.871094.449219 5.746094-1.230469 1.046875-2.445313 2.109375-3.636719 3.195313-18.660156 2.472656-33.046875 18.105469-33.046875 37.039062 0 1.992188.164063 3.949219.472656 5.859375-1.257812 2.542969-2.425781 5.128906-3.519531 7.75-.835938-.054687-1.675781-.089844-2.527344-.089844-21.109375 0-38.222656 16.738282-38.222656 37.390626 0 13.515624 7.335938 25.355468 18.320312 31.921874h321.8125v.210938h96.414063c12.953125 0 23.453125-10.269531 23.453125-22.941406s-10.5-22.941406-23.453125-22.941406zm0 0" fill="#bf6c0d"/><g fill="#a56021"><path d="m18.320312 479.785156h35.988282c0-.015625-.003906-.03125-.003906-.046875 0-20.648437 17.113281-37.390625 38.222656-37.390625.851562 0 1.691406.035156 2.527344.089844 1.09375-2.617188 2.261718-5.203125 3.519531-7.746094-.304688-1.910156-.46875-3.867187-.46875-5.859375 0-18.929687 14.386719-34.566406 33.042969-37.039062 1.195312-1.085938 2.410156-2.144531 3.636718-3.195313-.292968-1.871094-.449218-3.789062-.449218-5.746094 0-20.652343 17.113281-37.390624 38.222656-37.390624 5.789062 0 11.273437 1.265624 16.191406 3.519531 5.894531-13.214844 19.363281-22.453125 35.039062-22.453125 15.464844 0 28.769532 8.988281 34.792969 21.910156 5.105469-10.960938 15.460938-19.066406 27.921875-21.28125-1.328125-.136719-2.671875-.207031-4.035156-.207031-1.867188 0-3.699219.136719-5.496094.390625-2.367187-18.429688-18.429687-32.6875-37.910156-32.6875-15.460938 0-28.769531 8.988281-34.789062 21.910156-6.019532-12.921875-19.328126-21.910156-34.789063-21.910156-15.679687 0-29.144531 9.238281-35.039063 22.453125-4.917968-2.253907-10.402343-3.519531-16.191406-3.519531-21.113281 0-38.222656 16.738281-38.222656 37.390624 0 1.953126.152344 3.871094.449219 5.746094-1.230469 1.046875-2.445313 2.109375-3.636719 3.195313-18.660156 2.472656-33.046875 18.105469-33.046875 37.039062 0 1.992188.164063 3.949219.472656 5.859375-1.257812 2.539063-2.425781 5.125-3.519531 7.746094-.835938-.054688-1.675781-.09375-2.527344-.09375-21.109375 0-38.222656 16.742188-38.222656 37.394531 0 13.515625 7.335938 25.351563 18.320312 31.921875zm0 0"/><path d="m153.734375 425.449219c0 9.664062-7.835937 17.5-17.5 17.5s-17.5-7.835938-17.5-17.5c0-9.664063 7.835937-17.5 17.5-17.5s17.5 7.835937 17.5 17.5zm0 0"/><path d="m191.257812 385.683594c0 9.664062-7.835937 17.5-17.5 17.5-9.664062 0-17.5-7.835938-17.5-17.5 0-9.664063 7.835938-17.5 17.5-17.5 9.664063 0 17.5 7.835937 17.5 17.5zm0 0"/></g></svg>