<svg height="486pt" viewBox="0 -3 486.0027 486" width="486pt" xmlns="http://www.w3.org/2000/svg"><path d="m426.449219 102.140625c-.003907 0-.011719 0-.015625 0l-366.882813-.636719c-5.523437-.011718-9.996093-5.011718-9.984375-11.171875.007813-6.15625 4.484375-11.136719 10-11.136719h.015625l366.882813.636719c5.523437.007813 9.996094 5.011719 9.984375 11.171875-.007813 6.152344-4.484375 11.136719-10 11.136719zm0 0" fill="#eacf32"/><path d="m131.550781 101.503906c-5.523437-.011718-9.996093-5.011718-9.984375-11.171875.007813-5.621093 3.746094-10.253906 8.59375-11.015625l-70.578125-.121094c-.007812 0-.011719 0-.015625 0-5.515625 0-9.992187 4.980469-10 11.136719-.007812 6.160157 4.460938 11.160157 9.984375 11.171875zm0 0" fill="#ccc033"/><path d="m15.019531 480c-.660156 0-1.328125-.046875-2-.148438-8.210937-1.222656-13.976562-9.636718-12.882812-18.792968l53.359375-446.539063c.992187-8.308593 7.351562-14.519531 14.867187-14.519531h.023438l349.277343.636719c7.507813.015625 13.847657 6.214843 14.84375 14.519531l53.359376 445.898438c1.097656 9.15625-4.671876 17.574218-12.882813 18.796874-8.21875 1.226563-15.753906-5.210937-16.851563-14.371093l-51.628906-431.40625-323.011718-.585938-51.625 431.988281c-1.003907 8.410157-7.445313 14.523438-14.847657 14.523438zm0 0" fill="#ccc033"/><path d="m18.132812 474.441406 53.363282-446.535156c.992187-8.3125 7.351562-14.519531 14.867187-14.519531h.023438l345.9375.628906c-1.414063-7.71875-7.5-13.363281-14.660157-13.375l-349.277343-.640625c-.007813 0-.015625 0-.023438 0-7.515625 0-13.875 6.210938-14.867187 14.519531l-53.363282 446.539063c-1.09375 9.15625 4.675782 17.574218 12.886719 18.792968.671875.101563 1.339844.148438 2 .148438 1.097657 0 2.171875-.148438 3.214844-.40625-.261719-1.660156-.3125-3.390625-.101563-5.152344zm0 0" fill="#99af17"/><path d="m274.886719 347.296875c-2.761719 0-5-2.238281-5-5v-262.792969c0-2.761718 2.238281-5 5-5s5 2.238282 5 5v262.792969c0 2.761719-2.238281 5-5 5zm0 0" fill="#ffd551"/><path d="m367.886719 347.296875c-2.761719 0-5-2.238281-5-5v-262.792969c0-2.761718 2.238281-5 5-5s5 2.238282 5 5v262.792969c0 2.761719-2.238281 5-5 5zm0 0" fill="#ffdf74"/><path d="m103.886719 347.296875c-2.761719 0-5-2.238281-5-5v-262.792969c0-2.761718 2.238281-5 5-5s5 2.238282 5 5v262.792969c0 2.761719-2.238281 5-5 5zm0 0" fill="#ffd551"/><path d="m196.886719 347.296875c-2.761719 0-5-2.238281-5-5v-262.792969c0-2.761718 2.238281-5 5-5s5 2.238282 5 5v262.792969c0 2.761719-2.238281 5-5 5zm0 0" fill="#ffdf74"/><path d="m116.378906 362-18.363281 11.824219-24.734375-47.78125c-2.925781-5.65625-1.1875-12.886719 3.882812-16.152344 5.070313-3.261719 11.550782-1.328125 14.480469 4.328125zm0 0" fill="#ff4b34"/><path d="m181.378906 362 18.359375 11.824219 24.730469-47.78125c2.929688-5.652344 1.191406-12.886719-3.878906-16.148438-5.070313-3.265625-11.554688-1.328125-14.480469 4.328125zm0 0" fill="#ff624b"/><path d="m290.25 362.289062-18.359375 11.535157-24.730469-46.625c-2.929687-5.519531-1.191406-12.574219 3.878906-15.761719 5.070313-3.1875 11.550782-1.296875 14.480469 4.222656zm0 0" fill="#ff4b34"/><path d="m355.546875 362.289062 18.359375 11.535157 24.734375-46.625c2.925781-5.519531 1.1875-12.574219-3.882813-15.761719-5.070312-3.1875-11.550781-1.296875-14.480468 4.222656zm0 0" fill="#ff624b"/><path d="m373.886719 373.824219h-101.953125v-34.054688c0-8.285156 6.71875-15 15.003906-15h71.949219c8.285156 0 15.003906 6.714844 15.003906 15v34.054688zm0 0" fill="#ff624b"/><path d="m464.800781 416.414062c-2.992187 0-5.582031-2.238281-5.949219-5.285156l-24.5625-205.25c-.394531-3.292968 1.953126-6.277344 5.242188-6.671875 3.277344-.398437 6.277344 1.953125 6.671875 5.246094l24.5625 205.25c.394531 3.289063-1.953125 6.273437-5.246094 6.667969-.238281.027344-.476562.042968-.71875.042968zm0 0" fill="#eacf32"/><path d="m346.320312 352.199219c0 9.664062-7.835937 17.5-17.5 17.5-9.667968 0-17.5-7.835938-17.5-17.5 0-9.664063 7.832032-17.5 17.5-17.5 9.664063 0 17.5 7.835937 17.5 17.5zm0 0" fill="#ff4b34"/><path d="m317.6875 324.769531h-30.75c-8.285156 0-15.003906 6.71875-15.003906 15.003907v34.050781h30.75v-34.050781c0-8.285157 6.71875-15.003907 15.003906-15.003907zm0 0" fill="#ff4b34"/><path d="m199.886719 373.824219h-101.953125v-34.054688c0-8.285156 6.71875-15 15.003906-15h71.949219c8.285156 0 15.003906 6.714844 15.003906 15v34.054688zm0 0" fill="#ff624b"/><g fill="#ff4b34"><path d="m172.320312 352.199219c0 9.664062-7.835937 17.5-17.5 17.5-9.667968 0-17.5-7.835938-17.5-17.5 0-9.664063 7.832032-17.5 17.5-17.5 9.664063 0 17.5 7.835937 17.5 17.5zm0 0"/><path d="m143.6875 324.769531h-30.75c-8.285156 0-15.003906 6.71875-15.003906 15.003907v34.050781h30.75v-34.050781c0-8.285157 6.71875-15.003907 15.003906-15.003907zm0 0"/></g></svg>