<svg height="479pt" viewBox="-80 1 479 479.9991" width="479pt" xmlns="http://www.w3.org/2000/svg"><path d="m190.210938 480h-67.398438c-3.234375 0-5.851562-2.621094-5.851562-5.851562v-325.554688h79.101562v325.554688c0 3.230468-2.621094 5.851562-5.851562 5.851562zm0 0" fill="#a56021"/><path d="m178.0625 468c-3.316406 0-6-2.6875-6-6v-66c0-3.316406 2.683594-6 6-6 3.3125 0 6 2.683594 6 6v66c0 3.3125-2.6875 6-6 6zm0 0" fill="#bf6c0d"/><path d="m158.960938 474.148438v-325.554688h-42v325.550781c0 3.234375 2.617187 5.851563 5.851562 5.851563h42c-3.234375.003906-5.851562-2.617188-5.851562-5.847656zm0 0" fill="#8c4c17"/><path d="m266.140625 261.847656h-210.929687c-1.886719 0-3.601563 1.003906-4.4375 2.605469-6.964844 13.3125-36.851563 72.929687-49.460938 98.109375-2.621094 5.242188 1.414062 11.28125 7.539062 11.28125h303.292969c6.214844 0 10.246094-6.195312 7.453125-11.449219zm0 0" fill="#ccc033"/><path d="m295.734375 361.847656c-2.148437 0-4.222656-1.15625-5.300781-3.183594l-40.40625-75.996093c-1.554688-2.925781-.445313-6.558594 2.480468-8.113281 2.929688-1.554688 6.558594-.445313 8.113282 2.480468l40.40625 75.996094c1.554687 2.925781.445312 6.558594-2.480469 8.113281-.898437.476563-1.863281.703125-2.8125.703125zm0 0" fill="#eacf32"/><path d="m108.539062 154.851562 81.964844-116.972656-20.542968-33.320312c-3.726563-6.046875-14.5625-6.085938-18.363282-.070313l-20.941406 33.167969-82.117188 117.195312c-2.308593 3.292969.570313 7.40625 5.179688 7.40625h60c-4.609375.003907-7.488281-4.113281-5.179688-7.40625zm0 0" fill="#fcda4f"/><path d="m61.3125 362.5625c12.609375-25.179688 42.492188-84.796875 49.457031-98.109375.835938-1.597656 2.554688-2.605469 4.4375-2.605469h-59.996093c-1.886719 0-3.601563 1.003906-4.4375 2.605469-6.964844 13.3125-36.851563 72.929687-49.460938 98.109375-2.621094 5.242188 1.414062 11.28125 7.539062 11.28125h60c-6.125 0-10.164062-6.039062-7.539062-11.28125zm0 0" fill="#99af17"/><path d="m239.875 154.378906h-158.375c-2.027344 0-3.871094 1.003906-4.769531 2.605469-7.488281 13.3125-39.609375 72.929687-53.160157 98.109375-2.824218 5.242188 1.519532 11.28125 8.101563 11.28125h257.652344c6.679687 0 11.011719-6.199219 8.007812-11.453125zm0 0" fill="#eacf32"/><path d="m83.566406 255.089844c13.554688-25.179688 45.675782-84.792969 53.160156-98.109375.898438-1.597657 2.746094-2.601563 4.769532-2.601563h-59.996094c-2.027344 0-3.871094 1.003906-4.769531 2.601563-7.488281 13.316406-39.609375 72.929687-53.160157 98.109375-2.820312 5.242187 1.519532 11.285156 8.101563 11.285156h60c-6.585937 0-10.925781-6.042969-8.105469-11.285156zm0 0" fill="#ccc033"/><path d="m272.457031 154.851562-81.902343-116.886718-20.59375-33.40625c-3.726563-6.046875-14.5625-6.085938-18.363282-.070313l-20.941406 33.167969-82.117188 117.195312c-2.308593 3.292969.570313 7.40625 5.179688 7.40625h213.558594c4.609375.003907 7.488281-4.113281 5.179687-7.40625zm0 0" fill="#fcda4f"/><path d="m108.539062 154.851562 81.964844-116.972656-20.542968-33.320312c-3.726563-6.046875-14.5625-6.085938-18.363282-.070313l-20.941406 33.167969-82.117188 117.195312c-2.308593 3.292969.570313 7.40625 5.179688 7.40625h60c-4.609375.003907-7.488281-4.113281-5.179688-7.40625zm0 0" fill="#eacf32"/><path d="m126.988281 339.25c0 12.082031-9.792969 21.875-21.875 21.875s-21.875-9.792969-21.875-21.875 9.792969-21.875 21.875-21.875 21.875 9.792969 21.875 21.875zm0 0" fill="#99af17"/><path d="m147.988281 237.25c0 12.082031-9.792969 21.875-21.875 21.875s-21.875-9.792969-21.875-21.875 9.792969-21.875 21.875-21.875 21.875 9.792969 21.875 21.875zm0 0" fill="#ccc033"/></svg>