<svg height="512" viewBox="0 0 64 64" width="512" xmlns="http://www.w3.org/2000/svg"><g id="_10-cheese_sauce" data-name="10-cheese sauce"><path d="m44 37a2.006 2.006 0 0 0 2 2 2.015 2.015 0 0 0 2-2v-5h2a13.469 13.469 0 0 1 6 11.21v.79a15.958 15.958 0 0 1 -2.42 8.47 3 3 0 0 0 -2.81-1.46 2.882 2.882 0 0 0 -1.88.87 2.188 2.188 0 0 0 -1.89-.88 3.119 3.119 0 0 0 -3 3c0 1-1.36 3-3 3a2.377 2.377 0 0 0 -1.43 1.13 3.77 3.77 0 0 0 -.57 1.87h-15a16 16 0 0 1 -16-16v-.79a13.476 13.476 0 0 1 6-11.21h24v10a2.006 2.006 0 0 0 2 2 2.015 2.015 0 0 0 2-2v-10a1 1 0 1 1 2 0z" fill="#d8d1c5"/><path d="m21 60h18c0 1.21.86 2.77 2 3h-18a2.006 2.006 0 0 1 -2-2z" fill="#a69c92"/><path d="m50 28a2.006 2.006 0 0 1 2 2 2.015 2.015 0 0 1 -2 2h-2v-4z" fill="#eeeae3"/><path d="m38 28v4h-24a2.006 2.006 0 0 1 -2-2 2.015 2.015 0 0 1 2-2z" fill="#eeeae3"/><path d="m60.13 55.539a2.91 2.91 0 0 1 1.87.661 2.65 2.65 0 0 1 .16 4.01c-2.78 2.64-6.5 3.62-9.66 2.01a7.356 7.356 0 0 1 -1.43-1 8.426 8.426 0 0 0 2.55-4.24l.07.02a3.921 3.921 0 0 0 4.41-.66 3.037 3.037 0 0 1 2.03-.801z" fill="#e7c699"/><path d="m60.13 55.539a3.037 3.037 0 0 0 -2.03.8 3.921 3.921 0 0 1 -4.41.66l-.07-.02a11.362 11.362 0 0 0 .37-2.64h.01a2.9 2.9 0 0 0 1.4-.58 3.085 3.085 0 0 1 4.05 0 1.908 1.908 0 0 1 .68 1.78z" fill="#dbb27d"/><path d="m53.58 52.469a2.952 2.952 0 0 1 .42 1.531c0 .11 0 .23-.01.34a11.362 11.362 0 0 1 -.37 2.64 8.426 8.426 0 0 1 -2.55 4.24 6.988 6.988 0 0 1 -2.65 1.49 8.581 8.581 0 0 1 -2.42.29h-2a2.562 2.562 0 0 1 0-5 4.2 4.2 0 0 0 2.6-.98 3.858 3.858 0 0 0 1.4-3.02 2.984 2.984 0 0 1 .89-2.12 2.882 2.882 0 0 1 1.88-.87 3 3 0 0 1 2.81 1.459z" fill="#f7d5a9"/><path d="m44 58a2.563 2.563 0 0 0 0 5h-3c-1.14-.23-2-1.79-2-3a3.77 3.77 0 0 1 .57-1.87 2.377 2.377 0 0 1 1.43-1.13c1.64 0 3-2 3-3a3.119 3.119 0 0 1 3-3 2.188 2.188 0 0 1 1.89.88 2.984 2.984 0 0 0 -.89 2.12 3.858 3.858 0 0 1 -1.4 3.02 4.2 4.2 0 0 1 -2.6.98z" fill="#dbb27d"/><path d="m53 11.5c0 3.42-1.66 6.34-4.65 7.25a6.869 6.869 0 0 1 -2.02.25h-1.66a2.137 2.137 0 0 1 0-4.17 3.505 3.505 0 0 0 2.17-.82 3.2 3.2 0 0 0 1.16-2.51 2.5 2.5 0 0 1 5 0z" fill="#f7d5a9"/><path d="m7.67 5.67a1.707 1.707 0 0 1 0 3.33h-1.34a5.471 5.471 0 0 1 -1.61-.2c-2.39-.73-3.72-3.06-3.72-5.8a2 2 0 0 1 4 0 2.573 2.573 0 0 0 .93 2.01 2.77 2.77 0 0 0 1.74.66z" fill="#f7d5a9"/><path d="m20.33 19.83a2.137 2.137 0 0 1 0 4.17h-1.66a6.869 6.869 0 0 1 -2.02-.25c-2.99-.91-4.65-3.83-4.65-7.25a2.5 2.5 0 0 1 5 0 3.2 3.2 0 0 0 1.16 2.51 3.505 3.505 0 0 0 2.17.82z" fill="#f7d5a9"/><path d="m37.68 6.51c-1.6.58-2.87 1.49-5.08 1.49-3.29 0-3.3-1.98-6.56-2l-1.92-3.55a1 1 0 0 1 .96-1.45h13.84a1 1 0 0 1 .96 1.45z" fill="#f7d5a9"/><path d="m36 9.62-.86 1.59a3.649 3.649 0 0 1 -6.28 0l-1.76-3.26-1.06-1.95c3.26.02 3.27 2 6.56 2 2.21 0 3.48-.91 5.08-1.49z" fill="#ffe16e"/><path d="m33 18.5v6a1.5 1.5 0 0 1 -3 0v-6a1.5 1.5 0 0 1 3 0z" fill="#f7fafd"/><path d="m48 32v5a2.015 2.015 0 0 1 -2 2 2.006 2.006 0 0 1 -2-2v-5a1 1 0 1 0 -2 0v10a2.015 2.015 0 0 1 -2 2 2.006 2.006 0 0 1 -2-2v-14a2.006 2.006 0 0 1 2-2h6a2.006 2.006 0 0 1 2 2z" fill="#ffbd50"/><path d="m31.5 26a1.5 1.5 0 0 0 1.5-1.5v-6a1.5 1.5 0 0 0 -3 0v6a1.5 1.5 0 0 0 1.5 1.5zm4.5-16.38v18.38h-9v-20l.1-.05 1.76 3.26a3.649 3.649 0 0 0 6.28 0z" fill="#ffe16e"/><path d="m51.721 31a1.96 1.96 0 0 0 .279-1 2.006 2.006 0 0 0 -2-2h-2v2h2a2 2 0 0 1 1.721 1z" fill="#f7f4ec"/><path d="m27 28h-13a1.985 1.985 0 0 0 -1.721 3 1.984 1.984 0 0 1 1.721-1h24v-2z" fill="#f7f4ec"/><path d="m50.6 48.515a5.349 5.349 0 0 0 -1.606.361 4.935 4.935 0 0 0 -1.994-.376 5.651 5.651 0 0 0 -5.5 5.323 1.713 1.713 0 0 1 -.578.677l-.441.054a4.838 4.838 0 0 0 -3.041 2.266 6.275 6.275 0 0 0 -.94 3.18h2.5a3.77 3.77 0 0 1 .57-1.87 2.377 2.377 0 0 1 1.43-1.13c1.64 0 3-2 3-3a3.119 3.119 0 0 1 3-3 2.188 2.188 0 0 1 1.89.88 2.882 2.882 0 0 1 1.88-.87 3 3 0 0 1 2.81 1.46 15.976 15.976 0 0 0 1.232-2.431 5.446 5.446 0 0 0 -4.212-1.524z" fill="#c2b8af"/><path d="m39 60h-2.5a6.135 6.135 0 0 0 .86 3h3.64c-1.14-.231-2-1.791-2-3z" fill="#978d7e"/><path d="m46 59a4.2 4.2 0 0 0 2.6-.98 3.858 3.858 0 0 0 1.4-3.02 2.984 2.984 0 0 1 .89-2.12 2.882 2.882 0 0 1 1.88-.87 3.018 3.018 0 0 1 .466 0 2.988 2.988 0 0 0 -2.466-1 2.882 2.882 0 0 0 -1.88.87 2.984 2.984 0 0 0 -.89 2.12 3.858 3.858 0 0 1 -1.4 3.02 4.2 4.2 0 0 1 -2.6.98 2.563 2.563 0 0 0 0 5h.493a2.553 2.553 0 0 1 1.507-4z" fill="#ffdfb8"/><path d="m52 9.516c-.005 3.413-1.664 6.325-4.649 7.234a6.869 6.869 0 0 1 -2.02.25h-1.661a1.985 1.985 0 0 1 -.654-.261c0 .06-.016.119-.016.181a2.134 2.134 0 0 0 1.67 2.08h1.66a6.869 6.869 0 0 0 2.02-.25c2.99-.91 4.65-3.83 4.65-7.25a2.481 2.481 0 0 0 -1-1.984z" fill="#ffdfb8"/><path d="m9 7.33a1.7 1.7 0 0 0 -1.33-1.66 2.77 2.77 0 0 1 -1.74-.66 2.573 2.573 0 0 1 -.93-2.01 2 2 0 0 0 -3.829-.807 1.968 1.968 0 0 1 .979-.183 2 2 0 0 1 1.85 1.99 2.573 2.573 0 0 0 .93 2.01 2.77 2.77 0 0 0 1.74.66 1.7 1.7 0 0 1 1.33 1.66 1.742 1.742 0 0 1 -.1.578 1.693 1.693 0 0 0 1.1-1.578z" fill="#ffdfb8"/><path d="m22 21.92a2.146 2.146 0 0 0 -1.67-2.09 3.505 3.505 0 0 1 -2.17-.82 3.2 3.2 0 0 1 -1.16-2.51 2.493 2.493 0 0 0 -4.686-1.189 2.488 2.488 0 0 1 3.686 2.189 3.2 3.2 0 0 0 1.16 2.51 3.505 3.505 0 0 0 2.17.82 2.12 2.12 0 0 1 1.449 3.014 2.152 2.152 0 0 0 1.221-1.924z" fill="#ffdfb8"/><path d="m38.92 1h-3a1 1 0 0 1 .96 1.45l-2.2 4.06-.736 1.363a21.934 21.934 0 0 0 3.736-1.363l2.2-4.06a1 1 0 0 0 -.96-1.45z" fill="#ffdfb8"/><path d="m33 9.62-.86 1.59a3.408 3.408 0 0 1 -1.64 1.474 3.736 3.736 0 0 0 1.5.316 3.552 3.552 0 0 0 3.14-1.79l.86-1.59 1.68-3.11a21.934 21.934 0 0 1 -3.736 1.363z" fill="#fff6b7"/><path d="m41 31a1 1 0 0 0 -1 1v10a1.987 1.987 0 0 1 -1 1.721 2 2 0 0 0 3-1.721v-10a1 1 0 0 0 -1-1z" fill="#ffe16e"/><path d="m46 26h-2a2.005 2.005 0 0 1 2 2v9a1.955 1.955 0 0 1 -.59 1.41 1.905 1.905 0 0 1 -.41.31 2 2 0 0 0 3-1.72v-9a2.005 2.005 0 0 0 -2-2z" fill="#ffe16e"/><path d="m43 31a1 1 0 0 0 -1 1h2a1 1 0 0 0 -1-1z" fill="#d8d1c5"/><path d="m44 37v-5h-2v9.72a2 2 0 0 0 3-1.72v-1.28a2 2 0 0 1 -1-1.72z" fill="#c2b8af"/><path d="m35 27.999h3v4h-3z" fill="#d8d1c5"/><path d="m32 16a3.552 3.552 0 0 0 3.14-1.79l.86-1.59v-3l-.86 1.59a3.648 3.648 0 0 1 -6.14.217c-.047-.072-.1-.141-.14-.217l-1.76-3.26-.1.05v20h9v-2h-5a2 2 0 0 1 -2-2v-7.449a.991.991 0 0 1 1.408-.906 3.719 3.719 0 0 0 1.592.355z" fill="#ffbd50"/><path d="m43.277 55.66a3.054 3.054 0 0 1 -2.277 1.34 2.377 2.377 0 0 0 -1.43 1.13 3.77 3.77 0 0 0 -.57 1.87c0 1.21.86 2.77 2 3h3a2.562 2.562 0 0 1 0-5 3.935 3.935 0 0 0 1.369-.269 3.338 3.338 0 0 1 -2.092-2.071z" fill="#caa473"/><path d="m38 42v-10h-24a13.476 13.476 0 0 0 -6 11.21v.79a16 16 0 0 0 16 16h3c-13.8-2.51-15.009-11.706-13.993-18.214a8.011 8.011 0 0 1 7.911-6.786h12.082a2 2 0 0 1 2 2v7.888a2.077 2.077 0 0 0 1.823 2.1 2.014 2.014 0 0 0 2.177-1.988v-1.28a2 2 0 0 1 -1-1.72z" fill="#c2b8af"/><path d="m24 60h-3v1a2.006 2.006 0 0 0 2 2h4v-3z" fill="#867e70"/><ellipse cx="50.684" cy="38.694" fill="#f7fafd" rx="1.642" ry="2.285" transform="matrix(.707 -.707 .707 .707 -12.512 47.196)"/><ellipse cx="51.682" cy="42.707" fill="#f7fafd" rx=".825" ry="1.148" transform="matrix(.707 -.707 .707 .707 -15.059 49.078)"/><ellipse cx="44.427" cy="28.208" fill="#f7fafd" rx=".413" ry=".574" transform="matrix(.707 -.707 .707 .707 -6.929 39.696)"/><g fill="#e7c699"><ellipse cx="30.121" cy="2.75" rx=".413" ry=".574"/><ellipse cx="27.375" cy="3.25" rx=".825" ry="1.148" transform="matrix(.707 -.707 .707 .707 5.726 20.317)"/><ellipse cx="34.121" cy="3.75" rx=".413" ry=".574"/><ellipse cx="30.121" cy="5.75" rx=".413" ry=".574"/><ellipse cx="32.121" cy="2.75" rx=".413" ry=".574" transform="matrix(.707 -.707 .707 .707 7.457 23.511)"/><ellipse cx="33.121" cy="6.75" rx=".413" ry=".574" transform="matrix(.707 -.707 .707 .707 4.922 25.388)"/></g><rect fill="#fff6b7" height="6" rx=".5" width="1" x="34" y="19"/><rect fill="#fff6b7" height="2" rx=".5" width="1" x="34" y="16"/><rect fill="#fff6b7" height="6" rx=".5" width="1" x="46" y="30.999"/><rect fill="#fff6b7" height="2" rx=".5" width="1" x="46" y="27.999"/></g></svg>