<svg height="512" viewBox="0 0 64 64" width="512" xmlns="http://www.w3.org/2000/svg"><g id="_16-textured_vegetable_protein" data-name="16-textured vegetable protein"><path d="m32 1a31 31 0 1 0 31 31 31 31 0 0 0 -31-31zm0 52a21 21 0 1 1 21-21 21.005 21.005 0 0 1 -21 21z" fill="#d0c6b8"/><circle cx="32" cy="32" fill="#f7f4ec" r="21"/><path d="m32 9a23 23 0 1 0 23 23 23.006 23.006 0 0 0 -23-23zm0 44a21 21 0 1 1 21-21 21.005 21.005 0 0 1 -21 21z" fill="#d8d1c5"/><path d="m45 44h8a1 1 0 0 1 1 1v8a1 1 0 0 1 -1 1h-8a1 1 0 0 1 -1-1v-8a1 1 0 0 1 1-1z" fill="#ffecd4"/><path d="m45 10h8a1 1 0 0 1 1 1v8a1 1 0 0 1 -1 1h-8a1 1 0 0 1 -1-1v-8a1 1 0 0 1 1-1z" fill="#ffecd4"/><path d="m51 7h5a2.006 2.006 0 0 1 2 2v7l-3.41 3.41a2.006 2.006 0 0 1 -1.42.59h-.17a1 1 0 0 0 1-1v-8a1 1 0 0 0 -1-1h-8a1 1 0 0 0 -1 1v-.17a2.006 2.006 0 0 1 .59-1.42l3.41-2.41z" fill="#dbb27d"/><path d="m51 24h5a2.006 2.006 0 0 1 2 2v7l-3.41 3.41a2.006 2.006 0 0 1 -1.42.59h-.17a1 1 0 0 0 1-1v-8a1 1 0 0 0 -1-1h-8a1 1 0 0 0 -1 1v-.17a2.006 2.006 0 0 1 .59-1.42l3.41-2.41z" fill="#dbb27d"/><path d="m45 27h8a1 1 0 0 1 1 1v8a1 1 0 0 1 -1 1h-8a1 1 0 0 1 -1-1v-8a1 1 0 0 1 1-1z" fill="#ffecd4"/><path d="m51 41h5a2.006 2.006 0 0 1 2 2v7l-3.41 3.41a1.835 1.835 0 0 1 -.6.41 1.956 1.956 0 0 1 -.82.18h-.17a1 1 0 0 0 1-1v-8a1 1 0 0 0 -1-1h-8a1 1 0 0 0 -1 1v-.17a2.006 2.006 0 0 1 .59-1.42l3.41-2.41z" fill="#dbb27d"/><path d="m56 7h-8l-3.41 2.41a2.006 2.006 0 0 0 -.59 1.42v.17a1 1 0 0 1 1-1h8a.99.99 0 0 1 .85.506l3.45-3.015a1.985 1.985 0 0 0 -1.3-.491z" fill="#f7d5a9"/><g fill="#ffdfb8"><ellipse cx="49.121" cy="17.75" rx=".413" ry=".574"/><ellipse cx="46.375" cy="16.25" rx=".825" ry="1.148"/><ellipse cx="52.375" cy="17.25" rx=".825" ry="1.148"/><ellipse cx="47.121" cy="11.75" rx=".574" ry=".413" transform="matrix(.707 -.707 .707 .707 5.484 36.747)"/><ellipse cx="51.375" cy="12.25" rx="1.719" ry="1.235" transform="matrix(.707 -.707 .707 .707 6.376 39.9)"/></g><path d="m56 24h-8l-3.41 2.41a2.006 2.006 0 0 0 -.59 1.42v.17a1 1 0 0 1 1-1h8a.99.99 0 0 1 .85.506l3.45-3.015a1.985 1.985 0 0 0 -1.3-.491z" fill="#f7d5a9"/><ellipse cx="49.121" cy="34.75" fill="#ffdfb8" rx=".413" ry=".574"/><ellipse cx="46.375" cy="33.25" fill="#ffdfb8" rx=".825" ry="1.148"/><ellipse cx="52.375" cy="34.25" fill="#ffdfb8" rx=".825" ry="1.148"/><ellipse cx="47.121" cy="28.75" fill="#ffdfb8" rx=".574" ry=".413" transform="matrix(.707 -.707 .707 .707 -6.533 41.722)"/><ellipse cx="51.375" cy="29.25" fill="#ffdfb8" rx="1.719" ry="1.235" transform="matrix(.707 -.707 .707 .707 -5.641 44.875)"/><path d="m56 41h-8l-3.41 2.41a2.006 2.006 0 0 0 -.59 1.42v.17a1 1 0 0 1 1-1h8a.99.99 0 0 1 .85.506l3.45-3.015a1.985 1.985 0 0 0 -1.3-.491z" fill="#f7d5a9"/><ellipse cx="49.121" cy="51.75" fill="#ffdfb8" rx=".413" ry=".574"/><ellipse cx="46.375" cy="50.25" fill="#ffdfb8" rx=".825" ry="1.148"/><ellipse cx="52.375" cy="51.25" fill="#ffdfb8" rx=".825" ry="1.148"/><ellipse cx="47.121" cy="45.75" fill="#ffdfb8" rx=".574" ry=".413" transform="matrix(.707 -.707 .707 .707 -18.549 46.697)"/><ellipse cx="51.375" cy="46.25" fill="#ffdfb8" rx="1.719" ry="1.235" transform="matrix(.707 -.707 .707 .707 -17.658 49.85)"/><path d="m50 54h2v9h-2z" fill="#957a56"/><path d="m50 37h2v6h-2z" fill="#957a56"/><path d="m50 20h2v6h-2z" fill="#957a56"/><path d="m50 4h2v5h-2z" fill="#957a56"/><path d="m27 44h8a1 1 0 0 1 1 1v8a1 1 0 0 1 -1 1h-8a1 1 0 0 1 -1-1v-8a1 1 0 0 1 1-1z" fill="#ffecd4"/><path d="m27 10h8a1 1 0 0 1 1 1v8a1 1 0 0 1 -1 1h-8a1 1 0 0 1 -1-1v-8a1 1 0 0 1 1-1z" fill="#ffecd4"/><path d="m33 7h5a2.006 2.006 0 0 1 2 2v7l-3.41 3.41a2.006 2.006 0 0 1 -1.42.59h-.17a1 1 0 0 0 1-1v-8a1 1 0 0 0 -1-1h-8a1 1 0 0 0 -1 1v-.17a2.006 2.006 0 0 1 .59-1.42l3.41-2.41z" fill="#dbb27d"/><path d="m33 24h5a2.006 2.006 0 0 1 2 2v7l-3.41 3.41a2.006 2.006 0 0 1 -1.42.59h-.17a1 1 0 0 0 1-1v-8a1 1 0 0 0 -1-1h-8a1 1 0 0 0 -1 1v-.17a2.006 2.006 0 0 1 .59-1.42l3.41-2.41z" fill="#dbb27d"/><path d="m27 27h8a1 1 0 0 1 1 1v8a1 1 0 0 1 -1 1h-8a1 1 0 0 1 -1-1v-8a1 1 0 0 1 1-1z" fill="#ffecd4"/><path d="m33 41h5a2.006 2.006 0 0 1 2 2v7l-3.41 3.41a1.835 1.835 0 0 1 -.6.41 1.956 1.956 0 0 1 -.82.18h-.17a1 1 0 0 0 1-1v-8a1 1 0 0 0 -1-1h-8a1 1 0 0 0 -1 1v-.17a2.006 2.006 0 0 1 .59-1.42l3.41-2.41z" fill="#dbb27d"/><path d="m38 7h-8l-3.41 2.41a2.006 2.006 0 0 0 -.59 1.42v.17a1 1 0 0 1 1-1h8a.99.99 0 0 1 .85.506l3.45-3.015a1.985 1.985 0 0 0 -1.3-.491z" fill="#f7d5a9"/><ellipse cx="31.121" cy="17.75" fill="#ffdfb8" rx=".413" ry=".574"/><ellipse cx="28.375" cy="16.25" fill="#ffdfb8" rx=".825" ry="1.148"/><ellipse cx="34.375" cy="17.25" fill="#ffdfb8" rx=".825" ry="1.148"/><ellipse cx="29.121" cy="11.75" fill="#ffdfb8" rx=".574" ry=".413" transform="matrix(.707 -.707 .707 .707 .216 24.023)"/><ellipse cx="33.375" cy="12.25" fill="#ffdfb8" rx="1.719" ry="1.235" transform="matrix(.707 -.707 .707 .707 1.108 27.177)"/><path d="m38 24h-8l-3.41 2.41a2.006 2.006 0 0 0 -.59 1.42v.17a1 1 0 0 1 1-1h8a.99.99 0 0 1 .85.506l3.45-3.015a1.985 1.985 0 0 0 -1.3-.491z" fill="#f7d5a9"/><ellipse cx="31.121" cy="34.75" fill="#ffdfb8" rx=".413" ry=".574"/><ellipse cx="28.375" cy="33.25" fill="#ffdfb8" rx=".825" ry="1.148"/><ellipse cx="34.375" cy="34.25" fill="#ffdfb8" rx=".825" ry="1.148"/><ellipse cx="29.121" cy="28.75" fill="#ffdfb8" rx=".574" ry=".413" transform="matrix(.707 -.707 .707 .707 -11.8 28.998)"/><ellipse cx="33.375" cy="29.25" fill="#ffdfb8" rx="1.719" ry="1.235" transform="matrix(.707 -.707 .707 .707 -10.909 32.152)"/><path d="m38 41h-8l-3.41 2.41a2.006 2.006 0 0 0 -.59 1.42v.17a1 1 0 0 1 1-1h8a.99.99 0 0 1 .85.506l3.45-3.015a1.985 1.985 0 0 0 -1.3-.491z" fill="#f7d5a9"/><ellipse cx="31.121" cy="51.75" fill="#ffdfb8" rx=".413" ry=".574"/><ellipse cx="28.375" cy="50.25" fill="#ffdfb8" rx=".825" ry="1.148"/><ellipse cx="34.375" cy="51.25" fill="#ffdfb8" rx=".825" ry="1.148"/><ellipse cx="29.121" cy="45.75" fill="#ffdfb8" rx=".574" ry=".413" transform="matrix(.707 -.707 .707 .707 -23.817 33.973)"/><ellipse cx="33.375" cy="46.25" fill="#ffdfb8" rx="1.719" ry="1.235" transform="matrix(.707 -.707 .707 .707 -22.925 37.127)"/><path d="m32 54h2v9h-2z" fill="#957a56"/><path d="m32 37h2v6h-2z" fill="#957a56"/><path d="m32 20h2v6h-2z" fill="#957a56"/><path d="m32 4h2v5h-2z" fill="#957a56"/><path d="m9 44h8a1 1 0 0 1 1 1v8a1 1 0 0 1 -1 1h-8a1 1 0 0 1 -1-1v-8a1 1 0 0 1 1-1z" fill="#ffecd4"/><path d="m9 10h8a1 1 0 0 1 1 1v8a1 1 0 0 1 -1 1h-8a1 1 0 0 1 -1-1v-8a1 1 0 0 1 1-1z" fill="#ffecd4"/><path d="m15 7h5a2.006 2.006 0 0 1 2 2v7l-3.41 3.41a2.006 2.006 0 0 1 -1.42.59h-.17a1 1 0 0 0 1-1v-8a1 1 0 0 0 -1-1h-8a1 1 0 0 0 -1 1v-.17a2.006 2.006 0 0 1 .59-1.42l3.41-2.41z" fill="#dbb27d"/><path d="m15 24h5a2.006 2.006 0 0 1 2 2v7l-3.41 3.41a2.006 2.006 0 0 1 -1.42.59h-.17a1 1 0 0 0 1-1v-8a1 1 0 0 0 -1-1h-8a1 1 0 0 0 -1 1v-.17a2.006 2.006 0 0 1 .59-1.42l3.41-2.41z" fill="#dbb27d"/><path d="m9 27h8a1 1 0 0 1 1 1v8a1 1 0 0 1 -1 1h-8a1 1 0 0 1 -1-1v-8a1 1 0 0 1 1-1z" fill="#ffecd4"/><path d="m15 41h5a2.006 2.006 0 0 1 2 2v7l-3.41 3.41a1.835 1.835 0 0 1 -.6.41 1.956 1.956 0 0 1 -.82.18h-.17a1 1 0 0 0 1-1v-8a1 1 0 0 0 -1-1h-8a1 1 0 0 0 -1 1v-.17a2.006 2.006 0 0 1 .59-1.42l3.41-2.41z" fill="#dbb27d"/><path d="m20 7h-8l-3.41 2.41a2.006 2.006 0 0 0 -.59 1.42v.17a1 1 0 0 1 1-1h8a.99.99 0 0 1 .85.506l3.45-3.015a1.985 1.985 0 0 0 -1.3-.491z" fill="#f7d5a9"/><ellipse cx="13.121" cy="17.75" fill="#ffdfb8" rx=".413" ry=".574"/><ellipse cx="10.375" cy="16.25" fill="#ffdfb8" rx=".825" ry="1.148"/><ellipse cx="16.375" cy="17.25" fill="#ffdfb8" rx=".825" ry="1.148"/><ellipse cx="11.121" cy="11.75" fill="#ffdfb8" rx=".574" ry=".413" transform="matrix(.707 -.707 .707 .707 -5.051 11.3)"/><ellipse cx="15.375" cy="12.25" fill="#ffdfb8" rx="1.719" ry="1.235" transform="matrix(.707 -.707 .707 .707 -4.16 14.453)"/><path d="m20 24h-8l-3.41 2.41a2.006 2.006 0 0 0 -.59 1.42v.17a1 1 0 0 1 1-1h8a.99.99 0 0 1 .85.506l3.45-3.015a1.985 1.985 0 0 0 -1.3-.491z" fill="#f7d5a9"/><ellipse cx="13.121" cy="34.75" fill="#ffdfb8" rx=".413" ry=".574"/><ellipse cx="10.375" cy="33.25" fill="#ffdfb8" rx=".825" ry="1.148"/><ellipse cx="16.375" cy="34.25" fill="#ffdfb8" rx=".825" ry="1.148"/><ellipse cx="11.121" cy="28.75" fill="#ffdfb8" rx=".574" ry=".413" transform="matrix(.707 -.707 .707 .707 -17.068 16.275)"/><ellipse cx="15.375" cy="29.25" fill="#ffdfb8" rx="1.719" ry="1.235" transform="matrix(.707 -.707 .707 .707 -16.176 19.428)"/><path d="m20 41h-8l-3.41 2.41a2.006 2.006 0 0 0 -.59 1.42v.17a1 1 0 0 1 1-1h8a.99.99 0 0 1 .85.506l3.45-3.015a1.985 1.985 0 0 0 -1.3-.491z" fill="#f7d5a9"/><ellipse cx="13.121" cy="51.75" fill="#ffdfb8" rx=".413" ry=".574"/><ellipse cx="10.375" cy="50.25" fill="#ffdfb8" rx=".825" ry="1.148"/><ellipse cx="16.375" cy="51.25" fill="#ffdfb8" rx=".825" ry="1.148"/><ellipse cx="11.121" cy="45.75" fill="#ffdfb8" rx=".574" ry=".413" transform="matrix(.707 -.707 .707 .707 -29.085 21.25)"/><ellipse cx="15.375" cy="46.25" fill="#ffdfb8" rx="1.719" ry="1.235" transform="matrix(.707 -.707 .707 .707 -28.193 24.403)"/><path d="m14 54h2v9h-2z" fill="#957a56"/><path d="m14 37h2v6h-2z" fill="#957a56"/><path d="m14 20h2v6h-2z" fill="#957a56"/><path d="m14 4h2v5h-2z" fill="#957a56"/><path d="m41 21a1 1 0 0 0 1 1h5v2.707l1-.707h1v-2h1v-.773c-.25-.417-.505-.83-.782-1.227h-4.218a1 1 0 0 1 -1-1v-4.218a20.931 20.931 0 0 0 -3-1.732z" fill="#e0dbd3"/><path d="m49 41v-2h1v-2h-5a1 1 0 0 1 -1-1v-8.17a2.006 2.006 0 0 1 .59-1.42l.58-.41h-.17l-3.41 2.41a2.006 2.006 0 0 0 -.59 1.42v8.17a1 1 0 0 0 1 1h5v2.707l1-.707z" fill="#e0dbd3"/><path d="m50 56v-2h-5a1 1 0 0 1 -1-1v-3.782a20.931 20.931 0 0 1 -3 1.732v4.05a1 1 0 0 0 1 1h5v3.13q1.025-.569 2-1.211v-1.919z" fill="#b4aaa1"/><path d="m44 45v-.17a2.006 2.006 0 0 1 .59-1.42l.58-.41h-.17l-3.41 2.41a2.006 2.006 0 0 0 -.59 1.42v4.12a20.931 20.931 0 0 0 3-1.732z" fill="#e0dbd3"/><path d="m50 21.227v-1.227h-.782c.282.4.532.81.782 1.227z" fill="#b4aaa1"/><path d="m41.59 11.41a2.006 2.006 0 0 0 -.59 1.42v.22a20.931 20.931 0 0 1 3 1.732v-3.952a2.006 2.006 0 0 1 .59-1.42l.58-.41h-.17z" fill="#b4aaa1"/><path d="m52 20v1l1-1z" fill="#b4aaa1"/><path d="m47 7.707 1-.707h1v-.919l-.127-.081h-1.873z" fill="#b4aaa1"/><path d="m53 37h-.625c-.069.282-.136.564-.216.841z" fill="#b4aaa1"/><path d="m52 38 .159-.159c.08-.277.147-.559.216-.841h-.375z" fill="#e0dbd3"/><path d="m52 55 1-1h-1z" fill="#b4aaa1"/><path d="m34 37v1l1-1z" fill="#e0dbd3"/><path d="m32 56v-2h-5a1 1 0 0 1 -1-1v-.882a20.719 20.719 0 0 1 -3-1.168v4.05a1 1 0 0 0 1 1h5v6.853c.66.063 1.328.1 2 .122v-6.975z" fill="#b4aaa1"/><path d="m26 45v-.17a2.006 2.006 0 0 1 .59-1.42l.58-.41h-.17l-3.41 2.41a2.006 2.006 0 0 0 -.59 1.42v4.12a20.719 20.719 0 0 0 3 1.168z" fill="#e0dbd3"/><path d="m34 20v1l1-1z" fill="#e0dbd3"/><path d="m29 7.707 1-.707h1v-1h-2z" fill="#b4aaa1"/><path d="m26 11v-.17a2.006 2.006 0 0 1 .59-1.42l.58-.41h-.17l-3.41 2.41a2.006 2.006 0 0 0 -.59 1.42v.22a20.6 20.6 0 0 1 3-1.168z" fill="#b4aaa1"/><path d="m23 21a1 1 0 0 0 1 1h5v2.707l1-.707h1v-2h1v-2h-5a1 1 0 0 1 -1-1v-7.118a20.6 20.6 0 0 0 -3 1.168z" fill="#e0dbd3"/><path d="m24 39h5v2.707l1-.707h1v-2h1v-2h-5a1 1 0 0 1 -1-1v-8.17a2.006 2.006 0 0 1 .59-1.42l.58-.41h-.17l-3.41 2.41a2.006 2.006 0 0 0 -.59 1.42v8.17a1 1 0 0 0 1 1z" fill="#e0dbd3"/><path d="m34 55 1-1h-1z" fill="#b4aaa1"/><path d="m16 55 1-1h-1z" fill="#b4aaa1"/><path d="m14 56v-2h-3.837a31.324 31.324 0 0 0 2.837 2.486v-.486z" fill="#b4aaa1"/><path d="m8 46v-1.17a2.006 2.006 0 0 1 .59-1.42l.58-.41h-.17l-3.41 2.41a2.006 2.006 0 0 0 -.59 1.42v.4a31.1 31.1 0 0 0 3 4.393z" fill="#b4aaa1"/><path d="m16 37v1l1-1z" fill="#e0dbd3"/><path d="m11.625 37h-2.625a1 1 0 0 1 -1-1v-8.17a2.006 2.006 0 0 1 .59-1.42l.58-.41h-.17l-3.41 2.41a2.006 2.006 0 0 0 -.59 1.42v8.17a1 1 0 0 0 1 1h5v2.707l1-.707h1v-.1a20.846 20.846 0 0 1 -1.375-3.9z" fill="#b4aaa1"/><path d="m13 39h1v-2h-2.375a20.846 20.846 0 0 0 1.375 3.9z" fill="#e0dbd3"/><path d="m16 20v1l1-1z" fill="#e0dbd3"/><path d="m6 22h5v2.707l1-.707h.588c.126-.3.272-.6.412-.9v-1.1h.531c.145-.266.314-.514.469-.773v-1.227h-5a1 1 0 0 1 -1-1v-6.619a31.1 31.1 0 0 0 -3 4.393v4.226a1 1 0 0 0 1 1z" fill="#b4aaa1"/><path d="m13 23.1c-.14.3-.286.592-.412.9h.412z" fill="#e0dbd3"/><path d="m14 22v-.773c-.155.259-.324.507-.469.773z" fill="#e0dbd3"/></g></svg>