<svg height="512" viewBox="0 0 64 64" width="512" xmlns="http://www.w3.org/2000/svg"><g id="_13-vegetable" data-name="13-vegetable"><circle cx="32" cy="44" fill="#f7f4ec" r="11"/><path d="m28.02 19.59a4 4 0 0 1 3.98-3.59 2.427 2.427 0 0 1 1.85.63 3.993 3.993 0 0 0 -1.85 3.37v4a3.463 3.463 0 0 0 .11.92l-.11.08-4-3-.9.67a7.619 7.619 0 0 0 .87-3.08z" fill="#dd1212"/><path d="m43.34 17.8a3.957 3.957 0 0 1 .66 2.2l-.75 3 .02.04-3.27 1.96-.11-.08a3.463 3.463 0 0 0 .11-.92v-4a4.025 4.025 0 0 0 -1.17-2.83 3.937 3.937 0 0 0 -.68-.54 2.427 2.427 0 0 1 1.85-.63 3.982 3.982 0 0 1 3.34 1.8z" fill="#dd1212"/><path d="m38.15 16.63a3.937 3.937 0 0 1 .68.54 4.025 4.025 0 0 1 1.17 2.83v4a3.463 3.463 0 0 1 -.11.92l-3.89-2.92-3.89 2.92a3.463 3.463 0 0 1 -.11-.92v-4a4 4 0 0 1 6.15-3.37z" fill="#f5791b"/><path d="m23.31 13.37c2.77.68 4.69 2.39 4.69 5.63a5.683 5.683 0 0 1 -.03.59 7.619 7.619 0 0 1 -.87 3.08l-3.1 2.33-5-3-4 3-1.02-.68.02-.03a7.936 7.936 0 0 1 -2-5.29 6.236 6.236 0 0 1 .07-.99c.35-2.6 2.15-4.04 4.62-4.64a13.375 13.375 0 0 1 3.31-.37 13.375 13.375 0 0 1 3.31.37z" fill="#dd1212"/><path d="m24.31 11.38-1 1.99a13.375 13.375 0 0 0 -3.31-.37 13.375 13.375 0 0 0 -3.31.37l-1.69-3.37 3 1 .11-.17 1.89-2.83 2 3 3-1z" fill="#d0f669"/><path d="m18.11 10.83-.11.17-3-1 1.69 3.37c-2.47.6-4.27 2.04-4.62 4.64l-.07-.01a2.791 2.791 0 0 1 -3-3c0-1.63 1.36-2.52 3.04-2.52a3.273 3.273 0 0 1 .45.04 1.944 1.944 0 0 1 -.49-1.52 3 3 0 0 1 3-3c.02 1.46 2 2 3 2a2.913 2.913 0 0 0 .11.83z" fill="#50761e"/><path d="m33 7.98v.02c-.02 1.46-2 2-3 2a2.9 2.9 0 0 1 -3 3 2.817 2.817 0 0 1 -2.69-1.62l.69-1.38-3 1-2-3-1.89 2.83a2.913 2.913 0 0 1 -.11-.83c-1 0-2.98-.54-3-2v-.02c0-2.98 1.34-2.98 3-2.98h1c-1 0-1-.85-1-1.35a2.835 2.835 0 0 1 3-2.65 3.747 3.747 0 0 1 2.25.62 1.743 1.743 0 0 1 .75 1.38c0-1 1-2 3-2a2.835 2.835 0 0 1 3 2.65c0 .5 0 1.35-1 1.35h1c1.66 0 3 0 3 2.98z" fill="#7fb734"/><path d="m43.33 3c2.58 0 3.17 2.5 4.67 4-3.32 0-6-1.34-6-3 0-.55.6-1 1.33-1z" fill="#7fb734"/><path d="m52.67 3c.73 0 1.33.45 1.33 1 0 1.66-2.68 3-6 3 1.5-1.5 2.09-4 4.67-4z" fill="#7fb734"/><path d="m50 3-2 4-2-4a1.955 1.955 0 0 1 .59-1.41 1.955 1.955 0 0 1 1.41-.59 2.006 2.006 0 0 1 2 2z" fill="#ace54b"/><path d="m52.47 21-.12 2 .06.07-2.41 1.93-5-3-1.73 1.04-.02-.04.75-3a3.957 3.957 0 0 0 -.66-2.2l-.05-.8h9.41z" fill="#f5791b"/><path d="m53 12-.3 5h-9.41l-.29-5z" fill="#ff9b3a"/><path d="m53 12h-10a5 5 0 1 1 10 0z" fill="#ffbd50"/><path d="m31 47 .12.25c-1.18 1.1-3.45 1.07-5.16-.64-1.74-1.74-2.32-5.81-1.74-6.39z" fill="#99d83e"/><path d="m55 21-4 42h-5l4-38 2.41-1.93z" fill="#dbb27d"/><path d="m27.1 22.67.9-.67 4 3 .11-.08 3.89-2.92 3.89 2.92.11.08 3.27-1.96 1.73-1.04 5 3-4 38h-28l-3-38 4-3 5 3zm15.9 21.33a11 11 0 1 0 -11 11 11.018 11.018 0 0 0 11-11z" fill="#ffdfb8"/><path d="m39.78 40.22c.58.58 0 4.65-1.74 6.39-1.71 1.71-3.98 1.74-5.16.64l.12-.25z" fill="#99d83e"/><path d="m39.78 40.22-6.78 6.78-.12.25a.435.435 0 0 1 -.07-.06 2.963 2.963 0 0 1 -.81-2.11 4.445 4.445 0 0 1 1.39-3.12c1.74-1.74 5.81-2.32 6.39-1.74z" fill="#c1f15d"/><path d="m32 45.08a2.963 2.963 0 0 1 -.81 2.11.435.435 0 0 1 -.07.06l-.12-.25-6.78-6.78c.58-.58 4.65 0 6.39 1.74a4.445 4.445 0 0 1 1.39 3.12z" fill="#c1f15d"/><path d="m15 25 3 38h-5l-4-42 4.98 3.32z" fill="#dbb27d"/><path d="m38 14.06v2.48a3.974 3.974 0 0 0 -4 0v-2.48a2.032 2.032 0 0 1 1.84-2.05.808.808 0 0 1 .16-.01 1.964 1.964 0 0 1 1.41.6 2.072 2.072 0 0 1 .59 1.46z" fill="#99d83e"/><path d="m32 16a4 4 0 0 0 -3.98 3.59c-.01.14-.02.27-.02.41l.62 2.46-.62-.46-.9.67a7.619 7.619 0 0 0 .87-3.08 5.683 5.683 0 0 0 .03-.59c0-3.24-1.92-4.95-4.69-5.63l1-1.99a2.817 2.817 0 0 0 2.69 1.62 2.9 2.9 0 0 0 3-3c1 0 2.98-.54 3-2a3 3 0 0 1 3 3 2.178 2.178 0 0 1 -.16 1v.01a2.032 2.032 0 0 0 -1.84 2.05v2.48l-.15.09a2.427 2.427 0 0 0 -1.85-.63z" fill="#50761e"/><path d="m38.83 17.17a4 4 0 0 0 -4.98-.54 3.993 3.993 0 0 0 -1.85 3.37v2a4 4 0 0 1 6.15-3.37 3.937 3.937 0 0 1 .68.54 4.025 4.025 0 0 1 1.17 2.83v-2a4.025 4.025 0 0 0 -1.17-2.83z" fill="#ff9b3a"/><path d="m18.11 10.83a2.5 2.5 0 0 1 -.07-.34 3.217 3.217 0 0 1 -.04-.49 4.106 4.106 0 0 1 -.66-.068 3.874 3.874 0 0 1 -1.615-.639 3 3 0 0 0 -1.725 2.707 1.944 1.944 0 0 0 .49 1.52 3.273 3.273 0 0 0 -.45-.04c-1.68 0-3.04.89-3.04 2.52a3.065 3.065 0 0 0 .63 1.972c.123.011.243.028.37.028l.07.01c.35-2.6 2.15-4.04 4.62-4.64l-1.69-3.37 3 1z" fill="#3a6206"/><path d="m21 4a3.747 3.747 0 0 1 2.25.62 1.743 1.743 0 0 1 .75 1.38c0-1 1-2 3-2a3.144 3.144 0 0 1 2.3.966c.7-.158.7-.873.7-1.316a2.835 2.835 0 0 0 -3-2.65c-2 0-3 1-3 2a1.743 1.743 0 0 0 -.75-1.38 3.747 3.747 0 0 0 -2.25-.62 2.835 2.835 0 0 0 -3 2.65c0 .443 0 1.158.7 1.316a3.144 3.144 0 0 1 2.3-.966z" fill="#99d83e"/><path d="m18 8h1c-1 0-1-.85-1-1.35a2.445 2.445 0 0 1 .666-1.65h-.666c-1.66 0-3 0-3 2.98v.02a1.487 1.487 0 0 0 .368.958c.509-.958 1.495-.958 2.632-.958z" fill="#99d83e"/><path d="m33 8v-.02c0-2.98-1.34-2.98-3-2.98h-.666a2.445 2.445 0 0 1 .666 1.65c0 .5 0 1.35-1 1.35h1c1.137 0 2.123 0 2.632.958a1.487 1.487 0 0 0 .368-.958z" fill="#99d83e"/><path d="m32.81 47.19a2.664 2.664 0 0 1 -.554-.846 1.029 1.029 0 0 0 -.151.209l-.1.211-.105-.211a1.029 1.029 0 0 0 -.151-.209 2.664 2.664 0 0 1 -.554.846.435.435 0 0 1 -.07.06 2.683 2.683 0 0 1 -.856.515l.731 1.471v2.764h2v-2.764l.736-1.471a2.683 2.683 0 0 1 -.856-.515.435.435 0 0 1 -.07-.06z" fill="#7fb734"/><path d="m48 20.468a2 2 0 0 0 3.029 1.715l1.421-.853.02-.33.23-4h-4.7z" fill="#ff9b3a"/><path d="m48 13.5v3.5h4.7l.3-5h-5.35a3.464 3.464 0 0 1 .35 1.5z" fill="#ffbd50"/><path d="m47.65 12h5.35a4.992 4.992 0 0 0 -9.655-1.789 3.433 3.433 0 0 1 4.305 1.789z" fill="#ffe16e"/><path d="m40 23-4-3-4 3v1a3.463 3.463 0 0 0 .11.92l3.89-2.92 3.89 2.92a3.463 3.463 0 0 0 .11-.92z" fill="#db6a24"/><path d="m43.943 20.227-1.943 1.367v-.594a4 4 0 0 0 -3.28-3.927c.036.033.075.063.11.1a4.025 4.025 0 0 1 1.17 2.827v4a3.463 3.463 0 0 1 -.11.92l.11.08 2-1.2 1.27-.761-.02-.039z" fill="#c50d0d"/><path d="m30 21v.5l-2-1.5.62 2.46-.62-.46 2 1.5 2 1.5.11-.08a3.463 3.463 0 0 1 -.11-.92v-4a3.982 3.982 0 0 1 .083-.77c.008-.042.015-.085.024-.127a4 4 0 0 1 .236-.71c.007-.017.016-.034.024-.051a3.991 3.991 0 0 1 .923-1.27 3.994 3.994 0 0 0 -3.29 3.928z" fill="#c50d0d"/><path d="m37 15h1v-.94a2.072 2.072 0 0 0 -.59-1.46 1.964 1.964 0 0 0 -1.41-.6v2a1 1 0 0 0 1 1z" fill="#d0f669"/><path d="m24 22-5-3-2.428 1.456a1.7 1.7 0 0 1 -2.572-1.456 6 6 0 0 1 5.384-5.969 12.788 12.788 0 0 0 -2.694.339c-2.47.6-4.27 2.04-4.62 4.64a6.236 6.236 0 0 0 -.07.99 7.936 7.936 0 0 0 2 5.29l-.02.03 1.02.68 4-3 5 3 3.1-2.33a7.678 7.678 0 0 0 .763-2.215z" fill="#c50d0d"/><path d="m23.31 13.37a13.375 13.375 0 0 0 -3.31-.37c-.211 0-.408.024-.616.031a5.979 5.979 0 0 0 -3.031 1.2 5.973 5.973 0 0 1 1.031-.2c.208-.007.405-.031.616-.031a13.375 13.375 0 0 1 3.31.37c2.77.68 4.69 2.39 4.69 5.63a5.683 5.683 0 0 1 -.03.59c-.014.222-.048.438-.081.654l1.974-.789a7.654 7.654 0 0 0 .107-.865 5.683 5.683 0 0 0 .03-.59c0-3.24-1.92-4.95-4.69-5.63z" fill="#f93623"/><path d="m20 8-1.89 2.83-.11.17 1.025 2.05c.324-.019.64-.05.975-.05z" fill="#d0f669"/><path d="m15 10 1.69 3.37a12.315 12.315 0 0 1 2.335-.32l-1.025-2.05z" fill="#99d83e"/><path d="m20 8v5c.335 0 .651.031.975.05l1.025-2.05z" fill="#e4ffa3"/><path d="m22 11-1.025 2.05a12.315 12.315 0 0 1 2.335.32l1-1.99.69-1.38z" fill="#d0f669"/><path d="m34.881 8.681a2.96 2.96 0 0 0 -1.881-.681c-.02 1.46-2 2-3 2a2.944 2.944 0 0 1 -1.693 2.74 3.209 3.209 0 0 1 -1.307.26 3.577 3.577 0 0 1 -.484-.032 2.9 2.9 0 0 1 -1.176-.415 2.738 2.738 0 0 1 -1.03-1.173l-.6 1.189-.4.8c2.77.681 4.69 2.391 4.69 5.631a5.683 5.683 0 0 1 -.03.59 7.619 7.619 0 0 1 -.87 3.08l.9-.67.62.46-.62-2.46c0-.14.01-.27.02-.41a4 4 0 0 1 3.088-3.479 8.893 8.893 0 0 0 -.811-1.368 2.941 2.941 0 0 0 1.703-2.743c1 0 2.98-.54 3-2v-.02a6.21 6.21 0 0 0 -.119-1.299z" fill="#3a6206"/><g fill="#f7fafd"><ellipse cx="24.684" cy="16.695" rx="1.642" ry="2.286" transform="matrix(.707 -.707 .707 .707 -4.573 22.354)"/><ellipse cx="50.682" cy="10.708" rx=".825" ry="1.148" transform="matrix(.707 -.707 .707 .707 7.282 38.989)"/><ellipse cx="20.682" cy="15.708" rx=".825" ry="1.148" transform="matrix(.707 -.707 .707 .707 -5.049 19.234)"/><ellipse cx="51.427" cy="13.208" rx=".413" ry=".574" transform="matrix(.707 -.707 .707 .707 5.732 40.249)"/></g></g></svg>