<svg height="512" viewBox="0 0 64 64" width="512" xmlns="http://www.w3.org/2000/svg"><g id="_29-vegan_yogurt" data-name="29-vegan yogurt"><path d="m14.63 9.9v.1a1.953 1.953 0 0 1 -1.89 2h-.95a3.449 3.449 0 0 0 -1.65.41l-.14-.3-8.37-6.86a2.773 2.773 0 0 1 0-3.52 1.959 1.959 0 0 1 1.51-.73 1.989 1.989 0 0 1 1.51.73z" fill="#8a5a3d"/><path d="m49 45.85v.88a23.142 23.142 0 0 1 -.34 4 6.051 6.051 0 0 0 -.89.73c-1.87 1.87-3.3 5.79-2.57 8.53l-.23.06a7.47 7.47 0 0 1 -5.97 2.95h-26a7.47 7.47 0 0 1 -5.97-2.95 24.025 24.025 0 0 1 -4.03-13.32v-.88a46.335 46.335 0 0 1 4-18.85h38a46.091 46.091 0 0 1 2.99 9.21 46.471 46.471 0 0 1 1.01 9.64zm-4.01 1.9c.01-.62.08-1.68-.44-2.07a3.661 3.661 0 0 0 -2.63-.64 6 6 0 0 0 -1.47.47c-.99.41-1.98.82-2.98 1.23-.22.09-.49.26-.47.53a.571.571 0 0 0 .34.4c1.63.91 3.57.69 5.34 1.12a4.348 4.348 0 0 0 1.23.21 1.132 1.132 0 0 0 1-.69 1.765 1.765 0 0 0 .08-.56zm-.4-7.49a1.176 1.176 0 0 0 -.64-2.05 23.633 23.633 0 0 1 -4.92-1.23c-1.14-.44-2.22-1.03-3.38-1.4a16.753 16.753 0 0 0 -5.74-.55q-.4 0-.81.03c-.08 0-.15.01-.23.01a18.1 18.1 0 0 0 -3.21.32c-.64.15-1.26.36-1.92.46a18.634 18.634 0 0 1 -2.48.06 15.243 15.243 0 0 0 -3.97.58 29.518 29.518 0 0 0 -6.68 2.96c-1.52.87-4.26 2.03-3.47 4.31a5.052 5.052 0 0 0 2.02 2.3c.36.26.73.51 1.11.74v.01c.07.04.14.09.22.13.28.18.57.35.86.51.36.22.73.42 1.1.6.74.4 1.5.77 2.26 1.13.58.27 1.17.54 1.77.79a.487.487 0 0 0 .11.04c.19.08.37.15.56.22l.6.21c.29.09.58.17.87.25a9.3 9.3 0 0 0 2.35.31c3.57-.01 6.65-2.35 9.81-4.08.09-.05.17-.1.26-.14a7.146 7.146 0 0 0 2.13-1.46 8.981 8.981 0 0 1 1.03-1.26 3.581 3.581 0 0 1 1.28-.6c.17-.06.34-.11.5-.16 2.23-.72 4.47-1.43 6.69-2.15a6.087 6.087 0 0 0 1.9-.87zm-1.6 13.37a2.219 2.219 0 0 0 -.15-1.12 1.759 1.759 0 0 0 -1.22-.78 11.822 11.822 0 0 0 -2.91-.27 5.919 5.919 0 0 1 -2.14-.27c-1.67-.55-3.57.21-5.06 1.03-1.7.93-3.33 2.13-5.21 2.49-1.43.27-2.97.05-4.28.75a2 2 0 0 0 -.83.75 1.258 1.258 0 0 0 -.1 1.13 1.735 1.735 0 0 0 1.25.78 17.591 17.591 0 0 0 6.29.82c.72-.08 1.43-.26 2.15-.36 2.18-.29 4.41.11 6.59-.24a9.838 9.838 0 0 0 3.96-1.57 3.532 3.532 0 0 0 1.38-1.46 4.53 4.53 0 0 0 .28-1.68zm-20.99-21.68a1.066 1.066 0 0 0 -.99-1.05c-.8-.04-1.35-.01-2.44-.1-2.24-.2-4.49-1.18-6.69-.64a2.849 2.849 0 0 0 -1.61.99c-.61.81-.08 1.04.58 1.31a10.125 10.125 0 0 0 4.15.54c1.29-.02 4 0 5.96 0a1.041 1.041 0 0 0 1.04-1.05z" fill="#fff8f1"/><path d="m46 16a2.006 2.006 0 0 1 2 2 2.015 2.015 0 0 1 -2 2h-40a2.006 2.006 0 0 1 -2-2 2.015 2.015 0 0 1 2-2z" fill="#eeeae3"/><path d="m46 23a2.006 2.006 0 0 1 2 2 2.015 2.015 0 0 1 -2 2h-40a2.006 2.006 0 0 1 -2-2 2.015 2.015 0 0 1 2-2z" fill="#eeeae3"/><path d="m7 20h38v3h-38z" fill="#b4aaa1"/><path d="m44.55 45.68c.52.39.45 1.45.44 2.07a1.765 1.765 0 0 1 -.08.56 1.132 1.132 0 0 1 -1 .69 4.348 4.348 0 0 1 -1.23-.21c-1.77-.43-3.71-.21-5.34-1.12a.571.571 0 0 1 -.34-.4c-.02-.27.25-.44.47-.53 1-.41 1.99-.82 2.98-1.23a6 6 0 0 1 1.47-.47 3.661 3.661 0 0 1 2.63.64z" fill="#ffd1bd"/><path d="m43.95 38.21a1.176 1.176 0 0 1 .64 2.05l-.02.02a6.087 6.087 0 0 1 -1.9.87c-2.22.72-4.46 1.43-6.69 2.15a9.693 9.693 0 0 0 -2.49-6.74 5.314 5.314 0 0 0 -3.58-1.53 16.753 16.753 0 0 1 5.74.55c1.16.37 2.24.96 3.38 1.4a23.633 23.633 0 0 0 4.92 1.23z" fill="#ffd1bd"/><path d="m14.63 9.9a3.108 3.108 0 0 1 .83-2.02 2.774 2.774 0 0 1 2.01-.88 2.556 2.556 0 0 0 2.26-1.45c1.33-2.62 6.18-4.55 11.95-4.55 0 3.32 1.8 6 2.85 6a2.92 2.92 0 0 1 2.84 3 2.05 2.05 0 0 0 .55 1.41 1.831 1.831 0 0 0 1.34.59h.95a3.9 3.9 0 0 1 3.79 4h-36a4 4 0 0 1 2.14-3.59 3.449 3.449 0 0 1 1.65-.41h.95a1.953 1.953 0 0 0 1.89-2zm17.87 2.6c.91-.92.54-2.79-.84-4.16s-3.24-1.75-4.16-.84-.54 2.79.84 4.16 3.24 1.75 4.16.84z" fill="#fff8f1"/><path d="m42.84 52.51a2.219 2.219 0 0 1 .15 1.12 4.53 4.53 0 0 1 -.28 1.68 3.532 3.532 0 0 1 -1.38 1.46 9.838 9.838 0 0 1 -3.96 1.57c-2.18.35-4.41-.05-6.59.24-.72.1-1.43.28-2.15.36a17.591 17.591 0 0 1 -6.29-.82 1.735 1.735 0 0 1 -1.25-.78 1.258 1.258 0 0 1 .1-1.13 2 2 0 0 1 .83-.75c1.31-.7 2.85-.48 4.28-.75 1.88-.36 3.51-1.56 5.21-2.49 1.49-.82 3.39-1.58 5.06-1.03a5.919 5.919 0 0 0 2.14.27 11.822 11.822 0 0 1 2.91.27 1.759 1.759 0 0 1 1.22.78zm-1.84 2.49a2 2 0 0 0 -4 0 3 3 0 1 0 -3 3 3 3 0 0 0 3-3 2 2 0 0 0 4 0z" fill="#ffd1bd"/><circle cx="39" cy="55" fill="#ac7bf2" r="2"/><circle cx="34" cy="55" fill="#ac7bf2" r="3"/><path d="m38 54a1.974 1.974 0 0 1 .181-.819 2 2 0 1 0 2.638 2.638 1.974 1.974 0 0 1 -.819.181 2.006 2.006 0 0 1 -2-2z" fill="#9373ff"/><path d="m32 53c0-.083.018-.162.024-.244a2.992 2.992 0 1 0 4.951 2.488 2.988 2.988 0 0 1 -4.975-2.244z" fill="#9373ff"/><path d="m33.49 36.56a9.693 9.693 0 0 1 2.49 6.74c-.16.05-.33.1-.5.16a3.581 3.581 0 0 0 -1.28.6 8.981 8.981 0 0 0 -1.03 1.26 7.146 7.146 0 0 1 -2.13 1.46c-.09.04-.17.09-.26.14a9.778 9.778 0 0 1 -5.22-2.43 5.548 5.548 0 0 1 .11-7.82 5.686 5.686 0 0 1 3.43-1.61q.405-.03.81-.03a5.314 5.314 0 0 1 3.58 1.53zm-.22 7.71c1.1-1.09-.12-4.08-1.48-5.45s-3.37-1.59-4.46-.49-.88 3.09.49 4.46 4.36 2.58 5.45 1.48z" fill="#c50d0d"/><path d="m31.79 38.82c1.36 1.37 2.58 4.36 1.48 5.45s-4.08-.12-5.45-1.48-1.59-3.37-.49-4.46 3.09-.88 4.46.49z" fill="#a30d0d"/><ellipse cx="30" cy="10" fill="#c50d0d" rx="2.348" ry="3.536" transform="matrix(.707 -.707 .707 .707 1.716 24.142)"/><path d="m32.5 10.5c-.92.91-2.79.54-4.16-.84a4.745 4.745 0 0 1 -1.132-1.744c-.5.994-.065 2.556 1.132 3.744 1.37 1.38 3.24 1.75 4.16.84a2.285 2.285 0 0 0 .292-2.416 1.586 1.586 0 0 1 -.292.416z" fill="#a30d0d"/><path d="m28.87 35.07c.08 0 .15-.01.23-.01a5.686 5.686 0 0 0 -3.43 1.61 5.548 5.548 0 0 0 -.11 7.82 9.778 9.778 0 0 0 5.22 2.43c-3.16 1.73-6.24 4.07-9.81 4.08a9.3 9.3 0 0 1 -2.35-.31 12.206 12.206 0 0 0 1.32.24c.18-.14.34-.29.5-.44a5.61 5.61 0 0 0 -7.93-7.93 9.512 9.512 0 0 0 -2.24 4.24c-.38-.23-.75-.48-1.11-.74a5.052 5.052 0 0 1 -2.02-2.3c-.79-2.28 1.95-3.44 3.47-4.31a29.518 29.518 0 0 1 6.68-2.96 15.243 15.243 0 0 1 3.97-.58 18.634 18.634 0 0 0 2.48-.06c.66-.1 1.28-.31 1.92-.46a18.1 18.1 0 0 1 3.21-.32z" fill="#ffd1bd"/><path d="m21.01 30.9a1.066 1.066 0 0 1 .99 1.05 1.041 1.041 0 0 1 -1.04 1.05c-1.96 0-4.67-.02-5.96 0a10.125 10.125 0 0 1 -4.15-.54c-.66-.27-1.19-.5-.58-1.31a2.849 2.849 0 0 1 1.61-.99c2.2-.54 4.45.44 6.69.64 1.09.09 1.64.06 2.44.1z" fill="#ffd1bd"/><path d="m20.33 42.67a5.548 5.548 0 0 1 .11 7.82c-.16.15-.32.3-.5.44a12.206 12.206 0 0 1 -1.32-.24c-.29-.08-.58-.16-.87-.25l-.6-.21c-.19-.07-.37-.14-.56-.22a.487.487 0 0 1 -.11-.04 7.392 7.392 0 0 0 1.7-1.18c1.37-1.37 1.59-3.37.49-4.46s-3.09-.88-4.46.49a7.424 7.424 0 0 0 -1.76 3.23c-.37-.19-.74-.39-1.1-.6-.29-.16-.58-.33-.86-.51a1.644 1.644 0 0 1 -.22-.14 9.512 9.512 0 0 1 2.24-4.24 5.548 5.548 0 0 1 7.82.11z" fill="#c50d0d"/><path d="m18.67 44.33c1.1 1.09.88 3.09-.49 4.46a7.392 7.392 0 0 1 -1.7 1.18c-.6-.25-1.19-.52-1.77-.79-.76-.36-1.52-.73-2.26-1.13a7.424 7.424 0 0 1 1.76-3.23c1.37-1.37 3.37-1.59 4.46-.49z" fill="#a30d0d"/><path d="m63 52.31a3.958 3.958 0 0 1 -5.85 0 4.128 4.128 0 0 1 5.85 0z" fill="#629026"/><path d="m55.69 45a4.128 4.128 0 0 1 0 5.85 3.958 3.958 0 0 1 0-5.85z" fill="#629026"/><path d="m60.81 47.2a3.955 3.955 0 0 1 -4.38 4.38c-.15-1.96.83-4.65 4.38-4.38z" fill="#7fb734"/><path d="m56.42 51.58a6.19 6.19 0 0 1 1.42 6.68 5.877 5.877 0 0 1 -1.3 1.97c-2.35 2.35-7.93 4-10.35 1.58s-.77-8 1.58-10.35a6.073 6.073 0 0 1 7.87-.54 5.935 5.935 0 0 1 .78.66z" fill="#c50d0d"/><path d="m51.77 51.46a5.85 5.85 0 0 1 2.23-1.375 5.991 5.991 0 0 0 -6.23 1.375c-2.35 2.35-4 7.93-1.58 10.35 1.281 1.281 3.446 1.415 5.549.915a3.831 3.831 0 0 1 -1.549-.915c-2.42-2.42-.77-8 1.58-10.35z" fill="#a30d0d"/><circle cx="50" cy="54" fill="#71160a" r="1"/><circle cx="50" cy="60" fill="#71160a" r="1"/><circle cx="47" cy="57" fill="#71160a" r="1"/><circle cx="54" cy="59" fill="#71160a" r="1"/><ellipse cx="52.681" cy="52.708" fill="#f7fafd" rx=".825" ry="1.148" transform="matrix(.707 -.707 .707 .707 -21.84 52.715)"/><path d="m47.41 17.41a1.955 1.955 0 0 1 -1.41.59h-40a2 2 0 0 1 -1.721-1 1.963 1.963 0 0 0 -.279 1 2.006 2.006 0 0 0 2 2h40a2.015 2.015 0 0 0 2-2 1.978 1.978 0 0 0 -.279-1 1.972 1.972 0 0 1 -.311.41z" fill="#d8d1c5"/><path d="m47.41 24.41a1.955 1.955 0 0 1 -1.41.59h-40a2 2 0 0 1 -1.721-1 1.963 1.963 0 0 0 -.279 1 2.006 2.006 0 0 0 2 2h40a2.015 2.015 0 0 0 2-2 1.978 1.978 0 0 0 -.279-1 1.972 1.972 0 0 1 -.311.41z" fill="#d8d1c5"/><path d="m11 23a2 2 0 0 1 2-2h32v-1h-38v3z" fill="#978d7e"/><path d="m43.626 14.3a3.6 3.6 0 0 0 -1.416-.3h-23.76a1.862 1.862 0 0 1 -1.82-1.967v-.133a3.108 3.108 0 0 1 .83-2.02 2.774 2.774 0 0 1 2.01-.88 2.556 2.556 0 0 0 2.26-1.45c1.191-2.35 5.212-4.136 10.186-4.484a9.354 9.354 0 0 1 -.236-2.066c-5.77 0-10.62 1.93-11.95 4.55a2.556 2.556 0 0 1 -2.26 1.45 2.774 2.774 0 0 0 -2.01.88 3.108 3.108 0 0 0 -.83 2.02v.1a1.953 1.953 0 0 1 -1.89 2h-.95a3.449 3.449 0 0 0 -1.65.41 3.85 3.85 0 0 0 -1.623 1.59 4.129 4.129 0 0 0 -.517 2h36a4.148 4.148 0 0 0 -.374-1.7z" fill="#ffe8d7"/><path d="m19.836 59a12 12 0 0 1 -11.879-13.7l.031-.223a3.607 3.607 0 0 1 -.848-1.32c-.493-1.422.387-2.408 1.488-3.16l.881-6.166a3.976 3.976 0 0 1 1.012-2.118c-.479-.226-.753-.5-.251-1.166a2.849 2.849 0 0 1 1.61-.99c2.2-.54 4.45.44 6.69.64 1.09.09 1.64.06 2.44.1a1.063 1.063 0 0 1 .373.1h25.168c-.458-1.354-.968-2.692-1.551-4h-38a46.335 46.335 0 0 0 -4 18.853v.88a24.025 24.025 0 0 0 4.03 13.32 7.47 7.47 0 0 0 5.97 2.95h26a7.47 7.47 0 0 0 5.97-2.95l.23-.06a5.746 5.746 0 0 1 -.162-.99z" fill="#ffe8d7"/><g fill="#ac7bf2"><circle cx="34.5" cy="12.5" r=".5"/><circle cx="17.5" cy="10.5" r=".5"/><circle cx="17.5" cy="13.5" r=".5"/><circle cx="21.5" cy="12.5" r=".5"/><circle cx="28.5" cy="14.5" r=".5"/><circle cx="25.5" cy="10.5" r=".5"/><circle cx="29.5" cy="4.5" r=".5"/></g><circle cx="20.5" cy="8.5" fill="#c50d0d" r=".5"/><circle cx="25.5" cy="6.5" fill="#c50d0d" r=".5"/><circle cx="13.5" cy="13.5" fill="#c50d0d" r=".5"/><circle cx="24.5" cy="14.5" fill="#c50d0d" r=".5"/><circle cx="36.5" cy="13.5" fill="#c50d0d" r=".5"/><circle cx="18" cy="39" fill="#ffb69b" r="1"/><circle cx="26" cy="57" fill="#ffb69b" r="1"/><circle cx="29" cy="57" fill="#c50d0d" r="1"/><circle cx="42" cy="47" fill="#ffb69b" r="1"/><circle cx="12" cy="41" fill="#ffb69b" r="1"/><circle cx="13" cy="31" fill="#c50d0d" r="1"/><circle cx="23" cy="49" fill="#ffb69b" r="1"/><circle cx="35.5" cy="37.5" fill="#ffb69b" r=".5"/><circle cx="23.5" cy="56.5" fill="#ffb69b" r=".5"/><circle cx="37" cy="40" fill="#c50d0d" r="1"/><circle cx="20.5" cy="37.5" fill="#ffb69b" r=".5"/><circle cx="22.5" cy="37.5" fill="#c50d0d" r=".5"/><circle cx="18.5" cy="32.5" fill="#c50d0d" r=".5"/><circle cx="21.5" cy="41.5" fill="#c50d0d" r=".5"/><circle cx="20.5" cy="31.5" fill="#ffb69b" r=".5"/><circle cx="23.5" cy="45.5" fill="#ffb69b" r=".5"/><circle cx="36.5" cy="42.5" fill="#c50d0d" r=".5"/><circle cx="40.5" cy="47.5" fill="#c50d0d" r=".5"/><circle cx="14.5" cy="32.5" fill="#ffb69b" r=".5"/><circle cx="24.5" cy="57.5" fill="#c50d0d" r=".5"/><circle cx="29.5" cy="54.5" fill="#ffb69b" r=".5"/><circle cx="40.5" cy="52.5" fill="#c50d0d" r=".5"/><circle cx="41.5" cy="53.5" fill="#ffb69b" r=".5"/><circle cx="14.5" cy="39.5" fill="#c50d0d" r=".5"/><circle cx="20.5" cy="39.5" fill="#ffb69b" r=".5"/><circle cx="38.5" cy="37.5" fill="#ffb69b" r=".5"/><circle cx="15.5" cy="31.5" fill="#ffb69b" r=".5"/><circle cx="23.5" cy="39.5" fill="#ffb69b" r=".5"/><circle cx="40.5" cy="39.5" fill="#c50d0d" r=".5"/><circle cx="44.5" cy="47.5" fill="#c50d0d" r=".5"/><circle cx="38.5" cy="47.5" fill="#ffb69b" r=".5"/><circle cx="26.5" cy="47.5" fill="#ffb69b" r=".5"/><ellipse cx="32.681" cy="37.708" fill="#f7fafd" rx=".825" ry="1.148" transform="matrix(.707 -.707 .707 .707 -17.093 34.171)"/><ellipse cx="16.681" cy="46.708" fill="#f7fafd" rx=".825" ry="1.148" transform="matrix(.707 -.707 .707 .707 -28.149 25.491)"/><ellipse cx="44.681" cy="17.708" fill="#f7fafd" rx=".825" ry="1.148" transform="matrix(.707 -.707 .707 .707 .572 36.796)"/><ellipse cx="34.427" cy="40.208" fill="#f7fafd" rx=".413" ry=".574" transform="matrix(.707 -.707 .707 .707 -18.349 36.139)"/><ellipse cx="17.427" cy="45.208" fill="#f7fafd" rx=".413" ry=".574" transform="matrix(.707 -.707 .707 .707 -26.869 25.579)"/></g></svg>