<svg enable-background="new 0 0 256 256" height="512" viewBox="0 0 256 256" width="512" xmlns="http://www.w3.org/2000/svg"><path d="m194.253 66.931-61.919-55.373c-2.468-2.206-6.2-2.206-8.668 0l-61.919 55.373c-2.89 2.585-2.89 7.109 0 9.693 2.468 2.207 6.201 2.207 8.669 0l57.584-51.496 57.584 51.497c2.468 2.207 6.201 2.207 8.669 0 2.89-2.585 2.89-7.109 0-9.694z" fill="#edf4fc"/><path d="m70.749 76.327h114.502l-57.251-51.199z" fill="#c7d7e5"/><path d="m193.155 156.117h-130.31c-3.53 0-6.391-2.862-6.391-6.391 0-3.53 2.862-6.391 6.391-6.391h130.309c3.53 0 6.391 2.862 6.391 6.391.001 3.53-2.861 6.391-6.39 6.391z" fill="#edf4fc"/><path d="m182.502 143.335h-109.004c-3.53 0-6.391-2.862-6.391-6.391s2.862-6.391 6.391-6.391h109.005c3.53 0 6.391 2.862 6.391 6.391s-2.862 6.391-6.392 6.391z" fill="#c7d7e5"/><g fill="#edf4fc"><path d="m157.161 76.327h24.818v54.226h-24.818z"/><path d="m115.591 76.327h24.818v54.226h-24.818z"/><path d="m74.021 76.327h24.818v54.226h-24.818z"/></g><path d="m140.409 76.327h16.752v12.409h-16.752z" fill="#3a70bf"/><path d="m98.839 76.327h16.752v12.409h-16.752z" fill="#3a70bf"/><path d="m98.839 88.736h16.752v41.817h-16.752z" fill="#5290db"/><path d="m140.409 88.736h16.752v41.817h-16.752z" fill="#5290db"/><circle cx="128" cy="56.818" fill="#edf4fc" r="6.624"/><circle cx="220.772" cy="239.84" fill="#87d147" r="13.66"/><circle cx="174.386" cy="239.84" fill="#70d6f9" r="13.66"/><circle cx="128" cy="239.84" fill="#f5c84c" r="13.66"/><circle cx="81.614" cy="239.84" fill="#fc8c48" r="13.66"/><circle cx="35.228" cy="239.84" fill="#ef4460" r="13.66"/><path d="m187.075 19.874h-2.07v-2.07c0-1.549-1.256-2.805-2.805-2.805s-2.805 1.256-2.805 2.805v2.07h-2.069c-1.549 0-2.805 1.256-2.805 2.805s1.256 2.805 2.805 2.805h2.069v2.07c0 1.549 1.256 2.805 2.805 2.805s2.805-1.256 2.805-2.805v-2.07h2.07c1.549 0 2.805-1.256 2.805-2.805s-1.256-2.805-2.805-2.805z" fill="#3caadc"/><path d="m158.147.05c-1.866-.337-3.355 1.067-3.355 2.749 0 1.549 1.249 2.805 2.805 2.805 1.563 0 2.805-1.27 2.805-2.805 0-1.335-.96-2.504-2.255-2.749z" fill="#87d147"/><path d="m60.606 174.554c1.349-.255 2.255-1.464 2.255-2.749 0-1.529-1.233-2.805-2.805-2.805-1.517 0-2.805 1.257-2.805 2.805.001 1.672 1.505 3.093 3.355 2.749z" fill="#ef4460"/><path d="m199.606 109.554c1.349-.255 2.255-1.464 2.255-2.749 0-1.501-1.207-2.805-2.805-2.805-1.517 0-2.805 1.257-2.805 2.805.001 1.68 1.507 3.093 3.355 2.749z" fill="#f5c84c"/><path d="m35.943 120.713c3.995.744 7.144 3.829 7.904 7.743.038.197.313.197.351 0 .76-3.914 3.908-6.999 7.904-7.743.201-.037.201-.306 0-.344-3.995-.744-7.144-3.829-7.904-7.743-.038-.197-.313-.197-.351 0-.76 3.914-3.908 6.999-7.904 7.743-.201.038-.201.307 0 .344z" fill="#f5c84c"/><path d="m189.918 80.783c-2.146 0-4.291-.765-6.001-2.295l-55.917-50.007-55.917 50.007c-3.421 3.06-8.581 3.06-12.001 0-1.907-1.705-3.001-4.151-3.001-6.709s1.094-5.005 3.001-6.71l61.918-55.374c3.421-3.06 8.58-3.059 12.001 0l61.918 55.374c1.907 1.706 3.001 4.152 3.001 6.71s-1.094 5.004-3.001 6.71c-1.711 1.529-3.856 2.294-6.001 2.294zm-61.918-58.156c.596 0 1.192.212 1.667.637l57.584 51.497c1.521 1.359 3.815 1.359 5.335 0 .86-.77 1.334-1.829 1.334-2.983 0-1.155-.474-2.214-1.334-2.984l-61.918-55.373c-1.521-1.359-3.814-1.36-5.335 0l-61.919 55.373c-.86.77-1.334 1.829-1.334 2.984 0 1.154.474 2.213 1.334 2.982 1.521 1.36 3.814 1.36 5.335 0l57.584-51.497c.475-.423 1.071-.636 1.667-.636z"/><path d="m185.251 78.827h-114.502c-1.037 0-1.966-.64-2.335-1.608s-.104-2.064.669-2.755l57.251-51.199c.949-.849 2.384-.849 3.333 0l57.251 51.199c.772.691 1.039 1.787.669 2.755s-1.299 1.608-2.336 1.608zm-107.956-5h101.41l-50.705-45.346z"/><path d="m193.154 158.617h-130.308c-4.903 0-8.892-3.989-8.892-8.891s3.989-8.891 8.892-8.891h130.309c4.903 0 8.892 3.989 8.892 8.891s-3.99 8.891-8.893 8.891zm-130.308-12.782c-2.146 0-3.892 1.746-3.892 3.891s1.746 3.891 3.892 3.891h130.309c2.146 0 3.892-1.746 3.892-3.891s-1.746-3.891-3.892-3.891z"/><path d="m182.502 145.835h-109.004c-4.902 0-8.891-3.989-8.891-8.891 0-4.903 3.989-8.892 8.891-8.892h109.005c4.902 0 8.891 3.989 8.891 8.892 0 4.902-3.989 8.891-8.892 8.891zm-109.004-12.783c-2.146 0-3.891 1.746-3.891 3.892s1.746 3.891 3.891 3.891h109.005c2.146 0 3.891-1.746 3.891-3.891 0-2.146-1.746-3.892-3.891-3.892z"/><path d="m181.979 133.052h-24.818c-1.381 0-2.5-1.119-2.5-2.5v-54.225c0-1.381 1.119-2.5 2.5-2.5h24.818c1.381 0 2.5 1.119 2.5 2.5v54.226c0 1.38-1.119 2.499-2.5 2.499zm-22.318-5h19.818v-49.225h-19.818z"/><path d="m140.409 133.052h-24.817c-1.381 0-2.5-1.119-2.5-2.5v-54.225c0-1.381 1.119-2.5 2.5-2.5h24.817c1.381 0 2.5 1.119 2.5 2.5v54.226c0 1.38-1.119 2.499-2.5 2.499zm-22.318-5h19.817v-49.225h-19.817z"/><path d="m98.839 133.052h-24.818c-1.381 0-2.5-1.119-2.5-2.5v-54.225c0-1.381 1.119-2.5 2.5-2.5h24.818c1.381 0 2.5 1.119 2.5 2.5v54.226c0 1.38-1.119 2.499-2.5 2.499zm-22.318-5h19.818v-49.225h-19.818z"/><path d="m169.57 119.776c-1.381 0-2.5-1.119-2.5-2.5v-27.3c0-1.381 1.119-2.5 2.5-2.5s2.5 1.119 2.5 2.5v27.3c0 1.381-1.119 2.5-2.5 2.5z"/><path d="m128 119.776c-1.381 0-2.5-1.119-2.5-2.5v-27.3c0-1.381 1.119-2.5 2.5-2.5s2.5 1.119 2.5 2.5v27.3c0 1.381-1.119 2.5-2.5 2.5z"/><path d="m86.43 119.776c-1.381 0-2.5-1.119-2.5-2.5v-27.3c0-1.381 1.119-2.5 2.5-2.5s2.5 1.119 2.5 2.5v27.3c0 1.381-1.119 2.5-2.5 2.5z"/><path d="m157.161 91.236h-16.752c-1.381 0-2.5-1.119-2.5-2.5v-12.409c0-1.381 1.119-2.5 2.5-2.5h16.752c1.381 0 2.5 1.119 2.5 2.5v12.409c0 1.381-1.119 2.5-2.5 2.5zm-14.252-5h11.752v-7.409h-11.752z"/><path d="m115.591 91.236h-16.752c-1.381 0-2.5-1.119-2.5-2.5v-12.409c0-1.381 1.119-2.5 2.5-2.5h16.752c1.381 0 2.5 1.119 2.5 2.5v12.409c0 1.381-1.119 2.5-2.5 2.5zm-14.252-5h11.752v-7.409h-11.752z"/><path d="m220.771 256c-8.911 0-16.16-7.249-16.16-16.16s7.249-16.16 16.16-16.16 16.16 7.249 16.16 16.16-7.249 16.16-16.16 16.16zm0-27.319c-6.153 0-11.16 5.006-11.16 11.16s5.006 11.16 11.16 11.16 11.16-5.006 11.16-11.16-5.006-11.16-11.16-11.16z"/><path d="m174.386 256c-8.911 0-16.16-7.249-16.16-16.16s7.249-16.16 16.16-16.16 16.16 7.249 16.16 16.16-7.25 16.16-16.16 16.16zm0-27.319c-6.153 0-11.16 5.006-11.16 11.16s5.006 11.16 11.16 11.16 11.16-5.006 11.16-11.16-5.007-11.16-11.16-11.16z"/><path d="m128 256c-8.911 0-16.16-7.249-16.16-16.16s7.249-16.16 16.16-16.16 16.16 7.249 16.16 16.16-7.249 16.16-16.16 16.16zm0-27.319c-6.153 0-11.16 5.006-11.16 11.16s5.007 11.159 11.16 11.159 11.16-5.006 11.16-11.16-5.007-11.159-11.16-11.159z"/><path d="m81.614 256c-8.911 0-16.16-7.249-16.16-16.16s7.249-16.16 16.16-16.16 16.16 7.249 16.16 16.16-7.249 16.16-16.16 16.16zm0-27.319c-6.153 0-11.16 5.006-11.16 11.16s5.007 11.159 11.16 11.159 11.16-5.006 11.16-11.16-5.006-11.159-11.16-11.159z"/><path d="m35.229 256c-8.911 0-16.16-7.249-16.16-16.16s7.249-16.16 16.16-16.16 16.16 7.249 16.16 16.16-7.25 16.16-16.16 16.16zm0-27.319c-6.153 0-11.16 5.006-11.16 11.16s5.006 11.159 11.16 11.159 11.16-5.006 11.16-11.16-5.007-11.159-11.16-11.159z"/><path d="m43.596 231.548c-.565 0-1.134-.191-1.603-.583-1.059-.886-1.2-2.462-.313-3.521l51.551-61.637c.885-1.058 2.461-1.2 3.521-.313 1.059.886 1.2 2.462.313 3.521l-51.551 61.637c-.493.591-1.203.896-1.918.896z"/><path d="m86.602 229.625c-.322 0-.648-.062-.963-.194-1.274-.533-1.875-1.998-1.342-3.271l24.971-59.714c.533-1.274 2-1.875 3.271-1.342 1.274.533 1.875 1.998 1.342 3.271l-24.971 59.714c-.401.959-1.33 1.536-2.308 1.536z"/><path d="m128 228.681c-1.381 0-2.5-1.119-2.5-2.5v-58.771c0-1.381 1.119-2.5 2.5-2.5s2.5 1.119 2.5 2.5v58.771c0 1.381-1.119 2.5-2.5 2.5z"/><path d="m169.398 229.626c-.978 0-1.907-.577-2.308-1.536l-24.971-59.714c-.533-1.273.068-2.738 1.342-3.271 1.273-.53 2.738.068 3.271 1.342l24.971 59.714c.533 1.273-.068 2.738-1.342 3.271-.315.131-.642.194-.963.194z"/><path d="m212.404 231.548c-.715 0-1.425-.305-1.919-.896l-51.549-61.635c-.886-1.059-.746-2.636.313-3.521 1.059-.887 2.637-.746 3.521.313l51.549 61.635c.886 1.059.746 2.636-.313 3.521-.467.392-1.037.583-1.602.583z"/><path d="m115.591 133.052h-16.752c-1.381 0-2.5-1.119-2.5-2.5v-41.816c0-1.381 1.119-2.5 2.5-2.5h16.752c1.381 0 2.5 1.119 2.5 2.5v41.816c0 1.381-1.119 2.5-2.5 2.5zm-14.252-5h11.752v-36.816h-11.752z"/><path d="m157.161 133.052h-16.752c-1.381 0-2.5-1.119-2.5-2.5v-41.816c0-1.381 1.119-2.5 2.5-2.5h16.752c1.381 0 2.5 1.119 2.5 2.5v41.816c0 1.381-1.119 2.5-2.5 2.5zm-14.252-5h11.752v-36.816h-11.752z"/><path d="m128 65.942c-5.031 0-9.124-4.093-9.124-9.125 0-5.031 4.093-9.124 9.124-9.124s9.124 4.093 9.124 9.124c0 5.032-4.093 9.125-9.124 9.125zm0-13.248c-2.274 0-4.124 1.85-4.124 4.124s1.85 4.125 4.124 4.125 4.124-1.85 4.124-4.125c0-2.274-1.85-4.124-4.124-4.124z" fill="#231f20"/></svg>