<svg enable-background="new 0 0 256 256" height="512" viewBox="0 0 256 256" width="512" xmlns="http://www.w3.org/2000/svg"><path d="m17.432 145.852h3.495c.192-.154.378-.316.575-.465-.003.002-.007.005-.01.007l9.946-20.732h-14.006c-5.827 0-10.595 4.768-10.595 10.595s4.768 10.595 10.595 10.595z" fill="#edf4fc"/><path d="m134.096 97.057c-2.075-2.075-3.299-4.684-3.703-7.394h-74.062c-4.952 0-9.466 2.84-11.608 7.305l-23.232 48.425c5.141-3.928 11.548-6.272 18.48-6.272h127.649c3.645 0 7.14.655 10.384 1.844z" fill="#5290db"/><path d="m134.096 97.057c-2.075-2.075-3.299-4.684-3.703-7.394h-74.062c-4.952 0-9.466 2.84-11.608 7.305l-3.803 7.928h101.015z" fill="#fc657e"/><g fill="#3a70bf"><path d="m89.381 104.896c-.087.541-.145 1.092-.145 1.656 0 5.769 4.72 10.488 10.488 10.488h8.832c5.769 0 10.488-4.72 10.488-10.488 0-.564-.058-1.115-.145-1.656z"/><path d="m147.75 214.195v10.004c0 5.428 4.441 9.869 9.869 9.869h28.84c5.428 0 9.869-4.441 9.869-9.869v-10.004z"/><path d="m14.163 214.195v10.004c0 5.428 4.441 9.869 9.869 9.869h28.84c5.428 0 9.869-4.441 9.869-9.869v-10.004z"/></g><path d="m190.16 180.077h-18.163c-5.827 0-10.595-4.768-10.595-10.595s4.768-10.595 10.595-10.595h18.163c2.623 0 5.027.972 6.882 2.566-.206-.73-.446-1.446-.703-2.154l-18.335-18.335c-3.247-1.184-6.74-1.844-10.384-1.844h-127.648c-13.96 0-25.804 9.488-29.422 22.332 1.856-1.594 4.259-2.566 6.882-2.566h18.163c5.827 0 10.595 4.768 10.595 10.595s-4.768 10.595-10.595 10.595h-18.163c-3.202 0-6.078-1.445-8.025-3.709v25.131h188.778v-25.131c-1.947 2.265-4.823 3.71-8.025 3.71z" fill="#fc657e"/><path d="m145.749 201.499v-15.456c0-7.287-5.962-13.248-13.248-13.248h-57.41c-7.287 0-13.248 5.962-13.248 13.248v15.456z" fill="#3a70bf"/><path d="m201.02 201.499h-194.448c-2.248 0-4.071 1.823-4.071 4.071v4.554c0 2.248 1.823 4.071 4.071 4.071h194.448c2.248 0 4.071-1.823 4.071-4.071v-4.554c0-2.249-1.823-4.071-4.071-4.071z" fill="#edf4fc"/><path d="m190.16 158.887h-18.163c-5.827 0-10.595 4.768-10.595 10.595s4.768 10.595 10.595 10.595h18.163c5.827 0 10.595-4.768 10.595-10.595 0-5.828-4.768-10.595-10.595-10.595z" fill="#70d6f9"/><path d="m35.596 158.887h-18.164c-5.827 0-10.595 4.768-10.595 10.595s4.768 10.595 10.595 10.595h18.163c5.827 0 10.595-4.768 10.595-10.595.001-5.828-4.767-10.595-10.594-10.595z" fill="#70d6f9"/><ellipse cx="193.222" cy="169.482" fill="#fcdd86" rx="7.532" ry="10.137"/><ellipse cx="14.37" cy="169.482" fill="#fcdd86" rx="7.532" ry="10.137"/><path d="m249.634 128.283-73.383-73.383c-5.152-5.152-13.584-5.152-18.736 0l-23.42 23.42c-5.152 5.152-5.152 13.584 0 18.736l73.383 73.383c5.152 5.152 13.584 5.152 18.736 0l23.42-23.42c5.153-5.152 5.153-13.583 0-18.736zm-96.022-45.669c-2.264-2.264-2.263-5.934 0-8.197s5.933-2.264 8.197 0 2.263 5.934 0 8.197-5.933 2.264-8.197 0z" fill="#fca265"/><path d="m213.606 186.423c1.349.255 2.255 1.464 2.255 2.749 0 1.549-1.249 2.805-2.805 2.805-1.496 0-2.805-1.213-2.805-2.805.001-1.731 1.555-3.085 3.355-2.749z" fill="#3caadc"/><path d="m20.606 86.423c1.349.255 2.255 1.464 2.255 2.749 0 1.549-1.249 2.805-2.805 2.805-1.503 0-2.805-1.218-2.805-2.805.001-1.731 1.555-3.085 3.355-2.749z" fill="#87d147"/><path d="m162.606 28.423c1.349.255 2.255 1.464 2.255 2.749 0 1.648-1.443 3.084-3.355 2.749-1.23-.233-2.255-1.348-2.255-2.749.001-1.673 1.505-3.094 3.355-2.749z" fill="#ef4460"/><path d="m199.964 42.432c-4.055.755-7.25 3.886-8.021 7.858-.039.2-.317.2-.356 0-.771-3.972-3.967-7.103-8.021-7.858-.204-.038-.204-.311 0-.349 4.055-.755 7.25-3.886 8.021-7.858.039-.2.317-.2.356 0 .771 3.972 3.967 7.103 8.021 7.858.204.039.204.311 0 .349z" fill="#f5c84c"/><path d="m36.575 69.867h-2.07v2.07c0 1.549-1.256 2.805-2.805 2.805s-2.805-1.256-2.805-2.805v-2.07h-2.069c-1.549 0-2.805-1.256-2.805-2.805s1.256-2.805 2.805-2.805h2.069v-2.07c0-1.549 1.256-2.805 2.805-2.805s2.805 1.256 2.805 2.805v2.07h2.07c1.549 0 2.805 1.256 2.805 2.805 0 1.55-1.256 2.805-2.805 2.805z" fill="#3caadc"/><path d="m201.02 216.695h-194.448c-3.623 0-6.571-2.948-6.571-6.571v-4.554c0-3.624 2.948-6.571 6.571-6.571h194.448c3.624 0 6.571 2.948 6.571 6.571v4.554c0 3.623-2.948 6.571-6.571 6.571zm-194.448-12.696c-.866 0-1.571.705-1.571 1.571v4.554c0 .866.705 1.571 1.571 1.571h194.448c.866 0 1.571-.705 1.571-1.571v-4.554c0-.866-.705-1.571-1.571-1.571z"/><path d="m145.749 203.999h-83.906c-1.381 0-2.5-1.119-2.5-2.5v-15.456c0-8.684 7.065-15.749 15.749-15.749h57.41c8.684 0 15.748 7.065 15.748 15.749v15.456c-.001 1.38-1.12 2.5-2.501 2.5zm-81.406-5h78.906v-12.956c0-5.927-4.822-10.749-10.748-10.749h-57.41c-5.927 0-10.749 4.822-10.749 10.749v12.956z"/><path d="m186.459 236.567h-28.84c-6.82 0-12.369-5.548-12.369-12.369v-10.004c0-1.381 1.119-2.5 2.5-2.5h48.578c1.381 0 2.5 1.119 2.5 2.5v10.004c0 6.821-5.549 12.369-12.369 12.369zm-36.209-19.872v7.504c0 4.063 3.306 7.369 7.369 7.369h28.84c4.063 0 7.369-3.306 7.369-7.369v-7.504z"/><path d="m52.871 236.567h-28.84c-6.82 0-12.369-5.548-12.369-12.369v-10.004c0-1.381 1.119-2.5 2.5-2.5h48.578c1.381 0 2.5 1.119 2.5 2.5v10.004c0 6.821-5.549 12.369-12.369 12.369zm-36.208-19.872v7.504c0 4.063 3.306 7.369 7.369 7.369h28.84c4.063 0 7.369-3.306 7.369-7.369v-7.504z"/><path d="m20.927 148.352h-3.494c-7.221 0-13.095-5.875-13.095-13.095s5.875-13.095 13.095-13.095h14.005c.859 0 1.658.441 2.116 1.168s.51 1.638.138 2.413l-9.866 20.565c-.149.376-.392.721-.724.998-.025.021-.053.043-.081.064-.096.073-.188.15-.281.228l-.25.204c-.443.356-.994.55-1.563.55zm-3.494-21.19c-4.464 0-8.095 3.631-8.095 8.095s3.631 8.095 8.095 8.095h2.266l7.767-16.19z"/><path d="m108.557 119.541h-8.832c-7.162 0-12.988-5.827-12.988-12.988 0-.644.058-1.315.176-2.053.195-1.212 1.241-2.104 2.468-2.104h29.52c1.228 0 2.273.892 2.468 2.104.119.738.176 1.409.176 2.053 0 7.161-5.826 12.988-12.988 12.988zm-16.776-12.145c.423 4.01 3.824 7.145 7.944 7.145h8.832c4.12 0 7.521-3.135 7.944-7.145z"/><path d="m216.847 176.812c-4.033 0-8.066-1.535-11.136-4.605l-73.383-73.383c-6.141-6.14-6.141-16.131 0-22.271l23.42-23.42c6.14-6.14 16.131-6.141 22.271 0l73.383 73.383c6.14 6.14 6.14 16.131 0 22.271l-23.42 23.42c-3.07 3.07-7.103 4.605-11.135 4.605zm-49.964-123.287c-2.752 0-5.504 1.048-7.6 3.143l-23.42 23.42c-4.19 4.191-4.19 11.01 0 15.201l73.383 73.383c4.191 4.19 11.009 4.19 15.201 0l23.42-23.42c4.19-4.191 4.19-11.01 0-15.201l-73.383-73.383c-2.096-2.095-4.848-3.143-7.601-3.143zm-9.172 33.283c-2.125 0-4.249-.809-5.866-2.426-1.567-1.567-2.43-3.65-2.43-5.866s.863-4.299 2.43-5.866c3.234-3.234 8.498-3.235 11.732 0 3.234 3.234 3.234 8.497 0 11.732-1.617 1.618-3.742 2.426-5.866 2.426zm0-11.587c-.844 0-1.688.321-2.331.964-.623.623-.965 1.45-.965 2.331s.343 1.708.965 2.331c1.285 1.285 3.377 1.285 4.662 0s1.285-3.376 0-4.662c-.643-.643-1.487-.964-2.331-.964z"/><path d="m151.986 81.902c-.043 0-.087-.001-.131-.003-11.909-.618-33.39-14.894-42.946-24.45-5.863-5.862-9.362-12.067-10.121-17.944-.724-5.609 1.068-10.888 5.046-14.866 3.977-3.978 9.254-5.77 14.866-5.046 5.877.758 12.082 4.258 17.944 10.121 6.638 6.638 14.647 18.029 19.478 27.702.617 1.235.115 2.737-1.12 3.354-1.236.615-2.737.115-3.354-1.12-4.617-9.245-12.241-20.102-18.54-26.401-9.502-9.502-19.365-11.447-25.739-5.074-6.373 6.374-4.429 16.236 5.074 25.74 9.939 9.938 30.197 22.5 39.67 22.992 1.379.071 2.439 1.247 2.367 2.626-.069 1.334-1.173 2.369-2.494 2.369z"/><path d="m198.185 203.999h-188.778c-1.381 0-2.5-1.119-2.5-2.5v-25.13c0-1.045.65-1.98 1.631-2.344.981-.362 2.084-.079 2.765.714 1.551 1.804 3.785 2.838 6.13 2.838h18.163c4.463 0 8.095-3.631 8.095-8.095s-3.631-8.095-8.095-8.095h-18.163c-1.915 0-3.78.697-5.253 1.962-.837.718-2.044.803-2.974.211-.929-.593-1.36-1.724-1.062-2.785 4.006-14.222 17.095-24.154 31.828-24.154h127.648c3.828 0 7.609.671 11.24 1.995.342.125.653.323.911.581l18.335 18.335c.258.258.457.569.582.912.307.844.556 1.606.76 2.33.3 1.061-.131 2.193-1.061 2.787-.93.593-2.137.508-2.974-.211-1.473-1.266-3.339-1.962-5.253-1.962h-18.163c-4.464 0-8.095 3.631-8.095 8.095 0 4.463 3.631 8.095 8.095 8.095h18.163c2.344 0 4.579-1.035 6.13-2.839.682-.792 1.785-1.078 2.765-.713.98.363 1.631 1.298 1.631 2.344v25.13c-.001 1.379-1.12 2.499-2.501 2.499zm-186.278-5h183.778v-17.656c-1.713.804-3.595 1.234-5.525 1.234h-18.163c-7.221 0-13.095-5.874-13.095-13.095s5.875-13.095 13.095-13.095h17.894l-13.254-13.254c-2.922-1.003-5.953-1.511-9.016-1.511h-127.649c-10.485 0-19.989 5.929-24.791 14.963.74-.131 1.493-.198 2.251-.198h18.163c7.221 0 13.095 5.875 13.095 13.095s-5.874 13.095-13.095 13.095h-18.162c-1.93 0-3.812-.43-5.525-1.234v17.656z"/><path d="m21.492 147.894c-.56 0-1.119-.188-1.577-.561-.897-.729-1.177-1.979-.677-3.021l23.232-48.425c2.542-5.299 7.983-8.724 13.862-8.724h74.061c1.238 0 2.29.907 2.473 2.131.343 2.303 1.38 4.376 2.998 5.995l43.909 43.909c.83.83.971 2.125.339 3.113s-1.866 1.406-2.967 1.001c-3.062-1.122-6.267-1.691-9.524-1.691h-127.649c-6.167 0-12.033 1.991-16.962 5.759-.449.343-.984.514-1.518.514zm34.84-55.731c-3.967 0-7.638 2.311-9.354 5.887l-19.73 41.126c3.996-1.684 8.294-2.555 12.725-2.555h127.647c.873 0 1.743.035 2.608.104l-37.9-37.9c-1.868-1.868-3.208-4.141-3.942-6.661h-72.054z"/><path d="m141.935 107.396h-101.015c-.859 0-1.658-.441-2.116-1.168s-.51-1.638-.138-2.413l3.803-7.928c2.542-5.299 7.983-8.724 13.862-8.724h74.061c1.238 0 2.29.907 2.473 2.131.343 2.303 1.38 4.376 2.998 5.995l7.839 7.839c.715.715.929 1.79.542 2.724-.386.935-1.298 1.544-2.309 1.544zm-97.042-5h91.007l-3.571-3.572c-1.868-1.868-3.208-4.141-3.942-6.661h-72.055c-3.967 0-7.638 2.311-9.354 5.887z"/><path d="m59.165 75.049c-.451 0-.908-.122-1.319-.378-1.172-.73-1.53-2.271-.8-3.444l20.482-32.89c.73-1.171 2.271-1.53 3.444-.8 1.172.73 1.53 2.271.8 3.444l-20.482 32.89c-.474.76-1.29 1.178-2.125 1.178z"/><path d="m78.563 75.049c-4.267 0-7.738-3.471-7.738-7.738s3.471-7.738 7.738-7.738 7.738 3.471 7.738 7.738-3.471 7.738-7.738 7.738zm0-10.476c-1.51 0-2.738 1.228-2.738 2.738s1.228 2.738 2.738 2.738 2.738-1.228 2.738-2.738-1.228-2.738-2.738-2.738z"/><path d="m60.563 52.635c-4.267 0-7.738-3.471-7.738-7.738s3.471-7.738 7.738-7.738 7.738 3.471 7.738 7.738-3.471 7.738-7.738 7.738zm0-10.476c-1.51 0-2.738 1.229-2.738 2.738s1.228 2.738 2.738 2.738 2.738-1.228 2.738-2.738-1.228-2.738-2.738-2.738z"/><path d="m170.951 103.352-5.055-5.055 14.119-14.119c.468-.468.468-1.226 0-1.693l-2.147-2.147c-.468-.468-1.226-.468-1.693 0l-16.642 16.642c-.468.468-.468 1.226 0 1.693l8.049 8.049c.468.468 1.226.468 1.693 0l1.676-1.676c.468-.468.468-1.226 0-1.694z"/><path d="m199.202 110.391c.649-2.209.691-4.425.128-6.588-.566-2.161-1.707-4.111-3.393-5.796-1.685-1.685-3.641-2.834-5.813-3.415-2.183-.582-4.41-.547-6.619.103-2.192.645-4.202 1.871-5.973 3.642-1.772 1.772-2.997 3.781-3.642 5.973-.651 2.21-.685 4.437-.103 6.619.578 2.171 1.727 4.126 3.414 5.814 1.688 1.688 3.638 2.829 5.797 3.393 2.162.564 4.378.521 6.589-.129 2.192-.645 4.201-1.87 5.973-3.642 1.771-1.772 2.997-3.781 3.642-5.974zm-7.532 2.084c-1.163 1.163-2.414 1.961-3.716 2.373-1.289.407-2.513.451-3.744.134-1.239-.318-2.322-.953-3.31-1.94-1.006-1.006-1.654-2.095-1.979-3.33-.321-1.218-.277-2.438.137-3.732.418-1.312 1.22-2.567 2.385-3.732 1.179-1.179 2.436-1.984 3.74-2.395 1.287-.407 2.505-.448 3.724-.126 1.237.327 2.326.974 3.331 1.979.975.975 1.632 2.087 1.954 3.306.322 1.22.281 2.438-.126 3.725-.411 1.302-1.217 2.56-2.396 3.738z"/><path d="m214.19 118.065c.206-.454.109-.989-.243-1.342l-2.431-2.431c-.352-.352-.886-.449-1.34-.244l-22.495 10.174c-.358.162-.614.49-.685.876-.071.387.053.783.331 1.061l2.313 2.313c.356.356.898.451 1.355.238l4.48-2.099 6.13 6.13-2.099 4.48c-.214.457-.119.998.238 1.355l2.313 2.313c.278.278.674.401 1.061.332.386-.07.714-.326.876-.683zm-10.444 10.079-3.675-3.675 6.909-3.233z"/><path d="m236.124 138.594-2.147-2.147c-.468-.468-1.226-.468-1.693 0l-10.337 10.337 3.716-17.886c.082-.395-.04-.805-.325-1.09l-2.148-2.148c-.468-.468-1.226-.468-1.693 0l-16.642 16.642c-.468.468-.468 1.226 0 1.693l2.148 2.148c.468.468 1.226.468 1.693 0l10.318-10.318-3.698 17.868c-.081.395.041.804.326 1.089l2.147 2.147c.468.468 1.226.468 1.693 0l16.642-16.642c.468-.467.468-1.225 0-1.693z"/><path d="m131.5 190h-56c-1.381 0-2.5-1.119-2.5-2.5s1.119-2.5 2.5-2.5h56c1.381 0 2.5 1.119 2.5 2.5s-1.119 2.5-2.5 2.5z"/><path d="m190.16 182.577h-18.163c-7.221 0-13.095-5.875-13.095-13.095s5.875-13.095 13.095-13.095h18.163c7.221 0 13.095 5.875 13.095 13.095s-5.875 13.095-13.095 13.095zm-18.163-21.19c-4.464 0-8.095 3.631-8.095 8.095s3.631 8.095 8.095 8.095h18.163c4.464 0 8.095-3.631 8.095-8.095s-3.631-8.095-8.095-8.095z"/><path d="m193.222 182.119c-.246 0-.491-.036-.728-.108-5.478-1.667-9.304-6.82-9.304-12.529 0-5.71 3.826-10.862 9.304-12.529.475-.145.982-.145 1.456 0 5.479 1.667 9.305 6.819 9.305 12.529 0 5.709-3.826 10.861-9.305 12.529-.237.072-.483.108-.728.108zm0-20.122c-2.998 1.239-5.032 4.215-5.032 7.485s2.035 6.245 5.032 7.485c2.998-1.24 5.033-4.215 5.033-7.485s-2.035-6.246-5.033-7.485z"/><path d="m14.37 182.119c-.245 0-.491-.036-.728-.108-5.478-1.667-9.304-6.819-9.304-12.529s3.826-10.862 9.305-12.529c.474-.145.981-.145 1.455 0 5.479 1.667 9.305 6.819 9.305 12.529 0 5.709-3.826 10.861-9.304 12.529-.239.072-.484.108-.729.108zm0-20.122c-2.998 1.239-5.032 4.214-5.032 7.485 0 3.27 2.035 6.245 5.032 7.485 2.998-1.24 5.032-4.215 5.032-7.485 0-3.271-2.035-6.246-5.032-7.485z"/><path d="m35.596 182.577h-18.163c-7.221 0-13.095-5.875-13.095-13.095s5.875-13.095 13.095-13.095h18.163c7.22 0 13.095 5.875 13.095 13.095s-5.875 13.095-13.095 13.095zm-18.163-21.19c-4.464 0-8.095 3.631-8.095 8.095s3.631 8.095 8.095 8.095h18.163c4.463 0 8.095-3.631 8.095-8.095s-3.631-8.095-8.095-8.095z"/></svg>