<svg enable-background="new 0 0 256 256" height="512" viewBox="0 0 256 256" width="512" xmlns="http://www.w3.org/2000/svg"><path d="m240.81 43.019h-225.621c-6.996 0-12.689 5.692-12.689 12.689v137.767c0 6.997 5.693 12.689 12.689 12.689h143.502l3.263-10.797c-1.014-.354-1.979-.765-2.692-1.477-1.589-1.589-1.697-4.421-2.951-6.295-1.245-1.859-3.825-3.038-4.693-5.13-.853-2.056.13-4.71-.312-6.945-.429-2.169-2.361-4.244-2.361-6.539s1.932-4.37 2.361-6.539c.442-2.235-.541-4.889.312-6.945.868-2.092 3.448-3.27 4.693-5.13 1.254-1.874 1.363-4.706 2.951-6.295 1.589-1.589 4.421-1.697 6.295-2.951 1.859-1.245 3.038-3.825 5.13-4.693 2.056-.853 4.71.13 6.945-.312 2.169-.429 4.244-2.361 6.539-2.361s4.37 1.932 6.539 2.361c2.235.442 4.889-.541 6.945.312 2.092.867 3.27 3.448 5.13 4.693 1.874 1.254 4.706 1.363 6.295 2.951s1.697 4.421 2.951 6.295c1.245 1.859 3.825 3.038 4.693 5.13.853 2.056-.13 4.71.312 6.945.429 2.169 2.361 4.244 2.361 6.539s-1.932 4.37-2.361 6.539c-.442 2.235.541 4.889-.312 6.945-.867 2.092-3.448 3.27-4.693 5.13-1.254 1.874-1.363 4.706-2.951 6.295-.555.555-1.266.925-2.032 1.231l3.337 11.043h30.426c6.997 0 12.688-5.692 12.688-12.689v-137.767c-.001-6.997-5.692-12.689-12.689-12.689z" fill="#f5c84c"/><path d="m237.34 69.729c-.985-.218-1.994-.565-3.026-1.069-2.78-1.358-5.057-3.629-6.428-6.403-.522-1.056-.879-2.089-1.101-3.096-.757-3.445-3.692-5.966-7.219-5.966h-183.133c-3.528 0-6.464 2.522-7.22 5.968-.221 1.005-.577 2.035-1.095 3.088-1.369 2.778-3.648 5.05-6.431 6.409-1.032.504-2.043.852-3.028 1.069-3.451.762-5.984 3.69-5.984 7.224v95.277c0 3.535 2.535 6.462 5.986 7.225.983.217 1.99.564 3.02 1.066 2.782 1.356 5.061 3.627 6.432 6.402.522 1.057.88 2.092 1.101 3.101.755 3.445 3.692 5.965 7.219 5.965h125.333l.188-.621c-1.014-.354-1.979-.765-2.692-1.477-1.589-1.589-1.697-4.421-2.951-6.295-1.245-1.859-3.825-3.038-4.693-5.13-.853-2.056.13-4.71-.312-6.945-.429-2.169-2.361-4.244-2.361-6.539s1.932-4.37 2.361-6.539c.442-2.235-.541-4.889.312-6.945.868-2.092 3.448-3.27 4.693-5.13 1.254-1.874 1.363-4.706 2.951-6.295 1.589-1.589 4.421-1.697 6.295-2.951 1.859-1.245 3.038-3.825 5.13-4.693 2.056-.853 4.71.13 6.945-.312 2.169-.429 4.244-2.361 6.539-2.361s4.37 1.932 6.539 2.361c2.235.442 4.889-.541 6.945.312 2.092.867 3.27 3.448 5.13 4.693 1.874 1.254 4.706 1.363 6.295 2.951s1.697 4.421 2.951 6.295c1.245 1.859 3.825 3.038 4.693 5.13.853 2.056-.13 4.71.312 6.945.429 2.169 2.361 4.244 2.361 6.539s-1.932 4.37-2.361 6.539c-.442 2.235.541 4.889-.312 6.945-.867 2.092-3.448 3.27-4.693 5.13-1.254 1.874-1.363 4.706-2.951 6.295-.555.555-1.266.925-2.032 1.231l.262.868h12.257c3.526 0 6.463-2.52 7.219-5.964.222-1.011.581-2.047 1.105-3.106 1.373-2.772 3.65-5.041 6.429-6.398 1.029-.502 2.036-.849 3.019-1.066 3.451-.763 5.985-3.69 5.985-7.224v-95.279c-.001-3.534-2.534-6.462-5.984-7.224z" fill="#edf4fc"/><path d="m207.047 195.121c-1.424.569-3.044.905-4.263 1.721-1.86 1.245-3.038 3.825-5.13 4.693-2.056.853-4.71-.13-6.945.312-1.738.344-3.418 1.639-5.197 2.145l10.261 33.955c.441 1.459 1.981 2.284 3.44 1.844l16.905-5.109c1.459-.441 2.284-1.981 1.844-3.44z" fill="#3caadc"/><path d="m177.632 201.846c-2.235-.442-4.889.541-6.945-.312-2.092-.868-3.27-3.448-5.13-4.693-1.034-.692-2.356-1.039-3.603-1.474l-10.841 35.873c-.441 1.459.384 2.999 1.844 3.44l16.905 5.109c1.459.441 2.999-.384 3.44-1.844l10.215-33.803c-2.039-.306-3.925-1.908-5.885-2.296z" fill="#70d6f9"/><path d="m207.047 195.121c-1.424.569-3.044.905-4.263 1.721-1.86 1.245-3.038 3.825-5.13 4.693-.23.095-.469.16-.712.214l10.724 35.486 8.452-2.554c1.459-.441 2.284-1.981 1.844-3.44z" fill="#70d6f9"/><path d="m170.687 201.535c-2.092-.868-3.27-3.448-5.13-4.693-1.034-.692-2.356-1.039-3.603-1.474l-10.841 35.873c-.441 1.459.384 2.999 1.844 3.44l8.452 2.554 10.693-35.383c-.492-.045-.97-.133-1.415-.317z" fill="#3caadc"/><path d="m219.396 168.982c0 2.295-1.932 4.37-2.361 6.539-.442 2.235.541 4.889-.312 6.945-.868 2.092-3.448 3.27-4.693 5.13-1.254 1.874-1.363 4.706-2.951 6.295-1.589 1.589-4.421 1.697-6.295 2.951-1.859 1.245-3.038 3.825-5.13 4.693-2.056.853-4.71-.13-6.945.312-2.169.429-4.244 2.361-6.539 2.361s-4.37-1.932-6.539-2.361c-2.235-.442-4.889.541-6.945-.312-2.092-.868-3.27-3.448-5.13-4.693-1.874-1.254-4.706-1.363-6.295-2.951-1.589-1.589-1.697-4.421-2.951-6.295-1.245-1.859-3.825-3.038-4.693-5.13-.853-2.056.13-4.71-.312-6.945-.429-2.169-2.361-4.244-2.361-6.539s1.932-4.37 2.361-6.539c.442-2.235-.541-4.889.312-6.945.868-2.092 3.448-3.27 4.693-5.13 1.254-1.874 1.363-4.706 2.951-6.295 1.589-1.589 4.421-1.697 6.295-2.951 1.859-1.245 3.038-3.825 5.13-4.693 2.056-.853 4.71.13 6.945-.312 2.169-.429 4.244-2.361 6.539-2.361s4.37 1.932 6.539 2.361c2.235.442 4.889-.541 6.945.312 2.092.868 3.27 3.448 5.13 4.693 1.874 1.254 4.706 1.363 6.295 2.951 1.589 1.589 1.697 4.421 2.951 6.295 1.245 1.859 3.825 3.038 4.693 5.13.853 2.056-.13 4.71.312 6.945.429 2.169 2.361 4.244 2.361 6.539z" fill="#f98fa6"/><circle cx="184.17" cy="168.982" fill="#fc657e" r="22.334"/><path d="m184.437 157.577 3.245 6.574c.043.088.127.148.224.162l7.255 1.054c.244.035.341.335.165.507l-5.25 5.118c-.07.068-.102.167-.085.263l1.239 7.226c.042.243-.213.428-.431.313l-6.489-3.412c-.087-.045-.19-.045-.276 0l-6.489 3.412c-.218.115-.473-.07-.431-.313l1.239-7.226c.017-.096-.015-.195-.085-.263l-5.25-5.118c-.176-.172-.079-.471.165-.507l7.255-1.054c.097-.014.18-.075.224-.162l3.245-6.574c.106-.221.421-.221.53 0z" fill="#f5c84c"/><path d="m151.314 71.092h-46.628c-1.76 0-3.186 1.426-3.186 3.186v3.628c0 1.76 1.427 3.186 3.186 3.186h46.628c1.76 0 3.186-1.426 3.186-3.186v-3.628c0-1.76-1.427-3.186-3.186-3.186z" fill="#3caadc"/><path d="m240.811 208.664h-30.427c-1.103 0-2.074-.722-2.394-1.777l-3.337-11.043c-.375-1.241.262-2.563 1.466-3.044.585-.234.963-.449 1.19-.676.477-.476.799-1.457 1.141-2.495.358-1.088.765-2.322 1.501-3.423.731-1.092 1.712-1.933 2.577-2.674.835-.715 1.623-1.39 1.885-2.022.251-.606.175-1.628.094-2.711-.086-1.148-.184-2.451.076-3.762.251-1.273.83-2.416 1.341-3.424.5-.988.973-1.921.973-2.629s-.473-1.641-.973-2.628c-.511-1.009-1.09-2.152-1.341-3.425-.26-1.311-.162-2.613-.076-3.761.081-1.083.157-2.105-.094-2.711-.262-.633-1.05-1.308-1.884-2.023-.865-.742-1.846-1.582-2.576-2.674-.738-1.101-1.145-2.336-1.503-3.425-.342-1.038-.664-2.017-1.139-2.492-.476-.476-1.456-.798-2.493-1.14-1.089-.358-2.323-.765-3.425-1.502-1.092-.73-1.933-1.711-2.674-2.577-.715-.834-1.391-1.622-2.023-1.885-.605-.25-1.628-.173-2.71-.093-1.148.086-2.45.183-3.763-.076-1.272-.252-2.416-.831-3.425-1.341-.987-.5-1.921-.973-2.629-.973-.707 0-1.64.472-2.628.973-1.009.511-2.151 1.089-3.426 1.341-1.311.26-2.611.162-3.762.076-1.083-.081-2.104-.158-2.711.093-.632.262-1.308 1.05-2.022 1.884-.742.865-1.582 1.846-2.674 2.576-1.101.738-2.335 1.144-3.424 1.502-1.038.342-2.018.664-2.493 1.139-.475.476-.798 1.456-1.14 2.493-.358 1.089-.766 2.324-1.503 3.425-.729 1.091-1.711 1.932-2.576 2.673-.834.715-1.622 1.39-1.884 2.022-.252.606-.175 1.629-.094 2.711.087 1.148.185 2.45-.075 3.761-.252 1.274-.83 2.417-1.341 3.424-.5.988-.973 1.922-.973 2.63s.473 1.642.974 2.631c.51 1.007 1.088 2.15 1.34 3.422.26 1.312.162 2.614.075 3.762-.081 1.083-.158 2.105.094 2.711.262.632 1.05 1.308 1.884 2.022.865.742 1.847 1.583 2.577 2.674.737 1.101 1.144 2.336 1.502 3.425.342 1.038.665 2.018 1.139 2.492.373.372 1.093.656 1.747.884 1.265.441 1.957 1.801 1.57 3.083l-3.263 10.797c-.319 1.055-1.291 1.777-2.394 1.777h-143.499c-8.376.003-15.189-6.811-15.189-15.186v-137.767c0-8.375 6.813-15.189 15.189-15.189h225.621c8.374 0 15.188 6.814 15.188 15.189v137.766c0 8.376-6.813 15.19-15.187 15.19zm-28.571-5h28.57c5.617 0 10.188-4.571 10.188-10.189v-137.767c0-5.619-4.57-10.189-10.188-10.189h-225.621c-5.618 0-10.189 4.571-10.189 10.189v137.766c0 5.619 4.571 10.189 10.189 10.189h141.645l2.09-6.915c-.502-.295-.988-.65-1.43-1.091-1.316-1.317-1.866-2.989-2.353-4.464-.283-.861-.551-1.675-.908-2.208-.35-.523-.994-1.075-1.676-1.659-1.186-1.017-2.529-2.168-3.249-3.904-.708-1.707-.576-3.457-.46-5.001.068-.912.133-1.772.006-2.417-.119-.597-.497-1.343-.896-2.134-.709-1.4-1.513-2.987-1.513-4.889 0-1.901.804-3.488 1.512-4.888.4-.791.778-1.538.897-2.136.127-.644.062-1.504-.006-2.416-.116-1.544-.248-3.294.46-5.001.72-1.736 2.063-2.887 3.249-3.904.682-.584 1.326-1.136 1.675-1.658.357-.534.626-1.347.909-2.208.486-1.476 1.037-3.148 2.354-4.464 1.316-1.317 2.989-1.867 4.464-2.353.861-.283 1.674-.551 2.206-.908.523-.35 1.075-.994 1.659-1.676 1.017-1.186 2.169-2.53 3.905-3.25 1.704-.707 3.456-.576 4.999-.46.912.069 1.771.134 2.418.005.599-.118 1.346-.497 2.137-.897 1.399-.708 2.986-1.512 4.887-1.512s3.488.803 4.888 1.512c.791.4 1.538.778 2.136.896.647.128 1.509.063 2.419-.005 1.543-.116 3.292-.247 4.999.46 1.736.72 2.889 2.064 3.904 3.25.585.682 1.137 1.326 1.659 1.675.533.357 1.347.625 2.207.908 1.476.486 3.148 1.037 4.465 2.354 1.316 1.316 1.867 2.988 2.353 4.464.283.861.552 1.674.908 2.207.351.523.994 1.075 1.676 1.659 1.186 1.016 2.529 2.168 3.249 3.905.707 1.706.576 3.456.461 4.999-.068.912-.133 1.773-.006 2.417.119.599.497 1.346.897 2.137.708 1.4 1.512 2.986 1.512 4.887s-.804 3.488-1.512 4.888c-.4.791-.778 1.538-.897 2.136-.127.646-.062 1.507.006 2.418.115 1.543.246 3.293-.461 5-.72 1.736-2.064 2.888-3.25 3.904-.682.584-1.326 1.136-1.676 1.659-.356.532-.624 1.345-.907 2.206-.485 1.476-1.036 3.148-2.354 4.465-.261.262-.537.491-.815.692z"/><path d="m128.997 224.145c-1.849.334-3.355-1.047-3.355-2.749 0-1.501 1.207-2.805 2.805-2.805 1.517 0 2.805 1.257 2.805 2.805 0 1.352-.978 2.508-2.255 2.749z" fill="#f5c84c"/><path d="m116.56 231.701c-3.995.744-7.144 3.829-7.904 7.743-.038.197-.313.197-.351 0-.76-3.914-3.908-6.999-7.904-7.743-.201-.037-.201-.306 0-.344 3.995-.744 7.144-3.829 7.904-7.743.038-.197.313-.197.351 0 .76 3.914 3.908 6.999 7.904 7.743.201.038.201.307 0 .344z" fill="#3caadc"/><path d="m91.308 24.075h2.07v2.07c0 1.549 1.256 2.805 2.805 2.805s2.805-1.256 2.805-2.805v-2.07h2.069c1.549 0 2.805-1.256 2.805-2.805s-1.256-2.805-2.805-2.805h-2.069v-2.07c0-1.549-1.256-2.805-2.805-2.805s-2.805 1.256-2.805 2.805v2.07h-2.07c-1.549 0-2.805 1.256-2.805 2.805.001 1.55 1.256 2.805 2.805 2.805z" fill="#ef4460"/><path d="m69.877 28.067c-1.854-.335-3.355 1.052-3.355 2.749 0 1.479 1.184 2.805 2.805 2.805 1.408 0 2.524-1.048 2.749-2.255.304-1.636-.79-3.033-2.199-3.299z" fill="#f5c84c"/><path d="m104.247 175.877c-3.697 0-5.482-2.72-6.786-4.706-1.227-1.868-1.745-2.449-2.606-2.449s-1.381.582-2.607 2.45c-1.304 1.986-3.089 4.706-6.786 4.706s-5.481-2.72-6.785-4.707c-1.225-1.867-1.743-2.449-2.603-2.449s-1.379.582-2.604 2.449c-1.303 1.986-3.088 4.707-6.785 4.707-1.381 0-2.5-1.119-2.5-2.5s1.119-2.5 2.5-2.5c.86 0 1.38-.582 2.605-2.449 1.303-1.986 3.087-4.706 6.784-4.706 3.696 0 5.48 2.72 6.783 4.706 1.226 1.868 1.745 2.449 2.604 2.449.861 0 1.38-.582 2.606-2.449 1.304-1.986 3.089-4.706 6.787-4.706 3.697 0 5.482 2.72 6.786 4.706 1.227 1.868 1.745 2.449 2.606 2.449 1.381 0 2.5 1.119 2.5 2.5s-1.118 2.499-2.499 2.499z"/><path d="m193.826 111.965h-131.652c-1.381 0-2.5-1.119-2.5-2.5s1.119-2.5 2.5-2.5h131.652c1.381 0 2.5 1.119 2.5 2.5s-1.119 2.5-2.5 2.5z"/><path d="m136.246 97.778h-16.492c-1.381 0-2.5-1.119-2.5-2.5s1.119-2.5 2.5-2.5h16.492c1.381 0 2.5 1.119 2.5 2.5s-1.119 2.5-2.5 2.5z"/><path d="m193.826 126.444h-131.652c-1.381 0-2.5-1.119-2.5-2.5s1.119-2.5 2.5-2.5h131.652c1.381 0 2.5 1.119 2.5 2.5s-1.119 2.5-2.5 2.5z"/><path d="m150.994 140.922h-88.82c-1.381 0-2.5-1.119-2.5-2.5s1.119-2.5 2.5-2.5h88.82c1.381 0 2.5 1.119 2.5 2.5s-1.119 2.5-2.5 2.5z"/><path d="m109.695 155.401h-47.521c-1.381 0-2.5-1.119-2.5-2.5s1.119-2.5 2.5-2.5h47.521c1.381 0 2.5 1.119 2.5 2.5s-1.119 2.5-2.5 2.5z"/><path d="m219.566 198.489h-12.258c-1.103 0-2.075-.722-2.394-1.778l-.262-.868c-.374-1.241.262-2.562 1.466-3.043.585-.234.963-.449 1.19-.676.477-.476.799-1.457 1.141-2.495.358-1.088.765-2.322 1.501-3.423.731-1.092 1.712-1.933 2.577-2.674.835-.715 1.623-1.39 1.885-2.022.251-.606.175-1.628.094-2.711-.086-1.148-.184-2.451.076-3.762.251-1.273.83-2.416 1.341-3.424.5-.988.973-1.921.973-2.629s-.473-1.641-.973-2.628c-.511-1.009-1.09-2.152-1.341-3.425-.26-1.311-.162-2.613-.076-3.761.081-1.083.157-2.105-.094-2.711-.262-.633-1.05-1.308-1.884-2.023-.865-.742-1.846-1.582-2.576-2.674-.738-1.101-1.145-2.336-1.503-3.425-.342-1.038-.664-2.017-1.139-2.492-.476-.476-1.456-.798-2.493-1.14-1.089-.358-2.323-.765-3.425-1.502-1.092-.731-1.933-1.711-2.674-2.577-.715-.834-1.391-1.622-2.023-1.885-.606-.251-1.63-.175-2.71-.093-1.148.086-2.45.183-3.763-.076-1.272-.252-2.416-.831-3.425-1.341-.987-.5-1.921-.973-2.629-.973-.707 0-1.64.473-2.628.973-1.009.511-2.151 1.089-3.426 1.341-1.311.26-2.611.162-3.762.076-1.083-.081-2.104-.158-2.711.093-.632.262-1.308 1.05-2.022 1.884-.742.865-1.582 1.846-2.674 2.576-1.101.738-2.335 1.144-3.424 1.502-1.038.342-2.018.664-2.493 1.139-.475.476-.798 1.456-1.14 2.493-.358 1.089-.766 2.324-1.503 3.425-.729 1.091-1.711 1.932-2.576 2.673-.834.715-1.622 1.39-1.884 2.022-.252.606-.175 1.629-.094 2.711.087 1.148.185 2.45-.075 3.761-.252 1.274-.83 2.417-1.341 3.424-.5.988-.973 1.922-.973 2.63s.473 1.642.974 2.631c.51 1.007 1.088 2.15 1.34 3.422.26 1.312.162 2.614.075 3.762-.081 1.083-.158 2.106.094 2.712.262.632 1.05 1.308 1.884 2.022.865.742 1.847 1.583 2.577 2.674.737 1.101 1.144 2.336 1.502 3.426.342 1.037.664 2.017 1.139 2.492.373.372 1.093.656 1.747.884 1.265.441 1.957 1.8 1.57 3.083l-.188.622c-.318 1.056-1.291 1.778-2.394 1.778h-125.329c-4.665 0-8.638-3.261-9.661-7.93-.185-.843-.488-1.694-.9-2.528-1.126-2.282-3.004-4.15-5.286-5.262-.814-.398-1.644-.691-2.463-.872-4.68-1.034-7.947-5.009-7.947-9.667v-95.277c0-4.657 3.267-8.632 7.944-9.665.822-.182 1.653-.476 2.471-.875 2.284-1.115 4.161-2.985 5.285-5.267.41-.832.711-1.679.896-2.52 1.024-4.67 4.997-7.932 9.661-7.932h183.133c4.663 0 8.636 3.261 9.661 7.93.186.841.488 1.691.9 2.525 1.128 2.281 3.005 4.15 5.284 5.264.817.399 1.646.693 2.467.874h.001c4.678 1.033 7.944 5.008 7.944 9.665v95.278c0 4.657-3.268 8.631-7.946 9.665-.82.182-1.648.475-2.46.872-2.28 1.112-4.157 2.98-5.287 5.261-.414.835-.718 1.688-.902 2.532-1.025 4.669-4.998 7.929-9.662 7.929zm-7.233-5h7.233c2.296 0 4.26-1.645 4.777-4 .271-1.242.711-2.48 1.306-3.68 1.618-3.266 4.308-5.941 7.573-7.535 1.166-.569 2.369-.994 3.575-1.26 2.37-.524 4.025-2.491 4.025-4.783v-95.278c0-2.292-1.653-4.259-4.021-4.783-1.207-.266-2.413-.691-3.585-1.264-3.268-1.596-5.957-4.274-7.572-7.541-.592-1.198-1.029-2.431-1.301-3.667-.519-2.357-2.482-4.003-4.778-4.003h-183.132c-2.296 0-4.261 1.646-4.777 4.004-.271 1.236-.708 2.467-1.296 3.659-1.61 3.269-4.302 5.951-7.576 7.549-1.173.573-2.38.998-3.587 1.264-2.367.523-4.021 2.49-4.021 4.783v95.277c0 2.293 1.655 4.26 4.025 4.784 1.204.266 2.407.689 3.576 1.259 3.272 1.595 5.964 4.273 7.577 7.542.592 1.197 1.03 2.432 1.302 3.672.517 2.356 2.481 4.001 4.777 4.001h119.575c-.363-.768-.623-1.556-.866-2.294-.283-.861-.551-1.675-.908-2.208-.35-.523-.994-1.075-1.676-1.66-1.186-1.016-2.529-2.167-3.249-3.903-.708-1.707-.576-3.457-.46-5.001.068-.912.133-1.773.006-2.417-.119-.597-.497-1.343-.896-2.134-.709-1.4-1.513-2.987-1.513-4.889 0-1.901.804-3.488 1.512-4.888.4-.791.778-1.538.897-2.136.127-.644.062-1.504-.006-2.416-.116-1.544-.248-3.294.46-5.001.72-1.736 2.063-2.887 3.249-3.903.682-.584 1.326-1.137 1.675-1.659.358-.534.626-1.347.909-2.208.486-1.476 1.037-3.148 2.354-4.464 1.316-1.317 2.989-1.867 4.464-2.353.861-.284 1.674-.551 2.206-.908.523-.35 1.075-.994 1.659-1.676 1.017-1.186 2.169-2.53 3.905-3.25 1.706-.708 3.458-.575 4.999-.46.91.068 1.771.133 2.418.005.599-.118 1.346-.497 2.137-.897 1.399-.708 2.986-1.512 4.887-1.512s3.488.803 4.888 1.512c.791.4 1.538.778 2.136.896.647.128 1.509.063 2.419-.005 1.54-.115 3.29-.248 4.999.46 1.736.72 2.889 2.064 3.904 3.25.585.682 1.137 1.326 1.659 1.675.533.357 1.347.625 2.207.908 1.476.486 3.148 1.037 4.465 2.354 1.316 1.316 1.867 2.988 2.353 4.464.283.861.552 1.674.908 2.207.351.523.994 1.075 1.676 1.659 1.186 1.016 2.529 2.168 3.249 3.905.707 1.706.576 3.456.461 4.999-.068.912-.133 1.773-.006 2.417.119.599.497 1.346.897 2.137.709 1.4 1.512 2.986 1.512 4.887s-.804 3.488-1.512 4.888c-.4.791-.778 1.538-.897 2.136-.127.646-.062 1.507.006 2.418.115 1.543.246 3.293-.461 5-.72 1.736-2.064 2.888-3.25 3.904-.682.584-1.326 1.136-1.676 1.659-.356.532-.624 1.345-.907 2.206-.245.739-.505 1.527-.868 2.296z"/><path d="m198.408 242.41c-.854 0-1.702-.211-2.477-.626-1.239-.664-2.146-1.77-2.552-3.115l-10.261-33.954c-.193-.641-.122-1.333.199-1.921s.865-1.022 1.509-1.206c.594-.169 1.265-.506 1.975-.862 1.009-.506 2.151-1.08 3.422-1.332 1.312-.259 2.614-.161 3.763-.076 1.082.082 2.104.159 2.711-.093.632-.262 1.307-1.05 2.021-1.884.742-.865 1.583-1.846 2.675-2.577 1.102-.738 2.338-1.147 3.429-1.508.438-.146.878-.289 1.297-.457.652-.26 1.381-.234 2.012.069.632.304 1.106.858 1.31 1.529l10.915 36.12c.406 1.344.265 2.767-.398 4.006-.664 1.239-1.771 2.145-3.116 2.551l-16.903 5.108c-.505.152-1.019.228-1.531.228zm-9.847-36.974 9.606 31.788c.021.068.062.12.125.153.063.034.132.041.198.02l16.904-5.108c.069-.021.121-.063.155-.126.033-.063.04-.129.02-.197l-10.161-33.625c-.479.176-.907.361-1.232.579-.524.351-1.076.995-1.661 1.677-1.016 1.185-2.167 2.528-3.902 3.248-1.708.708-3.458.576-5 .461-.915-.069-1.773-.134-2.418-.005-.604.12-1.355.496-2.15.895-.158.077-.319.158-.484.24z"/><path d="m170.656 242.408c-.502 0-1.013-.073-1.519-.226l-16.905-5.108c-2.775-.839-4.352-3.78-3.514-6.556l10.841-35.874c.197-.652.652-1.196 1.26-1.505.606-.309 1.313-.357 1.958-.132.242.084.487.166.732.247 1.094.361 2.333.771 3.438 1.511 1.092.73 1.932 1.711 2.674 2.576.715.834 1.391 1.623 2.023 1.885.604.251 1.627.174 2.71.093 1.149-.086 2.45-.184 3.762.075h.001c1.269.251 2.409.824 3.415 1.33.866.435 1.684.846 2.356.947.718.108 1.353.522 1.74 1.136.389.613.491 1.365.281 2.06l-10.215 33.803c-.686 2.27-2.779 3.738-5.038 3.738zm-7.069-43.804-10.081 33.36c-.042.137.036.283.174.324l16.905 5.108c.135.039.282-.037.324-.174l9.512-31.478c-.394-.181-.771-.371-1.134-.553-.791-.397-1.539-.773-2.14-.893-.646-.127-1.506-.062-2.419.005-1.543.116-3.293.247-5-.46-1.735-.72-2.888-2.063-3.903-3.25-.585-.682-1.137-1.326-1.659-1.676-.169-.111-.364-.215-.579-.313z"/><path d="m207.666 239.735c-.408 0-.814-.1-1.181-.296-.585-.313-1.021-.846-1.213-1.48l-10.724-35.486c-.2-.666-.115-1.385.235-1.985s.936-1.027 1.614-1.178c.102-.023.202-.044.298-.083.633-.262 1.308-1.05 2.022-1.884.742-.865 1.583-1.846 2.675-2.577 1.102-.738 2.338-1.147 3.429-1.508.438-.146.878-.289 1.297-.457.652-.26 1.381-.234 2.012.069.632.304 1.106.858 1.31 1.529l10.915 36.12c.406 1.344.265 2.767-.398 4.006-.664 1.239-1.771 2.145-3.116 2.551l-8.451 2.554c-.238.07-.481.105-.724.105zm-7.705-36.638 9.375 31.022 6.059-1.831c.069-.021.121-.063.155-.126.033-.063.04-.129.02-.197l-10.161-33.625c-.479.176-.907.361-1.232.579-.524.351-1.076.995-1.661 1.677-.728.848-1.525 1.777-2.555 2.501z"/><path d="m161.409 239.736c-.239 0-.483-.035-.725-.107l-8.452-2.554c-2.775-.839-4.352-3.78-3.514-6.556l10.841-35.874c.197-.652.652-1.196 1.26-1.505s1.315-.356 1.958-.132c.242.084.487.166.732.247 1.094.361 2.333.771 3.438 1.511 1.092.73 1.932 1.711 2.674 2.576.715.834 1.391 1.623 2.023 1.885.155.064.38.109.687.138.748.069 1.425.47 1.844 1.093.42.623.537 1.401.32 2.12l-10.693 35.383c-.327 1.078-1.32 1.775-2.393 1.775zm2.178-41.132-10.081 33.36c-.042.137.036.283.174.324l6.059 1.831 9.258-30.633c-1.341-.756-2.306-1.881-3.171-2.892-.585-.682-1.137-1.326-1.659-1.676-.17-.112-.365-.216-.58-.314z"/><path d="m184.17 206.708c-1.901 0-3.487-.803-4.887-1.512-.791-.4-1.538-.779-2.137-.897-.646-.128-1.507-.062-2.418.005-1.543.116-3.293.247-5-.46-1.735-.72-2.888-2.063-3.903-3.249-.585-.682-1.137-1.326-1.659-1.675-.533-.357-1.347-.625-2.208-.909-1.476-.486-3.147-1.036-4.464-2.353-1.316-1.316-1.866-2.988-2.353-4.463-.283-.861-.551-1.675-.908-2.208-.35-.522-.994-1.074-1.676-1.659-1.186-1.017-2.529-2.168-3.249-3.904-.707-1.707-.576-3.456-.461-5 .068-.912.133-1.773.006-2.418-.119-.599-.497-1.346-.896-2.136-.709-1.4-1.512-2.986-1.512-4.888 0-1.901.803-3.487 1.511-4.887.4-.791.778-1.538.897-2.136.127-.646.062-1.507-.006-2.418-.115-1.543-.246-3.293.461-5 .72-1.736 2.063-2.887 3.249-3.903.682-.584 1.326-1.137 1.675-1.659.357-.534.626-1.347.909-2.208.486-1.476 1.037-3.148 2.354-4.464 1.315-1.317 2.988-1.868 4.464-2.353.861-.284 1.674-.551 2.206-.908.524-.351 1.076-.995 1.661-1.677 1.016-1.185 2.167-2.528 3.902-3.248 1.707-.708 3.457-.576 5-.461.914.069 1.772.133 2.418.006.599-.119 1.346-.497 2.137-.897 1.399-.708 2.986-1.512 4.887-1.512s3.488.803 4.888 1.512c.791.4 1.538.778 2.136.896.647.128 1.509.063 2.419-.005 1.544-.115 3.292-.247 5 .461 1.735.72 2.888 2.063 3.903 3.249.585.682 1.137 1.326 1.659 1.675.533.357 1.347.625 2.207.908 1.476.486 3.148 1.037 4.465 2.354 1.316 1.316 1.866 2.988 2.353 4.463.283.861.551 1.675.908 2.208.351.523.994 1.075 1.676 1.659 1.186 1.016 2.529 2.168 3.249 3.905.707 1.706.576 3.456.461 4.999-.068.912-.133 1.773-.006 2.417.119.599.497 1.346.897 2.137.708 1.4 1.511 2.986 1.511 4.887 0 1.902-.804 3.489-1.512 4.889-.4.791-.778 1.538-.897 2.136-.127.644-.062 1.504.006 2.416.116 1.544.248 3.294-.46 5.001-.72 1.736-2.063 2.887-3.249 3.904-.682.584-1.326 1.136-1.675 1.658-.357.534-.626 1.347-.909 2.208-.486 1.476-1.037 3.148-2.354 4.464-1.315 1.316-2.988 1.867-4.464 2.353-.86.283-1.674.551-2.206.908-.524.351-1.076.995-1.661 1.677-1.016 1.185-2.167 2.528-3.902 3.248-1.708.708-3.46.576-5.001.46-.913-.068-1.773-.134-2.417-.005-.599.118-1.346.497-2.136.896-1.401.709-2.988 1.513-4.889 1.513zm-7.935-7.481c.614 0 1.246.042 1.881.167 1.274.252 2.417.831 3.425 1.341.988.5 1.922.973 2.629.973.708 0 1.642-.473 2.63-.973 1.008-.51 2.151-1.089 3.424-1.341 1.312-.259 2.613-.162 3.762-.075 1.085.081 2.106.158 2.712-.093.632-.262 1.307-1.05 2.021-1.884.742-.865 1.583-1.846 2.675-2.577 1.101-.737 2.335-1.144 3.425-1.502 1.037-.341 2.018-.664 2.492-1.139.475-.476.798-1.456 1.14-2.493.358-1.089.766-2.324 1.503-3.425.729-1.091 1.711-1.932 2.576-2.673.834-.715 1.622-1.39 1.884-2.022.252-.606.175-1.629.094-2.712-.087-1.148-.185-2.45.075-3.76.252-1.274.83-2.416 1.341-3.424.5-.988.973-1.922.973-2.63s-.473-1.641-.973-2.629c-.51-1.008-1.089-2.151-1.34-3.424-.26-1.311-.162-2.613-.076-3.761.081-1.083.157-2.105-.094-2.711-.262-.633-1.05-1.308-1.884-2.023-.865-.742-1.846-1.582-2.576-2.674-.738-1.101-1.145-2.336-1.503-3.426-.342-1.037-.665-2.017-1.139-2.492-.476-.475-1.456-.798-2.493-1.14-1.089-.358-2.323-.765-3.425-1.502-1.092-.731-1.933-1.711-2.674-2.577-.715-.834-1.391-1.622-2.023-1.885-.604-.25-1.627-.173-2.709-.093-1.149.086-2.451.183-3.764-.076-1.272-.252-2.416-.831-3.425-1.341-.987-.5-1.921-.973-2.629-.973-.707 0-1.64.473-2.628.973-1.009.511-2.151 1.089-3.426 1.341-1.311.259-2.612.162-3.762.076-1.081-.081-2.103-.158-2.711.093-.632.262-1.307 1.05-2.021 1.884-.742.865-1.583 1.846-2.675 2.577-1.101.737-2.335 1.144-3.425 1.502-1.037.342-2.017.664-2.491 1.139-.476.476-.799 1.456-1.141 2.494-.358 1.089-.766 2.324-1.503 3.425-.729 1.091-1.711 1.932-2.576 2.673-.834.715-1.622 1.39-1.884 2.022-.251.606-.175 1.628-.094 2.711.086 1.148.184 2.451-.076 3.762-.251 1.272-.83 2.416-1.34 3.424-.5.988-.973 1.921-.973 2.629s.473 1.642.973 2.63c.51 1.008 1.089 2.151 1.34 3.424.26 1.311.162 2.613.076 3.762-.081 1.083-.157 2.105.094 2.711.262.632 1.05 1.308 1.884 2.023.865.742 1.846 1.582 2.576 2.673.738 1.102 1.145 2.337 1.503 3.427.342 1.037.665 2.017 1.139 2.492.476.475 1.455.797 2.493 1.139 1.089.358 2.323.765 3.425 1.503 1.092.73 1.933 1.711 2.674 2.576.715.834 1.391 1.622 2.023 1.885.604.251 1.627.174 2.71.093.593-.047 1.227-.094 1.881-.094z"/><path d="m184.17 193.816c-13.693 0-24.833-11.141-24.833-24.834s11.14-24.833 24.833-24.833 24.834 11.14 24.834 24.833-11.141 24.834-24.834 24.834zm0-44.668c-10.936 0-19.833 8.897-19.833 19.833 0 10.937 8.897 19.834 19.833 19.834 10.937 0 19.834-8.897 19.834-19.834 0-10.935-8.898-19.833-19.834-19.833z"/><path d="m190.938 181.331c-.443 0-.89-.107-1.302-.323l-5.467-2.874-5.464 2.873c-.951.499-2.08.416-2.948-.215-.867-.632-1.292-1.68-1.109-2.737l1.043-6.081-4.421-4.31c-.769-.751-1.038-1.85-.707-2.868s1.196-1.748 2.256-1.902l6.11-.888 2.732-5.536c.472-.96 1.434-1.559 2.509-1.559 1.074 0 2.035.599 2.509 1.562l2.731 5.532 6.108.888c1.062.155 1.927.884 2.258 1.903s.062 2.117-.704 2.866l-4.424 4.312 1.043 6.084c.183 1.053-.242 2.102-1.109 2.733-.49.358-1.064.54-1.644.54zm-2.174-2.43c.001.002.001.004.001.006zm-9.187-.004-.001.006c.001-.002.001-.004.001-.006zm4.595-6.048c.445 0 .89.106 1.294.317l2.544 1.337-.484-2.827c-.156-.908.146-1.835.807-2.478l2.052-2-2.838-.412c-.917-.134-1.705-.709-2.11-1.539l-1.265-2.563-1.27 2.572c-.401.821-1.189 1.396-2.104 1.53l-2.841.413 2.054 2.002c.659.641.961 1.567.805 2.477l-.484 2.826 2.538-1.334c.408-.214.856-.321 1.302-.321zm-7.652-.068.003.003zm15.304-.003-.004.003c.001 0 .002-.001.004-.003zm2.975-4.937h.01zm-16.378-4.803c-.003.005-.005.01-.008.015zm11.495-.008.008.015c-.003-.005-.005-.01-.008-.015zm-3.768-4.351-.004.008c.002-.003.003-.006.004-.008z"/><path d="m151.314 83.592h-46.629c-3.135 0-5.686-2.551-5.686-5.686v-3.628c0-3.135 2.551-5.686 5.686-5.686h46.629c3.135 0 5.686 2.551 5.686 5.686v3.628c0 3.135-2.551 5.686-5.686 5.686zm-46.628-10c-.378 0-.686.308-.686.686v3.628c0 .378.308.686.686.686h46.629c.378 0 .686-.308.686-.686v-3.628c0-.378-.308-.686-.686-.686z"/></svg>