<svg enable-background="new 0 0 256 256" height="512" viewBox="0 0 256 256" width="512" xmlns="http://www.w3.org/2000/svg"><path d="m240.108 47.2h-224.217c-7.365 0-13.391 6.026-13.391 13.392v131.41c0 7.365 6.026 13.392 13.391 13.392h224.217c7.365 0 13.391-6.026 13.391-13.392v-131.41c0-7.366-6.026-13.392-13.391-13.392z" fill="#fc8c48"/><path d="m57.644 71.949h-23.457c-4.174 0-7.589 3.415-7.589 7.589v23.457c0 4.174 3.415 7.589 7.589 7.589h23.457c4.174 0 7.589-3.415 7.589-7.589v-23.457c-.001-4.174-3.415-7.589-7.589-7.589z" fill="#f5c84c"/><path d="m121 184.82c-48.195-32.968-92.265-29.668-118.5-22.582v29.763c0 7.365 6.026 13.392 13.391 13.392h145.149c-12.912-4.57-26.35-11.208-40.04-20.573z" fill="#fcdd86"/><path d="m212 164.797h-22.656c-4.532 0-8.521 3.399-8.825 7.921-.332 4.934 3.614 9.079 8.48 9.079h22.656c4.532 0 8.521-3.399 8.825-7.921.332-4.934-3.613-9.079-8.48-9.079z" fill="#edf4fc"/><path d="m117.746 92.328c5.759 0 9.943-3.026 11.478-8.301.099-.338.032-.707-.179-.99-.211-.282-.548-.45-.9-.45h-3.035c-.467 0-.879.282-1.05.72-1.346 3.495-4.776 4.562-7.394 4.078-2.632-.49-5.444-2.717-5.444-7.498 0-4.545 2.609-7.599 6.491-7.599 3.071 0 5.324 1.462 6.348 4.117.17.437.582.718 1.049.718h3.035c.352 0 .688-.168.9-.451.211-.283.278-.652.18-.989-.741-2.544-2.11-4.585-4.069-6.067-3.46-2.614-8.723-3.021-12.798-.993-2.374 1.184-6.358 4.22-6.358 11.264 0 7.325 4.83 12.441 11.746 12.441z"/><path d="m132 92.138h2.877c.62 0 1.125-.504 1.125-1.125v-9.18h9.066v9.18c0 .62.504 1.125 1.125 1.125h2.908c.62 0 1.125-.504 1.125-1.125v-22.284c0-.62-.504-1.125-1.125-1.125h-2.908c-.62 0-1.125.504-1.125 1.125v8.515h-9.066v-8.515c0-.62-.504-1.125-1.125-1.125h-2.877c-.62 0-1.125.504-1.125 1.125v22.284c0 .621.505 1.125 1.125 1.125z"/><path d="m155.106 92.138c.473 0 .898-.298 1.057-.742l1.597-4.41h8.222l1.596 4.409c.16.444.585.743 1.058.743h3.096c.369 0 .715-.181.925-.484v-.001c.209-.304.258-.691.128-1.036l-8.217-21.873c-.164-.436-.587-.729-1.052-.729h-3.258c-.465 0-.888.293-1.052.728l-8.249 21.873c-.13.345-.083.733.128 1.037.21.303.556.485.925.485zm4.29-9.647 2.474-6.826 2.474 6.826z"/><path d="m174.64 92.138h2.876c.62 0 1.125-.504 1.125-1.125v-7.979h1.388l5.484 8.583c.207.326.562.52.948.52h3.257c.414 0 .793-.226.991-.592.196-.365.176-.806-.052-1.152l-5.169-7.834c1.389-.425 2.525-1.115 3.385-2.056 1.203-1.315 1.812-3.043 1.812-5.137 0-4.861-3.257-7.763-8.711-7.763h-7.334c-.62 0-1.125.504-1.125 1.125v22.284c0 .622.504 1.126 1.125 1.126zm4.001-13.44v-6.347h3.08c2.645 0 3.774.949 3.774 3.174s-1.129 3.173-3.774 3.173z"/><path d="m213.771 77.972h-11.19c-.62 0-1.125.504-1.125 1.125v2.149c0 .62.504 1.125 1.125 1.125h7.433c-.94 3.916-4.364 5.461-7.238 5.219-3.172-.263-6.371-2.747-6.371-7.703 0-4.748 2.841-6.976 5.498-7.478 2.706-.512 6.07.591 7.281 3.682.166.429.587.716 1.047.716h3.034c.35 0 .685-.166.896-.444.211-.279.281-.646.189-.98-.677-2.452-2.016-4.422-3.977-5.856-3.553-2.593-8.671-2.947-12.74-.881-4.098 2.083-6.449 6.18-6.449 11.24 0 15.83 22.146 16.871 23.712 1.865v-2.655c0-.62-.504-1.124-1.125-1.124z"/><path d="m229.955 72.193c.62 0 1.125-.504 1.125-1.125v-2.339c0-.62-.504-1.125-1.125-1.125h-12.296c-.62 0-1.125.504-1.125 1.125v22.284c0 .62.504 1.125 1.125 1.125h12.296c.62 0 1.125-.504 1.125-1.125v-2.339c0-.62-.504-1.125-1.125-1.125h-8.295v-5.526h7.347c.62 0 1.125-.504 1.125-1.125v-2.212c0-.62-.504-1.125-1.125-1.125h-7.347v-5.368z"/><path d="m129.045 112.853c-.211-.282-.548-.45-.9-.45h-3.035c-.467 0-.879.282-1.05.72-1.285 3.336-4.706 4.571-7.421 4.064-2.619-.487-5.418-2.709-5.418-7.485 0-4.807 2.818-7.044 5.456-7.534 2.614-.487 6.043.574 7.382 4.051 0 0 .001.001.001.002.17.437.582.718 1.049.718h3.035c.352 0 .688-.168.9-.451.211-.283.278-.652.18-.989-.741-2.545-2.11-4.586-4.069-6.068-3.51-2.651-8.611-3.068-12.696-1.034-4.106 2.044-6.461 6.164-6.461 11.304 0 7.558 5.135 11.674 10.224 12.4.558.08 1.134.12 1.717.12 4.532 0 9.562-2.469 11.284-8.38.101-.336.034-.706-.178-.988z"/><path d="m142.852 98.561c0-.001 0-.001 0 0-.164-.437-.588-.73-1.053-.73h-3.256c-.465 0-.888.293-1.052.728l-8.251 21.873c-.13.345-.083.733.128 1.037.21.303.556.485.925.485h3.099c.471 0 .896-.298 1.057-.742l1.596-4.41h8.22l1.597 4.411c.161.443.586.741 1.057.741h3.098c.37 0 .715-.181.925-.485s.258-.691.128-1.036zm-.223 13.746h-4.947l2.474-6.826z"/><path d="m163.772 112.375c1.391-.426 2.528-1.115 3.386-2.056 1.203-1.317 1.812-3.045 1.812-5.136 0-2.311-.755-4.206-2.244-5.632-1.474-1.414-3.65-2.131-6.467-2.131h-7.335c-.62 0-1.125.504-1.125 1.125v22.284c0 .62.504 1.125 1.125 1.125h2.877c.62 0 1.125-.504 1.125-1.125v-7.979h1.388l5.483 8.583c.207.326.562.52.948.52h3.258c.415 0 .794-.227.99-.592s.176-.806-.052-1.152zm.008-7.034c0 2.225-1.129 3.174-3.775 3.174h-3.079v-6.348h3.079c2.646 0 3.775.949 3.775 3.174z"/><path d="m178.433 97.42h-7.081c-.62 0-1.125.504-1.125 1.125v22.284c0 .62.504 1.125 1.125 1.125h7.081c5.262 0 9.285-2.079 11.324-5.852 1.817-3.354 2.333-8.969-.194-13.212-1.486-2.496-4.624-5.47-11.13-5.47zm7.631 12.25c0 4.869-2.716 7.442-7.853 7.442h-2.858v-14.914h2.858c5.137 0 7.853 2.584 7.853 7.472z"/><path d="m143.606 217.347c1.349.255 2.255 1.464 2.255 2.749 0 1.648-1.443 3.084-3.355 2.749-1.27-.24-2.255-1.383-2.255-2.749.001-1.672 1.505-3.094 3.355-2.749z" fill="#87d147"/><path d="m170.606 30.347c1.335.252 2.255 1.45 2.255 2.749 0 1.529-1.233 2.805-2.805 2.805-1.072 0-2.046-.556-2.592-1.728-.835-2.087.919-4.24 3.142-3.826z" fill="#ef4460"/><path d="m159.943 227.666c3.995-.744 7.144-3.829 7.904-7.743.038-.197.313-.197.351 0 .76 3.914 3.908 6.999 7.904 7.743.201.037.201.306 0 .344-3.995.744-7.144 3.829-7.904 7.743-.038.197-.313.197-.351 0-.76-3.914-3.908-6.999-7.904-7.743-.201-.037-.201-.306 0-.344z" fill="#ef4460"/><path d="m79.895 29.669c2.721-.507 4.865-2.607 5.382-5.272.026-.134.213-.134.239 0 .517 2.665 2.661 4.766 5.382 5.272.137.025.137.208 0 .234-2.721.507-4.865 2.607-5.382 5.272-.026.134-.213.134-.239 0-.517-2.665-2.661-4.766-5.382-5.272-.137-.025-.137-.208 0-.234z" fill="#f5c84c"/><path d="m59.968 146.201h-11.936c-1.381 0-2.5-1.119-2.5-2.5s1.119-2.5 2.5-2.5h11.936c1.381 0 2.5 1.119 2.5 2.5s-1.119 2.5-2.5 2.5z"/><path d="m89.968 146.201h-11.936c-1.381 0-2.5-1.119-2.5-2.5s1.119-2.5 2.5-2.5h11.936c1.381 0 2.5 1.119 2.5 2.5s-1.119 2.5-2.5 2.5z"/><path d="m119.968 146.201h-11.936c-1.381 0-2.5-1.119-2.5-2.5s1.119-2.5 2.5-2.5h11.936c1.381 0 2.5 1.119 2.5 2.5s-1.119 2.5-2.5 2.5z"/><path d="m149.968 146.201h-11.936c-1.381 0-2.5-1.119-2.5-2.5s1.119-2.5 2.5-2.5h11.936c1.381 0 2.5 1.119 2.5 2.5s-1.119 2.5-2.5 2.5z"/><path d="m179.968 146.201h-11.936c-1.381 0-2.5-1.119-2.5-2.5s1.119-2.5 2.5-2.5h11.936c1.381 0 2.5 1.119 2.5 2.5s-1.119 2.5-2.5 2.5z"/><path d="m209.968 146.201h-11.936c-1.381 0-2.5-1.119-2.5-2.5s1.119-2.5 2.5-2.5h11.936c1.381 0 2.5 1.119 2.5 2.5s-1.119 2.5-2.5 2.5z"/><path d="m126.575 27.422h-2.07v2.07c0 1.549-1.256 2.805-2.805 2.805s-2.805-1.256-2.805-2.805v-2.07h-2.069c-1.549 0-2.805-1.256-2.805-2.805s1.256-2.805 2.805-2.805h2.069v-2.07c0-1.549 1.256-2.805 2.805-2.805s2.805 1.256 2.805 2.805v2.07h2.07c1.549 0 2.805 1.256 2.805 2.805 0 1.55-1.256 2.805-2.805 2.805z" fill="#3caadc"/><path d="m240.108 207.893h-224.216c-8.763 0-15.892-7.129-15.892-15.892v-131.409c0-8.763 7.129-15.892 15.892-15.892h224.217c8.762 0 15.891 7.129 15.891 15.892v131.41c-.001 8.762-7.13 15.891-15.892 15.891zm-224.216-158.193c-6.006 0-10.892 4.886-10.892 10.892v131.41c0 6.006 4.886 10.892 10.892 10.892h224.217c6.005 0 10.891-4.886 10.891-10.892v-131.41c0-6.006-4.886-10.892-10.891-10.892z"/><path d="m45.915 113.083c-1.381 0-2.5-1.119-2.5-2.5v-38.634c0-1.381 1.119-2.5 2.5-2.5s2.5 1.119 2.5 2.5v38.634c0 1.381-1.119 2.5-2.5 2.5z"/><path d="m65.232 87.067h-19.317c-1.381 0-2.5-1.119-2.5-2.5s1.119-2.5 2.5-2.5h19.317c1.381 0 2.5 1.119 2.5 2.5s-1.119 2.5-2.5 2.5z"/><path d="m65.232 100.106h-19.317c-1.381 0-2.5-1.119-2.5-2.5s1.119-2.5 2.5-2.5h19.317c1.381 0 2.5 1.119 2.5 2.5s-1.119 2.5-2.5 2.5z"/><path d="m45.915 93.766h-19.316c-1.381 0-2.5-1.119-2.5-2.5s1.119-2.5 2.5-2.5h19.316c1.381 0 2.5 1.119 2.5 2.5s-1.119 2.5-2.5 2.5z"/><path d="m57.644 113.083h-23.457c-5.562 0-10.088-4.525-10.088-10.088v-23.457c0-5.563 4.525-10.088 10.088-10.088h23.457c5.563 0 10.089 4.525 10.089 10.088v23.457c-.001 5.563-4.526 10.088-10.089 10.088zm-23.457-38.634c-2.806 0-5.088 2.283-5.088 5.088v23.457c0 2.806 2.282 5.088 5.088 5.088h23.457c2.806 0 5.089-2.283 5.089-5.088v-23.456c0-2.806-2.283-5.088-5.089-5.088h-23.457z"/><path d="m161.041 207.893h-145.149c-8.763 0-15.892-7.129-15.892-15.892v-29.763c0-1.13.758-2.119 1.848-2.414 28.47-7.689 72.493-9.951 120.563 22.932 12.688 8.679 25.966 15.502 39.464 20.279 1.147.406 1.836 1.58 1.63 2.78-.206 1.201-1.246 2.078-2.464 2.078zm-156.041-43.726v27.835c0 6.006 4.886 10.892 10.892 10.892h132.175c-9.714-4.338-19.251-9.698-28.478-16.009-45.471-31.105-87.1-29.727-114.589-22.718z"/><path d="m211.656 184.297h-22.656c-3.025 0-5.952-1.275-8.03-3.498-2.105-2.251-3.151-5.181-2.944-8.25.386-5.749 5.357-10.252 11.318-10.252h22.656c3.025 0 5.952 1.275 8.03 3.498 2.105 2.251 3.151 5.181 2.944 8.25-.385 5.748-5.357 10.252-11.318 10.252zm-22.312-17c-3.339 0-6.119 2.455-6.33 5.588-.112 1.673.459 3.271 1.608 4.5 1.152 1.233 2.707 1.912 4.378 1.912h22.656c3.339 0 6.119-2.455 6.33-5.588.112-1.672-.459-3.27-1.608-4.5-1.152-1.233-2.707-1.912-4.378-1.912z"/></svg>