<svg enable-background="new 0 0 256 256" height="512" viewBox="0 0 256 256" width="512" xmlns="http://www.w3.org/2000/svg"><path d="m204.027 76.043-41.147-71.269c-1.256-2.175-4.036-2.92-6.211-1.664-5.371 3.101-119.258 68.854-124.78 72.042-2.175 1.255-2.92 4.036-1.664 6.211 3.15 5.456 15.765 27.305 26.333 45.61h68.351l77.454-44.718c2.175-1.256 2.92-4.037 1.664-6.212z" fill="#87d147"/><path d="m202.363 82.254-20.415 11.787c-7.765-13.449-3.157-30.647 10.292-38.412l11.787 20.415c1.256 2.174.511 4.955-1.664 6.21z" fill="#5bbf21"/><path d="m156.669 3.11-20.415 11.787c7.765 13.449 24.963 18.058 38.412 10.293l-11.786-20.416c-1.256-2.175-4.036-2.92-6.211-1.664z" fill="#5bbf21"/><path d="m52.304 63.365-20.415 11.786c-2.175 1.256-2.92 4.036-1.664 6.211l11.787 20.415c13.449-7.765 18.057-24.963 10.292-38.412z" fill="#5bbf21"/><circle cx="117.126" cy="78.703" fill="#5bbf21" r="30.933"/><path d="m149.165 145.104c-38.456 0-116.652 0-121.504 0-2.48 0-4.491 2.01-4.491 4.491v18.132c0-2.48 2.011-4.49 4.491-4.49h112.283c.6-7.221 4.049-13.64 9.221-18.133z" fill="#87d147"/><path d="m139.83 249.517v-5.033c0-2.191 1.793-3.983 3.983-3.983-2.191 0-3.983-1.792-3.983-3.983v-5.033c0-2.191 1.793-3.983 3.983-3.983-2.191 0-3.983-1.792-3.983-3.983v-5.033c0-2.191 1.793-3.983 3.983-3.983-2.191 0-3.983-1.792-3.983-3.983v-5.033c0-2.191 1.793-3.983 3.983-3.983-2.191 0-3.983-1.792-3.983-3.983v-5.033c0-2.191 1.793-3.983 3.983-3.983h8.912c-7.723-4.759-12.883-13.292-12.883-23.009 0-.76.039-1.51.101-2.255-40.492 0-107.793 0-112.283 0-2.48 0-4.491 2.01-4.491 4.49v81.283c0 2.48 2.011 4.491 4.491 4.491h116.15c-2.189-.007-3.98-1.798-3.98-3.988z" fill="#b2e26d"/><path d="m166.852 138.481c2.643 0 5.195.388 7.611 1.099v-8.118c0-2.48-2.01-4.491-4.491-4.491-6.126 0-136.014 0-142.311 0-2.48 0-4.491 2.01-4.491 4.491v18.132c0-2.48 2.011-4.491 4.491-4.491h121.504c4.743-4.119 10.926-6.622 17.687-6.622z" fill="#5bbf21"/><path d="m50.944 126.972c-12.757 0-21.739 0-23.283 0-2.48 0-4.491 2.01-4.491 4.491v18.132c0-2.48 2.011-4.491 4.491-4.491h16.538c4.2-4.866 6.745-11.2 6.745-18.132z" fill="#4daa11"/><path d="m166.852 138.481c2.643 0 5.195.388 7.611 1.099v-8.118c0-2.48-2.011-4.491-4.491-4.491h-23.283c0 5.998 1.908 11.545 5.142 16.084 4.297-2.886 9.465-4.574 15.021-4.574z" fill="#4daa11"/><path d="m27.661 145.104c-2.48 0-4.491 2.01-4.491 4.491v18.132c0-2.48 2.011-4.491 4.491-4.491h16.538c4.2-4.866 6.745-11.2 6.745-18.132z" fill="#5bbf21"/><path d="m27.661 253.5h23.283c0-15.339-12.435-27.774-27.774-27.774v23.283c0 2.48 2.011 4.491 4.491 4.491z" fill="#87d147"/><path d="m50.944 163.236h-23.283c-2.48 0-4.491 2.01-4.491 4.491v23.283c15.339 0 27.774-12.435 27.774-27.774z" fill="#87d147"/><circle cx="98.816" cy="208.368" fill="#87d147" r="30.552"/><circle cx="166.852" cy="165.491" fill="#fcdd86" r="27.009"/><g fill="#f5c84c"><path d="m228.847 201.5h-46.033c-2.191 0-3.983 1.792-3.983 3.983v5.033c0 2.191 1.793 3.983 3.983 3.983h46.033c2.191 0 3.983-1.792 3.983-3.983v-5.033c0-2.191-1.793-3.983-3.983-3.983z"/><path d="m228.847 214.5h-46.033c-2.191 0-3.983 1.792-3.983 3.983v5.033c0 2.191 1.793 3.983 3.983 3.983h46.033c2.191 0 3.983-1.792 3.983-3.983v-5.033c0-2.191-1.793-3.983-3.983-3.983z"/><path d="m228.847 227.5h-46.033c-2.191 0-3.983 1.792-3.983 3.983v5.033c0 2.191 1.793 3.983 3.983 3.983h46.033c2.191 0 3.983-1.792 3.983-3.983v-5.033c0-2.191-1.793-3.983-3.983-3.983z"/><path d="m228.847 240.5h-46.033c-2.191 0-3.983 1.792-3.983 3.983v5.033c0 2.191 1.793 3.983 3.983 3.983h46.033c2.191 0 3.983-1.792 3.983-3.983v-5.033c0-2.191-1.793-3.983-3.983-3.983z"/><path d="m178.83 249.517v-5.033c0-2.191 1.793-3.983 3.983-3.983h-39c-2.191 0-3.983 1.792-3.983 3.983v5.033c0 2.191 1.793 3.983 3.983 3.983h39c-2.191 0-3.983-1.792-3.983-3.983z"/><path d="m178.83 236.517v-5.033c0-2.191 1.793-3.983 3.983-3.983h-39c-2.191 0-3.983 1.792-3.983 3.983v5.033c0 2.191 1.793 3.983 3.983 3.983h39c-2.191 0-3.983-1.792-3.983-3.983z"/><path d="m178.83 223.517v-5.033c0-2.191 1.793-3.983 3.983-3.983h-39c-2.191 0-3.983 1.792-3.983 3.983v5.033c0 2.191 1.793 3.983 3.983 3.983h39c-2.191 0-3.983-1.792-3.983-3.983z"/><path d="m178.83 210.517v-5.033c0-2.191 1.793-3.983 3.983-3.983h-39c-2.191 0-3.983 1.792-3.983 3.983v5.033c0 2.191 1.793 3.983 3.983 3.983h39c-2.191 0-3.983-1.792-3.983-3.983z"/><path d="m189.847 188.5h-8.869c-4.113 2.534-8.951 4-14.126 4s-10.013-1.466-14.126-4h-8.912c-2.191 0-3.983 1.792-3.983 3.983v5.033c0 2.191 1.793 3.983 3.983 3.983h46.033c2.191 0 3.983-1.792 3.983-3.983v-5.033c0-2.191-1.793-3.983-3.983-3.983z"/></g><path d="m69.606 30.554c1.361-.257 2.255-1.475 2.255-2.749 0-1.529-1.233-2.805-2.805-2.805-1.59 0-2.805 1.305-2.805 2.805.001 1.686 1.521 3.09 3.355 2.749z" fill="#ef4460"/><path d="m190.506 120.554c1.843.333 3.355-1.042 3.355-2.749 0-1.51-1.217-2.805-2.805-2.805-3.388 0-3.806 4.938-.55 5.554z" fill="#70d6f9"/><path d="m196.943 134.713c3.995.744 7.144 3.829 7.904 7.743.038.197.313.197.351 0 .76-3.914 3.908-6.999 7.904-7.743.201-.037.201-.306 0-.344-3.995-.744-7.144-3.829-7.904-7.743-.038-.197-.313-.197-.351 0-.76 3.914-3.908 6.999-7.904 7.743-.201.038-.201.307 0 .344z" fill="#f5c84c"/><path d="m50.075 39.545h-2.07v-2.07c0-1.549-1.256-2.805-2.805-2.805s-2.805 1.256-2.805 2.805v2.07h-2.069c-1.549 0-2.805 1.256-2.805 2.805s1.256 2.805 2.805 2.805h2.069v2.07c0 1.549 1.256 2.805 2.805 2.805s2.805-1.256 2.805-2.805v-2.07h2.07c1.549 0 2.805-1.256 2.805-2.805s-1.256-2.805-2.805-2.805z" fill="#70d6f9"/><path d="m209.506 183.554c1.843.333 3.355-1.042 3.355-2.749 0-1.535-1.237-2.805-2.805-2.805-1.546 0-2.805 1.264-2.805 2.805.001 1.334.961 2.504 2.255 2.749z" fill="#5bbf21"/><path d="m117.981 97.104c-.864 0-1.705-.448-2.167-1.25-.69-1.196-.281-2.725.915-3.415l9.65-5.571c2.196-1.268 2.951-4.086 1.684-6.282-.614-1.063-1.606-1.825-2.792-2.143-1.185-.316-2.425-.154-3.489.459l-6.809 3.931c-4.582 2.647-10.465 1.07-13.112-3.513-2.646-4.584-1.07-10.466 3.513-13.112l10.89-6.288c1.196-.692 2.725-.281 3.415.915s.281 2.725-.915 3.415l-10.89 6.288c-2.196 1.268-2.951 4.085-1.683 6.282 1.268 2.195 4.085 2.95 6.282 1.683l6.809-3.931c2.22-1.282 4.807-1.623 7.283-.959 2.477.664 4.546 2.252 5.829 4.472 2.646 4.583 1.07 10.465-3.514 13.112l-9.65 5.571c-.395.228-.825.336-1.249.336z"/><path d="m126.655 97.704c-.864 0-1.705-.448-2.167-1.25l-19.053-33.001c-.69-1.196-.281-2.725.915-3.415 1.195-.691 2.725-.28 3.415.915l19.053 33.001c.69 1.196.281 2.725-.915 3.415-.394.227-.824.335-1.248.335z"/><path d="m71.869 107.334c-.864 0-1.705-.448-2.167-1.25-.69-1.196-.281-2.725.915-3.415l6.062-3.5c1.196-.692 2.725-.281 3.415.915s.281 2.725-.915 3.415l-6.062 3.5c-.394.227-.824.335-1.248.335z"/><path d="m156.327 58.572c-.864 0-1.705-.448-2.167-1.25-.69-1.196-.281-2.725.915-3.415l6.062-3.5c1.195-.693 2.725-.281 3.415.915s.281 2.725-.915 3.415l-6.062 3.5c-.394.227-.825.335-1.248.335z"/><path d="m102.699 224.89h-11.006c-1.381 0-2.5-1.119-2.5-2.5s1.119-2.5 2.5-2.5h11.006c2.487 0 4.511-2.023 4.511-4.511s-2.024-4.511-4.511-4.511h-7.766c-5.245 0-9.511-4.267-9.511-9.511s4.267-9.511 9.511-9.511h12.42c1.381 0 2.5 1.119 2.5 2.5s-1.119 2.5-2.5 2.5h-12.42c-2.487 0-4.511 2.024-4.511 4.511s2.024 4.511 4.511 4.511h7.766c5.245 0 9.511 4.267 9.511 9.511 0 5.245-4.266 9.511-9.511 9.511z"/><path d="m98.816 229.687c-1.381 0-2.5-1.119-2.5-2.5v-37.638c0-1.381 1.119-2.5 2.5-2.5s2.5 1.119 2.5 2.5v37.638c0 1.381-1.119 2.5-2.5 2.5z"/><path d="m54.111 210.868h-6.913c-1.381 0-2.5-1.119-2.5-2.5s1.119-2.5 2.5-2.5h6.913c1.381 0 2.5 1.119 2.5 2.5s-1.119 2.5-2.5 2.5z"/><path d="m23.17 170.227c-1.381 0-2.5-1.119-2.5-2.5v-18.132c0-3.854 3.136-6.991 6.991-6.991h121.504c1.043 0 1.977.647 2.342 1.625.365.977.085 2.078-.702 2.762-4.867 4.228-7.839 10.071-8.37 16.452-.107 1.296-1.191 2.293-2.491 2.293h-112.283c-1.098 0-1.991.893-1.991 1.99 0 1.381-1.119 2.501-2.5 2.501zm4.491-22.623c-1.098 0-1.991.893-1.991 1.991v11.43c.631-.188 1.299-.289 1.991-.289h110.072c.778-4.806 2.723-9.296 5.663-13.132z"/><path d="m143.811 256h-116.15c-3.854 0-6.991-3.136-6.991-6.991v-81.283c0-3.854 3.136-6.99 6.991-6.99h112.283c.699 0 1.366.293 1.84.807.473.515.709 1.204.651 1.9-.062.75-.093 1.42-.093 2.047 0 8.562 4.372 16.369 11.695 20.881.952.587 1.398 1.734 1.094 2.81s-1.287 1.819-2.405 1.819h-8.912c-.804 0-1.483.679-1.483 1.483v5.033c0 .804.679 1.483 1.483 1.483 1.381 0 2.5 1.119 2.5 2.5s-1.119 2.5-2.5 2.5c-.804 0-1.483.679-1.483 1.483v5.033c0 .804.679 1.483 1.483 1.483 1.381 0 2.5 1.119 2.5 2.5s-1.119 2.5-2.5 2.5c-.804 0-1.483.679-1.483 1.483v5.033c0 .804.679 1.483 1.483 1.483 1.381 0 2.5 1.119 2.5 2.5s-1.119 2.5-2.5 2.5c-.804 0-1.483.679-1.483 1.483v5.033c0 .804.679 1.483 1.483 1.483 1.381 0 2.5 1.119 2.5 2.5s-1.119 2.5-2.5 2.5c-.804 0-1.483.679-1.483 1.483v5.033c0 .804.679 1.483 1.482 1.483 1.38.001 2.499 1.121 2.499 2.501s-1.121 2.504-2.501 2.504zm-116.15-90.264c-1.098 0-1.991.893-1.991 1.99v81.283c0 1.098.893 1.991 1.991 1.991h109.841c-.112-.477-.171-.973-.171-1.483v-5.033c0-1.5.512-2.883 1.371-3.983-.859-1.1-1.371-2.483-1.371-3.983v-5.033c0-1.5.512-2.883 1.371-3.983-.859-1.1-1.371-2.483-1.371-3.983v-5.033c0-1.5.512-2.883 1.371-3.983-.859-1.1-1.371-2.483-1.371-3.983v-5.033c0-1.5.512-2.883 1.371-3.983-.859-1.1-1.371-2.483-1.371-3.983v-5.033c0-3.575 2.908-6.483 6.483-6.483h1.82c-5.225-5.375-8.228-12.557-8.29-20.264h-109.683z"/><path d="m23.17 152.095c-1.381 0-2.5-1.119-2.5-2.5v-18.132c0-3.854 3.136-6.991 6.991-6.991h142.312c3.854 0 6.991 3.136 6.991 6.991v8.118c0 .788-.372 1.53-1.002 2.002-.632.472-1.449.617-2.203.396-2.25-.662-4.573-.998-6.906-.998-5.886 0-11.585 2.134-16.047 6.01-.455.395-1.037.613-1.64.613h-121.505c-1.098 0-1.991.893-1.991 1.991 0 1.381-1.119 2.5-2.5 2.5zm4.491-22.623c-1.098 0-1.991.893-1.991 1.991v11.43c.631-.188 1.299-.289 1.991-.289h120.594c5.256-4.277 11.823-6.623 18.597-6.623 1.714 0 3.424.15 5.111.448v-4.967c0-1.098-.893-1.991-1.991-1.991h-142.311z"/><path d="m166.852 195c-16.271 0-29.509-13.238-29.509-29.509s13.238-29.509 29.509-29.509 29.509 13.238 29.509 29.509-13.238 29.509-29.509 29.509zm0-54.019c-13.515 0-24.509 10.995-24.509 24.509s10.994 24.51 24.509 24.51 24.509-10.995 24.509-24.509-10.995-24.51-24.509-24.51z"/><path d="m228.847 217h-46.033c-3.575 0-6.483-2.908-6.483-6.483v-5.033c0-3.575 2.908-6.483 6.483-6.483h46.033c3.575 0 6.483 2.908 6.483 6.483v5.033c0 3.575-2.908 6.483-6.483 6.483zm-46.034-13c-.804 0-1.483.679-1.483 1.483v5.033c0 .804.679 1.483 1.483 1.483h46.033c.804 0 1.483-.679 1.483-1.483v-5.033c0-.804-.679-1.483-1.483-1.483z"/><path d="m228.847 230h-46.033c-3.575 0-6.483-2.908-6.483-6.483v-5.033c0-3.575 2.908-6.483 6.483-6.483h46.033c3.575 0 6.483 2.908 6.483 6.483v5.033c0 3.575-2.908 6.483-6.483 6.483zm-46.034-13c-.804 0-1.483.679-1.483 1.483v5.033c0 .804.679 1.483 1.483 1.483h46.033c.804 0 1.483-.679 1.483-1.483v-5.033c0-.804-.679-1.483-1.483-1.483z"/><path d="m228.847 243h-46.033c-3.575 0-6.483-2.908-6.483-6.483v-5.033c0-3.575 2.908-6.483 6.483-6.483h46.033c3.575 0 6.483 2.908 6.483 6.483v5.033c0 3.575-2.908 6.483-6.483 6.483zm-46.034-13c-.804 0-1.483.679-1.483 1.483v5.033c0 .804.679 1.483 1.483 1.483h46.033c.804 0 1.483-.679 1.483-1.483v-5.033c0-.804-.679-1.483-1.483-1.483z"/><path d="m228.847 256h-46.033c-3.575 0-6.483-2.908-6.483-6.483v-5.033c0-3.575 2.908-6.483 6.483-6.483h46.033c3.575 0 6.483 2.908 6.483 6.483v5.033c0 3.575-2.908 6.483-6.483 6.483zm-46.034-13c-.804 0-1.483.679-1.483 1.483v5.033c0 .804.679 1.483 1.483 1.483h46.033c.804 0 1.483-.679 1.483-1.483v-5.033c0-.804-.679-1.483-1.483-1.483z"/><path d="m182.813 256h-39c-3.575 0-6.483-2.908-6.483-6.483v-5.033c0-3.575 2.908-6.483 6.483-6.483h39c1.381 0 2.5 1.119 2.5 2.5s-1.119 2.5-2.5 2.5c-.804 0-1.483.679-1.483 1.483v5.033c0 .804.679 1.483 1.483 1.483 1.381 0 2.5 1.119 2.5 2.5s-1.119 2.5-2.5 2.5zm-39-13c-.804 0-1.483.679-1.483 1.483v5.033c0 .804.679 1.483 1.483 1.483h32.688c-.112-.477-.171-.973-.171-1.483v-5.033c0-.51.059-1.007.171-1.483z"/><path d="m182.813 243h-39c-3.575 0-6.483-2.908-6.483-6.483v-5.033c0-3.575 2.908-6.483 6.483-6.483h39c1.381 0 2.5 1.119 2.5 2.5s-1.119 2.5-2.5 2.5c-.804 0-1.483.679-1.483 1.483v5.033c0 .804.679 1.483 1.483 1.483 1.381 0 2.5 1.119 2.5 2.5s-1.119 2.5-2.5 2.5zm-39-13c-.804 0-1.483.679-1.483 1.483v5.033c0 .804.679 1.483 1.483 1.483h32.688c-.112-.477-.171-.973-.171-1.483v-5.033c0-.51.059-1.007.171-1.483z"/><path d="m182.813 230h-39c-3.575 0-6.483-2.908-6.483-6.483v-5.033c0-3.575 2.908-6.483 6.483-6.483h39c1.381 0 2.5 1.119 2.5 2.5s-1.119 2.5-2.5 2.5c-.804 0-1.483.679-1.483 1.483v5.033c0 .804.679 1.483 1.483 1.483 1.381 0 2.5 1.119 2.5 2.5s-1.119 2.5-2.5 2.5zm-39-13c-.804 0-1.483.679-1.483 1.483v5.033c0 .804.679 1.483 1.483 1.483h32.688c-.112-.477-.171-.973-.171-1.483v-5.033c0-.51.059-1.007.171-1.483z"/><path d="m182.813 217h-39c-3.575 0-6.483-2.908-6.483-6.483v-5.033c0-3.575 2.908-6.483 6.483-6.483h39c1.381 0 2.5 1.119 2.5 2.5s-1.119 2.5-2.5 2.5c-.804 0-1.483.679-1.483 1.483v5.033c0 .804.679 1.483 1.483 1.483 1.381 0 2.5 1.119 2.5 2.5s-1.119 2.5-2.5 2.5zm-39-13c-.804 0-1.483.679-1.483 1.483v5.033c0 .804.679 1.483 1.483 1.483h32.688c-.112-.477-.171-.973-.171-1.483v-5.033c0-.51.059-1.007.171-1.483z"/><path d="m189.847 204h-46.033c-3.575 0-6.483-2.908-6.483-6.483v-5.033c0-3.575 2.908-6.483 6.483-6.483h8.912c.463 0 .917.128 1.312.372 3.853 2.374 8.284 3.628 12.814 3.628s8.962-1.255 12.814-3.628c.395-.243.849-.372 1.312-.372h8.869c3.575 0 6.483 2.908 6.483 6.483v5.033c0 3.575-2.908 6.483-6.483 6.483zm-46.034-13c-.804 0-1.483.679-1.483 1.483v5.033c0 .804.679 1.483 1.483 1.483h46.033c.804 0 1.483-.679 1.483-1.483v-5.033c0-.804-.679-1.483-1.483-1.483h-8.178c-4.494 2.619-9.601 4-14.817 4s-10.324-1.381-14.817-4z"/><path d="m124.909 129.472h-68.351c-.893 0-1.718-.477-2.165-1.25l-26.333-45.61c-1.942-3.365-.785-7.683 2.579-9.626l124.78-72.042c3.365-1.941 7.682-.785 9.626 2.579l41.147 71.27c.941 1.63 1.191 3.529.704 5.347s-1.653 3.337-3.283 4.278l-77.454 44.718c-.38.22-.811.336-1.25.336zm-66.908-5h66.237l76.874-44.383c.474-.273.812-.715.954-1.243s.069-1.079-.205-1.553l-41.147-71.27c-.564-.978-1.819-1.313-2.796-.749l-124.779 72.042c-.977.564-1.313 1.819-.749 2.796z"/><path d="m169.901 179.748h-9.143c-1.381 0-2.5-1.119-2.5-2.5s1.119-2.5 2.5-2.5h9.143c1.833 0 3.324-1.491 3.324-3.324s-1.491-3.324-3.324-3.324h-6.451c-4.59 0-8.324-3.734-8.324-8.324s3.734-8.324 8.324-8.324h10.317c1.381 0 2.5 1.119 2.5 2.5s-1.119 2.5-2.5 2.5h-10.317c-1.833 0-3.324 1.491-3.324 3.324s1.491 3.324 3.324 3.324h6.451c4.59 0 8.324 3.734 8.324 8.324s-3.734 8.324-8.324 8.324z"/><path d="m166.676 183.732c-1.381 0-2.5-1.119-2.5-2.5v-31.266c0-1.381 1.119-2.5 2.5-2.5s2.5 1.119 2.5 2.5v31.266c0 1.381-1.119 2.5-2.5 2.5z"/><path d="m23.17 152.095c-1.381 0-2.5-1.119-2.5-2.5v-18.132c0-3.854 3.136-6.991 6.991-6.991h23.283c1.381 0 2.5 1.119 2.5 2.5 0 7.252-2.611 14.271-7.353 19.765-.475.55-1.166.867-1.893.867h-16.537c-1.098 0-1.991.893-1.991 1.991 0 1.381-1.119 2.5-2.5 2.5zm4.491-22.623c-1.098 0-1.991.893-1.991 1.991v11.43c.631-.188 1.299-.289 1.991-.289h15.36c2.987-3.79 4.822-8.351 5.299-13.132z"/><path d="m151.833 145.556c-.782 0-1.551-.366-2.038-1.049-3.667-5.148-5.605-11.211-5.605-17.535 0-1.381 1.119-2.5 2.5-2.5h23.283c3.854 0 6.991 3.136 6.991 6.991v8.118c0 .788-.372 1.53-1.002 2.002-.632.472-1.449.618-2.203.396-2.25-.662-4.573-.998-6.906-.998-4.874 0-9.585 1.435-13.627 4.15-.429.287-.914.425-1.393.425zm-2.522-16.084c.354 3.601 1.472 7.056 3.295 10.182 4.352-2.41 9.228-3.673 14.246-3.673 1.714 0 3.424.15 5.111.448v-4.967c0-1.098-.893-1.991-1.991-1.991h-20.661z"/><path d="m23.17 170.227c-1.381 0-2.5-1.119-2.5-2.5v-18.132c0-3.854 3.136-6.991 6.991-6.991h23.283c1.381 0 2.5 1.119 2.5 2.5 0 7.252-2.611 14.271-7.352 19.765-.475.55-1.166.867-1.893.867h-16.538c-1.098 0-1.991.893-1.991 1.991 0 1.38-1.119 2.5-2.5 2.5zm4.491-22.623c-1.098 0-1.991.893-1.991 1.991v11.43c.631-.188 1.299-.289 1.991-.289h15.361c2.987-3.79 4.822-8.351 5.298-13.132z"/><path d="m50.944 256h-23.283c-3.854 0-6.991-3.136-6.991-6.991v-23.283c0-1.381 1.119-2.5 2.5-2.5 16.693 0 30.274 13.581 30.274 30.274 0 1.381-1.119 2.5-2.5 2.5zm-25.274-27.651v20.661c0 1.098.893 1.991 1.991 1.991h20.661c-1.179-11.945-10.708-21.474-22.652-22.652z"/><path d="m23.17 193.51c-1.381 0-2.5-1.119-2.5-2.5v-23.284c0-3.854 3.136-6.991 6.991-6.991h23.283c1.381 0 2.5 1.119 2.5 2.5 0 16.694-13.581 30.275-30.274 30.275zm4.491-27.774c-1.098 0-1.991.893-1.991 1.991v20.661c11.944-1.179 21.473-10.708 22.651-22.652z"/><path d="m98.816 241.42c-18.225 0-33.052-14.827-33.052-33.052 0-18.226 14.827-33.053 33.052-33.053s33.052 14.827 33.052 33.053c.001 18.225-14.826 33.052-33.052 33.052zm0-61.105c-15.468 0-28.052 12.584-28.052 28.053s12.584 28.052 28.052 28.052 28.052-12.584 28.052-28.052-12.583-28.053-28.052-28.053z"/><path d="m181.948 96.541c-.217 0-.434-.028-.647-.085-.641-.172-1.187-.591-1.518-1.165-4.089-7.083-5.176-15.334-3.059-23.235 2.117-7.9 7.184-14.503 14.267-18.592 1.195-.692 2.725-.281 3.415.915l11.787 20.415c.941 1.63 1.191 3.529.704 5.347s-1.653 3.337-3.283 4.278l-20.415 11.787c-.385.221-.816.335-1.251.335zm9.437-37.394c-4.825 3.441-8.278 8.404-9.832 14.203s-1.045 11.824 1.413 17.216l18.146-10.477c.474-.273.812-.715.954-1.243s.069-1.08-.204-1.553z"/><path d="m160.658 31.45c-10.591 0-20.904-5.491-26.569-15.304-.332-.574-.421-1.256-.25-1.897.172-.641.591-1.187 1.165-1.518l20.415-11.787c3.366-1.944 7.683-.786 9.626 2.579l11.787 20.415c.332.574.421 1.257.25 1.897-.172.641-.591 1.187-1.165 1.518-4.81 2.778-10.068 4.097-15.259 4.097zm-20.884-15.699c7.09 9.92 20.319 13.464 31.417 8.418l-10.476-18.145c-.564-.977-1.82-1.313-2.796-.749z"/><path d="m42.014 104.278c-.864 0-1.705-.448-2.167-1.25l-11.787-20.416c-1.943-3.365-.785-7.684 2.58-9.626l20.414-11.786c.574-.331 1.257-.421 1.897-.25.641.172 1.187.591 1.518 1.165 8.442 14.622 3.414 33.386-11.208 41.828-.393.227-.823.335-1.247.335zm9.27-37.438-18.144 10.476c-.978.564-1.313 1.818-.75 2.796l10.476 18.145c9.92-7.09 13.464-20.317 8.418-31.417z"/><path d="m117.205 112.139c-2.91 0-5.839-.383-8.729-1.157-8.635-2.314-15.846-7.841-20.304-15.563-9.217-15.965-3.728-36.452 12.237-45.67 15.965-9.217 36.453-3.728 45.67 12.237s3.728 36.453-12.237 45.67c-5.138 2.968-10.848 4.483-16.637 4.483zm-.127-61.863c-4.821 0-9.702 1.225-14.168 3.803-13.577 7.839-18.246 25.263-10.407 38.84 3.791 6.566 9.923 11.266 17.269 13.234 7.345 1.966 15.006.964 21.571-2.827 13.578-7.839 18.246-25.262 10.407-38.84-5.26-9.11-14.838-14.21-24.672-14.21z"/></svg>