<svg enable-background="new 0 0 256 256" height="512" viewBox="0 0 256 256" width="512" xmlns="http://www.w3.org/2000/svg"><path d="m219.363 114.884c-.649 0-1.285.055-1.907.152l.012 22.358c0 .666-.031 1.325-.074 1.981.643.104 1.298.172 1.97.172 6.81 0 12.331-5.521 12.331-12.331-.001-6.811-5.522-12.332-12.332-12.332z" fill="#f2ba94"/><path d="m219.363 142.046c-.742 0-1.517-.066-2.367-.204-1.274-.205-2.184-1.347-2.097-2.635.04-.601.068-1.204.068-1.813l-.012-22.357c-.001-1.232.897-2.282 2.116-2.472 9.225-1.435 17.122 5.726 17.122 14.65.001 8.178-6.652 14.831-14.83 14.831zm.594-24.645.011 19.626c5.141-.312 9.227-4.595 9.227-9.812-.001-5.222-4.092-9.505-9.238-9.814z"/><g fill="#c7d7e5"><path d="m167.816 75.704-46.138-41.261-8.916 7.974c.044.785.07 1.574.07 2.37 0 23.317-18.97 42.287-42.287 42.287-2.402 0-4.755-.212-7.049-.599l-35.561 31.802h120.088c.254-.241.515-.473.788-.692-.001.001-.002.001-.003.002v-13.66c0-12.711 7.888-23.664 19.008-28.223z"/><path d="m127.373 231.247h-104.119c-3.062 0-5.545 2.483-5.545 5.545s2.483 5.545 5.545 5.545h103.502z"/><path d="m129.227 197.961c.284-5.093 3.846-9.41 8.792-10.655l.218-.055v-48.422h-33.383c-.227 0-.445-.031-.661-.067v71.99c.216-.035.434-.066.661-.066h23.664z"/><path d="m37.39 210.686h33.383v-71.857h-33.383c-.226 0-.444-.032-.661-.067v71.99c.217-.034.435-.066.661-.066z"/></g><path d="m126.409 248.557.346-6.221h-112.743c-3.062 0-5.545 2.483-5.545 5.545s2.483 5.545 5.545 5.545h116.369c-2.344-.355-4.108-2.426-3.972-4.869z" fill="#dae6f1"/><path d="m127.991 220.156h-27.569c-3.062 0-5.545 2.483-5.545 5.545s2.483 5.545 5.545 5.545h26.951z" fill="#edf4fc"/><path d="m81.014 225.701c0-3.062-2.483-5.545-5.545-5.545h-42.512c-3.062 0-5.545 2.483-5.545 5.545s2.483 5.545 5.545 5.545h42.512c3.062 0 5.545-2.482 5.545-5.545z" fill="#edf4fc"/><path d="m144.171 127.215c0-3.522 1.484-6.691 3.852-8.938h-47.601c-3.062 0-5.545 2.483-5.545 5.545s2.483 5.545 5.545 5.545h43.948c-.123-.7-.199-1.417-.199-2.152z" fill="#edf4fc"/><path d="m81.014 123.822c0-3.062-2.483-5.545-5.545-5.545h-42.512c-3.062 0-5.545 2.483-5.545 5.545s2.483 5.545 5.545 5.545h42.512c3.062 0 5.545-2.483 5.545-5.545z" fill="#edf4fc"/><path d="m128.518 210.687h-23.664c-2.278 0-4.125 1.847-4.125 4.125v5.345h27.261z" fill="#dae6f1"/><path d="m100.73 129.367v5.337c0 2.278 1.847 4.125 4.125 4.125h33.646c2.278 0 4.125-1.847 4.125-4.125v-5.337z" fill="#dae6f1"/><path d="m33.265 129.367v5.337c0 2.278 1.847 4.125 4.125 4.125h33.646c2.278 0 4.125-1.847 4.125-4.125v-5.337z" fill="#dae6f1"/><path d="m75.161 220.156v-5.345c0-2.278-1.847-4.125-4.125-4.125h-33.646c-2.278 0-4.125 1.847-4.125 4.125v5.345z" fill="#dae6f1"/><path d="m100.73 134.209v-4.841h-.308c-3.062 0-5.545-2.483-5.545-5.545s2.483-5.545 5.545-5.545h-24.953c3.062 0 5.545 2.483 5.545 5.545s-2.483 5.545-5.545 5.545h-.308v4.841z" fill="#3a70bf"/><path d="m75.469 231.246h24.953c-3.062 0-5.545-2.483-5.545-5.545s2.483-5.545 5.545-5.545h.308v-5.345c0-2.278 1.847-4.125 4.125-4.125-.226 0-.444.032-.661.067v-71.99c.216.035.435.067.661.067-2.278 0-4.125-1.847-4.125-4.125v-.496h-25.569v.496c0 2.278-1.847 4.125-4.125 4.125h-.263v71.857h.263c2.278 0 4.125 1.847 4.125 4.125v5.345h.308c3.062 0 5.545 2.483 5.545 5.545s-2.483 5.544-5.545 5.544z" fill="#5290db"/><path d="m158.397 137.393v-20.357c0-.67.031-1.334.075-1.993-.642-.103-1.3-.159-1.971-.159-6.81 0-12.331 5.521-12.331 12.331s5.521 12.331 12.331 12.331c.672 0 1.327-.068 1.97-.172-.044-.655-.074-1.314-.074-1.981z" fill="#f2ba94"/><path d="m192.355 101.56c-10.788 13.566-26.702 11.652-32.052 10.532-.972-.203-1.905.529-1.906 1.523v.02 23.759c0 16.244 13.291 29.535 29.535 29.535 16.244 0 29.535-13.291 29.535-29.535v-26.31c0-.154-.002-.308-.005-.462-.017-.838-.687-1.528-1.525-1.553-12.27-.36-18.735-5.223-21.219-7.658-.677-.665-1.771-.594-2.363.149z" fill="#f9d0b4"/><path d="m156.502 114.884c.645 0 1.277.054 1.895.15v-1.399c0-.007 0-.013 0-.02.001-.993.934-1.726 1.906-1.523 5.351 1.12 21.265 3.034 32.052-10.532.591-.743 1.686-.813 2.364-.149 2.484 2.435 8.949 7.298 21.219 7.658.837.025 1.508.715 1.525 1.553.003.154.005.308.005.462v3.95c.618-.096 1.25-.15 1.895-.15 3.324 0 6.335 1.322 8.553 3.46v-22.18c0-9.279-7.592-16.871-16.871-16.871-3.147 0-6.09.889-8.618 2.406-2.954-4.929-8.334-8.258-14.468-8.258h-8.663c-16.768 0-30.486 13.719-30.486 30.486v13.66c2.108-1.688 4.779-2.703 7.692-2.703z" fill="#893c1a"/><path d="m187.932 166.929c-4.729 0-9.204-1.133-13.177-3.131v10.931l4.649 13.366c.272.781 1.008 1.304 1.834 1.304h14.247c.827 0 1.563-.523 1.834-1.304l4.649-13.366v-11.373c-4.18 2.277-8.964 3.573-14.036 3.573z" fill="#f2ba94"/><path d="m247.497 197.961c-.284-5.093-3.846-9.41-8.792-10.655l-22.938-5.773-13.798-6.803-4.649 13.366c-.272.781-1.008 1.304-1.834 1.304h-14.247c-.827 0-1.563-.523-1.834-1.304l-4.649-13.366-13.798 6.803-22.938 5.773c-4.946 1.245-8.509 5.562-8.792 10.655l-2.818 50.597c-.15 2.684 1.987 4.943 4.675 4.943h114.555c2.688 0 4.824-2.259 4.675-4.943z" fill="#edf4fc"/><path d="m160.957 181.533 13.798-6.803v-10.931c-9.116-4.583-15.568-13.749-16.284-24.425v.001c-.643.104-1.298.172-1.97.172-4.212 0-7.927-2.115-10.151-5.338h-3.725v.496c0 2.278-1.847 4.125-4.125 4.125h-.263v48.422z" fill="#5290db"/><circle cx="70.545" cy="44.787" fill="#70d6f9" r="42.287"/><path d="m51.359 82.451-35.439 31.693c-2.283 2.042-2.478 5.547-.437 7.83 2.042 2.284 5.548 2.478 7.83.437l40.183-35.936c-4.3-.725-8.379-2.101-12.137-4.024z" fill="#edf4fc"/><path d="m125.374 22.871c-2.105-1.882-5.288-1.882-7.393 0l-7.862 7.031c1.483 3.929 2.399 8.133 2.642 12.515l8.916-7.974c6.116 5.469 25.856 23.123 46.138 41.261 3.548-1.455 7.423-2.263 11.479-2.263h2.627c-24.076-21.532-49.686-44.435-56.547-50.57z" fill="#edf4fc"/><circle cx="121.822" cy="85" fill="#edf4fc" r="12.5"/><path d="m84.563 38.441h-28.037c-2.156 0-3.921 1.764-3.921 3.921v20.552c0 2.156 1.764 3.921 3.921 3.921h28.037c2.156 0 3.921-1.764 3.921-3.921v-20.552c0-2.157-1.764-3.921-3.921-3.921z" fill="#f5c84c"/><circle cx="70.545" cy="52.138" fill="#edb311" r="5"/><path d="m196.351 45.874h-2.07v-2.07c0-1.549-1.256-2.805-2.805-2.805s-2.805 1.256-2.805 2.805v2.07h-2.069c-1.549 0-2.805 1.256-2.805 2.805s1.256 2.805 2.805 2.805h2.069v2.07c0 1.549 1.256 2.805 2.805 2.805s2.805-1.256 2.805-2.805v-2.07h2.07c1.549 0 2.805-1.256 2.805-2.805s-1.256-2.805-2.805-2.805z" fill="#f5c84c"/><path d="m228.423 157.819c-1.854-.335-3.355 1.052-3.355 2.749 0 1.689 1.483 3.077 3.355 2.749 1.254-.237 2.255-1.37 2.255-2.749 0-1.352-.978-2.508-2.255-2.749z" fill="#87d147"/><path d="m169.423 28.819c-1.854-.335-3.355 1.052-3.355 2.749 0 1.689 1.483 3.077 3.355 2.749 1.311-.248 2.255-1.428 2.255-2.749 0-1.352-.978-2.508-2.255-2.749z" fill="#ef4460"/><path d="m21.423 173.819c-1.854-.335-3.355 1.052-3.355 2.749 0 1.549 1.249 2.805 2.805 2.805 1.589 0 2.805-1.312 2.805-2.805 0-1.352-.978-2.508-2.255-2.749z" fill="#3caadc"/><path d="m21.987 149.89c-3.995-.744-7.144-3.829-7.904-7.743-.038-.197-.313-.197-.351 0-.76 3.914-3.908 6.999-7.904 7.743-.201.037-.201.306 0 .344 3.995.744 7.144 3.829 7.904 7.743.038.197.313.197.351 0 .76-3.914 3.908-6.999 7.904-7.743.2-.038.2-.306 0-.344z" fill="#87d147"/><path d="m130.381 255.927h-116.369c-4.436 0-8.045-3.609-8.045-8.045 0-4.437 3.609-8.046 8.045-8.046h112.743c.688 0 1.344.283 1.816.782s.718 1.17.68 1.856l-.346 6.222v.001c-.062 1.117.733 2.088 1.852 2.258 1.293.196 2.216 1.356 2.117 2.66s-1.186 2.312-2.493 2.312zm-116.369-11.091c-1.679 0-3.045 1.366-3.045 3.046 0 1.679 1.366 3.045 3.045 3.045h110.202c-.241-.79-.35-1.636-.301-2.509l.199-3.582zm112.397 3.722h.01z"/><path d="m126.755 244.836h-103.501c-4.437 0-8.046-3.609-8.046-8.045s3.609-8.045 8.046-8.045h104.119c.688 0 1.344.283 1.816.782s.718 1.171.68 1.856l-.618 11.09c-.074 1.326-1.17 2.362-2.496 2.362zm-103.501-11.09c-1.68 0-3.046 1.366-3.046 3.045s1.366 3.045 3.046 3.045h101.137l.339-6.09z"/><path d="m127.373 233.746h-26.951c-4.436 0-8.045-3.609-8.045-8.045s3.609-8.045 8.045-8.045h27.568c.688 0 1.344.283 1.816.782s.718 1.171.68 1.856l-.617 11.09c-.073 1.326-1.169 2.362-2.496 2.362zm-26.951-11.09c-1.679 0-3.045 1.366-3.045 3.045s1.366 3.045 3.045 3.045h24.587l.339-6.09z"/><path d="m75.469 233.746h-42.512c-4.436 0-8.045-3.609-8.045-8.045s3.609-8.045 8.045-8.045h42.512c4.437 0 8.046 3.609 8.046 8.045s-3.61 8.045-8.046 8.045zm-42.512-11.09c-1.679 0-3.045 1.366-3.045 3.045s1.366 3.045 3.045 3.045h42.512c1.68 0 3.046-1.366 3.046-3.045s-1.366-3.045-3.046-3.045z"/><path d="m144.37 131.867h-43.948c-4.436 0-8.045-3.609-8.045-8.045s3.609-8.045 8.045-8.045h47.601c1.023 0 1.943.623 2.322 1.573.379.951.141 2.036-.602 2.74-1.981 1.88-3.072 4.41-3.072 7.124 0 .539.053 1.102.161 1.72.128.728-.072 1.475-.547 2.04-.475.566-1.177.893-1.915.893zm-43.948-11.09c-1.679 0-3.045 1.366-3.045 3.045s1.366 3.045 3.045 3.045h41.253c.049-2.147.551-4.212 1.46-6.09z"/><path d="m75.469 131.867h-42.512c-4.436 0-8.045-3.609-8.045-8.045s3.609-8.045 8.045-8.045h42.512c4.437 0 8.046 3.609 8.046 8.045s-3.61 8.045-8.046 8.045zm-42.512-11.09c-1.679 0-3.045 1.366-3.045 3.045s1.366 3.045 3.045 3.045h42.512c1.68 0 3.046-1.366 3.046-3.045s-1.366-3.045-3.046-3.045z"/><path d="m127.99 222.656h-27.261c-1.381 0-2.5-1.119-2.5-2.5v-5.345c0-3.653 2.972-6.625 6.625-6.625h23.664c.688 0 1.344.283 1.816.782s.718 1.171.68 1.857l-.528 9.47c-.074 1.325-1.17 2.361-2.496 2.361zm-24.761-5h22.396l.249-4.47h-21.021c-.896 0-1.625.729-1.625 1.625v2.845z"/><path d="m138.501 141.329h-33.646c-3.653 0-6.625-2.972-6.625-6.624v-5.338c0-1.381 1.119-2.5 2.5-2.5h41.896c1.381 0 2.5 1.119 2.5 2.5v5.338c0 3.652-2.972 6.624-6.625 6.624zm-35.272-9.462v2.838c0 .896.729 1.624 1.625 1.624h33.646c.896 0 1.625-.729 1.625-1.624v-2.838z"/><path d="m71.036 141.329h-33.645c-3.653 0-6.625-2.972-6.625-6.624v-5.338c0-1.381 1.119-2.5 2.5-2.5h41.896c1.381 0 2.5 1.119 2.5 2.5v5.338c-.001 3.652-2.973 6.624-6.626 6.624zm-35.27-9.462v2.838c0 .896.729 1.624 1.625 1.624h33.646c.896 0 1.625-.729 1.625-1.624v-2.838z"/><path d="m75.161 222.656h-41.895c-1.381 0-2.5-1.119-2.5-2.5v-5.345c0-3.653 2.972-6.625 6.625-6.625h33.646c3.653 0 6.625 2.972 6.625 6.625v5.345c-.001 1.381-1.12 2.5-2.501 2.5zm-39.395-5h36.896v-2.845c0-.896-.729-1.625-1.625-1.625h-33.646c-.896 0-1.625.729-1.625 1.625z"/><path d="m126.414 187.75c-1.381 0-2.5-1.119-2.5-2.5v-33.021c0-1.381 1.119-2.5 2.5-2.5s2.5 1.119 2.5 2.5v33.021c0 1.381-1.119 2.5-2.5 2.5z"/><path d="m116.018 201.555c-1.381 0-2.5-1.119-2.5-2.5v-46.825c0-1.381 1.119-2.5 2.5-2.5s2.5 1.119 2.5 2.5v46.825c0 1.381-1.12 2.5-2.5 2.5z"/><path d="m58.949 201.555c-1.381 0-2.5-1.119-2.5-2.5v-46.825c0-1.381 1.119-2.5 2.5-2.5s2.5 1.119 2.5 2.5v46.825c0 1.381-1.119 2.5-2.5 2.5z"/><path d="m48.553 201.555c-1.381 0-2.5-1.119-2.5-2.5v-46.825c0-1.381 1.119-2.5 2.5-2.5s2.5 1.119 2.5 2.5v46.825c0 1.381-1.119 2.5-2.5 2.5z"/><path d="m104.193 213.253c-.59 0-1.165-.209-1.62-.596-.559-.476-.88-1.171-.88-1.904v-71.99c0-.733.321-1.429.88-1.904.558-.475 1.292-.683 2.021-.563.086.014.171.033.261.034h33.383c1.381 0 2.5 1.119 2.5 2.5v48.423c0 1.146-.779 2.146-1.891 2.425l-.218.055c-3.906.982-6.682 4.346-6.906 8.368l-.708 12.726c-.073 1.325-1.169 2.361-2.496 2.361h-23.664c-.09.001-.175.021-.261.034-.134.02-.268.031-.401.031zm2.5-5.066h19.46l.577-10.364s0 0 0-.001c.314-5.629 3.859-10.423 9.007-12.409v-44.083h-29.044z"/><path d="m36.729 213.253c-.589 0-1.164-.208-1.619-.596-.559-.475-.881-1.171-.881-1.904v-71.99c0-.733.322-1.43.881-1.904.559-.476 1.293-.68 2.021-.563.085.014.17.033.259.034h33.383c1.381 0 2.5 1.119 2.5 2.5v71.857c0 1.381-1.119 2.5-2.5 2.5h-33.382c-.089.001-.174.021-.259.034-.134.021-.269.032-.403.032zm2.5-5.066h29.044v-66.857h-29.044z"/><path d="m100.729 136.709h-25.568c-1.381 0-2.5-1.119-2.5-2.5v-4.842c0-1.381 1.119-2.5 2.5-2.5h.308c1.68 0 3.046-1.366 3.046-3.045s-1.366-3.045-3.046-3.045c-1.381 0-2.5-1.119-2.5-2.5s1.119-2.5 2.5-2.5h24.953c1.381 0 2.5 1.119 2.5 2.5s-1.119 2.5-2.5 2.5c-1.679 0-3.045 1.366-3.045 3.045s1.366 3.045 3.045 3.045h.308c1.381 0 2.5 1.119 2.5 2.5v4.842c-.001 1.381-1.12 2.5-2.501 2.5zm-23.068-5h20.568v-.146c-3.374-.957-5.853-4.065-5.853-7.741 0-1.077.213-2.105.599-3.045h-10.06c.386.939.599 1.968.599 3.045 0 3.676-2.479 6.784-5.854 7.741v.146z"/><path d="m100.422 233.746h-24.953c-1.381 0-2.5-1.119-2.5-2.5s1.119-2.5 2.5-2.5c1.68 0 3.046-1.366 3.046-3.045s-1.366-3.045-3.046-3.045h-.308c-1.381 0-2.5-1.119-2.5-2.5v-5.345c0-.896-.729-1.625-1.625-1.625h-.263c-1.381 0-2.5-1.119-2.5-2.5v-71.857c0-1.381 1.119-2.5 2.5-2.5h.263c.896 0 1.625-.729 1.625-1.624v-.496c0-1.381 1.119-2.5 2.5-2.5h25.568c1.381 0 2.5 1.119 2.5 2.5v.496c0 .751.513 1.385 1.206 1.569.053.005.105.012.158.021.086.014.171.033.261.034 1.381 0 2.5 1.119 2.5 2.5 0 .653-.251 1.248-.661 1.693v68.471c.41.445.661 1.04.661 1.693 0 1.381-1.119 2.5-2.5 2.5-.09.001-.175.021-.261.034-.053.009-.105.016-.157.021-.694.185-1.207.819-1.207 1.57v5.345c0 1.381-1.119 2.5-2.5 2.5h-.308c-1.679 0-3.045 1.366-3.045 3.045s1.366 3.045 3.045 3.045c1.381 0 2.5 1.119 2.5 2.5s-1.118 2.5-2.499 2.5zm-17.506-5h10.06c-.386-.939-.599-1.968-.599-3.045 0-3.676 2.479-6.784 5.853-7.741v-3.148c0-2.509 1.402-4.697 3.464-5.821v-68.465c-1.488-.812-2.633-2.177-3.154-3.816h-21.188c-.625 1.965-2.145 3.536-4.078 4.231v67.635c2.556.92 4.388 3.368 4.388 6.236v3.148c3.374.957 5.854 4.065 5.854 7.741-.001 1.077-.214 2.106-.6 3.045z"/><path d="m87.021 201.4c-1.381 0-2.5-1.119-2.5-2.5v-47.133c0-1.381 1.119-2.5 2.5-2.5s2.5 1.119 2.5 2.5v47.133c0 1.381-1.119 2.5-2.5 2.5z"/><path d="m156.502 142.046c-8.178 0-14.831-6.653-14.831-14.831s6.653-14.831 14.831-14.831c.786 0 1.583.064 2.369.191 1.275.205 2.184 1.349 2.096 2.638-.047.696-.069 1.275-.069 1.823v20.357c0 .609.028 1.213.068 1.813.087 1.288-.822 2.431-2.097 2.636-.852.137-1.626.204-2.367.204zm-.605-24.644c-5.141.312-9.227 4.595-9.227 9.812s4.086 9.5 9.227 9.812z"/><path d="m187.933 169.429c-17.664 0-32.035-14.371-32.035-32.035v-23.759c.001-1.244.548-2.388 1.5-3.161.961-.778 2.207-1.081 3.417-.829 5.65 1.183 19.842 2.609 29.584-9.641.723-.908 1.799-1.471 2.953-1.542 1.152-.062 2.29.353 3.118 1.163 2.014 1.976 7.948 6.604 19.542 6.945 2.172.063 3.907 1.821 3.951 4.001l.005.512v26.311c0 17.664-14.371 32.035-32.035 32.035zm-27.036-54.678v22.643c0 14.907 12.128 27.035 27.035 27.035s27.035-12.128 27.035-27.035v-25.859c-11.391-.536-18.012-4.743-21.275-7.661-11.03 13.1-26.711 11.94-32.795 10.877zm33.415-11.636c-.001.001-.003.003-.003.004.002-.001.003-.003.003-.004zm-1.957-1.555h.01z"/><path d="m227.917 120.844c-.636 0-1.261-.242-1.736-.7-1.846-1.779-4.267-2.76-6.817-2.76-.485 0-.994.041-1.513.121-.726.112-1.456-.098-2.01-.572-.554-.476-.873-1.169-.873-1.898v-3.5c-11.391-.536-18.012-4.743-21.275-7.661-11.033 13.103-26.714 11.941-32.795 10.878v.283c0 .729-.319 1.423-.873 1.898s-1.286.684-2.01.572c-.519-.08-1.027-.121-1.513-.121-2.249 0-4.369.745-6.133 2.156-.75.601-1.778.718-2.645.301-.866-.416-1.417-1.292-1.417-2.253v-13.66c0-18.189 14.798-32.987 32.987-32.987h8.663c5.961 0 11.624 2.833 15.276 7.523 2.464-1.098 5.124-1.671 7.811-1.671 10.682 0 19.371 8.689 19.371 19.371v22.18c0 1.003-.6 1.909-1.522 2.301-.315.133-.647.199-.976.199zm-7.949-8.448c1.901.077 3.744.515 5.448 1.278v-17.51c0-7.924-6.447-14.371-14.371-14.371-2.562 0-5.098.709-7.334 2.05-.569.34-1.251.442-1.893.28-.644-.161-1.196-.571-1.537-1.14-2.603-4.345-7.324-7.043-12.323-7.043h-8.663c-15.433 0-27.987 12.555-27.987 27.987v9.402c1.525-.572 3.144-.894 4.781-.94.237-.746.686-1.41 1.309-1.915.96-.78 2.203-1.084 3.417-.83 5.65 1.184 19.842 2.612 29.584-9.641.722-.908 1.799-1.471 2.953-1.542 1.152-.062 2.29.353 3.118 1.163 2.014 1.976 7.948 6.604 19.542 6.945 2.172.063 3.907 1.821 3.95 4.001z"/><path d="m222.9 253.929c-1.381 0-2.5-1.119-2.5-2.5v-31.469c0-1.381 1.119-2.5 2.5-2.5s2.5 1.119 2.5 2.5v31.469c0 1.381-1.119 2.5-2.5 2.5z"/><path d="m152.964 253.929c-1.381 0-2.5-1.119-2.5-2.5v-31.469c0-1.381 1.119-2.5 2.5-2.5s2.5 1.119 2.5 2.5v31.469c0 1.381-1.119 2.5-2.5 2.5z"/><path d="m195.485 191.899h-14.247c-1.889 0-3.574-1.198-4.195-2.982l-4.649-13.366c-.092-.264-.139-.542-.139-.821v-10.932c0-.867.449-1.673 1.188-2.128.738-.454 1.66-.496 2.435-.105 3.78 1.9 7.836 2.864 12.055 2.864 4.474 0 8.913-1.13 12.841-3.268.774-.422 1.714-.404 2.473.046.758.451 1.223 1.268 1.223 2.149v11.373c0 .279-.047.558-.139.821l-4.649 13.366c-.622 1.785-2.308 2.983-4.197 2.983zm-13.85-5h13.454l4.38-12.593v-7.041c-3.668 1.422-7.591 2.163-11.536 2.163-3.683 0-7.26-.618-10.678-1.843v6.721z"/><path d="m245.64 256h-114.556c-1.966 0-3.867-.819-5.218-2.247s-2.062-3.372-1.953-5.334l2.817-50.597c.347-6.22 4.639-11.42 10.679-12.94l22.681-5.708 13.56-6.687c.643-.317 1.39-.341 2.054-.071.663.272 1.178.815 1.413 1.492l4.519 12.991h13.454l4.519-12.991c.235-.677.75-1.22 1.413-1.492.664-.27 1.411-.246 2.054.071l13.56 6.687 22.681 5.708c6.04 1.521 10.332 6.721 10.679 12.939v.001l2.817 50.597c.11 1.961-.602 3.905-1.952 5.333-1.353 1.429-3.256 2.248-5.221 2.248zm-72.317-77.777-11.261 5.553c-.158.078-.324.139-.495.183l-22.938 5.773c-3.907.983-6.683 4.347-6.907 8.369l-2.817 50.596c-.033.605.177 1.181.594 1.621.416.44.979.683 1.585.683h114.556c.606 0 1.17-.242 1.586-.683s.627-1.016.593-1.62l-2.817-50.598c-.225-4.021-3-7.385-6.907-8.368l-22.938-5.773c-.171-.044-.337-.104-.495-.183l-11.261-5.553-3.719 10.693c-.623 1.785-2.309 2.983-4.196 2.983h-14.247c-1.889 0-3.574-1.198-4.195-2.982z"/><path d="m148.022 120.777h-120.087c-1.036 0-1.966-.64-2.336-1.608-.369-.968-.104-2.064.669-2.755l35.562-31.803c.567-.507 1.335-.729 2.083-.602 2.223.374 4.454.564 6.633.564 21.938 0 39.786-17.849 39.786-39.787 0-.75-.025-1.493-.065-2.233-.042-.758.264-1.494.829-2l8.916-7.974c.949-.85 2.385-.85 3.334 0l46.138 41.261c.642.574.942 1.438.797 2.287-.146.849-.719 1.562-1.516 1.89-10.604 4.347-17.456 14.518-17.456 25.91v13.535c.033.682-.212 1.372-.729 1.89-.069.069-.143.135-.218.194-.214.172-.417.354-.616.543-.467.442-1.083.688-1.724.688zm-113.542-5h111.827v-11.85c0-12.126 6.579-23.075 17.05-28.856l-41.68-37.274-6.367 5.694c.014.446.021.875.021 1.296 0 24.695-20.091 44.787-44.786 44.787-2.062 0-4.164-.15-6.264-.448z"/><path d="m138.237 189.752c-.551 0-1.093-.183-1.537-.528-.607-.474-.963-1.201-.963-1.972v-48.423c0-1.381 1.119-2.5 2.5-2.5h.264c.896 0 1.625-.729 1.625-1.624v-.496c0-1.381 1.119-2.5 2.5-2.5h3.725c.821 0 1.591.403 2.058 1.08 1.84 2.665 4.865 4.257 8.094 4.257.472 0 .986-.046 1.572-.141.698-.108 1.404.075 1.954.513.551.438.891 1.087.938 1.789.637 9.486 6.351 18.053 14.912 22.357.844.424 1.377 1.288 1.377 2.233v10.932c0 .952-.541 1.821-1.395 2.242l-13.798 6.804c-.158.078-.324.139-.495.183l-22.72 5.719c-.202.051-.407.075-.611.075zm2.5-48.812v43.104l19.353-4.871 12.165-5.999v-7.878c-8.633-4.882-14.568-13.531-16.009-23.253-4.322-.075-8.381-2.036-11.133-5.335h-.297c-.626 1.967-2.145 3.537-4.079 4.232zm20.22 40.593h.01z"/><path d="m155.41 185.429c-1.381 0-2.5-1.119-2.5-2.5v-31.161c0-1.381 1.119-2.5 2.5-2.5s2.5 1.119 2.5 2.5v31.161c0 1.381-1.119 2.5-2.5 2.5z"/><path d="m196.784 152.019c-.802 0-1.59-.385-2.073-1.101-1.475-2.182-3.924-3.484-6.552-3.484s-5.078 1.303-6.553 3.484c-.773 1.146-2.329 1.445-3.471.672-1.145-.773-1.445-2.327-.672-3.471 2.406-3.561 6.404-5.686 10.695-5.686s8.288 2.125 10.694 5.686c.773 1.144.473 2.697-.672 3.471-.427.29-.914.429-1.396.429z"/><path d="m70.545 89.573c-24.695 0-44.787-20.091-44.787-44.786s20.092-44.787 44.787-44.787 44.787 20.092 44.787 44.787-20.092 44.786-44.787 44.786zm0-84.573c-21.939 0-39.787 17.849-39.787 39.787s17.849 39.786 39.787 39.786 39.787-17.848 39.787-39.786-17.849-39.787-39.787-39.787z"/><path d="m19.62 126.318c-2.212 0-4.414-.903-6.001-2.678-2.957-3.307-2.673-8.403.634-11.36l35.438-31.692c.77-.688 1.884-.834 2.806-.362 3.6 1.841 7.44 3.114 11.414 3.784.947.159 1.72.848 1.986 1.771.268.923-.019 1.917-.734 2.558l-40.184 35.936c-1.532 1.369-3.45 2.043-5.359 2.043zm32.153-40.884-34.187 30.573c-1.252 1.12-1.36 3.049-.241 4.3 1.121 1.253 3.049 1.359 4.3.24l36.576-32.709c-2.204-.633-4.359-1.436-6.448-2.404z"/><path d="m167.815 78.204c-.604 0-1.199-.219-1.666-.637l-44.472-39.771-7.249 6.483c-.718.643-1.736.812-2.624.446-.888-.367-1.485-1.211-1.539-2.171-.225-4.035-1.062-7.996-2.485-11.771-.365-.967-.098-2.058.672-2.746l7.862-7.031c3.059-2.734 7.669-2.734 10.726 0l56.548 50.57c.772.69 1.038 1.787.668 2.755-.369.969-1.299 1.608-2.335 1.608h-2.627c-3.626 0-7.169.698-10.53 2.076-.307.128-.629.189-.949.189zm-46.137-46.261c.596 0 1.191.212 1.666.637l45.003 40.245c2.358-.838 4.786-1.398 7.26-1.678l-51.898-46.413c-1.158-1.033-2.902-1.033-4.061 0l-6.611 5.913c.729 2.182 1.285 4.413 1.668 6.679l5.307-4.746c.473-.425 1.07-.637 1.666-.637z"/><path d="m58.045 40.94c-1.381 0-2.5-1.119-2.5-2.5v-9.803c0-8.271 6.729-15 15-15s15 6.729 15 15c0 1.381-1.119 2.5-2.5 2.5s-2.5-1.119-2.5-2.5c0-5.514-4.486-10-10-10s-10 4.486-10 10v9.803c0 1.381-1.119 2.5-2.5 2.5z"/><path d="m198.239 131.422c-.481 0-.969-.139-1.397-.429-1.145-.772-1.445-2.326-.672-3.471 1.322-1.957 3.52-3.126 5.88-3.126 2.359 0 4.558 1.168 5.881 3.125.773 1.144.473 2.698-.671 3.472-1.142.771-2.697.474-3.472-.671-.392-.58-1.042-.926-1.738-.926s-1.346.346-1.737.925c-.483.715-1.272 1.101-2.074 1.101z"/><path d="m179.078 131.422c-.803 0-1.591-.386-2.073-1.101-.392-.579-1.041-.925-1.737-.925s-1.347.346-1.738.926c-.773 1.146-2.33 1.443-3.472.671-1.144-.773-1.444-2.328-.671-3.472 1.323-1.957 3.521-3.125 5.881-3.125s4.558 1.169 5.88 3.126c.773 1.145.473 2.698-.672 3.471-.429.29-.916.429-1.398.429z"/><path d="m121.822 100c-8.271 0-15-6.729-15-15s6.729-15 15-15 15 6.729 15 15-6.728 15-15 15zm0-25c-5.514 0-10 4.486-10 10s4.486 10 10 10 10-4.486 10-10-4.486-10-10-10z"/><path d="m84.563 69.335h-28.037c-3.54 0-6.421-2.881-6.421-6.421v-20.552c0-3.54 2.881-6.421 6.421-6.421h28.037c3.54 0 6.421 2.881 6.421 6.421v20.552c0 3.54-2.88 6.421-6.421 6.421zm-28.037-28.394c-.771 0-1.421.65-1.421 1.421v20.552c0 .771.65 1.421 1.421 1.421h28.037c.771 0 1.421-.65 1.421-1.421v-20.552c0-.771-.65-1.421-1.421-1.421z"/><path d="m70.545 59.638c-4.136 0-7.5-3.364-7.5-7.5s3.364-7.5 7.5-7.5 7.5 3.364 7.5 7.5-3.364 7.5-7.5 7.5zm0-10c-1.379 0-2.5 1.121-2.5 2.5s1.121 2.5 2.5 2.5 2.5-1.121 2.5-2.5-1.121-2.5-2.5-2.5z"/><circle cx="188.359" cy="205.628" r="2.501"/><circle cx="188.359" cy="221.409" r="2.501"/><circle cx="188.359" cy="237.189" r="2.501"/></svg>