<svg enable-background="new 0 0 256 256" height="512" viewBox="0 0 256 256" width="512" xmlns="http://www.w3.org/2000/svg"><path d="m74.507 34.601c-.5 0-.99.04-1.468.114v17.322c0 .516-.024 1.027-.058 1.534.498.08 1.005.133 1.526.133 5.275 0 9.552-4.276 9.552-9.552 0-5.274-4.276-9.551-9.552-9.551z" fill="#f9d0b4"/><path d="m27.284 52.037v-15.768c0-.519.024-1.033.058-1.544-.497-.08-1.007-.123-1.526-.123-5.275 0-9.552 4.276-9.552 9.552 0 5.275 4.276 9.552 9.552 9.552.521 0 1.028-.053 1.526-.133-.035-.509-.058-1.02-.058-1.536z" fill="#f2ba94"/><path d="m53.587 24.281c-8.356 10.508-20.683 9.025-24.827 8.158-.753-.158-1.476.41-1.476 1.18v.016 18.403c0 12.583 10.295 22.878 22.878 22.878 12.583 0 22.878-10.295 22.878-22.878v-20.38c0-.12-.001-.239-.004-.358-.013-.649-.532-1.184-1.181-1.203-9.504-.279-14.512-4.045-16.436-5.932-.526-.514-1.374-.46-1.832.116z" fill="#f9d0b4"/><path d="m25.815 34.601c.5 0 .989.042 1.468.116v-1.084c0-.005 0-.01 0-.016.001-.77.723-1.337 1.476-1.18 4.145.867 16.471 2.35 24.827-8.158.458-.576 1.306-.63 1.831-.115 1.924 1.886 6.932 5.653 16.436 5.932.649.019 1.168.554 1.181 1.203.002.119.004.238.004.358v3.06c.479-.074.968-.116 1.468-.116 2.575 0 4.907 1.024 6.625 2.68v-17.18c0-7.188-5.881-13.068-13.068-13.068-2.438 0-4.717.689-6.676 1.863-2.287-3.818-6.455-6.396-11.206-6.396h-6.711c-12.988 0-23.615 10.627-23.615 23.615v10.581c1.635-1.308 3.705-2.095 5.96-2.095z" fill="#893c1a"/><path d="m50.161 74.915c-3.663 0-7.129-.878-10.207-2.425v8.467l3.601 10.353c.21.605.78 1.01 1.421 1.01h11.036c.64 0 1.21-.405 1.421-1.01l3.601-10.353v-8.809c-3.239 1.763-6.944 2.767-10.873 2.767z" fill="#f2ba94"/><path d="m96.3 98.952c-.22-3.945-2.979-7.289-6.81-8.253l-17.767-4.472-10.688-5.27-3.602 10.353c-.21.605-.781 1.01-1.421 1.01h-11.036c-.64 0-1.21-.405-1.421-1.01l-3.601-10.353-10.688 5.27-17.767 4.472c-3.832.964-6.591 4.308-6.811 8.253l-2.183 39.192c-.116 2.079 1.539 3.828 3.621 3.828h88.735c2.082 0 3.737-1.749 3.621-3.828z" fill="#edf4fc"/><circle cx="40.099" cy="180.716" fill="#fc657e" r="26.007"/><circle cx="204.368" cy="76.457" fill="#f5c84c" r="26.007"/><path d="m170.694 29.983-3.496 4.664c-17.995-13.721-42.819-15.869-62.935-5.119-2.029 1.084-3.968 2.288-5.821 3.592-1.458 1.026-1.783 3.056-.74 4.502l2.612 3.621c1.03 1.428 3.003 1.738 4.454.741 15.833-10.878 37.973-12.456 55.948 1.31l-4.115 5.49c-.882 1.177.055 2.876 1.549 2.808l18.466-.841c1.073-.049 1.835-1.065 1.581-2.109l-4.373-17.96c-.354-1.453-2.248-1.876-3.13-.699z" fill="#70d6f9"/><path d="m73.773 227.19 3.496-4.664c17.995 13.721 42.819 15.869 62.935 5.119 2.029-1.084 3.968-2.288 5.821-3.592 1.458-1.026 1.783-3.056.74-4.502l-2.612-3.621c-1.03-1.428-3.003-1.738-4.454-.741-15.833 10.878-37.973 12.456-55.948-1.31l4.115-5.49c.882-1.177-.055-2.876-1.549-2.808l-18.466.841c-1.073.049-1.835 1.065-1.581 2.109l4.373 17.96c.354 1.453 2.248 1.876 3.13.699z" fill="#fc657e"/><path d="m178.087 253.481c-1.381 0-2.5-1.119-2.5-2.5v-23.53c0-1.381 1.119-2.5 2.5-2.5s2.5 1.119 2.5 2.5v23.53c0 1.381-1.119 2.5-2.5 2.5z"/><path d="m74.507 56.205c-.605 0-1.234-.054-1.923-.165-1.275-.205-2.184-1.348-2.097-2.636.03-.452.052-.907.052-1.367v-17.321c0-1.233.898-2.282 2.117-2.471.615-.095 1.238-.144 1.852-.144 6.646 0 12.052 5.406 12.052 12.051-.001 6.646-5.407 12.053-12.053 12.053zm1.032-19.028v13.953c3.401-.5 6.02-3.438 6.02-6.977 0-3.538-2.619-6.476-6.02-6.976z"/><path d="m25.815 56.205c-6.646 0-12.052-5.406-12.052-12.052 0-6.645 5.406-12.051 12.052-12.051.637 0 1.284.052 1.924.155 1.274.206 2.183 1.347 2.097 2.635-.031.456-.053.914-.053 1.377v15.768c0 .459.021.915.052 1.367.087 1.289-.822 2.431-2.097 2.636-.688.111-1.317.165-1.923.165zm-1.031-19.028c-3.401.5-6.02 3.438-6.02 6.976s2.619 6.476 6.02 6.977z"/><path d="m50.162 77.415c-13.994 0-25.378-11.384-25.378-25.378v-18.403c0-1.134.5-2.179 1.37-2.885.876-.712 2.013-.988 3.119-.756 4.274.893 15.008 1.976 22.358-7.268.659-.828 1.641-1.34 2.694-1.405 1.056-.07 2.089.321 2.843 1.061 1.514 1.484 5.981 4.962 14.76 5.219 1.984.058 3.568 1.663 3.607 3.653l.004.407v20.379c0 13.992-11.384 25.376-25.377 25.376zm-20.378-42.253v16.875c0 11.236 9.142 20.378 20.378 20.378s20.377-9.142 20.377-20.378v-19.496c-8.193-.499-13.19-3.434-15.857-5.672-8.328 9.481-19.77 9.071-24.898 8.293z"/><path d="m81.133 39.782c-.635 0-1.261-.242-1.736-.701-1.324-1.276-3.06-1.979-4.89-1.979-.349 0-.714.029-1.085.087-.72.111-1.455-.097-2.01-.572-.554-.475-.873-1.168-.873-1.898v-2.177c-8.193-.499-13.19-3.434-15.857-5.672-8.348 9.503-19.828 9.068-24.937 8.287-.101.564-.393 1.082-.834 1.46-.555.475-1.291.683-2.01.572-2.091-.325-3.945.229-5.483 1.459-.75.6-1.778.718-2.645.301-.866-.417-1.417-1.292-1.417-2.253v-10.581c0-14.4 11.715-26.115 26.115-26.115h6.71c4.645 0 9.064 2.14 12.005 5.705 1.867-.771 3.863-1.172 5.878-1.172 8.584 0 15.568 6.984 15.568 15.568v17.181c0 1.003-.6 1.909-1.522 2.301-.316.134-.648.199-.977.199zm-5.594-7.636c1.065.09 2.104.321 3.093.682v-12.727c0-5.828-4.741-10.568-10.568-10.568-1.881 0-3.745.521-5.39 1.508-.569.341-1.25.44-1.893.281-.643-.161-1.196-.571-1.537-1.14-1.915-3.197-5.388-5.182-9.063-5.182h-6.71c-11.643 0-21.115 9.472-21.115 21.115v6.499c.891-.268 1.812-.434 2.744-.49.234-.529.592-1 1.054-1.375.876-.712 2.013-.988 3.119-.756 4.274.893 15.008 1.976 22.358-7.268.659-.828 1.641-1.34 2.694-1.406 1.056-.07 2.089.321 2.843 1.061 1.514 1.484 5.981 4.962 14.76 5.219 1.984.058 3.568 1.663 3.607 3.653z"/><path d="m77.248 141.954c-1.381 0-2.5-1.119-2.5-2.5v-23.53c0-1.381 1.119-2.5 2.5-2.5s2.5 1.119 2.5 2.5v23.53c0 1.38-1.12 2.5-2.5 2.5z"/><path d="m23.075 141.954c-1.381 0-2.5-1.119-2.5-2.5v-23.53c0-1.381 1.119-2.5 2.5-2.5s2.5 1.119 2.5 2.5v23.53c0 1.38-1.119 2.5-2.5 2.5z"/><path d="m56.012 94.821h-11.036c-1.703 0-3.223-1.081-3.782-2.689l-3.601-10.353c-.092-.264-.139-.542-.139-.821v-8.468c0-.867.45-1.673 1.188-2.128.739-.455 1.66-.495 2.435-.106 2.849 1.433 5.905 2.159 9.084 2.159 3.372 0 6.718-.852 9.676-2.463.776-.421 1.714-.404 2.473.046.758.451 1.223 1.268 1.223 2.149v8.81c0 .28-.047.557-.139.821l-3.601 10.353c-.557 1.609-2.077 2.69-3.781 2.69zm-10.328-5h9.62l3.23-9.286v-4.55c-5.173 1.815-10.93 1.887-16.08.227v4.324z"/><path d="m94.861 144.473h-88.734c-1.677 0-3.299-.699-4.451-1.917s-1.76-2.877-1.667-4.551l2.183-39.191c.282-5.065 3.777-9.3 8.696-10.539l17.51-4.407 10.45-5.152c.642-.317 1.389-.343 2.054-.071.663.272 1.178.815 1.413 1.492l3.369 9.685h9.62l3.368-9.685c.235-.677.75-1.22 1.413-1.492.662-.272 1.411-.246 2.054.071l10.45 5.152 17.51 4.407c4.919 1.238 8.414 5.473 8.696 10.538l2.183 39.192c.093 1.674-.514 3.333-1.667 4.551-1.151 1.218-2.773 1.917-4.45 1.917zm-56.338-60.022-8.151 4.019c-.158.078-.324.139-.495.182l-17.768 4.472c-2.786.701-4.765 3.1-4.925 5.968l-2.183 39.191c-.023.421.182.706.307.837.125.132.396.353.818.353h88.734c.422 0 .694-.221.818-.353.125-.131.33-.416.307-.837l-2.183-39.192c-.16-2.868-2.139-5.267-4.924-5.968l-17.768-4.472c-.171-.043-.337-.104-.495-.182l-8.15-4.019-2.671 7.681c-.56 1.608-2.08 2.689-3.782 2.689h-11.036c-1.704 0-3.224-1.081-3.782-2.69z"/><path d="m207.765 91.224h-10.865c-1.381 0-2.5-1.119-2.5-2.5s1.119-2.5 2.5-2.5h10.865c2.004 0 3.634-1.63 3.634-3.634 0-2.003-1.63-3.633-3.634-3.633h-6.794c-4.761 0-8.634-3.873-8.634-8.634 0-4.76 3.873-8.633 8.634-8.633h9.629c1.381 0 2.5 1.119 2.5 2.5s-1.119 2.5-2.5 2.5h-9.629c-2.004 0-3.634 1.63-3.634 3.633 0 2.004 1.63 3.634 3.634 3.634h6.794c4.761 0 8.634 3.873 8.634 8.633-.001 4.761-3.874 8.634-8.634 8.634z"/><path d="m204.367 95.42c-1.381 0-2.5-1.119-2.5-2.5v-32.926c0-1.381 1.119-2.5 2.5-2.5s2.5 1.119 2.5 2.5v32.926c0 1.381-1.119 2.5-2.5 2.5z"/><path d="m204.367 104.964c-15.719 0-28.507-12.788-28.507-28.507s12.788-28.507 28.507-28.507c15.72 0 28.508 12.789 28.508 28.507s-12.788 28.507-28.508 28.507zm0-52.014c-12.962 0-23.507 10.545-23.507 23.507s10.545 23.507 23.507 23.507 23.508-10.545 23.508-23.507-10.546-23.507-23.508-23.507z"/><path d="m158.061 54.094c-1.601 0-3.044-.868-3.802-2.299-.775-1.467-.645-3.195.342-4.51l2.593-3.459c-15.479-10.625-35.241-10.616-51.01.219-2.601 1.784-6.067 1.195-7.897-1.339l-2.612-3.622c-.902-1.251-1.258-2.778-1.003-4.3.254-1.512 1.082-2.829 2.332-3.709 1.97-1.386 4.016-2.649 6.082-3.753 20.199-10.793 44.883-9.228 63.593 3.85l2.015-2.688c.001 0 .001-.001.002-.001.986-1.316 2.614-1.926 4.234-1.591 1.652.339 2.926 1.565 3.323 3.199l4.373 17.96c.299 1.227.035 2.509-.722 3.519s-1.914 1.622-3.175 1.679l-18.465.841c-.069.003-.136.004-.203.004zm-26.118-23.224c10.637 0 21.22 3.491 30.292 10.439 1.089.833 1.303 2.388.48 3.484l-3.172 4.233 15.995-.729-3.788-15.558-2.552 3.406c-.4.534-.996.885-1.657.977-.658.093-1.33-.084-1.859-.488-17.376-13.25-41.023-15.173-60.241-4.902-1.886 1.008-3.757 2.163-5.561 3.432-.19.134-.257.317-.278.448-.019.112-.027.333.127.547l2.612 3.621c.227.313.669.376 1.011.143 8.798-6.044 18.718-9.053 28.591-9.053z"/><path d="m31.241 197.056c-.455 0-.916-.125-1.33-.385-1.168-.736-1.519-2.279-.784-3.448l17.545-27.863c.737-1.168 2.279-1.519 3.448-.784 1.168.736 1.519 2.279.784 3.448l-17.545 27.863c-.476.755-1.288 1.169-2.118 1.169z"/><path d="m40.099 209.223c-15.719 0-28.507-12.788-28.507-28.507s12.788-28.507 28.507-28.507 28.507 12.789 28.507 28.507-12.788 28.507-28.507 28.507zm0-52.015c-12.962 0-23.507 10.545-23.507 23.507s10.545 23.507 23.507 23.507 23.507-10.545 23.507-23.507-10.545-23.507-23.507-23.507z"/><path d="m112.779 236.992c-12.313 0-24.576-3.712-34.991-10.991l-2.015 2.688c-.987 1.316-2.608 1.927-4.234 1.593-1.653-.339-2.927-1.565-3.325-3.2l-4.373-17.96c-.298-1.226-.036-2.508.721-3.518.756-1.01 1.914-1.623 3.175-1.681l18.467-.841c1.68-.074 3.215.803 4.004 2.295.775 1.466.645 3.195-.342 4.51l-2.592 3.458c15.475 10.624 35.239 10.616 51.009-.218 2.599-1.788 6.067-1.198 7.897 1.34l2.611 3.62c.902 1.25 1.259 2.777 1.004 4.299-.254 1.513-1.082 2.83-2.332 3.71-1.967 1.384-4.013 2.646-6.081 3.752-8.955 4.788-18.795 7.144-28.603 7.144zm-35.51-16.966c.544 0 1.078.178 1.516.512 17.374 13.249 41.02 15.172 60.24 4.901 1.89-1.009 3.76-2.164 5.56-3.431.191-.134.258-.318.279-.449.019-.112.027-.332-.127-.546l-2.612-3.622c-.228-.315-.669-.376-1.01-.144-18.276 12.557-41.39 12.012-58.884-1.386-1.088-.833-1.302-2.388-.48-3.484l3.173-4.232-15.996.729 3.788 15.558 2.553-3.406c.4-.533.996-.885 1.657-.977.114-.015.229-.023.343-.023zm-5.496 5.663s0 .001-.001.001z"/><path d="m48.29 197.528c-1.767 0-3.459-.62-4.821-1.777-3.134-2.665-3.516-7.383-.852-10.518 1.291-1.519 3.096-2.443 5.082-2.604 1.984-.162 3.916.461 5.435 1.752s2.443 3.096 2.604 5.083c.161 1.986-.461 3.917-1.752 5.435-1.291 1.519-3.096 2.443-5.083 2.604-.204.017-.409.025-.613.025zm.016-9.923c-.067 0-.135.002-.203.008-.655.053-1.25.358-1.676.859-.879 1.034-.753 2.591.281 3.47.5.426 1.14.637 1.793.578.655-.053 1.25-.358 1.676-.859.426-.5.631-1.137.578-1.792s-.358-1.251-.859-1.677c-.449-.383-1.007-.587-1.59-.587z"/><path d="m31.724 178.639c-1.709 0-3.426-.582-4.827-1.773-3.135-2.666-3.517-7.384-.852-10.518 2.667-3.134 7.384-3.516 10.518-.852 1.518 1.291 2.443 3.096 2.604 5.083s-.461 3.917-1.752 5.436c-1.475 1.732-3.577 2.624-5.691 2.624zm.01-9.92c-.067 0-.135.003-.203.008-.655.053-1.251.358-1.677.859-.879 1.034-.753 2.59.281 3.469s2.591.753 3.469-.281c.426-.5.631-1.137.578-1.792s-.358-1.251-.859-1.677c-.448-.381-1.006-.586-1.589-.586z"/><path d="m155.529 85.326h-2.07v2.07c0 1.549-1.256 2.805-2.805 2.805s-2.805-1.256-2.805-2.805v-2.07h-2.069c-1.549 0-2.805-1.256-2.805-2.805s1.256-2.805 2.805-2.805h2.069v-2.07c0-1.549 1.256-2.805 2.805-2.805s2.805 1.256 2.805 2.805v2.07h2.07c1.549 0 2.805 1.256 2.805 2.805s-1.256 2.805-2.805 2.805z" fill="#f5c84c"/><path d="m168.601 108.381c-1.854.335-3.355-1.052-3.355-2.749 0-1.549 1.249-2.805 2.805-2.805 1.584 0 2.805 1.302 2.805 2.805-.001 1.352-.979 2.508-2.255 2.749z" fill="#ef4460"/><path d="m158.601 5.892c-1.849-.334-3.355 1.047-3.355 2.749 0 1.479 1.184 2.805 2.805 2.805 1.526 0 2.805-1.258 2.805-2.805-.001-1.351-.979-2.507-2.255-2.749z" fill="#87d147"/><path d="m51.601 222.892c-1.854-.335-3.355 1.052-3.355 2.749 0 1.549 1.249 2.805 2.805 2.805 1.569 0 2.805-1.276 2.805-2.805-.001-1.351-.979-2.507-2.255-2.749z" fill="#f5c84c"/><path d="m97.164 175.964c-3.995-.744-7.144-3.829-7.904-7.743-.038-.197-.313-.197-.351 0-.76 3.914-3.908 6.999-7.904 7.743-.201.037-.201.306 0 .344 3.995.744 7.144 3.829 7.904 7.743.038.197.313.197.351 0 .76-3.914 3.908-6.999 7.904-7.743.201-.038.201-.307 0-.344z" fill="#70d6f9"/><circle cx="50.494" cy="104.897" r="2.5"/><circle cx="50.494" cy="117.134" r="2.5"/><circle cx="50.494" cy="129.372" r="2.5"/><path d="m229.519 146.129c-.5 0-.99.04-1.468.114v17.322c0 .516-.024 1.027-.058 1.534.498.08 1.005.133 1.526.133 5.275 0 9.552-4.276 9.552-9.552 0-5.275-4.277-9.551-9.552-9.551z" fill="#f9d0b4"/><path d="m182.295 163.565v-15.768c0-.519.024-1.033.058-1.544-.497-.08-1.007-.123-1.526-.123-5.275 0-9.552 4.276-9.552 9.552 0 5.275 4.276 9.552 9.552 9.552.521 0 1.028-.053 1.526-.133-.034-.51-.058-1.02-.058-1.536z" fill="#f2ba94"/><path d="m208.599 135.808c-8.356 10.508-20.683 9.025-24.827 8.158-.753-.158-1.476.41-1.476 1.18v.016 18.403c0 12.583 10.295 22.878 22.878 22.878 12.583 0 22.878-10.295 22.878-22.878v-20.38c0-.12-.001-.239-.004-.358-.013-.649-.532-1.184-1.181-1.203-9.504-.279-14.512-4.045-16.436-5.932-.526-.514-1.374-.46-1.832.116z" fill="#f9d0b4"/><path d="m180.827 146.129c.5 0 .989.042 1.468.116v-1.084c0-.005 0-.01 0-.016.001-.77.723-1.337 1.476-1.18 4.145.867 16.471 2.35 24.827-8.158.458-.576 1.306-.63 1.831-.115 1.924 1.886 6.932 5.653 16.436 5.932.649.019 1.168.554 1.181 1.203.002.119.004.238.004.358v3.06c.479-.074.968-.116 1.468-.116 2.575 0 4.907 1.024 6.625 2.68v-17.181c0-7.188-5.881-13.068-13.068-13.068-2.438 0-4.717.689-6.676 1.863-2.288-3.818-6.456-6.396-11.207-6.396h-6.711c-12.988 0-23.615 10.627-23.615 23.615v10.581c1.636-1.308 3.705-2.094 5.961-2.094z" fill="#893c1a"/><path d="m205.173 186.442c-3.663 0-7.129-.878-10.207-2.425v8.467l3.601 10.353c.21.605.781 1.01 1.421 1.01h11.036c.64 0 1.21-.405 1.421-1.01l3.601-10.353v-8.809c-3.239 1.764-6.944 2.767-10.873 2.767z" fill="#f2ba94"/><path d="m251.311 210.48c-.22-3.945-2.979-7.289-6.81-8.253l-17.767-4.472-10.688-5.27-3.601 10.353c-.21.605-.781 1.01-1.421 1.01h-11.036c-.64 0-1.21-.405-1.421-1.01l-3.601-10.353-10.688 5.27-17.767 4.472c-3.832.964-6.591 4.308-6.811 8.253l-2.183 39.192c-.116 2.079 1.539 3.828 3.621 3.828h88.735c2.082 0 3.737-1.749 3.621-3.828z" fill="#edf4fc"/><path d="m229.52 167.732c-.605 0-1.234-.054-1.923-.165-1.275-.205-2.185-1.348-2.098-2.636.03-.452.052-.907.052-1.367v-17.321c0-1.233.898-2.282 2.117-2.471.615-.095 1.238-.144 1.852-.144 6.646 0 12.052 5.406 12.052 12.052-.001 6.646-5.407 12.052-12.052 12.052zm1.031-19.028v13.953c3.401-.5 6.021-3.438 6.021-6.976-.001-3.538-2.62-6.476-6.021-6.977z"/><path d="m180.827 167.732c-6.646 0-12.052-5.406-12.052-12.051 0-6.646 5.406-12.052 12.052-12.052.637 0 1.284.052 1.924.155 1.274.206 2.184 1.347 2.097 2.635-.03.456-.053.914-.053 1.377v15.768c0 .459.022.915.053 1.367.087 1.289-.822 2.431-2.098 2.636-.688.111-1.317.165-1.923.165zm-1.032-19.028c-3.4.501-6.02 3.439-6.02 6.977s2.619 6.475 6.02 6.976z"/><path d="m205.173 188.942c-13.993 0-25.378-11.384-25.378-25.378v-18.403c.001-1.135.501-2.181 1.372-2.886.876-.711 2.008-.988 3.117-.755 4.271.893 15.006 1.976 22.357-7.266.658-.829 1.64-1.342 2.693-1.408 1.063-.059 2.091.321 2.845 1.061 1.514 1.484 5.98 4.962 14.76 5.219 1.981.058 3.566 1.661 3.607 3.649l.004.411v20.379c.001 13.993-11.384 25.377-25.377 25.377zm-20.378-42.253v16.875c0 11.236 9.142 20.378 20.378 20.378s20.378-9.142 20.378-20.378v-19.497c-8.193-.499-13.19-3.434-15.856-5.672-8.33 9.483-19.773 9.073-24.9 8.294zm25.763-9.327c0 .001-.001.001-.001.002-.001.001-.002.002-.003.003.001-.001.003-.003.004-.005zm-1.958-1.554h.01z"/><path d="m236.146 151.309c-.636 0-1.261-.242-1.736-.7-1.324-1.277-3.061-1.98-4.89-1.98-.354 0-.709.028-1.086.087-.726.112-1.456-.098-2.01-.573s-.873-1.168-.873-1.898v-2.177c-8.193-.499-13.19-3.434-15.856-5.672-8.351 9.505-19.831 9.069-24.938 8.287-.1.564-.393 1.082-.834 1.46-.554.474-1.292.684-2.01.572-2.086-.322-3.944.229-5.481 1.459-.751.601-1.779.718-2.646.302s-1.417-1.292-1.417-2.253v-10.581c0-14.4 11.715-26.115 26.114-26.115h6.711c4.645 0 9.064 2.14 12.005 5.704 1.866-.771 3.863-1.171 5.878-1.171 8.584 0 15.568 6.984 15.568 15.568v17.181c0 1.003-.6 1.909-1.522 2.301-.316.134-.648.199-.977.199zm-5.595-7.636c1.065.09 2.104.321 3.094.683v-12.727c0-5.828-4.741-10.568-10.568-10.568-1.882 0-3.746.521-5.39 1.507-.569.341-1.251.441-1.894.282-.643-.161-1.196-.571-1.537-1.14-1.915-3.196-5.388-5.182-9.062-5.182h-6.711c-11.643 0-21.114 9.472-21.114 21.115v6.499c.891-.268 1.812-.434 2.744-.49.233-.529.592-1 1.055-1.375.876-.711 2.008-.988 3.117-.755 4.271.893 15.009 1.977 22.358-7.268.659-.828 1.642-1.34 2.694-1.406 1.049-.064 2.089.322 2.843 1.061 1.514 1.484 5.98 4.962 14.76 5.219 1.981.058 3.566 1.661 3.607 3.649z"/><path d="m232.26 253.481c-1.381 0-2.5-1.119-2.5-2.5v-23.53c0-1.381 1.119-2.5 2.5-2.5s2.5 1.119 2.5 2.5v23.53c0 1.381-1.119 2.5-2.5 2.5z"/><path d="m178.087 253.481c-1.381 0-2.5-1.119-2.5-2.5v-23.53c0-1.381 1.119-2.5 2.5-2.5s2.5 1.119 2.5 2.5v23.53c0 1.381-1.119 2.5-2.5 2.5z"/><path d="m211.023 206.348h-11.035c-1.704 0-3.225-1.081-3.782-2.69l-3.602-10.352c-.092-.264-.139-.542-.139-.821v-8.467c0-.867.449-1.673 1.188-2.128s1.661-.494 2.436-.106c2.849 1.433 5.905 2.159 9.084 2.159 3.372 0 6.719-.852 9.678-2.462.774-.421 1.714-.403 2.473.046.758.451 1.223 1.268 1.223 2.149v8.809c0 .28-.047.557-.139.821l-3.602 10.353c-.558 1.608-2.078 2.689-3.783 2.689zm-10.327-5h9.619l3.23-9.286v-4.55c-5.174 1.815-10.93 1.888-16.08.227v4.324z"/><path d="m249.873 256h-88.734c-1.677 0-3.3-.699-4.451-1.917-1.152-1.218-1.76-2.877-1.666-4.551l2.183-39.191c.282-5.064 3.776-9.3 8.696-10.539l17.511-4.407 10.449-5.152c.643-.317 1.39-.342 2.054-.071.663.272 1.178.815 1.413 1.492l3.369 9.685h9.619l3.369-9.685c.235-.677.75-1.22 1.413-1.492.664-.271 1.411-.246 2.054.071l10.449 5.152 17.511 4.407c4.92 1.239 8.414 5.474 8.696 10.538l2.183 39.192c.094 1.673-.514 3.333-1.666 4.55-1.152 1.219-2.775 1.918-4.452 1.918zm-56.339-60.022-8.15 4.019c-.158.078-.324.139-.495.182l-17.768 4.472c-2.786.702-4.765 3.1-4.925 5.968l-2.183 39.191c-.023.421.182.705.307.837.124.131.396.353.818.353h88.734c.422 0 .694-.221.818-.353.125-.132.33-.416.307-.836l-2.183-39.192c-.16-2.868-2.139-5.266-4.925-5.968l-17.768-4.472c-.171-.043-.337-.104-.495-.182l-8.15-4.019-2.672 7.681c-.558 1.608-2.078 2.689-3.782 2.689h-11.035c-1.704 0-3.225-1.081-3.782-2.69z"/><circle cx="205.506" cy="216.424" r="2.5"/><circle cx="205.506" cy="228.662" r="2.5"/><circle cx="205.506" cy="240.9" r="2.5"/></svg>