<svg enable-background="new 0 0 256 256" height="512" viewBox="0 0 256 256" width="512" xmlns="http://www.w3.org/2000/svg"><path d="m235.017 208.991h-214.037c-10.189 0-18.48-8.29-18.48-18.479v-140.809c0-10.189 8.29-18.479 18.48-18.479h214.037c10.189 0 18.479 8.29 18.479 18.479v140.809c0 10.189-8.29 18.479-18.479 18.479z" fill="#5290db"/><path d="m20.98 208.991c-1.713 0-3.365-.252-4.94-.691v3.978c0 6.874 5.624 12.498 12.498 12.498h3.124c6.874 0 12.498-5.624 12.498-12.498v-3.287z" fill="#3a70bf"/><path d="m235.017 208.991h-23.18v3.287c0 6.874 5.624 12.498 12.498 12.498h3.124c6.874 0 12.498-5.624 12.498-12.498v-3.978c-1.575.439-3.227.691-4.94.691z" fill="#3a70bf"/><path d="m237.543 165.421h-10.586c-3.807 0-6.921-3.115-6.921-6.921s3.115-6.921 6.921-6.921h10.586c1.258 0 2.436.345 3.455.938v-60.034c-1.019.593-2.198.938-3.455.938h-10.586c-3.807 0-6.921-3.115-6.921-6.921s3.115-6.921 6.921-6.921h10.586c1.258 0 2.436.345 3.455.938v-30.814c0-3.298-2.683-5.981-5.981-5.981h-214.037c-3.298 0-5.982 2.683-5.982 5.981v140.809c0 3.298 2.684 5.981 5.982 5.981h214.037c3.298 0 5.981-2.683 5.981-5.981v-26.029c-1.019.593-2.197.938-3.455.938z" fill="#29589f"/><path d="m240.998 152.517v-60.034c-1.019.593-2.198.938-3.455.938h-9.545v58.157h9.545c1.258.001 2.436.346 3.455.939z" fill="#3a70bf"/><path d="m227.998 49.703v29.875h9.545c1.258 0 2.436.345 3.455.938v-30.813c0-3.298-2.683-5.981-5.981-5.981h-1.037c-3.299 0-5.982 2.683-5.982 5.981z" fill="#3a70bf"/><path d="m240.998 190.512v-26.029c-1.019.593-2.198.938-3.455.938h-9.545v25.091c0 3.298 2.684 5.981 5.982 5.981h1.037c3.298 0 5.981-2.683 5.981-5.981z" fill="#3a70bf"/><path d="m237.543 79.579h-10.586c-3.807 0-6.921 3.115-6.921 6.921s3.115 6.921 6.921 6.921h10.586c3.807 0 6.921-3.115 6.921-6.921s-3.114-6.921-6.921-6.921z" fill="#5290db"/><path d="m237.543 151.579h-10.586c-3.807 0-6.921 3.115-6.921 6.921s3.115 6.921 6.921 6.921h10.586c3.807 0 6.921-3.115 6.921-6.921s-3.114-6.921-6.921-6.921z" fill="#5290db"/><path d="m52.833 69.243h126.334c4.602 0 8.333 3.731 8.333 8.333v84.848c0 4.602-3.731 8.333-8.333 8.333h-126.334c-4.602 0-8.333-3.731-8.333-8.333v-84.848c0-4.602 3.731-8.333 8.333-8.333z" fill="#3a70bf"/><path d="m123.5 162.424v-84.848c0-4.602 3.731-8.333 8.333-8.333h47.334c4.602 0 8.333 3.731 8.333 8.333v84.848c0 4.602-3.731 8.333-8.333 8.333h-47.334c-4.602 0-8.333-3.731-8.333-8.333z" fill="#5290db"/><path d="m64.333 102.234c-5.682 3.387-9.583 10.285-9.583 18.266s3.901 14.879 9.583 18.266z" fill="#173f7f"/><path d="m80.167 102.234v36.531c5.682-3.387 9.583-10.285 9.583-18.266s-3.901-14.878-9.583-18.265z" fill="#173f7f"/><circle cx="105.5" cy="99.5" fill="#c7d7e5" r="6"/><path d="m77.54 87.854h-10.58c-1.451 0-2.627 1.176-2.627 2.627v59.039c0 1.451 1.176 2.627 2.627 2.627h10.58c1.451 0 2.627-1.176 2.627-2.627v-59.039c0-1.451-1.176-2.627-2.627-2.627z" fill="#c7d7e5"/><g fill="#f5c84c"><path d="m137.019 98.46h35.963c1.99 0 3.619 1.628 3.619 3.619v6.203c0 1.99-1.628 3.619-3.619 3.619h-35.963c-1.99 0-3.619-1.628-3.619-3.619v-6.203c0-1.99 1.628-3.619 3.619-3.619z"/><path d="m137.019 111.9h35.963c1.99 0 3.619 1.628 3.619 3.619v6.203c0 1.99-1.628 3.619-3.619 3.619h-35.963c-1.99 0-3.619-1.628-3.619-3.619v-6.203c0-1.991 1.628-3.619 3.619-3.619z"/><path d="m137.019 125.34h35.963c1.99 0 3.619 1.628 3.619 3.619v6.203c0 1.99-1.628 3.619-3.619 3.619h-35.963c-1.99 0-3.619-1.628-3.619-3.619v-6.203c0-1.991 1.628-3.619 3.619-3.619z"/><path d="m137.019 138.78h35.963c1.99 0 3.619 1.628 3.619 3.619v6.203c0 1.99-1.628 3.619-3.619 3.619h-35.963c-1.99 0-3.619-1.628-3.619-3.619v-6.203c0-1.991 1.628-3.619 3.619-3.619z"/><path d="m147.968 98.46h14.062v13.44h-14.062z"/><path d="m147.968 111.9h14.062v13.44h-14.062z"/><path d="m147.968 125.34h14.062v13.44h-14.062z"/><path d="m147.968 138.78h14.062v13.44h-14.062z"/></g><path d="m178.501 219.05c-1.349.255-2.255 1.464-2.255 2.749 0 1.648 1.443 3.084 3.355 2.749 1.27-.24 2.255-1.383 2.255-2.749-.001-1.676-1.505-3.093-3.355-2.749z" fill="#ef4460"/><path d="m105.601 220.05c-1.849-.334-3.355 1.047-3.355 2.749 0 1.549 1.249 2.805 2.805 2.805 1.517 0 2.805-1.257 2.805-2.805-.001-1.352-.979-2.508-2.255-2.749z" fill="#87d147"/><path d="m89.601 13.05c-1.854-.335-3.355 1.052-3.355 2.749 0 1.549 1.249 2.805 2.805 2.805 1.491 0 2.805-1.2 2.805-2.805-.001-1.352-.979-2.508-2.255-2.749z" fill="#3caadc"/><path d="m125.164 7.89c-3.995-.744-7.144-3.829-7.904-7.743-.038-.197-.313-.197-.351 0-.76 3.914-3.908 6.999-7.904 7.743-.201.037-.201.306 0 .344 3.995.744 7.144 3.829 7.904 7.743.038.197.313.197.351 0 .76-3.914 3.908-6.999 7.904-7.743.201-.038.201-.306 0-.344z" fill="#87d147"/><path d="m160.333 227.512h-1.774v-1.774c0-1.328-1.076-2.405-2.405-2.405s-2.405 1.076-2.405 2.405v1.774h-1.774c-1.328 0-2.405 1.076-2.405 2.405s1.076 2.405 2.405 2.405h1.774v1.774c0 1.328 1.076 2.405 2.405 2.405s2.405-1.076 2.405-2.405v-1.774h1.774c1.328 0 2.405-1.076 2.405-2.405s-1.077-2.405-2.405-2.405z" fill="#f5c84c"/><path d="m235.017 211.491h-214.038c-11.568 0-20.979-9.411-20.979-20.979v-140.809c0-11.568 9.411-20.979 20.979-20.979h214.037c11.568 0 20.979 9.411 20.979 20.979v140.809c.001 11.568-9.41 20.979-20.978 20.979zm-214.038-177.767c-8.811 0-15.979 7.168-15.979 15.979v140.809c0 8.812 7.168 15.979 15.979 15.979h214.037c8.812 0 15.979-7.168 15.979-15.979v-140.809c0-8.812-7.168-15.979-15.979-15.979z"/><path d="m31.661 227.276h-3.124c-8.27 0-14.998-6.729-14.998-14.998v-3.978c0-.781.365-1.518.988-1.99.622-.474 1.431-.628 2.183-.418 1.43.397 2.867.6 4.27.6h23.18c1.381 0 2.5 1.119 2.5 2.5v3.287c-.001 8.269-6.729 14.997-14.999 14.997zm-13.122-15.934v.937c0 5.513 4.485 9.998 9.998 9.998h3.124c5.513 0 9.998-4.485 9.998-9.998v-.787h-20.68c-.809-.001-1.624-.051-2.44-.15z"/><path d="m227.459 227.276h-3.124c-8.27 0-14.998-6.729-14.998-14.998v-3.287c0-1.381 1.119-2.5 2.5-2.5h23.18c1.402 0 2.84-.201 4.271-.6.751-.206 1.561-.054 2.182.419.622.473.987 1.209.987 1.99v3.978c0 8.27-6.728 14.998-14.998 14.998zm-13.122-15.785v.787c0 5.513 4.485 9.998 9.998 9.998h3.124c5.513 0 9.998-4.485 9.998-9.998v-.937c-.816.1-1.632.149-2.44.149h-20.68z"/><path d="m179.167 173.257h-126.334c-5.973 0-10.833-4.859-10.833-10.833v-84.848c0-5.974 4.86-10.833 10.833-10.833h126.334c5.974 0 10.833 4.859 10.833 10.833v84.848c0 5.973-4.859 10.833-10.833 10.833zm-126.334-101.514c-3.216 0-5.833 2.616-5.833 5.833v84.848c0 3.217 2.617 5.833 5.833 5.833h126.334c3.217 0 5.833-2.616 5.833-5.833v-84.848c0-3.217-2.616-5.833-5.833-5.833z"/><path d="m179.167 173.257h-47.334c-5.973 0-10.833-4.859-10.833-10.833v-84.848c0-5.974 4.86-10.833 10.833-10.833h47.334c5.974 0 10.833 4.859 10.833 10.833v84.848c0 5.973-4.859 10.833-10.833 10.833zm-47.334-101.514c-3.216 0-5.833 2.616-5.833 5.833v84.848c0 3.217 2.617 5.833 5.833 5.833h47.334c3.217 0 5.833-2.616 5.833-5.833v-84.848c0-3.217-2.616-5.833-5.833-5.833z"/><path d="m160.5 88h-11c-1.381 0-2.5-1.119-2.5-2.5s1.119-2.5 2.5-2.5h11c1.381 0 2.5 1.119 2.5 2.5s-1.119 2.5-2.5 2.5z"/><path d="m172.981 114.4h-35.963c-3.374 0-6.118-2.745-6.118-6.119v-6.202c0-3.374 2.744-6.119 6.118-6.119h35.963c3.374 0 6.118 2.745 6.118 6.119v6.202c.001 3.374-2.744 6.119-6.118 6.119zm-35.962-13.44c-.606 0-1.118.513-1.118 1.119v6.202c0 .606.512 1.119 1.118 1.119h35.963c.606 0 1.118-.513 1.118-1.119v-6.202c0-.606-.512-1.119-1.118-1.119z"/><path d="m172.981 127.84h-35.963c-3.374 0-6.118-2.744-6.118-6.118v-6.203c0-3.374 2.744-6.118 6.118-6.118h35.963c3.374 0 6.118 2.744 6.118 6.118v6.203c.001 3.374-2.744 6.118-6.118 6.118zm-35.962-13.44c-.606 0-1.118.512-1.118 1.118v6.203c0 .606.512 1.118 1.118 1.118h35.963c.606 0 1.118-.512 1.118-1.118v-6.203c0-.606-.512-1.118-1.118-1.118z"/><path d="m172.981 141.28h-35.963c-3.374 0-6.118-2.745-6.118-6.119v-6.202c0-3.374 2.744-6.119 6.118-6.119h35.963c3.374 0 6.118 2.745 6.118 6.119v6.202c.001 3.374-2.744 6.119-6.118 6.119zm-35.962-13.44c-.606 0-1.118.513-1.118 1.119v6.202c0 .606.512 1.119 1.118 1.119h35.963c.606 0 1.118-.513 1.118-1.119v-6.202c0-.606-.512-1.119-1.118-1.119z"/><path d="m172.981 154.72h-35.963c-3.374 0-6.118-2.744-6.118-6.118v-6.203c0-3.374 2.744-6.118 6.118-6.118h35.963c3.374 0 6.118 2.744 6.118 6.118v6.203c.001 3.374-2.744 6.118-6.118 6.118zm-35.962-13.44c-.606 0-1.118.512-1.118 1.118v6.203c0 .606.512 1.118 1.118 1.118h35.963c.606 0 1.118-.512 1.118-1.118v-6.203c0-.606-.512-1.118-1.118-1.118z"/><path d="m162.03 114.4h-14.062c-1.381 0-2.5-1.119-2.5-2.5v-13.44c0-1.381 1.119-2.5 2.5-2.5h14.062c1.381 0 2.5 1.119 2.5 2.5v13.44c0 1.381-1.119 2.5-2.5 2.5zm-11.562-5h9.062v-8.44h-9.062z"/><path d="m162.03 127.84h-14.062c-1.381 0-2.5-1.119-2.5-2.5v-13.44c0-1.381 1.119-2.5 2.5-2.5h14.062c1.381 0 2.5 1.119 2.5 2.5v13.439c0 1.382-1.119 2.501-2.5 2.501zm-11.562-5h9.062v-8.44h-9.062z"/><path d="m162.03 141.28h-14.062c-1.381 0-2.5-1.119-2.5-2.5v-13.44c0-1.381 1.119-2.5 2.5-2.5h14.062c1.381 0 2.5 1.119 2.5 2.5v13.44c0 1.381-1.119 2.5-2.5 2.5zm-11.562-5h9.062v-8.44h-9.062z"/><path d="m162.03 154.72h-14.062c-1.381 0-2.5-1.119-2.5-2.5v-13.44c0-1.381 1.119-2.5 2.5-2.5h14.062c1.381 0 2.5 1.119 2.5 2.5v13.439c0 1.382-1.119 2.501-2.5 2.501zm-11.562-5h9.062v-8.439h-9.062z"/><path d="m64.333 141.266c-.443 0-.886-.117-1.28-.353-6.663-3.972-10.803-11.793-10.803-20.413s4.14-16.441 10.804-20.413c.772-.462 1.733-.471 2.515-.026.782.444 1.265 1.274 1.265 2.174v36.531c0 .899-.483 1.729-1.265 2.174-.383.217-.81.326-1.236.326zm-2.5-33.702c-2.896 3.334-4.583 7.952-4.583 12.936s1.687 9.602 4.583 12.936z"/><path d="m80.167 141.266c-.426 0-.852-.108-1.235-.326-.782-.444-1.265-1.274-1.265-2.174v-36.531c0-.899.483-1.729 1.265-2.174.781-.444 1.742-.436 2.515.026 6.663 3.972 10.803 11.793 10.803 20.413s-4.14 16.441-10.804 20.413c-.394.235-.837.353-1.279.353zm2.5-33.702v25.871c2.896-3.334 4.583-7.952 4.583-12.936s-1.687-9.601-4.583-12.935z"/><path d="m105.5 108c-4.687 0-8.5-3.813-8.5-8.5s3.813-8.5 8.5-8.5 8.5 3.813 8.5 8.5-3.813 8.5-8.5 8.5zm0-12c-1.93 0-3.5 1.57-3.5 3.5s1.57 3.5 3.5 3.5 3.5-1.57 3.5-3.5-1.57-3.5-3.5-3.5z"/><path d="m77.54 154.646h-10.58c-2.827 0-5.126-2.3-5.126-5.127v-59.039c0-2.827 2.3-5.127 5.126-5.127h10.58c2.827 0 5.126 2.3 5.126 5.127v59.039c.001 2.828-2.299 5.127-5.126 5.127zm-10.58-64.292c-.07 0-.126.057-.126.127v59.039c0 .07.057.127.126.127h10.58c.07 0 .126-.057.126-.127v-59.04c0-.07-.057-.127-.126-.127h-10.58z"/><path d="m235.017 198.993h-214.038c-4.677 0-8.482-3.805-8.482-8.481v-140.809c0-4.677 3.805-8.481 8.482-8.481h214.037c4.677 0 8.481 3.805 8.481 8.481v30.813c0 .895-.479 1.722-1.254 2.167-.775.446-1.73.443-2.504-.006-.673-.393-1.434-.6-2.197-.6h-10.586c-2.438 0-4.421 1.983-4.421 4.422s1.983 4.422 4.421 4.422h10.586c.764 0 1.524-.207 2.197-.6.773-.449 1.729-.451 2.504-.006s1.254 1.272 1.254 2.167v60.033c0 .895-.479 1.722-1.254 2.167-.775.446-1.73.443-2.504-.006-.673-.393-1.434-.6-2.197-.6h-10.586c-2.438 0-4.421 1.983-4.421 4.422s1.983 4.422 4.421 4.422h10.586c.764 0 1.524-.207 2.197-.6.773-.449 1.729-.451 2.504-.006s1.254 1.272 1.254 2.167v26.028c.001 4.679-3.804 8.484-8.48 8.484zm-214.038-152.771c-1.92 0-3.482 1.562-3.482 3.481v140.809c0 1.92 1.562 3.481 3.482 3.481h214.037c1.92 0 3.481-1.562 3.481-3.481v-22.64c-.316.033-.636.05-.955.05h-10.586c-5.194 0-9.421-4.227-9.421-9.422s4.227-9.422 9.421-9.422h10.586c.319 0 .639.017.955.05v-53.256c-.316.033-.636.05-.955.05h-10.586c-5.194 0-9.421-4.227-9.421-9.422s4.227-9.422 9.421-9.422h10.586c.319 0 .639.017.955.05v-27.425c0-1.92-1.562-3.481-3.481-3.481z"/><path d="m240.998 155.017c-.435 0-.869-.113-1.258-.339-.673-.393-1.434-.6-2.197-.6h-9.545c-1.381 0-2.5-1.119-2.5-2.5v-58.156c0-1.381 1.119-2.5 2.5-2.5h9.545c.764 0 1.524-.207 2.197-.6.773-.448 1.729-.452 2.504-.006.775.445 1.254 1.272 1.254 2.167v60.033c0 .895-.479 1.722-1.254 2.167-.386.222-.816.334-1.246.334zm-10.5-5.939h7.045c.319 0 .639.017.955.05v-53.256c-.316.033-.636.05-.955.05h-7.045z"/><path d="m240.998 83.017c-.435 0-.869-.113-1.258-.339-.673-.393-1.434-.6-2.197-.6h-9.545c-1.381 0-2.5-1.119-2.5-2.5v-29.875c0-4.677 3.805-8.481 8.481-8.481h1.037c4.677 0 8.481 3.805 8.481 8.481v30.813c0 .895-.479 1.722-1.254 2.167-.385.222-.815.334-1.245.334zm-10.5-5.939h7.045c.319 0 .639.017.955.05v-27.425c0-1.92-1.562-3.481-3.481-3.481h-1.037c-1.92 0-3.481 1.562-3.481 3.481v27.375z"/><path d="m235.017 198.993h-1.037c-4.677 0-8.481-3.805-8.481-8.481v-25.09c0-1.381 1.119-2.5 2.5-2.5h9.545c.764 0 1.524-.207 2.197-.6.773-.449 1.729-.451 2.504-.006s1.254 1.272 1.254 2.167v26.028c-.001 4.677-3.806 8.482-8.482 8.482zm-4.519-31.071v22.59c0 1.92 1.562 3.481 3.481 3.481h1.037c1.92 0 3.481-1.562 3.481-3.481v-22.64c-.316.033-.636.05-.955.05z"/><path d="m237.543 95.922h-10.586c-5.194 0-9.421-4.227-9.421-9.422s4.227-9.422 9.421-9.422h10.586c5.194 0 9.421 4.227 9.421 9.422s-4.227 9.422-9.421 9.422zm-10.586-13.844c-2.438 0-4.421 1.983-4.421 4.422s1.983 4.422 4.421 4.422h10.586c2.438 0 4.421-1.983 4.421-4.422s-1.983-4.422-4.421-4.422z"/><path d="m237.543 167.922h-10.586c-5.194 0-9.421-4.227-9.421-9.422s4.227-9.422 9.421-9.422h10.586c5.194 0 9.421 4.227 9.421 9.422s-4.227 9.422-9.421 9.422zm-10.586-13.844c-2.438 0-4.421 1.983-4.421 4.422s1.983 4.422 4.421 4.422h10.586c2.438 0 4.421-1.983 4.421-4.422s-1.983-4.422-4.421-4.422z"/></svg>