<svg enable-background="new 0 0 256 256" height="512" viewBox="0 0 256 256" width="512" xmlns="http://www.w3.org/2000/svg"><path d="m206.321 48.193h-192.334c-6.318 0-11.487 5.169-11.487 11.487v112.724c0 6.318 5.169 11.487 11.487 11.487h95.07l1.398-4.544c.335-1.089 1.411-1.773 2.539-1.616l29.069 4.056 53.146-63.404c6.099-8.132 13.83-14.767 22.599-19.56v-39.143c0-6.318-5.169-11.487-11.487-11.487z" fill="#edf4fc"/><path d="m252.282 104.585 1.099-6.046c.895-4.921-3.404-9.219-8.325-8.325l-6.047 1.099c-17.491 3.18-33.135 12.849-43.801 27.071l-65.873 78.588c-2.519 3.005-2.324 7.437.448 10.21l.237.237 25.456-25.456c1.692-1.692 4.462-1.692 6.154 0s1.692 4.462 0 6.154l-25.456 25.456.237.237c2.773 2.773 7.205 2.967 10.21.448l78.588-65.873c14.224-10.665 23.893-26.31 27.073-43.8z" fill="#edf4fc"/><path d="m165.864 230.601-4.056-29.069-15.184 12.728c-.347.291-.716.542-1.097.761l7.774 19.266c.451 1.118 1.683 1.704 2.835 1.35l8.112-2.496c1.088-.336 1.773-1.412 1.616-2.54z" fill="#fc657e"/><path d="m129.336 196.972 12.728-15.184-29.069-4.056c-1.128-.157-2.204.527-2.539 1.616l-2.496 8.112c-.354 1.152.232 2.384 1.35 2.835l19.266 7.774c.217-.381.468-.75.76-1.097z" fill="#fc657e"/><path d="m238.357 120.345c.571-1.084 1.093-2.194 1.563-3.329.646-1.559.254-3.358-.939-4.551l-7.852-7.852c-1.193-1.193-2.992-1.585-4.551-.939-1.134.47-2.245.992-3.329 1.563-2.503 1.319-2.986 4.708-.985 6.709l9.383 9.383c2.002 2.002 5.391 1.52 6.71-.984z" fill="#3a70bf"/><path d="m230.799 215.284-20.565-54.344-21.627 18.128 29.227 47.095c.784 1.264 2.542 1.467 3.594.415l8.845-8.845c.642-.642.848-1.6.526-2.449z" fill="#fc657e"/><path d="m226.8 204.716 6.486-6.486c2.308-2.308 2.308-6.084 0-8.392s-6.084-2.308-8.392 0l-2.702 2.702z" fill="#c7d7e5"/><path d="m218.199 181.987 6.136-6.136c2.308-2.308 2.308-6.084 0-8.392s-6.084-2.308-8.392 0l-2.352 2.352z" fill="#c7d7e5"/><path d="m182.655 133.361-54.344-20.565c-.849-.321-1.808-.115-2.45.527l-8.845 8.845c-1.052 1.052-.849 2.81.415 3.594l47.095 29.227z" fill="#fc657e"/><path d="m173.095 129.743 2.566-2.566c2.308-2.308 2.308-6.084 0-8.392s-6.084-2.308-8.392 0l-6.35 6.35z" fill="#c7d7e5"/><path d="m150.366 121.142 2.916-2.916c2.308-2.308 2.308-6.084 0-8.392s-6.084-2.308-8.392 0l-6.7 6.7z" fill="#c7d7e5"/><path d="m161.632 181.963c-1.692-1.692-4.462-1.692-6.154 0l-29.092 29.092c-1.692 1.692-1.692 4.462 0 6.154s4.462 1.692 6.154 0l29.092-29.092c1.692-1.692 1.692-4.461 0-6.154z" fill="#edf4fc"/><path d="m203.742 166.382 6.492-5.441 20.565 54.344c.321.849.115 1.808-.527 2.45l-5.149 5.149z" fill="#f5c84c"/><path d="m177.214 139.853 5.441-6.492-54.344-20.565c-.849-.321-1.808-.115-2.45.527l-5.149 5.149z" fill="#f5c84c"/><path d="m2.5 72.296h215.308v25.266h-215.308z" fill="#3a70bf"/><path d="m121.688 132.666v-4.264l-4.256-2.641c-1.264-.784-1.467-2.542-.415-3.594l3.696-3.696.975-.975v-4.141c0-1.037-.841-1.878-1.878-1.878h-95.109c-1.037 0-1.878.841-1.878 1.878v19.312c0 1.037.841 1.878 1.878 1.878h95.109c1.037 0 1.878-.841 1.878-1.879z" fill="#c7d7e5"/><path d="m66.606 202.315c1.349-.255 2.255-1.464 2.255-2.749 0-1.501-1.207-2.805-2.805-2.805-1.517 0-2.805 1.257-2.805 2.805.001 1.68 1.507 3.093 3.355 2.749z" fill="#f5c84c"/><path d="m152.506 23.315c1.851.334 3.355-1.05 3.355-2.749 0-1.501-1.207-2.805-2.805-2.805-1.517 0-2.805 1.257-2.805 2.805.001 1.351.979 2.507 2.255 2.749z" fill="#f5c84c"/><path d="m170.943 27.474c3.995.744 7.144 3.829 7.904 7.743.038.197.313.197.351 0 .76-3.914 3.908-6.999 7.904-7.743.201-.037.201-.306 0-.344-3.995-.744-7.144-3.829-7.904-7.743-.038-.197-.313-.197-.351 0-.76 3.914-3.908 6.999-7.904 7.743-.201.038-.201.307 0 .344z" fill="#ef4460"/><path d="m97.075 207.306h-2.07v-2.07c0-1.549-1.256-2.805-2.805-2.805s-2.805 1.256-2.805 2.805v2.07h-2.069c-1.549 0-2.805 1.256-2.805 2.805s1.256 2.805 2.805 2.805h2.069v2.07c0 1.549 1.256 2.805 2.805 2.805s2.805-1.256 2.805-2.805v-2.07h2.07c1.549 0 2.805-1.256 2.805-2.805s-1.256-2.805-2.805-2.805z" fill="#3caadc"/><path d="m182.506 207.315c1.866.337 3.355-1.068 3.355-2.749 0-1.657-1.454-3.082-3.355-2.749-1.249.236-2.255 1.377-2.255 2.749.001 1.351.979 2.507 2.255 2.749z" fill="#87d147"/><path d="m85.698 152.665h-63.136c-1.381 0-2.5-1.119-2.5-2.5s1.119-2.5 2.5-2.5h63.135c1.381 0 2.5 1.119 2.5 2.5s-1.118 2.5-2.499 2.5z"/><path d="m85.698 164.248h-63.136c-1.381 0-2.5-1.119-2.5-2.5s1.119-2.5 2.5-2.5h63.135c1.381 0 2.5 1.119 2.5 2.5s-1.118 2.5-2.499 2.5z"/><path d="m92.029 125.51h-56.025c-1.381 0-2.5-1.119-2.5-2.5s1.119-2.5 2.5-2.5h56.024c1.381 0 2.5 1.119 2.5 2.5s-1.118 2.5-2.499 2.5z"/><path d="m108.506 125.51h-4.394c-1.381 0-2.5-1.119-2.5-2.5s1.119-2.5 2.5-2.5h4.394c1.381 0 2.5 1.119 2.5 2.5s-1.119 2.5-2.5 2.5z"/><path d="m109.057 186.392h-95.07c-7.712 0-13.987-6.275-13.987-13.988v-112.724c0-7.712 6.275-13.987 13.987-13.987h192.334c7.712 0 13.987 6.275 13.987 13.987v39.144c0 .914-.499 1.755-1.301 2.194-8.602 4.702-15.936 11.049-21.798 18.866-.027.036-.055.071-.084.106l-53.146 63.404c-.553.66-1.404.989-2.262.87l-28.917-4.035-1.353 4.398c-.323 1.049-1.292 1.765-2.39 1.765zm-95.07-135.699c-4.955 0-8.987 4.032-8.987 8.987v112.724c0 4.956 4.032 8.987 8.987 8.987h93.223l.855-2.779c.699-2.273 2.919-3.684 5.274-3.357l27.697 3.865 52.213-62.291c5.989-7.972 13.405-14.516 22.058-19.472v-37.677c0-4.956-4.031-8.987-8.987-8.987zm203.821 48.131h.01z"/><path d="m141.758 218.546c-2.577 0-5.143-.998-7.113-2.968l-.239-.239c-.975-.977-.974-2.558.002-3.534l25.456-25.456c.346-.347.537-.812.537-1.31s-.19-.963-.537-1.31c-.693-.692-1.926-.692-2.619 0l-25.456 25.456c-.976.977-2.56.977-3.535 0l-.237-.237c-3.717-3.716-3.973-9.556-.597-13.584l65.831-78.537c11.079-14.743 27.168-24.677 45.313-27.976l6.046-1.099c3.116-.569 6.317.432 8.558 2.673s3.24 5.44 2.673 8.558l-1.1 6.046c-3.298 18.145-13.232 34.234-27.975 45.313l-78.537 65.83c-1.893 1.59-4.186 2.374-6.471 2.374zm-1.71-5.31c1.645.596 3.535.309 4.969-.893l78.588-65.873c.035-.029.07-.057.106-.084 13.761-10.321 23.034-25.325 26.111-42.249l1.1-6.046c.277-1.526-.193-3.031-1.29-4.128-1.097-1.098-2.603-1.568-4.128-1.29l-6.046 1.099c-16.923 3.077-31.928 12.351-42.249 26.111-.027.036-.055.071-.084.106l-65.874 78.588c-1.202 1.434-1.489 3.323-.893 4.969l23.351-23.351c1.291-1.291 3.011-2.002 4.845-2.002s3.554.711 4.845 2.002c2.672 2.671 2.672 7.018 0 9.689z"/><path d="m155.431 238.243c-1.917 0-3.692-1.146-4.449-3.021l-7.773-19.266c-.467-1.157-.009-2.481 1.072-3.103.272-.157.519-.328.735-.509l15.186-12.729c.696-.583 1.655-.743 2.503-.417.849.327 1.453 1.088 1.579 1.988l4.056 29.069c.329 2.356-1.083 4.574-3.357 5.273l-8.112 2.496c-.48.149-.964.219-1.44.219zm-6.859-22.356 6.985 17.311 7.81-2.403-3.412-24.448z"/><path d="m128.574 200.569c-.312 0-.629-.059-.935-.182l-19.266-7.774c-2.341-.944-3.546-3.476-2.804-5.888l2.496-8.112c.699-2.273 2.919-3.684 5.274-3.357l29.069 4.056c.9.125 1.661.73 1.988 1.579.326.848.167 1.807-.417 2.503l-12.728 15.184c-.183.218-.354.466-.509.736-.457.796-1.296 1.255-2.168 1.255zm-18.177-12.531 17.31 6.985 9.541-11.382-24.448-3.412z"/><path d="m234.623 125.073c-1.773 0-3.46-.693-4.742-1.976l-9.383-9.383c-1.53-1.529-2.221-3.635-1.897-5.776.322-2.124 1.592-3.914 3.485-4.912 1.147-.605 2.338-1.164 3.536-1.661 2.49-1.033 5.345-.451 7.276 1.481l7.852 7.851c1.932 1.933 2.513 4.789 1.48 7.277-.496 1.195-1.054 2.385-1.661 3.536-.998 1.893-2.788 3.163-4.911 3.484-.347.053-.693.079-1.035.079zm3.734-4.728h.01zm-10.223-14.478c-.205 0-.408.039-.598.117-1.058.438-2.107.932-3.121 1.466-.647.341-.824.921-.872 1.236-.084.554.094 1.098.489 1.493l9.383 9.384c.395.395.938.574 1.494.489.315-.048.895-.225 1.236-.872.535-1.017 1.028-2.066 1.466-3.122.25-.603.09-1.337-.398-1.825l-7.852-7.852c-.334-.334-.783-.514-1.227-.514z"/><path d="m219.804 229.755c-.186 0-.373-.011-.561-.033-1.467-.169-2.755-.986-3.534-2.241l-29.227-47.095c-.656-1.057-.435-2.435.518-3.234l21.627-18.128c.621-.52 1.455-.706 2.238-.503.784.205 1.419.777 1.706 1.534l20.565 54.343c.667 1.765.237 3.768-1.098 5.102l-8.845 8.845c-.908.912-2.121 1.41-3.389 1.41zm-27.93-50.163 27.957 45.048 8.587-8.587-19.276-50.935z"/><path d="m226.8 207.216c-.175 0-.351-.019-.525-.056-.83-.179-1.512-.766-1.813-1.56l-4.608-12.176c-.348-.919-.125-1.958.571-2.652l2.702-2.702c3.289-3.288 8.64-3.289 11.927 0 1.588 1.588 2.463 3.706 2.463 5.964 0 2.257-.875 4.375-2.463 5.964l-6.486 6.485c-.474.475-1.112.733-1.768.733zm-1.698-14.05 2.667 7.047 3.75-3.75c.644-.644.999-1.506.999-2.428s-.354-1.785-.999-2.428c-1.339-1.339-3.517-1.338-4.857 0z"/><path d="m218.199 184.487c-.175 0-.351-.019-.525-.056-.83-.179-1.512-.766-1.813-1.56l-4.608-12.176c-.348-.919-.125-1.958.571-2.652l2.352-2.352c3.288-3.288 8.638-3.289 11.927 0s3.288 8.64 0 11.928l-6.136 6.136c-.474.474-1.112.732-1.768.732zm-1.698-14.05 2.667 7.047 3.399-3.399c1.339-1.339 1.338-3.518 0-4.857-1.339-1.338-3.517-1.339-4.856 0z"/><path d="m164.525 157.488c-.452 0-.909-.123-1.317-.376l-47.095-29.227c-1.255-.778-2.072-2.066-2.241-3.534s.333-2.908 1.377-3.952l8.845-8.845c1.335-1.334 3.338-1.764 5.102-1.097l54.343 20.565c.757.287 1.329.922 1.534 1.706s.017 1.618-.503 2.238l-18.128 21.627c-.489.586-1.198.895-1.917.895zm-45.569-33.723 45.048 27.957 14.474-17.268-50.935-19.275z"/><path d="m173.095 132.243c-.297 0-.596-.053-.884-.162l-12.176-4.608c-.794-.301-1.381-.983-1.56-1.813-.178-.83.077-1.693.677-2.293l6.35-6.35c3.289-3.288 8.64-3.288 11.927 0 1.589 1.588 2.463 3.707 2.463 5.964s-.875 4.375-2.463 5.964l-2.565 2.565c-.478.478-1.118.733-1.769.733zm-7.672-8.076 7.047 2.667 1.423-1.423c.644-.644.999-1.506.999-2.428s-.354-1.784-.999-2.429c-1.339-1.338-3.517-1.338-4.857 0z"/><path d="m150.366 123.642c-.297 0-.596-.053-.884-.162l-12.176-4.608c-.794-.301-1.381-.983-1.56-1.813-.178-.83.077-1.693.677-2.293l6.7-6.7c3.288-3.288 8.638-3.289 11.927 0s3.288 8.64 0 11.928l-2.916 2.916c-.477.477-1.117.732-1.768.732zm-7.672-8.077 7.047 2.667 1.774-1.774c1.339-1.339 1.338-3.518 0-4.857-1.339-1.338-3.517-1.339-4.856 0z"/><path d="m129.462 220.981c-1.755 0-3.509-.668-4.845-2.004-2.672-2.671-2.672-7.018 0-9.689l29.092-29.092c2.671-2.672 7.019-2.672 9.689 0 2.672 2.671 2.672 7.018 0 9.689l-29.093 29.092c-1.334 1.336-3.089 2.004-4.843 2.004zm29.093-37.792c-.474 0-.948.181-1.31.542l-29.092 29.092c-.722.722-.722 1.897 0 2.619.723.722 1.896.721 2.619 0l29.093-29.092c.722-.722.722-1.897 0-2.619-.362-.361-.836-.542-1.31-.542z"/><path d="m225.124 225.382c-.175 0-.351-.019-.525-.056-.83-.179-1.512-.766-1.813-1.56l-21.381-56.5c-.376-.994-.083-2.118.732-2.801l6.491-5.441c.621-.52 1.455-.706 2.238-.503.784.205 1.419.777 1.706 1.534l20.565 54.343c.667 1.765.237 3.768-1.098 5.102l-5.148 5.148c-.473.476-1.111.734-1.767.734zm-18.415-58.225 19.384 51.221 2.325-2.325-19.276-50.935z"/><path d="m177.213 142.353c-.296 0-.596-.053-.884-.162l-56.5-21.381c-.794-.301-1.381-.983-1.56-1.813-.178-.83.077-1.693.677-2.293l5.149-5.149c1.335-1.333 3.337-1.764 5.102-1.097l54.343 20.565c.757.287 1.329.922 1.534 1.706s.017 1.618-.503 2.238l-5.441 6.492c-.485.578-1.192.894-1.917.894zm-51.996-24.851 51.221 19.384 2.039-2.433-50.935-19.275z"/><path d="m217.808 100.062h-215.308c-1.381 0-2.5-1.119-2.5-2.5v-25.266c0-1.381 1.119-2.5 2.5-2.5h215.308c1.381 0 2.5 1.119 2.5 2.5v25.266c0 1.38-1.119 2.5-2.5 2.5zm-212.808-5h210.308v-20.266h-210.308z"/><path d="m119.81 137.044h-95.109c-2.414 0-4.378-1.964-4.378-4.378v-19.312c0-2.414 1.964-4.378 4.378-4.378h95.109c2.414 0 4.378 1.964 4.378 4.378v4.141c0 .663-.263 1.299-.732 1.768l-4.5 4.501 4.051 2.514c.735.456 1.182 1.259 1.182 2.124v4.263c-.001 2.415-1.965 4.379-4.379 4.379zm-94.488-5h93.866v-2.251l-3.075-1.908c-1.255-.778-2.072-2.066-2.241-3.534s.333-2.908 1.377-3.952l3.939-3.939v-2.484h-93.866z"/></svg>