<svg id="bold" enable-background="new 0 0 32 32" height="512" viewBox="0 0 32 32" width="512" xmlns="http://www.w3.org/2000/svg"><path d="m26 32h-20c-3.314 0-6-2.686-6-6v-20c0-3.314 2.686-6 6-6h20c3.314 0 6 2.686 6 6v20c0 3.314-2.686 6-6 6z" fill="#fff9dd"/><g fill="#ffd200"><path d="m13.833 12.333v7.333h9.333v-7.333zm2.667 5.334c0 .368-.299.667-.667.667s-.667-.299-.667-.667v-3.333c0-.368.299-.667.667-.667s.667.299.667.667zm2.667 0c0 .368-.299.667-.667.667s-.667-.299-.667-.667v-3.333c0-.368.299-.667.667-.667s.667.299.667.667zm2.666 0c0 .368-.299.667-.667.667s-.666-.299-.666-.667v-3.333c0-.368.299-.667.667-.667s.667.299.667.667v3.333z"/><path d="m13.833 22.167c0 1.012.821 1.833 1.833 1.833h5.667c1.013 0 1.833-.821 1.833-1.833v-1.833h-9.333z"/><path d="m23.167 9.833c0-1.012-.821-1.833-1.834-1.833h-5.667c-1.013 0-1.833.821-1.833 1.833v1.833h9.333v-1.833z"/></g><path d="m13.167 20.167h-.167c-.735 0-1.333-.598-1.333-1.333v-2c0-1.011-.822-1.833-1.833-1.833-.368 0-.667-.299-.667-.667v-1.167c0-.735.598-1.333 1.333-1.333h2.667v-1.334h-2.667c-1.47 0-2.667 1.196-2.667 2.667v1.167c0 1.103.897 2 2 2 .276 0 .5.224.5.5v2c0 1.47 1.196 2.667 2.667 2.667h.167z" fill="#ffe777"/></svg>