<svg id="bold" enable-background="new 0 0 32 32" height="512" viewBox="0 0 32 32" width="512" xmlns="http://www.w3.org/2000/svg"><path d="m26 32h-20c-3.314 0-6-2.686-6-6v-20c0-3.314 2.686-6 6-6h20c3.314 0 6 2.686 6 6v20c0 3.314-2.686 6-6 6z" fill="#fff9dd"/><path d="m20.167 8h-8.333c-1.012 0-1.834.822-1.834 1.833v12.333c0 1.012.822 1.834 1.833 1.834h8.333c1.012 0 1.834-.822 1.834-1.833v-12.334c0-1.011-.822-1.833-1.833-1.833zm-7.5 3.333h3.5c.368 0 .667.299.667.667s-.299.667-.667.667h-3.5c-.369 0-.667-.299-.667-.667s.298-.667.667-.667zm6.666 9.334h-6.667c-.368 0-.666-.299-.666-.667s.299-.667.667-.667h6.667c.368 0 .666.299.666.667s-.298.667-.667.667zm0-2.667h-6.667c-.368 0-.666-.298-.666-.667s.299-.667.667-.667h6.667c.368 0 .667.299.667.667s-.299.667-.668.667zm0-2.667h-6.667c-.368 0-.667-.299-.667-.667s.299-.666.668-.666h6.667c.368 0 .666.298.666.667s-.298.666-.667.666z" fill="#ffd200"/></svg>