<svg id="bold" enable-background="new 0 0 32 32" height="512" viewBox="0 0 32 32" width="512" xmlns="http://www.w3.org/2000/svg"><path d="m26 32h-20c-3.314 0-6-2.686-6-6v-20c0-3.314 2.686-6 6-6h20c3.314 0 6 2.686 6 6v20c0 3.314-2.686 6-6 6z" fill="#e3f8fa"/><path d="m12.667 24c-.369 0-.667-.298-.667-.667v-1.167c0-.368.299-.667.667-.667s.667.299.667.667v1.167c-.001.369-.299.667-.667.667z" fill="#8ce1eb"/><path d="m19.333 24c-.368 0-.667-.299-.667-.667v-1.167c0-.368.299-.667.667-.667s.667.3.667.668v1.167c0 .368-.298.666-.667.666z" fill="#8ce1eb"/><path d="m10 18.667v2.833c0 .644.522 1.167 1.167 1.167h9.667c.644 0 1.167-.522 1.167-1.167v-2.833zm8 2.166c0 .276-.224.5-.5.5h-3c-.276 0-.5-.224-.5-.5v-.667c0-.276.224-.5.5-.5s.5.224.5.5v.167h2v-.167c0-.276.224-.5.5-.5s.5.224.5.5z" fill="#26c6da"/><path d="m10 14v4h12v-4zm8 2.167c0 .276-.224.5-.5.5h-3c-.276 0-.5-.224-.5-.5v-.667c0-.276.224-.5.5-.5s.5.224.5.5v.167h2v-.167c0-.276.224-.5.5-.5s.5.224.5.5z" fill="#8ce1eb"/><path d="m20.833 8h-9.667c-.644 0-1.166.522-1.166 1.167v4.167h12v-4.167c0-.645-.522-1.167-1.167-1.167zm-2.833 3.167c0 .276-.224.5-.5.5h-3c-.276 0-.5-.224-.5-.5v-.667c0-.276.224-.5.5-.5s.5.224.5.5v.167h2v-.167c0-.276.224-.5.5-.5s.5.224.5.5z" fill="#26c6da"/></svg>