<svg id="bold" enable-background="new 0 0 32 32" height="512" viewBox="0 0 32 32" width="512" xmlns="http://www.w3.org/2000/svg"><path d="m26 32h-20c-3.314 0-6-2.686-6-6v-20c0-3.314 2.686-6 6-6h20c3.314 0 6 2.686 6 6v20c0 3.314-2.686 6-6 6z" fill="#ffe6e2"/><path d="m22.167 14h-7.227c-.04 0-.087-.02-.113-.047l-.947-.947c-.22-.22-.513-.34-.82-.34h-3.227c-1.013.001-1.833.821-1.833 1.834v7.667c0 1.013.82 1.833 1.833 1.833h12.333c1.014 0 1.834-.82 1.834-1.833v-6.333c0-1.014-.82-1.834-1.833-1.834z" fill="#fc573b"/><path d="m13.06 12c.488 0 .946.19 1.291.535l.798.798h6.851v-3.5c0-1.011-.822-1.833-1.833-1.833h-8.333c-1.012 0-1.834.822-1.834 1.833v2.167z" fill="#fd907e"/></svg>