<svg id="bold" enable-background="new 0 0 32 32" height="512" viewBox="0 0 32 32" width="512" xmlns="http://www.w3.org/2000/svg"><path d="m26 32h-20c-3.314 0-6-2.686-6-6v-20c0-3.314 2.686-6 6-6h20c3.314 0 6 2.686 6 6v20c0 3.314-2.686 6-6 6z" fill="#ffe6e2"/><path d="m21.5 17h-1.667c-.643 0-1.167-.523-1.167-1.167v-1c0-1.495-1.072-2.5-2.667-2.5s-2.667 1.005-2.667 2.5v1c0 .643-.523 1.167-1.167 1.167h-1.665c-.643 0-1.167-.523-1.167-1.167v-4c0-2.113 1.72-3.833 3.834-3.833h5.667c2.114 0 3.833 1.72 3.833 3.833v4c0 .644-.524 1.167-1.167 1.167z" fill="#fc573b"/><g fill="#fd907e"><path d="m22.167 24h-12.334c-1.011 0-1.833-.822-1.833-1.833v-1.333c0-.276.224-.5.5-.5h15c.276 0 .5.224.5.5v1.333c0 1.011-.822 1.833-1.833 1.833z"/><path d="m8.667 21.667c-.369 0-.667-.299-.667-.667v-1.667c0-.368.299-.667.667-.667s.667.299.667.667v1.667c-.001.368-.299.667-.667.667z"/><path d="m23.333 21.667c-.368 0-.667-.299-.667-.667v-1.667c0-.368.299-.667.667-.667s.667.299.667.667v1.667c0 .368-.298.667-.667.667z"/></g><path d="m20 17.667v.5c0 .368.299.667.667.667s.667-.299.667-.667v-.5z" fill="#fc573b"/><path d="m10.667 17.667v.5c0 .368.299.667.667.667s.666-.299.666-.667v-.5z" fill="#fc573b"/></svg>