<svg id="bold" enable-background="new 0 0 32 32" height="512" viewBox="0 0 32 32" width="512" xmlns="http://www.w3.org/2000/svg"><path d="m26 32h-20c-3.314 0-6-2.686-6-6v-20c0-3.314 2.686-6 6-6h20c3.314 0 6 2.686 6 6v20c0 3.314-2.686 6-6 6z" fill="#fff9dd"/><g fill="#ffd200"><path d="m10.5 11.667c-.368 0-.667-.299-.667-.667v-2.333c0-.369.299-.667.667-.667s.667.299.667.667v2.333c0 .368-.299.667-.667.667z"/><path d="m13.667 11.667c-.369 0-.667-.299-.667-.667v-2.333c0-.369.298-.667.667-.667.368 0 .667.299.667.667v2.333c-.001.368-.299.667-.667.667z"/><path d="m16.833 11.667c-.368 0-.667-.299-.667-.667v-2.333c.001-.369.299-.667.667-.667s.667.298.667.667v2.333c0 .368-.298.667-.667.667z"/><path d="m17.5 9.5h-7.667c-1.013 0-1.833.82-1.833 1.833v8.833c0 1.014.82 1.834 1.833 1.834h5.433c-.56-.887-.933-1.933-.933-3.133v-2.2h-3.667c-.366 0-.666-.3-.666-.667s.3-.667.667-.667h3.86c.227-.48.64-.86 1.16-1.033l3.5-1.193c.047-.02.093-.033.147-.04v-1.733c-.001-1.014-.821-1.834-1.834-1.834zm-4.167 4.5h-2.667c-.366 0-.666-.3-.666-.667s.3-.667.667-.667h2.667c.367 0 .667.3.667.667-.001.367-.301.667-.668.667z"/></g><path d="m23.548 15.559-3.5-1.19c-.139-.048-.29-.048-.43 0l-3.5 1.19c-.27.092-.452.346-.452.631v2.679c0 3.378 3.746 5.01 3.906 5.078.084.035.173.053.261.053.089 0 .178-.018.261-.053.16-.068 3.906-1.7 3.906-5.078v-2.679c0-.285-.182-.539-.452-.631zm-1.348 2.508-2 2.667c-.116.155-.293.251-.486.265-.016 0-.032.001-.047.001-.176 0-.346-.07-.471-.195l-1.333-1.333c-.26-.26-.26-.682 0-.943s.682-.26.943 0l.79.79 1.539-2.052c.221-.294.639-.354.933-.133.293.22.353.638.132.933z" fill="#ffe777"/></svg>