<svg id="bold" enable-background="new 0 0 32 32" height="512" viewBox="0 0 32 32" width="512" xmlns="http://www.w3.org/2000/svg"><path d="m26 32h-20c-3.314 0-6-2.686-6-6v-20c0-3.314 2.686-6 6-6h20c3.314 0 6 2.686 6 6v20c0 3.314-2.686 6-6 6z" fill="#fff9dd"/><g fill="#ffd200"><path d="m10.5 11.667c-.368 0-.667-.299-.667-.667v-2.333c0-.369.299-.667.667-.667s.667.299.667.667v2.333c0 .368-.299.667-.667.667z"/><path d="m13.667 11.667c-.369 0-.667-.299-.667-.667v-2.333c0-.369.298-.667.667-.667.368 0 .667.299.667.667v2.333c-.001.368-.299.667-.667.667z"/><path d="m16.833 11.667c-.368 0-.667-.299-.667-.667v-2.333c.001-.369.299-.667.667-.667s.667.298.667.667v2.333c0 .368-.298.667-.667.667z"/><path d="m17.5 9.5h-7.667c-1.013 0-1.833.82-1.833 1.833v8.833c0 1.014.82 1.834 1.833 1.834h5.427c-.587-.8-.927-1.773-.927-2.833 0-.913.253-1.767.707-2.5h-4.373c-.367 0-.667-.3-.667-.667s.3-.667.667-.667h4.667c.227 0 .427.113.553.287.867-.8 2.013-1.287 3.28-1.287.053 0 .113 0 .167.007v-3.007c-.001-1.013-.821-1.833-1.834-1.833zm-4.167 4.5h-2.667c-.366 0-.666-.3-.666-.667s.3-.667.667-.667h2.667c.367 0 .667.3.667.667-.001.367-.301.667-.668.667z"/></g><path d="m19.167 22.667c-1.93 0-3.5-1.57-3.5-3.5s1.57-3.5 3.5-3.5 3.5 1.57 3.5 3.5-1.57 3.5-3.5 3.5zm0-5.667c-1.195 0-2.167.972-2.167 2.167s.972 2.167 2.167 2.167 2.167-.972 2.167-2.167c-.001-1.195-.973-2.167-2.167-2.167z" fill="#ffe777"/><path d="m23.333 24c-.171 0-.341-.065-.471-.195l-2.167-2.167c-.26-.26-.26-.682 0-.943s.682-.26.943 0l2.167 2.167c.26.26.26.682 0 .943-.13.13-.301.195-.472.195z" fill="#ffe777"/></svg>