<svg id="bold" enable-background="new 0 0 32 32" height="512" viewBox="0 0 32 32" width="512" xmlns="http://www.w3.org/2000/svg"><path d="m26 32h-20c-3.314 0-6-2.686-6-6v-20c0-3.314 2.686-6 6-6h20c3.314 0 6 2.686 6 6v20c0 3.314-2.686 6-6 6z" fill="#f5e6fe"/><g fill="#d9a4fc"><path d="m12.333 11.667c-.368 0-.667-.299-.667-.667v-2.333c.001-.369.299-.667.667-.667s.667.298.667.667v2.333c0 .368-.299.667-.667.667z"/><path d="m15.5 11.667c-.368 0-.667-.299-.667-.667v-2.333c0-.369.299-.667.667-.667s.667.299.667.667v2.333c0 .368-.299.667-.667.667z"/><path d="m18.667 11.667c-.368 0-.667-.299-.667-.667v-2.333c0-.369.299-.667.667-.667s.667.299.667.667v2.333c-.001.368-.299.667-.667.667z"/></g><path d="m20 9.5h-9c-1.011 0-1.833.822-1.833 1.833v10.833c0 1.012.822 1.834 1.833 1.834h9c1.011 0 1.833-.822 1.833-1.833v-10.834c0-1.011-.822-1.833-1.833-1.833zm-7.5 3.833h3.333c.368 0 .667.299.667.667s-.299.667-.667.667h-3.333c-.368 0-.667-.299-.667-.667s.299-.667.667-.667zm6.667 6.667h-6.667c-.368 0-.667-.299-.667-.667s.299-.667.667-.667h6.667c.368 0 .667.299.667.667s-.299.667-.667.667zm0-2.667h-6.667c-.368 0-.667-.299-.667-.667s.299-.666.667-.666h6.667c.368 0 .667.299.667.667s-.299.666-.667.666z" fill="#be63f9"/></svg>