<svg id="bold" enable-background="new 0 0 32 32" height="512" viewBox="0 0 32 32" width="512" xmlns="http://www.w3.org/2000/svg"><path d="m26 32h-20c-3.314 0-6-2.686-6-6v-20c0-3.314 2.686-6 6-6h20c3.314 0 6 2.686 6 6v20c0 3.314-2.686 6-6 6z" fill="#ffe6e2"/><g fill="#fc573b"><path d="m10.5 11.667c-.368 0-.667-.299-.667-.667v-2.333c0-.369.299-.667.667-.667s.667.299.667.667v2.333c0 .368-.299.667-.667.667z"/><path d="m13.667 11.667c-.369 0-.667-.299-.667-.667v-2.333c0-.369.298-.667.667-.667.368 0 .667.299.667.667v2.333c-.001.368-.299.667-.667.667z"/><path d="m16.833 11.667c-.368 0-.667-.299-.667-.667v-2.333c.001-.369.299-.667.667-.667s.667.298.667.667v2.333c0 .368-.298.667-.667.667z"/><path d="m17.5 9.5h-7.667c-1.013 0-1.833.82-1.833 1.833v8.833c0 1.014.82 1.834 1.833 1.834h6.833v-1.5c0-.953.547-1.78 1.333-2.2.013-1.027.54-1.927 1.333-2.46v-4.507c.001-1.013-.819-1.833-1.832-1.833zm-4.167 3.167c.367 0 .667.3.667.667 0 .366-.3.666-.667.666h-2.667c-.366 0-.666-.3-.666-.667s.3-.667.667-.667h2.666zm2 4h-4.667c-.366 0-.666-.3-.666-.667s.3-.667.667-.667h4.667c.366 0 .666.3.666.667s-.3.667-.667.667z"/></g><path d="m22.167 20.333h-2.333c-.276 0-.5-.224-.5-.5v-1.5c0-.919.747-1.667 1.667-1.667s1.667.748 1.667 1.667v1.5c-.001.276-.225.5-.501.5zm-1.834-1h1.333v-1c0-.368-.299-.667-.667-.667s-.667.299-.667.667v1z" fill="#fd907e"/><path d="m22.833 24h-3.667c-.643 0-1.166-.523-1.166-1.167v-2.333c0-.643.523-1.167 1.167-1.167h3.667c.643 0 1.167.523 1.167 1.167v2.333c-.001.644-.524 1.167-1.168 1.167z" fill="#fd907e"/></svg>