<svg id="bold" enable-background="new 0 0 32 32" height="512" viewBox="0 0 32 32" width="512" xmlns="http://www.w3.org/2000/svg"><path d="m26 32h-20c-3.314 0-6-2.686-6-6v-20c0-3.314 2.686-6 6-6h20c3.314 0 6 2.686 6 6v20c0 3.314-2.686 6-6 6z" fill="#e3f8fa"/><path d="m22.833 10.667h-2.167v1.333h2v7.333h-13.333v-7.333h2v-1.333h-2.166c-.64 0-1.167.526-1.167 1.166v9c0 .64.527 1.167 1.167 1.167h13.667c.639 0 1.166-.527 1.166-1.167v-9c0-.64-.527-1.166-1.167-1.166z" fill="#26c6da"/><path d="m18.569 23.431c-.876-.876-.902-1.724-.902-1.766-.001-.183-.15-.331-.333-.331h-2.68c-.184 0-.333.151-.333.335 0 .036-.012.885-.889 1.762-.095.095-.124.239-.072.363.05.125.172.206.307.206h4.667c.135 0 .257-.081.308-.206.051-.124.022-.268-.073-.363z" fill="#26c6da"/><g fill="#8ce1eb"><path d="m18.167 9h-4.333c-.643 0-1.167.523-1.167 1.167v5c0 .643.523 1.167 1.167 1.167h4.333c.643 0 1.167-.523 1.167-1.167v-5c-.001-.644-.524-1.167-1.167-1.167zm-1.334 5.333h-1.667c-.276 0-.5-.224-.5-.5s.224-.5.5-.5h1.667c.276 0 .5.224.5.5s-.224.5-.5.5zm0-2h-1.667c-.276 0-.5-.224-.5-.5s.224-.5.5-.5h1.667c.276 0 .5.224.5.5s-.224.5-.5.5z"/><path d="m17 10c-.276 0-.5-.224-.5-.5v-1c0-.276.224-.5.5-.5s.5.224.5.5v1c0 .276-.224.5-.5.5z"/><path d="m15 10c-.276 0-.5-.224-.5-.5v-1c0-.276.224-.5.5-.5s.5.224.5.5v1c0 .276-.224.5-.5.5z"/></g></svg>