<svg id="bold" enable-background="new 0 0 32 32" height="512" viewBox="0 0 32 32" width="512" xmlns="http://www.w3.org/2000/svg"><path d="m26 32h-20c-3.314 0-6-2.686-6-6v-20c0-3.314 2.686-6 6-6h20c3.314 0 6 2.686 6 6v20c0 3.314-2.686 6-6 6z" fill="#f5e6fe"/><g fill="#be63f9"><path d="m19.5 24c-.368 0-.667-.299-.667-.667v-.667h-5.667v.667c0 .368-.299.667-.667.667s-.667-.299-.667-.667v-.667c0-.735.598-1.333 1.333-1.333h5.667c.735 0 1.333.598 1.333 1.333v.667c.002.369-.297.667-.665.667z"/><path d="m15.333 20.667v1c0 .368.299.667.667.667s.667-.299.667-.667v-1z"/><path d="m19.5 20h-7c-.643 0-1.167-.523-1.167-1.167 0-1.011.822-1.833 1.833-1.833h5.667c1.011 0 1.833.822 1.833 1.833.001.644-.523 1.167-1.166 1.167z"/></g><path d="m18.555 16h-5.111c-.548 0-1.063-.242-1.413-.665-.349-.422-.491-.973-.388-1.512l.826-4.333c.164-.863.922-1.49 1.801-1.49h3.46c.879 0 1.636.627 1.801 1.491l.826 4.333c.103.538-.039 1.089-.388 1.511-.35.423-.865.665-1.414.665z" fill="#d9a4fc"/></svg>