<svg id="bold" enable-background="new 0 0 32 32" height="512" viewBox="0 0 32 32" width="512" xmlns="http://www.w3.org/2000/svg"><path d="m26 32h-20c-3.314 0-6-2.686-6-6v-20c0-3.314 2.686-6 6-6h20c3.314 0 6 2.686 6 6v20c0 3.314-2.686 6-6 6z" fill="#fff9dd"/><path d="m17.5 8h-7.667c-1.013 0-1.833.82-1.833 1.833v10.333c0 1.014.82 1.834 1.833 1.834h5.227c-.253-.62-.393-1.293-.393-2 0-.607.293-1.14.747-1.473-.007-.02-.007-.04-.013-.06-.02-.08-.033-.16-.047-.24-.007-.053-.013-.1-.013-.153 0-.027-.007-.047-.007-.073v-1.5c0-.747.447-1.413 1.14-1.7.22-.087.453-.133.693-.133.367 0 .727.113 1.027.32.367-.133.747-.227 1.14-.273v-4.88c-.001-1.015-.821-1.835-1.834-1.835zm-6.833 2.667h2.667c.367 0 .667.3.667.667s-.301.666-.668.666h-2.667c-.366 0-.666-.3-.666-.667s.3-.666.667-.666zm3.333 6.666h-3.333c-.367 0-.667-.3-.667-.667s.3-.666.667-.666h3.333c.367 0 .667.3.667.667s-.3.666-.667.666zm2.667-2.666h-6c-.367 0-.667-.3-.667-.667s.3-.667.667-.667h6c.367 0 .667.3.667.667-.001.367-.301.667-.667.667z" fill="#ffd200"/><g fill="#ffe777"><path d="m20 24c-2.206 0-4-1.794-4-4 0-.276.224-.5.5-.5s.5.224.5.5c0 1.654 1.346 3 3 3s3-1.346 3-3-1.346-3-3-3c-.993 0-1.852.456-2.421 1.283-.156.227-.467.285-.695.129-.228-.157-.285-.468-.129-.695.75-1.091 1.933-1.717 3.245-1.717 2.206 0 4 1.794 4 4s-1.794 4-4 4z"/><path d="m18.63 18.5h-1.464c-.276 0-.5-.224-.5-.5v-1.5c0-.203.123-.386.311-.463.188-.076.404-.032.547.114l1.464 1.5c.14.144.181.358.103.544-.078.185-.26.305-.461.305z"/></g></svg>