<svg id="bold" enable-background="new 0 0 32 32" height="512" viewBox="0 0 32 32" width="512" xmlns="http://www.w3.org/2000/svg"><path d="m26 32h-20c-3.314 0-6-2.686-6-6v-20c0-3.314 2.686-6 6-6h20c3.314 0 6 2.686 6 6v20c0 3.314-2.686 6-6 6z" fill="#f5e6fe"/><g fill="#be63f9"><path d="m22.393 13.098-1.647 1.647c-.38.08-.74.213-1.08.393-.56-.3-1.187-.467-1.833-.467-2.113 0-3.833 1.713-3.833 3.827 0 .787.267 1.573.673 2.32l-1.327 1.327-3.486-3.487 9.06-9.047c.26-.26.68-.26.94 0l2.54 2.54c.26.26.253.687-.007.947z"/><path d="m23.442 8.566c-.718-.727-1.977-.723-2.688-.003l-.507.505c.029.024.06.045.087.072l2.536 2.543c.024.024.042.053.064.079l.507-.51c.355-.356.559-.845.559-1.341 0-.508-.199-.986-.558-1.345z"/><path d="m9.566 19.306-1.533 4.021c-.07.184-.025.392.114.532.096.096.223.146.354.146.06 0 .12-.011.178-.033l4.02-1.533z"/><path d="m13.151 13.659c.128 0 .256-.049.354-.146l3.462-3.462c.17-.17.429-.182.623-.056l.714-.713c-.575-.499-1.502-.482-2.044.061l-3.462 3.462c-.195.195-.195.512 0 .707.097.098.225.147.353.147z"/></g><path d="m19.667 24.004c-.105 0-.21-.033-.298-.099-.413-.307-4.035-3.068-4.035-5.409 0-1.374 1.122-2.492 2.5-2.492.709 0 1.369.297 1.833.796.464-.499 1.124-.796 1.833-.796 1.378 0 2.5 1.118 2.5 2.492 0 2.341-3.622 5.102-4.035 5.409-.089.067-.193.099-.298.099z" fill="#d9a4fc"/></svg>