<svg id="bold" enable-background="new 0 0 32 32" height="512" viewBox="0 0 32 32" width="512" xmlns="http://www.w3.org/2000/svg"><path d="m26 32h-20c-3.314 0-6-2.686-6-6v-20c0-3.314 2.686-6 6-6h20c3.314 0 6 2.686 6 6v20c0 3.314-2.686 6-6 6z" fill="#fff9dd"/><path d="m21.98 13.51-3.153 3.153h-2.327c-.56 0-1.08.253-1.427.687-.353.433-.487 1-.36 1.547l.34 1.54-1.853 1.853-1.767-1.767-1.727-1.727.053-.053 8.353-8.347.367-.367 1.687 1.68 1.807 1.793z" fill="#ffd200"/><path d="m9.428 19.461-1.401 3.863c-.06.187-.02.387.12.527.093.093.22.147.353.147.06 0 .113-.007.173-.027l3.863-1.401z" fill="#ffd200"/><path d="m23.253 8.703c-.473-.467-1.1-.7-1.753-.72-.66.007-1.28.273-1.74.74l-.814.831c.001.001.003.002.004.003l1.687 1.68 1.806 1.792c.001.001.002.003.003.004l.827-.844c.46-.46.713-1.08.713-1.727v-.027c.001-.658-.266-1.272-.733-1.732z" fill="#ffd200"/><g fill="#ffe777"><path d="m18.666 23.997c-.46 0-.833-.374-.833-.833 0-.46.374-.833.833-.833.46 0 .833.374.833.833.001.459-.373.833-.833.833z"/><path d="m21.333 23.997c-.46 0-.833-.374-.833-.833 0-.46.374-.833.833-.833.46 0 .833.374.833.833s-.373.833-.833.833z"/><path d="m22.333 21.997c-.037 0-.076-.004-.114-.013-.269-.063-.436-.332-.373-.601l1.167-5c.063-.269.331-.437.601-.373.269.063.436.332.373.601l-1.167 5c-.054.23-.259.386-.487.386z"/><path d="m22.333 21.997h-5.167c-.234 0-.437-.163-.488-.392l-.667-3c-.033-.148.003-.303.098-.421s.238-.187.39-.187h6.533c.153 0 .297.07.392.189s.13.276.095.424l-.7 3c-.052.227-.253.387-.486.387z"/></g></svg>