<svg id="bold" enable-background="new 0 0 32 32" height="512" viewBox="0 0 32 32" width="512" xmlns="http://www.w3.org/2000/svg"><path d="m26 32h-20c-3.314 0-6-2.686-6-6v-20c0-3.314 2.686-6 6-6h20c3.314 0 6 2.686 6 6v20c0 3.314-2.686 6-6 6z" fill="#e3f8fa"/><g fill="#26c6da"><path d="m21.98 13.51-.5.5c-.62-.227-1.287-.347-1.98-.347-3.213 0-5.833 2.62-5.833 5.833 0 .693.12 1.36.347 1.98l-.814.814-1.767-1.767-1.727-1.727.053-.053 8.353-8.347.367-.367 1.687 1.68 1.807 1.793z"/><path d="m9.428 19.461-1.401 3.863c-.06.187-.02.387.12.527.093.093.22.147.353.147.06 0 .113-.007.173-.027l3.863-1.401z"/><path d="m23.253 8.703c-.473-.467-1.1-.7-1.753-.72-.66.007-1.28.273-1.74.74l-.814.831c.001.001.003.002.004.003l1.687 1.68 1.806 1.792c.001.001.002.003.003.004l.827-.844c.46-.46.713-1.08.713-1.727v-.027c.001-.658-.266-1.272-.733-1.732z"/></g><path d="m19.5 14.997c-2.481 0-4.5 2.019-4.5 4.5s2.019 4.5 4.5 4.5 4.5-2.019 4.5-4.5-2.019-4.5-4.5-4.5zm1.833 5.166h-1.167v1.167c0 .368-.299.667-.667.667s-.667-.299-.667-.667v-1.167h-1.167c-.368 0-.667-.299-.667-.667s.299-.667.667-.667h1.167v-1.167c0-.368.299-.667.667-.667s.667.299.667.667v1.167h1.167c.368 0 .667.299.667.667s-.299.667-.667.667z" fill="#8ce1eb"/></svg>