<svg id="bold" enable-background="new 0 0 32 32" height="512" viewBox="0 0 32 32" width="512" xmlns="http://www.w3.org/2000/svg"><path d="m26 32h-20c-3.314 0-6-2.686-6-6v-20c0-3.314 2.686-6 6-6h20c3.314 0 6 2.686 6 6v20c0 3.314-2.686 6-6 6z" fill="#ffe6e2"/><path d="m9.833 20.542c-.368 0-.667-.299-.667-.667v-1c0-.368.299-.667.667-.667s.667.299.667.667v1c0 .368-.299.667-.667.667z" fill="#fd907e"/><path d="m22.167 20.542c-.368 0-.667-.299-.667-.667v-1c0-.368.299-.667.667-.667s.667.299.667.667v1c-.001.368-.299.667-.667.667z" fill="#fd907e"/><path d="m22.833 12.375h-.288c.076.322.121.655.121 1 0 2.389-1.944 4.333-4.333 4.333s-4.333-1.944-4.333-4.333c0-.345.045-.678.121-1h-4.954c-.644 0-1.167.523-1.167 1.167v4.333c0 .643.523 1.167 1.167 1.167h13.667c.643 0 1.167-.523 1.167-1.167v-4.333c-.001-.644-.524-1.167-1.168-1.167zm-9.5 4c0 .368-.298.667-.667.667h-2.666c-.368 0-.667-.298-.667-.667v-1.333c0-.368.298-.667.667-.667h2.667c.368 0 .667.298.667.667v1.333z" fill="#fc573b"/><path d="m18.333 9.708c-2.022 0-3.667 1.645-3.667 3.667s1.645 3.667 3.667 3.667 3.667-1.645 3.667-3.667-1.645-3.667-3.667-3.667zm1.834 3.334c-.276 0-.5-.224-.5-.5s-.224-.5-.5-.5-.5-.224-.5-.5.224-.5.5-.5c.827 0 1.5.673 1.5 1.5 0 .276-.224.5-.5.5z" fill="#fd907e"/></svg>