<svg id="bold" enable-background="new 0 0 32 32" height="512" viewBox="0 0 32 32" width="512" xmlns="http://www.w3.org/2000/svg"><path d="m26 32h-20c-3.314 0-6-2.686-6-6v-20c0-3.314 2.686-6 6-6h20c3.314 0 6 2.686 6 6v20c0 3.314-2.686 6-6 6z" fill="#e3f8fa"/><path d="m22 9.84v-.673c0-.64-.527-1.167-1.167-1.167h-1.347c-.18 0-.347.093-.433.253-.087.153-.087.347 0 .5.073.12.113.267.113.413 0 .46-.373.833-.833.833s-.833-.373-.833-.833c0-.147.04-.293.113-.413.087-.153.087-.347 0-.5-.086-.16-.253-.253-.433-.253h-1.347c-.64 0-1.167.527-1.167 1.167v1.733c1.553.54 2.667 2.027 2.667 3.767 0 .227-.02.453-.06.667h3.56c.64 0 1.167-.527 1.167-1.167v-.673c1.06.1 2-.76 2-1.827s-.947-1.92-2-1.827z" fill="#8ce1eb"/><g fill="#26c6da"><path d="m13.333 17.333c-1.471 0-2.667-1.196-2.667-2.667s1.197-2.666 2.667-2.666 2.667 1.196 2.667 2.667-1.196 2.666-2.667 2.666z"/><path d="m18.667 24h-10.667v-2.167c0-1.749 1.418-3.167 3.167-3.167h4.333c1.749 0 3.167 1.418 3.167 3.167z"/></g></svg>