<svg id="bold" enable-background="new 0 0 32 32" height="512" viewBox="0 0 32 32" width="512" xmlns="http://www.w3.org/2000/svg"><path d="m26 32h-20c-3.314 0-6-2.686-6-6v-20c0-3.314 2.686-6 6-6h20c3.314 0 6 2.686 6 6v20c0 3.314-2.686 6-6 6z" fill="#fff9dd"/><path d="m23.67 12.115-3.771-3.771c-.438-.438-1.212-.438-1.65 0l-9.9 9.9c-.222.222-.344.514-.339.83 0 .311.123.603.339.82l3.771 3.771c.222.222.514.344.825.344s.603-.123.825-.344l.354-.354-2.239-2.239c-.193-.193-.198-.509 0-.707.193-.193.514-.193.707 0l2.239 2.239.707-.707-1.296-1.297c-.193-.193-.198-.509 0-.707.193-.193.514-.193.707 0l1.296 1.296.707-.707-1.296-1.296c-.193-.193-.198-.509 0-.707.193-.193.514-.193.707 0l1.296 1.296.707-.707-2.239-2.239c-.193-.193-.198-.509 0-.707.193-.193.514-.193.707 0l2.239 2.239.707-.707-1.296-1.296c-.193-.193-.198-.509 0-.707.193-.193.514-.193.707 0l1.296 1.296.707-.707-1.296-1.296c-.193-.193-.198-.509 0-.707.193-.193.514-.193.707 0l1.296 1.296.707-.707-2.239-2.239c-.193-.193-.198-.509 0-.707.193-.193.514-.193.707 0l2.239 2.239.354-.354c.217-.217.339-.509.339-.82.002-.312-.116-.609-.338-.83z" fill="#ffd200"/></svg>