<svg id="bold" enable-background="new 0 0 32 32" height="512" viewBox="0 0 32 32" width="512" xmlns="http://www.w3.org/2000/svg"><path d="m26 32h-20c-3.314 0-6-2.686-6-6v-20c0-3.314 2.686-6 6-6h20c3.314 0 6 2.686 6 6v20c0 3.314-2.686 6-6 6z" fill="#f5e6fe"/><g fill="#be63f9"><path d="m19.777 24.005h-8.333c-.276 0-.5-.224-.5-.5v-1.333c0-1.011.822-1.833 1.833-1.833h5.667c1.011 0 1.833.822 1.833 1.833v1.333c0 .276-.224.5-.5.5z"/><path d="m9.943 18.005c-.919 0-1.667-.748-1.667-1.667s.747-1.667 1.667-1.667c.919 0 1.667.748 1.667 1.667s-.747 1.667-1.667 1.667z"/><path d="m15.637 16.445c-.133 0-.26-.053-.354-.146-1.335-1.336-1.621-3.411-.695-5.047.209-.36.437-.657.7-.912.247-.254.543-.482.897-.687 1.64-.928 3.715-.644 5.051.692.094.094.146.221.146.354 0 .132-.053.26-.146.354l-5.247 5.247c-.093.092-.219.145-.352.145z"/></g><path d="m11.691 17.868c-.3.343-.696.595-1.149.716l1.183 1.328c.321-.15.675-.24 1.052-.24h.52z" fill="#d9a4fc"/><path d="m13.923 11.109c.031-.061.051-.126.085-.186.243-.419.508-.764.816-1.062.279-.288.62-.549 1.027-.785.063-.036.13-.061.194-.094l-.524-.527c-.586-.575-1.536-.575-2.128.006-.575.585-.575 1.536.004 2.125z" fill="#d9a4fc"/><path d="m14.008 10.923c.175-.301.368-.554.573-.789-.025-.029-.041-.063-.072-.089-.285-.236-.704-.196-.939.087l-3.251 3.911c.472.077.895.293 1.227.609l1.946-2.341c.101-.478.267-.947.516-1.388z" fill="#d9a4fc"/></svg>