<svg height="512pt" viewBox="-39 0 512 512" width="512pt" xmlns="http://www.w3.org/2000/svg"><path d="m86.78125 512h329.761719c9.574219-.027344 17.328125-7.78125 17.355469-17.355469v-416.542969c-.027344-9.574218-7.78125-17.328124-17.355469-17.355468h-329.761719c-9.574219.027344-17.328125 7.78125-17.359375 17.355468v225.628907zm0 0" fill="#7f5b53"/><path d="m347.117188 477.289062h43.390624c4.792969 0 8.679688-3.886718 8.679688-8.679687v-364.472656c0-4.792969-3.886719-8.679688-8.679688-8.679688h-277.695312c-4.792969 0-8.675781 3.886719-8.675781 8.679688v199.59375zm0 0" fill="#e6e7e8"/><path d="m138.847656 312.40625c-4.792968 0-8.679687-3.882812-8.679687-8.675781v-147.527344c0-4.792969 3.886719-8.675781 8.679687-8.675781 4.792969 0 8.679688 3.882812 8.679688 8.675781v147.527344c0 4.792969-3.886719 8.675781-8.679688 8.675781zm0 0" fill="#5e5f62"/><path d="m364.472656 399.1875h-17.355468c-4.792969 0-8.675782-3.886719-8.675782-8.679688 0-4.792968 3.882813-8.675781 8.675782-8.675781h17.355468c4.792969 0 8.679688 3.882813 8.679688 8.675781 0 4.792969-3.886719 8.679688-8.679688 8.679688zm0 0" fill="#5e5f62"/><path d="m347.117188 329.761719v-95.457031c0-4.792969-3.882813-8.675782-8.675782-8.675782h-17.355468c-4.792969 0-8.679688 3.882813-8.679688 8.675782v69.425781zm0 0" fill="#c03a2b"/><path d="m33.999992 55.000107h-21.000115" fill="none" stroke="#000" stroke-linecap="round" stroke-linejoin="round" stroke-width="2" transform="matrix(8.677966 0 0 8.677966 .000005 0)"/><path d="m173.558594 43.390625h156.203125c9.585937 0 17.355469 7.769531 17.355469 17.355469v34.710937c0 9.585938-7.769532 17.355469-17.355469 17.355469h-156.203125c-9.585938 0-17.355469-7.769531-17.355469-17.355469v-34.710937c0-9.585938 7.769531-17.355469 17.355469-17.355469zm0 0" fill="#f3d55b"/><path d="m286.371094 52.066406c-4.789063 0-8.675782-3.882812-8.675782-8.675781 0-14.378906-11.65625-26.035156-26.035156-26.035156s-26.03125 11.65625-26.03125 26.035156c0 4.792969-3.886718 8.675781-8.679687 8.675781s-8.679688-3.882812-8.679688-8.675781c0-23.964844 19.429688-43.390625 43.390625-43.390625 23.964844 0 43.390625 19.425781 43.390625 43.390625 0 4.792969-3.886719 8.675781-8.679687 8.675781zm0 0" fill="#805333"/><path d="m208.269531 86.78125h-17.355469c-4.792968 0-8.675781-3.886719-8.675781-8.679688 0-4.792968 3.882813-8.679687 8.675781-8.679687h17.355469c4.792969 0 8.679688 3.886719 8.679688 8.679687 0 4.792969-3.886719 8.679688-8.679688 8.679688zm0 0" fill="#805333"/><path d="m312.40625 86.78125h-69.421875c-4.792969 0-8.679687-3.886719-8.679687-8.679688 0-4.792968 3.886718-8.679687 8.679687-8.679687h69.421875c4.792969 0 8.679688 3.886719 8.679688 8.679687 0 4.792969-3.886719 8.679688-8.679688 8.679688zm0 0" fill="#805333"/><path d="m182.238281 156.203125h17.355469c4.792969 0 8.675781 3.886719 8.675781 8.679687v156.203126h-34.710937v-156.203126c0-4.792968 3.886718-8.679687 8.679687-8.679687zm0 0" fill="#285680"/><path d="m251.660156 190.914062h17.355469c4.792969 0 8.679687 3.886719 8.679687 8.679688v121.492188h-34.710937v-121.492188c0-4.792969 3.882813-8.679688 8.675781-8.679688zm0 0" fill="#df4d60"/><path d="m329.761719 303.730469h-312.40625c-9.574219.027343-17.3281252 7.78125-17.355469 17.355469v173.558593c.0273438 9.574219 7.78125 17.328125 17.355469 17.355469h312.40625c9.574219-.027344 17.328125-7.78125 17.355469-17.355469v-173.558593c-.027344-9.574219-7.78125-17.328126-17.355469-17.355469zm-277.695313 173.558593c-.027344-9.574218-7.78125-17.328124-17.355468-17.355468zm0 0" fill="#4c8056"/><path d="m295.050781 338.441406h-242.984375c-.027344 9.574219-7.78125 17.328125-17.355468 17.355469v104.136719c9.574218.027344 17.328124 7.78125 17.355468 17.355468h242.984375c.027344-9.574218 7.78125-17.328124 17.355469-17.355468v-104.136719c-9.574219-.027344-17.328125-7.78125-17.355469-17.355469zm0 0" fill="#71c285"/><g fill="#4c8056"><path d="m173.558594 416.542969c-8.210938.125-16.28125-2.148438-23.222656-6.542969-7.089844-3.925781-11.488282-11.386719-11.488282-19.492188 0-8.101562 4.398438-15.566406 11.488282-19.488281 14.332031-8.445312 32.117187-8.445312 46.445312 0 3.988281 2.65625 5.0625 8.046875 2.402344 12.035157-2.65625 3.988281-8.046875 5.0625-12.035156 2.402343-8.472657-4.605469-18.703126-4.605469-27.179688 0-2.234375.664063-3.769531 2.71875-3.769531 5.050781 0 2.332032 1.535156 4.386719 3.769531 5.050782 4.089844 2.484375 8.808594 3.742187 13.589844 3.628906 4.792968 0 8.679687 3.882812 8.679687 8.675781s-3.886719 8.679688-8.679687 8.679688zm0 0"/><path d="m173.558594 451.253906c-8.210938.125-16.28125-2.148437-23.222656-6.542968-2.578126-1.71875-4.042969-4.6875-3.84375-7.78125.199218-3.09375 2.035156-5.847657 4.816406-7.21875 2.78125-1.375 6.082031-1.160157 8.660156.558593 8.476562 4.609375 18.707031 4.609375 27.179688 0 2.238281-.660156 3.773437-2.714843 3.773437-5.050781 0-2.332031-1.535156-4.386719-3.773437-5.050781-4.089844-2.480469-8.804688-3.738281-13.589844-3.625-4.792969 0-8.675782-3.886719-8.675782-8.679688s3.882813-8.675781 8.675782-8.675781c8.214844-.125 16.285156 2.148438 23.222656 6.542969 7.089844 3.921875 11.488281 11.386719 11.488281 19.488281 0 8.105469-4.398437 15.570312-11.488281 19.492188-6.9375 4.394531-15.007812 6.667968-23.222656 6.542968zm0 0"/><path d="m173.558594 381.832031c-4.792969 0-8.675782-3.886719-8.675782-8.679687v-8.679688c0-4.789062 3.882813-8.675781 8.675782-8.675781 4.792968 0 8.679687 3.886719 8.679687 8.675781v8.679688c0 4.792968-3.886719 8.679687-8.679687 8.679687zm0 0"/><path d="m173.558594 459.933594c-4.792969 0-8.675782-3.886719-8.675782-8.679688v-8.675781c0-4.792969 3.882813-8.679687 8.675782-8.679687 4.792968 0 8.679687 3.886718 8.679687 8.679687v8.675781c0 4.792969-3.886719 8.679688-8.679687 8.679688zm0 0"/><path d="m173.558594 485.964844c-31.589844 0-60.066406-19.027344-72.15625-48.210938-12.089844-29.1875-5.40625-62.777344 16.929687-85.117187 22.339844-22.335938 55.929688-29.015625 85.117188-16.929688 29.183593 12.089844 48.210937 40.566407 48.210937 72.15625-.046875 43.117188-34.984375 78.054688-78.101562 78.101563zm0-138.847656c-33.546875 0-60.746094 27.199218-60.746094 60.746093 0 33.550781 27.199219 60.746094 60.746094 60.746094 33.550781 0 60.746094-27.195313 60.746094-60.746094-.039063-33.53125-27.210938-60.707031-60.746094-60.746093zm0 0"/></g></svg>