<svg height="512pt" viewBox="-74 0 512 512" width="512pt" xmlns="http://www.w3.org/2000/svg"><path d="m216.949219 52.066406c-4.792969 0-8.679688-3.882812-8.679688-8.675781 0-14.378906-11.652343-26.035156-26.03125-26.035156-14.378906 0-26.035156 11.65625-26.035156 26.035156 0 4.792969-3.886719 8.675781-8.675781 8.675781-4.792969 0-8.679688-3.882812-8.679688-8.675781 0-23.964844 19.425782-43.390625 43.390625-43.390625 23.960938 0 43.390625 19.425781 43.390625 43.390625 0 4.792969-3.886718 8.675781-8.679687 8.675781zm0 0" fill="#805333"/><path d="m277.695312 60.746094h69.421876c9.574218.027344 17.328124 7.78125 17.355468 17.355468v416.542969c-.027344 9.574219-7.78125 17.328125-17.355468 17.355469h-329.761719c-9.574219-.027344-17.3281252-7.78125-17.355469-17.355469v-416.542969c.0273438-9.574218 7.78125-17.328124 17.355469-17.355468zm0 0" fill="#7f5b53"/><path d="m277.695312 95.457031h43.390626c4.792968 0 8.675781 3.886719 8.675781 8.679688v364.472656c0 4.792969-3.882813 8.679687-8.675781 8.679687h-277.695313c-4.792969 0-8.679687-3.886718-8.679687-8.679687v-364.472656c0-4.792969 3.886718-8.679688 8.679687-8.679688zm0 0" fill="#e6e7e8"/><path d="m104.136719 43.390625h156.203125c9.585937 0 17.355468 7.769531 17.355468 17.355469v34.710937c0 9.585938-7.769531 17.355469-17.355468 17.355469h-156.203125c-9.585938 0-17.355469-7.769531-17.355469-17.355469v-34.710937c0-9.585938 7.769531-17.355469 17.355469-17.355469zm0 0" fill="#f3d55b"/><path d="m138.847656 86.78125h-17.355468c-4.792969 0-8.679688-3.886719-8.679688-8.679688 0-4.792968 3.886719-8.679687 8.679688-8.679687h17.355468c4.792969 0 8.679688 3.886719 8.679688 8.679687 0 4.792969-3.886719 8.679688-8.679688 8.679688zm0 0" fill="#805333"/><path d="m242.984375 86.78125h-69.425781c-4.792969 0-8.675782-3.886719-8.675782-8.679688 0-4.792968 3.882813-8.679687 8.675782-8.679687h69.425781c4.792969 0 8.675781 3.886719 8.675781 8.679687 0 4.792969-3.882812 8.679688-8.675781 8.679688zm0 0" fill="#805333"/><path d="m112.8125 216.949219c-19.140625 0-34.710938-11.679688-34.710938-26.035157 0-14.351562 15.570313-26.03125 34.710938-26.03125 19.144531 0 34.714844 11.679688 34.714844 26.03125 0 4.792969 3.882812 8.679688 8.675781 8.679688s8.679687-3.886719 8.679687-8.679688c0-23.925781-23.355468-43.386718-52.070312-43.386718s-52.066406 19.460937-52.066406 43.386718c0 23.925782 23.351562 43.390626 52.066406 43.390626 19.144531 0 34.714844 11.679687 34.714844 26.035156 0 14.351562-15.570313 26.03125-34.714844 26.03125-19.140625 0-34.710938-11.679688-34.710938-26.03125 0-4.792969-3.886718-8.679688-8.679687-8.679688-4.789063 0-8.675781 3.886719-8.675781 8.679688 0 23.925781 23.351562 43.390625 52.066406 43.390625s52.070312-19.464844 52.070312-43.390625c0-23.925782-23.355468-43.390625-52.070312-43.390625zm0 0" fill="#24ae5f"/><path d="m112.8125 312.40625c-4.792969 0-8.675781-3.882812-8.675781-8.675781v-156.203125c0-4.792969 3.882812-8.679688 8.675781-8.679688s8.679688 3.886719 8.679688 8.679688v156.203125c0 4.792969-3.886719 8.675781-8.679688 8.675781zm0 0" fill="#24ae5f"/><path d="m303.121094 292.023438c-.113282-.296876-.246094-.585938-.390625-.867188-.328125-.652344-.742188-1.257812-1.222657-1.808594-.1875-.234375-.386718-.457031-.597656-.667968-.675781-.632813-1.449218-1.15625-2.292968-1.542969-.078126 0-.136719-.09375-.214844-.128907-.960938-.382812-1.980469-.585937-3.011719-.601562-.113281 0-.199219-.058594-.3125-.058594h-34.738281c-4.792969 0-8.679688 3.882813-8.679688 8.675782 0 4.792968 3.886719 8.679687 8.679688 8.679687h13.761718l-91.863281 91.890625-37.253906-37.253906c-3.390625-3.386719-8.882813-3.386719-12.273437 0l-69.421876 69.421875c-2.257812 2.179687-3.160156 5.40625-2.367187 8.441406s3.164063 5.402344 6.199219 6.195313c3.03125.796874 6.257812-.109376 8.4375-2.363282l63.289062-63.289062 37.253906 37.253906c3.390626 3.386719 8.882813 3.386719 12.269532 0l98-98v13.761719c0 4.792969 3.886718 8.679687 8.679687 8.679687s8.679688-3.886718 8.679688-8.679687v-34.710938c-.019531-1.039062-.226563-2.0625-.609375-3.027343zm0 0" fill="#cc4b4c"/><path d="m121.492188 442.578125c-4.792969 0-8.679688-3.886719-8.679688-8.679687v-8.679688c0-4.792969 3.886719-8.675781 8.679688-8.675781 4.792968 0 8.675781 3.882812 8.675781 8.675781v8.679688c0 4.792968-3.882813 8.679687-8.675781 8.679687zm0 0" fill="#805333"/><path d="m156.203125 442.578125c-4.792969 0-8.675781-3.886719-8.675781-8.679687v-8.679688c0-4.792969 3.882812-8.675781 8.675781-8.675781s8.679687 3.882812 8.679687 8.675781v8.679688c0 4.792968-3.886718 8.679687-8.679687 8.679687zm0 0" fill="#24ae5f"/><path d="m208.269531 442.578125c-4.792969 0-8.675781-3.886719-8.675781-8.679687v-8.679688c0-4.792969 3.882812-8.675781 8.675781-8.675781s8.679688 3.882812 8.679688 8.675781v8.679688c0 4.792968-3.886719 8.679687-8.679688 8.679687zm0 0" fill="#894b9d"/><path d="m242.984375 442.578125c-4.792969 0-8.679687-3.886719-8.679687-8.679687v-43.390626c0-4.792968 3.886718-8.675781 8.679687-8.675781s8.675781 3.882813 8.675781 8.675781v43.390626c0 4.792968-3.882812 8.679687-8.675781 8.679687zm0 0" fill="#f29c1f"/><path d="m277.695312 442.578125c-4.792968 0-8.679687-3.886719-8.679687-8.679687v-78.101563c0-4.792969 3.886719-8.679687 8.679687-8.679687 4.792969 0 8.675782 3.886718 8.675782 8.679687v78.101563c0 4.792968-3.882813 8.679687-8.675782 8.679687zm0 0" fill="#2fa8cc"/><g fill="#5e5f62"><path d="m216.949219 182.238281h-17.355469c-4.792969 0-8.679688-3.886719-8.679688-8.679687 0-4.792969 3.886719-8.675782 8.679688-8.675782h17.355469c4.792969 0 8.679687 3.882813 8.679687 8.675782 0 4.792968-3.886718 8.679687-8.679687 8.679687zm0 0"/><path d="m286.371094 182.238281h-34.710938c-4.792968 0-8.675781-3.886719-8.675781-8.679687 0-4.792969 3.882813-8.675782 8.675781-8.675782h34.710938c4.792968 0 8.679687 3.882813 8.679687 8.675782 0 4.792968-3.886719 8.679687-8.679687 8.679687zm0 0"/><path d="m216.949219 251.660156h-17.355469c-4.792969 0-8.679688-3.882812-8.679688-8.675781s3.886719-8.679687 8.679688-8.679687h17.355469c4.792969 0 8.679687 3.886718 8.679687 8.679687s-3.886718 8.675781-8.679687 8.675781zm0 0"/><path d="m286.371094 251.660156h-34.710938c-4.792968 0-8.675781-3.882812-8.675781-8.675781s3.882813-8.679687 8.675781-8.679687h34.710938c4.792968 0 8.679687 3.886718 8.679687 8.679687s-3.886719 8.675781-8.679687 8.675781zm0 0"/><path d="m286.371094 216.949219h-17.355469c-4.792969 0-8.675781-3.886719-8.675781-8.679688s3.882812-8.675781 8.675781-8.675781h17.355469c4.792968 0 8.679687 3.882812 8.679687 8.675781s-3.886719 8.679688-8.679687 8.679688zm0 0"/><path d="m234.304688 216.949219h-34.710938c-4.792969 0-8.679688-3.886719-8.679688-8.679688s3.886719-8.675781 8.679688-8.675781h34.710938c4.792968 0 8.679687 3.882812 8.679687 8.675781s-3.886719 8.679688-8.679687 8.679688zm0 0"/></g></svg>