<svg height="511pt" viewBox="0 0 511 511.94689" width="511pt" xmlns="http://www.w3.org/2000/svg"><path d="m225.035156 404.210938h-188.632812c-19.84375 0-35.929688-16.085938-35.929688-35.929688v-332.351562c0-19.84375 16.085938-35.929688 35.929688-35.929688h404.210937c19.84375 0 35.929688 16.085938 35.929688 35.929688v332.351562c0 19.84375-16.085938 35.929688-35.929688 35.929688zm0 0" fill="#b0d3f0"/><path d="m126.226562 89.824219v53.894531h-80.839843v-45.71875c.246093-4.726562 4.253906-8.375 8.980469-8.175781zm0 0" fill="#ff5364"/><path d="m431.632812 98v45.71875h-305.40625v-53.894531h296.421876c4.730468-.199219 8.734374 3.449219 8.984374 8.175781zm0 0" fill="#e6e7e8"/><path d="m126.226562 143.71875h305.40625v53.894531h-305.40625zm0 0" fill="#fff"/><path d="m126.226562 197.613281h305.40625v53.894531h-305.40625zm0 0" fill="#e6e7e8"/><path d="m126.226562 251.507812h305.40625v53.894532h-305.40625zm0 0" fill="#fff"/><path d="m126.226562 305.402344h305.40625v53.894531h-305.40625zm0 0" fill="#e6e7e8"/><path d="m126.226562 305.402344v53.894531h-71.859374c-4.726563.199219-8.734376-3.445313-8.980469-8.171875v-45.722656zm0 0" fill="#ff5364"/><path d="m45.386719 143.71875h80.839843v53.894531h-80.839843zm0 0" fill="#fb7b76"/><path d="m45.386719 197.613281h80.839843v53.894531h-80.839843zm0 0" fill="#ff5364"/><path d="m45.386719 251.507812h80.839843v53.894532h-80.839843zm0 0" fill="#fb7b76"/><path d="m72.332031 53.894531h-17.964843c-4.960938 0-8.980469-4.019531-8.980469-8.980469 0-4.960937 4.019531-8.984374 8.980469-8.984374h17.964843c4.960938 0 8.984375 4.023437 8.984375 8.984374 0 4.960938-4.023437 8.980469-8.984375 8.980469zm0 0" fill="#c03a2b"/><path d="m126.226562 53.894531h-17.964843c-4.960938 0-8.980469-4.019531-8.980469-8.980469 0-4.960937 4.019531-8.984374 8.980469-8.984374h17.964843c4.960938 0 8.984376 4.023437 8.984376 8.984374 0 4.960938-4.023438 8.980469-8.984376 8.980469zm0 0" fill="#f0c419"/><path d="m198.085938 53.894531h-35.929688c-4.960938 0-8.980469-4.019531-8.980469-8.980469 0-4.960937 4.019531-8.984374 8.980469-8.984374h35.929688c4.960937 0 8.984374 4.023437 8.984374 8.984374 0 4.960938-4.023437 8.980469-8.984374 8.980469zm0 0" fill="#24ae5f"/><path d="m431.632812 53.894531h-197.617187c-4.960937 0-8.980469-4.019531-8.980469-8.980469 0-4.960937 4.019532-8.984374 8.980469-8.984374h197.617187c4.960938 0 8.980469 4.023437 8.980469 8.984374 0 4.960938-4.019531 8.980469-8.980469 8.980469zm0 0" fill="#2c2f38"/><path d="m409.238281 383.460938 97.910157 97.910156c4.523437 4.523437 6.289062 11.117187 4.632812 17.300781-1.65625 6.179687-6.484375 11.007813-12.664062 12.664063-6.179688 1.65625-12.777344-.109376-17.300782-4.636719l-98-97.996094zm0 0" fill="#805333"/><path d="m440.613281 323.367188c0 64.492187-52.28125 116.773437-116.769531 116.773437-64.492188 0-116.773438-52.28125-116.773438-116.773437 0-64.488282 52.28125-116.769532 116.773438-116.769532 64.488281 0 116.769531 52.28125 116.769531 116.769532zm0 0" fill="#2fa8cc"/><g fill="#e6e7e8"><path d="m266.667969 275.1875c-3.632813 0-6.910157-2.191406-8.296875-5.550781-1.390625-3.359375-.617188-7.226563 1.957031-9.792969 4.1875-4.183594 8.777344-7.949219 13.695313-11.246094 9.746093-6.523437 20.683593-11.054687 32.1875-13.328125 5.804687-1.152343 11.710937-1.730469 17.632812-1.726562 4.960938 0 8.980469 4.023437 8.980469 8.984375 0 4.960937-4.019531 8.980468-8.980469 8.980468-4.75 0-9.484375.464844-14.140625 1.382813-9.179687 1.8125-17.914063 5.429687-25.691406 10.636719-3.945313 2.652344-7.625 5.679687-10.992188 9.035156-1.683593 1.6875-3.96875 2.632812-6.351562 2.625zm0 0"/><path d="m243 332.351562c-4.960938 0-8.984375-4.023437-8.984375-8.984374 0-5.921876.582031-11.832032 1.734375-17.640626.546875-3.222656 2.800781-5.894531 5.886719-6.976562 3.085937-1.082031 6.515625-.402344 8.953125 1.777344 2.4375 2.175781 3.5 5.507812 2.777344 8.695312-.921876 4.65625-1.386719 9.394532-1.386719 14.144532 0 4.960937-4.019531 8.984374-8.980469 8.984374zm0 0"/></g></svg>