<svg height="512pt" viewBox="-9 0 512 512.00003" width="512pt" xmlns="http://www.w3.org/2000/svg"><path d="m85.335938 171.238281v127.429688h-51.199219v-127.429688c-.140625-4.863281 3.671875-8.929687 8.53125-9.105469h34.136719c4.859374.175782 8.671874 4.242188 8.53125 9.105469zm0 0" fill="#cc4b4c"/><path d="m110.9375 512c-3.414062 0-6.5-2.035156-7.84375-5.171875l-43.355469-101.171875-43.359375 101.171875c-1.859375 4.332031-6.878906 6.335937-11.207031 4.476563-4.332031-1.859376-6.335937-6.878907-4.476563-11.207032l51.199219-119.46875c1.34375-3.136718 4.429688-5.167968 7.84375-5.167968 3.410157 0 6.496094 2.03125 7.839844 5.167968l51.199219 119.46875c1.859375 4.328125-.148438 9.34375-4.480469 11.203125-1.058594.460938-2.203125.699219-3.359375.699219zm0 0" fill="#c03a2b"/><path d="m91.738281 469.332031h-64c-4.714843 0-8.535156-3.820312-8.535156-8.53125 0-4.714843 3.820313-8.535156 8.535156-8.535156h64c4.710938 0 8.53125 3.820313 8.53125 8.535156 0 4.710938-3.820312 8.53125-8.53125 8.53125zm0 0" fill="#c03a2b"/><path d="m110.9375 136.535156h-102.402344c-3.332031-.003906-6.359375-1.941406-7.75-4.972656-1.394531-3.027344-.894531-6.585938 1.273438-9.117188l90.328125-105.378906h-83.851563c-4.710937 0-8.53124975-3.820312-8.53124975-8.53125 0-4.714844 3.82031275-8.535156 8.53124975-8.535156h102.402344c3.332031 0 6.359375 1.941406 7.75 4.96875 1.394531 3.027344.894531 6.589844-1.273438 9.121094l-90.328124 105.375h83.851562c4.710938 0 8.53125 3.824218 8.53125 8.535156s-3.820312 8.535156-8.53125 8.535156zm0 0" fill="#cc4b4c"/><path d="m104.878906 304.726562-39.082031 39.082032c-3.355469 3.328125-8.765625 3.328125-12.121094 0l-39.082031-39.082032c-2.449219-2.429687-3.195312-6.097656-1.886719-9.292968 1.308594-3.195313 4.410157-5.285156 7.859375-5.300782h78.679688c3.390625.148438 6.371094 2.289063 7.589844 5.453126 1.222656 3.164062.453124 6.753906-1.957032 9.140624zm0 0" fill="#c03a2b"/><path d="m494.9375 34.132812v42.667969h-247.46875v-59.734375h230.402344c9.414062.027344 17.039062 7.652344 17.066406 17.066406zm0 0" fill="#bbd1b5"/><path d="m247.46875 17.066406v59.734375h-76.800781v-42.667969c.03125-9.414062 7.65625-17.039062 17.070312-17.066406zm0 0" fill="#71c285"/><path d="m170.667969 76.800781h76.800781v59.734375h-76.800781zm0 0" fill="#4c8056"/><path d="m247.46875 76.800781h247.46875v59.734375h-247.46875zm0 0" fill="#71c285"/><path d="m247.46875 136.535156h247.46875v59.730469h-247.46875zm0 0" fill="#bbd1b5"/><path d="m170.667969 136.535156h76.800781v59.730469h-76.800781zm0 0" fill="#71c285"/><path d="m170.667969 196.265625h76.800781v59.734375h-76.800781zm0 0" fill="#4c8056"/><path d="m247.46875 196.265625h247.46875v59.734375h-247.46875zm0 0" fill="#71c285"/><path d="m247.46875 256h247.46875v59.734375h-247.46875zm0 0" fill="#bbd1b5"/><path d="m170.667969 256h76.800781v59.734375h-76.800781zm0 0" fill="#71c285"/><path d="m170.667969 315.734375h76.800781v59.730469h-76.800781zm0 0" fill="#4c8056"/><path d="m247.46875 315.734375h247.46875v59.730469h-247.46875zm0 0" fill="#71c285"/><path d="m247.46875 375.464844h247.46875v59.734375h-247.46875zm0 0" fill="#bbd1b5"/><path d="m170.667969 375.464844h76.800781v59.734375h-76.800781zm0 0" fill="#71c285"/><path d="m247.46875 435.199219v59.734375h-59.730469c-9.414062-.027344-17.039062-7.652344-17.070312-17.066406v-42.667969zm0 0" fill="#4c8056"/><path d="m494.9375 435.199219v42.667969c-.027344 9.414062-7.652344 17.039062-17.066406 17.066406h-230.402344v-59.734375zm0 0" fill="#71c285"/></svg>