<svg height="512" viewBox="0 0 58 59" width="512" xmlns="http://www.w3.org/2000/svg"><g id="052---Pay-Bill" fill="none"><path id="Shape" d="m44 8h8c2.209139 0 4 1.790861 4 4v41h-54v-41c0-2.209139 1.790861-4 4-4h8" fill="#547580"/><path id="Shape" d="m51.2 12c-6.05.2-44.48 2.53-45.2 32.16-.01050749-.0528158-.01050749-.1071842 0-.16v-31c0-.5522847.44771525-1 1-1h44z" fill="#67b9cc"/><path id="Shape" d="m52 13v31c0 .5522847-.4477153 1-1 1h-44c-.2430724-.0003498-.47769576-.0892223-.66-.25-.17111388-.1406225-.29070168-.3340733-.34-.55.72-29.67 39.15-32 45.2-32.2.1692248.0395977.326787.1183788.46.23.2210959.1941467.3454678.4758122.34.77z" fill="#2fa8cc"/><path id="Shape" d="m25 40h-14c-.5522847 0-1-.4477153-1-1s.4477153-1 1-1h14c.5522847 0 1 .4477153 1 1s-.4477153 1-1 1z" fill="#b0d3f0"/><path id="Shape" d="m47 40h-14c-.5522847 0-1-.4477153-1-1s.4477153-1 1-1h14c.5522847 0 1 .4477153 1 1s-.4477153 1-1 1z" fill="#b0d3f0"/><path id="Shape" d="m44 1.5v33.5h-30v-33.5c.0028117-.20263651.1276603-.38353498.3161224-.45804327.1884622-.07450828.4032598-.02788857.5438776.11804327l2.53 3.24c.0911199.10332021.2222397.16250984.36.16250984s.2688801-.05918963.36-.16250984l3-3.24c.0927578-.10045506.2232695-.1575846.36-.1575846s.2672422.05712954.36.1575846l3 3.24c.0911199.10332021.2222397.16250984.36.16250984s.2688801-.05918963.36-.16250984l3-3.24c.0927578-.10045506.2232695-.1575846.36-.1575846s.2672422.05712954.36.1575846l3 3.24c.0911199.10332021.2222397.16250984.36.16250984s.2688801-.05918963.36-.16250984l3-3.24c.0927578-.10045506.2232695-.1575846.36-.1575846s.2672422.05712954.36.1575846l3 3.24c.0911199.10332021.2222397.16250984.36.16250984s.2688801-.05918963.36-.16250984l2.53-3.24c.0938884-.28718807.4028119-.44388841.69-.35s.4438884.40281193.35.69z" fill="#f9eab0"/><g fill="#a59078"><path id="Shape" d="m20.5 16h-2.5c-.5522847 0-1-.4477153-1-1v-5c0-.55228475.4477153-1 1-1h2.5c1.9329966 0 3.5 1.5670034 3.5 3.5s-1.5670034 3.5-3.5 3.5zm-1.5-2h1.5c.8284271 0 1.5-.6715729 1.5-1.5s-.6715729-1.5-1.5-1.5h-1.5z"/><path id="Shape" d="m20.5 21h-2.5c-.5522847 0-1-.4477153-1-1v-5c0-.5522847.4477153-1 1-1h2.5c1.9329966 0 3.5 1.5670034 3.5 3.5s-1.5670034 3.5-3.5 3.5zm-1.5-2h1.5c.8284271 0 1.5-.6715729 1.5-1.5s-.6715729-1.5-1.5-1.5h-1.5z"/><path id="Shape" d="m27 21c-.5522847 0-1-.4477153-1-1v-10c0-.55228475.4477153-1 1-1s1 .44771525 1 1v10c0 .5522847-.4477153 1-1 1z"/><path id="Shape" d="m34 21h-3c-.5522847 0-1-.4477153-1-1v-10c0-.55228475.4477153-1 1-1s1 .44771525 1 1v9h2c.5522847 0 1 .4477153 1 1s-.4477153 1-1 1z"/><path id="Shape" d="m41 21h-3c-.5522847 0-1-.4477153-1-1v-10c0-.55228475.4477153-1 1-1s1 .44771525 1 1v9h2c.5522847 0 1 .4477153 1 1s-.4477153 1-1 1z"/><path id="Shape" d="m40 25h-22c-.5522847 0-1-.4477153-1-1s.4477153-1 1-1h22c.5522847 0 1 .4477153 1 1s-.4477153 1-1 1z"/><path id="Shape" d="m22 29h-4c-.5522847 0-1-.4477153-1-1s.4477153-1 1-1h4c.5522847 0 1 .4477153 1 1s-.4477153 1-1 1z"/><path id="Shape" d="m33 29h-7c-.5522847 0-1-.4477153-1-1s.4477153-1 1-1h7c.5522847 0 1 .4477153 1 1s-.4477153 1-1 1z"/><path id="Shape" d="m40 29h-3c-.5522847 0-1-.4477153-1-1s.4477153-1 1-1h3c.5522847 0 1 .4477153 1 1s-.4477153 1-1 1z"/></g><path id="Shape" d="m45 36h-32c-.5522847 0-1-.4477153-1-1s.4477153-1 1-1h32c.5522847 0 1 .4477153 1 1s-.4477153 1-1 1z" fill="#2980ba"/><path id="Shape" d="m52 59h-46c-3.3137085 0-6-2.6862915-6-6v-3c0-.5522847.44771525-1 1-1h56c.5522847 0 1 .4477153 1 1v3c0 3.3137085-2.6862915 6-6 6z" fill="#3f5c6c"/><path id="Shape" d="m19 49h20v2c0 1.6568542-1.3431458 3-3 3h-14c-1.6568542 0-3-1.3431458-3-3z" fill="#35495e"/><path id="Shape" d="m5 54c-.55228475 0-1-.4477153-1-1s.44771525-1 1-1 1 .4477153 1 1-.44771525 1-1 1z" fill="#4fba6f"/><path id="Shape" d="m8 54c-.55228475 0-1-.4477153-1-1s.44771525-1 1-1 1 .4477153 1 1-.44771525 1-1 1z" fill="#e64c3c"/><path id="Shape" d="m14 54h-3c-.5522847 0-1-.4477153-1-1s.4477153-1 1-1h3c.5522847 0 1 .4477153 1 1s-.4477153 1-1 1z" fill="#35495e"/></g></svg>