<svg height="512" viewBox="0 0 56 58" width="512" xmlns="http://www.w3.org/2000/svg"><g id="077---Contactless" fill="none"><path id="Shape" d="m8 49h20v7c0 1.1045695-.8954305 2-2 2h-16c-1.1045695 0-2-.8954305-2-2z" fill="#b19046"/><path id="Shape" d="m28.44 51h-20.88c-.91619647.0004369-1.71553194-.6217263-1.94-1.51l-.62-2.49 13-2 13 2-.62 2.49c-.2244681.8882737-1.0238035 1.5104369-1.94 1.51z" fill="#f3d55b"/><path id="Shape" d="m10 0h16c1.1045695 0 2 .8954305 2 2v7h-20v-7c0-1.1045695.8954305-2 2-2z" fill="#b19046"/><path id="Shape" d="m28.44 7h-20.88c-.91619647-.00043693-1.71553194.62172626-1.94 1.51l-.62 2.49 13 2 13-2-.62-2.49c-.2244681-.88827374-1.0238035-1.51043693-1.94-1.51z" fill="#f3d55b"/><path id="Shape" d="m34.85 12.19c-.4533981-.4665407-1.017625-.8105815-1.64-1-.3911876-.1250756-.7993043-.1891601-1.21-.19h-28c-2.209139 0-4 1.790861-4 4v28c-.0013695.3587175.04915356.7157471.15 1.06.4765493 1.7340179 2.05169315 2.9368551 3.85 2.94h28c2.209139 0 4-1.790861 4-4v-28c.0008701-1.0514039-.4122586-2.0608748-1.15-2.81z" fill="#56595e"/><path id="Shape" d="m49.89 42.31c-.265803.0015368-.5212812-.1028135-.71-.29-.1893127-.1877666-.2957983-.4433625-.2957983-.71s.1064856-.5222334.2957983-.71c6.3476629-6.3527702 6.3476629-16.6472298 0-23-.3921222-.3921222-.3921222-1.0278778 0-1.42s1.0278778-.3921222 1.42 0c7.1066153 7.1396649 7.1066153 18.6803351 0 25.82-.1853993.1945357-.4412937.3062642-.71.31z" fill="#fb7b76"/><path id="Shape" d="m46.4 38.82c-.4044441-.0016958-.7680455-.2468472-.9212679-.6211476s-.0658935-.8040433.2212679-1.0888524c4.4093025-4.421992 4.4093025-11.578008 0-16-.1893127-.1877666-.2957983-.4433625-.2957983-.71s.1064856-.5222334.2957983-.71c.3900375-.3877236 1.0199625-.3877236 1.41 0 5.2003457 5.2112321 5.2003457 13.6487679 0 18.86-.1919418.1798822-.4470327.2768886-.71.27z" fill="#e64c3c"/><path id="Shape" d="m42.92 35.33c-.265803.0015368-.5212812-.1028135-.71-.29-.3877236-.3900375-.3877236-1.0199625 0-1.41 2.4877279-2.5037835 2.4877279-6.5462165 0-9.05-.1893127-.1877666-.2957983-.4433625-.2957983-.71s.1064856-.5222334.2957983-.71c.3900375-.3877236 1.0199625-.3877236 1.41 0 1.575491 1.5753302 2.4606061 3.712033 2.4606061 5.94s-.8851151 4.3646698-2.4606061 5.94c-.1862606.1847442-.4376601.2888954-.7.29z" fill="#c03a2b"/><path id="Shape" d="m33.21 11.19c-8.09.85-31 5.67-33.06 32.87-.10084644-.3442529-.1513695-.7012825-.15-1.06v-28c0-2.209139 1.790861-4 4-4h28c.4106957.0008399.8188124.0649244 1.21.19z" fill="#7f8284"/><path id="Shape" d="m30 32v2c0 1.1045695-.8954305 2-2 2h-20c-1.1045695 0-2-.8954305-2-2v-2z" fill="#e57e25"/><path id="Shape" d="m30 22v6h-24v-6c0-1.1045695.8954305-2 2-2h20c1.1045695 0 2 .8954305 2 2z" fill="#f29c1f"/><path id="Rectangle-path" d="m6 28h24v4h-24z" fill="#464f5d"/><path id="Shape" d="m11 25h-1c-.55228475 0-1-.4477153-1-1s.44771525-1 1-1h1c.5522847 0 1 .4477153 1 1s-.4477153 1-1 1z" fill="#e64c3c"/><path id="Shape" d="m26 25h-1c-.5522847 0-1-.4477153-1-1s.4477153-1 1-1h1c.5522847 0 1 .4477153 1 1s-.4477153 1-1 1z" fill="#f3d55b"/></g></svg>