<svg height="512" viewBox="0 0 56 58" width="512" xmlns="http://www.w3.org/2000/svg"><g id="076---Contactless" fill="none" transform="translate(-1)"><path id="Shape" d="m50.89 42.31c-.265803.0015368-.5212812-.1028135-.71-.29-.1893127-.1877666-.2957983-.4433625-.2957983-.71s.1064856-.5222334.2957983-.71c6.3476629-6.3527702 6.3476629-16.6472298 0-23-.3921222-.3921222-.3921222-1.0278778 0-1.42s1.0278778-.3921222 1.42 0c7.1066153 7.1396649 7.1066153 18.6803351 0 25.82-.1853993.1945357-.4412937.3062642-.71.31z" fill="#fb7b76"/><path id="Shape" d="m47.4 38.82c-.4044441-.0016958-.7680455-.2468472-.9212679-.6211476s-.0658935-.8040433.2212679-1.0888524c4.4093025-4.421992 4.4093025-11.578008 0-16-.1893127-.1877666-.2957983-.4433625-.2957983-.71s.1064856-.5222334.2957983-.71c.3900375-.3877236 1.0199625-.3877236 1.41 0 5.2003457 5.2112321 5.2003457 13.6487679 0 18.86-.1919418.1798822-.4470327.2768886-.71.27z" fill="#e64c3c"/><path id="Shape" d="m43.92 35.33c-.265803.0015368-.5212812-.1028135-.71-.29-.3877236-.3900375-.3877236-1.0199625 0-1.41 2.4877279-2.5037835 2.4877279-6.5462165 0-9.05-.1893127-.1877666-.2957983-.4433625-.2957983-.71s.1064856-.5222334.2957983-.71c.3900375-.3877236 1.0199625-.3877236 1.41 0 1.575491 1.5753302 2.4606061 3.712033 2.4606061 5.94s-.8851151 4.3646698-2.4606061 5.94c-.1862606.1847442-.4376601.2888954-.7.29z" fill="#c03a2b"/><path id="Shape" d="m35 46v9c0 1.6568542-1.3431458 3-3 3h-28c-1.65685425 0-3-1.3431458-3-3v-9c0 1.6568542 1.34314575 3 3 3h28c1.6568542 0 3-1.3431458 3-3z" fill="#464f5d"/><path id="Shape" d="m1 50.36c-.00987973-.1197966-.00987973-.2402034 0-.36v-47c0-1.65685425 1.34314575-3 3-3h28c.5826509.00060979 1.1525155.17087423 1.64.49z" fill="#67b9cc"/><path id="Shape" d="m35 3v47c0 1.6568542-1.3431458 3-3 3h-28c-.8887981-.0015194-1.73116968-.3970678-2.3-1.08-.38481168-.4378321-.62875042-.981467-.7-1.56 1-44.36 26.57-49.36 32.64-49.87.3002383.18869374.5616032.4330869.77.72.3838525.51779249.5907323 1.14544493.59 1.79z" fill="#2fa8cc"/><path id="Shape" d="m28 0-2.86 3.05c-.5552143.59345073-1.3274375.93626008-2.14.95h-9.9c-.8375997-.01295328-1.6316336-.37552582-2.19-1l-2.91-3z" fill="#464f5d"/><path id="Shape" d="m30 25v2c0 1.1045695-.8954305 2-2 2h-20c-1.1045695 0-2-.8954305-2-2v-2z" fill="#e57e25"/><path id="Shape" d="m30 15v6h-24v-6c0-1.1045695.8954305-2 2-2h20c1.1045695 0 2 .8954305 2 2z" fill="#f29c1f"/><path id="Rectangle-path" d="m6 21h24v4h-24z" fill="#464f5d"/><path id="Shape" d="m11 18h-1c-.55228475 0-1-.4477153-1-1s.44771525-1 1-1h1c.5522847 0 1 .4477153 1 1s-.4477153 1-1 1z" fill="#e64c3c"/><path id="Shape" d="m26 18h-1c-.5522847 0-1-.4477153-1-1s.4477153-1 1-1h1c.5522847 0 1 .4477153 1 1s-.4477153 1-1 1z" fill="#f3d55b"/><g fill="#65ddb9"><path id="Shape" d="m19.66 49c-.265803.0015368-.5212812-.1028135-.71-.29-.1893127-.1877666-.2957983-.4433625-.2957983-.71s.1064856-.5222334.2957983-.71c1.6884631-1.6879118 2.6370781-3.9775424 2.6370781-6.365s-.948615-4.6770882-2.6370781-6.365c-.3397768-.3967603-.3169323-.9881942.0524368-1.3575632.369369-.3693691.9608029-.3922136 1.3575632-.0524368 2.0640171 2.0630484 3.2236512 4.8617239 3.2236512 7.78s-1.1596341 5.7169516-3.2236512 7.78c-.1862606.1847442-.4376601.2888954-.7.29z"/><path id="Shape" d="m16.83 46.17c-.265803.0015368-.5212812-.1028135-.71-.29-.1893127-.1877666-.2957983-.4433625-.2957983-.71s.1064856-.5222334.2957983-.71c1.9519097-1.9524993 1.9519097-5.1175007 0-7.07-.3877236-.3900375-.3877236-1.0199625 0-1.41.1877666-.1893127.4433625-.2957983.71-.2957983s.5222334.1064856.71.2957983c1.3129091 1.3127752 2.0505051 3.0933608 2.0505051 4.95s-.737596 3.6372248-2.0505051 4.95c-.1887188.1871865-.444197.2915368-.71.29z"/><path id="Shape" d="m14 43.34c-.265803.0015368-.5212812-.1028135-.71-.29-.1893127-.1877666-.2957983-.4433625-.2957983-.71s.1064856-.5222334.2957983-.71c.1884143-.1846305.296243-.4362307.3-.7-.0011094-.2672459-.1091444-.5229286-.3-.71-.3877236-.3900375-.3877236-1.0199625 0-1.41.1877666-.1893127.4433625-.2957983.71-.2957983s.5222334.1064856.71.2957983c1.1698135 1.1712702 1.1698135 3.0687298 0 4.24-.1887188.1871865-.444197.2915368-.71.29z"/></g></g></svg>