<svg height="512" viewBox="0 0 58 59" width="512" xmlns="http://www.w3.org/2000/svg"><g id="015---Price-Cut" fill="none"><path id="Shape" d="m44 26.7v-22.7c0-2.209139-1.790861-4-4-4h-36c-2.209139 0-4 1.790861-4 4v38c0 2.209139 1.790861 4 4 4h40z" fill="#24ae5f"/><path id="Shape" d="m42 26.7v-22.7c.09618-2.10856291-1.5317358-3.89748134-3.64-4h-32.72c-2.10826423.10251866-3.73618 1.89143709-3.64 4v38c-.09618 2.1085629 1.53173577 3.8974813 3.64 4h36.36z" fill="#4fba6f"/><g fill="#4c8056"><path id="Shape" d="m24 43h-1c-.5522847 0-1-.4477153-1-1s.4477153-1 1-1h1c.5522847 0 1 .4477153 1 1s-.4477153 1-1 1z"/><path id="Shape" d="m18.5 43h-2.25c-.5522847 0-1-.4477153-1-1s.4477153-1 1-1h2.25c.5522847 0 1 .4477153 1 1s-.4477153 1-1 1zm-6.75 0h-2.25c-.55228475 0-1-.4477153-1-1s.44771525-1 1-1h2.25c.5522847 0 1 .4477153 1 1s-.4477153 1-1 1z"/><path id="Shape" d="m5 43h-1c-.55228475 0-1-.4477153-1-1v-1c0-.5522847.44771525-1 1-1s1 .4477153 1 1c.55228475 0 1 .4477153 1 1s-.44771525 1-1 1z"/><path id="Shape" d="m4 37.76c-.55228475 0-1-.4477153-1-1v-2.11c0-.5522847.44771525-1 1-1s1 .4477153 1 1v2.11c0 .5522847-.44771525 1-1 1zm0-6.35c-.55228475 0-1-.4477153-1-1v-2.12c0-.5522847.44771525-1 1-1s1 .4477153 1 1v2.12c0 .5522847-.44771525 1-1 1zm0-6.35c-.55228475 0-1-.4477153-1-1v-2.12c0-.5522847.44771525-1 1-1s1 .4477153 1 1v2.12c0 .5522847-.44771525 1-1 1zm0-6.35c-.55228475 0-1-.4477153-1-1v-2.12c0-.5522847.44771525-1 1-1s1 .4477153 1 1v2.12c0 .5522847-.44771525 1-1 1zm0-6.36c-.55228475 0-1-.4477153-1-1v-2.11c0-.55228475.44771525-1 1-1s1 .44771525 1 1v2.11c0 .5522847-.44771525 1-1 1z"/><path id="Shape" d="m4 6c-.55228475 0-1-.44771525-1-1v-1c0-.55228475.44771525-1 1-1h1c.55228475 0 1 .44771525 1 1s-.44771525 1-1 1c0 .55228475-.44771525 1-1 1z"/><path id="Shape" d="m35 5h-2c-.5522847 0-1-.44771525-1-1s.4477153-1 1-1h2c.5522847 0 1 .44771525 1 1s-.4477153 1-1 1zm-6 0h-2c-.5522847 0-1-.44771525-1-1s.4477153-1 1-1h2c.5522847 0 1 .44771525 1 1s-.4477153 1-1 1zm-6 0h-2c-.5522847 0-1-.44771525-1-1s.4477153-1 1-1h2c.5522847 0 1 .44771525 1 1s-.4477153 1-1 1zm-6 0h-2c-.5522847 0-1-.44771525-1-1s.4477153-1 1-1h2c.5522847 0 1 .44771525 1 1s-.4477153 1-1 1zm-6 0h-2c-.55228475 0-1-.44771525-1-1s.44771525-1 1-1h2c.5522847 0 1 .44771525 1 1s-.4477153 1-1 1z"/><path id="Shape" d="m40 6c-.5522847 0-1-.44771525-1-1-.5522847 0-1-.44771525-1-1s.4477153-1 1-1h1c.5522847 0 1 .44771525 1 1v1c0 .55228475-.4477153 1-1 1z"/><path id="Shape" d="m40 12c-.5522847 0-1-.4477153-1-1v-2c0-.55228475.4477153-1 1-1s1 .44771525 1 1v2c0 .5522847-.4477153 1-1 1z"/><path id="Shape" d="m40 17c-.5522847 0-1-.4477153-1-1v-1c0-.5522847.4477153-1 1-1s1 .4477153 1 1v1c0 .5522847-.4477153 1-1 1z"/></g><path id="Shape" d="m42 31.85-4.57-11.8c-.711676-1.6366126-2.5648773-2.4476607-4.25-1.86-.8123939.2670588-1.4851878.8463092-1.87 1.61-.3713876.7427264-.4077746 1.6087374-.1 2.38l5.8 15" fill="#7f8284"/><path id="Shape" d="m45.88 42.9 1.12 2.1c.51 1-.43.61-1.15 1.43-1.48 1.69-3.85 4.18-3.85 3.5v.19-.12c0-2-2.6-2.52-4-4-.61-.66.5-2.68-.29-3.1l.76-2 .1-.27c.89.84 2.1-.65 3.42-.65s2.27 1.59 3.13.9z" fill="#7f8284"/><path id="Shape" d="m47 37.15 5.8-15c.3130198-.77036.2765386-1.6386131-.1-2.38-.3848122-.7636908-1.0576061-1.3429412-1.87-1.61-.3679211-.1187133-.7536145-.1728457-1.14-.16-1.360099-.022965-2.5949314.790992-3.11 2.05l-4.58 11.8-.06.15" fill="#7f8284"/><path id="Shape" d="m47 37c0 2.7614237-2.2385763 5-5 5s-5-2.2385763-5-5 2.2385763-5 5-5c1.3260824 0 2.597852.5267842 3.5355339 1.4644661s1.4644661 2.2094515 1.4644661 3.5355339z" fill="#a5a5a4"/><path id="Shape" d="m26.93 30.31c-.376281-.3848255-.8917826-.6017511-1.43-.6017511s-1.053719.2169256-1.43.6017511c-.5064367.4253664-1.1392428.6714576-1.8.7-.4803251-.110413-.9329546-.3180099-1.33-.61-.6225049-.4151766-1.2943557-.751102-2-1-1.3608425-.4137115-2.8008883-.4959999-4.2-.24.6662395-1.3262484 1.1859738-2.7211482 1.55-4.16h2.87c1.0389897.0342257 1.9495179-.6899618 2.15-1.71.0848227-.5785742-.0878139-1.1652902-.4724717-1.6057234s-.9428021-.6904613-1.5275283-.6842766h-3c-.2394662-1.0597353-.550172-2.1021033-.93-3.12-.5224835-1.0962032-.6564919-2.3375438-.38-3.52.3845329-.9213391 1.1880052-1.6020586 2.16-1.83 1.2968354-.393985 2.7024614-.1768857 3.82.59.9329847.9241295 1.3900927 2.2254127 1.24 3.53-.0753228 1.0245468.6086209 1.9506321 1.61 2.18.5668522.1169589 1.1565753-.017387 1.6168331-.3683336.4602579-.3509466.7459099-.8840743.7831669-1.4616664.2832594-2.6405992-.7394462-5.2533505-2.74-7-2.1487226-1.59725479-4.9266987-2.08312245-7.49-1.31-2.2400844.56255905-4.0584933 2.1938888-4.86 4.36-.5855571 2.0359278-.451351 4.2114788.38 6.16.22.6.42 1.2.58 1.79h-1.92c-1.04875802-.0450569-1.97397931.68069-2.18 1.71-.08482275.5785742.08781392 1.1652902.4724717 1.6057234.38465779.4404332.9428021.6904613 1.5275283.6842766h2.09c-.3376959 1.0252378-.7418867 2.0273639-1.21 3l-.14.3c-.59 1.26-1.2 2.49-1.82 3.65-.38231053.6197167-.39760416 1.3982465-.03992692 2.0324998.35767723.6342532 1.03180058 1.023997 1.75992692 1.0175002.5012266.006438.9865968-.1755758 1.36-.51l.25-.13c.4268563-.2609332.8751397-.4850749 1.34-.67 1.2976861-.6112777 2.7647168-.7629179 4.16-.43.3877267.1462595.7569247.3375712 1.1.57 1.0059497.7064921 2.1921017 1.1122809 3.42 1.17 1.7392406-.0188779 3.4071881-.6939145 4.67-1.89.7595151-.7804067.75507-2.0250382-.01-2.8z" fill="#fff"/><path id="Shape" d="m39.83 44.53c-.6102071-.6584316-1.3268843-1.2094618-2.12-1.63-1.1440588-.5999422-2.4182107-.9090356-3.71-.9-4.3959279.0009926-7.9675231 3.5487112-7.9980013 7.9445335-.0304782 4.3958224 3.4915802 7.9927244 7.8870716 8.0546719 4.3954915.0619475 8.0175161-3.43427 8.1109297-7.8292054v-.17c-.0020946-2.0328114-.7779699-3.988589-2.17-5.47zm-1.83 5.55c-.0435654 2.1778348-1.8217295 3.9204357-4 3.92-2.209139 0-4-1.790861-4-4s1.790861-4 4-4h.06c2.1744638-.0005505 3.9510746 1.7360866 4 3.91z" fill="#e64c3c"/><path id="Shape" d="m55.84 44.53c-1.5043643-1.6269254-3.6242011-2.5452793-5.84-2.53-4.391085-.0001681-7.961578 3.5390831-8 7.93v.19c-.0138071 4.418278 3.556722 8.0111928 7.975 8.0249999s8.0111928-3.5567219 8.025-7.9749999v-.17c.0006151-2.0314454-.7716143-3.9870449-2.16-5.47zm-1.84 5.55c-.0435654 2.1778348-1.8217295 3.9204357-4 3.92h-.06c-2.209139-.0165686-3.9865685-1.820861-3.9699999-4.03.0165685-2.209139 1.8208609-3.9865685 4.0299999-3.97 2.1744638-.0005505 3.9510746 1.7360866 4 3.91z" fill="#c03a2b"/></g></svg>