<svg height="512" viewBox="0 0 58 58" width="512" xmlns="http://www.w3.org/2000/svg"><g id="069---Sales-Email" fill="none"><path id="Shape" d="m48 7h4c2.209139 0 4 1.790861 4 4v40h-54v-40c0-2.209139 1.790861-4 4-4h4" fill="#547580"/><path id="Shape" d="m51.2 11c-6.05.2-44.48 2.53-45.2 32.16-.01050749-.0528158-.01050749-.1071842 0-.16v-31c0-.5522847.44771525-1 1-1h44z" fill="#67b9cc"/><path id="Shape" d="m52 12v31c0 .5522847-.4477153 1-1 1h-44c-.2430724-.0003498-.47769576-.0892223-.66-.25-.17111388-.1406225-.29070168-.3340733-.34-.55.72-29.67 39.15-32 45.2-32.2.1692248.0395977.326787.1183788.46.23.2210959.1941467.3454678.4758122.34.77z" fill="#2fa8cc"/><g fill="#e64c3c"><path id="Shape" d="m29 41c-.5522847 0-1-.4477153-1-1v-5c0-.5522847.4477153-1 1-1s1 .4477153 1 1v5c0 .5522847-.4477153 1-1 1z"/><path id="Shape" d="m25.65 34.19c-.1151147.1443977-.1412666.3404887-.0680177.5100076.073249.169519.2339711.284862.4180177.2999924h6c.1912461-.0008785.3652377-.110772.4482041-.2830869s.0603718-.3768611-.0582041-.5269131l-3-3.7c-.0948984-.1182856-.2383517-.1871102-.39-.1871102s-.2951016.0688246-.39.1871102z"/><path id="Shape" d="m17 41c-.5522847 0-1-.4477153-1-1v-5c0-.5522847.4477153-1 1-1s1 .4477153 1 1v5c0 .5522847-.4477153 1-1 1z"/><path id="Shape" d="m13.65 34.19c-.1151147.1443977-.1412666.3404887-.0680177.5100076.073249.169519.2339711.284862.4180177.2999924h6c.1912461-.0008785.3652377-.110772.4482041-.2830869s.0603718-.3768611-.0582041-.5269131l-3-3.7c-.0948984-.1182856-.2383517-.1871102-.39-.1871102s-.2951016.0688246-.39.1871102z"/><path id="Shape" d="m41 41c-.5522847 0-1-.4477153-1-1v-5c0-.5522847.4477153-1 1-1s1 .4477153 1 1v5c0 .5522847-.4477153 1-1 1z"/><path id="Shape" d="m37.65 34.19c-.1151147.1443977-.1412666.3404887-.0680177.5100076.073249.169519.2339711.284862.4180177.2999924h6c.1912461-.0008785.3652377-.110772.4482041-.2830869s.0603718-.3768611-.0582041-.5269131l-3-3.7c-.0948984-.1182856-.2383517-.1871102-.39-.1871102s-.2951016.0688246-.39.1871102z"/></g><path id="Shape" d="m52 58h-46c-3.3137085 0-6-2.6862915-6-6v-3c0-.5522847.44771525-1 1-1h56c.5522847 0 1 .4477153 1 1v3c0 3.3137085-2.6862915 6-6 6z" fill="#3f5c6c"/><path id="Shape" d="m19 48h20v2c0 1.6568542-1.3431458 3-3 3h-14c-1.6568542 0-3-1.3431458-3-3z" fill="#35495e"/><path id="Shape" d="m5 53c-.55228475 0-1-.4477153-1-1s.44771525-1 1-1 1 .4477153 1 1-.44771525 1-1 1z" fill="#4fba6f"/><path id="Shape" d="m8 53c-.55228475 0-1-.4477153-1-1s.44771525-1 1-1 1 .4477153 1 1-.44771525 1-1 1z" fill="#e64c3c"/><path id="Shape" d="m14 53h-3c-.5522847 0-1-.4477153-1-1s.4477153-1 1-1h3c.5522847 0 1 .4477153 1 1s-.4477153 1-1 1z" fill="#35495e"/><path id="Shape" d="m47 .8c-.5446406-.50506505-1.2572843-.79012252-2-.8h-32c-1.6568542 0-3 1.34314575-3 3v20c0 1.6568542 1.3431458 3 3 3h32c1.6568542 0 3-1.3431458 3-3v-20c-.0101679-.84109716-.3729824-1.63928904-1-2.2z" fill="#f0c419"/><path id="Shape" d="m47 25.2c-.5446406.505065-1.2572843.7901225-2 .8h-32c-.7427157-.0098775-1.4553594-.294935-2-.8l14.56-12.2 1.58 1.32c1.0736885.9082428 2.6463115.9082428 3.72 0l1.58-1.32z" fill="#f29c1f"/><path id="Shape" d="m47 .8-14.56 12.2-1.58 1.32c-1.0736885.9082428-2.6463115.9082428-3.72 0l-1.58-1.32-14.56-12.2c.5446406-.50506505 1.2572843-.79012252 2-.8h32c.7427157.00987748 1.4553594.29493495 2 .8z" fill="#f3d55b"/></g></svg>