<svg height="512" viewBox="0 0 58 58" width="512" xmlns="http://www.w3.org/2000/svg"><g id="006---Reduced" fill="none"><rect id="Rectangle-path" fill="#24ae5f" height="58" rx="8" width="58"/><path id="Shape" d="m47.83 0h-37.66c-3.96 0-7.17 3.58-7.17 8v42c0 4.42 3.21 8 7.17 8h37.66c4 0 7.17-3.58 7.17-8v-42c0-4.42-3.21-8-7.17-8z" fill="#4fba6f"/><path id="Shape" d="m19 26.17v-10.85c2.315973.6759507 3.9317374 2.7683656 4 5.18 0 1.6568542 1.3431458 3 3 3s3-1.3431458 3-3c-.1037383-5.7179873-4.3391899-10.51675392-10-11.33v-1.17c0-1.1045695-.8954305-2-2-2s-2 .8954305-2 2v1.17c-5.66081011.81324608-9.89626168 5.6120127-10 11.33.10373832 5.7179873 4.33918989 10.5167539 10 11.33v10.85c-2.315973-.6759507-3.9317374-2.7683656-4-5.18 0-1.6568542-1.34314577-3-3-3s-2.99999998 1.3431458-3 3c.10373832 5.7179873 4.33918989 10.5167539 10 11.33v1.17c0 1.1045695.8954305 2 2 2s2-.8954305 2-2v-1.17c5.6608101-.8132461 9.8962617-5.6120127 10-11.33-.1037383-5.7179873-4.3391899-10.5167539-10-11.33zm-8-5.67c.0682626-2.4116344 1.684027-4.5040493 4-5.18v10.36c-2.315973-.6759507-3.9317374-2.7683656-4-5.18zm8 22.18v-10.36c2.361905.6100583 4.0120538 2.7405808 4.0120538 5.18s-1.6501488 4.5699417-4.0120538 5.18z" fill="#fff"/><g fill="#e64c3c"><rect id="Rectangle-path" height="6" rx=".5" width="10" x="38" y="8"/><path id="Shape" d="m48 28.5v-10c0-.2761424-.2238576-.5-.5-.5h-9c-.2761424 0-.5.2238576-.5.5v10c0 .2761424-.2238576.5-.5.5h-4.36c-.1994274-.001358-.3805901.1159255-.4609819.2984366-.0803917.182511-.0446365.3953417.0909819.5415634l9.86 10.76c.0962996.1015128.230077.1590014.37.1590014s.2737004-.0574886.37-.1590014l9.86-10.76c.1356184-.1462217.1713736-.3590524.0909819-.5415634-.0803918-.1825111-.2615545-.2997946-.4609819-.2984366h-4.36c-.2761424 0-.5-.2238576-.5-.5z"/></g></g></svg>