<svg height="512" viewBox="0 0 58 58" width="512" xmlns="http://www.w3.org/2000/svg"><g id="090---Marketing" fill="none" transform="translate(0 -1)"><path id="Shape" d="m41.32 8h10.68c2.209139 0 4 1.790861 4 4v40h-54v-40c0-2.209139 1.790861-4 4-4h16.77" fill="#547580"/><path id="Shape" d="m51.2 12c-6.05.2-44.48 2.53-45.2 32.16-.01050749-.0528158-.01050749-.1071842 0-.16v-31c0-.5522847.44771525-1 1-1h44z" fill="#67b9cc"/><path id="Shape" d="m52 13v31c0 .5522847-.4477153 1-1 1h-44c-.2430724-.0003498-.47769576-.0892223-.66-.25-.17111388-.1406225-.29070168-.3340733-.34-.55.72-29.67 39.15-32 45.2-32.2.1692248.0395977.326787.1183788.46.23.2210959.1941467.3454678.4758122.34.77z" fill="#2fa8cc"/><path id="Shape" d="m32.51 26s8.49 2 14.75-3.48c.2312362-.1795461.3721804-.4514042.3856484-.7438517.013468-.2924476-.1018931-.5761092-.3156484-.7761483l-9.17-9.16-1.41-1.41-9.17-9.14c-.1992211-.19987594-.4736211-.30627039-.7555106-.29293778-.2818894.0133326-.5450226.14515093-.7244894.36293778-5.44 6.3-3.49 14.75-3.49 14.75z" fill="#c03a2b"/><path id="Shape" d="m41 14.7c1.894861-1.9618944 1.8677619-5.08042389-.0609071-7.00909288s-5.0471985-1.95576817-7.0090929-.06090712z" fill="#f5efca"/><path id="Shape" d="m31.33 35.21c-.265803.0015368-.5212812-.1028135-.71-.29-.1893127-.1877666-.2957983-.4433625-.2957983-.71s.1064856-.5222334.2957983-.71l1.15-1.15c.1871865-.1887188.2915368-.444197.29-.71-.0011046-.2623399-.1052558-.5137394-.29-.7l-2.12-2.13c-.3877236-.3900375-.3877236-1.0199625 0-1.41.1877666-.1893127.4433625-.2957983.71-.2957983s.5222334.1064856.71.2957983l2.12 2.12c.5591042.5637029.8719547 1.3260512.87 2.12.0019547.7939488-.3108958 1.5562971-.87 2.12l-1.19 1.16c-.1788047.1776499-.4181001.2812255-.67.29z" fill="#802f34"/><path id="Shape" d="m35.8 38.22-2.8 2.78c-.3186129.3169024-.8094865.3823522-1.2.16l-9.24-5.28 1.44-4.88 2.82.64 8.77 5c.272157.154541.4562644.4275873.4974995.7378323.0412351.3102451-.0651585.6219023-.2874995.8421677z" fill="#c03a2b"/><path id="Shape" d="m13.4095674 31.20075h2v8h-2c-1.1045695 0-2-.8954305-2-2v-4c0-1.1045695.8954305-2 2-2z" fill="#f3d55b" transform="matrix(.707 -.707 .707 .707 -20.963 19.792)"/><path id="Shape" d="m32.48 26-9.9 9.89-4.92.74-5.66-5.63.61-4.29c.062669-.4284378.2626878-.8249663.57-1.13l9.43-9.43z" fill="#e64c3c"/><rect id="Rectangle-path" fill="#fb7b76" height="6" rx="1" transform="matrix(.707 -.707 .707 .707 -13.191 23.024)" width="8" x="17.197" y="24.435"/><path id="Shape" d="m52 59h-46c-3.3137085 0-6-2.6862915-6-6v-3c0-.5522847.44771525-1 1-1h56c.5522847 0 1 .4477153 1 1v3c0 3.3137085-2.6862915 6-6 6z" fill="#3f5c6c"/><path id="Shape" d="m19 49h20v2c0 1.6568542-1.3431458 3-3 3h-14c-1.6568542 0-3-1.3431458-3-3z" fill="#35495e"/><path id="Shape" d="m5 54c-.55228475 0-1-.4477153-1-1s.44771525-1 1-1 1 .4477153 1 1-.44771525 1-1 1z" fill="#4fba6f"/><path id="Shape" d="m8 54c-.55228475 0-1-.4477153-1-1s.44771525-1 1-1 1 .4477153 1 1-.44771525 1-1 1z" fill="#e64c3c"/><path id="Shape" d="m14 54h-3c-.5522847 0-1-.4477153-1-1s.4477153-1 1-1h3c.5522847 0 1 .4477153 1 1s-.4477153 1-1 1z" fill="#35495e"/></g></svg>