<svg height="512" viewBox="0 0 58 58" width="512" xmlns="http://www.w3.org/2000/svg"><g id="091---Smartwatch-Transaction" fill="none"><path id="Shape" d="m8 49h20v7c0 1.1045695-.8954305 2-2 2h-16c-1.1045695 0-2-.8954305-2-2z" fill="#547580"/><path id="Shape" d="m10 0h16c1.1045695 0 2 .8954305 2 2v7h-20v-7c0-1.1045695.8954305-2 2-2z" fill="#547580"/><path id="Shape" d="m28.44 7h-20.88c-.91619647-.00043693-1.71553194.62172626-1.94 1.51l-.62 2.49 13 3 13-3-.62-2.49c-.2244681-.88827374-1.0238035-1.51043693-1.94-1.51z" fill="#464f5d"/><path id="Shape" d="m28.44 51h-20.88c-.91619647.0004369-1.71553194-.6217263-1.94-1.51l-.62-2.49 13-3 13 3-.62 2.49c-.2244681.8882737-1.0238035 1.5104369-1.94 1.51z" fill="#464f5d"/><path id="Shape" d="m34.83 12.17c-.4616282-.4561216-1.0231185-.7984938-1.64-1-.3854267-.1181423-.7869106-.1754971-1.19-.17h-28c-2.209139 0-4 1.790861-4 4v28c-.00116412.2890766.02901215.5774277.09.86.4040026 1.8351413 2.03091545 3.1416646 3.91 3.14h28c2.209139 0 4-1.790861 4-4v-28c.0008345-1.0611852-.4200457-2.0792116-1.17-2.83z" fill="#2fa8cc"/><path id="Shape" d="m33.18 11.18c-8.18.82-31.41 5.64-33.09 32.68-.06098785-.2825723-.09116412-.5709234-.09-.86v-28c0-2.209139 1.790861-4 4-4h28c.4002632-.0012242.7983058.0594941 1.18.18z" fill="#67b9cc"/><path id="Shape" d="m28 12h26v31c0 1.6568542-1.3431458 3-3 3h-20c-1.6568542 0-3-1.3431458-3-3z" fill="#f29c1f" transform="matrix(0 -1 1 0 12 70)"/><rect id="Rectangle-path" fill="#f3d55b" height="8" rx="1" transform="matrix(0 -1 1 0 24 74)" width="8" x="45" y="21"/><path id="Shape" d="m30 27.64c1.0988868 1.2508422 2.8576825 1.6901776 4.4156918 1.1030101 1.5580093-.5871674 2.5893706-2.0780301 2.5893706-3.7430101s-1.0313613-3.1558427-2.5893706-3.7430101c-1.5580093-.5871675-3.316805-.1478321-4.4156918 1.1030101z" fill="#e64c3c"/><path id="Shape" d="m24 27.64c1.0988868 1.2508422 2.8576825 1.6901776 4.4156918 1.1030101 1.5580093-.5871674 2.5893706-2.0780301 2.5893706-3.7430101s-1.0313613-3.1558427-2.5893706-3.7430101c-1.5580093-.5871675-3.316805-.1478321-4.4156918 1.1030101z" fill="#4482c3"/><path id="Shape" d="m53 35h-3c-.5522847 0-1-.4477153-1-1s.4477153-1 1-1h3c.5522847 0 1 .4477153 1 1s-.4477153 1-1 1z" fill="#fac176"/><path id="Shape" d="m46 35h-3c-.5522847 0-1-.4477153-1-1s.4477153-1 1-1h3c.5522847 0 1 .4477153 1 1s-.4477153 1-1 1z" fill="#fac176"/><path id="Shape" d="m53 39h-16c-.5522847 0-1-.4477153-1-1s.4477153-1 1-1h16c.5522847 0 1 .4477153 1 1s-.4477153 1-1 1z" fill="#fac176"/><g fill="#b0d3f0"><path id="Shape" d="m8 20h-4c-.55228475 0-1-.4477153-1-1s.44771525-1 1-1h4c.55228475 0 1 .4477153 1 1s-.44771525 1-1 1z"/><path id="Shape" d="m20 20h-8c-.5522847 0-1-.4477153-1-1s.4477153-1 1-1h8c.5522847 0 1 .4477153 1 1s-.4477153 1-1 1z"/><path id="Shape" d="m20 25h-16c-.55228475 0-1-.4477153-1-1s.44771525-1 1-1h16c.5522847 0 1 .4477153 1 1s-.4477153 1-1 1z"/><path id="Shape" d="m11 30h-7c-.55228475 0-1-.4477153-1-1s.44771525-1 1-1h7c.5522847 0 1 .4477153 1 1s-.4477153 1-1 1z"/></g><circle id="Oval" cx="7" cy="38" fill="#65ddb9" r="3"/><circle id="Oval" cx="17" cy="38" fill="#e64c3c" r="3"/><path id="Shape" d="m52 30h-6c-1.1045695 0-2-.8954305-2-2v-6c0-1.1045695.8954305-2 2-2h6c1.1045695 0 2 .8954305 2 2v6c0 1.1045695-.8954305 2-2 2zm-6-8v6h6v-6z" fill="#e4c05c"/><path id="Shape" d="m53 26h-8c-.5522847 0-1-.4477153-1-1s.4477153-1 1-1h8c.5522847 0 1 .4477153 1 1s-.4477153 1-1 1z" fill="#e4c05c"/><path id="Shape" d="m24 44c-.5522847 0-1-.4477153-1-1v-28c0-.5522847.4477153-1 1-1s1 .4477153 1 1v28c0 .5522847-.4477153 1-1 1z" fill="#2980ba"/></g></svg>