<svg height="512" viewBox="0 0 58 58" width="512" xmlns="http://www.w3.org/2000/svg"><g id="010---Chart" fill="none"><rect id="Rectangle-path" fill="#5d4c72" height="58" rx="8" width="58"/><rect id="Rectangle-path" fill="#894b9d" height="58" rx="8" width="58"/><path id="Shape" d="m47.83 0h-37.66c-3.96 0-7.17 3.58-7.17 8v42c0 4.42 3.21 8 7.17 8h37.66c4 0 7.17-3.58 7.17-8v-42c0-4.42-3.21-8-7.17-8z" fill="#955ba5"/><path id="Shape" d="m29 29v-21c-11.5979797 0-21 9.4020203-21 21s9.4020203 21 21 21 21-9.4020203 21-21z" fill="#f29c1f"/><path id="Shape" d="m50 29c.0004563 7.9905951-4.5339487 15.2890625-11.6978497 18.8285728s-15.715791 2.706665-22.0621503-2.1485728l12.76-16.68z" fill="#ff5364"/><path id="Shape" d="m29 8v21l-12.76 16.68c-7.15076677-5.4695788-10.01964362-14.8886293-7.13201755-23.4157257 2.88762605-8.5270964 10.88925365-14.26494632 19.89201755-14.2642743z" fill="#f29c1f"/><path id="Shape" d="m50 29c.0004563 7.9905951-4.5339487 15.2890625-11.6978497 18.8285728s-15.715791 2.706665-22.0621503-2.1485728l12.76-16.68z" fill="#ff5364"/><path id="Shape" d="m54 25h-21v-21c11.5979797 0 21 9.4020203 21 21z" fill="#3b97d3"/><g fill="#b49aca"><path id="Shape" d="m4 19c-.55228475 0-1-.4477153-1-1v-11c0-.55228475.44771525-1 1-1s1 .44771525 1 1v11c0 .5522847-.44771525 1-1 1z"/><path id="Shape" d="m4 28c-.55228475 0-1-.4477153-1-1v-4c0-.5522847.44771525-1 1-1s1 .4477153 1 1v4c0 .5522847-.44771525 1-1 1z"/><path id="Shape" d="m54 51c-.5522847 0-1-.4477153-1-1v-11c0-.5522847.4477153-1 1-1s1 .4477153 1 1v11c0 .5522847-.4477153 1-1 1z"/><path id="Shape" d="m54 35c-.5522847 0-1-.4477153-1-1v-4c0-.5522847.4477153-1 1-1s1 .4477153 1 1v4c0 .5522847-.4477153 1-1 1z"/></g></g></svg>