<svg height="512" viewBox="0 0 58 58" width="512" xmlns="http://www.w3.org/2000/svg"><g id="085---Remove-From-Basket" fill="none" transform="translate(-1 -1)"><path id="Shape" d="m22 28c-.265803.0015368-.5212812-.1028135-.71-.29l-8.29-8.3c-.2853762-.2443899-.4096819-.6281184-.3218101-.993419.0878718-.3653005.3730906-.6505193.7383911-.7383911.3653006-.0878718.7490291.0364339.993419.3218101l8.3 8.3c.1893127.1877666.2957983.4433625.2957983.71s-.1064856.5222334-.2957983.71c-.1903421.1835286-.445623.2842028-.71.28z" fill="#95a5a5"/><path id="Shape" d="m38.5 27.5c-.265803.0015368-.5212812-.1028135-.71-.29-.1893127-.1877666-.2957983-.4433625-.2957983-.71s.1064856-.5222334.2957983-.71l7.3-7.3c.3921222-.3921221 1.0278778-.3921221 1.42 0 .3921221.3921222.3921221 1.0278778 0 1.42l-7.3 7.3c-.1887188.1871865-.444197.2915368-.71.29z" fill="#95a5a5"/><rect id="Rectangle-path" fill="#f3d55b" height="20" rx="2" transform="matrix(.707 -.707 .707 .707 -7.119 10.125)" width="4" x="6.663" y="3.656"/><rect id="Rectangle-path" fill="#f3d55b" height="20" rx="2" transform="matrix(-.707 -.707 .707 -.707 77.996 59.623)" width="4" x="49.346" y="3.658"/><path id="Shape" d="m4 33 6.2 23c.4557202 1.7649988 2.0471177 2.9986403 3.87 3h31.86c1.8228823-.0013597 3.4142798-1.2350012 3.87-3l6.2-23-26-4zm17 18c0 1.6568542-1.3431458 3-3 3s-3-1.3431458-3-3v-10c0-1.6568542 1.3431458-3 3-3s3 1.3431458 3 3zm12 0c0 1.6568542-1.3431458 3-3 3s-3-1.3431458-3-3v-10c0-1.6568542 1.3431458-3 3-3s3 1.3431458 3 3zm12 0c0 1.6568542-1.3431458 3-3 3s-3-1.3431458-3-3v-10c0-1.6568542 1.3431458-3 3-3s3 1.3431458 3 3z" fill="#2980ba"/><rect id="Rectangle-path" fill="#3b97d3" height="8" rx="2" width="58" x="1" y="25"/><path id="Shape" d="m36 14v6c0 .5522847-.4477153 1-1 1h-10c-.5522847 0-1-.4477153-1-1v-6c0-.5522847-.4477153-1-1-1h-2.59c-.4044441-.0016958-.7680455-.2468472-.9212679-.6211476s-.0658935-.8040433.2212679-1.0888524l9.58-10c.1877666-.18931265.4433625-.29579832.71-.29579832s.5222334.10648567.71.29579832l9.58 10c.2871614.2848091.3744903.714552.2212679 1.0888524s-.5168238.6194518-.9212679.6211476h-2.59c-.5522847 0-1 .4477153-1 1z" fill="#4fba6f"/></g></svg>