<svg height="512" viewBox="0 0 58 58" width="512" xmlns="http://www.w3.org/2000/svg"><g id="083---Reward" fill="none" fill-rule="evenodd" transform="translate(0 -1)"><g fill-rule="nonzero"><path id="Shape" d="m50 16.07-13.58-10.07-6.21-4.6c-.7151536-.54339874-1.7048464-.54339874-2.42 0l-6.21 4.6-13.58 10.07-8 5.93v34c0 1.6568542 1.34314575 3 3 3h52c1.6568542 0 3-1.3431458 3-3v-34z" fill="#f0c419"/><path id="Shape" d="m38.27 44 18.73 14.24c-.5506031.4905287-1.2625849.7610818-2 .76h-52c-.73741509.0010818-1.44939694-.2694713-2-.76l18.73-14.24z" fill="#f3d55b"/><path id="Shape" d="m11.09 30.41-11.09-8.41 8-5.93 13.58-10.07 6.21-4.6c.7151536-.54339874 1.7048464-.54339874 2.42 0l6.21 4.6 13.58 10.07 8 5.93-11.09 8.41z" fill="#f29c1f"/><path id="Shape" d="m35 44v9.89c-.0212256.4629462-.3050055.8731019-.7307466 1.0561706-.4257412.1830687-.918646.1068874-1.2692534-.1961706l-3.3-2.43c-.4455378-.330037-1.0544622-.330037-1.5 0l-3.2 2.43c-.3506074.303058-.8435122.3792393-1.2692534.1961706-.4257411-.1830687-.709521-.5932244-.7307466-1.0561706v-9.89z" fill="#c03a2b"/><path id="Shape" d="m47.46 31.32c.5185492.8130964.671982 1.8065203.422907 2.7381751-.2490751.9316548-.8777826 1.7159759-1.732907 2.1618249l-.5.26c-1.1932567.6090355-1.9176338 1.8620121-1.85 3.2v.56c.0493738.9637647-.3119216 1.9033219-.9942998 2.5857002-.6823783.6823782-1.6219355 1.0436736-2.5857002.9942998h-.56c-.4820683-.0270596-.9640309.0549766-1.41.24-.7776057.2929559-1.416577.8676732-1.79 1.61l-.26.5c-.445849.8551244-1.2301701 1.4838319-2.1618249 1.732907-.9316548.249075-1.9250787.0956422-2.7381751-.422907l-.47-.31c-1.128326-.7197471-2.571674-.7197471-3.7 0l-.47.31c-.8130964.5185492-1.8065203.671982-2.7381751.422907-.9316548-.2490751-1.7159759-.8777826-2.1618249-1.732907l-.26-.5c-.3565459-.761221-.9893525-1.3582759-1.77-1.67-.4459691-.1850234-.9279317-.2670596-1.41-.24h-.56c-.9637647.0493738-1.9033219-.3119216-2.5857002-.9942998-.6823782-.6823783-1.0436736-1.6219355-.9942998-2.5857002v-.56c.0676338-1.3379879-.6567433-2.5909645-1.85-3.2l-.5-.26c-.8551244-.445849-1.4838319-1.2301701-1.732907-2.1618249-.24907503-.9316548-.0956422-1.9250787.422907-2.7381751l.31-.47c.0897227-.1411505.1699017-.2881453.24-.44.4743846-1.0576939.3841647-2.2831809-.24-3.26l-.31-.47c-.5185492-.8130964-.67198203-1.8065203-.422907-2.7381751.2490751-.9316548.8777826-1.7159759 1.732907-2.1618249l.5-.26c1.1932567-.6090355 1.9176338-1.8620121 1.85-3.2v-.56c-.0493738-.9637647.3119216-1.9033219.9942998-2.5857002.6823783-.6823782 1.6219355-1.0436736 2.5857002-.9942998h.56c1.3379879.0676338 2.5909645-.6567433 3.2-1.85l.26-.5c.445849-.8551244 1.2301701-1.4838319 2.1618249-1.732907.9316548-.24907503 1.9250787-.09564222 2.7381751.422907l.47.31c1.128326.7197471 2.571674.7197471 3.7 0l.47-.31c.8130964-.51854922 1.8065203-.67198203 2.7381751-.422907.9316548.2490751 1.7159759.8777826 2.1618249 1.732907l.26.5c.6090355 1.1932567 1.8620121 1.9176338 3.2 1.85h.56c.9637647-.0493738 1.9033219.3119216 2.5857002.9942998.6823782.6823783 1.0436736 1.6219355.9942998 2.5857002v.56c-.0676338 1.3379879.6567433 2.5909645 1.85 3.2l.5.26c.8551244.445849 1.4838319 1.2301701 1.732907 2.1618249.249075.9316548.0956422 1.9250787-.422907 2.7381751l-.31.47c-.6241647.9768191-.7143846 2.2023061-.24 3.26.0700983.1518547.1502773.2988495.24.44z" fill="#e64c3c"/><circle id="Oval" cx="29" cy="29" fill="#fb7b76" r="14"/></g><path id="Shape" d="m29.89 21.76 1.69 3.32c.1428743.2864681.4142607.4872197.73.54l3.69.57c.3735096.05763.6826214.3209061.7989557.6804849s.0200147.7540239-.2489557 1.0195151l-2.64 2.62c-.228148.2278916-.3323998.5518171-.28.87l.59 3.67c.0621794.3742048-.0927245.7513746-.3999644.9738587s-.7139126.2519732-1.0500356.0761413l-3.31-1.7c-.2906844-.1400175-.6293156-.1400175-.92 0l-3.31 1.7c-.336123.1758319-.7427957.1463428-1.0500356-.0761413s-.4621438-.5996539-.3999644-.9738587l.59-3.67c.0523998-.3181829-.051852-.6421084-.28-.87l-2.64-2.62c-.2689704-.2654912-.36529-.6599363-.2489557-1.0195151s.4254461-.6228549.7989557-.6804849l3.69-.57c.3157393-.0527803.5871257-.2535319.73-.54l1.69-3.32c.171096-.3339662.5147571-.5440395.89-.5440395s.718904.2100733.89.5440395z" fill="#f9eab0"/><path id="Shape" d="m29 44c-8.2842712 0-15-6.7157288-15-15s6.7157288-15 15-15 15 6.7157288 15 15c0 3.9782473-1.5803526 7.793556-4.3933983 10.6066017s-6.6283544 4.3933983-10.6066017 4.3933983zm0-28c-7.1797017 0-13 5.8202983-13 13s5.8202983 13 13 13 13-5.8202983 13-13c0-3.4478144-1.3696389-6.7544152-3.8076118-9.1923882-2.437973-2.4379729-5.7445738-3.8076118-9.1923882-3.8076118z" fill="#fff" fill-rule="nonzero"/></g></svg>