<svg id="Capa_1" enable-background="new 0 0 58 58" height="512" viewBox="0 0 58 58" width="512" xmlns="http://www.w3.org/2000/svg"><path d="m54.5 30.2c-.4-.7-.4-1.5 0-2.2l3.2-5c.3-.5.4-1.1.3-1.6s-.5-1-1-1.3l-5.3-2.8c-.7-.4-1.2-1.1-1.1-1.9l.3-5.9c0-.6-.2-1.1-.6-1.6-.4-.4-1-.6-1.6-.6l-5.9.3c-.8 0-1.6-.4-1.9-1.1l-2.9-5.4c-.3-.5-.7-.9-1.3-1-.6-.2-1.2-.1-1.6.3l-5 3.2c-.3.2-.7.3-1.1.3s-.7-.1-1.1-.3l-5-3.2c-.5-.3-1.1-.4-1.6-.3s-1 .5-1.3 1l-2.8 5.3c-.4.7-1.1 1.2-1.9 1.1l-5.9-.3c-.6 0-1.1.2-1.6.6-.4.4-.6 1-.6 1.6l.3 5.9c.1.8-.4 1.6-1.1 2l-5.3 2.7c-.5.3-.9.7-1 1.3s-.1 1.1.2 1.6l3.2 5c.4.7.4 1.5 0 2.2l-3.2 5c-.3.5-.4 1.1-.3 1.6s.5 1 1 1.3l5.3 2.7c.7.4 1.2 1.1 1.1 1.9l-.3 5.9c0 .6.2 1.1.6 1.6.4.4 1 .6 1.6.6l5.9-.3c.8-.1 1.6.4 2 1.1l2.7 5.3c.3.5.7.9 1.3 1s1.1.1 1.6-.2l5-3.2c.3-.2.7-.3 1.1-.3s.8.1 1.1.3l5 3.2c.5.3 1.1.4 1.6.3.6-.2 1-.5 1.3-1l2.7-5.3c.4-.7 1.1-1.2 1.9-1.1l5.9.3c.6 0 1.1-.2 1.6-.6.4-.4.6-1 .6-1.6l-.3-5.9c0-.8.4-1.6 1.1-1.9l5.3-2.7c.5-.3.9-.7 1-1.3s.1-1.2-.3-1.6z" fill="#e64c3c"/><circle id="Oval" cx="29" cy="29" fill="#fb7b76" r="21"/><g fill="#fff"><path d="m45.5 43c-.2 0-.4-.1-.6-.2-.2-.2-.3-.4-.4-.7s0-.5.2-.7c2.8-3.5 4.3-7.9 4.3-12.4 0-7.2-3.9-13.9-10.2-17.4s-14-3.4-20.2.3c-.5.2-1 0-1.3-.4s-.1-1 .3-1.3c6.9-4.1 15.3-4.2 22.2-.3s11.2 11.2 11.2 19.1c0 4.9-1.6 9.7-4.7 13.6-.2.3-.5.4-.8.4z"/><path d="m29 51c-8.9 0-17-5.4-20.4-13.7s-1.4-17.8 5-24c.2-.2.4-.3.7-.3s.5.1.7.3c.4.4.4 1 0 1.4-7.5 7.3-8 19.2-1.3 27.2s18.5 9.4 27 3.3c.3-.2.7-.3 1-.1s.6.5.6.8c0 .4-.1.7-.4.9-3.7 2.7-8.3 4.2-12.9 4.2z"/><path d="m15.5 30c-2.5 0-4.5-1.5-4.5-3.5s2-3.5 4.5-3.5 4.5 1.5 4.5 3.5c0 .6-.4 1-1 1s-1-.4-1-1c0-.7-1-1.5-2.5-1.5s-2.5.8-2.5 1.5 1 1.5 2.5 1.5c.6 0 1 .4 1 1s-.4 1-1 1z"/><path d="m15.5 35c-2.5 0-4.5-1.5-4.5-3.5 0-.6.4-1 1-1s1 .4 1 1c0 .7 1 1.5 2.5 1.5s2.5-.8 2.5-1.5-1-1.5-2.5-1.5c-.6 0-1-.4-1-1s.4-1 1-1c2.5 0 4.5 1.5 4.5 3.5s-2 3.5-4.5 3.5z"/><path d="m30 35c-.4 0-.8-.2-.9-.6l-3.1-7.7-3.1 7.7c-.1.3-.4.6-.8.6-.4.1-.7-.1-.9-.4s-.3-.7-.1-1l4-10c.2-.4.5-.6.9-.6s.8.3.9.6l4 10c.1.2.1.5 0 .8-.1.2-.3.4-.5.5-.1.1-.3.1-.4.1z"/><path d="m28.8 32h-5.6c-.6 0-1-.4-1-1s.4-1 1-1h5.6c.6 0 1 .4 1 1s-.4 1-1 1z"/><path d="m38 35h-5c-.6 0-1-.4-1-1v-10c0-.6.4-1 1-1s1 .4 1 1v9h4c.6 0 1 .4 1 1s-.4 1-1 1z"/><path d="m46 35h-5c-.6 0-1-.4-1-1v-10c0-.6.4-1 1-1h5c.6 0 1 .4 1 1s-.4 1-1 1h-4v8h4c.6 0 1 .4 1 1s-.4 1-1 1z"/><path d="m45 30h-4c-.6 0-1-.4-1-1s.4-1 1-1h4c.6 0 1 .4 1 1s-.4 1-1 1z"/></g></svg>