<svg height="512" viewBox="0 0 60 59" width="512" xmlns="http://www.w3.org/2000/svg"><g id="030---Shopping-Sale" fill="none"><path id="Shape" d="m40 12h2.54c.2923118-.0000192.5699973.1278622.76.35l5.7 6.65h-38l5.7-6.65c.1900027-.2221378.4676882-.3500192.76-.35z" fill="#802f34"/><path id="Shape" d="m49 19s-4.68 22.54 4.06 37.51c.1730625.3078262.1709358.6841081-.0055953.9899584-.176531.3058504-.5012891.4959155-.8544047.5000416h-44.4c-.35311556-.0041261-.67787369-.1941912-.85440474-.5000416-.17653105-.3058503-.1786578-.6821322-.00559526-.9899584 8.74-14.97 4.06-37.51 4.06-37.51z" fill="#c03a2b"/><path id="Shape" d="m47.2 19s-4.2 22.54 3.68 37.51c.1680055.2956898.1742179.6564958.0164913.9577941-.1577266.3012982-.457769.501783-.7964913.5322059h-40.2c-.33872225-.0304229-.63876466-.2309077-.79649126-.5322059-.1577266-.3012983-.15151426-.6621043.01649126-.9577941 7.88-14.97 3.68-37.51 3.68-37.51z" fill="#e64c3c"/><circle id="Oval" cx="23" cy="25" fill="#802f34" r="2"/><circle id="Oval" cx="36" cy="25" fill="#802f34" r="2"/><path id="Shape" d="m30 34h-1c-3.8659932 0-7-3.1340068-7-7 0-.5522847.4477153-1 1-1s1 .4477153 1 1c0 2.7614237 2.2385763 5 5 5h1c2.7614237 0 5-2.2385763 5-5 0-.5522847.4477153-1 1-1s1 .4477153 1 1c0 3.8659932-3.1340068 7-7 7z" fill="#fff"/><g fill="#f9eab0"><path id="Shape" d="m24 53c-.2243737.0015399-.4427458-.0724249-.62-.21-.2104929-.1637561-.3468544-.404808-.3787773-.66958-.0319229-.2647721.0432379-.5313267.2087773-.74042l11-14c.3424165-.436305.973695-.5124165 1.41-.17s.5124165.973695.17 1.41l-11 14c-.1908221.241492-.4822197.381658-.79.38z"/><circle id="Oval" cx="34" cy="50" r="2"/><circle id="Oval" cx="26" cy="40" r="2"/></g><path id="Shape" d="m59 59h-58c-.55228475 0-1-.4477153-1-1s.44771525-1 1-1h58c.5522847 0 1 .4477153 1 1s-.4477153 1-1 1z" fill="#f29c1f"/><path id="Shape" d="m26 3v16h-6v-16c0-1.65685425 1.3431458-3 3-3s3 1.34314575 3 3z" fill="#e4c05c"/><path id="Shape" d="m21.71 5.71-1.71 1.71v-2.84l.29-.29c.3921222-.39212217 1.0278778-.39212217 1.42 0s.3921222 1.02787783 0 1.42z" fill="#b19046"/><path id="Shape" d="m21.71 10.71-1.71 1.71v-2.84l.29-.29c.2536586-.25365857.623374-.35272352.969878-.25987804.3465041.09284548.6171546.36349595.71.71.0928455.34650404-.0062194.71621944-.259878.96987804z" fill="#b19046"/><path id="Shape" d="m21.71 15.71-1.71 1.71v-2.84l.29-.29c.3921222-.3921222 1.0278778-.3921222 1.42 0s.3921222 1.0278778 0 1.42z" fill="#b19046"/><path id="Shape" d="m40 12v7h-10v-7c.0000596-1.6217039.78663-3.14265517 2.11-4.08.5470746-.37736931.8784799-.99549602.89-1.66v-4.26h4v4.26c.0115201.66450398.3429254 1.28263069.89 1.66 1.32337.93734483 2.1099404 2.4582961 2.11 4.08z" fill="#24ae5f"/><path id="Shape" d="m38 12v7h-6v-7c-.0506667-1.4629828.3932246-2.90034493 1.26-4.08.3659241-.4745676.5566816-1.06097031.54-1.66v-4.26h2.4v4.26c-.0166816.59902969.1740759 1.1854324.54 1.66.8667754 1.17965507 1.3106667 2.6170172 1.26 4.08z" fill="#4fba6f"/><path id="Shape" d="m38 2v1.5c0 .27614237-.2238576.5-.5.5h-5c-.2761424 0-.5-.22385763-.5-.5v-1.5c0-1.1045695.8954305-2 2-2h2c1.1045695 0 2 .8954305 2 2z" fill="#bdc3c7"/></g></svg>