<svg height="512" viewBox="0 0 36 58" width="512" xmlns="http://www.w3.org/2000/svg"><g id="055---Mobile-Sales" fill="none" transform="translate(-1)"><path id="Shape" d="m36 27.21v27.79c0 1.6568542-1.3431458 3-3 3h-28c-1.65685425 0-3-1.3431458-3-3v-27.79z" fill="#464f5d"/><path id="Shape" d="m34 .17c-.3206504-.11538333-.6592342-.17294256-1-.17h-28c-1.65685425 0-3 1.34314575-3 3v47c-.00987973.1197966-.00987973.2402034 0 .36.18307021 1.5148952 1.47412298 2.6510216 3 2.64h28c1.6568542 0 3-1.3431458 3-3v-47c.0006668-1.27192619-.8008163-2.40602472-2-2.83z" fill="#67b9cc"/><path id="Shape" d="m36 3v47c0 1.6568542-1.3431458 3-3 3h-28c-1.52587702.0110216-2.81692979-1.1251048-3-2.64 1-42.77 24.81-49.21 32-50.19 1.1991837.42397528 2.0006668 1.55807381 2 2.83z" fill="#2fa8cc"/><path id="Shape" d="m27.24 35 3 9.27c.2850646.804923-.0018713 1.7011404-.7014219 2.1908259-.6995506.4896854-1.639847.4525306-2.2985781-.0908259-.4947203-.3863463-1.1476898-.5049529-1.7466779-.31727-.5989882.187683-1.0675239.6576946-1.2533221 1.25727-.2514303.7875679-.9832712 1.3221592-1.81 1.3221592s-1.5585697-.5345913-1.81-1.3221592l-1.62-5.21-1-7.1z" fill="#802f34"/><path id="Shape" d="m25 3.8c.4253907-.1618068.8083905-.41827989 1.12-.75l2.88-3.05h-20l2.86 3.05c.3173421.33425211.7074325.59089056 1.14.75z" fill="#464f5d"/><path id="Shape" d="m20.41 37.65-1.41 4.45-1.67 5.25c-.2514303.7875679-.9832712 1.3221592-1.81 1.3221592s-1.5585697-.5345913-1.81-1.3221592c-.191295-.582506-.6505974-1.0377699-1.2347701-1.2239131-.5841727-.1861431-1.2221937-.0805349-1.7152299.2839131-.6616292.4968411-1.56871841.5083868-2.2427792.028547-.67406078-.4798399-.96009534-1.340728-.7072208-2.128547l3-9.27 11.19-2.04z" fill="#c03a2b"/><path id="Shape" d="m21 3.86c.7150183-.73367333 1.7707178-1.02363564 2.760177-.75812039.9894591.26551524 1.7581668 1.04504591 2.009823 2.03812039.1938981.73466463.6750753 1.36049906 1.3352475 1.73666557.6601723.3761665 1.4438781.47106316 2.1747525.26333443.9878146-.27628156 2.0478489.00155857 2.7731452.72685481.7252962.72529624 1.0031364 1.78533055.7268548 2.77314519-.2077287.7308744-.1128321 1.5145802.2633344 2.1747525.3761665.6601722 1.002001 1.1413494 1.7366656 1.3352475 1.0406034.2111433 1.8754572.9870149 2.1621435 2.0093886.2866862 1.0223738-.02304 2.1191997-.8021435 2.8406114-.5512036.5314965-.8625782 1.2642886-.8625782 2.03s.3113746 1.4985035.8625782 2.03c.7336733.7150183 1.0236356 1.7707178.7581204 2.760177-.2655153.9894591-1.0450459 1.7581668-2.0381204 2.009823-.7346646.1938981-1.3604991.6750753-1.7366656 1.3352475-.3761665.6601723-.4710631 1.4438781-.2633344 2.1747525.2762816.9878146-.0015586 2.0478489-.7268548 2.7731452-.7252963.7252962-1.7853306 1.0031364-2.7731452.7268548-.7308744-.2077287-1.5145802-.1128321-2.1747525.2633344-.6601722.3761665-1.1413494 1.002001-1.3352475 1.7366656-.2280976 1.0306515-1.0108486 1.8486912-2.0304471 2.1219857-1.0195985.2732944-2.1065552-.0435866-2.8195529-.8219857-.5314965-.5512036-1.2642886-.8625782-2.03-.8625782s-1.4985035.3113746-2.03.8625782c-.7150183.7336733-1.7707178 1.0236356-2.760177.7581204-.9894591-.2655153-1.7581668-1.0450459-2.009823-2.0381204-.1938981-.7346646-.6750753-1.3604991-1.3352475-1.7366656-.6601723-.3761665-1.4438781-.4710631-2.1747525-.2633344-.98781464.2762816-2.04784895-.0015586-2.77314519-.7268548-.72529624-.7252963-1.00313637-1.7853306-.72685481-2.7731452.20772873-.7308744.11283207-1.5145802-.26333443-2.1747525-.37616651-.6601722-1.00200094-1.1413494-1.73666557-1.3352475-1.03065146-.2280976-1.84869124-1.0108486-2.12198568-2.0304471s.04358658-2.1065552.82198568-2.8195529c.55120361-.5314965.86257823-1.2642886.86257823-2.03s-.31137462-1.4985035-.86257823-2.03c-.73367333-.7150183-1.02363564-1.7707178-.75812039-2.760177.26551524-.9894591 1.04504591-1.7581668 2.03812039-2.009823.73466463-.1938981 1.36049906-.6750753 1.73666557-1.3352475.3761665-.6601723.47106316-1.4438781.26333443-2.1747525-.27628156-.98781464.00155857-2.04784895.72685481-2.77314519s1.78533055-1.00313637 2.77314519-.72685481c.7308744.20772873 1.5145802.11283207 2.1747525-.26333443.6601722-.37616651 1.1413494-1.00200094 1.3352475-1.73666557.2280976-1.03065146 1.0108486-1.84869124 2.0304471-2.12198568s2.1065552.04358658 2.8195529.82198568c.5293295.53250745 1.2491645.83193561 2 .83193561s1.4706705-.29942816 2-.83193561z" fill="#e64c3c"/><circle id="Oval" cx="19" cy="21" fill="#fb7b76" r="12"/><g fill="#fff"><circle id="Oval" cx="15.5" cy="16.5" r="1.5"/><circle id="Oval" cx="22.5" cy="24.5" r="1.5"/><path id="Shape" d="m14 27c-.265803.0015368-.5212812-.1028135-.71-.29-.1893127-.1877666-.2957983-.4433625-.2957983-.71s.1064856-.5222334.2957983-.71l10-10c.3921222-.3921221 1.0278778-.3921221 1.42 0 .3921221.3921222.3921221 1.0278778 0 1.42l-10 10c-.1887188.1871865-.444197.2915368-.71.29z"/><path id="Shape" d="m19 34c-7.1797017 0-13-5.8202983-13-13s5.8202983-13 13-13 13 5.8202983 13 13-5.8202983 13-13 13zm0-24c-6.0751322 0-11 4.9248678-11 11s4.9248678 11 11 11 11-4.9248678 11-11c0-2.9173814-1.1589252-5.7152744-3.2218254-7.7781746s-4.8607932-3.2218254-7.7781746-3.2218254z"/></g></g></svg>