<svg height="512" viewBox="0 0 58 59" width="512" xmlns="http://www.w3.org/2000/svg"><g id="019---Sale-Calendar" fill="none"><path id="Shape" d="m36 55c-6-3-5-10-5-10l-5-3-6 3s1 7-5 10l10 2z" fill="#95a5a5"/><path id="Shape" d="m50 33v5h-50s0-23 26-31z" fill="#2980ba"/><path id="Shape" d="m50 38v3c0 2.209139-1.790861 4-4 4h-42c-2.209139 0-4-1.790861-4-4v-3z" fill="#bdc3c7"/><path id="Shape" d="m26.13 6c-.0892662.32573836-.1330147.66226511-.13 1v2c-26 8-26 29-26 29v-28c0-2.209139 1.790861-4 4-4z" fill="#3b97d3"/><rect id="Rectangle-path" fill="#bdc3c7" height="4" rx="2" width="28" x="11" y="55"/><path id="Shape" d="m4 31c-.26580298.0015368-.52128117-.1028135-.71-.29-.18931265-.1877666-.29579832-.4433625-.29579832-.71s.10648567-.5222334.29579832-.71l7.5-7.5c.1877666-.1893127.4433625-.2957983.71-.2957983s.5222334.1064856.71.2957983l4.29 4.3 8.79-8.8c.3921222-.3921221 1.0278778-.3921221 1.42 0 .3921221.3921222.3921221 1.0278778 0 1.42l-9.5 9.5c-.1877666.1893127-.4433625.2957983-.71.2957983s-.5222334-.1064856-.71-.2957983l-4.29-4.3-6.79 6.8c-.18871883.1871865-.44419702.2915368-.71.29z" fill="#e64c3c"/><path id="Shape" d="m23 35h-19c-.55228475 0-1-.4477153-1-1s.44771525-1 1-1h19c.5522847 0 1 .4477153 1 1s-.4477153 1-1 1z" fill="#b0d3f0"/><path id="Shape" d="m7 19c-.39250783-.0004965-.74843039-.2305711-.91003926-.5882654-.16160888-.3576943-.09901643-.776857.16003926-1.0717346l7-8c.3708372-.38608401.9799503-.41164637 1.3818318-.05799067.4018815.35365569.4539702.96107567.1181682 1.37799067l-7 8c-.18956984.2157843-.46277285.3396363-.75.34z" fill="#f3d55b"/><path id="Shape" d="m7 11c-.55228475 0-1-.4477153-1-1 0-.55228475.44771525-1 1-1s1 .44771525 1 1c0 .5522847-.44771525 1-1 1z" fill="#f3d55b"/><path id="Shape" d="m14 19c-.5522847 0-1-.4477153-1-1s.4477153-1 1-1 1 .4477153 1 1-.4477153 1-1 1z" fill="#f3d55b"/><path id="Shape" d="m58 8v21c0 2.209139-1.790861 4-4 4h-24c-2.209139 0-4-1.790861-4-4v-21z" fill="#f5efca"/><path id="Shape" d="m58 7v3h-32.0001458l.0001458-3c-.0030147-.33773489.0407338-.67426164.13-1 .4557202-1.76499878 2.0471177-2.9986403 3.87-3h24c2.209139 0 4 1.790861 4 4z" fill="#e64c3c"/><g fill="#bdc3c7"><path id="Shape" d="m32 6c-.5522847 0-1-.44771525-1-1v-4c0-.55228475.4477153-1 1-1s1 .44771525 1 1v4c0 .55228475-.4477153 1-1 1z"/><path id="Shape" d="m37 6c-.5522847 0-1-.44771525-1-1v-4c0-.55228475.4477153-1 1-1s1 .44771525 1 1v4c0 .55228475-.4477153 1-1 1z"/><path id="Shape" d="m42 6c-.5522847 0-1-.44771525-1-1v-4c0-.55228475.4477153-1 1-1s1 .44771525 1 1v4c0 .55228475-.4477153 1-1 1z"/><path id="Shape" d="m47 6c-.5522847 0-1-.44771525-1-1v-4c0-.55228475.4477153-1 1-1s1 .44771525 1 1v4c0 .55228475-.4477153 1-1 1z"/><path id="Shape" d="m52 6c-.5522847 0-1-.44771525-1-1v-4c0-.55228475.4477153-1 1-1s1 .44771525 1 1v4c0 .55228475-.4477153 1-1 1z"/><rect id="Rectangle-path" height="5" rx="1" width="5" x="30" y="14"/><rect id="Rectangle-path" height="5" rx="1" width="5" x="30" y="23"/><rect id="Rectangle-path" height="5" rx="1" width="6" x="39" y="14"/><rect id="Rectangle-path" height="5" rx="1" width="6" x="39" y="23"/><rect id="Rectangle-path" height="5" rx="1" width="5" x="49" y="14"/><rect id="Rectangle-path" height="5" rx="1" width="5" x="49" y="23"/></g></g></svg>