<svg height="512" viewBox="0 0 56 58" width="512" xmlns="http://www.w3.org/2000/svg"><g id="035---Search-Store" fill="none"><path id="Shape" d="m52 47c0 2.7614237-2.2385763 5-5 5h-38c-2.76142375 0-5-2.2385763-5-5z" fill="#5d4c72"/><path id="Rectangle-path" d="m4 13h48v34h-48z" fill="#7d6599"/><path id="Shape" d="m15 0-7 17h-8l9.42-16c.35510459-.61508907 1.0097779-.99571308 1.72-1z" fill="#e64c3c"/><path id="Shape" d="m20 0-1.71 7.28c-3.1278201 2.39140139-5.2640687 5.8521241-6 9.72h-4.29l7-17z" fill="#ecf0f1"/><path id="Shape" d="m31.25 4.33c-2.1443316-.43996633-4.3556684-.43996633-6.5 0l.25-4.33h6z" fill="#ecf0f1"/><path id="Shape" d="m37.71 7.28c-1.9033833-1.45779801-4.1117961-2.46628372-6.46-2.95l-.25-4.33h5z" fill="#e64c3c"/><path id="Shape" d="m48 17h-4.28c-.7359313-3.8678759-2.8721799-7.32859861-6-9.72l-1.72-7.28h5z" fill="#ecf0f1"/><path id="Shape" d="m56 17h-8l-7-17h5.73c.775221.0001499 1.4805311.44827506 1.81 1.15z" fill="#e64c3c"/><path id="Shape" d="m25 0-.25 4.33c-2.3482039.48371628-4.5566167 1.49220199-6.46 2.95l1.71-7.28z" fill="#e64c3c"/><path id="Shape" d="m8 17v2c.00301472.3377349-.04073375.6742616-.13 1-.50820066 1.944535-2.38040574 3.210017-4.3742215 2.9566732-1.99381577-.2533438-3.49003955-1.9468345-3.4957785-3.9566732v-2z" fill="#c03a2b"/><path id="Shape" d="m12 20c.0009667 1.0064786.0946965 2.0107261.28 3h-.28c-1.8228823-.0013597-3.41427982-1.2350012-3.87-3-.08926625-.3257384-.13301472-.6622651-.13-1v-2h4.28c-.1846888.9893598-.2784132 1.9935506-.28 3z" fill="#bdc3c7"/><path id="Shape" d="m48 17v2c.0030147.3377349-.0407338.6742616-.13 1-.4557202 1.7649988-2.0471177 2.9986403-3.87 3h-.28c.3745424-1.9824647.3745424-4.0175353 0-6z" fill="#bdc3c7"/><path id="Shape" d="m56 17v2c-.0057389 2.0098387-1.5019627 3.7033294-3.4957785 3.9566732s-3.8660208-1.0121382-4.3742215-2.9566732c-.0892662-.3257384-.1330147-.6622651-.13-1v-2z" fill="#c03a2b"/><path id="Rectangle-path" d="m26 33.88h4v8.12h-4z" fill="#bdc3c7"/><path id="Shape" d="m26 40h4c1.1045695 0 2 .8954305 2 2v13c0 1.6568542-1.3431458 3-3 3h-2c-1.6568542 0-3-1.3431458-3-3v-13c0-1.1045695.8954305-2 2-2z" fill="#2980ba"/><path id="Shape" d="m44 20c-.0009667 1.0064786-.0946965 2.0107261-.28 3-1.4318627 7.5528057-8.032666 13.0197987-15.72 13.0197987s-14.2881373-5.466993-15.72-13.0197987c-.3745424-1.9824647-.3745424-4.0175353 0-6 1.4318627-7.55280568 8.032666-13.01979866 15.72-13.01979866s14.2881373 5.46699298 15.72 13.01979866c.1846888.9893598.2784132 1.9935506.28 3z" fill="#3b97d3"/><path id="Shape" d="m35.29 10.47c-5.68 2-14 6.43-17.38 16-.8395178-1.2880278-1.417174-2.7287703-1.7-4.24-.1375667-.7354149-.2078571-1.4818322-.21-2.23.0008781-.7614758.0711689-1.5212864.21-2.27.9154334-4.7550435 4.5991016-8.49392725 9.34-9.48.8056093-.16921671 1.6268162-.25301333 2.45-.25 2.6328002-.01294833 5.1946864.85274399 7.28 2.46z" fill="#b0d3f0"/><path id="Shape" d="m40 20c-.0013742.7581403-.0716634 1.5145863-.21 2.26-.7909394 4.1126234-3.6687618 7.5153764-7.5930291 8.9780393s-8.3271977.7736105-11.6169709-1.8180393c-1.0530267-.814606-1.9564691-1.8060241-2.67-2.93 3.36-9.59 11.7-14 17.38-16 .8018444.6036995 1.5212801 1.3096878 2.14 2.1 1.1958534 1.5092717 2.0058892 3.2872316 2.36 5.18.1384575.7352896.2087557 1.481789.21 2.23z" fill="#90bae1"/><path id="Shape" d="m28 33c-6.2423402-.0004174-11.6031626-4.4376838-12.77-10.57-.1503778-.8013239-.2273633-1.6146924-.23-2.43.0026382-.821931.0796185-1.6419387.23-2.45.5978768-3.1391228 2.336146-5.9460001 4.88-7.88 1.5411379-1.18855403 3.3333751-2.00942603 5.24-2.4 1.7414702-.36117836 3.5385298-.36117836 5.28 0 5.1501465 1.06335865 9.1523781 5.1247949 10.14 10.29.3066095 1.6122185.3066095 3.2677815 0 4.88-1.1710545 6.1283406-6.5307751 10.560498-12.77 10.56zm0-24c-.7525686-.00016035-1.503167.07691002-2.24.23-1.6133921.31860381-3.1322862 1.0027903-4.44 2-2.1488073 1.6349102-3.6164237 4.0073193-4.12 6.66-.1323334.6955556-.199292 1.4019681-.2 2.11.0041638.6908436.0677313 1.3800495.19 2.06.989776 5.1864039 5.5249961 8.9379682 10.805 8.9379682s9.815224-3.7515643 10.805-8.9379682c.2601057-1.3677437.2601057-2.7722563 0-4.14-.8345642-4.3717484-4.221295-7.8097933-8.58-8.71-.7314949-.14143771-1.4749589-.21176539-2.22-.21z" fill="#f3d55b"/><g fill="#ecf0f1"><path id="Shape" d="m32.85 14.64c-.2175176-.0028757-.4281651-.0766023-.6-.21-.8406962-.6329218-1.8102394-1.0733129-2.84-1.29-.9399483-.1954391-1.9100517-.1954391-2.85 0-.2599175.0530985-.5302825.0007425-.751589-.1455449-.2213065-.1462873-.3754164-.3745164-.428411-.6344551-.1110699-.5380725.2327584-1.0649782.77-1.18 1.2077147-.2448515 2.4522853-.2448515 3.66 0 1.3260173.271815 2.5736448.8392292 3.65 1.66.4385634.3344252.5235694.9607853.19 1.4-.1888544.2518058-.4852427.4-.8.4z"/><path id="Shape" d="m20.14 22.51c-.4890037.0079763-.9120327-.3389075-1-.82-.10011-.5576248-.1469875-1.1235032-.14-1.69-.0003768-.5770663.0531895-1.1529046.16-1.72.2939126-1.5903715 1.0165769-3.0702773 2.09-4.28.3708372-.386084.9799503-.4116464 1.3818318-.0579907s.4539702.9610757.1181682 1.3779907c-1.1391799 1.2916092-1.7622362 2.9578399-1.75 4.68.0007022.4426914.0408611.8844392.12 1.32.0496801.2613069-.0067906.5316395-.1569222.751207-.1501317.2195675-.3815524.3702762-.6430778.418793z"/></g></g></svg>