<svg id="Capa_1" enable-background="new 0 0 58 58" height="512" viewBox="0 0 58 58" width="512" xmlns="http://www.w3.org/2000/svg"><g transform="translate(-1)"><path id="Shape" d="m54 28.87v21.16l-4 7.97h-9-22-9l-4-7.97v-21.16l24-23.87z" fill="#f0c419"/><path d="m52 30v20.03l-3.67 7.97h-8.25-20.16-8.25l-3.67-7.97v-20.03l22-18z" fill="#f3d55b"/><path d="m32.49.94 25 21c.533.405.95.943 1.21 1.56.555 1.371.309 2.936-.64 4.07-1.42 1.688-3.939 1.907-5.63.49l-22.43-18.84-22.43 18.84c-1.407 1.168-3.428 1.233-4.907.157s-2.041-3.018-1.363-4.717c.237-.608.626-1.145 1.13-1.56l25-21c.22-.189 1.241-1.021 2.739-.94 1.24.067 2.063.718 2.321.94z" fill="#cb8252"/><path d="m10 54.5v-2.81c-.053-2.378 1.708-4.407 4.07-4.69 1.266-.122 2.524.298 3.464 1.156s1.472 2.072 1.466 3.344v5.5c0 .552-.448 1-1 1h-16c-.552 0-1-.448-1-1v-2.31c-.053-2.378 1.708-4.407 4.07-4.69 1.266-.122 2.524.298 3.464 1.156s1.472 2.072 1.466 3.344z" fill="#24ae5f"/><path d="m50 54.5v-3c.018-1.907-1.193-3.61-3-4.22-1.378-.482-2.905-.268-4.097.576s-1.901 2.214-1.903 3.674v5.47c0 .552.448 1 1 1h16c.552 0 1-.448 1-1v-2.31c.053-2.378-1.708-4.407-4.07-4.69-1.266-.122-2.524.298-3.464 1.156-.939.857-1.472 2.072-1.466 3.344z" fill="#24ae5f"/><path id="Rectangle-path" d="m16 27h28c1.657 0 3 1.343 3 3v10c0 1.657-1.343 3-3 3h-28c-1.657 0-3-1.343-3-3v-10c0-1.657 1.343-3 3-3z" fill="#e64c3c"/><g fill="#fff"><path d="m18.5 36c-1.789.121-3.346-1.213-3.5-3 .154-1.787 1.711-3.121 3.5-3 1.789-.121 3.346 1.213 3.5 3 0 .552-.448 1-1 1s-1-.448-1-1c0-.53-.7-1-1.5-1s-1.5.47-1.5 1 .7 1 1.5 1c.552 0 1 .448 1 1s-.448 1-1 1z"/><path d="m18.5 40c-1.789.121-3.346-1.213-3.5-3 0-.552.448-1 1-1s1 .448 1 1c0 .53.7 1 1.5 1s1.5-.47 1.5-1-.7-1-1.5-1c-.552 0-1-.448-1-1s.448-1 1-1c1.789-.121 3.346 1.213 3.5 3-.154 1.787-1.711 3.121-3.5 3z"/><path d="m36 40h-4c-.552 0-1-.448-1-1v-8c0-.552.448-1 1-1s1 .448 1 1v7h3c.552 0 1 .448 1 1s-.448 1-1 1z"/><path d="m41 40h-2c-.552 0-1-.448-1-1v-8c0-.552.448-1 1-1h2c2.209 0 4 1.791 4 4v2c0 2.209-1.791 4-4 4zm-1-2h1c1.105 0 2-.895 2-2v-2c0-1.105-.895-2-2-2h-1z"/><path d="m27 40h-1c-1.657 0-3-1.343-3-3v-4c0-1.657 1.343-3 3-3h1c1.657 0 3 1.343 3 3v4c0 1.657-1.343 3-3 3zm-1-8c-.552 0-1 .448-1 1v4c0 .552.448 1 1 1h1c.552 0 1-.448 1-1v-4c0-.552-.448-1-1-1z"/></g></g></svg>