<?xml version="1.0" encoding="iso-8859-1"?>
<!-- Generator: Adobe Illustrator 19.0.0, SVG Export Plug-In . SVG Version: 6.00 Build 0)  -->
<svg xmlns="http://www.w3.org/2000/svg" xmlns:xlink="http://www.w3.org/1999/xlink" version="1.1" id="Layer_1" x="0px" y="0px" viewBox="0 0 512 512" style="enable-background:new 0 0 512 512;" xml:space="preserve">
<g>
	<path style="fill:#B17208;" d="M449.63,344.276c17.24-31.444,27.057-67.54,27.057-105.931c0-121.882-98.807-220.69-220.69-220.69   s-220.69,98.807-220.69,220.69c0,38.391,9.825,74.487,27.065,105.931H449.63z"/>
	<path style="fill:#F3A240;" d="M385.896,344.276c23.614-28.901,37.826-65.783,37.826-105.931   c0-92.487-75.238-167.724-167.724-167.724c-92.478,0-167.724,75.238-167.724,167.724c0,40.148,14.221,77.03,37.826,105.931H385.896   z"/>
	<path style="fill:#B17208;" d="M256,291.31c-24.338,0-44.138-19.8-44.138-44.138c0-4.873,3.946-8.828,8.828-8.828   s8.828,3.955,8.828,8.828c0,14.601,11.882,26.483,26.483,26.483s26.483-11.882,26.483-26.483S270.601,220.69,256,220.69   c-4.882,0-8.828-3.955-8.828-8.828c0-4.873,3.946-8.828,8.828-8.828c14.601,0,26.483-11.882,26.483-26.483   c0-14.601-11.882-26.483-26.483-26.483s-26.483,11.882-26.483,26.483c0,4.873-3.946,8.828-8.828,8.828s-8.828-3.955-8.828-8.828   c0-24.338,19.8-44.138,44.138-44.138s44.138,19.8,44.138,44.138c0,14.424-6.956,27.251-17.682,35.31   c10.726,8.06,17.682,20.886,17.682,35.31C300.138,271.51,280.338,291.31,256,291.31"/>
	<polygon style="fill:#FFE69F;" points="61.793,450.207 450.207,450.207 450.207,344.276 61.793,344.276  "/>
	<g>
		<polygon style="fill:#F0C419;" points="61.793,450.207 61.793,388.414 0,388.414 35.31,441.379 0,494.345 79.448,494.345     79.448,450.207   "/>
		<polygon style="fill:#F0C419;" points="512,388.414 450.207,388.414 450.207,450.207 432.552,450.207 432.552,494.345     512,494.345 476.69,441.379   "/>
		<path style="fill:#F0C419;" d="M185.379,388.414h-35.31c-4.882,0-8.828-3.955-8.828-8.828s3.946-8.828,8.828-8.828h35.31    c4.882,0,8.828,3.955,8.828,8.828S190.261,388.414,185.379,388.414"/>
		<path style="fill:#F0C419;" d="M273.655,388.414H220.69c-4.882,0-8.828-3.955-8.828-8.828s3.946-8.828,8.828-8.828h52.966    c4.882,0,8.828,3.955,8.828,8.828S278.537,388.414,273.655,388.414"/>
		<path style="fill:#F0C419;" d="M229.517,423.724h-79.448c-4.882,0-8.828-3.955-8.828-8.828s3.946-8.828,8.828-8.828h79.448    c4.882,0,8.828,3.955,8.828,8.828S234.399,423.724,229.517,423.724"/>
		<path style="fill:#F0C419;" d="M361.931,423.724h-17.655c-4.882,0-8.828-3.955-8.828-8.828s3.946-8.828,8.828-8.828h17.655    c4.882,0,8.828,3.955,8.828,8.828S366.813,423.724,361.931,423.724"/>
		<path style="fill:#F0C419;" d="M308.966,423.724h-44.138c-4.882,0-8.828-3.955-8.828-8.828s3.946-8.828,8.828-8.828h44.138    c4.882,0,8.828,3.955,8.828,8.828S313.847,423.724,308.966,423.724"/>
		<path style="fill:#F0C419;" d="M361.931,388.414h-44.138c-4.882,0-8.828-3.955-8.828-8.828s3.946-8.828,8.828-8.828h44.138    c4.882,0,8.828,3.955,8.828,8.828S366.813,388.414,361.931,388.414"/>
	</g>
</g>
<g>
</g>
<g>
</g>
<g>
</g>
<g>
</g>
<g>
</g>
<g>
</g>
<g>
</g>
<g>
</g>
<g>
</g>
<g>
</g>
<g>
</g>
<g>
</g>
<g>
</g>
<g>
</g>
<g>
</g>
</svg>
