<?xml version="1.0" encoding="iso-8859-1"?>
<!-- Generator: Adobe Illustrator 19.0.0, SVG Export Plug-In . SVG Version: 6.00 Build 0)  -->
<svg xmlns="http://www.w3.org/2000/svg" xmlns:xlink="http://www.w3.org/1999/xlink" version="1.1" id="Layer_1" x="0px" y="0px" viewBox="0 0 512 512" style="enable-background:new 0 0 512 512;" xml:space="preserve">
<g>
	<path style="fill:#F0C419;" d="M397.241,256c0,78.001-63.241,141.241-141.241,141.241S114.759,334.001,114.759,256   S177.999,114.759,256,114.759S397.241,177.999,397.241,256"/>
	<path style="fill:#FFE69F;" d="M167.724,264.828c-4.873,0-8.828-3.955-8.828-8.828c0-53.539,43.564-97.103,97.103-97.103   c4.873,0,8.828,3.955,8.828,8.828s-3.955,8.828-8.828,8.828c-43.802,0-79.448,35.646-79.448,79.448   C176.552,260.873,172.597,264.828,167.724,264.828"/>
	<g>
		<polygon style="fill:#C03A2B;" points="97.103,308.966 70.621,308.966 70.621,229.517 0,229.517 35.31,282.483 0,335.448     97.103,335.448   "/>
		<polygon style="fill:#C03A2B;" points="414.897,308.966 441.379,308.966 441.379,229.517 512,229.517 476.69,282.483 512,335.448     414.897,335.448   "/>
	</g>
	<g>
		<path style="fill:#E64C3C;" d="M114.759,256c0-18.75,3.734-36.599,10.364-52.966H70.621v105.931h54.502    C118.493,292.599,114.759,274.75,114.759,256"/>
		<path style="fill:#E64C3C;" d="M386.88,203.034c6.63,16.366,10.364,34.216,10.364,52.966s-3.734,36.599-10.364,52.966h54.502    V203.034H386.88z"/>
	</g>
</g>
<g>
</g>
<g>
</g>
<g>
</g>
<g>
</g>
<g>
</g>
<g>
</g>
<g>
</g>
<g>
</g>
<g>
</g>
<g>
</g>
<g>
</g>
<g>
</g>
<g>
</g>
<g>
</g>
<g>
</g>
</svg>
