<?xml version="1.0" encoding="iso-8859-1"?>
<!-- Generator: Adobe Illustrator 19.0.0, SVG Export Plug-In . SVG Version: 6.00 Build 0)  -->
<svg xmlns="http://www.w3.org/2000/svg" xmlns:xlink="http://www.w3.org/1999/xlink" version="1.1" id="Layer_1" x="0px" y="0px" viewBox="0 0 512 512" style="enable-background:new 0 0 512 512;" xml:space="preserve">
<g>
	<path style="fill:#BDC3C7;" d="M256,273.655c-4.873,0-8.828-3.946-8.828-8.828v-35.31c0-4.882,3.955-8.828,8.828-8.828   s8.828,3.946,8.828,8.828v35.31C264.828,269.709,260.873,273.655,256,273.655"/>
	<path style="fill:#ECF0F1;" d="M379.586,388.414C379.586,456.669,324.255,512,256,512s-123.586-55.331-123.586-123.586   S187.745,264.828,256,264.828S379.586,320.159,379.586,388.414"/>
	<polygon style="fill:#26B99A;" points="370.759,158.897 273.655,229.517 238.345,229.517 141.241,158.897 141.241,0 370.759,0  "/>
	<polygon style="fill:#198E72;" points="300.138,0 211.862,0 211.862,210.255 238.345,229.517 273.655,229.517 300.138,210.255  "/>
	<g>
		<path style="fill:#BDC3C7;" d="M271.138,310.268c-0.503,0-1.006-0.044-1.518-0.132c-4.484-0.777-9.066-1.165-13.621-1.165    c-4.873,0-8.925-3.955-8.925-8.828c0-4.882,3.858-8.828,8.739-8.828h0.185c5.57,0,11.167,0.477,16.64,1.43    c4.802,0.83,8.024,5.403,7.186,10.205C279.082,307.24,275.357,310.268,271.138,310.268L271.138,310.268z M211.754,320.878    c-3.037,0-5.994-1.571-7.636-4.387c-2.454-4.202-1.024-9.613,3.187-12.067c4.89-2.842,10.046-5.279,15.316-7.212    c4.564-1.651,9.649,0.689,11.326,5.261c1.677,4.582-0.68,9.649-5.261,11.326c-4.29,1.571-8.501,3.558-12.5,5.879    C214.791,320.49,213.264,320.878,211.754,320.878L211.754,320.878z M312.539,329.512c-1.995,0-4.008-0.671-5.659-2.066    c-3.54-2.966-7.362-5.623-11.352-7.927c-4.22-2.436-5.676-7.83-3.24-12.05c2.428-4.22,7.83-5.676,12.05-3.249    c4.873,2.807,9.543,6.073,13.877,9.693c3.734,3.134,4.228,8.686,1.103,12.429C317.571,328.435,315.064,329.512,312.539,329.512    L312.539,329.512z M179.498,353.223c-1.501,0-3.019-0.38-4.414-1.192c-4.22-2.436-5.658-7.83-3.222-12.059    c2.825-4.873,6.082-9.534,9.702-13.85c3.116-3.734,8.695-4.246,12.429-1.095c3.743,3.125,4.228,8.695,1.103,12.438    c-2.966,3.531-5.641,7.353-7.954,11.352C185.51,351.642,182.544,353.223,179.498,353.223L179.498,353.223z M338.872,366.808    c-3.593,0-6.974-2.207-8.289-5.773c-1.589-4.317-3.566-8.527-5.897-12.509c-2.454-4.22-1.033-9.622,3.178-12.076    c4.22-2.445,9.622-1.024,12.076,3.178c2.842,4.873,5.27,10.019,7.212,15.307c1.686,4.573-0.653,9.64-5.226,11.335    C340.92,366.641,339.887,366.808,338.872,366.808L338.872,366.808z M167.722,397.281c-4.873,0-8.828-3.893-8.828-8.775v-0.088    c0-5.623,0.486-11.255,1.439-16.746c0.839-4.793,5.42-7.989,10.214-7.177c4.802,0.83,8.024,5.411,7.186,10.214    c-0.786,4.493-1.183,9.101-1.183,13.709C176.55,393.291,172.595,397.281,167.722,397.281L167.722,397.281z M343.003,412.279    c-0.503,0-1.006-0.044-1.518-0.132c-4.802-0.83-8.024-5.394-7.194-10.196c0.768-4.44,1.156-8.995,1.156-13.533    c0-4.882,3.946-8.969,8.828-8.969c4.873,0,8.828,3.814,8.828,8.686h-8.828l8.828,0.053c0,5.764-0.477,11.335-1.412,16.764    C350.948,409.251,347.214,412.279,343.003,412.279L343.003,412.279z M179.595,441.41c-3.037,0-6.003-1.571-7.645-4.396    c-2.825-4.873-5.244-10.019-7.177-15.307c-1.677-4.582,0.671-9.649,5.252-11.317c4.582-1.713,9.649,0.671,11.326,5.252    c1.58,4.317,3.558,8.527,5.879,12.509c2.436,4.22,1.006,9.622-3.213,12.076C182.623,441.031,181.105,441.41,179.595,441.41    L179.595,441.41z M323.794,453.716c-1.995,0-4.008-0.671-5.658-2.048c-3.743-3.134-4.237-8.704-1.112-12.447    c2.948-3.522,5.605-7.345,7.91-11.352c2.436-4.228,7.83-5.667,12.05-3.257c4.228,2.436,5.694,7.83,3.266,12.05    c-2.816,4.899-6.065,9.569-9.675,13.895C328.826,452.639,326.319,453.716,323.794,453.716L323.794,453.716z M211.896,473.693    c-1.501,0-3.019-0.38-4.414-1.192c-4.882-2.816-9.543-6.1-13.859-9.728c-3.725-3.134-4.202-8.704-1.068-12.429    c3.143-3.743,8.713-4.202,12.438-1.068c3.522,2.966,7.336,5.641,11.326,7.945c4.22,2.445,5.667,7.839,3.222,12.067    C217.907,472.113,214.941,473.693,211.896,473.693L211.896,473.693z M286.524,480.075c-3.593,0-6.965-2.207-8.289-5.773    c-1.686-4.573,0.653-9.649,5.235-11.335c4.29-1.58,8.492-3.566,12.491-5.906c4.211-2.454,9.613-1.042,12.076,3.16    c2.454,4.211,1.042,9.613-3.169,12.076c-4.882,2.86-10.028,5.297-15.298,7.239C288.572,479.907,287.53,480.075,286.524,480.075    L286.524,480.075z M256.166,485.513c-5.923,0-11.538-0.494-17.02-1.465c-4.793-0.847-8.007-5.429-7.159-10.231    c0.856-4.802,5.411-8.007,10.24-7.15c4.502,0.794,9.137,1.201,13.771,1.201c4.873,0,9.013,3.946,9.013,8.819    c0,4.873-3.761,8.828-8.633,8.828v-8.828l-0.062,8.828H256.166z"/>
		<path style="fill:#BDC3C7;" d="M220.69,441.379c-4.873,0-8.828-3.946-8.828-8.828v-88.276c0-4.882,3.955-8.828,8.828-8.828    c4.873,0,8.828,3.946,8.828,8.828v88.276C229.517,437.433,225.562,441.379,220.69,441.379"/>
		<path style="fill:#BDC3C7;" d="M256,441.379c-4.873,0-8.828-3.946-8.828-8.828v-88.276c0-4.882,3.955-8.828,8.828-8.828    s8.828,3.946,8.828,8.828v88.276C264.828,437.433,260.873,441.379,256,441.379"/>
		<path style="fill:#BDC3C7;" d="M291.31,441.379c-4.873,0-8.828-3.946-8.828-8.828v-88.276c0-4.882,3.955-8.828,8.828-8.828    c4.873,0,8.828,3.946,8.828,8.828v88.276C300.138,437.433,296.183,441.379,291.31,441.379"/>
	</g>
</g>
<g>
</g>
<g>
</g>
<g>
</g>
<g>
</g>
<g>
</g>
<g>
</g>
<g>
</g>
<g>
</g>
<g>
</g>
<g>
</g>
<g>
</g>
<g>
</g>
<g>
</g>
<g>
</g>
<g>
</g>
</svg>
