<?xml version="1.0" encoding="iso-8859-1"?>
<!-- Generator: Adobe Illustrator 19.0.0, SVG Export Plug-In . SVG Version: 6.00 Build 0)  -->
<svg xmlns="http://www.w3.org/2000/svg" xmlns:xlink="http://www.w3.org/1999/xlink" version="1.1" id="Layer_1" x="0px" y="0px" viewBox="0 0 512.004 512.004" style="enable-background:new 0 0 512.004 512.004;" xml:space="preserve">
<g transform="translate(0 -1)">
	<path style="fill:#ECF0F1;" d="M370.759,398.246c0,63.382-51.377,114.759-114.759,114.759s-114.759-51.377-114.759-114.759   S192.618,283.487,256,283.487S370.759,334.864,370.759,398.246"/>
	<path style="fill:#805333;" d="M335.449,398.246c0,24.382-35.566,44.138-79.448,44.138s-79.448-19.756-79.448-44.138   s35.566-44.138,79.448-44.138S335.449,373.864,335.449,398.246"/>
	<g>
		<path style="fill:#ECF0F1;" d="M291.311,407.073H220.69c-4.882,0-8.828-3.946-8.828-8.828c0-4.882,3.946-8.828,8.828-8.828h70.621    c4.882,0,8.828,3.946,8.828,8.828C300.138,403.127,296.192,407.073,291.311,407.073"/>
		<path style="fill:#ECF0F1;" d="M256,415.901c-4.882,0-8.828-3.946-8.828-8.828v-17.655c0-4.882,3.946-8.828,8.828-8.828    s8.828,3.946,8.828,8.828v17.655C264.828,411.955,260.882,415.901,256,415.901"/>
	</g>
	<path style="fill:#BC392F;" d="M211.863,248.177h88.276l89.238-127.1c10.055-14.177,10.505-32.989,1.148-47.625L344.276,1.004   L211.863,248.177z"/>
	<path style="fill:#E64C3C;" d="M256.277,165.228L167.727,1L121.4,73.651c-9.251,14.521-8.801,33.165,1.156,47.228l89.309,127.294   L256.277,165.228z"/>
	<polygon style="fill:#932924;" points="167.725,1.004 205.807,71.625 306.441,71.625 344.276,1.004  "/>
	<path style="fill:#BDC3C7;" d="M256,283.487c6.02,0,11.891,0.459,17.655,1.351v-36.661h-35.31v36.661   C244.11,283.946,249.98,283.487,256,283.487"/>
	<g>
		<path style="fill:#603C24;" d="M291.311,398.246c0,12.826,7.159,24.338,18.511,32.397c15.722-8.06,25.626-19.571,25.626-32.397    s-9.905-24.338-25.626-32.397C298.47,373.908,291.311,385.419,291.311,398.246"/>
		<path style="fill:#603C24;" d="M176.552,398.246c0,12.826,9.905,24.338,25.626,32.397c11.352-8.06,18.511-19.571,18.511-32.397    s-7.159-24.338-18.511-32.397C186.457,373.908,176.552,385.419,176.552,398.246"/>
	</g>
</g>
<g>
</g>
<g>
</g>
<g>
</g>
<g>
</g>
<g>
</g>
<g>
</g>
<g>
</g>
<g>
</g>
<g>
</g>
<g>
</g>
<g>
</g>
<g>
</g>
<g>
</g>
<g>
</g>
<g>
</g>
</svg>
