<?xml version="1.0" encoding="iso-8859-1"?>
<!-- Generator: Adobe Illustrator 19.0.0, SVG Export Plug-In . SVG Version: 6.00 Build 0)  -->
<svg xmlns="http://www.w3.org/2000/svg" xmlns:xlink="http://www.w3.org/1999/xlink" version="1.1" id="Layer_1" x="0px" y="0px" viewBox="0 0 512 512" style="enable-background:new 0 0 512 512;" xml:space="preserve">
<g>
	<path style="fill:#F0C419;" d="M414.897,203.034c0-87.755-71.142-158.897-158.897-158.897S97.103,115.279,97.103,203.034   S168.245,361.931,256,361.931S414.897,290.79,414.897,203.034"/>
	<path style="fill:#FFE69F;" d="M150.069,211.862c-4.873,0-8.828-3.955-8.828-8.828c0-63.276,51.482-114.759,114.759-114.759   c4.873,0,8.828,3.955,8.828,8.828s-3.955,8.828-8.828,8.828c-53.539,0-97.103,43.564-97.103,97.103   C158.897,207.907,154.942,211.862,150.069,211.862"/>
	<g>
		<path style="fill:#3F97FF;" d="M256,44.138c36.608,0,70.232,12.509,97.103,33.315V0H158.897v77.453    C185.768,56.647,219.392,44.138,256,44.138"/>
		<path style="fill:#3F97FF;" d="M256,361.931c-36.608,0-70.232-12.509-97.103-33.315V512L256,414.897L353.103,512V328.616    C326.232,349.422,292.608,361.931,256,361.931"/>
	</g>
</g>
<g>
</g>
<g>
</g>
<g>
</g>
<g>
</g>
<g>
</g>
<g>
</g>
<g>
</g>
<g>
</g>
<g>
</g>
<g>
</g>
<g>
</g>
<g>
</g>
<g>
</g>
<g>
</g>
<g>
</g>
</svg>
