<?xml version="1.0" encoding="iso-8859-1"?>
<!-- Generator: Adobe Illustrator 19.0.0, SVG Export Plug-In . SVG Version: 6.00 Build 0)  -->
<svg xmlns="http://www.w3.org/2000/svg" xmlns:xlink="http://www.w3.org/1999/xlink" version="1.1" id="Layer_1" x="0px" y="0px" viewBox="0 0 512.004 512.004" style="enable-background:new 0 0 512.004 512.004;" xml:space="preserve">
<g transform="translate(0 -1)">
	<path style="fill:#F0C419;" d="M370.762,398.246c0,63.382-51.377,114.759-114.759,114.759s-114.759-51.377-114.759-114.759   s51.377-114.759,114.759-114.759S370.762,334.864,370.762,398.246"/>
	<g>
		<path style="fill:#FFE69F;" d="M228.697,332.453c-3.593,0-6.974-2.207-8.28-5.782c-1.686-4.573,0.662-9.649,5.235-11.326    c6.418-2.366,13.135-3.972,19.942-4.776c4.802-0.6,9.225,2.895,9.799,7.733c0.565,4.846-2.895,9.234-7.742,9.807    c-5.429,0.636-10.787,1.924-15.907,3.796C230.736,332.276,229.712,332.453,228.697,332.453 M299.485,340.61    c-1.66,0-3.337-0.468-4.829-1.448c-4.59-3.01-9.525-5.473-14.654-7.336c-4.59-1.677-6.956-6.735-5.288-11.317    c1.66-4.59,6.744-6.903,11.308-5.288c6.418,2.339,12.579,5.42,18.308,9.181c4.078,2.675,5.217,8.139,2.542,12.217    C305.188,339.206,302.363,340.61,299.485,340.61 M187.145,367.463c-1.501,0-3.019-0.38-4.414-1.183    c-4.22-2.445-5.658-7.848-3.222-12.058c3.434-5.941,7.548-11.467,12.226-16.437c3.346-3.54,8.925-3.708,12.482-0.362    c3.54,3.346,3.708,8.934,0.362,12.491c-3.743,3.964-7.036,8.386-9.781,13.135C193.166,365.883,190.191,367.463,187.145,367.463     M332.05,384.085c-3.787,0-7.292-2.463-8.439-6.276c-1.58-5.217-3.778-10.266-6.541-15.007c-2.463-4.211-1.033-9.613,3.178-12.076    c4.22-2.436,9.613-1.024,12.067,3.187c3.46,5.923,6.215,12.244,8.192,18.794c1.412,4.661-1.227,9.587-5.888,10.999    C333.763,383.962,332.906,384.085,332.05,384.085 M177.753,420.941c-4.202,0-7.927-3.001-8.686-7.283    c-0.892-5.049-1.342-10.24-1.342-15.422c0-1.677,0.053-3.354,0.141-5.023c0.282-4.873,4.476-8.642,9.322-8.316    c4.864,0.283,8.589,4.449,8.307,9.313c-0.071,1.342-0.115,2.692-0.115,4.034c0,4.158,0.362,8.298,1.077,12.332    c0.847,4.802-2.357,9.384-7.159,10.231C178.786,420.905,178.265,420.941,177.753,420.941 M329.049,438.296    c-1.165,0-2.339-0.221-3.478-0.715c-4.484-1.924-6.559-7.106-4.634-11.591c2.154-5.032,3.725-10.311,4.661-15.704    c0.821-4.811,5.376-8.033,10.196-7.194c4.802,0.83,8.033,5.394,7.194,10.196c-1.165,6.753-3.125,13.374-5.826,19.668    C335.731,436.301,332.465,438.296,329.049,438.296 M204.977,467.939c-2.004,0-4.017-0.68-5.667-2.074    c-5.226-4.379-9.958-9.384-14.054-14.866c-2.913-3.911-2.119-9.437,1.783-12.359c3.902-2.931,9.437-2.119,12.359,1.783    c3.284,4.396,7.071,8.413,11.264,11.926c3.734,3.134,4.22,8.695,1.086,12.429C210,466.871,207.502,467.939,204.977,467.939     M291.92,477.923c-3.222,0-6.321-1.766-7.874-4.82c-2.207-4.361-0.477-9.666,3.866-11.873c4.864-2.472,9.454-5.517,13.647-9.066    c3.725-3.134,9.295-2.684,12.438,1.033c3.151,3.725,2.684,9.287-1.033,12.447c-5.235,4.423-10.973,8.236-17.055,11.326    C294.63,477.614,293.262,477.923,291.92,477.923 M256.318,486.521H256c-6.886,0-13.727-0.794-20.339-2.366    c-4.749-1.121-7.68-5.879-6.559-10.637c1.13-4.74,5.897-7.689,10.628-6.541c5.288,1.254,10.761,1.889,16.269,1.889    c4.882,0,8.986,3.946,8.986,8.828C264.987,482.575,261.191,486.521,256.318,486.521"/>
		<path style="fill:#FFE69F;" d="M238.348,442.384c-4.873,0-8.828-3.946-8.828-8.828v-70.621c0-4.882,3.955-8.828,8.828-8.828    c4.873,0,8.828,3.946,8.828,8.828v70.621C247.176,438.438,243.221,442.384,238.348,442.384"/>
		<path style="fill:#FFE69F;" d="M273.658,442.384c-4.873,0-8.828-3.946-8.828-8.828v-70.621c0-4.882,3.955-8.828,8.828-8.828    c4.873,0,8.828,3.946,8.828,8.828v70.621C282.486,438.438,278.531,442.384,273.658,442.384"/>
	</g>
	<path style="fill:#BC392F;" d="M211.865,248.177h88.276l89.238-127.1c10.055-14.177,10.505-32.989,1.148-47.625L344.279,1.004   L211.865,248.177z"/>
	<path style="fill:#E64C3C;" d="M256.279,165.228L167.729,1l-46.327,72.651c-9.26,14.521-8.801,33.165,1.148,47.228l89.318,127.294   L256.279,165.228z"/>
	<polygon style="fill:#932924;" points="167.727,1.004 205.809,71.625 306.444,71.625 344.279,1.004  "/>
	<path style="fill:#BDC3C7;" d="M256.003,283.487c6.02,0,11.891,0.459,17.655,1.351v-36.661h-35.31v36.661   C244.112,283.946,249.983,283.487,256.003,283.487"/>
</g>
<g>
</g>
<g>
</g>
<g>
</g>
<g>
</g>
<g>
</g>
<g>
</g>
<g>
</g>
<g>
</g>
<g>
</g>
<g>
</g>
<g>
</g>
<g>
</g>
<g>
</g>
<g>
</g>
<g>
</g>
</svg>
