<?xml version="1.0" encoding="iso-8859-1"?>
<!-- Generator: Adobe Illustrator 19.0.0, SVG Export Plug-In . SVG Version: 6.00 Build 0)  -->
<svg xmlns="http://www.w3.org/2000/svg" xmlns:xlink="http://www.w3.org/1999/xlink" version="1.1" id="Layer_1" x="0px" y="0px" viewBox="0 0 512.004 512.004" style="enable-background:new 0 0 512.004 512.004;" xml:space="preserve">
<g transform="translate(0 -1)">
	<path style="fill:#F0C419;" d="M370.76,398.246c0,63.382-51.377,114.759-114.759,114.759s-114.759-51.377-114.759-114.759   s51.377-114.759,114.759-114.759S370.76,334.864,370.76,398.246"/>
	<g>
		<path style="fill:#FFE69F;" d="M291.311,424.729h-70.621c-4.882,0-8.828-3.946-8.828-8.828c0-4.882,3.946-8.828,8.828-8.828    h70.621c4.882,0,8.828,3.946,8.828,8.828C300.139,420.783,296.193,424.729,291.311,424.729"/>
		<path style="fill:#FFE69F;" d="M273.656,389.418h-35.31c-4.882,0-8.828-3.946-8.828-8.828c0-4.882,3.946-8.828,8.828-8.828h35.31    c4.882,0,8.828,3.946,8.828,8.828C282.484,385.472,278.538,389.418,273.656,389.418"/>
		<path style="fill:#FFE69F;" d="M264.828,318.798c0,4.882-3.946,8.828-8.828,8.828c-4.882,0-8.828-3.946-8.828-8.828    s3.946-8.828,8.828-8.828C260.883,309.97,264.828,313.916,264.828,318.798"/>
		<path style="fill:#FFE69F;" d="M264.828,477.694c0,4.882-3.946,8.828-8.828,8.828c-4.882,0-8.828-3.946-8.828-8.828    c0-4.882,3.946-8.828,8.828-8.828C260.883,468.866,264.828,472.812,264.828,477.694"/>
		<path style="fill:#FFE69F;" d="M335.449,407.073c-4.882,0-8.828-3.946-8.828-8.828c0-4.882,3.946-8.828,8.828-8.828    s8.828,3.946,8.828,8.828C344.277,403.127,340.331,407.073,335.449,407.073"/>
		<path style="fill:#FFE69F;" d="M176.553,407.073c-4.882,0-8.828-3.946-8.828-8.828c0-4.882,3.946-8.828,8.828-8.828    s8.828,3.946,8.828,8.828C185.38,403.127,181.434,407.073,176.553,407.073"/>
		<path style="fill:#FFE69F;" d="M318.423,348.306c-3.452,3.452-9.031,3.452-12.482,0c-3.452-3.452-3.452-9.031,0-12.482    c3.452-3.452,9.031-3.452,12.482,0C321.875,339.276,321.875,344.855,318.423,348.306"/>
		<path style="fill:#FFE69F;" d="M206.061,460.668c-3.452,3.452-9.031,3.452-12.482,0c-3.452-3.452-3.452-9.031,0-12.482    c3.452-3.452,9.031-3.452,12.482,0C209.513,451.638,209.513,457.217,206.061,460.668"/>
		<path style="fill:#FFE69F;" d="M305.94,460.668c-3.452-3.452-3.452-9.031,0-12.482c3.452-3.452,9.031-3.452,12.482,0    c3.452,3.452,3.452,9.031,0,12.482C314.971,464.12,309.392,464.12,305.94,460.668"/>
		<path style="fill:#FFE69F;" d="M193.578,348.306c-3.452-3.452-3.452-9.031,0-12.482c3.452-3.452,9.031-3.452,12.482,0    c3.452,3.452,3.452,9.031,0,12.482S197.03,351.758,193.578,348.306"/>
	</g>
	<path style="fill:#BC392F;" d="M211.863,248.177h88.276l89.238-127.1c10.055-14.177,10.505-32.989,1.148-47.625L344.277,1.004   L211.863,248.177z"/>
	<path style="fill:#E64C3C;" d="M256.276,165.228L167.727,1L121.4,73.651c-9.251,14.521-8.801,33.165,1.156,47.228l89.309,127.294   L256.276,165.228z"/>
	<polygon style="fill:#932924;" points="167.725,1.004 205.807,71.625 306.442,71.625 344.277,1.004  "/>
	<path style="fill:#BDC3C7;" d="M256.001,283.487c6.02,0,11.891,0.459,17.655,1.351v-36.661h-35.31v36.661   C244.11,283.946,249.98,283.487,256.001,283.487"/>
</g>
<g>
</g>
<g>
</g>
<g>
</g>
<g>
</g>
<g>
</g>
<g>
</g>
<g>
</g>
<g>
</g>
<g>
</g>
<g>
</g>
<g>
</g>
<g>
</g>
<g>
</g>
<g>
</g>
<g>
</g>
</svg>
