<?xml version="1.0" encoding="iso-8859-1"?>
<!-- Generator: Adobe Illustrator 19.0.0, SVG Export Plug-In . SVG Version: 6.00 Build 0)  -->
<svg xmlns="http://www.w3.org/2000/svg" xmlns:xlink="http://www.w3.org/1999/xlink" version="1.1" id="Layer_1" x="0px" y="0px" viewBox="0 0 512.004 512.004" style="enable-background:new 0 0 512.004 512.004;" xml:space="preserve">
<g transform="translate(0 -1)">
	<path style="fill:#F0C419;" d="M370.759,398.246c0,63.382-51.377,114.759-114.759,114.759s-114.759-51.377-114.759-114.759   S192.618,283.487,256,283.487S370.759,334.864,370.759,398.246"/>
	<path style="fill:#ECF0F1;" d="M256,283.487c6.02,0,11.891,0.459,17.655,1.351v-36.661h-35.31v36.661   C244.11,283.946,249.98,283.487,256,283.487"/>
	<g>
		<polygon style="fill:#FFE69F;" points="211.863,354.108 225.501,383.168 256,389.418 233.932,410.446 238.345,442.384     211.863,427.306 185.38,442.384 189.794,410.446 167.725,389.418 198.224,383.168   "/>
		<polygon style="fill:#FFE69F;" points="300.138,354.108 313.777,383.168 344.276,389.418 322.207,410.446 326.621,442.384     300.138,427.306 273.656,442.384 278.069,410.446 256,389.418 286.5,383.168   "/>
	</g>
	<path style="fill:#BC392F;" d="M211.863,248.177h88.276l89.238-127.1c10.055-14.177,10.505-32.989,1.148-47.625L344.276,1.004   L211.863,248.177z"/>
	<path style="fill:#E64C3C;" d="M256.277,165.228L167.727,1L121.4,73.651c-9.251,14.521-8.801,33.165,1.156,47.228l89.309,127.294   L256.277,165.228z"/>
	<polygon style="fill:#932924;" points="167.725,1.004 205.807,71.625 306.441,71.625 344.276,1.004  "/>
</g>
<g>
</g>
<g>
</g>
<g>
</g>
<g>
</g>
<g>
</g>
<g>
</g>
<g>
</g>
<g>
</g>
<g>
</g>
<g>
</g>
<g>
</g>
<g>
</g>
<g>
</g>
<g>
</g>
<g>
</g>
</svg>
