<?xml version="1.0" encoding="iso-8859-1"?>
<!-- Generator: Adobe Illustrator 19.0.0, SVG Export Plug-In . SVG Version: 6.00 Build 0)  -->
<svg xmlns="http://www.w3.org/2000/svg" xmlns:xlink="http://www.w3.org/1999/xlink" version="1.1" id="Layer_1" x="0px" y="0px" viewBox="0 0 512 512" style="enable-background:new 0 0 512 512;" xml:space="preserve">
<g>
	<polygon style="fill:#26B99A;" points="61.793,450.207 450.207,450.207 450.207,344.276 61.793,344.276  "/>
	<g>
		<polygon style="fill:#198E72;" points="61.793,450.207 61.793,388.414 0,388.414 35.31,441.379 0,494.345 79.448,494.345     79.448,450.207   "/>
		<polygon style="fill:#198E72;" points="512,388.414 450.207,388.414 450.207,450.207 432.552,450.207 432.552,494.345     512,494.345 476.69,441.379   "/>
		<path style="fill:#198E72;" d="M185.379,388.414h-35.31c-4.882,0-8.828-3.955-8.828-8.828s3.946-8.828,8.828-8.828h35.31    c4.882,0,8.828,3.955,8.828,8.828S190.261,388.414,185.379,388.414"/>
		<path style="fill:#198E72;" d="M273.655,388.414H220.69c-4.882,0-8.828-3.955-8.828-8.828s3.946-8.828,8.828-8.828h52.966    c4.882,0,8.828,3.955,8.828,8.828S278.537,388.414,273.655,388.414"/>
		<path style="fill:#198E72;" d="M229.517,423.724h-79.448c-4.882,0-8.828-3.955-8.828-8.828s3.946-8.828,8.828-8.828h79.448    c4.882,0,8.828,3.955,8.828,8.828S234.399,423.724,229.517,423.724"/>
		<path style="fill:#198E72;" d="M361.931,423.724h-17.655c-4.882,0-8.828-3.955-8.828-8.828s3.946-8.828,8.828-8.828h17.655    c4.882,0,8.828,3.955,8.828,8.828S366.813,423.724,361.931,423.724"/>
		<path style="fill:#198E72;" d="M308.966,423.724h-44.138c-4.882,0-8.828-3.955-8.828-8.828s3.946-8.828,8.828-8.828h44.138    c4.882,0,8.828,3.955,8.828,8.828S313.847,423.724,308.966,423.724"/>
		<path style="fill:#198E72;" d="M361.931,388.414h-44.138c-4.882,0-8.828-3.955-8.828-8.828s3.946-8.828,8.828-8.828h44.138    c4.882,0,8.828,3.955,8.828,8.828S366.813,388.414,361.931,388.414"/>
	</g>
	<path style="fill:#BDC3C7;" d="M449.63,344.276c17.24-31.444,27.057-67.54,27.057-105.931c0-121.882-98.807-220.69-220.69-220.69   s-220.69,98.807-220.69,220.69c0,38.391,9.825,74.487,27.065,105.931H449.63z"/>
	<path style="fill:#ECF0F1;" d="M385.896,344.276c23.614-28.901,37.826-65.783,37.826-105.931   c0-92.487-75.238-167.724-167.724-167.724c-92.478,0-167.724,75.238-167.724,167.724c0,40.148,14.221,77.03,37.826,105.931H385.896   z"/>
	<path style="fill:#BDC3C7;" d="M291.31,291.31H220.69c-3.399,0-6.479-1.942-7.954-5.005c-1.465-3.054-1.059-6.691,1.059-9.34   l58.412-73.013c6.506-8.121,5.667-17.743,2.701-24.029c-3.54-7.503-10.434-12.067-18.467-12.2   c-15.042,0-26.924,11.882-26.924,26.483c0,4.873-3.946,8.828-8.828,8.828s-8.828-3.955-8.828-8.828   c0-24.338,19.8-44.138,44.138-44.138c15.422,0.247,28.504,8.801,34.878,22.334c6.674,14.168,4.802,30.482-4.882,42.584   l-46.936,58.668h52.25c4.882,0,8.828,3.955,8.828,8.828S296.192,291.31,291.31,291.31"/>
</g>
<g>
</g>
<g>
</g>
<g>
</g>
<g>
</g>
<g>
</g>
<g>
</g>
<g>
</g>
<g>
</g>
<g>
</g>
<g>
</g>
<g>
</g>
<g>
</g>
<g>
</g>
<g>
</g>
<g>
</g>
</svg>
