<svg height="452pt" viewBox="0 -23 452.175 452" width="452pt" xmlns="http://www.w3.org/2000/svg"><path d="m257.601562 289.8125v-47.878906c0-3.1875-3.496093-5.140625-6.210937-3.472656l-83.589844 51.347656h-21.699219v-47.875c0-3.1875-3.496093-5.144532-6.210937-3.476563l-83.589844 51.351563h-35.398437c-3.378906 0-6.117188 2.738281-6.117188 6.117187v10.554688h268.140625v-16.671875h-25.324219zm0 0" fill="#e58d23"/><path d="m328.90625 378.285156h76.835938l-6.835938-271.484375c-.085938-3.496093-3.414062-6.289062-7.484375-6.289062h-48.195313c-4.070312 0-7.398437 2.792969-7.484374 6.289062zm0 0" fill="#ffb74b"/><path d="m368.84375 378.285156 6.832031-271.480468c.089844-3.5 3.414063-6.292969 7.488281-6.292969h-39.933593c-4.074219 0-7.398438 2.792969-7.488281 6.292969l-6.835938 271.480468h76.835938zm0 0" fill="#ffa730"/><path d="m448.4375 405.804688h-440.4375c-4.417969 0-8-3.582032-8-8v-100.648438c0-4.417969 3.582031-8 8-8h440.4375zm0 0" fill="#ffc34c"/><path d="m46.882812 309.539062c0-4.5 3.648438-8.152343 8.152344-8.152343h393.402344v-12.230469h-440.285156c-4.503906 0-8.152344 3.652344-8.152344 8.152344v100.339844c0 4.503906 3.648438 8.15625 8.152344 8.15625h38.730468zm0 0" fill="#ffa730"/><path d="m263.542969 341.085938h-240.679688c-2.207031 0-4-1.792969-4-4v-19.179688c0-2.210938 1.792969-4 4-4h240.679688c2.210937 0 4 1.789062 4 4v19.179688c0 2.207031-1.789063 4-4 4zm0 0" fill="#db9c2e"/><path d="m452.175781 405.804688h-171.773437v-153.683594c0-4.417969 3.582031-8 8-8h155.773437c4.417969 0 8 3.582031 8 8zm0 0" fill="#ffdf74"/><path d="m419.246094 373.359375h-29.886719c-2.761719 0-5-2.238281-5-5v-89.613281c0-2.761719 2.238281-5 5-5h29.886719c2.761718 0 5 2.238281 5 5v89.613281c0 2.761719-2.238282 5-5 5zm0 0" fill="#f9bb32"/><path d="m46.882812 313.90625h-23.941406c-2.253906 0-4.078125 1.824219-4.078125 4.078125v19.023437c0 2.25 1.824219 4.078126 4.078125 4.078126h23.941406zm0 0" fill="#bf6c0d"/><path d="m332.492188 272.65625c0-4.503906 3.734374-8.152344 8.335937-8.152344h111.347656v-12.230468c0-4.503907-3.734375-8.152344-8.335937-8.152344h-155.101563c-4.605469 0-8.335937 3.648437-8.335937 8.152344v153.53125h52.089844zm0 0" fill="#ffd551"/><path d="m87.988281 372.886719c0 8.632812-7 15.632812-15.628906 15.632812-8.632813 0-15.632813-7-15.632813-15.632812 0-8.628907 7-15.628907 15.632813-15.628907 8.628906 0 15.628906 7 15.628906 15.628907zm0 0" fill="#ffa730"/><path d="m437.90625 302.3125c-3.3125 0-6-2.6875-6-6v-15.867188c0-3.3125 2.6875-6 6-6s6 2.6875 6 6v15.867188c0 3.3125-2.6875 6-6 6zm0 0" fill="#fff4c1"/><path d="m437.90625 388.363281c-3.3125 0-6-2.6875-6-6v-64.378906c0-3.3125 2.6875-6 6-6s6 2.6875 6 6v64.378906c0 3.3125-2.6875 6-6 6zm0 0" fill="#fff4c1"/><path d="m340.5 373.359375h-29.886719c-2.761719 0-5-2.238281-5-5v-89.613281c0-2.761719 2.238281-5 5-5h29.886719c2.761719 0 5 2.238281 5 5v89.613281c0 2.761719-2.238281 5-5 5zm0 0" fill="#f9bb32"/><path d="m331.359375 273.746094h-20.648437c-2.816407 0-5.097657 2.28125-5.097657 5.09375v89.421875c0 2.816406 2.28125 5.097656 5.097657 5.097656h20.648437zm0 0" fill="#db9c2e"/><path d="m387.761719 148.472656c-3.3125 0-6-2.683594-6-6v-24.878906c0-3.316406 2.6875-6 6-6s6 2.683594 6 6v24.878906c0 3.316406-2.6875 6-6 6zm0 0" fill="#ffc34c"/><path d="m372.222656 88.335938c62.917969-5.671876 57.675782-54.039063 54.460938-69.152344-.542969-2.554688-3.847656-3.613282-7.292969-2.34375-20.792969 7.664062-85.371094 35.050781-53.617187 69.503906 1.390624 1.507812 3.757812 2.234375 6.449218 1.992188zm0 0" fill="#ccc033"/><path d="m427.429688 23.21875c-.242188-1.515625-.5-2.875-.746094-4.035156-.542969-2.554688-3.847656-3.613282-7.292969-2.34375-9.445313 3.480468-27.925781 11.03125-42.308594 21.46875-.261719.1875-.519531.378906-.777343.570312-.035157.023438-.070313.050782-.105469.078125-.222657.167969-.445313.332031-.667969.5-.046875.039063-.097656.074219-.144531.109375-.207031.15625-.414063.316406-.617188.476563-.058593.042969-.117187.089843-.171875.132812-.199218.152344-.394531.304688-.585937.457031-.0625.046876-.121094.09375-.179688.140626-.195312.15625-.386719.3125-.578125.464843-.058594.046875-.113281.09375-.167968.140625-.199219.15625-.390626.316406-.585938.476563-.050781.042969-.097656.085937-.148438.125-.203124.171875-.40625.34375-.609374.515625-.035157.03125-.074219.0625-.113282.097656-.230468.195312-.460937.394531-.691406.59375-.003906.007812-.007812.011719-.015625.015625-.71875.628906-1.414063 1.269531-2.09375 1.914063-.027344.027343-.054687.054687-.082031.078124-.191406.183594-.378906.367188-.566406.550782-.050782.050781-.097657.097656-.148438.144531-.164062.164063-.332031.328125-.492188.496094-.058593.054687-.113281.113281-.171874.171875-.152344.15625-.304688.3125-.453126.46875-.0625.066406-.121093.128906-.183593.195312-.144531.152344-.289063.304688-.429688.457032-.0625.066406-.125.132812-.1875.199218-.140625.15625-.277343.308594-.414062.460938-.058594.066406-.121094.132812-.179688.199218-.136719.15625-.277343.3125-.414062.472657-.054688.0625-.109375.125-.164063.191406-.140625.164063-.28125.332031-.417968.496094-.046876.054687-.09375.113281-.140626.167969-.160156.191406-.316406.386718-.46875.578124-.023437.03125-.046874.058594-.070312.089844-.363281.457032-.714844.917969-1.054688 1.382813-.003906.007812-.007812.015625-.011718.023437-.160156.21875-.316406.4375-.46875.65625-.039063.054688-.074219.109375-.109375.164063-.121094.171875-.238281.347656-.355469.523437-.046875.070313-.09375.140625-.140625.210938-.101563.160156-.207031.320312-.308594.480468-.046875.078126-.097656.15625-.144531.234376-.097656.15625-.191406.308593-.28125.460937-.050781.085937-.101562.167969-.148438.25-.089843.152344-.175781.304687-.261718.453125-.046875.085938-.097656.171875-.144532.257812-.085937.152344-.164062.300782-.246093.453126-.046875.085937-.089844.171874-.136719.257812-.082031.15625-.160156.3125-.234375.464844-.042969.082031-.082031.164062-.125.246094-.078125.164062-.15625.328124-.230469.492187-.035156.078125-.070312.152344-.105468.226563-.082032.183593-.164063.367187-.242188.550781-.023438.058593-.046875.113281-.070312.171875-.207032.484375-.394532.972656-.566407 1.46875-.015625.046875-.03125.089844-.046875.136718-.070312.199219-.136718.394532-.195312.59375-.027344.074219-.050782.152344-.070313.230469-.050781.167969-.105469.335938-.152343.503907-.023438.089843-.046876.179687-.070313.269531-.042969.15625-.085937.3125-.125.472656-.023437.09375-.042969.191406-.066406.289063-.035157.152343-.070313.304687-.101563.457031-.023437.097656-.042968.199219-.0625.296875-.03125.152344-.058594.300781-.085937.453125-.015625.101562-.035157.203125-.050781.304687-.023438.148438-.046876.300782-.070313.453125-.011719.101563-.027344.203125-.039063.304688-.019531.152343-.039062.304687-.054687.460937-.007813.097656-.023437.199219-.03125.296875-.015625.160157-.023437.324219-.035156.484375-.007813.09375-.015625.1875-.019531.277344-.011719.179688-.015626.359375-.023438.542969 0 .074219-.003906.148437-.007812.222656-.007813.515625 0 1.03125.027343 1.550781.003907.070313.011719.144532.015625.21875.011719.183594.027344.371094.042969.558594.007813.09375.019531.191406.03125.285156.015625.164063.035156.328125.054687.492188.011719.105468.027344.210937.042969.316406.023438.15625.046875.3125.070313.46875.019531.109375.039062.21875.058594.328125.027343.15625.058593.308594.089843.460937.023438.113282.046875.226563.070313.335938.035156.152344.070312.304688.105468.460938.027344.109374.054688.222656.085938.335937.039062.15625.082031.308594.125.464844.03125.109375.0625.222656.09375.335937.046875.15625.097656.3125.148438.46875.035156.113282.070312.222656.105468.332032.054688.164062.113282.328124.171875.488281.039063.105469.074219.210937.113281.316406.066407.179687.140626.363281.210938.542969.035156.089844.070312.175781.105469.261718.105469.261719.21875.523438.339843.789063.003907.007813.003907.015625.007813.023437.121094.269532.25.539063.382813.8125.042968.085938.089843.175782.132812.261719.09375.183594.1875.371094.285156.554688.058594.105469.117188.210937.175782.320312.089843.164063.183593.332031.277343.5.066407.113281.132813.226563.203125.339844.09375.160156.1875.320313.285156.484375.070313.117188.148438.234375.222657.355469.097656.15625.199219.3125.300781.472656.078125.117187.160156.238281.238281.359375.105469.15625.214844.316406.324219.472656.082031.117188.167969.238282.253906.359375.113282.160157.226563.320313.34375.480469.089844.117188.175782.234375.265625.355469.121094.164062.246094.324219.375.488281.089844.117188.179688.234375.273438.351562.132812.167969.273437.339844.414062.507813.089844.109375.179688.222656.269531.332031.15625.1875.320313.375.484376.5625.078124.09375.15625.1875.238281.28125.246093.28125.5.5625.761719.84375.121093.132813.253906.257813.394531.378906.0625.050782.128906.105469.195312.15625.070313.054688.144531.113282.222657.164063.089843.066406.179687.128906.273437.1875.042969.027344.085937.050781.128906.074219.292969.175781.601563.335937.929688.46875 1.425781.144531 2.882812.273437 4.371093.375.667969.046875 1.3125.03125 1.933594-.019532.207032-.019531.414063-.039062.617188-.0625 2.113281-.285156 3.910156-1.125 5.078125-2.449218 13.324219-15.066406 11.769531-28.730469 3.167969-40.453125 14.378906-10.429688 32.847656-17.976563 42.289062-21.457031.699219-.261719 1.390625-.417969 2.054688-.492188zm0 0" fill="#99af17"/><path d="m361.039062 90.203125c-74.214843-12.4375-63.609374-69.410156-58.417968-87.070313.875-2.984374 4.898437-3.941406 8.871094-2.125 24 10.988282 98.226562 49.367188 57.386718 87.410157-1.785156 1.664062-4.664062 2.316406-7.839844 1.785156zm0 0" fill="#eacf32"/><path d="m316.3125 3.273438c-1.761719-.851563-3.382812-1.605469-4.820312-2.265626-3.972657-1.816406-7.996094-.859374-8.871094 2.125-5.191406 17.660157-15.796875 74.632813 58.417968 87.070313 3.175782.53125 6.054688-.121094 7.839844-1.785156 1.703125-1.585938 3.203125-3.175781 4.519532-4.761719-64.042969-12.109375-61.882813-58.589844-57.085938-80.382812zm0 0" fill="#ccc033"/><path d="m367.328125 80.464844c-1.144531 0-2.28125-.488282-3.070313-1.433594l-19.515624-23.339844c-1.414063-1.695312-1.191407-4.21875.503906-5.632812 1.691406-1.417969 4.21875-1.191406 5.636718.5l19.511719 23.339844c1.417969 1.695312 1.191407 4.21875-.503906 5.636718-.746094.625-1.65625.929688-2.5625.929688zm0 0" fill="#fcda4f"/></svg>