<svg height="457pt" viewBox="-61 0 457 457.106" width="457pt" xmlns="http://www.w3.org/2000/svg"><path d="m10.785156 457.105469h314.398438c6.246094 0 11.171875-5.335938 10.699218-11.59375l-22.902343-305.527344c-.632813-8.4375-7.628907-14.960937-16.050781-14.960937h-257.890626c-8.421874 0-15.417968 6.523437-16.050781 14.960937l-22.9062498 305.527344c-.4687502 6.257812 4.4570308 11.59375 10.7031248 11.59375zm0 0" fill="#ffeacf"/><path d="m51.035156 445.511719 22.90625-305.527344c.632813-8.4375 7.628906-14.960937 16.050782-14.960937h-50.953126c-8.421874 0-15.417968 6.523437-16.050781 14.960937l-22.9062498 305.527344c-.4687502 6.257812 4.4570308 11.59375 10.7031248 11.59375h50.953125c-6.246093 0-11.171875-5.335938-10.703125-11.59375zm0 0" fill="#ffd59a"/><path d="m106.925781 155.707031c0-13.121093-10.585937-23.757812-23.640625-23.757812-13.058594 0-23.640625 10.636719-23.640625 23.757812 0 13.125 10.582031 23.761719 23.640625 23.761719 13.054688 0 23.640625-10.636719 23.640625-23.761719zm0 0" fill="#f9bb32"/><path d="m276.324219 155.707031c0-13.121093-10.585938-23.757812-23.640625-23.757812-13.058594 0-23.640625 10.636719-23.640625 23.757812 0 13.125 10.582031 23.761719 23.640625 23.761719 13.054687 0 23.640625-10.636719 23.640625-23.761719zm0 0" fill="#f9bb32"/><path d="m238.808594 304.683594c0-39.308594-31.710938-71.175782-70.824219-71.175782s-70.824219 31.867188-70.824219 71.175782c0 39.3125 31.710938 71.179687 70.824219 71.179687s70.824219-31.867187 70.824219-71.179687zm0 0" fill="#ff9079"/><path d="m83.214844 163.859375c7.503906 0 13.585937-6.082031 13.585937-13.582031v-73.808594c0-27.148438 21.898438-49.15625 48.914063-49.15625h44.285156c27.015625 0 48.914062 22.007812 48.914062 49.15625v73.808594c0 7.5 6.082032 13.582031 13.582032 13.582031h.007812c7.503906 0 13.585938-6.082031 13.585938-13.582031v-73.808594c0-42.230469-34.066406-76.46875-76.089844-76.46875h-44.285156c-42.023438 0-76.089844 34.238281-76.089844 76.46875v73.808594c0 7.5 6.082031 13.582031 13.585938 13.582031zm0 0" fill="#db9c2e"/><path d="m178.886719 342.175781c80.96875-7.300781 74.226562-69.546875 70.085937-88.996093-.699218-3.28125-4.953125-4.648438-9.382812-3.015626-26.757813 9.863282-109.867188 45.105469-68.996094 89.445313 1.785156 1.9375 4.832031 2.875 8.292969 2.566406zm0 0" fill="#ccc033"/><path d="m249.933594 258.378906c-.308594-1.953125-.644532-3.703125-.960938-5.195312-.699218-3.285156-4.953125-4.652344-9.382812-3.019532-12.152344 4.480469-35.9375 14.199219-54.445313 27.628907-.335937.242187-.667969.488281-1 .734375-.046875.03125-.089843.066406-.132812.101562-.289063.214844-.578125.429688-.863281.644532-.0625.046874-.125.09375-.183594.140624-.269532.203126-.535156.40625-.800782.609376-.070312.058593-.144531.113281-.21875.171874-.253906.195313-.503906.394532-.753906.589844-.078125.0625-.152344.121094-.230468.183594-.246094.199219-.496094.398438-.742188.597656-.074219.058594-.148438.117188-.21875.175782-.253906.207031-.503906.410156-.753906.617187-.0625.054687-.128906.109375-.191406.160156-.261719.21875-.523438.441407-.78125.660157-.046876.042968-.097657.082031-.148438.125-.296875.253906-.59375.511718-.886719.769531-.007812.003906-.015625.011719-.019531.015625-.925781.8125-1.824219 1.632812-2.695312 2.464844-.035157.03125-.070313.066406-.105469.101562-.246094.234375-.492188.472656-.734375.707031-.0625.0625-.121094.125-.183594.183594-.214844.214844-.429688.425781-.640625.636719-.070313.074218-.144531.152344-.21875.222656-.195313.203125-.390625.402344-.582031.605469-.082032.082031-.160156.164062-.238282.246093-.183593.195313-.371093.394532-.550781.589844-.082031.085938-.160156.171875-.242187.257813-.179688.199219-.355469.394531-.535156.59375-.074219.082031-.152344.167969-.226563.253906-.179687.203125-.355469.40625-.53125.609375-.070313.082031-.140625.164062-.210937.246094-.183594.210937-.363282.425781-.542969.640625-.058594.070312-.117188.144531-.175781.214843-.207032.246094-.40625.496094-.605469.746094-.03125.039063-.058594.074219-.089844.109375-.46875.589844-.921875 1.183594-1.355469 1.785157-.007812.007812-.011718.015624-.019531.027343-.203125.28125-.40625.5625-.601563.847657-.050781.066406-.09375.136718-.144531.207031-.152343.222656-.304687.449219-.457031.675781-.058594.089844-.117188.179688-.175781.269531-.132813.207031-.265625.414063-.398438.621094-.0625.097656-.125.199219-.1875.300781-.125.199219-.246093.394532-.363281.59375-.0625.105469-.128906.214844-.191406.324219-.113282.191406-.226563.386719-.335938.582031-.0625.109375-.121094.21875-.183594.332032-.109374.191406-.214843.386718-.316406.582031-.058594.109375-.117187.21875-.175781.328125-.105469.203125-.207031.402344-.304687.601562-.054688.105469-.105469.210938-.160157.316406-.101562.210938-.199219.421876-.296875.632813-.046875.097656-.09375.195313-.136718.292969-.105469.234375-.207032.472656-.3125.707031-.027344.074219-.0625.144531-.09375.21875-.261719.625-.503907 1.253906-.726563 1.890625-.019531.058594-.039063.117188-.0625.179688-.085937.253906-.171875.503906-.25.757812-.03125.101562-.0625.199219-.09375.300781-.066406.214844-.128906.429688-.191406.648438-.03125.113281-.0625.230469-.09375.34375-.054688.203125-.109375.402343-.15625.605469-.03125.125-.058594.25-.089844.375-.046875.195312-.089844.390624-.132813.585937-.027343.128906-.050781.257813-.078124.386719-.039063.191406-.074219.386718-.109376.578125-.023437.132812-.046874.261719-.066406.394531-.03125.195312-.058594.386719-.085937.582031-.019531.128907-.039063.261719-.054688.390625-.027343.199219-.046875.398438-.070312.59375-.011719.128906-.027344.257813-.039063.386719-.019531.207031-.03125.414063-.046875.621094-.007812.121093-.019531.238281-.023437.359375-.015625.230468-.019532.464844-.027344.695312-.003906.09375-.007812.191406-.011719.289063-.011719.660156 0 1.324219.035157 1.992187.003906.09375.015624.1875.019531.28125.015625.238282.03125.476563.054687.71875.011719.121094.027344.246094.039063.367188.023437.210937.046875.425781.070312.636718.019531.132813.039063.269532.058594.40625.03125.199219.058594.402344.09375.601563.023437.140625.046875.28125.074219.425781.035156.195313.074218.394532.113281.589844.027344.144531.058594.289062.089844.433594.042969.195312.089843.394531.136719.589844.035156.144531.070312.289062.109374.4375.050782.195312.105469.394531.160157.59375.039062.140624.082031.289062.125.433593.058593.199219.121093.402344.1875.601563.042969.144531.089843.285156.136719.429687.070312.207031.144531.417969.21875.628907.050781.132812.097656.269531.144531.40625.089843.230468.179687.464843.273437.699218.046875.109375.089844.222656.136719.335938.136719.335937.28125.675781.433594 1.011718.003906.011719.007812.019532.015625.03125.15625.347657.320312.695313.492187 1.046876.054688.109374.117188.222656.171875.335937.121094.238281.238282.476563.367188.714844.070312.132812.148437.273437.222656.410156.117188.214844.234375.429687.359375.644531.082031.144532.171875.292969.257813.4375.121093.207032.242187.414063.367187.621094.09375.152344.191406.304688.289063.457031.125.203125.253906.40625.386718.609375.101563.152344.203125.308594.308594.460938.136719.203125.273438.40625.414062.609375.105469.15625.214844.308593.328126.464843.144531.207032.292968.410157.445312.617188.113281.152344.226562.304688.339844.460938.15625.207031.320312.414062.480468.625.117188.152343.234376.300781.355469.453124.171875.214844.351563.433594.53125.652344.117188.140625.230469.285156.347657.425782.203124.242187.414062.484374.621093.726562.105469.121094.203125.238281.308594.359375.320313.363281.644531.722656.980469 1.085937.15625.171876.328125.332032.507812.488282.078125.070312.164063.136718.25.199218.09375.074219.1875.144532.285156.214844.113282.085938.230469.164063.355469.242188.050781.035156.109375.0625.164063.097656.375.222656.773437.429688 1.195312.601562 1.839844.1875 3.710938.351563 5.628906.484376.855469.058593 1.683594.039062 2.488282-.027344.261718-.027344.53125-.050782.789062-.078125 2.722656-.367188 5.03125-1.453125 6.535156-3.152344 17.148438-19.386719 15.148438-36.972656 4.078126-52.058594 18.503906-13.421875 42.273437-23.136719 54.421874-27.617187.902344-.324219 1.789063-.523438 2.644532-.617188zm0 0" fill="#99af17"/><path d="m164.5 344.574219c-95.507812-16.003907-81.859375-89.320313-75.179688-112.046875 1.128907-3.839844 6.304688-5.074219 11.417969-2.734375 30.886719 14.140625 126.40625 63.527343 73.847657 112.488281-2.300782 2.140625-6.003907 2.980469-10.085938 2.292969zm0 0" fill="#eacf32"/><path d="m106.9375 232.707031c-2.265625-1.089843-4.351562-2.066406-6.199219-2.914062-5.113281-2.339844-10.289062-1.105469-11.417969 2.734375-6.679687 22.726562-20.328124 96.042968 75.179688 112.046875 4.082031.6875 7.785156-.152344 10.085938-2.292969 2.191406-2.042969 4.121093-4.089844 5.816406-6.132812-82.417969-15.578126-79.636719-75.394532-73.464844-103.441407zm0 0" fill="#ccc033"/><path d="m172.589844 332.898438c-1.71875 0-3.417969-.734376-4.605469-2.152344l-25.113281-30.035156c-2.125-2.542969-1.785156-6.324219.753906-8.453126 2.546875-2.125 6.328125-1.785156 8.453125.757813l25.109375 30.035156c2.125 2.539063 1.789062 6.324219-.753906 8.449219-1.121094.941406-2.488282 1.398438-3.84375 1.398438zm0 0" fill="#fcda4f"/><path d="m98.570312 394.265625c0 8.441406-6.84375 15.285156-15.285156 15.285156s-15.285156-6.84375-15.285156-15.285156c0-8.445313 6.84375-15.289063 15.285156-15.289063s15.285156 6.84375 15.285156 15.289063zm0 0" fill="#ffd59a"/><path d="m137.496094 424.835938c0 8.441406-6.84375 15.285156-15.285156 15.285156-8.441407 0-15.285157-6.84375-15.285157-15.285156 0-8.441407 6.84375-15.285157 15.285157-15.285157 8.441406 0 15.285156 6.84375 15.285156 15.285157zm0 0" fill="#ffd59a"/><path d="m84.910156 161.484375v-73.804687c0-42.234376 34.066406-76.46875 76.089844-76.46875h44.285156c13.34375 0 25.878906 3.460937 36.785156 9.527343-13.613281-12.851562-31.921874-20.738281-52.070312-20.738281h-44.285156c-42.023438 0-76.089844 34.234375-76.089844 76.46875v73.808594c0 7.5 6.082031 13.582031 13.585938 13.582031h.003906c.644531 0 1.273437-.058594 1.894531-.144531-.121094-.726563-.199219-1.46875-.199219-2.230469zm0 0" fill="#bf6c0d"/><path d="m311.976562 408.566406c-3.046874 0-5.65625-2.3125-5.960937-5.410156l-12-120.734375c-.328125-3.296875 2.078125-6.238281 5.375-6.566406 3.296875-.324219 6.234375 2.082031 6.5625 5.378906l12 120.738281c.328125 3.296875-2.078125 6.234375-5.375 6.5625-.203125.019532-.402344.03125-.601563.03125zm0 0" fill="#fcf9de"/></svg>