<svg height="474pt" viewBox="0 -25 474.838 474" width="474pt" xmlns="http://www.w3.org/2000/svg"><path d="m242.519531 249.4375c-5.453125 0-9.871093-4.417969-9.871093-9.871094v-150.25h19.738281v150.25c0 5.453125-4.417969 9.871094-9.867188 9.871094zm0 0" fill="#ccc033"/><path d="m241.507812 239.566406v-150.25h-8.859374v150.25c0 5.453125 4.417968 9.871094 9.871093 9.871094 1.59375 0 3.09375-.386719 4.425781-1.058594-3.222656-1.625-5.4375-4.957031-5.4375-8.8125zm0 0" fill="#99af17"/><g fill="#ffeacf"><path d="m343.59375 282.300781v85.394531h-51.4375v-85.394531zm0 0"/><path d="m371.675781 191.980469-.128906-.128907c-2.828125-2.828124-7.410156-2.828124-10.238281 0l-66.304688 66.308594c-7.917968 7.914063-7.917968 20.75 0 28.664063l9.640625 9.644531 67.03125-67.03125c10.34375-10.34375 10.34375-27.113281 0-37.457031zm0 0"/><path d="m440.519531 160.597656.320313.320313v-62.8125c0-13.726563 11.125-24.851563 24.851562-24.851563 5 0 9.058594 4.054688 9.058594 9.058594v112.515625l.089844.089844-.160156.160156-18.1875 38.777344c-1.417969 3.027343-3.515626 5.6875-6.125 7.777343l-111.398438 89.15625-34.324219-34.320312zm0 0"/></g><path d="m319.382812 258.382812 58.0625-58.0625c-1.265624-2.917968-3.085937-5.65625-5.472656-8.042968l-.507812-.503906c-2.78125-2.785157-7.292969-2.785157-10.074219 0l-66.613281 66.609374c-7.792969 7.792969-7.792969 20.425782 0 28.21875l9.867187 9.867188 12.527344-12.527344c-5.472656-7.785156-4.746094-18.597656 2.210937-25.558594zm0 0" fill="#ffd59a"/><path d="m292.15625 284.058594h24.824219v83.636718h-24.824219zm0 0" fill="#ffd59a"/><path d="m116.332031 240.601562c-10.398437-10.402343-10.398437-27.261718 0-37.660156 1.703125-1.703125 4.035157-2.378906 6.242188-2.042968l-9.019531-9.019532c-2.839844-2.84375-7.449219-2.84375-10.292969 0-10.398438 10.402344-10.398438 27.261719 0 37.660156zm0 0" fill="#ffd59a"/><path d="m182.679688 282.300781v85.394531h-51.4375v-85.394531zm0 0" fill="#ffeacf"/><path d="m131.242188 282.300781h20.109374v85.394531h-20.109374zm0 0" fill="#ffd59a"/><path d="m103.160156 191.980469.128906-.128907c2.828126-2.828124 7.414063-2.828124 10.238282 0l66.308594 66.308594c7.917968 7.914063 7.917968 20.75 0 28.664063l-9.644532 9.644531-67.03125-67.03125c-10.34375-10.34375-10.34375-27.113281 0-37.457031zm0 0" fill="#ffeacf"/><path d="m34.320312 160.597656-.324218.320313v-62.8125c0-13.726563-11.125-24.851563-24.847656-24.851563-5.003907 0-9.0585942 4.054688-9.0585942 9.058594v112.515625l-.0898438.089844.160156.160156 18.183594 38.777344c1.421875 3.027343 3.515625 5.6875 6.125 7.777343l111.402344 89.15625 34.320312-34.320312zm0 0" fill="#ffeacf"/><path d="m46.589844 231.578125c-2.609375-2.089844-4.707032-4.75-6.125-7.777344l-18.183594-38.777343-.160156-.160157.089844-.085937v-107.8125c-3.796876-2.351563-8.269532-3.710938-13.0625-3.710938-5.003907 0-9.0585942 4.054688-9.0585942 9.058594v112.515625l-.0898438.089844.160156.160156 18.183594 38.777344c1.421875 3.027343 3.515625 5.6875 6.125 7.777343l111.402344 89.15625 15.417968-15.417968zm0 0" fill="#ffd59a"/><path d="m95.566406 424.589844v-70.0625c0-5.523438 4.476563-10 10-10h98.863282c5.519531 0 10 4.476562 10 10v70.0625zm0 0" fill="#bf6c0d"/><path d="m135.785156 374.691406c0-5.554687 4.5-10.054687 10.054688-10.054687h68.589844v-10.054688c0-5.550781-4.503907-10.054687-10.054688-10.054687h-98.753906c-5.550782 0-10.054688 4.503906-10.054688 10.054687v70.007813h40.21875zm0 0" fill="#a56021"/><path d="m113.316406 201.933594c2.84375-2.84375 7.453125-2.84375 10.292969 0l-10.050781-10.054688c-2.84375-2.839844-7.453125-2.839844-10.296875 0-10.398438 10.402344-10.398438 27.261719 0 37.660156l10.054687 10.054688c-10.398437-10.398438-10.398437-27.261719 0-37.660156zm0 0" fill="#ffd59a"/><path d="m260.410156 424.589844v-70.0625c0-5.523438 4.476563-10 10-10h98.859375c5.523438 0 10 4.476562 10 10v70.0625zm0 0" fill="#bf6c0d"/><path d="m300.628906 374.691406c0-5.554687 4.5-10.054687 10.050782-10.054687h68.589843v-10.054688c0-5.550781-4.5-10.054687-10.054687-10.054687h-98.75c-5.554688 0-10.054688 4.503906-10.054688 10.054687v70.007813h40.21875zm0 0" fill="#a56021"/><path d="m166.371094 282.300781c0 8.328125-6.753906 15.082031-15.082032 15.082031-8.328124 0-15.082031-6.753906-15.082031-15.082031s6.753907-15.082031 15.082031-15.082031c8.328126 0 15.082032 6.753906 15.082032 15.082031zm0 0" fill="#ffd59a"/><path d="m201.128906 399.640625c0 8.328125-6.753906 15.082031-15.082031 15.082031s-15.082031-6.753906-15.082031-15.082031 6.753906-15.082031 15.082031-15.082031 15.082031 6.753906 15.082031 15.082031zm0 0" fill="#a56021"/><path d="m251.007812 140.300781c99.726563-8.992187 91.421876-85.660156 86.320313-109.613281-.859375-4.046875-6.101563-5.726562-11.554687-3.71875-32.957032 12.152344-135.324219 55.5625-84.984376 110.171875 2.199219 2.386719 5.953126 3.542969 10.21875 3.160156zm0 0" fill="#ccc033"/><path d="m338.511719 37.085938c-.378907-2.40625-.789063-4.558594-1.183594-6.398438-.859375-4.046875-6.101563-5.726562-11.554687-3.714844-14.972657 5.519532-44.265626 17.488282-67.0625 34.03125-.414063.296875-.824219.601563-1.230469.902344-.054688.039062-.113281.082031-.167969.121094-.351562.265625-.707031.53125-1.058594.796875-.078125.058593-.152344.117187-.230468.171875-.328126.25-.65625.5-.980469.753906-.089844.070312-.179688.140625-.269531.210938-.3125.242187-.621094.484374-.929688.726562-.09375.074219-.1875.148438-.28125.226562-.308594.242188-.613281.488282-.917969.734376-.089843.074218-.179687.144531-.269531.21875-.308594.25-.617188.503906-.925781.757812-.078125.066406-.15625.132812-.234375.199219-.324219.269531-.644532.539062-.964844.8125-.058594.050781-.121094.101562-.183594.15625-.367187.3125-.730468.628906-1.089844.945312-.007812.007813-.019531.011719-.027343.019531-1.136719 1-2.246094 2.011719-3.316407 3.035157-.046874.042969-.089843.082031-.132812.125-.300781.289062-.601562.582031-.902344.875-.074218.074219-.152344.152343-.226562.226562-.265625.261719-.527344.523438-.785156.785157-.089844.089843-.179688.183593-.269532.273437-.242187.25-.484375.496094-.722656.746094-.097656.101562-.191406.203125-.289062.304687-.230469.242188-.457032.484375-.683594.726563-.097656.105469-.195313.210937-.292969.316406-.222656.242187-.441406.484375-.660156.730469-.09375.105468-.1875.210937-.28125.3125-.21875.25-.4375.5-.652344.75-.089844.101562-.175781.203125-.261719.304687-.226562.261719-.445312.523438-.667968.789063-.070313.089844-.144532.175781-.21875.265625-.25.304687-.5.613281-.746094.917969-.035156.046874-.070313.089843-.109375.136718-.574219.726563-1.132813 1.460938-1.667969 2.195313-.007812.011719-.015625.023437-.023438.035156-.253906.347656-.5.695313-.742187 1.042969-.058594.085937-.117187.171875-.175781.257812-.1875.273438-.378906.550782-.5625.828125-.074219.113281-.144532.222657-.21875.335938-.164063.253906-.328125.507812-.488282.761719-.078124.125-.15625.25-.234374.371093-.148438.246094-.296876.488281-.445313.734375-.078125.132813-.15625.261719-.234375.394532-.140625.242187-.277344.480468-.414062.71875-.078126.136718-.152344.273437-.226563.40625-.132813.242187-.261719.480468-.390625.722656-.070312.132812-.144531.269531-.214844.40625-.128906.246094-.253906.492187-.375.738281-.066406.128906-.132812.261719-.195312.390625-.125.261719-.246094.519531-.367188.777344-.054687.121094-.113281.242187-.167968.359375-.132813.292969-.257813.582031-.382813.875-.039063.089843-.078125.175781-.113281.265625-.324219.773437-.625 1.546875-.898438 2.328125-.027344.074219-.050781.148437-.074218.222656-.109376.3125-.214844.621094-.3125.9375-.039063.121094-.074219.246094-.113282.367187-.078125.265626-.160156.53125-.234375.800782-.042969.140625-.078125.28125-.117187.425781-.066406.246094-.132813.496094-.195313.746094-.035156.152343-.070312.304687-.109375.460937-.054687.238282-.109375.480469-.160156.71875-.035156.160156-.066406.320313-.097656.476563-.046875.238281-.089844.476562-.132813.714843-.03125.160157-.054687.324219-.082031.484376-.039062.238281-.074219.476562-.109375.71875-.023437.160156-.046875.320312-.066406.480468-.03125.246094-.058594.488282-.082031.730469-.019532.160156-.035157.316406-.050782.472656-.023437.257813-.039062.511719-.058594.769531-.007812.148438-.019531.292969-.03125.441407-.015624.285156-.023437.570312-.03125.855469-.003906.117187-.011718.238281-.011718.355468-.015625.816406-.003906 1.632813.042968 2.457032.003907.113281.015626.230468.023438.34375.019531.296874.039062.589843.066406.886718.011719.152344.03125.304688.046875.453125.027344.261719.054688.523438.089844.78125.019531.167969.046875.332031.070313.5.035156.25.070312.496094.113281.746094.027343.171875.058593.347656.089843.519531.046876.246094.089844.488282.140626.730469.035156.179687.074218.355469.113281.535156.050781.242188.109375.484375.167969.722657.042968.179687.085937.359374.132812.539062.0625.242188.128906.488281.195312.730469.050782.179687.101563.355469.15625.535156.070313.25.152344.496094.230469.746094.054688.175781.109375.347656.167969.527343.085938.253907.179688.515626.273438.773438.058593.164062.117187.332031.179687.5.105469.285156.21875.574219.335937.859375.054688.140625.105469.277344.164063.417969.171875.414062.351563.828125.539063 1.246094.003906.011718.011718.023437.015624.035156.195313.429687.398438.859375.609376 1.289062.066406.140625.140624.277344.210937.414063.144531.292969.292969.585937.449219.878906.089844.167969.183594.335937.277344.503906.144531.265625.289062.53125.441406.796875.101562.179688.210937.363282.316406.542969.148438.253906.300781.507813.457031.761719.113281.1875.230469.375.351563.5625.15625.25.316406.5.476562.75.125.191406.253906.378906.378906.570312.167969.25.339844.5.511719.75.132813.191406.265625.382813.402344.574219.179687.25.363281.503906.550781.753906.136719.191407.277344.378907.417969.566407.195313.257812.394531.515624.59375.773437.144531.183594.289063.371094.4375.558594.210937.265625.433594.535156.652344.804687.144531.175782.285156.347656.433593.523438.246094.300781.503907.597656.765626.894531.125.148437.25.292969.378906.441406.390625.445313.792968.894531 1.203125 1.339844.195312.210937.40625.410156.628906.601563.097656.085937.203125.164062.304687.246093.117188.089844.234376.179688.351563.265625.144531.101563.289063.199219.4375.296875.066406.039063.136719.078125.203125.117188.464844.277343.953125.53125 1.476562.742187 2.261719.230469 4.566407.429688 6.925782.59375 1.058594.074219 2.078125.050782 3.066406-.027344.324219-.035156.65625-.066406.976562-.101562 3.351563-.453125 6.195313-1.785156 8.050782-3.882812 21.117187-23.878907 18.65625-45.539063 5.019531-64.121094 22.792969-16.53125 52.066406-28.496094 67.035156-34.015625 1.097657-.40625 2.191407-.652344 3.242188-.769531zm0 0" fill="#99af17"/><path d="m233.285156 143.257812c-117.640625-19.714843-100.828125-110.019531-92.601562-138.011718 1.386718-4.726563 7.765625-6.25 14.0625-3.367188 38.042968 17.417969 155.695312 78.25 90.960937 138.550782-2.832031 2.640624-7.390625 3.671874-12.421875 2.828124zm0 0" fill="#eacf32"/><path d="m162.386719 5.46875c-2.796875-1.347656-5.363281-2.546875-7.640625-3.589844-6.296875-2.882812-12.671875-1.359375-14.0625 3.367188-8.226563 27.988281-25.039063 118.296875 92.601562 138.011718 5.03125.84375 9.589844-.191406 12.421875-2.828124 2.703125-2.515626 5.078125-5.035157 7.164063-7.550782-101.511719-19.191406-98.089844-92.867187-90.484375-127.410156zm0 0" fill="#ccc033"/><path d="m243.246094 127.484375c-1.714844 0-3.417969-.734375-4.605469-2.152344l-30.925781-36.992187c-2.125-2.542969-1.789063-6.328125.753906-8.453125 2.539062-2.125 6.324219-1.785157 8.449219.753906l30.929687 36.996094c2.125 2.542969 1.789063 6.324219-.753906 8.449219-1.125.941406-2.488281 1.398437-3.847656 1.398437zm0 0" fill="#ccc033"/><path d="m308.328125 79.03125c0 8.328125-6.75 15.082031-15.082031 15.082031-8.328125 0-15.082032-6.753906-15.082032-15.082031 0-8.332031 6.753907-15.082031 15.082032-15.082031 8.332031 0 15.082031 6.75 15.082031 15.082031zm0 0" fill="#99af17"/></svg>