<svg height="458pt" viewBox="-73 0 458 458.46517" width="458pt" xmlns="http://www.w3.org/2000/svg"><path d="m263.753906 116.53125c0 37.300781-30.242187 67.542969-67.542968 67.542969-37.300782 0-67.539063-30.242188-67.539063-67.542969s30.238281-67.539062 67.539063-67.539062c37.300781 0 67.542968 30.238281 67.542968 67.539062zm0 0" fill="#fce575"/><g fill="#ffea63"><path d="m128.378906 177.28125-14.476562 14.480469c-2.023438 2.019531-2.128906 5.441406-.011719 7.363281.941406.851562 2.132813 1.28125 3.324219 1.28125 1.265625 0 2.535156-.484375 3.503906-1.453125l14.664062-14.664063c1.898438-1.898437 1.851563-4.957031-.046874-6.855468-.03125-.035156-.0625-.066406-.097657-.097656-1.894531-1.90625-4.957031-1.957032-6.859375-.054688zm0 0"/><path d="m156.847656 198.667969-7.808594 18.855469c-1.019531 2.46875-.070312 5.429687 2.34375 6.582031.695313.332031 1.425782.488281 2.140626.488281 1.945312 0 3.789062-1.152344 4.578124-3.058594l7.898438-19.078125c1.03125-2.488281-.191406-5.300781-2.683594-6.324219-.039062-.015624-.082031-.03125-.121094-.050781-2.480468-1.019531-5.320312.105469-6.347656 2.585938zm0 0"/><path d="m196.210938 202.648438c-.019532 0-.039063 0-.058594 0-2.6875-.003907-4.894532 2.121093-4.894532 4.8125v20.453124c0 2.585938 1.890626 4.898438 4.464844 5.144532 2.957032.28125 5.441406-2.035156 5.441406-4.929688v-20.667968c0-2.691407-2.203124-4.816407-4.894531-4.8125-.019531 0-.039062 0-.058593 0zm0 0"/><path d="m229.238281 196.074219c-.039062.015625-.082031.03125-.125.050781-2.488281 1.019531-3.710937 3.832031-2.679687 6.320312l7.902344 19.089844c.792968 1.910156 2.636718 3.0625 4.578124 3.0625.722657 0 1.457032-.160156 2.15625-.496094 2.402344-1.15625 3.347657-4.113281 2.328126-6.578124l-7.8125-18.867188c-1.027344-2.480469-3.867188-3.609375-6.347657-2.582031zm0 0"/><path d="m257.136719 177.371094c-.03125.03125-.0625.0625-.097657.09375-1.898437 1.898437-1.949218 4.960937-.046874 6.859375l14.621093 14.621093c.964844.96875 2.234375 1.453126 3.503907 1.453126 1.191406 0 2.378906-.429688 3.324218-1.28125 2.117188-1.921876 2.007813-5.34375-.011718-7.363282l-14.433594-14.433594c-1.898438-1.902343-4.960938-1.851562-6.859375.050782zm0 0"/><path d="m300.996094 154.605469-18.878906-7.824219c-2.484376-1.027344-5.300782.191406-6.320313 2.679688-.019531.042968-.035156.082031-.054687.125-1.023438 2.480468.105468 5.320312 2.582031 6.347656l19.085937 7.910156c.621094.257812 1.261719.378906 1.894532.378906 2.074218 0 4.039062-1.3125 4.722656-3.457031.796875-2.488281-.617188-5.160156-3.03125-6.160156zm0 0"/><path d="m307.589844 111.589844h-20.445313c-2.691406 0-4.816406 2.203125-4.816406 4.894531v.050781.066406c-.003906 2.691407 2.125 4.894532 4.816406 4.894532h20.65625c2.898438 0 5.214844-2.484375 4.929688-5.4375-.242188-2.578125-2.554688-4.46875-5.140625-4.46875zm0 0"/><path d="m304.058594 72.421875c-.871094-2.835937-3.960938-4.246094-6.636719-3.140625l-19.074219 7.898438c-2.480468 1.027343-3.609375 3.867187-2.585937 6.34375.015625.042968.035156.085937.050781.125 1.023438 2.492187 3.835938 3.714843 6.324219 2.683593l18.878906-7.816406c2.386719-.988281 3.800781-3.621094 3.042969-6.09375zm0 0"/><path d="m264.007812 55.753906 14.417969-14.417968c1.894531-1.894532 2.171875-5.015626.378907-7.007813-1.914063-2.125-5.191407-2.191406-7.191407-.195313l-14.613281 14.617188c-1.898438 1.898438-1.851562 4.960938.050781 6.855469.03125.035156.0625.066406.09375.097656 1.902344 1.902344 4.960938 1.949219 6.863281.050781zm0 0"/><path d="m235.609375 34.421875 7.851563-18.945313c.902343-2.183593.246093-4.78125-1.710938-6.101562-2.695312-1.820312-6.214844-.660156-7.390625 2.183594l-7.90625 19.070312c-1.027344 2.484375.191406 5.296875 2.679687 6.320313.042969.019531.085938.035156.125.050781 2.480469 1.023438 5.320313-.101562 6.351563-2.578125zm0 0"/><path d="m196.210938 30.417969h.058593c2.691407 0 4.894531-2.125 4.894531-4.816407v-20.433593c0-2.589844-1.890624-4.898438-4.464843-5.1445315-2.953125-.2812495-5.441407 2.0351565-5.441407 4.9296875v20.648437c0 2.691407 2.207032 4.820313 4.898438 4.816407zm0 0"/><path d="m110.09375 116.535156c0-.015625 0-.03125 0-.050781 0-2.6875-2.125-4.894531-4.816406-4.894531h-20.535156c-2.585938 0-4.894532 1.890625-5.140626 4.46875-.28125 2.953125 2.035157 5.4375 4.929688 5.4375h20.746094c2.691406 0 4.816406-2.203125 4.816406-4.894532 0-.023437 0-.042968 0-.066406zm0 0"/><path d="m110.304688 146.78125-18.863282 7.816406c-2.414062 1-3.828125 3.671875-3.03125 6.160156.6875 2.144532 2.648438 3.457032 4.726563 3.457032.628906 0 1.273437-.121094 1.890625-.378906l19.066406-7.902344c2.480469-1.027344 3.605469-3.867188 2.582031-6.347656-.015625-.042969-.035156-.085938-.050781-.125-1.023438-2.488282-3.835938-3.710938-6.320312-2.679688zm0 0"/><path d="m163.179688 36.996094c.042968-.019532.082031-.035156.125-.054688 2.488281-1.019531 3.710937-3.835937 2.679687-6.320312l-7.820313-18.875c-.992187-2.390625-3.625-3.796875-6.097656-3.039063-2.835937.871094-4.246094 3.960938-3.136718 6.636719l7.902343 19.070312c1.027344 2.476563 3.867188 3.601563 6.347657 2.582032zm0 0"/><path d="m135.234375 55.746094c.03125-.03125.0625-.066406.09375-.097656 1.898437-1.898438 1.945313-4.957032.046875-6.855469l-14.566406-14.566407c-1.671875-1.671874-4.324219-2.054687-6.292969-.75-2.707031 1.800782-2.976563 5.492188-.804687 7.664063l14.660156 14.660156c1.902344 1.898438 4.964844 1.847657 6.863281-.054687zm0 0"/><path d="m116.664062 83.511719c1.023438-2.480469-.101562-5.320313-2.582031-6.34375l-19.0625-7.894531c-2.675781-1.105469-5.769531.304687-6.636719 3.144531-.757812 2.472656.65625 5.101562 3.046876 6.09375l18.863281 7.808593c2.484375 1.027344 5.300781-.191406 6.320312-2.683593.019531-.039063.035157-.082031.050781-.125zm0 0"/></g><path d="m168.671875 116.53125c0-30.28125 20.03125-55.972656 47.539063-64.515625-6.324219-1.964844-13.039063-3.023437-20-3.023437-37.242188 0-67.539063 30.296874-67.539063 67.539062s30.296875 67.542969 67.539063 67.542969c6.960937 0 13.675781-1.0625 20-3.027344-27.507813-8.542969-47.539063-34.234375-47.539063-64.515625zm0 0" fill="#ffd551"/><path d="m231.210938 148.152344c0 8.285156-6.714844 15-15 15-8.285157 0-15-6.714844-15-15s6.714843-15 15-15c8.285156 0 15 6.714844 15 15zm0 0" fill="#ffd551"/><path d="m149.472656 283.070312v-228.863281c0-29.492187-23.90625-53.398437-53.398437-53.398437-29.488281 0-53.394531 23.90625-53.394531 53.398437v228.863281c-25.234376 16.992188-41.984376 45.660157-42.4375 78.195313-.738282 52.941406 42.140624 96.792969 95.085937 97.195313 53.1875.410156 96.589844-42.742188 96.589844-95.835938 0-33.097656-16.863281-62.324219-42.445313-79.554688zm0 0" fill="#ffeacf"/><path d="m40.242188 361.265625c.453124-32.535156 17.203124-61.203125 42.433593-78.195313v-228.863281c0-22.417969 13.820313-41.59375 33.398438-49.511719-6.179688-2.496093-12.925781-3.886718-20-3.886718-29.488281 0-53.398438 23.90625-53.398438 53.398437v228.863281c-25.230469 16.992188-41.980469 45.660157-42.433593 78.195313-.738282 52.941406 42.140624 96.792969 95.085937 97.195313 7.121094.054687 14.066406-.675782 20.757813-2.105469-43.703126-9.359375-76.492188-48.738281-75.84375-95.089844zm0 0" fill="#ffd59a"/><path d="m135.039062 314.621094h-77.929687v-214.230469c0-21.152344 17.148437-38.300781 38.300781-38.300781h1.324219c21.15625 0 38.304687 17.148437 38.304687 38.300781zm0 0" fill="#ff9079"/><path d="m57.109375 308.378906c6.859375-9.953125 15.539063-18.554687 25.566406-25.308594v-218.804687c-14.890625 5.25-25.566406 19.4375-25.566406 36.125zm0 0" fill="#ff624b"/><path d="m177.484375 362.625c0 44.960938-36.449219 81.410156-81.410156 81.410156-44.960938 0-81.410157-36.449218-81.410157-81.410156 0-44.964844 36.449219-81.410156 81.410157-81.410156 44.960937 0 81.410156 36.445312 81.410156 81.410156zm0 0" fill="#ff624b"/><path d="m127.039062 405.402344h-7.328124c-4.421876 0-8-3.578125-8-8v-2.277344c0-4.417969 3.578124-8 8-8h7.328124c4.417969 0 8 3.582031 8 8v2.277344c0 4.421875-3.582031 8-8 8zm0 0" fill="#ff9079"/><path d="m162.457031 315.480469h-20.921875c-7.175781 0-12.988281 5.816406-12.988281 12.992187v3.582032c0 7.171874 5.8125 12.988281 12.988281 12.988281h3.945313c4.109375 0 7.089843 3.75 6.359375 7.792969-.132813.75-.203125 1.519531-.203125 2.308593v3.582031c0 7.171876 5.8125 12.988282 12.988281 12.988282h12.351562c.332032-2.984375.507813-6.015625.507813-9.089844 0-17.570312-5.5625-33.839844-15.027344-47.144531zm0 0" fill="#ff9079"/><path d="m59.226562 337.636719h-40.640624c-2.535157 7.875-3.921876 16.265625-3.921876 24.988281 0 10.476562 2 20.480469 5.605469 29.679688h20.957031c8.742188 0 15.828126-7.085938 15.828126-15.832032v-5c0-1.195312.972656-2.167968 2.171874-2.167968 8.742188 0 15.828126-7.085938 15.828126-15.832032v-.003906c0-8.746094-7.085938-15.832031-15.828126-15.832031zm0 0" fill="#ff9079"/><path d="m99.054688 426.636719h-53.246094c13.84375 10.886719 31.289062 17.398437 50.265625 17.398437 6.183593 0 12.195312-.714844 17.980469-2.019531v-.378906c0-8.285157-6.714844-15-15-15zm0 0" fill="#ff9079"/><path d="m84.347656 443.179688c-26.863281-17.355469-44.582031-47.730469-44.105468-81.914063.453124-32.535156 17.203124-61.203125 42.433593-78.195313v-.753906c-9.121093 1.511719-17.734375 4.535156-25.566406 8.8125 0 0 0 .003906-.003906.003906-.941407.511719-1.863281 1.050782-2.78125 1.597657-.363281.21875-.71875.4375-1.078125.660156-.679688.421875-1.355469.855469-2.023438 1.296875-.296875.199219-.601562.390625-.894531.589844-.882813.601562-1.746094 1.21875-2.601563 1.851562-.324218.238282-.640624.484375-.960937.730469-.628906.476563-1.25.964844-1.863281 1.464844-.296875.238281-.597656.472656-.886719.71875-.824219.683593-1.628906 1.382812-2.421875 2.09375-.273438.246093-.539062.5-.808594.75-.589844.546875-1.175781 1.105469-1.75 1.667969-.277344.273437-.554687.542968-.828125.820312-.757812.765625-1.503906 1.542969-2.234375 2.339844-.207031.226562-.40625.460937-.613281.691406-.570313.640625-1.128906 1.285156-1.679687 1.941406-.246094.292969-.492188.585938-.734376.882813-.691406.851562-1.375 1.710937-2.035156 2.585937-.125.167969-.242187.339844-.367187.507813-.5625.765625-1.113281 1.539062-1.648438 2.320312-.210937.308594-.417969.613281-.621093.921875-.550782.824219-1.089844 1.660156-1.609376 2.507813-.085937.136719-.171874.269531-.257812.40625-.582031.960937-1.136719 1.941406-1.679688 2.925781-.171874.308594-.335937.613281-.5.925781-.445312.832031-.878906 1.675781-1.292968 2.523438-.101563.207031-.207032.414062-.308594.621093-.492188 1.023438-.957031 2.0625-1.40625 3.109376-.125.296874-.25.597656-.371094.894531-.359375.867187-.703125 1.738281-1.035156 2.617187-.09375.253906-.191406.503906-.285156.757813-.390625 1.085937-.761719 2.179687-1.113282 3.285156-.085937.273437-.164062.546875-.246093.824219-.277344.910156-.539063 1.832031-.78125 2.753906-.078125.289062-.15625.574219-.230469.863281-.289062 1.136719-.554688 2.285157-.792969 3.445313-.046875.226562-.089843.457031-.132812.6875-.195313.980468-.371094 1.96875-.53125 2.964844-.046875.308593-.097657.617187-.144531.925781-.175782 1.191406-.332032 2.386719-.457032 3.59375-.015625.152343-.027344.304687-.039062.453125-.105469 1.082031-.1875 2.171875-.25 3.261718-.019532.324219-.035156.648438-.050782.976563-.054687 1.238281-.09375 2.480469-.09375 3.730469 0 40.980468 30.28125 74.871094 69.683594 80.558594zm0 0" fill="#ff4b34"/><path d="m14.789062 366.992188c.03125.484374.070313.964843.105469 1.445312.050781.71875.09375 1.4375.164063 2.152344.078125.792968.179687 1.578125.28125 2.363281.0625.492187.117187.988281.1875 1.476563.132812.917968.292968 1.828124.457031 2.734374.0625.335938.117187.675782.179687 1.011719.199219 1.011719.417969 2.015625.652344 3.011719.046875.210938.09375.425781.148438.640625.261718 1.082031.546875 2.152344.851562 3.214844.03125.117187.066406.234375.097656.347656.332032 1.128906.683594 2.25 1.058594 3.359375.015625.042969.03125.085938.042969.128906.394531 1.152344.8125 2.296875 1.253906 3.425782h20.957031c1.246094 0 2.449219-.15625 3.609376-.425782-3.117188-9.648437-4.742188-19.945312-4.59375-30.609375.113281-8.164062 1.253906-16.078125 3.292968-23.628906h-24.949218c-.199219.617187-.386719 1.242187-.570313 1.867187-.128906.4375-.25.875-.375 1.3125-.246094.890626-.480469 1.789063-.699219 2.691407-.128906.542969-.257812 1.089843-.375 1.636719-.113281.515624-.230468 1.027343-.332031 1.542968-.003906.011719-.003906.019532-.003906.027344-.195313.984375-.371094 1.96875-.53125 2.964844-.019531.125-.039063.253906-.058594.382812-.070313.457032-.128906.921875-.191406 1.382813-.101563.71875-.195313 1.4375-.277344 2.164062-.054687.503907-.105469 1.011719-.148437 1.519531-.074219.808594-.136719 1.625-.1875 2.445313-.019532.371094-.046876.738281-.066407 1.105469 0 .039062-.003906.078125-.003906.117187-.003906.03125-.003906.0625-.007813.09375-.015624.40625-.03125.8125-.042968 1.222657-.027344.832031-.050782 1.667968-.050782 2.511718 0 1.34375.035157 2.683594.101563 4.011719.003906.117187.019531.234375.023437.351563zm0 0" fill="#ff624b"/><path d="m45.921875 426.71875c.976563.765625 1.972656 1.511719 2.988281 2.234375.128906.089844.261719.183594.394532.277344.957031.671875 1.929687 1.324219 2.917968 1.957031.148438.097656.300782.195312.453125.289062 1.007813.636719 2.027344 1.25 3.066407 1.84375.121093.070313.238281.140626.359374.210938 1.152344.648438 2.316407 1.273438 3.503907 1.871094.003906.003906.011719.007812.015625.007812.074218.039063.144531.074219.21875.113282.574218.285156 1.160156.554687 1.746094.828124.386718.179688.769531.367188 1.160156.542969.128906.058594.257812.117188.386718.171875.429688.195313.871094.371094 1.304688.558594.550781.230469 1.097656.464844 1.65625.683594.132812.050781.269531.105468.40625.160156.339844.132812.683594.257812 1.023438.386719.679687.253906 1.359374.503906 2.042968.738281.117188.039062.238282.082031.355469.121094 2.378906.808594 4.808594 1.507812 7.285156 2.097656.136719.03125.277344.0625.417969.09375.890625.207031 1.785156.402344 2.6875.578125.175781.035156.347656.070313.523438.101563.105468.019531.210937.039062.3125.058593.964843.175781 1.929687.339844 2.90625.484375.09375.015625.1875.03125.28125.042969-7.175782-4.636719-13.695313-10.214844-19.394532-16.535156h-19.128906c.035156.027343.070312.054687.109375.082031zm0 0" fill="#ff624b"/><path d="m99.347656 313.71875c0 8.285156-6.71875 15-15 15-8.285156 0-15-6.714844-15-15s6.714844-15 15-15c8.28125 0 15 6.714844 15 15zm0 0" fill="#ff4b34"/><path d="m119.375 129.121094c-3.3125 0-6-2.6875-6-6v-23.324219c0-3.316406 2.6875-6 6-6s6 2.683594 6 6v23.324219c0 3.3125-2.6875 6-6 6zm0 0" fill="#ffeacf"/><path d="m119.375 252.175781c-3.3125 0-6-2.683593-6-6v-90.859375c0-3.3125 2.6875-6 6-6s6 2.6875 6 6v90.859375c0 3.316407-2.6875 6-6 6zm0 0" fill="#ffeacf"/><path d="m161.203125 371.648438c-.1875 0-.378906-.011719-.574219-.027344-3.296875-.3125-5.71875-3.242188-5.40625-6.539063 3.339844-35.253906-19.726562-48.589843-20.710937-49.144531-2.878907-1.609375-3.933594-5.253906-2.339844-8.140625 1.597656-2.890625 5.207031-3.957031 8.105469-2.378906 1.269531.6875 31.003906 17.398437 26.894531 60.796875-.296875 3.105468-2.910156 5.433594-5.96875 5.433594zm0 0" fill="#ffeacf"/><path d="m243.859375 127.289062s0 0-.003906 0c-3.3125 0-5.996094-2.6875-5.996094-6.003906.011719-37.628906-22.40625-44.988281-23.363281-45.28125-3.183594-.917968-4.992188-4.234375-4.078125-7.417968.917969-3.183594 4.265625-5.015626 7.453125-4.101563 1.304687.378906 32.003906 9.75 31.988281 56.804687 0 3.3125-2.6875 6-6 6zm0 0" fill="#fff4c1"/></svg>