<svg height="427pt" viewBox="-1 0 427 427.50005" width="427pt" xmlns="http://www.w3.org/2000/svg"><path d="m351.960938 427.5h-151.332032c-20.160156 0-36.5625-16.820312-36.5625-37.5v-209.1875c0-4.140625 3.359375-7.5 7.5-7.5 4.144532 0 7.5 3.359375 7.5 7.5v209.1875c0 12.40625 9.675782 22.5 21.5625 22.5h151.332032c11.890624 0 21.5625-10.09375 21.5625-22.5v-144c0-4.140625 3.355468-7.5 7.5-7.5 4.144531 0 7.5 3.359375 7.5 7.5v144c0 20.679688-16.402344 37.5-36.5625 37.5zm0 0" fill="#a56021"/><path d="m174 282.804688c149.132812-13.449219 136.710938-128.09375 129.085938-163.914063-1.289063-6.050781-9.125-8.566406-17.28125-5.558594-49.28125 18.167969-202.359376 83.085938-127.085938 164.746094 3.292969 3.574219 8.902344 5.300781 15.28125 4.726563zm0 0" fill="#ccc033"/><path d="m304.851562 128.460938c-.566406-3.601563-1.179687-6.820313-1.765624-9.574219-1.289063-6.046875-9.125-8.5625-17.28125-5.554688-22.386719 8.253907-66.195313 26.152344-100.285157 50.890625-.617187.445313-1.230469.898438-1.84375 1.351563-.082031.058593-.164062.121093-.246093.183593-.53125.394532-1.058594.792969-1.585938 1.1875-.113281.085938-.226562.175782-.339844.261719-.492187.371094-.980468.746094-1.46875 1.125-.132812.105469-.269531.210938-.40625.316407-.464844.359374-.925781.722656-1.386718 1.085937-.144532.113281-.285157.226563-.421876.335937-.460937.367188-.917968.734376-1.371093 1.101563-.132813.105469-.269531.21875-.402344.328125-.464844.375-.925781.753906-1.382813 1.136719-.121093.097656-.238281.195312-.359374.292969-.480469.402343-.960938.808593-1.4375 1.214843-.089844.078125-.183594.152344-.273438.230469-.546875.46875-1.09375.941406-1.632812 1.417969-.011719.007812-.027344.019531-.039063.03125-1.699219 1.492187-3.355469 3.003906-4.960937 4.535156-.066407.0625-.128907.125-.195313.1875-.453125.433594-.90625.871094-1.351563 1.308594-.113281.113281-.226562.222656-.339843.335937-.394531.390625-.789063.78125-1.175781 1.175782-.132813.136718-.269532.273437-.402344.410156-.363282.371094-.71875.738281-1.078125 1.113281-.144531.152344-.289063.304687-.433594.457031-.339844.359375-.683594.722656-1.019531 1.082032-.144532.160156-.292969.320312-.4375.476562-.332032.363281-.660156.726562-.988282 1.089844-.140624.15625-.28125.316406-.421874.472656-.328126.371094-.652344.746094-.976563 1.117188-.128906.152343-.261719.304687-.390625.453124-.335938.394532-.667969.789063-.996094 1.183594-.109375.128906-.21875.261719-.328125.394532-.378906.457031-.746093.914062-1.113281 1.375-.054688.066406-.109375.136718-.164062.203124-.859376 1.085938-1.695313 2.183594-2.496094 3.285157-.011719.015625-.023438.03125-.035156.050781-.375.519531-.746094 1.039062-1.109376 1.5625-.089843.125-.175781.253906-.261718.378906-.285156.414063-.566406.828125-.839844 1.246094-.113281.164062-.21875.332031-.328125.5-.246094.378906-.492187.757812-.734375 1.140625-.117188.183594-.230469.367187-.34375.554687-.226562.363282-.449219.730469-.667969 1.09375-.121093.195313-.234375.394532-.351562.59375-.210938.355469-.417969.714844-.621094 1.074219-.113281.203125-.226563.40625-.339844.609375-.199219.355469-.390625.714844-.582031 1.074219-.109375.203125-.21875.40625-.324219.609375-.191406.367188-.375.734375-.558593 1.105469-.097657.195312-.195313.390625-.292969.582031-.1875.390625-.367188.777344-.546875 1.164062-.085938.179688-.171875.359376-.25.539063-.199219.433594-.386719.871094-.574219 1.304687-.054687.136719-.117187.265626-.171875.402344-.484375 1.152344-.933594 2.3125-1.34375 3.480469-.039062.109375-.074219.21875-.109375.332031-.160156.464844-.316406.929688-.46875 1.398438-.054687.183594-.109375.367187-.164063.550781-.125.398437-.242187.796875-.355468 1.195313-.0625.210937-.117188.425781-.171875.636718-.101563.371094-.199219.746094-.292969 1.117188-.054688.230468-.109375.457031-.160156.6875-.085938.359375-.167969.71875-.242188 1.078125-.050781.238281-.097656.476562-.148437.710937-.070313.355469-.136719.714844-.199219 1.070313-.042969.242187-.082031.480469-.125.722656-.058594.359375-.109375.714844-.160156 1.074219-.035156.238281-.070313.480468-.101563.722656-.042969.363281-.085937.726562-.125 1.09375-.023437.234375-.050781.46875-.070312.707031-.035157.378907-.0625.761719-.089844 1.148438-.015625.21875-.03125.4375-.042969.65625-.023437.425781-.039062.855469-.050781 1.28125-.003906.175781-.015625.355469-.019531.535156-.023438 1.214844 0 2.441406.066406 3.671875.007812.167969.023438.339844.035156.511719.027344.441406.058594.882812.097656 1.324219.023438.230468.050782.457031.074219.683593.039063.386719.082031.777344.128907 1.167969.035156.25.070312.496094.105468.746094.054688.371094.109375.742187.171875 1.113281.042969.257813.089844.519531.136719.78125.066406.363281.132812.726563.207031 1.089844.054688.265625.113281.53125.171875.796875.078125.363281.160156.722656.25 1.085937.0625.265625.128906.535157.199219.804688.09375.363281.191406.726562.296875 1.09375.074219.265625.148438.53125.226562.796875.109376.371094.226563.742187.34375 1.113281.085938.265625.167969.527344.253907.789063.128906.386718.269531.773437.40625 1.160156.089843.246094.175781.496094.269531.746094.160156.429687.332031.859374.503906 1.289062.082032.207031.160156.414062.246094.621094.253906.617187.523438 1.238281.804688 1.863281.007812.015625.015624.035156.023437.054687.289063.640626.59375 1.285157.910156 1.929688.101563.207031.210938.414062.316407.621094.21875.4375.441406.875.675781 1.3125.132812.25.273437.503906.410156.753906.21875.398438.433594.792969.664063 1.191406.152343.269532.3125.539063.472656.808594.222656.378906.445312.757812.679687 1.140625.171875.28125.347657.5625.527344.84375.234375.371094.472656.746094.714844 1.117187.1875.285157.375.570313.566406.855469.25.371094.503906.746094.765625 1.121094.195312.285156.398438.570313.597656.855469.269532.375.546875.753906.824219 1.132812.207031.28125.414063.5625.628906.847656.289063.382813.585938.769532.886719 1.152344.214844.277344.429688.558594.648438.835938.320312.398437.648437.800781.976562 1.203125.214844.261719.425781.523437.644531.785156.375.445313.757813.890625 1.144531 1.339844.191407.21875.375.4375.566407.65625.585937.667969 1.1875 1.335937 1.804687 2.003906.289063.316406.609375.613281.9375.898437.148438.128907.304688.25.460938.371094.171875.136719.34375.265625.523437.394532.214844.152343.429688.300781.652344.441406.101563.0625.203125.121094.304687.179687.695313.414063 1.421876.792969 2.203126 1.113281 3.386718.339844 6.832031.640626 10.363281.886719 1.582031.109375 3.105469.074219 4.585937-.046875.484375-.050781.976563-.09375 1.457032-.148437 5.011718-.675781 9.265624-2.671875 12.039062-5.808594 31.582031-35.707031 27.902344-68.097656 7.507812-95.882813 34.082032-24.722656 77.859376-42.617187 100.242188-50.867187 1.648438-.605469 3.28125-.976563 4.851562-1.148437zm0 0" fill="#99af17"/><path d="m147.496094 287.226562c-175.914063-29.480468-150.777344-164.523437-138.472656-206.382812 2.078124-7.066406 11.613281-9.34375 21.027343-5.03125 56.890625 26.042969 232.828125 117.011719 136.023438 207.1875-4.234375 3.945312-11.054688 5.488281-18.578125 4.226562zm0 0" fill="#eacf32"/><path d="m41.472656 81.179688c-4.175781-2.011719-8.015625-3.808594-11.421875-5.367188-9.417969-4.3125-18.953125-2.035156-21.027343 5.03125-12.304688 41.859375-37.445313 176.902344 138.472656 206.386719 7.523437 1.257812 14.34375-.285157 18.578125-4.230469 4.039062-3.761719 7.59375-7.527344 10.714843-11.292969-151.804687-28.699219-146.6875-138.875-135.316406-190.527343zm0 0" fill="#ccc033"/><path d="m162.394531 260.667969c-1.71875 0-3.421875-.734375-4.605469-2.152344l-46.25-55.320313c-2.125-2.542968-1.789062-6.328124.753907-8.453124s6.324219-1.789063 8.449219.753906l46.25 55.320312c2.125 2.542969 1.789062 6.328125-.753907 8.453125-1.121093.941407-2.488281 1.398438-3.84375 1.398438zm0 0" fill="#fcda4f"/><path d="m368.378906 212.984375h-18.207031v-60.492187c0-4.96875 4.027344-9 9-9h.207031c4.972656 0 9 4.03125 9 9zm0 0" fill="#ffd59a"/><path d="m411.875 212.984375h-18.207031v-60.492187c0-4.96875 4.03125-9 9-9h.207031c4.972656 0 9 4.03125 9 9zm0 0" fill="#ffd59a"/><path d="m364.777344 145.300781c-1.507813-1.128906-3.371094-1.808593-5.398438-1.808593h-.207031c-4.972656 0-9 4.03125-9 9v60.492187h11v-60.492187c0-2.941407 1.417969-5.546876 3.605469-7.191407zm0 0" fill="#ffc34c"/><path d="m408.273438 145.300781c-1.503907-1.128906-3.371094-1.808593-5.398438-1.808593h-.207031c-4.96875 0-9 4.03125-9 9v60.492187h11v-60.492187c0-2.941407 1.417969-5.546876 3.605469-7.191407zm0 0" fill="#ffc34c"/><path d="m405.027344 284.804688h-48.003906c-11.046876 0-20-8.957032-20-20v-67.085938c0-4.417969 3.582031-8 8-8h72.003906c4.417968 0 8 3.582031 8 8v67.085938c0 11.042968-8.957032 20-20 20zm0 0" fill="#db9c2e"/><path d="m387.023438 271.804688c-11.046876 0-20-8.957032-20-20v-62.085938h-22c-4.417969 0-8 3.582031-8 8v67.085938c0 11.042968 8.953124 20 20 20h48.003906c8.578125 0 15.875-5.414063 18.714844-13zm0 0" fill="#bf6c0d"/><path d="m402.773438 215.015625c0 8.285156-6.714844 15-15 15-8.285157 0-15-6.714844-15-15s6.714843-15 15-15c8.285156 0 15 6.714844 15 15zm0 0" fill="#bf6c0d"/><path d="m169.957031 150.53125c-1.933593 0-3.890625-.507812-5.667969-1.578125-5.203124-3.136719-6.878906-9.898437-3.746093-15.101563l29.519531-48.984374-15.921875 4.789062c-5.667969 1.703125-11.757813-.046875-15.511719-4.464844-3.636718-4.277344-4.386718-10.328125-1.90625-15.414062l31.011719-63.59375c2.664063-5.460938 9.25-7.734375 14.707031-5.066406 5.460938 2.660156 7.730469 9.246093 5.066406 14.707031l-23.328124 47.839843 18.171874-5.464843c5.9375-1.785157 12.183594.15625 15.90625 4.953125 3.617188 4.652344 3.972657 10.957031.898438 16.054687l-39.769531 66c-2.0625 3.429688-5.699219 5.324219-9.429688 5.324219zm0 0" fill="#ffd551"/><path d="m251.558594 187.070312c0 8.285157-6.714844 15-15 15s-15-6.714843-15-15c0-8.285156 6.714844-15 15-15s15 6.714844 15 15zm0 0" fill="#99af17"/><path d="m178.289062 137.953125c-5.203124-3.136719-6.878906-9.898437-3.746093-15.101563l29.519531-48.984374-15.921875 4.789062c-5.667969 1.703125-11.757813-.046875-15.511719-4.464844-3.636718-4.277344-4.386718-10.328125-1.90625-15.414062l28.597656-58.644532c-4.648437-.730468-9.417968 1.601563-11.585937 6.050782l-31.015625 63.59375c-2.476562 5.085937-1.730469 11.136718 1.910156 15.414062 3.753906 4.417969 9.84375 6.167969 15.511719 4.464844l15.917969-4.789062-29.515625 48.984374c-3.132813 5.203126-1.457031 11.964844 3.746093 15.101563 1.777344 1.070313 3.734376 1.578125 5.667969 1.578125 3.726563 0 7.367188-1.894531 9.429688-5.324219l3.464843-5.746093c-1.566406-.160157-3.125-.644532-4.5625-1.507813zm0 0" fill="#ffc34c"/><path d="m411.875 267.503906c-3.3125 0-6-2.6875-6-6v-27.335937c0-3.3125 2.6875-6 6-6s6 2.6875 6 6v27.335937c0 3.3125-2.683594 6-6 6zm0 0" fill="#f9bb32"/></svg>