<svg height="452pt" viewBox="-54 0 452 452.74387" width="452pt" xmlns="http://www.w3.org/2000/svg"><g fill="#ffc34c"><path d="m163.578125 149.496094h16.8125v268.839844h-16.8125zm0 0"/><path d="m163.578125 149.496094h16.8125v268.839844h-16.8125zm0 0"/><path d="m208.21875 271.976562v-122.480468h-16.8125v139.292968c0 4.417969 3.582031 8 8 8h109.6875v-16.8125h-92.875c-4.417969 0-8-3.582031-8-8zm0 0"/><path d="m298.078125 354.582031v16.8125h-117.6875v-16.8125zm0 0"/><path d="m135.75 191.527344v122.480468c0 4.417969-3.582031 8-8 8h-92.875v16.8125h109.6875c4.417969 0 8-3.582031 8-8v-139.292968zm0 0"/></g><path d="m45.382812 330.414062c0 12.429688-10.074218 22.503907-22.503906 22.503907-12.429687 0-22.507812-10.074219-22.507812-22.503907 0-12.429687 10.078125-22.507812 22.507812-22.507812 12.429688 0 22.503906 10.078125 22.503906 22.507812zm0 0" fill="#ff624b"/><path d="m331.703125 364.039062c0 12.429688-10.074219 22.503907-22.503906 22.503907-12.429688 0-22.507813-10.074219-22.507813-22.503907 0-12.429687 10.078125-22.507812 22.507813-22.507812 12.429687 0 22.503906 10.078125 22.503906 22.507812zm0 0" fill="#99af17"/><path d="m343.769531 289.433594c0 12.429687-10.074219 22.507812-22.503906 22.507812s-22.507813-10.078125-22.507813-22.507812c0-12.429688 10.078126-22.503906 22.507813-22.503906s22.503906 10.074218 22.503906 22.503906zm0 0" fill="#fce575"/><path d="m195.101562 430.238281c0 12.429688-10.074218 22.503907-22.503906 22.503907-12.429687 0-22.507812-10.074219-22.507812-22.503907 0-12.429687 10.078125-22.507812 22.507812-22.507812 12.429688 0 22.503906 10.078125 22.503906 22.507812zm0 0" fill="#bf6c0d"/><path d="m192.390625 209.175781c149.132813-13.445312 136.714844-128.09375 129.085937-163.914062-1.285156-6.050781-9.121093-8.5625-17.28125-5.558594-49.28125 18.167969-202.359374 83.085937-127.085937 164.75 3.292969 3.570313 8.902344 5.296875 15.28125 4.722656zm0 0" fill="#ccc033"/><path d="m323.242188 54.832031c-.566407-3.601562-1.179688-6.820312-1.765626-9.570312-1.285156-6.050781-9.121093-8.566407-17.28125-5.558594-22.386718 8.253906-66.195312 26.15625-100.285156 50.890625-.617187.445312-1.230468.898438-1.839844 1.351562-.085937.0625-.167968.121094-.25.183594-.53125.394532-1.058593.792969-1.585937 1.191406-.113281.085938-.226563.171876-.339844.257813-.492187.371094-.980469.746094-1.464843 1.125-.136719.105469-.273438.210937-.410157.316406-.464843.363281-.925781.722657-1.386719 1.089844-.140624.109375-.28125.222656-.421874.332031-.460938.367188-.917969.734375-1.371094 1.101563-.132813.109375-.269532.21875-.402344.328125-.464844.375-.925781.753906-1.382812 1.136718-.121094.097657-.238282.195313-.355469.292969-.484375.402344-.964844.808594-1.441407 1.214844-.089843.078125-.183593.152344-.273437.230469-.546875.472656-1.09375.941406-1.632813 1.417968-.011718.011719-.027343.019532-.039062.03125-1.699219 1.492188-3.355469 3.003907-4.960938 4.535157-.066406.0625-.128906.125-.195312.1875-.453125.433593-.90625.871093-1.347656 1.308593-.117188.113282-.230469.226563-.34375.339844-.394532.386719-.785156.78125-1.175782 1.171875-.132812.136719-.265624.273438-.402343.410157-.359375.371093-.71875.742187-1.074219 1.113281-.148438.152343-.292969.304687-.4375.457031-.339844.359375-.679688.722656-1.015625 1.085938-.148437.15625-.296875.316406-.441406.476562-.332031.359375-.660157.722656-.988281 1.085938-.140626.160156-.28125.316406-.417969.472656-.332031.371094-.65625.746094-.980469 1.117187-.128906.152344-.261719.304688-.390625.453125-.335937.394532-.667969.789063-.996094 1.183594-.109375.132812-.21875.261719-.328125.394531-.375.457031-.746094.914063-1.113281 1.375-.054687.070313-.109375.136719-.164063.203125-.859374 1.089844-1.691406 2.183594-2.496093 3.285156-.011719.015626-.023438.035157-.035157.050782-.375.519531-.746093 1.039062-1.109374 1.5625-.085938.125-.171876.253906-.261719.382812-.28125.410156-.566407.824219-.839844 1.242188-.109375.164062-.21875.332031-.328125.5-.246094.378906-.492188.757812-.734375 1.140625-.117187.183593-.230469.371093-.34375.554687-.226563.363282-.449219.730469-.667969 1.09375-.117187.199219-.234375.394532-.351562.59375-.210938.355469-.417969.714844-.621094 1.074219-.113281.203125-.226562.40625-.339844.609375-.195312.359375-.390625.714844-.582031 1.074219-.109375.203125-.214844.40625-.320313.609375-.191406.367187-.378906.738281-.5625 1.105468-.097656.195313-.195312.390626-.289062.585938-.1875.386719-.371094.773438-.550781 1.160156-.082031.179688-.167969.359375-.25.539063-.199219.433593-.386719.871093-.574219 1.304687-.054688.136719-.117188.269532-.171875.402344-.484375 1.152344-.929687 2.3125-1.339844 3.480469-.039062.109375-.074219.222656-.113281.332031-.160156.464844-.316406.933594-.464844 1.402344-.058594.179687-.113281.367187-.167968.546875-.121094.398437-.242188.796875-.355469 1.199219-.058594.210937-.113281.421874-.171875.632812-.101563.371094-.199219.746094-.292969 1.117188-.054687.230468-.105469.460937-.160156.6875-.085938.359374-.167969.71875-.242188 1.078124-.050781.238282-.097656.476563-.144531.710938-.074219.359375-.140625.714844-.203125 1.070312-.042969.242188-.082031.484376-.125.722657-.054687.359375-.109375.714843-.160156 1.074219-.035157.242187-.066407.480468-.097657.722656-.046874.363281-.085937.730468-.125 1.09375-.027343.234375-.050781.46875-.074218.707031-.035156.382813-.0625.765625-.089844 1.148437-.011719.21875-.03125.4375-.042969.660157-.023437.421875-.039062.851562-.050781 1.277343-.003906.179688-.015625.355469-.015625.535157-.023437 1.21875-.003906 2.441406.0625 3.671875.007813.171875.023437.34375.035156.511718.027344.441407.058594.882813.097657 1.328126.023437.226562.050781.453124.074218.679687.039063.390625.082032.777344.132813 1.167969.03125.25.070312.496094.105469.746094.050781.371093.105468.742187.167968 1.113281.042969.261719.089844.519531.136719.78125.066406.363281.132813.726562.207031 1.089843.054688.265626.113282.53125.171875.796876.078125.363281.164063.722656.25 1.085937.066407.265625.128907.535156.199219.804687.09375.363282.195312.726563.296875 1.09375.074219.265626.148437.53125.226563.800782.109374.371094.226562.742187.347656 1.109375.082031.265625.164062.527343.253906.789062.128906.386719.265625.773438.402344 1.160157.089844.25.175781.496093.269531.746093.160156.429688.332031.859375.503906 1.289063.082031.207031.160157.414062.246094.621094.253906.621093.523437 1.242187.804687 1.863281.007813.019531.015626.039062.023438.054687.289062.640625.59375 1.285156.910156 1.929688.101563.207031.210938.414062.316406.621094.21875.4375.441407.875.675782 1.3125.132812.25.273437.503906.410156.753906.21875.398437.4375.792968.664062 1.191406.152344.269531.3125.539062.472657.808594.222656.378906.445312.757812.679687 1.140625.171875.28125.347656.5625.527344.84375.234375.371093.472656.746093.714844 1.117187.1875.285156.375.570313.566406.855469.25.375.503906.746094.765625 1.121094.199219.285156.398437.570312.601563.855469.265624.375.542968.753906.820312 1.132812.207031.28125.414062.566406.628906.847656.289063.382813.585938.769532.886719 1.152344.214844.28125.429687.558594.648437.835938.320313.402343.648438.804687.976563 1.203124.21875.261719.429687.523438.648437.785157.371094.445312.757813.894531 1.144532 1.339843.1875.21875.371094.4375.566406.65625.585938.667969 1.183594 1.335938 1.800781 2.003907.292969.316406.609375.613281.9375.898437.148438.128906.304688.25.460938.371094.171875.136719.347656.265625.527343.394531.210938.152344.429688.300781.652344.445313.097656.058594.203125.117187.300782.175781.695312.414063 1.421874.796875 2.207031 1.113281 3.382812.339844 6.832031.640625 10.363281.886719 1.578125.109375 3.101562.074219 4.582031-.046875.484375-.050781.980469-.09375 1.457031-.148438 5.015626-.675781 9.269532-2.671874 12.039063-5.804687 31.582031-35.710937 27.902344-68.101563 7.511719-95.886719 34.082031-24.722656 77.859375-42.613281 100.238281-50.863281 1.648437-.609375 3.28125-.980469 4.851563-1.152344zm0 0" fill="#99af17"/><path d="m165.886719 213.601562c-175.914063-29.484374-150.777344-164.527343-138.472657-206.382812 2.078126-7.070312 11.613282-9.347656 21.027344-5.035156 56.890625 26.042968 232.828125 117.011718 136.023438 207.1875-4.234375 3.945312-11.054688 5.488281-18.578125 4.230468zm0 0" fill="#eacf32"/><path d="m59.867188 7.550781c-4.179688-2.011719-8.015626-3.808593-11.425782-5.367187-9.414062-4.3125-18.949218-2.035156-21.027344 5.035156-12.304687 41.855469-37.441406 176.898438 138.472657 206.382812 7.523437 1.257813 14.34375-.285156 18.578125-4.230468 4.039062-3.761719 7.597656-7.527344 10.714844-11.292969-151.804688-28.695313-146.6875-138.875-135.3125-190.527344zm0 0" fill="#ccc033"/><path d="m180.785156 187.039062c-1.714844 0-3.421875-.730468-4.605468-2.152343l-46.25-55.320313c-2.125-2.542968-1.789063-6.328125.753906-8.453125 2.542968-2.125 6.328125-1.789062 8.453125.753907l46.25 55.324218c2.125 2.539063 1.785156 6.324219-.753907 8.449219-1.125.941406-2.492187 1.398437-3.847656 1.398437zm0 0" fill="#fcda4f"/><path d="m93.71875 53.144531c0 8.285157-6.714844 15-15 15-8.28125 0-15-6.714843-15-15 0-8.285156 6.71875-15 15-15 8.285156 0 15 6.714844 15 15zm0 0" fill="#ccc033"/><path d="m271.070312 171.019531c-2.453124 0-4.757812-1.519531-5.640624-3.960937-1.128907-3.113282.484374-6.554688 3.601562-7.683594 18.074219-6.539062 30.839844-39.542969 34.230469-51.710938.890625-3.191406 4.195312-5.058593 7.390625-4.171874 3.191406.890624 5.058594 4.195312 4.171875 7.386718-.5625 2.027344-14.117188 49.800782-41.710938 59.78125-.675781.246094-1.363281.359375-2.042969.359375zm0 0" fill="#eacf32"/></svg>