<svg height="479pt" viewBox="-142 0 479 479.57348" width="479pt" xmlns="http://www.w3.org/2000/svg"><path d="m98.878906 479.574219h-1.390625c-27.625 0-50.019531-22.398438-50.019531-50.023438v-50.175781c0-.054688.042969-.097656.09375-.097656h101.242188c.054687 0 .097656.042968.097656.097656v50.175781c-.003906 27.625-22.398438 50.023438-50.023438 50.023438zm0 0" fill="#ffa730"/><path d="m142.371094 392.070312h-58.90625v-12.695312c0-.054688.042968-.097656.097656-.097656h-36c-.054688 0-.097656.042968-.097656.097656v50.175781c0 .757813.023437 1.511719.058594 2.265625.011718.265625.027343.527344.046874.792969.027344.484375.066407.96875.109376 1.449219.027343.304687.050781.609375.082031.914062.070312.648438.152343 1.292969.246093 1.933594 3.558594 24.136719 24.355469 42.667969 49.480469 42.667969h1.390625c6.082032 0 11.910156-1.089844 17.304688-3.078125-14.5625-5.371094-25.933594-17.320313-30.515625-32.246094-.980469-3.1875 1.464843-6.402344 4.800781-6.402344h51.898438c2.085937 0 4.09375-.320312 5.984374-.914062.359376-2.410156.546876-4.875.546876-7.382813v-36.367187c-2.046876-.710938-4.238282-1.113282-6.527344-1.113282zm0 0" fill="#e58d23"/><path d="m142.371094 427.847656h-88.375c-11.042969 0-20-8.953125-20-20v-5.777344c0-11.042968 8.957031-20 20-20h88.375c11.042968 0 20 8.957032 20 20v5.777344c0 11.046875-8.957032 20-20 20zm0 0" fill="#ffa730"/><path d="m73.996094 423.070312c0-11.046874 8.957031-20 20-20h68.375v-1c0-11.046874-8.957032-20-20-20h-88.375c-11.042969 0-20 8.953126-20 20v5.777344c0 11.046875 8.957031 20 20 20h20zm0 0" fill="#e58d23"/><path d="m30.375 222.445312h51.742188v73.214844h-51.742188zm0 0" fill="#ffdf74"/><path d="m30.375 222.445312h25.460938v73.214844h-25.460938zm0 0" fill="#ffd551"/><path d="m34.269531 271.949219 47.847657-16.394531v-33.109376h-51.742188v50.457032c1.304688-.210938 2.609375-.511719 3.894531-.953125zm0 0" fill="#ffd551"/><path d="m114.25 191.621094h51.742188v104.039062h-51.742188zm0 0" fill="#ffd551"/><g fill="#ffdf74"><path d="m181.378906 94.496094-147.109375 50.402344c-11.554687 3.957031-24.304687-1.726563-28.472656-12.699219l-4.183594-11.007813c-4.167969-10.972656 1.816407-23.078125 13.375-27.035156l147.105469-50.402344c11.554688-3.957031 24.304688 1.726563 28.476562 12.699219l4.183594 11.007813c4.167969 10.972656-1.820312 23.078124-13.375 27.035156zm0 0"/><path d="m181.378906 152.234375-147.109375 50.402344c-11.554687 3.957031-24.304687-1.726563-28.472656-12.699219l-4.183594-11.007812c-4.167969-10.972657 1.816407-23.078126 13.375-27.039063l147.105469-50.398437c11.554688-3.957032 24.304688 1.726562 28.476562 12.699218l4.183594 11.007813c4.167969 10.972656-1.820312 23.078125-13.375 27.035156zm0 0"/><path d="m141.558594 52.003906-96.804688 33.164063c-11.554687 3.960937-24.304687-1.726563-28.472656-12.699219l-4.183594-11.007812c-4.171875-10.972657 1.816406-23.078126 13.375-27.035157l96.800782-33.167969c11.558593-3.957031 24.304687 1.726563 28.476562 12.699219l4.183594 11.007813c4.167968 10.972656-1.816406 23.078125-13.375 27.039062zm0 0"/><path d="m181.378906 209.972656-147.109375 50.402344c-11.554687 3.957031-24.304687-1.726562-28.472656-12.699219l-4.183594-11.007812c-4.167969-10.972657 1.816407-23.078125 13.375-27.035157l147.105469-50.402343c11.554688-3.957031 24.304688 1.726562 28.476562 12.699219l4.183594 11.007812c4.167969 10.972656-1.820312 23.078125-13.375 27.035156zm0 0"/><path d="m141.558594 52.003906-96.804688 33.164063c-11.554687 3.960937-24.304687-1.726563-28.472656-12.699219l-4.183594-11.007812c-4.171875-10.972657 1.816406-23.078126 13.375-27.035157l96.800782-33.167969c11.558593-3.957031 24.304687 1.726563 28.476562 12.699219l4.183594 11.007813c4.167968 10.972656-1.816406 23.078125-13.375 27.039062zm0 0"/></g><path d="m62.574219 72.46875-4.183594-11.007812c-4.167969-10.972657 1.820313-23.078126 13.375-27.035157l75.847656-25.984375c-5.714843-7.226562-15.921875-10.40625-25.339843-7.179687l-96.800782 33.164062c-11.558594 3.960938-17.546875 16.066407-13.375 27.039063l4.183594 11.003906c4.167969 10.976562 16.917969 16.660156 28.472656 12.699219l20.957032-7.179688c-1.292969-1.640625-2.363282-3.488281-3.136719-5.519531zm0 0" fill="#ffd551"/><path d="m52.089844 132.199219-4.179688-11.007813c-4.171875-10.972656 1.816406-23.078125 13.371094-27.035156l126.152344-43.222656c-5.714844-7.226563-15.921875-10.40625-25.339844-7.179688l-147.105469 50.402344c-11.554687 3.957031-17.542969 16.0625-13.375 27.035156l4.183594 11.007813c4.171875 10.972656 16.917969 16.65625 28.476563 12.699219l20.957031-7.179688c-1.300781-1.640625-2.367188-3.488281-3.140625-5.519531zm0 0" fill="#ffd551"/><path d="m52.089844 189.9375-4.179688-11.007812c-4.171875-10.972657 1.816406-23.078126 13.371094-27.035157l126.152344-43.222656c-5.714844-7.222656-15.921875-10.40625-25.339844-7.179687l-147.105469 50.402343c-11.554687 3.957031-17.542969 16.0625-13.375 27.035157l4.183594 11.007812c4.171875 10.972656 16.917969 16.65625 28.476563 12.699219l20.957031-7.179688c-1.300781-1.640625-2.367188-3.488281-3.140625-5.519531zm0 0" fill="#ffd551"/><path d="m52.089844 247.675781-4.179688-11.007812c-4.171875-10.972657 1.816406-23.078125 13.371094-27.035157l126.152344-43.222656c-5.714844-7.226562-15.921875-10.40625-25.339844-7.179687l-147.105469 50.402343c-11.554687 3.957032-17.542969 16.0625-13.375 27.035157l4.183594 11.007812c4.171875 10.972657 16.917969 16.65625 28.476563 12.699219l20.957031-7.179688c-1.300781-1.640624-2.367188-3.488281-3.140625-5.519531zm0 0" fill="#ffd551"/><path d="m150.242188 392.277344h-104.117188c-11.046875 0-20-8.953125-20-20v-5.777344c0-11.046875 8.953125-20 20-20h104.117188c11.046874 0 20 8.953125 20 20v5.777344c0 11.046875-8.953126 20-20 20zm0 0" fill="#ffa730"/><path d="m67.429688 387.5c0-11.046875 9.246093-20 20.652343-20h82.160157v-1c0-11.046875-9.246094-20-20.652344-20h-102.8125c-11.40625 0-20.652344 8.953125-20.652344 20v5.777344c0 11.046875 9.246094 20 20.652344 20h20.652344zm0 0" fill="#e58d23"/><path d="m175.679688 271.835938h-154.992188c-5.523438 0-10 4.476562-10 10v41.804687c0 16.570313 13.433594 30 30 30h114.992188c16.566406 0 30-13.429687 30-30v-41.804687c0-5.523438-4.476563-10-10-10zm0 0" fill="#ffa730"/><path d="m50.6875 324.640625v-42.804687c0-5.523438 4.476562-10 10-10h-40c-5.523438 0-10 4.476562-10 10v42.804687c0 16.570313 13.433594 30 30 30h40c-16.566406 0-30-13.429687-30-30zm0 0" fill="#e58d23"/><path d="m89.085938 300.765625c0 8.28125-6.71875 15-15 15-8.285157 0-15-6.71875-15-15 0-8.285156 6.714843-15 15-15 8.28125 0 15 6.714844 15 15zm0 0" fill="#e58d23"/><path d="m165.992188 331.652344c-3.3125 0-6-2.6875-6-6v-38.5c0-3.3125 2.6875-6 6-6s6 2.6875 6 6v38.5c0 3.3125-2.6875 6-6 6zm0 0" fill="#ffb74b"/><path d="m128.183594 100.328125c-2.464844 0-4.777344-1.53125-5.652344-3.988281-1.113281-3.121094.515625-6.554688 3.636719-7.664063l52-18.539062c3.121093-1.113281 6.554687.511719 7.667969 3.636719 1.113281 3.121093-.515626 6.554687-3.636719 7.664062l-52 18.539062c-.667969.238282-1.347657.351563-2.015625.351563zm0 0" fill="#fff4c1"/><path d="m128.183594 151.328125c-2.464844 0-4.777344-1.53125-5.652344-3.988281-1.113281-3.121094.515625-6.554688 3.636719-7.664063l52-18.539062c3.121093-1.113281 6.554687.511719 7.667969 3.636719 1.113281 3.121093-.515626 6.554687-3.636719 7.664062l-52 18.539062c-.667969.238282-1.347657.351563-2.015625.351563zm0 0" fill="#fff4c1"/><path d="m128.183594 211.328125c-2.464844 0-4.777344-1.53125-5.652344-3.988281-1.113281-3.121094.515625-6.554688 3.636719-7.664063l52-18.539062c3.121093-1.113281 6.554687.511719 7.667969 3.636719 1.113281 3.121093-.515626 6.554687-3.636719 7.664062l-52 18.539062c-.667969.238282-1.347657.351563-2.015625.351563zm0 0" fill="#fff4c1"/><path d="m102.523438 49.214844c-2.464844 0-4.777344-1.53125-5.652344-3.988282-1.113282-3.117187.515625-6.550781 3.636718-7.664062l37.660157-13.425781c3.121093-1.113281 6.554687.511719 7.667969 3.636719 1.113281 3.121093-.515626 6.554687-3.636719 7.664062l-37.660157 13.429688c-.667968.234374-1.347656.347656-2.015624.347656zm0 0" fill="#fff4c1"/><path d="m85.835938 115.234375c0 8.28125-6.714844 15-15 15-8.28125 0-15-6.71875-15-15 0-8.285156 6.71875-15 15-15 8.285156 0 15 6.714844 15 15zm0 0" fill="#ffd551"/></svg>