<svg height="456pt" viewBox="-68 0 456 456.992" width="456pt" xmlns="http://www.w3.org/2000/svg"><path d="m23.90625 51.246094h272.839844v380.5625h-272.839844zm0 0" fill="#a56021"/><path d="m23.90625 51.246094h51.121094v380.5625h-51.121094zm0 0" fill="#8c4c17"/><path d="m296.15625 456.992188h-271.660156c-13.253906 0-24-10.746094-24-24v-14.605469c0-6.625 5.371094-12 12-12h295.660156c6.628906 0 12 5.375 12 12v14.605469c0 13.253906-10.742188 24-24 24zm0 0" fill="#db9c2e"/><path d="m65.929688 442.679688c-13.550782 0-24.539063-10.988282-24.539063-24.539063v-11.753906h-28.625c-6.777344 0-12.269531 5.492187-12.269531 12.265625v13.800781c0 13.550781 10.984375 24.535156 24.539062 24.535156h270.585938c9.902344 0 18.425781-5.867187 22.304687-14.3125h-251.996093zm0 0" fill="#bf6c0d"/><path d="m23.90625 51.246094h272.839844v44.847656h-272.839844zm0 0" fill="#8c4c17"/><path d="m23.90625 242.429688h272.839844v44.847656h-272.839844zm0 0" fill="#8c4c17"/><path d="m105.628906 61.46875h-61.46875v-49.46875c0-6.628906 5.371094-12 12-12h37.46875c6.628906 0 12 5.371094 12 12zm0 0" fill="#a56021"/><path d="m91.1875 0h-34.757812c-6.777344 0-12.269532 5.492188-12.269532 12.269531v49.199219h34.761719v-49.199219c0-6.777343 5.492187-12.269531 12.265625-12.269531zm0 0" fill="#8c4c17"/><path d="m308.15625 78.714844h-295.660156c-6.628906 0-12-5.375-12-12v-26.605469c0-6.628906 5.371094-12 12-12h295.660156c6.628906 0 12 5.371094 12 12v26.605469c0 6.628906-5.371094 12-12 12zm0 0" fill="#db9c2e"/><path d="m41.390625 66.445312v-26.066406c0-6.777344 5.492187-12.269531 12.269531-12.269531h-40.894531c-6.777344 0-12.269531 5.492187-12.269531 12.269531v26.066406c0 6.777344 5.492187 12.269532 12.269531 12.269532h40.894531c-6.777344 0-12.269531-5.492188-12.269531-12.269532zm0 0" fill="#bf6c0d"/><path d="m308.15625 266.832031h-295.660156c-6.628906 0-12-5.375-12-12v-26.605469c0-6.628906 5.371094-12 12-12h295.660156c6.628906 0 12 5.371094 12 12v26.605469c0 6.625-5.371094 12-12 12zm0 0" fill="#db9c2e"/><path d="m131.285156 171.894531s-.09375-34.613281 32.273438-63.945312c1.640625-1.488281 4.136718-1.488281 5.777344 0 32.367187 29.332031 32.273437 63.945312 32.273437 63.945312l-.105469.007813c.0625.851562.105469 1.710937.105469 2.582031 0 19.417969-15.742187 35.160156-35.164063 35.160156-19.417968 0-35.160156-15.742187-35.160156-35.160156 0-.871094.042969-1.730469.105469-2.582031zm0 0" fill="#ffd551"/><path d="m156.417969 174.484375c0-.871094.042969-1.730469.105469-2.582031l-.105469-.007813s-.070313-27.308593 22.597656-53.96875c-2.855469-3.355469-6.0625-6.699219-9.679687-9.976562-1.640626-1.484375-4.136719-1.484375-5.777344 0-32.367188 29.332031-32.273438 63.945312-32.273438 63.945312l.105469.007813c-.0625.851562-.105469 1.710937-.105469 2.582031 0 19.417969 15.742188 35.160156 35.164063 35.160156 4.429687 0 8.660156-.828125 12.566406-2.320312-13.210937-5.058594-22.597656-17.851563-22.597656-32.839844zm0 0" fill="#ffc34c"/><path d="m41.390625 254.5625v-26.070312c0-6.773438 5.492187-12.265626 12.269531-12.265626h-40.894531c-6.777344 0-12.269531 5.492188-12.269531 12.265626v26.070312c0 6.777344 5.492187 12.265625 12.269531 12.265625h40.894531c-6.777344 0-12.269531-5.488281-12.269531-12.265625zm0 0" fill="#bf6c0d"/><path d="m113.335938 335.398438c0 8.46875-6.867188 15.335937-15.335938 15.335937s-15.335938-6.867187-15.335938-15.335937 6.867188-15.335938 15.335938-15.335938 15.335938 6.867188 15.335938 15.335938zm0 0" fill="#8c4c17"/><path d="m146.621094 368.050781c0 8.46875-6.867188 15.335938-15.335938 15.335938s-15.335937-6.867188-15.335937-15.335938 6.867187-15.335937 15.335937-15.335937 15.335938 6.867187 15.335938 15.335937zm0 0" fill="#8c4c17"/><path d="m80.140625 51.246094c0 8.46875-6.867187 15.335937-15.335937 15.335937-8.472657 0-15.335938-6.867187-15.335938-15.335937s6.863281-15.335938 15.335938-15.335938c8.46875 0 15.335937 6.867188 15.335937 15.335938zm0 0" fill="#bf6c0d"/><path d="m179.683594 197.527344c-2.488282 0-4.816406-1.558594-5.671875-4.046875-1.078125-3.132813.585937-6.546875 3.71875-7.625 11.890625-4.097657 4.617187-30.59375 4.535156-30.859375-.941406-3.171875.867187-6.515625 4.039063-7.460938 3.171874-.945312 6.511718.855469 7.460937 4.027344 4.179687 13.957031 6.332031 39.28125-12.125 45.636719-.648437.222656-1.308594.328125-1.957031.328125zm0 0" fill="#fce575"/><path d="m276.535156 204.847656c-3.3125 0-6-2.6875-6-6v-83.152344c0-3.316406 2.6875-6 6-6s6 2.683594 6 6v83.152344c0 3.3125-2.683594 6-6 6zm0 0" fill="#bf6c0d"/><path d="m276.535156 391.941406c-3.3125 0-6-2.6875-6-6v-83.152344c0-3.316406 2.6875-6 6-6s6 2.683594 6 6v83.152344c0 3.3125-2.683594 6-6 6zm0 0" fill="#bf6c0d"/><g fill="#f9bb32"><path d="m301.753906 70.710938c-3.3125 0-6-2.6875-6-6v-26.035157c0-3.3125 2.6875-6 6-6s6 2.6875 6 6v26.035157c0 3.3125-2.683594 6-6 6zm0 0"/><path d="m301.753906 259.847656c-3.3125 0-6-2.683594-6-6v-26.03125c0-3.316406 2.6875-6 6-6s6 2.683594 6 6v26.03125c0 3.3125-2.683594 6-6 6zm0 0"/><path d="m301.753906 437.742188c-3.3125 0-6-2.6875-6-6v-13.183594c0-3.3125 2.6875-6 6-6s6 2.6875 6 6v13.183594c0 3.3125-2.683594 6-6 6zm0 0"/></g></svg>