<svg height="477pt" viewBox="0 -115 477.619 477" width="477pt" xmlns="http://www.w3.org/2000/svg"><path d="m337.8125 126.640625h-18.46875c-7.65625-25.808594-31.535156-44.640625-59.828125-44.640625-8.679687 0-16.941406 1.777344-24.453125 4.976562.445312-3.332031.675781-6.730468.675781-10.183593 0-42.242188-34.242187-76.484375-76.480469-76.484375-40.542968 0-73.714843 31.550781-76.3125 71.4375-4.75-1.046875-9.679687-1.613282-14.742187-1.613282-37.667969 0-68.203125 30.535157-68.203125 68.199219 0 37.546875 30.34375 68 67.847656 68.195313v.292968h269.964844c22.140625 0 40.089844-17.949218 40.089844-40.089843-.003906-22.140625-17.949219-40.089844-40.089844-40.089844zm0 0" fill="#fff4c1"/><path d="m361.992188 135.167969h.523437c-.234375-.179688-.460937-.371094-.699219-.550781.054688.1875.121094.367187.175782.550781zm0 0" fill="#fce575"/><path d="m78.339844 206.820312c-21.257813-11.546874-35.691406-34.0625-35.691406-59.957031 0-37.667969 30.535156-68.199219 68.203124-68.199219 5.0625 0 9.992188.566407 14.742188 1.613282 2.445312-37.59375 32.054688-67.769532 69.394531-71.117188-10.664062-5.644531-22.824219-8.847656-35.730469-8.847656-40.546874 0-73.714843 31.550781-76.316406 71.4375-4.746094-1.046875-9.675781-1.617188-14.742187-1.617188-37.664063 0-68.199219 30.535157-68.199219 68.203126 0 37.546874 30.34375 68 67.847656 68.191406v.292968zm0 0" fill="#fce575"/><path d="m437.53125 166.503906h-18.46875c-7.65625-25.808594-31.535156-44.640625-59.828125-44.640625-8.679687 0-16.941406 1.773438-24.453125 4.976563.445312-3.332032.679688-6.730469.679688-10.183594 0-42.242188-34.242188-76.484375-76.484376-76.484375-40.542968 0-73.714843 31.550781-76.3125 71.4375-4.75-1.046875-9.679687-1.617187-14.742187-1.617187-37.667969 0-68.203125 30.535156-68.203125 68.203124 0 37.546876 30.34375 68 67.847656 68.191407v.292969h269.964844c22.140625 0 40.085938-17.949219 40.085938-40.089844s-17.945313-40.085938-40.085938-40.085938zm0 0" fill="#fff4c1"/><path d="m461.710938 175.03125h.523437c-.234375-.183594-.460937-.371094-.699219-.550781.054688.183593.121094.367187.175782.550781zm0 0" fill="#ffd59a"/><path d="m178.058594 246.679688c-21.257813-11.546876-35.691406-34.0625-35.691406-59.953126 0-37.667968 30.535156-68.203124 68.203124-68.203124 5.0625 0 9.992188.570312 14.742188 1.617187 2.449219-37.59375 32.054688-67.769531 69.398438-71.117187-10.667969-5.648438-22.828126-8.851563-35.734376-8.851563-40.546874 0-73.714843 31.550781-76.316406 71.441406-4.746094-1.046875-9.675781-1.617187-14.738281-1.617187-37.667969 0-68.203125 30.535156-68.203125 68.199218 0 37.550782 30.34375 68 67.847656 68.195313v.292969h10.492188zm0 0" fill="#ffd59a"/><path d="m181.5 189.46875c0 8.433594-6.835938 15.269531-15.269531 15.269531-8.433594 0-15.269531-6.835937-15.269531-15.269531s6.835937-15.269531 15.269531-15.269531c8.433593 0 15.269531 6.835937 15.269531 15.269531zm0 0" fill="#fce575"/><path d="m211.71875 220.613281c0 8.433594-6.839844 15.269531-15.269531 15.269531-8.433594 0-15.269531-6.835937-15.269531-15.269531 0-8.433593 6.835937-15.269531 15.269531-15.269531 8.429687 0 15.269531 6.835938 15.269531 15.269531zm0 0" fill="#fce575"/><path d="m403.503906 178.070312c-2.519531 0-4.863281-1.597656-5.695312-4.117187-10.382813-31.398437-49.757813-28.035156-51.425782-27.875-3.300781.300781-6.226562-2.101563-6.542968-5.398437-.320313-3.292969 2.082031-6.222657 5.375-6.546876 17.441406-1.71875 53.253906 3.601563 63.984375 36.050782 1.039062 3.144531-.667969 6.539062-3.8125 7.578125-.625.210937-1.261719.308593-1.882813.308593zm0 0" fill="#fcf9de"/><path d="m461.710938 175.03125h.523437c-.234375-.183594-.460937-.371094-.699219-.550781.054688.183593.121094.367187.175782.550781zm0 0" fill="#fce575"/><path d="m178.058594 246.679688c-21.257813-11.546876-35.691406-34.0625-35.691406-59.953126 0-37.667968 30.535156-68.203124 68.203124-68.203124 5.0625 0 9.992188.570312 14.742188 1.617187 2.449219-37.59375 32.054688-67.769531 69.398438-71.117187-10.667969-5.648438-22.828126-8.851563-35.734376-8.851563-40.546874 0-73.714843 31.550781-76.316406 71.441406-4.746094-1.046875-9.675781-1.617187-14.738281-1.617187-37.667969 0-68.203125 30.535156-68.203125 68.199218 0 37.550782 30.34375 68 67.847656 68.195313v.292969h10.492188zm0 0" fill="#fce575"/><path d="m403.503906 178.070312c-2.519531 0-4.863281-1.597656-5.695312-4.117187-10.382813-31.398437-49.757813-28.035156-51.425782-27.875-3.300781.300781-6.226562-2.101563-6.542968-5.398437-.320313-3.292969 2.082031-6.222657 5.375-6.546876 17.441406-1.71875 53.253906 3.601563 63.984375 36.050782 1.039062 3.144531-.667969 6.539062-3.8125 7.578125-.625.210937-1.261719.308593-1.882813.308593zm0 0" fill="#fcf9de"/><path d="m99.71875 111.820312c0 8.429688-6.835938 15.265626-15.269531 15.265626-8.433594 0-15.269531-6.835938-15.269531-15.265626 0-8.433593 6.835937-15.269531 15.269531-15.269531 8.433593 0 15.269531 6.835938 15.269531 15.269531zm0 0" fill="#fce575"/><path d="m275.289062 222.867188c62.921876-5.671876 57.679688-54.039063 54.464844-69.152344-.542968-2.550782-3.851562-3.613282-7.292968-2.34375-20.792969 7.664062-85.375 35.050781-53.617188 69.503906 1.390625 1.507812 3.757812 2.238281 6.445312 1.992188zm0 0" fill="#ccc033"/><path d="m330.496094 157.753906c-.238282-1.519531-.496094-2.878906-.742188-4.039062-.542968-2.550782-3.851562-3.613282-7.292968-2.34375-9.445313 3.480468-27.925782 11.035156-42.308594 21.46875-.261719.191406-.519532.378906-.777344.570312-.035156.027344-.070312.050782-.105469.078125-.222656.167969-.449219.335938-.667969.503907-.050781.035156-.097656.070312-.144531.105468-.207031.160156-.414062.316406-.621093.476563-.054688.042969-.113282.089843-.171876.132812-.195312.152344-.390624.304688-.585937.457031-.058594.046876-.117187.09375-.175781.140626-.195313.15625-.386719.3125-.578125.464843-.058594.046875-.113281.09375-.171875.140625-.195313.15625-.390625.316406-.582032.476563-.050781.042969-.101562.085937-.148437.125-.207031.171875-.40625.34375-.609375.515625-.039062.03125-.078125.0625-.113281.097656-.234375.195312-.464844.394531-.691407.59375-.003906.007812-.011718.011719-.015624.015625-.71875.628906-1.417969 1.269531-2.09375 1.914063-.027344.027343-.054688.054687-.082032.078124-.191406.183594-.382812.367188-.570312.550782-.046875.050781-.09375.097656-.144532.144531-.164062.164063-.332031.328125-.496093.496094-.054688.054687-.113281.113281-.167969.171875-.152344.15625-.304688.3125-.453125.46875-.0625.066406-.125.128906-.183594.195312-.144531.152344-.289062.304688-.433593.457032-.058594.066406-.121094.132812-.183594.199218-.140625.15625-.28125.308594-.417969.460938-.058594.066406-.117187.132812-.175781.199218-.140625.15625-.277344.3125-.414063.472657-.054687.0625-.109375.125-.164062.191406-.144531.164063-.28125.332031-.421875.496094-.042969.054687-.09375.113281-.136719.167969-.160156.191406-.316406.386718-.472656.578124-.019531.03125-.042969.058594-.066407.089844-.363281.457032-.714843.917969-1.054687 1.382813-.003906.007812-.007813.015625-.015625.023437-.15625.21875-.3125.4375-.464844.65625-.039062.054688-.074218.109375-.113281.164063-.117187.171875-.238281.347656-.355469.523437-.046875.070313-.089844.140625-.136718.210938-.105469.160156-.207032.320312-.308594.480468-.050782.078126-.097656.15625-.148438.234376-.09375.15625-.1875.308593-.28125.460937-.050781.085937-.097656.167969-.148437.25-.085938.152344-.175781.304687-.257813.453125-.050781.085938-.097656.171875-.144531.257812-.085937.152344-.167969.300782-.246094.453126-.046875.085937-.09375.171874-.136719.257812-.082031.15625-.160156.3125-.238281.464844-.039062.082031-.082031.164062-.121093.246094-.078126.164062-.15625.328124-.230469.492187-.035157.078125-.074219.152344-.105469.226563-.085938.183593-.164062.367187-.242188.550781-.023437.058593-.050781.113281-.074218.171875-.203125.484375-.390625.972656-.566406 1.46875-.015626.046875-.03125.089844-.046876.136718-.066406.199219-.132812.394532-.195312.59375-.023438.074219-.046875.152344-.070312.230469-.050782.167969-.101563.335938-.148438.503907-.027344.089843-.046875.179687-.074219.269531-.039062.15625-.082031.3125-.121093.472656-.023438.09375-.046876.191406-.070313.289063-.035156.152343-.070313.304687-.101563.457031-.019531.097656-.039062.199219-.058593.296875-.03125.152344-.058594.300781-.085938.453125-.019531.101562-.035156.203125-.054687.304687-.023438.152344-.046875.300782-.066406.453125-.015626.101563-.027344.203125-.042969.304688-.019531.152343-.035157.304687-.050781.460937-.011719.097656-.023438.199219-.03125.296875-.015626.160157-.027344.324219-.039063.484375-.003906.09375-.011719.1875-.019531.277344-.007813.179688-.015625.359375-.019532.542969 0 .074219-.003906.148437-.007812.222656-.007812.515625 0 1.03125.027344 1.550781.003906.070313.011718.144532.015625.21875.011719.183594.023437.371094.042969.558594.007812.09375.019531.191406.027343.285156.019531.164063.035157.328125.058594.492188.011719.105468.027344.210937.042969.316406.019531.15625.042968.3125.070312.46875.019532.109375.039063.21875.058594.328125.027344.15625.054688.308594.085938.460937.023437.113282.046874.226563.074218.335938.03125.152344.066406.304688.105469.460938.027344.109374.054687.222656.082031.335937.042969.15625.082032.308594.125.464844.03125.109375.066406.222656.097656.335937.046876.15625.097657.3125.144532.46875.035156.113282.070312.222656.109375.332032.054687.164062.113281.328124.171875.488281.035156.105469.074218.210937.113281.316406.066406.179687.136719.363281.210937.542969.035157.089844.066407.175781.101563.261718.109375.261719.222656.523438.339844.789063.003906.007813.007812.015625.011719.023437.121093.269532.25.539063.382812.8125.042969.085938.089844.175782.132812.261719.09375.183594.1875.371094.285157.554688.054687.105469.117187.210937.175781.320312.089844.164063.179688.332031.277344.5.066406.113281.132812.226563.199218.339844.09375.160156.191407.320313.289063.484375.070313.117188.144531.234375.222656.355469.097657.15625.195313.3125.300781.472656.078126.117187.15625.238281.238282.359375.105468.15625.214844.316406.320312.472656.085938.117188.167969.238282.253906.359375.113282.160157.230469.320313.347657.480469.085937.117188.175781.234375.265625.355469.121094.164062.246094.324219.371094.488281.09375.117188.183593.234375.277343.351562.132813.167969.273438.339844.410157.507813.09375.109375.179687.222656.273437.332031.15625.1875.320313.375.484375.5625.078125.09375.15625.1875.238281.28125.246094.28125.5.5625.757813.84375.125.132813.257812.257813.398437.378906.0625.050782.128907.105469.191407.15625.074218.054688.148437.113282.222656.164063.089844.066406.183594.128906.277344.1875.042968.027344.085937.050781.128906.074219.292968.175781.597656.335937.929687.46875 1.425781.144531 2.878907.273437 4.371094.375.667969.046875 1.308594.03125 1.933594-.019532.203125-.019531.414062-.039062.613281-.0625 2.117188-.285156 3.910156-1.125 5.082031-2.449218 13.324219-15.066406 11.769531-28.730469 3.167969-40.453125 14.378906-10.429688 32.847656-17.976563 42.289062-21.457031.699219-.257813 1.390626-.417969 2.050782-.488282zm0 0" fill="#99af17"/><path d="m264.109375 224.734375c-74.214844-12.4375-63.609375-69.410156-58.421875-87.070313.878906-2.980468 4.902344-3.941406 8.875-2.125 24 10.988282 98.226562 49.367188 57.382812 87.414063-1.785156 1.664063-4.660156 2.3125-7.835937 1.78125zm0 0" fill="#eacf32"/><path d="m219.382812 137.804688c-1.765624-.847657-3.382812-1.605469-4.820312-2.265626-3.972656-1.816406-7.996094-.855468-8.875 2.125-5.1875 17.660157-15.792969 74.632813 58.421875 87.070313 3.175781.53125 6.050781-.117187 7.835937-1.78125 1.707032-1.589844 3.207032-3.179687 4.523438-4.765625-64.042969-12.109375-61.886719-58.589844-57.085938-80.382812zm0 0" fill="#ccc033"/><path d="m270.398438 216.996094c-1.71875 0-3.421876-.730469-4.609376-2.148438l-19.511718-23.339844c-2.125-2.542968-1.785156-6.328124.753906-8.453124 2.542969-2.125 6.328125-1.789063 8.453125.753906l19.511719 23.339844c2.125 2.542968 1.789062 6.324218-.753906 8.453124-1.121094.9375-2.488282 1.394532-3.84375 1.394532zm0 0" fill="#fcda4f"/></svg>