<svg height="408pt" viewBox="0 0 408 408.46688" width="408pt" xmlns="http://www.w3.org/2000/svg"><path d="m192.25 111.929688c-50.894531 0-92.300781 41.40625-92.300781 92.304687 0 50.894531 41.402343 92.300781 92.300781 92.300781 50.894531 0 92.300781-41.40625 92.300781-92.300781 0-50.898437-41.40625-92.304687-92.300781-92.304687zm0 156.632812c-35.472656 0-64.332031-28.855469-64.332031-64.328125s28.859375-64.332031 64.332031-64.332031 64.332031 28.859375 64.332031 64.332031-28.859375 64.328125-64.332031 64.328125zm0 0" fill="#bf6c0d"/><path d="m393.949219 161.28125h-45.609375c2.5 8.402344 0 0 0 0-.113282-.375-.234375-.746094-.351563-1.121094h.011719c-.128906-.417968-.269531-.832031-.398438-1.25-.199218-.628906-.398437-1.257812-.601562-1.882812-.210938-.636719-.433594-1.273438-.652344-1.910156-.199218-.574219-.394531-1.148438-.601562-1.71875-.230469-.648438-.472656-1.296876-.714844-1.941407-.210938-.566406-.421875-1.128906-.640625-1.691406-.242187-.621094-.492187-1.242187-.746094-1.863281-.234375-.582032-.46875-1.167969-.710937-1.746094-.246094-.585938-.5-1.171875-.753906-1.757812-.261719-.605469-.523438-1.210938-.792969-1.808594-.253907-.5625-.515625-1.121094-.773438-1.679688-.285156-.613281-.570312-1.226562-.863281-1.832031-.269531-.5625-.546875-1.117187-.824219-1.671875-.292969-.59375-.585937-1.183594-.886719-1.769531-.308593-.601563-.625-1.195313-.941406-1.792969-.199218-.375-.390625-.753906-.589844-1.125l-.007812.003906c-.1875-.34375-.367188-.691406-.554688-1.035156-1.703124-3.09375-1.703124-3.09375 0 0l31.996094-32.5c5.550782-5.636719 5.476563-14.699219-.15625-20.246094l-40.808594-40.179687c-5.636718-5.546875-14.699218-5.476563-20.25.160156l-31.996093 32.5c3.117187 1.65625 3.117187 1.65625 0 0-.363281-.191406-2.351563-1.214844-2.984375-1.535156-.503906-.253907-2.828125-1.386719-3.488282-1.699219-.515624-.242188-2.847656-1.304688-3.496093-1.589844-.558594-.246094-12.0625-4.691406-12.753907-4.921875-.535156-.179687-1.070312-.359375-1.605468-.53125-.675782-.21875-1.351563-.425781-2.027344-.632812-.394531-.121094-1.605469-.496094-1.175781-.367188v-45.609375c0-7.449218-5.683594-13.5625-12.949219-14.25-.957031-.191406-1.945312-.2929685-2.960938-.285156l-27.84375.21875h-27.828124c-1.015626 0-2.003907.109375-2.957032.308594-7.257812.742187-12.898437 6.902344-12.839844 14.347656l.355469 45.609375c-.390625.117187-.78125.25-1.175781.375-.667969.210937-1.335938.421875-1.996094.640625-.617187.203125-1.230468.414062-1.84375.625-.605468.210938-1.210937.417969-1.8125.632812-.628906.226563-1.261718.464844-1.890625.699219-.585937.21875-1.175781.441407-1.757812.667969-.621094.242188-1.242188.492188-1.859375.742188-.589844.238281-1.179688.476562-1.765625.722656-.601563.253906-1.199219.511718-1.796875.773437-.601563.257813-1.199219.519531-1.792969.789063-.585937.261718-1.167969.535156-1.75.804687-.597656.28125-1.195313.558594-1.785156.84375-.585938.28125-1.167969.574219-1.75.863281-.574219.285157-1.144531.570313-1.710938.863282-.613281.316406-1.222656.640625-1.832031.964844-.304688.160156-.617188.316406-.917969.480468l-32.253906-32.25c-5.265625-5.265625-13.605469-5.566406-19.230469-.917968-.8125.539062-1.582031 1.167968-2.296875 1.890624l-19.527343 19.835938-19.6875 19.6875c-.714844.714844-1.335938 1.492188-1.871094 2.308594-4.605469 5.660156-4.238282 14 1.066406 19.226562l32.5 31.996094c.039062-.066406.066406-.125.101562-.1875-.0625.117188-.101562.1875-.101562.1875-.203125.386719-.398438.78125-.597656 1.167969-.320313.609375-.636719 1.21875-.945313 1.832031-.261719.523438-.519531 1.050781-.773437 1.578125-.316406.644531-.632813 1.292969-.941406 1.945313-.246094.527343-.488282 1.058593-.730469 1.589843-.292969.648438-.589844 1.296875-.875 1.945313-.25.5625-.484375 1.128906-.726563 1.691406-.261718.625-.527344 1.246094-.785156 1.875-.25.609375-.488281 1.21875-.730469 1.832031-.230469.589844-.464843 1.175781-.6875 1.765625-.25.65625-.484375 1.316406-.726562 1.976563-.199219.558593-.40625 1.117187-.601563 1.679687-.238281.675782-.464844 1.359375-.691406 2.039063-.183594.558593-.375 1.117187-.554688 1.675781-.207031.648438-.402343 1.300781-.601562 1.953125-.148438.492187-.308594.984375-.453125 1.476563.046875-.160157.085937-.328126.136719-.492188h-45.601563c-7.90625 0-14.316406 6.410156-14.316406 14.316406v57.269532c0 7.90625 6.410156 14.316406 14.316406 14.316406h45.609375c-.023437-.070313-.039062-.132813-.0625-.203125.039063.128906.0625.203125.0625.203125.109375.375.234375.75.347656 1.125h-.007812c.125.414062.265625.828125.398438 1.242187.199218.628907.394531 1.261719.601562 1.886719.210938.636719.429688 1.273438.652344 1.90625.195312.578125.394531 1.152344.597656 1.726562.234375.648438.476562 1.292969.71875 1.9375.210938.566407.421875 1.132813.640625 1.695313.242187.621094.492187 1.242187.742187 1.859375.238282.585938.472657 1.167969.714844 1.75.242188.582031.496094 1.164062.75 1.75.265625.605469.527344 1.214844.800782 1.816406.25.5625.511718 1.117188.769531 1.675782.285156.613281.570312 1.226562.863281 1.835937.265625.558594.546875 1.113281.820312 1.667969.296876.59375.589844 1.1875.890626 1.773437.304687.597657.621093 1.191407.9375 1.789063.199218.375.390624.753906.59375 1.128906l.007812-.007812c.1875.34375.367188.691406.554688 1.039062 1.703124 3.089844 1.703124 3.089844 0 0l-31.996094 32.5c-5.550782 5.632812-5.476563 14.695312.15625 20.246094l40.808594 40.175781c5.636718 5.546875 14.699218 5.476563 20.246093-.15625 0 0 28.882813-34.160156 32-32.503906.363281.195312.730469.375 1.09375.566406.628907.324219 1.257813.652344 1.890625.96875.503906.253906 1.011719.503906 1.515625.75.65625.320313 1.308594.636719 1.96875.949219.519531.242187 1.042969.480468 1.566407.71875.640624.296875 1.285156.589844 1.933593.871094.558594.25 1.121094.488281 1.683594.726562.609375.257812 1.21875.519531 1.835937.769531.609376.25 1.226563.496094 1.839844.734375.570313.226563 1.140625.449219 1.714844.667969.664062.253906 1.332031.496094 1.996094.742187.535156.191407 1.070312.386719 1.605468.578126.695313.242187 1.386719.476562 2.085938.707031.53125.179687 1.058594.359375 1.59375.53125.675781.21875 1.355469.425781 2.035156.632812.390625.121094.777344.25 1.171875.367188.429688.128906.800781.238281 1.125.335937-.320312-.097656-.695312-.207031-1.125-.335937v45.609375c0 7.445312 5.683594 13.558594 12.949219 14.246094.957031.195312 1.945312.292968 2.960938.285156l27.84375-.214844h27.828124c1.015626 0 2.003907-.109375 2.957032-.308594 7.261718-.746094 12.898437-6.902344 12.839844-14.347656l-.355469-45.609375c.390625-.121094.78125-.253906 1.175781-.375.667969-.210937 1.335938-.421875 2-.640625.613281-.203125 1.226562-.417969 1.839844-.628906.605468-.207032 1.210937-.417969 1.8125-.632813.632812-.226562 1.257812-.460937 1.886718-.699219.589844-.21875 1.179688-.4375 1.765626-.667968.617187-.238282 1.234374-.488282 1.847656-.738282.597656-.238281 1.191406-.480468 1.78125-.730468.59375-.246094 1.1875-.503906 1.777344-.761719.605468-.265625 1.210937-.527344 1.816406-.800781.574218-.257813 1.148437-.527344 1.726562-.796875.605469-.277344 1.207032-.5625 1.808594-.851563.578125-.28125 1.152344-.566406 1.726562-.851562.582032-.289063 1.160157-.582032 1.734376-.875.605468-.3125 1.210937-.632813 1.816406-.953125.304687-.167969.621094-.320313.925781-.488281l32.25 32.25c5.265625 5.265624 13.609375 5.566406 19.234375.917968.8125-.539062 1.582031-1.167968 2.292969-1.890625l19.527343-19.832031 19.6875-19.6875c.71875-.71875 1.339844-1.496094 1.875-2.3125 4.605469-5.660156 4.238282-14-1.070312-19.222656l-32.5-32c-.195312.371094-.375.707031-.550781 1.039062l-.003907-.003906c.1875-.34375.363282-.695312.546876-1.039062l.007812.007812c.207031-.386719.398438-.78125.601562-1.167969.316407-.609375.632813-1.21875.945313-1.832031.261719-.523438.515625-1.050781.773437-1.578125.316407-.648437.632813-1.292969.941407-1.945313.246093-.53125.488281-1.0625.730469-1.589843.292968-.648438.589843-1.296875.875-1.949219.246093-.558594.484374-1.121094.722656-1.683594.265625-.625.53125-1.25.789062-1.882812.246094-.605469.484375-1.214844.722656-1.820313.234376-.59375.46875-1.183593.695313-1.777343.246094-.65625.480469-1.3125.722656-1.96875.203125-.5625.410157-1.121094.605469-1.683594.234375-.679688.460938-1.359375.6875-2.039063.183594-.558593.375-1.117187.554688-1.679687.207031-.648438.40625-1.300782.601562-1.953125.152344-.492188.3125-.980469.457031-1.476563-.050781.164063-.089843.328125-.136719.492188h45.597657c7.90625 0 14.316406-6.410156 14.316406-14.316406v-57.269532c0-7.90625-6.410156-14.316406-14.316406-14.316406zm-101.074219 68.683594c-.347656 1.199218-.726562 2.390625-1.121094 3.578125-.121094.355469-.238281.710937-.359375 1.0625-.320312.914062-.660156 1.824219-1.007812 2.734375-.242188.628906-.484375 1.253906-.742188 1.875-.253906.625-.519531 1.242187-.785156 1.859375-.390625.890625-.785156 1.777343-1.203125 2.652343-.160156.339844-.324219.675782-.488281 1.015626-.550781 1.121093-1.117188 2.230468-1.710938 3.328124-.046875.089844-.097656.179688-.144531.269532-9.757812 17.859375-25.257812 32.144531-43.988281 40.394531-.476563.210937-.945313.433594-1.421875.632813-.476563.199218-.964844.375-1.441406.566406-19.027344 7.5625-40.078126 8.585937-59.65625 3.003906-.09375-.023438-.191407-.050781-.285157-.078125-1.199219-.347656-2.390625-.726563-3.578125-1.121094-.355468-.121093-.710937-.238281-1.0625-.363281-.917968-.316406-1.828125-.65625-2.734375-1.003906-.628906-.242188-1.257812-.484375-1.878906-.742188-.621094-.253906-1.238281-.519531-1.855469-.785156-.890625-.390625-1.777344-.785156-2.652344-1.203125-.339843-.160156-.675781-.324219-1.015624-.488281-1.121094-.550782-2.234376-1.117188-3.328126-1.710938-.089843-.046875-.179687-.097656-.269531-.144531-17.863281-9.757813-32.148437-25.257813-40.398437-43.996094-.207032-.472656-.429688-.9375-.628906-1.414062-.199219-.476563-.378907-.964844-.570313-1.449219-7.558594-19.023438-8.582031-40.074219-3.003906-59.648438.027343-.097656.054687-.191406.082031-.285156.347656-1.199218.726562-2.390625 1.121094-3.578125.121094-.355469.238281-.710937.363281-1.0625.316406-.917969.65625-1.828125 1.003906-2.734375.242188-.628906.484375-1.257812.742188-1.878906.253906-.621094.519531-1.238281.785156-1.855469.390625-.890625.785156-1.777343 1.203125-2.65625.160156-.335937.324219-.675781.488281-1.011719.550781-1.121093 1.117188-2.234374 1.710938-3.332031.046875-.085937.097656-.175781.144531-.265625 9.757812-17.863281 25.257812-32.148437 43.992188-40.398437.472656-.207031.941406-.429688 1.417968-.628907.476563-.199218.964844-.378906 1.449219-.570312 19.019531-7.558594 40.070313-8.582031 59.644531-3.003906.097656.027344.195313.054687.292969.082031 1.195313.347656 2.386719.726563 3.570313 1.121094.355468.117187.714843.238281 1.070312.363281.914062.316406 1.824219.65625 2.730469 1.003906.628906.242188 1.253906.484375 1.875.742188.621093.253906 1.242187.519531 1.859375.785156.890625.390625 1.777344.789062 2.652344 1.203125.339843.160156.675781.324219 1.011718.488281 1.121094.550782 2.238282 1.117188 3.335938 1.710938.085937.046875.171875.097656.257812.144531 17.867188 9.757813 32.152344 25.253906 40.402344 43.988281.210938.476563.433594.945313.632812 1.421875.199219.476563.375.964844.570313 1.445313 7.558594 19.023437 8.582031 40.074218 3.003906 59.652344-.027343.09375-.054687.191406-.082031.285156zm0 0" fill="#ffb74b"/><path d="m204.25 111.929688c-50.894531 0-92.300781 41.40625-92.300781 92.304687 0 50.894531 41.402343 92.300781 92.300781 92.300781 50.894531 0 92.300781-41.40625 92.300781-92.300781 0-50.898437-41.40625-92.304687-92.300781-92.304687zm0 156.632812c-35.472656 0-64.332031-28.855469-64.332031-64.328125s28.859375-64.332031 64.332031-64.332031 64.332031 28.859375 64.332031 64.332031-28.859375 64.328125-64.332031 64.328125zm0 0" fill="#e58d23"/><path d="m310.542969 183.664062c-3.121094 0-5.753907-2.414062-5.980469-5.574218-1.597656-22.46875-10.910156-40.816406-27.675781-54.53125-12.730469-10.417969-25.242188-14.164063-25.367188-14.203125-3.171875-.929688-5-4.257813-4.078125-7.433594.925782-3.175781 4.238282-5.007813 7.417969-4.089844.589844.167969 14.628906 4.304688 29.21875 16.105469 13.53125 10.941406 30.140625 30.808594 32.457031 63.300781.234375 3.304688-2.253906 6.175781-5.5625 6.410157-.140625.007812-.285156.015624-.429687.015624zm0 0" fill="#ffc34c"/><g fill="#e58d23"><path d="m233.582031.1875c-.75-.1171875-1.507812-.19140625-2.292969-.1875l-27.84375.21875h26.128907zm0 0"/><path d="m98.679688 276.78125c1.703124 3.089844 1.707031 3.089844 0 0zm0 0"/><path d="m66.839844 329.527344c-5.632813-5.550782-5.707032-14.613282-.15625-20.246094l31.996094-32.5c-.191407-.347656-.367188-.695312-.554688-1.039062l-.007812.007812c-.199219-.375-.394532-.753906-.59375-1.128906-.3125-.597656-.628907-1.191406-.9375-1.789063-.300782-.585937-.59375-1.179687-.886719-1.773437-.277344-.554688-.554688-1.109375-.824219-1.667969-.292969-.609375-.578125-1.222656-.863281-1.835937-.257813-.558594-.519531-1.113282-.769531-1.675782-.273438-.601562-.535157-1.210937-.800782-1.816406-.253906-.582031-.507812-1.164062-.75-1.75-.242187-.578125-.476562-1.164062-.714844-1.75-.25-.617188-.5-1.238281-.742187-1.859375-.21875-.5625-.429687-1.128906-.640625-1.695313-.242188-.644531-.484375-1.289062-.71875-1.9375-.203125-.570312-.402344-1.148437-.597656-1.722656-.222656-.636718-.441406-1.269531-.652344-1.90625-.207031-.628906-.402344-1.257812-.601562-1.890625-.132813-.414062-.273438-.828125-.398438-1.242187h.007812c-.113281-.375-.238281-.746094-.347656-1.125h-26.125c.109375.378906.234375.75.347656 1.125h-.007812c.125.414062.265625.828125.398438 1.242187.199218.632813.394531 1.261719.601562 1.890625.210938.636719.429688 1.269532.652344 1.90625.195312.574219.394531 1.152344.597656 1.722656.234375.648438.476562 1.292969.71875 1.9375.210938.566407.421875 1.132813.640625 1.695313.242187.621094.492187 1.242187.742187 1.859375.238282.585938.472657 1.171875.714844 1.75.242188.585938.496094 1.167969.75 1.75.265625.605469.527344 1.214844.800782 1.816406.25.5625.511718 1.121094.769531 1.675782.285156.613281.570312 1.226562.863281 1.835937.269531.558594.546875 1.113281.824219 1.667969.292969.59375.585937 1.1875.886719 1.773437.308593.597657.625 1.191407.9375 1.789063.199218.375.390624.753906.59375 1.128906l.007812-.007812c.1875.34375.367188.691406.554688 1.039062 1.703124 3.089844 1.703124 3.089844 0 0l-31.996094 32.5c-5.550782 5.632812-5.476563 14.695312.15625 20.246094l40.808594 40.175781c5.636718 5.546875 14.699218 5.476563 20.246093-.15625 0 0 .992188-1.171875 2.617188-3.058594zm0 0"/><path d="m71.4375 133.75c.035156-.066406.066406-.125.101562-.1875-.066406.117188-.101562.1875-.101562.1875-.207031.386719-.398438.78125-.601562 1.167969-.316407.609375-.632813 1.21875-.941407 1.832031-.265625.527344-.519531 1.050781-.777343 1.578125-.316407.648437-.632813 1.292969-.9375 1.949219-.25.527344-.492188 1.058594-.730469 1.585937-.296875.648438-.59375 1.296875-.878907 1.949219-.246093.5625-.484374 1.125-.722656 1.691406-.265625.621094-.53125 1.242188-.789062 1.871094-.246094.609375-.484375 1.222656-.726563 1.832031-.230469.589844-.464843 1.175781-.691406 1.769531-.246094.65625-.484375 1.316407-.722656 1.972657-.203125.558593-.410157 1.117187-.605469 1.679687-.234375.679688-.460938 1.359375-.6875 2.039063-.1875.558593-.375 1.117187-.554688 1.675781-.207031.652344-.40625 1.304688-.601562 1.953125-.101562.332031-.203125.660156-.304688.988281h26.113282c-.050782.160156-.089844.328125-.140625.492188.148437-.496094.308593-.984375.457031-1.480469.199219-.648437.394531-1.300781.601562-1.953125.179688-.558594.367188-1.117188.554688-1.675781.226562-.679688.453125-1.359375.6875-2.039063.199219-.5625.402344-1.121094.605469-1.679687.238281-.65625.476562-1.316407.726562-1.972657.222657-.59375.457031-1.179687.6875-1.769531.242188-.609375.480469-1.222656.730469-1.832031.253906-.628906.519531-1.25.785156-1.871094.238282-.566406.476563-1.128906.722656-1.691406.289063-.652344.582032-1.300781.878907-1.949219.242187-.527343.480469-1.058593.730469-1.585937.308593-.65625.621093-1.300782.9375-1.949219.257812-.527344.515624-1.050781.777343-1.578125.308594-.613281.625-1.222656.941407-1.832031.203124-.386719.398437-.78125.601562-1.167969l-32.5-31.996094c-5.304688-5.222656-5.675781-13.5625-1.066406-19.222656.53125-.816406 1.15625-1.59375 1.871094-2.3125l19.6875-19.6875 17.726562-18.003906-2.796875-2.800782c-5.265625-5.265624-13.609375-5.570312-19.234375-.921874-.8125.542968-1.582031 1.167968-2.292969 1.894531l-19.527343 19.832031-19.6875 19.6875c-.71875.71875-1.339844 1.496094-1.875 2.3125-4.605469 5.660156-4.238282 14 1.066406 19.222656zm0 0"/><path d="m97.5625 133.75s.039062-.070312.101562-.1875c-.035156.0625-.066406.121094-.101562.1875zm0 0"/><path d="m26.359375 232.867188v-57.269532c0-7.90625 6.410156-14.316406 14.316406-14.316406h-26.125c-7.90625 0-14.316406 6.410156-14.316406 14.316406v57.269532c0 7.90625 6.410156 14.316406 14.316406 14.316406h26.125c-7.90625 0-14.316406-6.410156-14.316406-14.316406zm0 0"/><path d="m86.285156 247.183594s-.023437-.074219-.0625-.203125c.023438.070312.042969.132812.0625.203125zm0 0"/></g><path d="m178.84375 347.089844c-2.738281 0-5.515625-.648438-8.109375-2.007813-8.550781-4.488281-11.839844-15.054687-7.351563-23.605469l57.445313-109.433593-39.269531 12.234375c-9.152344 2.847656-18.851563.21875-25.308594-6.867188-6.457031-7.089844-8.171875-16.992187-4.484375-25.839844l53.15625-127.4375c3.71875-8.910156 13.953125-13.121093 22.867187-9.402343 8.910157 3.71875 13.121094 13.953125 9.402344 22.863281l-44.453125 106.578125 42.015625-13.085937c9.460938-2.949219 19.671875.066406 26.015625 7.679687s7.464844 18.199219 2.859375 26.972656l-69.289062 131.992188c-3.125 5.953125-9.203125 9.359375-15.496094 9.359375zm0 0" fill="#fce575"/><path d="m63.808594 186.550781c0 7.554688-6.128906 13.683594-13.683594 13.683594-7.558594 0-13.683594-6.128906-13.683594-13.683594 0-7.558593 6.125-13.683593 13.683594-13.683593 7.554688 0 13.683594 6.125 13.683594 13.683593zm0 0" fill="#e58d23"/><path d="m99.90625 217.792969c0 7.558593-6.125 13.683593-13.683594 13.683593-7.554687 0-13.679687-6.125-13.679687-13.683593 0-7.554688 6.125-13.683594 13.679687-13.683594 7.558594 0 13.683594 6.128906 13.683594 13.683594zm0 0" fill="#e58d23"/><path d="m195.734375 328.082031c-8.550781-4.488281-11.839844-15.054687-7.351563-23.605469l57.445313-109.433593-39.269531 12.234375c-9.152344 2.851562-18.851563.21875-25.308594-6.867188-6.457031-7.089844-8.171875-16.988281-4.484375-25.839844l50.121094-120.164062c-8.6875-3.085938-18.371094 1.113281-21.964844 9.730469l-53.15625 127.4375c-3.6875 8.847656-1.972656 18.746093 4.484375 25.835937s16.15625 9.71875 25.308594 6.867188l39.269531-12.230469-57.445313 109.433594c-4.488281 8.546875-1.195312 19.117187 7.351563 23.601562 2.59375 1.363281 5.371094 2.007813 8.109375 2.007813 6.292969 0 12.371094-3.402344 15.496094-9.359375l4.410156-8.402344c-1.023438-.320313-2.03125-.730469-3.015625-1.246094zm0 0" fill="#fcda4f"/><path d="m355.25 328.71875c-1.558594 0-3.113281-.601562-4.289062-1.800781l-29.417969-30.054688c-2.320313-2.371093-2.277344-6.167969.089843-8.488281 2.367188-2.316406 6.164063-2.273438 8.484376.09375l29.421874 30.054688c2.316407 2.367187 2.273438 6.164062-.09375 8.484374-1.167968 1.144532-2.679687 1.710938-4.195312 1.710938zm0 0" fill="#ffc34c"/><path d="m160.613281 60.484375c.003907 0 .007813-.003906.011719-.003906 3.359375-1.003907 6.765625-1.894531 10.21875-2.660157.046875-.011718.09375-.023437.140625-.03125 3.402344-.753906 6.847656-1.394531 10.332031-1.910156.136719-.019531.273438-.039062.40625-.058594 1.527344-.222656 3.058594-.417968 4.597656-.59375.054688-.003906.109376-.011718.160157-.019531l-.316407-40.332031c-.054687-7.445312 5.601563-13.605469 12.890626-14.347656.957031-.203125 1.949218-.308594 2.964843-.308594h-26.226562c-1.015625 0-2.007813.105469-2.964844.308594-7.289063.742187-12.945313 6.902344-12.890625 14.347656l.359375 45.609375zm0 0" fill="#e58d23"/><path d="m200.652344 408.160156c-7.316406-.6875-13.042969-6.753906-13.042969-14.148437v-40.492188c-.179687-.019531-.359375-.027343-.539063-.046875-.265624-.027344-.527343-.0625-.792968-.09375-1.542969-.171875-3.082032-.367187-4.613282-.585937-.136718-.019531-.273437-.039063-.410156-.058594-3.496094-.511719-6.953125-1.144531-10.367187-1.894531-.046875-.011719-.09375-.019532-.140625-.03125-2.765625-.609375-5.496094-1.316406-8.203125-2.074219l-1.242188-.410156v45.6875c0 7.394531 5.722657 13.460937 13.039063 14.148437.964844.1875 1.960937.289063 2.980468.28125l24.003907-.183594c-.222657-.035156-.453125-.054687-.671875-.097656zm0 0" fill="#e58d23"/></svg>