<svg height="458pt" viewBox="0 0 458.57885 458" width="458pt" xmlns="http://www.w3.org/2000/svg"><g fill="#fff4c1"><path d="m191.007812 191.882812s-.148437-53.042968 49.460938-98c2.515625-2.277343 6.34375-2.277343 8.855469 0 49.609375 44.957032 49.464843 98 49.464843 98l-.160156.011719c.09375 1.308594.160156 2.625.160156 3.957031 0 29.765626-24.128906 53.890626-53.890624 53.890626-29.761719 0-53.890626-24.125-53.890626-53.890626 0-1.332031.066407-2.648437.160157-3.957031zm0 0"/><path d="m138.800781 106.109375s-.082031-28.945313 26.988281-53.472656c1.371094-1.242188 3.460938-1.242188 4.832032 0 27.066406 24.527343 26.984375 53.472656 26.984375 53.472656l-.085938.003906c.050781.714844.085938 1.433594.085938 2.160157 0 16.238281-13.164063 29.402343-29.402344 29.402343s-29.402344-13.164062-29.402344-29.402343c0-.726563.035157-1.445313.085938-2.160157zm0 0"/><path d="m274.269531 84.3125s-.046875-17.476562 16.296875-32.285156c.828125-.753906 2.089844-.753906 2.917969 0 16.339844 14.808594 16.292969 32.285156 16.292969 32.285156l-.050782.003906c.03125.429688.050782.863282.050782 1.304688 0 9.804687-7.949219 17.753906-17.753906 17.753906-9.804688 0-17.753907-7.949219-17.753907-17.753906 0-.441406.023438-.875.054688-1.304688zm0 0"/></g><path d="m357.835938 288.871094c-3.210938-3.820313-9.058594-3.757813-12.273438.058594-10.511719 12.476562-26.246094 20.410156-43.839844 20.410156s-33.324218-7.929688-43.835937-20.410156c-3.238281-3.839844-9.089844-3.839844-12.324219 0-10.511719 12.480468-26.246094 20.410156-43.839844 20.410156s-33.324218-7.929688-43.835937-20.410156c-3.238281-3.839844-9.089844-3.839844-12.324219 0-10.511719 12.480468-26.246094 20.410156-43.839844 20.410156-5.8125 0-11.425781-.867188-16.710937-2.480469-6.984375-2.128906-13.042969 5.300781-9.363281 11.613281 30.832031 52.863282 88.152343 88.46875 153.640624 88.46875 66.328126 0 124.277344-36.527344 154.8125-90.515625 2.363282-4.175781.484376-9.488281-3.960937-11.296875-8.707031-3.546875-16.347656-9.171875-22.304687-16.257812zm0 0" fill="#fcda4f"/><path d="m357.484375 328.871094c-3.210937-3.820313-9.058594-3.757813-12.269531.058594-10.515625 12.476562-26.246094 20.410156-43.839844 20.410156s-33.328125-7.929688-43.839844-20.410156c-3.234375-3.839844-9.089844-3.839844-12.324218 0-10.511719 12.480468-26.246094 20.410156-43.835938 20.410156-17.59375 0-33.328125-7.929688-43.839844-20.410156-3.234375-3.839844-9.089844-3.839844-12.324218 0-10.511719 12.480468-26.246094 20.410156-43.835938 20.410156-1.136719 0-2.257812-.042969-3.375-.109375 32.507812 35.445312 79.167969 57.710937 130.941406 57.710937 56.59375 0 107.070313-26.605468 139.640625-67.945312-4.125-2.886719-7.867187-6.28125-11.097656-10.125zm0 0" fill="#eacf32"/><path d="m227.007812 195.851562c0-1.332031.066407-2.648437.160157-3.957031l-.160157-.011719s-.109374-42.855468 35.890626-84.171874c-4.054688-4.648438-8.554688-9.28125-13.574219-13.828126-2.511719-2.277343-6.339844-2.277343-8.855469 0-49.609375 44.953126-49.460938 98-49.460938 98l.160157.011719c-.097657 1.308594-.160157 2.625-.160157 3.957031 0 29.761719 24.125 53.890626 53.886719 53.890626 6.316407 0 12.371094-1.097657 18-3.09375-20.90625-7.40625-35.886719-27.347657-35.886719-50.796876zm0 0" fill="#fce575"/><path d="m158.800781 108.273438c0-.726563.035157-1.445313.085938-2.15625l-.085938-.007813s-.050781-23.230469 19.402344-45.707031c-2.261719-2.609375-4.765625-5.210938-7.582031-7.765625-1.375-1.242188-3.464844-1.242188-4.832032 0-27.070312 24.527343-26.988281 53.472656-26.988281 53.472656l.085938.003906c-.050781.714844-.085938 1.433594-.085938 2.160157 0 16.238281 13.164063 29.402343 29.402344 29.402343 3.511719 0 6.878906-.617187 10-1.746093-11.316406-4.09375-19.402344-14.929688-19.402344-27.65625zm0 0" fill="#fce575"/><path d="m288.269531 85.621094c0-.441406.023438-.875.054688-1.304688l-.054688-.003906s-.03125-13.253906 10.753907-26.460938c-1.597657-1.957031-3.429688-3.914062-5.539063-5.824218-.828125-.75-2.089844-.75-2.917969 0-16.34375 14.808594-16.296875 32.285156-16.296875 32.285156l.054688.003906c-.03125.429688-.054688.863282-.054688 1.304688 0 9.804687 7.949219 17.753906 17.753907 17.753906 2.488281 0 4.851562-.515625 7-1.441406-6.324219-2.714844-10.753907-8.996094-10.753907-16.3125zm0 0" fill="#fce575"/><path d="m457.210938 291.253906c-2.933594-5.320312-9.625-7.253906-14.945313-4.324218l-5.746094 3.167968c4.039063-12.152344 6.246094-22.214844 6.714844-24.4375 7.222656-26.082031 3.378906-73.667968 3.210937-75.691406-.015624-.1875-.035156-.371094-.0625-.554688-4.675781-34.816406-17.714843-61.699218-18.824218-63.9375-24.871094-52.242187-66.78125-82.011718-68.558594-83.257812-42.511719-29.777344-82.636719-37.46875-85.867188-38.050781-57.667968-11.492188-110.71875 6.140625-112.949218 6.898437-.054688.019532-.109375.039063-.164063.058594-79.835937 28.480469-112.699219 86.140625-114.058593 88.582031-2.957032 5.308594-1.054688 12.007813 4.253906 14.964844 5.304687 2.953125 12.003906 1.050781 14.960937-4.257813.292969-.523437 30.085938-52.789062 102.136719-78.53125 2.042969-.675781 50.492188-16.339843 101.625-6.121093.089844.019531.179688.035156.269531.050781.371094.066406 37.75 6.816406 77.171875 34.425781.386719.269531 38.953125 27.660157 61.355469 74.773438.027344.0625.0625.128906.089844.191406.125.246094 12.410156 25.1875 16.71875 56.859375 1.058593 12.996094 2.597656 49.707031-2.585938 67.992188-.074219.261718-.140625.535156-.195312.804687-.035157.160156-1.878907 9.042969-5.4375 20.179687l-1.90625-7.785156c-1.445313-5.898437-7.402344-9.511718-13.296875-8.070312-5.902344 1.445312-9.515625 7.398437-8.070313 13.300781l9.671875 39.527344c.011719.050781.03125.097656.042969.148437.042969.171875.097656.347656.152344.519532.039062.125.078125.253906.121093.375.054688.15625.113282.304687.175782.457031.054687.140625.109375.277343.171875.414062.054687.125.117187.246094.179687.367188.074219.15625.152344.3125.234375.460937.054688.097656.113281.1875.171875.285156.101563.167969.203125.335938.308594.5.054688.078126.109375.148438.164062.226563.125.171875.25.347656.382813.511719.054687.070312.113281.132812.167969.199218.140625.167969.28125.332032.429687.488282.015625.015625.03125.035156.042969.050781.039062.039063.078125.070313.117188.109375.191406.195312.394531.382812.601562.5625.085938.074219.171875.148438.257812.21875.183594.148438.371094.292969.566407.433594.09375.066406.1875.136718.28125.199218.238281.160157.484375.308594.730469.445313.046874.027344.09375.058594.140624.085937.296876.160157.601563.304688.910157.4375.089843.035157.179687.066407.265625.101563.234375.09375.472656.179687.710937.257813.09375.03125.1875.058593.285157.085937.25.074219.5.136719.757812.191406.078125.019531.15625.035157.234375.050781.300781.058594.601563.101563.90625.136719.035156.003907.070313.007813.109375.011719.347656.035156.699219.058594 1.054688.058594.445312 0 .894531-.03125 1.34375-.085938.179687-.023437.359374-.066406.535156-.097656.25-.042969.496094-.074219.746094-.136719.015624 0 .027343-.007812.042968-.011719.097656-.023437.199219-.0625.296875-.089843.320313-.085938.632813-.1875.933594-.300781.125-.046876.242187-.097657.367187-.148438.296876-.125.585938-.261719.867188-.410156.0625-.03125.125-.054688.1875-.085938l34.167969-18.835937c5.320312-2.933594 7.257812-9.621094 4.324219-14.945313zm0 0" fill="#ccc033"/><path d="m409.070312 343.0625c-5.300781-2.941406-11.992187-1.03125-14.949218 4.265625-.296875.527344-30.332032 53.082031-101.84375 78.945313-1.984375.664062-50.402344 16.539062-101.605469 6.507812-.074219-.015625-.171875-.03125-.25-.046875-.375-.066406-38.039063-6.84375-77.320313-34.132813-.386718-.269531-39.058593-27.511718-61.640624-74.539062-.027344-.058594-.0625-.128906-.09375-.1875-.125-.25-12.503907-25.140625-16.933594-56.796875-1.105469-13.007813-2.78125-49.734375 2.324218-68.003906.074219-.265625.140626-.535157.191407-.804688.035156-.167969 2.019531-9.917969 5.875-21.808593l2.152343 7.703124c1.355469 4.859376 5.773438 8.042969 10.585938 8.042969.980469 0 1.976562-.132812 2.964844-.410156 5.851562-1.632813 9.269531-7.703125 7.636718-13.550781l-10.476562-37.503906c0-.003907 0-.007813 0-.007813-.09375-.328125-.203125-.652344-.328125-.972656-.039063-.105469-.085937-.207031-.128906-.308594-.085938-.207031-.175781-.410156-.273438-.613281-.0625-.125-.125-.246094-.191406-.367188-.09375-.167968-.191406-.335937-.292969-.5-.078125-.128906-.152344-.257812-.238281-.382812-.097656-.148438-.207031-.296875-.316406-.441406-.09375-.125-.179688-.25-.277344-.367188-.125-.160156-.265625-.308594-.402344-.460938-.15625-.171874-.316406-.339843-.484375-.5-.152344-.152343-.308594-.300781-.472656-.441406-.097656-.085937-.199219-.160156-.296875-.242187-.164063-.128907-.328125-.257813-.496094-.378907-.101562-.074218-.207031-.144531-.3125-.214843-.175781-.113281-.351562-.226563-.527343-.328125-.109376-.066406-.222657-.128906-.332032-.1875-.183594-.097656-.367187-.191406-.550781-.277344-.117187-.054688-.234375-.109375-.351563-.160156-.1875-.082032-.375-.152344-.566406-.222656-.125-.042969-.242187-.09375-.367187-.132813-.222657-.070313-.453125-.132813-.679688-.191406-.222656-.054688-.449219-.101563-.671875-.144531-.164062-.03125-.324218-.0625-.488281-.085938-.167969-.023438-.339844-.039062-.511719-.054688-.15625-.015624-.3125-.03125-.46875-.039062-.167968-.007812-.335937-.011719-.5-.011719-.179687-.003906-.355468.003907-.535156.007813-.144531.007812-.289062.011718-.4375.027344-.261719.019531-.523438.054687-.78125.09375-.066406.007812-.132812.015624-.199219.027343-.34375.058594-.683593.136719-1.023437.230469-.015625.003906-.03125.007812-.046875.011719-.054688.015625-.101563.035156-.152344.050781-.261719.074219-.515625.160156-.773437.257812-.113282.042969-.226563.089844-.339844.136719-.191406.078125-.382813.164063-.570313.257813-.136719.066406-.273437.132812-.40625.203125-.046875.027343-.097656.046875-.144531.074219l-34.09375 18.964843c-5.3125 2.953125-7.21875 9.648438-4.265625 14.957031 2.949219 5.308594 9.648437 7.21875 14.957031 4.269532l5.734375-3.191406c-3.992187 12.167968-6.160156 22.238281-6.621093 24.464843-7.121094 26.109375-3.097657 73.683594-2.921876 75.707031.015626.183594.039063.367188.0625.554688 4.8125 34.8125 17.964844 61.652344 19.070313 63.867188 25.074219 52.140624 67.097656 81.75 68.875 82.988281 42.625 29.613281 82.777344 37.152343 86.011719 37.722656 13.785156 2.691406 27.296875 3.726563 39.914062 3.726563 40.207032-.003907 71.3125-10.476563 73.007813-11.058594.054687-.019532.109375-.035156.164062-.054688 79.730469-28.789062 112.371094-86.574218 113.722657-89.019531 2.929687-5.308594 1.003906-11.976563-4.296876-14.921875zm0 0" fill="#ccc033"/><path d="m357.484375 328.871094c-3.210937-3.820313-9.058594-3.757813-12.269531.058594-10.515625 12.476562-26.246094 20.410156-43.839844 20.410156s-33.328125-7.929688-43.839844-20.410156c-3.234375-3.839844-9.089844-3.839844-12.324218 0-10.511719 12.480468-26.246094 20.410156-43.835938 20.410156-17.59375 0-33.328125-7.929688-43.839844-20.410156-3.234375-3.839844-9.089844-3.839844-12.324218 0-10.511719 12.480468-26.246094 20.410156-43.835938 20.410156-1.136719 0-2.257812-.042969-3.375-.109375 32.507812 35.445312 79.167969 57.710937 130.941406 57.710937 56.59375 0 107.070313-26.605468 139.640625-67.945312-4.125-2.886719-7.867187-6.28125-11.097656-10.125zm0 0" fill="#eacf32"/><path d="m269.289062 396.941406c-65.488281 0-122.808593-35.601562-153.640624-88.46875-.148438-.25-.273438-.503906-.390626-.757812-4.339843 1.050781-8.871093 1.625-13.535156 1.625-5.816406 0-11.425781-.867188-16.710937-2.480469-6.988281-2.128906-13.042969 5.304687-9.367188 11.613281 30.835938 52.863282 88.15625 88.46875 153.644531 88.46875 22.09375 0 43.25-4.070312 62.78125-11.472656-7.460937.957031-15.0625 1.472656-22.78125 1.472656zm0 0" fill="#eacf32"/><path d="m136.558594 337.253906c-9.710938 7.570313-21.917969 12.085938-35.1875 12.085938-1.011719 0-2.011719-.039063-3.007813-.089844 32.476563 35.394531 79.0625 57.640625 130.761719 57.6875 21.96875-.023438 43.007812-4.066406 62.4375-11.414062-7.296875.917968-14.726562 1.417968-22.273438 1.417968-52.730468 0-100.15625-23.09375-132.730468-59.6875zm0 0" fill="#ccc033"/><path d="m58.960938 99.707031c1.359374-2.441406 34.222656-60.101562 114.0625-88.582031.054687-.019531.109374-.039062.164062-.058594 1.589844-.539062 29.082031-9.679687 65.664062-10.683594-42.890624-1.21875-76.886718 10.082032-78.664062 10.683594-.054688.019532-.109375.039063-.164062.058594-79.839844 28.480469-112.703126 86.140625-114.0625 88.582031-2.957032 5.308594-1.050782 12.007813 4.257812 14.964844 3.875 2.160156 8.492188 1.714844 11.851562-.746094-4.414062-3.234375-5.839843-9.316406-3.109374-14.21875zm0 0" fill="#99af17"/><path d="m199.558594 454.390625c-3.234375-.566406-43.386719-8.109375-86.011719-37.722656-1.777344-1.238281-43.800781-30.851563-68.875-82.988281-1.105469-2.214844-14.257813-29.054688-19.070313-63.867188-.023437-.1875-.046874-.371094-.0625-.554688-.175781-2.023437-4.199218-49.597656 2.921876-75.707031.460937-2.226562 2.628906-12.296875 6.621093-24.464843l-5.734375 3.191406c-2.71875 1.511718-5.804687 1.738281-8.5625.894531-3.164062 10.28125-4.914062 18.40625-5.324218 20.375-7.121094 26.113281-3.097657 73.6875-2.921876 75.707031.015626.1875.039063.371094.0625.554688 4.8125 34.816406 17.964844 61.65625 19.070313 63.867187 25.074219 52.140625 67.097656 81.753907 68.875 82.992188 42.625 29.613281 82.777344 37.152343 86.011719 37.722656 13.785156 2.691406 27.296875 3.722656 39.914062 3.722656 2.25 0 4.464844-.035156 6.652344-.097656-10.761719-.300781-22.0625-1.378906-33.566406-3.625zm0 0" fill="#99af17"/><path d="m17.585938 171.585938c-1.277344-.914063-2.382813-2.109376-3.199219-3.574219-2.953125-5.308594-1.042969-12.007813 4.265625-14.960938l32.863281-18.277343c-.007813-.003907-.015625-.011719-.023437-.015626-.101563-.074218-.210938-.144531-.316407-.214843-.171875-.113281-.347656-.226563-.527343-.332031-.109376-.0625-.21875-.125-.332032-.1875-.179687-.097657-.363281-.1875-.546875-.273438-.117187-.054688-.234375-.113281-.351562-.164062-.1875-.078126-.378907-.148438-.570313-.21875-.121094-.042969-.242187-.09375-.363281-.132813-.226563-.074219-.453125-.132813-.679687-.191406-.222657-.058594-.449219-.105469-.675782-.144531-.160156-.03125-.320312-.0625-.484375-.085938-.171875-.023438-.339843-.039062-.511719-.058594-.15625-.011718-.3125-.027344-.46875-.035156-.167968-.007812-.335937-.011719-.5-.015625-.179687 0-.355468.003906-.535156.011719-.144531.007812-.292968.011718-.4375.023437-.261718.023438-.523437.054688-.785156.097657-.0625.007812-.128906.011718-.195312.023437-.34375.0625-.683594.140625-1.023438.234375-.015625.003906-.03125.003906-.046875.007812-.054687.015626-.101563.039063-.15625.054688-.257813.074219-.515625.160156-.769531.257812-.113282.042969-.226563.089844-.339844.136719-.191406.078125-.382812.164063-.570312.253907-.136719.066406-.273438.132812-.40625.207031-.046876.023437-.097657.046875-.144532.074219l-34.097656 18.960937c-5.308594 2.953125-7.21875 9.652344-4.265625 14.960937 2.953125 5.308594 9.652344 7.21875 14.960937 4.265626zm0 0" fill="#99af17"/><path d="m277.898438 145.527344c0 8.285156-6.714844 15-15 15-8.285157 0-15-6.714844-15-15s6.714843-15 15-15c8.285156 0 15 6.714844 15 15zm0 0" fill="#fce575"/><path d="m262.894531 235.957031c-3.160156 0-5.808593-2.46875-5.988281-5.664062-.183594-3.308594 2.347656-6.140625 5.65625-6.324219 16.964844-.953125 18.078125-27.609375 18.089844-27.878906.113281-3.3125 2.875-5.90625 6.203125-5.789063 3.3125.113281 5.902343 2.890625 5.789062 6.203125-.453125 13.097656-7.179687 38.199219-29.410156 39.445313-.113281.007812-.230469.007812-.339844.007812zm0 0" fill="#fcf9de"/><path d="m248.289062 369.363281c0 8.285157-6.714843 15-15 15-8.285156 0-15-6.714843-15-15 0-8.285156 6.714844-15 15-15 8.285157 0 15 6.714844 15 15zm0 0" fill="#ccc033"/><path d="m212.605469 329.917969c0 8.285156-6.714844 15-15 15-8.285157 0-15-6.714844-15-15 0-8.285157 6.714843-15 15-15 8.285156 0 15 6.714843 15 15zm0 0" fill="#eacf32"/><path d="m176.421875 124.363281c-1.988281 0-3.9375-.988281-5.078125-2.792969-1.769531-2.800781-.933594-6.507812 1.867188-8.277343 5.4375-3.441407 6.429687-6.15625 6.363281-6.953125-1.175781-2.84375 0-6.164063 2.785156-7.609375 2.941406-1.527344 6.5625-.378907 8.089844 2.5625.242187.46875 5.785156 11.636719-10.828125 22.140625-.992188.628906-2.101563.929687-3.199219.929687zm3.371094-17.554687c0 .003906.003906.007812.003906.007812s-.003906-.003906-.003906-.007812zm-.003907-.003906s.003907.003906.003907.003906-.003907-.003906-.003907-.003906zm-.003906-.007813s.003906 0 .003906.003906c0 0-.003906-.003906-.003906-.003906zm0 0" fill="#fcf9de"/></svg>