<svg height="455pt" viewBox="-27 0 455 455.556" width="455pt" xmlns="http://www.w3.org/2000/svg"><g fill="#fce575"><path d="m325.109375 140.324219h-149.972656l38.617187-74.292969h72.742188zm0 0"/><path d="m175.136719 139.765625h149.972656v83.089844c0 8.097656-6.3125 14.664062-14.101563 14.664062h-121.765624c-7.789063 0-14.105469-6.566406-14.105469-14.664062zm0 0"/><path d="m305.109375 286.933594h-109.972656c-11.042969 0-20-8.957032-20-20v-9.855469c0-11.046875 8.957031-20 20-20h109.972656c11.046875 0 20 8.953125 20 20v9.855469c0 11.042968-8.953125 20-20 20zm0 0"/><path d="m305.109375 336.785156h-109.972656c-11.042969 0-20-8.953125-20-20v-9.851562c0-11.046875 8.957031-20 20-20h109.972656c11.046875 0 20 8.953125 20 20v9.851562c0 11.046875-8.953125 20-20 20zm0 0"/><path d="m189.242188 336.785156h121.765624c7.789063 0 14.101563 7.976563 14.101563 17.816406v71.628907c0 16.195312-12.628906 29.324219-28.207031 29.324219h-93.554688c-15.582031 0-28.210937-13.128907-28.210937-29.324219v-71.628907c0-9.839843 6.316406-17.816406 14.105469-17.816406zm0 0"/><path d="m212.984375 31.328125h74.28125v34.703125h-74.28125zm0 0"/></g><path d="m213.753906 66.03125-38.617187 74.292969h40l38.617187-74.292969zm0 0" fill="#ffd551"/><path d="m212.984375 31.328125h40v34.703125h-40zm0 0" fill="#ffd551"/><path d="m215.136719 223.414062v-83.089843h-40v83.089843c0 8.097657 6.316406 14.664063 14.105469 14.664063h40c-7.789063 0-14.105469-6.566406-14.105469-14.664063zm0 0" fill="#ffd551"/><path d="m292.429688 50.34375h-84.609376c-4.417968 0-8-3.582031-8-8v-34.34375c0-4.417969 3.582032-8 8-8h84.609376c4.417968 0 8 3.582031 8 8v34.34375c0 4.417969-3.582032 8-8 8zm0 0" fill="#ffa730"/><path d="m239.820312 42.34375v-34.34375c0-4.417969 3.582032-8 8-8h-40c-4.417968 0-8 3.582031-8 8v34.34375c0 4.417969 3.582032 8 8 8h40c-4.417968 0-8-3.582031-8-8zm0 0" fill="#e58d23"/><path d="m225.136719 257.078125h99.972656c0-11.046875-8.953125-20-20-20h-109.972656c-11.042969 0-20 8.953125-20 20v9.855469c0 11.042968 8.957031 20 20 20h10v-9.855469c0-11.046875 8.957031-20 20-20zm0 0" fill="#ffd551"/><path d="m235.136719 306.933594h89.972656c0-11.046875-8.953125-20-20-20h-109.972656c-11.042969 0-20 8.953125-20 20v9.851562c0 11.046875 8.957031 20 20 20h20v-9.851562c0-11.046875 8.957031-20 20-20zm0 0" fill="#ffd551"/><path d="m215.136719 446.230469v-71.628907c0-9.839843 6.316406-17.816406 14.105469-17.816406h95.867187v-2.183594c0-9.839843-6.3125-17.816406-14.101563-17.816406h-121.765624c-7.789063 0-14.105469 7.976563-14.105469 17.816406v71.628907c0 16.195312 12.628906 29.324219 28.210937 29.324219h13.253906c-.941406-2.929688-1.464843-6.0625-1.464843-9.324219zm0 0" fill="#ffd551"/><path d="m242.757812 432.785156h-159.488281c-3.3125 0-6-2.6875-6-6v-201.152344c0-3.3125 2.6875-6 6-6h159.488281c3.316407 0 6 2.6875 6 6v201.152344c0 3.3125-2.683593 6-6 6zm0 0" fill="#ff624b"/><path d="m221.144531 197.402344h-116.261719l-23.738281 22.285156h163.738281zm0 0" fill="#fff4c1"/><path d="m108.839844 455.027344h108.347656c2.542969 0 4.992188-.96875 6.84375-2.710938l20.851562-19.574218h-163.738281l20.851563 19.574218c1.855468 1.742188 4.300781 2.710938 6.84375 2.710938zm0 0" fill="#fff4c1"/><path d="m214.121094 326.210938c0 28.222656-22.878906 51.105468-51.105469 51.105468s-51.109375-22.882812-51.109375-51.105468c0-28.226563 22.882812-51.109376 51.109375-51.109376s51.105469 22.882813 51.105469 51.109376zm0 0" fill="#fff4c1"/><path d="m228.289062 197.402344h-130.546874c-2.210938 0-4-1.789063-4-4v-9.4375c0-2.210938 1.789062-4 4-4h130.546874c2.207032 0 4 1.789062 4 4v9.4375c0 2.210937-1.792968 4-4 4zm0 0" fill="#fff4c1"/><path d="m133.742188 193.402344v-9.4375c0-2.210938 1.789062-4 4-4h-40c-2.210938 0-4 1.789062-4 4v9.4375c0 2.210937 1.789062 4 4 4h40c-2.210938 0-4-1.789063-4-4zm0 0" fill="#fce575"/><path d="m144.882812 206.402344h85.851563l-9.589844-9h-116.261719l-23.738281 22.285156h49.589844zm0 0" fill="#fcda4f"/><path d="m121.144531 442.742188h113.085938l10.652343-10h-163.738281l20.851563 19.574218c1.855468 1.742188 4.300781 2.710938 6.84375 2.710938h25.390625zm0 0" fill="#fcda4f"/><path d="m117.269531 426.785156v-201.152344c0-3.3125 2.6875-6 6-6h-40c-3.3125 0-6 2.6875-6 6v201.152344c0 3.3125 2.6875 6 6 6h40c-3.3125 0-6-2.6875-6-6zm0 0" fill="#ff4b34"/><path d="m111.90625 326.210938c0 8.1875 1.9375 15.925781 5.363281 22.785156v-45.574219c-3.425781 6.859375-5.363281 14.597656-5.363281 22.789063zm0 0" fill="#fce575"/><path d="m277.136719 332.101562c-5.109375-2.53125-11.210938-1.945312-15.746094 1.507813l-42 32c-3.722656 2.839844-5.910156 7.25-5.910156 11.933594 0 4.679687 2.1875 9.09375 5.910156 11.929687l42 32c2.664063 2.03125 5.867187 3.070313 9.09375 3.070313 2.265625 0 4.546875-.515625 6.652344-1.558594 5.113281-2.53125 8.34375-7.742187 8.34375-13.441406v-64c0-5.703125-3.230469-10.910157-8.34375-13.441407zm0 0" fill="#ccc033"/><path d="m367.046875 392.542969h-96.566406c-8.28125 0-15-6.714844-15-15 0-8.285157 6.71875-15 15-15h96.566406c2.511719 0 3.789063-1.566407 4.328125-2.5.539062-.933594 1.257812-2.824219 0-5l-69.28125-120c-4.140625-7.175781-1.683594-16.347657 5.488281-20.488281 7.175781-4.144532 16.347657-1.6875 20.492188 5.488281l69.28125 120c6.328125 10.957031 6.328125 24.042969 0 35s-17.65625 17.5-30.308594 17.5zm0 0" fill="#ccc033"/><path d="m112.324219 201.09375c-2.648438 0-5.328125-.703125-7.757813-2.175781-7.085937-4.292969-9.347656-13.515625-5.054687-20.601563l71.804687-118.507812c6.558594-10.820313 18.011719-17.113282 30.675782-16.855469 12.648437.269531 23.839843 7.050781 29.933593 18.140625l46.5 84.628906c3.992188 7.261719 1.339844 16.378906-5.921875 20.371094-7.261718 3.988281-16.378906 1.335938-20.367187-5.921875l-46.503907-84.632813c-1.207031-2.199218-3.199218-2.566406-4.273437-2.589843-1.078125-.027344-3.082031.261719-4.382813 2.40625l-71.804687 118.507812c-2.824219 4.65625-7.773437 7.230469-12.847656 7.230469zm0 0" fill="#ccc033"/><path d="m300.582031 123.570312c-4.824219-3.039062-10.953125-3.082031-15.820312-.109374l-54.609375 33.371093c-4.863282 2.972657-7.625 8.449219-7.117188 14.128907.503906 5.679687 4.183594 10.582031 9.5 12.648437l49.203125 19.15625c1.757813.683594 3.601563 1.019531 5.441407 1.019531 2.726562 0 5.4375-.742187 7.820312-2.199218 3.996094-2.441407 6.621094-6.609376 7.101562-11.265626l5.402344-52.523437c.585938-5.671875-2.097656-11.183594-6.921875-14.226563zm0 0" fill="#ccc033"/><path d="m173.878906 392.449219c-.003906 0-.011718 0-.015625 0l-138.566406-.148438c-12.652344-.011719-23.976563-6.566406-30.292969-17.53125-6.3125-10.964843-6.300781-24.046875.039063-35l48.371093-83.574219c4.148438-7.171874 13.324219-9.621093 20.496094-5.46875 7.171875 4.148438 9.621094 13.324219 5.46875 20.496094l-48.371094 83.574219c-1.257812 2.175781-.542968 4.066406-.003906 5 .539063.933594 1.816406 2.503906 4.328125 2.507813l138.5625.144531c8.285157.011719 14.992188 6.734375 14.984375 15.019531-.007812 8.277344-6.722656 14.980469-15 14.980469zm0 0" fill="#ccc033"/><path d="m112.511719 188.316406 71.804687-118.503906c6.558594-10.824219 18.007813-17.113281 30.675782-16.855469 4.75.101563 9.292968 1.117188 13.441406 2.941407-6.410156-7.972657-15.914063-12.71875-26.441406-12.941407-12.667969-.257812-24.117188 6.03125-30.675782 16.855469l-71.804687 118.503906c-4.292969 7.085938-2.03125 16.3125 5.054687 20.605469 2.078125 1.257813 4.34375 1.949219 6.613282 2.125-1.425782-4.082031-1.085938-8.742187 1.332031-12.730469zm0 0" fill="#99af17"/><path d="m80.546875 258.765625c-.125-.363281-.269531-.714844-.425781-1.070313-.027344-.0625-.050782-.128906-.082032-.191406-.144531-.316406-.296874-.625-.464843-.929687-.054688-.101563-.109375-.203125-.164063-.304688-.15625-.273437-.324218-.539062-.496094-.804687-.085937-.128906-.171874-.253906-.261718-.382813-.164063-.234375-.332032-.46875-.515625-.691406-.117188-.152344-.242188-.296875-.367188-.441406-.167969-.199219-.339843-.394531-.519531-.585938-.160156-.167969-.328125-.328125-.5-.492187-.164062-.15625-.328125-.316406-.5-.46875-.21875-.1875-.453125-.367188-.6875-.546875-.140625-.113281-.277344-.226563-.429688-.335938-.390624-.28125-.796874-.546875-1.222656-.792969-7.171875-4.152343-16.347656-1.703124-20.496094 5.46875l-48.371093 83.574219c-6.339844 10.953125-6.355469 24.035157-.039063 35 3.816406 6.628907 9.472656 11.628907 16.136719 14.566407-1.144531-1.425782-2.203125-2.941407-3.136719-4.566407-6.316406-10.964843-6.300781-24.046875.039063-35l34.085937-58.898437c1.9375-3.34375 6.21875-4.488282 9.566406-2.550782l5.832032 3.375 11.851562-20.472656c2.277344-3.9375 2.558594-8.472656 1.167969-12.457031zm0 0" fill="#99af17"/><path d="m108.972656 277.847656-6.65625-52.378906c-.589844-4.644531-3.316406-8.746094-7.367187-11.09375-4.050781-2.34375-8.964844-2.664062-13.285157-.859375l-48.734374 20.320313c-5.265626 2.195312-8.828126 7.183593-9.199219 12.871093-.367188 5.691407 2.523437 11.097657 7.457031 13.953125l55.390625 32.0625c2.328125 1.347656 4.921875 2.015625 7.515625 2.015625 2.898438 0 5.789062-.839843 8.296875-2.503906 4.75-3.15625 7.300781-8.730469 6.582031-14.386719zm0 0" fill="#ccc033"/><path d="m38.730469 263.707031c.371093-5.691406 3.933593-10.679687 9.199219-12.871093l48.734374-20.324219c1.972657-.820313 4.066407-1.179688 6.148438-1.125l-.496094-3.917969c-.589844-4.644531-3.316406-8.746094-7.367187-11.09375-4.050781-2.34375-8.96875-2.664062-13.289063-.859375l-48.734375 20.320313c-5.261719 2.195312-8.824219 7.183593-9.195312 12.871093-.367188 5.691407 2.519531 11.097657 7.457031 13.953125l7.523438 4.355469c-.007813-.433594-.007813-.871094.019531-1.308594zm0 0" fill="#99af17"/><path d="m158.148438 248.707031c0 8.285157-6.714844 15-15 15-8.285157 0-15-6.714843-15-15 0-8.285156 6.714843-15 15-15 8.285156 0 15 6.714844 15 15zm0 0" fill="#ff4b34"/><path d="m235.894531 317.859375c-3.3125 0-6-2.6875-6-6v-73.171875c0-3.316406 2.6875-6 6-6s6 2.683594 6 6v73.171875c0 3.3125-2.6875 6-6 6zm0 0" fill="#ff9079"/><path d="m366.417969 319.625c-2.089844 0-4.125-1.097656-5.226563-3.046875l-29.222656-51.617187c-1.632812-2.882813-.617188-6.546876 2.265625-8.175782 2.882813-1.632812 6.542969-.621094 8.175781 2.265625l29.222656 51.617188c1.632813 2.882812.617188 6.546875-2.265624 8.175781-.933594.527344-1.949219.78125-2.949219.78125zm0 0" fill="#eacf32"/><path d="m288.109375 194.320312c-.207031 0-.414063-.007812-.621094-.03125-3.296875-.339843-5.695312-3.285156-5.355469-6.582031l4.707032-45.765625c.339844-3.296875 3.289062-5.695312 6.585937-5.351562 3.292969.335937 5.691407 3.285156 5.351563 6.582031l-4.707032 45.761719c-.316406 3.089844-2.925781 5.386718-5.960937 5.386718zm0 0" fill="#eacf32"/><path d="m259.542969 138.160156c-2.058594 0-4.0625-1.058594-5.179688-2.964844l-21.347656-36.378906c-1.679687-2.859375-.722656-6.535156 2.136719-8.210937 2.859375-1.679688 6.535156-.71875 8.210937 2.136719l21.347657 36.382812c1.679687 2.855469.722656 6.53125-2.136719 8.210938-.953125.558593-1.996094.824218-3.03125.824218zm0 0" fill="#eacf32"/><path d="m273.976562 363.109375c0 8.285156-6.714843 15-15 15-8.28125 0-15-6.714844-15-15 0-8.28125 6.71875-15 15-15 8.285157 0 15 6.71875 15 15zm0 0" fill="#eacf32"/><path d="m283.101562 43.511719c-3.3125 0-6-2.6875-6-6v-28.871094c0-3.3125 2.6875-6 6-6s6 2.6875 6 6v28.871094c0 3.3125-2.6875 6-6 6zm0 0" fill="#f9bb32"/></svg>