<svg height="479pt" viewBox="0 -12 479.60065 479" width="479pt" xmlns="http://www.w3.org/2000/svg"><path d="m437.761719 417.566406h-115.257813c-9.886718 0-17.902344-8.015625-17.902344-17.902344 0-9.890624 8.015626-17.90625 17.902344-17.90625h115.257813c2.996093 0 4.523437-1.871093 5.167969-2.984374.640624-1.113282 1.496093-3.371094 0-5.96875l-82.695313-143.226563c-4.945313-8.5625-2.007813-19.515625 6.554687-24.457031 8.5625-4.945313 19.511719-2.007813 24.457032 6.550781l82.691406 143.230469c7.550781 13.078125 7.550781 28.695312 0 41.773437-7.550781 13.082031-21.074219 20.890625-36.175781 20.890625zm0 0" fill="#ccc033"/><path d="m170.492188 282.519531s-.191407-68.222656 63.613281-126.042969c3.234375-2.929687 8.15625-2.929687 11.390625 0 63.804687 57.820313 63.613281 126.042969 63.613281 126.042969l-.203125.015625c.121094 1.683594.203125 3.378906.203125 5.089844 0 38.28125-31.03125 69.308594-69.308594 69.308594-38.277343 0-69.308593-31.027344-69.308593-69.308594 0-1.714844.082031-3.40625.203124-5.089844zm0 0" fill="#fff4c1"/><g fill="#ccc033"><path d="m330.449219 345.425781c-6.097657-3.023437-13.382813-2.324219-18.796875 1.800781l-50.128906 38.195313c-4.445313 3.386719-7.050782 8.652344-7.050782 14.242187 0 5.585938 2.605469 10.851563 7.050782 14.238282l50.128906 38.195312c3.179687 2.421875 7.003906 3.664063 10.855468 3.664063 2.707032 0 5.425782-.613281 7.941407-1.859375 6.101562-3.023438 9.960937-9.238282 9.960937-16.046875v-76.386719c-.003906-6.804688-3.859375-13.023438-9.960937-16.042969zm0 0"/><path d="m133.734375 189.058594c-3.160156 0-6.363281-.839844-9.261719-2.59375-8.457031-5.125-11.15625-16.132813-6.035156-24.589844l85.707031-141.449219c7.828125-12.914062 21.496094-20.425781 36.613281-20.117187 15.097657.320312 28.453126 8.414062 35.726563 21.652344l55.503906 101.011718c4.761719 8.664063 1.59375 19.550782-7.070312 24.3125-8.667969 4.761719-19.550781 1.59375-24.3125-7.070312l-55.503907-101.011719c-1.441406-2.628906-3.816406-3.066406-5.101562-3.09375-1.285156-.03125-3.679688.308594-5.230469 2.875l-85.707031 141.445313c-3.367188 5.554687-9.273438 8.628906-15.328125 8.628906zm0 0"/><path d="m358.433594 96.53125c-5.757813-3.628906-13.074219-3.679688-18.882813-.132812l-65.179687 39.832031c-5.808594 3.550781-9.101563 10.082031-8.5 16.863281.605468 6.777344 4.996094 12.628906 11.339844 15.097656l58.730468 22.859375c2.097656.816407 4.300782 1.21875 6.492188 1.21875 3.253906 0 6.492187-.886719 9.335937-2.625 4.769531-2.914062 7.902344-7.886719 8.476563-13.445312l6.449218-62.691407c.699219-6.769531-2.503906-13.347656-8.261718-16.976562zm0 0"/><path d="m207.203125 417.457031c-.007813 0-.011719 0-.019531 0l-165.386719-.179687c-15.101563-.015625-28.617187-7.839844-36.15625-20.925782-7.535156-13.085937-7.519531-28.703124.042969-41.773437l57.734375-99.753906c4.953125-8.558594 15.90625-11.480469 24.464843-6.527344 8.558594 4.953125 11.480469 15.90625 6.527344 24.464844l-57.734375 99.753906c-1.503906 2.59375-.648437 4.851563-.007812 5.96875.644531 1.113281 2.167969 2.984375 5.164062 2.988281l165.386719.175782c9.890625.011718 17.894531 8.035156 17.886719 17.921874-.011719 9.882813-8.023438 17.886719-17.902344 17.886719zm0 0"/></g><path d="m133.953125 173.808594 85.707031-141.445313c7.828125-12.917969 21.496094-20.425781 36.613282-20.117187 5.667968.121094 11.09375 1.335937 16.042968 3.507812-7.652344-9.515625-18.996094-15.179687-31.558594-15.445312-15.117187-.308594-28.789062 7.203125-36.613281 20.117187l-85.707031 141.445313c-5.121094 8.457031-2.421875 19.46875 6.035156 24.589844 2.484375 1.503906 5.1875 2.332031 7.894532 2.539062-1.699219-4.871094-1.292969-10.433594 1.585937-15.191406zm0 0" fill="#99af17"/><path d="m95.804688 257.894531c-.148438-.433593-.324219-.855469-.507813-1.277343-.03125-.078126-.0625-.15625-.097656-.230469-.171875-.375-.355469-.742188-.554688-1.105469-.066406-.125-.128906-.246094-.199219-.367188-.183593-.324218-.382812-.644531-.589843-.960937-.101563-.152344-.203125-.304687-.308594-.457031-.199219-.28125-.402344-.554688-.613281-.824219-.144532-.179687-.292969-.355469-.441406-.527344-.203126-.234375-.402344-.472656-.621094-.695312-.191406-.203125-.394532-.394531-.597656-.589844-.195313-.1875-.390626-.378906-.597657-.558594-.261719-.226562-.539062-.441406-.816406-.65625-.171875-.132812-.335937-.273437-.511719-.398437-.46875-.335938-.957031-.65625-1.464844-.949219-8.558593-4.953125-19.507812-2.03125-24.460937 6.527344l-57.734375 99.753906c-7.566406 13.070313-7.582031 28.6875-.046875 41.773437 4.558594 7.910157 11.308594 13.882813 19.261719 17.382813-1.363282-1.699219-2.628906-3.507813-3.746094-5.445313-7.535156-13.089843-7.519531-28.707031.046875-41.777343l40.6875-70.300781c2.308594-3.992188 7.421875-5.355469 11.414063-3.042969l6.964843 4.027343 14.140625-24.4375c2.722656-4.695312 3.054688-10.109374 1.394532-14.863281zm0 0" fill="#99af17"/><path d="m129.734375 280.667969-7.945313-62.519531c-.707031-5.542969-3.957031-10.4375-8.792968-13.238282-4.835938-2.796875-10.703125-3.179687-15.859375-1.027344l-58.167969 24.253907c-6.28125 2.617187-10.535156 8.574219-10.976562 15.363281-.441407 6.792969 3.007812 13.246094 8.898437 16.65625l66.113281 38.265625c2.78125 1.609375 5.875 2.40625 8.96875 2.40625 3.457032 0 6.910156-1 9.90625-2.988281 5.667969-3.765625 8.714844-10.421875 7.855469-17.171875zm0 0" fill="#ccc033"/><path d="m45.898438 263.792969c.441406-6.792969 4.691406-12.746094 10.972656-15.367188l58.167968-24.253906c2.355469-.984375 4.859376-1.410156 7.34375-1.347656l-.59375-4.675781c-.707031-5.542969-3.957031-10.4375-8.792968-13.238282-4.835938-2.796875-10.703125-3.179687-15.859375-1.027344l-58.167969 24.253907c-6.28125 2.617187-10.535156 8.574219-10.976562 15.363281-.4375 6.792969 3.007812 13.246094 8.898437 16.65625l8.980469 5.195312c-.011719-.515624-.007813-1.035156.027344-1.558593zm0 0" fill="#99af17"/><path d="m437.007812 329.371094c-2.089843 0-4.121093-1.09375-5.226562-3.046875l-34.875-61.609375c-1.632812-2.882813-.621094-6.542969 2.261719-8.175782 2.886719-1.632812 6.546875-.617187 8.179687 2.265626l34.875 61.609374c1.632813 2.882813.621094 6.542969-2.265625 8.175782-.929687.53125-1.945312.78125-2.949219.78125zm0 0" fill="#fcda4f"/><path d="m343.542969 179.8125c-.207031 0-.414063-.011719-.621094-.03125-3.296875-.339844-5.695313-3.285156-5.355469-6.582031l5.621094-54.625c.339844-3.296875 3.289062-5.691407 6.582031-5.351563 3.296875.339844 5.695313 3.285156 5.355469 6.582032l-5.621094 54.621093c-.316406 3.089844-2.925781 5.386719-5.960937 5.386719zm0 0" fill="#fcda4f"/><path d="m309.449219 112.78125c-2.058594 0-4.0625-1.058594-5.179688-2.964844l-25.480469-43.425781c-1.679687-2.855469-.722656-6.53125 2.136719-8.210937 2.859375-1.675782 6.535157-.71875 8.210938 2.140624l25.480469 43.425782c1.675781 2.855468.722656 6.535156-2.136719 8.210937-.953125.558594-2 .824219-3.03125.824219zm0 0" fill="#fcda4f"/><path d="m326.679688 382.4375c0 9.886719-8.015626 17.902344-17.90625 17.902344-9.886719 0-17.902344-8.015625-17.902344-17.902344s8.015625-17.902344 17.902344-17.902344c9.890624 0 17.90625 8.015625 17.90625 17.902344zm0 0" fill="#99af17"/><path d="m210.492188 287.625c0-1.710938.082031-3.40625.203124-5.085938l-.203124-.015624s-.152344-57.597657 49.308593-111.796876c-4.371093-4.789062-9.125-9.554687-14.304687-14.25-3.234375-2.929687-8.15625-2.929687-11.390625 0-63.800781 57.820313-63.613281 126.046876-63.613281 126.046876l.203124.015624c-.121093 1.679688-.203124 3.375-.203124 5.085938 0 38.28125 31.03125 69.3125 69.308593 69.3125 6.957031 0 13.667969-1.035156 20-2.945312-28.527343-8.582032-49.308593-35.042969-49.308593-66.367188zm0 0" fill="#fce575"/><path d="m272.375 220.40625c0 9.886719-8.015625 17.902344-17.902344 17.902344-9.890625 0-17.90625-8.015625-17.90625-17.902344 0-9.890625 8.015625-17.90625 17.90625-17.90625 9.886719 0 17.902344 8.015625 17.902344 17.90625zm0 0" fill="#fce575"/><path d="m259.800781 344.03125c-2.394531 0-4.65625-1.441406-5.585937-3.808594-1.210938-3.085937.308594-6.566406 3.394531-7.777344 31.421875-12.332031 33.042969-44.597656 33.097656-45.964843.132813-3.304688 2.917969-5.882813 6.214844-5.769531 3.304687.117187 5.886719 2.878906 5.777344 6.183593-.054688 1.6875-1.8125 41.453125-40.707031 56.722657-.71875.28125-1.460938.414062-2.191407.414062zm0 0" fill="#fcf9de"/></svg>