<?xml version="1.0" encoding="iso-8859-1"?>
<!-- Generator: Adobe Illustrator 19.0.0, SVG Export Plug-In . SVG Version: 6.00 Build 0)  -->
<svg version="1.1" id="Capa_1" xmlns="http://www.w3.org/2000/svg" xmlns:xlink="http://www.w3.org/1999/xlink" x="0px" y="0px"
	 viewBox="0 0 512 512" style="enable-background:new 0 0 512 512;" xml:space="preserve">
<g>
	<path style="fill:#CC66A1;" d="M150.069,70.621h-35.31c-9.739,0.028-17.627,7.916-17.655,17.655v370.759h70.621V88.276
		C167.696,78.537,159.808,70.649,150.069,70.621z"/>
	<path style="fill:#F0C419;" d="M256,141.241h-35.31c-9.739,0.028-17.627,7.916-17.655,17.655v300.138h70.621V158.897
		C273.627,149.158,265.739,141.27,256,141.241z"/>
	<path style="fill:#E64C3C;" d="M361.931,203.034h-35.31c-9.739,0.028-17.627,7.916-17.655,17.655v238.345h70.621V220.69
		C379.558,210.951,371.67,203.063,361.931,203.034z"/>
	<path style="fill:#65DDB9;" d="M467.862,273.655h-35.31c-9.739,0.028-17.627,7.916-17.655,17.655v167.724h70.621V291.31
		C485.489,281.571,477.601,273.684,467.862,273.655z"/>
	<polygon style="fill:#804169;" points="167.724,344.276 167.724,459.034 97.103,459.034 97.103,414.897 	"/>
	<polygon style="fill:#F29C1F;" points="273.655,344.276 273.655,459.034 203.034,459.034 203.034,414.897 	"/>
	<polygon style="fill:#C03A2B;" points="379.586,344.276 379.586,459.034 308.966,459.034 308.966,414.897 	"/>
	<polygon style="fill:#46B29D;" points="485.517,344.276 485.517,459.034 414.897,459.034 414.897,414.897 	"/>
	<path style="fill:#3B97D3;" d="M61.793,432.552V17.655C61.793,7.904,53.889,0,44.138,0H17.655C7.904,0,0,7.904,0,17.655v476.69
		C0,504.095,7.904,512,17.655,512h476.69c9.751,0,17.655-7.905,17.655-17.655v-26.483c0-9.751-7.905-17.655-17.655-17.655H79.448
		C69.698,450.207,61.793,442.302,61.793,432.552z"/>
</g>
<g>
</g>
<g>
</g>
<g>
</g>
<g>
</g>
<g>
</g>
<g>
</g>
<g>
</g>
<g>
</g>
<g>
</g>
<g>
</g>
<g>
</g>
<g>
</g>
<g>
</g>
<g>
</g>
<g>
</g>
</svg>
