<?xml version="1.0" encoding="iso-8859-1"?>
<!-- Generator: Adobe Illustrator 19.0.0, SVG Export Plug-In . SVG Version: 6.00 Build 0)  -->
<svg version="1.1" id="Capa_1" xmlns="http://www.w3.org/2000/svg" xmlns:xlink="http://www.w3.org/1999/xlink" x="0px" y="0px"
	 viewBox="0 0 512 512" style="enable-background:new 0 0 512 512;" xml:space="preserve">
<g>
	<g>
		<path style="fill:#F0C419;" d="M52.966,238.345h17.655c9.751,0,17.655,7.904,17.655,17.655v238.345
			c0,9.751-7.904,17.655-17.655,17.655H52.966c-9.751,0-17.655-7.905-17.655-17.655V256
			C35.31,246.249,43.215,238.345,52.966,238.345z"/>
		<path style="fill:#F0C419;" d="M247.172,282.483h17.655c9.751,0,17.655,7.905,17.655,17.655v194.207
			c0,9.751-7.904,17.655-17.655,17.655h-17.655c-9.751,0-17.655-7.905-17.655-17.655V300.138
			C229.517,290.387,237.422,282.483,247.172,282.483z"/>
		<path style="fill:#F0C419;" d="M150.069,158.897h17.655c9.751,0,17.655,7.904,17.655,17.655v317.793
			c0,9.751-7.904,17.655-17.655,17.655h-17.655c-9.751,0-17.655-7.905-17.655-17.655V176.552
			C132.414,166.801,140.318,158.897,150.069,158.897z"/>
		<path style="fill:#F0C419;" d="M344.276,105.931h17.655c9.751,0,17.655,7.904,17.655,17.655v370.759
			c0,9.751-7.905,17.655-17.655,17.655h-17.655c-9.751,0-17.655-7.905-17.655-17.655V123.586
			C326.621,113.836,334.525,105.931,344.276,105.931z"/>
		<path style="fill:#F0C419;" d="M441.379,0h17.655c9.751,0,17.655,7.904,17.655,17.655v476.69c0,9.751-7.905,17.655-17.655,17.655
			h-17.655c-9.751,0-17.655-7.905-17.655-17.655V17.655C423.724,7.904,431.629,0,441.379,0z"/>
	</g>
	<polygon style="fill:#CC66A1;" points="247.172,0 70.621,0 70.621,97.103 143.007,97.103 158.897,123.586 174.786,97.103 
		247.172,97.103 	"/>
</g>
<g>
</g>
<g>
</g>
<g>
</g>
<g>
</g>
<g>
</g>
<g>
</g>
<g>
</g>
<g>
</g>
<g>
</g>
<g>
</g>
<g>
</g>
<g>
</g>
<g>
</g>
<g>
</g>
<g>
</g>
</svg>
