<svg height="512" viewBox="0 0 64 64" width="512" xmlns="http://www.w3.org/2000/svg"><path d="m61 13v12h-58v-12l29-10z" fill="#a7a9ac"/><path d="m35.87 21h21.13v-5.15l-18.379-6.34a8 8 0 0 1 -2.751 11.49z" fill="#9bc9ff"/><path d="m24 14a7.964 7.964 0 0 1 1.379-4.49l-18.379 6.34v5.15h21.13a8 8 0 0 1 -4.13-7z" fill="#9bc9ff"/><path d="m28 29h8a3 3 0 0 0 3-3v-1h-14v1a3 3 0 0 0 3 3z" fill="#006df0"/><path d="m28 29h8v20h-8z" fill="#57a4ff"/><path d="m43 26a3 3 0 0 0 3 3h8a3 3 0 0 0 3-3v-1h-14z" fill="#006df0"/><path d="m46 29h8v20h-8z" fill="#57a4ff"/><g fill="#006df0"><path d="m21 26v-1h-14v1a3 3 0 0 0 3 3h8a3 3 0 0 0 3-3z"/><path d="m36 49h-8a3 3 0 0 0 -3 3v1h14v-1a3 3 0 0 0 -3-3z"/><path d="m43 52v1h14v-1a3 3 0 0 0 -3-3h-8a3 3 0 0 0 -3 3z"/><path d="m21 52a3 3 0 0 0 -3-3h-8a3 3 0 0 0 -3 3v1h14z"/></g><path d="m10 29h8v20h-8z" fill="#57a4ff"/><path d="m10 29h3v20h-3z" fill="#2488ff"/><path d="m28 29h3v20h-3z" fill="#2488ff"/><path d="m46 29h3v20h-3z" fill="#2488ff"/><path d="m39 53h-14-4-14-2v4h54v-4h-2-14z" fill="#a7a9ac"/><path d="m3 57v4h58v-4h-2-54z" fill="#58595b"/><path d="m38.621 9.51a8 8 0 1 0 1.379 4.49 7.991 7.991 0 0 0 -1.379-4.49z" fill="#ffa733"/><path d="m31 8v1.184a2.993 2.993 0 0 0 1 5.816 1 1 0 1 1 -1 1 1 1 0 0 0 -2 0 3 3 0 0 0 2 2.816v1.184a1 1 0 0 0 2 0v-1.184a2.993 2.993 0 0 0 -1-5.816 1 1 0 1 1 1-1 1 1 0 0 0 2 0 3 3 0 0 0 -2-2.816v-1.184a1 1 0 0 0 -2 0z" fill="#ff5023"/></svg>