<svg height="512" viewBox="0 0 64 64" width="512" xmlns="http://www.w3.org/2000/svg"><rect fill="#3d9ae2" height="58" rx="2" width="58" x="3" y="3"/><path d="m7 7h50v14h-50z" fill="#f1f2f2"/><path d="m7 25h14v14h-14z" fill="#d80027"/><path d="m7 43h14v14h-14z" fill="#ff9811"/><path d="m25 25h14v14h-14z" fill="#ffcd00"/><path d="m25 43h14v14h-14z" fill="#005ece"/><path d="m43 25h14v32h-14z" fill="#5eac24"/><path d="m3 31v28a2 2 0 0 0 2 2h30c-17.688 0-32-13.418-32-30z" fill="#1e81ce"/><path d="m19.032 57a31.123 31.123 0 0 1 -12.032-11.465v11.465z" fill="#ee8700"/><g fill="#f1f2f2"><path d="m17 31h-2v-2a1 1 0 0 0 -2 0v2h-2a1 1 0 0 0 0 2h2v2a1 1 0 0 0 2 0v-2h2a1 1 0 0 0 0-2z"/><path d="m35 33h-6a1 1 0 0 1 0-2h6a1 1 0 0 1 0 2z"/><path d="m15.414 50 1.414-1.414a1 1 0 0 0 -1.414-1.414l-1.414 1.414-1.414-1.414a1 1 0 0 0 -1.414 1.414l1.414 1.414-1.414 1.414a1 1 0 1 0 1.414 1.414l1.414-1.414 1.414 1.414a1 1 0 0 0 1.414-1.414z"/><path d="m35 51h-6a1 1 0 0 1 0-2h6a1 1 0 0 1 0 2z"/><path d="m32 48a1 1 0 0 1 -.71-1.71 1.037 1.037 0 0 1 .91-.27.636.636 0 0 1 .18.06.757.757 0 0 1 .18.09l.15.12a1.014 1.014 0 0 1 0 1.42l-.15.12a.757.757 0 0 1 -.18.09.636.636 0 0 1 -.18.06 1.355 1.355 0 0 1 -.2.02z"/><path d="m32 54a1 1 0 0 1 -.71-1.71 1.037 1.037 0 0 1 .91-.27.636.636 0 0 1 .18.06.757.757 0 0 1 .18.09l.15.12a1.014 1.014 0 0 1 0 1.42l-.15.12a.757.757 0 0 1 -.18.09.636.636 0 0 1 -.18.06 1.355 1.355 0 0 1 -.2.02z"/><path d="m53 40h-6a1 1 0 0 1 0-2h6a1 1 0 0 1 0 2z"/><path d="m53 44h-6a1 1 0 0 1 0-2h6a1 1 0 0 1 0 2z"/></g></svg>