<svg height="512" viewBox="0 0 64 64" width="512" xmlns="http://www.w3.org/2000/svg"><g id="Money_bag" data-name="Money bag"><path d="m26 15h-4a9.011 9.011 0 0 1 -9-9 1 1 0 0 0 -2 0 11.007 11.007 0 0 0 6.444 10 11.007 11.007 0 0 0 -6.444 10 1 1 0 0 0 2 0 9.011 9.011 0 0 1 9-9h4a1 1 0 0 0 0-2z" fill="#754c29"/><path d="m53 44c0 11.6-9.4 17-21 17s-21-5.4-21-17c0-9.52 6.33-22.22 15-26h12c8.67 3.78 15 16.48 15 26z" fill="#a97c50"/><path d="m14 44c0-9.52 6.33-22.22 15-26h-3c-8.67 3.78-15 16.48-15 26 0 11.6 9.4 17 21 17 .506 0 1-.024 1.5-.044-10.9-.456-19.5-5.862-19.5-16.956z" fill="#8b5e3c"/><path d="m45 3-5.351 2.675a4.109 4.109 0 0 1 -4.743-.769 4.11 4.11 0 0 0 -5.812 0 4.109 4.109 0 0 1 -4.743.769l-5.351-2.675 7 11h12z" fill="#8b5e3c"/><path d="m19 3 7 11h3l-5.6-8.8z" fill="#754c29"/><path d="m38 18v-4h-12v2 2z" fill="#c49a6c"/><circle cx="32" cy="43" fill="#ffdaaa" r="14"/><path d="m32 49a2.006 2.006 0 0 1 -2-2h-3a5.029 5.029 0 0 0 3 4.59v2.41h3v-2.1a5 5 0 0 0 -1-9.9 2 2 0 1 1 2-2h3a5.029 5.029 0 0 0 -3-4.59v-2.41h-3v2.1a5 5 0 0 0 1 9.9 2 2 0 0 1 0 4z" fill="#ff5023"/></g></svg>