<svg id="Capa_1" enable-background="new 0 0 512 512" height="512" viewBox="0 0 512 512" width="512" xmlns="http://www.w3.org/2000/svg"><g><g><path d="m414.232 298.814c-.04 0-.081 0-.121-.001-6.506-.052-12.238-4.293-14.189-10.5l-45.064-143.336-36.199 78.603c-2.45 5.32-7.771 8.726-13.624 8.726-.02 0-.04 0-.061 0-5.877-.023-11.199-3.478-13.614-8.836l-46.87-103.972-30.706 33.196c-3.04 3.286-7.393 5.039-11.858 4.791-4.469-.253-8.592-2.489-11.243-6.097l-14.528-19.778-70.338 101.627c-3.131 4.522-8.487 6.976-13.956 6.375-5.469-.595-10.173-4.135-12.259-9.226l-79.602-191.708v-20.554h497.123 14.877v19.868l-83.533 250.55c-2.038 6.137-7.777 10.272-14.235 10.272z" fill="#a0d1fd"/><path d="m497.123 18.124h-241.123v126.908l35.358 78.438c2.415 5.358 7.737 8.813 13.614 8.836h.061c5.853 0 11.174-3.405 13.624-8.726l36.199-78.603 45.064 143.336c1.952 6.207 7.683 10.448 14.189 10.5.041.001.081.001.121.001 6.458 0 12.197-4.136 14.235-10.272l83.535-250.55v-19.868z" fill="#41acfc"/></g><g><g><path d="m92.726 433.876c-32.872 0-59.614-26.743-59.614-59.614 0-8.339 2.521-23.784 24.323-61.473 11.318-19.565 22.467-35.795 22.936-36.477 2.799-4.065 7.419-6.494 12.355-6.494s9.556 2.429 12.355 6.494c.469.682 11.618 16.911 22.936 36.477 21.801 37.689 24.323 53.134 24.323 61.473-.001 32.871-26.743 59.614-59.614 59.614z" fill="#e1f0fd"/><path d="m128.017 312.789c-11.318-19.565-22.467-35.795-22.936-36.477-2.799-4.065-7.419-6.494-12.355-6.494v164.058c32.871 0 59.614-26.743 59.614-59.614-.001-8.339-2.522-23.784-24.323-61.473z" fill="#a0d1fd"/></g><g><path d="m305.42 386.915c-25.54 0-46.318-20.778-46.318-46.318 0-6.369 1.832-18.004 17.675-45.392 8.032-13.885 15.955-25.418 16.288-25.902 2.799-4.065 7.419-6.494 12.355-6.494s9.556 2.429 12.355 6.494c.333.484 8.256 12.018 16.288 25.902 15.843 27.388 17.675 39.022 17.675 45.392 0 25.54-20.778 46.318-46.318 46.318z" fill="#a0d1fd"/><path d="m334.063 295.205c-8.032-13.885-15.955-25.418-16.288-25.902-2.799-4.065-7.419-6.494-12.355-6.494v124.106c25.54 0 46.318-20.778 46.318-46.318 0-6.369-1.832-18.004-17.675-45.392z" fill="#76bdfc"/></g><g><path d="m415.086 493.876c-32.872 0-59.614-26.743-59.614-59.614 0-8.339 2.521-23.784 24.323-61.473 11.318-19.565 22.467-35.795 22.936-36.477 2.799-4.065 7.419-6.494 12.355-6.494s9.556 2.429 12.355 6.494c.469.682 11.618 16.911 22.936 36.477 21.801 37.689 24.323 53.134 24.323 61.473 0 32.871-26.743 59.614-59.614 59.614z" fill="#e1f0fd"/><path d="m450.377 372.789c-11.318-19.565-22.467-35.795-22.936-36.477-2.799-4.065-7.419-6.494-12.355-6.494v164.058c32.871 0 59.614-26.743 59.614-59.614 0-8.339-2.522-23.784-24.323-61.473z" fill="#a0d1fd"/></g></g></g></svg>