<svg id="Capa_1" enable-background="new 0 0 511.838 511.838" height="512" viewBox="0 0 511.838 511.838" width="512" xmlns="http://www.w3.org/2000/svg"><g><g><g><g><g><path d="m336.783 287.592c-1.443 0-2.816-.624-3.766-1.711-.456-.522-45.613-52.743-45.613-98.256 0-46.805 45.327-68.59 47.256-69.495.67-.314 1.383-.473 2.122-.473s1.454.159 2.124.474c1.929.904 47.255 22.689 47.255 69.494 0 45.516-45.157 97.734-45.613 98.256-.949 1.087-2.322 1.711-3.765 1.711z" fill="#76bdfc"/><path d="m338.906 118.13c-.67-.314-1.385-.474-2.124-.474-.293 0-.58.032-.863.082v169.772c.284.05.572.082.864.082 1.443 0 2.816-.624 3.766-1.711.456-.522 45.613-52.741 45.613-98.256-.001-46.806-45.327-68.591-47.256-69.495z" fill="#41acfc"/></g><g><path d="m334.661 118.13c-1.871.877-44.566 21.399-47.134 65.34h98.512c-2.567-43.941-45.262-64.463-47.133-65.339-.67-.314-1.385-.474-2.124-.474s-1.452.158-2.121.473z" fill="#41acfc"/><path d="m335.919 183.47h50.12c-2.567-43.941-45.262-64.463-47.133-65.339-.67-.314-1.385-.474-2.124-.474-.293 0-.58.032-.863.082z" fill="#1a97fc"/></g></g><g><path d="m384.368 298.729c-14.996-19.583-45.322-20.626-46.581-20.661l-.128-.001c-.607 0-1.189.11-1.732.307-.541-.197-1.121-.308-1.726-.308l-.124.001c-1.284.035-31.61 1.079-46.605 20.662s-8.095 49.133-7.794 50.381c.543 2.254 2.54 3.828 4.856 3.828l.14-.001c1.178-.032 26.839-.918 42.638-16.213l.008-.008c1.406-1.362 2.735-2.84 3.96-4.44 1.869-2.44 3.396-5.035 4.64-7.711 1.244 2.676 2.772 5.271 4.64 7.711 14.993 19.579 45.322 20.626 46.582 20.661l.164.002c2.316 0 4.313-1.574 4.856-3.828.3-1.249 7.2-30.799-7.794-50.382z" fill="#1473fb"/><path d="m384.368 298.729c-14.996-19.583-45.322-20.626-46.581-20.661l-.128-.001c-.607 0-1.189.11-1.732.307-.002-.001-.005-.001-.007-.002v46.192c1.244 2.676 2.772 5.271 4.64 7.711 14.993 19.579 45.322 20.626 46.582 20.661l.164.002c2.316 0 4.313-1.574 4.856-3.828.3-1.248 7.2-30.798-7.794-50.381z" fill="#1063e0"/></g></g><g><g><g><path d="m176.783 287.592c-1.443 0-2.816-.624-3.766-1.711-.455-.522-45.613-52.743-45.613-98.256 0-46.805 45.327-68.59 47.256-69.495.67-.314 1.383-.473 2.122-.473s1.454.159 2.124.474c1.929.904 47.255 22.689 47.255 69.494 0 45.516-45.157 97.734-45.613 98.256-.949 1.087-2.322 1.711-3.765 1.711z" fill="#76bdfc"/><path d="m178.906 118.13c-.67-.314-1.385-.474-2.124-.474-.293 0-.58.032-.863.082v169.772c.284.05.572.082.864.082 1.443 0 2.816-.624 3.766-1.711.456-.522 45.613-52.741 45.613-98.256-.001-46.806-45.327-68.591-47.256-69.495z" fill="#41acfc"/></g><g><path d="m174.661 118.13c-1.871.877-44.566 21.399-47.134 65.34h98.512c-2.567-43.941-45.262-64.463-47.132-65.339-.67-.314-1.385-.474-2.124-.474-.74 0-1.453.158-2.122.473z" fill="#41acfc"/><path d="m175.919 183.47h50.12c-2.567-43.941-45.262-64.463-47.132-65.339-.67-.314-1.385-.474-2.124-.474-.293 0-.58.032-.863.082v65.731z" fill="#1a97fc"/></g></g><g><path d="m224.368 298.729c-14.996-19.583-45.322-20.626-46.581-20.661l-.128-.001c-.607 0-1.189.11-1.732.307-.541-.197-1.121-.308-1.726-.308l-.124.001c-1.284.035-31.61 1.079-46.605 20.662s-8.095 49.133-7.794 50.381c.543 2.254 2.54 3.828 4.856 3.828l.14-.001c1.178-.032 26.839-.918 42.638-16.213l.008-.008c1.406-1.362 2.735-2.84 3.96-4.44 1.869-2.44 3.396-5.035 4.64-7.711 1.244 2.676 2.772 5.271 4.64 7.711 14.993 19.579 45.322 20.626 46.582 20.661l.164.002c2.316 0 4.313-1.574 4.857-3.828.299-1.249 7.199-30.799-7.795-50.382z" fill="#1473fb"/><path d="m224.368 298.729c-14.996-19.583-45.322-20.626-46.581-20.661l-.128-.001c-.607 0-1.189.11-1.732.307-.002-.001-.005-.001-.007-.002v46.192c1.244 2.676 2.772 5.271 4.64 7.711 14.993 19.579 45.322 20.626 46.582 20.661l.164.002c2.316 0 4.313-1.574 4.857-3.828.299-1.248 7.199-30.798-7.795-50.381z" fill="#1063e0"/></g></g></g><g><g><path d="m453.572 127.657h-395.306c-8.284 0-8.284-30 0-30h395.307c8.283 0 8.283 30-.001 30z" fill="#f3a871"/><path d="m453.572 97.657h-197.653v30h197.653c8.284 0 8.284-30 0-30z" fill="#fd946d"/></g><g><path d="m507.444 58.784c-5.857-5.858-15.355-5.858-21.213 0l-32.659 32.66-32.66-32.66c-5.858-5.858-15.355-5.858-21.213 0s-5.858 15.355 0 21.213l38.872 38.873v323.577c0 8.284 6.716 15 15 15s15-6.716 15-15v-323.577l38.872-38.872c5.859-5.859 5.859-15.356.001-21.214z" fill="#fcbc89"/><path d="m112.138 58.784c-5.857-5.858-15.355-5.858-21.213 0l-32.66 32.66-32.659-32.66c-5.857-5.857-15.354-5.858-21.213 0-5.858 5.857-5.858 15.355 0 21.213l38.872 38.872v323.577c0 8.284 6.716 15 15 15s15-6.716 15-15v-323.576l38.872-38.873c5.859-5.858 5.859-15.355.001-21.213z" fill="#f3c49b"/></g></g></g></svg>