<svg id="Capa_1" enable-background="new 0 0 512 512" height="512" viewBox="0 0 512 512" width="512" xmlns="http://www.w3.org/2000/svg"><g><g><g><path d="m327.559 427.158h-208.419c-16.071 0-29.146-13.199-29.146-29.422v-263.12c-.001-74.227 59.822-134.616 133.355-134.616s133.356 60.389 133.356 134.616v56.228l6.653-8.726c8.18-10.731 20.048-17.608 33.416-19.365 13.373-1.762 26.586 1.824 37.215 10.083 10.631 8.258 17.443 20.238 19.184 33.732 1.74 13.495-1.807 26.836-9.987 37.568-.029.037-.059.076-.088.113l-86.393 111.12v42.367c0 16.224-13.075 29.422-29.146 29.422zm103.74-192.258h.01z" fill="#fd713b"/><path d="m453.174 206.568c-1.741-13.495-8.554-25.474-19.184-33.732-10.629-8.259-23.842-11.844-37.215-10.083-13.368 1.757-25.236 8.634-33.416 19.365l-6.653 8.726v-56.228c-.001-74.217-59.808-134.599-133.327-134.616v427.158h104.179c16.071 0 29.146-13.199 29.146-29.422v-42.367l86.393-111.12c.029-.037.059-.076.088-.113 8.182-10.732 11.729-24.074 9.989-37.568z" fill="#fc4c1e"/></g><g><path d="m259.656 403.937c-8.284 0-15-6.779-15-15.142v-139.516c0-8.363 6.716-15.142 15-15.142s15 6.779 15 15.142v139.516c0 8.363-6.716 15.142-15 15.142z" fill="#f3c49b"/><path d="m188.925 403.937c-8.284 0-15-6.779-15-15.142v-139.516c0-8.363 6.716-15.142 15-15.142s15 6.779 15 15.142v139.516c0 8.363-6.716 15.142-15 15.142z" fill="#fde4c3"/></g></g><g><path d="m361.365 512h-275.971c-14.888 0-27-12.227-27-27.255v-71.26c0-15.028 12.112-27.255 27-27.255h275.972c14.888 0 27 12.227 27 27.255v71.26c-.001 15.028-12.113 27.255-27.001 27.255z" fill="#fff2df"/><path d="m361.365 386.229h-137.986v125.771h137.986c14.888 0 27-12.227 27-27.255v-71.26c0-15.029-12.112-27.256-27-27.256z" fill="#fbd7b2"/></g></g></svg>