<svg id="Capa_1" enable-background="new 0 0 511.929 511.929" height="512" viewBox="0 0 511.929 511.929" width="512" xmlns="http://www.w3.org/2000/svg"><g><g><path d="m223.242 357.673c-.045-.04-.09-.078-.135-.118l-37.853-33.277c-5.034-4.427-8.036-10.559-8.451-17.27-.416-6.705 1.802-13.159 6.245-18.171l193.34-218.177c-11.611-4.006-24.638-3.547-36.073 1.742-5.354 2.476-11.654 1.565-16.092-2.316-.034-.03-.068-.059-.101-.089-4.444-3.956-6.134-10.177-4.308-15.85 3.302-10.255 8.61-19.556 15.777-27.642 27.195-30.688 73.309-35.002 105.683-10.153.649.412 1.268.914 1.871 1.402l45.407 39.919c13.839 12.166 22.093 29.037 23.24 47.506 1.146 18.448-4.944 36.193-17.148 49.963l-173.999 196.35c-25.178 28.411-68.836 31.165-97.403 6.181z" fill="#dbe2eb"/><path d="m511.792 105.178c-1.147-18.469-9.402-35.34-23.24-47.506l-5.222-4.591-262.574 302.407 2.351 2.066c.045.04.09.078.135.118 28.567 24.984 72.225 22.23 97.403-6.182l173.999-196.35c12.204-13.769 18.294-31.514 17.148-49.962z" fill="#ced3df"/></g><g><path d="m21.346 498.043c-.037-.032-.072-.063-.108-.094l-.001-.001-2.551-2.242c-11.062-9.724-17.66-23.21-18.577-37.972-.916-14.747 3.953-28.933 13.71-39.943l3.283-3.704 18.332-4.118 1.557-18.326 19.912-22.47 18.312-4.095 1.576-18.349 42.039-47.439c20.111-22.693 54.983-24.895 77.798-4.94.037.032.072.063.108.094l2.551 2.243c11.063 9.726 17.661 23.213 18.577 37.976.915 14.746-3.954 28.93-13.711 39.939l-41.504 46.836-17.563 4.756-2.326 17.687-19.872 22.425-17.579 4.774-2.31 17.67-3.856 4.351c-20.11 22.696-54.98 24.899-77.797 4.942z" fill="#8b4a39"/><path d="m204.154 374.604c9.757-11.009 14.626-25.193 13.711-39.939-.916-14.763-7.515-28.25-18.577-37.976l-2.202-1.936-176.179 202.905.33.29.001.001c.036.031.071.062.108.094 22.817 19.956 57.688 17.754 77.798-4.94l3.856-4.351 2.31-17.67 17.579-4.774 19.872-22.425 2.326-17.687 17.563-4.756z" fill="#572b21"/><g><g><path d="m17.102 414.087 85.898 74.665 19.889-22.444-85.898-74.665z" fill="#fde4c3"/><path d="m80.283 429.274-19.66 22.642 42.377 36.836 19.889-22.444z" fill="#fcbc89"/></g><g><path d="m56.903 369.173 85.858 74.71 19.889-22.443-85.859-74.71z" fill="#fde4c3"/><path d="m119.606 383.985-19.66 22.643 42.815 37.255 19.889-22.443z" fill="#fcbc89"/></g></g></g></g></svg>