<svg id="Capa_1" enable-background="new 0 0 512.152 512.152" height="512" viewBox="0 0 512.152 512.152" width="512" xmlns="http://www.w3.org/2000/svg"><g><g><path d="m506.843 212.39c-.671 0-1.328-.128-1.952-.38-65.774-26.592-154.138-41.237-248.815-41.237s-183.04 14.644-248.814 41.236c-.624.252-1.281.38-1.952.38-1.253 0-2.464-.45-3.412-1.268-1.486-1.283-2.122-3.267-1.66-5.176 8.283-34.187 38.872-65.461 86.132-88.062 46.91-22.433 107.18-34.788 169.706-34.788s122.796 12.355 169.708 34.788c47.259 22.601 77.848 53.875 86.131 88.062.462 1.909-.174 3.893-1.661 5.177-.947.817-2.158 1.268-3.411 1.268z" fill="#dbe2eb"/><path d="m511.915 205.945c-8.283-34.187-38.872-65.461-86.131-88.062-46.912-22.433-107.181-34.788-169.708-34.788-.002 0-.004 0-.007 0v87.676h.007c94.676 0 183.04 14.645 248.815 41.237.624.253 1.281.38 1.952.38 1.253 0 2.464-.45 3.411-1.268 1.487-1.282 2.123-3.266 1.661-5.175z" fill="#aeb5c7"/></g><g><g><g><path d="m251.563 512.152c-19.299 0-35-15.701-35-35v-442.152c0-19.299 15.701-35 35-35h9.026c19.299 0 35 15.701 35 35v442.152c0 19.299-15.701 35-35 35z" fill="#fcbc89"/><path d="m260.589 0h-4.52v512.152h4.52c19.299 0 35-15.701 35-35v-442.152c0-19.299-15.7-35-35-35z" fill="#f3a871"/></g><g><path d="m235.444 361.724h-18.881v30h18.881c8.284 0 15-6.716 15-15 0-8.285-6.716-15-15-15z" fill="#fd946d"/><path d="m295.589 301.724h-21.476c-8.284 0-15 6.716-15 15s6.716 15 15 15h21.476z" fill="#b45d4a"/><path d="m235.444 241.724h-18.881v30h18.881c8.284 0 15-6.716 15-15 0-8.285-6.716-15-15-15z" fill="#f5997a"/></g></g><g><path d="m309.973 185.956h-107.794c-13.798 0-25.024-11.226-25.024-25.024v-70.691c0-13.798 11.226-25.024 25.024-25.024h107.794c13.798 0 25.024 11.226 25.024 25.024v70.691c0 13.798-11.226 25.024-25.024 25.024z" fill="#985040"/><path d="m309.973 65.216h-53.903v120.739h53.904c13.798 0 25.024-11.226 25.024-25.024v-70.691c-.001-13.798-11.227-25.024-25.025-25.024z" fill="#7f4233"/></g></g></g></svg>