<svg id="Capa_1" enable-background="new 0 0 512 512" height="512" viewBox="0 0 512 512" width="512" xmlns="http://www.w3.org/2000/svg"><g><g><g><path d="m235.883 463.774c-107.749 0-195.409-89.759-195.409-200.087 0-23.64 3.988-46.782 11.854-68.782.719-2.008 2.559-3.363 4.691-3.448l.224-.005c2.035 0 3.892 1.202 4.733 3.063 23.114 51.161 73.554 84.219 128.503 84.219 31.874 0 61.968-10.608 87.031-30.677 16.265-13.025 25.977-34.072 25.977-56.3 0-53.801 41.127-97.572 91.678-97.572h111.367c2.871 0 5.206 2.336 5.206 5.207 0 25.997-8.543 50.978-24.057 70.343-12.781 15.955-29.499 27.228-48.348 32.599l-7.709 2.197.152 8.015c.146 7.657-.012 16.186-.18 25.215-.143 7.72-.305 16.454-.305 25.926 0 37.249-8.636 71.068-25.668 100.518l-9.037 15.627h41.369c40.829 0 74.045 35.321 74.045 78.736 0 2.871-2.336 5.207-5.207 5.207h-270.91z" fill="#dbe2eb"/><path d="m437.955 379.832h-41.369l9.037-15.627c17.032-29.449 25.668-63.269 25.668-100.518 0-9.472.162-18.206.305-25.926.168-9.029.325-17.558.18-25.215l-.153-8.015 7.709-2.198c18.848-5.371 35.566-16.643 48.348-32.599 15.514-19.365 24.057-44.346 24.057-70.343 0-2.871-2.336-5.207-5.206-5.207h-111.367c-18.077 0-34.947 5.6-49.164 15.251v354.338h160.793c2.871 0 5.207-2.336 5.207-5.207 0-43.413-33.216-78.734-74.045-78.734z" fill="#ced3df"/></g><g><path d="m81.132 227.014c-10.755 0-19.907-3.879-26.466-11.216-.49-.548-.969-1.123-1.421-1.703l-3.346-4.296-5.437.296c-.637.035-1.277.05-1.918.05l-.353-.002c-12.532-.153-23.24-6.942-30.925-19.632-7.619-12.582-11.51-30.242-11.255-51.07.531-43.251 39.814-88.964 40.21-89.42.989-1.14 2.422-1.793 3.93-1.793 1.598.019 3.037.708 4.015 1.889 1.06 1.283 26.087 31.846 34.984 66.925l3.197 12.602 11.6-5.873c32.268-16.338 71.773-17.569 73.439-17.614l.025.001c1.552 0 3.006.633 3.991 1.734 1.021 1.144 1.486 2.67 1.274 4.19-.083.597-8.737 60.268-40.973 89.076-15.53 13.88-31.399 22.552-45.89 25.078-2.964.515-5.885.778-8.681.778z" fill="#ced3df"/><path d="m53.246 214.094c.451.581.93 1.155 1.421 1.703 6.559 7.338 15.711 11.216 26.466 11.216 2.796 0 5.717-.262 8.683-.779 14.491-2.526 30.36-11.198 45.89-25.078 32.236-28.808 40.89-88.479 40.973-89.076.212-1.519-.253-3.045-1.274-4.189-.986-1.102-2.44-1.734-3.991-1.734l-.025-.001c-1.666.045-41.166 1.276-73.433 17.611-.002.001-.004.002-.005.003l-11.6 5.872-36.451 80.156z" fill="#aeb5c7"/></g></g><path d="m408.21 168.922c-6.252 0-12.021-4.061-14.11-9.952-2.091-5.894-.265-12.677 4.6-16.647 4.846-3.955 11.849-4.502 17.217-1.265 5.354 3.228 8.254 9.643 7.002 15.795-1.407 6.917-7.627 12.069-14.709 12.069z" fill="#463f3f"/></g></svg>