<svg id="Capa_1" enable-background="new 0 0 511.676 511.676" height="512" viewBox="0 0 511.676 511.676" width="512" xmlns="http://www.w3.org/2000/svg"><g><g><g><g><path d="m281.554 511.676h-51.432c-14.888 0-27-12.112-27-27v-127.476l10-45.83-10-33.809v-79.64l10-39.154-10-40.485v-65.566c0-29.067 23.649-52.716 52.716-52.716s52.716 23.649 52.716 52.716v14.849l-10 34.828 10 44.811v79.64l-10 40.422 10 39.216v178.194c0 14.888-12.113 27-27 27z" fill="#fc652b"/><path d="m308.554 52.716c0-29.067-23.649-52.716-52.716-52.716-.023 0-.046.002-.069.002v511.674h25.785c14.888 0 27-12.112 27-27v-178.194l-10-39.216 10-40.422v-79.64l-10-44.811 10-34.828z" fill="#fc4c1e"/></g><g><g><path d="m203.122 357.2s105.432-45.725 105.432-50.719v-79.639l-105.432 50.719zm90.442-50.718h-.01z" fill="#fff2df"/><path d="m255.769 252.235v81.51c26.381-12.065 52.785-24.764 52.785-27.264v-79.639z" fill="#fbd7b2"/></g><g><path d="m203.122 197.922 105.432-50.719v-79.639l-105.432 50.719zm90.442-50.719h-.01z" fill="#fff2df"/><path d="m255.769 92.957v79.639l52.785-25.393v-79.639z" fill="#fbd7b2"/></g></g></g><g><g><path d="m390.08 290.672h-338.859c-8.284 0-15-6.716-15-15v-124.292c0-8.284 6.716-15 15-15h338.859c3.657 0 7.188 1.336 9.929 3.757l70.375 62.146c3.225 2.847 5.071 6.941 5.071 11.243s-1.847 8.396-5.071 11.244l-70.375 62.145c-2.742 2.421-6.273 3.757-9.929 3.757z" fill="#fcd1a6"/><path d="m470.384 202.283-70.375-62.146c-2.741-2.421-6.272-3.757-9.929-3.757h-134.242v154.292h134.242c3.657 0 7.188-1.336 9.929-3.757l70.375-62.145c3.225-2.848 5.071-6.942 5.071-11.244 0-4.301-1.847-8.396-5.071-11.243z" fill="#fcbc89"/></g><g><path d="m377.03 228.584h-242.384c-8.284 0-15-6.716-15-15s6.716-15 15-15h242.384c8.284 0 15 6.716 15 15s-6.716 15-15 15z" fill="#b15f4c"/><path d="m377.03 198.584h-121.192v30h121.192c8.284 0 15-6.716 15-15s-6.716-15-15-15z" fill="#7f4233"/></g></g></g><g><path d="m414.698 511.676h-323.279c-3.614-10.029-5.461-20.74-5.461-31.35 0-51.06 41.54-92.6 92.6-92.6 27.918 0 53.653 12.227 71.122 33.268 8.723-3.251 18.001-4.938 27.391-4.938 20.123 0 38.918 7.466 53.293 20.852 8.348-4.157 17.607-6.37 27.052-6.37 33.47 0 60.7 27.23 60.7 60.7-.001 6.572-1.169 13.873-3.418 20.438z" fill="#e1f0fd"/><path d="m357.415 430.538c-9.445 0-18.704 2.213-27.052 6.37-14.375-13.386-33.17-20.852-53.293-20.852-7.211 0-14.354 1.004-21.232 2.938v92.681h158.861c2.249-6.565 3.417-13.866 3.417-20.438-.001-33.468-27.231-60.699-60.701-60.699z" fill="#a0d1fd"/></g></g></svg>