<svg id="Capa_1" enable-background="new 0 0 512 512" height="512" viewBox="0 0 512 512" width="512" xmlns="http://www.w3.org/2000/svg"><g><g><g><path d="m512 512h-512v-255.23c.637-8.288 7.352-15.006 15.637-14.583h481.419c8.284-.423 15 6.295 14.944 14.583z" fill="#e1f0fd"/><path d="m497.056 242.188h-235.9v269.812h250.844v-254.807c.056-8.287-6.66-15.005-14.944-15.005z" fill="#a0d1fd"/></g><g><g><path d="m235.106 139.992c-.241-2.046-2.118-3.683-4.473-3.894-.071-.007-7.274-.648-17.787-.648-6.369 0-12.629.232-18.605.691-26.953 2.066-46.695 8.418-58.678 18.88-8.053 7.03-13.975 14.602-17.637 22.41-3.661-7.808-9.584-15.379-17.636-22.41-11.983-10.462-31.725-16.814-58.679-18.88-5.979-.46-12.24-.692-18.61-.692-10.568 0-17.697.642-17.792.651-2.344.21-4.221 1.847-4.461 3.891-.069.589-1.679 14.631.047 31.781 2.367 23.53 9.643 40.765 21.624 51.224 14.38 12.556 30.605 19.193 46.919 19.193h97.178c16.313 0 32.538-6.636 46.918-19.193 11.981-10.46 19.257-27.695 21.623-51.224 1.727-17.155.117-31.193.049-31.78z" fill="#efe2dd"/><path d="m235.106 139.991c-.241-2.045-2.118-3.682-4.473-3.893-.071-.007-7.274-.648-17.787-.648-6.369 0-12.629.232-18.605.691-26.953 2.066-46.695 8.416-58.678 18.877-8.053 7.029-13.975 14.598-17.637 22.405v64.747h48.59c16.314 0 32.538-6.635 46.918-19.189 11.981-10.459 19.257-27.69 21.623-51.215 1.727-17.152.117-31.187.049-31.775z" fill="#b9acac"/></g><g><g><g><path d="m294.348 423.064-15.782 15.123h-58.844c-80.301 0-145.631-65.355-145.631-145.688v-35.306c0-8.287 6.716-15.006 15-15.006h308.839c27.731 0 50.292 22.569 50.292 50.312 0 17.497-3.099 34.283-8.777 49.839-1.954 5.353-24.215 6.362-26.758 11.402-2.544 5.04 14.63 14.112 11.539 18.797-25.038 37.953-67.336 63.555-115.618 65.528-1.997.081-12.245-15.001-14.26-15.001z" fill="#fff5f5"/><path d="m397.93 242.188h-136.774v196h17.409l15.782-15.123c2.015 0 12.263 15.082 14.259 15.001 48.283-1.972 90.58-27.574 115.618-65.528 2.974-4.508-14.008-13.959-11.539-18.797 2.662-5.217 24.731-5.847 26.758-11.402 5.678-15.555 8.777-32.342 8.777-49.839.002-27.743-22.559-50.312-50.29-50.312z" fill="#efe2dd"/></g><path d="m348.79 328.027c-6.282 0-11.986-4.057-14.119-9.95-2.131-5.887-.23-12.699 4.609-16.66 4.857-3.976 11.826-4.472 17.211-1.264 5.388 3.209 8.216 9.66 6.999 15.8-1.373 6.925-7.64 12.074-14.7 12.074z" fill="#463f3f"/><path d="m439.113 342.217h-98.686c-34.11 0-61.861 27.785-61.861 61.937v34.034s28.017-.052 30-.132v-33.901c0-17.604 14.293-31.926 31.861-31.926h83.331c6.216-9.308 11.39-19.367 15.355-30.012z" fill="#b9acac"/></g><g><path d="m132.015 454.856c-9.604 0-16.611-.637-18.706-.853-7.07-.728-12.659-6.32-13.386-13.394-.724-7.053-6.208-69.774 23.764-99.792 15.779-15.803 33.874-24.157 52.322-24.157 15.906 0 31.134 6.478 42.879 18.241 12.488 12.506 18.931 28.742 18.142 45.715-.813 17.494-9.129 34.639-24.049 49.581-21.068 21.099-58.266 24.659-80.966 24.659z" fill="#efe2dd"/><path d="m218.888 334.901-114.515 114.91c2.357 2.301 5.465 3.835 8.936 4.192 2.095.216 9.103.853 18.706.853 22.7 0 59.898-3.56 80.966-24.659 14.92-14.941 23.235-32.087 24.049-49.581.788-16.973-5.654-33.209-18.142-45.715z" fill="#9e9797"/></g></g></g></g><g><g><path d="m113.709 107.615c-20.681 0-37.506-16.842-37.506-37.545 0-16.577 10.788-30.679 25.705-35.642 7.42-20.241 26.913-34.428 49.207-34.428 28.896 0 52.406 23.536 52.406 52.468s-23.51 52.468-52.406 52.468c-6.009 0-11.929-1.029-17.523-3.018-5.882 3.69-12.735 5.697-19.883 5.697z" fill="#e1f0fd"/><path d="m151.115 0c-3.852 0-7.616.433-11.253 1.238v102.474c3.675.808 7.446 1.224 11.253 1.224 28.896 0 52.406-23.537 52.406-52.468s-23.509-52.468-52.406-52.468z" fill="#a0d1fd"/></g><g><path d="m401.688 139.942c-30.824 0-57.798-20.513-66.735-49.222-18.978-5.858-32.578-23.496-32.578-44.324-.001-25.583 20.788-46.396 46.342-46.396 8.451 0 16.546 2.245 23.617 6.456 9.144-4.245 19.119-6.456 29.354-6.456 20.035 0 39.044 8.747 52.18 23.462 4.018-1.137 8.198-1.72 12.45-1.72 25.189 0 45.683 20.516 45.683 45.733 0 25.218-20.493 45.735-45.683 45.735-3.019 0-6.022-.301-8.963-.891-13.05 17.303-33.385 27.623-55.667 27.623z" fill="#e1f0fd"/><path d="m466.317 21.742c-4.252 0-8.433.583-12.45 1.72-11.926-13.361-28.698-21.776-46.68-23.217v139.479c20.104-1.549 38.2-11.538 50.167-27.405 2.941.59 5.944.891 8.963.891 25.189 0 45.683-20.517 45.683-45.735 0-25.217-20.493-45.733-45.683-45.733z" fill="#a0d1fd"/></g></g></g></svg>