<svg height="512" viewBox="0 0 44 57" width="512" xmlns="http://www.w3.org/2000/svg"><g id="016---Wifi-Lighting" fill="none" transform="translate(0 -1)"><path id="Shape" d="m10 52.94h6v3c0 1.1045695-.8954305 2-2 2h-2c-1.1045695 0-2-.8954305-2-2z" fill="#393f4a"/><path id="Shape" d="m6 46.94h14v4c0 1.6568542-1.3431458 3-3 3h-8c-1.65685425 0-3-1.3431458-3-3z" fill="#56595e"/><path id="Shape" d="m8 46.94h10v4c0 1.6568542-1.3431458 3-3 3h-4c-1.65685425 0-3-1.3431458-3-3z" fill="#7f8284"/><path id="Shape" d="m10 31.78v5.57h-6v-3.59z" fill="#b19046"/><path id="Shape" d="m21.38 47.94h-16.76c-.4736615.0126631-.89118817-.3088324-1-.77l-2.59-9c-.07151785-.3021091.00133724-.6203002.19718406-.8611918s.49246934-.377158.80281594-.3688082h21.97c.3103466-.0083498.6069691.1279166.8028159.3688082.1958469.2408916.268702.5590827.1971841.8611918l-2.59 9c-.1108921.4726699-.54527.797399-1.03.77z" fill="#95a5a5"/><path id="Shape" d="m20 47.94h-14c-.42367559-.0287156-.76963403-.349665-.83-.77l-2.16-9c-.06785416-.2745116-.0163152-.5649182.1418561-.7993166s.4081868-.3908737.6881439-.4306834h18.3c.2854232.0320798.5432726.185338.7078542.4207279.1645816.23539.2200036.5301828.1521458.8092721l-2.16 9c-.06117.4238136-.4124766.7458446-.84.77z" fill="#bdc3c7"/><path id="Shape" d="m15.94 6.84-11.82 3.16c-1.04818402.3213328-2.18817765.0453018-2.973268-.71992865-.78509034-.76523046-1.090233-1.89777915-.7958561-2.95385053.2943769-1.05607137 1.14138679-1.86746081 2.2091241-2.11622082l11.83-3.16c1.5667644-.34444161 3.1272653.60462543 3.5421013 2.15423884.4148361 1.54961342-.4628 3.15137688-1.9921013 3.63576116z" fill="#f0c419"/><path id="Shape" d="m23.44 10.75-19.32 5.17c-1.04818402.3213328-2.18817765.0453018-2.973268-.7199287-.78509034-.7652304-1.090233-1.8977791-.7958561-2.9538505s1.14138679-1.8674608 2.2091241-2.1162208l19.32-5.13c1.0360702-.27866716 2.1421057.01657064 2.9014737.77450019.7593679.75792954 1.0567022 1.86340329.78 2.9-.2767023 1.0365967-1.0854035 1.84683261-2.1214737 2.12549981z" fill="#f3d55b"/><path id="Shape" d="m23.44 16.66-19.32 5.17c-1.60991005.4307821-3.26421789-.52509-3.695-2.135-.4307821-1.60991.52508995-3.2642179 2.135-3.695l19.32-5.18c1.0360702-.2786672 2.1421057.0165706 2.9014737.7745002.7593679.7579295 1.0567022 1.8634033.78 2.9-.2767023 1.0365967-1.0854035 1.8468326-2.1214737 2.1254998z" fill="#f0c419"/><path id="Shape" d="m23.44 22.84-19.32 5.16c-1.04818402.3213328-2.18817765.0453018-2.973268-.7199287-.78509034-.7652304-1.090233-1.8977791-.7958561-2.9538505s1.14138679-1.8674608 2.2091241-2.1162208l19.32-5.21c1.0360702-.2786672 2.1421057.0165706 2.9014737.7745002.759368.7579295 1.0567023 1.8634033.78 2.9s-1.0854035 1.8468327-2.1214737 2.1254998z" fill="#f3d55b"/><path id="Shape" d="m23.44 28.84-19.32 5.16c-1.04818402.3213328-2.18817765.0453018-2.973268-.7199287-.78509034-.7652304-1.090233-1.8977791-.7958561-2.9538505s1.14138679-1.8674608 2.2091241-2.1162208l19.32-5.21c1.0360702-.2786672 2.1421057.0165706 2.9014737.7745002.759368.7579295 1.0567023 1.8634033.78 2.9s-1.0854035 1.8468327-2.1214737 2.1254998z" fill="#f0c419"/><circle id="Oval" cx="28" cy="42" fill="#46b29d" r="16"/><path id="Shape" d="m28 26v32c-8.836556 0-16-7.163444-16-16s7.163444-16 16-16z" fill="#65ddb9"/><g fill="#e64c3c"><path id="Shape" d="m16.8 40.6c-.3787721 0-.7250352-.2140024-.8944272-.5527864s-.132836-.744196.0944272-1.0472136c2.8328157-3.7770876 7.2786405-6 12-6s9.1671843 2.2229124 12 6c.3313708.4418278.2418278 1.0686292-.2 1.4s-1.0686292.2418278-1.4-.2c-2.455107-3.273476-6.3081551-5.2-10.4-5.2s-7.944893 1.926524-10.4 5.2c-.1888544.2518058-.4852427.4-.8.4z"/><path id="Shape" d="m36 43c-.3147573 0-.6111456-.1481942-.8-.4-1.6996894-2.2662526-4.3671843-3.6-7.2-3.6s-5.5003106 1.3337474-7.2 3.6c-.3313708.4418278-.9581722.5313708-1.4.2s-.5313708-.9581722-.2-1.4c2.0773982-2.7698643 5.3376697-4.4 8.8-4.4s6.7226018 1.6301357 8.8 4.4c.2272632.3030176.2638192.7084296.0944272 1.0472136s-.5156551.5527864-.8944272.5527864z"/><path id="Shape" d="m32.8 45.4c-.3147573 0-.6111456-.1481942-.8-.4-.9442719-1.2590292-2.4262135-2-4-2s-3.0557281.7409708-4 2c-.3313709.4418278-.9581722.5313708-1.4.2-.4418278-.3313709-.5313708-.9581722-.2-1.4 1.3219807-1.7626409 3.3966989-2.8 5.6-2.8s4.2780193 1.0373591 5.6 2.8c.2272632.3030176.2638192.7084296.0944272 1.0472136s-.5156551.5527864-.8944272.5527864z"/><circle id="Oval" cx="28" cy="48" r="2"/></g></g></svg>