<svg height="512" viewBox="0 0 58 58" width="512" xmlns="http://www.w3.org/2000/svg"><g id="018---Wifi-Power-Switch" fill="none"><path id="Shape" d="m37 56h-15c-.5522847 0-1-.4477153-1-1s.4477153-1 1-1h15c4.418278 0 8-3.581722 8-8v-7c0-.5522847.4477153-1 1-1s1 .4477153 1 1v7c0 2.6521649-1.0535684 5.195704-2.9289322 7.0710678s-4.4189029 2.9289322-7.0710678 2.9289322z" fill="#393f4a"/><path id="Rectangle-path" d="m36 8h5v9h-5z" fill="#e4c05c"/><path id="Rectangle-path" d="m51 8h5v9h-5z" fill="#e4c05c"/><path id="Shape" d="m35 18h22v12c0 2.3869484-.9482116 4.6761336-2.636039 6.363961s-3.9770126 2.636039-6.363961 2.636039h-4c-4.9705627 0-9-4.0294373-9-9z" fill="#2980ba"/><path id="Shape" d="m46 39c-4.9705627 0-9-4.0294373-9-9v-12h18v12c0 4.9705627-4.0294373 9-9 9z" fill="#3b97d3"/><rect id="Rectangle-path" fill="#84b5cb" height="6" rx="2" width="24" x="34" y="15"/><path id="Shape" d="m41 2.5v7.5h-5v-7.5c0-1.38071187 1.1192881-2.5 2.5-2.5s2.5 1.11928813 2.5 2.5z" fill="#95a5a5"/><path id="Shape" d="m56 2.5v7.5h-5v-7.5c0-1.38071187 1.1192881-2.5 2.5-2.5s2.5 1.11928813 2.5 2.5z" fill="#95a5a5"/><path id="Shape" d="m48 31h-4c-.3506687-.0009344-.6752259-.1854819-.855343-.4863593s-.1894731-.6741168-.024657-.9836407l2.66-5c.1251081-.2355921.3391576-.4114349.5945543-.4884295.2553968-.0769946.53097-.0487587.7654457.0784295.4849278.260462.66818.8638534.41 1.35l-1.88 3.53h2.33c.5522847 0 1 .4477153 1 1s-.4477153 1-1 1z" fill="#f3d55b"/><path id="Shape" d="m45.33 36c-.3506687-.0009344-.6752259-.1854819-.855343-.4863593s-.1894731-.6741168-.024657-.9836407l1.88-3.53h-2.33c-.5522847 0-1-.4477153-1-1s.4477153-1 1-1h4c.3506687.0009344.6752259.1854819.855343.4863593s.1894731.6741168.024657.9836407l-2.66 5c-.1749196.3285255-.5178193.5327242-.89.53z" fill="#f3d55b"/><circle id="Oval" cx="16" cy="42" fill="#f0c419" r="16"/><path id="Shape" d="m16 26v32c-8.836556 0-16-7.163444-16-16s7.163444-16 16-16z" fill="#f3d55b"/><g fill="#e64c3c"><path id="Shape" d="m4.8 40.6c-.37877206 0-.72503518-.2140024-.89442719-.5527864-.16939202-.338784-.13283605-.744196.09442719-1.0472136 2.83281573-3.7770876 7.2786405-6 12-6s9.1671843 2.2229124 12 6c.2143594.2858125.2599564.6642734.1196152.9928203-.1403411.3285469-.4452994.5572656-.8.6-.3547005.0427344-.7052558-.1070078-.9196152-.3928203-2.455107-3.273476-6.3081551-5.2-10.4-5.2s-7.94489303 1.926524-10.4 5.2c-.18885438.2518058-.4852427.4-.8.4z"/><path id="Shape" d="m24 43c-.3147573 0-.6111456-.1481942-.8-.4-1.6996894-2.2662526-4.3671843-3.6-7.2-3.6s-5.5003106 1.3337474-7.2 3.6c-.33137085.4418278-.9581722.5313708-1.4.2s-.53137085-.9581722-.2-1.4c2.0773982-2.7698643 5.3376697-4.4 8.8-4.4s6.7226018 1.6301357 8.8 4.4c.2272632.3030176.2638192.7084296.0944272 1.0472136s-.5156551.5527864-.8944272.5527864z"/><path id="Shape" d="m20.8 45.4c-.3147573 0-.6111456-.1481942-.8-.4-.9442719-1.2590292-2.4262135-2-4-2s-3.0557281.7409708-4 2c-.3313708.4418278-.9581722.5313708-1.4.2s-.5313708-.9581722-.2-1.4c1.3219807-1.7626409 3.3966989-2.8 5.6-2.8s4.2780193 1.0373591 5.6 2.8c.2272632.3030176.2638192.7084296.0944272 1.0472136s-.5156551.5527864-.8944272.5527864z"/><circle id="Oval" cx="16" cy="48" r="2"/></g></g></svg>