<svg height="512" viewBox="0 0 58 58" width="512" xmlns="http://www.w3.org/2000/svg"><g id="019---Timer-Power-Switch" fill="none"><path id="Shape" d="m37 56h-15c-.5522847 0-1-.4477153-1-1s.4477153-1 1-1h15c4.418278 0 8-3.581722 8-8v-7c0-.5522847.4477153-1 1-1s1 .4477153 1 1v7c0 2.6521649-1.0535684 5.195704-2.9289322 7.0710678s-4.4189029 2.9289322-7.0710678 2.9289322z" fill="#393f4a"/><circle id="Oval" cx="16" cy="42" fill="#285680" r="16"/><path id="Shape" d="m23.63 32.73c-5.85 2.85-14.21 7.89-18.26 14.84-.90438386-1.7170407-1.37473678-3.6293515-1.37-5.57-.00313008-4.6454173 2.67520577-8.8753385 6.8757961-10.8590101 4.2005903-1.9836715 9.1687483-1.3647028 12.7542039 1.5890101z" fill="#b0d3f0"/><path id="Shape" d="m28 42c.000901 5.5234422-3.7686253 10.3340865-9.1319953 11.6541913-5.3633701 1.3201047-10.93510793-1.1913419-13.4980047-6.0841913 4.05-7 12.41-12 18.26-14.84 2.7692503 2.281317 4.3724162 5.682083 4.37 9.27z" fill="#90bae1"/><path id="Rectangle-path" d="m36 8h5v9h-5z" fill="#e4c05c"/><path id="Rectangle-path" d="m51 8h5v9h-5z" fill="#e4c05c"/><path id="Shape" d="m35 18h22v12c0 2.3869484-.9482116 4.6761336-2.636039 6.363961s-3.9770126 2.636039-6.363961 2.636039h-4c-4.9705627 0-9-4.0294373-9-9z" fill="#2980ba"/><path id="Shape" d="m46 39c-4.9705627 0-9-4.0294373-9-9v-12h18v12c0 4.9705627-4.0294373 9-9 9z" fill="#3b97d3"/><rect id="Rectangle-path" fill="#84b5cb" height="6" rx="2" width="24" x="34" y="15"/><path id="Shape" d="m41 2.5v7.5h-5v-7.5c0-1.38071187 1.1192881-2.5 2.5-2.5s2.5 1.11928813 2.5 2.5z" fill="#95a5a5"/><path id="Shape" d="m56 2.5v7.5h-5v-7.5c0-1.38071187 1.1192881-2.5 2.5-2.5s2.5 1.11928813 2.5 2.5z" fill="#95a5a5"/><path id="Shape" d="m48 31h-4c-.3506687-.0009344-.6752259-.1854819-.855343-.4863593s-.1894731-.6741168-.024657-.9836407l2.66-5c.1251081-.2355921.3391576-.4114349.5945543-.4884295.2553968-.0769946.53097-.0487587.7654457.0784295.4849278.260462.66818.8638534.41 1.35l-1.88 3.53h2.33c.5522847 0 1 .4477153 1 1s-.4477153 1-1 1z" fill="#f3d55b"/><path id="Shape" d="m45.33 36c-.3506687-.0009344-.6752259-.1854819-.855343-.4863593s-.1894731-.6741168-.024657-.9836407l1.88-3.53h-2.33c-.5522847 0-1-.4477153-1-1s.4477153-1 1-1h4c.3506687.0009344.6752259.1854819.855343.4863593s.1894731.6741168.024657.9836407l-2.66 5c-.1749196.3285255-.5178193.5327242-.89.53z" fill="#f3d55b"/><g fill="#3f5c6c"><path id="Shape" d="m16 33c-.5522847 0-1-.4477153-1-1v-2c0-.5522847.4477153-1 1-1s1 .4477153 1 1v2c0 .5522847-.4477153 1-1 1z"/><path id="Shape" d="m16 55c-.5522847 0-1-.4477153-1-1v-2c0-.5522847.4477153-1 1-1s1 .4477153 1 1v2c0 .5522847-.4477153 1-1 1z"/><path id="Shape" d="m28 43h-2c-.5522847 0-1-.4477153-1-1s.4477153-1 1-1h2c.5522847 0 1 .4477153 1 1s-.4477153 1-1 1z"/><path id="Shape" d="m6 43h-2c-.55228475 0-1-.4477153-1-1s.44771525-1 1-1h2c.55228475 0 1 .4477153 1 1s-.44771525 1-1 1z"/><path id="Shape" d="m5.61 49c-.45539292.0031839-.85542119-.3017208-.97305464-.7416699-.11763346-.4399491.07684198-.903812.47305464-1.1283301l1.73-1c.31082106-.1786328.69333103-.1778752 1.0034421.0019873s.50070999.5115047.5.87-.19262104.6893799-.5034421.8680127c-1.84 1.07-1.84 1.13-2.23 1.13z"/><path id="Shape" d="m24.66 38c-.4553929.0031839-.8554212-.3017208-.9730546-.7416699-.1176335-.4399491.0768419-.903812.4730546-1.1283301l1.73-1c.3108211-.1786328.693331-.1778752 1.0034421.0019873s.50071.5115047.5.87-.192621.6893799-.5034421.8680127c-1.89 1.07-1.89 1.13-2.23 1.13z"/><path id="Shape" d="m11 34.34c-.3586848.001424-.690659-.1893658-.87-.5l-1-1.73c-.17863279-.3108211-.17787524-.693331.0019873-1.0034421s.51150466-.50071.87-.5c.3584953.00071.6893799.192621.8680127.5034421l1 1.73c.1789919.3100165.1786145.6920638-.0009896 1.001726-.1796041.3096623-.5110351.4996985-.8690104.498274z"/><path id="Shape" d="m22 53.39c-.3586848.001424-.690659-.1893658-.87-.5l-1-1.73c-.1786328-.3108211-.1778753-.693331.0019873-1.0034421.1798625-.3101111.5115047-.50071.87-.5s.6893799.192621.8680127.5034421l1 1.73c.1789919.3100165.1786145.6920638-.0009896 1.001726-.1796041.3096623-.5110351.4996985-.8690104.498274z"/><path id="Shape" d="m26.39 49c-.36 0-.37-.06-2.23-1.13-.3108211-.1786328-.5027321-.5095174-.5034421-.8680127s.1898889-.6901375.5-.87.692621-.1806201 1.0034421-.0019873l1.73 1c.3962127.2245181.5906881.688381.4730546 1.1283301-.1176334.4399491-.5176617.7448538-.9730546.7416699z"/><path id="Shape" d="m7.34 38c-.34 0-.34-.06-2.23-1.13-.31082106-.1786328-.50273211-.5095174-.5034421-.8680127s.18988893-.6901375.5-.87.69262104-.1806201 1.0034421-.0019873l1.73 1c.39621266.2245181.5906881.688381.47305464 1.1283301-.11763345.4399491-.51766172.7448538-.97305464.7416699z"/><path id="Shape" d="m10 53.39c-.3579753.0014245-.68940625-.1886117-.86901036-.498274-.1796041-.3096622-.17998154-.6917095-.00098964-1.001726l1-1.73c.1786328-.3108211.5095174-.5027321.8680127-.5034421.3584954-.00071.6901375.1898889.87.5.1798626.3101111.1806201.692621.0019873 1.0034421l-1 1.73c-.179341.3106342-.5113152.501424-.87.5z"/><path id="Shape" d="m21 34.34c-.3579753.0014245-.6894063-.1886117-.8690104-.498274-.1796041-.3096622-.1799815-.6917095-.0009896-1.001726l1-1.73c.1786328-.3108211.5095174-.5027321.8680127-.5034421s.6901375.1898889.87.5.1806201.692621.0019873 1.0034421l-1 1.73c-.179341.3106342-.5113152.501424-.87.5z"/><path id="Shape" d="m22 43h-5c-1.1045695 0-2-.8954305-2-2v-6c0-.5522847.4477153-1 1-1s1 .4477153 1 1v6h5c.5522847 0 1 .4477153 1 1s-.4477153 1-1 1z"/></g><path id="Shape" d="m16 55c-7.17970175 0-13-5.8202983-13-13s5.82029825-13 13-13c7.1797017 0 13 5.8202983 13 13 0 3.4478144-1.3696389 6.7544152-3.8076118 9.1923882-2.437973 2.4379729-5.7445738 3.8076118-9.1923882 3.8076118zm0-24c-6.07513225 0-11 4.9248678-11 11s4.92486775 11 11 11c6.0751322 0 11-4.9248678 11-11 0-2.9173814-1.1589252-5.7152744-3.2218254-7.7781746s-4.8607932-3.2218254-7.7781746-3.2218254z" fill="#3b97d3"/></g></svg>