<svg height="512" viewBox="0 0 56 58" width="512" xmlns="http://www.w3.org/2000/svg"><g id="002---Wifi-Home" fill="none" transform="translate(0 -1)"><path id="Shape" d="m15 10v6l-8 8v-14c0-.55228475.44771525-1 1-1h6c.5522847 0 1 .44771525 1 1z" fill="#3f5c6c"/><path id="Shape" d="m50 31.08v26.92c0 .5522847-.4477153 1-1 1h-42c-.55228475 0-1-.4477153-1-1v-26.92l21.82-21.84c.0471208-.04888797.1121-.07650648.18-.07650648s.1328792.02761851.18.07650648z" fill="#14a085"/><path id="Shape" d="m48 27.63v30.25c.03361.2702913-.044487.5425973-.2162434.7539898-.1717563.2113924-.4223089.3435783-.6937566.3660102h-38.18c-.27144765-.0224319-.52200026-.1546178-.69375663-.3660102-.17175637-.2113925-.24985341-.4836985-.21624337-.7539898v-30.25l19.84-24.55c.0377709-.05036117.0970485-.08.16-.08s.1222291.02963883.16.08z" fill="#26b99a"/><path id="Shape" d="m55.57 29.57-2.82 2.84c-.1877666.1893127-.4433625.2957983-.71.2957983s-.5222334-.1064856-.71-.2957983c-1.9-1.9 1.83 1.82-23.15-23.17-.0471208-.04888797-.1121-.07650648-.18-.07650648s-.1328792.02761851-.18.07650648c-25.46 25.47-21.21 21.23-23.15 23.17-.1877666.1893127-.44336246.2957983-.71.2957983s-.5222334-.1064856-.71-.2957983l-2.82-2.84c-.38772359-.3900375-.38772359-1.0199625 0-1.41 26.9-26.9 22.19-22.16 26.86-26.87.1877666-.18931265.4433625-.29579832.71-.29579832s.5222334.10648567.71.29579832c4.57 4.57-.57-.56 26.86 26.87.3877236.3900375.3877236 1.0199625 0 1.41z" fill="#547580"/><g fill="#f5efca"><circle id="Oval" cx="28" cy="50" r="2"/><path id="Shape" d="m41.74 39.43-1.54 1.29c-.3821091.3495764-.9678909.3495764-1.35 0-2.821656-2.9808937-6.7454331-4.6696008-10.85-4.6696008s-8.028344 1.6887071-10.85 4.6696008c-.3821091.3495764-.9678909.3495764-1.35 0l-1.54-1.29c-.2019183-.1785426-.3232131-.4310351-.3363913-.7002466s.0828763-.5323434.2663913-.7297534c3.5891036-3.7983316 8.5841998-5.9507127 13.81-5.9507127s10.2208964 2.1523811 13.81 5.9507127c.183515.19741.2795695.4605419.2663913.7297534s-.134473.521704-.3363913.7002466z"/><path id="Shape" d="m35.6 44.59-1.54 1.3c-.3775063.3316459-.9424937.3316459-1.32 0-2.6791357-2.4653852-6.8008643-2.4653852-9.48 0-.3775063.3316459-.9424937.3316459-1.32 0l-1.54-1.3c-.2118604-.1896973-.3329355-.4606237-.3329355-.745s.1210751-.5553027.3329355-.745c4.2648333-4.1276387 11.0351667-4.1276387 15.3 0 .1998075.2035838.3031621.4828072.2840605.7674202-.0191015.2846129-.1588407.5475213-.3840605.7225798z"/></g></g></svg>