<svg id="Layer_1" height="512" viewBox="0 0 150 150" width="512" xmlns="http://www.w3.org/2000/svg" data-name="Layer 1"><circle cx="75" cy="75" fill="#ea8953" r="64"/><path d="m114.25 54-4.31 17.79-11.56-2.7h-.13l-13 3.83-10.3 3-10.3-3-13-3.83h-.12l-11.47 2.66-4.31-17.75 25.39-13.23h5.86v.37a8.06 8.06 0 0 0 16.12 0c0-.12 0-.24 0-.37h5.81z" fill="#e1e6e9"/><path d="m88.86 40.77h-3.73l.11 18.51h-20.48l.12-18.51h-3.74s1.21 18.23-9.51 28.29l3.78 40.17h14.11l5.35-13.35h.26l5.36 13.35h14.11l3.78-40.17c-10.72-10.06-9.52-28.29-9.52-28.29z" fill="#3a556a"/><path d="m75 64.76a10.59 10.59 0 1 0 10.59 10.59 10.59 10.59 0 0 0 -10.59-10.59z" fill="#fcd462"/><g fill="#3a556a"><path d="m78.91 71a1.34 1.34 0 1 0 1.34 1.34 1.34 1.34 0 0 0 -1.34-1.34z"/><path d="m71.09 71a1.34 1.34 0 1 0 1.34 1.34 1.34 1.34 0 0 0 -1.34-1.34z"/><path d="m80.65 78a6 6 0 0 1 -11.29 0l-1.15.43a7.26 7.26 0 0 0 13.58 0z"/></g></svg>