<svg id="Layer_1" height="512" viewBox="0 0 150 150" width="512" xmlns="http://www.w3.org/2000/svg" data-name="Layer 1"><circle cx="75" cy="75" fill="#45b39c" r="64"/><rect fill="#fcd462" height="59.31" rx="2.44" width="61.29" x="40.09" y="42.07"/><path d="m61.3 42.07v17.74l1.84-1.99 1.9 2.03 1.91-2.03 1.89 2.03 1.89-2.03 1.9 2.03 1.89-2.03 1.91 2.03 1.9-2.03 1.84 1.99v-17.74z" fill="#ebf0f3"/><g fill="#3a556a"><path d="m55.2 83.83-4.7-5.93-4.7 5.93h2.82v13.48h3.77v-13.48z"/><path d="m65.99 83.83-4.69-5.93-4.7 5.93h2.81v13.48h3.77v-13.48z"/><path d="m95.37 93.81v-7a4.71 4.71 0 1 1 9.41 0v7h2.62v-7a7.33 7.33 0 0 0 -14.65 0v7z"/></g><rect fill="#e56353" height="16.72" rx=".99" width="19.67" x="90.24" y="91.21"/><path d="m92.6 93.65h14.94v11.84h-14.94z" fill="#d15241"/><path d="m101.69 98.68a1.62 1.62 0 1 0 -2.52 1.32l-.48 3h2.77l-.49-3a1.62 1.62 0 0 0 .72-1.32z" fill="#2f4859"/></svg>