<svg id="Layer_1" height="512" viewBox="0 0 150 150" width="512" xmlns="http://www.w3.org/2000/svg" data-name="Layer 1"><circle cx="75" cy="75" fill="#e05b49" r="64"/><rect fill="#3ea69b" height="40.06" rx="3.19" width="74.54" x="44.17" y="66.75"/><path d="m110.11 69.61h-57.35a5.72 5.72 0 0 1 -5.76 5.73v22.87a5.73 5.73 0 0 1 5.73 5.73h57.35a5.74 5.74 0 0 1 5.73-5.73v-22.87a5.73 5.73 0 0 1 -5.7-5.73z" fill="#ebf0f3"/><path d="m81.44 75.67c-4.75 0-8.61 5-8.61 11.11s3.86 11.1 8.61 11.1 8.6-5 8.6-11.1-3.85-11.11-8.6-11.11z" fill="#3ea69b"/><circle cx="102.94" cy="86.78" fill="#3ea69b" r="4.97"/><circle cx="59.93" cy="86.78" fill="#44c4a1" r="4.97"/><path d="m85.24 87.68a3.21 3.21 0 0 0 -1.37-1.09 11.35 11.35 0 0 0 -1.93-.59v-3.37a2.43 2.43 0 0 1 1.33.49 2.16 2.16 0 0 1 .73 1.53l1.36-.11a3.27 3.27 0 0 0 -.53-1.68 3.08 3.08 0 0 0 -1.39-1.13 5.39 5.39 0 0 0 -1.51-.33v-1.7h-1v1.69a4.8 4.8 0 0 0 -1.54.33 2.87 2.87 0 0 0 -1.34 1.06 2.71 2.71 0 0 0 -.46 1.52 2.46 2.46 0 0 0 .41 1.33 3 3 0 0 0 1.14 1 9.34 9.34 0 0 0 1.82.61v3.83a3.72 3.72 0 0 1 -.9-.24 2.5 2.5 0 0 1 -1.06-.83 3 3 0 0 1 -.44-1.32l-1.34.12a3.65 3.65 0 0 0 .59 1.92 3.39 3.39 0 0 0 1.5 1.28 5.69 5.69 0 0 0 1.62.36v1.51h1v-1.49a4.69 4.69 0 0 0 1.87-.38 3.19 3.19 0 0 0 1.4-1.17 2.87 2.87 0 0 0 .49-1.61 2.64 2.64 0 0 0 -.45-1.54zm-5.87-2.53a1.21 1.21 0 0 1 -.42-1 1.41 1.41 0 0 1 .59-1.13 2.54 2.54 0 0 1 1.39-.45v3.15a4.27 4.27 0 0 1 -1.56-.57zm4.63 5.08a2 2 0 0 1 -.92.66 3.74 3.74 0 0 1 -1.16.22v-3.63a10.83 10.83 0 0 1 1.13.33 2.11 2.11 0 0 1 1 .63 1.36 1.36 0 0 1 .3.88 1.47 1.47 0 0 1 -.35.91z" fill="#3ea69b"/><rect fill="#44c4a1" height="40.06" rx="3.19" transform="matrix(.924 -.383 .383 .924 -23.22 33.48)" width="74.54" x="35.14" y="54.97"/><path d="m92.32 48.16-53 22a5.73 5.73 0 0 1 -3.1 7.49l8.78 21.1a5.73 5.73 0 0 1 7.49 3.09l53-22a5.74 5.74 0 0 1 3.09-7.49l-8.77-21.1a5.73 5.73 0 0 1 -7.49-3.09z" fill="#ebf0f3"/><g fill="#44c4a1"><path d="m68.16 64.74c-4.39 1.82-6 7.89-3.69 13.56s7.81 8.78 12.2 7 6-7.89 3.69-13.56-7.81-8.82-12.2-7z"/><path d="m90.38 62.17a5 5 0 1 0 6.49 2.68 5 5 0 0 0 -6.49-2.68z"/><path d="m50.65 78.66a5 5 0 1 0 6.49 2.68 5 5 0 0 0 -6.49-2.68z"/></g><path d="m76.28 74.38a3.12 3.12 0 0 0 -1.69-.48 13.17 13.17 0 0 0 -2 .2l-1.3-3.1a2.41 2.41 0 0 1 1.42-.06 2.16 2.16 0 0 1 1.29 1.11l1.21-.62a3.19 3.19 0 0 0 -1.13-1.35 3 3 0 0 0 -1.72-.51 5.36 5.36 0 0 0 -1.52.27l-.65-1.57-.93.39.64 1.56a4.84 4.84 0 0 0 -1.29.89 2.83 2.83 0 0 0 -.83 1.5 2.7 2.7 0 0 0 .15 1.57 2.46 2.46 0 0 0 .86 1.09 2.86 2.86 0 0 0 1.43.48 8.76 8.76 0 0 0 1.92-.14l1.47 3.54a3.69 3.69 0 0 1 -.92.12 2.38 2.38 0 0 1 -1.31-.36 2.88 2.88 0 0 1 -.92-1l-1.18.62a3.65 3.65 0 0 0 1.25 1.47 3.44 3.44 0 0 0 1.91.58 5.36 5.36 0 0 0 1.64-.29l.58 1.4.93-.39-.59-1.3a4.67 4.67 0 0 0 1.56-1.08 3.19 3.19 0 0 0 .85-1.62 3 3 0 0 0 -.17-1.67 2.64 2.64 0 0 0 -.96-1.25zm-6.4-.09a1.18 1.18 0 0 1 -.74-.72 1.41 1.41 0 0 1 .1-1.27 2.58 2.58 0 0 1 1.12-.94l1.2 2.9a4.26 4.26 0 0 1 -1.68.03zm6.25 2.91a1.94 1.94 0 0 1 -.6 1 3.4 3.4 0 0 1 -1 .65l-1.39-3.35a10.73 10.73 0 0 1 1.17-.13 2.06 2.06 0 0 1 1.13.21 1.4 1.4 0 0 1 .61.7 1.57 1.57 0 0 1 .08.92z" fill="#3ea69b"/></svg>