<svg id="Layer_1" height="512" viewBox="0 0 150 150" width="512" xmlns="http://www.w3.org/2000/svg" data-name="Layer 1"><circle cx="75" cy="75" fill="#e05b49" r="64"/><path d="m80.19 57c-1.32 1-6.7-5.36-8-7-2.62-3.39-3.4-5.53-2.34-6.35s2.94.48 5.55 3.88c1.3 1.58 6.11 8.41 4.79 9.47zm-9.9-12.84c-.53.41-.16 2 2.45 5.45 3 3.9 6.37 6.9 7.05 6.87.2-.65-1.85-4.65-4.86-8.56-2.62-3.44-4.11-4.21-4.64-3.81z" fill="#ebf0f3"/><path d="m90.06 52.37-10.84-1.49a1.77 1.77 0 0 0 -1.33.35l-2.7 2.08a1.78 1.78 0 0 0 -.68 1.2l-1.31 10.86a1.77 1.77 0 0 0 .35 1.3l16 20.74a1.77 1.77 0 0 0 2.49.32l14.86-11.45a1.79 1.79 0 0 0 .32-2.5l-16-20.73a1.79 1.79 0 0 0 -1.16-.68zm-9.21 5.5a1.86 1.86 0 1 1 .34-2.61 1.85 1.85 0 0 1 -.34 2.61z" fill="#fcd462"/><path d="m78.16 54.38a2.55 2.55 0 1 0 3.59.46 2.54 2.54 0 0 0 -3.59-.46zm2.69 3.49a1.86 1.86 0 1 1 .34-2.61 1.85 1.85 0 0 1 -.34 2.61z" fill="#f7be56"/><path d="m104.61 74.57-13.61 10.53-13.48-17.43 13.66-10.53zm-13.61 9.92 13-10-12.9-16.74-13 10z" fill="#f7be56"/><path d="m84.74 72.35a3.31 3.31 0 0 1 -.74-1.9 2 2 0 0 1 .84-1.66 2.17 2.17 0 0 1 1.76-.45 3.66 3.66 0 0 1 2.57 3.34 2.16 2.16 0 0 1 -.86 1.59 2.09 2.09 0 0 1 -1.72.41 3.13 3.13 0 0 1 -1.85-1.33zm.68-2.86a1 1 0 0 0 -.38.83 2.67 2.67 0 0 0 .69 1.43 2.38 2.38 0 0 0 1.15 1 1 1 0 0 0 1.29-1 2.67 2.67 0 0 0 -.69-1.43 2.43 2.43 0 0 0 -1.15-1 1 1 0 0 0 -.91.17zm6.35 8.22-2.25-12.53.84-.65 2.27 12.47zm1.9-5.14a3.24 3.24 0 0 1 -.74-1.9 2 2 0 0 1 .84-1.67 2.18 2.18 0 0 1 1.77-.45 3 3 0 0 1 1.81 1.27 3 3 0 0 1 .75 2.07 2.17 2.17 0 0 1 -.86 1.6 2.11 2.11 0 0 1 -1.73.41 3.18 3.18 0 0 1 -1.84-1.33zm.68-2.86a1 1 0 0 0 -.39.84 2.66 2.66 0 0 0 .7 1.43 2.35 2.35 0 0 0 1.14.94 1 1 0 0 0 1.3-1 2.62 2.62 0 0 0 -.69-1.42 2.46 2.46 0 0 0 -1.15-1 1 1 0 0 0 -.91.21z" fill="#3a556a"/><path d="m69.89 43.6.39.52c.53-.4 2 .37 4.64 3.76 3 3.91 5.06 7.91 4.86 8.56l.41.53c1.32-1-3.49-7.84-4.75-9.47-2.61-3.42-4.44-4.72-5.55-3.9z" fill="#ebf0f3"/><path d="m94.34 104.22a26.55 26.55 0 0 0 -5.88-1c-9.68-3.79-10.52-8.83-17-13.47s-5.89-9.25-5.32-13.75c.31-2.61 2.66-14.47 4.57-23.94.27-1.37.53-2.68.78-3.91h-24.95q0 1 0 2c.17 11.61.35 27.07.18 30.65-.09 2-1.38 4.81-2.53 7.75-.07.19-.14.39-.22.58a10.75 10.75 0 0 1 3.95 2.87 8.71 8.71 0 0 1 1.64 8.56 6.88 6.88 0 0 1 -1 1.68l.69.16a4.71 4.71 0 0 0 .52.09c13.21 2.61 17.53 9.05 22.5 9.74a121.67 121.67 0 0 0 13.23 1.11h.72a4.93 4.93 0 0 1 2.51-4.41c2.65-1.28 4.75-3.22 7.5-4a14 14 0 0 0 -1.89-.71z" fill="#e1e6e9"/><g fill="#3a556a"><path d="m71.84 39.31a107.13 107.13 0 0 0 -24.05-2.67 1.43 1.43 0 0 0 -1.42 1.47c0 2.19.12 6.7.2 12 4 .16 15.25.76 24.14 1.93 1-4.8 1.8-9 2.22-11.06a1.44 1.44 0 0 0 -1.09-1.67z"/><path d="m54.33 92-4.52 10.54a4.71 4.71 0 0 1 -.52-.09c-9-1.67-7.32-8.05-5.07-13.87z"/><path d="m99.42 109.57c-.47 3.26-7.15 3.94-13.88 3.77-.66-2-.53-4.22.58-5.26s6-3 8.22-3.86c2.81.84 5.49 2.44 5.08 5.35z"/></g></svg>