<svg id="Layer_1" height="512" viewBox="0 0 150 150" width="512" xmlns="http://www.w3.org/2000/svg" data-name="Layer 1"><circle cx="75" cy="75" fill="#e05b49" r="64"/><rect fill="#3a556a" height="74.73" rx="3.15" width="47.6" x="51.2" y="37.64"/><path d="m54.07 48.24h41.86v53.52h-41.86z" fill="#27a2db"/><path d="m81.39 41.86h-12.78a1 1 0 1 0 0 2h12.78a1 1 0 1 0 0-2z" fill="#2f4859"/><rect fill="#2f4859" height="4.36" rx="1.04" width="8.09" x="70.96" y="105"/><path d="m99.57 58.46-7.11 2.46v4.93a2.14 2.14 0 0 0 2.15 2.15h7.39a2.14 2.14 0 0 0 2.15-2.14v-4.94z" fill="#f7be56"/><path d="m87.93 58.46-7.11 2.46v4.93a2.14 2.14 0 0 0 2.18 2.15h7.35a2.14 2.14 0 0 0 2.14-2.14v-4.94z" fill="#d5d6db"/><path d="m76.29 58.46-7.11 2.46v4.93a2.14 2.14 0 0 0 2.14 2.15h7.36a2.14 2.14 0 0 0 2.14-2.14v-4.94z" fill="#f7be56"/><path d="m64.64 58.46-7.1 2.46v4.93a2.14 2.14 0 0 0 2.14 2.15h7.32a2.14 2.14 0 0 0 2.15-2.14v-4.94z" fill="#d5d6db"/><path d="m53 58.46-7.11 2.46v4.93a2.14 2.14 0 0 0 2.11 2.15h7.35a2.14 2.14 0 0 0 2.15-2.14v-4.94z" fill="#f7be56"/><path d="m57.54 60.92h-11.65l8.18-12.68h8.37z" fill="#fcd462"/><path d="m69.18 60.92h-11.64l4.9-12.68h8.37z" fill="#ebf0f3"/><path d="m80.82 60.92h-11.64l1.63-12.68h8.38z" fill="#fcd462"/><path d="m92.46 60.92h-11.64l-1.63-12.68h8.37z" fill="#ebf0f3"/><path d="m104.11 60.92h-11.65l-4.9-12.68h8.37z" fill="#fcd462"/><path d="m65.8 82.65.11 1.16.83 9a1.16 1.16 0 0 0 1.16 1.06h14.2a1.16 1.16 0 0 0 1.16-1.06l.83-9 .11-1.16zm3.12 9.57-.6-7.5h1.55l.46 7.5zm3.58 0-.24-7.5h1.55l.1 7.5zm5 0h-1.4l.11-7.5h1.54zm3.59 0h-1.42l.46-7.5h1.55z" fill="#d5d6db"/><rect fill="#ebf0f3" height="3.02" rx=".81" width="22.96" x="63.52" y="80.79"/><path d="m79.59 83a.83.83 0 0 0 1.18 0l5.47-5.46a.85.85 0 0 0 0-1.18.83.83 0 0 0 -1.18 0l-5.47 5.46a.85.85 0 0 0 0 1.18z" fill="#3a556a"/><path d="m70.41 83a.83.83 0 0 1 -1.18 0l-5.47-5.5a.85.85 0 0 1 0-1.18.83.83 0 0 1 1.18 0l5.47 5.46a.85.85 0 0 1 0 1.22z" fill="#3a556a"/><g fill="#e1e6e9"><path d="m80.18 82.73a.36.36 0 1 1 .36-.36.36.36 0 0 1 -.36.36z"/><path d="m69.82 82.73a.36.36 0 1 1 .36-.36.36.36 0 0 1 -.36.36z"/></g></svg>