<svg id="Layer_1" height="512" viewBox="0 0 150 150" width="512" xmlns="http://www.w3.org/2000/svg" data-name="Layer 1"><circle cx="75" cy="75" fill="#efc84a" r="64"/><path d="m62.13 93.24h25.73v10.85h-25.73z" fill="#2f4859"/><rect fill="#3a556a" height="50.32" rx="1.87" width="75.07" x="37.47" y="45.22"/><path d="m42.06 49.41h65.88v37.29h-65.88z" fill="#27a2db"/><path d="m55.95 101.41h38.1v3.37h-38.1z" fill="#3a556a"/><g fill="#64798a"><path d="m101.64 90.34h3.19v1.34h-3.19z"/><path d="m96.01 90.34h3.19v1.34h-3.19z"/><path d="m90.39 90.34h3.18v1.34h-3.18z"/></g><path d="m111 52.7-5.1 1.76v3.54a4.41 4.41 0 1 0 8.82 0v-3.54z" fill="#d15241"/><path d="m102.15 52.7-5.1 1.76v3.54a4.41 4.41 0 0 0 8.82 0v-3.54z" fill="#d5d6db"/><path d="m93.33 52.7-5.1 1.76v3.54a4.41 4.41 0 0 0 8.82 0v-3.54z" fill="#d15241"/><path d="m84.51 52.7-5.1 1.76v3.54a4.41 4.41 0 0 0 8.82 0v-3.54z" fill="#d5d6db"/><path d="m75.69 52.7-5.1 1.76v3.54a4.41 4.41 0 0 0 8.82 0v-3.54z" fill="#d15241"/><path d="m66.87 52.7-5.1 1.76v3.54a4.41 4.41 0 0 0 8.82 0v-3.54z" fill="#d5d6db"/><path d="m58.05 52.7-5.05 1.76v3.54a4.41 4.41 0 0 0 8.82 0v-3.54z" fill="#d15241"/><path d="m44.13 54.46v3.54a4.41 4.41 0 0 0 8.87 0v-3.54l-3.77-1.76z" fill="#d5d6db"/><path d="m40.41 52.7-5.1 1.76v3.54a4.41 4.41 0 0 0 8.82 0v-3.54z" fill="#d15241"/><path d="m44.13 54.46h-8.82l6.75-5.05h7.32z" fill="#e56353"/><path d="m52.95 54.46h-8.82l5.25-5.05h7.32z" fill="#e1e6e9"/><path d="m61.77 54.46h-8.82l3.75-5.05h7.32z" fill="#e56353"/><path d="m70.59 54.46h-8.82l2.25-5.05h7.32z" fill="#e1e6e9"/><path d="m79.41 54.46h-8.82l.75-5.05h7.32z" fill="#e56353"/><path d="m88.23 54.46h-8.82l-.75-5.05h7.32z" fill="#e1e6e9"/><path d="m97.05 54.46h-8.82l-2.25-5.05h7.32z" fill="#e56353"/><path d="m105.87 54.46h-8.82l-3.75-5.05h7.32z" fill="#e1e6e9"/><path d="m114.69 54.46h-8.82l-5.25-5.05h7.32z" fill="#e56353"/><path d="m84.71 73a.87.87 0 0 0 -.74-.71 21.42 21.42 0 0 1 -8.48-2.89v-1.86a.35.35 0 0 0 -.35-.35h-.42a1.16 1.16 0 1 1 1.38-1.74.36.36 0 0 0 .51.1.37.37 0 0 0 .1-.51 1.92 1.92 0 0 0 -2.23-.73 1.89 1.89 0 0 0 -1.21 1.37 1.91 1.91 0 0 0 1.39 2.32v1.36a20.65 20.65 0 0 1 -8.63 3 .87.87 0 0 0 -.74.71.83.83 0 0 0 .82 1h17.78a.83.83 0 0 0 .82-1.07zm-9.71 0-8.29.12s6.13-1.14 8.29-2.65c2.16 1.51 8.29 2.65 8.29 2.65z" fill="#3a556a"/><path d="m68.15 72.96h13.36v9.27h-13.36z" fill="#e1e6e9"/><path d="m68.15 78.91h13.36v.48h-13.36z" fill="#3a556a"/><path d="m68.15 79.94h13.36v.48h-13.36z" fill="#e56353"/></svg>