<svg id="Layer_1" height="512" viewBox="0 0 150 150" width="512" xmlns="http://www.w3.org/2000/svg" data-name="Layer 1"><circle cx="75" cy="75" fill="#efc84a" r="64"/><path d="m95.86 35.57a120.78 120.78 0 0 0 -41.72 0 5.22 5.22 0 0 0 -4.32 5.13v69a5.21 5.21 0 0 0 4.52 5.15 152.07 152.07 0 0 0 41.32 0 5.21 5.21 0 0 0 4.52-5.15v-69a5.22 5.22 0 0 0 -4.32-5.13z" fill="#2f4859"/><path d="m52.21 47.68h45.58v54.63h-45.58z" fill="#ebf0f3"/><path d="m66.86 40.82h16.29v2.66h-16.29z" fill="#64798a"/><path d="m75 105.64a2.77 2.77 0 1 0 2.77 2.76 2.77 2.77 0 0 0 -2.77-2.76z" fill="#64798a"/><rect fill="#44c4a1" height="20.27" rx=".94" width="37.9" x="56.05" y="64.87"/><path d="m57.52 66.33h34.96v17.33h-34.96z" fill="#3ea69b"/><path d="m88.07 67.8h-26.14a2.94 2.94 0 0 1 -2.93 2.94v8.52a2.94 2.94 0 0 1 2.94 2.94h26.13a2.94 2.94 0 0 1 2.93-2.94v-8.52a2.94 2.94 0 0 1 -2.93-2.94z" fill="#44c4a1"/><g fill="#ebf0f3"><path d="m75 70.76a4.24 4.24 0 1 0 4.24 4.24 4.24 4.24 0 0 0 -4.24-4.24z"/><path d="m85.35 73a2 2 0 1 0 2 2 2 2 0 0 0 -2-2z"/><path d="m64.65 73a2 2 0 1 0 2 2 2 2 0 0 0 -2-2z"/></g><path d="m76.68 75.4a1.44 1.44 0 0 0 -.61-.48 5.19 5.19 0 0 0 -.85-.25v-1.5a1.09 1.09 0 0 1 .59.22 1 1 0 0 1 .32.67h.6a1.41 1.41 0 0 0 -.23-.74 1.32 1.32 0 0 0 -.61-.5 2.74 2.74 0 0 0 -.67-.15v-.75h-.44v.75a2.49 2.49 0 0 0 -.68.14 1.28 1.28 0 0 0 -.59.47 1.17 1.17 0 0 0 -.2.67 1.06 1.06 0 0 0 .16.58 1.28 1.28 0 0 0 .5.44 3.92 3.92 0 0 0 .81.27v1.69a1.68 1.68 0 0 1 -.4-.11 1.05 1.05 0 0 1 -.47-.37 1.32 1.32 0 0 1 -.2-.58h-.58a1.55 1.55 0 0 0 .26.85 1.47 1.47 0 0 0 .67.56 2.46 2.46 0 0 0 .72.16v.67h.44v-.65a2.14 2.14 0 0 0 .82-.18 1.43 1.43 0 0 0 .62-.51 1.33 1.33 0 0 0 .21-.71 1.17 1.17 0 0 0 -.19-.66zm-2.59-1.12a.52.52 0 0 1 -.18-.41.6.6 0 0 1 .26-.5 1.07 1.07 0 0 1 .61-.2v1.39a2 2 0 0 1 -.69-.28zm2 2.24a.87.87 0 0 1 -.41.29 1.59 1.59 0 0 1 -.51.1v-1.6a3.62 3.62 0 0 1 .5.15.85.85 0 0 1 .42.27.59.59 0 0 1 .13.39.66.66 0 0 1 -.08.4z" fill="#44c4a1"/></svg>