<svg id="Layer_1" height="512" viewBox="0 0 150 150" width="512" xmlns="http://www.w3.org/2000/svg" data-name="Layer 1"><circle cx="75" cy="75" fill="#efc84a" r="64"/><path d="m63.87 92.29h22.26v13.19h-22.26z" fill="#2f4859"/><rect fill="#3a556a" height="52.22" rx="1.62" width="72.37" x="38.82" y="43.15"/><path d="m42.65 46.71h64.7v39.94h-64.7z" fill="#27a2db"/><path d="m52.89 102.81h44.21v4.04h-44.21z" fill="#3a556a"/><circle cx="74.78" cy="90.52" fill="#2f4859" r="2.04"/><path d="m63.46 52.65h23.09v3.75h-23.09z" fill="#fcd462"/><path d="m86.54 55.87-1.72-1.91 1.72-1.31h-23.08l1.43 1.43-1.43 1.79 10.32 3.02 8.15-.79z" fill="#f7be56"/><path d="m84.82 53.96v3.19h1.72v-1.28z" fill="#e2aa50"/><path d="m64.89 54.08.15 3.07h-1.58v-1.28z" fill="#e2aa50"/><path d="m63.46 55.87h23.09v24.11h-23.09z" fill="#fcd462"/><path d="m70.18 58.67a.81.81 0 1 0 .81.81.8.8 0 0 0 -.81-.81z" fill="#2f4859"/><path d="m79.82 58.67a.81.81 0 1 0 .8.81.81.81 0 0 0 -.8-.81z" fill="#2f4859"/><path d="m75 69.51a5.22 5.22 0 0 1 -5.22-5.22v-4.81a.41.41 0 0 1 .81 0v4.81a4.41 4.41 0 1 0 8.82 0v-4.81a.41.41 0 0 1 .81 0v4.81a5.22 5.22 0 0 1 -5.22 5.22z" fill="#fff"/></svg>