<svg id="Layer_1" height="512" viewBox="0 0 150 150" width="512" xmlns="http://www.w3.org/2000/svg" data-name="Layer 1"><circle cx="75" cy="75" fill="#45b39c" r="64"/><rect fill="#e1e6e9" height="46.48" rx="1.69" width="79.59" x="35.2" y="51.76"/><g fill="#3a556a"><path d="m42.79 57.55h1.91v31.99h-1.91z"/><path d="m55.67 57.55h1.91v31.99h-1.91z"/><path d="m53.08 57.55h.95v31.99h-.95z"/><path d="m47.07 57.55h4.42v31.99h-4.42z"/><path d="m59.33 57.55h1.91v31.99h-1.91z"/><path d="m72.21 57.55h1.91v31.99h-1.91z"/><path d="m69.62 57.55h.95v31.99h-.95z"/><path d="m83.15 57.55h.95v31.99h-.95z"/><path d="m63.61 57.55h4.42v31.99h-4.42z"/><path d="m75.88 57.55h1.91v31.99h-1.91z"/><path d="m88.76 57.55h1.91v31.99h-1.91z"/><path d="m86.17 57.55h.95v31.99h-.95z"/><path d="m80.16 57.55h.93v31.99h-.93z"/><path d="m92.43 57.55h1.91v31.99h-1.91z"/><path d="m105.3 57.55h1.91v31.99h-1.91z"/><path d="m102.72 57.55h.95v31.99h-.95z"/><path d="m96.7 57.55h4.42v31.99h-4.42z"/><path d="m42.79 92.98h3.3v1.33h-3.3z"/><path d="m47.88 92.98h3.3v1.33h-3.3z"/><path d="m52.97 92.98h3.3v1.33h-3.3z"/><path d="m58.07 92.98h3.3v1.33h-3.3z"/><path d="m63.16 92.98h3.3v1.33h-3.3z"/><path d="m68.25 92.98h3.3v1.33h-3.3z"/><path d="m73.35 92.98h3.3v1.33h-3.3z"/><path d="m78.44 92.98h3.3v1.33h-3.3z"/><path d="m83.53 92.98h3.3v1.33h-3.3z"/><path d="m88.63 92.98h3.3v1.33h-3.3z"/><path d="m93.72 92.98h3.3v1.33h-3.3z"/><path d="m98.81 92.98h3.3v1.33h-3.3z"/><path d="m103.91 92.98h3.3v1.33h-3.3z"/></g></svg>