<svg id="Layer_1" height="512" viewBox="0 0 150 150" width="512" xmlns="http://www.w3.org/2000/svg" data-name="Layer 1"><circle cx="75" cy="75" fill="#334d5c" r="64"/><path d="m110.22 42.07c-24.49 1.93-35.22-4.47-35.22-4.47s-10.81 6.4-35.29 4.47c0 0-9 56.86 35.25 70.33 44.68-13.47 35.26-70.33 35.26-70.33z" fill="#e56353"/><path d="m75 108.21c-16.11-5.33-26.3-17.64-30.27-36.62a91.23 91.23 0 0 1 -1.46-25.29c1.8.08 3.57.13 5.3.13 14.17 0 22.75-2.84 26.39-4.4 3.65 1.56 12.23 4.4 26.4 4.4 1.73 0 3.51 0 5.32-.13a90.19 90.19 0 0 1 -1.3 25.3c-3.91 18.98-14.14 31.29-30.38 36.61z" fill="#e1e6e9"/><path d="m75 108.21c-16.11-5.33-26.3-17.64-30.27-36.62a91.23 91.23 0 0 1 -1.46-25.29c1.8.08 3.57.13 5.3.13 14.17 0 22.75-2.84 26.39-4.4 3.65 1.56 12.23 4.4 26.4 4.4 1.73 0 3.51 0 5.32-.13a90.19 90.19 0 0 1 -1.3 25.3c-3.91 18.98-14.14 31.29-30.38 36.61z" fill="#d15241"/><path d="m75 106.1c-15-5.2-24.55-16.94-28.31-34.92a88.64 88.64 0 0 1 -1.53-22.81c1.16 0 2.31.06 3.44.06 13.49 0 22.09-2.52 26.39-4.24 4.3 1.72 12.9 4.24 26.39 4.24 1.15 0 2.31 0 3.49-.06a87.91 87.91 0 0 1 -1.42 22.83c-3.73 17.97-13.3 29.71-28.45 34.9z" fill="#e1e6e9"/><circle cx="75" cy="73.39" fill="#d15241" r="16.18"/><circle cx="75" cy="73.39" fill="#ebf0f3" r="13.16"/><path d="m72.04 80.39-5.92-5.93 2.15-2.15 3.77 3.77 9.69-9.69 2.15 2.16z" fill="#3a556a"/></svg>