<svg id="Layer_1" height="512" viewBox="0 0 150 150" width="512" xmlns="http://www.w3.org/2000/svg" data-name="Layer 1"><circle cx="75" cy="75" fill="#e05b49" r="64"/><path d="m111.55 68.89a3.26 3.26 0 0 0 -2.81-2.68c-17.54-2.58-27.92-8.31-31.88-10.9v-7.05a1.33 1.33 0 0 0 -1.32-1.32h-1.54a4.38 4.38 0 1 1 5.18-6.54 1.39 1.39 0 0 0 2.3-1.56 7.19 7.19 0 0 0 -8.48-2.73 7.08 7.08 0 0 0 -4.54 5.15 7.18 7.18 0 0 0 5.23 8.53v5.13c-3.44 2.35-14 8.57-32.47 11.29a3.26 3.26 0 0 0 -2.81 2.68 3.15 3.15 0 0 0 3.12 3.6h66.86a3.15 3.15 0 0 0 3.16-3.6zm-36.55-.26-31.2.42s23.07-4.29 31.2-10c8.13 5.69 31.2 10 31.2 10z" fill="#3a556a"/><path d="m49.23 68.63h50.26v45.68h-50.26z" fill="#e1e6e9"/><path d="m49.23 101.83h50.26v1.8h-50.26z" fill="#44c4a1"/><path d="m49.23 105.72h50.26v1.8h-50.26z" fill="#fcd462"/></svg>