<svg height="512pt" viewBox="0 -79 512.0006 512" width="512pt" xmlns="http://www.w3.org/2000/svg"><path d="m355.929688 220.6875-93.660157 132.414062h-12.535156l-93.664063-132.414062zm0 0" fill="#e6e7e8"/><path d="m399.625 158.894531-43.695312 61.792969h-199.859376l-43.695312-61.792969zm0 0" fill="#3b97d3"/><path d="m512 17.65625v317.792969c-.03125 9.738281-7.917969 17.625-17.65625 17.652343h-232.074219l245.40625-346.921874c2.808594 3.160156 4.347657 7.246093 4.324219 11.476562zm0 0" fill="#c03a2b"/><path d="m249.734375 353.101562h-232.078125c-9.738281-.027343-17.625-7.914062-17.65625-17.652343v-317.792969c-.0234375-4.230469 1.515625-8.316406 4.328125-11.476562l108.046875 152.714843 43.699219 61.792969zm0 0" fill="#c03a2b"/><path d="m494.34375 0h-476.6875c-5.136719-.0078125-10.015625 2.253906-13.332031 6.179688l108.050781 152.714843h287.25l108.050781-152.714843c-3.316406-3.925782-8.195312-6.1875005-13.332031-6.179688zm0 0" fill="#2c2f38"/><path d="m379.585938 126.410156-40.785157 32.484375h-165.601562l-40.785157-32.484375 65.148438-2.296875-17.921875-63.910156 54.023437 37.164063 22.335938-62.410157 22.332031 62.410157 54.027344-37.164063-17.921875 63.910156zm0 0" fill="#f3d55b"/></svg>