<svg height="512pt" viewBox="0 -79 512 512" width="512pt" xmlns="http://www.w3.org/2000/svg"><path d="m512 176.550781v158.898438c-.027344 9.738281-7.914062 17.625-17.65625 17.65625h-476.6875c-9.742188-.03125-17.6289062-7.917969-17.65625-17.65625v-158.898438zm0 0" fill="#c03a2b"/><path d="m512 17.65625v158.894531h-344.277344v-176.550781h326.621094c9.742188.0273438 17.628906 7.917969 17.65625 17.65625zm0 0" fill="#e6e7e8"/><path d="m167.722656 0v176.550781h-167.722656v-158.894531c.0273438-9.742188 7.914062-17.6289062 17.65625-17.65625zm0 0" fill="#285680"/><path d="m83.863281 35.3125 17.734375 35.441406 39.644532 5.675782-28.691407 27.585937 6.769531 38.957031-35.457031-18.398437-35.460937 18.398437 6.769531-38.957031-28.6875-27.585937 39.644531-5.675782zm0 0" fill="#e6e7e8"/></svg>