<svg height="512pt" viewBox="0 -79 512 512" width="512pt" xmlns="http://www.w3.org/2000/svg"><path d="m397.242188 353.105469h97.101562c9.75 0 17.65625-7.90625 17.65625-17.65625v-317.792969c0-9.753906-7.90625-17.65625-17.65625-17.65625h-476.6875c-9.753906 0-17.65625 7.90625-17.65625 17.65625v317.792969c0 9.75 7.902344 17.652343 17.65625 17.652343h379.585938zm0 0" fill="#e6e7e8"/><path d="m194.207031 114.757812v-114.757812h123.585938v114.757812h194.207031v123.585938h-194.207031v114.761719h-123.585938v-114.761719h-194.207031v-123.585938zm0 0" fill="#c03a2b"/><path d="m397.242188 141.242188v70.621093l-26.484376-17.65625h-97.101562v97.105469l17.652344 26.480469h-70.617188l17.652344-26.480469v-97.105469h-97.101562l-26.484376 17.65625v-70.621093l26.484376 17.65625h97.101562v-97.105469l-17.652344-26.480469h70.617188l-17.652344 26.480469v97.105469h97.101562zm0 0" fill="#f0c419"/></svg>