<svg height="512pt" viewBox="0 -79 512.00402 512" width="512pt" xmlns="http://www.w3.org/2000/svg"><path d="m167.722656.0078125v353.0976565h-149.085937c-10.007813.234375-18.328125-7.648438-18.636719-17.652344v-317.792969c.308594-10.003906 8.628906-17.886718 18.636719-17.6523435zm0 0" fill="#c03a2b"/><path d="m511.996094 18.542969v166.84375h-353.101563v-185.3789065h335.445313c9.980468.2773435 17.863281 8.5546875 17.65625 18.5351565zm0 0" fill="#f0c419"/><path d="m511.996094 176.558594v158.894531c-.027344 9.738281-7.917969 17.625-17.65625 17.65625h-335.445313v-176.550781zm0 0" fill="#4c8056"/><path d="m79.449219 132.417969 13.636719 29.0625 30.5 4.660156-22.070313 22.617187 5.210937 31.9375-27.277343-15.078124-27.277344 15.078124 5.207031-31.9375-22.070312-22.617187 30.5-4.660156zm0 0" fill="#2c2f38"/></svg>