<svg height="512pt" viewBox="0 -79 512 512" width="512pt" xmlns="http://www.w3.org/2000/svg"><path d="m0 44.136719h512v264.828125h-512zm0 0" fill="#e6e7e8"/><g fill="#8697cb"><path d="m512 17.65625v35.308594h-512v-35.308594c.0273438-9.742188 7.914062-17.6289062 17.65625-17.65625h476.6875c9.742188.0273438 17.628906 7.917969 17.65625 17.65625zm0 0"/><path d="m512 300.136719v35.3125c-.027344 9.738281-7.914062 17.625-17.65625 17.652343h-476.6875c-9.742188-.027343-17.6289062-7.914062-17.65625-17.652343v-35.308594h512zm0 0"/><path d="m327.09375 176.550781 24.664062-39.460937c1.703126-2.71875 1.796876-6.148438.238282-8.957032-1.554688-2.808593-4.511719-4.546874-7.722656-4.546874h-50.28125l-30.511719-48.816407c-1.714844-2.425781-4.507813-3.871093-7.480469-3.871093-2.976562 0-5.765625 1.445312-7.484375 3.871093l-30.507813 48.816407h-50.285156c-3.210937-.003907-6.167968 1.738281-7.722656 4.546874-1.554688 2.808594-1.464844 6.238282.238281 8.957032l24.667969 39.460937-24.664062 39.460938c-1.703126 2.722656-1.796876 6.152343-.238282 8.960937 1.554688 2.808594 4.511719 4.546875 7.722656 4.546875h50.28125l30.511719 48.8125c1.609375 2.582031 4.4375 4.152344 7.480469 4.152344 3.046875 0 5.871094-1.570313 7.484375-4.152344l30.507813-48.8125h50.285156c3.210937 0 6.167968-1.738281 7.722656-4.546875s1.464844-6.238281-.238281-8.960937zm1.25-35.308593-11.65625 18.65625-11.660156-18.65625zm-22.066406 35.308593-22.066406 35.3125h-56.421876l-22.066406-35.3125 22.066406-35.308593h56.421876zm-50.277344-80.445312 17.175781 27.480469h-34.351562zm-72.34375 45.136719h23.316406l-11.660156 18.65625zm0 70.621093 11.65625-18.65625 11.660156 18.65625zm72.34375 45.136719-17.175781-27.484375h34.351562zm49.027344-45.136719 11.65625-18.65625 11.660156 18.65625zm0 0"/></g></svg>