<svg height="512pt" viewBox="0 -79 512 512" width="512pt" xmlns="http://www.w3.org/2000/svg"><path d="m397.242188 353.105469h97.101562c9.75 0 17.65625-7.90625 17.65625-17.65625v-317.792969c0-9.753906-7.90625-17.65625-17.65625-17.65625h-476.6875c-9.753906 0-17.65625 7.90625-17.65625 17.65625v317.792969c0 9.75 7.902344 17.652343 17.65625 17.652343h379.585938zm0 0" fill="#c03a2b"/><path d="m512 264.828125v70.621094c-.027344 9.738281-7.914062 17.625-17.65625 17.65625h-476.6875c-9.742188-.03125-17.6289062-7.917969-17.65625-17.65625v-70.621094zm0 0" fill="#4c8056"/><path d="m0 88.277344h512v88.273437h-512zm0 0" fill="#285680"/><path d="m0 176.550781h512v88.277344h-512zm0 0" fill="#f0c419"/></svg>