<svg height="512pt" viewBox="0 -79 512 512" width="512pt" xmlns="http://www.w3.org/2000/svg"><path d="m17.65625 0h476.6875c9.753906 0 17.65625 7.902344 17.65625 17.65625v317.792969c0 9.75-7.90625 17.652343-17.65625 17.652343h-476.6875c-9.753906.003907-17.65625-7.902343-17.65625-17.652343v-317.792969c0-9.75 7.902344-17.65625 17.65625-17.65625zm0 0" fill="#c03a2b"/><path d="m494.34375 0-353.101562 353.105469h-123.585938c-9.742188-.03125-17.6289062-7.917969-17.65625-17.65625l335.449219-335.449219zm0 0" fill="#f0c419"/><path d="m335.449219 0-335.449219 335.449219v-317.792969c.0273438-9.742188 7.914062-17.6289062 17.65625-17.65625zm0 0" fill="#4c8056"/></svg>