<svg height="512pt" viewBox="0 -79 512 512" width="512pt" xmlns="http://www.w3.org/2000/svg"><path d="m494.34375 0h-476.6875c-9.742188.0273438-17.6289062 7.917969-17.65625 17.65625v317.792969c.0273438 9.738281 7.914062 17.625 17.65625 17.652343h476.6875c9.742188-.027343 17.628906-7.914062 17.65625-17.652343v-317.792969c-.027344-9.738281-7.914062-17.6289062-17.65625-17.65625zm0 0" fill="#802f34"/><path d="m512 17.65625v97.101562h-397.242188v-114.757812h379.585938c9.742188.0273438 17.628906 7.917969 17.65625 17.65625zm0 0" fill="#24ae5f"/><path d="m512 238.34375v97.105469c-.027344 9.738281-7.914062 17.625-17.65625 17.652343h-379.585938v-114.757812zm0 0" fill="#2c2f38"/><path d="m114.757812 114.757812h397.242188v123.585938h-397.242188zm0 0" fill="#ecf0f1"/></svg>