<svg id="Layer_1" enable-background="new 0 0 256 256" height="512" viewBox="0 0 256 256" width="512" xmlns="http://www.w3.org/2000/svg"><path d="m47.827 26.091c-.974 11.564-13.031 13.389-13.031 13.389 10.352.487 12.932 14.06 12.932 14.06.221-9.677 13.328-14.202 13.328-14.202-9.819-.588-13.229-13.247-13.229-13.247z" fill="#d6df58"/><path d="m61.145 37.84c-8.609-.515-11.839-12.025-11.87-12.141-.191-.702-.85-1.158-1.584-1.101-.725.066-1.298.642-1.359 1.367-.86 10.215-11.319 11.963-11.761 12.033-.763.115-1.314.79-1.273 1.561.04.77.657 1.384 1.428 1.421 9.033.425 11.505 12.718 11.528 12.842.138.711.76 1.217 1.473 1.217.042 0 .084-.001.126-.005.765-.064 1.358-.693 1.375-1.459.194-8.509 12.198-12.777 12.319-12.819.675-.235 1.092-.914.994-1.623s-.682-1.25-1.396-1.293zm-13.573 10.347c-1.357-3.13-3.71-6.908-7.591-8.878 2.933-1.405 6.412-3.914 8.206-8.274 1.552 3.071 4.202 6.881 8.339 8.724-3.008 1.64-6.926 4.406-8.954 8.428z" fill="#3a312a"/><path d="m26.117 43.071c-.689 8.179-9.217 9.47-9.217 9.47 7.322.344 9.147 9.944 9.147 9.944.156-6.844 9.427-10.045 9.427-10.045-6.945-.415-9.357-9.369-9.357-9.369z" fill="#d6df58"/><path d="m35.563 50.943c-5.77-.345-7.977-8.185-7.999-8.264-.189-.702-.861-1.161-1.581-1.102-.726.065-1.3.642-1.361 1.368-.579 6.871-7.65 8.067-7.946 8.114-.763.115-1.313.79-1.273 1.561.04.77.657 1.384 1.428 1.421 6.038.284 7.727 8.644 7.743 8.726.136.712.759 1.22 1.473 1.22.041 0 .083-.001.125-.005.765-.063 1.358-.694 1.376-1.461.13-5.709 8.336-8.634 8.416-8.662.677-.234 1.094-.913.997-1.622-.099-.71-.684-1.251-1.398-1.294zm-9.589 6.796c-.924-1.886-2.341-3.948-4.449-5.281 1.857-1.041 3.699-2.63 4.873-4.917 1.058 1.874 2.655 3.955 4.944 5.225-1.851 1.101-3.991 2.74-5.368 4.973z" fill="#3a312a"/><path d="m26.117 16.414c-.689 8.179-9.217 9.471-9.217 9.471 7.322.344 9.147 9.944 9.147 9.944.156-6.844 9.427-10.045 9.427-10.045-6.945-.416-9.357-9.37-9.357-9.37z" fill="#d6df58"/><path d="m35.563 24.286c-5.77-.345-7.977-8.186-7.999-8.265-.189-.702-.861-1.16-1.581-1.102-.726.065-1.3.642-1.361 1.368-.579 6.871-7.65 8.067-7.946 8.114-.763.115-1.313.79-1.273 1.561.04.77.657 1.384 1.428 1.421 6.038.284 7.727 8.644 7.743 8.726.136.712.759 1.22 1.473 1.22.041 0 .083-.001.125-.005.765-.063 1.358-.694 1.376-1.461.13-5.709 8.335-8.633 8.416-8.662.677-.234 1.094-.913.997-1.622-.099-.709-.684-1.25-1.398-1.293zm-9.589 6.796c-.924-1.886-2.341-3.948-4.449-5.281 1.857-1.042 3.699-2.631 4.873-4.918 1.058 1.874 2.656 3.956 4.944 5.225-1.851 1.101-3.991 2.741-5.368 4.974z" fill="#3a312a"/><path d="m131.313 35.011c-.828 0-1.5.671-1.5 1.5v191c0 .829.672 1.5 1.5 1.5s1.5-.671 1.5-1.5v-191c0-.828-.672-1.5-1.5-1.5z" fill="#3a312a"/><circle cx="131.312" cy="36.511" fill="#8ac5dc" r="12.5"/><path d="m131.313 22.511c-7.72 0-14 6.28-14 14s6.28 14 14 14 14-6.28 14-14-6.281-14-14-14zm0 25c-6.065 0-11-4.935-11-11s4.935-11 11-11 11 4.935 11 11-4.935 11-11 11z" fill="#3a312a"/><circle cx="131.312" cy="227.086" fill="#8ac5dc" r="12.5"/><path d="m131.313 213.086c-7.72 0-14 6.28-14 14s6.28 14 14 14 14-6.28 14-14-6.281-14-14-14zm0 25c-6.065 0-11-4.935-11-11s4.935-11 11-11 11 4.935 11 11-4.935 11-11 11z" fill="#3a312a"/><path d="m226.6 130.299h-191c-.828 0-1.5.671-1.5 1.5s.672 1.5 1.5 1.5h191c.828 0 1.5-.671 1.5-1.5s-.672-1.5-1.5-1.5z" fill="#3a312a"/><circle cx="226.6" cy="131.799" fill="#8ac5dc" r="12.5"/><path d="m226.6 117.799c-7.72 0-14 6.28-14 14s6.28 14 14 14 14-6.28 14-14-6.281-14-14-14zm0 25c-6.065 0-11-4.935-11-11s4.935-11 11-11 11 4.935 11 11-4.935 11-11 11z" fill="#3a312a"/><circle cx="36.025" cy="131.799" fill="#8ac5dc" r="12.5"/><path d="m36.024 117.799c-7.72 0-14 6.28-14 14s6.28 14 14 14 14-6.28 14-14-6.28-14-14-14zm0 25c-6.065 0-11-4.935-11-11s4.935-11 11-11 11 4.935 11 11-4.934 11-11 11z" fill="#3a312a"/><path d="m199.751 63.36c-.586-.586-1.535-.586-2.121 0l-135.058 135.057c-.586.585-.586 1.536 0 2.121.293.293.677.439 1.06.439.384 0 .768-.146 1.061-.439l135.058-135.057c.586-.585.586-1.536 0-2.121z" fill="#3a312a"/><circle cx="198.691" cy="64.42" fill="#8ac5dc" r="12.5"/><path d="m208.59 54.521c-2.644-2.644-6.159-4.101-9.899-4.101-3.739 0-7.255 1.456-9.899 4.101-5.458 5.459-5.458 14.34 0 19.799 2.645 2.645 6.16 4.101 9.899 4.101 3.74 0 7.256-1.457 9.899-4.101 2.645-2.644 4.101-6.16 4.101-9.899-.001-3.74-1.457-7.256-4.101-9.9zm-2.121 17.678c-2.077 2.078-4.84 3.222-7.778 3.222s-5.7-1.145-7.778-3.222c-4.288-4.289-4.288-11.268 0-15.557 2.078-2.077 4.84-3.222 7.778-3.222s5.701 1.144 7.778 3.222c2.078 2.078 3.222 4.84 3.222 7.778-.001 2.939-1.144 5.701-3.222 7.779z" fill="#3a312a"/><path d="m72.773 190.339c-4.882-4.882-12.796-4.882-17.678 0-4.881 4.882-4.881 12.796 0 17.678 4.882 4.882 12.796 4.882 17.678 0 4.881-4.882 4.881-12.797 0-17.678z" fill="#8ac5dc"/><path d="m73.833 189.278c-5.459-5.458-14.34-5.458-19.799 0-5.458 5.459-5.458 14.34 0 19.799 2.729 2.729 6.314 4.094 9.899 4.094s7.17-1.365 9.899-4.094c2.644-2.644 4.101-6.16 4.101-9.899.001-3.74-1.456-7.256-4.1-9.9zm-2.121 17.678c-4.289 4.289-11.268 4.289-15.557 0-4.288-4.289-4.288-11.268 0-15.557 2.145-2.145 4.961-3.216 7.778-3.216 2.816 0 5.634 1.072 7.778 3.216 2.078 2.078 3.222 4.84 3.222 7.778.001 2.939-1.143 5.701-3.221 7.779z" fill="#3a312a"/><path d="m199.751 198.117-135.058-135.057c-.586-.586-1.535-.586-2.121 0-.586.585-.586 1.536 0 2.121l135.058 135.057c.293.293.677.439 1.061.439s.768-.146 1.061-.439c.585-.586.585-1.536-.001-2.121z" fill="#3a312a"/><circle cx="198.691" cy="199.177" fill="#8ac5dc" r="12.5"/><path d="m208.59 189.278c-2.644-2.644-6.159-4.101-9.899-4.101-3.739 0-7.255 1.457-9.899 4.101-5.458 5.459-5.458 14.34 0 19.799 2.645 2.644 6.16 4.101 9.899 4.101 3.74 0 7.256-1.457 9.899-4.101 2.645-2.644 4.101-6.16 4.101-9.899-.001-3.74-1.457-7.256-4.101-9.9zm-2.121 17.678c-2.077 2.078-4.84 3.222-7.778 3.222s-5.7-1.145-7.778-3.222c-4.288-4.289-4.288-11.268 0-15.557 2.078-2.077 4.84-3.222 7.778-3.222s5.701 1.144 7.778 3.222c2.078 2.078 3.222 4.84 3.222 7.778-.001 2.939-1.144 5.701-3.222 7.779z" fill="#3a312a"/><path d="m72.773 55.582c-4.882-4.881-12.796-4.881-17.678 0-4.881 4.882-4.881 12.796 0 17.678 4.882 4.882 12.796 4.882 17.678 0 4.881-4.882 4.881-12.797 0-17.678z" fill="#8ac5dc"/><path d="m73.833 54.521c-5.459-5.458-14.34-5.458-19.799 0-5.458 5.459-5.458 14.34 0 19.799 2.729 2.73 6.313 4.094 9.899 4.094 3.585 0 7.171-1.365 9.899-4.094 2.644-2.644 4.101-6.16 4.101-9.899.001-3.74-1.456-7.256-4.1-9.9zm-2.121 17.678c-4.289 4.289-11.268 4.289-15.557 0-4.288-4.289-4.288-11.268 0-15.557 4.289-4.289 11.268-4.289 15.557 0 2.078 2.078 3.222 4.84 3.222 7.778 0 2.939-1.144 5.701-3.222 7.779z" fill="#3a312a"/><ellipse cx="131.312" cy="131.799" fill="#f8e4c8" rx="69.5" ry="69.5" transform="matrix(.987 -.16 .16 .987 -19.416 22.736)"/><path d="m131.313 60.799c-39.149 0-71 31.851-71 71s31.851 71 71 71 71-31.851 71-71-31.851-71-71-71zm0 139c-37.495 0-68-30.505-68-68s30.505-68 68-68 68 30.505 68 68-30.505 68-68 68z" fill="#3a312a"/><path d="m160.611 103.719v26.634c7.307-.056 13.211-5.997 13.211-13.317s-5.904-13.26-13.211-13.317z" fill="#d7e057"/><path d="m160.623 102.219c-.379-.019-.784.153-1.068.435s-.443.665-.443 1.065v26.634c0 .4.159.783.443 1.065.281.279.661.435 1.057.435h.012c8.104-.063 14.698-6.709 14.698-14.817-.001-8.107-6.594-14.754-14.699-14.817zm1.488 26.526v-23.417c5.752.789 10.21 5.754 10.21 11.708s-4.458 10.92-10.21 11.709z" fill="#3a312a"/><path d="m155.92 81.951c-2.59 0-4.691 2.1-4.691 4.691v60.789c0 2.591 2.1 4.691 4.691 4.691s4.691-2.1 4.691-4.691v-60.789c0-2.591-2.1-4.691-4.691-4.691z" fill="#f16c7a"/><path d="m155.92 80.451c-3.413 0-6.19 2.777-6.19 6.191v60.789c0 3.414 2.777 6.191 6.19 6.191 3.414 0 6.191-2.777 6.191-6.191v-60.789c0-3.413-2.777-6.191-6.191-6.191zm3.191 66.98c0 1.759-1.432 3.191-3.191 3.191s-3.19-1.432-3.19-3.191v-60.789c0-1.759 1.432-3.191 3.19-3.191 1.76 0 3.191 1.432 3.191 3.191z" fill="#3a312a"/><path d="m131.636 95.897-12.768 5.018-12.44 4.889v22.461l44.801 17.61v-57.677z" fill="#f16c7a"/><path d="m152.074 86.958c-.412-.28-.933-.338-1.394-.156l-19.594 7.7c-.771.303-1.15 1.173-.848 1.945.303.771 1.171 1.15 1.945.847l17.545-6.895v53.275l-41.802-16.431v-20.417l11.489-4.515c.771-.303 1.15-1.174.848-1.945-.304-.771-1.173-1.151-1.945-.847l-12.44 4.889c-.574.226-.951.779-.951 1.396v22.46c0 .617.377 1.17.951 1.396l44.802 17.61c.178.07.363.104.549.104.297 0 .592-.088.845-.26.41-.28.655-.744.655-1.24v-57.676c0-.496-.245-.96-.655-1.24z" fill="#3a312a"/><path d="m96.256 105.804c-4.19 0-7.587 3.397-7.587 7.587v7.286c0 4.19 3.397 7.587 7.587 7.587h10.171v-22.46z" fill="#f16c7a"/><path d="m106.428 104.304h-10.171c-5.011 0-9.088 4.076-9.088 9.087v7.286c0 5.011 4.077 9.087 9.088 9.087h10.171c.828 0 1.5-.671 1.5-1.5v-22.459c0-.829-.672-1.501-1.5-1.501zm-1.5 22.46h-8.671c-3.356 0-6.088-2.73-6.088-6.087v-7.286c0-3.356 2.732-6.087 6.088-6.087h8.671z" fill="#3a312a"/><path d="m94.824 128.262v10.712c.099-.011.199-.015.298-.015h11.01c.099 0 .198.004.294.011v-10.709h-11.602z" fill="#87796f"/><path d="m106.426 126.762h-11.603c-.828 0-1.5.671-1.5 1.5v10.712c0 .427.182.834.501 1.119.276.247.632.381.999.381.056 0 .112-.003.168-.009.044-.005.087-.006.13-.006h11.011c.059 0 .116.002.172.007.418.034.83-.107 1.139-.392.309-.284.483-.684.483-1.103v-10.708c0-.829-.672-1.501-1.5-1.501zm-1.5 10.697h-8.603v-7.697h8.603z" fill="#3a312a"/><path d="m106.13 138.958h-11.009c-1.975 0-3.576 1.601-3.576 3.576v35.907c0 2.199 1.783 3.981 3.981 3.981h10.198c2.199 0 3.981-1.783 3.981-3.981v-35.907c.001-1.975-1.6-3.576-3.575-3.576z" fill="#87796f"/><path d="m106.13 137.458h-11.01c-2.799 0-5.075 2.277-5.075 5.076v9.729c0 .829.672 1.5 1.5 1.5s1.5-.671 1.5-1.5v-9.729c0-1.145.931-2.076 2.075-2.076h11.01c1.144 0 2.076.931 2.076 2.076v35.907c0 1.368-1.113 2.481-2.482 2.481h-10.198c-1.368 0-2.482-1.113-2.482-2.481v-12.135c0-.829-.672-1.5-1.5-1.5s-1.5.671-1.5 1.5v12.135c0 3.022 2.459 5.481 5.482 5.481h10.198c3.023 0 5.482-2.459 5.482-5.481v-35.907c0-2.799-2.277-5.076-5.076-5.076z" fill="#3a312a"/><path d="m115.48 151.877h-5.771v17.313h5.771c1.636 0 2.959-1.332 2.959-2.969v-11.385c0-1.636-1.323-2.959-2.959-2.959z" fill="#d7e057"/><path d="m115.481 150.377h-5.772c-.828 0-1.5.671-1.5 1.5v17.313c0 .829.672 1.5 1.5 1.5h5.772c2.458 0 4.458-2.005 4.458-4.469v-11.385c-.001-2.459-2.001-4.459-4.458-4.459zm1.457 15.844c0 .81-.654 1.469-1.458 1.469h-4.272v-14.313h4.272c.804 0 1.458.654 1.458 1.458z" fill="#3a312a"/><path d="m131.31 63.801c-2.71 0-5.38.16-8 .47 33.74 3.97 60 32.74 60 67.53 0 34.78-26.26 63.56-60 67.53 2.62.31 5.29.47 8 .47 37.5 0 68-30.51 68-68 0-37.5-30.5-68-68-68z" fill="#decaad"/></svg>