<svg id="Layer_1" enable-background="new 0 0 256 256" height="512" viewBox="0 0 256 256" width="512" xmlns="http://www.w3.org/2000/svg"><path d="m150.15 194.592h-44.09l22.04 44.09z" fill="#f16c7a"/><path d="m128.1 240.183c-.568 0-1.088-.321-1.342-.829l-22.04-44.09c-.232-.465-.207-1.018.065-1.459.273-.442.757-.711 1.276-.711h44.09c.52 0 1.003.269 1.276.711.272.442.298.995.065 1.459l-22.05 44.09c-.252.508-.772.829-1.34.829zm-19.614-44.091 19.613 39.236 19.622-39.236z" fill="#3a312a"/><path d="m92.467 167.407 5.603 11.205h60.07l21.47-42.94h-103.01l9.538 19.076z" fill="#d7e057"/><path d="m158.14 180.112h-60.07c-.568 0-1.088-.321-1.342-.829l-5.603-11.206c-.37-.741-.07-1.642.671-2.013.743-.369 1.643-.069 2.013.671l5.188 10.376h58.217l19.971-39.94h-98.159l8.453 16.905c.37.741.07 1.642-.671 2.013s-1.643.071-2.013-.671l-9.538-19.076c-.232-.465-.207-1.017.065-1.459.273-.442.757-.711 1.276-.711h103.012c.52 0 1.003.269 1.276.711.272.442.298.995.065 1.459l-21.471 42.94c-.252.51-.772.83-1.34.83z" fill="#3a312a"/><path d="m133.432 119.692h-64.822l-21.47-42.94h161.93l-21.47 42.94h-41.498z" fill="#8ac6dd"/><path d="m187.6 121.192h-41.498c-.828 0-1.5-.671-1.5-1.5s.672-1.5 1.5-1.5h40.571l19.97-39.94h-157.077l19.971 39.94h63.896c.828 0 1.5.671 1.5 1.5s-.672 1.5-1.5 1.5h-64.823c-.568 0-1.088-.321-1.342-.829l-21.471-42.94c-.232-.465-.207-1.017.065-1.459.273-.442.757-.711 1.276-.711h161.93c.52 0 1.003.269 1.276.711.272.442.298.995.065 1.459l-21.47 42.94c-.251.509-.771.829-1.339.829z" fill="#3a312a"/><path d="m62.314 16.682h-45.214l22.05 44.09h177.91l22.04-44.09h-163.214z" fill="#87796f"/><path d="m217.06 62.272h-177.911c-.568 0-1.088-.321-1.342-.829l-22.05-44.09c-.232-.465-.207-1.017.065-1.459.273-.442.757-.711 1.276-.711h45.215c.828 0 1.5.671 1.5 1.5s-.672 1.5-1.5 1.5h-42.786l20.549 41.09h176.057l20.54-41.09h-160.787c-.828 0-1.5-.671-1.5-1.5s.672-1.5 1.5-1.5h163.214c.52 0 1.003.269 1.276.711.272.442.298.994.065 1.459l-22.04 44.09c-.254.508-.773.829-1.341.829z" fill="#3a312a"/><path d="m177.18 137.172h-15l-19.97 39.94h15z" fill="#b9c239"/><path d="m206.64 78.252h-15l-19.97 39.94h15z" fill="#6ca8bf"/><path d="m236.67 18.182h-15l-20.54 41.09h15z" fill="#695b51"/><path d="m111.867 26.363c-7.094 4.145-11.723 9.901-11.723 12.319 0 4.34 12.516 17 27.956 17 15.439 0 27.956-12.66 27.956-17 0-3.979-12.516-17-27.956-17-5.688 0-10.976 1.77-15.391 4.201z" fill="#fce8cb"/><path d="m128.1 57.183c-16.394 0-29.455-13.285-29.455-18.5 0-3.491 5.592-9.598 12.466-13.614.005-.003.009-.005.014-.008l.842-.48c5.231-2.88 10.804-4.397 16.134-4.397 16.077 0 29.456 13.432 29.456 18.5-.001 5.213-13.064 18.499-29.457 18.499zm-15.483-29.521c-7.239 4.232-10.973 9.643-10.973 11.021 0 3.137 11.567 15.5 26.455 15.5 14.889 0 26.456-12.363 26.456-15.5 0-3.038-11.885-15.5-26.456-15.5-4.825 0-9.897 1.388-14.667 4.015z" fill="#3a312a"/><ellipse cx="128.1" cy="38.682" fill="#8ac5dc" rx="14.224" ry="14.225" transform="matrix(.924 -.383 .383 .924 -5.052 51.966)"/><path d="m128.1 54.407c-8.671 0-15.725-7.054-15.725-15.724s7.054-15.725 15.725-15.725 15.725 7.054 15.725 15.725-7.054 15.724-15.725 15.724zm0-28.449c-7.017 0-12.725 5.708-12.725 12.725 0 7.016 5.708 12.724 12.725 12.724s12.725-5.708 12.725-12.724c-.001-7.017-5.709-12.725-12.725-12.725z" fill="#3a312a"/><path d="m135.529 34.401c0 1.739-1.409 3.148-3.148 3.148s-3.148-1.41-3.148-3.148c0-1.739 1.409-3.148 3.148-3.148s3.148 1.409 3.148 3.148z" fill="#fce8cb"/><path d="m132.381 39.049c-2.562 0-4.647-2.085-4.647-4.648s2.085-4.648 4.647-4.648c2.563 0 4.648 2.085 4.648 4.648s-2.085 4.648-4.648 4.648zm0-6.296c-.908 0-1.647.739-1.647 1.648s.739 1.648 1.647 1.648c.909 0 1.648-.739 1.648-1.648s-.739-1.648-1.648-1.648z" fill="#3a312a"/><path d="m147.333 94.984v.034c0 1.468-1.19 2.658-2.658 2.658h-4.321l-.003.002h3.025c1.468 0 2.658 1.19 2.658 2.658v.035c0 1.468-1.19 2.658-2.658 2.658h-1.818c1.468 0 2.658 1.19 2.658 2.658v.035c0 1.468-1.19 2.658-2.658 2.658h-1.818c1.468 0 2.658 1.19 2.658 2.658v.035c0 1.468-1.19 2.658-2.658 2.658h-9.136c-.032 0-.062-.002-.094-.002-3.929-.025-7.841-.522-11.649-1.49l-.786-.2c0-.049.003-.099.003-.15v-16.944c0-.116-.007-.229-.022-.34l3.636-1.239c1.825-.621 3.052-2.335 3.052-4.261v-4.675c0-1.035.419-1.971 1.096-2.65.677-.678 1.613-1.096 2.648-1.096 2.067 0 3.744 1.677 3.744 3.747v6.042c0 1.025.83 1.855 1.855 1.855h10.587c1.47-.002 2.659 1.188 2.659 2.656z" fill="#fce8cb"/><path d="m139.742 115.229h-9.137c-.02 0-.087-.001-.106-.002-4.053-.025-8.094-.542-12.005-1.537l-.786-.2c-.665-.169-1.131-.768-1.131-1.454 0-.015.002-.103.002-.118l.001-16.975c0-.049-.003-.097-.01-.145-.093-.709.327-1.385 1.004-1.616l3.636-1.239c1.218-.414 2.035-1.556 2.035-2.841v-4.675c0-1.4.545-2.717 1.534-3.709.99-.992 2.308-1.537 3.71-1.537 2.892 0 5.244 2.354 5.244 5.247v6.042c0 .196.159.355.355.355h10.587c2.292 0 4.157 1.865 4.157 4.158v.035c0 1.404-.699 2.647-1.768 3.4.3.574.47 1.227.47 1.918 0 1.595-.877 2.974-2.166 3.683.224.511.349 1.075.349 1.667 0 1.596-.877 2.974-2.167 3.683.224.51.349 1.075.349 1.667 0 2.328-1.865 4.193-4.157 4.193zm-20.162-4.359c3.568.877 7.247 1.334 10.941 1.357.014 0 .092.002.105.003h9.115c.638 0 1.157-.52 1.157-1.158 0-.673-.52-1.192-1.157-1.192-.828 0-1.5-.671-1.5-1.5s.672-1.5 1.5-1.5h1.817c.639 0 1.158-.52 1.158-1.158 0-.673-.52-1.192-1.158-1.192-.828 0-1.5-.671-1.5-1.5s.672-1.5 1.5-1.5h1.818c.638 0 1.157-.52 1.157-1.158 0-.673-.52-1.192-1.157-1.192h-3.025c-.632 0-1.195-.396-1.41-.989s-.035-1.259.45-1.663c.27-.225.612-.35.963-.35h4.32c.638 0 1.157-.52 1.157-1.158v-.035c0-.638-.52-1.158-1.157-1.158h-10.587c-1.851 0-3.355-1.505-3.355-3.355v-6.042c0-1.239-1.007-2.247-2.244-2.247-.601 0-1.163.233-1.586.656-.424.425-.658.99-.658 1.59v4.675c0 2.571-1.635 4.854-4.069 5.681l-2.596.885v15.2z" fill="#3a312a"/><path d="m118.081 100.472v-5.528c0-1.544-1.252-2.796-2.796-2.796h-6.418v22.534h6.418c1.544 0 2.796-1.252 2.796-2.796v-6.263z" fill="#87796f"/><path d="m115.285 116.183h-6.419c-.828 0-1.5-.671-1.5-1.5v-22.535c0-.829.672-1.5 1.5-1.5h6.419c2.369 0 4.296 1.927 4.296 4.296v16.942c0 2.369-1.927 4.297-4.296 4.297zm-4.919-3h4.919c.715 0 1.296-.582 1.296-1.296v-16.943c0-.714-.581-1.296-1.296-1.296h-4.919z" fill="#3a312a"/><path d="m115.583 110.009c0 1.165-.945 2.109-2.109 2.109-1.165 0-2.109-.944-2.109-2.109s.944-2.109 2.109-2.109c1.164 0 2.109.944 2.109 2.109z" fill="#3a312a"/><path clip-rule="evenodd" d="m120.055 168.177c1.04.941 2.076 1.792 3.053 2.529 1.144.864 2.847 2.326 4.389 2.359.001 0 .002 0 .003.001.002.001.003.002.006.002h.001c.007 0 .013-.001.02-.001s.014.001.02.001h.002c.002 0 .004-.001.005-.002.001 0 .002-.001.003-.001 1.542-.033 3.245-1.495 4.389-2.359 5.013-3.785 11.587-10.528 12.241-17.303.418-4.333-1.846-8.812-6.094-10.276-3.339-1.15-8.401-.042-10.567 3.022-2.166-3.064-7.228-4.172-10.567-3.022-4.248 1.464-6.512 5.943-6.094 10.276.376 3.897 2.712 7.782 5.582 11.101z" fill="#f16c7a" fill-rule="evenodd"/><path d="m127.55 174.568c-.015 0-.029 0-.042 0-.05 0-.1-.002-.148-.007-1.821-.086-3.516-1.395-4.759-2.354l-.396-.304c-1.065-.805-2.127-1.685-3.154-2.613-.022-.02-.044-.041-.064-.062l-3.606-3.673c-3.641-4.206-5.64-8.222-6.005-12.008-.518-5.352 2.401-10.22 7.099-11.838 3.28-1.131 8.1-.438 11.056 2.207 2.957-2.645 7.774-3.338 11.055-2.207 4.696 1.618 7.616 6.486 7.1 11.838-.838 8.676-10.033 16.244-12.831 18.356l-.396.303c-1.242.959-2.937 2.266-4.757 2.354-.053.005-.102.008-.152.008zm-6.456-7.475c.952.859 1.935 1.672 2.919 2.416l.42.322c.885.683 2.222 1.714 3.095 1.733.874-.02 2.211-1.051 3.096-1.733l.42-.322c5.259-3.97 11.081-10.324 11.653-16.25.323-3.347-1.321-7.416-5.09-8.714-2.701-.928-7.058-.07-8.854 2.47-.562.795-1.887.795-2.449 0-1.797-2.541-6.156-3.397-8.854-2.47-3.326 1.146-5.467 4.811-5.089 8.713.3 3.111 2.106 6.66 5.224 10.265z" fill="#3a312a"/><path d="m47.827 202.923s3.41 12.659 13.229 13.246c0 0-13.107 4.525-13.328 14.202 0 0-2.58-13.572-12.932-14.059 0 0 12.057-1.826 13.031-13.389z" fill="#d6df58"/><path d="m47.727 231.87c-.713 0-1.335-.506-1.473-1.217-.023-.124-2.495-12.417-11.528-12.842-.771-.037-1.388-.651-1.428-1.421-.04-.771.511-1.445 1.273-1.561.441-.069 10.9-1.817 11.761-12.033.062-.725.635-1.301 1.359-1.367.734-.066 1.392.399 1.584 1.101.031.116 3.261 11.626 11.87 12.141.714.043 1.298.584 1.396 1.292s-.318 1.388-.994 1.623c-.121.042-12.125 4.311-12.319 12.819-.018.767-.61 1.396-1.375 1.459-.042.005-.084.006-.126.006zm-7.746-15.729c3.881 1.97 6.234 5.748 7.591 8.878 2.027-4.021 5.945-6.788 8.954-8.428-4.137-1.843-6.787-5.653-8.339-8.724-1.793 4.36-5.273 6.869-8.206 8.274z" fill="#3a312a"/><path d="m26.117 219.903s2.412 8.954 9.357 9.369c0 0-9.271 3.201-9.427 10.045 0 0-1.825-9.6-9.147-9.944 0 .001 8.528-1.291 9.217-9.47z" fill="#d6df58"/><path d="m26.046 240.818c-.714 0-1.337-.507-1.473-1.22-.016-.082-1.705-8.442-7.743-8.726-.771-.037-1.388-.651-1.428-1.421-.04-.771.511-1.445 1.273-1.561.296-.047 7.367-1.243 7.946-8.114.062-.726.636-1.303 1.361-1.368.719-.06 1.392.399 1.581 1.102.022.079 2.229 7.919 7.999 8.265.714.043 1.299.584 1.396 1.293s-.32 1.388-.997 1.622c-.081.028-8.286 2.953-8.416 8.662-.018.767-.611 1.397-1.376 1.461-.04.003-.082.005-.123.005zm-4.522-11.528c2.108 1.333 3.525 3.395 4.449 5.281 1.377-2.233 3.518-3.873 5.368-4.974-2.288-1.27-3.887-3.351-4.944-5.225-1.173 2.288-3.016 3.877-4.873 4.918z" fill="#3a312a"/><path d="m26.117 193.245s2.412 8.954 9.357 9.37c0 0-9.271 3.201-9.427 10.045 0 0-1.825-9.6-9.147-9.944 0 0 8.528-1.292 9.217-9.471z" fill="#d6df58"/><path d="m26.046 214.16c-.714 0-1.337-.507-1.473-1.22-.016-.082-1.705-8.442-7.743-8.726-.771-.037-1.388-.651-1.428-1.421-.04-.771.511-1.445 1.273-1.561.296-.047 7.367-1.244 7.946-8.114.062-.726.636-1.303 1.361-1.368.719-.059 1.392.399 1.581 1.102.022.079 2.229 7.92 7.999 8.265.714.043 1.299.584 1.396 1.293s-.32 1.388-.997 1.622c-.081.028-8.286 2.953-8.416 8.661-.018.767-.611 1.397-1.376 1.461-.04.005-.082.006-.123.006zm-4.522-11.527c2.108 1.333 3.525 3.395 4.449 5.281 1.377-2.233 3.518-3.873 5.368-4.974-2.288-1.27-3.887-3.351-4.944-5.225-1.173 2.287-3.016 3.876-4.873 4.918z" fill="#3a312a"/><path d="m127.6 219.182c-.875 0-1.707-.382-2.277-1.048l-6-7c-1.079-1.258-.933-3.152.325-4.23 1.256-1.078 3.151-.934 4.229.326l3.631 4.235 7.239-9.145c1.029-1.299 2.915-1.519 4.215-.49 1.299 1.028 1.519 2.915.49 4.214l-9.5 12c-.557.703-1.398 1.12-2.294 1.137-.019.001-.039.001-.058.001z" fill="#87796f"/><path d="m127.6 220.683c-1.316 0-2.562-.573-3.417-1.573l-5.999-6.999c-.782-.912-1.163-2.075-1.07-3.273.092-1.198.646-2.289 1.558-3.071.912-.783 2.081-1.161 3.272-1.071 1.199.092 2.291.646 3.073 1.559l2.445 2.852 6.109-7.717c1.539-1.945 4.377-2.275 6.321-.735 1.945 1.541 2.275 4.377.735 6.322l-9.5 12c-.838 1.057-2.092 1.679-3.439 1.706-.009-.001-.079 0-.088 0zm-6.003-13.001c-.357 0-.698.126-.972.361-.306.262-.49.625-.521 1.024s.096.786.356 1.09l6 7c.286.333.7.524 1.139.524v1.5l.022-1.5c.456-.009.875-.217 1.154-.569l9.5-12c.513-.648.402-1.594-.246-2.108-.647-.513-1.595-.403-2.107.246l-7.239 9.144c-.277.351-.698.56-1.146.568-.461.035-.876-.183-1.168-.523l-3.631-4.235c-.261-.305-.624-.489-1.024-.52-.039 0-.078-.002-.117-.002z" fill="#3a312a"/><path d="m131.72 196.092-5.68 11.35 1.42 1.66 6.11-7.71c1.54-1.95 4.38-2.28 6.32-.74 1.95 1.54 2.28 4.38.74 6.32l-9.5 12c-.84 1.06-2.09 1.68-3.44 1.71h-.09c-1.32 0-2.56-.57-3.42-1.57l-2.51-2.93-1.57 3.15 8 16 19.62-39.24z" fill="#d34e5c"/></svg>