<svg id="Layer_1" enable-background="new 0 0 256 256" height="512" viewBox="0 0 256 256" width="512" xmlns="http://www.w3.org/2000/svg"><path d="m222.394 16.135h-188.789c-9.447 0-17.105 7.658-17.105 17.106v130.289c0 9.447 7.658 17.105 17.105 17.105h188.789c9.447 0 17.106-7.658 17.106-17.105v-130.289c0-9.447-7.658-17.106-17.106-17.106z" fill="#87796f"/><path d="m222.394 14.635h-188.789c-10.259 0-18.605 8.346-18.605 18.606v130.289c0 10.259 8.346 18.605 18.605 18.605h188.789c10.259 0 18.606-8.346 18.606-18.605v-130.289c0-10.26-8.347-18.606-18.606-18.606zm15.606 148.895c0 8.605-7.001 15.605-15.606 15.605h-188.789c-8.605 0-15.605-7-15.605-15.605v-130.289c0-8.605 7-15.605 15.605-15.605h188.789c8.605 0 15.606 7 15.606 15.605z" fill="#3a312a"/><path d="m214.969 28.635h-173.938c-6.583 0-11.92 5.337-11.92 11.92v115.66c0 6.583 5.337 11.92 11.92 11.92h173.938c6.583 0 11.92-5.336 11.92-11.92v-115.66c0-6.583-5.337-11.92-11.92-11.92z" fill="#fae6ca"/><path d="m214.969 27.135h-115.171c-.829 0-1.5.671-1.5 1.5s.671 1.5 1.5 1.5h115.171c5.745 0 10.42 4.674 10.42 10.42v115.66c0 5.746-4.675 10.42-10.42 10.42h-173.938c-5.746 0-10.42-4.674-10.42-10.42v-115.66c0-5.746 4.674-10.42 10.42-10.42h45.17c.829 0 1.5-.671 1.5-1.5s-.671-1.5-1.5-1.5h-45.17c-7.4 0-13.42 6.02-13.42 13.42v115.66c0 7.4 6.02 13.42 13.42 13.42h173.938c7.399 0 13.42-6.02 13.42-13.42v-115.66c0-7.4-6.021-13.42-13.42-13.42z" fill="#3a312a"/><path d="m113.688 180.635h28.625v35.593h-28.625z" fill="#87796f"/><path d="m142.313 179.135h-28.625c-.829 0-1.5.671-1.5 1.5v35.593c0 .829.671 1.5 1.5 1.5h28.625c.828 0 1.5-.671 1.5-1.5v-35.593c0-.828-.672-1.5-1.5-1.5zm-1.5 35.594h-25.625v-32.593h25.625z" fill="#3a312a"/><path d="m148.296 216.229h-40.593c-12.927 0-23.407 10.479-23.407 23.406h87.406c.001-12.927-10.478-23.406-23.406-23.406z" fill="#87796f"/><path d="m148.296 214.729h-40.592c-13.733 0-24.907 11.173-24.907 24.907 0 .829.671 1.5 1.5 1.5h37.584c.829 0 1.5-.671 1.5-1.5s-.671-1.5-1.5-1.5h-36.033c.773-11.382 10.281-20.407 21.856-20.407h40.592c11.575 0 21.083 9.024 21.856 20.407h-34.701c-.828 0-1.5.671-1.5 1.5s.672 1.5 1.5 1.5h36.252c.828 0 1.5-.671 1.5-1.5 0-13.734-11.173-24.907-24.907-24.907z" fill="#3a312a"/><path d="m47.671 203.469c-.974 11.564-13.025 13.39-13.025 13.39 10.346.487 12.925 14.059 12.925 14.059.221-9.677 13.321-14.202 13.321-14.202-9.813-.587-13.221-13.247-13.221-13.247z" fill="#d6df58"/><path d="m60.982 215.218c-8.604-.514-11.831-12.024-11.863-12.141-.19-.702-.848-1.162-1.583-1.102-.725.066-1.298.642-1.359 1.367-.86 10.215-11.314 11.964-11.755 12.033-.763.115-1.313.79-1.273 1.561.04.77.657 1.384 1.427 1.421 9.028.425 11.499 12.718 11.523 12.842.137.711.759 1.217 1.472 1.217.042 0 .084-.001.126-.005.764-.064 1.357-.693 1.375-1.459.195-8.508 12.192-12.777 12.313-12.819.675-.235 1.092-.915.994-1.623-.099-.708-.683-1.249-1.397-1.292zm-13.565 10.346c-1.356-3.13-3.709-6.907-7.587-8.876 2.931-1.405 6.409-3.914 8.202-8.273 1.551 3.071 4.199 6.88 8.334 8.723-3.008 1.639-6.923 4.405-8.949 8.426z" fill="#3a312a"/><path d="m25.972 220.45c-.689 8.179-9.212 9.471-9.212 9.471 7.318.344 9.142 9.944 9.142 9.944.156-6.845 9.422-10.045 9.422-10.045-6.941-.416-9.352-9.37-9.352-9.37z" fill="#d6df58"/><path d="m35.414 228.322c-5.767-.345-7.973-8.186-7.994-8.265-.19-.702-.856-1.164-1.582-1.102-.726.065-1.299.643-1.36 1.368-.579 6.871-7.646 8.067-7.942 8.114-.763.115-1.313.79-1.273 1.561.04.77.657 1.384 1.427 1.421 6.036.284 7.724 8.644 7.739 8.726.135.713.759 1.22 1.472 1.22.042 0 .083-.001.125-.005.765-.063 1.358-.693 1.376-1.461.131-5.709 8.332-8.634 8.413-8.662.676-.234 1.094-.913.996-1.622s-.683-1.25-1.397-1.293zm-9.585 6.795c-.924-1.886-2.34-3.947-4.447-5.28 1.856-1.042 3.697-2.63 4.871-4.917 1.057 1.874 2.655 3.954 4.941 5.224-1.85 1.101-3.989 2.741-5.365 4.973z" fill="#3a312a"/><path d="m25.972 193.792c-.689 8.179-9.212 9.471-9.212 9.471 7.318.344 9.142 9.944 9.142 9.944.156-6.845 9.422-10.045 9.422-10.045-6.941-.415-9.352-9.37-9.352-9.37z" fill="#d6df58"/><path d="m35.414 201.664c-5.766-.345-7.972-8.185-7.994-8.264-.19-.702-.856-1.165-1.582-1.102-.726.065-1.299.643-1.36 1.368-.579 6.871-7.646 8.066-7.942 8.113-.763.115-1.313.79-1.273 1.561.04.77.657 1.384 1.427 1.421 6.036.284 7.723 8.645 7.739 8.726.135.713.759 1.22 1.473 1.22.041 0 .083-.001.125-.005.765-.063 1.358-.693 1.376-1.461.131-5.709 8.332-8.634 8.413-8.662.677-.234 1.094-.913.996-1.622-.099-.708-.684-1.25-1.398-1.293zm-9.585 6.795c-.924-1.885-2.34-3.947-4.447-5.28 1.856-1.041 3.697-2.629 4.87-4.916 1.057 1.874 2.655 3.954 4.941 5.223-1.849 1.102-3.987 2.741-5.364 4.973z" fill="#3a312a"/><path d="m141.931 86.254c-2.893-6.09-7.841-11.038-13.931-13.931-3.816-1.824-8.082-2.841-12.579-2.841h-37.737c-16.185 0-29.351 13.166-29.351 29.351s13.166 29.351 29.351 29.351h37.737c4.497 0 8.763-1.017 12.579-2.841-6.09-2.893-11.038-7.841-13.931-13.931h-36.385c-6.939 0-12.579-5.64-12.579-12.579s5.64-12.579 12.579-12.579h37.737c6.939 0 12.579 5.64 12.579 12.579s5.64 12.579 12.579 12.579h1.352c1.824-3.816 2.841-8.082 2.841-12.579s-1.017-8.763-2.841-12.579z" fill="#ed6e7a"/><path d="m143.286 85.61c-3.041-6.4-8.241-11.601-14.639-14.64-4.146-1.982-8.596-2.987-13.226-2.987h-37.737c-17.011 0-30.851 13.84-30.851 30.851s13.839 30.851 30.851 30.851h37.737c4.63 0 9.08-1.005 13.226-2.987.522-.25.854-.777.853-1.355s-.334-1.105-.856-1.353c-5.779-2.745-10.475-7.44-13.22-13.22-.248-.523-.776-.856-1.355-.856h-36.385c-6.109 0-11.079-4.97-11.079-11.079s4.97-11.079 11.079-11.079h37.737c6.109 0 11.079 4.97 11.079 11.079 0 7.763 6.315 14.079 14.079 14.079h1.352c.578 0 1.104-.332 1.354-.853 1.981-4.147 2.986-8.597 2.986-13.226 0-4.63-1.003-9.079-2.985-13.225zm-2.317 24.302h-.39c-6.109 0-11.079-4.97-11.079-11.079 0-7.763-6.316-14.079-14.079-14.079h-37.737c-7.763 0-14.079 6.316-14.079 14.079s6.315 14.079 14.079 14.079h35.453c2.595 5.049 6.552 9.296 11.377 12.248-2.907 1.013-5.954 1.524-9.094 1.524h-37.736c-15.357 0-27.851-12.494-27.851-27.851s12.494-27.851 27.851-27.851h37.737c4.179 0 8.193.906 11.935 2.696 5.779 2.746 10.475 7.44 13.221 13.22 0 .001.001.002.001.003 1.787 3.74 2.693 7.754 2.693 11.932 0 3.862-.774 7.584-2.302 11.079z" fill="#3a312a"/><path d="m178.316 69.482h-37.737c-4.497 0-8.763 1.017-12.579 2.841 6.09 2.893 11.038 7.841 13.931 13.931h36.385c6.939 0 12.579 5.639 12.579 12.579s-5.639 12.579-12.579 12.579h-37.737c-6.939 0-12.579-5.64-12.579-12.579s-5.64-12.579-12.579-12.579h-1.352c-1.824 3.816-2.841 8.082-2.841 12.579s1.017 8.763 2.841 12.579c2.893 6.09 7.841 11.038 13.931 13.931 3.816 1.824 8.082 2.841 12.579 2.841h37.737c16.185 0 29.351-13.166 29.351-29.351s-13.166-29.351-29.351-29.351z" fill="#d6df58"/><path d="m178.315 67.982h-37.736c-4.63 0-9.08 1.005-13.226 2.987-.522.25-.854.777-.853 1.355 0 .578.334 1.104.856 1.353 5.779 2.746 10.475 7.44 13.221 13.22.248.523.775.856 1.354.856h36.384c6.109 0 11.079 4.97 11.079 11.079s-4.97 11.079-11.079 11.079h-37.736c-6.109 0-11.079-4.97-11.079-11.079 0-7.763-6.316-14.079-14.079-14.079h-1.352c-.578 0-1.104.332-1.354.853-1.982 4.147-2.987 8.597-2.987 13.226s1.005 9.08 2.986 13.222c3.041 6.401 8.241 11.602 14.639 14.641 4.146 1.982 8.596 2.987 13.226 2.987h37.736c17.012 0 30.852-13.839 30.852-30.851s-13.84-30.849-30.852-30.849zm0 58.702h-37.736c-4.179 0-8.193-.906-11.936-2.696-5.779-2.745-10.475-7.44-13.221-13.223-1.788-3.739-2.694-7.753-2.694-11.932 0-3.862.774-7.584 2.304-11.079h.389c6.109 0 11.079 4.97 11.079 11.079 0 7.763 6.315 14.079 14.079 14.079h37.736c7.764 0 14.079-6.315 14.079-14.079s-6.315-14.079-14.079-14.079h-35.452c-2.595-5.049-6.553-9.296-11.378-12.248 2.907-1.013 5.954-1.524 9.094-1.524h37.736c15.357 0 27.852 12.494 27.852 27.851s-12.494 27.851-27.852 27.851z" fill="#3a312a"/><path d="m214.97 30.14h-16c5.74 0 10.42 4.67 10.42 10.42v115.66c0 5.03-3.6 9.25-8.35 10.21-.02.07-.03.14-.05.21h13.98c5.74 0 10.42-4.68 10.42-10.42v-115.66c0-5.75-4.68-10.42-10.42-10.42z" fill="#decaad"/></svg>