<svg id="Layer_1" enable-background="new 0 0 256 256" height="512" viewBox="0 0 256 256" width="512" xmlns="http://www.w3.org/2000/svg"><circle cx="133.45" cy="133.787" fill="#8ac6dd" r="105.75"/><path d="m133.449 26.538c-59.138 0-107.25 48.112-107.25 107.25s48.112 107.25 107.25 107.25 107.25-48.112 107.25-107.25-48.112-107.25-107.25-107.25zm0 211.5c-57.483 0-104.25-46.766-104.25-104.25s46.767-104.25 104.25-104.25 104.25 46.766 104.25 104.25-46.766 104.25-104.25 104.25z" fill="#3a312a"/><path d="m133.45 55.537c-22.724 0-43.176 9.695-57.471 25.164l-8.459 10.965c-7.787 12.163-12.32 26.608-12.32 42.121 0 43.216 35.034 78.25 78.25 78.25s78.25-35.034 78.25-78.25-35.034-78.25-78.25-78.25z" fill="#eb6e7a"/><path d="m133.449 54.038c-22.162 0-43.511 9.348-58.572 25.646-.563.608-.525 1.558.084 2.12.607.562 1.557.525 2.119-.083 14.495-15.685 35.041-24.682 56.369-24.682 42.32 0 76.75 34.43 76.75 76.75s-34.43 76.75-76.75 76.75-76.75-34.43-76.75-76.75c0-14.68 4.179-28.965 12.084-41.313.446-.697.243-1.625-.455-2.072-.696-.447-1.624-.244-2.072.455-8.215 12.831-12.557 27.675-12.557 42.93 0 43.974 35.775 79.75 79.75 79.75s79.75-35.776 79.75-79.75-35.775-79.751-79.75-79.751z" fill="#3a312a"/><path d="m47.727 26.14c-.974 11.564-13.031 13.389-13.031 13.389 10.352.487 12.932 14.059 12.932 14.059.221-9.677 13.328-14.202 13.328-14.202-9.819-.587-13.229-13.246-13.229-13.246z" fill="#d6df58"/><path d="m61.046 37.889c-8.609-.515-11.839-12.025-11.87-12.141-.191-.702-.851-1.16-1.584-1.101-.725.066-1.298.642-1.359 1.367-.86 10.215-11.319 11.963-11.761 12.033-.763.115-1.313.79-1.273 1.56s.657 1.384 1.428 1.421c9.033.425 11.505 12.718 11.528 12.842.138.711.76 1.217 1.473 1.217.042 0 .084-.002.126-.005.765-.064 1.357-.693 1.375-1.459.194-8.509 12.198-12.777 12.319-12.819.675-.235 1.092-.914.994-1.622-.098-.709-.682-1.25-1.396-1.293zm-13.573 10.347c-1.357-3.131-3.71-6.909-7.591-8.878 2.933-1.405 6.412-3.914 8.206-8.274 1.552 3.071 4.202 6.881 8.339 8.724-3.009 1.64-6.927 4.406-8.954 8.428z" fill="#3a312a"/><path d="m26.017 43.12c-.689 8.179-9.217 9.471-9.217 9.471 7.322.344 9.147 9.944 9.147 9.944.156-6.844 9.427-10.045 9.427-10.045-6.944-.416-9.357-9.37-9.357-9.37z" fill="#d6df58"/><path d="m35.464 50.992c-5.77-.345-7.977-8.185-7.999-8.264-.189-.702-.863-1.163-1.581-1.102-.726.065-1.3.642-1.361 1.368-.579 6.871-7.651 8.067-7.947 8.114-.763.115-1.314.79-1.273 1.561.04.77.657 1.384 1.428 1.421 6.039.284 7.729 8.644 7.744 8.726.136.712.759 1.22 1.473 1.22.041 0 .083-.001.125-.005.765-.063 1.358-.694 1.376-1.461.13-5.709 8.336-8.634 8.416-8.662.677-.234 1.094-.913.997-1.622-.099-.71-.684-1.251-1.398-1.294zm-9.59 6.796c-.924-1.886-2.341-3.948-4.45-5.281 1.857-1.041 3.7-2.63 4.874-4.917 1.058 1.874 2.655 3.955 4.944 5.225-1.85 1.1-3.991 2.74-5.368 4.973z" fill="#3a312a"/><path d="m26.017 16.462c-.689 8.179-9.217 9.471-9.217 9.471 7.322.344 9.147 9.944 9.147 9.944.156-6.845 9.427-10.045 9.427-10.045-6.944-.415-9.357-9.37-9.357-9.37z" fill="#d6df58"/><path d="m35.464 24.334c-5.77-.345-7.977-8.186-7.999-8.265-.189-.702-.863-1.162-1.581-1.102-.726.065-1.3.642-1.361 1.368-.579 6.871-7.651 8.067-7.947 8.114-.763.115-1.314.79-1.273 1.56.04.77.657 1.384 1.428 1.421 6.039.284 7.729 8.644 7.744 8.726.136.712.759 1.22 1.473 1.22.041 0 .083-.001.125-.005.765-.063 1.358-.694 1.376-1.461.13-5.709 8.336-8.634 8.416-8.662.677-.234 1.094-.913.997-1.622-.099-.707-.684-1.249-1.398-1.292zm-9.59 6.797c-.924-1.886-2.341-3.948-4.45-5.281 1.857-1.041 3.7-2.63 4.874-4.918 1.058 1.874 2.656 3.956 4.944 5.225-1.85 1.101-3.991 2.741-5.368 4.974z" fill="#3a312a"/><path d="m126.036 110.19c0-7.027-2.129-12.649-6.385-16.865-4.257-4.217-10.079-6.325-17.467-6.325-5.02 0-9.366.994-13.041 2.982-3.674 1.988-6.405 4.829-8.191 8.523-1.788 3.695-2.681 7.589-2.681 11.686 0 4.136.893 8.051 2.681 11.746 1.787 3.695 4.518 6.535 8.191 8.523 3.674 1.988 8.021 2.981 13.041 2.981 7.388 0 13.211-2.108 17.468-6.324 4.255-4.218 6.384-9.859 6.384-16.927zm-19.335 10.963c-1.004 1.486-2.51 2.229-4.518 2.229s-3.534-.742-4.578-2.229c-1.606-2.249-2.409-5.862-2.409-10.843 0-4.978.803-8.592 2.409-10.842 1.044-1.445 2.57-2.168 4.578-2.168 2.007 0 3.514.723 4.518 2.168 1.605 2.289 2.409 5.903 2.409 10.842.001 4.98-.804 8.594-2.409 10.843zm76.617 19.907c-4.256-4.236-10.1-6.354-17.528-6.354-4.98 0-9.317 1.004-13.011 3.011-3.695 2.009-6.425 4.849-8.192 8.523s-2.65 7.58-2.65 11.715c0 4.136.883 8.041 2.65 11.716 1.767 3.674 4.497 6.515 8.192 8.523 3.693 2.008 8.03 3.012 13.011 3.012 7.428 0 13.271-2.118 17.528-6.354 4.256-4.236 6.385-9.868 6.385-16.896 0-7.027-2.129-12.659-6.385-16.896zm-12.95 27.858c-1.045 1.446-2.57 2.168-4.577 2.168-2.009 0-3.515-.722-4.518-2.168-1.607-2.248-2.409-5.862-2.409-10.842 0-4.979.802-8.592 2.409-10.842 1.003-1.485 2.509-2.229 4.518-2.229 2.007 0 3.533.723 4.577 2.168 1.606 2.289 2.409 5.924 2.409 10.902 0 4.98-.803 8.594-2.409 10.843zm-17.127-81.918-50.876 94.326h12.594l51.012-94.326z" fill="#87796f"/><path d="m120.707 128.181c4.531-4.489 6.829-10.542 6.829-17.991 0-7.409-2.298-13.442-6.829-17.932-4.528-4.485-10.761-6.759-18.523-6.759-5.247 0-9.875 1.064-13.755 3.163-3.938 2.131-6.909 5.223-8.828 9.189-1.878 3.883-2.83 8.034-2.83 12.339 0 4.344.952 8.516 2.83 12.399 1.918 3.966 4.889 7.057 8.828 9.189 3.88 2.098 8.507 3.162 13.755 3.162 7.763 0 13.996-2.274 18.523-6.759zm-38.405-6.898c-1.68-3.472-2.531-7.204-2.531-11.092 0-3.848.852-7.56 2.531-11.032 1.639-3.388 4.181-6.031 7.555-7.857 3.437-1.859 7.584-2.801 12.327-2.801 6.944 0 12.466 1.982 16.412 5.89 3.941 3.905 5.94 9.221 5.94 15.8 0 6.619-1.999 11.955-5.94 15.859-3.945 3.909-9.468 5.89-16.412 5.89-4.744 0-8.892-.942-12.327-2.8-3.376-1.826-5.917-4.47-7.555-7.857zm25.62.741c1.81-2.534 2.688-6.365 2.688-11.714 0-5.303-.877-9.131-2.677-11.697-1.278-1.84-3.267-2.813-5.75-2.813-2.473 0-4.477.965-5.799 2.797-1.81 2.534-2.688 6.366-2.688 11.713 0 5.349.879 9.18 2.682 11.705 1.317 1.875 3.325 2.866 5.806 2.866 2.491 0 4.483-.999 5.738-2.857zm-9.096-1.743c-1.413-1.979-2.13-5.334-2.13-9.971 0-4.636.717-7.99 2.125-9.964.762-1.055 1.83-1.546 3.362-1.546 1.519 0 2.563.484 3.29 1.53 1.418 2.021 2.137 5.379 2.137 9.98 0 4.637-.717 7.991-2.152 10.002-.723 1.07-1.764 1.568-3.274 1.568-1.524.001-2.588-.504-3.358-1.599zm85.55 19.715c-4.528-4.506-10.781-6.791-18.585-6.791-5.209 0-9.828 1.075-13.728 3.194-3.96 2.153-6.93 5.245-8.827 9.191-1.856 3.861-2.798 8.021-2.798 12.365s.941 8.505 2.798 12.366c1.897 3.948 4.868 7.04 8.827 9.191 3.898 2.119 8.518 3.194 13.728 3.194 7.805 0 14.058-2.285 18.586-6.792 4.529-4.509 6.826-10.551 6.826-17.959 0-7.406-2.297-13.449-6.827-17.959zm-2.115 33.792c-3.946 3.926-9.487 5.917-16.47 5.917-4.704 0-8.841-.952-12.295-2.83-3.395-1.844-5.938-4.487-7.557-7.855-1.659-3.452-2.501-7.175-2.501-11.066 0-3.89.842-7.613 2.501-11.065 1.619-3.366 4.161-6.009 7.557-7.855 3.455-1.877 7.592-2.83 12.295-2.83 6.982 0 12.523 1.991 16.469 5.917 3.943 3.926 5.943 9.253 5.943 15.833 0 6.582-1.999 11.909-5.942 15.834zm-15.002-87.556c-.271-.454-.76-.732-1.288-.732h-12.729c-.552 0-1.059.303-1.32.788l-50.877 94.326c-.251.465-.238 1.027.032 1.48.271.454.76.731 1.288.731h12.594c.551 0 1.058-.302 1.319-.787l51.013-94.326c.25-.463.238-1.026-.032-1.48zm-53.196 93.594h-9.186l49.26-91.326h9.317zm51.728-36.321c-2.492 0-4.484.999-5.738 2.857-1.809 2.532-2.688 6.364-2.688 11.714 0 5.352.88 9.184 2.677 11.697 1.276 1.841 3.265 2.814 5.75 2.814 2.506 0 4.455-.939 5.798-2.797 1.809-2.533 2.688-6.365 2.688-11.713 0-5.343-.877-9.191-2.693-11.781-1.34-1.853-3.288-2.791-5.794-2.791zm3.361 24.534c-.763 1.056-1.831 1.547-3.361 1.547-1.521 0-2.564-.484-3.298-1.542-1.412-1.976-2.129-5.33-2.129-9.969 0-4.638.717-7.992 2.152-10.002.723-1.07 1.763-1.568 3.274-1.568 1.53 0 2.599.492 3.349 1.53 1.419 2.022 2.138 5.4 2.138 10.041 0 4.636-.716 7.991-2.125 9.963z" fill="#3a312a"/><path d="m133.45 57.04c-3.04 0-6.05.18-9 .53 38.1 4.46 67.75 36.94 67.75 76.22 0 1.12-.02 2.23-.08 3.33l13.65 20.23c.16.24.31.49.47.73 2.55-7.64 3.96-15.8 3.96-24.29 0-42.32-34.43-76.75-76.75-76.75z" fill="#d34e5c"/><path d="m218.738 186.406c-3.566-9.931-8.335-19.385-14.183-28.168-.048-.071-.087-.141-.135-.212l-13.725-20.336c-2.205-3.268-6.641-4.129-9.909-1.923l-.077.052c-3.268 2.206-4.129 6.641-1.923 9.909l-2.731-4.046c-2.205-3.268-6.641-4.129-9.909-1.923l-.077.052c-3.268 2.206-4.129 6.641-1.923 9.909l-2.731-4.046c-2.206-3.268-6.641-4.129-9.909-1.923l-.077.052c-3.268 2.205-4.129 6.641-1.923 9.909l4.544 6.733-.009-.002-17.025-25.225c-2.206-3.268-6.641-4.129-9.909-1.923l-.077.052c-3.268 2.206-4.129 6.641-1.923 9.909l26.439 39.174c1.539 2.281.939 5.376-1.342 6.915l-13.45 9.077c-4.606 3.108-5.82 9.362-2.715 13.963 1.554 2.303 3.893 3.757 6.418 4.247 2.531.486 5.244.012 7.547-1.542l10.407-7.024c4.288-2.894 9.947-2.739 14.07.391l8.22 6.231c.225-.199.466-.386.723-.56l37.712-25.452c.115-.078.229-.146.338-.22z" fill="#fce8cb"/><path d="m220.886 187.947-.735-2.048c-3.594-10.006-8.42-19.592-14.384-28.552l-13.828-20.496c-2.664-3.947-8.042-4.993-12.067-2.275-1.786 1.205-3.033 2.991-3.549 5.065-2.86-2.931-7.513-3.492-11.092-1.074-1.785 1.205-3.032 2.99-3.548 5.064-1.218-1.253-2.786-2.105-4.537-2.445-2.267-.44-4.565.029-6.555 1.372-1.737 1.172-2.965 2.894-3.505 4.896l-8.826-13.077c-2.664-3.948-8.043-4.992-11.995-2.325l-.076.052c-3.944 2.666-4.987 8.042-2.324 11.989l26.439 39.173c1.073 1.591.652 3.759-.938 4.833l-13.449 9.077c-5.284 3.566-6.684 10.764-3.119 16.045 1.727 2.56 4.347 4.293 7.378 4.881.738.142 1.479.212 2.215.212 2.286 0 4.52-.678 6.453-1.983l10.407-7.024c3.759-2.536 8.712-2.398 12.325.344l8.22 6.231c.568.431 1.366.402 1.901-.073.176-.156.365-.302.567-.439l37.714-25.453.334-.218c.57-.384.806-1.106.574-1.752zm-40.184 24.858-7.313-5.544c-4.637-3.519-10.993-3.697-15.816-.44l-10.407 7.024c-1.896 1.278-4.176 1.743-6.422 1.312-2.242-.435-4.181-1.718-5.46-3.613-2.639-3.91-1.602-9.24 2.311-11.881l13.449-9.077c2.962-1.999 3.746-6.035 1.747-8.998l-26.439-39.173c-1.738-2.577-1.057-6.087 1.52-7.827l-.839-1.243.915 1.191c2.576-1.738 6.088-1.058 7.827 1.519l17.024 25.225c.221.327.571.556.959.633.594.124 1.205-.133 1.543-.64.337-.506.335-1.166-.006-1.67l-4.544-6.733c-.843-1.248-1.148-2.75-.862-4.228.287-1.478 1.133-2.756 2.458-3.65 1.249-.842 2.75-1.147 4.228-.862 1.479.287 2.756 1.133 3.599 2.381l2.73 4.045s.001.001.001.001c.464.687 1.396.867 2.082.404.688-.463.868-1.396.404-2.083-.843-1.248-1.148-2.75-.862-4.228.287-1.478 1.133-2.756 2.458-3.651 2.576-1.738 6.087-1.058 7.827 1.519l2.73 4.046c.464.688 1.396.868 2.082.404.687-.463.868-1.396.404-2.082-.842-1.249-1.148-2.75-.861-4.228s1.133-2.756 2.457-3.65c2.576-1.738 6.088-1.058 7.827 1.52l13.766 20.4.089.14c5.792 8.698 10.509 18.066 14.021 27.844l.339.944z" fill="#3a312a"/><path d="m229.557 190.697c-2.32-3.438-6.987-4.343-10.425-2.023l-13.94 9.408-11.466 7.738-12.305 8.304c-3.438 2.32-4.344 6.987-2.023 10.425l9.642 14.287 14.41-9.726 11.49-7.755 24.258-16.372z" fill="#87796f"/><path d="m240.442 204.145-9.642-14.288c-2.779-4.117-8.39-5.206-12.507-2.427l-37.711 25.451c-4.117 2.778-5.206 8.389-2.428 12.507l9.643 14.287c.29.429.763.661 1.244.661.289 0 .581-.083.838-.257l14.41-9.726c.687-.463.868-1.396.404-2.083s-1.397-.867-2.082-.404l-13.167 8.886-8.804-13.043c-1.854-2.747-1.127-6.489 1.619-8.343l37.711-25.451c2.744-1.852 6.489-1.127 8.343 1.619l8.803 13.044-23.015 15.533c-.687.463-.868 1.396-.404 2.083s1.396.867 2.082.404l24.258-16.372c.688-.463.869-1.395.405-2.081z" fill="#3a312a"/><path d="m226.57 198.58c-1.75-2.593-5.271-3.276-7.864-1.526s-3.276 5.271-1.526 7.864 5.271 3.276 7.864 1.526 3.276-5.271 1.526-7.864z" fill="#d7e057"/><path d="m227.813 197.741c-1.07-1.586-2.694-2.66-4.573-3.025-1.876-.364-3.786.024-5.372 1.095-3.274 2.21-4.141 6.671-1.931 9.946 1.07 1.586 2.694 2.66 4.573 3.025.46.089.921.133 1.38.133 1.413 0 2.795-.419 3.992-1.228 3.275-2.21 4.141-6.671 1.931-9.946zm-3.608 7.46c-.922.623-2.03.848-3.123.636-1.092-.212-2.036-.836-2.658-1.758-1.284-1.903-.781-4.497 1.122-5.782.713-.481 1.522-.711 2.323-.711 1.339 0 2.654.643 3.458 1.833 1.284 1.903.781 4.497-1.122 5.782z" fill="#3a312a"/></svg>