<svg id="Layer_1" enable-background="new 0 0 256 256" height="512" viewBox="0 0 256 256" width="512" xmlns="http://www.w3.org/2000/svg"><path d="m102.098 46.051h51.127v58.489h-51.127z" fill="#87796f"/><path d="m153.225 44.551h-51.127c-.829 0-1.5.671-1.5 1.5v28.683c0 .829.671 1.5 1.5 1.5s1.5-.671 1.5-1.5v-27.183h48.127v55.489h-48.127v-14.274c0-.829-.671-1.5-1.5-1.5s-1.5.671-1.5 1.5v15.774c0 .829.671 1.5 1.5 1.5h51.127c.829 0 1.5-.671 1.5-1.5v-58.489c0-.828-.671-1.5-1.5-1.5z" fill="#3a312a"/><path d="m75.394 93.201h-9.023v-5.861c-2.496 1.729-5.078 2.749-7.584 2.749-2.404 0-4.94-1.03-7.426-2.78h-.153v5.892h-9.028c-7.543 0-13.657 6.111-13.657 13.65v12.369h60.526v-12.369c.002-7.539-6.112-13.65-13.655-13.65z" fill="#fae6ca"/><path d="m75.394 91.701h-7.523v-4.361c0-.558-.31-1.07-.804-1.329s-1.091-.222-1.55.096c-2.378 1.647-4.642 2.482-6.729 2.482-1.991 0-4.199-.843-6.563-2.507-.252-.178-.554-.273-.863-.273h-.153c-.829 0-1.5.671-1.5 1.5v4.392h-7.528c-8.357 0-15.157 6.796-15.157 15.149v12.37c0 .829.671 1.5 1.5 1.5h60.527c.829 0 1.5-.671 1.5-1.5v-12.37c0-8.353-6.8-15.149-15.157-15.149zm12.157 26.019h-57.527v-10.87c0-6.699 5.454-12.149 12.157-12.149h9.028c.829 0 1.5-.671 1.5-1.5v-3.295c4.221 2.252 8.038 2.197 12.162.086v3.209c0 .829.671 1.5 1.5 1.5h9.023c6.703 0 12.157 5.45 12.157 12.149z" fill="#3a312a"/><path d="m75.394 93.197h-2.159l.056.041-9.385 12.441-4.843-3.647-4.843 3.647-9.385-12.441.056-.041h-2.71c-7.543 0-13.657 6.111-13.657 13.65v12.375h60.527v-12.375c0-7.539-6.114-13.65-13.657-13.65z" fill="#8ac5dc"/><path d="m75.394 91.697h-2.159c-.592 0-1.1.364-1.337.896l-8.287 10.985-3.646-2.746c-.534-.402-1.271-.402-1.805 0l-3.646 2.746-8.21-10.884c-.212-.597-.777-.998-1.414-.998h-2.71c-8.357 0-15.156 6.796-15.156 15.149v12.375c0 .829.671 1.5 1.5 1.5h60.526c.829 0 1.5-.671 1.5-1.5v-12.375c.001-8.352-6.799-15.148-15.156-15.148zm12.157 26.024h-57.527v-10.875c0-6.699 5.453-12.149 12.156-12.149h1.876l8.966 11.885c.498.662 1.44.793 2.1.295l3.94-2.967 3.941 2.967c.662.498 1.602.366 2.1-.295l8.966-11.885h1.325c6.703 0 12.157 5.45 12.157 12.149z" fill="#3a312a"/><path clip-rule="evenodd" d="m35.337 53.993c-2.968 0-5.374 2.405-5.374 5.371s2.406 5.371 5.374 5.371 5.374-2.404 5.374-5.371-2.406-5.371-5.374-5.371z" fill="#fae6ca" fill-rule="evenodd"/><path d="m35.337 52.494c-3.79 0-6.874 3.082-6.874 6.871s3.083 6.871 6.874 6.871c3.79 0 6.874-3.083 6.874-6.871s-3.084-6.871-6.874-6.871zm0 10.741c-2.136 0-3.874-1.736-3.874-3.871 0-2.134 1.738-3.871 3.874-3.871s3.874 1.736 3.874 3.871-1.738 3.871-3.874 3.871z" fill="#3a312a"/><path clip-rule="evenodd" d="m82.239 53.993c-2.968 0-5.374 2.405-5.374 5.371s2.406 5.371 5.374 5.371 5.374-2.404 5.374-5.371-2.406-5.371-5.374-5.371z" fill="#fae6ca" fill-rule="evenodd"/><path d="m82.239 52.494c-3.79 0-6.874 3.082-6.874 6.871s3.083 6.871 6.874 6.871c3.79 0 6.873-3.083 6.873-6.871s-3.083-6.871-6.873-6.871zm0 10.741c-2.136 0-3.874-1.736-3.874-3.871 0-2.134 1.738-3.871 3.874-3.871s3.873 1.736 3.873 3.871c.001 2.135-1.737 3.871-3.873 3.871z" fill="#3a312a"/><path d="m58.788 32.948c-13.156 0-23.822 10.66-23.822 23.809s13.178 33.333 23.822 33.333c11.151 0 23.822-20.184 23.822-33.333s-10.665-23.809-23.822-23.809z" fill="#fae6ca"/><path d="m58.788 31.448c-13.962 0-25.322 11.354-25.322 25.31 0 13.753 13.582 34.833 25.322 34.833 11.983 0 25.322-20.763 25.322-34.833 0-13.956-11.36-25.31-25.322-25.31zm0 57.142c-9.179 0-22.322-18.743-22.322-31.833 0-12.302 10.014-22.31 22.322-22.31s22.322 10.009 22.322 22.31c0 12.282-12.188 31.833-22.322 31.833z" fill="#3a312a"/><path d="m50.378 54.165c-1.284 0-2.325 1.04-2.325 2.324s1.041 2.324 2.325 2.324 2.325-1.04 2.325-2.324-1.041-2.324-2.325-2.324z" fill="#3a312a"/><path d="m67.199 54.165c-1.284 0-2.325 1.04-2.325 2.324s1.041 2.324 2.325 2.324 2.325-1.04 2.325-2.324-1.041-2.324-2.325-2.324z" fill="#3a312a"/><path d="m45.731 60.405c-2.212 0-4.005 1.34-4.005 2.993s1.793 2.993 4.005 2.993 4.005-1.34 4.005-2.993-1.793-2.993-4.005-2.993z" fill="#f59689"/><path d="m71.846 60.405c-2.212 0-4.005 1.34-4.005 2.993s1.793 2.993 4.005 2.993 4.005-1.34 4.005-2.993-1.793-2.993-4.005-2.993z" fill="#f59689"/><path d="m83.72 51.254c0-13.012-11.039-23.561-24.656-23.561s-24.656 10.549-24.656 23.561c0 1.377.249 2.403.713 3.685.218.604 3.749-1.326 4.05-1.537 1.503-1.058 2.732-2.492 3.65-4.077.38-.659.696-1.33.951-2.001.813-2.14 3.021-8.096 5.263-7.629 3.007.626 6.415.981 10.03.981s7.023-.354 10.03-.981c2.242-.467 4.451 5.488 5.263 7.629.255.671.571 1.342.951 2.001 1.517 2.622 4.079 5.119 7.195 5.573.008-.15.198-.202.34-.253 1.019-.37.876-2.574.876-3.391z" fill="#87796f"/><path d="m85.223 51.507-.003-.253c0-13.819-11.734-25.061-26.157-25.061-14.422 0-26.156 11.243-26.156 25.062 0 1.64.32 2.863.802 4.194.176.489.567.86 1.073 1.02.156.049.332.072.522.072 1.749 0 4.697-1.889 4.729-1.912 1.6-1.126 3.012-2.7 4.087-4.555.412-.715.767-1.461 1.054-2.217l.05-.133c2.185-5.764 3.309-6.478 3.504-6.56 3.223.672 6.701 1.012 10.336 1.012 3.636 0 7.113-.34 10.24-1.011.292.081 1.415.793 3.599 6.554l.052.137c.286.754.64 1.5 1.055 2.22 2.017 3.488 5.111 5.845 8.277 6.307.42.06.842-.057 1.168-.325.032-.026.062-.053.091-.082 1.73-.79 1.695-3.17 1.677-4.469zm-3.113 1.783c-2.061-.537-4.082-2.257-5.503-4.714-.334-.579-.619-1.179-.849-1.784l-.052-.136c-1.683-4.438-3.614-8.49-6.332-8.49-.192 0-.388.02-.588.062-3.022.629-6.294.949-9.724.949s-6.702-.319-9.724-.949c-3.039-.638-5.12 3.68-6.922 8.433l-.05.131c-.23.607-.516 1.208-.847 1.782-.856 1.479-1.968 2.724-3.191 3.586-.342.22-1.379.758-2.171 1.101-.163-.626-.252-1.25-.252-2.006 0-12.165 10.388-22.062 23.156-22.062s23.157 9.896 23.157 22.061l.003.297c.014.858-.023 1.441-.111 1.739z" fill="#3a312a"/><path d="m48.916 89.834h6.089v15.584h-6.089z" fill="#87796f" transform="matrix(.799 -.602 .602 .799 -48.28 50.909)"/><path d="m60.281 101.112-9.382-12.443c-.498-.661-1.439-.793-2.1-.295l-4.863 3.663c-.318.24-.528.595-.583.99-.056.394.048.794.287 1.112l9.382 12.443c.295.391.744.597 1.199.597.315 0 .631-.098.901-.302l4.863-3.663c.318-.24.528-.596.583-.99.056-.394-.047-.794-.287-1.112zm-5.766 2.467-7.576-10.047 2.467-1.858 7.576 10.047z" fill="#3a312a"/><path d="m58.374 94.581h15.584v6.089h-15.584z" fill="#87796f" transform="matrix(.602 -.799 .799 .602 -51.619 91.681)"/><path d="m74.774 93.027c-.055-.395-.265-.75-.583-.99l-4.863-3.663c-.66-.498-1.601-.366-2.1.295l-9.382 12.443c-.24.318-.343.718-.288 1.112s.265.75.583.99l4.863 3.663c.27.204.587.302.901.302.455 0 .904-.206 1.199-.597l9.382-12.443c.241-.318.344-.718.288-1.112zm-11.162 10.552-2.467-1.858 7.576-10.047 2.467 1.858z" fill="#3a312a"/><path d="m39.861 107.945c-.829 0-1.5.671-1.5 1.5v9.776c0 .829.671 1.5 1.5 1.5s1.5-.671 1.5-1.5v-9.776c0-.829-.671-1.5-1.5-1.5z" fill="#3a312a"/><path d="m78.265 107.945c-.829 0-1.5.671-1.5 1.5v9.776c0 .829.671 1.5 1.5 1.5s1.5-.671 1.5-1.5v-9.776c0-.829-.672-1.5-1.5-1.5z" fill="#3a312a"/><path d="m58.618 19.141c-16.792 9.874-26.539-9.107-26.539-.45 0 2.736 1.103 5.465 2.551 7.948l4.008 5.678c4.043 5.089 8.881 10.515 14.723 12.175 9.41 2.674 26.065-.662 26.065-14.198-.002-8.657-7.261-19.119-20.808-11.153z" fill="#87796f"/><path d="m73.636 16.374c-3.07-1.756-8.298-2.926-15.778 1.474-9.355 5.5-16.101 1.457-20.564-1.219-2.226-1.334-3.835-2.299-5.303-1.466-1.251.708-1.412 2.257-1.412 3.527 0 2.678.901 5.524 2.754 8.703.022.038.045.074.07.109l4.008 5.678c.017.023.034.046.051.068 4.415 5.557 9.347 10.94 15.487 12.685 2.047.582 4.453.901 6.982.901 5.169 0 10.85-1.334 15.022-4.485 3.906-2.951 5.971-7.12 5.971-12.057 0-5.921-2.861-11.385-7.288-13.918zm-.491 23.582c-5.372 4.059-13.993 4.623-19.376 3.093-5.313-1.51-9.835-6.479-13.932-11.632l-3.945-5.589c-1.557-2.684-2.314-5.019-2.314-7.137 0-.295.013-.519.031-.686.554.247 1.414.762 2.142 1.198 4.451 2.668 12.736 7.635 23.627 1.231 4.939-2.905 9.355-3.409 12.768-1.456 3.991 2.283 5.778 7.329 5.778 11.315 0 4.017-1.608 7.268-4.779 9.663z" fill="#3a312a"/><path d="m65.896 70.57c-.771-.289-1.64.102-1.931.878-.47 1.254-2.237 3.121-5.177 3.121-2.514 0-4.175-1.029-5.229-3.24-.355-.749-1.251-1.063-1.999-.709-.748.356-1.066 1.251-.709 1.999 1.564 3.285 4.235 4.95 7.937 4.95 4.182 0 7.072-2.627 7.987-5.068.29-.775-.103-1.64-.879-1.931z" fill="#3a312a"/><path d="m213.819 93.201h-9.023v-5.861c-2.496 1.729-5.078 2.749-7.584 2.749-2.404 0-4.94-1.03-7.426-2.78h-.153v5.892h-9.028c-7.543 0-13.657 6.111-13.657 13.65v12.369h60.526v-12.369c.002-7.539-6.112-13.65-13.655-13.65z" fill="#fae6ca"/><path d="m213.819 91.701h-7.523v-4.361c0-.558-.31-1.07-.804-1.329s-1.091-.222-1.55.096c-2.378 1.647-4.642 2.482-6.729 2.482-1.991 0-4.199-.843-6.562-2.507-.253-.178-.554-.273-.863-.273h-.153c-.829 0-1.5.671-1.5 1.5v4.392h-7.528c-8.358 0-15.157 6.796-15.157 15.149v12.37c0 .829.671 1.5 1.5 1.5h60.526c.829 0 1.5-.671 1.5-1.5v-12.37c0-8.353-6.8-15.149-15.157-15.149zm12.157 26.019h-57.526v-10.87c0-6.699 5.454-12.149 12.157-12.149h9.028c.829 0 1.5-.671 1.5-1.5v-3.296c4.222 2.253 8.037 2.198 12.162.086v3.209c0 .829.671 1.5 1.5 1.5h9.023c6.703 0 12.157 5.45 12.157 12.149v10.871z" fill="#3a312a"/><path d="m213.819 93.197h-2.159l.056.041-9.385 12.441-4.843-3.647-4.843 3.647-9.385-12.441.056-.041h-2.71c-7.543 0-13.657 6.111-13.657 13.65v12.375h60.527v-12.375c0-7.539-6.114-13.65-13.657-13.65z" fill="#d6df58"/><path d="m213.819 91.697h-2.159c-.592 0-1.1.364-1.337.896l-8.287 10.985-3.646-2.746c-.534-.402-1.27-.402-1.805 0l-3.646 2.746-8.21-10.884c-.212-.597-.777-.998-1.414-.998h-2.71c-8.358 0-15.157 6.796-15.157 15.149v12.375c0 .829.671 1.5 1.5 1.5h60.527c.829 0 1.5-.671 1.5-1.5v-12.375c.001-8.352-6.798-15.148-15.156-15.148zm12.157 26.024h-57.527v-10.875c0-6.699 5.454-12.149 12.157-12.149h1.876l8.966 11.885c.498.662 1.438.793 2.1.295l3.941-2.967 3.941 2.967c.662.498 1.602.366 2.1-.295l8.965-11.885h1.325c6.704 0 12.157 5.45 12.157 12.149v10.875z" fill="#3a312a"/><path clip-rule="evenodd" d="m173.762 53.993c-2.968 0-5.374 2.405-5.374 5.371s2.406 5.371 5.374 5.371 5.374-2.404 5.374-5.371-2.406-5.371-5.374-5.371z" fill="#fae6ca" fill-rule="evenodd"/><path d="m173.762 52.494c-3.79 0-6.874 3.082-6.874 6.871s3.083 6.871 6.874 6.871c3.79 0 6.873-3.083 6.873-6.871s-3.083-6.871-6.873-6.871zm0 10.741c-2.136 0-3.874-1.736-3.874-3.871 0-2.134 1.738-3.871 3.874-3.871s3.873 1.736 3.873 3.871c.001 2.135-1.737 3.871-3.873 3.871z" fill="#3a312a"/><path clip-rule="evenodd" d="m220.664 53.993c-2.968 0-5.374 2.405-5.374 5.371s2.406 5.371 5.374 5.371 5.374-2.404 5.374-5.371-2.406-5.371-5.374-5.371z" fill="#fae6ca" fill-rule="evenodd"/><path d="m220.665 52.494c-3.79 0-6.874 3.082-6.874 6.871s3.083 6.871 6.874 6.871c3.79 0 6.873-3.083 6.873-6.871s-3.083-6.871-6.873-6.871zm0 10.741c-2.136 0-3.874-1.736-3.874-3.871 0-2.134 1.738-3.871 3.874-3.871s3.873 1.736 3.873 3.871-1.738 3.871-3.873 3.871z" fill="#3a312a"/><path d="m197.213 32.948c-13.156 0-23.822 10.66-23.822 23.809s13.178 33.333 23.822 33.333c11.151 0 23.822-20.184 23.822-33.333s-10.665-23.809-23.822-23.809z" fill="#fae6ca"/><path d="m197.213 31.448c-13.962 0-25.322 11.354-25.322 25.31 0 13.753 13.581 34.833 25.322 34.833 11.983 0 25.322-20.763 25.322-34.833 0-13.956-11.359-25.31-25.322-25.31zm0 57.142c-9.179 0-22.322-18.743-22.322-31.833 0-12.302 10.014-22.31 22.322-22.31s22.322 10.008 22.322 22.31c0 12.282-12.188 31.833-22.322 31.833z" fill="#3a312a"/><path d="m188.803 54.165c-1.284 0-2.325 1.04-2.325 2.324s1.041 2.324 2.325 2.324 2.325-1.04 2.325-2.324-1.041-2.324-2.325-2.324z" fill="#3a312a"/><path d="m205.624 54.165c-1.284 0-2.325 1.04-2.325 2.324s1.041 2.324 2.325 2.324 2.325-1.04 2.325-2.324-1.041-2.324-2.325-2.324z" fill="#3a312a"/><path d="m184.156 60.405c-2.212 0-4.005 1.34-4.005 2.993s1.793 2.993 4.005 2.993 4.005-1.34 4.005-2.993-1.793-2.993-4.005-2.993z" fill="#f59689"/><ellipse cx="210.271" cy="63.397" fill="#f59689" rx="4.005" ry="2.993"/><path d="m222.145 51.254c0-13.012-11.039-23.561-24.656-23.561s-24.656 10.549-24.656 23.561c0 1.377.249 2.403.713 3.685.218.604 3.749-1.326 4.05-1.537 1.503-1.058 2.732-2.492 3.65-4.077.38-.659.696-1.33.951-2.001.813-2.14 3.021-8.096 5.263-7.629 3.007.626 6.415.981 10.03.981s7.023-.354 10.03-.981c2.242-.467 4.451 5.488 5.263 7.629.255.671.571 1.342.951 2.001 1.517 2.622 4.079 5.119 7.195 5.573.008-.15.198-.202.34-.253 1.019-.37.876-2.574.876-3.391z" fill="#87796f"/><path d="m223.647 51.508-.003-.254c0-13.819-11.733-25.061-26.156-25.061s-26.157 11.243-26.157 25.062c0 1.643.321 2.865.802 4.194.176.489.567.861 1.073 1.021.157.049.333.071.523.071 1.75 0 4.696-1.89 4.727-1.912 1.6-1.126 3.012-2.7 4.087-4.555.413-.718.768-1.464 1.054-2.217l.052-.138c2.185-5.761 3.307-6.473 3.503-6.556 3.223.672 6.701 1.012 10.336 1.012s7.113-.34 10.239-1.011c.293.081 1.416.794 3.601 6.559l.05.133c.287.756.642 1.502 1.055 2.219 2.017 3.488 5.111 5.845 8.277 6.307.419.06.842-.057 1.168-.325.031-.026.062-.053.091-.081 1.732-.79 1.698-3.169 1.678-4.468zm-3.111 1.783c-2.061-.538-4.083-2.257-5.503-4.714-.332-.577-.618-1.177-.849-1.784l-.05-.132c-1.684-4.441-3.614-8.495-6.334-8.495-.192 0-.388.02-.588.062-3.022.629-6.293.949-9.724.949-3.43 0-6.702-.319-9.724-.949-3.023-.635-5.117 3.677-6.92 8.428l-.052.137c-.229.604-.515 1.204-.847 1.781-.856 1.479-1.968 2.724-3.192 3.586-.342.22-1.379.758-2.17 1.1-.163-.625-.251-1.249-.252-2.006 0-12.165 10.388-22.062 23.157-22.062 12.768 0 23.156 9.896 23.156 22.061l.003.298c.013.858-.024 1.441-.111 1.74z" fill="#3a312a"/><path d="m187.341 89.834h6.089v15.584h-6.089z" fill="#87796f" transform="matrix(.799 -.602 .602 .799 -20.423 134.196)"/><path d="m198.706 101.112-9.382-12.443c-.499-.661-1.44-.793-2.1-.295l-4.863 3.663c-.318.24-.528.595-.583.99-.056.394.048.794.288 1.112l9.382 12.443c.295.391.744.597 1.199.597.315 0 .631-.098.901-.302l4.863-3.663c.318-.24.528-.596.583-.99s-.049-.794-.288-1.112zm-5.766 2.467-7.576-10.047 2.467-1.858 7.576 10.047z" fill="#3a312a"/><path d="m196.799 94.581h15.584v6.089h-15.584z" fill="#87796f" transform="matrix(.602 -.799 .799 .602 3.467 202.207)"/><g fill="#3a312a"><path d="m213.199 93.027c-.055-.395-.265-.75-.583-.99l-4.863-3.663c-.661-.498-1.602-.366-2.1.295l-9.382 12.443c-.24.318-.343.718-.288 1.112s.265.75.583.99l4.863 3.663c.27.204.587.302.901.302.455 0 .904-.206 1.199-.597l9.382-12.443c.24-.318.344-.718.288-1.112zm-11.162 10.552-2.467-1.858 7.576-10.047 2.467 1.858z"/><path d="m178.287 107.945c-.829 0-1.5.671-1.5 1.5v9.776c0 .829.671 1.5 1.5 1.5s1.5-.671 1.5-1.5v-9.776c0-.829-.672-1.5-1.5-1.5z"/><path d="m216.69 107.945c-.829 0-1.5.671-1.5 1.5v9.776c0 .829.671 1.5 1.5 1.5s1.5-.671 1.5-1.5v-9.776c0-.829-.671-1.5-1.5-1.5z"/><path d="m204.321 70.57c-.773-.289-1.64.102-1.931.878-.47 1.254-2.237 3.121-5.178 3.121-2.514 0-4.175-1.029-5.229-3.24-.355-.749-1.252-1.063-1.999-.709-.748.356-1.065 1.251-.709 1.999 1.564 3.285 4.235 4.95 7.937 4.95 4.183 0 7.072-2.627 7.987-5.068.291-.775-.102-1.64-.878-1.931z"/></g><path d="m197.212 16.299c-.693 0-18.701 7.787-18.701 14.545s8.373 12.237 18.701 12.237 18.701-5.479 18.701-12.237c.001-6.758-18.47-14.545-18.701-14.545z" fill="#87796f"/><path d="m197.212 14.799c-1.047 0-6.582 2.641-10.39 4.957-6.51 3.96-9.811 7.691-9.811 11.088 0 7.574 9.062 13.736 20.201 13.736s20.201-6.162 20.201-13.736c.001-7.979-19.295-16.045-20.201-16.045zm0 26.782c-9.484 0-17.201-4.816-17.201-10.736 0-4.89 14.012-11.874 17.146-12.97 3.375 1.331 17.256 8.186 17.256 12.97.001 5.919-7.716 10.736-17.201 10.736z" fill="#3a312a"/><path d="m144.606 93.201h-9.023v-5.861c-2.496 1.729-5.078 2.749-7.584 2.749-2.404 0-4.94-1.03-7.425-2.78h-.153v5.892h-9.028c-7.543 0-13.657 6.111-13.657 13.65v12.369h60.527v-12.369c0-7.539-6.114-13.65-13.657-13.65z" fill="#fae6ca"/><path d="m144.606 91.701h-7.523v-4.361c0-.558-.31-1.07-.804-1.329s-1.092-.222-1.55.096c-2.378 1.647-4.642 2.482-6.729 2.482-1.991 0-4.199-.843-6.563-2.507-.252-.178-.554-.273-.863-.273h-.153c-.829 0-1.5.671-1.5 1.5v4.392h-7.528c-8.357 0-15.156 6.796-15.156 15.149v12.37c0 .829.671 1.5 1.5 1.5h60.526c.829 0 1.5-.671 1.5-1.5v-12.37c0-8.353-6.799-15.149-15.157-15.149zm12.157 26.019h-57.526v-10.87c0-6.699 5.453-12.149 12.156-12.149h9.028c.829 0 1.5-.671 1.5-1.5v-3.295c4.222 2.252 8.038 2.197 12.162.086v3.209c0 .829.671 1.5 1.5 1.5h9.023c6.703 0 12.157 5.45 12.157 12.149z" fill="#3a312a"/><path d="m144.607 93.197h-2.159l.056.041-9.385 12.441-4.843-3.647-4.843 3.647-9.385-12.441.056-.041h-2.71c-7.543 0-13.657 6.111-13.657 13.65v12.375h60.527v-12.375c-.001-7.539-6.115-13.65-13.657-13.65z" fill="#ef6d7a"/><path d="m144.606 91.697h-2.159c-.592 0-1.1.364-1.337.896l-8.287 10.985-3.646-2.746c-.534-.402-1.271-.402-1.805 0l-3.646 2.746-8.21-10.884c-.212-.597-.777-.998-1.414-.998h-2.71c-8.358 0-15.157 6.796-15.157 15.149v12.375c0 .829.671 1.5 1.5 1.5h60.526c.829 0 1.5-.671 1.5-1.5v-12.375c.002-8.352-6.797-15.148-15.155-15.148zm12.157 26.024h-57.526v-10.875c0-6.699 5.454-12.149 12.157-12.149h1.876l8.966 11.885c.497.662 1.44.793 2.1.295l3.94-2.967 3.941 2.967c.661.498 1.602.366 2.1-.295l8.966-11.885h1.325c6.703 0 12.157 5.45 12.157 12.149v10.875z" fill="#3a312a"/><path clip-rule="evenodd" d="m104.549 53.993c-2.968 0-5.374 2.405-5.374 5.371s2.406 5.371 5.374 5.371 5.374-2.404 5.374-5.371-2.406-5.371-5.374-5.371z" fill="#fae6ca" fill-rule="evenodd"/><path d="m104.549 52.494c-3.79 0-6.874 3.082-6.874 6.871s3.083 6.871 6.874 6.871c3.79 0 6.874-3.083 6.874-6.871s-3.083-6.871-6.874-6.871zm0 10.741c-2.136 0-3.874-1.736-3.874-3.871 0-2.134 1.738-3.871 3.874-3.871s3.874 1.736 3.874 3.871-1.738 3.871-3.874 3.871z" fill="#3a312a"/><path clip-rule="evenodd" d="m151.452 53.993c-2.968 0-5.374 2.405-5.374 5.371s2.406 5.371 5.374 5.371 5.374-2.404 5.374-5.371-2.406-5.371-5.374-5.371z" fill="#fae6ca" fill-rule="evenodd"/><path d="m151.452 52.494c-3.79 0-6.874 3.082-6.874 6.871s3.084 6.871 6.874 6.871 6.874-3.083 6.874-6.871-3.084-6.871-6.874-6.871zm0 10.741c-2.136 0-3.874-1.736-3.874-3.871 0-2.134 1.738-3.871 3.874-3.871s3.874 1.736 3.874 3.871-1.738 3.871-3.874 3.871z" fill="#3a312a"/><path d="m128.001 32.948c-13.156 0-23.822 10.66-23.822 23.809s13.178 33.333 23.822 33.333c11.151 0 23.822-20.184 23.822-33.333s-10.666-23.809-23.822-23.809z" fill="#fae6ca"/><path d="m128 31.448c-13.962 0-25.322 11.354-25.322 25.31 0 13.753 13.582 34.833 25.322 34.833 11.983 0 25.322-20.763 25.322-34.833 0-13.956-11.359-25.31-25.322-25.31zm0 57.142c-9.179 0-22.322-18.743-22.322-31.833 0-12.302 10.014-22.31 22.322-22.31s22.322 10.008 22.322 22.31c0 12.282-12.188 31.833-22.322 31.833z" fill="#3a312a"/><path d="m119.59 54.165c-1.284 0-2.325 1.04-2.325 2.324s1.041 2.324 2.325 2.324 2.325-1.04 2.325-2.324-1.041-2.324-2.325-2.324z" fill="#3a312a"/><path d="m136.411 54.165c-1.284 0-2.325 1.04-2.325 2.324s1.041 2.324 2.325 2.324 2.325-1.04 2.325-2.324-1.041-2.324-2.325-2.324z" fill="#3a312a"/><ellipse cx="114.943" cy="63.397" fill="#f59689" rx="4.005" ry="2.993"/><path d="m141.058 60.405c-2.212 0-4.005 1.34-4.005 2.993s1.793 2.993 4.005 2.993 4.005-1.34 4.005-2.993-1.793-2.993-4.005-2.993z" fill="#f59689"/><path d="m118.128 89.834h6.089v15.584h-6.089z" fill="#87796f" transform="matrix(.799 -.602 .602 .799 -34.352 92.552)"/><path d="m129.493 101.112-9.382-12.443c-.498-.661-1.439-.793-2.1-.295l-4.863 3.663c-.318.24-.528.595-.583.99-.056.394.048.794.288 1.112l9.382 12.443c.295.391.744.597 1.199.597.315 0 .631-.098.901-.302l4.863-3.663c.318-.24.528-.596.583-.99s-.048-.794-.288-1.112zm-5.766 2.467-7.576-10.047 2.467-1.858 7.576 10.047z" fill="#3a312a"/><path d="m127.587 94.581h15.584v6.089h-15.584z" fill="#87796f" transform="matrix(.602 -.799 .799 .602 -24.076 146.944)"/><path d="m143.987 93.027c-.055-.395-.265-.75-.583-.99l-4.863-3.663c-.661-.498-1.601-.366-2.1.295l-9.382 12.443c-.24.318-.343.718-.288 1.112s.265.75.583.99l4.863 3.663c.27.204.587.302.901.302.455 0 .904-.206 1.199-.597l9.382-12.443c.24-.318.343-.718.288-1.112zm-11.163 10.552-2.467-1.858 7.576-10.047 2.467 1.858z" fill="#3a312a"/><path d="m109.074 107.945c-.829 0-1.5.671-1.5 1.5v9.776c0 .829.671 1.5 1.5 1.5s1.5-.671 1.5-1.5v-9.776c0-.829-.671-1.5-1.5-1.5z" fill="#3a312a"/><path d="m147.477 107.945c-.829 0-1.5.671-1.5 1.5v9.776c0 .829.671 1.5 1.5 1.5s1.5-.671 1.5-1.5v-9.776c0-.829-.671-1.5-1.5-1.5z" fill="#3a312a"/><path d="m135.109 70.57c-.771-.289-1.64.102-1.931.878-.47 1.254-2.237 3.121-5.178 3.121-2.514 0-4.175-1.029-5.229-3.24-.356-.749-1.251-1.063-1.999-.709-.748.356-1.066 1.251-.709 1.999 1.564 3.285 4.235 4.95 7.937 4.95 4.183 0 7.072-2.627 7.987-5.068.291-.775-.102-1.64-.878-1.931z" fill="#3a312a"/><path d="m147.601 29.18c-5.005-5.285-12.089-8.582-19.941-8.582-2.937 0-5.764.461-8.413 1.319 2.098 4.864 4.579 9.534 7.957 13.6 1.553 1.864 3.274 3.584 5.095 5.181 1.483 1.319 3.036 2.563 4.613 3.758 5.377 4.08 11.181 7.69 17.283 10.63.6-2.251.918-4.616.918-7.055-.001-7.303-2.854-13.937-7.512-18.851z" fill="#87796f"/><path d="m148.69 28.149c-5.527-5.837-12.996-9.051-21.031-9.051-3.038 0-6.023.468-8.875 1.392-.401.13-.73.424-.904.809s-.178.825-.011 1.213c2.521 5.845 5.121 10.282 8.182 13.965 1.513 1.816 3.282 3.616 5.25 5.342 1.377 1.225 2.916 2.478 4.703 3.832 5.595 4.246 11.496 7.875 17.539 10.787.205.099.428.148.651.148.213 0 .427-.045.626-.137.406-.187.708-.545.823-.977.643-2.41.968-4.913.968-7.441 0-7.433-2.813-14.494-7.921-19.882zm4.465 24.75c-5.273-2.673-10.424-5.91-15.338-9.639-1.725-1.307-3.204-2.512-4.53-3.69-1.859-1.63-3.518-3.317-4.93-5.012-2.597-3.126-4.856-6.866-7.043-11.676 2.06-.521 4.188-.784 6.346-.784 7.203 0 13.898 2.881 18.853 8.115 4.578 4.828 7.099 11.156 7.099 17.818-.001 1.643-.154 3.274-.457 4.868z" fill="#3a312a"/><path d="m127.66 20.598c-2.937 0-5.764.461-8.413 1.319-11.042 3.545-19.034 13.897-19.034 26.114 0 2.583.357 5.082 1.027 7.452 10.829-3.971 21.41-8.741 31.058-14.785 5.442-3.406 10.581-7.214 15.303-11.517-5.005-5.286-12.089-8.583-19.941-8.583z" fill="#87796f"/><path d="m148.69 28.149c-5.527-5.837-12.996-9.051-21.031-9.051-3.038 0-6.023.468-8.872 1.391-12.008 3.855-20.075 14.923-20.075 27.542 0 2.67.364 5.315 1.083 7.86.113.402.389.738.761.928.213.109.447.164.682.164.174 0 .349-.03.517-.092 12.202-4.475 22.452-9.356 31.338-14.922 5.721-3.581 10.942-7.51 15.517-11.68.298-.271.474-.651.489-1.054.016-.402-.132-.793-.409-1.086zm-17.189 11.278c-8.325 5.215-17.895 9.824-29.211 14.067-.384-1.787-.578-3.617-.578-5.463 0-11.31 7.231-21.23 17.996-24.687 2.552-.827 5.227-1.246 7.951-1.246 6.686 0 12.934 2.483 17.759 7.024-4.156 3.66-8.831 7.122-13.917 10.305z" fill="#3a312a"/><path d="m16.5 115.5c0 26.486 21.471 47.957 47.957 47.957h127.085c26.486 0 47.957-21.471 47.957-47.957z" fill="#87796f"/><path d="m239.5 114h-223c-.829 0-1.5.671-1.5 1.5 0 27.271 22.187 49.458 49.458 49.458h11.248c.829 0 1.5-.671 1.5-1.5s-.671-1.5-1.5-1.5h-11.248c-25.115 0-45.639-20.032-46.434-44.958h219.952c-.794 24.925-21.319 44.958-46.434 44.958h-102.248c-.829 0-1.5.671-1.5 1.5s.671 1.5 1.5 1.5h102.248c27.271 0 49.458-22.187 49.458-49.458 0-.829-.671-1.5-1.5-1.5z" fill="#3a312a"/><path d="m47.727 203.306c-.974 11.564-13.031 13.389-13.031 13.389 10.352.487 12.932 14.059 12.932 14.059.221-9.677 13.328-14.202 13.328-14.202-9.819-.587-13.229-13.246-13.229-13.246z" fill="#d5de58"/><path d="m61.045 215.055c-8.61-.515-11.838-12.025-11.87-12.141-.191-.702-.862-1.164-1.583-1.101-.725.066-1.298.642-1.359 1.367-.861 10.215-11.32 11.963-11.761 12.033-.763.115-1.313.79-1.273 1.561.04.77.657 1.384 1.428 1.421 9.033.425 11.505 12.718 11.529 12.842.137.711.759 1.217 1.472 1.217.042 0 .084-.001.126-.005.764-.064 1.356-.693 1.374-1.459.195-8.508 12.198-12.777 12.319-12.819.676-.235 1.092-.914.995-1.623-.099-.709-.683-1.25-1.397-1.293zm-13.572 10.347c-1.357-3.13-3.711-6.908-7.591-8.878 2.933-1.405 6.413-3.913 8.206-8.274 1.552 3.071 4.202 6.881 8.339 8.724-3.01 1.64-6.927 4.406-8.954 8.428z" fill="#3a312a"/><path d="m26.018 220.286c-.689 8.179-9.217 9.47-9.217 9.47 7.322.344 9.147 9.944 9.147 9.944.156-6.844 9.427-10.045 9.427-10.045-6.945-.415-9.357-9.369-9.357-9.369z" fill="#d5de58"/><path d="m35.463 228.158c-5.748-.344-7.96-8.127-7.998-8.263-.19-.703-.861-1.166-1.583-1.103-.726.065-1.299.642-1.36 1.368-.579 6.87-7.651 8.066-7.947 8.113-.763.115-1.313.79-1.273 1.561.04.77.657 1.384 1.428 1.421 6.039.284 7.728 8.644 7.744 8.726.136.712.759 1.22 1.473 1.22.041 0 .083-.001.125-.005.765-.063 1.358-.694 1.376-1.461.13-5.709 8.336-8.634 8.417-8.662.676-.234 1.094-.913.996-1.622-.098-.708-.683-1.25-1.398-1.293zm-9.588 6.797c-.925-1.886-2.341-3.948-4.45-5.281 1.857-1.041 3.7-2.63 4.874-4.917 1.058 1.874 2.656 3.956 4.944 5.225-1.852 1.1-3.992 2.74-5.368 4.973z" fill="#3a312a"/><path d="m26.018 193.629c-.689 8.179-9.217 9.471-9.217 9.471 7.322.344 9.147 9.944 9.147 9.944.156-6.844 9.427-10.045 9.427-10.045-6.945-.416-9.357-9.37-9.357-9.37z" fill="#d5de58"/><path d="m35.463 201.501c-5.769-.345-7.977-8.186-7.998-8.265-.19-.702-.855-1.163-1.582-1.102-.726.065-1.299.642-1.36 1.368-.579 6.871-7.651 8.067-7.947 8.114-.763.115-1.313.79-1.273 1.561.04.77.657 1.384 1.428 1.421 6.039.284 7.728 8.644 7.744 8.726.136.712.759 1.22 1.472 1.22.042 0 .083-.001.125-.005.765-.063 1.358-.694 1.376-1.461.13-5.708 8.336-8.633 8.417-8.661.676-.234 1.094-.913.996-1.622-.098-.71-.683-1.251-1.398-1.294zm-9.589 6.796c-.924-1.886-2.341-3.948-4.449-5.281 1.857-1.041 3.699-2.63 4.873-4.917 1.058 1.874 2.656 3.955 4.944 5.225-1.851 1.1-3.991 2.74-5.368 4.973z" fill="#3a312a"/><path d="m98 163.457h60v29.206h-60z" fill="#87796f"/><path d="m158 161.958h-60c-.829 0-1.5.671-1.5 1.5v29.206c0 .829.671 1.5 1.5 1.5h60c.829 0 1.5-.671 1.5-1.5v-29.206c0-.829-.671-1.5-1.5-1.5zm-1.5 29.206h-57v-26.206h57z" fill="#3a312a"/><ellipse cx="128" cy="205.75" fill="#d6df58" rx="33.586" ry="33.586" transform="matrix(.071 -.998 .998 .071 -86.306 318.842)"/><path d="m128 170.664c-19.347 0-35.086 15.739-35.086 35.086s15.739 35.086 35.086 35.086 35.086-15.739 35.086-35.086-15.739-35.086-35.086-35.086zm0 67.171c-17.692 0-32.086-14.394-32.086-32.086s14.394-32.086 32.086-32.086 32.086 14.394 32.086 32.086-14.394 32.086-32.086 32.086z" fill="#3a312a"/><path d="m131.203 201.975c-4.861-1.83-6.863-3.03-6.863-4.918 0-1.6 1.201-3.202 4.918-3.202 4.117 0 6.747 1.315 8.234 1.944l1.659-6.461c-1.887-.916-4.461-1.717-8.292-1.887v-5.033h-5.604v5.432c-6.119 1.201-9.664 5.147-9.664 10.179 0 5.547 4.174 8.407 10.293 10.465 4.232 1.43 6.062 2.803 6.062 4.975 0 2.288-2.231 3.546-5.49 3.546-3.717 0-7.091-1.201-9.493-2.516l-1.716 6.69c2.173 1.258 5.89 2.287 9.721 2.459v5.432h5.604v-5.833c6.576-1.143 10.179-5.489 10.179-10.578.001-5.146-2.744-8.292-9.548-10.694z" fill="#87796f"/><path d="m131.731 200.572c-4.184-1.575-5.891-2.593-5.891-3.514 0-1.481 2.142-1.702 3.419-1.702 3.444 0 5.715.987 7.219 1.64l.431.186c.403.17.858.157 1.25-.037.391-.193.679-.548.788-.971l1.658-6.461c.177-.691-.157-1.412-.799-1.723-2.154-1.044-4.601-1.683-7.446-1.94v-3.63c0-.829-.671-1.5-1.5-1.5h-5.604c-.829 0-1.5.671-1.5 1.5v4.239c-5.995 1.593-9.664 5.864-9.664 11.372 0 7.162 6.047 10.114 11.313 11.886 4.432 1.498 5.042 2.593 5.042 3.554 0 1.948-3.324 2.046-3.99 2.046-3.927 0-7.182-1.461-8.773-2.332-.406-.222-.893-.245-1.317-.06-.425.185-.741.555-.856 1.003l-1.716 6.69c-.167.651.12 1.334.702 1.671 2.222 1.286 5.563 2.228 8.973 2.557v4.035c0 .829.671 1.5 1.5 1.5h5.604c.829 0 1.5-.671 1.5-1.5v-4.615c6.227-1.529 10.18-6.052 10.18-11.796-.002-5.877-3.157-9.499-10.523-12.098zm-1.415 21.198c-.719.125-1.243.749-1.243 1.478v4.333h-2.604v-3.932c0-.802-.631-1.462-1.433-1.499-2.892-.13-5.906-.797-8.037-1.751l.959-3.741c2.055.903 5.045 1.858 8.498 1.858 4.246 0 6.99-1.981 6.99-5.046 0-3.518-3.404-5.153-7.084-6.396-6.499-2.186-9.271-4.891-9.271-9.043 0-4.414 3.16-7.668 8.453-8.707.704-.138 1.211-.755 1.211-1.472v-3.932h2.604v3.533c0 .803.632 1.463 1.433 1.499 2.535.113 4.704.524 6.588 1.253l-.908 3.537c-1.655-.655-4.02-1.385-7.214-1.385-4.732 0-6.419 2.429-6.419 4.702 0 3.125 3.396 4.651 7.863 6.333 7.096 2.504 8.549 5.521 8.549 9.279.001 4.654-3.423 8.141-8.935 9.099z" fill="#3a312a"/><path d="m237.438 173.908c-.002-3.11-2.524-5.628-5.634-5.626h-.073c-3.11.002-5.628 2.524-5.626 5.633l-.002-3.851c-.002-3.11-2.524-5.628-5.634-5.626h-.073c-3.11.002-5.628 2.524-5.626 5.634l-.003-3.851c-.002-3.11-2.524-5.628-5.634-5.626h-.073c-3.11.002-5.628 2.524-5.626 5.634l.004 6.407-.005-.005-.016-24.005c-.002-3.11-2.524-5.628-5.634-5.626h-.073c-3.11.002-5.628 2.524-5.626 5.634l.025 37.278c.002 2.17-1.756 3.93-3.926 3.931l-12.799.009c-4.383.003-7.934 3.559-7.931 7.936.001 2.191.89 4.173 2.326 5.607 1.441 1.434 3.424 2.32 5.616 2.318l9.903-.007c4.08-.003 7.713 2.593 9.031 6.458l2.63 7.699c.235-.031.475-.047.72-.047l35.887-.024c.109 0 .214.005.318.005l.421-1.665c2.045-8.068 3.094-16.354 3.14-24.676 0-.068.005-.13.005-.198z" fill="#fae6ca"/><path d="m238.938 173.908c-.001-1.905-.744-3.695-2.091-5.041-1.346-1.344-3.135-2.084-5.11-2.084h-.006c-1.639.001-3.149.558-4.354 1.491-.315-1.219-.951-2.337-1.865-3.25-1.347-1.344-3.136-2.084-5.111-2.084h-.005c-1.597.001-3.114.523-4.356 1.487-.315-1.217-.951-2.333-1.864-3.245-1.347-1.345-3.136-2.085-5.112-2.085h-.004c-1.541.001-2.968.493-4.134 1.328l-.008-11.797c-.003-3.93-3.2-7.125-7.129-7.125h-.078s0 0-.001 0c-3.931.002-7.127 3.203-7.125 7.135l.025 37.278c0 .649-.252 1.259-.71 1.718s-1.068.712-1.717.712l-12.799.008c-2.52.001-4.889.984-6.67 2.768-1.781 1.783-2.761 4.151-2.76 6.669.002 2.521.984 4.889 2.767 6.67 1.786 1.777 4.154 2.755 6.669 2.755h.006l9.903-.007h.006c3.439 0 6.495 2.187 7.605 5.443l2.629 7.7c.209.613.785 1.015 1.418 1.015.067 0 .134-.004.202-.014.17-.023.345-.034.521-.034l35.886-.023.318.005c.687 0 1.286-.466 1.454-1.132l.421-1.664c2.067-8.155 3.139-16.579 3.188-25.083.001-.021.004-.141.004-.162zm-2.992 19.543c-.046 8.215-1.087 16.396-3.094 24.316l-.134.528-34.703.023-2.266-6.636c-1.524-4.472-5.72-7.475-10.444-7.475h-.008l-9.903.007h-.004c-1.716 0-3.333-.668-4.551-1.88-1.215-1.213-1.884-2.828-1.885-4.547-.001-1.717.667-3.332 1.882-4.547 1.215-1.216 2.831-1.887 4.55-1.888l12.799-.008c2.994-.002 5.427-2.439 5.425-5.433l-.025-37.278c0-1.104.428-2.141 1.208-2.921.779-.781 1.816-1.211 2.919-1.211h.076c2.276 0 4.128 1.851 4.13 4.127l.016 24.004c0 .397.164.784.445 1.065.428.429 1.073.557 1.635.325.561-.232.926-.78.925-1.387l-.004-6.407c-.002-2.277 1.85-4.131 4.2-4.133h.002c1.102 0 2.139.429 2.919 1.208.781.779 1.211 1.816 1.211 2.919l.002 3.851c0 .828.672 1.499 1.5 1.499h.001c.829 0 1.5-.672 1.499-1.501-.001-1.104.428-2.141 1.207-2.921.78-.78 1.816-1.211 2.993-1.211h.003c1.102 0 2.139.429 2.919 1.208.781.779 1.211 1.816 1.211 2.919l.002 3.851c.001.828.672 1.499 1.5 1.499h.001c.829 0 1.5-.672 1.499-1.501 0-1.104.428-2.141 1.208-2.921.779-.78 1.816-1.21 2.993-1.211h.003c1.102 0 2.138.429 2.917 1.207.781.78 1.211 1.816 1.211 2.92l.012 19.389c.001.017-.002.134-.002.152z" fill="#3a312a"/><path d="m239.491 225.711c-.002-3.271-2.656-5.921-5.927-5.919l-13.266.009-10.911.007-11.709.008c-3.271.002-5.921 2.656-5.919 5.927l.009 13.595 12.769-.009 13.592-.009 21.371-.014z" fill="#87796f"/><path d="m240.991 225.71c-.003-4.092-3.333-7.418-7.424-7.418h-.004l-35.885.024c-1.983.001-3.847.774-5.247 2.177-1.401 1.403-2.172 3.268-2.17 5.25l.009 13.596c0 .398.159.779.44 1.061.281.281.663.438 1.06.438h.001l12.769-.009c.829 0 1.5-.672 1.499-1.501 0-.828-.672-1.499-1.5-1.499 0 0 0 0-.001 0l-11.269.008-.008-12.096c-.001-1.182.458-2.292 1.293-3.128s1.945-1.297 3.127-1.297l35.885-.024h.003c2.438 0 4.422 1.982 4.424 4.42l.008 12.095-19.871.013c-.829 0-1.499.672-1.499 1.501 0 .828.672 1.499 1.5 1.499h.001l21.371-.014c.829 0 1.5-.672 1.499-1.501z" fill="#3a312a"/><path d="m229.591 225.086c-2.467.002-4.466 2.003-4.465 4.471.002 2.467 2.003 4.466 4.471 4.465 2.467-.001 4.466-2.003 4.465-4.471-.002-2.468-2.003-4.466-4.471-4.465z" fill="#d6df58"/><path d="m233.811 225.331c-1.127-1.125-2.623-1.745-4.216-1.745h-.005c-3.29.002-5.966 2.681-5.964 5.972.002 3.29 2.679 5.964 5.968 5.964h.003c3.291-.002 5.966-2.682 5.964-5.972 0-1.594-.621-3.092-1.75-4.219zm-4.215 7.191h-.002c-1.636 0-2.967-1.33-2.968-2.966-.001-1.637 1.33-2.969 2.966-2.97h.002c.792 0 1.536.308 2.097.868s.87 1.305.871 2.098c.001 1.636-1.33 2.969-2.966 2.97z" fill="#3a312a"/><path d="m172.54 161.96h18.05v-3.65c-5.55 2.35-11.65 3.65-18.05 3.65z" fill="#695b51"/><path d="m218.98 117c0 .05 0 .11-.01.16-.44 12.38-5.74 23.54-14.05 31.63l.01 11.21c18.3-5.52 31.87-22.04 33-41.84.02-.33.03-.66.04-1 .01-.05.01-.11.01-.16z" fill="#695b51"/><path d="m172.54 161.96h18.05v-3.65c-5.55 2.35-11.65 3.65-18.05 3.65z" fill="#695b51"/></svg>