<svg id="Layer_1" enable-background="new 0 0 256 256" height="512" viewBox="0 0 256 256" width="512" xmlns="http://www.w3.org/2000/svg"><path d="m47.612 35.465c-.974 11.564-13.031 13.39-13.031 13.39 10.352.487 12.932 14.059 12.932 14.059.221-9.677 13.328-14.202 13.328-14.202-9.819-.587-13.229-13.247-13.229-13.247z" fill="#d6df58"/><path d="m60.931 47.214c-8.61-.515-11.839-12.025-11.87-12.141-.191-.702-.853-1.165-1.584-1.102-.725.066-1.298.642-1.359 1.367-.86 10.215-11.319 11.963-11.761 12.033-.763.115-1.313.79-1.273 1.561.04.77.657 1.384 1.428 1.421 9.033.425 11.505 12.718 11.528 12.842.138.711.76 1.217 1.473 1.217.042 0 .084-.001.126-.005.765-.064 1.357-.693 1.375-1.459.193-8.509 12.198-12.777 12.319-12.819.675-.235 1.092-.914.994-1.623s-.682-1.249-1.396-1.292zm-13.574 10.348c-1.357-3.131-3.711-6.908-7.591-8.878 2.933-1.405 6.412-3.913 8.206-8.274 1.552 3.071 4.201 6.881 8.339 8.724-3.009 1.639-6.926 4.406-8.954 8.428z" fill="#3a312a"/><path d="m25.902 52.446c-.689 8.179-9.217 9.471-9.217 9.471 7.322.344 9.147 9.944 9.147 9.944.156-6.844 9.427-10.045 9.427-10.045-6.945-.416-9.357-9.37-9.357-9.37z" fill="#d6df58"/><path d="m35.349 60.318c-5.77-.345-7.977-8.186-7.999-8.265-.189-.702-.865-1.16-1.581-1.102-.726.065-1.3.642-1.361 1.368-.579 6.871-7.651 8.067-7.947 8.114-.763.115-1.313.79-1.273 1.561.04.77.657 1.384 1.428 1.421 6.039.284 7.729 8.644 7.744 8.726.136.712.759 1.22 1.473 1.22.041 0 .083-.001.125-.005.765-.063 1.358-.694 1.376-1.461.13-5.709 8.335-8.633 8.416-8.662.677-.234 1.094-.913.997-1.622-.1-.709-.684-1.25-1.398-1.293zm-9.59 6.796c-.924-1.886-2.341-3.948-4.45-5.281 1.857-1.041 3.7-2.63 4.874-4.917 1.058 1.874 2.656 3.956 4.944 5.225-1.851 1.1-3.991 2.74-5.368 4.973z" fill="#3a312a"/><path d="m25.902 25.788c-.689 8.179-9.217 9.471-9.217 9.471 7.322.344 9.147 9.944 9.147 9.944.156-6.844 9.427-10.045 9.427-10.045-6.945-.416-9.357-9.37-9.357-9.37z" fill="#d6df58"/><path d="m35.349 33.66c-5.77-.345-7.977-8.186-7.999-8.265-.189-.702-.865-1.158-1.581-1.102-.726.065-1.3.642-1.361 1.368-.579 6.871-7.651 8.067-7.947 8.114-.763.115-1.313.79-1.273 1.561.04.77.657 1.384 1.428 1.421 6.039.284 7.729 8.644 7.744 8.726.136.712.759 1.22 1.473 1.22.041 0 .083-.001.125-.005.765-.063 1.358-.694 1.376-1.461.13-5.709 8.336-8.634 8.416-8.662.677-.234 1.094-.913.997-1.622-.1-.708-.684-1.25-1.398-1.293zm-9.59 6.797c-.924-1.886-2.341-3.948-4.45-5.281 1.857-1.041 3.7-2.63 4.874-4.917 1.058 1.874 2.656 3.956 4.944 5.225-1.851 1.099-3.991 2.74-5.368 4.973z" fill="#3a312a"/><path d="m127.885 69.826c-24.323 0-46.814 8.142-65.104 18.948l-11.61 7.582c-21.127 15.206-34.286 32.841-34.286 40.97 0 17.234 49.697 67.5 111 67.5s111-50.266 111-67.5c0-15.798-49.697-67.5-111-67.5z" fill="#fce8cb"/><path d="m127.885 68.326c-27.642 0-51.076 10.417-65.867 19.157-.714.421-.95 1.341-.528 2.055.421.714 1.344.95 2.054.528 14.47-8.549 37.378-18.74 64.342-18.74 35.223 0 63.734 17.249 77.596 27.531 9.226 6.844 17.574 14.725 23.507 22.191 5.337 6.716 8.397 12.649 8.397 16.278 0 7.575-11.18 23.819-31.897 39.003-13.759 10.083-42.135 26.997-77.603 26.997s-63.844-16.915-77.603-26.997c-20.718-15.184-31.897-31.428-31.897-39.003 0-7.466 12.87-24.787 33.662-39.752.673-.484.825-1.421.342-2.094-.485-.672-1.423-.824-2.094-.341-19.902 14.324-34.91 32.461-34.91 42.187 0 18.901 51.099 69 112.5 69s112.5-50.099 112.5-69c-.001-16.905-50.618-69-112.501-69z" fill="#3a312a"/><ellipse cx="127.884" cy="137.326" fill="#87796f" rx="56.48" ry="56.48" transform="matrix(.383 -.924 .924 .383 -47.927 202.923)"/><path d="m127.885 79.346c-31.97 0-57.979 26.009-57.979 57.979s26.01 57.979 57.979 57.979 57.979-26.009 57.979-57.979-26.01-57.979-57.979-57.979zm0 112.959c-30.315 0-54.979-24.664-54.979-54.979s24.664-54.979 54.979-54.979 54.979 24.664 54.979 54.979-24.664 54.979-54.979 54.979z" fill="#3a312a"/><circle cx="144.885" cy="120.326" fill="#fce8cb" r="12.5"/><path d="m144.885 106.326c-7.72 0-14 6.28-14 14s6.28 14 14 14 14-6.28 14-14-6.281-14-14-14zm0 25c-6.065 0-11-4.935-11-11s4.935-11 11-11 11 4.935 11 11-4.935 11-11 11z" fill="#3a312a"/><path d="m191.07 133.721c-15.571 0-29.41 7.384-38.231 18.833l-6.887 12.318c-2.015 5.315-3.127 11.074-3.127 17.095 0 26.645 21.6 48.246 48.246 48.246 26.645 0 48.245-21.6 48.245-48.246s-21.601-48.246-48.246-48.246z" fill="#d7e057"/><path d="m191.069 132.221c-15.543 0-29.911 7.077-39.419 19.417-.505.656-.383 1.598.273 2.104s1.598.383 2.104-.272c8.936-11.597 22.437-18.248 37.042-18.248 25.776 0 46.746 20.97 46.746 46.746s-20.97 46.746-46.746 46.746c-25.775 0-46.745-20.97-46.745-46.746 0-5.688 1.02-11.261 3.03-16.563.294-.774-.096-1.641-.87-1.934-.778-.292-1.641.096-1.935.871-2.141 5.644-3.226 11.574-3.226 17.627 0 27.43 22.315 49.746 49.745 49.746s49.746-22.316 49.746-49.746-22.315-49.748-49.745-49.748z" fill="#3a312a"/><path d="m195.67 176.545c-6.982-2.628-9.858-4.353-9.858-7.064 0-2.299 1.725-4.6 7.065-4.6 5.914 0 9.693 1.889 11.828 2.793l2.383-9.281c-2.711-1.315-6.408-2.466-11.911-2.711v-7.229h-8.05v7.803c-8.789 1.725-13.882 7.393-13.882 14.622 0 7.969 5.996 12.076 14.786 15.033 6.079 2.054 8.708 4.026 8.708 7.146 0 3.287-3.204 5.094-7.886 5.094-5.34 0-10.186-1.725-13.636-3.614l-2.464 9.61c3.122 1.807 8.461 3.285 13.964 3.532v7.803h8.05v-8.379c9.447-1.641 14.623-7.885 14.623-15.196-.002-7.394-3.945-11.912-13.72-15.362z" fill="#87796f"/><path d="m196.198 175.141c-6.561-2.47-8.886-3.951-8.886-5.661 0-2.697 3.486-3.1 5.564-3.1 5.084 0 8.422 1.45 10.631 2.41l.612.264c.404.17.859.156 1.25-.037.392-.193.68-.548.788-.971l2.383-9.281c.177-.691-.156-1.411-.799-1.723-3.169-1.538-6.801-2.449-11.065-2.774v-5.817c0-.829-.672-1.5-1.5-1.5h-8.05c-.828 0-1.5.671-1.5 1.5v6.598c-8.598 2.108-13.883 8.085-13.883 15.828 0 9.871 8.448 13.979 15.806 16.454 6.381 2.156 7.688 3.848 7.688 5.725 0 3.334-4.889 3.594-6.387 3.594-5.786 0-10.576-2.149-12.915-3.43-.408-.222-.893-.244-1.317-.06-.426.185-.741.555-.856 1.003l-2.465 9.61c-.167.651.12 1.334.702 1.671 3.243 1.877 8.204 3.232 13.216 3.642v6.396c0 .829.672 1.5 1.5 1.5h8.05c.828 0 1.5-.671 1.5-1.5v-7.148c8.927-2.003 14.622-8.342 14.622-16.427.001-8.118-4.401-13.135-14.689-16.766zm-1.689 30.483c-.719.125-1.243.749-1.243 1.478v6.879h-5.05v-6.303c0-.802-.631-1.462-1.433-1.499-4.459-.2-9.127-1.279-12.285-2.806l1.707-6.656c2.888 1.352 7.388 2.932 12.646 2.932 5.79 0 9.387-2.526 9.387-6.594 0-4.383-3.889-6.594-9.729-8.568-9.648-3.245-13.765-7.316-13.765-13.611 0-6.677 4.737-11.593 12.672-13.151.703-.138 1.211-.754 1.211-1.472v-6.303h5.05v5.729c0 .802.632 1.463 1.434 1.499 3.958.176 7.313.853 10.211 2.062l-1.634 6.363c-2.345-.979-5.876-2.224-10.811-2.224-7.947 0-8.564 4.669-8.564 6.1 0 3.735 3.492 5.707 10.858 8.479 9.151 3.23 12.717 7.141 12.717 13.946 0 7.03-5.127 12.286-13.379 13.72z" fill="#3a312a"/><path d="m191.074 135.226c-3.25 0-6.43.33-9.5.97 21.23 4.4 37.24 23.25 37.24 45.77 0 22.53-16.01 41.38-37.24 45.78 3.07.64 6.25.97 9.5.97 25.77 0 46.74-20.97 46.74-46.75 0-25.77-20.97-46.74-46.74-46.74z" fill="#b9c239"/></svg>