<svg id="Layer_1" enable-background="new 0 0 256 256" height="512" viewBox="0 0 256 256" width="512" xmlns="http://www.w3.org/2000/svg"><path d="m47.953 26.554c-.974 11.564-13.031 13.389-13.031 13.389 10.352.487 12.932 14.059 12.932 14.059.221-9.677 13.327-14.202 13.327-14.202-9.818-.587-13.228-13.246-13.228-13.246z" fill="#d5de58"/><path d="m61.271 38.303c-8.61-.515-11.839-12.025-11.871-12.141-.191-.703-.858-1.168-1.583-1.101-.725.066-1.298.642-1.359 1.367-.86 10.215-11.32 11.963-11.761 12.033-.763.115-1.313.79-1.273 1.561.04.77.657 1.384 1.428 1.421 9.033.425 11.505 12.718 11.529 12.842.137.711.759 1.217 1.472 1.217.042 0 .084-.001.126-.005.764-.064 1.356-.693 1.374-1.459.195-8.509 12.198-12.777 12.319-12.819.676-.235 1.092-.914.995-1.623-.098-.709-.682-1.25-1.396-1.293zm-13.573 10.347c-1.357-3.13-3.711-6.908-7.591-8.878 2.933-1.405 6.413-3.913 8.207-8.274 1.551 3.071 4.202 6.881 8.339 8.724-3.01 1.64-6.928 4.406-8.955 8.428z" fill="#3a312a"/><path d="m26.243 43.534c-.689 8.179-9.217 9.47-9.217 9.47 7.322.344 9.147 9.944 9.147 9.944.156-6.844 9.427-10.045 9.427-10.045-6.945-.415-9.357-9.369-9.357-9.369z" fill="#d5de58"/><path d="m35.689 51.406c-5.77-.345-7.977-8.185-7.999-8.264-.19-.702-.855-1.165-1.582-1.102-.726.065-1.299.642-1.36 1.368-.579 6.871-7.651 8.067-7.947 8.114-.763.115-1.313.79-1.273 1.561.04.77.657 1.384 1.428 1.421 6.039.284 7.728 8.644 7.744 8.726.135.712.759 1.22 1.472 1.22.042 0 .083-.001.125-.005.765-.063 1.358-.694 1.376-1.461.13-5.708 8.336-8.633 8.417-8.662.676-.234 1.094-.913.996-1.622-.098-.71-.682-1.251-1.397-1.294zm-9.589 6.796c-.924-1.886-2.341-3.948-4.45-5.281 1.857-1.041 3.699-2.63 4.874-4.917 1.058 1.874 2.655 3.955 4.944 5.225-1.851 1.101-3.992 2.74-5.368 4.973z" fill="#3a312a"/><path d="m26.243 16.876c-.689 8.179-9.217 9.471-9.217 9.471 7.322.344 9.147 9.944 9.147 9.944.156-6.844 9.427-10.045 9.427-10.045-6.945-.415-9.357-9.37-9.357-9.37z" fill="#d5de58"/><path d="m35.689 24.749c-5.77-.345-7.977-8.186-7.999-8.265-.19-.702-.855-1.164-1.582-1.102-.726.065-1.299.642-1.36 1.368-.579 6.871-7.651 8.067-7.947 8.114-.763.115-1.313.79-1.273 1.561.04.77.657 1.384 1.428 1.421 6.039.284 7.728 8.644 7.744 8.726.135.712.759 1.22 1.473 1.22.041 0 .083-.001.125-.005.765-.063 1.358-.694 1.376-1.461.13-5.709 8.336-8.633 8.417-8.662.677-.234 1.094-.913.996-1.622-.099-.709-.683-1.25-1.398-1.293zm-9.589 6.796c-.925-1.886-2.341-3.948-4.45-5.281 1.857-1.041 3.7-2.63 4.874-4.917 1.057 1.874 2.655 3.956 4.944 5.225-1.851 1.1-3.992 2.74-5.368 4.973z" fill="#3a312a"/><path d="m90.656 223.987h-66.886c-4.228 0-7.656 3.427-7.656 7.656v.289c0 4.228 3.427 7.655 7.655 7.655h66.886c4.228 0 7.656-3.427 7.656-7.656v-.288c.001-4.229-3.427-7.656-7.655-7.656z" fill="#d6df58"/><path d="m90.656 222.487h-66.886c-5.048 0-9.155 4.107-9.155 9.155v.289c0 5.048 4.107 9.155 9.155 9.155h66.886c5.048 0 9.155-4.107 9.155-9.155v-.289c.001-5.048-4.106-9.155-9.155-9.155zm6.156 9.444c0 3.394-2.761 6.155-6.155 6.155h-66.887c-3.394 0-6.155-2.761-6.155-6.155v-.289c0-3.394 2.761-6.155 6.155-6.155h66.886c3.394 0 6.155 2.761 6.155 6.155v.289z" fill="#3a312a"/><path d="m90.656 208.387h-66.886c-4.228 0-7.656 3.427-7.656 7.656v.289c0 4.228 3.427 7.655 7.655 7.655h66.886c4.228 0 7.656-3.427 7.656-7.656v-.288c.001-4.228-3.427-7.656-7.655-7.656z" fill="#d6df58"/><path d="m90.656 206.887h-66.886c-5.048 0-9.155 4.107-9.155 9.155v.289c0 5.048 4.107 9.156 9.155 9.156h66.886c5.048 0 9.155-4.107 9.155-9.156v-.289c.001-5.048-4.106-9.155-9.155-9.155zm6.156 9.444c0 3.395-2.761 6.156-6.155 6.156h-66.887c-3.394 0-6.155-2.761-6.155-6.156v-.289c0-3.394 2.761-6.155 6.155-6.155h66.886c3.394 0 6.155 2.761 6.155 6.155v.289z" fill="#3a312a"/><path d="m90.656 192.788h-66.886c-4.228 0-7.656 3.428-7.656 7.656v.289c0 4.228 3.427 7.655 7.655 7.655h66.886c4.228 0 7.656-3.427 7.656-7.655v-.289c.001-4.229-3.427-7.656-7.655-7.656z" fill="#d6df58"/><path d="m90.656 191.288h-66.886c-5.048 0-9.155 4.107-9.155 9.156v.289c0 5.048 4.107 9.155 9.155 9.155h66.886c5.048 0 9.155-4.107 9.155-9.155v-.289c.001-5.049-4.106-9.156-9.155-9.156zm6.156 9.444c0 3.394-2.761 6.155-6.155 6.155h-66.887c-3.394 0-6.155-2.761-6.155-6.155v-.289c0-3.395 2.761-6.156 6.155-6.156h66.886c3.394 0 6.155 2.761 6.155 6.156v.289z" fill="#3a312a"/><path d="m90.656 177.188h-66.886c-4.228 0-7.656 3.427-7.656 7.656v.289c0 4.228 3.427 7.655 7.655 7.655h66.886c4.228 0 7.656-3.427 7.656-7.655v-.288c.001-4.229-3.427-7.657-7.655-7.657z" fill="#d6df58"/><path d="m90.656 175.688h-66.886c-5.048 0-9.155 4.107-9.155 9.155v.289c0 5.048 4.107 9.155 9.155 9.155h66.886c5.048 0 9.155-4.107 9.155-9.155v-.289c.001-5.048-4.106-9.155-9.155-9.155zm6.156 9.444c0 3.394-2.761 6.155-6.155 6.155h-66.887c-3.394 0-6.155-2.761-6.155-6.155v-.289c0-3.394 2.761-6.155 6.155-6.155h66.886c3.394 0 6.155 2.761 6.155 6.155v.289z" fill="#3a312a"/><path d="m90.656 161.589h-66.886c-4.228 0-7.656 3.427-7.656 7.655v.289c0 4.228 3.427 7.655 7.655 7.655h66.886c4.228 0 7.656-3.427 7.656-7.656v-.288c.001-4.228-3.427-7.655-7.655-7.655z" fill="#d6df58"/><path d="m90.656 160.089h-39.322c-.829 0-1.5.671-1.5 1.5s.671 1.5 1.5 1.5h39.322c3.394 0 6.155 2.761 6.155 6.155v.289c0 3.395-2.761 6.156-6.155 6.156h-66.886c-3.394 0-6.155-2.761-6.155-6.156v-.289c0-3.394 2.761-6.155 6.155-6.155h14.013c.829 0 1.5-.671 1.5-1.5s-.671-1.5-1.5-1.5h-14.013c-5.048 0-9.155 4.107-9.155 9.155v.289c0 5.048 4.107 9.156 9.155 9.156h66.886c5.048 0 9.155-4.107 9.155-9.156v-.289c.001-5.048-4.106-9.155-9.155-9.155z" fill="#3a312a"/><path d="m90.656 145.989h-66.886c-4.228 0-7.656 3.427-7.656 7.656v.288c0 4.228 3.427 7.655 7.655 7.655h66.886c4.228 0 7.656-3.428 7.656-7.656v-.288c.001-4.227-3.427-7.655-7.655-7.655z" fill="#d6df58"/><path d="m90.656 144.489h-66.886c-5.048 0-9.155 4.107-9.155 9.156v.289c0 5.048 4.107 9.155 9.155 9.155h14.013c.829 0 1.5-.671 1.5-1.5s-.671-1.5-1.5-1.5h-14.013c-3.394 0-6.155-2.761-6.155-6.155v-.289c0-3.395 2.761-6.156 6.155-6.156h66.886c3.394 0 6.155 2.761 6.155 6.156v.289c0 3.394-2.761 6.155-6.155 6.155h-39.322c-.829 0-1.5.671-1.5 1.5s.671 1.5 1.5 1.5h39.322c5.048 0 9.155-4.107 9.155-9.155v-.289c.001-5.048-4.106-9.156-9.155-9.156z" fill="#3a312a"/><ellipse cx="151.297" cy="198.64" fill="#d6df58" rx="40.946" ry="40.946" transform="matrix(.383 -.924 .924 .383 -90.121 262.404)"/><path d="m151.297 156.194c-23.405 0-42.446 19.042-42.446 42.446s19.041 42.446 42.446 42.446 42.446-19.041 42.446-42.446-19.041-42.446-42.446-42.446zm0 81.892c-21.75 0-39.446-17.695-39.446-39.446s17.695-39.446 39.446-39.446 39.446 17.695 39.446 39.446-17.696 39.446-39.446 39.446z" fill="#3a312a"/><path d="m156.165 194.01c-5.964-2.244-8.419-3.718-8.419-6.033 0-1.964 1.473-3.929 6.034-3.929 5.051 0 8.278 1.613 10.102 2.385l2.035-7.927c-2.316-1.123-5.473-2.106-10.173-2.316v-6.174h-6.875v6.665c-7.507 1.473-11.856 6.314-11.856 12.488 0 6.806 5.121 10.314 12.628 12.839 5.192 1.754 7.437 3.439 7.437 6.103 0 2.807-2.737 4.35-6.735 4.35-4.561 0-8.699-1.473-11.646-3.086l-2.105 8.208c2.666 1.543 7.226 2.806 11.926 3.017v6.664h6.875v-7.156c8.068-1.402 12.488-6.734 12.488-12.979 0-6.314-3.368-10.173-11.716-13.119z" fill="#87796f"/><path d="m156.693 192.605c-5.429-2.043-7.448-3.298-7.448-4.629 0-2.113 2.841-2.428 4.534-2.428 4.297 0 7.124 1.228 8.994 2.041l.523.226c.402.17.859.157 1.25-.037.392-.193.679-.548.788-.971l2.035-7.927c.178-.691-.156-1.412-.798-1.723-2.683-1.301-5.746-2.082-9.327-2.375v-4.766c0-.829-.671-1.5-1.5-1.5h-6.875c-.829 0-1.5.671-1.5 1.5v5.464c-7.348 1.861-11.857 7.019-11.857 13.688 0 8.57 7.294 12.123 13.648 14.26 5.325 1.8 6.417 3.173 6.417 4.682 0 2.645-4.007 2.851-5.235 2.851-4.893 0-8.945-1.818-10.926-2.902-.407-.223-.893-.245-1.317-.06-.425.185-.741.555-.856 1.003l-2.104 8.208c-.167.651.12 1.334.702 1.671 2.752 1.593 6.934 2.75 11.177 3.122v5.261c0 .829.671 1.5 1.5 1.5h6.875c.829 0 1.5-.671 1.5-1.5v-5.931c7.63-1.775 12.488-7.242 12.488-14.204 0-7.041-3.803-11.387-12.688-14.524zm-1.557 26.024c-.719.125-1.243.749-1.243 1.478v5.656h-3.875v-5.165c0-.802-.631-1.462-1.433-1.499-3.707-.167-7.579-1.047-10.245-2.298l1.348-5.256c2.493 1.139 6.267 2.415 10.654 2.415 5.08 0 8.235-2.242 8.235-5.851 0-4.101-4.065-6.04-8.458-7.525-8.135-2.736-11.606-6.15-11.606-11.417 0-5.59 3.979-9.708 10.646-11.016.704-.138 1.211-.755 1.211-1.472v-5.165h3.875v4.674c0 .802.631 1.463 1.433 1.499 3.275.146 6.06.694 8.472 1.672l-1.285 5.006c-2.018-.827-4.989-1.819-9.084-1.819-6.991 0-7.534 4.155-7.534 5.428 0 3.623 3.892 5.368 9.42 7.448 7.711 2.722 10.715 6.004 10.715 11.706-.001 5.89-4.31 10.296-11.246 11.501z" fill="#3a312a"/><ellipse cx="57.213" cy="105.043" fill="#d6df58" rx="40.946" ry="40.946" transform="matrix(.383 -.924 .924 .383 -61.729 117.703)"/><path d="m57.213 62.597c-23.405 0-42.446 19.042-42.446 42.446s19.042 42.446 42.446 42.446c23.405 0 42.446-19.041 42.446-42.446s-19.041-42.446-42.446-42.446zm0 81.892c-21.751 0-39.446-17.695-39.446-39.446s17.695-39.446 39.446-39.446c21.75 0 39.446 17.695 39.446 39.446s-17.695 39.446-39.446 39.446z" fill="#3a312a"/><path d="m62.081 100.413c-5.964-2.244-8.419-3.718-8.419-6.033 0-1.963 1.473-3.928 6.034-3.928 5.051 0 8.278 1.613 10.102 2.385l2.035-7.927c-2.316-1.123-5.473-2.106-10.173-2.316v-6.174h-6.876v6.664c-7.507 1.473-11.856 6.314-11.856 12.488 0 6.806 5.121 10.314 12.628 12.839 5.192 1.754 7.437 3.439 7.437 6.103 0 2.807-2.737 4.35-6.735 4.35-4.561 0-8.699-1.473-11.646-3.086l-2.105 8.208c2.666 1.543 7.226 2.806 11.926 3.017v6.665h6.875v-7.156c8.068-1.402 12.488-6.734 12.488-12.978.001-6.315-3.367-10.174-11.715-13.121z" fill="#87796f"/><path d="m62.61 99.009c-5.429-2.043-7.448-3.298-7.448-4.629 0-2.113 2.84-2.429 4.534-2.429 4.297 0 7.124 1.228 8.994 2.041l.524.226c.403.17.859.157 1.25-.037.392-.193.679-.548.788-.971l2.035-7.927c.177-.691-.157-1.411-.798-1.723-2.682-1.301-5.745-2.082-9.328-2.375v-4.766c0-.829-.671-1.5-1.5-1.5h-6.875c-.829 0-1.5.671-1.5 1.5v5.464c-7.348 1.861-11.857 7.019-11.857 13.688 0 8.57 7.295 12.123 13.648 14.26 5.325 1.8 6.417 3.173 6.417 4.682 0 2.645-4.007 2.851-5.235 2.851-4.894 0-8.946-1.818-10.926-2.902-.406-.222-.893-.245-1.317-.06-.425.185-.741.555-.856 1.003l-2.104 8.208c-.167.651.12 1.334.702 1.671 2.752 1.593 6.934 2.75 11.178 3.122v5.261c0 .829.671 1.5 1.5 1.5h6.876c.829 0 1.5-.671 1.5-1.5v-5.93c7.63-1.776 12.488-7.243 12.488-14.204-.003-7.041-3.806-11.388-12.69-14.524zm-1.558 26.024c-.719.125-1.243.749-1.243 1.478v5.656h-3.876v-5.164c0-.802-.631-1.462-1.433-1.499-3.707-.167-7.579-1.047-10.245-2.298l1.348-5.255c2.493 1.138 6.266 2.414 10.655 2.414 5.08 0 8.235-2.242 8.235-5.851 0-4.101-4.065-6.04-8.458-7.525-8.135-2.736-11.607-6.151-11.607-11.417 0-5.59 3.979-9.708 10.646-11.017.704-.138 1.211-.754 1.211-1.472v-5.165h3.875v4.674c0 .802.631 1.463 1.433 1.499 3.275.146 6.06.695 8.472 1.672l-1.285 5.006c-2.018-.827-4.989-1.819-9.085-1.819-6.99 0-7.534 4.155-7.534 5.429 0 3.623 3.892 5.368 9.42 7.448 7.711 2.722 10.715 6.004 10.715 11.705.001 5.889-4.308 10.296-11.244 11.501z" fill="#3a312a"/><path d="m239.885 76.723c0-33.308-30.57-60.309-68.279-60.309s-68.279 27.001-68.279 60.309c0 .07.006.138.006.208 0 .092-.008.183-.008.275 0 15.134 6.389 28.949 16.909 39.506l-10.789 27.173c-1.034 2.605 1.443 5.234 4.107 4.358l40.01-13.163c5.75 1.382 11.795 2.134 18.043 2.134 37.71 0 68.281-26.866 68.281-60.006 0-.081-.007-.16-.007-.241-.001-.083.006-.163.006-.244z" fill="#ef6d7a"/><path d="m241.385 76.723c0-34.082-31.303-61.809-69.779-61.809-.001 0 0 0-.001 0-18.603 0-36.103 6.407-49.273 18.04-13.223 11.68-20.505 27.224-20.505 43.769l.004.17 1.501.038-1.503.063-.006.212c0 14.623 5.907 28.74 16.655 39.86l-10.428 26.265c-.696 1.752-.325 3.693.968 5.065.93.988 2.182 1.517 3.478 1.517.506 0 1.02-.081 1.523-.247l39.607-13.031c5.875 1.378 11.921 2.077 17.977 2.077 38.477 0 69.78-27.592 69.78-61.506l-.005-.187zm-3 .483c0 32.261-29.958 58.506-66.78 58.506-5.964 0-11.917-.704-17.693-2.092-.27-.065-.555-.054-.819.034l-40.01 13.163c-.682.224-1.387.046-1.88-.477s-.629-1.234-.364-1.902l10.789-27.172c.221-.556.09-1.189-.332-1.612-10.622-10.659-16.472-24.313-16.469-38.519l.006-.214c0-.017-.005-.182-.006-.198 0-15.673 6.922-30.418 19.492-41.521 12.622-11.148 29.416-17.288 47.288-17.288 36.822 0 66.779 26.381 66.779 58.809l-.007.251z" fill="#3a312a"/><path d="m206.097 60.708h-22.031c-2.132 0-3.86-1.727-3.86-3.86v-12.574c0-4.306-3.491-7.796-7.791-7.796-2.153 0-4.101.871-5.51 2.281-1.41 1.415-2.281 3.363-2.281 5.515v9.729c0 4.009-2.553 7.576-6.351 8.868l-7.566 2.578c.031.231.046.466.046.707v35.256c0 .108-.005.21-.005.313l1.635.415c7.925 2.014 16.065 3.05 24.24 3.101.067 0 .128.005.195.005h19.012c3.055 0 5.531-2.476 5.531-5.531v-.072c0-3.055-2.476-5.531-5.531-5.531h3.783c3.055 0 5.531-2.476 5.531-5.531v-.072c0-3.055-2.476-5.531-5.531-5.531h3.783c3.055 0 5.531-2.476 5.531-5.531v-.072c0-3.055-2.476-5.531-5.531-5.531h-6.295l.005-.005h8.991c3.055 0 5.531-2.476 5.531-5.531v-.072c0-3.052-2.475-5.528-5.531-5.528z" fill="#fce8cb"/><path d="m206.098 59.208h-22.031c-1.301 0-2.36-1.059-2.36-2.359v-12.575c0-5.126-4.168-9.296-9.292-9.296-2.482 0-4.816.966-6.573 2.722-1.753 1.759-2.718 4.094-2.718 6.574v9.729c0 3.37-2.143 6.363-5.335 7.448l-7.566 2.579c-.678.231-1.098.909-1.003 1.618.022.166.033.336.033.509v35.256l-.005.313c0 .687.466 1.285 1.131 1.454l1.635.415c8.011 2.037 16.288 3.096 24.65 3.149.019 0 .135.003.154.003h19.012c3.877 0 7.031-3.154 7.031-7.103 0-1.603-.539-3.082-1.445-4.265 3.006-.8 5.227-3.554 5.227-6.868 0-1.603-.539-3.082-1.445-4.266 3.006-.8 5.228-3.554 5.228-6.868 0-1.736-.632-3.327-1.679-4.554 2.567-1.049 4.38-3.573 4.38-6.512v-.072c.001-3.877-3.152-7.031-7.029-7.031zm4.03 7.103c0 2.223-1.808 4.031-4.031 4.031h-8.991c-.398 0-.784.163-1.065.444-.429.429-.558 1.074-.325 1.635.232.561.779.926 1.386.926h6.294c2.223 0 4.031 1.808 4.031 4.103 0 2.223-1.808 4.031-4.031 4.031h-3.783c-.829 0-1.5.671-1.5 1.5s.671 1.5 1.5 1.5c2.223 0 4.031 1.809 4.031 4.103 0 2.223-1.808 4.031-4.031 4.031h-3.783c-.829 0-1.5.671-1.5 1.5s.671 1.5 1.5 1.5c2.223 0 4.031 1.808 4.031 4.103 0 2.223-1.808 4.031-4.031 4.031l-19.052-.001c-.016 0-.129-.003-.146-.003-8.07-.051-16.104-1.079-23.88-3.056l-.499-.126v-34.056l6.503-2.216c4.407-1.498 7.368-5.633 7.368-10.288v-9.729c0-1.681.655-3.264 1.841-4.455 1.188-1.188 2.768-1.842 4.45-1.842 3.469 0 6.292 2.825 6.292 6.296v12.574c0 2.955 2.404 5.359 5.36 5.359h22.031c2.223 0 4.031 1.809 4.031 4.031v.074z" fill="#3a312a"/><path d="m144.937 60.338h-13.357v46.892h13.356c3.214 0 5.819-2.605 5.819-5.819v-35.255c.001-3.213-2.604-5.818-5.818-5.818z" fill="#87796f"/><path d="m144.937 58.837h-13.356c-.829 0-1.5.671-1.5 1.5v12.708c0 .829.671 1.5 1.5 1.5s1.5-.671 1.5-1.5v-11.208h11.856c2.381 0 4.318 1.938 4.318 4.319v35.255c0 2.381-1.937 4.319-4.318 4.319h-11.856v-18.615c0-.829-.671-1.5-1.5-1.5s-1.5.671-1.5 1.5v20.115c0 .829.671 1.5 1.5 1.5h13.356c4.035 0 7.318-3.283 7.318-7.319v-35.255c0-4.035-3.283-7.319-7.318-7.319z" fill="#3a312a"/><path d="m141.168 93.116c-2.424 0-4.389 1.965-4.389 4.389s1.965 4.389 4.389 4.389 4.389-1.965 4.389-4.389-1.965-4.389-4.389-4.389z" fill="#d7e057"/><path d="m141.168 91.616c-3.247 0-5.889 2.642-5.889 5.889s2.642 5.889 5.889 5.889 5.889-2.642 5.889-5.889-2.642-5.889-5.889-5.889zm0 8.778c-1.593 0-2.889-1.296-2.889-2.889s1.296-2.889 2.889-2.889 2.889 1.296 2.889 2.889-1.296 2.889-2.889 2.889z" fill="#3a312a"/><path d="m239.885 76.724h-1.5c0-32.43-29.96-58.81-66.78-58.81-3.57 0-7.08.25-10.5.73 31.85 4.44 56.28 28.8 56.28 58.08h1.5l-1.5.06-.01.18.01.24c0 29.12-24.41 53.35-56.25 57.78 3.46.48 6.97.73 10.47.73 36.82 0 66.78-26.25 66.78-58.51l-.01-.24.01-.18z" fill="#d34e5c"/></svg>