<svg id="Layer_1" enable-background="new 0 0 256 256" height="512" viewBox="0 0 256 256" width="512" xmlns="http://www.w3.org/2000/svg"><path d="m51.574 26.304c-.974 11.564-13.024 13.389-13.024 13.389 10.347.487 12.925 14.059 12.925 14.059.221-9.677 13.321-14.202 13.321-14.202-9.814-.587-13.222-13.246-13.222-13.246z" fill="#d7e057"/><path d="m64.886 38.053c-8.605-.515-11.832-12.024-11.864-12.141-.191-.703-.865-1.165-1.583-1.102-.725.066-1.298.642-1.359 1.367-.86 10.215-11.313 11.964-11.754 12.033-.763.115-1.313.79-1.273 1.561.04.77.657 1.384 1.428 1.421 9.028.425 11.498 12.718 11.522 12.842.137.711.759 1.217 1.472 1.217.042 0 .084-.001.126-.005.764-.064 1.357-.693 1.375-1.459.195-8.508 12.192-12.777 12.313-12.819.675-.235 1.092-.914.994-1.623-.1-.708-.683-1.249-1.397-1.292zm-13.567 10.345c-1.356-3.13-3.708-6.907-7.586-8.876 2.931-1.405 6.409-3.913 8.202-8.273 1.551 3.071 4.2 6.88 8.334 8.723-3.008 1.64-6.923 4.405-8.95 8.426z" fill="#3a312a"/><path d="m29.875 43.284c-.689 8.179-9.212 9.47-9.212 9.47 7.318.344 9.142 9.944 9.142 9.944.156-6.844 9.422-10.045 9.422-10.045-6.941-.414-9.352-9.369-9.352-9.369z" fill="#d7e057"/><path d="m39.317 51.156c-5.766-.345-7.972-8.186-7.994-8.265-.19-.702-.852-1.17-1.582-1.102-.726.065-1.299.642-1.36 1.368-.579 6.871-7.647 8.067-7.942 8.114-.763.115-1.313.79-1.273 1.561.04.77.657 1.384 1.428 1.421 6.035.284 7.723 8.644 7.739 8.726.135.713.759 1.22 1.472 1.22.042 0 .083-.001.125-.005.765-.063 1.358-.694 1.376-1.461.13-5.709 8.331-8.634 8.412-8.662.676-.234 1.094-.913.996-1.622-.098-.708-.683-1.25-1.397-1.293zm-9.585 6.795c-.924-1.885-2.34-3.947-4.447-5.28 1.855-1.041 3.697-2.63 4.871-4.916 1.057 1.874 2.654 3.954 4.941 5.224-1.85 1.101-3.989 2.74-5.365 4.972z" fill="#3a312a"/><path d="m29.875 16.627c-.689 8.179-9.212 9.471-9.212 9.471 7.318.344 9.142 9.944 9.142 9.944.156-6.844 9.422-10.045 9.422-10.045-6.941-.416-9.352-9.37-9.352-9.37z" fill="#d7e057"/><path d="m39.317 24.499c-5.766-.345-7.972-8.186-7.994-8.265-.19-.702-.852-1.164-1.582-1.102-.726.065-1.299.642-1.36 1.368-.579 6.871-7.647 8.067-7.942 8.114-.763.115-1.313.79-1.273 1.561.04.77.657 1.384 1.428 1.421 6.035.284 7.723 8.644 7.739 8.726.135.713.759 1.22 1.472 1.22.042 0 .083-.001.125-.005.765-.063 1.358-.694 1.376-1.461.13-5.709 8.331-8.634 8.412-8.662.676-.234 1.094-.913.996-1.622s-.683-1.25-1.397-1.293zm-9.585 6.795c-.924-1.885-2.34-3.947-4.447-5.28 1.855-1.041 3.697-2.63 4.871-4.916 1.057 1.874 2.654 3.954 4.941 5.224-1.85 1.1-3.989 2.74-5.365 4.972z" fill="#3a312a"/><path d="m141.903 37.814c-39.593-.208-71.492 30.985-72.126 70.573-.325 20.266 7.76 38.638 20.989 51.872 3.977 3.979 7.272 8.513 9.796 13.416l4.724 13.465c.634 3.185.972 6.446.972 9.751v.4h70.522v-.347c0-13.525 5.217-26.637 14.889-36.09 13.325-13.022 21.6-31.187 21.6-51.291-.001-39.497-31.917-71.541-71.366-71.749z" fill="#fce8cb"/><path d="m141.911 36.314c-.135 0-.268-.001-.403-.001-19.397 0-37.612 7.375-51.326 20.792-13.813 13.512-21.592 31.716-21.905 51.259-.32 20.005 7.289 38.813 21.428 52.957 3.843 3.845 7.047 8.233 9.523 13.042.379.737 1.284 1.027 2.02.647.737-.379 1.026-1.284.647-2.02-2.618-5.085-6.005-9.725-10.068-13.79-13.56-13.564-20.858-31.601-20.55-50.788.3-18.747 7.759-36.206 21.002-49.162 13.151-12.866 30.619-19.936 49.229-19.936.128 0 .259 0 .387.001 38.528.203 69.873 31.716 69.873 70.25 0 19.057-7.511 36.891-21.148 50.218-9.483 9.268-15.032 22.337-15.329 36.01h-67.547c-.066-2.972-.397-5.976-.988-8.944-.162-.812-.946-1.337-1.764-1.178-.813.162-1.34.952-1.178 1.764.625 3.142.942 6.324.942 9.458v.4c0 .829.671 1.5 1.5 1.5h70.522c.829 0 1.5-.671 1.5-1.5v-.347c0-13.287 5.263-26.05 14.438-35.018 14.22-13.896 22.051-32.493 22.051-52.364.001-40.179-32.683-73.038-72.856-73.25z" fill="#3a312a"/><path d="m174.606 197.292h-7.43-13.722-45.024c-3.894 0-7.051 3.157-7.051 7.051s3.157 7.051 7.051 7.051h66.176c3.894 0 7.051-3.157 7.051-7.051s-3.157-7.051-7.051-7.051z" fill="#87796f"/><path d="m174.605 195.792h-66.175c-4.715 0-8.551 3.836-8.551 8.551s3.836 8.551 8.551 8.551h66.175c4.715 0 8.551-3.836 8.551-8.551s-3.835-8.551-8.551-8.551zm0 14.103h-66.175c-3.061 0-5.551-2.49-5.551-5.551s2.49-5.551 5.551-5.551h66.175c3.061 0 5.551 2.49 5.551 5.551s-2.489 5.551-5.551 5.551z" fill="#3a312a"/><path d="m174.606 211.394h-66.176c-3.894 0-7.051 3.157-7.051 7.051s3.157 7.051 7.051 7.051h12.046 13.678 40.451c3.894 0 7.051-3.157 7.051-7.051.001-3.894-3.156-7.051-7.05-7.051z" fill="#87796f"/><path d="m174.605 209.895h-66.175c-4.715 0-8.551 3.836-8.551 8.551s3.836 8.551 8.551 8.551h12.046c.829 0 1.5-.671 1.5-1.5s-.671-1.5-1.5-1.5h-12.046c-3.061 0-5.551-2.49-5.551-5.551s2.49-5.551 5.551-5.551h66.175c3.061 0 5.551 2.49 5.551 5.551s-2.49 5.551-5.551 5.551h-40.451c-.829 0-1.5.671-1.5 1.5s.671 1.5 1.5 1.5h40.451c4.715 0 8.551-3.836 8.551-8.551s-3.835-8.551-8.551-8.551z" fill="#3a312a"/><path d="m109.213 225.496c0 7.701 6.243 13.944 13.944 13.944h36.721c7.701 0 13.944-6.243 13.944-13.944z" fill="#87796f"/><g fill="#3a312a"><path d="m173.822 223.996h-39.668c-.829 0-1.5.671-1.5 1.5s.671 1.5 1.5 1.5h38.078c-.743 6.157-6 10.944-12.354 10.944h-36.721c-6.354 0-11.611-4.787-12.354-10.944h9.673c.829 0 1.5-.671 1.5-1.5s-.671-1.5-1.5-1.5h-11.263c-.829 0-1.5.671-1.5 1.5 0 8.516 6.928 15.444 15.444 15.444h36.721c8.516 0 15.444-6.928 15.444-15.444 0-.829-.671-1.5-1.5-1.5z"/><path d="m141.518 15.06c-.829 0-1.5.671-1.5 1.5v11.731c0 .829.671 1.5 1.5 1.5s1.5-.671 1.5-1.5v-11.731c0-.829-.671-1.5-1.5-1.5z"/><path d="m171.563 19.916c-.788-.26-1.636.165-1.896.951l-3.697 11.133c-.261.786.165 1.635.951 1.896.157.052.316.077.473.077.629 0 1.215-.398 1.424-1.028l3.696-11.133c.26-.786-.165-1.635-.951-1.896z"/><path d="m198.547 33.99c-.664-.496-1.604-.358-2.099.305l-7.015 9.402c-.496.664-.359 1.604.305 2.099.269.201.584.298.896.298.457 0 .909-.208 1.203-.603l7.015-9.402c.496-.664.359-1.604-.305-2.099z"/><path d="m219.723 55.849c-.474-.679-1.409-.845-2.088-.372l-9.62 6.713c-.679.474-.846 1.409-.371 2.088.292.418.758.642 1.231.642.296 0 .596-.087.857-.27l9.62-6.713c.679-.474.845-1.409.371-2.088z"/><path d="m232.935 83.266c-.236-.793-1.069-1.245-1.865-1.011l-11.245 3.341c-.794.236-1.247 1.071-1.011 1.865.194.651.79 1.073 1.438 1.073.141 0 .285-.021.428-.063l11.245-3.341c.793-.234 1.246-1.07 1.01-1.864z"/><path d="m235.384 111.903-11.725-.372c-.825-.041-1.521.624-1.546 1.452-.026.828.624 1.521 1.452 1.546l11.725.372c.016.001.032.001.048.001.806 0 1.473-.641 1.498-1.453.026-.827-.624-1.52-1.452-1.546z"/><path d="m230.14 141.399-11.01-4.046c-.777-.286-1.64.113-1.925.89-.286.778.113 1.64.89 1.925l11.01 4.046c.171.063.346.093.518.093.611 0 1.185-.376 1.408-.983.285-.777-.114-1.639-.891-1.925z"/><path d="m215.869 167.742-9.175-7.31c-.647-.516-1.591-.409-2.108.239-.516.648-.409 1.591.239 2.108l9.175 7.31c.276.22.606.327.934.327.441 0 .878-.193 1.174-.565.515-.649.409-1.593-.239-2.109z"/><path d="m117.065 32-3.695-11.133c-.261-.786-1.11-1.212-1.897-.951-.786.261-1.212 1.11-.951 1.896l3.695 11.133c.209.629.795 1.028 1.424 1.028.156 0 .316-.025.473-.077.786-.261 1.212-1.11.951-1.896z"/><path d="m93.603 43.698-7.015-9.402c-.495-.664-1.436-.801-2.099-.305-.664.495-.801 1.435-.305 2.099l7.015 9.402c.294.395.746.603 1.203.603.312 0 .627-.097.896-.298.664-.495.801-1.435.305-2.099z"/><path d="m75.021 62.191-9.62-6.713c-.679-.474-1.614-.308-2.088.372s-.308 1.614.372 2.088l9.62 6.713c.261.183.561.27.857.27.474 0 .94-.224 1.232-.642.472-.679.306-1.614-.373-2.088z"/><path d="m63.211 85.596-11.245-3.341c-.793-.237-1.629.217-1.865 1.011s.217 1.629 1.011 1.865l11.245 3.341c.143.042.286.063.428.063.647 0 1.244-.422 1.438-1.073.235-.795-.218-1.63-1.012-1.866z"/><path d="m59.376 111.531-11.725.372c-.828.026-1.478.719-1.452 1.546.025.812.692 1.453 1.498 1.453.016 0 .032 0 .048-.001l11.725-.372c.828-.026 1.478-.719 1.452-1.546-.026-.829-.718-1.49-1.546-1.452z"/><path d="m65.832 138.243c-.286-.777-1.146-1.177-1.925-.89l-11.011 4.046c-.777.286-1.176 1.147-.89 1.925.223.607.797.983 1.408.983.172 0 .347-.03.518-.093l11.011-4.046c.776-.285 1.175-1.147.889-1.925z"/><path d="m78.45 160.671c-.516-.648-1.46-.754-2.108-.239l-9.175 7.31c-.648.517-.755 1.46-.239 2.108.296.372.733.565 1.174.565.328 0 .658-.107.934-.327l9.175-7.31c.648-.516.755-1.459.239-2.107z"/></g><path d="m141.892 39.31h-.39c-2.3 0-4.57.11-6.81.32 35.59 3.38 63.58 33.52 63.58 69.93 0 19.06-7.51 36.89-21.15 50.22-9.49 9.27-15.03 22.34-15.33 36.01h13.5c.3-13.67 5.84-26.74 15.33-36.01 13.64-13.33 21.15-31.16 21.15-50.22 0-38.53-31.35-70.04-69.88-70.25z" fill="#decaad"/><path d="m174.602 198.79h-13.5c3.06 0 5.55 2.49 5.55 5.55s-2.49 5.55-5.55 5.55h13.5c3.06 0 5.55-2.49 5.55-5.55s-2.49-5.55-5.55-5.55z" fill="#695b51"/><path d="m158.732 227c-.74 6.15-6 10.94-12.35 10.94h13.5c6.35 0 11.61-4.79 12.35-10.94z" fill="#695b51"/><path d="m174.602 212.89h-13.5c3.06 0 5.55 2.49 5.55 5.56 0 3.06-2.49 5.55-5.55 5.55h13.5c3.06 0 5.55-2.49 5.55-5.55 0-3.07-2.49-5.56-5.55-5.56z" fill="#695b51"/><ellipse cx="141.722" cy="110.27" fill="#d6df58" rx="48.27" ry="48.27" transform="matrix(.973 -.23 .23 .973 -21.544 35.511)"/><path d="m141.722 60.5c-27.443 0-49.77 22.327-49.77 49.77s22.327 49.771 49.77 49.771 49.77-22.327 49.77-49.771-22.327-49.77-49.77-49.77zm0 96.541c-25.789 0-46.77-20.981-46.77-46.771 0-25.789 20.981-46.77 46.77-46.77s46.77 20.981 46.77 46.77c0 25.79-20.981 46.771-46.77 46.771z" fill="#3a312a"/><path d="m147.461 104.812c-7.03-2.646-9.925-4.383-9.925-7.112 0-2.315 1.737-4.631 7.113-4.631 5.954 0 9.759 1.901 11.909 2.812l2.399-9.345c-2.73-1.324-6.452-2.483-11.992-2.73v-7.279h-8.105v7.856c-8.849 1.737-13.977 7.443-13.977 14.722 0 8.023 6.038 12.159 14.887 15.135 6.121 2.068 8.767 4.054 8.767 7.195 0 3.309-3.226 5.129-7.94 5.129-5.376 0-10.255-1.737-13.729-3.638l-2.481 9.676c3.143 1.819 8.518 3.307 14.059 3.556v7.857h8.105v-8.436c9.511-1.653 14.722-7.939 14.722-15.3-.001-7.445-3.971-11.994-13.812-15.467z" fill="#87796f"/><path d="m147.989 103.408c-6.611-2.488-8.954-3.981-8.954-5.708 0-2.725 3.517-3.131 5.613-3.131 5.122 0 8.484 1.461 10.71 2.428l.615.265c.402.17.859.157 1.25-.037.392-.193.679-.548.788-.971l2.398-9.345c.177-.691-.157-1.412-.799-1.723-3.194-1.548-6.852-2.466-11.146-2.792v-5.866c0-.829-.671-1.5-1.5-1.5h-8.106c-.829 0-1.5.671-1.5 1.5v6.651c-8.656 2.12-13.977 8.134-13.977 15.927 0 9.933 8.502 14.066 15.907 16.557 6.43 2.172 7.747 3.879 7.747 5.773 0 3.367-4.929 3.629-6.44 3.629-5.829 0-10.652-2.164-13.009-3.455-.407-.222-.893-.245-1.317-.06-.425.185-.741.555-.856 1.003l-2.482 9.676c-.167.651.12 1.334.702 1.671 3.266 1.89 8.263 3.255 13.311 3.666v6.449c0 .829.671 1.5 1.5 1.5h8.106c.829 0 1.5-.671 1.5-1.5v-7.206c8.988-2.014 14.722-8.393 14.722-16.531 0-8.168-4.43-13.216-14.783-16.87zm-1.695 30.692c-.719.125-1.243.749-1.243 1.478v6.937h-5.106v-6.356c0-.802-.631-1.462-1.433-1.499-4.494-.202-9.199-1.291-12.38-2.831l1.724-6.721c2.906 1.362 7.44 2.957 12.74 2.957 5.823 0 9.44-2.54 9.44-6.629 0-4.406-3.913-6.631-9.789-8.616-9.718-3.269-13.865-7.37-13.865-13.714 0-6.728 4.773-11.681 12.766-13.25.704-.138 1.211-.754 1.211-1.472v-6.356h5.106v5.779c0 .803.632 1.463 1.433 1.499 3.989.178 7.37.859 10.292 2.08l-1.649 6.427c-2.36-.987-5.918-2.243-10.892-2.243-7.992 0-8.613 4.693-8.613 6.131 0 3.755 3.514 5.738 10.926 8.527 9.219 3.254 12.811 7.194 12.811 14.052-.001 7.079-5.166 12.375-13.479 13.82z" fill="#3a312a"/><path d="m141.892 39.31h-.39c-2.3 0-4.57.11-6.81.32.009.001.018.002.026.003 35.577 3.393 63.554 33.526 63.554 69.927 0 19.06-7.51 36.89-21.15 50.22-9.49 9.27-15.03 22.34-15.33 36.01h13.5c.15-6.846 1.616-13.542 4.233-19.685 2.608-6.123 6.36-11.698 11.097-16.325.852-.833 1.68-1.683 2.484-2.55 12.065-13.012 18.666-29.801 18.666-47.67 0-38.53-31.35-70.04-69.88-70.25z" fill="#decaad"/></svg>