<svg id="Layer_1" enable-background="new 0 0 256 256" height="512" viewBox="0 0 256 256" width="512" xmlns="http://www.w3.org/2000/svg"><circle cx="133.45" cy="133.788" fill="#8ac5dc" r="105.75"/><path d="m133.449 26.537c-59.138 0-107.25 48.112-107.25 107.25s48.112 107.25 107.25 107.25 107.25-48.112 107.25-107.25-48.112-107.25-107.25-107.25zm0 211.5c-57.483 0-104.25-46.767-104.25-104.25s46.767-104.25 104.25-104.25 104.25 46.767 104.25 104.25-46.766 104.25-104.25 104.25z" fill="#3a312a"/><path d="m133.45 55.538c-22.724 0-43.176 9.695-57.471 25.164l-8.459 10.965c-7.788 12.162-12.32 26.607-12.32 42.121 0 43.216 35.034 78.25 78.25 78.25s78.25-35.034 78.25-78.25-35.034-78.25-78.25-78.25z" fill="#d7e057"/><path d="m133.449 54.037c-22.162 0-43.511 9.348-58.572 25.646-.563.608-.524 1.557.084 2.119.607.563 1.557.526 2.119-.084 14.495-15.686 35.041-24.682 56.369-24.682 42.32 0 76.75 34.43 76.75 76.75s-34.43 76.75-76.75 76.75-76.75-34.43-76.75-76.75c0-14.679 4.178-28.964 12.083-41.313.446-.697.243-1.625-.455-2.072-.696-.446-1.623-.243-2.072.455-8.214 12.832-12.556 27.677-12.556 42.93 0 43.975 35.775 79.75 79.75 79.75s79.75-35.775 79.75-79.75-35.775-79.749-79.75-79.749z" fill="#3a312a"/><path d="m47.727 26.14c-.974 11.564-13.031 13.39-13.031 13.39 10.352.487 12.932 14.059 12.932 14.059.221-9.677 13.328-14.202 13.328-14.202-9.819-.588-13.229-13.247-13.229-13.247z" fill="#d5de58"/><path d="m61.046 37.889c-8.609-.515-11.839-12.024-11.87-12.141-.191-.702-.843-1.162-1.584-1.102-.725.066-1.298.642-1.359 1.367-.86 10.215-11.319 11.964-11.761 12.032-.763.116-1.313.791-1.273 1.561.04.771.657 1.385 1.428 1.421 9.033.425 11.505 12.72 11.528 12.844.138.711.76 1.217 1.473 1.217.042 0 .084-.002.126-.005.765-.064 1.357-.693 1.375-1.46.194-8.509 12.198-12.777 12.319-12.82.676-.234 1.092-.914.994-1.622-.098-.709-.682-1.25-1.396-1.292zm-13.573 10.347c-1.357-3.131-3.71-6.909-7.591-8.878 2.933-1.405 6.412-3.914 8.206-8.275 1.552 3.071 4.202 6.882 8.339 8.725-3.009 1.639-6.927 4.406-8.954 8.428z" fill="#3a312a"/><path d="m26.018 43.12c-.689 8.179-9.217 9.471-9.217 9.471 7.322.344 9.147 9.944 9.147 9.944.156-6.844 9.427-10.045 9.427-10.045-6.945-.416-9.357-9.37-9.357-9.37z" fill="#d5de58"/><path d="m35.464 50.992c-5.77-.345-7.977-8.186-7.999-8.265-.189-.702-.855-1.164-1.581-1.102-.726.065-1.3.643-1.361 1.368-.579 6.87-7.65 8.066-7.946 8.113-.763.116-1.313.791-1.273 1.561.04.771.657 1.385 1.428 1.421 6.038.284 7.728 8.645 7.743 8.727.136.713.759 1.22 1.473 1.22.041 0 .083-.002.125-.005.765-.063 1.358-.693 1.376-1.461.13-5.709 8.336-8.634 8.416-8.662.677-.233 1.094-.913.997-1.622-.099-.709-.684-1.251-1.398-1.293zm-9.59 6.796c-.924-1.886-2.341-3.947-4.449-5.28 1.856-1.042 3.699-2.631 4.873-4.918 1.058 1.874 2.656 3.955 4.944 5.225-1.85 1.1-3.991 2.741-5.368 4.973z" fill="#3a312a"/><path d="m26.018 16.462c-.689 8.179-9.217 9.471-9.217 9.471 7.322.344 9.147 9.944 9.147 9.944.156-6.844 9.427-10.045 9.427-10.045-6.945-.415-9.357-9.37-9.357-9.37z" fill="#d5de58"/><path d="m35.464 24.335c-5.77-.345-7.977-8.186-7.999-8.265-.189-.702-.855-1.163-1.581-1.102-.726.065-1.3.643-1.361 1.368-.579 6.87-7.65 8.066-7.946 8.113-.763.116-1.313.791-1.273 1.561.04.771.657 1.385 1.428 1.421 6.038.284 7.728 8.645 7.743 8.727.136.713.759 1.22 1.473 1.22.041 0 .083-.002.125-.005.765-.063 1.358-.693 1.376-1.461.13-5.709 8.336-8.634 8.416-8.662.677-.233 1.094-.913.997-1.622-.099-.709-.684-1.251-1.398-1.293zm-9.59 6.796c-.924-1.886-2.341-3.948-4.449-5.281 1.856-1.041 3.699-2.63 4.873-4.917 1.058 1.874 2.656 3.955 4.944 5.225-1.85 1.1-3.991 2.74-5.368 4.973z" fill="#3a312a"/><path d="m165.319 126.383-44.368-44.368c-4.907-4.907-12.864-4.907-17.77 0-4.908 4.907-4.908 12.864 0 17.77l35.483 35.483-14.381 14.381-9.919 9.92-11.182 11.182c-4.908 4.907-4.908 12.864 0 17.77 2.453 2.454 5.669 3.681 8.885 3.681s6.432-1.227 8.885-3.681l44.368-44.368c4.907-4.906 4.907-12.863-.001-17.77z" fill="#87796f"/><path d="m166.38 125.322-44.368-44.367c-5.483-5.483-14.406-5.486-19.892 0-2.656 2.656-4.12 6.189-4.12 9.945s1.464 7.289 4.12 9.945l34.423 34.423-13.321 13.32c-.586.586-.586 1.535 0 2.121s1.535.586 2.121 0l14.382-14.381c.281-.281.439-.663.439-1.061s-.158-.779-.439-1.061l-35.483-35.483c-2.09-2.09-3.241-4.868-3.241-7.824s1.151-5.734 3.241-7.824c4.314-4.313 11.335-4.314 15.649 0l44.368 44.367c2.09 2.09 3.241 4.869 3.241 7.825s-1.151 5.734-3.241 7.824l-44.368 44.368c-2.09 2.09-4.868 3.241-7.825 3.241-2.955 0-5.734-1.151-7.824-3.241s-3.242-4.866-3.242-7.822 1.151-5.734 3.241-7.824l11.183-11.183c.586-.586.586-1.535 0-2.121s-1.535-.586-2.121 0l-11.183 11.183c-2.656 2.656-4.12 6.188-4.12 9.945s1.464 7.289 4.12 9.945c2.656 2.657 6.188 4.12 9.945 4.12 3.758 0 7.291-1.463 9.946-4.12l44.368-44.368c2.656-2.656 4.12-6.188 4.12-9.945.001-3.758-1.462-7.29-4.119-9.947z" fill="#3a312a"/><path d="m133.54 57.25c-3.56 0-7.07.24-10.5.72 37.3 5.13 66.12 37.21 66.12 75.91 0 38.69-28.82 70.77-66.12 75.9 3.43.48 6.94.72 10.5.72 42.25 0 76.62-34.37 76.62-76.62 0-42.26-34.37-76.63-76.62-76.63z" fill="#b9c239"/></svg>