<svg id="Layer_1" enable-background="new 0 0 256 256" height="512" viewBox="0 0 256 256" width="512" xmlns="http://www.w3.org/2000/svg"><path d="m191.216 109.395c-8.687 0-16.829 2.309-23.869 6.329l-10.83 8.427c-8.363 8.672-13.517 20.46-13.517 33.459 0 26.629 21.587 48.215 48.215 48.215 26.629 0 48.215-21.587 48.215-48.215s-21.586-48.215-48.214-48.215z" fill="#ef6d7a"/><path d="m191.215 107.895c-8.625 0-17.136 2.257-24.612 6.526-.72.411-.97 1.327-.559 2.046s1.328.969 2.046.559c7.024-4.011 15.021-6.131 23.125-6.131 25.759 0 46.715 20.956 46.715 46.715s-20.957 46.715-46.715 46.715c-25.759 0-46.715-20.956-46.715-46.715 0-12.148 4.651-23.661 13.097-32.417.575-.597.558-1.546-.038-2.121-.597-.575-1.545-.558-2.121.038-8.988 9.319-13.938 21.571-13.938 34.5 0 27.413 22.302 49.715 49.715 49.715s49.715-22.302 49.715-49.715c.001-27.413-22.302-49.715-49.715-49.715z" fill="#3a312a"/><path d="m25.952 81.468h110.724v126.667h-110.724z" fill="#87796f"/><path d="m136.676 79.968h-110.724c-.829 0-1.5.671-1.5 1.5v71.037c0 .829.671 1.5 1.5 1.5s1.5-.671 1.5-1.5v-69.537h107.724v123.667h-107.724v-38.87c0-.829-.671-1.5-1.5-1.5s-1.5.671-1.5 1.5v40.37c0 .829.671 1.5 1.5 1.5h110.724c.829 0 1.5-.671 1.5-1.5v-126.667c0-.829-.672-1.5-1.5-1.5z" fill="#3a312a"/><path d="m118.011 183.224h-19.54v-12.693c-5.405 3.745-10.997 5.954-16.424 5.954-5.206 0-10.699-2.232-16.081-6.021h-.331v12.759h-19.552c-16.335 0-29.576 13.234-29.576 29.56v26.788h131.08v-26.788c0-16.325-13.241-29.559-29.576-29.559z" fill="#fae6ca"/><path d="m118.011 181.724h-18.04v-11.193c0-.558-.31-1.07-.804-1.329s-1.092-.223-1.55.096c-5.446 3.774-10.685 5.688-15.569 5.688-4.68 0-9.8-1.934-15.218-5.747-.252-.178-.554-.273-.863-.273h-.331c-.829 0-1.5.671-1.5 1.5v11.259h-18.053c-17.135 0-31.076 13.934-31.076 31.061v26.788c0 .829.671 1.5 1.5 1.5h131.08c.829 0 1.5-.671 1.5-1.5v-26.788c0-17.128-13.941-31.062-31.076-31.062zm28.076 56.348h-128.08v-25.288c0-15.473 12.595-28.061 28.076-28.061h19.552c.829 0 1.5-.671 1.5-1.5v-10.177c5.204 3.279 10.211 4.939 14.913 4.939 4.779 0 9.789-1.576 14.924-4.691v9.93c0 .829.671 1.5 1.5 1.5h19.54c15.481 0 28.076 12.588 28.076 28.061v25.287z" fill="#3a312a"/><path d="m118.011 183.215h-4.675l.122.089-20.325 26.943-10.489-7.898-10.489 7.898-20.325-26.943.121-.089h-5.869c-16.335 0-29.576 13.234-29.576 29.561v26.799h131.08v-26.799c.001-16.327-13.239-29.561-29.575-29.561z" fill="#ef6d7a"/><path d="m118.011 181.715h-4.675c-.65 0-1.226.419-1.427 1.036-.019.058-.033.115-.045.173l-19.027 25.222-9.292-6.997c-.534-.402-1.27-.402-1.805 0l-9.292 6.997-19.027-25.223c-.012-.059-.027-.117-.045-.174-.202-.618-.777-1.035-1.426-1.035h-5.869c-17.135 0-31.076 13.934-31.076 31.061v26.799c0 .829.671 1.5 1.5 1.5h131.08c.829 0 1.5-.671 1.5-1.5v-26.799c.002-17.126-13.939-31.06-31.074-31.06zm28.076 56.36h-128.08v-25.299c0-15.473 12.595-28.061 28.076-28.061h4.934l19.941 26.435c.498.662 1.439.793 2.1.295l9.586-7.219 9.586 7.219c.661.498 1.601.366 2.1-.295l19.942-26.435h3.739c15.481 0 28.076 12.588 28.076 28.061z" fill="#3a312a"/><path clip-rule="evenodd" d="m31.261 98.314c-6.427 0-11.637 5.207-11.637 11.631s5.21 11.631 11.637 11.631 11.638-5.208 11.638-11.631c0-6.424-5.21-11.631-11.638-11.631z" fill="#fae6ca" fill-rule="evenodd"/><path d="m31.261 96.814c-7.244 0-13.137 5.891-13.137 13.131 0 7.241 5.894 13.131 13.137 13.131 7.244 0 13.138-5.891 13.138-13.131s-5.894-13.131-13.138-13.131zm0 23.263c-5.59 0-10.137-4.545-10.137-10.131s4.547-10.131 10.137-10.131 10.138 4.545 10.138 10.131-4.548 10.131-10.138 10.131z" fill="#3a312a"/><ellipse clip-rule="evenodd" cx="132.836" cy="109.945" fill="#fae6ca" fill-rule="evenodd" rx="11.638" ry="11.631" transform="matrix(1 -.001 .001 1 -.137 .166)"/><path d="m132.836 96.814c-7.244 0-13.138 5.891-13.138 13.131 0 7.241 5.894 13.131 13.138 13.131s13.138-5.891 13.138-13.131-5.894-13.131-13.138-13.131zm0 23.263c-5.59 0-10.138-4.545-10.138-10.131s4.548-10.131 10.138-10.131 10.138 4.545 10.138 10.131-4.548 10.131-10.138 10.131z" fill="#3a312a"/><path d="m82.049 52.736c-28.492 0-51.59 23.086-51.59 51.563s28.538 72.188 51.59 72.188c24.149 0 51.59-43.711 51.59-72.188 0-28.478-23.098-51.563-51.59-51.563z" fill="#fae6ca"/><path d="m82.049 51.236c-29.274 0-53.09 23.804-53.09 53.063 0 13.838 6.674 32.087 17.417 47.627 11.283 16.319 24.618 26.062 35.673 26.062 11.638 0 24.793-9.502 36.09-26.07 10.486-15.377 17-33.624 17-47.618 0-29.26-23.816-53.064-53.09-53.064zm33.612 98.991c-10.572 15.504-23.137 24.76-33.612 24.76-10.07 0-22.483-9.259-33.206-24.768-10.415-15.064-16.885-32.66-16.885-45.92 0-27.605 22.47-50.063 50.09-50.063s50.09 22.458 50.09 50.063c.001 13.424-6.313 31.022-16.477 45.928z" fill="#3a312a"/><ellipse cx="63.835" cy="103.717" fill="#3a312a" rx="5.033" ry="5.035" transform="matrix(.003 -1 1 .003 -40.072 167.242)"/><path d="m100.263 98.684c-2.781 0-5.035 2.254-5.035 5.033 0 2.78 2.254 5.033 5.035 5.033s5.036-2.253 5.036-5.033c-.001-2.779-2.255-5.033-5.036-5.033z" fill="#3a312a"/><path d="m53.771 112.198c-4.79 0-8.674 2.902-8.674 6.481s3.884 6.481 8.674 6.481c4.791 0 8.674-2.902 8.674-6.481s-3.884-6.481-8.674-6.481z" fill="#f59689"/><path d="m110.327 112.198c-4.79 0-8.674 2.902-8.674 6.481s3.884 6.481 8.674 6.481c4.791 0 8.674-2.902 8.674-6.481s-3.884-6.481-8.674-6.481z" fill="#f59689"/><path d="m60.668 175.932h13.186v33.749h-13.186z" fill="#87796f" transform="matrix(.799 -.602 .602 .799 -102.468 79.271)"/><path d="m83.885 201.41-20.319-26.947c-.5-.661-1.439-.793-2.1-.295l-10.532 7.934c-.318.24-.528.596-.583.99-.056.394.048.794.288 1.112l20.319 26.947c.295.391.744.597 1.199.597.314 0 .631-.098.901-.302l10.532-7.933c.318-.24.528-.595.583-.99.055-.396-.048-.796-.288-1.113zm-11.435 6.736-18.513-24.551 8.136-6.129 18.513 24.552z" fill="#3a312a"/><path d="m81.152 186.213h33.749v13.186h-33.749z" fill="#87796f" transform="matrix(.602 -.799 .799 .602 -114.938 154.996)"/><g fill="#3a312a"><path d="m114.938 183.091c-.055-.394-.265-.75-.583-.99l-10.532-7.934c-.661-.498-1.602-.366-2.1.295l-20.32 26.948c-.24.318-.343.718-.288 1.112s.265.75.583.99l10.532 7.933c.27.204.587.302.901.302.455 0 .904-.206 1.199-.597l20.319-26.947c.241-.318.344-.718.289-1.112zm-22.1 25.055-8.136-6.128 18.513-24.552 8.136 6.129z"/><path d="m41.06 216.902c-.829 0-1.5.671-1.5 1.5v21.173c0 .829.671 1.5 1.5 1.5s1.5-.671 1.5-1.5v-21.173c0-.828-.672-1.5-1.5-1.5z"/><path d="m124.228 216.902c-.829 0-1.5.671-1.5 1.5v21.173c0 .829.671 1.5 1.5 1.5s1.5-.671 1.5-1.5v-21.173c0-.828-.671-1.5-1.5-1.5z"/><path d="m96.829 135.851c-.773-.289-1.64.102-1.931.878-1.023 2.73-5.026 7.894-12.851 7.894-6.113 0-10.333-2.621-12.9-8.013-.357-.747-1.252-1.065-2-.709s-1.065 1.251-.71 2c3.073 6.452 8.325 9.723 15.609 9.723 8.225 0 13.884-5.102 15.66-9.842.292-.776-.102-1.64-.877-1.931z"/></g><path d="m124.497 44.577c-10.84-11.446-26.18-18.587-43.186-18.587-6.36 0-12.483.999-18.22 2.856 4.544 10.533 9.916 20.648 17.232 29.453 3.363 4.037 7.09 7.763 11.033 11.221 3.212 2.856 6.575 5.551 9.991 8.139 11.645 8.837 24.214 16.654 37.428 23.021 1.3-4.875 1.987-9.997 1.987-15.279-.001-15.817-6.178-30.183-16.265-40.824z" fill="#87796f"/><path d="m125.586 43.546c-11.637-12.288-27.36-19.055-44.276-19.055-6.394 0-12.679.985-18.682 2.929-.402.13-.731.424-.904.809-.174.385-.178.825-.011 1.213 5.392 12.5 10.939 21.975 17.456 29.818 3.218 3.863 6.985 7.695 11.189 11.382 2.942 2.616 6.24 5.303 10.081 8.213 12.025 9.125 24.704 16.923 37.684 23.177.206.099.429.149.651.149.213 0 .427-.045.626-.137.406-.187.708-.545.823-.977 1.353-5.072 2.038-10.342 2.038-15.665 0-15.649-5.922-30.513-16.675-41.856zm12.181 54.974c-12.222-6.027-24.161-13.441-35.515-22.056-3.778-2.863-7.017-5.501-9.908-8.072-4.094-3.59-7.751-7.309-10.868-11.051-6.061-7.294-11.274-16.081-16.339-27.555 5.222-1.524 10.654-2.295 16.173-2.295 16.083 0 31.033 6.435 42.098 18.119 10.223 10.784 15.853 24.915 15.853 39.791 0 4.444-.502 8.849-1.494 13.119z" fill="#3a312a"/><path d="m81.31 25.991c-6.36 0-12.483.999-18.22 2.856-23.913 7.677-41.22 30.097-41.22 56.554 0 5.594.773 11.006 2.224 16.138 23.452-8.601 46.366-18.93 67.261-32.019 11.785-7.377 22.915-15.623 33.142-24.943-10.84-11.446-26.181-18.586-43.187-18.586z" fill="#87796f"/><path d="m125.586 43.546c-11.637-12.288-27.36-19.055-44.276-19.055-6.394 0-12.679.985-18.678 2.928-25.278 8.115-42.262 31.416-42.262 57.981 0 5.625.767 11.192 2.281 16.546.113.402.39.738.762.928.213.109.447.164.682.164.174 0 .349-.03.517-.092 26.309-9.648 48.402-20.167 67.541-32.155 12.305-7.702 23.527-16.149 33.356-25.106.298-.271.474-.651.489-1.054.012-.401-.135-.793-.412-1.085zm-35.027 24.703c-18.586 11.643-40.006 21.893-65.44 31.314-1.161-4.604-1.749-9.36-1.749-14.162 0-25.256 16.147-47.41 40.183-55.127 5.704-1.847 11.678-2.783 17.758-2.783 15.57 0 30.079 6.03 41.027 17.017-9.42 8.45-20.103 16.432-31.779 23.741z" fill="#3a312a"/><path d="m191.313 124.376c-8.754 0-15.85 7.096-15.85 15.85s7.096 15.85 15.85 15.85 15.85-7.096 15.85-15.85-7.097-15.85-15.85-15.85z" fill="#d6df58"/><path d="m191.313 122.876c-9.567 0-17.35 7.783-17.35 17.35s7.783 17.35 17.35 17.35 17.35-7.783 17.35-17.35-7.784-17.35-17.35-17.35zm0 31.701c-7.913 0-14.35-6.438-14.35-14.35s6.438-14.35 14.35-14.35 14.35 6.438 14.35 14.35-6.438 14.35-14.35 14.35z" fill="#3a312a"/><path d="m215.734 182.711c-2.739-15.268-12.634-26.576-24.421-26.576s-21.682 11.308-24.421 26.576c-.798 4.452 2.572 8.563 7.095 8.563h34.653c4.522-.001 7.892-4.111 7.094-8.563z" fill="#d6df58"/><path d="m217.21 182.446c-2.938-16.375-13.587-27.811-25.898-27.811s-22.96 11.436-25.898 27.811c-.463 2.582.232 5.212 1.908 7.214 1.655 1.979 4.084 3.113 6.663 3.113h34.653c2.58 0 5.009-1.135 6.664-3.113 1.676-2.003 2.371-4.632 1.908-7.214zm-4.208 5.289c-1.083 1.295-2.674 2.039-4.363 2.039h-34.653c-1.688 0-3.278-.743-4.362-2.038-1.104-1.32-1.562-3.055-1.256-4.76 2.677-14.92 12.112-25.34 22.945-25.34s20.268 10.42 22.944 25.341c.306 1.704-.151 3.438-1.255 4.758z" fill="#3a312a"/><path d="m226.264 26.102c-.974 11.564-13.031 13.39-13.031 13.39 10.352.487 12.932 14.059 12.932 14.059.221-9.677 13.328-14.202 13.328-14.202-9.819-.588-13.229-13.247-13.229-13.247z" fill="#d6df58"/><path d="m239.583 37.851c-8.61-.515-11.839-12.025-11.871-12.141-.191-.702-.863-1.171-1.583-1.101-.725.066-1.298.642-1.359 1.367-.86 10.215-11.32 11.963-11.761 12.033-.763.115-1.313.79-1.273 1.56s.657 1.384 1.428 1.421c9.033.425 11.505 12.718 11.529 12.842.137.711.759 1.217 1.472 1.217.042 0 .084-.002.126-.005.764-.064 1.356-.693 1.374-1.459.195-8.508 12.198-12.777 12.319-12.819.676-.235 1.092-.914.995-1.623-.099-.708-.682-1.249-1.396-1.292zm-13.573 10.348c-1.358-3.131-3.711-6.909-7.591-8.878 2.933-1.405 6.413-3.913 8.206-8.274 1.551 3.071 4.202 6.881 8.339 8.724-3.009 1.639-6.927 4.406-8.954 8.428z" fill="#3a312a"/><path d="m204.555 43.083c-.689 8.179-9.217 9.47-9.217 9.47 7.322.344 9.147 9.944 9.147 9.944.156-6.844 9.427-10.045 9.427-10.045-6.945-.415-9.357-9.369-9.357-9.369z" fill="#d6df58"/><path d="m214 50.955c-5.769-.345-7.977-8.186-7.998-8.265-.19-.702-.852-1.169-1.582-1.102-.726.065-1.299.642-1.36 1.368-.579 6.871-7.651 8.067-7.947 8.114-.763.115-1.313.79-1.273 1.561.04.77.657 1.384 1.428 1.421 6.039.284 7.728 8.644 7.744 8.726.136.712.759 1.22 1.472 1.22.042 0 .083-.001.125-.005.765-.063 1.358-.694 1.376-1.461.13-5.709 8.336-8.633 8.417-8.662.676-.234 1.094-.913.996-1.622s-.683-1.25-1.398-1.293zm-9.589 6.796c-.924-1.886-2.341-3.948-4.45-5.281 1.857-1.041 3.7-2.63 4.874-4.917 1.058 1.874 2.656 3.956 4.944 5.225-1.851 1.1-3.991 2.74-5.368 4.973z" fill="#3a312a"/><path d="m204.555 16.425c-.689 8.179-9.217 9.471-9.217 9.471 7.322.344 9.147 9.944 9.147 9.944.156-6.844 9.427-10.045 9.427-10.045-6.945-.416-9.357-9.37-9.357-9.37z" fill="#d6df58"/><path d="m214 24.297c-5.748-.344-7.96-8.128-7.998-8.264-.19-.703-.852-1.168-1.583-1.103-.726.065-1.299.642-1.36 1.368-.579 6.871-7.651 8.067-7.947 8.114-.763.115-1.313.79-1.273 1.56s.657 1.384 1.428 1.421c6.039.284 7.728 8.644 7.744 8.726.136.712.759 1.22 1.472 1.22.042 0 .083-.001.125-.005.765-.063 1.358-.694 1.376-1.461.13-5.708 8.336-8.633 8.417-8.661.676-.234 1.094-.913.996-1.622-.097-.708-.682-1.25-1.397-1.293zm-9.589 6.796c-.924-1.886-2.341-3.948-4.45-5.281 1.857-1.042 3.7-2.631 4.874-4.918 1.058 1.874 2.656 3.956 4.944 5.225-1.851 1.102-3.991 2.741-5.368 4.974z" fill="#3a312a"/><path d="m225.993 103.18v-13.5h-12v13.5h-13.5v12h13.5v13.5h12v-13.5h13.5v-12z" fill="#fae6ca"/><path d="m239.493 101.68h-12v-12c0-.829-.671-1.5-1.5-1.5h-12c-.829 0-1.5.671-1.5 1.5v12h-12c-.829 0-1.5.671-1.5 1.5v12c0 .829.671 1.5 1.5 1.5h12v12c0 .829.671 1.5 1.5 1.5h12c.829 0 1.5-.671 1.5-1.5v-12h12c.829 0 1.5-.671 1.5-1.5v-12c0-.828-.671-1.5-1.5-1.5zm-1.5 12h-12c-.829 0-1.5.671-1.5 1.5v12h-9v-12c0-.829-.671-1.5-1.5-1.5h-12v-9h12c.829 0 1.5-.671 1.5-1.5v-12h9v12c0 .829.671 1.5 1.5 1.5h12z" fill="#3a312a"/><ellipse cx="81.287" cy="65.027" fill="#8ac6dd" rx="48.215" ry="48.215" transform="matrix(.513 -.858 .858 .513 -16.25 101.393)"/><path d="m81.287 15.312c-.001 0 0 0 0 0-13.28 0-25.765 5.171-35.154 14.561-9.39 9.39-14.562 21.875-14.562 35.154 0 27.413 22.302 49.715 49.715 49.715s49.715-22.302 49.715-49.715c.001-27.413-22.301-49.715-49.714-49.715zm0 96.43c-25.759 0-46.715-20.957-46.715-46.715 0-12.478 4.859-24.209 13.683-33.033 8.824-8.823 20.555-13.682 33.033-13.682 25.759 0 46.715 20.956 46.715 46.715-.001 25.759-20.958 46.715-46.716 46.715z" fill="#3a312a"/><path d="m99.241 33.311c-4.329-2.939-10.015-4.41-17.057-4.41-9.047 0-15.758 2.108-20.135 6.324-4.378 4.215-6.889 9.781-7.535 16.694l18.802 2.326c.419-3.78 1.381-6.429 2.883-7.948 1.502-1.518 3.399-2.277 5.694-2.277 2.132 0 3.723.493 4.773 1.478 1.05.986 1.575 2.366 1.575 4.143s-1.308 3.731-3.925 5.863c-4.911 4.071-8.068 6.914-9.473 8.529-1.406 1.616-2.464 3.401-3.175 5.355-.711 1.955-1.066 4.499-1.066 7.632v1.841h18.414c0-2.519.428-4.563 1.284-6.13.855-1.567 2.915-3.642 6.179-6.226 4.684-3.683 7.785-6.8 9.304-9.353 1.518-2.552 2.277-5.201 2.277-7.948 0-6.621-2.94-11.92-8.819-15.893z" fill="#d6df58"/><path d="m100.083 32.07c-4.563-3.099-10.586-4.669-17.9-4.669-9.405 0-16.53 2.269-21.175 6.744-4.623 4.451-7.311 10.384-7.989 17.635-.075.808.505 1.529 1.31 1.628l18.802 2.326c.4.048.799-.064 1.114-.312s.517-.613.561-1.012c.379-3.416 1.206-5.791 2.459-7.057 1.22-1.233 2.733-1.833 4.628-1.833 1.728 0 2.988.361 3.746 1.071.742.697 1.102 1.694 1.102 3.05 0 1.278-1.166 2.903-3.382 4.708-5.017 4.158-8.173 7.004-9.648 8.699-1.521 1.749-2.682 3.708-3.452 5.827-.767 2.11-1.156 4.85-1.156 8.145v1.841c0 .829.671 1.5 1.5 1.5h18.414c.829 0 1.5-.671 1.5-1.5 0-2.254.371-4.075 1.101-5.412.519-.95 1.944-2.721 5.789-5.766 4.876-3.834 8.038-7.028 9.666-9.765 1.651-2.775 2.488-5.707 2.488-8.715-.001-7.119-3.19-12.885-9.478-17.133zm4.411 24.316c-1.416 2.38-4.425 5.388-8.946 8.944-3.456 2.736-5.603 4.922-6.563 6.682-.793 1.45-1.268 3.245-1.417 5.35h-15.466v-.341c0-2.944.328-5.339.975-7.12.644-1.771 1.618-3.414 2.896-4.883 1.348-1.549 4.477-4.361 9.29-8.351 3.013-2.455 4.478-4.753 4.478-7.026 0-2.198-.689-3.96-2.049-5.237-1.332-1.25-3.284-1.884-5.799-1.884-2.698 0-4.973.916-6.76 2.723-1.543 1.56-2.564 3.968-3.105 7.331l-15.854-1.961c.809-5.857 3.131-10.664 6.916-14.308 4.067-3.918 10.492-5.904 19.094-5.904 6.703 0 12.158 1.396 16.217 4.153 5.49 3.71 8.159 8.503 8.159 14.651 0 2.46-.695 4.876-2.066 7.181z" fill="#3a312a"/><circle cx="79.75" cy="92.68" fill="#d6df58" r="9"/><path d="m79.75 82.18c-5.79 0-10.5 4.71-10.5 10.5 0 5.789 4.71 10.5 10.5 10.5s10.5-4.711 10.5-10.5-4.71-10.5-10.5-10.5zm0 18c-4.136 0-7.5-3.364-7.5-7.5s3.364-7.5 7.5-7.5 7.5 3.364 7.5 7.5-3.364 7.5-7.5 7.5z" fill="#3a312a"/><path d="m212.43 128.21v-11.71h-12c-.83 0-1.5-.67-1.5-1.5v-3.46c-2.51-.42-5.09-.64-7.71-.64-1.44 0-2.86.07-4.26.2 10.26 2.8 19.15 8.91 25.47 17.11zm15-.07v.36c0 .83-.67 1.5-1.5 1.5h-12c-.07 0-.14 0-.2-.02 5.48 7.83 8.7 17.36 8.7 27.63 0 8.21-2.05 15.94-5.68 22.71.15.64.28 1.29.4 1.95.46 2.58-.23 5.21-1.91 7.21-1.66 1.98-4.08 3.11-6.66 3.11h-1.18c-5.69 5.4-12.69 9.42-20.47 11.54 1.41.13 2.84.2 4.28.2 25.76 0 46.72-20.96 46.72-46.72 0-11.16-3.94-21.42-10.5-29.47z" fill="#d34e5c"/></svg>