<svg id="Layer_1" enable-background="new 0 0 256 256" height="512" viewBox="0 0 256 256" width="512" xmlns="http://www.w3.org/2000/svg"><path d="m118.006 183.044h-19.54v-12.693c-5.405 3.745-10.997 5.954-16.424 5.954-5.206 0-10.699-2.231-16.081-6.021h-.331v12.759h-19.552c-16.335 0-29.576 13.234-29.576 29.56v26.788h131.08v-26.788c0-16.325-13.241-29.559-29.576-29.559z" fill="#fce8cb"/><path d="m118.006 181.544h-18.04v-11.193c0-.558-.309-1.07-.804-1.329-.494-.259-1.091-.223-1.55.096-5.446 3.774-10.685 5.688-15.569 5.688-4.681 0-9.801-1.934-15.217-5.748-.253-.178-.555-.273-.864-.273h-.331c-.829 0-1.5.671-1.5 1.5v11.259h-18.053c-17.135 0-31.076 13.934-31.076 31.061v26.788c0 .829.671 1.5 1.5 1.5h44.913c.829 0 1.5-.671 1.5-1.5s-.671-1.5-1.5-1.5h-43.413v-25.288c0-15.473 12.595-28.061 28.076-28.061h19.552c.829 0 1.5-.671 1.5-1.5v-10.177c5.203 3.279 10.21 4.939 14.913 4.939 4.779 0 9.789-1.576 14.924-4.691v9.93c0 .829.671 1.5 1.5 1.5h19.54c15.481 0 28.076 12.588 28.076 28.061v25.288h-69.893c-.829 0-1.5.671-1.5 1.5s.671 1.5 1.5 1.5h71.392c.828 0 1.5-.671 1.5-1.5v-26.788c0-17.129-13.94-31.062-31.076-31.062z" fill="#3a312a"/><path d="m118.007 183.035h-4.675l.122.088-20.325 26.943-10.489-7.898-10.489 7.898-20.325-26.943.121-.088h-5.869c-16.335 0-29.576 13.234-29.576 29.561v26.799h131.08v-26.799c0-16.327-13.24-29.561-29.575-29.561z" fill="#d7e057"/><path d="m118.006 181.535h-4.675c-.65 0-1.225.418-1.427 1.036-.019.058-.034.115-.045.173l-19.027 25.222-9.292-6.997c-.534-.402-1.271-.402-1.805 0l-9.291 6.997-19.027-25.223c-.012-.059-.027-.117-.045-.174-.202-.618-.777-1.035-1.426-1.035h-5.869c-17.135 0-31.076 13.933-31.076 31.06v26.799c0 .829.671 1.5 1.5 1.5h44.913c.829 0 1.5-.671 1.5-1.5s-.671-1.5-1.5-1.5h-43.412v-25.299c0-15.473 12.595-28.06 28.076-28.06h4.934l19.941 26.435c.498.662 1.439.793 2.1.295l9.586-7.219 9.586 7.219c.662.498 1.602.366 2.1-.295l19.942-26.435h3.739c15.481 0 28.076 12.588 28.076 28.06v25.299h-69.892c-.829 0-1.5.671-1.5 1.5s.671 1.5 1.5 1.5h71.392c.828 0 1.5-.671 1.5-1.5v-26.799c0-17.125-13.94-31.059-31.076-31.059z" fill="#3a312a"/><ellipse clip-rule="evenodd" cx="31.257" cy="109.765" fill="#fce8cb" fill-rule="evenodd" rx="11.631" ry="11.637" transform="matrix(.003 -1 1 .003 -78.588 140.743)"/><path d="m31.256 96.634c-7.244 0-13.137 5.891-13.137 13.131 0 7.241 5.894 13.131 13.137 13.131 7.244 0 13.138-5.891 13.138-13.131 0-7.241-5.894-13.131-13.138-13.131zm0 23.262c-5.59 0-10.137-4.545-10.137-10.131s4.547-10.131 10.137-10.131 10.138 4.545 10.138 10.131c0 5.587-4.548 10.131-10.138 10.131z" fill="#3a312a"/><ellipse clip-rule="evenodd" cx="132.831" cy="109.765" fill="#fce8cb" fill-rule="evenodd" rx="11.631" ry="11.637" transform="matrix(.001 -1 1 .001 22.898 242.458)"/><path d="m132.831 96.634c-7.244 0-13.138 5.891-13.138 13.131 0 7.241 5.893 13.131 13.138 13.131 7.244 0 13.138-5.891 13.138-13.131 0-7.241-5.894-13.131-13.138-13.131zm0 23.262c-5.59 0-10.138-4.545-10.138-10.131s4.548-10.131 10.138-10.131 10.138 4.545 10.138 10.131c0 5.587-4.548 10.131-10.138 10.131z" fill="#3a312a"/><path d="m82.044 52.556c-28.492 0-51.59 23.086-51.59 51.563s28.538 72.188 51.59 72.188c24.149 0 51.59-43.711 51.59-72.188 0-28.478-23.098-51.563-51.59-51.563z" fill="#fce8cb"/><path d="m82.044 51.056c-29.274 0-53.09 23.804-53.09 53.063 0 13.838 6.674 32.087 17.417 47.627 11.283 16.319 24.618 26.062 35.673 26.062 11.638 0 24.793-9.502 36.09-26.07 10.486-15.377 17-33.623 17-47.618 0-29.26-23.816-53.064-53.09-53.064zm33.612 98.991c-10.572 15.504-23.137 24.76-33.612 24.76-10.07 0-22.483-9.259-33.206-24.768-10.415-15.064-16.884-32.66-16.884-45.921 0-27.605 22.47-50.063 50.09-50.063s50.09 22.458 50.09 50.063c0 13.425-6.314 31.024-16.478 45.929z" fill="#3a312a"/><path d="m63.83 98.504c-2.781 0-5.035 2.253-5.035 5.033s2.254 5.033 5.035 5.033 5.035-2.253 5.035-5.033-2.254-5.033-5.035-5.033z" fill="#3a312a"/><path d="m100.258 98.504c-2.781 0-5.035 2.253-5.035 5.033s2.254 5.033 5.035 5.033 5.036-2.253 5.036-5.033c-.001-2.78-2.255-5.033-5.036-5.033z" fill="#3a312a"/><path d="m53.766 112.018c-4.79 0-8.674 2.902-8.674 6.481s3.884 6.481 8.674 6.481c4.791 0 8.674-2.902 8.674-6.481s-3.884-6.481-8.674-6.481z" fill="#f5978a"/><path d="m110.322 112.018c-4.791 0-8.674 2.902-8.674 6.481s3.884 6.481 8.674 6.481 8.674-2.902 8.674-6.481-3.884-6.481-8.674-6.481z" fill="#f5978a"/><path d="m136.037 92.2c0-28.18-23.907-51.025-53.398-51.025s-53.397 22.845-53.397 51.026c0 2.982.54 5.205 1.543 7.981.473 1.309 8.119-2.871 8.77-3.329 3.256-2.291 5.916-5.396 7.905-8.829.822-1.427 1.508-2.88 2.06-4.333 1.76-4.635 6.542-17.533 11.398-16.521 6.512 1.357 13.892 2.123 21.721 2.123s15.21-.767 21.722-2.123c4.856-1.012 9.638 11.886 11.398 16.521.552 1.453 1.237 2.905 2.06 4.333 3.285 5.679 8.833 11.086 15.583 12.069.017-.326.429-.437.736-.548 2.209-.803 1.899-5.574 1.899-7.345z" fill="#87796f"/><path d="m137.543 92.775-.006-.575c0-28.962-24.627-52.525-54.898-52.525-30.27 0-54.897 23.563-54.897 52.526 0 3.311.625 5.704 1.632 8.491.196.542.635.955 1.206 1.135.187.059.404.086.646.086 2.854 0 9.131-3.79 9.193-3.834 3.258-2.293 6.142-5.51 8.341-9.308.848-1.472 1.575-3.002 2.162-4.549l.11-.29c5.286-13.943 8.268-15.567 9.58-15.295 6.865 1.43 14.276 2.155 22.027 2.155s15.163-.725 22.028-2.155c1.306-.271 4.292 1.353 9.579 15.295l.11.29c.587 1.547 1.315 3.078 2.164 4.552 4.103 7.094 10.333 11.88 16.664 12.803.417.06.842-.057 1.169-.325.103-.084.193-.182.27-.288.014-.005.024-.008.025-.009 2.998-1.088 2.931-5.702 2.895-8.18zm-3.994 5.387c-.149.052-.415.146-.69.314-5.174-1.059-10.263-5.191-13.74-11.201-.768-1.334-1.427-2.719-1.958-4.117l-.11-.29c-3.454-9.11-7.708-18.271-12.996-17.167-6.664 1.388-13.87 2.092-21.416 2.092s-14.752-.704-21.416-2.092c-5.294-1.1-9.543 8.059-12.996 17.167l-.11.289c-.531 1.398-1.189 2.783-1.955 4.114-1.981 3.421-4.565 6.31-7.466 8.352-.896.608-5.027 2.73-6.794 3.213-.724-2.139-1.16-4.09-1.161-6.636 0-27.309 23.281-49.526 51.897-49.526 28.617 0 51.898 22.217 51.898 49.525l.007.618c.063 4.314-.548 5.183-.994 5.345z" fill="#3a312a"/><path d="m60.663 175.752h13.186v33.749h-13.186z" fill="#87796f" transform="matrix(.799 -.602 .602 .799 -102.36 79.231)"/><path d="m83.88 201.229-20.319-26.947c-.499-.661-1.44-.793-2.1-.295l-10.532 7.933c-.318.24-.528.595-.583.99-.056.394.048.794.288 1.111l20.319 26.948c.295.391.744.597 1.199.597.314 0 .631-.098.901-.302l10.532-7.933c.318-.24.528-.596.583-.99s-.048-.794-.288-1.112zm-11.435 6.737-18.513-24.552 8.136-6.128 18.513 24.551z" fill="#3a312a"/><path d="m81.148 186.033h33.749v13.186h-33.749z" fill="#87796f" transform="matrix(.602 -.799 .799 .602 -114.796 154.921)"/><g fill="#3a312a"><path d="m114.933 182.911c-.055-.394-.265-.75-.583-.99l-10.532-7.933c-.66-.498-1.602-.366-2.1.295l-20.319 26.947c-.24.317-.343.717-.288 1.111s.265.75.583.99l10.532 7.933c.27.204.587.302.901.302.455 0 .904-.206 1.199-.597l20.318-26.947c.241-.317.344-.717.289-1.111zm-22.099 25.055-8.136-6.129 18.512-24.551 8.136 6.128z"/><path d="m41.055 216.722c-.829 0-1.5.671-1.5 1.5v21.173c0 .829.671 1.5 1.5 1.5s1.5-.671 1.5-1.5v-21.173c0-.828-.671-1.5-1.5-1.5z"/><path d="m124.223 216.722c-.829 0-1.5.671-1.5 1.5v21.173c0 .829.671 1.5 1.5 1.5s1.5-.671 1.5-1.5v-21.173c0-.828-.671-1.5-1.5-1.5z"/><path d="m96.824 135.671c-.774-.29-1.64.102-1.931.878-1.023 2.73-5.026 7.894-12.85 7.894-6.113 0-10.332-2.621-12.901-8.013-.356-.748-1.251-1.066-1.999-.709-.748.356-1.065 1.251-.709 1.999 3.073 6.452 8.325 9.723 15.609 9.723 8.225 0 13.883-5.102 15.66-9.842.29-.775-.103-1.639-.879-1.93z"/></g><path d="m82.042 16.5c-1.5 0-40.5 16.865-40.5 31.5s18.132 26.5 40.5 26.5c22.367 0 40.5-11.865 40.5-26.5s-40-31.5-40.5-31.5z" fill="#87796f"/><path d="m103.252 25.476c-9.394-5.644-20.312-10.476-21.21-10.476-2.069 0-42 17.19-42 33 0 15.44 18.841 28 42 28s42-12.56 42-28c0-6.658-6.994-14.236-20.79-22.524zm-21.21 47.524c-21.505 0-39-11.215-39-25 0-12.698 34.288-28.57 38.922-29.945 4.641 1.726 39.078 17.491 39.078 29.945 0 13.785-17.495 25-39 25z" fill="#3a312a"/><path d="m181.983 176.922c-.974 11.564-13.031 13.389-13.031 13.389 10.352.487 12.932 14.059 12.932 14.059.221-9.677 13.328-14.202 13.328-14.202-9.819-.587-13.229-13.246-13.229-13.246z" fill="#d7e057"/><path d="m195.302 188.671c-8.61-.515-11.839-12.024-11.87-12.141-.191-.702-.852-1.161-1.584-1.102-.725.066-1.298.642-1.359 1.367-.86 10.215-11.319 11.963-11.761 12.033-.763.115-1.313.79-1.273 1.561.04.77.657 1.384 1.428 1.421 9.033.425 11.505 12.718 11.528 12.842.138.712.76 1.217 1.473 1.217.042 0 .084-.001.126-.005.765-.064 1.357-.693 1.375-1.46.193-8.508 12.198-12.777 12.319-12.819.676-.235 1.092-.914.994-1.622s-.682-1.249-1.396-1.292zm-13.574 10.347c-1.357-3.13-3.711-6.908-7.591-8.878 2.932-1.404 6.412-3.914 8.206-8.274 1.552 3.071 4.201 6.881 8.339 8.724-3.009 1.641-6.926 4.406-8.954 8.428z" fill="#3a312a"/><path d="m160.273 193.903c-.689 8.179-9.217 9.471-9.217 9.471 7.322.344 9.147 9.944 9.147 9.944.156-6.844 9.427-10.045 9.427-10.045-6.945-.416-9.357-9.37-9.357-9.37z" fill="#d7e057"/><path d="m169.72 201.774c-5.748-.344-7.961-8.127-7.998-8.263-.19-.703-.864-1.164-1.582-1.103-.726.065-1.3.642-1.361 1.368-.579 6.87-7.651 8.066-7.947 8.113-.763.115-1.313.79-1.273 1.561.04.77.657 1.384 1.428 1.421 6.039.284 7.728 8.644 7.744 8.726.136.712.759 1.22 1.473 1.22.041 0 .083-.001.125-.005.765-.063 1.358-.694 1.376-1.461.13-5.709 8.336-8.634 8.416-8.662.677-.234 1.094-.913.997-1.622-.099-.708-.684-1.25-1.398-1.293zm-9.59 6.797c-.924-1.886-2.341-3.948-4.45-5.281 1.857-1.041 3.7-2.63 4.874-4.917 1.058 1.874 2.656 3.955 4.944 5.225-1.851 1.1-3.991 2.74-5.368 4.973z" fill="#3a312a"/><path d="m160.273 167.245c-.689 8.179-9.217 9.471-9.217 9.471 7.322.344 9.147 9.944 9.147 9.944.156-6.845 9.427-10.045 9.427-10.045-6.945-.416-9.357-9.37-9.357-9.37z" fill="#d7e057"/><path d="m169.72 175.117c-5.769-.345-7.977-8.186-7.999-8.265-.189-.702-.864-1.162-1.581-1.102-.726.065-1.3.642-1.361 1.368-.579 6.871-7.651 8.067-7.947 8.114-.763.115-1.313.79-1.273 1.561.04.77.657 1.384 1.428 1.421 6.039.284 7.728 8.644 7.744 8.726.136.712.759 1.22 1.473 1.22.041 0 .083-.002.125-.005.765-.064 1.358-.694 1.376-1.461.13-5.709 8.335-8.633 8.416-8.662.677-.234 1.094-.913.997-1.622-.099-.708-.684-1.25-1.398-1.293zm-9.59 6.797c-.924-1.886-2.341-3.948-4.45-5.281 1.857-1.041 3.7-2.63 4.874-4.918 1.058 1.874 2.656 3.956 4.944 5.225-1.851 1.101-3.991 2.741-5.368 4.974z" fill="#3a312a"/><path d="m194.777 16.515c-12.051 0-22.98 4.197-31.022 11.008l-9.648 11.952c-2.594 4.977-4.051 10.508-4.051 16.341 0 9.912 4.185 18.961 11.075 25.875l-7.066 17.797c-.678 1.706.945 3.428 2.69 2.854l26.205-8.621c3.766.905 7.725 1.397 11.818 1.397 24.699 0 44.721-17.596 44.721-39.302-.001-21.705-20.024-39.301-44.722-39.301z" fill="#8ac6dd"/><path d="m194.777 15.015c-11.979 0-23.341 4.036-31.992 11.364-.632.536-.71 1.482-.175 2.114.536.632 1.481.71 2.114.175 8.109-6.87 18.782-10.653 30.053-10.653 23.832 0 43.221 16.958 43.221 37.802s-19.389 37.801-43.221 37.801c-3.866 0-7.725-.456-11.468-1.356-.271-.065-.554-.054-.819.034l-26.204 8.621c-.352.115-.585-.061-.694-.176-.107-.115-.269-.358-.133-.699l7.066-17.797c.22-.556.09-1.189-.332-1.612-6.859-6.884-10.638-15.697-10.638-24.816 0-5.441 1.306-10.706 3.881-15.648.383-.735.098-1.641-.637-2.023-.735-.384-1.64-.098-2.023.637-2.801 5.374-4.221 11.106-4.221 17.035 0 9.607 3.835 18.882 10.822 26.225l-6.708 16.893c-.53 1.336-.247 2.816.738 3.863.709.753 1.665 1.157 2.654 1.157.386 0 .777-.061 1.161-.188l25.803-8.489c3.842.889 7.792 1.34 11.751 1.34 25.486 0 46.221-18.303 46.221-40.801.001-22.5-20.733-40.803-46.22-40.803z" fill="#3a312a"/><path d="m219.136 36.386h-47.305c-.828 0-1.5.671-1.5 1.5s.672 1.5 1.5 1.5h47.305c.828 0 1.5-.671 1.5-1.5s-.672-1.5-1.5-1.5z" fill="#3a312a"/><path d="m224.05 51.603h-58.905c-.828 0-1.5.671-1.5 1.5s.672 1.5 1.5 1.5h58.905c.828 0 1.5-.671 1.5-1.5s-.672-1.5-1.5-1.5z" fill="#3a312a"/><path d="m219.136 66.821h-47.305c-.828 0-1.5.671-1.5 1.5s.672 1.5 1.5 1.5h47.305c.828 0 1.5-.671 1.5-1.5s-.672-1.5-1.5-1.5z" fill="#3a312a"/><path d="m200.295 105.5h9.906v134h-9.906z" fill="#87796f"/><path d="m210.201 104h-9.906c-.828 0-1.5.671-1.5 1.5v134c0 .829.672 1.5 1.5 1.5h9.906c.828 0 1.5-.671 1.5-1.5v-134c0-.829-.672-1.5-1.5-1.5zm-1.5 134h-6.906v-131h6.906z" fill="#3a312a"/><path d="m233.182 115.5h-55.868c-3.488 0-6.316 2.828-6.316 6.316v38.055c0 3.488 2.828 6.316 6.316 6.316h55.868c3.488 0 6.316-2.828 6.316-6.316v-38.055c0-3.488-2.828-6.316-6.316-6.316z" fill="#f16c7a"/><path d="m233.182 114h-55.867c-4.31 0-7.816 3.506-7.816 7.816v38.055c0 4.31 3.507 7.816 7.816 7.816h55.867c4.31 0 7.816-3.506 7.816-7.816v-38.055c0-4.31-3.507-7.816-7.816-7.816zm4.816 45.871c0 2.656-2.16 4.816-4.816 4.816h-55.867c-2.656 0-4.816-2.161-4.816-4.816v-38.055c0-2.656 2.16-4.816 4.816-4.816h55.867c2.656 0 4.816 2.161 4.816 4.816z" fill="#3a312a"/><path d="m197.436 129.915h-7.683l-8.567 22.795h7.192l1.11-3.763h7.997l1.141 3.763h7.376zm-6.418 14.103 2.489-8.195 2.516 8.195z" fill="#3a312a"/><path d="m228.751 136.819c-.373-1.389-.974-2.607-1.804-3.654-.829-1.047-1.879-1.85-3.148-2.41-1.27-.56-2.936-.839-4.999-.839h-10.465v22.795h10.465c1.253 0 2.653-.207 4.198-.622 1.13-.3 2.187-.904 3.172-1.811s1.755-2.031 2.31-3.374c.555-1.342.832-3.232.832-5.667-.002-1.557-.188-3.029-.561-4.418zm-7.044 8.513c-.353.814-.84 1.384-1.462 1.71-.622.327-1.669.49-3.141.49h-1.727v-12.455h1.757c1.824 0 3.131.446 3.918 1.337.788.892 1.182 2.545 1.182 4.96.001 1.826-.175 3.145-.527 3.958z" fill="#3a312a"/><path d="m194.779 18.01c-3.23 0-6.42.31-9.51.92 11.67 2.29 21.58 8.74 27.57 17.46h6.3c.83 0 1.5.67 1.5 1.5 0 .82-.67 1.5-1.5 1.5h-4.44c2.09 3.77 3.48 7.88 4.03 12.21h5.32c.83 0 1.5.67 1.5 1.5s-.67 1.5-1.5 1.5h-5.07c.01.4.02.81.02 1.22 0 3.82-.65 7.52-1.87 11h2.01c.83 0 1.5.67 1.5 1.5s-.67 1.5-1.5 1.5h-3.21c-5.23 11.42-16.65 20.11-30.62 22.87 3.11.62 6.28.93 9.47.93 23.83 0 43.22-16.96 43.22-37.8 0-20.85-19.39-37.81-43.22-37.81z" fill="#6ca8bf"/></svg>