<svg id="Layer_1" enable-background="new 0 0 256 256" height="512" viewBox="0 0 256 256" width="512" xmlns="http://www.w3.org/2000/svg"><path d="m192.203 136.967c-.974 11.564-13.031 13.39-13.031 13.39 10.352.487 12.932 14.059 12.932 14.059.221-9.677 13.328-14.202 13.328-14.202-9.819-.587-13.229-13.247-13.229-13.247z" fill="#d7e057"/><path d="m205.521 148.716c-8.609-.515-11.838-12.025-11.87-12.141-.191-.703-.866-1.168-1.583-1.101-.725.066-1.298.642-1.359 1.367-.86 10.215-11.32 11.963-11.761 12.033-.763.115-1.313.79-1.273 1.561.04.77.657 1.384 1.428 1.421 9.033.425 11.505 12.718 11.529 12.842.137.711.759 1.217 1.472 1.217.042 0 .084-.001.126-.005.764-.064 1.357-.693 1.374-1.46.195-8.509 12.198-12.777 12.319-12.819.676-.235 1.092-.914.995-1.622-.1-.709-.683-1.25-1.397-1.293zm-13.573 10.348c-1.357-3.13-3.711-6.908-7.591-8.878 2.933-1.405 6.413-3.913 8.207-8.274 1.551 3.071 4.201 6.881 8.338 8.724-3.009 1.639-6.927 4.406-8.954 8.428z" fill="#3a312a"/><path d="m170.493 153.948c-.689 8.179-9.217 9.47-9.217 9.47 7.322.344 9.147 9.944 9.147 9.944.156-6.844 9.427-10.045 9.427-10.045-6.945-.415-9.357-9.369-9.357-9.369z" fill="#d7e057"/><path d="m179.939 161.82c-5.77-.345-7.977-8.185-7.999-8.265-.19-.702-.852-1.162-1.582-1.102-.726.065-1.299.642-1.36 1.368-.579 6.871-7.651 8.067-7.947 8.114-.763.115-1.313.79-1.273 1.561.04.77.657 1.384 1.428 1.421 6.039.284 7.728 8.644 7.744 8.726.135.712.759 1.22 1.472 1.22.042 0 .083-.001.125-.005.765-.063 1.358-.694 1.376-1.461.13-5.709 8.336-8.633 8.417-8.662.677-.234 1.094-.913.997-1.622-.099-.709-.683-1.25-1.398-1.293zm-9.589 6.796c-.924-1.886-2.341-3.948-4.45-5.281 1.856-1.041 3.699-2.63 4.873-4.917 1.057 1.874 2.655 3.955 4.944 5.225-1.85 1.1-3.991 2.74-5.367 4.973z" fill="#3a312a"/><path d="m170.493 127.29c-.689 8.179-9.217 9.471-9.217 9.471 7.322.344 9.147 9.944 9.147 9.944.156-6.845 9.427-10.045 9.427-10.045-6.945-.416-9.357-9.37-9.357-9.37z" fill="#d7e057"/><path d="m179.939 135.163c-5.77-.345-7.977-8.185-7.999-8.265-.19-.702-.852-1.161-1.582-1.102-.726.065-1.299.642-1.36 1.368-.579 6.871-7.651 8.067-7.947 8.114-.763.115-1.313.79-1.273 1.561.04.77.657 1.384 1.428 1.421 6.039.284 7.728 8.644 7.744 8.726.135.712.759 1.22 1.472 1.22.042 0 .083-.002.125-.005.765-.064 1.358-.694 1.376-1.461.13-5.709 8.336-8.633 8.417-8.662.677-.234 1.094-.913.997-1.622-.099-.709-.683-1.25-1.398-1.293zm-9.589 6.796c-.924-1.886-2.341-3.948-4.45-5.281 1.856-1.041 3.699-2.63 4.873-4.917 1.057 1.874 2.655 3.956 4.944 5.225-1.85 1.1-3.991 2.74-5.367 4.973z" fill="#3a312a"/><path d="m25.947 81.333v71.037 15.26 40.37h110.724v-126.667z" fill="#87796f"/><path d="m136.671 79.833h-110.724c-.829 0-1.5.671-1.5 1.5v71.036c0 .829.671 1.5 1.5 1.5s1.5-.671 1.5-1.5v-69.536h107.724v123.667h-107.724v-38.87c0-.829-.671-1.5-1.5-1.5s-1.5.671-1.5 1.5v40.37c0 .829.671 1.5 1.5 1.5h110.724c.829 0 1.5-.671 1.5-1.5v-126.667c0-.828-.671-1.5-1.5-1.5z" fill="#3a312a"/><path d="m118.006 183.089h-19.54v-12.693c-5.405 3.745-10.997 5.954-16.424 5.954-5.206 0-10.699-2.232-16.081-6.021h-.331v12.759h-19.552c-16.335 0-29.576 13.234-29.576 29.56v26.788h131.08v-26.786c0-16.327-13.241-29.561-29.576-29.561z" fill="#fce8cb"/><path d="m118.006 181.589h-18.04v-11.193c0-.558-.31-1.07-.804-1.329-.495-.259-1.091-.223-1.55.096-5.446 3.774-10.684 5.688-15.569 5.688-4.68 0-9.8-1.934-15.218-5.748-.252-.178-.554-.273-.863-.273h-.331c-.829 0-1.5.671-1.5 1.5v11.259h-18.053c-17.135 0-31.076 13.934-31.076 31.06v26.788c0 .829.671 1.5 1.5 1.5h131.08c.829 0 1.5-.671 1.5-1.5v-26.787c0-17.127-13.94-31.061-31.076-31.061zm28.076 56.349h-128.08v-25.288c0-15.473 12.595-28.06 28.076-28.06h19.551c.829 0 1.5-.671 1.5-1.5v-10.177c5.204 3.279 10.211 4.939 14.913 4.939 4.779 0 9.789-1.576 14.924-4.691v9.93c0 .829.671 1.5 1.5 1.5h19.54c15.481 0 28.076 12.588 28.076 28.06z" fill="#3a312a"/><path d="m118.007 183.081h-4.675l.122.089-20.325 26.943-10.489-7.898-10.488 7.898-20.325-26.943.121-.089h-5.869c-16.335 0-29.576 13.234-29.576 29.561v26.799h131.08v-26.799c0-16.328-13.241-29.561-29.576-29.561z" fill="#f16c7a"/><path d="m118.007 181.581h-4.675c-.65 0-1.225.418-1.427 1.036-.019.058-.033.115-.045.173l-19.027 25.222-9.292-6.997c-.534-.402-1.271-.402-1.805 0l-9.291 6.997-19.026-25.222c-.011-.058-.026-.116-.045-.173-.201-.618-.777-1.036-1.427-1.036h-5.869c-17.135 0-31.076 13.934-31.076 31.06v26.799c0 .829.671 1.5 1.5 1.5h131.08c.829 0 1.5-.671 1.5-1.5v-26.799c.001-17.127-13.94-31.06-31.075-31.06zm28.076 56.359h-128.081v-25.299c0-15.473 12.595-28.06 28.076-28.06h4.934l19.942 26.435c.498.662 1.439.793 2.1.295l9.586-7.219 9.586 7.219c.662.498 1.601.366 2.1-.295l19.942-26.435h3.74c15.481 0 28.076 12.588 28.076 28.06v25.299z" fill="#3a312a"/><path clip-rule="evenodd" d="m31.257 98.179c-6.427 0-11.637 5.208-11.637 11.632s5.21 11.631 11.637 11.631 11.638-5.207 11.638-11.631c-.001-6.424-5.211-11.632-11.638-11.632z" fill="#fce8cb" fill-rule="evenodd"/><path d="m31.257 96.679c-7.244 0-13.138 5.891-13.138 13.131 0 7.241 5.894 13.131 13.138 13.131s13.138-5.891 13.138-13.131c-.001-7.24-5.894-13.131-13.138-13.131zm0 23.263c-5.59 0-10.138-4.545-10.138-10.131s4.548-10.131 10.138-10.131 10.138 4.545 10.138 10.131-4.548 10.131-10.138 10.131z" fill="#3a312a"/><path clip-rule="evenodd" d="m132.831 98.179c-6.427 0-11.638 5.208-11.638 11.632s5.21 11.631 11.638 11.631c6.427 0 11.638-5.207 11.638-11.631s-5.211-11.632-11.638-11.632z" fill="#fce8cb" fill-rule="evenodd"/><path d="m132.831 96.679c-7.244 0-13.137 5.891-13.137 13.131 0 7.241 5.894 13.131 13.137 13.131 7.244 0 13.138-5.891 13.138-13.131s-5.894-13.131-13.138-13.131zm0 23.263c-5.59 0-10.137-4.545-10.137-10.131s4.547-10.131 10.137-10.131 10.138 4.545 10.138 10.131-4.548 10.131-10.138 10.131z" fill="#3a312a"/><path d="m82.044 52.601c-28.492 0-51.59 23.086-51.59 51.563 0 28.478 28.539 72.189 51.59 72.189 24.15 0 51.59-43.711 51.59-72.189 0-28.477-23.098-51.563-51.59-51.563z" fill="#fce8cb"/><path d="m82.044 51.101c-29.274 0-53.09 23.804-53.09 53.064 0 13.838 6.674 32.087 17.417 47.626 11.282 16.32 24.618 26.063 35.673 26.063 11.638 0 24.793-9.502 36.09-26.07 10.486-15.377 17-33.624 17-47.618 0-29.261-23.816-53.065-53.09-53.065zm33.612 98.992c-10.572 15.504-23.137 24.76-33.612 24.76-10.07 0-22.483-9.259-33.205-24.768-10.415-15.064-16.885-32.66-16.885-45.92 0-27.605 22.47-50.064 50.09-50.064s50.09 22.459 50.09 50.064c0 13.423-6.314 31.022-16.478 45.928z" fill="#3a312a"/><path d="m63.83 98.549c-2.781 0-5.035 2.253-5.035 5.033s2.254 5.033 5.035 5.033 5.035-2.253 5.035-5.033c0-2.779-2.254-5.033-5.035-5.033z" fill="#3a312a"/><path d="m100.258 98.549c-2.781 0-5.035 2.253-5.035 5.033s2.254 5.033 5.035 5.033 5.036-2.253 5.036-5.033c0-2.779-2.255-5.033-5.036-5.033z" fill="#3a312a"/><path d="m53.766 112.064c-4.791 0-8.674 2.902-8.674 6.481s3.884 6.481 8.674 6.481c4.791 0 8.674-2.902 8.674-6.481 0-3.58-3.883-6.481-8.674-6.481z" fill="#f5978a"/><path d="m110.322 112.064c-4.791 0-8.674 2.902-8.674 6.481s3.884 6.481 8.674 6.481c4.791 0 8.674-2.902 8.674-6.481 0-3.58-3.884-6.481-8.674-6.481z" fill="#f5978a"/><path d="m60.664 175.797h13.186v33.749h-13.186z" fill="#87796f" transform="matrix(.799 -.602 .602 .799 -102.388 79.241)"/><path d="m83.88 201.275-20.319-26.947c-.498-.661-1.439-.792-2.1-.295l-10.532 7.934c-.318.24-.528.596-.583.99-.056.394.048.794.288 1.112l20.319 26.947c.295.391.744.597 1.199.597.314 0 .631-.098.901-.302l10.532-7.933c.318-.24.528-.595.583-.99s-.048-.795-.288-1.113zm-11.435 6.736-18.513-24.551 8.136-6.129 18.513 24.552z" fill="#3a312a"/><path d="m81.148 186.078h33.749v13.186h-33.749z" fill="#87796f" transform="matrix(.602 -.799 .799 .602 -114.832 154.938)"/><g fill="#3a312a"><path d="m114.933 182.956c-.055-.394-.265-.75-.583-.99l-10.532-7.934c-.661-.497-1.601-.366-2.1.295l-20.319 26.947c-.24.318-.343.718-.288 1.112.055.395.265.75.583.99l10.532 7.933c.27.204.587.302.901.302.455 0 .904-.206 1.199-.597l20.319-26.947c.24-.317.344-.717.288-1.111zm-22.099 25.055-8.136-6.128 18.513-24.552 8.136 6.129z"/><path d="m41.055 216.768c-.829 0-1.5.671-1.5 1.5v21.173c0 .829.671 1.5 1.5 1.5s1.5-.671 1.5-1.5v-21.173c0-.829-.671-1.5-1.5-1.5z"/><path d="m124.224 216.768c-.829 0-1.5.671-1.5 1.5v21.173c0 .829.671 1.5 1.5 1.5s1.5-.671 1.5-1.5v-21.173c0-.829-.672-1.5-1.5-1.5z"/><path d="m96.824 135.716c-.774-.29-1.64.102-1.931.878-1.023 2.73-5.026 7.895-12.85 7.895-6.113 0-10.332-2.621-12.901-8.013-.356-.748-1.252-1.066-1.999-.709-.748.356-1.065 1.251-.709 1.999 3.073 6.452 8.325 9.723 15.609 9.723 8.225 0 13.883-5.102 15.66-9.842.29-.775-.103-1.64-.879-1.931z"/></g><path d="m124.492 44.442c-10.84-11.446-26.181-18.586-43.186-18.586-6.36 0-12.483.999-18.22 2.856 4.544 10.533 9.916 20.648 17.232 29.453 3.363 4.037 7.091 7.763 11.033 11.221 3.212 2.856 6.575 5.551 9.991 8.139 11.645 8.837 24.215 16.654 37.428 23.021 1.3-4.875 1.988-9.996 1.988-15.279-.001-15.817-6.179-30.184-16.266-40.825z" fill="#87796f"/><path d="m125.581 43.411c-11.637-12.288-27.361-19.055-44.276-19.055-6.394 0-12.68.985-18.682 2.929-.402.13-.73.424-.904.809s-.178.825-.011 1.213c5.394 12.501 10.94 21.976 17.456 29.818 3.216 3.862 6.984 7.693 11.189 11.382 2.947 2.621 6.246 5.308 10.081 8.213 12.024 9.124 24.702 16.922 37.683 23.177.206.099.429.149.651.149.213 0 .427-.045.626-.137.406-.187.708-.545.823-.977 1.353-5.072 2.039-10.343 2.039-15.666.001-15.648-5.922-30.512-16.675-41.855zm12.181 54.974c-12.223-6.028-24.162-13.442-35.515-22.057-3.773-2.858-7.012-5.496-9.908-8.071-4.096-3.592-7.754-7.311-10.869-11.051-6.06-7.293-11.273-16.08-16.339-27.555 5.222-1.524 10.655-2.295 16.174-2.295 16.083 0 31.033 6.435 42.098 18.119 10.223 10.784 15.853 24.915 15.853 39.791.001 4.444-.502 8.848-1.494 13.119z" fill="#3a312a"/><path d="m81.306 25.856c-6.36 0-12.483.999-18.22 2.856-23.914 7.677-41.22 30.097-41.22 56.554 0 5.594.773 11.006 2.224 16.138 23.452-8.601 46.366-18.93 67.261-32.019 11.785-7.376 22.915-15.623 33.142-24.943-10.841-11.446-26.182-18.586-43.187-18.586z" fill="#87796f"/><path d="m125.581 43.411c-11.637-12.288-27.361-19.055-44.276-19.055-6.394 0-12.68.985-18.679 2.928-25.277 8.115-42.261 31.416-42.261 57.982 0 5.625.767 11.191 2.28 16.546.113.402.39.738.761.928.213.109.447.164.682.164.174 0 .349-.03.517-.092 26.309-9.648 48.402-20.167 67.541-32.155 12.303-7.701 23.526-16.147 33.356-25.105.298-.271.474-.651.489-1.054s-.133-.794-.41-1.087zm-35.027 24.703c-18.586 11.643-40.006 21.893-65.44 31.313-1.161-4.604-1.748-9.36-1.748-14.162 0-25.257 16.147-47.41 40.182-55.126 5.704-1.847 11.679-2.783 17.758-2.783 15.57 0 30.079 6.03 41.027 17.017-9.421 8.452-20.104 16.434-31.779 23.741z" fill="#3a312a"/><path d="m194.777 16.56c-12.051 0-22.981 4.197-31.022 11.008l-9.648 11.952c-2.594 4.978-4.051 10.508-4.051 16.341 0 9.912 4.185 18.961 11.075 25.875l-7.066 17.797c-.678 1.707.945 3.428 2.69 2.854l26.205-8.621c3.766.905 7.725 1.397 11.818 1.397 24.699 0 44.721-17.596 44.721-39.302-.001-21.705-20.024-39.301-44.722-39.301z" fill="#8ac6dd"/><path d="m194.777 15.06c-11.978 0-23.339 4.036-31.992 11.364-.632.535-.711 1.482-.175 2.114.535.632 1.481.711 2.114.175 8.111-6.87 18.785-10.653 30.053-10.653 23.832 0 43.221 16.958 43.221 37.802s-19.389 37.801-43.221 37.801c-3.865 0-7.724-.456-11.467-1.356-.271-.065-.555-.054-.819.034l-26.205 8.621c-.349.114-.584-.061-.693-.176-.108-.115-.27-.359-.134-.7l7.066-17.797c.221-.556.09-1.189-.331-1.612-6.86-6.884-10.638-15.697-10.638-24.816 0-5.441 1.306-10.707 3.881-15.648.383-.735.098-1.641-.637-2.023-.735-.385-1.64-.098-2.023.637-2.801 5.374-4.221 11.105-4.221 17.035 0 9.607 3.835 18.882 10.822 26.225l-6.708 16.893c-.531 1.336-.247 2.817.738 3.863.709.753 1.664 1.157 2.653 1.157.386 0 .777-.061 1.161-.188l25.803-8.489c3.842.889 7.792 1.34 11.751 1.34 25.486 0 46.221-18.303 46.221-40.801.001-22.499-20.734-40.802-46.22-40.802z" fill="#3a312a"/><path d="m219.136 36.431h-47.305c-.829 0-1.5.671-1.5 1.5s.671 1.5 1.5 1.5h47.305c.829 0 1.5-.671 1.5-1.5s-.671-1.5-1.5-1.5z" fill="#3a312a"/><path d="m224.05 51.648h-58.905c-.829 0-1.5.671-1.5 1.5s.671 1.5 1.5 1.5h58.905c.829 0 1.5-.671 1.5-1.5 0-.828-.672-1.5-1.5-1.5z" fill="#3a312a"/><path d="m219.136 66.866h-47.305c-.829 0-1.5.671-1.5 1.5s.671 1.5 1.5 1.5h47.305c.829 0 1.5-.671 1.5-1.5s-.671-1.5-1.5-1.5z" fill="#3a312a"/><path d="m117.519 219.495c1.056-1.029.473-2.821-.986-3.033l-4.936-.717c-.579-.084-1.08-.448-1.339-.973l-2.208-4.473c-.652-1.322-2.537-1.322-3.19 0l-2.207 4.473c-.259.525-.76.889-1.339.973l-4.936.717c-1.459.212-2.041 2.005-.986 3.033l3.572 3.482c.419.409.61.997.511 1.574l-.843 4.916c-.249 1.453 1.276 2.561 2.58 1.875l4.415-2.321c.518-.272 1.137-.272 1.655 0l4.415 2.321c1.305.686 2.83-.422 2.58-1.875l-.843-4.916c-.099-.577.092-1.166.512-1.574z" fill="#d7e057"/><path d="m118.565 220.569c.9-.877 1.218-2.165.83-3.36-.389-1.196-1.403-2.051-2.646-2.231l-4.937-.717c-.09-.013-.169-.07-.209-.152l-2.208-4.473c-.557-1.127-1.683-1.827-2.94-1.827s-2.383.7-2.94 1.827l-2.207 4.473c-.041.082-.119.139-.211.152l-4.935.717c-1.244.181-2.258 1.036-2.647 2.231-.388 1.195-.07 2.483.83 3.36l3.571 3.482c.066.064.096.156.08.247l-.843 4.916c-.212 1.239.287 2.468 1.304 3.206.575.417 1.247.63 1.924.63.521 0 1.044-.126 1.529-.38l4.414-2.321c.082-.042.179-.042.259 0l4.415 2.321c1.114.586 2.436.489 3.453-.25s1.517-1.967 1.305-3.206l-.843-4.917c-.016-.09.014-.182.08-.246zm-5.666 1.334c-.773.754-1.125 1.838-.942 2.901l.843 4.917c.019.113-.018.205-.111.273-.141.102-.256.04-.293.021l-4.415-2.321c-.477-.251-1.001-.377-1.525-.377-.523 0-1.048.125-1.526.377l-4.415 2.321c-.102.053-.2.046-.293-.021-.14-.102-.118-.23-.11-.273l.843-4.916c.183-1.063-.169-2.148-.943-2.902l-3.572-3.482c-.031-.03-.124-.121-.07-.285.035-.109.111-.173.225-.189l4.935-.717c1.068-.155 1.991-.825 2.469-1.793l2.207-4.473c.102-.206.398-.206.499 0l2.208 4.472c.477.968 1.4 1.639 2.468 1.794l4.936.717c.114.017.189.08.225.189.054.165-.04.255-.07.285z" fill="#3a312a"/><path d="m194.348 18.055c-3.23 0-6.42.31-9.51.92 11.67 2.29 21.58 8.74 27.57 17.46h6.3c.83 0 1.5.67 1.5 1.5 0 .82-.67 1.5-1.5 1.5h-4.44c2.09 3.77 3.48 7.88 4.03 12.21h5.32c.83 0 1.5.67 1.5 1.5s-.67 1.5-1.5 1.5h-5.07c.01.4.02.81.02 1.22 0 3.82-.65 7.52-1.87 11h2.01c.83 0 1.5.67 1.5 1.5s-.67 1.5-1.5 1.5h-3.21c-5.23 11.42-16.65 20.11-30.62 22.87 3.11.62 6.28.93 9.47.93 23.83 0 43.22-16.96 43.22-37.8 0-20.85-19.39-37.81-43.22-37.81z" fill="#6ca8bf"/></svg>