<svg id="Layer_1" enable-background="new 0 0 256 256" height="512" viewBox="0 0 256 256" width="512" xmlns="http://www.w3.org/2000/svg"><path d="m48.521 26.192c-.974 11.564-13.031 13.39-13.031 13.39 10.352.487 12.932 14.059 12.932 14.059.221-9.677 13.328-14.202 13.328-14.202-9.819-.587-13.229-13.247-13.229-13.247z" fill="#d7e057"/><path d="m61.84 37.941c-8.61-.515-11.839-12.024-11.87-12.14-.191-.702-.844-1.158-1.584-1.102-.725.066-1.298.642-1.359 1.367-.86 10.215-11.319 11.963-11.761 12.033-.763.115-1.313.79-1.273 1.561.04.77.657 1.384 1.428 1.421 9.033.425 11.505 12.718 11.528 12.842.138.711.76 1.217 1.473 1.217.042 0 .084-.001.126-.005.765-.064 1.357-.693 1.375-1.46.193-8.509 12.198-12.777 12.319-12.819.676-.235 1.092-.914.994-1.623s-.682-1.249-1.396-1.292zm-13.573 10.348c-1.357-3.131-3.711-6.908-7.591-8.878 2.932-1.405 6.412-3.914 8.206-8.274 1.552 3.071 4.201 6.881 8.339 8.724-3.01 1.639-6.927 4.406-8.954 8.428z" fill="#3a312a"/><path d="m26.811 43.173c-.689 8.179-9.217 9.471-9.217 9.471 7.322.344 9.147 9.944 9.147 9.944.156-6.845 9.427-10.046 9.427-10.046-6.945-.415-9.357-9.369-9.357-9.369z" fill="#d7e057"/><path d="m36.258 51.044c-5.77-.345-7.977-8.185-7.999-8.264-.189-.702-.856-1.16-1.581-1.102-.726.065-1.3.642-1.361 1.368-.579 6.871-7.651 8.066-7.947 8.113-.763.115-1.313.79-1.273 1.56.04.771.657 1.385 1.428 1.421 6.039.284 7.729 8.644 7.744 8.726.136.712.759 1.22 1.473 1.22.041 0 .083-.001.125-.005.765-.064 1.358-.694 1.376-1.461.13-5.709 8.336-8.634 8.416-8.662.677-.234 1.094-.913.997-1.622-.099-.707-.684-1.249-1.398-1.292zm-9.59 6.797c-.924-1.886-2.341-3.948-4.45-5.281 1.857-1.042 3.7-2.631 4.874-4.917 1.058 1.874 2.655 3.955 4.944 5.225-1.85 1.1-3.991 2.74-5.368 4.973z" fill="#3a312a"/><path d="m26.811 16.515c-.689 8.179-9.217 9.471-9.217 9.471 7.322.344 9.147 9.944 9.147 9.944.156-6.844 9.427-10.045 9.427-10.045-6.945-.416-9.357-9.37-9.357-9.37z" fill="#d7e057"/><path d="m36.258 24.387c-5.77-.345-7.977-8.185-7.999-8.265-.189-.702-.856-1.159-1.581-1.102-.726.065-1.3.642-1.361 1.368-.579 6.871-7.651 8.067-7.947 8.114-.763.115-1.313.79-1.273 1.561.04.77.657 1.384 1.428 1.421 6.039.284 7.729 8.644 7.744 8.726.136.713.759 1.22 1.473 1.22.041 0 .083-.002.125-.005.765-.063 1.358-.694 1.376-1.461.13-5.709 8.335-8.633 8.416-8.662.677-.234 1.094-.913.997-1.622-.099-.708-.684-1.25-1.398-1.293zm-9.59 6.797c-.924-1.886-2.341-3.948-4.45-5.281 1.857-1.041 3.7-2.63 4.874-4.917 1.058 1.874 2.656 3.956 4.944 5.225-1.85 1.099-3.991 2.74-5.368 4.973z" fill="#3a312a"/><path d="m95.93 195.392h-15.29v-9.932c-4.229 2.93-8.605 4.659-12.851 4.659-4.073 0-8.371-1.746-12.583-4.711h-.26v9.984h-15.297c-12.781 0-23.142 10.355-23.142 23.13v20.961h102.566v-20.961c0-12.775-10.361-23.13-23.143-23.13z" fill="#fce8cb"/><path d="m95.931 193.892h-13.79v-8.432c0-.558-.31-1.07-.804-1.329-.493-.259-1.092-.223-1.551.096-4.206 2.915-8.242 4.392-11.996 4.392-3.595 0-7.537-1.493-11.72-4.438-.253-.178-.554-.273-.863-.273h-.26c-.828 0-1.5.671-1.5 1.5v8.483h-13.799c-13.588 0-24.642 11.049-24.642 24.63v20.961c0 .829.672 1.5 1.5 1.5h33.868c.828 0 1.5-.671 1.5-1.5s-.672-1.5-1.5-1.5h-32.367v-19.461c0-11.927 9.708-21.63 21.642-21.63h15.299c.828 0 1.5-.671 1.5-1.5v-7.378c3.945 2.394 7.752 3.605 11.343 3.605 3.645 0 7.453-1.15 11.351-3.423v7.196c0 .829.672 1.5 1.5 1.5h15.29c11.934 0 21.642 9.703 21.642 21.63v19.461h-53.629c-.828 0-1.5.671-1.5 1.5s.672 1.5 1.5 1.5h55.127c.828 0 1.5-.671 1.5-1.5v-20.961c0-13.58-11.053-24.629-24.641-24.629z" fill="#3a312a"/><path d="m95.931 195.385h-3.658l.095.069-15.904 21.082-8.207-6.18-8.207 6.18-15.904-21.082.095-.069h-4.592c-12.782 0-23.142 10.355-23.142 23.13v20.969h102.566v-20.969c0-12.775-10.36-23.13-23.142-23.13z" fill="#d7e057"/><path d="m95.931 193.885h-3.658c-.65 0-1.227.419-1.427 1.038-.011.032-.02.064-.028.096l-14.648 19.418-7.01-5.279c-.535-.402-1.27-.402-1.805 0l-7.01 5.279-14.649-19.42c-.008-.033-.018-.065-.028-.098-.201-.617-.777-1.034-1.426-1.034h-4.592c-13.588 0-24.643 11.049-24.643 24.63v20.969c0 .829.672 1.5 1.5 1.5h33.868c.828 0 1.5-.671 1.5-1.5s-.672-1.5-1.5-1.5h-32.368v-19.469c0-11.927 9.709-21.63 21.643-21.63h3.697l15.506 20.555c.498.662 1.438.792 2.1.295l7.305-5.501 7.305 5.501c.661.498 1.601.367 2.1-.295l15.507-20.555h2.763c11.934 0 21.643 9.703 21.643 21.63v19.469h-53.631c-.828 0-1.5.671-1.5 1.5s.672 1.5 1.5 1.5h55.128c.828 0 1.5-.671 1.5-1.5v-20.969c0-13.58-11.054-24.63-24.642-24.63z" fill="#3a312a"/><path clip-rule="evenodd" d="m28.052 128.953c-5.029 0-9.106 4.075-9.106 9.101s4.077 9.101 9.106 9.101 9.106-4.075 9.106-9.101-4.077-9.101-9.106-9.101z" fill="#fce8cb" fill-rule="evenodd"/><path d="m28.052 127.453c-5.849 0-10.606 4.756-10.606 10.601s4.758 10.601 10.606 10.601 10.605-4.756 10.605-10.601-4.758-10.601-10.605-10.601zm0 18.202c-4.194 0-7.606-3.41-7.606-7.601s3.412-7.601 7.606-7.601c4.193 0 7.605 3.41 7.605 7.601s-3.412 7.601-7.605 7.601z" fill="#3a312a"/><ellipse clip-rule="evenodd" cx="107.53" cy="138.054" fill="#fce8cb" fill-rule="evenodd" rx="9.106" ry="9.101"/><path d="m107.53 127.453c-5.848 0-10.605 4.756-10.605 10.601s4.758 10.601 10.605 10.601c5.849 0 10.606-4.756 10.606-10.601s-4.757-10.601-10.606-10.601zm0 18.202c-4.193 0-7.605-3.41-7.605-7.601s3.412-7.601 7.605-7.601c4.194 0 7.606 3.41 7.606 7.601s-3.411 7.601-7.606 7.601z" fill="#3a312a"/><path d="m67.791 93.289c-22.294 0-40.367 18.064-40.367 40.347s22.33 56.485 40.367 56.485c18.896 0 40.368-34.202 40.368-56.485-.001-22.283-18.074-40.347-40.368-40.347z" fill="#fce8cb"/><path d="m67.791 91.79c-23.086 0-41.867 18.772-41.867 41.847 0 10.891 5.244 25.241 13.686 37.452 8.89 12.857 19.425 20.533 28.182 20.533 9.217 0 19.607-7.487 28.509-20.542 8.24-12.083 13.358-26.431 13.358-37.443-.001-23.075-18.782-41.847-41.868-41.847zm26.03 77.6c-8.211 12.042-17.942 19.232-26.03 19.232-7.772 0-17.385-7.192-25.714-19.239-8.113-11.735-13.153-25.433-13.153-35.746 0-21.42 17.436-38.847 38.867-38.847s38.867 17.427 38.867 38.847c0 10.441-4.919 24.141-12.837 35.753z" fill="#3a312a"/><path d="m53.539 129.242c-2.176 0-3.94 1.763-3.94 3.938s1.764 3.938 3.94 3.938 3.94-1.763 3.94-3.938c0-2.174-1.764-3.938-3.94-3.938z" fill="#3a312a"/><path d="m82.043 129.242c-2.176 0-3.94 1.763-3.94 3.938s1.764 3.938 3.94 3.938 3.94-1.763 3.94-3.938c0-2.174-1.764-3.938-3.94-3.938z" fill="#3a312a"/><path d="m45.664 139.817c-3.748 0-6.787 2.27-6.787 5.071s3.039 5.071 6.787 5.071 6.787-2.271 6.787-5.071c.001-2.801-3.038-5.071-6.787-5.071z" fill="#f5978a"/><path d="m89.918 139.817c-3.748 0-6.787 2.27-6.787 5.071s3.039 5.071 6.787 5.071 6.787-2.271 6.787-5.071c0-2.801-3.039-5.071-6.787-5.071z" fill="#f5978a"/><path d="m110.039 124.31c0-22.05-18.706-39.925-41.782-39.925s-41.782 17.875-41.782 39.926c0 2.333.422 4.072 1.207 6.245.37 1.024 6.353-2.247 6.862-2.605 2.547-1.793 4.629-4.222 6.185-6.909.643-1.117 1.18-2.253 1.612-3.39 1.377-3.627 5.119-13.719 8.919-12.927 5.095 1.062 10.87 1.661 16.996 1.661s11.901-.6 16.996-1.661c3.799-.792 7.542 9.3 8.919 12.927.432 1.137.968 2.273 1.612 3.39 2.57 4.444 6.912 8.674 12.193 9.444.013-.255.335-.342.576-.429 1.729-.628 1.487-4.362 1.487-5.747z" fill="#87796f"/><path d="m111.544 124.755-.005-.445c0-22.842-19.416-41.425-43.282-41.425-23.865 0-43.281 18.583-43.281 41.426 0 2.629.519 4.602 1.296 6.755.188.52.608.917 1.152 1.088.173.054.371.079.591.079 2.415 0 7.344-3.021 7.394-3.056 2.587-1.82 4.876-4.373 6.622-7.387.673-1.169 1.249-2.383 1.714-3.606l.087-.229c4.319-11.392 6.541-11.876 7.124-11.762 5.392 1.123 11.213 1.693 17.302 1.693s11.91-.57 17.302-1.693c.572-.116 2.805.371 7.124 11.762l.087.229c.465 1.226 1.042 2.439 1.716 3.609 3.259 5.636 8.222 9.441 13.275 10.177.413.06.841-.057 1.166-.324.076-.063.146-.131.207-.206 2.492-.972 2.438-4.683 2.409-6.685zm-3.558 3.911c-.177.062-.337.132-.482.211-3.92-.846-7.772-4.005-10.42-8.583-.593-1.03-1.102-2.098-1.51-3.174l-.087-.228c-2.89-7.621-6.189-14.549-10.54-13.635-5.191 1.082-10.807 1.63-16.69 1.63s-11.499-.548-16.69-1.63c-4.38-.912-7.65 6.014-10.54 13.635l-.087.228c-.408 1.075-.916 2.144-1.507 3.171-1.527 2.637-3.517 4.861-5.741 6.428-.655.436-3.479 1.895-4.926 2.379-.505-1.548-.79-2.944-.79-4.786 0-21.188 18.07-38.426 40.281-38.426 22.212 0 40.282 17.237 40.282 38.425l.005.489c.044 2.98-.309 3.696-.558 3.866z" fill="#3a312a"/><path d="m51.062 189.686h10.318v26.407h-10.318z" fill="#87796f" transform="matrix(.799 -.602 .602 .799 -110.758 74.658)"/><path d="m69.487 209.426-15.898-21.086c-.498-.662-1.439-.793-2.1-.295l-8.241 6.208c-.318.24-.527.596-.583.99s.048.794.288 1.112l15.898 21.085c.294.391.744.597 1.198.597.314 0 .631-.098.901-.302l8.241-6.207c.318-.24.527-.595.583-.99.057-.395-.046-.795-.287-1.112zm-9.143 5.01-14.092-18.689 5.845-4.403 14.092 18.69z" fill="#3a312a"/><path d="m67.09 197.731h26.407v10.318h-26.407z" fill="#87796f" transform="matrix(.602 -.799 .799 .602 -130.046 144.85)"/><g fill="#3a312a"><path d="m93.849 195.243c-.056-.394-.265-.75-.583-.99l-8.241-6.208c-.66-.497-1.602-.366-2.1.295l-15.898 21.085c-.24.317-.344.717-.288 1.111s.265.75.583.99l8.241 6.207c.271.204.587.302.901.302.454 0 .904-.206 1.198-.597l15.898-21.085c.241-.316.344-.716.289-1.11zm-17.679 19.193-5.845-4.403 14.092-18.69 5.845 4.403z"/><path d="m35.719 221.418c-.828 0-1.5.671-1.5 1.5v16.567c0 .829.672 1.5 1.5 1.5s1.5-.671 1.5-1.5v-16.567c0-.829-.672-1.5-1.5-1.5z"/><path d="m100.795 221.418c-.828 0-1.5.671-1.5 1.5v16.567c0 .829.672 1.5 1.5 1.5s1.5-.671 1.5-1.5v-16.567c0-.829-.672-1.5-1.5-1.5z"/><path d="m79.471 158.019c-.778-.291-1.64.102-1.931.878-.773 2.063-3.807 5.966-9.75 5.966-4.709 0-7.823-1.934-9.8-6.084-.357-.747-1.248-1.067-2-.709-.747.356-1.065 1.251-.709 1.999 2.464 5.172 6.672 7.794 12.509 7.794 6.591 0 11.131-4.102 12.559-7.913.291-.776-.103-1.64-.878-1.931z"/></g><path d="m67.79 65.077c-1.174 0-31.69 13.196-31.69 24.648s14.188 20.735 31.69 20.735 31.69-9.284 31.69-20.735c0-11.452-31.299-24.648-31.69-24.648z" fill="#87796f"/><path d="m84.554 71.821c-6.833-4.105-15.808-8.244-16.764-8.244-1.635 0-33.19 13.621-33.19 26.148 0 12.261 14.889 22.235 33.19 22.235s33.189-9.975 33.189-22.235c0-5.332-5.526-11.356-16.425-17.904zm-16.764 37.139c-16.647 0-30.19-8.629-30.19-19.235 0-4.049 5.039-9.387 14.188-15.032 7.024-4.333 14.201-7.451 15.93-8.045 1.645.665 8.715 3.74 15.773 8.036 9.344 5.687 14.489 11.028 14.489 15.041-.001 10.606-13.543 19.235-30.19 19.235z" fill="#3a312a"/><circle cx="128.493" cy="51.003" fill="#d7e057" r="34.087"/><path d="m128.493 15.415c-19.623 0-35.587 15.964-35.587 35.587s15.964 35.587 35.587 35.587 35.588-15.964 35.588-35.587-15.965-35.587-35.588-35.587zm0 68.175c-17.969 0-32.587-14.619-32.587-32.587 0-17.969 14.618-32.587 32.587-32.587s32.588 14.619 32.588 32.587-14.619 32.587-32.588 32.587z" fill="#3a312a"/><path d="m150.468 36.08c-1.54-1.708-4.174-1.844-5.882-.303l-23.422 21.129-8.156-11.516c-1.33-1.878-3.929-2.32-5.804-.992-1.877 1.329-2.321 3.928-.991 5.805l10.864 15.34c.687.971 1.757 1.601 2.939 1.732.154.017.307.025.459.025 1.025 0 2.02-.379 2.79-1.072l26.901-24.268c1.707-1.54 1.842-4.173.302-5.88z" fill="#87796f"/><path d="m151.582 35.075c-1.014-1.123-2.404-1.785-3.915-1.863-1.502-.073-2.961.437-4.086 1.451l-22.168 19.999-7.18-10.138c-.875-1.235-2.178-2.055-3.67-2.31-1.493-.255-2.992.087-4.227.961-1.234.875-2.055 2.177-2.31 3.669-.254 1.491.087 2.992.962 4.227l10.863 15.339c.934 1.319 2.392 2.178 4.003 2.357.207.023.414.034.619.034 1.404 0 2.752-.518 3.795-1.458l26.9-24.268c1.123-1.013 1.785-2.404 1.863-3.914.079-1.512-.436-2.963-1.449-4.086zm-2.422 5.772-26.9 24.268c-.563.508-1.346.749-2.077.671-.757-.084-1.442-.488-1.882-1.109l-10.864-15.34c-.411-.581-.571-1.287-.452-1.988.12-.702.506-1.314 1.087-1.726.455-.322.987-.491 1.534-.491.15 0 .302.013.454.039.701.12 1.313.506 1.726 1.086l8.155 11.516c.247.35.633.577 1.059.624.423.048.852-.09 1.17-.377l23.422-21.129c.528-.477 1.224-.717 1.922-.683.711.037 1.364.348 1.842.877.477.528.719 1.21.683 1.921-.039.71-.351 1.364-.879 1.841z" fill="#3a312a"/><path d="m144.318 115.771h86.638v60.807h-86.638z" fill="#87796f"/><path d="m230.955 114.271h-86.638c-.828 0-1.5.671-1.5 1.5v60.807c0 .829.672 1.5 1.5 1.5h86.638c.828 0 1.5-.671 1.5-1.5v-60.807c0-.828-.672-1.5-1.5-1.5zm-1.5 60.808h-83.638v-57.807h83.638z" fill="#3a312a"/><path d="m216.351 195.392h-15.289v-9.932c-4.229 2.93-8.605 4.659-12.851 4.659-4.073 0-8.371-1.746-12.583-4.711h-.259v9.984h-15.298c-12.782 0-23.142 10.355-23.142 23.13v20.961h102.566v-20.961c-.002-12.775-10.362-23.13-23.144-23.13z" fill="#fce8cb"/><path d="m216.351 193.892h-13.789v-8.432c0-.558-.31-1.07-.804-1.329-.493-.259-1.092-.223-1.551.096-4.206 2.915-8.243 4.392-11.997 4.392-3.594 0-7.536-1.493-11.72-4.438-.253-.178-.554-.273-.863-.273h-.259c-.828 0-1.5.671-1.5 1.5v8.483h-13.799c-13.588 0-24.643 11.049-24.643 24.63v20.961c0 .829.672 1.5 1.5 1.5h37.606c.828 0 1.5-.671 1.5-1.5s-.672-1.5-1.5-1.5h-36.106v-19.461c0-11.927 9.709-21.63 21.643-21.63h15.299c.828 0 1.5-.671 1.5-1.5v-7.377c3.946 2.393 7.752 3.605 11.342 3.605 3.646 0 7.454-1.15 11.352-3.424v7.196c0 .829.672 1.5 1.5 1.5h15.289c11.934 0 21.643 9.703 21.643 21.63v19.461h-49.874c-.828 0-1.5.671-1.5 1.5s.672 1.5 1.5 1.5h51.373c.828 0 1.5-.671 1.5-1.5v-20.961c0-13.58-11.055-24.629-24.642-24.629z" fill="#3a312a"/><path d="m216.351 195.385h-3.658l.095.069-15.904 21.082-8.207-6.18-8.207 6.18-15.904-21.082.095-.069h-4.592c-12.782 0-23.142 10.355-23.142 23.13v20.969h102.566v-20.969c0-12.775-10.36-23.13-23.142-23.13z" fill="#fce8cb"/><path d="m216.352 193.885h-3.658c-.648 0-1.225.417-1.426 1.034-.011.032-.021.065-.028.098l-14.649 19.419-7.01-5.278c-.535-.402-1.27-.402-1.805 0l-7.01 5.278-14.65-19.419c-.008-.033-.018-.065-.028-.098-.201-.617-.777-1.034-1.426-1.034h-4.592c-13.588 0-24.642 11.049-24.642 24.63v20.969c0 .829.672 1.5 1.5 1.5h37.605c.828 0 1.5-.671 1.5-1.5s-.672-1.5-1.5-1.5h-36.105v-19.469c0-11.927 9.708-21.63 21.642-21.63h3.697l15.507 20.554c.499.662 1.438.792 2.1.295l7.305-5.5 7.305 5.5c.661.498 1.601.367 2.1-.295l15.506-20.554h2.764c11.934 0 21.642 9.703 21.642 21.63v19.469h-49.876c-.828 0-1.5.671-1.5 1.5s.672 1.5 1.5 1.5h51.373c.828 0 1.5-.671 1.5-1.5v-20.969c0-13.58-11.054-24.63-24.641-24.63z" fill="#3a312a"/><ellipse clip-rule="evenodd" cx="148.472" cy="138.054" fill="#fce8cb" fill-rule="evenodd" rx="9.106" ry="9.101"/><path d="m148.472 127.453c-5.848 0-10.605 4.756-10.605 10.601s4.758 10.601 10.605 10.601c5.849 0 10.606-4.756 10.606-10.601s-4.758-10.601-10.606-10.601zm0 18.202c-4.193 0-7.605-3.41-7.605-7.601s3.412-7.601 7.605-7.601c4.194 0 7.606 3.41 7.606 7.601s-3.412 7.601-7.606 7.601z" fill="#3a312a"/><ellipse clip-rule="evenodd" cx="227.951" cy="138.054" fill="#fce8cb" fill-rule="evenodd" rx="9.106" ry="9.101"/><path d="m227.951 127.453c-5.849 0-10.606 4.756-10.606 10.601s4.758 10.601 10.606 10.601 10.605-4.756 10.605-10.601-4.757-10.601-10.605-10.601zm0 18.202c-4.194 0-7.606-3.41-7.606-7.601s3.412-7.601 7.606-7.601c4.193 0 7.605 3.41 7.605 7.601s-3.411 7.601-7.605 7.601z" fill="#3a312a"/><path d="m188.211 93.289c-22.294 0-40.367 18.064-40.367 40.347s22.33 56.485 40.367 56.485c18.896 0 40.367-34.202 40.367-56.485.001-22.283-18.072-40.347-40.367-40.347z" fill="#fce8cb"/><path d="m188.211 91.79c-23.086 0-41.867 18.772-41.867 41.847 0 10.891 5.244 25.241 13.687 37.452 8.889 12.857 19.424 20.533 28.181 20.533 9.217 0 19.607-7.487 28.51-20.542 8.239-12.083 13.358-26.431 13.358-37.443-.001-23.075-18.783-41.847-41.869-41.847zm26.031 77.6c-8.212 12.042-17.943 19.232-26.031 19.232-7.771 0-17.385-7.192-25.713-19.239-8.114-11.736-13.154-25.433-13.154-35.746 0-21.42 17.436-38.847 38.867-38.847s38.868 17.427 38.868 38.847c0 10.441-4.919 24.141-12.837 35.753z" fill="#3a312a"/><ellipse cx="173.959" cy="133.18" fill="#3a312a" rx="3.94" ry="3.938"/><path d="m202.463 129.242c-2.176 0-3.94 1.763-3.94 3.938s1.764 3.938 3.94 3.938 3.94-1.763 3.94-3.938c.001-2.174-1.763-3.938-3.94-3.938z" fill="#3a312a"/><path d="m166.085 139.817c-3.748 0-6.787 2.27-6.787 5.071s3.039 5.071 6.787 5.071c3.749 0 6.787-2.271 6.787-5.071 0-2.801-3.039-5.071-6.787-5.071z" fill="#f5978a"/><path d="m210.338 139.817c-3.748 0-6.787 2.27-6.787 5.071s3.039 5.071 6.787 5.071 6.787-2.271 6.787-5.071c0-2.801-3.039-5.071-6.787-5.071z" fill="#f5978a"/><path d="m171.482 189.686h10.318v26.407h-10.318z" fill="#87796f" transform="matrix(.799 -.602 .602 .799 -86.523 147.114)"/><path d="m189.908 209.426-15.898-21.086c-.498-.662-1.439-.793-2.1-.295l-8.241 6.208c-.318.24-.527.596-.583.99s.048.794.288 1.112l15.898 21.085c.294.391.744.597 1.198.597.314 0 .631-.098.901-.302l8.241-6.207c.318-.24.527-.595.583-.99.057-.395-.047-.795-.287-1.112zm-9.143 5.01-14.092-18.689 5.845-4.403 14.092 18.69z" fill="#3a312a"/><path d="m187.51 197.731h26.407v10.318h-26.407z" fill="#87796f" transform="matrix(.602 -.799 .799 .602 -82.125 240.999)"/><path d="m214.27 195.243c-.056-.394-.265-.75-.583-.99l-8.241-6.208c-.66-.497-1.602-.366-2.1.295l-15.899 21.086c-.24.318-.344.718-.288 1.112s.265.75.583.99l8.241 6.207c.271.204.587.302.901.302.454 0 .904-.206 1.198-.597l15.899-21.085c.241-.318.344-.718.289-1.112zm-17.68 19.193-5.845-4.403 14.093-18.69 5.845 4.403z" fill="#3a312a"/><path d="m156.139 221.418c-.828 0-1.5.671-1.5 1.5v16.567c0 .829.672 1.5 1.5 1.5s1.5-.671 1.5-1.5v-16.567c0-.829-.672-1.5-1.5-1.5z" fill="#3a312a"/><path d="m221.216 221.418c-.828 0-1.5.671-1.5 1.5v16.567c0 .829.672 1.5 1.5 1.5s1.5-.671 1.5-1.5v-16.567c0-.829-.672-1.5-1.5-1.5z" fill="#3a312a"/><path d="m199.891 158.019c-.778-.291-1.641.102-1.931.878-.773 2.063-3.807 5.966-9.75 5.966-4.709 0-7.823-1.934-9.8-6.084-.357-.747-1.249-1.067-2-.709-.747.356-1.065 1.251-.709 1.999 2.464 5.172 6.672 7.794 12.509 7.794 6.591 0 11.131-4.102 12.559-7.913.291-.776-.103-1.64-.878-1.931z" fill="#3a312a"/><path d="m221.426 86.906c-8.482-8.956-20.485-14.543-33.792-14.543-4.977 0-9.768.781-14.257 2.235 3.556 8.242 7.759 16.156 13.483 23.046 2.631 3.159 5.548 6.074 8.633 8.78 2.513 2.235 5.145 4.344 7.818 6.368 9.112 6.914 18.947 13.031 29.286 18.013 1.017-3.814 1.555-7.822 1.555-11.956 0-12.376-4.833-23.618-12.726-31.943z" fill="#87796f"/><path d="m222.515 85.874c-9.167-9.681-21.555-15.012-34.881-15.012-5.037 0-9.989.776-14.719 2.308-.402.13-.73.424-.904.809-.175.385-.179.825-.011 1.213 4.232 9.811 8.588 17.25 13.708 23.411 2.526 3.034 5.486 6.044 8.788 8.941 2.314 2.057 4.9 4.164 7.908 6.442 9.425 7.152 19.364 13.266 29.542 18.17.206.099.429.149.651.149.214 0 .428-.045.626-.137.406-.187.708-.545.823-.977 1.065-3.997 1.605-8.149 1.605-12.342.001-12.327-4.665-24.038-13.136-32.975zm9.068 42.764c-9.417-4.674-18.614-10.402-27.366-17.043-2.945-2.231-5.473-4.289-7.734-6.301-3.193-2.8-6.042-5.697-8.469-8.61-4.661-5.61-8.682-12.358-12.585-21.142 3.945-1.116 8.044-1.68 12.205-1.68 12.494 0 24.107 4.998 32.703 14.075 7.941 8.378 12.315 19.356 12.315 30.912 0 3.313-.359 6.597-1.069 9.789z" fill="#3a312a"/><path d="m187.634 72.362c-4.977 0-9.768.781-14.257 2.235-18.712 6.007-32.254 23.55-32.254 44.252 0 4.377.605 8.612 1.74 12.628 18.35-6.73 36.28-14.812 52.63-25.054 9.221-5.772 17.93-12.224 25.933-19.517-8.482-8.957-20.486-14.544-33.792-14.544z" fill="#87796f"/><path d="m222.515 85.874c-9.167-9.681-21.555-15.012-34.881-15.012-5.037 0-9.989.776-14.716 2.307-19.914 6.394-33.295 24.751-33.295 45.68 0 4.431.604 8.816 1.797 13.035.113.402.39.738.762.928.213.109.447.164.682.164.175 0 .35-.03.517-.092 20.606-7.557 37.913-15.796 52.909-25.19 9.645-6.037 18.441-12.658 26.147-19.68.297-.271.474-.651.488-1.054.014-.402-.133-.793-.41-1.086zm-27.818 19.277c-14.442 9.046-31.075 17.018-50.804 24.346-.844-3.467-1.271-7.042-1.271-10.648 0-19.62 12.543-36.83 31.216-42.824 4.431-1.435 9.071-2.162 13.795-2.162 11.979 0 23.151 4.596 31.628 12.976-7.294 6.515-15.55 12.67-24.564 18.312z" fill="#3a312a"/><path d="m128.493 18.42c-2.94 0-5.79.39-8.5 1.13 9.26 2.5 16.9 8.98 20.95 17.49l2.64-2.38c1.12-1.01 2.58-1.53 4.08-1.45 1.51.08 2.91.74 3.92 1.87 2.09 2.31 1.91 5.9-.41 7.99l-7.12 6.43c.02.5.03 1 .03 1.5 0 15.03-10.23 27.71-24.09 31.46 2.71.74 5.56 1.13 8.5 1.13 17.97 0 32.59-14.62 32.59-32.59s-14.62-32.58-32.59-32.58z" fill="#b9c239"/></svg>