<svg id="Layer_1" enable-background="new 0 0 256 256" height="512" viewBox="0 0 256 256" width="512" xmlns="http://www.w3.org/2000/svg"><path d="m222.395 16.135h-188.79c-9.447 0-17.105 7.658-17.105 17.106v130.289c0 9.447 7.658 17.105 17.105 17.105h188.789c9.447 0 17.105-7.658 17.105-17.105v-130.289c.001-9.447-7.657-17.106-17.104-17.106z" fill="#87796f"/><path d="m222.395 14.635h-188.79c-10.258 0-18.605 8.346-18.605 18.606v130.289c0 10.259 8.347 18.605 18.605 18.605h188.789c10.259 0 18.605-8.346 18.605-18.605v-130.289c.001-10.26-8.346-18.606-18.604-18.606zm15.605 148.895c0 8.605-7.001 15.605-15.605 15.605h-188.79c-8.604 0-15.605-7-15.605-15.605v-130.289c0-8.605 7.001-15.605 15.605-15.605h188.789c8.604 0 15.605 7 15.605 15.605v130.289z" fill="#3a312a"/><path d="m214.969 28.635h-173.938c-6.583 0-11.92 5.337-11.92 11.92v115.66c0 6.583 5.337 11.92 11.92 11.92h173.938c6.583 0 11.92-5.336 11.92-11.92v-115.66c0-6.583-5.337-11.92-11.92-11.92z" fill="#fae6ca"/><path d="m214.969 27.135h-115.17c-.828 0-1.5.671-1.5 1.5s.672 1.5 1.5 1.5h115.17c5.745 0 10.42 4.674 10.42 10.42v115.66c0 5.746-4.675 10.42-10.42 10.42h-173.938c-5.745 0-10.42-4.674-10.42-10.42v-115.66c0-5.746 4.675-10.42 10.42-10.42h45.17c.828 0 1.5-.671 1.5-1.5s-.672-1.5-1.5-1.5h-45.17c-7.399 0-13.42 6.02-13.42 13.42v115.66c0 7.4 6.021 13.42 13.42 13.42h173.938c7.399 0 13.42-6.02 13.42-13.42v-115.66c0-7.4-6.021-13.42-13.42-13.42z" fill="#3a312a"/><path d="m113.688 180.635h28.625v35.593h-28.625z" fill="#87796f"/><path d="m142.313 179.135h-28.625c-.828 0-1.5.671-1.5 1.5v35.593c0 .829.672 1.5 1.5 1.5h28.625c.828 0 1.5-.671 1.5-1.5v-35.593c0-.828-.672-1.5-1.5-1.5zm-1.5 35.594h-25.625v-32.593h25.625z" fill="#3a312a"/><path d="m148.296 216.229h-40.593c-12.927 0-23.407 10.479-23.407 23.406h87.406c.001-12.927-10.478-23.406-23.406-23.406z" fill="#87796f"/><path d="m148.297 214.729h-40.594c-13.733 0-24.906 11.173-24.906 24.907 0 .829.672 1.5 1.5 1.5h37.584c.828 0 1.5-.671 1.5-1.5s-.672-1.5-1.5-1.5h-36.033c.773-11.382 10.28-20.407 21.855-20.407h40.594c11.575 0 21.082 9.024 21.855 20.407h-34.701c-.828 0-1.5.671-1.5 1.5s.672 1.5 1.5 1.5h36.252c.828 0 1.5-.671 1.5-1.5 0-13.734-11.173-24.907-24.906-24.907z" fill="#3a312a"/><path d="m47.671 203.469c-.974 11.564-13.025 13.39-13.025 13.39 10.346.487 12.925 14.059 12.925 14.059.221-9.677 13.321-14.202 13.321-14.202-9.813-.587-13.221-13.247-13.221-13.247z" fill="#d6df58"/><path d="m60.982 215.218c-8.604-.514-11.832-12.024-11.863-12.141-.19-.702-.849-1.162-1.584-1.102-.725.066-1.298.642-1.359 1.367-.859 10.215-11.313 11.964-11.754 12.033-.763.115-1.313.79-1.273 1.561.04.77.657 1.384 1.428 1.421 9.028.425 11.499 12.718 11.522 12.842.138.711.76 1.217 1.473 1.217.042 0 .084-.001.126-.005.765-.064 1.357-.693 1.375-1.459.193-8.508 12.19-12.777 12.312-12.819.676-.235 1.092-.915.994-1.623-.1-.708-.683-1.249-1.397-1.292zm-13.565 10.346c-1.357-3.13-3.709-6.908-7.588-8.876 2.931-1.405 6.409-3.913 8.202-8.273 1.551 3.071 4.2 6.88 8.334 8.722-3.007 1.64-6.922 4.406-8.948 8.427z" fill="#3a312a"/><path d="m25.972 220.45c-.689 8.179-9.212 9.471-9.212 9.471 7.318.344 9.142 9.944 9.142 9.944.156-6.845 9.422-10.045 9.422-10.045-6.941-.416-9.352-9.37-9.352-9.37z" fill="#d6df58"/><path d="m35.414 228.322c-5.767-.345-7.972-8.186-7.993-8.265-.19-.702-.866-1.164-1.582-1.102-.726.065-1.3.642-1.361 1.368-.579 6.871-7.646 8.067-7.942 8.114-.763.115-1.313.79-1.273 1.561.04.77.657 1.384 1.428 1.421 6.035.284 7.724 8.644 7.739 8.726.136.712.759 1.22 1.473 1.22.041 0 .083-.001.125-.005.765-.063 1.358-.694 1.376-1.461.13-5.709 8.331-8.634 8.412-8.662.676-.234 1.093-.913.996-1.622-.099-.709-.684-1.25-1.398-1.293zm-9.585 6.795c-.924-1.886-2.34-3.947-4.447-5.28 1.856-1.041 3.697-2.63 4.871-4.917 1.057 1.874 2.654 3.955 4.941 5.224-1.849 1.101-3.989 2.74-5.365 4.973z" fill="#3a312a"/><path d="m25.972 193.792c-.689 8.179-9.212 9.471-9.212 9.471 7.318.344 9.142 9.944 9.142 9.944.156-6.845 9.422-10.045 9.422-10.045-6.941-.415-9.352-9.37-9.352-9.37z" fill="#d6df58"/><path d="m35.414 201.664c-5.767-.345-7.972-8.185-7.993-8.264-.19-.702-.866-1.163-1.582-1.102-.726.065-1.3.642-1.361 1.368-.579 6.871-7.646 8.066-7.942 8.113-.763.115-1.313.79-1.273 1.561.04.77.657 1.384 1.428 1.421 6.035.284 7.724 8.645 7.739 8.726.136.713.759 1.22 1.473 1.22.041 0 .083-.001.125-.005.765-.063 1.358-.694 1.376-1.461.13-5.709 8.331-8.634 8.412-8.662.676-.234 1.093-.913.996-1.622-.099-.708-.684-1.25-1.398-1.293zm-9.585 6.795c-.924-1.885-2.34-3.947-4.447-5.28 1.856-1.041 3.697-2.63 4.871-4.917 1.057 1.874 2.654 3.955 4.941 5.224-1.849 1.102-3.989 2.741-5.365 4.973z" fill="#3a312a"/><path d="m141.931 86.254c-2.893-6.09-7.841-11.038-13.931-13.931-3.816-1.824-8.082-2.841-12.579-2.841h-37.737c-16.185 0-29.351 13.166-29.351 29.351s13.166 29.351 29.351 29.351h37.737c4.497 0 8.763-1.017 12.579-2.841-6.09-2.893-11.038-7.841-13.931-13.931h-36.385c-6.939 0-12.579-5.64-12.579-12.579s5.639-12.579 12.579-12.579h37.737c6.939 0 12.579 5.64 12.579 12.579s5.64 12.579 12.579 12.579h1.352c1.824-3.816 2.841-8.082 2.841-12.579s-1.017-8.763-2.841-12.579z" fill="#ed6e7a"/><path d="m143.286 85.61c-3.041-6.4-8.241-11.601-14.639-14.64-4.147-1.982-8.597-2.987-13.227-2.987h-37.735c-17.012 0-30.852 13.84-30.852 30.851s13.84 30.851 30.852 30.851h37.736c4.63 0 9.08-1.005 13.227-2.987.521-.25.853-.777.852-1.355s-.334-1.105-.856-1.353c-5.779-2.746-10.475-7.44-13.221-13.22-.248-.523-.775-.856-1.354-.856h-36.384c-6.109 0-11.079-4.97-11.079-11.079s4.97-11.079 11.079-11.079h37.736c6.109 0 11.079 4.97 11.079 11.079 0 7.763 6.315 14.079 14.079 14.079h1.353c.578 0 1.104-.332 1.354-.853 1.981-4.147 2.986-8.597 2.986-13.226-.001-4.63-1.004-9.079-2.986-13.225zm-2.317 24.302h-.39c-6.109 0-11.079-4.97-11.079-11.079 0-7.763-6.315-14.079-14.079-14.079h-37.736c-7.764 0-14.079 6.316-14.079 14.079s6.315 14.079 14.079 14.079h35.452c2.595 5.049 6.553 9.296 11.378 12.248-2.907 1.013-5.954 1.524-9.094 1.524h-37.736c-15.357 0-27.852-12.494-27.852-27.851s12.494-27.851 27.852-27.851h37.736c4.179 0 8.193.906 11.935 2.696 5.779 2.746 10.475 7.44 13.221 13.22 0 .001.001.002.001.003 1.787 3.74 2.693 7.754 2.693 11.932 0 3.862-.774 7.584-2.302 11.079z" fill="#3a312a"/><path d="m178.316 69.482h-37.737c-4.497 0-8.763 1.017-12.579 2.841 6.09 2.893 11.038 7.841 13.931 13.931h36.385c6.939 0 12.579 5.639 12.579 12.579s-5.64 12.579-12.579 12.579h-37.737c-6.939 0-12.579-5.64-12.579-12.579s-5.64-12.579-12.579-12.579h-1.352c-1.824 3.816-2.841 8.082-2.841 12.579s1.017 8.763 2.841 12.579c2.893 6.09 7.841 11.038 13.931 13.931 3.816 1.824 8.082 2.841 12.579 2.841h37.737c16.185 0 29.351-13.166 29.351-29.351s-13.166-29.351-29.351-29.351z" fill="#d6df58"/><path d="m178.315 67.982h-37.736c-4.63 0-9.08 1.005-13.227 2.987-.521.25-.853.777-.852 1.355s.334 1.104.856 1.353c5.779 2.746 10.475 7.44 13.221 13.22.248.523.775.856 1.354.856h36.384c6.109 0 11.079 4.97 11.079 11.079s-4.97 11.079-11.079 11.079h-37.736c-6.109 0-11.079-4.97-11.079-11.079 0-7.763-6.315-14.079-14.079-14.079h-1.352c-.578 0-1.104.332-1.354.854-1.981 4.147-2.986 8.597-2.986 13.226s1.005 9.079 2.985 13.222c3.041 6.401 8.241 11.602 14.639 14.641 4.147 1.982 8.597 2.987 13.227 2.987h37.736c17.012 0 30.852-13.839 30.852-30.851s-13.841-30.85-30.853-30.85zm0 58.702h-37.736c-4.179 0-8.193-.906-11.935-2.696-5.779-2.746-10.475-7.44-13.222-13.223-1.787-3.74-2.693-7.754-2.693-11.932 0-3.861.774-7.584 2.303-11.079h.39c6.109 0 11.079 4.97 11.079 11.079 0 7.763 6.315 14.079 14.079 14.079h37.736c7.764 0 14.079-6.315 14.079-14.079s-6.315-14.079-14.079-14.079h-35.452c-2.595-5.049-6.553-9.296-11.378-12.248 2.907-1.013 5.954-1.524 9.094-1.524h37.736c15.357 0 27.852 12.494 27.852 27.851s-12.495 27.851-27.853 27.851z" fill="#3a312a"/><path d="m237.225 226.376-16.137-16.137-9.05-9.05-19.423-19.423c-1.47 2.099-3.144 4.097-5.015 5.969-1.871 1.871-3.869 3.544-5.969 5.015l44.609 44.609c3.033 3.033 7.951 3.033 10.984 0s3.034-7.949.001-10.983z" fill="#8ac5dc"/><path d="m238.286 225.316-44.609-44.609c-.313-.313-.739-.474-1.191-.434-.441.039-.844.271-1.098.634-1.428 2.039-3.06 3.979-4.848 5.769-1.787 1.787-3.728 3.417-5.769 4.847-.363.254-.596.656-.634 1.098-.039.441.12.877.434 1.191l44.609 44.609c1.807 1.807 4.18 2.71 6.553 2.71s4.746-.903 6.553-2.71c3.612-3.613 3.612-9.492 0-13.105zm-2.121 10.984c-1.184 1.184-2.758 1.835-4.432 1.835s-3.248-.652-4.432-1.835l-43.371-43.371c1.659-1.262 3.245-2.647 4.73-4.132 1.487-1.487 2.872-3.073 4.133-4.73l43.371 43.371c2.443 2.442 2.443 6.418.001 8.862z" fill="#3a312a"/><path d="m200.729 177.031-3.529-3.529c-2.181 5.172-5.385 10.02-9.599 14.234s-9.062 7.419-14.234 9.599l3.53 3.53c2.51 2.51 6.587 2.51 9.097 0l14.736-14.736c2.509-2.511 2.509-6.588-.001-9.098z" fill="#d6df58"/><path d="m201.79 175.97-3.529-3.529c-.354-.354-.858-.506-1.349-.412-.49.096-.9.429-1.094.89-2.166 5.137-5.288 9.765-9.278 13.756-3.99 3.99-8.619 7.111-13.757 9.277-.46.194-.793.604-.889 1.094-.097.49.058.996.411 1.349l3.529 3.529c1.547 1.546 3.578 2.319 5.609 2.319s4.063-.773 5.609-2.319l14.736-14.736c3.095-3.092 3.095-8.125.002-11.218zm-2.121 9.098-14.736 14.736c-1.923 1.921-5.052 1.923-6.977 0l-1.993-1.993c4.696-2.25 8.96-5.276 12.698-9.014 3.738-3.739 6.765-8.002 9.015-12.698l1.993 1.993c1.923 1.923 1.923 5.053 0 6.976z" fill="#3a312a"/><circle cx="155.87" cy="156.006" fill="#ef6d7a" r="44.871"/><path d="m188.659 123.217c-8.758-8.758-20.402-13.582-32.788-13.582-12.387 0-24.031 4.823-32.789 13.582-8.759 8.758-13.582 20.403-13.582 32.789s4.823 24.031 13.582 32.789c8.758 8.758 20.402 13.582 32.789 13.582 12.386 0 24.03-4.824 32.788-13.582 8.759-8.758 13.582-20.403 13.582-32.789s-4.823-24.031-13.582-32.789zm-2.121 63.456c-8.191 8.192-19.083 12.703-30.667 12.703-11.585 0-22.477-4.511-30.668-12.703s-12.703-19.083-12.703-30.668c0-11.584 4.512-22.476 12.703-30.667s19.083-12.703 30.668-12.703c11.584 0 22.476 4.511 30.667 12.703s12.703 19.083 12.703 30.667c0 11.585-4.512 22.476-12.703 30.668z" fill="#3a312a"/><circle cx="155.871" cy="156.006" fill="#8ac5dc" r="33.414"/><path d="m180.559 131.318c-6.594-6.595-15.362-10.227-24.688-10.227s-18.095 3.632-24.688 10.227c-13.613 13.613-13.613 35.763 0 49.376 6.595 6.594 15.362 10.226 24.688 10.226h.001c9.325 0 18.094-3.632 24.688-10.226 13.612-13.613 13.612-35.763-.001-49.376zm-2.121 47.255c-6.027 6.028-14.042 9.348-22.566 9.347-8.525 0-16.539-3.319-22.567-9.347-12.443-12.444-12.443-32.69 0-45.134 6.027-6.028 14.042-9.348 22.567-9.348 8.524 0 16.539 3.32 22.566 9.348 12.443 12.443 12.443 32.69 0 45.134z" fill="#3a312a"/><path d="m214.97 30.14h-16c5.74 0 10.42 4.67 10.42 10.42v115.66c0 5.03-3.6 9.25-8.35 10.21-.02.07-.03.14-.05.21h13.98c5.74 0 10.42-4.68 10.42-10.42v-115.66c0-5.75-4.68-10.42-10.42-10.42z" fill="#decaad"/></svg>