<svg id="Layer_1" enable-background="new 0 0 256 256" height="512" viewBox="0 0 256 256" width="512" xmlns="http://www.w3.org/2000/svg"><path d="m226.445 26.102c-.974 11.564-13.031 13.389-13.031 13.389 10.352.487 12.932 14.059 12.932 14.059.221-9.677 13.328-14.202 13.328-14.202-9.819-.587-13.229-13.246-13.229-13.246z" fill="#d7e057"/><path d="m239.764 37.851c-8.609-.515-11.839-12.025-11.87-12.141-.191-.702-.854-1.169-1.584-1.101-.725.066-1.298.642-1.359 1.367-.86 10.215-11.319 11.963-11.761 12.033-.763.115-1.313.79-1.273 1.561.04.77.657 1.384 1.428 1.421 9.033.425 11.505 12.718 11.528 12.842.138.711.76 1.217 1.473 1.217.042 0 .084-.001.126-.005.765-.064 1.357-.693 1.375-1.459.194-8.508 12.198-12.777 12.319-12.819.676-.235 1.092-.914.994-1.622s-.682-1.251-1.396-1.294zm-13.574 10.348c-1.357-3.131-3.71-6.909-7.591-8.878 2.933-1.405 6.412-3.914 8.206-8.274 1.552 3.071 4.202 6.881 8.339 8.724-3.008 1.639-6.926 4.406-8.954 8.428z" fill="#3a312a"/><path d="m204.735 43.083c-.689 8.179-9.217 9.471-9.217 9.471 7.322.344 9.147 9.944 9.147 9.944.156-6.844 9.427-10.045 9.427-10.045-6.945-.416-9.357-9.37-9.357-9.37z" fill="#d7e057"/><path d="m214.182 50.955c-5.77-.345-7.977-8.186-7.999-8.265-.189-.703-.867-1.163-1.581-1.102-.726.065-1.3.642-1.361 1.368-.579 6.871-7.65 8.067-7.946 8.114-.763.115-1.313.79-1.273 1.561.04.77.657 1.384 1.428 1.421 6.038.284 7.728 8.644 7.743 8.726.136.712.759 1.22 1.473 1.22.041 0 .083-.002.125-.005.765-.064 1.358-.694 1.376-1.461.13-5.709 8.335-8.633 8.416-8.662.677-.234 1.094-.913.997-1.622-.1-.709-.684-1.25-1.398-1.293zm-9.59 6.796c-.924-1.886-2.341-3.948-4.449-5.281 1.856-1.041 3.699-2.63 4.873-4.917 1.058 1.874 2.656 3.956 4.944 5.225-1.851 1.1-3.991 2.74-5.368 4.973z" fill="#3a312a"/><path d="m204.735 16.425c-.689 8.179-9.217 9.471-9.217 9.471 7.322.344 9.147 9.944 9.147 9.944.156-6.844 9.427-10.045 9.427-10.045-6.945-.416-9.357-9.37-9.357-9.37z" fill="#d7e057"/><path d="m214.182 24.297c-5.748-.344-7.961-8.128-7.998-8.264-.19-.703-.872-1.162-1.582-1.102-.726.065-1.3.642-1.361 1.368-.579 6.871-7.65 8.067-7.946 8.114-.763.115-1.313.79-1.273 1.56s.657 1.384 1.428 1.421c6.038.284 7.728 8.644 7.743 8.726.136.712.759 1.22 1.473 1.22.041 0 .083-.001.125-.005.765-.063 1.358-.694 1.376-1.461.13-5.708 8.335-8.633 8.416-8.661.677-.234 1.094-.913.997-1.622-.1-.709-.684-1.251-1.398-1.294zm-9.59 6.796c-.924-1.886-2.341-3.948-4.449-5.281 1.856-1.042 3.699-2.631 4.873-4.918 1.058 1.874 2.656 3.956 4.944 5.225-1.851 1.102-3.991 2.741-5.368 4.974z" fill="#3a312a"/><path d="m117.761 183.224h-19.541v-12.693c-5.405 3.745-10.997 5.954-16.424 5.954-5.206 0-10.699-2.231-16.081-6.021h-.332v12.759h-19.551c-16.335 0-29.576 13.234-29.576 29.56v26.788h131.08v-26.788c0-16.325-13.24-29.559-29.575-29.559z" fill="#fce8cb"/><path d="m117.761 181.724h-18.04v-11.193c0-.558-.31-1.07-.804-1.329s-1.092-.222-1.551.096c-5.446 3.774-10.686 5.688-15.569 5.688-4.682 0-9.802-1.934-15.218-5.747-.253-.178-.554-.273-.863-.273h-.332c-.828 0-1.5.671-1.5 1.5v11.259h-18.052c-17.135 0-31.075 13.934-31.075 31.061v26.788c0 .829.672 1.5 1.5 1.5h44.913c.828 0 1.5-.671 1.5-1.5s-.672-1.5-1.5-1.5h-43.413v-25.288c0-15.473 12.595-28.061 28.075-28.061h19.552c.828 0 1.5-.671 1.5-1.5v-10.177c5.203 3.279 10.21 4.939 14.913 4.939 4.779 0 9.788-1.577 14.924-4.692v9.93c0 .829.672 1.5 1.5 1.5h19.54c15.481 0 28.076 12.588 28.076 28.061v25.288h-69.893c-.828 0-1.5.671-1.5 1.5s.672 1.5 1.5 1.5h71.393c.828 0 1.5-.671 1.5-1.5v-26.788c0-17.128-13.941-31.062-31.076-31.062z" fill="#3a312a"/><path d="m117.761 183.215h-4.675l.122.088-20.325 26.943-10.489-7.898-10.489 7.898-20.325-26.942.121-.088h-5.869c-16.335 0-29.576 13.234-29.576 29.561v26.799h131.08v-26.799c.001-16.328-13.24-29.562-29.575-29.562z" fill="#d7e057"/><path d="m117.761 181.715h-4.675c-.65 0-1.227.419-1.427 1.038-.019.057-.033.115-.045.173l-19.026 25.221-9.292-6.997c-.535-.402-1.27-.402-1.805 0l-9.291 6.997-19.027-25.223c-.012-.059-.026-.117-.046-.174-.201-.618-.776-1.035-1.426-1.035h-5.868c-17.136 0-31.076 13.934-31.076 31.061v26.799c0 .829.672 1.5 1.5 1.5h44.913c.828 0 1.5-.671 1.5-1.5s-.672-1.5-1.5-1.5h-43.413v-25.299c0-15.473 12.595-28.061 28.076-28.061h4.933l19.942 26.435c.499.662 1.438.792 2.1.295l9.586-7.219 9.587 7.219c.661.498 1.601.366 2.1-.295l19.942-26.435h3.738c15.481 0 28.076 12.588 28.076 28.061v25.299h-69.893c-.828 0-1.5.671-1.5 1.5s.672 1.5 1.5 1.5h71.393c.828 0 1.5-.671 1.5-1.5v-26.799c0-17.127-13.941-31.061-31.076-31.061z" fill="#3a312a"/><ellipse clip-rule="evenodd" cx="31.011" cy="109.945" fill="#fce8cb" fill-rule="evenodd" rx="11.637" ry="11.631"/><path d="m31.011 96.814c-7.243 0-13.137 5.891-13.137 13.131 0 7.241 5.894 13.131 13.137 13.131 7.244 0 13.138-5.891 13.138-13.131-.001-7.24-5.894-13.131-13.138-13.131zm0 23.263c-5.59 0-10.137-4.545-10.137-10.131s4.547-10.131 10.137-10.131 10.138 4.545 10.138 10.131-4.548 10.131-10.138 10.131z" fill="#3a312a"/><ellipse clip-rule="evenodd" cx="132.586" cy="109.945" fill="#fce8cb" fill-rule="evenodd" rx="11.637" ry="11.631"/><path d="m132.586 96.814c-7.244 0-13.138 5.891-13.138 13.131 0 7.241 5.894 13.131 13.138 13.131s13.138-5.891 13.138-13.131-5.894-13.131-13.138-13.131zm0 23.263c-5.59 0-10.138-4.545-10.138-10.131s4.548-10.131 10.138-10.131 10.138 4.545 10.138 10.131-4.548 10.131-10.138 10.131z" fill="#3a312a"/><path d="m81.798 52.736c-28.492 0-51.59 23.086-51.59 51.563 0 28.478 28.538 72.189 51.59 72.189 24.149 0 51.59-43.711 51.59-72.189 0-28.477-23.097-51.563-51.59-51.563z" fill="#fce8cb"/><path d="m81.799 51.236c-29.273 0-53.09 23.804-53.09 53.063 0 13.838 6.674 32.088 17.417 47.627 11.282 16.319 24.618 26.062 35.673 26.062 11.639 0 24.793-9.502 36.09-26.07 10.486-15.378 17-33.624 17-47.619 0-29.259-23.817-53.063-53.09-53.063zm33.611 98.992c-10.571 15.504-23.137 24.76-33.611 24.76-10.07 0-22.483-9.259-33.205-24.768-10.415-15.064-16.885-32.66-16.885-45.921 0-27.605 22.47-50.063 50.09-50.063s50.09 22.458 50.09 50.063c0 13.424-6.315 31.023-16.479 45.929z" fill="#3a312a"/><path d="m63.584 98.684c-2.781 0-5.035 2.253-5.035 5.033s2.254 5.033 5.035 5.033 5.035-2.253 5.035-5.033c.001-2.779-2.254-5.033-5.035-5.033z" fill="#3a312a"/><path d="m100.012 98.684c-2.781 0-5.035 2.253-5.035 5.033s2.254 5.033 5.035 5.033 5.036-2.253 5.036-5.033c0-2.779-2.254-5.033-5.036-5.033z" fill="#3a312a"/><path d="m53.52 112.198c-4.79 0-8.674 2.901-8.674 6.481 0 3.579 3.884 6.481 8.674 6.481 4.791 0 8.674-2.902 8.674-6.481.001-3.579-3.883-6.481-8.674-6.481z" fill="#f5978a"/><ellipse cx="110.076" cy="118.68" fill="#f5978a" rx="8.674" ry="6.481"/><path d="m135.791 92.38c0-28.18-23.907-51.025-53.397-51.025s-53.398 22.845-53.398 51.026c0 2.982.54 5.205 1.543 7.981.473 1.309 8.119-2.871 8.77-3.329 3.256-2.291 5.917-5.396 7.905-8.829.822-1.427 1.508-2.88 2.06-4.333 1.76-4.635 6.542-17.533 11.398-16.521 6.512 1.357 13.892 2.123 21.721 2.123s15.21-.767 21.722-2.123c4.856-1.012 9.638 11.886 11.398 16.521.552 1.453 1.237 2.905 2.06 4.333 3.285 5.679 8.833 11.086 15.583 12.069.017-.326.428-.437.736-.548 2.209-.802 1.899-5.574 1.899-7.345z" fill="#87796f"/><path d="m137.297 92.957-.006-.576c0-28.962-24.627-52.525-54.897-52.525s-54.898 23.563-54.898 52.526c.001 3.31.625 5.703 1.633 8.491.195.542.636.955 1.206 1.135.188.059.404.086.646.086 2.855 0 9.13-3.79 9.191-3.834 3.257-2.292 6.142-5.509 8.342-9.308.849-1.475 1.576-3.005 2.162-4.549l.11-.292c5.289-13.946 8.262-15.562 9.579-15.293 6.864 1.43 14.275 2.155 22.027 2.155s15.163-.725 22.027-2.155c1.31-.268 4.293 1.348 9.581 15.296l.109.289c.588 1.549 1.315 3.079 2.163 4.552 4.104 7.094 10.334 11.88 16.665 12.803.417.06.842-.057 1.169-.325.103-.084.193-.182.27-.289.014-.005.024-.008.025-.009 3-1.088 2.933-5.7 2.896-8.178zm-3.993 5.385c-.149.052-.415.145-.69.314-5.174-1.058-10.264-5.19-13.74-11.201-.768-1.332-1.426-2.717-1.957-4.117l-.109-.288c-3.453-9.109-7.715-18.273-12.997-17.169-6.664 1.388-13.869 2.092-21.416 2.092s-14.752-.704-21.416-2.092c-5.289-1.103-9.541 8.057-12.995 17.167l-.11.29c-.529 1.395-1.188 2.781-1.955 4.114-1.982 3.421-4.565 6.311-7.467 8.352-.896.608-5.027 2.731-6.793 3.213-.724-2.139-1.16-4.09-1.161-6.636 0-27.308 23.281-49.526 51.897-49.526s51.897 22.217 51.897 49.525l.007.62c.061 4.312-.549 5.181-.995 5.342z" fill="#3a312a"/><path d="m60.418 175.932h13.186v33.749h-13.186z" fill="#87796f" transform="matrix(.799 -.602 .602 .799 -102.518 79.12)"/><path d="m83.634 201.41-20.318-26.947c-.498-.662-1.439-.793-2.1-.295l-10.532 7.934c-.318.24-.527.596-.583.99s.048.794.288 1.112l20.318 26.947c.295.391.743.597 1.198.597.314 0 .631-.098.901-.302l10.532-7.933c.318-.24.527-.595.583-.99.057-.396-.047-.795-.287-1.113zm-11.435 6.736-18.512-24.551 8.136-6.129 18.512 24.552z" fill="#3a312a"/><path d="m80.902 186.213h33.749v13.186h-33.749z" fill="#87796f" transform="matrix(.602 -.799 .799 .602 -115.037 154.796)"/><path d="m114.688 183.091c-.056-.394-.265-.75-.583-.99l-10.532-7.934c-.66-.497-1.602-.366-2.1.295l-20.319 26.948c-.24.317-.344.717-.288 1.111s.265.75.583.99l10.531 7.933c.271.204.587.302.901.302.454 0 .904-.206 1.198-.597l20.319-26.947c.242-.317.345-.717.29-1.111zm-22.1 25.055-8.135-6.128 18.512-24.552 8.136 6.128z" fill="#3a312a"/><path d="m40.81 216.902c-.828 0-1.5.671-1.5 1.5v21.173c0 .829.672 1.5 1.5 1.5s1.5-.671 1.5-1.5v-21.173c0-.828-.672-1.5-1.5-1.5z" fill="#3a312a"/><path d="m123.978 216.902c-.828 0-1.5.671-1.5 1.5v21.173c0 .829.672 1.5 1.5 1.5s1.5-.671 1.5-1.5v-21.173c0-.828-.672-1.5-1.5-1.5z" fill="#3a312a"/><path d="m96.578 135.851c-.779-.291-1.641.102-1.931.878-1.023 2.731-5.026 7.895-12.851 7.895-6.113 0-10.333-2.621-12.9-8.013-.355-.747-1.25-1.066-1.999-.709-.748.356-1.066 1.251-.71 2 3.073 6.452 8.324 9.723 15.609 9.723 8.225 0 13.883-5.102 15.659-9.842.292-.777-.101-1.641-.877-1.932z" fill="#3a312a"/><path d="m81.797 16.68c-1.5 0-40.5 16.865-40.5 31.5 0 14.636 18.132 26.5 40.5 26.5s40.5-11.864 40.5-26.5c0-14.635-40-31.5-40.5-31.5z" fill="#87796f"/><path d="m103.007 25.656c-9.394-5.644-20.313-10.476-21.21-10.476-2.069 0-42 17.19-42 33 0 15.439 18.841 28 42 28s42-12.561 42-28c0-6.657-6.995-14.236-20.79-22.524zm-21.21 47.524c-21.505 0-39-11.215-39-25 0-12.699 34.288-28.57 38.922-29.945 4.642 1.726 39.078 17.491 39.078 29.945 0 13.785-17.495 25-39 25z" fill="#3a312a"/><ellipse cx="195.743" cy="131.18" fill="#f16c7a" rx="44" ry="44" transform="matrix(.87 -.493 .493 .87 -39.225 113.47)"/><path d="m195.743 85.68c-25.089 0-45.5 20.411-45.5 45.5s20.411 45.5 45.5 45.5 45.5-20.411 45.5-45.5-20.411-45.5-45.5-45.5zm0 88c-23.435 0-42.5-19.066-42.5-42.5 0-23.435 19.065-42.5 42.5-42.5s42.5 19.065 42.5 42.5-19.065 42.5-42.5 42.5z" fill="#3a312a"/><path d="m195.743 100.678c-7.983 0-14.454 6.471-14.454 14.454s6.471 14.454 14.454 14.454 14.454-6.471 14.454-14.454-6.471-14.454-14.454-14.454z" fill="#d7e057"/><path d="m195.743 99.178c-8.797 0-15.954 7.157-15.954 15.954s7.157 15.954 15.954 15.954 15.954-7.157 15.954-15.954-7.157-15.954-15.954-15.954zm0 28.908c-7.143 0-12.954-5.811-12.954-12.954s5.812-12.954 12.954-12.954 12.954 5.811 12.954 12.954-5.811 12.954-12.954 12.954z" fill="#3a312a"/><path d="m218.013 153.874c-2.498-13.923-11.521-24.235-22.27-24.235s-19.772 10.312-22.27 24.235c-.728 4.06 2.345 7.809 6.47 7.809h31.6c4.125-.001 7.199-3.749 6.47-7.809z" fill="#d7e057"/><path d="m219.49 153.609c-2.69-14.997-12.456-25.47-23.747-25.47s-21.057 10.474-23.747 25.47c-.429 2.393.216 4.831 1.77 6.687 1.534 1.835 3.786 2.886 6.178 2.886h31.601c2.392 0 4.644-1.052 6.179-2.887 1.551-1.855 2.196-4.293 1.766-6.686zm-4.069 4.762c-.963 1.151-2.376 1.812-3.877 1.812h-31.601c-1.501 0-2.914-.66-3.877-1.811-.981-1.173-1.389-2.716-1.117-4.233 2.43-13.542 10.98-23 20.794-23s18.364 9.458 20.794 23c.273 1.516-.135 3.059-1.116 4.232z" fill="#3a312a"/><path d="m232.396 192.575h-120.306c-4.057 0-7.347 3.289-7.347 7.347v32.306c0 4.057 3.289 7.347 7.347 7.347h120.306c4.057 0 7.347-3.289 7.347-7.347v-32.306c0-4.058-3.289-7.347-7.347-7.347z" fill="#fce8cb"/><g fill="#3a312a"><path d="m232.396 191.075h-45.657c-.828 0-1.5.671-1.5 1.5s.672 1.5 1.5 1.5h45.657c3.224 0 5.847 2.623 5.847 5.847v32.306c0 3.224-2.623 5.847-5.847 5.847h-120.306c-3.224 0-5.847-2.623-5.847-5.847v-32.306c0-3.224 2.623-5.847 5.847-5.847h61.158c.828 0 1.5-.671 1.5-1.5s-.672-1.5-1.5-1.5h-61.158c-4.878 0-8.847 3.969-8.847 8.847v32.306c0 4.878 3.969 8.847 8.847 8.847h120.307c4.878 0 8.847-3.969 8.847-8.847v-32.306c-.001-4.878-3.97-8.847-8.848-8.847z"/><path d="m131.45 204.885c-.66 1.401-1.574 2.58-2.742 3.534-1.168.955-2.808 1.772-4.92 2.453v5.088c1.432-.437 2.623-.894 3.572-1.371s1.932-1.101 2.947-1.873v14.884h6.277v-22.714h-5.134z"/><path d="m160.96 211.055c-.214-.874-.496-1.638-.846-2.293-.351-.655-.83-1.28-1.439-1.873-.609-.594-1.396-1.077-2.361-1.447-.965-.371-2.199-.556-3.702-.556-3.128 0-5.456.848-6.985 2.544-1.528 1.696-2.293 4.667-2.293 8.912 0 1.727.15 3.304.449 4.731.3 1.427.719 2.552 1.258 3.375.74 1.158 1.69 2.036 2.849 2.635 1.157.599 2.676.899 4.555.899 3.352 0 5.713-.939 7.084-2.818s2.057-4.845 2.057-8.897c-.002-1.81-.21-3.547-.626-5.212zm-5.873 9.932c-.219.955-.559 1.653-1.021 2.095s-1.008.663-1.637.663c-.955 0-1.683-.52-2.186-1.562-.503-1.041-.754-2.983-.754-5.827 0-2.813.229-4.74.686-5.781s1.198-1.561 2.224-1.561c1.006 0 1.76.51 2.263 1.531s.754 3.014.754 5.979c-.002 2.021-.11 3.509-.329 4.463z"/><path d="m180.338 213.695 8.149-8.429h-9.177l-7.229 8.439v-8.439h-6.902v22.333h6.902v-5.45l3.565-3.735 4.709 9.185h8.499z"/><path d="m211.949 213.995v-5.866h-4.92v5.866h-5.836v4.92h5.836v5.835h4.92v-5.835h5.866v-4.92z"/></g><path d="m195.743 88.68c-3.09 0-6.1.33-9 .96 19.12 4.14 33.5 21.2 33.5 41.54 0 5.31-.98 10.39-2.76 15.08.87 2.29 1.54 4.75 2.01 7.35.43 2.39-.22 4.83-1.77 6.69-1.54 1.83-3.79 2.88-6.18 2.88h-5.86c-5.32 4.65-11.8 7.99-18.94 9.54 2.9.63 5.91.96 9 .96 23.43 0 42.5-19.07 42.5-42.5s-19.07-42.5-42.5-42.5z" fill="#d34e5c"/><path d="m232.393 194.08h-18c3.23 0 5.85 2.62 5.85 5.84v32.31c0 3.22-2.62 5.85-5.85 5.85h18c3.23 0 5.85-2.63 5.85-5.85v-32.31c0-3.22-2.62-5.84-5.85-5.84z" fill="#decaad"/></svg>