<svg id="Layer_1" enable-background="new 0 0 256 256" height="512" viewBox="0 0 256 256" width="512" xmlns="http://www.w3.org/2000/svg"><path d="m48.028 35.677c-.974 11.564-13.031 13.39-13.031 13.39 10.352.487 12.932 14.059 12.932 14.059.221-9.677 13.328-14.202 13.328-14.202-9.819-.588-13.229-13.247-13.229-13.247z" fill="#d7e057"/><path d="m61.346 47.426c-8.609-.515-11.838-12.024-11.87-12.141-.191-.703-.862-1.175-1.583-1.101-.725.066-1.298.642-1.359 1.367-.86 10.215-11.32 11.963-11.761 12.032-.763.115-1.313.79-1.273 1.56.04.771.657 1.385 1.428 1.421 9.033.425 11.505 12.719 11.529 12.843.137.711.759 1.217 1.472 1.217.042 0 .084-.002.126-.005.764-.064 1.357-.693 1.374-1.459.195-8.509 12.198-12.777 12.319-12.819.676-.235 1.092-.914.995-1.622-.099-.709-.683-1.25-1.397-1.293zm-13.573 10.347c-1.357-3.13-3.71-6.909-7.591-8.878 2.933-1.405 6.413-3.914 8.207-8.274 1.551 3.071 4.201 6.881 8.338 8.724-3.009 1.64-6.927 4.406-8.954 8.428z" fill="#3a312a"/><path d="m26.318 52.658c-.689 8.179-9.217 9.471-9.217 9.471 7.322.344 9.147 9.944 9.147 9.944.156-6.844 9.427-10.045 9.427-10.045-6.945-.416-9.357-9.37-9.357-9.37z" fill="#d7e057"/><path d="m35.764 60.529c-5.77-.345-7.977-8.185-7.999-8.264-.191-.702-.852-1.161-1.582-1.102-.726.065-1.299.642-1.36 1.368-.579 6.871-7.651 8.066-7.947 8.113-.762.115-1.313.79-1.273 1.56.04.771.657 1.385 1.428 1.421 6.039.284 7.728 8.644 7.744 8.726.135.712.759 1.22 1.472 1.22.042 0 .083-.001.125-.005.765-.063 1.358-.694 1.376-1.461.13-5.709 8.336-8.633 8.418-8.662.676-.234 1.094-.913.996-1.622-.099-.707-.683-1.249-1.398-1.292zm-9.589 6.797c-.924-1.886-2.341-3.948-4.45-5.281 1.857-1.042 3.699-2.63 4.873-4.917 1.057 1.874 2.655 3.955 4.944 5.225-1.85 1.1-3.991 2.74-5.367 4.973z" fill="#3a312a"/><path d="m26.318 26c-.689 8.179-9.217 9.471-9.217 9.471 7.322.344 9.147 9.944 9.147 9.944.156-6.845 9.427-10.045 9.427-10.045-6.945-.416-9.357-9.37-9.357-9.37z" fill="#d7e057"/><path d="m35.764 33.872c-5.77-.345-7.977-8.186-7.999-8.265-.191-.702-.852-1.16-1.582-1.102-.726.065-1.299.642-1.36 1.368-.579 6.871-7.651 8.067-7.947 8.114-.763.115-1.313.79-1.273 1.56s.657 1.384 1.428 1.421c6.039.284 7.728 8.644 7.744 8.726.135.712.759 1.22 1.472 1.22.042 0 .083-.001.125-.005.765-.063 1.358-.694 1.376-1.461.13-5.709 8.336-8.633 8.417-8.662.677-.234 1.094-.913.996-1.622-.098-.708-.682-1.249-1.397-1.292zm-9.589 6.796c-.924-1.886-2.341-3.948-4.45-5.281 1.856-1.041 3.699-2.63 4.873-4.918 1.057 1.874 2.655 3.956 4.944 5.225-1.85 1.101-3.991 2.741-5.367 4.974z" fill="#3a312a"/><path d="m203.88 182.08-67.98-117.74c-1.63-2.83-4.64-4.57-7.9-4.57s-6.27 1.74-7.9 4.57l-31.64 54.78-6.96 12.07-29.38 50.89c-1.64 2.82-1.64 6.3 0 9.13 1.63 2.82 4.64 4.56 7.9 4.56h135.96c3.26 0 6.27-1.74 7.9-4.56 1.64-2.83 1.64-6.31 0-9.13zm-128.05-4.56 52.17-90.37 52.17 90.37z" fill="#87796f"/><path d="m205.183 181.331-67.979-117.746c-1.892-3.277-5.419-5.313-9.204-5.313s-7.312 2.036-9.204 5.313l-31.63 54.786c-.415.717-.168 1.635.549 2.049.718.415 1.636.168 2.049-.549l31.631-54.786c1.358-2.352 3.889-3.813 6.606-3.813s5.248 1.461 6.606 3.813l67.979 117.745c1.358 2.353 1.358 5.275 0 7.627s-3.888 3.814-6.605 3.814h-135.961c-2.717 0-5.247-1.461-6.605-3.814s-1.358-5.275 0-7.627l29.384-50.896c.415-.717.169-1.635-.549-2.049-.717-.415-1.634-.168-2.049.549l-29.384 50.896c-1.893 3.278-1.893 7.35 0 10.627 1.892 3.278 5.418 5.314 9.204 5.314h135.96c3.785 0 7.312-2.036 9.203-5.314 1.892-3.276 1.892-7.349-.001-10.626zm-130.653-3.064c.268.464.763.75 1.299.75h104.342c.536 0 1.031-.286 1.299-.75s.268-1.036 0-1.5l-52.171-90.362c-.267-.464-.763-.75-1.299-.75s-1.031.286-1.299.75l-52.171 90.362c-.268.463-.268 1.036 0 1.5zm53.47-88.113 49.573 85.862h-99.146z" fill="#3a312a"/><circle cx="128" cy="69.356" fill="#f16c7a" r="43.356"/><path d="m128 24.5c-24.733 0-44.856 20.122-44.856 44.855 0 24.734 20.122 44.856 44.856 44.856s44.855-20.122 44.855-44.856c0-24.733-20.122-44.855-44.855-44.855zm0 86.711c-23.079 0-41.856-18.776-41.856-41.856 0-23.079 18.777-41.855 41.856-41.855s41.855 18.776 41.855 41.855c0 23.08-18.776 41.856-41.855 41.856z" fill="#3a312a"/><ellipse cx="60.456" cy="186.644" fill="#d7e057" rx="43.356" ry="43.356" transform="matrix(.383 -.924 .924 .383 -135.116 171.073)"/><path d="m60.456 141.789c-24.734 0-44.856 20.122-44.856 44.856 0 24.733 20.122 44.856 44.856 44.856 24.733 0 44.856-20.122 44.856-44.856s-20.122-44.856-44.856-44.856zm0 86.711c-23.079 0-41.856-18.776-41.856-41.856s18.776-41.856 41.856-41.856c23.079 0 41.856 18.776 41.856 41.856s-18.776 41.856-41.856 41.856z" fill="#3a312a"/><circle cx="195.544" cy="186.644" fill="#8ac6dd" r="43.356"/><path d="m195.544 141.789c-24.733 0-44.856 20.122-44.856 44.856 0 24.733 20.122 44.856 44.856 44.856s44.856-20.122 44.856-44.856c-.001-24.734-20.123-44.856-44.856-44.856zm0 86.711c-23.079 0-41.856-18.776-41.856-41.856s18.776-41.856 41.856-41.856c23.079 0 41.856 18.776 41.856 41.856-.001 23.08-18.777 41.856-41.856 41.856z" fill="#3a312a"/><path d="m195.54 144.79c-3.27 0-6.45.38-9.5 1.08 18.52 4.32 32.36 20.96 32.36 40.77s-13.84 36.46-32.36 40.78c3.05.7 6.23 1.08 9.5 1.08 23.08 0 41.86-18.78 41.86-41.86s-18.78-41.85-41.86-41.85z" fill="#6ca8bf"/></svg>