<svg id="Layer_1" enable-background="new 0 0 256 256" height="512" viewBox="0 0 256 256" width="512" xmlns="http://www.w3.org/2000/svg"><circle cx="133.45" cy="133.788" fill="#8ac5dc" r="105.75"/><path d="m133.45 26.537c-59.138 0-107.25 48.112-107.25 107.25s48.112 107.25 107.25 107.25 107.25-48.112 107.25-107.25-48.113-107.25-107.25-107.25zm0 211.5c-57.484 0-104.25-46.767-104.25-104.25s46.766-104.25 104.25-104.25 104.25 46.767 104.25 104.25-46.766 104.25-104.25 104.25z" fill="#3a312a"/><path d="m47.727 26.14c-.974 11.564-13.031 13.39-13.031 13.39 10.352.487 12.932 14.059 12.932 14.059.221-9.677 13.328-14.202 13.328-14.202-9.819-.588-13.229-13.247-13.229-13.247z" fill="#d6df58"/><path d="m61.045 37.889c-8.61-.515-11.838-12.024-11.87-12.141-.191-.703-.862-1.167-1.583-1.102-.725.066-1.298.642-1.359 1.367-.861 10.215-11.32 11.964-11.761 12.032-.763.116-1.313.791-1.273 1.561.04.771.657 1.385 1.428 1.421 9.033.425 11.505 12.72 11.529 12.844.137.711.759 1.217 1.472 1.217.042 0 .084-.002.126-.005.764-.064 1.357-.693 1.375-1.46.195-8.509 12.198-12.777 12.319-12.82.676-.234 1.092-.914.995-1.622-.1-.709-.684-1.25-1.398-1.292zm-13.572 10.347c-1.358-3.131-3.711-6.909-7.591-8.878 2.933-1.405 6.413-3.914 8.206-8.274 1.552 3.07 4.202 6.881 8.339 8.724-3.01 1.639-6.927 4.406-8.954 8.428z" fill="#3a312a"/><path d="m26.018 43.12c-.689 8.179-9.217 9.471-9.217 9.471 7.322.344 9.147 9.944 9.147 9.944.156-6.844 9.427-10.045 9.427-10.045-6.945-.416-9.357-9.37-9.357-9.37z" fill="#d6df58"/><path d="m35.463 50.992c-5.769-.345-7.977-8.186-7.998-8.265-.191-.702-.856-1.166-1.582-1.102-.726.065-1.299.643-1.36 1.368-.579 6.87-7.651 8.066-7.947 8.113-.763.116-1.313.791-1.273 1.561.04.771.657 1.385 1.428 1.421 6.039.284 7.728 8.645 7.744 8.727.136.713.759 1.22 1.472 1.22.042 0 .083-.002.125-.005.765-.063 1.358-.693 1.376-1.461.13-5.709 8.336-8.634 8.417-8.662.676-.233 1.094-.913.996-1.622s-.683-1.251-1.398-1.293zm-9.589 6.797c-.924-1.887-2.341-3.948-4.45-5.281 1.857-1.042 3.7-2.631 4.874-4.918 1.058 1.874 2.656 3.955 4.944 5.225-1.851 1.1-3.991 2.741-5.368 4.974z" fill="#3a312a"/><path d="m26.018 16.462c-.689 8.179-9.217 9.471-9.217 9.471 7.322.344 9.147 9.944 9.147 9.944.156-6.844 9.427-10.045 9.427-10.045-6.945-.415-9.357-9.37-9.357-9.37z" fill="#d6df58"/><path d="m35.463 24.335c-5.769-.345-7.977-8.186-7.998-8.265-.191-.702-.856-1.173-1.582-1.102-.726.065-1.299.643-1.36 1.368-.579 6.87-7.651 8.066-7.947 8.113-.763.116-1.313.791-1.273 1.561.04.771.657 1.385 1.428 1.421 6.039.284 7.728 8.645 7.744 8.727.135.713.759 1.22 1.472 1.22.042 0 .083-.002.125-.005.765-.063 1.358-.693 1.376-1.461.13-5.709 8.336-8.634 8.417-8.662.676-.233 1.094-.913.996-1.622s-.683-1.251-1.398-1.293zm-9.589 6.796c-.924-1.886-2.341-3.948-4.45-5.281 1.857-1.041 3.7-2.63 4.874-4.917 1.058 1.874 2.656 3.955 4.944 5.225-1.851 1.1-3.991 2.74-5.368 4.973z" fill="#3a312a"/><path d="m141.318 171.652h-22.092c-13.338 0-24.19-10.851-24.19-24.189v-36.679l12.19 12.19c3.986 3.985 10.45 3.988 14.438-.001 3.987-3.987 3.987-10.451 0-14.438l-29.62-29.616c-3.985-3.985-10.449-3.985-14.437 0l-11.209 11.208-9.942 9.942-8.466 8.466c-3.987 3.988-3.987 10.451 0 14.439 1.994 1.993 4.606 2.99 7.219 2.99s5.225-.997 7.219-2.99l12.188-12.189v36.677c0 24.597 20.012 44.607 44.608 44.607h22.092c5.638 0 10.209-4.571 10.209-10.209.002-5.637-4.57-10.208-10.207-10.208z" fill="#87796f"/><path d="m141.317 170.152h-22.092c-12.512 0-22.69-10.179-22.69-22.689v-33.058l9.63 9.629c2.211 2.212 5.151 3.43 8.278 3.43h.001c3.128 0 6.068-1.219 8.279-3.431 2.212-2.211 3.43-5.151 3.43-8.279 0-3.127-1.218-6.067-3.43-8.279l-29.619-29.617c-4.563-4.563-11.991-4.565-16.558 0l-11.208 11.208c-.586.586-.586 1.535 0 2.121s1.535.586 2.121 0l11.208-11.208c3.396-3.395 8.921-3.396 12.316 0l29.619 29.616c1.645 1.646 2.551 3.832 2.551 6.158s-.906 4.514-2.551 6.158c-1.645 1.646-3.832 2.552-6.158 2.552s-4.513-.906-6.158-2.551l-12.19-12.189c-.429-.429-1.074-.559-1.635-.325-.56.232-.926.779-.926 1.386v36.679c0 14.165 11.525 25.689 25.69 25.689h22.092c4.802 0 8.71 3.907 8.71 8.709s-3.907 8.709-8.71 8.709h-22.092c-23.77 0-43.108-19.338-43.108-43.107v-36.678c0-.606-.365-1.153-.926-1.386-.56-.234-1.207-.104-1.635.325l-12.188 12.188c-1.646 1.645-3.833 2.551-6.159 2.551s-4.513-.906-6.159-2.551c-3.395-3.396-3.395-8.921 0-12.317l8.466-8.466c.586-.586.586-1.535 0-2.121s-1.535-.586-2.121 0l-8.466 8.466c-4.564 4.566-4.564 11.995 0 16.56 2.212 2.212 5.152 3.43 8.28 3.43 3.126 0 6.067-1.218 8.28-3.43l9.628-9.628v33.057c0 25.424 20.684 46.107 46.108 46.107h22.092c6.456 0 11.71-5.253 11.71-11.709s-5.253-11.709-11.71-11.709z" fill="#3a312a"/><path d="m222.01 145.026c-1.994-1.993-4.606-2.99-7.219-2.99s-5.225.997-7.219 2.99l-12.188 12.188v-36.677c0-24.597-20.012-44.608-44.608-44.608h-22.092c-5.638 0-10.209 4.571-10.209 10.209s4.572 10.209 10.209 10.209h22.092c13.338 0 24.19 10.851 24.19 24.189v36.678l-12.19-12.19c-3.986-3.985-10.45-3.988-14.438.001-3.987 3.987-3.987 10.451 0 14.438l11.088 11.087 9.683 9.682 8.848 8.847c3.985 3.985 10.449 3.985 14.437 0l29.617-29.616c3.986-3.986 3.986-10.449-.001-14.437z" fill="#87796f"/><path d="m223.07 143.966c-2.212-2.212-5.152-3.43-8.28-3.43-3.126 0-6.067 1.218-8.28 3.43l-9.628 9.628v-33.057c0-25.424-20.684-46.107-46.108-46.107h-22.092c-6.457 0-11.71 5.253-11.71 11.709s5.253 11.709 11.71 11.709h22.092c12.512 0 22.69 10.179 22.69 22.689v33.058l-9.63-9.629c-2.211-2.212-5.151-3.43-8.278-3.43 0 0 0 0-.001 0-3.128 0-6.068 1.219-8.279 3.431-2.211 2.211-3.43 5.151-3.43 8.279 0 3.127 1.218 6.067 3.43 8.279l11.088 11.087c.586.586 1.536.586 2.121 0 .586-.586.586-1.535 0-2.121l-11.088-11.087c-1.645-1.646-2.551-3.832-2.551-6.158s.906-4.514 2.551-6.158c1.645-1.646 3.832-2.552 6.158-2.552s4.513.906 6.158 2.551l12.19 12.189c.429.429 1.073.559 1.635.325.561-.232.926-.779.926-1.386v-36.679c0-14.165-11.525-25.689-25.69-25.689h-22.092c-4.802 0-8.71-3.907-8.71-8.709s3.907-8.709 8.71-8.709h22.092c23.77 0 43.108 19.338 43.108 43.107v36.678c0 .606.365 1.153.926 1.386.562.232 1.206.104 1.635-.325l12.188-12.188c1.646-1.645 3.833-2.551 6.159-2.551s4.513.906 6.159 2.551c3.395 3.396 3.395 8.921 0 12.317l-29.617 29.616c-3.397 3.394-8.922 3.395-12.316 0l-8.848-8.847c-.586-.586-1.536-.586-2.121 0-.586.586-.586 1.535 0 2.121l8.848 8.847c2.282 2.282 5.279 3.423 8.278 3.423 2.998 0 5.997-1.141 8.28-3.423l29.617-29.616c4.565-4.566 4.565-11.995 0-16.559z" fill="#3a312a"/><path d="m133.45 29.54c-3.54 0-7.05.18-10.5.53 52.57 5.28 93.75 49.78 93.75 103.72 0 2.31-.08 4.6-.23 6.87 2.49.35 4.79 1.49 6.6 3.3 4.56 4.57 4.56 12 0 16.57l-15.17 15.17c-14.82 33.62-46.9 57.99-84.95 61.81 3.45.35 6.96.53 10.5.53 57.48 0 104.25-46.77 104.25-104.25 0-57.49-46.77-104.25-104.25-104.25z" fill="#6ca8bf"/></svg>