<svg id="Layer_1" enable-background="new 0 0 256 256" height="512" viewBox="0 0 256 256" width="512" xmlns="http://www.w3.org/2000/svg"><path d="m222.395 180.635h-188.79c-9.447 0-17.105-7.658-17.105-17.105v-130.289c0-9.447 7.658-17.106 17.105-17.106h188.789c9.447 0 17.105 7.659 17.105 17.106v130.289c.001 9.447-7.657 17.105-17.104 17.105z" fill="#87796f"/><path d="m222.395 182.135h-188.79c-10.259 0-18.605-8.346-18.605-18.605v-130.289c0-10.259 8.346-18.605 18.605-18.605h188.789c10.259 0 18.605 8.346 18.605 18.605v130.289c.001 10.259-8.345 18.605-18.604 18.605zm-188.79-164.5c-8.605 0-15.605 7.001-15.605 15.606v130.289c0 8.605 7 15.605 15.605 15.605h188.789c8.605 0 15.605-7 15.605-15.605v-130.289c0-8.605-7-15.605-15.605-15.605h-188.789z" fill="#3a312a"/><path d="m86.201 28.635h-45.17c-6.583 0-11.92 5.337-11.92 11.92v115.66c0 6.583 5.337 11.92 11.92 11.92h173.938c6.583 0 11.92-5.337 11.92-11.92v-115.66c0-6.583-5.337-11.92-11.92-11.92h-115.17z" fill="#fce8cb"/><path d="m214.969 169.635h-173.938c-7.4 0-13.42-6.02-13.42-13.42v-115.66c0-7.4 6.02-13.42 13.42-13.42h45.17c.829 0 1.5.671 1.5 1.5s-.671 1.5-1.5 1.5h-45.17c-5.746 0-10.42 4.674-10.42 10.42v115.66c0 5.746 4.674 10.42 10.42 10.42h173.938c5.746 0 10.42-4.674 10.42-10.42v-115.66c0-5.746-4.674-10.42-10.42-10.42h-115.17c-.829 0-1.5-.671-1.5-1.5s.671-1.5 1.5-1.5h115.17c7.4 0 13.42 6.02 13.42 13.42v115.66c0 7.4-6.02 13.42-13.42 13.42z" fill="#3a312a"/><path d="m78.295 64.755c-18.788 11.766-30.873 27.112-30.873 33.745 0 12.51 36.076 49 80.578 49s80.578-36.49 80.578-49c0-11.468-36.076-49-80.578-49-18.387 0-35.326 6.413-48.886 14.742z" fill="#eb6e7a"/><path d="m128 149c-44.797 0-82.078-36.667-82.078-50.5 0-9.117 16.327-25.466 31.576-35.017l.819-.513c11.126-6.833 28.765-14.97 49.683-14.97 45.148 0 82.078 38.127 82.078 50.5 0 13.833-37.281 50.5-82.078 50.5zm0-98c-20.217 0-37.316 7.896-48.101 14.52l-.808.506c-8.487 5.315-16.353 11.89-22.149 18.514-5.913 6.757-8.02 11.642-8.02 13.96 0 11.637 35.58 47.5 79.078 47.5s79.078-35.863 79.078-47.5c0-5.068-8.792-17.061-22.994-27.596-10.022-7.433-30.633-19.904-56.084-19.904zm-49.705 13.755h.01z" fill="#3a312a"/><path d="m113.688 180.635h28.625v35.593h-28.625z" fill="#87796f"/><path d="m142.312 217.729h-28.625c-.829 0-1.5-.671-1.5-1.5v-35.593c0-.829.671-1.5 1.5-1.5h28.625c.829 0 1.5.671 1.5 1.5v35.593c0 .828-.671 1.5-1.5 1.5zm-27.124-3h25.625v-32.593h-25.625z" fill="#3a312a"/><path d="m135.452 239.635h36.252c0-12.927-10.479-23.407-23.407-23.407h-40.593c-12.927 0-23.407 10.48-23.407 23.407h37.584z" fill="#87796f"/><path d="m171.703 241.135h-36.251c-.829 0-1.5-.671-1.5-1.5s.671-1.5 1.5-1.5h34.701c-.773-11.382-10.281-20.407-21.856-20.407h-40.593c-11.575 0-21.083 9.024-21.856 20.407h36.034c.829 0 1.5.671 1.5 1.5s-.671 1.5-1.5 1.5h-37.585c-.829 0-1.5-.671-1.5-1.5 0-13.733 11.173-24.907 24.907-24.907h40.593c13.733 0 24.907 11.173 24.907 24.907-.001.829-.672 1.5-1.501 1.5z" fill="#3a312a"/><path d="m47.671 203.469s3.408 12.659 13.222 13.247c0 0-13.1 4.525-13.321 14.202 0 0-2.579-13.572-12.925-14.059 0 0 12.05-1.826 13.024-13.39z" fill="#d7e057"/><path d="m47.57 232.417c-.712 0-1.335-.506-1.472-1.217-.024-.124-2.495-12.417-11.523-12.842-.77-.037-1.387-.651-1.427-1.421-.04-.771.511-1.445 1.273-1.561.441-.069 10.895-1.817 11.755-12.033.061-.725.634-1.301 1.359-1.367.735-.06 1.393.399 1.583 1.102.032.116 3.259 11.626 11.863 12.141.714.043 1.298.584 1.396 1.292s-.319 1.388-.994 1.623c-.121.042-12.118 4.311-12.313 12.819-.018.767-.61 1.396-1.375 1.459-.04.004-.083.005-.125.005zm-7.74-15.729c3.878 1.969 6.23 5.746 7.587 8.876 2.026-4.021 5.942-6.787 8.949-8.427-4.135-1.842-6.783-5.651-8.334-8.723-1.793 4.36-5.272 6.869-8.202 8.274z" fill="#3a312a"/><path d="m25.972 220.45s2.411 8.954 9.352 9.369c0 0-9.266 3.201-9.422 10.046 0 0-1.824-9.6-9.142-9.944 0 0 8.524-1.292 9.212-9.471z" fill="#d7e057"/><path d="m25.901 241.365c-.713 0-1.337-.507-1.472-1.22-.016-.082-1.704-8.442-7.74-8.726-.77-.037-1.387-.651-1.427-1.421-.04-.771.511-1.445 1.273-1.561.296-.047 7.364-1.243 7.942-8.114.061-.726.635-1.303 1.36-1.368.728-.063 1.392.399 1.582 1.102.021.079 2.228 7.92 7.994 8.265.714.043 1.299.584 1.396 1.293.098.709-.32 1.388-.996 1.622-.081.028-8.282 2.952-8.412 8.662-.018.767-.611 1.397-1.376 1.461-.041.003-.083.005-.124.005zm-4.519-11.528c2.107 1.333 3.523 3.394 4.448 5.28 1.376-2.233 3.515-3.872 5.364-4.973-2.287-1.27-3.884-3.35-4.941-5.224-1.174 2.288-3.015 3.876-4.871 4.917z" fill="#3a312a"/><path d="m25.972 193.792s2.411 8.954 9.352 9.37c0 0-9.266 3.201-9.422 10.046 0 0-1.824-9.6-9.142-9.944 0-.001 8.524-1.292 9.212-9.472z" fill="#d7e057"/><path d="m25.901 214.708c-.714 0-1.337-.507-1.473-1.22-.016-.082-1.704-8.442-7.74-8.726-.77-.037-1.387-.651-1.427-1.421-.04-.771.511-1.445 1.273-1.561.296-.047 7.364-1.243 7.942-8.113.061-.726.635-1.303 1.36-1.368.728-.064 1.392.4 1.582 1.102.021.079 2.228 7.919 7.994 8.264.714.043 1.299.584 1.396 1.293.098.709-.319 1.388-.996 1.622-.081.028-8.282 2.953-8.412 8.662-.018.767-.611 1.397-1.376 1.461-.04.003-.082.005-.123.005zm-4.519-11.528c2.107 1.333 3.523 3.395 4.447 5.28 1.376-2.232 3.515-3.872 5.364-4.973-2.287-1.269-3.884-3.35-4.941-5.223-1.173 2.286-3.014 3.875-4.87 4.916z" fill="#3a312a"/><circle cx="128" cy="98.5" fill="#d7e057" r="41"/><path d="m128 141c-23.435 0-42.5-19.065-42.5-42.5s19.065-42.5 42.5-42.5 42.5 19.065 42.5 42.5-19.065 42.5-42.5 42.5zm0-82c-21.78 0-39.5 17.72-39.5 39.5s17.72 39.5 39.5 39.5 39.5-17.72 39.5-39.5-17.72-39.5-39.5-39.5z" fill="#3a312a"/><path d="m110.844 106.889v12.346h33.863v-38.739h-33.863v21.725z" fill="#87796f"/><path d="m144.708 120.735h-33.863c-.829 0-1.5-.671-1.5-1.5v-38.739c0-.829.671-1.5 1.5-1.5h33.863c.829 0 1.5.671 1.5 1.5v38.739c0 .829-.672 1.5-1.5 1.5zm-32.364-3h30.863v-35.739h-30.863z" fill="#3a312a"/><path d="m148.044 120.657v8.193h-40.089v-8.193c0-4.993 4.049-9.041 9.045-9.041h5.98v-3.902h.101c1.646 1.159 3.326 1.841 4.918 1.841 1.66 0 3.37-.676 5.023-1.821v3.882h5.976c4.997.001 9.046 4.048 9.046 9.041z" fill="#fce8cb"/><path d="m148.044 130.35h-40.089c-.829 0-1.5-.671-1.5-1.5v-8.193c0-5.812 4.73-10.541 10.545-10.541h4.479v-2.402c0-.829.671-1.5 1.5-1.5h.102c.309 0 .611.096.864.273 1.456 1.026 2.858 1.568 4.054 1.568 1.278 0 2.681-.523 4.169-1.554.458-.318 1.055-.355 1.55-.096s.804.771.804 1.329v2.382h4.476c5.815 0 10.545 4.729 10.545 10.541v8.193c.001.829-.67 1.5-1.499 1.5zm-38.588-3h37.089v-6.693c0-4.158-3.385-7.541-7.545-7.541h-5.976c-.829 0-1.5-.671-1.5-1.5v-1.329c-2.376 1.016-4.623 1.04-7.042-.042v1.371c0 .829-.671 1.5-1.5 1.5h-5.979c-4.161 0-7.545 3.383-7.545 7.541v6.693z" fill="#3a312a"/><path d="m148.044 120.655v8.196h-40.089v-8.196c0-4.993 4.05-9.041 9.045-9.041h1.795l-.037.027 6.216 8.24 3.208-2.415 3.208 2.415 6.216-8.24-.037-.027h1.43c4.996 0 9.045 4.047 9.045 9.041z" fill="#f16c7a"/><path d="m148.044 130.351h-40.089c-.829 0-1.5-.671-1.5-1.5v-8.196c0-5.812 4.73-10.541 10.545-10.541h1.795c.607 0 1.151.366 1.383.919l5.091 6.749 2.011-1.514c.534-.402 1.271-.402 1.805 0l2.011 1.514 5.152-6.83c.249-.502.749-.837 1.321-.837h1.43c5.815 0 10.545 4.729 10.545 10.541v8.196c0 .827-.671 1.499-1.5 1.499zm-38.588-3h37.089v-6.696c0-4.158-3.385-7.541-7.545-7.541h-.625l-5.787 7.67c-.498.662-1.438.793-2.1.295l-2.306-1.736-2.306 1.736c-.662.498-1.602.367-2.1-.295l-5.787-7.67h-.99c-4.161 0-7.545 3.383-7.545 7.541v6.696z" fill="#3a312a"/><path clip-rule="evenodd" d="m116.027 89.205c0 1.965-1.593 3.557-3.559 3.557s-3.559-1.593-3.559-3.557c0-1.965 1.593-3.557 3.559-3.557s3.559 1.593 3.559 3.557z" fill="#fce8cb" fill-rule="evenodd"/><path d="m112.468 94.263c-2.79 0-5.059-2.269-5.059-5.057s2.27-5.057 5.059-5.057c2.79 0 5.06 2.269 5.06 5.057s-2.27 5.057-5.06 5.057zm0-7.115c-1.135 0-2.059.923-2.059 2.057s.924 2.057 2.059 2.057c1.136 0 2.06-.923 2.06-2.057s-.924-2.057-2.06-2.057z" fill="#3a312a"/><path clip-rule="evenodd" d="m147.092 89.205c0 1.965-1.594 3.557-3.559 3.557-1.966 0-3.559-1.593-3.559-3.557 0-1.965 1.594-3.557 3.559-3.557 1.966 0 3.559 1.593 3.559 3.557z" fill="#fce8cb" fill-rule="evenodd"/><path d="m143.533 94.263c-2.79 0-5.06-2.269-5.06-5.057s2.27-5.057 5.06-5.057 5.059 2.269 5.059 5.057-2.269 5.057-5.059 5.057zm0-7.115c-1.136 0-2.06.923-2.06 2.057s.924 2.057 2.06 2.057c1.135 0 2.059-.923 2.059-2.057s-.924-2.057-2.059-2.057z" fill="#3a312a"/><path d="m143.779 87.479c0 8.709-8.392 22.078-15.778 22.078-7.05 0-15.778-13.368-15.778-22.078 0-8.709 7.064-15.77 15.778-15.77 8.713 0 15.778 7.06 15.778 15.77z" fill="#fce8cb"/><path d="m128 111.057c-8.011 0-17.278-14.269-17.278-23.578 0-9.522 7.751-17.27 17.278-17.27s17.278 7.747 17.278 17.27-9.101 23.578-17.278 23.578zm0-37.848c-7.873 0-14.278 6.401-14.278 14.27 0 8.462 8.407 20.578 14.278 20.578 5.508 0 14.278-11.236 14.278-20.578 0-7.869-6.404-14.27-14.278-14.27z" fill="#3a312a"/><path d="m123.97 87.301c0 .85-.689 1.539-1.54 1.539s-1.54-.689-1.54-1.539.689-1.539 1.54-1.539c.85-.001 1.54.689 1.54 1.539z" fill="#3a312a"/><circle cx="133.571" cy="87.301" fill="#3a312a" r="1.54"/><path d="m122.005 91.877c0 1.095-1.188 1.982-2.653 1.982s-2.653-.888-2.653-1.982c0-1.095 1.188-1.982 2.653-1.982s2.653.887 2.653 1.982z" fill="#f5978a"/><path d="m139.302 91.877c0 1.095-1.188 1.982-2.653 1.982s-2.653-.888-2.653-1.982c0-1.095 1.188-1.982 2.653-1.982s2.653.887 2.653 1.982z" fill="#f5978a"/><path d="m121.462 109.386h4.033v10.322h-4.033z" fill="#87796f" transform="matrix(.799 -.602 .602 .799 -44.069 97.347)"/><path d="m124.976 121.381c-.455 0-.904-.206-1.199-.597l-6.214-8.241c-.24-.318-.343-.718-.288-1.112s.265-.75.583-.99l3.221-2.426c.66-.498 1.601-.366 2.1.295l6.214 8.241c.24.318.343.718.288 1.112s-.265.75-.583.99l-3.221 2.426c-.27.204-.587.302-.901.302zm-4.115-9.446 4.408 5.846.825-.622-4.408-5.846z" fill="#3a312a"/><path d="m130.871 109.386h4.033v10.322h-4.033z" fill="#87796f" transform="matrix(-.799 -.602 .602 -.799 170.109 285.996)"/><g fill="#3a312a"><path d="m131.39 121.381c-.314 0-.631-.098-.901-.302l-3.221-2.426c-.318-.24-.528-.596-.583-.99-.056-.394.048-.794.288-1.112l6.214-8.241c.499-.661 1.439-.792 2.1-.295l3.221 2.426c.318.24.528.596.583.99.056.394-.048.794-.288 1.112l-6.214 8.241c-.296.391-.745.597-1.199.597zm-1.119-4.222.825.622 4.408-5.846-.825-.622z"/><path d="m115.465 130.351c-.829 0-1.5-.671-1.5-1.5v-6.475c0-.829.671-1.5 1.5-1.5s1.5.671 1.5 1.5v6.475c0 .828-.672 1.5-1.5 1.5z"/><path d="m140.9 130.351c-.829 0-1.5-.671-1.5-1.5v-6.475c0-.829.671-1.5 1.5-1.5s1.5.671 1.5 1.5v6.475c0 .828-.671 1.5-1.5 1.5z"/><path d="m128 101.77c-2.626 0-4.602-1.233-5.714-3.566-.356-.748-.039-1.643.708-2 .75-.355 1.643-.039 2 .708.612 1.285 1.54 1.857 3.006 1.857 1.89 0 2.774-1.255 2.955-1.738.292-.776 1.16-1.167 1.931-.878.776.291 1.169 1.156.878 1.931-.665 1.775-2.753 3.686-5.764 3.686z"/></g><path d="m145.957 81.699c0 1.616-.21 3.182-.608 4.673-4.041-1.947-7.885-4.338-11.447-7.041-1.045-.791-2.073-1.616-3.056-2.489-1.206-1.057-2.346-2.197-3.374-3.432-2.237-2.693-3.88-5.786-5.27-9.008 1.754-.568 3.627-.874 5.572-.874 5.201 0 9.893 2.184 13.208 5.684 3.086 3.256 4.975 7.65 4.975 12.487z" fill="#87796f"/><path d="m145.349 87.872c-.223 0-.445-.05-.651-.148-4.032-1.943-7.97-4.364-11.703-7.197-1.194-.904-2.224-1.743-3.146-2.563-1.319-1.156-2.509-2.367-3.53-3.593-2.058-2.477-3.804-5.455-5.495-9.373-.167-.388-.163-.828.011-1.213s.503-.678.904-.809c1.939-.628 3.97-.946 6.035-.946 5.462 0 10.54 2.185 14.297 6.153 3.473 3.663 5.385 8.463 5.385 13.516 0 1.718-.222 3.42-.659 5.059-.115.432-.417.79-.823.977-.198.091-.412.137-.625.137zm-21.057-22.478c1.35 2.877 2.746 5.147 4.334 7.058.92 1.104 2 2.202 3.209 3.262.871.774 1.84 1.564 2.973 2.421 3.04 2.307 6.217 4.327 9.469 6.021.12-.81.18-1.631.18-2.458 0-4.282-1.621-8.349-4.563-11.453-3.186-3.364-7.489-5.217-12.119-5.217-1.18.001-2.346.124-3.483.366z" fill="#3a312a"/><path d="m140.982 69.214c-3.128 2.85-6.532 5.372-10.136 7.628-6.39 4.003-13.398 7.162-20.571 9.792-.444-1.57-.68-3.225-.68-4.936 0-8.091 5.293-14.948 12.607-17.296 1.754-.568 3.627-.874 5.572-.874 5.202.001 9.893 2.185 13.208 5.686z" fill="#87796f"/><path d="m110.276 88.134c-.235 0-.469-.055-.682-.164-.372-.19-.648-.526-.761-.928-.489-1.73-.737-3.528-.737-5.343 0-8.579 5.485-16.103 13.648-18.724 1.936-.627 3.966-.945 6.031-.945 5.462 0 10.54 2.185 14.297 6.153.277.292.424.684.41 1.086-.015.403-.191.782-.489 1.054-3.052 2.781-6.535 5.402-10.35 7.791-5.915 3.705-12.735 6.953-20.85 9.929-.168.061-.343.091-.517.091zm17.499-23.105c-1.751 0-3.47.27-5.11.801-6.921 2.222-11.569 8.599-11.569 15.869 0 .988.086 1.969.258 2.933 7.22-2.74 13.35-5.711 18.697-9.061 3.173-1.986 6.102-4.136 8.726-6.404-3.042-2.679-6.894-4.138-11.002-4.138z" fill="#3a312a"/><path d="m214.97 30.14h-16c5.74 0 10.42 4.67 10.42 10.42v54.52c.46 1.28.69 2.43.69 3.42 0 1.1-.23 2.34-.69 3.69v54.03c0 5.74-4.68 10.42-10.42 10.42h16c5.74 0 10.42-4.68 10.42-10.42v-115.66c0-5.75-4.68-10.42-10.42-10.42z" fill="#decaad"/></svg>