<?xml version="1.0" encoding="iso-8859-1"?>
<!-- Generator: Adobe Illustrator 19.0.0, SVG Export Plug-In . SVG Version: 6.00 Build 0)  -->
<svg version="1.1" id="Layer_1" xmlns="http://www.w3.org/2000/svg" xmlns:xlink="http://www.w3.org/1999/xlink" x="0px" y="0px"
	 viewBox="0 0 512.001 512.001" style="enable-background:new 0 0 512.001 512.001;" xml:space="preserve">
<g>
	<path style="fill:#74B73E;" d="M506.606,148.55l-76.712-84.383c-3.928-4.317-9.498-6.788-15.342-6.788H18.026
		C8.068,57.378,0,65.447,0,75.404v264.095c0,9.949,8.068,18.017,18.026,18.017h26.112c0-29.246,23.711-52.966,52.966-52.966
		s52.966,23.72,52.966,52.966h211.862c0-29.246,23.711-52.966,52.966-52.966c29.255,0,52.966,23.72,52.966,52.966h26.112
		c9.957,0,18.026-8.068,18.026-18.017V162.506C512,157.342,510.076,152.372,506.606,148.55"/>
	<g>
		<path style="fill:#E0E0E0;" d="M394.759,198.622h117.239V162.5c0-5.155-1.924-10.134-5.394-13.948l-50.776-55.861h-61.069
			c-3.505,0-6.347,2.842-6.347,6.347v93.237C388.412,195.78,391.255,198.622,394.759,198.622"/>
		<path style="fill:#E0E0E0;" d="M0.001,92.691v105.931h68.961c5.791,0,10.487-4.696,10.487-10.487v-84.957
			c0-5.791-4.696-10.487-10.487-10.487H0.001z"/>
		<path style="fill:#E0E0E0;" d="M256.001,105.104v81.108c0,6.85,5.561,12.412,12.412,12.412h63.453
			c6.85,0,12.412-5.561,12.412-12.412v-81.108c0-6.859-5.561-12.412-12.412-12.412h-63.453
			C261.562,92.692,256.001,98.245,256.001,105.104"/>
		<path style="fill:#E0E0E0;" d="M123.587,105.104v81.108c0,6.85,5.561,12.412,12.412,12.412h63.453
			c6.85,0,12.412-5.561,12.412-12.412v-81.108c0-6.859-5.561-12.412-12.412-12.412h-63.453
			C129.148,92.692,123.587,98.245,123.587,105.104"/>
	</g>
	<path style="fill:#494949;" d="M467.863,357.519c0,29.255-23.711,52.966-52.966,52.966s-52.966-23.711-52.966-52.966
		s23.711-52.966,52.966-52.966S467.863,328.264,467.863,357.519"/>
	<path style="fill:#A2A2A2;" d="M432.553,357.519c0,9.754-7.901,17.655-17.655,17.655s-17.655-7.901-17.655-17.655
		s7.901-17.655,17.655-17.655S432.553,347.765,432.553,357.519"/>
	<path style="fill:#494949;" d="M150.07,357.519c0,29.255-23.711,52.966-52.966,52.966s-52.966-23.711-52.966-52.966
		s23.711-52.966,52.966-52.966S150.07,328.264,150.07,357.519"/>
	<path style="fill:#A2A2A2;" d="M114.76,357.519c0,9.754-7.901,17.655-17.655,17.655s-17.655-7.901-17.655-17.655
		s7.901-17.655,17.655-17.655S114.76,347.765,114.76,357.519"/>
	<g>
		<path style="fill:#599922;" d="M512.001,251.588h-52.965c-4.882,0-8.828,3.946-8.828,8.828s3.946,8.828,8.828,8.828h52.965
			V251.588z"/>
		<path style="fill:#599922;" d="M282.484,225.105H0.001v17.655h282.483c4.873,0,8.828-3.946,8.828-8.828
			S287.356,225.105,282.484,225.105"/>
		<path style="fill:#599922;" d="M317.794,260.416H0.001v17.655h317.793c4.873,0,8.828-3.946,8.828-8.828
			S322.667,260.416,317.794,260.416"/>
	</g>
	<path style="fill:#A2C9EC;" d="M512.001,344.278c0,60.946-49.399,110.345-110.345,110.345s-110.345-49.399-110.345-110.345
		s49.399-110.345,110.345-110.345S512.001,283.332,512.001,344.278"/>
	<path style="fill:#434C6D;" d="M401.656,251.588c-41.649,0-78.389,28.089-89.344,68.299c-1.289,4.705,1.492,9.56,6.197,10.84
		c4.661,1.254,9.551-1.492,10.84-6.197c8.863-32.556,38.603-55.287,72.307-55.287c41.375,0,75.034,33.66,75.034,75.034
		s-33.66,75.034-75.034,75.034c-29.705,0-56.302-17.664-68.273-44.138h46.204v-17.655h-52.966h-8.828h-8.828v70.621h17.655v-29.493
		l0,0v-0.203c17.064,23.605,44.721,38.524,75.034,38.524c51.112,0,92.69-41.578,92.69-92.69S452.768,251.588,401.656,251.588"/>
</g>
<g>
</g>
<g>
</g>
<g>
</g>
<g>
</g>
<g>
</g>
<g>
</g>
<g>
</g>
<g>
</g>
<g>
</g>
<g>
</g>
<g>
</g>
<g>
</g>
<g>
</g>
<g>
</g>
<g>
</g>
</svg>
