<?xml version="1.0" encoding="iso-8859-1"?>
<!-- Generator: Adobe Illustrator 19.0.0, SVG Export Plug-In . SVG Version: 6.00 Build 0)  -->
<svg version="1.1" id="Layer_1" xmlns="http://www.w3.org/2000/svg" xmlns:xlink="http://www.w3.org/1999/xlink" x="0px" y="0px"
	 viewBox="0 0 512.001 512.001" style="enable-background:new 0 0 512.001 512.001;" xml:space="preserve">
<g>
	<path style="fill:#74B73E;" d="M506.606,148.55l-76.712-84.383c-3.928-4.317-9.498-6.788-15.342-6.788H18.026
		C8.068,57.378,0,65.447,0,75.404v264.095c0,9.949,8.068,18.017,18.026,18.017h26.112c0-29.246,23.711-52.966,52.966-52.966
		s52.966,23.72,52.966,52.966h211.862c0-29.246,23.711-52.966,52.966-52.966c29.255,0,52.966,23.72,52.966,52.966h26.112
		c9.957,0,18.026-8.068,18.026-18.017V162.506C512,157.342,510.076,152.372,506.606,148.55"/>
	<g>
		<path style="fill:#E0E0E0;" d="M394.759,198.622h117.239V162.5c0-5.155-1.924-10.134-5.394-13.948l-50.776-55.861h-61.069
			c-3.505,0-6.347,2.842-6.347,6.347v93.237C388.412,195.78,391.255,198.622,394.759,198.622"/>
		<path style="fill:#E0E0E0;" d="M0.001,92.691v105.931h68.961c5.791,0,10.487-4.696,10.487-10.487v-84.957
			c0-5.791-4.696-10.487-10.487-10.487H0.001z"/>
		<path style="fill:#E0E0E0;" d="M256.001,105.104v81.108c0,6.85,5.561,12.412,12.412,12.412h63.453
			c6.85,0,12.412-5.561,12.412-12.412v-81.108c0-6.859-5.561-12.412-12.412-12.412h-63.453
			C261.562,92.692,256.001,98.245,256.001,105.104"/>
		<path style="fill:#E0E0E0;" d="M123.587,105.104v81.108c0,6.85,5.561,12.412,12.412,12.412h63.453
			c6.85,0,12.412-5.561,12.412-12.412v-81.108c0-6.859-5.561-12.412-12.412-12.412h-63.453
			C129.148,92.692,123.587,98.245,123.587,105.104"/>
	</g>
	<path style="fill:#A2A2A2;" d="M432.553,357.519c0,9.754-7.901,17.655-17.655,17.655s-17.655-7.901-17.655-17.655
		s7.901-17.655,17.655-17.655S432.553,347.765,432.553,357.519"/>
	<path style="fill:#494949;" d="M150.07,357.519c0,29.255-23.711,52.966-52.966,52.966s-52.966-23.711-52.966-52.966
		s23.711-52.966,52.966-52.966S150.07,328.264,150.07,357.519"/>
	<path style="fill:#A2A2A2;" d="M114.76,357.519c0,9.754-7.901,17.655-17.655,17.655s-17.655-7.901-17.655-17.655
		s7.901-17.655,17.655-17.655S114.76,347.765,114.76,357.519"/>
	<g>
		<path style="fill:#599922;" d="M512.001,251.588h-52.965c-4.882,0-8.828,3.946-8.828,8.828s3.946,8.828,8.828,8.828h52.965
			V251.588z"/>
		<path style="fill:#599922;" d="M282.484,225.105H0.001v17.655h282.483c4.873,0,8.828-3.946,8.828-8.828
			S287.356,225.105,282.484,225.105"/>
		<path style="fill:#599922;" d="M317.794,260.416H0.001v17.655h317.793c4.873,0,8.828-3.946,8.828-8.828
			S322.667,260.416,317.794,260.416"/>
	</g>
	<path style="fill:#EBB916;" d="M501.06,454.622H291.926c-8.43,0-13.683-9.145-9.437-16.428l104.572-179.253
		c4.211-7.23,14.654-7.23,18.873,0l104.563,179.253C514.743,445.477,509.49,454.622,501.06,454.622"/>
	<g>
		<path style="fill:#FFFFFF;" d="M397.242,392.829c-4.873,0-8.828-3.955-8.828-8.828v-70.621c0-4.873,3.955-8.828,8.828-8.828
			c4.873,0,8.828,3.955,8.828,8.828v70.621C406.07,388.875,402.115,392.829,397.242,392.829"/>
		<path style="fill:#FFFFFF;" d="M397.242,428.14c-2.295,0-4.59-0.971-6.268-2.56c-1.589-1.677-2.56-3.972-2.56-6.268
			s0.971-4.59,2.56-6.268c3.354-3.266,9.181-3.266,12.535,0c1.589,1.677,2.56,3.972,2.56,6.268s-0.971,4.59-2.56,6.268
			C401.833,427.169,399.626,428.14,397.242,428.14"/>
	</g>
</g>
<g>
</g>
<g>
</g>
<g>
</g>
<g>
</g>
<g>
</g>
<g>
</g>
<g>
</g>
<g>
</g>
<g>
</g>
<g>
</g>
<g>
</g>
<g>
</g>
<g>
</g>
<g>
</g>
<g>
</g>
</svg>
