<?xml version="1.0" encoding="iso-8859-1"?>
<!-- Generator: Adobe Illustrator 19.0.0, SVG Export Plug-In . SVG Version: 6.00 Build 0)  -->
<svg version="1.1" id="Layer_1" xmlns="http://www.w3.org/2000/svg" xmlns:xlink="http://www.w3.org/1999/xlink" x="0px" y="0px"
	 viewBox="0 0 512 512" style="enable-background:new 0 0 512 512;" xml:space="preserve">
<g>
	<path style="fill:#6B4425;" d="M326.621,17.655V8.828c0-4.873-3.955-8.828-8.828-8.828H194.207c-4.873,0-8.828,3.955-8.828,8.828
		v8.828H61.793c-9.754,0-17.655,7.901-17.655,17.655v459.034c0,9.754,7.901,17.655,17.655,17.655h388.414
		c9.754,0,17.655-7.901,17.655-17.655V35.31c0-9.754-7.901-17.655-17.655-17.655H326.621z"/>
	<path style="fill:#434C6D;" d="M317.792,70.621H194.206c-4.873,0-8.828-3.955-8.828-8.828V8.828c0-4.873,3.955-8.828,8.828-8.828
		h123.586c4.873,0,8.828,3.955,8.828,8.828v52.966C326.62,66.666,322.665,70.621,317.792,70.621"/>
	<path style="fill:#ECE8D8;" d="M326.621,52.966v8.828c0,4.873-3.955,8.828-8.828,8.828H194.207c-4.873,0-8.828-3.955-8.828-8.828
		v-8.828H88.276c-4.873,0-8.828,3.955-8.828,8.828v406.069c0,4.873,3.955,8.828,8.828,8.828h335.448
		c4.873,0,8.828-3.955,8.828-8.828V61.793c0-4.873-3.955-8.828-8.828-8.828H326.621z"/>
	<g>
		<path style="fill:#C9B693;" d="M344.285,414.897c-2.851,0-5.658-1.377-7.353-3.928l-17.655-26.483
			c-2.71-4.061-1.615-9.534,2.445-12.244c4.061-2.71,9.534-1.615,12.244,2.445l17.655,26.483c2.71,4.061,1.615,9.534-2.445,12.244
			C347.666,414.411,345.962,414.897,344.285,414.897"/>
		<path style="fill:#C9B693;" d="M344.267,414.897c-1.774,0-3.566-0.538-5.12-1.651c-3.964-2.825-4.89-8.342-2.048-12.306
			l44.129-61.793c2.851-3.964,8.369-4.89,12.314-2.048c3.964,2.825,4.89,8.342,2.048,12.306l-44.138,61.793
			C349.731,413.608,347.021,414.897,344.267,414.897"/>
		<path style="fill:#C9B693;" d="M176.052,176.552h159.894l-28.072-39.318c-2.163-3.019-5.667-4.82-9.384-4.82h-84.983
			c-3.716,0-7.221,1.801-9.375,4.82L176.052,176.552z M353.107,194.207H158.9c-3.31,0-6.338-1.845-7.848-4.785
			c-1.518-2.94-1.262-6.479,0.662-9.172l38.056-53.274c5.464-7.645,14.336-12.217,23.737-12.217h84.983
			c9.41,0,18.273,4.573,23.746,12.217l38.047,53.274c1.924,2.692,2.18,6.232,0.662,9.172
			C359.436,192.362,356.417,194.207,353.107,194.207L353.107,194.207z"/>
		<path style="fill:#C9B693;" d="M185.379,229.517c-9.737,0-17.655,7.918-17.655,17.655s7.918,17.655,17.655,17.655
			c9.737,0,17.655-7.918,17.655-17.655S195.116,229.517,185.379,229.517 M185.379,282.483c-19.474,0-35.31-15.837-35.31-35.31
			s15.837-35.31,35.31-35.31s35.31,15.837,35.31,35.31S204.853,282.483,185.379,282.483"/>
		<path style="fill:#C9B693;" d="M326.621,229.517c-9.737,0-17.655,7.918-17.655,17.655s7.918,17.655,17.655,17.655
			c9.737,0,17.655-7.918,17.655-17.655S336.358,229.517,326.621,229.517 M326.621,282.483c-19.474,0-35.31-15.837-35.31-35.31
			s15.837-35.31,35.31-35.31s35.31,15.837,35.31,35.31S346.094,282.483,326.621,282.483"/>
		<path style="fill:#C9B693;" d="M360.81,238.345h13.815c2.737,0,4.961-2.225,4.961-4.961v-34.216c0-2.737-2.225-4.961-4.961-4.961
			H137.366c-2.728,0-4.952,2.225-4.952,4.961v34.216c0,2.737,2.225,4.961,4.952,4.961h13.824
			c3.919-15.219,17.77-26.483,34.189-26.483c16.419,0,30.27,11.264,34.189,26.483h72.863c3.919-15.219,17.77-26.483,34.189-26.483
			S356.891,223.126,360.81,238.345 M374.625,256h-21.522c-4.882,0-8.828-3.946-8.828-8.828c0-9.737-7.927-17.655-17.655-17.655
			c-9.737,0-17.655,7.918-17.655,17.655c0,4.882-3.946,8.828-8.828,8.828h-88.276c-4.882,0-8.828-3.946-8.828-8.828
			c0-9.737-7.927-17.655-17.655-17.655c-9.737,0-17.655,7.918-17.655,17.655c0,4.882-3.946,8.828-8.828,8.828h-21.53
			c-12.465,0-22.607-10.143-22.607-22.616v-34.216c0-12.473,10.143-22.616,22.607-22.616h237.259
			c12.473,0,22.616,10.143,22.616,22.616v34.216C397.241,245.857,387.099,256,374.625,256"/>
		<path style="fill:#C9B693;" d="M256,344.276H123.586c-4.882,0-8.828-3.946-8.828-8.828c0-4.882,3.946-8.828,8.828-8.828H256
			c4.882,0,8.828,3.946,8.828,8.828C264.828,340.33,260.882,344.276,256,344.276"/>
		<path style="fill:#C9B693;" d="M256,388.414H123.586c-4.882,0-8.828-3.946-8.828-8.828c0-4.882,3.946-8.828,8.828-8.828H256
			c4.882,0,8.828,3.946,8.828,8.828C264.828,384.468,260.882,388.414,256,388.414"/>
		<path style="fill:#C9B693;" d="M256,432.552H123.586c-4.882,0-8.828-3.946-8.828-8.828c0-4.882,3.946-8.828,8.828-8.828H256
			c4.882,0,8.828,3.946,8.828,8.828C264.828,428.606,260.882,432.552,256,432.552"/>
		<path style="fill:#C9B693;" d="M256,194.207c-4.882,0-8.828-3.946-8.828-8.828v-61.793c0-4.882,3.946-8.828,8.828-8.828
			s8.828,3.946,8.828,8.828v61.793C264.828,190.261,260.882,194.207,256,194.207"/>
	</g>
</g>
<g>
</g>
<g>
</g>
<g>
</g>
<g>
</g>
<g>
</g>
<g>
</g>
<g>
</g>
<g>
</g>
<g>
</g>
<g>
</g>
<g>
</g>
<g>
</g>
<g>
</g>
<g>
</g>
<g>
</g>
</svg>
