<?xml version="1.0" encoding="iso-8859-1"?>
<!-- Generator: Adobe Illustrator 19.0.0, SVG Export Plug-In . SVG Version: 6.00 Build 0)  -->
<svg version="1.1" id="Layer_1" xmlns="http://www.w3.org/2000/svg" xmlns:xlink="http://www.w3.org/1999/xlink" x="0px" y="0px"
	 viewBox="0 0 512 512" style="enable-background:new 0 0 512 512;" xml:space="preserve">
<g>
	<g>
		<path style="fill:#B3B3B3;" d="M291.31,436.966V419.31c68.149,0,123.586-55.437,123.586-123.586V180.966h17.655v114.759
			C432.552,373.601,369.187,436.966,291.31,436.966"/>
		<path style="fill:#B3B3B3;" d="M423.724,189.793c-4.882,0-8.828-3.955-8.828-8.828v-26.483c0-4.873,3.946-8.828,8.828-8.828
			c4.882,0,8.828,3.955,8.828,8.828v26.483C432.552,185.838,428.606,189.793,423.724,189.793"/>
	</g>
	<path style="fill:#666666;" d="M335.448,331.034c0,92.628-75.096,167.724-167.724,167.724S0,423.662,0,331.034
		S75.096,163.31,167.724,163.31S335.448,238.407,335.448,331.034"/>
	<path style="fill:#B3B3B3;" d="M273.655,331.034c0,58.5-47.431,105.931-105.931,105.931S61.793,389.535,61.793,331.034
		s47.431-105.931,105.931-105.931S273.655,272.534,273.655,331.034"/>
	<g>
		<path style="fill:#484848;" d="M194.207,331.034c0,14.627-11.855,26.483-26.483,26.483s-26.483-11.855-26.483-26.483
			s11.855-26.483,26.483-26.483S194.207,316.407,194.207,331.034"/>
		<path style="fill:#484848;" d="M158.897,313.379h17.655v-88.276h-17.655V313.379z"/>
		<path style="fill:#484848;" d="M158.897,436.966h17.655V348.69h-17.655V436.966z"/>
		<path style="fill:#484848;" d="M185.379,339.862h88.276v-17.655h-88.276V339.862z"/>
		<path style="fill:#484848;" d="M61.793,339.862h88.276v-17.655H61.793V339.862z"/>
		<path style="fill:#484848;" d="M182.793,328.448l-12.482-12.482l66.074-66.074l12.482,12.482L182.793,328.448z"/>
		<path style="fill:#484848;" d="M99.061,412.181l-12.482-12.482l66.074-66.074l12.482,12.482L99.061,412.181z"/>
		<path style="fill:#484848;" d="M236.388,412.181l-66.074-66.074l12.482-12.482l66.074,66.074L236.388,412.181z"/>
		<path style="fill:#484848;" d="M152.655,328.448l-66.074-66.074l12.482-12.482l66.074,66.074L152.655,328.448z"/>
	</g>
	<path style="fill:#B3B3B3;" d="M503.172,101.517c0,43.882-35.566,79.448-79.448,79.448s-79.448-35.566-79.448-79.448
		s35.566-79.448,79.448-79.448S503.172,57.635,503.172,101.517"/>
	<g>
		<path style="fill:#F26E5A;" d="M441.379,101.517c0,9.754-7.901,17.655-17.655,17.655c-9.754,0-17.655-7.901-17.655-17.655
			s7.901-17.655,17.655-17.655C433.479,83.862,441.379,91.763,441.379,101.517"/>
		<path style="fill:#F26E5A;" d="M429.965,104.104c-2.26,0-4.52-0.865-6.241-2.586c-3.452-3.452-3.452-9.031,0-12.482l29.069-29.069
			c3.452-3.452,9.031-3.452,12.482,0c3.452,3.452,3.452,9.031,0,12.482l-29.069,29.069
			C434.485,103.239,432.225,104.104,429.965,104.104"/>
	</g>
	<g>
		<path style="fill:#FFFFFF;" d="M423.724,57.379c-4.882,0-8.828-3.955-8.828-8.828V22.069c0-4.873,3.946-8.828,8.828-8.828
			c4.882,0,8.828,3.955,8.828,8.828v26.483C432.552,53.425,428.606,57.379,423.724,57.379"/>
		<path style="fill:#FFFFFF;" d="M370.759,110.345h-26.483c-4.873,0-8.828-3.955-8.828-8.828s3.955-8.828,8.828-8.828h26.483
			c4.873,0,8.828,3.955,8.828,8.828S375.631,110.345,370.759,110.345"/>
		<path style="fill:#FFFFFF;" d="M503.172,110.345H476.69c-4.882,0-8.828-3.955-8.828-8.828s3.946-8.828,8.828-8.828h26.483
			c4.882,0,8.828,3.955,8.828,8.828S508.054,110.345,503.172,110.345"/>
	</g>
</g>
<g>
</g>
<g>
</g>
<g>
</g>
<g>
</g>
<g>
</g>
<g>
</g>
<g>
</g>
<g>
</g>
<g>
</g>
<g>
</g>
<g>
</g>
<g>
</g>
<g>
</g>
<g>
</g>
<g>
</g>
</svg>
