<?xml version="1.0" encoding="iso-8859-1"?>
<!-- Generator: Adobe Illustrator 19.0.0, SVG Export Plug-In . SVG Version: 6.00 Build 0)  -->
<svg version="1.1" id="Layer_1" xmlns="http://www.w3.org/2000/svg" xmlns:xlink="http://www.w3.org/1999/xlink" x="0px" y="0px"
	 viewBox="0 0 512 512" style="enable-background:new 0 0 512 512;" xml:space="preserve">
<g>
	<g>
		<path style="fill:#383838;" d="M143.186,138.847c-4.799,0-8.678-3.879-8.678-8.678c0-38.279-31.145-69.424-69.424-69.424
			c-4.799,0-8.678-3.879-8.678-8.678s3.879-8.678,8.678-8.678c47.85,0,86.78,38.929,86.78,86.78
			C151.864,134.968,147.985,138.847,143.186,138.847"/>
		<path style="fill:#383838;" d="M143.186,260.339c-4.799,0-8.678-3.879-8.678-8.678c0-38.278-31.145-69.424-69.424-69.424
			c-4.799,0-8.678-3.879-8.678-8.678c0-4.799,3.879-8.678,8.678-8.678c47.85,0,86.78,38.929,86.78,86.78
			C151.864,256.46,147.985,260.339,143.186,260.339"/>
		<path style="fill:#383838;" d="M143.186,381.831c-4.799,0-8.678-3.879-8.678-8.678c0-38.279-31.145-69.424-69.424-69.424
			c-4.799,0-8.678-3.879-8.678-8.678s3.879-8.678,8.678-8.678c47.85,0,86.78,38.929,86.78,86.78
			C151.864,377.951,147.985,381.831,143.186,381.831"/>
		<path style="fill:#383838;" d="M368.814,138.847c-4.799,0-8.678-3.879-8.678-8.678c0-47.85,38.929-86.78,86.78-86.78
			c4.799,0,8.678,3.879,8.678,8.678s-3.879,8.678-8.678,8.678c-38.279,0-69.424,31.145-69.424,69.424
			C377.492,134.968,373.612,138.847,368.814,138.847"/>
		<path style="fill:#383838;" d="M368.814,260.339c-4.799,0-8.678-3.879-8.678-8.678c0-47.85,38.929-86.78,86.78-86.78
			c4.799,0,8.678,3.879,8.678,8.678c0,4.799-3.879,8.678-8.678,8.678c-38.279,0-69.424,31.145-69.424,69.424
			C377.492,256.46,373.612,260.339,368.814,260.339"/>
		<path style="fill:#383838;" d="M368.814,381.831c-4.799,0-8.678-3.879-8.678-8.678c0-47.85,38.929-86.78,86.78-86.78
			c4.799,0,8.678,3.879,8.678,8.678s-3.879,8.678-8.678,8.678c-38.279,0-69.424,31.145-69.424,69.424
			C377.492,377.951,373.612,381.831,368.814,381.831"/>
	</g>
	<g>
		<path style="fill:#535353;" d="M221.288,512h69.424v-43.39h-69.424V512z"/>
		<path style="fill:#535353;" d="M362.577,407.864H149.428c-8.244,0-14.917-6.682-14.917-14.917V8.678h242.983v384.269
			C377.494,401.182,370.812,407.864,362.577,407.864"/>
	</g>
	<path style="fill:#383838;" d="M412.203,17.356H99.797c-4.799,0-8.678-3.879-8.678-8.678S94.998,0,99.797,0h312.407
		c4.799,0,8.678,3.879,8.678,8.678S417.002,17.356,412.203,17.356"/>
	<path style="fill:#E85A4B;" d="M299.39,86.78c0,23.96-19.43,43.39-43.39,43.39s-43.39-19.43-43.39-43.39S232.04,43.39,256,43.39
		S299.39,62.82,299.39,86.78"/>
	<path style="fill:#FEC44C;" d="M299.39,208.271c0,23.96-19.43,43.39-43.39,43.39s-43.39-19.43-43.39-43.39s19.43-43.39,43.39-43.39
		S299.39,184.311,299.39,208.271"/>
	<path style="fill:#75B93F;" d="M299.39,329.763c0,23.96-19.43,43.39-43.39,43.39s-43.39-19.43-43.39-43.39
		c0-23.96,19.43-43.39,43.39-43.39S299.39,305.803,299.39,329.763"/>
	<path style="fill:#383838;" d="M299.661,468.61h-87.326c-4.643,0-8.4-3.766-8.4-8.409v-52.337H308.07v52.337
		C308.07,464.844,304.304,468.61,299.661,468.61"/>
</g>
<g>
</g>
<g>
</g>
<g>
</g>
<g>
</g>
<g>
</g>
<g>
</g>
<g>
</g>
<g>
</g>
<g>
</g>
<g>
</g>
<g>
</g>
<g>
</g>
<g>
</g>
<g>
</g>
<g>
</g>
</svg>
