<?xml version="1.0" encoding="iso-8859-1"?>
<!-- Generator: Adobe Illustrator 19.0.0, SVG Export Plug-In . SVG Version: 6.00 Build 0)  -->
<svg version="1.1" id="Layer_1" xmlns="http://www.w3.org/2000/svg" xmlns:xlink="http://www.w3.org/1999/xlink" x="0px" y="0px"
	 viewBox="0 0 512.002 512.002" style="enable-background:new 0 0 512.002 512.002;" xml:space="preserve">
<g>
	<path style="fill:#666666;" d="M268.91,11.601l0.106,1.042c1.457,13.903,20.913,15.951,25.256,2.666l0.327-1.024
		c4.829-14.786,26.906-10.081,25.247,5.376l-0.097,0.927c-1.492,13.903,17.108,19.959,24.135,7.865l0.512-0.874
		c7.812-13.462,28.416-4.255,23.561,10.522l-0.238,0.706c-4.37,13.294,12.562,23.093,21.963,12.712l0.583-0.636
		c10.452-11.546,28.69,1.739,20.842,15.183l-0.265,0.459c-7.053,12.094,7.468,25.203,18.829,16.993l0.539-0.38
		c12.632-9.128,27.701,7.654,17.223,19.182l-0.212,0.23c-9.428,10.364,2.057,26.209,14.874,20.524l0.406-0.177
		c14.257-6.312,25.512,13.233,12.853,22.334l-0.106,0.071c-11.388,8.192-3.443,26.077,10.284,23.164l0.221-0.044
		c15.272-3.24,22.219,18.22,7.945,24.505l-0.018,0.009c-12.853,5.658-8.792,24.797,5.252,24.788h0.071
		c15.607-0.018,17.964,22.404,2.684,25.609l0,0c-13.745,2.887-13.745,22.457,0,25.335l0,0c15.281,3.204,12.924,25.626-2.684,25.609
		h-0.071c-14.045-0.009-18.105,19.129-5.252,24.788l0.018,0.009c14.274,6.285,7.327,27.745-7.945,24.505l-0.221-0.044
		c-13.727-2.913-21.672,14.972-10.284,23.164l0.106,0.071c12.659,9.101,1.404,28.646-12.853,22.334l-0.406-0.177
		c-12.818-5.685-24.302,10.161-14.874,20.524l0.212,0.23c10.478,11.529-4.59,28.31-17.223,19.182l-0.539-0.38
		c-11.361-8.21-25.882,4.899-18.829,16.993l0.265,0.459c7.848,13.444-10.39,26.73-20.842,15.183l-0.583-0.636
		c-9.401-10.381-26.333-0.583-21.963,12.712l0.238,0.706c4.855,14.786-15.748,23.985-23.561,10.523l-0.512-0.874
		c-7.027-12.094-25.626-6.038-24.135,7.865l0.097,0.927c1.66,15.457-20.418,20.171-25.247,5.376l-0.327-1.015
		c-4.343-13.294-23.799-11.246-25.256,2.657l-0.106,1.042c-1.624,15.466-24.196,15.466-25.812,0l-0.115-1.042
		c-1.457-13.903-20.913-15.951-25.247-2.657l-0.335,1.015c-4.82,14.795-26.898,10.081-25.247-5.376l0.106-0.927
		c1.483-13.903-17.117-19.959-24.135-7.865l-0.512,0.874c-7.812,13.462-28.425,4.264-23.561-10.523l0.23-0.706
		c4.37-13.294-12.562-23.093-21.954-12.712l-0.583,0.636c-10.452,11.546-28.69-1.739-20.851-15.183l0.274-0.459
		c7.053-12.094-7.477-25.203-18.829-16.993l-0.538,0.38c-12.632,9.128-27.71-7.654-17.223-19.182l0.212-0.23
		c9.428-10.364-2.057-26.209-14.883-20.524l-0.397,0.177c-14.257,6.312-25.512-13.233-12.853-22.334l0.106-0.071
		c11.388-8.192,3.443-26.077-10.293-23.164l-0.221,0.044c-15.263,3.24-22.21-18.22-7.936-24.505l0.018-0.009
		c12.844-5.659,8.783-24.797-5.252-24.788h-0.079c-15.607,0.018-17.955-22.404-2.684-25.609l0,0
		c13.745-2.878,13.745-22.449,0-25.335l0,0c-15.272-3.204-12.924-25.626,2.684-25.609h0.079
		c14.036,0.009,18.097-19.129,5.252-24.788l-0.018-0.009c-14.274-6.285-7.327-27.745,7.936-24.505l0.221,0.044
		c13.736,2.913,21.681-14.972,10.293-23.164l-0.106-0.071c-12.659-9.101-1.404-28.646,12.853-22.334l0.397,0.177
		c12.826,5.685,24.311-10.161,14.883-20.524l-0.212-0.23C54.09,90.793,69.168,74.012,81.8,83.139l0.538,0.38
		c11.352,8.21,25.882-4.899,18.829-16.993l-0.274-0.459c-7.839-13.444,10.399-26.73,20.851-15.183l0.583,0.636
		c9.393,10.381,26.324,0.583,21.954-12.712l-0.23-0.706c-4.864-14.777,15.748-23.985,23.561-10.522l0.512,0.874
		c7.018,12.094,25.618,6.038,24.135-7.865l-0.106-0.927c-1.651-15.457,20.427-20.162,25.247-5.376l0.335,1.024
		c4.334,13.286,23.79,11.238,25.247-2.666l0.115-1.042C244.713-3.865,267.285-3.865,268.91,11.601"/>
	<path style="fill:#B3B3B3;" d="M370.761,256.001c0,63.382-51.377,114.759-114.759,114.759s-114.759-51.377-114.759-114.759
		s51.377-114.759,114.759-114.759S370.761,192.619,370.761,256.001"/>
	<g>
		<path style="fill:#666666;" d="M282.485,256.001c0,14.627-11.855,26.483-26.483,26.483c-14.627,0-26.483-11.855-26.483-26.483
			c0-14.627,11.855-26.483,26.483-26.483C270.629,229.518,282.485,241.374,282.485,256.001"/>
		<path style="fill:#666666;" d="M264.83,185.38c0,4.873-3.955,8.828-8.828,8.828s-8.828-3.955-8.828-8.828s3.955-8.828,8.828-8.828
			S264.83,180.508,264.83,185.38"/>
		<path style="fill:#666666;" d="M264.83,326.622c0,4.873-3.955,8.828-8.828,8.828s-8.828-3.955-8.828-8.828
			s3.955-8.828,8.828-8.828S264.83,321.749,264.83,326.622"/>
		<path style="fill:#666666;" d="M326.623,264.829c-4.873,0-8.828-3.955-8.828-8.828c0-4.873,3.955-8.828,8.828-8.828
			c4.873,0,8.828,3.955,8.828,8.828C335.45,260.874,331.495,264.829,326.623,264.829"/>
		<path style="fill:#666666;" d="M185.381,264.829c-4.873,0-8.828-3.955-8.828-8.828c0-4.873,3.955-8.828,8.828-8.828
			c4.873,0,8.828,3.955,8.828,8.828C194.209,260.874,190.254,264.829,185.381,264.829"/>
		<path style="fill:#666666;" d="M312.181,212.307c-3.452,3.452-9.039,3.452-12.482,0c-3.452-3.452-3.452-9.039,0-12.482
			c3.443-3.452,9.031-3.452,12.482,0C315.632,203.268,315.632,208.856,312.181,212.307"/>
		<path style="fill:#666666;" d="M212.308,312.18c-3.452,3.452-9.039,3.452-12.482,0c-3.452-3.452-3.452-9.039,0-12.482
			c3.443-3.452,9.031-3.452,12.482,0C215.76,303.14,215.76,308.728,212.308,312.18"/>
		<path style="fill:#666666;" d="M299.696,312.18c-3.452-3.452-3.452-9.039,0-12.482c3.452-3.452,9.039-3.452,12.482,0
			c3.452,3.443,3.452,9.031,0,12.482C308.735,315.631,303.147,315.631,299.696,312.18"/>
		<path style="fill:#666666;" d="M199.823,212.307c-3.452-3.452-3.452-9.039,0-12.482c3.452-3.452,9.039-3.452,12.482,0
			c3.452,3.443,3.452,9.031,0,12.482C208.863,215.759,203.275,215.759,199.823,212.307"/>
	</g>
</g>
<g>
</g>
<g>
</g>
<g>
</g>
<g>
</g>
<g>
</g>
<g>
</g>
<g>
</g>
<g>
</g>
<g>
</g>
<g>
</g>
<g>
</g>
<g>
</g>
<g>
</g>
<g>
</g>
<g>
</g>
</svg>
