<?xml version="1.0" encoding="iso-8859-1"?>
<!-- Generator: Adobe Illustrator 19.0.0, SVG Export Plug-In . SVG Version: 6.00 Build 0)  -->
<svg version="1.1" id="Capa_1" xmlns="http://www.w3.org/2000/svg" xmlns:xlink="http://www.w3.org/1999/xlink" x="0px" y="0px"
	 viewBox="0 0 512 512" style="enable-background:new 0 0 512 512;" xml:space="preserve">
<g>
	<path style="fill:#BDC3C7;" d="M403.068,46.521c24.306,16.979,45.432,38.105,62.411,62.411l-38.223,38.223
		c12.71,19.808,21.797,41.717,26.836,64.706h54.025c5.179,29.197,5.179,59.078,0,88.276h-54.025
		c-5.039,22.989-14.126,44.899-26.836,64.706l38.223,38.223c-16.979,24.306-38.105,45.432-62.411,62.411l-38.223-38.223
		c-19.808,12.71-41.717,21.797-64.706,26.836v54.025c-29.197,5.179-59.078,5.179-88.276,0v-54.025
		c-22.989-5.039-44.899-14.126-64.706-26.836l-38.223,38.223C84.627,448.5,63.5,427.373,46.521,403.068l38.223-38.223
		c-12.71-19.808-21.797-41.717-26.836-64.706H3.884c-5.179-29.197-5.179-59.078,0-88.276h54.025
		c5.039-22.989,14.126-44.899,26.836-64.706l-38.223-38.223C63.5,84.627,84.627,63.5,108.932,46.521l38.223,38.223
		c19.808-12.71,41.717-21.797,64.706-26.836V3.884c29.197-5.179,59.078-5.179,88.276,0v54.025
		c22.989,5.039,44.899,14.126,64.706,26.836L403.068,46.521z"/>
	<path style="fill:#95A5A5;" d="M256,423.724c-31.788-0.097-62.902-9.171-89.759-26.177c-20.784-13.273-38.431-30.908-51.72-51.681
		c-23.942-37.379-31.935-82.783-22.198-126.091c4.124-19.022,11.619-37.153,22.129-53.535c13.273-20.784,30.907-38.431,51.681-51.72
		c37.379-23.942,82.783-31.935,126.091-22.198c19.022,4.124,37.153,11.619,53.535,22.129c20.785,13.274,38.434,30.91,51.724,51.686
		c23.935,37.388,31.928,82.794,22.198,126.108c-4.128,19.014-11.623,37.137-22.129,53.513c-13.276,20.783-30.912,38.43-51.686,51.72
		C318.987,414.531,287.832,423.63,256,423.724z"/>
	<path style="fill:#F0C419;" d="M256,132.414V256l-87.393,87.393c-35.343-35.348-45.914-88.504-26.785-134.685
		S206.014,132.416,256,132.414z"/>
	<path style="fill:#4482C3;" d="M379.586,256c-0.003,49.986-30.114,95.049-76.294,114.178s-99.337,8.558-134.685-26.785L256,256
		H379.586z"/>
	<path style="fill:#E64C3C;" d="M379.586,256H256V132.414C324.25,132.426,379.574,187.75,379.586,256z"/>
</g>
<g>
</g>
<g>
</g>
<g>
</g>
<g>
</g>
<g>
</g>
<g>
</g>
<g>
</g>
<g>
</g>
<g>
</g>
<g>
</g>
<g>
</g>
<g>
</g>
<g>
</g>
<g>
</g>
<g>
</g>
</svg>
