<?xml version="1.0" encoding="iso-8859-1"?>
<!-- Generator: Adobe Illustrator 19.0.0, SVG Export Plug-In . SVG Version: 6.00 Build 0)  -->
<svg version="1.1" id="Capa_1" xmlns="http://www.w3.org/2000/svg" xmlns:xlink="http://www.w3.org/1999/xlink" x="0px" y="0px"
	 viewBox="0 0 512 512" style="enable-background:new 0 0 512 512;" xml:space="preserve">
<g>
	<path style="fill:#BDC3C7;" d="M46.521,108.932C63.5,84.627,84.627,63.5,108.932,46.521l38.223,38.223
		c19.808-12.71,41.717-21.797,64.706-26.836V3.884c29.197-5.179,59.078-5.179,88.276,0v54.025
		c22.989,5.039,44.899,14.126,64.706,26.836l38.223-38.223c24.306,16.979,45.432,38.105,62.411,62.411l-38.223,38.223
		c12.71,19.808,21.797,41.717,26.836,64.706h54.025c5.179,29.197,5.179,59.078,0,88.276h-54.025
		c-5.039,22.989-14.126,44.899-26.836,64.706l38.223,38.223c-16.979,24.306-38.105,45.432-62.411,62.411l-38.223-38.223
		c-19.808,12.71-41.717,21.797-64.706,26.836v54.025c-29.197,5.179-59.078,5.179-88.276,0v-54.025
		c-22.989-5.039-44.899-14.126-64.706-26.836l-38.223,38.223C84.627,448.5,63.5,427.373,46.521,403.068l38.223-38.223
		c-12.71-19.808-21.797-41.717-26.836-64.706H3.884c-5.179-29.197-5.179-59.078,0-88.276h54.025
		c5.039-22.989,14.126-44.899,26.836-64.706L46.521,108.932z"/>
	<path style="fill:#46B29D;" d="M423.724,256c-0.097,31.788-9.171,62.902-26.177,89.759c-13.273,20.784-30.908,38.431-51.681,51.72
		c-37.379,23.942-82.783,31.935-126.091,22.198c-19.022-4.124-37.153-11.619-53.535-22.129
		c-20.784-13.273-38.431-30.908-51.72-51.681c-23.942-37.379-31.935-82.783-22.198-126.091
		c4.124-19.022,11.619-37.153,22.129-53.535c13.274-20.785,30.91-38.434,51.686-51.724c37.388-23.935,82.794-31.928,126.108-22.198
		c19.014,4.128,37.137,11.623,53.513,22.129c20.783,13.276,38.43,30.912,51.72,51.686C414.531,193.013,423.63,224.168,423.724,256z"
		/>
	<g>
		<path style="fill:#81CCB8;" d="M256,397.241c-10.187,0.02-20.343-1.111-30.276-3.371c-16.044-3.469-31.34-9.77-45.172-18.608
			c-17.555-11.205-32.466-26.092-43.698-43.629c-8.805-13.697-15.102-28.851-18.595-44.755c-2.321-10.129-3.495-20.487-3.5-30.879
			c0-4.875,3.952-8.828,8.828-8.828c4.875,0,8.828,3.952,8.828,8.828c0.008,9.091,1.038,18.152,3.069,27.013
			c3.05,13.896,8.55,27.139,16.241,39.108c9.857,15.383,22.937,28.441,38.336,38.272c27.62,17.484,61.054,23.281,92.948,16.116
			c3.076-0.711,6.297,0.275,8.449,2.585c2.151,2.311,2.905,5.594,1.976,8.612c-0.929,3.017-3.398,5.309-6.477,6.01
			C276.804,396.052,266.419,397.235,256,397.241z"/>
		<path style="fill:#81CCB8;" d="M385.112,235.845c-4.141-0.004-7.723-2.886-8.612-6.931c-3.05-13.871-8.544-27.088-16.224-39.034
			c-9.857-15.388-22.941-28.449-38.345-38.28c-27.617-17.485-61.05-23.279-92.94-16.108c-4.748,1.081-9.474-1.887-10.563-6.633
			s1.871-9.477,6.615-10.574c36.51-8.23,74.795-1.594,106.405,18.444c17.554,11.211,32.463,26.1,43.698,43.638
			c8.805,13.697,15.101,28.851,18.595,44.755c0.574,2.613-0.068,5.345-1.745,7.429C390.319,234.635,387.788,235.846,385.112,235.845
			z"/>
	</g>
	<path style="fill:#65DDB9;" d="M324.426,200.057l8.436-8.436c3.394-3.456,3.369-9.001-0.056-12.426
		c-3.425-3.425-8.97-3.45-12.426-0.056l-8.439,8.439c-19.446-16.33-47.93-15.912-66.889,0.98
		c-9.498,9.669-14.216,23.055-12.879,36.543c0.977,11.05,5.097,21.59,11.873,30.373l-43.873,43.873
		c-9.68-12.373-9.319-29.848,0.863-41.811c3.447-3.447,3.447-9.036,0-12.483c-3.447-3.447-9.036-3.447-12.483,0
		c-16.894,18.96-17.311,47.446-0.978,66.892l-8.436,8.436c-2.264,2.223-3.16,5.49-2.348,8.556c0.812,3.067,3.207,5.462,6.274,6.274
		c3.067,0.812,6.333-0.085,8.556-2.348l8.371-8.371c9.888,7.592,21.966,11.781,34.431,11.944
		c12.87,0.297,25.242-4.976,33.941-14.466c8.699-9.49,12.878-22.273,11.464-35.069c-0.977-11.05-5.097-21.59-11.873-30.373
		l43.873-43.873c9.68,12.373,9.319,29.848-0.863,41.811c-3.447,3.447-3.447,9.036,0,12.483c3.447,3.447,9.036,3.447,12.483,0
		C340.342,247.989,340.758,219.502,324.426,200.057z M249.776,223.746c-0.902-8.344,1.939-16.66,7.759-22.707
		c11.958-10.192,29.44-10.554,41.81-0.866l-42.677,42.677C252.765,237.181,250.391,230.6,249.776,223.746z M262.224,288.254
		c0.902,8.344-1.939,16.66-7.759,22.707c-11.963,10.18-29.436,10.542-41.81,0.866l42.677-42.677
		C259.235,274.819,261.608,281.4,262.224,288.254z"/>
</g>
<g>
</g>
<g>
</g>
<g>
</g>
<g>
</g>
<g>
</g>
<g>
</g>
<g>
</g>
<g>
</g>
<g>
</g>
<g>
</g>
<g>
</g>
<g>
</g>
<g>
</g>
<g>
</g>
<g>
</g>
</svg>
