<?xml version="1.0" encoding="iso-8859-1"?>
<!-- Generator: Adobe Illustrator 19.0.0, SVG Export Plug-In . SVG Version: 6.00 Build 0)  -->
<svg version="1.1" id="Capa_1" xmlns="http://www.w3.org/2000/svg" xmlns:xlink="http://www.w3.org/1999/xlink" x="0px" y="0px"
	 viewBox="0 0 512 512" style="enable-background:new 0 0 512 512;" xml:space="preserve">
<g>
	<path style="fill:#BDC3C7;" d="M450.207,397.241v-35.31H61.793v35.31L0,476.69v17.655C0,504.095,7.904,512,17.655,512h476.69
		c9.751,0,17.655-7.905,17.655-17.655V476.69L450.207,397.241z"/>
	<path style="fill:#95A5A5;" d="M0,476.69h512v17.655c0,9.751-7.905,17.655-17.655,17.655H17.655C7.904,512,0,504.095,0,494.345
		V476.69z"/>
	<g>
		<path style="fill:#E6E7E8;" d="M397.241,450.207H114.759c-4.875,0-8.828-3.952-8.828-8.828s3.952-8.828,8.828-8.828h282.483
			c4.875,0,8.828,3.952,8.828,8.828S402.117,450.207,397.241,450.207z"/>
		<path style="fill:#E6E7E8;" d="M79.448,450.207h-8.828c-4.875,0-8.828-3.952-8.828-8.828s3.952-8.828,8.828-8.828h8.828
			c4.875,0,8.828,3.952,8.828,8.828S84.324,450.207,79.448,450.207z"/>
		<path style="fill:#E6E7E8;" d="M441.379,450.207h-8.828c-4.875,0-8.828-3.952-8.828-8.828s3.952-8.828,8.828-8.828h8.828
			c4.875,0,8.828,3.952,8.828,8.828S446.255,450.207,441.379,450.207z"/>
	</g>
	<path style="fill:#35495E;" d="M406.069,123.586h26.483c9.739,0.029,17.627,7.916,17.655,17.655v256H61.793v-256
		c0.029-9.739,7.916-17.627,17.655-17.655H406.069z"/>
	<path style="fill:#BDC3C7;" d="M406.069,361.931H105.931V17.655C105.96,7.916,113.847,0.029,123.586,0h264.828
		c9.739,0.029,17.627,7.916,17.655,17.655V361.931"/>
	<path style="fill:#7F8C8D;" d="M423.724,370.759H88.276c-4.875,0-8.828-3.952-8.828-8.828s3.952-8.828,8.828-8.828h335.448
		c4.875,0,8.828,3.952,8.828,8.828S428.599,370.759,423.724,370.759z"/>
	<path style="fill:#527F72;" d="M256,179.494c29.252,0,52.966,23.713,52.966,52.966v5.885H203.034v-5.885
		C203.034,203.208,226.748,179.494,256,179.494z"/>
	<path style="fill:#46B29D;" d="M326.621,247.172H185.379c-4.875,0-8.828-3.952-8.828-8.828c0-4.875,3.952-8.828,8.828-8.828
		h141.241c4.875,0,8.828,3.952,8.828,8.828C335.448,243.22,331.496,247.172,326.621,247.172z"/>
	<g>
		<path style="fill:#CC4B4C;" d="M211.332,53.164c-8.943,3.814-17.36,8.758-25.046,14.712l-38.804-38.807
			c-3.456-3.394-9.001-3.369-12.426,0.056s-3.45,8.97-0.056,12.426l38.111,38.115c-9.658,10.031-17.402,21.742-22.848,34.558
			c-1.229,2.904-0.815,6.244,1.086,8.76c1.901,2.516,5,3.828,8.129,3.44c3.13-0.388,5.815-2.416,7.044-5.32
			c9.871-23.279,28.402-41.81,51.681-51.681c2.904-1.227,4.933-3.911,5.323-7.04c0.389-3.129-0.92-6.228-3.435-8.129
			C217.575,52.352,214.236,51.936,211.332,53.164L211.332,53.164z"/>
		<path style="fill:#CC4B4C;" d="M218.203,248.371c-23.279-9.871-41.81-28.402-51.681-51.681c-1.229-2.904-3.914-4.932-7.043-5.32
			c-3.13-0.388-6.229,0.923-8.129,3.44c-1.901,2.516-2.315,5.856-1.086,8.76c3.819,8.938,8.764,17.351,14.714,25.036L135,258.586
			c-2.264,2.223-3.16,5.49-2.348,8.556c0.812,3.067,3.207,5.462,6.274,6.274c3.067,0.812,6.333-0.085,8.556-2.348l29.283-29.287
			c10.03,9.663,21.745,17.407,34.566,22.848c2.904,1.227,6.243,0.812,8.758-1.09c2.515-1.902,3.825-5,3.435-8.129
			C223.136,252.281,221.107,249.598,218.203,248.371L218.203,248.371z"/>
		<path style="fill:#CC4B4C;" d="M293.797,69.422c23.279,9.871,41.81,28.402,51.681,51.681c1.229,2.904,3.914,4.932,7.043,5.32
			c3.13,0.388,6.229-0.923,8.129-3.44c1.901-2.516,2.315-5.856,1.086-8.76c-5.446-12.815-13.19-24.527-22.848-34.558L377,41.551
			c3.394-3.456,3.369-9.001-0.056-12.426s-8.97-3.45-12.426-0.056l-38.804,38.807c-7.686-5.954-16.103-10.899-25.046-14.712
			c-2.904-1.227-6.243-0.812-8.758,1.09c-2.515,1.902-3.825,5-3.435,8.129C288.864,65.512,290.893,68.195,293.797,69.422z"/>
		<path style="fill:#CC4B4C;" d="M347.023,228.605c5.951-7.685,10.895-16.098,14.714-25.036c1.229-2.904,0.815-6.244-1.086-8.76
			c-1.901-2.516-5-3.828-8.129-3.44c-3.13,0.388-5.815,2.416-7.044,5.32c-9.871,23.279-28.402,41.81-51.681,51.681
			c-2.904,1.227-4.933,3.911-5.323,7.04c-0.389,3.129,0.92,6.228,3.435,8.129s5.854,2.317,8.758,1.09
			c12.821-5.441,24.536-13.184,34.566-22.848l29.284,29.287c3.456,3.394,9.001,3.369,12.426-0.056s3.45-8.97,0.056-12.426
			L347.023,228.605z"/>
	</g>
	<path style="fill:#4482C3;" d="M185.379,291.31h141.241c9.751,0,17.655,7.905,17.655,17.655l0,0
		c0,9.751-7.904,17.655-17.655,17.655H185.379c-9.751,0-17.655-7.905-17.655-17.655l0,0
		C167.724,299.215,175.629,291.31,185.379,291.31z"/>
	<circle style="fill:#46B29D;" cx="256" cy="138.302" r="41.198"/>
</g>
<g>
</g>
<g>
</g>
<g>
</g>
<g>
</g>
<g>
</g>
<g>
</g>
<g>
</g>
<g>
</g>
<g>
</g>
<g>
</g>
<g>
</g>
<g>
</g>
<g>
</g>
<g>
</g>
<g>
</g>
</svg>
