<?xml version="1.0" encoding="iso-8859-1"?>
<!-- Generator: Adobe Illustrator 19.0.0, SVG Export Plug-In . SVG Version: 6.00 Build 0)  -->
<svg version="1.1" id="Capa_1" xmlns="http://www.w3.org/2000/svg" xmlns:xlink="http://www.w3.org/1999/xlink" x="0px" y="0px"
	 viewBox="0 0 512.107 512.107" style="enable-background:new 0 0 512.107 512.107;" xml:space="preserve">
<g transform="translate(0 -1)">
	<g>
		<path style="fill:#527F72;" d="M316.388,205.258c-3.451-0.001-6.562-2.08-7.882-5.268c-1.32-3.188-0.591-6.858,1.849-9.298
			l41.467-41.475c3.332-3.332,8.735-3.332,12.067,0c3.332,3.332,3.332,8.735,0,12.067l-41.467,41.475
			C320.823,204.361,318.651,205.26,316.388,205.258z"/>
		<path style="fill:#527F72;" d="M357.854,367.391c-2.264,0.003-4.435-0.897-6.033-2.5l-41.467-41.475
			c-2.155-2.155-2.997-5.297-2.208-8.242c0.789-2.944,3.089-5.244,6.033-6.033c2.944-0.789,6.086,0.053,8.242,2.208l41.467,41.475
			c2.44,2.44,3.169,6.11,1.849,9.298C364.416,365.311,361.306,367.39,357.854,367.391L357.854,367.391z"/>
	</g>
	<g>
		<path style="fill:#4482C3;" d="M488.296,149.424c-1.289-2.763-3.954-4.628-6.992-4.893c-3.037-0.265-5.985,1.11-7.733,3.608
			c-1.748,2.498-2.031,5.739-0.742,8.501c29.544,63.682,29.544,137.143,0,200.825c-1.993,4.271-0.146,9.349,4.125,11.342
			c4.271,1.993,9.349,0.146,11.342-4.125C519.974,296.426,519.974,217.681,488.296,149.424L488.296,149.424z"/>
		<path style="fill:#4482C3;" d="M256.054,180.253c2.263,0.001,4.434-0.898,6.035-2.499c1.6-1.6,2.499-3.771,2.499-6.035V18.347
			c31.795,1.024,63.052,8.484,91.883,21.927c2.763,1.289,6.004,1.006,8.501-0.742c2.498-1.748,3.873-4.696,3.608-7.733
			s-2.13-5.702-4.893-6.992C238.218-33.387,89.214,18.646,27.246,142.295c-0.082,0.163-0.151,0.331-0.232,0.494l-0.008,0.017
			C10.6,175.522,1.498,211.411,0.329,247.991c-0.183,2.992-0.275,5.983-0.275,9.062c-0.157,39.865,9.16,79.196,27.183,114.754
			c61.97,123.652,210.977,175.687,336.45,117.492c2.763-1.289,4.628-3.954,4.893-6.992s-1.11-5.985-3.608-7.733
			c-2.498-1.748-5.739-2.031-8.501-0.742c-28.831,13.444-60.088,20.903-91.883,21.927V342.387c0-4.713-3.82-8.533-8.533-8.533
			s-8.533,3.82-8.533,8.533v17.067h-99.444c-12.023-29.892-18.705-61.664-19.741-93.867h42.384c4.713,0,8.533-3.82,8.533-8.533
			c0-4.713-3.821-8.533-8.533-8.533h-42.39c1.017-32.2,7.679-63.971,19.683-93.867h99.506v17.067
			c-0.001,2.263,0.898,4.434,2.499,6.035C251.62,179.355,253.791,180.254,256.054,180.253z M228.075,19.861
			c-39.263,31.503-70.523,71.842-91.228,117.726H49.24C86.737,72.137,153.133,28.429,228.075,19.861z M49.234,376.52h87.687
			c20.752,45.911,52.071,86.261,91.398,117.754C153.267,485.813,86.747,442.073,49.234,376.52z M247.521,376.52v111.193
			c-39.101-29.167-70.623-67.301-91.91-111.193H247.521z M129.903,359.453H40.287C26.199,330.1,18.391,298.13,17.363,265.587h93.907
			C112.269,297.688,118.565,329.404,129.903,359.453z M111.264,248.52H17.387c1.076-32.534,8.874-64.493,22.903-93.867h89.552
			C118.522,184.706,112.245,216.422,111.264,248.52z M155.524,137.587c21.288-43.964,52.842-82.16,91.997-111.364v111.364H155.524z"
			/>
	</g>
	<g>
		<circle style="fill:#46B29D;" cx="418.188" cy="94.92" r="85.333"/>
		<circle style="fill:#46B29D;" cx="256.054" cy="257.053" r="85.333"/>
		<circle style="fill:#46B29D;" cx="418.188" cy="419.187" r="85.333"/>
	</g>
	<g>
		<path style="fill:#65DDB9;" d="M426.721,87.417V64.208c4.632,1.403,7.986,5.425,8.533,10.233c0,4.713,3.82,8.533,8.533,8.533
			s8.533-3.82,8.533-8.533c-0.922-14.174-11.564-25.806-25.6-27.982V43.72c0-4.713-3.82-8.533-8.533-8.533s-8.533,3.821-8.533,8.533
			v2.739c-14.036,2.176-24.678,13.808-25.6,27.982c0.922,14.174,11.564,25.806,25.6,27.982v23.208
			c-4.631-1.402-7.986-5.424-8.533-10.232c0-4.713-3.821-8.533-8.533-8.533s-8.533,3.82-8.533,8.533
			c0.922,14.174,11.564,25.806,25.6,27.982v2.739c0,4.713,3.82,8.533,8.533,8.533s8.533-3.821,8.533-8.533v-2.739
			c14.036-2.176,24.678-13.808,25.6-27.982C451.399,101.225,440.757,89.593,426.721,87.417z M401.121,74.441
			c0.548-4.808,3.902-8.83,8.533-10.233v20.465C405.023,83.271,401.669,79.249,401.121,74.441z M426.721,125.632v-20.466
			c4.632,1.403,7.986,5.425,8.533,10.233C434.707,120.207,431.352,124.229,426.721,125.632L426.721,125.632z"/>
		<path style="fill:#65DDB9;" d="M273.121,236.574c0,4.713,3.821,8.533,8.533,8.533s8.533-3.821,8.533-8.533
			c-0.922-14.174-11.564-25.806-25.6-27.982v-2.739c0-4.713-3.82-8.533-8.533-8.533s-8.533,3.821-8.533,8.533v2.739
			c-14.036,2.176-24.678,13.808-25.6,27.982c0.922,14.174,11.564,25.806,25.6,27.982v23.208c-4.631-1.402-7.986-5.424-8.533-10.232
			c0-4.713-3.821-8.533-8.533-8.533s-8.533,3.821-8.533,8.533c0.922,14.174,11.564,25.806,25.6,27.982v2.739
			c0,4.713,3.821,8.533,8.533,8.533s8.533-3.82,8.533-8.533v-2.739c14.036-2.176,24.678-13.808,25.6-27.982
			c-0.922-14.174-11.564-25.806-25.6-27.982v-23.209C269.219,227.744,272.573,231.766,273.121,236.574z M238.988,236.574
			c0.548-4.808,3.902-8.83,8.533-10.233v20.465C242.89,245.404,239.535,241.382,238.988,236.574z M273.121,277.532
			c-0.548,4.808-3.902,8.83-8.533,10.233V267.3C269.219,268.702,272.573,272.724,273.121,277.532z"/>
		<path style="fill:#65DDB9;" d="M435.254,398.708c0,4.713,3.82,8.533,8.533,8.533s8.533-3.82,8.533-8.533
			c-0.922-14.174-11.564-25.806-25.6-27.982v-2.739c0-4.713-3.82-8.533-8.533-8.533s-8.533,3.82-8.533,8.533v2.738
			c-14.492,1.291-25.6,13.433-25.6,27.982s11.108,26.691,25.6,27.982v23.208c-4.631-1.402-7.986-5.424-8.533-10.232
			c0-4.713-3.821-8.533-8.533-8.533s-8.533,3.82-8.533,8.533c0.922,14.174,11.564,25.806,25.6,27.982v2.739
			c0,4.713,3.82,8.533,8.533,8.533s8.533-3.82,8.533-8.533v-2.738c14.492-1.291,25.6-13.433,25.6-27.982s-11.108-26.691-25.6-27.982
			v-23.209C431.352,389.877,434.707,393.899,435.254,398.708z M401.121,398.708c0.548-4.808,3.902-8.83,8.533-10.233v20.465
			C405.023,407.537,401.669,403.516,401.121,398.708z M435.254,439.666c-0.548,4.808-3.902,8.83-8.533,10.233v-20.466
			C431.352,430.836,434.707,434.858,435.254,439.666z"/>
	</g>
</g>
<g>
</g>
<g>
</g>
<g>
</g>
<g>
</g>
<g>
</g>
<g>
</g>
<g>
</g>
<g>
</g>
<g>
</g>
<g>
</g>
<g>
</g>
<g>
</g>
<g>
</g>
<g>
</g>
<g>
</g>
</svg>
