<?xml version="1.0" encoding="iso-8859-1"?>
<!-- Generator: Adobe Illustrator 19.0.0, SVG Export Plug-In . SVG Version: 6.00 Build 0)  -->
<svg version="1.1" id="Capa_1" xmlns="http://www.w3.org/2000/svg" xmlns:xlink="http://www.w3.org/1999/xlink" x="0px" y="0px"
	 viewBox="0 0 512 512" style="enable-background:new 0 0 512 512;" xml:space="preserve">
<g>
	<rect x="88.276" y="44.138" style="fill:#B0D3F0;" width="335.448" height="423.724"/>
	<g>
		<path style="fill:#35495E;" d="M423.724,441.379v35.31c0.003,9.366-3.717,18.348-10.339,24.971
			c-6.623,6.622-15.605,10.342-24.971,10.339H123.586c-9.366,0.003-18.348-3.717-24.971-10.339
			c-6.623-6.623-10.342-15.605-10.339-24.971v-35.31H423.724z"/>
		<path style="fill:#35495E;" d="M423.724,35.31v35.31H88.276V35.31c-0.003-9.366,3.717-18.349,10.339-24.971
			C105.238,3.717,114.221-0.003,123.586,0h264.828c9.366-0.003,18.349,3.717,24.971,10.339
			C420.007,16.962,423.727,25.945,423.724,35.31z"/>
	</g>
	<g>
		<path style="fill:#2C2F38;" d="M273.655,485.517h-35.31c-4.875,0-8.828-3.952-8.828-8.828s3.952-8.828,8.828-8.828h35.31
			c4.875,0,8.828,3.952,8.828,8.828S278.531,485.517,273.655,485.517z"/>
		<path style="fill:#2C2F38;" d="M264.828,44.138h-17.655c-4.875,0-8.828-3.952-8.828-8.828s3.952-8.828,8.828-8.828h17.655
			c4.875,0,8.828,3.952,8.828,8.828S269.703,44.138,264.828,44.138z"/>
	</g>
	<path style="fill:#4482C3;" d="M211.862,185.379H35.31c-9.366-0.003-18.348,3.717-24.971,10.339
		C3.717,202.341-0.003,211.324,0,220.69v88.276c-0.003,9.366,3.717,18.349,10.339,24.971c6.623,6.622,15.605,10.342,24.971,10.339
		v61.793l52.966-61.793h176.552c9.366,0.003,18.349-3.717,24.971-10.339c6.623-6.623,10.342-15.605,10.339-24.971v-44.138
		L211.862,185.379z"/>
	<path style="fill:#46B29D;" d="M512,141.241v88.276c0.003,9.366-3.717,18.348-10.339,24.971
		c-6.623,6.623-15.605,10.342-24.971,10.339v61.793l-52.966-61.793H247.172c-9.366,0.003-18.348-3.717-24.971-10.339
		c-6.623-6.623-10.342-15.605-10.339-24.971v-88.276c-0.003-9.366,3.717-18.349,10.339-24.971s15.605-10.342,24.971-10.339H476.69
		c9.366-0.003,18.349,3.717,24.971,10.339C508.283,122.893,512.003,131.876,512,141.241z"/>
	<g>
		<circle style="fill:#65DDB9;" cx="273.655" cy="185.379" r="26.483"/>
		<circle style="fill:#65DDB9;" cx="361.931" cy="185.379" r="26.483"/>
		<circle style="fill:#65DDB9;" cx="450.207" cy="185.379" r="26.483"/>
	</g>
</g>
<g>
</g>
<g>
</g>
<g>
</g>
<g>
</g>
<g>
</g>
<g>
</g>
<g>
</g>
<g>
</g>
<g>
</g>
<g>
</g>
<g>
</g>
<g>
</g>
<g>
</g>
<g>
</g>
<g>
</g>
</svg>
