<?xml version="1.0" encoding="iso-8859-1"?>
<!-- Generator: Adobe Illustrator 19.0.0, SVG Export Plug-In . SVG Version: 6.00 Build 0)  -->
<svg version="1.1" id="Capa_1" xmlns="http://www.w3.org/2000/svg" xmlns:xlink="http://www.w3.org/1999/xlink" x="0px" y="0px"
	 viewBox="0 0 512 512" style="enable-background:new 0 0 512 512;" xml:space="preserve">
<g>
	<path style="fill:#BDC3C7;" d="M512,61.793v432.552c-0.029,9.739-7.916,17.627-17.655,17.655H17.655
		C7.916,511.971,0.029,504.084,0,494.345V61.793H512z"/>
	<path style="fill:#35495E;" d="M512,17.655v70.621H0V17.655C0.028,7.916,7.916,0.028,17.655,0h476.69
		C504.084,0.028,511.972,7.916,512,17.655z"/>
	<circle style="fill:#E64C3C;" cx="52.966" cy="44.138" r="17.655"/>
	<circle style="fill:#F3D55B;" cx="114.759" cy="44.138" r="17.655"/>
	<circle style="fill:#24AE5F;" cx="176.552" cy="44.138" r="17.655"/>
	<path style="fill:#D1D4D1;" d="M450.207,26.483h17.655c4.875,0,8.828,3.952,8.828,8.828v17.655c0,4.875-3.952,8.828-8.828,8.828
		h-17.655c-4.875,0-8.828-3.952-8.828-8.828V35.31C441.379,30.435,445.332,26.483,450.207,26.483z"/>
	<g>
		<path style="fill:#4482C3;" d="M176.552,441.379H61.793c-4.869-0.014-8.813-3.958-8.828-8.828V167.724
			c0.014-4.869,3.958-8.813,8.828-8.828h114.759"/>
		<path style="fill:#4482C3;" d="M335.448,441.379h114.759c4.869-0.014,8.813-3.958,8.828-8.828V167.724
			c-0.014-4.869-3.958-8.813-8.828-8.828H335.448"/>
	</g>
	<path style="fill:#E6E7E8;" d="M105.931,370.759h52.966c9.751,0,17.655,7.905,17.655,17.655l0,0
		c0,9.751-7.904,17.655-17.655,17.655h-52.966c-9.751,0-17.655-7.905-17.655-17.655l0,0
		C88.276,378.663,96.18,370.759,105.931,370.759z"/>
	<circle style="fill:#65DDB9;" cx="132.414" cy="238.345" r="44.138"/>
	<g>
		<path style="fill:#FFFFFF;" d="M97.103,326.621h-8.828c-4.875,0-8.828-3.952-8.828-8.828s3.952-8.828,8.828-8.828h8.828
			c4.875,0,8.828,3.952,8.828,8.828S101.979,326.621,97.103,326.621z"/>
		<path style="fill:#FFFFFF;" d="M176.552,326.621h-44.138c-4.875,0-8.828-3.952-8.828-8.828s3.952-8.828,8.828-8.828h44.138
			c4.875,0,8.828,3.952,8.828,8.828S181.427,326.621,176.552,326.621z"/>
	</g>
	<path style="fill:#E6E7E8;" d="M353.103,370.759h52.966c9.751,0,17.655,7.905,17.655,17.655l0,0
		c0,9.751-7.904,17.655-17.655,17.655h-52.966c-9.751,0-17.655-7.905-17.655-17.655l0,0
		C335.448,378.663,343.353,370.759,353.103,370.759z"/>
	<circle style="fill:#65DDB9;" cx="379.586" cy="238.345" r="44.138"/>
	<g>
		<path style="fill:#FFFFFF;" d="M344.276,326.621h-8.828c-4.875,0-8.828-3.952-8.828-8.828s3.952-8.828,8.828-8.828h8.828
			c4.875,0,8.828,3.952,8.828,8.828S349.151,326.621,344.276,326.621z"/>
		<path style="fill:#FFFFFF;" d="M423.724,326.621h-44.138c-4.875,0-8.828-3.952-8.828-8.828s3.952-8.828,8.828-8.828h44.138
			c4.875,0,8.828,3.952,8.828,8.828S428.599,326.621,423.724,326.621z"/>
	</g>
	<path style="fill:#46B29D;" d="M185.379,123.586h141.241c4.875,0,8.828,3.952,8.828,8.828v335.448c0,4.875-3.952,8.828-8.828,8.828
		H185.379c-4.875,0-8.828-3.952-8.828-8.828V132.414C176.552,127.538,180.504,123.586,185.379,123.586z"/>
	<polygon style="fill:#F3D55B;" points="256,158.897 269.639,187.957 300.138,192.618 278.069,215.234 283.277,247.172 256,232.095 
		228.723,247.172 233.931,215.234 211.862,192.618 242.361,187.957 	"/>
	<g>
		<path style="fill:#FFFFFF;" d="M220.69,291.31h-8.828c-4.875,0-8.828-3.952-8.828-8.828s3.952-8.828,8.828-8.828h8.828
			c4.875,0,8.828,3.952,8.828,8.828S225.565,291.31,220.69,291.31z"/>
		<path style="fill:#FFFFFF;" d="M300.138,291.31H256c-4.875,0-8.828-3.952-8.828-8.828s3.952-8.828,8.828-8.828h44.138
			c4.875,0,8.828,3.952,8.828,8.828S305.013,291.31,300.138,291.31z"/>
		<path style="fill:#FFFFFF;" d="M220.69,326.621h-8.828c-4.875,0-8.828-3.952-8.828-8.828s3.952-8.828,8.828-8.828h8.828
			c4.875,0,8.828,3.952,8.828,8.828S225.565,326.621,220.69,326.621z"/>
		<path style="fill:#FFFFFF;" d="M300.138,326.621H256c-4.875,0-8.828-3.952-8.828-8.828s3.952-8.828,8.828-8.828h44.138
			c4.875,0,8.828,3.952,8.828,8.828S305.013,326.621,300.138,326.621z"/>
		<path style="fill:#FFFFFF;" d="M220.69,361.931h-8.828c-4.875,0-8.828-3.952-8.828-8.828s3.952-8.828,8.828-8.828h8.828
			c4.875,0,8.828,3.952,8.828,8.828S225.565,361.931,220.69,361.931z"/>
		<path style="fill:#FFFFFF;" d="M300.138,361.931H256c-4.875,0-8.828-3.952-8.828-8.828s3.952-8.828,8.828-8.828h44.138
			c4.875,0,8.828,3.952,8.828,8.828S305.013,361.931,300.138,361.931z"/>
	</g>
	<path style="fill:#E6E7E8;" d="M229.517,406.069h52.966c9.751,0,17.655,7.904,17.655,17.655l0,0
		c0,9.751-7.905,17.655-17.655,17.655h-52.966c-9.751,0-17.655-7.904-17.655-17.655l0,0
		C211.862,413.973,219.767,406.069,229.517,406.069z"/>
</g>
<g>
</g>
<g>
</g>
<g>
</g>
<g>
</g>
<g>
</g>
<g>
</g>
<g>
</g>
<g>
</g>
<g>
</g>
<g>
</g>
<g>
</g>
<g>
</g>
<g>
</g>
<g>
</g>
<g>
</g>
</svg>
