<?xml version="1.0" encoding="iso-8859-1"?>
<!-- Generator: Adobe Illustrator 19.0.0, SVG Export Plug-In . SVG Version: 6.00 Build 0)  -->
<svg version="1.1" id="Capa_1" xmlns="http://www.w3.org/2000/svg" xmlns:xlink="http://www.w3.org/1999/xlink" x="0px" y="0px"
	 viewBox="0 0 512 512" style="enable-background:new 0 0 512 512;" xml:space="preserve">
<g>
	<path style="fill:#802F34;" d="M88.276,70.621V35.31c-0.003-9.366,3.717-18.348,10.339-24.971
		C105.238,3.717,114.221-0.003,123.586,0h264.828c9.366-0.003,18.349,3.717,24.971,10.339s10.342,15.605,10.339,24.971v35.31H88.276
		z"/>
	<path style="fill:#35495E;" d="M423.724,441.379v35.31c0.003,9.366-3.717,18.348-10.339,24.971
		c-6.623,6.622-15.605,10.342-24.971,10.339H123.586c-9.366,0.003-18.348-3.717-24.971-10.339
		c-6.623-6.623-10.342-15.605-10.339-24.971v-35.31H423.724z"/>
	<rect x="88.276" y="132.414" style="fill:#B0D3F0;" width="335.448" height="308.966"/>
	<path style="fill:#2C2F38;" d="M273.655,485.517h-35.31c-4.875,0-8.828-3.952-8.828-8.828s3.952-8.828,8.828-8.828h35.31
		c4.875,0,8.828,3.952,8.828,8.828S278.531,485.517,273.655,485.517z"/>
	<g>
		<path style="fill:#CC4B4C;" d="M264.828,44.138h-17.655c-4.875,0-8.828-3.952-8.828-8.828s3.952-8.828,8.828-8.828h17.655
			c4.875,0,8.828,3.952,8.828,8.828S269.703,44.138,264.828,44.138z"/>
		<path style="fill:#CC4B4C;" d="M476.69,161.368v41.666c-0.029,9.739-7.916,17.627-17.655,17.655h-8.828
			c-9.739-0.029-17.627-7.916-17.655-17.655c-0.024,9.741-7.914,17.631-17.655,17.655h-8.828
			c-9.404-0.02-17.154-7.382-17.655-16.772c-0.502,9.39-8.252,16.753-17.655,16.772h-8.828c-9.403-0.02-17.153-7.382-17.655-16.772
			c-0.502,9.39-8.252,16.753-17.655,16.772h-8.828c-9.403-0.02-17.154-7.382-17.655-16.772c-0.502,9.39-8.252,16.753-17.655,16.772
			h-8.828c-9.404-0.02-17.154-7.382-17.655-16.772c-0.502,9.39-8.252,16.753-17.655,16.772h-8.828
			c-9.403-0.02-17.154-7.382-17.655-16.772c-0.502,9.39-8.252,16.753-17.655,16.772h-8.828c-9.404-0.02-17.154-7.382-17.655-16.772
			c-0.502,9.39-8.252,16.753-17.655,16.772h-8.828c-9.403-0.02-17.154-7.382-17.655-16.772c-0.502,9.39-8.252,16.753-17.655,16.772
			h-8.828c-9.741-0.024-17.631-7.914-17.655-17.655c-0.029,9.739-7.916,17.627-17.655,17.655h-8.828
			c-9.739-0.029-17.627-7.916-17.655-17.655v-41.666c0.012-1.611,0.438-3.191,1.236-4.59l51.73-86.157h335.448l51.73,86.157
			C476.252,158.177,476.677,159.758,476.69,161.368z"/>
	</g>
	<path style="fill:#A5A5A4;" d="M273.655,273.655h105.931c4.875,0,8.828,3.952,8.828,8.828v158.897H264.828V282.483
		C264.828,277.607,268.78,273.655,273.655,273.655z"/>
	<polygon style="fill:#CC4B4C;" points="326.621,308.966 300.138,344.276 353.103,344.276 	"/>
	<rect x="300.138" y="344.276" style="fill:#FDD7AD;" width="52.966" height="35.31"/>
	<path style="fill:#67B9CC;" d="M132.414,273.655h88.276c4.875,0,8.828,3.952,8.828,8.828v52.966c0,4.875-3.952,8.828-8.828,8.828
		h-88.276c-4.875,0-8.828-3.952-8.828-8.828v-52.966C123.586,277.607,127.538,273.655,132.414,273.655z"/>
	<path style="fill:#A5A5A4;" d="M229.517,388.414H123.586c-4.875,0-8.828-3.952-8.828-8.828s3.952-8.828,8.828-8.828h105.931
		c4.875,0,8.828,3.952,8.828,8.828S234.393,388.414,229.517,388.414z"/>
	<path id="SVGCleanerId_0" style="fill:#802F34;" d="M79.448,194.207c-4.875,0-8.828-3.952-8.828-8.828v-26.483
		c0-4.875,3.952-8.828,8.828-8.828c4.875,0,8.828,3.952,8.828,8.828v26.483C88.276,190.255,84.324,194.207,79.448,194.207z"/>
	<path id="SVGCleanerId_1" style="fill:#802F34;" d="M123.586,195.091c-4.875,0-8.828-3.952-8.828-8.828v-45.022
		c0-4.875,3.952-8.828,8.828-8.828s8.828,3.952,8.828,8.828v45.022C132.414,191.138,128.462,195.091,123.586,195.091z"/>
	<g>
		<path id="SVGCleanerId_1_1_" style="fill:#802F34;" d="M123.586,195.091c-4.875,0-8.828-3.952-8.828-8.828v-45.022
			c0-4.875,3.952-8.828,8.828-8.828s8.828,3.952,8.828,8.828v45.022C132.414,191.138,128.462,195.091,123.586,195.091z"/>
	</g>
	<path id="SVGCleanerId_2" style="fill:#802F34;" d="M167.724,195.091c-4.875,0-8.828-3.952-8.828-8.828v-27.366
		c0-4.875,3.952-8.828,8.828-8.828s8.828,3.952,8.828,8.828v27.366C176.552,191.138,172.599,195.091,167.724,195.091z"/>
	<g>
		<path id="SVGCleanerId_2_1_" style="fill:#802F34;" d="M167.724,195.091c-4.875,0-8.828-3.952-8.828-8.828v-27.366
			c0-4.875,3.952-8.828,8.828-8.828s8.828,3.952,8.828,8.828v27.366C176.552,191.138,172.599,195.091,167.724,195.091z"/>
	</g>
	<path id="SVGCleanerId_3" style="fill:#802F34;" d="M211.862,195.091c-4.875,0-8.828-3.952-8.828-8.828v-45.022
		c0-4.875,3.952-8.828,8.828-8.828s8.828,3.952,8.828,8.828v45.022C220.69,191.138,216.737,195.091,211.862,195.091z"/>
	<g>
		<path id="SVGCleanerId_3_1_" style="fill:#802F34;" d="M211.862,195.091c-4.875,0-8.828-3.952-8.828-8.828v-45.022
			c0-4.875,3.952-8.828,8.828-8.828s8.828,3.952,8.828,8.828v45.022C220.69,191.138,216.737,195.091,211.862,195.091z"/>
	</g>
	<path id="SVGCleanerId_4" style="fill:#802F34;" d="M256,195.091c-4.875,0-8.828-3.952-8.828-8.828v-27.366
		c0-4.875,3.952-8.828,8.828-8.828s8.828,3.952,8.828,8.828v27.366C264.828,191.138,260.875,195.091,256,195.091z"/>
	<g>
		<path id="SVGCleanerId_0_1_" style="fill:#802F34;" d="M79.448,194.207c-4.875,0-8.828-3.952-8.828-8.828v-26.483
			c0-4.875,3.952-8.828,8.828-8.828c4.875,0,8.828,3.952,8.828,8.828v26.483C88.276,190.255,84.324,194.207,79.448,194.207z"/>
	</g>
	<path id="SVGCleanerId_5" style="fill:#802F34;" d="M432.552,194.207c-4.875,0-8.828-3.952-8.828-8.828v-26.483
		c0-4.875,3.952-8.828,8.828-8.828s8.828,3.952,8.828,8.828v26.483C441.379,190.255,437.427,194.207,432.552,194.207z"/>
	<path id="SVGCleanerId_6" style="fill:#802F34;" d="M388.414,195.091c-4.875,0-8.828-3.952-8.828-8.828v-45.022
		c0-4.875,3.952-8.828,8.828-8.828s8.828,3.952,8.828,8.828v45.022C397.241,191.138,393.289,195.091,388.414,195.091z"/>
	<g>
		<path id="SVGCleanerId_6_1_" style="fill:#802F34;" d="M388.414,195.091c-4.875,0-8.828-3.952-8.828-8.828v-45.022
			c0-4.875,3.952-8.828,8.828-8.828s8.828,3.952,8.828,8.828v45.022C397.241,191.138,393.289,195.091,388.414,195.091z"/>
	</g>
	<path id="SVGCleanerId_7" style="fill:#802F34;" d="M344.276,195.091c-4.875,0-8.828-3.952-8.828-8.828v-27.366
		c0-4.875,3.952-8.828,8.828-8.828s8.828,3.952,8.828,8.828v27.366C353.103,191.138,349.151,195.091,344.276,195.091z"/>
	<g>
		<path id="SVGCleanerId_7_1_" style="fill:#802F34;" d="M344.276,195.091c-4.875,0-8.828-3.952-8.828-8.828v-27.366
			c0-4.875,3.952-8.828,8.828-8.828s8.828,3.952,8.828,8.828v27.366C353.103,191.138,349.151,195.091,344.276,195.091z"/>
	</g>
	<path id="SVGCleanerId_8" style="fill:#802F34;" d="M300.138,195.091c-4.875,0-8.828-3.952-8.828-8.828v-45.022
		c0-4.875,3.952-8.828,8.828-8.828s8.828,3.952,8.828,8.828v45.022C308.966,191.138,305.013,195.091,300.138,195.091z"/>
	<g>
		<path id="SVGCleanerId_8_1_" style="fill:#802F34;" d="M300.138,195.091c-4.875,0-8.828-3.952-8.828-8.828v-45.022
			c0-4.875,3.952-8.828,8.828-8.828s8.828,3.952,8.828,8.828v45.022C308.966,191.138,305.013,195.091,300.138,195.091z"/>
	</g>
	<g>
		<path id="SVGCleanerId_4_1_" style="fill:#802F34;" d="M256,195.091c-4.875,0-8.828-3.952-8.828-8.828v-27.366
			c0-4.875,3.952-8.828,8.828-8.828s8.828,3.952,8.828,8.828v27.366C264.828,191.138,260.875,195.091,256,195.091z"/>
	</g>
	<g>
		<path id="SVGCleanerId_5_1_" style="fill:#802F34;" d="M432.552,194.207c-4.875,0-8.828-3.952-8.828-8.828v-26.483
			c0-4.875,3.952-8.828,8.828-8.828s8.828,3.952,8.828,8.828v26.483C441.379,190.255,437.427,194.207,432.552,194.207z"/>
	</g>
</g>
<g>
</g>
<g>
</g>
<g>
</g>
<g>
</g>
<g>
</g>
<g>
</g>
<g>
</g>
<g>
</g>
<g>
</g>
<g>
</g>
<g>
</g>
<g>
</g>
<g>
</g>
<g>
</g>
<g>
</g>
</svg>
