<?xml version="1.0" encoding="iso-8859-1"?>
<!-- Generator: Adobe Illustrator 19.0.0, SVG Export Plug-In . SVG Version: 6.00 Build 0)  -->
<svg version="1.1" id="Layer_1" xmlns="http://www.w3.org/2000/svg" xmlns:xlink="http://www.w3.org/1999/xlink" x="0px" y="0px"
	 viewBox="0 0 505.377 505.377" style="enable-background:new 0 0 505.377 505.377;" xml:space="preserve">
<path style="fill:#687492;" d="M317.979,186.78L317.979,186.78c-20.66-20.66-20.66-54.793,0-76.351l95.214-94.316
	c20.66-20.66,54.793-20.66,76.351,0c21.558,20.66,20.66,54.793,0,76.351l-96.112,94.316
	C372.772,208.338,338.639,208.338,317.979,186.78"/>
<path style="fill:#8697CB;" d="M377.263,111.327c-2.695,0-4.491-0.898-6.288-2.695c-3.593-3.593-3.593-8.982,0-12.575l61.081-61.081
	c6.288-7.186,14.372-8.084,18.863-8.084c4.491,0,12.575,0.898,18.863,8.084c3.593,3.593,3.593,8.982,0,12.575
	c-3.593,3.593-8.982,3.593-12.575,0c-1.796-2.695-4.491-2.695-6.288-2.695s-4.491,0-6.288,2.695l-61.081,61.081
	C381.754,110.429,379.958,111.327,377.263,111.327z"/>
<path style="fill:#ECF0F1;" d="M317.979,186.78c-9.881-9.881-15.27-22.456-15.27-35.032L168.87,285.587
	C103.298,351.159,46.709,424.815,0,504.759c79.944-46.709,153.6-103.298,219.172-168.87L353.011,202.05
	C339.537,202.05,326.961,196.661,317.979,186.78"/>
<path style="fill:#B0D3F0;" d="M116.772,341.278C72.758,391.58,33.235,446.373,0,504.759
	c78.147-44.912,150.007-100.604,213.782-163.481H116.772z"/>
<g>
</g>
<g>
</g>
<g>
</g>
<g>
</g>
<g>
</g>
<g>
</g>
<g>
</g>
<g>
</g>
<g>
</g>
<g>
</g>
<g>
</g>
<g>
</g>
<g>
</g>
<g>
</g>
<g>
</g>
</svg>
