<?xml version="1.0" encoding="iso-8859-1"?>
<!-- Generator: Adobe Illustrator 19.0.0, SVG Export Plug-In . SVG Version: 6.00 Build 0)  -->
<svg version="1.1" id="Layer_1" xmlns="http://www.w3.org/2000/svg" xmlns:xlink="http://www.w3.org/1999/xlink" x="0px" y="0px"
	 viewBox="0 0 512.117 512.117" style="enable-background:new 0 0 512.117 512.117;" xml:space="preserve">
<path style="fill:#8697CB;" d="M255.885,282.599c-67.972,0-123.586-55.614-123.586-123.586S187.913,35.427,255.885,35.427
	s123.586,55.614,123.586,123.586S323.857,282.599,255.885,282.599 M414.782,159.013c0-93.572-81.214-168.607-177.434-158.014
	C163.195,9.827,103.168,70.737,97.871,145.772c-7.062,87.393,56.497,161.545,140.359,171.255v53.848
	c0,5.297-3.531,8.828-8.828,8.828h-52.966c-5.297,0-8.828,3.531-8.828,8.828v17.655c0,5.297,3.531,8.828,8.828,8.828h52.966
	c5.297,0,8.828,3.531,8.828,8.828v79.448c0,5.297,3.531,8.828,8.828,8.828h17.655c5.297,0,8.828-3.531,8.828-8.828v-79.448
	c0-5.297,3.531-8.828,8.828-8.828h52.966c5.297,0,8.828-3.531,8.828-8.828V388.53c0-5.297-3.531-8.828-8.828-8.828h-52.966
	c-5.297,0-8.828-3.531-8.828-8.828v-53.848C352.988,308.199,414.782,240.227,414.782,159.013"/>
<g>
</g>
<g>
</g>
<g>
</g>
<g>
</g>
<g>
</g>
<g>
</g>
<g>
</g>
<g>
</g>
<g>
</g>
<g>
</g>
<g>
</g>
<g>
</g>
<g>
</g>
<g>
</g>
<g>
</g>
</svg>
