<?xml version="1.0" encoding="iso-8859-1"?>
<!-- Generator: Adobe Illustrator 19.0.0, SVG Export Plug-In . SVG Version: 6.00 Build 0)  -->
<svg version="1.1" id="Layer_1" xmlns="http://www.w3.org/2000/svg" xmlns:xlink="http://www.w3.org/1999/xlink" x="0px" y="0px"
	 viewBox="0 0 512 512" style="enable-background:new 0 0 512 512;" xml:space="preserve">
<g transform="translate(1)">
	<path style="fill:#E4F4F9;" d="M405.069,512H131.414c-34.428,0-61.793-27.366-61.793-61.793V123.586h370.759v326.621
		C440.379,484.634,439.497,512,405.069,512"/>
	<path style="fill:#7395AE;" d="M343.276,476.69c-0.883,0-0.883,0-1.766,0c-4.414-0.883-7.945-5.297-7.062-10.593l70.621-416.662
		c0.883-4.414,5.297-7.945,10.593-7.062c4.414,0.883,7.945,6.179,7.062,10.593l-70.621,416.662
		C351.221,474.041,347.69,476.69,343.276,476.69z"/>
	<path style="fill:#90BAE1;" d="M466.862,132.414H43.138c-5.297,0-8.828-3.531-8.828-8.828c0-5.297,3.531-8.828,8.828-8.828h423.724
		c5.297,0,8.828,3.531,8.828,8.828C475.69,128.883,472.159,132.414,466.862,132.414z"/>
	<path style="fill:#849EB4;" d="M449.207,26.483C449.207,11.476,437.731,0,422.724,0c-15.007,0-26.483,11.476-26.483,26.483
		s11.476,26.483,26.483,26.483C437.731,52.966,449.207,41.49,449.207,26.483"/>
	<g>
		<path style="fill:#90BAE1;" d="M290.31,185.379H219.69c-5.297,0-8.828-3.531-8.828-8.828s3.531-8.828,8.828-8.828h70.621
			c5.297,0,8.828,3.531,8.828,8.828S295.607,185.379,290.31,185.379z"/>
		<path style="fill:#90BAE1;" d="M290.31,238.345H219.69c-5.297,0-8.828-3.531-8.828-8.828s3.531-8.828,8.828-8.828h70.621
			c5.297,0,8.828,3.531,8.828,8.828S295.607,238.345,290.31,238.345z"/>
		<path style="fill:#90BAE1;" d="M290.31,291.31H219.69c-5.297,0-8.828-3.531-8.828-8.828s3.531-8.828,8.828-8.828h70.621
			c5.297,0,8.828,3.531,8.828,8.828C299.138,287.779,295.607,291.31,290.31,291.31z"/>
	</g>
	<path style="fill:#B0D3F0;" d="M131.414,512h273.655c34.428,0,35.31-27.366,35.31-61.793V326.621
		c-21.186,0.883-43.255,6.179-61.793,17.655c-15.89,7.945-30.897,14.124-42.372,26.483c-39.724,36.193-94.455,11.476-132.414-26.483
		c-37.959-32.662-97.103-35.31-134.179-6.179v112.11C69.621,484.634,96.986,512,131.414,512"/>
</g>
<g>
</g>
<g>
</g>
<g>
</g>
<g>
</g>
<g>
</g>
<g>
</g>
<g>
</g>
<g>
</g>
<g>
</g>
<g>
</g>
<g>
</g>
<g>
</g>
<g>
</g>
<g>
</g>
<g>
</g>
</svg>
