<?xml version="1.0" encoding="iso-8859-1"?>
<!-- Generator: Adobe Illustrator 19.0.0, SVG Export Plug-In . SVG Version: 6.00 Build 0)  -->
<svg version="1.1" id="Layer_1" xmlns="http://www.w3.org/2000/svg" xmlns:xlink="http://www.w3.org/1999/xlink" x="0px" y="0px"
	 viewBox="0 0 512 512" style="enable-background:new 0 0 512 512;" xml:space="preserve">
<g transform="translate(1)">
	<g>
		<path style="fill:#E4F4F9;" d="M373.757,329.763c-7.81-37.315-32.976-67.688-66.82-83.308V52.068H202.801v194.386
			c-33.844,15.62-58.142,46.861-66.82,83.308H373.757z"/>
		<path style="fill:#E4F4F9;" d="M135.98,381.831c12.149,54.671,60.746,95.458,118.888,95.458s106.739-40.786,118.888-95.458H135.98
			z"/>
	</g>
	<path style="fill:#B0D3F0;" d="M306.936,52.068H202.801c-14.753,0-26.034-11.281-26.034-26.034S188.048,0,202.801,0h104.136
		c14.753,0,26.034,11.281,26.034,26.034S321.689,52.068,306.936,52.068"/>
	<g>
		<path style="fill:#90BAE1;" d="M272.224,112.814h-34.712c-5.207,0-8.678-3.471-8.678-8.678c0-5.207,3.471-8.678,8.678-8.678
			h34.712c5.207,0,8.678,3.471,8.678,8.678C280.902,109.342,277.431,112.814,272.224,112.814z"/>
		<path style="fill:#90BAE1;" d="M254.868,147.525h-17.356c-5.207,0-8.678-3.471-8.678-8.678s3.471-8.678,8.678-8.678h17.356
			c5.207,0,8.678,3.471,8.678,8.678S260.075,147.525,254.868,147.525z"/>
		<path style="fill:#90BAE1;" d="M272.224,182.237h-34.712c-5.207,0-8.678-3.471-8.678-8.678c0-5.207,3.471-8.678,8.678-8.678
			h34.712c5.207,0,8.678,3.471,8.678,8.678C280.902,178.766,277.431,182.237,272.224,182.237z"/>
		<path style="fill:#90BAE1;" d="M254.868,216.949h-17.356c-5.207,0-8.678-3.471-8.678-8.678c0-5.207,3.471-8.678,8.678-8.678
			h17.356c5.207,0,8.678,3.471,8.678,8.678C263.546,213.478,260.075,216.949,254.868,216.949z"/>
	</g>
	<g>
		<path style="fill:#CCB375;" d="M385.038,381.831H124.699c-14.753,0-26.034-11.281-26.034-26.034
			c0-14.753,11.281-26.034,26.034-26.034h260.339c14.753,0,26.034,11.281,26.034,26.034
			C411.072,370.549,399.791,381.831,385.038,381.831"/>
		<path style="fill:#CCB375;" d="M37.919,503.322c-1.736,0-3.471-0.868-5.207-1.736c-3.471-2.603-4.339-8.678-1.736-12.149
			l86.78-112.814c2.603-3.471,8.678-4.339,12.149-1.736c3.471,2.603,4.339,8.678,1.736,12.149l-86.78,112.814
			C43.126,502.454,40.523,503.322,37.919,503.322z"/>
		<path style="fill:#CCB375;" d="M471.818,503.322c-2.603,0-5.207-0.868-6.942-3.471l-95.458-121.492
			c-2.603-3.471-2.603-9.546,1.736-12.149c3.471-2.603,9.546-2.603,12.149,1.736l95.458,121.492
			c2.603,3.471,2.603,9.546-1.736,12.149C475.289,502.454,473.553,503.322,471.818,503.322z"/>
		<path style="fill:#CCB375;" d="M254.868,512c-5.207,0-8.678-3.471-8.678-8.678V381.831c0-5.207,3.471-8.678,8.678-8.678
			s8.678,3.471,8.678,8.678v121.492C263.546,508.529,260.075,512,254.868,512z"/>
	</g>
</g>
<g>
</g>
<g>
</g>
<g>
</g>
<g>
</g>
<g>
</g>
<g>
</g>
<g>
</g>
<g>
</g>
<g>
</g>
<g>
</g>
<g>
</g>
<g>
</g>
<g>
</g>
<g>
</g>
<g>
</g>
</svg>
