<?xml version="1.0" encoding="iso-8859-1"?>
<!-- Generator: Adobe Illustrator 19.0.0, SVG Export Plug-In . SVG Version: 6.00 Build 0)  -->
<svg version="1.1" id="Layer_1" xmlns="http://www.w3.org/2000/svg" xmlns:xlink="http://www.w3.org/1999/xlink" x="0px" y="0px"
	 viewBox="0 0 512 512" style="enable-background:new 0 0 512 512;" xml:space="preserve">
<path style="fill:#B0D3F0;" d="M326.621,52.966H185.379c-15.007,0-26.483-11.476-26.483-26.483S170.372,0,185.379,0h141.241
	c15.007,0,26.483,11.476,26.483,26.483S341.628,52.966,326.621,52.966"/>
<path style="fill:#E4F4F9;" d="M153.6,512h204.8c23.835-25.6,38.841-59.145,38.841-97.103c0-52.083-28.248-97.986-70.621-121.821
	V52.966H185.379v240.11c-42.372,23.835-70.621,69.738-70.621,121.821C114.759,452.855,129.766,486.4,153.6,512"/>
<g>
	<path style="fill:#90BAE1;" d="M273.655,114.759H220.69c-5.297,0-8.828-3.531-8.828-8.828c0-5.297,3.531-8.828,8.828-8.828h52.966
		c5.297,0,8.828,3.531,8.828,8.828C282.483,111.228,278.952,114.759,273.655,114.759z"/>
	<path style="fill:#90BAE1;" d="M247.172,150.069H220.69c-5.297,0-8.828-3.531-8.828-8.828s3.531-8.828,8.828-8.828h26.483
		c5.297,0,8.828,3.531,8.828,8.828S252.469,150.069,247.172,150.069z"/>
	<path style="fill:#90BAE1;" d="M273.655,185.379H220.69c-5.297,0-8.828-3.531-8.828-8.828s3.531-8.828,8.828-8.828h52.966
		c5.297,0,8.828,3.531,8.828,8.828S278.952,185.379,273.655,185.379z"/>
	<path style="fill:#90BAE1;" d="M247.172,220.69H220.69c-5.297,0-8.828-3.531-8.828-8.828c0-5.297,3.531-8.828,8.828-8.828h26.483
		c5.297,0,8.828,3.531,8.828,8.828C256,217.159,252.469,220.69,247.172,220.69z"/>
</g>
<path style="fill:#B0D3F0;" d="M358.4,512c23.835-25.6,38.841-59.145,38.841-97.103c0-4.414,0-7.945-0.883-12.359
	c-36.193-10.593-73.269-6.179-94.455,21.186c-41.49,53.848-86.51,37.076-132.414,8.828c-16.772-8.828-36.193-17.655-52.966-17.655
	l-0.883-0.883v0.883c0,37.959,15.007,71.503,38.841,97.103H358.4z"/>
<g>
</g>
<g>
</g>
<g>
</g>
<g>
</g>
<g>
</g>
<g>
</g>
<g>
</g>
<g>
</g>
<g>
</g>
<g>
</g>
<g>
</g>
<g>
</g>
<g>
</g>
<g>
</g>
<g>
</g>
</svg>
