<?xml version="1.0" encoding="iso-8859-1"?>
<!-- Generator: Adobe Illustrator 19.0.0, SVG Export Plug-In . SVG Version: 6.00 Build 0)  -->
<svg version="1.1" id="Layer_1" xmlns="http://www.w3.org/2000/svg" xmlns:xlink="http://www.w3.org/1999/xlink" x="0px" y="0px"
	 viewBox="0 0 512 512" style="enable-background:new 0 0 512 512;" xml:space="preserve">
<g>
	<path style="fill:#8F6127;" d="M386.299,136.828H17.659v300.138h406.069V160.998C408.747,157.131,395.691,148.542,386.299,136.828
		L386.299,136.828z"/>
	<polygon style="fill:#AD7E4E;" points="0,489.931 441.379,489.931 441.379,436.966 0,436.966 	"/>
	<path style="fill:#ED7161;" d="M512,92.69c0-39-31.62-70.621-70.621-70.621s-70.621,31.62-70.621,70.621
		s31.62,70.621,70.621,70.621S512,131.69,512,92.69"/>
	<path style="fill:#AD7E4E;" d="M370.759,92.69c0-2.993,0.247-5.932,0.609-8.828H0v52.966h386.295
		C376.594,124.734,370.759,109.4,370.759,92.69"/>
	<g>
		<path style="fill:#FFFFFF;" d="M467.862,128c-2.26,0-4.52-0.865-6.241-2.586l-52.966-52.966c-3.452-3.452-3.452-9.031,0-12.482
			c3.452-3.452,9.031-3.452,12.482,0l52.966,52.966c3.452,3.452,3.452,9.031,0,12.482C472.382,127.135,470.122,128,467.862,128"/>
		<path style="fill:#FFFFFF;" d="M414.897,128c-2.26,0-4.52-0.865-6.241-2.586c-3.452-3.452-3.452-9.031,0-12.482l52.966-52.966
			c3.452-3.452,9.031-3.452,12.482,0c3.452,3.452,3.452,9.031,0,12.482l-52.966,52.966C419.416,127.135,417.156,128,414.897,128"/>
	</g>
	<g>
		<path style="fill:#70491E;" d="M150.069,207.448H291.31c4.873,0,8.828-3.946,8.828-8.828c0-4.882-3.955-8.828-8.828-8.828H150.069
			c-4.873,0-8.828,3.946-8.828,8.828C141.241,203.502,145.196,207.448,150.069,207.448"/>
		<path style="fill:#70491E;" d="M291.31,375.172H150.069c-4.873,0-8.828,3.946-8.828,8.828c0,4.882,3.955,8.828,8.828,8.828H291.31
			c4.873,0,8.828-3.946,8.828-8.828C300.138,379.118,296.183,375.172,291.31,375.172"/>
		<path style="fill:#70491E;" d="M335.448,189.793c-4.873,0-8.828,3.946-8.828,8.828c0,4.882,3.955,8.828,8.828,8.828h88.276
			v-17.655H335.448z"/>
		<path style="fill:#70491E;" d="M271.888,278.069c-4.873,0-8.828,3.946-8.828,8.828s3.955,8.828,8.828,8.828h151.834v-17.655
			H271.888z"/>
		<path style="fill:#70491E;" d="M335.448,375.172c-4.873,0-8.828,3.946-8.828,8.828c0,4.882,3.955,8.828,8.828,8.828h88.276
			v-17.655H335.448z"/>
		<path style="fill:#70491E;" d="M105.931,207.448c4.873,0,8.828-3.946,8.828-8.828c0-4.882-3.955-8.828-8.828-8.828H17.655v17.655
			H105.931z"/>
		<path style="fill:#70491E;" d="M169.491,295.724c4.873,0,8.828-3.946,8.828-8.828s-3.955-8.828-8.828-8.828H17.657v17.655H169.491
			z"/>
		<path style="fill:#70491E;" d="M105.931,392.828c4.873,0,8.828-3.946,8.828-8.828c0-4.882-3.955-8.828-8.828-8.828H17.655v17.655
			H105.931z"/>
		<polygon style="fill:#70491E;" points="220.69,248.308 105.931,136.824 17.655,136.824 175.175,292.516 		"/>
		<polygon style="fill:#70491E;" points="220.69,337.501 321.324,436.961 414.897,436.961 266.205,292.515 		"/>
		<path style="fill:#70491E;" d="M386.299,136.828h-50.847L26.486,436.966h93.572l286.314-282.995
			C398.648,149.548,391.842,143.731,386.299,136.828"/>
	</g>
</g>
<g>
</g>
<g>
</g>
<g>
</g>
<g>
</g>
<g>
</g>
<g>
</g>
<g>
</g>
<g>
</g>
<g>
</g>
<g>
</g>
<g>
</g>
<g>
</g>
<g>
</g>
<g>
</g>
<g>
</g>
</svg>
