<?xml version="1.0" encoding="iso-8859-1"?>
<!-- Generator: Adobe Illustrator 19.0.0, SVG Export Plug-In . SVG Version: 6.00 Build 0)  -->
<svg version="1.1" id="Layer_1" xmlns="http://www.w3.org/2000/svg" xmlns:xlink="http://www.w3.org/1999/xlink" x="0px" y="0px"
	 viewBox="0 0 511.998 511.998" style="enable-background:new 0 0 511.998 511.998;" xml:space="preserve">
<g>
	<path style="fill:#C69666;" d="M305.404,94.315h-53.895V76.35h-89.825v17.965H35.481C15.881,94.315,0,110.196,0,129.796v342.232
		c0,19.6,15.881,35.481,35.481,35.481h341.782c19.842,0,35.93-16.088,35.93-35.93V202.104h-89.825
		c-9.926,0-17.965-8.039-17.965-17.965V94.315z"/>
	<g>
		<path style="fill:#E8D5B2;" d="M238.33,191.561l-31.735-25.384l-31.735,25.384c-5.309,4.249-13.177,0.467-13.177-6.333V76.352
			h89.825v108.876C251.507,192.028,243.638,195.809,238.33,191.561"/>
		<polygon style="fill:#E8D5B2;" points="53.895,471.578 179.649,471.578 179.649,363.789 53.895,363.789 		"/>
	</g>
	<g>
		<path style="fill:#CBB292;" d="M143.719,408.701H89.825c-4.967,0-8.982-4.024-8.982-8.982c0-4.958,4.015-8.982,8.982-8.982h53.895
			c4.967,0,8.982,4.024,8.982,8.982C152.702,404.677,148.687,408.701,143.719,408.701"/>
		<path style="fill:#CBB292;" d="M125.754,444.631h-35.93c-4.967,0-8.982-4.024-8.982-8.982c0-4.958,4.015-8.982,8.982-8.982h35.93
			c4.967,0,8.982,4.024,8.982,8.982C134.737,440.607,130.722,444.631,125.754,444.631"/>
	</g>
	<path style="fill:#B1D3F0;" d="M314.6,4.49h179.218c10.042,0,18.181,8.138,18.181,18.18v179.218c0,10.042-8.138,18.18-18.181,18.18
		H314.6c-10.042,0-18.18-8.138-18.18-18.18V22.671C296.419,12.628,304.557,4.49,314.6,4.49"/>
	<g>
		<path style="fill:#556080;" d="M431.158,166.175h-89.825c-4.967,0-8.982-4.024-8.982-8.982s4.015-8.982,8.982-8.982h89.825
			c14.857,0,26.947-12.09,26.947-26.947c0-4.958,4.015-8.982,8.982-8.982c4.967,0,8.982,4.024,8.982,8.982
			C476.07,146.027,455.923,166.175,431.158,166.175"/>
		<path style="fill:#556080;" d="M368.281,193.122c-2.299,0-4.599-0.88-6.351-2.632l-26.947-26.947
			c-3.512-3.512-3.512-9.189,0-12.701l26.947-26.947c3.512-3.512,9.189-3.512,12.701,0c3.512,3.512,3.512,9.189,0,12.701
			l-20.597,20.597l20.597,20.597c3.512,3.512,3.512,9.189,0,12.701C372.88,192.242,370.58,193.122,368.281,193.122"/>
		<path style="fill:#556080;" d="M341.333,112.28c-4.967,0-8.982-4.024-8.982-8.982c0-24.765,20.148-44.912,44.912-44.912h89.825
			c4.967,0,8.982,4.024,8.982,8.982s-4.015,8.982-8.982,8.982h-89.825c-14.857,0-26.947,12.09-26.947,26.947
			C350.316,108.256,346.301,112.28,341.333,112.28"/>
		<path style="fill:#556080;" d="M440.14,103.297c-2.299,0-4.599-0.88-6.351-2.632c-3.512-3.512-3.512-9.189,0-12.701l20.597-20.597
			L433.79,46.771c-3.512-3.512-3.512-9.189,0-12.701c3.512-3.512,9.189-3.512,12.701,0l26.947,26.947
			c3.512,3.512,3.512,9.189,0,12.701l-26.947,26.947C444.739,102.417,442.44,103.297,440.14,103.297"/>
	</g>
</g>
<g>
</g>
<g>
</g>
<g>
</g>
<g>
</g>
<g>
</g>
<g>
</g>
<g>
</g>
<g>
</g>
<g>
</g>
<g>
</g>
<g>
</g>
<g>
</g>
<g>
</g>
<g>
</g>
<g>
</g>
</svg>
