<?xml version="1.0" encoding="iso-8859-1"?>
<!-- Generator: Adobe Illustrator 19.0.0, SVG Export Plug-In . SVG Version: 6.00 Build 0)  -->
<svg version="1.1" id="Capa_1" xmlns="http://www.w3.org/2000/svg" xmlns:xlink="http://www.w3.org/1999/xlink" x="0px" y="0px"
	 viewBox="0 0 503.497 503.497" style="enable-background:new 0 0 503.497 503.497;" xml:space="preserve">
<g>
	<path style="fill:#7F5B53;" d="M503.497,0.091c0,0-296.497,156.203-296.497,344.226c0,37.604,19.525,60.746,44.09,60.746
		c25.333,0,44.859-20.249,44.859-60.023v-72.316C295.949,116.52,503.497,0.091,503.497,0.091z"/>
	<path style="fill:#CBB292;" d="M0.162,244.299L0,485.865c-0.003,4.604,1.823,9.021,5.077,12.278
		c3.254,3.257,7.668,5.088,12.272,5.09l468.785,0.174c4.604,0.002,9.02-1.826,12.277-5.081c3.256-3.255,5.086-7.671,5.086-12.275
		V244.974c-0.029-5.374-2.533-10.435-6.788-13.718c-4.255-3.283-9.785-4.423-14.991-3.089
		c-19.358,4.784-27.763,14.906-47.645,14.906c-26.034,0-40.136-17.356-60.746-17.356c-11.876,0.247-23.42,3.97-33.202,10.709
		c-3.781,2.535-6.368,6.499-7.166,10.98c-1.501,8.355-2.27,16.826-2.298,25.315v72.318c0,65.441-39.966,94.733-79.572,94.733
		c-39.161,0-78.801-32.788-78.801-95.458c0.105-23.23,3.741-46.308,10.784-68.445c6.249-18.59,25.373-50.153,16.695-50.153
		c-43.39,0-52.068,17.356-104.136,17.356c-35.798,0-47.969-11.814-75.498-15.948c-5.002-0.746-10.081,0.721-13.915,4.018
		C2.385,234.441,0.174,239.242,0.162,244.299z"/>
	<g>
		<circle style="fill:#7F6E5D;" cx="60.921" cy="295.141" r="8.678"/>
		<circle style="fill:#7F6E5D;" cx="34.887" cy="269.108" r="8.678"/>
		<circle style="fill:#7F6E5D;" cx="139.022" cy="269.108" r="8.678"/>
		<circle style="fill:#7F6E5D;" cx="86.954" cy="269.108" r="8.678"/>
		<circle style="fill:#7F6E5D;" cx="112.988" cy="295.141" r="8.678"/>
		<circle style="fill:#7F6E5D;" cx="416.717" cy="269.108" r="8.678"/>
		<circle style="fill:#7F6E5D;" cx="468.785" cy="269.108" r="8.678"/>
		<circle style="fill:#7F6E5D;" cx="364.649" cy="269.108" r="8.678"/>
		<circle style="fill:#7F6E5D;" cx="390.683" cy="295.141" r="8.678"/>
		<circle style="fill:#7F6E5D;" cx="442.751" cy="295.141" r="8.678"/>
	</g>
</g>
<g>
</g>
<g>
</g>
<g>
</g>
<g>
</g>
<g>
</g>
<g>
</g>
<g>
</g>
<g>
</g>
<g>
</g>
<g>
</g>
<g>
</g>
<g>
</g>
<g>
</g>
<g>
</g>
<g>
</g>
</svg>
