<?xml version="1.0" encoding="iso-8859-1"?>
<!-- Generator: Adobe Illustrator 19.0.0, SVG Export Plug-In . SVG Version: 6.00 Build 0)  -->
<svg version="1.1" id="Capa_1" xmlns="http://www.w3.org/2000/svg" xmlns:xlink="http://www.w3.org/1999/xlink" x="0px" y="0px"
	 viewBox="0 0 512 512" style="enable-background:new 0 0 512 512;" xml:space="preserve">
<g>
	<path style="fill:#FAC176;" d="M512,17.655v476.69c-0.029,9.739-7.916,17.626-17.655,17.655H316.116
		c-8.528-0.004-15.84-6.091-17.39-14.477c-4.454-20.224-12.984-39.328-25.07-56.143c0,0,8.828,70.621-44.138,70.621
		c-60.381,0-87.658-28.866-98.957-47.139c-7.25-11.785-15.584-22.868-24.894-33.103C73.357,396.094,0,331.035,0,238.345
		c0-61.793,8.828-52.966,8.828-105.931C8.828,35.31,35.31,0,88.276,0c35.31,0,61.793,35.31,61.793,35.31V17.655
		C150.097,7.916,157.985,0.029,167.724,0h326.621C504.084,0.029,511.972,7.916,512,17.655z"/>
	<path style="fill:#F09372;" d="M450.207,291.31c-26.483,0-52.966-17.655-70.621-17.655c-3.443,0-6.797,0.088-10.063,0.265
		c-3.266,0.088-6.444,0.353-9.534,0.618c-1.501,0.177-3.001,0.353-4.414,0.53c-0.441,0-0.883,0.088-1.236,0.088
		c-2.56,0.353-5.032,0.706-7.503,1.059c-3.001,0.441-5.826,0.971-8.651,1.501c-0.794,0.177-1.501,0.265-2.207,0.441
		c-3.001,0.617-6.003,1.324-8.828,2.03c-4.59,1.059-9.004,2.295-13.241,3.531c-2.56,0.794-5.032,1.589-7.503,2.383
		c-1.942,0.618-3.884,1.236-5.738,1.942h-0.177v0.088c-28.513,9.71-51.112,20.833-70.974,20.833
		c-35.31,0-44.138,52.966-44.138,52.966c-52.966-61.793-123.586-88.276-141.241-123.586c-7.861-15.954-9.558-34.248-4.767-51.377
		c3.963-17.899,5.565-36.24,4.767-54.554c0-97.103,26.571-97.103,44.138-97.103c26.483,0,35.31,26.483,35.31,26.483
		c0.53,1.059,1.059,2.295,1.589,3.619c3.754,12.297,5.92,25.024,6.444,37.87c0.794,11.388,0.794,20.303,0.794,20.303
		c0,44.138,35.31,52.966,35.31,52.966s8.828,61.793,44.138,61.793c23.783-0.479,47.451-3.438,70.621-8.828
		c10.417-2.207,20.657-4.59,30.543-6.886c3.443-0.883,6.886-1.677,10.24-2.383h0.177c6.797-1.589,13.418-3.002,19.862-4.237h0.177
		c3.001-0.618,5.914-1.148,8.828-1.589c0.229-0.068,0.468-0.098,0.706-0.088c3.178-0.53,6.179-0.971,9.181-1.324
		c1.854-0.265,3.531-0.441,5.208-0.53c1.677-0.177,3.266-0.265,4.855-0.353c2.472-0.177,4.943-0.265,7.327-0.265
		c44.138,0,61.793,26.483,61.793,26.483C448.03,255.178,451.038,273.23,450.207,291.31z"/>
	<g>
		<path style="fill:#F0785A;" d="M512,132.414v71.68c0.021,9.043-6.807,16.633-15.801,17.567
			c-19.297,1.358-38.038,7.061-54.819,16.684c0,0-17.655-26.483-61.793-26.483c-2.383,0-4.855,0.088-7.327,0.265
			c-1.589,0.088-3.178,0.177-4.855,0.353c-1.677,0.088-3.354,0.265-5.208,0.53c-3.001,0.353-6.003,0.794-9.181,1.324
			c-0.239-0.009-0.477,0.021-0.706,0.088c-2.913,0.441-5.826,0.971-8.828,1.589h-0.177c-6.444,1.236-13.065,2.648-19.862,4.237
			h-0.177c-3.354,0.706-6.797,1.501-10.24,2.383c-9.887,2.295-20.127,4.679-30.543,6.886c0,0-61.793-44.138-61.793-229.517H256
			c0,0,0,167.724,132.414,167.724C441.379,167.724,441.379,132.414,512,132.414z"/>
		<path style="fill:#F0785A;" d="M512,325.915v168.43c-0.029,9.739-7.916,17.626-17.655,17.655h-8.828
			c-44.138,0-17.655-88.276-52.966-88.276s-26.483,52.966-61.793,52.966c-17.655,0-35.31-17.655-35.31-79.448
			c0-41.843-31.514-75.652-34.957-109.109c0.048-0.048,0.11-0.079,0.177-0.088c1.854-0.706,3.796-1.324,5.738-1.942
			c2.472-0.794,4.943-1.589,7.503-2.383c4.237-1.236,8.651-2.472,13.241-3.531c2.825-0.706,5.826-1.412,8.828-2.03
			c0.706-0.177,1.412-0.265,2.207-0.441c2.825-0.53,5.65-1.059,8.651-1.501c2.472-0.353,4.943-0.706,7.503-1.059
			c0.353,0,0.794-0.088,1.236-0.088c1.412-0.177,2.913-0.353,4.414-0.53c3.09-0.265,6.268-0.53,9.534-0.618
			c3.266-0.177,6.621-0.265,10.063-0.265c17.655,0,44.138,17.655,70.621,17.655c0,0,6.974,13.859,45.374,17.037
			C504.815,308.988,511.984,316.658,512,325.915z"/>
	</g>
	<path style="fill:#F09372;" d="M194.207,467.866c-3.681-0.003-6.974-2.287-8.267-5.733C160.966,395.53,93.832,361.336,93.155,361
		c-2.829-1.406-4.691-4.217-4.883-7.37c-0.192-3.153,1.316-6.169,3.954-7.907c2.638-1.739,6.003-1.935,8.826-0.516
		c3.009,1.504,74.034,37.703,101.422,110.728c1.014,2.712,0.635,5.748-1.014,8.127C199.812,466.442,197.102,467.863,194.207,467.866
		z"/>
	<path style="fill:#F0785A;" d="M131.619,103.283c-10.83,13.817-23.617,25.98-37.959,36.105c-1.542,1.195-3.435,1.846-5.385,1.854
		c-3.769-0.009-7.117-2.411-8.333-5.979s-0.032-7.514,2.948-9.823c36.723-28.337,41.843-39.459,42.284-60.028
		C128.929,77.709,131.095,90.436,131.619,103.283z"/>
	<path style="fill:#FDD7AD;" d="M300.668,288.044c-0.067,0.009-0.129,0.04-0.177,0.088v-0.088H300.668z"/>
	<path style="fill:#C2615F;" d="M512,204.094v121.821c-0.016-9.257-7.185-16.927-16.419-17.567
		c-38.4-3.178-45.374-17.037-45.374-17.037c0.831-18.08-2.177-36.132-8.828-52.966c16.782-9.623,35.522-15.326,54.819-16.684
		C505.193,220.727,512.021,213.137,512,204.094z"/>
</g>
<g>
</g>
<g>
</g>
<g>
</g>
<g>
</g>
<g>
</g>
<g>
</g>
<g>
</g>
<g>
</g>
<g>
</g>
<g>
</g>
<g>
</g>
<g>
</g>
<g>
</g>
<g>
</g>
<g>
</g>
</svg>
