<?xml version="1.0" encoding="iso-8859-1"?>
<!-- Generator: Adobe Illustrator 19.0.0, SVG Export Plug-In . SVG Version: 6.00 Build 0)  -->
<svg version="1.1" id="Capa_1" xmlns="http://www.w3.org/2000/svg" xmlns:xlink="http://www.w3.org/1999/xlink" x="0px" y="0px"
	 viewBox="0 0 512 512" style="enable-background:new 0 0 512 512;" xml:space="preserve">
<g>
	<path style="fill:#CBB292;" d="M355.452,0c-57.016,0-83.32,31.619-95.477,69.95c-6.787-20.067-19.966-34.639-45.765-34.639
		c-4.875,0-8.828,3.952-8.828,8.828s3.952,8.828,8.828,8.828c32.776,0,35.31,36.586,35.31,88.276
		c0.051,0.409,0.133,0.814,0.244,1.211c-0.238,9.046-0.244,17.598-0.244,25.272c0.092,18.161,1.597,36.288,4.5,54.215
		c2.795,17.086,4.242,34.365,4.327,51.678c-1.911,22.077-13.559,42.154-31.775,54.771c-2.533,1.887-3.863,4.985-3.489,8.121
		c0.374,3.136,2.396,5.833,5.302,7.072c2.906,1.239,6.251,0.83,8.773-1.072c22.657-15.93,36.927-41.223,38.845-68.853
		c0-21.362,14.026-52.966,44.138-52.966c4.875,0,8.828-3.952,8.828-8.828c0-4.875-3.952-8.828-8.828-8.828
		c-19.045,0.149-36.781,9.717-47.365,25.552c-0.418-3.092-0.842-6.141-1.273-9.147c-2.798-17.098-4.245-34.39-4.328-51.716
		c0-92.647,14.767-150.069,88.276-150.069c4.875,0,8.828-3.952,8.828-8.828S360.328,0,355.452,0z"/>
	<path style="fill:#D75E72;" d="M49.943,206.265c-8.445,27.548-12.588,56.234-12.283,85.045C37.659,441.379,108.28,512,231.866,512
		c140.236,0,224.903-90.931,257.823-135.217c9.961-13.015,13.482-29.846,9.573-45.762s-14.824-29.202-29.68-36.124
		c-2.102-0.897-4.251-1.678-6.438-2.34c-18.294-5.169-37.955-0.105-51.475,13.259c-30.253,29.01-103.215,91.426-170.975,91.426
		c-10.076,0.151-20.103-1.421-29.65-4.646c-5.456-1.854-9.424-6.596-10.286-12.294c-0.863-5.698,1.523-11.401,6.186-14.788
		c2.249-1.517,4.694-2.722,7.267-3.582c26.483-8.828,44.137-44.176,44.137-88.314c0,0-19.188,55.733-75.062,68.067
		c-4.052,0.965-8.323,0.255-11.845-1.969c-3.522-2.224-5.999-5.774-6.87-9.848c-2.328-12.718-3.442-25.629-3.327-38.557
		c0-42.755,33.808-93.961,54.64-121.456c13.066-16.555,12.823-39.979-0.583-56.259c-5.219-5.933-11.485-10.856-18.484-14.524
		L49.943,206.265z"/>
	<path style="fill:#CBB292;" d="M90.625,211.862c61.793,0,105.931-43.697,105.931-105.931c0-44.138,26.483-41.048,26.483-61.793
		S214.211,0,178.901,0c-31.117,0-67.531,51.421-88.276,61.793s-79.448,26.483-79.448,88.276
		C11.177,203.034,55.315,211.862,90.625,211.862z"/>
	<path style="fill:#802D40;" d="M240.694,432.552c-12.304,0.096-24.556-1.595-36.373-5.02c-16.57-4.519-29.988-16.674-36.118-32.718
		c-2.229-6.262-3.225-12.897-2.931-19.538c-18.077-5.298-31.707-20.21-35.362-38.69c-2.756-14.932-4.087-30.092-3.974-45.276
		c0.048-8.887,0.986-17.747,2.798-26.447c1.079-5.035-0.363-10.279-3.862-14.056c-3.5-3.777-8.62-5.612-13.722-4.918
		c-6.807,0.861-13.663,1.29-20.524,1.284h-0.147c-8.161-0.08-15.058,6.032-15.96,14.143c-1.046,9.964-1.563,19.976-1.548,29.995
		c0,126.474,50.491,185.379,158.897,185.379c39.243,0.196,78.047-8.253,113.654-24.749c5.86-2.702,10.321-7.733,12.302-13.874
		s1.302-12.831-1.874-18.448l-0.224-0.394c-5.853-10.196-18.633-14.072-29.163-8.843
		C299.965,424.118,270.617,431.696,240.694,432.552z"/>
	<path style="fill:#7F6E5D;" d="M90.625,211.862c52.36,0,91.928-31.438,102.824-78.879c-1.892-0.316-3.803-0.506-5.72-0.569
		c-52.966,0-61.793,26.483-88.276,26.483s-35.31-26.483-70.621-26.483c-5.394-0.107-10.782,0.432-16.048,1.605
		c-1.042,5.287-1.581,10.662-1.607,16.051C11.177,203.034,55.315,211.862,90.625,211.862z"/>
</g>
<g>
</g>
<g>
</g>
<g>
</g>
<g>
</g>
<g>
</g>
<g>
</g>
<g>
</g>
<g>
</g>
<g>
</g>
<g>
</g>
<g>
</g>
<g>
</g>
<g>
</g>
<g>
</g>
<g>
</g>
</svg>
