<?xml version="1.0" encoding="iso-8859-1"?>
<!-- Generator: Adobe Illustrator 19.0.0, SVG Export Plug-In . SVG Version: 6.00 Build 0)  -->
<svg version="1.1" id="Capa_1" xmlns="http://www.w3.org/2000/svg" xmlns:xlink="http://www.w3.org/1999/xlink" x="0px" y="0px"
	 viewBox="0 0 512 512" style="enable-background:new 0 0 512 512;" xml:space="preserve">
<g>
	<path style="fill:#CC4B4C;" d="M189.793,0C127.963,0,92.69,53.564,92.69,88.276c0,42.942,46.421,68.477,78.104,90.717
		c4.872,3.434,7.553,9.196,7.041,15.134c-0.512,5.938-4.139,11.157-9.526,13.707c-33.897,15.747-84.447,27.145-84.447,83.476v23.886
		c0,11.185,9.067,20.252,20.252,20.252c8.682,0.045,16.411-5.489,19.164-13.723c6.757-20.597,21.354-48.07,40.033-48.07h0.019
		c5.879-0.136,11.466,2.557,15.022,7.241c3.556,4.684,4.648,10.789,2.937,16.415c-1.81,4.716-4.999,8.777-9.15,11.654
		c-20.653,14.741-35.31,26.809-35.31,61.793c0,52.068,45.784,141.241,141.241,141.241c130.169,0,150.069-168.772,150.069-229.517
		C428.138,152.313,328.641,0,189.793,0z"/>
	<g>
		<path style="fill:#E4C05C;" d="M238.549,238.59c-4.494-1.89-9.67,0.221-11.56,4.716c-1.89,4.494,0.221,9.67,4.716,11.56
			c25.486,11.436,47.995,28.588,65.784,50.125c1.893,2.522,4.987,3.844,8.118,3.466c3.131-0.378,5.822-2.397,7.06-5.297
			s0.835-6.241-1.057-8.763C291.976,270.314,266.947,251.196,238.549,238.59z"/>
		<path style="fill:#E4C05C;" d="M233.928,220.24c2.312,0.004,4.533-0.904,6.181-2.526c0.336-0.327,33.81-32.78,64.44-32.78
			c4.875,0,8.828-3.952,8.828-8.828s-3.952-8.828-8.828-8.828c-37.897,0-75.241,36.297-76.81,37.845
			c-2.551,2.513-3.331,6.319-1.974,9.634S230.347,220.238,233.928,220.24z"/>
		<path style="fill:#E4C05C;" d="M251.583,167.279c2.341,0.001,4.587-0.929,6.243-2.585c1.656-1.656,2.585-3.901,2.585-6.243
			c0.562-7.86,5.335-14.8,12.474-18.138c4.361-2.181,6.129-7.484,3.948-11.845c-2.181-4.361-7.484-6.129-11.845-3.948
			c-13.07,6.38-21.602,19.401-22.233,33.931c-0.001,2.341,0.929,4.587,2.585,6.243C246.996,166.35,249.242,167.28,251.583,167.279z"
			/>
		<path style="fill:#E4C05C;" d="M271.988,319.887c-3.45,3.384-3.568,8.902-0.267,12.431c4.389,5.671,6.589,12.732,6.198,19.892
			c0,4.875,3.952,8.828,8.828,8.828s8.828-3.952,8.828-8.828c0.506-11.804-3.526-23.354-11.267-32.28
			C280.906,316.543,275.413,316.524,271.988,319.887z"/>
	</g>
	<g>
		<path style="fill:#802F34;" d="M163.314,229.517c-4.232-0.002-7.868-3.007-8.667-7.163c-0.799-4.156,1.462-8.295,5.391-9.867
			c17.899-6.74,29.752-23.861,29.759-42.987c0.251-15.199-8.114-29.233-21.603-36.241c-4.361-2.181-6.129-7.484-3.948-11.845
			c2.181-4.361,7.484-6.129,11.845-3.948c19.515,9.952,31.677,30.131,31.362,52.034c-0.169,26.296-16.362,49.829-40.862,59.383
			C165.548,229.3,164.436,229.515,163.314,229.517z"/>
		<path style="fill:#802F34;" d="M278.069,485.517c-81.741,0-114.759-80.987-114.759-114.759c0-4.875,3.952-8.828,8.828-8.828
			s8.828,3.952,8.828,8.828c0,28.578,27.939,97.103,97.103,97.103C382.793,467.862,384,290.052,384,282.483
			c0-134.228-104.397-238.345-194.207-238.345c-26.039-0.124-48.392,18.503-52.966,44.138c0,4.875-3.952,8.828-8.828,8.828
			c-4.875,0-8.828-3.952-8.828-8.828c4.424-35.547,34.801-62.127,70.621-61.793c119.319,0,211.862,137.616,211.862,256
			C401.655,290.772,400.25,485.517,278.069,485.517z"/>
		<path style="fill:#802F34;" d="M207.448,344.276c-2.341,0.001-4.587-0.929-6.243-2.585c-1.656-1.656-2.585-3.901-2.585-6.243
			c0-42.737-13.612-61.793-44.138-61.793c-4.875,0-8.828-3.952-8.828-8.828s3.952-8.828,8.828-8.828
			c41,0,61.793,26.728,61.793,79.448c0.001,2.341-0.929,4.587-2.585,6.243C212.035,343.347,209.79,344.276,207.448,344.276z"/>
	</g>
</g>
<g>
</g>
<g>
</g>
<g>
</g>
<g>
</g>
<g>
</g>
<g>
</g>
<g>
</g>
<g>
</g>
<g>
</g>
<g>
</g>
<g>
</g>
<g>
</g>
<g>
</g>
<g>
</g>
<g>
</g>
</svg>
