<?xml version="1.0" encoding="iso-8859-1"?>
<!-- Generator: Adobe Illustrator 19.0.0, SVG Export Plug-In . SVG Version: 6.00 Build 0)  -->
<svg version="1.1" id="Capa_1" xmlns="http://www.w3.org/2000/svg" xmlns:xlink="http://www.w3.org/1999/xlink" x="0px" y="0px"
	 viewBox="0 0 512 512" style="enable-background:new 0 0 512 512;" xml:space="preserve">
<g>
	<path style="fill:#D75E72;" d="M508.205,299.608c-1.214-26.792-5.873-53.316-13.86-78.919
		c-5.138-12.129-11.035-23.923-17.655-35.31l-17.655-35.31c-18.066-30.884-42.068-57.886-70.621-79.448
		c-20.038-16.266-44.828-25.563-70.621-26.483c-18.362,0-29.043,5.738-35.31,13.683V17.655C282.454,7.916,274.566,0.028,264.828,0
		h-17.655c-9.739,0.028-17.627,7.916-17.655,17.655v40.166c-6.268-7.945-16.948-13.683-35.31-13.683
		c-25.792,0.92-50.583,10.216-70.621,26.483c-28.553,21.562-52.555,48.564-70.621,79.448l-17.655,35.31
		c-6.62,11.388-12.517,23.181-17.655,35.31c-3.809,11.56-6.73,23.394-8.739,35.399C3.795,286.102,0,334.212,0,423.724
		C0,467.862,24.541,512,79.448,512c2.383,0,39.989,0,42.196-0.088c21.736-0.411,42.971-6.596,61.528-17.92
		c20.152-12.238,36.149-30.265,45.903-51.73C244.17,408.982,256,359.636,256,282.483c0,77.153,11.83,126.499,26.924,159.779
		c12.531,27.466,35.123,49.078,63.117,60.381c14.066,5.819,29.095,8.963,44.314,9.269C392.563,512,430.168,512,432.552,512
		C487.459,512,512,467.862,512,423.724C512,368.375,510.5,328.828,508.205,299.608z M246.465,199.15
		c0.088,0,0.088,0.088,0.088,0.177c0.177,1.236,0.442,2.472,0.619,3.708l3.443,20.921
		C249.291,215.923,247.879,207.801,246.465,199.15z"/>
	<g>
		<path style="fill:#802D40;" d="M256,282.483c0,77.153-11.83,126.499-26.924,159.779c-9.755,21.465-25.751,39.491-45.903,51.73
			C142.124,486.665,8.916,401.479,8.916,256.088c26.483,26.394,63.382,35.399,132.679,35.399
			c70.709,0,106.902-21.274,113.875-25.865C255.823,271.007,256,276.568,256,282.483z"/>
		<path style="fill:#802D40;" d="M512,423.724C512,467.862,487.459,512,432.552,512c-2.383,0-39.989,0-42.196-0.088
			c-15.219-0.306-30.248-3.45-44.314-9.269c85.363-22.952,147.774-125.087,162.164-203.034C510.5,328.828,512,368.375,512,423.724z"
			/>
		<path style="fill:#802D40;" d="M308.966,97.103c-2.341-0.001-4.587,0.929-6.243,2.585c-1.656,1.656-2.585,3.901-2.585,6.243
			c0,21.56-15.578,39.405-29.328,55.151c-5.281,5.832-10.226,11.96-14.81,18.354c-4.585-6.394-9.529-12.522-14.81-18.354
			c-13.75-15.746-29.328-33.591-29.328-55.151c0-4.875-3.952-8.828-8.828-8.828s-8.828,3.952-8.828,8.828
			c0,28.181,18.672,49.573,33.681,66.763c9.914,11.362,19.284,22.09,19.284,30.34c0,4.875,3.952,8.828,8.828,8.828
			s8.828-3.952,8.828-8.828c0-8.25,9.371-18.978,19.284-30.34c15.009-17.19,33.681-38.582,33.681-66.763
			c0.001-2.341-0.929-4.587-2.585-6.243C313.553,98.033,311.307,97.103,308.966,97.103z"/>
		<path style="fill:#802D40;" d="M282.483,57.821c-9.358,11.829-8.828,28.69-8.828,39.283c0,97.103-17.655,123.586-17.655,185.379
			c0-61.793-17.655-88.276-17.655-185.379c0-10.593,0.53-27.454-8.828-39.283V17.655C229.517,7.904,237.422,0,247.172,0h17.655
			c9.751,0,17.655,7.904,17.655,17.655V57.821z"/>
	</g>
</g>
<g>
</g>
<g>
</g>
<g>
</g>
<g>
</g>
<g>
</g>
<g>
</g>
<g>
</g>
<g>
</g>
<g>
</g>
<g>
</g>
<g>
</g>
<g>
</g>
<g>
</g>
<g>
</g>
<g>
</g>
</svg>
