<?xml version="1.0" encoding="iso-8859-1"?>
<!-- Generator: Adobe Illustrator 19.0.0, SVG Export Plug-In . SVG Version: 6.00 Build 0)  -->
<svg version="1.1" id="Capa_1" xmlns="http://www.w3.org/2000/svg" xmlns:xlink="http://www.w3.org/1999/xlink" x="0px" y="0px"
	 viewBox="0 0 512 512" style="enable-background:new 0 0 512 512;" xml:space="preserve">
<g>
	<path style="fill:#D75E72;" d="M317.793,512C406.069,512,512,414.897,512,238.345C512,105.931,406.621,0,318.345,0
		C300.69,0,285.793,8.828,256,8.828S211.31,0,193.655,0C105.379,0,0,105.931,0,238.345C0,414.897,105.931,512,194.207,512
		c17.655,0,26.483-8.828,61.793-8.828S300.138,512,317.793,512z"/>
	<path style="fill:#802F34;" d="M256,467.862c167.724,0,220.69-141.241,220.69-211.862c0-88.276-88.276-194.207-141.241-194.207
		c-35.31,0-35.31,8.828-79.448,8.828s-44.138-8.828-79.448-8.828C123.586,61.793,35.31,167.724,35.31,256
		C35.31,326.621,88.276,467.862,256,467.862z"/>
	<path style="fill:#CC4B4C;" d="M256,467.862c129.89,0,190.922-84.698,211.862-155.713v-3.183c0-17.655-35.31-35.31-105.931-35.31
		c-61.793,0-70.621,17.655-105.931,17.655s-44.138-17.655-105.931-17.655c-70.621,0-105.931,17.655-105.931,35.31v3.182
		C65.078,383.164,126.109,467.862,256,467.862z"/>
	<path style="fill:#802F34;" d="M256,344.276c-2.341,0.001-4.587-0.929-6.243-2.585c-1.656-1.656-2.585-3.901-2.585-6.243V291.31
		c0-4.875,3.952-8.828,8.828-8.828s8.828,3.952,8.828,8.828v44.138c0.001,2.341-0.929,4.587-2.585,6.243
		C260.587,343.347,258.341,344.276,256,344.276z"/>
	<path style="fill:#59474E;" d="M388.414,273.655l-1.148,0.794c-7.857-0.53-16.331-0.794-25.335-0.794
		c-61.793,0-70.621,17.655-105.931,17.655c-29.308,0-40.343-12.182-78.653-16.331c-9.064-0.906-18.169-1.348-27.278-1.324
		c-9.004,0-17.479,0.265-25.335,0.794l-1.148-0.794c0,0,9.181-50.582,34.163-78.742c8.876-11.166,22.202-17.878,36.458-18.361
		c52.966,0,17.655,70.621,61.793,70.621s8.828-70.621,61.793-70.621S388.414,273.655,388.414,273.655z"/>
	<g>
		<path style="fill:#CC4B4C;" d="M88.276,264.829c-2.341,0.001-4.587-0.929-6.243-2.585c-1.656-1.656-2.585-3.901-2.585-6.243
			c1.436-37.247,14.454-73.118,37.241-102.616c3.049-3.792,8.592-4.402,12.394-1.364c3.801,3.038,4.427,8.58,1.4,12.39
			c-20.21,26.41-31.858,58.37-33.379,91.591c0.001,2.341-0.929,4.587-2.585,6.243C92.863,263.9,90.617,264.83,88.276,264.829z"/>
		<path style="fill:#CC4B4C;" d="M423.724,264.82c-4.865-0.004-8.812-3.941-8.828-8.806c-1.581-33.213-13.222-65.16-33.379-91.604
			c-3.028-3.81-2.402-9.351,1.4-12.39s9.344-2.428,12.394,1.364c22.787,29.498,35.806,65.37,37.241,102.617
			c0.001,2.338-0.926,4.58-2.579,6.234s-3.894,2.584-6.231,2.585L423.724,264.82z"/>
	</g>
	<g>
		<path style="fill:#C2615F;" d="M176.552,238.345c4.798,4.758,7.9,10.961,8.828,17.655c-0.089,7.134-2.973,13.949-8.032,18.979
			c-9.064-0.906-18.169-1.348-27.278-1.324c-9.004,0-17.479,0.265-25.335,0.794l-1.148-0.794c0,0,9.181-50.582,34.163-78.742
			l1.148-0.706c14.264,0.839,25.644,12.219,26.483,26.483C184.452,227.383,181.35,233.587,176.552,238.345z"/>
		<path style="fill:#C2615F;" d="M335.448,238.345c-4.798,4.758-7.9,10.961-8.828,17.655c0.089,7.134,2.973,13.949,8.032,18.979
			c9.064-0.906,18.169-1.348,27.278-1.324c9.004,0,17.479,0.265,25.335,0.794l1.148-0.794c0,0-9.181-50.582-34.163-78.742
			l-1.148-0.706c-14.264,0.839-25.644,12.219-26.483,26.483C327.548,227.383,330.65,233.587,335.448,238.345z"/>
	</g>
	<path style="fill:#ECF0F1;" d="M256,70.621v15.007c0.006,3.045-1.201,5.968-3.355,8.121s-5.076,3.361-8.121,3.355h-56.496
		c-3.046,0.006-5.968-1.201-8.122-3.354c-2.154-2.153-3.361-5.076-3.355-8.122l0-23.834C211.862,61.793,211.862,70.621,256,70.621z"
		/>
	<g>
		<path style="fill:#FFFFFF;" d="M176.552,61.793l0,23.834c0.006,3.045-1.201,5.968-3.355,8.121
			c-2.153,2.153-5.076,3.361-8.121,3.355l-53.495,0C134.002,75.476,157.572,61.793,176.552,61.793z"/>
		<path style="fill:#FFFFFF;" d="M256,70.621v15.007c-0.006,3.045,1.201,5.968,3.355,8.121c2.153,2.153,5.076,3.361,8.121,3.355
			h56.497c3.045,0.006,5.968-1.201,8.121-3.355c2.153-2.153,3.361-5.076,3.355-8.121V61.793
			C300.138,61.793,300.138,70.621,256,70.621z"/>
	</g>
	<path style="fill:#ECF0F1;" d="M335.448,61.793l0,23.834c-0.006,3.045,1.201,5.968,3.355,8.121
		c2.153,2.153,5.076,3.361,8.121,3.355l53.495,0C377.998,75.476,354.428,61.793,335.448,61.793z"/>
</g>
<g>
</g>
<g>
</g>
<g>
</g>
<g>
</g>
<g>
</g>
<g>
</g>
<g>
</g>
<g>
</g>
<g>
</g>
<g>
</g>
<g>
</g>
<g>
</g>
<g>
</g>
<g>
</g>
<g>
</g>
</svg>
