<?xml version="1.0" encoding="iso-8859-1"?>
<!-- Generator: Adobe Illustrator 19.0.0, SVG Export Plug-In . SVG Version: 6.00 Build 0)  -->
<svg version="1.1" id="Capa_1" xmlns="http://www.w3.org/2000/svg" xmlns:xlink="http://www.w3.org/1999/xlink" x="0px" y="0px"
	 viewBox="0 0 512.014 512.014" style="enable-background:new 0 0 512.014 512.014;" xml:space="preserve">
<g>
	<path style="fill:#CBB292;" d="M256.007,0c-26.483,0-26.483,52.966-26.483,52.966c-5.168-10.08-15.19-16.762-26.483-17.655
		c-35.31,0,26.483,70.621,26.483,88.276s-8.828,26.483-17.655,26.483c-8.669,0-17.337-8.513-17.646-25.538
		c0.01-9.774-7.536-17.893-17.284-18.597c-18.036-0.255-17.909,17.652-35.69,17.652c-17.655,0-141.241,17.655-141.241,88.276
		c0,50.759,44.138,105.931,61.793,105.931c26.483,0,44.138-26.483,61.793-26.483c8.828,0,0-44.138,17.655-61.793
		s26.483-17.655,26.483-35.31s0-35.31,8.828-35.31c8.828,0,44.138,35.31,44.138,61.793s0,97.103-17.655,97.103
		s-8.828-17.655-8.828-26.483c-0.644-9.471-8.184-17.011-17.655-17.655c-8.828,0-26.483,8.828-26.483,44.138
		c0,31.441,48.992,34.887,78.425,53.96c16.85,10.445,38.161,10.445,55.011,0c29.433-19.074,78.425-22.519,78.425-53.96
		c0-35.31-17.655-44.138-26.483-44.138c-9.471,0.644-17.012,8.184-17.655,17.655c0,8.828,8.828,26.483-8.828,26.483
		s-17.655-70.621-17.655-97.103s35.31-61.793,44.138-61.793s8.828,17.655,8.828,35.31s8.828,17.655,26.483,35.31
		c17.655,17.655,8.828,61.793,17.655,61.793c17.655,0,35.31,26.483,61.793,26.483c17.655,0,61.793-55.172,61.793-105.931
		c0-70.621-123.586-88.276-141.241-88.276c-17.781,0-17.654-17.907-35.69-17.652c-9.748,0.704-17.295,8.823-17.284,18.597
		c-0.309,17.025-8.978,25.538-17.646,25.538c-8.828,0-17.655-8.828-17.655-26.483s61.793-88.276,26.483-88.276
		c-11.292,0.893-21.315,7.575-26.483,17.655C282.49,52.966,282.49,0,256.007,0z"/>
	<path style="fill:#D75E72;" d="M361.937,464.19c-25.423-9.04-56.496-31.638-70.62-31.638c-9.334,0.268-18.555,2.115-27.273,5.463
		c-5.188,1.912-10.887,1.912-16.075,0c-8.717-3.348-17.939-5.195-27.273-5.463c-15.007,0-49.148,25.512-75.316,33.165
		c-2.313,0.599-4.081,2.467-4.552,4.809c-0.471,2.343,0.439,4.748,2.342,6.194c32.927,23.413,72.437,35.767,112.836,35.28
		c40.399,0.487,79.91-11.867,112.836-35.28c1.903-1.446,2.812-3.851,2.341-6.194c-0.471-2.343-2.238-4.211-4.552-4.809
		C365.094,465.267,363.528,464.758,361.937,464.19"/>
</g>
<g>
</g>
<g>
</g>
<g>
</g>
<g>
</g>
<g>
</g>
<g>
</g>
<g>
</g>
<g>
</g>
<g>
</g>
<g>
</g>
<g>
</g>
<g>
</g>
<g>
</g>
<g>
</g>
<g>
</g>
</svg>
