<?xml version="1.0" encoding="iso-8859-1"?>
<!-- Generator: Adobe Illustrator 19.0.0, SVG Export Plug-In . SVG Version: 6.00 Build 0)  -->
<svg version="1.1" id="Capa_1" xmlns="http://www.w3.org/2000/svg" xmlns:xlink="http://www.w3.org/1999/xlink" x="0px" y="0px"
	 viewBox="0 0 505.762 505.762" style="enable-background:new 0 0 505.762 505.762;" xml:space="preserve">
<g>
	<path style="fill:#FDD7AD;" d="M386.093,13.89c-2.099-7.472-8.901-12.644-16.662-12.67H19.449
		C10.111,1.168,2.422,8.549,2.093,17.882c-0.781,23.951-2.69,60.399-1.909,102.4c0.087,4.426,0.174,8.938,0.347,13.451
		c0,2.69,0.087,5.467,0.26,8.244c0.347,8.678,0.781,17.616,1.388,26.641c0.347,5.727,0.781,11.455,1.388,17.269
		c0.347,3.905,0.694,7.723,1.128,11.628l0.781,7.289c0.434,3.732,0.955,7.463,1.475,11.282c0.607,5.033,1.302,10.153,2.169,15.186
		c0.781,5.033,1.649,10.153,2.603,15.186c0.103,0.788,0.247,1.57,0.434,2.343c0.868,4.252,1.736,8.504,2.603,12.757
		c1.128,5.033,2.256,9.98,3.471,15.013c1.215,5.033,2.517,9.98,3.905,14.926c1.041,3.732,2.169,7.376,3.298,11.021
		c3.471,10.847,7.376,21.435,11.715,31.761v152.905c0.028,9.574,7.782,17.328,17.356,17.356h322.039
		c8.956-0.135,16.386-6.967,17.269-15.881c3.385-31.295,17.344-60.499,39.572-82.788c0.156-0.221,0.365-0.401,0.607-0.521
		c1.302-1.388,2.603-2.69,3.992-3.905c24.269-21.957,42.901-49.428,54.324-80.098c0.955-2.517,1.822-5.12,2.69-7.723
		c1.215-3.818,2.43-7.81,3.471-11.802c1.041-3.992,1.909-8.071,2.777-12.149c0.781-3.645,1.388-7.376,1.996-11.021
		c0.087-0.347,0.087-0.694,0.174-1.041c0.434-3.384,0.868-6.769,1.215-10.24c0.26-2.777,0.521-5.467,0.607-8.244
		c0.174-1.996,0.26-3.905,0.347-5.901v-0.521c0.087-2.864,0.174-5.641,0.174-8.504C505.762,93.38,401.28,65.611,386.093,13.89z
		 M329.426,282.473c-1.151-2.916-2.485-5.756-3.992-8.504C327.028,276.673,328.364,279.52,329.426,282.473z M272.846,320.743
		l-0.087-0.087h0.087V320.743z"/>
	<g>
		<path style="fill:#CBB292;" d="M272.759,320.656l0.087,0.087v-0.087H272.759z M272.759,320.656l0.087,0.087v-0.087H272.759z
			 M325.434,273.969c1.507,2.748,2.841,5.589,3.992,8.504C328.364,279.52,327.028,276.673,325.434,273.969z M272.759,320.656
			l0.087,0.087v-0.087H272.759z M325.434,273.969c1.507,2.748,2.841,5.589,3.992,8.504
			C328.364,279.52,327.028,276.673,325.434,273.969z M272.759,320.656l0.087,0.087v-0.087H272.759z M272.759,320.656l0.087,0.087
			v-0.087H272.759z M325.434,273.969c1.507,2.748,2.841,5.589,3.992,8.504C328.364,279.52,327.028,276.673,325.434,273.969z
			 M272.759,320.656l0.087,0.087v-0.087H272.759z M325.434,273.969c1.507,2.748,2.841,5.589,3.992,8.504
			C328.364,279.52,327.028,276.673,325.434,273.969z M272.759,320.656l0.087,0.087v-0.087H272.759z M325.434,273.969
			c1.507,2.748,2.841,5.589,3.992,8.504C328.364,279.52,327.028,276.673,325.434,273.969z M272.759,320.656l0.087,0.087v-0.087
			H272.759z"/>
		<path style="fill:#CBB292;" d="M272.759,320.656l0.087,0.087v-0.087H272.759z M325.434,273.969
			c1.507,2.748,2.841,5.589,3.992,8.504C328.364,279.52,327.028,276.673,325.434,273.969z M272.759,320.656l0.087,0.087v-0.087
			H272.759z M325.434,273.969c1.507,2.748,2.841,5.589,3.992,8.504C328.364,279.52,327.028,276.673,325.434,273.969z
			 M272.846,320.743v-0.087h-0.087L272.846,320.743z M325.434,273.969c1.507,2.748,2.841,5.589,3.992,8.504
			C328.364,279.52,327.028,276.673,325.434,273.969z M272.846,320.656h-0.087l0.087,0.087V320.656z M393.036,433.557
			c-0.174,0.086-0.26,0.174-0.434,0.26c-25.403,17.604-55.527,27.131-86.433,27.336v0.087c-11.021-0.087-21.955-0.087-32.976-0.087
			c-0.554-0.01-1.105-0.068-1.649-0.174l-0.087,0.174c-20.797,4.686-42.032,7.159-63.349,7.376h-0.521
			c-1.099,0.101-2.206,0.072-3.298-0.087c-9.691-1.146-19.29-2.973-28.724-5.467h-0.087
			c-70.118-17.963-112.727-67.515-138.327-128.26v152.472c0.028,9.574,7.782,17.328,17.356,17.356h322.039
			c8.956-0.135,16.386-6.967,17.269-15.881c3.385-31.295,17.344-60.499,39.572-82.788
			C420.93,416.472,407.407,425.749,393.036,433.557z M272.759,320.656l0.087,0.087v-0.087H272.759z M325.434,273.969
			c1.507,2.748,2.841,5.589,3.992,8.504C328.364,279.52,327.028,276.673,325.434,273.969z M272.759,320.656l0.087,0.087v-0.087
			H272.759z M325.434,273.969c1.507,2.748,2.841,5.589,3.992,8.504C328.364,279.52,327.028,276.673,325.434,273.969z
			 M272.759,320.656l0.087,0.087v-0.087H272.759z M272.759,320.656l0.087,0.087v-0.087H272.759z"/>
	</g>
	<path style="fill:#D75E72;" d="M210.207,53.203c0.018-0.265,0.022-0.531,0.013-0.796c-1.089-5.903-6.78-25.153-34.22-25.153
		C154.905,28.791,137.444,44.247,133.36,65c-0.432,5.103-2.837,9.836-6.703,13.195c-8.717,7.371-13.668,18.263-13.488,29.678
		c0.002,5.44,1.095,10.824,3.212,15.835l17.009,37.314c1.987,4.362,7.134,6.288,11.496,4.301c4.362-1.987,6.288-7.134,4.301-11.496
		l-16.911-37.089c-1.164-2.81-1.759-5.823-1.75-8.864c-0.194-6.162,2.377-12.088,7.008-16.157
		c7.43-6.235,12.122-15.131,13.072-24.784C153.599,54.931,163.714,46.04,176,44.61c9.841,0,15.521,3.588,17.009,10.574v19.799
		c0,4.793,3.885,8.678,8.678,8.678c4.793,0,8.678-3.885,8.678-8.678v-21C210.364,53.707,210.232,53.473,210.207,53.203z"/>
	<path style="fill:#FFFFFF;" d="M210.712,53.288c-26.034,0-43.39,17.356-43.39,34.712c0,8.678,8.678,17.356,26.034,17.356
		c18.621-1.266,33.446-16.09,34.712-34.712C227.435,61.333,220.022,53.921,210.712,53.288z"/>
	<path style="fill:#D75E72;" d="M367.349,445.792c8.618-3.554,17.047-7.552,25.253-11.976
		c-25.403,17.604-55.527,27.131-86.433,27.336c-5.084-9.286-9.157-19.09-12.149-29.245c-2.663-10.247-1.586-21.108,3.037-30.633
		c0.087-0.087,0.087-0.26,0.174-0.347l0.26-0.521c8.678-17.356,34.712-43.39,34.712-104.136c-0.029-1.654-0.145-3.305-0.347-4.946
		c-0.071-0.164-0.101-0.343-0.087-0.521c-0.174-0.694-0.26-1.302-0.434-1.996c-0.016-0.268-0.075-0.531-0.174-0.781
		c-0.174-0.607-0.26-1.128-0.434-1.736c-0.076-0.359-0.193-0.708-0.347-1.041c-0.26-0.955-0.607-1.822-0.955-2.777
		c-1.062-2.953-2.399-5.801-3.992-8.504v-0.087c4.426-16.315,15.447-26.207,15.447-47.035c0-26.034-26.034-43.39-26.034-69.424
		c0-34.712,8.678-60.746,52.068-60.746c34.712,0,34.712,60.746,34.712,69.424c0,8.678,26.034,26.034,26.034,78.102
		c0,46.774-36.1,88.515-52.588,105.09c-5.24,5.249-8.175,12.369-8.157,19.786v0.955c-0.071,7.698-3.229,15.044-8.765,20.393
		c-10.272,9.264-16.477,22.204-17.269,36.014c0.019,1.715,0.164,3.426,0.434,5.12c0.998,5.686,4.528,10.609,9.594,13.378
		C355.974,447.708,362.024,448.022,367.349,445.792z"/>
	<path style="fill:#FB7B76;" d="M332.203,296.271c0,60.746-26.034,86.78-34.712,104.136l-0.26,0.521
		c-0.087,0.087-0.087,0.26-0.174,0.347c-0.781,1.475-1.649,3.124-2.603,4.86c-0.107,0.099-0.195,0.217-0.26,0.347
		c-0.434,0.868-1.041,1.736-1.562,2.69c-0.521,0.868-1.128,1.822-1.649,2.776c-0.087,0.087-0.174,0.26-0.26,0.347
		c-4.946,8.244-11.108,17.877-16.314,27.249c-0.347,0.607-0.694,1.128-0.955,1.649c-0.283,0.435-0.516,0.901-0.694,1.388
		c-0.235,0.327-0.438,0.676-0.607,1.041c-0.087,0.174-0.174,0.26-0.26,0.434c-0.347,0.781-0.781,1.475-1.128,2.169
		c-1.128,2.256-2.169,4.426-3.124,6.508c-0.975,1.566-1.086,3.52-0.297,5.188c0.79,1.667,2.373,2.819,4.202,3.057l-0.087,0.174
		c-20.797,4.686-42.032,7.159-63.349,7.376c6.438-0.606,11.998-4.759,14.405-10.761c11.628-28.117,52.328-74.717,57.101-111.252
		c0.343-2.269,0.517-4.561,0.521-6.856c0-0.955-0.087-1.909-0.174-2.777c0.005-0.589-0.083-1.174-0.26-1.736
		c0.008-0.206-0.021-0.412-0.087-0.607c-0.087-0.521-0.26-1.128-0.347-1.736c-0.192-0.764-0.424-1.517-0.694-2.256
		c-0.166-0.478-0.369-0.942-0.607-1.388c-0.191-0.773-0.514-1.507-0.955-2.169c-0.347-0.694-0.781-1.388-1.215-2.083
		c0-0.087,0-0.087-0.087-0.174v-0.087c-0.288-0.483-0.607-0.946-0.955-1.388c-0.124-0.217-0.269-0.42-0.434-0.607v-0.087
		c-0.293-0.475-0.643-0.912-1.041-1.302c-0.118-0.194-0.264-0.37-0.434-0.521v-0.087h-0.087v-0.087h-0.087v-0.087
		c-0.521-0.694-1.128-1.388-1.736-2.083l-0.26-0.26c-1.144-1.317-2.424-2.51-3.818-3.558c-1.128-0.955-2.256-1.822-3.471-2.777
		c-1.215-0.868-2.517-1.736-3.818-2.603c-1.084-0.835-2.246-1.561-3.471-2.169c-0.694-0.434-1.388-0.868-2.083-1.215
		c-0.434-0.26-0.781-0.434-1.215-0.694c-1.555-0.958-3.18-1.799-4.86-2.517c-0.868-0.434-1.736-0.955-2.603-1.388
		c-7.029-3.384-14.753-6.595-22.997-9.806c-2.083-0.781-4.079-1.562-6.161-2.343c-3.992-1.475-8.07-3.037-12.149-4.513
		c-2.69-1.041-5.38-1.996-8.071-3.037c-5.12-1.909-10.327-3.818-15.447-5.901c-1.302-0.521-2.69-1.041-3.992-1.562
		c-1.736-0.694-3.471-1.475-5.12-2.169c-2.256-0.955-4.425-1.909-6.682-2.864c-14.476-6.04-28.054-14.041-40.353-23.778
		c-0.955-0.781-1.909-1.562-2.864-2.43c-4.71-4.204-8.905-8.952-12.496-14.145c-0.694-1.041-1.388-2.083-1.996-3.124
		c-3.554-5.81-6.106-12.176-7.55-18.831l-0.521-2.603c-0.106-0.456-0.164-0.921-0.174-1.388c-0.347-1.909-0.607-3.992-0.781-5.988
		c0-1.562-0.087-3.037-0.087-4.599c-0.585-13.98,4.712-27.567,14.607-37.461c9.894-9.894,23.481-15.192,37.461-14.607
		c37.402,0,68.209,26.294,86.433,46.514c12.554,14.22,26.706,26.945,42.175,37.923c18.788,13.134,34.727,29.929,46.861,49.378v0.087
		c1.507,2.748,2.841,5.589,3.992,8.504c0.347,0.955,0.694,1.822,0.955,2.777c0.154,0.333,0.271,0.682,0.347,1.041
		c0.174,0.607,0.26,1.128,0.434,1.736c0.099,0.25,0.157,0.513,0.174,0.781c0.174,0.694,0.26,1.302,0.434,1.996
		c-0.014,0.178,0.016,0.357,0.087,0.521C332.058,292.966,332.174,294.617,332.203,296.271z"/>
	<g>
		<path style="fill:#D75E72;" d="M149.966,174.78c-4.76-0.592-9.527,1.045-12.919,4.437c-3.392,3.392-5.029,8.159-4.437,12.919
			c0,26.864,34.721,41.788,83.771,59.949c29.606,10.966,61.742,22.856,80.983,43.475c-1.729-7.373-17.373-27.5-38.894-42.754
			c-17.527-12.506-33.606-26.926-47.941-42.992C198.779,196.729,175.288,174.78,149.966,174.78z"/>
		<path style="fill:#D75E72;" d="M280.135,339.661c-0.004,2.295-0.178,4.586-0.521,6.856c-2.603,16.575-16.835,36.534-77.581,36.534
			c-69.424,0-104.136-34.712-104.136-60.746c0-17.356,17.356-26.034,86.78-26.034c51.807,0,76.887,11.455,87.995,24.212l0.087,0.087
			v0.087l0.087,0.087c0.17,0.151,0.316,0.327,0.434,0.521c0.293,0.475,0.642,0.912,1.041,1.302v0.087
			c0.165,0.187,0.31,0.391,0.434,0.607c0.347,0.442,0.666,0.906,0.955,1.388v0.087c0.087,0.087,0.087,0.087,0.087,0.174
			c0.434,0.694,0.868,1.388,1.215,2.083c0.37,0.699,0.689,1.424,0.955,2.169c0.51,1.186,0.945,2.404,1.302,3.645
			c0.087,0.607,0.26,1.215,0.347,1.736c0.066,0.196,0.095,0.401,0.087,0.607c0.177,0.561,0.265,1.147,0.26,1.736
			C280.048,337.752,280.135,338.706,280.135,339.661z"/>
	</g>
	<g>
		<path style="fill:#802D40;" d="M279.615,346.517c-4.773,36.534-45.473,83.135-57.101,111.252
			c-2.407,6.002-7.967,10.155-14.405,10.761h-0.521c-1.099,0.101-2.206,0.072-3.298-0.087c-9.691-1.146-19.29-2.973-28.724-5.467
			l0.434-1.822c0-26.034,8.678-60.746,26.034-78.102C262.779,383.051,277.011,363.091,279.615,346.517z"/>
		<path style="fill:#802D40;" d="M306.169,461.152v0.087c-11.021-0.087-21.955-0.087-32.976-0.087
			c-0.554-0.01-1.105-0.068-1.649-0.174c-1.829-0.238-3.412-1.389-4.202-3.057s-0.678-3.621,0.297-5.188
			c0.955-2.083,1.996-4.252,3.124-6.508c0.347-0.694,0.781-1.388,1.128-2.169c0.087-0.174,0.174-0.26,0.26-0.434
			c0.169-0.365,0.373-0.714,0.607-1.041c0.178-0.487,0.411-0.953,0.694-1.388c0.26-0.521,0.607-1.041,0.955-1.649
			c5.207-9.372,11.368-19.005,16.314-27.249c0.087-0.087,0.174-0.26,0.26-0.347c0.521-0.955,1.128-1.909,1.649-2.777
			c0.521-0.955,1.128-1.822,1.562-2.69c0.065-0.131,0.153-0.248,0.26-0.347c0.955-1.736,1.822-3.384,2.603-4.86
			c-4.623,9.525-5.7,20.386-3.037,30.633C297.012,442.063,301.085,451.867,306.169,461.152z"/>
		<path style="fill:#802D40;" d="M208.525,354.288c-21.658-0.853-42.91-6.143-62.441-15.542c-4.276-2.148-6.008-7.352-3.87-11.633
			c2.138-4.281,7.338-6.025,11.624-3.897c0.487,0.237,48.657,23.873,79.025,8.682c4.285-2.13,9.486-0.39,11.626,3.89
			c2.14,4.28,0.412,9.485-3.863,11.635C230.604,352.173,219.613,354.523,208.525,354.288z"/>
	</g>
</g>
<g>
</g>
<g>
</g>
<g>
</g>
<g>
</g>
<g>
</g>
<g>
</g>
<g>
</g>
<g>
</g>
<g>
</g>
<g>
</g>
<g>
</g>
<g>
</g>
<g>
</g>
<g>
</g>
<g>
</g>
</svg>
