<?xml version="1.0" encoding="iso-8859-1"?>
<!-- Generator: Adobe Illustrator 19.0.0, SVG Export Plug-In . SVG Version: 6.00 Build 0)  -->
<svg version="1.1" id="Capa_1" xmlns="http://www.w3.org/2000/svg" xmlns:xlink="http://www.w3.org/1999/xlink" x="0px" y="0px"
	 viewBox="0 0 512 512" style="enable-background:new 0 0 512 512;" xml:space="preserve">
<g>
	<path style="fill:#CBB292;" d="M436.944,168.102c0.012,17.382,0.839,24.581,0,34.933c0,133.589-23.192,202.687-26.169,290.588
		c-0.173,4.803,1.611,9.471,4.943,12.935c3.332,3.464,7.927,5.428,12.733,5.443h50.479c5.028,0.004,9.819-2.138,13.169-5.888
		c3.35-3.749,4.942-8.75,4.375-13.746c-4.764-41.871-15.392-138.35-15.392-165.746c0.07-8.713,0.994-17.398,2.758-25.931
		c10.468-55.232,15.458-111.362,14.897-167.575V26.483C498.737,11.857,486.881,0,472.255,0H60.862
		c-8.52-0.019-16.527,4.066-21.514,10.974C26.62,28.843,17.725,49.15,13.22,70.621c0,8.828,0,17.655,17.655,17.655
		c7.294-1.042,14.652,1.411,19.862,6.621c5.21,5.21,7.663,12.568,6.621,19.862c0,17.655-26.483,35.31-26.483,61.793
		c0,8.828,0,26.483,17.655,26.483s26.483-26.483,26.483-35.31c0-17.655,17.655-26.483,61.793-26.483
		c176.552,0,167.724,123.586,220.69,123.586c8.828,0,17.655-8.828,17.655-26.483c0-26.483-26.483-35.31-26.483-70.621
		c-0.717-12.148,3.893-24.007,12.627-32.481c8.734-8.474,20.726-12.724,32.847-11.641
		C418.099,124.415,437.064,144.132,436.944,168.102z"/>
	<path style="fill:#CBB292;" d="M331.013,512h-91.008c-7.899,0.032-14.843-5.224-16.958-12.834
		c-4.313-15.676-17.77-40.131-59.759-40.131c-35.31,0-52.966-17.655-88.276-17.655c-26.483,0-44.138-8.828-44.138-44.138
		c0-17.655,17.655-35.31,17.655-61.793c0-17.655-17.655-17.655-17.655-35.31c0-17.655,8.828-17.655,17.655-17.655
		c17.655,0,26.483,8.828,26.483,17.655c0,8.828,8.828,17.655,26.483,17.655s26.483,0,26.483-8.828s-26.483-26.483-26.483-35.31
		c0-17.655,70.621-26.483,114.759-26.483c52.965,0,105.931,44.138,105.931,79.448c-0.181,16.42,8.895,31.544,23.47,39.11
		c6.704,3.712,10.254,11.319,8.795,18.842c-3.381,15.784-5.316,31.844-5.782,47.979v61.793C348.668,504.096,340.764,512,331.013,512
		z"/>
</g>
<g>
</g>
<g>
</g>
<g>
</g>
<g>
</g>
<g>
</g>
<g>
</g>
<g>
</g>
<g>
</g>
<g>
</g>
<g>
</g>
<g>
</g>
<g>
</g>
<g>
</g>
<g>
</g>
<g>
</g>
</svg>
