<?xml version="1.0" encoding="iso-8859-1"?>
<!-- Generator: Adobe Illustrator 19.0.0, SVG Export Plug-In . SVG Version: 6.00 Build 0)  -->
<svg version="1.1" id="Capa_1" xmlns="http://www.w3.org/2000/svg" xmlns:xlink="http://www.w3.org/1999/xlink" x="0px" y="0px"
	 viewBox="0 0 511.483 511.483" style="enable-background:new 0 0 511.483 511.483;" xml:space="preserve">
<g>
	<path style="fill:#CBB292;" d="M18.568,142.476l139.545-7.357c3.391-0.179,6.771,0.527,9.807,2.048l5.953,2.982
		c4.654,2.331,10.045,2.715,14.983,1.066l16.05-5.359c2.001-0.668,4.097-1.009,6.207-1.009h11.092
		c7.514-0.003,14.221-4.71,16.781-11.774l29.098-68.956c3.063-7.259,10.176-11.978,18.055-11.978h20.367
		c10.823,0,19.597,8.774,19.597,19.597v34.82c0,4.755-1.728,9.347-4.863,12.922l-9.359,10.672c-3.143,3.149-4.435,7.7-3.414,12.031
		c1.021,4.331,4.208,7.826,8.427,9.24c4.313,1.463,9.079,0.503,12.488-2.516c13.866-12.366,33.071-34.972,67.342-34.972
		c35.712,0,44.138,35.079,44.138,52.966c0,24.573-18.204,38.028-35.165,44.994c-9.96,4.073-14.798,15.393-10.86,25.407l7.594,19.015
		c1.255,3.143,3.303,5.908,5.945,8.025l34.473,27.625c3.939,3.157,6.509,7.712,7.172,12.717l5.229,39.433
		c0.541,4.079,2.352,7.885,5.177,10.877l32.626,34.56c7.531,7.978,12.803,17.817,15.273,28.506l1.572,6.802
		c1.054,4.562,1.587,9.23,1.587,13.912v14.091c0,8.855-4.425,17.123-11.793,22.035c-8.896,5.93-20.484,5.93-29.38,0l-4.232-2.822
		c-4.9-3.267-8.572-8.073-10.434-13.66l-12.714-38.143c-1.367-4.1-3.475-7.915-6.219-11.254l-33.404-40.643
		c-4.848-5.464-12.333-7.777-19.419-6.003l-8.916,2.233c-8.918,2.233-18.189-2.032-22.295-10.258l-15.956-31.965
		c-2.325-4.663-7.087-7.611-12.298-7.613h-0.049c-5.626-0.002-10.682-3.432-12.766-8.658l-11.987-24.455
		c-1.228-3.075,2.005-6.842,6.028-10.106c7.26-5.745,11.534-14.465,11.628-23.723v-1.482c0-11.114-5.233-21.58-14.124-28.248
		c-12.555-9.416-29.818-9.416-42.372,0c-8.891,6.669-14.124,17.134-14.124,28.248v35.31c0,26.483-44.138,44.138-70.651,44.138
		H28.461c-7.006,0-13.479-3.74-16.978-9.809l-6.347-11.008c-2.629-4.534-3.32-9.936-1.916-14.985
		c4.577-15.213,7.358-30.91,8.288-46.77c-0.916-22.385-4.551-44.575-10.826-66.081c-1.55-5.712-0.431-11.818,3.044-16.61
		S12.657,142.778,18.568,142.476z"/>
	<g>
		<path style="fill:#7F6E5D;" d="M381.096,202.048c7.781,3.559,16.733,3.52,24.482-0.108l0.119-0.049
			c16.961-6.967,35.165-20.421,35.165-44.994c0-17.887-8.426-52.966-44.138-52.966c-14.739-0.013-29.134,4.458-41.271,12.82
			c-7.387,5.029-11.774,13.415-11.694,22.351v27.492c0,10.287,5.812,19.691,15.013,24.291L381.096,202.048z"/>
		<path style="fill:#7F6E5D;" d="M208.124,196.57l17.856-10.203c11.854-6.774,16.903-21.249,11.832-33.925l-7.841-19.601
			c-2.399,1.259-5.057,1.946-7.766,2.006h-11.094c-2.109,0-4.205,0.341-6.205,1.009c-8,2.671-15.517,6.612-22.264,11.673
			l-4.517,3.388c-11.219,8.415-14.262,23.948-7.047,35.974C178.738,199.655,195.197,203.957,208.124,196.57z"/>
		<path style="fill:#7F6E5D;" d="M161.151,280.759c-21.804,2.017-19.468,35.034,2.429,35.034h12.425
			c10.612-0.26,21.109-2.256,31.076-5.91c6.922-2.493,11.053-9.599,9.792-16.848c-1.261-7.249-7.548-12.543-14.906-12.552h-34.76
			C165.134,280.483,163.116,280.575,161.151,280.759z"/>
	</g>
</g>
<g>
</g>
<g>
</g>
<g>
</g>
<g>
</g>
<g>
</g>
<g>
</g>
<g>
</g>
<g>
</g>
<g>
</g>
<g>
</g>
<g>
</g>
<g>
</g>
<g>
</g>
<g>
</g>
<g>
</g>
</svg>
