<?xml version="1.0" encoding="iso-8859-1"?>
<!-- Generator: Adobe Illustrator 19.0.0, SVG Export Plug-In . SVG Version: 6.00 Build 0)  -->
<svg version="1.1" id="Layer_1" xmlns="http://www.w3.org/2000/svg" xmlns:xlink="http://www.w3.org/1999/xlink" x="0px" y="0px"
	 viewBox="0 0 512 512" style="enable-background:new 0 0 512 512;" xml:space="preserve">
<g>
	<path style="fill:#514439;" d="M361.931,256H291.31c-9.71,0-17.655-7.945-17.655-17.655v-52.966c0-9.71,7.945-17.655,17.655-17.655
		h70.621c9.71,0,17.655,7.945,17.655,17.655v52.966C379.586,248.055,371.641,256,361.931,256"/>
	<path style="fill:#514439;" d="M185.379,0c-6.179,0-12.359,0.883-17.655,2.648c-21.186,7.062-35.31,28.248-35.31,50.317v8.828
		h105.931v-8.828c0-20.303-11.476-40.607-30.897-48.552C200.386,1.766,193.324,0,185.379,0"/>
</g>
<path style="fill:#E0E0E0;" d="M291.31,97.103H220.69c-9.71,0-17.655-7.945-17.655-17.655V61.793h-35.31v17.655
	c0,29.131,23.834,52.966,52.966,52.966h70.621c9.71,0,17.655,7.945,17.655,17.655v17.655h35.31v-17.655
	C344.276,120.938,320.441,97.103,291.31,97.103"/>
<path style="fill:#514439;" d="M220.69,379.586l-35.31,26.483l-35.31-26.483v-26.483h70.621V379.586z"/>
<g>
	<path style="fill:#E0E0E0;" d="M308.966,256v17.655c0,9.71-7.945,17.655-17.655,17.655H220.69
		c-29.131,0-52.966,23.835-52.966,52.966v8.828h35.31v-8.828c0-9.71,7.945-17.655,17.655-17.655h70.621
		c29.131,0,52.966-23.835,52.966-52.966V256H308.966z"/>
	<path style="fill:#E0E0E0;" d="M185.379,406.069l-17.655-13.241v101.517L185.379,512l17.655-17.655V392.828L185.379,406.069z"/>
</g>
<g>
</g>
<g>
</g>
<g>
</g>
<g>
</g>
<g>
</g>
<g>
</g>
<g>
</g>
<g>
</g>
<g>
</g>
<g>
</g>
<g>
</g>
<g>
</g>
<g>
</g>
<g>
</g>
<g>
</g>
</svg>
