<?xml version="1.0" encoding="iso-8859-1"?>
<!-- Generator: Adobe Illustrator 19.0.0, SVG Export Plug-In . SVG Version: 6.00 Build 0)  -->
<svg version="1.1" id="Layer_1" xmlns="http://www.w3.org/2000/svg" xmlns:xlink="http://www.w3.org/1999/xlink" x="0px" y="0px"
	 viewBox="0 0 512 512" style="enable-background:new 0 0 512 512;" xml:space="preserve">
<path style="fill:#E15649;" d="M8.828,512h123.586v-70.621H8.828V512z"/>
<path style="fill:#BC342E;" d="M132.414,512H256v-70.621H132.414V512z"/>
<path style="fill:#A52525;" d="M256,512h123.586v-70.621H256V512z"/>
<path style="fill:#E15649;" d="M379.586,512h123.586v-70.621H379.586V512z"/>
<path style="fill:#BC342E;" d="M8.828,441.379h61.793v-70.621H8.828V441.379z"/>
<g>
	<path style="fill:#A52525;" d="M441.379,441.379h61.793v-70.621h-61.793V441.379z"/>
	<path style="fill:#A52525;" d="M70.621,441.379h123.586v-70.621H70.621V441.379z"/>
</g>
<path style="fill:#E15649;" d="M194.207,441.379h123.586v-70.621H194.207V441.379z"/>
<path style="fill:#BC342E;" d="M317.793,441.379h123.586v-70.621H317.793V441.379z"/>
<path style="fill:#E15649;" d="M8.828,370.759h123.586v-70.621H8.828V370.759z"/>
<path style="fill:#BC342E;" d="M132.414,370.759H256v-70.621H132.414V370.759z"/>
<path style="fill:#A52525;" d="M256,370.759h123.586v-70.621H256V370.759z"/>
<path style="fill:#E15649;" d="M379.586,370.759h123.586v-70.621H379.586V370.759z"/>
<path style="fill:#BC342E;" d="M8.828,300.138h61.793v-70.621H8.828V300.138z"/>
<g>
	<path style="fill:#A52525;" d="M441.379,300.138h61.793v-70.621h-61.793V300.138z"/>
	<path style="fill:#A52525;" d="M70.621,300.138h123.586v-70.621H70.621V300.138z"/>
</g>
<path style="fill:#E15649;" d="M194.207,300.138h123.586v-70.621H194.207V300.138z"/>
<path style="fill:#BC342E;" d="M317.793,300.138h123.586v-70.621H317.793V300.138z"/>
<path style="fill:#E15649;" d="M8.828,229.517h123.586v-70.621H8.828V229.517z"/>
<path style="fill:#BC342E;" d="M132.414,229.517H256v-70.621H132.414V229.517z"/>
<path style="fill:#A52525;" d="M256,229.517h123.586v-70.621H256V229.517z"/>
<path style="fill:#BC342E;" d="M8.828,158.897h61.793V88.276H8.828V158.897z"/>
<path style="fill:#A52525;" d="M70.621,158.897h123.586V88.276H70.621V158.897z"/>
<path style="fill:#C17C3E;" d="M361.931,512c19.421,0,35.31-15.89,35.31-35.31V361.931c0-5.297-0.883-11.476-3.531-16.772l0,0
	c-8.828-28.248-7.062-52.966,2.648-71.503l0,0l7.062-18.538c5.297-12.359-4.414-25.6-17.655-25.6h-67.972
	c-13.241,0-22.952,13.241-17.655,26.483l7.062,17.655l0,0c10.593,18.538,11.476,41.49,2.648,71.503l0,0
	c0,5.297-0.883,10.593-0.883,16.772V476.69c0,19.421,15.89,35.31,35.31,35.31H361.931z"/>
<path style="fill:#E0E0E0;" d="M388.414,229.517h-70.621l-24.717-43.255c-7.062-12.359-12.359-24.717-16.772-38.841
	c-7.062-22.069-10.593-45.021-10.593-67.972V0h176.552v80.331c0,22.952-3.531,45.903-10.593,67.972
	c-4.414,13.241-10.593,26.483-16.772,38.841L388.414,229.517z"/>
<g>
	<path style="fill:#9E5A23;" d="M335.448,406.069h-26.483v17.655h26.483c5.297,0,8.828-3.531,8.828-8.828
		S340.745,406.069,335.448,406.069"/>
	<path style="fill:#9E5A23;" d="M335.448,441.379h-26.483v17.655h26.483c5.297,0,8.828-3.531,8.828-8.828
		C344.276,444.91,340.745,441.379,335.448,441.379"/>
</g>
<g>
</g>
<g>
</g>
<g>
</g>
<g>
</g>
<g>
</g>
<g>
</g>
<g>
</g>
<g>
</g>
<g>
</g>
<g>
</g>
<g>
</g>
<g>
</g>
<g>
</g>
<g>
</g>
<g>
</g>
</svg>
