<?xml version="1.0" encoding="iso-8859-1"?>
<!-- Generator: Adobe Illustrator 19.0.0, SVG Export Plug-In . SVG Version: 6.00 Build 0)  -->
<svg version="1.1" id="Layer_1" xmlns="http://www.w3.org/2000/svg" xmlns:xlink="http://www.w3.org/1999/xlink" x="0px" y="0px"
	 viewBox="0 0 511.551 511.551" style="enable-background:new 0 0 511.551 511.551;" xml:space="preserve">
<g>
	<path style="fill:#A3AAAF;" d="M261.389,15.27L70.961,205.698L7.186,141.923L127.551,21.558L249.712,0L261.389,15.27z"/>
	<path style="fill:#A3AAAF;" d="M286.54,40.421L96.112,230.849l63.775,63.775L280.253,174.26l14.372-120.365L286.54,40.421z"/>
</g>
<path style="fill:#CE8D5B;" d="M355.705,314.386L307.2,362.891c-9.881,9.881-6.288,26.049,6.288,31.439l17.965,8.084l0,0
	c24.253,7.186,58.386,43.116,75.453,69.165c6.288,9.881,12.575,18.863,21.558,27.846l0,0c16.168,16.168,43.116,16.168,60.182,0
	l1.797-1.797l1.796-1.796c16.168-16.168,16.168-43.116,0-60.182l0,0c-8.084-8.084-17.965-14.372-27.846-20.66
	c-26.049-17.067-61.979-51.2-69.165-75.453l0,0l-8.084-17.965C381.754,308.098,365.586,304.505,355.705,314.386"/>
<g>
	<path style="fill:#E0E0E0;" d="M172.463,154.498l-25.151-25.151l-25.151,25.151l25.151,25.151L172.463,154.498z"/>
	<path style="fill:#E0E0E0;" d="M210.189,243.425l107.789,107.789l25.151-25.151L235.34,218.274L210.189,243.425z"/>
</g>
<g>
	<path style="fill:#9E5A23;" d="M458.105,478.765c-3.593-3.593-8.982-3.593-12.575,0l-18.863,18.863l0,0
		c0.898,0.898,0.898,0.898,1.797,1.797l0,0c3.593,3.593,8.084,7.186,13.474,8.982l17.067-17.067
		C461.698,487.747,461.698,482.358,458.105,478.765"/>
	<path style="fill:#9E5A23;" d="M420.379,453.614l-12.575,12.575c-0.898,0.898-1.797,1.797-1.797,3.593
		c0.898,0.898,0.898,1.796,1.797,2.695c1.796,2.695,4.491,6.288,6.288,8.982c0,0,0,0,0.898,0c2.695,0,4.491-0.898,6.288-2.695
		l12.575-12.575c3.593-3.593,3.593-8.982,0-12.575S423.972,450.021,420.379,453.614"/>
</g>
<g>
</g>
<g>
</g>
<g>
</g>
<g>
</g>
<g>
</g>
<g>
</g>
<g>
</g>
<g>
</g>
<g>
</g>
<g>
</g>
<g>
</g>
<g>
</g>
<g>
</g>
<g>
</g>
<g>
</g>
</svg>
