<?xml version="1.0" encoding="iso-8859-1"?>
<!-- Generator: Adobe Illustrator 19.0.0, SVG Export Plug-In . SVG Version: 6.00 Build 0)  -->
<svg version="1.1" id="Layer_1" xmlns="http://www.w3.org/2000/svg" xmlns:xlink="http://www.w3.org/1999/xlink" x="0px" y="0px"
	 viewBox="0 0 512 512" style="enable-background:new 0 0 512 512;" xml:space="preserve">
<g>
	<path style="fill:#E8EDEE;" d="M155.429,164.571c0-12.8,2.743-25.6,7.314-36.571h-89.6C32.914,128,0,160.914,0,201.143v256h73.143
		V227.657c0-14.629,12.8-26.514,27.429-26.514h62.171C158.171,190.171,155.429,177.371,155.429,164.571"/>
	<path style="fill:#E8EDEE;" d="M438.857,128h-89.6c4.571,10.971,7.314,23.771,7.314,36.571c0,12.8-2.743,25.6-7.314,36.571h62.171
		c14.629,0,27.429,12.8,27.429,27.429v228.571H512v-256C512,160.914,479.086,128,438.857,128"/>
</g>
<g>
	<path style="fill:#E15649;" d="M276.114,155.429c-1.829,0-4.571-0.914-6.4-2.743c-3.657-3.657-3.657-9.143,0-12.8l51.2-53.029
		c3.657-3.657,9.143-3.657,12.8,0s3.657,9.143,0,12.8l-51.2,53.029C280.686,154.514,278.857,155.429,276.114,155.429"/>
	<path style="fill:#E15649;" d="M256,146.286c-10.057,0-18.286,8.229-18.286,18.286c0,10.057,8.229,18.286,18.286,18.286
		c10.057,0,18.286-8.229,18.286-18.286C274.286,154.514,266.057,146.286,256,146.286 M256,201.143
		c-20.114,0-36.571-16.457-36.571-36.571S235.886,128,256,128c20.114,0,36.571,16.457,36.571,36.571S276.114,201.143,256,201.143"/>
	<path style="fill:#E15649;" d="M256,73.143c-50.286,0-91.429,41.143-91.429,91.429S205.714,256,256,256
		s91.429-41.143,91.429-91.429S306.286,73.143,256,73.143 M256,274.286c-60.343,0-109.714-49.371-109.714-109.714
		S195.657,54.857,256,54.857s109.714,49.371,109.714,109.714S316.343,274.286,256,274.286"/>
	<path style="fill:#E15649;" d="M235.886,155.429c-2.743,0-4.571-0.914-6.4-2.743l-51.2-53.029c-3.657-3.657-3.657-9.143,0-12.8
		c3.657-3.657,9.143-3.657,12.8,0l51.2,53.029c3.657,3.657,3.657,9.143,0,12.8C240.457,154.514,237.714,155.429,235.886,155.429"/>
	<path style="fill:#E15649;" d="M327.314,245.029c-2.743,0-4.571-0.914-6.4-2.743L268.8,190.171c-3.657-3.657-3.657-9.143,0-12.8
		s9.143-3.657,12.8,0l52.114,52.114c3.657,3.657,3.657,9.143,0,12.8C331.886,244.114,329.143,245.029,327.314,245.029"/>
	<path style="fill:#E15649;" d="M184.686,245.029c-2.743,0-4.571-0.914-6.4-2.743c-3.657-3.657-3.657-9.143,0-12.8l52.114-52.114
		c3.657-3.657,9.143-3.657,12.8,0s3.657,9.143,0,12.8l-52.114,52.114C189.257,244.114,187.429,245.029,184.686,245.029"/>
</g>
<g>
</g>
<g>
</g>
<g>
</g>
<g>
</g>
<g>
</g>
<g>
</g>
<g>
</g>
<g>
</g>
<g>
</g>
<g>
</g>
<g>
</g>
<g>
</g>
<g>
</g>
<g>
</g>
<g>
</g>
</svg>
