<?xml version="1.0" encoding="iso-8859-1"?>
<!-- Generator: Adobe Illustrator 19.0.0, SVG Export Plug-In . SVG Version: 6.00 Build 0)  -->
<svg version="1.1" id="Layer_1" xmlns="http://www.w3.org/2000/svg" xmlns:xlink="http://www.w3.org/1999/xlink" x="0px" y="0px"
	 viewBox="0 0 512 512" style="enable-background:new 0 0 512 512;" xml:space="preserve">
<g>
	<path style="fill:#6D350F;" d="M41.49,282.483h353.103v-70.621H41.49V282.483z"/>
	<path style="fill:#6D350F;" d="M41.49,132.414h353.103V61.793H41.49V132.414z"/>
	<path style="fill:#6D350F;" d="M386.648,481.103l-348.69-58.262l11.476-69.738l348.69,59.145L386.648,481.103z"/>
</g>
<g>
	<path style="fill:#9E5A23;" d="M120.938,247.172c0,5.297-3.531,8.828-8.828,8.828s-8.828-3.531-8.828-8.828
		s3.531-8.828,8.828-8.828S120.938,241.876,120.938,247.172"/>
	<path style="fill:#9E5A23;" d="M120.938,97.103c0,5.297-3.531,8.828-8.828,8.828s-8.828-3.531-8.828-8.828s3.531-8.828,8.828-8.828
		S120.938,91.807,120.938,97.103"/>
	<path style="fill:#9E5A23;" d="M332.8,97.103c0,5.297-3.531,8.828-8.828,8.828s-8.828-3.531-8.828-8.828s3.531-8.828,8.828-8.828
		S332.8,91.807,332.8,97.103"/>
	<path style="fill:#9E5A23;" d="M332.8,247.172c0,5.297-3.531,8.828-8.828,8.828s-8.828-3.531-8.828-8.828s3.531-8.828,8.828-8.828
		S332.8,241.876,332.8,247.172"/>
	<path style="fill:#9E5A23;" d="M120.938,397.241c0,5.297-3.531,8.828-8.828,8.828s-8.828-3.531-8.828-8.828
		c0-5.297,3.531-8.828,8.828-8.828S120.938,391.945,120.938,397.241"/>
	<path style="fill:#9E5A23;" d="M332.8,434.317c0,5.297-3.531,8.828-8.828,8.828s-8.828-3.531-8.828-8.828
		c0-5.297,3.531-8.828,8.828-8.828S332.8,429.903,332.8,434.317"/>
	<path style="fill:#9E5A23;" d="M288.662,464.331V512h70.621v-36.193L288.662,464.331z"/>
	<path style="fill:#9E5A23;" d="M76.8,429.021V512h70.621v-70.621L76.8,429.021z"/>
	<path style="fill:#9E5A23;" d="M76.8,282.483v75.034l70.621,11.476v-86.51H76.8z"/>
	<path style="fill:#9E5A23;" d="M288.662,282.483v44.138l17.655,8.828l17.655-17.655l17.655,17.655l17.655-8.828v-44.138H288.662z"
		/>
	<path style="fill:#9E5A23;" d="M76.8,61.793h70.621V0H76.8V61.793z"/>
	<path style="fill:#9E5A23;" d="M76.8,211.862h70.621v-79.448H76.8V211.862z"/>
	<path style="fill:#9E5A23;" d="M288.662,61.793h70.621V0h-70.621V61.793z"/>
	<path style="fill:#9E5A23;" d="M288.662,211.862h70.621v-79.448h-70.621V211.862z"/>
</g>
<g>
	<path style="fill:#D1D1D1;" d="M421.076,326.621c-2.648,0-4.414-0.883-6.179-2.648c-3.531-3.531-3.531-8.828,0-12.359
		l17.655-17.655c3.531-3.531,8.828-3.531,12.359,0c3.531,3.531,3.531,8.828,0,12.359l-17.655,17.655
		C425.49,325.738,423.724,326.621,421.076,326.621"/>
	<path style="fill:#D1D1D1;" d="M465.214,361.931h-26.483c-5.297,0-8.828-3.531-8.828-8.828s3.531-8.828,8.828-8.828h26.483
		c5.297,0,8.828,3.531,8.828,8.828S470.51,361.931,465.214,361.931"/>
	<path style="fill:#D1D1D1;" d="M438.731,414.897c-2.648,0-4.414-0.883-6.179-2.648l-17.655-17.655
		c-3.531-3.531-3.531-8.828,0-12.359c3.531-3.531,8.828-3.531,12.359,0l17.655,17.655c3.531,3.531,3.531,8.828,0,12.359
		C443.145,414.014,441.379,414.897,438.731,414.897"/>
</g>
<g>
</g>
<g>
</g>
<g>
</g>
<g>
</g>
<g>
</g>
<g>
</g>
<g>
</g>
<g>
</g>
<g>
</g>
<g>
</g>
<g>
</g>
<g>
</g>
<g>
</g>
<g>
</g>
<g>
</g>
</svg>
