<?xml version="1.0" encoding="iso-8859-1"?>
<!-- Generator: Adobe Illustrator 19.0.0, SVG Export Plug-In . SVG Version: 6.00 Build 0)  -->
<svg version="1.1" id="Layer_1" xmlns="http://www.w3.org/2000/svg" xmlns:xlink="http://www.w3.org/1999/xlink" x="0px" y="0px"
	 viewBox="0 0 511.46 511.46" style="enable-background:new 0 0 511.46 511.46;" xml:space="preserve">
<path style="fill:#C7CBC7;" d="M106.968,423.724l-0.883,37.959c0,9.71,2.648,19.421,7.945,27.366l1.766,2.648
	c5.297,7.945,12.359,15.007,22.069,17.655c18.538,6.179,37.076-1.766,46.786-16.772l2.648-4.414
	c5.297-7.945,7.945-17.655,7.945-27.366l0.883-37.959h-89.159V423.724z"/>
<path style="fill:#DCE0E8;" d="M220.844,353.103H79.602v-220.69c0-38.841,31.779-70.621,70.621-70.621s70.621,31.779,70.621,70.621
	V353.103z"/>
<path style="fill:#CAD0D8;" d="M114.912,353.103v-220.69c0-19.421,15.89-35.31,35.31-35.31s35.31,15.89,35.31,35.31v220.69H114.912z
	"/>
<path style="fill:#FFFFFF;" d="M150.223,361.931c-5.297,0-8.828-3.531-8.828-8.828V150.069c0-5.297,3.531-8.828,8.828-8.828
	s8.828,3.531,8.828,8.828v203.034C159.05,357.517,155.519,361.931,150.223,361.931"/>
<path style="fill:#C7CBC7;" d="M317.947,406.069v55.614c0,9.71,2.648,19.421,7.945,27.366l1.766,2.648
	c5.297,7.945,12.359,15.007,22.069,17.655c18.538,6.179,37.076-1.766,46.786-16.772l2.648-4.414
	c5.297-7.945,7.945-17.655,7.945-27.366v-54.731H317.947z"/>
<path style="fill:#DCE0E8;" d="M432.706,317.793H291.464V70.621C291.464,31.779,323.243,0,362.085,0s70.621,31.779,70.621,70.621
	V317.793z"/>
<path style="fill:#CAD0D8;" d="M326.775,317.793V70.621c0-19.421,15.89-35.31,35.31-35.31c19.421,0,35.31,15.89,35.31,35.31v247.172
	H326.775z"/>
<path style="fill:#FFFFFF;" d="M362.085,326.621c-5.297,0-8.828-3.531-8.828-8.828V88.276c0-5.297,3.531-8.828,8.828-8.828
	s8.828,3.531,8.828,8.828v229.517C370.912,322.207,367.381,326.621,362.085,326.621"/>
<g>
	<path style="fill:#E8EDEE;" d="M405.34,406.069h-87.393c-19.421,0-36.193-15.89-36.193-36.193v-52.083H440.65v52.083
		C441.533,390.179,425.644,406.069,405.34,406.069"/>
	<path style="fill:#E8EDEE;" d="M370.912,432.552c-5.297,0-8.828,3.531-8.828,8.828s3.531,8.828,8.828,8.828h35.31v-17.655H370.912z
		"/>
	<path style="fill:#E8EDEE;" d="M406.223,467.862c-0.883,0-0.883,0-1.766,0h-15.89c-5.297,0-8.828,3.531-8.828,8.828
		s3.531,8.828,8.828,8.828h11.476C403.575,480.221,405.34,474.041,406.223,467.862"/>
	<path style="fill:#E8EDEE;" d="M353.257,467.862h-33.545c-0.883,0-0.883,0-1.766,0c0.883,6.179,2.648,11.476,5.297,17.655h30.014
		c5.297,0,8.828-3.531,8.828-8.828S358.554,467.862,353.257,467.862"/>
	<path style="fill:#E8EDEE;" d="M335.602,450.207c5.297,0,8.828-3.531,8.828-8.828s-3.531-8.828-8.828-8.828h-17.655v17.655H335.602
		z"/>
	<path style="fill:#E8EDEE;" d="M194.361,423.724h-87.393c-19.421,0-36.193-15.89-36.193-36.193v-34.428h158.897l0.883,34.428
		C230.554,407.835,213.781,423.724,194.361,423.724"/>
	<path style="fill:#E8EDEE;" d="M194.361,461.683v-11.476l0,0h-35.31c-5.297,0-8.828,3.531-8.828,8.828s3.531,8.828,8.828,8.828
		h35.31C194.361,466.097,194.361,464.331,194.361,461.683"/>
	<path style="fill:#E8EDEE;" d="M123.74,450.207h-17.655v11.476c0,1.766,0,3.531,0,6.179h17.655c5.297,0,8.828-3.531,8.828-8.828
		S129.037,450.207,123.74,450.207"/>
</g>
<g>
</g>
<g>
</g>
<g>
</g>
<g>
</g>
<g>
</g>
<g>
</g>
<g>
</g>
<g>
</g>
<g>
</g>
<g>
</g>
<g>
</g>
<g>
</g>
<g>
</g>
<g>
</g>
<g>
</g>
</svg>
