<?xml version="1.0" encoding="iso-8859-1"?>
<!-- Generator: Adobe Illustrator 19.0.0, SVG Export Plug-In . SVG Version: 6.00 Build 0)  -->
<svg version="1.1" id="Layer_1" xmlns="http://www.w3.org/2000/svg" xmlns:xlink="http://www.w3.org/1999/xlink" x="0px" y="0px"
	 viewBox="0 0 512 512" style="enable-background:new 0 0 512 512;" xml:space="preserve">
<path style="fill:#7F7C79;" d="M336.842,0L336.842,0c7.186,33.235-1.796,68.267-18.863,98.807l-174.26,300.912
	C123.958,434.751,108.688,472.477,99.705,512c29.642-26.947,54.793-59.284,75.453-94.316l173.361-300.912
	c17.067-30.54,45.811-52.996,78.147-62.877l0,0L336.842,0z"/>
<g>
	<path style="fill:#565656;" d="M159.888,116.772l73.656,127.551l20.66-35.93L190.428,98.807
		C173.361,68.267,167.972,33.235,175.158,0L85.333,53.895C117.67,63.775,141.923,86.232,159.888,116.772"/>
	<path style="fill:#565656;" d="M274.863,244.323l-20.66,35.93l79.046,137.432c20.66,35.032,45.811,67.368,75.453,94.316
		c-8.982-39.523-23.354-77.249-44.014-112.281L274.863,244.323z"/>
</g>
<g>
</g>
<g>
</g>
<g>
</g>
<g>
</g>
<g>
</g>
<g>
</g>
<g>
</g>
<g>
</g>
<g>
</g>
<g>
</g>
<g>
</g>
<g>
</g>
<g>
</g>
<g>
</g>
<g>
</g>
</svg>
