<?xml version="1.0" encoding="iso-8859-1"?>
<!-- Generator: Adobe Illustrator 19.0.0, SVG Export Plug-In . SVG Version: 6.00 Build 0)  -->
<svg version="1.1" id="Layer_1" xmlns="http://www.w3.org/2000/svg" xmlns:xlink="http://www.w3.org/1999/xlink" x="0px" y="0px"
	 viewBox="0 0 512 512" style="enable-background:new 0 0 512 512;" xml:space="preserve">
<g transform="translate(-1)">
	<path style="fill:#C17C3E;" d="M89.299,194.207v79.448c0,19.421,15.89,35.31,35.31,35.31h24.717
		c24.717,0,45.021,21.186,44.138,45.903l-6.179,138.593c0,9.71,7.945,18.538,17.655,18.538h104.166
		c9.71,0,17.655-7.945,17.655-18.538l-6.179-138.593c-0.883-24.717,18.538-45.903,44.138-45.903h24.717
		c19.421,0,35.31-15.89,35.31-35.31v-79.448H89.299z"/>
	<g>
		<path style="fill:#9E5A23;" d="M283.506,432.552c0-15.007-11.476-26.483-26.483-26.483c-15.007,0-26.483,11.476-26.483,26.483
			s11.476,26.483,26.483,26.483C272.03,459.034,283.506,446.676,283.506,432.552"/>
		<path style="fill:#9E5A23;" d="M80.472,194.207h353.103v-79.448H80.472V194.207z"/>
	</g>
	<path style="fill:#ECE8D8;" d="M348.83,114.759h-0.883H89.299c0-44.138-5.297-74.152-15.89-94.455C68.113,11.476,75.175,0,84.886,0
		h210.097c7.062,0,15.007,2.648,20.303,7.062c16.772,14.124,25.6,39.724,30.014,63.559c2.648-8.828,7.062-18.538,11.476-27.366
		C371.782,16.772,403.561,0,434.458,0h7.945c-24.717,26.483-35.31,86.51-17.655,114.759h-76.8"/>
	<g>
		<path style="fill:#9E5A23;" d="M142.265,238.345c5.297,0,8.828-3.531,8.828-8.828s-3.531-8.828-8.828-8.828H89.299v17.655H142.265
			z"/>
		<path style="fill:#9E5A23;" d="M124.61,273.655c5.297,0,8.828-3.531,8.828-8.828c0-5.297-3.531-8.828-8.828-8.828h-35.31v17.655
			H124.61z"/>
	</g>
</g>
<g>
</g>
<g>
</g>
<g>
</g>
<g>
</g>
<g>
</g>
<g>
</g>
<g>
</g>
<g>
</g>
<g>
</g>
<g>
</g>
<g>
</g>
<g>
</g>
<g>
</g>
<g>
</g>
<g>
</g>
</svg>
