<?xml version="1.0" encoding="iso-8859-1"?>
<!-- Generator: Adobe Illustrator 19.0.0, SVG Export Plug-In . SVG Version: 6.00 Build 0)  -->
<svg version="1.1" id="Layer_1" xmlns="http://www.w3.org/2000/svg" xmlns:xlink="http://www.w3.org/1999/xlink" x="0px" y="0px"
	 viewBox="0 0 512 512" style="enable-background:new 0 0 512 512;" xml:space="preserve">
<path style="fill:#C7CBC7;" d="M44.138,344.276H8.828c-5.297,0-8.828-3.531-8.828-8.828V176.552c0-5.297,3.531-8.828,8.828-8.828
	h35.31c5.297,0,8.828,3.531,8.828,8.828v158.897C52.966,340.745,49.434,344.276,44.138,344.276"/>
<path style="fill:#E8EDEE;" d="M459.034,194.207h-88.276c-26.483,0-52.083-5.297-75.034-16.772c-12.359-6.179-25.6-9.71-39.724-9.71
	s-27.366,3.531-39.724,9.71c-22.952,11.476-49.434,16.772-75.034,16.772H52.966v123.586h88.276c26.483,0,52.083,5.297,75.034,16.772
	c11.476,6.179,25.6,9.71,39.724,9.71s27.366-3.531,39.724-9.71c22.952-11.476,49.434-16.772,75.034-16.772h88.276V194.207z"/>
<g>
	<path style="fill:#C7CBC7;" d="M459.034,238.345h-44.138c-5.297,0-8.828-3.531-8.828-8.828s3.531-8.828,8.828-8.828h44.138
		c5.297,0,8.828,3.531,8.828,8.828S464.331,238.345,459.034,238.345"/>
	<path style="fill:#C7CBC7;" d="M388.414,238.345h-17.655c-6.179,0-12.359,0-18.538-0.883c-4.414,0-8.828-4.414-7.945-9.71
		c0-5.297,4.414-8.828,9.71-7.945c5.297,0.883,11.476,0.883,16.772,0.883h17.655c5.297,0,8.828,3.531,8.828,8.828
		S393.71,238.345,388.414,238.345"/>
	<path style="fill:#C7CBC7;" d="M194.207,231.283c-3.531,0-7.945-2.648-8.828-7.062c-0.883-4.414,1.766-9.71,6.179-10.593
		c12.359-3.531,24.717-7.945,36.193-13.241c17.655-8.828,37.959-8.828,55.614,0c11.476,5.297,23.834,10.593,36.193,13.241
		c4.414,0.883,7.945,6.179,6.179,10.593c-0.883,4.414-6.179,7.945-10.593,6.179c-14.124-3.531-27.366-8.828-39.724-15.007
		c-12.359-6.179-27.366-6.179-39.724,0c-12.359,6.179-25.6,11.476-39.724,15.007C195.972,231.283,195.09,231.283,194.207,231.283"/>
	<path style="fill:#C7CBC7;" d="M141.241,238.345H88.276c-5.297,0-8.828-3.531-8.828-8.828s3.531-8.828,8.828-8.828h52.966
		c6.179,0,11.476,0,16.772-0.883c5.297-0.883,8.828,3.531,9.71,7.945c0,5.297-3.531,8.828-7.945,9.71
		C153.6,238.345,147.421,238.345,141.241,238.345"/>
</g>
<path id="SVGCleanerId_0" style="fill:#E15649;" d="M256,132.414c-5.297,0-8.828-3.531-8.828-8.828v-35.31
	c0-5.297,3.531-8.828,8.828-8.828c5.297,0,8.828,3.531,8.828,8.828v35.31C264.828,128.883,261.297,132.414,256,132.414"/>
<path id="SVGCleanerId_1" style="fill:#E15649;" d="M256,432.552c-5.297,0-8.828-3.531-8.828-8.828v-35.31
	c0-5.297,3.531-8.828,8.828-8.828c5.297,0,8.828,3.531,8.828,8.828v35.31C264.828,429.021,261.297,432.552,256,432.552"/>
<g>
	<path id="SVGCleanerId_0_1_" style="fill:#E15649;" d="M256,132.414c-5.297,0-8.828-3.531-8.828-8.828v-35.31
		c0-5.297,3.531-8.828,8.828-8.828c5.297,0,8.828,3.531,8.828,8.828v35.31C264.828,128.883,261.297,132.414,256,132.414"/>
</g>
<g>
	<path id="SVGCleanerId_1_1_" style="fill:#E15649;" d="M256,432.552c-5.297,0-8.828-3.531-8.828-8.828v-35.31
		c0-5.297,3.531-8.828,8.828-8.828c5.297,0,8.828,3.531,8.828,8.828v35.31C264.828,429.021,261.297,432.552,256,432.552"/>
</g>
<path id="SVGCleanerId_2" style="fill:#E15649;" d="M353.103,167.724c-2.648,0-4.414-0.883-6.179-2.648
	c-3.531-3.531-3.531-8.828,0-12.359l25.6-25.6c3.531-3.531,8.828-3.531,12.359,0c3.531,3.531,3.531,8.828,0,12.359l-25.6,25.6
	C357.517,166.841,355.752,167.724,353.103,167.724"/>
<path id="SVGCleanerId_3" style="fill:#E15649;" d="M134.179,386.648c-2.648,0-4.414-0.883-6.179-2.648
	c-3.531-3.531-3.531-8.828,0-12.359l24.717-24.717c3.531-3.531,8.828-3.531,12.359,0s3.531,8.828,0,12.359L140.359,384
	C138.593,385.766,135.945,386.648,134.179,386.648"/>
<g>
	<path id="SVGCleanerId_2_1_" style="fill:#E15649;" d="M353.103,167.724c-2.648,0-4.414-0.883-6.179-2.648
		c-3.531-3.531-3.531-8.828,0-12.359l25.6-25.6c3.531-3.531,8.828-3.531,12.359,0c3.531,3.531,3.531,8.828,0,12.359l-25.6,25.6
		C357.517,166.841,355.752,167.724,353.103,167.724"/>
</g>
<g>
	<path id="SVGCleanerId_3_1_" style="fill:#E15649;" d="M134.179,386.648c-2.648,0-4.414-0.883-6.179-2.648
		c-3.531-3.531-3.531-8.828,0-12.359l24.717-24.717c3.531-3.531,8.828-3.531,12.359,0s3.531,8.828,0,12.359L140.359,384
		C138.593,385.766,135.945,386.648,134.179,386.648"/>
</g>
<path id="SVGCleanerId_4" style="fill:#E15649;" d="M159.779,167.724c-2.648,0-4.414-0.883-6.179-2.648l-25.6-25.6
	c-3.531-3.531-3.531-8.828,0-12.359c3.531-3.531,8.828-3.531,12.359,0l25.6,25.6c3.531,3.531,3.531,8.828,0,12.359
	C164.193,166.841,162.428,167.724,159.779,167.724"/>
<path id="SVGCleanerId_5" style="fill:#E15649;" d="M378.703,386.648c-2.648,0-4.414-0.883-6.179-2.648l-24.717-24.717
	c-3.531-3.531-3.531-8.828,0-12.359c3.531-3.531,8.828-3.531,12.359,0l24.717,24.717c3.531,3.531,3.531,8.828,0,12.359
	C383.117,385.766,381.352,386.648,378.703,386.648"/>
<g>
	<path id="SVGCleanerId_4_1_" style="fill:#E15649;" d="M159.779,167.724c-2.648,0-4.414-0.883-6.179-2.648l-25.6-25.6
		c-3.531-3.531-3.531-8.828,0-12.359c3.531-3.531,8.828-3.531,12.359,0l25.6,25.6c3.531,3.531,3.531,8.828,0,12.359
		C164.193,166.841,162.428,167.724,159.779,167.724"/>
</g>
<g>
	<path id="SVGCleanerId_5_1_" style="fill:#E15649;" d="M378.703,386.648c-2.648,0-4.414-0.883-6.179-2.648l-24.717-24.717
		c-3.531-3.531-3.531-8.828,0-12.359c3.531-3.531,8.828-3.531,12.359,0l24.717,24.717c3.531,3.531,3.531,8.828,0,12.359
		C383.117,385.766,381.352,386.648,378.703,386.648"/>
</g>
<path style="fill:#C7CBC7;" d="M503.172,344.276h-35.31c-5.297,0-8.828-3.531-8.828-8.828V176.552c0-5.297,3.531-8.828,8.828-8.828
	h35.31c5.297,0,8.828,3.531,8.828,8.828v158.897C512,340.745,508.469,344.276,503.172,344.276"/>
<g>
</g>
<g>
</g>
<g>
</g>
<g>
</g>
<g>
</g>
<g>
</g>
<g>
</g>
<g>
</g>
<g>
</g>
<g>
</g>
<g>
</g>
<g>
</g>
<g>
</g>
<g>
</g>
<g>
</g>
</svg>
