<?xml version="1.0" encoding="iso-8859-1"?>
<!-- Generator: Adobe Illustrator 19.0.0, SVG Export Plug-In . SVG Version: 6.00 Build 0)  -->
<svg version="1.1" id="Layer_1" xmlns="http://www.w3.org/2000/svg" xmlns:xlink="http://www.w3.org/1999/xlink" x="0px" y="0px"
	 viewBox="0 0 512 512" style="enable-background:new 0 0 512 512;" xml:space="preserve">
<path style="fill:#E8EDEE;" d="M52.966,138.152v123.586h114.759v-35.31c0-5.297,3.531-8.828,8.828-8.828s8.828,3.531,8.828,8.828
	v35.31h273.655V138.152H52.966z"/>
<g>
	<path style="fill:#7FABDA;" d="M176.552,217.6c-5.297,0-8.828,3.531-8.828,8.828v35.31h17.655v-35.31
		C185.379,221.131,181.848,217.6,176.552,217.6z"/>
	<path style="fill:#7FABDA;" d="M211.862,235.255c-5.297,0-8.828-3.531-8.828-8.828v-35.31c0-5.297,3.531-8.828,8.828-8.828
		c5.297,0,8.828,3.531,8.828,8.828v35.31C220.69,231.724,217.159,235.255,211.862,235.255"/>
	<path style="fill:#7FABDA;" d="M211.862,235.255h-35.31c-5.297,0-8.828-3.531-8.828-8.828s3.531-8.828,8.828-8.828h35.31
		c5.297,0,8.828,3.531,8.828,8.828S217.159,235.255,211.862,235.255"/>
	<path style="fill:#7FABDA;" d="M247.172,199.945h-35.31c-5.297,0-8.828-3.531-8.828-8.828s3.531-8.828,8.828-8.828h35.31
		c5.297,0,8.828,3.531,8.828,8.828S252.469,199.945,247.172,199.945"/>
	<path style="fill:#7FABDA;" d="M202.152,389.738L202.152,389.738c-14.124,14.124-37.959,14.124-52.083,0
		c-14.124-14.124-14.124-37.076,0-56.497l26.483-36.193l25.6,37.076C217.159,356.193,217.159,375.614,202.152,389.738"/>
</g>
<g>
	<path style="fill:#C7CBC7;" d="M88.276,182.29h-35.31c-5.297,0-8.828-3.531-8.828-8.828c0-5.297,3.531-8.828,8.828-8.828h35.31
		c5.297,0,8.828,3.531,8.828,8.828C97.103,178.759,93.572,182.29,88.276,182.29"/>
	<path style="fill:#C7CBC7;" d="M132.414,173.462c0-5.297-3.531-8.828-8.828-8.828c-5.297,0-8.828,3.531-8.828,8.828
		c0,5.297,3.531,8.828,8.828,8.828C128.883,182.29,132.414,178.759,132.414,173.462"/>
	<path style="fill:#C7CBC7;" d="M361.931,182.29h-52.966c-5.297,0-8.828-3.531-8.828-8.828c0-5.297,3.531-8.828,8.828-8.828h52.966
		c5.297,0,8.828,3.531,8.828,8.828C370.759,178.759,367.228,182.29,361.931,182.29"/>
	<path style="fill:#C7CBC7;" d="M459.034,182.29h-44.138c-5.297,0-8.828-3.531-8.828-8.828c0-5.297,3.531-8.828,8.828-8.828h44.138
		c5.297,0,8.828,3.531,8.828,8.828C467.862,178.759,464.331,182.29,459.034,182.29"/>
	<path style="fill:#C7CBC7;" d="M44.138,288.221H8.828c-5.297,0-8.828-3.531-8.828-8.828V120.497c0-5.297,3.531-8.828,8.828-8.828
		h35.31c5.297,0,8.828,3.531,8.828,8.828v158.897C52.966,284.69,49.434,288.221,44.138,288.221"/>
	<path style="fill:#C7CBC7;" d="M503.172,288.221h-35.31c-5.297,0-8.828-3.531-8.828-8.828V120.497c0-5.297,3.531-8.828,8.828-8.828
		h35.31c5.297,0,8.828,3.531,8.828,8.828v158.897C512,284.69,508.469,288.221,503.172,288.221"/>
</g>
<g>
</g>
<g>
</g>
<g>
</g>
<g>
</g>
<g>
</g>
<g>
</g>
<g>
</g>
<g>
</g>
<g>
</g>
<g>
</g>
<g>
</g>
<g>
</g>
<g>
</g>
<g>
</g>
<g>
</g>
</svg>
