<?xml version="1.0" encoding="iso-8859-1"?>
<!-- Generator: Adobe Illustrator 19.0.0, SVG Export Plug-In . SVG Version: 6.00 Build 0)  -->
<svg version="1.1" id="Layer_1" xmlns="http://www.w3.org/2000/svg" xmlns:xlink="http://www.w3.org/1999/xlink" x="0px" y="0px"
	 viewBox="0 0 512 512" style="enable-background:new 0 0 512 512;" xml:space="preserve">
<path style="fill:#E8EDEE;" d="M459.034,194.207H317.793V52.966H194.207v141.241H52.966v123.586h141.241v141.241h123.586V317.793
	h141.241V194.207z"/>
<g>
	<path style="fill:#C7CBC7;" d="M167.724,44.138V8.828c0-5.297,3.531-8.828,8.828-8.828h158.897c5.297,0,8.828,3.531,8.828,8.828
		v35.31c0,5.297-3.531,8.828-8.828,8.828H176.552C171.255,52.966,167.724,49.434,167.724,44.138"/>
	<path style="fill:#C7CBC7;" d="M167.724,503.172v-35.31c0-5.297,3.531-8.828,8.828-8.828h158.897c5.297,0,8.828,3.531,8.828,8.828
		v35.31c0,5.297-3.531,8.828-8.828,8.828H176.552C171.255,512,167.724,508.469,167.724,503.172"/>
	<path style="fill:#C7CBC7;" d="M459.034,282.483h-35.31c-5.297,0-8.828-3.531-8.828-8.828c0-5.297,3.531-8.828,8.828-8.828h35.31
		c5.297,0,8.828,3.531,8.828,8.828C467.862,278.952,464.331,282.483,459.034,282.483"/>
	<path style="fill:#C7CBC7;" d="M353.103,282.483h-70.621c-5.297,0-8.828-3.531-8.828-8.828c0-5.297,3.531-8.828,8.828-8.828h70.621
		c5.297,0,8.828,3.531,8.828,8.828C361.931,278.952,358.4,282.483,353.103,282.483"/>
	<path style="fill:#C7CBC7;" d="M379.586,273.655c0,5.297,3.531,8.828,8.828,8.828s8.828-3.531,8.828-8.828
		c0-5.297-3.531-8.828-8.828-8.828S379.586,268.359,379.586,273.655"/>
	<path style="fill:#C7CBC7;" d="M282.483,370.759c-5.297,0-8.828-3.531-8.828-8.828v-88.276c0-5.297,3.531-8.828,8.828-8.828
		c5.297,0,8.828,3.531,8.828,8.828v88.276C291.31,367.228,287.779,370.759,282.483,370.759"/>
	<path style="fill:#C7CBC7;" d="M282.483,467.862c-5.297,0-8.828-3.531-8.828-8.828v-44.138c0-5.297,3.531-8.828,8.828-8.828
		c5.297,0,8.828,3.531,8.828,8.828v44.138C291.31,464.331,287.779,467.862,282.483,467.862"/>
	<path style="fill:#C7CBC7;" d="M44.138,344.276H8.828c-5.297,0-8.828-3.531-8.828-8.828V176.552c0-5.297,3.531-8.828,8.828-8.828
		h35.31c5.297,0,8.828,3.531,8.828,8.828v158.897C52.966,340.745,49.434,344.276,44.138,344.276"/>
	<path style="fill:#C7CBC7;" d="M503.172,344.276h-35.31c-5.297,0-8.828-3.531-8.828-8.828V176.552c0-5.297,3.531-8.828,8.828-8.828
		h35.31c5.297,0,8.828,3.531,8.828,8.828v158.897C512,340.745,508.469,344.276,503.172,344.276"/>
</g>
<g>
</g>
<g>
</g>
<g>
</g>
<g>
</g>
<g>
</g>
<g>
</g>
<g>
</g>
<g>
</g>
<g>
</g>
<g>
</g>
<g>
</g>
<g>
</g>
<g>
</g>
<g>
</g>
<g>
</g>
</svg>
