<?xml version="1.0" encoding="iso-8859-1"?>
<!-- Generator: Adobe Illustrator 19.0.0, SVG Export Plug-In . SVG Version: 6.00 Build 0)  -->
<svg version="1.1" id="Layer_1" xmlns="http://www.w3.org/2000/svg" xmlns:xlink="http://www.w3.org/1999/xlink" x="0px" y="0px"
	 viewBox="0 0 512 512" style="enable-background:new 0 0 512 512;" xml:space="preserve">
<g>
	<path style="fill:#C7CBC7;" d="M512,467.862v35.31c0,5.297-3.531,8.828-8.828,8.828H344.276c-5.297,0-8.828-3.531-8.828-8.828
		v-35.31c0-5.297,3.531-8.828,8.828-8.828h158.897C508.469,459.034,512,462.566,512,467.862"/>
	<path style="fill:#C7CBC7;" d="M44.138,300.138H8.828c-5.297,0-8.828-3.531-8.828-8.828V132.414c0-5.297,3.531-8.828,8.828-8.828
		h35.31c5.297,0,8.828,3.531,8.828,8.828V291.31C52.966,296.607,49.434,300.138,44.138,300.138"/>
	<path style="fill:#C7CBC7;" d="M79.448,44.138V8.828C79.448,3.531,82.979,0,88.276,0h158.897C252.469,0,256,3.531,256,8.828v35.31
		c0,5.297-3.531,8.828-8.828,8.828H88.276C82.979,52.966,79.448,49.434,79.448,44.138"/>
</g>
<path style="fill:#E8EDEE;" d="M229.517,150.069V52.966H105.931v97.103H52.966v123.586h176.552
	c73.269,0,132.414,59.145,132.414,132.414v52.966h123.586v-52.966C485.517,264.828,370.759,150.069,229.517,150.069"/>
<g>
	<path style="fill:#C7CBC7;" d="M450.207,467.862c-5.297,0-8.828-3.531-8.828-8.828v-35.31c0-5.297,3.531-8.828,8.828-8.828
		c5.297,0,8.828,3.531,8.828,8.828v35.31C459.034,464.331,455.503,467.862,450.207,467.862"/>
	<path style="fill:#C7CBC7;" d="M449.324,397.241c-4.414,0-8.828-3.531-8.828-7.945c0-5.297-0.883-11.476-1.766-16.772
		c-0.883-4.414,2.648-9.71,7.062-9.71c4.414-0.883,9.71,2.648,9.71,7.062c0.883,6.179,1.766,12.359,1.766,18.538
		C459.034,392.828,455.503,397.241,449.324,397.241C450.207,397.241,449.324,397.241,449.324,397.241"/>
	<path style="fill:#C7CBC7;" d="M427.255,317.793c-3.531,0-6.179-1.766-7.945-5.297c-8.828-18.538-21.186-35.31-35.31-51.2
		c-3.531-3.531-3.531-8.828,0.883-12.359c3.531-3.531,8.828-3.531,12.359,0.883c15.007,16.772,28.248,35.31,37.959,54.731
		c1.766,4.414,0,9.71-4.414,11.476C429.903,317.793,429.021,317.793,427.255,317.793"/>
	<path style="fill:#C7CBC7;" d="M370.759,245.407c-1.766,0-4.414-0.883-5.297-1.766c-17.655-15.007-37.959-26.483-59.145-35.31
		c-4.414-1.766-7.062-7.062-5.297-11.476c1.766-4.414,7.062-7.062,11.476-5.297c22.952,8.828,45.021,22.069,64.441,37.959
		c3.531,3.531,4.414,8.828,0.883,12.359C376.055,244.524,373.407,245.407,370.759,245.407"/>
	<path style="fill:#C7CBC7;" d="M256,195.972h-0.883c-8.828-0.883-16.772-1.766-25.6-1.766c-5.297,0-8.828-3.531-8.828-8.828
		s3.531-8.828,8.828-8.828c8.828,0,18.538,0.883,27.366,1.766c4.414,0.883,7.945,5.297,7.945,9.71
		C263.945,192.441,260.414,195.972,256,195.972"/>
	<path style="fill:#C7CBC7;" d="M194.207,176.552c-5.297,0-8.828,3.531-8.828,8.828s3.531,8.828,8.828,8.828
		s8.828-3.531,8.828-8.828S199.503,176.552,194.207,176.552"/>
	<path style="fill:#C7CBC7;" d="M194.207,150.069c-5.297,0-8.828-3.531-8.828-8.828V88.276c0-5.297,3.531-8.828,8.828-8.828
		s8.828,3.531,8.828,8.828v52.966C203.034,146.538,199.503,150.069,194.207,150.069"/>
</g>
<g>
</g>
<g>
</g>
<g>
</g>
<g>
</g>
<g>
</g>
<g>
</g>
<g>
</g>
<g>
</g>
<g>
</g>
<g>
</g>
<g>
</g>
<g>
</g>
<g>
</g>
<g>
</g>
<g>
</g>
</svg>
