<?xml version="1.0" encoding="iso-8859-1"?>
<!-- Generator: Adobe Illustrator 19.0.0, SVG Export Plug-In . SVG Version: 6.00 Build 0)  -->
<svg version="1.1" id="Layer_1" xmlns="http://www.w3.org/2000/svg" xmlns:xlink="http://www.w3.org/1999/xlink" x="0px" y="0px"
	 viewBox="0 0 512 512" style="enable-background:new 0 0 512 512;" xml:space="preserve">
<path style="fill:#E8EDEE;" d="M373.407,459.034H173.903c-13.241,0-23.834-10.593-23.834-23.835v-93.572
	c0-13.241,10.593-23.835,23.834-23.835H374.29c13.241,0,22.952,10.593,22.952,23.835v94.455
	C397.241,448.441,386.648,459.034,373.407,459.034"/>
<path style="fill:#FFFFFF;" d="M185.379,399.89v-23.835c0-13.241,10.593-23.834,22.952-23.834h129.766
	c13.241,0,23.834,10.593,23.834,23.834v23.835c0,13.241-10.593,22.952-23.834,22.952H208.331
	C195.972,423.724,185.379,413.131,185.379,399.89"/>
<g>
	<path style="fill:#C7CBC7;" d="M397.241,423.724H512v-70.621H397.241V423.724z"/>
	<path style="fill:#C7CBC7;" d="M70.621,275.421V52.966H0v222.455C0,358.4,67.09,423.724,150.069,423.724v-68.855
		C105.931,354.869,70.621,319.559,70.621,275.421"/>
</g>
<path style="fill:#E8EDEE;" d="M379.586,158.897c0,58.262-47.669,105.931-105.931,105.931s-105.931-47.669-105.931-105.931
	S215.393,52.966,273.655,52.966S379.586,100.634,379.586,158.897"/>
<path style="fill:#C7CBC7;" d="M273.655,264.828c-12.359,0-23.835-2.648-35.31-6.179v59.145h70.621v-59.145
	C297.49,262.179,286.014,264.828,273.655,264.828"/>
<path style="fill:#E15649;" d="M273.655,264.828c22.069,0,43.255-7.062,60.028-18.538c-12.359-21.186-34.428-34.428-60.028-34.428
	s-47.669,13.241-60.028,34.428C230.4,257.766,251.586,264.828,273.655,264.828"/>
<g>
	<path style="fill:#556080;" d="M211.862,158.897c0,5.297-3.531,8.828-8.828,8.828s-8.828-3.531-8.828-8.828
		s3.531-8.828,8.828-8.828S211.862,153.6,211.862,158.897"/>
	<path style="fill:#556080;" d="M353.103,158.897c0,5.297-3.531,8.828-8.828,8.828s-8.828-3.531-8.828-8.828
		s3.531-8.828,8.828-8.828S353.103,153.6,353.103,158.897"/>
	<path style="fill:#556080;" d="M229.517,114.759c0,5.297-3.531,8.828-8.828,8.828s-8.828-3.531-8.828-8.828
		c0-5.297,3.531-8.828,8.828-8.828S229.517,109.462,229.517,114.759"/>
	<path style="fill:#556080;" d="M282.483,88.276c0,5.297-3.531,8.828-8.828,8.828c-5.297,0-8.828-3.531-8.828-8.828
		c0-5.297,3.531-8.828,8.828-8.828C278.952,79.448,282.483,82.979,282.483,88.276"/>
	<path style="fill:#556080;" d="M335.448,114.759c0,5.297-3.531,8.828-8.828,8.828s-8.828-3.531-8.828-8.828
		c0-5.297,3.531-8.828,8.828-8.828S335.448,109.462,335.448,114.759"/>
	<path style="fill:#556080;" d="M273.655,185.379c-2.648,0-5.297-0.883-7.062-3.531l-30.014-35.31
		c-3.531-3.531-2.648-9.71,0.883-12.359c3.531-3.531,9.71-2.648,12.359,0.883l30.014,35.31c3.531,3.531,2.648,9.71-0.883,12.359
		C278.069,184.497,275.421,185.379,273.655,185.379"/>
	<path style="fill:#556080;" d="M220.69,397.241h-35.31c-5.297,0-8.828-3.531-8.828-8.828s3.531-8.828,8.828-8.828h35.31
		c5.297,0,8.828,3.531,8.828,8.828S225.986,397.241,220.69,397.241"/>
	<path style="fill:#556080;" d="M361.931,397.241h-35.31c-5.297,0-8.828-3.531-8.828-8.828s3.531-8.828,8.828-8.828h35.31
		c5.297,0,8.828,3.531,8.828,8.828S367.228,397.241,361.931,397.241"/>
</g>
<g>
</g>
<g>
</g>
<g>
</g>
<g>
</g>
<g>
</g>
<g>
</g>
<g>
</g>
<g>
</g>
<g>
</g>
<g>
</g>
<g>
</g>
<g>
</g>
<g>
</g>
<g>
</g>
<g>
</g>
</svg>
