<?xml version="1.0" encoding="iso-8859-1"?>
<!-- Generator: Adobe Illustrator 19.0.0, SVG Export Plug-In . SVG Version: 6.00 Build 0)  -->
<svg version="1.1" id="Layer_1" xmlns="http://www.w3.org/2000/svg" xmlns:xlink="http://www.w3.org/1999/xlink" x="0px" y="0px"
	 viewBox="0 0 512 512" style="enable-background:new 0 0 512 512;" xml:space="preserve">
<path style="fill:#A3AAAF;" d="M247.172,388.414L123.586,512h123.586h141.241V388.414H247.172z"/>
<path style="fill:#E0E0E0;" d="M247.172,0H123.586v512l123.586-123.586V0z"/>
<g>
	<path style="fill:#A3AAAF;" d="M150.069,44.138c5.297,0,8.828-3.531,8.828-8.828s-3.531-8.828-8.828-8.828h-26.483v17.655H150.069z
		"/>
	<path style="fill:#A3AAAF;" d="M167.724,79.448c5.297,0,8.828-3.531,8.828-8.828s-3.531-8.828-8.828-8.828h-44.138v17.655H167.724z
		"/>
	<path style="fill:#A3AAAF;" d="M150.069,114.759c5.297,0,8.828-3.531,8.828-8.828c0-5.297-3.531-8.828-8.828-8.828h-26.483v17.655
		H150.069z"/>
	<path style="fill:#A3AAAF;" d="M167.724,150.069c5.297,0,8.828-3.531,8.828-8.828s-3.531-8.828-8.828-8.828h-44.138v17.655H167.724
		z"/>
	<path style="fill:#A3AAAF;" d="M150.069,185.379c5.297,0,8.828-3.531,8.828-8.828s-3.531-8.828-8.828-8.828h-26.483v17.655H150.069
		z"/>
	<path style="fill:#A3AAAF;" d="M167.724,220.69c5.297,0,8.828-3.531,8.828-8.828c0-5.297-3.531-8.828-8.828-8.828h-44.138v17.655
		H167.724z"/>
	<path style="fill:#A3AAAF;" d="M150.069,256c5.297,0,8.828-3.531,8.828-8.828s-3.531-8.828-8.828-8.828h-26.483V256H150.069z"/>
	<path style="fill:#A3AAAF;" d="M167.724,291.31c5.297,0,8.828-3.531,8.828-8.828c0-5.297-3.531-8.828-8.828-8.828h-44.138v17.655
		H167.724z"/>
	<path style="fill:#A3AAAF;" d="M150.069,326.621c5.297,0,8.828-3.531,8.828-8.828s-3.531-8.828-8.828-8.828h-26.483v17.655H150.069
		z"/>
	<path style="fill:#A3AAAF;" d="M167.724,361.931c5.297,0,8.828-3.531,8.828-8.828s-3.531-8.828-8.828-8.828h-44.138v17.655H167.724
		z"/>
	<path style="fill:#A3AAAF;" d="M150.069,397.241c5.297,0,8.828-3.531,8.828-8.828s-3.531-8.828-8.828-8.828h-26.483v17.655H150.069
		z"/>
	<path style="fill:#A3AAAF;" d="M167.724,432.552c5.297,0,8.828-3.531,8.828-8.828c0-5.297-3.531-8.828-8.828-8.828h-44.138v17.655
		H167.724z"/>
</g>
<g>
</g>
<g>
</g>
<g>
</g>
<g>
</g>
<g>
</g>
<g>
</g>
<g>
</g>
<g>
</g>
<g>
</g>
<g>
</g>
<g>
</g>
<g>
</g>
<g>
</g>
<g>
</g>
<g>
</g>
</svg>
