<?xml version="1.0" encoding="iso-8859-1"?>
<!-- Generator: Adobe Illustrator 19.0.0, SVG Export Plug-In . SVG Version: 6.00 Build 0)  -->
<svg version="1.1" id="Layer_1" xmlns="http://www.w3.org/2000/svg" xmlns:xlink="http://www.w3.org/1999/xlink" x="0px" y="0px"
	 viewBox="0 0 511.569 511.569" style="enable-background:new 0 0 511.569 511.569;" xml:space="preserve">
<path style="fill:#A3AAAF;" d="M296.166,326.621l-18.538-18.538c3.531-3.531,3.531-8.828,0-12.359
	c-3.531-3.531-8.828-3.531-12.359,0l-24.717,24.717L78.124,158.014l18.538-18.538l0,0l0,0l6.179-6.179
	c3.531-3.531,3.531-8.828,0-12.359c-3.531-3.531-8.828-3.531-12.359,0l0,0L71.945,102.4c-3.531-3.531-8.828-3.531-12.359,0
	s-3.531,8.828,0,12.359l18.538,18.538l-18.538,18.538c-1.766,1.766-2.648,3.531-2.648,6.179s0.883,4.414,2.648,6.179L233.49,338.979
	c1.766,1.766,4.414,2.648,6.179,2.648c1.766,0,4.414-0.883,6.179-2.648l18.538-18.538l18.538,18.538
	c1.766,1.766,4.414,2.648,6.179,2.648c1.766,0,4.414-0.883,6.179-2.648C299.697,335.448,299.697,330.152,296.166,326.621"/>
<path style="fill:#CE8D5B;" d="M496.552,488.166c14.124-14.124,13.241-35.31-0.883-49.434l-18.538-18.538
	c-3.531-3.531-7.945-7.945-13.241-10.593c-25.6-14.124-43.255-32.662-48.552-52.083l0,0l-7.945-18.538
	c-5.297-12.359-21.186-15.007-30.897-6.179l-47.669,47.669c-9.71,9.71-6.179,25.6,6.179,30.897l17.655,7.945l0,0
	c20.303,6.179,37.959,21.186,52.083,48.552l0,0c1.766,5.297,4.414,10.593,7.945,15.007l18.538,18.538
	c14.124,14.124,37.076,13.241,51.2-0.883L496.552,488.166z"/>
<path style="fill:#A3AAAF;" d="M365.021,345.159l-24.717,24.717l-18.538-18.538l24.717-24.717L365.021,345.159z"/>
<path style="fill:#514439;" d="M259.09,363.697l93.572-93.572c20.303-20.303,20.303-53.848,0-75.034L211.421,53.848
	c-25.6-25.6-66.207-25.6-90.924,0l-85.628,85.628c-7.062,7.062-17.655,7.062-24.717,0c-7.062-7.062-7.062-17.655,0-24.717
	l85.628-85.628c38.841-38.841,102.4-38.841,141.241,0l141.241,141.241c34.428,34.428,34.428,90.041,0,124.469l-94.455,94.455
	c-7.062,7.062-17.655,7.062-24.717,0C252.028,382.234,252.028,370.759,259.09,363.697"/>
<path style="fill:#A3AAAF;" d="M47.228,27.366l-24.717,25.6l24.717,24.717l24.717-25.6L47.228,27.366z"/>
<path style="fill:#9E5A23;" d="M440.055,469.628l-18.538,18.538l0,0l12.359,12.359l0,0l18.538-18.538
	c3.531-3.531,3.531-8.828,0-12.359C448.883,466.979,443.586,466.979,440.055,469.628"/>
<g>
</g>
<g>
</g>
<g>
</g>
<g>
</g>
<g>
</g>
<g>
</g>
<g>
</g>
<g>
</g>
<g>
</g>
<g>
</g>
<g>
</g>
<g>
</g>
<g>
</g>
<g>
</g>
<g>
</g>
</svg>
