<?xml version="1.0" encoding="iso-8859-1"?>
<!-- Generator: Adobe Illustrator 19.0.0, SVG Export Plug-In . SVG Version: 6.00 Build 0)  -->
<svg version="1.1" id="Layer_1" xmlns="http://www.w3.org/2000/svg" xmlns:xlink="http://www.w3.org/1999/xlink" x="0px" y="0px"
	 viewBox="0 0 512 512" style="enable-background:new 0 0 512 512;" xml:space="preserve">
<path style="fill:#E0E0E0;" d="M280.232,0l-9.71,17.655h-35.31L225.501,0h-79.448c-8.828,0-13.241,9.71-8.828,15.89
	c10.593,14.124,26.483,27.366,38.841,37.959c21.186,16.772,32.662,42.372,32.662,69.738v335.448L252.867,512l44.138-52.966V123.586
	c0-26.483,11.476-52.966,31.779-69.738c12.359-10.593,32.662-22.952,45.021-37.076C379.984,9.71,374.687,0,366.742,0H280.232z"/>
<g>
	<path style="fill:#C3C7CB;" d="M314.66,441.379L314.66,441.379l-124.469-8.828c-5.297,0-8.828-4.414-7.945-9.71
		c0-4.414,4.414-8.828,9.71-7.945l123.586,8.828c5.297,0,8.828,4.414,7.945,9.71C323.487,437.848,319.073,441.379,314.66,441.379"/>
	<path style="fill:#C3C7CB;" d="M314.66,406.069L314.66,406.069l-124.469-8.828c-5.297,0-8.828-4.414-7.945-9.71
		c0-5.297,4.414-8.828,9.71-7.945l123.586,8.828c5.297,0,8.828,4.414,7.945,9.71C323.487,402.538,319.073,406.069,314.66,406.069"/>
	<path style="fill:#C3C7CB;" d="M314.66,370.759L314.66,370.759l-124.469-8.828c-5.297,0-8.828-4.414-7.945-9.71
		c0-5.297,4.414-8.828,9.71-7.945l123.586,8.828c5.297,0,8.828,4.414,7.945,9.71C323.487,367.228,319.073,370.759,314.66,370.759"/>
	<path style="fill:#C3C7CB;" d="M314.66,335.448L314.66,335.448l-124.469-8.828c-5.297,0-8.828-4.414-7.945-9.71
		c0-5.297,4.414-8.828,9.71-7.945l123.586,8.828c5.297,0,8.828,4.414,7.945,9.71C323.487,331.917,319.073,335.448,314.66,335.448"/>
	<path style="fill:#C3C7CB;" d="M314.66,300.138L314.66,300.138l-124.469-8.828c-5.297,0-8.828-4.414-7.945-9.71
		c0-5.297,4.414-8.828,9.71-7.945l123.586,8.828c5.297,0,8.828,4.414,7.945,9.71C323.487,296.607,319.073,300.138,314.66,300.138"/>
	<path style="fill:#C3C7CB;" d="M314.66,264.828L314.66,264.828L190.191,256c-5.297,0-8.828-4.414-7.945-9.71
		c0-5.297,4.414-8.828,9.71-7.945l123.586,8.828c5.297,0,8.828,4.414,7.945,9.71C323.487,261.297,319.073,264.828,314.66,264.828"/>
	<path style="fill:#C3C7CB;" d="M314.66,229.517L314.66,229.517l-124.469-8.828c-5.297,0-8.828-4.414-7.945-9.71
		c0-5.297,4.414-8.828,9.71-7.945l123.586,8.828c5.297,0,8.828,4.414,7.945,9.71C323.487,225.986,319.073,229.517,314.66,229.517"/>
	<path style="fill:#C3C7CB;" d="M314.66,194.207L314.66,194.207l-124.469-8.828c-5.297,0-8.828-4.414-7.945-9.71
		c0-5.297,4.414-8.828,9.71-7.945l123.586,8.828c5.297,0,8.828,4.414,7.945,9.71C323.487,190.676,319.073,194.207,314.66,194.207"/>
</g>
<g>
</g>
<g>
</g>
<g>
</g>
<g>
</g>
<g>
</g>
<g>
</g>
<g>
</g>
<g>
</g>
<g>
</g>
<g>
</g>
<g>
</g>
<g>
</g>
<g>
</g>
<g>
</g>
<g>
</g>
</svg>
