<?xml version="1.0" encoding="iso-8859-1"?>
<!-- Generator: Adobe Illustrator 19.0.0, SVG Export Plug-In . SVG Version: 6.00 Build 0)  -->
<svg version="1.1" id="Layer_1" xmlns="http://www.w3.org/2000/svg" xmlns:xlink="http://www.w3.org/1999/xlink" x="0px" y="0px"
	 viewBox="0 0 506.919 506.919" style="enable-background:new 0 0 506.919 506.919;" xml:space="preserve">
<g>
	<path style="fill:#368CD6;" d="M303.004,341.186L166.177,204.359L363.032,6.621c8.828-8.828,22.069-8.828,30.897,0l106.814,106.814
		c7.945,7.945,7.945,22.069,0,30.014L303.004,341.186z"/>
	<path style="fill:#368CD6;" d="M241.211,403.862l-137.71-137.71l25.6-24.717l136.828,136.828L241.211,403.862z"/>
</g>
<path style="fill:#1767A3;" d="M265.929,378.262c-0.883-9.71-0.883-23.834,6.179-30.897c7.062-7.062,21.186-7.062,30.897-6.179
	L166.177,204.359c0.883,9.71,0.883,23.834-6.179,30.897c-7.062,7.062-21.186,7.062-30.897,6.179L265.929,378.262z"/>
<path style="fill:#C3C7CB;" d="M3.749,503.614L3.749,503.614c-3.531-4.414-4.414-9.71-2.648-14.124l0.883-0.883
	c5.297-10.593,12.359-20.303,21.186-29.131l12.359-12.359l24.717,24.717L48.77,483.31c-8.828,8.828-19.421,16.772-30.897,22.069
	C13.46,508.028,7.28,507.145,3.749,503.614"/>
<path style="fill:#E0E0E0;" d="M60.246,471.835l-24.717-24.717l124.469-124.469l24.717,24.717L60.246,471.835z"/>
<g>
	<path style="fill:#1767A3;" d="M259.749,256.441c-2.648,0-4.414-0.883-6.179-2.648c-3.531-3.531-3.531-8.828,0-12.359
		L415.997,79.007c3.531-3.531,8.828-3.531,12.359,0c3.531,3.531,3.531,8.828,0,12.359L265.929,253.793
		C264.163,255.559,262.397,256.441,259.749,256.441"/>
	<path style="fill:#1767A3;" d="M228.853,225.545c-2.648,0-4.414-0.883-6.179-2.648c-3.531-3.531-3.531-8.828,0-12.359
		L385.101,48.11c3.531-3.531,8.828-3.531,12.359,0c3.531,3.531,3.531,8.828,0,12.359L235.032,222.897
		C233.266,224.662,230.618,225.545,228.853,225.545"/>
	<path style="fill:#1767A3;" d="M290.646,287.338c-2.648,0-4.414-0.883-6.179-2.648c-3.531-3.531-3.531-8.828,0-12.359
		l162.428-162.428c3.531-3.531,8.828-3.531,12.359,0c3.531,3.531,3.531,8.828,0,12.359l-161.545,163.31
		C295.942,286.455,293.294,287.338,290.646,287.338"/>
</g>
<g>
</g>
<g>
</g>
<g>
</g>
<g>
</g>
<g>
</g>
<g>
</g>
<g>
</g>
<g>
</g>
<g>
</g>
<g>
</g>
<g>
</g>
<g>
</g>
<g>
</g>
<g>
</g>
<g>
</g>
</svg>
