<?xml version="1.0" encoding="iso-8859-1"?>
<!-- Generator: Adobe Illustrator 19.0.0, SVG Export Plug-In . SVG Version: 6.00 Build 0)  -->
<svg version="1.1" id="Layer_1" xmlns="http://www.w3.org/2000/svg" xmlns:xlink="http://www.w3.org/1999/xlink" x="0px" y="0px"
	 viewBox="0 0 512 512" style="enable-background:new 0 0 512 512;" xml:space="preserve">
<g transform="translate(0 -1)">
	<g>
		<path style="fill:#368CD6;" d="M141.241,177.552H52.966V36.31C52.966,16.89,68.855,1,88.276,1h17.655
			c19.421,0,35.31,15.89,35.31,35.31V177.552z"/>
		<path style="fill:#368CD6;" d="M52.966,265.828h88.276v-35.31H52.966V265.828z"/>
	</g>
	<path style="fill:#1767A3;" d="M141.241,230.517c-7.062-6.179-17.655-15.89-17.655-26.483s10.593-20.303,17.655-26.483H52.966
		c7.062,6.179,17.655,15.89,17.655,26.483s-10.593,20.303-17.655,26.483H141.241z"/>
	<path style="fill:#C3C7CB;" d="M97.103,415.897L97.103,415.897c-5.297,0-9.71-3.531-10.593-8.828l-7.062-35.31v-44.138h35.31
		v44.138l-7.062,35.31C106.814,412.366,102.4,415.897,97.103,415.897"/>
	<path style="fill:#E0E0E0;" d="M79.448,327.621h35.31v-61.793h-35.31V327.621z"/>
	<path style="fill:#1767A3;" d="M97.103,151.069c-5.297,0-8.828-3.531-8.828-8.828V36.31c0-5.297,3.531-8.828,8.828-8.828
		c5.297,0,8.828,3.531,8.828,8.828v105.931C105.931,147.538,102.4,151.069,97.103,151.069"/>
	<g>
		<path style="fill:#F4BA48;" d="M300.138,177.552h-88.276V36.31c0-19.421,15.89-35.31,35.31-35.31h17.655
			c19.421,0,35.31,15.89,35.31,35.31V177.552z"/>
		<path style="fill:#F4BA48;" d="M211.862,265.828h88.276v-35.31h-88.276V265.828z"/>
	</g>
	<path style="fill:#BD9139;" d="M300.138,230.517c-7.062-6.179-17.655-15.89-17.655-26.483s10.593-20.303,17.655-26.483h-88.276
		c7.062,6.179,17.655,15.89,17.655,26.483s-10.593,20.303-17.655,26.483H300.138z"/>
	<path style="fill:#C3C7CB;" d="M282.483,477.69h-52.966v-35.31l8.828-17.655h35.31l8.828,17.655V477.69z"/>
	<path style="fill:#E0E0E0;" d="M273.655,424.724h-35.31V265.828h35.31V424.724z"/>
	<path style="fill:#BD9139;" d="M256,151.069c-5.297,0-8.828-3.531-8.828-8.828V36.31c0-5.297,3.531-8.828,8.828-8.828
		c5.297,0,8.828,3.531,8.828,8.828v105.931C264.828,147.538,261.297,151.069,256,151.069"/>
	<g>
		<path style="fill:#E85A4B;" d="M459.034,177.552h-88.276V36.31c0-19.421,15.89-35.31,35.31-35.31h17.655
			c19.421,0,35.31,15.89,35.31,35.31V177.552z"/>
		<path style="fill:#E85A4B;" d="M370.759,265.828h88.276v-35.31h-88.276V265.828z"/>
	</g>
	<path style="fill:#BC342E;" d="M459.034,230.517c-7.062-6.179-17.655-15.89-17.655-26.483s10.593-20.303,17.655-26.483h-88.276
		c7.062,6.179,17.655,15.89,17.655,26.483s-10.593,20.303-17.655,26.483H459.034z"/>
	<path style="fill:#C3C7CB;" d="M423.724,513h-17.655l-17.655-44.138l8.828-44.138h35.31l8.828,44.138L423.724,513z"/>
	<path style="fill:#E0E0E0;" d="M397.241,424.724h35.31V265.828h-35.31V424.724z"/>
	<path style="fill:#BC342E;" d="M414.897,151.069c-5.297,0-8.828-3.531-8.828-8.828V36.31c0-5.297,3.531-8.828,8.828-8.828
		s8.828,3.531,8.828,8.828v105.931C423.724,147.538,420.193,151.069,414.897,151.069"/>
</g>
<g>
</g>
<g>
</g>
<g>
</g>
<g>
</g>
<g>
</g>
<g>
</g>
<g>
</g>
<g>
</g>
<g>
</g>
<g>
</g>
<g>
</g>
<g>
</g>
<g>
</g>
<g>
</g>
<g>
</g>
</svg>
