<?xml version="1.0" encoding="iso-8859-1"?>
<!-- Generator: Adobe Illustrator 19.0.0, SVG Export Plug-In . SVG Version: 6.00 Build 0)  -->
<svg version="1.1" id="Layer_1" xmlns="http://www.w3.org/2000/svg" xmlns:xlink="http://www.w3.org/1999/xlink" x="0px" y="0px"
	 viewBox="0 0 511.338 511.338" style="enable-background:new 0 0 511.338 511.338;" xml:space="preserve">
<g>
	<path style="fill:#E85A4B;" d="M314.262,333.903L177.434,197.076L346.041,28.469C384-9.49,445.793-9.49,482.869,28.469
		c37.959,37.959,37.959,98.869,0,136.828L314.262,333.903z"/>
	<path style="fill:#E85A4B;" d="M253.352,396.579l-137.71-137.71l24.717-24.717l136.828,136.828L253.352,396.579z"/>
</g>
<path style="fill:#BC342E;" d="M277.186,371.862c-0.883-9.71-0.883-23.834,6.179-30.897c7.062-7.062,21.186-7.945,30.897-7.062
	L177.434,197.076c0.883,9.71,0.883,23.835-6.179,30.897s-21.186,7.062-30.897,6.179L277.186,371.862z"/>
<path style="fill:#C3C7CB;" d="M12.359,511.338L0,498.979l18.538-44.138l37.959-24.717l24.717,24.717l-24.717,37.076L12.359,511.338
	z"/>
<path style="fill:#E0E0E0;" d="M81.214,454.841l-24.717-24.717l114.759-114.759l24.717,24.717L81.214,454.841z"/>
<g>
	<path style="fill:#BC342E;" d="M273.655,246.51c-2.648,0-4.414-0.883-6.179-2.648c-3.531-3.531-3.531-8.828,0-12.359
		L452.855,46.124c3.531-3.531,8.828-3.531,12.359,0c3.531,3.531,3.531,8.828,0,12.359L279.835,243.862
		C278.069,245.628,276.303,246.51,273.655,246.51"/>
	<path style="fill:#BC342E;" d="M238.345,220.028c-2.648,0-4.414-0.883-6.179-2.648c-3.531-3.531-3.531-8.828,0-12.359
		L399.89,37.297c3.531-3.531,8.828-3.531,12.359,0c3.531,3.531,3.531,8.828,0,12.359L244.524,217.379
		C242.759,219.145,240.993,220.028,238.345,220.028"/>
	<path style="fill:#BC342E;" d="M300.138,281.821c-2.648,0-4.414-0.883-6.179-2.648c-3.531-3.531-3.531-8.828,0-12.359
		L461.683,99.09c3.531-3.531,8.828-3.531,12.359,0c3.531,3.531,3.531,8.828,0,12.359L306.317,279.172
		C304.552,280.938,302.786,281.821,300.138,281.821"/>
</g>
<g>
</g>
<g>
</g>
<g>
</g>
<g>
</g>
<g>
</g>
<g>
</g>
<g>
</g>
<g>
</g>
<g>
</g>
<g>
</g>
<g>
</g>
<g>
</g>
<g>
</g>
<g>
</g>
<g>
</g>
</svg>
