<?xml version="1.0" encoding="iso-8859-1"?>
<!-- Generator: Adobe Illustrator 19.0.0, SVG Export Plug-In . SVG Version: 6.00 Build 0)  -->
<svg version="1.1" id="Layer_1" xmlns="http://www.w3.org/2000/svg" xmlns:xlink="http://www.w3.org/1999/xlink" x="0px" y="0px"
	 viewBox="0 0 512 512" style="enable-background:new 0 0 512 512;" xml:space="preserve">
<g>
	<path style="fill:#E8EDEE;" d="M299.39,112.814h-34.712V17.356C264.678,7.81,272.488,0,282.034,0
		c9.546,0,17.356,7.81,17.356,17.356V112.814z"/>
	<path style="fill:#E8EDEE;" d="M438.237,112.814h34.712V17.356C472.949,7.81,465.139,0,455.593,0s-17.356,7.81-17.356,17.356
		V112.814z"/>
	<path style="fill:#E8EDEE;" d="M368.814,512c-5.207,0-8.678-3.471-8.678-8.678v-43.39c0-5.207,3.471-8.678,8.678-8.678
		c5.207,0,8.678,3.471,8.678,8.678v43.39C377.492,508.529,374.02,512,368.814,512"/>
</g>
<path style="fill:#9AACB2;" d="M316.746,425.22L316.746,425.22c0,19.092,15.62,34.712,34.712,34.712h34.712
	c19.092,0,34.712-15.62,34.712-34.712v-22.563c0-41.654,15.62-81.573,43.39-111.946l0,0c27.77-30.373,43.39-70.292,43.39-111.946
	v-65.953H229.966v65.953c0,41.654,15.62,81.573,43.39,111.946c27.77,30.373,43.39,71.159,43.39,111.946V425.22z"/>
<path style="fill:#E8EDEE;" d="M273.356,290.712c-25.166-27.77-39.919-62.481-42.522-99.797H47.729
	c-24.298,0-43.39,19.092-43.39,43.39v225.627c0,24.298,19.092,43.39,43.39,43.39h225.627c24.298,0,43.39-19.092,43.39-43.39V425.22
	v-22.563C316.746,361.871,301.125,321.085,273.356,290.712"/>
<path style="fill:#CBD4D8;" d="M273.356,290.712c-17.356-19.092-29.505-40.786-36.447-65.085H60.746
	c-12.149,0-21.695,9.546-21.695,21.695v199.593c0,12.149,9.546,21.695,21.695,21.695h199.593c12.149,0,21.695-9.546,21.695-21.695
	v-145.79C279.431,297.654,276.827,294.183,273.356,290.712"/>
<g>
	<path style="fill:#E8EDEE;" d="M429.559,199.593H308.068c-5.207,0-8.678-3.471-8.678-8.678s3.471-8.678,8.678-8.678h121.492
		c5.207,0,8.678,3.471,8.678,8.678S434.766,199.593,429.559,199.593"/>
	<path style="fill:#E8EDEE;" d="M429.559,234.305H308.068c-5.207,0-8.678-3.471-8.678-8.678s3.471-8.678,8.678-8.678h121.492
		c5.207,0,8.678,3.471,8.678,8.678S434.766,234.305,429.559,234.305"/>
	<path style="fill:#E8EDEE;" d="M238.644,347.119c0-43.39-34.712-78.102-78.102-78.102s-78.102,34.712-78.102,78.102
		s34.712,78.102,78.102,78.102S238.644,390.508,238.644,347.119"/>
</g>
<g>
	<path style="fill:#38454F;" d="M151.864,347.119c0-9.546-7.81-17.356-17.356-17.356c-9.546,0-17.356,7.81-17.356,17.356
		s7.81,17.356,17.356,17.356C144.054,364.475,151.864,356.664,151.864,347.119"/>
	<path style="fill:#38454F;" d="M203.932,347.119c0-9.546-7.81-17.356-17.356-17.356c-9.546,0-17.356,7.81-17.356,17.356
		s7.81,17.356,17.356,17.356C196.122,364.475,203.932,356.664,203.932,347.119"/>
</g>
<g>
	<path style="fill:#D3AA6E;" d="M160.542,269.017c-2.603,0-6.075,0-8.678,0.868v16.488c0,5.207,3.471,8.678,8.678,8.678
		s8.678-3.471,8.678-8.678v-16.488C166.617,269.017,163.146,269.017,160.542,269.017"/>
	<path style="fill:#D3AA6E;" d="M160.542,399.186c-5.207,0-8.678,3.471-8.678,8.678v16.488c2.603,0,6.075,0.868,8.678,0.868
		s6.075,0,8.678-0.868v-16.488C169.22,402.658,165.749,399.186,160.542,399.186"/>
</g>
<g>
</g>
<g>
</g>
<g>
</g>
<g>
</g>
<g>
</g>
<g>
</g>
<g>
</g>
<g>
</g>
<g>
</g>
<g>
</g>
<g>
</g>
<g>
</g>
<g>
</g>
<g>
</g>
<g>
</g>
</svg>
