<?xml version="1.0" encoding="iso-8859-1"?>
<!-- Generator: Adobe Illustrator 19.0.0, SVG Export Plug-In . SVG Version: 6.00 Build 0)  -->
<svg version="1.1" id="Layer_1" xmlns="http://www.w3.org/2000/svg" xmlns:xlink="http://www.w3.org/1999/xlink" x="0px" y="0px"
	 viewBox="0 0 512 512" style="enable-background:new 0 0 512 512;" xml:space="preserve">
<path style="fill:#E8EDEE;" d="M0,397.241V114.759c0-24.717,19.421-44.138,44.138-44.138h423.724
	c24.717,0,44.138,19.421,44.138,44.138v282.483c0,24.717-19.421,44.138-44.138,44.138H44.138C19.421,441.379,0,421.959,0,397.241"/>
<path style="fill:#CBD4D8;" d="M57.379,105.931h397.241c12.359,0,22.069,9.71,22.069,22.069v256c0,12.359-9.71,22.069-22.069,22.069
	H57.379c-12.359,0-22.069-9.71-22.069-22.069V128C35.31,115.641,45.021,105.931,57.379,105.931"/>
<g>
	<path style="fill:#E8EDEE;" d="M70.621,335.448h158.897V176.552H70.621V335.448z"/>
	<path style="fill:#E8EDEE;" d="M282.483,335.448h158.897V176.552H282.483V335.448z"/>
</g>
<g>
	<path style="fill:#38454F;" d="M114.759,247.172c-5.297,0-8.828-3.531-8.828-8.828v-26.483c0-5.297,3.531-8.828,8.828-8.828
		s8.828,3.531,8.828,8.828v26.483C123.586,243.641,120.055,247.172,114.759,247.172"/>
	<path style="fill:#38454F;" d="M185.379,247.172c-5.297,0-8.828-3.531-8.828-8.828v-26.483c0-5.297,3.531-8.828,8.828-8.828
		s8.828,3.531,8.828,8.828v26.483C194.207,243.641,190.676,247.172,185.379,247.172"/>
	<path style="fill:#38454F;" d="M150.069,308.966c-5.297,0-8.828-3.531-8.828-8.828v-17.655c0-5.297,3.531-8.828,8.828-8.828
		s8.828,3.531,8.828,8.828v17.655C158.897,305.434,155.366,308.966,150.069,308.966"/>
	<path style="fill:#38454F;" d="M326.621,247.172c-5.297,0-8.828-3.531-8.828-8.828v-26.483c0-5.297,3.531-8.828,8.828-8.828
		s8.828,3.531,8.828,8.828v26.483C335.448,243.641,331.917,247.172,326.621,247.172"/>
	<path style="fill:#38454F;" d="M397.241,247.172c-5.297,0-8.828-3.531-8.828-8.828v-26.483c0-5.297,3.531-8.828,8.828-8.828
		c5.297,0,8.828,3.531,8.828,8.828v26.483C406.069,243.641,402.538,247.172,397.241,247.172"/>
	<path style="fill:#38454F;" d="M361.931,308.966c-5.297,0-8.828-3.531-8.828-8.828v-17.655c0-5.297,3.531-8.828,8.828-8.828
		s8.828,3.531,8.828,8.828v17.655C370.759,305.434,367.228,308.966,361.931,308.966"/>
</g>
<g>
</g>
<g>
</g>
<g>
</g>
<g>
</g>
<g>
</g>
<g>
</g>
<g>
</g>
<g>
</g>
<g>
</g>
<g>
</g>
<g>
</g>
<g>
</g>
<g>
</g>
<g>
</g>
<g>
</g>
</svg>
