<?xml version="1.0" encoding="iso-8859-1"?>
<!-- Generator: Adobe Illustrator 19.0.0, SVG Export Plug-In . SVG Version: 6.00 Build 0)  -->
<svg version="1.1" id="Layer_1" xmlns="http://www.w3.org/2000/svg" xmlns:xlink="http://www.w3.org/1999/xlink" x="0px" y="0px"
	 viewBox="0 0 512 512" style="enable-background:new 0 0 512 512;" xml:space="preserve">
<path style="fill:#E8EDEE;" d="M370.759,0H141.241c-24.717,0-44.138,19.421-44.138,44.138v229.517
	c0,24.717,19.421,44.138,44.138,44.138h61.793v-35.31c0-9.71,7.945-17.655,17.655-17.655c9.71,0,17.655,7.945,17.655,17.655v35.31
	h35.31v-35.31c0-9.71,7.945-17.655,17.655-17.655c9.71,0,17.655,7.945,17.655,17.655v35.31h61.793
	c24.717,0,44.138-19.421,44.138-44.138V44.138C414.897,19.421,395.476,0,370.759,0"/>
<path style="fill:#CBD4D8;" d="M357.517,35.31H154.483c-12.359,0-22.069,9.71-22.069,22.069v203.034
	c0,12.359,9.71,22.069,22.069,22.069h48.552c0-9.71,7.945-17.655,17.655-17.655c9.71,0,17.655,7.945,17.655,17.655h35.31
	c0-9.71,7.945-17.655,17.655-17.655c9.71,0,17.655,7.945,17.655,17.655h48.552c12.359,0,22.069-9.71,22.069-22.069V57.379
	C379.586,45.021,369.876,35.31,357.517,35.31"/>
<g>
	<path style="fill:#9AACB2;" d="M220.69,264.828L220.69,264.828c-9.71,0-17.655,7.945-17.655,17.655v70.621h35.31v-70.621
		C238.345,272.772,230.4,264.828,220.69,264.828"/>
	<path style="fill:#9AACB2;" d="M291.31,264.828L291.31,264.828c-9.71,0-17.655,7.945-17.655,17.655v70.621h35.31v-70.621
		C308.966,272.772,301.021,264.828,291.31,264.828"/>
</g>
<g>
	<path style="fill:#E8EDEE;" d="M264.828,512h-17.655c-15.007,0-26.483-11.476-26.483-26.483c0-22.952-6.179-45.903-17.655-66.207
		v-0.883c-11.476-20.303-17.655-43.255-17.655-66.207h141.241c0,22.952-6.179,45.903-17.655,66.207v0.883
		c-11.476,20.303-17.655,43.255-17.655,66.207C291.31,500.524,279.835,512,264.828,512"/>
	<path style="fill:#E8EDEE;" d="M335.448,158.897c0-44.138-35.31-79.448-79.448-79.448s-79.448,35.31-79.448,79.448
		s35.31,79.448,79.448,79.448S335.448,203.034,335.448,158.897"/>
</g>
<g>
	<path style="fill:#38454F;" d="M247.172,158.897c0-9.71-7.945-17.655-17.655-17.655c-9.71,0-17.655,7.945-17.655,17.655
		c0,9.71,7.945,17.655,17.655,17.655C239.228,176.552,247.172,168.607,247.172,158.897"/>
	<path style="fill:#38454F;" d="M300.138,158.897c0-9.71-7.945-17.655-17.655-17.655s-17.655,7.945-17.655,17.655
		c0,9.71,7.945,17.655,17.655,17.655S300.138,168.607,300.138,158.897"/>
</g>
<g>
	<path style="fill:#D3AA6E;" d="M256,79.448c-2.648,0-6.179,0-8.828,0.883v16.772c0,5.297,3.531,8.828,8.828,8.828
		c5.297,0,8.828-3.531,8.828-8.828V80.331C262.179,79.448,258.648,79.448,256,79.448"/>
	<path style="fill:#D3AA6E;" d="M256,238.345c2.648,0,6.179,0,8.828-0.883V220.69c0-5.297-3.531-8.828-8.828-8.828
		c-5.297,0-8.828,3.531-8.828,8.828v16.772C249.821,238.345,253.352,238.345,256,238.345"/>
</g>
<g>
</g>
<g>
</g>
<g>
</g>
<g>
</g>
<g>
</g>
<g>
</g>
<g>
</g>
<g>
</g>
<g>
</g>
<g>
</g>
<g>
</g>
<g>
</g>
<g>
</g>
<g>
</g>
<g>
</g>
</svg>
