<?xml version="1.0" encoding="iso-8859-1"?>
<!-- Generator: Adobe Illustrator 19.0.0, SVG Export Plug-In . SVG Version: 6.00 Build 0)  -->
<svg version="1.1" id="Layer_1" xmlns="http://www.w3.org/2000/svg" xmlns:xlink="http://www.w3.org/1999/xlink" x="0px" y="0px"
	 viewBox="0 0 512 512" style="enable-background:new 0 0 512 512;" xml:space="preserve">
<path style="fill:#E8EDEE;" d="M397.241,512H114.759c-24.717,0-44.138-19.421-44.138-44.138V44.138
	C70.621,19.421,90.041,0,114.759,0h282.483c24.717,0,44.138,19.421,44.138,44.138v423.724C441.379,492.579,421.959,512,397.241,512"
	/>
<path style="fill:#CBD4D8;" d="M105.931,454.621V57.379c0-12.359,9.71-22.069,22.069-22.069h256c12.359,0,22.069,9.71,22.069,22.069
	v397.241c0,12.359-9.71,22.069-22.069,22.069H128C115.641,476.69,105.931,466.979,105.931,454.621"/>
<g>
	<path style="fill:#E8EDEE;" d="M335.448,150.069c0-44.138-35.31-79.448-79.448-79.448s-79.448,35.31-79.448,79.448
		s35.31,79.448,79.448,79.448S335.448,194.207,335.448,150.069"/>
	<path style="fill:#E8EDEE;" d="M335.448,361.931c0-44.138-35.31-79.448-79.448-79.448s-79.448,35.31-79.448,79.448
		s35.31,79.448,79.448,79.448S335.448,406.069,335.448,361.931"/>
</g>
<g>
	<path style="fill:#38454F;" d="M247.172,150.069c0-9.71-7.945-17.655-17.655-17.655c-9.71,0-17.655,7.945-17.655,17.655
		c0,9.71,7.945,17.655,17.655,17.655C239.228,167.724,247.172,159.779,247.172,150.069"/>
	<path style="fill:#38454F;" d="M300.138,150.069c0-9.71-7.945-17.655-17.655-17.655s-17.655,7.945-17.655,17.655
		c0,9.71,7.945,17.655,17.655,17.655S300.138,159.779,300.138,150.069"/>
	<path style="fill:#38454F;" d="M247.172,361.931c0-9.71-7.945-17.655-17.655-17.655c-9.71,0-17.655,7.945-17.655,17.655
		s7.945,17.655,17.655,17.655C239.228,379.586,247.172,371.641,247.172,361.931"/>
	<path style="fill:#38454F;" d="M300.138,361.931c0-9.71-7.945-17.655-17.655-17.655s-17.655,7.945-17.655,17.655
		s7.945,17.655,17.655,17.655S300.138,371.641,300.138,361.931"/>
</g>
<g>
	<path style="fill:#D3AA6E;" d="M256,70.621c-2.648,0-6.179,0-8.828,0.883v16.772c0,5.297,3.531,8.828,8.828,8.828
		c5.297,0,8.828-3.531,8.828-8.828V71.503C262.179,70.621,258.648,70.621,256,70.621"/>
	<path style="fill:#D3AA6E;" d="M256,203.034c-5.297,0-8.828,3.531-8.828,8.828v16.772c2.648,0,6.179,0.883,8.828,0.883
		c2.648,0,6.179,0,8.828-0.883v-16.772C264.828,206.566,261.297,203.034,256,203.034"/>
	<path style="fill:#D3AA6E;" d="M256,282.483c-2.648,0-6.179,0-8.828,0.883v16.772c0,5.297,3.531,8.828,8.828,8.828
		c5.297,0,8.828-3.531,8.828-8.828v-16.772C262.179,282.483,258.648,282.483,256,282.483"/>
	<path style="fill:#D3AA6E;" d="M256,414.897c-5.297,0-8.828,3.531-8.828,8.828v16.772c2.648,0,6.179,0.883,8.828,0.883
		c2.648,0,6.179,0,8.828-0.883v-16.772C264.828,418.428,261.297,414.897,256,414.897"/>
</g>
<g>
</g>
<g>
</g>
<g>
</g>
<g>
</g>
<g>
</g>
<g>
</g>
<g>
</g>
<g>
</g>
<g>
</g>
<g>
</g>
<g>
</g>
<g>
</g>
<g>
</g>
<g>
</g>
<g>
</g>
</svg>
