<?xml version="1.0" encoding="iso-8859-1"?>
<!-- Generator: Adobe Illustrator 19.0.0, SVG Export Plug-In . SVG Version: 6.00 Build 0)  -->
<svg version="1.1" id="Layer_1" xmlns="http://www.w3.org/2000/svg" xmlns:xlink="http://www.w3.org/1999/xlink" x="0px" y="0px"
	 viewBox="0 0 512 512" style="enable-background:new 0 0 512 512;" xml:space="preserve">
<path id="SVGCleanerId_0" style="fill:#CBD4D8;" d="M97.103,256H256V97.103H97.103V256z"/>
<path id="SVGCleanerId_1" style="fill:#38454F;" d="M203.034,176.552c0-15.007-11.476-26.483-26.483-26.483
	c-15.007,0-26.483,11.476-26.483,26.483c0,15.007,11.476,26.483,26.483,26.483C191.559,203.034,203.034,191.559,203.034,176.552"/>
<path style="fill:#E8EDEE;" d="M485.517,512H26.483C11.476,512,0,500.524,0,485.517V26.483C0,11.476,11.476,0,26.483,0h459.034
	C500.524,0,512,11.476,512,26.483v459.034C512,500.524,500.524,512,485.517,512"/>
<g>
	<path style="fill:#CBD4D8;" d="M61.793,44.138c0-9.71-7.945-17.655-17.655-17.655s-17.655,7.945-17.655,17.655
		s7.945,17.655,17.655,17.655S61.793,53.848,61.793,44.138"/>
	<path style="fill:#CBD4D8;" d="M61.793,467.862c0-9.71-7.945-17.655-17.655-17.655s-17.655,7.945-17.655,17.655
		s7.945,17.655,17.655,17.655S61.793,477.572,61.793,467.862"/>
	<path style="fill:#CBD4D8;" d="M485.517,44.138c0-9.71-7.945-17.655-17.655-17.655s-17.655,7.945-17.655,17.655
		s7.945,17.655,17.655,17.655S485.517,53.848,485.517,44.138"/>
	<path style="fill:#CBD4D8;" d="M485.517,467.862c0-9.71-7.945-17.655-17.655-17.655s-17.655,7.945-17.655,17.655
		s7.945,17.655,17.655,17.655S485.517,477.572,485.517,467.862"/>
</g>
<g>
	<path id="SVGCleanerId_0_1_" style="fill:#CBD4D8;" d="M97.103,256H256V97.103H97.103V256z"/>
</g>
<path style="fill:#9AACB2;" d="M97.986,414.897h158.897V256H97.986V414.897z"/>
<g>
	<path id="SVGCleanerId_1_1_" style="fill:#38454F;" d="M203.034,176.552c0-15.007-11.476-26.483-26.483-26.483
		c-15.007,0-26.483,11.476-26.483,26.483c0,15.007,11.476,26.483,26.483,26.483C191.559,203.034,203.034,191.559,203.034,176.552"/>
</g>
<path style="fill:#9AACB2;" d="M256,256h158.897V97.103H256V256z"/>
<path style="fill:#CBD4D8;" d="M256,414.897h158.897V256H256V414.897z"/>
<path style="fill:#38454F;" d="M361.931,176.552c0-15.007-11.476-26.483-26.483-26.483s-26.483,11.476-26.483,26.483
	c0,15.007,11.476,26.483,26.483,26.483S361.931,191.559,361.931,176.552"/>
<g>
</g>
<g>
</g>
<g>
</g>
<g>
</g>
<g>
</g>
<g>
</g>
<g>
</g>
<g>
</g>
<g>
</g>
<g>
</g>
<g>
</g>
<g>
</g>
<g>
</g>
<g>
</g>
<g>
</g>
</svg>
