<?xml version="1.0" encoding="iso-8859-1"?>
<!-- Generator: Adobe Illustrator 19.0.0, SVG Export Plug-In . SVG Version: 6.00 Build 0)  -->
<svg version="1.1" id="Layer_1" xmlns="http://www.w3.org/2000/svg" xmlns:xlink="http://www.w3.org/1999/xlink" x="0px" y="0px"
	 viewBox="0 0 512 512" style="enable-background:new 0 0 512 512;" xml:space="preserve">
<g>
	<path style="fill:#7F7C79;" d="M485.517,180.966c-5.297,0-8.828-3.531-8.828-8.828v-52.966c0-5.297,3.531-8.828,8.828-8.828
		s8.828,3.531,8.828,8.828v52.966C494.345,177.434,490.814,180.966,485.517,180.966"/>
	<path style="fill:#7F7C79;" d="M485.517,375.172c-5.297,0-8.828-3.531-8.828-8.828V225.103c0-5.297,3.531-8.828,8.828-8.828
		s8.828,3.531,8.828,8.828v141.241C494.345,371.641,490.814,375.172,485.517,375.172"/>
</g>
<path style="fill:#565656;" d="M459.034,225.103H512v-52.966h-52.966V225.103z"/>
<path style="fill:#7F7C79;" d="M423.724,216.276h35.31v-35.31h-35.31V216.276z"/>
<g>
	<path style="fill:#565656;" d="M503.172,110.345V92.69c0-5.297-4.414-8.828-8.828-8.828H476.69c-5.297,0-8.828,4.414-8.828,8.828
		v17.655c0,5.297,4.414,8.828,8.828,8.828h17.655C498.759,119.172,503.172,114.759,503.172,110.345"/>
	<path style="fill:#565656;" d="M503.172,392.828v-17.655c0-5.297-4.414-8.828-8.828-8.828H476.69c-5.297,0-8.828,4.414-8.828,8.828
		v17.655c0,5.297,4.414,8.828,8.828,8.828h17.655C498.759,401.655,503.172,397.241,503.172,392.828"/>
</g>
<g>
	<path style="fill:#7F7C79;" d="M88.276,216.276h97.103v-35.31H88.276V216.276z"/>
	<path style="fill:#7F7C79;" d="M0,198.621L0,198.621c0-9.71,7.945-17.655,17.655-17.655H35.31v35.31H17.655
		C7.945,216.276,0,208.331,0,198.621"/>
</g>
<g>
	<path style="fill:#565656;" d="M185.379,242.759h35.31v-88.276h-35.31V242.759z"/>
	<path style="fill:#565656;" d="M273.655,242.759h35.31v-88.276h-35.31V242.759z"/>
</g>
<path style="fill:#7F7C79;" d="M308.966,216.276h61.793v-35.31h-61.793V216.276z"/>
<path style="fill:#514439;" d="M397.241,83.862L397.241,83.862c-15.007,0-26.483,11.476-26.483,26.483v211.862
	c0,9.71-7.945,17.655-17.655,17.655h-256c-9.71,0-8.828-7.945-8.828-17.655V110.345c0-15.007-11.476-26.483-26.483-26.483
	S35.31,95.338,35.31,110.345v282.483c0,19.421,15.89,35.31,35.31,35.31h317.793c19.421,0,35.31-15.89,35.31-35.31V110.345
	C423.724,95.338,412.248,83.862,397.241,83.862"/>
<g>
	<path style="fill:#565656;" d="M335.448,242.759h-0.883c-4.414-0.883-7.945-5.297-7.945-9.71l8.828-70.621
		c0.883-4.414,5.297-7.945,9.71-7.945c4.414,0.883,7.945,5.297,7.945,9.71l-8.828,70.621
		C343.393,239.228,339.862,242.759,335.448,242.759"/>
	<path style="fill:#565656;" d="M150.069,242.759h-0.883c-4.414-0.883-7.945-5.297-7.945-9.71l8.828-70.621
		c0.883-4.414,5.297-7.945,9.71-7.945c4.414,0.883,7.945,5.297,7.945,9.71l-8.828,70.621
		C158.014,239.228,154.483,242.759,150.069,242.759"/>
	<path style="fill:#565656;" d="M114.759,242.759h-0.883c-4.414-0.883-7.945-5.297-7.945-9.71l8.828-70.621
		c0.883-4.414,5.297-7.945,9.71-7.945c4.414,0.883,7.945,5.297,7.945,9.71l-8.828,70.621
		C122.703,239.228,119.172,242.759,114.759,242.759"/>
</g>
<g>
</g>
<g>
</g>
<g>
</g>
<g>
</g>
<g>
</g>
<g>
</g>
<g>
</g>
<g>
</g>
<g>
</g>
<g>
</g>
<g>
</g>
<g>
</g>
<g>
</g>
<g>
</g>
<g>
</g>
</svg>
