<?xml version="1.0" encoding="iso-8859-1"?>
<!-- Generator: Adobe Illustrator 19.0.0, SVG Export Plug-In . SVG Version: 6.00 Build 0)  -->
<svg version="1.1" id="Layer_1" xmlns="http://www.w3.org/2000/svg" xmlns:xlink="http://www.w3.org/1999/xlink" x="0px" y="0px"
	 viewBox="0 0 512 512" style="enable-background:new 0 0 512 512;" xml:space="preserve">
<g>
	<path style="fill:#565656;" d="M295.724,494.345h-35.31c-5.297,0-8.828-3.531-8.828-8.828s3.531-8.828,8.828-8.828h35.31
		c5.297,0,8.828,3.531,8.828,8.828S301.021,494.345,295.724,494.345"/>
	<path style="fill:#565656;" d="M384,494.345h-35.31c-5.297,0-8.828-3.531-8.828-8.828s3.531-8.828,8.828-8.828H384
		c5.297,0,8.828,3.531,8.828,8.828S389.297,494.345,384,494.345"/>
	<path style="fill:#565656;" d="M357.517,176.552h-70.621l-8.828-35.31h88.276L357.517,176.552z"/>
</g>
<g>
	<path style="fill:#7F7C79;" d="M295.724,379.586h52.966V176.552h-52.966V379.586z"/>
	<path style="fill:#7F7C79;" d="M295.724,431.669V512h52.966V411.366C331.917,420.193,314.262,427.255,295.724,431.669"/>
</g>
<g>
	<path style="fill:#565656;" d="M366.345,247.172C366.345,247.172,365.462,247.172,366.345,247.172l-89.159-8.828
		c-4.414-0.883-8.828-4.414-7.945-9.71c0.883-4.414,4.414-8.828,9.71-7.945l88.276,8.828c4.414,0.883,8.828,4.414,7.945,9.71
		C374.29,243.641,370.759,247.172,366.345,247.172"/>
	<path style="fill:#565656;" d="M366.345,282.483h-0.883l-88.276-8.828c-4.414-0.883-7.945-4.414-7.945-9.71
		c0.883-4.414,4.414-7.945,9.71-7.945l88.276,8.828c4.414,0.883,8.828,4.414,7.945,9.71
		C374.29,278.952,370.759,282.483,366.345,282.483"/>
	<path style="fill:#565656;" d="M366.345,317.793h-0.883l-88.276-8.828c-4.414-0.883-7.945-4.414-7.945-9.71
		c0.883-4.414,4.414-7.945,9.71-7.945l88.276,8.828c4.414,0.883,8.828,4.414,7.945,9.71
		C374.29,314.262,370.759,317.793,366.345,317.793"/>
	<path style="fill:#565656;" d="M366.345,353.103h-0.883l-88.276-8.828c-4.414-0.883-7.945-4.414-7.945-9.71
		c0.883-4.414,4.414-7.945,9.71-7.945l88.276,8.828c4.414,0.883,8.828,4.414,7.945,9.71
		C374.29,349.572,370.759,353.103,366.345,353.103"/>
</g>
<path id="SVGCleanerId_0" style="fill:#514439;" d="M163.31,0c-44.138,0-79.448,35.31-79.448,79.448v282.483
	c0,44.138,36.193,79.448,79.448,79.448h61.793c47.669,0,94.455-12.359,135.062-36.193l15.007-7.945v-17.655H217.159
	c-24.717,0-45.021-20.303-45.021-45.021V105.931c0-24.717,19.421-44.138,44.138-44.138h61.793v26.483h88.276v-25.6
	C332.8,22.952,284.248,0,232.166,0H163.31z"/>
<g>
	<path id="SVGCleanerId_0_1_" style="fill:#514439;" d="M163.31,0c-44.138,0-79.448,35.31-79.448,79.448v282.483
		c0,44.138,36.193,79.448,79.448,79.448h61.793c47.669,0,94.455-12.359,135.062-36.193l15.007-7.945v-17.655H217.159
		c-24.717,0-45.021-20.303-45.021-45.021V105.931c0-24.717,19.421-44.138,44.138-44.138h61.793v26.483h88.276v-25.6
		C332.8,22.952,284.248,0,232.166,0H163.31z"/>
</g>
<g>
	<path style="fill:#7F7C79;" d="M260.414,485.517c0-12.359-9.71-22.069-22.069-22.069c-12.359,0-22.069,9.71-22.069,22.069
		s9.71,22.069,22.069,22.069C250.703,507.586,260.414,497.876,260.414,485.517"/>
	<path style="fill:#7F7C79;" d="M384,485.517c0,12.359,9.71,22.069,22.069,22.069s22.069-9.71,22.069-22.069
		s-9.71-22.069-22.069-22.069S384,473.159,384,485.517"/>
</g>
<g>
</g>
<g>
</g>
<g>
</g>
<g>
</g>
<g>
</g>
<g>
</g>
<g>
</g>
<g>
</g>
<g>
</g>
<g>
</g>
<g>
</g>
<g>
</g>
<g>
</g>
<g>
</g>
<g>
</g>
</svg>
