<?xml version="1.0" encoding="iso-8859-1"?>
<!-- Generator: Adobe Illustrator 19.0.0, SVG Export Plug-In . SVG Version: 6.00 Build 0)  -->
<svg version="1.1" id="Layer_1" xmlns="http://www.w3.org/2000/svg" xmlns:xlink="http://www.w3.org/1999/xlink" x="0px" y="0px"
	 viewBox="0 0 512 512" style="enable-background:new 0 0 512 512;" xml:space="preserve">
<path style="fill:#F4BA48;" d="M361.931,512H150.069c-24.717,0-44.138-19.421-44.138-44.138V44.138
	C105.931,19.421,125.352,0,150.069,0h211.862c24.717,0,44.138,19.421,44.138,44.138v423.724
	C406.069,492.579,386.648,512,361.931,512"/>
<path style="fill:#75B93F;" d="M344.276,229.517H167.724c-9.71,0-17.655-7.945-17.655-17.655V70.621
	c0-9.71,7.945-17.655,17.655-17.655h176.552c9.71,0,17.655,7.945,17.655,17.655v141.241
	C361.931,221.572,353.986,229.517,344.276,229.517"/>
<g>
	<path style="fill:#2C3C42;" d="M167.724,264.828L167.724,264.828c-15.007,0-26.483,11.476-26.483,26.483
		c0,15.007,11.476,26.483,26.483,26.483s26.483-11.476,26.483-26.483C194.207,276.303,182.731,264.828,167.724,264.828"/>
	<path style="fill:#2C3C42;" d="M256,264.828L256,264.828c-15.007,0-26.483,11.476-26.483,26.483
		c0,15.007,11.476,26.483,26.483,26.483s26.483-11.476,26.483-26.483C282.483,276.303,271.007,264.828,256,264.828"/>
	<path style="fill:#2C3C42;" d="M344.276,264.828L344.276,264.828c-15.007,0-26.483,11.476-26.483,26.483
		c0,15.007,11.476,26.483,26.483,26.483c15.007,0,26.483-11.476,26.483-26.483C370.759,276.303,359.283,264.828,344.276,264.828"/>
	<path style="fill:#2C3C42;" d="M317.793,414.897c0-34.428-27.366-61.793-61.793-61.793s-61.793,27.366-61.793,61.793
		S221.572,476.69,256,476.69S317.793,449.324,317.793,414.897"/>
</g>
<g>
	<path style="fill:#528723;" d="M256,185.379c-1.766,0-2.648,0-4.414-0.883c-4.414-2.648-6.179-7.945-3.531-12.359l44.138-79.448
		c2.648-4.414,7.945-6.179,12.359-3.531s6.179,7.945,3.531,12.359l-44.138,79.448C262.179,183.614,259.531,185.379,256,185.379"/>
	<path style="fill:#528723;" d="M256,176.552c-40.607,0-77.683,15.89-104.166,42.372c2.648,6.179,8.828,10.593,15.89,10.593h176.552
		c7.062,0,13.241-4.414,15.89-10.593C333.683,192.441,296.607,176.552,256,176.552"/>
</g>
<g>
</g>
<g>
</g>
<g>
</g>
<g>
</g>
<g>
</g>
<g>
</g>
<g>
</g>
<g>
</g>
<g>
</g>
<g>
</g>
<g>
</g>
<g>
</g>
<g>
</g>
<g>
</g>
<g>
</g>
</svg>
