<?xml version="1.0" encoding="iso-8859-1"?>
<!-- Generator: Adobe Illustrator 19.0.0, SVG Export Plug-In . SVG Version: 6.00 Build 0)  -->
<svg version="1.1" id="Layer_1" xmlns="http://www.w3.org/2000/svg" xmlns:xlink="http://www.w3.org/1999/xlink" x="0px" y="0px"
	 viewBox="0 0 512 512" style="enable-background:new 0 0 512 512;" xml:space="preserve">
<path style="fill:#C3C7CB;" d="M361.931,105.931H150.069c0,24.717,9.71,46.786,23.834,63.559
	c22.952,26.483,37.076,59.145,37.959,94.455c0,3.531,0,6.179,0,9.71v192.441C211.862,494.345,229.517,512,256,512
	s44.138-17.655,44.138-44.138V273.655c0-2.648,0-6.179,0-9.71c0.883-34.428,15.007-67.09,37.959-94.455
	C352.221,152.717,361.931,130.648,361.931,105.931"/>
<g>
	<path style="fill:#E0E0E0;" d="M238.345,0c-50.317,21.186-70.621,67.09-70.621,105.931h70.621v-35.31V0z"/>
	<path style="fill:#E0E0E0;" d="M291.31,0c52.966,21.186,70.621,67.09,70.621,105.931h-88.276l17.655-35.31V0z"/>
	<path style="fill:#E0E0E0;" d="M256,176.552c-5.297,0-8.828-3.531-8.828-8.828v-26.483c0-5.297,3.531-8.828,8.828-8.828
		c5.297,0,8.828,3.531,8.828,8.828v26.483C264.828,172.138,261.297,176.552,256,176.552"/>
	<path style="fill:#E0E0E0;" d="M220.69,176.552c-5.297,0-8.828-3.531-8.828-8.828v-26.483c0-5.297,3.531-8.828,8.828-8.828
		s8.828,3.531,8.828,8.828v26.483C229.517,172.138,225.986,176.552,220.69,176.552"/>
	<path style="fill:#E0E0E0;" d="M291.31,176.552c-5.297,0-8.828-3.531-8.828-8.828v-26.483c0-5.297,3.531-8.828,8.828-8.828
		c5.297,0,8.828,3.531,8.828,8.828v26.483C300.138,172.138,296.607,176.552,291.31,176.552"/>
	<path style="fill:#E0E0E0;" d="M247.172,414.897h-35.31v17.655h35.31c5.297,0,8.828-3.531,8.828-8.828
		C256,418.428,252.469,414.897,247.172,414.897"/>
	<path style="fill:#E0E0E0;" d="M247.172,450.207h-35.31v15.89c0,0.883,0,0.883,0,1.766h35.31c5.297,0,8.828-3.531,8.828-8.828
		S252.469,450.207,247.172,450.207"/>
</g>
<g>
</g>
<g>
</g>
<g>
</g>
<g>
</g>
<g>
</g>
<g>
</g>
<g>
</g>
<g>
</g>
<g>
</g>
<g>
</g>
<g>
</g>
<g>
</g>
<g>
</g>
<g>
</g>
<g>
</g>
</svg>
