<svg id="Capa_1" enable-background="new 0 0 512 512" height="512" viewBox="0 0 512 512" width="512" xmlns="http://www.w3.org/2000/svg"><path d="m304.667 447.696-3.369 13.145-6.933 27.053-30.03 12.105-13.413-5.409-16.616-6.696-6.933-27.053-3.369-13.145 20.263-10.869 21.902-11.744z" fill="#f1d0a5"/><path d="m250.921 494.59-16.617-6.696-10.302-40.198 20.264-10.868z" fill="#f1b986"/><path d="m264.334 429.085h13.934v62.121h-13.934z" fill="#f1b986"/><path d="m208.075 512h56.259v-24.108h-32.152c-13.314 0-24.107 10.794-24.107 24.108z" fill="#70c6da"/><path d="m247.552 487.888c-13.313 0-24.112 10.798-24.112 24.112h-15.366c0-13.313 10.788-24.112 24.101-24.112z" fill="#63afcb"/><path d="m320.594 512h-56.259v-24.108h32.152c13.313 0 24.107 10.794 24.107 24.108z" fill="#70c6da"/><path d="m372.45 417.213c-3.966 3.966-11.559 4.399-18.42 3.77-7.531-.701-14.175-2.678-14.175-2.678l-20.449-11.373-5.491-43.154-4.79-37.694 21.922 3.791 14.515 2.503 22.386 3.873 4.502 51.272s8.324 21.366 0 29.69z" fill="#f1d0a5"/><path d="m354.03 420.983c-7.531-.701-14.175-2.678-14.175-2.678l-20.449-11.373-5.491-43.154 4.801-33.584 12.331-.319 13.701-.361s.309 1.01.814 2.864c3.173 11.486 14.216 55.197 8.468 88.605z" fill="#f1b986"/><path d="m304.667 447.696-3.369 13.145h-73.925l-3.369-13.145 20.263-10.869 21.902-11.744z" fill="#f1b986"/><path d="m337.618 447.696h-146.564c-5.192-32.399-3.472-58.854-.505-77.037l25.373-7.16 50.036-14.124 72.164 21.284c2.957 18.183 4.688 44.638-.504 77.037z" fill="#da4a54"/><path d="m210.741 447.696h-19.687c-5.192-32.399-3.472-58.854-.505-77.037l25.373-7.16c-4.141 26.373-6.85 56.011-5.181 84.197z" fill="#c32430"/><path d="m331.222 343.133-.062.01s4.028 9.869 6.902 27.516h-147.573c2.781-17.091 6.655-26.888 6.892-27.485.01-.021.01-.031.01-.031l-15.319-2.874-21.407-4.018c10.168-52.993 34.398-72.597 39.507-76.202h128.206c5.11 3.606 29.34 23.21 39.508 76.202l-20.325 3.812z" fill="#b9e4ef"/><g fill="#7ad0df"><path d="m347.561 340.063-16.339 3.07-7.026-21.16s20.253 4.09 23.365 18.09z"/><path d="m217.995 319.912-3.142 50.747h-24.364c2.781-17.091 6.655-26.888 6.892-27.485l.072-.031s4.1-16.37 20.542-23.231z"/><path d="m224.938 260.049c-36.582 33.821-42.783 80.22-42.783 80.22h-.083l-21.407-4.018c10.168-52.993 34.398-72.597 39.507-76.202z"/></g><ellipse cx="264.34" cy="263.766" fill="#f1b986" rx="29.942" ry="29.904"/><path d="m250.438 359.873v28.608c0 4.77-3.873 8.643-8.653 8.643h-57.855c-5.336 0-10.281-1.607-14.381-4.358-7.51-5.017-12.218-13.856-11.445-23.601l2.627-32.914h47.223v14.969h33.831c4.78 0 8.653 3.873 8.653 8.653z" fill="#eadfda"/><path d="m224.086 351.22c-3.719 9.55-14.381 33.182-32.78 45.905h-7.376c-5.336 0-10.281-1.607-14.381-4.358.855-1.844 2.452-3.348 4.543-4.048 16.205-5.388 33.862-37.499 33.862-37.499z" fill="#c6beb9"/><path d="m250.431 388.01v.464c0 4.78-3.873 8.653-8.643 8.653h-57.855c-15.123 0-27.022-12.888-25.827-27.959l2.617-32.914h22.303l-1.896 23.797c-1.205 15.072 10.704 27.959 25.816 27.959z" fill="#c6beb9"/><path d="m250.434 359.873c11.876 0 20.188 7.841 20.188 17.067s-20.188 11.538-20.188 11.538" fill="#f1d0a5"/><path d="m233.801 377.458c-.999 11.816-3.719 28.011-15.813 32.131-.824.289-1.669.423-2.493.423-3.214 0-6.222-2.03-7.314-5.233-1.38-4.038.773-8.437 4.811-9.807.103-.041 9.9-5.11 4.049-65.025-3.224-33.079-9.591-65.52-9.653-65.849-.834-4.182 1.896-8.251 6.078-9.076 4.183-.824 8.252 1.896 9.076 6.088.031.165 1.586 8.077 3.554 20.058 2.091 12.671 4.626 29.896 6.325 47.285 1.967 20.109 2.431 36.592 1.38 49.005z" fill="#f6e266"/><path d="m225.632 375.892c0 21.232-10.137 20.954-10.137 34.12-3.214 0-6.222-2.03-7.314-5.233-1.38-4.038.773-8.437 4.811-9.807.103-.041 9.9-5.11 4.049-65.025-3.224-33.079-9.591-65.52-9.653-65.849-.834-4.182 1.896-8.251 6.078-9.076 4.183-.824 8.252 1.896 9.076 6.088.031.165-9.382-2.892-7.415 9.089-3.277 22.643 10.505 88.139 10.505 105.693z" fill="#eab14d"/><ellipse cx="134.039" cy="230.508" fill="#934d36" rx="34.346" ry="16.605" transform="matrix(.707 -.707 .707 .707 -123.735 162.294)"/><ellipse cx="394.633" cy="230.508" fill="#aa593d" rx="16.605" ry="34.346" transform="matrix(.707 -.707 .707 .707 -47.408 346.562)"/><path d="m413.109 125.435c0 69.269-66.611 125.425-148.779 125.425-5.553 0-11.023-.258-16.411-.762-74.441-6.882-132.358-60.07-132.358-124.662.001-69.281 66.613-125.436 148.77-125.436 82.167 0 148.778 56.155 148.778 125.435z" fill="#aa593d"/><path d="m204.096 112.094 43.824 138.003c-74.441-6.882-132.358-60.07-132.358-124.662 0-69.28 66.612-125.435 148.769-125.435-50.706 10.673-60.235 77.717-60.235 112.094z" fill="#934d36"/><path d="m370.347 206.222c-1.566 30.586-26.043 54.94-56.639 56.382-25.919 1.226-51.839 1.483-77.768.773h-.01c-6.985-.185-13.98-.443-20.964-.773-30.586-1.442-55.063-25.796-56.639-56.382-1.113-21.799-.36-105.892-.36-105.892s17.987 9.818 46.131 11.765c28.721 1.978 68.033-4.234 109.57-37.457 0 0 26.826 39.198 57.196 49.562.142 26.588.214 67.712-.517 82.022z" fill="#f1d0a5"/><path d="m235.929 263.376c-6.985-.185-13.98-.443-20.964-.773-30.586-1.442-55.063-25.796-56.639-56.382-1.113-21.799-.36-105.892-.36-105.892s17.987 9.818 46.131 11.765c.844 99.474 11.712 150.52 31.832 151.282z" fill="#f1b986"/><path d="m214.872 141.477c-5.353 0-9.708 6.475-9.708 14.433s4.355 14.433 9.708 14.433 9.708-6.474 9.708-14.433-4.354-14.433-9.708-14.433z" fill="#454045"/><path d="m313.808 141.477c-5.353 0-9.708 6.475-9.708 14.433s4.355 14.433 9.708 14.433 9.708-6.474 9.708-14.433-4.355-14.433-9.708-14.433z" fill="#454045"/><path d="m286.081 218.77c-2.891 0-5.664-1.63-6.986-4.416-2.691-5.67-8.483-9.333-14.757-9.333s-12.067 3.663-14.758 9.333c-1.829 3.856-6.438 5.496-10.293 3.668-3.855-1.829-5.497-6.438-3.668-10.293 5.236-11.032 16.509-18.161 28.718-18.161 12.21 0 23.482 7.129 28.718 18.161 1.829 3.855.187 8.464-3.668 10.293-1.069.508-2.197.748-3.306.748z" fill="#da4a54"/><ellipse cx="330.453" cy="190.766" fill="#eaac9d" rx="15.759" ry="9.935"/><ellipse cx="198.218" cy="190.766" fill="#eaac9d" rx="15.759" ry="9.935"/><path d="m145.077 449.398c-.722 0-1.457-.102-2.185-.316-4.094-1.205-6.436-5.5-5.231-9.593l6.767-22.996c1.205-4.094 5.502-6.435 9.593-5.231 4.094 1.205 6.436 5.499 5.231 9.593l-6.767 22.996c-.99 3.366-4.069 5.547-7.408 5.547z" fill="#e27d47"/><path d="m103.21 423.112c-2.671 0-5.268-1.387-6.699-3.866-2.133-3.696-.866-8.421 2.83-10.554l26.779-15.453c3.694-2.132 8.42-.866 10.554 2.83 2.133 3.696.866 8.421-2.83 10.554l-26.779 15.453c-1.217.702-2.545 1.036-3.855 1.036z" fill="#e27d47"/><path d="m123.487 378.542c-.283 0-.568-.015-.856-.047l-22.957-2.53c-4.241-.468-7.301-4.285-6.833-8.527.468-4.241 4.285-7.303 8.527-6.834l22.957 2.53c4.241.468 7.301 4.285 6.833 8.527-.436 3.954-3.783 6.881-7.671 6.881z" fill="#e27d47"/></svg>