<svg id="Capa_1" enable-background="new 0 0 512 512" height="512" viewBox="0 0 512 512" width="512" xmlns="http://www.w3.org/2000/svg"><path d="m180.486 418.305s-24.268 7.232-32.594-1.094 0-29.684 0-29.684l41.228-16.871z" fill="#f1b986"/><path d="m364.108 387.526s8.326 21.359 0 29.684c-8.326 8.326-32.594 1.094-32.594 1.094l-10.638-44.444z" fill="#f1d0a5"/><path d="m347.861 421.148c-8.375-.464-16.349-2.843-16.349-2.843l-10.013-41.867 24.405 11.085c0 9.694-5.852 24.683 1.957 33.625z" fill="#f1b986"/><path d="m331.069 387.523s5.12 58.38-11.26 100.36l-9.436 17.554-112.115-2.266-1.164-.021-4.904-15.267c-15.35-39.312-11.826-92.994-11.322-99.67.01-.113.021-.206.031-.288.021-.268.031-.402.031-.402h-33.048c0-92.376 37.509-122.88 44.009-127.475h128.216c6.49 4.595 43.999 35.098 43.999 127.475z" fill="#8078bc"/><g fill="#5e54ac"><path d="m255.997 501.247c-4.267 0-7.726-3.652-7.726-8.158v-196.463c0-4.505 3.459-8.158 7.726-8.158s7.726 3.652 7.726 8.158v196.463c0 4.505-3.459 8.158-7.726 8.158z"/><path d="m213.536 487.883-15.278 15.288-1.164-.021-4.904-15.267c-15.35-39.312-11.826-92.994-11.322-99.67.01-.103.021-.206.031-.288.021-.268.031-.402.031-.402h-.01c0-22.54 8.2-44.38 8.2-44.38s3.781 130.359 24.416 144.74z"/><path d="m345.902 387.521h-14.832c0-22.531-8.191-44.384-8.191-44.384s20.539 7.237 23.023 44.384z"/><path d="m209.414 260.045c-15.264 20.601-43.07 66.597-42.341 127.476h-19.185c0-92.371 37.507-122.877 44.004-127.476z"/></g><path d="m189.439 512h66.561v-24.108h-42.453c-13.315 0-24.108 10.794-24.108 24.108z" fill="#665e66"/><path d="m228.916 487.888c-13.313 0-24.112 10.798-24.112 24.112h-15.366c0-13.313 10.788-24.112 24.101-24.112z" fill="#454045"/><path d="m322.561 512h-66.561v-24.108h42.454c13.314 0 24.107 10.794 24.107 24.108z" fill="#665e66"/><circle cx="256.246" cy="35.637" fill="#eadfda" r="35.637"/><path d="m266.339 69.826c-3.204.948-6.593 1.453-10.096 1.453-19.687 0-35.634-15.957-35.634-35.644 0-19.678 15.948-35.635 35.634-35.635 3.503 0 6.892.505 10.096 1.453-14.762 4.347-25.548 18.007-25.548 34.181 0 16.184 10.786 29.844 25.548 34.192z" fill="#c6beb9"/><path d="m362.874 140.836-106.871 70.207-79.942-52.756-26.434-17.451s-29.061-113.753 106.376-113.753h.494c135.428 0 106.377 113.753 106.377 113.753z" fill="#eadfda"/><path d="m206.523 132.409-30.462 25.878-26.434-17.451s-29.061-113.753 106.376-113.753c-74.06 18.204-49.48 105.326-49.48 105.326z" fill="#c6beb9"/><path d="m362.719 187.303h.149c12.833 0 23.232-10.407 23.232-23.232 0-12.833-10.399-23.241-23.232-23.241-.167 0-.334 0-.501.009h-212.735c-.167-.009-.334-.009-.501-.009-12.833 0-23.232 10.407-23.232 23.241 0 12.825 10.399 23.232 23.232 23.232h.149" fill="#f1b986"/><ellipse cx="255.997" cy="263.766" fill="#5e54ac" rx="52.411" ry="38.058"/><ellipse cx="255.997" cy="263.766" fill="#f1b986" rx="36.959" ry="22.605"/><path d="m362.003 206.222c-1.556 30.586-26.033 54.94-56.639 56.382-24.075 1.133-48.151 1.442-72.236.917-.031 0-.072 0-.103-.01-8.798-.185-17.596-.494-26.393-.907-30.596-1.442-55.074-25.796-56.639-56.382-1.123-21.799-1.236-43.587-.371-65.386h.01s25.147-1.277 56.897-8.427c28.217-6.346 61.646-17.338 87.267-36.19 0 0 26.723 44.617 68.579 44.617.874 21.799.751 43.587-.372 65.386z" fill="#f1d0a5"/><path d="m233.024 263.51c-8.798-.185-17.596-.494-26.393-.907-30.596-1.442-55.074-25.796-56.639-56.382-1.123-21.799-1.236-43.587-.371-65.386h.01s25.147-1.277 56.897-8.427v.01c-7.088 60.782.082 130 26.496 131.092z" fill="#f1b986"/><path d="m256 218.768c-12.209 0-23.481-7.129-28.718-18.161-1.83-3.855-.188-8.463 3.667-10.293 3.855-1.829 8.463-.187 10.293 3.667 2.692 5.67 8.484 9.334 14.758 9.334s12.066-3.664 14.757-9.334c1.829-3.855 6.439-5.498 10.293-3.668 3.855 1.829 5.497 6.438 3.668 10.293-5.236 11.033-16.508 18.162-28.718 18.162z" fill="#eaac9d"/><path d="m206.532 146.628c-5.353 0-9.708 6.475-9.708 14.433 0 7.959 4.355 14.433 9.708 14.433s9.708-6.475 9.708-14.433-4.355-14.433-9.708-14.433z" fill="#454045"/><path d="m305.468 146.628c-5.353 0-9.708 6.475-9.708 14.433 0 7.959 4.355 14.433 9.708 14.433s9.708-6.475 9.708-14.433-4.355-14.433-9.708-14.433z" fill="#454045"/><ellipse cx="322.117" cy="190.766" fill="#eaac9d" rx="15.759" ry="9.935"/><ellipse cx="189.882" cy="190.766" fill="#eaac9d" rx="15.759" ry="9.935"/><path d="m314.223 417.467h-25.681c-4.267 0-7.726-3.459-7.726-7.726s3.459-7.726 7.726-7.726h25.681c4.267 0 7.726 3.459 7.726 7.726.001 4.266-3.459 7.726-7.726 7.726z" fill="#5e54ac"/><path d="m223.453 417.467h-25.681c-4.267 0-7.726-3.459-7.726-7.726s3.459-7.726 7.726-7.726h25.681c4.267 0 7.726 3.459 7.726 7.726 0 4.266-3.459 7.726-7.726 7.726z" fill="#5e54ac"/></svg>