<svg id="Capa_1" enable-background="new 0 0 512 512" height="512" viewBox="0 0 512 512" width="512" xmlns="http://www.w3.org/2000/svg"><g fill="#f6e266"><path d="m7.726 62.976c-4.267 0-7.726-3.459-7.726-7.726v-27.406c0-4.267 3.459-7.726 7.726-7.726s7.726 3.459 7.726 7.726v27.406c.001 4.267-3.458 7.726-7.726 7.726z"/><path d="m39.123 62.976c-4.268 0-7.726-3.459-7.726-7.726v-27.406c0-4.267 3.459-7.726 7.726-7.726s7.726 3.459 7.726 7.726v27.406c0 4.267-3.459 7.726-7.726 7.726z"/><path d="m70.105 62.976c-4.268 0-7.726-3.459-7.726-7.726v-27.406c0-4.267 3.459-7.726 7.726-7.726 4.268 0 7.726 3.459 7.726 7.726v27.406c0 4.267-3.459 7.726-7.726 7.726z"/><path d="m101.088 62.976c-4.268 0-7.726-3.459-7.726-7.726v-27.406c0-4.267 3.459-7.726 7.726-7.726s7.726 3.459 7.726 7.726v27.406c0 4.267-3.459 7.726-7.726 7.726z"/><path d="m132.07 62.976c-4.268 0-7.726-3.459-7.726-7.726v-27.406c0-4.267 3.459-7.726 7.726-7.726 4.268 0 7.726 3.459 7.726 7.726v27.406c.001 4.267-3.458 7.726-7.726 7.726z"/><path d="m163.052 62.976c-4.268 0-7.726-3.459-7.726-7.726v-27.406c0-4.267 3.459-7.726 7.726-7.726 4.268 0 7.726 3.459 7.726 7.726v27.406c.001 4.267-3.458 7.726-7.726 7.726z"/><path d="m194.035 62.976c-4.268 0-7.726-3.459-7.726-7.726v-27.406c0-4.267 3.459-7.726 7.726-7.726 4.268 0 7.726 3.459 7.726 7.726v27.406c.001 4.267-3.458 7.726-7.726 7.726z"/><path d="m225.017 62.976c-4.268 0-7.726-3.459-7.726-7.726v-27.406c0-4.267 3.459-7.726 7.726-7.726s7.726 3.459 7.726 7.726v27.406c0 4.267-3.458 7.726-7.726 7.726z"/><path d="m256 62.976c-4.268 0-7.726-3.459-7.726-7.726v-27.406c0-4.267 3.459-7.726 7.726-7.726s7.726 3.459 7.726 7.726v27.406c0 4.267-3.458 7.726-7.726 7.726z"/><path d="m286.983 62.976c-4.268 0-7.726-3.459-7.726-7.726v-27.406c0-4.267 3.459-7.726 7.726-7.726 4.268 0 7.726 3.459 7.726 7.726v27.406c0 4.267-3.459 7.726-7.726 7.726z"/><path d="m317.965 62.976c-4.268 0-7.726-3.459-7.726-7.726v-27.406c0-4.267 3.459-7.726 7.726-7.726s7.726 3.459 7.726 7.726v27.406c0 4.267-3.459 7.726-7.726 7.726z"/><path d="m348.948 62.976c-4.268 0-7.726-3.459-7.726-7.726v-27.406c0-4.267 3.459-7.726 7.726-7.726s7.726 3.459 7.726 7.726v27.406c0 4.267-3.459 7.726-7.726 7.726z"/><path d="m379.93 62.976c-4.268 0-7.726-3.459-7.726-7.726v-27.406c0-4.267 3.459-7.726 7.726-7.726s7.726 3.459 7.726 7.726v27.406c0 4.267-3.459 7.726-7.726 7.726z"/><path d="m410.912 62.976c-4.268 0-7.726-3.459-7.726-7.726v-27.406c0-4.267 3.459-7.726 7.726-7.726s7.726 3.459 7.726 7.726v27.406c.001 4.267-3.458 7.726-7.726 7.726z"/><path d="m441.895 62.976c-4.268 0-7.726-3.459-7.726-7.726v-27.406c0-4.267 3.459-7.726 7.726-7.726 4.268 0 7.726 3.459 7.726 7.726v27.406c.001 4.267-3.458 7.726-7.726 7.726z"/><path d="m472.877 62.976c-4.268 0-7.726-3.459-7.726-7.726v-27.406c0-4.267 3.459-7.726 7.726-7.726s7.726 3.459 7.726 7.726v27.406c.001 4.267-3.458 7.726-7.726 7.726z"/><path d="m504.274 62.976c-4.268 0-7.726-3.459-7.726-7.726v-27.406c0-4.267 3.459-7.726 7.726-7.726s7.726 3.459 7.726 7.726v27.406c0 4.267-3.459 7.726-7.726 7.726z"/><path d="m7.726 491.883c-4.268 0-7.726-3.459-7.726-7.726v-27.407c0-4.267 3.459-7.726 7.726-7.726s7.726 3.459 7.726 7.726v27.406c.001 4.267-3.458 7.727-7.726 7.727z"/><path d="m39.123 491.883c-4.268 0-7.726-3.459-7.726-7.726v-27.407c0-4.267 3.459-7.726 7.726-7.726s7.726 3.459 7.726 7.726v27.406c0 4.267-3.459 7.727-7.726 7.727z"/><path d="m70.105 491.883c-4.268 0-7.726-3.459-7.726-7.726v-27.407c0-4.267 3.459-7.726 7.726-7.726 4.268 0 7.726 3.459 7.726 7.726v27.406c0 4.267-3.459 7.727-7.726 7.727z"/><path d="m101.088 491.883c-4.268 0-7.726-3.459-7.726-7.726v-27.407c0-4.267 3.459-7.726 7.726-7.726s7.726 3.459 7.726 7.726v27.406c0 4.267-3.459 7.727-7.726 7.727z"/><path d="m132.07 491.883c-4.268 0-7.726-3.459-7.726-7.726v-27.407c0-4.267 3.459-7.726 7.726-7.726 4.268 0 7.726 3.459 7.726 7.726v27.406c.001 4.267-3.458 7.727-7.726 7.727z"/><path d="m163.052 491.883c-4.268 0-7.726-3.459-7.726-7.726v-27.407c0-4.267 3.459-7.726 7.726-7.726 4.268 0 7.726 3.459 7.726 7.726v27.406c.001 4.267-3.458 7.727-7.726 7.727z"/><path d="m194.035 491.883c-4.268 0-7.726-3.459-7.726-7.726v-27.407c0-4.267 3.459-7.726 7.726-7.726 4.268 0 7.726 3.459 7.726 7.726v27.406c.001 4.267-3.458 7.727-7.726 7.727z"/><path d="m225.017 491.883c-4.268 0-7.726-3.459-7.726-7.726v-27.407c0-4.267 3.459-7.726 7.726-7.726s7.726 3.459 7.726 7.726v27.406c0 4.267-3.458 7.727-7.726 7.727z"/><path d="m256 491.883c-4.268 0-7.726-3.459-7.726-7.726v-27.407c0-4.267 3.459-7.726 7.726-7.726s7.726 3.459 7.726 7.726v27.406c0 4.267-3.458 7.727-7.726 7.727z"/><path d="m286.983 491.883c-4.268 0-7.726-3.459-7.726-7.726v-27.407c0-4.267 3.459-7.726 7.726-7.726 4.268 0 7.726 3.459 7.726 7.726v27.406c0 4.267-3.459 7.727-7.726 7.727z"/><path d="m317.965 491.883c-4.268 0-7.726-3.459-7.726-7.726v-27.407c0-4.267 3.459-7.726 7.726-7.726s7.726 3.459 7.726 7.726v27.406c0 4.267-3.459 7.727-7.726 7.727z"/><path d="m348.948 491.883c-4.268 0-7.726-3.459-7.726-7.726v-27.407c0-4.267 3.459-7.726 7.726-7.726s7.726 3.459 7.726 7.726v27.406c0 4.267-3.459 7.727-7.726 7.727z"/><path d="m379.93 491.883c-4.268 0-7.726-3.459-7.726-7.726v-27.407c0-4.267 3.459-7.726 7.726-7.726s7.726 3.459 7.726 7.726v27.406c0 4.267-3.459 7.727-7.726 7.727z"/><path d="m410.912 491.883c-4.268 0-7.726-3.459-7.726-7.726v-27.407c0-4.267 3.459-7.726 7.726-7.726s7.726 3.459 7.726 7.726v27.406c.001 4.267-3.458 7.727-7.726 7.727z"/><path d="m441.895 491.883c-4.268 0-7.726-3.459-7.726-7.726v-27.407c0-4.267 3.459-7.726 7.726-7.726 4.268 0 7.726 3.459 7.726 7.726v27.406c.001 4.267-3.458 7.727-7.726 7.727z"/><path d="m472.877 491.883c-4.268 0-7.726-3.459-7.726-7.726v-27.407c0-4.267 3.459-7.726 7.726-7.726s7.726 3.459 7.726 7.726v27.406c.001 4.267-3.458 7.727-7.726 7.727z"/><path d="m504.274 491.883c-4.268 0-7.726-3.459-7.726-7.726v-27.407c0-4.267 3.459-7.726 7.726-7.726s7.726 3.459 7.726 7.726v27.406c0 4.267-3.459 7.727-7.726 7.727z"/></g><path d="m0 55.25h512v401.501h-512z" fill="#da4a54"/><path d="m86.155 30.905h339.69v450.189h-339.69z" fill="#f6e266" transform="matrix(0 1 -1 0 512 0)"/><path d="m323.371 308.458c-4.193 0-7.901-2.664-9.239-6.642-.03-.091-.059-.183-.087-.276l-18.746-63.542-11.444 63.407c-.758 4.2-4.779 6.989-8.976 6.231-4.199-.758-6.989-4.777-6.231-8.976l15.724-87.121c.852-4.433 4.519-7.674 8.935-7.971 4.415-.291 8.484 2.427 9.893 6.621.03.091.059.183.087.275l19.991 67.76 19.293-67.678c.026-.089.052-.178.081-.266 1.365-4.207 5.396-6.966 9.818-6.724 4.417.248 8.119 3.449 9.004 7.783l16.673 87.243c.802 4.191-1.947 8.238-6.138 9.039-4.187.798-8.237-1.946-9.039-6.139l-12.143-63.534-18.103 63.504c-.026.09-.053.179-.081.268-1.302 4.008-5.007 6.716-9.22 6.737-.018.001-.035.001-.052.001z" fill="#da4a54"/><path d="m75.808 308.458c-4.268 0-7.726-3.459-7.726-7.726v-89.464c0-4.267 3.459-7.726 7.726-7.726 4.268 0 7.726 3.459 7.726 7.726v89.464c0 4.267-3.459 7.726-7.726 7.726z" fill="#da4a54"/><path d="m137.718 308.458c-4.268 0-7.726-3.459-7.726-7.726v-89.464c0-4.267 3.459-7.726 7.726-7.726s7.726 3.459 7.726 7.726v89.464c.001 4.267-3.458 7.726-7.726 7.726z" fill="#da4a54"/><path d="m137.718 262.192h-61.91c-4.268 0-7.726-3.459-7.726-7.726s3.459-7.726 7.726-7.726h61.91c4.268 0 7.726 3.459 7.726 7.726.001 4.267-3.458 7.726-7.726 7.726z" fill="#da4a54"/><path d="m436.192 308.458h-37.352c-4.268 0-7.726-3.459-7.726-7.726v-88.647c0-4.267 3.459-7.726 7.726-7.726h37.352c4.268 0 7.726 3.459 7.726 7.726s-3.459 7.726-7.726 7.726h-29.626v73.195h29.626c4.268 0 7.726 3.459 7.726 7.726.001 4.267-3.458 7.726-7.726 7.726z" fill="#da4a54"/><path d="m433.438 264.135h-34.598c-4.268 0-7.726-3.459-7.726-7.726s3.459-7.726 7.726-7.726h34.598c4.268 0 7.726 3.459 7.726 7.726s-3.459 7.726-7.726 7.726z" fill="#da4a54"/><path d="m208.126 308.458c-28.926 0-52.458-23.533-52.458-52.458 0-28.926 23.532-52.458 52.458-52.458s52.459 23.533 52.459 52.458c0 28.926-23.534 52.458-52.459 52.458zm0-89.463c-20.404 0-37.005 16.601-37.005 37.006s16.601 37.006 37.005 37.006c20.405 0 37.006-16.601 37.006-37.006 0-20.406-16.601-37.006-37.006-37.006z" fill="#da4a54"/><path d="m425.939 347.389h-346.688c-4.268 0-7.726-3.459-7.726-7.726s3.459-7.726 7.726-7.726h346.688c4.268 0 7.726 3.459 7.726 7.726s-3.459 7.726-7.726 7.726z" fill="#e27d47"/><path d="m339.267 378.709h-173.344c-4.268 0-7.726-3.459-7.726-7.726s3.459-7.726 7.726-7.726h173.344c4.268 0 7.726 3.459 7.726 7.726s-3.459 7.726-7.726 7.726z" fill="#e27d47"/><path d="m425.939 180.063h-346.688c-4.268 0-7.726-3.459-7.726-7.726s3.459-7.726 7.726-7.726h346.688c4.268 0 7.726 3.459 7.726 7.726s-3.459 7.726-7.726 7.726z" fill="#e27d47"/><path d="m339.267 148.743h-173.344c-4.268 0-7.726-3.459-7.726-7.726s3.459-7.726 7.726-7.726h173.344c4.268 0 7.726 3.459 7.726 7.726s-3.459 7.726-7.726 7.726z" fill="#e27d47"/></svg>