<svg id="Capa_1" enable-background="new 0 0 512 512" height="512" viewBox="0 0 512 512" width="512" xmlns="http://www.w3.org/2000/svg"><path d="m419.765 418.305s24.268 7.232 32.594-1.094 0-29.684 0-29.684l-43.933-8.685" fill="#f1d0a5"/><path d="m236.142 387.526s-8.326 21.359 0 29.684c8.326 8.326 32.594 1.094 32.594 1.094l28.01-45.63h-47.961z" fill="#f1b986"/><path d="m384.579 447.696-1.937 7.541-8.365 32.657-30.029 12.104-13.413-5.408-16.617-6.696-8.365-32.657-1.937-7.541 20.264-10.868 21.901-11.744z" fill="#f1d0a5"/><path d="m330.835 494.59-16.617-6.696-10.302-40.198 20.264-10.868z" fill="#f1b986"/><path d="m344.248 429.085h13.934v62.121h-13.934z" fill="#f1b986"/><path d="m436.109 421.148c-8.375-.464-16.349-2.843-16.349-2.843l-10.013-41.867 20.233 11.085c0 9.694-1.68 24.683 6.129 33.625z" fill="#f1b986"/><path d="m508.912 252.425s-28.773 31.73-100.556 24.673h-128.206c-71.793 7.057-100.566-24.673-100.566-24.673 16.957-16.957 16.442-53.435 16.442-118.182s25.692-134.243 148.222-134.243 148.222 69.496 148.222 134.243-.515 101.226 16.442 118.182z" fill="#665e66"/><path d="m294.778 132.409v144.689h-14.628c-71.793 7.057-100.566-24.673-100.566-24.673 16.957-16.957 16.442-53.435 16.442-118.182s25.692-134.243 148.222-134.243c-56.753 0-49.47 75.08-49.47 132.409z" fill="#454045"/><path d="m384.579 447.696-1.937 7.541h-76.789l-1.937-7.541 20.264-10.868 21.901-11.744z" fill="#f1b986"/><path d="m419.327 387.523s2.514 28.608-1.617 60.173h-146.925c-4.121-31.565-1.607-60.173-1.607-60.173h-33.038c0-92.366 37.509-122.88 44.009-127.475h128.206c6.5 4.595 43.999 35.109 43.999 127.475z" fill="#da4a54"/><path d="m319.358 287.029c-23.303 39.744-19.872 117.842-15.442 160.667h-33.131c-4.121-31.565-1.607-60.173-1.607-60.173h-33.038c0-92.366 37.509-122.88 44.009-127.475h42.268c2.607 8.757 2.257 17.915-3.059 26.981z" fill="#c32430"/><ellipse cx="344.248" cy="263.766" fill="#f1b986" rx="52.411" ry="38.058"/><path d="m450.253 206.222c-1.556 30.586-26.033 54.94-56.639 56.382-24.075 1.133-48.151 1.442-72.236.917-.031 0-.072 0-.103-.01-8.798-.185-17.595-.494-26.393-.907-30.596-1.442-55.074-25.796-56.639-56.382-1.123-21.799-1.236-43.587-.371-65.386h.01s25.147-1.277 56.897-8.427c28.217-6.346 61.646-17.338 87.267-36.19 0 0 26.723 44.617 68.579 44.617.875 21.799.751 43.587-.372 65.386z" fill="#f1d0a5"/><path d="m321.274 263.51c-8.798-.185-17.595-.494-26.393-.907-30.596-1.442-55.074-25.796-56.639-56.382-1.123-21.799-1.236-43.587-.371-65.386h.01s25.147-1.277 56.897-8.427v.01c-7.087 60.782.083 130 26.496 131.092z" fill="#f1b986"/><path d="m344.251 218.768c-12.209 0-23.481-7.129-28.718-18.161-1.83-3.855-.188-8.463 3.667-10.293 3.856-1.829 8.463-.188 10.293 3.667 2.692 5.67 8.484 9.334 14.758 9.334s12.066-3.664 14.757-9.334c1.829-3.855 6.437-5.498 10.293-3.668 3.855 1.829 5.497 6.438 3.668 10.293-5.237 11.033-16.509 18.162-28.718 18.162z" fill="#da4a54"/><path d="m294.783 146.628c-5.353 0-9.708 6.475-9.708 14.433 0 7.959 4.355 14.433 9.708 14.433s9.708-6.475 9.708-14.433c-.001-7.958-4.355-14.433-9.708-14.433z" fill="#454045"/><path d="m393.718 146.628c-5.353 0-9.708 6.475-9.708 14.433 0 7.959 4.355 14.433 9.708 14.433s9.708-6.475 9.708-14.433c.001-7.958-4.355-14.433-9.708-14.433z" fill="#454045"/><path d="m419.323 387.526c0-22.541-8.192-44.386-8.192-44.386s18.849 19.493 18.849 44.383z" fill="#c32430"/><path d="m287.988 512h56.259v-24.108h-32.152c-13.314 0-24.107 10.794-24.107 24.108z" fill="#70c6da"/><path d="m327.466 487.888c-13.313 0-24.112 10.798-24.112 24.112h-15.366c0-13.313 10.788-24.112 24.101-24.112z" fill="#63afcb"/><path d="m400.507 512h-56.259v-24.108h32.152c13.314 0 24.107 10.794 24.107 24.108z" fill="#70c6da"/><ellipse cx="410.367" cy="190.766" fill="#eaac9d" rx="15.759" ry="9.935"/><ellipse cx="278.132" cy="190.766" fill="#eaac9d" rx="15.759" ry="9.935"/><path d="m57.67 418.305s-24.268 7.232-32.594-1.094 0-29.684 0-29.684l41.228-16.871z" fill="#f1b986"/><path d="m241.292 417.213c-3.554 3.554-10.003 4.275-16.246 3.935-8.375-.464-16.349-2.843-16.349-2.843l-10.013-41.867-.618-2.575 43.226 13.66s8.324 21.366 0 29.69z" fill="#f1d0a5"/><path d="m225.046 421.148c-8.375-.464-16.349-2.843-16.349-2.843l-10.013-41.867 24.405 11.085c0 9.694-5.852 24.683 1.957 33.625z" fill="#f1b986"/><path d="m208.254 387.521s5.122 58.385-11.26 100.367h-51.2s12.841-59.514-12.605-84.97c-25.456 25.456-12.615 84.97-12.615 84.97h-51.2c-16.382-41.982-11.26-100.367-11.26-100.367h-33.041c0-92.371 37.507-122.877 44.004-127.476h128.215c6.498 4.599 44.004 35.105 44.004 127.476z" fill="#b9e4ef"/><g fill="#7ad0df"><path d="m59.449 370.657c2.22-20.633 8.337-32.868 8.337-32.868l3.764 49.408"/><path d="m125.463 330.783h15.453v55.891h-15.453z"/><path d="m223.087 387.521h-14.832c0-22.531-8.191-44.384-8.191-44.384s20.539 7.237 23.023 44.384z"/><path d="m86.599 260.045c-15.264 20.601-43.07 66.597-42.341 127.476h-19.185c0-92.371 37.507-122.877 44.004-127.476z"/></g><path d="m196.984 487.888-9.309 14.623-41.89-14.623s12.841-59.514-12.605-84.97c-25.446 25.456-12.605 84.97-12.605 84.97l-21.97 6.058-29.24-6.058c-16.382-41.982-11.26-100.367-11.26-100.367 0-5.779.544-11.527 1.345-16.865h147.46c.801 5.338 1.345 11.086 1.345 16.865-.001 0 5.111 58.385-11.271 100.367z" fill="#665e66"/><path d="m84.525 487.888-11.197 10.902-3.963-10.902c-16.382-41.982-11.26-100.367-11.26-100.367 0-5.779.544-11.527 1.345-16.865h24.296c-5.154 19.277-11.528 59.299.779 117.232z" fill="#454045"/><path d="m159.149 487.888h-13.365s12.841-59.514-12.605-84.97c25.97 0 39.324 44.713 25.97 84.97z" fill="#454045"/><path d="m149.681 291.167h-32.993l-5.84-39.616h44.673z" fill="#c32430"/><path d="m250.345 143.239-157.795.675-78.357.33c-5.973-54.539-23.31-125.367 40.387-137.99 15.293-3.033 29.065-4.833 41.443-5.678 82.911-5.627 103.535 31.811 103.535 31.811s15.006-13.181 31.321-11.837c5.897.482 11.972 2.873 17.566 8.466 29.503 29.504 1.9 114.223 1.9 114.223z" fill="#e27d47"/><path d="m230.878 20.55c-19.382 13.316-32.064 53.161-37.936 75.873-5.745-23.134 1.276-48.599 6.616-64.035 0-.001 15.005-13.182 31.32-11.838z" fill="#dd542e"/><path d="m83.814 85.134 8.736 58.78-78.357.33c-5.973-54.539-23.31-125.367 40.387-137.99 15.293-3.033 29.065-4.833 41.443-5.678 0 .008-.008.008-.008.008-31.896 19.619-22.044 54.565-12.201 84.55z" fill="#dd542e"/><path d="m26.813 140.836h88.132v46.472h-88.626c-12.836 0-23.231-10.415-23.231-23.241s10.395-23.241 23.231-23.241c.165 0 .33 0 .494.01z" fill="#f1b986"/><path d="m263.281 164.067c0 12.826-10.395 23.241-23.231 23.241h-104.388v-46.472h103.894c.165-.01.33-.01.495-.01 12.836 0 23.23 10.415 23.23 23.241z" fill="#f1d0a5"/><path d="m240.13 169.515c0 12.234-.313 24.477-.938 36.711-1.563 30.586-26.04 54.936-56.642 56.381-21.393 1.014-42.794 1.36-64.187 1.056h-.008c-11.516-.161-23.024-.515-34.54-1.056-30.594-1.445-55.071-25.795-56.643-56.381-1.115-21.799-1.234-43.589-.363-65.387h.008c11.93-4.419 19.027-18.157 23.243-33.433 4.326-15.673 19.34-24.24 33.754-22.272 5.619.769 11.153 3.143 15.918 7.317 9.573 8.381 21.511 12.572 33.45 12.572s23.885-4.191 33.458-12.572c5.931-5.196 13.037-7.596 20.033-7.596 13.054 0 25.719 8.365 29.639 22.551 4.208 15.276 11.305 29.014 23.243 33.433.389 9.564.575 19.12.575 28.676z" fill="#f1d0a5"/><path d="m118.354 263.663c-11.516-.161-23.024-.515-34.54-1.056-30.594-1.445-55.071-25.795-56.643-56.381-1.115-21.799-1.234-43.589-.363-65.387h.008c11.93-4.419 19.027-18.157 23.243-33.433 4.326-15.673 19.34-24.24 33.754-22.272-10.94 97.697.001 177.456 34.541 178.529z" fill="#f1b986"/><path d="m83.717 141.477c-5.353 0-9.708 6.475-9.708 14.433s4.355 14.433 9.708 14.433 9.708-6.475 9.708-14.433-4.355-14.433-9.708-14.433z" fill="#454045"/><path d="m182.653 141.477c-5.353 0-9.708 6.475-9.708 14.433s4.355 14.433 9.708 14.433 9.708-6.475 9.708-14.433-4.355-14.433-9.708-14.433z" fill="#454045"/><path d="m116.688 291.167h32.993l5.84 39.616-22.336 16.015-22.337-16.015z" fill="#da4a54"/><path d="m54.016 512h66.561v-24.108h-42.453c-13.315 0-24.108 10.794-24.108 24.108z" fill="#aa593d"/><path d="m93.493 487.888c-13.313 0-24.112 10.798-24.112 24.112h-15.365c0-13.313 10.788-24.112 24.101-24.112z" fill="#934d36"/><path d="m212.353 512h-66.561v-24.108h42.454c13.314 0 24.107 10.794 24.107 24.108z" fill="#aa593d"/><path d="m81.11 225.366h25.859c14.477 0 26.213-11.736 26.213-26.213v-10.101h-25.859c-14.477 0-26.213 11.736-26.213 26.213z" fill="#934d36"/><path d="m185.254 225.366h-25.859c-14.477 0-26.213-11.736-26.213-26.213v-10.101h25.859c14.477 0 26.213 11.736 26.213 26.213z" fill="#aa593d"/></svg>