<svg id="Capa_1" enable-background="new 0 0 512 512" height="512" viewBox="0 0 512 512" width="512" xmlns="http://www.w3.org/2000/svg"><path d="m275.758 447.696-3.162 12.331-7.14 27.867-30.029 12.104.329-13.34.649-26.631.433-17.564.422-17.379z" fill="#f1d0a5"/><path d="m235.43 429.085h13.934v62.121h-13.934z" fill="#f1b986"/><path d="m291.69 512h-56.26v-24.108h32.152c13.314 0 24.108 10.794 24.108 24.108z" fill="#63afcb"/><path d="m245.739 447.696-3.163 12.331-6.82 26.631-.319 1.236-30.03 12.104.979-39.971.855-34.943 29.597 17.379z" fill="#f1d0a5"/><path d="m205.408 429.085h13.934v62.121h-13.934z" fill="#f1b986"/><path d="m261.667 512h-56.259v-24.108h32.152c13.314 0 24.107 10.794 24.107 24.108z" fill="#70c6da"/><path d="m405.345 252.425s-28.773 31.73-100.556 24.673h-128.206c-71.793 7.057-100.566-24.673-100.566-24.673 16.957-16.957 16.442-53.435 16.442-118.182s25.693-134.243 148.222-134.243 148.222 69.496 148.222 134.243-.514 101.226 16.442 118.182z" fill="#e27d47"/><path d="m191.212 132.409v144.689h-14.629c-71.793 7.057-100.566-24.673-100.566-24.673 16.957-16.957 16.442-53.435 16.442-118.182s25.693-134.243 148.222-134.243c-56.752 0-49.469 75.08-49.469 132.409z" fill="#dd542e"/><path d="m275.758 447.696-3.162 12.331h-66.21l.855-34.943 29.597 17.379.422-17.379z" fill="#f1b986"/><path d="m337.816 447.696h-165.467s20.552-133.882 5.419-187.297l56.258.536 64.737.618c5.161 11.971 6.336 22.489 5.831 30.895-.803 13.351-5.831 21.366-5.831 21.366s47.79 2.575 59.091 53.961c11.311 51.385-20.038 79.921-20.038 79.921z" fill="#8078bc"/><path d="m275.759 447.696h-103.41s20.552-133.882 5.419-187.297l56.258.536c5.419 8.54 29.401 49.912 9.241 84.743 0-.001-23.641 62.692 32.492 102.018z" fill="#5e54ac"/><path d="m303.716 277.882c-37.025 26.455-86.01-14.371-86.01-14.371l-1.319-2.74 82.373.783c2.504 5.81 4.07 11.27 4.956 16.328z" fill="#f1b986"/><path d="m346.687 206.222c-1.556 30.586-26.033 54.94-56.639 56.382-24.075 1.133-48.151 1.442-72.236.917-.031 0-.072 0-.103-.01-8.798-.185-17.596-.494-26.393-.907-30.596-1.442-55.074-25.796-56.639-56.382-1.123-21.799-1.236-43.587-.371-65.386h.01s25.147-1.277 56.897-8.427c28.217-6.346 61.646-17.338 87.267-36.19 0 0 26.723 44.617 68.579 44.617.874 21.799.751 43.587-.372 65.386z" fill="#f1d0a5"/><path d="m217.708 263.51c-8.798-.185-17.596-.494-26.393-.907-30.596-1.442-55.074-25.796-56.639-56.382-1.123-21.799-1.236-43.587-.371-65.386h.01s25.147-1.277 56.897-8.427v.01c-7.088 60.782.082 130 26.496 131.092z" fill="#f1b986"/><path d="m240.684 218.768c-12.21 0-23.482-7.129-28.718-18.161-1.829-3.855-.187-8.463 3.668-10.293s8.463-.188 10.293 3.668c2.691 5.67 8.483 9.334 14.757 9.334s12.066-3.664 14.758-9.334c1.83-3.855 6.441-5.496 10.293-3.667 3.855 1.83 5.497 6.438 3.667 10.293-5.237 11.032-16.509 18.16-28.718 18.16z" fill="#da4a54"/><path d="m191.217 146.628c-5.353 0-9.708 6.475-9.708 14.433 0 7.959 4.355 14.433 9.708 14.433s9.708-6.475 9.708-14.433c-.001-7.958-4.355-14.433-9.708-14.433z" fill="#454045"/><path d="m290.152 146.628c-5.352 0-9.707 6.475-9.707 14.433 0 7.959 4.355 14.433 9.707 14.433 5.353 0 9.708-6.475 9.708-14.433.001-7.958-4.355-14.433-9.708-14.433z" fill="#454045"/><ellipse cx="306.801" cy="190.766" fill="#eaac9d" rx="15.759" ry="9.935"/><ellipse cx="174.566" cy="190.766" fill="#eaac9d" rx="15.759" ry="9.935"/><path d="m284.392 349.752c-5.139-15.416-39.054-13.36-39.054-13.36-22.123 0-31.49-16.401-32.771-35.66-.576-8.656-6.568-16.151-15.067-17.891-12.232-2.504-23.075 6.788-23.075 18.668v9.296c0 9.889 2.292 19.706 7.103 28.346 19.339 34.726 63.81 28.073 63.81 28.073s44.192-2.056 39.054-17.472z" fill="#f1d0a5"/><path d="m283.393 356.242c-7.036 9.529-38.055 10.982-38.055 10.982s-44.474 6.646-63.814-28.075c-4.812-8.64-7.104-18.458-7.104-28.348v-9.293c0-10.034 7.726-18.214 17.492-19.017-2.586 3.245-4.121 7.355-4.121 11.827v17.42c10.941 57.268 70.907 48.295 70.907 48.295s13.486-.628 24.695-3.791z" fill="#f1b986"/><ellipse cx="348.101" cy="344.928" fill="#f1d0a5" rx="14.379" ry="22.32" transform="matrix(.866 -.5 .5 .866 -125.827 220.262)"/><path d="m360.033 363.769c-.247.175-.505.34-.773.494-6.882 3.966-17.451-1.473-23.612-12.146s-5.584-22.551 1.288-26.517c3.4-1.968 7.695-1.628 11.919.494-6.15 4.378-6.459 15.762-.536 26.022 3.122 5.41 7.387 9.469 11.714 11.653z" fill="#f1b986"/><g fill="#da4a54"><path d="m382 316.407c-1.353 0-2.723-.356-3.968-1.102-3.659-2.195-4.846-6.941-2.651-10.601l12.333-20.555c2.195-3.659 6.943-4.845 10.601-2.65 3.659 2.195 4.846 6.941 2.651 10.601l-12.333 20.555c-1.448 2.414-4.008 3.752-6.633 3.752z"/><path d="m398.447 340.046c-3.39 0-6.499-2.247-7.444-5.674-1.135-4.113 1.28-8.368 5.393-9.503l29.804-8.222c4.115-1.135 8.368 1.28 9.502 5.394 1.135 4.113-1.28 8.368-5.393 9.503l-29.804 8.222c-.687.189-1.378.28-2.058.28z"/><path d="m419.004 378.085c-.914 0-1.844-.163-2.749-.508l-21.583-8.222c-3.988-1.519-5.989-5.983-4.47-9.971s5.983-5.987 9.971-4.47l21.583 8.222c3.988 1.519 5.989 5.983 4.47 9.971-1.174 3.082-4.109 4.978-7.222 4.978z"/></g><path d="m304.593 292.448c-.803 13.351-5.831 21.366-5.831 21.366-6.727 15.082-48.357 11.579-48.357 11.579s46.997-18.141 54.177-32.935c.001 0 .001-.01.011-.01z" fill="#5e54ac"/></svg>