<svg id="Capa_1" enable-background="new 0 0 512 512" height="512" viewBox="0 0 512 512" width="512" xmlns="http://www.w3.org/2000/svg"><path d="m149.053 218.206h284.682v293.794h-284.682z" fill="#eadfda"/><path d="m290.199 460.64 143.536-242.434h-215.824z" fill="#c6beb9"/><path d="m5.517 0h284.682v460.64h-284.682z" fill="#efe7e4"/><path d="m103.834 110.713h-34.943c-4.268 0-7.726-3.459-7.726-7.726 0-14.44-11.747-26.187-26.187-26.187-4.268 0-7.726-3.459-7.726-7.726v-30.834c0-4.267 3.459-7.726 7.726-7.726h102.771c4.268 0 7.726 3.459 7.726 7.726v30.833c0 4.267-3.459 7.726-7.726 7.726-14.44 0-26.187 11.747-26.187 26.187-.001 4.268-3.46 7.727-7.728 7.727zm-27.935-15.452h20.928c3.161-16.778 16.416-30.035 33.195-33.195v-16.099h-87.318v16.099c16.778 3.16 30.034 16.416 33.195 33.195z" fill="#8078bc"/><g fill="#454045"><path d="m256.965 60.357h-80.163c-4.268 0-7.726-3.459-7.726-7.726s3.459-7.726 7.726-7.726h80.163c4.268 0 7.726 3.459 7.726 7.726s-3.458 7.726-7.726 7.726z"/><path d="m218.939 94.256h-42.137c-4.268 0-7.726-3.459-7.726-7.726s3.459-7.726 7.726-7.726h42.137c4.268 0 7.726 3.459 7.726 7.726s-3.458 7.726-7.726 7.726z"/><path d="m256.965 359.443h-80.163c-4.268 0-7.726-3.459-7.726-7.726s3.459-7.726 7.726-7.726h80.163c4.268 0 7.726 3.459 7.726 7.726s-3.458 7.726-7.726 7.726z"/><path d="m218.939 393.342h-42.137c-4.268 0-7.726-3.459-7.726-7.726s3.459-7.726 7.726-7.726h42.137c4.268 0 7.726 3.459 7.726 7.726 0 4.266-3.458 7.726-7.726 7.726z"/><path d="m129.975 212.461h-80.163c-4.268 0-7.726-3.459-7.726-7.726s3.459-7.726 7.726-7.726h80.163c4.268 0 7.726 3.459 7.726 7.726s-3.458 7.726-7.726 7.726z"/><path d="m91.949 246.36h-42.137c-4.268 0-7.726-3.459-7.726-7.726s3.459-7.726 7.726-7.726h42.137c4.268 0 7.726 3.459 7.726 7.726s-3.458 7.726-7.726 7.726z"/></g><path d="m238.336 278.236h-45.112c-4.751 0-9.199-1.868-12.525-5.26s-5.107-7.876-5.014-12.626l.619-31.683c.164-8.313 2.293-16.596 6.157-23.955l1.993-3.793c2.875-5.475 4.395-11.637 4.395-17.82v-15.363c0-4.267 3.459-7.726 7.726-7.726h38.026c4.268 0 7.726 3.459 7.726 7.726v13.734c0 7.071 1.953 13.995 5.647 20.024l.561.915c5.38 8.781 8.117 18.86 7.915 29.151l-.576 29.475c-.185 9.485-8.053 17.201-17.538 17.201zm-34.034-102.773v7.637c0 8.677-2.133 17.323-6.168 25.006l-1.992 3.792c-2.754 5.244-4.272 11.148-4.387 17.072l-.619 31.682c-.015.725.317 1.218.597 1.504.281.286.767.627 1.492.627h45.112c1.13 0 2.066-.919 2.089-2.049l.576-29.474c.144-7.334-1.806-14.518-5.64-20.773l-.561-.915c-5.185-8.463-7.925-18.179-7.925-28.101v-6.008z" fill="#fff"/><path d="m65.001 413.87c-9.038 0-17.035-2.805-22.894-8.665-16.308-16.308-8.965-49.199 16.714-74.878 11.729-11.729 25.56-20.115 38.947-23.614 14.843-3.881 27.603-1.429 35.932 6.899 16.307 16.306 8.965 49.197-16.714 74.878-16.454 16.453-35.87 25.38-51.985 25.38zm45.749-93.471c-2.782 0-5.835.418-9.074 1.264-10.771 2.815-22.11 9.773-31.927 19.59-16.493 16.492-27.414 42.325-16.715 53.025 10.696 10.699 36.531-.221 53.024-16.714 16.493-16.493 27.413-42.326 16.715-53.025-2.736-2.735-6.922-4.14-12.023-4.14zm.771 62.628h.01z" fill="#e27d47"/><path d="m104.182 363.188c-1.977 0-3.955-.755-5.464-2.263l-12.333-12.333c-3.017-3.017-3.017-7.909 0-10.927 3.018-3.017 7.909-3.017 10.928 0l12.333 12.333c3.017 3.017 3.017 7.909 0 10.927-1.509 1.509-3.487 2.263-5.464 2.263z" fill="#e27d47"/><path d="m83.956 383.414c-1.977 0-3.955-.754-5.463-2.263l-12.333-12.332c-3.018-3.017-3.018-7.909-.001-10.927 3.018-3.017 7.91-3.018 10.927 0l12.333 12.332c3.018 3.017 3.018 7.909.001 10.927-1.509 1.509-3.487 2.263-5.464 2.263z" fill="#e27d47"/><path d="m227.891 242.278h-23.638c-4.268 0-7.726-3.459-7.726-7.726s3.459-7.726 7.726-7.726h23.638c4.268 0 7.726 3.459 7.726 7.726 0 4.266-3.459 7.726-7.726 7.726z" fill="#fff"/><path d="m398.418 368.804c-.556 0-1.122-.06-1.687-.187-4.165-.928-6.79-5.056-5.861-9.221l1.855-8.326c.928-4.165 5.057-6.792 9.221-5.861 4.165.928 6.79 5.056 5.861 9.221l-1.855 8.326c-.802 3.6-3.994 6.048-7.534 6.048z" fill="#eab14d"/><path d="m472.984 259.104c-2.899 0-5.678-1.64-6.995-4.437-5.341-11.343.163-33.741 10.352-72.354 8.004-30.332 17.075-64.711 14.148-81.605-2.452-14.127-11.434-21.557-26.695-22.081-4.266-.146-7.604-3.722-7.457-7.987.146-4.265 3.695-7.61 7.987-7.457 22.592.776 37.678 13.49 41.39 34.884 3.504 20.217-5.614 54.771-14.432 88.188-6.128 23.22-14.519 55.021-11.314 61.828 1.818 3.861.162 8.464-3.698 10.282-1.062.502-2.183.739-3.286.739z" fill="#f6e266"/><path d="m466.546 82.825 4.12-24.926c1.041-6.3-3.229-12.262-9.529-13.303l-19.333-3.196c-6.309-1.043-12.262 3.229-13.303 9.529l-4.12 24.926" fill="#f6e266"/><path d="m457.656 44.021c-6.309-1.043-12.262 3.229-13.303 9.529l-4.12 24.926-15.852-2.62 4.12-24.926c1.041-6.3 6.994-10.572 13.303-9.529z" fill="#eab14d"/><path d="m463.768 204.728c-14.085 85.213-42.515 151.489-63.5 148.021-20.985-3.469-26.574-75.368-12.489-160.581 7.142-43.207 17.974-81.551 29.648-108.39 3.173-7.295 10.914-11.479 18.763-10.182l19.898 3.289c7.849 1.297 13.832 7.75 14.489 15.678 2.416 29.168.333 68.958-6.809 112.165z" fill="#da4a54"/><path d="m400.269 352.748c-20.985-3.469-26.574-75.368-12.489-160.581 7.142-43.207 17.973-81.548 29.645-108.394 3.175-7.291 10.92-11.475 18.766-10.178l7.21 1.192c-2.156-.356-4.917 4.652-6.696 12.173-6.574 27.688-14.233 66.553-21.375 109.761-14.085 85.213-20.831 155.074-15.061 156.027z" fill="#c32430"/></svg>