<svg id="Capa_1" enable-background="new 0 0 512 512" height="512" viewBox="0 0 512 512" width="512" xmlns="http://www.w3.org/2000/svg"><path d="m274.82 160.964c-3.844 0-7.686-1.467-10.615-4.402-5.854-5.863-5.846-15.36.018-21.213 30.556-30.504 58.076-28.807 75.784-22.009l31.013 11.794c7.743 2.945 11.633 11.609 8.689 19.353-2.944 7.743-11.611 11.633-19.353 8.689l-31.057-11.811c-13.739-5.274-28.488-.149-43.881 15.216-2.928 2.922-6.764 4.383-10.598 4.383z" fill="#bcaaa4"/><path d="m287.928 138.671-50.205-90.233c-2.647-4.757-7.664-7.707-13.108-7.707s-10.461 2.95-13.108 7.707l-37.074 66.632-37.073-66.632c-2.648-4.758-7.665-7.707-13.108-7.707-.009 0-.018 0-.027 0-5.454.01-10.473 2.979-13.107 7.754l-49.781 90.233c-2.488 4.51-2.488 9.982 0 14.492l49.781 90.234c2.634 4.775 7.653 7.744 13.107 7.754h.027c5.443 0 10.46-2.95 13.108-7.707l37.073-66.632 37.074 66.632c2.647 4.757 7.664 7.707 13.108 7.707s10.461-2.95 13.108-7.707l50.205-90.233c2.523-4.535 2.523-10.052 0-14.587zm-163.62 66.575-32.706-59.282 32.706-59.282 32.983 59.282zm100.307.1-33.039-59.382 33.039-59.381 33.04 59.381z" fill="#987f77"/><path d="m224.615 205.346-33.039-59.382h-34.284l-32.983 59.282-32.706-59.282h-32.132c0 2.495.622 4.991 1.866 7.246l49.781 90.234c2.634 4.775 7.653 7.744 13.107 7.754h.027c5.443 0 10.46-2.95 13.108-7.707l37.073-66.632 37.074 66.632c2.647 4.757 7.664 7.707 13.108 7.707s10.461-2.95 13.108-7.707l50.205-90.233c1.262-2.267 1.893-4.78 1.893-7.293h-32.165z" fill="#68544f"/><path d="m51.054 291.929h-40.771c-5.679 0-10.283-6.716-10.283-15v-261.929c0-8.284 4.604-15 10.283-15h40.771c5.679 0 10.283 6.716 10.283 15v261.929c0 8.284-4.604 15-10.283 15z" fill="#6ed664"/><path d="m0 145.964v130.965c0 8.284 4.604 15 10.283 15h40.771c5.679 0 10.283-6.716 10.283-15v-130.965z" fill="#26ab6f"/><path d="m395.539 129.568c-8.284 0-15-6.716-15-15v-21.349c0-8.284 6.716-15 15-15s15 6.716 15 15v21.349c0 8.284-6.716 15-15 15z" fill="#efebe9"/><path d="m395.539 78.219v51.349c8.284 0 15-6.716 15-15v-21.349c0-8.284-6.716-15-15-15z" fill="#d7ccc8"/><path d="m420.002 190.901h-48.927c-6.789 0-12.293-5.504-12.293-12.293v-57.688c0-6.789 5.504-12.293 12.293-12.293h48.927c6.789 0 12.293 5.504 12.293 12.293v57.688c0 6.789-5.504 12.293-12.293 12.293z" fill="#d7ccc8"/><path d="m420.002 108.628h-24.463v82.273h24.463c6.789 0 12.293-5.504 12.293-12.293v-57.688c0-6.789-5.504-12.292-12.293-12.292z" fill="#bcaaa4"/><path d="m395.539 416.28c-20.268 0-36.757-15.195-36.757-33.871v-30.486c0-11.482 9.856-20.824 21.971-20.824h29.57c12.115 0 21.971 9.342 21.971 20.824v30.486c.001 18.676-16.488 33.871-36.755 33.871z" fill="#fddb8d"/><path d="m410.323 331.099h-14.785v85.181c20.267 0 36.756-15.195 36.756-33.871v-30.486c.001-11.482-9.856-20.824-21.971-20.824z" fill="#fbac5b"/><path d="m472.832 357.367h-154.587c-7.958 0-14.41-6.451-14.41-14.41v-77.551c0-50.565 41.137-91.703 91.703-91.703s91.704 41.138 91.704 91.703v77.551c0 7.959-6.452 14.41-14.41 14.41z" fill="#2cc07f"/><path d="m395.539 173.703v183.664h77.294c7.958 0 14.409-6.451 14.409-14.41v-77.551c0-50.564-41.138-91.702-91.703-91.703z" fill="#26ab6f"/><path d="m497 361.131h-202.923c-8.284 0-15-6.716-15-15s6.716-15 15-15h202.923c8.284 0 15 6.716 15 15s-6.716 15-15 15z" fill="#084e41"/><path d="m497 331.131h-101.461v30h101.461c8.284 0 15-6.716 15-15s-6.716-15-15-15z" fill="#17242a"/><path d="m489.244 465.149c-3.843 0-7.686-1.468-10.615-4.402l-18.361-18.392c-5.854-5.863-5.846-15.36.018-21.213 5.861-5.852 15.359-5.846 21.213.018l18.361 18.392c5.853 5.863 5.846 15.36-.018 21.213-2.928 2.923-6.763 4.384-10.598 4.384z" fill="#fd8f32"/><path d="m303.429 467.417c-3.835 0-7.669-1.461-10.598-4.384-5.863-5.853-5.871-15.351-.018-21.213l18.361-18.392c5.851-5.863 15.349-5.871 21.213-.017 5.863 5.853 5.871 15.35.018 21.213l-18.361 18.392c-2.929 2.933-6.772 4.401-10.615 4.401z" fill="#fbac5b"/><path d="m395.539 512c-8.284 0-15-6.716-15-15v-26.01c0-8.284 6.716-15 15-15s15 6.716 15 15v26.01c0 8.284-6.716 15-15 15z" fill="#fbac5b"/><path d="m395.539 455.99v56.01c8.284 0 15-6.716 15-15v-26.01c0-8.284-6.716-15-15-15z" fill="#fd8f32"/></svg>