<svg id="Capa_1" enable-background="new 0 0 512.198 512.198" height="512" viewBox="0 0 512.198 512.198" width="512" xmlns="http://www.w3.org/2000/svg"><path d="m134.152 512.198v-225.037h63.123v-120.235c0-2.838 2.073-5.147 4.621-5.147h102.68c2.548 0 4.621 2.309 4.621 5.147v120.235h68.847v225.037z" fill="#fddb8d"/><path d="m309.198 287.161v-120.235c0-2.838-2.073-5.147-4.621-5.147h-49.781v350.419h123.249v-225.037z" fill="#fbac5b"/><path d="m331.236 512.198h-150.274v-114.186c0-39.628 33.706-71.868 75.137-71.868s75.137 32.24 75.137 71.868z" fill="#fd8f32"/><path d="m256.099 326.143c-.437 0-.868.024-1.303.032v186.023h76.44v-114.186c0-39.628-33.706-71.869-75.137-71.869z" fill="#fb6f44"/><path d="m308.693 102.948-.2-.284-38.697-62.919v-24.745c0-8.284-6.716-15-15-15s-15 6.716-15 15v25.253l-38.571 62.343-.201.284c-9.319 13.155-14.245 28.64-14.245 44.78v18.528c0 3.082 2.243 5.591 5 5.591h126.034c2.757 0 5-2.508 5-5.591v-18.641c0-16.06-4.882-31.483-14.12-44.599z" fill="#fbac5b"/><path d="m308.693 102.948-.2-.284-38.697-62.919v-24.745c0-8.284-6.716-15-15-15v171.779h63.017c2.757 0 5-2.508 5-5.591v-18.641c0-16.06-4.882-31.483-14.12-44.599z" fill="#fd8f32"/><path d="m22.079 512.198v-259.619c0-2.838 2.243-5.147 5-5.147h102.073c2.757 0 5 2.309 5 5.147v259.619z" fill="#fddb8d"/><path d="m40.38 355.239h-13.281c-1.764 0-3.448.32-5.02.879v28.242c1.572.559 3.257.879 5.02.879h13.281c8.284 0 15-6.716 15-15s-6.716-15-15-15z" fill="#fd8f32"/><g fill="#fbac5b"><path d="m40.38 294.831h-13.281c-1.764 0-3.448.32-5.02.879v28.242c1.572.559 3.257.879 5.02.879h13.281c8.284 0 15-6.716 15-15s-6.716-15-15-15z"/><path d="m129.152 247.433h-51.036v264.766h56.036v-259.619c0-2.838-2.243-5.147-5-5.147z"/><path d="m132.014 188.755-.2-.273-38.509-60.249v-22.657c0-8.284-6.716-15-15-15s-15 6.716-15 15v22.557l-38.76 60.284-.201.273c-9.319 12.658-14.245 27.559-14.245 43.09v17.829c0 2.966 2.243 5.38 5 5.38h126.034c2.757 0 5-2.414 5-5.38v-17.937c0-15.455-4.882-30.296-14.119-42.917z"/></g><path d="m132.014 188.755-.2-.273-38.509-60.249v-22.657c0-8.284-6.716-15-15-15-.064 0-.125.009-.189.009v164.403h63.017c2.757 0 5-2.414 5-5.38v-17.937c0-15.454-4.882-30.295-14.119-42.916z" fill="#fd8f32"/><path d="m378.045 512.198v-259.619c0-2.838 2.243-5.147 5-5.147h102.074c2.757 0 5 2.309 5 5.147v259.619z" fill="#fddb8d"/><path d="m485.119 247.433h-51.037v264.766h56.037v-259.619c0-2.838-2.243-5.147-5-5.147z" fill="#fbac5b"/><path d="m490.119 384.367v-28.256c-1.566-.555-3.244-.872-5-.872h-13.281c-8.284 0-15 6.716-15 15s6.716 15 15 15h13.281c1.756 0 3.434-.317 5-.872z" fill="#fb6f44"/><path d="m490.119 323.959v-28.256c-1.566-.555-3.244-.872-5-.872h-13.281c-8.284 0-15 6.716-15 15s6.716 15 15 15h13.281c1.756 0 3.434-.317 5-.872z" fill="#fd8f32"/><path d="m487.98 188.755-.2-.273-37.874-59.256v-23.65c0-8.284-6.716-15-15-15s-15 6.716-15 15v21.569l-39.395 61.271-.201.273c-9.319 12.658-14.245 27.559-14.245 43.09v17.829c0 2.966 2.243 5.38 5 5.38h126.034c2.757 0 5-2.414 5-5.38v-17.937c0-15.454-4.882-30.295-14.119-42.916z" fill="#fbac5b"/><path d="m487.98 188.755-.2-.273-37.874-59.256v-23.65c0-8.284-6.716-15-15-15-.278 0-.549.027-.824.041v164.371h63.017c2.757 0 5-2.414 5-5.38v-17.937c0-15.454-4.882-30.295-14.119-42.916z" fill="#fd8f32"/></svg>