<svg id="Capa_1" enable-background="new 0 0 511.633 511.633" height="512" viewBox="0 0 511.633 511.633" width="512" xmlns="http://www.w3.org/2000/svg"><path d="m149.353 360.844c-.994 0-1.957-.293-2.784-.847-54.676-36.629-87.318-97.725-87.318-163.432 0-108.386 88.179-196.565 196.565-196.565s196.566 88.179 196.566 196.565c0 65.705-32.64 126.802-87.313 163.433-.826.553-1.788.846-2.783.846z" fill="#d7f2f9"/><path d="m255.816 0v360.844h106.47c.995 0 1.957-.293 2.783-.846 54.673-36.631 87.313-97.727 87.313-163.433 0-108.386-88.179-196.565-196.566-196.565z" fill="#a1e3f9"/><path d="m368.855 501.417h-226.077c-8.284 0-15-5.842-15-13.047v-113.446c0-7.206 6.716-13.047 15-14.081h226.077c8.284 1.033 15 6.875 15 14.081v113.446c0 7.205-6.716 13.047-15 13.047z" fill="#fddb8d"/><path d="m368.855 360.844h-113.039v140.573h113.039c8.284 0 15-5.842 15-13.047v-113.446c0-7.205-6.716-13.047-15-14.08z" fill="#fbac5b"/><path d="m316.646 446.053c-6.059 0-11.652-3.794-13.91-9.407-2.269-5.64-.827-12.252 3.571-16.452 4.579-4.373 11.634-5.352 17.247-2.445 5.674 2.939 8.925 9.379 7.898 15.691-1.168 7.175-7.527 12.613-14.806 12.613z" fill="#f92f3e"/><path d="m194.986 446.053c-6.176 0-11.848-3.933-14.026-9.703-2.18-5.775-.516-12.433 4.094-16.532 4.894-4.351 12.23-4.916 17.796-1.53 5.407 3.289 8.167 9.931 6.759 16.085-1.543 6.741-7.689 11.68-14.623 11.68z" fill="#fa676d"/><path d="m255.816 446.053c-6.291 0-12.041-4.08-14.136-10.001-1.887-5.333-.545-11.438 3.414-15.485 4.669-4.773 12.102-5.828 17.945-2.645 5.69 3.099 8.781 9.801 7.466 16.142-1.427 6.884-7.634 11.989-14.689 11.989z" fill="#fa676d"/><path d="m270.746 429.583c-.762-7.505-7.378-13.522-14.93-13.526v29.995c8.624.001 15.814-7.869 14.93-16.469z" fill="#f92f3e"/><path d="m386.259 380.844h-260.885c-8.284 0-15-6.716-15-15s6.716-15 15-15h260.886c8.284 0 15 6.716 15 15-.001 8.284-6.717 15-15.001 15z" fill="#fd8f32"/><path d="m386.259 350.844h-130.443v30h130.443c8.284 0 15-6.716 15-15s-6.716-15-15-15z" fill="#fb6f44"/><path d="m386.259 511.633h-260.885c-8.284-.367-15-7.083-15-15.367s6.716-15 15-15h260.886c8.284 0 15 6.716 15 15-.001 8.284-6.717 15-15.001 15.367z" fill="#fd8f32"/><path d="m386.259 481.266h-130.443v30.367h130.443c8.284-.367 15-7.083 15-15.367 0-8.285-6.716-15-15-15z" fill="#fb6f44"/></svg>