<svg id="Capa_1" enable-background="new 0 0 512.004 512.004" height="512" viewBox="0 0 512.004 512.004" width="512" xmlns="http://www.w3.org/2000/svg"><path d="m260.825 500.199c-2.647 0-4.801-2.243-4.801-5v-11.563c0-35.29 27.567-64 61.452-64h160.759c2.647 0 4.801 2.243 4.801 5v70.563c0 2.757-2.154 5-4.801 5z" fill="#f3a871"/><path d="m35.321 500.199c-2.619 0-4.75-2.243-4.75-5v-70.563c0-2.757 2.131-5 4.75-5h159.902c33.526 0 60.801 28.71 60.801 64v11.563c0 2.757-2.131 5-4.75 5z" fill="#fde4c3"/><path d="m497.004 512.001h-482.004c-8.284 0-15-6.716-15-15s6.716-15 15-15h482.004c8.284 0 15 6.716 15 15s-6.716 15-15 15z" fill="#fb9d9b"/><path d="m497.004 482.001h-240.98v30h240.98c8.284 0 15-6.716 15-15s-6.716-15-15-15z" fill="#f92f3e"/><path d="m412.973 248.775h-313.942c-1.587 0-3.115-.229-4.551-.655-29.85-2.063-53.426-24.24-53.426-51.202 0-19.412 12.387-36.782 31.031-45.481-1.08-5.112-1.624-10.305-1.624-15.54 0-49.841 49.34-90.39 109.987-90.39 10.881 0 21.49 1.276 31.705 3.806 12.164-28.996 43.958-49.309 80.303-49.309 32.238 0 61.68 16.146 76.179 40.985 23.003 2.267 44.325 10.841 60.829 24.601 19.349 16.131 30.004 37.574 30.004 60.381 0 11.291-2.673 22.391-7.816 32.709 12.049 9.612 19.297 23.498 19.297 38.239 0 26.962-23.576 49.139-53.426 51.202-1.435.424-2.964.654-4.55.654z" fill="#a1e3f9"/><path d="m451.652 158.679c5.143-10.318 7.816-21.418 7.816-32.709 0-22.806-10.655-44.25-30.004-60.381-16.504-13.76-37.826-22.334-60.829-24.601-14.499-24.838-43.94-40.985-76.179-40.985-12.952 0-25.319 2.591-36.433 7.224v241.547h156.949c1.587 0 3.115-.229 4.551-.655 29.85-2.063 53.426-24.24 53.426-51.202 0-14.74-7.248-28.626-19.297-38.238z" fill="#2fc1e0"/><path d="m297.055 227.924v47.527h47.221c4.941 0 9.452 2.739 11.632 7.062s1.65 9.478-1.368 13.293l-87.802 111.003c-2.447 3.094-6.225 4.91-10.231 4.92-.011 0-.022 0-.033 0-3.995 0-7.767-1.796-10.223-4.868l-88.746-111.004c-3.045-3.809-3.597-8.977-1.424-13.315 2.174-4.339 6.694-7.091 11.647-7.091h47.222v-47.527c0-6.979 5.803-12.637 12.962-12.637h56.181c7.158 0 12.962 5.658 12.962 12.637z" fill="#bcaaa4"/><path d="m354.54 295.806-87.802 111.003c-2.447 3.094-6.225 4.91-10.231 4.92-.011 0-.022 0-.033 0-.158 0-.314-.021-.471-.026v-196.416h28.091c7.158 0 12.962 5.658 12.962 12.637v47.527h47.221c4.941 0 9.452 2.739 11.632 7.062 2.179 4.323 1.649 9.478-1.369 13.293z" fill="#68544f"/></svg>