<svg id="Capa_1" enable-background="new 0 0 512.004 512.004" height="512" viewBox="0 0 512.004 512.004" width="512" xmlns="http://www.w3.org/2000/svg"><path d="m323.178 388.444h-134.352c-8.284 0-15-6.716-15-15s6.716-15 15-15h134.352c8.284 0 15 6.716 15 15s-6.716 15-15 15z" fill="#8f7972"/><path d="m323.178 358.444h-67.176v30h67.176c8.284 0 15-6.716 15-15s-6.716-15-15-15z" fill="#53433f"/><path d="m323.178 328.444h-134.352c-8.284 0-15-6.716-15-15s6.716-15 15-15h134.352c8.284 0 15 6.716 15 15s-6.716 15-15 15z" fill="#8f7972"/><path d="m323.178 298.444h-67.176v30h67.176c8.284 0 15-6.716 15-15s-6.716-15-15-15z" fill="#53433f"/><path d="m323.178 268.444h-134.352c-8.284 0-15-6.716-15-15s6.716-15 15-15h134.352c8.284 0 15 6.716 15 15s-6.716 15-15 15z" fill="#8f7972"/><path d="m323.178 238.444h-67.176v30h67.176c8.284 0 15-6.716 15-15s-6.716-15-15-15z" fill="#53433f"/><path d="m188.826 448.444c-8.284 0-15-6.716-15-15v-216.34c0-8.284 6.716-15 15-15s15 6.716 15 15v216.34c0 8.284-6.716 15-15 15z" fill="#bcaaa4"/><path d="m323.178 448.444c-8.284 0-15-6.716-15-15v-216.34c0-8.284 6.716-15 15-15s15 6.716 15 15v216.34c0 8.284-6.716 15-15 15z" fill="#3b2f2d"/><path d="m467.004 418.444h-152.004c-19.767 0-38.35 7.697-52.325 21.674-2.429 2.429-4.655 5.005-6.697 7.694-13.526-17.828-34.928-29.368-58.978-29.368h-152c-8.284 0-15 6.716-15 15v63.438c0 8.284 6.716 15 15 15h211.006 210.998c8.284 0 15-6.716 15-15v-63.438c0-8.284-6.716-15-15-15z" fill="#fde4c3"/><path d="m467.004 418.444h-152.004c-19.767 0-38.35 7.697-52.325 21.674-2.42 2.419-4.637 4.986-6.673 7.664v64.101h.004 210.998c8.284 0 15-6.716 15-15v-63.438c0-8.285-6.716-15.001-15-15.001z" fill="#f3a871"/><path d="m497.004 511.883h-482.004c-8.284 0-15-6.716-15-15s6.716-15 15-15h482.004c8.284 0 15 6.716 15 15s-6.716 15-15 15z" fill="#26ab6f"/><path d="m497.004 481.883h-241.002v30h241.002c8.284 0 15-6.716 15-15s-6.716-15-15-15z" fill="#084e41"/><path d="m346.941 168.291h-181.878c-1.311 0-2.581-.168-3.792-.483-20.229-1.843-36.106-18.28-36.106-38.218 0-12.967 6.804-24.711 17.405-31.703-.246-2.146-.369-4.307-.369-6.479 0-34.635 31.415-62.813 70.03-62.813 5.012 0 9.936.464 14.739 1.387 9.197-17.797 28.434-29.859 50.152-29.859 19.845 0 38.081 10.178 48.035 26.097 13.416 2.037 25.809 7.765 35.583 16.566 12.542 11.293 19.449 26.355 19.449 42.41 0 6.488-1.155 12.88-3.394 18.954 6.337 6.91 10.044 15.934 10.044 25.441 0 19.938-15.877 36.376-36.107 38.218-1.21.314-2.48.482-3.791.482z" fill="#a1e3f9"/><path d="m376.796 104.149c2.238-6.073 3.394-12.466 3.394-18.954 0-16.055-6.907-31.117-19.449-42.41-9.774-8.801-22.167-14.529-35.583-16.566-9.954-15.919-28.19-26.097-48.035-26.097-7.432 0-14.572 1.414-21.12 3.985v164.184h90.939c1.311 0 2.581-.168 3.792-.483 20.229-1.843 36.107-18.28 36.107-38.218-.001-9.507-3.708-18.531-10.045-25.441z" fill="#2fc1e0"/></svg>