<svg id="Capa_1" enable-background="new 0 0 512 512" height="512" viewBox="0 0 512 512" width="512" xmlns="http://www.w3.org/2000/svg"><path d="m422.49 366.21c-5.746 0-11.092-3.401-13.55-8.588-2.74-5.783-1.424-12.854 3.206-17.273 4.588-4.379 11.632-5.353 17.251-2.444 5.671 2.937 8.926 9.382 7.898 15.691-1.169 7.173-7.528 12.614-14.805 12.614z" fill="#fddb8d"/><path d="m364.14 431.42c-6.288 0-11.982-4.044-14.119-9.943-2.13-5.881-.231-12.685 4.599-16.647 4.85-3.979 11.84-4.474 17.222-1.27 5.385 3.206 8.223 9.664 6.999 15.8-1.383 6.925-7.637 12.06-14.701 12.06z" fill="#fbac5b"/><path d="m463.21 484.029c-6.253 0-12.021-4.061-14.114-9.952-2.095-5.895-.256-12.679 4.604-16.647 4.862-3.97 11.826-4.479 17.218-1.27 5.364 3.192 8.248 9.669 7.003 15.791-1.409 6.92-7.622 12.078-14.711 12.078z" fill="#fddb8d"/><path d="m463.21 271c-6.289 0-12.041-4.083-14.136-10.002-2.098-5.93-.166-12.788 4.77-16.711 5.212-4.143 12.743-4.352 18.148-.442 4.721 3.415 7.092 9.451 5.907 15.164-1.427 6.885-7.635 11.991-14.689 11.991z" fill="#fb6f44"/><path d="m353.08 317.87c-6.253 0-12.016-4.052-14.11-9.947-2.093-5.892-.263-12.684 4.6-16.654 4.867-3.973 11.827-4.471 17.218-1.263 5.368 3.195 8.249 9.667 7.003 15.794-1.41 6.925-7.623 12.07-14.711 12.07z" fill="#fd8f32"/><path d="m258.803 231.491-254.307 254.307c-5.994 5.994-5.994 15.712 0 21.706s15.712 5.994 21.706 0l254.307-254.307z" fill="#b45d4a"/><path d="m269.656 242.344-265.16 265.161c5.994 5.994 15.712 5.994 21.706 0l254.307-254.307z" fill="#6b312e"/><path d="m378.298 155.408c5.994-5.994 5.994-15.712 0-21.706s-15.712-5.994-21.706 0l-97.789 97.789 21.706 21.706z" fill="#fbac5b"/><path d="m378.298 133.702-108.642 108.642 10.853 10.853 97.789-97.789c5.994-5.993 5.994-15.712 0-21.706z" fill="#fd8f32"/><path d="m271.039 265.434-24.472-24.473c-5.994-5.994-5.994-15.712 0-21.706s15.712-5.994 21.706 0l24.472 24.473c5.994 5.994 5.994 15.712 0 21.706s-15.712 5.994-21.706 0z" fill="#fd8f32"/><path d="m292.745 243.727-12.236-12.236-21.706 21.706 12.236 12.236c5.994 5.994 15.712 5.994 21.706 0 5.994-5.993 5.994-15.712 0-21.706z" fill="#fb6f44"/><path d="m384.59 207.726c-1.728-1.728-3.049-3.873-3.803-6.296l-16.651-53.567-53.567-16.651c-5.577-1.735-9.689-6.484-10.603-12.256-.914-5.77 1.527-11.559 6.297-14.933l45.799-32.389-.717-56.09c-.075-5.842 3.174-11.219 8.38-13.872 5.205-2.652 11.465-2.119 16.147 1.375l44.956 33.549 53.124-18.015c5.533-1.876 11.651-.448 15.782 3.683s5.559 10.249 3.683 15.782l-18.015 53.124 33.549 44.956c3.495 4.682 4.027 10.942 1.375 16.147-2.653 5.206-8.03 8.454-13.872 8.38l-56.09-.717-32.389 45.799c-3.374 4.77-9.163 7.212-14.933 6.297-3.264-.515-6.202-2.056-8.452-4.306z" fill="#fddb8d"/><path d="m510.327 152.274c2.652-5.205 2.119-11.465-1.375-16.147l-33.549-44.956 18.015-53.124c1.876-5.533.448-11.651-3.683-15.782l-125.599 125.599 16.651 53.567c.754 2.423 2.075 4.568 3.803 6.296 2.25 2.25 5.188 3.791 8.453 4.307 5.77.914 11.559-1.527 14.933-6.297l32.389-45.799 56.09.717c5.842.073 11.22-3.175 13.872-8.381z" fill="#fbac5b"/></svg>