<svg id="Capa_1" enable-background="new 0 0 512 512" height="512" viewBox="0 0 512 512" width="512" xmlns="http://www.w3.org/2000/svg"><path d="m124.178 140.565h263.645v245.361h-263.645z" fill="#6b312e"/><path d="m257.667 140.565h130.155v245.361h-130.155z" fill="#452123"/><path d="m256.246 331.388c-14.631 0-28.493-6.362-38.032-17.455l-.121-.141c-.995-1.158-8.145-9.48-11.746-13.685-1.294-1.51-2.683-2.965-4.128-4.324l-8.733-8.212c-8.62-8.105-15.467-17.491-20.351-27.897-7.172-15.282-10.919-31.589-11.133-48.468l.316-120.033c.003-1.195.492-2.364 1.34-3.206.856-.849 1.99-1.316 3.195-1.316l179.989.875c1.194.006 2.361.496 3.202 1.345.852.862 1.318 2.003 1.311 3.215l-.671 119.182c-.231 16.946-4.017 33.306-11.255 48.626-4.955 10.489-11.917 19.935-20.69 28.074l-8.345 7.742c-1.546 1.436-3.025 2.974-4.395 4.572-3.925 4.58-11.719 13.651-11.719 13.651-9.54 11.091-23.404 17.455-38.034 17.455z" fill="#fddad8"/><path d="m350.043 88.871c-.841-.849-2.008-1.339-3.202-1.345l-89.174-.433v244.256c14.126-.408 27.391-6.694 36.611-17.417 0 0 7.794-9.071 11.719-13.651 1.37-1.598 2.848-3.136 4.395-4.572l8.345-7.742c8.773-8.139 15.734-17.584 20.69-28.074 7.238-15.32 11.024-31.68 11.255-48.626l.671-119.182c.008-1.211-.458-2.353-1.31-3.214z" fill="#fbb5ae"/><path d="m220.059 512c-.278 0-.559-.024-.831-.073l-168.116-29.65c-2.413-.426-4.165-2.585-4.165-5.133v-212.086c0-1.536.646-2.986 1.772-3.977.901-.792 2.048-1.229 3.227-1.229.277 0 .558.024.832.073l168.116 29.651c2.413.426 4.165 2.585 4.165 5.133v212.084c0 1.536-.646 2.986-1.772 3.977-.902.793-2.049 1.23-3.228 1.23z" fill="#bcaaa4"/><path d="m291.754 512c-1.18 0-2.326-.437-3.228-1.23-1.127-.99-1.772-2.44-1.772-3.976v-212.084c0-2.549 1.752-4.708 4.166-5.133l168.3-29.652c.273-.048.555-.072.833-.072 1.181 0 2.327.437 3.228 1.229 1.128.992 1.773 2.441 1.773 3.977v212.085c0 2.549-1.752 4.708-4.166 5.133l-168.3 29.65c-.273.049-.556.073-.834.073z" fill="#7d655c"/><path d="m219.972 289.503h71.946v222.497h-71.946z" fill="#8f7972"/><path d="m257.667 289.503h34.251v222.497h-34.251z" fill="#68544f"/><path d="m461.298 414.928c-23.312 0-42.276-18.965-42.276-42.276 0-23.312 18.965-42.277 42.276-42.277h50.702v84.554h-50.702z" fill="#fbb5ae"/><path d="m419.022 372.651c0 23.312 18.965 42.277 42.276 42.277h50.702v-42.277z" fill="#fb9d9b"/><path d="m0 414.928v-84.554h51.647c23.312 0 42.277 18.966 42.277 42.277s-18.966 42.276-42.277 42.276h-51.647z" fill="#fddad8"/><path d="m0 372.651v42.277h51.647c23.312 0 42.277-18.965 42.277-42.276h-93.924z" fill="#fbb5ae"/><path d="m269.084 0h-9.412-3.814-9.412c-76.459 0-138.663 54.537-138.663 121.607l.356 49.054c.058 7.921 16.853 11.695 21.106 11.695 43.976 0 78.415-5.148 103.553-30.272 4.358-4.357 8.469-9.124 12.245-14.197 1.309-1.758 2.736-3.426 4.223-5.036l8.498-14.04 8.498 14.04c1.487 1.61 2.914 3.278 4.223 5.036 3.776 5.073 7.887 9.84 12.245 14.197 25.137 25.124 59.576 30.272 103.553 30.272 4.253 0 21.049-3.774 21.106-11.695l.356-49.054c.002-67.07-62.202-121.607-138.661-121.607z" fill="#b45d4a"/><path d="m269.084 0h-9.412-1.863v118.884l8.454 13.967c1.487 1.61 2.914 3.278 4.223 5.036 3.776 5.073 7.887 9.84 12.245 14.197 25.137 25.124 59.576 30.272 103.553 30.272 4.253 0 21.049-3.774 21.106-11.695l.356-49.054c.001-67.07-62.203-121.607-138.662-121.607z" fill="#94443f"/></svg>