<svg id="Capa_1" enable-background="new 0 0 512 512" height="512" viewBox="0 0 512 512" width="512" xmlns="http://www.w3.org/2000/svg"><path d="m322.527 452.133h-181.106c-6.6 0-12-5.4-12-12v-287.568c0-6.6 5.4-12 12-12h181.105c6.6 0 12 5.4 12 12v287.568c.001 6.6-5.399 12-11.999 12z" fill="#3b2f2d"/><path d="m360.291 217.323c-2.748 0-4.991-2.235-5-4.983l-.197-60.755c-.004-1.319.528-2.612 1.459-3.548.93-.933 2.221-1.469 3.541-1.469h30.009c19.249 0 34.909 15.87 34.909 35.377 0 19.508-15.66 35.378-34.909 35.378z" fill="#fcbc89"/><path d="m414.694 179.702c-5.259 0-10.361-2.77-13.108-7.687-4.04-7.231-1.454-16.37 5.778-20.411l16.349-9.135c7.231-4.039 16.37-1.454 20.411 5.778s1.454 16.37-5.778 20.411l-16.349 9.135c-2.315 1.294-4.827 1.909-7.303 1.909z" fill="#d7ccc8"/><path d="m428.587 227.323c-3.853 0-7.705-1.475-10.636-4.423l-12.155-12.223c-5.842-5.874-5.815-15.371.059-21.213 5.873-5.842 15.371-5.816 21.213.059l12.155 12.223c5.842 5.874 5.815 15.371-.059 21.213-2.927 2.91-6.752 4.364-10.577 4.364z" fill="#8f7972"/><path d="m261.627 347.282c-17.437 0-33.958-7.807-45.326-21.419-.893-1.068-8.338-9.996-11.256-13.502-.939-1.128-1.946-2.214-2.995-3.231l-8.273-8.01c-9.298-9.002-16.693-19.448-21.979-31.043-7.992-17.532-12.152-35.18-12.364-52.453-.013-1.111.331-2.217.971-3.113l121.898-170.826c.939-1.315 2.443-2.101 4.025-2.101.104 0 .21.004.314.011 43.77 2.832 78.054 40.443 78.054 85.627l-1.353 90.478c-.241 18.332-4.222 36.029-11.834 52.619-5.364 11.692-12.882 22.204-22.347 31.244l-7.903 7.551c-1.117 1.066-2.192 2.217-3.192 3.419-3.721 4.47-11.109 13.324-11.109 13.324-11.371 13.614-27.895 21.425-45.331 21.425z" fill="#fde4c3"/><path d="m286.643 41.595c-.105-.007-.21-.011-.314-.011-1.582 0-3.087.785-4.025 2.101l-24.494 34.324v269.135c1.267.083 2.539.138 3.818.138 17.436 0 33.96-7.811 45.331-21.424 0 0 7.389-8.854 11.109-13.324 1-1.202 2.075-2.353 3.192-3.419l7.903-7.551c9.464-9.041 16.983-19.552 22.347-31.245 7.612-16.59 11.593-34.287 11.834-52.619l1.353-90.478c-.001-45.184-34.285-82.795-78.054-85.627z" fill="#fcd1a6"/><path d="m130.98 330.566c-10.169 0-18.441-8.516-18.441-18.983v-152.888c0-45.48 17.616-86.478 49.604-115.441 30.804-27.893 72.984-43.254 118.771-43.254 10.168 0 18.441 8.516 18.441 18.983v110.326c0 .707-.039 1.421-.116 2.123-2.595 23.8-9.308 43.465-19.954 58.454-15.09 21.246-37.859 32.475-65.845 32.475-26.032 0-43.943 13.561-54.756 41.459-8.799 22.697-9.246 46.69-9.261 47.701l-.001.123c-.032 10.434-8.305 18.922-18.442 18.922z" fill="#53433f"/><path d="m280.914 0c-7.821 0-15.532.459-23.104 1.341v209.044c8.267-5.203 15.479-12.057 21.476-20.5 10.646-14.988 17.359-34.654 19.954-58.454.077-.702.116-1.416.116-2.123v-110.325c-.002-10.467-8.274-18.983-18.442-18.983z" fill="#3b2f2d"/><path d="m220.059 512c-.278 0-.559-.024-.831-.073l-168.116-29.65c-2.413-.426-4.165-2.585-4.165-5.133v-212.086c0-1.536.647-2.986 1.773-3.977.901-.792 2.048-1.229 3.226-1.229.277 0 .558.024.832.073l168.116 29.651c2.413.426 4.165 2.585 4.165 5.133v212.084c0 1.536-.646 2.986-1.773 3.977-.901.793-2.048 1.23-3.227 1.23z" fill="#fb9d9b"/><path d="m291.754 512c-1.18 0-2.326-.437-3.227-1.23-1.127-.99-1.773-2.44-1.773-3.976v-212.084c0-2.549 1.752-4.708 4.166-5.133l168.3-29.652c.273-.048.555-.072.833-.072 1.181 0 2.327.437 3.228 1.229 1.128.992 1.773 2.441 1.773 3.977v212.085c0 2.549-1.752 4.708-4.166 5.133l-168.3 29.65c-.274.049-.556.073-.834.073z" fill="#fa676d"/><path d="m219.972 289.503h71.946v222.497h-71.946z" fill="#fa676d"/><path d="m257.81 289.503h34.109v222.497h-34.109z" fill="#f92f3e"/><path d="m461.298 414.928c-23.312 0-42.276-18.965-42.276-42.276 0-23.312 18.965-42.277 42.276-42.277h50.702v84.554h-50.702z" fill="#fde4c3"/><path d="m419.021 372.651c0 23.312 18.965 42.277 42.276 42.277h50.703v-42.277z" fill="#fcd1a6"/><path d="m0 414.928v-84.554h51.647c23.312 0 42.277 18.966 42.277 42.277s-18.966 42.276-42.277 42.276h-51.647z" fill="#fff2de"/><path d="m0 372.651v42.277h51.647c23.312 0 42.277-18.965 42.277-42.276h-93.924z" fill="#fde4c3"/></svg>