<svg id="Capa_1" enable-background="new 0 0 512 512" height="512" viewBox="0 0 512 512" width="512" xmlns="http://www.w3.org/2000/svg"><path d="m511.969.016s-8.1.183-15.354.401c-37.272 1.008-72.033 18.676-97.88 49.748-25.324 30.446-39.271 70.532-39.271 112.875s13.947 82.429 39.271 112.874c14.232 17.109 31.169 30.143 49.737 38.581-20.792 10.031-39.7 26.156-55.41 47.649-26.308 35.994-40.796 83.332-40.796 133.294 0 .361.004.723.008 1.083l.006.563c.047 8.252 6.74 14.916 14.981 14.916h144.739v-194.194c0-1.23-.031-317.79-.031-317.79z" fill="#fa676d"/><path d="m511.969.016s-8.1.183-15.354.401c-13.818.373-27.29 3.043-40.092 7.83v503.753h55.477z" fill="#f92f3e"/><path d="m512 347.161v-58.642h-106.179c-2.633 0-4.776 1.871-4.776 4.171v50.3c0 2.3 2.143 4.171 4.776 4.171z" fill="#fddb8d"/><path d="m456.522 288.518h55.478v58.643h-55.478z" fill="#fbac5b"/><path d="m119.602 362.145c-15.71-21.494-34.618-37.619-55.41-47.649 18.568-8.438 35.506-21.472 49.737-38.581 25.325-30.445 39.271-70.531 39.271-112.874s-13.947-82.429-39.271-112.875c-25.847-31.073-60.608-48.741-97.88-49.749-4.04-.111-7.955 1.421-10.853 4.245s-4.533 6.7-5.196 10.749v496.589h145.402c8.24 0 14.934-6.664 14.981-14.916l.006-.561c.005-.361.009-.723.009-1.085 0-49.961-14.488-97.299-40.796-133.293z" fill="#fa676d"/><path d="m119.602 362.145c-15.71-21.494-34.618-37.619-55.41-47.649 18.568-8.438 35.506-21.472 49.737-38.581 25.325-30.445 39.271-70.531 39.271-112.874s-13.947-82.429-39.271-112.875c-16.264-19.553-36.06-33.793-57.788-41.919v503.753h89.261c8.24 0 14.934-6.664 14.981-14.916l.006-.561c.005-.361.009-.723.009-1.085 0-49.961-14.488-97.299-40.796-133.293z" fill="#f92f3e"/><path d="m0 347.161v-58.642h106.843c2.633 0 4.776 1.871 4.776 4.171v50.3c0 2.3-2.143 4.171-4.776 4.171z" fill="#fddb8d"/><path d="m106.843 288.518h-50.702v58.643h50.702c2.633 0 4.776-1.872 4.776-4.171v-50.3c0-2.3-2.143-4.172-4.776-4.172z" fill="#fbac5b"/><path d="m256.755 142.431c-61.733 0-120.238-12.413-164.735-34.952-47.978-24.303-74.957-57.981-75.735-94.653.95-7.866 7.262-12.826 14.101-12.826h454.412c7.927 1.253 12.673 7.773 12.369 14.606-1.599 35.98-28.475 68.963-75.678 92.872-44.496 22.54-103 34.953-164.734 34.953z" fill="#fa676d"/><path d="m484.798 0h-228.814v142.426c.257.001.514.005.771.005 61.734 0 120.238-12.413 164.734-34.952 47.203-23.909 74.079-56.892 75.678-92.872.304-6.834-4.442-13.354-12.369-14.607z" fill="#f92f3e"/><path d="m481.851.016c-8.444 70.505-107.49 126.778-225.867 126.778s-217.423-56.273-225.866-126.778l-30.118-.016c3.72 42.728 31.664 82.1 79.289 111.351 47.707 29.302 110.458 45.44 176.695 45.44s128.988-16.138 176.695-45.44c47.625-29.252 75.569-68.607 79.29-111.335h-30.118z" fill="#fddb8d"/><path d="m481.851.016c-8.444 70.505-107.49 126.778-225.867 126.778v29.997c66.237 0 128.988-16.138 176.695-45.44 47.625-29.251 75.569-68.607 79.29-111.335h-30.118z" fill="#fbac5b"/></svg>