<?xml version="1.0" encoding="UTF-8"?>
<svg xmlns="http://www.w3.org/2000/svg" xmlns:xlink="http://www.w3.org/1999/xlink" width="512" height="512" viewBox="0 0 36 58" version="1.1"><!-- Generator: Sketch 51.3 (57544) - http://www.bohemiancoding.com/sketch --><title>013 - Suitcase</title><desc>Created with Sketch.</desc><defs/><g id="Page-1" stroke="none" stroke-width="1" fill="none" fill-rule="evenodd"><g id="013---Suitcase" fill-rule="nonzero"><path d="M12,11 C11.4477153,11 11,10.5522847 11,10 L11,4 C11,3.44771525 11.4477153,3 12,3 C12.5522847,3 13,3.44771525 13,4 L13,10 C13,10.5522847 12.5522847,11 12,11 Z" id="Shape" fill="#2C3E50"/><path d="M24,11 C23.4477153,11 23,10.5522847 23,10 L23,4 C23,3.44771525 23.4477153,3 24,3 C24.5522847,3 25,3.44771525 25,4 L25,10 C25,10.5522847 24.5522847,11 24,11 Z" id="Shape" fill="#2C3E50"/><path d="M30,10 L6,10 C2.6862915,10 0,12.6862915 0,16 L0,48 C0,51.3137085 2.6862915,54 6,54 L6,56 C6,57.1045695 6.8954305,58 8,58 C9.1045695,58 10,57.1045695 10,56 L10,54 L26,54 L26,56 C26,57.1045695 26.8954305,58 28,58 C29.1045695,58 30,57.1045695 30,56 L30,54 C33.3137085,54 36,51.3137085 36,48 L36,16 C36,12.6862915 33.3137085,10 30,10 Z" id="Shape" fill="#35495E"/><rect id="Rectangle-path" fill="#894B9D" x="0" y="10" width="36" height="44" rx="6"/><rect id="Rectangle-path" fill="#955BA5" x="2" y="10" width="32" height="42" rx="6"/><path d="M6,54 L10,54 L10,56 C10,57.1045695 9.1045695,58 8,58 C6.8954305,58 6,57.1045695 6,56 L6,54 Z" id="Shape" fill="#35495E"/><path d="M26,54 L30,54 L30,56 C30,57.1045695 29.1045695,58 28,58 C26.8954305,58 26,57.1045695 26,56 L26,54 Z" id="Shape" fill="#35495E"/><path d="M18,22 C25.7319865,22 32,28.2680135 32,36 L32,47 C32,48.6568542 30.6568542,50 29,50 L7,50 C5.34314575,50 4,48.6568542 4,47 L4,36 C4,28.2680135 10.2680135,22 18,22 Z" id="Shape" fill="#B49ACA"/><path d="M28,37 C27.4477153,37 27,36.5522847 27,36 C27,31.0294373 22.9705627,27 18,27 C13.0294373,27 9,31.0294373 9,36 C9,36.5522847 8.55228475,37 8,37 C7.44771525,37 7,36.5522847 7,36 C7,29.9248678 11.9248678,25 18,25 C24.0751322,25 29,29.9248678 29,36 C29,36.5522847 28.5522847,37 28,37 Z" id="Shape" fill="#7D6599"/><path d="M30,15 L6,15 C5.44771525,15 5,14.5522847 5,14 C5,13.4477153 5.44771525,13 6,13 L30,13 C30.5522847,13 31,13.4477153 31,14 C31,14.5522847 30.5522847,15 30,15 Z" id="Shape" fill="#3D324C"/><path d="M8,18 C7.44771525,18 7,17.5522847 7,17 L7,14 C7,13.4477153 7.44771525,13 8,13 C8.55228475,13 9,13.4477153 9,14 L9,17 C9,17.5522847 8.55228475,18 8,18 Z" id="Shape" fill="#BDC3C7"/><rect id="Rectangle-path" fill="#35495E" x="9" y="0" width="18" height="4" rx="2"/></g></g></svg>
