<svg height="481pt" viewBox="0 -27 481.29999 481" width="481pt" xmlns="http://www.w3.org/2000/svg"><path d="m481.300781 187.828125c0-48.683594-107.742187-88.152344-240.652343-88.152344-132.90625 0-240.648438 39.46875-240.648438 88.152344 0 48.6875 107.742188 88.15625 240.648438 88.15625 132.910156 0 240.652343-39.46875 240.652343-88.15625zm0 0" fill="#db9c2e"/><path d="m296.648438 267.984375c-132.90625 0-240.648438-39.46875-240.648438-88.15625 0-33.460937 50.894531-62.566406 125.878906-77.5-104.496094 9.609375-181.878906 44.242187-181.878906 85.5 0 48.6875 107.742188 88.15625 240.648438 88.15625 41.5625 0 80.660156-3.859375 114.773437-10.652344-18.8125 1.730469-38.496094 2.652344-58.773437 2.652344zm0 0" fill="#bf6c0d"/><path d="m377.871094 151.003906c.171875-1.238281.234375-2.503906.207031-3.785156-.03125-1.519531-.195313-3.066406-.53125-4.617188-1.757813-8.109374-4.25-15.941406-7.371094-23.453124l-26.132812-92.757813c-4.371094-15.519531-18.527344-26.238281-34.652344-26.238281h-41.21875c-7.144531 0-13.453125 4.660156-15.546875 11.492187l-5.78125 8.828125c-1.371094 2.089844-3.699219 3.347656-6.195312 3.347656-2.496094 0-4.824219-1.257812-6.191407-3.347656l-5.78125-8.828125c-2.097656-6.832031-8.402343-11.492187-15.546875-11.492187h-41.21875c-16.121094 0-30.28125 10.71875-34.652344 26.238281l-26.132812 92.773437c-3.121094 7.507813-5.609375 15.335938-7.367188 23.4375-.335937 1.550782-.503906 3.089844-.535156 4.609376v.007812c-.023437 1.277344.039063 2.542969.210938 3.777344-.378906 1.550781-.300782 3.167968.320312 4.804687 13.554688 35.714844 69.695313 62.484375 136.894532 62.484375 67.199218 0 123.339843-26.769531 136.898437-62.484375.617187-1.636719.695313-3.25.324219-4.796875zm0 0" fill="#db9c2e"/><path d="m355.027344 130.410156c-2.621094 0-5.027344-1.726562-5.769532-4.375l-26.390624-93.679687c-1.691407-6.007813-7.234376-10.207031-13.476563-10.207031h-17.242187c-3.3125 0-6-2.683594-6-6 0-3.3125 2.6875-6 6-6h17.242187c11.589844 0 21.882813 7.792968 25.023437 18.953124l26.390626 93.679688c.898437 3.191406-.957032 6.503906-4.148438 7.402344-.542969.15625-1.089844.226562-1.628906.226562zm0 0" fill="#f9bb32"/><path d="m200.816406 426.566406h-132c-11.046875 0-20-8.953125-20-20v-76c0-11.042968 8.953125-20 20-20h132c11.046875 0 20 8.957032 20 20v76c0 11.046875-8.953125 20-20 20zm0 0" fill="#bf6c0d"/><path d="m204.816406 410.796875c-3.3125 0-6-2.6875-6-6v-28c0-3.316406 2.6875-6 6-6s6 2.683594 6 6v28c0 3.3125-2.6875 6-6 6zm0 0" fill="#e58d23"/><path d="m412.816406 426.566406h-132c-11.046875 0-20-8.953125-20-20v-76c0-11.042968 8.953125-20 20-20h132c11.046875 0 20 8.957032 20 20v76c0 11.046875-8.953125 20-20 20zm0 0" fill="#bf6c0d"/><path d="m416.816406 412.566406c-3.3125 0-6-2.683594-6-6v-29.773437c0-3.3125 2.6875-6 6-6s6 2.6875 6 6v29.773437c0 3.316406-2.6875 6-6 6zm0 0" fill="#e58d23"/><path d="m48.816406 371.566406h-22c-3.3125 0-6-2.683594-6-6v-28c0-3.3125 2.6875-6 6-6h22zm0 0" fill="#f9bb32"/><path d="m454.816406 371.566406h-22v-40h22c3.3125 0 6 2.6875 6 6v28c0 3.316406-2.6875 6-6 6zm0 0" fill="#f9bb32"/><path d="m159.753906 155.800781c-.621094-1.640625-.699218-3.257812-.320312-4.808593-.171875-1.234376-.234375-2.5-.210938-3.777344v-.007813c.035156-1.515625.199219-3.058593.535156-4.609375 1.757813-8.101562 4.246094-15.929687 7.367188-23.4375l26.132812-92.773437c3.539063-12.5625 13.496094-21.976563 25.714844-25.109375-1.832031-.707032-3.792968-1.128906-5.84375-1.128906h-41.21875c-16.121094 0-30.28125 10.722656-34.652344 26.238281l-26.132812 92.777343c-3.121094 7.507813-5.609375 15.335938-7.367188 23.4375-.335937 1.550782-.503906 3.089844-.535156 4.609376v.007812c-.023437 1.277344.039063 2.542969.210938 3.777344-.378906 1.550781-.300782 3.167968.320312 4.804687 13.554688 35.714844 69.695313 62.484375 136.894532 62.484375 9.59375 0 18.953124-.566406 28-1.601562-54.347657-6.242188-97.273438-30.269532-108.894532-60.882813zm0 0" fill="#bf6c0d"/><path d="m377.546875 142.597656c-1.191406-5.488281-2.730469-10.851562-4.558594-16.074218-18.96875 31.015624-71.046875 53.292968-132.339843 53.292968-61.292969 0-113.367188-22.273437-132.339844-53.289062-1.828125 5.226562-3.363282 10.585937-4.554688 16.074218-.621094 2.859376-.699218 5.6875-.324218 8.394532-.378907 1.550781-.300782 3.167968.324218 4.804687 13.550782 35.714844 69.695313 62.484375 136.894532 62.484375 67.199218 0 123.339843-26.769531 136.894531-62.484375.621093-1.632812.699219-3.25.324219-4.796875.378906-2.710937.300781-5.542968-.320313-8.40625zm0 0" fill="#a56021"/><path d="m132.050781 352.566406c0 9.941406-8.058593 18-18 18-9.941406 0-18-8.058594-18-18s8.058594-18 18-18c9.941407 0 18 8.058594 18 18zm0 0" fill="#a56021"/><path d="m166.011719 167.621094c-26.632813-9.511719-47.207031-23.957032-57.6875-41.070313-.386719 1.105469-.769531 2.210938-1.128907 3.332031-.203124.621094-.390624 1.246094-.582031 1.871094-.402343 1.304688-.785156 2.617188-1.144531 3.9375-.152344.550782-.300781 1.105469-.445312 1.660156-.453126 1.738282-.882813 3.488282-1.265626 5.25-.167968.773438-.292968 1.542969-.382812 2.304688-.003906.027344-.003906.054688-.003906.078125-.082032.75-.132813 1.492187-.148438 2.226563v.015624c-.011718.632813-.003906 1.265626.03125 1.890626.035156.628906.089844 1.257812.175782 1.878906-.1875.773437-.265626 1.566406-.214844 2.371094.050781.804687.226562 1.617187.539062 2.433593 13.550782 35.714844 69.695313 62.484375 136.894532 62.484375h.167968c2.238282 0 4.464844-.039062 6.671875-.097656.480469-.011719.953125-.039062 1.429688-.054688 1.867187-.0625 3.730469-.136718 5.574219-.242187.347656-.019531.691406-.042969 1.039062-.066406 2.03125-.121094 4.058594-.265625 6.0625-.4375.152344-.011719.300781-.027344.453125-.039063 2.214844-.195312 4.414063-.414062 6.59375-.664062h.003906c-47.125-5.414063-85.652343-24.207032-102.632812-49.0625zm0 0" fill="#8c4c17"/><path d="m209.710938 147.898438c0 9.941406-8.058594 18-18 18-9.941407 0-18-8.058594-18-18 0-9.941407 8.058593-18 18-18 9.941406 0 18 8.058593 18 18zm0 0" fill="#bf6c0d"/><path d="m88.816406 422.566406v-76c0-11.042968 8.953125-20 20-20h111.597656c-1.855468-9.125-9.921874-16-19.597656-16h-132c-11.046875 0-20 8.957032-20 20v76c0 11.046875 8.953125 20 20 20h20.402344c-.261719-1.289062-.402344-2.628906-.402344-4zm0 0" fill="#a56021"/><path d="m300.816406 422.566406v-76c0-11.042968 8.953125-20 20-20h111.597656c-1.855468-9.125-9.921874-16-19.597656-16h-132c-11.046875 0-20 8.957032-20 20v76c0 11.046875 8.953125 20 20 20h20.402344c-.261719-1.289062-.402344-2.628906-.402344-4zm0 0" fill="#a56021"/><path d="m266.984375 361.566406h-52.667969c-4.230468 0-7.664062-3.429687-7.664062-7.664062v-2.667969c0-4.230469 3.433594-7.664063 7.664062-7.664063h52.667969c4.234375 0 7.664063 3.433594 7.664063 7.664063v2.667969c0 4.234375-3.429688 7.664062-7.664063 7.664062zm0 0" fill="#f9bb32"/><g fill="#db9c2e"><path d="m230.648438 353.902344v-2.667969c0-4.230469 3.433593-7.664063 7.667968-7.664063h-24c-4.234375 0-7.667968 3.433594-7.667968 7.664063v2.667969c0 4.234375 3.433593 7.664062 7.667968 7.664062h24c-4.234375 0-7.667968-3.429687-7.667968-7.664062zm0 0"/><path d="m36.816406 365.566406v-28c0-3.3125 2.6875-6 6-6h-16c-3.3125 0-6 2.6875-6 6v28c0 3.316406 2.6875 6 6 6h16c-3.3125 0-6-2.683594-6-6zm0 0"/><path d="m432.816406 331.566406h16v40h-16zm0 0"/></g></svg>