<svg height="480pt" viewBox="0 -9 480.00052 480" width="480pt" xmlns="http://www.w3.org/2000/svg"><path d="m69.628906 256.210938-6.421875-36.492188c-.414062-2.355469 1.144531-4.601562 3.488281-5.019531l17.296876-3.082031c1.652343-.296876 3.320312.402343 4.277343 1.785156l22.210938 32.046875zm0 0" fill="#ffa730"/><path d="m80.414062 219.71875c-.414062-2.355469 1.148438-4.601562 3.488282-5.019531l4.691406-.835938-.320312-.460937c-.957032-1.382813-2.628907-2.082032-4.277344-1.785156l-17.300782 3.082031c-2.339843.417969-3.898437 2.664062-3.484374 5.019531l6.417968 36.492188 16.445313-4.332032zm0 0" fill="#e58d23"/><path d="m182.496094 332.707031-14.792969 2.636719c-.886719.160156-1.796875.03125-2.578125-.363281l-97.953125-49.328125 59.324219-14.289063 58.210937 55.128907c2.1875 2.074218.917969 5.65625-2.210937 6.214843zm0 0" fill="#ffb74b"/><path d="m92.980469 285.652344 38.746093-9.332032-5.234374-4.957031-59.324219 14.289063 97.957031 49.328125c.78125.394531 1.691406.523437 2.578125.363281l14.792969-2.636719c.804687-.144531 1.480468-.492187 2.015625-.960937zm0 0" fill="#ffa730"/><path d="m416.554688 331.050781-26.292969 4.683594c-1.574219.28125-3.191407.054687-4.582031-.644531l-174.082032-87.660156 105.429688-25.398438 103.449218 97.972656c3.894532 3.6875 1.636719 10.054688-3.921874 11.046875zm0 0" fill="#bf6c0d"/><path d="m254.613281 247.425781 71.136719-17.136719-8.722656-8.257812-105.429688 25.394531 174.082032 87.664063c1.390624.699218 3.007812.925781 4.582031.644531l26.292969-4.6875c.890624-.15625 1.683593-.464844 2.394531-.867187zm0 0" fill="#a56021"/><path d="m456.527344 189-11.128906-5.335938c-.453126-.21875-.925782-.40625-1.386719-.613281l.042969-.003906c-.210938-.085937-.417969-.167969-.628907-.253906-1.625-.699219-3.292969-1.328125-5.003906-1.875-18.148437-6.09375-33.46875-3.976563-33.46875-3.976563v.007813c-65.699219 2.652343-290.53125 66.007812-350.023437 83.0625 0 0-12.210938 3.15625-14.390626 4.152343l-19.902343 5.714844c-12.507813 3.59375-20.46875 14.476563-18.554688 25.367188 2.050781 11.65625 14.664063 19.253906 28.464844 17.136718l27.265625-4.179687s402.207031-58.652344 413.800781-75.40625c5.722657-3.515625 9.171875-9.191406 8.234375-14.949219-1.988281-12.199218-10.476562-22.6875-23.320312-28.847656zm0 0" fill="#e58d23"/><path d="m214 273.019531c-2.910156 0-5.460938-2.121093-5.921875-5.082031-.507813-3.273438 1.734375-6.339844 5.007813-6.847656 41.503906-6.441406 80.808593-12.761719 116.824218-18.796875 3.261719-.542969 6.359375 1.660156 6.910156 4.925781.546876 3.269531-1.65625 6.363281-4.925781 6.910156-36.0625 6.042969-75.414062 12.371094-116.964843 18.816406-.3125.050782-.625.074219-.929688.074219zm0 0" fill="#ffa730"/><path d="m393.410156 204.46875c.4375 2.488281 3.113282 4.089844 5.976563 3.582031l67.839843-12.089843c-3.097656-2.691407-6.683593-5.035157-10.695312-6.960938l-6.609375-3.167969-57.96875 10.332031.375 2.132813zm0 0" fill="#ffdf74"/><path d="m58.003906 295.246094c-1.917968-10.890625 6.046875-21.773438 18.554688-25.367188l19.902344-5.714844c2.175781-.992187 14.390624-4.152343 14.390624-4.152343 53.117188-15.226563 238.039063-67.363281 323.816407-80.246094-16.453125-4.644531-29.714844-2.824219-29.714844-2.824219l.003906.007813c-65.699219 2.652343-290.535156 66.007812-350.023437 83.0625 0 0-12.214844 3.160156-14.394532 4.152343l-19.898437 5.714844c-12.507813 3.59375-20.472656 14.476563-18.558594 25.367188 2.054688 11.65625 14.667969 19.253906 28.464844 17.136718l27.269531-4.179687s2.609375-.378906 7.398438-1.085937c-3.738282-3.023438-6.371094-7.097657-7.210938-11.871094zm0 0" fill="#bf6c0d"/><path d="m3.308594 215.339844 14.792968-2.636719c.886719-.15625 1.796876-.027344 2.578126.363281l97.957031 49.328125-59.324219 14.289063-58.210938-55.128906c-2.191406-2.074219-.921874-5.65625 2.207032-6.214844zm0 0" fill="#ffb74b"/><path d="m94.351562 124.652344 26.292969-4.683594c1.574219-.28125 3.191407-.050781 4.582031.644531l174.082032 87.664063-105.429688 25.394531-103.449218-97.96875c-3.894532-3.691406-1.632813-10.058594 3.921874-11.050781zm0 0" fill="#bf6c0d"/><path d="m133.445312 135.703125c-3.273437-3.097656-2.191406-8.074219 1.527344-10.179687l-9.746094-4.90625c-1.390624-.699219-3.007812-.929688-4.582031-.648438l-26.292969 4.6875c-5.554687.988281-7.816406 7.359375-3.921874 11.046875l103.449218 97.972656 34.292969-8.261719zm0 0" fill="#a56021"/><path d="m26.910156 221.554688c-1.625-1.539063-1.339844-3.90625.191406-5.253907l-6.425781-3.234375c-.78125-.390625-1.691406-.519531-2.578125-.363281l-14.792968 2.636719c-3.125.558594-4.398438 4.140625-2.207032 6.214844l58.210938 55.128906 20.574218-4.957032zm0 0" fill="#ffa730"/><path d="m405.230469 202.628906-.378907-2.132812 54.914063-9.789063c-1.046875-.597656-2.121094-1.171875-3.238281-1.707031l-6.605469-3.167969-57.972656 10.332031.375 2.132813 1.085937 6.171875c.4375 2.488281 3.113282 4.089844 5.976563 3.582031l6.589843-1.175781zm0 0" fill="#ffd551"/><path d="m432.207031 421.703125h-6.050781c.722656-2.429687 1.117188-5.003906 1.117188-7.675781 0-14.75-11.886719-26.707032-26.550782-26.707032-1.265625 0-2.507812.09375-3.726562.265626-5.160156-12.289063-17.253906-20.914063-31.351563-20.914063-15.210937 0-28.085937 10.042969-32.4375 23.894531-2.972656-1.15625-6.199219-1.796875-9.574219-1.796875-14.664062 0-26.554687 11.957031-26.554687 26.707031 0 2.226563.277344 4.390626.789063 6.457032-9.792969 1.488281-17.296876 9.988281-17.296876 20.253906 0 11.3125 9.117188 20.484375 20.363282 20.484375h131.273437c11.246094 0 20.363281-9.171875 20.363281-20.484375s-9.117187-20.484375-20.363281-20.484375zm0 0" fill="#ffdf74"/><path d="m319.082031 451.871094c0-10.265625 7.503907-18.761719 17.296875-20.25-.507812-2.070313-.785156-4.230469-.785156-6.457032 0-14.75 11.886719-26.710937 26.550781-26.710937 3.378907 0 6.605469.640625 9.574219 1.796875 3.082031-9.8125 10.449219-17.691406 19.882812-21.464844-6.238281-7.40625-15.546874-12.117187-25.957031-12.117187-15.210937 0-28.085937 10.042969-32.4375 23.894531-2.972656-1.15625-6.199219-1.796875-9.574219-1.796875-14.664062 0-26.554687 11.957031-26.554687 26.710937 0 2.226563.277344 4.386719.789063 6.457032-9.792969 1.488281-17.296876 9.988281-17.296876 20.25 0 11.3125 9.117188 20.484375 20.363282 20.484375h21.230468c-1.941406-3.136719-3.082031-6.828125-3.082031-10.796875zm0 0" fill="#ffd551"/><path d="m319.082031 451.871094c0-10.265625 7.503907-18.761719 17.296875-20.25-.507812-2.070313-.785156-4.230469-.785156-6.457032 0-14.75 11.886719-26.710937 26.550781-26.710937 3.378907 0 6.605469.640625 9.574219 1.796875 3.082031-9.8125 10.449219-17.691406 19.882812-21.464844-6.238281-7.40625-15.546874-12.117187-25.957031-12.117187-15.210937 0-28.085937 10.042969-32.4375 23.894531-2.972656-1.15625-6.199219-1.796875-9.574219-1.796875-14.664062 0-26.554687 11.957031-26.554687 26.710937 0 2.226563.277344 4.386719.789063 6.457032-9.792969 1.488281-17.296876 9.988281-17.296876 20.25 0 11.3125 9.117188 20.484375 20.363282 20.484375h21.230468c-1.941406-3.136719-3.082031-6.828125-3.082031-10.796875zm0 0" fill="#ffd551"/><path d="m152.449219 55.035156h-6.050781c.726562-2.429687 1.117187-5.003906 1.117187-7.675781 0-14.75-11.886719-26.707031-26.550781-26.707031-1.261719 0-2.503906.09375-3.722656.265625-5.160157-12.289063-17.253907-20.91406275-31.351563-20.91406275-15.214844 0-28.089844 10.04296875-32.441406 23.89453175-2.972657-1.15625-6.199219-1.796876-9.574219-1.796876-14.664062 0-26.550781 11.957032-26.550781 26.707032 0 2.226562.273437 4.390625.785156 6.457031-9.789063 1.488281-17.296875 9.988281-17.296875 20.253906 0 11.3125 9.117188 20.484375 20.363281 20.484375h131.273438c11.246093 0 20.363281-9.171875 20.363281-20.484375s-9.117188-20.484375-20.363281-20.484375zm0 0" fill="#ffdf74"/><path d="m39.324219 85.203125c0-10.261719 7.503906-18.761719 17.296875-20.25-.507813-2.066406-.785156-4.230469-.785156-6.457031 0-14.75 11.886718-26.710938 26.550781-26.710938 3.378906 0 6.605469.640625 9.574219 1.796875 3.082031-9.808593 10.449218-17.6875 19.882812-21.460937-6.242188-7.410156-15.546875-12.121094-25.957031-12.121094-15.210938 0-28.085938 10.042969-32.4375 23.894531-2.972657-1.152343-6.199219-1.796875-9.574219-1.796875-14.664062 0-26.554688 11.957032-26.554688 26.710938 0 2.226562.277344 4.386718.785157 6.457031-9.789063 1.488281-17.292969 9.988281-17.292969 20.25 0 11.3125 9.117188 20.484375 20.363281 20.484375h21.230469c-1.9375-3.132812-3.082031-6.828125-3.082031-10.796875zm0 0" fill="#ffd551"/><path d="m417.351562 75.25h-3.875c.464844-1.558594.71875-3.207031.71875-4.914062 0-9.449219-7.617187-17.109376-17.007812-17.109376-.808594 0-1.605469.0625-2.386719.171876-3.304687-7.871094-11.050781-13.394532-20.078125-13.394532-9.742187 0-17.988281 6.429688-20.777344 15.300782-1.902343-.738282-3.96875-1.152344-6.132812-1.152344-9.390625 0-17.003906 7.660156-17.003906 17.109375 0 1.425781.175781 2.808593.503906 4.132812-6.269531.957031-11.078125 6.398438-11.078125 12.972657 0 7.246093 5.839844 13.117187 13.042969 13.117187h84.074218c7.203126 0 13.042969-5.875 13.042969-13.117187 0-7.242188-5.839843-13.117188-13.042969-13.117188zm0 0" fill="#ffdf74"/><path d="m344.902344 94.570312c0-6.574218 4.804687-12.015624 11.074218-12.96875-.328124-1.328124-.503906-2.710937-.503906-4.136718 0-9.449219 7.613282-17.105469 17.007813-17.105469 2.160156 0 4.230469.410156 6.132812 1.148437 1.972657-6.28125 6.691407-11.328124 12.730469-13.746093-3.996094-4.742188-9.953125-7.761719-16.621094-7.761719-9.742187 0-17.988281 6.433594-20.777344 15.304688-1.902343-.742188-3.96875-1.152344-6.132812-1.152344-9.390625 0-17.003906 7.660156-17.003906 17.109375 0 1.425781.175781 2.808593.503906 4.132812-6.269531.957031-11.078125 6.398438-11.078125 12.972657 0 7.246093 5.839844 13.117187 13.042969 13.117187h13.597656c-1.242188-2.007813-1.972656-4.371094-1.972656-6.914063zm0 0" fill="#ffd551"/><path d="m138.699219 396.765625h-3.875c.464843-1.558594.71875-3.207031.71875-4.914063 0-9.449218-7.617188-17.105468-17.007813-17.105468-.808594 0-1.605468.058594-2.386718.167968-3.304688-7.871093-11.050782-13.394531-20.078126-13.394531-9.742187 0-17.988281 6.429688-20.777343 15.300781-1.902344-.738281-3.96875-1.148437-6.132813-1.148437-9.390625 0-17.003906 7.65625-17.003906 17.105469 0 1.425781.175781 2.808594.503906 4.136718-6.269531.953126-11.078125 6.394532-11.078125 12.96875 0 7.246094 5.839844 13.117188 13.042969 13.117188h84.078125c7.199219 0 13.039063-5.875 13.039063-13.117188 0-7.246093-5.839844-13.117187-13.042969-13.117187zm0 0" fill="#ffdf74"/><path d="m66.25 416.085938c0-6.574219 4.804688-12.015626 11.074219-12.96875-.328125-1.328126-.503907-2.710938-.503907-4.136719 0-9.449219 7.613282-17.105469 17.007813-17.105469 2.160156 0 4.230469.410156 6.132813 1.148438 1.972656-6.28125 6.691406-11.328126 12.734374-13.746094-3.996093-4.742188-9.957031-7.761719-16.625-7.761719-9.742187 0-17.988281 6.433594-20.777343 15.304687-1.902344-.738281-3.96875-1.148437-6.132813-1.148437-9.390625 0-17.003906 7.65625-17.003906 17.105469 0 1.425781.175781 2.808594.503906 4.136718-6.269531.953126-11.078125 6.394532-11.078125 12.96875 0 7.246094 5.839844 13.117188 13.042969 13.117188h13.597656c-1.242187-2.003906-1.972656-4.371094-1.972656-6.914062zm0 0" fill="#ffd551"/><path d="m253.917969 200.03125c0 9.941406-8.058594 18-18 18-9.941407 0-18-8.058594-18-18s8.058593-18 18-18c9.941406 0 18 8.058594 18 18zm0 0" fill="#a56021"/><path d="m379.839844 423.003906c0 9.941406-8.058594 18-18 18s-18-8.058594-18-18 8.058594-18 18-18 18 8.058594 18 18zm0 0" fill="#ffd551"/></svg>