<svg height="476pt" viewBox="-57 0 476 476.00056" width="476pt" xmlns="http://www.w3.org/2000/svg"><path d="m345.863281 476h-324.683593c-2.210938 0-4-1.789062-4-4v-9.820312c0-80.464844 65.230468-145.695313 145.695312-145.695313h41.289062c80.464844 0 145.695313 65.230469 145.695313 145.695313v9.820312c.003906 2.210938-1.789063 4-3.996094 4zm0 0" fill="#ff624b"/><path d="m333.84375 466c-3.269531 0-5.945312-2.621094-6-5.898438-.542969-32.550781-13.660156-63.101562-36.945312-86.027343-2.359376-2.324219-2.386719-6.125-.0625-8.484375 2.324218-2.359375 6.125-2.390625 8.480468-.066406 25.542969 25.148437 39.933594 58.664062 40.527344 94.378906.054688 3.308594-2.585938 6.039062-5.898438 6.097656-.03125 0-.070312 0-.101562 0zm0 0" fill="#ff9079"/><path d="m218.875 336.484375h41.289062c6.800782 0 13.480469.503906 20.035157 1.402344-22.136719-13.566407-48.167969-21.402344-76.035157-21.402344h-41.289062c-80.464844 0-145.695312 65.230469-145.695312 145.695313v9.820312c0 2.210938 1.789062 4 4 4h52.15625c3.242187-77.59375 67.144531-139.515625 145.539062-139.515625zm0 0" fill="#ff4b34"/><path d="m260.941406 401.753906v-73.214844c-18.320312-7.734374-38.558594-12.054687-59.859375-12.054687h-35.121093c-21.300782 0-41.539063 4.320313-59.859376 12.054687v73.214844c0 41.007813 34.660157 74.246094 77.421876 74.246094 42.753906 0 77.417968-33.238281 77.417968-74.246094zm0 0" fill="#eacf32"/><path d="m165.941406 316.484375c-21.296875.003906-41.527344 4.328125-59.84375 12.054687v61.476563c26.710938-32.660156 67.289063-53.53125 112.777344-53.53125h41.289062c.261719 0 .519532.011719.777344.011719v-7.957032c-18.316406-7.730468-38.550781-12.054687-59.84375-12.054687zm0 0" fill="#ccc033"/><path d="m242.929688 386.832031v-60.402343c-14.058594-6.378907-29.589844-9.945313-45.933594-9.945313h-26.949219c-16.347656 0-31.875 3.566406-45.933594 9.945313v60.402343c0 33.832031 26.597657 61.253907 59.410157 61.253907 32.808593 0 59.40625-27.425782 59.40625-61.253907zm0 0" fill="#fce575"/><path d="m170.027344 316.484375c-16.339844.003906-31.863282 3.566406-45.914063 9.949219v45.152344c25.46875-21.867188 58.554688-35.101563 94.761719-35.101563h24.050781v-10.050781c-14.050781-6.378906-29.574219-9.945313-45.914062-9.949219zm0 0" fill="#fcda4f"/><path d="m183.519531 389.972656c24.9375 0 45.152344-21.09375 45.152344-47.117187v-22.433594c-9.425781-2.179687-19.210937-3.371094-29.261719-3.371094h-31.78125c-10.050781 0-19.835937 1.191407-29.261718 3.371094v22.433594c.003906 26.023437 20.21875 47.117187 45.152343 47.117187zm0 0" fill="#ffd59a"/><path d="m80 210.976562c0 22.089844-17.910156 40-40 40s-40-17.910156-40-40c0-22.089843 17.910156-40 40-40s40 17.910157 40 40zm0 0" fill="#ffd59a"/><path d="m362.753906 210.976562c0 22.089844-17.910156 40-40 40-22.09375 0-40-17.910156-40-40 0-22.089843 17.90625-40 40-40 22.089844 0 40 17.910157 40 40zm0 0" fill="#ffeacf"/><path d="m183.835938 361.6875h-.632813c-78.25 0-141.683594-63.433594-141.683594-141.683594v-20.632812c0-78.25 63.433594-141.683594 141.683594-141.683594h.632813c78.25 0 141.683593 63.433594 141.683593 141.683594v20.632812c0 78.253906-63.433593 141.683594-141.683593 141.683594zm0 0" fill="#ffeacf"/><path d="m306.984375 180.210938c-2.792969 0-5.292969-1.960938-5.875-4.800782-7.007813-34.367187-28.742187-63.851562-59.628906-80.902344-2.898438-1.601562-3.953125-5.25-2.351563-8.152343 1.601563-2.898438 5.25-3.953125 8.152344-2.351563 33.96875 18.75 57.871094 51.191406 65.585938 89.007813.664062 3.246093-1.433594 6.414062-4.679688 7.078125-.402344.082031-.808594.121094-1.203125.121094zm0 0" fill="#fcf9de"/><path d="m97.519531 220.007812v-20.632812c0-68.773438 49.007813-126.085938 114-138.960938-8.953125-1.773437-18.207031-2.722656-27.683593-2.722656h-.632813c-78.25 0-141.683594 63.433594-141.683594 141.683594v20.632812c0 78.25 63.433594 141.683594 141.683594 141.683594h.632813c9.476562 0 18.726562-.949218 27.683593-2.722656-64.992187-12.878906-114-70.191406-114-138.960938zm0 0" fill="#ffd59a"/><path d="m144.335938 202.523438c0 9.941406-8.058594 18-18 18-9.941407 0-18-8.058594-18-18 0-9.941407 8.058593-18 18-18 9.941406 0 18 8.058593 18 18zm0 0" fill="#a56021"/><path d="m258.023438 202.523438c0 9.941406-8.058594 18-18 18-9.941407 0-18-8.058594-18-18 0-9.941407 8.058593-18 18-18 9.941406 0 18 8.058593 18 18zm0 0" fill="#a56021"/><path d="m240.550781 281.457031c0-21.394531-25.53125-38.738281-57.03125-38.738281-31.496093 0-57.03125 17.34375-57.03125 38.738281 0 21.398438 25.535157 38.742188 57.03125 38.742188 31.5 0 57.03125-17.34375 57.03125-38.742188zm0 0" fill="#ccc033"/><path d="m183.519531 289.035156c-20.984375 0-38 17.011719-38 38 0 20.984375 17.015625 38 38 38 20.988281 0 38-17.015625 38-38 0-20.988281-17.011719-38-38-38zm0 62.179688c-13.332031 0-24.179687-10.847656-24.179687-24.179688 0-13.335937 10.847656-24.183594 24.179687-24.183594 13.335938 0 24.183594 10.847657 24.183594 24.183594 0 13.332032-10.847656 24.179688-24.183594 24.179688zm0 0" fill="#ffc34c"/><path d="m184.9375 308.519531h-2.832031c-8.570313 0-15.515625-6.945312-15.515625-15.511719v-16.960937h33.863281v16.960937c-.003906 8.566407-6.945313 15.511719-15.515625 15.511719zm0 0" fill="#eacf32"/><path d="m187.066406 76.414062c.882813 3.003907-1.894531 5.875-4.898437 4.988282-22.167969-6.539063-36.574219-27.839844-32.949219-50.476563 3.195312-19.902343 22.605469-33.558593 43.359375-30.496093 16.605469 2.445312 27.996094 17.339843 25.441406 33.261718-2.042969 12.738282-14.464843 21.476563-27.746093 19.515625-10.628907-1.566406-17.917969-11.097656-16.28125-21.285156zm0 0" fill="#bf6c0d"/><path d="m186.085938 73.074219c-12.542969-9.882813-19.507813-25.644531-16.867188-42.148438 2.347656-14.636719 13.480469-25.863281 27.453125-29.578125-1.328125-.382812-2.6875-.710937-4.09375-.917968-20.753906-3.058594-40.164063 10.59375-43.359375 30.496093-3.628906 22.636719 10.78125 43.941407 32.949219 50.480469 3.003906.882812 5.78125-1.984375 4.898437-4.992188zm0 0" fill="#a56021"/><path d="m118.242188 456.703125c0 9.941406-8.0625 18-18 18-9.941407 0-18-8.058594-18-18s8.058593-18 18-18c9.9375 0 18 8.058594 18 18zm0 0" fill="#ff4b34"/></svg>