<svg height="493pt" viewBox="-62 0 493 493.31013" width="493pt" xmlns="http://www.w3.org/2000/svg"><path d="m283.578125 228.304688h-196.347656v-78.496094c0-54.019532 43.789062-97.808594 97.808593-97.808594h.730469c54.019531 0 97.808594 43.789062 97.808594 97.808594zm0 0" fill="#e58d23"/><path d="m216.511719 421.09375h-25.871094c-37.039063 0-67.066406-30.027344-67.066406-67.066406v-18.804688c0-74.078125 60.054687-134.128906 134.132812-134.128906h25.867188v152.933594c.003906 37.039062-30.023438 67.066406-67.0625 67.066406zm0 0" fill="#ffa730"/><path d="m267.578125 310.847656c-3.316406 0-6-2.6875-6-6v-87.753906c0-3.3125 2.683594-6 6-6 3.3125 0 6 2.6875 6 6v87.753906c0 3.3125-2.6875 6-6 6zm0 0" fill="#ffb74b"/><path d="m262.882812 354.027344v-18.800782c0-50.707031-28.144531-94.828124-69.652343-117.628906-41.511719 22.800782-69.652344 66.925782-69.652344 117.628906v18.800782c0 37.042968 30.023437 67.066406 67.066406 67.066406h5.171875c37.039063 0 67.066406-30.027344 67.066406-67.066406zm0 0" fill="#e58d23"/><path d="m175.5625 423.527344h25.359375c12.847656 0 23.261719 10.414062 23.261719 23.261718v46.519532h-25.363282c-25.691406 0-46.519531-20.828125-46.519531-46.519532 0-12.847656 10.414063-23.261718 23.261719-23.261718zm0 0" fill="#ffa730"/><path d="m169.890625 423.582031h14.386719c13.042968 0 23.617187 10.570313 23.617187 23.617188 0 25.4375-20.621093 46.058593-46.058593 46.058593h-14.386719c-.648438 0-1.175781-.527343-1.175781-1.175781v-44.882812c0-13.046875 10.574218-23.617188 23.617187-23.617188zm0 0" fill="#ffc34c"/><path d="m170.273438 492.082031v-44.882812c0-11.394531 8.070312-20.90625 18.808593-23.125-1.550781-.320313-3.160156-.488281-4.804687-.488281h-14.386719c-13.042969 0-23.617187 10.570312-23.617187 23.617187v44.882813c0 .644531.527343 1.175781 1.175781 1.175781h14.386719c2.910156 0 5.753906-.285157 8.511718-.800781-.039062-.121094-.074218-.246094-.074218-.378907zm0 0" fill="#ffb74b"/><path d="m179.816406 421.09375h-25.871094c-37.039062 0-67.066406-30.027344-67.066406-67.066406v-152.933594h25.871094c74.078125 0 134.128906 60.050781 134.128906 134.128906v18.804688c.003906 37.039062-30.023437 67.066406-67.0625 67.066406zm0 0" fill="#ffc34c"/><path d="m142.882812 354.027344v-149.492188c-9.691406-2.226562-19.765624-3.441406-30.132812-3.441406h-25.867188v152.933594c0 37.042968 30.023438 67.066406 67.0625 67.066406h25.871094c5.183594 0 10.222656-.609375 15.066406-1.71875-29.78125-6.839844-52-33.492188-52-65.347656zm0 0" fill="#ffb74b"/><path d="m212.992188 441.527344h-55.523438c-9.476562 0-17.15625-7.679688-17.15625-17.15625 0-9.476563 7.679688-17.160156 17.15625-17.160156h55.523438c9.476562 0 17.15625 7.683593 17.15625 17.160156 0 9.476562-7.679688 17.15625-17.15625 17.15625zm0 0" fill="#ff624b"/><path d="m164.308594 424.371094c0-9.476563 7.683594-17.160156 17.160156-17.160156h-24c-9.476562 0-17.160156 7.683593-17.160156 17.160156 0 9.476562 7.683594 17.160156 17.160156 17.160156h24c-9.476562 0-17.160156-7.683594-17.160156-17.160156zm0 0" fill="#ff4b34"/><path d="m75.328125 26.132812c-1.445313-.492187-2.660156.078126-2.652344 1.238282.316407 42.917968 25.863281 62.308594 25.863281 62.308594 4.953126 4.222656 10.960938 7.636718 17.460938 9.597656 17.226562 5.195312 31.355469-1.769532 31.5625-15.554688.007812-.695312-.015625-1.398437-.078125-2.101562-.238281-29.25-58.886719-50.949219-72.15625-55.488282zm0 0" fill="#eacf32"/><path d="m125.359375 87.644531c-6.496094-1.957031-12.507813-5.367187-17.460937-9.597656 0 0-20.296876-15.40625-24.929688-49.144531-3.207031-1.21875-5.839844-2.152344-7.640625-2.769532-1.445313-.496093-2.660156.078126-2.652344 1.238282.316407 42.917968 25.863281 62.308594 25.863281 62.308594 4.953126 4.222656 10.960938 7.636718 17.460938 9.597656 15.734375 4.746094 28.882812-.660156 31.195312-12.140625-5.683593 2.675781-13.382812 3.058593-21.835937.507812zm0 0" fill="#ccc033"/><path d="m1.570312 178.863281c-1.375.675781-1.828124 1.933594-1 2.75 30.570313 30.121094 62.34375 25.769531 62.34375 25.769531 6.492188-.511718 13.152344-2.351562 19.132813-5.558593 15.851563-8.507813 20.921875-23.421875 11.320313-33.316407-.484376-.5-1-.976562-1.539063-1.429687-20.851563-20.515625-77.667969 5.609375-90.257813 11.785156zm0 0" fill="#ccc033"/><path d="m80.441406 186.980469c-5.980468 3.210937-12.640625 5.046875-19.132812 5.5625 0 0-25.246094 3.457031-52.378906-17.125-3.128907 1.402343-5.65625 2.609375-7.359376 3.445312-1.375.671875-1.828124 1.933594-1 2.75 30.570313 30.121094 62.34375 25.769531 62.34375 25.769531 6.492188-.515624 13.152344-2.351562 19.132813-5.5625 14.480469-7.769531 19.957031-20.886718 13.476563-30.640624-2.128907 5.914062-7.304688 11.628906-15.082032 15.800781zm0 0" fill="#99af17"/><path d="m368.347656 200.511719c1.511719-.222657 2.328125-1.285157 1.789063-2.316407-19.9375-38.003906-51.527344-43.539062-51.527344-43.539062-6.339844-1.488281-13.242187-1.769531-19.917969-.535156-17.691406 3.269531-27.0625 15.933594-20.929687 28.28125.308593.625.652343 1.234375 1.03125 1.832031 13.605469 25.894531 75.679687 18.324219 89.554687 16.277344zm0 0" fill="#ccc033"/><path d="m295.699219 168.75c6.671875-1.234375 13.574219-.957031 19.917969.53125 0 0 25.097656 4.398438 44.671874 32.269531 3.40625-.382812 6.179688-.761719 8.058594-1.039062 1.511719-.222657 2.328125-1.285157 1.789063-2.316407-19.9375-38.003906-51.527344-43.539062-51.527344-43.539062-6.339844-1.488281-13.242187-1.769531-19.917969-.535156-16.160156 2.988281-25.371094 13.816406-22.171875 25.078125 3.828125-4.976563 10.496094-8.84375 19.179688-10.449219zm0 0" fill="#99af17"/><path d="m293.710938 27.722656c.503906-1.445312-.0625-2.664062-1.226563-2.660156-42.914063.121094-62.421875 25.578125-62.421875 25.578125-4.25 4.933594-7.6875 10.929687-9.675781 17.417969-5.277344 17.203125 1.621093 31.363281 15.410156 31.632812.695313.015625 1.394531-.007812 2.097656-.066406 29.25-.109375 51.21875-58.65625 55.816407-71.902344zm0 0" fill="#eacf32"/><path d="m231.972656 77.46875c1.988282-6.488281 5.425782-12.480469 9.675782-17.414062 0 0 15.5-20.226563 49.257812-24.707032 1.238281-3.199218 2.179688-5.832031 2.804688-7.628906.5-1.445312-.066407-2.660156-1.226563-2.65625-42.917969.121094-62.425781 25.578125-62.425781 25.578125-4.25 4.933594-7.6875 10.925781-9.675782 17.414063-4.820312 15.714843.527344 28.886718 11.996094 31.253906-2.648437-5.695313-2.996094-13.398438-.40625-21.839844zm0 0" fill="#ccc033"/><path d="m38.867188 111.667969s-4.566407.164062-6.308594 2.929687l.003906-.003906c-.980469 1.328125-1.199219 2.777344-1.199219 2.777344l.003907-.007813c-.816407 3.144531 2.273437 6.417969 2.273437 6.417969s26.007813 26.320312 56.882813 23.105469l5.226562-12.117188c-19.300781-23.589843-56.882812-23.101562-56.882812-23.101562zm0 0" fill="#ffdf74"/><path d="m46.761719 130.148438s-3.085938-3.273438-2.273438-6.417969l-.003906.007812s.222656-1.449219 1.199219-2.777343l-.003906.003906c1.738281-2.765625 6.308593-2.929688 6.308593-2.929688s15.085938-.191406 31.050781 5.664063c-19.609374-12.347657-44.167968-12.027344-44.167968-12.027344s-4.570313.160156-6.308594 2.929687v-.007812c-.976562 1.332031-1.195312 2.777344-1.195312 2.777344v-.003906c-.8125 3.144531 2.273437 6.414062 2.273437 6.414062s12.363281 12.511719 30.164063 19.230469c-10.464844-6.207031-17.042969-12.863281-17.042969-12.863281zm0 0" fill="#ffd551"/><path d="m77.960938 84.4375s-3.351563-3.019531-6.597657-2.253906l.007813-.003906c-1.664063.269531-2.875 1.140624-2.875 1.140624h.007812c-2.867187 1.664063-3.070312 6.097657-3.070312 6.097657s-.789063 36.457031 23.386718 55.363281l6.261719-2.488281 6.265625-2.492188c3.542969-29.929687-23.386718-55.363281-23.386718-55.363281zm0 0" fill="#ffdf74"/><path d="m76.367188 89.417969s.128906-2.894531 1.695312-4.882813c-.066406-.0625-.101562-.097656-.101562-.097656s-3.351563-3.019531-6.597657-2.253906l.007813-.003906c-1.664063.269531-2.875 1.140624-2.875 1.140624h.007812c-2.867187 1.664063-3.070312 6.097657-3.070312 6.097657s-.789063 36.457031 23.386718 55.363281l6.261719-2.488281 1.21875-.484375c-20.644531-19.503906-19.933593-52.390625-19.933593-52.390625zm0 0" fill="#ffd551"/><path d="m125.730469 86.949219s-.167969-4.429688-3.019531-6.117188h.007812c-1.375-.949219-2.867188-1.164062-2.867188-1.164062l.007813.003906c-3.242187-.789063-6.613281 2.203125-6.613281 2.203125s-27.128906 25.238281-23.816406 55.191406l6.242187 2.539063 6.246094 2.535156c24.320312-18.730469 23.8125-55.191406 23.8125-55.191406zm0 0" fill="#ffdf74"/><path d="m121.992188 86.121094s1.371093-1.21875 3.203124-1.894532c-.421874-1.246093-1.164062-2.617187-2.484374-3.394531h.003906c-1.371094-.949219-2.863282-1.164062-2.863282-1.164062l.003907.003906c-3.238281-.789063-6.613281 2.203125-6.613281 2.203125s-27.125 25.238281-23.8125 55.191406l6.242187 2.539063 2.433594.988281c-2.804688-29.640625 23.886719-54.472656 23.886719-54.472656zm0 0" fill="#ffd551"/><path d="m155.835938 127.390625s3.109374-3.25 2.324218-6.402344v.007813c-.277344-1.613282-1.175781-2.789063-1.175781-2.789063v.007813c-1.71875-2.78125-6.28125-2.980469-6.28125-2.980469s-37.578125-.765625-57.066406 22.691406l5.132812 12.148438c30.851563 3.445312 57.066407-22.683594 57.066407-22.683594zm0 0" fill="#ffdf74"/><path d="m96.707031 145.183594c20.101563-20.027344 53.996094-19.335938 53.996094-19.335938s2.980469.125 5.03125 1.640625c.066406-.0625.101563-.097656.101563-.097656s3.113281-3.25 2.324218-6.402344l.003906.007813c-.277343-1.613282-1.179687-2.789063-1.179687-2.789063l.003906.007813c-1.71875-2.78125-6.285156-2.980469-6.285156-2.980469s-37.574219-.765625-57.0625 22.691406l2.566406 6.074219zm0 0" fill="#ffd551"/><path d="m153.589844 177.40625s4.570312-.160156 6.308594-2.929688v.007813c.976562-1.332031 1.195312-2.777344 1.195312-2.777344v.003907c.8125-3.144532-2.273438-6.414063-2.273438-6.414063s-26.011718-26.324219-56.886718-23.109375l-2.613282 6.054688-2.613281 6.058593c19.304688 23.597657 56.882813 23.105469 56.882813 23.105469zm0 0" fill="#ffdf74"/><path d="m101.933594 152.792969c29.601562-3.082031 54.726562 20.980469 56.75 22.972656.472656-.347656.890625-.773437 1.214844-1.289063v.007813c.976562-1.332031 1.199218-2.777344 1.199218-2.777344l-.003906.003907c.816406-3.144532-2.273438-6.414063-2.273438-6.414063s-26.011718-26.324219-56.886718-23.109375l-2.613282 6.054688-2.613281 6.058593c.984375 1.207031 2.023438 2.347657 3.097657 3.429688zm0 0" fill="#ffd551"/><path d="m114.5 204.640625s3.347656 3.019531 6.597656 2.253906h-.007812c1.664062-.269531 2.875-1.140625 2.875-1.140625l-.007813.003906c2.867188-1.667968 3.066407-6.101562 3.066407-6.101562s.792968-36.453125-23.382813-55.363281l-6.261719 2.492187-6.265625 2.488282c-3.542969 29.933593 23.386719 55.367187 23.386719 55.367187zm0 0" fill="#ffdf74"/><path d="m125.332031 204.542969c-1.769531-1.710938-26.703125-26.398438-23.28125-55.265625l5.042969-2.007813c-1.089844-1.03125-2.238281-2.027343-3.449219-2.972656l-6.265625 2.488281-6.261718 2.492188c-3.550782 29.929687 23.382812 55.363281 23.382812 55.363281s3.347656 3.019531 6.59375 2.253906h-.003906c1.660156-.269531 2.871094-1.140625 2.871094-1.140625l-.003907.003906c.550781-.320312 1.003907-.742187 1.375-1.214843zm0 0" fill="#ffd551"/><path d="m66.730469 202.128906s.167969 4.429688 3.019531 6.121094l-.007812-.003906c1.375.949218 2.863281 1.164062 2.863281 1.164062l-.003907-.003906c3.242188.789062 6.613282-2.203125 6.613282-2.203125s27.128906-25.238281 23.816406-55.191406l-6.242188-2.539063-6.246093-2.535156c-24.320313 18.730469-23.8125 55.191406-23.8125 55.191406zm0 0" fill="#ffdf74"/><path d="m77.664062 202.128906s-.453124-32.828125 20.28125-52.1875l-1.15625-.46875-6.242187-2.535156c-24.324219 18.730469-23.816406 55.1875-23.816406 55.1875s.167969 4.433594 3.019531 6.121094l-.007812-.003906c1.375.953124 2.863281 1.164062 2.863281 1.164062h-.003907c3.242188.789062 6.613282-2.207031 6.613282-2.207031s.050781-.046875.136718-.132813c-1.578124-2-1.6875-4.9375-1.6875-4.9375zm0 0" fill="#ffd551"/><path d="m36.484375 160.648438s-3.109375 3.246093-2.324219 6.398437v-.003906c.277344 1.609375 1.175782 2.789062 1.175782 2.789062v-.007812c1.71875 2.78125 6.285156 2.976562 6.285156 2.976562s37.574218.769531 57.0625-22.6875l-2.566406-6.074219-2.566407-6.078124c-30.847656-3.441407-57.066406 22.6875-57.066406 22.6875zm0 0" fill="#ffdf74"/><path d="m54.738281 167.496094s-4.566406-.195313-6.28125-2.976563v.003907s-.898437-1.171876-1.179687-2.789063l.003906.007813c-.789062-3.148438 2.324219-6.398438 2.324219-6.398438s8.523437-8.492188 21.566406-15.15625c-20.15625 5.980469-34.6875 20.457031-34.6875 20.457031s-3.109375 3.25-2.324219 6.402344v-.007813c.277344 1.613282 1.175782 2.789063 1.175782 2.789063v-.007813c1.71875 2.785157 6.285156 2.980469 6.285156 2.980469s21.410156.433594 40.289062-9.441406c-14.46875 4.394531-27.171875 4.136719-27.171875 4.136719zm0 0" fill="#ffd551"/><path d="m103.339844 161.851562c-10.082032 4.007813-21.605469-.671874-25.738282-10.457031-4.128906-9.78125.695313-20.960937 10.777344-24.96875 10.082032-4.007812 21.601563.671875 25.734375 10.453125 4.132813 9.785156-.691406 20.964844-10.773437 24.972656zm0 0" fill="#ffa730"/><path d="m95.867188 157.980469c-5.816407 0-11-3.375-13.207032-8.597657-2.980468-7.058593.511719-15.15625 7.789063-18.046874 1.730469-.691407 3.550781-1.039063 5.398437-1.039063 5.816406 0 11 3.375 13.207032 8.59375 2.980468 7.0625-.511719 15.160156-7.789063 18.050781-1.730469.691406-3.546875 1.039063-5.398437 1.039063zm0 0" fill="#bf6c0d"/><path d="m91.816406 151.394531c-4.132812-9.78125.691406-20.960937 10.773438-24.96875.125-.050781.25-.089843.375-.136719-4.539063-1.703124-9.730469-1.796874-14.585938.136719-10.082031 4.007813-14.90625 15.1875-10.777344 24.96875 4.082032 9.664063 15.371094 14.339844 25.363282 10.59375-4.882813-1.832031-9.007813-5.523437-11.148438-10.59375zm0 0" fill="#e58d23"/><path d="m96.425781 130.316406c-.191406-.007812-.378906-.019531-.574219-.019531-1.851562 0-3.667968.351563-5.398437 1.039063-7.277344 2.890624-10.773437 10.988281-7.789063 18.050781 2.207032 5.222656 7.386719 8.59375 13.203126 8.59375.1875 0 .378906-.003907.566406-.011719-1.941406-1.796875-3.53125-4.007812-4.613282-6.574219-3.167968-7.488281-1.074218-15.792969 4.605469-21.078125zm0 0" fill="#a56021"/><path d="m128.542969 148.207031s-4.570313.164063-6.308594 2.929688v-.003907c-.976563 1.328126-1.195313 2.777344-1.195313 2.777344v-.007812c-.8125 3.144531 2.273438 6.417968 2.273438 6.417968s26.011719 26.320313 56.882812 23.105469l2.617188-6.058593 2.613281-6.058594c-19.304687-23.59375-56.882812-23.101563-56.882812-23.101563zm0 0" fill="#ffdf74"/><path d="m136.433594 166.6875s-3.085938-3.269531-2.273438-6.414062l-.003906.003906s.222656-1.445313 1.199219-2.777344l-.003907.007812c1.738282-2.769531 6.308594-2.933593 6.308594-2.933593s15.085938-.191407 31.050782 5.664062c-19.609376-12.347656-44.167969-12.027343-44.167969-12.027343s-4.570313.160156-6.308594 2.929687v-.007813c-.976563 1.332032-1.195313 2.78125-1.195313 2.78125v-.007812c-.8125 3.144531 2.273438 6.414062 2.273438 6.414062s12.363281 12.511719 30.164062 19.230469c-10.464843-6.207031-17.042968-12.863281-17.042968-12.863281zm0 0" fill="#ffd551"/><path d="m167.632812 120.976562s-3.347656-3.019531-6.597656-2.253906l.007813-.003906c-1.664063.269531-2.875 1.144531-2.875 1.144531l.007812-.003906c-2.867187 1.667969-3.070312 6.097656-3.070312 6.097656s-.789063 36.457031 23.386719 55.363281l6.261718-2.488281 6.265625-2.488281c3.542969-29.929688-23.386719-55.367188-23.386719-55.367188zm0 0" fill="#ffdf74"/><path d="m166.039062 125.957031s.128907-2.894531 1.695313-4.882812c-.066406-.0625-.101563-.097657-.101563-.097657s-3.347656-3.019531-6.597656-2.253906l.007813-.003906c-1.664063.269531-2.875 1.144531-2.875 1.144531l.007812-.003906c-2.867187 1.667969-3.070312 6.097656-3.070312 6.097656s-.789063 36.457031 23.386719 55.363281l6.261718-2.488281 1.21875-.484375c-20.644531-19.503906-19.933594-52.390625-19.933594-52.390625zm0 0" fill="#ffd551"/><path d="m215.402344 123.488281s-.167969-4.433593-3.019532-6.121093l.007813.003906c-1.375-.949219-2.867187-1.164063-2.867187-1.164063h.007812c-3.242188-.785156-6.613281 2.207031-6.613281 2.207031s-27.128907 25.234376-23.816407 55.191407l6.242188 2.535156 6.246094 2.539063c24.320312-18.730469 23.8125-55.191407 23.8125-55.191407zm0 0" fill="#ffdf74"/><path d="m211.664062 122.660156s1.371094-1.214844 3.203126-1.894531c-.421876-1.246094-1.164063-2.617187-2.484376-3.394531h.003907c-1.371094-.949219-2.863281-1.164063-2.863281-1.164063l.003906.003907c-3.238282-.789063-6.613282 2.207031-6.613282 2.207031s-27.128906 25.234375-23.816406 55.191406l6.246094 2.535156 2.433594.988281c-2.804688-29.640624 23.886718-54.472656 23.886718-54.472656zm0 0" fill="#ffd551"/><path d="m245.507812 163.929688s3.113282-3.246094 2.324219-6.398438l.003907.003906c-.277344-1.609375-1.179688-2.785156-1.179688-2.785156l.003906.003906c-1.71875-2.78125-6.285156-2.976562-6.285156-2.976562s-37.574219-.769532-57.0625 22.6875l2.566406 6.074218 2.5625 6.078126c30.851563 3.441406 57.066406-22.6875 57.066406-22.6875zm0 0" fill="#ffdf74"/><path d="m186.378906 181.722656c20.101563-20.027344 53.996094-19.339844 53.996094-19.339844s2.980469.128907 5.03125 1.644532c.066406-.0625.101562-.097656.101562-.097656s3.113282-3.25 2.324219-6.402344l.003907.007812c-.277344-1.613281-1.179688-2.789062-1.179688-2.789062l.003906.007812c-1.71875-2.785156-6.285156-2.980468-6.285156-2.980468s-37.574219-.765626-57.0625 22.6875l2.566406 6.074218zm0 0" fill="#ffd551"/><path d="m243.265625 213.949219s4.566406-.164063 6.308594-2.929688l-.003907.003907c.980469-1.328126 1.199219-2.777344 1.199219-2.777344l-.003906.007812c.816406-3.144531-2.273437-6.417968-2.273437-6.417968s-26.007813-26.320313-56.882813-23.105469l-5.226563 12.117187c19.300782 23.59375 56.882813 23.101563 56.882813 23.101563zm0 0" fill="#ffdf74"/><path d="m191.605469 189.335938c29.601562-3.082032 54.726562 20.976562 56.75 22.96875.472656-.347657.890625-.773438 1.214843-1.285157v.003907c.976563-1.328126 1.199219-2.777344 1.199219-2.777344l-.003906.007812c.816406-3.144531-2.273437-6.417968-2.273437-6.417968s-26.007813-26.320313-56.882813-23.105469l-5.226563 12.117187c.984376 1.203125 2.019532 2.34375 3.097657 3.429688zm0 0" fill="#ffd551"/><path d="m204.175781 241.179688s3.347657 3.019531 6.59375 2.253906l-.003906.003906c1.660156-.269531 2.871094-1.144531 2.871094-1.144531l-.003907.003906c2.863282-1.667969 3.066407-6.097656 3.066407-6.097656s.792969-36.457031-23.382813-55.363281l-6.265625 2.488281-6.261719 2.488281c-3.546874 29.933594 23.386719 55.367188 23.386719 55.367188zm0 0" fill="#ffdf74"/><path d="m215.003906 241.082031c-1.769531-1.710937-26.703125-26.394531-23.28125-55.265625l5.042969-2.007812c-1.089844-1.027344-2.238281-2.023438-3.449219-2.972656l-6.265625 2.488281-6.261719 2.492187c-3.550781 29.929688 23.382813 55.363282 23.382813 55.363282s3.347656 3.019531 6.59375 2.253906l-.003906.003906c1.660156-.269531 2.871093-1.144531 2.871093-1.144531l-.003906.003906c.554688-.320313 1.003906-.742187 1.375-1.214844zm0 0" fill="#ffd551"/><path d="m156.402344 238.667969s.167968 4.433593 3.019531 6.121093l-.007813-.003906c1.375.949219 2.863282 1.164063 2.863282 1.164063h-.003906c3.242187.785156 6.613281-2.207031 6.613281-2.207031s27.128906-25.234376 23.816406-55.191407l-6.242187-2.535156-6.246094-2.539063c-24.320313 18.730469-23.8125 55.191407-23.8125 55.191407zm0 0" fill="#ffdf74"/><path d="m167.335938 238.667969s-.453126-32.828125 20.28125-52.1875l-1.15625-.46875-6.242188-2.535157c-24.324219 18.730469-23.816406 55.191407-23.816406 55.191407s.167968 4.429687 3.019531 6.117187h-.007813c1.375.949219 2.863282 1.164063 2.863282 1.164063l-.003906-.003907c3.242187.789063 6.613281-2.207031 6.613281-2.207031s.050781-.046875.136719-.128906c-1.578126-2.003906-1.6875-4.941406-1.6875-4.941406zm0 0" fill="#ffd551"/><path d="m126.15625 197.1875s-3.109375 3.246094-2.324219 6.398438v-.003907c.277344 1.609375 1.175781 2.785157 1.175781 2.785157v-.003907c1.71875 2.78125 6.285157 2.976563 6.285157 2.976563s37.574219.769531 57.0625-22.6875l-2.566407-6.078125-2.566406-6.074219c-30.847656-3.441406-57.066406 22.6875-57.066406 22.6875zm0 0" fill="#ffdf74"/><path d="m144.410156 204.035156s-4.566406-.195312-6.28125-2.976562v.003906s-.898437-1.171875-1.175781-2.785156v.003906c-.789063-3.148438 2.324219-6.398438 2.324219-6.398438s8.523437-8.492187 21.566406-15.15625c-20.15625 5.980469-34.6875 20.460938-34.6875 20.460938s-3.109375 3.246094-2.324219 6.398438v-.003907c.277344 1.609375 1.175781 2.785157 1.175781 2.785157v-.003907c1.71875 2.78125 6.285157 2.976563 6.285157 2.976563s21.410156.433594 40.289062-9.441406c-14.464843 4.394531-27.171875 4.136718-27.171875 4.136718zm0 0" fill="#ffd551"/><path d="m193.011719 198.390625c-10.082031 4.007813-21.605469-.671875-25.738281-10.453125-4.128907-9.785156.695312-20.964844 10.777343-24.972656 10.082031-4.007813 21.601563.671875 25.734375 10.457031 4.132813 9.78125-.691406 20.960937-10.773437 24.96875zm0 0" fill="#ffa730"/><path d="m185.539062 194.519531c-5.816406 0-10.996093-3.375-13.203124-8.59375-2.984376-7.0625.511718-15.160156 7.789062-18.050781 1.730469-.6875 3.546875-1.039062 5.398438-1.039062 5.816406 0 10.996093 3.375 13.203124 8.597656 2.984376 7.058594-.511718 15.15625-7.789062 18.046875-1.730469.691406-3.546875 1.039062-5.398438 1.039062zm0 0" fill="#bf6c0d"/><path d="m181.488281 187.9375c-4.132812-9.785156.691407-20.964844 10.773438-24.972656.125-.046875.25-.089844.375-.136719-4.539063-1.703125-9.730469-1.792969-14.585938.136719-10.082031 4.007812-14.90625 15.1875-10.777343 24.972656 4.082031 9.660156 15.371093 14.339844 25.363281 10.589844-4.878907-1.828125-9.007813-5.523438-11.148438-10.589844zm0 0" fill="#e58d23"/><path d="m186.097656 166.859375c-.191406-.007813-.378906-.019531-.574218-.019531-1.851563 0-3.667969.347656-5.398438 1.035156-7.277344 2.894531-10.773438 10.992188-7.789062 18.050781 2.207031 5.222657 7.386718 8.597657 13.203124 8.597657.1875 0 .378907-.007813.566407-.015626-1.941407-1.796874-3.53125-4.007812-4.613281-6.570312-3.167969-7.492188-1.074219-15.796875 4.605468-21.078125zm0 0" fill="#a56021"/><path d="m121.878906 32.132812s-4.566406.160157-6.308594 2.929688l.003907-.007812c-.980469 1.332031-1.199219 2.78125-1.199219 2.78125l.003906-.007813c-.816406 3.144531 2.273438 6.414063 2.273438 6.414063s26.007812 26.324218 56.882812 23.109374l5.226563-12.117187c-19.300781-23.59375-56.882813-23.101563-56.882813-23.101563zm0 0" fill="#ffdf74"/><path d="m129.769531 50.613281s-3.085937-3.273437-2.273437-6.417969v.007813s.21875-1.449219 1.195312-2.777344v.003907c1.738282-2.765626 6.308594-2.929688 6.308594-2.929688s15.085938-.195312 31.050781 5.664062c-19.613281-12.347656-44.171875-12.03125-44.171875-12.03125s-4.566406.164063-6.308594 2.929688l.003907-.003906c-.980469 1.328125-1.199219 2.777344-1.199219 2.777344l.003906-.003907c-.816406 3.140625 2.273438 6.414063 2.273438 6.414063s12.363281 12.511718 30.160156 19.226562c-10.460938-6.207031-17.042969-12.859375-17.042969-12.859375zm0 0" fill="#ffd551"/><path d="m160.96875 4.898438s-3.347656-3.019532-6.59375-2.253907h.003906c-1.660156.269531-2.871094 1.140625-2.871094 1.140625h.003907c-2.863281 1.664063-3.066407 6.097656-3.066407 6.097656s-.792968 36.457032 23.382813 55.363282l6.265625-2.488282 6.261719-2.492187c3.546875-29.929687-23.386719-55.367187-23.386719-55.367187zm0 0" fill="#ffdf74"/><path d="m159.378906 9.878906s.128906-2.890625 1.695313-4.878906c-.066407-.0625-.101563-.101562-.101563-.101562s-3.347656-3.019532-6.597656-2.253907h.007812c-1.664062.269531-2.875 1.140625-2.875 1.140625h.007813c-2.867187 1.664063-3.070313 6.097656-3.070313 6.097656s-.789062 36.457032 23.386719 55.363282l6.261719-2.488282 1.21875-.484374c-20.644531-19.503907-19.933594-52.394532-19.933594-52.394532zm0 0" fill="#ffd551"/><path d="m208.742188 7.414062s-.167969-4.433593-3.019532-6.121093h.007813c-1.375-.949219-2.863281-1.164063-2.863281-1.164063l.003906.003906c-3.242188-.789062-6.613282 2.207032-6.613282 2.207032s-27.128906 25.234375-23.816406 55.191406l6.242188 2.535156 6.246094 2.535156c24.320312-18.726562 23.8125-55.1875 23.8125-55.1875zm0 0" fill="#ffdf74"/><path d="m205.003906 6.585938s1.371094-1.21875 3.203125-1.894532c-.417969-1.246094-1.164062-2.617187-2.484375-3.398437l.003906.003906c-1.371093-.949219-2.863281-1.164063-2.863281-1.164063h.007813c-3.242188-.785156-6.617188 2.207032-6.617188 2.207032s-27.128906 25.234375-23.816406 55.191406l6.246094 2.535156 2.433594.992188c-2.804688-29.640625 23.886718-54.472656 23.886718-54.472656zm0 0" fill="#ffd551"/><path d="m238.847656 47.855469s3.113282-3.25 2.324219-6.402344v.007813c-.277344-1.613282-1.175781-2.789063-1.175781-2.789063v.007813c-1.71875-2.785157-6.28125-2.980469-6.28125-2.980469s-37.578125-.765625-57.066406 22.6875l2.566406 6.078125 2.566406 6.074218c30.851562 3.445313 57.066406-22.683593 57.066406-22.683593zm0 0" fill="#ffdf74"/><path d="m179.71875 65.644531c20.101562-20.027343 53.996094-19.335937 53.996094-19.335937s2.980468.128906 5.03125 1.644531c.066406-.066406.101562-.101563.101562-.101563s3.113282-3.246093 2.324219-6.398437l.003906.003906c-.277343-1.609375-1.179687-2.785156-1.179687-2.785156l.003906.003906c-1.71875-2.78125-6.285156-2.976562-6.285156-2.976562s-37.574219-.769531-57.0625 22.6875l2.566406 6.074219zm0 0" fill="#ffd551"/><path d="m236.601562 97.871094s4.570313-.160156 6.308594-2.929688v.007813c.976563-1.332031 1.195313-2.777344 1.195313-2.777344v.003906c.8125-3.144531-2.273438-6.414062-2.273438-6.414062s-26.011719-26.324219-56.886719-23.109375l-5.226562 12.117187c19.304688 23.59375 56.882812 23.101563 56.882812 23.101563zm0 0" fill="#ffdf74"/><path d="m184.945312 73.257812c29.601563-3.082031 54.726563 20.980469 56.75 22.972657.472657-.351563.890626-.773438 1.214844-1.289063v.007813c.976563-1.332031 1.199219-2.777344 1.199219-2.777344l-.003906.003906c.816406-3.144531-2.273438-6.414062-2.273438-6.414062s-26.007812-26.324219-56.882812-23.109375l-5.226563 12.117187c.984375 1.207031 2.019532 2.347657 3.097656 3.429688zm0 0" fill="#ffd551"/><path d="m197.511719 125.105469s3.347656 3.019531 6.597656 2.253906h-.007813c1.664063-.269531 2.875-1.140625 2.875-1.140625h-.007812c2.867188-1.664062 3.070312-6.097656 3.070312-6.097656s.789063-36.453125-23.386718-55.363282l-6.261719 2.492188-6.265625 2.488281c-3.542969 29.933594 23.386719 55.367188 23.386719 55.367188zm0 0" fill="#ffdf74"/><path d="m208.34375 125.007812c-1.769531-1.714843-26.703125-26.398437-23.28125-55.269531l5.042969-2.003906c-1.089844-1.03125-2.234375-2.027344-3.449219-2.972656l-6.265625 2.488281-6.261719 2.488281c-3.550781 29.933594 23.382813 55.367188 23.382813 55.367188s3.347656 3.019531 6.59375 2.253906h-.003907c1.660157-.269531 2.871094-1.140625 2.871094-1.140625h-.003906c.550781-.320312 1.003906-.742188 1.375-1.210938zm0 0" fill="#ffd551"/><path d="m149.742188 122.59375s.167968 4.429688 3.019531 6.117188h-.007813c1.375.949218 2.867188 1.164062 2.867188 1.164062l-.007813-.003906c3.242188.789062 6.613281-2.203125 6.613281-2.203125s27.128907-25.238281 23.816407-55.195313l-6.242188-2.535156-6.246093-2.535156c-24.320313 18.726562-23.8125 55.191406-23.8125 55.191406zm0 0" fill="#ffdf74"/><path d="m160.675781 122.59375s-.453125-32.828125 20.28125-52.1875l-1.15625-.46875-6.242187-2.539062c-24.324219 18.730468-23.816406 55.191406-23.816406 55.191406s.167968 4.433594 3.019531 6.121094l-.007813-.003907c1.375.949219 2.867188 1.164063 2.867188 1.164063h-.007813c3.242188.785156 6.613281-2.207032 6.613281-2.207032s.050782-.046874.140626-.132812c-1.582032-2-1.691407-4.9375-1.691407-4.9375zm0 0" fill="#ffd551"/><path d="m119.496094 81.109375s-3.109375 3.25-2.324219 6.402344v-.007813c.277344 1.613282 1.175781 2.789063 1.175781 2.789063v-.007813c1.71875 2.78125 6.285156 2.980469 6.285156 2.980469s37.574219.765625 57.0625-22.691406l-5.132812-12.148438c-30.847656-3.445312-57.066406 22.683594-57.066406 22.683594zm0 0" fill="#ffdf74"/><path d="m137.75 87.960938s-4.570312-.195313-6.285156-2.980469l.003906.007812s-.902344-1.175781-1.179688-2.789062l.003907.007812c-.789063-3.152343 2.324219-6.402343 2.324219-6.402343s8.523437-8.492188 21.566406-15.15625c-20.15625 5.980468-34.6875 20.460937-34.6875 20.460937s-3.113282 3.25-2.324219 6.402344l-.003906-.007813c.277343 1.613282 1.179687 2.789063 1.179687 2.789063l-.003906-.007813c1.71875 2.78125 6.285156 2.980469 6.285156 2.980469s21.414063.433594 40.292969-9.441406c-14.464844 4.394531-27.171875 4.136719-27.171875 4.136719zm0 0" fill="#ffd551"/><path d="m186.351562 82.3125c-10.082031 4.007812-21.605468-.671875-25.734374-10.453125-4.132813-9.78125.691406-20.960937 10.773437-24.96875s21.601563.671875 25.734375 10.453125-.691406 20.960938-10.773438 24.96875zm0 0" fill="#ffa730"/><path d="m178.878906 78.445312c-5.816406 0-11-3.375-13.207031-8.597656-2.980469-7.058594.511719-15.15625 7.789063-18.050781 1.730468-.6875 3.550781-1.035156 5.398437-1.035156 5.816406 0 11 3.371093 13.207031 8.59375 2.980469 7.0625-.511718 15.160156-7.789062 18.050781-1.730469.6875-3.546875 1.039062-5.398438 1.039062zm0 0" fill="#bf6c0d"/><path d="m174.828125 71.859375c-4.132813-9.78125.691406-20.960937 10.773437-24.96875.125-.050781.25-.09375.375-.136719-4.539062-1.703125-9.730468-1.796875-14.585937.136719-10.082031 4.007813-14.90625 15.1875-10.773437 24.96875 4.078124 9.664063 15.367187 14.339844 25.359374 10.59375-4.882812-1.832031-9.007812-5.523437-11.148437-10.59375zm0 0" fill="#e58d23"/><path d="m179.4375 50.78125c-.191406-.007812-.378906-.019531-.574219-.019531-1.851562 0-3.667969.347656-5.398437 1.035156-7.277344 2.894531-10.773438 10.992187-7.789063 18.050781 2.207031 5.222656 7.386719 8.597656 13.203125 8.597656.1875 0 .378906-.007812.566406-.015624-1.941406-1.796876-3.53125-4.007813-4.613281-6.570313-3.167969-7.488281-1.074219-15.796875 4.605469-21.078125zm0 0" fill="#a56021"/><path d="m218.996094 110.519531s-4.566406.164063-6.308594 2.929688l.003906-.003907c-.976562 1.328126-1.199218 2.777344-1.199218 2.777344l.003906-.007812c-.816406 3.144531 2.273437 6.417968 2.273437 6.417968s26.007813 26.320313 56.882813 23.105469l2.613281-6.058593 2.617187-6.058594c-19.304687-23.59375-56.886718-23.101563-56.886718-23.101563zm0 0" fill="#ffdf74"/><path d="m226.890625 129s-3.085937-3.273438-2.273437-6.414062l-.003907.003906s.21875-1.449219 1.199219-2.777344l-.003906.003906c1.738281-2.765625 6.308594-2.929687 6.308594-2.929687s15.085937-.191407 31.050781 5.664062c-19.609375-12.347656-44.171875-12.027343-44.171875-12.027343s-4.566406.160156-6.308594 2.929687l.003906-.007813c-.976562 1.332032-1.199218 2.777344-1.199218 2.777344l.003906-.003906c-.816406 3.144531 2.273437 6.414062 2.273437 6.414062s12.363281 12.511719 30.160157 19.230469c-10.460938-6.210937-17.039063-12.863281-17.039063-12.863281zm0 0" fill="#ffd551"/><path d="m258.085938 83.289062s-3.347657-3.019531-6.59375-2.253906l.003906-.003906c-1.660156.269531-2.871094 1.144531-2.871094 1.144531l.007812-.003906c-2.867187 1.667969-3.070312 6.097656-3.070312 6.097656s-.792969 36.457031 23.382812 55.363281l6.265626-2.488281 6.265624-2.492187c3.539063-29.929688-23.390624-55.363282-23.390624-55.363282zm0 0" fill="#ffdf74"/><path d="m256.492188 88.269531s.132812-2.894531 1.695312-4.882812c-.0625-.0625-.101562-.097657-.101562-.097657s-3.347657-3.019531-6.59375-2.253906l.003906-.003906c-1.660156.269531-2.871094 1.144531-2.871094 1.144531l.007812-.003906c-2.867187 1.667969-3.070312 6.097656-3.070312 6.097656s-.792969 36.457031 23.382812 55.363281l6.265626-2.488281 1.21875-.484375c-20.644532-19.507812-19.9375-52.390625-19.9375-52.390625zm0 0" fill="#ffd551"/><path d="m305.859375 85.800781s-.167969-4.433593-3.019531-6.121093l.003906.003906c-1.371094-.953125-2.863281-1.164063-2.863281-1.164063h.007812c-3.242187-.789062-6.613281 2.207031-6.613281 2.207031s-27.132812 25.234376-23.816406 55.191407l6.242187 2.535156 6.246094 2.535156c24.320313-18.726562 23.8125-55.1875 23.8125-55.1875zm0 0" fill="#ffdf74"/><path d="m302.121094 84.972656s1.371094-1.214844 3.203125-1.894531c-.421875-1.246094-1.164063-2.617187-2.488281-3.394531h.007812c-1.371094-.949219-2.863281-1.164063-2.863281-1.164063l.003906.003907c-3.242187-.789063-6.613281 2.203124-6.613281 2.203124s-27.128906 25.238282-23.816406 55.195313l6.246093 2.535156 2.433594.988281c-2.804687-29.640624 23.886719-54.472656 23.886719-54.472656zm0 0" fill="#ffd551"/><path d="m335.964844 126.242188s3.113281-3.25 2.324218-6.398438l.003907.003906c-.28125-1.613281-1.179688-2.789062-1.179688-2.789062l.003907.007812c-1.71875-2.78125-6.285157-2.976562-6.285157-2.976562s-37.578125-.769532-57.066406 22.6875l2.566406 6.074218 2.566407 6.078126c30.851562 3.441406 57.066406-22.6875 57.066406-22.6875zm0 0" fill="#ffdf74"/><path d="m276.832031 144.035156c20.101563-20.027344 54-19.339844 54-19.339844s2.980469.128907 5.03125 1.644532c.0625-.0625.101563-.101563.101563-.101563s3.113281-3.246093 2.324218-6.398437l.003907.007812c-.28125-1.613281-1.179688-2.789062-1.179688-2.789062l.003907.003906c-1.71875-2.78125-6.285157-2.976562-6.285157-2.976562s-37.578125-.769532-57.066406 22.6875l2.566406 6.078124zm0 0" fill="#ffd551"/><path d="m333.722656 176.261719s4.566406-.164063 6.304688-2.929688v.003907c.976562-1.328126 1.199218-2.777344 1.199218-2.777344l-.003906.003906c.816406-3.140625-2.273437-6.414062-2.273437-6.414062s-26.011719-26.324219-56.882813-23.105469l-2.613281 6.058593-2.617187 6.054688c19.304687 23.597656 56.886718 23.105469 56.886718 23.105469zm0 0" fill="#ffdf74"/><path d="m282.0625 151.644531c29.601562-3.082031 54.726562 20.980469 56.75 22.972657.472656-.347657.890625-.773438 1.214844-1.285157l-.003906.003907c.980468-1.328126 1.203124-2.777344 1.203124-2.777344l-.003906.003906c.816406-3.140625-2.273437-6.414062-2.273437-6.414062s-26.011719-26.324219-56.882813-23.105469l-2.613281 6.058593-2.617187 6.054688c.988281 1.207031 2.023437 2.347656 3.097656 3.433594zm0 0" fill="#ffd551"/><path d="m294.632812 203.492188s3.347657 3.019531 6.59375 2.253906l-.003906.003906c1.660156-.273438 2.871094-1.144531 2.871094-1.144531l-.007812.003906c2.867187-1.667969 3.070312-6.097656 3.070312-6.097656s.789062-36.457031-23.386719-55.367188l-6.261719 2.492188-6.265624 2.488281c-3.542969 29.929688 23.390624 55.367188 23.390624 55.367188zm0 0" fill="#ffdf74"/><path d="m305.460938 203.394531c-1.769532-1.710937-26.703126-26.394531-23.28125-55.265625l5.042968-2.007812c-1.089844-1.027344-2.238281-2.023438-3.453125-2.972656l-6.261719 2.488281-6.265624 2.492187c-3.546876 29.929688 23.386718 55.363282 23.386718 55.363282s3.347656 3.019531 6.59375 2.253906l-.003906.003906c1.660156-.273438 2.871094-1.144531 2.871094-1.144531l-.007813.003906c.558594-.320313 1.007813-.742187 1.378907-1.214844zm0 0" fill="#ffd551"/><path d="m246.855469 200.980469s.167969 4.433593 3.023437 6.121093l-.007812-.003906c1.371094.949219 2.863281 1.164063 2.863281 1.164063h-.003906c3.242187.785156 6.613281-2.207031 6.613281-2.207031s27.128906-25.238282 23.816406-55.191407l-6.246094-2.539062-6.242187-2.535157c-24.320313 18.730469-23.816406 55.191407-23.816406 55.191407zm0 0" fill="#ffdf74"/><path d="m257.792969 200.980469s-.453125-32.828125 20.28125-52.1875l-1.15625-.46875-6.246094-2.535157c-24.320313 18.730469-23.816406 55.1875-23.816406 55.1875s.167969 4.433594 3.023437 6.121094h-.007812c1.371094.949219 2.863281 1.164063 2.863281 1.164063l-.003906-.003907c3.242187.789063 6.613281-2.207031 6.613281-2.207031s.050781-.046875.136719-.128906c-1.578125-2.003906-1.6875-4.941406-1.6875-4.941406zm0 0" fill="#ffd551"/><path d="m216.613281 159.5s-3.113281 3.246094-2.324219 6.398438v-.007813c.277344 1.613281 1.175782 2.789063 1.175782 2.789063v-.003907c1.714844 2.78125 6.28125 2.976563 6.28125 2.976563s37.578125.769531 57.066406-22.6875l-2.566406-6.078125-2.566406-6.074219c-30.851563-3.445312-57.066407 22.6875-57.066407 22.6875zm0 0" fill="#ffdf74"/><path d="m234.867188 166.347656s-4.566407-.195312-6.285157-2.976562l.003907.003906s-.902344-1.171875-1.179688-2.785156l.003906.003906c-.789062-3.148438 2.324219-6.398438 2.324219-6.398438s8.523437-8.492187 21.566406-15.15625c-20.15625 5.980469-34.6875 20.460938-34.6875 20.460938s-3.113281 3.246094-2.324219 6.398438v-.007813c.277344 1.613281 1.175782 2.789063 1.175782 2.789063v-.003907c1.714844 2.78125 6.28125 2.976563 6.28125 2.976563s21.414062.433594 40.292968-9.441406c-14.46875 4.394531-27.171874 4.136718-27.171874 4.136718zm0 0" fill="#ffd551"/><path d="m283.46875 160.703125c-10.082031 4.007813-21.605469-.671875-25.738281-10.453125-4.132813-9.785156.691406-20.964844 10.773437-24.972656 10.082032-4.007813 21.605469.671875 25.738282 10.453125 4.132812 9.785156-.691407 20.964843-10.773438 24.972656zm0 0" fill="#ffa730"/><path d="m275.996094 156.832031c-5.816406 0-11-3.375-13.203125-8.597656-2.984375-7.058594.511719-15.15625 7.785156-18.046875 1.734375-.6875 3.550781-1.039062 5.402344-1.039062 5.816406 0 10.996093 3.375 13.203125 8.59375 2.980468 7.0625-.511719 15.160156-7.789063 18.050781-1.734375.6875-3.550781 1.039062-5.398437 1.039062zm0 0" fill="#bf6c0d"/><path d="m271.945312 150.25c-4.132812-9.785156.691407-20.964844 10.773438-24.972656.125-.050782.25-.089844.375-.136719-4.539062-1.703125-9.730469-1.792969-14.589844.136719-10.082031 4.007812-14.90625 15.1875-10.773437 24.972656 4.082031 9.660156 15.371093 14.339844 25.363281 10.589844-4.878906-1.828125-9.007812-5.523438-11.148438-10.589844zm0 0" fill="#e58d23"/><path d="m276.554688 129.167969c-.195313-.007813-.382813-.019531-.574219-.019531-1.851563 0-3.667969.351562-5.402344 1.039062-7.273437 2.890625-10.769531 10.988281-7.785156 18.046875 2.203125 5.222656 7.386719 8.597656 13.203125 8.597656.1875 0 .378906-.007812.566406-.015625-1.941406-1.796875-3.535156-4.007812-4.617188-6.570312-3.164062-7.488282-1.070312-15.796875 4.609376-21.078125zm0 0" fill="#a56021"/><path d="m199.46875 383.511719c0 9.941406-8.058594 18-18 18s-18-8.058594-18-18c0-9.941407 8.058594-18 18-18s18 8.058593 18 18zm0 0" fill="#ffb74b"/></svg>