<svg height="480pt" viewBox="-4 0 480 480.112" width="480pt" xmlns="http://www.w3.org/2000/svg"><path d="m456.054688 256h-224c-8.835938 0-16-7.164062-16-16v-224c0-8.835938 7.164062-16 16-16h224c8.835937 0 16 7.164062 16 16v224c0 8.835938-7.164063 16-16 16zm0 0" fill="#eacf32"/><path d="m456.054688 244c-3.3125 0-6-2.6875-6-6v-108c0-3.3125 2.6875-6 6-6 3.316406 0 6 2.6875 6 6v108c0 3.3125-2.683594 6-6 6zm0 0" fill="#fcda4f"/><path d="m272.054688 240v-224c0-8.835938 7.164062-16 16-16h-56c-8.835938 0-16 7.164062-16 16v224c0 8.835938 7.164062 16 16 16h56c-8.835938 0-16-7.164062-16-16zm0 0" fill="#ccc033"/><path d="m364.054688 128c0 11.046875-8.953126 20-20 20-11.042969 0-20-8.953125-20-20s8.957031-20 20-20c11.046874 0 20 8.953125 20 20zm0 0" fill="#fff4c1"/><path d="m307.488281 71.433594c0 11.042968-8.953125 20-20 20s-20-8.957032-20-20c0-11.046875 8.953125-20 20-20s20 8.953125 20 20zm0 0" fill="#fff4c1"/><path d="m420.625 184.566406c0 11.046875-8.957031 20-20 20-11.046875 0-20-8.953125-20-20 0-11.042968 8.953125-20 20-20 11.042969 0 20 8.957032 20 20zm0 0" fill="#fff4c1"/><path d="m336.054688 132c0-11.035156 8.9375-19.980469 19.96875-19.996094-3.339844-2.503906-7.472657-4.003906-11.96875-4.003906-11.042969 0-20 8.957031-20 20s8.957031 20 20 20c.011718 0 .023437-.003906.035156-.003906-4.867188-3.644532-8.035156-9.445313-8.035156-15.996094zm0 0" fill="#fce575"/><path d="m285.347656 89.574219c-7.8125-7.808594-7.8125-20.472657 0-28.285157 3.894532-3.898437 9-5.847656 14.105469-5.855468-7.832031-5.875-18.984375-5.269532-26.105469 1.855468-7.8125 7.808594-7.8125 20.472657 0 28.285157 3.914063 3.914062 9.042969 5.863281 14.175782 5.855469-.757813-.566407-1.492188-1.167969-2.175782-1.855469zm0 0" fill="#fce575"/><path d="m398.480469 202.710938c-7.808594-7.808594-7.808594-20.472657 0-28.285157 3.898437-3.894531 9-5.847656 14.109375-5.855469-7.832032-5.875-18.984375-5.269531-26.109375 1.855469-7.808594 7.808594-7.808594 20.472657 0 28.285157 3.914062 3.914062 9.046875 5.867187 14.175781 5.855468-.753906-.5625-1.488281-1.171875-2.175781-1.855468zm0 0" fill="#fce575"/><path d="m240.054688 480.113281h-224c-8.835938 0-16.0000005-7.164062-16.0000005-16v-224c0-8.835937 7.1640625-16 16.0000005-16h224c8.835937 0 16 7.164063 16 16v224c0 8.835938-7.164063 16-16 16zm0 0" fill="#ffdf74"/><path d="m240.054688 353.558594c-3.3125 0-6-2.683594-6-6v-108c0-3.3125 2.6875-6 6-6 3.316406 0 6 2.6875 6 6v108c0 3.316406-2.683594 6-6 6zm0 0" fill="#fce575"/><path d="m56.054688 464.113281v-224c0-8.835937 7.164062-16 16-16h-56c-8.835938 0-16.0000005 7.164063-16.0000005 16v224c0 8.835938 7.1640625 16 16.0000005 16h56c-8.835938 0-16-7.164062-16-16zm0 0" fill="#ffd551"/><g fill="#a56021"><path d="m198.019531 352.113281c0 11.042969-8.957031 20-20 20-11.046875 0-20-8.957031-20-20 0-11.046875 8.953125-20 20-20 11.042969 0 20 8.953125 20 20zm0 0"/><path d="m198.019531 272.113281c0 11.042969-8.957031 20-20 20-11.046875 0-20-8.957031-20-20 0-11.046875 8.953125-20 20-20 11.042969 0 20 8.953125 20 20zm0 0"/><path d="m198.019531 432.113281c0 11.042969-8.957031 20-20 20-11.046875 0-20-8.957031-20-20 0-11.046875 8.953125-20 20-20 11.042969 0 20 8.953125 20 20zm0 0"/><path d="m110.019531 352.113281c0 11.042969-8.957031 20-20 20-11.046875 0-20-8.957031-20-20 0-11.046875 8.953125-20 20-20 11.042969 0 20 8.953125 20 20zm0 0"/><path d="m110.019531 272.113281c0 11.042969-8.957031 20-20 20-11.046875 0-20-8.957031-20-20 0-11.046875 8.953125-20 20-20 11.042969 0 20 8.953125 20 20zm0 0"/><path d="m110.019531 432.113281c0 11.042969-8.957031 20-20 20-11.046875 0-20-8.957031-20-20 0-11.046875 8.953125-20 20-20 11.042969 0 20 8.953125 20 20zm0 0"/></g><path d="m174.019531 352.113281c0-8.203125 4.9375-15.238281 12-18.324219-2.453125-1.074218-5.15625-1.675781-8-1.675781-11.046875 0-20 8.953125-20 20 0 11.042969 8.953125 20 20 20 2.84375 0 5.546875-.605469 8-1.675781-7.0625-3.085938-12-10.128906-12-18.324219zm0 0" fill="#8c4c17"/><path d="m174.019531 272.113281c0-8.203125 4.9375-15.238281 12-18.324219-2.453125-1.074218-5.15625-1.675781-8-1.675781-11.046875 0-20 8.953125-20 20 0 11.042969 8.953125 20 20 20 2.84375 0 5.546875-.605469 8-1.675781-7.0625-3.085938-12-10.128906-12-18.324219zm0 0" fill="#8c4c17"/><path d="m174.019531 432.113281c0-8.203125 4.9375-15.238281 12-18.324219-2.453125-1.074218-5.15625-1.675781-8-1.675781-11.046875 0-20 8.953125-20 20 0 11.042969 8.953125 20 20 20 2.84375 0 5.546875-.605469 8-1.675781-7.0625-3.085938-12-10.128906-12-18.324219zm0 0" fill="#8c4c17"/><path d="m86.019531 352.113281c0-8.203125 4.9375-15.238281 12-18.324219-2.453125-1.074218-5.15625-1.675781-8-1.675781-11.046875 0-20 8.953125-20 20 0 11.042969 8.953125 20 20 20 2.84375 0 5.546875-.605469 8-1.675781-7.0625-3.085938-12-10.128906-12-18.324219zm0 0" fill="#8c4c17"/><path d="m86.019531 272.113281c0-8.203125 4.9375-15.238281 12-18.324219-2.453125-1.074218-5.15625-1.675781-8-1.675781-11.046875 0-20 8.953125-20 20 0 11.042969 8.953125 20 20 20 2.84375 0 5.546875-.605469 8-1.675781-7.0625-3.085938-12-10.128906-12-18.324219zm0 0" fill="#8c4c17"/><path d="m86.019531 432.113281c0-8.203125 4.9375-15.238281 12-18.324219-2.453125-1.074218-5.15625-1.675781-8-1.675781-11.046875 0-20 8.953125-20 20 0 11.042969 8.953125 20 20 20 2.84375 0 5.546875-.605469 8-1.675781-7.0625-3.085938-12-10.128906-12-18.324219zm0 0" fill="#8c4c17"/><path d="m248.054688 454.613281c0 9.941407-8.058594 18-18 18-9.941407 0-18-8.058593-18-18 0-9.941406 8.058593-18 18-18 9.941406 0 18 8.058594 18 18zm0 0" fill="#ffd551"/><path d="m321.488281 228.113281c0 9.941407-8.058593 18-18 18-9.941406 0-18-8.058593-18-18 0-9.941406 8.058594-18 18-18 9.941407 0 18 8.058594 18 18zm0 0" fill="#ccc033"/></svg>