<svg height="479pt" viewBox="-6 0 479 479.232" width="479pt" xmlns="http://www.w3.org/2000/svg"><path d="m388.957031 366.070312v17.207032c0 7.6875 6.234375 13.917968 13.917969 13.917968 7.6875 0 13.917969-6.230468 13.917969-13.917968v-17.207032zm0 0" fill="#ffd551"/><path d="m404.957031 383.28125v-17.210938h-16v17.210938c0 7.6875 6.234375 13.917969 13.917969 13.917969 2.980469 0 5.738281-.945313 8-2.542969-3.574219-2.515625-5.917969-6.671875-5.917969-11.375zm0 0" fill="#ffc34c"/><path d="m441.152344 342.8125h-313.160156v31.257812h297.515624c8.640626 0 15.644532-7.003906 15.644532-15.644531zm0 0" fill="#ffdf74"/><path d="m127.992188 374.070312h221.664062c1.132812-6.785156 1.746094-13.738281 1.746094-20.839843 0-3.511719-.179688-6.980469-.460938-10.421875h-222.949218zm0 0" fill="#ffd551"/><path d="m457.6875 342.8125h-233.042969v-52.097656h233.046875c5.757813 0 10.429688 4.671875 10.429688 10.429687v31.238281c-.003906 5.757813-4.671875 10.429688-10.433594 10.429688zm0 0" fill="#a56021"/><path d="m334.785156 290.714844h-110.140625v52.097656h126.296875c-1.546875-18.847656-7.230468-36.511719-16.15625-52.097656zm0 0" fill="#8c4c17"/><path d="m73.59375 10.925781c-3.394531-9.125-10.273438-10.703125-13.476562-10.925781h-43.804688c-8.335938 0-15.617188 6.28125-16.160156 14.585938-.59375 9.101562 6.628906 16.671874 15.625 16.671874h24.714844c4.363281 0 8.269531 2.710938 9.785156 6.792969l111.402344 299.53125 29.359374-10.878906zm0 0" fill="#ffd551"/><path d="m177.679688 329.578125-111.402344-299.527344c-1.515625-4.082031-5.421875-6.789062-9.785156-6.789062h-24.714844c-8.996094 0-16.21875-7.570313-15.625-16.671875.15625-2.402344.890625-4.628906 2.035156-6.58593775h-1.875c-8.339844 0-15.621094 6.27734375-16.164062 14.58593775-.589844 9.101562 6.632812 16.671875 15.625 16.671875h24.714843c4.367188 0 8.269531 2.707031 9.789063 6.789062l111.402344 299.53125 29.355468-10.878906-.675781-1.820313zm0 0" fill="#ffc34c"/><path d="m311.402344 353.230469c0 69.589843-56.410156 126-126 126-69.585938 0-126-56.410157-126-126 0-69.585938 56.414062-126 126-126 69.589844 0 126 56.414062 126 126zm0 0" fill="#bf6c0d"/><path d="m229.550781 459.984375c-2.308593 0-4.507812-1.335937-5.496093-3.585937-1.332032-3.03125.042968-6.574219 3.078124-7.90625 37.828126-16.636719 62.273438-54.03125 62.273438-95.261719 0-3.3125 2.6875-6 6-6s6 2.6875 6 6c0 45.988281-27.257812 87.691406-69.441406 106.246093-.785156.34375-1.605469.507813-2.414063.507813zm0 0" fill="#e58d23"/><path d="m115.402344 353.230469c0-59.957031 41.898437-110.101563 98-122.835938-9.007813-2.042969-18.371094-3.164062-28-3.164062-69.585938 0-126 56.414062-126 126 0 69.589843 56.414062 126 126 126 9.628906 0 18.992187-1.113281 28-3.160157-56.101563-12.738281-98-62.878906-98-122.839843zm0 0" fill="#a56021"/><path d="m256.171875 353.230469c0 39.082031-31.683594 70.765625-70.769531 70.765625-39.082032 0-70.765625-31.683594-70.765625-70.765625 0-39.085938 31.683593-70.769531 70.765625-70.769531 39.085937 0 70.769531 31.683593 70.769531 70.769531zm0 0" fill="#ffd551"/><path d="m154.636719 353.230469c0-32.074219 21.460937-59.214844 50.769531-67.871094-6.347656-1.875-13.054688-2.894531-20-2.894531-39.019531 0-70.769531 31.746094-70.769531 70.765625 0 39.023437 31.746093 70.765625 70.769531 70.765625 6.945312 0 13.652344-1.019532 20-2.890625-29.308594-8.65625-50.769531-35.800781-50.769531-67.875zm0 0" fill="#ffc34c"/><path d="m436.21875 159.765625h-313.21875c-8.632812 0-15.628906-7-15.628906-15.632813 0-8.628906 6.996094-15.628906 15.628906-15.628906h313.21875c8.632812 0 15.628906 7 15.628906 15.628906 0 8.632813-6.996094 15.632813-15.628906 15.632813zm0 0" fill="#f9bb32"/><path d="m163.371094 156.136719c0-8.632813 7-15.628907 15.632812-15.628907h272.402344c-1.636719-6.878906-7.804688-12-15.1875-12h-313.21875c-8.632812 0-15.628906 6.996094-15.628906 15.628907 0 8.628906 6.996094 15.628906 15.628906 15.628906h40.8125c-.277344-1.167969-.441406-2.378906-.441406-3.628906zm0 0" fill="#db9c2e"/><path d="m416.792969 159.765625v190.734375h-27.835938v-190.734375zm0 0" fill="#ffdf74"/><path d="m448.875 433.230469c0 25.40625-20.59375 46-46 46-25.402344 0-46-20.59375-46-46 0-25.402344 20.597656-46 46-46 25.40625 0 46 20.597656 46 46zm0 0" fill="#bf6c0d"/><path d="m380.875 433.230469c0-21.25 14.417969-39.125 34-44.40625-3.824219-1.03125-7.847656-1.59375-12-1.59375-25.40625 0-46 20.597656-46 46 0 25.40625 20.59375 46 46 46 4.152344 0 8.175781-.554688 12-1.589844-19.582031-5.28125-34-23.15625-34-44.410156zm0 0" fill="#a56021"/><path d="m428.710938 433.230469c0 14.269531-11.566407 25.835937-25.835938 25.835937s-25.835938-11.566406-25.835938-25.835937c0-14.265625 11.566407-25.835938 25.835938-25.835938s25.835938 11.570313 25.835938 25.835938zm0 0" fill="#ffd551"/><path d="m393.039062 433.230469c0-11.453125 7.496094-21.175781 17.835938-24.550781-2.519531-.824219-5.203125-1.285157-8-1.285157-14.246094 0-25.835938 11.589844-25.835938 25.835938 0 14.246093 11.589844 25.835937 25.835938 25.835937 2.796875 0 5.480469-.457031 8-1.28125-10.335938-3.378906-17.835938-13.101562-17.835938-24.554687zm0 0" fill="#ffc34c"/><path d="m388.957031 159.765625h16v183.042969h-16zm0 0" fill="#ffd551"/><path d="m231.710938 255.132812c0 9.941407-8.058594 18-18 18-9.941407 0-18-8.058593-18-18 0-9.941406 8.058593-18 18-18 9.941406 0 18 8.058594 18 18zm0 0" fill="#a56021"/><path d="m452.117188 338.382812c-3.3125 0-6-2.683593-6-6v-31.238281c0-3.316406 2.6875-6 6-6 3.316406 0 6 2.683594 6 6v31.238281c0 3.316407-2.683594 6-6 6zm0 0" fill="#bf6c0d"/></svg>