<svg height="488pt" viewBox="0 -59 488 488" width="488pt" xmlns="http://www.w3.org/2000/svg"><path d="m451.5625 28.136719c-49.617188-40.394531-107.453125-17.070313-107.453125-17.070313l-11.621094 6.566406 73.800781 81.371094 4.886719-16.097656c4.46875-26.269531 28.550781-41.972656 40.578125-48.289062 2.652344-1.394532 2.53125-5.222657-.191406-6.480469zm0 0" fill="#e58d23"/><path d="m452.96875 29.316406.015625.007813c-.03125-.035157-.0625-.066407-.097656-.105469-.113281-.148438-.222657-.300781-.367188-.433594l.015625.007813c-.011718-.011719-.023437-.023438-.039062-.03125-.027344-.027344-.054688-.046875-.082032-.070313-.042968-.042968-.085937-.078125-.128906-.117187-9.015625-9.703125-22.714844-15.652344-32.941406-19h.003906c-.003906-.003907-.011718-.003907-.019531-.007813-7.886719-2.578125-13.707031-3.609375-13.707031-3.609375h.007812c-.042968-.007812-.085937-.015625-.132812-.023437-.222656-.046875-.445313-.089844-.671875-.132813-.027344-.007812-.054688-.011719-.082031-.015625-9.164063-1.894531-14.476563-2.015625-14.476563-2.015625l.078125.015625c-28.15625-2.101562-46.234375 7.28125-46.234375 7.28125l-11.621094 6.566406 73.800781 81.371094.566407-1.871094-50.5625-55.75 11.621093-6.566406s39.40625-15.855468 81.066407 1.3125c.976562-.550781 1.90625-1.058594 2.769531-1.511718 2.0625-1.085938 2.429688-3.625 1.21875-5.300782zm0 0" fill="#bf6c0d"/><path d="m144.683594 129.867188-4.925782-71.4375h-128.742187v32.570312c0 3.730469 2.511719 6.996094 6.125 7.960938l57.148437 15.261718c21.933594 6.8125 49.136719 14.019532 70.394532 15.644532zm0 0" fill="#a56021"/><path d="m50.691406 106.832031v-32.570312h90.15625l-1.089844-15.832031h-128.742187v32.570312c0 3.730469 2.511719 6.996094 6.125 7.960938l33.644531 8.984374c-.050781-.363281-.09375-.734374-.09375-1.113281zm0 0" fill="#8c4c17"/><path d="m435.300781 68.925781.019531.007813c-43.175781-35.703125-92.230468-51.515625-130.464843-58.417969v-.003906c-.035157-.003907-.066407-.007813-.101563-.011719-15.417968-2.78125-29.078125-4.113281-39.863281-4.710938-.070313-.003906-.136719-.011718-.207031-.015624-73.050782-7.328126-113.546875-4.039063-113.550782-4.039063-2.335937.101563-4.507812.21875-6.515624.351563 0 0-63.757813 5.8125-74.65625 42.285156-1.023438 3.425781-4.109376 5.816406-7.683594 5.816406h-54.015625c-4.5625 0-8.261719 3.695312-8.261719 8.261719v21.214843c0 4.550782 3.691406 8.242188 8.242188 8.242188h47.273437c4.738281.199219 17.53125 1.980469 30.632813 14.730469v-.003907c13.417968 13.550782 31.636718 20.625 44.167968 24.128907.003906 0 8.097656 3.449219 23.847656 8.789062.03125.011719.066407.023438.097657.035157.988281.335937 2.007812.675781 3.054687 1.027343.066406.019531.128906.042969.195313.0625 3.269531 1.089844 6.828125 2.246094 10.675781 3.457031.097656.035157.199219.066407.300781.097657 1.25.394531 2.53125.792969 3.839844 1.199219.015625.003906.03125.007812.042969.011718 4.097656 1.265625 8.488281 2.585938 13.164062 3.949219.0625.015625.125.035156.1875.054687 4.6875 1.367188 9.667969 2.773438 14.933594 4.207032.023438.003906.039062.011718.058594.019531 42.375 11.554687 103.28125 25.050781 181.160156 34.332031 22.050781 11.285156 37.523438 33.957032 37.5 59.953125-.015625 18.335938-7.367188 34.957031-19.277344 47.109375h23.445313c38.691406-23.902344 64.457031-66.535156 64.457031-115.152344 0-43.507812-20.636719-82.199218-52.699219-106.988281zm0 0" fill="#e58d23"/><path d="m472.128906 181.914062c-3.316406 0-6-2.6875-6-6 0-35.296874-16.117187-67.996093-44.21875-89.722656-2.621094-2.027344-3.101562-5.796875-1.074218-8.417968 2.027343-2.621094 5.796874-3.101563 8.417968-1.078126 31.058594 24.015626 48.875 60.179688 48.875 99.21875 0 3.308594-2.683594 6-6 6zm0 0" fill="#ffa730"/><path d="m428.136719 271.25v72.597656c0 14.996094-12.15625 27.152344-27.152344 27.152344h-34.976563v-76.480469c0-12.851562 10.417969-23.269531 23.269532-23.269531zm0 0" fill="#ffa730"/><path d="m428.433594 271.25v40.148438c0 14.992187-12.15625 27.148437-27.152344 27.148437h-68.550781v-44.027344c0-12.851562 10.417969-23.269531 23.273437-23.269531zm0 0" fill="#e58d23"/><path d="m270.601562 116.574219s27.90625 85.445312 85.386719 118.902343c3.1875 1.855469 7.042969 2.175782 10.515625.929688 5.625-2.011719 9.046875-7.710938 8.167969-13.609375l-9.859375-66.226563-16.367188-45.523437zm0 0" fill="#e58d23"/><g fill="#bf6c0d"><path d="m372.402344 314.285156c0-12.839844 10.433594-23.246094 23.300781-23.246094h32.730469v-19.789062h-72.40625c-12.867188 0-23.296875 10.402344-23.296875 23.242188v44.054687h39.671875zm0 0"/><path d="m373.984375 218.191406c-40.140625-31.429687-63.117187-86.492187-69.675781-104.011718l-33.707032 2.394531s27.90625 85.445312 85.386719 118.902343c3.1875 1.855469 7.042969 2.175782 10.515625.929688 5.625-2.011719 9.046875-7.710938 8.167969-13.609375zm0 0"/><path d="m415.320312 313.265625c0 9.941406-8.058593 18-18 18-9.941406 0-18-8.058594-18-18s8.058594-18 18-18c9.941407 0 18 8.058594 18 18zm0 0"/><path d="m368.726562 155.226562c0 9.941407-8.058593 18-18 18-9.941406 0-18-8.058593-18-18 0-9.941406 8.058594-18 18-18 9.941407 0 18 8.058594 18 18zm0 0"/><path d="m405.679688 203.792969c-.035157-.003907-.066407-.007813-.097657-.011719 8.621094 11.25 13.808594 25.148438 13.792969 40.175781-.015625 18.335938-7.367188 34.957031-19.277344 47.109375h23.445313c6.441406-3.980468 12.515625-8.492187 18.183593-13.453125.945313-4.476562 1.453126-9.109375 1.457032-13.867187.019531-25.996094-15.453125-48.664063-37.503906-59.953125zm0 0"/><path d="m447.921875 80.003906c-3.972656-3.941406-8.183594-7.644531-12.621094-11.078125l.019531.007813c-33-27.289063-69.425781-42.949219-101.835937-51.898438l.046875.003906c-.050781-.011718-.097656-.019531-.148438-.035156-9.957031-2.746094-19.542968-4.871094-28.527343-6.492187v-.003907c-.035157-.003906-.066407-.007812-.101563-.015624-5.300781-.953126-10.375-1.726563-15.214844-2.371094-39.421874-6.574219-64.183593-6.832032-64.183593-6.832032l.085937.011719c-51.339844-3.328125-80.824218.78125-80.824218.78125s-63.757813 5.816407-74.65625 42.289063c-1.023438 3.425781-4.105469 5.816406-7.679688 5.816406h-54.019531c-4.5625 0-8.261719 3.695312-8.261719 8.261719v21.214843c0 4.550782 3.691406 8.242188 8.242188 8.242188h15.5625v-9.683594c0-4.550781 3.691406-8.246094 8.246093-8.246094h60.480469c5.476562-41.679687 75.894531-48.097656 75.894531-48.097656 2.007813-.128906 4.179688-.25 6.511719-.351562.003906 0 40.5-3.292969 113.550781 4.039062.070313.003906.136719.007813.207031.015625 10.785157.597657 24.449219 1.929688 39.867188 4.707031.035156.003907.066406.007813.101562.011719l-.003906.003907c34.960938 6.3125 78.972656 20.085937 119.261719 49.699218zm0 0"/></g><path d="m182.511719 29.742188c0 6.628906-5.375 12-12 12-6.628907 0-12-5.371094-12-12 0-6.628907 5.371093-12 12-12 6.625 0 12 5.371093 12 12zm0 0" fill="#8c4c17"/></svg>