<svg height="480pt" viewBox="-60 0 480 480" width="480pt" xmlns="http://www.w3.org/2000/svg"><path d="m360 480h-360v-35.050781c0-65.800781 53.339844-119.136719 119.136719-119.136719h121.726562c65.796875 0 119.132813 53.339844 119.132813 119.136719v35.050781zm0 0" fill="#ffeacf"/><path d="m60 460.949219c0-65.800781 53.339844-119.136719 119.136719-119.136719h121.332031c-17.535156-10.160156-37.882812-16-59.605469-16h-121.726562c-65.796875 0-119.136719 53.335938-119.136719 119.136719v35.050781h60zm0 0" fill="#ffd59a"/><path d="m124.304688 325.8125h-39.703126c-2.316406 0-4.144531 1.953125-3.988281 4.265625 1.117188 16.695313 1.914063 78.050781-43.476562 105.765625-1.195313.730469-1.953125 2.015625-1.953125 3.421875v36.734375c0 2.210938 1.789062 4 4 4h135.5c2.210937 0 4-1.789062 4-4v-49.992188c0-.871093-.285156-1.71875-.808594-2.410156l-47.511719-62.851562c-1.019531-1.351563-1.585937-2.992188-1.617187-4.6875l-.445313-26.316406c-.03125-2.179688-1.8125-3.929688-3.996093-3.929688zm0 0" fill="#ffa730"/><path d="m75.183594 476v-36.734375c0-1.40625.757812-2.691406 1.953125-3.417969 45.390625-27.71875 44.59375-89.070312 43.476562-105.769531-.152343-2.261719 1.597657-4.167969 3.84375-4.25-.054687 0-.101562-.015625-.152343-.015625h-39.703126c-2.316406 0-4.144531 1.957031-3.988281 4.265625 1.117188 16.699219 1.914063 78.054687-43.476562 105.769531-1.195313.730469-1.953125 2.011719-1.953125 3.417969v36.734375c0 2.207031 1.792968 4 4 4h40c-2.207032 0-4-1.792969-4-4zm0 0" fill="#e58d23"/><path d="m128.695312 225.335938v140.84375h-.265624l55.121093 69.714843 55.125-69.714843h.261719v-140.84375zm0 0" fill="#ffeacf"/><path d="m156.695312 261.335938h82.242188v-36h-110.242188v140.84375h-.265624l28.265624 35.75zm0 0" fill="#ffd59a"/><path d="m79.355469 212.710938h41.441406v-143.640626c0-13.453124-10.90625-24.359374-24.359375-24.359374h-17.078125c-13.457031 0-24.363281 10.90625-24.363281 24.359374v119.277344c-.003906 13.457032 10.90625 24.363282 24.359375 24.363282zm0 0" fill="#8c4c17"/><path d="m286.332031 32.363281h-16.757812c-13.542969 0-24.523438 10.746094-24.523438 24v20.898438c26.539063 19.316406 43.734375 50.246093 43.734375 85.101562v37.878907c12.390625-1.203126 22.070313-11.433594 22.070313-23.878907v-120c0-13.253906-10.980469-24-24.523438-24zm0 0" fill="#8c4c17"/><path d="m326.269531 183.472656c0-18.933594-15.6875-34.28125-35.035156-34.28125s-35.03125 15.347656-35.03125 34.28125c0 18.9375 15.683594 34.285156 35.03125 34.285156s35.035156-15.347656 35.035156-34.285156zm0 0" fill="#ffeacf"/><path d="m105.554688 183.878906c0-18.933594-15.683594-34.28125-35.03125-34.28125-19.347657 0-35.03125 15.347656-35.03125 34.28125 0 18.9375 15.683593 34.285156 35.03125 34.285156 19.347656 0 35.03125-15.347656 35.03125-34.285156zm0 0" fill="#ffd59a"/><path d="m186.0625 306.757812h-6.277344c-58.085937 0-105.171875-47.085937-105.171875-105.171874v-56.441407c0-58.085937 47.085938-105.175781 105.171875-105.175781h6.277344c58.085938 0 105.171875 47.089844 105.171875 105.175781v56.441407c0 58.085937-47.085937 105.171874-105.171875 105.171874zm0 0" fill="#ffeacf"/><path d="m112.625 187.683594v-53.011719c0-4.042969.230469-8.035156.675781-11.960937.6875-6.078126 5.976563-10.640626 12.175781-10.640626h159.910157c-14.605469-41.949218-54.960938-72.101562-102.460938-72.101562-4.652343 0-9.230469.296875-13.726562.855469.007812-.003907.015625-.007813.019531-.011719-.34375.046875-.683594.109375-1.03125.152344-1.140625.152344-2.28125.316406-3.410156.503906-.546875.089844-1.089844.195312-1.636719.296875-1 .179687-1.996094.371094-2.988281.582031-.574219.121094-1.144532.25-1.714844.375-.964844.222656-1.925781.457032-2.878906.699219-.5625.144531-1.117188.285156-1.675782.4375-.988281.269531-1.96875.5625-2.945312.859375-.496094.152344-1 .296875-1.492188.453125-1.171874.375-2.332031.777344-3.484374 1.1875-.285157.101563-.574219.195313-.859376.296875-1.433593.53125-2.851562 1.085938-4.253906 1.667969-.367187.152343-.726562.320312-1.089844.476562-1.03125.441407-2.054687.890625-3.0625 1.363281-.507812.234376-1.003906.484376-1.507812.726563-.859375.417969-1.714844.839844-2.5625 1.28125-.535156.277344-1.066406.558594-1.597656.847656-.804688.433594-1.601563.875-2.394532 1.328125-.527343.304688-1.058593.609375-1.582031.921875-.792969.46875-1.578125.957031-2.359375 1.449219-.492187.3125-.988281.621094-1.476562.9375-.859375.5625-1.707032 1.140625-2.550782 1.726562-.386718.269532-.78125.527344-1.164062.800782-1.191406.851562-2.367188 1.722656-3.523438 2.621094-.359374.28125-.703124.574218-1.0625.855468-.804687.644532-1.605468 1.289063-2.394531 1.953125-.46875.398438-.925781.808594-1.390625 1.210938-.65625.574219-1.308594 1.148437-1.949218 1.738281-.484376.445312-.960938.898438-1.441407 1.351562-.601562.570313-1.195312 1.148438-1.78125 1.734376-.476562.476562-.949219.953124-1.414062 1.433593-.574219.59375-1.140625 1.199219-1.699219 1.804688-.453125.488281-.90625.976562-1.347656 1.472656-.574219.648437-1.136719 1.308594-1.699219 1.96875-.398437.472656-.808594.9375-1.195313 1.414063-.820312 1.003906-1.625 2.023437-2.40625 3.054687-.410156.539063-.800781 1.082031-1.199218 1.628906-.546875.75-1.097656 1.5-1.625 2.265625-.390625.5625-.761719 1.132813-1.136719 1.703125-.441406.667969-.882813 1.332031-1.308594 2.007813-.382812.605468-.75 1.21875-1.121093 1.828125-.398438.660156-.789063 1.324219-1.175782 1.992187-.359375.628906-.71875 1.261719-1.066406 1.898438-.367188.675781-.722656 1.355468-1.078125 2.035156-.335937.644531-.671875 1.289062-.992187 1.9375-.347657.707031-.679688 1.425781-1.015626 2.140625-.292968.636719-.601562 1.273437-.882812 1.914063-.386719.871093-.746094 1.75-1.105469 2.632812-.390625.957031-.773437 1.921875-1.136719 2.894531-.300781.796875-.609374 1.589844-.886718 2.394531h.007812c-3.789062 10.878907-5.855468 22.542969-5.855468 34.691407v53.078125c0 58.75 47.578124 107.46875 107.164062 108.074218 19.15625.199219 37.179688-4.511718 52.859375-12.929687-4.730469.585937-9.550781.878906-14.449219.84375-59.753906-.394531-107.566406-49.226563-107.566406-108.144531zm0 0" fill="#ffd59a"/><path d="m250.039062 95.9375h-182.015624c-20.046876 0-36.296876-16.25-36.296876-36.292969v-23.351562c.003907-20.042969 16.25-36.292969 36.296876-36.292969h182.011718c20.042969 0 36.292969 16.25 36.292969 36.292969v23.351562c.003906 20.046875-16.246094 36.292969-36.289063 36.292969zm0 0" fill="#a56021"/><path d="m270.328125 65.644531c-3.3125 0-6-2.6875-6-6v-23.351562c0-7.882813-6.410156-14.292969-14.289063-14.292969-3.316406 0-6-2.6875-6-6s2.683594-6 6-6c14.496094 0 26.289063 11.792969 26.289063 26.292969v23.351562c0 3.3125-2.683594 6-6 6zm0 0" fill="#bf6c0d"/><path d="m135.105469 172.953125c0-7.289063-6.039063-13.199219-13.488281-13.199219-7.449219 0-13.488282 5.910156-13.488282 13.199219 0 7.292969 6.039063 13.199219 13.488282 13.199219 7.449218 0 13.488281-5.90625 13.488281-13.199219zm0 0" fill="#a56021"/><path d="m257.71875 172.953125c0-7.289063-6.039062-13.199219-13.488281-13.199219s-13.488281 5.910156-13.488281 13.199219c0 7.292969 6.039062 13.199219 13.488281 13.199219s13.488281-5.90625 13.488281-13.199219zm0 0" fill="#a56021"/><path d="m95.113281 60.035156v-24.132812c0-19.828125 16.425781-35.902344 36.6875-35.902344h-63.386719c-20.261718 0-36.683593 16.074219-36.683593 35.902344v24.132812c0 19.828125 16.425781 35.902344 36.683593 35.902344h63.386719c-20.261719 0-36.6875-16.074219-36.6875-35.902344zm0 0" fill="#8c4c17"/><path d="m242.835938 325.8125h39.699218c2.320313 0 4.148438 1.953125 3.992188 4.265625-1.121094 16.695313-1.914063 78.050781 43.472656 105.765625 1.199219.730469 1.953125 2.015625 1.953125 3.421875v36.734375c0 2.210938-1.789063 4-4 4h-135.5c-2.210937 0-4-1.789062-4-4v-49.992188c0-.871093.285156-1.71875.8125-2.410156l47.511719-62.851562c1.019531-1.351563 1.585937-2.992188 1.617187-4.6875l.445313-26.316406c.03125-2.179688 1.808594-3.929688 3.996094-3.929688zm0 0" fill="#ffa730"/><path d="m315.949219 451.730469c-1.207031 0-2.421875-.359375-3.476563-1.109375-41.449218-29.519532-48.03125-80.8125-48.265625-108.757813-.027343-3.316406 2.636719-6.023437 5.949219-6.050781 3.292969-.035156 6.023438 2.636719 6.050781 5.949219.214844 25.664062 6.117188 72.65625 43.226563 99.085937 2.699218 1.921875 3.332031 5.667969 1.40625 8.367188-1.167969 1.640625-3.019532 2.515625-4.890625 2.515625zm0 0" fill="#ffb74b"/><path d="m35.183594 463.5h143.5v16.5h-143.5zm0 0" fill="#fff4c1"/><path d="m188.453125 463.5h143.5v16.5h-143.5zm0 0" fill="#fff4c1"/><path d="m156.683594 454v26h10v-16c0-2.210938 1.789062-4 4-4h26c2.210937 0 4 1.789062 4 4v16h10v-26c0-2.210938-1.789063-4-4-4h-46c-2.207032 0-4 1.789062-4 4zm0 0" fill="#ff624b"/><path d="m194.683594 479.75h-24v-12.101562c0-2.15625 1.746094-3.898438 3.898437-3.898438h16.203125c2.152344 0 3.898438 1.746094 3.898438 3.898438zm0 0" fill="#ffc34c"/><path d="m39.183594 480h40c-2.207032 0-3.996094-1.792969-3.996094-4v-12.5h-40v12.5c-.003906 2.207031 1.785156 4 3.996094 4zm0 0" fill="#fce575"/><path d="m180.683594 454c0-2.207031 1.792968-4 4-4h-24c-2.207032 0-4 1.792969-4 4v26h10v-16c0-2.207031 1.792968-4 4-4h10zm0 0" fill="#ff4b34"/><path d="m190.582031 463.75h-16c-2.152343 0-3.898437 1.746094-3.898437 3.898438v12.101562h16v-12.101562c0-2.152344 1.746094-3.898438 3.898437-3.898438zm0 0" fill="#f9bb32"/><path d="m130.75 439.5c0 9.941406-8.058594 18-18 18s-18-8.058594-18-18 8.058594-18 18-18 18 8.058594 18 18zm0 0" fill="#e58d23"/><path d="m145.511719 27.371094c0 9.941406-8.0625 18-18 18-9.941407 0-18-8.058594-18-18s8.058593-18 18-18c9.9375 0 18 8.058594 18 18zm0 0" fill="#8c4c17"/></svg>