<svg height="468pt" viewBox="0 0 468.332 468" width="468pt" xmlns="http://www.w3.org/2000/svg"><path d="m134.769531 7.945312h13.242188v128.132813h-13.242188zm0 0" fill="#ffc34c"/><path d="m194.355469 7.945312h13.242187v128.132813h-13.242187zm0 0" fill="#ffc34c"/><path d="m134.769531 7.945312h6.621094v128.132813h-6.621094zm0 0" fill="#db9c2e"/><path d="m194.355469 7.945312h6.621093v128.132813h-6.621093zm0 0" fill="#db9c2e"/><path d="m217.457031 25.792969h-92.546875c-6.4375 0-11.65625-5.21875-11.65625-11.65625v-2.3125c0-6.4375 5.21875-11.65625 11.65625-11.65625h92.550782c6.4375 0 11.65625 5.21875 11.65625 11.65625v2.3125c0 6.4375-5.222657 11.65625-11.660157 11.65625zm0 0" fill="#a56021"/><path d="m155.320312 44.777344h-27.445312v-9.421875c0-1.796875 1.457031-3.253907 3.253906-3.253907h20.9375c1.796875 0 3.253906 1.457032 3.253906 3.253907zm0 0" fill="#ffdf74"/><path d="m214.492188 44.777344h-27.445313v-9.421875c0-1.796875 1.457031-3.253907 3.253906-3.253907h20.9375c1.796875 0 3.253907 1.457032 3.253907 3.253907zm0 0" fill="#ffdf74"/><path d="m159.597656 12.980469c0-7.078125 5.929688-12.816407 13.242188-12.816407h-46.347656c-7.3125 0-13.238282 5.738282-13.238282 12.816407 0 7.074219 5.925782 12.8125 13.238282 12.8125h46.347656c-7.3125 0-13.242188-5.734375-13.242188-12.8125zm0 0" fill="#8c4c17"/><path d="m144.425781 32.101562h-13.242187c-1.828125 0-3.308594 1.433594-3.308594 3.203126v9.476562h13.242188v-9.476562c0-1.769532 1.480468-3.203126 3.308593-3.203126zm0 0" fill="#ffd551"/><path d="m203.597656 32.101562h-13.242187c-1.828125 0-3.308594 1.433594-3.308594 3.203126v9.476562h13.242187v-9.476562c0-1.769532 1.480469-3.203126 3.308594-3.203126zm0 0" fill="#ffd551"/><path d="m225.964844 312.398438h-.324219c-5.394531 0-9.769531-4.375-9.769531-9.769532v-38.28125h19.863281v38.28125c0 5.394532-4.371094 9.769532-9.769531 9.769532zm0 0" fill="#ffc34c"/><path d="m113.414062 312.398438h-.324218c-5.394532 0-9.769532-4.375-9.769532-9.769532v-38.28125h19.863282v38.28125c0 5.394532-4.375 9.769532-9.769532 9.769532zm0 0" fill="#ffc34c"/><path d="m242.355469 320.148438c0-8.84375-7.410157-16.015626-16.550781-16.015626-9.140626 0-16.550782 7.171876-16.550782 16.015626 0 8.847656 7.410156 16.015624 16.550782 16.015624 9.140624 0 16.550781-7.167968 16.550781-16.015624zm0 0" fill="#bf6c0d"/><path d="m129.804688 320.148438c0-8.84375-7.410157-16.015626-16.550782-16.015626s-16.550781 7.171876-16.550781 16.015626c0 8.847656 7.410156 16.015624 16.550781 16.015624s16.550782-7.167968 16.550782-16.015624zm0 0" fill="#bf6c0d"/><path d="m222.492188 320.148438c0-6.5625 4.089843-12.199219 9.933593-14.671876-2.027343-.859374-4.265625-1.34375-6.621093-1.34375-9.140626 0-16.550782 7.171876-16.550782 16.015626 0 8.847656 7.410156 16.015624 16.550782 16.015624 2.355468 0 4.59375-.480468 6.621093-1.339843-5.84375-2.46875-9.933593-8.105469-9.933593-14.675781zm0 0" fill="#a56021"/><path d="m109.941406 320.148438c0-6.5625 4.089844-12.199219 9.933594-14.671876-2.027344-.859374-4.265625-1.34375-6.621094-1.34375-9.140625 0-16.550781 7.171876-16.550781 16.015626 0 8.847656 7.410156 16.015624 16.550781 16.015624 2.355469 0 4.59375-.480468 6.621094-1.339843-5.84375-2.46875-9.933594-8.105469-9.933594-14.675781zm0 0" fill="#a56021"/><path d="m233.085938 320.148438c0-3.890626-3.261719-7.046876-7.28125-7.046876-4.023438 0-7.28125 3.15625-7.28125 7.046876 0 3.894531 3.257812 7.050781 7.28125 7.050781 4.019531 0 7.28125-3.15625 7.28125-7.050781zm0 0" fill="#ffc34c"/><path d="m120.535156 320.152344c0-3.894532-3.257812-7.046875-7.28125-7.046875-4.023437 0-7.28125 3.152343-7.28125 7.046875 0 3.890625 3.257813 7.046875 7.28125 7.046875 4.023438 0 7.28125-3.15625 7.28125-7.046875zm0 0" fill="#ffc34c"/><path d="m222.492188 320.148438c0-2.441407.566406-4.753907 1.578124-6.824219-3.175781.761719-5.546874 3.519531-5.546874 6.824219 0 3.308593 2.371093 6.066406 5.546874 6.824218-1.007812-2.070312-1.578124-4.378906-1.578124-6.824218zm0 0" fill="#db9c2e"/><path d="m109.941406 320.148438c0-2.441407.570313-4.753907 1.578125-6.824219-3.175781.761719-5.550781 3.519531-5.550781 6.824219 0 3.308593 2.375 6.066406 5.550781 6.824218-1.007812-2.070312-1.578125-4.378906-1.578125-6.824218zm0 0" fill="#db9c2e"/><path d="m251.554688 300.929688h-164.050782c-7.71875 0-13.976562-6.253907-13.976562-13.972657v-228.320312c0-7.714844 6.257812-13.972657 13.976562-13.972657h164.050782c7.71875 0 13.976562 6.257813 13.976562 13.972657v228.320312c-.003906 7.71875-6.257812 13.972657-13.976562 13.972657zm0 0" fill="#ff624b"/><path d="m119.875 287.1875v-228.777344c0-7.59375 6.359375-13.746094 14.203125-13.746094h-46.34375c-7.847656 0-14.203125 6.152344-14.203125 13.746094v228.773438c0 7.59375 6.359375 13.746094 14.203125 13.746094h46.34375c-7.84375 0-14.203125-6.152344-14.203125-13.742188zm0 0" fill="#ff4b34"/><path d="m101.800781 284.648438h-.269531c-4.496094 0-8.140625-3.644532-8.140625-8.140626v-204.746093c0-4.496094 3.644531-8.140625 8.140625-8.140625h.269531c4.496094 0 8.140625 3.644531 8.140625 8.140625v204.746093c0 4.496094-3.644531 8.140626-8.140625 8.140626zm0 0" fill="#ff624b"/><path d="m237.527344 284.648438h-.269532c-4.496093 0-8.140624-3.644532-8.140624-8.140626v-204.746093c0-4.496094 3.644531-8.140625 8.140624-8.140625h.269532c4.496094 0 8.136718 3.644531 8.136718 8.140625v204.746093c0 4.496094-3.640624 8.140626-8.136718 8.140626zm0 0" fill="#ff9079"/><path d="m204.421875 284.648438h-.269531c-4.496094 0-8.140625-3.644532-8.140625-8.140626v-204.746093c0-4.496094 3.644531-8.140625 8.140625-8.140625h.269531c4.496094 0 8.140625 3.644531 8.140625 8.140625v204.746093c0 4.496094-3.644531 8.140626-8.140625 8.140626zm0 0" fill="#ff9079"/><path d="m171.316406 284.648438h-.269531c-4.496094 0-8.140625-3.644532-8.140625-8.140626v-204.746093c0-4.496094 3.644531-8.140625 8.140625-8.140625h.269531c4.496094 0 8.140625 3.644531 8.140625 8.140625v204.746093c.003907 4.496094-3.640625 8.140626-8.140625 8.140626zm0 0" fill="#ff9079"/><path d="m138.214844 284.648438h-.269532c-4.496093 0-8.140624-3.644532-8.140624-8.140626v-204.746093c0-4.496094 3.644531-8.140625 8.140624-8.140625h.269532c4.496094 0 8.140625 3.644531 8.140625 8.140625v204.746093c0 4.496094-3.644531 8.140626-8.140625 8.140626zm0 0" fill="#ff9079"/><g fill="#ff4b34"><path d="m239.046875 276.640625v-205.011719c0-2.613281 1.3125-4.910156 3.308594-6.371094-1.386719-1.015624-3.09375-1.636718-4.964844-1.636718-4.570313 0-8.277344 3.585937-8.277344 8.007812v205.011719c0 4.421875 3.707031 8.007813 8.277344 8.007813 1.871094 0 3.578125-.625 4.964844-1.636719-1.996094-1.464844-3.308594-3.757813-3.308594-6.371094zm0 0"/><path d="m205.941406 276.640625v-205.011719c0-2.613281 1.3125-4.910156 3.3125-6.371094-1.386718-1.015624-3.097656-1.636718-4.96875-1.636718-4.570312 0-8.273437 3.585937-8.273437 8.007812v205.011719c0 4.421875 3.703125 8.007813 8.273437 8.007813 1.871094 0 3.582032-.625 4.96875-1.636719-2-1.464844-3.3125-3.757813-3.3125-6.371094zm0 0"/><path d="m172.839844 276.640625v-205.011719c0-2.613281 1.3125-4.910156 3.308594-6.371094-1.382813-1.015624-3.09375-1.636718-4.964844-1.636718-4.570313 0-8.277344 3.585937-8.277344 8.007812v205.011719c0 4.421875 3.707031 8.007813 8.277344 8.007813 1.871094 0 3.582031-.625 4.964844-1.636719-2-1.464844-3.308594-3.757813-3.308594-6.371094zm0 0"/><path d="m139.734375 276.640625v-205.011719c0-2.613281 1.3125-4.910156 3.3125-6.371094-1.386719-1.015624-3.09375-1.636718-4.96875-1.636718-4.566406 0-8.273437 3.585937-8.273437 8.007812v205.011719c0 4.421875 3.707031 8.007813 8.273437 8.007813 1.875 0 3.582031-.625 4.96875-1.636719-2-1.464844-3.3125-3.757813-3.3125-6.371094zm0 0"/><path d="m103.320312 276.640625v-205.011719c0-2.613281 1.3125-4.910156 3.3125-6.371094-1.386718-1.015624-3.09375-1.636718-4.96875-1.636718-4.566406 0-8.273437 3.585937-8.273437 8.007812v205.011719c0 4.421875 3.707031 8.007813 8.273437 8.007813 1.875 0 3.582032-.625 4.96875-1.636719-2-1.464844-3.3125-3.757813-3.3125-6.371094zm0 0"/></g><path d="m41.386719 51.527344h32v316.246094h-32zm0 0" fill="#ffc34c"/><path d="m72.679688 367.773438v-32h387.785156c4.34375 0 7.867187 3.523437 7.867187 7.867187v16.269531c0 4.34375-3.523437 7.867188-7.867187 7.867188h-387.785156zm0 0" fill="#ffc34c"/><path d="m0 35.527344c0-8.835938 7.164062-16 16-16h49.386719c4.417969 0 8 3.582031 8 8v24h-57.386719c-8.839844 0-16-7.160156-16-16zm0 0" fill="#ffb74b"/><path d="m93.886719 424.519531c-8.835938 0-16-7.164062-16-16v-38h32v38c0 8.835938-7.164063 16-16 16zm0 0" fill="#e58d23"/><path d="m90.375 404.019531v-33.5h-12.488281v33.5c0 11.320313 7.164062 20.5 16 20.5 2.214843 0 4.324219-.578125 6.242187-1.621093-5.734375-3.117188-9.753906-10.394532-9.753906-18.878907zm0 0" fill="#bf6c0d"/><path d="m361.886719 424.519531c-8.835938 0-16-7.164062-16-16v-38h32v38c0 8.835938-7.164063 16-16 16zm0 0" fill="#e58d23"/><path d="m358.375 404.019531v-33.5h-12.488281v33.5c0 11.320313 7.164062 20.5 16 20.5 2.214843 0 4.324219-.578125 6.242187-1.621093-5.734375-3.117188-9.753906-10.394532-9.753906-18.878907zm0 0" fill="#bf6c0d"/><path d="m41.386719 391.308594v-23.535156h384v23.535156c0 4.730468-3.835938 8.566406-8.566407 8.566406h-366.867187c-4.730469 0-8.566406-3.832031-8.566406-8.566406zm0 0" fill="#a56021"/><path d="m123.886719 438.457031c0 16.566407-13.433594 30-30 30-16.570313 0-30-13.433593-30-30 0-16.570312 13.429687-30 30-30 16.566406 0 30 13.429688 30 30zm0 0" fill="#bf6c0d"/><path d="m391.886719 438.457031c0 16.566407-13.433594 30-30 30-16.570313 0-30-13.433593-30-30 0-16.570312 13.429687-30 30-30 16.566406 0 30 13.429688 30 30zm0 0" fill="#bf6c0d"/><path d="m79.886719 438.457031c0-13.796875 9.320312-25.382812 22-28.890625-2.550781-.703125-5.226563-1.109375-8-1.109375-16.570313 0-30 13.429688-30 30 0 16.566407 13.429687 30 30 30 2.773437 0 5.449219-.410156 8-1.113281-12.679688-3.503906-22-15.09375-22-28.886719zm0 0" fill="#a56021"/><path d="m347.886719 438.457031c0-13.796875 9.320312-25.382812 22-28.890625-2.550781-.703125-5.226563-1.109375-8-1.109375-16.570313 0-30 13.429688-30 30 0 16.566407 13.429687 30 30 30 2.773437 0 5.449219-.410156 8-1.113281-12.679688-3.503906-22-15.09375-22-28.886719zm0 0" fill="#a56021"/><path d="m109.484375 438.457031c0 8.613281-6.984375 15.597657-15.597656 15.597657-8.617188 0-15.601563-6.984376-15.601563-15.597657 0-8.617187 6.984375-15.601562 15.601563-15.601562 8.613281 0 15.597656 6.984375 15.597656 15.601562zm0 0" fill="#ffc34c"/><path d="m377.484375 438.457031c0 8.613281-6.984375 15.597657-15.597656 15.597657-8.617188 0-15.601563-6.984376-15.601563-15.597657 0-8.617187 6.984375-15.601562 15.601563-15.601562 8.613281 0 15.597656 6.984375 15.597656 15.601562zm0 0" fill="#ffc34c"/><path d="m90.285156 438.457031c0-6.476562 3.96875-12.042969 9.601563-14.398437-1.847657-.773438-3.875-1.203125-6-1.203125-8.601563 0-15.601563 7-15.601563 15.601562 0 8.597657 7 15.597657 15.601563 15.597657 2.125 0 4.152343-.429688 6-1.203126-5.628907-2.355468-9.601563-7.917968-9.601563-14.394531zm0 0" fill="#db9c2e"/><path d="m358.285156 438.457031c0-6.476562 3.96875-12.042969 9.601563-14.398437-1.847657-.773438-3.875-1.203125-6-1.203125-8.601563 0-15.601563 7-15.601563 15.601562 0 8.597657 7 15.597657 15.601563 15.597657 2.125 0 4.152343-.429688 6-1.203126-5.628907-2.355468-9.601563-7.917968-9.601563-14.394531zm0 0" fill="#db9c2e"/><path d="m97.386719 391.308594v-23.535156h-56v23.535156c0 4.734375 3.835937 8.566406 8.566406 8.566406h56c-4.730469.003906-8.566406-3.832031-8.566406-8.566406zm0 0" fill="#8c4c17"/><path d="m72.679688 335.773438h56v32h-56zm0 0" fill="#db9c2e"/><path d="m41.386719 51.527344h16v316.246094h-16zm0 0" fill="#db9c2e"/><path d="m24 35.527344c0-8.835938 7.164062-16 16-16h-24c-8.835938 0-16 7.164062-16 16 0 8.835937 7.164062 16 16 16h24c-8.839844 0-16-7.160156-16-16zm0 0" fill="#ffa730"/><path d="m444.542969 353.519531h-126.671875c-3.3125 0-6-2.683593-6-6 0-3.3125 2.6875-6 6-6h126.671875c3.3125 0 6 2.6875 6 6 0 3.316407-2.683594 6-6 6zm0 0" fill="#ffd551"/><path d="m373.667969 130.550781h-56.34375c-4.445313 0-8.046875 3.980469-8.046875 8.890625v35.558594h13.414062v-26.519531c0-1.71875 1.203125-3.113281 2.683594-3.113281h40.242188c1.484374 0 2.683593 1.394531 2.683593 3.113281v26.519531h13.414063v-35.558594c.003906-4.910156-3.601563-8.890625-8.046875-8.890625zm0 0" fill="#a56021"/><path d="m325.375 139.441406c0-4.910156 3.605469-8.890625 8.050781-8.890625h-16.101562c-4.445313 0-8.046875 3.980469-8.046875 8.890625v35.558594h13.414062v-26.519531c0-1.71875 1.203125-3.113281 2.683594-3.113281zm0 0" fill="#8c4c17"/><path d="m444.1875 335.117188h-197.824219c-6.125 0-11.085937-4.964844-11.085937-11.089844v-146.828125c0-6.125 4.960937-11.089844 11.085937-11.089844h197.824219c6.121094 0 11.085938 4.964844 11.085938 11.089844v146.828125c0 6.125-4.964844 11.089844-11.085938 11.089844zm0 0" fill="#ffa730"/><path d="m444.542969 332.035156c-3.316407 0-6-2.6875-6-6v-88.902344c0-3.3125 2.683593-6 6-6 3.3125 0 6 2.6875 6 6v88.902344c0 3.3125-2.683594 6-6 6zm0 0" fill="#ffb74b"/><path d="m272.835938 323.460938v-145.699219c0-6.4375 4.722656-11.652344 10.550781-11.652344h-37.558594c-5.828125 0-10.550781 5.214844-10.550781 11.652344v145.699219c0 6.4375 4.722656 11.65625 10.550781 11.65625h37.558594c-5.828125 0-10.550781-5.21875-10.550781-11.65625zm0 0" fill="#e58d23"/><path d="m283.316406 336.550781h-18.507812c-1.554688 0-2.820313-1.261719-2.820313-2.820312v-166.234375c0-1.558594 1.265625-2.820313 2.820313-2.820313h18.507812c1.558594 0 2.820313 1.261719 2.820313 2.820313v166.234375c0 1.554687-1.261719 2.820312-2.820313 2.820312zm0 0" fill="#bf6c0d"/><path d="m425.515625 336.550781h-18.507813c-1.558593 0-2.820312-1.261719-2.820312-2.820312v-166.234375c0-1.558594 1.261719-2.820313 2.820312-2.820313h18.507813c1.554687 0 2.820313 1.261719 2.820313 2.820313v166.234375c-.003907 1.554687-1.265626 2.820312-2.820313 2.820312zm0 0" fill="#bf6c0d"/><path d="m382.113281 289.753906h-42.378906c-3.113281 0-5.640625-2.523437-5.640625-5.640625v-18.351562c0-3.117188 2.523438-5.640625 5.640625-5.640625h42.378906c3.113281 0 5.640625 2.523437 5.640625 5.640625v18.351562c0 3.117188-2.527344 5.640625-5.640625 5.640625zm0 0" fill="#fcda4f"/><path d="m272.835938 324.699219v-148.171875c0-6.546875 4.722656-11.851563 10.550781-11.851563h-18.710938c-1.480469 0-2.683593 1.328125-2.683593 2.964844v165.945313c0 1.636718 1.203124 2.964843 2.683593 2.964843h18.710938c-5.828125 0-10.550781-5.308593-10.550781-11.851562zm0 0" fill="#a56021"/><path d="m290.160156 228.019531h-32.195312c-1.480469 0-2.679688 1.324219-2.679688 2.960938v29.636719c0 1.636718 1.199219 2.960937 2.679688 2.960937h32.195312c1.484375 0 2.683594-1.324219 2.683594-2.960937v-29.636719c.003906-1.632813-1.199219-2.960938-2.683594-2.960938zm-6.703125 23.707031c0 1.636719-1.203125 2.964844-2.683593 2.964844h-13.414063c-1.480469 0-2.679687-1.328125-2.679687-2.964844v-11.855468c0-1.636719 1.199218-2.964844 2.679687-2.964844h13.414063c1.484374 0 2.683593 1.328125 2.683593 2.964844zm0 0" fill="#a56021"/><path d="m271.382812 260.617188v-5.925782h-4.023437c-1.484375 0-2.683594-1.328125-2.683594-2.964844v-11.855468c0-1.636719 1.203125-2.964844 2.683594-2.964844h4.023437v-5.925781c0-1.632813 1.203126-2.960938 2.679688-2.960938h-16.097656c-1.480469 0-2.679688 1.324219-2.679688 2.960938v29.636719c0 1.636718 1.199219 2.960937 2.679688 2.960937h16.097656c-1.480469 0-2.679688-1.324219-2.679688-2.960937zm0 0" fill="#8c4c17"/><path d="m334.097656 266.046875v16.378906c2.921875 1.828125 6.292969 2.882813 9.890625 2.882813 11.113281 0 20.121094-9.949219 20.121094-22.222656 0-1.011719-.082031-1.992188-.199219-2.964844h-24.449218c-2.964844 0-5.363282 2.65625-5.363282 5.925781zm0 0" fill="#eacf32"/><path d="m361.425781 257.15625c0-12.273438-9.007812-22.222656-20.121093-22.222656-11.113282 0-20.121094 9.949218-20.121094 22.222656 0 12.277344 9.007812 22.226562 20.121094 22.226562 11.113281 0 20.121093-9.949218 20.121093-22.226562zm0 0" fill="#ff624b"/><path d="m337.28125 257.15625c0-9.109375 4.96875-16.929688 12.074219-20.363281-2.46875-1.191407-5.1875-1.859375-8.050781-1.859375-11.113282 0-20.121094 9.949218-20.121094 22.222656s9.007812 22.222656 20.121094 22.222656c2.867187 0 5.582031-.667968 8.050781-1.859375-7.105469-3.429687-12.074219-11.25-12.074219-20.363281zm0 0" fill="#ff4b34"/><path d="m414.917969 333.585938v-165.945313c0-1.636719 1.203125-2.964844 2.683593-2.964844h-10.734374c-1.480469 0-2.679688 1.328125-2.679688 2.964844v165.945313c0 1.636718 1.199219 2.964843 2.679688 2.964843h10.734374c-1.480468 0-2.683593-1.328125-2.683593-2.964843zm0 0" fill="#a56021"/><path d="m432.359375 228.019531h-32.199219c-1.480468 0-2.679687 1.324219-2.679687 2.960938v29.636719c0 1.636718 1.203125 2.960937 2.679687 2.960937h32.199219c1.480469 0 2.679687-1.324219 2.679687-2.960937v-29.636719c0-1.632813-1.199218-2.960938-2.679687-2.960938zm-6.710937 23.707031c0 1.636719-1.199219 2.964844-2.679688 2.964844h-13.414062c-1.484376 0-2.683594-1.328125-2.683594-2.964844v-11.855468c0-1.636719 1.203125-2.964844 2.683594-2.964844h13.414062c1.480469 0 2.679688 1.328125 2.679688 2.964844zm0 0" fill="#a56021"/><path d="m413.574219 260.617188v-5.925782h-4.023438c-1.480469 0-2.679687-1.328125-2.679687-2.964844v-11.855468c0-1.636719 1.199218-2.964844 2.679687-2.964844h4.023438v-5.925781c0-1.632813 1.203125-2.960938 2.683593-2.960938h-16.097656c-1.480468 0-2.683594 1.324219-2.683594 2.960938v29.636719c0 1.636718 1.203126 2.960937 2.683594 2.960937h16.097656c-1.480468 0-2.683593-1.324219-2.683593-2.960937zm0 0" fill="#8c4c17"/><path d="m327.277344 193.199219c0 9.941406-8.058594 18-18 18s-18-8.058594-18-18c0-9.941407 8.058594-18 18-18s18 8.058593 18 18zm0 0" fill="#e58d23"/></svg>