<svg height="480pt" viewBox="-4 0 480 480.112" width="480pt" xmlns="http://www.w3.org/2000/svg"><path d="m462.054688 296h-188c-5.519532 0-10-4.476562-10-10v-276c0-5.523438 4.480468-10 10-10h188c5.523437 0 10 4.476562 10 10v276c0 5.523438-4.476563 10-10 10zm0 0" fill="#fff4c1"/><path d="m320.054688 286v-276c0-5.523438 4.480468-10 10-10h-56c-5.519532 0-10 4.476562-10 10v276c0 5.523438 4.480468 10 10 10h56c-5.519532 0-10-4.476562-10-10zm0 0" fill="#fce575"/><path d="m299.128906 16h-6.148437c-.703125 0-1.335938.433594-1.574219 1.078125l-11.253906 30.761719c-.382813 1.054687.421875 2.160156 1.574218 2.160156h5.71875c.710938 0 1.34375-.4375 1.578126-1.085938l1.445312-4.023437c.234375-.652344.867188-1.085937 1.578125-1.085937h7.976563c.710937 0 1.34375.433593 1.578124 1.085937l1.445313 4.023437c.234375.648438.867187 1.085938 1.578125 1.085938h5.761719c1.152343 0 1.957031-1.105469 1.574219-2.160156l-11.257813-30.761719c-.238281-.644531-.867187-1.078125-1.574219-1.078125zm-4.753906 17.957031.089844-.25c.523437-1.445312 2.636718-1.441406 3.152344.003907l.089843.25c.378907 1.054687-.429687 2.152343-1.578125 2.152343h-.175781c-1.152344 0-1.957031-1.101562-1.578125-2.15625zm0 0" fill="#ff4b34"/><path d="m443.128906 244h-6.148437c-.703125 0-1.335938.433594-1.574219 1.078125l-11.253906 30.761719c-.382813 1.054687.421875 2.160156 1.574218 2.160156h5.71875c.710938 0 1.34375-.4375 1.578126-1.085938l1.445312-4.023437c.234375-.652344.867188-1.085937 1.578125-1.085937h7.976563c.710937 0 1.34375.433593 1.578124 1.085937l1.445313 4.023437c.234375.648438.867187 1.085938 1.578125 1.085938h5.761719c1.152343 0 1.957031-1.105469 1.574219-2.160156l-11.257813-30.761719c-.238281-.644531-.867187-1.078125-1.574219-1.078125zm-4.753906 17.957031.089844-.25c.523437-1.445312 2.636718-1.441406 3.152344.003907l.089843.25c.378907 1.054687-.429687 2.152343-1.578125 2.152343h-.175781c-1.152344 0-1.957031-1.101562-1.578125-2.15625zm0 0" fill="#ff624b"/><path d="m364.90625 91.496094-45.898438 55.84375c-1.269531 1.542968-1.269531 3.78125 0 5.320312l45.898438 55.84375c1.640625 1.992188 4.660156 1.992188 6.300781 0l45.902344-55.84375c1.265625-1.542968 1.265625-3.78125 0-5.320312l-45.90625-55.84375c-1.636719-1.992188-4.65625-1.992188-6.296875 0zm0 0" fill="#ff624b"/><path d="m332.054688 384h-192c-4.417969 0-8-3.582031-8-8v-280c0-4.417969 3.582031-8 8-8h192c4.417968 0 8 3.582031 8 8v280c0 4.417969-3.582032 8-8 8zm0 0" fill="#ffdf74"/><path d="m188.054688 376v-280c0-4.417969 3.582031-8 8-8h-56c-4.417969 0-8 3.582031-8 8v280c0 4.417969 3.582031 8 8 8h56c-4.417969 0-8-3.582031-8-8zm0 0" fill="#ffd551"/><path d="m289.511719 228.808594c-.289063-.804688-.613281-1.585938-.949219-2.359375l.085938-.042969s-12.121094-33.96875-52.25-50.480469c-.121094.230469-.222657.460938-.34375.691407-.117188-.230469-.226563-.460938-.347657-.691407-40.128906 16.511719-52.246093 50.480469-52.246093 50.480469l.085937.042969c-.339844.773437-.660156 1.554687-.949219 2.359375-6.472656 17.988281 1.761719 37.53125 18.386719 43.65625 6.890625 2.539062 14.132813 2.355468 20.71875.011718l-3.296875 20.597657c-.25 1.574219.964844 3 2.558594 3h30.171875c1.59375 0 2.808593-1.425781 2.558593-3l-3.296874-20.597657c6.585937 2.34375 13.828124 2.527344 20.71875-.011718 16.628906-6.125 24.863281-25.671875 18.394531-43.65625zm0 0" fill="#a56021"/><path d="m167.128906 104h-6.148437c-.703125 0-1.335938.433594-1.574219 1.078125l-11.253906 30.761719c-.382813 1.054687.421875 2.160156 1.574218 2.160156h5.71875c.710938 0 1.34375-.4375 1.578126-1.085938l1.445312-4.023437c.234375-.652344.867188-1.085937 1.578125-1.085937h7.976563c.710937 0 1.34375.433593 1.578124 1.085937l1.445313 4.023437c.234375.648438.867187 1.085938 1.578125 1.085938h5.761719c1.152343 0 1.957031-1.105469 1.574219-2.160156l-11.257813-30.761719c-.238281-.644531-.867187-1.078125-1.574219-1.078125zm-4.753906 17.957031.089844-.25c.523437-1.445312 2.636718-1.441406 3.152344.003907l.089843.25c.378907 1.054687-.429687 2.152343-1.578125 2.152343h-.175781c-1.152344 0-1.957031-1.101562-1.578125-2.15625zm0 0" fill="#8c4c17"/><path d="m311.128906 332h-6.148437c-.703125 0-1.335938.433594-1.574219 1.078125l-11.253906 30.761719c-.382813 1.054687.421875 2.160156 1.574218 2.160156h5.71875c.710938 0 1.34375-.4375 1.578126-1.085938l1.445312-4.023437c.234375-.652344.867188-1.085937 1.578125-1.085937h7.976563c.710937 0 1.34375.433593 1.578124 1.085937l1.445313 4.023437c.234375.648438.867187 1.085938 1.578125 1.085938h5.761719c1.152343 0 1.957031-1.105469 1.574219-2.160156l-11.257813-30.761719c-.238281-.644531-.867187-1.078125-1.574219-1.078125zm-4.753906 17.957031.089844-.25c.523437-1.445312 2.636718-1.441406 3.152344.003907l.089843.25c.378907 1.054687-.429687 2.152343-1.578125 2.152343h-.175781c-1.152344 0-1.957031-1.101562-1.578125-2.15625zm0 0" fill="#a56021"/><path d="m200.054688 480.113281h-192c-4.417969 0-8.0000005-3.582031-8.0000005-8v-280c0-4.417969 3.5820315-8 8.0000005-8h192c4.417968 0 8 3.582031 8 8v280c0 4.417969-3.582032 8-8 8zm0 0" fill="#fff4c1"/><g fill="#ff624b"><path d="m35.128906 200.113281h-6.148437c-.703125 0-1.335938.429688-1.574219 1.078125l-11.253906 30.761719c-.382813 1.054687.421875 2.160156 1.574218 2.160156h5.71875c.710938 0 1.34375-.4375 1.578126-1.085937l1.445312-4.023438c.234375-.652344.867188-1.089844 1.578125-1.089844h7.976563c.710937 0 1.34375.4375 1.578124 1.089844l1.445313 4.023438c.234375.648437.867187 1.085937 1.578125 1.085937h5.761719c1.152343 0 1.957031-1.105469 1.574219-2.160156l-11.257813-30.761719c-.238281-.648437-.867187-1.078125-1.574219-1.078125zm-4.753906 17.957031.089844-.25c.523437-1.449218 2.636718-1.445312 3.152344.003907l.089843.25c.378907 1.050781-.429687 2.148437-1.578125 2.148437h-.175781c-1.152344 0-1.957031-1.101562-1.578125-2.152344zm0 0"/><path d="m179.128906 428.113281h-6.148437c-.703125 0-1.335938.429688-1.574219 1.078125l-11.253906 30.761719c-.382813 1.054687.421875 2.160156 1.574218 2.160156h5.71875c.710938 0 1.34375-.4375 1.578126-1.085937l1.445312-4.023438c.234375-.652344.867188-1.089844 1.578125-1.089844h7.976563c.710937 0 1.34375.4375 1.578124 1.089844l1.445313 4.023438c.234375.648437.867187 1.085937 1.578125 1.085937h5.761719c1.152343 0 1.957031-1.105469 1.574219-2.160156l-11.257813-30.761719c-.238281-.648437-.867187-1.078125-1.574219-1.078125zm-4.753906 17.957031.089844-.25c.523437-1.449218 2.636718-1.445312 3.152344.003907l.089843.25c.378907 1.050781-.429687 2.148437-1.578125 2.148437h-.175781c-1.152344 0-1.957031-1.101562-1.578125-2.152344zm0 0"/><path d="m141.855469 280.136719c-13.535157-5.074219-28.347657-.296875-37.800781 10.847656-9.449219-11.144531-24.265626-15.925781-37.796876-10.847656-17.921874 6.722656-26.796874 28.179687-19.824218 47.925781.3125.882812.660156 1.742188 1.023437 2.585938l-.09375.046874s13.066407 37.289063 56.320313 55.417969c.128906-.257812.242187-.507812.371094-.761719.128906.253907.242187.503907.371093.761719 43.253907-18.128906 56.316407-55.417969 56.316407-55.417969l-.09375-.046874c.367187-.84375.714843-1.703126 1.027343-2.585938 6.972657-19.746094-1.902343-41.203125-19.820312-47.925781zm0 0"/></g><path d="m200.054688 480.113281h-192c-4.417969 0-8.0000005-3.582031-8.0000005-8v-280c0-4.417969 3.5820315-8 8.0000005-8h192c4.417968 0 8 3.582031 8 8v280c0 4.417969-3.582032 8-8 8zm0 0" fill="#fff4c1"/><path d="m192.054688 322c-3.3125 0-6-2.6875-6-6v-120c0-3.3125 2.6875-6 6-6 3.316406 0 6 2.6875 6 6v120c0 3.3125-2.683594 6-6 6zm0 0" fill="#fcf9de"/><path d="m179.128906 428.113281h-6.148437c-.703125 0-1.335938.429688-1.574219 1.078125l-11.253906 30.761719c-.382813 1.054687.421875 2.160156 1.574218 2.160156h5.71875c.710938 0 1.34375-.4375 1.578126-1.085937l1.445312-4.023438c.234375-.652344.867188-1.089844 1.578125-1.089844h7.976563c.710937 0 1.34375.4375 1.578124 1.089844l1.445313 4.023438c.234375.648437.867187 1.085937 1.578125 1.085937h5.761719c1.152343 0 1.957031-1.105469 1.574219-2.160156l-11.257813-30.761719c-.238281-.648437-.867187-1.078125-1.574219-1.078125zm-4.753906 17.957031.089844-.25c.523437-1.449218 2.636718-1.445312 3.152344.003907l.089843.25c.378907 1.050781-.429687 2.148437-1.578125 2.148437h-.175781c-1.152344 0-1.957031-1.101562-1.578125-2.152344zm0 0" fill="#ff624b"/><path d="m56.054688 472.113281v-280c0-4.417969 3.582031-8 8-8h-56c-4.417969 0-8.0000005 3.582031-8.0000005 8v280c0 4.417969 3.5820315 8 8.0000005 8h56c-4.417969 0-8-3.582031-8-8zm0 0" fill="#fce575"/><path d="m35.128906 200.113281h-6.148437c-.703125 0-1.335938.429688-1.574219 1.078125l-11.253906 30.761719c-.382813 1.054687.421875 2.160156 1.574218 2.160156h5.71875c.710938 0 1.34375-.4375 1.578126-1.085937l1.445312-4.023438c.234375-.652344.867188-1.089844 1.578125-1.089844h7.976563c.710937 0 1.34375.4375 1.578124 1.089844l1.445313 4.023438c.234375.648437.867187 1.085937 1.578125 1.085937h5.761719c1.152343 0 1.957031-1.105469 1.574219-2.160156l-11.257813-30.761719c-.238281-.648437-.867187-1.078125-1.574219-1.078125zm-4.753906 17.957031.089844-.25c.523437-1.449218 2.636718-1.445312 3.152344.003907l.089843.25c.378907 1.050781-.429687 2.148437-1.578125 2.148437h-.175781c-1.152344 0-1.957031-1.101562-1.578125-2.152344zm0 0" fill="#ff4b34"/><path d="m141.855469 280.136719c-13.535157-5.074219-28.347657-.296875-37.800781 10.847656-9.449219-11.144531-24.265626-15.925781-37.796876-10.847656-17.921874 6.722656-26.796874 28.179687-19.824218 47.925781.3125.882812.660156 1.742188 1.023437 2.585938l-.09375.046874s13.066407 37.289063 56.320313 55.417969c.128906-.257812.242187-.507812.371094-.761719.128906.253907.242187.503907.371093.761719 43.253907-18.128906 56.316407-55.417969 56.316407-55.417969l-.09375-.046874c.367187-.84375.714843-1.703126 1.027343-2.585938 6.972657-19.746094-1.902343-41.203125-19.820312-47.925781zm0 0" fill="#ff624b"/><path d="m324.054688 230c-3.3125 0-6-2.6875-6-6v-120c0-3.3125 2.6875-6 6-6 3.316406 0 6 2.6875 6 6v120c0 3.3125-2.683594 6-6 6zm0 0" fill="#fff4c1"/><path d="m456.054688 138c-3.3125 0-6-2.6875-6-6v-120c0-3.3125 2.6875-6 6-6 3.316406 0 6 2.6875 6 6v120c0 3.3125-2.683594 6-6 6zm0 0" fill="#fcf9de"/><path d="m100.054688 455c0 9.941406-8.058594 18-18 18-9.941407 0-18-8.058594-18-18s8.058593-18 18-18c9.941406 0 18 8.058594 18 18zm0 0" fill="#fce575"/><path d="m46.4375 328.058594c.308594.886718.660156 1.742187 1.023438 2.589844l-.09375.046874s2.441406 6.953126 8.6875 16.3125v-60.628906c-10.769532 9.65625-15.09375 26.179688-9.617188 41.679688zm0 0" fill="#ff4b34"/><path d="m366.273438 25.886719c0 9.941406-8.058594 18-18 18-9.941407 0-18-8.058594-18-18 0-9.941407 8.058593-18 18-18 9.941406 0 18 8.058593 18 18zm0 0" fill="#fce575"/></svg>