<svg height="480pt" viewBox="0 -10 480.00009 480" width="480pt" xmlns="http://www.w3.org/2000/svg"><path d="m338.976562 134.074219 115.253907 14.410156c24.164062 3.023437 34.371093 32.277344 17.277343 49.535156l-81.652343 82.433594c-6.78125 6.847656-9.746094 16.574219-7.929688 26.015625l21.863281 113.691406c4.582032 23.8125-20.285156 42.503906-42.066406 31.628906l-103.761718-51.804687c-8.660157-4.324219-18.90625-4.125-27.390626.53125l-101.65625 55.78125c-21.339843 11.710937-46.921874-6.007813-43.273437-29.980469l17.410156-114.445312c1.449219-9.503906-1.894531-19.113282-8.941406-25.691406l-84.808594-79.207032c-17.75-16.582031-8.699219-46.210937 15.328125-50.164062l114.613282-18.863282c9.546874-1.574218 17.710937-7.722656 21.820312-16.441406l49.339844-104.675781c10.351562-21.957031 41.535156-22.5625 52.738281-1.015625l53.382813 102.679688c4.453124 8.554687 12.847656 14.382812 22.453124 15.582031zm0 0" fill="#ffa730"/><path d="m388.074219 429.183594c-2.820313 0-5.335938-1.992188-5.886719-4.867188l-21.867188-113.695312c-.625-3.253906 1.503907-6.398438 4.757813-7.023438 3.257813-.628906 6.402344 1.503906 7.023437 4.757813l21.871094 113.695312c.625 3.253907-1.507812 6.402344-4.761718 7.023438-.378907.078125-.761719.109375-1.136719.109375zm0 0" fill="#ffb74b"/><path d="m141.640625 426.320312 17.410156-114.445312c1.449219-9.503906-1.894531-19.113281-8.941406-25.691406l-84.808594-79.207032c-17.75-16.582031-8.699219-46.210937 15.328125-50.164062l114.613282-18.867188c9.550781-1.570312 17.710937-7.71875 21.820312-16.4375l48.039062-101.921874-1.960937-3.773438c-11.203125-21.542969-42.386719-20.941406-52.738281 1.019531l-49.339844 104.675781c-4.109375 8.71875-12.269531 14.867188-21.820312 16.4375l-114.613282 18.867188c-24.027344 3.953125-33.078125 33.582031-15.324218 50.164062l84.804687 79.207032c7.046875 6.582031 10.390625 16.1875 8.945313 25.691406l-17.414063 114.445312c-3.644531 23.972657 21.933594 41.6875 43.273437 29.980469l17.246094-9.464843c-3.804687-5.664063-5.699218-12.757813-4.519531-20.515626zm0 0" fill="#e58d23"/><g fill="#ffd59a"><path d="m280 230c0 22.09375-17.90625 40-40 40-22.089844 0-40-17.90625-40-40 0-22.089844 17.910156-40 40-40 22.09375 0 40 17.910156 40 40zm0 0"/><path d="m254 157c0 7.734375-6.265625 14-14 14-7.730469 0-14-6.265625-14-14 0-7.730469 6.269531-14 14-14 7.734375 0 14 6.269531 14 14zm0 0"/><path d="m252 113c0 6.628906-5.371094 12-12 12-6.625 0-12-5.371094-12-12 0-6.625 5.375-12 12-12 6.628906 0 12 5.375 12 12zm0 0"/><path d="m250 73c0 5.523438-4.476562 10-10 10s-10-4.476562-10-10c0-5.519531 4.476562-10 10-10s10 4.480469 10 10zm0 0"/><path d="m248 37c0 4.417969-3.582031 8-8 8s-8-3.582031-8-8 3.582031-8 8-8 8 3.582031 8 8zm0 0"/><path d="m180.835938 223.886719c0 7.730469-6.269532 14-14 14-7.734376 0-14-6.269531-14-14 0-7.734375 6.265624-14 14-14 7.730468 0 14 6.265625 14 14zm0 0"/><path d="m136.332031 212.496094c0 6.628906-5.371093 12-12 12-6.625 0-12-5.371094-12-12 0-6.625 5.375-12 12-12 6.628907 0 12 5.375 12 12zm0 0"/><path d="m95.695312 202.144531c0 5.523438-4.476562 10-10 10-5.519531 0-10-4.476562-10-10 0-5.523437 4.480469-10 10-10 5.523438 0 10 4.476563 10 10zm0 0"/><path d="m58.921875 192.824219c0 4.417969-3.582031 8-8 8s-8-3.582031-8-8 3.582031-8 8-8 8 3.582031 8 8zm0 0"/><path d="m211.457031 295.441406c0 7.730469-6.269531 14-14 14s-14-6.269531-14-14c0-7.730468 6.269531-14 14-14s14 6.269532 14 14zm0 0"/><path d="m187.457031 333.546875c0 6.628906-5.371093 12-12 12-6.628906 0-12-5.371094-12-12 0-6.625 5.371094-12 12-12 6.628907 0 12 5.375 12 12zm0 0"/><path d="m165.457031 368.1875c0 5.523438-4.476562 10-10 10-5.523437 0-10-4.476562-10-10s4.476563-10 10-10c5.523438 0 10 4.476562 10 10zm0 0"/><path d="m145.457031 399.367188c0 4.417968-3.582031 8-8 8s-8-3.582032-8-8c0-4.421876 3.582031-8 8-8s8 3.578124 8 8zm0 0"/><path d="m298.164062 296.894531c0 7.734375-6.269531 14-14 14-7.734374 0-14-6.265625-14-14 0-7.730469 6.265626-14 14-14 7.730469 0 14 6.269531 14 14zm0 0"/><path d="m320 333.878906c0 6.628906-5.371094 12-12 12-6.625 0-12-5.371094-12-12 0-6.625 5.375-12 12-12 6.628906 0 12 5.375 12 12zm0 0"/><path d="m339.671875 367.5c0 5.523438-4.476563 10-10 10s-10-4.476562-10-10 4.476563-10 10-10 10 4.476562 10 10zm0 0"/><path d="m357.175781 397.757812c0 4.421876-3.582031 8-8 8s-8-3.578124-8-8c0-4.417968 3.582031-8 8-8s8 3.582032 8 8zm0 0"/><path d="m328.835938 223.894531c0 7.734375-6.269532 14-14 14-7.734376 0-14-6.265625-14-14 0-7.730469 6.265624-14 14-14 7.730468 0 14 6.269531 14 14zm0 0"/><path d="m369.335938 212.507812c0 6.628907-5.371094 12-12 12-6.625 0-12-5.371093-12-12 0-6.628906 5.375-12 12-12 6.628906 0 12 5.371094 12 12zm0 0"/><path d="m405.972656 202.15625c0 5.523438-4.476562 10-10 10-5.523437 0-10-4.476562-10-10s4.476563-10 10-10c5.523438 0 10 4.476562 10 10zm0 0"/><path d="m438.746094 192.835938c0 4.417968-3.582032 8-8 8-4.417969 0-8-3.582032-8-8 0-4.417969 3.582031-8 8-8 4.417968 0 8 3.582031 8 8zm0 0"/><path d="m248 37c0 4.417969-3.582031 8-8 8s-8-3.582031-8-8 3.582031-8 8-8 8 3.582031 8 8zm0 0"/></g><path d="m145.457031 399.367188c0 4.417968-3.582031 8-8 8s-8-3.582032-8-8c0-4.421876 3.582031-8 8-8s8 3.578124 8 8zm0 0" fill="#ffc34c"/><path d="m146.796875 363.1875c-2.519531 4.359375-1.347656 9.800781 2.496094 12.824219l2.605469-17.121094c-2.070313.789063-3.90625 2.230469-5.101563 4.296875zm0 0" fill="#ffc34c"/><path d="m48.851562 200.554688c3.714844.996093 7.515626-.800782 9.191407-4.089844-1.269531-3.167969-1.925781-6.480469-2.023438-9.785156-.859375-.710938-1.871093-1.273438-3.023437-1.582032-4.269532-1.144531-8.65625 1.386719-9.800782 5.65625-1.144531 4.269532 1.390626 8.65625 5.65625 9.800782zm0 0" fill="#ffc34c"/><path d="m240 63c-5.519531 0-10 4.480469-10 10 0 3.972656 2.335938 7.375 5.691406 8.988281l8.5-18.035156c-1.277344-.59375-2.6875-.953125-4.191406-.953125zm0 0" fill="#ffc34c"/><path d="m182.796875 270c0 9.941406-8.058594 18-18 18s-18-8.058594-18-18 8.058594-18 18-18 18 8.058594 18 18zm0 0" fill="#e58d23"/></svg>