<svg height="464pt" viewBox="0 -46 464 464" width="464pt" xmlns="http://www.w3.org/2000/svg"><path d="m51.835938 0h360.363281v47.035156h-360.363281zm0 0" fill="#eacf32"/><path d="m51.835938 0h56v47.035156h-56zm0 0" fill="#ccc033"/><path d="m236.179688 218.8125 50.375 153.1875 177.445312-31.28125-51.800781-293.683594h-360.398438l-51.800781 293.683594 177.445312 31.28125 50.40625-153.1875c.5625-1.714844 2.121094-2.910156 3.921876-3.007812 1.980468-.109376 3.789062 1.125 4.40625 3.007812zm0 0" fill="#ccc033"/><path d="m297.421875 359.839844c-2.550781 0-4.875-1.632813-5.695313-4.128906l-46.046874-140.019532c-2.027344-6.167968-7.921876-10.222656-14.460938-9.871094-3.324219.179688-6.136719-2.355468-6.316406-5.664062-.179688-3.308594 2.355468-6.136719 5.664062-6.316406 11.992188-.660156 22.796875 6.792968 26.515625 18.105468l44.421875 135.082032 25.53125-4.5c3.269532-.570313 6.375 1.605468 6.953125 4.867187.574219 3.265625-1.605469 6.378907-4.867187 6.953125l-30.652344 5.40625c-.351562.054688-.699219.085938-1.046875.085938zm0 0" fill="#eacf32"/><path d="m107.800781 67.035156h307.925781l-3.527343-20h-360.398438l-51.800781 293.683594 57.730469 10.179688zm0 0" fill="#99af17"/><path d="m463.996094 340.71875-51.796875-293.683594h-36.988281l52.914062 300.007813zm0 0" fill="#fcda4f"/><path d="m445.457031 333.742188c-2.859375 0-5.390625-2.046876-5.902343-4.957032l-20.960938-118.847656c-.578125-3.261719 1.601562-6.378906 4.867188-6.953125 3.269531-.5625 6.375 1.605469 6.949218 4.867187l20.964844 118.847657c.574219 3.261719-1.605469 6.375-4.867188 6.953125-.355468.058594-.707031.089844-1.050781.089844zm0 0" fill="#ffdf74"/><path d="m51.835938 33.023438h360.363281v14.011718h-360.363281zm0 0" fill="#ffd551"/><path d="m51.816406 0h360.367188v14.011719h-360.367188zm0 0" fill="#ffd551"/><path d="m35.90625 347.050781 52.914062-300.015625h-36.984374l-51.8007818 293.691406zm0 0" fill="#eacf32"/><path d="m415.726562 67.035156-3.527343-20h-36.988281l3.527343 20zm0 0" fill="#eacf32"/><path d="m51.835938 33.023438h56v14.011718h-56zm0 0" fill="#ffc34c"/><path d="m51.835938 0h56v14.011719h-56zm0 0" fill="#ffc34c"/><g fill="#99af17"><path d="m106.820312 329.050781c0 9.941407-8.058593 18-18 18-9.9375 0-18-8.058593-18-18 0-9.941406 8.0625-18 18-18 9.941407 0 18 8.058594 18 18zm0 0"/><path d="m149 91.054688c0 9.941406-8.058594 18-18 18s-18-8.058594-18-18c0-9.941407 8.058594-18 18-18s18 8.058593 18 18zm0 0"/></g></svg>