<svg height="480pt" viewBox="0 -100 480.002 480" width="480pt" xmlns="http://www.w3.org/2000/svg"><path d="m307.890625 0h-295.78125c-6.6875 0-12.109375 6.902344-12.109375 15.414062v97.921876h4c6.628906 0 12 6.839843 12 15.273437v44.046875c0 8.433594-5.371094 15.269531-12 15.269531h-4v76.660157c0 8.515624 5.421875 15.414062 12.109375 15.414062h295.777344c6.6875 0 12.109375-6.898438 12.109375-15.414062v-249.171876c.003906-8.511718-5.417969-15.414062-12.105469-15.414062zm0 0" fill="#fff4c1"/><path d="m56 264.585938v-76.660157h4c6.628906 0 12-6.835937 12-15.269531v-44.046875c0-8.433594-5.371094-15.273437-12-15.273437h-4v-97.921876c0-8.511718 5.421875-15.414062 12.109375-15.414062h-56c-6.6875 0-12.109375 6.902344-12.109375 15.414062v97.921876h4c6.628906 0 12 6.839843 12 15.273437v44.046875c0 8.433594-5.371094 15.269531-12 15.269531h-4v76.660157c0 8.515624 5.421875 15.414062 12.109375 15.414062h56c-6.6875 0-12.109375-6.898438-12.109375-15.414062zm0 0" fill="#fce575"/><path d="m476 113.335938h4v-97.921876c0-8.511718-5.421875-15.414062-12.109375-15.414062h-135.777344c-6.6875 0-12.109375 6.902344-12.109375 15.414062v249.175782c0 8.511718 5.421875 15.414062 12.109375 15.414062h135.777344c6.6875 0 12.109375-6.902344 12.109375-15.414062v-76.660156h-4c-6.628906 0-12-6.839844-12-15.273438v-44.046875c0-8.433594 5.371094-15.273437 12-15.273437zm0 0" fill="#fce575"/><path d="m464 104.179688c-3.3125 0-6-2.6875-6-6v-80c0-3.316407 2.6875-6 6-6s6 2.683593 6 6v80c0 3.3125-2.6875 6-6 6zm0 0" fill="#fff4c1"/><path d="m320 267.890625c0 6.6875-5.421875 12.109375-12.109375 12.109375h-295.78125c-6.6875 0-12.109375-5.421875-12.109375-12.109375v-27.890625h320zm0 0" fill="#e58d23"/><path d="m467.890625 280h-135.777344c-6.6875 0-12.109375-5.421875-12.109375-12.109375v-27.890625h160v27.890625c-.003906 6.6875-5.425781 12.109375-12.113281 12.109375zm0 0" fill="#e58d23"/><path d="m286.0625 59h-238.625c-6.871094 0-12.4375-5.566406-12.4375-12.433594v-11.128906c0-6.867188 5.566406-12.4375 12.4375-12.4375h238.625c6.871094 0 12.4375 5.570312 12.4375 12.4375v11.128906c0 6.867188-5.566406 12.433594-12.4375 12.433594zm0 0" fill="#ffc34c"/><path d="m372 221.167969c-3.3125 0-6-2.6875-6-6v-150.332031c0-3.316407 2.6875-6 6-6s6 2.683593 6 6v150.332031c0 3.3125-2.6875 6-6 6zm0 0" fill="#a56021"/><path d="m400 182.058594c-3.3125 0-6-2.6875-6-6v-111.222656c0-3.316407 2.6875-6 6-6s6 2.683593 6 6v111.222656c0 3.3125-2.6875 6-6 6zm0 0" fill="#a56021"/><path d="m428 182.058594c-3.3125 0-6-2.6875-6-6v-111.222656c0-3.316407 2.6875-6 6-6s6 2.683593 6 6v111.222656c0 3.3125-2.6875 6-6 6zm0 0" fill="#a56021"/><path d="m56 267.890625v-27.890625h-56v27.890625c0 6.6875 5.421875 12.109375 12.109375 12.109375h56c-6.6875 0-12.109375-5.421875-12.109375-12.109375zm0 0" fill="#bf6c0d"/><path d="m45.152344 23c-5.605469 0-10.152344 6.820312-10.152344 15.234375v5.535156c0 8.414063 4.546875 15.234375 10.152344 15.234375h10.847656v-36h-10.847656zm0 0" fill="#f9bb32"/><path d="m99.332031 260c0 9.941406-8.058593 18-18 18-9.941406 0-18-8.058594-18-18s8.058594-18 18-18c9.941407 0 18 8.058594 18 18zm0 0" fill="#bf6c0d"/><g fill="#a56021"><path d="m287.476562 96.25h-88.957031c-3.050781 0-5.523437-2.683594-5.523437-6 0-3.3125 2.472656-6 5.523437-6h88.957031c3.050782 0 5.519532 2.6875 5.519532 6 0 3.316406-2.46875 6-5.519532 6zm0 0"/><path d="m287.476562 120.25h-88.957031c-3.050781 0-5.523437-2.683594-5.523437-6 0-3.3125 2.472656-6 5.523437-6h88.957031c3.050782 0 5.519532 2.6875 5.519532 6 0 3.316406-2.46875 6-5.519532 6zm0 0"/><path d="m288.902344 207.75h-251.386719c-3.128906 0-5.667969-2.683594-5.667969-6 0-3.3125 2.535156-6 5.667969-6h251.386719c3.132812 0 5.667968 2.6875 5.667968 6 0 3.316406-2.535156 6-5.667968 6zm0 0"/><path d="m287.476562 144.25h-88.957031c-3.050781 0-5.523437-2.683594-5.523437-6 0-3.3125 2.472656-6 5.523437-6h88.957031c3.050782 0 5.519532 2.6875 5.519532 6 0 3.316406-2.46875 6-5.519532 6zm0 0"/></g><path d="m37.515625 195.75c-3.128906 0-5.667969 2.6875-5.667969 6 0 3.316406 2.535156 6 5.667969 6h15.332031v-12zm0 0" fill="#8c4c17"/><path d="m288.902344 179.75h-251.386719c-3.128906 0-5.667969-2.683594-5.667969-6 0-3.3125 2.535156-6 5.667969-6h251.386719c3.132812 0 5.667968 2.6875 5.667968 6 0 3.316406-2.535156 6-5.667968 6zm0 0" fill="#a56021"/><path d="m37.515625 167.75c-3.128906 0-5.667969 2.6875-5.667969 6 0 3.316406 2.535156 6 5.667969 6h15.332031v-12zm0 0" fill="#8c4c17"/><path d="m99.332031 41c0 9.941406-8.058593 18-18 18-9.941406 0-18-8.058594-18-18s8.058594-18 18-18c9.941407 0 18 8.058594 18 18zm0 0" fill="#f9bb32"/><path d="m320 29.414062c-2.207031 0-4-1.792968-4-4v-10c0-2.207031 1.792969-4 4-4s4 1.792969 4 4v10c0 2.207032-1.792969 4-4 4zm0 0" fill="#bf6c0d"/><path d="m320 240.757812c-2.207031 0-4-1.792968-4-4v-21.136718c0-2.207032 1.792969-4 4-4s4 1.792968 4 4v21.136718c0 2.207032-1.792969 4-4 4zm0-42.269531c-2.207031 0-4-1.792969-4-4v-21.132812c0-2.207031 1.792969-4 4-4s4 1.792969 4 4v21.132812c0 2.207031-1.792969 4-4 4zm0-42.269531c-2.207031 0-4-1.792969-4-4v-21.132812c0-2.207032 1.792969-4 4-4s4 1.792968 4 4v21.132812c0 2.210938-1.792969 4-4 4zm0-42.269531c-2.207031 0-4-1.789063-4-4v-21.132813c0-2.207031 1.792969-4 4-4s4 1.792969 4 4v21.132813c0 2.210937-1.792969 4-4 4zm0-42.265625c-2.207031 0-4-1.792969-4-4v-21.132813c0-2.210937 1.792969-4 4-4s4 1.789063 4 4v21.132813c0 2.210937-1.792969 4-4 4zm0 0" fill="#bf6c0d"/><path d="m320 271.890625c-2.207031 0-4-1.792969-4-4v-10c0-2.207031 1.792969-4 4-4s4 1.792969 4 4v10c0 2.207031-1.792969 4-4 4zm0 0" fill="#bf6c0d"/><path d="m74.953125 89.160156 6.589844-15.527344c.332031-.777343 1.09375-1.285156 1.941406-1.285156h38.160156c.835938 0 1.589844.492188 1.929688 1.257813l6.875 15.558593h-55.496094zm0 0" fill="#ffd551"/><path d="m103.480469 72.347656h-20c-.84375 0-1.609375.507813-1.9375 1.285156l-6.589844 15.527344h20l6.589844-15.527344c.328125-.78125 1.09375-1.285156 1.9375-1.285156zm0 0" fill="#ffc34c"/><path d="m53.335938 117.578125 12.507812-29.472656c.625-1.476563 2.074219-2.4375 3.679688-2.4375h72.433593c1.585938 0 3.019531.933593 3.660157 2.382812l13.050781 29.527344zm0 0" fill="#ffc34c"/><path d="m85.523438 85.667969h-16c-1.609376 0-3.058594.960937-3.683594 2.4375l-12.507813 29.472656h16l12.507813-29.472656c.628906-1.476563 2.078125-2.4375 3.683594-2.4375zm0 0" fill="#f9bb32"/><path d="m39.585938 110.335938h123.613281c3.046875 0 4.976562 3.277343 3.496093 5.941406l-20.300781 36.5c-.703125 1.273437-2.042969 2.058594-3.496093 2.058594h-90.824219c-4.734375 0-8.820313-3.324219-9.789063-7.957032l-6.613281-31.726562c-.519531-2.484375 1.378906-4.816406 3.914063-4.816406zm0 0" fill="#e58d23"/><path d="m97.78125 132.585938c0 5.523437-4.476562 10-10 10s-10-4.476563-10-10c0-5.523438 4.476562-10 10-10s10 4.476562 10 10zm0 0" fill="#ffd551"/><path d="m137.78125 132.585938c0 5.523437-4.476562 10-10 10s-10-4.476563-10-10c0-5.523438 4.476562-10 10-10s10 4.476562 10 10zm0 0" fill="#ffd551"/><path d="m148.457031 94.480469h-47.792969c-1.101562 0-2 .894531-2 2v6h53.328126zm0 0" fill="#fff4c1"/><path d="m66.285156 146.875-6.613281-31.722656c-.519531-2.484375 1.375-4.816406 3.914063-4.816406h-24c-2.539063 0-4.433594 2.332031-3.914063 4.816406l6.613281 31.722656c.96875 4.636719 5.054688 7.957031 9.789063 7.957031h24c-4.734375.003907-8.820313-3.320312-9.789063-7.957031zm0 0" fill="#bf6c0d"/><path d="m85.78125 132.585938c0-4.097657 2.472656-7.613282 6-9.15625-1.226562-.535157-2.574219-.84375-4-.84375-5.519531 0-10 4.476562-10 10 0 5.519531 4.480469 10 10 10 1.425781 0 2.773438-.308594 4-.84375-3.527344-1.546876-6-5.058594-6-9.15625zm0 0" fill="#f9bb32"/><path d="m125.78125 132.585938c0-4.097657 2.472656-7.613282 6-9.15625-1.226562-.535157-2.574219-.84375-4-.84375-5.519531 0-10 4.476562-10 10 0 5.519531 4.480469 10 10 10 1.425781 0 2.773438-.308594 4-.84375-3.527344-1.546876-6-5.058594-6-9.15625zm0 0" fill="#f9bb32"/></svg>