<svg enable-background="new 0 0 32 32" height="512" viewBox="0 0 32 32" width="512" xmlns="http://www.w3.org/2000/svg"><path d="m26 32h-20c-3.314 0-6-2.686-6-6v-20c0-3.314 2.686-6 6-6h20c3.314 0 6 2.686 6 6v20c0 3.314-2.686 6-6 6z" fill="#fff9dd"/><path d="m23.5 24.5h-2.333c-.276 0-.5-.224-.5-.5v-.833h-2.333v.833c0 .276-.224.5-.5.5h-3.667c-.276 0-.5-.224-.5-.5v-.833h-2.333v.833c0 .276-.224.5-.5.5h-2.334c-.276 0-.5-.224-.5-.5v-3c0-.276.224-.5.5-.5h15c.276 0 .5.224.5.5v3c0 .276-.224.5-.5.5z" fill="#ffd200"/><g fill="#ffe777"><path d="m16 17c-.368 0-.667-.299-.667-.667v-5.167c0-.368.298-.667.667-.667.368 0 .667.299.667.667v5.167c0 .368-.299.667-.667.667z"/><path d="m16 17.167c-.163 0-.327-.06-.455-.179l-2.5-2.333c-.269-.251-.283-.673-.033-.942.252-.27.673-.284.943-.033l2.045 1.908 2.045-1.909c.27-.252.691-.237.943.033.251.269.236.691-.033.942l-2.5 2.333c-.128.12-.292.18-.455.18z"/></g></svg>