<svg enable-background="new 0 0 32 32" height="512" viewBox="0 0 32 32" width="512" xmlns="http://www.w3.org/2000/svg"><path d="m26 32h-20c-3.314 0-6-2.686-6-6v-20c0-3.314 2.686-6 6-6h20c3.314 0 6 2.686 6 6v20c0 3.314-2.686 6-6 6z" fill="#fff9dd"/><path d="m20.833 14h-2.167v1.333c.001.369-.298.667-.666.667s-.667-.298-.667-.667v-1.333h-2.167c-.275 0-.5.225-.5.5v4.92c.7.18 1.287.633 1.64 1.247h4.527c.275 0 .5-.225.5-.5v-5.667c0-.275-.225-.5-.5-.5z" fill="#ffd200"/><path d="m23.772 23.835c.277-.243.305-.663.062-.941l-1.167-1.333c-.127-.145-.309-.228-.502-.228h-6.289c-.252-.709-.889-1.229-1.661-1.313l-2.227-11.447c-.06-.31-.33-.535-.646-.539l-2.667-.034c-.003 0-.006 0-.009 0-.364 0-.661.293-.666.658-.005.368.29.671.658.675l2.124.026 2.134 10.962c-.549.357-.916.974-.916 1.677 0 1.103.897 2 2 2 .867 0 1.6-.558 1.877-1.331h5.988l.967 1.106c.132.15.316.227.502.227.155 0 .312-.054.438-.165z" fill="#ffe777"/></svg>