<svg enable-background="new 0 0 32 32" height="512" viewBox="0 0 32 32" width="512" xmlns="http://www.w3.org/2000/svg"><path d="m26 32h-20c-3.314 0-6-2.686-6-6v-20c0-3.314 2.686-6 6-6h20c3.314 0 6 2.686 6 6v20c0 3.314-2.686 6-6 6z" fill="#e3f8fa"/><g fill="#8ce1eb"><path d="m23 22h-14c-.368 0-.667-.299-.667-.667s.299-.666.667-.666h14c.368 0 .667.299.667.667s-.299.666-.667.666z"/><path d="m23 14.667h-14c-.368 0-.667-.299-.667-.667s.299-.667.667-.667h14c.368 0 .667.299.667.667s-.299.667-.667.667z"/><path d="m8.667 24c-.369 0-.667-.298-.667-.667v-14.666c0-.369.298-.667.667-.667s.667.299.667.667v14.667c-.001.368-.299.666-.667.666z"/><path d="m23.333 24c-.368 0-.667-.299-.667-.667v-14.666c.001-.369.299-.667.667-.667s.667.298.667.667v14.667c0 .368-.298.666-.667.666z"/></g><g fill="#26c6da"><path d="m13.167 16.667v.5c0 .276-.224.5-.5.5s-.5-.224-.5-.5v-.5h-1.167c-.184 0-.333.149-.333.333v2.667c0 .184.149.333.333.333h3.333c.184 0 .333-.149.333-.333v-2.667c0-.184-.149-.333-.333-.333z"/><path d="m18.833 16v.5c0 .276-.224.5-.5.5s-.5-.224-.5-.5v-.5h-1.5c-.184 0-.333.149-.333.333v3.333c0 .185.149.334.333.334h4c.184 0 .333-.149.333-.333v-3.333c0-.184-.149-.333-.333-.333h-1.5z"/><path d="m14.5 9.333v.5c0 .276-.224.5-.5.5s-.5-.224-.5-.5v-.5h-1.833c-.184 0-.333.149-.333.333v2.667c0 .184.149.333.333.333h4.667c.184 0 .333-.149.333-.333v-2.666c0-.184-.149-.333-.333-.333h-1.834z"/></g></svg>