<svg enable-background="new 0 0 32 32" height="512" viewBox="0 0 32 32" width="512" xmlns="http://www.w3.org/2000/svg"><path d="m26 32h-20c-3.314 0-6-2.686-6-6v-20c0-3.314 2.686-6 6-6h20c3.314 0 6 2.686 6 6v20c0 3.314-2.686 6-6 6z" fill="#e3f8fa"/><path d="m17.667 18.167c-.368 0-.667-.299-.667-.667v-5.333c0-.368.299-.667.667-.667s.667.299.667.667v5.333c-.001.368-.299.667-.667.667z" fill="#8ce1eb"/><path d="m20.167 14.833c-.163 0-.326-.059-.455-.179l-2.045-1.909-2.045 1.909c-.268.251-.69.238-.942-.033-.251-.269-.237-.691.033-.942l2.5-2.333c.256-.239.654-.239.91 0l2.5 2.333c.269.251.284.673.033.942-.133.141-.311.212-.489.212z" fill="#8ce1eb"/><path d="m23.835 22.894-.768-.878c-.38-.434-.928-.683-1.505-.683h-7.684c-.201-.565-.646-1.009-1.21-1.21v-10.103c0-1.092-.888-1.989-1.98-2l-2.015-.02c-.002 0-.004 0-.006 0-.366 0-.663.294-.667.66-.004.368.292.67.66.673l2.014.02c.364.004.66.303.66.667v10.103c-.775.276-1.334 1.009-1.334 1.877 0 1.103.897 2 2 2 .868 0 1.601-.559 1.877-1.333h7.684c.192 0 .375.083.502.228l.768.878c.133.15.317.227.503.227.156 0 .312-.054.439-.165.277-.243.305-.663.062-.941z" fill="#26c6da"/></svg>