<svg enable-background="new 0 0 32 32" height="512" viewBox="0 0 32 32" width="512" xmlns="http://www.w3.org/2000/svg"><path d="m26 32h-20c-3.314 0-6-2.686-6-6v-20c0-3.314 2.686-6 6-6h20c3.314 0 6 2.686 6 6v20c0 3.314-2.686 6-6 6z" fill="#ffe6e2"/><path d="m26 32h-20c-3.314 0-6-2.686-6-6v-20c0-3.314 2.686-6 6-6h20c3.314 0 6 2.686 6 6v20c0 3.314-2.686 6-6 6z" fill="#ffe6e2"/><path d="m19.167 8h-6.333c-2.662 0-4.827 2.162-4.834 4.821-.001.28.22.512.5.512h.833v10c0 .369.299.667.667.667h.667v-7.333c0-.368.298-.667.667-.667h9.333c.368 0 .667.298.667.667v7.333h.666c.368 0 .667-.298.667-.667v-10h.833c.28 0 .501-.232.5-.512-.007-2.659-2.172-4.821-4.833-4.821zm-5.334 2.333h4.333c.276 0 .5.224.5.5s-.224.5-.5.5h-4.333c-.276 0-.5-.224-.5-.5s.224-.5.5-.5z" fill="#fc573b"/><path d="m11.333 16.667v2.333h3.667c0-.552.448-1 1-1s1 .448 1 1h3.667v-2.333z" fill="#fd907e"/></svg>