<svg enable-background="new 0 0 32 32" height="512" viewBox="0 0 32 32" width="512" xmlns="http://www.w3.org/2000/svg"><path d="m26 32h-20c-3.314 0-6-2.686-6-6v-20c0-3.314 2.686-6 6-6h20c3.314 0 6 2.686 6 6v20c0 3.314-2.686 6-6 6z" fill="#e3f8fa"/><path d="m23.79 13.426-7.5-5.333c-.173-.123-.406-.123-.579 0l-7.5 5.333c-.133.094-.211.245-.211.407v2.333c0 .187.104.358.271.444.166.085.366.072.519-.037l.544-.387v7.146c-.001.37.298.668.666.668h1.333v-8h9.333v8h1.334c.368 0 .667-.298.667-.667v-7.146l.544.387c.086.061.188.092.29.092.078 0 .157-.019.229-.056.166-.085.27-.256.27-.443v-2.333c0-.163-.078-.314-.21-.408z" fill="#26c6da"/><g fill="#8ce1eb"><path d="m12.333 22.333h7.333v1.667h-7.333z"/><path d="m12.333 19.667h7.333v1.667h-7.333z"/><path d="m12.333 17h7.333v1.667h-7.333z"/></g></svg>