<svg enable-background="new 0 0 32 32" height="512" viewBox="0 0 32 32" width="512" xmlns="http://www.w3.org/2000/svg"><path d="m26 32h-20c-3.314 0-6-2.686-6-6v-20c0-3.314 2.686-6 6-6h20c3.314 0 6 2.686 6 6v20c0 3.314-2.686 6-6 6z" fill="#ffe6e2"/><path d="m23.5 10h-11.5v-1.5c0-.276-.224-.5-.5-.5h-1.667c-.276 0-.5.224-.5.5v1.5h-.833c-.276 0-.5.224-.5.5v1.667c0 .276.224.5.5.5h.833v10.833c0 .276.224.5.5.5h1.5v-8h9.333v8h1.5c.276 0 .5-.224.5-.5v-10.833h.834c.276 0 .5-.224.5-.5v-1.667c0-.276-.224-.5-.5-.5z" fill="#fc573b"/><g fill="#fd907e"><path d="m12.333 22.333h7.333v1.667h-7.333z"/><path d="m12.333 19.667h7.333v1.667h-7.333z"/><path d="m12.333 17h7.333v1.667h-7.333z"/></g></svg>